g attribwrangle13
v -0.14992599 -0.00471159 0
v -0.15 1.3113416E-08 0
v -0.17499691 4.4773333E-08 0
v -0.17491674 -0.005496971 0
v -0.14970401 -0.0094185565 0
v -0.17465775 -0.010988559 0
v -0.1493343 -0.014116228 0
v -0.1742264 -0.016469209 0
v -0.14881721 -0.018799966 0
v -0.17362313 -0.021933649 0
v -0.14815326 -0.023465155 0
v -0.17284851 -0.027376497 0
v -0.14734308 -0.028107185 0
v -0.1719033 -0.0327923 0
v -0.14638752 -0.032721475 0
v -0.17078845 -0.03817573 0
v -0.1452875 -0.037303403 0
v -0.16950506 -0.043521404 0
v -0.14404409 -0.04184859 0
v -0.16805439 -0.048824217 0
v -0.1426585 -0.046352476 0
v -0.16643785 -0.054078855 0
v -0.14113215 -0.050810613 0
v -0.16465707 -0.05928008 0
v -0.13946651 -0.055218615 0
v -0.1627138 -0.064422846 0
v -0.13766323 -0.05957212 0
v -0.16060993 -0.06950202 0
v -0.1357241 -0.06386683 0
v -0.15834756 -0.07451262 0
v -0.133651 -0.068098515 0
v -0.15592891 -0.07944969 0
v -0.13144603 -0.072262995 0
v -0.15335642 -0.0843083 0
v -0.12911133 -0.076356165 0
v -0.15063256 -0.08908374 0
v -0.12664923 -0.080373965 0
v -0.14776003 -0.09377128 0
v -0.12406212 -0.08431246 0
v -0.1447417 -0.098366275 0
v -0.12135259 -0.08816774 0
v -0.1415805 -0.10286418 0
v -0.11852329 -0.091936015 0
v -0.1382796 -0.1072606 0
v -0.11557702 -0.095613554 0
v -0.13484222 -0.11155112 0
v -0.112516694 -0.09919675 0
v -0.13127178 -0.115731575 0
v -0.10934533 -0.10268202 0
v -0.12757179 -0.11979782 0
v -0.10606605 -0.10606598 0
v -0.12374592 -0.123745814 0
v -0.102682106 -0.10934526 0
v -0.11979791 -0.1275717 0
v -0.099196814 -0.112516634 0
v -0.11573167 -0.1312717 0
v -0.095613636 -0.11557696 0
v -0.11155119 -0.13484217 0
v -0.0919361 -0.11852322 0
v -0.10726067 -0.13827953 0
v -0.088167824 -0.12135253 0
v -0.10286429 -0.14158045 0
v -0.08431254 -0.12406206 0
v -0.09836634 -0.14474164 0
v -0.080374055 -0.12664917 0
v -0.09377139 -0.14775996 0
v -0.07635625 -0.12911129 0
v -0.08908387 -0.15063249 0
v -0.072263084 -0.13144599 0
v -0.084308386 -0.15335637 0
v -0.0680986 -0.13365096 0
v -0.07944975 -0.15592888 0
v -0.06386692 -0.13572405 0
v -0.07451271 -0.15834752 0
v -0.05957221 -0.13766317 0
v -0.06950214 -0.16060987 0
v -0.055218704 -0.13946646 0
v -0.06442297 -0.16271375 0
v -0.050810706 -0.1411321 0
v -0.059280206 -0.16465703 0
v -0.04635257 -0.14265847 0
v -0.054078944 -0.16643782 0
v -0.041848686 -0.14404404 0
v -0.04882431 -0.16805436 0
v -0.0373035 -0.14528747 0
v -0.04352152 -0.16950504 0
v -0.0327215 -0.1463875 0
v -0.038175773 -0.17078844 0
v -0.028107211 -0.14734308 0
v -0.032792326 -0.1719033 0
v -0.02346518 -0.14815325 0
v -0.027376523 -0.17284851 0
v -0.018799994 -0.14881721 0
v -0.021933706 -0.17362313 0
v -0.014116255 -0.1493343 0
v -0.016469236 -0.1742264 0
v -0.0094185835 -0.14970401 0
v -0.010988555 -0.17465775 0
v -0.0047116177 -0.14992599 0
v -0.005496999 -0.17491673 0
v -1.788732E-09 -0.15 0
v -3.0457254E-08 -0.1750031 0
v 0.0047115427 -0.14992599 0
v 0.0054969266 -0.17491674 0
v 0.009418509 -0.14970401 0
v 0.01098848 -0.17465775 0
v 0.01411618 -0.1493343 0
v 0.016469128 -0.17422643 0
v 0.018799921 -0.14881723 0
v 0.021933634 -0.17362314 0
v 0.023465106 -0.14815326 0
v 0.027376449 -0.17284851 0
v 0.028107136 -0.1473431 0
v 0.03279222 -0.17190331 0
v 0.032721426 -0.14638753 0
v 0.03817567 -0.17078845 0
v 0.03730343 -0.1452875 0
v 0.043521445 -0.16950506 0
v 0.04184861 -0.14404407 0
v 0.04882424 -0.16805439 0
v 0.0463525 -0.1426585 0
v 0.054078843 -0.16643785 0
v 0.050810643 -0.14113215 0
v 0.059280135 -0.16465707 0
v 0.055218637 -0.1394665 0
v 0.06442288 -0.16271377 0
v 0.059572138 -0.13766323 0
v 0.06950204 -0.16060993 0
v 0.06386685 -0.13572408 0
v 0.074512675 -0.15834753 0
v 0.06809854 -0.133651 0
v 0.07944968 -0.15592891 0
v 0.07226302 -0.13144603 0
v 0.08430832 -0.15335642 0
v 0.07635618 -0.12911133 0
v 0.08908378 -0.15063253 0
v 0.08037399 -0.12664922 0
v 0.0937713 -0.14776002 0
v 0.084312476 -0.12406211 0
v 0.0983663 -0.14474168 0
v 0.088167764 -0.12135257 0
v 0.102864206 -0.14158049 0
v 0.09193603 -0.11852328 0
v 0.107260585 -0.1382796 0
v 0.09561358 -0.115577005 0
v 0.11155112 -0.13484223 0
v 0.09919676 -0.112516694 0
v 0.1157316 -0.13127178 0
v 0.10268205 -0.10934532 0
v 0.11979784 -0.12757178 0
v 0.106066 -0.10606604 0
v 0.12374585 -0.123745896 0
v 0.10934527 -0.10268209 0
v 0.12757175 -0.11979788 0
v 0.11251664 -0.0991968 0
v 0.1312717 -0.11573166 0
v 0.11557698 -0.09561362 0
v 0.13484219 -0.11155119 0
v 0.11852324 -0.091936074 0
v 0.13827956 -0.10726064 0
v 0.121352546 -0.08816781 0
v 0.14158045 -0.102864265 0
v 0.12406208 -0.08431252 0
v 0.14474167 -0.09836632 0
v 0.12664919 -0.080374025 0
v 0.14776 -0.09377133 0
v 0.12911128 -0.076356255 0
v 0.15063249 -0.08908387 0
v 0.13144599 -0.072263084 0
v 0.15335634 -0.08430843 0
v 0.13365096 -0.06809862 0
v 0.15592887 -0.079449795 0
v 0.13572405 -0.06386693 0
v 0.15834752 -0.07451271 0
v 0.13766317 -0.05957222 0
v 0.16060989 -0.06950214 0
v 0.13946645 -0.055218723 0
v 0.16271372 -0.06442299 0
v 0.1411321 -0.05081072 0
v 0.16465703 -0.059280217 0
v 0.14265846 -0.046352584 0
v 0.1664378 -0.054078963 0
v 0.14404404 -0.041848697 0
v 0.16805434 -0.04882435 0
v 0.14528747 -0.03730351 0
v 0.16950504 -0.04352153 0
v 0.1463875 -0.032721516 0
v 0.17078844 -0.038175788 0
v 0.14734308 -0.02810722 0
v 0.1719033 -0.032792337 0
v 0.14815325 -0.023465192 0
v 0.17284851 -0.027376538 0
v 0.14881721 -0.018800005 0
v 0.17362313 -0.021933718 0
v 0.1493343 -0.014116267 0
v 0.1742264 -0.016469248 0
v 0.14970401 -0.009418595 0
v 0.17465775 -0.010988566 0
v 0.14992599 -0.004711629 0
v 0.17491673 -0.00549701 0
v 0.15 -1.3113416E-08 0
v 0.1750031 -1.3113416E-08 0
v 0.14992599 0.004711603 0
v 0.17491673 0.005496984 0
v 0.14970401 0.0094185695 0
v 0.17465775 0.010988541 0
v 0.1493343 0.01411624 0
v 0.1742264 0.01646923 0
v 0.14881721 0.018799946 0
v 0.17362313 0.021933638 0
v 0.14815326 0.023465132 0
v 0.17284851 0.027376477 0
v 0.14734308 0.02810716 0
v 0.1719033 0.032792278 0
v 0.14638752 0.032721456 0
v 0.17078845 0.03817567 0
v 0.1452875 0.03730345 0
v 0.16950507 0.04352144 0
v 0.14404407 0.041848637 0
v 0.16805437 0.048824266 0
v 0.1426585 0.046352517 0
v 0.16643785 0.05407889 0
v 0.14113213 0.050810665 0
v 0.16465704 0.059280187 0
v 0.13946648 0.055218663 0
v 0.16271375 0.064422905 0
v 0.13766322 0.05957216 0
v 0.16060992 0.06950206 0
v 0.13572407 0.063866876 0
v 0.15834753 0.07451267 0
v 0.133651 0.06809856 0
v 0.1559289 0.079449736 0
v 0.131446 0.07226303 0
v 0.15335636 0.08430837 0
v 0.12911132 0.076356195 0
v 0.15063255 0.08908377 0
v 0.1266492 0.08037402 0
v 0.14776 0.09377135 0
v 0.12406208 0.0843125 0
v 0.14474164 0.09836634 0
v 0.12135255 0.08816778 0
v 0.14158049 0.1028642 0
v 0.11852326 0.09193605 0
v 0.13827959 0.10726061 0
v 0.115577 0.09561359 0
v 0.1348422 0.11155116 0
v 0.112516664 0.099196784 0
v 0.13127176 0.11573162 0
v 0.109345295 0.10268207 0
v 0.12757175 0.11979788 0
v 0.10606601 0.10606601 0
v 0.12374586 0.12374587 0
v 0.10268209 0.10934527 0
v 0.1197979 0.12757172 0
v 0.09919681 0.11251664 0
v 0.11573166 0.13127172 0
v 0.09561362 0.115576975 0
v 0.11155119 0.13484219 0
v 0.09193609 0.11852323 0
v 0.107260644 0.13827954 0
v 0.08816781 0.12135253 0
v 0.102864265 0.14158045 0
v 0.084312536 0.124062076 0
v 0.09836637 0.14474164 0
v 0.08037404 0.12664919 0
v 0.09377135 0.14775999 0
v 0.07635623 0.12911129 0
v 0.08908384 0.15063249 0
v 0.07226307 0.13144599 0
v 0.08430841 0.15335636 0
v 0.0680986 0.13365097 0
v 0.07944974 0.1559289 0
v 0.063866906 0.13572405 0
v 0.0745127 0.15834752 0
v 0.059572197 0.13766319 0
v 0.06950214 0.16060989 0
v 0.055218697 0.13946646 0
v 0.064422965 0.16271374 0
v 0.050810702 0.14113212 0
v 0.059280194 0.16465704 0
v 0.046352554 0.14265847 0
v 0.054078896 0.16643783 0
v 0.04184867 0.14404404 0
v 0.048824318 0.16805434 0
v 0.037303504 0.14528747 0
v 0.043521535 0.16950503 0
v 0.03272151 0.1463875 0
v 0.03817578 0.17078844 0
v 0.028107215 0.14734308 0
v 0.03279233 0.1719033 0
v 0.023465184 0.14815325 0
v 0.02737653 0.17284851 0
v 0.0188 0.14881721 0
v 0.021933712 0.17362313 0
v 0.014116259 0.1493343 0
v 0.01646924 0.1742264 0
v 0.009418588 0.14970401 0
v 0.0109885605 0.17465775 0
v 0.004711623 0.14992599 0
v 0.0054970044 0.17491673 0
v 6.556708E-09 0.15 0
v 6.556708E-09 0.1750031 0
v -0.0047116093 0.14992599 0
v -0.005496993 0.17491673 0
v -0.009418557 0.14970401 0
v -0.010988531 0.17465775 0
v -0.014116228 0.1493343 0
v -0.016469209 0.1742264 0
v -0.018799966 0.14881721 0
v -0.021933649 0.17362313 0
v -0.023465157 0.14815326 0
v -0.0273765 0.17284851 0
v -0.028107185 0.14734308 0
v -0.032792304 0.1719033 0
v -0.032721475 0.14638752 0
v -0.038175713 0.17078845 0
v -0.037303474 0.14528748 0
v -0.04352149 0.16950504 0
v -0.04184866 0.14404406 0
v -0.048824288 0.16805437 0
v -0.046352547 0.14265849 0
v -0.054078925 0.16643783 0
v -0.050810684 0.14113212 0
v -0.059280183 0.16465704 0
v -0.055218685 0.13946648 0
v -0.06442294 0.16271375 0
v -0.059572168 0.1376632 0
v -0.06950209 0.16060989 0
v -0.063866876 0.13572407 0
v -0.074512646 0.15834755 0
v -0.06809857 0.133651 0
v -0.079449736 0.1559289 0
v -0.07226305 0.131446 0
v -0.0843084 0.15335636 0
v -0.07635621 0.1291113 0
v -0.08908381 0.1506325 0
v -0.08037402 0.12664919 0
v -0.09377133 0.14776 0
v -0.084312506 0.12406208 0
v -0.09836631 0.14474165 0
v -0.08816779 0.12135255 0
v -0.10286422 0.14158049 0
v -0.09193605 0.11852326 0
v -0.10726064 0.13827957 0
v -0.09561359 0.115577 0
v -0.111551166 0.13484219 0
v -0.09919677 0.112516664 0
v -0.11573159 0.13127176 0
v -0.10268207 0.10934531 0
v -0.11979786 0.12757176 0
v -0.10606601 0.10606601 0
v -0.123745896 0.12374582 0
v -0.10934528 0.10268207 0
v -0.12757173 0.11979788 0
v -0.11251666 0.09919679 0
v -0.13127172 0.11573166 0
v -0.11557698 0.09561361 0
v -0.1348422 0.111551166 0
v -0.118523255 0.09193606 0
v -0.13827957 0.10726062 0
v -0.12135255 0.08816779 0
v -0.14158048 0.10286423 0
v -0.12406208 0.084312506 0
v -0.14474165 0.09836633 0
v -0.12664919 0.080374025 0
v -0.14775999 0.09377135 0
v -0.1291113 0.07635622 0
v -0.1506325 0.08908382 0
v -0.131446 0.072263055 0
v -0.15335636 0.0843084 0
v -0.13365099 0.06809858 0
v -0.1559289 0.079449736 0
v -0.13572405 0.0638669 0
v -0.15834753 0.07451266 0
v -0.13766319 0.059572186 0
v -0.16060989 0.069502115 0
v -0.13946648 0.055218685 0
v -0.16271375 0.06442296 0
v -0.14113212 0.05081069 0
v -0.16465704 0.059280187 0
v -0.14265849 0.04635255 0
v -0.16643785 0.054078903 0
v -0.14404404 0.04184867 0
v -0.16805434 0.048824307 0
v -0.14528748 0.03730349 0
v -0.16950504 0.043521505 0
v -0.1463875 0.03272149 0
v -0.17078844 0.038175732 0
v -0.14734308 0.0281072 0
v -0.1719033 0.03279235 0
v -0.14815326 0.023465171 0
v -0.17284851 0.027376516 0
v -0.14881721 0.018799985 0
v -0.17362313 0.021933667 0
v -0.1493343 0.014116249 0
v -0.1742264 0.01646923 0
v -0.14970401 0.009418579 0
v -0.17465775 0.010988551 0
v -0.14992599 0.0047116145 0
v -0.17491673 0.0054969955 0
v -0.15 1.3113416E-08 0
v -0.17499691 4.4773333E-08 0
vt 0 0.995
vt 0 1
vt 1 1
vt 1 0.995
vt 0 0.99
vt 1 0.99
vt 0 0.985
vt 1 0.985
vt 0 0.98
vt 1 0.98
vt 0 0.975
vt 1 0.975
vt 0 0.97
vt 1 0.97
vt 0 0.965
vt 1 0.965
vt 0 0.96
vt 1 0.96
vt 0 0.955
vt 1 0.955
vt 0 0.95
vt 1 0.95
vt 0 0.945
vt 1 0.945
vt 0 0.94
vt 1 0.94
vt 0 0.935
vt 1 0.935
vt 0 0.93
vt 1 0.93
vt 0 0.925
vt 1 0.925
vt 0 0.92
vt 1 0.92
vt 0 0.915
vt 1 0.915
vt 0 0.91
vt 1 0.91
vt 0 0.905
vt 1 0.905
vt 0 0.9
vt 1 0.9
vt 0 0.895
vt 1 0.895
vt 0 0.89
vt 1 0.89
vt 0 0.885
vt 1 0.885
vt 0 0.88
vt 1 0.88
vt 0 0.875
vt 1 0.875
vt 0 0.87
vt 1 0.87
vt 0 0.865
vt 1 0.865
vt 0 0.86
vt 1 0.86
vt 0 0.855
vt 1 0.855
vt 0 0.85
vt 1 0.85
vt 0 0.845
vt 1 0.845
vt 0 0.84
vt 1 0.84
vt 0 0.835
vt 1 0.835
vt 0 0.83
vt 1 0.83
vt 0 0.825
vt 1 0.825
vt 0 0.82
vt 1 0.82
vt 0 0.815
vt 1 0.815
vt 0 0.81
vt 1 0.81
vt 0 0.805
vt 1 0.805
vt 0 0.8
vt 1 0.8
vt 0 0.795
vt 1 0.795
vt 0 0.79
vt 1 0.79
vt 0 0.785
vt 1 0.785
vt 0 0.78
vt 1 0.78
vt 0 0.775
vt 1 0.775
vt 0 0.77
vt 1 0.77
vt 0 0.765
vt 1 0.765
vt 0 0.76
vt 1 0.76
vt 0 0.755
vt 1 0.755
vt 0 0.75
vt 1 0.75
vt 0 0.745
vt 1 0.745
vt 0 0.74
vt 1 0.74
vt 0 0.735
vt 1 0.735
vt 0 0.73
vt 1 0.73
vt 0 0.725
vt 1 0.725
vt 0 0.72
vt 1 0.72
vt 0 0.715
vt 1 0.715
vt 0 0.71
vt 1 0.71
vt 0 0.705
vt 1 0.705
vt 0 0.7
vt 1 0.7
vt 0 0.695
vt 1 0.695
vt 0 0.69
vt 1 0.69
vt 0 0.685
vt 1 0.685
vt 0 0.68
vt 1 0.68
vt 0 0.675
vt 1 0.675
vt 0 0.67
vt 1 0.67
vt 0 0.665
vt 1 0.665
vt 0 0.66
vt 1 0.66
vt 0 0.655
vt 1 0.655
vt 0 0.65
vt 1 0.65
vt 0 0.645
vt 1 0.645
vt 0 0.64
vt 1 0.64
vt 0 0.635
vt 1 0.635
vt 0 0.63
vt 1 0.63
vt 0 0.625
vt 1 0.625
vt 0 0.62
vt 1 0.62
vt 0 0.615
vt 1 0.615
vt 0 0.61
vt 1 0.61
vt 0 0.605
vt 1 0.605
vt 0 0.6
vt 1 0.6
vt 0 0.595
vt 1 0.595
vt 0 0.59
vt 1 0.59
vt 0 0.585
vt 1 0.585
vt 0 0.58
vt 1 0.58
vt 0 0.575
vt 1 0.575
vt 0 0.57
vt 1 0.57
vt 0 0.565
vt 1 0.565
vt 0 0.56
vt 1 0.56
vt 0 0.555
vt 1 0.555
vt 0 0.55
vt 1 0.55
vt 0 0.545
vt 1 0.545
vt 0 0.54
vt 1 0.54
vt 0 0.535
vt 1 0.535
vt 0 0.53
vt 1 0.53
vt 0 0.525
vt 1 0.525
vt 0 0.52
vt 1 0.52
vt 0 0.515
vt 1 0.515
vt 0 0.51
vt 1 0.51
vt 0 0.505
vt 1 0.505
vt 0 0.5
vt 1 0.5
vt 0 0.495
vt 1 0.495
vt 0 0.49
vt 1 0.49
vt 0 0.485
vt 1 0.485
vt 0 0.48
vt 1 0.48
vt 0 0.475
vt 1 0.475
vt 0 0.47
vt 1 0.47
vt 0 0.465
vt 1 0.465
vt 0 0.46
vt 1 0.46
vt 0 0.455
vt 1 0.455
vt 0 0.45
vt 1 0.45
vt 0 0.445
vt 1 0.445
vt 0 0.44
vt 1 0.44
vt 0 0.435
vt 1 0.435
vt 0 0.43
vt 1 0.43
vt 0 0.425
vt 1 0.425
vt 0 0.42
vt 1 0.42
vt 0 0.415
vt 1 0.415
vt 0 0.41
vt 1 0.41
vt 0 0.405
vt 1 0.405
vt 0 0.4
vt 1 0.4
vt 0 0.395
vt 1 0.395
vt 0 0.39
vt 1 0.39
vt 0 0.385
vt 1 0.385
vt 0 0.38
vt 1 0.38
vt 0 0.375
vt 1 0.375
vt 0 0.37
vt 1 0.37
vt 0 0.365
vt 1 0.365
vt 0 0.36
vt 1 0.36
vt 0 0.355
vt 1 0.355
vt 0 0.35
vt 1 0.35
vt 0 0.345
vt 1 0.345
vt 0 0.34
vt 1 0.34
vt 0 0.335
vt 1 0.335
vt 0 0.33
vt 1 0.33
vt 0 0.325
vt 1 0.325
vt 0 0.32
vt 1 0.32
vt 0 0.315
vt 1 0.315
vt 0 0.31
vt 1 0.31
vt 0 0.305
vt 1 0.305
vt 0 0.3
vt 1 0.3
vt 0 0.295
vt 1 0.295
vt 0 0.29
vt 1 0.29
vt 0 0.285
vt 1 0.285
vt 0 0.28
vt 1 0.28
vt 0 0.275
vt 1 0.275
vt 0 0.27
vt 1 0.27
vt 0 0.265
vt 1 0.265
vt 0 0.26
vt 1 0.26
vt 0 0.255
vt 1 0.255
vt 0 0.25
vt 1 0.25
vt 0 0.245
vt 1 0.245
vt 0 0.24
vt 1 0.24
vt 0 0.235
vt 1 0.235
vt 0 0.23
vt 1 0.23
vt 0 0.225
vt 1 0.225
vt 0 0.22
vt 1 0.22
vt 0 0.215
vt 1 0.215
vt 0 0.21
vt 1 0.21
vt 0 0.205
vt 1 0.205
vt 0 0.2
vt 1 0.2
vt 0 0.195
vt 1 0.195
vt 0 0.19
vt 1 0.19
vt 0 0.185
vt 1 0.185
vt 0 0.18
vt 1 0.18
vt 0 0.175
vt 1 0.175
vt 0 0.17
vt 1 0.17
vt 0 0.165
vt 1 0.165
vt 0 0.16
vt 1 0.16
vt 0 0.155
vt 1 0.155
vt 0 0.15
vt 1 0.15
vt 0 0.145
vt 1 0.145
vt 0 0.14
vt 1 0.14
vt 0 0.135
vt 1 0.135
vt 0 0.13
vt 1 0.13
vt 0 0.125
vt 1 0.125
vt 0 0.12
vt 1 0.12
vt 0 0.115
vt 1 0.115
vt 0 0.11
vt 1 0.11
vt 0 0.105
vt 1 0.105
vt 0 0.1
vt 1 0.1
vt 0 0.095
vt 1 0.095
vt 0 0.09
vt 1 0.09
vt 0 0.085
vt 1 0.085
vt 0 0.08
vt 1 0.08
vt 0 0.075
vt 1 0.075
vt 0 0.07
vt 1 0.07
vt 0 0.065
vt 1 0.065
vt 0 0.06
vt 1 0.06
vt 0 0.055
vt 1 0.055
vt 0 0.05
vt 1 0.05
vt 0 0.045
vt 1 0.045
vt 0 0.04
vt 1 0.04
vt 0 0.035
vt 1 0.035
vt 0 0.03
vt 1 0.03
vt 0 0.025
vt 1 0.025
vt 0 0.02
vt 1 0.02
vt 0 0.015
vt 1 0.015
vt 0 0.01
vt 1 0.01
vt 0 0.005
vt 1 0.005
vt 0 0
vt 1 0
vn -0 0 -1
vn -0 0 -1
vn -0 0 -1
vn -0 0 -1
vn -0 0 -1
vn -0 0 -1
vn -0 0 -1
vn -0 0 -1
vn -0 0 -1
vn -0 0 -1
vn -0 0 -1
vn -0 0 -1
vn -0 0 -1
vn -0 0 -1
vn -0 0 -1
vn -0 0 -1
vn -0 0 -1
vn -0 0 -1
vn -0 0 -1
vn -0 0 -1
vn -0 0 -1
vn -0 0 -1
vn -0 0 -1
vn -0 0 -1
vn -0 0 -1
vn -0 0 -1
vn -0 0 -1
vn -0 0 -1
vn -0 0 -1
vn -0 0 -1
vn -0 0 -1
vn -0 0 -1
vn -0 0 -1
vn -0 0 -1
vn -0 0 -1
vn -0 0 -1
vn -0 0 -1
vn -0 0 -1
vn -0 0 -1
vn -0 0 -1
vn -0 0 -1
vn -0 0 -1
vn -0 0 -1
vn -0 0 -1
vn -0 0 -1
vn -0 0 -1
vn -0 0 -1
vn -0 0 -1
vn -0 0 -1
vn -0 0 -1
vn -0 0 -1
vn -0 0 -1
vn -0 0 -1
vn -0 0 -1
vn -0 0 -1
vn -0 0 -1
vn -0 0 -1
vn -0 0 -1
vn -0 0 -1
vn -0 0 -1
vn -0 0 -1
vn -0 0 -1
vn -0 0 -1
vn -0 0 -1
vn -0 0 -1
vn -0 0 -1
vn -0 0 -1
vn -0 0 -1
vn -0 0 -1
vn -0 0 -1
vn -0 0 -1
vn -0 0 -1
vn -0 0 -1
vn -0 0 -1
vn -0 0 -1
vn -0 0 -1
vn -0 0 -1
vn -0 0 -1
vn -0 0 -1
vn -0 0 -1
vn -0 0 -1
vn -0 0 -1
vn -0 0 -1
vn -0 0 -1
vn -0 0 -1
vn -0 0 -1
vn -0 0 -1
vn -0 0 -1
vn -0 0 -1
vn -0 0 -1
vn -0 0 -1
vn -0 0 -1
vn -0 0 -1
vn -0 0 -1
vn -0 0 -1
vn -0 0 -1
vn -0 0 -1
vn -0 0 -1
vn -0 0 -1
vn -0 0 -1
vn -0 0 -1
vn -0 0 -1
vn -0 0 -1
vn -0 0 -1
vn -0 0 -1
vn -0 0 -1
vn -0 0 -1
vn -0 0 -1
vn -0 0 -1
vn -0 0 -1
vn -0 0 -1
vn -0 0 -1
vn -0 0 -1
vn -0 0 -1
vn -0 0 -1
vn -0 0 -1
vn -0 0 -1
vn -0 0 -1
vn -0 0 -1
vn -0 0 -1
vn -0 0 -1
vn -0 0 -1
vn -0 0 -1
vn -0 0 -1
vn -0 0 -1
vn -0 0 -1
vn -0 0 -1
vn -0 0 -1
vn -0 0 -1
vn -0 0 -1
vn -0 0 -1
vn -0 0 -1
vn -0 0 -1
vn -0 0 -1
vn -0 0 -1
vn -0 0 -1
vn -0 0 -1
vn -0 0 -1
vn -0 0 -1
vn -0 0 -1
vn -0 0 -1
vn -0 0 -1
vn -0 0 -1
vn -0 0 -1
vn -0 0 -1
vn -0 0 -1
vn -0 0 -1
vn -0 0 -1
vn -0 0 -1
vn -0 0 -1
vn -0 0 -1
vn -0 0 -1
vn -0 0 -1
vn -0 0 -1
vn -0 0 -1
vn -0 0 -1
vn -0 0 -1
vn -0 0 -1
vn -0 0 -1
vn -0 0 -1
vn -0 0 -1
vn -0 0 -1
vn -0 0 -1
vn -0 0 -1
vn -0 0 -1
vn -0 0 -1
vn -0 0 -1
vn -0 0 -1
vn -0 0 -1
vn -0 0 -1
vn -0 0 -1
vn -0 0 -1
vn -0 0 -1
vn -0 0 -1
vn -0 0 -1
vn -0 0 -1
vn -0 0 -1
vn -0 0 -1
vn -0 0 -1
vn -0 0 -1
vn -0 0 -1
vn -0 0 -1
vn -0 0 -1
vn -0 0 -1
vn -0 0 -1
vn -0 0 -1
vn -0 0 -1
vn -0 0 -1
vn -0 0 -1
vn -0 0 -1
vn -0 0 -1
vn -0 0 -1
vn -0 0 -1
vn -0 0 -1
vn -0 0 -1
vn -0 0 -1
vn -0 0 -1
vn -0 0 -1
vn -0 0 -1
vn -0 0 -1
vn -0 0 -1
vn -0 0 -1
vn -0 0 -1
vn -0 0 -1
vn -0 0 -1
vn -0 0 -1
vn -0 0 -1
vn -0 0 -1
vn -0 0 -1
vn -0 0 -1
vn -0 0 -1
vn -0 0 -1
vn -0 0 -1
vn -0 0 -1
vn -0 0 -1
vn -0 0 -1
vn -0 0 -1
vn -0 0 -1
vn -0 0 -1
vn -0 0 -1
vn -0 0 -1
vn -0 0 -1
vn -0 0 -1
vn -0 0 -1
vn -0 0 -1
vn -0 0 -1
vn -0 0 -1
vn -0 0 -1
vn -0 0 -1
vn -0 0 -1
vn -0 0 -1
vn -0 0 -1
vn -0 0 -1
vn -0 0 -1
vn -0 0 -1
vn -0 0 -1
vn -0 0 -1
vn -0 0 -1
vn -0 0 -1
vn -0 0 -1
vn -0 0 -1
vn -0 0 -1
vn -0 0 -1
vn -0 0 -1
vn -0 0 -1
vn -0 0 -1
vn -0 0 -1
vn -0 0 -1
vn -0 0 -1
vn -0 0 -1
vn -0 0 -1
vn -0 0 -1
vn -0 0 -1
vn -0 0 -1
vn -0 0 -1
vn -0 0 -1
vn -0 0 -1
vn -0 0 -1
vn -0 0 -1
vn -0 0 -1
vn -0 0 -1
vn -0 0 -1
vn -0 0 -1
vn -0 0 -1
vn -0 0 -1
vn -0 0 -1
vn -0 0 -1
vn -0 0 -1
vn -0 0 -1
vn -0 0 -1
vn -0 0 -1
vn -0 0 -1
vn -0 0 -1
vn -0 0 -1
vn -0 0 -1
vn -0 0 -1
vn -0 0 -1
vn -0 0 -1
vn -0 0 -1
vn -0 0 -1
vn -0 0 -1
vn -0 0 -1
vn -0 0 -1
vn -0 0 -1
vn -0 0 -1
vn -0 0 -1
vn -0 0 -1
vn -0 0 -1
vn -0 0 -1
vn -0 0 -1
vn -0 0 -1
vn -0 0 -1
vn -0 0 -1
vn -0 0 -1
vn -0 0 -1
vn -0 0 -1
vn -0 0 -1
vn -0 0 -1
vn -0 0 -1
vn -0 0 -1
vn -0 0 -1
vn -0 0 -1
vn -0 0 -1
vn -0 0 -1
vn -0 0 -1
vn -0 0 -1
vn -0 0 -1
vn -0 0 -1
vn -0 0 -1
vn -0 0 -1
vn -0 0 -1
vn -0 0 -1
vn -0 0 -1
vn -0 0 -1
vn -0 0 -1
vn -0 0 -1
vn -0 0 -1
vn -0 0 -1
vn -0 0 -1
vn -0 0 -1
vn -0 0 -1
vn -0 0 -1
vn -0 0 -1
vn -0 0 -1
vn -0 0 -1
vn -0 0 -1
vn -0 0 -1
vn -0 0 -1
vn -0 0 -1
vn -0 0 -1
vn -0 0 -1
vn -0 0 -1
vn -0 0 -1
vn -0 0 -1
vn -0 0 -1
vn -0 0 -1
vn -0 0 -1
vn -0 0 -1
vn -0 0 -1
vn -0 0 -1
vn -0 0 -1
vn -0 0 -1
vn -0 0 -1
vn -0 0 -1
vn -0 0 -1
vn -0 0 -1
vn -0 0 -1
vn -0 0 -1
vn -0 0 -1
vn -0 0 -1
vn -0 0 -1
vn -0 0 -1
vn -0 0 -1
vn -0 0 -1
vn -0 0 -1
vn -0 0 -1
vn -0 0 -1
vn -0 0 -1
vn -0 0 -1
vn -0 0 -1
vn -0 0 -1
vn -0 0 -1
vn -0 0 -1
vn -0 0 -1
vn -0 0 -1
vn -0 0 -1
vn -0 0 -1
vn -0 0 -1
vn -0 0 -1
vn -0 0 -1
vn -0 0 -1
vn -0 0 -1
vn -0 0 -1
vn -0 0 -1
vn -0 0 -1
vn -0 0 -1
vn -0 0 -1
vn -0 0 -1
vn -0 0 -1
vn -0 0 -1
vn -0 0 -1
vn -0 0 -1
vn -0 0 -1
vn -0 0 -1
vn -0 0 -1
vn -0 0 -1
vn -0 0 -1
vn -0 0 -1
vn -0 0 -1
vn -0 0 -1
vn -0 0 -1
vn -0 0 -1
vn -0 0 -1
vn -0 0 -1
vn -0 0 -1
vn -0 0 -1
vn -0 0 -1
vn -0 0 -1
vn -0 0 -1
vn -0 0 -1
vn -0 0 -1
vn -0 0 -1
g attribwrangle13_0
f 3/3/3 2/2/2 1/1/1
f 4/4/4 3/3/3 1/1/1
f 4/4/4 1/1/1 5/5/5
f 6/6/6 4/4/4 5/5/5
f 6/6/6 5/5/5 7/7/7
f 8/8/8 6/6/6 7/7/7
f 8/8/8 7/7/7 9/9/9
f 10/10/10 8/8/8 9/9/9
f 10/10/10 9/9/9 11/11/11
f 12/12/12 10/10/10 11/11/11
f 12/12/12 11/11/11 13/13/13
f 14/14/14 12/12/12 13/13/13
f 14/14/14 13/13/13 15/15/15
f 16/16/16 14/14/14 15/15/15
f 16/16/16 15/15/15 17/17/17
f 18/18/18 16/16/16 17/17/17
f 18/18/18 17/17/17 19/19/19
f 20/20/20 18/18/18 19/19/19
f 20/20/20 19/19/19 21/21/21
f 22/22/22 20/20/20 21/21/21
f 22/22/22 21/21/21 23/23/23
f 24/24/24 22/22/22 23/23/23
f 24/24/24 23/23/23 25/25/25
f 26/26/26 24/24/24 25/25/25
f 26/26/26 25/25/25 27/27/27
f 28/28/28 26/26/26 27/27/27
f 28/28/28 27/27/27 29/29/29
f 30/30/30 28/28/28 29/29/29
f 30/30/30 29/29/29 31/31/31
f 32/32/32 30/30/30 31/31/31
f 32/32/32 31/31/31 33/33/33
f 34/34/34 32/32/32 33/33/33
f 34/34/34 33/33/33 35/35/35
f 36/36/36 34/34/34 35/35/35
f 36/36/36 35/35/35 37/37/37
f 38/38/38 36/36/36 37/37/37
f 38/38/38 37/37/37 39/39/39
f 40/40/40 38/38/38 39/39/39
f 40/40/40 39/39/39 41/41/41
f 42/42/42 40/40/40 41/41/41
f 42/42/42 41/41/41 43/43/43
f 44/44/44 42/42/42 43/43/43
f 44/44/44 43/43/43 45/45/45
f 46/46/46 44/44/44 45/45/45
f 46/46/46 45/45/45 47/47/47
f 48/48/48 46/46/46 47/47/47
f 48/48/48 47/47/47 49/49/49
f 50/50/50 48/48/48 49/49/49
f 50/50/50 49/49/49 51/51/51
f 52/52/52 50/50/50 51/51/51
f 52/52/52 51/51/51 53/53/53
f 54/54/54 52/52/52 53/53/53
f 54/54/54 53/53/53 55/55/55
f 56/56/56 54/54/54 55/55/55
f 56/56/56 55/55/55 57/57/57
f 58/58/58 56/56/56 57/57/57
f 58/58/58 57/57/57 59/59/59
f 60/60/60 58/58/58 59/59/59
f 60/60/60 59/59/59 61/61/61
f 62/62/62 60/60/60 61/61/61
f 62/62/62 61/61/61 63/63/63
f 64/64/64 62/62/62 63/63/63
f 64/64/64 63/63/63 65/65/65
f 66/66/66 64/64/64 65/65/65
f 66/66/66 65/65/65 67/67/67
f 68/68/68 66/66/66 67/67/67
f 68/68/68 67/67/67 69/69/69
f 70/70/70 68/68/68 69/69/69
f 70/70/70 69/69/69 71/71/71
f 72/72/72 70/70/70 71/71/71
f 72/72/72 71/71/71 73/73/73
f 74/74/74 72/72/72 73/73/73
f 74/74/74 73/73/73 75/75/75
f 76/76/76 74/74/74 75/75/75
f 76/76/76 75/75/75 77/77/77
f 78/78/78 76/76/76 77/77/77
f 78/78/78 77/77/77 79/79/79
f 80/80/80 78/78/78 79/79/79
f 80/80/80 79/79/79 81/81/81
f 82/82/82 80/80/80 81/81/81
f 82/82/82 81/81/81 83/83/83
f 84/84/84 82/82/82 83/83/83
f 84/84/84 83/83/83 85/85/85
f 86/86/86 84/84/84 85/85/85
f 86/86/86 85/85/85 87/87/87
f 88/88/88 86/86/86 87/87/87
f 88/88/88 87/87/87 89/89/89
f 90/90/90 88/88/88 89/89/89
f 90/90/90 89/89/89 91/91/91
f 92/92/92 90/90/90 91/91/91
f 92/92/92 91/91/91 93/93/93
f 94/94/94 92/92/92 93/93/93
f 94/94/94 93/93/93 95/95/95
f 96/96/96 94/94/94 95/95/95
f 96/96/96 95/95/95 97/97/97
f 98/98/98 96/96/96 97/97/97
f 98/98/98 97/97/97 99/99/99
f 100/100/100 98/98/98 99/99/99
f 100/100/100 99/99/99 101/101/101
f 102/102/102 100/100/100 101/101/101
f 102/102/102 101/101/101 103/103/103
f 104/104/104 102/102/102 103/103/103
f 104/104/104 103/103/103 105/105/105
f 106/106/106 104/104/104 105/105/105
f 106/106/106 105/105/105 107/107/107
f 108/108/108 106/106/106 107/107/107
f 108/108/108 107/107/107 109/109/109
f 110/110/110 108/108/108 109/109/109
f 110/110/110 109/109/109 111/111/111
f 112/112/112 110/110/110 111/111/111
f 112/112/112 111/111/111 113/113/113
f 114/114/114 112/112/112 113/113/113
f 114/114/114 113/113/113 115/115/115
f 116/116/116 114/114/114 115/115/115
f 116/116/116 115/115/115 117/117/117
f 118/118/118 116/116/116 117/117/117
f 118/118/118 117/117/117 119/119/119
f 120/120/120 118/118/118 119/119/119
f 120/120/120 119/119/119 121/121/121
f 122/122/122 120/120/120 121/121/121
f 122/122/122 121/121/121 123/123/123
f 124/124/124 122/122/122 123/123/123
f 124/124/124 123/123/123 125/125/125
f 126/126/126 124/124/124 125/125/125
f 126/126/126 125/125/125 127/127/127
f 128/128/128 126/126/126 127/127/127
f 128/128/128 127/127/127 129/129/129
f 130/130/130 128/128/128 129/129/129
f 130/130/130 129/129/129 131/131/131
f 132/132/132 130/130/130 131/131/131
f 132/132/132 131/131/131 133/133/133
f 134/134/134 132/132/132 133/133/133
f 134/134/134 133/133/133 135/135/135
f 136/136/136 134/134/134 135/135/135
f 136/136/136 135/135/135 137/137/137
f 138/138/138 136/136/136 137/137/137
f 138/138/138 137/137/137 139/139/139
f 140/140/140 138/138/138 139/139/139
f 140/140/140 139/139/139 141/141/141
f 142/142/142 140/140/140 141/141/141
f 142/142/142 141/141/141 143/143/143
f 144/144/144 142/142/142 143/143/143
f 144/144/144 143/143/143 145/145/145
f 146/146/146 144/144/144 145/145/145
f 146/146/146 145/145/145 147/147/147
f 148/148/148 146/146/146 147/147/147
f 148/148/148 147/147/147 149/149/149
f 150/150/150 148/148/148 149/149/149
f 150/150/150 149/149/149 151/151/151
f 152/152/152 150/150/150 151/151/151
f 152/152/152 151/151/151 153/153/153
f 154/154/154 152/152/152 153/153/153
f 154/154/154 153/153/153 155/155/155
f 156/156/156 154/154/154 155/155/155
f 156/156/156 155/155/155 157/157/157
f 158/158/158 156/156/156 157/157/157
f 158/158/158 157/157/157 159/159/159
f 160/160/160 158/158/158 159/159/159
f 160/160/160 159/159/159 161/161/161
f 162/162/162 160/160/160 161/161/161
f 162/162/162 161/161/161 163/163/163
f 164/164/164 162/162/162 163/163/163
f 164/164/164 163/163/163 165/165/165
f 166/166/166 164/164/164 165/165/165
f 166/166/166 165/165/165 167/167/167
f 168/168/168 166/166/166 167/167/167
f 168/168/168 167/167/167 169/169/169
f 170/170/170 168/168/168 169/169/169
f 170/170/170 169/169/169 171/171/171
f 172/172/172 170/170/170 171/171/171
f 172/172/172 171/171/171 173/173/173
f 174/174/174 172/172/172 173/173/173
f 174/174/174 173/173/173 175/175/175
f 176/176/176 174/174/174 175/175/175
f 176/176/176 175/175/175 177/177/177
f 178/178/178 176/176/176 177/177/177
f 178/178/178 177/177/177 179/179/179
f 180/180/180 178/178/178 179/179/179
f 180/180/180 179/179/179 181/181/181
f 182/182/182 180/180/180 181/181/181
f 182/182/182 181/181/181 183/183/183
f 184/184/184 182/182/182 183/183/183
f 184/184/184 183/183/183 185/185/185
f 186/186/186 184/184/184 185/185/185
f 186/186/186 185/185/185 187/187/187
f 188/188/188 186/186/186 187/187/187
f 188/188/188 187/187/187 189/189/189
f 190/190/190 188/188/188 189/189/189
f 190/190/190 189/189/189 191/191/191
f 192/192/192 190/190/190 191/191/191
f 192/192/192 191/191/191 193/193/193
f 194/194/194 192/192/192 193/193/193
f 194/194/194 193/193/193 195/195/195
f 196/196/196 194/194/194 195/195/195
f 196/196/196 195/195/195 197/197/197
f 198/198/198 196/196/196 197/197/197
f 198/198/198 197/197/197 199/199/199
f 200/200/200 198/198/198 199/199/199
f 200/200/200 199/199/199 201/201/201
f 202/202/202 200/200/200 201/201/201
f 202/202/202 201/201/201 203/203/203
f 204/204/204 202/202/202 203/203/203
f 204/204/204 203/203/203 205/205/205
f 206/206/206 204/204/204 205/205/205
f 206/206/206 205/205/205 207/207/207
f 208/208/208 206/206/206 207/207/207
f 208/208/208 207/207/207 209/209/209
f 210/210/210 208/208/208 209/209/209
f 210/210/210 209/209/209 211/211/211
f 212/212/212 210/210/210 211/211/211
f 212/212/212 211/211/211 213/213/213
f 214/214/214 212/212/212 213/213/213
f 214/214/214 213/213/213 215/215/215
f 216/216/216 214/214/214 215/215/215
f 216/216/216 215/215/215 217/217/217
f 218/218/218 216/216/216 217/217/217
f 218/218/218 217/217/217 219/219/219
f 220/220/220 218/218/218 219/219/219
f 220/220/220 219/219/219 221/221/221
f 222/222/222 220/220/220 221/221/221
f 222/222/222 221/221/221 223/223/223
f 224/224/224 222/222/222 223/223/223
f 224/224/224 223/223/223 225/225/225
f 226/226/226 224/224/224 225/225/225
f 226/226/226 225/225/225 227/227/227
f 228/228/228 226/226/226 227/227/227
f 228/228/228 227/227/227 229/229/229
f 230/230/230 228/228/228 229/229/229
f 230/230/230 229/229/229 231/231/231
f 232/232/232 230/230/230 231/231/231
f 232/232/232 231/231/231 233/233/233
f 234/234/234 232/232/232 233/233/233
f 234/234/234 233/233/233 235/235/235
f 236/236/236 234/234/234 235/235/235
f 236/236/236 235/235/235 237/237/237
f 238/238/238 236/236/236 237/237/237
f 238/238/238 237/237/237 239/239/239
f 240/240/240 238/238/238 239/239/239
f 240/240/240 239/239/239 241/241/241
f 242/242/242 240/240/240 241/241/241
f 242/242/242 241/241/241 243/243/243
f 244/244/244 242/242/242 243/243/243
f 244/244/244 243/243/243 245/245/245
f 246/246/246 244/244/244 245/245/245
f 246/246/246 245/245/245 247/247/247
f 248/248/248 246/246/246 247/247/247
f 248/248/248 247/247/247 249/249/249
f 250/250/250 248/248/248 249/249/249
f 250/250/250 249/249/249 251/251/251
f 252/252/252 250/250/250 251/251/251
f 252/252/252 251/251/251 253/253/253
f 254/254/254 252/252/252 253/253/253
f 254/254/254 253/253/253 255/255/255
f 256/256/256 254/254/254 255/255/255
f 256/256/256 255/255/255 257/257/257
f 258/258/258 256/256/256 257/257/257
f 258/258/258 257/257/257 259/259/259
f 260/260/260 258/258/258 259/259/259
f 260/260/260 259/259/259 261/261/261
f 262/262/262 260/260/260 261/261/261
f 262/262/262 261/261/261 263/263/263
f 264/264/264 262/262/262 263/263/263
f 264/264/264 263/263/263 265/265/265
f 266/266/266 264/264/264 265/265/265
f 266/266/266 265/265/265 267/267/267
f 268/268/268 266/266/266 267/267/267
f 268/268/268 267/267/267 269/269/269
f 270/270/270 268/268/268 269/269/269
f 270/270/270 269/269/269 271/271/271
f 272/272/272 270/270/270 271/271/271
f 272/272/272 271/271/271 273/273/273
f 274/274/274 272/272/272 273/273/273
f 274/274/274 273/273/273 275/275/275
f 276/276/276 274/274/274 275/275/275
f 276/276/276 275/275/275 277/277/277
f 278/278/278 276/276/276 277/277/277
f 278/278/278 277/277/277 279/279/279
f 280/280/280 278/278/278 279/279/279
f 280/280/280 279/279/279 281/281/281
f 282/282/282 280/280/280 281/281/281
f 282/282/282 281/281/281 283/283/283
f 284/284/284 282/282/282 283/283/283
f 284/284/284 283/283/283 285/285/285
f 286/286/286 284/284/284 285/285/285
f 286/286/286 285/285/285 287/287/287
f 288/288/288 286/286/286 287/287/287
f 288/288/288 287/287/287 289/289/289
f 290/290/290 288/288/288 289/289/289
f 290/290/290 289/289/289 291/291/291
f 292/292/292 290/290/290 291/291/291
f 292/292/292 291/291/291 293/293/293
f 294/294/294 292/292/292 293/293/293
f 294/294/294 293/293/293 295/295/295
f 296/296/296 294/294/294 295/295/295
f 296/296/296 295/295/295 297/297/297
f 298/298/298 296/296/296 297/297/297
f 298/298/298 297/297/297 299/299/299
f 300/300/300 298/298/298 299/299/299
f 300/300/300 299/299/299 301/301/301
f 302/302/302 300/300/300 301/301/301
f 302/302/302 301/301/301 303/303/303
f 304/304/304 302/302/302 303/303/303
f 304/304/304 303/303/303 305/305/305
f 306/306/306 304/304/304 305/305/305
f 306/306/306 305/305/305 307/307/307
f 308/308/308 306/306/306 307/307/307
f 308/308/308 307/307/307 309/309/309
f 310/310/310 308/308/308 309/309/309
f 310/310/310 309/309/309 311/311/311
f 312/312/312 310/310/310 311/311/311
f 312/312/312 311/311/311 313/313/313
f 314/314/314 312/312/312 313/313/313
f 314/314/314 313/313/313 315/315/315
f 316/316/316 314/314/314 315/315/315
f 316/316/316 315/315/315 317/317/317
f 318/318/318 316/316/316 317/317/317
f 318/318/318 317/317/317 319/319/319
f 320/320/320 318/318/318 319/319/319
f 320/320/320 319/319/319 321/321/321
f 322/322/322 320/320/320 321/321/321
f 322/322/322 321/321/321 323/323/323
f 324/324/324 322/322/322 323/323/323
f 324/324/324 323/323/323 325/325/325
f 326/326/326 324/324/324 325/325/325
f 326/326/326 325/325/325 327/327/327
f 328/328/328 326/326/326 327/327/327
f 328/328/328 327/327/327 329/329/329
f 330/330/330 328/328/328 329/329/329
f 330/330/330 329/329/329 331/331/331
f 332/332/332 330/330/330 331/331/331
f 332/332/332 331/331/331 333/333/333
f 334/334/334 332/332/332 333/333/333
f 334/334/334 333/333/333 335/335/335
f 336/336/336 334/334/334 335/335/335
f 336/336/336 335/335/335 337/337/337
f 338/338/338 336/336/336 337/337/337
f 338/338/338 337/337/337 339/339/339
f 340/340/340 338/338/338 339/339/339
f 340/340/340 339/339/339 341/341/341
f 342/342/342 340/340/340 341/341/341
f 342/342/342 341/341/341 343/343/343
f 344/344/344 342/342/342 343/343/343
f 344/344/344 343/343/343 345/345/345
f 346/346/346 344/344/344 345/345/345
f 346/346/346 345/345/345 347/347/347
f 348/348/348 346/346/346 347/347/347
f 348/348/348 347/347/347 349/349/349
f 350/350/350 348/348/348 349/349/349
f 350/350/350 349/349/349 351/351/351
f 352/352/352 350/350/350 351/351/351
f 352/352/352 351/351/351 353/353/353
f 354/354/354 352/352/352 353/353/353
f 354/354/354 353/353/353 355/355/355
f 356/356/356 354/354/354 355/355/355
f 356/356/356 355/355/355 357/357/357
f 358/358/358 356/356/356 357/357/357
f 358/358/358 357/357/357 359/359/359
f 360/360/360 358/358/358 359/359/359
f 360/360/360 359/359/359 361/361/361
f 362/362/362 360/360/360 361/361/361
f 362/362/362 361/361/361 363/363/363
f 364/364/364 362/362/362 363/363/363
f 364/364/364 363/363/363 365/365/365
f 366/366/366 364/364/364 365/365/365
f 366/366/366 365/365/365 367/367/367
f 368/368/368 366/366/366 367/367/367
f 368/368/368 367/367/367 369/369/369
f 370/370/370 368/368/368 369/369/369
f 370/370/370 369/369/369 371/371/371
f 372/372/372 370/370/370 371/371/371
f 372/372/372 371/371/371 373/373/373
f 374/374/374 372/372/372 373/373/373
f 374/374/374 373/373/373 375/375/375
f 376/376/376 374/374/374 375/375/375
f 376/376/376 375/375/375 377/377/377
f 378/378/378 376/376/376 377/377/377
f 378/378/378 377/377/377 379/379/379
f 380/380/380 378/378/378 379/379/379
f 380/380/380 379/379/379 381/381/381
f 382/382/382 380/380/380 381/381/381
f 382/382/382 381/381/381 383/383/383
f 384/384/384 382/382/382 383/383/383
f 384/384/384 383/383/383 385/385/385
f 386/386/386 384/384/384 385/385/385
f 386/386/386 385/385/385 387/387/387
f 388/388/388 386/386/386 387/387/387
f 388/388/388 387/387/387 389/389/389
f 390/390/390 388/388/388 389/389/389
f 390/390/390 389/389/389 391/391/391
f 392/392/392 390/390/390 391/391/391
f 392/392/392 391/391/391 393/393/393
f 394/394/394 392/392/392 393/393/393
f 394/394/394 393/393/393 395/395/395
f 396/396/396 394/394/394 395/395/395
f 396/396/396 395/395/395 397/397/397
f 398/398/398 396/396/396 397/397/397
f 398/398/398 397/397/397 399/399/399
f 400/400/400 398/398/398 399/399/399
f 400/400/400 399/399/399 401/401/401
f 402/402/402 400/400/400 401/401/401
