g back
v 0.043942537 0.5536805 -0.0061169537
v 0.043942537 0.53190297 -0.008013486
v 0.043942537 0.55395496 -0.0025027313
v 0.043942537 0.53190297 -0.010418042
v 0.043942526 0.50491846 -0.016161408
v 0.043942526 0.50491846 -0.014213058
v 0.043942526 0.4768477 -0.022413122
v 0.043942526 0.4768477 -0.020464774
v 0.043942526 0.45436832 -0.025473943
v 0.043942526 0.45436832 -0.023482295
v 0.043942526 0.42817298 -0.025818149
v 0.043942526 0.42817298 -0.027831925
v 0.043942526 0.4019777 -0.030189905
v 0.043942526 0.4019777 -0.028154
v 0.043942526 0.37107465 -0.030643715
v 0.043942526 0.37107465 -0.032679617
v 0.043942526 0.3401716 -0.03516933
v 0.043942526 0.3401716 -0.03313343
v 0.043942526 0.30990657 -0.03365862
v 0.043942526 0.30990657 -0.035838403
v 0.043942526 0.2796415 -0.03418381
v 0.043942526 0.2796415 -0.036507476
v 0.043942526 0.24937646 -0.034709003
v 0.043942526 0.24937646 -0.037176546
v 0.043942526 0.21911143 -0.03523419
v 0.043942526 0.21911143 -0.03784562
v 0.043942526 0.18884638 -0.03575938
v 0.043942526 0.18884638 -0.03851469
v 0.043942526 0.15858133 -0.03628457
v 0.043942526 0.15858133 -0.039183762
v 0.043942526 0.12831628 -0.03680976
v 0.043942526 0.12831628 -0.039852835
v 0.043942526 0.098051235 -0.040521905
v 0.043942526 0.098051235 -0.03733495
v 0.043942526 0.06230067 -0.037135795
v 0.043942526 0.06230067 -0.040178873
v 0.043942526 0.026550109 -0.03693664
v 0.043942526 0.026550109 -0.039835837
v 0.043942526 -0.009200453 -0.03673749
v 0.043942526 -0.009200453 -0.039492797
v 0.043942526 -0.044951014 -0.036538336
v 0.043942526 -0.044951014 -0.039149765
v 0.043942526 -0.080701575 -0.036339182
v 0.043942526 -0.080701575 -0.038806733
v 0.043942526 -0.116452135 -0.036140032
v 0.043942526 -0.116452135 -0.038463693
v 0.043942526 -0.15220271 -0.035940878
v 0.043942526 -0.15220271 -0.038120657
v 0.043942526 -0.18795326 -0.037777625
v 0.043942526 -0.18795326 -0.035741724
v 0.043942526 -0.22807734 -0.034081116
v 0.043942526 -0.22807734 -0.036117017
v 0.043942526 -0.26820144 -0.032420512
v 0.043942526 -0.26820144 -0.034456413
v 0.043942526 -0.3083255 -0.0307599
v 0.043942526 -0.3083255 -0.032795805
v 0.043942526 -0.3484496 -0.0311352
v 0.043942526 -0.3484496 -0.029099295
v 0.043942526 -0.38801542 -0.026713023
v 0.043942526 -0.38801542 -0.028776033
v 0.043942526 -0.42758122 -0.024326751
v 0.043942526 -0.42758122 -0.026416862
v 0.043942526 -0.44931722 -0.023747643
v 0.043942526 -0.44931722 -0.021755997
v 0.043942526 -0.46546718 -0.020714885
v 0.043942526 -0.46546718 -0.018766535
v 0.043942526 -0.4829546 -0.016404359
v 0.043942526 -0.4829546 -0.01445601
v 0.043942526 -0.5054166 -0.00962052
v 0.043942526 -0.5054166 -0.007767138
v 0.043942526 -0.52337354 -0.005634658
v 0.043942526 -0.52329195 -0.0025027313
v -0.043942526 -0.52329195 -0.0025027313
v -0.021971265 -0.5232691 -0.002498852
v -0.021971263 -0.5232463 -0.0036847398
v 1.1619862E-18 -0.5232007 -0.004866748
v -0 -0.52329195 -0.0025027313
v 0.021971263 -0.5232871 -0.005250703
v 0.021985633 -0.5232895 -0.0025236371
v 0.043942526 -0.52337354 -0.005634658
v 0.043942526 -0.52329195 -0.0025027313
v -0.043942526 -0.5054166 -0.006537846
v -0.043942526 -0.52329195 -0.0025027313
v -0.021971263 -0.5232463 -0.0036847398
v -0.021971263 -0.5054166 -0.006993679
v -0.043942526 -0.4829546 -0.01303207
v 1.6679513E-18 -0.5054166 -0.0074495124
v 1.1619862E-18 -0.5232007 -0.004866748
v 0.021971263 -0.5232871 -0.005250703
v -0.021971263 -0.4829546 -0.013858236
v -0.043942526 -0.46546718 -0.01753786
v -5.6279973E-19 -0.4829546 -0.014684403
v 0.021971263 -0.5054166 -0.008535016
v 0.043942526 -0.5054166 -0.00962052
v 0.043942526 -0.52337354 -0.005634658
v 0.043942526 -0.4829546 -0.016404359
v 0.021971263 -0.4829546 -0.015544382
v 0.043942526 -0.46546718 -0.020714885
v 0.021971263 -0.46546718 -0.01995254
v 0.043942526 -0.44931722 -0.023747643
v -1.4256849E-18 -0.46546718 -0.019190194
v 0.021971263 -0.44931722 -0.022968356
v 0.043942526 -0.42758122 -0.026416862
v -0.021971263 -0.46546718 -0.018364027
v -2.2613395E-18 -0.44931722 -0.022189068
v -0.021971263 -0.44931722 -0.02134454
v -0.043942526 -0.44931722 -0.020500015
v -0.043942526 -0.42758122 -0.02193294
v 0.021971263 -0.42758122 -0.025176097
v 0.043942526 -0.38801542 -0.028776033
v 3.1521007E-19 -0.42758122 -0.023935327
v -0.021971263 -0.42758122 -0.022934133
v -0.043942526 -0.38801542 -0.022484357
v 0.021971263 -0.38801542 -0.026817728
v 0.043942526 -0.3484496 -0.0311352
v 8.936819E-19 -0.38801542 -0.024859421
v -0.021971263 -0.38801542 -0.02367189
v -0.043942526 -0.3484496 -0.023035774
v 0.021971263 -0.3484496 -0.028459359
v 0.043942526 -0.3083255 -0.032795805
v 1.4721537E-18 -0.3484496 -0.025783515
v -0.021971263 -0.3484496 -0.024409644
v -0.043942526 -0.3083255 -0.023501474
v 0.021971263 -0.3083255 -0.029783163
v 0.043942526 -0.26820144 -0.034456413
v 1.418203E-18 -0.3083255 -0.026770521
v -0.021971263 -0.3083255 -0.025135998
v -0.043942526 -0.26820144 -0.023967175
v 0.021971263 -0.26820144 -0.03110697
v 0.043942526 -0.22807734 -0.036117017
v 1.3642522E-18 -0.26820144 -0.02775753
v -0.021971263 -0.26820144 -0.025862351
v -0.043942526 -0.22807734 -0.024432877
v 0.021971263 -0.22807734 -0.03243078
v 0.043942526 -0.18795326 -0.037777625
v 1.3103014E-18 -0.22807734 -0.028744537
v -0.021971263 -0.22807734 -0.026588708
v -0.043942526 -0.18795326 -0.024898577
v 0.021971263 -0.18795326 -0.033754583
v 0.043942526 -0.15220271 -0.038120657
v 1.2563508E-18 -0.18795326 -0.029731542
v -0.021971263 -0.18795326 -0.02731506
v -0.043942526 -0.15220271 -0.02489858
v 0.021971263 -0.15220271 -0.033985287
v 0.043942526 -0.116452135 -0.038463693
v 1.0897885E-18 -0.15220271 -0.02984992
v -0.021971263 -0.15220271 -0.02737425
v -0.043942526 -0.116452135 -0.024898581
v 0.021971263 -0.116452135 -0.034215998
v 0.043942526 -0.080701575 -0.038806733
v 9.232261E-19 -0.116452135 -0.029968297
v -0.021971263 -0.116452135 -0.02743344
v -0.043942537 -0.080701575 -0.024898583
v 0.021971263 -0.080701575 -0.0344467
v 0.043942526 -0.044951014 -0.039149765
v 7.566639E-19 -0.080701575 -0.030086672
v -0.021971263 -0.080701575 -0.027492628
v -0.043942526 -0.044951014 -0.024898587
v 0.021971263 -0.044951014 -0.03467741
v 0.043942526 -0.009200453 -0.039492797
v 5.901016E-19 -0.044951014 -0.03020505
v -0.021971263 -0.044951014 -0.027551819
v -0.043942526 -0.009200453 -0.024898589
v 0.021971263 -0.009200453 -0.034908112
v 0.043942526 0.026550109 -0.039835837
v 4.235393E-19 -0.009200453 -0.030323429
v -0.021971263 -0.009200453 -0.027611008
v -0.043942526 0.026550109 -0.024898592
v 0.021971263 0.026550109 -0.03513882
v 0.043942526 0.06230067 -0.040178873
v 2.5697705E-19 0.026550109 -0.030441804
v -0.021971263 0.026550109 -0.027670199
v -0.043942526 0.06230067 -0.024898594
v 0.021971263 0.06230067 -0.035369527
v 0.043942526 0.098051235 -0.040521905
v 9.041477E-20 0.06230067 -0.03056018
v -0.021971263 0.06230067 -0.027729386
v -0.043942526 0.098051235 -0.024898596
v 0.021971263 0.098051235 -0.035600234
v 0.043942526 0.12831628 -0.039852835
v -7.614751E-20 0.098051235 -0.03067856
v -0.021971263 0.098051235 -0.027788578
v -0.021971263 0.12831628 -0.027527276
v -0.043942526 0.12831628 -0.024771709
v 0.021971263 0.12831628 -0.035067838
v -6.053693E-19 0.12831628 -0.030282844
v -0.021971263 0.15858133 -0.027265972
v -0.043942526 0.15858133 -0.02464482
v 0.021971263 0.15858133 -0.034535445
v 0.043942526 0.15858133 -0.039183762
v -1.134591E-18 0.15858133 -0.029887129
v -0.021971263 0.18884638 -0.027004672
v -0.043942526 0.18884638 -0.024517931
v 0.021971263 0.18884638 -0.03400305
v 0.043942526 0.18884638 -0.03851469
v -1.6638129E-18 0.18884638 -0.029491413
v -0.021971263 0.21911143 -0.026743371
v -0.043942526 0.21911143 -0.024391044
v 0.021971263 0.21911143 -0.033470657
v 0.043942526 0.21911143 -0.03784562
v -2.1930347E-18 0.21911143 -0.029095698
v -0.021971263 0.24937646 -0.02648207
v -0.043942526 0.24937646 -0.024264155
v 0.021971263 0.24937646 -0.032938268
v 0.043942526 0.24937646 -0.037176546
v -2.7222564E-18 0.24937646 -0.028699983
v -0.021971263 0.2796415 -0.026220769
v -0.043942526 0.2796415 -0.024137268
v 0.021971263 0.2796415 -0.032405872
v 0.043942526 0.2796415 -0.036507476
v -3.2514782E-18 0.2796415 -0.028304268
v -0.021971263 0.30990657 -0.025959466
v -0.043942526 0.30990657 -0.024010379
v 0.021971263 0.30990657 -0.031873476
v 0.043942526 0.30990657 -0.035838403
v -3.7806997E-18 0.30990657 -0.027908552
v -0.021971263 0.3401716 -0.02569816
v -0.043942526 0.3401716 -0.02388349
v 0.021971263 0.3401716 -0.031341083
v 0.043942526 0.3401716 -0.03516933
v -4.3099216E-18 0.3401716 -0.027512833
v -0.021971263 0.37107465 -0.0244321
v -0.043942526 0.37107465 -0.022837488
v 0.021971263 0.37107465 -0.029353166
v 0.043942526 0.37107465 -0.032679617
v -3.716455E-18 0.37107465 -0.026026715
v -0.021971263 0.4019777 -0.023166036
v -0.043942526 0.4019777 -0.021791482
v 0.021971263 0.4019777 -0.02736525
v 0.043942526 0.4019777 -0.030189905
v -3.1229888E-18 0.4019777 -0.024540592
v -0.021971263 0.42817298 -0.022197995
v -0.043942526 0.42817298 -0.020953057
v 0.021971263 0.42817298 -0.025637431
v 0.043942526 0.42817298 -0.027831925
v -1.3493932E-18 0.42817298 -0.023442933
v -0.021971263 0.45436832 -0.02122995
v -0.043942526 0.45436832 -0.020114629
v 0.021971263 0.45436832 -0.023909608
v 0.043942526 0.45436832 -0.025473943
v 0.043942526 0.4768477 -0.022413122
v 4.2420241E-19 0.45436832 -0.022345273
v 0.021971263 0.4768477 -0.0212678
v 0.043942526 0.50491846 -0.016161408
v -0.021971263 0.4768477 -0.019031402
v -0.043942526 0.4768477 -0.017940326
v -0.043942526 0.50491846 -0.012859239
v -2.7890502E-18 0.4768477 -0.020122476
v 0.021971263 0.50491846 -0.015336491
v 0.043942537 0.53190297 -0.010418042
v -0.021971263 0.50491846 -0.013685407
v -0.043942537 0.53190297 -0.007377921
v -1.4836273E-18 0.50491846 -0.014511575
v 0.021971269 0.53190297 -0.009200123
v 0.043942537 0.5536805 -0.0061169537
v 0.021971269 0.5538093 -0.0055930596
v 1.5438063E-18 0.5539381 -0.005069166
v -1.5681295E-18 0.53190297 -0.007982205
v -0.021971269 0.53190297 -0.007680063
v -0.043942526 0.55395496 -0.0025027313
v -0.021971263 0.5539465 -0.0037859485
v 0.043942537 0.5536805 -0.0061169537
v 0.043942537 0.55395496 -0.0025027313
v 0.021985633 0.5538821 -0.0026948156
v 0.021971269 0.5538093 -0.0055930596
v 1.5438063E-18 0.5539381 -0.005069166
v -0 0.55395496 -0.0025027313
v -0.021971263 0.5539465 -0.0037859485
v -0.021971263 0.55395496 -0.0025027313
v -0.043942526 0.55395496 -0.0025027313
v 0.043942537 0.53190297 -0.008013486
v 0.021985633 0.5538821 -0.0026948156
v 0.043942537 0.55395496 -0.0025027313
v 0.021971267 0.53190297 -0.0064939633
v 0.021971263 0.50491846 -0.012630331
v 0.043942526 0.50491846 -0.014213058
v -0 0.55395496 -0.0025027313
v 0.043942526 0.4768477 -0.020464774
v -1.4901161E-09 0.53190297 -0.0052348636
v 0.021971263 0.4768477 -0.018561639
v 0.043942526 0.45436832 -0.023482295
v -0.021971269 0.53190297 -0.006490296
v -0.021971263 0.55395496 -0.0025027313
v -0.043942526 0.55395496 -0.0025027313
v -0.043942537 0.53190297 -0.007377921
v -0.021971263 0.50491846 -0.01249564
v -0.043942526 0.50491846 -0.012859239
v -1.2181011E-18 0.50491846 -0.011764235
v -0.021971263 0.4768477 -0.017841635
v -0.043942526 0.4768477 -0.017940326
v -0.043942526 0.45436832 -0.020114629
v -3.2420366E-18 0.4768477 -0.017375134
v -0.021971263 0.45436832 -0.020040184
v -0.043942526 0.42817298 -0.020953057
v -7.5697185E-19 0.45436832 -0.01959793
v -0.021971263 0.42817298 -0.021008229
v -0.043942526 0.4019777 -0.021791482
v 0.021971263 0.45436832 -0.021203449
v 0.043942526 0.42817298 -0.025818149
v -1.9658119E-18 0.42817298 -0.020695591
v -0.021971263 0.4019777 -0.02197627
v -0.043942526 0.37107465 -0.022837488
v 0.021971263 0.42817298 -0.02293127
v -2.9518712E-18 0.4019777 -0.02179325
v 0.021971263 0.4019777 -0.02465909
v 0.043942526 0.4019777 -0.028154
v 0.043942526 0.37107465 -0.030643715
v -0.021971265 0.37107465 -0.023242334
v -0.043942526 0.3401716 -0.02388349
v -1.4901161E-09 0.37107465 -0.023279373
v 0.021971261 0.37107465 -0.026647007
v 0.043942526 0.3401716 -0.03313343
v -0.021971265 0.3401716 -0.024508394
v -0.043942526 0.30990657 -0.024010379
v -1.4901161E-09 0.3401716 -0.024765491
v 0.021971261 0.3401716 -0.028634924
v 0.043942526 0.30990657 -0.03365862
v -0.021971263 0.30990657 -0.0247697
v -0.043942526 0.2796415 -0.024137268
v -5.069878E-18 0.30990657 -0.02516121
v 0.021971263 0.30990657 -0.029167319
v 0.043942526 0.2796415 -0.03418381
v -0.021971263 0.2796415 -0.025031004
v -0.043942526 0.24937646 -0.024264155
v -4.971734E-18 0.2796415 -0.025556926
v 0.021971263 0.2796415 -0.029699713
v 0.043942526 0.24937646 -0.034709003
v -0.021971265 0.24937646 -0.025292305
v -0.043942526 0.21911143 -0.024391044
v -1.4901161E-09 0.24937646 -0.02595264
v 0.021971263 0.24937646 -0.030232107
v 0.043942526 0.21911143 -0.03523419
v -0.021971265 0.21911143 -0.025553605
v -0.043942526 0.18884638 -0.024517931
v -1.4901161E-09 0.21911143 -0.026348356
v 0.021971263 0.21911143 -0.030764496
v 0.043942526 0.18884638 -0.03575938
v -0.021971263 0.18884638 -0.025814906
v -0.043942526 0.15858133 -0.02464482
v -1.1838372E-18 0.18884638 -0.026744071
v 0.021971263 0.18884638 -0.03129689
v 0.043942526 0.15858133 -0.03628457
v -0.021971263 0.15858133 -0.026076207
v -0.043942526 0.12831628 -0.024771709
v -1.3004735E-18 0.15858133 -0.027139787
v 0.021971263 0.15858133 -0.031829286
v 0.043942526 0.12831628 -0.03680976
v -0.021971263 0.12831628 -0.02633751
v -0.043942526 0.098051235 -0.024898596
v -1.4901161E-09 0.12831628 -0.027535502
v 0.021971261 0.12831628 -0.032361683
v 0.043942526 0.098051235 -0.03733495
v -1.4901161E-09 0.098051235 -0.027931217
v 0.021971261 0.098051235 -0.032894075
v 0.043942526 0.06230067 -0.037135795
v -0.021971263 0.098051235 -0.026598811
v -0.021971263 0.06230067 -0.026539622
v -0.043942526 0.06230067 -0.024898594
v 0.021971263 0.06230067 -0.03266337
v 0.043942526 0.026550109 -0.03693664
v 4.373595E-19 0.06230067 -0.027812839
v -0.021971263 0.026550109 -0.026480434
v -0.043942526 0.026550109 -0.024898592
v 0.021971263 0.026550109 -0.032432657
v 0.043942526 -0.009200453 -0.03673749
v -1.941446E-19 0.026550109 -0.027694462
v -0.021971263 -0.009200453 -0.026421243
v -0.043942526 -0.009200453 -0.024898589
v 0.021971263 -0.009200453 -0.032201953
v 0.043942526 -0.044951014 -0.036538336
v -8.279552E-19 -0.009200453 -0.027576087
v -0.021971263 -0.044951014 -0.026362052
v -0.043942526 -0.044951014 -0.024898587
v 0.021971263 -0.044951014 -0.031971246
v 0.043942526 -0.080701575 -0.036339182
v -7.663354E-19 -0.044951014 -0.027457708
v -0.021971263 -0.080701575 -0.026302863
v -0.043942537 -0.080701575 -0.024898583
v 0.021971263 -0.080701575 -0.031740543
v 0.043942526 -0.116452135 -0.036140032
v 5.4789564E-19 -0.080701575 -0.02733933
v -0.021971263 -0.116452135 -0.026243676
v -0.043942526 -0.116452135 -0.024898581
v 0.021971263 -0.116452135 -0.031509835
v 0.043942526 -0.15220271 -0.035940878
v 1.3877508E-18 -0.116452135 -0.027220955
v -0.021971265 -0.15220271 -0.026184484
v -0.043942526 -0.15220271 -0.02489858
v 0.021971261 -0.15220271 -0.031279128
v 0.043942526 -0.18795326 -0.035741724
v -1.4901161E-09 -0.15220271 -0.027102578
v -0.021971265 -0.18795326 -0.026125295
v -0.043942526 -0.18795326 -0.024898577
v 0.021971261 -0.18795326 -0.031048423
v 0.043942526 -0.22807734 -0.034081116
v -1.4901161E-09 -0.18795326 -0.0269842
v -0.021971263 -0.22807734 -0.025398944
v -0.043942526 -0.22807734 -0.024432877
v 0.021971263 -0.22807734 -0.029724617
v 0.043942526 -0.26820144 -0.032420512
v 1.2253325E-19 -0.22807734 -0.025997195
v -0.021971263 -0.26820144 -0.024672585
v -0.043942526 -0.26820144 -0.023967175
v 0.021971263 -0.26820144 -0.028400809
v 0.043942526 -0.3083255 -0.0307599
v -2.1800784E-19 -0.26820144 -0.025010187
v -0.021971265 -0.3083255 -0.023946231
v -0.043942526 -0.3083255 -0.023501474
v 0.021971261 -0.3083255 -0.027077002
v 0.043942526 -0.3484496 -0.029099295
v -1.4901161E-09 -0.3083255 -0.024023179
v -0.021971265 -0.3484496 -0.023219878
v -0.043942526 -0.3484496 -0.023035774
v 0.021971261 -0.3484496 -0.0257532
v 0.043942526 -0.38801542 -0.026713023
v -1.4901161E-09 -0.3484496 -0.023036173
v -0.021971263 -0.38801542 -0.022482123
v -0.043942526 -0.38801542 -0.022484357
v 0.021971263 -0.38801542 -0.024111567
v 0.043942526 -0.42758122 -0.024326751
v 1.2107417E-18 -0.38801542 -0.022112079
v -0.021971263 -0.42758122 -0.021744367
v -0.043942526 -0.42758122 -0.02193294
v 0.021971263 -0.42758122 -0.022469936
v 0.043942526 -0.44931722 -0.021755997
v 6.180273E-19 -0.42758122 -0.021187985
v -0.021971263 -0.44931722 -0.020154774
v -0.043942526 -0.44931722 -0.020500015
v -0.043942526 -0.46546718 -0.01753786
v 0.021971263 -0.44931722 -0.020262195
v 0.043942526 -0.46546718 -0.018766535
v -1.6237597E-18 -0.44931722 -0.019441726
v -0.021971263 -0.46546718 -0.01717426
v 0.021971263 -0.46546718 -0.017246379
v 0.043942526 -0.4829546 -0.01445601
v -1.0776771E-18 -0.46546718 -0.016442852
v -0.021971265 -0.4829546 -0.01266847
v -0.043942526 -0.4829546 -0.01303207
v 0.021971261 -0.4829546 -0.012838222
v 0.043942526 -0.5054166 -0.007767138
v -1.4901161E-09 -0.4829546 -0.011937062
v -0.021971265 -0.5054166 -0.0058039124
v -0.043942526 -0.5054166 -0.006537846
v 0.021971261 -0.5054166 -0.005828857
v 0.043942526 -0.52329195 -0.0025027313
v 0.021985633 -0.5232895 -0.0025236371
v -1.4901161E-09 -0.5054166 -0.004702171
v -0 -0.52329195 -0.0025027313
v -0.021971265 -0.5232691 -0.002498852
v -0.043942526 -0.52329195 -0.0025027313
vt 0.4736328 1.9873047
vt 0.42138672 1.9677734
vt 0.42089844 1.9873047
vt 0.4736328 1.9677734
vt 0.4736328 1.9433594
vt 0.42211914 1.9433594
vt 0.4736328 1.9179688
vt 0.42211914 1.9179688
vt 0.4736328 1.8974609
vt 0.42211914 1.8974609
vt 0.42211914 1.8740234
vt 0.4736328 1.8740234
vt 0.4736328 1.8505859
vt 0.42211914 1.8505859
vt 0.42211914 1.8222656
vt 0.4736328 1.8222656
vt 0.4736328 1.7949219
vt 0.42211914 1.7949219
vt 0.42211914 1.7675781
vt 0.4736328 1.7675781
vt 0.421875 1.7402344
vt 0.4736328 1.7402344
vt 0.421875 1.7128906
vt 0.4736328 1.7128906
vt 0.421875 1.6855469
vt 0.4736328 1.6855469
vt 0.42163086 1.6582031
vt 0.4736328 1.6582031
vt 0.42163086 1.6308594
vt 0.4736328 1.6308594
vt 0.42163086 1.6035156
vt 0.4736328 1.6035156
vt 0.4736328 1.5761719
vt 0.42138672 1.5761719
vt 0.42163086 1.5439453
vt 0.4736328 1.5439453
vt 0.42163086 1.5117188
vt 0.4736328 1.5117188
vt 0.42163086 1.4794922
vt 0.4736328 1.4794922
vt 0.421875 1.4472656
vt 0.4736328 1.4472656
vt 0.421875 1.4150391
vt 0.4736328 1.4150391
vt 0.421875 1.3828125
vt 0.4736328 1.3828125
vt 0.42211914 1.3505859
vt 0.4736328 1.3505859
vt 0.4736328 1.3183594
vt 0.42211914 1.3183594
vt 0.42211914 1.2822266
vt 0.4736328 1.2822266
vt 0.42211914 1.2460938
vt 0.4736328 1.2460938
vt 0.42211914 1.2099609
vt 0.4736328 1.2099609
vt 0.4736328 1.1738281
vt 0.42211914 1.1738281
vt 0.421875 1.1376953
vt 0.4736328 1.1376953
vt 0.42163086 1.1025391
vt 0.47387695 1.1025391
vt 0.4736328 1.0830078
vt 0.42211914 1.0830078
vt 0.4736328 1.0683594
vt 0.42211914 1.0683594
vt 0.4736328 1.0517578
vt 0.42211914 1.0517578
vt 0.4736328 1.03125
vt 0.42211914 1.03125
vt 0.4736328 1.0146484
vt 0.42211914 1.0146484
vt 0.96240234 1.0087891
vt 0.8496094 1.0068359
vt 0.8496094 1.0087891
vt 0.7373047 1.0087891
vt 0.7368164 1.0058594
vt 0.62353516 1.0087891
vt 0.62353516 1.0048828
vt 0.5097656 1.0087891
vt 0.5097656 1.0048828
vt 0.95947266 1.0302734
vt 0.95947266 1.0136719
vt 0.84716797 1.0136719
vt 0.84716797 1.0302734
vt 0.95947266 1.0507812
vt 0.734375 1.0302734
vt 0.734375 1.0136719
vt 0.62158203 1.0136719
vt 0.84716797 1.0507812
vt 0.95947266 1.0664062
vt 0.734375 1.0507812
vt 0.62158203 1.0302734
vt 0.50878906 1.0302734
vt 0.50878906 1.0136719
vt 0.50878906 1.0507812
vt 0.62158203 1.0507812
vt 0.50878906 1.0664062
vt 0.62158203 1.0664062
vt 0.50878906 1.0810547
vt 0.734375 1.0664062
vt 0.62158203 1.0810547
vt 0.50878906 1.1005859
vt 0.84716797 1.0664062
vt 0.734375 1.0810547
vt 0.84716797 1.0810547
vt 0.95947266 1.0810547
vt 0.95947266 1.1005859
vt 0.62158203 1.1005859
vt 0.50878906 1.1367188
vt 0.734375 1.1005859
vt 0.8466797 1.1005859
vt 0.95947266 1.1367188
vt 0.62158203 1.1367188
vt 0.50878906 1.171875
vt 0.734375 1.1367188
vt 0.8466797 1.1367188
vt 0.95947266 1.171875
vt 0.62158203 1.171875
vt 0.50878906 1.2089844
vt 0.734375 1.171875
vt 0.84716797 1.171875
vt 0.95947266 1.2089844
vt 0.62158203 1.2089844
vt 0.50878906 1.2451172
vt 0.734375 1.2089844
vt 0.84716797 1.2089844
vt 0.95947266 1.2451172
vt 0.62158203 1.2451172
vt 0.50878906 1.28125
vt 0.734375 1.2451172
vt 0.84716797 1.2451172
vt 0.95947266 1.28125
vt 0.62158203 1.28125
vt 0.50878906 1.3173828
vt 0.734375 1.28125
vt 0.84716797 1.28125
vt 0.95947266 1.3173828
vt 0.62158203 1.3173828
vt 0.50878906 1.3496094
vt 0.734375 1.3173828
vt 0.84716797 1.3173828
vt 0.95947266 1.3496094
vt 0.62158203 1.3496094
vt 0.50878906 1.3828125
vt 0.734375 1.3496094
vt 0.84716797 1.3496094
vt 0.95947266 1.3828125
vt 0.62158203 1.3828125
vt 0.50878906 1.4150391
vt 0.734375 1.3828125
vt 0.84716797 1.3828125
vt 0.95947266 1.4150391
vt 0.62158203 1.4150391
vt 0.50878906 1.4472656
vt 0.734375 1.4150391
vt 0.84716797 1.4150391
vt 0.95947266 1.4472656
vt 0.62158203 1.4472656
vt 0.50878906 1.4794922
vt 0.734375 1.4472656
vt 0.84716797 1.4472656
vt 0.95947266 1.4794922
vt 0.62158203 1.4794922
vt 0.50878906 1.5117188
vt 0.734375 1.4794922
vt 0.84716797 1.4794922
vt 0.95947266 1.5117188
vt 0.62158203 1.5117188
vt 0.50878906 1.5439453
vt 0.734375 1.5117188
vt 0.84716797 1.5117188
vt 0.95947266 1.5439453
vt 0.62158203 1.5439453
vt 0.50878906 1.5761719
vt 0.734375 1.5439453
vt 0.84716797 1.5439453
vt 0.95947266 1.5761719
vt 0.62158203 1.5761719
vt 0.50878906 1.6035156
vt 0.734375 1.5761719
vt 0.84716797 1.5761719
vt 0.84716797 1.6035156
vt 0.95947266 1.6035156
vt 0.62158203 1.6035156
vt 0.734375 1.6035156
vt 0.84716797 1.6318359
vt 0.95947266 1.6318359
vt 0.62158203 1.6318359
vt 0.50878906 1.6318359
vt 0.734375 1.6318359
vt 0.84716797 1.6591797
vt 0.95947266 1.6591797
vt 0.62158203 1.6591797
vt 0.50878906 1.6591797
vt 0.734375 1.6591797
vt 0.84716797 1.6865234
vt 0.95947266 1.6865234
vt 0.62158203 1.6865234
vt 0.50878906 1.6865234
vt 0.734375 1.6865234
vt 0.84716797 1.7138672
vt 0.95947266 1.7138672
vt 0.62158203 1.7138672
vt 0.50878906 1.7138672
vt 0.734375 1.7138672
vt 0.84716797 1.7412109
vt 0.95947266 1.7412109
vt 0.62158203 1.7412109
vt 0.50878906 1.7412109
vt 0.734375 1.7412109
vt 0.84716797 1.7685547
vt 0.95947266 1.7685547
vt 0.62158203 1.7685547
vt 0.50878906 1.7685547
vt 0.734375 1.7685547
vt 0.84716797 1.7958984
vt 0.95947266 1.7958984
vt 0.62158203 1.7958984
vt 0.50878906 1.7958984
vt 0.734375 1.7958984
vt 0.84716797 1.8242188
vt 0.95947266 1.8242188
vt 0.62158203 1.8242188
vt 0.50878906 1.8242188
vt 0.734375 1.8242188
vt 0.84716797 1.8515625
vt 0.95947266 1.8515625
vt 0.62158203 1.8515625
vt 0.50878906 1.8515625
vt 0.734375 1.8515625
vt 0.84716797 1.875
vt 0.95947266 1.875
vt 0.62158203 1.875
vt 0.50878906 1.875
vt 0.734375 1.875
vt 0.84716797 1.8994141
vt 0.95947266 1.8994141
vt 0.62158203 1.8994141
vt 0.50878906 1.8994141
vt 0.50878906 1.9199219
vt 0.734375 1.8994141
vt 0.62158203 1.9199219
vt 0.50878906 1.9453125
vt 0.84716797 1.9199219
vt 0.95947266 1.9199219
vt 0.95947266 1.9453125
vt 0.734375 1.9199219
vt 0.62158203 1.9453125
vt 0.50878906 1.9697266
vt 0.84716797 1.9453125
vt 0.95947266 1.9697266
vt 0.734375 1.9453125
vt 0.62158203 1.9697266
vt 0.50878906 1.9892578
vt 0.62158203 1.9892578
vt 0.734375 1.9892578
vt 0.734375 1.9697266
vt 0.84716797 1.9697266
vt 0.95947266 1.9892578
vt 0.84716797 1.9892578
vt 0.50878906 1.9931641
vt 0.5083008 1.9960938
vt 0.6220703 1.9951172
vt 0.6225586 1.9931641
vt 0.7363281 1.9931641
vt 0.73535156 1.9951172
vt 0.8486328 1.9931641
vt 0.84814453 1.9941406
vt 0.9614258 1.9931641
vt 0.3996582 1.9697266
vt 0.38891602 1.9892578
vt 0.3996582 1.9892578
vt 0.38891602 1.9697266
vt 0.38891602 1.9453125
vt 0.3996582 1.9453125
vt 0.3774414 1.9892578
vt 0.3996582 1.9199219
vt 0.3774414 1.9697266
vt 0.38891602 1.9199219
vt 0.3996582 1.8994141
vt 0.3659668 1.9697266
vt 0.3659668 1.9892578
vt 0.35424805 1.9892578
vt 0.35424805 1.9697266
vt 0.3659668 1.9453125
vt 0.35424805 1.9453125
vt 0.3774414 1.9453125
vt 0.3659668 1.9199219
vt 0.35424805 1.9199219
vt 0.35424805 1.8994141
vt 0.3774414 1.9199219
vt 0.3659668 1.8994141
vt 0.35424805 1.8759766
vt 0.3774414 1.8994141
vt 0.3659668 1.8759766
vt 0.35424805 1.8525391
vt 0.38891602 1.8994141
vt 0.3996582 1.8759766
vt 0.3774414 1.8759766
vt 0.3659668 1.8525391
vt 0.35424805 1.8242188
vt 0.38891602 1.8759766
vt 0.3774414 1.8525391
vt 0.38891602 1.8525391
vt 0.3996582 1.8525391
vt 0.3996582 1.8242188
vt 0.3659668 1.8242188
vt 0.35424805 1.7958984
vt 0.3774414 1.8242188
vt 0.38891602 1.8242188
vt 0.3996582 1.7958984
vt 0.3659668 1.7958984
vt 0.35424805 1.7685547
vt 0.3774414 1.7958984
vt 0.38891602 1.7958984
vt 0.3996582 1.7685547
vt 0.3659668 1.7685547
vt 0.35424805 1.7412109
vt 0.3774414 1.7685547
vt 0.38891602 1.7685547
vt 0.3996582 1.7412109
vt 0.3659668 1.7412109
vt 0.35424805 1.7138672
vt 0.3774414 1.7412109
vt 0.38891602 1.7412109
vt 0.3996582 1.7138672
vt 0.3659668 1.7138672
vt 0.35424805 1.6875
vt 0.3774414 1.7138672
vt 0.38891602 1.7138672
vt 0.3996582 1.6875
vt 0.3659668 1.6875
vt 0.35424805 1.6621094
vt 0.3774414 1.6875
vt 0.38891602 1.6875
vt 0.3996582 1.6621094
vt 0.3659668 1.6621094
vt 0.35424805 1.6337891
vt 0.3774414 1.6621094
vt 0.38891602 1.6621094
vt 0.3996582 1.6337891
vt 0.3659668 1.6337891
vt 0.35424805 1.6064453
vt 0.3774414 1.6337891
vt 0.38891602 1.6337891
vt 0.3996582 1.6064453
vt 0.3659668 1.6064453
vt 0.35424805 1.578125
vt 0.3774414 1.6064453
vt 0.38891602 1.6064453
vt 0.3996582 1.578125
vt 0.3774414 1.578125
vt 0.38891602 1.578125
vt 0.3996582 1.5458984
vt 0.3659668 1.578125
vt 0.3659668 1.5458984
vt 0.35424805 1.5458984
vt 0.38891602 1.5458984
vt 0.3996582 1.5136719
vt 0.3774414 1.5458984
vt 0.3659668 1.5136719
vt 0.35424805 1.5136719
vt 0.38891602 1.5136719
vt 0.3996582 1.4804688
vt 0.3774414 1.5136719
vt 0.3659668 1.4804688
vt 0.35424805 1.4804688
vt 0.38891602 1.4804688
vt 0.3996582 1.4482422
vt 0.3774414 1.4804688
vt 0.3659668 1.4482422
vt 0.35424805 1.4482422
vt 0.38891602 1.4482422
vt 0.3996582 1.4150391
vt 0.3774414 1.4482422
vt 0.3659668 1.4150391
vt 0.35424805 1.4150391
vt 0.38891602 1.4150391
vt 0.3996582 1.3828125
vt 0.3774414 1.4150391
vt 0.3659668 1.3828125
vt 0.35424805 1.3828125
vt 0.38891602 1.3828125
vt 0.3996582 1.3505859
vt 0.3774414 1.3828125
vt 0.3659668 1.3505859
vt 0.35424805 1.3505859
vt 0.38891602 1.3505859
vt 0.3996582 1.3173828
vt 0.3774414 1.3505859
vt 0.3659668 1.3173828
vt 0.35424805 1.3173828
vt 0.38891602 1.3173828
vt 0.3996582 1.2802734
vt 0.3774414 1.3173828
vt 0.3659668 1.2802734
vt 0.35424805 1.2802734
vt 0.38891602 1.2802734
vt 0.3996582 1.2421875
vt 0.3774414 1.2802734
vt 0.3659668 1.2421875
vt 0.35424805 1.2421875
vt 0.38891602 1.2421875
vt 0.3996582 1.2041016
vt 0.3774414 1.2421875
vt 0.3659668 1.2041016
vt 0.35424805 1.2041016
vt 0.38891602 1.2041016
vt 0.3996582 1.1669922
vt 0.3774414 1.2041016
vt 0.3659668 1.1669922
vt 0.35424805 1.1669922
vt 0.38891602 1.1669922
vt 0.3996582 1.1357422
vt 0.3774414 1.1669922
vt 0.3659668 1.1357422
vt 0.35424805 1.1357422
vt 0.38891602 1.1357422
vt 0.3996582 1.0996094
vt 0.3774414 1.1357422
vt 0.3659668 1.0996094
vt 0.35424805 1.0996094
vt 0.38891602 1.0996094
vt 0.3996582 1.0791016
vt 0.3774414 1.0996094
vt 0.3659668 1.0791016
vt 0.35424805 1.0791016
vt 0.35424805 1.0644531
vt 0.38891602 1.0791016
vt 0.3996582 1.0644531
vt 0.3774414 1.0791016
vt 0.3659668 1.0644531
vt 0.38891602 1.0644531
vt 0.3996582 1.0478516
vt 0.3774414 1.0644531
vt 0.3659668 1.0478516
vt 0.35424805 1.0478516
vt 0.38891602 1.0478516
vt 0.3996582 1.0302734
vt 0.3774414 1.0478516
vt 0.3659668 1.0302734
vt 0.35424805 1.0302734
vt 0.38891602 1.0302734
vt 0.3996582 1.0136719
vt 0.38891602 1.0136719
vt 0.3774414 1.0302734
vt 0.3774414 1.0136719
vt 0.3659668 1.0136719
vt 0.35424805 1.0136719
vn 1 0 0
vn 1 0 0
vn 1 0 0
vn 1 0 0
vn 1 0 0
vn 1 0 0
vn 1 0 0
vn 1 0 0
vn 1 0 0
vn 1 0 0
vn 1 0 0
vn 1 0 0
vn 1 0 0
vn 1 0 0
vn 1 0 0
vn 1 0 0
vn 1 0 0
vn 1 0 0
vn 1 0 0
vn 1 0 0
vn 1 0 0
vn 1 0 0
vn 1 0 0
vn 1 0 0
vn 1 0 0
vn 1 0 0
vn 1 0 0
vn 1 0 0
vn 1 0 0
vn 1 0 0
vn 1 0 0
vn 1 0 0
vn 1 0 0
vn 1 0 0
vn 1 0 0
vn 1 0 0
vn 1 0 0
vn 1 0 0
vn 1 0 0
vn 1 0 0
vn 1 0 0
vn 1 0 0
vn 1 0 0
vn 1 0 0
vn 1 0 0
vn 1 0 0
vn 1 0 0
vn 1 0 0
vn 1 0 0
vn 1 0 0
vn 1 0 0
vn 1 0 0
vn 1 0 0
vn 1 0 0
vn 1 0 0
vn 1 0 0
vn 1 0 0
vn 1 0 0
vn 1 0 0
vn 1 0 0
vn 1 0 0
vn 1 0 0
vn 1 0 0
vn 1 0 0
vn 1 0 0
vn 1 0 0
vn 1 0 0
vn 1 0 0
vn 1 0 0
vn 1 0 0
vn 1 0 0
vn 1 0 0
vn 0.0010427606 -0.99981314 -0.019303799
vn -0 -0.99958223 -0.02890482
vn -1.812573E-05 -0.99957746 -0.029066619
vn -0.0013875327 -0.99971396 -0.023872599
vn -0.0013681415 -0.9997104 -0.024026435
vn -0.0019890405 -0.9999974 -0.0012047223
vn -0.0019894096 -0.99999726 -0.0012747244
vn -0.001911353 -0.999907 0.013504623
vn -0.001911353 -0.999907 0.013504623
vn -0.031637266 -0.24843974 -0.9681305
vn -0.036275063 -0.20133698 -0.9788502
vn -0.03643191 -0.18249315 -0.9825319
vn -0.03166289 -0.24465449 -0.96909314
vn -0.031604644 -0.26959044 -0.96245635
vn -0.03503007 -0.2412408 -0.96983284
vn -0.034941852 -0.16269366 -0.9860577
vn -0.033226814 -0.180665 -0.98298323
vn -0.031592216 -0.27363887 -0.9613135
vn -0.03687447 -0.217018 -0.9754709
vn -0.035509452 -0.27796206 -0.9599354
vn -0.03837379 -0.24717857 -0.96820974
vn -0.038368065 -0.2525801 -0.9668149
vn -0.03314558 -0.19875944 -0.9794876
vn -0.039463803 -0.2708177 -0.9618214
vn -0.03944309 -0.27457106 -0.9607576
vn -0.035174653 -0.21413437 -0.9761707
vn -0.035168987 -0.21537776 -0.97589725
vn -0.04089093 -0.14247139 -0.98895395
vn -0.03601839 -0.21691443 -0.9755259
vn -0.04090777 -0.1364567 -0.989801
vn -0.063037075 -0.071986586 -0.9954116
vn -0.036874834 -0.21709494 -0.9754538
vn -0.04045329 -0.12611602 -0.9911903
vn -0.03998305 -0.11966144 -0.9920093
vn -0.039987322 -0.11756921 -0.9922593
vn -0.046956003 -0.035135277 -0.99827886
vn -0.0630377 -0.06255059 -0.996049
vn -0.08872009 -0.050295178 -0.99478596
vn -0.055015013 -0.046855778 -0.99738556
vn -0.04695534 -0.03789809 -0.99817777
vn -0.05396144 -0.0162656 -0.99841046
vn -0.08870261 -0.04129207 -0.9952018
vn -0.11667159 -0.043460663 -0.9922192
vn -0.07137274 -0.026634675 -0.99709404
vn -0.053961214 -0.018615887 -0.9983695
vn -0.063274264 -0.015535285 -0.99787533
vn -0.11665676 -0.036941484 -0.992485
vn -0.13578074 -0.036819905 -0.9900545
vn -0.09006811 -0.025774723 -0.995602
vn -0.06327383 -0.01833235 -0.9978278
vn -0.07417724 -0.0148120355 -0.99713504
vn -0.13577378 -0.03266951 -0.99020106
vn -0.15063295 -0.036740057 -0.9879068
vn -0.10513177 -0.02492651 -0.99414575
vn -0.07417656 -0.018049851 -0.9970817
vn -0.08592482 -0.014798059 -0.99619174
vn -0.15062521 -0.03259867 -0.98805326
vn -0.16538382 -0.03665231 -0.98554796
vn -0.11846898 -0.024888942 -0.99264574
vn -0.085923985 -0.01803282 -0.9961385
vn -0.097636685 -0.014782001 -0.99511236
vn -0.16537537 -0.03252082 -0.98569435
vn -0.17736416 -0.023027621 -0.9838758
vn -0.13174237 -0.024846956 -0.9909725
vn -0.097635664 -0.018013254 -0.99505925
vn -0.10686118 -0.008200785 -0.99424016
vn -0.17736086 -0.020166544 -0.9839393
vn -0.18496636 -0.007885523 -0.9827132
vn -0.14242174 -0.014847561 -0.9896947
vn -0.10686044 -0.010295431 -0.99422073
vn -0.1119691 -0.00082264986 -0.99371135
vn -0.18496557 -0.0063417493 -0.9827245
vn -0.18981192 -0.007878122 -0.9817888
vn -0.14877176 -0.003641822 -0.9888649
vn -0.11196898 -0.0016452302 -0.9937104
vn -0.1146112 -0.0008223707 -0.99341005
vn -0.18981113 -0.006335783 -0.9818002
vn -0.19464363 -0.007870489 -0.9808425
vn -0.15254286 -0.0036396745 -0.9882902
vn -0.114611134 -0.0016446961 -0.99340916
vn -0.117250964 -0.00082212186 -0.99310195
vn -0.1946429 -0.0063296463 -0.9808538
vn -0.19946118 -0.007862701 -0.9798742
vn -0.15630724 -0.003637498 -0.98770183
vn -0.11725079 -0.001644189 -0.993101
vn -0.11988821 -0.0008218909 -0.99278706
vn -0.1994604 -0.006323398 -0.9798854
vn -0.20426433 -0.007854774 -0.9788842
vn -0.1600648 -0.0036353115 -0.98709977
vn -0.119888075 -0.0016437031 -0.992786
vn -0.122522905 -0.0008216246 -0.9924654
vn -0.20426355 -0.00631701 -0.97889555
vn -0.20905274 -0.0078467 -0.97787285
vn -0.16381538 -0.0036330246 -0.98648435
vn -0.12252278 -0.0016431602 -0.9924643
vn -0.12515499 -0.0008213289 -0.99213684
vn -0.20905206 -0.0063105132 -0.9778842
vn -0.21382615 -0.007838413 -0.97684026
vn -0.16755898 -0.0036307082 -0.9858554
vn -0.12515484 -0.0016425945 -0.9921359
vn -0.1277844 -0.0008210453 -0.9918017
vn -0.21382546 -0.0063038585 -0.9768515
vn -0.21597227 0.0046303277 -0.9763885
vn -0.17129533 -0.0036283631 -0.985213
vn -0.12778433 -0.0016420471 -0.9918006
vn -0.12833226 0.0024718137 -0.9917282
vn -0.21597217 0.0044637765 -0.97638935
vn -0.21276493 0.0193908 -0.9769109
vn -0.17270257 0.0039505186 -0.98496616
vn -0.12833223 0.0030368955 -0.9917265
vn -0.12443744 0.008566362 -0.9921904
vn -0.124438465 0.006363202 -0.9922069
vn -0.21276481 0.017185632 -0.9769523
vn -0.16911328 0.0129040135 -0.9855121
vn -0.11845484 0.008572684 -0.9929224
vn -0.118455775 0.0063679023 -0.9929389
vn -0.20695129 0.017207572 -0.9781999
vn -0.20695138 0.019415552 -0.9781586
vn -0.16319829 0.012917063 -0.98650867
vn -0.11245931 0.008578672 -0.99361926
vn -0.11246025 0.006372337 -0.9936358
vn -0.2011159 0.017228931 -0.9794159
vn -0.20111604 0.019439653 -0.9793745
vn -0.1572657 0.012929647 -0.98747176
vn -0.10645149 0.008584384 -0.9942808
vn -0.1064524 0.006376577 -0.9942973
vn -0.19525898 0.01724974 -0.98060006
vn -0.19525911 0.019463133 -0.9805586
vn -0.15131596 0.012941806 -0.9884007
vn -0.100431964 0.008589782 -0.99490684
vn -0.10043289 0.0063805883 -0.9949234
vn -0.189381 0.017270023 -0.98175186
vn -0.18938118 0.019486008 -0.98171026
vn -0.14534968 0.012953529 -0.98929554
vn -0.0944014 0.008594909 -0.9954971
vn -0.09440223 0.006384412 -0.9955136
vn -0.18348269 0.01728974 -0.9828708
vn -0.18348286 0.019508265 -0.9828294
vn -0.13936761 0.012964815 -0.9901558
vn -0.088360436 0.008599738 -0.9960515
vn -0.08836114 0.006387995 -0.996068
vn -0.17756447 0.017308857 -0.983957
vn -0.17756458 0.019529818 -0.9839153
vn -0.13337022 0.012975661 -0.9909813
vn -0.08128118 0.024882935 -0.9963805
vn -0.081282616 0.022009399 -0.99644804
vn -0.16746539 0.04061292 -0.9850411
vn -0.16746856 0.045572143 -0.9848236
vn -0.12479962 0.031686254 -0.99167585
vn -0.0723265 0.04082732 -0.996545
vn -0.0723287 0.03728434 -0.99668366
vn -0.14939234 0.063474454 -0.98673856
vn -0.14939594 0.07144613 -0.9861929
vn -0.111133635 0.049993604 -0.9925472
vn -0.063739866 0.03901644 -0.9972036
vn -0.063742034 0.03596666 -0.9973181
vn -0.12685896 0.064420566 -0.9898267
vn -0.12685885 0.07415563 -0.989145
vn -0.095456295 0.04839453 -0.99425656
vn -0.05653292 0.036870554 -0.9977197
vn -0.056534555 0.034405194 -0.9978077
vn -0.09917244 0.06549169 -0.9929127
vn -0.09916775 0.07736795 -0.99205846
vn -0.077931605 0.046487354 -0.9958742
vn -0.05191542 0.064830676 -0.9965449
vn -0.051916882 0.06332689 -0.9966415
vn -0.07401109 0.08917073 -0.9932627
vn -0.07399674 0.0996496 -0.9922673
vn -0.05150131 0.1737255 -0.98344654
vn -0.063004725 0.072494164 -0.9953768
vn -0.051514473 0.16699219 -0.9846116
vn -0.04454569 0.21327507 -0.97597605
vn -0.04599809 0.14747182 -0.98799604
vn -0.046002086 0.14487447 -0.9883801
vn -0.03410104 0.19513209 -0.9801839
vn -0.048773725 0.15512033 -0.9866909
vn -0.04454393 0.21386549 -0.975847
vn -0.042312924 0.19854915 -0.9791772
vn -0.034093462 0.20182908 -0.9788271
vn -0.029705593 0.20218602 -0.97889656
vn -0.039323032 0.21151751 -0.9765828
vn -0.04233121 0.19534008 -0.97982156
vn -0.038453765 0.17800379 -0.9832782
vn -0.038607605 0.16225307 -0.9859936
vn -0.03716523 0.14961736 -0.9880453
vn -0.036036015 0.19269317 -0.9805972
vn -0.029724965 0.19780846 -0.97979
vn -0.03532553 0.194929 -0.98018104
vn -0.035471186 0.17399427 -0.9841076
vn 0.0008702697 0.9985802 -0.05326074
vn 0.0008702697 0.9985802 -0.05326074
vn 0.0024379385 0.9993297 -0.036526967
vn 0.00242261 0.9993237 -0.03669067
vn 0.00258916 0.9999187 -0.01248321
vn 0.0025281475 0.9999206 -0.012343817
vn -0 0.9999784 -0.0065743136
vn -0 0.9999784 -0.006574699
vn -0 0.9999783 -0.0065958393
vn 0.05150635 -0.21547692 0.9751497
vn 0.031152846 -0.17697038 0.98372304
vn 0.029894201 -0.20678209 0.9779302
vn 0.04588111 -0.20386639 0.97792304
vn 0.059709504 -0.21564323 0.9746449
vn 0.07310253 -0.21671678 0.9734936
vn 0.0020135022 -0.14868446 0.9888827
vn 0.08483189 -0.17275588 0.98130476
vn 0.0017688706 -0.19218655 0.98135686
vn 0.06916216 -0.16668612 0.9835814
vn 0.106165856 -0.09864974 0.9894428
vn -0.030634636 -0.19793598 0.9797361
vn -0.024006061 -0.17391211 0.9844685
vn -0.019799886 -0.19697404 0.98020875
vn -0.024250878 -0.20313473 0.9788504
vn -0.027099108 -0.20183422 0.97904474
vn -0.018927714 -0.1951277 0.9805951
vn 0.005583465 -0.21176264 0.9773052
vn -0.015781006 -0.14755818 0.9889275
vn -0.0075125666 -0.1448243 0.9894288
vn -0.0020512445 -0.063343816 0.99798965
vn 0.014748921 -0.15543802 0.98773557
vn -0.010401149 -0.06490496 0.99783725
vn 0.0025094762 -0.034460194 0.9994029
vn 0.028705908 -0.072652444 0.9969441
vn -0.005854455 -0.036928978 0.9993007
vn 0.009760059 -0.036039885 0.99930274
vn 0.09106506 -0.08873565 0.99188364
vn 0.12998919 -0.07667652 0.9885462
vn 0.04365352 -0.046584725 0.9979601
vn 0.0013971017 -0.039097782 0.99923444
vn 0.018408181 -0.03737591 0.99913174
vn 0.11553659 -0.06516697 0.99116325
vn 0.0613019 -0.048523486 0.9969392
vn 0.1426771 -0.064186186 0.9876859
vn 0.15660661 -0.07364496 0.98491156
vn 0.17861554 -0.0710951 0.98134696
vn 0.0100481175 -0.040932458 0.99911135
vn 0.027406987 -0.022064084 0.9993808
vn 0.07712536 -0.05015539 0.99575907
vn 0.16494751 -0.06331557 0.984268
vn 0.19491632 -0.0441645 0.97982496
vn 0.019044545 -0.024956342 0.9995072
vn 0.034538046 -0.006409267 0.99938285
vn 0.09093174 -0.03181388 0.9953489
vn 0.18217519 -0.039940406 0.9824546
vn 0.2002457 -0.01711555 0.97959626
vn 0.026179636 -0.008630558 0.99961996
vn 0.040642653 -0.006407768 0.99915326
vn 0.09956873 -0.013027572 0.99494547
vn 0.1898368 -0.016102115 0.9816836
vn 0.19993746 -0.017116677 0.9796592
vn 0.032289263 -0.008628978 0.9994413
vn 0.046742678 -0.0064060083 0.9988864
vn 0.10564022 -0.013019336 0.99431914
vn 0.19262287 -0.016093215 0.981141
vn 0.19962916 -0.017117701 0.979722
vn 0.03839523 -0.008627072 0.9992254
vn 0.052837435 -0.0064040627 0.9985826
vn 0.1116999 -0.013010624 0.9936568
vn 0.19540426 -0.01608413 0.9805909
vn 0.19932075 -0.017118778 0.9797847
vn 0.044496905 -0.008624889 0.9989723
vn 0.058926273 -0.006401875 0.9982418
vn 0.11774716 -0.013001476 0.99295855
vn 0.19818093 -0.01607498 0.9800336
vn 0.19901218 -0.017119944 0.97984755
vn 0.050593637 -0.008622381 0.9986821
vn 0.06500847 -0.006399487 0.9978642
vn 0.123781435 -0.012991893 0.99222445
vn 0.20095284 -0.016065784 0.9794692
vn 0.19870356 -0.017121067 0.97991
vn 0.056684665 -0.008619587 0.99835485
vn 0.071083546 -0.0063968347 0.9974498
vn 0.12980199 -0.012981829 0.99145496
vn 0.20371996 -0.016056426 0.9788976
vn 0.19839498 -0.017122144 0.97997254
vn 0.062769376 -0.0086164465 0.99799085
vn 0.07503942 -0.0024851488 0.9971775
vn 0.13580817 -0.012971292 0.9906502
vn 0.2064822 -0.016046925 0.97831875
vn 0.1985506 -0.004651147 0.9800796
vn 0.13946976 -0.003972258 0.99021834
vn 0.20814851 -0.004470248 0.978087
vn 0.19946349 0.0058910614 0.9798876
vn 0.06673039 -0.003054986 0.9977664
vn 0.06617403 0.0016519908 0.9978067
vn 0.074482284 0.0008255321 0.99722207
vn 0.20754118 0.0053284336 0.97821176
vn 0.2008142 0.0058893734 0.9796116
vn 0.13802284 0.0036475614 0.99042237
vn 0.06349717 0.0016522739 0.99798065
vn 0.07181 0.00082570617 0.99741805
vn 0.2058195 0.0053303875 0.97857547
vn 0.20216392 0.0058876644 0.979334
vn 0.13422763 0.003649458 0.99094385
vn 0.06081892 0.0016525714 0.9981475
vn 0.06913626 0.0008258833 0.9976069
vn 0.204096 0.005332313 0.9789363
vn 0.20351222 0.005886008 0.9790547
vn 0.13042653 0.0036513177 0.9914513
vn 0.058139376 0.001652843 0.9983071
vn 0.06646095 0.0008260278 0.99778867
vn 0.20237048 0.005334286 0.9792946
vn 0.20485932 0.0058842967 0.9787738
vn 0.12661971 0.0036531545 0.9919446
vn 0.055458542 0.0016530607 0.9984596
vn 0.063784175 0.0008261456 0.9979633
vn 0.20064303 0.0053362004 0.9796499
vn 0.20620543 0.0058825905 0.97849107
vn 0.122807264 0.0036548884 0.9924238
vn 0.05277651 0.0016532979 0.99860495
vn 0.061106175 0.0008262785 0.998131
vn 0.19891374 0.005338113 0.9800024
vn 0.20755024 0.0058809035 0.97820663
vn 0.118989326 0.0036565969 0.9928888
vn 0.05009338 0.0016535607 0.99874324
vn 0.05842668 0.00082643784 0.9982913
vn 0.19718257 0.0053400397 0.98035216
vn 0.20474595 0.021969683 0.9785686
vn 0.11516618 0.0036582875 0.9933395
vn 0.044910602 0.010342648 0.9989374
vn 0.053252377 0.00823493 0.99854714
vn 0.19201997 0.019648464 0.9811943
vn 0.19440302 0.0364551 0.98024416
vn 0.10875405 0.014913895 0.9939568
vn 0.03557138 0.018088287 0.9992035
vn 0.043920245 0.014838647 0.9989248
vn 0.18083242 0.032431263 0.9829791
vn 0.17987987 0.03655794 0.98300904
vn 0.09792675 0.024944974 0.99488103
vn 0.023725783 0.018094674 0.9995547
vn 0.03208456 0.014845357 0.9993749
vn 0.16619879 0.032516297 0.985556
vn 0.16523783 0.036653217 0.9855724
vn 0.08450471 0.024975805 0.99611
vn 0.011870224 0.018098438 0.9997657
vn 0.020235378 0.014849918 0.99968493
vn 0.1514544 0.032594457 0.98792666
vn 0.14607325 0.043450557 0.98831904
vn 0.07103658 0.025002085 0.9971603
vn 0.0008906658 0.01836943 0.99983084
vn 0.009258639 0.015565497 0.99983597
vn 0.1323111 0.03695541 0.9905191
vn 0.11750607 0.05048334 0.9917882
vn 0.055847898 0.025839524 0.9981048
vn -0.008469723 0.01864238 0.9997904
vn -0.00010171615 0.016289337 0.9998673
vn 0.104038484 0.041400418 0.99371123
vn 0.09194591 0.07121301 0.99321437
vn 0.037031144 0.026684463 0.99895775
vn -0.015465063 0.037926763 0.9991609
vn -0.0071046245 0.035139803 0.99935716
vn 0.07844433 0.062208626 0.9949757
vn 0.07209432 0.14029956 0.9874808
vn 0.020621685 0.046945512 0.9986846
vn -0.022045096 0.119696125 0.99256575
vn -0.013746393 0.117419824 0.9929872
vn -0.015956525 0.21688482 0.9760668
vn 0.057468787 0.1354878 0.9891109
vn 0.068267494 0.213031 0.9746576
vn 0.00624893 0.12637065 0.9919634
vn -0.024115564 0.2171423 0.9758421
vn 0.052669574 0.2149783 0.9751976
vn 0.07365697 0.26910222 0.9602909
vn 0.0023573479 0.21722311 0.97611916
vn -0.028500812 0.27358603 0.9614252
vn -0.020484027 0.26951027 0.9627797
vn 0.057505466 0.27386367 0.96004784
vn 0.06224519 0.2660296 0.9619531
vn 0.0023604261 0.2782943 0.9604929
vn -0.027026478 0.24247104 0.9697822
vn -0.020740554 0.2487538 0.9683446
vn 0.049002927 0.25173596 0.9665545
vn 0.042419698 0.23292209 0.9715697
vn 0.03420441 0.19305281 0.9805921
vn 0.0014533523 0.23647648 0.9716361
vn 0.0006080253 0.15223554 0.9883441
vn -0.020566516 0.17688408 0.9840168
vn -0.016549222 0.20121609 0.9794071
g back_0
f 3/3/3 2/2/2 1/1/1
f 2/2/2 4/4/4 1/1/1
f 4/4/4 2/2/2 5/5/5
f 2/2/2 6/6/6 5/5/5
f 5/5/5 6/6/6 7/7/7
f 6/6/6 8/8/8 7/7/7
f 7/7/7 8/8/8 9/9/9
f 8/8/8 10/10/10 9/9/9
f 9/9/9 10/10/10 11/11/11
f 12/12/12 9/9/9 11/11/11
f 12/12/12 11/11/11 13/13/13
f 11/11/11 14/14/14 13/13/13
f 13/13/13 14/14/14 15/15/15
f 16/16/16 13/13/13 15/15/15
f 16/16/16 15/15/15 17/17/17
f 15/15/15 18/18/18 17/17/17
f 17/17/17 18/18/18 19/19/19
f 20/20/20 17/17/17 19/19/19
f 20/20/20 19/19/19 21/21/21
f 22/22/22 20/20/20 21/21/21
f 22/22/22 21/21/21 23/23/23
f 24/24/24 22/22/22 23/23/23
f 24/24/24 23/23/23 25/25/25
f 26/26/26 24/24/24 25/25/25
f 26/26/26 25/25/25 27/27/27
f 28/28/28 26/26/26 27/27/27
f 28/28/28 27/27/27 29/29/29
f 30/30/30 28/28/28 29/29/29
f 30/30/30 29/29/29 31/31/31
f 32/32/32 30/30/30 31/31/31
f 32/32/32 31/31/31 33/33/33
f 31/31/31 34/34/34 33/33/33
f 33/33/33 34/34/34 35/35/35
f 36/36/36 33/33/33 35/35/35
f 36/36/36 35/35/35 37/37/37
f 38/38/38 36/36/36 37/37/37
f 38/38/38 37/37/37 39/39/39
f 40/40/40 38/38/38 39/39/39
f 40/40/40 39/39/39 41/41/41
f 42/42/42 40/40/40 41/41/41
f 42/42/42 41/41/41 43/43/43
f 44/44/44 42/42/42 43/43/43
f 44/44/44 43/43/43 45/45/45
f 46/46/46 44/44/44 45/45/45
f 46/46/46 45/45/45 47/47/47
f 48/48/48 46/46/46 47/47/47
f 48/48/48 47/47/47 49/49/49
f 47/47/47 50/50/50 49/49/49
f 49/49/49 50/50/50 51/51/51
f 52/52/52 49/49/49 51/51/51
f 52/52/52 51/51/51 53/53/53
f 54/54/54 52/52/52 53/53/53
f 54/54/54 53/53/53 55/55/55
f 56/56/56 54/54/54 55/55/55
f 56/56/56 55/55/55 57/57/57
f 55/55/55 58/58/58 57/57/57
f 57/57/57 58/58/58 59/59/59
f 60/60/60 57/57/57 59/59/59
f 60/60/60 59/59/59 61/61/61
f 62/62/62 60/60/60 61/61/61
f 62/62/62 61/61/61 63/63/63
f 61/61/61 64/64/64 63/63/63
f 63/63/63 64/64/64 65/65/65
f 64/64/64 66/66/66 65/65/65
f 65/65/65 66/66/66 67/67/67
f 66/66/66 68/68/68 67/67/67
f 67/67/67 68/68/68 69/69/69
f 68/68/68 70/70/70 69/69/69
f 69/69/69 70/70/70 71/71/71
f 70/70/70 72/72/72 71/71/71
f 75/75/75 74/74/74 73/73/73
f 75/75/75 76/76/76 74/74/74
f 76/76/76 77/77/77 74/74/74
f 77/77/77 76/76/76 78/78/78
f 79/79/79 77/77/77 78/78/78
f 79/79/79 78/78/78 80/80/80
f 81/81/81 79/79/79 80/80/80
f 84/84/84 83/83/83 82/82/82
f 85/85/85 84/84/84 82/82/82
f 85/85/85 82/82/82 86/86/86
f 85/85/85 87/87/87 84/84/84
f 87/87/87 88/88/88 84/84/84
f 89/89/89 88/88/88 87/87/87
f 90/90/90 85/85/85 86/86/86
f 90/90/90 86/86/86 91/91/91
f 92/92/92 87/87/87 85/85/85
f 90/90/90 92/92/92 85/85/85
f 93/93/93 89/89/89 87/87/87
f 93/93/93 94/94/94 89/89/89
f 94/94/94 95/95/95 89/89/89
f 94/94/94 93/93/93 96/96/96
f 93/93/93 87/87/87 97/97/97
f 93/93/93 97/97/97 96/96/96
f 87/87/87 92/92/92 97/97/97
f 96/96/96 97/97/97 98/98/98
f 97/97/97 99/99/99 98/98/98
f 97/97/97 92/92/92 99/99/99
f 98/98/98 99/99/99 100/100/100
f 101/101/101 92/92/92 90/90/90
f 92/92/92 101/101/101 99/99/99
f 99/99/99 102/102/102 100/100/100
f 99/99/99 101/101/101 102/102/102
f 103/103/103 100/100/100 102/102/102
f 104/104/104 101/101/101 90/90/90
f 104/104/104 90/90/90 91/91/91
f 105/105/105 101/101/101 104/104/104
f 101/101/101 105/105/105 102/102/102
f 106/106/106 104/104/104 91/91/91
f 106/106/106 105/105/105 104/104/104
f 107/107/107 106/106/106 91/91/91
f 106/106/106 107/107/107 108/108/108
f 109/109/109 103/103/103 102/102/102
f 110/110/110 103/103/103 109/109/109
f 102/102/102 105/105/105 111/111/111
f 111/111/111 105/105/105 106/106/106
f 109/109/109 102/102/102 111/111/111
f 112/112/112 106/106/106 108/108/108
f 112/112/112 111/111/111 106/106/106
f 112/112/112 108/108/108 113/113/113
f 114/114/114 110/110/110 109/109/109
f 115/115/115 110/110/110 114/114/114
f 109/109/109 111/111/111 116/116/116
f 116/116/116 111/111/111 112/112/112
f 114/114/114 109/109/109 116/116/116
f 117/117/117 112/112/112 113/113/113
f 117/117/117 116/116/116 112/112/112
f 117/117/117 113/113/113 118/118/118
f 119/119/119 115/115/115 114/114/114
f 120/120/120 115/115/115 119/119/119
f 114/114/114 116/116/116 121/121/121
f 121/121/121 116/116/116 117/117/117
f 119/119/119 114/114/114 121/121/121
f 122/122/122 117/117/117 118/118/118
f 122/122/122 121/121/121 117/117/117
f 122/122/122 118/118/118 123/123/123
f 124/124/124 120/120/120 119/119/119
f 125/125/125 120/120/120 124/124/124
f 119/119/119 121/121/121 126/126/126
f 126/126/126 121/121/121 122/122/122
f 124/124/124 119/119/119 126/126/126
f 127/127/127 122/122/122 123/123/123
f 127/127/127 126/126/126 122/122/122
f 127/127/127 123/123/123 128/128/128
f 129/129/129 125/125/125 124/124/124
f 130/130/130 125/125/125 129/129/129
f 124/124/124 126/126/126 131/131/131
f 131/131/131 126/126/126 127/127/127
f 129/129/129 124/124/124 131/131/131
f 132/132/132 127/127/127 128/128/128
f 132/132/132 131/131/131 127/127/127
f 132/132/132 128/128/128 133/133/133
f 134/134/134 130/130/130 129/129/129
f 135/135/135 130/130/130 134/134/134
f 129/129/129 131/131/131 136/136/136
f 136/136/136 131/131/131 132/132/132
f 134/134/134 129/129/129 136/136/136
f 137/137/137 132/132/132 133/133/133
f 137/137/137 136/136/136 132/132/132
f 137/137/137 133/133/133 138/138/138
f 139/139/139 135/135/135 134/134/134
f 140/140/140 135/135/135 139/139/139
f 134/134/134 136/136/136 141/141/141
f 141/141/141 136/136/136 137/137/137
f 139/139/139 134/134/134 141/141/141
f 142/142/142 137/137/137 138/138/138
f 142/142/142 141/141/141 137/137/137
f 142/142/142 138/138/138 143/143/143
f 144/144/144 140/140/140 139/139/139
f 145/145/145 140/140/140 144/144/144
f 139/139/139 141/141/141 146/146/146
f 146/146/146 141/141/141 142/142/142
f 144/144/144 139/139/139 146/146/146
f 147/147/147 142/142/142 143/143/143
f 147/147/147 146/146/146 142/142/142
f 147/147/147 143/143/143 148/148/148
f 149/149/149 145/145/145 144/144/144
f 150/150/150 145/145/145 149/149/149
f 144/144/144 146/146/146 151/151/151
f 151/151/151 146/146/146 147/147/147
f 149/149/149 144/144/144 151/151/151
f 152/152/152 147/147/147 148/148/148
f 152/152/152 151/151/151 147/147/147
f 152/152/152 148/148/148 153/153/153
f 154/154/154 150/150/150 149/149/149
f 155/155/155 150/150/150 154/154/154
f 149/149/149 151/151/151 156/156/156
f 156/156/156 151/151/151 152/152/152
f 154/154/154 149/149/149 156/156/156
f 157/157/157 152/152/152 153/153/153
f 157/157/157 156/156/156 152/152/152
f 157/157/157 153/153/153 158/158/158
f 159/159/159 155/155/155 154/154/154
f 160/160/160 155/155/155 159/159/159
f 154/154/154 156/156/156 161/161/161
f 161/161/161 156/156/156 157/157/157
f 159/159/159 154/154/154 161/161/161
f 162/162/162 157/157/157 158/158/158
f 162/162/162 161/161/161 157/157/157
f 162/162/162 158/158/158 163/163/163
f 164/164/164 160/160/160 159/159/159
f 165/165/165 160/160/160 164/164/164
f 159/159/159 161/161/161 166/166/166
f 166/166/166 161/161/161 162/162/162
f 164/164/164 159/159/159 166/166/166
f 167/167/167 162/162/162 163/163/163
f 167/167/167 166/166/166 162/162/162
f 167/167/167 163/163/163 168/168/168
f 169/169/169 165/165/165 164/164/164
f 170/170/170 165/165/165 169/169/169
f 164/164/164 166/166/166 171/171/171
f 171/171/171 166/166/166 167/167/167
f 169/169/169 164/164/164 171/171/171
f 172/172/172 167/167/167 168/168/168
f 172/172/172 171/171/171 167/167/167
f 172/172/172 168/168/168 173/173/173
f 174/174/174 170/170/170 169/169/169
f 170/170/170 174/174/174 175/175/175
f 169/169/169 171/171/171 176/176/176
f 176/176/176 171/171/171 172/172/172
f 174/174/174 169/169/169 176/176/176
f 177/177/177 172/172/172 173/173/173
f 177/177/177 176/176/176 172/172/172
f 177/177/177 173/173/173 178/178/178
f 174/174/174 179/179/179 175/175/175
f 174/174/174 176/176/176 179/179/179
f 180/180/180 175/175/175 179/179/179
f 181/181/181 176/176/176 177/177/177
f 176/176/176 181/181/181 179/179/179
f 182/182/182 177/177/177 178/178/178
f 182/182/182 181/181/181 177/177/177
f 182/182/182 178/178/178 183/183/183
f 182/182/182 183/183/183 181/181/181
f 178/178/178 184/184/184 183/183/183
f 185/185/185 180/180/180 179/179/179
f 185/185/185 179/179/179 181/181/181
f 183/183/183 186/186/186 181/181/181
f 186/186/186 185/185/185 181/181/181
f 183/183/183 184/184/184 187/187/187
f 183/183/183 187/187/187 186/186/186
f 184/184/184 188/188/188 187/187/187
f 185/185/185 189/189/189 180/180/180
f 185/185/185 186/186/186 189/189/189
f 189/189/189 190/190/190 180/180/180
f 187/187/187 191/191/191 186/186/186
f 186/186/186 191/191/191 189/189/189
f 187/187/187 188/188/188 192/192/192
f 187/187/187 192/192/192 191/191/191
f 188/188/188 193/193/193 192/192/192
f 189/189/189 194/194/194 190/190/190
f 189/189/189 191/191/191 194/194/194
f 194/194/194 195/195/195 190/190/190
f 192/192/192 196/196/196 191/191/191
f 191/191/191 196/196/196 194/194/194
f 192/192/192 193/193/193 197/197/197
f 192/192/192 197/197/197 196/196/196
f 193/193/193 198/198/198 197/197/197
f 194/194/194 199/199/199 195/195/195
f 194/194/194 196/196/196 199/199/199
f 199/199/199 200/200/200 195/195/195
f 197/197/197 201/201/201 196/196/196
f 196/196/196 201/201/201 199/199/199
f 197/197/197 198/198/198 202/202/202
f 197/197/197 202/202/202 201/201/201
f 198/198/198 203/203/203 202/202/202
f 199/199/199 204/204/204 200/200/200
f 199/199/199 201/201/201 204/204/204
f 204/204/204 205/205/205 200/200/200
f 202/202/202 206/206/206 201/201/201
f 201/201/201 206/206/206 204/204/204
f 202/202/202 203/203/203 207/207/207
f 202/202/202 207/207/207 206/206/206
f 203/203/203 208/208/208 207/207/207
f 204/204/204 209/209/209 205/205/205
f 204/204/204 206/206/206 209/209/209
f 209/209/209 210/210/210 205/205/205
f 207/207/207 211/211/211 206/206/206
f 206/206/206 211/211/211 209/209/209
f 207/207/207 208/208/208 212/212/212
f 207/207/207 212/212/212 211/211/211
f 208/208/208 213/213/213 212/212/212
f 209/209/209 214/214/214 210/210/210
f 209/209/209 211/211/211 214/214/214
f 214/214/214 215/215/215 210/210/210
f 212/212/212 216/216/216 211/211/211
f 211/211/211 216/216/216 214/214/214
f 212/212/212 213/213/213 217/217/217
f 212/212/212 217/217/217 216/216/216
f 213/213/213 218/218/218 217/217/217
f 214/214/214 219/219/219 215/215/215
f 214/214/214 216/216/216 219/219/219
f 219/219/219 220/220/220 215/215/215
f 217/217/217 221/221/221 216/216/216
f 216/216/216 221/221/221 219/219/219
f 217/217/217 218/218/218 222/222/222
f 217/217/217 222/222/222 221/221/221
f 218/218/218 223/223/223 222/222/222
f 219/219/219 224/224/224 220/220/220
f 219/219/219 221/221/221 224/224/224
f 224/224/224 225/225/225 220/220/220
f 222/222/222 226/226/226 221/221/221
f 221/221/221 226/226/226 224/224/224
f 222/222/222 223/223/223 227/227/227
f 222/222/222 227/227/227 226/226/226
f 223/223/223 228/228/228 227/227/227
f 224/224/224 229/229/229 225/225/225
f 224/224/224 226/226/226 229/229/229
f 229/229/229 230/230/230 225/225/225
f 227/227/227 231/231/231 226/226/226
f 226/226/226 231/231/231 229/229/229
f 227/227/227 228/228/228 232/232/232
f 227/227/227 232/232/232 231/231/231
f 228/228/228 233/233/233 232/232/232
f 229/229/229 234/234/234 230/230/230
f 229/229/229 231/231/231 234/234/234
f 234/234/234 235/235/235 230/230/230
f 232/232/232 236/236/236 231/231/231
f 231/231/231 236/236/236 234/234/234
f 232/232/232 233/233/233 237/237/237
f 232/232/232 237/237/237 236/236/236
f 233/233/233 238/238/238 237/237/237
f 234/234/234 239/239/239 235/235/235
f 234/234/234 236/236/236 239/239/239
f 239/239/239 240/240/240 235/235/235
f 240/240/240 239/239/239 241/241/241
f 236/236/236 242/242/242 239/239/239
f 237/237/237 242/242/242 236/236/236
f 239/239/239 243/243/243 241/241/241
f 239/239/239 242/242/242 243/243/243
f 241/241/241 243/243/243 244/244/244
f 245/245/245 237/237/237 238/238/238
f 246/246/246 245/245/245 238/238/238
f 245/245/245 246/246/246 247/247/247
f 248/248/248 242/242/242 237/237/237
f 242/242/242 248/248/248 243/243/243
f 245/245/245 248/248/248 237/237/237
f 243/243/243 249/249/249 244/244/244
f 243/243/243 248/248/248 249/249/249
f 250/250/250 244/244/244 249/249/249
f 251/251/251 245/245/245 247/247/247
f 251/251/251 247/247/247 252/252/252
f 253/253/253 248/248/248 245/245/245
f 248/248/248 253/253/253 249/249/249
f 251/251/251 253/253/253 245/245/245
f 254/254/254 250/250/250 249/249/249
f 255/255/255 250/250/250 254/254/254
f 256/256/256 255/255/255 254/254/254
f 256/256/256 254/254/254 257/257/257
f 249/249/249 253/253/253 258/258/258
f 254/254/254 249/249/249 258/258/258
f 258/258/258 253/253/253 251/251/251
f 254/254/254 258/258/258 257/257/257
f 259/259/259 251/251/251 252/252/252
f 259/259/259 258/258/258 251/251/251
f 257/257/257 258/258/258 259/259/259
f 259/259/259 252/252/252 260/260/260
f 261/261/261 257/257/257 259/259/259
f 261/261/261 259/259/259 260/260/260
f 264/264/264 263/263/263 262/262/262
f 265/265/265 264/264/264 262/262/262
f 265/265/265 266/266/266 264/264/264
f 266/266/266 267/267/267 264/264/264
f 267/267/267 266/266/266 268/268/268
f 269/269/269 267/267/267 268/268/268
f 269/269/269 268/268/268 270/270/270
f 273/273/273 272/272/272 271/271/271
f 272/272/272 274/274/274 271/271/271
f 274/274/274 275/275/275 271/271/271
f 275/275/275 276/276/276 271/271/271
f 274/274/274 272/272/272 277/277/277
f 276/276/276 275/275/275 278/278/278
f 279/279/279 274/274/274 277/277/277
f 275/275/275 274/274/274 279/279/279
f 275/275/275 280/280/280 278/278/278
f 278/278/278 280/280/280 281/281/281
f 279/279/279 277/277/277 282/282/282
f 277/277/277 283/283/283 282/282/282
f 282/282/282 283/283/283 284/284/284
f 285/285/285 282/282/282 284/284/284
f 286/286/286 282/282/282 285/285/285
f 279/279/279 282/282/282 286/286/286
f 287/287/287 286/286/286 285/285/285
f 288/288/288 275/275/275 279/279/279
f 288/288/288 279/279/279 286/286/286
f 289/289/289 286/286/286 287/287/287
f 288/288/288 286/286/286 289/289/289
f 290/290/290 289/289/289 287/287/287
f 289/289/289 290/290/290 291/291/291
f 288/288/288 292/292/292 275/275/275
f 292/292/292 288/288/288 289/289/289
f 292/292/292 280/280/280 275/275/275
f 293/293/293 289/289/289 291/291/291
f 292/292/292 289/289/289 293/293/293
f 291/291/291 294/294/294 293/293/293
f 292/292/292 295/295/295 280/280/280
f 295/295/295 292/292/292 293/293/293
f 294/294/294 296/296/296 293/293/293
f 294/294/294 297/297/297 296/296/296
f 295/295/295 298/298/298 280/280/280
f 280/280/280 298/298/298 281/281/281
f 299/299/299 281/281/281 298/298/298
f 295/295/295 293/293/293 300/300/300
f 295/295/295 300/300/300 298/298/298
f 293/293/293 296/296/296 300/300/300
f 297/297/297 301/301/301 296/296/296
f 297/297/297 302/302/302 301/301/301
f 303/303/303 299/299/299 298/298/298
f 300/300/300 303/303/303 298/298/298
f 300/300/300 296/296/296 304/304/304
f 300/300/300 304/304/304 303/303/303
f 296/296/296 301/301/301 304/304/304
f 303/303/303 305/305/305 299/299/299
f 304/304/304 305/305/305 303/303/303
f 305/305/305 306/306/306 299/299/299
f 307/307/307 306/306/306 305/305/305
f 302/302/302 308/308/308 301/301/301
f 302/302/302 309/309/309 308/308/308
f 304/304/304 301/301/301 310/310/310
f 304/304/304 310/310/310 305/305/305
f 301/301/301 308/308/308 310/310/310
f 311/311/311 307/307/307 305/305/305
f 310/310/310 311/311/311 305/305/305
f 307/307/307 311/311/311 312/312/312
f 309/309/309 313/313/313 308/308/308
f 309/309/309 314/314/314 313/313/313
f 310/310/310 308/308/308 315/315/315
f 310/310/310 315/315/315 311/311/311
f 308/308/308 313/313/313 315/315/315
f 311/311/311 316/316/316 312/312/312
f 315/315/315 316/316/316 311/311/311
f 317/317/317 312/312/312 316/316/316
f 314/314/314 318/318/318 313/313/313
f 314/314/314 319/319/319 318/318/318
f 315/315/315 313/313/313 320/320/320
f 315/315/315 320/320/320 316/316/316
f 313/313/313 318/318/318 320/320/320
f 321/321/321 317/317/317 316/316/316
f 320/320/320 321/321/321 316/316/316
f 322/322/322 317/317/317 321/321/321
f 319/319/319 323/323/323 318/318/318
f 319/319/319 324/324/324 323/323/323
f 320/320/320 318/318/318 325/325/325
f 320/320/320 325/325/325 321/321/321
f 318/318/318 323/323/323 325/325/325
f 326/326/326 322/322/322 321/321/321
f 325/325/325 326/326/326 321/321/321
f 327/327/327 322/322/322 326/326/326
f 324/324/324 328/328/328 323/323/323
f 324/324/324 329/329/329 328/328/328
f 325/325/325 323/323/323 330/330/330
f 325/325/325 330/330/330 326/326/326
f 323/323/323 328/328/328 330/330/330
f 331/331/331 327/327/327 326/326/326
f 330/330/330 331/331/331 326/326/326
f 332/332/332 327/327/327 331/331/331
f 329/329/329 333/333/333 328/328/328
f 329/329/329 334/334/334 333/333/333
f 330/330/330 328/328/328 335/335/335
f 330/330/330 335/335/335 331/331/331
f 328/328/328 333/333/333 335/335/335
f 336/336/336 332/332/332 331/331/331
f 335/335/335 336/336/336 331/331/331
f 337/337/337 332/332/332 336/336/336
f 334/334/334 338/338/338 333/333/333
f 334/334/334 339/339/339 338/338/338
f 335/335/335 333/333/333 340/340/340
f 335/335/335 340/340/340 336/336/336
f 333/333/333 338/338/338 340/340/340
f 341/341/341 337/337/337 336/336/336
f 340/340/340 341/341/341 336/336/336
f 342/342/342 337/337/337 341/341/341
f 339/339/339 343/343/343 338/338/338
f 339/339/339 344/344/344 343/343/343
f 340/340/340 338/338/338 345/345/345
f 340/340/340 345/345/345 341/341/341
f 338/338/338 343/343/343 345/345/345
f 346/346/346 342/342/342 341/341/341
f 345/345/345 346/346/346 341/341/341
f 347/347/347 342/342/342 346/346/346
f 344/344/344 348/348/348 343/343/343
f 344/344/344 349/349/349 348/348/348
f 345/345/345 343/343/343 350/350/350
f 345/345/345 350/350/350 346/346/346
f 343/343/343 348/348/348 350/350/350
f 351/351/351 347/347/347 346/346/346
f 350/350/350 351/351/351 346/346/346
f 347/347/347 351/351/351 352/352/352
f 350/350/350 348/348/348 353/353/353
f 351/351/351 350/350/350 353/353/353
f 351/351/351 354/354/354 352/352/352
f 354/354/354 351/351/351 353/353/353
f 355/355/355 352/352/352 354/354/354
f 349/349/349 356/356/356 348/348/348
f 348/348/348 356/356/356 353/353/353
f 357/357/357 356/356/356 349/349/349
f 353/353/353 356/356/356 357/357/357
f 358/358/358 357/357/357 349/349/349
f 359/359/359 355/355/355 354/354/354
f 360/360/360 355/355/355 359/359/359
f 353/353/353 361/361/361 354/354/354
f 361/361/361 353/353/353 357/357/357
f 361/361/361 359/359/359 354/354/354
f 362/362/362 357/357/357 358/358/358
f 361/361/361 357/357/357 362/362/362
f 363/363/363 362/362/362 358/358/358
f 364/364/364 360/360/360 359/359/359
f 364/364/364 359/359/359 361/361/361
f 365/365/365 360/360/360 364/364/364
f 366/366/366 361/361/361 362/362/362
f 366/366/366 364/364/364 361/361/361
f 367/367/367 362/362/362 363/363/363
f 366/366/366 362/362/362 367/367/367
f 368/368/368 367/367/367 363/363/363
f 369/369/369 365/365/365 364/364/364
f 369/369/369 364/364/364 366/366/366
f 370/370/370 365/365/365 369/369/369
f 371/371/371 366/366/366 367/367/367
f 371/371/371 369/369/369 366/366/366
f 372/372/372 367/367/367 368/368/368
f 371/371/371 367/367/367 372/372/372
f 373/373/373 372/372/372 368/368/368
f 374/374/374 370/370/370 369/369/369
f 374/374/374 369/369/369 371/371/371
f 375/375/375 370/370/370 374/374/374
f 376/376/376 371/371/371 372/372/372
f 376/376/376 374/374/374 371/371/371
f 377/377/377 372/372/372 373/373/373
f 376/376/376 372/372/372 377/377/377
f 378/378/378 377/377/377 373/373/373
f 379/379/379 375/375/375 374/374/374
f 379/379/379 374/374/374 376/376/376
f 380/380/380 375/375/375 379/379/379
f 381/381/381 376/376/376 377/377/377
f 381/381/381 379/379/379 376/376/376
f 382/382/382 377/377/377 378/378/378
f 381/381/381 377/377/377 382/382/382
f 383/383/383 382/382/382 378/378/378
f 384/384/384 380/380/380 379/379/379
f 384/384/384 379/379/379 381/381/381
f 385/385/385 380/380/380 384/384/384
f 386/386/386 381/381/381 382/382/382
f 386/386/386 384/384/384 381/381/381
f 387/387/387 382/382/382 383/383/383
f 386/386/386 382/382/382 387/387/387
f 388/388/388 387/387/387 383/383/383
f 389/389/389 385/385/385 384/384/384
f 389/389/389 384/384/384 386/386/386
f 385/385/385 389/389/389 390/390/390
f 391/391/391 386/386/386 387/387/387
f 391/391/391 389/389/389 386/386/386
f 392/392/392 387/387/387 388/388/388
f 391/391/391 387/387/387 392/392/392
f 393/393/393 392/392/392 388/388/388
f 389/389/389 394/394/394 390/390/390
f 394/394/394 389/389/389 391/391/391
f 395/395/395 390/390/390 394/394/394
f 396/396/396 391/391/391 392/392/392
f 396/396/396 394/394/394 391/391/391
f 397/397/397 392/392/392 393/393/393
f 396/396/396 392/392/392 397/397/397
f 398/398/398 397/397/397 393/393/393
f 399/399/399 395/395/395 394/394/394
f 399/399/399 394/394/394 396/396/396
f 400/400/400 395/395/395 399/399/399
f 401/401/401 396/396/396 397/397/397
f 401/401/401 399/399/399 396/396/396
f 402/402/402 397/397/397 398/398/398
f 401/401/401 397/397/397 402/402/402
f 403/403/403 402/402/402 398/398/398
f 404/404/404 400/400/400 399/399/399
f 404/404/404 399/399/399 401/401/401
f 405/405/405 400/400/400 404/404/404
f 406/406/406 401/401/401 402/402/402
f 406/406/406 404/404/404 401/401/401
f 407/407/407 402/402/402 403/403/403
f 406/406/406 402/402/402 407/407/407
f 408/408/408 407/407/407 403/403/403
f 409/409/409 405/405/405 404/404/404
f 409/409/409 404/404/404 406/406/406
f 405/405/405 409/409/409 410/410/410
f 411/411/411 406/406/406 407/407/407
f 411/411/411 409/409/409 406/406/406
f 412/412/412 407/407/407 408/408/408
f 411/411/411 407/407/407 412/412/412
f 413/413/413 412/412/412 408/408/408
f 409/409/409 414/414/414 410/410/410
f 414/414/414 409/409/409 411/411/411
f 415/415/415 410/410/410 414/414/414
f 416/416/416 411/411/411 412/412/412
f 416/416/416 414/414/414 411/411/411
f 417/417/417 412/412/412 413/413/413
f 416/416/416 412/412/412 417/417/417
f 418/418/418 417/417/417 413/413/413
f 419/419/419 415/415/415 414/414/414
f 419/419/419 414/414/414 416/416/416
f 415/415/415 419/419/419 420/420/420
f 421/421/421 416/416/416 417/417/417
f 421/421/421 419/419/419 416/416/416
f 422/422/422 417/417/417 418/418/418
f 421/421/421 417/417/417 422/422/422
f 423/423/423 422/422/422 418/418/418
f 419/419/419 424/424/424 420/420/420
f 424/424/424 419/419/419 421/421/421
f 420/420/420 424/424/424 425/425/425
f 426/426/426 421/421/421 422/422/422
f 426/426/426 424/424/424 421/421/421
f 427/427/427 422/422/422 423/423/423
f 426/426/426 422/422/422 427/427/427
f 428/428/428 427/427/427 423/423/423
f 427/427/427 428/428/428 429/429/429
f 424/424/424 430/430/430 425/425/425
f 430/430/430 424/424/424 426/426/426
f 425/425/425 430/430/430 431/431/431
f 432/432/432 426/426/426 427/427/427
f 432/432/432 430/430/430 426/426/426
f 433/433/433 427/427/427 429/429/429
f 432/432/432 427/427/427 433/433/433
f 430/430/430 434/434/434 431/431/431
f 431/431/431 434/434/434 435/435/435
f 432/432/432 436/436/436 430/430/430
f 436/436/436 432/432/432 433/433/433
f 436/436/436 434/434/434 430/430/430
f 437/437/437 433/433/433 429/429/429
f 436/436/436 433/433/433 437/437/437
f 438/438/438 437/437/437 429/429/429
f 434/434/434 439/439/439 435/435/435
f 435/435/435 439/439/439 440/440/440
f 436/436/436 441/441/441 434/434/434
f 441/441/441 436/436/436 437/437/437
f 441/441/441 439/439/439 434/434/434
f 442/442/442 437/437/437 438/438/438
f 441/441/441 437/437/437 442/442/442
f 443/443/443 442/442/442 438/438/438
f 439/439/439 444/444/444 440/440/440
f 440/440/440 444/444/444 445/445/445
f 444/444/444 446/446/446 445/445/445
f 441/441/441 447/447/447 439/439/439
f 447/447/447 444/444/444 439/439/439
f 446/446/446 444/444/444 447/447/447
f 447/447/447 441/441/441 442/442/442
f 448/448/448 446/446/446 447/447/447
f 448/448/448 447/447/447 449/449/449
f 447/447/447 442/442/442 449/449/449
f 449/449/449 442/442/442 443/443/443
f 450/450/450 449/449/449 443/443/443
