g Battle_sidelight
v -3.0155806E-07 -0.28125 3.393315
v 0.1665018 -0.19999999 3.3892274
v -3.0155806E-07 -0.19999999 3.393315
v 0.1665018 -0.28125 3.3892274
v -3.0155806E-07 -0.31875 3.393315
v 0.1665018 -0.31875 3.3892274
v -3.0155806E-07 -0.4 3.393315
v 0.1665018 -0.4 3.3892274
v 0.1665018 -0.19999999 3.3892274
v 0.3326026 -0.28125 3.3769753
v 0.3326026 -0.19999999 3.3769753
v 0.1665018 -0.28125 3.3892274
v 0.3326026 -0.31875 3.3769753
v 0.1665018 -0.31875 3.3892274
v 0.1665018 -0.4 3.3892274
v 0.3326026 -0.4 3.3769753
v 0.3326026 -0.19999999 3.3769753
v 0.4979027 -0.28125 3.3565872
v 0.4979027 -0.19999999 3.3565872
v 0.3326026 -0.28125 3.3769753
v 0.4979027 -0.31875 3.3565872
v 0.3326026 -0.31875 3.3769753
v 0.3326026 -0.4 3.3769753
v 0.4979027 -0.4 3.3565872
v 0.4979027 -0.19999999 3.3565872
v 0.6620022 -0.28125 3.3281136
v 0.6620022 -0.19999999 3.3281136
v 0.4979027 -0.28125 3.3565872
v 0.6620022 -0.31875 3.3281136
v 0.4979027 -0.31875 3.3565872
v 0.4979027 -0.4 3.3565872
v 0.6620022 -0.4 3.3281136
v 0.6620022 -0.19999999 3.3281136
v 0.82450753 -0.28125 3.291619
v 0.82450753 -0.19999999 3.291619
v 0.6620022 -0.28125 3.3281136
v 0.82450753 -0.31875 3.291619
v 0.6620022 -0.31875 3.3281136
v 0.6620022 -0.4 3.3281136
v 0.82450753 -0.4 3.291619
v 0.82450753 -0.19999999 3.291619
v 0.9850265 -0.28125 3.2471979
v 0.9850265 -0.19999999 3.2471979
v 0.82450753 -0.28125 3.291619
v 0.9850265 -0.31875 3.2471979
v 0.82450753 -0.31875 3.291619
v 0.82450753 -0.4 3.291619
v 0.9850265 -0.4 3.2471979
v 0.9850265 -0.19999999 3.2471979
v 1.1431735 -0.28125 3.1949537
v 1.1431735 -0.19999999 3.1949537
v 0.9850265 -0.28125 3.2471979
v 1.1431735 -0.31875 3.1949537
v 0.9850265 -0.31875 3.2471979
v 0.9850265 -0.4 3.2471979
v 1.1431735 -0.4 3.1949537
v 1.1431735 -0.19999999 3.1949537
v 1.2985638 -0.28125 3.1350121
v 1.2985638 -0.19999999 3.1350121
v 1.1431735 -0.28125 3.1949537
v 1.2985638 -0.31875 3.1350121
v 1.1431735 -0.31875 3.1949537
v 1.1431735 -0.4 3.1949537
v 1.2985638 -0.4 3.1350121
v 1.2985638 -0.19999999 3.1350121
v 1.4508278 -0.28125 3.067518
v 1.4508278 -0.19999999 3.067518
v 1.2985638 -0.28125 3.1350121
v 1.4508278 -0.31875 3.067518
v 1.2985638 -0.31875 3.1350121
v 1.2985638 -0.4 3.1350121
v 1.4508278 -0.4 3.067518
v 1.4508278 -0.19999999 3.067518
v 1.5995959 -0.28125 2.9926343
v 1.5995959 -0.19999999 2.9926343
v 1.4508278 -0.28125 3.067518
v 1.5995959 -0.31875 2.9926343
v 1.4508278 -0.31875 3.067518
v 1.4508278 -0.4 3.067518
v 1.5995959 -0.4 2.9926343
v 1.5995959 -0.19999999 2.9926343
v 1.7445126 -0.28125 2.9105442
v 1.7445126 -0.19999999 2.9105442
v 1.5995959 -0.28125 2.9926343
v 1.7445126 -0.31875 2.9105442
v 1.5995959 -0.31875 2.9926343
v 1.5995959 -0.4 2.9926343
v 1.7445126 -0.4 2.9105442
v 1.7445126 -0.19999999 2.9105442
v 1.8852249 -0.28125 2.8214364
v 1.8852249 -0.19999999 2.8214364
v 1.7445126 -0.28125 2.9105442
v 1.8852249 -0.31875 2.8214364
v 1.7445126 -0.31875 2.9105442
v 1.7445126 -0.4 2.9105442
v 1.8852249 -0.4 2.8214364
v 1.8852249 -0.19999999 2.8214364
v 2.0213954 -0.28125 2.7255342
v 2.0213954 -0.19999999 2.7255342
v 1.8852249 -0.28125 2.8214364
v 2.0213954 -0.31875 2.7255342
v 1.8852249 -0.31875 2.8214364
v 1.8852249 -0.4 2.8214364
v 2.0213954 -0.4 2.7255342
v 2.0213954 -0.19999999 2.7255342
v 2.152694 -0.28125 2.6230676
v 2.152694 -0.19999999 2.6230676
v 2.0213954 -0.28125 2.7255342
v 2.152694 -0.31875 2.6230676
v 2.0213954 -0.31875 2.7255342
v 2.0213954 -0.4 2.7255342
v 2.152694 -0.4 2.6230676
v 2.152694 -0.19999999 2.6230676
v 2.2788093 -0.28125 2.5142791
v 2.2788093 -0.19999999 2.5142791
v 2.152694 -0.28125 2.6230676
v 2.2788093 -0.31875 2.5142791
v 2.152694 -0.31875 2.6230676
v 2.152694 -0.4 2.6230676
v 2.2788093 -0.4 2.5142791
v 2.2788093 -0.19999999 2.5142791
v 2.3994367 -0.28125 2.3994372
v 2.3994367 -0.19999999 2.3994372
v 2.2788093 -0.28125 2.5142791
v 2.3994367 -0.31875 2.3994372
v 2.2788093 -0.31875 2.5142791
v 2.2788093 -0.4 2.5142791
v 2.3994367 -0.4 2.3994372
v 2.3994367 -0.19999999 2.3994372
v 2.514279 -0.28125 2.2788103
v 2.514279 -0.19999999 2.2788103
v 2.3994367 -0.28125 2.3994372
v 2.514279 -0.31875 2.2788103
v 2.3994367 -0.31875 2.3994372
v 2.3994367 -0.4 2.3994372
v 2.514279 -0.4 2.2788103
v 2.514279 -0.19999999 2.2788103
v 2.6230676 -0.28125 2.1526947
v 2.6230676 -0.19999999 2.1526947
v 2.514279 -0.28125 2.2788103
v 2.6230676 -0.31875 2.1526947
v 2.514279 -0.31875 2.2788103
v 2.514279 -0.4 2.2788103
v 2.6230676 -0.4 2.1526947
v 2.6230676 -0.19999999 2.1526947
v 2.7255342 -0.28125 2.0213962
v 2.7255342 -0.19999999 2.0213962
v 2.6230676 -0.28125 2.1526947
v 2.7255342 -0.31875 2.0213962
v 2.6230676 -0.31875 2.1526947
v 2.6230676 -0.4 2.1526947
v 2.7255342 -0.4 2.0213962
v 2.7255342 -0.19999999 2.0213962
v 2.8214364 -0.28125 1.8852255
v 2.8214364 -0.19999999 1.8852255
v 2.7255342 -0.28125 2.0213962
v 2.8214364 -0.31875 1.8852255
v 2.7255342 -0.31875 2.0213962
v 2.7255342 -0.4 2.0213962
v 2.8214364 -0.4 1.8852255
v 2.8214364 -0.19999999 1.8852255
v 2.9105442 -0.28125 1.7445134
v 2.9105442 -0.19999999 1.7445134
v 2.8214364 -0.28125 1.8852255
v 2.9105442 -0.31875 1.7445134
v 2.8214364 -0.31875 1.8852255
v 2.8214364 -0.4 1.8852255
v 2.9105442 -0.4 1.7445134
v 2.9105442 -0.19999999 1.7445134
v 2.9926343 -0.28125 1.5995969
v 2.9926343 -0.19999999 1.5995969
v 2.9105442 -0.28125 1.7445134
v 2.9926343 -0.31875 1.5995969
v 2.9105442 -0.31875 1.7445134
v 2.9105442 -0.4 1.7445134
v 2.9926343 -0.4 1.5995969
v 2.9926343 -0.19999999 1.5995969
v 3.067518 -0.28125 1.4508289
v 3.067518 -0.19999999 1.4508289
v 2.9926343 -0.28125 1.5995969
v 3.067518 -0.31875 1.4508289
v 2.9926343 -0.31875 1.5995969
v 2.9926343 -0.4 1.5995969
v 3.067518 -0.4 1.4508289
v 3.067518 -0.19999999 1.4508289
v 3.1350124 -0.28125 1.2985649
v 3.1350124 -0.19999999 1.2985649
v 3.067518 -0.28125 1.4508289
v 3.1350124 -0.31875 1.2985649
v 3.067518 -0.31875 1.4508289
v 3.067518 -0.4 1.4508289
v 3.1350124 -0.4 1.2985649
v 3.1350124 -0.19999999 1.2985649
v 3.1949544 -0.28125 1.1431744
v 3.1949544 -0.19999999 1.1431744
v 3.1350124 -0.28125 1.2985649
v 3.1949544 -0.31875 1.1431744
v 3.1350124 -0.31875 1.2985649
v 3.1350124 -0.4 1.2985649
v 3.1949544 -0.4 1.1431744
v 3.1949544 -0.19999999 1.1431744
v 3.2471979 -0.28125 0.98502713
v 3.2471979 -0.19999999 0.98502713
v 3.1949544 -0.28125 1.1431744
v 3.2471979 -0.31875 0.98502713
v 3.1949544 -0.31875 1.1431744
v 3.1949544 -0.4 1.1431744
v 3.2471979 -0.4 0.98502713
v 3.2471979 -0.19999999 0.98502713
v 3.29162 -0.28125 0.8245085
v 3.29162 -0.19999999 0.8245085
v 3.2471979 -0.28125 0.98502713
v 3.29162 -0.31875 0.8245085
v 3.2471979 -0.31875 0.98502713
v 3.2471979 -0.4 0.98502713
v 3.29162 -0.4 0.8245085
v 3.29162 -0.19999999 0.8245085
v 3.3281136 -0.28125 0.66200286
v 3.3281136 -0.19999999 0.66200286
v 3.29162 -0.28125 0.8245085
v 3.3281136 -0.31875 0.66200286
v 3.29162 -0.31875 0.8245085
v 3.29162 -0.4 0.8245085
v 3.3281136 -0.4 0.66200286
v 3.3281136 -0.19999999 0.66200286
v 3.3565884 -0.28125 0.49790332
v 3.3565884 -0.19999999 0.49790332
v 3.3281136 -0.28125 0.66200286
v 3.3565884 -0.31875 0.49790332
v 3.3281136 -0.31875 0.66200286
v 3.3281136 -0.4 0.66200286
v 3.3565884 -0.4 0.49790332
v 3.3565884 -0.19999999 0.49790332
v 3.3769767 -0.28125 0.3326033
v 3.3769767 -0.19999999 0.3326033
v 3.3565884 -0.28125 0.49790332
v 3.3769767 -0.31875 0.3326033
v 3.3565884 -0.31875 0.49790332
v 3.3565884 -0.4 0.49790332
v 3.3769767 -0.4 0.3326033
v 3.3769767 -0.19999999 0.3326033
v 3.3892288 -0.28125 0.16650246
v 3.3892288 -0.19999999 0.16650246
v 3.3769767 -0.28125 0.3326033
v 3.3892288 -0.31875 0.16650246
v 3.3769767 -0.31875 0.3326033
v 3.3769767 -0.4 0.3326033
v 3.3892288 -0.4 0.16650246
v 3.3892288 -0.19999999 0.16650246
v 3.393315 -0.28125 3.0155806E-07
v 3.393315 -0.19999999 3.0155806E-07
v 3.3892288 -0.28125 0.16650246
v 3.393315 -0.31875 3.0155806E-07
v 3.3892288 -0.31875 0.16650246
v 3.3892288 -0.4 0.16650246
v 3.393315 -0.4 3.0155806E-07
v 3.393315 -0.28125 3.0155806E-07
v 3.3892274 -0.19999999 -0.1665018
v 3.393315 -0.19999999 3.0155806E-07
v 3.3892274 -0.28125 -0.1665018
v 3.393315 -0.31875 3.0155806E-07
v 3.3892274 -0.31875 -0.1665018
v 3.393315 -0.4 3.0155806E-07
v 3.3892274 -0.4 -0.1665018
v 3.3892274 -0.19999999 -0.1665018
v 3.3769753 -0.28125 -0.3326026
v 3.3769753 -0.19999999 -0.3326026
v 3.3892274 -0.28125 -0.1665018
v 3.3769753 -0.31875 -0.3326026
v 3.3892274 -0.31875 -0.1665018
v 3.3892274 -0.4 -0.1665018
v 3.3769753 -0.4 -0.3326026
v 3.3769753 -0.19999999 -0.3326026
v 3.3565872 -0.28125 -0.4979027
v 3.3565872 -0.19999999 -0.4979027
v 3.3769753 -0.28125 -0.3326026
v 3.3565872 -0.31875 -0.4979027
v 3.3769753 -0.31875 -0.3326026
v 3.3769753 -0.4 -0.3326026
v 3.3565872 -0.4 -0.4979027
v 3.3565872 -0.19999999 -0.4979027
v 3.3281136 -0.28125 -0.6620022
v 3.3281136 -0.19999999 -0.6620022
v 3.3565872 -0.28125 -0.4979027
v 3.3281136 -0.31875 -0.6620022
v 3.3565872 -0.31875 -0.4979027
v 3.3565872 -0.4 -0.4979027
v 3.3281136 -0.4 -0.6620022
v 3.3281136 -0.19999999 -0.6620022
v 3.291619 -0.28125 -0.82450753
v 3.291619 -0.19999999 -0.82450753
v 3.3281136 -0.28125 -0.6620022
v 3.291619 -0.31875 -0.82450753
v 3.3281136 -0.31875 -0.6620022
v 3.3281136 -0.4 -0.6620022
v 3.291619 -0.4 -0.82450753
v 3.291619 -0.19999999 -0.82450753
v 3.2471979 -0.28125 -0.9850265
v 3.2471979 -0.19999999 -0.9850265
v 3.291619 -0.28125 -0.82450753
v 3.2471979 -0.31875 -0.9850265
v 3.291619 -0.31875 -0.82450753
v 3.291619 -0.4 -0.82450753
v 3.2471979 -0.4 -0.9850265
v 3.2471979 -0.19999999 -0.9850265
v 3.1949537 -0.28125 -1.1431735
v 3.1949537 -0.19999999 -1.1431735
v 3.2471979 -0.28125 -0.9850265
v 3.1949537 -0.31875 -1.1431735
v 3.2471979 -0.31875 -0.9850265
v 3.2471979 -0.4 -0.9850265
v 3.1949537 -0.4 -1.1431735
v 3.1949537 -0.19999999 -1.1431735
v 3.1350121 -0.28125 -1.2985638
v 3.1350121 -0.19999999 -1.2985638
v 3.1949537 -0.28125 -1.1431735
v 3.1350121 -0.31875 -1.2985638
v 3.1949537 -0.31875 -1.1431735
v 3.1949537 -0.4 -1.1431735
v 3.1350121 -0.4 -1.2985638
v 3.1350121 -0.19999999 -1.2985638
v 3.067518 -0.28125 -1.4508278
v 3.067518 -0.19999999 -1.4508278
v 3.1350121 -0.28125 -1.2985638
v 3.067518 -0.31875 -1.4508278
v 3.1350121 -0.31875 -1.2985638
v 3.1350121 -0.4 -1.2985638
v 3.067518 -0.4 -1.4508278
v 3.067518 -0.19999999 -1.4508278
v 2.9926343 -0.28125 -1.5995959
v 2.9926343 -0.19999999 -1.5995959
v 3.067518 -0.28125 -1.4508278
v 2.9926343 -0.31875 -1.5995959
v 3.067518 -0.31875 -1.4508278
v 3.067518 -0.4 -1.4508278
v 2.9926343 -0.4 -1.5995959
v 2.9926343 -0.19999999 -1.5995959
v 2.9105442 -0.28125 -1.7445126
v 2.9105442 -0.19999999 -1.7445126
v 2.9926343 -0.28125 -1.5995959
v 2.9105442 -0.31875 -1.7445126
v 2.9926343 -0.31875 -1.5995959
v 2.9926343 -0.4 -1.5995959
v 2.9105442 -0.4 -1.7445126
v 2.9105442 -0.19999999 -1.7445126
v 2.8214364 -0.28125 -1.8852249
v 2.8214364 -0.19999999 -1.8852249
v 2.9105442 -0.28125 -1.7445126
v 2.8214364 -0.31875 -1.8852249
v 2.9105442 -0.31875 -1.7445126
v 2.9105442 -0.4 -1.7445126
v 2.8214364 -0.4 -1.8852249
v 2.8214364 -0.19999999 -1.8852249
v 2.7255342 -0.28125 -2.0213954
v 2.7255342 -0.19999999 -2.0213954
v 2.8214364 -0.28125 -1.8852249
v 2.7255342 -0.31875 -2.0213954
v 2.8214364 -0.31875 -1.8852249
v 2.8214364 -0.4 -1.8852249
v 2.7255342 -0.4 -2.0213954
v 2.7255342 -0.19999999 -2.0213954
v 2.6230676 -0.28125 -2.152694
v 2.6230676 -0.19999999 -2.152694
v 2.7255342 -0.28125 -2.0213954
v 2.6230676 -0.31875 -2.152694
v 2.7255342 -0.31875 -2.0213954
v 2.7255342 -0.4 -2.0213954
v 2.6230676 -0.4 -2.152694
v 2.6230676 -0.19999999 -2.152694
v 2.5142791 -0.28125 -2.2788093
v 2.5142791 -0.19999999 -2.2788093
v 2.6230676 -0.28125 -2.152694
v 2.5142791 -0.31875 -2.2788093
v 2.6230676 -0.31875 -2.152694
v 2.6230676 -0.4 -2.152694
v 2.5142791 -0.4 -2.2788093
v 2.5142791 -0.19999999 -2.2788093
v 2.3994372 -0.28125 -2.3994367
v 2.3994372 -0.19999999 -2.3994367
v 2.5142791 -0.28125 -2.2788093
v 2.3994372 -0.31875 -2.3994367
v 2.5142791 -0.31875 -2.2788093
v 2.5142791 -0.4 -2.2788093
v 2.3994372 -0.4 -2.3994367
v 2.3994372 -0.19999999 -2.3994367
v 2.2788103 -0.28125 -2.514279
v 2.2788103 -0.19999999 -2.514279
v 2.3994372 -0.28125 -2.3994367
v 2.2788103 -0.31875 -2.514279
v 2.3994372 -0.31875 -2.3994367
v 2.3994372 -0.4 -2.3994367
v 2.2788103 -0.4 -2.514279
v 2.2788103 -0.19999999 -2.514279
v 2.1526947 -0.28125 -2.6230676
v 2.1526947 -0.19999999 -2.6230676
v 2.2788103 -0.28125 -2.514279
v 2.1526947 -0.31875 -2.6230676
v 2.2788103 -0.31875 -2.514279
v 2.2788103 -0.4 -2.514279
v 2.1526947 -0.4 -2.6230676
v 2.1526947 -0.19999999 -2.6230676
v 2.0213962 -0.28125 -2.7255342
v 2.0213962 -0.19999999 -2.7255342
v 2.1526947 -0.28125 -2.6230676
v 2.0213962 -0.31875 -2.7255342
v 2.1526947 -0.31875 -2.6230676
v 2.1526947 -0.4 -2.6230676
v 2.0213962 -0.4 -2.7255342
v 2.0213962 -0.19999999 -2.7255342
v 1.8852255 -0.28125 -2.8214364
v 1.8852255 -0.19999999 -2.8214364
v 2.0213962 -0.28125 -2.7255342
v 1.8852255 -0.31875 -2.8214364
v 2.0213962 -0.31875 -2.7255342
v 2.0213962 -0.4 -2.7255342
v 1.8852255 -0.4 -2.8214364
v 1.8852255 -0.19999999 -2.8214364
v 1.7445134 -0.28125 -2.9105442
v 1.7445134 -0.19999999 -2.9105442
v 1.8852255 -0.28125 -2.8214364
v 1.7445134 -0.31875 -2.9105442
v 1.8852255 -0.31875 -2.8214364
v 1.8852255 -0.4 -2.8214364
v 1.7445134 -0.4 -2.9105442
v 1.7445134 -0.19999999 -2.9105442
v 1.5995969 -0.28125 -2.9926343
v 1.5995969 -0.19999999 -2.9926343
v 1.7445134 -0.28125 -2.9105442
v 1.5995969 -0.31875 -2.9926343
v 1.7445134 -0.31875 -2.9105442
v 1.7445134 -0.4 -2.9105442
v 1.5995969 -0.4 -2.9926343
v 1.5995969 -0.19999999 -2.9926343
v 1.4508289 -0.28125 -3.067518
v 1.4508289 -0.19999999 -3.067518
v 1.5995969 -0.28125 -2.9926343
v 1.4508289 -0.31875 -3.067518
v 1.5995969 -0.31875 -2.9926343
v 1.5995969 -0.4 -2.9926343
v 1.4508289 -0.4 -3.067518
v 1.4508289 -0.19999999 -3.067518
v 1.2985649 -0.28125 -3.1350124
v 1.2985649 -0.19999999 -3.1350124
v 1.4508289 -0.28125 -3.067518
v 1.2985649 -0.31875 -3.1350124
v 1.4508289 -0.31875 -3.067518
v 1.4508289 -0.4 -3.067518
v 1.2985649 -0.4 -3.1350124
v 1.2985649 -0.19999999 -3.1350124
v 1.1431744 -0.28125 -3.1949544
v 1.1431744 -0.19999999 -3.1949544
v 1.2985649 -0.28125 -3.1350124
v 1.1431744 -0.31875 -3.1949544
v 1.2985649 -0.31875 -3.1350124
v 1.2985649 -0.4 -3.1350124
v 1.1431744 -0.4 -3.1949544
v 1.1431744 -0.19999999 -3.1949544
v 0.98502713 -0.28125 -3.2471979
v 0.98502713 -0.19999999 -3.2471979
v 1.1431744 -0.28125 -3.1949544
v 0.98502713 -0.31875 -3.2471979
v 1.1431744 -0.31875 -3.1949544
v 1.1431744 -0.4 -3.1949544
v 0.98502713 -0.4 -3.2471979
v 0.98502713 -0.19999999 -3.2471979
v 0.8245085 -0.28125 -3.29162
v 0.8245085 -0.19999999 -3.29162
v 0.98502713 -0.28125 -3.2471979
v 0.8245085 -0.31875 -3.29162
v 0.98502713 -0.31875 -3.2471979
v 0.98502713 -0.4 -3.2471979
v 0.8245085 -0.4 -3.29162
v 0.8245085 -0.19999999 -3.29162
v 0.66200286 -0.28125 -3.3281136
v 0.66200286 -0.19999999 -3.3281136
v 0.8245085 -0.28125 -3.29162
v 0.66200286 -0.31875 -3.3281136
v 0.8245085 -0.31875 -3.29162
v 0.8245085 -0.4 -3.29162
v 0.66200286 -0.4 -3.3281136
v 0.66200286 -0.19999999 -3.3281136
v 0.49790332 -0.28125 -3.3565884
v 0.49790332 -0.19999999 -3.3565884
v 0.66200286 -0.28125 -3.3281136
v 0.49790332 -0.31875 -3.3565884
v 0.66200286 -0.31875 -3.3281136
v 0.66200286 -0.4 -3.3281136
v 0.49790332 -0.4 -3.3565884
v 0.49790332 -0.19999999 -3.3565884
v 0.3326033 -0.28125 -3.3769767
v 0.3326033 -0.19999999 -3.3769767
v 0.49790332 -0.28125 -3.3565884
v 0.3326033 -0.31875 -3.3769767
v 0.49790332 -0.31875 -3.3565884
v 0.49790332 -0.4 -3.3565884
v 0.3326033 -0.4 -3.3769767
v 0.3326033 -0.19999999 -3.3769767
v 0.16650246 -0.28125 -3.3892288
v 0.16650246 -0.19999999 -3.3892288
v 0.3326033 -0.28125 -3.3769767
v 0.16650246 -0.31875 -3.3892288
v 0.3326033 -0.31875 -3.3769767
v 0.3326033 -0.4 -3.3769767
v 0.16650246 -0.4 -3.3892288
v 0.16650246 -0.19999999 -3.3892288
v 3.0155806E-07 -0.28125 -3.393315
v 3.0155806E-07 -0.19999999 -3.393315
v 0.16650246 -0.28125 -3.3892288
v 3.0155806E-07 -0.31875 -3.393315
v 0.16650246 -0.31875 -3.3892288
v 0.16650246 -0.4 -3.3892288
v 3.0155806E-07 -0.4 -3.393315
v 3.0155806E-07 -0.28125 -3.393315
v -0.1665018 -0.19999999 -3.3892274
v 3.0155806E-07 -0.19999999 -3.393315
v -0.1665018 -0.28125 -3.3892274
v 3.0155806E-07 -0.31875 -3.393315
v -0.1665018 -0.31875 -3.3892274
v 3.0155806E-07 -0.4 -3.393315
v -0.1665018 -0.4 -3.3892274
v -0.1665018 -0.19999999 -3.3892274
v -0.3326026 -0.28125 -3.3769753
v -0.3326026 -0.19999999 -3.3769753
v -0.1665018 -0.28125 -3.3892274
v -0.3326026 -0.31875 -3.3769753
v -0.1665018 -0.31875 -3.3892274
v -0.1665018 -0.4 -3.3892274
v -0.3326026 -0.4 -3.3769753
v -0.3326026 -0.19999999 -3.3769753
v -0.4979027 -0.28125 -3.3565872
v -0.4979027 -0.19999999 -3.3565872
v -0.3326026 -0.28125 -3.3769753
v -0.4979027 -0.31875 -3.3565872
v -0.3326026 -0.31875 -3.3769753
v -0.3326026 -0.4 -3.3769753
v -0.4979027 -0.4 -3.3565872
v -0.4979027 -0.19999999 -3.3565872
v -0.6620022 -0.28125 -3.3281136
v -0.6620022 -0.19999999 -3.3281136
v -0.4979027 -0.28125 -3.3565872
v -0.6620022 -0.31875 -3.3281136
v -0.4979027 -0.31875 -3.3565872
v -0.4979027 -0.4 -3.3565872
v -0.6620022 -0.4 -3.3281136
v -0.6620022 -0.19999999 -3.3281136
v -0.82450753 -0.28125 -3.291619
v -0.82450753 -0.19999999 -3.291619
v -0.6620022 -0.28125 -3.3281136
v -0.82450753 -0.31875 -3.291619
v -0.6620022 -0.31875 -3.3281136
v -0.6620022 -0.4 -3.3281136
v -0.82450753 -0.4 -3.291619
v -0.82450753 -0.19999999 -3.291619
v -0.9850265 -0.28125 -3.2471979
v -0.9850265 -0.19999999 -3.2471979
v -0.82450753 -0.28125 -3.291619
v -0.9850265 -0.31875 -3.2471979
v -0.82450753 -0.31875 -3.291619
v -0.82450753 -0.4 -3.291619
v -0.9850265 -0.4 -3.2471979
v -0.9850265 -0.19999999 -3.2471979
v -1.1431735 -0.28125 -3.1949537
v -1.1431735 -0.19999999 -3.1949537
v -0.9850265 -0.28125 -3.2471979
v -1.1431735 -0.31875 -3.1949537
v -0.9850265 -0.31875 -3.2471979
v -0.9850265 -0.4 -3.2471979
v -1.1431735 -0.4 -3.1949537
v -1.1431735 -0.19999999 -3.1949537
v -1.2985638 -0.28125 -3.1350121
v -1.2985638 -0.19999999 -3.1350121
v -1.1431735 -0.28125 -3.1949537
v -1.2985638 -0.31875 -3.1350121
v -1.1431735 -0.31875 -3.1949537
v -1.1431735 -0.4 -3.1949537
v -1.2985638 -0.4 -3.1350121
v -1.2985638 -0.19999999 -3.1350121
v -1.4508278 -0.28125 -3.067518
v -1.4508278 -0.19999999 -3.067518
v -1.2985638 -0.28125 -3.1350121
v -1.4508278 -0.31875 -3.067518
v -1.2985638 -0.31875 -3.1350121
v -1.2985638 -0.4 -3.1350121
v -1.4508278 -0.4 -3.067518
v -1.4508278 -0.19999999 -3.067518
v -1.5995959 -0.28125 -2.9926343
v -1.5995959 -0.19999999 -2.9926343
v -1.4508278 -0.28125 -3.067518
v -1.5995959 -0.31875 -2.9926343
v -1.4508278 -0.31875 -3.067518
v -1.4508278 -0.4 -3.067518
v -1.5995959 -0.4 -2.9926343
v -1.5995959 -0.19999999 -2.9926343
v -1.7445126 -0.28125 -2.9105442
v -1.7445126 -0.19999999 -2.9105442
v -1.5995959 -0.28125 -2.9926343
v -1.7445126 -0.31875 -2.9105442
v -1.5995959 -0.31875 -2.9926343
v -1.5995959 -0.4 -2.9926343
v -1.7445126 -0.4 -2.9105442
v -1.7445126 -0.19999999 -2.9105442
v -1.8852249 -0.28125 -2.8214364
v -1.8852249 -0.19999999 -2.8214364
v -1.7445126 -0.28125 -2.9105442
v -1.8852249 -0.31875 -2.8214364
v -1.7445126 -0.31875 -2.9105442
v -1.7445126 -0.4 -2.9105442
v -1.8852249 -0.4 -2.8214364
v -1.8852249 -0.19999999 -2.8214364
v -2.0213954 -0.28125 -2.7255342
v -2.0213954 -0.19999999 -2.7255342
v -1.8852249 -0.28125 -2.8214364
v -2.0213954 -0.31875 -2.7255342
v -1.8852249 -0.31875 -2.8214364
v -1.8852249 -0.4 -2.8214364
v -2.0213954 -0.4 -2.7255342
v -2.0213954 -0.19999999 -2.7255342
v -2.152694 -0.28125 -2.6230676
v -2.152694 -0.19999999 -2.6230676
v -2.0213954 -0.28125 -2.7255342
v -2.152694 -0.31875 -2.6230676
v -2.0213954 -0.31875 -2.7255342
v -2.0213954 -0.4 -2.7255342
v -2.152694 -0.4 -2.6230676
v -2.152694 -0.19999999 -2.6230676
v -2.2788093 -0.28125 -2.5142791
v -2.2788093 -0.19999999 -2.5142791
v -2.152694 -0.28125 -2.6230676
v -2.2788093 -0.31875 -2.5142791
v -2.152694 -0.31875 -2.6230676
v -2.152694 -0.4 -2.6230676
v -2.2788093 -0.4 -2.5142791
v -2.2788093 -0.19999999 -2.5142791
v -2.3994367 -0.28125 -2.3994372
v -2.3994367 -0.19999999 -2.3994372
v -2.2788093 -0.28125 -2.5142791
v -2.3994367 -0.31875 -2.3994372
v -2.2788093 -0.31875 -2.5142791
v -2.2788093 -0.4 -2.5142791
v -2.3994367 -0.4 -2.3994372
v -2.3994367 -0.19999999 -2.3994372
v -2.514279 -0.28125 -2.2788103
v -2.514279 -0.19999999 -2.2788103
v -2.3994367 -0.28125 -2.3994372
v -2.514279 -0.31875 -2.2788103
v -2.3994367 -0.31875 -2.3994372
v -2.3994367 -0.4 -2.3994372
v -2.514279 -0.4 -2.2788103
v -2.514279 -0.19999999 -2.2788103
v -2.6230676 -0.28125 -2.1526947
v -2.6230676 -0.19999999 -2.1526947
v -2.514279 -0.28125 -2.2788103
v -2.6230676 -0.31875 -2.1526947
v -2.514279 -0.31875 -2.2788103
v -2.514279 -0.4 -2.2788103
v -2.6230676 -0.4 -2.1526947
v -2.6230676 -0.19999999 -2.1526947
v -2.7255342 -0.28125 -2.0213962
v -2.7255342 -0.19999999 -2.0213962
v -2.6230676 -0.28125 -2.1526947
v -2.7255342 -0.31875 -2.0213962
v -2.6230676 -0.31875 -2.1526947
v -2.6230676 -0.4 -2.1526947
v -2.7255342 -0.4 -2.0213962
v -2.7255342 -0.19999999 -2.0213962
v -2.8214364 -0.28125 -1.8852255
v -2.8214364 -0.19999999 -1.8852255
v -2.7255342 -0.28125 -2.0213962
v -2.8214364 -0.31875 -1.8852255
v -2.7255342 -0.31875 -2.0213962
v -2.7255342 -0.4 -2.0213962
v -2.8214364 -0.4 -1.8852255
v -2.8214364 -0.19999999 -1.8852255
v -2.9105442 -0.28125 -1.7445134
v -2.9105442 -0.19999999 -1.7445134
v -2.8214364 -0.28125 -1.8852255
v -2.9105442 -0.31875 -1.7445134
v -2.8214364 -0.31875 -1.8852255
v -2.8214364 -0.4 -1.8852255
v -2.9105442 -0.4 -1.7445134
v -2.9105442 -0.19999999 -1.7445134
v -2.9926343 -0.28125 -1.5995969
v -2.9926343 -0.19999999 -1.5995969
v -2.9105442 -0.28125 -1.7445134
v -2.9926343 -0.31875 -1.5995969
v -2.9105442 -0.31875 -1.7445134
v -2.9105442 -0.4 -1.7445134
v -2.9926343 -0.4 -1.5995969
v -2.9926343 -0.19999999 -1.5995969
v -3.067518 -0.28125 -1.4508289
v -3.067518 -0.19999999 -1.4508289
v -2.9926343 -0.28125 -1.5995969
v -3.067518 -0.31875 -1.4508289
v -2.9926343 -0.31875 -1.5995969
v -2.9926343 -0.4 -1.5995969
v -3.067518 -0.4 -1.4508289
v -3.067518 -0.19999999 -1.4508289
v -3.1350124 -0.28125 -1.2985649
v -3.1350124 -0.19999999 -1.2985649
v -3.067518 -0.28125 -1.4508289
v -3.1350124 -0.31875 -1.2985649
v -3.067518 -0.31875 -1.4508289
v -3.067518 -0.4 -1.4508289
v -3.1350124 -0.4 -1.2985649
v -3.1350124 -0.19999999 -1.2985649
v -3.1949544 -0.28125 -1.1431744
v -3.1949544 -0.19999999 -1.1431744
v -3.1350124 -0.28125 -1.2985649
v -3.1949544 -0.31875 -1.1431744
v -3.1350124 -0.31875 -1.2985649
v -3.1350124 -0.4 -1.2985649
v -3.1949544 -0.4 -1.1431744
v -3.1949544 -0.19999999 -1.1431744
v -3.2471979 -0.28125 -0.98502713
v -3.2471979 -0.19999999 -0.98502713
v -3.1949544 -0.28125 -1.1431744
v -3.2471979 -0.31875 -0.98502713
v -3.1949544 -0.31875 -1.1431744
v -3.1949544 -0.4 -1.1431744
v -3.2471979 -0.4 -0.98502713
v -3.2471979 -0.19999999 -0.98502713
v -3.29162 -0.28125 -0.8245085
v -3.29162 -0.19999999 -0.8245085
v -3.2471979 -0.28125 -0.98502713
v -3.29162 -0.31875 -0.8245085
v -3.2471979 -0.31875 -0.98502713
v -3.2471979 -0.4 -0.98502713
v -3.29162 -0.4 -0.8245085
v -3.29162 -0.19999999 -0.8245085
v -3.3281136 -0.28125 -0.66200286
v -3.3281136 -0.19999999 -0.66200286
v -3.29162 -0.28125 -0.8245085
v -3.3281136 -0.31875 -0.66200286
v -3.29162 -0.31875 -0.8245085
v -3.29162 -0.4 -0.8245085
v -3.3281136 -0.4 -0.66200286
v -3.3281136 -0.19999999 -0.66200286
v -3.3565884 -0.28125 -0.49790332
v -3.3565884 -0.19999999 -0.49790332
v -3.3281136 -0.28125 -0.66200286
v -3.3565884 -0.31875 -0.49790332
v -3.3281136 -0.31875 -0.66200286
v -3.3281136 -0.4 -0.66200286
v -3.3565884 -0.4 -0.49790332
v -3.3565884 -0.19999999 -0.49790332
v -3.3769767 -0.28125 -0.3326033
v -3.3769767 -0.19999999 -0.3326033
v -3.3565884 -0.28125 -0.49790332
v -3.3769767 -0.31875 -0.3326033
v -3.3565884 -0.31875 -0.49790332
v -3.3565884 -0.4 -0.49790332
v -3.3769767 -0.4 -0.3326033
v -3.3769767 -0.19999999 -0.3326033
v -3.3892288 -0.28125 -0.16650246
v -3.3892288 -0.19999999 -0.16650246
v -3.3769767 -0.28125 -0.3326033
v -3.3892288 -0.31875 -0.16650246
v -3.3769767 -0.31875 -0.3326033
v -3.3769767 -0.4 -0.3326033
v -3.3892288 -0.4 -0.16650246
v -3.3892288 -0.19999999 -0.16650246
v -3.393315 -0.28125 -3.0155806E-07
v -3.393315 -0.19999999 -3.0155806E-07
v -3.3892288 -0.28125 -0.16650246
v -3.393315 -0.31875 -3.0155806E-07
v -3.3892288 -0.31875 -0.16650246
v -3.3892288 -0.4 -0.16650246
v -3.393315 -0.4 -3.0155806E-07
v -3.393315 -0.28125 -3.0155806E-07
v -3.3892274 -0.19999999 0.1665018
v -3.393315 -0.19999999 -3.0155806E-07
v -3.3892274 -0.28125 0.1665018
v -3.393315 -0.31875 -3.0155806E-07
v -3.3892274 -0.31875 0.1665018
v -3.393315 -0.4 -3.0155806E-07
v -3.3892274 -0.4 0.1665018
v -3.3892274 -0.19999999 0.1665018
v -3.3769753 -0.28125 0.3326026
v -3.3769753 -0.19999999 0.3326026
v -3.3892274 -0.28125 0.1665018
v -3.3769753 -0.31875 0.3326026
v -3.3892274 -0.31875 0.1665018
v -3.3892274 -0.4 0.1665018
v -3.3769753 -0.4 0.3326026
v -3.3769753 -0.19999999 0.3326026
v -3.3565872 -0.28125 0.4979027
v -3.3565872 -0.19999999 0.4979027
v -3.3769753 -0.28125 0.3326026
v -3.3565872 -0.31875 0.4979027
v -3.3769753 -0.31875 0.3326026
v -3.3769753 -0.4 0.3326026
v -3.3565872 -0.4 0.4979027
v -3.3565872 -0.19999999 0.4979027
v -3.3281136 -0.28125 0.6620022
v -3.3281136 -0.19999999 0.6620022
v -3.3565872 -0.28125 0.4979027
v -3.3281136 -0.31875 0.6620022
v -3.3565872 -0.31875 0.4979027
v -3.3565872 -0.4 0.4979027
v -3.3281136 -0.4 0.6620022
v -3.3281136 -0.19999999 0.6620022
v -3.291619 -0.28125 0.82450753
v -3.291619 -0.19999999 0.82450753
v -3.3281136 -0.28125 0.6620022
v -3.291619 -0.31875 0.82450753
v -3.3281136 -0.31875 0.6620022
v -3.3281136 -0.4 0.6620022
v -3.291619 -0.4 0.82450753
v -3.291619 -0.19999999 0.82450753
v -3.2471979 -0.28125 0.9850265
v -3.2471979 -0.19999999 0.9850265
v -3.291619 -0.28125 0.82450753
v -3.2471979 -0.31875 0.9850265
v -3.291619 -0.31875 0.82450753
v -3.291619 -0.4 0.82450753
v -3.2471979 -0.4 0.9850265
v -3.2471979 -0.19999999 0.9850265
v -3.1949537 -0.28125 1.1431735
v -3.1949537 -0.19999999 1.1431735
v -3.2471979 -0.28125 0.9850265
v -3.1949537 -0.31875 1.1431735
v -3.2471979 -0.31875 0.9850265
v -3.2471979 -0.4 0.9850265
v -3.1949537 -0.4 1.1431735
v -3.1949537 -0.19999999 1.1431735
v -3.1350121 -0.28125 1.2985638
v -3.1350121 -0.19999999 1.2985638
v -3.1949537 -0.28125 1.1431735
v -3.1350121 -0.31875 1.2985638
v -3.1949537 -0.31875 1.1431735
v -3.1949537 -0.4 1.1431735
v -3.1350121 -0.4 1.2985638
v -3.1350121 -0.19999999 1.2985638
v -3.067518 -0.28125 1.4508278
v -3.067518 -0.19999999 1.4508278
v -3.1350121 -0.28125 1.2985638
v -3.067518 -0.31875 1.4508278
v -3.1350121 -0.31875 1.2985638
v -3.1350121 -0.4 1.2985638
v -3.067518 -0.4 1.4508278
v -3.067518 -0.19999999 1.4508278
v -2.9926343 -0.28125 1.5995959
v -2.9926343 -0.19999999 1.5995959
v -3.067518 -0.28125 1.4508278
v -2.9926343 -0.31875 1.5995959
v -3.067518 -0.31875 1.4508278
v -3.067518 -0.4 1.4508278
v -2.9926343 -0.4 1.5995959
v -2.9926343 -0.19999999 1.5995959
v -2.9105442 -0.28125 1.7445126
v -2.9105442 -0.19999999 1.7445126
v -2.9926343 -0.28125 1.5995959
v -2.9105442 -0.31875 1.7445126
v -2.9926343 -0.31875 1.5995959
v -2.9926343 -0.4 1.5995959
v -2.9105442 -0.4 1.7445126
v -2.9105442 -0.19999999 1.7445126
v -2.8214364 -0.28125 1.8852249
v -2.8214364 -0.19999999 1.8852249
v -2.9105442 -0.28125 1.7445126
v -2.8214364 -0.31875 1.8852249
v -2.9105442 -0.31875 1.7445126
v -2.9105442 -0.4 1.7445126
v -2.8214364 -0.4 1.8852249
v -2.8214364 -0.19999999 1.8852249
v -2.7255342 -0.28125 2.0213954
v -2.7255342 -0.19999999 2.0213954
v -2.8214364 -0.28125 1.8852249
v -2.7255342 -0.31875 2.0213954
v -2.8214364 -0.31875 1.8852249
v -2.8214364 -0.4 1.8852249
v -2.7255342 -0.4 2.0213954
v -2.7255342 -0.19999999 2.0213954
v -2.6230676 -0.28125 2.152694
v -2.6230676 -0.19999999 2.152694
v -2.7255342 -0.28125 2.0213954
v -2.6230676 -0.31875 2.152694
v -2.7255342 -0.31875 2.0213954
v -2.7255342 -0.4 2.0213954
v -2.6230676 -0.4 2.152694
v -2.6230676 -0.19999999 2.152694
v -2.5142791 -0.28125 2.2788093
v -2.5142791 -0.19999999 2.2788093
v -2.6230676 -0.28125 2.152694
v -2.5142791 -0.31875 2.2788093
v -2.6230676 -0.31875 2.152694
v -2.6230676 -0.4 2.152694
v -2.5142791 -0.4 2.2788093
v -2.5142791 -0.19999999 2.2788093
v -2.3994372 -0.28125 2.3994367
v -2.3994372 -0.19999999 2.3994367
v -2.5142791 -0.28125 2.2788093
v -2.3994372 -0.31875 2.3994367
v -2.5142791 -0.31875 2.2788093
v -2.5142791 -0.4 2.2788093
v -2.3994372 -0.4 2.3994367
v -2.3994372 -0.19999999 2.3994367
v -2.2788103 -0.28125 2.514279
v -2.2788103 -0.19999999 2.514279
v -2.3994372 -0.28125 2.3994367
v -2.2788103 -0.31875 2.514279
v -2.3994372 -0.31875 2.3994367
v -2.3994372 -0.4 2.3994367
v -2.2788103 -0.4 2.514279
v -2.2788103 -0.19999999 2.514279
v -2.1526947 -0.28125 2.6230676
v -2.1526947 -0.19999999 2.6230676
v -2.2788103 -0.28125 2.514279
v -2.1526947 -0.31875 2.6230676
v -2.2788103 -0.31875 2.514279
v -2.2788103 -0.4 2.514279
v -2.1526947 -0.4 2.6230676
v -2.1526947 -0.19999999 2.6230676
v -2.0213962 -0.28125 2.7255342
v -2.0213962 -0.19999999 2.7255342
v -2.1526947 -0.28125 2.6230676
v -2.0213962 -0.31875 2.7255342
v -2.1526947 -0.31875 2.6230676
v -2.1526947 -0.4 2.6230676
v -2.0213962 -0.4 2.7255342
v -2.0213962 -0.19999999 2.7255342
v -1.8852255 -0.28125 2.8214364
v -1.8852255 -0.19999999 2.8214364
v -2.0213962 -0.28125 2.7255342
v -1.8852255 -0.31875 2.8214364
v -2.0213962 -0.31875 2.7255342
v -2.0213962 -0.4 2.7255342
v -1.8852255 -0.4 2.8214364
v -1.8852255 -0.19999999 2.8214364
v -1.7445134 -0.28125 2.9105442
v -1.7445134 -0.19999999 2.9105442
v -1.8852255 -0.28125 2.8214364
v -1.7445134 -0.31875 2.9105442
v -1.8852255 -0.31875 2.8214364
v -1.8852255 -0.4 2.8214364
v -1.7445134 -0.4 2.9105442
v -1.7445134 -0.19999999 2.9105442
v -1.5995969 -0.28125 2.9926343
v -1.5995969 -0.19999999 2.9926343
v -1.7445134 -0.28125 2.9105442
v -1.5995969 -0.31875 2.9926343
v -1.7445134 -0.31875 2.9105442
v -1.7445134 -0.4 2.9105442
v -1.5995969 -0.4 2.9926343
v -1.5995969 -0.19999999 2.9926343
v -1.4508289 -0.28125 3.067518
v -1.4508289 -0.19999999 3.067518
v -1.5995969 -0.28125 2.9926343
v -1.4508289 -0.31875 3.067518
v -1.5995969 -0.31875 2.9926343
v -1.5995969 -0.4 2.9926343
v -1.4508289 -0.4 3.067518
v -1.4508289 -0.19999999 3.067518
v -1.2985649 -0.28125 3.1350124
v -1.2985649 -0.19999999 3.1350124
v -1.4508289 -0.28125 3.067518
v -1.2985649 -0.31875 3.1350124
v -1.4508289 -0.31875 3.067518
v -1.4508289 -0.4 3.067518
v -1.2985649 -0.4 3.1350124
v -1.2985649 -0.19999999 3.1350124
v -1.1431744 -0.28125 3.1949544
v -1.1431744 -0.19999999 3.1949544
v -1.2985649 -0.28125 3.1350124
v -1.1431744 -0.31875 3.1949544
v -1.2985649 -0.31875 3.1350124
v -1.2985649 -0.4 3.1350124
v -1.1431744 -0.4 3.1949544
v -1.1431744 -0.19999999 3.1949544
v -0.98502713 -0.28125 3.2471979
v -0.98502713 -0.19999999 3.2471979
v -1.1431744 -0.28125 3.1949544
v -0.98502713 -0.31875 3.2471979
v -1.1431744 -0.31875 3.1949544
v -1.1431744 -0.4 3.1949544
v -0.98502713 -0.4 3.2471979
v -0.98502713 -0.19999999 3.2471979
v -0.8245085 -0.28125 3.29162
v -0.8245085 -0.19999999 3.29162
v -0.98502713 -0.28125 3.2471979
v -0.8245085 -0.31875 3.29162
v -0.98502713 -0.31875 3.2471979
v -0.98502713 -0.4 3.2471979
v -0.8245085 -0.4 3.29162
v -0.8245085 -0.19999999 3.29162
v -0.66200286 -0.28125 3.3281136
v -0.66200286 -0.19999999 3.3281136
v -0.8245085 -0.28125 3.29162
v -0.66200286 -0.31875 3.3281136
v -0.8245085 -0.31875 3.29162
v -0.8245085 -0.4 3.29162
v -0.66200286 -0.4 3.3281136
v -0.66200286 -0.19999999 3.3281136
v -0.49790332 -0.28125 3.3565884
v -0.49790332 -0.19999999 3.3565884
v -0.66200286 -0.28125 3.3281136
v -0.49790332 -0.31875 3.3565884
v -0.66200286 -0.31875 3.3281136
v -0.66200286 -0.4 3.3281136
v -0.49790332 -0.4 3.3565884
v -0.49790332 -0.19999999 3.3565884
v -0.3326033 -0.28125 3.3769767
v -0.3326033 -0.19999999 3.3769767
v -0.49790332 -0.28125 3.3565884
v -0.3326033 -0.31875 3.3769767
v -0.49790332 -0.31875 3.3565884
v -0.49790332 -0.4 3.3565884
v -0.3326033 -0.4 3.3769767
v -0.3326033 -0.19999999 3.3769767
v -0.16650246 -0.28125 3.3892288
v -0.16650246 -0.19999999 3.3892288
v -0.3326033 -0.28125 3.3769767
v -0.16650246 -0.31875 3.3892288
v -0.3326033 -0.31875 3.3769767
v -0.3326033 -0.4 3.3769767
v -0.16650246 -0.4 3.3892288
v -0.16650246 -0.19999999 3.3892288
v -3.0155806E-07 -0.28125 3.393315
v -3.0155806E-07 -0.19999999 3.393315
v -0.16650246 -0.28125 3.3892288
v -3.0155806E-07 -0.31875 3.393315
v -0.16650246 -0.31875 3.3892288
v -0.16650246 -0.4 3.3892288
v -3.0155806E-07 -0.4 3.393315
vt 0 0.59375
vt -0.015625 0.984375
vt 0 0.984375
vt -0.015625 0.59375
vt 0 0.40625
vt -0.015625 0.40625
vt 0 0.015625
vt -0.015625 0.015625
vt -0.015625 0.984375
vt -0.03125 0.59375
vt -0.03125 0.984375
vt -0.015625 0.59375
vt -0.03125 0.40625
vt -0.015625 0.40625
vt -0.015625 0.015625
vt -0.03125 0.015625
vt -0.03125 0.984375
vt -0.046875 0.59375
vt -0.046875 0.984375
vt -0.03125 0.59375
vt -0.046875 0.40625
vt -0.03125 0.40625
vt -0.03125 0.015625
vt -0.046875 0.015625
vt -0.046875 0.984375
vt -0.0625 0.59375
vt -0.0625 0.984375
vt -0.046875 0.59375
vt -0.0625 0.40625
vt -0.046875 0.40625
vt -0.046875 0.015625
vt -0.0625 0.015625
vt -0.0625 0.984375
vt -0.078125 0.59375
vt -0.078125 0.984375
vt -0.0625 0.59375
vt -0.078125 0.40625
vt -0.0625 0.40625
vt -0.0625 0.015625
vt -0.078125 0.015625
vt -0.078125 0.984375
vt -0.09375 0.59375
vt -0.09375 0.984375
vt -0.078125 0.59375
vt -0.09375 0.40625
vt -0.078125 0.40625
vt -0.078125 0.015625
vt -0.09375 0.015625
vt -0.09375 0.984375
vt -0.109375 0.59375
vt -0.109375 0.984375
vt -0.09375 0.59375
vt -0.109375 0.40625
vt -0.09375 0.40625
vt -0.09375 0.015625
vt -0.109375 0.015625
vt -0.109375 0.984375
vt -0.125 0.59375
vt -0.125 0.984375
vt -0.109375 0.59375
vt -0.125 0.40625
vt -0.109375 0.40625
vt -0.109375 0.015625
vt -0.125 0.015625
vt -0.125 0.984375
vt -0.140625 0.59375
vt -0.140625 0.984375
vt -0.125 0.59375
vt -0.140625 0.40625
vt -0.125 0.40625
vt -0.125 0.015625
vt -0.140625 0.015625
vt -0.140625 0.984375
vt -0.15625 0.59375
vt -0.15625 0.984375
vt -0.140625 0.59375
vt -0.15625 0.40625
vt -0.140625 0.40625
vt -0.140625 0.015625
vt -0.15625 0.015625
vt -0.15625 0.984375
vt -0.171875 0.59375
vt -0.171875 0.984375
vt -0.15625 0.59375
vt -0.171875 0.40625
vt -0.15625 0.40625
vt -0.15625 0.015625
vt -0.171875 0.015625
vt -0.171875 0.984375
vt -0.1875 0.59375
vt -0.1875 0.984375
vt -0.171875 0.59375
vt -0.1875 0.40625
vt -0.171875 0.40625
vt -0.171875 0.015625
vt -0.1875 0.015625
vt -0.1875 0.984375
vt -0.203125 0.59375
vt -0.203125 0.984375
vt -0.1875 0.59375
vt -0.203125 0.40625
vt -0.1875 0.40625
vt -0.1875 0.015625
vt -0.203125 0.015625
vt -0.203125 0.984375
vt -0.21875 0.59375
vt -0.21875 0.984375
vt -0.203125 0.59375
vt -0.21875 0.40625
vt -0.203125 0.40625
vt -0.203125 0.015625
vt -0.21875 0.015625
vt -0.21875 0.984375
vt -0.234375 0.59375
vt -0.234375 0.984375
vt -0.21875 0.59375
vt -0.234375 0.40625
vt -0.21875 0.40625
vt -0.21875 0.015625
vt -0.234375 0.015625
vt -0.234375 0.984375
vt -0.25 0.59375
vt -0.25 0.984375
vt -0.234375 0.59375
vt -0.25 0.40625
vt -0.234375 0.40625
vt -0.234375 0.015625
vt -0.25 0.015625
vt -0.25 0.984375
vt -0.265625 0.59375
vt -0.265625 0.984375
vt -0.25 0.59375
vt -0.265625 0.40625
vt -0.25 0.40625
vt -0.25 0.015625
vt -0.265625 0.015625
vt -0.265625 0.984375
vt -0.28125 0.59375
vt -0.28125 0.984375
vt -0.265625 0.59375
vt -0.28125 0.40625
vt -0.265625 0.40625
vt -0.265625 0.015625
vt -0.28125 0.015625
vt -0.28125 0.984375
vt -0.296875 0.59375
vt -0.296875 0.984375
vt -0.28125 0.59375
vt -0.296875 0.40625
vt -0.28125 0.40625
vt -0.28125 0.015625
vt -0.296875 0.015625
vt -0.296875 0.984375
vt -0.3125 0.59375
vt -0.3125 0.984375
vt -0.296875 0.59375
vt -0.3125 0.40625
vt -0.296875 0.40625
vt -0.296875 0.015625
vt -0.3125 0.015625
vt -0.3125 0.984375
vt -0.328125 0.59375
vt -0.328125 0.984375
vt -0.3125 0.59375
vt -0.328125 0.40625
vt -0.3125 0.40625
vt -0.3125 0.015625
vt -0.328125 0.015625
vt -0.328125 0.984375
vt -0.34375 0.59375
vt -0.34375 0.984375
vt -0.328125 0.59375
vt -0.34375 0.40625
vt -0.328125 0.40625
vt -0.328125 0.015625
vt -0.34375 0.015625
vt -0.34375 0.984375
vt -0.359375 0.59375
vt -0.359375 0.984375
vt -0.34375 0.59375
vt -0.359375 0.40625
vt -0.34375 0.40625
vt -0.34375 0.015625
vt -0.359375 0.015625
vt -0.359375 0.984375
vt -0.375 0.59375
vt -0.375 0.984375
vt -0.359375 0.59375
vt -0.375 0.40625
vt -0.359375 0.40625
vt -0.359375 0.015625
vt -0.375 0.015625
vt -0.375 0.984375
vt -0.390625 0.59375
vt -0.390625 0.984375
vt -0.375 0.59375
vt -0.390625 0.40625
vt -0.375 0.40625
vt -0.375 0.015625
vt -0.390625 0.015625
vt -0.390625 0.984375
vt -0.40625 0.59375
vt -0.40625 0.984375
vt -0.390625 0.59375
vt -0.40625 0.40625
vt -0.390625 0.40625
vt -0.390625 0.015625
vt -0.40625 0.015625
vt -0.40625 0.984375
vt -0.421875 0.59375
vt -0.421875 0.984375
vt -0.40625 0.59375
vt -0.421875 0.40625
vt -0.40625 0.40625
vt -0.40625 0.015625
vt -0.421875 0.015625
vt -0.421875 0.984375
vt -0.4375 0.59375
vt -0.4375 0.984375
vt -0.421875 0.59375
vt -0.4375 0.40625
vt -0.421875 0.40625
vt -0.421875 0.015625
vt -0.4375 0.015625
vt -0.4375 0.984375
vt -0.453125 0.59375
vt -0.453125 0.984375
vt -0.4375 0.59375
vt -0.453125 0.40625
vt -0.4375 0.40625
vt -0.4375 0.015625
vt -0.453125 0.015625
vt -0.453125 0.984375
vt -0.46875 0.59375
vt -0.46875 0.984375
vt -0.453125 0.59375
vt -0.46875 0.40625
vt -0.453125 0.40625
vt -0.453125 0.015625
vt -0.46875 0.015625
vt -0.46875 0.984375
vt -0.484375 0.59375
vt -0.484375 0.984375
vt -0.46875 0.59375
vt -0.484375 0.40625
vt -0.46875 0.40625
vt -0.46875 0.015625
vt -0.484375 0.015625
vt -0.484375 0.984375
vt -0.5 0.59375
vt -0.5 0.984375
vt -0.484375 0.59375
vt -0.5 0.40625
vt -0.484375 0.40625
vt -0.484375 0.015625
vt -0.5 0.015625
vt 1.5 0.59375
vt 1.484375 0.984375
vt 1.5 0.984375
vt 1.484375 0.59375
vt 1.5 0.40625
vt 1.484375 0.40625
vt 1.5 0.015625
vt 1.484375 0.015625
vt 1.484375 0.984375
vt 1.46875 0.59375
vt 1.46875 0.984375
vt 1.484375 0.59375
vt 1.46875 0.40625
vt 1.484375 0.40625
vt 1.484375 0.015625
vt 1.46875 0.015625
vt 1.46875 0.984375
vt 1.453125 0.59375
vt 1.453125 0.984375
vt 1.46875 0.59375
vt 1.453125 0.40625
vt 1.46875 0.40625
vt 1.46875 0.015625
vt 1.453125 0.015625
vt 1.453125 0.984375
vt 1.4375 0.59375
vt 1.4375 0.984375
vt 1.453125 0.59375
vt 1.4375 0.40625
vt 1.453125 0.40625
vt 1.453125 0.015625
vt 1.4375 0.015625
vt 1.4375 0.984375
vt 1.421875 0.59375
vt 1.421875 0.984375
vt 1.4375 0.59375
vt 1.421875 0.40625
vt 1.4375 0.40625
vt 1.4375 0.015625
vt 1.421875 0.015625
vt 1.421875 0.984375
vt 1.40625 0.59375
vt 1.40625 0.984375
vt 1.421875 0.59375
vt 1.40625 0.40625
vt 1.421875 0.40625
vt 1.421875 0.015625
vt 1.40625 0.015625
vt 1.40625 0.984375
vt 1.390625 0.59375
vt 1.390625 0.984375
vt 1.40625 0.59375
vt 1.390625 0.40625
vt 1.40625 0.40625
vt 1.40625 0.015625
vt 1.390625 0.015625
vt 1.390625 0.984375
vt 1.375 0.59375
vt 1.375 0.984375
vt 1.390625 0.59375
vt 1.375 0.40625
vt 1.390625 0.40625
vt 1.390625 0.015625
vt 1.375 0.015625
vt 1.375 0.984375
vt 1.359375 0.59375
vt 1.359375 0.984375
vt 1.375 0.59375
vt 1.359375 0.40625
vt 1.375 0.40625
vt 1.375 0.015625
vt 1.359375 0.015625
vt 1.359375 0.984375
vt 1.34375 0.59375
vt 1.34375 0.984375
vt 1.359375 0.59375
vt 1.34375 0.40625
vt 1.359375 0.40625
vt 1.359375 0.015625
vt 1.34375 0.015625
vt 1.34375 0.984375
vt 1.328125 0.59375
vt 1.328125 0.984375
vt 1.34375 0.59375
vt 1.328125 0.40625
vt 1.34375 0.40625
vt 1.34375 0.015625
vt 1.328125 0.015625
vt 1.328125 0.984375
vt 1.3125 0.59375
vt 1.3125 0.984375
vt 1.328125 0.59375
vt 1.3125 0.40625
vt 1.328125 0.40625
vt 1.328125 0.015625
vt 1.3125 0.015625
vt 1.3125 0.984375
vt 1.296875 0.59375
vt 1.296875 0.984375
vt 1.3125 0.59375
vt 1.296875 0.40625
vt 1.3125 0.40625
vt 1.3125 0.015625
vt 1.296875 0.015625
vt 1.296875 0.984375
vt 1.28125 0.59375
vt 1.28125 0.984375
vt 1.296875 0.59375
vt 1.28125 0.40625
vt 1.296875 0.40625
vt 1.296875 0.015625
vt 1.28125 0.015625
vt 1.28125 0.984375
vt 1.265625 0.59375
vt 1.265625 0.984375
vt 1.28125 0.59375
vt 1.265625 0.40625
vt 1.28125 0.40625
vt 1.28125 0.015625
vt 1.265625 0.015625
vt 1.265625 0.984375
vt 1.25 0.59375
vt 1.25 0.984375
vt 1.265625 0.59375
vt 1.25 0.40625
vt 1.265625 0.40625
vt 1.265625 0.015625
vt 1.25 0.015625
vt 1.25 0.984375
vt 1.234375 0.59375
vt 1.234375 0.984375
vt 1.25 0.59375
vt 1.234375 0.40625
vt 1.25 0.40625
vt 1.25 0.015625
vt 1.234375 0.015625
vt 1.234375 0.984375
vt 1.21875 0.59375
vt 1.21875 0.984375
vt 1.234375 0.59375
vt 1.21875 0.40625
vt 1.234375 0.40625
vt 1.234375 0.015625
vt 1.21875 0.015625
vt 1.21875 0.984375
vt 1.203125 0.59375
vt 1.203125 0.984375
vt 1.21875 0.59375
vt 1.203125 0.40625
vt 1.21875 0.40625
vt 1.21875 0.015625
vt 1.203125 0.015625
vt 1.203125 0.984375
vt 1.1875 0.59375
vt 1.1875 0.984375
vt 1.203125 0.59375
vt 1.1875 0.40625
vt 1.203125 0.40625
vt 1.203125 0.015625
vt 1.1875 0.015625
vt 1.1875 0.984375
vt 1.171875 0.59375
vt 1.171875 0.984375
vt 1.1875 0.59375
vt 1.171875 0.40625
vt 1.1875 0.40625
vt 1.1875 0.015625
vt 1.171875 0.015625
vt 1.171875 0.984375
vt 1.15625 0.59375
vt 1.15625 0.984375
vt 1.171875 0.59375
vt 1.15625 0.40625
vt 1.171875 0.40625
vt 1.171875 0.015625
vt 1.15625 0.015625
vt 1.15625 0.984375
vt 1.140625 0.59375
vt 1.140625 0.984375
vt 1.15625 0.59375
vt 1.140625 0.40625
vt 1.15625 0.40625
vt 1.15625 0.015625
vt 1.140625 0.015625
vt 1.140625 0.984375
vt 1.125 0.59375
vt 1.125 0.984375
vt 1.140625 0.59375
vt 1.125 0.40625
vt 1.140625 0.40625
vt 1.140625 0.015625
vt 1.125 0.015625
vt 1.125 0.984375
vt 1.109375 0.59375
vt 1.109375 0.984375
vt 1.125 0.59375
vt 1.109375 0.40625
vt 1.125 0.40625
vt 1.125 0.015625
vt 1.109375 0.015625
vt 1.109375 0.984375
vt 1.09375 0.59375
vt 1.09375 0.984375
vt 1.109375 0.59375
vt 1.09375 0.40625
vt 1.109375 0.40625
vt 1.109375 0.015625
vt 1.09375 0.015625
vt 1.09375 0.984375
vt 1.078125 0.59375
vt 1.078125 0.984375
vt 1.09375 0.59375
vt 1.078125 0.40625
vt 1.09375 0.40625
vt 1.09375 0.015625
vt 1.078125 0.015625
vt 1.078125 0.984375
vt 1.0625 0.59375
vt 1.0625 0.984375
vt 1.078125 0.59375
vt 1.0625 0.40625
vt 1.078125 0.40625
vt 1.078125 0.015625
vt 1.0625 0.015625
vt 1.0625 0.984375
vt 1.046875 0.59375
vt 1.046875 0.984375
vt 1.0625 0.59375
vt 1.046875 0.40625
vt 1.0625 0.40625
vt 1.0625 0.015625
vt 1.046875 0.015625
vt 1.046875 0.984375
vt 1.03125 0.59375
vt 1.03125 0.984375
vt 1.046875 0.59375
vt 1.03125 0.40625
vt 1.046875 0.40625
vt 1.046875 0.015625
vt 1.03125 0.015625
vt 1.03125 0.984375
vt 1.015625 0.59375
vt 1.015625 0.984375
vt 1.03125 0.59375
vt 1.015625 0.40625
vt 1.03125 0.40625
vt 1.03125 0.015625
vt 1.015625 0.015625
vt 1.015625 0.984375
vt 1 0.59375
vt 1 0.984375
vt 1.015625 0.59375
vt 1 0.40625
vt 1.015625 0.40625
vt 1.015625 0.015625
vt 1 0.015625
vt 1 0.59375
vt 0.984375 0.984375
vt 1 0.984375
vt 0.984375 0.59375
vt 1 0.40625
vt 0.984375 0.40625
vt 1 0.015625
vt 0.984375 0.015625
vt 0.984375 0.984375
vt 0.96875 0.59375
vt 0.96875 0.984375
vt 0.984375 0.59375
vt 0.96875 0.40625
vt 0.984375 0.40625
vt 0.984375 0.015625
vt 0.96875 0.015625
vt 0.96875 0.984375
vt 0.953125 0.59375
vt 0.953125 0.984375
vt 0.96875 0.59375
vt 0.953125 0.40625
vt 0.96875 0.40625
vt 0.96875 0.015625
vt 0.953125 0.015625
vt 0.953125 0.984375
vt 0.9375 0.59375
vt 0.9375 0.984375
vt 0.953125 0.59375
vt 0.9375 0.40625
vt 0.953125 0.40625
vt 0.953125 0.015625
vt 0.9375 0.015625
vt 0.9375 0.984375
vt 0.921875 0.59375
vt 0.921875 0.984375
vt 0.9375 0.59375
vt 0.921875 0.40625
vt 0.9375 0.40625
vt 0.9375 0.015625
vt 0.921875 0.015625
vt 0.921875 0.984375
vt 0.90625 0.59375
vt 0.90625 0.984375
vt 0.921875 0.59375
vt 0.90625 0.40625
vt 0.921875 0.40625
vt 0.921875 0.015625
vt 0.90625 0.015625
vt 0.90625 0.984375
vt 0.890625 0.59375
vt 0.890625 0.984375
vt 0.90625 0.59375
vt 0.890625 0.40625
vt 0.90625 0.40625
vt 0.90625 0.015625
vt 0.890625 0.015625
vt 0.890625 0.984375
vt 0.875 0.59375
vt 0.875 0.984375
vt 0.890625 0.59375
vt 0.875 0.40625
vt 0.890625 0.40625
vt 0.890625 0.015625
vt 0.875 0.015625
vt 0.875 0.984375
vt 0.859375 0.59375
vt 0.859375 0.984375
vt 0.875 0.59375
vt 0.859375 0.40625
vt 0.875 0.40625
vt 0.875 0.015625
vt 0.859375 0.015625
vt 0.859375 0.984375
vt 0.84375 0.59375
vt 0.84375 0.984375
vt 0.859375 0.59375
vt 0.84375 0.40625
vt 0.859375 0.40625
vt 0.859375 0.015625
vt 0.84375 0.015625
vt 0.84375 0.984375
vt 0.828125 0.59375
vt 0.828125 0.984375
vt 0.84375 0.59375
vt 0.828125 0.40625
vt 0.84375 0.40625
vt 0.84375 0.015625
vt 0.828125 0.015625
vt 0.828125 0.984375
vt 0.8125 0.59375
vt 0.8125 0.984375
vt 0.828125 0.59375
vt 0.8125 0.40625
vt 0.828125 0.40625
vt 0.828125 0.015625
vt 0.8125 0.015625
vt 0.8125 0.984375
vt 0.796875 0.59375
vt 0.796875 0.984375
vt 0.8125 0.59375
vt 0.796875 0.40625
vt 0.8125 0.40625
vt 0.8125 0.015625
vt 0.796875 0.015625
vt 0.796875 0.984375
vt 0.78125 0.59375
vt 0.78125 0.984375
vt 0.796875 0.59375
vt 0.78125 0.40625
vt 0.796875 0.40625
vt 0.796875 0.015625
vt 0.78125 0.015625
vt 0.78125 0.984375
vt 0.765625 0.59375
vt 0.765625 0.984375
vt 0.78125 0.59375
vt 0.765625 0.40625
vt 0.78125 0.40625
vt 0.78125 0.015625
vt 0.765625 0.015625
vt 0.765625 0.984375
vt 0.75 0.59375
vt 0.75 0.984375
vt 0.765625 0.59375
vt 0.75 0.40625
vt 0.765625 0.40625
vt 0.765625 0.015625
vt 0.75 0.015625
vt 0.75 0.984375
vt 0.734375 0.59375
vt 0.734375 0.984375
vt 0.75 0.59375
vt 0.734375 0.40625
vt 0.75 0.40625
vt 0.75 0.015625
vt 0.734375 0.015625
vt 0.734375 0.984375
vt 0.71875 0.59375
vt 0.71875 0.984375
vt 0.734375 0.59375
vt 0.71875 0.40625
vt 0.734375 0.40625
vt 0.734375 0.015625
vt 0.71875 0.015625
vt 0.71875 0.984375
vt 0.703125 0.59375
vt 0.703125 0.984375
vt 0.71875 0.59375
vt 0.703125 0.40625
vt 0.71875 0.40625
vt 0.71875 0.015625
vt 0.703125 0.015625
vt 0.703125 0.984375
vt 0.6875 0.59375
vt 0.6875 0.984375
vt 0.703125 0.59375
vt 0.6875 0.40625
vt 0.703125 0.40625
vt 0.703125 0.015625
vt 0.6875 0.015625
vt 0.6875 0.984375
vt 0.671875 0.59375
vt 0.671875 0.984375
vt 0.6875 0.59375
vt 0.671875 0.40625
vt 0.6875 0.40625
vt 0.6875 0.015625
vt 0.671875 0.015625
vt 0.671875 0.984375
vt 0.65625 0.59375
vt 0.65625 0.984375
vt 0.671875 0.59375
vt 0.65625 0.40625
vt 0.671875 0.40625
vt 0.671875 0.015625
vt 0.65625 0.015625
vt 0.65625 0.984375
vt 0.640625 0.59375
vt 0.640625 0.984375
vt 0.65625 0.59375
vt 0.640625 0.40625
vt 0.65625 0.40625
vt 0.65625 0.015625
vt 0.640625 0.015625
vt 0.640625 0.984375
vt 0.625 0.59375
vt 0.625 0.984375
vt 0.640625 0.59375
vt 0.625 0.40625
vt 0.640625 0.40625
vt 0.640625 0.015625
vt 0.625 0.015625
vt 0.625 0.984375
vt 0.609375 0.59375
vt 0.609375 0.984375
vt 0.625 0.59375
vt 0.609375 0.40625
vt 0.625 0.40625
vt 0.625 0.015625
vt 0.609375 0.015625
vt 0.609375 0.984375
vt 0.59375 0.59375
vt 0.59375 0.984375
vt 0.609375 0.59375
vt 0.59375 0.40625
vt 0.609375 0.40625
vt 0.609375 0.015625
vt 0.59375 0.015625
vt 0.59375 0.984375
vt 0.578125 0.59375
vt 0.578125 0.984375
vt 0.59375 0.59375
vt 0.578125 0.40625
vt 0.59375 0.40625
vt 0.59375 0.015625
vt 0.578125 0.015625
vt 0.578125 0.984375
vt 0.5625 0.59375
vt 0.5625 0.984375
vt 0.578125 0.59375
vt 0.5625 0.40625
vt 0.578125 0.40625
vt 0.578125 0.015625
vt 0.5625 0.015625
vt 0.5625 0.984375
vt 0.546875 0.59375
vt 0.546875 0.984375
vt 0.5625 0.59375
vt 0.546875 0.40625
vt 0.5625 0.40625
vt 0.5625 0.015625
vt 0.546875 0.015625
vt 0.546875 0.984375
vt 0.53125 0.59375
vt 0.53125 0.984375
vt 0.546875 0.59375
vt 0.53125 0.40625
vt 0.546875 0.40625
vt 0.546875 0.015625
vt 0.53125 0.015625
vt 0.53125 0.984375
vt 0.515625 0.59375
vt 0.515625 0.984375
vt 0.53125 0.59375
vt 0.515625 0.40625
vt 0.53125 0.40625
vt 0.53125 0.015625
vt 0.515625 0.015625
vt 0.515625 0.984375
vt 0.5 0.59375
vt 0.5 0.984375
vt 0.515625 0.59375
vt 0.5 0.40625
vt 0.515625 0.40625
vt 0.515625 0.015625
vt 0.5 0.015625
vt 0.5 0.59375
vt 0.484375 0.984375
vt 0.5 0.984375
vt 0.484375 0.59375
vt 0.5 0.40625
vt 0.484375 0.40625
vt 0.5 0.015625
vt 0.484375 0.015625
vt 0.484375 0.984375
vt 0.46875 0.59375
vt 0.46875 0.984375
vt 0.484375 0.59375
vt 0.46875 0.40625
vt 0.484375 0.40625
vt 0.484375 0.015625
vt 0.46875 0.015625
vt 0.46875 0.984375
vt 0.453125 0.59375
vt 0.453125 0.984375
vt 0.46875 0.59375
vt 0.453125 0.40625
vt 0.46875 0.40625
vt 0.46875 0.015625
vt 0.453125 0.015625
vt 0.453125 0.984375
vt 0.4375 0.59375
vt 0.4375 0.984375
vt 0.453125 0.59375
vt 0.4375 0.40625
vt 0.453125 0.40625
vt 0.453125 0.015625
vt 0.4375 0.015625
vt 0.4375 0.984375
vt 0.421875 0.59375
vt 0.421875 0.984375
vt 0.4375 0.59375
vt 0.421875 0.40625
vt 0.4375 0.40625
vt 0.4375 0.015625
vt 0.421875 0.015625
vt 0.421875 0.984375
vt 0.40625 0.59375
vt 0.40625 0.984375
vt 0.421875 0.59375
vt 0.40625 0.40625
vt 0.421875 0.40625
vt 0.421875 0.015625
vt 0.40625 0.015625
vt 0.40625 0.984375
vt 0.390625 0.59375
vt 0.390625 0.984375
vt 0.40625 0.59375
vt 0.390625 0.40625
vt 0.40625 0.40625
vt 0.40625 0.015625
vt 0.390625 0.015625
vt 0.390625 0.984375
vt 0.375 0.59375
vt 0.375 0.984375
vt 0.390625 0.59375
vt 0.375 0.40625
vt 0.390625 0.40625
vt 0.390625 0.015625
vt 0.375 0.015625
vt 0.375 0.984375
vt 0.359375 0.59375
vt 0.359375 0.984375
vt 0.375 0.59375
vt 0.359375 0.40625
vt 0.375 0.40625
vt 0.375 0.015625
vt 0.359375 0.015625
vt 0.359375 0.984375
vt 0.34375 0.59375
vt 0.34375 0.984375
vt 0.359375 0.59375
vt 0.34375 0.40625
vt 0.359375 0.40625
vt 0.359375 0.015625
vt 0.34375 0.015625
vt 0.34375 0.984375
vt 0.328125 0.59375
vt 0.328125 0.984375
vt 0.34375 0.59375
vt 0.328125 0.40625
vt 0.34375 0.40625
vt 0.34375 0.015625
vt 0.328125 0.015625
vt 0.328125 0.984375
vt 0.3125 0.59375
vt 0.3125 0.984375
vt 0.328125 0.59375
vt 0.3125 0.40625
vt 0.328125 0.40625
vt 0.328125 0.015625
vt 0.3125 0.015625
vt 0.3125 0.984375
vt 0.296875 0.59375
vt 0.296875 0.984375
vt 0.3125 0.59375
vt 0.296875 0.40625
vt 0.3125 0.40625
vt 0.3125 0.015625
vt 0.296875 0.015625
vt 0.296875 0.984375
vt 0.28125 0.59375
vt 0.28125 0.984375
vt 0.296875 0.59375
vt 0.28125 0.40625
vt 0.296875 0.40625
vt 0.296875 0.015625
vt 0.28125 0.015625
vt 0.28125 0.984375
vt 0.265625 0.59375
vt 0.265625 0.984375
vt 0.28125 0.59375
vt 0.265625 0.40625
vt 0.28125 0.40625
vt 0.28125 0.015625
vt 0.265625 0.015625
vt 0.265625 0.984375
vt 0.25 0.59375
vt 0.25 0.984375
vt 0.265625 0.59375
vt 0.25 0.40625
vt 0.265625 0.40625
vt 0.265625 0.015625
vt 0.25 0.015625
vt 0.25 0.984375
vt 0.234375 0.59375
vt 0.234375 0.984375
vt 0.25 0.59375
vt 0.234375 0.40625
vt 0.25 0.40625
vt 0.25 0.015625
vt 0.234375 0.015625
vt 0.234375 0.984375
vt 0.21875 0.59375
vt 0.21875 0.984375
vt 0.234375 0.59375
vt 0.21875 0.40625
vt 0.234375 0.40625
vt 0.234375 0.015625
vt 0.21875 0.015625
vt 0.21875 0.984375
vt 0.203125 0.59375
vt 0.203125 0.984375
vt 0.21875 0.59375
vt 0.203125 0.40625
vt 0.21875 0.40625
vt 0.21875 0.015625
vt 0.203125 0.015625
vt 0.203125 0.984375
vt 0.1875 0.59375
vt 0.1875 0.984375
vt 0.203125 0.59375
vt 0.1875 0.40625
vt 0.203125 0.40625
vt 0.203125 0.015625
vt 0.1875 0.015625
vt 0.1875 0.984375
vt 0.171875 0.59375
vt 0.171875 0.984375
vt 0.1875 0.59375
vt 0.171875 0.40625
vt 0.1875 0.40625
vt 0.1875 0.015625
vt 0.171875 0.015625
vt 0.171875 0.984375
vt 0.15625 0.59375
vt 0.15625 0.984375
vt 0.171875 0.59375
vt 0.15625 0.40625
vt 0.171875 0.40625
vt 0.171875 0.015625
vt 0.15625 0.015625
vt 0.15625 0.984375
vt 0.140625 0.59375
vt 0.140625 0.984375
vt 0.15625 0.59375
vt 0.140625 0.40625
vt 0.15625 0.40625
vt 0.15625 0.015625
vt 0.140625 0.015625
vt 0.140625 0.984375
vt 0.125 0.59375
vt 0.125 0.984375
vt 0.140625 0.59375
vt 0.125 0.40625
vt 0.140625 0.40625
vt 0.140625 0.015625
vt 0.125 0.015625
vt 0.125 0.984375
vt 0.109375 0.59375
vt 0.109375 0.984375
vt 0.125 0.59375
vt 0.109375 0.40625
vt 0.125 0.40625
vt 0.125 0.015625
vt 0.109375 0.015625
vt 0.109375 0.984375
vt 0.09375 0.59375
vt 0.09375 0.984375
vt 0.109375 0.59375
vt 0.09375 0.40625
vt 0.109375 0.40625
vt 0.109375 0.015625
vt 0.09375 0.015625
vt 0.09375 0.984375
vt 0.078125 0.59375
vt 0.078125 0.984375
vt 0.09375 0.59375
vt 0.078125 0.40625
vt 0.09375 0.40625
vt 0.09375 0.015625
vt 0.078125 0.015625
vt 0.078125 0.984375
vt 0.0625 0.59375
vt 0.0625 0.984375
vt 0.078125 0.59375
vt 0.0625 0.40625
vt 0.078125 0.40625
vt 0.078125 0.015625
vt 0.0625 0.015625
vt 0.0625 0.984375
vt 0.046875 0.59375
vt 0.046875 0.984375
vt 0.0625 0.59375
vt 0.046875 0.40625
vt 0.0625 0.40625
vt 0.0625 0.015625
vt 0.046875 0.015625
vt 0.046875 0.984375
vt 0.03125 0.59375
vt 0.03125 0.984375
vt 0.046875 0.59375
vt 0.03125 0.40625
vt 0.046875 0.40625
vt 0.046875 0.015625
vt 0.03125 0.015625
vt 0.03125 0.984375
vt 0.015625 0.59375
vt 0.015625 0.984375
vt 0.03125 0.59375
vt 0.015625 0.40625
vt 0.03125 0.40625
vt 0.03125 0.015625
vt 0.015625 0.015625
vt 0.015625 0.984375
vt 0 0.59375
vt 0 0.984375
vt 0.015625 0.59375
vt 0 0.40625
vt 0.015625 0.40625
vt 0.015625 0.015625
vt 0 0.015625
g Battle_sidelight_0
f 3/3/3 2/2/2 1/1/1
f 2/2/2 4/4/4 1/1/1
f 1/1/1 4/4/4 5/5/5
f 4/4/4 6/6/6 5/5/5
f 5/5/5 6/6/6 7/7/7
f 6/6/6 8/8/8 7/7/7
f 11/11/11 10/10/10 9/9/9
f 10/10/10 12/12/12 9/9/9
f 10/10/10 13/13/13 12/12/12
f 13/13/13 14/14/14 12/12/12
f 14/14/14 13/13/13 15/15/15
f 13/13/13 16/16/16 15/15/15
f 19/19/19 18/18/18 17/17/17
f 18/18/18 20/20/20 17/17/17
f 18/18/18 21/21/21 20/20/20
f 21/21/21 22/22/22 20/20/20
f 22/22/22 21/21/21 23/23/23
f 21/21/21 24/24/24 23/23/23
f 27/27/27 26/26/26 25/25/25
f 26/26/26 28/28/28 25/25/25
f 26/26/26 29/29/29 28/28/28
f 29/29/29 30/30/30 28/28/28
f 30/30/30 29/29/29 31/31/31
f 29/29/29 32/32/32 31/31/31
f 35/35/35 34/34/34 33/33/33
f 34/34/34 36/36/36 33/33/33
f 34/34/34 37/37/37 36/36/36
f 37/37/37 38/38/38 36/36/36
f 38/38/38 37/37/37 39/39/39
f 37/37/37 40/40/40 39/39/39
f 43/43/43 42/42/42 41/41/41
f 42/42/42 44/44/44 41/41/41
f 42/42/42 45/45/45 44/44/44
f 45/45/45 46/46/46 44/44/44
f 46/46/46 45/45/45 47/47/47
f 45/45/45 48/48/48 47/47/47
f 51/51/51 50/50/50 49/49/49
f 50/50/50 52/52/52 49/49/49
f 50/50/50 53/53/53 52/52/52
f 53/53/53 54/54/54 52/52/52
f 54/54/54 53/53/53 55/55/55
f 53/53/53 56/56/56 55/55/55
f 59/59/59 58/58/58 57/57/57
f 58/58/58 60/60/60 57/57/57
f 58/58/58 61/61/61 60/60/60
f 61/61/61 62/62/62 60/60/60
f 62/62/62 61/61/61 63/63/63
f 61/61/61 64/64/64 63/63/63
f 67/67/67 66/66/66 65/65/65
f 66/66/66 68/68/68 65/65/65
f 66/66/66 69/69/69 68/68/68
f 69/69/69 70/70/70 68/68/68
f 70/70/70 69/69/69 71/71/71
f 69/69/69 72/72/72 71/71/71
f 75/75/75 74/74/74 73/73/73
f 74/74/74 76/76/76 73/73/73
f 74/74/74 77/77/77 76/76/76
f 77/77/77 78/78/78 76/76/76
f 78/78/78 77/77/77 79/79/79
f 77/77/77 80/80/80 79/79/79
f 83/83/83 82/82/82 81/81/81
f 82/82/82 84/84/84 81/81/81
f 82/82/82 85/85/85 84/84/84
f 85/85/85 86/86/86 84/84/84
f 86/86/86 85/85/85 87/87/87
f 85/85/85 88/88/88 87/87/87
f 91/91/91 90/90/90 89/89/89
f 90/90/90 92/92/92 89/89/89
f 90/90/90 93/93/93 92/92/92
f 93/93/93 94/94/94 92/92/92
f 94/94/94 93/93/93 95/95/95
f 93/93/93 96/96/96 95/95/95
f 99/99/99 98/98/98 97/97/97
f 98/98/98 100/100/100 97/97/97
f 98/98/98 101/101/101 100/100/100
f 101/101/101 102/102/102 100/100/100
f 102/102/102 101/101/101 103/103/103
f 101/101/101 104/104/104 103/103/103
f 107/107/107 106/106/106 105/105/105
f 106/106/106 108/108/108 105/105/105
f 106/106/106 109/109/109 108/108/108
f 109/109/109 110/110/110 108/108/108
f 110/110/110 109/109/109 111/111/111
f 109/109/109 112/112/112 111/111/111
f 115/115/115 114/114/114 113/113/113
f 114/114/114 116/116/116 113/113/113
f 114/114/114 117/117/117 116/116/116
f 117/117/117 118/118/118 116/116/116
f 118/118/118 117/117/117 119/119/119
f 117/117/117 120/120/120 119/119/119
f 123/123/123 122/122/122 121/121/121
f 122/122/122 124/124/124 121/121/121
f 122/122/122 125/125/125 124/124/124
f 125/125/125 126/126/126 124/124/124
f 126/126/126 125/125/125 127/127/127
f 125/125/125 128/128/128 127/127/127
f 131/131/131 130/130/130 129/129/129
f 130/130/130 132/132/132 129/129/129
f 130/130/130 133/133/133 132/132/132
f 133/133/133 134/134/134 132/132/132
f 134/134/134 133/133/133 135/135/135
f 133/133/133 136/136/136 135/135/135
f 139/139/139 138/138/138 137/137/137
f 138/138/138 140/140/140 137/137/137
f 138/138/138 141/141/141 140/140/140
f 141/141/141 142/142/142 140/140/140
f 142/142/142 141/141/141 143/143/143
f 141/141/141 144/144/144 143/143/143
f 147/147/147 146/146/146 145/145/145
f 146/146/146 148/148/148 145/145/145
f 146/146/146 149/149/149 148/148/148
f 149/149/149 150/150/150 148/148/148
f 150/150/150 149/149/149 151/151/151
f 149/149/149 152/152/152 151/151/151
f 155/155/155 154/154/154 153/153/153
f 154/154/154 156/156/156 153/153/153
f 154/154/154 157/157/157 156/156/156
f 157/157/157 158/158/158 156/156/156
f 158/158/158 157/157/157 159/159/159
f 157/157/157 160/160/160 159/159/159
f 163/163/163 162/162/162 161/161/161
f 162/162/162 164/164/164 161/161/161
f 162/162/162 165/165/165 164/164/164
f 165/165/165 166/166/166 164/164/164
f 166/166/166 165/165/165 167/167/167
f 165/165/165 168/168/168 167/167/167
f 171/171/171 170/170/170 169/169/169
f 170/170/170 172/172/172 169/169/169
f 170/170/170 173/173/173 172/172/172
f 173/173/173 174/174/174 172/172/172
f 174/174/174 173/173/173 175/175/175
f 173/173/173 176/176/176 175/175/175
f 179/179/179 178/178/178 177/177/177
f 178/178/178 180/180/180 177/177/177
f 178/178/178 181/181/181 180/180/180
f 181/181/181 182/182/182 180/180/180
f 182/182/182 181/181/181 183/183/183
f 181/181/181 184/184/184 183/183/183
f 187/187/187 186/186/186 185/185/185
f 186/186/186 188/188/188 185/185/185
f 186/186/186 189/189/189 188/188/188
f 189/189/189 190/190/190 188/188/188
f 190/190/190 189/189/189 191/191/191
f 189/189/189 192/192/192 191/191/191
f 195/195/195 194/194/194 193/193/193
f 194/194/194 196/196/196 193/193/193
f 194/194/194 197/197/197 196/196/196
f 197/197/197 198/198/198 196/196/196
f 198/198/198 197/197/197 199/199/199
f 197/197/197 200/200/200 199/199/199
f 203/203/203 202/202/202 201/201/201
f 202/202/202 204/204/204 201/201/201
f 202/202/202 205/205/205 204/204/204
f 205/205/205 206/206/206 204/204/204
f 206/206/206 205/205/205 207/207/207
f 205/205/205 208/208/208 207/207/207
f 211/211/211 210/210/210 209/209/209
f 210/210/210 212/212/212 209/209/209
f 210/210/210 213/213/213 212/212/212
f 213/213/213 214/214/214 212/212/212
f 214/214/214 213/213/213 215/215/215
f 213/213/213 216/216/216 215/215/215
f 219/219/219 218/218/218 217/217/217
f 218/218/218 220/220/220 217/217/217
f 218/218/218 221/221/221 220/220/220
f 221/221/221 222/222/222 220/220/220
f 222/222/222 221/221/221 223/223/223
f 221/221/221 224/224/224 223/223/223
f 227/227/227 226/226/226 225/225/225
f 226/226/226 228/228/228 225/225/225
f 226/226/226 229/229/229 228/228/228
f 229/229/229 230/230/230 228/228/228
f 230/230/230 229/229/229 231/231/231
f 229/229/229 232/232/232 231/231/231
f 235/235/235 234/234/234 233/233/233
f 234/234/234 236/236/236 233/233/233
f 234/234/234 237/237/237 236/236/236
f 237/237/237 238/238/238 236/236/236
f 238/238/238 237/237/237 239/239/239
f 237/237/237 240/240/240 239/239/239
f 243/243/243 242/242/242 241/241/241
f 242/242/242 244/244/244 241/241/241
f 242/242/242 245/245/245 244/244/244
f 245/245/245 246/246/246 244/244/244
f 246/246/246 245/245/245 247/247/247
f 245/245/245 248/248/248 247/247/247
f 251/251/251 250/250/250 249/249/249
f 250/250/250 252/252/252 249/249/249
f 250/250/250 253/253/253 252/252/252
f 253/253/253 254/254/254 252/252/252
f 254/254/254 253/253/253 255/255/255
f 253/253/253 256/256/256 255/255/255
f 259/259/259 258/258/258 257/257/257
f 258/258/258 260/260/260 257/257/257
f 257/257/257 260/260/260 261/261/261
f 260/260/260 262/262/262 261/261/261
f 261/261/261 262/262/262 263/263/263
f 262/262/262 264/264/264 263/263/263
f 267/267/267 266/266/266 265/265/265
f 266/266/266 268/268/268 265/265/265
f 266/266/266 269/269/269 268/268/268
f 269/269/269 270/270/270 268/268/268
f 270/270/270 269/269/269 271/271/271
f 269/269/269 272/272/272 271/271/271
f 275/275/275 274/274/274 273/273/273
f 274/274/274 276/276/276 273/273/273
f 274/274/274 277/277/277 276/276/276
f 277/277/277 278/278/278 276/276/276
f 278/278/278 277/277/277 279/279/279
f 277/277/277 280/280/280 279/279/279
f 283/283/283 282/282/282 281/281/281
f 282/282/282 284/284/284 281/281/281
f 282/282/282 285/285/285 284/284/284
f 285/285/285 286/286/286 284/284/284
f 286/286/286 285/285/285 287/287/287
f 285/285/285 288/288/288 287/287/287
f 291/291/291 290/290/290 289/289/289
f 290/290/290 292/292/292 289/289/289
f 290/290/290 293/293/293 292/292/292
f 293/293/293 294/294/294 292/292/292
f 294/294/294 293/293/293 295/295/295
f 293/293/293 296/296/296 295/295/295
f 299/299/299 298/298/298 297/297/297
f 298/298/298 300/300/300 297/297/297
f 298/298/298 301/301/301 300/300/300
f 301/301/301 302/302/302 300/300/300
f 302/302/302 301/301/301 303/303/303
f 301/301/301 304/304/304 303/303/303
f 307/307/307 306/306/306 305/305/305
f 306/306/306 308/308/308 305/305/305
f 306/306/306 309/309/309 308/308/308
f 309/309/309 310/310/310 308/308/308
f 310/310/310 309/309/309 311/311/311
f 309/309/309 312/312/312 311/311/311
f 315/315/315 314/314/314 313/313/313
f 314/314/314 316/316/316 313/313/313
f 314/314/314 317/317/317 316/316/316
f 317/317/317 318/318/318 316/316/316
f 318/318/318 317/317/317 319/319/319
f 317/317/317 320/320/320 319/319/319
f 323/323/323 322/322/322 321/321/321
f 322/322/322 324/324/324 321/321/321
f 322/322/322 325/325/325 324/324/324
f 325/325/325 326/326/326 324/324/324
f 326/326/326 325/325/325 327/327/327
f 325/325/325 328/328/328 327/327/327
f 331/331/331 330/330/330 329/329/329
f 330/330/330 332/332/332 329/329/329
f 330/330/330 333/333/333 332/332/332
f 333/333/333 334/334/334 332/332/332
f 334/334/334 333/333/333 335/335/335
f 333/333/333 336/336/336 335/335/335
f 339/339/339 338/338/338 337/337/337
f 338/338/338 340/340/340 337/337/337
f 338/338/338 341/341/341 340/340/340
f 341/341/341 342/342/342 340/340/340
f 342/342/342 341/341/341 343/343/343
f 341/341/341 344/344/344 343/343/343
f 347/347/347 346/346/346 345/345/345
f 346/346/346 348/348/348 345/345/345
f 346/346/346 349/349/349 348/348/348
f 349/349/349 350/350/350 348/348/348
f 350/350/350 349/349/349 351/351/351
f 349/349/349 352/352/352 351/351/351
f 355/355/355 354/354/354 353/353/353
f 354/354/354 356/356/356 353/353/353
f 354/354/354 357/357/357 356/356/356
f 357/357/357 358/358/358 356/356/356
f 358/358/358 357/357/357 359/359/359
f 357/357/357 360/360/360 359/359/359
f 363/363/363 362/362/362 361/361/361
f 362/362/362 364/364/364 361/361/361
f 362/362/362 365/365/365 364/364/364
f 365/365/365 366/366/366 364/364/364
f 366/366/366 365/365/365 367/367/367
f 365/365/365 368/368/368 367/367/367
f 371/371/371 370/370/370 369/369/369
f 370/370/370 372/372/372 369/369/369
f 370/370/370 373/373/373 372/372/372
f 373/373/373 374/374/374 372/372/372
f 374/374/374 373/373/373 375/375/375
f 373/373/373 376/376/376 375/375/375
f 379/379/379 378/378/378 377/377/377
f 378/378/378 380/380/380 377/377/377
f 378/378/378 381/381/381 380/380/380
f 381/381/381 382/382/382 380/380/380
f 382/382/382 381/381/381 383/383/383
f 381/381/381 384/384/384 383/383/383
f 387/387/387 386/386/386 385/385/385
f 386/386/386 388/388/388 385/385/385
f 386/386/386 389/389/389 388/388/388
f 389/389/389 390/390/390 388/388/388
f 390/390/390 389/389/389 391/391/391
f 389/389/389 392/392/392 391/391/391
f 395/395/395 394/394/394 393/393/393
f 394/394/394 396/396/396 393/393/393
f 394/394/394 397/397/397 396/396/396
f 397/397/397 398/398/398 396/396/396
f 398/398/398 397/397/397 399/399/399
f 397/397/397 400/400/400 399/399/399
f 403/403/403 402/402/402 401/401/401
f 402/402/402 404/404/404 401/401/401
f 402/402/402 405/405/405 404/404/404
f 405/405/405 406/406/406 404/404/404
f 406/406/406 405/405/405 407/407/407
f 405/405/405 408/408/408 407/407/407
f 411/411/411 410/410/410 409/409/409
f 410/410/410 412/412/412 409/409/409
f 410/410/410 413/413/413 412/412/412
f 413/413/413 414/414/414 412/412/412
f 414/414/414 413/413/413 415/415/415
f 413/413/413 416/416/416 415/415/415
f 419/419/419 418/418/418 417/417/417
f 418/418/418 420/420/420 417/417/417
f 418/418/418 421/421/421 420/420/420
f 421/421/421 422/422/422 420/420/420
f 422/422/422 421/421/421 423/423/423
f 421/421/421 424/424/424 423/423/423
f 427/427/427 426/426/426 425/425/425
f 426/426/426 428/428/428 425/425/425
f 426/426/426 429/429/429 428/428/428
f 429/429/429 430/430/430 428/428/428
f 430/430/430 429/429/429 431/431/431
f 429/429/429 432/432/432 431/431/431
f 435/435/435 434/434/434 433/433/433
f 434/434/434 436/436/436 433/433/433
f 434/434/434 437/437/437 436/436/436
f 437/437/437 438/438/438 436/436/436
f 438/438/438 437/437/437 439/439/439
f 437/437/437 440/440/440 439/439/439
f 443/443/443 442/442/442 441/441/441
f 442/442/442 444/444/444 441/441/441
f 442/442/442 445/445/445 444/444/444
f 445/445/445 446/446/446 444/444/444
f 446/446/446 445/445/445 447/447/447
f 445/445/445 448/448/448 447/447/447
f 451/451/451 450/450/450 449/449/449
f 450/450/450 452/452/452 449/449/449
f 450/450/450 453/453/453 452/452/452
f 453/453/453 454/454/454 452/452/452
f 454/454/454 453/453/453 455/455/455
f 453/453/453 456/456/456 455/455/455
f 459/459/459 458/458/458 457/457/457
f 458/458/458 460/460/460 457/457/457
f 458/458/458 461/461/461 460/460/460
f 461/461/461 462/462/462 460/460/460
f 462/462/462 461/461/461 463/463/463
f 461/461/461 464/464/464 463/463/463
f 467/467/467 466/466/466 465/465/465
f 466/466/466 468/468/468 465/465/465
f 466/466/466 469/469/469 468/468/468
f 469/469/469 470/470/470 468/468/468
f 470/470/470 469/469/469 471/471/471
f 469/469/469 472/472/472 471/471/471
f 475/475/475 474/474/474 473/473/473
f 474/474/474 476/476/476 473/473/473
f 474/474/474 477/477/477 476/476/476
f 477/477/477 478/478/478 476/476/476
f 478/478/478 477/477/477 479/479/479
f 477/477/477 480/480/480 479/479/479
f 483/483/483 482/482/482 481/481/481
f 482/482/482 484/484/484 481/481/481
f 482/482/482 485/485/485 484/484/484
f 485/485/485 486/486/486 484/484/484
f 486/486/486 485/485/485 487/487/487
f 485/485/485 488/488/488 487/487/487
f 491/491/491 490/490/490 489/489/489
f 490/490/490 492/492/492 489/489/489
f 490/490/490 493/493/493 492/492/492
f 493/493/493 494/494/494 492/492/492
f 494/494/494 493/493/493 495/495/495
f 493/493/493 496/496/496 495/495/495
f 499/499/499 498/498/498 497/497/497
f 498/498/498 500/500/500 497/497/497
f 498/498/498 501/501/501 500/500/500
f 501/501/501 502/502/502 500/500/500
f 502/502/502 501/501/501 503/503/503
f 501/501/501 504/504/504 503/503/503
f 507/507/507 506/506/506 505/505/505
f 506/506/506 508/508/508 505/505/505
f 506/506/506 509/509/509 508/508/508
f 509/509/509 510/510/510 508/508/508
f 510/510/510 509/509/509 511/511/511
f 509/509/509 512/512/512 511/511/511
f 515/515/515 514/514/514 513/513/513
f 514/514/514 516/516/516 513/513/513
f 513/513/513 516/516/516 517/517/517
f 516/516/516 518/518/518 517/517/517
f 517/517/517 518/518/518 519/519/519
f 518/518/518 520/520/520 519/519/519
f 523/523/523 522/522/522 521/521/521
f 522/522/522 524/524/524 521/521/521
f 522/522/522 525/525/525 524/524/524
f 525/525/525 526/526/526 524/524/524
f 526/526/526 525/525/525 527/527/527
f 525/525/525 528/528/528 527/527/527
f 531/531/531 530/530/530 529/529/529
f 530/530/530 532/532/532 529/529/529
f 530/530/530 533/533/533 532/532/532
f 533/533/533 534/534/534 532/532/532
f 534/534/534 533/533/533 535/535/535
f 533/533/533 536/536/536 535/535/535
f 539/539/539 538/538/538 537/537/537
f 538/538/538 540/540/540 537/537/537
f 538/538/538 541/541/541 540/540/540
f 541/541/541 542/542/542 540/540/540
f 542/542/542 541/541/541 543/543/543
f 541/541/541 544/544/544 543/543/543
f 547/547/547 546/546/546 545/545/545
f 546/546/546 548/548/548 545/545/545
f 546/546/546 549/549/549 548/548/548
f 549/549/549 550/550/550 548/548/548
f 550/550/550 549/549/549 551/551/551
f 549/549/549 552/552/552 551/551/551
f 555/555/555 554/554/554 553/553/553
f 554/554/554 556/556/556 553/553/553
f 554/554/554 557/557/557 556/556/556
f 557/557/557 558/558/558 556/556/556
f 558/558/558 557/557/557 559/559/559
f 557/557/557 560/560/560 559/559/559
f 563/563/563 562/562/562 561/561/561
f 562/562/562 564/564/564 561/561/561
f 562/562/562 565/565/565 564/564/564
f 565/565/565 566/566/566 564/564/564
f 566/566/566 565/565/565 567/567/567
f 565/565/565 568/568/568 567/567/567
f 571/571/571 570/570/570 569/569/569
f 570/570/570 572/572/572 569/569/569
f 570/570/570 573/573/573 572/572/572
f 573/573/573 574/574/574 572/572/572
f 574/574/574 573/573/573 575/575/575
f 573/573/573 576/576/576 575/575/575
f 579/579/579 578/578/578 577/577/577
f 578/578/578 580/580/580 577/577/577
f 578/578/578 581/581/581 580/580/580
f 581/581/581 582/582/582 580/580/580
f 582/582/582 581/581/581 583/583/583
f 581/581/581 584/584/584 583/583/583
f 587/587/587 586/586/586 585/585/585
f 586/586/586 588/588/588 585/585/585
f 586/586/586 589/589/589 588/588/588
f 589/589/589 590/590/590 588/588/588
f 590/590/590 589/589/589 591/591/591
f 589/589/589 592/592/592 591/591/591
f 595/595/595 594/594/594 593/593/593
f 594/594/594 596/596/596 593/593/593
f 594/594/594 597/597/597 596/596/596
f 597/597/597 598/598/598 596/596/596
f 598/598/598 597/597/597 599/599/599
f 597/597/597 600/600/600 599/599/599
f 603/603/603 602/602/602 601/601/601
f 602/602/602 604/604/604 601/601/601
f 602/602/602 605/605/605 604/604/604
f 605/605/605 606/606/606 604/604/604
f 606/606/606 605/605/605 607/607/607
f 605/605/605 608/608/608 607/607/607
f 611/611/611 610/610/610 609/609/609
f 610/610/610 612/612/612 609/609/609
f 610/610/610 613/613/613 612/612/612
f 613/613/613 614/614/614 612/612/612
f 614/614/614 613/613/613 615/615/615
f 613/613/613 616/616/616 615/615/615
f 619/619/619 618/618/618 617/617/617
f 618/618/618 620/620/620 617/617/617
f 618/618/618 621/621/621 620/620/620
f 621/621/621 622/622/622 620/620/620
f 622/622/622 621/621/621 623/623/623
f 621/621/621 624/624/624 623/623/623
f 627/627/627 626/626/626 625/625/625
f 626/626/626 628/628/628 625/625/625
f 626/626/626 629/629/629 628/628/628
f 629/629/629 630/630/630 628/628/628
f 630/630/630 629/629/629 631/631/631
f 629/629/629 632/632/632 631/631/631
f 635/635/635 634/634/634 633/633/633
f 634/634/634 636/636/636 633/633/633
f 634/634/634 637/637/637 636/636/636
f 637/637/637 638/638/638 636/636/636
f 638/638/638 637/637/637 639/639/639
f 637/637/637 640/640/640 639/639/639
f 643/643/643 642/642/642 641/641/641
f 642/642/642 644/644/644 641/641/641
f 642/642/642 645/645/645 644/644/644
f 645/645/645 646/646/646 644/644/644
f 646/646/646 645/645/645 647/647/647
f 645/645/645 648/648/648 647/647/647
f 651/651/651 650/650/650 649/649/649
f 650/650/650 652/652/652 649/649/649
f 650/650/650 653/653/653 652/652/652
f 653/653/653 654/654/654 652/652/652
f 654/654/654 653/653/653 655/655/655
f 653/653/653 656/656/656 655/655/655
f 659/659/659 658/658/658 657/657/657
f 658/658/658 660/660/660 657/657/657
f 658/658/658 661/661/661 660/660/660
f 661/661/661 662/662/662 660/660/660
f 662/662/662 661/661/661 663/663/663
f 661/661/661 664/664/664 663/663/663
f 667/667/667 666/666/666 665/665/665
f 666/666/666 668/668/668 665/665/665
f 666/666/666 669/669/669 668/668/668
f 669/669/669 670/670/670 668/668/668
f 670/670/670 669/669/669 671/671/671
f 669/669/669 672/672/672 671/671/671
f 675/675/675 674/674/674 673/673/673
f 674/674/674 676/676/676 673/673/673
f 674/674/674 677/677/677 676/676/676
f 677/677/677 678/678/678 676/676/676
f 678/678/678 677/677/677 679/679/679
f 677/677/677 680/680/680 679/679/679
f 683/683/683 682/682/682 681/681/681
f 682/682/682 684/684/684 681/681/681
f 682/682/682 685/685/685 684/684/684
f 685/685/685 686/686/686 684/684/684
f 686/686/686 685/685/685 687/687/687
f 685/685/685 688/688/688 687/687/687
f 691/691/691 690/690/690 689/689/689
f 690/690/690 692/692/692 689/689/689
f 690/690/690 693/693/693 692/692/692
f 693/693/693 694/694/694 692/692/692
f 694/694/694 693/693/693 695/695/695
f 693/693/693 696/696/696 695/695/695
f 699/699/699 698/698/698 697/697/697
f 698/698/698 700/700/700 697/697/697
f 698/698/698 701/701/701 700/700/700
f 701/701/701 702/702/702 700/700/700
f 702/702/702 701/701/701 703/703/703
f 701/701/701 704/704/704 703/703/703
f 707/707/707 706/706/706 705/705/705
f 706/706/706 708/708/708 705/705/705
f 706/706/706 709/709/709 708/708/708
f 709/709/709 710/710/710 708/708/708
f 710/710/710 709/709/709 711/711/711
f 709/709/709 712/712/712 711/711/711
f 715/715/715 714/714/714 713/713/713
f 714/714/714 716/716/716 713/713/713
f 714/714/714 717/717/717 716/716/716
f 717/717/717 718/718/718 716/716/716
f 718/718/718 717/717/717 719/719/719
f 717/717/717 720/720/720 719/719/719
f 723/723/723 722/722/722 721/721/721
f 722/722/722 724/724/724 721/721/721
f 722/722/722 725/725/725 724/724/724
f 725/725/725 726/726/726 724/724/724
f 726/726/726 725/725/725 727/727/727
f 725/725/725 728/728/728 727/727/727
f 731/731/731 730/730/730 729/729/729
f 730/730/730 732/732/732 729/729/729
f 730/730/730 733/733/733 732/732/732
f 733/733/733 734/734/734 732/732/732
f 734/734/734 733/733/733 735/735/735
f 733/733/733 736/736/736 735/735/735
f 739/739/739 738/738/738 737/737/737
f 738/738/738 740/740/740 737/737/737
f 738/738/738 741/741/741 740/740/740
f 741/741/741 742/742/742 740/740/740
f 742/742/742 741/741/741 743/743/743
f 741/741/741 744/744/744 743/743/743
f 747/747/747 746/746/746 745/745/745
f 746/746/746 748/748/748 745/745/745
f 746/746/746 749/749/749 748/748/748
f 749/749/749 750/750/750 748/748/748
f 750/750/750 749/749/749 751/751/751
f 749/749/749 752/752/752 751/751/751
f 755/755/755 754/754/754 753/753/753
f 754/754/754 756/756/756 753/753/753
f 754/754/754 757/757/757 756/756/756
f 757/757/757 758/758/758 756/756/756
f 758/758/758 757/757/757 759/759/759
f 757/757/757 760/760/760 759/759/759
f 763/763/763 762/762/762 761/761/761
f 762/762/762 764/764/764 761/761/761
f 762/762/762 765/765/765 764/764/764
f 765/765/765 766/766/766 764/764/764
f 766/766/766 765/765/765 767/767/767
f 765/765/765 768/768/768 767/767/767
f 771/771/771 770/770/770 769/769/769
f 770/770/770 772/772/772 769/769/769
f 769/769/769 772/772/772 773/773/773
f 772/772/772 774/774/774 773/773/773
f 773/773/773 774/774/774 775/775/775
f 774/774/774 776/776/776 775/775/775
f 779/779/779 778/778/778 777/777/777
f 778/778/778 780/780/780 777/777/777
f 778/778/778 781/781/781 780/780/780
f 781/781/781 782/782/782 780/780/780
f 782/782/782 781/781/781 783/783/783
f 781/781/781 784/784/784 783/783/783
f 787/787/787 786/786/786 785/785/785
f 786/786/786 788/788/788 785/785/785
f 786/786/786 789/789/789 788/788/788
f 789/789/789 790/790/790 788/788/788
f 790/790/790 789/789/789 791/791/791
f 789/789/789 792/792/792 791/791/791
f 795/795/795 794/794/794 793/793/793
f 794/794/794 796/796/796 793/793/793
f 794/794/794 797/797/797 796/796/796
f 797/797/797 798/798/798 796/796/796
f 798/798/798 797/797/797 799/799/799
f 797/797/797 800/800/800 799/799/799
f 803/803/803 802/802/802 801/801/801
f 802/802/802 804/804/804 801/801/801
f 802/802/802 805/805/805 804/804/804
f 805/805/805 806/806/806 804/804/804
f 806/806/806 805/805/805 807/807/807
f 805/805/805 808/808/808 807/807/807
f 811/811/811 810/810/810 809/809/809
f 810/810/810 812/812/812 809/809/809
f 810/810/810 813/813/813 812/812/812
f 813/813/813 814/814/814 812/812/812
f 814/814/814 813/813/813 815/815/815
f 813/813/813 816/816/816 815/815/815
f 819/819/819 818/818/818 817/817/817
f 818/818/818 820/820/820 817/817/817
f 818/818/818 821/821/821 820/820/820
f 821/821/821 822/822/822 820/820/820
f 822/822/822 821/821/821 823/823/823
f 821/821/821 824/824/824 823/823/823
f 827/827/827 826/826/826 825/825/825
f 826/826/826 828/828/828 825/825/825
f 826/826/826 829/829/829 828/828/828
f 829/829/829 830/830/830 828/828/828
f 830/830/830 829/829/829 831/831/831
f 829/829/829 832/832/832 831/831/831
f 835/835/835 834/834/834 833/833/833
f 834/834/834 836/836/836 833/833/833
f 834/834/834 837/837/837 836/836/836
f 837/837/837 838/838/838 836/836/836
f 838/838/838 837/837/837 839/839/839
f 837/837/837 840/840/840 839/839/839
f 843/843/843 842/842/842 841/841/841
f 842/842/842 844/844/844 841/841/841
f 842/842/842 845/845/845 844/844/844
f 845/845/845 846/846/846 844/844/844
f 846/846/846 845/845/845 847/847/847
f 845/845/845 848/848/848 847/847/847
f 851/851/851 850/850/850 849/849/849
f 850/850/850 852/852/852 849/849/849
f 850/850/850 853/853/853 852/852/852
f 853/853/853 854/854/854 852/852/852
f 854/854/854 853/853/853 855/855/855
f 853/853/853 856/856/856 855/855/855
f 859/859/859 858/858/858 857/857/857
f 858/858/858 860/860/860 857/857/857
f 858/858/858 861/861/861 860/860/860
f 861/861/861 862/862/862 860/860/860
f 862/862/862 861/861/861 863/863/863
f 861/861/861 864/864/864 863/863/863
f 867/867/867 866/866/866 865/865/865
f 866/866/866 868/868/868 865/865/865
f 866/866/866 869/869/869 868/868/868
f 869/869/869 870/870/870 868/868/868
f 870/870/870 869/869/869 871/871/871
f 869/869/869 872/872/872 871/871/871
f 875/875/875 874/874/874 873/873/873
f 874/874/874 876/876/876 873/873/873
f 874/874/874 877/877/877 876/876/876
f 877/877/877 878/878/878 876/876/876
f 878/878/878 877/877/877 879/879/879
f 877/877/877 880/880/880 879/879/879
f 883/883/883 882/882/882 881/881/881
f 882/882/882 884/884/884 881/881/881
f 882/882/882 885/885/885 884/884/884
f 885/885/885 886/886/886 884/884/884
f 886/886/886 885/885/885 887/887/887
f 885/885/885 888/888/888 887/887/887
f 891/891/891 890/890/890 889/889/889
f 890/890/890 892/892/892 889/889/889
f 890/890/890 893/893/893 892/892/892
f 893/893/893 894/894/894 892/892/892
f 894/894/894 893/893/893 895/895/895
f 893/893/893 896/896/896 895/895/895
f 899/899/899 898/898/898 897/897/897
f 898/898/898 900/900/900 897/897/897
f 898/898/898 901/901/901 900/900/900
f 901/901/901 902/902/902 900/900/900
f 902/902/902 901/901/901 903/903/903
f 901/901/901 904/904/904 903/903/903
f 907/907/907 906/906/906 905/905/905
f 906/906/906 908/908/908 905/905/905
f 906/906/906 909/909/909 908/908/908
f 909/909/909 910/910/910 908/908/908
f 910/910/910 909/909/909 911/911/911
f 909/909/909 912/912/912 911/911/911
f 915/915/915 914/914/914 913/913/913
f 914/914/914 916/916/916 913/913/913
f 914/914/914 917/917/917 916/916/916
f 917/917/917 918/918/918 916/916/916
f 918/918/918 917/917/917 919/919/919
f 917/917/917 920/920/920 919/919/919
f 923/923/923 922/922/922 921/921/921
f 922/922/922 924/924/924 921/921/921
f 922/922/922 925/925/925 924/924/924
f 925/925/925 926/926/926 924/924/924
f 926/926/926 925/925/925 927/927/927
f 925/925/925 928/928/928 927/927/927
f 931/931/931 930/930/930 929/929/929
f 930/930/930 932/932/932 929/929/929
f 930/930/930 933/933/933 932/932/932
f 933/933/933 934/934/934 932/932/932
f 934/934/934 933/933/933 935/935/935
f 933/933/933 936/936/936 935/935/935
f 939/939/939 938/938/938 937/937/937
f 938/938/938 940/940/940 937/937/937
f 938/938/938 941/941/941 940/940/940
f 941/941/941 942/942/942 940/940/940
f 942/942/942 941/941/941 943/943/943
f 941/941/941 944/944/944 943/943/943
f 947/947/947 946/946/946 945/945/945
f 946/946/946 948/948/948 945/945/945
f 946/946/946 949/949/949 948/948/948
f 949/949/949 950/950/950 948/948/948
f 950/950/950 949/949/949 951/951/951
f 949/949/949 952/952/952 951/951/951
f 955/955/955 954/954/954 953/953/953
f 954/954/954 956/956/956 953/953/953
f 954/954/954 957/957/957 956/956/956
f 957/957/957 958/958/958 956/956/956
f 958/958/958 957/957/957 959/959/959
f 957/957/957 960/960/960 959/959/959
f 963/963/963 962/962/962 961/961/961
f 962/962/962 964/964/964 961/961/961
f 962/962/962 965/965/965 964/964/964
f 965/965/965 966/966/966 964/964/964
f 966/966/966 965/965/965 967/967/967
f 965/965/965 968/968/968 967/967/967
f 971/971/971 970/970/970 969/969/969
f 970/970/970 972/972/972 969/969/969
f 970/970/970 973/973/973 972/972/972
f 973/973/973 974/974/974 972/972/972
f 974/974/974 973/973/973 975/975/975
f 973/973/973 976/976/976 975/975/975
f 979/979/979 978/978/978 977/977/977
f 978/978/978 980/980/980 977/977/977
f 978/978/978 981/981/981 980/980/980
f 981/981/981 982/982/982 980/980/980
f 982/982/982 981/981/981 983/983/983
f 981/981/981 984/984/984 983/983/983
f 987/987/987 986/986/986 985/985/985
f 986/986/986 988/988/988 985/985/985
f 986/986/986 989/989/989 988/988/988
f 989/989/989 990/990/990 988/988/988
f 990/990/990 989/989/989 991/991/991
f 989/989/989 992/992/992 991/991/991
f 995/995/995 994/994/994 993/993/993
f 994/994/994 996/996/996 993/993/993
f 994/994/994 997/997/997 996/996/996
f 997/997/997 998/998/998 996/996/996
f 998/998/998 997/997/997 999/999/999
f 997/997/997 1000/1000/1000 999/999/999
f 1003/1003/1003 1002/1002/1002 1001/1001/1001
f 1002/1002/1002 1004/1004/1004 1001/1001/1001
f 1002/1002/1002 1005/1005/1005 1004/1004/1004
f 1005/1005/1005 1006/1006/1006 1004/1004/1004
f 1006/1006/1006 1005/1005/1005 1007/1007/1007
f 1005/1005/1005 1008/1008/1008 1007/1007/1007
f 1011/1011/1011 1010/1010/1010 1009/1009/1009
f 1010/1010/1010 1012/1012/1012 1009/1009/1009
f 1010/1010/1010 1013/1013/1013 1012/1012/1012
f 1013/1013/1013 1014/1014/1014 1012/1012/1012
f 1014/1014/1014 1013/1013/1013 1015/1015/1015
f 1013/1013/1013 1016/1016/1016 1015/1015/1015
f 1019/1019/1019 1018/1018/1018 1017/1017/1017
f 1018/1018/1018 1020/1020/1020 1017/1017/1017
f 1018/1018/1018 1021/1021/1021 1020/1020/1020
f 1021/1021/1021 1022/1022/1022 1020/1020/1020
f 1022/1022/1022 1021/1021/1021 1023/1023/1023
f 1021/1021/1021 1024/1024/1024 1023/1023/1023
