g Battle_CenterPlate_Preparation
v -0 -0.009000002 2.238546E-14
v 1.0715141 -0.009000002 2.5868616
v 0.8127976 -0.009000002 2.6794317
v 1.3199111 -0.009000002 2.4693785
v 0.54625356 -0.009000002 2.7461977
v 1.5555971 -0.009000002 2.3281138
v 0.27444872 -0.009000002 2.7865164
v 1.7763014 -0.009000002 2.164428
v 7.9274173E-07 -0.009000002 2.7999992
v 1.979899 -0.009000002 1.9798977
v -0.2744471 -0.009000002 2.7865167
v 2.164429 -0.009000002 1.7763
v -0.54625195 -0.009000002 2.7461982
v 2.3281145 -0.009000002 1.5555954
v -0.81279606 -0.009000002 2.6794324
v 2.469379 -0.009000002 1.3199095
v -1.0715127 -0.009000002 2.586862
v 2.5868618 -0.009000002 1.0715123
v -1.3199098 -0.009000002 2.469379
v 2.679432 -0.009000002 0.81279594
v -1.5555956 -0.009000002 2.3281145
v 2.7461977 -0.009000002 0.5462518
v -1.7763003 -0.009000002 2.164429
v 2.786516 -0.009000002 0.274447
v -1.979898 -0.009000002 1.9798987
v 2.8 -0.009000002 2.238546E-14
v -2.1644285 -0.009000002 1.7763013
v 2.786517 -0.009000002 -0.27444798
v -2.328114 -0.009000002 1.5555967
v 2.7461987 -0.009000002 -0.5462529
v -2.4693787 -0.009000002 1.319911
v 2.6794329 -0.009000002 -0.81279725
v -2.5868618 -0.009000002 1.0715139
v 2.5868623 -0.009000002 -1.0715135
v -2.679432 -0.009000002 0.81279737
v 2.4693792 -0.009000002 -1.3199109
v -2.7461982 -0.009000002 0.54625326
v 2.3281145 -0.009000002 -1.5555967
v -2.7865167 -0.009000002 0.27444842
v 2.164429 -0.009000002 -1.7763013
v -2.7999992 -0.009000002 5.00679E-07
v 1.9798987 -0.009000002 -1.979899
v -2.7865167 -0.009000002 -0.27444744
v 1.776301 -0.009000002 -2.1644292
v -2.7461982 -0.009000002 -0.54625237
v 1.5555965 -0.009000002 -2.3281147
v -2.6794324 -0.009000002 -0.81279653
v 1.3199105 -0.009000002 -2.4693792
v -2.586862 -0.009000002 -1.071513
v 1.0715133 -0.009000002 -2.5868623
v -2.469379 -0.009000002 -1.3199103
v 0.8127968 -0.009000002 -2.6794326
v -2.3281145 -0.009000002 -1.5555959
v 0.5462526 -0.009000002 -2.7461984
v -2.164429 -0.009000002 -1.7763004
v 0.27444777 -0.009000002 -2.786517
v -1.9798987 -0.009000002 -1.9798983
v -1.8775462E-07 -0.009000002 -2.7999997
v -1.7763013 -0.009000002 -2.1644287
v -0.27444813 -0.009000002 -2.786517
v -1.5555967 -0.009000002 -2.3281143
v -0.546253 -0.009000002 -2.7461982
v -1.3199109 -0.009000002 -2.469379
v -0.81279725 -0.009000002 -2.6794324
v -1.0715135 -0.009000002 -2.586862
vt 0.5 0.5
vt 0.30859375 0.96191406
vt 0.35473633 0.9785156
vt 0.2644043 0.94091797
vt 0.40234375 0.9902344
vt 0.22216797 0.91552734
vt 0.45092773 0.9975586
vt 0.18286133 0.88671875
vt 0.5 1
vt 0.14648438 0.8535156
vt 0.5488281 0.9975586
vt 0.11352539 0.8173828
vt 0.59765625 0.9902344
vt 0.08428955 0.77783203
vt 0.64501953 0.9785156
vt 0.059051514 0.73583984
vt 0.69140625 0.96191406
vt 0.03805542 0.69140625
vt 0.73583984 0.94091797
vt 0.021530151 0.64501953
vt 0.77783203 0.91552734
vt 0.009605408 0.59765625
vt 0.8173828 0.88671875
vt 0.002407074 0.5488281
vt 0.8535156 0.8535156
vt 0 0.5
vt 0.88671875 0.8173828
vt 0.002407074 0.45092773
vt 0.91552734 0.77783203
vt 0.009605408 0.40234375
vt 0.94091797 0.73583984
vt 0.021530151 0.35473633
vt 0.96191406 0.69140625
vt 0.03805542 0.30859375
vt 0.9785156 0.64501953
vt 0.059051514 0.2644043
vt 0.9902344 0.59765625
vt 0.08428955 0.22216797
vt 0.9975586 0.5488281
vt 0.11352539 0.18286133
vt 1 0.5
vt 0.14648438 0.14648438
vt 0.9975586 0.45092773
vt 0.18286133 0.113464355
vt 0.9902344 0.40234375
vt 0.22216797 0.08428955
vt 0.9785156 0.35473633
vt 0.2644043 0.059051514
vt 0.96191406 0.30859375
vt 0.30859375 0.03805542
vt 0.94091797 0.2644043
vt 0.35473633 0.021530151
vt 0.91552734 0.22216797
vt 0.40234375 0.009605408
vt 0.88671875 0.18286133
vt 0.45092773 0.002407074
vt 0.8535156 0.14648438
vt 0.5 0
vt 0.8173828 0.113464355
vt 0.5488281 0.002407074
vt 0.77783203 0.08428955
vt 0.59765625 0.009605408
vt 0.73583984 0.059051514
vt 0.64501953 0.021530151
vt 0.69140625 0.03805542
vn -0 1 0
vn -0 1 0
vn -0 1 0
vn -0 1 0
vn -0 1 0
vn -0 1 0
vn -0 1 0
vn -0 1 0
vn -0 1 0
vn -0 1 0
vn -0 1 0
vn -0 1 0
vn -0 1 0
vn -0 1 0
vn -0 1 0
vn -0 1 0
vn -0 1 0
vn -0 1 0
vn -0 1 0
vn -0 1 0
vn -0 1 0
vn -0 1 0
vn -0 1 0
vn -0 1 0
vn -0 1 0
vn -0 1 0
vn -0 1 0
vn -0 1 0
vn -0 1 0
vn -0 1 0
vn -0 1 0
vn -0 1 0
vn -0 1 0
vn -0 1 0
vn -0 1 0
vn -0 1 0
vn -0 1 0
vn -0 1 0
vn -0 1 0
vn -0 1 0
vn -0 1 0
vn -0 1 0
vn -0 1 0
vn -0 1 0
vn -0 1 0
vn -0 1 0
vn -0 1 0
vn -0 1 0
vn -0 1 0
vn -0 1 0
vn -0 1 0
vn -0 1 0
vn -0 1 0
vn -0 1 0
vn -0 1 0
vn -0 1 0
vn -0 1 0
vn -0 1 0
vn -0 1 0
vn -0 1 0
vn -0 1 0
vn -0 1 0
vn -0 1 0
vn -0 1 0
vn -0 1 0
g Battle_CenterPlate_Preparation_0
f 3/3/3 2/2/2 1/1/1
f 2/2/2 4/4/4 1/1/1
f 5/5/5 3/3/3 1/1/1
f 4/4/4 6/6/6 1/1/1
f 7/7/7 5/5/5 1/1/1
f 6/6/6 8/8/8 1/1/1
f 9/9/9 7/7/7 1/1/1
f 8/8/8 10/10/10 1/1/1
f 11/11/11 9/9/9 1/1/1
f 10/10/10 12/12/12 1/1/1
f 13/13/13 11/11/11 1/1/1
f 12/12/12 14/14/14 1/1/1
f 15/15/15 13/13/13 1/1/1
f 14/14/14 16/16/16 1/1/1
f 17/17/17 15/15/15 1/1/1
f 16/16/16 18/18/18 1/1/1
f 19/19/19 17/17/17 1/1/1
f 18/18/18 20/20/20 1/1/1
f 21/21/21 19/19/19 1/1/1
f 20/20/20 22/22/22 1/1/1
f 23/23/23 21/21/21 1/1/1
f 22/22/22 24/24/24 1/1/1
f 25/25/25 23/23/23 1/1/1
f 24/24/24 26/26/26 1/1/1
f 27/27/27 25/25/25 1/1/1
f 26/26/26 28/28/28 1/1/1
f 29/29/29 27/27/27 1/1/1
f 28/28/28 30/30/30 1/1/1
f 31/31/31 29/29/29 1/1/1
f 30/30/30 32/32/32 1/1/1
f 33/33/33 31/31/31 1/1/1
f 32/32/32 34/34/34 1/1/1
f 35/35/35 33/33/33 1/1/1
f 34/34/34 36/36/36 1/1/1
f 37/37/37 35/35/35 1/1/1
f 36/36/36 38/38/38 1/1/1
f 39/39/39 37/37/37 1/1/1
f 38/38/38 40/40/40 1/1/1
f 41/41/41 39/39/39 1/1/1
f 40/40/40 42/42/42 1/1/1
f 43/43/43 41/41/41 1/1/1
f 42/42/42 44/44/44 1/1/1
f 45/45/45 43/43/43 1/1/1
f 44/44/44 46/46/46 1/1/1
f 47/47/47 45/45/45 1/1/1
f 46/46/46 48/48/48 1/1/1
f 49/49/49 47/47/47 1/1/1
f 48/48/48 50/50/50 1/1/1
f 51/51/51 49/49/49 1/1/1
f 50/50/50 52/52/52 1/1/1
f 53/53/53 51/51/51 1/1/1
f 52/52/52 54/54/54 1/1/1
f 55/55/55 53/53/53 1/1/1
f 54/54/54 56/56/56 1/1/1
f 57/57/57 55/55/55 1/1/1
f 56/56/56 58/58/58 1/1/1
f 59/59/59 57/57/57 1/1/1
f 58/58/58 60/60/60 1/1/1
f 61/61/61 59/59/59 1/1/1
f 60/60/60 62/62/62 1/1/1
f 63/63/63 61/61/61 1/1/1
f 62/62/62 64/64/64 1/1/1
f 65/65/65 63/63/63 1/1/1
f 64/64/64 65/65/65 1/1/1
