g Battle_outercircle
v -4.2835774E-07 -0.28654838 5.1014686
v 0.37078622 -0.5833096 7.547551
v -6.193163E-07 -0.5833096 7.5566545
v 0.25031653 -0.28654838 5.095323
v -3.6497713E-07 -0.2 4.202938
v 0.50003064 -0.28654838 5.076904
v 0.7406805 -0.5833096 7.520267
v 0.7485403 -0.28654838 5.0462527
v 1.1087903 -0.5833096 7.4748645
v 0.99524635 -0.28654838 5.003445
v 1.474229 -0.5833096 7.4114566
v 1.2395548 -0.28654838 4.948583
v 1.8361162 -0.5833096 7.33019
v 1.4808773 -0.28654838 4.8818007
v 2.1935797 -0.5833096 7.2312675
v 1.7186326 -0.28654838 4.803257
v 2.5457592 -0.5833096 7.114925
v 1.9522465 -0.28654838 4.713142
v 2.8918054 -0.5833096 6.98144
v 2.181158 -0.28654838 4.611673
v 3.2308853 -0.5833096 6.8311357
v 2.4048145 -0.28654838 4.4990935
v 3.562182 -0.5833096 6.664375
v 2.6226785 -0.28654838 4.375676
v 3.8848958 -0.5833096 6.4815598
v 2.8342237 -0.28654838 4.241716
v 4.1982512 -0.5833096 6.2831283
v 3.038941 -0.28654838 4.097538
v 4.501493 -0.5833096 6.069562
v 3.2363365 -0.28654838 3.9434888
v 4.7938914 -0.5833096 5.841375
v 3.4259362 -0.28654838 3.779939
v 5.074739 -0.5833096 5.599113
v 3.607283 -0.28654838 3.6072838
v 5.343362 -0.5833096 5.3433633
v 3.7799385 -0.28654838 3.425937
v 5.599113 -0.5833096 5.07474
v 3.9434884 -0.28654838 3.2363374
v 5.8413744 -0.5833096 4.793892
v 4.097538 -0.28654838 3.0389416
v 6.069562 -0.5833096 4.501495
v 4.241716 -0.28654838 2.8342242
v 6.2831283 -0.5833096 4.198252
v 4.375676 -0.28654838 2.6226795
v 6.4815598 -0.5833096 3.8848972
v 4.4990935 -0.28654838 2.404816
v 6.6643753 -0.5833096 3.5621831
v 4.611673 -0.28654838 2.1811595
v 6.8311357 -0.5833096 3.2308865
v 4.7131424 -0.28654838 1.952248
v 6.98144 -0.5833096 2.8918076
v 4.803258 -0.28654838 1.7186337
v 7.1149263 -0.5833096 2.5457606
v 4.8818016 -0.28654838 1.4808785
v 7.2312684 -0.5833096 2.1935816
v 4.948585 -0.28654838 1.2395562
v 7.3301926 -0.5833096 1.8361176
v 5.003446 -0.28654838 0.9952475
v 7.411458 -0.5833096 1.4742306
v 5.046254 -0.28654838 0.7485413
v 7.4748664 -0.5833096 1.1087918
v 5.0769053 -0.28654838 0.50003165
v 7.5202684 -0.5833096 0.74068195
v 5.095325 -0.28654838 0.25031742
v 7.5475554 -0.5833096 0.3707876
v 5.1014686 -0.28654838 4.2835774E-07
v 7.5566545 -0.5833096 6.193163E-07
v 4.202938 -0.2 3.6497713E-07
v 4.1978774 -0.2 0.20622884
v 3.393315 -0.19999999 3.0155806E-07
v 3.3892288 -0.19999999 0.16650246
v 4.1827016 -0.2 0.41196045
v 3.3769767 -0.19999999 0.3326033
v 4.1574492 -0.2 0.6166997
v 3.3565884 -0.19999999 0.49790332
v 4.122181 -0.2 0.8199529
v 3.3281136 -0.19999999 0.66200286
v 4.076982 -0.2 1.021231
v 3.29162 -0.19999999 0.8245085
v 4.021961 -0.2 1.2200489
v 3.2471979 -0.19999999 0.98502713
v 3.9572513 -0.2 1.4159282
v 3.1949544 -0.19999999 1.1431744
v 3.8830082 -0.2 1.6083952
v 3.1350124 -0.19999999 1.2985649
v 3.7994106 -0.2 1.7969884
v 3.067518 -0.19999999 1.4508289
v 3.70666 -0.2 1.9812516
v 2.9926343 -0.19999999 1.5995969
v 3.604981 -0.2 2.1607425
v 2.9105442 -0.19999999 1.7445134
v 3.4946153 -0.2 2.3350277
v 2.8214364 -0.19999999 1.8852255
v 3.3758314 -0.2 2.503688
v 2.7255342 -0.19999999 2.0213962
v 3.2489152 -0.2 2.6663158
v 2.6230676 -0.19999999 2.1526947
v 3.114171 -0.2 2.8225207
v 2.514279 -0.19999999 2.2788103
v 2.9719265 -0.2 2.9719274
v 2.3994367 -0.19999999 2.3994372
v 2.82252 -0.2 3.1141715
v 2.2788093 -0.19999999 2.5142791
v 2.666315 -0.2 3.2489152
v 2.152694 -0.19999999 2.6230676
v 2.5036876 -0.2 3.3758314
v 2.0213954 -0.19999999 2.7255342
v 2.3350275 -0.2 3.4946153
v 1.8852249 -0.19999999 2.8214364
v 2.1607423 -0.2 3.604981
v 1.7445126 -0.19999999 2.9105442
v 1.9812504 -0.2 3.70666
v 1.5995959 -0.19999999 2.9926343
v 1.7969869 -0.2 3.7994103
v 1.4508278 -0.19999999 3.067518
v 1.6083939 -0.2 3.8830078
v 1.2985638 -0.19999999 3.1350121
v 1.4159273 -0.2 3.9572506
v 1.1431735 -0.19999999 3.1949537
v 1.2200478 -0.2 4.0219607
v 0.9850265 -0.19999999 3.2471979
v 1.02123 -0.2 4.0769806
v 0.82450753 -0.19999999 3.291619
v 0.81995195 -0.2 4.1221805
v 0.6620022 -0.19999999 3.3281136
v 0.61669886 -0.2 4.1574473
v 0.4979027 -0.19999999 3.3565872
v 0.41195956 -0.2 4.1827
v 0.3326026 -0.19999999 3.3769753
v 0.20622806 -0.2 4.1978755
v 0.1665018 -0.19999999 3.3892274
v -3.0155806E-07 -0.19999999 3.393315
v 5.1014686 -0.28654838 4.2835774E-07
v 7.547551 -0.5833096 -0.37078622
v 7.5566545 -0.5833096 6.193163E-07
v 5.095323 -0.28654838 -0.25031653
v 4.202938 -0.2 3.6497713E-07
v 5.076904 -0.28654838 -0.50003064
v 7.520267 -0.5833096 -0.7406805
v 5.0462527 -0.28654838 -0.7485403
v 7.4748645 -0.5833096 -1.1087903
v 5.003445 -0.28654838 -0.99524635
v 7.4114566 -0.5833096 -1.474229
v 4.948583 -0.28654838 -1.2395548
v 7.33019 -0.5833096 -1.8361162
v 4.8818007 -0.28654838 -1.4808773
v 7.2312675 -0.5833096 -2.1935797
v 4.803257 -0.28654838 -1.7186326
v 7.114925 -0.5833096 -2.5457592
v 4.713142 -0.28654838 -1.9522465
v 6.98144 -0.5833096 -2.8918054
v 4.611673 -0.28654838 -2.181158
v 6.8311357 -0.5833096 -3.2308853
v 4.4990935 -0.28654838 -2.4048145
v 6.664375 -0.5833096 -3.562182
v 4.375676 -0.28654838 -2.6226785
v 6.4815598 -0.5833096 -3.8848958
v 4.241716 -0.28654838 -2.8342237
v 6.2831283 -0.5833096 -4.1982512
v 4.097538 -0.28654838 -3.038941
v 6.069562 -0.5833096 -4.501493
v 3.9434888 -0.28654838 -3.2363365
v 5.841375 -0.5833096 -4.7938914
v 3.779939 -0.28654838 -3.4259362
v 5.599113 -0.5833096 -5.074739
v 3.6072838 -0.28654838 -3.607283
v 5.3433633 -0.5833096 -5.343362
v 3.425937 -0.28654838 -3.7799385
v 5.07474 -0.5833096 -5.599113
v 3.2363374 -0.28654838 -3.9434884
v 4.793892 -0.5833096 -5.8413744
v 3.0389416 -0.28654838 -4.097538
v 4.501495 -0.5833096 -6.069562
v 2.8342242 -0.28654838 -4.241716
v 4.198252 -0.5833096 -6.2831283
v 2.6226795 -0.28654838 -4.375676
v 3.8848972 -0.5833096 -6.4815598
v 2.404816 -0.28654838 -4.4990935
v 3.5621831 -0.5833096 -6.6643753
v 2.1811595 -0.28654838 -4.611673
v 3.2308865 -0.5833096 -6.8311357
v 1.952248 -0.28654838 -4.7131424
v 2.8918076 -0.5833096 -6.98144
v 1.7186337 -0.28654838 -4.803258
v 2.5457606 -0.5833096 -7.1149263
v 1.4808785 -0.28654838 -4.8818016
v 2.1935816 -0.5833096 -7.2312684
v 1.2395562 -0.28654838 -4.948585
v 1.8361176 -0.5833096 -7.3301926
v 0.9952475 -0.28654838 -5.003446
v 1.4742306 -0.5833096 -7.411458
v 0.7485413 -0.28654838 -5.046254
v 1.1087918 -0.5833096 -7.4748664
v 0.50003165 -0.28654838 -5.0769053
v 0.74068195 -0.5833096 -7.5202684
v 0.25031742 -0.28654838 -5.095325
v 0.3707876 -0.5833096 -7.5475554
v 4.2835774E-07 -0.28654838 -5.1014686
v 6.193163E-07 -0.5833096 -7.5566545
v 3.6497713E-07 -0.2 -4.202938
v 0.20622884 -0.2 -4.1978774
v 3.0155806E-07 -0.19999999 -3.393315
v 0.16650246 -0.19999999 -3.3892288
v 0.41196045 -0.2 -4.1827016
v 0.3326033 -0.19999999 -3.3769767
v 0.6166997 -0.2 -4.1574492
v 0.49790332 -0.19999999 -3.3565884
v 0.8199529 -0.2 -4.122181
v 0.66200286 -0.19999999 -3.3281136
v 1.021231 -0.2 -4.076982
v 0.8245085 -0.19999999 -3.29162
v 1.2200489 -0.2 -4.021961
v 0.98502713 -0.19999999 -3.2471979
v 1.4159282 -0.2 -3.9572513
v 1.1431744 -0.19999999 -3.1949544
v 1.6083952 -0.2 -3.8830082
v 1.2985649 -0.19999999 -3.1350124
v 1.7969884 -0.2 -3.7994106
v 1.4508289 -0.19999999 -3.067518
v 1.9812516 -0.2 -3.70666
v 1.5995969 -0.19999999 -2.9926343
v 2.1607425 -0.2 -3.604981
v 1.7445134 -0.19999999 -2.9105442
v 2.3350277 -0.2 -3.4946153
v 1.8852255 -0.19999999 -2.8214364
v 2.503688 -0.2 -3.3758314
v 2.0213962 -0.19999999 -2.7255342
v 2.6663158 -0.2 -3.2489152
v 2.1526947 -0.19999999 -2.6230676
v 2.8225207 -0.2 -3.114171
v 2.2788103 -0.19999999 -2.514279
v 2.9719274 -0.2 -2.9719265
v 2.3994372 -0.19999999 -2.3994367
v 3.1141715 -0.2 -2.82252
v 2.5142791 -0.19999999 -2.2788093
v 3.2489152 -0.2 -2.666315
v 2.6230676 -0.19999999 -2.152694
v 3.3758314 -0.2 -2.5036876
v 2.7255342 -0.19999999 -2.0213954
v 3.4946153 -0.2 -2.3350275
v 2.8214364 -0.19999999 -1.8852249
v 3.604981 -0.2 -2.1607423
v 2.9105442 -0.19999999 -1.7445126
v 3.70666 -0.2 -1.9812504
v 2.9926343 -0.19999999 -1.5995959
v 3.7994103 -0.2 -1.7969869
v 3.067518 -0.19999999 -1.4508278
v 3.8830078 -0.2 -1.6083939
v 3.1350121 -0.19999999 -1.2985638
v 3.9572506 -0.2 -1.4159273
v 3.1949537 -0.19999999 -1.1431735
v 4.0219607 -0.2 -1.2200478
v 3.2471979 -0.19999999 -0.9850265
v 4.0769806 -0.2 -1.02123
v 3.291619 -0.19999999 -0.82450753
v 4.1221805 -0.2 -0.81995195
v 3.3281136 -0.19999999 -0.6620022
v 4.1574473 -0.2 -0.61669886
v 3.3565872 -0.19999999 -0.4979027
v 4.1827 -0.2 -0.41195956
v 3.3769753 -0.19999999 -0.3326026
v 4.1978755 -0.2 -0.20622806
v 3.3892274 -0.19999999 -0.1665018
v 3.393315 -0.19999999 3.0155806E-07
v 4.2835774E-07 -0.28654838 -5.1014686
v -0.37078622 -0.5833096 -7.547551
v 6.193163E-07 -0.5833096 -7.5566545
v -0.25031653 -0.28654838 -5.095323
v 3.6497713E-07 -0.2 -4.202938
v -0.50003064 -0.28654838 -5.076904
v -0.7406805 -0.5833096 -7.520267
v -0.7485403 -0.28654838 -5.0462527
v -1.1087903 -0.5833096 -7.4748645
v -0.99524635 -0.28654838 -5.003445
v -1.474229 -0.5833096 -7.4114566
v -1.2395548 -0.28654838 -4.948583
v -1.8361162 -0.5833096 -7.33019
v -1.4808773 -0.28654838 -4.8818007
v -2.1935797 -0.5833096 -7.2312675
v -1.7186326 -0.28654838 -4.803257
v -2.5457592 -0.5833096 -7.114925
v -1.9522465 -0.28654838 -4.713142
v -2.8918054 -0.5833096 -6.98144
v -2.181158 -0.28654838 -4.611673
v -3.2308853 -0.5833096 -6.8311357
v -2.4048145 -0.28654838 -4.4990935
v -3.562182 -0.5833096 -6.664375
v -2.6226785 -0.28654838 -4.375676
v -3.8848958 -0.5833096 -6.4815598
v -2.8342237 -0.28654838 -4.241716
v -4.1982512 -0.5833096 -6.2831283
v -3.038941 -0.28654838 -4.097538
v -4.501493 -0.5833096 -6.069562
v -3.2363365 -0.28654838 -3.9434888
v -4.7938914 -0.5833096 -5.841375
v -3.4259362 -0.28654838 -3.779939
v -5.074739 -0.5833096 -5.599113
v -3.607283 -0.28654838 -3.6072838
v -5.343362 -0.5833096 -5.3433633
v -3.7799385 -0.28654838 -3.425937
v -5.599113 -0.5833096 -5.07474
v -3.9434884 -0.28654838 -3.2363374
v -5.8413744 -0.5833096 -4.793892
v -4.097538 -0.28654838 -3.0389416
v -6.069562 -0.5833096 -4.501495
v -4.241716 -0.28654838 -2.8342242
v -6.2831283 -0.5833096 -4.198252
v -4.375676 -0.28654838 -2.6226795
v -6.4815598 -0.5833096 -3.8848972
v -4.4990935 -0.28654838 -2.404816
v -6.6643753 -0.5833096 -3.5621831
v -4.611673 -0.28654838 -2.1811595
v -6.8311357 -0.5833096 -3.2308865
v -4.7131424 -0.28654838 -1.952248
v -6.98144 -0.5833096 -2.8918076
v -4.803258 -0.28654838 -1.7186337
v -7.1149263 -0.5833096 -2.5457606
v -4.8818016 -0.28654838 -1.4808785
v -7.2312684 -0.5833096 -2.1935816
v -4.948585 -0.28654838 -1.2395562
v -7.3301926 -0.5833096 -1.8361176
v -5.003446 -0.28654838 -0.9952475
v -7.411458 -0.5833096 -1.4742306
v -5.046254 -0.28654838 -0.7485413
v -7.4748664 -0.5833096 -1.1087918
v -5.0769053 -0.28654838 -0.50003165
v -7.5202684 -0.5833096 -0.74068195
v -5.095325 -0.28654838 -0.25031742
v -7.5475554 -0.5833096 -0.3707876
v -5.1014686 -0.28654838 -4.2835774E-07
v -7.5566545 -0.5833096 -6.193163E-07
v -4.202938 -0.2 -3.6497713E-07
v -4.1978774 -0.2 -0.20622884
v -3.393315 -0.19999999 -3.0155806E-07
v -3.3892288 -0.19999999 -0.16650246
v -4.1827016 -0.2 -0.41196045
v -3.3769767 -0.19999999 -0.3326033
v -4.1574492 -0.2 -0.6166997
v -3.3565884 -0.19999999 -0.49790332
v -4.122181 -0.2 -0.8199529
v -3.3281136 -0.19999999 -0.66200286
v -4.076982 -0.2 -1.021231
v -3.29162 -0.19999999 -0.8245085
v -4.021961 -0.2 -1.2200489
v -3.2471979 -0.19999999 -0.98502713
v -3.9572513 -0.2 -1.4159282
v -3.1949544 -0.19999999 -1.1431744
v -3.8830082 -0.2 -1.6083952
v -3.1350124 -0.19999999 -1.2985649
v -3.7994106 -0.2 -1.7969884
v -3.067518 -0.19999999 -1.4508289
v -3.70666 -0.2 -1.9812516
v -2.9926343 -0.19999999 -1.5995969
v -3.604981 -0.2 -2.1607425
v -2.9105442 -0.19999999 -1.7445134
v -3.4946153 -0.2 -2.3350277
v -2.8214364 -0.19999999 -1.8852255
v -3.3758314 -0.2 -2.503688
v -2.7255342 -0.19999999 -2.0213962
v -3.2489152 -0.2 -2.6663158
v -2.6230676 -0.19999999 -2.1526947
v -3.114171 -0.2 -2.8225207
v -2.514279 -0.19999999 -2.2788103
v -2.9719265 -0.2 -2.9719274
v -2.3994367 -0.19999999 -2.3994372
v -2.82252 -0.2 -3.1141715
v -2.2788093 -0.19999999 -2.5142791
v -2.666315 -0.2 -3.2489152
v -2.152694 -0.19999999 -2.6230676
v -2.5036876 -0.2 -3.3758314
v -2.0213954 -0.19999999 -2.7255342
v -2.3350275 -0.2 -3.4946153
v -1.8852249 -0.19999999 -2.8214364
v -2.1607423 -0.2 -3.604981
v -1.7445126 -0.19999999 -2.9105442
v -1.9812504 -0.2 -3.70666
v -1.5995959 -0.19999999 -2.9926343
v -1.7969869 -0.2 -3.7994103
v -1.4508278 -0.19999999 -3.067518
v -1.6083939 -0.2 -3.8830078
v -1.2985638 -0.19999999 -3.1350121
v -1.4159273 -0.2 -3.9572506
v -1.1431735 -0.19999999 -3.1949537
v -1.2200478 -0.2 -4.0219607
v -0.9850265 -0.19999999 -3.2471979
v -1.02123 -0.2 -4.0769806
v -0.82450753 -0.19999999 -3.291619
v -0.81995195 -0.2 -4.1221805
v -0.6620022 -0.19999999 -3.3281136
v -0.61669886 -0.2 -4.1574473
v -0.4979027 -0.19999999 -3.3565872
v -0.41195956 -0.2 -4.1827
v -0.3326026 -0.19999999 -3.3769753
v -0.20622806 -0.2 -4.1978755
v -0.1665018 -0.19999999 -3.3892274
v 3.0155806E-07 -0.19999999 -3.393315
v -5.1014686 -0.28654838 -4.2835774E-07
v -7.547551 -0.5833096 0.37078622
v -7.5566545 -0.5833096 -6.193163E-07
v -5.095323 -0.28654838 0.25031653
v -4.202938 -0.2 -3.6497713E-07
v -5.076904 -0.28654838 0.50003064
v -7.520267 -0.5833096 0.7406805
v -5.0462527 -0.28654838 0.7485403
v -7.4748645 -0.5833096 1.1087903
v -5.003445 -0.28654838 0.99524635
v -7.4114566 -0.5833096 1.474229
v -4.948583 -0.28654838 1.2395548
v -7.33019 -0.5833096 1.8361162
v -4.8818007 -0.28654838 1.4808773
v -7.2312675 -0.5833096 2.1935797
v -4.803257 -0.28654838 1.7186326
v -7.114925 -0.5833096 2.5457592
v -4.713142 -0.28654838 1.9522465
v -6.98144 -0.5833096 2.8918054
v -4.611673 -0.28654838 2.181158
v -6.8311357 -0.5833096 3.2308853
v -4.4990935 -0.28654838 2.4048145
v -6.664375 -0.5833096 3.562182
v -4.375676 -0.28654838 2.6226785
v -6.4815598 -0.5833096 3.8848958
v -4.241716 -0.28654838 2.8342237
v -6.2831283 -0.5833096 4.1982512
v -4.097538 -0.28654838 3.038941
v -6.069562 -0.5833096 4.501493
v -3.9434888 -0.28654838 3.2363365
v -5.841375 -0.5833096 4.7938914
v -3.779939 -0.28654838 3.4259362
v -5.599113 -0.5833096 5.074739
v -3.6072838 -0.28654838 3.607283
v -5.3433633 -0.5833096 5.343362
v -3.425937 -0.28654838 3.7799385
v -5.07474 -0.5833096 5.599113
v -3.2363374 -0.28654838 3.9434884
v -4.793892 -0.5833096 5.8413744
v -3.0389416 -0.28654838 4.097538
v -4.501495 -0.5833096 6.069562
v -2.8342242 -0.28654838 4.241716
v -4.198252 -0.5833096 6.2831283
v -2.6226795 -0.28654838 4.375676
v -3.8848972 -0.5833096 6.4815598
v -2.404816 -0.28654838 4.4990935
v -3.5621831 -0.5833096 6.6643753
v -2.1811595 -0.28654838 4.611673
v -3.2308865 -0.5833096 6.8311357
v -1.952248 -0.28654838 4.7131424
v -2.8918076 -0.5833096 6.98144
v -1.7186337 -0.28654838 4.803258
v -2.5457606 -0.5833096 7.1149263
v -1.4808785 -0.28654838 4.8818016
v -2.1935816 -0.5833096 7.2312684
v -1.2395562 -0.28654838 4.948585
v -1.8361176 -0.5833096 7.3301926
v -0.9952475 -0.28654838 5.003446
v -1.4742306 -0.5833096 7.411458
v -0.7485413 -0.28654838 5.046254
v -1.1087918 -0.5833096 7.4748664
v -0.50003165 -0.28654838 5.0769053
v -0.74068195 -0.5833096 7.5202684
v -0.25031742 -0.28654838 5.095325
v -0.3707876 -0.5833096 7.5475554
v -4.2835774E-07 -0.28654838 5.1014686
v -6.193163E-07 -0.5833096 7.5566545
v -3.6497713E-07 -0.2 4.202938
v -0.20622884 -0.2 4.1978774
v -3.0155806E-07 -0.19999999 3.393315
v -0.16650246 -0.19999999 3.3892288
v -0.41196045 -0.2 4.1827016
v -0.3326033 -0.19999999 3.3769767
v -0.6166997 -0.2 4.1574492
v -0.49790332 -0.19999999 3.3565884
v -0.8199529 -0.2 4.122181
v -0.66200286 -0.19999999 3.3281136
v -1.021231 -0.2 4.076982
v -0.8245085 -0.19999999 3.29162
v -1.2200489 -0.2 4.021961
v -0.98502713 -0.19999999 3.2471979
v -1.4159282 -0.2 3.9572513
v -1.1431744 -0.19999999 3.1949544
v -1.6083952 -0.2 3.8830082
v -1.2985649 -0.19999999 3.1350124
v -1.7969884 -0.2 3.7994106
v -1.4508289 -0.19999999 3.067518
v -1.9812516 -0.2 3.70666
v -1.5995969 -0.19999999 2.9926343
v -2.1607425 -0.2 3.604981
v -1.7445134 -0.19999999 2.9105442
v -2.3350277 -0.2 3.4946153
v -1.8852255 -0.19999999 2.8214364
v -2.503688 -0.2 3.3758314
v -2.0213962 -0.19999999 2.7255342
v -2.6663158 -0.2 3.2489152
v -2.1526947 -0.19999999 2.6230676
v -2.8225207 -0.2 3.114171
v -2.2788103 -0.19999999 2.514279
v -2.9719274 -0.2 2.9719265
v -2.3994372 -0.19999999 2.3994367
v -3.1141715 -0.2 2.82252
v -2.5142791 -0.19999999 2.2788093
v -3.2489152 -0.2 2.666315
v -2.6230676 -0.19999999 2.152694
v -3.3758314 -0.2 2.5036876
v -2.7255342 -0.19999999 2.0213954
v -3.4946153 -0.2 2.3350275
v -2.8214364 -0.19999999 1.8852249
v -3.604981 -0.2 2.1607423
v -2.9105442 -0.19999999 1.7445126
v -3.70666 -0.2 1.9812504
v -2.9926343 -0.19999999 1.5995959
v -3.7994103 -0.2 1.7969869
v -3.067518 -0.19999999 1.4508278
v -3.8830078 -0.2 1.6083939
v -3.1350121 -0.19999999 1.2985638
v -3.9572506 -0.2 1.4159273
v -3.1949537 -0.19999999 1.1431735
v -4.0219607 -0.2 1.2200478
v -3.2471979 -0.19999999 0.9850265
v -4.0769806 -0.2 1.02123
v -3.291619 -0.19999999 0.82450753
v -4.1221805 -0.2 0.81995195
v -3.3281136 -0.19999999 0.6620022
v -4.1574473 -0.2 0.61669886
v -3.3565872 -0.19999999 0.4979027
v -4.1827 -0.2 0.41195956
v -3.3769753 -0.19999999 0.3326026
v -4.1978755 -0.2 0.20622806
v -3.3892274 -0.19999999 0.1665018
v -3.393315 -0.19999999 -3.0155806E-07
vt 1 0.390625
vt 0.96875 0.49609375
vt 1 0.49609375
vt 0.96875 0.390625
vt 1 0.28125
vt 0.9375 0.390625
vt 0.9375 0.49609375
vt 0.90625 0.390625
vt 0.90625 0.49609375
vt 0.875 0.390625
vt 0.875 0.49609375
vt 0.84375 0.390625
vt 0.84375 0.49609375
vt 0.8125 0.390625
vt 0.8125 0.49609375
vt 0.78125 0.390625
vt 0.78125 0.49609375
vt 0.75 0.390625
vt 0.75 0.49609375
vt 0.71875 0.390625
vt 0.71875 0.49609375
vt 0.6875 0.390625
vt 0.6875 0.49609375
vt 0.65625 0.390625
vt 0.65625 0.49609375
vt 0.625 0.390625
vt 0.625 0.49609375
vt 0.59375 0.390625
vt 0.59375 0.49609375
vt 0.5625 0.390625
vt 0.5625 0.49609375
vt 0.53125 0.390625
vt 0.53125 0.49609375
vt 0.5 0.390625
vt 0.5 0.49609375
vt 0.46875 0.390625
vt 0.46875 0.49609375
vt 0.4375 0.390625
vt 0.4375 0.49609375
vt 0.40625 0.390625
vt 0.40625 0.49609375
vt 0.375 0.390625
vt 0.375 0.49609375
vt 0.34375 0.390625
vt 0.34375 0.49609375
vt 0.3125 0.390625
vt 0.3125 0.49609375
vt 0.28125 0.390625
vt 0.28125 0.49609375
vt 0.25 0.390625
vt 0.25 0.49609375
vt 0.21875 0.390625
vt 0.21875 0.49609375
vt 0.1875 0.390625
vt 0.1875 0.49609375
vt 0.15625 0.390625
vt 0.15625 0.49609375
vt 0.125 0.390625
vt 0.125 0.49609375
vt 0.09375 0.390625
vt 0.09375 0.49609375
vt 0.0625 0.390625
vt 0.0625 0.49609375
vt 0.03125 0.390625
vt 0.03125 0.49609375
vt 0 0.390625
vt 0 0.49609375
vt 0 0.28125
vt 0.03125 0.28125
vt 0 0.171875
vt 0.03125 0.171875
vt 0.0625 0.28125
vt 0.0625 0.171875
vt 0.09375 0.28125
vt 0.09375 0.171875
vt 0.125 0.28125
vt 0.125 0.171875
vt 0.15625 0.28125
vt 0.15625 0.171875
vt 0.1875 0.28125
vt 0.1875 0.171875
vt 0.21875 0.28125
vt 0.21875 0.171875
vt 0.25 0.28125
vt 0.25 0.171875
vt 0.28125 0.28125
vt 0.28125 0.171875
vt 0.3125 0.28125
vt 0.3125 0.171875
vt 0.34375 0.28125
vt 0.34375 0.171875
vt 0.375 0.28125
vt 0.375 0.171875
vt 0.40625 0.28125
vt 0.40625 0.171875
vt 0.4375 0.28125
vt 0.4375 0.171875
vt 0.46875 0.28125
vt 0.46875 0.171875
vt 0.5 0.28125
vt 0.5 0.171875
vt 0.53125 0.28125
vt 0.53125 0.171875
vt 0.5625 0.28125
vt 0.5625 0.171875
vt 0.59375 0.28125
vt 0.59375 0.171875
vt 0.625 0.28125
vt 0.625 0.171875
vt 0.65625 0.28125
vt 0.65625 0.171875
vt 0.6875 0.28125
vt 0.6875 0.171875
vt 0.71875 0.28125
vt 0.71875 0.171875
vt 0.75 0.28125
vt 0.75 0.171875
vt 0.78125 0.28125
vt 0.78125 0.171875
vt 0.8125 0.28125
vt 0.8125 0.171875
vt 0.84375 0.28125
vt 0.84375 0.171875
vt 0.875 0.28125
vt 0.875 0.171875
vt 0.90625 0.28125
vt 0.90625 0.171875
vt 0.9375 0.28125
vt 0.9375 0.171875
vt 0.96875 0.28125
vt 0.96875 0.171875
vt 1 0.171875
vt 1 0.390625
vt 0.96875 0.49609375
vt 1 0.49609375
vt 0.96875 0.390625
vt 1 0.28125
vt 0.9375 0.390625
vt 0.9375 0.49609375
vt 0.90625 0.390625
vt 0.90625 0.49609375
vt 0.875 0.390625
vt 0.875 0.49609375
vt 0.84375 0.390625
vt 0.84375 0.49609375
vt 0.8125 0.390625
vt 0.8125 0.49609375
vt 0.78125 0.390625
vt 0.78125 0.49609375
vt 0.75 0.390625
vt 0.75 0.49609375
vt 0.71875 0.390625
vt 0.71875 0.49609375
vt 0.6875 0.390625
vt 0.6875 0.49609375
vt 0.65625 0.390625
vt 0.65625 0.49609375
vt 0.625 0.390625
vt 0.625 0.49609375
vt 0.59375 0.390625
vt 0.59375 0.49609375
vt 0.5625 0.390625
vt 0.5625 0.49609375
vt 0.53125 0.390625
vt 0.53125 0.49609375
vt 0.5 0.390625
vt 0.5 0.49609375
vt 0.46875 0.390625
vt 0.46875 0.49609375
vt 0.4375 0.390625
vt 0.4375 0.49609375
vt 0.40625 0.390625
vt 0.40625 0.49609375
vt 0.375 0.390625
vt 0.375 0.49609375
vt 0.34375 0.390625
vt 0.34375 0.49609375
vt 0.3125 0.390625
vt 0.3125 0.49609375
vt 0.28125 0.390625
vt 0.28125 0.49609375
vt 0.25 0.390625
vt 0.25 0.49609375
vt 0.21875 0.390625
vt 0.21875 0.49609375
vt 0.1875 0.390625
vt 0.1875 0.49609375
vt 0.15625 0.390625
vt 0.15625 0.49609375
vt 0.125 0.390625
vt 0.125 0.49609375
vt 0.09375 0.390625
vt 0.09375 0.49609375
vt 0.0625 0.390625
vt 0.0625 0.49609375
vt 0.03125 0.390625
vt 0.03125 0.49609375
vt 0 0.390625
vt 0 0.49609375
vt 0 0.28125
vt 0.03125 0.28125
vt 0 0.171875
vt 0.03125 0.171875
vt 0.0625 0.28125
vt 0.0625 0.171875
vt 0.09375 0.28125
vt 0.09375 0.171875
vt 0.125 0.28125
vt 0.125 0.171875
vt 0.15625 0.28125
vt 0.15625 0.171875
vt 0.1875 0.28125
vt 0.1875 0.171875
vt 0.21875 0.28125
vt 0.21875 0.171875
vt 0.25 0.28125
vt 0.25 0.171875
vt 0.28125 0.28125
vt 0.28125 0.171875
vt 0.3125 0.28125
vt 0.3125 0.171875
vt 0.34375 0.28125
vt 0.34375 0.171875
vt 0.375 0.28125
vt 0.375 0.171875
vt 0.40625 0.28125
vt 0.40625 0.171875
vt 0.4375 0.28125
vt 0.4375 0.171875
vt 0.46875 0.28125
vt 0.46875 0.171875
vt 0.5 0.28125
vt 0.5 0.171875
vt 0.53125 0.28125
vt 0.53125 0.171875
vt 0.5625 0.28125
vt 0.5625 0.171875
vt 0.59375 0.28125
vt 0.59375 0.171875
vt 0.625 0.28125
vt 0.625 0.171875
vt 0.65625 0.28125
vt 0.65625 0.171875
vt 0.6875 0.28125
vt 0.6875 0.171875
vt 0.71875 0.28125
vt 0.71875 0.171875
vt 0.75 0.28125
vt 0.75 0.171875
vt 0.78125 0.28125
vt 0.78125 0.171875
vt 0.8125 0.28125
vt 0.8125 0.171875
vt 0.84375 0.28125
vt 0.84375 0.171875
vt 0.875 0.28125
vt 0.875 0.171875
vt 0.90625 0.28125
vt 0.90625 0.171875
vt 0.9375 0.28125
vt 0.9375 0.171875
vt 0.96875 0.28125
vt 0.96875 0.171875
vt 1 0.171875
vt 1 0.390625
vt 0.96875 0.49609375
vt 1 0.49609375
vt 0.96875 0.390625
vt 1 0.28125
vt 0.9375 0.390625
vt 0.9375 0.49609375
vt 0.90625 0.390625
vt 0.90625 0.49609375
vt 0.875 0.390625
vt 0.875 0.49609375
vt 0.84375 0.390625
vt 0.84375 0.49609375
vt 0.8125 0.390625
vt 0.8125 0.49609375
vt 0.78125 0.390625
vt 0.78125 0.49609375
vt 0.75 0.390625
vt 0.75 0.49609375
vt 0.71875 0.390625
vt 0.71875 0.49609375
vt 0.6875 0.390625
vt 0.6875 0.49609375
vt 0.65625 0.390625
vt 0.65625 0.49609375
vt 0.625 0.390625
vt 0.625 0.49609375
vt 0.59375 0.390625
vt 0.59375 0.49609375
vt 0.5625 0.390625
vt 0.5625 0.49609375
vt 0.53125 0.390625
vt 0.53125 0.49609375
vt 0.5 0.390625
vt 0.5 0.49609375
vt 0.46875 0.390625
vt 0.46875 0.49609375
vt 0.4375 0.390625
vt 0.4375 0.49609375
vt 0.40625 0.390625
vt 0.40625 0.49609375
vt 0.375 0.390625
vt 0.375 0.49609375
vt 0.34375 0.390625
vt 0.34375 0.49609375
vt 0.3125 0.390625
vt 0.3125 0.49609375
vt 0.28125 0.390625
vt 0.28125 0.49609375
vt 0.25 0.390625
vt 0.25 0.49609375
vt 0.21875 0.390625
vt 0.21875 0.49609375
vt 0.1875 0.390625
vt 0.1875 0.49609375
vt 0.15625 0.390625
vt 0.15625 0.49609375
vt 0.125 0.390625
vt 0.125 0.49609375
vt 0.09375 0.390625
vt 0.09375 0.49609375
vt 0.0625 0.390625
vt 0.0625 0.49609375
vt 0.03125 0.390625
vt 0.03125 0.49609375
vt 0 0.390625
vt 0 0.49609375
vt 0 0.28125
vt 0.03125 0.28125
vt 0 0.171875
vt 0.03125 0.171875
vt 0.0625 0.28125
vt 0.0625 0.171875
vt 0.09375 0.28125
vt 0.09375 0.171875
vt 0.125 0.28125
vt 0.125 0.171875
vt 0.15625 0.28125
vt 0.15625 0.171875
vt 0.1875 0.28125
vt 0.1875 0.171875
vt 0.21875 0.28125
vt 0.21875 0.171875
vt 0.25 0.28125
vt 0.25 0.171875
vt 0.28125 0.28125
vt 0.28125 0.171875
vt 0.3125 0.28125
vt 0.3125 0.171875
vt 0.34375 0.28125
vt 0.34375 0.171875
vt 0.375 0.28125
vt 0.375 0.171875
vt 0.40625 0.28125
vt 0.40625 0.171875
vt 0.4375 0.28125
vt 0.4375 0.171875
vt 0.46875 0.28125
vt 0.46875 0.171875
vt 0.5 0.28125
vt 0.5 0.171875
vt 0.53125 0.28125
vt 0.53125 0.171875
vt 0.5625 0.28125
vt 0.5625 0.171875
vt 0.59375 0.28125
vt 0.59375 0.171875
vt 0.625 0.28125
vt 0.625 0.171875
vt 0.65625 0.28125
vt 0.65625 0.171875
vt 0.6875 0.28125
vt 0.6875 0.171875
vt 0.71875 0.28125
vt 0.71875 0.171875
vt 0.75 0.28125
vt 0.75 0.171875
vt 0.78125 0.28125
vt 0.78125 0.171875
vt 0.8125 0.28125
vt 0.8125 0.171875
vt 0.84375 0.28125
vt 0.84375 0.171875
vt 0.875 0.28125
vt 0.875 0.171875
vt 0.90625 0.28125
vt 0.90625 0.171875
vt 0.9375 0.28125
vt 0.9375 0.171875
vt 0.96875 0.28125
vt 0.96875 0.171875
vt 1 0.171875
vt 1 0.390625
vt 0.96875 0.49609375
vt 1 0.49609375
vt 0.96875 0.390625
vt 1 0.28125
vt 0.9375 0.390625
vt 0.9375 0.49609375
vt 0.90625 0.390625
vt 0.90625 0.49609375
vt 0.875 0.390625
vt 0.875 0.49609375
vt 0.84375 0.390625
vt 0.84375 0.49609375
vt 0.8125 0.390625
vt 0.8125 0.49609375
vt 0.78125 0.390625
vt 0.78125 0.49609375
vt 0.75 0.390625
vt 0.75 0.49609375
vt 0.71875 0.390625
vt 0.71875 0.49609375
vt 0.6875 0.390625
vt 0.6875 0.49609375
vt 0.65625 0.390625
vt 0.65625 0.49609375
vt 0.625 0.390625
vt 0.625 0.49609375
vt 0.59375 0.390625
vt 0.59375 0.49609375
vt 0.5625 0.390625
vt 0.5625 0.49609375
vt 0.53125 0.390625
vt 0.53125 0.49609375
vt 0.5 0.390625
vt 0.5 0.49609375
vt 0.46875 0.390625
vt 0.46875 0.49609375
vt 0.4375 0.390625
vt 0.4375 0.49609375
vt 0.40625 0.390625
vt 0.40625 0.49609375
vt 0.375 0.390625
vt 0.375 0.49609375
vt 0.34375 0.390625
vt 0.34375 0.49609375
vt 0.3125 0.390625
vt 0.3125 0.49609375
vt 0.28125 0.390625
vt 0.28125 0.49609375
vt 0.25 0.390625
vt 0.25 0.49609375
vt 0.21875 0.390625
vt 0.21875 0.49609375
vt 0.1875 0.390625
vt 0.1875 0.49609375
vt 0.15625 0.390625
vt 0.15625 0.49609375
vt 0.125 0.390625
vt 0.125 0.49609375
vt 0.09375 0.390625
vt 0.09375 0.49609375
vt 0.0625 0.390625
vt 0.0625 0.49609375
vt 0.03125 0.390625
vt 0.03125 0.49609375
vt 0 0.390625
vt 0 0.49609375
vt 0 0.28125
vt 0.03125 0.28125
vt 0 0.171875
vt 0.03125 0.171875
vt 0.0625 0.28125
vt 0.0625 0.171875
vt 0.09375 0.28125
vt 0.09375 0.171875
vt 0.125 0.28125
vt 0.125 0.171875
vt 0.15625 0.28125
vt 0.15625 0.171875
vt 0.1875 0.28125
vt 0.1875 0.171875
vt 0.21875 0.28125
vt 0.21875 0.171875
vt 0.25 0.28125
vt 0.25 0.171875
vt 0.28125 0.28125
vt 0.28125 0.171875
vt 0.3125 0.28125
vt 0.3125 0.171875
vt 0.34375 0.28125
vt 0.34375 0.171875
vt 0.375 0.28125
vt 0.375 0.171875
vt 0.40625 0.28125
vt 0.40625 0.171875
vt 0.4375 0.28125
vt 0.4375 0.171875
vt 0.46875 0.28125
vt 0.46875 0.171875
vt 0.5 0.28125
vt 0.5 0.171875
vt 0.53125 0.28125
vt 0.53125 0.171875
vt 0.5625 0.28125
vt 0.5625 0.171875
vt 0.59375 0.28125
vt 0.59375 0.171875
vt 0.625 0.28125
vt 0.625 0.171875
vt 0.65625 0.28125
vt 0.65625 0.171875
vt 0.6875 0.28125
vt 0.6875 0.171875
vt 0.71875 0.28125
vt 0.71875 0.171875
vt 0.75 0.28125
vt 0.75 0.171875
vt 0.78125 0.28125
vt 0.78125 0.171875
vt 0.8125 0.28125
vt 0.8125 0.171875
vt 0.84375 0.28125
vt 0.84375 0.171875
vt 0.875 0.28125
vt 0.875 0.171875
vt 0.90625 0.28125
vt 0.90625 0.171875
vt 0.9375 0.28125
vt 0.9375 0.171875
vt 0.96875 0.28125
vt 0.96875 0.171875
vt 1 0.171875
g Battle_outercircle_0
f 3/3/3 2/2/2 1/1/1
f 2/2/2 4/4/4 1/1/1
f 1/1/1 4/4/4 5/5/5
f 6/6/6 4/4/4 2/2/2
f 7/7/7 6/6/6 2/2/2
f 8/8/8 6/6/6 7/7/7
f 9/9/9 8/8/8 7/7/7
f 10/10/10 8/8/8 9/9/9
f 11/11/11 10/10/10 9/9/9
f 12/12/12 10/10/10 11/11/11
f 13/13/13 12/12/12 11/11/11
f 14/14/14 12/12/12 13/13/13
f 15/15/15 14/14/14 13/13/13
f 16/16/16 14/14/14 15/15/15
f 17/17/17 16/16/16 15/15/15
f 18/18/18 16/16/16 17/17/17
f 19/19/19 18/18/18 17/17/17
f 20/20/20 18/18/18 19/19/19
f 21/21/21 20/20/20 19/19/19
f 22/22/22 20/20/20 21/21/21
f 23/23/23 22/22/22 21/21/21
f 24/24/24 22/22/22 23/23/23
f 25/25/25 24/24/24 23/23/23
f 26/26/26 24/24/24 25/25/25
f 27/27/27 26/26/26 25/25/25
f 28/28/28 26/26/26 27/27/27
f 29/29/29 28/28/28 27/27/27
f 30/30/30 28/28/28 29/29/29
f 31/31/31 30/30/30 29/29/29
f 32/32/32 30/30/30 31/31/31
f 33/33/33 32/32/32 31/31/31
f 34/34/34 32/32/32 33/33/33
f 35/35/35 34/34/34 33/33/33
f 36/36/36 34/34/34 35/35/35
f 37/37/37 36/36/36 35/35/35
f 38/38/38 36/36/36 37/37/37
f 39/39/39 38/38/38 37/37/37
f 40/40/40 38/38/38 39/39/39
f 41/41/41 40/40/40 39/39/39
f 42/42/42 40/40/40 41/41/41
f 43/43/43 42/42/42 41/41/41
f 44/44/44 42/42/42 43/43/43
f 45/45/45 44/44/44 43/43/43
f 46/46/46 44/44/44 45/45/45
f 47/47/47 46/46/46 45/45/45
f 48/48/48 46/46/46 47/47/47
f 49/49/49 48/48/48 47/47/47
f 50/50/50 48/48/48 49/49/49
f 51/51/51 50/50/50 49/49/49
f 52/52/52 50/50/50 51/51/51
f 53/53/53 52/52/52 51/51/51
f 54/54/54 52/52/52 53/53/53
f 55/55/55 54/54/54 53/53/53
f 56/56/56 54/54/54 55/55/55
f 57/57/57 56/56/56 55/55/55
f 58/58/58 56/56/56 57/57/57
f 59/59/59 58/58/58 57/57/57
f 60/60/60 58/58/58 59/59/59
f 61/61/61 60/60/60 59/59/59
f 62/62/62 60/60/60 61/61/61
f 63/63/63 62/62/62 61/61/61
f 64/64/64 62/62/62 63/63/63
f 65/65/65 64/64/64 63/63/63
f 66/66/66 64/64/64 65/65/65
f 67/67/67 66/66/66 65/65/65
f 66/66/66 68/68/68 64/64/64
f 68/68/68 69/69/69 64/64/64
f 64/64/64 69/69/69 62/62/62
f 68/68/68 70/70/70 69/69/69
f 70/70/70 71/71/71 69/69/69
f 69/69/69 72/72/72 62/62/62
f 69/69/69 71/71/71 72/72/72
f 62/62/62 72/72/72 60/60/60
f 71/71/71 73/73/73 72/72/72
f 72/72/72 74/74/74 60/60/60
f 72/72/72 73/73/73 74/74/74
f 60/60/60 74/74/74 58/58/58
f 73/73/73 75/75/75 74/74/74
f 74/74/74 76/76/76 58/58/58
f 74/74/74 75/75/75 76/76/76
f 58/58/58 76/76/76 56/56/56
f 75/75/75 77/77/77 76/76/76
f 76/76/76 78/78/78 56/56/56
f 76/76/76 77/77/77 78/78/78
f 56/56/56 78/78/78 54/54/54
f 77/77/77 79/79/79 78/78/78
f 78/78/78 80/80/80 54/54/54
f 78/78/78 79/79/79 80/80/80
f 54/54/54 80/80/80 52/52/52
f 79/79/79 81/81/81 80/80/80
f 80/80/80 82/82/82 52/52/52
f 80/80/80 81/81/81 82/82/82
f 52/52/52 82/82/82 50/50/50
f 81/81/81 83/83/83 82/82/82
f 82/82/82 84/84/84 50/50/50
f 82/82/82 83/83/83 84/84/84
f 50/50/50 84/84/84 48/48/48
f 83/83/83 85/85/85 84/84/84
f 84/84/84 86/86/86 48/48/48
f 84/84/84 85/85/85 86/86/86
f 48/48/48 86/86/86 46/46/46
f 85/85/85 87/87/87 86/86/86
f 86/86/86 88/88/88 46/46/46
f 86/86/86 87/87/87 88/88/88
f 46/46/46 88/88/88 44/44/44
f 87/87/87 89/89/89 88/88/88
f 88/88/88 90/90/90 44/44/44
f 88/88/88 89/89/89 90/90/90
f 44/44/44 90/90/90 42/42/42
f 89/89/89 91/91/91 90/90/90
f 90/90/90 92/92/92 42/42/42
f 90/90/90 91/91/91 92/92/92
f 42/42/42 92/92/92 40/40/40
f 91/91/91 93/93/93 92/92/92
f 92/92/92 94/94/94 40/40/40
f 92/92/92 93/93/93 94/94/94
f 40/40/40 94/94/94 38/38/38
f 93/93/93 95/95/95 94/94/94
f 94/94/94 96/96/96 38/38/38
f 94/94/94 95/95/95 96/96/96
f 38/38/38 96/96/96 36/36/36
f 95/95/95 97/97/97 96/96/96
f 96/96/96 98/98/98 36/36/36
f 96/96/96 97/97/97 98/98/98
f 36/36/36 98/98/98 34/34/34
f 97/97/97 99/99/99 98/98/98
f 98/98/98 100/100/100 34/34/34
f 98/98/98 99/99/99 100/100/100
f 34/34/34 100/100/100 32/32/32
f 99/99/99 101/101/101 100/100/100
f 100/100/100 102/102/102 32/32/32
f 100/100/100 101/101/101 102/102/102
f 32/32/32 102/102/102 30/30/30
f 101/101/101 103/103/103 102/102/102
f 102/102/102 104/104/104 30/30/30
f 102/102/102 103/103/103 104/104/104
f 30/30/30 104/104/104 28/28/28
f 103/103/103 105/105/105 104/104/104
f 104/104/104 106/106/106 28/28/28
f 104/104/104 105/105/105 106/106/106
f 28/28/28 106/106/106 26/26/26
f 105/105/105 107/107/107 106/106/106
f 106/106/106 108/108/108 26/26/26
f 106/106/106 107/107/107 108/108/108
f 26/26/26 108/108/108 24/24/24
f 107/107/107 109/109/109 108/108/108
f 108/108/108 110/110/110 24/24/24
f 108/108/108 109/109/109 110/110/110
f 24/24/24 110/110/110 22/22/22
f 109/109/109 111/111/111 110/110/110
f 110/110/110 112/112/112 22/22/22
f 110/110/110 111/111/111 112/112/112
f 22/22/22 112/112/112 20/20/20
f 111/111/111 113/113/113 112/112/112
f 112/112/112 114/114/114 20/20/20
f 112/112/112 113/113/113 114/114/114
f 20/20/20 114/114/114 18/18/18
f 113/113/113 115/115/115 114/114/114
f 114/114/114 116/116/116 18/18/18
f 114/114/114 115/115/115 116/116/116
f 18/18/18 116/116/116 16/16/16
f 115/115/115 117/117/117 116/116/116
f 116/116/116 118/118/118 16/16/16
f 116/116/116 117/117/117 118/118/118
f 16/16/16 118/118/118 14/14/14
f 117/117/117 119/119/119 118/118/118
f 118/118/118 120/120/120 14/14/14
f 118/118/118 119/119/119 120/120/120
f 14/14/14 120/120/120 12/12/12
f 119/119/119 121/121/121 120/120/120
f 120/120/120 122/122/122 12/12/12
f 120/120/120 121/121/121 122/122/122
f 12/12/12 122/122/122 10/10/10
f 121/121/121 123/123/123 122/122/122
f 122/122/122 124/124/124 10/10/10
f 122/122/122 123/123/123 124/124/124
f 10/10/10 124/124/124 8/8/8
f 123/123/123 125/125/125 124/124/124
f 124/124/124 126/126/126 8/8/8
f 124/124/124 125/125/125 126/126/126
f 8/8/8 126/126/126 6/6/6
f 125/125/125 127/127/127 126/126/126
f 126/126/126 128/128/128 6/6/6
f 126/126/126 127/127/127 128/128/128
f 6/6/6 128/128/128 4/4/4
f 127/127/127 129/129/129 128/128/128
f 128/128/128 130/130/130 4/4/4
f 128/128/128 129/129/129 130/130/130
f 4/4/4 130/130/130 5/5/5
f 129/129/129 131/131/131 130/130/130
f 130/130/130 131/131/131 5/5/5
f 131/131/131 132/132/132 5/5/5
f 135/135/135 134/134/134 133/133/133
f 134/134/134 136/136/136 133/133/133
f 133/133/133 136/136/136 137/137/137
f 138/138/138 136/136/136 134/134/134
f 139/139/139 138/138/138 134/134/134
f 140/140/140 138/138/138 139/139/139
f 141/141/141 140/140/140 139/139/139
f 142/142/142 140/140/140 141/141/141
f 143/143/143 142/142/142 141/141/141
f 144/144/144 142/142/142 143/143/143
f 145/145/145 144/144/144 143/143/143
f 146/146/146 144/144/144 145/145/145
f 147/147/147 146/146/146 145/145/145
f 148/148/148 146/146/146 147/147/147
f 149/149/149 148/148/148 147/147/147
f 150/150/150 148/148/148 149/149/149
f 151/151/151 150/150/150 149/149/149
f 152/152/152 150/150/150 151/151/151
f 153/153/153 152/152/152 151/151/151
f 154/154/154 152/152/152 153/153/153
f 155/155/155 154/154/154 153/153/153
f 156/156/156 154/154/154 155/155/155
f 157/157/157 156/156/156 155/155/155
f 158/158/158 156/156/156 157/157/157
f 159/159/159 158/158/158 157/157/157
f 160/160/160 158/158/158 159/159/159
f 161/161/161 160/160/160 159/159/159
f 162/162/162 160/160/160 161/161/161
f 163/163/163 162/162/162 161/161/161
f 164/164/164 162/162/162 163/163/163
f 165/165/165 164/164/164 163/163/163
f 166/166/166 164/164/164 165/165/165
f 167/167/167 166/166/166 165/165/165
f 168/168/168 166/166/166 167/167/167
f 169/169/169 168/168/168 167/167/167
f 170/170/170 168/168/168 169/169/169
f 171/171/171 170/170/170 169/169/169
f 172/172/172 170/170/170 171/171/171
f 173/173/173 172/172/172 171/171/171
f 174/174/174 172/172/172 173/173/173
f 175/175/175 174/174/174 173/173/173
f 176/176/176 174/174/174 175/175/175
f 177/177/177 176/176/176 175/175/175
f 178/178/178 176/176/176 177/177/177
f 179/179/179 178/178/178 177/177/177
f 180/180/180 178/178/178 179/179/179
f 181/181/181 180/180/180 179/179/179
f 182/182/182 180/180/180 181/181/181
f 183/183/183 182/182/182 181/181/181
f 184/184/184 182/182/182 183/183/183
f 185/185/185 184/184/184 183/183/183
f 186/186/186 184/184/184 185/185/185
f 187/187/187 186/186/186 185/185/185
f 188/188/188 186/186/186 187/187/187
f 189/189/189 188/188/188 187/187/187
f 190/190/190 188/188/188 189/189/189
f 191/191/191 190/190/190 189/189/189
f 192/192/192 190/190/190 191/191/191
f 193/193/193 192/192/192 191/191/191
f 194/194/194 192/192/192 193/193/193
f 195/195/195 194/194/194 193/193/193
f 196/196/196 194/194/194 195/195/195
f 197/197/197 196/196/196 195/195/195
f 198/198/198 196/196/196 197/197/197
f 199/199/199 198/198/198 197/197/197
f 198/198/198 200/200/200 196/196/196
f 200/200/200 201/201/201 196/196/196
f 196/196/196 201/201/201 194/194/194
f 200/200/200 202/202/202 201/201/201
f 202/202/202 203/203/203 201/201/201
f 201/201/201 204/204/204 194/194/194
f 201/201/201 203/203/203 204/204/204
f 194/194/194 204/204/204 192/192/192
f 203/203/203 205/205/205 204/204/204
f 204/204/204 206/206/206 192/192/192
f 204/204/204 205/205/205 206/206/206
f 192/192/192 206/206/206 190/190/190
f 205/205/205 207/207/207 206/206/206
f 206/206/206 208/208/208 190/190/190
f 206/206/206 207/207/207 208/208/208
f 190/190/190 208/208/208 188/188/188
f 207/207/207 209/209/209 208/208/208
f 208/208/208 210/210/210 188/188/188
f 208/208/208 209/209/209 210/210/210
f 188/188/188 210/210/210 186/186/186
f 209/209/209 211/211/211 210/210/210
f 210/210/210 212/212/212 186/186/186
f 210/210/210 211/211/211 212/212/212
f 186/186/186 212/212/212 184/184/184
f 211/211/211 213/213/213 212/212/212
f 212/212/212 214/214/214 184/184/184
f 212/212/212 213/213/213 214/214/214
f 184/184/184 214/214/214 182/182/182
f 213/213/213 215/215/215 214/214/214
f 214/214/214 216/216/216 182/182/182
f 214/214/214 215/215/215 216/216/216
f 182/182/182 216/216/216 180/180/180
f 215/215/215 217/217/217 216/216/216
f 216/216/216 218/218/218 180/180/180
f 216/216/216 217/217/217 218/218/218
f 180/180/180 218/218/218 178/178/178
f 217/217/217 219/219/219 218/218/218
f 218/218/218 220/220/220 178/178/178
f 218/218/218 219/219/219 220/220/220
f 178/178/178 220/220/220 176/176/176
f 219/219/219 221/221/221 220/220/220
f 220/220/220 222/222/222 176/176/176
f 220/220/220 221/221/221 222/222/222
f 176/176/176 222/222/222 174/174/174
f 221/221/221 223/223/223 222/222/222
f 222/222/222 224/224/224 174/174/174
f 222/222/222 223/223/223 224/224/224
f 174/174/174 224/224/224 172/172/172
f 223/223/223 225/225/225 224/224/224
f 224/224/224 226/226/226 172/172/172
f 224/224/224 225/225/225 226/226/226
f 172/172/172 226/226/226 170/170/170
f 225/225/225 227/227/227 226/226/226
f 226/226/226 228/228/228 170/170/170
f 226/226/226 227/227/227 228/228/228
f 170/170/170 228/228/228 168/168/168
f 227/227/227 229/229/229 228/228/228
f 228/228/228 230/230/230 168/168/168
f 228/228/228 229/229/229 230/230/230
f 168/168/168 230/230/230 166/166/166
f 229/229/229 231/231/231 230/230/230
f 230/230/230 232/232/232 166/166/166
f 230/230/230 231/231/231 232/232/232
f 166/166/166 232/232/232 164/164/164
f 231/231/231 233/233/233 232/232/232
f 232/232/232 234/234/234 164/164/164
f 232/232/232 233/233/233 234/234/234
f 164/164/164 234/234/234 162/162/162
f 233/233/233 235/235/235 234/234/234
f 234/234/234 236/236/236 162/162/162
f 234/234/234 235/235/235 236/236/236
f 162/162/162 236/236/236 160/160/160
f 235/235/235 237/237/237 236/236/236
f 236/236/236 238/238/238 160/160/160
f 236/236/236 237/237/237 238/238/238
f 160/160/160 238/238/238 158/158/158
f 237/237/237 239/239/239 238/238/238
f 238/238/238 240/240/240 158/158/158
f 238/238/238 239/239/239 240/240/240
f 158/158/158 240/240/240 156/156/156
f 239/239/239 241/241/241 240/240/240
f 240/240/240 242/242/242 156/156/156
f 240/240/240 241/241/241 242/242/242
f 156/156/156 242/242/242 154/154/154
f 241/241/241 243/243/243 242/242/242
f 242/242/242 244/244/244 154/154/154
f 242/242/242 243/243/243 244/244/244
f 154/154/154 244/244/244 152/152/152
f 243/243/243 245/245/245 244/244/244
f 244/244/244 246/246/246 152/152/152
f 244/244/244 245/245/245 246/246/246
f 152/152/152 246/246/246 150/150/150
f 245/245/245 247/247/247 246/246/246
f 246/246/246 248/248/248 150/150/150
f 246/246/246 247/247/247 248/248/248
f 150/150/150 248/248/248 148/148/148
f 247/247/247 249/249/249 248/248/248
f 248/248/248 250/250/250 148/148/148
f 248/248/248 249/249/249 250/250/250
f 148/148/148 250/250/250 146/146/146
f 249/249/249 251/251/251 250/250/250
f 250/250/250 252/252/252 146/146/146
f 250/250/250 251/251/251 252/252/252
f 146/146/146 252/252/252 144/144/144
f 251/251/251 253/253/253 252/252/252
f 252/252/252 254/254/254 144/144/144
f 252/252/252 253/253/253 254/254/254
f 144/144/144 254/254/254 142/142/142
f 253/253/253 255/255/255 254/254/254
f 254/254/254 256/256/256 142/142/142
f 254/254/254 255/255/255 256/256/256
f 142/142/142 256/256/256 140/140/140
f 255/255/255 257/257/257 256/256/256
f 256/256/256 258/258/258 140/140/140
f 256/256/256 257/257/257 258/258/258
f 140/140/140 258/258/258 138/138/138
f 257/257/257 259/259/259 258/258/258
f 258/258/258 260/260/260 138/138/138
f 258/258/258 259/259/259 260/260/260
f 138/138/138 260/260/260 136/136/136
f 259/259/259 261/261/261 260/260/260
f 260/260/260 262/262/262 136/136/136
f 260/260/260 261/261/261 262/262/262
f 136/136/136 262/262/262 137/137/137
f 261/261/261 263/263/263 262/262/262
f 262/262/262 263/263/263 137/137/137
f 263/263/263 264/264/264 137/137/137
f 267/267/267 266/266/266 265/265/265
f 266/266/266 268/268/268 265/265/265
f 265/265/265 268/268/268 269/269/269
f 270/270/270 268/268/268 266/266/266
f 271/271/271 270/270/270 266/266/266
f 272/272/272 270/270/270 271/271/271
f 273/273/273 272/272/272 271/271/271
f 274/274/274 272/272/272 273/273/273
f 275/275/275 274/274/274 273/273/273
f 276/276/276 274/274/274 275/275/275
f 277/277/277 276/276/276 275/275/275
f 278/278/278 276/276/276 277/277/277
f 279/279/279 278/278/278 277/277/277
f 280/280/280 278/278/278 279/279/279
f 281/281/281 280/280/280 279/279/279
f 282/282/282 280/280/280 281/281/281
f 283/283/283 282/282/282 281/281/281
f 284/284/284 282/282/282 283/283/283
f 285/285/285 284/284/284 283/283/283
f 286/286/286 284/284/284 285/285/285
f 287/287/287 286/286/286 285/285/285
f 288/288/288 286/286/286 287/287/287
f 289/289/289 288/288/288 287/287/287
f 290/290/290 288/288/288 289/289/289
f 291/291/291 290/290/290 289/289/289
f 292/292/292 290/290/290 291/291/291
f 293/293/293 292/292/292 291/291/291
f 294/294/294 292/292/292 293/293/293
f 295/295/295 294/294/294 293/293/293
f 296/296/296 294/294/294 295/295/295
f 297/297/297 296/296/296 295/295/295
f 298/298/298 296/296/296 297/297/297
f 299/299/299 298/298/298 297/297/297
f 300/300/300 298/298/298 299/299/299
f 301/301/301 300/300/300 299/299/299
f 302/302/302 300/300/300 301/301/301
f 303/303/303 302/302/302 301/301/301
f 304/304/304 302/302/302 303/303/303
f 305/305/305 304/304/304 303/303/303
f 306/306/306 304/304/304 305/305/305
f 307/307/307 306/306/306 305/305/305
f 308/308/308 306/306/306 307/307/307
f 309/309/309 308/308/308 307/307/307
f 310/310/310 308/308/308 309/309/309
f 311/311/311 310/310/310 309/309/309
f 312/312/312 310/310/310 311/311/311
f 313/313/313 312/312/312 311/311/311
f 314/314/314 312/312/312 313/313/313
f 315/315/315 314/314/314 313/313/313
f 316/316/316 314/314/314 315/315/315
f 317/317/317 316/316/316 315/315/315
f 318/318/318 316/316/316 317/317/317
f 319/319/319 318/318/318 317/317/317
f 320/320/320 318/318/318 319/319/319
f 321/321/321 320/320/320 319/319/319
f 322/322/322 320/320/320 321/321/321
f 323/323/323 322/322/322 321/321/321
f 324/324/324 322/322/322 323/323/323
f 325/325/325 324/324/324 323/323/323
f 326/326/326 324/324/324 325/325/325
f 327/327/327 326/326/326 325/325/325
f 328/328/328 326/326/326 327/327/327
f 329/329/329 328/328/328 327/327/327
f 330/330/330 328/328/328 329/329/329
f 331/331/331 330/330/330 329/329/329
f 330/330/330 332/332/332 328/328/328
f 332/332/332 333/333/333 328/328/328
f 328/328/328 333/333/333 326/326/326
f 332/332/332 334/334/334 333/333/333
f 334/334/334 335/335/335 333/333/333
f 333/333/333 336/336/336 326/326/326
f 333/333/333 335/335/335 336/336/336
f 326/326/326 336/336/336 324/324/324
f 335/335/335 337/337/337 336/336/336
f 336/336/336 338/338/338 324/324/324
f 336/336/336 337/337/337 338/338/338
f 324/324/324 338/338/338 322/322/322
f 337/337/337 339/339/339 338/338/338
f 338/338/338 340/340/340 322/322/322
f 338/338/338 339/339/339 340/340/340
f 322/322/322 340/340/340 320/320/320
f 339/339/339 341/341/341 340/340/340
f 340/340/340 342/342/342 320/320/320
f 340/340/340 341/341/341 342/342/342
f 320/320/320 342/342/342 318/318/318
f 341/341/341 343/343/343 342/342/342
f 342/342/342 344/344/344 318/318/318
f 342/342/342 343/343/343 344/344/344
f 318/318/318 344/344/344 316/316/316
f 343/343/343 345/345/345 344/344/344
f 344/344/344 346/346/346 316/316/316
f 344/344/344 345/345/345 346/346/346
f 316/316/316 346/346/346 314/314/314
f 345/345/345 347/347/347 346/346/346
f 346/346/346 348/348/348 314/314/314
f 346/346/346 347/347/347 348/348/348
f 314/314/314 348/348/348 312/312/312
f 347/347/347 349/349/349 348/348/348
f 348/348/348 350/350/350 312/312/312
f 348/348/348 349/349/349 350/350/350
f 312/312/312 350/350/350 310/310/310
f 349/349/349 351/351/351 350/350/350
f 350/350/350 352/352/352 310/310/310
f 350/350/350 351/351/351 352/352/352
f 310/310/310 352/352/352 308/308/308
f 351/351/351 353/353/353 352/352/352
f 352/352/352 354/354/354 308/308/308
f 352/352/352 353/353/353 354/354/354
f 308/308/308 354/354/354 306/306/306
f 353/353/353 355/355/355 354/354/354
f 354/354/354 356/356/356 306/306/306
f 354/354/354 355/355/355 356/356/356
f 306/306/306 356/356/356 304/304/304
f 355/355/355 357/357/357 356/356/356
f 356/356/356 358/358/358 304/304/304
f 356/356/356 357/357/357 358/358/358
f 304/304/304 358/358/358 302/302/302
f 357/357/357 359/359/359 358/358/358
f 358/358/358 360/360/360 302/302/302
f 358/358/358 359/359/359 360/360/360
f 302/302/302 360/360/360 300/300/300
f 359/359/359 361/361/361 360/360/360
f 360/360/360 362/362/362 300/300/300
f 360/360/360 361/361/361 362/362/362
f 300/300/300 362/362/362 298/298/298
f 361/361/361 363/363/363 362/362/362
f 362/362/362 364/364/364 298/298/298
f 362/362/362 363/363/363 364/364/364
f 298/298/298 364/364/364 296/296/296
f 363/363/363 365/365/365 364/364/364
f 364/364/364 366/366/366 296/296/296
f 364/364/364 365/365/365 366/366/366
f 296/296/296 366/366/366 294/294/294
f 365/365/365 367/367/367 366/366/366
f 366/366/366 368/368/368 294/294/294
f 366/366/366 367/367/367 368/368/368
f 294/294/294 368/368/368 292/292/292
f 367/367/367 369/369/369 368/368/368
f 368/368/368 370/370/370 292/292/292
f 368/368/368 369/369/369 370/370/370
f 292/292/292 370/370/370 290/290/290
f 369/369/369 371/371/371 370/370/370
f 370/370/370 372/372/372 290/290/290
f 370/370/370 371/371/371 372/372/372
f 290/290/290 372/372/372 288/288/288
f 371/371/371 373/373/373 372/372/372
f 372/372/372 374/374/374 288/288/288
f 372/372/372 373/373/373 374/374/374
f 288/288/288 374/374/374 286/286/286
f 373/373/373 375/375/375 374/374/374
f 374/374/374 376/376/376 286/286/286
f 374/374/374 375/375/375 376/376/376
f 286/286/286 376/376/376 284/284/284
f 375/375/375 377/377/377 376/376/376
f 376/376/376 378/378/378 284/284/284
f 376/376/376 377/377/377 378/378/378
f 284/284/284 378/378/378 282/282/282
f 377/377/377 379/379/379 378/378/378
f 378/378/378 380/380/380 282/282/282
f 378/378/378 379/379/379 380/380/380
f 282/282/282 380/380/380 280/280/280
f 379/379/379 381/381/381 380/380/380
f 380/380/380 382/382/382 280/280/280
f 380/380/380 381/381/381 382/382/382
f 280/280/280 382/382/382 278/278/278
f 381/381/381 383/383/383 382/382/382
f 382/382/382 384/384/384 278/278/278
f 382/382/382 383/383/383 384/384/384
f 278/278/278 384/384/384 276/276/276
f 383/383/383 385/385/385 384/384/384
f 384/384/384 386/386/386 276/276/276
f 384/384/384 385/385/385 386/386/386
f 276/276/276 386/386/386 274/274/274
f 385/385/385 387/387/387 386/386/386
f 386/386/386 388/388/388 274/274/274
f 386/386/386 387/387/387 388/388/388
f 274/274/274 388/388/388 272/272/272
f 387/387/387 389/389/389 388/388/388
f 388/388/388 390/390/390 272/272/272
f 388/388/388 389/389/389 390/390/390
f 272/272/272 390/390/390 270/270/270
f 389/389/389 391/391/391 390/390/390
f 390/390/390 392/392/392 270/270/270
f 390/390/390 391/391/391 392/392/392
f 270/270/270 392/392/392 268/268/268
f 391/391/391 393/393/393 392/392/392
f 392/392/392 394/394/394 268/268/268
f 392/392/392 393/393/393 394/394/394
f 268/268/268 394/394/394 269/269/269
f 393/393/393 395/395/395 394/394/394
f 394/394/394 395/395/395 269/269/269
f 395/395/395 396/396/396 269/269/269
f 399/399/399 398/398/398 397/397/397
f 398/398/398 400/400/400 397/397/397
f 397/397/397 400/400/400 401/401/401
f 402/402/402 400/400/400 398/398/398
f 403/403/403 402/402/402 398/398/398
f 404/404/404 402/402/402 403/403/403
f 405/405/405 404/404/404 403/403/403
f 406/406/406 404/404/404 405/405/405
f 407/407/407 406/406/406 405/405/405
f 408/408/408 406/406/406 407/407/407
f 409/409/409 408/408/408 407/407/407
f 410/410/410 408/408/408 409/409/409
f 411/411/411 410/410/410 409/409/409
f 412/412/412 410/410/410 411/411/411
f 413/413/413 412/412/412 411/411/411
f 414/414/414 412/412/412 413/413/413
f 415/415/415 414/414/414 413/413/413
f 416/416/416 414/414/414 415/415/415
f 417/417/417 416/416/416 415/415/415
f 418/418/418 416/416/416 417/417/417
f 419/419/419 418/418/418 417/417/417
f 420/420/420 418/418/418 419/419/419
f 421/421/421 420/420/420 419/419/419
f 422/422/422 420/420/420 421/421/421
f 423/423/423 422/422/422 421/421/421
f 424/424/424 422/422/422 423/423/423
f 425/425/425 424/424/424 423/423/423
f 426/426/426 424/424/424 425/425/425
f 427/427/427 426/426/426 425/425/425
f 428/428/428 426/426/426 427/427/427
f 429/429/429 428/428/428 427/427/427
f 430/430/430 428/428/428 429/429/429
f 431/431/431 430/430/430 429/429/429
f 432/432/432 430/430/430 431/431/431
f 433/433/433 432/432/432 431/431/431
f 434/434/434 432/432/432 433/433/433
f 435/435/435 434/434/434 433/433/433
f 436/436/436 434/434/434 435/435/435
f 437/437/437 436/436/436 435/435/435
f 438/438/438 436/436/436 437/437/437
f 439/439/439 438/438/438 437/437/437
f 440/440/440 438/438/438 439/439/439
f 441/441/441 440/440/440 439/439/439
f 442/442/442 440/440/440 441/441/441
f 443/443/443 442/442/442 441/441/441
f 444/444/444 442/442/442 443/443/443
f 445/445/445 444/444/444 443/443/443
f 446/446/446 444/444/444 445/445/445
f 447/447/447 446/446/446 445/445/445
f 448/448/448 446/446/446 447/447/447
f 449/449/449 448/448/448 447/447/447
f 450/450/450 448/448/448 449/449/449
f 451/451/451 450/450/450 449/449/449
f 452/452/452 450/450/450 451/451/451
f 453/453/453 452/452/452 451/451/451
f 454/454/454 452/452/452 453/453/453
f 455/455/455 454/454/454 453/453/453
f 456/456/456 454/454/454 455/455/455
f 457/457/457 456/456/456 455/455/455
f 458/458/458 456/456/456 457/457/457
f 459/459/459 458/458/458 457/457/457
f 460/460/460 458/458/458 459/459/459
f 461/461/461 460/460/460 459/459/459
f 462/462/462 460/460/460 461/461/461
f 463/463/463 462/462/462 461/461/461
f 462/462/462 464/464/464 460/460/460
f 464/464/464 465/465/465 460/460/460
f 460/460/460 465/465/465 458/458/458
f 464/464/464 466/466/466 465/465/465
f 466/466/466 467/467/467 465/465/465
f 465/465/465 468/468/468 458/458/458
f 465/465/465 467/467/467 468/468/468
f 458/458/458 468/468/468 456/456/456
f 467/467/467 469/469/469 468/468/468
f 468/468/468 470/470/470 456/456/456
f 468/468/468 469/469/469 470/470/470
f 456/456/456 470/470/470 454/454/454
f 469/469/469 471/471/471 470/470/470
f 470/470/470 472/472/472 454/454/454
f 470/470/470 471/471/471 472/472/472
f 454/454/454 472/472/472 452/452/452
f 471/471/471 473/473/473 472/472/472
f 472/472/472 474/474/474 452/452/452
f 472/472/472 473/473/473 474/474/474
f 452/452/452 474/474/474 450/450/450
f 473/473/473 475/475/475 474/474/474
f 474/474/474 476/476/476 450/450/450
f 474/474/474 475/475/475 476/476/476
f 450/450/450 476/476/476 448/448/448
f 475/475/475 477/477/477 476/476/476
f 476/476/476 478/478/478 448/448/448
f 476/476/476 477/477/477 478/478/478
f 448/448/448 478/478/478 446/446/446
f 477/477/477 479/479/479 478/478/478
f 478/478/478 480/480/480 446/446/446
f 478/478/478 479/479/479 480/480/480
f 446/446/446 480/480/480 444/444/444
f 479/479/479 481/481/481 480/480/480
f 480/480/480 482/482/482 444/444/444
f 480/480/480 481/481/481 482/482/482
f 444/444/444 482/482/482 442/442/442
f 481/481/481 483/483/483 482/482/482
f 482/482/482 484/484/484 442/442/442
f 482/482/482 483/483/483 484/484/484
f 442/442/442 484/484/484 440/440/440
f 483/483/483 485/485/485 484/484/484
f 484/484/484 486/486/486 440/440/440
f 484/484/484 485/485/485 486/486/486
f 440/440/440 486/486/486 438/438/438
f 485/485/485 487/487/487 486/486/486
f 486/486/486 488/488/488 438/438/438
f 486/486/486 487/487/487 488/488/488
f 438/438/438 488/488/488 436/436/436
f 487/487/487 489/489/489 488/488/488
f 488/488/488 490/490/490 436/436/436
f 488/488/488 489/489/489 490/490/490
f 436/436/436 490/490/490 434/434/434
f 489/489/489 491/491/491 490/490/490
f 490/490/490 492/492/492 434/434/434
f 490/490/490 491/491/491 492/492/492
f 434/434/434 492/492/492 432/432/432
f 491/491/491 493/493/493 492/492/492
f 492/492/492 494/494/494 432/432/432
f 492/492/492 493/493/493 494/494/494
f 432/432/432 494/494/494 430/430/430
f 493/493/493 495/495/495 494/494/494
f 494/494/494 496/496/496 430/430/430
f 494/494/494 495/495/495 496/496/496
f 430/430/430 496/496/496 428/428/428
f 495/495/495 497/497/497 496/496/496
f 496/496/496 498/498/498 428/428/428
f 496/496/496 497/497/497 498/498/498
f 428/428/428 498/498/498 426/426/426
f 497/497/497 499/499/499 498/498/498
f 498/498/498 500/500/500 426/426/426
f 498/498/498 499/499/499 500/500/500
f 426/426/426 500/500/500 424/424/424
f 499/499/499 501/501/501 500/500/500
f 500/500/500 502/502/502 424/424/424
f 500/500/500 501/501/501 502/502/502
f 424/424/424 502/502/502 422/422/422
f 501/501/501 503/503/503 502/502/502
f 502/502/502 504/504/504 422/422/422
f 502/502/502 503/503/503 504/504/504
f 422/422/422 504/504/504 420/420/420
f 503/503/503 505/505/505 504/504/504
f 504/504/504 506/506/506 420/420/420
f 504/504/504 505/505/505 506/506/506
f 420/420/420 506/506/506 418/418/418
f 505/505/505 507/507/507 506/506/506
f 506/506/506 508/508/508 418/418/418
f 506/506/506 507/507/507 508/508/508
f 418/418/418 508/508/508 416/416/416
f 507/507/507 509/509/509 508/508/508
f 508/508/508 510/510/510 416/416/416
f 508/508/508 509/509/509 510/510/510
f 416/416/416 510/510/510 414/414/414
f 509/509/509 511/511/511 510/510/510
f 510/510/510 512/512/512 414/414/414
f 510/510/510 511/511/511 512/512/512
f 414/414/414 512/512/512 412/412/412
f 511/511/511 513/513/513 512/512/512
f 512/512/512 514/514/514 412/412/412
f 512/512/512 513/513/513 514/514/514
f 412/412/412 514/514/514 410/410/410
f 513/513/513 515/515/515 514/514/514
f 514/514/514 516/516/516 410/410/410
f 514/514/514 515/515/515 516/516/516
f 410/410/410 516/516/516 408/408/408
f 515/515/515 517/517/517 516/516/516
f 516/516/516 518/518/518 408/408/408
f 516/516/516 517/517/517 518/518/518
f 408/408/408 518/518/518 406/406/406
f 517/517/517 519/519/519 518/518/518
f 518/518/518 520/520/520 406/406/406
f 518/518/518 519/519/519 520/520/520
f 406/406/406 520/520/520 404/404/404
f 519/519/519 521/521/521 520/520/520
f 520/520/520 522/522/522 404/404/404
f 520/520/520 521/521/521 522/522/522
f 404/404/404 522/522/522 402/402/402
f 521/521/521 523/523/523 522/522/522
f 522/522/522 524/524/524 402/402/402
f 522/522/522 523/523/523 524/524/524
f 402/402/402 524/524/524 400/400/400
f 523/523/523 525/525/525 524/524/524
f 524/524/524 526/526/526 400/400/400
f 524/524/524 525/525/525 526/526/526
f 400/400/400 526/526/526 401/401/401
f 525/525/525 527/527/527 526/526/526
f 526/526/526 527/527/527 401/401/401
f 527/527/527 528/528/528 401/401/401
