g body_top
v 0.3504714 0.55395496 0.0025000002
v 0.3543428 0.55395496 0.0025000002
v 0.3543428 0.55395496 -1.3883226E-06
v -0.35048637 0.55395496 -0.002502779
v -0.3543578 0.55395496 -1.3883226E-06
v -0.35048637 0.55395496 0.0025000002
v -0.3543578 0.55395496 -1.3883226E-06
v -0.3543578 0.55395496 0.0025000002
v -0.35048637 0.55395496 0.0025000002
v -0.35048637 0.55395496 -0.002502779
v -0.3543578 0.55395496 -0.0025027767
v -0.3543578 0.55395496 -1.3883226E-06
v -0.29160112 0.55395496 -0.002502779
v -0.35048637 0.55395496 0.0025000002
v -0.29160115 0.55395496 0.0025000002
v -0.22699852 0.55395496 -0.002502779
v -0.22699852 0.55395496 0.0025000002
v -0.17143093 0.55395496 -0.002502779
v -0.17143093 0.55395496 0.0025000002
v -0.11087737 0.55395496 -0.002502779
v -0.11087737 0.55395496 0.0025000002
v -0.08225596 0.55395496 -0.002502779
v -0.05363455 0.55395496 0.0025000002
v -0.05363455 0.55395496 -0.002502779
v -0.043942526 0.55395496 -0.002502779
v -0.021971263 0.55395496 -0.002502779
v -2.7755576E-18 0.55395496 0.0025000002
v -2.7755576E-18 0.55395496 -0.002502779
v 0.021971269 0.55395496 -0.002502779
v 0.043942537 0.55395496 -0.002502779
v 0.053634554 0.55395496 -0.002502779
v 0.05363455 0.55395496 0.0025000002
v 0.11087737 0.55395496 0.0025000002
v 0.08225596 0.55395496 -0.002502779
v 0.11087737 0.55395496 -0.002502779
v 0.17143093 0.55395496 -0.002502779
v 0.17143093 0.55395496 0.0025000002
v 0.22699852 0.55395496 -0.002502779
v 0.22699852 0.55395496 0.0025000002
v 0.29160115 0.55395496 -0.002502779
v 0.29160115 0.55395496 0.0025000002
v 0.3504714 0.55395496 -0.0025027792
v 0.3504714 0.55395496 0.0025000002
v 0.3543428 0.55395496 -1.3883226E-06
v 0.3543428 0.55395496 -0.0025027771
v -0.3543578 0.55395496 0.0025000002
v -0.3543578 0.5719349 0.0025000002
v -0.35048637 0.5719349 0.0025000002
v -0.35048637 0.55395496 0.0025000002
v -0.32104376 0.5724908 0.0025000002
v -0.29160115 0.55395496 0.0025000002
v -0.29160115 0.5730467 0.0025000002
v -0.25929984 0.5739084 0.0025000002
v -0.22699852 0.55395496 0.0025000002
v -0.22699852 0.57477003 0.0025000002
v -0.19921473 0.5745775 0.0025000002
v -0.17143093 0.55395496 0.0025000002
v -0.17143093 0.57438487 0.0025000002
v -0.14115416 0.57429594 0.0025000002
v -0.11087737 0.55395496 0.0025000002
v -0.11087737 0.57420707 0.0025000002
v -0.08225596 0.5736165 0.0025000002
v -0.05363455 0.55395496 0.0025000002
v -0.05363455 0.57302594 0.0025000002
v -0.026817275 0.57249475 0.0025000002
v -2.7755576E-18 0.55395496 0.0025000002
v -5.551115E-18 0.5719635 0.0025000002
v 0.026817275 0.5715463 0.0025000002
v 0.05363455 0.55395496 0.0025000002
v 0.05363455 0.5711291 0.0025000002
v 0.08225596 0.5713446 0.0025000002
v 0.11087737 0.55395496 0.0025000002
v 0.11087737 0.5715601 0.0025000002
v 0.14115416 0.5712101 0.0025000002
v 0.17143093 0.55395496 0.0025000002
v 0.17143093 0.5708601 0.0025000002
v 0.19921473 0.5709188 0.0025000002
v 0.22699852 0.55395496 0.0025000002
v 0.22699852 0.5709775 0.0025000002
v 0.25929984 0.5713002 0.0025000002
v 0.29160115 0.55395496 0.0025000002
v 0.29160115 0.5716228 0.0025000002
v 0.31930003 0.57177883 0.0025000002
v 0.3504714 0.55395496 0.0025000002
v 0.3504714 0.5719349 0.0025000002
v 0.3543428 0.5719349 0.0025000002
v 0.3543428 0.55395496 0.0025000002
v 0.3543428 0.55395496 -0.0025027771
v 0.3543428 0.5719349 -0.0025027767
v 0.3504714 0.5719349 -0.002502779
v 0.3504714 0.55395496 -0.0025027792
v 0.31930003 0.57177883 -0.002502779
v 0.29160115 0.55395496 -0.002502779
v 0.29160115 0.5716228 -0.002502779
v 0.25929984 0.5713002 -0.002502779
v 0.22699852 0.55395496 -0.002502779
v 0.22699852 0.5709775 -0.002502779
v 0.19921473 0.5709188 -0.002502779
v 0.17143093 0.55395496 -0.002502779
v 0.17143093 0.5708601 -0.002502779
v 0.14115416 0.5712101 -0.002502779
v 0.11087737 0.55395496 -0.002502779
v 0.11087737 0.5715601 -0.002502779
v 0.08225596 0.55395496 -0.002502779
v 0.08225596 0.5713446 -0.002502779
v 0.053634554 0.55395496 -0.002502779
v 0.05363455 0.5711291 -0.002502779
v 0.043942537 0.55395496 -0.002502779
v 0.026817275 0.5715463 -0.002502779
v 0.021971269 0.55395496 -0.002502779
v -5.551115E-18 0.5719635 -0.002502779
v -2.7755576E-18 0.55395496 -0.002502779
v -0.021971263 0.55395496 -0.002502779
v -0.026817275 0.57249475 -0.002502779
v -0.043942526 0.55395496 -0.002502779
v -0.05363455 0.57302594 -0.002502779
v -0.05363455 0.55395496 -0.002502779
v -0.08225596 0.55395496 -0.002502779
v -0.08225596 0.5736165 -0.002502779
v -0.11087737 0.55395496 -0.002502779
v -0.11087737 0.57420707 -0.002502779
v -0.14115416 0.57429594 -0.002502779
v -0.17143093 0.55395496 -0.002502779
v -0.17143093 0.57438487 -0.002502779
v -0.19921473 0.5745775 -0.002502779
v -0.22699852 0.55395496 -0.002502779
v -0.22699852 0.57477003 -0.002502779
v -0.25929984 0.5739084 -0.002502779
v -0.29160112 0.55395496 -0.002502779
v -0.29160115 0.5730467 -0.002502779
v -0.32104376 0.5724908 -0.002502779
v -0.35048637 0.55395496 -0.002502779
v -0.35048637 0.5719349 -0.002502779
v -0.3543578 0.5719349 -0.0025027767
v -0.3543578 0.55395496 -0.0025027767
v 0.3543428 0.5719349 -0.0025027767
v 0.3543428 0.55395496 -0.0025027771
v 0.3543428 0.55395496 -1.3883226E-06
v 0.3543428 0.5719349 -1.3883226E-06
v 0.3543428 0.5719349 0.0025000002
v 0.3543428 0.55395496 0.0025000002
v -0.3543578 0.55395496 -1.3883226E-06
v -0.3543578 0.55395496 -0.0025027767
v -0.3543578 0.5719349 -0.0025027767
v -0.3543578 0.5719349 -1.3883226E-06
v -0.3543578 0.5719349 0.0025000002
v -0.3543578 0.55395496 0.0025000002
v -0.3543578 0.5719349 0.0025000002
v -0.3543578 0.5719349 -1.3883226E-06
v -0.35311493 0.5719349 8.3786296E-17
v -0.3543578 0.5719349 -0.0025027767
v -0.35311645 0.5719349 0.0012459595
v -0.35311645 0.5719349 -0.0012459595
v -0.35048637 0.5719349 0.0025000002
v -0.3487257 0.57203436 0.0013200509
v -0.32104376 0.5724908 0.0025000002
v -0.3210513 0.5724908 0.0016599607
v -0.29160115 0.5730467 0.0025000002
v -0.29160115 0.5730467 0.002073962
v -0.25929984 0.5739084 0.0025000002
v -0.25929984 0.5739084 0.002073962
v -0.22699852 0.57477003 0.0025000002
v -0.22699852 0.57477003 0.002073962
v -0.19921473 0.5745775 0.0025000002
v -0.19921473 0.5745775 0.002073962
v -0.17143093 0.57438487 0.0025000002
v -0.17143093 0.57438487 0.002073962
v -0.14115416 0.57429594 0.0025000002
v -0.14115416 0.57429594 0.002073962
v -0.11087737 0.57420707 0.0025000002
v -0.11087737 0.57420707 0.002073962
v -0.08225596 0.5736165 0.0025000002
v -0.08225596 0.5736165 0.002073962
v -0.05363455 0.57302594 0.0025000002
v -0.05363455 0.57302594 0.002073962
v -0.026817275 0.57249475 0.0025000002
v -0.026817275 0.57249475 0.002073962
v -5.551115E-18 0.5719635 0.0025000002
v -5.551115E-18 0.5719635 0.002073962
v 0.026817275 0.5715463 0.0025000002
v 0.026817275 0.5715463 0.002073962
v 0.05363455 0.5711291 0.0025000002
v 0.05363455 0.5711291 0.002073962
v 0.08225596 0.5713446 0.0025000002
v 0.08225596 0.5713446 0.002073962
v 0.11087737 0.5715601 0.0025000002
v 0.11087737 0.5715601 0.002073962
v 0.14115416 0.5712101 0.0025000002
v 0.14115416 0.5712101 0.002073962
v 0.17143093 0.5708601 0.0025000002
v 0.17143093 0.5708601 0.002073962
v 0.19921473 0.5709188 0.0025000002
v 0.19921473 0.5709188 0.002073962
v 0.22699852 0.5709775 0.0025000002
v 0.22699852 0.5709775 0.002073962
v 0.25929984 0.5713002 0.0025000002
v 0.25929984 0.5713002 0.002073962
v 0.29160115 0.5716228 0.0025000002
v 0.29160115 0.5716228 0.002073962
v 0.31930003 0.57177883 0.0025000002
v 0.31925437 0.57177883 0.0016599607
v 0.3504714 0.5719349 0.0025000002
v 0.34881747 0.5719034 0.0013294484
v 0.3530743 0.5719349 0.0012459597
v 0.3543428 0.5719349 0.0025000002
v 0.3530999 0.5719349 8.793906E-17
v 0.3543428 0.5719349 -1.3883226E-06
v 0.3543428 0.5719349 -0.0025027767
v 0.3530743 0.5719349 -0.0012459597
v 0.3504714 0.5719349 -0.002502779
v 0.34878144 0.5718907 -0.0013632881
v 0.31930003 0.57177883 -0.002502779
v 0.31925437 0.57177883 -0.0016599607
v 0.29160115 0.5716228 -0.002502779
v 0.29160115 0.5716228 -0.002073962
v 0.25929984 0.5713002 -0.002502779
v 0.25929984 0.5713002 -0.002073962
v 0.22699852 0.5709775 -0.002502779
v 0.22699852 0.5709775 -0.002073962
v 0.19921473 0.5709188 -0.002502779
v 0.19921473 0.5709188 -0.002073962
v 0.17143093 0.5708601 -0.002502779
v 0.17143093 0.5708601 -0.002073962
v 0.14115416 0.5712101 -0.002502779
v 0.14115416 0.5712101 -0.002073962
v 0.11087737 0.5715601 -0.002502779
v 0.11087737 0.5715601 -0.002073962
v 0.08225596 0.5713446 -0.002502779
v 0.08225596 0.5713446 -0.002073962
v 0.05363455 0.5711291 -0.002502779
v 0.05363455 0.5711291 -0.002073962
v 0.026817275 0.5715463 -0.002502779
v 0.026817275 0.5715463 -0.002073962
v -5.551115E-18 0.5719635 -0.002502779
v -5.551115E-18 0.5719635 -0.002073962
v -0.026817275 0.57249475 -0.002502779
v -0.026817275 0.57249475 -0.002073962
v -0.05363455 0.57302594 -0.002502779
v -0.05363455 0.57302594 -0.002073962
v -0.08225596 0.5736165 -0.002502779
v -0.08225596 0.5736165 -0.002073962
v -0.11087737 0.57420707 -0.002502779
v -0.11087737 0.57420707 -0.002073962
v -0.14115416 0.57429594 -0.002502779
v -0.14115416 0.57429594 -0.002073962
v -0.17143093 0.57438487 -0.002502779
v -0.17143093 0.57438487 -0.002073962
v -0.19921473 0.5745775 -0.002502779
v -0.19921473 0.5745775 -0.002073962
v -0.22699852 0.57477003 -0.002502779
v -0.22699852 0.57477003 -0.002073962
v -0.25929984 0.5739084 -0.002502779
v -0.25929984 0.5739084 -0.002073962
v -0.29160115 0.5730467 -0.002502779
v -0.29160115 0.5730467 -0.002073962
v -0.32104376 0.5724908 -0.002502779
v -0.3210513 0.5724908 -0.0016599607
v -0.35048637 0.5719349 -0.002502779
v -0.3487257 0.5720606 -0.0013395594
vt 1.9863281 0.17883301
vt 1.9912109 0.17883301
vt 1.9921875 0.17883301
vt 1.0117188 0.17199707
vt 1.0078125 0.17883301
vt 1.0126953 0.17883301
vt 1.0078125 0.17883301
vt 1.0087891 0.17883301
vt 1.0126953 0.17883301
vt 1.0117188 0.17199707
vt 1.0068359 0.17199707
vt 1.0078125 0.17883301
vt 1.0947266 0.17199707
vt 1.0126953 0.17883301
vt 1.09375 0.17883301
vt 1.1845703 0.17199707
vt 1.1835938 0.17883301
vt 1.2617188 0.17199707
vt 1.2607422 0.17883301
vt 1.3457031 0.17199707
vt 1.3447266 0.17883301
vt 1.3857422 0.17199707
vt 1.4248047 0.17883301
vt 1.4248047 0.17199707
vt 1.4384766 0.17199707
vt 1.46875 0.17199707
vt 1.4990234 0.17883301
vt 1.5 0.17199707
vt 1.5302734 0.17199707
vt 1.5605469 0.17199707
vt 1.5742188 0.17199707
vt 1.5742188 0.17883301
vt 1.6533203 0.17883301
vt 1.6142578 0.17199707
vt 1.6533203 0.17199707
vt 1.7382812 0.17199707
vt 1.7373047 0.17883301
vt 1.8154297 0.17199707
vt 1.8144531 0.17883301
vt 1.9042969 0.17199707
vt 1.9042969 0.17883301
vt 1.9863281 0.17199707
vt 1.9863281 0.17883301
vt 1.9921875 0.17883301
vt 1.9921875 0.17883301
vt 1.0087891 0.18334961
vt 1.0087891 0.20825195
vt 1.0126953 0.20825195
vt 1.0126953 0.18334961
vt 1.0546875 0.20910645
vt 1.09375 0.18334961
vt 1.0947266 0.20983887
vt 1.1386719 0.21105957
vt 1.1835938 0.18334961
vt 1.1835938 0.21228027
vt 1.2226562 0.21191406
vt 1.2607422 0.18334961
vt 1.2607422 0.21166992
vt 1.3027344 0.21154785
vt 1.3447266 0.18334961
vt 1.3447266 0.21142578
vt 1.3847656 0.21057129
vt 1.4248047 0.18334961
vt 1.4248047 0.20983887
vt 1.4619141 0.20910645
vt 1.4990234 0.18334961
vt 1.4990234 0.20837402
vt 1.5361328 0.20776367
vt 1.5742188 0.18334961
vt 1.5742188 0.20715332
vt 1.6132812 0.20751953
vt 1.6533203 0.18334961
vt 1.6533203 0.20776367
vt 1.6953125 0.20727539
vt 1.7373047 0.18334961
vt 1.7373047 0.20678711
vt 1.7763672 0.20690918
vt 1.8144531 0.18334961
vt 1.8144531 0.20703125
vt 1.859375 0.20739746
vt 1.9042969 0.18334961
vt 1.9042969 0.20788574
vt 1.9433594 0.20812988
vt 1.9863281 0.18334961
vt 1.9863281 0.20825195
vt 1.9912109 0.20825195
vt 1.9912109 0.18334961
vt 1.9921875 0.12072754
vt 1.9921875 0.14562988
vt 1.9863281 0.14562988
vt 1.9863281 0.12072754
vt 1.9433594 0.14538574
vt 1.9042969 0.120666504
vt 1.9042969 0.14526367
vt 1.859375 0.14477539
vt 1.8154297 0.120666504
vt 1.8144531 0.14428711
vt 1.7763672 0.14428711
vt 1.7382812 0.120666504
vt 1.7382812 0.14416504
vt 1.6953125 0.14465332
vt 1.6533203 0.120666504
vt 1.6533203 0.1451416
vt 1.6142578 0.12072754
vt 1.6142578 0.14489746
vt 1.5742188 0.12072754
vt 1.5742188 0.14453125
vt 1.5605469 0.12072754
vt 1.5371094 0.1451416
vt 1.5302734 0.12072754
vt 1.5 0.14562988
vt 1.5 0.12072754
vt 1.46875 0.12072754
vt 1.4619141 0.1463623
vt 1.4384766 0.12072754
vt 1.4248047 0.14709473
vt 1.4248047 0.12072754
vt 1.3857422 0.12072754
vt 1.3857422 0.14794922
vt 1.3457031 0.12072754
vt 1.3457031 0.14880371
vt 1.3037109 0.14892578
vt 1.2617188 0.12072754
vt 1.2617188 0.14904785
vt 1.2226562 0.14929199
vt 1.1845703 0.12072754
vt 1.1845703 0.14953613
vt 1.1396484 0.1484375
vt 1.0947266 0.12072754
vt 1.0947266 0.1472168
vt 1.0546875 0.1463623
vt 1.0117188 0.12072754
vt 1.0126953 0.14562988
vt 1.0078125 0.14562988
vt 1.0068359 0.12072754
vt 1.9921875 0.20825195
vt 1.9921875 0.18334961
vt 1.9921875 0.18334961
vt 1.9921875 0.20825195
vt 1.9912109 0.20825195
vt 1.9912109 0.18334961
vt 1.0078125 0.18334961
vt 1.0068359 0.18334961
vt 1.0068359 0.20825195
vt 1.0078125 0.20825195
vt 1.0087891 0.20825195
vt 1.0087891 0.18334961
vt 1.0078125 0.06945801
vt 1.0078125 0.06945801
vt 1.0107422 0.06945801
vt 1.0078125 0.06945801
vt 1.0117188 0.06945801
vt 1.0117188 0.06945801
vt 1.0126953 0.06945801
vt 1.0195312 0.06945801
vt 1.0537109 0.06945801
vt 1.0537109 0.06945801
vt 1.0947266 0.06945801
vt 1.0947266 0.06945801
vt 1.1396484 0.06945801
vt 1.1396484 0.06945801
vt 1.1845703 0.06945801
vt 1.1845703 0.06945801
vt 1.2226562 0.06945801
vt 1.2226562 0.06945801
vt 1.2617188 0.06945801
vt 1.2617188 0.06945801
vt 1.3037109 0.06945801
vt 1.3037109 0.06945801
vt 1.3457031 0.06945801
vt 1.3457031 0.06945801
vt 1.3857422 0.06945801
vt 1.3857422 0.06945801
vt 1.4257812 0.06945801
vt 1.4257812 0.06945801
vt 1.4628906 0.06945801
vt 1.4628906 0.06945801
vt 1.5 0.06945801
vt 1.5 0.06945801
vt 1.5371094 0.06945801
vt 1.5371094 0.06945801
vt 1.5742188 0.06945801
vt 1.5742188 0.06945801
vt 1.6142578 0.06945801
vt 1.6142578 0.06945801
vt 1.6542969 0.06945801
vt 1.6542969 0.06945801
vt 1.6962891 0.06945801
vt 1.6962891 0.06945801
vt 1.7382812 0.06945801
vt 1.7382812 0.06945801
vt 1.7773438 0.06945801
vt 1.7773438 0.06945801
vt 1.8154297 0.06945801
vt 1.8154297 0.06945801
vt 1.8603516 0.06945801
vt 1.8603516 0.06945801
vt 1.9052734 0.06945801
vt 1.9052734 0.06945801
vt 1.9433594 0.06945801
vt 1.9462891 0.06945801
vt 1.9873047 0.06945801
vt 1.9794922 0.06945801
vt 1.9882812 0.06945801
vt 1.9921875 0.06945801
vt 1.9892578 0.06945801
vt 1.9921875 0.06945801
vt 1.9921875 0.06945801
vt 1.9882812 0.06945801
vt 1.9873047 0.06945801
vt 1.9765625 0.06945801
vt 1.9443359 0.06945801
vt 1.9462891 0.06945801
vt 1.9052734 0.06945801
vt 1.9052734 0.06945801
vt 1.8603516 0.06945801
vt 1.8603516 0.06945801
vt 1.8154297 0.06945801
vt 1.8154297 0.06945801
vt 1.7773438 0.06945801
vt 1.7773438 0.06945801
vt 1.7382812 0.06945801
vt 1.7382812 0.06945801
vt 1.6962891 0.06945801
vt 1.6962891 0.06945801
vt 1.6542969 0.06945801
vt 1.6542969 0.06945801
vt 1.6142578 0.06945801
vt 1.6142578 0.06945801
vt 1.5742188 0.06945801
vt 1.5742188 0.06945801
vt 1.5371094 0.06945801
vt 1.5371094 0.06945801
vt 1.5 0.06945801
vt 1.5 0.06945801
vt 1.4628906 0.06945801
vt 1.4628906 0.06945801
vt 1.4257812 0.06945801
vt 1.4257812 0.06945801
vt 1.3857422 0.06945801
vt 1.3857422 0.06945801
vt 1.3457031 0.06945801
vt 1.3457031 0.06945801
vt 1.3037109 0.06945801
vt 1.3037109 0.06945801
vt 1.2617188 0.06945801
vt 1.2617188 0.06945801
vt 1.2226562 0.06945801
vt 1.2226562 0.06945801
vt 1.1845703 0.06945801
vt 1.1845703 0.06945801
vt 1.1396484 0.06945801
vt 1.1396484 0.06945801
vt 1.0947266 0.06945801
vt 1.0947266 0.06945801
vt 1.0537109 0.06945801
vt 1.0537109 0.06945801
vt 1.0126953 0.06945801
vt 1.0214844 0.06945801
vn -0 -1 0
vn -0 -1 0
vn -0 -1 0
vn -0 -1 0
vn -0 -1 0
vn -0 -1 0
vn -0 -1 0
vn -0 -1 0
vn -0 -1 0
vn -0 -1 0
vn -0 -1 0
vn -0 -1 0
vn -0 -1 0
vn -0 -1 0
vn -0 -1 0
vn -0 -1 -7.376983E-06
vn -0 -1 -7.376983E-06
vn -0 -1 0
vn -0 -1 0
vn -0 -1 0
vn -0 -1 0
vn -0 -1 0
vn -0 -1 0
vn -0 -1 0
vn -0 -1 0
vn -0 -1 -8.410627E-06
vn -0 -1 -2.5647084E-06
vn -0 -1 0
vn -0 -1 0
vn -0 -1 -4.5325247E-05
vn -0 -1 6.210025E-06
vn -0 -1 6.8398704E-06
vn -0 -1 0
vn -0 -1 -3.1467494E-05
vn -0 -1 0
vn -0 -1 0
vn -0 -1 0
vn -0 -1 0
vn -0 -1 0
vn -0 -1 0
vn -0 -1 0
vn -0 -1 0
vn -0 -1 0
vn -0 -1 0
vn -0 -1 0
vn -0 0 1
vn -0 0 1
vn -0 0 1
vn -0 0 1
vn -0 0 1
vn -0 0 1
vn -0 0 1
vn -0 0 1
vn -0 0 1
vn -0 0 1
vn -0 0 1
vn -0 0 1
vn -0 0 1
vn -0 0 1
vn -0 0 1
vn -0 0 1
vn -0 0 1
vn -0 0 1
vn -0 0 1
vn -0 0 1
vn -0 0 1
vn -0 0 1
vn -0 0 1
vn -0 0 1
vn -0 0 1
vn -0 0 1
vn -0 0 1
vn -0 0 1
vn -0 0 1
vn -0 0 1
vn -0 0 1
vn -0 0 1
vn -0 0 1
vn -0 0 1
vn -0 0 1
vn -0 0 1
vn -0 0 1
vn -0 0 1
vn -0 0 1
vn -0 0 1
vn -0 0 1
vn -0 0 1
vn -0 0 -1
vn -0 0 -1
vn -0 0 -1
vn -0 0 -1
vn -0 0 -1
vn -0 0 -1
vn -0 0 -1
vn -0 0 -1
vn -0 0 -1
vn -0 0 -1
vn -0 0 -1
vn -0 0 -1
vn -0 0 -1
vn -0 0 -1
vn -0 0 -1
vn -0 0 -1
vn -0 0 -1
vn -0 0 -1
vn -0 0 -1
vn -0 0 -1
vn -0 0 -1
vn -0 0 -1
vn -0 0 -1
vn -0 0 -1
vn -0 0 -1
vn -0 0 -1
vn -0 0 -1
vn -0 0 -1
vn -0 0 -1
vn -0 0 -1
vn -0 0 -1
vn -0 0 -1
vn -0 0 -1
vn -0 0 -1
vn -0 0 -1
vn -0 0 -1
vn -0 0 -1
vn -0 0 -1
vn -0 0 -1
vn -0 0 -1
vn -0 0 -1
vn -0 0 -1
vn -0 0 -1
vn -0 0 -1
vn -0 0 -1
vn -0 0 -1
vn -0 0 -1
vn -0 0 -1
vn 1 -1.2784328E-06 0
vn 1 -1.2784327E-06 0
vn 1 0 0
vn 1 0 0
vn 1 0 0
vn 1 0 0
vn -1 0 0
vn -1 0 0
vn -1 0 0
vn -1 0 0
vn -1 0 0
vn -1 0 0
vn -2.1032423E-05 1 4.086608E-05
vn -3.836669E-05 1 0
vn -3.8382663E-05 1 0
vn -2.1004491E-05 1 -4.084192E-05
vn -0.0035385175 0.99996614 0.0074251136
vn -0.0044494574 0.99994683 -0.009311249
vn -0.018403003 0.99919015 0.03578338
vn -0.01803007 0.99925977 0.033983756
vn -0.018293543 0.99962354 0.020447863
vn -0.018284438 0.9996172 0.020763578
vn -0.022185415 0.9997539 7.356441E-05
vn -0.022168467 0.99975425 7.384256E-05
vn -0.026666475 0.9996444 0
vn -0.026666475 0.9996444 0
vn -0.011135143 0.999938 0
vn -0.011135143 0.999938 0
vn 0.0069308756 0.99997604 0
vn 0.0069308756 0.99997604 0
vn 0.0048487526 0.9999883 0
vn 0.0048487526 0.9999883 0
vn 0.0029364394 0.9999957 0
vn 0.0029364394 0.9999957 0
vn 0.011535168 0.9999335 0
vn 0.011535168 0.9999335 0
vn 0.020629218 0.9997873 0
vn 0.020629218 0.9997873 0
vn 0.020230094 0.9997954 0
vn 0.020230094 0.9997954 0
vn 0.019805001 0.99980384 0
vn 0.019805001 0.99980384 0
vn 0.017680408 0.9998437 0
vn 0.017680408 0.9998437 0
vn 0.015555576 0.999879 0
vn 0.015555576 0.999879 0
vn 0.0036382677 0.99999344 0
vn 0.0036382677 0.99999344 0
vn -0.0075293416 0.9999716 0
vn -0.0075293416 0.9999716 0
vn 0.002283862 0.9999974 0
vn 0.002283862 0.9999974 0
vn 0.011559192 0.99993324 0
vn 0.011559192 0.99993324 0
vn 0.0050171074 0.9999875 0
vn 0.0050171074 0.9999875 0
vn -0.0021126887 0.99999785 0
vn -0.0021126887 0.99999785 0
vn -0.006347108 0.99997985 0
vn -0.006347108 0.99997985 0
vn -0.00998832 0.9999502 0
vn -0.00998832 0.9999502 0
vn -0.0075500254 0.9999715 0.000114304756
vn -0.0075398628 0.9999716 0.0001147814
vn -0.005015393 0.9999589 -0.007559587
vn -0.0050421245 0.99996126 -0.0072251577
vn -0.0051172148 0.9999137 -0.012099542
vn -0.0047469027 0.9999193 -0.011787957
vn -0.0010952322 0.9999968 -0.0023184314
vn 2.1080843E-05 1 -3.6042372E-06
vn 3.808594E-05 1 -3.5837468E-06
vn 3.8365768E-05 1 0
vn 2.1053045E-05 1 0
vn -0.0015271674 0.9999937 0.0032050184
vn -0.005705273 0.99981266 0.018495405
vn -0.0046324553 0.99981874 0.01847161
vn -0.0049022655 0.999918 0.011838497
vn -0.0049343426 0.9999238 0.011312189
vn -0.0075523052 0.9999715 -0.00011369909
vn -0.007542138 0.9999716 -0.00011417374
vn -0.009988322 0.9999502 0
vn -0.009988322 0.9999502 0
vn -0.006347109 0.99997985 0
vn -0.006347109 0.99997985 0
vn -0.0021126892 0.99999785 0
vn -0.0021126892 0.99999785 0
vn 0.005017108 0.9999875 0
vn 0.005017108 0.9999875 0
vn 0.011559194 0.99993324 0
vn 0.011559194 0.99993324 0
vn 0.0022838644 0.9999974 0
vn 0.0022838644 0.9999974 0
vn -0.0075293425 0.9999716 0
vn -0.0075293425 0.9999716 0
vn 0.003638267 0.99999344 0
vn 0.003638267 0.99999344 0
vn 0.015555573 0.999879 0
vn 0.015555573 0.999879 0
vn 0.01768041 0.9998437 0
vn 0.01768041 0.9998437 0
vn 0.019805005 0.99980384 0
vn 0.019805005 0.99980384 0
vn 0.020230098 0.9997954 0
vn 0.020230098 0.9997954 0
vn 0.020629218 0.9997873 0
vn 0.020629218 0.9997873 0
vn 0.011535165 0.9999335 0
vn 0.011535165 0.9999335 0
vn 0.002936439 0.9999957 0
vn 0.002936439 0.9999957 0
vn 0.0048487526 0.9999883 0
vn 0.0048487526 0.9999883 0
vn 0.006930876 0.99997604 0
vn 0.006930876 0.99997604 0
vn -0.011135143 0.999938 0
vn -0.011135143 0.999938 0
vn -0.026666477 0.9996444 0
vn -0.026666477 0.9996444 0
vn -0.022189446 0.9997538 -7.317688E-05
vn -0.022172498 0.99975413 -7.3453906E-05
vn -0.018055016 0.99942756 -0.028611688
vn -0.018042224 0.99941504 -0.029051421
vn -0.019640429 0.99861777 -0.048752937
vn -0.017772106 0.99870634 -0.047641676
g body_top_0
f 3/3/3 2/2/2 1/1/1
f 6/6/6 5/5/5 4/4/4
f 9/9/9 8/8/8 7/7/7
f 12/12/12 11/11/11 10/10/10
f 14/14/14 10/10/10 13/13/13
f 15/15/15 14/14/14 13/13/13
f 15/15/15 13/13/13 16/16/16
f 17/17/17 15/15/15 16/16/16
f 17/17/17 16/16/16 18/18/18
f 19/19/19 17/17/17 18/18/18
f 19/19/19 18/18/18 20/20/20
f 21/21/21 19/19/19 20/20/20
f 20/20/20 22/22/22 21/21/21
f 21/21/21 22/22/22 23/23/23
f 23/23/23 22/22/22 24/24/24
f 24/24/24 25/25/25 23/23/23
f 23/23/23 25/25/25 26/26/26
f 23/23/23 26/26/26 27/27/27
f 27/27/27 26/26/26 28/28/28
f 28/28/28 29/29/29 27/27/27
f 27/27/27 29/29/29 30/30/30
f 27/27/27 30/30/30 31/31/31
f 27/27/27 31/31/31 32/32/32
f 31/31/31 33/33/33 32/32/32
f 34/34/34 33/33/33 31/31/31
f 35/35/35 33/33/33 34/34/34
f 35/35/35 36/36/36 33/33/33
f 36/36/36 37/37/37 33/33/33
f 36/36/36 38/38/38 37/37/37
f 38/38/38 39/39/39 37/37/37
f 38/38/38 40/40/40 39/39/39
f 40/40/40 41/41/41 39/39/39
f 40/40/40 42/42/42 41/41/41
f 42/42/42 43/43/43 41/41/41
f 42/42/42 44/44/44 43/43/43
f 42/42/42 45/45/45 44/44/44
f 48/48/48 47/47/47 46/46/46
f 49/49/49 48/48/48 46/46/46
f 50/50/50 48/48/48 49/49/49
f 50/50/50 49/49/49 51/51/51
f 52/52/52 50/50/50 51/51/51
f 53/53/53 52/52/52 51/51/51
f 53/53/53 51/51/51 54/54/54
f 55/55/55 53/53/53 54/54/54
f 56/56/56 55/55/55 54/54/54
f 56/56/56 54/54/54 57/57/57
f 56/56/56 57/57/57 58/58/58
f 59/59/59 58/58/58 57/57/57
f 59/59/59 57/57/57 60/60/60
f 61/61/61 59/59/59 60/60/60
f 62/62/62 61/61/61 60/60/60
f 62/62/62 60/60/60 63/63/63
f 64/64/64 62/62/62 63/63/63
f 65/65/65 64/64/64 63/63/63
f 65/65/65 63/63/63 66/66/66
f 65/65/65 66/66/66 67/67/67
f 68/68/68 67/67/67 66/66/66
f 68/68/68 66/66/66 69/69/69
f 70/70/70 68/68/68 69/69/69
f 71/71/71 70/70/70 69/69/69
f 71/71/71 69/69/69 72/72/72
f 73/73/73 71/71/71 72/72/72
f 74/74/74 73/73/73 72/72/72
f 74/74/74 72/72/72 75/75/75
f 74/74/74 75/75/75 76/76/76
f 77/77/77 76/76/76 75/75/75
f 77/77/77 75/75/75 78/78/78
f 79/79/79 77/77/77 78/78/78
f 80/80/80 79/79/79 78/78/78
f 80/80/80 78/78/78 81/81/81
f 82/82/82 80/80/80 81/81/81
f 83/83/83 82/82/82 81/81/81
f 83/83/83 81/81/81 84/84/84
f 83/83/83 84/84/84 85/85/85
f 86/86/86 85/85/85 84/84/84
f 87/87/87 86/86/86 84/84/84
f 90/90/90 89/89/89 88/88/88
f 91/91/91 90/90/90 88/88/88
f 92/92/92 90/90/90 91/91/91
f 92/92/92 91/91/91 93/93/93
f 94/94/94 92/92/92 93/93/93
f 95/95/95 94/94/94 93/93/93
f 95/95/95 93/93/93 96/96/96
f 97/97/97 95/95/95 96/96/96
f 98/98/98 97/97/97 96/96/96
f 98/98/98 96/96/96 99/99/99
f 100/100/100 98/98/98 99/99/99
f 101/101/101 100/100/100 99/99/99
f 101/101/101 99/99/99 102/102/102
f 103/103/103 101/101/101 102/102/102
f 103/103/103 102/102/102 104/104/104
f 105/105/105 103/103/103 104/104/104
f 105/105/105 104/104/104 106/106/106
f 107/107/107 105/105/105 106/106/106
f 107/107/107 106/106/106 108/108/108
f 109/109/109 107/107/107 108/108/108
f 108/108/108 110/110/110 109/109/109
f 110/110/110 111/111/111 109/109/109
f 110/110/110 112/112/112 111/111/111
f 111/111/111 112/112/112 113/113/113
f 111/111/111 113/113/113 114/114/114
f 113/113/113 115/115/115 114/114/114
f 116/116/116 114/114/114 115/115/115
f 117/117/117 116/116/116 115/115/115
f 116/116/116 117/117/117 118/118/118
f 119/119/119 116/116/116 118/118/118
f 119/119/119 118/118/118 120/120/120
f 121/121/121 119/119/119 120/120/120
f 120/120/120 122/122/122 121/121/121
f 120/120/120 123/123/123 122/122/122
f 123/123/123 124/124/124 122/122/122
f 125/125/125 124/124/124 123/123/123
f 125/125/125 123/123/123 126/126/126
f 127/127/127 125/125/125 126/126/126
f 128/128/128 127/127/127 126/126/126
f 128/128/128 126/126/126 129/129/129
f 130/130/130 128/128/128 129/129/129
f 131/131/131 130/130/130 129/129/129
f 131/131/131 129/129/129 132/132/132
f 133/133/133 131/131/131 132/132/132
f 134/134/134 133/133/133 132/132/132
f 135/135/135 134/134/134 132/132/132
f 138/138/138 137/137/137 136/136/136
f 139/139/139 138/138/138 136/136/136
f 139/139/139 140/140/140 138/138/138
f 140/140/140 141/141/141 138/138/138
f 144/144/144 143/143/143 142/142/142
f 145/145/145 144/144/144 142/142/142
f 145/145/145 142/142/142 146/146/146
f 142/142/142 147/147/147 146/146/146
f 150/150/150 149/149/149 148/148/148
f 150/150/150 151/151/151 149/149/149
f 152/152/152 150/150/150 148/148/148
f 150/150/150 153/153/153 151/151/151
f 154/154/154 152/152/152 148/148/148
f 154/154/154 155/155/155 152/152/152
f 154/154/154 156/156/156 155/155/155
f 156/156/156 157/157/157 155/155/155
f 156/156/156 158/158/158 157/157/157
f 158/158/158 159/159/159 157/157/157
f 158/158/158 160/160/160 159/159/159
f 160/160/160 161/161/161 159/159/159
f 160/160/160 162/162/162 161/161/161
f 162/162/162 163/163/163 161/161/161
f 162/162/162 164/164/164 163/163/163
f 164/164/164 165/165/165 163/163/163
f 164/164/164 166/166/166 165/165/165
f 166/166/166 167/167/167 165/165/165
f 166/166/166 168/168/168 167/167/167
f 168/168/168 169/169/169 167/167/167
f 168/168/168 170/170/170 169/169/169
f 170/170/170 171/171/171 169/169/169
f 170/170/170 172/172/172 171/171/171
f 172/172/172 173/173/173 171/171/171
f 172/172/172 174/174/174 173/173/173
f 174/174/174 175/175/175 173/173/173
f 174/174/174 176/176/176 175/175/175
f 176/176/176 177/177/177 175/175/175
f 176/176/176 178/178/178 177/177/177
f 178/178/178 179/179/179 177/177/177
f 178/178/178 180/180/180 179/179/179
f 180/180/180 181/181/181 179/179/179
f 180/180/180 182/182/182 181/181/181
f 182/182/182 183/183/183 181/181/181
f 182/182/182 184/184/184 183/183/183
f 184/184/184 185/185/185 183/183/183
f 184/184/184 186/186/186 185/185/185
f 186/186/186 187/187/187 185/185/185
f 186/186/186 188/188/188 187/187/187
f 188/188/188 189/189/189 187/187/187
f 188/188/188 190/190/190 189/189/189
f 190/190/190 191/191/191 189/189/189
f 190/190/190 192/192/192 191/191/191
f 192/192/192 193/193/193 191/191/191
f 192/192/192 194/194/194 193/193/193
f 194/194/194 195/195/195 193/193/193
f 194/194/194 196/196/196 195/195/195
f 196/196/196 197/197/197 195/195/195
f 196/196/196 198/198/198 197/197/197
f 198/198/198 199/199/199 197/197/197
f 198/198/198 200/200/200 199/199/199
f 200/200/200 201/201/201 199/199/199
f 200/200/200 202/202/202 201/201/201
f 202/202/202 203/203/203 201/201/201
f 202/202/202 204/204/204 203/203/203
f 205/205/205 204/204/204 202/202/202
f 205/205/205 206/206/206 204/204/204
f 207/207/207 206/206/206 205/205/205
f 207/207/207 208/208/208 206/206/206
f 209/209/209 206/206/206 208/208/208
f 210/210/210 209/209/209 208/208/208
f 211/211/211 209/209/209 210/210/210
f 211/211/211 210/210/210 212/212/212
f 213/213/213 211/211/211 212/212/212
f 213/213/213 212/212/212 214/214/214
f 215/215/215 213/213/213 214/214/214
f 215/215/215 214/214/214 216/216/216
f 217/217/217 215/215/215 216/216/216
f 217/217/217 216/216/216 218/218/218
f 219/219/219 217/217/217 218/218/218
f 219/219/219 218/218/218 220/220/220
f 221/221/221 219/219/219 220/220/220
f 221/221/221 220/220/220 222/222/222
f 223/223/223 221/221/221 222/222/222
f 223/223/223 222/222/222 224/224/224
f 225/225/225 223/223/223 224/224/224
f 225/225/225 224/224/224 226/226/226
f 227/227/227 225/225/225 226/226/226
f 227/227/227 226/226/226 228/228/228
f 229/229/229 227/227/227 228/228/228
f 229/229/229 228/228/228 230/230/230
f 231/231/231 229/229/229 230/230/230
f 231/231/231 230/230/230 232/232/232
f 233/233/233 231/231/231 232/232/232
f 233/233/233 232/232/232 234/234/234
f 235/235/235 233/233/233 234/234/234
f 235/235/235 234/234/234 236/236/236
f 237/237/237 235/235/235 236/236/236
f 237/237/237 236/236/236 238/238/238
f 239/239/239 237/237/237 238/238/238
f 239/239/239 238/238/238 240/240/240
f 241/241/241 239/239/239 240/240/240
f 241/241/241 240/240/240 242/242/242
f 243/243/243 241/241/241 242/242/242
f 243/243/243 242/242/242 244/244/244
f 245/245/245 243/243/243 244/244/244
f 245/245/245 244/244/244 246/246/246
f 247/247/247 245/245/245 246/246/246
f 247/247/247 246/246/246 248/248/248
f 249/249/249 247/247/247 248/248/248
f 249/249/249 248/248/248 250/250/250
f 251/251/251 249/249/249 250/250/250
f 251/251/251 250/250/250 252/252/252
f 253/253/253 251/251/251 252/252/252
f 253/253/253 252/252/252 254/254/254
f 255/255/255 253/253/253 254/254/254
f 255/255/255 254/254/254 256/256/256
f 257/257/257 255/255/255 256/256/256
f 257/257/257 256/256/256 258/258/258
f 259/259/259 257/257/257 258/258/258
f 153/153/153 259/259/259 258/258/258
f 153/153/153 258/258/258 151/151/151
