g body_bottom
v -0.35048637 -0.52329195 0.002502779
v -0.35435778 -0.561808 0.0025027767
v -0.35435778 -0.52329195 0.0025027767
v -0.35048646 -0.56165093 0.002502779
v -0.35329756 -0.5685019 0.0025027771
v -0.32134464 -0.52329195 0.002502779
v -0.34959504 -0.56752133 0.0025027795
v -0.3502207 -0.57454056 0.0025027771
v -0.3470426 -0.5725218 0.0025027792
v -0.3454284 -0.5793328 0.0025027771
v -0.3432909 -0.57651085 0.002502779
v -0.33938977 -0.58240974 0.0025027774
v -0.33805296 -0.5790633 0.0025027795
v -0.33269584 -0.58347 0.002502777
v -0.33253875 -0.5801441 0.0025027792
v -0.31244937 -0.58347005 0.0025027764
v -0.31237084 -0.580144 0.0025027792
v -0.29220292 -0.5834701 0.0025027762
v -0.29220292 -0.58014387 0.0025027795
v -0.29220292 -0.52329195 0.002502779
v -0.26000148 -0.5834703 0.0025027764
v -0.26000148 -0.5801437 0.0025027797
v -0.26200992 -0.5232919 0.002502779
v -0.22780001 -0.58347034 0.0025027767
v -0.22780001 -0.5801435 0.0025027802
v -0.23181692 -0.5232919 0.002502779
v -0.19961546 -0.58347046 0.0025027771
v -0.19961546 -0.5801434 0.0025027792
v -0.20162392 -0.5232919 0.002502779
v -0.17143093 -0.5834706 0.0025027774
v -0.17143093 -0.5232919 0.002502779
v -0.17143093 -0.5801432 0.0025027788
v -0.14166546 -0.5834707 0.0025027771
v -0.14166546 -0.5801431 0.0025027792
v -0.1285732 -0.5232919 0.002502779
v -0.1120955 -0.582404 0.0025028
v -0.111899994 -0.58347076 0.0025027771
v -0.111899994 -0.5801429 0.0025027802
v -0.085715465 -0.5232919 0.002502779
v -0.08458786 -0.5801427 0.0025027797
v -0.08452182 -0.58347094 0.0025027771
v -0.057143636 -0.583471 0.002502777
v -0.05714364 -0.58014256 0.0025027792
v -0.028571818 -0.5834711 0.0025027767
v -0.042857733 -0.5232919 0.002502779
v -0.02857182 -0.58014244 0.0025027795
v -0 -0.58347124 0.0025027767
v -0 -0.58014226 0.0025027797
v -0 -0.5232918 0.002502779
v 0.02857182 -0.5834711 0.0025027767
v 0.02857182 -0.58014244 0.0025027795
v 0.05714364 -0.583471 0.0025027767
v 0.042857733 -0.5232919 0.002502779
v 0.05714364 -0.5801426 0.0025027792
v 0.08452182 -0.5834709 0.002502777
v 0.08452182 -0.58014274 0.0025027797
v 0.085715465 -0.5232919 0.002502779
v 0.111899994 -0.58347076 0.0025027771
v 0.111899994 -0.5801429 0.0025027802
v 0.14166546 -0.5834707 0.0025027771
v 0.1285732 -0.5232919 0.002502779
v 0.14166546 -0.5801431 0.0025027792
v 0.17143093 -0.5834706 0.0025027774
v 0.17143093 -0.5801432 0.0025027788
v 0.17143093 -0.52329195 0.002502779
v 0.19961546 -0.58347046 0.0025027771
v 0.19961548 -0.5801434 0.0025027792
v 0.20162392 -0.52329195 0.002502779
v 0.22780001 -0.58347034 0.0025027767
v 0.22780001 -0.5801435 0.0025027802
v 0.23181692 -0.52329195 0.002502779
v 0.26000148 -0.5834703 0.0025027764
v 0.26000148 -0.5801437 0.0025027797
v 0.26200992 -0.52329195 0.002502779
v 0.29220292 -0.5834701 0.0025027762
v 0.29220292 -0.52329195 0.002502779
v 0.29220292 -0.58014387 0.0025027795
v 0.3124419 -0.58347005 0.0025027764
v 0.32133713 -0.52329195 0.002502779
v 0.31236336 -0.580144 0.0025027792
v 0.33268085 -0.58347 0.002502777
v 0.3325238 -0.5801441 0.0025027792
v 0.33937475 -0.58240974 0.0025027774
v 0.35047147 -0.56165093 0.002502779
v 0.35047135 -0.52329195 0.002502779
v 0.3543428 -0.52329195 0.0025027767
v 0.3543428 -0.561808 0.0025027767
v 0.33803803 -0.57906336 0.0025027792
v 0.34541342 -0.5793328 0.0025027771
v 0.34958008 -0.56752133 0.0025027795
v 0.35328254 -0.5685019 0.0025027771
v 0.34702766 -0.57252187 0.002502779
v 0.35020572 -0.57454056 0.0025027771
v 0.343276 -0.576511 0.002502779
v 0.35047135 -0.52329195 -0.002502779
v 0.3543428 -0.561808 -0.0025027764
v 0.3543428 -0.52329195 -0.0025027767
v 0.3504715 -0.56165093 -0.002502779
v 0.35328254 -0.5685019 -0.0025027762
v 0.32133713 -0.52329195 -0.002502779
v 0.34958008 -0.56752133 -0.0025027785
v 0.35020572 -0.57454056 -0.0025027767
v 0.34702766 -0.57252187 -0.0025027785
v 0.34541342 -0.5793328 -0.0025027767
v 0.343276 -0.5765109 -0.002502779
v 0.33937475 -0.58240974 -0.002502777
v 0.33803803 -0.57906336 -0.002502779
v 0.33268085 -0.58347 -0.0025027767
v 0.3325238 -0.5801441 -0.0025027783
v 0.31234184 -0.58347005 -0.002502776
v 0.31236336 -0.5801439 -0.0025027783
v 0.29220292 -0.5834701 -0.0025027755
v 0.29220292 -0.58014387 -0.002502778
v 0.29220292 -0.52329195 -0.002502779
v 0.25958604 -0.5834703 -0.0025027758
v 0.26000148 -0.5801437 -0.0025027783
v 0.259687 -0.52329195 -0.002502779
v 0.22780001 -0.5801436 -0.0025027785
v 0.22686878 -0.58347034 -0.002502776
v 0.2271711 -0.52329195 -0.002502779
v 0.22688548 -0.5801436 -0.0025027785
v 0.19910672 -0.58347046 -0.002502776
v 0.19915819 -0.5801434 -0.002502779
v 0.199301 -0.52329195 -0.002502779
v 0.17143093 -0.5834706 -0.002502776
v 0.17143092 -0.5801432 -0.0025027792
v 0.17143093 -0.52329195 -0.002502779
v 0.1416655 -0.58347076 -0.0025027762
v 0.14166546 -0.5801431 -0.002502779
v 0.14156099 -0.523292 -0.002502779
v 0.111586966 -0.5834708 -0.0025027764
v 0.111899994 -0.5801429 -0.002502779
v 0.11169102 -0.523292 -0.002502779
v 0.111592725 -0.5801429 -0.002502779
v 0.0846147 -0.58347094 -0.0025027764
v 0.08436026 -0.5801428 -0.002502779
v 0.07781678 -0.523292 -0.002502779
v 0.05726654 -0.583471 -0.0025027764
v 0.057127792 -0.5801426 -0.0025027788
v 0.028003281 -0.5834711 -0.0025027767
v 0.043942526 -0.52329195 -0.002502779
v 0.028552009 -0.5801425 -0.0025027788
v -2.3773811E-05 -0.5801424 -0.0025027788
v 0.021971263 -0.52329195 -0.002502779
v -0 -0.58347124 -0.0025027767
v -0 -0.52329195 -0.002502779
v -0.021971263 -0.52329195 -0.002502779
v -0.028941516 -0.5834711 -0.0025027764
v -0.043942526 -0.52329195 -0.002502779
v -0.028591631 -0.5801425 -0.0025027785
v -0.05683076 -0.583471 -0.0025027764
v -0.057159483 -0.5801427 -0.0025027785
v -0.08468861 -0.58347094 -0.0025027764
v -0.08452974 -0.5801428 -0.0025027785
v -0.07795847 -0.52329195 -0.002502779
v -0.11178686 -0.5834708 -0.0025027762
v -0.111899994 -0.5801429 -0.0025027785
v -0.11197442 -0.52329195 -0.002502779
v -0.14162798 -0.58347076 -0.002502776
v -0.14166546 -0.5801431 -0.0025027785
v -0.14170268 -0.52329195 -0.002502779
v -0.17143093 -0.5834706 -0.002502776
v -0.17143093 -0.5801433 -0.0025027788
v -0.17143093 -0.52329195 -0.002502779
v -0.19905888 -0.5834705 -0.002502776
v -0.1991582 -0.5801434 -0.002502779
v -0.19930099 -0.52329195 -0.002502779
v -0.22686878 -0.5834704 -0.002502776
v -0.22688548 -0.5801436 -0.002502779
v -0.22717106 -0.52329195 -0.002502779
v -0.2595525 -0.5834703 -0.0025027758
v -0.22780001 -0.5801436 -0.002502779
v -0.259687 -0.52329195 -0.002502779
v -0.26000148 -0.58014375 -0.002502779
v -0.29220292 -0.5834701 -0.0025027755
v -0.29220292 -0.58014387 -0.0025027792
v -0.29220292 -0.52329195 -0.002502779
v -0.31249878 -0.58347005 -0.0025027762
v -0.32134464 -0.52329195 -0.002502779
v -0.31237084 -0.580144 -0.0025027788
v -0.33269584 -0.58347 -0.0025027767
v -0.33253875 -0.5801441 -0.0025027783
v -0.33938977 -0.58240974 -0.002502777
v -0.3504865 -0.56165093 -0.002502779
v -0.35048637 -0.52329195 -0.002502779
v -0.35435778 -0.52329195 -0.0025027767
v -0.35435778 -0.561808 -0.0025027764
v -0.33805296 -0.5790633 -0.0025027778
v -0.3454284 -0.5793328 -0.0025027767
v -0.34959504 -0.56752133 -0.0025027785
v -0.35329756 -0.5685019 -0.0025027762
v -0.3432909 -0.57651085 -0.0025027785
v -0.3502207 -0.57454056 -0.0025027767
v -0.3470426 -0.5725218 -0.0025027783
v 0.3543428 -0.561808 0.0025027767
v 0.3543428 -0.52329195 0.0025027767
v 0.3543428 -0.52329195 -0.0025027767
v 0.3543428 -0.561808 -0.0025027764
v 0.35328254 -0.5685019 -0.0025027762
v 0.35328254 -0.5685019 0.0025027771
v 0.35020572 -0.57454056 -0.0025027767
v 0.35020572 -0.57454056 0.0025027771
v 0.34541342 -0.5793328 -0.0025027767
v 0.34541342 -0.5793328 0.0025027771
v 0.33937475 -0.58240974 -0.002502777
v 0.33937475 -0.58240974 0.0025027774
v 0.33268085 -0.58347 -0.0025027767
v 0.33268085 -0.58347 0.002502777
v 0.3124419 -0.58347005 0.0025027764
v 0.31234184 -0.58347005 -0.002502776
v 0.29220292 -0.5834701 0.0025027762
v 0.29220292 -0.5834701 -0.0025027755
v 0.26000148 -0.5834703 0.0025027764
v 0.25958604 -0.5834703 -0.0025027758
v 0.22780001 -0.58347034 0.0025027767
v 0.22686878 -0.58347034 -0.002502776
v 0.19961546 -0.58347046 0.0025027771
v 0.19910672 -0.58347046 -0.002502776
v 0.17143093 -0.5834706 0.0025027774
v 0.17143093 -0.5834706 -0.002502776
v 0.14166546 -0.5834707 0.0025027771
v 0.1416655 -0.58347076 -0.0025027762
v 0.111899994 -0.58347076 0.0025027771
v 0.111586966 -0.5834708 -0.0025027764
v 0.08452182 -0.5834709 0.002502777
v 0.0846147 -0.58347094 -0.0025027764
v 0.05714364 -0.583471 0.0025027767
v 0.05726654 -0.583471 -0.0025027764
v 0.02857182 -0.5834711 0.0025027767
v 0.028003281 -0.5834711 -0.0025027767
v -0 -0.58347124 0.0025027767
v -0 -0.58347124 -0.0025027767
v -0.028941516 -0.5834711 -0.0025027764
v -0.028571818 -0.5834711 0.0025027767
v -0.057143636 -0.583471 0.002502777
v -0.05683076 -0.583471 -0.0025027764
v -0.08452182 -0.58347094 0.0025027771
v -0.08468861 -0.58347094 -0.0025027764
v -0.111899994 -0.58347076 0.0025027771
v -0.11178686 -0.5834708 -0.0025027762
v -0.14166546 -0.5834707 0.0025027771
v -0.14162798 -0.58347076 -0.002502776
v -0.17143093 -0.5834706 0.0025027774
v -0.17143093 -0.5834706 -0.002502776
v -0.19961546 -0.58347046 0.0025027771
v -0.19905888 -0.5834705 -0.002502776
v -0.22780001 -0.58347034 0.0025027767
v -0.22686878 -0.5834704 -0.002502776
v -0.26000148 -0.5834703 0.0025027764
v -0.2595525 -0.5834703 -0.0025027758
v -0.29220292 -0.5834701 0.0025027762
v -0.29220292 -0.5834701 -0.0025027755
v -0.31244937 -0.58347005 0.0025027764
v -0.31249878 -0.58347005 -0.0025027762
v -0.33269584 -0.58347 0.002502777
v -0.33269584 -0.58347 -0.0025027767
v -0.33938977 -0.58240974 -0.002502777
v -0.33938977 -0.58240974 0.0025027774
v -0.3454284 -0.5793328 -0.0025027767
v -0.3454284 -0.5793328 0.0025027771
v -0.3502207 -0.57454056 -0.0025027767
v -0.3502207 -0.57454056 0.0025027771
v -0.35329756 -0.5685019 -0.0025027762
v -0.35329756 -0.5685019 0.0025027771
v -0.35435778 -0.561808 -0.0025027764
v -0.35435778 -0.561808 0.0025027767
v -0.35435778 -0.52329195 0.0025027767
v -0.35435778 -0.52329195 -0.0025027767
v -0.35048637 -0.52329195 0.002502779
v -0.35435778 -0.52329195 0.0025027767
v -0.35435778 -0.52329195 -0.0025027767
v -0.35048637 -0.52329195 -0.002502779
v -0.32134464 -0.52329195 0.002502779
v -0.32134464 -0.52329195 -0.002502779
v -0.29220292 -0.52329195 0.002502779
v -0.29220292 -0.52329195 -0.002502779
v -0.26200992 -0.5232919 0.002502779
v -0.259687 -0.52329195 -0.002502779
v -0.23181692 -0.5232919 0.002502779
v -0.22717106 -0.52329195 -0.002502779
v -0.20162392 -0.5232919 0.002502779
v -0.19930099 -0.52329195 -0.002502779
v -0.17143093 -0.5232919 0.002502779
v -0.17143093 -0.52329195 -0.002502779
v -0.1285732 -0.5232919 0.002502779
v -0.14170268 -0.52329195 -0.002502779
v -0.11197442 -0.52329195 -0.002502779
v -0.085715465 -0.5232919 0.002502779
v -0.07795847 -0.52329195 -0.002502779
v -0.042857733 -0.5232919 0.002502779
v -0.043942526 -0.52329195 -0.002502779
v -0.021971263 -0.52329195 -0.002502779
v -0 -0.52329195 -0.002502779
v -0 -0.5232918 0.002502779
v 0.021971263 -0.52329195 -0.002502779
v 0.043942526 -0.52329195 -0.002502779
v 0.042857733 -0.5232919 0.002502779
v 0.07781678 -0.523292 -0.002502779
v 0.085715465 -0.5232919 0.002502779
v 0.1285732 -0.5232919 0.002502779
v 0.11169102 -0.523292 -0.002502779
v 0.14156099 -0.523292 -0.002502779
v 0.17143093 -0.52329195 0.002502779
v 0.17143093 -0.52329195 -0.002502779
v 0.20162392 -0.52329195 0.002502779
v 0.199301 -0.52329195 -0.002502779
v 0.23181692 -0.52329195 0.002502779
v 0.2271711 -0.52329195 -0.002502779
v 0.26200992 -0.52329195 0.002502779
v 0.259687 -0.52329195 -0.002502779
v 0.29220292 -0.52329195 0.002502779
v 0.29220292 -0.52329195 -0.002502779
v 0.32133713 -0.52329195 0.002502779
v 0.32133713 -0.52329195 -0.002502779
v 0.35047135 -0.52329195 0.002502779
v 0.35047135 -0.52329195 -0.002502779
v 0.3543428 -0.52329195 0.0025027767
v 0.3543428 -0.52329195 -0.0025027767
vt 1.0117188 0.43896484
vt 1.0068359 0.3852539
vt 1.0068359 0.43896484
vt 1.0117188 0.38549805
vt 1.0078125 0.37573242
vt 1.0517578 0.43896484
vt 1.0126953 0.37719727
vt 1.0126953 0.36743164
vt 1.0166016 0.3701172
vt 1.0185547 0.3605957
vt 1.0214844 0.3647461
vt 1.0273438 0.3564453
vt 1.0292969 0.36108398
vt 1.0371094 0.35498047
vt 1.0371094 0.35961914
vt 1.0644531 0.35498047
vt 1.0644531 0.35961914
vt 1.0917969 0.35498047
vt 1.0917969 0.35961914
vt 1.0917969 0.43896484
vt 1.1337891 0.35498047
vt 1.1337891 0.35961914
vt 1.1337891 0.43896484
vt 1.1757812 0.35498047
vt 1.1757812 0.35961914
vt 1.1757812 0.43896484
vt 1.2177734 0.35498047
vt 1.2177734 0.35961914
vt 1.2177734 0.43896484
vt 1.2607422 0.35498047
vt 1.2607422 0.43896484
vt 1.2607422 0.35961914
vt 1.2998047 0.35498047
vt 1.2998047 0.35961914
vt 1.3203125 0.43896484
vt 1.3398438 0.3564453
vt 1.3398438 0.35498047
vt 1.3398438 0.35961914
vt 1.3798828 0.43896484
vt 1.3798828 0.35961914
vt 1.3798828 0.35498047
vt 1.4199219 0.35498047
vt 1.4199219 0.35961914
vt 1.4599609 0.35498047
vt 1.4394531 0.43896484
vt 1.4599609 0.35961914
vt 1.5 0.35498047
vt 1.5 0.35961914
vt 1.5 0.43896484
vt 1.5390625 0.35498047
vt 1.5390625 0.35961914
vt 1.5791016 0.35498047
vt 1.5595703 0.43896484
vt 1.5791016 0.35961914
vt 1.6191406 0.35498047
vt 1.6191406 0.35961914
vt 1.6191406 0.43896484
vt 1.6591797 0.35498047
vt 1.6591797 0.35961914
vt 1.6992188 0.35498047
vt 1.6787109 0.43896484
vt 1.6992188 0.35961914
vt 1.7392578 0.35498047
vt 1.7392578 0.35961914
vt 1.7392578 0.43896484
vt 1.78125 0.35498047
vt 1.78125 0.35961914
vt 1.78125 0.43896484
vt 1.8232422 0.35498047
vt 1.8232422 0.35961914
vt 1.8232422 0.43896484
vt 1.8652344 0.35498047
vt 1.8652344 0.35961914
vt 1.8652344 0.43896484
vt 1.9072266 0.35498047
vt 1.9072266 0.43896484
vt 1.9072266 0.35961914
vt 1.9345703 0.35498047
vt 1.9472656 0.43896484
vt 1.9345703 0.35961914
vt 1.9619141 0.35498047
vt 1.9609375 0.35961914
vt 1.9707031 0.3564453
vt 1.9863281 0.38549805
vt 1.9863281 0.43896484
vt 1.9921875 0.43896484
vt 1.9921875 0.3852539
vt 1.96875 0.36108398
vt 1.9794922 0.3605957
vt 1.9853516 0.37719727
vt 1.9902344 0.37573242
vt 1.9814453 0.3701172
vt 1.9863281 0.36743164
vt 1.9765625 0.3647461
vt 1.0117188 0.33496094
vt 1.0058594 0.28125
vt 1.0058594 0.33496094
vt 1.0117188 0.28149414
vt 1.0078125 0.27197266
vt 1.0507812 0.33496094
vt 1.0126953 0.27319336
vt 1.0117188 0.26342773
vt 1.0166016 0.26635742
vt 1.0185547 0.25683594
vt 1.0214844 0.2607422
vt 1.0273438 0.2524414
vt 1.0283203 0.25708008
vt 1.0361328 0.25097656
vt 1.0361328 0.25561523
vt 1.0634766 0.25097656
vt 1.0634766 0.25561523
vt 1.0898438 0.25097656
vt 1.0898438 0.25561523
vt 1.0898438 0.33496094
vt 1.1357422 0.25097656
vt 1.1328125 0.25561523
vt 1.1357422 0.33496094
vt 1.1748047 0.25561523
vt 1.1816406 0.25097656
vt 1.1806641 0.33496094
vt 1.1757812 0.25561523
vt 1.2197266 0.25097656
vt 1.2177734 0.25561523
vt 1.2197266 0.33496094
vt 1.2587891 0.25097656
vt 1.2587891 0.25561523
vt 1.2587891 0.33496094
vt 1.3007812 0.25097656
vt 1.2988281 0.25561523
vt 1.3007812 0.33496094
vt 1.3427734 0.25097656
vt 1.3388672 0.25561523
vt 1.3417969 0.33496094
vt 1.3388672 0.25561523
vt 1.3798828 0.25097656
vt 1.3789062 0.25561523
vt 1.3896484 0.33496094
vt 1.4179688 0.25097656
vt 1.4179688 0.25561523
vt 1.4589844 0.25097656
vt 1.4365234 0.33496094
vt 1.4580078 0.25561523
vt 1.4980469 0.25561523
vt 1.4677734 0.33496094
vt 1.4980469 0.25097656
vt 1.4980469 0.33496094
vt 1.5292969 0.33496094
vt 1.5380859 0.25097656
vt 1.5595703 0.33496094
vt 1.5380859 0.25561523
vt 1.5771484 0.25097656
vt 1.578125 0.25561523
vt 1.6162109 0.25097656
vt 1.6181641 0.25561523
vt 1.6074219 0.33496094
vt 1.6542969 0.25097656
vt 1.6572266 0.25561523
vt 1.6542969 0.33496094
vt 1.6962891 0.25097656
vt 1.6972656 0.25561523
vt 1.6962891 0.33496094
vt 1.7373047 0.25097656
vt 1.7373047 0.25561523
vt 1.7373047 0.33496094
vt 1.7763672 0.25097656
vt 1.7792969 0.25561523
vt 1.7763672 0.33496094
vt 1.8144531 0.25097656
vt 1.8203125 0.25561523
vt 1.8154297 0.33496094
vt 1.8603516 0.25097656
vt 1.8222656 0.25561523
vt 1.8603516 0.33496094
vt 1.8642578 0.25561523
vt 1.90625 0.25097656
vt 1.90625 0.25561523
vt 1.90625 0.33496094
vt 1.9335938 0.25097656
vt 1.9462891 0.33496094
vt 1.9335938 0.25561523
vt 1.9609375 0.25097656
vt 1.9609375 0.25561523
vt 1.9707031 0.2524414
vt 1.9863281 0.28149414
vt 1.9863281 0.33496094
vt 1.9912109 0.33496094
vt 1.9912109 0.28125
vt 1.96875 0.25708008
vt 1.9785156 0.25683594
vt 1.984375 0.27319336
vt 1.9902344 0.27197266
vt 1.9755859 0.2607422
vt 1.9853516 0.26342773
vt 1.9814453 0.26635742
vt 1.0048828 0.27978516
vt 1.0048828 0.33496094
vt 1.0058594 0.33496094
vt 1.0058594 0.28125
vt 1.0078125 0.27197266
vt 1.0058594 0.2709961
vt 1.0117188 0.26342773
vt 1.0107422 0.2626953
vt 1.0185547 0.25683594
vt 1.0175781 0.25561523
vt 1.0273438 0.2524414
vt 1.0263672 0.25097656
vt 1.0361328 0.25097656
vt 1.0351562 0.24987793
vt 1.0625 0.24963379
vt 1.0634766 0.25097656
vt 1.0898438 0.24938965
vt 1.0898438 0.25097656
vt 1.1328125 0.24938965
vt 1.1357422 0.25097656
vt 1.1748047 0.24938965
vt 1.1816406 0.25097656
vt 1.2167969 0.24938965
vt 1.2197266 0.25097656
vt 1.2587891 0.24938965
vt 1.2587891 0.25097656
vt 1.2988281 0.24938965
vt 1.3007812 0.25097656
vt 1.3388672 0.24938965
vt 1.3427734 0.25097656
vt 1.3789062 0.24938965
vt 1.3798828 0.25097656
vt 1.4179688 0.24938965
vt 1.4179688 0.25097656
vt 1.4580078 0.24938965
vt 1.4589844 0.25097656
vt 1.4980469 0.24938965
vt 1.4980469 0.25097656
vt 1.5380859 0.25097656
vt 1.5380859 0.24938965
vt 1.578125 0.24938965
vt 1.5771484 0.25097656
vt 1.6181641 0.24938965
vt 1.6162109 0.25097656
vt 1.6591797 0.24938965
vt 1.6542969 0.25097656
vt 1.6992188 0.24938965
vt 1.6962891 0.25097656
vt 1.7392578 0.24938965
vt 1.7373047 0.25097656
vt 1.7802734 0.24938965
vt 1.7763672 0.25097656
vt 1.8222656 0.24938965
vt 1.8144531 0.25097656
vt 1.8642578 0.24938965
vt 1.8603516 0.25097656
vt 1.9052734 0.24938965
vt 1.90625 0.25097656
vt 1.9335938 0.24938965
vt 1.9335938 0.25097656
vt 1.9609375 0.24926758
vt 1.9609375 0.25097656
vt 1.9707031 0.2524414
vt 1.9716797 0.25097656
vt 1.9785156 0.25683594
vt 1.9804688 0.25561523
vt 1.9853516 0.26342773
vt 1.9873047 0.26293945
vt 1.9902344 0.27197266
vt 1.9912109 0.27124023
vt 1.9912109 0.28125
vt 1.9931641 0.28125
vt 1.9931641 0.33496094
vt 1.9912109 0.33496094
vt 1.0214844 0.3400879
vt 1.015625 0.3400879
vt 1.015625 0.34960938
vt 1.0214844 0.34960938
vt 1.0615234 0.3400879
vt 1.0615234 0.34960938
vt 1.1015625 0.3400879
vt 1.1015625 0.34960938
vt 1.1435547 0.3400879
vt 1.1464844 0.34960938
vt 1.1845703 0.3400879
vt 1.1914062 0.34960938
vt 1.2265625 0.3400879
vt 1.2294922 0.34960938
vt 1.2685547 0.3400879
vt 1.2685547 0.34960938
vt 1.3271484 0.3400879
vt 1.3085938 0.34960938
vt 1.3496094 0.34960938
vt 1.3857422 0.3400879
vt 1.3964844 0.34960938
vt 1.4453125 0.3400879
vt 1.4433594 0.34960938
vt 1.4736328 0.34960938
vt 1.5039062 0.34960938
vt 1.5039062 0.3400879
vt 1.5341797 0.34960938
vt 1.5644531 0.34960938
vt 1.5634766 0.3400879
vt 1.6113281 0.34960938
vt 1.6220703 0.3400879
vt 1.6816406 0.3400879
vt 1.6582031 0.34960938
vt 1.6992188 0.34960938
vt 1.7402344 0.3400879
vt 1.7402344 0.34960938
vt 1.7822266 0.3400879
vt 1.7792969 0.34960938
vt 1.8242188 0.3400879
vt 1.8173828 0.34960938
vt 1.8652344 0.3400879
vt 1.8623047 0.34960938
vt 1.9072266 0.3400879
vt 1.9072266 0.34960938
vt 1.9472656 0.3400879
vt 1.9472656 0.34960938
vt 1.9873047 0.3400879
vt 1.9873047 0.34960938
vt 1.9921875 0.3400879
vt 1.9921875 0.34960938
vn -0 0 1
vn -0 0 1
vn -0 0 1
vn -0 0 1
vn -0 0 1
vn -0 0 1
vn -0 0 1
vn -0 0 1
vn -0 0 1
vn -0 0 1
vn -0 0 1
vn -0 0 1
vn -0 0 1
vn -0 0 1
vn -0 0 1
vn -0 0 1
vn -0 0 1
vn -0 0 1
vn -0 0 1
vn -0 0 1
vn -0 -1.0078799E-06 1
vn -0 0 1
vn -0 0 1
vn -0 0 1
vn -0 0 1
vn -0 0 1
vn -0 0 1
vn -0 0 1
vn -0 0 1
vn -0 0 1
vn -0 0 1
vn -0 0 1
vn -0 0 1
vn -0 0 1
vn -0 0 1
vn -0 0 1
vn -0 0 1
vn -0 0 1
vn -0 0 1
vn -0 0 1
vn -0 0 1
vn -0 0 1
vn -0 0 1
vn -0 0 1
vn -0 0 1
vn -0 0 1
vn -0 0 1
vn -0 0 1
vn -0 0 1
vn -0 0 1
vn -0 0 1
vn -0 0 1
vn -0 0 1
vn -0 0 1
vn -0 0 1
vn -0 0 1
vn -0 0 1
vn -0 0 1
vn -0 0 1
vn -0 0 1
vn -0 0 1
vn -0 0 1
vn -0 0 1
vn -0 0 1
vn -0 0 1
vn -0 0 1
vn -0 0 1
vn -0 0 1
vn -0 0 1
vn -0 0 1
vn -0 0 1
vn -0 -1.0078805E-06 1
vn -0 0 1
vn -0 0 1
vn -0 0 1
vn -0 0 1
vn -0 0 1
vn -0 0 1
vn -0 0 1
vn -0 0 1
vn -0 0 1
vn -0 0 1
vn -0 0 1
vn -0 0 1
vn -0 0 1
vn -0 0 1
vn -0 0 1
vn -0 0 1
vn -0 0 1
vn -0 0 1
vn -0 0 1
vn -0 0 1
vn -0 0 1
vn -0 0 1
vn -0 0 -1
vn -0 0 -1
vn -0 0 -1
vn -0 0 -1
vn -0 0 -1
vn -0 0 -1
vn -0 0 -1
vn -0 0 -1
vn -0 0 -1
vn -0 0 -1
vn -0 0 -1
vn -0 0 -1
vn -0 0 -1
vn -0 0 -1
vn -0 0 -1
vn -0 0 -1
vn -0 0 -1
vn -0 0 -1
vn -0 0 -1
vn -0 0 -1
vn -0 0 -1
vn -0 0 -1
vn -0 0 -1
vn -0 0 -1
vn -0 0 -1
vn -0 0 -1
vn -0 0 -1
vn -0 0 -1
vn -0 0 -1
vn -0 0 -1
vn -0 0 -1
vn -0 0 -1
vn -0 0 -1
vn -0 0 -1
vn -0 0 -1
vn -0 0 -1
vn -0 0 -1
vn -0 0 -1
vn -0 0 -1
vn -0 0 -1
vn -0 0 -1
vn -0 0 -1
vn -0 0 -1
vn -0 0 -1
vn -0 0 -1
vn -0 0 -1
vn -0 0 -1
vn -0 0 -1
vn -0 0 -1
vn -0 0 -1
vn -0 0 -1
vn -0 0 -1
vn -0 0 -1
vn -0 0 -1
vn -0 0 -1
vn -0 0 -1
vn -0 0 -1
vn -0 0 -1
vn -0 0 -1
vn -0 0 -1
vn -0 0 -1
vn -0 0 -1
vn -0 0 -1
vn -0 0 -1
vn -0 0 -1
vn -0 0 -1
vn -0 0 -1
vn -0 0 -1
vn -0 0 -1
vn -0 0 -1
vn -0 0 -1
vn -0 0 -1
vn -0 0 -1
vn -0 0 -1
vn -0 0 -1
vn -0 0 -1
vn -0 0 -1
vn -0 0 -1
vn -0 0 -1
vn -0 0 -1
vn -0 0 -1
vn -0 0 -1
vn -0 0 -1
vn -0 0 -1
vn -0 0 -1
vn -0 0 -1
vn -0 0 -1
vn -0 0 -1
vn -0 0 -1
vn -0 0 -1
vn -0 0 -1
vn -0 0 -1
vn -0 0 -1
vn -0 0 -1
vn -0 0 -1
vn -0 0 -1
vn -0 0 -1
vn -0 0 -1
vn -0 0 -1
vn -0 0 -1
vn 0.99972516 -0.023444861 0
vn 1 0 0
vn 1 0 0
vn 0.99972516 -0.023444861 0
vn 0.95105636 -0.3090174 0
vn 0.95105636 -0.3090174 0
vn 0.80901766 -0.5877844 0
vn 0.80901766 -0.5877844 0
vn 0.5877877 -0.8090153 0
vn 0.5877877 -0.8090153 0
vn 0.3090224 -0.95105475 0
vn 0.3090224 -0.95105475 0
vn 0.039266627 -0.9992287 0
vn 0.039266627 -0.9992287 0
vn 3.5489325E-06 -1 0
vn 3.519182E-06 -1 0
vn 3.6262677E-06 -1 0
vn 3.6262677E-06 -1 0
vn 3.7143145E-06 -1 0
vn 3.6365127E-06 -1 0
vn 3.1289571E-06 -1 -3.44937E-06
vn 3.183831E-06 -1 -4.4408857E-06
vn 4.209615E-06 -1 0
vn 4.3200425E-06 -1 0
vn 4.5455886E-06 -1 4.127768E-06
vn 4.5455886E-06 -1 4.127768E-06
vn 3.5950038E-06 -1 3.990037E-06
vn 3.5950077E-06 -1 3.990001E-06
vn 3.33415E-06 -1 8.3261275E-06
vn 3.3469296E-06 -1 8.358042E-06
vn 3.497117E-06 -1 8.733094E-06
vn 3.4974023E-06 -1 8.733805E-06
vn 3.8175876E-06 -1 8.459428E-06
vn 3.8076384E-06 -1 8.466734E-06
vn 3.7780192E-06 -1 4.459373E-06
vn 3.7239522E-06 -1 3.866481E-06
vn -0 -1 0
vn -0 -1 0
vn -3.3484284E-06 -1 0
vn -3.3455278E-06 -1 0
vn -3.4167056E-06 -1 0
vn -3.4137279E-06 -1 0
vn -3.901832E-06 -1 0
vn -3.9214133E-06 -1 0
vn -3.7533232E-06 -1 4.232432E-06
vn -3.770218E-06 -1 4.1176986E-06
vn -3.6029476E-06 -1 3.977667E-06
vn -3.5991227E-06 -1 4.015757E-06
vn -4.1327207E-06 -1 0
vn -4.1327207E-06 -1 0
vn -3.8078401E-06 -1 4.559903E-06
vn -3.8688536E-06 -1 3.9602182E-06
vn -3.5657372E-06 -1 1.2177587E-05
vn -3.5345042E-06 -1 1.1458334E-05
vn -4.0639466E-06 -1 3.0441558E-06
vn -4.0219666E-06 -1 4.2985075E-06
vn -3.6194626E-06 -1 -4.5193156E-06
vn -3.6194565E-06 -1 -4.5192946E-06
vn -3.525316E-06 -1 0
vn -3.5401747E-06 -1 0
vn -0.039364453 -0.9992249 0
vn -0.039364453 -0.9992249 0
vn -0.3090224 -0.95105475 0
vn -0.3090224 -0.95105475 0
vn -0.5877877 -0.8090153 0
vn -0.5877877 -0.8090153 0
vn -0.80901766 -0.5877844 0
vn -0.80901766 -0.5877844 0
vn -0.95105636 -0.3090174 0
vn -0.95105636 -0.3090174 0
vn -0.99972516 -0.023444936 0
vn -0.99972516 -0.023444938 0
vn -1 0 0
vn -1 0 0
vn -0 1 0
vn -0 1 0
vn -0 1 0
vn -0 1 0
vn -0 1 0
vn -0 1 0
vn -0 1 0
vn -0 1 0
vn -0 1 0
vn -0 1 0
vn -0 1 -7.5955336E-06
vn -0 1 -7.5955336E-06
vn -0 1 -8.2032775E-06
vn -0 1 -8.203277E-06
vn -0 1 -8.2032775E-06
vn -0 1 -8.2032775E-06
vn -0 1 -1.239196E-05
vn -0 1 -1.3123963E-05
vn -0 1 -1.2391958E-05
vn -0 1 -1.2391958E-05
vn -0 1 -1.2391957E-05
vn -0 1 -1.09748E-05
vn -0 1 -1.09748E-05
vn -0 1 -1.0974801E-05
vn -0 1 -1.0974801E-05
vn -0 1 -1.0974801E-05
vn -0 1 -1.0974801E-05
vn -0 1 -2.2889866E-05
vn -0 1 -2.2889864E-05
vn -0 1 -2.2889866E-05
vn -0 1 -2.2889866E-05
vn -0 1 -1.5946054E-05
vn -0 1 -1.5946054E-05
vn -0 1 -1.5946056E-05
vn -0 1 -3.274598E-05
vn -0 1 -3.274598E-05
vn -0 1 0
vn -0 1 0
vn -0 1 0
vn -0 1 0
vn -0 1 -7.5955336E-06
vn -0 1 -7.5955336E-06
vn -0 1 7.59553E-06
vn -0 1 7.59553E-06
vn -0 1 0
vn -0 1 0
vn -0 1 0
vn -0 1 0
vn -0 1 0
vn -0 1 0
g body_bottom_0
f 3/3/3 2/2/2 1/1/1
f 2/2/2 4/4/4 1/1/1
f 2/2/2 5/5/5 4/4/4
f 6/6/6 1/1/1 4/4/4
f 5/5/5 7/7/7 4/4/4
f 5/5/5 8/8/8 7/7/7
f 8/8/8 9/9/9 7/7/7
f 8/8/8 10/10/10 9/9/9
f 10/10/10 11/11/11 9/9/9
f 10/10/10 12/12/12 11/11/11
f 9/9/9 11/11/11 13/13/13
f 12/12/12 13/13/13 11/11/11
f 7/7/7 9/9/9 13/13/13
f 13/13/13 12/12/12 14/14/14
f 7/7/7 13/13/13 15/15/15
f 15/15/15 13/13/13 14/14/14
f 4/4/4 7/7/7 15/15/15
f 15/15/15 14/14/14 16/16/16
f 4/4/4 15/15/15 17/17/17
f 17/17/17 15/15/15 16/16/16
f 6/6/6 4/4/4 17/17/17
f 17/17/17 16/16/16 18/18/18
f 6/6/6 17/17/17 19/19/19
f 19/19/19 17/17/17 18/18/18
f 20/20/20 6/6/6 19/19/19
f 19/19/19 18/18/18 21/21/21
f 20/20/20 19/19/19 22/22/22
f 22/22/22 19/19/19 21/21/21
f 23/23/23 20/20/20 22/22/22
f 22/22/22 21/21/21 24/24/24
f 23/23/23 22/22/22 25/25/25
f 25/25/25 22/22/22 24/24/24
f 26/26/26 23/23/23 25/25/25
f 25/25/25 24/24/24 27/27/27
f 26/26/26 25/25/25 28/28/28
f 28/28/28 25/25/25 27/27/27
f 29/29/29 26/26/26 28/28/28
f 28/28/28 27/27/27 30/30/30
f 29/29/29 28/28/28 31/31/31
f 32/32/32 28/28/28 30/30/30
f 28/28/28 32/32/32 31/31/31
f 32/32/32 30/30/30 33/33/33
f 31/31/31 32/32/32 34/34/34
f 34/34/34 32/32/32 33/33/33
f 35/35/35 31/31/31 34/34/34
f 36/36/36 34/34/34 33/33/33
f 33/33/33 37/37/37 36/36/36
f 35/35/35 34/34/34 38/38/38
f 36/36/36 38/38/38 34/34/34
f 38/38/38 36/36/36 37/37/37
f 39/39/39 35/35/35 38/38/38
f 40/40/40 38/38/38 37/37/37
f 40/40/40 39/39/39 38/38/38
f 37/37/37 41/41/41 40/40/40
f 40/40/40 41/41/41 42/42/42
f 40/40/40 43/43/43 39/39/39
f 43/43/43 40/40/40 42/42/42
f 43/43/43 42/42/42 44/44/44
f 43/43/43 45/45/45 39/39/39
f 46/46/46 43/43/43 44/44/44
f 43/43/43 46/46/46 45/45/45
f 46/46/46 44/44/44 47/47/47
f 46/46/46 48/48/48 45/45/45
f 48/48/48 46/46/46 47/47/47
f 48/48/48 49/49/49 45/45/45
f 47/47/47 50/50/50 48/48/48
f 49/49/49 48/48/48 51/51/51
f 50/50/50 51/51/51 48/48/48
f 50/50/50 52/52/52 51/51/51
f 53/53/53 49/49/49 51/51/51
f 52/52/52 54/54/54 51/51/51
f 53/53/53 51/51/51 54/54/54
f 52/52/52 55/55/55 54/54/54
f 53/53/53 54/54/54 56/56/56
f 55/55/55 56/56/56 54/54/54
f 57/57/57 53/53/53 56/56/56
f 55/55/55 58/58/58 56/56/56
f 57/57/57 56/56/56 59/59/59
f 58/58/58 59/59/59 56/56/56
f 58/58/58 60/60/60 59/59/59
f 61/61/61 57/57/57 59/59/59
f 60/60/60 62/62/62 59/59/59
f 62/62/62 61/61/61 59/59/59
f 60/60/60 63/63/63 62/62/62
f 62/62/62 64/64/64 61/61/61
f 63/63/63 64/64/64 62/62/62
f 64/64/64 65/65/65 61/61/61
f 63/63/63 66/66/66 64/64/64
f 65/65/65 64/64/64 67/67/67
f 66/66/66 67/67/67 64/64/64
f 68/68/68 65/65/65 67/67/67
f 66/66/66 69/69/69 67/67/67
f 68/68/68 67/67/67 70/70/70
f 69/69/69 70/70/70 67/67/67
f 71/71/71 68/68/68 70/70/70
f 69/69/69 72/72/72 70/70/70
f 71/71/71 70/70/70 73/73/73
f 72/72/72 73/73/73 70/70/70
f 74/74/74 71/71/71 73/73/73
f 72/72/72 75/75/75 73/73/73
f 74/74/74 73/73/73 76/76/76
f 75/75/75 77/77/77 73/73/73
f 73/73/73 77/77/77 76/76/76
f 75/75/75 78/78/78 77/77/77
f 79/79/79 76/76/76 77/77/77
f 78/78/78 80/80/80 77/77/77
f 80/80/80 79/79/79 77/77/77
f 78/78/78 81/81/81 80/80/80
f 81/81/81 82/82/82 80/80/80
f 80/80/80 82/82/82 79/79/79
f 81/81/81 83/83/83 82/82/82
f 82/82/82 84/84/84 79/79/79
f 84/84/84 85/85/85 79/79/79
f 85/85/85 84/84/84 86/86/86
f 84/84/84 87/87/87 86/86/86
f 83/83/83 88/88/88 82/82/82
f 84/84/84 82/82/82 88/88/88
f 83/83/83 89/89/89 88/88/88
f 84/84/84 90/90/90 87/87/87
f 90/90/90 84/84/84 88/88/88
f 90/90/90 91/91/91 87/87/87
f 91/91/91 90/90/90 92/92/92
f 92/92/92 90/90/90 88/88/88
f 93/93/93 91/91/91 92/92/92
f 89/89/89 94/94/94 88/88/88
f 94/94/94 92/92/92 88/88/88
f 93/93/93 92/92/92 94/94/94
f 89/89/89 93/93/93 94/94/94
f 97/97/97 96/96/96 95/95/95
f 96/96/96 98/98/98 95/95/95
f 96/96/96 99/99/99 98/98/98
f 100/100/100 95/95/95 98/98/98
f 99/99/99 101/101/101 98/98/98
f 101/101/101 99/99/99 102/102/102
f 103/103/103 101/101/101 102/102/102
f 103/103/103 102/102/102 104/104/104
f 105/105/105 103/103/103 104/104/104
f 105/105/105 104/104/104 106/106/106
f 103/103/103 105/105/105 107/107/107
f 107/107/107 105/105/105 106/106/106
f 101/101/101 103/103/103 107/107/107
f 107/107/107 106/106/106 108/108/108
f 101/101/101 107/107/107 109/109/109
f 109/109/109 107/107/107 108/108/108
f 98/98/98 101/101/101 109/109/109
f 109/109/109 108/108/108 110/110/110
f 98/98/98 109/109/109 111/111/111
f 111/111/111 109/109/109 110/110/110
f 100/100/100 98/98/98 111/111/111
f 111/111/111 110/110/110 112/112/112
f 100/100/100 111/111/111 113/113/113
f 113/113/113 111/111/111 112/112/112
f 114/114/114 100/100/100 113/113/113
f 113/113/113 112/112/112 115/115/115
f 114/114/114 113/113/113 116/116/116
f 116/116/116 113/113/113 115/115/115
f 117/117/117 114/114/114 116/116/116
f 118/118/118 116/116/116 115/115/115
f 117/117/117 116/116/116 118/118/118
f 115/115/115 119/119/119 118/118/118
f 118/118/118 120/120/120 117/117/117
f 119/119/119 121/121/121 118/118/118
f 118/118/118 121/121/121 120/120/120
f 121/121/121 119/119/119 122/122/122
f 120/120/120 121/121/121 123/123/123
f 123/123/123 121/121/121 122/122/122
f 124/124/124 120/120/120 123/123/123
f 123/123/123 122/122/122 125/125/125
f 124/124/124 123/123/123 126/126/126
f 126/126/126 123/123/123 125/125/125
f 127/127/127 124/124/124 126/126/126
f 126/126/126 125/125/125 128/128/128
f 127/127/127 126/126/126 129/129/129
f 129/129/129 126/126/126 128/128/128
f 130/130/130 127/127/127 129/129/129
f 129/129/129 128/128/128 131/131/131
f 130/130/130 129/129/129 132/132/132
f 131/131/131 132/132/132 129/129/129
f 132/132/132 133/133/133 130/130/130
f 131/131/131 134/134/134 132/132/132
f 132/132/132 134/134/134 133/133/133
f 134/134/134 131/131/131 135/135/135
f 133/133/133 134/134/134 136/136/136
f 136/136/136 134/134/134 135/135/135
f 137/137/137 133/133/133 136/136/136
f 136/136/136 135/135/135 138/138/138
f 137/137/137 136/136/136 139/139/139
f 139/139/139 136/136/136 138/138/138
f 139/139/139 138/138/138 140/140/140
f 141/141/141 137/137/137 139/139/139
f 142/142/142 139/139/139 140/140/140
f 141/141/141 139/139/139 142/142/142
f 141/141/141 142/142/142 143/143/143
f 143/143/143 144/144/144 141/141/141
f 142/142/142 140/140/140 145/145/145
f 143/143/143 142/142/142 145/145/145
f 143/143/143 146/146/146 144/144/144
f 147/147/147 146/146/146 143/143/143
f 145/145/145 148/148/148 143/143/143
f 149/149/149 147/147/147 143/143/143
f 148/148/148 150/150/150 143/143/143
f 149/149/149 143/143/143 150/150/150
f 148/148/148 151/151/151 150/150/150
f 151/151/151 152/152/152 150/150/150
f 149/149/149 150/150/150 152/152/152
f 151/151/151 153/153/153 152/152/152
f 149/149/149 152/152/152 154/154/154
f 153/153/153 154/154/154 152/152/152
f 155/155/155 149/149/149 154/154/154
f 153/153/153 156/156/156 154/154/154
f 155/155/155 154/154/154 157/157/157
f 156/156/156 157/157/157 154/154/154
f 158/158/158 155/155/155 157/157/157
f 156/156/156 159/159/159 157/157/157
f 158/158/158 157/157/157 160/160/160
f 159/159/159 160/160/160 157/157/157
f 161/161/161 158/158/158 160/160/160
f 159/159/159 162/162/162 160/160/160
f 161/161/161 160/160/160 163/163/163
f 162/162/162 163/163/163 160/160/160
f 164/164/164 161/161/161 163/163/163
f 162/162/162 165/165/165 163/163/163
f 164/164/164 163/163/163 166/166/166
f 165/165/165 166/166/166 163/163/163
f 167/167/167 164/164/164 166/166/166
f 165/165/165 168/168/168 166/166/166
f 167/167/167 166/166/166 169/169/169
f 168/168/168 169/169/169 166/166/166
f 170/170/170 167/167/167 169/169/169
f 169/169/169 168/168/168 171/171/171
f 170/170/170 169/169/169 172/172/172
f 171/171/171 172/172/172 169/169/169
f 172/172/172 173/173/173 170/170/170
f 171/171/171 174/174/174 172/172/172
f 172/172/172 174/174/174 173/173/173
f 171/171/171 175/175/175 174/174/174
f 173/173/173 174/174/174 176/176/176
f 175/175/175 176/176/176 174/174/174
f 177/177/177 173/173/173 176/176/176
f 175/175/175 178/178/178 176/176/176
f 179/179/179 177/177/177 176/176/176
f 178/178/178 180/180/180 176/176/176
f 180/180/180 179/179/179 176/176/176
f 178/178/178 181/181/181 180/180/180
f 181/181/181 182/182/182 180/180/180
f 180/180/180 182/182/182 179/179/179
f 181/181/181 183/183/183 182/182/182
f 182/182/182 184/184/184 179/179/179
f 184/184/184 185/185/185 179/179/179
f 185/185/185 184/184/184 186/186/186
f 184/184/184 187/187/187 186/186/186
f 183/183/183 188/188/188 182/182/182
f 182/182/182 188/188/188 184/184/184
f 188/188/188 183/183/183 189/189/189
f 184/184/184 190/190/190 187/187/187
f 188/188/188 190/190/190 184/184/184
f 190/190/190 191/191/191 187/187/187
f 192/192/192 188/188/188 189/189/189
f 188/188/188 192/192/192 190/190/190
f 192/192/192 189/189/189 193/193/193
f 194/194/194 193/193/193 191/191/191
f 190/190/190 194/194/194 191/191/191
f 194/194/194 192/192/192 193/193/193
f 192/192/192 194/194/194 190/190/190
f 197/197/197 196/196/196 195/195/195
f 198/198/198 197/197/197 195/195/195
f 198/198/198 195/195/195 199/199/199
f 195/195/195 200/200/200 199/199/199
f 199/199/199 200/200/200 201/201/201
f 200/200/200 202/202/202 201/201/201
f 201/201/201 202/202/202 203/203/203
f 202/202/202 204/204/204 203/203/203
f 203/203/203 204/204/204 205/205/205
f 204/204/204 206/206/206 205/205/205
f 205/205/205 206/206/206 207/207/207
f 206/206/206 208/208/208 207/207/207
f 207/207/207 208/208/208 209/209/209
f 210/210/210 207/207/207 209/209/209
f 210/210/210 209/209/209 211/211/211
f 212/212/212 210/210/210 211/211/211
f 212/212/212 211/211/211 213/213/213
f 214/214/214 212/212/212 213/213/213
f 214/214/214 213/213/213 215/215/215
f 216/216/216 214/214/214 215/215/215
f 216/216/216 215/215/215 217/217/217
f 218/218/218 216/216/216 217/217/217
f 218/218/218 217/217/217 219/219/219
f 220/220/220 218/218/218 219/219/219
f 220/220/220 219/219/219 221/221/221
f 222/222/222 220/220/220 221/221/221
f 222/222/222 221/221/221 223/223/223
f 224/224/224 222/222/222 223/223/223
f 224/224/224 223/223/223 225/225/225
f 226/226/226 224/224/224 225/225/225
f 226/226/226 225/225/225 227/227/227
f 228/228/228 226/226/226 227/227/227
f 228/228/228 227/227/227 229/229/229
f 230/230/230 228/228/228 229/229/229
f 230/230/230 229/229/229 231/231/231
f 232/232/232 230/230/230 231/231/231
f 233/233/233 232/232/232 231/231/231
f 234/234/234 233/233/233 231/231/231
f 234/234/234 235/235/235 233/233/233
f 235/235/235 236/236/236 233/233/233
f 235/235/235 237/237/237 236/236/236
f 237/237/237 238/238/238 236/236/236
f 237/237/237 239/239/239 238/238/238
f 239/239/239 240/240/240 238/238/238
f 239/239/239 241/241/241 240/240/240
f 241/241/241 242/242/242 240/240/240
f 241/241/241 243/243/243 242/242/242
f 243/243/243 244/244/244 242/242/242
f 243/243/243 245/245/245 244/244/244
f 245/245/245 246/246/246 244/244/244
f 245/245/245 247/247/247 246/246/246
f 247/247/247 248/248/248 246/246/246
f 247/247/247 249/249/249 248/248/248
f 249/249/249 250/250/250 248/248/248
f 249/249/249 251/251/251 250/250/250
f 251/251/251 252/252/252 250/250/250
f 251/251/251 253/253/253 252/252/252
f 253/253/253 254/254/254 252/252/252
f 253/253/253 255/255/255 254/254/254
f 255/255/255 256/256/256 254/254/254
f 256/256/256 255/255/255 257/257/257
f 255/255/255 258/258/258 257/257/257
f 257/257/257 258/258/258 259/259/259
f 258/258/258 260/260/260 259/259/259
f 259/259/259 260/260/260 261/261/261
f 260/260/260 262/262/262 261/261/261
f 261/261/261 262/262/262 263/263/263
f 262/262/262 264/264/264 263/263/263
f 263/263/263 264/264/264 265/265/265
f 264/264/264 266/266/266 265/265/265
f 266/266/266 267/267/267 265/265/265
f 267/267/267 268/268/268 265/265/265
f 271/271/271 270/270/270 269/269/269
f 272/272/272 271/271/271 269/269/269
f 272/272/272 269/269/269 273/273/273
f 274/274/274 272/272/272 273/273/273
f 274/274/274 273/273/273 275/275/275
f 276/276/276 274/274/274 275/275/275
f 276/276/276 275/275/275 277/277/277
f 278/278/278 276/276/276 277/277/277
f 278/278/278 277/277/277 279/279/279
f 280/280/280 278/278/278 279/279/279
f 280/280/280 279/279/279 281/281/281
f 282/282/282 280/280/280 281/281/281
f 282/282/282 281/281/281 283/283/283
f 284/284/284 282/282/282 283/283/283
f 284/284/284 283/283/283 285/285/285
f 286/286/286 284/284/284 285/285/285
f 287/287/287 286/286/286 285/285/285
f 287/287/287 285/285/285 288/288/288
f 289/289/289 287/287/287 288/288/288
f 289/289/289 288/288/288 290/290/290
f 291/291/291 289/289/289 290/290/290
f 292/292/292 291/291/291 290/290/290
f 290/290/290 293/293/293 292/292/292
f 290/290/290 294/294/294 293/293/293
f 295/295/295 293/293/293 294/294/294
f 294/294/294 296/296/296 295/295/295
f 294/294/294 297/297/297 296/296/296
f 298/298/298 296/296/296 297/297/297
f 299/299/299 298/298/298 297/297/297
f 299/299/299 300/300/300 298/298/298
f 300/300/300 301/301/301 298/298/298
f 300/300/300 302/302/302 301/301/301
f 300/300/300 303/303/303 302/302/302
f 303/303/303 304/304/304 302/302/302
f 303/303/303 305/305/305 304/304/304
f 305/305/305 306/306/306 304/304/304
f 305/305/305 307/307/307 306/306/306
f 307/307/307 308/308/308 306/306/306
f 307/307/307 309/309/309 308/308/308
f 309/309/309 310/310/310 308/308/308
f 309/309/309 311/311/311 310/310/310
f 311/311/311 312/312/312 310/310/310
f 311/311/311 313/313/313 312/312/312
f 313/313/313 314/314/314 312/312/312
f 313/313/313 315/315/315 314/314/314
f 315/315/315 316/316/316 314/314/314
f 315/315/315 317/317/317 316/316/316
f 317/317/317 318/318/318 316/316/316
