g Box_under
v -0.5471 0.1551858 -0.3833
v -0.5471 0.006335716 -0.3833
v -0.54552233 0.006335716 -0.38464457
v -0.5455 0.1551858 -0.3846
v -0.54251665 0.006335621 -0.38505006
v -0.54251665 0.1551858 -0.38505012
v -0.54251665 0.31038707 -0.38505006
v -0.54552233 0.31038707 -0.3846
v -0.5471 0.31038707 -0.3833
v 0.5414819 2.3413277E-06 0.37768906
v 0.5470502 0.006335692 0.38325018
v 0.54840004 0.00633574 0.3814
v 0.54885 0.0063356417 0.37871668
v 0.5420697 2.3413277E-06 0.37710094
v 0.54249996 2.3413277E-06 0.3754942
v 0.54885 0.0063356445 -6.545576E-09
v 0.54249996 2.3413277E-06 7.4505807E-10
v 0.54249996 2.3413277E-06 -0.3754942
v 0.54885 0.0063356445 -0.37871668
v 0.5420697 2.3413277E-06 -0.37710094
v 0.54840195 0.006335667 -0.38141784
v 0.5471 0.006335621 -0.3833
v 0.5414819 2.3413277E-06 -0.37768906
v 0.5414819 2.3413277E-06 0.37768906
v 0.5455 0.00633574 0.3846
v 0.5470502 0.006335692 0.38325018
v 0.54251665 0.0063356445 0.38505006
v 0.54089415 2.3413277E-06 0.37827715
v 0.53928834 2.3413277E-06 0.3787077
v 6.943044E-16 0.0063356417 0.38505006
v 5.9098017E-19 2.3413277E-06 0.3787077
v -0.53928834 2.3413277E-06 0.3787077
v -0.54251665 0.0063356445 0.38505006
v -0.54089415 2.3413277E-06 0.37827715
v -0.5414819 2.4366952E-06 0.37768906
v -0.5455 0.0063358354 0.3846
v -0.5470502 0.0063357875 0.38325018
v 0.54089415 2.3413277E-06 -0.37827715
v 0.5414819 2.3413277E-06 -0.37768906
v 0.5471 0.006335621 -0.3833
v 0.54552233 0.006335621 -0.38464457
v 0.54251665 0.006335621 -0.38505006
v 0.53928834 2.3413277E-06 -0.3787077
v 7.0000004E-16 0.0063356236 -0.38505006
v 2.0377355E-17 2.3413277E-06 -0.3787077
v -0.53928834 2.4366952E-06 -0.3787077
v -0.54251665 0.006335621 -0.38505006
v -0.54089415 2.3413277E-06 -0.37827715
v -0.54552233 0.006335716 -0.38464457
v -0.5471 0.006335716 -0.3833
v -0.5414819 2.4366952E-06 -0.37768906
v -0.5414819 2.4366952E-06 0.37768906
v -0.54840004 0.0063358354 0.3814
v -0.5470502 0.0063357875 0.38325018
v -0.54885 0.0063356445 0.37871668
v -0.5420697 2.3413277E-06 0.37710094
v -0.54249996 2.3413277E-06 0.3754942
v -0.54885 0.0063356445 -6.545576E-09
v -0.54249996 2.4366952E-06 7.4505807E-10
v -0.54249996 2.3890113E-06 -0.3754942
v -0.54885 0.0063356445 -0.37871668
v -0.5420697 2.3651696E-06 -0.37710094
v -0.54840195 0.0063357623 -0.38141784
v -0.5471 0.006335716 -0.3833
v -0.5414819 2.4366952E-06 -0.37768906
v 0.5471 0.1551858 -0.3833
v 0.5471 0.006335621 -0.3833
v 0.54840195 0.006335667 -0.38141784
v 0.54840004 0.1551858 -0.3814
v 0.54885 0.0063356445 -0.37871668
v 0.54885 0.1551858 -0.37871674
v 0.54885 0.3103871 -0.37871668
v 0.54840195 0.31038707 -0.38141784
v 0.5471 0.31038707 -0.3833
v 0.5471 0.1551858 -0.3833
v 0.54552233 0.006335621 -0.38464457
v 0.5471 0.006335621 -0.3833
v 0.5455 0.1551858 -0.3846
v 0.54251665 0.006335621 -0.38505006
v 0.54251665 0.1551858 -0.38505012
v 0.54251665 0.31038707 -0.38505006
v 0.54552233 0.31038707 -0.3846
v 0.5471 0.31038707 -0.3833
v -0.54840195 0.0063357623 -0.38141784
v -0.5471 0.006335716 -0.3833
v -0.5471 0.1551858 -0.3833
v -0.54840004 0.1551858 -0.3814
v -0.54885 0.0063356445 -0.37871668
v -0.54885 0.1551858 -0.37871674
v -0.54885 0.3103871 -0.37871668
v -0.54840195 0.31038707 -0.38141784
v -0.5471 0.31038707 -0.3833
v -0.54840004 0.0063358354 0.3814
v -0.54885 0.0063356445 0.37871668
v -0.54885 0.1551858 0.37871674
v -0.54840004 0.1551858 0.3814
v -0.5470502 0.0063357875 0.38325018
v -0.5471 0.1551858 0.3833
v -0.5470502 0.3103871 0.38325018
v -0.54840004 0.3103871 0.3814
v -0.54885 0.3103871 0.37871668
v 7.0000004E-16 0.0063356236 -0.38505006
v 0.54251665 0.006335621 -0.38505006
v 0.54251665 0.1551858 -0.38505012
v 1.4060007E-15 0.1551858 -0.38505012
v 0.54251665 0.31038707 -0.38505006
v 6.968944E-16 0.31038707 -0.38505006
v -0.54251665 0.1551858 -0.38505012
v -0.54251665 0.006335621 -0.38505006
v -0.54251665 0.31038707 -0.38505006
v 0.54885 0.1551858 0.37871674
v 0.54885 0.0063356417 0.37871668
v 0.54840004 0.00633574 0.3814
v 0.54840004 0.1551858 0.3814
v 0.5470502 0.006335692 0.38325018
v 0.5471 0.1551858 0.3833
v 0.5470502 0.3103871 0.38325018
v 0.54840004 0.3103871 0.3814
v 0.54885 0.3103871 0.37871668
v 0.5455 0.00633574 0.3846
v 0.54251665 0.0063356445 0.38505006
v 0.54251665 0.1551858 0.3850501
v 0.5455 0.1551858 0.3846
v 0.5470502 0.006335692 0.38325018
v 0.5471 0.1551858 0.3833
v 0.5470502 0.3103871 0.38325018
v 0.5455 0.3103871 0.3846
v 0.54251665 0.3103871 0.38505006
v -0.54251665 0.1551858 0.3850501
v -0.54251665 0.0063356445 0.38505006
v -0.5455 0.0063358354 0.3846
v -0.5455 0.1551858 0.3846
v -0.5470502 0.0063357875 0.38325018
v -0.5471 0.1551858 0.3833
v -0.5470502 0.3103871 0.38325018
v -0.5455 0.3103871 0.3846
v -0.54251665 0.3103871 0.38505006
v -0.54251665 0.1551858 0.3850501
v -0.54251665 0.3103871 0.38505006
v 7.1190255E-16 0.3103871 0.38505006
v 1.4059467E-15 0.1551858 0.3850501
v 0.54251665 0.3103871 0.38505006
v -0.54251665 0.0063356445 0.38505006
v 0.54251665 0.1551858 0.3850501
v 6.943044E-16 0.0063356417 0.38505006
v 0.54251665 0.0063356445 0.38505006
v 0.540676 0.009513025 0.37803552
v 0.54089415 0.31038713 0.37827715
v 0.53928834 0.31038713 0.3787077
v 0.53928834 0.009513025 0.37827715
v 1.1695474E-18 0.009513025 0.37827715
v -6.0950824E-18 0.31038713 0.3787077
v -0.53928834 0.009513049 0.37827715
v -0.53928834 0.31038713 0.3787077
v -0.540676 0.009513049 0.37803552
v -0.54089415 0.31038713 0.37827715
v 0.53928834 0.31038713 -0.3787077
v 0.54089415 0.31038713 -0.37827715
v 0.540676 0.009513025 -0.37803552
v 0.53928834 0.009513025 -0.37827715
v -0 0.3103511 -0.37870762
v -2.220446E-17 0.009513025 -0.37827715
v -0.53928834 0.009513049 -0.37827715
v -0.53928834 0.31038716 -0.3787077
v -0.540676 0.009513049 -0.37803552
v -0.54089415 0.31038713 -0.37827715
v 0.540676 0.009513025 -0.37803552
v 0.54089415 0.31038713 -0.37827715
v 0.5414819 0.31038713 -0.37768906
v 0.5412521 0.009513025 -0.3774591
v 0.5420697 0.31038713 -0.37710094
v 0.54182816 0.009513025 -0.3768827
v 0.54249996 0.31038713 -0.3754942
v 0.5420697 0.009513025 -0.3754942
v 0.5420697 0.009513025 -7.522728E-18
v 0.54249996 0.31038713 7.4505807E-10
v 0.5420697 0.009513025 0.3754942
v 0.54249996 0.31038713 0.3754942
v 0.54182816 0.009513025 0.3768827
v 0.5420697 0.31038713 0.37710094
v 0.5412521 0.009513025 0.3774591
v 0.5414819 0.31038713 0.37768906
v 0.540676 0.009513025 0.37803552
v 0.54089415 0.31038713 0.37827715
v 0.5414819 0.31038713 0.37768906
v 0.54840004 0.3103871 0.3814
v 0.5470502 0.3103871 0.38325018
v 0.54885 0.3103871 0.37871668
v 0.5420697 0.31038713 0.37710094
v 0.54249996 0.31038713 0.3754942
v 0.54885 0.3103871 -6.545576E-09
v 0.54249996 0.31038713 7.4505807E-10
v 0.54249996 0.31038713 -0.3754942
v 0.54885 0.3103871 -0.37871668
v 0.5420697 0.31038713 -0.37710094
v 0.54840195 0.31038707 -0.38141784
v 0.5471 0.31038707 -0.3833
v 0.5414819 0.31038713 -0.37768906
v 0.5414819 0.31038713 0.37768906
v 0.5470502 0.3103871 0.38325018
v 0.5455 0.3103871 0.3846
v 0.54251665 0.3103871 0.38505006
v 0.54089415 0.31038713 0.37827715
v 0.53928834 0.31038713 0.3787077
v 7.1190255E-16 0.3103871 0.38505006
v -6.0950824E-18 0.31038713 0.3787077
v -0.53928834 0.31038713 0.3787077
v -0.54251665 0.3103871 0.38505006
v -0.54089415 0.31038713 0.37827715
v -0.5414819 0.31038716 0.37768906
v -0.5455 0.3103871 0.3846
v -0.5470502 0.3103871 0.38325018
v 0.5414819 0.31038713 -0.37768906
v 0.54089415 0.31038713 -0.37827715
v 0.5471 0.31038707 -0.3833
v 0.54552233 0.31038707 -0.3846
v 0.54251665 0.31038707 -0.38505006
v 0.53928834 0.31038713 -0.3787077
v 6.968944E-16 0.31038707 -0.38505006
v -0 0.3103511 -0.37870762
v -0.53928834 0.31038716 -0.3787077
v -0.54251665 0.31038707 -0.38505006
v -0.54089415 0.31038713 -0.37827715
v -0.54552233 0.31038707 -0.3846
v -0.5471 0.31038707 -0.3833
v -0.5414819 0.31038716 -0.37768906
v -0.5414819 0.31038716 -0.37768906
v -0.54089415 0.31038713 -0.37827715
v -0.540676 0.009513049 -0.37803552
v -0.5412521 0.009513049 -0.3774591
v -0.5420697 0.31038713 -0.37710094
v -0.54182816 0.009513049 -0.3768827
v -0.54249996 0.31038713 -0.3754942
v -0.5420697 0.009513049 -0.3754942
v -0.5420697 0.009513049 -2.273173E-17
v -0.54249996 0.31038716 7.4505807E-10
v -0.54249996 0.31038713 0.3754942
v -0.5420697 0.009513049 0.3754942
v -0.54182816 0.009513049 0.3768827
v -0.5420697 0.31038713 0.37710094
v -0.5412521 0.009513049 0.3774591
v -0.5414819 0.31038716 0.37768906
v -0.540676 0.009513049 0.37803552
v -0.54089415 0.31038713 0.37827715
v -0.5414819 0.31038716 0.37768906
v -0.5470502 0.3103871 0.38325018
v -0.54840004 0.3103871 0.3814
v -0.54885 0.3103871 0.37871668
v -0.5420697 0.31038713 0.37710094
v -0.54249996 0.31038713 0.3754942
v -0.54885 0.3103871 -6.545576E-09
v -0.54249996 0.31038716 7.4505807E-10
v -0.54249996 0.31038713 -0.3754942
v -0.54885 0.3103871 -0.37871668
v -0.5420697 0.31038713 -0.37710094
v -0.54840195 0.31038707 -0.38141784
v -0.5471 0.31038707 -0.3833
v -0.5414819 0.31038716 -0.37768906
v 0.54885 0.1551858 0.37871674
v 0.54885 0.3103871 0.37871668
v 0.54885 0.1551858 -3.5757481E-09
v 0.54885 0.0063356417 0.37871668
v 0.54885 0.3103871 -6.545576E-09
v 0.54885 0.0063356445 -6.545576E-09
v 0.54885 0.3103871 -0.37871668
v 0.54885 0.0063356445 -0.37871668
v 0.54885 0.1551858 -0.37871674
v -0.54885 0.3103871 -0.37871668
v -0.54885 0.3103871 -6.545576E-09
v -0.54885 0.1551858 -3.5757481E-09
v -0.54885 0.1551858 -0.37871674
v -0.54885 0.3103871 0.37871668
v -0.54885 0.0063356445 -0.37871668
v -0.54885 0.1551858 0.37871674
v -0.54885 0.0063356445 -6.545576E-09
v -0.54885 0.0063356445 0.37871668
v -0.540676 0.009513049 -0.37803552
v -0.540676 0.009513049 -0.3768827
v -0.5412521 0.009513049 -0.3774591
v -0.54182816 0.009513049 -0.3768827
v -0.53928834 0.009513049 -0.37710094
v -0.53928834 0.009513049 -0.37827715
v -2.220446E-17 0.009513025 -0.37827715
v -0.54089415 0.009513049 -0.3754942
v -0.5420697 0.009513049 -0.3754942
v -0.5420697 0.009513049 -2.273173E-17
v -1.0466654E-17 0.009513025 -0.37710094
v 0.53928834 0.009513025 -0.37827715
v -0.53928834 0.009513049 -0.3754942
v -0.54089415 0.009513049 0
v -0.5420697 0.009513049 0.3754942
v 0.53928834 0.009513025 -0.37710094
v 0.540676 0.009513025 -0.37803552
v -0.53928834 0.009513049 -1.4051234E-17
v -8.110085E-18 0.009513025 -0.3754942
v -0.54089415 0.009513049 0.3754942
v -0.54182816 0.009513049 0.3768827
v 0.540676 0.009513025 -0.3768827
v 0.5412521 0.009513025 -0.3774591
v 0.54182816 0.009513025 -0.3768827
v 0.53928834 0.009513025 -0.3754942
v 0.54089415 0.009513025 -0.3754942
v 0.5420697 0.009513025 -0.3754942
v 0.5420697 0.009513025 -7.522728E-18
v -0.53928834 0.009513049 0.3754942
v -0.540676 0.009513049 0.3768827
v -0.5412521 0.009513049 0.3774591
v -0.540676 0.009513049 0.37803552
v -0.53928834 0.009513049 0.37710094
v -0.53928834 0.009513049 0.37827715
v 0.54089415 0.009513025 0
v 0.5420697 0.009513025 0.3754942
v -1.9212314E-17 0.009513025 0.3754942
v 6.355765E-19 0.009513025 0.37710094
v 0.53928834 0.009513025 0.3754942
v 1.1695474E-18 0.009513025 0.37827715
v -6.478284E-18 0.009513025 0
v 0.53928834 0.009513025 0
v 0.54089415 0.009513025 0.3754942
v 0.54182816 0.009513025 0.3768827
v 0.53928834 0.009513025 0.37710094
v 0.53928834 0.009513025 0.37827715
v 0.540676 0.009513025 0.37803552
v 0.540676 0.009513025 0.3768827
v 0.5412521 0.009513025 0.3774591
v -0.54182816 2.4366952E-06 -0.3768827
v -0.5420697 2.3651696E-06 -0.37710094
v -0.54249996 2.3890113E-06 -0.3754942
v -0.5414819 2.4366952E-06 -0.37768906
v -0.5420697 2.4366952E-06 -0.3754942
v -0.5420697 2.4366952E-06 -7.522728E-18
v -0.54249996 2.4366952E-06 7.4505807E-10
v -0.54089415 2.4366952E-06 -0.3754942
v -0.5420697 2.4366952E-06 0.3754942
v -0.54249996 2.3413277E-06 0.3754942
v -0.54089415 2.4366952E-06 0
v -0.54182816 2.4366952E-06 0.3768827
v -0.5420697 2.3413277E-06 0.37710094
v -0.5414819 2.4366952E-06 0.37768906
v -0.54089415 2.4366952E-06 0.3754942
v -0.53928834 2.4366952E-06 0.3754942
v -0.540676 2.4366952E-06 0.3768827
v -0.5412521 2.4366952E-06 0.3774591
v -0.540676 2.4366952E-06 0.37803552
v -0.54089415 2.3413277E-06 0.37827715
v -0.53928834 2.3413277E-06 0.3787077
v -0.53928834 2.4366952E-06 0.37710094
v -0.53928834 2.4366952E-06 0.37827715
v 5.9098017E-19 2.3413277E-06 0.3787077
v -1.110223E-17 2.3413277E-06 0.37710094
v 6.0293E-19 2.3413277E-06 0.37827715
v 0.53928834 2.3413277E-06 0.3787077
v -0.53928834 2.4366952E-06 -1.4051234E-17
v 0.53928834 2.3413277E-06 0.37710094
v 0.53928834 2.3413277E-06 0.37827715
v 0.540676 2.3413277E-06 0.37803552
v 0.54089415 2.3413277E-06 0.37827715
v 0.5414819 2.3413277E-06 0.37768906
v -8.7902565E-18 2.3413277E-06 0.3754942
v -6.478284E-18 2.3413277E-06 0
v 0.53928834 2.3413277E-06 0.3754942
v 0.540676 2.3413277E-06 0.3768827
v 0.5412521 2.3413277E-06 0.3774591
v 0.54182816 2.3413277E-06 0.3768827
v 0.5420697 2.3413277E-06 0.37710094
v 0.54249996 2.3413277E-06 0.3754942
v 0.54089415 2.3413277E-06 0.3754942
v 0.5420697 2.3413277E-06 0.3754942
v 0.54249996 2.3413277E-06 7.4505807E-10
v 0.54089415 2.3413277E-06 0
v 0.5420697 2.3413277E-06 -7.522728E-18
v 0.54249996 2.3413277E-06 -0.3754942
v 0.53928834 2.3413277E-06 0
v 0.54089415 2.3413277E-06 -0.3754942
v 0.5420697 2.3413277E-06 -0.3754942
v 0.54182816 2.3413277E-06 -0.3768827
v 0.5420697 2.3413277E-06 -0.37710094
v 0.5414819 2.3413277E-06 -0.37768906
v 2.3119731E-18 2.3413277E-06 -0.3754942
v 0.53928834 2.3413277E-06 -0.3754942
v 0.540676 2.3413277E-06 -0.3768827
v 0.5412521 2.3413277E-06 -0.3774591
v 0.540676 2.3413277E-06 -0.37803552
v 0.54089415 2.3413277E-06 -0.37827715
v 0.53928834 2.3413277E-06 -0.3787077
v 0.53928834 2.3413277E-06 -0.37710094
v 0.53928834 2.3413277E-06 -0.37827715
v 2.0377355E-17 2.3413277E-06 -0.3787077
v -6.0293E-19 2.3413277E-06 -0.37827715
v -0.53928834 2.4366952E-06 -0.3787077
v -1.110223E-17 2.3413277E-06 -0.37710094
v -0.53928834 2.4366952E-06 -0.37827715
v -0.53928834 2.4366952E-06 -0.3754942
v -0.540676 2.4366952E-06 -0.37803552
v -0.54089415 2.3413277E-06 -0.37827715
v -0.53928834 2.4366952E-06 -0.37710094
v -0.540676 2.4366952E-06 -0.3768827
v -0.5412521 2.4366952E-06 -0.3774591
vt 0.8183594 0.41748047
vt 0.77685547 0.41748047
vt 0.77685547 0.4206543
vt 0.8183594 0.4206543
vt 0.77685547 0.42236328
vt 0.8183594 0.42236328
vt 0.8623047 0.42236328
vt 0.8623047 0.4206543
vt 0.8623047 0.41748047
vt 0.32763672 0.26049805
vt 0.33496094 0.26049805
vt 0.33496094 0.25341797
vt 0.33496094 0.2467041
vt 0.32763672 0.25341797
vt 0.32763672 0.2467041
vt 0.33496094 0.14538574
vt 0.32763672 0.14538574
vt 0.32763672 0.07836914
vt 0.33496094 0.07836914
vt 0.32763672 0.06774902
vt 0.33496094 0.06774902
vt 0.33496094 0.054595947
vt 0.32763672 0.054595947
vt 0.3876953 0.054595947
vt 0.3972168 0.06774902
vt 0.3972168 0.054595947
vt 0.3972168 0.07836914
vt 0.3876953 0.06774902
vt 0.3876953 0.07836914
vt 0.3972168 0.14538574
vt 0.3876953 0.14538574
vt 0.3876953 0.2467041
vt 0.3972168 0.2467041
vt 0.3876953 0.25341797
vt 0.3876953 0.26049805
vt 0.3972168 0.25341797
vt 0.3972168 0.26049805
vt 0.3762207 0.06774902
vt 0.3762207 0.054595947
vt 0.36694336 0.054595947
vt 0.36694336 0.06774902
vt 0.36694336 0.07836914
vt 0.3762207 0.07836914
vt 0.36694336 0.1541748
vt 0.3762207 0.14538574
vt 0.3762207 0.2467041
vt 0.36694336 0.2467041
vt 0.3762207 0.25341797
vt 0.36694336 0.25341797
vt 0.36694336 0.26049805
vt 0.3762207 0.26049805
vt 0.34521484 0.054595947
vt 0.35375977 0.06774902
vt 0.35375977 0.054595947
vt 0.35375977 0.07836914
vt 0.34521484 0.06774902
vt 0.34521484 0.07836914
vt 0.35375977 0.14538574
vt 0.34521484 0.14538574
vt 0.34521484 0.2467041
vt 0.35375977 0.2467041
vt 0.34521484 0.25341797
vt 0.35375977 0.25341797
vt 0.35375977 0.26049805
vt 0.34521484 0.26049805
vt 0.80322266 0.6723633
vt 0.7597656 0.6723633
vt 0.7597656 0.6743164
vt 0.80322266 0.6743164
vt 0.7597656 0.67578125
vt 0.80322266 0.67578125
vt 0.8486328 0.67578125
vt 0.8486328 0.6743164
vt 0.8486328 0.6723633
vt 0.8183594 0.62646484
vt 0.77685547 0.62353516
vt 0.77685547 0.62646484
vt 0.8183594 0.62353516
vt 0.77685547 0.6201172
vt 0.8183594 0.6201172
vt 0.8623047 0.6201172
vt 0.8623047 0.62353516
vt 0.8623047 0.62646484
vt 0.9560547 0.6743164
vt 0.9560547 0.6723633
vt 0.91259766 0.6723633
vt 0.91259766 0.6743164
vt 0.9560547 0.67578125
vt 0.91259766 0.67578125
vt 0.8676758 0.67578125
vt 0.8676758 0.6743164
vt 0.8676758 0.6723633
vt 0.9560547 0.95458984
vt 0.9560547 0.953125
vt 0.91259766 0.953125
vt 0.91259766 0.95458984
vt 0.9560547 0.9560547
vt 0.91259766 0.9560547
vt 0.8676758 0.9560547
vt 0.8676758 0.95458984
vt 0.8676758 0.953125
vt 0.77685547 0.5209961
vt 0.77685547 0.6201172
vt 0.8183594 0.6201172
vt 0.8183594 0.5209961
vt 0.8623047 0.6201172
vt 0.8623047 0.5209961
vt 0.8183594 0.42236328
vt 0.77685547 0.42236328
vt 0.8623047 0.42236328
vt 0.80322266 0.953125
vt 0.7597656 0.953125
vt 0.7597656 0.95458984
vt 0.80322266 0.95458984
vt 0.7597656 0.9560547
vt 0.80322266 0.9560547
vt 0.8486328 0.9560547
vt 0.8486328 0.95458984
vt 0.8486328 0.953125
vt 0.89404297 0.42407227
vt 0.89404297 0.4296875
vt 0.93847656 0.4296875
vt 0.93847656 0.42407227
vt 0.89404297 0.41845703
vt 0.93847656 0.41845703
vt 0.98535156 0.41845703
vt 0.98535156 0.42407227
vt 0.98535156 0.4296875
vt 0.93847656 0.6176758
vt 0.89404297 0.6176758
vt 0.89404297 0.62109375
vt 0.93847656 0.62109375
vt 0.89404297 0.62402344
vt 0.93847656 0.62402344
vt 0.98535156 0.62402344
vt 0.98535156 0.62109375
vt 0.98535156 0.6176758
vt 0.93847656 0.6176758
vt 0.98535156 0.6176758
vt 0.98535156 0.5209961
vt 0.93847656 0.5209961
vt 0.98535156 0.4296875
vt 0.89404297 0.6176758
vt 0.93847656 0.4296875
vt 0.89404297 0.5209961
vt 0.89404297 0.4296875
vt 0.20983887 0.68115234
vt 0.13122559 0.68115234
vt 0.13122559 0.6875
vt 0.20983887 0.6875
vt 0.20983887 0.88183594
vt 0.13122559 0.88183594
vt 0.20983887 0.95751953
vt 0.13122559 0.95751953
vt 0.20983887 0.9614258
vt 0.13122559 0.9614258
vt 0.10394287 0.6875
vt 0.10394287 0.68115234
vt 0.02532959 0.68115234
vt 0.02532959 0.6875
vt 0.10394287 0.88183594
vt 0.02532959 0.88183594
vt 0.02532959 0.95751953
vt 0.10394287 0.95751953
vt 0.02532959 0.9614258
vt 0.10394287 0.9614258
vt 0.5317383 0.6230469
vt 0.6064453 0.6230469
vt 0.6064453 0.6201172
vt 0.5317383 0.6201172
vt 0.6064453 0.61816406
vt 0.5317383 0.61816406
vt 0.6064453 0.61572266
vt 0.5317383 0.61572266
vt 0.5317383 0.52490234
vt 0.6064453 0.52490234
vt 0.5317383 0.43481445
vt 0.6064453 0.43481445
vt 0.5317383 0.43188477
vt 0.6064453 0.43188477
vt 0.5317383 0.42919922
vt 0.6064453 0.42919922
vt 0.5317383 0.42651367
vt 0.6064453 0.42651367
vt 0.28173828 0.4699707
vt 0.27368164 0.4645996
vt 0.27368164 0.4699707
vt 0.27368164 0.4597168
vt 0.28173828 0.4645996
vt 0.28173828 0.4597168
vt 0.27368164 0.39111328
vt 0.28173828 0.39111328
vt 0.28173828 0.33032227
vt 0.27368164 0.33032227
vt 0.28173828 0.3232422
vt 0.27368164 0.3232422
vt 0.27368164 0.31201172
vt 0.28173828 0.31201172
vt 0.31835938 0.31201172
vt 0.31054688 0.31201172
vt 0.31054688 0.3232422
vt 0.31054688 0.33032227
vt 0.31835938 0.3232422
vt 0.31835938 0.33032227
vt 0.31054688 0.39111328
vt 0.31835938 0.39111328
vt 0.31835938 0.4597168
vt 0.31054688 0.4597168
vt 0.31835938 0.4645996
vt 0.31835938 0.4699707
vt 0.31054688 0.4645996
vt 0.31054688 0.4699707
vt 0.2932129 0.31201172
vt 0.2932129 0.3232422
vt 0.30126953 0.31201172
vt 0.30126953 0.3232422
vt 0.30126953 0.33032227
vt 0.2932129 0.33032227
vt 0.30126953 0.39111328
vt 0.2932129 0.39111328
vt 0.2932129 0.4597168
vt 0.30126953 0.4597168
vt 0.2932129 0.4645996
vt 0.30126953 0.4645996
vt 0.30126953 0.4699707
vt 0.2932129 0.4699707
vt 0.4934082 0.42919922
vt 0.4934082 0.42651367
vt 0.4189453 0.42651367
vt 0.4189453 0.42919922
vt 0.4934082 0.43188477
vt 0.4189453 0.43188477
vt 0.4934082 0.43481445
vt 0.4189453 0.43481445
vt 0.4189453 0.52490234
vt 0.4934082 0.52490234
vt 0.4934082 0.61572266
vt 0.4189453 0.61572266
vt 0.4189453 0.61816406
vt 0.4934082 0.61816406
vt 0.4189453 0.6201172
vt 0.4934082 0.6201172
vt 0.4189453 0.6230469
vt 0.4934082 0.6230469
vt 0.26391602 0.31201172
vt 0.25683594 0.31201172
vt 0.25683594 0.3232422
vt 0.25683594 0.33032227
vt 0.26391602 0.3232422
vt 0.26391602 0.33032227
vt 0.25683594 0.39111328
vt 0.26391602 0.39111328
vt 0.26391602 0.4597168
vt 0.25683594 0.4597168
vt 0.26391602 0.4645996
vt 0.25683594 0.4645996
vt 0.25683594 0.4699707
vt 0.26391602 0.4699707
vt 0.80322266 0.953125
vt 0.8486328 0.953125
vt 0.80322266 0.80859375
vt 0.7597656 0.953125
vt 0.8486328 0.80859375
vt 0.7597656 0.80859375
vt 0.8486328 0.67578125
vt 0.7597656 0.67578125
vt 0.80322266 0.67578125
vt 0.8676758 0.67578125
vt 0.8676758 0.80859375
vt 0.91259766 0.80859375
vt 0.91259766 0.67578125
vt 0.8676758 0.953125
vt 0.9560547 0.67578125
vt 0.91259766 0.953125
vt 0.9560547 0.80859375
vt 0.9560547 0.953125
vt 0.43676758 0.95654297
vt 0.43652344 0.95654297
vt 0.43652344 0.95654297
vt 0.43652344 0.95703125
vt 0.43652344 0.9560547
vt 0.43676758 0.9560547
vt 0.43676758 0.8203125
vt 0.43603516 0.95654297
vt 0.43603516 0.95703125
vt 0.34155273 0.95703125
vt 0.43652344 0.8203125
vt 0.43676758 0.6845703
vt 0.43603516 0.9560547
vt 0.34155273 0.95654297
vt 0.24707031 0.95703125
vt 0.43652344 0.6845703
vt 0.43676758 0.6845703
vt 0.34155273 0.9560547
vt 0.43603516 0.8203125
vt 0.24707031 0.95654297
vt 0.24682617 0.95703125
vt 0.43652344 0.6845703
vt 0.43652344 0.68408203
vt 0.43652344 0.68408203
vt 0.43603516 0.6845703
vt 0.43603516 0.6845703
vt 0.43603516 0.68408203
vt 0.34155273 0.68408203
vt 0.24707031 0.9560547
vt 0.24682617 0.95654297
vt 0.24658203 0.95654297
vt 0.24645996 0.95654297
vt 0.2467041 0.9560547
vt 0.24645996 0.9560547
vt 0.34155273 0.6845703
vt 0.24707031 0.68408203
vt 0.24707031 0.8203125
vt 0.2467041 0.8203125
vt 0.24707031 0.6845703
vt 0.24645996 0.8203125
vt 0.34155273 0.8203125
vt 0.34155273 0.6845703
vt 0.24707031 0.6845703
vt 0.24682617 0.68408203
vt 0.2467041 0.6845703
vt 0.24645996 0.6845703
vt 0.24645996 0.6845703
vt 0.24682617 0.6845703
vt 0.24658203 0.68408203
vt 0.5395508 0.95654297
vt 0.5395508 0.95654297
vt 0.54003906 0.95654297
vt 0.5395508 0.95654297
vt 0.54003906 0.95654297
vt 0.6386719 0.95654297
vt 0.6386719 0.95654297
vt 0.54003906 0.95654297
vt 0.7373047 0.95654297
vt 0.7373047 0.95654297
vt 0.6386719 0.95654297
vt 0.7373047 0.95654297
vt 0.73779297 0.95654297
vt 0.73779297 0.95654297
vt 0.7373047 0.95654297
vt 0.7373047 0.9560547
vt 0.7373047 0.9560547
vt 0.73779297 0.95654297
vt 0.73779297 0.9560547
vt 0.73779297 0.95654297
vt 0.73779297 0.9560547
vt 0.73779297 0.9560547
vt 0.73779297 0.9560547
vt 0.73779297 0.8144531
vt 0.73779297 0.8144531
vt 0.73779297 0.8144531
vt 0.73779297 0.67285156
vt 0.6386719 0.9560547
vt 0.73779297 0.67285156
vt 0.73779297 0.67285156
vt 0.73779297 0.6723633
vt 0.73779297 0.6723633
vt 0.73779297 0.6723633
vt 0.7373047 0.8144531
vt 0.6386719 0.8144531
vt 0.7373047 0.67285156
vt 0.7373047 0.6723633
vt 0.73779297 0.6723633
vt 0.7373047 0.671875
vt 0.73779297 0.671875
vt 0.7373047 0.671875
vt 0.7373047 0.6723633
vt 0.7373047 0.671875
vt 0.6386719 0.671875
vt 0.6386719 0.6723633
vt 0.6386719 0.671875
vt 0.54003906 0.671875
vt 0.6386719 0.67285156
vt 0.54003906 0.6723633
vt 0.54003906 0.671875
vt 0.5395508 0.671875
vt 0.5395508 0.671875
vt 0.5395508 0.6723633
vt 0.54003906 0.8144531
vt 0.54003906 0.67285156
vt 0.5395508 0.6723633
vt 0.5395508 0.6723633
vt 0.5395508 0.6723633
vt 0.5390625 0.6723633
vt 0.5390625 0.67285156
vt 0.5395508 0.67285156
vt 0.5390625 0.67285156
vt 0.5390625 0.8144531
vt 0.5390625 0.8144531
vt 0.5390625 0.9560547
vt 0.5395508 0.8144531
vt 0.5390625 0.9560547
vt 0.54003906 0.9560547
vt 0.5395508 0.9560547
vt 0.5390625 0.95654297
vt 0.5395508 0.9560547
vt 0.5395508 0.9560547
vt 0.5395508 0.95654297
vn -0.7435492 9.8679906E-05 -0.66868114
vn -0.74354863 9.86803E-05 -0.6686818
vn -0.35671145 0.00016645266 -0.9342146
vn -0.35670885 0.00016645262 -0.9342156
vn -0.14142688 0.00015860719 -0.98994863
vn -0.14142686 0.00015860719 -0.98994863
vn -0.14863092 -1.05424815E-05 -0.98889273
vn -0.3567355 -2.5491125E-05 -0.9342054
vn -0.7412305 -4.162058E-05 -0.6712506
vn 0.43803313 -0.77829194 0.44987628
vn 0.46381477 -0.77872604 0.4224473
vn 0.5825286 -0.77669644 0.23958962
vn 0.7058563 -0.7083547 0.0006224192
vn 0.5872021 -0.75432074 0.29358813
vn 0.6867694 -0.72687525 0.0002891357
vn 0.70617294 -0.70803946 0
vn 0.68270195 -0.73069704 0
vn 0.6867183 -0.7269234 -0.00058864476
vn 0.7058199 -0.70839024 -0.0011952362
vn 0.59351677 -0.7689924 -0.23746237
vn 0.58918405 -0.7653945 -0.25890833
vn 0.46062133 -0.77848905 -0.42635992
vn 0.45542154 -0.78527033 -0.41945413
vn 0.43803313 -0.77829194 0.44987628
vn 0.23914997 -0.7811104 0.5767788
vn 0.46381477 -0.77872604 0.4224473
vn 0.00043825296 -0.70785564 0.70635706
vn 0.29391208 -0.7541271 0.58728874
vn 0.00020175194 -0.7264798 0.6871878
vn -0 -0.7076121 0.7066011
vn -0 -0.73034996 0.6830732
vn -0.00020175369 -0.7264819 0.6871856
vn -0.00043837941 -0.7078557 0.706357
vn -0.29393566 -0.75412947 0.5872739
vn -0.43804365 -0.77828276 0.44988185
vn -0.23916863 -0.7811106 0.57677084
vn -0.46381208 -0.77872854 0.42244545
vn 0.23322652 -0.7723647 -0.59081143
vn 0.45542154 -0.78527033 -0.41945413
vn 0.46062133 -0.77848905 -0.42635992
vn 0.260193 -0.76999605 -0.58258533
vn 0.0008059136 -0.707867 -0.70634526
vn 0.00039090862 -0.7265119 -0.6871537
vn -0 -0.70761466 -0.7065986
vn -0 -0.73035103 -0.6830721
vn -0.00039097993 -0.72651434 -0.68715113
vn -0.00080599706 -0.7078696 -0.70634264
vn -0.23323353 -0.7723644 -0.59080905
vn -0.26020512 -0.7699948 -0.58258164
vn -0.4606278 -0.7784844 -0.42636138
vn -0.45542675 -0.78526664 -0.41945532
vn -0.43804365 -0.77828276 0.44988185
vn -0.58252424 -0.77669615 0.23960099
vn -0.46381208 -0.77872854 0.42244545
vn -0.7058525 -0.7083586 0.0006224686
vn -0.5871782 -0.75432795 0.2936175
vn -0.6867632 -0.72688115 0.00028904315
vn -0.7061692 -0.70804304 0
vn -0.68269604 -0.73070246 0
vn -0.6867137 -0.72692776 -0.00058865256
vn -0.7058165 -0.7083937 -0.0011953193
vn -0.5935141 -0.7689909 -0.23747416
vn -0.5891804 -0.76539207 -0.25892383
vn -0.4606278 -0.7784844 -0.42636138
vn -0.45542675 -0.78526664 -0.41945532
vn 0.74354905 9.867985E-05 -0.6686814
vn 0.7435484 9.8680284E-05 -0.6686821
vn 0.9342121 2.7037824E-05 -0.35671815
vn 0.9342227 2.70362E-05 -0.35669014
vn 0.9863738 1.5771575E-05 -0.16451989
vn 0.9863738 1.5771577E-05 -0.16451989
vn 0.9863739 -1.5258018E-05 -0.16451915
vn 0.9342129 -2.6004645E-05 -0.35671595
vn 0.7412304 -4.1592695E-05 -0.67125064
vn 0.74354905 9.867985E-05 -0.6686814
vn 0.3567178 0.00016645237 -0.9342122
vn 0.7435484 9.8680284E-05 -0.6686821
vn 0.3567131 0.0001664523 -0.93421394
vn 0.14142369 0.00015860723 -0.9899491
vn 0.1414237 0.00015860723 -0.9899491
vn 0.14863092 -1.0536244E-05 -0.98889273
vn 0.35673556 -2.5487274E-05 -0.9342054
vn 0.7412304 -4.1592695E-05 -0.67125064
vn -0.9342132 2.7037635E-05 -0.35671502
vn -0.74354863 9.86803E-05 -0.6686818
vn -0.7435492 9.8679906E-05 -0.66868114
vn -0.9342231 2.7036125E-05 -0.35668904
vn -0.98637366 1.577165E-05 -0.16452062
vn -0.98637366 1.5771651E-05 -0.16452062
vn -0.9863739 -1.5255554E-05 -0.16451918
vn -0.9342128 -2.6027736E-05 -0.356716
vn -0.7412305 -4.162058E-05 -0.6712506
vn -0.93185323 -0.00010948511 0.3628353
vn -0.9862277 0 0.16539346
vn -0.9862277 0 0.16539344
vn -0.9318521 -0.00010948681 0.36283836
vn -0.7409869 -0.00023653831 0.6715194
vn -0.7409832 0.00022687991 0.67152345
vn -0.74098533 0.00022687991 0.67152125
vn -0.931852 0.00010500655 0.36283848
vn -0.98622805 0 0.16539147
vn -0 0 -1
vn -0 0 -1
vn -0 0 -1
vn -0 0 -1
vn -0 0 -1
vn -0 0 -1
vn -0 0 -1
vn -0 0 -1
vn -0 0 -1
vn 0.98622805 0 0.16539155
vn 0.98622805 0 0.16539158
vn 0.9318527 -0.00010941103 0.36283684
vn 0.9318524 -0.00010941144 0.36283755
vn 0.7409857 -0.00023656043 0.6715208
vn 0.7409834 -0.0002365605 0.6715233
vn 0.74098533 0.00022685906 0.67152125
vn 0.931852 0.00010500655 0.36283848
vn 0.98622805 0 0.16539147
vn 0.36283892 -9.943162E-05 0.93185186
vn 0.14915854 0 0.9888132
vn 0.14915857 0 0.9888132
vn 0.36283928 -9.94318E-05 0.9318517
vn 0.7409857 -0.00023656043 0.6715208
vn 0.7409832 0.00022685908 0.67152345
vn 0.74098533 0.00022685906 0.67152125
vn 0.36284488 9.534428E-05 0.9318495
vn 0.1491641 0 0.98881245
vn -0.14916898 0 0.98881173
vn -0.14916898 0 0.98881173
vn -0.36284304 -9.940019E-05 0.93185025
vn -0.36284593 -9.940158E-05 0.93184906
vn -0.7409869 -0.00023653831 0.6715194
vn -0.7409847 -0.00023653838 0.67152184
vn -0.74098533 0.00022687991 0.67152125
vn -0.36284488 9.536268E-05 0.9318495
vn -0.1491641 0 0.98881245
vn -0 0 1
vn -0 0 1
vn -0 0 1
vn -0 0 1
vn -0 0 1
vn -0 0 1
vn -0 0 1
vn -0 0 1
vn -0 0 1
vn -0.40409103 0.0040455502 -0.9147098
vn -0.4041256 0.0143748885 -0.91459054
vn -0.0006211225 0.028853344 -0.9995834
vn -0.0006216154 0.0053375745 -0.9999856
vn -0 0.0053402 -0.9999858
vn -0 0.022568095 -0.9997453
vn 0.0006216155 0.0053375745 -0.9999856
vn 0.00062112237 0.028853344 -0.9995834
vn 0.40409094 0.004045492 -0.9147099
vn 0.40412772 0.014374815 -0.91458964
vn -0.0006220489 0.02891016 0.9995819
vn -0.4036861 0.048783347 0.9135961
vn -0.40409097 0.004045612 0.9147098
vn -0.00062165246 0.005337736 0.9999856
vn -0 0.022567187 0.9997453
vn -0 0.005340361 0.9999858
vn 0.0006216556 0.005337736 0.9999856
vn 0.00062204635 0.028910156 0.9995819
vn 0.40409154 0.0040455973 0.9147096
vn 0.40368763 0.048782587 0.9135954
vn -0.40409097 0.004045612 0.9147098
vn -0.4036861 0.048783347 0.9135961
vn -0.7064803 0.048196003 0.70608974
vn -0.70730025 0.0024213453 0.70690906
vn -0.9137996 0.048068184 0.40331095
vn -0.9148818 0.0040441863 0.40370166
vn -0.9995802 0.028957594 0.0008904378
vn -0.99998546 0.005333459 0.0008911473
vn -0.9999858 0.005337222 0
vn -0.9997441 0.022620352 0
vn -0.99998546 0.005333459 -0.0008911473
vn -0.99958235 0.028884929 -0.0008904413
vn -0.9148818 0.004044186 -0.4037015
vn -0.91476226 0.014379857 -0.40373647
vn -0.7073003 0.0024213828 -0.70690906
vn -0.7071127 0.023150887 -0.70672166
vn -0.40409103 0.0040455502 -0.9147098
vn -0.4041256 0.0143748885 -0.91459054
vn -0.7071127 0.023150887 -0.70672166
vn 5.6342724E-06 1 7.3160068E-06
vn 4.4809663E-06 1 9.047413E-06
vn 7.5015914E-06 1 0
vn -0.91476226 0.014379857 -0.40373647
vn -0.99958235 0.028884929 -0.0008904413
vn 7.5091893E-06 1 0
vn -0.9997441 0.022620352 0
vn -0.9995802 0.028957594 0.0008904378
vn 7.486988E-06 1 0
vn -0.9137996 0.048068184 0.40331095
vn 6.42202E-06 1 -1.4302146E-05
vn 6.650959E-06 1 -2.7306687E-06
vn -0.7064803 0.048196003 0.70608974
vn -0.7071127 0.023150887 -0.70672166
vn 4.4809663E-06 1 9.047413E-06
vn 2.334053E-06 1 8.389178E-06
vn -0 1 5.5322794E-06
vn -0.4041256 0.0143748885 -0.91459054
vn -0.0006211225 0.028853344 -0.9995834
vn -0 1 5.55981E-06
vn -0 0.022568095 -0.9997453
vn 0.00062112237 0.028853344 -0.9995834
vn -0 1 5.5931305E-06
vn 0.40412772 0.014374815 -0.91458964
vn 0.7071127 0.023151284 -0.70672166
vn -3.5010241E-06 1 1.1446986E-05
vn -6.7215456E-06 1 4.523706E-06
vn -0.7064803 0.048196003 0.70608974
vn -0.4036861 0.048783347 0.9135961
vn 6.650959E-06 1 -2.7306687E-06
vn 3.9143074E-06 1 1.8206222E-06
vn -3.3014527E-05 0.99999607 0.0028013275
vn -0.0006220489 0.02891016 0.9995819
vn -0 0.99999607 0.0028243514
vn -0 0.022567187 0.9997453
vn 0.00062204635 0.028910156 0.9995819
vn 3.2996235E-05 0.99999607 0.0028013645
vn 0.40368763 0.048782587 0.9135954
vn -3.8336334E-06 1 -3.1333052E-06
vn -7.086071E-06 1 -7.0196E-06
vn 0.7064805 0.048196867 0.70608956
vn 0.7064805 0.048196867 0.70608956
vn 0.40368763 0.048782587 0.9135954
vn 0.40409154 0.0040455973 0.9147096
vn 0.70730036 0.0024213453 0.70690894
vn 0.9137985 0.04806787 0.40331355
vn 0.9148817 0.0040441845 0.40370178
vn 0.9995802 0.0289577 0.0008904347
vn 0.99998546 0.0053334567 0.0008911474
vn 0.9999858 0.0053372215 0
vn 0.9997441 0.022620415 0
vn 0.99958235 0.028884986 -0.0008904376
vn 0.99998546 0.00533346 -0.0008911474
vn 0.9148817 0.0040441845 -0.40370178
vn 0.91476107 0.0143797705 -0.4037393
vn 0.70730036 0.0024213828 -0.70690894
vn 0.7071127 0.023151284 -0.70672166
vn 0.40409094 0.004045492 -0.9147099
vn 0.40412772 0.014374815 -0.91458964
vn 0.7071127 0.023151284 -0.70672166
vn -6.7215456E-06 1 4.523706E-06
vn -8.4514E-06 1 7.3159804E-06
vn -9.378069E-06 1 0
vn 0.91476107 0.0143797705 -0.4037393
vn 0.99958235 0.028884986 -0.0008904376
vn -9.378475E-06 1 0
vn 0.9997441 0.022620415 0
vn 0.9995802 0.0289577 0.0008904347
vn -9.336102E-06 1 0
vn 0.9137985 0.04806787 0.40331355
vn -9.60708E-06 1 -9.923731E-06
vn -7.086071E-06 1 -7.0196E-06
vn 0.7064805 0.048196867 0.70608956
vn 1 0 0
vn 1 0 0
vn 1 0 0
vn 1 0 0
vn 1 0 0
vn 1 0 0
vn 1 0 0
vn 1 0 0
vn 1 0 0
vn -1 0 0
vn -1 0 0
vn -1 0 0
vn -1 0 0
vn -1 0 0
vn -1 0 0
vn -1 0 0
vn -1 0 0
vn -1 0 0
vn 0.40409154 0.0040455973 0.9147096
vn -0 1 0
vn 0.70730036 0.0024213453 0.70690894
vn 0.9148817 0.0040441845 0.40370178
vn -0 1 0
vn 0.0006216556 0.005337736 0.9999856
vn -0 0.005340361 0.9999858
vn -0 1 0
vn 0.99998546 0.0053334567 0.0008911474
vn 0.9999858 0.0053372215 0
vn -0 1 0
vn -0.00062165246 0.005337736 0.9999856
vn -0 1 0
vn -0 1 0
vn 0.99998546 0.00533346 -0.0008911474
vn -0 1 0
vn -0.40409097 0.004045612 0.9147098
vn -0 1 0
vn -0 1 0
vn -0 1 0
vn 0.9148817 0.0040441845 -0.40370178
vn -0 1 0
vn -0.70730025 0.0024213453 0.70690906
vn -0.9148818 0.0040441863 0.40370166
vn -0 1 0
vn -0 1 0
vn -0.99998546 0.005333459 0.0008911473
vn -0.9999858 0.005337222 0
vn -0 1 0
vn -0 1 0
vn 0.70730036 0.0024213828 -0.70690894
vn 0.40409094 0.004045492 -0.9147099
vn -0 1 0
vn 0.0006216155 0.0053375745 -0.9999856
vn -0 1 0
vn -0.99998546 0.005333459 -0.0008911473
vn -0 1 0
vn -0 1 0
vn -0 1 0
vn -0 0.0053402 -0.9999858
vn -0 1 0
vn -0 1 0
vn -0 1 0
vn -0.9148818 0.004044186 -0.4037015
vn -0 1 0
vn -0.0006216154 0.0053375745 -0.9999856
vn -0.40409103 0.0040455502 -0.9147098
vn -0 1 0
vn -0.7073003 0.0024213828 -0.70690906
vn 5.0269096E-05 -1 1.5297084E-05
vn -0.5935141 -0.7689909 -0.23747416
vn -0.6867137 -0.72692776 -0.00058865256
vn -0.45542675 -0.78526664 -0.41945532
vn 1.4958154E-05 -1 0
vn 2.227027E-05 -1 0
vn -0.68269604 -0.73070246 0
vn -0 -1 0
vn 2.9855646E-05 -1 0
vn -0.6867632 -0.72688115 0.00028904315
vn -0 -1 0
vn 7.871006E-05 -1 -2.0396168E-05
vn -0.5871782 -0.75432795 0.2936175
vn -0.43804365 -0.77828276 0.44988185
vn -0 -1 0
vn -0 -1 0
vn -0 -1 0
vn 4.5836372E-05 -1 -4.5797184E-05
vn 2.0408632E-05 -1 -7.865804E-05
vn -0.29393566 -0.75412947 0.5872739
vn -0.00020175369 -0.7264819 0.6871856
vn -0 -1 0
vn -0 -1 -2.9789884E-05
vn -0 -0.73034996 0.6830732
vn -0 -1 0
vn -0 -1 -1.4838557E-05
vn 0.00020175194 -0.7264798 0.6871878
vn -0 -1 0
vn -0 -1 0
vn -0 -1 0
vn -0 -1 0
vn 0.29391208 -0.7541271 0.58728874
vn 0.43803313 -0.77829194 0.44987628
vn -0 -1 0
vn -0 -1 0
vn -0 -1 0
vn -0 -1 0
vn -0 -1 0
vn -0 -1 0
vn 0.5872021 -0.75432074 0.29358813
vn 0.6867694 -0.72687525 0.0002891357
vn -0 -1 0
vn -0 -1 0
vn 0.68270195 -0.73069704 0
vn -0 -1 0
vn -0 -1 0
vn 0.6867183 -0.7269234 -0.00058864476
vn -0 -1 0
vn -0 -1 0
vn -0 -1 0
vn -0 -1 0
vn 0.59351677 -0.7689924 -0.23746237
vn 0.45542154 -0.78527033 -0.41945413
vn -0 -1 0
vn -0 -1 0
vn -0 -1 0
vn -0 -1 0
vn -0 -1 0
vn 0.23322652 -0.7723647 -0.59081143
vn 0.00039090862 -0.7265119 -0.6871537
vn -0 -1 0
vn -0 -1 0
vn -0 -0.73035103 -0.6830721
vn -0 -1 0
vn -0.00039097993 -0.72651434 -0.68715113
vn -0 -1 0
vn -0 -1 0
vn -0 -1 0
vn 2.0408343E-05 -1 4.3633892E-05
vn -0.23323353 -0.7723644 -0.59080905
vn -0 -1 0
vn -0 -1 0
vn 3.7819584E-05 -1 4.235519E-05
g Box_under_0
f 3/3/3 2/2/2 1/1/1
f 1/1/1 4/4/4 3/3/3
f 5/5/5 3/3/3 4/4/4
f 4/4/4 6/6/6 5/5/5
f 7/7/7 6/6/6 4/4/4
f 4/4/4 8/8/8 7/7/7
f 8/8/8 4/4/4 1/1/1
f 1/1/1 9/9/9 8/8/8
f 12/12/12 11/11/11 10/10/10
f 13/13/13 12/12/12 10/10/10
f 14/14/14 13/13/13 10/10/10
f 15/15/15 13/13/13 14/14/14
f 13/13/13 15/15/15 16/16/16
f 17/17/17 16/16/16 15/15/15
f 16/16/16 17/17/17 18/18/18
f 18/18/18 19/19/19 16/16/16
f 19/19/19 18/18/18 20/20/20
f 20/20/20 21/21/21 19/19/19
f 20/20/20 22/22/22 21/21/21
f 20/20/20 23/23/23 22/22/22
f 26/26/26 25/25/25 24/24/24
f 25/25/25 27/27/27 24/24/24
f 24/24/24 27/27/27 28/28/28
f 28/28/28 27/27/27 29/29/29
f 29/29/29 27/27/27 30/30/30
f 30/30/30 31/31/31 29/29/29
f 32/32/32 31/31/31 30/30/30
f 30/30/30 33/33/33 32/32/32
f 33/33/33 34/34/34 32/32/32
f 33/33/33 35/35/35 34/34/34
f 33/33/33 36/36/36 35/35/35
f 36/36/36 37/37/37 35/35/35
f 40/40/40 39/39/39 38/38/38
f 38/38/38 41/41/41 40/40/40
f 38/38/38 42/42/42 41/41/41
f 42/42/42 38/38/38 43/43/43
f 44/44/44 42/42/42 43/43/43
f 45/45/45 44/44/44 43/43/43
f 46/46/46 44/44/44 45/45/45
f 44/44/44 46/46/46 47/47/47
f 47/47/47 46/46/46 48/48/48
f 48/48/48 49/49/49 47/47/47
f 48/48/48 50/50/50 49/49/49
f 50/50/50 48/48/48 51/51/51
f 54/54/54 53/53/53 52/52/52
f 53/53/53 55/55/55 52/52/52
f 55/55/55 56/56/56 52/52/52
f 55/55/55 57/57/57 56/56/56
f 58/58/58 57/57/57 55/55/55
f 58/58/58 59/59/59 57/57/57
f 60/60/60 59/59/59 58/58/58
f 58/58/58 61/61/61 60/60/60
f 62/62/62 60/60/60 61/61/61
f 62/62/62 61/61/61 63/63/63
f 62/62/62 63/63/63 64/64/64
f 64/64/64 65/65/65 62/62/62
f 68/68/68 67/67/67 66/66/66
f 66/66/66 69/69/69 68/68/68
f 70/70/70 68/68/68 69/69/69
f 69/69/69 71/71/71 70/70/70
f 72/72/72 71/71/71 69/69/69
f 69/69/69 73/73/73 72/72/72
f 73/73/73 69/69/69 66/66/66
f 66/66/66 74/74/74 73/73/73
f 77/77/77 76/76/76 75/75/75
f 78/78/78 75/75/75 76/76/76
f 76/76/76 79/79/79 78/78/78
f 80/80/80 78/78/78 79/79/79
f 81/81/81 78/78/78 80/80/80
f 81/81/81 82/82/82 78/78/78
f 82/82/82 75/75/75 78/78/78
f 82/82/82 83/83/83 75/75/75
f 86/86/86 85/85/85 84/84/84
f 87/87/87 86/86/86 84/84/84
f 87/87/87 84/84/84 88/88/88
f 88/88/88 89/89/89 87/87/87
f 90/90/90 87/87/87 89/89/89
f 87/87/87 90/90/90 91/91/91
f 91/91/91 86/86/86 87/87/87
f 86/86/86 91/91/91 92/92/92
f 95/95/95 94/94/94 93/93/93
f 93/93/93 96/96/96 95/95/95
f 96/96/96 93/93/93 97/97/97
f 98/98/98 96/96/96 97/97/97
f 96/96/96 98/98/98 99/99/99
f 99/99/99 100/100/100 96/96/96
f 95/95/95 96/96/96 100/100/100
f 100/100/100 101/101/101 95/95/95
f 104/104/104 103/103/103 102/102/102
f 102/102/102 105/105/105 104/104/104
f 105/105/105 106/106/106 104/104/104
f 106/106/106 105/105/105 107/107/107
f 108/108/108 105/105/105 102/102/102
f 108/108/108 107/107/107 105/105/105
f 109/109/109 108/108/108 102/102/102
f 107/107/107 108/108/108 110/110/110
f 113/113/113 112/112/112 111/111/111
f 111/111/111 114/114/114 113/113/113
f 115/115/115 113/113/113 114/114/114
f 114/114/114 116/116/116 115/115/115
f 116/116/116 114/114/114 117/117/117
f 114/114/114 118/118/118 117/117/117
f 114/114/114 111/111/111 118/118/118
f 111/111/111 119/119/119 118/118/118
f 122/122/122 121/121/121 120/120/120
f 120/120/120 123/123/123 122/122/122
f 123/123/123 120/120/120 124/124/124
f 124/124/124 125/125/125 123/123/123
f 123/123/123 125/125/125 126/126/126
f 123/123/123 126/126/126 127/127/127
f 122/122/122 123/123/123 127/127/127
f 127/127/127 128/128/128 122/122/122
f 131/131/131 130/130/130 129/129/129
f 129/129/129 132/132/132 131/131/131
f 133/133/133 131/131/131 132/132/132
f 133/133/133 132/132/132 134/134/134
f 134/134/134 132/132/132 135/135/135
f 136/136/136 135/135/135 132/132/132
f 136/136/136 132/132/132 129/129/129
f 129/129/129 137/137/137 136/136/136
f 140/140/140 139/139/139 138/138/138
f 138/138/138 141/141/141 140/140/140
f 142/142/142 140/140/140 141/141/141
f 138/138/138 143/143/143 141/141/141
f 141/141/141 144/144/144 142/142/142
f 143/143/143 145/145/145 141/141/141
f 146/146/146 144/144/144 141/141/141
f 141/141/141 145/145/145 146/146/146
f 149/149/149 148/148/148 147/147/147
f 147/147/147 150/150/150 149/149/149
f 151/151/151 149/149/149 150/150/150
f 149/149/149 151/151/151 152/152/152
f 152/152/152 151/151/151 153/153/153
f 153/153/153 154/154/154 152/152/152
f 154/154/154 153/153/153 155/155/155
f 155/155/155 156/156/156 154/154/154
f 159/159/159 158/158/158 157/157/157
f 157/157/157 160/160/160 159/159/159
f 160/160/160 157/157/157 161/161/161
f 161/161/161 162/162/162 160/160/160
f 163/163/163 162/162/162 161/161/161
f 164/164/164 163/163/163 161/161/161
f 165/165/165 163/163/163 164/164/164
f 164/164/164 166/166/166 165/165/165
f 169/169/169 168/168/168 167/167/167
f 167/167/167 170/170/170 169/169/169
f 171/171/171 169/169/169 170/170/170
f 170/170/170 172/172/172 171/171/171
f 173/173/173 171/171/171 172/172/172
f 172/172/172 174/174/174 173/173/173
f 173/173/173 174/174/174 175/175/175
f 173/173/173 175/175/175 176/176/176
f 176/176/176 175/175/175 177/177/177
f 176/176/176 177/177/177 178/178/178
f 178/178/178 177/177/177 179/179/179
f 179/179/179 180/180/180 178/178/178
f 180/180/180 179/179/179 181/181/181
f 182/182/182 180/180/180 181/181/181
f 182/182/182 181/181/181 183/183/183
f 184/184/184 182/182/182 183/183/183
f 187/187/187 186/186/186 185/185/185
f 186/186/186 188/188/188 185/185/185
f 188/188/188 189/189/189 185/185/185
f 188/188/188 190/190/190 189/189/189
f 191/191/191 190/190/190 188/188/188
f 191/191/191 192/192/192 190/190/190
f 193/193/193 192/192/192 191/191/191
f 191/191/191 194/194/194 193/193/193
f 195/195/195 193/193/193 194/194/194
f 195/195/195 194/194/194 196/196/196
f 195/195/195 196/196/196 197/197/197
f 197/197/197 198/198/198 195/195/195
f 201/201/201 200/200/200 199/199/199
f 202/202/202 201/201/201 199/199/199
f 202/202/202 199/199/199 203/203/203
f 202/202/202 203/203/203 204/204/204
f 205/205/205 202/202/202 204/204/204
f 204/204/204 206/206/206 205/205/205
f 205/205/205 206/206/206 207/207/207
f 207/207/207 208/208/208 205/205/205
f 209/209/209 208/208/208 207/207/207
f 210/210/210 208/208/208 209/209/209
f 211/211/211 208/208/208 210/210/210
f 212/212/212 211/211/211 210/210/210
f 215/215/215 214/214/214 213/213/213
f 214/214/214 215/215/215 216/216/216
f 214/214/214 216/216/216 217/217/217
f 217/217/217 218/218/218 214/214/214
f 218/218/218 217/217/217 219/219/219
f 219/219/219 220/220/220 218/218/218
f 221/221/221 220/220/220 219/219/219
f 219/219/219 222/222/222 221/221/221
f 222/222/222 223/223/223 221/221/221
f 223/223/223 222/222/222 224/224/224
f 223/223/223 224/224/224 225/225/225
f 225/225/225 226/226/226 223/223/223
f 229/229/229 228/228/228 227/227/227
f 227/227/227 230/230/230 229/229/229
f 230/230/230 227/227/227 231/231/231
f 231/231/231 232/232/232 230/230/230
f 232/232/232 231/231/231 233/233/233
f 233/233/233 234/234/234 232/232/232
f 234/234/234 233/233/233 235/235/235
f 235/235/235 233/233/233 236/236/236
f 235/235/235 236/236/236 237/237/237
f 237/237/237 238/238/238 235/235/235
f 239/239/239 238/238/238 237/237/237
f 237/237/237 240/240/240 239/239/239
f 240/240/240 241/241/241 239/239/239
f 241/241/241 240/240/240 242/242/242
f 242/242/242 243/243/243 241/241/241
f 243/243/243 242/242/242 244/244/244
f 247/247/247 246/246/246 245/245/245
f 248/248/248 247/247/247 245/245/245
f 249/249/249 248/248/248 245/245/245
f 250/250/250 248/248/248 249/249/249
f 248/248/248 250/250/250 251/251/251
f 252/252/252 251/251/251 250/250/250
f 251/251/251 252/252/252 253/253/253
f 253/253/253 254/254/254 251/251/251
f 254/254/254 253/253/253 255/255/255
f 255/255/255 256/256/256 254/254/254
f 255/255/255 257/257/257 256/256/256
f 255/255/255 258/258/258 257/257/257
f 261/261/261 260/260/260 259/259/259
f 261/261/261 259/259/259 262/262/262
f 261/261/261 263/263/263 260/260/260
f 262/262/262 264/264/264 261/261/261
f 265/265/265 263/263/263 261/261/261
f 261/261/261 264/264/264 266/266/266
f 261/261/261 267/267/267 265/265/265
f 266/266/266 267/267/267 261/261/261
f 270/270/270 269/269/269 268/268/268
f 268/268/268 271/271/271 270/270/270
f 272/272/272 269/269/269 270/270/270
f 271/271/271 273/273/273 270/270/270
f 270/270/270 274/274/274 272/272/272
f 275/275/275 270/270/270 273/273/273
f 276/276/276 274/274/274 270/270/270
f 270/270/270 275/275/275 276/276/276
f 279/279/279 278/278/278 277/277/277
f 280/280/280 278/278/278 279/279/279
f 277/277/277 278/278/278 281/281/281
f 281/281/281 282/282/282 277/277/277
f 283/283/283 282/282/282 281/281/281
f 284/284/284 278/278/278 280/280/280
f 280/280/280 285/285/285 284/284/284
f 284/284/284 285/285/285 286/286/286
f 287/287/287 283/283/283 281/281/281
f 288/288/288 283/283/283 287/287/287
f 289/289/289 281/281/281 278/278/278
f 278/278/278 284/284/284 289/289/289
f 287/287/287 281/281/281 289/289/289
f 286/286/286 290/290/290 284/284/284
f 290/290/290 286/286/286 291/291/291
f 287/287/287 292/292/292 288/288/288
f 293/293/293 288/288/288 292/292/292
f 289/289/289 284/284/284 294/294/294
f 290/290/290 294/294/294 284/284/284
f 295/295/295 287/287/287 289/289/289
f 292/292/292 287/287/287 295/295/295
f 295/295/295 289/289/289 294/294/294
f 291/291/291 296/296/296 290/290/290
f 296/296/296 291/291/291 297/297/297
f 298/298/298 293/293/293 292/292/292
f 298/298/298 299/299/299 293/293/293
f 298/298/298 300/300/300 299/299/299
f 295/295/295 301/301/301 292/292/292
f 298/298/298 292/292/292 301/301/301
f 300/300/300 298/298/298 302/302/302
f 301/301/301 302/302/302 298/298/298
f 302/302/302 303/303/303 300/300/300
f 304/304/304 303/303/303 302/302/302
f 296/296/296 305/305/305 290/290/290
f 294/294/294 290/290/290 305/305/305
f 296/296/296 297/297/297 306/306/306
f 305/305/305 296/296/296 306/306/306
f 307/307/307 306/306/306 297/297/297
f 308/308/308 306/306/306 307/307/307
f 309/309/309 306/306/306 308/308/308
f 306/306/306 309/309/309 305/305/305
f 308/308/308 310/310/310 309/309/309
f 302/302/302 311/311/311 304/304/304
f 312/312/312 304/304/304 311/311/311
f 294/294/294 305/305/305 313/313/313
f 313/313/313 305/305/305 309/309/309
f 314/314/314 309/309/309 310/310/310
f 314/314/314 313/313/313 309/309/309
f 315/315/315 313/313/313 314/314/314
f 316/316/316 314/314/314 310/310/310
f 313/313/313 317/317/317 294/294/294
f 317/317/317 313/313/313 315/315/315
f 317/317/317 295/295/295 294/294/294
f 301/301/301 295/295/295 317/317/317
f 302/302/302 301/301/301 318/318/318
f 317/317/317 318/318/318 301/301/301
f 318/318/318 311/311/311 302/302/302
f 315/315/315 318/318/318 317/317/317
f 311/311/311 318/318/318 315/315/315
f 311/311/311 319/319/319 312/312/312
f 315/315/315 319/319/319 311/311/311
f 312/312/312 319/319/319 320/320/320
f 321/321/321 314/314/314 316/316/316
f 314/314/314 321/321/321 315/315/315
f 316/316/316 322/322/322 321/321/321
f 321/321/321 322/322/322 323/323/323
f 320/320/320 319/319/319 324/324/324
f 324/324/324 319/319/319 315/315/315
f 315/315/315 321/321/321 324/324/324
f 323/323/323 324/324/324 321/321/321
f 324/324/324 325/325/325 320/320/320
f 324/324/324 323/323/323 325/325/325
f 328/328/328 327/327/327 326/326/326
f 326/326/326 327/327/327 329/329/329
f 326/326/326 330/330/330 328/328/328
f 328/328/328 330/330/330 331/331/331
f 328/328/328 331/331/331 332/332/332
f 333/333/333 330/330/330 326/326/326
f 331/331/331 330/330/330 333/333/333
f 332/332/332 331/331/331 334/334/334
f 332/332/332 334/334/334 335/335/335
f 333/333/333 336/336/336 331/331/331
f 334/334/334 331/331/331 336/336/336
f 335/335/335 334/334/334 337/337/337
f 337/337/337 338/338/338 335/335/335
f 339/339/339 338/338/338 337/337/337
f 336/336/336 340/340/340 334/334/334
f 334/334/334 340/340/340 337/337/337
f 341/341/341 340/340/340 336/336/336
f 337/337/337 340/340/340 342/342/342
f 342/342/342 340/340/340 341/341/341
f 337/337/337 343/343/343 339/339/339
f 342/342/342 343/343/343 337/337/337
f 344/344/344 339/339/339 343/343/343
f 342/342/342 344/344/344 343/343/343
f 345/345/345 339/339/339 344/344/344
f 346/346/346 345/345/345 344/344/344
f 344/344/344 342/342/342 347/347/347
f 341/341/341 347/347/347 342/342/342
f 344/344/344 348/348/348 346/346/346
f 347/347/347 348/348/348 344/344/344
f 349/349/349 346/346/346 348/348/348
f 348/348/348 347/347/347 350/350/350
f 350/350/350 347/347/347 341/341/341
f 348/348/348 351/351/351 349/349/349
f 350/350/350 351/351/351 348/348/348
f 349/349/349 351/351/351 352/352/352
f 336/336/336 353/353/353 341/341/341
f 333/333/333 353/353/353 336/336/336
f 351/351/351 350/350/350 354/354/354
f 351/351/351 355/355/355 352/352/352
f 354/354/354 355/355/355 351/351/351
f 352/352/352 355/355/355 356/356/356
f 356/356/356 355/355/355 354/354/354
f 356/356/356 357/357/357 352/352/352
f 358/358/358 357/357/357 356/356/356
f 341/341/341 359/359/359 350/350/350
f 350/350/350 359/359/359 354/354/354
f 360/360/360 359/359/359 341/341/341
f 341/341/341 353/353/353 360/360/360
f 359/359/359 361/361/361 354/354/354
f 361/361/361 359/359/359 360/360/360
f 354/354/354 362/362/362 356/356/356
f 362/362/362 354/354/354 361/361/361
f 356/356/356 363/363/363 358/358/358
f 356/356/356 362/362/362 363/363/363
f 358/358/358 363/363/363 364/364/364
f 363/363/363 362/362/362 364/364/364
f 364/364/364 365/365/365 358/358/358
f 366/366/366 365/365/365 364/364/364
f 367/367/367 364/364/364 362/362/362
f 361/361/361 367/367/367 362/362/362
f 364/364/364 368/368/368 366/366/366
f 367/367/367 368/368/368 364/364/364
f 366/366/366 368/368/368 369/369/369
f 367/367/367 361/361/361 370/370/370
f 368/368/368 367/367/367 370/370/370
f 371/371/371 369/369/369 368/368/368
f 370/370/370 371/371/371 368/368/368
f 369/369/369 371/371/371 372/372/372
f 373/373/373 370/370/370 361/361/361
f 360/360/360 373/373/373 361/361/361
f 371/371/371 370/370/370 374/374/374
f 370/370/370 373/373/373 374/374/374
f 375/375/375 372/372/372 371/371/371
f 374/374/374 375/375/375 371/371/371
f 372/372/372 375/375/375 376/376/376
f 376/376/376 375/375/375 374/374/374
f 376/376/376 377/377/377 372/372/372
f 378/378/378 377/377/377 376/376/376
f 360/360/360 379/379/379 373/373/373
f 379/379/379 360/360/360 353/353/353
f 380/380/380 374/374/374 373/373/373
f 379/379/379 380/380/380 373/373/373
f 374/374/374 381/381/381 376/376/376
f 381/381/381 374/374/374 380/380/380
f 376/376/376 382/382/382 378/378/378
f 376/376/376 381/381/381 382/382/382
f 378/378/378 382/382/382 383/383/383
f 382/382/382 381/381/381 383/383/383
f 383/383/383 384/384/384 378/378/378
f 385/385/385 384/384/384 383/383/383
f 380/380/380 386/386/386 381/381/381
f 383/383/383 381/381/381 386/386/386
f 386/386/386 380/380/380 379/379/379
f 383/383/383 387/387/387 385/385/385
f 386/386/386 387/387/387 383/383/383
f 388/388/388 385/385/385 387/387/387
f 389/389/389 388/388/388 387/387/387
f 389/389/389 387/387/387 386/386/386
f 390/390/390 388/388/388 389/389/389
f 379/379/379 391/391/391 386/386/386
f 391/391/391 389/389/389 386/386/386
f 389/389/389 392/392/392 390/390/390
f 392/392/392 389/389/389 391/391/391
f 393/393/393 391/391/391 379/379/379
f 353/353/353 393/393/393 379/379/379
f 333/333/333 393/393/393 353/353/353
f 390/390/390 392/392/392 394/394/394
f 394/394/394 395/395/395 390/390/390
f 329/329/329 395/395/395 394/394/394
f 391/391/391 396/396/396 392/392/392
f 391/391/391 393/393/393 396/396/396
f 394/394/394 392/392/392 396/396/396
f 393/393/393 333/333/333 397/397/397
f 397/397/397 396/396/396 393/393/393
f 397/397/397 394/394/394 396/396/396
f 326/326/326 397/397/397 333/333/333
f 394/394/394 398/398/398 329/329/329
f 397/397/397 398/398/398 394/394/394
f 397/397/397 326/326/326 398/398/398
f 329/329/329 398/398/398 326/326/326
