g Box_top
v 0.5414819 0.3167024 0.37768906
v 0.54840004 0.31036898 0.3814
v 0.5470502 0.31036904 0.38325018
v 0.54885 0.31036904 0.37871665
v 0.5420697 0.3167024 0.37710094
v 0.54249996 0.3167024 0.3754942
v 0.54885 0.31036904 -9.58571E-09
v 0.54249996 0.3167024 7.4505807E-10
v 0.54249996 0.3167024 -0.3754942
v 0.54885 0.31036904 -0.37871665
v 0.5420697 0.3167024 -0.37710094
v 0.54840195 0.31036907 -0.38141784
v 0.5471 0.3103691 -0.3833
v 0.5414819 0.3167024 -0.37768906
v 0.5414819 0.3167024 0.37768906
v 0.5470502 0.31036904 0.38325018
v 0.5455 0.31036898 0.3846
v 0.54251665 0.31036904 0.38505003
v 0.54089415 0.3167024 0.37827715
v 0.53928834 0.3167024 0.3787077
v -1.1102165E-17 0.31036904 0.38505003
v -0 0.3167024 0.3787077
v -0.53928834 0.3167024 0.3787077
v -0.54251665 0.31036904 0.38505003
v -0.54089415 0.3167024 0.37827715
v -0.5414819 0.3167024 0.37768906
v -0.5455 0.31036898 0.3846
v -0.5470502 0.31036904 0.38325018
v 0.5414819 0.3167024 -0.37768906
v 0.54089415 0.3167024 -0.37827715
v 0.5471 0.3103691 -0.3833
v 0.54552233 0.3103691 -0.38464457
v 0.54251665 0.31036907 -0.38505003
v 0.53928834 0.3167024 -0.3787077
v -0 0.31036907 -0.38505003
v 9.275125E-18 0.3167024 -0.3787077
v -0.53928834 0.3167024 -0.3787077
v -0.54251665 0.31036907 -0.38505003
v -0.54089415 0.3167024 -0.37827715
v -0.54552233 0.3103691 -0.38464457
v -0.5414819 0.3167024 -0.37768906
v -0.5471 0.3103691 -0.3833
v -0.5414819 0.3167024 0.37768906
v -0.5470502 0.31036904 0.38325018
v -0.54840004 0.31036898 0.3814
v -0.54885 0.31036904 0.37871665
v -0.5420697 0.3167024 0.37710094
v -0.54249996 0.3167024 0.3754942
v -0.54885 0.31036904 -9.58571E-09
v -0.54249996 0.3167024 7.4505807E-10
v -0.54249996 0.3167024 -0.3754942
v -0.54885 0.31036904 -0.37871665
v -0.5420697 0.3167024 -0.37710094
v -0.54840195 0.31036907 -0.38141784
v -0.5414819 0.3167024 -0.37768906
v -0.5471 0.3103691 -0.3833
v 0.54251665 0.31036907 -0.37871665
v 0.54251665 0.31036907 -0.38505003
v -0 0.31036907 -0.38505003
v -0 0.31036907 -0.37871665
v -0.54251665 0.31036907 -0.37871665
v -0.54251665 0.31036907 -0.38505003
v -0 0.31036907 -8.0955935E-09
v 0.5425167 0.31036907 -8.0955935E-09
v -0 0.310369 0.37871665
v -0.5425167 0.31036907 -8.0955935E-09
v 0.54885 0.31036904 -9.58571E-09
v 0.54885 0.31036904 -0.37871665
v 0.54885 0.31036904 0.37871665
v 0.54840195 0.31036907 -0.38141784
v 0.54251677 0.310369 0.37871665
v 0.54840004 0.31036898 0.3814
v 0.5470502 0.31036904 0.38325018
v 0.5455 0.31036898 0.3846
v 0.54251665 0.31036904 0.38505003
v -1.1102165E-17 0.31036904 0.38505003
v -0.54251665 0.31036904 0.38505003
v 0.54265684 0.31036907 -0.3788568
v 0.5471 0.3103691 -0.3833
v 0.54251665 0.31036907 -0.38505003
v 0.54552233 0.3103691 -0.38464457
v -0.54251677 0.310369 0.37871665
v -0.5455 0.31036898 0.3846
v -0.5470502 0.31036904 0.38325018
v -0.54840004 0.31036898 0.3814
v -0.54885 0.31036904 0.37871665
v -0.54885 0.31036904 -9.58571E-09
v -0.54885 0.31036904 -0.37871665
v -0.54840195 0.31036907 -0.38141784
v -0.54265684 0.31036907 -0.3788568
v -0.54251665 0.31036907 -0.38505003
v -0.5471 0.3103691 -0.3833
v -0.54552233 0.3103691 -0.38464457
v -0.54249996 0.3167024 -0.3754942
v -0.5420697 0.3167024 -0.37710094
v -0.54182816 0.3167024 -0.3768827
v -0.5414819 0.3167024 -0.37768906
v -0.5420697 0.3167024 -0.3754942
v -0.5420697 0.3167024 -7.522728E-18
v -0.54249996 0.3167024 7.4505807E-10
v -0.54089415 0.3167024 -0.3754942
v -0.5420697 0.3167024 0.3754942
v -0.54249996 0.3167024 0.3754942
v -0.54089415 0.3167024 0
v -0.54182816 0.3167024 0.3768827
v -0.5420697 0.3167024 0.37710094
v -0.5414819 0.3167024 0.37768906
v -0.54089415 0.3167024 0.3754942
v -0.5412521 0.3167024 -0.3774591
v -0.540676 0.3167024 -0.37803552
v -0.54089415 0.3167024 -0.37827715
v -0.53928834 0.3167024 -0.3787077
v -0.540676 0.3167024 -0.3768827
v -0.5412521 0.3167024 0.3774591
v -0.540676 0.3167024 0.3768827
v -0.540676 0.3167024 0.37803552
v -0.54089415 0.3167024 0.37827715
v -0.53928834 0.3167024 0.3787077
v -0.53928834 0.3167024 0.3754942
v -0.53928834 0.3167024 -1.4051234E-17
v -0.53928834 0.3167024 -0.3754942
v -0.53928834 0.3167024 -0.37710094
v -0.53928834 0.3167024 0.37827715
v -0 0.3167024 0.3787077
v -0.53928834 0.3167024 0.37710094
v -0.53928834 0.3167024 -0.37827715
v -1.110223E-17 0.3167024 -0.37710094
v -6.0293E-19 0.3167024 -0.37827715
v 9.275125E-18 0.3167024 -0.3787077
v 2.160153E-17 0.3167024 0.37827715
v 0.53928834 0.3167024 0.3787077
v -1.9892488E-17 0.3167024 0.3754942
v -6.355765E-19 0.3167024 0.37710094
v 0.53928834 0.3167024 0.3754942
v 0.53928834 0.3167024 -0.37827715
v 0.53928834 0.3167024 -0.3787077
v 0.53928834 0.3167024 -0.37710094
v 0.540676 0.3167024 -0.37803552
v 0.54089415 0.3167024 -0.37827715
v 0.5414819 0.3167024 -0.37768906
v -6.478284E-18 0.3167024 0
v 0.53928834 0.3167024 0.37710094
v -8.790257E-18 0.3167024 -0.3754942
v 0.53928834 0.3167024 -0.3754942
v 0.540676 0.3167024 -0.3768827
v 0.5412521 0.3167024 -0.3774591
v 0.54182816 0.3167024 -0.3768827
v 0.5420697 0.3167024 -0.37710094
v 0.54249996 0.3167024 -0.3754942
v 0.53928834 0.3167024 0
v 0.54089415 0.3167024 -0.3754942
v 0.5420697 0.3167024 -0.3754942
v 0.54089415 0.3167024 0
v 0.5420697 0.3167024 0
v 0.54249996 0.3167024 7.4505807E-10
v 0.54089415 0.3167024 0.3754942
v 0.5420697 0.3167024 0.3754942
v 0.54249996 0.3167024 0.3754942
v 0.54182816 0.3167024 0.3768827
v 0.5420697 0.3167024 0.37710094
v 0.5414819 0.3167024 0.37768906
v 0.540676 0.3167024 0.3768827
v 0.5412521 0.3167024 0.3774591
v 0.540676 0.3167024 0.37803552
v 0.54089415 0.3167024 0.37827715
v 0.53928834 0.3167024 0.37827715
vt 0.33789062 0.3088379
vt 0.34448242 0.31567383
vt 0.34448242 0.3088379
vt 0.34448242 0.33276367
vt 0.33789062 0.31567383
vt 0.33789062 0.33276367
vt 0.34448242 0.39208984
vt 0.33789062 0.39208984
vt 0.33789062 0.4621582
vt 0.34448242 0.4621582
vt 0.33789062 0.46606445
vt 0.34448242 0.46606445
vt 0.34448242 0.46923828
vt 0.33789062 0.46923828
vt 0.37524414 0.3088379
vt 0.36816406 0.3088379
vt 0.36816406 0.31567383
vt 0.36816406 0.33276367
vt 0.37524414 0.31567383
vt 0.37524414 0.33276367
vt 0.36816406 0.39208984
vt 0.37524414 0.39208984
vt 0.37524414 0.4621582
vt 0.36816406 0.4621582
vt 0.37524414 0.46606445
vt 0.37524414 0.46923828
vt 0.36816406 0.46606445
vt 0.36816406 0.46923828
vt 0.38549805 0.3088379
vt 0.38549805 0.31567383
vt 0.3930664 0.3088379
vt 0.3930664 0.31567383
vt 0.3930664 0.33276367
vt 0.38549805 0.33276367
vt 0.3930664 0.39208984
vt 0.38549805 0.39208984
vt 0.38549805 0.4621582
vt 0.3930664 0.4621582
vt 0.38549805 0.46606445
vt 0.3930664 0.46606445
vt 0.38549805 0.46923828
vt 0.3930664 0.46923828
vt 0.35302734 0.46923828
vt 0.36035156 0.46923828
vt 0.36035156 0.46606445
vt 0.36035156 0.4621582
vt 0.35302734 0.46606445
vt 0.35302734 0.4621582
vt 0.36035156 0.39208984
vt 0.35302734 0.39208984
vt 0.35302734 0.33276367
vt 0.36035156 0.33276367
vt 0.35302734 0.31567383
vt 0.36035156 0.31567383
vt 0.35302734 0.3088379
vt 0.36035156 0.3088379
vt 0.7138672 0.041229248
vt 0.71191406 0.041229248
vt 0.71191406 0.2175293
vt 0.7138672 0.2175293
vt 0.7138672 0.39379883
vt 0.71191406 0.39379883
vt 0.83691406 0.2175293
vt 0.83691406 0.041229248
vt 0.95996094 0.2175293
vt 0.83691406 0.39379883
vt 0.83691406 0.03918457
vt 0.7138672 0.03918457
vt 0.95996094 0.03918457
vt 0.7128906 0.03930664
vt 0.95996094 0.041229248
vt 0.9609375 0.03930664
vt 0.9614258 0.039764404
vt 0.96191406 0.040252686
vt 0.96191406 0.041229248
vt 0.96191406 0.2175293
vt 0.96191406 0.39379883
vt 0.7138672 0.041168213
vt 0.71240234 0.039733887
vt 0.71191406 0.041229248
vt 0.71191406 0.040252686
vt 0.95996094 0.39379883
vt 0.96191406 0.3947754
vt 0.9614258 0.39526367
vt 0.9609375 0.39575195
vt 0.95996094 0.39575195
vt 0.83691406 0.39575195
vt 0.7138672 0.39575195
vt 0.7128906 0.39575195
vt 0.7138672 0.39379883
vt 0.71191406 0.39379883
vt 0.71240234 0.39526367
vt 0.71191406 0.3947754
vt 0.6694336 0.39379883
vt 0.6699219 0.3935547
vt 0.6699219 0.3935547
vt 0.67041016 0.39331055
vt 0.6694336 0.3935547
vt 0.546875 0.3935547
vt 0.546875 0.39379883
vt 0.6694336 0.3930664
vt 0.4243164 0.3935547
vt 0.4243164 0.39379883
vt 0.546875 0.3930664
vt 0.42382812 0.3935547
vt 0.42358398 0.3935547
vt 0.42358398 0.39331055
vt 0.4243164 0.3930664
vt 0.67041016 0.39331055
vt 0.67041016 0.3930664
vt 0.67041016 0.3930664
vt 0.67041016 0.39257812
vt 0.6699219 0.3930664
vt 0.42358398 0.39331055
vt 0.42382812 0.3930664
vt 0.42333984 0.3930664
vt 0.42333984 0.3930664
vt 0.4230957 0.39257812
vt 0.4243164 0.39257812
vt 0.546875 0.39257812
vt 0.6694336 0.39257812
vt 0.6699219 0.39257812
vt 0.42333984 0.39257812
vt 0.4230957 0.21643066
vt 0.42358398 0.39257812
vt 0.67041016 0.39257812
vt 0.6699219 0.21643066
vt 0.67041016 0.21643066
vt 0.67041016 0.21643066
vt 0.42333984 0.21643066
vt 0.4230957 0.040252686
vt 0.4243164 0.21643066
vt 0.42358398 0.21643066
vt 0.4243164 0.040252686
vt 0.67041016 0.040252686
vt 0.67041016 0.040252686
vt 0.6699219 0.040252686
vt 0.67041016 0.039794922
vt 0.67041016 0.039733887
vt 0.67041016 0.03955078
vt 0.546875 0.21643066
vt 0.42358398 0.040252686
vt 0.6694336 0.21643066
vt 0.6694336 0.040252686
vt 0.6699219 0.039794922
vt 0.67041016 0.039611816
vt 0.6699219 0.03942871
vt 0.6699219 0.03933716
vt 0.6694336 0.039215088
vt 0.546875 0.040252686
vt 0.6694336 0.039733887
vt 0.6694336 0.03933716
vt 0.546875 0.039733887
vt 0.546875 0.03933716
vt 0.546875 0.039215088
vt 0.4243164 0.039733887
vt 0.4243164 0.03933716
vt 0.4243164 0.039215088
vt 0.42382812 0.03942871
vt 0.42358398 0.03933716
vt 0.42358398 0.03955078
vt 0.42382812 0.039794922
vt 0.42358398 0.039611816
vt 0.42333984 0.039794922
vt 0.42333984 0.039733887
vt 0.42333984 0.040252686
vn 0.4380253 0.7782984 0.44987285
vn 0.89744204 0.24158533 0.36909923
vn 0.71768063 0.24011613 0.65366566
vn 0.96267253 -0.27066737 0.0008485927
vn 0.58719254 0.7543299 0.2935835
vn 0.6867708 0.72687393 0.00028913488
vn 0.9999987 -0.0016300115 0
vn 0.68270427 0.73069483 0
vn 0.68672156 0.7269203 -0.00058858306
vn 0.96380603 -0.26659945 -0.0016319205
vn 0.5935151 0.7689945 -0.2374601
vn 0.81245506 0.46092233 -0.35702574
vn 0.6490078 0.46676847 -0.6007629
vn 0.4554174 0.78526616 -0.4194664
vn 0.4380253 0.7782984 0.44987285
vn 0.71768063 0.24011613 0.65366566
vn 0.37101406 0.24820226 0.8948431
vn 0.00059699535 -0.27167904 0.9623877
vn 0.29389563 0.754128 0.5872958
vn 0.00020175413 0.7264759 0.6871919
vn -0 -0.0015721562 0.9999988
vn -0 0.7303448 0.68307865
vn -0.0002017515 0.7264759 0.6871918
vn -0.000596996 -0.27167985 0.96238744
vn -0.2938963 0.754126 0.587298
vn -0.43802723 0.7782952 0.4498764
vn -0.37101495 0.24820381 0.8948423
vn -0.7176831 0.24011151 0.65366465
vn 0.4554174 0.78526616 -0.4194664
vn 0.3097879 0.78321 -0.539086
vn 0.6490078 0.46676847 -0.6007629
vn 0.41632977 0.35131156 -0.8385999
vn 0.0003949688 0.7065827 -0.70763034
vn 0.00020175477 0.7264778 -0.6871899
vn -0 0.7076097 -0.7066035
vn -0 0.7303465 -0.68307686
vn -0.00020175261 0.7264774 -0.6871904
vn -0.0003949678 0.7065821 -0.707631
vn -0.23624891 0.7783554 -0.58167803
vn -0.37803996 0.1853867 -0.90703773
vn -0.43815333 0.79370284 -0.4219686
vn -0.7189118 0.25650606 -0.6460421
vn -0.43802723 0.7782952 0.4498764
vn -0.7176831 0.24011151 0.65366465
vn -0.8974432 0.24157932 0.36910057
vn -0.96267295 -0.27066588 0.00084863376
vn -0.58719265 0.75433016 0.2935826
vn -0.68677115 0.7268736 0.00028912886
vn -0.9999987 -0.0016286208 0
vn -0.6827041 0.730695 0
vn -0.68677 0.7268747 -0.00028913456
vn -0.9626415 -0.27077776 -0.00083113794
vn -0.5805396 0.77626556 -0.24573489
vn -0.9094293 0.18499582 -0.37244433
vn -0.43815333 0.79370284 -0.4219686
vn -0.7189118 0.25650606 -0.6460421
vn -0 -1 0
vn -0 -1 0
vn -0 -1 0
vn -0 -1 0
vn -0 -1 0
vn -0 -1 0
vn -0 -1 0
vn -0 -1 0
vn -0 -1 0
vn -0 -1 0
vn 0.9999987 -0.0016300115 0
vn 0.96380603 -0.26659945 -0.0016319205
vn 0.96267253 -0.27066737 0.0008485927
vn 0.81245506 0.46092233 -0.35702574
vn -0 -1 0
vn 0.89744204 0.24158533 0.36909923
vn 0.71768063 0.24011613 0.65366566
vn 0.37101406 0.24820226 0.8948431
vn 0.00059699535 -0.27167904 0.9623877
vn -0 -0.0015721562 0.9999988
vn -0.000596996 -0.27167985 0.96238744
vn 4.4728154E-06 -1 -6.6983544E-06
vn 0.6490078 0.46676847 -0.6007629
vn 0.0003949688 0.7065827 -0.70763034
vn 0.41632977 0.35131156 -0.8385999
vn -0 -1 0
vn -0.37101495 0.24820381 0.8948423
vn -0.7176831 0.24011151 0.65366465
vn -0.8974432 0.24157932 0.36910057
vn -0.96267295 -0.27066588 0.00084863376
vn -0.9999987 -0.0016286208 0
vn -0.9626415 -0.27077776 -0.00083113794
vn -0.9094293 0.18499582 -0.37244433
vn -4.472788E-06 -1 -4.9287314E-06
vn -0.0003949678 0.7065821 -0.707631
vn -0.7189118 0.25650606 -0.6460421
vn -0.37803996 0.1853867 -0.90703773
vn -0.68677 0.7268747 -0.00028913456
vn -0.5805396 0.77626556 -0.24573489
vn -0 1 -5.1994894E-06
vn -0.43815333 0.79370284 -0.4219686
vn -0 1 0
vn -0 1 0
vn -0.6827041 0.730695 0
vn -0 1 0
vn -0 1 0
vn -0.68677115 0.7268736 0.00028912886
vn -0 1 0
vn -0 1 6.5970967E-06
vn -0.58719265 0.75433016 0.2935826
vn -0.43802723 0.7782952 0.4498764
vn -0 1 0
vn -0 1 7.754194E-06
vn -0 1 1.6199872E-06
vn -0.23624891 0.7783554 -0.58167803
vn -0.00020175261 0.7264774 -0.6871904
vn -0 1 0
vn -0 1 3.8888593E-06
vn -0 1 0
vn -0 1 -3.2400544E-06
vn -0.2938963 0.754126 0.587298
vn -0.0002017515 0.7264759 0.6871918
vn -0 1 0
vn -0 1 0
vn -0 1 0
vn -0 1 0
vn -0 1 0
vn -0 0.7303448 0.68307865
vn -0 1 0
vn -0 1 0
vn -0 1 0
vn -0 1 0
vn -0 0.7303465 -0.68307686
vn -0 1 0
vn 0.00020175413 0.7264759 0.6871919
vn -0 1 0
vn -0 1 0
vn -0 1 0
vn -0 1 0
vn 0.00020175477 0.7264778 -0.6871899
vn -0 1 0
vn -0 1 2.2200845E-06
vn 0.3097879 0.78321 -0.539086
vn 0.4554174 0.78526616 -0.4194664
vn -0 1 0
vn -0 1 0
vn -0 1 0
vn -0 1 0
vn -0 1 1.5749658E-06
vn -0 1 1.55134E-05
vn -0 1 -3.3371932E-06
vn 0.5935151 0.7689945 -0.2374601
vn 0.68672156 0.7269203 -0.00058858306
vn -0 1 0
vn -0 1 0
vn -0 1 0
vn -0 1 0
vn -0 1 0
vn 0.68270427 0.73069483 0
vn -0 1 0
vn -0 1 0
vn 0.6867708 0.72687393 0.00028913488
vn -0 1 3.3371932E-06
vn 0.58719254 0.7543299 0.2935835
vn 0.4380253 0.7782984 0.44987285
vn -0 1 -3.4619236E-06
vn -0 1 -1.5513158E-05
vn -0 1 -6.480019E-06
vn 0.29389563 0.754128 0.5872958
vn -0 1 0
g Box_top_0
f 3/3/3 2/2/2 1/1/1
f 2/2/2 4/4/4 1/1/1
f 4/4/4 5/5/5 1/1/1
f 4/4/4 6/6/6 5/5/5
f 7/7/7 6/6/6 4/4/4
f 7/7/7 8/8/8 6/6/6
f 9/9/9 8/8/8 7/7/7
f 7/7/7 10/10/10 9/9/9
f 11/11/11 9/9/9 10/10/10
f 11/11/11 10/10/10 12/12/12
f 11/11/11 12/12/12 13/13/13
f 13/13/13 14/14/14 11/11/11
f 17/17/17 16/16/16 15/15/15
f 18/18/18 17/17/17 15/15/15
f 18/18/18 15/15/15 19/19/19
f 18/18/18 19/19/19 20/20/20
f 21/21/21 18/18/18 20/20/20
f 20/20/20 22/22/22 21/21/21
f 21/21/21 22/22/22 23/23/23
f 23/23/23 24/24/24 21/21/21
f 25/25/25 24/24/24 23/23/23
f 26/26/26 24/24/24 25/25/25
f 27/27/27 24/24/24 26/26/26
f 28/28/28 27/27/27 26/26/26
f 31/31/31 30/30/30 29/29/29
f 30/30/30 31/31/31 32/32/32
f 32/32/32 33/33/33 30/30/30
f 33/33/33 34/34/34 30/30/30
f 35/35/35 34/34/34 33/33/33
f 34/34/34 35/35/35 36/36/36
f 36/36/36 35/35/35 37/37/37
f 35/35/35 38/38/38 37/37/37
f 37/37/37 38/38/38 39/39/39
f 38/38/38 40/40/40 39/39/39
f 40/40/40 41/41/41 39/39/39
f 40/40/40 42/42/42 41/41/41
f 45/45/45 44/44/44 43/43/43
f 46/46/46 45/45/45 43/43/43
f 47/47/47 46/46/46 43/43/43
f 48/48/48 46/46/46 47/47/47
f 46/46/46 48/48/48 49/49/49
f 50/50/50 49/49/49 48/48/48
f 49/49/49 50/50/50 51/51/51
f 51/51/51 52/52/52 49/49/49
f 52/52/52 51/51/51 53/53/53
f 54/54/54 52/52/52 53/53/53
f 55/55/55 54/54/54 53/53/53
f 55/55/55 56/56/56 54/54/54
f 59/59/59 58/58/58 57/57/57
f 57/57/57 60/60/60 59/59/59
f 59/59/59 60/60/60 61/61/61
f 61/61/61 62/62/62 59/59/59
f 63/63/63 60/60/60 57/57/57
f 61/61/61 60/60/60 63/63/63
f 57/57/57 64/64/64 63/63/63
f 63/63/63 64/64/64 65/65/65
f 63/63/63 66/66/66 61/61/61
f 66/66/66 63/63/63 65/65/65
f 57/57/57 67/67/67 64/64/64
f 57/57/57 68/68/68 67/67/67
f 64/64/64 67/67/67 69/69/69
f 57/57/57 70/70/70 68/68/68
f 69/69/69 71/71/71 64/64/64
f 65/65/65 64/64/64 71/71/71
f 71/71/71 69/69/69 72/72/72
f 71/71/71 72/72/72 73/73/73
f 71/71/71 73/73/73 74/74/74
f 71/71/71 74/74/74 75/75/75
f 65/65/65 71/71/71 75/75/75
f 75/75/75 76/76/76 65/65/65
f 65/65/65 76/76/76 77/77/77
f 57/57/57 78/78/78 70/70/70
f 79/79/79 70/70/70 78/78/78
f 80/80/80 78/78/78 57/57/57
f 78/78/78 81/81/81 79/79/79
f 78/78/78 80/80/80 81/81/81
f 77/77/77 82/82/82 65/65/65
f 83/83/83 82/82/82 77/77/77
f 84/84/84 82/82/82 83/83/83
f 85/85/85 82/82/82 84/84/84
f 86/86/86 82/82/82 85/85/85
f 66/66/66 65/65/65 82/82/82
f 66/66/66 82/82/82 86/86/86
f 86/86/86 87/87/87 66/66/66
f 66/66/66 87/87/87 61/61/61
f 88/88/88 61/61/61 87/87/87
f 89/89/89 61/61/61 88/88/88
f 89/89/89 90/90/90 61/61/61
f 91/91/91 61/61/61 90/90/90
f 89/89/89 92/92/92 90/90/90
f 90/90/90 93/93/93 91/91/91
f 93/93/93 90/90/90 92/92/92
f 96/96/96 95/95/95 94/94/94
f 97/97/97 95/95/95 96/96/96
f 94/94/94 98/98/98 96/96/96
f 98/98/98 94/94/94 99/99/99
f 100/100/100 99/99/99 94/94/94
f 96/96/96 98/98/98 101/101/101
f 101/101/101 98/98/98 99/99/99
f 99/99/99 100/100/100 102/102/102
f 103/103/103 102/102/102 100/100/100
f 99/99/99 104/104/104 101/101/101
f 104/104/104 99/99/99 102/102/102
f 105/105/105 102/102/102 103/103/103
f 103/103/103 106/106/106 105/105/105
f 105/105/105 106/106/106 107/107/107
f 102/102/102 108/108/108 104/104/104
f 108/108/108 102/102/102 105/105/105
f 96/96/96 109/109/109 97/97/97
f 97/97/97 109/109/109 110/110/110
f 110/110/110 111/111/111 97/97/97
f 112/112/112 111/111/111 110/110/110
f 96/96/96 113/113/113 109/109/109
f 101/101/101 113/113/113 96/96/96
f 109/109/109 113/113/113 110/110/110
f 107/107/107 114/114/114 105/105/105
f 108/108/108 105/105/105 115/115/115
f 114/114/114 115/115/115 105/105/105
f 116/116/116 114/114/114 107/107/107
f 116/116/116 115/115/115 114/114/114
f 107/107/107 117/117/117 116/116/116
f 116/116/116 117/117/117 118/118/118
f 119/119/119 108/108/108 115/115/115
f 108/108/108 119/119/119 104/104/104
f 104/104/104 120/120/120 101/101/101
f 120/120/120 104/104/104 119/119/119
f 113/113/113 101/101/101 121/121/121
f 121/121/121 101/101/101 120/120/120
f 110/110/110 113/113/113 122/122/122
f 121/121/121 122/122/122 113/113/113
f 118/118/118 123/123/123 116/116/116
f 123/123/123 118/118/118 124/124/124
f 125/125/125 115/115/115 116/116/116
f 115/115/115 125/125/125 119/119/119
f 116/116/116 123/123/123 125/125/125
f 122/122/122 126/126/126 110/110/110
f 110/110/110 126/126/126 112/112/112
f 127/127/127 122/122/122 121/121/121
f 126/126/126 122/122/122 127/127/127
f 112/112/112 126/126/126 128/128/128
f 127/127/127 128/128/128 126/126/126
f 128/128/128 129/129/129 112/112/112
f 124/124/124 130/130/130 123/123/123
f 130/130/130 124/124/124 131/131/131
f 132/132/132 119/119/119 125/125/125
f 120/120/120 119/119/119 132/132/132
f 133/133/133 125/125/125 123/123/123
f 130/130/130 133/133/133 123/123/123
f 133/133/133 132/132/132 125/125/125
f 134/134/134 132/132/132 133/133/133
f 135/135/135 129/129/129 128/128/128
f 129/129/129 135/135/135 136/136/136
f 137/137/137 128/128/128 127/127/127
f 128/128/128 137/137/137 135/135/135
f 136/136/136 135/135/135 138/138/138
f 138/138/138 135/135/135 137/137/137
f 138/138/138 139/139/139 136/136/136
f 140/140/140 139/139/139 138/138/138
f 132/132/132 141/141/141 120/120/120
f 141/141/141 132/132/132 134/134/134
f 142/142/142 133/133/133 130/130/130
f 133/133/133 142/142/142 134/134/134
f 137/137/137 127/127/127 143/143/143
f 141/141/141 143/143/143 120/120/120
f 143/143/143 127/127/127 121/121/121
f 143/143/143 121/121/121 120/120/120
f 143/143/143 144/144/144 137/137/137
f 144/144/144 143/143/143 141/141/141
f 145/145/145 138/138/138 137/137/137
f 145/145/145 137/137/137 144/144/144
f 138/138/138 146/146/146 140/140/140
f 145/145/145 146/146/146 138/138/138
f 140/140/140 146/146/146 147/147/147
f 145/145/145 147/147/147 146/146/146
f 147/147/147 148/148/148 140/140/140
f 149/149/149 148/148/148 147/147/147
f 141/141/141 150/150/150 144/144/144
f 134/134/134 150/150/150 141/141/141
f 144/144/144 151/151/151 145/145/145
f 147/147/147 145/145/145 151/151/151
f 151/151/151 144/144/144 150/150/150
f 147/147/147 152/152/152 149/149/149
f 151/151/151 152/152/152 147/147/147
f 150/150/150 153/153/153 151/151/151
f 152/152/152 151/151/151 153/153/153
f 153/153/153 150/150/150 134/134/134
f 149/149/149 152/152/152 154/154/154
f 152/152/152 153/153/153 154/154/154
f 149/149/149 154/154/154 155/155/155
f 134/134/134 156/156/156 153/153/153
f 154/154/154 153/153/153 156/156/156
f 155/155/155 154/154/154 157/157/157
f 154/154/154 156/156/156 157/157/157
f 155/155/155 157/157/157 158/158/158
f 158/158/158 157/157/157 159/159/159
f 157/157/157 156/156/156 159/159/159
f 159/159/159 160/160/160 158/158/158
f 161/161/161 160/160/160 159/159/159
f 162/162/162 156/156/156 134/134/134
f 159/159/159 156/156/156 162/162/162
f 134/134/134 142/142/142 162/162/162
f 159/159/159 163/163/163 161/161/161
f 162/162/162 163/163/163 159/159/159
f 164/164/164 161/161/161 163/163/163
f 162/162/162 164/164/164 163/163/163
f 164/164/164 162/162/162 142/142/142
f 165/165/165 161/161/161 164/164/164
f 131/131/131 165/165/165 164/164/164
f 142/142/142 166/166/166 164/164/164
f 164/164/164 166/166/166 131/131/131
f 130/130/130 166/166/166 142/142/142
f 131/131/131 166/166/166 130/130/130
