g Card_Base_UI
v -0.297398 -0.4226021 -0.0050000013
v -0.30973503 -0.43030095 -0.0050000013
v -0.3053689 -0.43488383 -0.0050000013
v -0.2997864 -0.4381034 -0.0050000013
v -0.31297308 -0.42540237 -0.0050000013
v -0.29400548 -0.43995205 -0.0050000013
v -0.31514022 -0.4196938 -0.0050000013
v -0.28000003 -0.44000003 -0.0050000013
v -0.28000003 -0.40500003 -0.0050000013
v -0.31500003 -0.40500003 -0.0050000013
v 0.28000003 -0.44000003 -0.0050000013
v -0.31500003 0 -0.0050000013
v 0.28000003 -0.40500003 -0.0050000013
v 0.29739314 -0.42260686 -0.0050000013
v 0.29400548 -0.43995205 -0.0050000013
v 0.2997864 -0.4381034 -0.0050000013
v 0.3053689 -0.43488383 -0.0050000013
v 0.30973503 -0.43030095 -0.0050000013
v 0.31297308 -0.42540237 -0.0050000013
v 0.31500003 -0.4196938 -0.0050000013
v 0.31500003 -0.40500003 -0.0050000013
v 0.28000003 0 -0.0050000013
v 0.31500003 0 -0.0050000013
v 0.31500003 0.40500003 -0.0050000013
v -0.28000003 0 -0.0050000013
v 0.28000003 0.40500003 -0.0050000013
v 0.31500003 0.4196938 -0.0050000013
v 0.31297308 0.42540237 -0.0050000013
v 0.30973503 0.43030095 -0.0050000013
v 0.3053689 0.43488383 -0.0050000013
v 0.2997864 0.4381034 -0.0050000013
v 0.29400548 0.43995205 -0.0050000013
v 0.28000003 0.44000003 -0.0050000013
v -0.28000003 0.44000003 -0.0050000013
v -0.28000003 0.40500003 -0.0050000013
v -0.31500003 0.40500003 -0.0050000013
v -0.29400548 0.43995205 -0.0050000013
v -0.31500003 0.4196938 -0.0050000013
v -0.2997864 0.4381034 -0.0050000013
v -0.31297308 0.42540237 -0.0050000013
v -0.3053689 0.43488383 -0.0050000013
v -0.30973503 0.43030095 -0.0050000013
vt 0.9716797 0.01977539
vt 0.99121094 0.011024475
vt 0.984375 0.0058135986
vt 0.97558594 0.002155304
vt 0.99658203 0.016586304
vt 0.9663086 5.4478645E-05
vt 1 0.023071289
vt 0.94433594 0
vt 0.94433594 0.039764404
vt 1 0.039764404
vt 0.055541992 0
vt 1 0.5
vt 0.055541992 0.039764404
vt 0.027938843 0.019760132
vt 0.033325195 5.4478645E-05
vt 0.024139404 0.002155304
vt 0.015281677 0.0058135986
vt 0.008354187 0.011024475
vt 0.0032176971 0.016586304
vt 0 0.023071289
vt 0 0.039764404
vt 0.055541992 0.5
vt 0 0.5
vt 0 0.9604492
vt 0.94433594 0.5
vt 0.055541992 0.9604492
vt 0 0.9770508
vt 0.0032176971 0.98339844
vt 0.008354187 0.98876953
vt 0.015281677 0.9941406
vt 0.024139404 0.9980469
vt 0.033325195 1
vt 0.055541992 1
vt 0.94433594 1
vt 0.94433594 0.9604492
vt 1 0.9604492
vt 0.9663086 1
vt 1 0.9770508
vt 0.97558594 0.9980469
vt 0.99658203 0.98339844
vt 0.984375 0.9941406
vt 0.99121094 0.98876953
vn -0 0 -1
vn -0 0 -1
vn -0 0 -1
vn -0 0 -1
vn -0 0 -1
vn -0 0 -1
vn -0 0 -1
vn -0 0 -1
vn -0 0 -1
vn -0 0 -1
vn -0 0 -1
vn -0 0 -1
vn -0 0 -1
vn -0 0 -1
vn -0 0 -1
vn -0 0 -1
vn -0 0 -1
vn -0 0 -1
vn -0 0 -1
vn -0 0 -1
vn -0 0 -1
vn -0 0 -1
vn -0 0 -1
vn -0 0 -1
vn -0 0 -1
vn -0 0 -1
vn -0 0 -1
vn -0 0 -1
vn -0 0 -1
vn -0 0 -1
vn -0 0 -1
vn -0 0 -1
vn -0 0 -1
vn -0 0 -1
vn -0 0 -1
vn -0 0 -1
vn -0 0 -1
vn -0 0 -1
vn -0 0 -1
vn -0 0 -1
vn -0 0 -1
vn -0 0 -1
g Card_Base_UI_0
f 3/3/3 2/2/2 1/1/1
f 3/3/3 1/1/1 4/4/4
f 2/2/2 5/5/5 1/1/1
f 4/4/4 1/1/1 6/6/6
f 5/5/5 7/7/7 1/1/1
f 6/6/6 1/1/1 8/8/8
f 1/1/1 9/9/9 8/8/8
f 10/10/10 1/1/1 7/7/7
f 9/9/9 1/1/1 10/10/10
f 8/8/8 9/9/9 11/11/11
f 9/9/9 10/10/10 12/12/12
f 9/9/9 13/13/13 11/11/11
f 14/14/14 11/11/11 13/13/13
f 15/15/15 11/11/11 14/14/14
f 16/16/16 15/15/15 14/14/14
f 17/17/17 16/16/16 14/14/14
f 18/18/18 17/17/17 14/14/14
f 19/19/19 18/18/18 14/14/14
f 19/19/19 14/14/14 20/20/20
f 20/20/20 14/14/14 21/21/21
f 21/21/21 14/14/14 13/13/13
f 21/21/21 13/13/13 22/22/22
f 22/22/22 13/13/13 9/9/9
f 23/23/23 21/21/21 22/22/22
f 24/24/24 23/23/23 22/22/22
f 25/25/25 9/9/9 12/12/12
f 22/22/22 9/9/9 25/25/25
f 26/26/26 24/24/24 22/22/22
f 26/26/26 22/22/22 25/25/25
f 24/24/24 26/26/26 27/27/27
f 26/26/26 28/28/28 27/27/27
f 29/29/29 28/28/28 26/26/26
f 29/29/29 26/26/26 30/30/30
f 30/30/30 26/26/26 31/31/31
f 26/26/26 32/32/32 31/31/31
f 32/32/32 26/26/26 33/33/33
f 33/33/33 26/26/26 34/34/34
f 35/35/35 25/25/25 12/12/12
f 35/35/35 26/26/26 25/25/25
f 26/26/26 35/35/35 34/34/34
f 36/36/36 35/35/35 12/12/12
f 37/37/37 34/34/34 35/35/35
f 36/36/36 38/38/38 35/35/35
f 37/37/37 35/35/35 39/39/39
f 40/40/40 35/35/35 38/38/38
f 41/41/41 39/39/39 35/35/35
f 40/40/40 42/42/42 35/35/35
f 41/41/41 35/35/35 42/42/42
