g Card_F_UR_Glitter
v -0.266 0.35444435 -0.0050000004
v -0.266 0.023749383 -0.0050000004
v -0 0.023749383 -0.0050000004
v -0 0.35444435 -0.0050000004
v 0.266 0.023749383 -0.0050000004
v 0.266 0.35444435 -0.0050000004
v 0.31500003 -0.3 -0.0050000004
v 0.28000003 -0.3 -0.0050000004
v 0.31500003 -0.40500003 -0.0050000004
v 0.31500003 -0.2 -0.0050000004
v 0.28000003 -0.40500003 -0.0050000004
v 0.31500003 -0.4196938 -0.0050000004
v 0.31297308 -0.42540237 -0.0050000004
v 0.30973503 -0.43030095 -0.0050000004
v 0.3053689 -0.43488383 -0.0050000004
v 0.2997864 -0.4381034 -0.0050000004
v 0.29400548 -0.43995205 -0.0050000004
v 0.28000003 -0.44000003 -0.0050000004
v 0.266 -0.44000003 -0.0050000004
v 0.266 -0.40500003 -0.0050000004
v 0.2 -0.44000003 -0.0050000004
v 0.28000003 -0.2 -0.0050000004
v 0.31500003 -0.1 -0.0050000004
v 0.2 -0.40500003 -0.0050000004
v 0.1 -0.44000003 -0.0050000004
v 0.266 -0.2 -0.0050000004
v 0.28000003 -0.1 -0.0050000004
v 0.31500003 1.9949322E-19 -0.0050000004
v 0.1 -0.40500003 -0.0050000004
v -0 -0.44000003 -0.0050000004
v 0.2 -0.2 -0.0050000004
v 0.28000003 0 -0.0050000004
v 0.31500003 0.023749383 -0.0050000004
v 0.266 0 -0.0050000004
v 0.28000003 0.023749383 -0.0050000004
v 0.31500003 0.1 -0.0050000004
v -0 -0.40500003 -0.0050000004
v -0.1 -0.44000003 -0.0050000004
v -0 -0.2 -0.0050000004
v -0.1 -0.40500003 -0.0050000004
v -0.2 -0.44000003 -0.0050000004
v 0.2 0 -0.0050000004
v 0.28000003 0.1 -0.0050000004
v 0.31500003 0.2 -0.0050000004
v 0.266 0.023749383 -0.0050000004
v 0.28000003 0.2 -0.0050000004
v 0.266 0.35444435 -0.0050000004
v 0.31500003 0.3 -0.0050000004
v -0 0.023749383 -0.0050000004
v 0.28000003 0.3 -0.0050000004
v 0.31500003 0.35444435 -0.0050000004
v 0.28000003 0.35444435 -0.0050000004
v 0.31500003 0.40500003 -0.0050000004
v 0.28000003 0.40500003 -0.0050000004
v 0.31500003 0.4196938 -0.0050000004
v 0.31297308 0.42540237 -0.0050000004
v 0.30973503 0.43030095 -0.0050000004
v 0.3053689 0.43488383 -0.0050000004
v 0.2997864 0.4381034 -0.0050000004
v 0.29400548 0.43995205 -0.0050000004
v 0.28000003 0.44000003 -0.0050000004
v 0.266 0.40500003 -0.0050000004
v 0.266 0.44000003 -0.0050000004
v 0.2 0.40500003 -0.0050000004
v 0.2 0.44000003 -0.0050000004
v 0.1 0.40500003 -0.0050000004
v 0.1 0.44000003 -0.0050000004
v -0 0.35444435 -0.0050000004
v -0 0.40500003 -0.0050000004
v -0 0.44000003 -0.0050000004
v -0.1 0.40500003 -0.0050000004
v -0.1 0.44000003 -0.0050000004
v -0.266 0.35444435 -0.0050000004
v -0.2 0.40500003 -0.0050000004
v -0.2 0.44000003 -0.0050000004
v -0.266 0.40500003 -0.0050000004
v -0.266 0.44000003 -0.0050000004
v -0.28000003 0.40500003 -0.0050000004
v -0.28000003 0.44000003 -0.0050000004
v -0.29400548 0.43995205 -0.0050000004
v -0.2997864 0.4381034 -0.0050000004
v -0.3053689 0.43488383 -0.0050000004
v -0.30973503 0.43030095 -0.0050000004
v -0.31297308 0.42540237 -0.0050000004
v -0.31500003 0.4196938 -0.0050000004
v -0.31500003 0.40500003 -0.0050000004
v -0.31500003 0.35444435 -0.0050000004
v -0.28000003 0.35444435 -0.0050000004
v -0.31500003 0.3 -0.0050000004
v -0.28000003 0.3 -0.0050000004
v -0.31500003 0.2 -0.0050000004
v -0.28000003 0.2 -0.0050000004
v -0.31500003 0.1 -0.0050000004
v -0.266 0.023749383 -0.0050000004
v -0.28000003 0.1 -0.0050000004
v -0.31500003 0.023749383 -0.0050000004
v -0.28000003 0.023749383 -0.0050000004
v -0.31500003 0 -0.0050000004
v -0.28000003 0 -0.0050000004
v -0.31500003 -0.1 -0.0050000004
v -0.28000003 -0.1 -0.0050000004
v -0.31500003 -0.2 -0.0050000004
v -0.266 0 -0.0050000004
v -0.28000003 -0.2 -0.0050000004
v -0.31500003 -0.3 -0.0050000004
v -0.2 0 -0.0050000004
v -0.266 -0.2 -0.0050000004
v -0.28000003 -0.3 -0.0050000004
v -0.31500003 -0.40500003 -0.0050000004
v -0.28000003 -0.40500003 -0.0050000004
v -0.31507012 -0.4196938 -0.0050000004
v -0.31297308 -0.42540237 -0.0050000004
v -0.30973503 -0.43030095 -0.0050000004
v -0.3053689 -0.43488383 -0.0050000004
v -0.2997864 -0.4381034 -0.0050000004
v -0.29400548 -0.43995205 -0.0050000004
v -0.28000003 -0.44000003 -0.0050000004
v -0.266 -0.40500003 -0.0050000004
v -0.266 -0.44000003 -0.0050000004
v -0.2 -0.2 -0.0050000004
v -0.2 -0.40500003 -0.0050000004
v -0 0 -0.0050000004
v 0.266 -0.44000003 0.0050000004
v 0.266 -0.40500003 0.0050000004
v 0.28000003 -0.44000003 0.0050000004
v 0.2 -0.44000003 0.0050000004
v 0.28000003 -0.40500003 0.0050000004
v 0.29400548 -0.43995205 0.0050000004
v 0.2997864 -0.4381034 0.0050000004
v 0.3053689 -0.43488383 0.0050000004
v 0.30973503 -0.43030095 0.0050000004
v 0.31297308 -0.42540237 0.0050000004
v 0.31500003 -0.4196938 0.0050000004
v 0.31500003 -0.40500003 0.0050000004
v 0.31500003 -0.3 0.0050000004
v 0.28000003 -0.3 0.0050000004
v 0.31500003 -0.2 0.0050000004
v 0.2 -0.40500003 0.0050000004
v 0.1 -0.44000003 0.0050000004
v 0.28000003 -0.2 0.0050000004
v 0.31500003 -0.1 0.0050000004
v 0.266 -0.2 0.0050000004
v 0.28000003 -0.1 0.0050000004
v 0.31500003 1.9949322E-19 0.0050000004
v 0.1 -0.40500003 0.0050000004
v -0 -0.44000003 0.0050000004
v 0.2 -0.2 0.0050000004
v 0.28000003 0 0.0050000004
v 0.31500003 0.023699999 0.0050000004
v 0.266 0 0.0050000004
v 0.28000003 0.023699999 0.0050000004
v 0.31500003 0.1 0.0050000004
v -0 -0.40500003 0.0050000004
v -0.1 -0.44000003 0.0050000004
v -0 -0.2 0.0050000004
v -0.1 -0.40500003 0.0050000004
v -0.2 -0.44000003 0.0050000004
v 0.2 0 0.0050000004
v 0.28000003 0.1 0.0050000004
v 0.31500003 0.2 0.0050000004
v 0.266 0.023699999 0.0050000004
v -0.2 -0.40500003 0.0050000004
v -0.266 -0.44000003 0.0050000004
v -0.2 -0.2 0.0050000004
v -0.266 -0.40500003 0.0050000004
v -0.28000003 -0.44000003 0.0050000004
v -0.28000003 -0.40500003 0.0050000004
v -0.29400548 -0.43995205 0.0050000004
v -0.2997864 -0.4381034 0.0050000004
v -0.3053689 -0.43488383 0.0050000004
v -0.30973503 -0.43030095 0.0050000004
v -0.31297308 -0.42540237 0.0050000004
v -0.31507012 -0.4196938 0.0050000004
v -0.31500003 -0.40500003 0.0050000004
v -0.28000003 -0.3 0.0050000004
v -0.31500003 -0.3 0.0050000004
v -0.266 -0.2 0.0050000004
v -0.28000003 -0.2 0.0050000004
v -0.31500003 -0.2 0.0050000004
v -0.28000003 -0.1 0.0050000004
v -0.31500003 -0.1 0.0050000004
v -0.28000003 0 0.0050000004
v -0.31500003 0 0.0050000004
v -0.266 0 0.0050000004
v -0.2 0 0.0050000004
v -0.28000003 0.023699999 0.0050000004
v -0.31500003 0.023699999 0.0050000004
v -0.266 0.023699999 0.0050000004
v -0.28000003 0.1 0.0050000004
v -0.31500003 0.1 0.0050000004
v -0.28000003 0.2 0.0050000004
v -0.31500003 0.2 0.0050000004
v -0.266 0.2 0.0050000004
v -0.28000003 0.3 0.0050000004
v -0.31500003 0.3 0.0050000004
v -0.2 0.023699999 0.0050000004
v -0.28000003 0.3544 0.0050000004
v -0.31500003 0.3544 0.0050000004
v -0.2 0.2 0.0050000004
v -0.266 0.35439998 0.0050000004
v -0.28000003 0.40500003 0.0050000004
v -0.31500003 0.40500003 0.0050000004
v -0.31500003 0.4196938 0.0050000004
v -0.31297308 0.42540237 0.0050000004
v -0.30973503 0.43030095 0.0050000004
v -0.3053689 0.43488383 0.0050000004
v -0.2997864 0.4381034 0.0050000004
v -0.29400548 0.43995205 0.0050000004
v -0.28000003 0.44000003 0.0050000004
v -0.266 0.44000003 0.0050000004
v -0.266 0.40500003 0.0050000004
v -0.2 0.44000003 0.0050000004
v -0.2 0.40500003 0.0050000004
v -0.1 0.44000003 0.0050000004
v -0.2 0.35439998 0.0050000004
v -0.1 0.40500003 0.0050000004
v -0 0.44000003 0.0050000004
v -0 0.35439998 0.0050000004
v -0 0.40500003 0.0050000004
v 0.1 0.44000003 0.0050000004
v 0.1 0.40500003 0.0050000004
v 0.2 0.44000003 0.0050000004
v -0 0.2 0.0050000004
v 0.2 0.40500003 0.0050000004
v 0.266 0.44000003 0.0050000004
v 0.2 0.3544 0.0050000004
v 0.266 0.40500003 0.0050000004
v 0.28000003 0.44000003 0.0050000004
v 0.28000003 0.40500003 0.0050000004
v 0.29400548 0.43995205 0.0050000004
v 0.2997864 0.4381034 0.0050000004
v 0.3053689 0.43488383 0.0050000004
v 0.30973503 0.43030095 0.0050000004
v 0.31297308 0.42540237 0.0050000004
v 0.31500003 0.4196938 0.0050000004
v 0.31500003 0.40500003 0.0050000004
v 0.266 0.3544 0.0050000004
v 0.28000003 0.3544 0.0050000004
v 0.31500003 0.3544 0.0050000004
v 0.28000003 0.3 0.0050000004
v 0.31500003 0.3 0.0050000004
v 0.2 0.2 0.0050000004
v 0.28000003 0.2 0.0050000004
v 0.266 0.2 0.0050000004
v 0.2 0.023699999 0.0050000004
v -0 0.023699999 0.0050000004
v -0 0 0.0050000004
v -0.1 0.44000003 -0.0050000004
v -0 0.44000003 -0.0050000004
v -0 0.44000003 0.0050000004
v -0.1 0.44000003 0.0050000004
v -0.2 0.44000003 -0.0050000004
v -0.2 0.44000003 0.0050000004
v -0.266 0.44000003 0.0050000004
v -0.266 0.44000003 -0.0050000004
v -0.28000003 0.44000003 0.0050000004
v -0.28000003 0.44000003 -0.0050000004
v -0.29400548 0.43995205 -0.0050000004
v -0.29400548 0.43995205 0.0050000004
v -0.2997864 0.4381034 -0.0050000004
v -0.2997864 0.4381034 0.0050000004
v -0.3053689 0.43488383 -0.0050000004
v -0.3053689 0.43488383 0.0050000004
v -0.30973503 0.43030095 -0.0050000004
v -0.30973503 0.43030095 0.0050000004
v -0.31297308 0.42540237 -0.0050000004
v -0.31297308 0.42540237 0.0050000004
v -0.31500003 0.4196938 -0.0050000004
v -0.31500003 0.4196938 0.0050000004
v -0.31500003 0.40500003 -0.0050000004
v -0.31500003 0.40500003 0.0050000004
v -0.31500003 0.35444435 -0.0050000004
v -0.31500003 0.3544 0.0050000004
v -0.31500003 0.3 -0.0050000004
v -0.31500003 0.3 0.0050000004
v -0.31500003 0.2 -0.0050000004
v -0.31500003 0.2 0.0050000004
v -0.31500003 0.1 -0.0050000004
v -0.31500003 0.1 0.0050000004
v -0.31500003 0.023749383 -0.0050000004
v -0.31500003 0.023699999 0.0050000004
v -0.31500003 0 -0.0050000004
v -0.31500003 0 0.0050000004
v -0.31500003 -0.1 -0.0050000004
v -0.31500003 -0.1 0.0050000004
v -0.31500003 -0.2 -0.0050000004
v -0.31500003 -0.2 0.0050000004
v -0.31500003 -0.3 -0.0050000004
v -0.31500003 -0.3 0.0050000004
v -0.31500003 -0.40500003 -0.0050000004
v -0.31500003 -0.40500003 0.0050000004
v -0.31507012 -0.4196938 0.0050000004
v -0.31507012 -0.4196938 -0.0050000004
v -0.31297308 -0.42540237 0.0050000004
v -0.31297308 -0.42540237 -0.0050000004
v -0.30973503 -0.43030095 0.0050000004
v -0.30973503 -0.43030095 -0.0050000004
v -0.3053689 -0.43488383 0.0050000004
v -0.3053689 -0.43488383 -0.0050000004
v -0.2997864 -0.4381034 0.0050000004
v -0.2997864 -0.4381034 -0.0050000004
v -0.29400548 -0.43995205 0.0050000004
v -0.29400548 -0.43995205 -0.0050000004
v -0.1 -0.44000003 0.0050000004
v -0 -0.44000003 0.0050000004
v -0 -0.44000003 -0.0050000004
v -0.1 -0.44000003 -0.0050000004
v -0.2 -0.44000003 0.0050000004
v -0.2 -0.44000003 -0.0050000004
v -0.266 -0.44000003 -0.0050000004
v -0.266 -0.44000003 0.0050000004
v -0.28000003 -0.44000003 -0.0050000004
v -0.28000003 -0.44000003 0.0050000004
v -0.29400548 -0.43995205 -0.0050000004
v -0.29400548 -0.43995205 0.0050000004
v 0.29400548 -0.43995205 0.0050000004
v 0.29400548 -0.43995205 -0.0050000004
v 0.28000003 -0.44000003 0.0050000004
v 0.28000003 -0.44000003 -0.0050000004
v 0.266 -0.44000003 0.0050000004
v 0.266 -0.44000003 -0.0050000004
v 0.2 -0.44000003 0.0050000004
v 0.2 -0.44000003 -0.0050000004
v 0.1 -0.44000003 0.0050000004
v 0.1 -0.44000003 -0.0050000004
v -0 -0.44000003 0.0050000004
v -0 -0.44000003 -0.0050000004
v 0.2997864 -0.4381034 -0.0050000004
v 0.29400548 -0.43995205 -0.0050000004
v 0.29400548 -0.43995205 0.0050000004
v 0.2997864 -0.4381034 0.0050000004
v 0.3053689 -0.43488383 -0.0050000004
v 0.3053689 -0.43488383 0.0050000004
v 0.30973503 -0.43030095 -0.0050000004
v 0.30973503 -0.43030095 0.0050000004
v 0.31297308 -0.42540237 -0.0050000004
v 0.31297308 -0.42540237 0.0050000004
v 0.31500003 -0.4196938 -0.0050000004
v 0.31500003 -0.4196938 0.0050000004
v 0.31500003 -0.40500003 -0.0050000004
v 0.31500003 -0.40500003 0.0050000004
v 0.31500003 -0.3 -0.0050000004
v 0.31500003 -0.3 0.0050000004
v 0.31500003 -0.2 -0.0050000004
v 0.31500003 -0.2 0.0050000004
v 0.31500003 -0.1 -0.0050000004
v 0.31500003 -0.1 0.0050000004
v 0.31500003 1.9949322E-19 -0.0050000004
v 0.31500003 1.9949322E-19 0.0050000004
v 0.31500003 0.023699999 0.0050000004
v 0.31500003 0.023749383 -0.0050000004
v 0.31500003 0.1 0.0050000004
v 0.31500003 0.1 -0.0050000004
v 0.31500003 0.2 -0.0050000004
v 0.31500003 0.2 0.0050000004
v 0.31500003 0.3 -0.0050000004
v 0.31500003 0.3 0.0050000004
v 0.31500003 0.3544 0.0050000004
v 0.31500003 0.35444435 -0.0050000004
v 0.31500003 0.40500003 0.0050000004
v 0.31500003 0.40500003 -0.0050000004
v 0.31500003 0.4196938 0.0050000004
v 0.31500003 0.4196938 -0.0050000004
v 0.31297308 0.42540237 0.0050000004
v 0.31297308 0.42540237 -0.0050000004
v 0.30973503 0.43030095 0.0050000004
v 0.30973503 0.43030095 -0.0050000004
v 0.3053689 0.43488383 0.0050000004
v 0.3053689 0.43488383 -0.0050000004
v 0.2997864 0.4381034 0.0050000004
v 0.2997864 0.4381034 -0.0050000004
v 0.29400548 0.43995205 0.0050000004
v 0.29400548 0.43995205 -0.0050000004
v 0.28000003 0.44000003 0.0050000004
v 0.28000003 0.44000003 -0.0050000004
v 0.266 0.44000003 -0.0050000004
v 0.266 0.44000003 0.0050000004
v 0.2 0.44000003 -0.0050000004
v 0.2 0.44000003 0.0050000004
v 0.1 0.44000003 -0.0050000004
v 0.1 0.44000003 0.0050000004
v -0 0.44000003 -0.0050000004
v -0 0.44000003 0.0050000004
vt 0.9223633 0.90283203
vt 0.9223633 0.52685547
vt 0.5 0.52685547
vt 0.5 0.90283203
vt 0.07775879 0.52685547
vt 0.07775879 0.90283203
vt 0 0.15905762
vt 0.055541992 0.15905762
vt 0 0.039764404
vt 0 0.27270508
vt 0.055541992 0.039764404
vt 0 0.023071289
vt 0.0032176971 0.016586304
vt 0.008354187 0.011024475
vt 0.015289307 0.0058135986
vt 0.024139404 0.002155304
vt 0.033325195 5.4478645E-05
vt 0.055541992 0
vt 0.07775879 0
vt 0.07775879 0.039764404
vt 0.18249512 0
vt 0.055541992 0.27270508
vt 0 0.3864746
vt 0.18249512 0.039764404
vt 0.3413086 0
vt 0.07775879 0.27270508
vt 0.055541992 0.3864746
vt 0 0.5
vt 0.3413086 0.039764404
vt 0.5 0
vt 0.18249512 0.27270508
vt 0.055541992 0.5
vt 0 0.52685547
vt 0.07775879 0.5
vt 0.055541992 0.52685547
vt 0 0.61376953
vt 0.5 0.039764404
vt 0.6586914 0
vt 0.5 0.27270508
vt 0.6586914 0.039764404
vt 0.8173828 0
vt 0.18249512 0.5
vt 0.055541992 0.61376953
vt 0 0.7270508
vt 0.07775879 0.52685547
vt 0.055541992 0.7270508
vt 0.07775879 0.90283203
vt 0 0.8408203
vt 0.5 0.52685547
vt 0.055541992 0.8408203
vt 0 0.90283203
vt 0.055541992 0.90283203
vt 0 0.9604492
vt 0.055541992 0.9604492
vt 0 0.9770508
vt 0.0032176971 0.98339844
vt 0.008354187 0.98876953
vt 0.015289307 0.9941406
vt 0.024139404 0.9980469
vt 0.033325195 1
vt 0.055541992 1
vt 0.07775879 0.9604492
vt 0.07775879 1
vt 0.18249512 0.9604492
vt 0.18249512 1
vt 0.3413086 0.9604492
vt 0.3413086 1
vt 0.5 0.90283203
vt 0.5 0.9604492
vt 0.5 1
vt 0.6586914 0.9604492
vt 0.6586914 1
vt 0.9223633 0.90283203
vt 0.8173828 0.9604492
vt 0.8173828 1
vt 0.9223633 0.9604492
vt 0.9223633 1
vt 0.94433594 0.9604492
vt 0.94433594 1
vt 0.9667969 1
vt 0.97558594 0.9980469
vt 0.984375 0.9941406
vt 0.9916992 0.98876953
vt 0.99658203 0.98339844
vt 1 0.9770508
vt 1 0.9604492
vt 1 0.90283203
vt 0.94433594 0.90283203
vt 1 0.8408203
vt 0.94433594 0.8408203
vt 1 0.7270508
vt 0.94433594 0.7270508
vt 1 0.61376953
vt 0.9223633 0.52685547
vt 0.94433594 0.61376953
vt 1 0.52685547
vt 0.94433594 0.52685547
vt 1 0.5
vt 0.94433594 0.5
vt 1 0.3864746
vt 0.94433594 0.3864746
vt 1 0.27270508
vt 0.9223633 0.5
vt 0.94433594 0.27270508
vt 1 0.15905762
vt 0.8173828 0.5
vt 0.9223633 0.27270508
vt 0.94433594 0.15905762
vt 1 0.039764404
vt 0.94433594 0.039764404
vt 1 0.023071289
vt 0.99658203 0.016586304
vt 0.9916992 0.011024475
vt 0.984375 0.0058135986
vt 0.97558594 0.002155304
vt 0.9667969 5.4478645E-05
vt 0.94433594 0
vt 0.9223633 0.039764404
vt 0.9223633 0
vt 0.8173828 0.27270508
vt 0.8173828 0.039764404
vt 0.5 0.5
vt 0.8022461 0
vt 0.8022461 0.039764404
vt 0.8183594 0
vt 0.72753906 0
vt 0.8183594 0.039764404
vt 0.8339844 5.4478645E-05
vt 0.8408203 0.002155304
vt 0.84716797 0.0058135986
vt 0.8520508 0.011024475
vt 0.85546875 0.016586304
vt 0.85791016 0.023071289
vt 0.85791016 0.039764404
vt 0.85791016 0.15905762
vt 0.8183594 0.15905762
vt 0.85791016 0.27270508
vt 0.72753906 0.039764404
vt 0.61376953 0
vt 0.8183594 0.27270508
vt 0.85791016 0.3864746
vt 0.8022461 0.27270508
vt 0.8183594 0.3864746
vt 0.85791016 0.5
vt 0.61376953 0.039764404
vt 0.5 0
vt 0.72753906 0.27270508
vt 0.8183594 0.5
vt 0.85791016 0.52685547
vt 0.8022461 0.5
vt 0.8183594 0.52685547
vt 0.85791016 0.61376953
vt 0.5 0.039764404
vt 0.3864746 0
vt 0.5 0.27270508
vt 0.3864746 0.039764404
vt 0.27270508 0
vt 0.72753906 0.5
vt 0.8183594 0.61376953
vt 0.85791016 0.7270508
vt 0.8022461 0.52685547
vt 0.27270508 0.039764404
vt 0.1977539 0
vt 0.27270508 0.27270508
vt 0.1977539 0.039764404
vt 0.18188477 0
vt 0.18188477 0.039764404
vt 0.16589355 5.4478645E-05
vt 0.15942383 0.002155304
vt 0.15307617 0.0058135986
vt 0.14807129 0.011024475
vt 0.14440918 0.016586304
vt 0.14196777 0.023071289
vt 0.14208984 0.039764404
vt 0.18188477 0.15905762
vt 0.14208984 0.15905762
vt 0.1977539 0.27270508
vt 0.18188477 0.27270508
vt 0.14208984 0.27270508
vt 0.18188477 0.3864746
vt 0.14208984 0.3864746
vt 0.18188477 0.5
vt 0.14208984 0.5
vt 0.1977539 0.5
vt 0.27270508 0.5
vt 0.18188477 0.52685547
vt 0.14208984 0.52685547
vt 0.1977539 0.52685547
vt 0.18188477 0.61376953
vt 0.14208984 0.61376953
vt 0.18188477 0.7270508
vt 0.14208984 0.7270508
vt 0.1977539 0.7270508
vt 0.18188477 0.8408203
vt 0.14208984 0.8408203
vt 0.27270508 0.52685547
vt 0.18188477 0.90283203
vt 0.14208984 0.90283203
vt 0.27270508 0.7270508
vt 0.1977539 0.90283203
vt 0.18188477 0.9604492
vt 0.14208984 0.9604492
vt 0.14208984 0.9770508
vt 0.14440918 0.98339844
vt 0.14807129 0.98876953
vt 0.15307617 0.9941406
vt 0.15942383 0.9980469
vt 0.16589355 1
vt 0.18188477 1
vt 0.1977539 1
vt 0.1977539 0.9604492
vt 0.27270508 1
vt 0.27270508 0.9604492
vt 0.3864746 1
vt 0.27270508 0.90283203
vt 0.3864746 0.9604492
vt 0.5 1
vt 0.5 0.90283203
vt 0.5 0.9604492
vt 0.61376953 1
vt 0.61376953 0.9604492
vt 0.72753906 1
vt 0.5 0.7270508
vt 0.72753906 0.9604492
vt 0.8022461 1
vt 0.72753906 0.90283203
vt 0.8022461 0.9604492
vt 0.8183594 1
vt 0.8183594 0.9604492
vt 0.8339844 1
vt 0.8408203 0.9980469
vt 0.84716797 0.9941406
vt 0.8520508 0.98876953
vt 0.85546875 0.98339844
vt 0.85791016 0.9770508
vt 0.85791016 0.9604492
vt 0.8022461 0.90283203
vt 0.8183594 0.90283203
vt 0.85791016 0.90283203
vt 0.8183594 0.8408203
vt 0.85791016 0.8408203
vt 0.72753906 0.7270508
vt 0.8183594 0.7270508
vt 0.8022461 0.7270508
vt 0.72753906 0.52685547
vt 0.5 0.52685547
vt 0.5 0.5
vt 0.5371094 0.90283203
vt 0.5371094 0.9838867
vt 0.9765625 0.9838867
vt 0.9765625 0.90283203
vt 0.5371094 0.82177734
vt 0.9765625 0.82177734
vt 0.9765625 0.7680664
vt 0.5371094 0.7680664
vt 0.9765625 0.75683594
vt 0.5371094 0.75683594
vt 0.5371094 0.7451172
vt 0.9765625 0.74560547
vt 0.5371094 0.7402344
vt 0.9765625 0.7402344
vt 0.5371094 0.73535156
vt 0.9765625 0.73535156
vt 0.5371094 0.72998047
vt 0.9765625 0.72998047
vt 0.5371094 0.72509766
vt 0.9765625 0.72509766
vt 0.5371094 0.72021484
vt 0.9765625 0.72021484
vt 0.5371094 0.7084961
vt 0.9765625 0.7084961
vt 0.5371094 0.66748047
vt 0.9765625 0.66748047
vt 0.5371094 0.62353516
vt 0.9765625 0.62353516
vt 0.5371094 0.54248047
vt 0.9765625 0.54248047
vt 0.5371094 0.46118164
vt 0.9765625 0.46142578
vt 0.5371094 0.39941406
vt 0.9765625 0.39941406
vt 0.5371094 0.38012695
vt 0.9765625 0.3803711
vt 0.5371094 0.2993164
vt 0.9765625 0.2993164
vt 0.5371094 0.21813965
vt 0.9765625 0.21813965
vt 0.5371094 0.13708496
vt 0.9765625 0.13708496
vt 0.5371094 0.052001953
vt 0.9765625 0.052001953
vt 0.9765625 0.040100098
vt 0.5371094 0.04006958
vt 0.9765625 0.035186768
vt 0.5371094 0.035186768
vt 0.9765625 0.030426025
vt 0.5371094 0.030410767
vt 0.9765625 0.025299072
vt 0.5371094 0.025283813
vt 0.9765625 0.020065308
vt 0.5371094 0.020065308
vt 0.9765625 0.015151978
vt 0.5371094 0.015136719
vt 0.46606445 0.8261719
vt 0.46606445 0.7451172
vt 0.026489258 0.7451172
vt 0.026489258 0.8261719
vt 0.46606445 0.90722656
vt 0.026489258 0.90722656
vt 0.026489258 0.9604492
vt 0.46606445 0.9604492
vt 0.026489258 0.9716797
vt 0.46606445 0.9716797
vt 0.026489258 0.98339844
vt 0.46606445 0.98339844
vt 0.46606445 0.98339844
vt 0.026489258 0.98339844
vt 0.46606445 0.9716797
vt 0.026489258 0.9716797
vt 0.46606445 0.9604492
vt 0.026489258 0.9604492
vt 0.46606445 0.90722656
vt 0.026489258 0.90722656
vt 0.46606445 0.8261719
vt 0.026489258 0.8261719
vt 0.46606445 0.7451172
vt 0.026489258 0.7451172
vt 0.5371094 0.020065308
vt 0.5371094 0.015136719
vt 0.9765625 0.015151978
vt 0.9765625 0.020065308
vt 0.5371094 0.025283813
vt 0.9765625 0.025299072
vt 0.5371094 0.030410767
vt 0.9765625 0.030426025
vt 0.5371094 0.035186768
vt 0.9765625 0.035186768
vt 0.5371094 0.04006958
vt 0.9765625 0.040100098
vt 0.5371094 0.052001953
vt 0.9765625 0.052001953
vt 0.5371094 0.13708496
vt 0.9765625 0.13708496
vt 0.5371094 0.21813965
vt 0.9765625 0.21813965
vt 0.5371094 0.2993164
vt 0.9765625 0.2993164
vt 0.5371094 0.38012695
vt 0.9765625 0.3803711
vt 0.9765625 0.39941406
vt 0.5371094 0.39941406
vt 0.9765625 0.46142578
vt 0.5371094 0.46118164
vt 0.5371094 0.54248047
vt 0.9765625 0.54248047
vt 0.5371094 0.62353516
vt 0.9765625 0.62353516
vt 0.9765625 0.66748047
vt 0.5371094 0.66748047
vt 0.9765625 0.7084961
vt 0.5371094 0.7084961
vt 0.9765625 0.72021484
vt 0.5371094 0.72021484
vt 0.9765625 0.72509766
vt 0.5371094 0.72509766
vt 0.9765625 0.72998047
vt 0.5371094 0.72998047
vt 0.9765625 0.73535156
vt 0.5371094 0.73535156
vt 0.9765625 0.7402344
vt 0.5371094 0.7402344
vt 0.9765625 0.74560547
vt 0.5371094 0.7451172
vt 0.9765625 0.75683594
vt 0.5371094 0.75683594
vt 0.5371094 0.7680664
vt 0.9765625 0.7680664
vt 0.5371094 0.82177734
vt 0.9765625 0.82177734
vt 0.5371094 0.90283203
vt 0.9765625 0.90283203
vt 0.5371094 0.9838867
vt 0.9765625 0.9838867
vn -0 0 -1
vn -0 0 -1
vn -0 0 -1
vn -0 0 -1
vn -0 0 -1
vn -0 0 -1
vn -0 0 -1
vn -0 0 -1
vn -0 0 -1
vn -0 0 -1
vn -0 0 -1
vn -0 0 -1
vn -0 0 -1
vn -0 0 -1
vn -0 0 -1
vn -0 0 -1
vn -0 0 -1
vn -0 0 -1
vn -0 0 -1
vn -0 0 -1
vn -0 0 -1
vn -0 0 -1
vn -0 0 -1
vn -0 0 -1
vn -0 0 -1
vn -0 0 -1
vn -0 0 -1
vn -0 0 -1
vn -0 0 -1
vn -0 0 -1
vn -0 0 -1
vn -0 0 -1
vn -0 0 -1
vn -0 0 -1
vn -0 0 -1
vn -0 0 -1
vn -0 0 -1
vn -0 0 -1
vn -0 0 -1
vn -0 0 -1
vn -0 0 -1
vn -0 0 -1
vn -0 0 -1
vn -0 0 -1
vn -0 0 -1
vn -0 0 -1
vn -0 0 -1
vn -0 0 -1
vn -0 0 -1
vn -0 0 -1
vn -0 0 -1
vn -0 0 -1
vn -0 0 -1
vn -0 0 -1
vn -0 0 -1
vn -0 0 -1
vn -0 0 -1
vn -0 0 -1
vn -0 0 -1
vn -0 0 -1
vn -0 0 -1
vn -0 0 -1
vn -0 0 -1
vn -0 0 -1
vn -0 0 -1
vn -0 0 -1
vn -0 0 -1
vn -0 0 -1
vn -0 0 -1
vn -0 0 -1
vn -0 0 -1
vn -0 0 -1
vn -0 0 -1
vn -0 0 -1
vn -0 0 -1
vn -0 0 -1
vn -0 0 -1
vn -0 0 -1
vn -0 0 -1
vn -0 0 -1
vn -0 0 -1
vn -0 0 -1
vn -0 0 -1
vn -0 0 -1
vn -0 0 -1
vn -0 0 -1
vn -0 0 -1
vn -0 0 -1
vn -0 0 -1
vn -0 0 -1
vn -0 0 -1
vn -0 0 -1
vn -0 0 -1
vn -0 0 -1
vn -0 0 -1
vn -0 0 -1
vn -0 0 -1
vn -0 0 -1
vn -0 0 -1
vn -0 0 -1
vn -0 0 -1
vn -0 0 -1
vn -0 0 -1
vn -0 0 -1
vn -0 0 -1
vn -0 0 -1
vn -0 0 -1
vn -0 0 -1
vn -0 0 -1
vn -0 0 -1
vn -0 0 -1
vn -0 0 -1
vn -0 0 -1
vn -0 0 -1
vn -0 0 -1
vn -0 0 -1
vn -0 0 -1
vn -0 0 -1
vn -0 0 -1
vn -0 0 -1
vn -0 0 -1
vn -0 0 -1
vn -0 0 1
vn -0 0 1
vn -0 0 1
vn -0 0 1
vn -0 0 1
vn -0 0 1
vn -0 0 1
vn -0 0 1
vn -0 0 1
vn -0 0 1
vn -0 0 1
vn -0 0 1
vn -0 0 1
vn -0 0 1
vn -0 0 1
vn -0 0 1
vn -0 0 1
vn -0 0 1
vn -0 0 1
vn -0 0 1
vn -0 0 1
vn -0 0 1
vn -0 0 1
vn -0 0 1
vn -0 0 1
vn -0 0 1
vn -0 0 1
vn -0 0 1
vn -0 0 1
vn -0 0 1
vn -0 0 1
vn -0 0 1
vn -0 0 1
vn -0 0 1
vn -0 0 1
vn -0 0 1
vn -0 0 1
vn -0 0 1
vn -0 0 1
vn -0 0 1
vn -0 0 1
vn -0 0 1
vn -0 0 1
vn -0 0 1
vn -0 0 1
vn -0 0 1
vn -0 0 1
vn -0 0 1
vn -0 0 1
vn -0 0 1
vn -0 0 1
vn -0 0 1
vn -0 0 1
vn -0 0 1
vn -0 0 1
vn -0 0 1
vn -0 0 1
vn -0 0 1
vn -0 0 1
vn -0 0 1
vn -0 0 1
vn -0 0 1
vn -0 0 1
vn -0 0 1
vn -0 0 1
vn -0 0 1
vn -0 0 1
vn -0 0 1
vn -0 0 1
vn -0 0 1
vn -0 0 1
vn -0 0 1
vn -0 0 1
vn -0 0 1
vn -0 0 1
vn -0 0 1
vn -0 0 1
vn -0 0 1
vn -0 0 1
vn -0 0 1
vn -0 0 1
vn -0 0 1
vn -0 0 1
vn -0 0 1
vn -0 0 1
vn -0 0 1
vn -0 0 1
vn -0 0 1
vn -0 0 1
vn -0 0 1
vn -0 0 1
vn -0 0 1
vn -0 0 1
vn -0 0 1
vn -0 0 1
vn -0 0 1
vn -0 0 1
vn -0 0 1
vn -0 0 1
vn -0 0 1
vn -0 0 1
vn -0 0 1
vn -0 0 1
vn -0 0 1
vn -0 0 1
vn -0 0 1
vn -0 0 1
vn -0 0 1
vn -0 0 1
vn -0 0 1
vn -0 0 1
vn -0 0 1
vn -0 0 1
vn -0 0 1
vn -0 0 1
vn -0 0 1
vn -0 0 1
vn -0 0 1
vn -0 0 1
vn -0 0 1
vn -0 0 1
vn -0 0 1
vn -0 0 1
vn -0 0 1
vn -0 0 1
vn -0 1 0
vn -0 1 0
vn -0 1 0
vn -0 1 0
vn -0 1 0
vn -0 1 0
vn -0 1 0
vn -0 1 0
vn -0.0017127991 1 0
vn -0.0017127991 1 0
vn -0.09539795 0.99560547 0
vn -0.09539795 0.99560547 0
vn -0.40722656 0.91308594 0
vn -0.40722656 0.91308594 0
vn -0.6171875 0.7871094 0
vn -0.6171875 0.7871094 0
vn -0.78027344 0.6254883 0
vn -0.78027344 0.6254883 0
vn -0.8955078 0.44458008 0
vn -0.8955078 0.44458008 0
vn -0.9951172 0.09887695 0
vn -0.9951172 0.09887695 0
vn -1 0 0
vn -1 0 0
vn -1 0 0
vn -1 0 0
vn -1 0 0
vn -1 0 0
vn -1 0 0
vn -1 0 0
vn -1 0 0
vn -1 0 0
vn -1 0 0
vn -1 0 0
vn -1 0 0
vn -1 0 0
vn -1 0 0
vn -1 0 0
vn -1 0 0
vn -1 0 0
vn -1 0 0
vn -1 0 0
vn -1 0.00058555603 0
vn -1 0.00058555603 0
vn -0.9951172 -0.09887695 0
vn -0.9951172 -0.09887695 0
vn -0.8935547 -0.44921875 0
vn -0.8935547 -0.44921875 0
vn -0.78027344 -0.6254883 0
vn -0.78027344 -0.6254883 0
vn -0.6171875 -0.7871094 0
vn -0.6171875 -0.7871094 0
vn -0.40722656 -0.91308594 0
vn -0.40722656 -0.91308594 0
vn -0.09539795 -0.99560547 0
vn -0.09539795 -0.99560547 0
vn -0 -1 0
vn -0 -1 0
vn -0 -1 0
vn -0 -1 0
vn -0 -1 0
vn -0 -1 0
vn -0 -1 0
vn -0 -1 0
vn -0.0017127991 -1 0
vn -0.0017127991 -1 0
vn -0.09539795 -0.99560547 0
vn -0.09539795 -0.99560547 0
vn 0.09539795 -0.99560547 0
vn 0.09539795 -0.99560547 0
vn 0.0017127991 -1 0
vn 0.0017127991 -1 0
vn -0 -1 0
vn -0 -1 0
vn -0 -1 0
vn -0 -1 0
vn -0 -1 0
vn -0 -1 0
vn -0 -1 0
vn -0 -1 0
vn 0.40722656 -0.91308594 0
vn 0.09539795 -0.99560547 0
vn 0.09539795 -0.99560547 0
vn 0.40722656 -0.91308594 0
vn 0.6171875 -0.7871094 0
vn 0.6171875 -0.7871094 0
vn 0.78027344 -0.6254883 0
vn 0.78027344 -0.6254883 0
vn 0.8955078 -0.44458008 0
vn 0.8955078 -0.44458008 0
vn 0.9951172 -0.09887695 0
vn 0.9951172 -0.09887695 0
vn 1 0 0
vn 1 0 0
vn 1 0 0
vn 1 0 0
vn 1 0 0
vn 1 0 0
vn 1 0 0
vn 1 0 0
vn 1 0 0
vn 1 0 0
vn 1 0 0
vn 1 0 0
vn 1 0 0
vn 1 0 0
vn 1 0 0
vn 1 0 0
vn 1 0 0
vn 1 0 0
vn 1 0 0
vn 1 0 0
vn 1 0 0
vn 1 0 0
vn 0.9951172 0.09887695 0
vn 0.9951172 0.09887695 0
vn 0.8955078 0.44458008 0
vn 0.8955078 0.44458008 0
vn 0.78027344 0.6254883 0
vn 0.78027344 0.6254883 0
vn 0.6171875 0.7871094 0
vn 0.6171875 0.7871094 0
vn 0.40722656 0.91308594 0
vn 0.40722656 0.91308594 0
vn 0.09539795 0.99560547 0
vn 0.09539795 0.99560547 0
vn 0.0017127991 1 0
vn 0.0017127991 1 0
vn -0 1 0
vn -0 1 0
vn -0 1 0
vn -0 1 0
vn -0 1 0
vn -0 1 0
vn -0 1 0
vn -0 1 0
g Card_F_UR_Glitter_0
f 3/3/3 2/2/2 1/1/1
f 3/3/3 1/1/1 4/4/4
f 5/5/5 3/3/3 4/4/4
f 5/5/5 4/4/4 6/6/6
f 9/9/9 8/8/8 7/7/7
f 8/8/8 10/10/10 7/7/7
f 11/11/11 8/8/8 9/9/9
f 9/9/9 12/12/12 11/11/11
f 11/11/11 12/12/12 13/13/13
f 13/13/13 14/14/14 11/11/11
f 15/15/15 11/11/11 14/14/14
f 15/15/15 16/16/16 11/11/11
f 17/17/17 11/11/11 16/16/16
f 17/17/17 18/18/18 11/11/11
f 19/19/19 11/11/11 18/18/18
f 19/19/19 20/20/20 11/11/11
f 20/20/20 8/8/8 11/11/11
f 20/20/20 19/19/19 21/21/21
f 8/8/8 22/22/22 10/10/10
f 23/23/23 10/10/10 22/22/22
f 20/20/20 21/21/21 24/24/24
f 24/24/24 21/21/21 25/25/25
f 26/26/26 8/8/8 20/20/20
f 26/26/26 22/22/22 8/8/8
f 26/26/26 20/20/20 24/24/24
f 23/23/23 22/22/22 27/27/27
f 27/27/27 22/22/22 26/26/26
f 27/27/27 28/28/28 23/23/23
f 24/24/24 25/25/25 29/29/29
f 29/29/29 25/25/25 30/30/30
f 26/26/26 24/24/24 31/31/31
f 31/31/31 24/24/24 29/29/29
f 27/27/27 32/32/32 28/28/28
f 32/32/32 33/33/33 28/28/28
f 27/27/27 26/26/26 34/34/34
f 34/34/34 32/32/32 27/27/27
f 34/34/34 26/26/26 31/31/31
f 32/32/32 35/35/35 33/33/33
f 35/35/35 32/32/32 34/34/34
f 36/36/36 33/33/33 35/35/35
f 29/29/29 30/30/30 37/37/37
f 37/37/37 30/30/30 38/38/38
f 39/39/39 31/31/31 29/29/29
f 39/39/39 29/29/29 37/37/37
f 37/37/37 38/38/38 40/40/40
f 40/40/40 39/39/39 37/37/37
f 40/40/40 38/38/38 41/41/41
f 34/34/34 31/31/31 42/42/42
f 39/39/39 42/42/42 31/31/31
f 36/36/36 35/35/35 43/43/43
f 43/43/43 44/44/44 36/36/36
f 35/35/35 34/34/34 45/45/45
f 45/45/45 43/43/43 35/35/35
f 42/42/42 45/45/45 34/34/34
f 43/43/43 46/46/46 44/44/44
f 45/45/45 46/46/46 43/43/43
f 45/45/45 47/47/47 46/46/46
f 48/48/48 44/44/44 46/46/46
f 45/45/45 42/42/42 49/49/49
f 48/48/48 46/46/46 50/50/50
f 47/47/47 50/50/50 46/46/46
f 50/50/50 51/51/51 48/48/48
f 50/50/50 52/52/52 51/51/51
f 52/52/52 50/50/50 47/47/47
f 52/52/52 53/53/53 51/51/51
f 52/52/52 54/54/54 53/53/53
f 47/47/47 54/54/54 52/52/52
f 53/53/53 54/54/54 55/55/55
f 55/55/55 54/54/54 56/56/56
f 57/57/57 56/56/56 54/54/54
f 54/54/54 58/58/58 57/57/57
f 59/59/59 58/58/58 54/54/54
f 54/54/54 60/60/60 59/59/59
f 54/54/54 61/61/61 60/60/60
f 61/61/61 54/54/54 62/62/62
f 47/47/47 62/62/62 54/54/54
f 61/61/61 62/62/62 63/63/63
f 64/64/64 63/63/63 62/62/62
f 47/47/47 64/64/64 62/62/62
f 64/64/64 65/65/65 63/63/63
f 47/47/47 66/66/66 64/64/64
f 66/66/66 65/65/65 64/64/64
f 66/66/66 67/67/67 65/65/65
f 47/47/47 68/68/68 66/66/66
f 69/69/69 67/67/67 66/66/66
f 68/68/68 69/69/69 66/66/66
f 69/69/69 70/70/70 67/67/67
f 68/68/68 71/71/71 69/69/69
f 71/71/71 70/70/70 69/69/69
f 71/71/71 72/72/72 70/70/70
f 73/73/73 71/71/71 68/68/68
f 74/74/74 72/72/72 71/71/71
f 73/73/73 74/74/74 71/71/71
f 74/74/74 75/75/75 72/72/72
f 76/76/76 75/75/75 74/74/74
f 76/76/76 74/74/74 73/73/73
f 76/76/76 77/77/77 75/75/75
f 77/77/77 76/76/76 78/78/78
f 77/77/77 78/78/78 79/79/79
f 80/80/80 79/79/79 78/78/78
f 80/80/80 78/78/78 81/81/81
f 82/82/82 81/81/81 78/78/78
f 82/82/82 78/78/78 83/83/83
f 84/84/84 83/83/83 78/78/78
f 78/78/78 85/85/85 84/84/84
f 86/86/86 85/85/85 78/78/78
f 78/78/78 87/87/87 86/86/86
f 88/88/88 78/78/78 76/76/76
f 78/78/78 88/88/88 87/87/87
f 88/88/88 76/76/76 73/73/73
f 89/89/89 87/87/87 88/88/88
f 89/89/89 88/88/88 90/90/90
f 73/73/73 90/90/90 88/88/88
f 90/90/90 91/91/91 89/89/89
f 73/73/73 92/92/92 90/90/90
f 90/90/90 92/92/92 91/91/91
f 93/93/93 91/91/91 92/92/92
f 73/73/73 94/94/94 92/92/92
f 93/93/93 92/92/92 95/95/95
f 94/94/94 95/95/95 92/92/92
f 95/95/95 96/96/96 93/93/93
f 95/95/95 97/97/97 96/96/96
f 94/94/94 97/97/97 95/95/95
f 97/97/97 98/98/98 96/96/96
f 97/97/97 99/99/99 98/98/98
f 94/94/94 99/99/99 97/97/97
f 100/100/100 98/98/98 99/99/99
f 100/100/100 99/99/99 101/101/101
f 101/101/101 102/102/102 100/100/100
f 94/94/94 103/103/103 99/99/99
f 103/103/103 101/101/101 99/99/99
f 101/101/101 104/104/104 102/102/102
f 105/105/105 102/102/102 104/104/104
f 94/94/94 106/106/106 103/103/103
f 49/49/49 106/106/106 94/94/94
f 101/101/101 103/103/103 107/107/107
f 101/101/101 107/107/107 104/104/104
f 107/107/107 103/103/103 106/106/106
f 105/105/105 104/104/104 108/108/108
f 107/107/107 108/108/108 104/104/104
f 108/108/108 109/109/109 105/105/105
f 108/108/108 110/110/110 109/109/109
f 109/109/109 110/110/110 111/111/111
f 111/111/111 110/110/110 112/112/112
f 113/113/113 112/112/112 110/110/110
f 110/110/110 114/114/114 113/113/113
f 115/115/115 114/114/114 110/110/110
f 110/110/110 116/116/116 115/115/115
f 110/110/110 117/117/117 116/116/116
f 108/108/108 118/118/118 110/110/110
f 117/117/117 110/110/110 118/118/118
f 108/108/108 107/107/107 118/118/118
f 117/117/117 118/118/118 119/119/119
f 120/120/120 118/118/118 107/107/107
f 107/107/107 106/106/106 120/120/120
f 121/121/121 119/119/119 118/118/118
f 120/120/120 121/121/121 118/118/118
f 121/121/121 41/41/41 119/119/119
f 40/40/40 41/41/41 121/121/121
f 121/121/121 120/120/120 40/40/40
f 40/40/40 120/120/120 39/39/39
f 120/120/120 106/106/106 122/122/122
f 120/120/120 122/122/122 39/39/39
f 49/49/49 122/122/122 106/106/106
f 39/39/39 122/122/122 42/42/42
f 49/49/49 42/42/42 122/122/122
g Card_F_UR_Glitter_1
f 125/125/125 124/124/124 123/123/123
f 124/124/124 126/126/126 123/123/123
f 125/125/125 127/127/127 124/124/124
f 127/127/127 125/125/125 128/128/128
f 127/127/127 128/128/128 129/129/129
f 127/127/127 129/129/129 130/130/130
f 127/127/127 130/130/130 131/131/131
f 131/131/131 132/132/132 127/127/127
f 133/133/133 127/127/127 132/132/132
f 134/134/134 127/127/127 133/133/133
f 127/127/127 134/134/134 135/135/135
f 127/127/127 135/135/135 136/136/136
f 124/124/124 127/127/127 136/136/136
f 137/137/137 136/136/136 135/135/135
f 124/124/124 138/138/138 126/126/126
f 138/138/138 139/139/139 126/126/126
f 137/137/137 140/140/140 136/136/136
f 141/141/141 140/140/140 137/137/137
f 142/142/142 124/124/124 136/136/136
f 140/140/140 142/142/142 136/136/136
f 138/138/138 124/124/124 142/142/142
f 141/141/141 143/143/143 140/140/140
f 140/140/140 143/143/143 142/142/142
f 144/144/144 143/143/143 141/141/141
f 138/138/138 145/145/145 139/139/139
f 145/145/145 146/146/146 139/139/139
f 138/138/138 142/142/142 147/147/147
f 138/138/138 147/147/147 145/145/145
f 144/144/144 148/148/148 143/143/143
f 148/148/148 144/144/144 149/149/149
f 143/143/143 150/150/150 142/142/142
f 143/143/143 148/148/148 150/150/150
f 150/150/150 147/147/147 142/142/142
f 148/148/148 149/149/149 151/151/151
f 151/151/151 150/150/150 148/148/148
f 152/152/152 151/151/151 149/149/149
f 145/145/145 153/153/153 146/146/146
f 154/154/154 146/146/146 153/153/153
f 155/155/155 145/145/145 147/147/147
f 155/155/155 153/153/153 145/145/145
f 154/154/154 153/153/153 156/156/156
f 155/155/155 156/156/156 153/153/153
f 157/157/157 154/154/154 156/156/156
f 150/150/150 158/158/158 147/147/147
f 158/158/158 155/155/155 147/147/147
f 152/152/152 159/159/159 151/151/151
f 159/159/159 152/152/152 160/160/160
f 151/151/151 161/161/161 150/150/150
f 161/161/161 158/158/158 150/150/150
f 161/161/161 151/151/151 159/159/159
f 157/157/157 156/156/156 162/162/162
f 163/163/163 157/157/157 162/162/162
f 155/155/155 164/164/164 156/156/156
f 162/162/162 156/156/156 164/164/164
f 163/163/163 162/162/162 165/165/165
f 165/165/165 162/162/162 164/164/164
f 165/165/165 166/166/166 163/163/163
f 165/165/165 167/167/167 166/166/166
f 168/168/168 166/166/166 167/167/167
f 168/168/168 167/167/167 169/169/169
f 169/169/169 167/167/167 170/170/170
f 170/170/170 167/167/167 171/171/171
f 172/172/172 171/171/171 167/167/167
f 167/167/167 173/173/173 172/172/172
f 174/174/174 173/173/173 167/167/167
f 174/174/174 167/167/167 175/175/175
f 165/165/165 175/175/175 167/167/167
f 174/174/174 175/175/175 176/176/176
f 165/165/165 177/177/177 175/175/175
f 165/165/165 164/164/164 177/177/177
f 178/178/178 176/176/176 175/175/175
f 177/177/177 178/178/178 175/175/175
f 178/178/178 179/179/179 176/176/176
f 180/180/180 179/179/179 178/178/178
f 177/177/177 180/180/180 178/178/178
f 180/180/180 181/181/181 179/179/179
f 182/182/182 181/181/181 180/180/180
f 182/182/182 183/183/183 181/181/181
f 184/184/184 180/180/180 177/177/177
f 184/184/184 182/182/182 180/180/180
f 177/177/177 164/164/164 185/185/185
f 177/177/177 185/185/185 184/184/184
f 183/183/183 182/182/182 186/186/186
f 183/183/183 186/186/186 187/187/187
f 188/188/188 182/182/182 184/184/184
f 188/188/188 186/186/186 182/182/182
f 189/189/189 187/187/187 186/186/186
f 188/188/188 189/189/189 186/186/186
f 189/189/189 190/190/190 187/187/187
f 190/190/190 189/189/189 191/191/191
f 190/190/190 191/191/191 192/192/192
f 193/193/193 191/191/191 189/189/189
f 193/193/193 189/189/189 188/188/188
f 194/194/194 192/192/192 191/191/191
f 194/194/194 191/191/191 193/193/193
f 194/194/194 195/195/195 192/192/192
f 184/184/184 196/196/196 188/188/188
f 184/184/184 185/185/185 196/196/196
f 195/195/195 194/194/194 197/197/197
f 195/195/195 197/197/197 198/198/198
f 188/188/188 199/199/199 193/193/193
f 188/188/188 196/196/196 199/199/199
f 194/194/194 193/193/193 200/200/200
f 197/197/197 194/194/194 200/200/200
f 198/198/198 197/197/197 201/201/201
f 198/198/198 201/201/201 202/202/202
f 202/202/202 201/201/201 203/203/203
f 203/203/203 201/201/201 204/204/204
f 205/205/205 204/204/204 201/201/201
f 201/201/201 206/206/206 205/205/205
f 201/201/201 207/207/207 206/206/206
f 201/201/201 208/208/208 207/207/207
f 201/201/201 209/209/209 208/208/208
f 210/210/210 209/209/209 201/201/201
f 211/211/211 201/201/201 197/197/197
f 210/210/210 201/201/201 211/211/211
f 211/211/211 197/197/197 200/200/200
f 211/211/211 212/212/212 210/210/210
f 211/211/211 213/213/213 212/212/212
f 200/200/200 213/213/213 211/211/211
f 213/213/213 214/214/214 212/212/212
f 200/200/200 215/215/215 213/213/213
f 193/193/193 215/215/215 200/200/200
f 193/193/193 199/199/199 215/215/215
f 213/213/213 216/216/216 214/214/214
f 213/213/213 215/215/215 216/216/216
f 216/216/216 217/217/217 214/214/214
f 199/199/199 218/218/218 215/215/215
f 218/218/218 216/216/216 215/215/215
f 216/216/216 219/219/219 217/217/217
f 219/219/219 216/216/216 218/218/218
f 220/220/220 217/217/217 219/219/219
f 220/220/220 219/219/219 221/221/221
f 219/219/219 218/218/218 221/221/221
f 222/222/222 220/220/220 221/221/221
f 199/199/199 223/223/223 218/218/218
f 196/196/196 223/223/223 199/199/199
f 222/222/222 221/221/221 224/224/224
f 225/225/225 222/222/222 224/224/224
f 221/221/221 218/218/218 226/226/226
f 221/221/221 226/226/226 224/224/224
f 223/223/223 226/226/226 218/218/218
f 225/225/225 224/224/224 227/227/227
f 227/227/227 224/224/224 226/226/226
f 227/227/227 228/228/228 225/225/225
f 227/227/227 229/229/229 228/228/228
f 230/230/230 228/228/228 229/229/229
f 230/230/230 229/229/229 231/231/231
f 231/231/231 229/229/229 232/232/232
f 232/232/232 229/229/229 233/233/233
f 234/234/234 233/233/233 229/229/229
f 229/229/229 235/235/235 234/234/234
f 236/236/236 235/235/235 229/229/229
f 227/227/227 226/226/226 237/237/237
f 229/229/229 227/227/227 237/237/237
f 238/238/238 236/236/236 229/229/229
f 229/229/229 237/237/237 238/238/238
f 238/238/238 239/239/239 236/236/236
f 240/240/240 239/239/239 238/238/238
f 237/237/237 240/240/240 238/238/238
f 240/240/240 241/241/241 239/239/239
f 237/237/237 226/226/226 242/242/242
f 223/223/223 242/242/242 226/226/226
f 243/243/243 241/241/241 240/240/240
f 243/243/243 160/160/160 241/241/241
f 159/159/159 160/160/160 243/243/243
f 244/244/244 240/240/240 237/237/237
f 244/244/244 243/243/243 240/240/240
f 244/244/244 159/159/159 243/243/243
f 237/237/237 242/242/242 244/244/244
f 244/244/244 161/161/161 159/159/159
f 244/244/244 245/245/245 161/161/161
f 244/244/244 242/242/242 245/245/245
f 161/161/161 245/245/245 158/158/158
f 246/246/246 242/242/242 223/223/223
f 246/246/246 245/245/245 242/242/242
f 196/196/196 246/246/246 223/223/223
f 185/185/185 246/246/246 196/196/196
f 247/247/247 158/158/158 245/245/245
f 247/247/247 245/245/245 246/246/246
f 185/185/185 247/247/247 246/246/246
f 158/158/158 247/247/247 155/155/155
f 247/247/247 185/185/185 164/164/164
f 247/247/247 164/164/164 155/155/155
g Card_F_UR_Glitter_2
f 250/250/250 249/249/249 248/248/248
f 250/250/250 248/248/248 251/251/251
f 251/251/251 248/248/248 252/252/252
f 251/251/251 252/252/252 253/253/253
f 252/252/252 254/254/254 253/253/253
f 252/252/252 255/255/255 254/254/254
f 255/255/255 256/256/256 254/254/254
f 255/255/255 257/257/257 256/256/256
f 256/256/256 257/257/257 258/258/258
f 256/256/256 258/258/258 259/259/259
f 259/259/259 258/258/258 260/260/260
f 259/259/259 260/260/260 261/261/261
f 261/261/261 260/260/260 262/262/262
f 261/261/261 262/262/262 263/263/263
f 263/263/263 262/262/262 264/264/264
f 263/263/263 264/264/264 265/265/265
f 265/265/265 264/264/264 266/266/266
f 265/265/265 266/266/266 267/267/267
f 267/267/267 266/266/266 268/268/268
f 267/267/267 268/268/268 269/269/269
f 269/269/269 268/268/268 270/270/270
f 269/269/269 270/270/270 271/271/271
f 272/272/272 271/271/271 270/270/270
f 272/272/272 273/273/273 271/271/271
f 274/274/274 273/273/273 272/272/272
f 274/274/274 275/275/275 273/273/273
f 275/275/275 274/274/274 276/276/276
f 275/275/275 276/276/276 277/277/277
f 277/277/277 276/276/276 278/278/278
f 277/277/277 278/278/278 279/279/279
f 279/279/279 278/278/278 280/280/280
f 279/279/279 280/280/280 281/281/281
f 281/281/281 280/280/280 282/282/282
f 281/281/281 282/282/282 283/283/283
f 284/284/284 283/283/283 282/282/282
f 284/284/284 285/285/285 283/283/283
f 286/286/286 285/285/285 284/284/284
f 286/286/286 287/287/287 285/285/285
f 288/288/288 287/287/287 286/286/286
f 288/288/288 289/289/289 287/287/287
f 290/290/290 289/289/289 288/288/288
f 290/290/290 291/291/291 289/289/289
f 290/290/290 292/292/292 291/291/291
f 290/290/290 293/293/293 292/292/292
f 293/293/293 294/294/294 292/292/292
f 293/293/293 295/295/295 294/294/294
f 295/295/295 296/296/296 294/294/294
f 295/295/295 297/297/297 296/296/296
f 297/297/297 298/298/298 296/296/296
f 297/297/297 299/299/299 298/298/298
f 299/299/299 300/300/300 298/298/298
f 299/299/299 301/301/301 300/300/300
f 301/301/301 302/302/302 300/300/300
f 301/301/301 303/303/303 302/302/302
f 306/306/306 305/305/305 304/304/304
f 306/306/306 304/304/304 307/307/307
f 307/307/307 304/304/304 308/308/308
f 307/307/307 308/308/308 309/309/309
f 308/308/308 310/310/310 309/309/309
f 308/308/308 311/311/311 310/310/310
f 311/311/311 312/312/312 310/310/310
f 311/311/311 313/313/313 312/312/312
f 314/314/314 312/312/312 313/313/313
f 314/314/314 313/313/313 315/315/315
f 318/318/318 317/317/317 316/316/316
f 318/318/318 319/319/319 317/317/317
f 319/319/319 318/318/318 320/320/320
f 319/319/319 320/320/320 321/321/321
f 321/321/321 320/320/320 322/322/322
f 321/321/321 322/322/322 323/323/323
f 323/323/323 322/322/322 324/324/324
f 323/323/323 324/324/324 325/325/325
f 325/325/325 324/324/324 326/326/326
f 325/325/325 326/326/326 327/327/327
f 330/330/330 329/329/329 328/328/328
f 330/330/330 328/328/328 331/331/331
f 331/331/331 328/328/328 332/332/332
f 331/331/331 332/332/332 333/333/333
f 333/333/333 332/332/332 334/334/334
f 333/333/333 334/334/334 335/335/335
f 335/335/335 334/334/334 336/336/336
f 335/335/335 336/336/336 337/337/337
f 337/337/337 336/336/336 338/338/338
f 337/337/337 338/338/338 339/339/339
f 339/339/339 338/338/338 340/340/340
f 339/339/339 340/340/340 341/341/341
f 342/342/342 341/341/341 340/340/340
f 342/342/342 343/343/343 341/341/341
f 344/344/344 343/343/343 342/342/342
f 344/344/344 345/345/345 343/343/343
f 346/346/346 345/345/345 344/344/344
f 346/346/346 347/347/347 345/345/345
f 348/348/348 347/347/347 346/346/346
f 348/348/348 349/349/349 347/347/347
f 348/348/348 350/350/350 349/349/349
f 348/348/348 351/351/351 350/350/350
f 351/351/351 352/352/352 350/350/350
f 351/351/351 353/353/353 352/352/352
f 352/352/352 353/353/353 354/354/354
f 352/352/352 354/354/354 355/355/355
f 355/355/355 354/354/354 356/356/356
f 355/355/355 356/356/356 357/357/357
f 356/356/356 358/358/358 357/357/357
f 356/356/356 359/359/359 358/358/358
f 360/360/360 358/358/358 359/359/359
f 360/360/360 359/359/359 361/361/361
f 361/361/361 362/362/362 360/360/360
f 361/361/361 363/363/363 362/362/362
f 363/363/363 364/364/364 362/362/362
f 363/363/363 365/365/365 364/364/364
f 365/365/365 366/366/366 364/364/364
f 365/365/365 367/367/367 366/366/366
f 367/367/367 368/368/368 366/366/366
f 367/367/367 369/369/369 368/368/368
f 369/369/369 370/370/370 368/368/368
f 369/369/369 371/371/371 370/370/370
f 371/371/371 372/372/372 370/370/370
f 371/371/371 373/373/373 372/372/372
f 373/373/373 374/374/374 372/372/372
f 373/373/373 375/375/375 374/374/374
f 374/374/374 375/375/375 376/376/376
f 374/374/374 376/376/376 377/377/377
f 377/377/377 376/376/376 378/378/378
f 377/377/377 378/378/378 379/379/379
f 379/379/379 378/378/378 380/380/380
f 379/379/379 380/380/380 381/381/381
f 381/381/381 380/380/380 382/382/382
f 381/381/381 382/382/382 383/383/383
