g card_r
v -0.29339394 -0.4373358 0.0050000004
v -0.28000003 -0.40500003 0.0050000004
v -0.2868282 -0.43932748 0.0050000004
v -0.299445 -0.43410143 0.0050000004
v -0.30474874 -0.42974874 0.0050000004
v -0.30910143 -0.42444497 0.0050000004
v -0.3123358 -0.4183939 0.0050000004
v -0.31432748 -0.4118282 0.0050000004
v -0.28000003 -0.44000003 0.0050000004
v -0.31500003 -0.40500003 0.0050000004
v 5.6205045E-18 -0.40500003 0.0050000004
v -0 0 0.0050000004
v 1.2212454E-17 -0.44000003 0.0050000004
v 0.28000003 -0.44000003 0.0050000004
v -0.28000003 0 0.0050000004
v -0.31500003 0 0.0050000004
v -0.31500003 0.40500003 0.0050000004
v 0.28000003 -0.40500003 0.0050000004
v 0.2868282 -0.43932748 0.0050000004
v 0.29339394 -0.4373358 0.0050000004
v 0.299445 -0.43410143 0.0050000004
v 0.30474874 -0.42974874 0.0050000004
v 0.30910143 -0.42444497 0.0050000004
v 0.3123358 -0.4183939 0.0050000004
v 0.31432748 -0.4118282 0.0050000004
v 0.31500003 -0.40500003 0.0050000004
v -0.28000003 0.40500003 0.0050000004
v -0.31432748 0.4118282 0.0050000004
v -0.3123358 0.4183939 0.0050000004
v -0.30910143 0.42444497 0.0050000004
v -0.30474874 0.42974874 0.0050000004
v -0.299445 0.43410143 0.0050000004
v -0.29339394 0.4373358 0.0050000004
v -0.2868282 0.43932748 0.0050000004
v -0.28000003 0.44000003 0.0050000004
v 0.28000003 0 0.0050000004
v 0.31500003 0 0.0050000004
v 0.31500003 0.40500003 0.0050000004
v -0 0.40500003 0.0050000004
v -0 0.44000003 0.0050000004
v 0.28000003 0.44000003 0.0050000004
v 0.28000003 0.40500003 0.0050000004
v 0.31432748 0.4118282 0.0050000004
v 0.2868282 0.43932748 0.0050000004
v 0.3123358 0.4183939 0.0050000004
v 0.29339394 0.4373358 0.0050000004
v 0.30910143 0.42444497 0.0050000004
v 0.299445 0.43410143 0.0050000004
v 0.30474874 0.42974874 0.0050000004
vt 0.034301758 0.0030269623
vt 0.055541992 0.039764404
vt 0.044708252 0.00076436996
vt 0.02468872 0.006702423
vt 0.01626587 0.011650085
vt 0.009361267 0.017669678
vt 0.0042304993 0.024551392
vt 0.0010671616 0.03201294
vt 0.055541992 0
vt 0 0.039764404
vt 0.5 0.039764404
vt 0.5 0.5
vt 0.5 0
vt 0.94433594 0
vt 0.055541992 0.5
vt 0 0.5
vt 0 0.9604492
vt 0.94433594 0.039764404
vt 0.9550781 0.00076436996
vt 0.9658203 0.0030269623
vt 0.97509766 0.006702423
vt 0.9838867 0.011650085
vt 0.99072266 0.017669678
vt 0.99560547 0.024551392
vt 0.99902344 0.03201294
vt 1 0.039764404
vt 0.055541992 0.9604492
vt 0.0010671616 0.96777344
vt 0.0042304993 0.97558594
vt 0.009361267 0.9824219
vt 0.01626587 0.98828125
vt 0.02468872 0.99316406
vt 0.034301758 0.9970703
vt 0.044708252 0.99902344
vt 0.055541992 1
vt 0.94433594 0.5
vt 1 0.5
vt 1 0.9604492
vt 0.5 0.9604492
vt 0.5 1
vt 0.94433594 1
vt 0.94433594 0.9604492
vt 0.99902344 0.96777344
vt 0.9550781 0.99902344
vt 0.99560547 0.97558594
vt 0.9658203 0.9970703
vt 0.99072266 0.9824219
vt 0.97509766 0.99316406
vt 0.9838867 0.98828125
vn -0 0 1
vn -0 0 1
vn -0 0 1
vn -0 0 1
vn -0 0 1
vn -0 0 1
vn -0 0 1
vn -0 0 1
vn -0 0 1
vn -0 0 1
vn -0 0 1
vn -0 0 1
vn -0 0 1
vn -0 0 1
vn -0 0 1
vn -0 0 1
vn -0 0 1
vn -0 0 1
vn -0 0 1
vn -0 0 1
vn -0 0 1
vn -0 0 1
vn -0 0 1
vn -0 0 1
vn -0 0 1
vn -0 0 1
vn -0 0 1
vn -0 0 1
vn -0 0 1
vn -0 0 1
vn -0 0 1
vn -0 0 1
vn -0 0 1
vn -0 0 1
vn -0 0 1
vn -0 0 1
vn -0 0 1
vn -0 0 1
vn -0 0 1
vn -0 0 1
vn -0 0 1
vn -0 0 1
vn -0 0 1
vn -0 0 1
vn -0 0 1
vn -0 0 1
vn -0 0 1
vn -0 0 1
vn -0 0 1
g card_r_0
f 3/3/3 2/2/2 1/1/1
f 1/1/1 2/2/2 4/4/4
f 4/4/4 2/2/2 5/5/5
f 5/5/5 2/2/2 6/6/6
f 6/6/6 2/2/2 7/7/7
f 7/7/7 2/2/2 8/8/8
f 9/9/9 2/2/2 3/3/3
f 8/8/8 2/2/2 10/10/10
f 11/11/11 2/2/2 9/9/9
f 11/11/11 12/12/12 2/2/2
f 13/13/13 11/11/11 9/9/9
f 11/11/11 13/13/13 14/14/14
f 2/2/2 15/15/15 10/10/10
f 12/12/12 15/15/15 2/2/2
f 15/15/15 16/16/16 10/10/10
f 16/16/16 15/15/15 17/17/17
f 18/18/18 11/11/11 14/14/14
f 12/12/12 11/11/11 18/18/18
f 18/18/18 14/14/14 19/19/19
f 18/18/18 19/19/19 20/20/20
f 18/18/18 20/20/20 21/21/21
f 18/18/18 21/21/21 22/22/22
f 18/18/18 22/22/22 23/23/23
f 18/18/18 23/23/23 24/24/24
f 18/18/18 24/24/24 25/25/25
f 18/18/18 25/25/25 26/26/26
f 15/15/15 27/27/27 17/17/17
f 15/15/15 12/12/12 27/27/27
f 27/27/27 28/28/28 17/17/17
f 27/27/27 29/29/29 28/28/28
f 27/27/27 30/30/30 29/29/29
f 27/27/27 31/31/31 30/30/30
f 27/27/27 32/32/32 31/31/31
f 27/27/27 33/33/33 32/32/32
f 27/27/27 34/34/34 33/33/33
f 27/27/27 35/35/35 34/34/34
f 36/36/36 18/18/18 26/26/26
f 36/36/36 12/12/12 18/18/18
f 37/37/37 36/36/36 26/26/26
f 36/36/36 37/37/37 38/38/38
f 27/27/27 39/39/39 35/35/35
f 12/12/12 39/39/39 27/27/27
f 39/39/39 40/40/40 35/35/35
f 40/40/40 39/39/39 41/41/41
f 42/42/42 36/36/36 38/38/38
f 12/12/12 36/36/36 42/42/42
f 39/39/39 12/12/12 42/42/42
f 39/39/39 42/42/42 41/41/41
f 43/43/43 42/42/42 38/38/38
f 41/41/41 42/42/42 44/44/44
f 45/45/45 42/42/42 43/43/43
f 44/44/44 42/42/42 46/46/46
f 47/47/47 42/42/42 45/45/45
f 46/46/46 42/42/42 48/48/48
f 49/49/49 42/42/42 47/47/47
f 48/48/48 42/42/42 49/49/49
