g Card_Geo
v -0.3733376 -0.4955755 -0.042875
v -0.37303978 -0.49582887 -0.042875
v -0.37335002 -0.49491787 -0.042875
v -0.3716981 -0.49576625 -0.042875
v -0.37327844 -0.49358985 -0.042875
v -0.12565431 -0.2820512 -0.042875
v -0.12607948 -0.28158677 -0.042875
v -0.124125995 -0.28250733 -0.042875
v -0.11625785 -0.28253683 -0.042875
v -0.1222023 -0.2824739 -0.042875
v 0.1169286 -0.2824826 -0.042875
v 0.37320668 -0.49574906 -0.042875
v 0.119891874 -0.2824801 -0.042875
v 0.122522116 -0.2824835 -0.042875
v 0.12451475 -0.28248593 -0.042875
v 0.1258168 -0.28249362 -0.042875
v 0.12660652 -0.28227398 -0.042875
v 0.12753674 -0.2812911 -0.042875
v 0.37399957 -0.495014 -0.042875
v -0.2374754 -0.207809 -0.042875
v -0.12640025 -0.28107244 -0.042875
v -0.32811198 -0.2076483 -0.042875
v -0.33058253 -0.207669 -0.042875
v -0.33115107 -0.20762244 -0.042875
v -0.23625271 -0.20774983 -0.042875
v -0.37346783 -0.20463996 -0.042875
v -0.17823532 -0.2053099 -0.042875
v -0.33250064 -0.20692973 -0.042875
v -0.33610997 -0.20328549 -0.042875
v -0.33291543 -0.20639561 -0.042875
v -0.33318922 -0.20582914 -0.042875
v -0.3723493 -0.20322347 -0.042875
v -0.37341064 -0.20351772 -0.042875
v -0.3730509 -0.20322846 -0.042875
v -0.33437645 -0.20417145 -0.042875
v -0.33505628 -0.20359667 -0.042875
v -0.3337272 -0.20481376 -0.042875
v -0.33342552 -0.20527807 -0.042875
v -0.1817027 -0.20325215 -0.042875
v -0.23543434 -0.20681147 -0.042875
v -0.23182257 -0.20325243 -0.042875
v -0.23508124 -0.20591746 -0.042875
v -0.23438387 -0.20481205 -0.042875
v -0.23348291 -0.20382638 -0.042875
v -0.23253755 -0.20330207 -0.042875
v -0.23305957 -0.20348886 -0.042875
v -0.17957823 -0.20386314 -0.042875
v -0.17910767 -0.20421349 -0.042875
v -0.17873813 -0.20457494 -0.042875
v -0.18007013 -0.20351218 -0.042875
v -0.18059438 -0.20329538 -0.042875
v 0.18092972 -0.20350288 -0.042875
v 0.17950787 -0.20496626 -0.042875
v 0.18212245 -0.20325609 -0.042875
v 0.23680952 -0.20739697 -0.042875
v 0.23627226 -0.20680165 -0.042875
v 0.23853453 -0.20761716 -0.042875
v 0.23335885 -0.20329945 -0.042875
v 0.23588136 -0.20550178 -0.042875
v 0.33195487 -0.20759702 -0.042875
v 0.2344368 -0.20381908 -0.042875
v 0.2352875 -0.20449133 -0.042875
v 0.2349216 -0.20413621 -0.042875
v 0.3738552 -0.20324664 -0.042875
v 0.33276266 -0.20731913 -0.042875
v 0.3333027 -0.20675988 -0.042875
v 0.33693245 -0.20325458 -0.042875
v 0.33376884 -0.2056715 -0.042875
v 0.3350278 -0.20419252 -0.042875
v 0.33622983 -0.20330416 -0.042875
v 0.33572772 -0.20350008 -0.042875
v -0.3733606 -0.18565641 -0.043250002
v -0.37227517 -0.18492137 -0.043250002
v -0.37298983 -0.18509576 -0.043250002
v -0.36871868 -0.18508188 -0.043250002
v -0.37344834 -0.22573331 -0.043250002
v -0.3729774 -0.22722255 -0.043250002
v -0.195118 -0.22715178 -0.043250002
v -0.164012 -0.18501052 -0.043250002
v -0.19340457 -0.22768669 -0.043250002
v -0.1927115 -0.22857653 -0.043250002
v -0.14362076 -0.20914803 -0.043250002
v -0.1603771 -0.18531273 -0.043250002
v -0.1610572 -0.18502417 -0.043250002
v -0.14260928 -0.2099256 -0.043250002
v -0.1354937 -0.30918837 -0.043250002
v -0.13028172 -0.31031573 -0.043250002
v -0.13464685 -0.31031027 -0.043250002
v -0.09169105 -0.31039906 -0.043250002
v -0.08958664 -0.3103411 -0.043250002
v -0.08789753 -0.31058478 -0.043250002
v 0.13807794 -0.21017425 -0.043250002
v 0.08789956 -0.310558 -0.043250002
v -0.08653368 -0.31184417 -0.043250002
v 0.08691295 -0.31155714 -0.043250002
v 0.08914861 -0.31037447 -0.043250002
v 0.052533258 -0.3624141 -0.043250002
v -0.04906986 -0.36707702 -0.043250002
v -0.04821909 -0.3676766 -0.043250002
v 0.047760613 -0.36762172 -0.043250002
v 0.04951963 -0.3666478 -0.043250002
v 0.048191797 -0.367469 -0.043250002
v 0.090440564 -0.31044617 -0.043250002
v 0.13645396 -0.30824122 -0.043250002
v 0.13399865 -0.31038496 -0.043250002
v 0.14341454 -0.2098631 -0.043250002
v 0.13566723 -0.30932236 -0.043250002
v 0.13473773 -0.3100665 -0.043250002
v 0.19304614 -0.22835134 -0.043250002
v 0.1627621 -0.18492064 -0.043250002
v 0.1611227 -0.18504213 -0.043250002
v 0.19389883 -0.22730272 -0.043250002
v 0.19513634 -0.2271482 -0.043250002
v 0.37098762 -0.18494856 -0.043250002
v 0.37312922 -0.22724561 -0.043250002
v 0.37403283 -0.22685698 -0.043250002
v 0.3740388 -0.1857111 -0.043250002
v 0.37378022 -0.18518521 -0.043250002
vt 0.8881836 0.019180298
vt 0.8881836 0.01889038
vt 0.8881836 0.019943237
vt 0.88671875 0.018966675
vt 0.8881836 0.021484375
vt 0.6010742 0.2668457
vt 0.6015625 0.26733398
vt 0.5991211 0.26611328
vt 0.58984375 0.26611328
vt 0.5966797 0.26635742
vt 0.31933594 0.26635742
vt 0.021896362 0.018981934
vt 0.31591797 0.26635742
vt 0.31274414 0.26635742
vt 0.31054688 0.26635742
vt 0.30908203 0.26611328
vt 0.30810547 0.26660156
vt 0.3071289 0.26757812
vt 0.020980835 0.019836426
vt 0.73095703 0.3527832
vt 0.6015625 0.26782227
vt 0.8359375 0.35302734
vt 0.8388672 0.35302734
vt 0.83935547 0.35302734
vt 0.7294922 0.3527832
vt 0.8886719 0.3564453
vt 0.6621094 0.3557129
vt 0.8408203 0.35375977
vt 0.84521484 0.3581543
vt 0.8413086 0.3544922
vt 0.8417969 0.3552246
vt 0.88720703 0.3581543
vt 0.8886719 0.35791016
vt 0.8881836 0.3581543
vt 0.8432617 0.3569336
vt 0.84375 0.35766602
vt 0.84228516 0.35620117
vt 0.84228516 0.3557129
vt 0.6660156 0.3581543
vt 0.7285156 0.3540039
vt 0.7241211 0.3581543
vt 0.72802734 0.35498047
vt 0.7270508 0.35620117
vt 0.7260742 0.35742188
vt 0.72509766 0.3581543
vt 0.72558594 0.35791016
vt 0.6635742 0.35742188
vt 0.66308594 0.3569336
vt 0.66259766 0.3564453
vt 0.6640625 0.35791016
vt 0.6645508 0.3581543
vt 0.24511719 0.35791016
vt 0.2467041 0.35620117
vt 0.24365234 0.3581543
vt 0.18017578 0.35327148
vt 0.18078613 0.3540039
vt 0.17822266 0.35302734
vt 0.1842041 0.3581543
vt 0.18127441 0.35546875
vt 0.06976318 0.35302734
vt 0.1829834 0.35742188
vt 0.18200684 0.35668945
vt 0.18237305 0.35717773
vt 0.021148682 0.3581543
vt 0.068847656 0.35327148
vt 0.068237305 0.3540039
vt 0.06402588 0.3581543
vt 0.06768799 0.3552246
vt 0.066223145 0.3569336
vt 0.064819336 0.3581543
vt 0.06536865 0.35791016
vt 0.8886719 0.4975586
vt 0.88720703 0.49853516
vt 0.8881836 0.49829102
vt 0.8833008 0.49829102
vt 0.8886719 0.45117188
vt 0.8881836 0.4494629
vt 0.6816406 0.4494629
vt 0.6455078 0.49829102
vt 0.6796875 0.4489746
vt 0.67871094 0.4477539
vt 0.62158203 0.47045898
vt 0.6411133 0.49804688
vt 0.64208984 0.49829102
vt 0.62060547 0.46948242
vt 0.6123047 0.35424805
vt 0.6064453 0.35302734
vt 0.6113281 0.35302734
vt 0.56152344 0.35302734
vt 0.55908203 0.35302734
vt 0.5571289 0.3527832
vt 0.29467773 0.46923828
vt 0.35302734 0.3527832
vt 0.55566406 0.35131836
vt 0.35424805 0.3515625
vt 0.3515625 0.35302734
vt 0.39404297 0.2927246
vt 0.51220703 0.28710938
vt 0.51123047 0.2866211
vt 0.3996582 0.2866211
vt 0.39770508 0.28759766
vt 0.39916992 0.28686523
vt 0.35009766 0.3527832
vt 0.29663086 0.35546875
vt 0.29956055 0.35302734
vt 0.28857422 0.46948242
vt 0.29760742 0.35424805
vt 0.29858398 0.35327148
vt 0.23095703 0.44799805
vt 0.26611328 0.49853516
vt 0.2680664 0.49829102
vt 0.22998047 0.44921875
vt 0.22851562 0.4494629
vt 0.024383545 0.49853516
vt 0.021896362 0.4494629
vt 0.020843506 0.44970703
vt 0.020843506 0.4975586
vt 0.021148682 0.49804688
vn -0 0 -1
vn -0 0 -1
vn -0 0 -1
vn -0 0 -1
vn -0 0 -1
vn -0 0 -1
vn -0 0 -1
vn -0 0 -1
vn -0 0 -1
vn -0 0 -1
vn -0 0 -1
vn -0 0 -1
vn -0 0 -1
vn -0 0 -1
vn -0 0 -1
vn -0 0 -1
vn -0 0 -1
vn -0 0 -1
vn -0 0 -1
vn -0 0 -1
vn -0 0 -1
vn -0 0 -1
vn -0 0 -1
vn -0 0 -1
vn -0 0 -1
vn -0 0 -1
vn -0 0 -1
vn -0 0 -1
vn -0 0 -1
vn -0 0 -1
vn -0 0 -1
vn -0 0 -1
vn -0 0 -1
vn -0 0 -1
vn -0 0 -1
vn -0 0 -1
vn -0 0 -1
vn -0 0 -1
vn -0 0 -1
vn -0 0 -1
vn -0 0 -1
vn -0 0 -1
vn -0 0 -1
vn -0 0 -1
vn -0 0 -1
vn -0 0 -1
vn -0 0 -1
vn -0 0 -1
vn -0 0 -1
vn -0 0 -1
vn -0 0 -1
vn -0 0 -1
vn -0 0 -1
vn -0 0 -1
vn -0 0 -1
vn -0 0 -1
vn -0 0 -1
vn -0 0 -1
vn -0 0 -1
vn -0 0 -1
vn -0 0 -1
vn -0 0 -1
vn -0 0 -1
vn -0 0 -1
vn -0 0 -1
vn -0 0 -1
vn -0 0 -1
vn -0 0 -1
vn -0 0 -1
vn -0 0 -1
vn -0 0 -1
vn -0 0 -1
vn -0 0 -1
vn -0 0 -1
vn -0 0 -1
vn -0 0 -1
vn -0 0 -1
vn -0 0 -1
vn -0 0 -1
vn -0 0 -1
vn -0 0 -1
vn -0 0 -1
vn -0 0 -1
vn -0 0 -1
vn -0 0 -1
vn -0 0 -1
vn -0 0 -1
vn -0 0 -1
vn -0 0 -1
vn -0 0 -1
vn -0 0 -1
vn -0 0 -1
vn -0 0 -1
vn -0 0 -1
vn -0 0 -1
vn -0 0 -1
vn -0 0 -1
vn -0 0 -1
vn -0 0 -1
vn -0 0 -1
vn -0 0 -1
vn -0 0 -1
vn -0 0 -1
vn -0 0 -1
vn -0 0 -1
vn -0 0 -1
vn -0 0 -1
vn -0 0 -1
vn -0 0 -1
vn -0 0 -1
vn -0 0 -1
vn -0 0 -1
vn -0 0 -1
vn -0 0 -1
vn -0 0 -1
vn -0 0 -1
vn -0 0 -1
vn -0 0 -1
g Card_Geo_0
f 3/3/3 2/2/2 1/1/1
f 3/3/3 4/4/4 2/2/2
f 5/5/5 4/4/4 3/3/3
f 6/6/6 4/4/4 5/5/5
f 7/7/7 6/6/6 5/5/5
f 6/6/6 8/8/8 4/4/4
f 8/8/8 9/9/9 4/4/4
f 10/10/10 9/9/9 8/8/8
f 9/9/9 11/11/11 4/4/4
f 4/4/4 11/11/11 12/12/12
f 11/11/11 13/13/13 12/12/12
f 13/13/13 14/14/14 12/12/12
f 14/14/14 15/15/15 12/12/12
f 15/15/15 16/16/16 12/12/12
f 16/16/16 17/17/17 12/12/12
f 17/17/17 18/18/18 12/12/12
f 18/18/18 19/19/19 12/12/12
f 7/7/7 5/5/5 20/20/20
f 7/7/7 20/20/20 21/21/21
f 20/20/20 5/5/5 22/22/22
f 22/22/22 5/5/5 23/23/23
f 23/23/23 5/5/5 24/24/24
f 20/20/20 25/25/25 21/21/21
f 24/24/24 5/5/5 26/26/26
f 21/21/21 25/25/25 27/27/27
f 28/28/28 24/24/24 26/26/26
f 28/28/28 26/26/26 29/29/29
f 30/30/30 28/28/28 29/29/29
f 31/31/31 30/30/30 29/29/29
f 29/29/29 26/26/26 32/32/32
f 33/33/33 32/32/32 26/26/26
f 34/34/34 32/32/32 33/33/33
f 31/31/31 29/29/29 35/35/35
f 35/35/35 29/29/29 36/36/36
f 31/31/31 35/35/35 37/37/37
f 38/38/38 31/31/31 37/37/37
f 25/25/25 39/39/39 27/27/27
f 25/25/25 40/40/40 39/39/39
f 39/39/39 40/40/40 41/41/41
f 41/41/41 40/40/40 42/42/42
f 41/41/41 42/42/42 43/43/43
f 41/41/41 43/43/43 44/44/44
f 44/44/44 45/45/45 41/41/41
f 44/44/44 46/46/46 45/45/45
f 27/27/27 39/39/39 47/47/47
f 47/47/47 48/48/48 27/27/27
f 27/27/27 48/48/48 49/49/49
f 39/39/39 50/50/50 47/47/47
f 50/50/50 39/39/39 51/51/51
f 54/54/54 53/53/53 52/52/52
f 54/54/54 55/55/55 53/53/53
f 53/53/53 55/55/55 18/18/18
f 56/56/56 55/55/55 54/54/54
f 55/55/55 57/57/57 18/18/18
f 58/58/58 56/56/56 54/54/54
f 57/57/57 19/19/19 18/18/18
f 59/59/59 56/56/56 58/58/58
f 60/60/60 19/19/19 57/57/57
f 59/59/59 58/58/58 61/61/61
f 59/59/59 61/61/61 62/62/62
f 61/61/61 63/63/63 62/62/62
f 64/64/64 19/19/19 60/60/60
f 64/64/64 60/60/60 65/65/65
f 64/64/64 65/65/65 66/66/66
f 64/64/64 66/66/66 67/67/67
f 66/66/66 68/68/68 67/67/67
f 68/68/68 69/69/69 67/67/67
f 69/69/69 70/70/70 67/67/67
f 69/69/69 71/71/71 70/70/70
g Card_Geo_1
f 74/74/74 73/73/73 72/72/72
f 73/73/73 75/75/75 72/72/72
f 72/72/72 75/75/75 76/76/76
f 76/76/76 75/75/75 77/77/77
f 77/77/77 75/75/75 78/78/78
f 75/75/75 79/79/79 78/78/78
f 78/78/78 79/79/79 80/80/80
f 80/80/80 79/79/79 81/81/81
f 79/79/79 82/82/82 81/81/81
f 83/83/83 82/82/82 79/79/79
f 83/83/83 79/79/79 84/84/84
f 82/82/82 85/85/85 81/81/81
f 81/81/81 85/85/85 86/86/86
f 85/85/85 87/87/87 86/86/86
f 86/86/86 87/87/87 88/88/88
f 85/85/85 89/89/89 87/87/87
f 85/85/85 90/90/90 89/89/89
f 85/85/85 91/91/91 90/90/90
f 85/85/85 92/92/92 91/91/91
f 93/93/93 91/91/91 92/92/92
f 94/94/94 91/91/91 93/93/93
f 93/93/93 95/95/95 94/94/94
f 96/96/96 93/93/93 92/92/92
f 97/97/97 94/94/94 95/95/95
f 94/94/94 97/97/97 98/98/98
f 97/97/97 99/99/99 98/98/98
f 97/97/97 100/100/100 99/99/99
f 101/101/101 100/100/100 97/97/97
f 102/102/102 100/100/100 101/101/101
f 103/103/103 96/96/96 92/92/92
f 104/104/104 103/103/103 92/92/92
f 105/105/105 103/103/103 104/104/104
f 106/106/106 104/104/104 92/92/92
f 107/107/107 105/105/105 104/104/104
f 108/108/108 105/105/105 107/107/107
f 109/109/109 104/104/104 106/106/106
f 110/110/110 109/109/109 106/106/106
f 110/110/110 106/106/106 111/111/111
f 112/112/112 109/109/109 110/110/110
f 113/113/113 112/112/112 110/110/110
f 113/113/113 110/110/110 114/114/114
f 115/115/115 113/113/113 114/114/114
f 116/116/116 115/115/115 114/114/114
f 116/116/116 114/114/114 117/117/117
f 117/117/117 114/114/114 118/118/118
