g Card_F_V02
v -0 0.023749383 -0.0050000004
v -0.266 0.35444435 -0.0050000004
v -0.266 0.023749383 -0.0050000004
v -0 0.35444435 -0.0050000004
v 0.266 0.023749383 -0.0050000004
v 0.266 0.35444435 -0.0050000004
v 0.31500003 -0.40500003 -0.0050000004
v 0.31500003 -0.3 -0.0050000004
v 0.28000003 -0.3 -0.0050000004
v 0.31500003 -0.2 -0.0050000004
v 0.28000003 -0.40500003 -0.0050000004
v 0.31500003 -0.4196938 -0.0050000004
v 0.31297308 -0.42540237 -0.0050000004
v 0.30973503 -0.43030095 -0.0050000004
v 0.3053689 -0.43488383 -0.0050000004
v 0.2997864 -0.4381034 -0.0050000004
v 0.29400548 -0.43995205 -0.0050000004
v 0.28000003 -0.44000003 -0.0050000004
v 0.266 -0.44000003 -0.0050000004
v 0.266 -0.40500003 -0.0050000004
v 0.2 -0.44000003 -0.0050000004
v 0.28000003 -0.2 -0.0050000004
v 0.31500003 -0.1 -0.0050000004
v 0.2 -0.40500003 -0.0050000004
v 0.1 -0.44000003 -0.0050000004
v 0.266 -0.2 -0.0050000004
v 0.28000003 -0.1 -0.0050000004
v 0.31500003 1.9949322E-19 -0.0050000004
v 0.1 -0.40500003 -0.0050000004
v -0 -0.44000003 -0.0050000004
v 0.2 -0.2 -0.0050000004
v 0.266 0 -0.0050000004
v 0.28000003 0 -0.0050000004
v 0.31500003 0.023749383 -0.0050000004
v 0.28000003 0.023749383 -0.0050000004
v 0.31500003 0.1 -0.0050000004
v -0 -0.40500003 -0.0050000004
v -0.1 -0.44000003 -0.0050000004
v -0 -0.2 -0.0050000004
v -0.1 -0.40500003 -0.0050000004
v -0.2 -0.44000003 -0.0050000004
v 0.2 0 -0.0050000004
v 0.28000003 0.1 -0.0050000004
v 0.31500003 0.2 -0.0050000004
v 0.266 0.023749383 -0.0050000004
v 0.28000003 0.2 -0.0050000004
v 0.266 0.35444435 -0.0050000004
v 0.31500003 0.3 -0.0050000004
v -0 0.023749383 -0.0050000004
v 0.28000003 0.3 -0.0050000004
v 0.31500003 0.35444435 -0.0050000004
v 0.28000003 0.35444435 -0.0050000004
v 0.31500003 0.40500003 -0.0050000004
v 0.28000003 0.40500003 -0.0050000004
v 0.31500003 0.4196938 -0.0050000004
v 0.31297308 0.42540237 -0.0050000004
v 0.30973503 0.43030095 -0.0050000004
v 0.3053689 0.43488383 -0.0050000004
v 0.2997864 0.4381034 -0.0050000004
v 0.29400548 0.43995205 -0.0050000004
v 0.28000003 0.44000003 -0.0050000004
v 0.266 0.40500003 -0.0050000004
v 0.266 0.44000003 -0.0050000004
v 0.2 0.40500003 -0.0050000004
v 0.2 0.44000003 -0.0050000004
v 0.1 0.40500003 -0.0050000004
v 0.1 0.44000003 -0.0050000004
v -0 0.35444435 -0.0050000004
v -0 0.40500003 -0.0050000004
v -0 0.44000003 -0.0050000004
v -0.1 0.40500003 -0.0050000004
v -0.1 0.44000003 -0.0050000004
v -0.266 0.35444435 -0.0050000004
v -0.2 0.40500003 -0.0050000004
v -0.2 0.44000003 -0.0050000004
v -0.266 0.40500003 -0.0050000004
v -0.266 0.44000003 -0.0050000004
v -0.28000003 0.40500003 -0.0050000004
v -0.28000003 0.44000003 -0.0050000004
v -0.29400548 0.43995205 -0.0050000004
v -0.2997864 0.4381034 -0.0050000004
v -0.3053689 0.43488383 -0.0050000004
v -0.30973503 0.43030095 -0.0050000004
v -0.31297308 0.42540237 -0.0050000004
v -0.31500003 0.4196938 -0.0050000004
v -0.31500003 0.40500003 -0.0050000004
v -0.31500003 0.35444435 -0.0050000004
v -0.28000003 0.35444435 -0.0050000004
v -0.31500003 0.3 -0.0050000004
v -0.28000003 0.3 -0.0050000004
v -0.31500003 0.2 -0.0050000004
v -0.28000003 0.2 -0.0050000004
v -0.31500003 0.1 -0.0050000004
v -0.266 0.023749383 -0.0050000004
v -0.28000003 0.1 -0.0050000004
v -0.31500003 0.023749383 -0.0050000004
v -0.28000003 0.023749383 -0.0050000004
v -0.31500003 0 -0.0050000004
v -0.28000003 0 -0.0050000004
v -0.31500003 -0.1 -0.0050000004
v -0.28000003 -0.1 -0.0050000004
v -0.31500003 -0.2 -0.0050000004
v -0.266 0 -0.0050000004
v -0.28000003 -0.2 -0.0050000004
v -0.31500003 -0.3 -0.0050000004
v -0.2 0 -0.0050000004
v -0.266 -0.2 -0.0050000004
v -0.28000003 -0.3 -0.0050000004
v -0.31500003 -0.40500003 -0.0050000004
v -0.28000003 -0.40500003 -0.0050000004
v -0.31507012 -0.4196938 -0.0050000004
v -0.31297308 -0.42540237 -0.0050000004
v -0.30973503 -0.43030095 -0.0050000004
v -0.3053689 -0.43488383 -0.0050000004
v -0.2997864 -0.4381034 -0.0050000004
v -0.29400548 -0.43995205 -0.0050000004
v -0.28000003 -0.44000003 -0.0050000004
v -0.266 -0.40500003 -0.0050000004
v -0.266 -0.44000003 -0.0050000004
v -0.2 -0.2 -0.0050000004
v -0.2 -0.40500003 -0.0050000004
v -0 0 -0.0050000004
v 0.28000003 -0.44000003 0.0050000004
v 0.266 -0.44000003 0.0050000004
v 0.266 -0.40500003 0.0050000004
v 0.2 -0.44000003 0.0050000004
v 0.28000003 -0.40500003 0.0050000004
v 0.29400548 -0.43995205 0.0050000004
v 0.2997864 -0.4381034 0.0050000004
v 0.3053689 -0.43488383 0.0050000004
v 0.30973503 -0.43030095 0.0050000004
v 0.31297308 -0.42540237 0.0050000004
v 0.31500003 -0.4196938 0.0050000004
v 0.31500003 -0.40500003 0.0050000004
v 0.31500003 -0.3 0.0050000004
v 0.28000003 -0.3 0.0050000004
v 0.31500003 -0.2 0.0050000004
v 0.2 -0.40500003 0.0050000004
v 0.1 -0.44000003 0.0050000004
v 0.28000003 -0.2 0.0050000004
v 0.31500003 -0.1 0.0050000004
v 0.266 -0.2 0.0050000004
v 0.28000003 -0.1 0.0050000004
v 0.31500003 1.9949322E-19 0.0050000004
v 0.1 -0.40500003 0.0050000004
v -0 -0.44000003 0.0050000004
v 0.2 -0.2 0.0050000004
v 0.28000003 0 0.0050000004
v 0.31500003 0.023699999 0.0050000004
v 0.266 0 0.0050000004
v 0.28000003 0.023699999 0.0050000004
v 0.31500003 0.1 0.0050000004
v -0 -0.40500003 0.0050000004
v -0.1 -0.44000003 0.0050000004
v -0 -0.2 0.0050000004
v -0.1 -0.40500003 0.0050000004
v -0.2 -0.44000003 0.0050000004
v 0.2 0 0.0050000004
v 0.28000003 0.1 0.0050000004
v 0.31500003 0.2 0.0050000004
v 0.266 0.023699999 0.0050000004
v -0.2 -0.40500003 0.0050000004
v -0.266 -0.44000003 0.0050000004
v -0.2 -0.2 0.0050000004
v -0.266 -0.40500003 0.0050000004
v -0.28000003 -0.44000003 0.0050000004
v -0.28000003 -0.40500003 0.0050000004
v -0.29400548 -0.43995205 0.0050000004
v -0.2997864 -0.4381034 0.0050000004
v -0.3053689 -0.43488383 0.0050000004
v -0.30973503 -0.43030095 0.0050000004
v -0.31297308 -0.42540237 0.0050000004
v -0.31507012 -0.4196938 0.0050000004
v -0.31500003 -0.40500003 0.0050000004
v -0.28000003 -0.3 0.0050000004
v -0.31500003 -0.3 0.0050000004
v -0.266 -0.2 0.0050000004
v -0.28000003 -0.2 0.0050000004
v -0.31500003 -0.2 0.0050000004
v -0.28000003 -0.1 0.0050000004
v -0.31500003 -0.1 0.0050000004
v -0.28000003 0 0.0050000004
v -0.31500003 0 0.0050000004
v -0.266 0 0.0050000004
v -0.2 0 0.0050000004
v -0.28000003 0.023699999 0.0050000004
v -0.31500003 0.023699999 0.0050000004
v -0.266 0.023699999 0.0050000004
v -0.28000003 0.1 0.0050000004
v -0.31500003 0.1 0.0050000004
v -0.28000003 0.2 0.0050000004
v -0.31500003 0.2 0.0050000004
v -0.266 0.2 0.0050000004
v -0.28000003 0.3 0.0050000004
v -0.31500003 0.3 0.0050000004
v -0.2 0.023699999 0.0050000004
v -0.28000003 0.3544 0.0050000004
v -0.31500003 0.3544 0.0050000004
v -0.2 0.2 0.0050000004
v -0.266 0.35439998 0.0050000004
v -0.28000003 0.40500003 0.0050000004
v -0.31500003 0.40500003 0.0050000004
v -0.31500003 0.4196938 0.0050000004
v -0.31297308 0.42540237 0.0050000004
v -0.30973503 0.43030095 0.0050000004
v -0.3053689 0.43488383 0.0050000004
v -0.2997864 0.4381034 0.0050000004
v -0.29400548 0.43995205 0.0050000004
v -0.28000003 0.44000003 0.0050000004
v -0.266 0.44000003 0.0050000004
v -0.266 0.40500003 0.0050000004
v -0.2 0.44000003 0.0050000004
v -0.2 0.40500003 0.0050000004
v -0.1 0.44000003 0.0050000004
v -0.2 0.35439998 0.0050000004
v -0.1 0.40500003 0.0050000004
v -0 0.44000003 0.0050000004
v -0 0.35439998 0.0050000004
v -0 0.40500003 0.0050000004
v 0.1 0.44000003 0.0050000004
v 0.1 0.40500003 0.0050000004
v 0.2 0.44000003 0.0050000004
v -0 0.2 0.0050000004
v 0.2 0.40500003 0.0050000004
v 0.266 0.44000003 0.0050000004
v 0.2 0.3544 0.0050000004
v 0.266 0.40500003 0.0050000004
v 0.28000003 0.44000003 0.0050000004
v 0.28000003 0.40500003 0.0050000004
v 0.29400548 0.43995205 0.0050000004
v 0.2997864 0.4381034 0.0050000004
v 0.3053689 0.43488383 0.0050000004
v 0.30973503 0.43030095 0.0050000004
v 0.31297308 0.42540237 0.0050000004
v 0.31500003 0.4196938 0.0050000004
v 0.31500003 0.40500003 0.0050000004
v 0.266 0.3544 0.0050000004
v 0.28000003 0.3544 0.0050000004
v 0.31500003 0.3544 0.0050000004
v 0.28000003 0.3 0.0050000004
v 0.31500003 0.3 0.0050000004
v 0.2 0.2 0.0050000004
v 0.266 0.2 0.0050000004
v 0.28000003 0.2 0.0050000004
v 0.2 0.023699999 0.0050000004
v -0 0.023699999 0.0050000004
v -0 0 0.0050000004
v 0.31500003 0.40500003 -0.0050000004
v 0.31500003 0.40500003 0.0050000004
v 0.31500003 0.4196938 0.0050000004
v 0.31500003 0.4196938 -0.0050000004
v 0.31297308 0.42540237 0.0050000004
v 0.31297308 0.42540237 -0.0050000004
v 0.30973503 0.43030095 0.0050000004
v 0.30973503 0.43030095 -0.0050000004
v 0.3053689 0.43488383 0.0050000004
v 0.3053689 0.43488383 -0.0050000004
v 0.2997864 0.4381034 0.0050000004
v 0.2997864 0.4381034 -0.0050000004
v 0.29400548 0.43995205 0.0050000004
v 0.29400548 0.43995205 -0.0050000004
v 0.28000003 0.44000003 0.0050000004
v 0.28000003 0.44000003 -0.0050000004
v 0.266 0.44000003 -0.0050000004
v 0.266 0.44000003 0.0050000004
v 0.2 0.44000003 -0.0050000004
v 0.2 0.44000003 0.0050000004
v 0.1 0.44000003 -0.0050000004
v 0.1 0.44000003 0.0050000004
v -0 0.44000003 -0.0050000004
v -0 0.44000003 0.0050000004
v -0.1 0.44000003 -0.0050000004
v -0.1 0.44000003 0.0050000004
v -0.2 0.44000003 -0.0050000004
v -0.2 0.44000003 0.0050000004
v -0.266 0.44000003 0.0050000004
v -0.266 0.44000003 -0.0050000004
v -0.28000003 0.44000003 0.0050000004
v -0.28000003 0.44000003 -0.0050000004
v -0.29400548 0.43995205 -0.0050000004
v -0.29400548 0.43995205 0.0050000004
v -0.2997864 0.4381034 -0.0050000004
v -0.2997864 0.4381034 0.0050000004
v -0.3053689 0.43488383 -0.0050000004
v -0.3053689 0.43488383 0.0050000004
v -0.30973503 0.43030095 -0.0050000004
v -0.30973503 0.43030095 0.0050000004
v -0.31297308 0.42540237 -0.0050000004
v -0.31297308 0.42540237 0.0050000004
v -0.31500003 0.4196938 -0.0050000004
v -0.31500003 0.4196938 0.0050000004
v -0.31500003 0.40500003 -0.0050000004
v -0.31500003 0.40500003 0.0050000004
v -0.31500003 0.35444435 -0.0050000004
v -0.31500003 0.3544 0.0050000004
v -0.31500003 0.3 -0.0050000004
v -0.31500003 0.3 0.0050000004
v -0.31500003 0.2 -0.0050000004
v -0.31500003 0.2 0.0050000004
v -0.31500003 0.1 -0.0050000004
v -0.31500003 0.1 0.0050000004
v -0.31500003 0.023749383 -0.0050000004
v -0.31500003 0.023699999 0.0050000004
v -0.31500003 0 -0.0050000004
v -0.31500003 0 0.0050000004
v -0.31500003 -0.1 -0.0050000004
v -0.31500003 -0.1 0.0050000004
v -0.31500003 -0.2 -0.0050000004
v -0.31500003 -0.2 0.0050000004
v -0.31500003 -0.3 -0.0050000004
v -0.31500003 -0.3 0.0050000004
v -0.31500003 -0.40500003 -0.0050000004
v -0.31500003 -0.40500003 0.0050000004
v -0.31507012 -0.4196938 0.0050000004
v -0.31507012 -0.4196938 -0.0050000004
v -0.31297308 -0.42540237 0.0050000004
v -0.31297308 -0.42540237 -0.0050000004
v -0.30973503 -0.43030095 0.0050000004
v -0.30973503 -0.43030095 -0.0050000004
v -0.3053689 -0.43488383 0.0050000004
v -0.3053689 -0.43488383 -0.0050000004
v -0.2997864 -0.4381034 0.0050000004
v -0.2997864 -0.4381034 -0.0050000004
v -0.29400548 -0.43995205 0.0050000004
v -0.29400548 -0.43995205 -0.0050000004
v -0.28000003 -0.44000003 0.0050000004
v -0.28000003 -0.44000003 -0.0050000004
v -0.266 -0.44000003 0.0050000004
v -0.266 -0.44000003 -0.0050000004
v -0.2 -0.44000003 0.0050000004
v -0.2 -0.44000003 -0.0050000004
v -0.1 -0.44000003 -0.0050000004
v -0.1 -0.44000003 0.0050000004
v -0 -0.44000003 -0.0050000004
v -0 -0.44000003 0.0050000004
v 0.1 -0.44000003 -0.0050000004
v 0.1 -0.44000003 0.0050000004
v 0.2 -0.44000003 -0.0050000004
v 0.2 -0.44000003 0.0050000004
v 0.266 -0.44000003 -0.0050000004
v 0.266 -0.44000003 0.0050000004
v 0.28000003 -0.44000003 -0.0050000004
v 0.28000003 -0.44000003 0.0050000004
v 0.29400548 -0.43995205 -0.0050000004
v 0.29400548 -0.43995205 0.0050000004
v 0.2997864 -0.4381034 -0.0050000004
v 0.2997864 -0.4381034 0.0050000004
v 0.3053689 -0.43488383 -0.0050000004
v 0.3053689 -0.43488383 0.0050000004
v 0.30973503 -0.43030095 -0.0050000004
v 0.30973503 -0.43030095 0.0050000004
v 0.31297308 -0.42540237 -0.0050000004
v 0.31297308 -0.42540237 0.0050000004
v 0.31500003 -0.4196938 -0.0050000004
v 0.31500003 -0.4196938 0.0050000004
v 0.31500003 -0.40500003 -0.0050000004
v 0.31500003 -0.40500003 0.0050000004
v 0.31500003 -0.3 -0.0050000004
v 0.31500003 -0.3 0.0050000004
v 0.31500003 -0.2 -0.0050000004
v 0.31500003 -0.2 0.0050000004
v 0.31500003 -0.1 -0.0050000004
v 0.31500003 -0.1 0.0050000004
v 0.31500003 1.9949322E-19 -0.0050000004
v 0.31500003 1.9949322E-19 0.0050000004
v 0.31500003 0.023699999 0.0050000004
v 0.31500003 0.023749383 -0.0050000004
v 0.31500003 0.1 0.0050000004
v 0.31500003 0.1 -0.0050000004
v 0.31500003 0.2 -0.0050000004
v 0.31500003 0.2 0.0050000004
v 0.31500003 0.3 -0.0050000004
v 0.31500003 0.3 0.0050000004
v 0.31500003 0.3544 0.0050000004
v 0.31500003 0.35444435 -0.0050000004
v 0.31500003 0.40500003 0.0050000004
v 0.31500003 0.40500003 -0.0050000004
vt 0.5 0.52685547
vt 0.9223633 0.90283203
vt 0.9223633 0.52685547
vt 0.5 0.90283203
vt 0.07775879 0.52685547
vt 0.07775879 0.90283203
vt 0 0.039764404
vt 0 0.15905762
vt 0.055541992 0.15905762
vt 0 0.27270508
vt 0.055541992 0.039764404
vt 0 0.023071289
vt 0.0032176971 0.016586304
vt 0.008354187 0.011024475
vt 0.015289307 0.0058135986
vt 0.024139404 0.002155304
vt 0.033325195 5.4478645E-05
vt 0.055541992 0
vt 0.07775879 0
vt 0.07775879 0.039764404
vt 0.18249512 0
vt 0.055541992 0.27270508
vt 0 0.3864746
vt 0.18249512 0.039764404
vt 0.3413086 0
vt 0.07775879 0.27270508
vt 0.055541992 0.3864746
vt 0 0.5
vt 0.3413086 0.039764404
vt 0.5 0
vt 0.18249512 0.27270508
vt 0.07775879 0.5
vt 0.055541992 0.5
vt 0 0.52685547
vt 0.055541992 0.52685547
vt 0 0.61376953
vt 0.5 0.039764404
vt 0.6586914 0
vt 0.5 0.27270508
vt 0.6586914 0.039764404
vt 0.8173828 0
vt 0.18249512 0.5
vt 0.055541992 0.61376953
vt 0 0.7270508
vt 0.07775879 0.52685547
vt 0.055541992 0.7270508
vt 0.07775879 0.90283203
vt 0 0.8408203
vt 0.5 0.52685547
vt 0.055541992 0.8408203
vt 0 0.90283203
vt 0.055541992 0.90283203
vt 0 0.9604492
vt 0.055541992 0.9604492
vt 0 0.9770508
vt 0.0032176971 0.98339844
vt 0.008354187 0.98876953
vt 0.015289307 0.9941406
vt 0.024139404 0.9980469
vt 0.033325195 1
vt 0.055541992 1
vt 0.07775879 0.9604492
vt 0.07775879 1
vt 0.18249512 0.9604492
vt 0.18249512 1
vt 0.3413086 0.9604492
vt 0.3413086 1
vt 0.5 0.90283203
vt 0.5 0.9604492
vt 0.5 1
vt 0.6586914 0.9604492
vt 0.6586914 1
vt 0.9223633 0.90283203
vt 0.8173828 0.9604492
vt 0.8173828 1
vt 0.9223633 0.9604492
vt 0.9223633 1
vt 0.94433594 0.9604492
vt 0.94433594 1
vt 0.9667969 1
vt 0.97558594 0.9980469
vt 0.984375 0.9941406
vt 0.9916992 0.98876953
vt 0.99658203 0.98339844
vt 1 0.9770508
vt 1 0.9604492
vt 1 0.90283203
vt 0.94433594 0.90283203
vt 1 0.8408203
vt 0.94433594 0.8408203
vt 1 0.7270508
vt 0.94433594 0.7270508
vt 1 0.61376953
vt 0.9223633 0.52685547
vt 0.94433594 0.61376953
vt 1 0.52685547
vt 0.94433594 0.52685547
vt 1 0.5
vt 0.94433594 0.5
vt 1 0.3864746
vt 0.94433594 0.3864746
vt 1 0.27270508
vt 0.9223633 0.5
vt 0.94433594 0.27270508
vt 1 0.15905762
vt 0.8173828 0.5
vt 0.9223633 0.27270508
vt 0.94433594 0.15905762
vt 1 0.039764404
vt 0.94433594 0.039764404
vt 1 0.023071289
vt 0.99658203 0.016586304
vt 0.9916992 0.011024475
vt 0.984375 0.0058135986
vt 0.97558594 0.002155304
vt 0.9667969 5.4478645E-05
vt 0.94433594 0
vt 0.9223633 0.039764404
vt 0.9223633 0
vt 0.8173828 0.27270508
vt 0.8173828 0.039764404
vt 0.5 0.5
vt 0.94433594 0
vt 0.9223633 0
vt 0.9223633 0.039764404
vt 0.8173828 0
vt 0.94433594 0.039764404
vt 0.9667969 5.4478645E-05
vt 0.9760742 0.002155304
vt 0.9848633 0.0058135986
vt 0.9916992 0.011024475
vt 0.99658203 0.016586304
vt 1 0.023071289
vt 1 0.039764404
vt 1 0.15905762
vt 0.94433594 0.15905762
vt 1 0.27270508
vt 0.8173828 0.039764404
vt 0.6586914 0
vt 0.94433594 0.27270508
vt 1 0.3864746
vt 0.9223633 0.27270508
vt 0.94433594 0.3864746
vt 1 0.5
vt 0.6586914 0.039764404
vt 0.5 0
vt 0.8173828 0.27270508
vt 0.94433594 0.5
vt 1 0.52685547
vt 0.9223633 0.5
vt 0.94433594 0.52685547
vt 1 0.61376953
vt 0.5 0.039764404
vt 0.3413086 0
vt 0.5 0.27270508
vt 0.3413086 0.039764404
vt 0.18261719 0
vt 0.8173828 0.5
vt 0.94433594 0.61376953
vt 1 0.7270508
vt 0.9223633 0.52685547
vt 0.18261719 0.039764404
vt 0.07788086 0
vt 0.18261719 0.27270508
vt 0.07788086 0.039764404
vt 0.055664062 0
vt 0.055664062 0.039764404
vt 0.033447266 5.4478645E-05
vt 0.024261475 0.002155304
vt 0.015396118 0.0058135986
vt 0.008468628 0.011024475
vt 0.0033283234 0.016586304
vt 0 0.023071289
vt 0.00011122227 0.039764404
vt 0.055664062 0.15905762
vt 0.00011122227 0.15905762
vt 0.07788086 0.27270508
vt 0.055664062 0.27270508
vt 0.00011122227 0.27270508
vt 0.055664062 0.3864746
vt 0.00011122227 0.3864746
vt 0.055664062 0.5
vt 0.00011122227 0.5
vt 0.07788086 0.5
vt 0.18261719 0.5
vt 0.055664062 0.52685547
vt 0.00011122227 0.52685547
vt 0.07788086 0.52685547
vt 0.055664062 0.61376953
vt 0.00011122227 0.61376953
vt 0.055664062 0.7270508
vt 0.00011122227 0.7270508
vt 0.07788086 0.7270508
vt 0.055664062 0.8408203
vt 0.00011122227 0.8408203
vt 0.18261719 0.52685547
vt 0.055664062 0.90283203
vt 0.00011122227 0.90283203
vt 0.18261719 0.7270508
vt 0.07788086 0.90283203
vt 0.055664062 0.9604492
vt 0.00011122227 0.9604492
vt 0.00011122227 0.9770508
vt 0.0033283234 0.98339844
vt 0.008468628 0.98876953
vt 0.015396118 0.9941406
vt 0.024261475 0.9980469
vt 0.033447266 1
vt 0.055664062 1
vt 0.07788086 1
vt 0.07788086 0.9604492
vt 0.18261719 1
vt 0.18261719 0.9604492
vt 0.3413086 1
vt 0.18261719 0.90283203
vt 0.3413086 0.9604492
vt 0.5 1
vt 0.5 0.90283203
vt 0.5 0.9604492
vt 0.6586914 1
vt 0.6586914 0.9604492
vt 0.8173828 1
vt 0.5 0.7270508
vt 0.8173828 0.9604492
vt 0.9223633 1
vt 0.8173828 0.90283203
vt 0.9223633 0.9604492
vt 0.94433594 1
vt 0.94433594 0.9604492
vt 0.9667969 1
vt 0.9760742 0.9980469
vt 0.9848633 0.9941406
vt 0.9916992 0.98876953
vt 0.99658203 0.98339844
vt 1 0.9770508
vt 1 0.9604492
vt 0.9223633 0.90283203
vt 0.94433594 0.90283203
vt 1 0.90283203
vt 0.94433594 0.8408203
vt 1 0.8408203
vt 0.8173828 0.7270508
vt 0.9223633 0.7270508
vt 0.94433594 0.7270508
vt 0.8173828 0.52685547
vt 0.5 0.52685547
vt 0.5 0.5
vt 1.0097656 0.99658203
vt 1.9902344 0.99658203
vt 1.9902344 0.9916992
vt 1.0097656 0.9916992
vt 1.9902344 0.9897461
vt 1.0097656 0.9897461
vt 1.9902344 0.98779297
vt 1.0097656 0.98779297
vt 1.9902344 0.98583984
vt 1.0097656 0.98583984
vt 1.9902344 0.98339844
vt 1.0097656 0.98339844
vt 1.9902344 0.9814453
vt 1.0097656 0.9814453
vt 1.9902344 0.9770508
vt 1.0097656 0.9770508
vt 1.0097656 0.97216797
vt 1.9902344 0.97216797
vt 1.0097656 0.94970703
vt 1.9902344 0.94970703
vt 1.0097656 0.9165039
vt 1.9902344 0.9165039
vt 1.0097656 0.8833008
vt 1.9902344 0.8833008
vt 1.0097656 0.85009766
vt 1.9902344 0.85009766
vt 1.0097656 0.81689453
vt 1.9902344 0.81689453
vt 1.9902344 0.796875
vt 1.0097656 0.796875
vt 1.9902344 0.7919922
vt 1.0097656 0.7919922
vt 1.0097656 0.78759766
vt 1.9902344 0.78759766
vt 1.0097656 0.78564453
vt 1.9902344 0.78564453
vt 1.0097656 0.7832031
vt 1.9902344 0.7832031
vt 1.0097656 0.78125
vt 1.9902344 0.78125
vt 1.0097656 0.7792969
vt 1.9902344 0.7792969
vt 1.0097656 0.77734375
vt 1.9902344 0.77734375
vt 1.0097656 0.77246094
vt 1.9902344 0.77246094
vt 1.0097656 0.75341797
vt 1.9902344 0.75341797
vt 1.0097656 0.73535156
vt 1.9902344 0.73535156
vt 1.0097656 0.70214844
vt 1.9902344 0.70214844
vt 1.0097656 0.6689453
vt 1.9902344 0.6689453
vt 1.0097656 0.6435547
vt 1.9902344 0.6435547
vt 1.0097656 0.6357422
vt 1.9902344 0.6357422
vt 1.0097656 0.60253906
vt 1.9902344 0.60253906
vt 1.0097656 0.56933594
vt 1.9902344 0.56933594
vt 1.0097656 0.5361328
vt 1.9902344 0.5361328
vt 1.0097656 0.5053711
vt 1.9902344 0.5053711
vt 1.9902344 0.5004883
vt 1.0097656 0.5004883
vt 1.9902344 0.49829102
vt 1.0097656 0.49829102
vt 1.9902344 0.4963379
vt 1.0097656 0.4963379
vt 1.9902344 0.49414062
vt 1.0097656 0.49414062
vt 1.9902344 0.49194336
vt 1.0097656 0.49194336
vt 1.9902344 0.48999023
vt 1.0097656 0.48999023
vt 1.9902344 0.48535156
vt 1.0097656 0.48535156
vt 1.9902344 0.4807129
vt 1.0097656 0.4807129
vt 1.9902344 0.45483398
vt 1.0097656 0.45483398
vt 1.0097656 0.42163086
vt 1.9902344 0.42163086
vt 1.0097656 0.3881836
vt 1.9902344 0.3881836
vt 1.0097656 0.35498047
vt 1.9902344 0.35498047
vt 1.0097656 0.32177734
vt 1.9902344 0.32177734
vt 1.0097656 0.30566406
vt 1.9902344 0.30566406
vt 1.0097656 0.3010254
vt 1.9902344 0.3010254
vt 1.0097656 0.29638672
vt 1.9902344 0.29638672
vt 1.0097656 0.29418945
vt 1.9902344 0.29418945
vt 1.0097656 0.29223633
vt 1.9902344 0.29223633
vt 1.0097656 0.29003906
vt 1.9902344 0.29003906
vt 1.0097656 0.28808594
vt 1.9902344 0.28808594
vt 1.0097656 0.2861328
vt 1.9902344 0.2861328
vt 1.0097656 0.28125
vt 1.9902344 0.28125
vt 1.0097656 0.24060059
vt 1.9902344 0.24060059
vt 1.0097656 0.20727539
vt 1.9902344 0.20727539
vt 1.0097656 0.17407227
vt 1.9902344 0.17407227
vt 1.0097656 0.14086914
vt 1.9902344 0.14086914
vt 1.9902344 0.13293457
vt 1.0097656 0.13293457
vt 1.9902344 0.10760498
vt 1.0097656 0.10760498
vt 1.0097656 0.07434082
vt 1.9902344 0.07434082
vt 1.0097656 0.041137695
vt 1.9902344 0.041137695
vt 1.9902344 0.023040771
vt 1.0097656 0.023040771
vt 1.9902344 0.006225586
vt 1.0097656 0.0062332153
vn -0 0 -1
vn -0 0 -1
vn -0 0 -1
vn -0 0 -1
vn -0 0 -1
vn -0 0 -1
vn -0 0 -1
vn -0 0 -1
vn -0 0 -1
vn -0 0 -1
vn -0 0 -1
vn -0 0 -1
vn -0 0 -1
vn -0 0 -1
vn -0 0 -1
vn -0 0 -1
vn -0 0 -1
vn -0 0 -1
vn -0 0 -1
vn -0 0 -1
vn -0 0 -1
vn -0 0 -1
vn -0 0 -1
vn -0 0 -1
vn -0 0 -1
vn -0 0 -1
vn -0 0 -1
vn -0 0 -1
vn -0 0 -1
vn -0 0 -1
vn -0 0 -1
vn -0 0 -1
vn -0 0 -1
vn -0 0 -1
vn -0 0 -1
vn -0 0 -1
vn -0 0 -1
vn -0 0 -1
vn -0 0 -1
vn -0 0 -1
vn -0 0 -1
vn -0 0 -1
vn -0 0 -1
vn -0 0 -1
vn -0 0 -1
vn -0 0 -1
vn -0 0 -1
vn -0 0 -1
vn -0 0 -1
vn -0 0 -1
vn -0 0 -1
vn -0 0 -1
vn -0 0 -1
vn -0 0 -1
vn -0 0 -1
vn -0 0 -1
vn -0 0 -1
vn -0 0 -1
vn -0 0 -1
vn -0 0 -1
vn -0 0 -1
vn -0 0 -1
vn -0 0 -1
vn -0 0 -1
vn -0 0 -1
vn -0 0 -1
vn -0 0 -1
vn -0 0 -1
vn -0 0 -1
vn -0 0 -1
vn -0 0 -1
vn -0 0 -1
vn -0 0 -1
vn -0 0 -1
vn -0 0 -1
vn -0 0 -1
vn -0 0 -1
vn -0 0 -1
vn -0 0 -1
vn -0 0 -1
vn -0 0 -1
vn -0 0 -1
vn -0 0 -1
vn -0 0 -1
vn -0 0 -1
vn -0 0 -1
vn -0 0 -1
vn -0 0 -1
vn -0 0 -1
vn -0 0 -1
vn -0 0 -1
vn -0 0 -1
vn -0 0 -1
vn -0 0 -1
vn -0 0 -1
vn -0 0 -1
vn -0 0 -1
vn -0 0 -1
vn -0 0 -1
vn -0 0 -1
vn -0 0 -1
vn -0 0 -1
vn -0 0 -1
vn -0 0 -1
vn -0 0 -1
vn -0 0 -1
vn -0 0 -1
vn -0 0 -1
vn -0 0 -1
vn -0 0 -1
vn -0 0 -1
vn -0 0 -1
vn -0 0 -1
vn -0 0 -1
vn -0 0 -1
vn -0 0 -1
vn -0 0 -1
vn -0 0 -1
vn -0 0 -1
vn -0 0 -1
vn -0 0 -1
vn -0 0 -1
vn -0 0 1
vn -0 0 1
vn -0 0 1
vn -0 0 1
vn -0 0 1
vn -0 0 1
vn -0 0 1
vn -0 0 1
vn -0 0 1
vn -0 0 1
vn -0 0 1
vn -0 0 1
vn -0 0 1
vn -0 0 1
vn -0 0 1
vn -0 0 1
vn -0 0 1
vn -0 0 1
vn -0 0 1
vn -0 0 1
vn -0 0 1
vn -0 0 1
vn -0 0 1
vn -0 0 1
vn -0 0 1
vn -0 0 1
vn -0 0 1
vn -0 0 1
vn -0 0 1
vn -0 0 1
vn -0 0 1
vn -0 0 1
vn -0 0 1
vn -0 0 1
vn -0 0 1
vn -0 0 1
vn -0 0 1
vn -0 0 1
vn -0 0 1
vn -0 0 1
vn -0 0 1
vn -0 0 1
vn -0 0 1
vn -0 0 1
vn -0 0 1
vn -0 0 1
vn -0 0 1
vn -0 0 1
vn -0 0 1
vn -0 0 1
vn -0 0 1
vn -0 0 1
vn -0 0 1
vn -0 0 1
vn -0 0 1
vn -0 0 1
vn -0 0 1
vn -0 0 1
vn -0 0 1
vn -0 0 1
vn -0 0 1
vn -0 0 1
vn -0 0 1
vn -0 0 1
vn -0 0 1
vn -0 0 1
vn -0 0 1
vn -0 0 1
vn -0 0 1
vn -0 0 1
vn -0 0 1
vn -0 0 1
vn -0 0 1
vn -0 0 1
vn -0 0 1
vn -0 0 1
vn -0 0 1
vn -0 0 1
vn -0 0 1
vn -0 0 1
vn -0 0 1
vn -0 0 1
vn -0 0 1
vn -0 0 1
vn -0 0 1
vn -0 0 1
vn -0 0 1
vn -0 0 1
vn -0 0 1
vn -0 0 1
vn -0 0 1
vn -0 0 1
vn -0 0 1
vn -0 0 1
vn -0 0 1
vn -0 0 1
vn -0 0 1
vn -0 0 1
vn -0 0 1
vn -0 0 1
vn -0 0 1
vn -0 0 1
vn -0 0 1
vn -0 0 1
vn -0 0 1
vn -0 0 1
vn -0 0 1
vn -0 0 1
vn -0 0 1
vn -0 0 1
vn -0 0 1
vn -0 0 1
vn -0 0 1
vn -0 0 1
vn -0 0 1
vn -0 0 1
vn -0 0 1
vn -0 0 1
vn -0 0 1
vn -0 0 1
vn -0 0 1
vn -0 0 1
vn -0 0 1
vn -0 0 1
vn -0 0 1
vn 1 0 0
vn 1 0 0
vn 0.9951172 0.09887695 0
vn 0.9951172 0.09887695 0
vn 0.8955078 0.44458008 0
vn 0.8955078 0.44458008 0
vn 0.78027344 0.6254883 0
vn 0.78027344 0.6254883 0
vn 0.6171875 0.7871094 0
vn 0.6171875 0.7871094 0
vn 0.40722656 0.91308594 0
vn 0.40722656 0.91308594 0
vn 0.09539795 0.99560547 0
vn 0.09539795 0.99560547 0
vn 0.0017127991 1 0
vn 0.0017127991 1 0
vn -0 1 0
vn -0 1 0
vn -0 1 0
vn -0 1 0
vn -0 1 0
vn -0 1 0
vn -0 1 0
vn -0 1 0
vn -0 1 0
vn -0 1 0
vn -0 1 0
vn -0 1 0
vn -0 1 0
vn -0 1 0
vn -0.0017127991 1 0
vn -0.0017127991 1 0
vn -0.09539795 0.99560547 0
vn -0.09539795 0.99560547 0
vn -0.40722656 0.91308594 0
vn -0.40722656 0.91308594 0
vn -0.6171875 0.7871094 0
vn -0.6171875 0.7871094 0
vn -0.78027344 0.6254883 0
vn -0.78027344 0.6254883 0
vn -0.8955078 0.44458008 0
vn -0.8955078 0.44458008 0
vn -0.9951172 0.09887695 0
vn -0.9951172 0.09887695 0
vn -1 0 0
vn -1 0 0
vn -1 0 0
vn -1 0 0
vn -1 0 0
vn -1 0 0
vn -1 0 0
vn -1 0 0
vn -1 0 0
vn -1 0 0
vn -1 0 0
vn -1 0 0
vn -1 0 0
vn -1 0 0
vn -1 0 0
vn -1 0 0
vn -1 0 0
vn -1 0 0
vn -1 0 0
vn -1 0 0
vn -1 0.00058555603 0
vn -1 0.00058555603 0
vn -0.9951172 -0.09887695 0
vn -0.9951172 -0.09887695 0
vn -0.8935547 -0.44921875 0
vn -0.8935547 -0.44921875 0
vn -0.78027344 -0.6254883 0
vn -0.78027344 -0.6254883 0
vn -0.6171875 -0.7871094 0
vn -0.6171875 -0.7871094 0
vn -0.40722656 -0.91308594 0
vn -0.40722656 -0.91308594 0
vn -0.09539795 -0.99560547 0
vn -0.09539795 -0.99560547 0
vn -0.0017127991 -1 0
vn -0.0017127991 -1 0
vn -0 -1 0
vn -0 -1 0
vn -0 -1 0
vn -0 -1 0
vn -0 -1 0
vn -0 -1 0
vn -0 -1 0
vn -0 -1 0
vn -0 -1 0
vn -0 -1 0
vn -0 -1 0
vn -0 -1 0
vn -0 -1 0
vn -0 -1 0
vn 0.0017127991 -1 0
vn 0.0017127991 -1 0
vn 0.09539795 -0.99560547 0
vn 0.09539795 -0.99560547 0
vn 0.40722656 -0.91308594 0
vn 0.40722656 -0.91308594 0
vn 0.6171875 -0.7871094 0
vn 0.6171875 -0.7871094 0
vn 0.78027344 -0.6254883 0
vn 0.78027344 -0.6254883 0
vn 0.8955078 -0.44458008 0
vn 0.8955078 -0.44458008 0
vn 0.9951172 -0.09887695 0
vn 0.9951172 -0.09887695 0
vn 1 0 0
vn 1 0 0
vn 1 0 0
vn 1 0 0
vn 1 0 0
vn 1 0 0
vn 1 0 0
vn 1 0 0
vn 1 0 0
vn 1 0 0
vn 1 0 0
vn 1 0 0
vn 1 0 0
vn 1 0 0
vn 1 0 0
vn 1 0 0
vn 1 0 0
vn 1 0 0
vn 1 0 0
vn 1 0 0
vn 1 0 0
vn 1 0 0
g Card_F_V02_0
f 3/3/3 2/2/2 1/1/1
f 2/2/2 4/4/4 1/1/1
f 1/1/1 4/4/4 5/5/5
f 4/4/4 6/6/6 5/5/5
f 9/9/9 8/8/8 7/7/7
f 10/10/10 8/8/8 9/9/9
f 9/9/9 7/7/7 11/11/11
f 12/12/12 11/11/11 7/7/7
f 12/12/12 13/13/13 11/11/11
f 14/14/14 11/11/11 13/13/13
f 11/11/11 14/14/14 15/15/15
f 16/16/16 11/11/11 15/15/15
f 11/11/11 16/16/16 17/17/17
f 18/18/18 11/11/11 17/17/17
f 11/11/11 18/18/18 19/19/19
f 20/20/20 11/11/11 19/19/19
f 9/9/9 11/11/11 20/20/20
f 19/19/19 21/21/21 20/20/20
f 22/22/22 10/10/10 9/9/9
f 10/10/10 22/22/22 23/23/23
f 21/21/21 24/24/24 20/20/20
f 21/21/21 25/25/25 24/24/24
f 9/9/9 20/20/20 26/26/26
f 22/22/22 9/9/9 26/26/26
f 20/20/20 24/24/24 26/26/26
f 22/22/22 27/27/27 23/23/23
f 22/22/22 26/26/26 27/27/27
f 28/28/28 23/23/23 27/27/27
f 25/25/25 29/29/29 24/24/24
f 25/25/25 30/30/30 29/29/29
f 24/24/24 31/31/31 26/26/26
f 24/24/24 29/29/29 31/31/31
f 26/26/26 32/32/32 27/27/27
f 26/26/26 31/31/31 32/32/32
f 33/33/33 28/28/28 27/27/27
f 33/33/33 27/27/27 32/32/32
f 34/34/34 28/28/28 33/33/33
f 35/35/35 34/34/34 33/33/33
f 33/33/33 32/32/32 35/35/35
f 34/34/34 35/35/35 36/36/36
f 30/30/30 37/37/37 29/29/29
f 30/30/30 38/38/38 37/37/37
f 31/31/31 29/29/29 39/39/39
f 29/29/29 37/37/37 39/39/39
f 38/38/38 40/40/40 37/37/37
f 39/39/39 37/37/37 40/40/40
f 38/38/38 41/41/41 40/40/40
f 31/31/31 42/42/42 32/32/32
f 42/42/42 31/31/31 39/39/39
f 35/35/35 43/43/43 36/36/36
f 44/44/44 36/36/36 43/43/43
f 32/32/32 45/45/45 35/35/35
f 43/43/43 35/35/35 45/45/45
f 45/45/45 32/32/32 42/42/42
f 46/46/46 44/44/44 43/43/43
f 46/46/46 43/43/43 45/45/45
f 47/47/47 46/46/46 45/45/45
f 44/44/44 46/46/46 48/48/48
f 42/42/42 49/49/49 45/45/45
f 46/46/46 50/50/50 48/48/48
f 50/50/50 46/46/46 47/47/47
f 51/51/51 48/48/48 50/50/50
f 52/52/52 51/51/51 50/50/50
f 50/50/50 47/47/47 52/52/52
f 53/53/53 51/51/51 52/52/52
f 54/54/54 53/53/53 52/52/52
f 54/54/54 52/52/52 47/47/47
f 54/54/54 55/55/55 53/53/53
f 54/54/54 56/56/56 55/55/55
f 56/56/56 54/54/54 57/57/57
f 58/58/58 57/57/57 54/54/54
f 58/58/58 54/54/54 59/59/59
f 60/60/60 59/59/59 54/54/54
f 61/61/61 60/60/60 54/54/54
f 54/54/54 62/62/62 61/61/61
f 62/62/62 54/54/54 47/47/47
f 62/62/62 63/63/63 61/61/61
f 63/63/63 62/62/62 64/64/64
f 64/64/64 62/62/62 47/47/47
f 65/65/65 63/63/63 64/64/64
f 66/66/66 64/64/64 47/47/47
f 65/65/65 64/64/64 66/66/66
f 67/67/67 65/65/65 66/66/66
f 68/68/68 66/66/66 47/47/47
f 67/67/67 66/66/66 69/69/69
f 69/69/69 66/66/66 68/68/68
f 70/70/70 67/67/67 69/69/69
f 71/71/71 69/69/69 68/68/68
f 70/70/70 69/69/69 71/71/71
f 72/72/72 70/70/70 71/71/71
f 71/71/71 68/68/68 73/73/73
f 72/72/72 71/71/71 74/74/74
f 74/74/74 71/71/71 73/73/73
f 75/75/75 72/72/72 74/74/74
f 75/75/75 74/74/74 76/76/76
f 74/74/74 73/73/73 76/76/76
f 77/77/77 75/75/75 76/76/76
f 76/76/76 78/78/78 77/77/77
f 78/78/78 79/79/79 77/77/77
f 79/79/79 78/78/78 80/80/80
f 78/78/78 81/81/81 80/80/80
f 81/81/81 78/78/78 82/82/82
f 78/78/78 83/83/83 82/82/82
f 83/83/83 78/78/78 84/84/84
f 85/85/85 84/84/84 78/78/78
f 85/85/85 78/78/78 86/86/86
f 87/87/87 86/86/86 78/78/78
f 78/78/78 76/76/76 88/88/88
f 88/88/88 87/87/87 78/78/78
f 76/76/76 73/73/73 88/88/88
f 87/87/87 88/88/88 89/89/89
f 88/88/88 90/90/90 89/89/89
f 90/90/90 88/88/88 73/73/73
f 91/91/91 89/89/89 90/90/90
f 92/92/92 90/90/90 73/73/73
f 92/92/92 91/91/91 90/90/90
f 91/91/91 92/92/92 93/93/93
f 94/94/94 92/92/92 73/73/73
f 92/92/92 95/95/95 93/93/93
f 95/95/95 92/92/92 94/94/94
f 96/96/96 93/93/93 95/95/95
f 97/97/97 96/96/96 95/95/95
f 97/97/97 95/95/95 94/94/94
f 98/98/98 96/96/96 97/97/97
f 99/99/99 98/98/98 97/97/97
f 99/99/99 97/97/97 94/94/94
f 98/98/98 99/99/99 100/100/100
f 99/99/99 101/101/101 100/100/100
f 102/102/102 100/100/100 101/101/101
f 103/103/103 99/99/99 94/94/94
f 101/101/101 99/99/99 103/103/103
f 104/104/104 102/102/102 101/101/101
f 102/102/102 104/104/104 105/105/105
f 106/106/106 103/103/103 94/94/94
f 106/106/106 94/94/94 49/49/49
f 103/103/103 107/107/107 101/101/101
f 107/107/107 104/104/104 101/101/101
f 103/103/103 106/106/106 107/107/107
f 104/104/104 108/108/108 105/105/105
f 108/108/108 104/104/104 107/107/107
f 109/109/109 105/105/105 108/108/108
f 110/110/110 109/109/109 108/108/108
f 110/110/110 111/111/111 109/109/109
f 110/110/110 112/112/112 111/111/111
f 112/112/112 110/110/110 113/113/113
f 114/114/114 113/113/113 110/110/110
f 114/114/114 110/110/110 115/115/115
f 116/116/116 115/115/115 110/110/110
f 117/117/117 116/116/116 110/110/110
f 118/118/118 110/110/110 108/108/108
f 110/110/110 118/118/118 117/117/117
f 107/107/107 118/118/118 108/108/108
f 118/118/118 119/119/119 117/117/117
f 118/118/118 107/107/107 120/120/120
f 106/106/106 120/120/120 107/107/107
f 119/119/119 118/118/118 121/121/121
f 121/121/121 118/118/118 120/120/120
f 41/41/41 119/119/119 121/121/121
f 41/41/41 121/121/121 40/40/40
f 120/120/120 40/40/40 121/121/121
f 120/120/120 39/39/39 40/40/40
f 106/106/106 122/122/122 120/120/120
f 122/122/122 39/39/39 120/120/120
f 122/122/122 106/106/106 49/49/49
f 122/122/122 42/42/42 39/39/39
f 42/42/42 122/122/122 49/49/49
g Card_F_V02_1
f 125/125/125 124/124/124 123/123/123
f 126/126/126 124/124/124 125/125/125
f 127/127/127 125/125/125 123/123/123
f 123/123/123 128/128/128 127/127/127
f 128/128/128 129/129/129 127/127/127
f 129/129/129 130/130/130 127/127/127
f 130/130/130 131/131/131 127/127/127
f 132/132/132 127/127/127 131/131/131
f 127/127/127 132/132/132 133/133/133
f 127/127/127 133/133/133 134/134/134
f 134/134/134 135/135/135 127/127/127
f 135/135/135 136/136/136 127/127/127
f 127/127/127 136/136/136 125/125/125
f 136/136/136 135/135/135 137/137/137
f 138/138/138 126/126/126 125/125/125
f 139/139/139 126/126/126 138/138/138
f 140/140/140 136/136/136 137/137/137
f 140/140/140 137/137/137 141/141/141
f 125/125/125 136/136/136 142/142/142
f 142/142/142 136/136/136 140/140/140
f 125/125/125 142/142/142 138/138/138
f 143/143/143 140/140/140 141/141/141
f 143/143/143 142/142/142 140/140/140
f 143/143/143 141/141/141 144/144/144
f 145/145/145 139/139/139 138/138/138
f 146/146/146 139/139/139 145/145/145
f 142/142/142 147/147/147 138/138/138
f 147/147/147 145/145/145 138/138/138
f 148/148/148 143/143/143 144/144/144
f 144/144/144 149/149/149 148/148/148
f 150/150/150 142/142/142 143/143/143
f 148/148/148 150/150/150 143/143/143
f 147/147/147 142/142/142 150/150/150
f 149/149/149 151/151/151 148/148/148
f 150/150/150 148/148/148 151/151/151
f 151/151/151 149/149/149 152/152/152
f 153/153/153 146/146/146 145/145/145
f 146/146/146 153/153/153 154/154/154
f 145/145/145 147/147/147 155/155/155
f 153/153/153 145/145/145 155/155/155
f 153/153/153 156/156/156 154/154/154
f 156/156/156 153/153/153 155/155/155
f 154/154/154 156/156/156 157/157/157
f 158/158/158 147/147/147 150/150/150
f 155/155/155 147/147/147 158/158/158
f 159/159/159 151/151/151 152/152/152
f 152/152/152 160/160/160 159/159/159
f 161/161/161 150/150/150 151/151/151
f 158/158/158 150/150/150 161/161/161
f 151/151/151 159/159/159 161/161/161
f 156/156/156 162/162/162 157/157/157
f 157/157/157 162/162/162 163/163/163
f 164/164/164 156/156/156 155/155/155
f 156/156/156 164/164/164 162/162/162
f 162/162/162 165/165/165 163/163/163
f 162/162/162 164/164/164 165/165/165
f 166/166/166 163/163/163 165/165/165
f 167/167/167 166/166/166 165/165/165
f 166/166/166 167/167/167 168/168/168
f 167/167/167 169/169/169 168/168/168
f 167/167/167 170/170/170 169/169/169
f 167/167/167 171/171/171 170/170/170
f 171/171/171 167/167/167 172/172/172
f 173/173/173 172/172/172 167/167/167
f 173/173/173 167/167/167 174/174/174
f 167/167/167 175/175/175 174/174/174
f 175/175/175 167/167/167 165/165/165
f 175/175/175 176/176/176 174/174/174
f 177/177/177 175/175/175 165/165/165
f 164/164/164 177/177/177 165/165/165
f 176/176/176 175/175/175 178/178/178
f 178/178/178 175/175/175 177/177/177
f 179/179/179 176/176/176 178/178/178
f 179/179/179 178/178/178 180/180/180
f 180/180/180 178/178/178 177/177/177
f 181/181/181 179/179/179 180/180/180
f 181/181/181 180/180/180 182/182/182
f 183/183/183 181/181/181 182/182/182
f 180/180/180 177/177/177 184/184/184
f 182/182/182 180/180/180 184/184/184
f 164/164/164 185/185/185 177/177/177
f 185/185/185 184/184/184 177/177/177
f 182/182/182 186/186/186 183/183/183
f 186/186/186 187/187/187 183/183/183
f 182/182/182 184/184/184 188/188/188
f 186/186/186 182/182/182 188/188/188
f 187/187/187 186/186/186 189/189/189
f 189/189/189 186/186/186 188/188/188
f 190/190/190 187/187/187 189/189/189
f 189/189/189 191/191/191 190/190/190
f 191/191/191 192/192/192 190/190/190
f 191/191/191 189/189/189 193/193/193
f 189/189/189 188/188/188 193/193/193
f 192/192/192 191/191/191 194/194/194
f 191/191/191 193/193/193 194/194/194
f 195/195/195 192/192/192 194/194/194
f 196/196/196 188/188/188 184/184/184
f 185/185/185 196/196/196 184/184/184
f 194/194/194 197/197/197 195/195/195
f 197/197/197 198/198/198 195/195/195
f 199/199/199 193/193/193 188/188/188
f 196/196/196 199/199/199 188/188/188
f 193/193/193 200/200/200 194/194/194
f 194/194/194 200/200/200 197/197/197
f 197/197/197 201/201/201 198/198/198
f 201/201/201 202/202/202 198/198/198
f 201/201/201 203/203/203 202/202/202
f 201/201/201 204/204/204 203/203/203
f 204/204/204 201/201/201 205/205/205
f 206/206/206 205/205/205 201/201/201
f 207/207/207 206/206/206 201/201/201
f 208/208/208 207/207/207 201/201/201
f 209/209/209 208/208/208 201/201/201
f 209/209/209 201/201/201 210/210/210
f 201/201/201 197/197/197 211/211/211
f 201/201/201 211/211/211 210/210/210
f 197/197/197 200/200/200 211/211/211
f 212/212/212 210/210/210 211/211/211
f 213/213/213 212/212/212 211/211/211
f 213/213/213 211/211/211 200/200/200
f 214/214/214 212/212/212 213/213/213
f 215/215/215 213/213/213 200/200/200
f 215/215/215 200/200/200 193/193/193
f 199/199/199 215/215/215 193/193/193
f 216/216/216 214/214/214 213/213/213
f 215/215/215 216/216/216 213/213/213
f 217/217/217 214/214/214 216/216/216
f 218/218/218 215/215/215 199/199/199
f 216/216/216 215/215/215 218/218/218
f 219/219/219 217/217/217 216/216/216
f 216/216/216 218/218/218 219/219/219
f 217/217/217 219/219/219 220/220/220
f 219/219/219 221/221/221 220/220/220
f 218/218/218 221/221/221 219/219/219
f 220/220/220 221/221/221 222/222/222
f 223/223/223 218/218/218 199/199/199
f 223/223/223 199/199/199 196/196/196
f 221/221/221 224/224/224 222/222/222
f 222/222/222 224/224/224 225/225/225
f 218/218/218 226/226/226 221/221/221
f 226/226/226 224/224/224 221/221/221
f 226/226/226 218/218/218 223/223/223
f 224/224/224 227/227/227 225/225/225
f 224/224/224 226/226/226 227/227/227
f 228/228/228 225/225/225 227/227/227
f 229/229/229 228/228/228 227/227/227
f 228/228/228 229/229/229 230/230/230
f 229/229/229 231/231/231 230/230/230
f 229/229/229 232/232/232 231/231/231
f 229/229/229 233/233/233 232/232/232
f 233/233/233 229/229/229 234/234/234
f 235/235/235 234/234/234 229/229/229
f 235/235/235 229/229/229 236/236/236
f 226/226/226 237/237/237 227/227/227
f 227/227/227 237/237/237 229/229/229
f 236/236/236 229/229/229 238/238/238
f 237/237/237 238/238/238 229/229/229
f 239/239/239 236/236/236 238/238/238
f 239/239/239 238/238/238 240/240/240
f 240/240/240 238/238/238 237/237/237
f 241/241/241 239/239/239 240/240/240
f 226/226/226 242/242/242 237/237/237
f 242/242/242 226/226/226 223/223/223
f 240/240/240 237/237/237 243/243/243
f 242/242/242 243/243/243 237/237/237
f 241/241/241 240/240/240 244/244/244
f 244/244/244 240/240/240 243/243/243
f 160/160/160 241/241/241 244/244/244
f 160/160/160 244/244/244 159/159/159
f 159/159/159 244/244/244 243/243/243
f 161/161/161 159/159/159 243/243/243
f 245/245/245 161/161/161 243/243/243
f 242/242/242 245/245/245 243/243/243
f 245/245/245 158/158/158 161/161/161
f 242/242/242 223/223/223 246/246/246
f 245/245/245 242/242/242 246/246/246
f 246/246/246 223/223/223 196/196/196
f 246/246/246 196/196/196 185/185/185
f 158/158/158 245/245/245 247/247/247
f 245/245/245 246/246/246 247/247/247
f 247/247/247 246/246/246 185/185/185
f 247/247/247 155/155/155 158/158/158
f 185/185/185 164/164/164 247/247/247
f 164/164/164 155/155/155 247/247/247
g Card_F_V02_2
f 250/250/250 249/249/249 248/248/248
f 251/251/251 250/250/250 248/248/248
f 252/252/252 250/250/250 251/251/251
f 253/253/253 252/252/252 251/251/251
f 254/254/254 252/252/252 253/253/253
f 255/255/255 254/254/254 253/253/253
f 256/256/256 254/254/254 255/255/255
f 257/257/257 256/256/256 255/255/255
f 258/258/258 256/256/256 257/257/257
f 259/259/259 258/258/258 257/257/257
f 260/260/260 258/258/258 259/259/259
f 261/261/261 260/260/260 259/259/259
f 262/262/262 260/260/260 261/261/261
f 263/263/263 262/262/262 261/261/261
f 263/263/263 264/264/264 262/262/262
f 264/264/264 265/265/265 262/262/262
f 264/264/264 266/266/266 265/265/265
f 266/266/266 267/267/267 265/265/265
f 266/266/266 268/268/268 267/267/267
f 268/268/268 269/269/269 267/267/267
f 268/268/268 270/270/270 269/269/269
f 270/270/270 271/271/271 269/269/269
f 270/270/270 272/272/272 271/271/271
f 272/272/272 273/273/273 271/271/271
f 272/272/272 274/274/274 273/273/273
f 274/274/274 275/275/275 273/273/273
f 276/276/276 275/275/275 274/274/274
f 277/277/277 276/276/276 274/274/274
f 278/278/278 276/276/276 277/277/277
f 279/279/279 278/278/278 277/277/277
f 279/279/279 280/280/280 278/278/278
f 280/280/280 281/281/281 278/278/278
f 280/280/280 282/282/282 281/281/281
f 282/282/282 283/283/283 281/281/281
f 282/282/282 284/284/284 283/283/283
f 284/284/284 285/285/285 283/283/283
f 284/284/284 286/286/286 285/285/285
f 286/286/286 287/287/287 285/285/285
f 286/286/286 288/288/288 287/287/287
f 288/288/288 289/289/289 287/287/287
f 288/288/288 290/290/290 289/289/289
f 290/290/290 291/291/291 289/289/289
f 290/290/290 292/292/292 291/291/291
f 292/292/292 293/293/293 291/291/291
f 293/293/293 292/292/292 294/294/294
f 295/295/295 293/293/293 294/294/294
f 295/295/295 294/294/294 296/296/296
f 297/297/297 295/295/295 296/296/296
f 296/296/296 298/298/298 297/297/297
f 298/298/298 299/299/299 297/297/297
f 298/298/298 300/300/300 299/299/299
f 300/300/300 301/301/301 299/299/299
f 300/300/300 302/302/302 301/301/301
f 302/302/302 303/303/303 301/301/301
f 302/302/302 304/304/304 303/303/303
f 304/304/304 305/305/305 303/303/303
f 305/305/305 304/304/304 306/306/306
f 307/307/307 305/305/305 306/306/306
f 307/307/307 306/306/306 308/308/308
f 309/309/309 307/307/307 308/308/308
f 309/309/309 308/308/308 310/310/310
f 311/311/311 309/309/309 310/310/310
f 311/311/311 310/310/310 312/312/312
f 313/313/313 311/311/311 312/312/312
f 314/314/314 313/313/313 312/312/312
f 315/315/315 314/314/314 312/312/312
f 316/316/316 314/314/314 315/315/315
f 317/317/317 316/316/316 315/315/315
f 318/318/318 316/316/316 317/317/317
f 319/319/319 318/318/318 317/317/317
f 320/320/320 318/318/318 319/319/319
f 321/321/321 320/320/320 319/319/319
f 322/322/322 320/320/320 321/321/321
f 323/323/323 322/322/322 321/321/321
f 324/324/324 322/322/322 323/323/323
f 325/325/325 324/324/324 323/323/323
f 326/326/326 324/324/324 325/325/325
f 327/327/327 326/326/326 325/325/325
f 326/326/326 327/327/327 328/328/328
f 327/327/327 329/329/329 328/328/328
f 328/328/328 329/329/329 330/330/330
f 329/329/329 331/331/331 330/330/330
f 330/330/330 331/331/331 332/332/332
f 333/333/333 330/330/330 332/332/332
f 333/333/333 332/332/332 334/334/334
f 335/335/335 333/333/333 334/334/334
f 335/335/335 334/334/334 336/336/336
f 337/337/337 335/335/335 336/336/336
f 337/337/337 336/336/336 338/338/338
f 339/339/339 337/337/337 338/338/338
f 339/339/339 338/338/338 340/340/340
f 341/341/341 339/339/339 340/340/340
f 341/341/341 340/340/340 342/342/342
f 343/343/343 341/341/341 342/342/342
f 342/342/342 344/344/344 343/343/343
f 344/344/344 345/345/345 343/343/343
f 344/344/344 346/346/346 345/345/345
f 346/346/346 347/347/347 345/345/345
f 346/346/346 348/348/348 347/347/347
f 348/348/348 349/349/349 347/347/347
f 348/348/348 350/350/350 349/349/349
f 350/350/350 351/351/351 349/349/349
f 350/350/350 352/352/352 351/351/351
f 352/352/352 353/353/353 351/351/351
f 352/352/352 354/354/354 353/353/353
f 354/354/354 355/355/355 353/353/353
f 354/354/354 356/356/356 355/355/355
f 356/356/356 357/357/357 355/355/355
f 357/357/357 356/356/356 358/358/358
f 359/359/359 357/357/357 358/358/358
f 359/359/359 358/358/358 360/360/360
f 361/361/361 359/359/359 360/360/360
f 361/361/361 360/360/360 362/362/362
f 363/363/363 361/361/361 362/362/362
f 363/363/363 362/362/362 364/364/364
f 365/365/365 363/363/363 364/364/364
f 366/366/366 365/365/365 364/364/364
f 367/367/367 366/366/366 364/364/364
f 368/368/368 366/366/366 367/367/367
f 369/369/369 368/368/368 367/367/367
f 369/369/369 370/370/370 368/368/368
f 370/370/370 371/371/371 368/368/368
f 370/370/370 372/372/372 371/371/371
f 372/372/372 373/373/373 371/371/371
f 374/374/374 373/373/373 372/372/372
f 375/375/375 374/374/374 372/372/372
f 374/374/374 375/375/375 376/376/376
f 375/375/375 377/377/377 376/376/376
