g card_side
v -0.30474874 0.42974874 0.0050000004
v -0.30474874 0.42974874 -0.0050000004
v -0.299445 0.43410143 -0.0050000004
v -0.299445 0.43410143 0.0050000004
v -0.29339394 0.4373358 -0.0050000004
v -0.29339394 0.4373358 0.0050000004
v -0.2868282 0.43932748 -0.0050000004
v -0.2868282 0.43932748 0.0050000004
v -0.28000003 0.44000003 -0.0050000004
v -0.28000003 0.44000003 0.0050000004
v -0.24200001 0.44000003 0.0050000004
v -0.24200001 0.44000003 -0.0050000004
v -1.2212454E-17 0.44000003 -0.0050000004
v 1.2212454E-17 0.44000003 0.0050000004
v 0.24340533 0.44000003 0.005
v 0.24340533 0.44000003 -0.0050000004
v 0.28000003 0.44000003 -0.0050000004
v 0.28000003 0.44000003 0.0050000004
v 0.2868282 0.43932748 -0.0050000004
v 0.2868282 0.43932748 0.0050000004
v 0.29339394 0.4373358 -0.0050000004
v 0.29339394 0.4373358 0.0050000004
v 0.299445 0.43410143 -0.0050000004
v 0.299445 0.43410143 0.0050000004
v 0.30474874 0.42974874 -0.0050000004
v 0.30474874 0.42974874 0.0050000004
v -0.30910143 0.42444497 0.0050000004
v -0.30474874 0.42974874 -0.0050000004
v -0.30474874 0.42974874 0.0050000004
v -0.30910143 0.42444497 -0.0050000004
v -0.3123358 0.4183939 0.0050000004
v -0.3123358 0.4183939 -0.0050000004
v -0.31432748 0.4118282 0.0050000004
v -0.31432748 0.4118282 -0.0050000004
v -0.31500003 0.40500003 0.0050000004
v -0.31500003 0.40500003 -0.0050000004
v -0.31500003 0.33062264 -0.0050000004
v -0.31500003 0.33062264 0.0050000004
v -0.31500003 0.022974527 -0.005
v -0.31500003 0.022974534 0.0050000004
v -0.31500003 0 0.0050000004
v -0.31500003 0 -0.0050000004
v -0.31500003 -0.40500003 0.0050000004
v -0.31500003 -0.40500003 -0.0050000004
v -0.31432748 -0.4118282 0.0050000004
v -0.31432748 -0.4118282 -0.0050000004
v -0.3123358 -0.4183939 0.0050000004
v -0.3123358 -0.4183939 -0.0050000004
v -0.30910143 -0.42444497 0.0050000004
v -0.30910143 -0.42444497 -0.0050000004
v -0.30474874 -0.42974874 0.0050000004
v -0.30474874 -0.42974874 -0.0050000004
v -0.30474874 -0.42974874 -0.0050000004
v -0.30474874 -0.42974874 0.0050000004
v -0.299445 -0.43410143 0.0050000004
v -0.299445 -0.43410143 -0.0050000004
v -0.29339394 -0.4373358 0.0050000004
v -0.29339394 -0.4373358 -0.0050000004
v -0.2868282 -0.43932748 0.0050000004
v -0.2868282 -0.43932748 -0.0050000004
v -0.28000003 -0.44000003 0.0050000004
v -0.28000003 -0.44000003 -0.0050000004
v -0.24200001 -0.44000003 0.0050000004
v -0.24200001 -0.44000003 -0.0050000004
v -0 -0.44000003 -0.0050000004
v -0 -0.44000003 0.0050000004
v 0.24340533 -0.44000003 0.0050000004
v 0.24340533 -0.44000003 -0.005
v 0.28000003 -0.44000003 -0.0050000004
v 0.28000003 -0.44000003 0.0050000004
v 0.2868282 -0.43932748 0.0050000004
v 0.2868282 -0.43932748 -0.0050000004
v 0.29339394 -0.4373358 0.0050000004
v 0.29339394 -0.4373358 -0.0050000004
v 0.299445 -0.43410143 0.0050000004
v 0.299445 -0.43410143 -0.0050000004
v 0.30474874 -0.42974874 0.0050000004
v 0.30474874 -0.42974874 -0.0050000004
v 0.30910143 -0.42444497 0.0050000004
v 0.30474874 -0.42974874 -0.0050000004
v 0.30474874 -0.42974874 0.0050000004
v 0.30910143 -0.42444497 -0.0050000004
v 0.3123358 -0.4183939 0.0050000004
v 0.3123358 -0.4183939 -0.0050000004
v 0.31432748 -0.4118282 0.0050000004
v 0.31432748 -0.4118282 -0.0050000004
v 0.31500003 -0.40500003 0.0050000004
v 0.31500003 -0.40500003 -0.0050000004
v 0.31500003 0 0.0050000004
v 0.31500003 0 -0.0050000004
v 0.31500003 0.022974534 -0.0050000004
v 0.31500003 0.022974527 0.005
v 0.31500003 0.33062264 -0.0050000004
v 0.31500003 0.33062264 0.0050000004
v 0.31500003 0.40500003 0.0050000004
v 0.31500003 0.40500003 -0.0050000004
v 0.31432748 0.4118282 0.0050000004
v 0.31432748 0.4118282 -0.0050000004
v 0.3123358 0.4183939 0.0050000004
v 0.3123358 0.4183939 -0.0050000004
v 0.30910143 0.42444497 0.0050000004
v 0.30910143 0.42444497 -0.0050000004
v 0.30474874 0.42974874 0.0050000004
v 0.30474874 0.42974874 -0.0050000004
vt 0.012504578 0.9873047
vt 0.012504578 1
vt 0.020996094 1
vt 0.020996094 0.9873047
vt 0.030670166 1
vt 0.030670166 0.9873047
vt 0.041168213 1
vt 0.041168213 0.9873047
vt 0.052093506 1
vt 0.052093506 0.9873047
vt 0.11352539 0.98779297
vt 0.11352539 1
vt 0.5 1
vt 0.5 0.9873047
vt 0.88916016 0.9873047
vt 0.88916016 1
vt 0.9477539 1
vt 0.9477539 0.9873047
vt 0.9589844 1
vt 0.9589844 0.9873047
vt 0.9692383 1
vt 0.9692383 0.9873047
vt 0.9790039 1
vt 0.9790039 0.9873047
vt 0.9873047 1
vt 0.9873047 0.9873047
vt 1 0.9814453
vt 0.98779297 0.9873047
vt 1 0.9873047
vt 0.98779297 0.9814453
vt 1 0.9746094
vt 0.98779297 0.9746094
vt 1 0.96728516
vt 0.98779297 0.96728516
vt 1 0.95947266
vt 0.98779297 0.95947266
vt 0.98779297 0.875
vt 1 0.875
vt 0.98779297 0.5258789
vt 1 0.5258789
vt 1 0.5
vt 0.98779297 0.5
vt 1 0.04058838
vt 0.98779297 0.04058838
vt 1 0.032836914
vt 0.98779297 0.032836914
vt 1 0.025390625
vt 0.98779297 0.025390625
vt 1 0.01852417
vt 0.98779297 0.01852417
vt 1 0.012504578
vt 0.98779297 0.012504578
vt 0.9873047 0.012496948
vt 0.9873047 0
vt 0.9790039 0
vt 0.9790039 0.012496948
vt 0.9692383 0
vt 0.9692383 0.012496948
vt 0.9589844 0
vt 0.9589844 0.012496948
vt 0.9477539 0
vt 0.9477539 0.012496948
vt 0.88623047 6.0021877E-05
vt 0.88623047 0.0124435425
vt 0.5 0.012496948
vt 0.5 0
vt 0.11065674 4.6551228E-05
vt 0.11065674 0.012451172
vt 0.052093506 0.012496948
vt 0.052093506 0
vt 0.041168213 0
vt 0.041168213 0.012496948
vt 0.030670166 0
vt 0.030670166 0.012496948
vt 0.020996094 0
vt 0.020996094 0.012496948
vt 0.012504578 0
vt 0.012504578 0.012496948
vt 0 0.01852417
vt 0.012496948 0.012504578
vt 0 0.012504578
vt 0.012496948 0.01852417
vt 0 0.025390625
vt 0.012496948 0.025390625
vt 0 0.032836914
vt 0.012496948 0.032836914
vt 0 0.04058838
vt 0.012496948 0.04058838
vt 0 0.5
vt 0.012496948 0.5
vt 0.012466431 0.5258789
vt 3.1113625E-05 0.5258789
vt 0.0124435425 0.875
vt 5.966425E-05 0.875
vt 0 0.95947266
vt 0.012496948 0.95947266
vt 0 0.96728516
vt 0.012496948 0.96728516
vt 0 0.9746094
vt 0.012496948 0.9746094
vt 0 0.9814453
vt 0.012496948 0.9814453
vt 0 0.9873047
vt 0.012496948 0.9873047
vn -0.70703125 0.70703125 0
vn -0.70703125 0.70703125 0
vn -0.55566406 0.83154297 0
vn -0.55566406 0.83154297 0
vn -0.38256836 0.9238281 0
vn -0.38256836 0.9238281 0
vn -0.19506836 0.98095703 0
vn -0.19506836 0.98095703 0
vn -0.0023441315 1 0
vn -0.0023441315 1 0
vn -0 1 0
vn -0 1 0
vn -0 1 0
vn -0 1 0
vn -0 1 0
vn -0 1 0
vn 0.0023441315 1 0
vn 0.0023441315 1 0
vn 0.19506836 0.98095703 0
vn 0.19506836 0.98095703 0
vn 0.38256836 0.9238281 0
vn 0.38256836 0.9238281 0
vn 0.55566406 0.83154297 0
vn 0.55566406 0.83154297 0
vn 0.70703125 0.70703125 0
vn 0.70703125 0.70703125 0
vn -0.83154297 0.55566406 0
vn -0.70703125 0.70703125 0
vn -0.70703125 0.70703125 0
vn -0.83154297 0.55566406 0
vn -0.9238281 0.38256836 0
vn -0.9238281 0.38256836 0
vn -0.98095703 0.19506836 0
vn -0.98095703 0.19506836 0
vn -1 0.0016326904 0
vn -1 0.0016326904 0
vn -1 0 -1.1920929E-06
vn -1 0 -1.1920929E-06
vn -1 0 -1.1324883E-06
vn -1 0 -1.1324883E-06
vn -1 0 0
vn -1 0 0
vn -1 -0.0016326904 0
vn -1 -0.0016326904 0
vn -0.98095703 -0.19506836 0
vn -0.98095703 -0.19506836 0
vn -0.9238281 -0.38256836 0
vn -0.9238281 -0.38256836 0
vn -0.83154297 -0.55566406 0
vn -0.83154297 -0.55566406 0
vn -0.70703125 -0.70703125 0
vn -0.70703125 -0.70703125 0
vn -0.70703125 -0.70703125 0
vn -0.70703125 -0.70703125 0
vn -0.55566406 -0.83154297 0
vn -0.55566406 -0.83154297 0
vn -0.38256836 -0.9238281 0
vn -0.38256836 -0.9238281 0
vn -0.19506836 -0.98095703 0
vn -0.19506836 -0.98095703 0
vn -0.0023441315 -1 0
vn -0.0023441315 -1 0
vn -0 -1 0
vn -0 -1 0
vn -0 -1 0
vn -0 -1 0
vn -0 -1 0
vn -0 -1 0
vn 0.0023441315 -1 0
vn 0.0023441315 -1 0
vn 0.19506836 -0.98095703 0
vn 0.19506836 -0.98095703 0
vn 0.38256836 -0.9238281 0
vn 0.38256836 -0.9238281 0
vn 0.55566406 -0.83154297 0
vn 0.55566406 -0.83154297 0
vn 0.70703125 -0.70703125 0
vn 0.70703125 -0.70703125 0
vn 0.83154297 -0.55566406 0
vn 0.70703125 -0.70703125 0
vn 0.70703125 -0.70703125 0
vn 0.83154297 -0.55566406 0
vn 0.9238281 -0.38256836 0
vn 0.9238281 -0.38256836 0
vn 0.98095703 -0.19506836 0
vn 0.98095703 -0.19506836 0
vn 1 -0.0016326904 0
vn 1 -0.0016326904 0
vn 1 0 0
vn 1 0 0
vn 1 0 1.1324883E-06
vn 1 0 1.1324883E-06
vn 1 0 1.1920929E-06
vn 1 0 1.1920929E-06
vn 1 0.0016326904 0
vn 1 0.0016326904 0
vn 0.98095703 0.19506836 0
vn 0.98095703 0.19506836 0
vn 0.9238281 0.38256836 0
vn 0.9238281 0.38256836 0
vn 0.83154297 0.55566406 0
vn 0.83154297 0.55566406 0
vn 0.70703125 0.70703125 0
vn 0.70703125 0.70703125 0
g card_side_0
f 3/3/3 2/2/2 1/1/1
f 4/4/4 3/3/3 1/1/1
f 5/5/5 3/3/3 4/4/4
f 6/6/6 5/5/5 4/4/4
f 7/7/7 5/5/5 6/6/6
f 8/8/8 7/7/7 6/6/6
f 9/9/9 7/7/7 8/8/8
f 10/10/10 9/9/9 8/8/8
f 9/9/9 10/10/10 11/11/11
f 12/12/12 9/9/9 11/11/11
f 12/12/12 11/11/11 13/13/13
f 11/11/11 14/14/14 13/13/13
f 13/13/13 14/14/14 15/15/15
f 16/16/16 13/13/13 15/15/15
f 16/16/16 15/15/15 17/17/17
f 15/15/15 18/18/18 17/17/17
f 17/17/17 18/18/18 19/19/19
f 18/18/18 20/20/20 19/19/19
f 19/19/19 20/20/20 21/21/21
f 20/20/20 22/22/22 21/21/21
f 21/21/21 22/22/22 23/23/23
f 22/22/22 24/24/24 23/23/23
f 23/23/23 24/24/24 25/25/25
f 24/24/24 26/26/26 25/25/25
f 29/29/29 28/28/28 27/27/27
f 28/28/28 30/30/30 27/27/27
f 27/27/27 30/30/30 31/31/31
f 30/30/30 32/32/32 31/31/31
f 31/31/31 32/32/32 33/33/33
f 32/32/32 34/34/34 33/33/33
f 33/33/33 34/34/34 35/35/35
f 34/34/34 36/36/36 35/35/35
f 35/35/35 36/36/36 37/37/37
f 38/38/38 35/35/35 37/37/37
f 38/38/38 37/37/37 39/39/39
f 40/40/40 38/38/38 39/39/39
f 40/40/40 39/39/39 41/41/41
f 39/39/39 42/42/42 41/41/41
f 41/41/41 42/42/42 43/43/43
f 42/42/42 44/44/44 43/43/43
f 45/45/45 43/43/43 44/44/44
f 46/46/46 45/45/45 44/44/44
f 47/47/47 45/45/45 46/46/46
f 48/48/48 47/47/47 46/46/46
f 49/49/49 47/47/47 48/48/48
f 50/50/50 49/49/49 48/48/48
f 51/51/51 49/49/49 50/50/50
f 52/52/52 51/51/51 50/50/50
f 55/55/55 54/54/54 53/53/53
f 56/56/56 55/55/55 53/53/53
f 57/57/57 55/55/55 56/56/56
f 58/58/58 57/57/57 56/56/56
f 59/59/59 57/57/57 58/58/58
f 60/60/60 59/59/59 58/58/58
f 61/61/61 59/59/59 60/60/60
f 62/62/62 61/61/61 60/60/60
f 63/63/63 61/61/61 62/62/62
f 64/64/64 63/63/63 62/62/62
f 64/64/64 65/65/65 63/63/63
f 65/65/65 66/66/66 63/63/63
f 67/67/67 66/66/66 65/65/65
f 68/68/68 67/67/67 65/65/65
f 68/68/68 69/69/69 67/67/67
f 69/69/69 70/70/70 67/67/67
f 70/70/70 69/69/69 71/71/71
f 69/69/69 72/72/72 71/71/71
f 71/71/71 72/72/72 73/73/73
f 72/72/72 74/74/74 73/73/73
f 73/73/73 74/74/74 75/75/75
f 74/74/74 76/76/76 75/75/75
f 75/75/75 76/76/76 77/77/77
f 76/76/76 78/78/78 77/77/77
f 81/81/81 80/80/80 79/79/79
f 80/80/80 82/82/82 79/79/79
f 79/79/79 82/82/82 83/83/83
f 82/82/82 84/84/84 83/83/83
f 83/83/83 84/84/84 85/85/85
f 84/84/84 86/86/86 85/85/85
f 85/85/85 86/86/86 87/87/87
f 86/86/86 88/88/88 87/87/87
f 87/87/87 88/88/88 89/89/89
f 88/88/88 90/90/90 89/89/89
f 89/89/89 90/90/90 91/91/91
f 92/92/92 89/89/89 91/91/91
f 92/92/92 91/91/91 93/93/93
f 94/94/94 92/92/92 93/93/93
f 94/94/94 93/93/93 95/95/95
f 93/93/93 96/96/96 95/95/95
f 97/97/97 95/95/95 96/96/96
f 98/98/98 97/97/97 96/96/96
f 99/99/99 97/97/97 98/98/98
f 100/100/100 99/99/99 98/98/98
f 101/101/101 99/99/99 100/100/100
f 102/102/102 101/101/101 100/100/100
f 103/103/103 101/101/101 102/102/102
f 104/104/104 103/103/103 102/102/102
