g CardFrame
v 0.27057385 0.35406175 -0.0053999997
v 0.27057385 0.36043453 -0.0054
v 0.26369515 0.36043453 -0.0054
v 0.2636951 0.35406175 -0.0053999997
v 0.27057382 0.023950664 -0.0053999997
v -0.26395628 0.35406175 -0.0053999997
v 0.26369512 0.023950664 -0.0053999997
v -0.26395628 0.36043453 -0.0054
v -0.2700305 0.36043453 -0.0054
v -0.2700305 0.35406175 -0.0053999997
v 0.27057382 0.0037564745 -0.0053999997
v 0.26141205 -0.004898179 -0.0053999997
v -0.26167125 -0.004898179 -0.0054
v -0.26395628 0.023950664 -0.0054
v -0.2700305 0.023950664 -0.0054
v -0.2700305 0.0034836498 -0.0054000006
vt 0.070495605 0.90234375
vt 0.070495605 0.90966797
vt 0.0814209 0.90966797
vt 0.0814209 0.90234375
vt 0.070495605 0.52734375
vt 0.9189453 0.90234375
vt 0.0814209 0.52734375
vt 0.9189453 0.90966797
vt 0.92871094 0.90966797
vt 0.92871094 0.90234375
vt 0.070495605 0.50439453
vt 0.08508301 0.49438477
vt 0.91552734 0.49438477
vt 0.9189453 0.52734375
vt 0.92871094 0.52734375
vt 0.92871094 0.50390625
vn -0 0 -1
vn -0 0 -1
vn -0 0 -1
vn -0 0 -1
vn -0 0 -1
vn -0 0 -1
vn -0 0 -1
vn -0 0 -1
vn -0 0 -1
vn -0 0 -1
vn -0 0 -1
vn -0 0 -1
vn -0 0 -1
vn -0 0 -1
vn -0 0 -1
vn -0 0 -1
g CardFrame_0
f 3/3/3 2/2/2 1/1/1
f 3/3/3 1/1/1 4/4/4
f 5/5/5 4/4/4 1/1/1
f 6/6/6 3/3/3 4/4/4
f 5/5/5 7/7/7 4/4/4
f 6/6/6 8/8/8 3/3/3
f 6/6/6 9/9/9 8/8/8
f 6/6/6 10/10/10 9/9/9
f 7/7/7 5/5/5 11/11/11
f 7/7/7 11/11/11 12/12/12
f 7/7/7 12/12/12 13/13/13
f 14/14/14 10/10/10 6/6/6
f 7/7/7 13/13/13 14/14/14
f 14/14/14 15/15/15 10/10/10
f 13/13/13 16/16/16 14/14/14
f 16/16/16 15/15/15 14/14/14
