g Card_Shadow_Model
v -4.608814E-18 0.356 -3.7252904E-10
v 0.268 0.025 3.7252904E-10
v 0.268 0.356 3.7252904E-10
v -5.6205056E-19 0.025 0
v -0.268 0.356 -3.7252904E-10
v -0.268 0.025 -3.7252904E-10
v -0.29339394 0.4373358 0
v -0.28000003 0.40500003 0
v -0.2868282 0.43932748 0
v -0.299445 0.43410143 0
v -0.30474874 0.42974874 0
v -0.30910143 0.42444497 0
v -0.3123358 0.4183939 0
v -0.31432748 0.4118282 0
v -0.28000003 0.44000003 0
v -0.31500003 0.40500003 0
v -0.268 0.40500003 -3.7252904E-10
v -0.268 0.44000003 -3.7252904E-10
v -1.2212454E-17 0.44000003 0
v -0.28000003 0.356 0
v -0.31500003 0.356 0
v -5.6205045E-18 0.40500003 0
v 0.268 0.44000003 0
v -0.268 0.356 -3.7252904E-10
v -4.608814E-18 0.356 -3.7252904E-10
v -0.268 0.025 -3.7252904E-10
v -0.28000003 0.025 3.7252904E-10
v -0.31500003 0.025 3.7252904E-10
v 0.268 0.40500003 3.7252904E-10
v 0.28000003 0.44000003 0
v 0.268 0.356 3.7252904E-10
v 0.28000003 0.40500003 0
v 0.2868282 0.43932748 0
v 0.29339394 0.4373358 0
v 0.299445 0.43410143 0
v 0.30474874 0.42974874 0
v 0.30910143 0.42444497 0
v 0.3123358 0.4183939 0
v 0.31432748 0.4118282 0
v 0.31500003 0.40500003 0
v 0.28000003 0.356 -3.7252904E-10
v 0.31500003 0.356 -3.7252904E-10
v 0.31500003 0.025 0
v 0.28000003 0.025 0
v 0.31500003 0 0
v 0.268 0.025 3.7252904E-10
v 0.28000003 0 0
v 0.31500003 -0.40500003 0
v 0.268 0 3.7252904E-10
v -5.6205056E-19 0.025 0
v 0.28000003 -0.40500003 0
v 0.31432748 -0.4118282 0
v 0.3123358 -0.4183939 0
v 0.30910143 -0.42444497 0
v 0.30474874 -0.42974874 0
v 0.299445 -0.43410143 0
v 0.29339394 -0.4373358 0
v 0.2868282 -0.43932748 0
v 0.28000003 -0.44000003 0
v 0.268 -0.40500003 0
v 0.268 -0.44000003 3.7252904E-10
v -0 -0.44000003 0
v -0 -0.40500003 0
v -0.27 -0.44000003 -3.7252904E-10
v -0 0 0
v -0.27 -0.40500003 -3.7252904E-10
v -0.28000003 -0.44000003 0
v -0.268 0 -3.7252904E-10
v -0.28000003 -0.40500003 0
v -0.2868282 -0.43932748 0
v -0.29339394 -0.4373358 0
v -0.299445 -0.43410143 0
v -0.30474874 -0.42974874 0
v -0.30910143 -0.42444497 0
v -0.3123358 -0.4183939 0
v -0.31432748 -0.4118282 0
v -0.31500003 -0.40500003 0
v -0.28000003 0 0
v -0.31500003 0 0
vt 0.5 0.9057617
vt 0.075927734 0.52441406
vt 0.075927734 0.9067383
vt 0.5 0.52441406
vt 0.92626953 0.9067383
vt 0.92626953 0.52441406
vt 0.9658203 0.9970703
vt 0.94433594 0.9604492
vt 0.9550781 0.99902344
vt 0.97509766 0.99316406
vt 0.9838867 0.98828125
vt 0.99072266 0.9824219
vt 0.99560547 0.97558594
vt 0.99902344 0.96777344
vt 0.94433594 1
vt 1 0.9604492
vt 0.92626953 0.9604492
vt 0.92626953 1
vt 0.5 0.9995117
vt 0.9428711 0.9067383
vt 1 0.9067383
vt 0.5 0.95947266
vt 0.075927734 1
vt 0.92626953 0.9067383
vt 0.5 0.9057617
vt 0.92626953 0.52441406
vt 0.9428711 0.52441406
vt 1 0.52441406
vt 0.075927734 0.95947266
vt 0.055541992 1
vt 0.075927734 0.9067383
vt 0.055541992 0.9604492
vt 0.044708252 0.99902344
vt 0.034301758 0.9970703
vt 0.02468872 0.99316406
vt 0.01626587 0.98828125
vt 0.009361267 0.9824219
vt 0.0042304993 0.97558594
vt 0.0010671616 0.96777344
vt 0 0.9604492
vt 0.056549072 0.9067383
vt 1.8060207E-05 0.9067383
vt -0.00014019012 0.52441406
vt 0.05621338 0.52441406
vt 0 0.5
vt 0.075927734 0.52441406
vt 0.055541992 0.5
vt 0 0.039764404
vt 0.075927734 0.5
vt 0.5 0.52441406
vt 0.055541992 0.039764404
vt 0.0010671616 0.03201294
vt 0.0042304993 0.024551392
vt 0.009361267 0.017669678
vt 0.01626587 0.011650085
vt 0.02468872 0.006702423
vt 0.034301758 0.0030269623
vt 0.044708252 0.00076436996
vt 0.055541992 0
vt 0.075927734 0.039764404
vt 0.075927734 1.8835068E-05
vt 0.5 -0.0006842613
vt 0.5 0.039093018
vt 0.92626953 1.8656254E-05
vt 0.5 0.49926758
vt 0.92626953 0.039764404
vt 0.94433594 0
vt 0.92626953 0.5
vt 0.94433594 0.039764404
vt 0.9550781 0.00076436996
vt 0.9658203 0.0030269623
vt 0.97509766 0.006702423
vt 0.9838867 0.011650085
vt 0.99072266 0.017669678
vt 0.99560547 0.024551392
vt 0.99902344 0.03201294
vt 1 0.039764404
vt 0.94433594 0.5
vt 1 0.5
vn -0 0 -1
vn -0 0 -1
vn -0 0 -1
vn -0 0 -1
vn -0 0 -1
vn -0 0 -1
vn -0 0 -1
vn -0 0 -1
vn -0 0 -1
vn -0 0 -1
vn -0 0 -1
vn -0 0 -1
vn -0 0 -1
vn -0 0 -1
vn -0 0 -1
vn -0 0 -1
vn -0 0 -1
vn -0 0 -1
vn -0 0 -1
vn -0 0 -1
vn -0 0 -1
vn -0 0 -1
vn -0 0 -1
vn -0 0 -1
vn -0 0 -1
vn -0 0 -1
vn -0 0 -1
vn -0 0 -1
vn -0 0 -1
vn -0 0 -1
vn -0 0 -1
vn -0 0 -1
vn -0 0 -1
vn -0 0 -1
vn -0 0 -1
vn -0 0 -1
vn -0 0 -1
vn -0 0 -1
vn -0 0 -1
vn -0 0 -1
vn -0 0 -1
vn -0 0 -1
vn -0 0 -1
vn -0 0 -1
vn -0 0 -1
vn -0 0 -1
vn -0 0 -1
vn -0 0 -1
vn -0 0 -1
vn -0 0 -1
vn -0 0 -1
vn -0 0 -1
vn -0 0 -1
vn -0 0 -1
vn -0 0 -1
vn -0 0 -1
vn -0 0 -1
vn -0 0 -1
vn -0 0 -1
vn -0 0 -1
vn -0 0 -1
vn -0 0 -1
vn -0 0 -1
vn -0 0 -1
vn -0 0 -1
vn -0 0 -1
vn -0 0 -1
vn -0 0 -1
vn -0 0 -1
vn -0 0 -1
vn -0 0 -1
vn -0 0 -1
vn -0 0 -1
vn -0 0 -1
vn -0 0 -1
vn -0 0 -1
vn -0 0 -1
vn -0 0 -1
vn -0 0 -1
g Card_Shadow_Model_0
f 3/3/3 2/2/2 1/1/1
f 2/2/2 4/4/4 1/1/1
f 5/5/5 1/1/1 4/4/4
f 6/6/6 5/5/5 4/4/4
f 9/9/9 8/8/8 7/7/7
f 7/7/7 8/8/8 10/10/10
f 10/10/10 8/8/8 11/11/11
f 11/11/11 8/8/8 12/12/12
f 12/12/12 8/8/8 13/13/13
f 13/13/13 8/8/8 14/14/14
f 15/15/15 8/8/8 9/9/9
f 14/14/14 8/8/8 16/16/16
f 17/17/17 8/8/8 15/15/15
f 18/18/18 17/17/17 15/15/15
f 18/18/18 19/19/19 17/17/17
f 8/8/8 20/20/20 16/16/16
f 20/20/20 21/21/21 16/16/16
f 19/19/19 22/22/22 17/17/17
f 22/22/22 19/19/19 23/23/23
f 17/17/17 24/24/24 8/8/8
f 24/24/24 20/20/20 8/8/8
f 24/24/24 17/17/17 25/25/25
f 17/17/17 22/22/22 25/25/25
f 24/24/24 26/26/26 20/20/20
f 20/20/20 27/27/27 21/21/21
f 26/26/26 27/27/27 20/20/20
f 27/27/27 28/28/28 21/21/21
f 29/29/29 22/22/22 23/23/23
f 25/25/25 22/22/22 29/29/29
f 29/29/29 23/23/23 30/30/30
f 31/31/31 25/25/25 29/29/29
f 32/32/32 29/29/29 30/30/30
f 31/31/31 29/29/29 32/32/32
f 32/32/32 30/30/30 33/33/33
f 32/32/32 33/33/33 34/34/34
f 32/32/32 34/34/34 35/35/35
f 32/32/32 35/35/35 36/36/36
f 32/32/32 36/36/36 37/37/37
f 32/32/32 37/37/37 38/38/38
f 32/32/32 38/38/38 39/39/39
f 32/32/32 39/39/39 40/40/40
f 41/41/41 32/32/32 40/40/40
f 41/41/41 31/31/31 32/32/32
f 42/42/42 41/41/41 40/40/40
f 42/42/42 43/43/43 41/41/41
f 41/41/41 44/44/44 31/31/31
f 43/43/43 44/44/44 41/41/41
f 43/43/43 45/45/45 44/44/44
f 44/44/44 46/46/46 31/31/31
f 45/45/45 47/47/47 44/44/44
f 44/44/44 47/47/47 46/46/46
f 47/47/47 45/45/45 48/48/48
f 47/47/47 49/49/49 46/46/46
f 46/46/46 49/49/49 50/50/50
f 51/51/51 47/47/47 48/48/48
f 49/49/49 47/47/47 51/51/51
f 52/52/52 51/51/51 48/48/48
f 53/53/53 51/51/51 52/52/52
f 54/54/54 51/51/51 53/53/53
f 55/55/55 51/51/51 54/54/54
f 56/56/56 51/51/51 55/55/55
f 57/57/57 51/51/51 56/56/56
f 58/58/58 51/51/51 57/57/57
f 59/59/59 51/51/51 58/58/58
f 60/60/60 51/51/51 59/59/59
f 60/60/60 49/49/49 51/51/51
f 61/61/61 60/60/60 59/59/59
f 61/61/61 62/62/62 60/60/60
f 62/62/62 63/63/63 60/60/60
f 60/60/60 63/63/63 49/49/49
f 63/63/63 62/62/62 64/64/64
f 63/63/63 65/65/65 49/49/49
f 49/49/49 65/65/65 50/50/50
f 66/66/66 63/63/63 64/64/64
f 65/65/65 63/63/63 66/66/66
f 66/66/66 64/64/64 67/67/67
f 50/50/50 65/65/65 68/68/68
f 68/68/68 65/65/65 66/66/66
f 26/26/26 50/50/50 68/68/68
f 26/26/26 68/68/68 27/27/27
f 69/69/69 66/66/66 67/67/67
f 68/68/68 66/66/66 69/69/69
f 69/69/69 67/67/67 70/70/70
f 69/69/69 70/70/70 71/71/71
f 69/69/69 71/71/71 72/72/72
f 69/69/69 72/72/72 73/73/73
f 69/69/69 73/73/73 74/74/74
f 69/69/69 74/74/74 75/75/75
f 69/69/69 75/75/75 76/76/76
f 69/69/69 76/76/76 77/77/77
f 68/68/68 78/78/78 27/27/27
f 78/78/78 68/68/68 69/69/69
f 78/78/78 69/69/69 77/77/77
f 27/27/27 78/78/78 28/28/28
f 79/79/79 78/78/78 77/77/77
f 78/78/78 79/79/79 28/28/28
