g Cir
v -0.08090173 0.3175024 0.3199381
v -0.08090478 0.3175024 0.3199441
v -0.08090173 0.31670243 0.3199381
v -0.09755285 0.3175024 0.39468208
v -0.09755285 0.31670243 0.39468205
v -0.09816464 0.3175024 0.39081937
v 0.08090176 0.3175024 0.3199381
v 0.05877856 0.3175024 0.2978149
v 0.05877856 0.31670243 0.2978149
v 0.08090176 0.31670243 0.3199381
v 0.080904804 0.3175024 0.31994402
v 0.08800373 0.31670243 0.33387652
v 0.08800526 0.3175024 0.33387947
v 0.095105715 0.31670243 0.34781495
v 0.095105715 0.3175024 0.34781486
v 0.09755286 0.3175024 0.36326575
v 0.09755286 0.31670243 0.3632658
v 0.1 0.3175024 0.37871662
v 0.1 0.31670243 0.37871665
v 0.09864227 0.31670243 0.38766968
v 0.09864227 0.3175024 0.38766974
v 0.09816462 0.31670243 0.39081934
v 0.09816462 0.3175024 0.39081937
v 0.09755283 0.31670243 0.39468205
v 0.09755283 0.3175024 0.39468208
v 0.096329235 0.31670243 0.40240747
v 0.096329235 0.3175024 0.40240747
v 0.0937377 0.31670243 0.41230002
v 0.0937377 0.3175024 0.41230002
v 0.08740501 0.3175024 0.4248
v 0.08740501 0.31670243 0.4248
v 0.07925075 0.31670243 0.4390134
v 0.07925075 0.3175024 0.43901345
v 0.06645449 0.31670243 0.45197216
v 0.06645449 0.3175024 0.45197216
v 0.051745337 0.3175024 0.46315452
v 0.051745337 0.31670243 0.46315452
v 0.030901715 0.31670243 0.28361094
v 0.05877856 0.31670243 0.2978149
v 0.05877856 0.3175024 0.2978149
v 0.030901715 0.3175024 0.28361094
v -0 0.31670243 0.2787166
v -0 0.3175024 0.2787166
v -0.030901715 0.31670243 0.28361094
v -0.030901715 0.3175024 0.28361094
v -0.05877855 0.31670243 0.2978149
v -0.05877855 0.3175024 0.2978149
v -0.08090173 0.3175024 0.3199381
v -0.08090173 0.31670243 0.3199381
v -0.05877855 0.3175024 0.2978149
v -0.05877855 0.31670243 0.2978149
v -0.0880037 0.31670243 0.33387652
v -0.08090478 0.3175024 0.3199441
v -0.08800524 0.3175024 0.33387953
v -0.09510568 0.31670243 0.34781495
v -0.09510568 0.3175024 0.34781495
v -0.09755285 0.3175024 0.36326578
v -0.09755285 0.31670243 0.3632658
v -0.100000024 0.3175024 0.37871662
v -0.100000024 0.31670243 0.37871665
v -0.09864229 0.31670243 0.38766968
v -0.09864229 0.3175024 0.3876697
v -0.09816464 0.31670243 0.39081934
v -0.09816464 0.3175024 0.39081937
v -0.09755285 0.31670243 0.39468205
v -0.05174535 0.31670243 0.46315452
v -0.05174535 0.3175024 0.46315452
v -0.030912293 0.31670243 0.4738
v -0.030912293 0.3175024 0.4738
v -3.72529E-09 0.31670243 0.47874284
v -3.72529E-09 0.3175024 0.47874284
v 0.030912284 0.31670243 0.4738
v 0.030912284 0.3175024 0.4738
v 0.051745337 0.31670243 0.46315452
v 0.051745337 0.3175024 0.46315452
v -0.09755285 0.31670243 0.39468205
v -0.09755285 0.3175024 0.39468208
v -0.096329264 0.3175024 0.40240747
v -0.096329264 0.31670243 0.4024075
v -0.09373772 0.3175024 0.41230002
v -0.09373772 0.31670243 0.41230002
v -0.08740503 0.31670243 0.4248
v -0.08740503 0.3175024 0.4248
v -0.079250775 0.31670243 0.43901345
v -0.079250775 0.3175024 0.43901345
v -0.0664545 0.31670243 0.45197216
v -0.0664545 0.3175024 0.45197216
v -0.05174535 0.31670243 0.46315452
v -0.05174535 0.3175024 0.46315452
v -0.09755285 0.31670243 0.3632658
v -0.100000024 0.31670243 0.37871665
v -1.1920929E-08 0.31670243 0.37871668
v -0.09864229 0.31670243 0.38766968
v 2.9802323E-09 0.31670243 0.3632658
v -0.09510568 0.31670243 0.34781495
v -1.21276145E-08 0.31670243 0.3876697
v -0.09816464 0.31670243 0.39081934
v 1.7881394E-08 0.31670243 0.34781495
v -0.0880037 0.31670243 0.33387652
v -1.2200326E-08 0.31670243 0.39081934
v -0.09755285 0.31670243 0.39468205
v 1.6391278E-08 0.31670243 0.33387652
v -0.08090173 0.31670243 0.3199381
v -1.2293458E-08 0.31670243 0.39468205
v -0.096329264 0.31670243 0.4024075
v 1.4901161E-08 0.31670243 0.3199381
v -0.05877855 0.31670243 0.2978149
v -1.2479723E-08 0.31670243 0.40240747
v -0.09373772 0.31670243 0.41230002
v 5.9604646E-09 0.31670243 0.2978149
v -0.030901715 0.31670243 0.28361094
v -1.24107205E-08 0.31670243 0.41230002
v -0.08740503 0.31670243 0.4248
v -0 0.31670243 0.28361094
v -0 0.31670243 0.2787166
v 0.030901715 0.31670243 0.28361094
v 0.05877856 0.31670243 0.2978149
v 0.08090176 0.31670243 0.3199381
v 0.08800373 0.31670243 0.33387652
v 0.095105715 0.31670243 0.34781495
v 0.09755286 0.31670243 0.3632658
v 0.1 0.31670243 0.37871665
v 0.09864227 0.31670243 0.38766968
v 0.09816462 0.31670243 0.39081934
v 0.09755283 0.31670243 0.39468205
v 0.096329235 0.31670243 0.40240747
v 0.0937377 0.31670243 0.41230002
v 0.08740501 0.31670243 0.4248
v -1.1083842E-08 0.31670243 0.4248
v 0.07925075 0.31670243 0.4390134
v -0.079250775 0.31670243 0.43901345
v -9.394856E-09 0.31670243 0.43904352
v 0.06645449 0.31670243 0.45197216
v -0.0664545 0.31670243 0.45197216
v -7.744707E-09 0.31670243 0.45198378
v 0.051745337 0.31670243 0.46315452
v -0.05174535 0.31670243 0.46315452
v -6.480057E-09 0.31670243 0.46316034
v 0.030912284 0.31670243 0.4738
v -0.030912293 0.31670243 0.4738
v -5.2154063E-09 0.31670243 0.4738
v -3.72529E-09 0.31670243 0.47874284
v -1.1920929E-08 0.3175024 0.37871662
v -0.100000024 0.3175024 0.37871662
v -0.09755285 0.3175024 0.36326578
v -0.09864229 0.3175024 0.3876697
v 2.9802323E-09 0.3175024 0.36326575
v -0.09510568 0.3175024 0.34781495
v -1.2127616E-08 0.3175024 0.38766974
v -0.09816464 0.3175024 0.39081937
v 1.7881394E-08 0.3175024 0.34781486
v -0.08800524 0.3175024 0.33387953
v -1.2200326E-08 0.3175024 0.39081937
v -0.09755285 0.3175024 0.39468208
v 1.4901161E-08 0.3175024 0.33387947
v -0.08090478 0.3175024 0.3199441
v -1.2293458E-08 0.3175024 0.39468208
v -0.096329264 0.3175024 0.40240747
v 1.1920929E-08 0.3175024 0.31994402
v -0.08090173 0.3175024 0.3199381
v -1.2479723E-08 0.3175024 0.40240747
v -0.09373772 0.3175024 0.41230002
v 1.4901161E-08 0.3175024 0.3199381
v -0.05877855 0.3175024 0.2978149
v -1.24107205E-08 0.3175024 0.41230002
v -0.08740503 0.3175024 0.4248
v 5.9604646E-09 0.3175024 0.2978149
v -0.030901715 0.3175024 0.28361094
v -1.1083842E-08 0.3175024 0.4248
v -0.079250775 0.3175024 0.43901345
v -0 0.3175024 0.28361094
v -0 0.3175024 0.2787166
v 0.030901715 0.3175024 0.28361094
v 0.05877856 0.3175024 0.2978149
v 0.08090176 0.3175024 0.3199381
v 0.080904804 0.3175024 0.31994402
v 0.08800526 0.3175024 0.33387947
v 0.095105715 0.3175024 0.34781486
v 0.09755286 0.3175024 0.36326575
v 0.1 0.3175024 0.37871662
v 0.09864227 0.3175024 0.38766974
v 0.09816462 0.3175024 0.39081937
v 0.09755283 0.3175024 0.39468208
v 0.096329235 0.3175024 0.40240747
v 0.0937377 0.3175024 0.41230002
v 0.08740501 0.3175024 0.4248
v 0.07925075 0.3175024 0.43901345
v -9.394856E-09 0.3175024 0.43904352
v 0.06645449 0.3175024 0.45197216
v -0.0664545 0.3175024 0.45197216
v -7.744707E-09 0.3175024 0.45198378
v 0.051745337 0.3175024 0.46315452
v -0.05174535 0.3175024 0.46315452
v -6.480057E-09 0.3175024 0.46316034
v 0.030912284 0.3175024 0.4738
v -0.030912293 0.3175024 0.4738
v -5.2154063E-09 0.3175024 0.4738
v -3.72529E-09 0.3175024 0.47874284
vt 0.28564453 0.25146484
vt 0.28564453 0.25146484
vt 0.2824707 0.25146484
vt 0.28564453 0.17285156
vt 0.2824707 0.17285156
vt 0.28564453 0.17285156
vt 0.27807617 0.085876465
vt 0.27807617 0.05935669
vt 0.2746582 0.05935669
vt 0.2746582 0.085876465
vt 0.27807617 0.085876465
vt 0.2746582 0.0982666
vt 0.27807617 0.0982666
vt 0.2746582 0.11645508
vt 0.27807617 0.11645508
vt 0.27807617 0.13537598
vt 0.2746582 0.13537598
vt 0.27807617 0.16003418
vt 0.2746582 0.16003418
vt 0.2746582 0.17285156
vt 0.27807617 0.17285156
vt 0.2746582 0.17285156
vt 0.27807617 0.17285156
vt 0.2746582 0.18481445
vt 0.27807617 0.18481445
vt 0.2746582 0.19128418
vt 0.27807617 0.19128418
vt 0.2746582 0.2006836
vt 0.27807617 0.2006836
vt 0.27807617 0.21594238
vt 0.2746582 0.21594238
vt 0.2746582 0.23413086
vt 0.27807617 0.23413086
vt 0.2746582 0.25146484
vt 0.27807617 0.25146484
vt 0.27807617 0.27319336
vt 0.2746582 0.27319336
vt 0.2932129 0.085876465
vt 0.2932129 0.05935669
vt 0.29003906 0.05935669
vt 0.29003906 0.085876465
vt 0.2932129 0.13537598
vt 0.29003906 0.13537598
vt 0.2932129 0.17285156
vt 0.29003906 0.17285156
vt 0.2932129 0.2006836
vt 0.29003906 0.2006836
vt 0.28564453 0.25146484
vt 0.2824707 0.25146484
vt 0.28564453 0.27319336
vt 0.2824707 0.27319336
vt 0.2824707 0.23413086
vt 0.28564453 0.25146484
vt 0.28564453 0.23413086
vt 0.2824707 0.21594238
vt 0.28564453 0.21594238
vt 0.28564453 0.2006836
vt 0.2824707 0.2006836
vt 0.28564453 0.19128418
vt 0.2824707 0.19128418
vt 0.2824707 0.18481445
vt 0.28564453 0.18481445
vt 0.2824707 0.17285156
vt 0.28564453 0.17285156
vt 0.2824707 0.17285156
vt 0.29760742 0.2006836
vt 0.30078125 0.2006836
vt 0.29760742 0.17285156
vt 0.30078125 0.17285156
vt 0.29760742 0.13537598
vt 0.30078125 0.13537598
vt 0.29760742 0.085876465
vt 0.30078125 0.085876465
vt 0.29760742 0.05935669
vt 0.30078125 0.05935669
vt 0.2824707 0.17285156
vt 0.28564453 0.17285156
vt 0.28564453 0.16003418
vt 0.2824707 0.16003418
vt 0.28564453 0.13537598
vt 0.2824707 0.13537598
vt 0.2824707 0.11645508
vt 0.28564453 0.11645508
vt 0.2824707 0.0982666
vt 0.28564453 0.0982666
vt 0.2824707 0.085876465
vt 0.28564453 0.085876465
vt 0.2824707 0.05935669
vt 0.28564453 0.05935669
vt 0.044677734 0.3515625
vt 0.0423584 0.36621094
vt 0.13696289 0.36621094
vt 0.043701172 0.375
vt 0.13696289 0.3515625
vt 0.04699707 0.33691406
vt 0.13696289 0.375
vt 0.0440979 0.3774414
vt 0.13696289 0.33691406
vt 0.053710938 0.32373047
vt 0.13696289 0.3774414
vt 0.044677734 0.38110352
vt 0.13696289 0.32373047
vt 0.060424805 0.31054688
vt 0.13696289 0.38110352
vt 0.045837402 0.38842773
vt 0.13696289 0.31054688
vt 0.08135986 0.28955078
vt 0.13696289 0.38842773
vt 0.04699707 0.39575195
vt 0.13696289 0.28955078
vt 0.10772705 0.27612305
vt 0.13696289 0.39575195
vt 0.060424805 0.42211914
vt 0.13696289 0.27612305
vt 0.13696289 0.27148438
vt 0.1661377 0.27612305
vt 0.19250488 0.28955078
vt 0.2133789 0.31054688
vt 0.22009277 0.32373047
vt 0.22680664 0.33691406
vt 0.22912598 0.3515625
vt 0.23144531 0.36621094
vt 0.23010254 0.375
vt 0.22973633 0.3774414
vt 0.22912598 0.38110352
vt 0.22802734 0.38842773
vt 0.22680664 0.39575195
vt 0.2133789 0.42211914
vt 0.13696289 0.42211914
vt 0.20507812 0.43041992
vt 0.06878662 0.43041992
vt 0.13696289 0.43041992
vt 0.19250488 0.44311523
vt 0.08135986 0.44311523
vt 0.13696289 0.44311523
vt 0.17932129 0.44970703
vt 0.09454346 0.44970703
vt 0.13696289 0.44970703
vt 0.1661377 0.45654297
vt 0.10772705 0.45654297
vt 0.13696289 0.45654297
vt 0.13696289 0.46118164
vt 0.13696289 0.13781738
vt 0.0423584 0.13781738
vt 0.044677734 0.15246582
vt 0.043701172 0.12902832
vt 0.13696289 0.15246582
vt 0.04699707 0.16711426
vt 0.13696289 0.12902832
vt 0.0440979 0.12646484
vt 0.13696289 0.16711426
vt 0.053710938 0.18029785
vt 0.13696289 0.12646484
vt 0.044677734 0.1227417
vt 0.13696289 0.18029785
vt 0.060424805 0.19335938
vt 0.13696289 0.1227417
vt 0.045837402 0.11541748
vt 0.13696289 0.19335938
vt 0.060424805 0.19348145
vt 0.13696289 0.11541748
vt 0.04699707 0.10827637
vt 0.13696289 0.19348145
vt 0.08135986 0.21435547
vt 0.13696289 0.1081543
vt 0.060424805 0.08178711
vt 0.13696289 0.21435547
vt 0.10772705 0.2277832
vt 0.13696289 0.08178711
vt 0.06878662 0.07342529
vt 0.13696289 0.2277832
vt 0.13696289 0.23242188
vt 0.1661377 0.2277832
vt 0.19250488 0.21435547
vt 0.2133789 0.19348145
vt 0.2133789 0.19335938
vt 0.22009277 0.18029785
vt 0.22680664 0.16711426
vt 0.22912598 0.15246582
vt 0.23144531 0.13781738
vt 0.23010254 0.12902832
vt 0.22973633 0.12646484
vt 0.22912598 0.1227417
vt 0.22802734 0.11541748
vt 0.22680664 0.10827637
vt 0.2133789 0.08178711
vt 0.20507812 0.07342529
vt 0.13696289 0.07342529
vt 0.19250488 0.06085205
vt 0.08135986 0.06085205
vt 0.13696289 0.06085205
vt 0.17932129 0.054138184
vt 0.09454346 0.054138184
vt 0.13696289 0.054138184
vt 0.1661377 0.047424316
vt 0.10772705 0.047424316
vt 0.13696289 0.047424316
vt 0.13696289 0.042816162
vn -0.7071404 0 -0.7070731
vn -0.8910064 0 -0.4539908
vn -0.77666736 0 -0.62991095
vn -0.98768824 -5.690802E-06 0.15643522
vn -0.98768824 -5.690957E-06 0.15643519
vn -0.9881458 -6.562049E-06 0.15351821
vn 0.7071278 0 -0.7070857
vn 0.58777976 0 -0.80902094
vn 0.58777976 0 -0.80902094
vn 0.776662 -7.997423E-06 -0.62991756
vn 0.8910059 -2.3811523E-05 -0.4539918
vn 0.89100605 -2.9754947E-05 -0.4539914
vn 0.89100605 -2.978647E-05 -0.4539914
vn 0.9510624 -2.4111327E-05 -0.30899894
vn 0.95105535 -2.4113042E-05 -0.3090204
vn 0.98768836 -1.1907024E-05 -0.15643449
vn 0.98768836 -1.1907024E-05 -0.15643449
vn 0.999005 -1.1437607E-05 -0.04459977
vn 0.99900526 -1.143758E-05 -0.04459438
vn 0.9886956 -1.01746655E-05 0.1499364
vn 0.9886956 -1.0174655E-05 0.1499364
vn 0.9881458 -8.142324E-06 0.1535181
vn 0.9881458 -8.142268E-06 0.15351821
vn 0.98768824 -2.2472896E-06 0.15643519
vn 0.98768824 -2.2471775E-06 0.15643522
vn 0.9773472 0 0.21164228
vn 0.9773472 0 0.21164228
vn 0.9289475 0 0.37021127
vn 0.9289475 0 0.37021127
vn 0.87905526 -6.129473E-06 0.47671977
vn 0.87905526 -6.129473E-06 0.47671977
vn 0.79193705 -1.6286156E-05 0.61060274
vn 0.7919324 -1.6286433E-05 0.6106089
vn 0.659649 -1.0179375E-05 0.7515738
vn 0.659649 -1.0179375E-05 0.7515738
vn 0.5233215 0 0.8521353
vn 0.5233215 0 0.8521353
vn 0.30901444 0 -0.95105743
vn 0.58777976 0 -0.80902094
vn 0.58777976 0 -0.80902094
vn 0.30901444 0 -0.95105743
vn -0 0 -1
vn -0 0 -1
vn -0.3090179 0 -0.95105624
vn -0.3090179 0 -0.95105624
vn -0.5877913 0 -0.8090127
vn -0.5877913 0 -0.8090127
vn -0.7071404 0 -0.7070731
vn -0.77666736 0 -0.62991095
vn -0.5877913 0 -0.8090127
vn -0.5877913 0 -0.8090127
vn -0.89100623 0 -0.45399117
vn -0.8910064 0 -0.4539908
vn -0.89100623 0 -0.45399117
vn -0.9510589 0 -0.3090096
vn -0.9510589 0 -0.3090096
vn -0.98768836 0 -0.1564347
vn -0.98768836 0 -0.1564347
vn -0.999005 0 -0.044599812
vn -0.99900526 0 -0.044594433
vn -0.9886956 0 0.1499364
vn -0.9886956 0 0.14993642
vn -0.9881458 -6.5618274E-06 0.1535181
vn -0.9881458 -6.562049E-06 0.15351821
vn -0.98768824 -5.690957E-06 0.15643519
vn -0.52332944 0 0.8521304
vn -0.52332944 0 0.8521304
vn -0.2884489 0 0.95749533
vn -0.2884489 0 0.95749533
vn -0 0 1
vn -0 0 1
vn 0.2884451 0 0.9574964
vn 0.2884451 0 0.9574964
vn 0.5233215 0 0.8521353
vn 0.5233215 0 0.8521353
vn -0.98768824 -5.690957E-06 0.15643519
vn -0.98768824 -5.690802E-06 0.15643522
vn -0.9773476 7.4075474E-06 0.21164054
vn -0.97734684 7.408189E-06 0.21164404
vn -0.9289475 6.377766E-06 0.37021127
vn -0.9289475 6.377766E-06 0.37021127
vn -0.87905574 0 0.47671914
vn -0.87905574 0 0.47671914
vn -0.7919347 0 0.6106058
vn -0.7919347 0 0.6106058
vn -0.65964824 0 0.75157446
vn -0.65964824 0 0.75157446
vn -0.52332944 0 0.8521304
vn -0.52332944 0 0.8521304
vn -0 -1 0
vn -0 -1 0
vn -0 -1 0
vn -0 -1 -1.5793934E-06
vn -0 -1 0
vn -0 -1 -1.0577587E-06
vn -0 -1 -1.7571617E-06
vn -0 -1 1.94706E-06
vn -0 -1 0
vn -0 -1 0
vn -0 -1 0
vn -0 -1 1.0152232E-06
vn -0 -1 0
vn -0 -1 1.0795187E-06
vn -0 -1 0
vn -0 -1 0
vn -0 -1 0
vn -0 -1 0
vn -0 -1 0
vn -0 -1 0
vn -0 -1 0
vn -0 -1 0
vn -0 -1 0
vn -0 -1 -1.1035396E-06
vn -0 -1 0
vn -0 -1 0
vn -0 -1 1.0845788E-06
vn -0 -1 0
vn -0 -1 0
vn -0 -1 0
vn -0 -1 0
vn -0 -1 0
vn -0 -1 0
vn -0 -1 -2.156091E-06
vn -0 -1 0
vn -0 -1 0
vn -0 -1 0
vn -0 -1 0
vn -0 -1 0
vn -0 -1 -1.2347335E-06
vn -0 -1 -2.002343E-06
vn -0 -1 -1.4360654E-06
vn -0 -1 -1.2453139E-06
vn -0 -1 -1.0678069E-06
vn -0 -1 2.1405049E-06
vn -0 -1 1.3618036E-06
vn -0 -1 3.3065658E-06
vn -0 -1 2.5641646E-06
vn -0 -1 1.9844535E-06
vn -0 -1 0
vn -0 -1 0
vn -0 -1 0
vn -0 -1 0
vn -0 1 0
vn -0 1 0
vn -0 1 0
vn -0 1 2.3688983E-06
vn -0 1 0
vn -0 1 0
vn -0 1 2.1823598E-06
vn -0 1 0
vn -0 1 0
vn -0 1 -1.3265687E-06
vn -0 1 0
vn -0 1 0
vn -0 1 -1.0844294E-06
vn -0 1 0
vn -0 1 0
vn -0 1 0
vn -0 1 -1.6261008E-06
vn -0 1 1.1693157E-06
vn -0 1 0
vn -0 1 0
vn -0 1 0
vn -0 1 -1.2125931E-06
vn -0 1 0
vn -0 1 1.6101128E-06
vn -0 1 0
vn -0 1 0
vn -0 1 0
vn -0 1 0
vn -0 1 -1.1815775E-06
vn -0 1 0
vn -0 1 -1.8587083E-06
vn -0 1 0
vn -0 1 0
vn -0 1 -2.8291574E-06
vn -0 1 0
vn -0 1 0
vn -0 1 0
vn -0 1 0
vn -0 1 1.6306197E-06
vn -0 1 0
vn -0 1 0
vn -0 1 0
vn -0 1 0
vn -0 1 0
vn -0 1 0
vn -0 1 0
vn -0 1 0
vn -0 1 -1.652166E-06
vn -0 1 0
vn -0 1 0
vn -0 1 0
vn -0 1 0
vn -0 1 -3.4902732E-06
vn -0 1 0
vn -0 1 -1.0355847E-06
vn -0 1 0
g Cir_0
f 3/3/3 2/2/2 1/1/1
f 6/6/6 5/5/5 4/4/4
f 9/9/9 8/8/8 7/7/7
f 7/7/7 10/10/10 9/9/9
f 7/7/7 11/11/11 10/10/10
f 12/12/12 10/10/10 11/11/11
f 11/11/11 13/13/13 12/12/12
f 14/14/14 12/12/12 13/13/13
f 13/13/13 15/15/15 14/14/14
f 14/14/14 15/15/15 16/16/16
f 14/14/14 16/16/16 17/17/17
f 17/17/17 16/16/16 18/18/18
f 17/17/17 18/18/18 19/19/19
f 20/20/20 19/19/19 18/18/18
f 18/18/18 21/21/21 20/20/20
f 20/20/20 21/21/21 22/22/22
f 23/23/23 22/22/22 21/21/21
f 22/22/22 23/23/23 24/24/24
f 25/25/25 24/24/24 23/23/23
f 24/24/24 25/25/25 26/26/26
f 27/27/27 26/26/26 25/25/25
f 26/26/26 27/27/27 28/28/28
f 29/29/29 28/28/28 27/27/27
f 28/28/28 29/29/29 30/30/30
f 28/28/28 30/30/30 31/31/31
f 32/32/32 31/31/31 30/30/30
f 30/30/30 33/33/33 32/32/32
f 34/34/34 32/32/32 33/33/33
f 33/33/33 35/35/35 34/34/34
f 36/36/36 34/34/34 35/35/35
f 34/34/34 36/36/36 37/37/37
f 40/40/40 39/39/39 38/38/38
f 38/38/38 41/41/41 40/40/40
f 41/41/41 38/38/38 42/42/42
f 42/42/42 43/43/43 41/41/41
f 43/43/43 42/42/42 44/44/44
f 44/44/44 45/45/45 43/43/43
f 45/45/45 44/44/44 46/46/46
f 46/46/46 47/47/47 45/45/45
f 50/50/50 49/49/49 48/48/48
f 50/50/50 51/51/51 49/49/49
f 53/53/53 49/49/49 52/52/52
f 52/52/52 54/54/54 53/53/53
f 54/54/54 52/52/52 55/55/55
f 54/54/54 55/55/55 56/56/56
f 57/57/57 56/56/56 55/55/55
f 55/55/55 58/58/58 57/57/57
f 59/59/59 57/57/57 58/58/58
f 58/58/58 60/60/60 59/59/59
f 59/59/59 60/60/60 61/61/61
f 59/59/59 61/61/61 62/62/62
f 62/62/62 61/61/61 63/63/63
f 62/62/62 63/63/63 64/64/64
f 64/64/64 63/63/63 65/65/65
f 68/68/68 67/67/67 66/66/66
f 67/67/67 68/68/68 69/69/69
f 70/70/70 69/69/69 68/68/68
f 69/69/69 70/70/70 71/71/71
f 72/72/72 71/71/71 70/70/70
f 71/71/71 72/72/72 73/73/73
f 74/74/74 73/73/73 72/72/72
f 73/73/73 74/74/74 75/75/75
f 78/78/78 77/77/77 76/76/76
f 76/76/76 79/79/79 78/78/78
f 80/80/80 78/78/78 79/79/79
f 79/79/79 81/81/81 80/80/80
f 80/80/80 81/81/81 82/82/82
f 80/80/80 82/82/82 83/83/83
f 83/83/83 82/82/82 84/84/84
f 83/83/83 84/84/84 85/85/85
f 85/85/85 84/84/84 86/86/86
f 85/85/85 86/86/86 87/87/87
f 88/88/88 87/87/87 86/86/86
f 87/87/87 88/88/88 89/89/89
f 92/92/92 91/91/91 90/90/90
f 93/93/93 91/91/91 92/92/92
f 90/90/90 94/94/94 92/92/92
f 90/90/90 95/95/95 94/94/94
f 92/92/92 96/96/96 93/93/93
f 97/97/97 93/93/93 96/96/96
f 95/95/95 98/98/98 94/94/94
f 98/98/98 95/95/95 99/99/99
f 96/96/96 100/100/100 97/97/97
f 101/101/101 97/97/97 100/100/100
f 99/99/99 102/102/102 98/98/98
f 102/102/102 99/99/99 103/103/103
f 100/100/100 104/104/104 101/101/101
f 105/105/105 101/101/101 104/104/104
f 103/103/103 106/106/106 102/102/102
f 106/106/106 103/103/103 107/107/107
f 104/104/104 108/108/108 105/105/105
f 109/109/109 105/105/105 108/108/108
f 107/107/107 110/110/110 106/106/106
f 107/107/107 111/111/111 110/110/110
f 108/108/108 112/112/112 109/109/109
f 113/113/113 109/109/109 112/112/112
f 111/111/111 114/114/114 110/110/110
f 115/115/115 114/114/114 111/111/111
f 116/116/116 114/114/114 115/115/115
f 110/110/110 114/114/114 116/116/116
f 110/110/110 116/116/116 117/117/117
f 106/106/106 110/110/110 117/117/117
f 117/117/117 118/118/118 106/106/106
f 102/102/102 106/106/106 118/118/118
f 118/118/118 119/119/119 102/102/102
f 98/98/98 102/102/102 119/119/119
f 119/119/119 120/120/120 98/98/98
f 94/94/94 98/98/98 120/120/120
f 120/120/120 121/121/121 94/94/94
f 92/92/92 94/94/94 121/121/121
f 121/121/121 122/122/122 92/92/92
f 92/92/92 122/122/122 123/123/123
f 96/96/96 92/92/92 123/123/123
f 96/96/96 123/123/123 124/124/124
f 100/100/100 96/96/96 124/124/124
f 100/100/100 124/124/124 125/125/125
f 104/104/104 100/100/100 125/125/125
f 104/104/104 125/125/125 126/126/126
f 126/126/126 108/108/108 104/104/104
f 108/108/108 126/126/126 127/127/127
f 127/127/127 112/112/112 108/108/108
f 112/112/112 127/127/127 128/128/128
f 128/128/128 129/129/129 112/112/112
f 112/112/112 129/129/129 113/113/113
f 129/129/129 128/128/128 130/130/130
f 131/131/131 113/113/113 129/129/129
f 130/130/130 132/132/132 129/129/129
f 129/129/129 132/132/132 131/131/131
f 130/130/130 133/133/133 132/132/132
f 134/134/134 131/131/131 132/132/132
f 135/135/135 132/132/132 133/133/133
f 132/132/132 135/135/135 134/134/134
f 135/135/135 133/133/133 136/136/136
f 137/137/137 134/134/134 135/135/135
f 136/136/136 138/138/138 135/135/135
f 135/135/135 138/138/138 137/137/137
f 136/136/136 139/139/139 138/138/138
f 140/140/140 137/137/137 138/138/138
f 141/141/141 138/138/138 139/139/139
f 138/138/138 141/141/141 140/140/140
f 142/142/142 141/141/141 139/139/139
f 140/140/140 141/141/141 142/142/142
f 145/145/145 144/144/144 143/143/143
f 143/143/143 144/144/144 146/146/146
f 143/143/143 147/147/147 145/145/145
f 148/148/148 145/145/145 147/147/147
f 149/149/149 143/143/143 146/146/146
f 149/149/149 146/146/146 150/150/150
f 147/147/147 151/151/151 148/148/148
f 152/152/152 148/148/148 151/151/151
f 150/150/150 153/153/153 149/149/149
f 153/153/153 150/150/150 154/154/154
f 151/151/151 155/155/155 152/152/152
f 156/156/156 152/152/152 155/155/155
f 154/154/154 157/157/157 153/153/153
f 157/157/157 154/154/154 158/158/158
f 155/155/155 159/159/159 156/156/156
f 160/160/160 156/156/156 159/159/159
f 158/158/158 161/161/161 157/157/157
f 161/161/161 158/158/158 162/162/162
f 159/159/159 163/163/163 160/160/160
f 164/164/164 160/160/160 163/163/163
f 162/162/162 165/165/165 161/161/161
f 162/162/162 166/166/166 165/165/165
f 163/163/163 167/167/167 164/164/164
f 167/167/167 168/168/168 164/164/164
f 169/169/169 165/165/165 166/166/166
f 169/169/169 166/166/166 170/170/170
f 167/167/167 171/171/171 168/168/168
f 168/168/168 171/171/171 172/172/172
f 172/172/172 171/171/171 173/173/173
f 173/173/173 171/171/171 167/167/167
f 174/174/174 173/173/173 167/167/167
f 174/174/174 167/167/167 163/163/163
f 163/163/163 175/175/175 174/174/174
f 175/175/175 163/163/163 159/159/159
f 159/159/159 176/176/176 175/175/175
f 176/176/176 159/159/159 155/155/155
f 177/177/177 176/176/176 155/155/155
f 177/177/177 155/155/155 151/151/151
f 178/178/178 177/177/177 151/151/151
f 178/178/178 151/151/151 147/147/147
f 179/179/179 178/178/178 147/147/147
f 179/179/179 147/147/147 143/143/143
f 180/180/180 179/179/179 143/143/143
f 181/181/181 180/180/180 143/143/143
f 143/143/143 149/149/149 181/181/181
f 182/182/182 181/181/181 149/149/149
f 149/149/149 153/153/153 182/182/182
f 183/183/183 182/182/182 153/153/153
f 153/153/153 157/157/157 183/183/183
f 184/184/184 183/183/183 157/157/157
f 157/157/157 161/161/161 184/184/184
f 185/185/185 184/184/184 161/161/161
f 161/161/161 165/165/165 185/185/185
f 186/186/186 185/185/185 165/165/165
f 165/165/165 169/169/169 186/186/186
f 187/187/187 186/186/186 169/169/169
f 169/169/169 188/188/188 187/187/187
f 170/170/170 188/188/188 169/169/169
f 189/189/189 187/187/187 188/188/188
f 170/170/170 190/190/190 188/188/188
f 188/188/188 191/191/191 189/189/189
f 191/191/191 188/188/188 190/190/190
f 192/192/192 189/189/189 191/191/191
f 191/191/191 190/190/190 193/193/193
f 191/191/191 194/194/194 192/192/192
f 193/193/193 194/194/194 191/191/191
f 195/195/195 192/192/192 194/194/194
f 193/193/193 196/196/196 194/194/194
f 194/194/194 197/197/197 195/195/195
f 197/197/197 194/194/194 196/196/196
f 195/195/195 197/197/197 198/198/198
f 198/198/198 197/197/197 196/196/196
