g CircleGlow
v -0.84594595 -0.083318286 2.5644897E-07
v -0.8500391 -2.0663771E-07 3.396109E-08
v -1.2485973 -3.1257815E-07 0
v -1.242585 -0.12238377 0
v -0.8337057 -0.16583453 3.3974647E-08
v -1.2246058 -0.24358943 0
v -0.8134365 -0.24675365 3.3974647E-08
v -1.1948329 -0.36244914 0
v -0.78533363 -0.32529566 3.3974647E-08
v -1.1535535 -0.4778172 0
v -0.74966747 -0.40070567 3.3974647E-08
v -1.1011643 -0.5885847 0
v -0.7067814 -0.47225657 2.5629996E-07
v -1.0381705 -0.69368386 0
v -0.657089 -0.5392591 2.5629996E-07
v -0.9651786 -0.79210174 0
v -0.60106844 -0.6010684 3.3974647E-08
v -0.88289165 -0.88289154 0
v -0.5392589 -0.6570893 3.3974647E-08
v -0.79210156 -0.9651789 0
v -0.47225633 -0.7067816 3.3974647E-08
v -0.6936835 -1.0381707 0
v -0.4007059 -0.74966747 3.3974647E-08
v -0.588585 -1.1011645 0
v -0.32529584 -0.78533375 3.3974647E-08
v -0.47781742 -1.1535535 0
v -0.24675302 -0.8134368 2.5629996E-07
v -0.3624482 -1.194833 0
v -0.16583425 -0.8337059 3.3974647E-08
v -0.24358906 -1.2246058 0
v -0.08331844 -0.8459458 3.3974647E-08
v -0.12238401 -1.242585 0
v 2.2405767E-07 -0.8500392 3.3974647E-08
v 3.1505562E-07 -1.2485973 0
v 0.08331848 -0.8459457 2.5629996E-07
v 0.12238401 -1.242585 0
v 0.16583432 -0.8337059 3.3974647E-08
v 0.2435891 -1.224606 0
v 0.2467534 -0.81343675 3.3974647E-08
v 0.36244884 -1.1948329 0
v 0.32529616 -0.78533345 2.5629996E-07
v 0.4778179 -1.1535531 0
v 0.40070575 -0.74966747 3.3974647E-08
v 0.58858484 -1.1011643 0
v 0.47225654 -0.7067817 3.3974647E-08
v 0.6936835 -1.0381707 0
v 0.5392593 -0.657089 3.3974647E-08
v 0.79210186 -0.9651785 0
v 0.6010685 -0.6010684 3.3974647E-08
v 0.8828916 -0.88289154 0
v 0.6570893 -0.5392589 2.5629996E-07
v 0.9651788 -0.79210156 0
v 0.7067818 -0.47225633 3.3974647E-08
v 1.0381707 -0.6936833 0
v 0.74966764 -0.4007055 3.3974647E-08
v 1.1011646 -0.5885845 0
v 0.7853339 -0.32529563 3.3974647E-08
v 1.1535537 -0.4778172 0
v 0.8134368 -0.24675326 3.3974647E-08
v 1.194833 -0.36244857 0
v 0.8337059 -0.16583432 3.3974647E-08
v 1.2246058 -0.24358915 0
v 0.845946 -0.083318286 2.5644897E-07
v 1.242585 -0.12238377 0
v 0.85003924 1.44653E-07 3.396109E-08
v 1.2485973 2.034223E-07 0
v 0.845946 0.083318174 2.5644897E-07
v 1.242585 0.12238358 0
v 0.8337059 0.16583438 2.5644897E-07
v 1.2246058 0.24358924 0
v 0.81343675 0.24675357 3.3974647E-08
v 1.1948329 0.36244896 0
v 0.7853335 0.32529634 3.3974647E-08
v 1.1535532 0.47781816 0
v 0.7496676 0.40070555 2.5629996E-07
v 1.1011645 0.58858454 0
v 0.7067817 0.4722566 3.3974647E-08
v 1.0381706 0.6936837 0
v 0.65708894 0.5392594 2.5629996E-07
v 0.9651782 0.79210204 0
v 0.60106874 0.6010683 3.3974647E-08
v 0.8828918 0.8828914 0
v 0.5392591 0.6570891 3.3974647E-08
v 0.79210156 0.9651788 0
v 0.4722563 0.7067818 3.3974647E-08
v 0.69368315 1.0381709 0
v 0.4007052 0.7496678 3.3974647E-08
v 0.588584 1.1011649 0
v 0.32529593 0.78533363 2.5629996E-07
v 0.47781754 1.1535532 0
v 0.24675314 0.8134368 3.3974647E-08
v 0.36244845 1.194833 0
v 0.16583405 0.83370596 3.3974647E-08
v 0.24358872 1.224606 0
v 0.08331858 0.8459458 2.5629996E-07
v 0.122384205 1.242585 0
v -5.2920242E-08 0.8500392 3.3974647E-08
v -9.178901E-08 1.2485973 0
v -0.08331872 0.8459457 3.3974647E-08
v -0.12238442 1.242585 0
v -0.16583492 0.8337058 3.3974647E-08
v -0.24358998 1.2246056 0
v -0.24675329 0.81343675 2.5629996E-07
v -0.3624486 1.1948329 0
v -0.32529604 0.7853337 3.3974647E-08
v -0.47781774 1.1535532 0
v -0.40070614 0.7496674 3.3974647E-08
v -0.5885853 1.1011642 0
v -0.47225627 0.70678174 2.5629996E-07
v -0.6936832 1.0381708 0
v -0.53925914 0.6570891 3.3974647E-08
v -0.79210186 0.96517867 0
v -0.6010687 0.6010682 3.3974647E-08
v -0.8828919 0.88289124 0
v -0.6570891 0.539259 2.5629996E-07
v -0.9651788 0.79210144 0
v -0.7067815 0.47225645 2.5629996E-07
v -1.0381707 0.6936835 0
v -0.7496676 0.4007055 3.3974647E-08
v -1.1011646 0.58858436 0
v -0.7853337 0.32529548 3.3974647E-08
v -1.1535537 0.47781685 0
v -0.8134366 0.2467534 3.3974647E-08
v -1.194833 0.36244875 0
v -0.8337057 0.16583423 3.3974647E-08
v -1.2246058 0.24358903 0
v -0.84594595 0.083318025 2.5644897E-07
v -1.242585 0.12238336 0
v -0.8500391 -2.0663771E-07 3.396109E-08
v -1.2485973 -3.1257815E-07 0
vt 0.984375 1
vt 1 1
vt 1 2.9802322E-08
vt 0.984375 2.9802322E-08
vt 0.96875 1
vt 0.96875 0
vt 0.95312494 1
vt 0.95312494 0
vt 0.9375 1
vt 0.93750006 0
vt 0.921875 1
vt 0.921875 0
vt 0.90624994 0.99999994
vt 0.90625 0
vt 0.890625 0.99999994
vt 0.890625 0
vt 0.875 1
vt 0.875 0
vt 0.859375 1
vt 0.859375 0
vt 0.84375 1
vt 0.84375006 0
vt 0.82812506 1
vt 0.82812506 0
vt 0.8125 1
vt 0.8125 -5.9604645E-08
vt 0.79687494 0.9999999
vt 0.796875 -5.9604645E-08
vt 0.78125 1
vt 0.78125 -5.9604645E-08
vt 0.765625 1
vt 0.765625 -5.9604645E-08
vt 0.74999994 1
vt 0.75 -5.9604645E-08
vt 0.734375 0.9999999
vt 0.734375 -5.9604645E-08
vt 0.71875 0.99999994
vt 0.71875006 -5.9604645E-08
vt 0.703125 0.99999994
vt 0.703125 -5.9604645E-08
vt 0.68749994 0.9999998
vt 0.68749994 -5.9604645E-08
vt 0.671875 0.99999994
vt 0.671875 -5.9604645E-08
vt 0.65625 0.99999994
vt 0.65625 -5.9604645E-08
vt 0.640625 0.99999994
vt 0.640625 -5.9604645E-08
vt 0.625 0.99999994
vt 0.625 -5.9604645E-08
vt 0.609375 0.9999999
vt 0.609375 -5.9604645E-08
vt 0.59375 1
vt 0.59375 -5.9604645E-08
vt 0.578125 1
vt 0.578125 -5.9604645E-08
vt 0.5625 1
vt 0.5625 -5.9604645E-08
vt 0.546875 1
vt 0.546875 -5.9604645E-08
vt 0.53125 1
vt 0.53125 -5.9604645E-08
vt 0.515625 0.9999999
vt 0.515625 0
vt 0.5 1
vt 0.5 0
vt 0.4843751 0.9999999
vt 0.48437506 0
vt 0.46875003 0.99999994
vt 0.46875 0
vt 0.453125 1
vt 0.45312497 0
vt 0.43749994 1
vt 0.4374999 0
vt 0.42187506 0.99999994
vt 0.42187503 0
vt 0.40625003 1
vt 0.40625 0
vt 0.39062497 0.99999994
vt 0.39062494 0
vt 0.37500006 1
vt 0.37500006 2.9802322E-08
vt 0.35937503 1
vt 0.359375 2.9802322E-08
vt 0.34375 1
vt 0.34374997 2.9802322E-08
vt 0.32812494 1
vt 0.3281249 2.9802322E-08
vt 0.31250006 0.9999999
vt 0.31250003 2.9802322E-08
vt 0.296875 1
vt 0.296875 2.9802322E-08
vt 0.28124997 1
vt 0.28124994 2.9802322E-08
vt 0.26562506 1
vt 0.26562506 2.9802322E-08
vt 0.25000006 1
vt 0.25 2.9802322E-08
vt 0.23437497 1
vt 0.23437497 5.9604645E-08
vt 0.21874994 1
vt 0.21874994 5.9604645E-08
vt 0.20312503 1
vt 0.20312503 5.9604645E-08
vt 0.1875 1
vt 0.1875 5.9604645E-08
vt 0.17187494 1
vt 0.17187494 5.9604645E-08
vt 0.15625006 1
vt 0.15625006 5.9604645E-08
vt 0.14062503 1
vt 0.14062503 5.9604645E-08
vt 0.12499997 1
vt 0.12499997 5.9604645E-08
vt 0.109375 1
vt 0.109375 2.9802322E-08
vt 0.09375003 1
vt 0.09375003 2.9802322E-08
vt 0.078125 1
vt 0.078125 2.9802322E-08
vt 0.06249994 1
vt 0.06249994 2.9802322E-08
vt 0.04687506 1
vt 0.04687506 2.9802322E-08
vt 0.03125 1
vt 0.03125 2.9802322E-08
vt 0.01562497 1
vt 0.01562497 2.9802322E-08
vt 0 1
vt 0 2.9802322E-08
vn 3.097943E-07 0 -1
vn 4.172966E-07 0 -1
vn 4.172966E-07 0 -1
vn 3.097944E-07 0 -1
vn 1.4252383E-07 5.713652E-07 -1
vn 1.4252383E-07 5.713653E-07 -1
vn -0 0 -1
vn -0 0 -1
vn -0 0 -1
vn -0 0 -1
vn 4.7264274E-07 -3.5125527E-07 -1
vn 4.7264294E-07 -3.5125544E-07 -1
vn 6.9277723E-07 -1.776313E-07 -1
vn 6.9277735E-07 -1.776313E-07 -1
vn -0 7.145121E-07 -1
vn -0 7.145122E-07 -1
vn -1.9893096E-07 5.5425676E-07 -1
vn -1.9893083E-07 5.5425653E-07 -1
vn -0 0 -1
vn -0 0 -1
vn -0 0 -1
vn -0 0 -1
vn -0 0 -1
vn -0 0 -1
vn 5.8819165E-07 0 -1
vn 5.881911E-07 0 -1
vn -0 2.978897E-07 -1
vn -0 2.978897E-07 -1
vn -4.733334E-07 3.5032735E-07 -1
vn -4.7333344E-07 3.5032735E-07 -1
vn -0 0 -1
vn -0 0 -1
vn 5.3258384E-07 2.5125325E-07 -1
vn 5.325838E-07 2.5125325E-07 -1
vn -0 3.097939E-07 -1
vn -0 3.0979388E-07 -1
vn -5.7136816E-07 1.4252356E-07 -1
vn -5.7136793E-07 1.4252353E-07 -1
vn 4.3671417E-07 3.9503504E-07 -1
vn 4.3671363E-07 3.9503482E-07 -1
vn -1.1912911E-07 2.8759618E-07 -1
vn -1.19129126E-07 2.8759618E-07 -1
vn -5.881378E-07 0 -1
vn -5.8813714E-07 0 -1
vn -0 0 -1
vn -0 0 -1
vn -0 0 -1
vn -0 0 -1
vn 1.9892981E-07 5.542552E-07 -1
vn 1.9892981E-07 5.542551E-07 -1
vn -2.4063343E-07 1.974814E-07 -1
vn -2.4063317E-07 1.9748168E-07 -1
vn -5.047969E-07 -3.0323775E-07 -1
vn -5.0479696E-07 -3.0323784E-07 -1
vn -0 0 -1
vn -0 0 -1
vn -0 0 -1
vn -0 0 -1
vn -0 0 -1
vn -0 0 -1
vn -1.4252376E-07 5.7136646E-07 -1
vn -1.4252375E-07 5.7136646E-07 -1
vn -3.0979405E-07 0 -1
vn -3.0979405E-07 0 -1
vn -4.1729672E-07 0 -1
vn -4.1729672E-07 0 -1
vn -5.2724045E-07 4.832333E-07 -1
vn -5.272403E-07 4.832339E-07 -1
vn -3.64263E-07 -6.154718E-07 -1
vn -3.6426297E-07 -6.154721E-07 -1
vn -0 -5.825838E-07 -1
vn -0 -5.8258365E-07 -1
vn -4.3594017E-07 3.9589554E-07 -1
vn -4.3594025E-07 3.958956E-07 -1
vn -2.7453865E-07 -1.4673735E-07 -1
vn -2.7453845E-07 -1.467376E-07 -1
vn -3.4696933E-07 -2.3183793E-07 -1
vn -3.4696916E-07 -2.3183814E-07 -1
vn -2.4062948E-07 -1.9748656E-07 -1
vn -2.4062908E-07 -1.9748704E-07 -1
vn 1.9893281E-07 -5.542588E-07 -1
vn 1.9893267E-07 -5.542586E-07 -1
vn -0 0 -1
vn -0 0 -1
vn -0 0 -1
vn -0 0 -1
vn -5.8813976E-07 0 -1
vn -5.8813936E-07 0 -1
vn -1.19130824E-07 -2.8759555E-07 -1
vn -1.19131236E-07 -2.8759536E-07 -1
vn 4.367144E-07 -3.9503502E-07 -1
vn 4.3671392E-07 -3.9503465E-07 -1
vn -5.7137044E-07 -1.4252316E-07 -1
vn -5.713705E-07 -1.4252319E-07 -1
vn -0 -3.097934E-07 -1
vn -0 -3.0979334E-07 -1
vn 5.3258134E-07 -2.5125308E-07 -1
vn 5.325814E-07 -2.5125308E-07 -1
vn -0 0 -1
vn -0 0 -1
vn -4.733356E-07 -3.503281E-07 -1
vn -4.7333577E-07 -3.5032818E-07 -1
vn -0 -2.9789024E-07 -1
vn -0 -2.9789032E-07 -1
vn 5.881918E-07 0 -1
vn 5.8819126E-07 0 -1
vn -3.5126E-07 -4.7264558E-07 -1
vn -3.5126016E-07 -4.7264578E-07 -1
vn 1.7294025E-07 -2.5883335E-07 -1
vn 1.7293955E-07 -2.588338E-07 -1
vn 5.7108434E-07 1.436451E-07 -1
vn 5.7108394E-07 1.4364495E-07 -1
vn -1.9893088E-07 -5.54257E-07 -1
vn -1.9893083E-07 -5.5425687E-07 -1
vn -0 -7.1451234E-07 -1
vn -0 -7.1451234E-07 -1
vn 6.92777E-07 1.7763145E-07 -1
vn 6.92777E-07 1.776315E-07 -1
vn 4.7264254E-07 3.5125527E-07 -1
vn 4.7264274E-07 3.5125544E-07 -1
vn -0 0 -1
vn -0 0 -1
vn -0 0 -1
vn -0 0 -1
vn 1.4252402E-07 -5.713654E-07 -1
vn 1.4252403E-07 -5.7136543E-07 -1
vn 3.0979425E-07 0 -1
vn 3.0979425E-07 0 -1
vn 4.172966E-07 0 -1
vn 4.172966E-07 0 -1
g CircleGlow_0
f 3/3/3 2/2/2 1/1/1
f 3/3/3 1/1/1 4/4/4
f 4/4/4 1/1/1 5/5/5
f 4/4/4 5/5/5 6/6/6
f 6/6/6 5/5/5 7/7/7
f 6/6/6 7/7/7 8/8/8
f 8/8/8 7/7/7 9/9/9
f 8/8/8 9/9/9 10/10/10
f 10/10/10 9/9/9 11/11/11
f 10/10/10 11/11/11 12/12/12
f 12/12/12 11/11/11 13/13/13
f 12/12/12 13/13/13 14/14/14
f 14/14/14 13/13/13 15/15/15
f 14/14/14 15/15/15 16/16/16
f 16/16/16 15/15/15 17/17/17
f 16/16/16 17/17/17 18/18/18
f 18/18/18 17/17/17 19/19/19
f 18/18/18 19/19/19 20/20/20
f 20/20/20 19/19/19 21/21/21
f 20/20/20 21/21/21 22/22/22
f 22/22/22 21/21/21 23/23/23
f 22/22/22 23/23/23 24/24/24
f 24/24/24 23/23/23 25/25/25
f 24/24/24 25/25/25 26/26/26
f 26/26/26 25/25/25 27/27/27
f 26/26/26 27/27/27 28/28/28
f 28/28/28 27/27/27 29/29/29
f 28/28/28 29/29/29 30/30/30
f 30/30/30 29/29/29 31/31/31
f 30/30/30 31/31/31 32/32/32
f 32/32/32 31/31/31 33/33/33
f 32/32/32 33/33/33 34/34/34
f 34/34/34 33/33/33 35/35/35
f 34/34/34 35/35/35 36/36/36
f 36/36/36 35/35/35 37/37/37
f 36/36/36 37/37/37 38/38/38
f 38/38/38 37/37/37 39/39/39
f 38/38/38 39/39/39 40/40/40
f 40/40/40 39/39/39 41/41/41
f 40/40/40 41/41/41 42/42/42
f 42/42/42 41/41/41 43/43/43
f 42/42/42 43/43/43 44/44/44
f 44/44/44 43/43/43 45/45/45
f 44/44/44 45/45/45 46/46/46
f 46/46/46 45/45/45 47/47/47
f 46/46/46 47/47/47 48/48/48
f 48/48/48 47/47/47 49/49/49
f 48/48/48 49/49/49 50/50/50
f 50/50/50 49/49/49 51/51/51
f 50/50/50 51/51/51 52/52/52
f 52/52/52 51/51/51 53/53/53
f 52/52/52 53/53/53 54/54/54
f 54/54/54 53/53/53 55/55/55
f 54/54/54 55/55/55 56/56/56
f 56/56/56 55/55/55 57/57/57
f 56/56/56 57/57/57 58/58/58
f 58/58/58 57/57/57 59/59/59
f 58/58/58 59/59/59 60/60/60
f 60/60/60 59/59/59 61/61/61
f 60/60/60 61/61/61 62/62/62
f 62/62/62 61/61/61 63/63/63
f 62/62/62 63/63/63 64/64/64
f 64/64/64 63/63/63 65/65/65
f 64/64/64 65/65/65 66/66/66
f 66/66/66 65/65/65 67/67/67
f 66/66/66 67/67/67 68/68/68
f 68/68/68 67/67/67 69/69/69
f 68/68/68 69/69/69 70/70/70
f 70/70/70 69/69/69 71/71/71
f 70/70/70 71/71/71 72/72/72
f 72/72/72 71/71/71 73/73/73
f 72/72/72 73/73/73 74/74/74
f 74/74/74 73/73/73 75/75/75
f 74/74/74 75/75/75 76/76/76
f 76/76/76 75/75/75 77/77/77
f 76/76/76 77/77/77 78/78/78
f 78/78/78 77/77/77 79/79/79
f 78/78/78 79/79/79 80/80/80
f 80/80/80 79/79/79 81/81/81
f 80/80/80 81/81/81 82/82/82
f 82/82/82 81/81/81 83/83/83
f 82/82/82 83/83/83 84/84/84
f 84/84/84 83/83/83 85/85/85
f 84/84/84 85/85/85 86/86/86
f 86/86/86 85/85/85 87/87/87
f 86/86/86 87/87/87 88/88/88
f 88/88/88 87/87/87 89/89/89
f 88/88/88 89/89/89 90/90/90
f 90/90/90 89/89/89 91/91/91
f 90/90/90 91/91/91 92/92/92
f 92/92/92 91/91/91 93/93/93
f 92/92/92 93/93/93 94/94/94
f 94/94/94 93/93/93 95/95/95
f 94/94/94 95/95/95 96/96/96
f 96/96/96 95/95/95 97/97/97
f 96/96/96 97/97/97 98/98/98
f 98/98/98 97/97/97 99/99/99
f 98/98/98 99/99/99 100/100/100
f 100/100/100 99/99/99 101/101/101
f 100/100/100 101/101/101 102/102/102
f 102/102/102 101/101/101 103/103/103
f 102/102/102 103/103/103 104/104/104
f 104/104/104 103/103/103 105/105/105
f 104/104/104 105/105/105 106/106/106
f 106/106/106 105/105/105 107/107/107
f 106/106/106 107/107/107 108/108/108
f 108/108/108 107/107/107 109/109/109
f 108/108/108 109/109/109 110/110/110
f 110/110/110 109/109/109 111/111/111
f 110/110/110 111/111/111 112/112/112
f 112/112/112 111/111/111 113/113/113
f 112/112/112 113/113/113 114/114/114
f 114/114/114 113/113/113 115/115/115
f 114/114/114 115/115/115 116/116/116
f 116/116/116 115/115/115 117/117/117
f 116/116/116 117/117/117 118/118/118
f 118/118/118 117/117/117 119/119/119
f 118/118/118 119/119/119 120/120/120
f 120/120/120 119/119/119 121/121/121
f 120/120/120 121/121/121 122/122/122
f 122/122/122 121/121/121 123/123/123
f 122/122/122 123/123/123 124/124/124
f 124/124/124 123/123/123 125/125/125
f 124/124/124 125/125/125 126/126/126
f 126/126/126 125/125/125 127/127/127
f 126/126/126 127/127/127 128/128/128
f 128/128/128 127/127/127 129/129/129
f 128/128/128 129/129/129 130/130/130
