g CircleLineGlow
v -1.0049304 -0.098976865 2.734363E-07
v -1.0097929 -2.5152158E-07 9.159298E-09
v -1.0939069 -2.7385244E-07 0
v -1.0886394 -0.10722148 0
v -0.99038976 -0.19700095 9.0897085E-09
v -1.0728878 -0.2134108 0
v -0.9663112 -0.29312775 9.23872E-09
v -1.0468036 -0.31754485 0
v -0.93292683 -0.38643074 9.23872E-09
v -1.0106381 -0.41861978 0
v -0.8905577 -0.47601306 9.23872E-09
v -0.96473956 -0.5156641 0
v -0.8396117 -0.5610111 2.735853E-07
v -0.9095501 -0.60774237 0
v -0.7805802 -0.6406058 2.735853E-07
v -0.8456013 -0.69396716 0
v -0.71403146 -0.71403134 8.940696E-09
v -0.77350897 -0.7735089 0
v -0.6406055 -0.7805806 8.940696E-09
v -0.69396704 -0.84560156 0
v -0.5610108 -0.83961195 8.940696E-09
v -0.60774213 -0.9095503 0
v -0.47601327 -0.8905577 8.940696E-09
v -0.5156644 -0.96473956 0
v -0.38643092 -0.932927 8.940696E-09
v -0.41862 -1.0106381 0
v -0.29312703 -0.9663116 2.735853E-07
v -0.31754398 -1.0468036 0
v -0.19700064 -0.99038994 8.940696E-09
v -0.21341047 -1.0728878 0
v -0.09897705 -1.0049303 9.536743E-09
v -0.107221685 -1.0886394 0
v 2.6560366E-07 -1.0097929 9.536743E-09
v 2.7602294E-07 -1.0939069 0
v 0.09897709 -1.0049303 2.7298927E-07
v 0.107221685 -1.0886394 0
v 0.19700071 -0.99039 8.940696E-09
v 0.21341051 -1.0728879 0
v 0.29312748 -0.96631145 8.940696E-09
v 0.31754455 -1.0468035 0
v 0.38643134 -0.9329266 2.735853E-07
v 0.4186204 -1.0106379 0
v 0.4760131 -0.89055777 8.940696E-09
v 0.5156642 -0.9647397 0
v 0.56101096 -0.8396121 8.940696E-09
v 0.60774213 -0.9095503 0
v 0.64060605 -0.7805802 8.940696E-09
v 0.69396734 -0.84560126 0
v 0.7140315 -0.71403134 8.940696E-09
v 0.77350897 -0.7735089 0
v 0.7805806 -0.6406056 2.735853E-07
v 0.84560156 -0.69396704 0
v 0.83961225 -0.5610107 8.940696E-09
v 0.9095504 -0.60774195 0
v 0.89055794 -0.47601283 9.23872E-09
v 0.96473974 -0.5156639 0
v 0.9329271 -0.38643074 9.23872E-09
v 1.0106382 -0.41861978 0
v 0.96631145 -0.29312733 9.23872E-09
v 1.0468036 -0.31754434 0
v 0.99039 -0.19700074 9.0897085E-09
v 1.0728879 -0.21341056 0
v 1.0049305 -0.09897688 2.734363E-07
v 1.0886394 -0.107221484 0
v 1.009793 1.657896E-07 9.159297E-09
v 1.0939069 1.7822005E-07 0
v 1.0049305 0.09897673 2.734363E-07
v 1.0886394 0.10722131 0
v 0.99038994 0.19700079 2.734363E-07
v 1.0728878 0.21341065 0
v 0.96631134 0.2931277 9.23872E-09
v 1.0468036 0.31754467 0
v 0.9329267 0.38643155 9.23872E-09
v 1.0106379 0.41862065 0
v 0.8905578 0.47601295 2.732873E-07
v 0.96473974 0.51566404 0
v 0.8396121 0.561011 8.940696E-09
v 0.9095503 0.60774225 0
v 0.7805801 0.64060605 2.735853E-07
v 0.845601 0.6939675 0
v 0.71403164 0.7140312 8.940696E-09
v 0.77350914 0.77350885 0
v 0.64060575 0.7805804 8.940696E-09
v 0.6939671 0.8456015 0
v 0.5610107 0.83961225 8.940696E-09
v 0.60774183 0.90955055 0
v 0.47601244 0.89055806 8.940696E-09
v 0.5156635 0.96474004 0
v 0.38643104 0.9329268 2.735853E-07
v 0.41862005 1.010638 0
v 0.29312718 0.9663116 8.940696E-09
v 0.3175442 1.0468036 0
v 0.19700038 0.99039006 8.940696E-09
v 0.21341017 1.0728879 0
v 0.09897723 1.0049303 2.7298927E-07
v 0.10722185 1.0886394 0
v -6.3428615E-08 1.0097929 9.536743E-09
v -8.041716E-08 1.0939069 0
v -0.09897737 1.0049303 9.536743E-09
v -0.10722204 1.0886394 0
v -0.19700141 0.99038994 8.940696E-09
v -0.2134113 1.0728877 0
v -0.29312733 0.96631145 2.735853E-07
v -0.31754434 1.0468035 0
v -0.38643122 0.93292683 8.940696E-09
v -0.4186203 1.010638 0
v -0.4760136 0.8905575 8.940696E-09
v -0.5156647 0.96473944 0
v -0.5610107 0.8396121 2.735853E-07
v -0.6077419 0.90955037 0
v -0.64060575 0.7805804 8.940696E-09
v -0.69396734 0.8456013 0
v -0.71403164 0.71403104 8.940696E-09
v -0.7735092 0.77350867 0
v -0.7805804 0.6406056 2.735853E-07
v -0.84560156 0.693967 0
v -0.83961195 0.5610108 2.735853E-07
v -0.9095503 0.60774213 0
v -0.8905578 0.47601283 9.23872E-09
v -0.96473974 0.5156638 0
v -0.932927 0.3864305 9.23872E-09
v -1.0106382 0.41861945 0
v -0.96631134 0.2931275 9.23872E-09
v -1.0468036 0.3175445 0
v -0.9903898 0.19700061 9.0897085E-09
v -1.0728879 0.21341045 0
v -1.0049304 0.098976545 2.734363E-07
v -1.0886394 0.10722113 0
v -1.0097929 -2.5152158E-07 9.159298E-09
v -1.0939069 -2.7385244E-07 0
vt 0.984375 1
vt 1 1
vt 1 2.9802322E-08
vt 0.984375 2.9802322E-08
vt 0.96875 1
vt 0.96875 0
vt 0.95312494 1
vt 0.95312494 0
vt 0.9375 1
vt 0.93750006 0
vt 0.921875 1
vt 0.921875 0
vt 0.90624994 0.99999994
vt 0.90625 0
vt 0.890625 0.99999994
vt 0.890625 0
vt 0.875 1
vt 0.875 0
vt 0.859375 1
vt 0.859375 0
vt 0.84375 1
vt 0.84375006 0
vt 0.82812506 1
vt 0.82812506 0
vt 0.8125 1
vt 0.8125 -5.9604645E-08
vt 0.79687494 0.9999999
vt 0.796875 -5.9604645E-08
vt 0.78125 1
vt 0.78125 -5.9604645E-08
vt 0.765625 1
vt 0.765625 -5.9604645E-08
vt 0.74999994 1
vt 0.75 -5.9604645E-08
vt 0.734375 0.9999999
vt 0.734375 -5.9604645E-08
vt 0.71875 0.99999994
vt 0.71875006 -5.9604645E-08
vt 0.703125 0.99999994
vt 0.703125 -5.9604645E-08
vt 0.68749994 0.9999998
vt 0.68749994 -5.9604645E-08
vt 0.671875 0.99999994
vt 0.671875 -5.9604645E-08
vt 0.65625 0.99999994
vt 0.65625 -5.9604645E-08
vt 0.640625 0.99999994
vt 0.640625 -5.9604645E-08
vt 0.625 0.99999994
vt 0.625 -5.9604645E-08
vt 0.609375 0.9999999
vt 0.609375 -5.9604645E-08
vt 0.59375 1
vt 0.59375 -5.9604645E-08
vt 0.578125 1
vt 0.578125 -5.9604645E-08
vt 0.5625 1
vt 0.5625 -5.9604645E-08
vt 0.546875 1
vt 0.546875 -5.9604645E-08
vt 0.53125 1
vt 0.53125 -5.9604645E-08
vt 0.515625 0.9999999
vt 0.515625 0
vt 0.5 1
vt 0.5 0
vt 0.4843751 0.9999999
vt 0.48437506 0
vt 0.46875003 0.99999994
vt 0.46875 0
vt 0.453125 1
vt 0.45312497 0
vt 0.43749994 1
vt 0.4374999 0
vt 0.42187506 0.99999994
vt 0.42187503 0
vt 0.40625003 1
vt 0.40625 0
vt 0.39062497 0.99999994
vt 0.39062494 0
vt 0.37500006 1
vt 0.37500006 2.9802322E-08
vt 0.35937503 1
vt 0.359375 2.9802322E-08
vt 0.34375 1
vt 0.34374997 2.9802322E-08
vt 0.32812494 1
vt 0.3281249 2.9802322E-08
vt 0.31250006 0.9999999
vt 0.31250003 2.9802322E-08
vt 0.296875 1
vt 0.296875 2.9802322E-08
vt 0.28124997 1
vt 0.28124994 2.9802322E-08
vt 0.26562506 1
vt 0.26562506 2.9802322E-08
vt 0.25000006 1
vt 0.25 2.9802322E-08
vt 0.23437497 1
vt 0.23437497 5.9604645E-08
vt 0.21874994 1
vt 0.21874994 5.9604645E-08
vt 0.20312503 1
vt 0.20312503 5.9604645E-08
vt 0.1875 1
vt 0.1875 5.9604645E-08
vt 0.17187494 1
vt 0.17187494 5.9604645E-08
vt 0.15625006 1
vt 0.15625006 5.9604645E-08
vt 0.14062503 1
vt 0.14062503 5.9604645E-08
vt 0.12499997 1
vt 0.12499997 5.9604645E-08
vt 0.109375 1
vt 0.109375 2.9802322E-08
vt 0.09375003 1
vt 0.09375003 2.9802322E-08
vt 0.078125 1
vt 0.078125 2.9802322E-08
vt 0.06249994 1
vt 0.06249994 2.9802322E-08
vt 0.04687506 1
vt 0.04687506 2.9802322E-08
vt 0.03125 1
vt 0.03125 2.9802322E-08
vt 0.01562497 1
vt 0.01562497 2.9802322E-08
vt 0 1
vt 0 2.9802322E-08
vn 1.6092101E-06 1.58488E-07 -1
vn 1.7426196E-06 0 -1
vn 1.7426196E-06 0 -1
vn 1.6092101E-06 1.584872E-07 -1
vn 7.907779E-07 7.697505E-07 -1
vn 7.907779E-07 7.697505E-07 -1
vn 1.04202435E-07 0 -1
vn 1.04202435E-07 0 -1
vn 1.0060243E-07 0 -1
vn 1.0060243E-07 0 -1
vn 1.0996056E-06 0 -1
vn 1.0996056E-06 0 -1
vn 2.3574034E-06 8.527255E-07 -1
vn 2.3574034E-06 8.527252E-07 -1
vn 1.5003233E-06 2.0083621E-06 -1
vn 1.500324E-06 2.0083621E-06 -1
vn 2.298554E-07 1.0793586E-06 -1
vn 2.2985537E-07 1.0793586E-06 -1
vn -0 0 -1
vn -0 0 -1
vn -0 0 -1
vn -0 0 -1
vn -0 0 -1
vn -0 0 -1
vn 9.0923334E-07 6.254142E-07 -1
vn 9.0923226E-07 6.2541346E-07 -1
vn 4.693855E-07 1.5473692E-06 -1
vn 4.693853E-07 1.5473692E-06 -1
vn -4.0854212E-07 1.0251545E-06 -1
vn -4.0854212E-07 1.0251543E-06 -1
vn -0 1.08367146E-07 -1
vn -0 1.0836716E-07 -1
vn 6.006897E-07 9.257554E-07 -1
vn 6.0068953E-07 9.2575533E-07 -1
vn -1.5849417E-07 1.6092104E-06 -1
vn -1.5849363E-07 1.6092101E-06 -1
vn -7.6975397E-07 7.907787E-07 -1
vn -7.697538E-07 7.9077864E-07 -1
vn 3.0608888E-07 1.0602627E-06 -1
vn 3.060887E-07 1.0602622E-06 -1
vn -6.1880087E-07 1.4939075E-06 -1
vn -6.188002E-07 1.4939073E-06 -1
vn -9.6616E-07 5.332794E-07 -1
vn -9.66158E-07 5.3327847E-07 -1
vn -0 0 -1
vn -0 0 -1
vn -0 0 -1
vn -0 0 -1
vn -2.2985698E-07 1.0793576E-06 -1
vn -2.2985698E-07 1.079358E-06 -1
vn -1.249957E-06 1.0258108E-06 -1
vn -1.2499563E-06 1.0258117E-06 -1
vn -1.1034631E-06 0 -1
vn -1.1034635E-06 0 -1
vn -0 0 -1
vn -0 0 -1
vn -1.0060263E-07 0 -1
vn -1.0060263E-07 0 -1
vn -1.042026E-07 0 -1
vn -1.04202606E-07 0 -1
vn -7.907787E-07 7.6975135E-07 -1
vn -7.907789E-07 7.697515E-07 -1
vn -1.609212E-06 1.5849487E-07 -1
vn -1.6092122E-06 1.5849474E-07 -1
vn -1.7426219E-06 0 -1
vn -1.7426219E-06 0 -1
vn -2.4810215E-06 3.5923614E-07 -1
vn -2.4810208E-06 3.5923685E-07 -1
vn -2.269907E-06 -1.063967E-06 -1
vn -2.2699066E-06 -1.0639674E-06 -1
vn -7.115215E-07 -8.435534E-07 -1
vn -7.1152203E-07 -8.4355395E-07 -1
vn -1.0851617E-06 2.0069666E-07 -1
vn -1.0851618E-06 2.0069666E-07 -1
vn -1.4260675E-06 -7.62242E-07 -1
vn -1.4260669E-06 -7.622429E-07 -1
vn -1.4489353E-06 -9.681493E-07 -1
vn -1.4489356E-06 -9.681494E-07 -1
vn -1.2499519E-06 -1.0258169E-06 -1
vn -1.2499514E-06 -1.0258176E-06 -1
vn -2.2985401E-07 -1.0793627E-06 -1
vn -2.2985374E-07 -1.0793608E-06 -1
vn -0 0 -1
vn -0 0 -1
vn -0 0 -1
vn -0 0 -1
vn -9.661629E-07 -5.3327875E-07 -1
vn -9.661616E-07 -5.332782E-07 -1
vn -6.188038E-07 -1.4939072E-06 -1
vn -6.1880326E-07 -1.4939069E-06 -1
vn 3.060892E-07 -1.0602624E-06 -1
vn 3.0608905E-07 -1.060262E-06 -1
vn -7.6975743E-07 -7.907782E-07 -1
vn -7.697578E-07 -7.9077853E-07 -1
vn -1.5849973E-07 -1.6092104E-06 -1
vn -1.5849992E-07 -1.6092101E-06 -1
vn 6.0068743E-07 -9.257558E-07 -1
vn 6.006873E-07 -9.2575567E-07 -1
vn -0 -1.083672E-07 -1
vn -0 -1.083672E-07 -1
vn -4.0854454E-07 -1.0251573E-06 -1
vn -4.0854468E-07 -1.0251579E-06 -1
vn 4.6938422E-07 -1.5473727E-06 -1
vn 4.6938368E-07 -1.5473727E-06 -1
vn 9.092343E-07 -6.254143E-07 -1
vn 9.092331E-07 -6.254137E-07 -1
vn -0 -1.0996073E-06 -1
vn -0 -1.0996081E-06 -1
vn 8.9835027E-07 -1.3444861E-06 -1
vn 8.983499E-07 -1.3444861E-06 -1
vn 1.0516311E-06 -3.3454705E-07 -1
vn 1.0516295E-06 -3.345466E-07 -1
vn 2.2985583E-07 -1.0793591E-06 -1
vn 2.2985583E-07 -1.0793589E-06 -1
vn 1.500324E-06 -2.0083621E-06 -1
vn 1.5003246E-06 -2.0083621E-06 -1
vn 2.3574032E-06 -8.52725E-07 -1
vn 2.3574028E-06 -8.5272455E-07 -1
vn 1.0996051E-06 0 -1
vn 1.0996044E-06 0 -1
vn 1.006025E-07 0 -1
vn 1.00602485E-07 0 -1
vn 1.0420247E-07 0 -1
vn 1.04202456E-07 0 -1
vn 7.90778E-07 -7.697505E-07 -1
vn 7.907777E-07 -7.6975005E-07 -1
vn 1.6092097E-06 -1.584885E-07 -1
vn 1.6092097E-06 -1.5848781E-07 -1
vn 1.7426196E-06 0 -1
vn 1.7426196E-06 0 -1
g CircleLineGlow_0
f 3/3/3 2/2/2 1/1/1
f 3/3/3 1/1/1 4/4/4
f 4/4/4 1/1/1 5/5/5
f 4/4/4 5/5/5 6/6/6
f 6/6/6 5/5/5 7/7/7
f 6/6/6 7/7/7 8/8/8
f 8/8/8 7/7/7 9/9/9
f 8/8/8 9/9/9 10/10/10
f 10/10/10 9/9/9 11/11/11
f 10/10/10 11/11/11 12/12/12
f 12/12/12 11/11/11 13/13/13
f 12/12/12 13/13/13 14/14/14
f 14/14/14 13/13/13 15/15/15
f 14/14/14 15/15/15 16/16/16
f 16/16/16 15/15/15 17/17/17
f 16/16/16 17/17/17 18/18/18
f 18/18/18 17/17/17 19/19/19
f 18/18/18 19/19/19 20/20/20
f 20/20/20 19/19/19 21/21/21
f 20/20/20 21/21/21 22/22/22
f 22/22/22 21/21/21 23/23/23
f 22/22/22 23/23/23 24/24/24
f 24/24/24 23/23/23 25/25/25
f 24/24/24 25/25/25 26/26/26
f 26/26/26 25/25/25 27/27/27
f 26/26/26 27/27/27 28/28/28
f 28/28/28 27/27/27 29/29/29
f 28/28/28 29/29/29 30/30/30
f 30/30/30 29/29/29 31/31/31
f 30/30/30 31/31/31 32/32/32
f 32/32/32 31/31/31 33/33/33
f 32/32/32 33/33/33 34/34/34
f 34/34/34 33/33/33 35/35/35
f 34/34/34 35/35/35 36/36/36
f 36/36/36 35/35/35 37/37/37
f 36/36/36 37/37/37 38/38/38
f 38/38/38 37/37/37 39/39/39
f 38/38/38 39/39/39 40/40/40
f 40/40/40 39/39/39 41/41/41
f 40/40/40 41/41/41 42/42/42
f 42/42/42 41/41/41 43/43/43
f 42/42/42 43/43/43 44/44/44
f 44/44/44 43/43/43 45/45/45
f 44/44/44 45/45/45 46/46/46
f 46/46/46 45/45/45 47/47/47
f 46/46/46 47/47/47 48/48/48
f 48/48/48 47/47/47 49/49/49
f 48/48/48 49/49/49 50/50/50
f 50/50/50 49/49/49 51/51/51
f 50/50/50 51/51/51 52/52/52
f 52/52/52 51/51/51 53/53/53
f 52/52/52 53/53/53 54/54/54
f 54/54/54 53/53/53 55/55/55
f 54/54/54 55/55/55 56/56/56
f 56/56/56 55/55/55 57/57/57
f 56/56/56 57/57/57 58/58/58
f 58/58/58 57/57/57 59/59/59
f 58/58/58 59/59/59 60/60/60
f 60/60/60 59/59/59 61/61/61
f 60/60/60 61/61/61 62/62/62
f 62/62/62 61/61/61 63/63/63
f 62/62/62 63/63/63 64/64/64
f 64/64/64 63/63/63 65/65/65
f 64/64/64 65/65/65 66/66/66
f 66/66/66 65/65/65 67/67/67
f 66/66/66 67/67/67 68/68/68
f 68/68/68 67/67/67 69/69/69
f 68/68/68 69/69/69 70/70/70
f 70/70/70 69/69/69 71/71/71
f 70/70/70 71/71/71 72/72/72
f 72/72/72 71/71/71 73/73/73
f 72/72/72 73/73/73 74/74/74
f 74/74/74 73/73/73 75/75/75
f 74/74/74 75/75/75 76/76/76
f 76/76/76 75/75/75 77/77/77
f 76/76/76 77/77/77 78/78/78
f 78/78/78 77/77/77 79/79/79
f 78/78/78 79/79/79 80/80/80
f 80/80/80 79/79/79 81/81/81
f 80/80/80 81/81/81 82/82/82
f 82/82/82 81/81/81 83/83/83
f 82/82/82 83/83/83 84/84/84
f 84/84/84 83/83/83 85/85/85
f 84/84/84 85/85/85 86/86/86
f 86/86/86 85/85/85 87/87/87
f 86/86/86 87/87/87 88/88/88
f 88/88/88 87/87/87 89/89/89
f 88/88/88 89/89/89 90/90/90
f 90/90/90 89/89/89 91/91/91
f 90/90/90 91/91/91 92/92/92
f 92/92/92 91/91/91 93/93/93
f 92/92/92 93/93/93 94/94/94
f 94/94/94 93/93/93 95/95/95
f 94/94/94 95/95/95 96/96/96
f 96/96/96 95/95/95 97/97/97
f 96/96/96 97/97/97 98/98/98
f 98/98/98 97/97/97 99/99/99
f 98/98/98 99/99/99 100/100/100
f 100/100/100 99/99/99 101/101/101
f 100/100/100 101/101/101 102/102/102
f 102/102/102 101/101/101 103/103/103
f 102/102/102 103/103/103 104/104/104
f 104/104/104 103/103/103 105/105/105
f 104/104/104 105/105/105 106/106/106
f 106/106/106 105/105/105 107/107/107
f 106/106/106 107/107/107 108/108/108
f 108/108/108 107/107/107 109/109/109
f 108/108/108 109/109/109 110/110/110
f 110/110/110 109/109/109 111/111/111
f 110/110/110 111/111/111 112/112/112
f 112/112/112 111/111/111 113/113/113
f 112/112/112 113/113/113 114/114/114
f 114/114/114 113/113/113 115/115/115
f 114/114/114 115/115/115 116/116/116
f 116/116/116 115/115/115 117/117/117
f 116/116/116 117/117/117 118/118/118
f 118/118/118 117/117/117 119/119/119
f 118/118/118 119/119/119 120/120/120
f 120/120/120 119/119/119 121/121/121
f 120/120/120 121/121/121 122/122/122
f 122/122/122 121/121/121 123/123/123
f 122/122/122 123/123/123 124/124/124
f 124/124/124 123/123/123 125/125/125
f 124/124/124 125/125/125 126/126/126
f 126/126/126 125/125/125 127/127/127
f 126/126/126 127/127/127 128/128/128
f 128/128/128 127/127/127 129/129/129
f 128/128/128 129/129/129 130/130/130
