g Coin_Model
v -0.023480454 0.0008112669 0.14824957
v -2.5677787E-08 0.015415347 0.15009755
v -2.5677801E-08 0.0008112669 0.15009752
v -0.023480458 0.015415347 0.14824961
v -0.04638272 0.0008112669 0.1427512
v -0.046382714 0.015415347 0.14275123
v -0.0681429 0.0008112669 0.13373789
v -0.0681429 0.015415347 0.13373788
v -0.08822518 0.0008112669 0.12143145
v -0.08822516 0.015415347 0.12143145
v -0.10613503 0.0008112669 0.10613497
v -0.10613501 0.015415353 0.10613497
v -0.121431485 0.0008112669 0.088225104
v -0.121431485 0.015415353 0.088225104
v -0.1337379 0.0008112669 0.06814284
v -0.1337379 0.015415353 0.06814284
v -0.14275122 0.0008112699 0.04638265
v -0.14275125 0.015415353 0.046382662
v -0.14824958 0.0008112684 0.0234804
v -0.14824961 0.015415351 0.023480399
v -0.15009743 0.00081126875 5.9604646E-09
v -0.15009746 0.015415351 5.9604646E-09
v -0.14824945 0.0008112684 -0.023480415
v -0.14824949 0.01541535 -0.023480413
v -0.14275114 0.0008112699 -0.046382662
v -0.14275117 0.01541535 -0.046382666
v -0.1337378 0.0008112669 -0.06814284
v -0.1337378 0.015415353 -0.068142824
v -0.12143139 0.0008112669 -0.08822509
v -0.12143137 0.015415353 -0.08822509
v -0.106134914 0.0008112669 -0.10613495
v -0.10613493 0.015415347 -0.10613495
v -0.08822509 0.0008112669 -0.121431425
v -0.088225074 0.015415347 -0.12143143
v -0.068142824 0.0008112669 -0.13373785
v -0.068142824 0.015415347 -0.13373785
v -0.04638266 0.0008112669 -0.1427512
v -0.04638265 0.015415347 -0.1427512
v -0.023480404 0.0008112669 -0.14824949
v -0.0234804 0.015415347 -0.14824955
v 2.3528E-08 0.0008112669 -0.15009747
v 2.3527992E-08 0.015415347 -0.15009749
v -2.5677801E-08 0.0008112669 0.15009752
v -2.5677787E-08 0.015415347 0.15009755
v 0.0234804 0.015415347 0.14824961
v 0.023480404 0.0008112669 0.14824957
v 0.04638267 0.015415347 0.14275123
v 0.046382654 0.0008112669 0.1427512
v 0.06814283 0.015415347 0.1337379
v 0.06814281 0.0008112669 0.13373789
v 0.0882251 0.015415347 0.12143147
v 0.088225104 0.0008112669 0.12143147
v 0.106134966 0.015415353 0.10613501
v 0.10613494 0.0008112669 0.106135
v 0.12143145 0.015415353 0.08822515
v 0.12143145 0.0008112669 0.08822516
v 0.13373788 0.015415353 0.06814288
v 0.13373786 0.0008112669 0.06814288
v 0.14275125 0.015415353 0.046382714
v 0.14275122 0.0008112669 0.046382714
v 0.14824957 0.015415351 0.023480458
v 0.14824955 0.0008112699 0.023480458
v 0.15009753 0.01541535 3.054738E-08
v 0.15009752 0.00081126887 3.054738E-08
v 0.14824957 0.015415351 -0.023480391
v 0.14824955 0.0008112699 -0.023480395
v 0.14275125 0.015415353 -0.046382654
v 0.14275122 0.0008112699 -0.04638266
v 0.13373789 0.015415353 -0.068142824
v 0.13373789 0.0008112669 -0.06814284
v 0.12143146 0.015415353 -0.08822506
v 0.12143146 0.0008112669 -0.08822509
v 0.10613499 0.015415347 -0.10613494
v 0.106134966 0.0008112669 -0.10613494
v 0.08822512 0.015415347 -0.1214314
v 0.08822513 0.0008112669 -0.12143141
v 0.06814286 0.015415347 -0.13373785
v 0.06814286 0.0008112669 -0.13373783
v 0.046382707 0.015415347 -0.1427512
v 0.046382707 0.0008112669 -0.1427512
v 0.02348045 0.015415347 -0.14824955
v 0.023480447 0.0008112669 -0.14824949
v 2.3527992E-08 0.015415347 -0.15009749
v 2.3528E-08 0.0008112669 -0.15009747
v -0.14818065 1.461007E-09 -5.9604646E-09
v 7.871601E-09 -2.6169757E-05 -5.9604646E-09
v -0.14635627 1.4901161E-09 -0.02318057
v -0.1463564 1.4901161E-09 0.023180528
v -0.14092816 2.9802323E-09 -0.045790344
v -0.14092825 2.9802323E-09 0.045790326
v -0.13202994 0 -0.0672726
v -0.13203001 0 0.067272596
v -0.11988064 0 -0.08709841
v -0.119880736 0 0.08709844
v -0.104779534 0 -0.104779564
v -0.104779616 0 0.1047796
v -0.087098405 0 -0.11988071
v -0.08709851 0 0.1198807
v -0.067272596 0 -0.13202997
v -0.06727269 0 0.13203
v -0.045790326 0 -0.14092821
v -0.045790385 0 0.14092824
v -0.023180546 0 -0.14635637
v -0.02318061 0 0.14635639
v 2.3698602E-08 0 -0.1481807
v -2.4878801E-08 0 0.14818071
v 0.023180587 0 -0.14635637
v 0.023180543 0 0.14635639
v 0.04579038 0 -0.14092821
v 0.045790326 0 0.14092824
v 0.06727264 0 -0.13202997
v 0.06727261 0 0.13203
v 0.087098464 0 -0.11988067
v 0.087098435 0 0.11988073
v 0.10477964 0 -0.104779564
v 0.104779616 0 0.1047796
v 0.11988071 0 -0.08709841
v 0.11988069 0 0.08709847
v 0.13202997 0 -0.0672726
v 0.13202997 0 0.06727264
v 0.14092824 0 -0.045790322
v 0.14092824 2.9802323E-09 0.04579037
v 0.14635636 1.4901161E-09 -0.023180546
v 0.14635636 1.4901161E-09 0.023180587
v 0.14818074 1.1628004E-09 1.8626451E-08
v -0.14635627 1.4901161E-09 -0.02318057
v -0.15009743 0.00081126875 5.9604646E-09
v -0.14818065 1.461007E-09 -5.9604646E-09
v -0.14824945 0.0008112684 -0.023480415
v -0.14824958 0.0008112684 0.0234804
v -0.14092816 2.9802323E-09 -0.045790344
v -0.1463564 1.4901161E-09 0.023180528
v -0.14275114 0.0008112699 -0.046382662
v -0.14275122 0.0008112699 0.04638265
v -0.13202994 0 -0.0672726
v -0.14092825 2.9802323E-09 0.045790326
v -0.1337378 0.0008112669 -0.06814284
v -0.1337379 0.0008112669 0.06814284
v -0.11988064 0 -0.08709841
v -0.13203001 0 0.067272596
v -0.12143139 0.0008112669 -0.08822509
v -0.121431485 0.0008112669 0.088225104
v -0.104779534 0 -0.104779564
v -0.119880736 0 0.08709844
v -0.106134914 0.0008112669 -0.10613495
v -0.10613503 0.0008112669 0.10613497
v -0.087098405 0 -0.11988071
v -0.104779616 0 0.1047796
v -0.08822509 0.0008112669 -0.121431425
v -0.08822518 0.0008112669 0.12143145
v -0.067272596 0 -0.13202997
v -0.08709851 0 0.1198807
v -0.068142824 0.0008112669 -0.13373785
v -0.0681429 0.0008112669 0.13373789
v -0.045790326 0 -0.14092821
v -0.06727269 0 0.13203
v -0.04638266 0.0008112669 -0.1427512
v -0.04638272 0.0008112669 0.1427512
v -0.023180546 0 -0.14635637
v -0.045790385 0 0.14092824
v -0.023480404 0.0008112669 -0.14824949
v -0.023480454 0.0008112669 0.14824957
v 2.3698602E-08 0 -0.1481807
v -0.02318061 0 0.14635639
v 2.3528E-08 0.0008112669 -0.15009747
v -2.5677801E-08 0.0008112669 0.15009752
v 0.023180587 0 -0.14635637
v -2.4878801E-08 0 0.14818071
v 0.023480447 0.0008112669 -0.14824949
v 0.023480404 0.0008112669 0.14824957
v 0.04579038 0 -0.14092821
v 0.023180543 0 0.14635639
v 0.046382707 0.0008112669 -0.1427512
v 0.046382654 0.0008112669 0.1427512
v 0.06727264 0 -0.13202997
v 0.045790326 0 0.14092824
v 0.06814286 0.0008112669 -0.13373783
v 0.06814281 0.0008112669 0.13373789
v 0.087098464 0 -0.11988067
v 0.06727261 0 0.13203
v 0.08822513 0.0008112669 -0.12143141
v 0.088225104 0.0008112669 0.12143147
v 0.10477964 0 -0.104779564
v 0.087098435 0 0.11988073
v 0.106134966 0.0008112669 -0.10613494
v 0.10613494 0.0008112669 0.106135
v 0.11988071 0 -0.08709841
v 0.104779616 0 0.1047796
v 0.12143146 0.0008112669 -0.08822509
v 0.12143145 0.0008112669 0.08822516
v 0.13202997 0 -0.0672726
v 0.11988069 0 0.08709847
v 0.13373789 0.0008112669 -0.06814284
v 0.13373786 0.0008112669 0.06814288
v 0.14092824 0 -0.045790322
v 0.13202997 0 0.06727264
v 0.14275122 0.0008112699 -0.04638266
v 0.14275122 0.0008112669 0.046382714
v 0.14635636 1.4901161E-09 -0.023180546
v 0.14092824 2.9802323E-09 0.04579037
v 0.14824955 0.0008112699 -0.023480395
v 0.14824955 0.0008112699 0.023480458
v 0.14818074 1.1628004E-09 1.8626451E-08
v 0.14635636 1.4901161E-09 0.023180587
v 0.15009752 0.00081126887 3.054738E-08
v -0.14635627 0.016226694 -0.02318056
v 7.871601E-09 0.016226694 5.9604646E-09
v -0.14818065 0.016226694 5.9604646E-09
v -0.14092816 0.016226694 -0.045790337
v -0.1463564 0.016226692 0.023180539
v -0.13202994 0.016226692 -0.067272596
v -0.14092825 0.016226694 0.045790337
v -0.11988064 0.016226692 -0.087098405
v -0.13203001 0.016226692 0.0672726
v -0.104779534 0.016226698 -0.10477956
v -0.119880736 0.016226692 0.08709846
v -0.087098405 0.016226698 -0.1198807
v -0.104779616 0.016226692 0.104779616
v -0.067272596 0.016226698 -0.13202995
v -0.08709851 0.016226698 0.11988071
v -0.045790326 0.016226698 -0.1409282
v -0.06727269 0.016226698 0.13203
v -0.023180546 0.016226698 -0.14635636
v -0.045790385 0.016226698 0.14092825
v 2.3698602E-08 0.016226698 -0.14818068
v -0.02318061 0.016226698 0.1463564
v 0.023180587 0.016226698 -0.14635636
v -2.4878801E-08 0.016226698 0.14818072
v 0.04579038 0.016226698 -0.1409282
v 0.023180543 0.016226698 0.1463564
v 0.06727264 0.016226698 -0.13202995
v 0.045790326 0.016226698 0.14092825
v 0.087098464 0.016226698 -0.119880654
v 0.06727261 0.016226698 0.13203001
v 0.10477964 0.016226698 -0.10477956
v 0.087098435 0.016226698 0.119880736
v 0.11988071 0.016226692 -0.087098405
v 0.104779616 0.016226692 0.104779616
v 0.13202997 0.016226692 -0.067272596
v 0.11988069 0.016226692 0.08709849
v 0.14092824 0.016226692 -0.04579031
v 0.13202997 0.016226692 0.067272656
v 0.14635636 0.016226694 -0.023180533
v 0.14092824 0.016226694 0.045790378
v 0.14818074 0.016226692 3.054738E-08
v 0.14635636 0.016226692 0.023180598
v -0.14275125 0.015415353 0.046382662
v -0.14092825 0.016226694 0.045790337
v -0.13203001 0.016226692 0.0672726
v -0.1337379 0.015415353 0.06814284
v -0.14824961 0.015415351 0.023480399
v -0.119880736 0.016226692 0.08709846
v -0.1463564 0.016226692 0.023180539
v -0.121431485 0.015415353 0.088225104
v -0.15009746 0.015415351 5.9604646E-09
v -0.104779616 0.016226692 0.104779616
v -0.14818065 0.016226694 5.9604646E-09
v -0.10613501 0.015415353 0.10613497
v -0.14824949 0.01541535 -0.023480413
v -0.08709851 0.016226698 0.11988071
v -0.14635627 0.016226694 -0.02318056
v -0.08822516 0.015415347 0.12143145
v -0.14275117 0.01541535 -0.046382666
v -0.06727269 0.016226698 0.13203
v -0.14092816 0.016226694 -0.045790337
v -0.0681429 0.015415347 0.13373788
v -0.1337378 0.015415353 -0.068142824
v -0.045790385 0.016226698 0.14092825
v -0.13202994 0.016226692 -0.067272596
v -0.046382714 0.015415347 0.14275123
v -0.12143137 0.015415353 -0.08822509
v -0.02318061 0.016226698 0.1463564
v -0.11988064 0.016226692 -0.087098405
v -0.023480458 0.015415347 0.14824961
v -0.10613493 0.015415347 -0.10613495
v -2.4878801E-08 0.016226698 0.14818072
v -0.104779534 0.016226698 -0.10477956
v -2.5677787E-08 0.015415347 0.15009755
v -0.088225074 0.015415347 -0.12143143
v 0.023180543 0.016226698 0.1463564
v -0.087098405 0.016226698 -0.1198807
v 0.0234804 0.015415347 0.14824961
v -0.068142824 0.015415347 -0.13373785
v 0.045790326 0.016226698 0.14092825
v -0.067272596 0.016226698 -0.13202995
v 0.04638267 0.015415347 0.14275123
v -0.04638265 0.015415347 -0.1427512
v 0.06727261 0.016226698 0.13203001
v -0.045790326 0.016226698 -0.1409282
v 0.06814283 0.015415347 0.1337379
v -0.0234804 0.015415347 -0.14824955
v 0.087098435 0.016226698 0.119880736
v -0.023180546 0.016226698 -0.14635636
v 0.0882251 0.015415347 0.12143147
v 2.3527992E-08 0.015415347 -0.15009749
v 0.104779616 0.016226692 0.104779616
v 2.3698602E-08 0.016226698 -0.14818068
v 0.106134966 0.015415353 0.10613501
v 0.02348045 0.015415347 -0.14824955
v 0.11988069 0.016226692 0.08709849
v 0.023180587 0.016226698 -0.14635636
v 0.12143145 0.015415353 0.08822515
v 0.046382707 0.015415347 -0.1427512
v 0.13202997 0.016226692 0.067272656
v 0.04579038 0.016226698 -0.1409282
v 0.13373788 0.015415353 0.06814288
v 0.06814286 0.015415347 -0.13373785
v 0.14092824 0.016226694 0.045790378
v 0.06727264 0.016226698 -0.13202995
v 0.14275125 0.015415353 0.046382714
v 0.08822512 0.015415347 -0.1214314
v 0.14635636 0.016226692 0.023180598
v 0.087098464 0.016226698 -0.119880654
v 0.14824957 0.015415351 0.023480458
v 0.10613499 0.015415347 -0.10613494
v 0.14818074 0.016226692 3.054738E-08
v 0.10477964 0.016226698 -0.10477956
v 0.15009753 0.01541535 3.054738E-08
v 0.12143146 0.015415353 -0.08822506
v 0.14635636 0.016226694 -0.023180533
v 0.11988071 0.016226692 -0.087098405
v 0.14824957 0.015415351 -0.023480391
v 0.13373789 0.015415353 -0.068142824
v 0.14092824 0.016226692 -0.04579031
v 0.13202997 0.016226692 -0.067272596
v 0.14275125 0.015415353 -0.046382654
vt 0.01576233 0.07244873
vt 0.05218506 0.026550293
vt 0.01576233 0.026550293
vt 0.05218506 0.07244873
vt 0.01576233 0.11975098
vt 0.05218506 0.11975098
vt 0.01576233 0.16711426
vt 0.05218506 0.16711426
vt 0.01576233 0.21447754
vt 0.05218506 0.21447754
vt 0.01576233 0.26171875
vt 0.05218506 0.26171875
vt 0.01576233 0.30908203
vt 0.05218506 0.30908203
vt 0.01576233 0.3564453
vt 0.05218506 0.3564453
vt 0.01576233 0.4038086
vt 0.05218506 0.4038086
vt 0.01576233 0.45117188
vt 0.05218506 0.45117188
vt 0.01576233 0.49853516
vt 0.05218506 0.49853516
vt 0.01576233 0.54589844
vt 0.05218506 0.54589844
vt 0.01576233 0.5932617
vt 0.05218506 0.5932617
vt 0.01576233 0.640625
vt 0.05218506 0.640625
vt 0.01576233 0.6879883
vt 0.05218506 0.6879883
vt 0.01576233 0.7348633
vt 0.05218506 0.7348633
vt 0.01576233 0.78222656
vt 0.05218506 0.78222656
vt 0.01576233 0.82958984
vt 0.05218506 0.82958984
vt 0.01576233 0.8769531
vt 0.05218506 0.8769531
vt 0.01576233 0.9243164
vt 0.05218506 0.9243164
vt 0.01576233 0.97314453
vt 0.05218506 0.97314453
vt 0.01576233 0.026550293
vt 0.05218506 0.026550293
vt 0.05218506 0.07531738
vt 0.01576233 0.07531738
vt 0.05218506 0.122680664
vt 0.01576233 0.122680664
vt 0.05218506 0.17004395
vt 0.01576233 0.17004395
vt 0.05218506 0.21728516
vt 0.01576233 0.21728516
vt 0.05218506 0.26464844
vt 0.01576233 0.26464844
vt 0.05218506 0.31201172
vt 0.01576233 0.31201172
vt 0.05218506 0.359375
vt 0.01576233 0.359375
vt 0.05218506 0.40673828
vt 0.01576233 0.40673828
vt 0.05218506 0.45385742
vt 0.01576233 0.45385742
vt 0.05218506 0.50146484
vt 0.01576233 0.50146484
vt 0.05218506 0.5488281
vt 0.01576233 0.5488281
vt 0.05218506 0.5961914
vt 0.01576233 0.5961914
vt 0.05218506 0.6430664
vt 0.01576233 0.6430664
vt 0.05218506 0.6904297
vt 0.01576233 0.6904297
vt 0.05218506 0.73779297
vt 0.01576233 0.73779297
vt 0.05218506 0.78515625
vt 0.01576233 0.78515625
vt 0.05218506 0.83251953
vt 0.01576233 0.83251953
vt 0.05218506 0.8798828
vt 0.01576233 0.8798828
vt 0.05218506 0.9272461
vt 0.01576233 0.9272461
vt 0.05218506 0.97314453
vt 0.01576233 0.97314453
vt 0.09240723 0.4987793
vt 0.5371094 0.4987793
vt 0.09790039 0.42919922
vt 0.09790039 0.5683594
vt 0.11419678 0.36132812
vt 0.11419678 0.63623047
vt 0.14086914 0.296875
vt 0.14086914 0.7006836
vt 0.17736816 0.23742676
vt 0.17736816 0.7602539
vt 0.22265625 0.18432617
vt 0.22265625 0.81347656
vt 0.2758789 0.13891602
vt 0.2758789 0.8588867
vt 0.33520508 0.10247803
vt 0.33520508 0.89501953
vt 0.39990234 0.07574463
vt 0.39990234 0.921875
vt 0.46777344 0.05947876
vt 0.46777344 0.9379883
vt 0.5371094 0.053985596
vt 0.5371094 0.94384766
vt 0.6069336 0.05947876
vt 0.6069336 0.9379883
vt 0.6748047 0.07574463
vt 0.6748047 0.921875
vt 0.7392578 0.10247803
vt 0.7392578 0.89501953
vt 0.7988281 0.13891602
vt 0.7988281 0.8588867
vt 0.8515625 0.18432617
vt 0.8515625 0.81347656
vt 0.89697266 0.23742676
vt 0.89697266 0.7602539
vt 0.93359375 0.296875
vt 0.93359375 0.7006836
vt 0.9604492 0.36132812
vt 0.9604492 0.63623047
vt 0.9765625 0.42919922
vt 0.9765625 0.5683594
vt 0.9819336 0.4987793
vt 0.09790039 0.42919922
vt 0.08666992 0.4987793
vt 0.09240723 0.4987793
vt 0.09222412 0.42822266
vt 0.09222412 0.56933594
vt 0.11419678 0.36132812
vt 0.09790039 0.5683594
vt 0.10870361 0.35961914
vt 0.10870361 0.6381836
vt 0.14086914 0.296875
vt 0.11419678 0.63623047
vt 0.13574219 0.29418945
vt 0.13574219 0.7036133
vt 0.17736816 0.23742676
vt 0.14086914 0.7006836
vt 0.17272949 0.23400879
vt 0.17272949 0.7636719
vt 0.22265625 0.18432617
vt 0.17736816 0.7602539
vt 0.21862793 0.18017578
vt 0.21862793 0.8173828
vt 0.2758789 0.13891602
vt 0.22265625 0.81347656
vt 0.27246094 0.13427734
vt 0.27246094 0.86328125
vt 0.33520508 0.10247803
vt 0.2758789 0.8588867
vt 0.33276367 0.097351074
vt 0.33276367 0.9003906
vt 0.39990234 0.07574463
vt 0.33520508 0.89501953
vt 0.39794922 0.0703125
vt 0.39794922 0.9272461
vt 0.46777344 0.05947876
vt 0.39990234 0.921875
vt 0.46679688 0.05380249
vt 0.46679688 0.94384766
vt 0.5371094 0.053985596
vt 0.46777344 0.9379883
vt 0.5371094 0.04824829
vt 0.5371094 0.94921875
vt 0.6069336 0.05947876
vt 0.5371094 0.94384766
vt 0.60791016 0.05380249
vt 0.60791016 0.94384766
vt 0.6748047 0.07574463
vt 0.6069336 0.9379883
vt 0.67626953 0.0703125
vt 0.67626953 0.9272461
vt 0.7392578 0.10247803
vt 0.6748047 0.921875
vt 0.7416992 0.097351074
vt 0.7416992 0.9003906
vt 0.7988281 0.13891602
vt 0.7392578 0.89501953
vt 0.8022461 0.13427734
vt 0.8022461 0.86328125
vt 0.8515625 0.18432617
vt 0.7988281 0.8588867
vt 0.85595703 0.18017578
vt 0.85595703 0.8173828
vt 0.89697266 0.23742676
vt 0.8515625 0.81347656
vt 0.90185547 0.23400879
vt 0.90185547 0.7636719
vt 0.93359375 0.296875
vt 0.89697266 0.7602539
vt 0.93896484 0.29418945
vt 0.93896484 0.7036133
vt 0.9604492 0.36132812
vt 0.93359375 0.7006836
vt 0.9658203 0.35961914
vt 0.9658203 0.6381836
vt 0.9765625 0.42919922
vt 0.9604492 0.63623047
vt 0.9824219 0.42822266
vt 0.9824219 0.56933594
vt 0.9819336 0.4987793
vt 0.9765625 0.5683594
vt 0.98779297 0.4987793
vt 0.9765625 0.42944336
vt 0.5371094 0.49902344
vt 0.9819336 0.49902344
vt 0.95996094 0.36157227
vt 0.9765625 0.56884766
vt 0.93359375 0.29711914
vt 0.95996094 0.63671875
vt 0.89697266 0.2376709
vt 0.93359375 0.7011719
vt 0.8515625 0.18457031
vt 0.89697266 0.7607422
vt 0.79833984 0.13928223
vt 0.8515625 0.81347656
vt 0.7392578 0.1027832
vt 0.79833984 0.8588867
vt 0.6743164 0.076049805
vt 0.7392578 0.8955078
vt 0.6064453 0.059783936
vt 0.6743164 0.9223633
vt 0.5371094 0.05432129
vt 0.6064453 0.93847656
vt 0.4675293 0.059783936
vt 0.5371094 0.94384766
vt 0.3996582 0.076049805
vt 0.4675293 0.93847656
vt 0.33520508 0.1027832
vt 0.3996582 0.9223633
vt 0.27563477 0.13928223
vt 0.33520508 0.8955078
vt 0.22253418 0.18457031
vt 0.27563477 0.8588867
vt 0.1772461 0.2376709
vt 0.22253418 0.81347656
vt 0.14074707 0.29711914
vt 0.1772461 0.7607422
vt 0.11401367 0.36157227
vt 0.14074707 0.7011719
vt 0.097717285 0.42944336
vt 0.11401367 0.63671875
vt 0.09222412 0.49902344
vt 0.097717285 0.56884766
vt 0.9658203 0.6381836
vt 0.95996094 0.63671875
vt 0.93359375 0.7011719
vt 0.93847656 0.7036133
vt 0.9819336 0.5698242
vt 0.89697266 0.7607422
vt 0.9765625 0.56884766
vt 0.90185547 0.76416016
vt 0.98779297 0.49902344
vt 0.8515625 0.81347656
vt 0.9819336 0.49902344
vt 0.85546875 0.8178711
vt 0.9819336 0.42871094
vt 0.79833984 0.8588867
vt 0.9765625 0.42944336
vt 0.8017578 0.86376953
vt 0.9658203 0.35986328
vt 0.7392578 0.8955078
vt 0.95996094 0.36157227
vt 0.7416992 0.9003906
vt 0.93847656 0.29467773
vt 0.6743164 0.9223633
vt 0.93359375 0.29711914
vt 0.67626953 0.9277344
vt 0.90185547 0.23425293
vt 0.6064453 0.93847656
vt 0.89697266 0.2376709
vt 0.6074219 0.94433594
vt 0.85546875 0.18054199
vt 0.5371094 0.94384766
vt 0.8515625 0.18457031
vt 0.5371094 0.94970703
vt 0.8017578 0.13464355
vt 0.4675293 0.93847656
vt 0.79833984 0.13928223
vt 0.46655273 0.94433594
vt 0.7416992 0.09765625
vt 0.3996582 0.9223633
vt 0.7392578 0.1027832
vt 0.39794922 0.9277344
vt 0.67626953 0.070617676
vt 0.33520508 0.8955078
vt 0.6743164 0.076049805
vt 0.33251953 0.9003906
vt 0.6074219 0.054107666
vt 0.27563477 0.8588867
vt 0.6064453 0.059783936
vt 0.2722168 0.86376953
vt 0.5371094 0.048553467
vt 0.22253418 0.81347656
vt 0.5371094 0.05432129
vt 0.21850586 0.8178711
vt 0.46655273 0.054107666
vt 0.1772461 0.7607422
vt 0.4675293 0.059783936
vt 0.17260742 0.76416016
vt 0.39794922 0.070617676
vt 0.14074707 0.7011719
vt 0.3996582 0.076049805
vt 0.13562012 0.7036133
vt 0.33251953 0.09765625
vt 0.11401367 0.63671875
vt 0.33520508 0.1027832
vt 0.10852051 0.6381836
vt 0.2722168 0.13464355
vt 0.097717285 0.56884766
vt 0.27563477 0.13928223
vt 0.092041016 0.5698242
vt 0.21850586 0.18054199
vt 0.09222412 0.49902344
vt 0.22253418 0.18457031
vt 0.08648682 0.49902344
vt 0.17260742 0.23425293
vt 0.097717285 0.42944336
vt 0.1772461 0.2376709
vt 0.092041016 0.42871094
vt 0.13562012 0.29467773
vt 0.11401367 0.36157227
vt 0.14074707 0.29711914
vt 0.10852051 0.35986328
vn -0.15539551 -0.117370605 0.98095703
vn -0 0.117370605 0.99316406
vn -0 -0.117370605 0.99316406
vn -0.15539551 0.117370605 0.98095703
vn -0.30688477 -0.117370605 0.94433594
vn -0.30688477 0.117370605 0.94433594
vn -0.45092773 -0.117370605 0.8847656
vn -0.45092773 0.117370605 0.8847656
vn -0.5834961 -0.117370605 0.80322266
vn -0.5834961 0.117370605 0.80322266
vn -0.70214844 -0.117370605 0.70214844
vn -0.70214844 0.117370605 0.70214844
vn -0.80322266 -0.117370605 0.5834961
vn -0.80322266 0.117370605 0.5834961
vn -0.8847656 -0.117370605 0.45092773
vn -0.8847656 0.117370605 0.45092773
vn -0.94433594 -0.117370605 0.30688477
vn -0.94433594 0.117370605 0.30688477
vn -0.98095703 -0.117370605 0.15539551
vn -0.98095703 0.117370605 0.15539551
vn -0.99316406 -0.117370605 -2.503395E-06
vn -0.99316406 0.117370605 -2.503395E-06
vn -0.98095703 -0.117370605 -0.15539551
vn -0.98095703 0.117370605 -0.15539551
vn -0.94433594 -0.117370605 -0.30688477
vn -0.94433594 0.117370605 -0.30688477
vn -0.8847656 -0.117370605 -0.45092773
vn -0.8847656 0.117370605 -0.45092773
vn -0.80322266 -0.117370605 -0.5834961
vn -0.80322266 0.117370605 -0.5834961
vn -0.70214844 -0.117370605 -0.70214844
vn -0.70214844 0.117370605 -0.70214844
vn -0.5834961 -0.117370605 -0.80322266
vn -0.5834961 0.117370605 -0.80322266
vn -0.45092773 -0.117370605 -0.8847656
vn -0.45092773 0.117370605 -0.8847656
vn -0.30688477 -0.117370605 -0.94433594
vn -0.30688477 0.117370605 -0.94433594
vn -0.15539551 -0.117370605 -0.98095703
vn -0.15539551 0.117370605 -0.98095703
vn -0 -0.117370605 -0.99316406
vn -0 0.117370605 -0.99316406
vn -0 -0.117370605 0.99316406
vn -0 0.117370605 0.99316406
vn 0.15539551 0.117370605 0.98095703
vn 0.15539551 -0.117370605 0.98095703
vn 0.30688477 0.117370605 0.94433594
vn 0.30688477 -0.117370605 0.94433594
vn 0.45092773 0.117370605 0.8847656
vn 0.45092773 -0.117370605 0.8847656
vn 0.5834961 0.117370605 0.80322266
vn 0.5834961 -0.117370605 0.80322266
vn 0.70214844 0.117370605 0.70214844
vn 0.70214844 -0.117370605 0.70214844
vn 0.80322266 0.117370605 0.5834961
vn 0.80322266 -0.117370605 0.5834961
vn 0.8847656 0.117370605 0.45092773
vn 0.8847656 -0.117370605 0.45092773
vn 0.94433594 0.117370605 0.30688477
vn 0.94433594 -0.117370605 0.30688477
vn 0.98095703 0.117370605 0.15539551
vn 0.98095703 -0.117370605 0.15539551
vn 0.99316406 0.117370605 0
vn 0.99316406 -0.117370605 0
vn 0.98095703 0.117370605 -0.15539551
vn 0.98095703 -0.117370605 -0.15539551
vn 0.94433594 0.117370605 -0.30688477
vn 0.94433594 -0.117370605 -0.30688477
vn 0.8847656 0.117370605 -0.45092773
vn 0.8847656 -0.117370605 -0.45092773
vn 0.80322266 0.117370605 -0.5834961
vn 0.80322266 -0.117370605 -0.5834961
vn 0.70214844 0.117370605 -0.70214844
vn 0.70214844 -0.117370605 -0.70214844
vn 0.5834961 0.117370605 -0.80322266
vn 0.5834961 -0.117370605 -0.80322266
vn 0.45092773 0.117370605 -0.8847656
vn 0.45092773 -0.117370605 -0.8847656
vn 0.30688477 0.117370605 -0.94433594
vn 0.30688477 -0.117370605 -0.94433594
vn 0.15539551 0.117370605 -0.98095703
vn 0.15539551 -0.117370605 -0.98095703
vn -0 0.117370605 -0.99316406
vn -0 -0.117370605 -0.99316406
vn -0.00017666817 -1 0
vn -0 -1 0
vn -0.00017440319 -1 -2.7656555E-05
vn -0.00017440319 -1 2.7656555E-05
vn -0.00016796589 -1 -5.453825E-05
vn -0.00016796589 -1 5.453825E-05
vn -0.00015735626 -1 -8.010864E-05
vn -0.00015735626 -1 8.010864E-05
vn -0.00014293194 -1 -0.00010383129
vn -0.00014293194 -1 0.00010383129
vn -0.00012493134 -1 -0.00012493134
vn -0.00012493134 -1 0.00012493134
vn -0.00010383129 -1 -0.00014293194
vn -0.00010383129 -1 0.00014293194
vn -8.016825E-05 -1 -0.00015735626
vn -8.016825E-05 -1 0.00015735626
vn -5.4597855E-05 -1 -0.00016796589
vn -5.4597855E-05 -1 0.00016796589
vn -2.7656555E-05 -1 -0.00017440319
vn -2.7656555E-05 -1 0.00017440319
vn -0 -1 -0.00017654896
vn -0 -1 0.00017654896
vn 2.7656555E-05 -1 -0.00017440319
vn 2.7656555E-05 -1 0.00017440319
vn 5.4597855E-05 -1 -0.00016796589
vn 5.4597855E-05 -1 0.00016796589
vn 8.016825E-05 -1 -0.00015735626
vn 8.016825E-05 -1 0.00015735626
vn 0.00010383129 -1 -0.00014293194
vn 0.00010383129 -1 0.00014293194
vn 0.00012493134 -1 -0.00012493134
vn 0.00012493134 -1 0.00012493134
vn 0.00014293194 -1 -0.00010383129
vn 0.00014293194 -1 0.00010383129
vn 0.00015735626 -1 -8.016825E-05
vn 0.00015735626 -1 8.010864E-05
vn 0.00016796589 -1 -5.453825E-05
vn 0.00016796589 -1 5.453825E-05
vn 0.00017440319 -1 -2.759695E-05
vn 0.00017440319 -1 2.7656555E-05
vn 0.00017666817 -1 0
vn -0.38500977 -0.92089844 -0.06097412
vn -0.99316406 -0.117370605 -2.503395E-06
vn -0.38989258 -0.92089844 -1.1920929E-06
vn -0.98095703 -0.117370605 -0.15539551
vn -0.98095703 -0.117370605 0.15539551
vn -0.37060547 -0.92089844 -0.12042236
vn -0.38500977 -0.92089844 0.06097412
vn -0.94433594 -0.117370605 -0.30688477
vn -0.94433594 -0.117370605 0.30688477
vn -0.34716797 -0.92089844 -0.17700195
vn -0.37060547 -0.92089844 0.12042236
vn -0.8847656 -0.117370605 -0.45092773
vn -0.8847656 -0.117370605 0.45092773
vn -0.3154297 -0.92089844 -0.22912598
vn -0.34716797 -0.92089844 0.17700195
vn -0.80322266 -0.117370605 -0.5834961
vn -0.80322266 -0.117370605 0.5834961
vn -0.27563477 -0.92089844 -0.27563477
vn -0.3154297 -0.92089844 0.22912598
vn -0.70214844 -0.117370605 -0.70214844
vn -0.70214844 -0.117370605 0.70214844
vn -0.22912598 -0.92089844 -0.3154297
vn -0.27563477 -0.92089844 0.27563477
vn -0.5834961 -0.117370605 -0.80322266
vn -0.5834961 -0.117370605 0.80322266
vn -0.17700195 -0.92089844 -0.34716797
vn -0.22912598 -0.92089844 0.3154297
vn -0.45092773 -0.117370605 -0.8847656
vn -0.45092773 -0.117370605 0.8847656
vn -0.12042236 -0.92089844 -0.37060547
vn -0.17700195 -0.92089844 0.34716797
vn -0.30688477 -0.117370605 -0.94433594
vn -0.30688477 -0.117370605 0.94433594
vn -0.06097412 -0.92089844 -0.38500977
vn -0.12042236 -0.92089844 0.37060547
vn -0.15539551 -0.117370605 -0.98095703
vn -0.15539551 -0.117370605 0.98095703
vn -0 -0.92089844 -0.38989258
vn -0.06097412 -0.92089844 0.38500977
vn -0 -0.117370605 -0.99316406
vn -0 -0.117370605 0.99316406
vn 0.06097412 -0.92089844 -0.38500977
vn -0 -0.92089844 0.38964844
vn 0.15539551 -0.117370605 -0.98095703
vn 0.15539551 -0.117370605 0.98095703
vn 0.12042236 -0.92089844 -0.37060547
vn 0.06097412 -0.92089844 0.38500977
vn 0.30688477 -0.117370605 -0.94433594
vn 0.30688477 -0.117370605 0.94433594
vn 0.17700195 -0.92089844 -0.34716797
vn 0.12042236 -0.92089844 0.37060547
vn 0.45092773 -0.117370605 -0.8847656
vn 0.45092773 -0.117370605 0.8847656
vn 0.22912598 -0.92089844 -0.3154297
vn 0.17700195 -0.92089844 0.34716797
vn 0.5834961 -0.117370605 -0.80322266
vn 0.5834961 -0.117370605 0.80322266
vn 0.27563477 -0.92089844 -0.27563477
vn 0.22912598 -0.92089844 0.3154297
vn 0.70214844 -0.117370605 -0.70214844
vn 0.70214844 -0.117370605 0.70214844
vn 0.3154297 -0.92089844 -0.22912598
vn 0.27563477 -0.92089844 0.27563477
vn 0.80322266 -0.117370605 -0.5834961
vn 0.80322266 -0.117370605 0.5834961
vn 0.34716797 -0.92089844 -0.17700195
vn 0.3154297 -0.92089844 0.22912598
vn 0.8847656 -0.117370605 -0.45092773
vn 0.8847656 -0.117370605 0.45092773
vn 0.37060547 -0.92089844 -0.12042236
vn 0.34716797 -0.92089844 0.17700195
vn 0.94433594 -0.117370605 -0.30688477
vn 0.94433594 -0.117370605 0.30688477
vn 0.38500977 -0.92089844 -0.06097412
vn 0.37060547 -0.92089844 0.12042236
vn 0.98095703 -0.117370605 -0.15539551
vn 0.98095703 -0.117370605 0.15539551
vn 0.38989258 -0.92089844 0
vn 0.38500977 -0.92089844 0.06097412
vn 0.99316406 -0.117370605 0
vn -0 1 0
vn -0 1 0
vn -0 1 0
vn -0 1 0
vn -0 1 0
vn -0 1 0
vn -0 1 0
vn -0 1 0
vn -0 1 0
vn -0 1 0
vn -0 1 0
vn -0 1 0
vn -0 1 0
vn -0 1 0
vn -0 1 0
vn -0 1 0
vn -0 1 0
vn -0 1 0
vn -0 1 0
vn -0 1 0
vn -0 1 0
vn -0 1 0
vn -0 1 0
vn -0 1 0
vn -0 1 0
vn -0 1 0
vn -0 1 0
vn -0 1 0
vn -0 1 0
vn -0 1 0
vn -0 1 0
vn -0 1 0
vn -0 1 0
vn -0 1 0
vn -0 1 0
vn -0 1 0
vn -0 1 0
vn -0 1 0
vn -0 1 0
vn -0 1 0
vn -0 1 0
vn -0.94433594 0.117370605 0.30688477
vn -0.37060547 0.92089844 0.1204834
vn -0.3474121 0.92089844 0.17700195
vn -0.8847656 0.117370605 0.45092773
vn -0.98095703 0.117370605 0.15539551
vn -0.3154297 0.92089844 0.22912598
vn -0.38500977 0.92089844 0.06097412
vn -0.80322266 0.117370605 0.5834961
vn -0.99316406 0.117370605 -2.503395E-06
vn -0.27563477 0.92089844 0.27563477
vn -0.38989258 0.92089844 -1.1324883E-06
vn -0.70214844 0.117370605 0.70214844
vn -0.98095703 0.117370605 -0.15539551
vn -0.22912598 0.92089844 0.3154297
vn -0.38500977 0.92089844 -0.06097412
vn -0.5834961 0.117370605 0.80322266
vn -0.94433594 0.117370605 -0.30688477
vn -0.17700195 0.92089844 0.3474121
vn -0.37060547 0.92089844 -0.1204834
vn -0.45092773 0.117370605 0.8847656
vn -0.8847656 0.117370605 -0.45092773
vn -0.1204834 0.92089844 0.37060547
vn -0.3474121 0.92089844 -0.17700195
vn -0.30688477 0.117370605 0.94433594
vn -0.80322266 0.117370605 -0.5834961
vn -0.06097412 0.92089844 0.38500977
vn -0.3154297 0.92089844 -0.22912598
vn -0.15539551 0.117370605 0.98095703
vn -0.70214844 0.117370605 -0.70214844
vn -0 0.92089844 0.38989258
vn -0.27563477 0.92089844 -0.27563477
vn -0 0.117370605 0.99316406
vn -0.5834961 0.117370605 -0.80322266
vn 0.06097412 0.92089844 0.38500977
vn -0.22912598 0.92089844 -0.3154297
vn 0.15539551 0.117370605 0.98095703
vn -0.45092773 0.117370605 -0.8847656
vn 0.1204834 0.92089844 0.37060547
vn -0.17700195 0.92089844 -0.3474121
vn 0.30688477 0.117370605 0.94433594
vn -0.30688477 0.117370605 -0.94433594
vn 0.17700195 0.92089844 0.3474121
vn -0.1204834 0.92089844 -0.37060547
vn 0.45092773 0.117370605 0.8847656
vn -0.15539551 0.117370605 -0.98095703
vn 0.22912598 0.92089844 0.3154297
vn -0.06097412 0.92089844 -0.38500977
vn 0.5834961 0.117370605 0.80322266
vn -0 0.117370605 -0.99316406
vn 0.27563477 0.92089844 0.27563477
vn -0 0.92089844 -0.38989258
vn 0.70214844 0.117370605 0.70214844
vn 0.15539551 0.117370605 -0.98095703
vn 0.3154297 0.92089844 0.22912598
vn 0.06097412 0.92089844 -0.38500977
vn 0.80322266 0.117370605 0.5834961
vn 0.30688477 0.117370605 -0.94433594
vn 0.3474121 0.92089844 0.17700195
vn 0.1204834 0.92089844 -0.37060547
vn 0.8847656 0.117370605 0.45092773
vn 0.45092773 0.117370605 -0.8847656
vn 0.37060547 0.92089844 0.1204834
vn 0.17700195 0.92089844 -0.3474121
vn 0.94433594 0.117370605 0.30688477
vn 0.5834961 0.117370605 -0.80322266
vn 0.38500977 0.92089844 0.06097412
vn 0.22912598 0.92089844 -0.3154297
vn 0.98095703 0.117370605 0.15539551
vn 0.70214844 0.117370605 -0.70214844
vn 0.38989258 0.92089844 0
vn 0.27563477 0.92089844 -0.27563477
vn 0.99316406 0.117370605 0
vn 0.80322266 0.117370605 -0.5834961
vn 0.38500977 0.92089844 -0.06097412
vn 0.3154297 0.92089844 -0.22912598
vn 0.98095703 0.117370605 -0.15539551
vn 0.8847656 0.117370605 -0.45092773
vn 0.37060547 0.92089844 -0.12042236
vn 0.3474121 0.92089844 -0.17700195
vn 0.94433594 0.117370605 -0.30688477
g Coin_Model_0
f 3/3/3 2/2/2 1/1/1
f 2/2/2 4/4/4 1/1/1
f 1/1/1 4/4/4 5/5/5
f 4/4/4 6/6/6 5/5/5
f 5/5/5 6/6/6 7/7/7
f 6/6/6 8/8/8 7/7/7
f 7/7/7 8/8/8 9/9/9
f 8/8/8 10/10/10 9/9/9
f 9/9/9 10/10/10 11/11/11
f 10/10/10 12/12/12 11/11/11
f 11/11/11 12/12/12 13/13/13
f 12/12/12 14/14/14 13/13/13
f 13/13/13 14/14/14 15/15/15
f 14/14/14 16/16/16 15/15/15
f 15/15/15 16/16/16 17/17/17
f 16/16/16 18/18/18 17/17/17
f 17/17/17 18/18/18 19/19/19
f 18/18/18 20/20/20 19/19/19
f 19/19/19 20/20/20 21/21/21
f 20/20/20 22/22/22 21/21/21
f 21/21/21 22/22/22 23/23/23
f 22/22/22 24/24/24 23/23/23
f 23/23/23 24/24/24 25/25/25
f 24/24/24 26/26/26 25/25/25
f 25/25/25 26/26/26 27/27/27
f 26/26/26 28/28/28 27/27/27
f 27/27/27 28/28/28 29/29/29
f 28/28/28 30/30/30 29/29/29
f 29/29/29 30/30/30 31/31/31
f 30/30/30 32/32/32 31/31/31
f 31/31/31 32/32/32 33/33/33
f 32/32/32 34/34/34 33/33/33
f 33/33/33 34/34/34 35/35/35
f 34/34/34 36/36/36 35/35/35
f 35/35/35 36/36/36 37/37/37
f 36/36/36 38/38/38 37/37/37
f 37/37/37 38/38/38 39/39/39
f 38/38/38 40/40/40 39/39/39
f 39/39/39 40/40/40 41/41/41
f 40/40/40 42/42/42 41/41/41
f 45/45/45 44/44/44 43/43/43
f 46/46/46 45/45/45 43/43/43
f 47/47/47 45/45/45 46/46/46
f 48/48/48 47/47/47 46/46/46
f 49/49/49 47/47/47 48/48/48
f 50/50/50 49/49/49 48/48/48
f 51/51/51 49/49/49 50/50/50
f 52/52/52 51/51/51 50/50/50
f 53/53/53 51/51/51 52/52/52
f 54/54/54 53/53/53 52/52/52
f 55/55/55 53/53/53 54/54/54
f 56/56/56 55/55/55 54/54/54
f 57/57/57 55/55/55 56/56/56
f 58/58/58 57/57/57 56/56/56
f 59/59/59 57/57/57 58/58/58
f 60/60/60 59/59/59 58/58/58
f 61/61/61 59/59/59 60/60/60
f 62/62/62 61/61/61 60/60/60
f 63/63/63 61/61/61 62/62/62
f 64/64/64 63/63/63 62/62/62
f 65/65/65 63/63/63 64/64/64
f 66/66/66 65/65/65 64/64/64
f 67/67/67 65/65/65 66/66/66
f 68/68/68 67/67/67 66/66/66
f 69/69/69 67/67/67 68/68/68
f 70/70/70 69/69/69 68/68/68
f 71/71/71 69/69/69 70/70/70
f 72/72/72 71/71/71 70/70/70
f 73/73/73 71/71/71 72/72/72
f 74/74/74 73/73/73 72/72/72
f 75/75/75 73/73/73 74/74/74
f 76/76/76 75/75/75 74/74/74
f 77/77/77 75/75/75 76/76/76
f 78/78/78 77/77/77 76/76/76
f 79/79/79 77/77/77 78/78/78
f 80/80/80 79/79/79 78/78/78
f 81/81/81 79/79/79 80/80/80
f 82/82/82 81/81/81 80/80/80
f 83/83/83 81/81/81 82/82/82
f 84/84/84 83/83/83 82/82/82
f 87/87/87 86/86/86 85/85/85
f 85/85/85 86/86/86 88/88/88
f 89/89/89 86/86/86 87/87/87
f 88/88/88 86/86/86 90/90/90
f 91/91/91 86/86/86 89/89/89
f 90/90/90 86/86/86 92/92/92
f 93/93/93 86/86/86 91/91/91
f 92/92/92 86/86/86 94/94/94
f 95/95/95 86/86/86 93/93/93
f 94/94/94 86/86/86 96/96/96
f 97/97/97 86/86/86 95/95/95
f 96/96/96 86/86/86 98/98/98
f 99/99/99 86/86/86 97/97/97
f 98/98/98 86/86/86 100/100/100
f 101/101/101 86/86/86 99/99/99
f 100/100/100 86/86/86 102/102/102
f 103/103/103 86/86/86 101/101/101
f 102/102/102 86/86/86 104/104/104
f 105/105/105 86/86/86 103/103/103
f 104/104/104 86/86/86 106/106/106
f 107/107/107 86/86/86 105/105/105
f 106/106/106 86/86/86 108/108/108
f 109/109/109 86/86/86 107/107/107
f 108/108/108 86/86/86 110/110/110
f 111/111/111 86/86/86 109/109/109
f 110/110/110 86/86/86 112/112/112
f 113/113/113 86/86/86 111/111/111
f 112/112/112 86/86/86 114/114/114
f 115/115/115 86/86/86 113/113/113
f 114/114/114 86/86/86 116/116/116
f 117/117/117 86/86/86 115/115/115
f 116/116/116 86/86/86 118/118/118
f 119/119/119 86/86/86 117/117/117
f 118/118/118 86/86/86 120/120/120
f 121/121/121 86/86/86 119/119/119
f 120/120/120 86/86/86 122/122/122
f 123/123/123 86/86/86 121/121/121
f 122/122/122 86/86/86 124/124/124
f 125/125/125 86/86/86 123/123/123
f 124/124/124 86/86/86 125/125/125
f 128/128/128 127/127/127 126/126/126
f 127/127/127 129/129/129 126/126/126
f 130/130/130 127/127/127 128/128/128
f 126/126/126 129/129/129 131/131/131
f 132/132/132 130/130/130 128/128/128
f 129/129/129 133/133/133 131/131/131
f 134/134/134 130/130/130 132/132/132
f 131/131/131 133/133/133 135/135/135
f 136/136/136 134/134/134 132/132/132
f 133/133/133 137/137/137 135/135/135
f 138/138/138 134/134/134 136/136/136
f 135/135/135 137/137/137 139/139/139
f 140/140/140 138/138/138 136/136/136
f 137/137/137 141/141/141 139/139/139
f 142/142/142 138/138/138 140/140/140
f 139/139/139 141/141/141 143/143/143
f 144/144/144 142/142/142 140/140/140
f 141/141/141 145/145/145 143/143/143
f 146/146/146 142/142/142 144/144/144
f 143/143/143 145/145/145 147/147/147
f 148/148/148 146/146/146 144/144/144
f 145/145/145 149/149/149 147/147/147
f 150/150/150 146/146/146 148/148/148
f 147/147/147 149/149/149 151/151/151
f 152/152/152 150/150/150 148/148/148
f 149/149/149 153/153/153 151/151/151
f 154/154/154 150/150/150 152/152/152
f 151/151/151 153/153/153 155/155/155
f 156/156/156 154/154/154 152/152/152
f 153/153/153 157/157/157 155/155/155
f 158/158/158 154/154/154 156/156/156
f 155/155/155 157/157/157 159/159/159
f 160/160/160 158/158/158 156/156/156
f 157/157/157 161/161/161 159/159/159
f 162/162/162 158/158/158 160/160/160
f 159/159/159 161/161/161 163/163/163
f 164/164/164 162/162/162 160/160/160
f 161/161/161 165/165/165 163/163/163
f 166/166/166 162/162/162 164/164/164
f 163/163/163 165/165/165 167/167/167
f 168/168/168 166/166/166 164/164/164
f 165/165/165 169/169/169 167/167/167
f 170/170/170 166/166/166 168/168/168
f 167/167/167 169/169/169 171/171/171
f 172/172/172 170/170/170 168/168/168
f 169/169/169 173/173/173 171/171/171
f 174/174/174 170/170/170 172/172/172
f 171/171/171 173/173/173 175/175/175
f 176/176/176 174/174/174 172/172/172
f 173/173/173 177/177/177 175/175/175
f 178/178/178 174/174/174 176/176/176
f 175/175/175 177/177/177 179/179/179
f 180/180/180 178/178/178 176/176/176
f 177/177/177 181/181/181 179/179/179
f 182/182/182 178/178/178 180/180/180
f 179/179/179 181/181/181 183/183/183
f 184/184/184 182/182/182 180/180/180
f 181/181/181 185/185/185 183/183/183
f 186/186/186 182/182/182 184/184/184
f 183/183/183 185/185/185 187/187/187
f 188/188/188 186/186/186 184/184/184
f 185/185/185 189/189/189 187/187/187
f 190/190/190 186/186/186 188/188/188
f 187/187/187 189/189/189 191/191/191
f 192/192/192 190/190/190 188/188/188
f 189/189/189 193/193/193 191/191/191
f 194/194/194 190/190/190 192/192/192
f 191/191/191 193/193/193 195/195/195
f 196/196/196 194/194/194 192/192/192
f 193/193/193 197/197/197 195/195/195
f 198/198/198 194/194/194 196/196/196
f 195/195/195 197/197/197 199/199/199
f 200/200/200 198/198/198 196/196/196
f 197/197/197 201/201/201 199/199/199
f 202/202/202 198/198/198 200/200/200
f 199/199/199 201/201/201 203/203/203
f 204/204/204 202/202/202 200/200/200
f 201/201/201 205/205/205 203/203/203
f 205/205/205 202/202/202 204/204/204
f 203/203/203 205/205/205 204/204/204
g Coin_Model_1
f 208/208/208 207/207/207 206/206/206
f 206/206/206 207/207/207 209/209/209
f 210/210/210 207/207/207 208/208/208
f 209/209/209 207/207/207 211/211/211
f 212/212/212 207/207/207 210/210/210
f 211/211/211 207/207/207 213/213/213
f 214/214/214 207/207/207 212/212/212
f 213/213/213 207/207/207 215/215/215
f 216/216/216 207/207/207 214/214/214
f 215/215/215 207/207/207 217/217/217
f 218/218/218 207/207/207 216/216/216
f 217/217/217 207/207/207 219/219/219
f 220/220/220 207/207/207 218/218/218
f 219/219/219 207/207/207 221/221/221
f 222/222/222 207/207/207 220/220/220
f 221/221/221 207/207/207 223/223/223
f 224/224/224 207/207/207 222/222/222
f 223/223/223 207/207/207 225/225/225
f 226/226/226 207/207/207 224/224/224
f 225/225/225 207/207/207 227/227/227
f 228/228/228 207/207/207 226/226/226
f 227/227/227 207/207/207 229/229/229
f 230/230/230 207/207/207 228/228/228
f 229/229/229 207/207/207 231/231/231
f 232/232/232 207/207/207 230/230/230
f 231/231/231 207/207/207 233/233/233
f 234/234/234 207/207/207 232/232/232
f 233/233/233 207/207/207 235/235/235
f 236/236/236 207/207/207 234/234/234
f 235/235/235 207/207/207 237/237/237
f 238/238/238 207/207/207 236/236/236
f 237/237/237 207/207/207 239/239/239
f 240/240/240 207/207/207 238/238/238
f 239/239/239 207/207/207 241/241/241
f 242/242/242 207/207/207 240/240/240
f 241/241/241 207/207/207 243/243/243
f 244/244/244 207/207/207 242/242/242
f 243/243/243 207/207/207 245/245/245
f 246/246/246 207/207/207 244/244/244
f 245/245/245 207/207/207 246/246/246
f 249/249/249 248/248/248 247/247/247
f 250/250/250 249/249/249 247/247/247
f 247/247/247 248/248/248 251/251/251
f 252/252/252 249/249/249 250/250/250
f 248/248/248 253/253/253 251/251/251
f 254/254/254 252/252/252 250/250/250
f 251/251/251 253/253/253 255/255/255
f 256/256/256 252/252/252 254/254/254
f 253/253/253 257/257/257 255/255/255
f 258/258/258 256/256/256 254/254/254
f 255/255/255 257/257/257 259/259/259
f 260/260/260 256/256/256 258/258/258
f 257/257/257 261/261/261 259/259/259
f 262/262/262 260/260/260 258/258/258
f 259/259/259 261/261/261 263/263/263
f 264/264/264 260/260/260 262/262/262
f 261/261/261 265/265/265 263/263/263
f 266/266/266 264/264/264 262/262/262
f 263/263/263 265/265/265 267/267/267
f 268/268/268 264/264/264 266/266/266
f 265/265/265 269/269/269 267/267/267
f 270/270/270 268/268/268 266/266/266
f 267/267/267 269/269/269 271/271/271
f 272/272/272 268/268/268 270/270/270
f 269/269/269 273/273/273 271/271/271
f 274/274/274 272/272/272 270/270/270
f 271/271/271 273/273/273 275/275/275
f 276/276/276 272/272/272 274/274/274
f 273/273/273 277/277/277 275/275/275
f 278/278/278 276/276/276 274/274/274
f 275/275/275 277/277/277 279/279/279
f 280/280/280 276/276/276 278/278/278
f 277/277/277 281/281/281 279/279/279
f 282/282/282 280/280/280 278/278/278
f 279/279/279 281/281/281 283/283/283
f 284/284/284 280/280/280 282/282/282
f 281/281/281 285/285/285 283/283/283
f 286/286/286 284/284/284 282/282/282
f 283/283/283 285/285/285 287/287/287
f 288/288/288 284/284/284 286/286/286
f 285/285/285 289/289/289 287/287/287
f 290/290/290 288/288/288 286/286/286
f 287/287/287 289/289/289 291/291/291
f 292/292/292 288/288/288 290/290/290
f 289/289/289 293/293/293 291/291/291
f 294/294/294 292/292/292 290/290/290
f 291/291/291 293/293/293 295/295/295
f 296/296/296 292/292/292 294/294/294
f 293/293/293 297/297/297 295/295/295
f 298/298/298 296/296/296 294/294/294
f 295/295/295 297/297/297 299/299/299
f 300/300/300 296/296/296 298/298/298
f 297/297/297 301/301/301 299/299/299
f 302/302/302 300/300/300 298/298/298
f 299/299/299 301/301/301 303/303/303
f 304/304/304 300/300/300 302/302/302
f 301/301/301 305/305/305 303/303/303
f 306/306/306 304/304/304 302/302/302
f 303/303/303 305/305/305 307/307/307
f 308/308/308 304/304/304 306/306/306
f 305/305/305 309/309/309 307/307/307
f 310/310/310 308/308/308 306/306/306
f 307/307/307 309/309/309 311/311/311
f 312/312/312 308/308/308 310/310/310
f 309/309/309 313/313/313 311/311/311
f 314/314/314 312/312/312 310/310/310
f 311/311/311 313/313/313 315/315/315
f 316/316/316 312/312/312 314/314/314
f 313/313/313 317/317/317 315/315/315
f 318/318/318 316/316/316 314/314/314
f 315/315/315 317/317/317 319/319/319
f 320/320/320 316/316/316 318/318/318
f 317/317/317 321/321/321 319/319/319
f 322/322/322 320/320/320 318/318/318
f 319/319/319 321/321/321 323/323/323
f 324/324/324 320/320/320 322/322/322
f 321/321/321 325/325/325 323/323/323
f 326/326/326 324/324/324 322/322/322
f 323/323/323 325/325/325 326/326/326
f 325/325/325 324/324/324 326/326/326
