g Coin_Model_512
v -0.007360124 -0.0081 0.14981918
v 1.8253923E-08 0.006900001 0.14999989
v 1.8253923E-08 -0.0081 0.14999989
v -0.007360124 0.006900001 0.14981918
v -0.014702535 -0.0081 0.14927757
v -0.014702535 0.006900001 0.14927757
v -0.022009525 -0.0081 0.14837633
v -0.022009525 0.006900001 0.14837633
v -0.02926349 -0.0081 0.14711764
v -0.02926349 0.006900001 0.14711764
v -0.036446963 -0.0081 0.14550455
v -0.036446963 0.006900001 0.14550455
v -0.043542627 -0.0081 0.1435409
v -0.043542627 0.006900001 0.1435409
v -0.05053339 -0.0081 0.14123146
v -0.05053339 0.006900001 0.14123146
v -0.05740242 -0.0081 0.13858178
v -0.05740242 0.006900001 0.13858178
v -0.06413316 -0.0081 0.13559823
v -0.06413316 0.006900001 0.13559823
v -0.0707094 -0.0081 0.13228802
v -0.0707094 0.006900001 0.13228802
v -0.07711529 -0.0081 0.12865916
v -0.07711529 0.006900001 0.12865916
v -0.08333541 -0.0081 0.12472029
v -0.08333541 0.006900001 0.12472029
v -0.089354746 -0.0081 0.12048099
v -0.089354746 0.006900001 0.12048099
v -0.09515884 -0.0081 0.11595142
v -0.09515884 0.006900001 0.11595142
v -0.100733675 -0.0081 0.11114254
v -0.100733675 0.006900001 0.11114254
v -0.10606583 -0.0081 0.10606587
v -0.10606583 0.006900001 0.10606587
v -0.11114248 -0.0081 0.10073371
v -0.11114248 0.006900001 0.10073371
v -0.115951374 -0.0081 0.09515886
v -0.115951374 0.006900001 0.09515886
v -0.12048093 -0.0081 0.089354776
v -0.12048093 0.006900001 0.089354776
v -0.12472023 -0.0081 0.08333542
v -0.12472023 0.006900001 0.08333542
v -0.12865907 -0.0081 0.07711531
v -0.12865907 0.006900001 0.07711531
v -0.13228796 -0.0081 0.07070942
v -0.13228796 0.006900001 0.07070942
v -0.13559815 -0.0081 0.06413318
v -0.13559815 0.006900001 0.06413318
v -0.13858168 -0.0081 0.05740244
v -0.13858168 0.006900001 0.05740244
v -0.14123136 -0.0081 0.050533414
v -0.14123136 0.006900001 0.050533414
v -0.14354078 -0.0081 0.04354265
v -0.14354078 0.006900001 0.04354265
v -0.1455044 -0.0081 0.036446985
v -0.1455044 0.006900001 0.036446985
v -0.14711751 -0.0081 0.029263515
v -0.14711751 0.006900001 0.029263515
v -0.1483762 -0.0081 0.022009552
v -0.1483762 0.006900001 0.022009552
v -0.14927742 -0.0081 0.014702561
v -0.14927742 0.006900001 0.014702561
v -0.14981902 -0.0081 0.007360153
v -0.14981902 0.006900001 0.007360153
v -0.14999995 -0.0081 6.556511E-08
v -0.14999995 0.006900001 6.556511E-08
v -0.14981925 -0.0081 -0.007360086
v -0.14981925 0.006900001 -0.007360086
v -0.14927766 -0.0081 -0.014702505
v -0.14927766 0.006900001 -0.014702505
v -0.1483764 -0.0081 -0.022009507
v -0.1483764 0.006900001 -0.022009507
v -0.14711772 -0.0081 -0.029263485
v -0.14711772 0.006900001 -0.029263485
v -0.14550462 -0.0081 -0.036446963
v -0.14550462 0.006900001 -0.036446963
v -0.143541 -0.0081 -0.043542635
v -0.143541 0.006900001 -0.043542635
v -0.14123154 -0.0081 -0.05053341
v -0.14123154 0.006900001 -0.05053341
v -0.13858186 -0.0081 -0.05740245
v -0.13858186 0.006900001 -0.05740245
v -0.13559832 -0.0081 -0.0641332
v -0.13559832 0.006900001 -0.0641332
v -0.13228811 -0.0081 -0.070709445
v -0.13228811 0.006900001 -0.070709445
v -0.12865922 -0.0081 -0.07711534
v -0.12865922 0.006900001 -0.07711534
v -0.12472036 -0.0081 -0.08333545
v -0.12472036 0.006900001 -0.08333545
v -0.12048105 -0.0081 -0.08935481
v -0.12048105 0.006900001 -0.08935481
v -0.11595149 -0.0081 -0.09515892
v -0.11595149 0.006900001 -0.09515892
v -0.111142576 -0.0081 -0.10073378
v -0.111142576 0.006900001 -0.10073378
v -0.10606593 -0.0081 -0.106065944
v -0.10606593 0.006900001 -0.106065944
v -0.10073375 -0.0081 -0.11114259
v -0.10073375 0.006900001 -0.11114259
v -0.0951589 -0.0081 -0.11595149
v -0.0951589 0.006900001 -0.11595149
v -0.089354806 -0.0081 -0.12048104
v -0.089354806 0.006900001 -0.12048104
v -0.083335444 -0.0081 -0.12472036
v -0.083335444 0.006900001 -0.12472036
v -0.07711531 -0.0081 -0.1286592
v -0.07711531 0.006900001 -0.1286592
v -0.070709415 -0.0081 -0.1322881
v -0.070709415 0.006900001 -0.1322881
v -0.06413317 -0.0081 -0.1355983
v -0.06413317 0.006900001 -0.1355983
v -0.05740242 -0.0081 -0.13858183
v -0.05740242 0.006900001 -0.13858183
v -0.050533384 -0.0081 -0.14123152
v -0.050533384 0.006900001 -0.14123152
v -0.04354261 -0.0081 -0.14354093
v -0.04354261 0.006900001 -0.14354093
v -0.036446936 -0.0081 -0.14550458
v -0.036446936 0.006900001 -0.14550458
v -0.029263455 -0.0081 -0.14711769
v -0.029263455 0.006900001 -0.14711769
v -0.022009483 -0.0081 -0.14837638
v -0.022009483 0.006900001 -0.14837638
v -0.014702484 -0.0081 -0.1492776
v -0.014702484 0.006900001 -0.1492776
v -0.007360065 -0.0081 -0.14981921
v -0.007360065 0.006900001 -0.14981921
v 8.419156E-08 -0.0081 -0.14999989
v 8.419156E-08 0.006900001 -0.14999989
v 1.8253923E-08 -0.0081 0.14999989
v 1.8253923E-08 0.006900001 0.14999989
v 0.0073601604 0.006900001 0.14981921
v 0.0073601604 -0.0081 0.14981921
v 0.014702573 0.006900001 0.1492776
v 0.014702573 -0.0081 0.1492776
v 0.022009565 0.006900001 0.14837638
v 0.022009565 -0.0081 0.14837638
v 0.029263536 0.006900001 0.14711769
v 0.029263536 -0.0081 0.14711769
v 0.036447007 0.006900001 0.1455046
v 0.036447007 -0.0081 0.1455046
v 0.043542676 0.006900001 0.14354096
v 0.043542676 -0.0081 0.14354096
v 0.05053344 0.006900001 0.14123152
v 0.05053344 -0.0081 0.14123152
v 0.05740247 0.006900001 0.13858186
v 0.05740247 -0.0081 0.13858186
v 0.06413322 0.006900001 0.13559833
v 0.06413322 -0.0081 0.13559833
v 0.07070946 0.006900001 0.13228813
v 0.07070946 -0.0081 0.13228813
v 0.07711535 0.006900001 0.12865925
v 0.07711535 -0.0081 0.12865925
v 0.083335474 0.006900001 0.12472041
v 0.083335474 -0.0081 0.12472041
v 0.08935483 0.006900001 0.12048109
v 0.08935483 -0.0081 0.12048109
v 0.09515891 0.006900001 0.11595154
v 0.09515891 -0.0081 0.11595154
v 0.10073377 0.006900001 0.11114266
v 0.10073377 -0.0081 0.11114266
v 0.10606593 0.006900001 0.10606601
v 0.10606593 -0.0081 0.10606601
v 0.11114259 0.006900001 0.100733854
v 0.11114259 -0.0081 0.100733854
v 0.11595148 0.006900001 0.095159
v 0.11595148 -0.0081 0.095159
v 0.12048105 0.006900001 0.08935491
v 0.12048105 -0.0081 0.08935491
v 0.12472036 0.006900001 0.08333556
v 0.12472036 -0.0081 0.08333556
v 0.12865922 0.006900001 0.07711544
v 0.12865922 -0.0081 0.07711544
v 0.13228811 0.006900001 0.07070955
v 0.13228811 -0.0081 0.07070955
v 0.13559832 0.006900001 0.06413331
v 0.13559832 -0.0081 0.06413331
v 0.13858186 0.006900001 0.05740256
v 0.13858186 -0.0081 0.05740256
v 0.14123154 0.006900001 0.05053353
v 0.14123154 -0.0081 0.05053353
v 0.14354098 0.006900001 0.04354276
v 0.14354098 -0.0081 0.04354276
v 0.14550462 0.006900001 0.036447093
v 0.14550462 -0.0081 0.036447093
v 0.14711772 0.006900001 0.029263621
v 0.14711772 -0.0081 0.029263621
v 0.1483764 0.006900001 0.02200965
v 0.1483764 -0.0081 0.02200965
v 0.14927764 0.006900001 0.014702655
v 0.14927764 -0.0081 0.014702655
v 0.14981927 0.006900001 0.007360242
v 0.14981927 -0.0081 0.007360242
v 0.14999995 0.006900001 9.573996E-08
v 0.14999995 -0.0081 9.573996E-08
v 0.14981927 0.006900001 -0.007360051
v 0.14981927 -0.0081 -0.007360051
v 0.14927767 0.006900001 -0.014702466
v 0.14927767 -0.0081 -0.014702466
v 0.14837645 0.006900001 -0.022009462
v 0.14837645 -0.0081 -0.022009462
v 0.14711776 0.006900001 -0.029263435
v 0.14711776 -0.0081 -0.029263435
v 0.14550465 0.006900001 -0.03644691
v 0.14550465 -0.0081 -0.03644691
v 0.14354102 0.006900001 -0.043542583
v 0.14354102 -0.0081 -0.043542583
v 0.14123158 0.006900001 -0.05053335
v 0.14123158 -0.0081 -0.05053335
v 0.13858192 0.006900001 -0.05740238
v 0.13858192 -0.0081 -0.05740238
v 0.13559838 0.006900001 -0.06413313
v 0.13559838 -0.0081 -0.06413313
v 0.13228819 0.006900001 -0.07070938
v 0.13228819 -0.0081 -0.07070938
v 0.1286593 0.006900001 -0.07711527
v 0.1286593 -0.0081 -0.07711527
v 0.12472045 0.006900001 -0.08333539
v 0.12472045 -0.0081 -0.08333539
v 0.120481126 0.006900001 -0.089354746
v 0.120481126 -0.0081 -0.089354746
v 0.115951575 0.006900001 -0.09515884
v 0.115951575 -0.0081 -0.09515884
v 0.11114267 0.006900001 -0.10073369
v 0.11114267 -0.0081 -0.10073369
v 0.106066026 0.006900001 -0.10606587
v 0.106066026 -0.0081 -0.10606587
v 0.10073387 0.006900001 -0.111142516
v 0.10073387 -0.0081 -0.111142516
v 0.09515902 0.006900001 -0.11595142
v 0.09515902 -0.0081 -0.11595142
v 0.089354925 0.006900001 -0.12048097
v 0.089354925 -0.0081 -0.12048097
v 0.08333557 0.006900001 -0.12472029
v 0.08333557 -0.0081 -0.12472029
v 0.07711545 0.006900001 -0.12865913
v 0.07711545 -0.0081 -0.12865913
v 0.07070955 0.006900001 -0.13228802
v 0.07070955 -0.0081 -0.13228802
v 0.06413331 0.006900001 -0.13559823
v 0.06413331 -0.0081 -0.13559823
v 0.05740257 0.006900001 -0.13858178
v 0.05740257 -0.0081 -0.13858178
v 0.050533533 0.006900001 -0.14123146
v 0.050533533 -0.0081 -0.14123146
v 0.043542765 0.006900001 -0.1435409
v 0.043542765 -0.0081 -0.1435409
v 0.036447097 0.006900001 -0.14550455
v 0.036447097 -0.0081 -0.14550455
v 0.02926362 0.006900001 -0.14711764
v 0.02926362 -0.0081 -0.14711764
v 0.022009647 0.006900001 -0.14837633
v 0.022009647 -0.0081 -0.14837633
v 0.01470265 0.006900001 -0.14927757
v 0.01470265 -0.0081 -0.14927757
v 0.0073602325 0.006900001 -0.14981918
v 0.0073602325 -0.0081 -0.14981918
v 8.419156E-08 0.006900001 -0.14999989
v 8.419156E-08 -0.0081 -0.14999989
v -0.14999995 -0.0081 6.556511E-08
v 5.9604645E-08 -0.009800001 6.556511E-08
v -0.14981925 -0.0081 -0.007360086
v -0.14981902 -0.0081 0.007360153
v -0.14927766 -0.0081 -0.014702505
v -0.14927742 -0.0081 0.014702561
v -0.1483764 -0.0081 -0.022009507
v -0.1483762 -0.0081 0.022009552
v -0.14711772 -0.0081 -0.029263485
v -0.14711751 -0.0081 0.029263515
v -0.14550462 -0.0081 -0.036446963
v -0.1455044 -0.0081 0.036446985
v -0.143541 -0.0081 -0.043542635
v -0.14354078 -0.0081 0.04354265
v -0.14123154 -0.0081 -0.05053341
v -0.14123136 -0.0081 0.050533414
v -0.13858186 -0.0081 -0.05740245
v -0.13858168 -0.0081 0.05740244
v -0.13559832 -0.0081 -0.0641332
v -0.13559815 -0.0081 0.06413318
v -0.13228811 -0.0081 -0.070709445
v -0.13228796 -0.0081 0.07070942
v -0.12865922 -0.0081 -0.07711534
v -0.12865907 -0.0081 0.07711531
v -0.12472036 -0.0081 -0.08333545
v -0.12472023 -0.0081 0.08333542
v -0.12048105 -0.0081 -0.08935481
v -0.12048093 -0.0081 0.089354776
v -0.11595149 -0.0081 -0.09515892
v -0.115951374 -0.0081 0.09515886
v -0.111142576 -0.0081 -0.10073378
v -0.11114248 -0.0081 0.10073371
v -0.10606593 -0.0081 -0.106065944
v -0.10606583 -0.0081 0.10606587
v -0.10073375 -0.0081 -0.11114259
v -0.100733675 -0.0081 0.11114254
v -0.0951589 -0.0081 -0.11595149
v -0.09515884 -0.0081 0.11595142
v -0.089354806 -0.0081 -0.12048104
v -0.089354746 -0.0081 0.12048099
v -0.083335444 -0.0081 -0.12472036
v -0.08333541 -0.0081 0.12472029
v -0.07711531 -0.0081 -0.1286592
v -0.07711529 -0.0081 0.12865916
v -0.070709415 -0.0081 -0.1322881
v -0.0707094 -0.0081 0.13228802
v -0.06413317 -0.0081 -0.1355983
v -0.06413316 -0.0081 0.13559823
v -0.05740242 -0.0081 -0.13858183
v -0.05740242 -0.0081 0.13858178
v -0.050533384 -0.0081 -0.14123152
v -0.05053339 -0.0081 0.14123146
v -0.04354261 -0.0081 -0.14354093
v -0.043542627 -0.0081 0.1435409
v -0.036446936 -0.0081 -0.14550458
v -0.036446963 -0.0081 0.14550455
v -0.029263455 -0.0081 -0.14711769
v -0.02926349 -0.0081 0.14711764
v -0.022009483 -0.0081 -0.14837638
v -0.022009525 -0.0081 0.14837633
v -0.014702484 -0.0081 -0.1492776
v -0.014702535 -0.0081 0.14927757
v -0.007360065 -0.0081 -0.14981921
v -0.007360124 -0.0081 0.14981918
v 8.419156E-08 -0.0081 -0.14999989
v 1.8253923E-08 -0.0081 0.14999989
v 0.0073602325 -0.0081 -0.14981918
v 0.0073601604 -0.0081 0.14981921
v 0.01470265 -0.0081 -0.14927757
v 0.014702573 -0.0081 0.1492776
v 0.022009647 -0.0081 -0.14837633
v 0.022009565 -0.0081 0.14837638
v 0.02926362 -0.0081 -0.14711764
v 0.029263536 -0.0081 0.14711769
v 0.036447097 -0.0081 -0.14550455
v 0.036447007 -0.0081 0.1455046
v 0.043542765 -0.0081 -0.1435409
v 0.043542676 -0.0081 0.14354096
v 0.050533533 -0.0081 -0.14123146
v 0.05053344 -0.0081 0.14123152
v 0.05740257 -0.0081 -0.13858178
v 0.05740247 -0.0081 0.13858186
v 0.06413331 -0.0081 -0.13559823
v 0.06413322 -0.0081 0.13559833
v 0.07070955 -0.0081 -0.13228802
v 0.07070946 -0.0081 0.13228813
v 0.07711545 -0.0081 -0.12865913
v 0.07711535 -0.0081 0.12865925
v 0.08333557 -0.0081 -0.12472029
v 0.083335474 -0.0081 0.12472041
v 0.089354925 -0.0081 -0.12048097
v 0.08935483 -0.0081 0.12048109
v 0.09515902 -0.0081 -0.11595142
v 0.09515891 -0.0081 0.11595154
v 0.10073387 -0.0081 -0.111142516
v 0.10073377 -0.0081 0.11114266
v 0.106066026 -0.0081 -0.10606587
v 0.10606593 -0.0081 0.10606601
v 0.11114267 -0.0081 -0.10073369
v 0.11114259 -0.0081 0.100733854
v 0.115951575 -0.0081 -0.09515884
v 0.11595148 -0.0081 0.095159
v 0.120481126 -0.0081 -0.089354746
v 0.12048105 -0.0081 0.08935491
v 0.12472045 -0.0081 -0.08333539
v 0.12472036 -0.0081 0.08333556
v 0.1286593 -0.0081 -0.07711527
v 0.12865922 -0.0081 0.07711544
v 0.13228819 -0.0081 -0.07070938
v 0.13228811 -0.0081 0.07070955
v 0.13559838 -0.0081 -0.06413313
v 0.13559832 -0.0081 0.06413331
v 0.13858192 -0.0081 -0.05740238
v 0.13858186 -0.0081 0.05740256
v 0.14123158 -0.0081 -0.05053335
v 0.14123154 -0.0081 0.05053353
v 0.14354102 -0.0081 -0.043542583
v 0.14354098 -0.0081 0.04354276
v 0.14550465 -0.0081 -0.03644691
v 0.14550462 -0.0081 0.036447093
v 0.14711776 -0.0081 -0.029263435
v 0.14711772 -0.0081 0.029263621
v 0.14837645 -0.0081 -0.022009462
v 0.1483764 -0.0081 0.02200965
v 0.14927767 -0.0081 -0.014702466
v 0.14927764 -0.0081 0.014702655
v 0.14981927 -0.0081 -0.007360051
v 0.14981927 -0.0081 0.007360242
v 0.14999995 -0.0081 9.573996E-08
v -0.14981925 0.006900001 -0.007360086
v 5.9604645E-08 0.009800001 6.556511E-08
v -0.14999995 0.006900001 6.556511E-08
v -0.14927766 0.006900001 -0.014702505
v -0.14981902 0.006900001 0.007360153
v -0.1483764 0.006900001 -0.022009507
v -0.14927742 0.006900001 0.014702561
v -0.14711772 0.006900001 -0.029263485
v -0.1483762 0.006900001 0.022009552
v -0.14550462 0.006900001 -0.036446963
v -0.14711751 0.006900001 0.029263515
v -0.143541 0.006900001 -0.043542635
v -0.1455044 0.006900001 0.036446985
v -0.14123154 0.006900001 -0.05053341
v -0.14354078 0.006900001 0.04354265
v -0.13858186 0.006900001 -0.05740245
v -0.14123136 0.006900001 0.050533414
v -0.13559832 0.006900001 -0.0641332
v -0.13858168 0.006900001 0.05740244
v -0.13228811 0.006900001 -0.070709445
v -0.13559815 0.006900001 0.06413318
v -0.12865922 0.006900001 -0.07711534
v -0.13228796 0.006900001 0.07070942
v -0.12472036 0.006900001 -0.08333545
v -0.12865907 0.006900001 0.07711531
v -0.12048105 0.006900001 -0.08935481
v -0.12472023 0.006900001 0.08333542
v -0.11595149 0.006900001 -0.09515892
v -0.12048093 0.006900001 0.089354776
v -0.111142576 0.006900001 -0.10073378
v -0.115951374 0.006900001 0.09515886
v -0.10606593 0.006900001 -0.106065944
v -0.11114248 0.006900001 0.10073371
v -0.10073375 0.006900001 -0.11114259
v -0.10606583 0.006900001 0.10606587
v -0.0951589 0.006900001 -0.11595149
v -0.100733675 0.006900001 0.11114254
v -0.089354806 0.006900001 -0.12048104
v -0.09515884 0.006900001 0.11595142
v -0.083335444 0.006900001 -0.12472036
v -0.089354746 0.006900001 0.12048099
v -0.07711531 0.006900001 -0.1286592
v -0.08333541 0.006900001 0.12472029
v -0.070709415 0.006900001 -0.1322881
v -0.07711529 0.006900001 0.12865916
v -0.06413317 0.006900001 -0.1355983
v -0.0707094 0.006900001 0.13228802
v -0.05740242 0.006900001 -0.13858183
v -0.06413316 0.006900001 0.13559823
v -0.050533384 0.006900001 -0.14123152
v -0.05740242 0.006900001 0.13858178
v -0.04354261 0.006900001 -0.14354093
v -0.05053339 0.006900001 0.14123146
v -0.036446936 0.006900001 -0.14550458
v -0.043542627 0.006900001 0.1435409
v -0.029263455 0.006900001 -0.14711769
v -0.036446963 0.006900001 0.14550455
v -0.022009483 0.006900001 -0.14837638
v -0.02926349 0.006900001 0.14711764
v -0.014702484 0.006900001 -0.1492776
v -0.022009525 0.006900001 0.14837633
v -0.007360065 0.006900001 -0.14981921
v -0.014702535 0.006900001 0.14927757
v 8.419156E-08 0.006900001 -0.14999989
v -0.007360124 0.006900001 0.14981918
v 0.0073602325 0.006900001 -0.14981918
v 1.8253923E-08 0.006900001 0.14999989
v 0.01470265 0.006900001 -0.14927757
v 0.0073601604 0.006900001 0.14981921
v 0.022009647 0.006900001 -0.14837633
v 0.014702573 0.006900001 0.1492776
v 0.02926362 0.006900001 -0.14711764
v 0.022009565 0.006900001 0.14837638
v 0.036447097 0.006900001 -0.14550455
v 0.029263536 0.006900001 0.14711769
v 0.043542765 0.006900001 -0.1435409
v 0.036447007 0.006900001 0.1455046
v 0.050533533 0.006900001 -0.14123146
v 0.043542676 0.006900001 0.14354096
v 0.05740257 0.006900001 -0.13858178
v 0.05053344 0.006900001 0.14123152
v 0.06413331 0.006900001 -0.13559823
v 0.05740247 0.006900001 0.13858186
v 0.07070955 0.006900001 -0.13228802
v 0.06413322 0.006900001 0.13559833
v 0.07711545 0.006900001 -0.12865913
v 0.07070946 0.006900001 0.13228813
v 0.08333557 0.006900001 -0.12472029
v 0.07711535 0.006900001 0.12865925
v 0.089354925 0.006900001 -0.12048097
v 0.083335474 0.006900001 0.12472041
v 0.09515902 0.006900001 -0.11595142
v 0.08935483 0.006900001 0.12048109
v 0.10073387 0.006900001 -0.111142516
v 0.09515891 0.006900001 0.11595154
v 0.106066026 0.006900001 -0.10606587
v 0.10073377 0.006900001 0.11114266
v 0.11114267 0.006900001 -0.10073369
v 0.10606593 0.006900001 0.10606601
v 0.115951575 0.006900001 -0.09515884
v 0.11114259 0.006900001 0.100733854
v 0.120481126 0.006900001 -0.089354746
v 0.11595148 0.006900001 0.095159
v 0.12472045 0.006900001 -0.08333539
v 0.12048105 0.006900001 0.08935491
v 0.1286593 0.006900001 -0.07711527
v 0.12472036 0.006900001 0.08333556
v 0.13228819 0.006900001 -0.07070938
v 0.12865922 0.006900001 0.07711544
v 0.13559838 0.006900001 -0.06413313
v 0.13228811 0.006900001 0.07070955
v 0.13858192 0.006900001 -0.05740238
v 0.13559832 0.006900001 0.06413331
v 0.14123158 0.006900001 -0.05053335
v 0.13858186 0.006900001 0.05740256
v 0.14354102 0.006900001 -0.043542583
v 0.14123154 0.006900001 0.05053353
v 0.14550465 0.006900001 -0.03644691
v 0.14354098 0.006900001 0.04354276
v 0.14711776 0.006900001 -0.029263435
v 0.14550462 0.006900001 0.036447093
v 0.14837645 0.006900001 -0.022009462
v 0.14711772 0.006900001 0.029263621
v 0.14927767 0.006900001 -0.014702466
v 0.1483764 0.006900001 0.02200965
v 0.14981927 0.006900001 -0.007360051
v 0.14927764 0.006900001 0.014702655
v 0.14999995 0.006900001 9.573996E-08
v 0.14981927 0.006900001 0.007360242
vt 0.015640259 0.9589844
vt 0.052093506 0.9736328
vt 0.015640259 0.9736328
vt 0.052093506 0.9589844
vt 0.015640259 0.94384766
vt 0.052093506 0.94384766
vt 0.015640259 0.9291992
vt 0.052093506 0.9291992
vt 0.015640259 0.9145508
vt 0.052093506 0.9145508
vt 0.015640259 0.89941406
vt 0.052093506 0.89941406
vt 0.015655518 0.8847656
vt 0.052093506 0.8847656
vt 0.015655518 0.8701172
vt 0.052093506 0.8701172
vt 0.015655518 0.85498047
vt 0.052093506 0.85498047
vt 0.015655518 0.84033203
vt 0.052093506 0.84033203
vt 0.015655518 0.8256836
vt 0.052093506 0.8256836
vt 0.015655518 0.8105469
vt 0.052124023 0.81103516
vt 0.015655518 0.79589844
vt 0.052124023 0.79589844
vt 0.015655518 0.78125
vt 0.052124023 0.78125
vt 0.015670776 0.76660156
vt 0.052124023 0.76660156
vt 0.015670776 0.75146484
vt 0.052124023 0.75146484
vt 0.015670776 0.7368164
vt 0.052124023 0.7368164
vt 0.015670776 0.72216797
vt 0.052124023 0.72216797
vt 0.015670776 0.70703125
vt 0.052124023 0.70703125
vt 0.015670776 0.6923828
vt 0.052124023 0.6923828
vt 0.015670776 0.6777344
vt 0.052124023 0.6777344
vt 0.015686035 0.66259766
vt 0.052124023 0.66259766
vt 0.015686035 0.6479492
vt 0.052124023 0.6479492
vt 0.015686035 0.6333008
vt 0.052124023 0.6333008
vt 0.015686035 0.61865234
vt 0.052124023 0.61865234
vt 0.015686035 0.6035156
vt 0.052124023 0.6035156
vt 0.015686035 0.5888672
vt 0.05215454 0.5888672
vt 0.015686035 0.57421875
vt 0.05215454 0.57421875
vt 0.015686035 0.55908203
vt 0.05215454 0.55908203
vt 0.015701294 0.5444336
vt 0.05215454 0.5444336
vt 0.015701294 0.52978516
vt 0.05215454 0.52978516
vt 0.015701294 0.51464844
vt 0.05215454 0.51464844
vt 0.015701294 0.5
vt 0.05215454 0.5
vt 0.015701294 0.48535156
vt 0.05215454 0.48535156
vt 0.015701294 0.47045898
vt 0.05215454 0.47045898
vt 0.015701294 0.4555664
vt 0.05215454 0.4555664
vt 0.015716553 0.44091797
vt 0.05215454 0.44091797
vt 0.015716553 0.4260254
vt 0.05215454 0.4260254
vt 0.015716553 0.41137695
vt 0.05215454 0.41137695
vt 0.015716553 0.39648438
vt 0.05215454 0.39648438
vt 0.015716553 0.3815918
vt 0.05215454 0.3815918
vt 0.015716553 0.36694336
vt 0.05218506 0.36694336
vt 0.015716553 0.35205078
vt 0.05218506 0.35205078
vt 0.015716553 0.33740234
vt 0.05218506 0.33740234
vt 0.015731812 0.32250977
vt 0.05218506 0.32250977
vt 0.015731812 0.3076172
vt 0.05218506 0.3076172
vt 0.015731812 0.29296875
vt 0.05218506 0.29296875
vt 0.015731812 0.27807617
vt 0.05218506 0.27807617
vt 0.015731812 0.2631836
vt 0.05218506 0.2631836
vt 0.015731812 0.24853516
vt 0.05218506 0.24853516
vt 0.015731812 0.23376465
vt 0.05218506 0.23376465
vt 0.01574707 0.21887207
vt 0.05218506 0.21887207
vt 0.01574707 0.20410156
vt 0.05218506 0.20410156
vt 0.01574707 0.18933105
vt 0.05218506 0.18933105
vt 0.01574707 0.17456055
vt 0.05218506 0.17456055
vt 0.01574707 0.15966797
vt 0.05218506 0.15966797
vt 0.01574707 0.14489746
vt 0.052215576 0.14489746
vt 0.01574707 0.13012695
vt 0.052215576 0.13012695
vt 0.01574707 0.115356445
vt 0.052215576 0.115356445
vt 0.01576233 0.1005249
vt 0.052215576 0.1005249
vt 0.01576233 0.085754395
vt 0.052215576 0.085754395
vt 0.01576233 0.07092285
vt 0.052215576 0.07092285
vt 0.01576233 0.056152344
vt 0.052215576 0.056152344
vt 0.01576233 0.04135132
vt 0.052215576 0.04135132
vt 0.01576233 0.026550293
vt 0.052215576 0.026550293
vt 0.015640259 0.9736328
vt 0.052093506 0.9736328
vt 0.052093506 0.9584961
vt 0.015640259 0.9584961
vt 0.052093506 0.94384766
vt 0.015640259 0.94384766
vt 0.052093506 0.9291992
vt 0.015640259 0.9291992
vt 0.052093506 0.9145508
vt 0.015640259 0.9145508
vt 0.052093506 0.89941406
vt 0.015640259 0.89941406
vt 0.052093506 0.8847656
vt 0.015655518 0.8847656
vt 0.052093506 0.8701172
vt 0.015655518 0.8701172
vt 0.052093506 0.85498047
vt 0.015655518 0.85498047
vt 0.052093506 0.84033203
vt 0.015655518 0.84033203
vt 0.052093506 0.8256836
vt 0.015655518 0.8256836
vt 0.052093506 0.8105469
vt 0.015655518 0.8105469
vt 0.052093506 0.79589844
vt 0.015655518 0.79589844
vt 0.052124023 0.78125
vt 0.015670776 0.78125
vt 0.052124023 0.76660156
vt 0.015670776 0.76660156
vt 0.052124023 0.75146484
vt 0.015670776 0.75146484
vt 0.052124023 0.7368164
vt 0.015670776 0.7368164
vt 0.052124023 0.72216797
vt 0.015670776 0.72216797
vt 0.052124023 0.70703125
vt 0.015670776 0.70703125
vt 0.052124023 0.6923828
vt 0.015670776 0.6923828
vt 0.052124023 0.6777344
vt 0.015686035 0.6777344
vt 0.052124023 0.66259766
vt 0.015686035 0.66259766
vt 0.052124023 0.6479492
vt 0.015686035 0.6479492
vt 0.052124023 0.6333008
vt 0.015686035 0.6333008
vt 0.052124023 0.61865234
vt 0.015686035 0.61865234
vt 0.052124023 0.6035156
vt 0.015686035 0.6035156
vt 0.052124023 0.5888672
vt 0.015686035 0.5888672
vt 0.052124023 0.57421875
vt 0.015686035 0.57421875
vt 0.05215454 0.55908203
vt 0.015701294 0.55908203
vt 0.05215454 0.5444336
vt 0.015701294 0.5444336
vt 0.05215454 0.52978516
vt 0.015701294 0.52978516
vt 0.05215454 0.51464844
vt 0.015701294 0.51464844
vt 0.05215454 0.5
vt 0.015701294 0.5
vt 0.05215454 0.48535156
vt 0.015701294 0.48535156
vt 0.05215454 0.47045898
vt 0.015701294 0.47045898
vt 0.05215454 0.4555664
vt 0.015716553 0.4555664
vt 0.05215454 0.44091797
vt 0.015716553 0.44091797
vt 0.05215454 0.4260254
vt 0.015716553 0.4260254
vt 0.05215454 0.41137695
vt 0.015716553 0.41137695
vt 0.05215454 0.39648438
vt 0.015716553 0.39648438
vt 0.05215454 0.3815918
vt 0.015716553 0.3815918
vt 0.05215454 0.36694336
vt 0.015716553 0.36694336
vt 0.05218506 0.35205078
vt 0.015731812 0.35205078
vt 0.05218506 0.33740234
vt 0.015731812 0.33740234
vt 0.05218506 0.32250977
vt 0.015731812 0.32250977
vt 0.05218506 0.3076172
vt 0.015731812 0.3076172
vt 0.05218506 0.29296875
vt 0.015731812 0.29296875
vt 0.05218506 0.27807617
vt 0.015731812 0.27807617
vt 0.05218506 0.26342773
vt 0.015731812 0.26342773
vt 0.05218506 0.24853516
vt 0.015731812 0.24853516
vt 0.05218506 0.23376465
vt 0.01574707 0.23376465
vt 0.05218506 0.21899414
vt 0.01574707 0.21899414
vt 0.05218506 0.20410156
vt 0.01574707 0.20410156
vt 0.05218506 0.18933105
vt 0.01574707 0.18933105
vt 0.05218506 0.17456055
vt 0.01574707 0.17456055
vt 0.05218506 0.15979004
vt 0.01574707 0.15979004
vt 0.05218506 0.14501953
vt 0.01574707 0.14501953
vt 0.052215576 0.13012695
vt 0.01576233 0.13012695
vt 0.052215576 0.115356445
vt 0.01576233 0.115356445
vt 0.052215576 0.10058594
vt 0.01576233 0.10058594
vt 0.052215576 0.08581543
vt 0.01576233 0.085754395
vt 0.052215576 0.07098389
vt 0.01576233 0.07098389
vt 0.052215576 0.05618286
vt 0.01576233 0.05618286
vt 0.052215576 0.041412354
vt 0.01576233 0.041381836
vt 0.052215576 0.026611328
vt 0.015777588 0.02659607
vt 0.087402344 0.4987793
vt 0.5371094 0.4987793
vt 0.08795166 0.47680664
vt 0.08795166 0.5209961
vt 0.089538574 0.45483398
vt 0.089538574 0.54296875
vt 0.092285156 0.43286133
vt 0.092285156 0.5649414
vt 0.0960083 0.4111328
vt 0.0960083 0.5864258
vt 0.10089111 0.3894043
vt 0.10089111 0.60791016
vt 0.10675049 0.36816406
vt 0.10675049 0.62939453
vt 0.113708496 0.34716797
vt 0.113708496 0.6503906
vt 0.12164307 0.32666016
vt 0.12164307 0.67089844
vt 0.13061523 0.30639648
vt 0.13061523 0.69140625
vt 0.14050293 0.28686523
vt 0.14050293 0.7109375
vt 0.15136719 0.26757812
vt 0.15136719 0.72998047
vt 0.16320801 0.24890137
vt 0.16320801 0.74853516
vt 0.17590332 0.23083496
vt 0.17590332 0.76660156
vt 0.18945312 0.21350098
vt 0.18945312 0.7841797
vt 0.20397949 0.19677734
vt 0.20397949 0.80078125
vt 0.21911621 0.18078613
vt 0.21911621 0.81689453
vt 0.23510742 0.16552734
vt 0.23510742 0.83203125
vt 0.25195312 0.15112305
vt 0.25195312 0.8466797
vt 0.2692871 0.13745117
vt 0.2692871 0.86035156
vt 0.28735352 0.124816895
vt 0.28735352 0.8730469
vt 0.3059082 0.112976074
vt 0.3059082 0.8847656
vt 0.3251953 0.10211182
vt 0.3251953 0.8955078
vt 0.3449707 0.092163086
vt 0.3449707 0.90527344
vt 0.36499023 0.08319092
vt 0.36499023 0.9145508
vt 0.3857422 0.07525635
vt 0.3857422 0.9223633
vt 0.40673828 0.068359375
vt 0.40673828 0.9291992
vt 0.42797852 0.062438965
vt 0.42797852 0.9350586
vt 0.4494629 0.057617188
vt 0.4494629 0.9399414
vt 0.4711914 0.053833008
vt 0.4711914 0.94384766
vt 0.49316406 0.05114746
vt 0.49316406 0.94628906
vt 0.5151367 0.04949951
vt 0.5151367 0.9482422
vt 0.5371094 0.048980713
vt 0.5371094 0.94873047
vt 0.55908203 0.04949951
vt 0.55908203 0.9482422
vt 0.58154297 0.05114746
vt 0.58154297 0.94628906
vt 0.60302734 0.053833008
vt 0.60302734 0.94384766
vt 0.625 0.057617188
vt 0.625 0.9399414
vt 0.6464844 0.062438965
vt 0.6464844 0.9350586
vt 0.66796875 0.068359375
vt 0.66796875 0.9291992
vt 0.68896484 0.07525635
vt 0.68896484 0.9223633
vt 0.70947266 0.08319092
vt 0.70947266 0.9145508
vt 0.7294922 0.092163086
vt 0.7294922 0.90527344
vt 0.7495117 0.10211182
vt 0.7495117 0.8955078
vt 0.7685547 0.112976074
vt 0.7685547 0.8847656
vt 0.7871094 0.124816895
vt 0.7871094 0.8730469
vt 0.8051758 0.13745117
vt 0.8051758 0.86035156
vt 0.8227539 0.15112305
vt 0.8227539 0.8466797
vt 0.83935547 0.16552734
vt 0.83935547 0.83203125
vt 0.85546875 0.18078613
vt 0.85546875 0.81689453
vt 0.87060547 0.19677734
vt 0.87060547 0.80078125
vt 0.8847656 0.21350098
vt 0.8847656 0.7841797
vt 0.8984375 0.23083496
vt 0.8984375 0.76660156
vt 0.9111328 0.24890137
vt 0.9111328 0.74853516
vt 0.92333984 0.26757812
vt 0.92333984 0.72998047
vt 0.93408203 0.28686523
vt 0.93408203 0.7109375
vt 0.94384766 0.30639648
vt 0.94384766 0.69140625
vt 0.9526367 0.32666016
vt 0.9526367 0.67089844
vt 0.9609375 0.34716797
vt 0.9609375 0.6503906
vt 0.96777344 0.36816406
vt 0.96777344 0.62939453
vt 0.9736328 0.3894043
vt 0.9736328 0.60791016
vt 0.9785156 0.4111328
vt 0.9785156 0.5864258
vt 0.9824219 0.43286133
vt 0.9824219 0.5649414
vt 0.9848633 0.45483398
vt 0.9848633 0.54296875
vt 0.9863281 0.47680664
vt 0.9863281 0.5209961
vt 0.9873047 0.4987793
vt 0.99658203 0.47558594
vt 0.5 0.5
vt 0.9975586 0.5
vt 0.9951172 0.45117188
vt 0.99658203 0.52441406
vt 0.9916992 0.42700195
vt 0.9951172 0.5488281
vt 0.98779297 0.40307617
vt 0.9916992 0.5727539
vt 0.9824219 0.3791504
vt 0.98779297 0.59716797
vt 0.9760742 0.3557129
vt 0.9824219 0.62060547
vt 0.9682617 0.33251953
vt 0.9760742 0.64453125
vt 0.95947266 0.3095703
vt 0.9682617 0.66748047
vt 0.94970703 0.28735352
vt 0.95947266 0.6904297
vt 0.93847656 0.265625
vt 0.94970703 0.71240234
vt 0.9267578 0.24438477
vt 0.93847656 0.734375
vt 0.9135742 0.22375488
vt 0.9267578 0.7558594
vt 0.89941406 0.20373535
vt 0.9135742 0.7763672
vt 0.88427734 0.18444824
vt 0.89941406 0.7963867
vt 0.86865234 0.16601562
vt 0.88427734 0.8154297
vt 0.8515625 0.14831543
vt 0.86865234 0.8339844
vt 0.8339844 0.13146973
vt 0.8515625 0.8515625
vt 0.8154297 0.11553955
vt 0.8339844 0.86865234
vt 0.7963867 0.1005249
vt 0.8154297 0.88427734
vt 0.7763672 0.08648682
vt 0.7963867 0.89941406
vt 0.7558594 0.07342529
vt 0.7763672 0.9135742
vt 0.734375 0.061401367
vt 0.7558594 0.9267578
vt 0.71240234 0.05041504
vt 0.734375 0.93847656
vt 0.6904297 0.040527344
vt 0.71240234 0.94970703
vt 0.66748047 0.03173828
vt 0.6904297 0.95947266
vt 0.64453125 0.024093628
vt 0.66748047 0.9682617
vt 0.62060547 0.017578125
vt 0.64453125 0.9760742
vt 0.59716797 0.012237549
vt 0.62060547 0.9824219
vt 0.5727539 0.00806427
vt 0.59716797 0.98779297
vt 0.5488281 0.0050735474
vt 0.5727539 0.9916992
vt 0.52441406 0.0032787323
vt 0.5488281 0.9951172
vt 0.5 0.0026798248
vt 0.52441406 0.99658203
vt 0.47558594 0.0032787323
vt 0.5 0.9975586
vt 0.45117188 0.0050735474
vt 0.47558594 0.99658203
vt 0.42700195 0.00806427
vt 0.45117188 0.9951172
vt 0.40307617 0.012237549
vt 0.42700195 0.9916992
vt 0.3791504 0.017578125
vt 0.40307617 0.98779297
vt 0.3557129 0.024093628
vt 0.3791504 0.9824219
vt 0.33251953 0.03173828
vt 0.3557129 0.9760742
vt 0.3095703 0.040527344
vt 0.33251953 0.9682617
vt 0.28735352 0.05041504
vt 0.3095703 0.95947266
vt 0.265625 0.061401367
vt 0.28735352 0.94970703
vt 0.24438477 0.07342529
vt 0.265625 0.93847656
vt 0.22375488 0.08648682
vt 0.24438477 0.9267578
vt 0.20373535 0.1005249
vt 0.22375488 0.9135742
vt 0.18444824 0.11553955
vt 0.20373535 0.89941406
vt 0.16601562 0.13146973
vt 0.18444824 0.88427734
vt 0.14831543 0.14831543
vt 0.16601562 0.86865234
vt 0.13146973 0.16601562
vt 0.14831543 0.8515625
vt 0.11553955 0.18444824
vt 0.13146973 0.8339844
vt 0.1005249 0.20373535
vt 0.11553955 0.8154297
vt 0.08648682 0.22375488
vt 0.1005249 0.7963867
vt 0.07342529 0.24438477
vt 0.08648682 0.7763672
vt 0.061401367 0.265625
vt 0.07342529 0.7558594
vt 0.05041504 0.28735352
vt 0.061401367 0.734375
vt 0.040527344 0.3095703
vt 0.05041504 0.71240234
vt 0.03173828 0.33251953
vt 0.040527344 0.6904297
vt 0.024093628 0.3557129
vt 0.03173828 0.66748047
vt 0.017578125 0.3791504
vt 0.024093628 0.64453125
vt 0.012237549 0.40307617
vt 0.017578125 0.62060547
vt 0.00806427 0.42700195
vt 0.012237549 0.59716797
vt 0.0050735474 0.45117188
vt 0.00806427 0.5727539
vt 0.0032787323 0.47558594
vt 0.0050735474 0.5488281
vt 0.0026798248 0.5
vt 0.0032787323 0.52441406
vn -0.049072266 0 0.99902344
vn -2.682209E-06 0 1
vn -2.682209E-06 0 1
vn -0.049072266 0 0.99902344
vn -0.09802246 0 0.9951172
vn -0.09802246 0 0.9951172
vn -0.14672852 0 0.9892578
vn -0.14672852 0 0.9892578
vn -0.19506836 0 0.98095703
vn -0.19506836 0 0.98095703
vn -0.24291992 0 0.97021484
vn -0.24291992 0 0.97021484
vn -0.2902832 0 0.95703125
vn -0.2902832 0 0.95703125
vn -0.33691406 0 0.94140625
vn -0.33691406 0 0.94140625
vn -0.38256836 0 0.9238281
vn -0.38256836 0 0.9238281
vn -0.42749023 0 0.9038086
vn -0.42749023 0 0.9038086
vn -0.47143555 0 0.88183594
vn -0.47143555 0 0.88183594
vn -0.51416016 0 0.85791016
vn -0.51416016 0 0.85791016
vn -0.55566406 0 0.83154297
vn -0.55566406 0 0.83154297
vn -0.5957031 0 0.80322266
vn -0.5957031 0 0.80322266
vn -0.63427734 0 0.7729492
vn -0.63427734 0 0.7729492
vn -0.6713867 0 0.74072266
vn -0.6713867 0 0.74072266
vn -0.70703125 0 0.70703125
vn -0.70703125 0 0.70703125
vn -0.74072266 0 0.6713867
vn -0.74072266 0 0.6713867
vn -0.7729492 0 0.63427734
vn -0.7729492 0 0.63427734
vn -0.80322266 0 0.5957031
vn -0.80322266 0 0.5957031
vn -0.83154297 0 0.55566406
vn -0.83154297 0 0.55566406
vn -0.85791016 0 0.51416016
vn -0.85791016 0 0.51416016
vn -0.88183594 0 0.47143555
vn -0.88183594 0 0.47143555
vn -0.9038086 0 0.42749023
vn -0.9038086 0 0.42749023
vn -0.9238281 0 0.38256836
vn -0.9238281 0 0.38256836
vn -0.94140625 0 0.33691406
vn -0.94140625 0 0.33691406
vn -0.95703125 0 0.2902832
vn -0.95703125 0 0.2902832
vn -0.97021484 0 0.24291992
vn -0.97021484 0 0.24291992
vn -0.98095703 0 0.19506836
vn -0.98095703 0 0.19506836
vn -0.9892578 0 0.14672852
vn -0.9892578 0 0.14672852
vn -0.9951172 0 0.09802246
vn -0.9951172 0 0.09802246
vn -0.99902344 0 0.049072266
vn -0.99902344 0 0.049072266
vn -1 0 1.6212463E-05
vn -1 0 1.6212463E-05
vn -0.99902344 0 -0.049072266
vn -0.99902344 0 -0.049072266
vn -0.9951172 0 -0.09802246
vn -0.9951172 0 -0.09802246
vn -0.9892578 0 -0.14672852
vn -0.9892578 0 -0.14672852
vn -0.98095703 0 -0.19506836
vn -0.98095703 0 -0.19506836
vn -0.97021484 0 -0.24291992
vn -0.97021484 0 -0.24291992
vn -0.95703125 0 -0.2902832
vn -0.95703125 0 -0.2902832
vn -0.94140625 0 -0.33691406
vn -0.94140625 0 -0.33691406
vn -0.9238281 0 -0.38256836
vn -0.9238281 0 -0.38256836
vn -0.9038086 0 -0.42749023
vn -0.9038086 0 -0.42749023
vn -0.88183594 0 -0.47143555
vn -0.88183594 0 -0.47143555
vn -0.85791016 0 -0.51416016
vn -0.85791016 0 -0.51416016
vn -0.83154297 0 -0.55566406
vn -0.83154297 0 -0.55566406
vn -0.80322266 0 -0.5957031
vn -0.80322266 0 -0.5957031
vn -0.7729492 0 -0.63427734
vn -0.7729492 0 -0.63427734
vn -0.74072266 0 -0.6713867
vn -0.74072266 0 -0.6713867
vn -0.70703125 0 -0.70703125
vn -0.70703125 0 -0.70703125
vn -0.6713867 0 -0.74072266
vn -0.6713867 0 -0.74072266
vn -0.63427734 0 -0.7729492
vn -0.63427734 0 -0.7729492
vn -0.5957031 0 -0.80322266
vn -0.5957031 0 -0.80322266
vn -0.55566406 0 -0.83154297
vn -0.55566406 0 -0.83154297
vn -0.51416016 0 -0.85791016
vn -0.51416016 0 -0.85791016
vn -0.47143555 0 -0.88183594
vn -0.47143555 0 -0.88183594
vn -0.42749023 0 -0.9038086
vn -0.42749023 0 -0.9038086
vn -0.38256836 0 -0.9238281
vn -0.38256836 0 -0.9238281
vn -0.33691406 0 -0.94140625
vn -0.33691406 0 -0.94140625
vn -0.2902832 0 -0.95703125
vn -0.2902832 0 -0.95703125
vn -0.24304199 0 -0.97021484
vn -0.24304199 0 -0.97021484
vn -0.19506836 0 -0.98095703
vn -0.19506836 0 -0.98095703
vn -0.14672852 0 -0.9892578
vn -0.14672852 0 -0.9892578
vn -0.09802246 0 -0.9951172
vn -0.09802246 0 -0.9951172
vn -0.049072266 0 -0.99902344
vn -0.049072266 0 -0.99902344
vn 2.682209E-06 0 -1
vn 2.682209E-06 0 -1
vn -2.682209E-06 0 1
vn -2.682209E-06 0 1
vn 0.049072266 0 0.99902344
vn 0.049072266 0 0.99902344
vn 0.09802246 0 0.9951172
vn 0.09802246 0 0.9951172
vn 0.14672852 0 0.9892578
vn 0.14672852 0 0.9892578
vn 0.19506836 0 0.98095703
vn 0.19506836 0 0.98095703
vn 0.24291992 0 0.97021484
vn 0.24291992 0 0.97021484
vn 0.2902832 0 0.95703125
vn 0.2902832 0 0.95703125
vn 0.33691406 0 0.94140625
vn 0.33691406 0 0.94140625
vn 0.38256836 0 0.9238281
vn 0.38256836 0 0.9238281
vn 0.42749023 0 0.9038086
vn 0.42749023 0 0.9038086
vn 0.47143555 0 0.88183594
vn 0.47143555 0 0.88183594
vn 0.51416016 0 0.85791016
vn 0.51416016 0 0.85791016
vn 0.55566406 0 0.83154297
vn 0.55566406 0 0.83154297
vn 0.5957031 0 0.80322266
vn 0.5957031 0 0.80322266
vn 0.63427734 0 0.7729492
vn 0.63427734 0 0.7729492
vn 0.6713867 0 0.74072266
vn 0.6713867 0 0.74072266
vn 0.70703125 0 0.70703125
vn 0.70703125 0 0.70703125
vn 0.74072266 0 0.6713867
vn 0.74072266 0 0.6713867
vn 0.7729492 0 0.63427734
vn 0.7729492 0 0.63427734
vn 0.80322266 0 0.5957031
vn 0.80322266 0 0.5957031
vn 0.83154297 0 0.55566406
vn 0.83154297 0 0.55566406
vn 0.85791016 0 0.51416016
vn 0.85791016 0 0.51416016
vn 0.88183594 0 0.47143555
vn 0.88183594 0 0.47143555
vn 0.9038086 0 0.42749023
vn 0.9038086 0 0.42749023
vn 0.9238281 0 0.38256836
vn 0.9238281 0 0.38256836
vn 0.94140625 0 0.33691406
vn 0.94140625 0 0.33691406
vn 0.95703125 0 0.2902832
vn 0.95703125 0 0.2902832
vn 0.97021484 0 0.24291992
vn 0.97021484 0 0.24291992
vn 0.98095703 0 0.19506836
vn 0.98095703 0 0.19506836
vn 0.9892578 0 0.14672852
vn 0.9892578 0 0.14672852
vn 0.9951172 0 0.09802246
vn 0.9951172 0 0.09802246
vn 0.99902344 0 0.049072266
vn 0.99902344 0 0.049072266
vn 1 0 0
vn 1 0 0
vn 0.99902344 0 -0.049072266
vn 0.99902344 0 -0.049072266
vn 0.9951172 0 -0.09802246
vn 0.9951172 0 -0.09802246
vn 0.9892578 0 -0.14672852
vn 0.9892578 0 -0.14672852
vn 0.98095703 0 -0.19506836
vn 0.98095703 0 -0.19506836
vn 0.97021484 0 -0.24291992
vn 0.97021484 0 -0.24291992
vn 0.95703125 0 -0.2902832
vn 0.95703125 0 -0.2902832
vn 0.94140625 0 -0.33691406
vn 0.94140625 0 -0.33691406
vn 0.9238281 0 -0.38256836
vn 0.9238281 0 -0.38256836
vn 0.9038086 0 -0.42749023
vn 0.9038086 0 -0.42749023
vn 0.88183594 0 -0.47143555
vn 0.88183594 0 -0.47143555
vn 0.85791016 0 -0.51416016
vn 0.85791016 0 -0.51416016
vn 0.83154297 0 -0.55566406
vn 0.83154297 0 -0.55566406
vn 0.80322266 0 -0.5957031
vn 0.80322266 0 -0.5957031
vn 0.7729492 0 -0.63427734
vn 0.7729492 0 -0.63427734
vn 0.74072266 0 -0.6713867
vn 0.74072266 0 -0.6713867
vn 0.70703125 0 -0.70703125
vn 0.70703125 0 -0.70703125
vn 0.6713867 0 -0.74072266
vn 0.6713867 0 -0.74072266
vn 0.63427734 0 -0.7729492
vn 0.63427734 0 -0.7729492
vn 0.5957031 0 -0.80322266
vn 0.5957031 0 -0.80322266
vn 0.55566406 0 -0.83154297
vn 0.55566406 0 -0.83154297
vn 0.51416016 0 -0.85791016
vn 0.51416016 0 -0.85791016
vn 0.47143555 0 -0.88183594
vn 0.47143555 0 -0.88183594
vn 0.42749023 0 -0.9038086
vn 0.42749023 0 -0.9038086
vn 0.38256836 0 -0.9238281
vn 0.38256836 0 -0.9238281
vn 0.33691406 0 -0.94140625
vn 0.33691406 0 -0.94140625
vn 0.2902832 0 -0.95703125
vn 0.2902832 0 -0.95703125
vn 0.24291992 0 -0.97021484
vn 0.24291992 0 -0.97021484
vn 0.19506836 0 -0.98095703
vn 0.19506836 0 -0.98095703
vn 0.14672852 0 -0.9892578
vn 0.14672852 0 -0.9892578
vn 0.09802246 0 -0.9951172
vn 0.09802246 0 -0.9951172
vn 0.049072266 0 -0.99902344
vn 0.049072266 0 -0.99902344
vn 2.682209E-06 0 -1
vn 2.682209E-06 0 -1
vn -0.011329651 -1 0
vn -0 -1 0
vn -0.0113220215 -1 -0.0005559921
vn -0.0113220215 -1 0.00055646896
vn -0.011276245 -1 -0.0011110306
vn -0.011276245 -1 0.0011110306
vn -0.011207581 -1 -0.001663208
vn -0.011207581 -1 0.001663208
vn -0.011116028 -1 -0.002210617
vn -0.011116028 -1 0.002210617
vn -0.0109939575 -1 -0.0027542114
vn -0.0109939575 -1 0.0027542114
vn -0.01084137 -1 -0.0032901764
vn -0.01084137 -1 0.0032901764
vn -0.010673523 -1 -0.003818512
vn -0.010673523 -1 0.003818512
vn -0.010467529 -1 -0.004337311
vn -0.010467529 -1 0.004337311
vn -0.010246277 -1 -0.0048446655
vn -0.010246277 -1 0.0048446655
vn -0.009994507 -1 -0.005340576
vn -0.009994507 -1 0.005340576
vn -0.009719849 -1 -0.0058250427
vn -0.009719849 -1 0.0058250427
vn -0.009422302 -1 -0.0062942505
vn -0.009422302 -1 0.0062942505
vn -0.009101868 -1 -0.006752014
vn -0.009101868 -1 0.006752014
vn -0.008758545 -1 -0.0071907043
vn -0.008758545 -1 0.0071907043
vn -0.008399963 -1 -0.007610321
vn -0.008399963 -1 0.007610321
vn -0.008010864 -1 -0.008010864
vn -0.008010864 -1 0.008010864
vn -0.007610321 -1 -0.008399963
vn -0.007610321 -1 0.008399963
vn -0.0071907043 -1 -0.008758545
vn -0.0071907043 -1 0.008758545
vn -0.006752014 -1 -0.009101868
vn -0.006752014 -1 0.009101868
vn -0.0062942505 -1 -0.009422302
vn -0.0062942505 -1 0.009422302
vn -0.0058250427 -1 -0.009719849
vn -0.0058250427 -1 0.009719849
vn -0.005340576 -1 -0.009994507
vn -0.005340576 -1 0.009994507
vn -0.0048446655 -1 -0.010246277
vn -0.0048446655 -1 0.010246277
vn -0.004337311 -1 -0.010467529
vn -0.004337311 -1 0.010467529
vn -0.003818512 -1 -0.010673523
vn -0.003818512 -1 0.010673523
vn -0.0032901764 -1 -0.01084137
vn -0.0032901764 -1 0.01084137
vn -0.0027542114 -1 -0.0109939575
vn -0.0027542114 -1 0.0109939575
vn -0.002210617 -1 -0.011116028
vn -0.002210617 -1 0.011116028
vn -0.001663208 -1 -0.011207581
vn -0.001663208 -1 0.011207581
vn -0.0011110306 -1 -0.011276245
vn -0.0011110306 -1 0.011276245
vn -0.0005559921 -1 -0.0113220215
vn -0.0005559921 -1 0.0113220215
vn -0 -1 -0.011329651
vn -0 -1 0.011329651
vn 0.0005559921 -1 -0.0113220215
vn 0.0005559921 -1 0.0113220215
vn 0.0011110306 -1 -0.011276245
vn 0.0011110306 -1 0.011276245
vn 0.001663208 -1 -0.011207581
vn 0.001663208 -1 0.011207581
vn 0.002210617 -1 -0.011116028
vn 0.002210617 -1 0.011116028
vn 0.0027542114 -1 -0.0109939575
vn 0.0027542114 -1 0.0109939575
vn 0.0032901764 -1 -0.01084137
vn 0.0032901764 -1 0.01084137
vn 0.003818512 -1 -0.010673523
vn 0.003818512 -1 0.010673523
vn 0.004337311 -1 -0.010467529
vn 0.004337311 -1 0.010467529
vn 0.0048446655 -1 -0.010246277
vn 0.0048446655 -1 0.010246277
vn 0.005340576 -1 -0.009994507
vn 0.005340576 -1 0.009994507
vn 0.0058250427 -1 -0.009719849
vn 0.0058250427 -1 0.009719849
vn 0.0062942505 -1 -0.009422302
vn 0.0062942505 -1 0.009422302
vn 0.006752014 -1 -0.009101868
vn 0.006752014 -1 0.009101868
vn 0.0071907043 -1 -0.008758545
vn 0.0071907043 -1 0.008758545
vn 0.007610321 -1 -0.008399963
vn 0.007610321 -1 0.008399963
vn 0.008010864 -1 -0.008010864
vn 0.008010864 -1 0.008010864
vn 0.008399963 -1 -0.007610321
vn 0.008399963 -1 0.007610321
vn 0.008758545 -1 -0.0071907043
vn 0.008758545 -1 0.0071907043
vn 0.009101868 -1 -0.006752014
vn 0.009101868 -1 0.006752014
vn 0.009422302 -1 -0.0062942505
vn 0.009422302 -1 0.0062942505
vn 0.009719849 -1 -0.0058250427
vn 0.009719849 -1 0.0058250427
vn 0.009994507 -1 -0.005340576
vn 0.009994507 -1 0.005340576
vn 0.010246277 -1 -0.0048446655
vn 0.010246277 -1 0.0048446655
vn 0.010467529 -1 -0.004337311
vn 0.010467529 -1 0.004337311
vn 0.010673523 -1 -0.003818512
vn 0.010673523 -1 0.003818512
vn 0.01084137 -1 -0.0032901764
vn 0.01084137 -1 0.0032901764
vn 0.0109939575 -1 -0.0027542114
vn 0.0109939575 -1 0.0027542114
vn 0.011116028 -1 -0.002210617
vn 0.011116028 -1 0.002210617
vn 0.011207581 -1 -0.001663208
vn 0.011207581 -1 0.001663208
vn 0.011276245 -1 -0.0011110306
vn 0.011276245 -1 0.0011110306
vn 0.0113220215 -1 -0.0005559921
vn 0.0113220215 -1 0.0005559921
vn 0.011329651 -1 0
vn -0.019302368 1 -0.0009484291
vn -0 1 0
vn -0.019332886 1 0
vn -0.019241333 1 -0.0018949509
vn -0.019302368 1 0.00094890594
vn -0.019119263 1 -0.0028362274
vn -0.019241333 1 0.0018949509
vn -0.018951416 1 -0.0037708282
vn -0.019119263 1 0.0028362274
vn -0.018753052 1 -0.0046958923
vn -0.018951416 1 0.0037708282
vn -0.018493652 1 -0.0056114197
vn -0.018753052 1 0.0046958923
vn -0.018203735 1 -0.006511688
vn -0.018493652 1 0.0056114197
vn -0.017852783 1 -0.007396698
vn -0.018203735 1 0.006511688
vn -0.017471313 1 -0.008262634
vn -0.017852783 1 0.007396698
vn -0.017044067 1 -0.009109497
vn -0.017471313 1 0.008262634
vn -0.016586304 1 -0.009941101
vn -0.017044067 1 0.009109497
vn -0.016067505 1 -0.0107421875
vn -0.016586304 1 0.009941101
vn -0.015525818 1 -0.011512756
vn -0.016067505 1 0.0107421875
vn -0.0149383545 1 -0.012260437
vn -0.015525818 1 0.011512756
vn -0.014320374 1 -0.0129776
vn -0.0149383545 1 0.012260437
vn -0.013671875 1 -0.013671875
vn -0.014320374 1 0.0129776
vn -0.0129776 1 -0.014320374
vn -0.013671875 1 0.013671875
vn -0.012260437 1 -0.0149383545
vn -0.0129776 1 0.014320374
vn -0.011512756 1 -0.015525818
vn -0.012260437 1 0.0149383545
vn -0.0107421875 1 -0.016067505
vn -0.011512756 1 0.015525818
vn -0.009941101 1 -0.016586304
vn -0.0107421875 1 0.016067505
vn -0.009109497 1 -0.017044067
vn -0.009941101 1 0.016586304
vn -0.008262634 1 -0.017471313
vn -0.009109497 1 0.017044067
vn -0.007396698 1 -0.017852783
vn -0.008262634 1 0.017471313
vn -0.006511688 1 -0.018203735
vn -0.007396698 1 0.017852783
vn -0.0056114197 1 -0.018493652
vn -0.006511688 1 0.018203735
vn -0.0046958923 1 -0.018753052
vn -0.0056114197 1 0.018493652
vn -0.0037708282 1 -0.018951416
vn -0.0046958923 1 0.018753052
vn -0.0028362274 1 -0.019119263
vn -0.0037708282 1 0.018951416
vn -0.0018949509 1 -0.019241333
vn -0.0028362274 1 0.019119263
vn -0.0009484291 1 -0.019302368
vn -0.0018949509 1 0.019241333
vn -0 1 -0.019332886
vn -0.0009484291 1 0.019302368
vn 0.0009484291 1 -0.019302368
vn -0 1 0.019332886
vn 0.0018949509 1 -0.019241333
vn 0.0009484291 1 0.019302368
vn 0.0028362274 1 -0.019119263
vn 0.0018949509 1 0.019241333
vn 0.0037708282 1 -0.018951416
vn 0.0028362274 1 0.019119263
vn 0.0046958923 1 -0.018753052
vn 0.0037708282 1 0.018951416
vn 0.0056114197 1 -0.018493652
vn 0.0046958923 1 0.018753052
vn 0.006511688 1 -0.018203735
vn 0.0056114197 1 0.018493652
vn 0.007396698 1 -0.017852783
vn 0.006511688 1 0.018203735
vn 0.008262634 1 -0.017471313
vn 0.007396698 1 0.017852783
vn 0.009109497 1 -0.017044067
vn 0.008262634 1 0.017471313
vn 0.009941101 1 -0.016586304
vn 0.009109497 1 0.017044067
vn 0.0107421875 1 -0.016067505
vn 0.009941101 1 0.016586304
vn 0.011512756 1 -0.015525818
vn 0.0107421875 1 0.016067505
vn 0.012260437 1 -0.0149383545
vn 0.011512756 1 0.015525818
vn 0.0129776 1 -0.014320374
vn 0.012260437 1 0.0149383545
vn 0.013671875 1 -0.013664246
vn 0.0129776 1 0.014320374
vn 0.014320374 1 -0.0129776
vn 0.013671875 1 0.013671875
vn 0.0149383545 1 -0.012260437
vn 0.014320374 1 0.0129776
vn 0.015525818 1 -0.011512756
vn 0.0149383545 1 0.012260437
vn 0.016067505 1 -0.0107421875
vn 0.015525818 1 0.011512756
vn 0.016586304 1 -0.009941101
vn 0.016067505 1 0.0107421875
vn 0.017044067 1 -0.009109497
vn 0.016586304 1 0.009941101
vn 0.017471313 1 -0.008262634
vn 0.017044067 1 0.009109497
vn 0.017852783 1 -0.007396698
vn 0.017471313 1 0.008262634
vn 0.018203735 1 -0.006511688
vn 0.017852783 1 0.007396698
vn 0.018493652 1 -0.0056114197
vn 0.018203735 1 0.006511688
vn 0.018753052 1 -0.0046958923
vn 0.018493652 1 0.0056114197
vn 0.018951416 1 -0.0037708282
vn 0.018753052 1 0.0046958923
vn 0.019119263 1 -0.0028362274
vn 0.018951416 1 0.0037708282
vn 0.019241333 1 -0.0018949509
vn 0.019119263 1 0.0028362274
vn 0.019302368 1 -0.0009484291
vn 0.019241333 1 0.0018949509
vn 0.019332886 1 0
vn 0.019302368 1 0.0009484291
g Coin_Model_512_0
f 3/3/3 2/2/2 1/1/1
f 2/2/2 4/4/4 1/1/1
f 1/1/1 4/4/4 5/5/5
f 4/4/4 6/6/6 5/5/5
f 5/5/5 6/6/6 7/7/7
f 6/6/6 8/8/8 7/7/7
f 7/7/7 8/8/8 9/9/9
f 8/8/8 10/10/10 9/9/9
f 9/9/9 10/10/10 11/11/11
f 10/10/10 12/12/12 11/11/11
f 11/11/11 12/12/12 13/13/13
f 12/12/12 14/14/14 13/13/13
f 13/13/13 14/14/14 15/15/15
f 14/14/14 16/16/16 15/15/15
f 15/15/15 16/16/16 17/17/17
f 16/16/16 18/18/18 17/17/17
f 17/17/17 18/18/18 19/19/19
f 18/18/18 20/20/20 19/19/19
f 19/19/19 20/20/20 21/21/21
f 20/20/20 22/22/22 21/21/21
f 21/21/21 22/22/22 23/23/23
f 22/22/22 24/24/24 23/23/23
f 23/23/23 24/24/24 25/25/25
f 24/24/24 26/26/26 25/25/25
f 25/25/25 26/26/26 27/27/27
f 26/26/26 28/28/28 27/27/27
f 27/27/27 28/28/28 29/29/29
f 28/28/28 30/30/30 29/29/29
f 29/29/29 30/30/30 31/31/31
f 30/30/30 32/32/32 31/31/31
f 31/31/31 32/32/32 33/33/33
f 32/32/32 34/34/34 33/33/33
f 33/33/33 34/34/34 35/35/35
f 34/34/34 36/36/36 35/35/35
f 35/35/35 36/36/36 37/37/37
f 36/36/36 38/38/38 37/37/37
f 37/37/37 38/38/38 39/39/39
f 38/38/38 40/40/40 39/39/39
f 39/39/39 40/40/40 41/41/41
f 40/40/40 42/42/42 41/41/41
f 41/41/41 42/42/42 43/43/43
f 42/42/42 44/44/44 43/43/43
f 43/43/43 44/44/44 45/45/45
f 44/44/44 46/46/46 45/45/45
f 45/45/45 46/46/46 47/47/47
f 46/46/46 48/48/48 47/47/47
f 47/47/47 48/48/48 49/49/49
f 48/48/48 50/50/50 49/49/49
f 49/49/49 50/50/50 51/51/51
f 50/50/50 52/52/52 51/51/51
f 51/51/51 52/52/52 53/53/53
f 52/52/52 54/54/54 53/53/53
f 53/53/53 54/54/54 55/55/55
f 54/54/54 56/56/56 55/55/55
f 55/55/55 56/56/56 57/57/57
f 56/56/56 58/58/58 57/57/57
f 57/57/57 58/58/58 59/59/59
f 58/58/58 60/60/60 59/59/59
f 59/59/59 60/60/60 61/61/61
f 60/60/60 62/62/62 61/61/61
f 61/61/61 62/62/62 63/63/63
f 62/62/62 64/64/64 63/63/63
f 63/63/63 64/64/64 65/65/65
f 64/64/64 66/66/66 65/65/65
f 65/65/65 66/66/66 67/67/67
f 66/66/66 68/68/68 67/67/67
f 67/67/67 68/68/68 69/69/69
f 68/68/68 70/70/70 69/69/69
f 69/69/69 70/70/70 71/71/71
f 70/70/70 72/72/72 71/71/71
f 71/71/71 72/72/72 73/73/73
f 72/72/72 74/74/74 73/73/73
f 73/73/73 74/74/74 75/75/75
f 74/74/74 76/76/76 75/75/75
f 75/75/75 76/76/76 77/77/77
f 76/76/76 78/78/78 77/77/77
f 77/77/77 78/78/78 79/79/79
f 78/78/78 80/80/80 79/79/79
f 79/79/79 80/80/80 81/81/81
f 80/80/80 82/82/82 81/81/81
f 81/81/81 82/82/82 83/83/83
f 82/82/82 84/84/84 83/83/83
f 83/83/83 84/84/84 85/85/85
f 84/84/84 86/86/86 85/85/85
f 85/85/85 86/86/86 87/87/87
f 86/86/86 88/88/88 87/87/87
f 87/87/87 88/88/88 89/89/89
f 88/88/88 90/90/90 89/89/89
f 89/89/89 90/90/90 91/91/91
f 90/90/90 92/92/92 91/91/91
f 91/91/91 92/92/92 93/93/93
f 92/92/92 94/94/94 93/93/93
f 93/93/93 94/94/94 95/95/95
f 94/94/94 96/96/96 95/95/95
f 95/95/95 96/96/96 97/97/97
f 96/96/96 98/98/98 97/97/97
f 97/97/97 98/98/98 99/99/99
f 98/98/98 100/100/100 99/99/99
f 99/99/99 100/100/100 101/101/101
f 100/100/100 102/102/102 101/101/101
f 101/101/101 102/102/102 103/103/103
f 102/102/102 104/104/104 103/103/103
f 103/103/103 104/104/104 105/105/105
f 104/104/104 106/106/106 105/105/105
f 105/105/105 106/106/106 107/107/107
f 106/106/106 108/108/108 107/107/107
f 107/107/107 108/108/108 109/109/109
f 108/108/108 110/110/110 109/109/109
f 109/109/109 110/110/110 111/111/111
f 110/110/110 112/112/112 111/111/111
f 111/111/111 112/112/112 113/113/113
f 112/112/112 114/114/114 113/113/113
f 113/113/113 114/114/114 115/115/115
f 114/114/114 116/116/116 115/115/115
f 115/115/115 116/116/116 117/117/117
f 116/116/116 118/118/118 117/117/117
f 117/117/117 118/118/118 119/119/119
f 118/118/118 120/120/120 119/119/119
f 119/119/119 120/120/120 121/121/121
f 120/120/120 122/122/122 121/121/121
f 121/121/121 122/122/122 123/123/123
f 122/122/122 124/124/124 123/123/123
f 123/123/123 124/124/124 125/125/125
f 124/124/124 126/126/126 125/125/125
f 125/125/125 126/126/126 127/127/127
f 126/126/126 128/128/128 127/127/127
f 127/127/127 128/128/128 129/129/129
f 128/128/128 130/130/130 129/129/129
f 133/133/133 132/132/132 131/131/131
f 134/134/134 133/133/133 131/131/131
f 135/135/135 133/133/133 134/134/134
f 136/136/136 135/135/135 134/134/134
f 137/137/137 135/135/135 136/136/136
f 138/138/138 137/137/137 136/136/136
f 139/139/139 137/137/137 138/138/138
f 140/140/140 139/139/139 138/138/138
f 141/141/141 139/139/139 140/140/140
f 142/142/142 141/141/141 140/140/140
f 143/143/143 141/141/141 142/142/142
f 144/144/144 143/143/143 142/142/142
f 145/145/145 143/143/143 144/144/144
f 146/146/146 145/145/145 144/144/144
f 147/147/147 145/145/145 146/146/146
f 148/148/148 147/147/147 146/146/146
f 149/149/149 147/147/147 148/148/148
f 150/150/150 149/149/149 148/148/148
f 151/151/151 149/149/149 150/150/150
f 152/152/152 151/151/151 150/150/150
f 153/153/153 151/151/151 152/152/152
f 154/154/154 153/153/153 152/152/152
f 155/155/155 153/153/153 154/154/154
f 156/156/156 155/155/155 154/154/154
f 157/157/157 155/155/155 156/156/156
f 158/158/158 157/157/157 156/156/156
f 159/159/159 157/157/157 158/158/158
f 160/160/160 159/159/159 158/158/158
f 161/161/161 159/159/159 160/160/160
f 162/162/162 161/161/161 160/160/160
f 163/163/163 161/161/161 162/162/162
f 164/164/164 163/163/163 162/162/162
f 165/165/165 163/163/163 164/164/164
f 166/166/166 165/165/165 164/164/164
f 167/167/167 165/165/165 166/166/166
f 168/168/168 167/167/167 166/166/166
f 169/169/169 167/167/167 168/168/168
f 170/170/170 169/169/169 168/168/168
f 171/171/171 169/169/169 170/170/170
f 172/172/172 171/171/171 170/170/170
f 173/173/173 171/171/171 172/172/172
f 174/174/174 173/173/173 172/172/172
f 175/175/175 173/173/173 174/174/174
f 176/176/176 175/175/175 174/174/174
f 177/177/177 175/175/175 176/176/176
f 178/178/178 177/177/177 176/176/176
f 179/179/179 177/177/177 178/178/178
f 180/180/180 179/179/179 178/178/178
f 181/181/181 179/179/179 180/180/180
f 182/182/182 181/181/181 180/180/180
f 183/183/183 181/181/181 182/182/182
f 184/184/184 183/183/183 182/182/182
f 185/185/185 183/183/183 184/184/184
f 186/186/186 185/185/185 184/184/184
f 187/187/187 185/185/185 186/186/186
f 188/188/188 187/187/187 186/186/186
f 189/189/189 187/187/187 188/188/188
f 190/190/190 189/189/189 188/188/188
f 191/191/191 189/189/189 190/190/190
f 192/192/192 191/191/191 190/190/190
f 193/193/193 191/191/191 192/192/192
f 194/194/194 193/193/193 192/192/192
f 195/195/195 193/193/193 194/194/194
f 196/196/196 195/195/195 194/194/194
f 197/197/197 195/195/195 196/196/196
f 198/198/198 197/197/197 196/196/196
f 199/199/199 197/197/197 198/198/198
f 200/200/200 199/199/199 198/198/198
f 201/201/201 199/199/199 200/200/200
f 202/202/202 201/201/201 200/200/200
f 203/203/203 201/201/201 202/202/202
f 204/204/204 203/203/203 202/202/202
f 205/205/205 203/203/203 204/204/204
f 206/206/206 205/205/205 204/204/204
f 207/207/207 205/205/205 206/206/206
f 208/208/208 207/207/207 206/206/206
f 209/209/209 207/207/207 208/208/208
f 210/210/210 209/209/209 208/208/208
f 211/211/211 209/209/209 210/210/210
f 212/212/212 211/211/211 210/210/210
f 213/213/213 211/211/211 212/212/212
f 214/214/214 213/213/213 212/212/212
f 215/215/215 213/213/213 214/214/214
f 216/216/216 215/215/215 214/214/214
f 217/217/217 215/215/215 216/216/216
f 218/218/218 217/217/217 216/216/216
f 219/219/219 217/217/217 218/218/218
f 220/220/220 219/219/219 218/218/218
f 221/221/221 219/219/219 220/220/220
f 222/222/222 221/221/221 220/220/220
f 223/223/223 221/221/221 222/222/222
f 224/224/224 223/223/223 222/222/222
f 225/225/225 223/223/223 224/224/224
f 226/226/226 225/225/225 224/224/224
f 227/227/227 225/225/225 226/226/226
f 228/228/228 227/227/227 226/226/226
f 229/229/229 227/227/227 228/228/228
f 230/230/230 229/229/229 228/228/228
f 231/231/231 229/229/229 230/230/230
f 232/232/232 231/231/231 230/230/230
f 233/233/233 231/231/231 232/232/232
f 234/234/234 233/233/233 232/232/232
f 235/235/235 233/233/233 234/234/234
f 236/236/236 235/235/235 234/234/234
f 237/237/237 235/235/235 236/236/236
f 238/238/238 237/237/237 236/236/236
f 239/239/239 237/237/237 238/238/238
f 240/240/240 239/239/239 238/238/238
f 241/241/241 239/239/239 240/240/240
f 242/242/242 241/241/241 240/240/240
f 243/243/243 241/241/241 242/242/242
f 244/244/244 243/243/243 242/242/242
f 245/245/245 243/243/243 244/244/244
f 246/246/246 245/245/245 244/244/244
f 247/247/247 245/245/245 246/246/246
f 248/248/248 247/247/247 246/246/246
f 249/249/249 247/247/247 248/248/248
f 250/250/250 249/249/249 248/248/248
f 251/251/251 249/249/249 250/250/250
f 252/252/252 251/251/251 250/250/250
f 253/253/253 251/251/251 252/252/252
f 254/254/254 253/253/253 252/252/252
f 255/255/255 253/253/253 254/254/254
f 256/256/256 255/255/255 254/254/254
f 257/257/257 255/255/255 256/256/256
f 258/258/258 257/257/257 256/256/256
f 259/259/259 257/257/257 258/258/258
f 260/260/260 259/259/259 258/258/258
f 263/263/263 262/262/262 261/261/261
f 261/261/261 262/262/262 264/264/264
f 265/265/265 262/262/262 263/263/263
f 264/264/264 262/262/262 266/266/266
f 267/267/267 262/262/262 265/265/265
f 266/266/266 262/262/262 268/268/268
f 269/269/269 262/262/262 267/267/267
f 268/268/268 262/262/262 270/270/270
f 271/271/271 262/262/262 269/269/269
f 270/270/270 262/262/262 272/272/272
f 273/273/273 262/262/262 271/271/271
f 272/272/272 262/262/262 274/274/274
f 275/275/275 262/262/262 273/273/273
f 274/274/274 262/262/262 276/276/276
f 277/277/277 262/262/262 275/275/275
f 276/276/276 262/262/262 278/278/278
f 279/279/279 262/262/262 277/277/277
f 278/278/278 262/262/262 280/280/280
f 281/281/281 262/262/262 279/279/279
f 280/280/280 262/262/262 282/282/282
f 283/283/283 262/262/262 281/281/281
f 282/282/282 262/262/262 284/284/284
f 285/285/285 262/262/262 283/283/283
f 284/284/284 262/262/262 286/286/286
f 287/287/287 262/262/262 285/285/285
f 286/286/286 262/262/262 288/288/288
f 289/289/289 262/262/262 287/287/287
f 288/288/288 262/262/262 290/290/290
f 291/291/291 262/262/262 289/289/289
f 290/290/290 262/262/262 292/292/292
f 293/293/293 262/262/262 291/291/291
f 292/292/292 262/262/262 294/294/294
f 295/295/295 262/262/262 293/293/293
f 294/294/294 262/262/262 296/296/296
f 297/297/297 262/262/262 295/295/295
f 296/296/296 262/262/262 298/298/298
f 299/299/299 262/262/262 297/297/297
f 298/298/298 262/262/262 300/300/300
f 301/301/301 262/262/262 299/299/299
f 300/300/300 262/262/262 302/302/302
f 303/303/303 262/262/262 301/301/301
f 302/302/302 262/262/262 304/304/304
f 305/305/305 262/262/262 303/303/303
f 304/304/304 262/262/262 306/306/306
f 307/307/307 262/262/262 305/305/305
f 306/306/306 262/262/262 308/308/308
f 309/309/309 262/262/262 307/307/307
f 308/308/308 262/262/262 310/310/310
f 311/311/311 262/262/262 309/309/309
f 310/310/310 262/262/262 312/312/312
f 313/313/313 262/262/262 311/311/311
f 312/312/312 262/262/262 314/314/314
f 315/315/315 262/262/262 313/313/313
f 314/314/314 262/262/262 316/316/316
f 317/317/317 262/262/262 315/315/315
f 316/316/316 262/262/262 318/318/318
f 319/319/319 262/262/262 317/317/317
f 318/318/318 262/262/262 320/320/320
f 321/321/321 262/262/262 319/319/319
f 320/320/320 262/262/262 322/322/322
f 323/323/323 262/262/262 321/321/321
f 322/322/322 262/262/262 324/324/324
f 325/325/325 262/262/262 323/323/323
f 324/324/324 262/262/262 326/326/326
f 327/327/327 262/262/262 325/325/325
f 326/326/326 262/262/262 328/328/328
f 329/329/329 262/262/262 327/327/327
f 328/328/328 262/262/262 330/330/330
f 331/331/331 262/262/262 329/329/329
f 330/330/330 262/262/262 332/332/332
f 333/333/333 262/262/262 331/331/331
f 332/332/332 262/262/262 334/334/334
f 335/335/335 262/262/262 333/333/333
f 334/334/334 262/262/262 336/336/336
f 337/337/337 262/262/262 335/335/335
f 336/336/336 262/262/262 338/338/338
f 339/339/339 262/262/262 337/337/337
f 338/338/338 262/262/262 340/340/340
f 341/341/341 262/262/262 339/339/339
f 340/340/340 262/262/262 342/342/342
f 343/343/343 262/262/262 341/341/341
f 342/342/342 262/262/262 344/344/344
f 345/345/345 262/262/262 343/343/343
f 344/344/344 262/262/262 346/346/346
f 347/347/347 262/262/262 345/345/345
f 346/346/346 262/262/262 348/348/348
f 349/349/349 262/262/262 347/347/347
f 348/348/348 262/262/262 350/350/350
f 351/351/351 262/262/262 349/349/349
f 350/350/350 262/262/262 352/352/352
f 353/353/353 262/262/262 351/351/351
f 352/352/352 262/262/262 354/354/354
f 355/355/355 262/262/262 353/353/353
f 354/354/354 262/262/262 356/356/356
f 357/357/357 262/262/262 355/355/355
f 356/356/356 262/262/262 358/358/358
f 359/359/359 262/262/262 357/357/357
f 358/358/358 262/262/262 360/360/360
f 361/361/361 262/262/262 359/359/359
f 360/360/360 262/262/262 362/362/362
f 363/363/363 262/262/262 361/361/361
f 362/362/362 262/262/262 364/364/364
f 365/365/365 262/262/262 363/363/363
f 364/364/364 262/262/262 366/366/366
f 367/367/367 262/262/262 365/365/365
f 366/366/366 262/262/262 368/368/368
f 369/369/369 262/262/262 367/367/367
f 368/368/368 262/262/262 370/370/370
f 371/371/371 262/262/262 369/369/369
f 370/370/370 262/262/262 372/372/372
f 373/373/373 262/262/262 371/371/371
f 372/372/372 262/262/262 374/374/374
f 375/375/375 262/262/262 373/373/373
f 374/374/374 262/262/262 376/376/376
f 377/377/377 262/262/262 375/375/375
f 376/376/376 262/262/262 378/378/378
f 379/379/379 262/262/262 377/377/377
f 378/378/378 262/262/262 380/380/380
f 381/381/381 262/262/262 379/379/379
f 380/380/380 262/262/262 382/382/382
f 383/383/383 262/262/262 381/381/381
f 382/382/382 262/262/262 384/384/384
f 385/385/385 262/262/262 383/383/383
f 384/384/384 262/262/262 386/386/386
f 387/387/387 262/262/262 385/385/385
f 386/386/386 262/262/262 388/388/388
f 389/389/389 262/262/262 387/387/387
f 388/388/388 262/262/262 389/389/389
g Coin_Model_512_1
f 392/392/392 391/391/391 390/390/390
f 390/390/390 391/391/391 393/393/393
f 394/394/394 391/391/391 392/392/392
f 393/393/393 391/391/391 395/395/395
f 396/396/396 391/391/391 394/394/394
f 395/395/395 391/391/391 397/397/397
f 398/398/398 391/391/391 396/396/396
f 397/397/397 391/391/391 399/399/399
f 400/400/400 391/391/391 398/398/398
f 399/399/399 391/391/391 401/401/401
f 402/402/402 391/391/391 400/400/400
f 401/401/401 391/391/391 403/403/403
f 404/404/404 391/391/391 402/402/402
f 403/403/403 391/391/391 405/405/405
f 406/406/406 391/391/391 404/404/404
f 405/405/405 391/391/391 407/407/407
f 408/408/408 391/391/391 406/406/406
f 407/407/407 391/391/391 409/409/409
f 410/410/410 391/391/391 408/408/408
f 409/409/409 391/391/391 411/411/411
f 412/412/412 391/391/391 410/410/410
f 411/411/411 391/391/391 413/413/413
f 414/414/414 391/391/391 412/412/412
f 413/413/413 391/391/391 415/415/415
f 416/416/416 391/391/391 414/414/414
f 415/415/415 391/391/391 417/417/417
f 418/418/418 391/391/391 416/416/416
f 417/417/417 391/391/391 419/419/419
f 420/420/420 391/391/391 418/418/418
f 419/419/419 391/391/391 421/421/421
f 422/422/422 391/391/391 420/420/420
f 421/421/421 391/391/391 423/423/423
f 424/424/424 391/391/391 422/422/422
f 423/423/423 391/391/391 425/425/425
f 426/426/426 391/391/391 424/424/424
f 425/425/425 391/391/391 427/427/427
f 428/428/428 391/391/391 426/426/426
f 427/427/427 391/391/391 429/429/429
f 430/430/430 391/391/391 428/428/428
f 429/429/429 391/391/391 431/431/431
f 432/432/432 391/391/391 430/430/430
f 431/431/431 391/391/391 433/433/433
f 434/434/434 391/391/391 432/432/432
f 433/433/433 391/391/391 435/435/435
f 436/436/436 391/391/391 434/434/434
f 435/435/435 391/391/391 437/437/437
f 438/438/438 391/391/391 436/436/436
f 437/437/437 391/391/391 439/439/439
f 440/440/440 391/391/391 438/438/438
f 439/439/439 391/391/391 441/441/441
f 442/442/442 391/391/391 440/440/440
f 441/441/441 391/391/391 443/443/443
f 444/444/444 391/391/391 442/442/442
f 443/443/443 391/391/391 445/445/445
f 446/446/446 391/391/391 444/444/444
f 445/445/445 391/391/391 447/447/447
f 448/448/448 391/391/391 446/446/446
f 447/447/447 391/391/391 449/449/449
f 450/450/450 391/391/391 448/448/448
f 449/449/449 391/391/391 451/451/451
f 452/452/452 391/391/391 450/450/450
f 451/451/451 391/391/391 453/453/453
f 454/454/454 391/391/391 452/452/452
f 453/453/453 391/391/391 455/455/455
f 456/456/456 391/391/391 454/454/454
f 455/455/455 391/391/391 457/457/457
f 458/458/458 391/391/391 456/456/456
f 457/457/457 391/391/391 459/459/459
f 460/460/460 391/391/391 458/458/458
f 459/459/459 391/391/391 461/461/461
f 462/462/462 391/391/391 460/460/460
f 461/461/461 391/391/391 463/463/463
f 464/464/464 391/391/391 462/462/462
f 463/463/463 391/391/391 465/465/465
f 466/466/466 391/391/391 464/464/464
f 465/465/465 391/391/391 467/467/467
f 468/468/468 391/391/391 466/466/466
f 467/467/467 391/391/391 469/469/469
f 470/470/470 391/391/391 468/468/468
f 469/469/469 391/391/391 471/471/471
f 472/472/472 391/391/391 470/470/470
f 471/471/471 391/391/391 473/473/473
f 474/474/474 391/391/391 472/472/472
f 473/473/473 391/391/391 475/475/475
f 476/476/476 391/391/391 474/474/474
f 475/475/475 391/391/391 477/477/477
f 478/478/478 391/391/391 476/476/476
f 477/477/477 391/391/391 479/479/479
f 480/480/480 391/391/391 478/478/478
f 479/479/479 391/391/391 481/481/481
f 482/482/482 391/391/391 480/480/480
f 481/481/481 391/391/391 483/483/483
f 484/484/484 391/391/391 482/482/482
f 483/483/483 391/391/391 485/485/485
f 486/486/486 391/391/391 484/484/484
f 485/485/485 391/391/391 487/487/487
f 488/488/488 391/391/391 486/486/486
f 487/487/487 391/391/391 489/489/489
f 490/490/490 391/391/391 488/488/488
f 489/489/489 391/391/391 491/491/491
f 492/492/492 391/391/391 490/490/490
f 491/491/491 391/391/391 493/493/493
f 494/494/494 391/391/391 492/492/492
f 493/493/493 391/391/391 495/495/495
f 496/496/496 391/391/391 494/494/494
f 495/495/495 391/391/391 497/497/497
f 498/498/498 391/391/391 496/496/496
f 497/497/497 391/391/391 499/499/499
f 500/500/500 391/391/391 498/498/498
f 499/499/499 391/391/391 501/501/501
f 502/502/502 391/391/391 500/500/500
f 501/501/501 391/391/391 503/503/503
f 504/504/504 391/391/391 502/502/502
f 503/503/503 391/391/391 505/505/505
f 506/506/506 391/391/391 504/504/504
f 505/505/505 391/391/391 507/507/507
f 508/508/508 391/391/391 506/506/506
f 507/507/507 391/391/391 509/509/509
f 510/510/510 391/391/391 508/508/508
f 509/509/509 391/391/391 511/511/511
f 512/512/512 391/391/391 510/510/510
f 511/511/511 391/391/391 513/513/513
f 514/514/514 391/391/391 512/512/512
f 513/513/513 391/391/391 515/515/515
f 516/516/516 391/391/391 514/514/514
f 515/515/515 391/391/391 517/517/517
f 518/518/518 391/391/391 516/516/516
f 517/517/517 391/391/391 518/518/518
