g cPK_10_000470_00_FIREex_RR_L_SB
v -0.13134934 0.016023617 -0.013003039
v -0.148032 0.06672512 -0.01300305
v -0.14673427 0.006158996 -0.013003038
v -0.16548155 0.06349541 -0.013003046
v 0.032580383 0.13370785 -0.029698411
v 0.020687899 0.14773144 -0.02854824
v 0.008367735 0.13999851 -0.023498887
v 0.017948879 0.12338362 -0.022085315
v -0.029231912 0.20192523 -0.019871498
v -0.01277632 0.18702392 -0.022924233
v -0.015368044 0.20187457 -0.023114732
v -0.010658218 0.043927934 -0.013003046
v -0.018633975 0.02694956 -0.013003038
v -0.0004335887 0.022103872 -0.013003036
v -0.15487435 0.10115433 -0.013003046
v -0.17051294 0.099059545 -0.013003039
v -0.16613947 0.13198587 -0.013752217
v -0.15191376 0.12962677 -0.013392135
v -0.13661762 0.16087566 -0.013448181
v -0.14649287 0.16562322 -0.01378944
v -0.062373657 0.20784815 -0.014518718
v -0.088383794 0.20689912 -0.013260126
v -0.074634045 0.1973108 -0.013391467
v -0.08613711 0.19440727 -0.013260129
v -0.09772273 0.18957303 -0.013260129
v -0.026254047 0.016092585 -0.013003032
v -0.028205192 -0.01814552 -0.013003031
v -0.012359439 0.0039598355 -0.013003031
v -0.04315897 -0.0038640914 -0.013003029
v -0.06169461 -0.020491043 -0.013003023
v -0.050870866 -0.034563206 -0.013003031
v -0.031170418 0.19403927 -0.019077986
v -0.04935112 0.19833435 -0.016107058
v -0.00079595856 0.08340931 -0.01412912
v -0.00390839 0.067179106 -0.013059345
v 0.013358161 0.065760024 -0.013412786
v 0.0017417442 0.13264115 -0.020933557
v 0.0014879849 0.10777147 -0.016968641
v 0.07477069 0.15950799 -0.03974061
v 0.054642905 0.16167067 -0.037444003
v 0.046767432 0.14136858 -0.034795742
v 0.03758114 0.1547232 -0.03503181
v -0.061965328 0.19862384 -0.014386192
v -0.11329671 0.20065616 -0.013260129
v -0.108374916 0.18397811 -0.013260129
v -0.13325293 0.1835304 -0.013281611
v -0.12326236 0.1754676 -0.013281608
v 0.006518183 0.039620243 -0.013003046
v 0.015813924 0.08295309 -0.015322382
v -0.0014562842 0.20743711 -0.02989746
v -4.4214692E-05 0.19345286 -0.029354235
v -0.0859813 0.18577977 -0.01658457
v 0.06604733 0.1782634 -0.04304838
v 0.011126398 0.21563032 -0.034419753
v 0.014985541 0.20090543 -0.034991946
v 0.030237734 0.21178126 -0.037423756
v 0.04764746 0.21108691 -0.042951204
v 0.037241854 0.2266378 -0.04100141
v 0.061367996 0.19906959 -0.045482256
v 0.021221807 0.17564031 -0.040370382
v 0.031332843 0.1604409 -0.03932943
v -0.012900109 0.17783198 -0.028158998
v -0.021219453 0.18143816 -0.024968201
v -0.033242203 0.18739194 -0.022359135
v -0.0629051 0.1907081 -0.017410627
v 0.015763195 0.19337979 -0.039339334
v -0.014922713 0.06845582 -0.020585984
v -0.0075305277 0.10802658 -0.0231342
v -0.0652998 0.084220104 -0.024484038
v -0.04802615 0.12247608 -0.024453271
v -0.08806907 0.13925351 -0.021606728
v -0.10654135 0.1769993 -0.01710524
v -0.12835181 0.15722908 -0.015458569
v -0.03088349 0.028916586 -0.018640393
v -0.0819249 0.043658253 -0.021770323
v -0.10658691 0.10221481 -0.02111872
v -0.12240281 0.0572609 -0.01749268
v -0.04847569 -0.0020710255 -0.015435598
v -0.09361475 0.0072074994 -0.017996788
v -0.1030175 -0.02844636 -0.013003023
v -0.0064612436 0.122842096 -0.024471495
v -0.027112186 0.14725299 -0.02573273
v -0.037762366 0.13906454 -0.025071312
v 0.0018014252 0.14406697 -0.028468704
v -0.008065068 0.15958036 -0.030505786
v -0.016973272 0.15431254 -0.027618742
v -0.005799844 0.135975 -0.025571225
v -0.07314479 0.15670434 -0.021236736
v -0.051205378 0.16605882 -0.022214657
v -0.058121264 0.178719 -0.020154571
v -0.034903534 0.18013065 -0.023473224
v 0.00079370086 0.18540305 -0.033917
v 0.0070324293 0.16786833 -0.036110904
v 0.015939543 0.1533482 -0.034458227
v -0.022149613 0.17405772 -0.02572164
v -0.034402315 0.17029127 -0.024167908
v 0.110982694 0.1249205 -0.043940928
v 0.12989992 0.10960766 -0.041227084
v 0.1383605 0.10293805 -0.04257113
v 0.111052625 0.14223017 -0.048470955
v 0.100223385 0.15287325 -0.047652025
v 0.09865709 0.13464513 -0.04487058
v 0.23004706 0.03302554 -0.044121366
v 0.22814849 0.031749565 -0.04117201
v 0.23765126 0.02537989 -0.041269008
v 0.057453346 0.13632683 -0.037655804
v 0.07442763 0.13176088 -0.038027994
v 0.07395983 0.143502 -0.042508695
v 0.061875135 0.14565793 -0.04194904
v 0.04748088 0.15122059 -0.042169075
v 0.043775156 0.14276792 -0.037778147
v 0.035282098 0.16140796 -0.04290375
v 0.03043181 0.15372689 -0.038755756
v 0.093876295 0.13144611 -0.03927992
v 0.086142145 0.14367874 -0.04305285
v 0.115045 0.069873 -0.037122812
v 0.11979874 0.07103031 -0.040970128
v 0.14122477 0.007891146 -0.03542484
v 0.13028999 0.039462253 -0.038426943
v 0.12703791 0.03848428 -0.035641536
v 0.1391236 0.006921979 -0.03360943
v 0.011959344 0.19170164 -0.039985124
v 0.0147614125 0.17793813 -0.040123787
v 0.021868488 0.19319561 -0.04401906
v 0.027050648 0.17436658 -0.043567594
v 0.12289859 0.073089235 -0.041046012
v 0.13371287 0.07310933 -0.03897488
v 0.14136377 0.0047037867 -0.03360943
v 0.14254948 0.16267505 -0.04558673
v 0.17139626 0.12230464 -0.044986367
v 0.1481028 0.16560811 -0.043069802
v 0.13130325 0.17848629 -0.046917915
v 0.11532469 0.16291696 -0.047859356
v 0.14372842 0.18168154 -0.042795118
v 0.043880608 0.18911116 -0.0450961
v 0.022324085 0.21747112 -0.044427063
v 0.011417348 0.20604527 -0.039975647
v 0.013635854 0.21998124 -0.03982444
v 0.046395946 0.20978867 -0.046631332
v 0.078370586 0.17977874 -0.04673842
v 0.083401226 0.19859362 -0.04750696
v 0.10553165 0.17545527 -0.04730405
v 0.09616553 0.15637839 -0.045846265
v 0.020935042 0.16490398 -0.040123787
v 0.031772744 0.24226253 -0.04436554
v 0.026183818 0.22917233 -0.044558108
v 0.04473638 0.22289343 -0.04635247
v 0.045136206 0.23928498 -0.045838106
v 0.12219881 0.22338437 -0.0471685
v 0.11398653 0.23977652 -0.0469388
v 0.08726281 0.23837213 -0.04728945
v 0.09590918 0.22043827 -0.04751721
v 0.04758298 0.26207334 -0.044176243
v 0.03131113 0.2586973 -0.040373042
v 0.10554098 0.2670613 -0.044470508
v 0.08981007 0.27155304 -0.044134647
v 0.017286485 0.23316212 -0.040060245
v 0.023072489 0.24627388 -0.0404073
v 0.15167591 0.16730967 -0.040123824
v 0.15373904 0.17614228 -0.040123813
v 0.1497743 0.18371503 -0.04184011
v 0.044177566 0.16872975 -0.043988034
v 0.07256185 0.16046944 -0.044828027
v 0.1347399 0.24130881 -0.044952083
v 0.121581994 0.25619197 -0.04479827
v 0.14151777 0.2270706 -0.044710856
v 0.14836437 0.10735106 -0.04802827
v 0.23443015 0.035903707 -0.04309733
v 0.24058385 0.025115734 -0.041269008
v 0.2357686 0.036591955 -0.041204
v 0.24081956 0.027638284 -0.04149397
v 0.14310203 0.24509192 -0.040313847
v 0.1334274 0.2565779 -0.040201224
v 0.15034722 0.23032677 -0.040259864
v 0.059187323 0.2678526 -0.04402323
v 0.04265592 0.26839086 -0.04010816
v 0.07225475 0.27080768 -0.044121247
v 0.06884482 0.27871808 -0.039896768
v 0.055995055 0.27523696 -0.039896756
v 0.08264122 0.27989045 -0.039896764
v 0.096831165 0.2787388 -0.039896764
v 0.1076388 0.275342 -0.039896764
v 0.118459105 0.26927817 -0.04005562
v 0.12736796 0.26252925 -0.040207874
v 0.061570156 0.23706058 -0.046736334
v 0.070221215 0.21861768 -0.04736042
v 0.14733034 0.20647927 -0.04433299
v 0.15553215 0.19796689 -0.039996322
v 0.15483467 0.21043086 -0.040159628
v 0.15505396 0.18619439 -0.040026054
v 0.21464053 0.06265815 -0.043785155
v 0.21801908 0.06494051 -0.041258708
v 0.20334385 0.057035666 -0.045605097
v 0.1989757 0.054884482 -0.04097494
v 0.17793867 0.12592103 -0.04076898
v 0.14346829 0.0064013633 -0.03360943
v 0.14335416 0.040936183 -0.035803717
v 0.14026512 0.040792778 -0.03804397
v 0.13458472 0.03978321 -0.036769345
v 0.142655 0.0716111 -0.03746349
v 0.1411359 0.10075014 -0.039161753
v 0.13950232 0.072139315 -0.040241893
v 0.1411359 0.10075014 -0.039161753
v 0.15203737 0.0921055 -0.039516117
v 0.1383605 0.10293805 -0.04257113
v 0.13754407 0.1825871 -0.046133097
v 0.13058887 0.20212586 -0.046669427
v 0.10717856 0.19885468 -0.047489047
v 0.15203737 0.0921055 -0.039516117
v -0.1704926 0.13296117 -0.02168602
v -0.18491435 0.123762086 -0.024096493
v -0.18325022 0.12274909 -0.023602867
v -0.17540875 0.1752302 -0.023373168
v -0.18174116 0.15420881 -0.023038452
v -0.17219292 0.16108584 -0.022013152
v -0.2839755 0.16830157 -0.026335318
v -0.24712925 0.1878283 -0.027088627
v -0.2742893 0.20058373 -0.030541286
v -0.09337633 0.20050688 -0.019041492
v -0.089011215 0.2023561 -0.014149007
v -0.0957094 0.21689145 -0.015443875
v -0.09936369 0.21447925 -0.019652186
v -0.10476923 0.23620518 -0.017482784
v -0.10926545 0.23347878 -0.020889416
v -0.103882074 0.22454095 -0.020136846
v -0.09978279 0.22712946 -0.01661017
v -0.11234605 0.24528925 -0.018067839
v -0.11589799 0.24189977 -0.02169782
v -0.1256454 0.2564491 -0.01896999
v -0.1287328 0.2524022 -0.022895636
v -0.30263823 0.38267776 -0.037110265
v -0.30708337 0.37857732 -0.040950947
v -0.29653355 0.3709633 -0.040818855
v -0.29215738 0.37633124 -0.036434706
v -0.06971128 0.18461286 -0.021256974
v -0.06734741 0.19366178 -0.016890688
v -0.07242107 0.19809917 -0.015901018
v -0.074755214 0.18922052 -0.020689491
v -0.31367198 0.3833322 -0.038343754
v -0.3213854 0.37906802 -0.038448207
v -0.3140564 0.3721451 -0.04301629
v -0.33434233 0.3706941 -0.039305806
v -0.06500668 0.16316755 -0.021747148
v -0.061403375 0.17120974 -0.021050248
v -0.06832286 0.16458233 -0.0225319
v -0.06582543 0.1728187 -0.022998363
v -0.25990057 0.34349504 -0.034003522
v -0.27879682 0.36389455 -0.035985228
v -0.28299162 0.35902727 -0.040242728
v -0.26479036 0.3384482 -0.038471024
v -0.23940699 0.31469548 -0.036380954
v -0.23563027 0.31938383 -0.031676732
v -0.21232465 0.28954515 -0.0337107
v -0.20819402 0.2957542 -0.028424922
v -0.18620113 0.28231058 -0.025943477
v -0.18967669 0.27590892 -0.030865936
v -0.42131796 0.2738497 -0.03857717
v -0.34501907 0.23578954 -0.03862165
v -0.31549227 0.27978936 -0.04194365
v -0.38029724 0.32590738 -0.03890206
v -0.36795312 0.20927988 -0.03514875
v -0.36073393 0.21053927 -0.034962792
v -0.4463739 0.23389597 -0.03714486
v -0.29177147 0.34884 -0.04229828
v -0.30393916 0.36187926 -0.043076634
v -0.16395059 0.26678738 -0.02801244
v -0.16072403 0.27260128 -0.02298697
v -0.1700875 0.25574595 -0.029494002
v -0.19601479 0.2642342 -0.032950297
v -0.19584715 0.21339512 -0.02748377
v -0.24875467 0.23735566 -0.034849714
v -0.22376673 0.22599967 -0.031304587
v -0.21964298 0.27854466 -0.035924397
v -0.08039853 0.20150474 -0.01493247
v -0.08270686 0.19583036 -0.019380618
v -0.0971758 0.19724083 -0.022313742
v -0.09288632 0.18635859 -0.02221275
v -0.086844034 0.19080447 -0.02184414
v -0.061083782 0.17824356 -0.020280907
v -0.06321161 0.18653934 -0.018781235
v -0.064052574 0.18030128 -0.02148374
v -0.078540996 0.1816903 -0.022862215
v -0.08467759 0.17505275 -0.022901261
v -0.07680791 0.16909963 -0.023208743
v -0.07304504 0.17730527 -0.023038272
v -0.14104219 0.26495466 -0.021113683
v -0.14350024 0.25983664 -0.024520861
v -0.17454724 0.09446652 -0.023071138
v -0.16369131 0.10222343 -0.022809014
v -0.16408367 0.121816374 -0.021528509
v -0.17459324 0.09792676 -0.02260411
v -0.1417651 0.114440374 -0.02184138
v -0.15085064 0.13046874 -0.021385092
v -0.16931064 0.118953444 -0.021971786
v -0.12333369 0.19776772 -0.023373747
v -0.10870343 0.22221859 -0.022819268
v -0.13971305 0.21923597 -0.023857683
v -0.11405306 0.23076618 -0.023172922
v -0.13265887 0.24625854 -0.024952801
v -0.12016597 0.2381523 -0.02386811
v -0.070351265 0.15576315 -0.022501543
v -0.16028528 0.14198859 -0.021559155
v -0.14257269 0.1588826 -0.021530319
v -0.15313242 0.1755897 -0.021809587
v -0.18008773 0.1418477 -0.022870464
v -0.1674031 0.19743703 -0.02284786
v -0.14840575 0.25124702 -0.026625339
v -0.17687932 0.19111702 -0.023351919
v -0.103590034 0.2116777 -0.022396186
v -0.113641165 0.18332863 -0.02237635
v -0.10634761 0.13563164 -0.021955166
v -0.08489287 0.14495979 -0.022413898
v -0.102499604 0.16584289 -0.02238035
v -0.13368307 0.14309098 -0.021649936
v -0.12401467 0.12627044 -0.021399776
v -0.22172533 0.14293586 -0.023515562
v -0.21552168 0.1462849 -0.023458896
v -0.21756735 0.15483335 -0.02361661
v -0.20376268 0.15668742 -0.02341421
v -0.21530099 0.1767901 -0.024960732
v -0.22716478 0.1631891 -0.02381489
v -0.23065701 0.17072852 -0.024336549
v -0.24547167 0.1806648 -0.026168197
v -0.3446009 0.2070334 -0.035015494
v -0.31792027 0.1734052 -0.029837731
v -0.33021757 0.20027249 -0.034060404
v -0.18880601 0.17696397 -0.02313006
v -0.296465 0.16494478 -0.027259355
v -0.3085212 0.14889507 -0.02511747
v -0.29542306 0.15956622 -0.026305085
v -0.24893 0.30287957 -0.038986914
v -0.27400732 0.3289301 -0.04084577
v -0.07626057 0.15026669 -0.0227146
v -0.39694592 0.17469354 -0.036109664
v -0.44739684 0.18333493 -0.03689168
v -0.29409602 0.34951317 -0.043344826
v -0.29562446 0.36115578 -0.04286496
v -0.30184212 0.36091086 -0.045271363
v -0.30055583 0.3493915 -0.045769155
v -0.30473113 0.383635 -0.042749908
v -0.31116125 0.38343653 -0.04286921
v -0.310163 0.37908646 -0.04513344
v -0.30637652 0.37926224 -0.044927783
v -0.41422692 0.045856204 -0.04191629
v -0.42962795 0.09667362 -0.0432862
v -0.4306386 0.023657726 -0.03860385
v -0.19686215 0.19096188 -0.044869926
v -0.20870319 0.18060425 -0.046339605
v -0.17656437 0.18672742 -0.04346454
v -0.23719464 0.20037301 -0.048381206
v -0.2124851 0.19737996 -0.045954876
v -0.22719143 0.20843308 -0.046908192
v -0.29143766 0.3315404 -0.043864597
v -0.29849726 0.3309593 -0.046299417
v -0.28552368 0.31433895 -0.044567477
v -0.2926104 0.3131269 -0.0467114
v -0.2673792 0.28290603 -0.045095503
v -0.2759969 0.28229144 -0.047751192
v -0.40838543 -0.03328435 -0.03840657
v -0.39708108 -0.056814194 -0.037355732
v -0.38758758 -0.035574287 -0.040312894
v -0.2599639 0.2553502 -0.047790974
v -0.25051776 0.25620493 -0.044761807
v -0.39155972 0.17013992 -0.04568935
v -0.39162755 0.23014157 -0.047043335
v -0.45351335 0.23502932 -0.040895976
v -0.48431212 0.18183209 -0.041391253
v -0.36633512 0.10421401 -0.044480313
v -0.23587392 0.23624556 -0.044745155
v -0.24604762 0.23410769 -0.047504887
v -0.21893199 0.21508817 -0.043959398
v -0.163299 0.04637687 -0.040561713
v -0.17136882 0.06456235 -0.04124276
v -0.17472379 0.051514752 -0.04502501
v -0.18799175 0.0817599 -0.045236003
v -0.19585796 0.08024267 -0.04639734
v -0.19511025 0.10297202 -0.04561655
v -0.20635085 0.102215126 -0.04688878
v -0.22068326 0.033999063 -0.042674553
v -0.19700545 0.036219496 -0.04169014
v -0.19701687 0.047676817 -0.045698743
v -0.22029774 0.04528555 -0.04662592
v -0.18578562 0.17369491 -0.044419743
v -0.22381878 0.16727035 -0.04795442
v -0.20725429 0.1586821 -0.04609177
v -0.19757079 0.16444044 -0.045442667
v -0.37734267 0.33244908 -0.042152088
v -0.329102 0.36994073 -0.046289425
v -0.3316042 0.37320712 -0.04242307
v -0.31730387 0.3718916 -0.04700486
v -0.32704458 0.33076265 -0.048992082
v -0.30874234 0.37297493 -0.046494517
v -0.38645563 0.28179935 -0.047048192
v -0.31663206 0.22965465 -0.048636034
v -0.3253224 0.28133264 -0.049050964
v -0.41978964 0.28293687 -0.042705458
v -0.36953625 0.33221477 -0.045299113
v -0.21795969 0.14190964 -0.04740267
v -0.2040623 0.1429845 -0.045931432
v -0.30056423 0.1679843 -0.048977174
v -0.2814904 0.107266024 -0.049634453
v -0.306354 -0.00089382194 -0.043709327
v -0.2941299 -0.010266538 -0.043173917
v -0.27770594 -0.012228613 -0.04406583
v -0.22925201 0.0069116293 -0.04498064
v -0.25958142 -0.013069239 -0.04448357
v -0.3279608 -0.032176796 -0.039951503
v -0.33626965 -0.0021369678 -0.042293966
v -0.34230867 -0.035671476 -0.04021421
v -0.26558384 0.07370251 -0.048611578
v -0.2534729 0.05138416 -0.047907252
v -0.25697684 0.23181105 -0.049532276
v -0.28706768 0.28150195 -0.049080715
v -0.30147424 0.31161094 -0.04852793
v -0.27185088 0.25427458 -0.04962849
v -0.34612793 0.0648813 -0.044644345
v -0.33384582 0.042054843 -0.04416951
v -0.41448554 0.017842889 -0.04001492
v -0.34304214 0.03625955 -0.043303248
v -0.176977 0.041216798 -0.040896565
v -0.34888315 -0.07986216 -0.037297845
v -0.34369373 -0.058511145 -0.03896571
v -0.37353823 -0.056647576 -0.03904155
v -0.41133758 -0.011199837 -0.039024957
v -0.32548887 0.026269326 -0.044223666
v -0.24711017 0.03600359 -0.04703198
v -0.22046283 -0.0018269838 -0.044122305
v -0.23460649 -0.016223857 -0.03990346
v -0.20656316 -0.00556804 -0.038982164
v -0.23961015 0.037638776 -0.043565065
v -0.22091714 0.0076402784 -0.041091394
v -0.31975278 0.37994215 -0.042861283
v -0.31865692 0.37628162 -0.045673635
v -0.32686636 0.36661655 -0.047572114
v -0.2996075 0.38193178 -0.042556494
v -0.29754576 0.37717745 -0.04254688
v -0.3024028 0.37535438 -0.04491332
v -0.30630425 0.3303166 -0.047898185
v -0.30809566 0.34924945 -0.047234595
v -0.30849266 0.3606489 -0.04687621
v -0.2361354 -0.009440665 -0.043994825
v -0.28296766 -0.016196612 -0.042277444
v -0.253914 -0.01930967 -0.040335115
v -0.2702708 -0.018873356 -0.040717162
v -0.31577528 0.010920921 -0.044191655
v -0.1934619 0.14390562 -0.042177476
v -0.19539618 0.15780267 -0.04242901
v -0.18998279 0.12733129 -0.042385817
v -0.18518333 0.10370266 -0.042701166
v -0.17910485 0.08375948 -0.041564938
v -0.20549007 0.20345166 -0.042926144
v -0.17731456 0.19297412 -0.041578095
v -0.19179274 0.19559014 -0.041880406
v -0.16801383 0.18085513 -0.04038384
v -0.16237167 0.19076505 -0.04127836
v -0.18311477 0.1638588 -0.041270126
v -0.17529903 0.17108522 -0.040826418
v -0.16445795 0.19201864 -0.041244794
v -0.18964975 0.15988891 -0.041862495
v 0.19009882 0.13429244 -0.03988858
v 0.16628174 0.17017959 -0.04012379
v 0.05235815 0.12410901 -0.036749
v 0.03338593 0.28020442 -0.039896745
v 0.0040529855 0.17387038 -0.03980817
v 0.012262744 0.15747266 -0.039317355
v -0.0011438713 0.19025056 -0.03878467
v 0.0025339352 0.23735397 -0.038401585
v 0.08025866 0.29429877 -0.03989675
v 0.05166772 0.28862995 -0.03989675
v 0.12571658 0.2824096 -0.03989675
v 0.1545252 0.25172368 -0.039379228
v 0.16278842 0.2341564 -0.039593678
v 0.16773508 0.21403919 -0.039500963
v 0.24849275 0.043761905 -0.040123906
v 0.23054843 0.0726439 -0.03988863
v 0.14317465 0.26911837 -0.039671026
v 0.111554265 0.2891472 -0.03989675
v 0.009750984 0.25246355 -0.038933184
v -0.0017619325 0.20635474 -0.03809341
v 0.0204725 0.14107493 -0.040123772
v 0.08342125 0.11594045 -0.037045535
v 0.16860645 0.18843563 -0.039803997
v 0.14130816 -0.017806726 -0.031384934
v 0.15400966 -0.009050614 -0.03138494
v 0.12769075 -0.0040641497 -0.03293273
v 0.22115588 0.018691415 -0.040123906
v 0.1895685 0.043461856 -0.039514318
v 0.24318479 0.010580139 -0.040123947
v 0.25637546 0.022173492 -0.04012395
v 0.10136336 0.063416 -0.036380813
v 0.15762746 0.068895765 -0.036577385
v 0.15648133 0.041320253 -0.035387088
v 0.11182481 0.03314875 -0.035316356
v -0.32121208 0.13075174 -0.022942575
v -0.3431079 0.18287434 -0.031745818
v -0.43526536 0.28290865 -0.035917636
v -0.30334416 0.13160928 -0.022155007
v -0.2865709 0.14768589 -0.024252243
v -0.28324467 0.38899598 -0.03536133
v -0.32637835 0.3942541 -0.03935561
v -0.34440464 0.38036904 -0.039919227
v -0.40249345 0.15811592 -0.035496667
v -0.38777193 0.16345079 -0.03464478
v -0.39124975 0.33460924 -0.038291994
v -0.10315187 0.12555729 -0.023047436
v -0.07967531 0.13493732 -0.023509458
v -0.06503552 0.14241275 -0.023746887
v -0.048928913 0.1570986 -0.023746435
v -0.07850345 0.2147454 -0.014768235
v -0.048299503 0.19419529 -0.01887987
v -0.19394796 0.14402415 -0.02115067
v -0.16324909 0.086271994 -0.021856649
v -0.17921264 0.08193405 -0.022377376
v -0.19539595 0.11542568 -0.024083018
v -0.18527873 0.10816618 -0.022063693
v -0.08443605 0.22411494 -0.015898108
v -0.08778208 0.23431222 -0.017936656
v -0.21402787 0.12983765 -0.024813388
v -0.23717058 0.14922795 -0.023708487
v -0.23302911 0.12962466 -0.023149047
v -0.11623676 0.2694001 -0.018455205
v -0.10112258 0.25507933 -0.018931393
v -0.25339642 0.16569953 -0.025043717
v -0.20016833 0.30919185 -0.025998568
v -0.17882836 0.2959158 -0.023236027
v -0.18774739 0.09095339 -0.021324873
v -0.35951588 0.19116896 -0.033986155
v -0.13502775 0.10049255 -0.022765243
v -0.11903303 0.116679385 -0.022833526
v -0.04366079 0.17798345 -0.023226796
v -0.06045698 0.20983174 -0.015154645
v -0.15397726 0.2852723 -0.021276683
v -0.22588734 0.33138916 -0.029051457
v -0.2492628 0.35487843 -0.03213783
v -0.26881936 0.3755232 -0.03420448
v -0.30394801 0.39909843 -0.03871071
v -0.32428584 -0.058680065 -0.03841833
v -0.31025827 -0.019471375 -0.043517496
v -0.30194545 0.39763758 -0.041623224
v -0.33912897 0.39050525 -0.042607903
v -0.3898213 0.34422848 -0.041540544
v -0.33261922 -0.089425415 -0.03748871
v -0.3889149 -0.074830405 -0.038028985
v -0.40697488 -0.0736773 -0.03629922
v -0.43065807 -0.019489579 -0.03788594
v -0.4729614 0.24042717 -0.03716625
v -0.43681452 0.28906223 -0.039729465
v -0.18543538 -0.0082102185 -0.03813538
v -0.21017604 0.019547421 -0.04127718
v -0.2625088 -0.03499602 -0.04031216
v -0.1600476 0.15844445 -0.040806424
v -0.14801715 0.2020835 -0.039094537
v -0.18050317 0.2071331 -0.041369896
v -0.17540689 0.14554669 -0.041194763
v -0.28376105 0.35025343 -0.042733897
v -0.28689706 0.3618587 -0.04213677
v -0.28989002 0.37966478 -0.04149233
v -0.29100177 0.38942438 -0.04161914
v -0.31788424 0.3965793 -0.04219639
v -0.35230657 -0.089728534 -0.03748871
v -0.1509698 0.0634523 -0.040718526
v -0.14247945 0.033600923 -0.04041427
v -0.17311215 0.020082198 -0.040931113
v -0.16800989 0.10787673 -0.041068435
v -0.1466258 0.18546504 -0.03985567
v -0.19774751 0.21527715 -0.04333184
v -0.20947261 0.22508012 -0.044156548
v -0.23058932 -0.029809222 -0.03952485
v -0.25476804 0.29321226 -0.04510499
v -0.2670698 0.3184057 -0.044409044
v -0.2380925 0.2655587 -0.046154555
v -0.22352068 0.24294494 -0.0455189
v 0.16310662 0.2718468 -0.05564035
v 0.20016053 0.27794808 -0.055279173
v 0.1906843 0.3496338 -0.05653816
v 0.12567417 0.3403667 -0.056543197
v 0.03898713 0.41597077 -0.05653816
v 0.18152766 0.41890192 -0.055279173
v 0.04798655 0.52107793 -0.05653816
v -0.055607807 0.49614173 -0.05653816
v -0.019350061 0.44611135 -0.05653816
v 0.14864486 0.20012553 -0.055279173
v 0.19110285 0.20962076 -0.055279173
v 0.15329568 0.15460153 -0.05653816
v 0.13698697 0.5109657 -0.05653816
v 0.13395987 0.1968414 -0.05653816
v 0.109113626 0.19377033 -0.05653816
v 0.113935225 0.26375026 -0.06159679
v 0.07324066 0.33300322 -0.062325668
v 0.01641783 0.32439893 -0.06192143
v -0.118563525 0.47291645 -0.05653816
v 0.03622206 0.38936308 -0.059538897
v 0.0030291413 0.4152313 -0.05653816
v -0.1058224 0.41979223 -0.05653816
v 0.063796535 0.39433324 -0.05653816
v 0.05699722 0.2581401 -0.058692764
v 0.14665496 0.2694624 -0.059258904
v 0.108341716 0.3377635 -0.060534146
v 0.034215108 0.2366575 -0.054345556
v 0.009070894 0.21281384 -0.05438103
v -0.14127737 0.304054 -0.05653816
v -0.10430646 0.24224667 -0.05653816
v -0.04607718 0.24798405 -0.055597514
v -0.08832702 0.31119967 -0.05653816
v -0.11242135 0.3568675 -0.05653816
v -0.18692704 0.42319056 -0.05653816
v -0.14652012 0.4214975 -0.05653816
v 0.10717944 0.126733 -0.05653816
v -0.044647854 0.17685714 -0.05653816
v -0.024532827 0.3198087 -0.059923388
v -0.054208953 0.3158864 -0.05759542
v -0.014956388 0.2762345 -0.057115383
v -0.06456566 0.36904776 -0.057779755
v -0.08576121 0.36291993 -0.055899944
v -0.023009663 0.3771182 -0.059426796
v 0.020033903 0.129256 -0.05653816
vt 0.5449219 0.4230957
vt 0.56396484 0.4814453
vt 0.5625 0.4116211
vt 0.5839844 0.4777832
vt 0.3552246 0.55908203
vt 0.36889648 0.5751953
vt 0.38330078 0.56591797
vt 0.37231445 0.546875
vt 0.4267578 0.6376953
vt 0.40795898 0.62060547
vt 0.41088867 0.6376953
vt 0.40527344 0.45532227
vt 0.41455078 0.43554688
vt 0.3935547 0.42993164
vt 0.57177734 0.5214844
vt 0.58984375 0.51904297
vt 0.58496094 0.5566406
vt 0.5683594 0.5541992
vt 0.55078125 0.59033203
vt 0.5620117 0.5957031
vt 0.4650879 0.64453125
vt 0.4951172 0.6435547
vt 0.47924805 0.6323242
vt 0.49243164 0.62890625
vt 0.5058594 0.62353516
vt 0.42333984 0.4230957
vt 0.4255371 0.38354492
vt 0.40722656 0.4091797
vt 0.4428711 0.40014648
vt 0.46435547 0.38085938
vt 0.4519043 0.36450195
vt 0.42895508 0.62841797
vt 0.44995117 0.6333008
vt 0.39404297 0.50097656
vt 0.39746094 0.48217773
vt 0.37768555 0.48046875
vt 0.39111328 0.5576172
vt 0.39135742 0.5288086
vt 0.3071289 0.5883789
vt 0.33007812 0.5908203
vt 0.33911133 0.5678711
vt 0.34960938 0.5830078
vt 0.4645996 0.63378906
vt 0.5239258 0.63623047
vt 0.5180664 0.6166992
vt 0.546875 0.61621094
vt 0.53515625 0.6069336
vt 0.38549805 0.4501953
vt 0.37475586 0.5004883
vt 0.3947754 0.64404297
vt 0.39331055 0.6279297
vt 0.4921875 0.6191406
vt 0.31713867 0.61035156
vt 0.3803711 0.6533203
vt 0.37597656 0.63671875
vt 0.35839844 0.6489258
vt 0.33813477 0.6479492
vt 0.3503418 0.66552734
vt 0.32250977 0.63427734
vt 0.3684082 0.6074219
vt 0.3569336 0.58984375
vt 0.40795898 0.6098633
vt 0.41748047 0.61376953
vt 0.43139648 0.62060547
vt 0.46557617 0.6245117
vt 0.37475586 0.6279297
vt 0.4104004 0.48364258
vt 0.40185547 0.5292969
vt 0.46850586 0.5019531
vt 0.44848633 0.54589844
vt 0.4946289 0.5654297
vt 0.5161133 0.6088867
vt 0.5410156 0.5859375
vt 0.42871094 0.43798828
vt 0.48754883 0.45483398
vt 0.5161133 0.52246094
vt 0.5341797 0.47070312
vt 0.4489746 0.4020996
vt 0.50097656 0.4128418
vt 0.51220703 0.37158203
vt 0.40063477 0.5463867
vt 0.4243164 0.57470703
vt 0.43652344 0.5649414
vt 0.39086914 0.5708008
vt 0.40234375 0.5888672
vt 0.41259766 0.58251953
vt 0.3996582 0.56152344
vt 0.47753906 0.5854492
vt 0.45214844 0.5961914
vt 0.46020508 0.61083984
vt 0.4333496 0.6123047
vt 0.3918457 0.61865234
vt 0.38476562 0.59814453
vt 0.37451172 0.58154297
vt 0.41870117 0.60546875
vt 0.43286133 0.6010742
vt 0.1697998 0.36157227
vt 0.14782715 0.34375
vt 0.13806152 0.3359375
vt 0.1697998 0.38183594
vt 0.1821289 0.39404297
vt 0.1842041 0.37280273
vt 0.03152466 0.2541504
vt 0.03375244 0.25268555
vt 0.022735596 0.24536133
vt 0.23205566 0.37475586
vt 0.21228027 0.3696289
vt 0.21325684 0.3828125
vt 0.22717285 0.38549805
vt 0.24365234 0.39233398
vt 0.2479248 0.38232422
vt 0.2578125 0.40405273
vt 0.26342773 0.39526367
vt 0.18969727 0.36914062
vt 0.19873047 0.38330078
vt 0.16516113 0.29736328
vt 0.1595459 0.29858398
vt 0.13476562 0.22485352
vt 0.14746094 0.26171875
vt 0.15124512 0.2607422
vt 0.13720703 0.22375488
vt 0.2849121 0.43945312
vt 0.28173828 0.42333984
vt 0.2734375 0.4411621
vt 0.26733398 0.41918945
vt 0.15600586 0.3010254
vt 0.14343262 0.3010254
vt 0.13452148 0.2211914
vt 0.13317871 0.40551758
vt 0.09967041 0.35839844
vt 0.12670898 0.40893555
vt 0.14624023 0.42407227
vt 0.16479492 0.40576172
vt 0.13171387 0.42773438
vt 0.24780273 0.43652344
vt 0.27270508 0.46948242
vt 0.2854004 0.45629883
vt 0.28295898 0.4724121
vt 0.24487305 0.46069336
vt 0.20776367 0.4255371
vt 0.2019043 0.44750977
vt 0.17614746 0.42041016
vt 0.18713379 0.39819336
vt 0.27441406 0.40820312
vt 0.26171875 0.49853516
vt 0.26831055 0.4831543
vt 0.2467041 0.47583008
vt 0.24621582 0.4951172
vt 0.15686035 0.4765625
vt 0.16638184 0.49560547
vt 0.1973877 0.49389648
vt 0.18737793 0.4729004
vt 0.2434082 0.5214844
vt 0.26245117 0.5175781
vt 0.17614746 0.52734375
vt 0.19445801 0.53271484
vt 0.2788086 0.48779297
vt 0.27197266 0.50341797
vt 0.122558594 0.4111328
vt 0.12011719 0.42138672
vt 0.12475586 0.43017578
vt 0.24743652 0.41259766
vt 0.21447754 0.40307617
vt 0.14233398 0.49731445
vt 0.15759277 0.51464844
vt 0.13452148 0.4807129
vt 0.12646484 0.34106445
vt 0.026443481 0.25756836
vt 0.019317627 0.24499512
vt 0.024871826 0.25854492
vt 0.019012451 0.24804688
vt 0.13256836 0.5019531
vt 0.14379883 0.5151367
vt 0.12408447 0.48461914
vt 0.22998047 0.5283203
vt 0.24926758 0.5288086
vt 0.21484375 0.5317383
vt 0.21875 0.5410156
vt 0.23376465 0.5371094
vt 0.20275879 0.54248047
vt 0.1862793 0.5410156
vt 0.17370605 0.5371094
vt 0.16113281 0.53027344
vt 0.15075684 0.52197266
vt 0.22717285 0.49243164
vt 0.21716309 0.47094727
vt 0.12768555 0.4567871
vt 0.11810303 0.44677734
vt 0.118896484 0.46142578
vt 0.118652344 0.43310547
vt 0.049438477 0.28881836
vt 0.04550171 0.2915039
vt 0.062561035 0.28222656
vt 0.06762695 0.27978516
vt 0.09197998 0.36279297
vt 0.13208008 0.22314453
vt 0.13220215 0.26342773
vt 0.13586426 0.2631836
vt 0.14245605 0.26220703
vt 0.13305664 0.2993164
vt 0.13476562 0.33325195
vt 0.13671875 0.2998047
vt 0.13476562 0.33325195
vt 0.12213135 0.3232422
vt 0.13806152 0.3359375
vt 0.13903809 0.42895508
vt 0.14709473 0.45166016
vt 0.1743164 0.4477539
vt 0.12213135 0.3232422
vt 0.14257812 0.65966797
vt 0.15917969 0.6479492
vt 0.15783691 0.64746094
vt 0.14807129 0.7084961
vt 0.15563965 0.68408203
vt 0.14428711 0.69189453
vt 0.27416992 0.7006836
vt 0.2310791 0.72265625
vt 0.2626953 0.73779297
vt 0.05331421 0.7373047
vt 0.04815674 0.7397461
vt 0.055725098 0.75634766
vt 0.06048584 0.75341797
vt 0.066345215 0.7788086
vt 0.07232666 0.7753906
vt 0.06591797 0.7651367
vt 0.06048584 0.7680664
vt 0.07513428 0.7890625
vt 0.080078125 0.78515625
vt 0.09051514 0.8017578
vt 0.09472656 0.7973633
vt 0.29541016 0.9501953
vt 0.30029297 0.9458008
vt 0.28833008 0.9370117
vt 0.28320312 0.9428711
vt 0.02607727 0.7182617
vt 0.02319336 0.72998047
vt 0.029083252 0.7348633
vt 0.03189087 0.7241211
vt 0.30786133 0.9511719
vt 0.31689453 0.94628906
vt 0.30810547 0.93847656
vt 0.3317871 0.9370117
vt 0.020309448 0.6923828
vt 0.016143799 0.7026367
vt 0.02432251 0.6948242
vt 0.02154541 0.70458984
vt 0.24584961 0.90478516
vt 0.26782227 0.92871094
vt 0.27270508 0.92285156
vt 0.25170898 0.8989258
vt 0.22216797 0.8701172
vt 0.21777344 0.8754883
vt 0.19104004 0.84033203
vt 0.18615723 0.84814453
vt 0.1607666 0.83203125
vt 0.16491699 0.82421875
vt 0.43310547 0.8222656
vt 0.34472656 0.7783203
vt 0.31030273 0.82910156
vt 0.3852539 0.8828125
vt 0.37158203 0.7470703
vt 0.36328125 0.74902344
vt 0.46289062 0.7753906
vt 0.28271484 0.9116211
vt 0.29663086 0.9267578
vt 0.13513184 0.81396484
vt 0.13122559 0.8208008
vt 0.14160156 0.8022461
vt 0.17163086 0.8120117
vt 0.17150879 0.7524414
vt 0.23291016 0.78027344
vt 0.20385742 0.7675781
vt 0.19909668 0.8286133
vt 0.038330078 0.73876953
vt 0.041046143 0.7319336
vt 0.05770874 0.73339844
vt 0.05279541 0.7207031
vt 0.045806885 0.7260742
vt 0.01576233 0.7114258
vt 0.018249512 0.7211914
vt 0.019515991 0.7133789
vt 0.036254883 0.71533203
vt 0.04336548 0.70751953
vt 0.034362793 0.7006836
vt 0.029953003 0.70996094
vt 0.10852051 0.81152344
vt 0.111694336 0.80566406
vt 0.14758301 0.6166992
vt 0.13500977 0.6254883
vt 0.1352539 0.64746094
vt 0.14794922 0.62158203
vt 0.10986328 0.6401367
vt 0.12011719 0.65771484
vt 0.14160156 0.64453125
vt 0.08782959 0.734375
vt 0.070617676 0.7626953
vt 0.10668945 0.75927734
vt 0.07647705 0.7729492
vt 0.0982666 0.7910156
vt 0.08355713 0.7817383
vt 0.02659607 0.6850586
vt 0.1307373 0.67041016
vt 0.11022949 0.6894531
vt 0.12243652 0.7089844
vt 0.15356445 0.6694336
vt 0.13879395 0.7338867
vt 0.116760254 0.7963867
vt 0.14990234 0.7270508
vt 0.064941406 0.7504883
vt 0.076660156 0.71728516
vt 0.068603516 0.6635742
vt 0.04348755 0.67333984
vt 0.06378174 0.6972656
vt 0.10021973 0.671875
vt 0.08929443 0.6533203
vt 0.20166016 0.67089844
vt 0.19470215 0.6748047
vt 0.19677734 0.6845703
vt 0.18103027 0.6870117
vt 0.1940918 0.70996094
vt 0.20788574 0.69433594
vt 0.21191406 0.703125
vt 0.22912598 0.71435547
vt 0.34472656 0.7446289
vt 0.31323242 0.70654297
vt 0.32788086 0.7373047
vt 0.16357422 0.7104492
vt 0.28857422 0.69677734
vt 0.3022461 0.6777344
vt 0.28759766 0.6904297
vt 0.2331543 0.8564453
vt 0.26220703 0.8881836
vt 0.03338623 0.6791992
vt 0.40649414 0.70654297
vt 0.46728516 0.71484375
vt 0.6772461 0.5078125
vt 0.6791992 0.5214844
vt 0.68652344 0.5205078
vt 0.6850586 0.5073242
vt 0.6899414 0.546875
vt 0.6972656 0.546875
vt 0.69628906 0.5410156
vt 0.69189453 0.5415039
vt 0.81689453 0.15893555
vt 0.8354492 0.21740723
vt 0.8364258 0.13439941
vt 0.5649414 0.32543945
vt 0.5786133 0.31298828
vt 0.5415039 0.32055664
vt 0.6118164 0.33569336
vt 0.5830078 0.33251953
vt 0.60009766 0.34545898
vt 0.67333984 0.48754883
vt 0.6821289 0.48657227
vt 0.6669922 0.46826172
vt 0.67578125 0.46606445
vt 0.6459961 0.43237305
vt 0.6567383 0.43041992
vt 0.81103516 0.06768799
vt 0.7988281 0.040252686
vt 0.7871094 0.0647583
vt 0.6381836 0.3996582
vt 0.62646484 0.40185547
vt 0.79052734 0.30029297
vt 0.79052734 0.36914062
vt 0.86279297 0.37646484
vt 0.8989258 0.31640625
vt 0.76123047 0.22424316
vt 0.6088867 0.3791504
vt 0.6220703 0.375
vt 0.58984375 0.35424805
vt 0.5258789 0.15893555
vt 0.53515625 0.17980957
vt 0.5395508 0.16442871
vt 0.5551758 0.19921875
vt 0.5644531 0.19714355
vt 0.56347656 0.22351074
vt 0.5761719 0.22241211
vt 0.59277344 0.14416504
vt 0.5654297 0.14685059
vt 0.5654297 0.15991211
vt 0.59228516 0.15710449
vt 0.5527344 0.30541992
vt 0.5961914 0.29736328
vt 0.5776367 0.2878418
vt 0.56640625 0.29467773
vt 0.7739258 0.4880371
vt 0.71777344 0.5307617
vt 0.7211914 0.53466797
vt 0.70458984 0.53271484
vt 0.71533203 0.48535156
vt 0.6948242 0.5341797
vt 0.7841797 0.42871094
vt 0.703125 0.36889648
vt 0.7133789 0.4284668
vt 0.8232422 0.43115234
vt 0.76464844 0.4873047
vt 0.58984375 0.2680664
vt 0.57373047 0.2697754
vt 0.6850586 0.29760742
vt 0.66308594 0.22753906
vt 0.6923828 0.104003906
vt 0.67822266 0.093322754
vt 0.6591797 0.09136963
vt 0.60302734 0.11315918
vt 0.6381836 0.0904541
vt 0.71728516 0.06781006
vt 0.7270508 0.10272217
vt 0.734375 0.064208984
vt 0.64453125 0.18920898
vt 0.6308594 0.16394043
vt 0.6347656 0.3720703
vt 0.6694336 0.42919922
vt 0.68603516 0.4638672
vt 0.65185547 0.39794922
vt 0.73779297 0.17907715
vt 0.7236328 0.15283203
vt 0.8178711 0.12683105
vt 0.734375 0.14648438
vt 0.5419922 0.15283203
vt 0.7421875 0.013137817
vt 0.7363281 0.037902832
vt 0.7709961 0.040252686
vt 0.8144531 0.09326172
vt 0.71435547 0.13476562
vt 0.62353516 0.1463623
vt 0.59277344 0.10321045
vt 0.609375 0.08648682
vt 0.57666016 0.09875488
vt 0.6147461 0.14819336
vt 0.5932617 0.1138916
vt 0.70751953 0.54248047
vt 0.7060547 0.53759766
vt 0.71533203 0.5263672
vt 0.68408203 0.5449219
vt 0.68115234 0.5395508
vt 0.6875 0.5371094
vt 0.69189453 0.48535156
vt 0.69384766 0.50683594
vt 0.69433594 0.52001953
vt 0.6113281 0.09454346
vt 0.66503906 0.08648682
vt 0.63183594 0.08288574
vt 0.6503906 0.08337402
vt 0.703125 0.117370605
vt 0.5605469 0.27124023
vt 0.56347656 0.28710938
vt 0.5566406 0.25219727
vt 0.55126953 0.22485352
vt 0.5439453 0.2019043
vt 0.57421875 0.3408203
vt 0.5419922 0.32910156
vt 0.55859375 0.3317871
vt 0.53125 0.31420898
vt 0.52490234 0.3256836
vt 0.5488281 0.2944336
vt 0.5395508 0.30273438
vt 0.52685547 0.32739258
vt 0.5566406 0.28979492
vt 0.077819824 0.37280273
vt 0.10559082 0.41430664
vt 0.23803711 0.3605957
vt 0.26000977 0.54296875
vt 0.2939453 0.41870117
vt 0.28442383 0.39941406
vt 0.30004883 0.43774414
vt 0.29589844 0.49267578
vt 0.2055664 0.55908203
vt 0.23876953 0.5527344
vt 0.15270996 0.54541016
vt 0.11920166 0.5097656
vt 0.109558105 0.48901367
vt 0.1038208 0.46557617
vt 0.009979248 0.26708984
vt 0.030700684 0.3010254
vt 0.13244629 0.52978516
vt 0.16918945 0.55322266
vt 0.28759766 0.5102539
vt 0.30078125 0.45654297
vt 0.27490234 0.3803711
vt 0.20202637 0.35083008
vt 0.10284424 0.43579102
vt 0.13452148 0.19470215
vt 0.11975098 0.20495605
vt 0.15026855 0.21081543
vt 0.0418396 0.23754883
vt 0.077941895 0.26586914
vt 0.016174316 0.22827148
vt 0.0010766983 0.24133301
vt 0.18103027 0.28979492
vt 0.115356445 0.29589844
vt 0.11682129 0.26367188
vt 0.16870117 0.25439453
vt 0.31689453 0.6567383
vt 0.34277344 0.71728516
vt 0.44921875 0.8330078
vt 0.29638672 0.6582031
vt 0.27685547 0.6767578
vt 0.27319336 0.95751953
vt 0.32299805 0.96435547
vt 0.34375 0.9482422
vt 0.41357422 0.6870117
vt 0.3947754 0.6948242
vt 0.39819336 0.8930664
vt 0.0647583 0.65185547
vt 0.037475586 0.6621094
vt 0.020599365 0.67041016
vt 0.0019989014 0.6875
vt 0.036102295 0.75341797
vt 0.0011110306 0.73095703
vt 0.16967773 0.6723633
vt 0.13427734 0.6069336
vt 0.15197754 0.6010742
vt 0.17126465 0.63916016
vt 0.16015625 0.6323242
vt 0.043060303 0.76464844
vt 0.047058105 0.7763672
vt 0.19299316 0.6557617
vt 0.21948242 0.67822266
vt 0.21459961 0.65527344
vt 0.08013916 0.81640625
vt 0.062683105 0.80029297
vt 0.23840332 0.6972656
vt 0.17712402 0.86328125
vt 0.15246582 0.84716797
vt 0.16149902 0.6098633
vt 0.36206055 0.7260742
vt 0.10192871 0.62402344
vt 0.083618164 0.6425781
vt -0.004257202 0.71191406
vt 0.0154800415 0.7475586
vt 0.12365723 0.83496094
vt 0.20666504 0.88916016
vt 0.23364258 0.91748047
vt 0.25610352 0.94189453
vt 0.29711914 0.96972656
vt 0.7133789 0.037384033
vt 0.69677734 0.08282471
vt 0.68652344 0.5629883
vt 0.72998047 0.5546875
vt 0.7885742 0.5019531
vt 0.7236328 0.0021896362
vt 0.7890625 0.01939392
vt 0.8105469 0.020736694
vt 0.83691406 0.08392334
vt 0.8847656 0.38232422
vt 0.8432617 0.43847656
vt 0.5522461 0.09576416
vt 0.5805664 0.12768555
vt 0.64160156 0.06500244
vt 0.52246094 0.28857422
vt 0.5078125 0.33984375
vt 0.5449219 0.34594727
vt 0.54003906 0.27368164
vt 0.66503906 0.50927734
vt 0.6689453 0.52246094
vt 0.67285156 0.54248047
vt 0.6743164 0.55371094
vt 0.7050781 0.5620117
vt 0.74658203 0.0019350052
vt 0.51171875 0.17871094
vt 0.5024414 0.14428711
vt 0.53759766 0.12854004
vt 0.53125 0.2298584
vt 0.50634766 0.32006836
vt 0.5649414 0.35546875
vt 0.578125 0.36694336
vt 0.60498047 0.07098389
vt 0.63134766 0.4440918
vt 0.6455078 0.4724121
vt 0.6113281 0.41308594
vt 0.5942383 0.38745117
vt 0.55908203 0.7265625
vt 0.5161133 0.7338867
vt 0.52685547 0.8173828
vt 0.60253906 0.8066406
vt 0.7036133 0.89453125
vt 0.53759766 0.8979492
vt 0.6933594 1.0175781
vt 0.81396484 0.98828125
vt 0.7714844 0.9296875
vt 0.5756836 0.6430664
vt 0.5263672 0.6542969
vt 0.5703125 0.59033203
vt 0.58935547 1.0048828
vt 0.59277344 0.63916016
vt 0.6220703 0.6357422
vt 0.61621094 0.71728516
vt 0.6635742 0.79785156
vt 0.72998047 0.78808594
vt 0.88720703 0.9609375
vt 0.70703125 0.86376953
vt 0.74560547 0.89404297
vt 0.8725586 0.8989258
vt 0.6748047 0.8696289
vt 0.6826172 0.7109375
vt 0.578125 0.7241211
vt 0.6230469 0.80371094
vt 0.70947266 0.6855469
vt 0.73828125 0.6582031
vt 0.9135742 0.76416016
vt 0.87060547 0.6923828
vt 0.8027344 0.69873047
vt 0.8520508 0.77246094
vt 0.8798828 0.8256836
vt 0.9667969 0.9033203
vt 0.9199219 0.9013672
vt 0.62402344 0.5576172
vt 0.80126953 0.61621094
vt 0.77783203 0.78271484
vt 0.8120117 0.77783203
vt 0.76660156 0.7319336
vt 0.82421875 0.83984375
vt 0.8491211 0.8330078
vt 0.7758789 0.8496094
vt 0.72558594 0.5605469
vn -0 0 -1
vn -0 0 -1
vn -0 0 -1
vn -0 0 -1
vn -0 0 -1
vn -0 0 -1
vn -0 0 -1
vn -0 0 -1
vn -0 0 -1
vn -0 0 -1
vn -0 0 -1
vn -0 0 -1
vn -0 0 -1
vn -0 0 -1
vn -0 0 -1
vn -0 0 -1
vn -0 0 -1
vn -0 0 -1
vn -0 0 -1
vn -0 0 -1
vn -0 0 -1
vn -0 0 -1
vn -0 0 -1
vn -0 0 -1
vn -0 0 -1
vn -0 0 -1
vn -0 0 -1
vn -0 0 -1
vn -0 0 -1
vn -0 0 -1
vn -0 0 -1
vn -0 0 -1
vn -0 0 -1
vn -0 0 -1
vn -0 0 -1
vn -0 0 -1
vn -0 0 -1
vn -0 0 -1
vn -0 0 -1
vn -0 0 -1
vn -0 0 -1
vn -0 0 -1
vn -0 0 -1
vn -0 0 -1
vn -0 0 -1
vn -0 0 -1
vn -0 0 -1
vn -0 0 -1
vn -0 0 -1
vn -0 0 -1
vn -0 0 -1
vn -0 0 -1
vn -0 0 -1
vn -0 0 -1
vn -0 0 -1
vn -0 0 -1
vn -0 0 -1
vn -0 0 -1
vn -0 0 -1
vn -0 0 -1
vn -0 0 -1
vn -0 0 -1
vn -0 0 -1
vn -0 0 -1
vn -0 0 -1
vn -0 0 -1
vn -0 0 -1
vn -0 0 -1
vn -0 0 -1
vn -0 0 -1
vn -0 0 -1
vn -0 0 -1
vn -0 0 -1
vn -0 0 -1
vn -0 0 -1
vn -0 0 -1
vn -0 0 -1
vn -0 0 -1
vn -0 0 -1
vn -0 0 -1
vn -0 0 -1
vn -0 0 -1
vn -0 0 -1
vn -0 0 -1
vn -0 0 -1
vn -0 0 -1
vn -0 0 -1
vn -0 0 -1
vn -0 0 -1
vn -0 0 -1
vn -0 0 -1
vn -0 0 -1
vn -0 0 -1
vn -0 0 -1
vn -0 0 -1
vn -0 0 -1
vn -0 0 -1
vn -0 0 -1
vn -0 0 -1
vn -0 0 -1
vn -0 0 -1
vn -0 0 -1
vn -0 0 -1
vn -0 0 -1
vn -0 0 -1
vn -0 0 -1
vn -0 0 -1
vn -0 0 -1
vn -0 0 -1
vn -0 0 -1
vn -0 0 -1
vn -0 0 -1
vn -0 0 -1
vn -0 0 -1
vn -0 0 -1
vn -0 0 -1
vn -0 0 -1
vn -0 0 -1
vn -0 0 -1
vn -0 0 -1
vn -0 0 -1
vn -0 0 -1
vn -0 0 -1
vn -0 0 -1
vn -0 0 -1
vn -0 0 -1
vn -0 0 -1
vn -0 0 -1
vn -0 0 -1
vn -0 0 -1
vn -0 0 -1
vn -0 0 -1
vn -0 0 -1
vn -0 0 -1
vn -0 0 -1
vn -0 0 -1
vn -0 0 -1
vn -0 0 -1
vn -0 0 -1
vn -0 0 -1
vn -0 0 -1
vn -0 0 -1
vn -0 0 -1
vn -0 0 -1
vn -0 0 -1
vn -0 0 -1
vn -0 0 -1
vn -0 0 -1
vn -0 0 -1
vn -0 0 -1
vn -0 0 -1
vn -0 0 -1
vn -0 0 -1
vn -0 0 -1
vn -0 0 -1
vn -0 0 -1
vn -0 0 -1
vn -0 0 -1
vn -0 0 -1
vn -0 0 -1
vn -0 0 -1
vn -0 0 -1
vn -0 0 -1
vn -0 0 -1
vn -0 0 -1
vn -0 0 -1
vn -0 0 -1
vn -0 0 -1
vn -0 0 -1
vn -0 0 -1
vn -0 0 -1
vn -0 0 -1
vn -0 0 -1
vn -0 0 -1
vn -0 0 -1
vn -0 0 -1
vn -0 0 -1
vn -0 0 -1
vn -0 0 -1
vn -0 0 -1
vn -0 0 -1
vn -0 0 -1
vn -0 0 -1
vn -0 0 -1
vn -0 0 -1
vn -0 0 -1
vn -0 0 -1
vn -0 0 -1
vn -0 0 -1
vn -0 0 -1
vn -0 0 -1
vn -0 0 -1
vn -0 0 -1
vn -0 0 -1
vn -0 0 -1
vn -0 0 -1
vn -0 0 -1
vn -0 0 -1
vn -0 0 -1
vn -0 0 -1
vn -0 0 -1
vn -0 0 -1
vn -0 0 -1
vn -0 0 -1
vn -0 0 -1
vn -0 0 -1
vn -0 0 -1
vn -0 0 -1
vn -0 0 -1
vn -0 0 -1
vn -0 0 -1
vn -0 0 -1
vn -0 0 -1
vn -0 0 -1
vn -0 0 -1
vn -0 0 -1
vn -0 0 -1
vn -0 0 -1
vn -0 0 -1
vn -0 0 -1
vn -0 0 -1
vn -0 0 -1
vn -0 0 -1
vn -0 0 -1
vn -0 0 -1
vn -0 0 -1
vn -0 0 -1
vn -0 0 -1
vn -0 0 -1
vn -0 0 -1
vn -0 0 -1
vn -0 0 -1
vn -0 0 -1
vn -0 0 -1
vn -0 0 -1
vn -0 0 -1
vn -0 0 -1
vn -0 0 -1
vn -0 0 -1
vn -0 0 -1
vn -0 0 -1
vn -0 0 -1
vn -0 0 -1
vn -0 0 -1
vn -0 0 -1
vn -0 0 -1
vn -0 0 -1
vn -0 0 -1
vn -0 0 -1
vn -0 0 -1
vn -0 0 -1
vn -0 0 -1
vn -0 0 -1
vn -0 0 -1
vn -0 0 -1
vn -0 0 -1
vn -0 0 -1
vn -0 0 -1
vn -0 0 -1
vn -0 0 -1
vn -0 0 -1
vn -0 0 -1
vn -0 0 -1
vn -0 0 -1
vn -0 0 -1
vn -0 0 -1
vn -0 0 -1
vn -0 0 -1
vn -0 0 -1
vn -0 0 -1
vn -0 0 -1
vn -0 0 -1
vn -0 0 -1
vn -0 0 -1
vn -0 0 -1
vn -0 0 -1
vn -0 0 -1
vn -0 0 -1
vn -0 0 -1
vn -0 0 -1
vn -0 0 -1
vn -0 0 -1
vn -0 0 -1
vn -0 0 -1
vn -0 0 -1
vn -0 0 -1
vn -0 0 -1
vn -0 0 -1
vn -0 0 -1
vn -0 0 -1
vn -0 0 -1
vn -0 0 -1
vn -0 0 -1
vn -0 0 -1
vn -0 0 -1
vn -0 0 -1
vn -0 0 -1
vn -0 0 -1
vn -0 0 -1
vn -0 0 -1
vn -0 0 -1
vn -0 0 -1
vn -0 0 -1
vn -0 0 -1
vn -0 0 -1
vn -0 0 -1
vn -0 0 -1
vn -0 0 -1
vn -0 0 -1
vn -0 0 -1
vn -0 0 -1
vn -0 0 -1
vn -0 0 -1
vn -0 0 -1
vn -0 0 -1
vn -0 0 -1
vn -0 0 -1
vn -0 0 -1
vn -0 0 -1
vn -0 0 -1
vn -0 0 -1
vn -0 0 -1
vn -0 0 -1
vn -0 0 -1
vn -0 0 -1
vn -0 0 -1
vn -0 0 -1
vn -0 0 -1
vn -0 0 -1
vn -0 0 -1
vn -0 0 -1
vn -0 0 -1
vn -0 0 -1
vn -0 0 -1
vn -0 0 -1
vn -0 0 -1
vn -0 0 -1
vn -0 0 -1
vn -0 0 -1
vn -0 0 -1
vn -0 0 -1
vn -0 0 -1
vn -0 0 -1
vn -0 0 -1
vn -0 0 -1
vn -0 0 -1
vn -0 0 -1
vn -0 0 -1
vn -0 0 -1
vn -0 0 -1
vn -0 0 -1
vn -0 0 -1
vn -0 0 -1
vn -0 0 -1
vn -0 0 -1
vn -0 0 -1
vn -0 0 -1
vn -0 0 -1
vn -0 0 -1
vn -0 0 -1
vn -0 0 -1
vn -0 0 -1
vn -0 0 -1
vn -0 0 -1
vn -0 0 -1
vn -0 0 -1
vn -0 0 -1
vn -0 0 -1
vn -0 0 -1
vn -0 0 -1
vn -0 0 -1
vn -0 0 -1
vn -0 0 -1
vn -0 0 -1
vn -0 0 -1
vn -0 0 -1
vn -0 0 -1
vn -0 0 -1
vn -0 0 -1
vn -0 0 -1
vn -0 0 -1
vn -0 0 -1
vn -0 0 -1
vn -0 0 -1
vn -0 0 -1
vn -0 0 -1
vn -0 0 -1
vn -0 0 -1
vn -0 0 -1
vn -0 0 -1
vn -0 0 -1
vn -0 0 -1
vn -0 0 -1
vn -0 0 -1
vn -0 0 -1
vn -0 0 -1
vn -0 0 -1
vn -0 0 -1
vn -0 0 -1
vn -0 0 -1
vn -0 0 -1
vn -0 0 -1
vn -0 0 -1
vn -0 0 -1
vn -0 0 -1
vn -0 0 -1
vn -0 0 -1
vn -0 0 -1
vn -0 0 -1
vn -0 0 -1
vn -0 0 -1
vn -0 0 -1
vn -0 0 -1
vn -0 0 -1
vn -0 0 -1
vn -0 0 -1
vn -0 0 -1
vn -0 0 -1
vn -0 0 -1
vn -0 0 -1
vn -0 0 -1
vn -0 0 -1
vn -0 0 -1
vn -0 0 -1
vn -0 0 -1
vn -0 0 -1
vn -0 0 -1
vn -0 0 -1
vn -0 0 -1
vn -0 0 -1
vn -0 0 -1
vn -0 0 -1
vn -0 0 -1
vn -0 0 -1
vn -0 0 -1
vn -0 0 -1
vn -0 0 -1
vn -0 0 -1
vn -0 0 -1
vn -0 0 -1
vn -0 0 -1
vn -0 0 -1
vn -0 0 -1
vn -0 0 -1
vn -0 0 -1
vn -0 0 -1
vn -0 0 -1
vn -0 0 -1
vn -0 0 -1
vn -0 0 -1
vn -0 0 -1
vn -0 0 -1
vn -0 0 -1
vn -0 0 -1
vn -0 0 -1
vn -0 0 -1
vn -0 0 -1
vn -0 0 -1
vn -0 0 -1
vn -0 0 -1
vn -0 0 -1
vn -0 0 -1
vn -0 0 -1
vn -0 0 -1
vn -0 0 -1
vn -0 0 -1
vn -0 0 -1
vn -0 0 -1
vn -0 0 -1
vn -0 0 -1
vn -0 0 -1
vn -0 0 -1
vn -0 0 -1
vn -0 0 -1
vn -0 0 -1
vn -0 0 -1
vn -0 0 -1
vn -0 0 -1
vn -0 0 -1
vn -0 0 -1
vn -0 0 -1
vn -0 0 -1
vn -0 0 -1
vn -0 0 -1
vn -0 0 -1
vn -0 0 -1
vn -0 0 -1
vn -0 0 -1
vn -0 0 -1
vn -0 0 -1
vn -0 0 -1
vn -0 0 -1
vn -0 0 -1
vn -0 0 -1
vn -0 0 -1
vn -0 0 -1
vn -0 0 -1
vn -0 0 -1
vn -0 0 -1
vn -0 0 -1
vn -0 0 -1
vn -0 0 -1
vn -0 0 -1
vn -0 0 -1
vn -0 0 -1
vn -0 0 -1
vn -0 0 -1
vn -0 0 -1
vn -0 0 -1
vn -0 0 -1
vn -0 0 -1
vn -0 0 -1
vn -0 0 -1
vn -0 0 -1
vn -0 0 -1
vn -0 0 -1
vn -0 0 -1
vn -0 0 -1
vn -0 0 -1
vn -0 0 -1
vn -0 0 -1
vn -0 0 -1
vn -0 0 -1
vn -0 0 -1
vn -0 0 -1
vn -0 0 -1
vn -0 0 -1
vn -0 0 -1
vn -0 0 -1
vn -0 0 -1
vn -0 0 -1
vn -0 0 -1
vn -0 0 -1
vn -0 0 -1
vn -0 0 -1
vn -0 0 -1
vn -0 0 -1
vn -0 0 -1
vn -0 0 -1
vn -0 0 -1
vn -0 0 -1
vn -0 0 -1
vn -0 0 -1
vn -0 0 -1
vn -0 0 -1
vn -0 0 -1
vn -0 0 -1
vn -0 0 -1
vn -0 0 -1
vn -0 0 -1
vn -0 0 -1
vn -0 0 -1
vn -0 0 -1
vn -0 0 -1
vn -0 0 -1
vn -0 0 -1
vn -0 0 -1
vn -0 0 -1
vn -0 0 -1
vn -0 0 -1
vn -0 0 -1
vn -0 0 -1
vn -0 0 -1
vn -0 0 -1
vn -0 0 -1
vn -0 0 -1
vn -0 0 -1
vn -0 0 -1
vn -0 0 -1
vn -0 0 -1
vn -0 0 -1
vn -0 0 -1
vn -0 0 -1
vn -0 0 -1
vn -0 0 -1
vn -0 0 -1
vn -0 0 -1
vn -0 0 -1
vn -0 0 -1
vn -0 0 -1
vn -0 0 -1
vn -0 0 -1
vn -0 0 -1
vn -0 0 -1
vn -0 0 -1
vn -0 0 -1
vn -0 0 -1
vn -0 0 -1
vn -0 0 -1
vn -0 0 -1
vn -0 0 -1
vn -0 0 -1
vn -0 0 -1
vn -0 0 -1
vn -0 0 -1
vn -0 0 -1
vn -0 0 -1
vn -0 0 -1
vn -0 0 -1
vn -0 0 -1
vn -0 0 -1
vn -0 0 -1
vn -0 0 -1
vn -0 0 -1
vn -0 0 -1
vn -0 0 -1
vn -0 0 -1
vn -0 0 -1
vn -0 0 -1
vn -0 0 -1
vn -0 0 -1
vn -0 0 -1
vn -0 0 -1
vn -0 0 -1
vn -0 0 -1
vn -0 0 -1
g cPK_10_000470_00_FIREex_RR_L_SB_0
f 3/3/3 2/2/2 1/1/1
f 3/3/3 4/4/4 2/2/2
f 7/7/7 6/6/6 5/5/5
f 8/8/8 7/7/7 5/5/5
f 11/11/11 10/10/10 9/9/9
f 14/14/14 13/13/13 12/12/12
f 2/2/2 16/16/16 15/15/15
f 2/2/2 4/4/4 16/16/16
f 17/17/17 15/15/15 16/16/16
f 17/17/17 18/18/18 15/15/15
f 17/17/17 20/20/20 19/19/19
f 18/18/18 17/17/17 19/19/19
f 23/23/23 22/22/22 21/21/21
f 23/23/23 24/24/24 22/22/22
f 24/24/24 25/25/25 22/22/22
f 14/14/14 26/26/26 13/13/13
f 29/29/29 28/28/28 27/27/27
f 29/29/29 26/26/26 28/28/28
f 27/27/27 30/30/30 29/29/29
f 27/27/27 31/31/31 30/30/30
f 32/32/32 9/9/9 10/10/10
f 9/9/9 32/32/32 33/33/33
f 36/36/36 35/35/35 34/34/34
f 8/8/8 37/37/37 7/7/7
f 8/8/8 38/38/38 37/37/37
f 41/41/41 40/40/40 39/39/39
f 41/41/41 5/5/5 42/42/42
f 5/5/5 6/6/6 42/42/42
f 9/9/9 33/33/33 21/21/21
f 33/33/33 43/43/43 21/21/21
f 22/22/22 25/25/25 44/44/44
f 46/46/46 44/44/44 45/45/45
f 25/25/25 45/45/45 44/44/44
f 45/45/45 47/47/47 46/46/46
f 46/46/46 19/19/19 20/20/20
f 46/46/46 47/47/47 19/19/19
f 14/14/14 28/28/28 26/26/26
f 14/14/14 12/12/12 48/48/48
f 48/48/48 35/35/35 36/36/36
f 12/12/12 35/35/35 48/48/48
f 49/49/49 36/36/36 34/34/34
f 49/49/49 38/38/38 8/8/8
f 34/34/34 38/38/38 49/49/49
f 51/51/51 11/11/11 50/50/50
f 51/51/51 10/10/10 11/11/11
f 52/52/52 24/24/24 23/23/23
f 40/40/40 53/53/53 39/39/39
f 56/56/56 55/55/55 54/54/54
f 58/58/58 57/57/57 56/56/56
f 61/61/61 60/60/60 59/59/59
f 63/63/63 10/10/10 62/62/62
f 64/64/64 33/33/33 32/32/32
f 43/43/43 65/65/65 23/23/23
f 43/43/43 33/33/33 65/65/65
f 57/57/57 66/66/66 55/55/55
f 56/56/56 57/57/57 55/55/55
f 68/68/68 34/34/34 67/67/67
f 68/68/68 38/38/38 34/34/34
f 68/68/68 67/67/67 69/69/69
f 70/70/70 68/68/68 69/69/69
f 73/73/73 72/72/72 71/71/71
f 73/73/73 19/19/19 47/47/47
f 67/67/67 12/12/12 74/74/74
f 67/67/67 35/35/35 12/12/12
f 74/74/74 75/75/75 69/69/69
f 67/67/67 74/74/74 69/69/69
f 77/77/77 76/76/76 69/69/69
f 75/75/75 77/77/77 69/69/69
f 74/74/74 26/26/26 78/78/78
f 74/74/74 13/13/13 26/26/26
f 74/74/74 78/78/78 79/79/79
f 75/75/75 74/74/74 79/79/79
f 77/77/77 75/75/75 79/79/79
f 1/1/1 77/77/77 79/79/79
f 77/77/77 1/1/1 2/2/2
f 1/1/1 79/79/79 80/80/80
f 83/83/83 82/82/82 81/81/81
f 86/86/86 85/85/85 84/84/84
f 87/87/87 86/86/86 84/84/84
f 90/90/90 89/89/89 88/88/88
f 52/52/52 23/23/23 65/65/65
f 90/90/90 65/65/65 64/64/64
f 91/91/91 90/90/90 64/64/64
f 65/65/65 33/33/33 64/64/64
f 92/92/92 10/10/10 51/51/51
f 92/92/92 62/62/62 10/10/10
f 84/84/84 85/85/85 93/93/93
f 94/94/94 84/84/84 93/93/93
f 7/7/7 37/37/37 84/84/84
f 62/62/62 92/92/92 93/93/93
f 85/85/85 62/62/62 93/93/93
f 81/81/81 38/38/38 68/68/68
f 81/81/81 37/37/37 38/38/38
f 68/68/68 83/83/83 81/81/81
f 68/68/68 70/70/70 83/83/83
f 70/70/70 88/88/88 83/83/83
f 70/70/70 71/71/71 88/88/88
f 72/72/72 88/88/88 71/71/71
f 25/25/25 72/72/72 45/45/45
f 25/25/25 52/52/52 72/72/72
f 52/52/52 25/25/25 24/24/24
f 30/30/30 78/78/78 29/29/29
f 32/32/32 63/63/63 64/64/64
f 32/32/32 10/10/10 63/63/63
f 76/76/76 71/71/71 70/70/70
f 69/69/69 76/76/76 70/70/70
f 78/78/78 26/26/26 29/29/29
f 74/74/74 12/12/12 13/13/13
f 67/67/67 34/34/34 35/35/35
f 95/95/95 63/63/63 62/62/62
f 85/85/85 86/86/86 95/95/95
f 62/62/62 85/85/85 95/95/95
f 82/82/82 83/83/83 89/89/89
f 96/96/96 82/82/82 89/89/89
f 72/72/72 52/52/52 88/88/88
f 83/83/83 88/88/88 89/89/89
f 55/55/55 50/50/50 54/54/54
f 55/55/55 51/51/51 50/50/50
f 51/51/51 66/66/66 92/92/92
f 51/51/51 55/55/55 66/66/66
f 92/92/92 66/66/66 60/60/60
f 93/93/93 92/92/92 60/60/60
f 94/94/94 93/93/93 60/60/60
f 61/61/61 94/94/94 60/60/60
f 94/94/94 61/61/61 42/42/42
f 6/6/6 94/94/94 42/42/42
f 94/94/94 7/7/7 84/84/84
f 94/94/94 6/6/6 7/7/7
f 87/87/87 37/37/37 81/81/81
f 87/87/87 84/84/84 37/37/37
f 23/23/23 21/21/21 43/43/43
f 78/78/78 30/30/30 79/79/79
f 30/30/30 80/80/80 79/79/79
f 77/77/77 2/2/2 15/15/15
f 73/73/73 71/71/71 76/76/76
f 18/18/18 73/73/73 76/76/76
f 45/45/45 72/72/72 47/47/47
f 89/89/89 90/90/90 91/91/91
f 96/96/96 89/89/89 91/91/91
f 91/91/91 64/64/64 63/63/63
f 91/91/91 63/63/63 95/95/95
f 96/96/96 91/91/91 95/95/95
f 96/96/96 95/95/95 86/86/86
f 81/81/81 82/82/82 86/86/86
f 52/52/52 90/90/90 88/88/88
f 52/52/52 65/65/65 90/90/90
f 72/72/72 73/73/73 47/47/47
f 73/73/73 18/18/18 19/19/19
f 15/15/15 18/18/18 76/76/76
f 3/3/3 1/1/1 80/80/80
f 30/30/30 31/31/31 80/80/80
f 77/77/77 15/15/15 76/76/76
f 61/61/61 59/59/59 53/53/53
f 59/59/59 60/60/60 66/66/66
f 59/59/59 66/66/66 57/57/57
f 40/40/40 42/42/42 61/61/61
f 53/53/53 40/40/40 61/61/61
f 41/41/41 42/42/42 40/40/40
f 58/58/58 56/56/56 54/54/54
f 81/81/81 86/86/86 87/87/87
f 96/96/96 86/86/86 82/82/82
g cPK_10_000470_00_FIREex_RR_L_SB_1
f 99/99/99 98/98/98 97/97/97
f 102/102/102 101/101/101 100/100/100
f 100/100/100 97/97/97 102/102/102
f 105/105/105 104/104/104 103/103/103
f 108/108/108 107/107/107 106/106/106
f 109/109/109 108/108/108 106/106/106
f 111/111/111 110/110/110 109/109/109
f 106/106/106 111/111/111 109/109/109
f 111/111/111 113/113/113 112/112/112
f 110/110/110 111/111/111 112/112/112
f 115/115/115 114/114/114 107/107/107
f 108/108/108 115/115/115 107/107/107
f 117/117/117 116/116/116 114/114/114
f 102/102/102 117/117/117 114/114/114
f 120/120/120 119/119/119 118/118/118
f 121/121/121 120/120/120 118/118/118
f 124/124/124 123/123/123 122/122/122
f 124/124/124 125/125/125 123/123/123
f 127/127/127 126/126/126 97/97/97
f 98/98/98 127/127/127 97/97/97
f 117/117/117 102/102/102 97/97/97
f 126/126/126 117/117/117 97/97/97
f 128/128/128 121/121/121 118/118/118
f 131/131/131 130/130/130 129/129/129
f 133/133/133 132/132/132 129/129/129
f 134/134/134 131/131/131 129/129/129
f 124/124/124 136/136/136 135/135/135
f 124/124/124 122/122/122 137/137/137
f 136/136/136 137/137/137 138/138/138
f 136/136/136 124/124/124 137/137/137
f 141/141/141 140/140/140 139/139/139
f 141/141/141 142/142/142 140/140/140
f 142/142/142 143/143/143 140/140/140
f 142/142/142 133/133/133 143/143/143
f 125/125/125 144/144/144 123/123/123
f 112/112/112 113/113/113 144/144/144
f 125/125/125 112/112/112 144/144/144
f 140/140/140 135/135/135 139/139/139
f 147/147/147 146/146/146 145/145/145
f 148/148/148 147/147/147 145/145/145
f 151/151/151 150/150/150 149/149/149
f 152/152/152 151/151/151 149/149/149
f 154/154/154 153/153/153 145/145/145
f 148/148/148 145/145/145 153/153/153
f 150/150/150 156/156/156 155/155/155
f 145/145/145 146/146/146 157/157/157
f 154/154/154 145/145/145 158/158/158
f 161/161/161 160/160/160 159/159/159
f 157/157/157 136/136/136 138/138/138
f 110/110/110 112/112/112 162/162/162
f 143/143/143 108/108/108 163/163/163
f 150/150/150 165/165/165 164/164/164
f 150/150/150 155/155/155 165/165/165
f 150/150/150 164/164/164 166/166/166
f 149/149/149 150/150/150 166/166/166
f 100/100/100 129/129/129 130/130/130
f 167/167/167 100/100/100 130/130/130
f 169/169/169 103/103/103 168/168/168
f 171/171/171 168/168/168 170/170/170
f 162/162/162 125/125/125 124/124/124
f 164/164/164 173/173/173 172/172/172
f 164/164/164 165/165/165 173/173/173
f 164/164/164 172/172/172 174/174/174
f 166/166/166 164/164/164 174/174/174
f 153/153/153 176/176/176 175/175/175
f 153/153/153 154/154/154 176/176/176
f 178/178/178 177/177/177 175/175/175
f 179/179/179 178/178/178 175/175/175
f 177/177/177 180/180/180 156/156/156
f 177/177/177 178/178/178 180/180/180
f 181/181/181 156/156/156 180/180/180
f 182/182/182 156/156/156 181/181/181
f 155/155/155 182/182/182 183/183/183
f 156/156/156 182/182/182 155/155/155
f 183/183/183 165/165/165 155/155/155
f 184/184/184 165/165/165 183/183/183
f 184/184/184 173/173/173 165/165/165
f 179/179/179 175/175/175 176/176/176
f 147/147/147 148/148/148 185/185/185
f 186/186/186 147/147/147 185/185/185
f 185/185/185 153/153/153 175/175/175
f 148/148/148 153/153/153 185/185/185
f 187/187/187 161/161/161 134/134/134
f 142/142/142 132/132/132 133/133/133
f 161/161/161 187/187/187 188/188/188
f 188/188/188 187/187/187 189/189/189
f 160/160/160 161/161/161 190/190/190
f 112/112/112 125/125/125 162/162/162
f 143/143/143 163/163/163 140/140/140
f 135/135/135 163/163/163 162/162/162
f 135/135/135 140/140/140 163/163/163
f 108/108/108 109/109/109 163/163/163
f 163/163/163 109/109/109 110/110/110
f 163/163/163 110/110/110 162/162/162
f 170/170/170 168/168/168 191/191/191
f 192/192/192 170/170/170 191/191/191
f 193/193/193 191/191/191 168/168/168
f 103/103/103 193/193/193 168/168/168
f 103/103/103 104/104/104 194/194/194
f 193/193/193 103/103/103 194/194/194
f 192/192/192 191/191/191 130/130/130
f 195/195/195 192/192/192 130/130/130
f 167/167/167 130/130/130 191/191/191
f 193/193/193 167/167/167 191/191/191
f 169/169/169 105/105/105 103/103/103
f 171/171/171 169/169/169 168/168/168
f 115/115/115 102/102/102 114/114/114
f 197/197/197 196/196/196 118/118/118
f 198/198/198 197/197/197 118/118/118
f 196/196/196 128/128/128 118/118/118
f 126/126/126 127/127/127 199/199/199
f 119/119/119 120/120/120 116/116/116
f 117/117/117 119/119/119 116/116/116
f 99/99/99 201/201/201 200/200/200
f 202/202/202 99/99/99 200/200/200
f 126/126/126 119/119/119 117/117/117
f 119/119/119 199/199/199 118/118/118
f 199/199/199 198/198/198 118/118/118
f 127/127/127 98/98/98 99/99/99
f 202/202/202 127/127/127 99/99/99
f 199/199/199 127/127/127 198/198/198
f 202/202/202 200/200/200 197/197/197
f 198/198/198 202/202/202 197/197/197
f 205/205/205 204/204/204 203/203/203
f 161/161/161 188/188/188 190/190/190
f 145/145/145 157/157/157 158/158/158
f 207/207/207 206/206/206 132/132/132
f 208/208/208 207/207/207 132/132/132
f 151/151/151 177/177/177 156/156/156
f 136/136/136 139/139/139 135/135/135
f 162/162/162 124/124/124 135/135/135
f 208/208/208 132/132/132 142/142/142
f 185/185/185 151/151/151 152/152/152
f 186/186/186 185/185/185 152/152/152
f 151/151/151 185/185/185 175/175/175
f 208/208/208 142/142/142 141/141/141
f 151/151/151 175/175/175 177/177/177
f 174/174/174 189/189/189 187/187/187
f 166/166/166 174/174/174 187/187/187
f 166/166/166 187/187/187 207/207/207
f 149/149/149 166/166/166 207/207/207
f 149/149/149 207/207/207 208/208/208
f 152/152/152 149/149/149 208/208/208
f 152/152/152 208/208/208 141/141/141
f 186/186/186 152/152/152 141/141/141
f 186/186/186 141/141/141 139/139/139
f 139/139/139 136/136/136 146/146/146
f 147/147/147 139/139/139 146/146/146
f 146/146/146 136/136/136 157/157/157
f 150/150/150 151/151/151 156/156/156
f 134/134/134 161/161/161 159/159/159
f 132/132/132 206/206/206 129/129/129
f 193/193/193 194/194/194 209/209/209
f 167/167/167 193/193/193 209/209/209
f 99/99/99 167/167/167 209/209/209
f 101/101/101 143/143/143 133/133/133
f 100/100/100 133/133/133 129/129/129
f 134/134/134 129/129/129 206/206/206
f 187/187/187 134/134/134 207/207/207
f 134/134/134 206/206/206 207/207/207
f 134/134/134 159/159/159 131/131/131
f 131/131/131 159/159/159 195/195/195
f 131/131/131 195/195/195 130/130/130
f 99/99/99 97/97/97 167/167/167
f 143/143/143 101/101/101 115/115/115
f 143/143/143 115/115/115 108/108/108
f 186/186/186 139/139/139 147/147/147
f 119/119/119 126/126/126 199/199/199
f 127/127/127 202/202/202 198/198/198
f 97/97/97 100/100/100 167/167/167
f 100/100/100 101/101/101 133/133/133
f 102/102/102 115/115/115 101/101/101
f 212/212/212 211/211/211 210/210/210
f 215/215/215 214/214/214 213/213/213
f 218/218/218 217/217/217 216/216/216
f 221/221/221 220/220/220 219/219/219
f 222/222/222 221/221/221 219/219/219
f 225/225/225 224/224/224 223/223/223
f 226/226/226 225/225/225 223/223/223
f 224/224/224 228/228/228 227/227/227
f 223/223/223 224/224/224 227/227/227
f 228/228/228 230/230/230 229/229/229
f 227/227/227 228/228/228 229/229/229
f 233/233/233 232/232/232 231/231/231
f 234/234/234 233/233/233 231/231/231
f 237/237/237 236/236/236 235/235/235
f 238/238/238 237/237/237 235/235/235
f 232/232/232 239/239/239 231/231/231
f 241/241/241 240/240/240 239/239/239
f 241/241/241 242/242/242 240/240/240
f 245/245/245 244/244/244 243/243/243
f 245/245/245 246/246/246 244/244/244
f 249/249/249 248/248/248 247/247/247
f 250/250/250 249/249/249 247/247/247
f 247/247/247 252/252/252 251/251/251
f 250/250/250 247/247/247 251/251/251
f 252/252/252 254/254/254 253/253/253
f 251/251/251 252/252/252 253/253/253
f 253/253/253 254/254/254 255/255/255
f 256/256/256 253/253/253 255/255/255
f 259/259/259 258/258/258 257/257/257
f 260/260/260 259/259/259 257/257/257
f 258/258/258 262/262/262 261/261/261
f 261/261/261 263/263/263 257/257/257
f 260/260/260 264/264/264 259/259/259
f 260/260/260 265/265/265 264/264/264
f 260/260/260 241/241/241 265/265/265
f 242/242/242 241/241/241 260/260/260
f 266/266/266 256/256/256 255/255/255
f 267/267/267 266/266/266 255/255/255
f 270/270/270 269/269/269 268/268/268
f 272/272/272 271/271/271 269/269/269
f 273/273/273 269/269/269 271/271/271
f 249/249/249 233/233/233 234/234/234
f 248/248/248 249/249/249 234/234/234
f 275/275/275 274/274/274 237/237/237
f 238/238/238 275/275/275 237/237/237
f 274/274/274 219/219/219 220/220/220
f 278/278/278 277/277/277 276/276/276
f 281/281/281 280/280/280 279/279/279
f 284/284/284 283/283/283 282/282/282
f 285/285/285 284/284/284 282/282/282
f 282/282/282 283/283/283 277/277/277
f 278/278/278 282/282/282 277/277/277
f 225/225/225 226/226/226 221/221/221
f 222/222/222 225/225/225 221/221/221
f 286/286/286 229/229/229 230/230/230
f 287/287/287 286/286/286 230/230/230
f 267/267/267 286/286/286 287/287/287
f 266/266/266 267/267/267 287/287/287
f 279/279/279 244/244/244 246/246/246
f 290/290/290 289/289/289 288/288/288
f 291/291/291 290/290/290 288/288/288
f 292/292/292 289/289/289 290/290/290
f 293/293/293 292/292/292 290/290/290
f 290/290/290 294/294/294 210/210/210
f 297/297/297 296/296/296 295/295/295
f 297/297/297 298/298/298 296/296/296
f 300/300/300 297/297/297 299/299/299
f 300/300/300 298/298/298 297/297/297
f 284/284/284 245/245/245 301/301/301
f 245/245/245 243/243/243 301/301/301
f 303/303/303 302/302/302 215/215/215
f 304/304/304 303/303/303 215/215/215
f 210/210/210 305/305/305 215/215/215
f 302/302/302 210/210/210 215/215/215
f 297/297/297 306/306/306 270/270/270
f 268/268/268 297/297/297 270/270/270
f 307/307/307 297/297/297 268/268/268
f 299/299/299 297/297/297 307/307/307
f 297/297/297 295/295/295 304/304/304
f 306/306/306 297/297/297 304/304/304
f 270/270/270 306/306/306 308/308/308
f 295/295/295 309/309/309 276/276/276
f 310/310/310 295/295/295 276/276/276
f 295/295/295 296/296/296 309/309/309
f 313/313/313 312/312/312 311/311/311
f 303/303/303 304/304/304 295/295/295
f 310/310/310 303/303/303 295/295/295
f 292/292/292 293/293/293 314/314/314
f 315/315/315 292/292/292 314/314/314
f 293/293/293 302/302/302 303/303/303
f 314/314/314 293/293/293 303/303/303
f 318/318/318 317/317/317 316/316/316
f 318/318/318 319/319/319 317/317/317
f 320/320/320 319/319/319 318/318/318
f 322/322/322 320/320/320 321/321/321
f 323/323/323 217/217/217 320/320/320
f 218/218/218 258/258/258 259/259/259
f 271/271/271 218/218/218 259/259/259
f 258/258/258 324/324/324 262/262/262
f 326/326/326 218/218/218 325/325/325
f 271/271/271 217/217/217 218/218/218
f 270/270/270 308/308/308 327/327/327
f 329/329/329 325/325/325 328/328/328
f 328/328/328 216/216/216 330/330/330
f 328/328/328 218/218/218 216/216/216
f 218/218/218 328/328/328 325/325/325
f 213/213/213 306/306/306 304/304/304
f 215/215/215 213/213/213 304/304/304
f 259/259/259 332/332/332 331/331/331
f 311/311/311 314/314/314 313/313/313
f 311/311/311 315/315/315 314/314/314
f 258/258/258 218/218/218 326/326/326
f 331/331/331 273/273/273 271/271/271
f 259/259/259 331/331/331 271/271/271
f 236/236/236 280/280/280 281/281/281
f 235/235/235 236/236/236 281/281/281
f 246/246/246 245/245/245 284/284/284
f 285/285/285 246/246/246 284/284/284
f 290/290/290 210/210/210 302/302/302
f 293/293/293 290/290/290 302/302/302
f 270/270/270 327/327/327 320/320/320
f 320/320/320 327/327/327 319/319/319
f 217/217/217 271/271/271 272/272/272
f 322/322/322 323/323/323 320/320/320
f 264/264/264 332/332/332 259/259/259
f 313/313/313 310/310/310 277/277/277
f 313/313/313 314/314/314 303/303/303
f 310/310/310 313/313/313 303/303/303
f 310/310/310 276/276/276 277/277/277
f 284/284/284 333/333/333 313/313/313
f 284/284/284 301/301/301 333/333/333
f 333/333/333 312/312/312 313/313/313
f 313/313/313 277/277/277 283/283/283
f 211/211/211 305/305/305 210/210/210
f 284/284/284 313/313/313 283/283/283
f 258/258/258 326/326/326 324/324/324
f 222/222/222 219/219/219 276/276/276
f 309/309/309 222/222/222 276/276/276
f 309/309/309 296/296/296 225/225/225
f 222/222/222 309/309/309 225/225/225
f 296/296/296 298/298/298 224/224/224
f 225/225/225 296/296/296 224/224/224
f 298/298/298 300/300/300 228/228/228
f 224/224/224 298/298/298 228/228/228
f 300/300/300 299/299/299 230/230/230
f 228/228/228 300/300/300 230/230/230
f 287/287/287 230/230/230 299/299/299
f 307/307/307 287/287/287 299/299/299
f 266/266/266 287/287/287 307/307/307
f 268/268/268 266/266/266 307/307/307
f 268/268/268 269/269/269 256/256/256
f 266/266/266 268/268/268 256/256/256
f 269/269/269 273/273/273 253/253/253
f 256/256/256 269/269/269 253/253/253
f 251/251/251 253/253/253 273/273/273
f 331/331/331 251/251/251 273/273/273
f 250/250/250 251/251/251 331/331/331
f 332/332/332 250/250/250 331/331/331
f 332/332/332 264/264/264 249/249/249
f 250/250/250 332/332/332 249/249/249
f 264/264/264 265/265/265 233/233/233
f 249/249/249 264/264/264 233/233/233
f 265/265/265 241/241/241 232/232/232
f 233/233/233 265/265/265 232/232/232
f 232/232/232 241/241/241 239/239/239
f 281/281/281 279/279/279 246/246/246
f 235/235/235 281/281/281 246/246/246
f 285/285/285 235/235/235 246/246/246
f 235/235/235 285/285/285 282/282/282
f 238/238/238 235/235/235 282/282/282
f 282/282/282 278/278/278 275/275/275
f 238/238/238 282/282/282 275/275/275
f 219/219/219 275/275/275 278/278/278
f 272/272/272 269/269/269 270/270/270
f 272/272/272 270/270/270 320/320/320
f 217/217/217 272/272/272 320/320/320
f 335/335/335 263/263/263 334/334/334
f 258/258/258 261/261/261 257/257/257
f 274/274/274 275/275/275 219/219/219
f 278/278/278 276/276/276 219/219/219
f 263/263/263 261/261/261 334/334/334
f 338/338/338 337/337/337 336/336/336
f 339/339/339 338/338/338 336/336/336
f 342/342/342 341/341/341 340/340/340
f 343/343/343 342/342/342 340/340/340
f 346/346/346 345/345/345 344/344/344
f 349/349/349 348/348/348 347/347/347
f 351/351/351 348/348/348 350/350/350
f 352/352/352 351/351/351 350/350/350
f 351/351/351 347/347/347 348/348/348
f 339/339/339 336/336/336 353/353/353
f 354/354/354 339/339/339 353/353/353
f 354/354/354 353/353/353 355/355/355
f 356/356/356 354/354/354 355/355/355
f 356/356/356 355/355/355 357/357/357
f 358/358/358 356/356/356 357/357/357
f 361/361/361 360/360/360 359/359/359
f 357/357/357 363/363/363 362/362/362
f 358/358/358 357/357/357 362/362/362
f 366/366/366 365/365/365 364/364/364
f 367/367/367 366/366/366 364/364/364
f 364/364/364 368/368/368 345/345/345
f 352/352/352 370/370/370 369/369/369
f 371/371/371 352/352/352 369/369/369
f 374/374/374 373/373/373 372/372/372
f 376/376/376 375/375/375 374/374/374
f 376/376/376 378/378/378 377/377/377
f 375/375/375 376/376/376 377/377/377
f 381/381/381 380/380/380 379/379/379
f 382/382/382 381/381/381 379/379/379
f 349/349/349 383/383/383 348/348/348
f 386/386/386 385/385/385 384/384/384
f 348/348/348 386/386/386 384/384/384
f 383/383/383 386/386/386 348/348/348
f 389/389/389 388/388/388 387/387/387
f 348/348/348 384/384/384 350/350/350
f 392/392/392 391/391/391 390/390/390
f 394/394/394 365/365/365 393/393/393
f 395/395/395 394/394/394 393/393/393
f 396/396/396 393/393/393 365/365/365
f 366/366/366 396/396/396 365/365/365
f 397/397/397 391/391/391 395/395/395
f 393/393/393 397/397/397 395/395/395
f 398/398/398 384/384/384 385/385/385
f 399/399/399 398/398/398 385/385/385
f 368/368/368 364/364/364 400/400/400
f 401/401/401 368/368/368 400/400/400
f 400/400/400 364/364/364 365/365/365
f 394/394/394 400/400/400 365/365/365
f 370/370/370 362/362/362 363/363/363
f 369/369/369 370/370/370 363/363/363
f 378/378/378 398/398/398 399/399/399
f 377/377/377 378/378/378 399/399/399
f 404/404/404 403/403/403 402/402/402
f 405/405/405 404/404/404 402/402/402
f 406/406/406 404/404/404 405/405/405
f 409/409/409 408/408/408 407/407/407
f 411/411/411 410/410/410 376/376/376
f 382/382/382 411/411/411 376/376/376
f 400/400/400 394/394/394 350/350/350
f 412/412/412 350/350/350 394/394/394
f 400/400/400 384/384/384 398/398/398
f 414/414/414 413/413/413 395/395/395
f 394/394/394 415/415/415 412/412/412
f 413/413/413 394/394/394 395/395/395
f 413/413/413 415/415/415 394/394/394
f 411/411/411 417/417/417 416/416/416
f 410/410/410 411/411/411 416/416/416
f 419/419/419 418/418/418 344/344/344
f 416/416/416 419/419/419 344/344/344
f 420/420/420 374/374/374 372/372/372
f 420/420/420 380/380/380 381/381/381
f 374/374/374 420/420/420 381/381/381
f 374/374/374 381/381/381 376/376/376
f 423/423/423 422/422/422 421/421/421
f 422/422/422 423/423/423 361/361/361
f 409/409/409 422/422/422 361/361/361
f 408/408/408 361/361/361 424/424/424
f 361/361/361 359/359/359 424/424/424
f 409/409/409 361/361/361 408/408/408
f 344/344/344 345/345/345 368/368/368
f 416/416/416 344/344/344 368/368/368
f 367/367/367 364/364/364 345/345/345
f 425/425/425 417/417/417 411/411/411
f 426/426/426 425/425/425 411/411/411
f 429/429/429 428/428/428 427/427/427
f 368/368/368 401/401/401 410/410/410
f 416/416/416 368/368/368 410/410/410
f 411/411/411 430/430/430 426/426/426
f 426/426/426 430/430/430 431/431/431
f 405/405/405 426/426/426 431/431/431
f 405/405/405 431/431/431 427/427/427
f 429/429/429 427/427/427 431/431/431
f 401/401/401 378/378/378 376/376/376
f 410/410/410 401/401/401 376/376/376
f 401/401/401 400/400/400 398/398/398
f 378/378/378 401/401/401 398/398/398
f 400/400/400 350/350/350 384/384/384
f 388/388/388 389/389/389 432/432/432
f 433/433/433 388/388/388 432/432/432
f 391/391/391 397/397/397 434/434/434
f 397/397/397 396/396/396 387/387/387
f 397/397/397 393/393/393 396/396/396
f 343/343/343 340/340/340 435/435/435
f 436/436/436 337/337/337 338/338/338
f 437/437/437 436/436/436 338/338/338
f 432/432/432 341/341/341 342/342/342
f 433/433/433 432/432/432 342/342/342
f 391/391/391 438/438/438 414/414/414
f 438/438/438 391/391/391 439/439/439
f 418/418/418 419/419/419 408/408/408
f 424/424/424 418/418/418 408/408/408
f 390/390/390 391/391/391 434/434/434
f 392/392/392 440/440/440 391/391/391
f 440/440/440 439/439/439 391/391/391
f 391/391/391 414/414/414 395/395/395
f 441/441/441 427/427/427 428/428/428
f 404/404/404 442/442/442 403/403/403
f 441/441/441 428/428/428 443/443/443
f 406/406/406 441/441/441 443/443/443
f 406/406/406 443/443/443 444/444/444
f 404/404/404 406/406/406 444/444/444
f 442/442/442 404/404/404 444/444/444
f 426/426/426 405/405/405 402/402/402
f 445/445/445 426/426/426 402/402/402
f 441/441/441 405/405/405 427/427/427
f 441/441/441 406/406/406 405/405/405
f 382/382/382 379/379/379 430/430/430
f 411/411/411 382/382/382 430/430/430
f 381/381/381 382/382/382 376/376/376
f 350/350/350 412/412/412 370/370/370
f 352/352/352 350/350/350 370/370/370
f 412/412/412 415/415/415 362/362/362
f 370/370/370 412/412/412 362/362/362
f 358/358/358 362/362/362 415/415/415
f 413/413/413 358/358/358 415/415/415
f 413/413/413 414/414/414 356/356/356
f 358/358/358 413/413/413 356/356/356
f 414/414/414 438/438/438 354/354/354
f 356/356/356 414/414/414 354/354/354
f 438/438/438 439/439/439 339/339/339
f 354/354/354 438/438/438 339/339/339
f 439/439/439 440/440/440 338/338/338
f 339/339/339 439/439/439 338/338/338
f 338/338/338 440/440/440 392/392/392
f 437/437/437 338/338/338 392/392/392
f 385/385/385 447/447/447 446/446/446
f 399/399/399 385/385/385 446/446/446
f 399/399/399 446/446/446 448/448/448
f 375/375/375 377/377/377 449/449/449
f 450/450/450 375/375/375 449/449/449
f 375/375/375 450/450/450 373/373/373
f 343/343/343 437/437/437 392/392/392
f 343/343/343 392/392/392 342/342/342
f 433/433/433 342/342/342 392/392/392
f 390/390/390 433/433/433 392/392/392
f 390/390/390 434/434/434 388/388/388
f 433/433/433 390/390/390 388/388/388
f 388/388/388 434/434/434 397/397/397
f 388/388/388 397/397/397 387/387/387
f 435/435/435 436/436/436 437/437/437
f 343/343/343 435/435/435 437/437/437
f 375/375/375 373/373/373 374/374/374
f 449/449/449 377/377/377 448/448/448
f 377/377/377 399/399/399 448/448/448
f 352/352/352 371/371/371 351/351/351
f 351/351/351 371/371/371 451/451/451
f 347/347/347 453/453/453 452/452/452
f 349/349/349 347/347/347 452/452/452
f 349/349/349 455/455/455 454/454/454
f 383/383/383 457/457/457 456/456/456
f 386/386/386 447/447/447 385/385/385
f 451/451/451 453/453/453 347/347/347
f 351/351/351 451/451/451 347/347/347
f 458/458/458 349/349/349 452/452/452
f 458/458/458 455/455/455 349/349/349
f 454/454/454 457/457/457 383/383/383
f 349/349/349 454/454/454 383/383/383
f 456/456/456 459/459/459 386/386/386
f 383/383/383 456/456/456 386/386/386
f 459/459/459 447/447/447 386/386/386
f 426/426/426 445/445/445 425/425/425
g cPK_10_000470_00_FIREex_RR_L_SB_2
f 461/461/461 460/460/460 195/195/195
f 159/159/159 461/461/461 195/195/195
f 461/461/461 159/159/159 160/160/160
f 106/106/106 107/107/107 462/462/462
f 111/111/111 106/106/106 462/462/462
f 176/176/176 154/154/154 463/463/463
f 179/179/179 176/176/176 463/463/463
f 465/465/465 464/464/464 144/144/144
f 122/122/122 123/123/123 466/466/466
f 137/137/137 122/122/122 466/466/466
f 157/157/157 138/138/138 467/467/467
f 468/468/468 181/181/181 180/180/180
f 178/178/178 179/179/179 469/469/469
f 158/158/158 157/157/157 467/467/467
f 470/470/470 183/183/183 182/182/182
f 470/470/470 184/184/184 183/183/183
f 471/471/471 172/172/172 173/173/173
f 471/471/471 472/472/472 174/174/174
f 172/172/172 471/471/471 174/174/174
f 473/473/473 188/188/188 189/189/189
f 461/461/461 160/160/160 190/190/190
f 192/192/192 475/475/475 474/474/474
f 173/173/173 476/476/476 471/471/471
f 470/470/470 476/476/476 184/184/184
f 173/173/173 184/184/184 476/476/476
f 182/182/182 477/477/477 470/470/470
f 468/468/468 477/477/477 181/181/181
f 182/182/182 181/181/181 477/477/477
f 463/463/463 469/469/469 179/179/179
f 463/463/463 154/154/154 478/478/478
f 467/467/467 478/478/478 158/158/158
f 154/154/154 158/158/158 478/478/478
f 138/138/138 479/479/479 467/467/467
f 466/466/466 479/479/479 137/137/137
f 138/138/138 137/137/137 479/479/479
f 123/123/123 464/464/464 466/466/466
f 464/464/464 123/123/123 144/144/144
f 113/113/113 111/111/111 480/480/480
f 111/111/111 462/462/462 480/480/480
f 481/481/481 107/107/107 114/114/114
f 473/473/473 482/482/482 188/188/188
f 190/190/190 188/188/188 482/482/482
f 190/190/190 482/482/482 461/461/461
f 462/462/462 107/107/107 481/481/481
f 196/196/196 484/484/484 483/483/483
f 483/483/483 485/485/485 121/121/121
f 483/483/483 121/121/121 128/128/128
f 194/194/194 104/104/104 486/486/486
f 487/487/487 194/194/194 486/486/486
f 104/104/104 105/105/105 486/486/486
f 488/488/488 486/486/486 105/105/105
f 489/489/489 169/169/169 171/171/171
f 481/481/481 114/114/114 116/116/116
f 490/490/490 481/481/481 116/116/116
f 460/460/460 475/475/475 192/192/192
f 195/195/195 460/460/460 192/192/192
f 209/209/209 491/491/491 201/201/201
f 491/491/491 492/492/492 197/197/197
f 200/200/200 491/491/491 197/197/197
f 121/121/121 485/485/485 493/493/493
f 120/120/120 121/121/121 493/493/493
f 170/170/170 192/192/192 474/474/474
f 196/196/196 492/492/492 484/484/484
f 197/197/197 492/492/492 196/196/196
f 472/472/472 473/473/473 189/189/189
f 174/174/174 472/472/472 189/189/189
f 144/144/144 113/113/113 480/480/480
f 490/490/490 116/116/116 120/120/120
f 493/493/493 490/490/490 120/120/120
f 474/474/474 171/171/171 170/170/170
f 474/474/474 489/489/489 171/171/171
f 488/488/488 105/105/105 169/169/169
f 489/489/489 488/488/488 169/169/169
f 483/483/483 128/128/128 196/196/196
f 200/200/200 201/201/201 491/491/491
f 468/468/468 180/180/180 178/178/178
f 468/468/468 178/178/178 469/469/469
f 194/194/194 487/487/487 491/491/491
f 209/209/209 194/194/194 491/491/491
f 465/465/465 144/144/144 480/480/480
f 494/494/494 325/325/325 329/329/329
f 494/494/494 495/495/495 325/325/325
f 495/495/495 326/326/326 325/325/325
f 257/257/257 263/263/263 496/496/496
f 330/330/330 329/329/329 328/328/328
f 330/330/330 498/498/498 497/497/497
f 330/330/330 216/216/216 498/498/498
f 499/499/499 234/234/234 231/231/231
f 324/324/324 326/326/326 495/495/495
f 239/239/239 240/240/240 500/500/500
f 240/240/240 242/242/242 500/500/500
f 499/499/499 248/248/248 234/234/234
f 242/242/242 501/501/501 500/500/500
f 502/502/502 335/335/335 334/334/334
f 334/334/334 503/503/503 502/502/502
f 260/260/260 496/496/496 504/504/504
f 260/260/260 257/257/257 496/496/496
f 505/505/505 311/311/311 312/312/312
f 506/506/506 505/505/505 312/312/312
f 301/301/301 507/507/507 333/333/333
f 508/508/508 301/301/301 243/243/243
f 509/509/509 237/237/237 274/274/274
f 508/508/508 243/243/243 244/244/244
f 510/510/510 280/280/280 236/236/236
f 510/510/510 279/279/279 280/280/280
f 511/511/511 319/319/319 214/214/214
f 319/319/319 327/327/327 213/213/213
f 214/214/214 319/319/319 213/213/213
f 288/288/288 289/289/289 512/512/512
f 512/512/512 513/513/513 288/288/288
f 213/213/213 308/308/308 306/306/306
f 212/212/212 514/514/514 211/211/211
f 514/514/514 212/212/212 515/515/515
f 511/511/511 211/211/211 514/514/514
f 511/511/511 305/305/305 211/211/211
f 517/517/517 516/516/516 221/221/221
f 226/226/226 517/517/517 221/221/221
f 517/517/517 226/226/226 223/223/223
f 511/511/511 317/317/317 319/319/319
f 511/511/511 518/518/518 317/317/317
f 316/316/316 519/519/519 321/321/321
f 316/316/316 520/520/520 519/519/519
f 521/521/521 229/229/229 286/286/286
f 521/521/521 522/522/522 227/227/227
f 229/229/229 521/521/521 227/227/227
f 519/519/519 523/523/523 322/322/322
f 255/255/255 254/254/254 524/524/524
f 525/525/525 255/255/255 524/524/524
f 215/215/215 305/305/305 214/214/214
f 320/320/320 318/318/318 321/321/321
f 288/288/288 526/526/526 291/291/291
f 288/288/288 513/513/513 526/526/526
f 291/291/291 515/515/515 294/294/294
f 291/291/291 526/526/526 515/515/515
f 515/515/515 210/210/210 294/294/294
f 221/221/221 516/516/516 509/509/509
f 220/220/220 221/221/221 509/509/509
f 220/220/220 509/509/509 274/274/274
f 523/523/523 323/323/323 322/322/322
f 214/214/214 305/305/305 511/511/511
f 316/316/316 518/518/518 520/520/520
f 316/316/316 317/317/317 518/518/518
f 334/334/334 261/261/261 527/527/527
f 503/503/503 334/334/334 527/527/527
f 217/217/217 523/523/523 498/498/498
f 216/216/216 217/217/217 498/498/498
f 290/290/290 291/291/291 294/294/294
f 512/512/512 289/289/289 292/292/292
f 528/528/528 512/512/512 292/292/292
f 528/528/528 292/292/292 315/315/315
f 529/529/529 528/528/528 315/315/315
f 529/529/529 315/315/315 311/311/311
f 505/505/505 529/529/529 311/311/311
f 507/507/507 506/506/506 312/312/312
f 333/333/333 507/507/507 312/312/312
f 510/510/510 530/530/530 279/279/279
f 244/244/244 279/279/279 530/530/530
f 244/244/244 530/530/530 508/508/508
f 236/236/236 531/531/531 510/510/510
f 509/509/509 531/531/531 237/237/237
f 236/236/236 237/237/237 531/531/531
f 517/517/517 223/223/223 522/522/522
f 223/223/223 227/227/227 522/522/522
f 521/521/521 286/286/286 532/532/532
f 532/532/532 267/267/267 255/255/255
f 525/525/525 532/532/532 255/255/255
f 267/267/267 532/532/532 286/286/286
f 254/254/254 252/252/252 533/533/533
f 524/524/524 254/254/254 533/533/533
f 533/533/533 252/252/252 247/247/247
f 534/534/534 533/533/533 247/247/247
f 499/499/499 535/535/535 248/248/248
f 231/231/231 536/536/536 499/499/499
f 500/500/500 536/536/536 239/239/239
f 536/536/536 231/231/231 239/239/239
f 217/217/217 323/323/323 523/523/523
f 248/248/248 535/535/535 534/534/534
f 247/247/247 248/248/248 534/534/534
f 329/329/329 497/497/497 494/494/494
f 260/260/260 501/501/501 242/242/242
f 260/260/260 504/504/504 501/501/501
f 324/324/324 527/527/527 262/262/262
f 324/324/324 495/495/495 527/527/527
f 261/261/261 262/262/262 527/527/527
f 316/316/316 321/321/321 318/318/318
f 519/519/519 322/322/322 321/321/321
f 213/213/213 327/327/327 308/308/308
f 330/330/330 497/497/497 329/329/329
f 515/515/515 212/212/212 210/210/210
f 301/301/301 508/508/508 507/507/507
f 538/538/538 537/537/537 407/407/407
f 408/408/408 538/538/538 407/407/407
f 539/539/539 435/435/435 340/340/340
f 340/340/340 341/341/341 539/539/539
f 432/432/432 389/389/389 540/540/540
f 389/389/389 541/541/541 540/540/540
f 389/389/389 387/387/387 541/541/541
f 409/409/409 537/537/537 422/422/422
f 409/409/409 407/407/407 537/537/537
f 421/421/421 422/422/422 537/537/537
f 542/542/542 421/421/421 537/537/537
f 544/544/544 360/360/360 543/543/543
f 424/424/424 359/359/359 545/545/545
f 396/396/396 366/366/366 546/546/546
f 547/547/547 396/396/396 546/546/546
f 549/549/549 548/548/548 429/429/429
f 431/431/431 549/549/549 429/429/429
f 444/444/444 443/443/443 550/550/550
f 550/550/550 538/538/538 442/442/442
f 403/403/403 442/442/442 538/538/538
f 551/551/551 456/456/456 457/457/457
f 538/538/538 402/402/402 403/403/403
f 408/408/408 445/445/445 402/402/402
f 419/419/419 416/416/416 417/417/417
f 431/431/431 379/379/379 549/549/549
f 430/430/430 379/379/379 431/431/431
f 551/551/551 457/457/457 454/454/454
f 553/553/553 552/552/552 458/458/458
f 346/346/346 418/418/418 424/424/424
f 545/545/545 346/346/346 424/424/424
f 346/346/346 344/344/344 418/418/418
f 447/447/447 554/554/554 446/446/446
f 423/423/423 543/543/543 361/361/361
f 555/555/555 353/353/353 336/336/336
f 555/555/555 337/337/337 556/556/556
f 555/555/555 336/336/336 337/337/337
f 556/556/556 337/337/337 436/436/436
f 557/557/557 556/556/556 436/436/436
f 539/539/539 558/558/558 435/435/435
f 435/435/435 557/557/557 436/436/436
f 435/435/435 558/558/558 557/557/557
f 341/341/341 559/559/559 539/539/539
f 559/559/559 341/341/341 432/432/432
f 432/432/432 540/540/540 559/559/559
f 387/387/387 396/396/396 547/547/547
f 541/541/541 387/387/387 547/547/547
f 423/423/423 421/421/421 560/560/560
f 543/543/543 423/423/423 560/560/560
f 561/561/561 373/373/373 450/450/450
f 372/372/372 561/561/561 562/562/562
f 372/372/372 373/373/373 561/561/561
f 420/420/420 563/563/563 380/380/380
f 563/563/563 372/372/372 562/562/562
f 372/372/372 563/563/563 420/420/420
f 549/549/549 380/380/380 563/563/563
f 549/549/549 379/379/379 380/380/380
f 448/448/448 554/554/554 564/564/564
f 564/564/564 449/449/449 448/448/448
f 551/551/551 554/554/554 456/456/456
f 565/565/565 455/455/455 552/552/552
f 454/454/454 565/565/565 551/551/551
f 552/552/552 455/455/455 458/458/458
f 453/453/453 451/451/451 566/566/566
f 553/553/553 453/453/453 566/566/566
f 553/553/553 452/452/452 453/453/453
f 371/371/371 567/567/567 566/566/566
f 451/451/451 371/371/371 566/566/566
f 543/543/543 360/360/360 361/361/361
f 550/550/550 428/428/428 568/568/568
f 550/550/550 443/443/443 428/428/428
f 568/568/568 429/429/429 548/548/548
f 568/568/568 428/428/428 429/429/429
f 569/569/569 357/357/357 355/355/355
f 570/570/570 569/569/569 355/355/355
f 571/571/571 363/363/363 357/357/357
f 569/569/569 571/571/571 357/357/357
f 572/572/572 369/369/369 363/363/363
f 571/571/571 572/572/572 363/363/363
f 567/567/567 371/371/371 369/369/369
f 572/572/572 567/567/567 369/369/369
f 570/570/570 355/355/355 353/353/353
f 570/570/570 353/353/353 555/555/555
f 554/554/554 448/448/448 446/446/446
f 417/417/417 425/425/425 419/419/419
f 546/546/546 366/366/366 367/367/367
f 545/545/545 359/359/359 360/360/360
f 544/544/544 545/545/545 360/360/360
f 538/538/538 408/408/408 402/402/402
f 550/550/550 442/442/442 444/444/444
f 450/450/450 449/449/449 564/564/564
f 561/561/561 450/450/450 564/564/564
f 454/454/454 455/455/455 565/565/565
f 452/452/452 553/553/553 458/458/458
f 425/425/425 408/408/408 419/419/419
f 425/425/425 445/445/445 408/408/408
f 421/421/421 542/542/542 560/560/560
f 554/554/554 447/447/447 459/459/459
f 554/554/554 459/459/459 456/456/456
g cPK_10_000470_00_FIREex_RR_L_SB_3
f 575/575/575 574/574/574 573/573/573
f 576/576/576 575/575/575 573/573/573
f 579/579/579 578/578/578 577/577/577
f 577/577/577 580/580/580 579/579/579
f 577/577/577 581/581/581 580/580/580
f 574/574/574 583/583/583 582/582/582
f 573/573/573 574/574/574 582/582/582
f 582/582/582 583/583/583 584/584/584
f 578/578/578 579/579/579 585/585/585
f 587/587/587 586/586/586 584/584/584
f 590/590/590 589/589/589 588/588/588
f 580/580/580 581/581/581 591/591/591
f 594/594/594 593/593/593 592/592/592
f 595/595/595 577/577/577 578/578/578
f 596/596/596 588/588/588 586/586/586
f 588/588/588 597/597/597 586/586/586
f 598/598/598 597/597/597 588/588/588
f 598/598/598 589/589/589 592/592/592
f 600/600/600 599/599/599 587/587/587
f 603/603/603 602/602/602 601/601/601
f 604/604/604 603/603/603 601/601/601
f 605/605/605 604/604/604 601/601/601
f 573/573/573 582/582/582 586/586/586
f 597/597/597 573/573/573 586/586/586
f 576/576/576 573/573/573 597/597/597
f 598/598/598 576/576/576 597/597/597
f 595/595/595 576/576/576 598/598/598
f 577/577/577 593/593/593 581/581/581
f 607/607/607 606/606/606 591/591/591
f 593/593/593 594/594/594 591/591/591
f 581/581/581 593/593/593 591/591/591
f 586/586/586 582/582/582 584/584/584
f 587/587/587 584/584/584 608/608/608
f 609/609/609 587/587/587 608/608/608
f 596/596/596 586/586/586 587/587/587
f 599/599/599 596/596/596 587/587/587
f 612/612/612 611/611/611 610/610/610
f 614/614/614 594/594/594 613/613/613
f 594/594/594 607/607/607 591/591/591
f 592/592/592 593/593/593 577/577/577
f 599/599/599 600/600/600 603/603/603
f 611/611/611 612/612/612 603/603/603
f 604/604/604 611/611/611 603/603/603
f 607/607/607 594/594/594 614/614/614
f 605/605/605 607/607/607 614/614/614
f 590/590/590 612/612/612 610/610/610
f 613/613/613 594/594/594 615/615/615
f 615/615/615 592/592/592 589/589/589
f 595/595/595 592/592/592 577/577/577
f 615/615/615 590/590/590 610/610/610
f 613/613/613 615/615/615 610/610/610
f 613/613/613 610/610/610 611/611/611
f 614/614/614 613/613/613 611/611/611
f 614/614/614 611/611/611 604/604/604
f 605/605/605 614/614/614 604/604/604
f 605/605/605 601/601/601 606/606/606
f 607/607/607 605/605/605 606/606/606
f 576/576/576 578/578/578 575/575/575
f 576/576/576 595/595/595 578/578/578
f 615/615/615 594/594/594 592/592/592
f 615/615/615 589/589/589 590/590/590
f 589/589/589 598/598/598 588/588/588
f 603/603/603 600/600/600 609/609/609
f 600/600/600 587/587/587 609/609/609
f 609/609/609 608/608/608 616/616/616
f 603/603/603 609/609/609 602/602/602
f 595/595/595 598/598/598 592/592/592
f 590/590/590 588/588/588 596/596/596
f 596/596/596 599/599/599 612/612/612
f 612/612/612 599/599/599 603/603/603
f 590/590/590 596/596/596 612/612/612
