g cPK_10_000560_00_KAMEXex_RR_L_SB
v -0.1539616 0.14397524 -0.0060142432
v -0.1663842 0.15997252 -0.0068498305
v -0.17369716 0.15280321 -0.006663234
v -0.15855634 0.13615422 -0.0062296456
v -0.17756645 0.26519418 -0.020505816
v -0.17905408 0.28324124 -0.023861151
v -0.20067778 0.2855154 -0.02166265
v -0.19788472 0.264817 -0.019747248
v -0.1791173 0.3104645 -0.023418646
v -0.1716792 0.3343161 -0.023105185
v -0.18904446 0.34388116 -0.021722456
v -0.19853906 0.31481752 -0.021870032
v -0.15333869 0.35391864 -0.022794701
v -0.12986897 0.36600503 -0.022794701
v -0.13593706 0.38556886 -0.02124523
v -0.16620359 0.371853 -0.02122413
v -0.10543089 0.36817822 -0.022794701
v -0.10645079 0.38883105 -0.021242877
v -0.13819794 0.12506658 -0.006185043
v -0.11928953 0.12476186 -0.0060269884
v -0.12032244 0.13318114 -0.006013328
v -0.13614966 0.13422851 -0.006071125
v -0.1040884 0.12859242 -0.006020661
v -0.061505377 0.1874853 -0.006033949
v -0.070004344 0.19404514 -0.00603567
v -0.10842764 0.13624097 -0.005993449
v -0.0295131 0.23206046 -0.015344626
v -0.046326492 0.23931344 -0.018014098
v -0.010175604 0.28183 -0.021599209
v -0.012651265 0.31182063 -0.02161916
v -0.030465921 0.30700907 -0.023350475
v -0.030242354 0.28332603 -0.023412174
v -0.022091266 0.34224874 -0.021510452
v -0.038214076 0.36222225 -0.021221453
v -0.051268138 0.34417695 -0.022794701
v -0.038809735 0.3275764 -0.02299682
v -0.08406719 0.36481783 -0.022794701
v -0.081148766 0.38655433 -0.021226509
v -0.0672363 0.35698202 -0.022794701
v -0.058254357 0.3782585 -0.021210337
v -0.03663282 0.26037356 -0.023423996
v -0.01887178 0.25268608 -0.018207882
v -0.17068954 0.17201066 -0.00753539
v -0.17495595 0.22559348 -0.012888411
v -0.18931283 0.22453499 -0.012031377
v -0.1799763 0.16990763 -0.0073455162
v 0.05878367 0.062243845 -0.013951075
v 0.065573305 0.07449284 -0.012845862
v 0.0493565 0.09122112 -0.012785807
v 0.03999162 0.078612305 -0.014887936
v -0.009150198 0.21969187 -0.015443754
v -0.00788241 0.2003999 -0.014835346
v 0.008477736 0.20274334 -0.011568168
v 0.009656094 0.21965806 -0.011533026
v 0.05071342 0.35488498 -0.016037518
v 0.031592935 0.3222233 -0.012881934
v 0.053097207 0.3133539 -0.013828659
v 0.060324807 0.33286557 -0.016037518
v -0.003078664 0.254332 -0.014515752
v -0.007910479 0.23776697 -0.014998673
v 0.014100625 0.23470913 -0.011280293
v 0.01854895 0.24604066 -0.011301063
v 0.09851441 0.06427004 -0.014192278
v 0.0827918 0.06652947 -0.013503532
v 0.0799878 0.053337313 -0.014272237
v 0.099289685 0.0512792 -0.01458962
v 0.120129645 0.06747566 -0.014828048
v 0.123059146 0.054810803 -0.0149758505
v 0.10897179 0.32857525 -0.015432912
v 0.097124174 0.3310206 -0.015419888
v 0.09558541 0.3082032 -0.016306136
v 0.105970025 0.30941093 -0.016147353
v 0.23526998 0.16642474 -0.017059544
v 0.23695599 0.1832167 -0.016919482
v 0.21427189 0.18177944 -0.017950667
v 0.214565 0.16898152 -0.017969495
v 0.1500821 0.08392104 -0.015610847
v 0.13549432 0.0741627 -0.015225912
v 0.14096305 0.06373062 -0.014945519
v 0.1562218 0.07585017 -0.014750759
v 0.2388799 0.23745488 -0.01325604
v 0.24712804 0.26534924 -0.011243149
v 0.2276148 0.25402945 -0.013375833
v 0.2200238 0.24288788 -0.0145220375
v 0.23532502 0.1947646 -0.01642178
v 0.23222266 0.20342842 -0.01542175
v 0.20734064 0.19928883 -0.017807653
v 0.21113212 0.19256493 -0.017774642
v 0.23584893 0.22710243 -0.013860977
v 0.21469875 0.23267193 -0.01562792
v 0.21323593 0.22349778 -0.01653581
v 0.2116022 0.28569064 -0.013322099
v 0.19493943 0.2935997 -0.013761396
v 0.18820357 0.27545214 -0.015937263
v 0.20286988 0.26920757 -0.014958071
v 0.22660299 0.27630588 -0.012921922
v 0.21410342 0.25927314 -0.014196199
v 0.18288693 0.2990034 -0.014409688
v 0.17456603 0.27813742 -0.016764885
v 0.17098305 0.3024617 -0.01443899
v 0.15782195 0.30895457 -0.014792866
v 0.14853278 0.2911869 -0.017536646
v 0.16200057 0.2781259 -0.01769563
v 0.14355302 0.31561586 -0.015116929
v 0.13595742 0.29937223 -0.01691663
v 0.122411646 0.32470888 -0.015393618
v 0.11709497 0.3075417 -0.016314408
v 0.08586363 0.34046012 -0.016037518
v 0.07871739 0.32157382 -0.015945042
v 0.026323771 0.29058775 -0.010743222
v 0.04610387 0.27816448 -0.011988442
v 0.0058242823 0.27005115 -0.013383049
v 0.025768194 0.2570369 -0.011516009
v -0.003927768 0.17499937 -0.015132216
v 0.00873528 0.17731254 -0.012193861
v 0.0030230077 0.14854328 -0.015158649
v 0.015810391 0.15309002 -0.012382291
v 0.021629032 0.109468125 -0.0154841645
v 0.033171806 0.11494994 -0.0127568785
v 0.024592225 0.13302325 -0.012580744
v 0.17192516 0.10396724 -0.016250096
v 0.17895856 0.09837264 -0.014635232
v 0.19848084 0.13838243 -0.017365396
v 0.20646572 0.13115966 -0.015424083
v 0.20600478 0.14500807 -0.017522354
v 0.21636346 0.13814174 -0.016309777
v 0.2113475 0.15658961 -0.017711643
v 0.22585034 0.14985578 -0.016716743
v 0.23243728 0.21275656 -0.01474966
v 0.21116288 0.21049266 -0.01740306
v -0.25886008 -0.04009254 -0.021127515
v -0.24814644 -0.052567672 -0.021127515
v -0.23577277 -0.03790888 -0.022496557
v -0.24206443 -0.029917499 -0.022781035
v -0.234116 -0.06352424 -0.021127515
v -0.22488637 -0.06759005 -0.021464685
v -0.22180383 -0.04773542 -0.021650763
v -0.22794354 -0.04491437 -0.02188932
v -0.2799941 0.010170886 -0.019026026
v -0.26706296 -0.008902515 -0.021086967
v -0.24478109 -0.00023595724 -0.022644095
v -0.25725612 0.020114472 -0.021209193
v -0.28789538 0.075296514 -0.019210313
v -0.28794074 0.04205115 -0.018427625
v -0.2640432 0.04601748 -0.020839294
v -0.2621028 0.07016602 -0.02037073
v -0.21570747 -0.047183055 -0.021557247
v -0.21374772 -0.0661075 -0.021464685
v -0.1930681 -0.05537349 -0.018810224
v -0.008172837 0.04370507 -0.013496731
v -0.019199122 0.034695562 -0.012573184
v -0.0077584917 0.013713588 -0.01329822
v 0.0076850727 0.033437375 -0.014212586
v 0.018049344 0.104385726 -0.015098861
v 0.009058825 0.13276166 -0.014211701
v -0.0021742133 0.12780026 -0.013947074
v 0.00442089 0.10239766 -0.014718038
v -0.1450257 0.19701351 -0.017560752
v -0.13778694 0.17410712 -0.017616285
v -0.116349615 0.18326582 -0.015070646
v -0.17725308 0.18432039 -0.017670175
v -0.16707648 0.16490301 -0.017955584
v -0.2651099 -0.027010614 -0.021155283
v -0.24655934 -0.019323988 -0.022920512
v -0.20238462 -0.026199466 -0.02150239
v -0.20954175 -0.03848476 -0.02149308
v -0.14535786 -0.022765366 -0.018630145
v -0.16512619 -0.028236657 -0.01827161
v -0.16046551 -0.04881684 -0.016888408
v -0.13738768 -0.04238194 -0.017250229
v -0.11653662 -0.00150917 -0.022897983
v -0.12849824 -0.013093102 -0.020363105
v -0.11497875 -0.031400543 -0.018868966
v -0.09545859 2.785275E-05 -0.021608388
v -0.10378375 -0.0015013971 -0.021815246
v -0.09672869 -0.024070598 -0.020831876
v -0.08625288 -0.019621693 -0.020837134
v -0.09209382 0.005080014 -0.021805188
v -0.18640277 -0.029445773 -0.01935366
v 0.0041468213 0.07057052 -0.014481782
v -0.00042240616 0.055551805 -0.014481785
v 0.014413379 0.05190974 -0.014901504
v 0.017634897 0.06816458 -0.015023373
v 0.00584923 0.08761347 -0.014720817
v 0.018320551 0.08820879 -0.015098862
v -0.0050327517 0.1585685 -0.01411702
v -0.014073685 0.15165119 -0.013770173
v -0.04029354 0.19872329 -0.013542968
v -0.070458226 0.20994821 -0.017213952
v -0.072106995 0.18759027 -0.010913626
v -0.04957598 0.17992517 -0.0119777275
v -0.0980407 0.21055399 -0.021128466
v -0.094612055 0.1876212 -0.0125520155
v -0.27810156 0.10313751 -0.019558657
v -0.2555757 0.093690716 -0.020755926
v -0.2017368 0.17107426 -0.019283397
v -0.22207995 0.15450434 -0.020100428
v -0.2067037 0.14105754 -0.022941364
v -0.18799572 0.15429243 -0.01988548
v -0.01874576 0.17907183 -0.0142361075
v -0.030024601 0.16826569 -0.013307079
v -0.03556488 0.027690321 -0.011491513
v -0.029012254 0.0046874783 -0.011577969
v -0.056736734 0.02378517 -0.011767591
v -0.055124134 0.0011384925 -0.011411006
v -0.2572166 0.12910582 -0.019242896
v -0.24056032 0.116997994 -0.02142657
v -0.24006961 0.1440058 -0.019620806
v -0.22651635 0.13097708 -0.022232426
v -0.07458423 0.023594426 -0.013834119
v -0.07299348 0.0015233724 -0.013504634
v -0.09334476 0.013467209 -0.022517102
v -0.247376 -0.010044766 -0.02290171
v -0.08396449 0.018530818 -0.017046377
v -0.12387574 0.20461956 -0.019997647
v -0.10404257 0.29708788 -0.019330379
v -0.05181355 0.24199371 -0.023794116
v -0.05581614 0.22965144 -0.020489294
v -0.10052905 0.22459877 -0.023919161
v -0.13108036 0.22997375 -0.02414853
v -0.17057465 0.26184055 -0.024148535
v -0.15333065 0.24227317 -0.02414853
v -0.07434925 0.22887754 -0.024103014
v -0.10232867 0.21565883 -0.021459434
v -0.13149874 0.220426 -0.02188466
v -0.15330517 0.23131798 -0.02187859
v -0.17157303 0.24852486 -0.021720681
v -0.07779657 0.21930459 -0.021082273
v -0.07888254 0.18758658 -0.009333482
v -0.09384017 0.17809886 -0.008940267
v -0.11147521 0.17536077 -0.010447361
v -0.13424543 0.17832144 -0.013118845
v -0.15406473 0.18981223 -0.013235307
v -0.16733792 0.17559952 -0.00933254
v -0.16985638 0.21685927 -0.014367175
v 0.049095538 0.27685484 -0.014906879
v 0.055513855 0.31204453 -0.015168558
v 0.16003953 0.27103445 -0.020907223
v 0.17408034 0.27082157 -0.01973407
v 0.18615547 0.26763025 -0.018716102
v 0.20133317 0.2606629 -0.017797409
v 0.16898398 0.1068659 -0.018905208
v 0.19565304 0.13858156 -0.019837681
v 0.046311975 0.19451252 -0.017044863
v 0.039817255 0.21040659 -0.016444726
v 0.042224117 0.18811393 -0.015475473
v 0.14716199 0.08772681 -0.018078122
v 0.016010389 0.2055296 -0.015874315
v 0.016939562 0.17975596 -0.015983649
v 0.06854387 0.07922771 -0.016415581
v 0.054194767 0.094851136 -0.01611279
v 0.024043 0.15353455 -0.015896633
v 0.03197091 0.1340437 -0.015854463
v 0.13325211 0.078860804 -0.017801246
v 0.11899252 0.07099173 -0.016342347
v 0.09842531 0.06898285 -0.01672241
v 0.083634324 0.07155811 -0.0165596
v 0.18960384 0.19272594 -0.026120184
v 0.18369298 0.17608075 -0.026338538
v 0.20332375 0.17038076 -0.02368906
v 0.2000575 0.15937717 -0.023484437
v 0.1796389 0.1672118 -0.026029093
v 0.20625019 0.18587057 -0.023753038
v 0.19340087 0.21257105 -0.022387642
v 0.0642321 0.241287 -0.021422548
v 0.05541004 0.24303141 -0.019594936
v 0.057961274 0.22413246 -0.021347797
v 0.1126614 0.29335418 -0.020362709
v 0.08835044 0.29273322 -0.019867027
v 0.10982168 0.2842569 -0.02049183
v 0.07694828 0.3176525 -0.017669035
v 0.09306317 0.30288145 -0.018499503
v 0.061645705 0.32916877 -0.016724883
v 0.068161175 0.2839116 -0.016863361
v 0.060320314 0.2674691 -0.017987907
v 0.020472357 0.23342346 -0.015991911
v 0.01730374 0.2198981 -0.015968459
v 0.20696758 0.2245966 -0.020104885
v 0.20389274 0.21273556 -0.020388132
v 0.17706345 0.22312431 -0.024052015
v 0.15586868 0.20853002 -0.029275825
v 0.15932938 0.22931294 -0.024293754
v 0.12748139 0.26250035 -0.022120629
v 0.103060044 0.27114692 -0.021109698
v 0.08287348 0.27851212 -0.020079657
v 0.11785447 0.24738395 -0.023716718
v 0.13938965 0.2385389 -0.02429155
v 0.1329951 0.21795459 -0.028628668
v 0.09515314 0.2558192 -0.02141023
v 0.088483155 0.24417579 -0.023736713
v 0.107886635 0.22852762 -0.027141336
v 0.05405096 0.21134172 -0.020620886
v 0.049564995 0.20068538 -0.018793508
v 0.061730392 0.19365196 -0.021236066
v 0.14682637 0.19058935 -0.02832968
v 0.14199957 0.1826009 -0.027820889
v 0.09879641 0.21002816 -0.026651597
v 0.123465315 0.20015286 -0.028476795
v 0.090901546 0.19975705 -0.025498856
v 0.081379935 0.18898325 -0.023272846
v 0.109350696 0.18249619 -0.025547722
v 0.116712585 0.19150577 -0.027362619
v 0.07451054 0.2180805 -0.023818705
v 0.084543936 0.23728798 -0.024518246
v 0.06823408 0.2064263 -0.0228591
v 0.055171497 0.17502442 -0.0137972385
v 0.15374117 0.15896687 -0.023369445
v 0.13020757 0.16698907 -0.024027595
v 0.119219296 0.15337943 -0.019417172
v 0.1445579 0.14296924 -0.019284023
v 0.19567254 0.22644813 -0.022479748
v 0.14993103 0.24024737 -0.025502453
v 0.2093734 0.23496144 -0.019183759
v 0.13003032 0.27423248 -0.022857234
v 0.14434652 0.251857 -0.024917556
v 0.1621483 0.24096714 -0.024500638
v 0.17820556 0.24911423 -0.022197707
v 0.15695964 0.26110852 -0.02294246
v 0.18083894 0.23289011 -0.023478866
v 0.13400875 0.29256684 -0.02008157
v 0.1152962 0.30090198 -0.018914377
v 0.07591992 0.18276587 -0.020512879
v 0.058537096 0.1862422 -0.018858442
v 0.067675315 0.16202126 -0.013556649
v 0.13100982 0.0835589 -0.016733138
v 0.14424187 0.09153258 -0.017019808
v 0.12464231 0.11202258 -0.014481224
v 0.057344463 0.13602732 -0.015999783
v 0.06468798 0.12099554 -0.016419604
v 0.09765647 0.12841351 -0.013926707
v 0.09865115 0.085163355 -0.017118363
v 0.07886155 0.09719652 -0.01700811
v 0.07091751 0.1082345 -0.016657058
v 0.117103614 0.08061751 -0.016857702
v 0.16978674 0.1514796 -0.023068314
v 0.11701109 0.17147543 -0.023608336
v 0.10385175 0.15932217 -0.0210396
v 0.103464864 0.17608082 -0.022642577
v 0.09190758 0.16748844 -0.01982522
v 0.16604275 0.109764494 -0.017846167
v 0.18716955 0.139179 -0.021622906
v 0.17382924 0.13539132 -0.021569816
v 0.14632206 0.28412744 -0.020808736
v 0.2017593 0.20457791 -0.020754276
v 0.069459915 0.25552818 -0.020872602
v 0.043491498 0.24865623 -0.018347174
v 0.032995325 0.2314389 -0.018108774
v 0.0457006 0.22932938 -0.017575158
v 0.030029098 0.22011445 -0.017880553
v 0.02881967 0.20903377 -0.017652333
v 0.030750522 0.18460816 -0.017399222
v 0.04971205 0.1568277 -0.015502679
v 0.037433393 0.15526277 -0.016969709
v 0.044857707 0.13499556 -0.01725625
v 0.062340785 0.10199731 -0.017838726
v 0.07356904 0.08833506 -0.017994419
v 0.08472422 0.07983646 -0.01812453
v 0.1177485 0.075112395 -0.017900387
v 0.09790697 0.076527886 -0.018042257
v 0.19282523 0.1387807 -0.020309571
v 0.05322328 0.11845249 -0.017482966
v 0.19801433 0.24022317 -0.020809278
v 0.07699434 0.2622758 -0.020228678
v 0.21439138 0.24421577 -0.016967747
v 0.1940613 0.1473293 -0.022711083
v 0.04096137 0.21751772 -0.016789863
v 0.17411384 0.1575252 -0.025565598
v 0.13571005 0.17360495 -0.02670282
v 0.07506175 0.31318396 -0.018144999
v 0.03103796 0.25457296 -0.01578912
v 0.040582757 0.116700605 -0.016060295
v -0.112171076 0.17400728 -0.019449247
v -0.10152191 0.18238817 -0.017585047
v -0.20805617 0.09584453 -0.031760402
v -0.22011581 0.08740285 -0.031499382
v -0.2122628 0.075292364 -0.034462538
v -0.20406495 0.079501696 -0.03505618
v -0.2247289 0.07809224 -0.031396996
v -0.2167404 0.07005787 -0.033881094
v -0.22559229 0.067910284 -0.031481564
v -0.21910734 0.063760586 -0.033170342
v -0.22125676 0.054608047 -0.03210313
v -0.1964111 0.05047471 -0.03807163
v -0.20677279 0.04395743 -0.03304895
v -0.0988855 0.02097255 -0.026462955
v -0.101622775 0.016713014 -0.027604757
v -0.19128542 0.04312153 -0.033368945
v -0.1789088 0.049194884 -0.03368245
v -0.20893984 -0.026629357 -0.025451094
v -0.21532945 -0.026934205 -0.026945198
v -0.18773669 0.14658347 -0.023394214
v -0.03279882 0.14546353 -0.01977756
v -0.021435428 0.12044283 -0.019703008
v -0.07999678 0.12943533 -0.025586862
v -0.110722505 0.118775465 -0.025392035
v -0.09569741 0.09547332 -0.02503005
v -0.06812411 0.10504917 -0.024938257
v -0.039826326 0.08135136 -0.019979103
v -0.01441695 0.08479957 -0.019127922
v -0.047065135 0.11065276 -0.02065984
v -0.08821284 0.07033692 -0.024737798
v -0.06257676 0.076130986 -0.023959702
v -0.062928915 0.17193292 -0.01874901
v -0.10774964 0.15339653 -0.024781544
v -0.13172762 0.13673434 -0.025877154
v -0.12070719 0.1287865 -0.025634596
v -0.09157443 0.14214712 -0.025445625
v -0.15917812 0.14673452 -0.025207583
v -0.044327363 0.052585214 -0.01874614
v -0.021139197 0.054134544 -0.017653577
v -0.088842265 0.04606372 -0.024671763
v -0.06449344 0.0492755 -0.022598041
v -0.058421202 0.031462803 -0.017033696
v -0.036716174 0.033251774 -0.015449447
v -0.096326835 0.024954092 -0.02388705
v -0.07146497 0.029266296 -0.020565493
v -0.16307473 0.15569793 -0.02307727
v -0.13893466 0.0530258 -0.030507628
v -0.12914091 0.04608811 -0.032541275
v -0.1264641 0.05103897 -0.031513125
v -0.2016274 -0.0064170966 -0.029499829
v -0.14856626 0.007377328 -0.027153088
v -0.15676056 0.023481486 -0.02971611
v -0.17608681 0.012581845 -0.030551514
v -0.17146349 -0.0005699242 -0.027840456
v -0.19306359 0.008267592 -0.029254599
v -0.19023429 -0.0040058605 -0.027267128
v -0.13255145 0.0029340785 -0.02417791
v -0.13853219 -0.002857887 -0.024270128
v -0.1937709 -0.015807366 -0.024492003
v -0.18850057 -0.016511109 -0.024625232
v -0.16829486 -0.0144033 -0.024958635
v -0.22390027 0.1256753 -0.0273919
v -0.20655905 0.13308086 -0.02763906
v -0.2345602 0.0144044 -0.027031584
v -0.24753602 0.02931417 -0.027142683
v -0.19506265 0.07983659 -0.035216525
v -0.19400437 0.09764595 -0.03188601
v -0.18624686 0.07713979 -0.035130028
v -0.1808803 0.09312859 -0.031889442
v -0.1781935 0.07123892 -0.034650937
v -0.17070769 0.07988406 -0.0321083
v -0.16904517 0.062312383 -0.03305717
v -0.18843488 0.13693383 -0.028196955
v -0.10844959 0.006764523 -0.027573166
v -0.14156751 0.022779746 -0.031286128
v -0.22811799 -0.027617365 -0.026145166
v -0.23629622 -0.028889788 -0.024405215
v -0.1154291 0.04305037 -0.030854521
v -0.1177611 0.03564156 -0.03183955
v -0.23962 0.0025502495 -0.026599128
v -0.24049833 -0.008273498 -0.026623288
v -0.22172368 -0.02727578 -0.027422437
v -0.23362063 -0.00717416 -0.028931245
v -0.22349854 -0.007233394 -0.030555902
v -0.22112091 0.02266542 -0.030335302
v -0.22243264 0.008576675 -0.030872965
v -0.20952244 0.007755538 -0.03104893
v -0.20296617 0.019361036 -0.030793792
v -0.23445883 0.0053364555 -0.028896177
v -0.11309721 0.051131107 -0.028156517
v -0.15202996 0.04188763 -0.031460263
v -0.25446486 0.06935549 -0.026812045
v -0.23842089 0.06852084 -0.029690921
v -0.23432398 0.089254156 -0.02951923
v -0.24806364 0.092514336 -0.02694557
v -0.23715377 0.05118964 -0.02972342
v -0.25434428 0.048472755 -0.027138242
v -0.23360227 0.042370677 -0.029929942
v -0.22843507 0.09975893 -0.029751254
v -0.23657477 0.112066865 -0.027050233
v -0.16435336 0.13554686 -0.028923843
v -0.14176373 0.1278582 -0.029405147
v -0.12311524 0.1118132 -0.029401502
v -0.10895218 0.08791436 -0.028818661
v -0.14832169 0.096459895 -0.032067567
v -0.13804188 0.075721435 -0.0314973
v -0.16155237 0.11148732 -0.03189551
v -0.17176092 0.116537705 -0.03175636
v -0.19078648 0.118226446 -0.03104938
v -0.20707957 0.11588883 -0.030648613
v -0.21707948 0.11197593 -0.030058283
v -0.13674645 0.06535022 -0.031119978
v -0.10735724 0.0684829 -0.028446293
v -0.13493173 0.16609795 -0.023655524
v -0.21337643 -0.0072926255 -0.030196762
v -0.12632893 0.014919003 -0.030443659
v -0.104595006 0.01191899 -0.02866052
v -0.12227688 0.025113774 -0.03257076
v -0.13610975 0.033244636 -0.033781324
v -0.12440665 0.055945493 -0.029608978
v -0.059559453 0.13641928 -0.02109046
v -0.08586778 0.16323067 -0.020643143
v -0.07097428 0.15050517 -0.020925472
v -0.04605132 0.16101937 -0.019471664
v -0.224255 -0.031605925 -0.0060408725
v -0.22425495 -0.051581502 -0.0060408725
v -0.0049922946 -0.05158143 -0.0060408725
v -0.11516287 0.12630259 -0.0060210843
v -0.14814878 0.06826378 -0.0060408725
v -0.10781956 0.11945267 -0.010410759
v 0.029547239 0.25390783 -0.0060408725
v 0.009530283 0.2571507 -0.0060408725
v 0.01618209 0.25068638 -0.011143177
v 0.113022625 -0.0005045772 -0.009338954
v 0.12177634 -0.05158141 -0.0060408725
v 0.14331248 0.0050648334 -0.0060408725
v 0.014711857 0.1875801 -0.009469393
v 0.021528006 0.15478884 -0.009491279
v 0.07298022 0.1679093 -0.010182203
v 0.05850662 0.23966527 -0.0060408725
v 0.08865984 0.2143218 -0.0060408725
v 0.11424053 0.18435517 -0.0060408725
v 0.13513923 0.15126295 -0.0060408725
v 0.15233682 0.067281105 -0.0060408725
v 0.14651988 0.12198117 -0.0060408725
v 0.11211168 0.10275798 -0.011138775
v 0.113518655 0.062543906 -0.011901074
v 0.04470196 0.09982369 -0.011766503
v 0.047067072 0.07462434 -0.011913471
v 0.07542775 0.06638329 -0.01250975
v 0.03638747 0.118872516 -0.010921939
v 0.07557525 0.10710335 -0.012700096
v 0.033189572 0.23415814 -0.0078304475
v 0.0210454 0.22720766 -0.009010047
v 0.015938818 0.2134395 -0.009368042
v 0.06971631 0.004584742 -0.01093886
v -0.062347483 0.0019752027 -0.009585525
v -0.009763432 0.013813901 -0.011874254
v -0.034157824 0.090033434 -0.012721914
v 0.009621406 0.02557804 -0.013110234
v 0.028588569 0.047651786 -0.014116436
v 0.03368169 0.07623782 -0.014129688
v -0.1941802 0.0053492547 -0.0060408725
v 0.04163022 0.04605645 -0.011909196
v 0.024288941 0.021339953 -0.01108337
v 0.031060517 0.09936689 -0.014014824
v 0.009152866 0.15211575 -0.012883625
v 0.023046672 0.11888564 -0.013538665
v -0.001444459 0.1894053 -0.013030829
v -0.00071036816 0.21635818 -0.01260298
v 0.0024391345 0.23982552 -0.012449241
v -0.0031792165 0.24399002 -0.011270071
v -0.01471231 0.24948435 -0.0060408725
v -0.026171064 0.24176514 -0.006371042
v -0.018926311 0.23274724 -0.011244177
v -0.048038125 0.22000785 -0.0060410807
v -0.06944948 0.19388525 -0.0060210926
v -0.058812022 0.18742116 -0.010837066
v -0.038363267 0.21190012 -0.011243775
v -0.092409685 0.16120775 -0.0060210885
v -0.08318229 0.1541866 -0.010459911
v -0.00496552 0.25461122 -0.0060408725
v -0.011639934 0.22619162 -0.013566618
v -0.019903863 0.2006527 -0.014344299
v -0.02482958 0.16976845 -0.012653227
v -0.004734659 0.0045501473 -0.009951925
v 0.07107663 0.26442796 -0.0060408725
v 0.03643885 0.27686083 -0.0060408725
v 0.1682149 -0.05158141 -0.0060408725
v 0.16937712 0.0068534375 -0.0060408725
v 0.10481856 0.23822537 -0.0060408725
v 0.16524345 0.12646692 -0.0060408725
v 0.1535095 0.16233389 -0.0060408725
v -0.0029828094 0.28030327 -0.0060408725
v -0.043125194 0.26402244 -0.0060408725
v -0.048038125 0.22000785 -0.0060410807
v -0.114635184 0.22517501 -0.0060408725
v -0.06944948 0.19388525 -0.0060210926
vt 0.5361328 0.54052734
vt 0.55029297 0.55810547
vt 0.55859375 0.55029297
vt 0.5415039 0.5317383
vt 0.56396484 0.67871094
vt 0.56591797 0.69921875
vt 0.59033203 0.70214844
vt 0.58740234 0.67871094
vt 0.56591797 0.73046875
vt 0.5576172 0.7578125
vt 0.5776367 0.7685547
vt 0.5878906 0.73535156
vt 0.5366211 0.78027344
vt 0.50927734 0.7944336
vt 0.5161133 0.81640625
vt 0.55126953 0.80029297
vt 0.48120117 0.796875
vt 0.48242188 0.8198242
vt 0.5180664 0.51953125
vt 0.4963379 0.51904297
vt 0.49731445 0.5283203
vt 0.515625 0.52978516
vt 0.47875977 0.5234375
vt 0.4284668 0.5883789
vt 0.43798828 0.5957031
vt 0.48364258 0.5317383
vt 0.3942871 0.6411133
vt 0.41333008 0.64941406
vt 0.37182617 0.6977539
vt 0.375 0.7319336
vt 0.39501953 0.7265625
vt 0.3947754 0.69970703
vt 0.38549805 0.76660156
vt 0.40405273 0.7895508
vt 0.4189453 0.76904297
vt 0.40454102 0.75
vt 0.4567871 0.79296875
vt 0.45336914 0.8173828
vt 0.43725586 0.7836914
vt 0.4272461 0.80810547
vt 0.4020996 0.67333984
vt 0.38208008 0.6645508
vt 0.5551758 0.57128906
vt 0.5600586 0.6308594
vt 0.57666016 0.62939453
vt 0.56591797 0.56933594
vt 0.2590332 0.6464844
vt 0.2512207 0.66064453
vt 0.2697754 0.6801758
vt 0.28051758 0.66552734
vt 0.3371582 0.82714844
vt 0.33569336 0.80566406
vt 0.31689453 0.80810547
vt 0.3154297 0.82714844
vt 0.26831055 0.9814453
vt 0.2902832 0.94384766
vt 0.26538086 0.93408203
vt 0.25708008 0.95654297
vt 0.33007812 0.8666992
vt 0.33569336 0.84765625
vt 0.31030273 0.8442383
vt 0.30517578 0.8574219
vt 0.21325684 0.6489258
vt 0.23132324 0.6513672
vt 0.23461914 0.63623047
vt 0.21240234 0.63427734
vt 0.18835449 0.65283203
vt 0.1850586 0.6381836
vt 0.20129395 0.9526367
vt 0.21484375 0.9550781
vt 0.2166748 0.9291992
vt 0.20471191 0.93066406
vt 0.056030273 0.76660156
vt 0.05407715 0.78564453
vt 0.080078125 0.7841797
vt 0.079711914 0.76953125
vt 0.15393066 0.6713867
vt 0.17077637 0.66015625
vt 0.16442871 0.6484375
vt 0.14685059 0.6621094
vt 0.051879883 0.84716797
vt 0.04272461 0.87841797
vt 0.06500244 0.86572266
vt 0.0736084 0.8535156
vt 0.055908203 0.7993164
vt 0.05935669 0.80908203
vt 0.088012695 0.8041992
vt 0.083618164 0.7963867
vt 0.05529785 0.8359375
vt 0.079711914 0.8417969
vt 0.08135986 0.83154297
vt 0.083496094 0.90185547
vt 0.10247803 0.9111328
vt 0.11022949 0.8911133
vt 0.09350586 0.8833008
vt 0.066345215 0.8911133
vt 0.080566406 0.8720703
vt 0.11639404 0.91748047
vt 0.12573242 0.89453125
vt 0.13012695 0.921875
vt 0.14526367 0.9296875
vt 0.15576172 0.90966797
vt 0.14038086 0.89404297
vt 0.1616211 0.9375
vt 0.17016602 0.9189453
vt 0.18579102 0.9482422
vt 0.19189453 0.92871094
vt 0.2277832 0.9658203
vt 0.23608398 0.94384766
vt 0.29638672 0.90771484
vt 0.2734375 0.89404297
vt 0.31982422 0.88427734
vt 0.296875 0.8696289
vt 0.33154297 0.7763672
vt 0.31640625 0.7788086
vt 0.32299805 0.74609375
vt 0.3083496 0.75097656
vt 0.3017578 0.7006836
vt 0.28833008 0.70703125
vt 0.29833984 0.72802734
vt 0.12878418 0.6948242
vt 0.12072754 0.6879883
vt 0.09820557 0.7338867
vt 0.08892822 0.72558594
vt 0.08959961 0.7416992
vt 0.07775879 0.7338867
vt 0.08343506 0.7548828
vt 0.06689453 0.7475586
vt 0.059051514 0.8198242
vt 0.0836792 0.81689453
vt 0.92822266 0.6777344
vt 0.91552734 0.66308594
vt 0.9008789 0.68066406
vt 0.90771484 0.6899414
vt 0.8989258 0.6508789
vt 0.8881836 0.6459961
vt 0.88427734 0.6694336
vt 0.89160156 0.6723633
vt 0.95214844 0.7363281
vt 0.9375 0.7138672
vt 0.9111328 0.7241211
vt 0.92529297 0.7475586
vt 0.9609375 0.81103516
vt 0.9614258 0.7729492
vt 0.93359375 0.77734375
vt 0.93115234 0.8051758
vt 0.8774414 0.6699219
vt 0.875 0.6479492
vt 0.8510742 0.66064453
vt 0.6381836 0.77441406
vt 0.6508789 0.76416016
vt 0.6376953 0.7402344
vt 0.6201172 0.7626953
vt 0.60839844 0.8442383
vt 0.61865234 0.8769531
vt 0.63134766 0.87109375
vt 0.62402344 0.84228516
vt 0.79589844 0.9506836
vt 0.78759766 0.9248047
vt 0.7626953 0.9350586
vt 0.8330078 0.93652344
vt 0.82128906 0.9140625
vt 0.9355469 0.6928711
vt 0.91308594 0.70214844
vt 0.8618164 0.69433594
vt 0.8701172 0.6801758
vt 0.7963867 0.6982422
vt 0.81884766 0.69189453
vt 0.81347656 0.66796875
vt 0.78759766 0.6748047
vt 0.7631836 0.72265625
vt 0.77685547 0.70947266
vt 0.76171875 0.6879883
vt 0.73876953 0.7241211
vt 0.74853516 0.72265625
vt 0.7402344 0.69628906
vt 0.7285156 0.70166016
vt 0.7348633 0.72998047
vt 0.84375 0.6904297
vt 0.62402344 0.80566406
vt 0.62939453 0.78808594
vt 0.6123047 0.7841797
vt 0.6088867 0.8027344
vt 0.6220703 0.8251953
vt 0.60791016 0.8256836
vt 0.6347656 0.9067383
vt 0.64501953 0.8989258
vt 0.67529297 0.9526367
vt 0.70996094 0.9658203
vt 0.71191406 0.9399414
vt 0.68603516 0.93115234
vt 0.74121094 0.9663086
vt 0.73779297 0.9404297
vt 0.94970703 0.8432617
vt 0.92333984 0.83203125
vt 0.8613281 0.9213867
vt 0.8847656 0.90234375
vt 0.8671875 0.88671875
vt 0.8457031 0.90185547
vt 0.6503906 0.9301758
vt 0.6635742 0.91796875
vt 0.6699219 0.75634766
vt 0.66259766 0.7294922
vt 0.69433594 0.75146484
vt 0.6923828 0.72558594
vt 0.92578125 0.87353516
vt 0.90625 0.8588867
vt 0.9057617 0.890625
vt 0.8901367 0.875
vt 0.71484375 0.75146484
vt 0.7128906 0.7260742
vt 0.7363281 0.7397461
vt 0.9140625 0.7128906
vt 0.72558594 0.74560547
vt 0.7714844 0.95947266
vt 0.47973633 0.71533203
vt 0.41967773 0.65234375
vt 0.42456055 0.6386719
vt 0.47558594 0.6323242
vt 0.5107422 0.6386719
vt 0.55615234 0.6748047
vt 0.5361328 0.65234375
vt 0.44555664 0.63720703
vt 0.4777832 0.6220703
vt 0.51123047 0.6274414
vt 0.5361328 0.6401367
vt 0.5566406 0.66015625
vt 0.44970703 0.62646484
vt 0.4501953 0.58935547
vt 0.46704102 0.578125
vt 0.4873047 0.5751953
vt 0.5136719 0.57958984
vt 0.5366211 0.59228516
vt 0.55126953 0.57666016
vt 0.5546875 0.62353516
vt 0.27001953 0.8925781
vt 0.2626953 0.9326172
vt 0.14294434 0.8857422
vt 0.12695312 0.8852539
vt 0.112976074 0.88134766
vt 0.095458984 0.87353516
vt 0.13232422 0.6982422
vt 0.10229492 0.7348633
vt 0.27319336 0.7988281
vt 0.28076172 0.81689453
vt 0.27807617 0.7915039
vt 0.15734863 0.67626953
vt 0.3071289 0.81152344
vt 0.3059082 0.7817383
vt 0.24731445 0.6669922
vt 0.26367188 0.6845703
vt 0.29760742 0.7519531
vt 0.28857422 0.72998047
vt 0.17333984 0.6660156
vt 0.18969727 0.65722656
vt 0.21325684 0.65478516
vt 0.22998047 0.6582031
vt 0.10852051 0.796875
vt 0.11541748 0.77783203
vt 0.09283447 0.7709961
vt 0.09661865 0.7583008
vt 0.12005615 0.7675781
vt 0.089538574 0.7885742
vt 0.10424805 0.81933594
vt 0.25195312 0.8515625
vt 0.26293945 0.8540039
vt 0.25952148 0.83251953
vt 0.19702148 0.91259766
vt 0.22497559 0.9111328
vt 0.20019531 0.90185547
vt 0.23828125 0.9394531
vt 0.21960449 0.92285156
vt 0.2553711 0.9526367
vt 0.24816895 0.9008789
vt 0.25708008 0.88183594
vt 0.30200195 0.84277344
vt 0.30566406 0.8276367
vt 0.08898926 0.8330078
vt 0.0925293 0.81933594
vt 0.12298584 0.83154297
vt 0.14733887 0.8149414
vt 0.14343262 0.8383789
vt 0.17993164 0.8769531
vt 0.20800781 0.88671875
vt 0.23120117 0.89501953
vt 0.19104004 0.859375
vt 0.16625977 0.8491211
vt 0.17358398 0.8256836
vt 0.21716309 0.8691406
vt 0.22473145 0.85546875
vt 0.20251465 0.8378906
vt 0.26391602 0.8178711
vt 0.26904297 0.80615234
vt 0.25512695 0.79785156
vt 0.15771484 0.7944336
vt 0.16320801 0.78515625
vt 0.21276855 0.81640625
vt 0.18457031 0.8051758
vt 0.22167969 0.8051758
vt 0.23254395 0.79296875
vt 0.20043945 0.78515625
vt 0.19213867 0.79541016
vt 0.24035645 0.8256836
vt 0.2290039 0.84765625
vt 0.2475586 0.8125
vt 0.2631836 0.7763672
vt 0.14978027 0.7578125
vt 0.17675781 0.76708984
vt 0.18945312 0.75146484
vt 0.16027832 0.7392578
vt 0.101623535 0.83496094
vt 0.1541748 0.8510742
vt 0.08618164 0.84472656
vt 0.17700195 0.8901367
vt 0.16064453 0.8642578
vt 0.14013672 0.8520508
vt 0.12176514 0.86083984
vt 0.14611816 0.875
vt 0.118652344 0.84228516
vt 0.17285156 0.91015625
vt 0.19396973 0.92089844
vt 0.23925781 0.78515625
vt 0.25927734 0.7890625
vt 0.2487793 0.76123047
vt 0.17590332 0.6713867
vt 0.1607666 0.6801758
vt 0.18322754 0.70410156
vt 0.26049805 0.7314453
vt 0.25219727 0.71435547
vt 0.2142334 0.72265625
vt 0.2130127 0.67333984
vt 0.23571777 0.6870117
vt 0.24487305 0.69970703
vt 0.19189453 0.66796875
vt 0.13134766 0.7495117
vt 0.19189453 0.77246094
vt 0.20715332 0.7583008
vt 0.2076416 0.77734375
vt 0.2208252 0.7675781
vt 0.13562012 0.7011719
vt 0.11138916 0.73535156
vt 0.12658691 0.73095703
vt 0.1586914 0.9008789
vt 0.09454346 0.8100586
vt 0.24645996 0.86816406
vt 0.27612305 0.86035156
vt 0.28808594 0.8408203
vt 0.27392578 0.8383789
vt 0.2915039 0.828125
vt 0.29296875 0.8154297
vt 0.29077148 0.78759766
vt 0.26953125 0.7553711
vt 0.28295898 0.75390625
vt 0.2746582 0.73046875
vt 0.25439453 0.6928711
vt 0.24169922 0.6767578
vt 0.22888184 0.66748047
vt 0.19116211 0.6616211
vt 0.21386719 0.6635742
vt 0.1048584 0.7348633
vt 0.26489258 0.7114258
vt 0.09899902 0.85058594
vt 0.23791504 0.87646484
vt 0.08026123 0.85498047
vt 0.103637695 0.7446289
vt 0.27954102 0.8251953
vt 0.12634277 0.75634766
vt 0.17041016 0.77490234
vt 0.24023438 0.9345703
vt 0.29052734 0.8666992
vt 0.27905273 0.70996094
vt 0.7583008 0.9243164
vt 0.74609375 0.93408203
vt 0.86865234 0.83496094
vt 0.8833008 0.8251953
vt 0.87353516 0.81103516
vt 0.8642578 0.81591797
vt 0.8886719 0.8144531
vt 0.87939453 0.8051758
vt 0.88964844 0.8027344
vt 0.88183594 0.79785156
vt 0.88427734 0.7871094
vt 0.85498047 0.78222656
vt 0.8671875 0.77490234
vt 0.7426758 0.74853516
vt 0.74609375 0.74365234
vt 0.8491211 0.7739258
vt 0.83496094 0.7807617
vt 0.8696289 0.6933594
vt 0.8769531 0.6933594
vt 0.84521484 0.8930664
vt 0.6669922 0.89160156
vt 0.6538086 0.86279297
vt 0.7211914 0.8730469
vt 0.75634766 0.86083984
vt 0.7392578 0.8339844
vt 0.70751953 0.84521484
vt 0.6748047 0.8178711
vt 0.6455078 0.82177734
vt 0.68310547 0.8515625
vt 0.73046875 0.8051758
vt 0.7011719 0.8120117
vt 0.70166016 0.921875
vt 0.7529297 0.9008789
vt 0.7807617 0.88183594
vt 0.7680664 0.8725586
vt 0.734375 0.8876953
vt 0.8125 0.8930664
vt 0.6801758 0.78466797
vt 0.6533203 0.7866211
vt 0.73095703 0.77734375
vt 0.703125 0.7807617
vt 0.69628906 0.7602539
vt 0.6713867 0.7626953
vt 0.7397461 0.7529297
vt 0.7114258 0.7578125
vt 0.81689453 0.9033203
vt 0.7885742 0.78515625
vt 0.77734375 0.77734375
vt 0.77441406 0.7832031
vt 0.86083984 0.7167969
vt 0.7998047 0.7324219
vt 0.8095703 0.75097656
vt 0.83154297 0.73876953
vt 0.8261719 0.7236328
vt 0.8510742 0.73339844
vt 0.84814453 0.7192383
vt 0.7817383 0.7270508
vt 0.7885742 0.7207031
vt 0.8520508 0.7060547
vt 0.8457031 0.7050781
vt 0.8227539 0.70751953
vt 0.88671875 0.86865234
vt 0.8666992 0.8774414
vt 0.89941406 0.74072266
vt 0.9140625 0.7578125
vt 0.8535156 0.81640625
vt 0.85253906 0.83691406
vt 0.8432617 0.8129883
vt 0.83691406 0.83154297
vt 0.8339844 0.80615234
vt 0.8251953 0.81640625
vt 0.82373047 0.79589844
vt 0.8457031 0.88183594
vt 0.75390625 0.7319336
vt 0.7919922 0.7504883
vt 0.89160156 0.6923828
vt 0.9013672 0.69091797
vt 0.76171875 0.7739258
vt 0.76464844 0.7651367
vt 0.90527344 0.7270508
vt 0.90625 0.71484375
vt 0.88427734 0.6928711
vt 0.8979492 0.7158203
vt 0.88623047 0.7158203
vt 0.88378906 0.7504883
vt 0.8852539 0.7338867
vt 0.8701172 0.73291016
vt 0.86279297 0.74658203
vt 0.8989258 0.73046875
vt 0.75878906 0.7832031
vt 0.80371094 0.77246094
vt 0.921875 0.8041992
vt 0.9038086 0.80322266
vt 0.8989258 0.82714844
vt 0.9145508 0.8305664
vt 0.90234375 0.7832031
vt 0.921875 0.78027344
vt 0.8984375 0.7729492
vt 0.89208984 0.83935547
vt 0.9013672 0.85302734
vt 0.8183594 0.8803711
vt 0.7919922 0.87158203
vt 0.7705078 0.85302734
vt 0.75439453 0.8251953
vt 0.7998047 0.8354492
vt 0.78759766 0.81152344
vt 0.8149414 0.85253906
vt 0.82666016 0.85839844
vt 0.8486328 0.86035156
vt 0.8676758 0.8574219
vt 0.87890625 0.85302734
vt 0.7861328 0.7993164
vt 0.7524414 0.80322266
vt 0.7841797 0.91552734
vt 0.8745117 0.7158203
vt 0.77441406 0.74121094
vt 0.7495117 0.73779297
vt 0.76953125 0.75341797
vt 0.78564453 0.7626953
vt 0.77197266 0.7885742
vt 0.6977539 0.88134766
vt 0.72802734 0.9121094
vt 0.7109375 0.89746094
vt 0.6821289 0.9091797
vt 1 0.33129883
vt 1 0.30859375
vt 0.7504883 0.30859375
vt 0.8754883 0.5107422
vt 0.91308594 0.44482422
vt 0.8671875 0.50341797
vt 0.7109375 0.65625
vt 0.7338867 0.66015625
vt 0.7260742 0.65234375
vt 0.61621094 0.36669922
vt 0.60595703 0.30859375
vt 0.58154297 0.37304688
vt 0.72802734 0.5810547
vt 0.72021484 0.54345703
vt 0.6616211 0.55859375
vt 0.67822266 0.6401367
vt 0.6435547 0.6113281
vt 0.6147461 0.57714844
vt 0.5908203 0.5395508
vt 0.57128906 0.44384766
vt 0.5776367 0.50634766
vt 0.6171875 0.48413086
vt 0.6152344 0.43847656
vt 0.69384766 0.48095703
vt 0.69091797 0.45214844
vt 0.6586914 0.4428711
vt 0.703125 0.5024414
vt 0.6586914 0.4892578
vt 0.70703125 0.63378906
vt 0.7207031 0.62597656
vt 0.7265625 0.61035156
vt 0.66503906 0.3725586
vt 0.8154297 0.36938477
vt 0.7558594 0.38305664
vt 0.7836914 0.46972656
vt 0.7338867 0.39648438
vt 0.71191406 0.42138672
vt 0.70654297 0.45410156
vt 0.9658203 0.37329102
vt 0.6972656 0.41967773
vt 0.7167969 0.39160156
vt 0.70947266 0.48046875
vt 0.734375 0.54052734
vt 0.7182617 0.5024414
vt 0.74609375 0.5830078
vt 0.74560547 0.61376953
vt 0.7416992 0.6401367
vt 0.7480469 0.64501953
vt 0.76123047 0.6513672
vt 0.77441406 0.6425781
vt 0.7661133 0.6323242
vt 0.7993164 0.6176758
vt 0.82373047 0.5878906
vt 0.81152344 0.5805664
vt 0.78808594 0.60839844
vt 0.85009766 0.55078125
vt 0.83935547 0.54296875
vt 0.7504883 0.6567383
vt 0.7578125 0.6245117
vt 0.76708984 0.5957031
vt 0.7729492 0.5605469
vt 0.75 0.37231445
vt 0.6635742 0.66845703
vt 0.703125 0.6826172
vt 0.55322266 0.30859375
vt 0.5517578 0.375
vt 0.6254883 0.6386719
vt 0.5566406 0.51123047
vt 0.5698242 0.5522461
vt 0.7480469 0.68652344
vt 0.79296875 0.66845703
vt 0.79833984 0.6191406
vt 0.8730469 0.6254883
vt 0.8222656 0.59033203
vn -0 0 -1
vn -0 0 -1
vn -0 0 -1
vn -0 0 -1
vn -0 0 -1
vn -0 0 -1
vn -0 0 -1
vn -0 0 -1
vn -0 0 -1
vn -0 0 -1
vn -0 0 -1
vn -0 0 -1
vn -0 0 -1
vn -0 0 -1
vn -0 0 -1
vn -0 0 -1
vn -0 0 -1
vn -0 0 -1
vn -0 0 -1
vn -0 0 -1
vn -0 0 -1
vn -0 0 -1
vn -0 0 -1
vn -0 0 -1
vn -0 0 -1
vn -0 0 -1
vn -0 0 -1
vn -0 0 -1
vn -0 0 -1
vn -0 0 -1
vn -0 0 -1
vn -0 0 -1
vn -0 0 -1
vn -0 0 -1
vn -0 0 -1
vn -0 0 -1
vn -0 0 -1
vn -0 0 -1
vn -0 0 -1
vn -0 0 -1
vn -0 0 -1
vn -0 0 -1
vn -0 0 -1
vn -0 0 -1
vn -0 0 -1
vn -0 0 -1
vn -0 0 -1
vn -0 0 -1
vn -0 0 -1
vn -0 0 -1
vn -0 0 -1
vn -0 0 -1
vn -0 0 -1
vn -0 0 -1
vn -0 0 -1
vn -0 0 -1
vn -0 0 -1
vn -0 0 -1
vn -0 0 -1
vn -0 0 -1
vn -0 0 -1
vn -0 0 -1
vn -0 0 -1
vn -0 0 -1
vn -0 0 -1
vn -0 0 -1
vn -0 0 -1
vn -0 0 -1
vn -0 0 -1
vn -0 0 -1
vn -0 0 -1
vn -0 0 -1
vn -0 0 -1
vn -0 0 -1
vn -0 0 -1
vn -0 0 -1
vn -0 0 -1
vn -0 0 -1
vn -0 0 -1
vn -0 0 -1
vn -0 0 -1
vn -0 0 -1
vn -0 0 -1
vn -0 0 -1
vn -0 0 -1
vn -0 0 -1
vn -0 0 -1
vn -0 0 -1
vn -0 0 -1
vn -0 0 -1
vn -0 0 -1
vn -0 0 -1
vn -0 0 -1
vn -0 0 -1
vn -0 0 -1
vn -0 0 -1
vn -0 0 -1
vn -0 0 -1
vn -0 0 -1
vn -0 0 -1
vn -0 0 -1
vn -0 0 -1
vn -0 0 -1
vn -0 0 -1
vn -0 0 -1
vn -0 0 -1
vn -0 0 -1
vn -0 0 -1
vn -0 0 -1
vn -0 0 -1
vn -0 0 -1
vn -0 0 -1
vn -0 0 -1
vn -0 0 -1
vn -0 0 -1
vn -0 0 -1
vn -0 0 -1
vn -0 0 -1
vn -0 0 -1
vn -0 0 -1
vn -0 0 -1
vn -0 0 -1
vn -0 0 -1
vn -0 0 -1
vn -0 0 -1
vn -0 0 -1
vn -0 0 -1
vn -0 0 -1
vn -0 0 -1
vn -0 0 -1
vn -0 0 -1
vn -0 0 -1
vn -0 0 -1
vn -0 0 -1
vn -0 0 -1
vn -0 0 -1
vn -0 0 -1
vn -0 0 -1
vn -0 0 -1
vn -0 0 -1
vn -0 0 -1
vn -0 0 -1
vn -0 0 -1
vn -0 0 -1
vn -0 0 -1
vn -0 0 -1
vn -0 0 -1
vn -0 0 -1
vn -0 0 -1
vn -0 0 -1
vn -0 0 -1
vn -0 0 -1
vn -0 0 -1
vn -0 0 -1
vn -0 0 -1
vn -0 0 -1
vn -0 0 -1
vn -0 0 -1
vn -0 0 -1
vn -0 0 -1
vn -0 0 -1
vn -0 0 -1
vn -0 0 -1
vn -0 0 -1
vn -0 0 -1
vn -0 0 -1
vn -0 0 -1
vn -0 0 -1
vn -0 0 -1
vn -0 0 -1
vn -0 0 -1
vn -0 0 -1
vn -0 0 -1
vn -0 0 -1
vn -0 0 -1
vn -0 0 -1
vn -0 0 -1
vn -0 0 -1
vn -0 0 -1
vn -0 0 -1
vn -0 0 -1
vn -0 0 -1
vn -0 0 -1
vn -0 0 -1
vn -0 0 -1
vn -0 0 -1
vn -0 0 -1
vn -0 0 -1
vn -0 0 -1
vn -0 0 -1
vn -0 0 -1
vn -0 0 -1
vn -0 0 -1
vn -0 0 -1
vn -0 0 -1
vn -0 0 -1
vn -0 0 -1
vn -0 0 -1
vn -0 0 -1
vn -0 0 -1
vn -0 0 -1
vn -0 0 -1
vn -0 0 -1
vn -0 0 -1
vn -0 0 -1
vn -0 0 -1
vn -0 0 -1
vn -0 0 -1
vn -0 0 -1
vn -0 0 -1
vn -0 0 -1
vn -0 0 -1
vn -0 0 -1
vn -0 0 -1
vn -0 0 -1
vn -0 0 -1
vn -0 0 -1
vn -0 0 -1
vn -0 0 -1
vn -0 0 -1
vn -0 0 -1
vn -0 0 -1
vn -0 0 -1
vn -0 0 -1
vn -0 0 -1
vn -0 0 -1
vn -0 0 -1
vn -0 0 -1
vn -0 0 -1
vn -0 0 -1
vn -0 0 -1
vn -0 0 -1
vn -0 0 -1
vn -0 0 -1
vn -0 0 -1
vn -0 0 -1
vn -0 0 -1
vn -0 0 -1
vn -0 0 -1
vn -0 0 -1
vn -0 0 -1
vn -0 0 -1
vn -0 0 -1
vn -0 0 -1
vn -0 0 -1
vn -0 0 -1
vn -0 0 -1
vn -0 0 -1
vn -0 0 -1
vn -0 0 -1
vn -0 0 -1
vn -0 0 -1
vn -0 0 -1
vn -0 0 -1
vn -0 0 -1
vn -0 0 -1
vn -0 0 -1
vn -0 0 -1
vn -0 0 -1
vn -0 0 -1
vn -0 0 -1
vn -0 0 -1
vn -0 0 -1
vn -0 0 -1
vn -0 0 -1
vn -0 0 -1
vn -0 0 -1
vn -0 0 -1
vn -0 0 -1
vn -0 0 -1
vn -0 0 -1
vn -0 0 -1
vn -0 0 -1
vn -0 0 -1
vn -0 0 -1
vn -0 0 -1
vn -0 0 -1
vn -0 0 -1
vn -0 0 -1
vn -0 0 -1
vn -0 0 -1
vn -0 0 -1
vn -0 0 -1
vn -0 0 -1
vn -0 0 -1
vn -0 0 -1
vn -0 0 -1
vn -0 0 -1
vn -0 0 -1
vn -0 0 -1
vn -0 0 -1
vn -0 0 -1
vn -0 0 -1
vn -0 0 -1
vn -0 0 -1
vn -0 0 -1
vn -0 0 -1
vn -0 0 -1
vn -0 0 -1
vn -0 0 -1
vn -0 0 -1
vn -0 0 -1
vn -0 0 -1
vn -0 0 -1
vn -0 0 -1
vn -0 0 -1
vn -0 0 -1
vn -0 0 -1
vn -0 0 -1
vn -0 0 -1
vn -0 0 -1
vn -0 0 -1
vn -0 0 -1
vn -0 0 -1
vn -0 0 -1
vn -0 0 -1
vn -0 0 -1
vn -0 0 -1
vn -0 0 -1
vn -0 0 -1
vn -0 0 -1
vn -0 0 -1
vn -0 0 -1
vn -0 0 -1
vn -0 0 -1
vn -0 0 -1
vn -0 0 -1
vn -0 0 -1
vn -0 0 -1
vn -0 0 -1
vn -0 0 -1
vn -0 0 -1
vn -0 0 -1
vn -0 0 -1
vn -0 0 -1
vn -0 0 -1
vn -0 0 -1
vn -0 0 -1
vn -0 0 -1
vn -0 0 -1
vn -0 0 -1
vn -0 0 -1
vn -0 0 -1
vn -0 0 -1
vn -0 0 -1
vn -0 0 -1
vn -0 0 -1
vn -0 0 -1
vn -0 0 -1
vn -0 0 -1
vn -0 0 -1
vn -0 0 -1
vn -0 0 -1
vn -0 0 -1
vn -0 0 -1
vn -0 0 -1
vn -0 0 -1
vn -0 0 -1
vn -0 0 -1
vn -0 0 -1
vn -0 0 -1
vn -0 0 -1
vn -0 0 -1
vn -0 0 -1
vn -0 0 -1
vn -0 0 -1
vn -0 0 -1
vn -0 0 -1
vn -0 0 -1
vn -0 0 -1
vn -0 0 -1
vn -0 0 -1
vn -0 0 -1
vn -0 0 -1
vn -0 0 -1
vn -0 0 -1
vn -0 0 -1
vn -0 0 -1
vn -0 0 -1
vn -0 0 -1
vn -0 0 -1
vn -0 0 -1
vn -0 0 -1
vn -0 0 -1
vn -0 0 -1
vn -0 0 -1
vn -0 0 -1
vn -0 0 -1
vn -0 0 -1
vn -0 0 -1
vn -0 0 -1
vn -0 0 -1
vn -0 0 -1
vn -0 0 -1
vn -0 0 -1
vn -0 0 -1
vn -0 0 -1
vn -0 0 -1
vn -0 0 -1
vn -0 0 -1
vn -0 0 -1
vn -0 0 -1
vn -0 0 -1
vn -0 0 -1
vn -0 0 -1
vn -0 0 -1
vn -0 0 -1
vn -0 0 -1
vn -0 0 -1
vn -0 0 -1
vn -0 0 -1
vn -0 0 -1
vn -0 0 -1
vn -0 0 -1
vn -0 0 -1
vn -0 0 -1
vn -0 0 -1
vn -0 0 -1
vn -0 0 -1
vn -0 0 -1
vn -0 0 -1
vn -0 0 -1
vn -0 0 -1
vn -0 0 -1
vn -0 0 -1
vn -0 0 -1
vn -0 0 -1
vn -0 0 -1
vn -0 0 -1
vn -0 0 -1
vn -0 0 -1
vn -0 0 -1
vn -0 0 -1
vn -0 0 -1
vn -0 0 -1
vn -0 0 -1
vn -0 0 -1
vn -0 0 -1
vn -0 0 -1
vn -0 0 -1
vn -0 0 -1
vn -0 0 -1
vn -0 0 -1
vn -0 0 -1
vn -0 0 -1
vn -0 0 -1
vn -0 0 -1
vn -0 0 -1
vn -0 0 -1
vn -0 0 -1
vn -0 0 -1
vn -0 0 -1
vn -0 0 -1
vn -0 0 -1
vn -0 0 -1
vn -0 0 -1
vn -0 0 -1
vn -0 0 -1
vn -0 0 -1
vn -0 0 -1
vn -0 0 -1
vn -0 0 -1
vn -0 0 -1
vn -0 0 -1
vn -0 0 -1
vn -0 0 -1
vn -0 0 -1
vn -0 0 -1
vn -0 0 -1
vn -0 0 -1
vn -0 0 -1
vn -0 0 -1
vn -0 0 -1
vn -0 0 -1
vn -0 0 -1
vn -0 0 -1
vn -0 0 -1
vn -0 0 -1
vn -0 0 -1
vn -0 0 -1
vn -0 0 -1
vn -0 0 -1
vn -0 0 -1
vn -0 0 -1
vn -0 0 -1
vn -0 0 -1
vn -0 0 -1
vn -0 0 -1
vn -0 0 -1
vn -0 0 -1
vn -0 0 -1
vn -0 0 -1
vn -0 0 -1
vn -0 0 -1
vn -0 0 -1
vn -0 0 -1
vn -0 0 -1
vn -0 0 -1
vn -0 0 -1
vn -0 0 -1
vn -0 0 -1
vn -0 0 -1
vn -0 0 -1
vn -0 0 -1
vn -0 0 -1
vn -0 0 -1
vn -0 0 -1
vn -0 0 -1
vn -0 0 -1
vn -0 0 -1
vn -0 0 -1
vn -0 0 -1
vn -0 0 -1
vn -0 0 -1
vn -0 0 -1
vn -0 0 -1
vn -0 0 -1
vn -0 0 -1
vn -0 0 -1
vn -0 0 -1
vn -0 0 -1
vn -0 0 -1
vn -0 0 -1
vn -0 0 -1
vn -0 0 -1
vn -0 0 -1
vn -0 0 -1
vn -0 0 -1
vn -0 0 -1
vn -0 0 -1
vn -0 0 -1
vn -0 0 -1
vn -0 0 -1
vn -0 0 -1
vn -0 0 -1
vn -0 0 -1
vn -0 0 -1
vn -0 0 -1
vn -0 0 -1
vn -0 0 -1
vn -0 0 -1
vn -0 0 -1
vn -0 0 -1
vn -0 0 -1
vn -0 0 -1
vn -0 0 -1
vn -0 0 -1
vn -0 0 -1
vn -0 0 -1
vn -0 0 -1
vn -0 0 -1
vn -0 0 -1
vn -0 0 -1
vn -0 0 -1
vn -0 0 -1
vn -0 0 -1
vn -0 0 -1
vn -0 0 -1
vn -0 0 -1
vn -0 0 -1
vn -0 0 -1
vn -0 0 -1
vn -0 0 -1
vn -0 0 -1
vn -0 0 -1
vn -0 0 -1
vn -0 0 -1
vn -0 0 -1
vn -0 0 -1
g cPK_10_000560_00_KAMEXex_RR_L_SB_0
f 3/3/3 2/2/2 1/1/1
f 4/4/4 3/3/3 1/1/1
f 7/7/7 6/6/6 5/5/5
f 8/8/8 7/7/7 5/5/5
f 11/11/11 10/10/10 9/9/9
f 12/12/12 11/11/11 9/9/9
f 15/15/15 14/14/14 13/13/13
f 16/16/16 15/15/15 13/13/13
f 15/15/15 18/18/18 17/17/17
f 14/14/14 15/15/15 17/17/17
f 21/21/21 20/20/20 19/19/19
f 22/22/22 21/21/21 19/19/19
f 25/25/25 24/24/24 23/23/23
f 26/26/26 25/25/25 23/23/23
f 28/28/28 27/27/27 24/24/24
f 25/25/25 28/28/28 24/24/24
f 31/31/31 30/30/30 29/29/29
f 32/32/32 31/31/31 29/29/29
f 35/35/35 34/34/34 33/33/33
f 36/36/36 35/35/35 33/33/33
f 38/38/38 37/37/37 17/17/17
f 18/18/18 38/38/38 17/17/17
f 40/40/40 39/39/39 37/37/37
f 38/38/38 40/40/40 37/37/37
f 16/16/16 13/13/13 10/10/10
f 11/11/11 16/16/16 10/10/10
f 35/35/35 39/39/39 40/40/40
f 34/34/34 35/35/35 40/40/40
f 31/31/31 36/36/36 33/33/33
f 30/30/30 31/31/31 33/33/33
f 21/21/21 26/26/26 23/23/23
f 20/20/20 21/21/21 23/23/23
f 1/1/1 22/22/22 19/19/19
f 4/4/4 1/1/1 19/19/19
f 41/41/41 32/32/32 29/29/29
f 42/42/42 41/41/41 29/29/29
f 12/12/12 9/9/9 6/6/6
f 7/7/7 12/12/12 6/6/6
f 45/45/45 44/44/44 43/43/43
f 46/46/46 45/45/45 43/43/43
f 8/8/8 5/5/5 44/44/44
f 45/45/45 8/8/8 44/44/44
f 41/41/41 42/42/42 27/27/27
f 28/28/28 41/41/41 27/27/27
f 3/3/3 46/46/46 43/43/43
f 2/2/2 3/3/3 43/43/43
f 49/49/49 48/48/48 47/47/47
f 50/50/50 49/49/49 47/47/47
f 53/53/53 52/52/52 51/51/51
f 54/54/54 53/53/53 51/51/51
f 57/57/57 56/56/56 55/55/55
f 58/58/58 57/57/57 55/55/55
f 61/61/61 60/60/60 59/59/59
f 62/62/62 61/61/61 59/59/59
f 65/65/65 64/64/64 63/63/63
f 66/66/66 65/65/65 63/63/63
f 47/47/47 48/48/48 64/64/64
f 65/65/65 47/47/47 64/64/64
f 66/66/66 63/63/63 67/67/67
f 68/68/68 66/66/66 67/67/67
f 71/71/71 70/70/70 69/69/69
f 72/72/72 71/71/71 69/69/69
f 75/75/75 74/74/74 73/73/73
f 76/76/76 75/75/75 73/73/73
f 79/79/79 78/78/78 77/77/77
f 80/80/80 79/79/79 77/77/77
f 83/83/83 82/82/82 81/81/81
f 84/84/84 83/83/83 81/81/81
f 87/87/87 86/86/86 85/85/85
f 88/88/88 87/87/87 85/85/85
f 91/91/91 90/90/90 89/89/89
f 94/94/94 93/93/93 92/92/92
f 95/95/95 94/94/94 92/92/92
f 97/97/97 96/96/96 82/82/82
f 83/83/83 97/97/97 82/82/82
f 99/99/99 98/98/98 93/93/93
f 94/94/94 99/99/99 93/93/93
f 95/95/95 92/92/92 96/96/96
f 97/97/97 95/95/95 96/96/96
f 102/102/102 101/101/101 100/100/100
f 103/103/103 102/102/102 100/100/100
f 103/103/103 100/100/100 98/98/98
f 99/99/99 103/103/103 98/98/98
f 105/105/105 104/104/104 101/101/101
f 102/102/102 105/105/105 101/101/101
f 107/107/107 106/106/106 104/104/104
f 105/105/105 107/107/107 104/104/104
f 72/72/72 69/69/69 106/106/106
f 107/107/107 72/72/72 106/106/106
f 109/109/109 108/108/108 70/70/70
f 71/71/71 109/109/109 70/70/70
f 58/58/58 55/55/55 108/108/108
f 109/109/109 58/58/58 108/108/108
f 111/111/111 110/110/110 56/56/56
f 57/57/57 111/111/111 56/56/56
f 113/113/113 112/112/112 110/110/110
f 111/111/111 113/113/113 110/110/110
f 62/62/62 59/59/59 112/112/112
f 113/113/113 62/62/62 112/112/112
f 54/54/54 51/51/51 60/60/60
f 61/61/61 54/54/54 60/60/60
f 115/115/115 114/114/114 52/52/52
f 53/53/53 115/115/115 52/52/52
f 117/117/117 116/116/116 114/114/114
f 115/115/115 117/117/117 114/114/114
f 120/120/120 119/119/119 118/118/118
f 49/49/49 50/50/50 118/118/118
f 119/119/119 49/49/49 118/118/118
f 68/68/68 67/67/67 78/78/78
f 79/79/79 68/68/68 78/78/78
f 80/80/80 77/77/77 121/121/121
f 122/122/122 80/80/80 121/121/121
f 122/122/122 121/121/121 123/123/123
f 124/124/124 122/122/122 123/123/123
f 124/124/124 123/123/123 125/125/125
f 126/126/126 124/124/124 125/125/125
f 126/126/126 125/125/125 127/127/127
f 128/128/128 126/126/126 127/127/127
f 127/127/127 76/76/76 73/73/73
f 128/128/128 127/127/127 73/73/73
f 88/88/88 85/85/85 74/74/74
f 75/75/75 88/88/88 74/74/74
f 130/130/130 129/129/129 86/86/86
f 87/87/87 130/130/130 86/86/86
f 84/84/84 81/81/81 89/89/89
f 90/90/90 84/84/84 89/89/89
f 117/117/117 120/120/120 116/116/116
f 120/120/120 118/118/118 116/116/116
f 91/91/91 89/89/89 129/129/129
f 130/130/130 91/91/91 129/129/129
f 133/133/133 132/132/132 131/131/131
f 134/134/134 133/133/133 131/131/131
f 137/137/137 136/136/136 135/135/135
f 138/138/138 137/137/137 135/135/135
f 141/141/141 140/140/140 139/139/139
f 142/142/142 141/141/141 139/139/139
f 145/145/145 144/144/144 143/143/143
f 146/146/146 145/145/145 143/143/143
f 149/149/149 148/148/148 147/147/147
f 152/152/152 151/151/151 150/150/150
f 153/153/153 152/152/152 150/150/150
f 156/156/156 155/155/155 154/154/154
f 157/157/157 156/156/156 154/154/154
f 160/160/160 159/159/159 158/158/158
f 162/162/162 161/161/161 158/158/158
f 134/134/134 131/131/131 163/163/163
f 164/164/164 134/134/134 163/163/163
f 138/138/138 135/135/135 132/132/132
f 133/133/133 138/138/138 132/132/132
f 149/149/149 166/166/166 165/165/165
f 169/169/169 168/168/168 167/167/167
f 170/170/170 169/169/169 167/167/167
f 173/173/173 172/172/172 171/171/171
f 176/176/176 175/175/175 174/174/174
f 177/177/177 176/176/176 174/174/174
f 177/177/177 174/174/174 178/178/178
f 147/147/147 148/148/148 136/136/136
f 137/137/137 147/147/147 136/136/136
f 149/149/149 165/165/165 179/179/179
f 182/182/182 181/181/181 180/180/180
f 183/183/183 182/182/182 180/180/180
f 184/184/184 157/157/157 154/154/154
f 185/185/185 184/184/184 154/154/154
f 187/187/187 186/186/186 155/155/155
f 156/156/156 187/187/187 155/155/155
f 190/190/190 189/189/189 188/188/188
f 191/191/191 190/190/190 188/188/188
f 193/193/193 192/192/192 189/189/189
f 146/146/146 143/143/143 194/194/194
f 195/195/195 146/146/146 194/194/194
f 198/198/198 197/197/197 196/196/196
f 199/199/199 198/198/198 196/196/196
f 191/191/191 188/188/188 200/200/200
f 201/201/201 191/191/191 200/200/200
f 201/201/201 200/200/200 186/186/186
f 187/187/187 201/201/201 186/186/186
f 183/183/183 180/180/180 184/184/184
f 185/185/185 183/183/183 184/184/184
f 153/153/153 150/150/150 181/181/181
f 182/182/182 153/153/153 181/181/181
f 203/203/203 202/202/202 151/151/151
f 152/152/152 203/203/203 151/151/151
f 205/205/205 204/204/204 202/202/202
f 203/203/203 205/205/205 202/202/202
f 170/170/170 167/167/167 172/172/172
f 173/173/173 170/170/170 172/172/172
f 142/142/142 139/139/139 144/144/144
f 145/145/145 142/142/142 144/144/144
f 195/195/195 194/194/194 206/206/206
f 207/207/207 195/195/195 206/206/206
f 207/207/207 206/206/206 208/208/208
f 209/209/209 207/207/207 208/208/208
f 209/209/209 208/208/208 197/197/197
f 198/198/198 209/209/209 197/197/197
f 199/199/199 196/196/196 161/161/161
f 162/162/162 199/199/199 161/161/161
f 193/193/193 160/160/160 192/192/192
f 211/211/211 210/210/210 204/204/204
f 205/205/205 211/211/211 204/204/204
f 211/211/211 178/178/178 212/212/212
f 149/149/149 147/147/147 166/166/166
f 149/149/149 179/179/179 168/168/168
f 169/169/169 149/149/149 168/168/168
f 141/141/141 213/213/213 140/140/140
f 164/164/164 163/163/163 140/140/140
f 213/213/213 164/164/164 140/140/140
f 159/159/159 162/162/162 158/158/158
f 177/177/177 178/178/178 211/211/211
f 176/176/176 171/171/171 175/175/175
f 211/211/211 214/214/214 210/210/210
f 176/176/176 173/173/173 171/171/171
f 211/211/211 212/212/212 214/214/214
f 160/160/160 158/158/158 215/215/215
f 190/190/190 193/193/193 189/189/189
f 160/160/160 215/215/215 192/192/192
g cPK_10_000560_00_KAMEXex_RR_L_SB_1
f 10/10/10 216/216/216 9/9/9
f 216/216/216 10/10/10 13/13/13
f 218/218/218 217/217/217 28/28/28
f 216/216/216 36/36/36 31/31/31
f 216/216/216 35/35/35 36/36/36
f 37/37/37 216/216/216 17/17/17
f 216/216/216 39/39/39 35/35/35
f 37/37/37 39/39/39 216/216/216
f 32/32/32 216/216/216 31/31/31
f 216/216/216 41/41/41 217/217/217
f 32/32/32 41/41/41 216/216/216
f 220/220/220 216/216/216 219/219/219
f 216/216/216 222/222/222 221/221/221
f 220/220/220 222/222/222 216/216/216
f 14/14/14 216/216/216 13/13/13
f 17/17/17 216/216/216 14/14/14
f 223/223/223 216/216/216 217/217/217
f 219/219/219 216/216/216 223/223/223
f 216/216/216 6/6/6 9/9/9
f 216/216/216 221/221/221 6/6/6
f 220/220/220 219/219/219 224/224/224
f 225/225/225 220/220/220 224/224/224
f 221/221/221 222/222/222 226/226/226
f 227/227/227 221/221/221 226/226/226
f 219/219/219 223/223/223 228/228/228
f 224/224/224 219/219/219 228/228/228
f 222/222/222 220/220/220 225/225/225
f 226/226/226 222/222/222 225/225/225
f 223/223/223 217/217/217 218/218/218
f 228/228/228 223/223/223 218/218/218
f 230/230/230 229/229/229 26/26/26
f 230/230/230 26/26/26 21/21/21
f 231/231/231 230/230/230 21/21/21
f 231/231/231 21/21/21 22/22/22
f 232/232/232 231/231/231 22/22/22
f 232/232/232 22/22/22 1/1/1
f 233/233/233 232/232/232 1/1/1
f 233/233/233 1/1/1 2/2/2
f 234/234/234 2/2/2 43/43/43
f 235/235/235 234/234/234 43/43/43
f 44/44/44 235/235/235 43/43/43
f 5/5/5 6/6/6 221/221/221
f 218/218/218 28/28/28 25/25/25
f 230/230/230 218/218/218 229/229/229
f 228/228/228 230/230/230 231/231/231
f 225/225/225 224/224/224 231/231/231
f 232/232/232 225/225/225 231/231/231
f 226/226/226 225/225/225 232/232/232
f 233/233/233 226/226/226 232/232/232
f 235/235/235 44/44/44 227/227/227
f 227/227/227 44/44/44 5/5/5
f 227/227/227 5/5/5 221/221/221
f 217/217/217 41/41/41 28/28/28
f 228/228/228 231/231/231 224/224/224
f 229/229/229 218/218/218 25/25/25
f 229/229/229 25/25/25 26/26/26
f 227/227/227 226/226/226 233/233/233
f 235/235/235 233/233/233 234/234/234
f 234/234/234 233/233/233 2/2/2
f 230/230/230 228/228/228 218/218/218
f 235/235/235 227/227/227 233/233/233
f 236/236/236 111/111/111 57/57/57
f 237/237/237 236/236/236 57/57/57
f 239/239/239 238/238/238 103/103/103
f 99/99/99 239/239/239 103/103/103
f 240/240/240 239/239/239 99/99/99
f 94/94/94 240/240/240 99/99/99
f 94/94/94 95/95/95 241/241/241
f 240/240/240 94/94/94 241/241/241
f 241/241/241 95/95/95 97/97/97
f 123/123/123 121/121/121 242/242/242
f 243/243/243 123/123/123 242/242/242
f 246/246/246 245/245/245 244/244/244
f 242/242/242 121/121/121 77/77/77
f 247/247/247 242/242/242 77/77/77
f 115/115/115 53/53/53 248/248/248
f 249/249/249 115/115/115 248/248/248
f 250/250/250 48/48/48 49/49/49
f 251/251/251 250/250/250 49/49/49
f 120/120/120 117/117/117 252/252/252
f 253/253/253 120/120/120 252/252/252
f 117/117/117 115/115/115 249/249/249
f 252/252/252 117/117/117 249/249/249
f 255/255/255 254/254/254 78/78/78
f 255/255/255 67/67/67 63/63/63
f 256/256/256 255/255/255 63/63/63
f 256/256/256 63/63/63 64/64/64
f 257/257/257 256/256/256 64/64/64
f 247/247/247 77/77/77 78/78/78
f 254/254/254 247/247/247 78/78/78
f 260/260/260 259/259/259 258/258/258
f 262/262/262 259/259/259 261/261/261
f 264/264/264 263/263/263 258/258/258
f 267/267/267 266/266/266 265/265/265
f 270/270/270 269/269/269 268/268/268
f 271/271/271 109/109/109 71/71/71
f 272/272/272 271/271/271 71/71/71
f 57/57/57 58/58/58 273/273/273
f 237/237/237 57/57/57 273/273/273
f 275/275/275 236/236/236 274/274/274
f 276/276/276 61/61/61 62/62/62
f 277/277/277 248/248/248 53/53/53
f 278/278/278 91/91/91 130/130/130
f 278/278/278 279/279/279 264/264/264
f 258/258/258 280/280/280 264/264/264
f 282/282/282 280/280/280 281/281/281
f 284/284/284 270/270/270 283/283/283
f 285/285/285 269/269/269 270/270/270
f 284/284/284 285/285/285 270/270/270
f 283/283/283 287/287/287 286/286/286
f 280/280/280 258/258/258 281/281/281
f 282/282/282 281/281/281 288/288/288
f 287/287/287 282/282/282 288/288/288
f 290/290/290 289/289/289 286/286/286
f 286/286/286 287/287/287 288/288/288
f 291/291/291 286/286/286 288/288/288
f 294/294/294 293/293/293 292/292/292
f 281/281/281 258/258/258 259/259/259
f 296/296/296 295/295/295 259/259/259
f 262/262/262 296/296/296 259/259/259
f 288/288/288 298/298/298 297/297/297
f 291/291/291 288/288/288 297/297/297
f 301/301/301 300/300/300 299/299/299
f 302/302/302 301/301/301 299/299/299
f 291/291/291 297/297/297 303/303/303
f 304/304/304 291/291/291 303/303/303
f 300/300/300 294/294/294 305/305/305
f 299/299/299 300/300/300 305/305/305
f 281/281/281 295/295/295 298/298/298
f 288/288/288 281/281/281 298/298/298
f 298/298/298 296/296/296 302/302/302
f 285/285/285 274/274/274 269/269/269
f 306/306/306 246/246/246 244/244/244
f 309/309/309 308/308/308 307/307/307
f 310/310/310 309/309/309 307/307/307
f 311/311/311 278/278/278 264/264/264
f 312/312/312 282/282/282 287/287/287
f 278/278/278 311/311/311 313/313/313
f 315/315/315 283/283/283 314/314/314
f 318/318/318 317/317/317 316/316/316
f 319/319/319 280/280/280 282/282/282
f 316/316/316 319/319/319 282/282/282
f 107/107/107 105/105/105 320/320/320
f 321/321/321 107/107/107 320/320/320
f 314/314/314 283/283/283 270/270/270
f 312/312/312 287/287/287 283/283/283
f 315/315/315 312/312/312 283/283/283
f 317/317/317 319/319/319 316/316/316
f 306/306/306 323/323/323 322/322/322
f 324/324/324 306/306/306 322/322/322
f 327/327/327 326/326/326 325/325/325
f 330/330/330 329/329/329 328/328/328
f 332/332/332 330/330/330 331/331/331
f 332/332/332 333/333/333 330/330/330
f 334/334/334 331/331/331 330/330/330
f 327/327/327 334/334/334 330/330/330
f 327/327/327 325/325/325 334/334/334
f 310/310/310 307/307/307 335/335/335
f 309/309/309 337/337/337 336/336/336
f 339/339/339 322/322/322 338/338/338
f 340/340/340 326/326/326 327/327/327
f 342/342/342 335/335/335 341/341/341
f 337/337/337 338/338/338 336/336/336
f 327/327/327 330/330/330 309/309/309
f 310/310/310 327/327/327 309/309/309
f 339/339/339 338/338/338 337/337/337
f 309/309/309 330/330/330 337/337/337
f 324/324/324 322/322/322 339/339/339
f 327/327/327 342/342/342 340/340/340
f 330/330/330 339/339/339 337/337/337
f 327/327/327 310/310/310 342/342/342
f 320/320/320 105/105/105 102/102/102
f 343/343/343 320/320/320 102/102/102
f 279/279/279 278/278/278 130/130/130
f 344/344/344 87/87/87 88/88/88
f 88/88/88 75/75/75 263/263/263
f 263/263/263 75/75/75 76/76/76
f 261/261/261 260/260/260 127/127/127
f 76/76/76 127/127/127 260/260/260
f 266/266/266 275/275/275 345/345/345
f 347/347/347 346/346/346 266/266/266
f 349/349/349 347/347/347 348/348/348
f 350/350/350 245/245/245 246/246/246
f 351/351/351 350/350/350 246/246/246
f 351/351/351 246/246/246 352/352/352
f 353/353/353 351/351/351 352/352/352
f 353/353/353 352/352/352 328/328/328
f 354/354/354 353/353/353 328/328/328
f 355/355/355 333/333/333 332/332/332
f 356/356/356 355/355/355 332/332/332
f 357/357/357 356/356/356 332/332/332
f 331/331/331 334/334/334 358/358/358
f 359/359/359 331/331/331 358/358/358
f 334/334/334 325/325/325 254/254/254
f 358/358/358 334/334/334 254/254/254
f 325/325/325 326/326/326 247/247/247
f 254/254/254 325/325/325 247/247/247
f 326/326/326 340/340/340 242/242/242
f 247/247/247 326/326/326 242/242/242
f 360/360/360 242/242/242 340/340/340
f 64/64/64 48/48/48 250/250/250
f 257/257/257 64/64/64 250/250/250
f 359/359/359 357/357/357 331/331/331
f 357/357/357 332/332/332 331/331/331
f 361/361/361 354/354/354 328/328/328
f 329/329/329 361/361/361 328/328/328
f 275/275/275 266/266/266 346/346/346
f 360/360/360 340/340/340 342/342/342
f 311/311/311 264/264/264 280/280/280
f 311/311/311 319/319/319 362/362/362
f 319/319/319 317/317/317 362/362/362
f 283/283/283 286/286/286 289/289/289
f 284/284/284 283/283/283 289/289/289
f 284/284/284 289/289/289 285/285/285
f 285/285/285 363/363/363 275/275/275
f 279/279/279 130/130/130 87/87/87
f 279/279/279 344/344/344 264/264/264
f 364/364/364 97/97/97 83/83/83
f 278/278/278 313/313/313 90/90/90
f 125/125/125 243/243/243 365/365/365
f 243/243/243 360/360/360 365/365/365
f 360/360/360 341/341/341 365/365/365
f 261/261/261 127/127/127 125/125/125
f 261/261/261 259/259/259 260/260/260
f 315/315/315 314/314/314 318/318/318
f 316/316/316 315/315/315 318/318/318
f 315/315/315 316/316/316 312/312/312
f 312/312/312 316/316/316 282/282/282
f 268/268/268 314/314/314 270/270/270
f 72/72/72 272/272/272 71/71/71
f 285/285/285 275/275/275 274/274/274
f 58/58/58 109/109/109 271/271/271
f 289/289/289 363/363/363 285/285/285
f 347/347/347 266/266/266 348/348/348
f 267/267/267 303/303/303 305/305/305
f 303/303/303 297/297/297 299/299/299
f 305/305/305 303/303/303 299/299/299
f 345/345/345 275/275/275 363/363/363
f 290/290/290 304/304/304 345/345/345
f 345/345/345 363/363/363 289/289/289
f 290/290/290 345/345/345 289/289/289
f 292/292/292 293/293/293 245/245/245
f 366/366/366 348/348/348 267/267/267
f 292/292/292 366/366/366 267/267/267
f 266/266/266 267/267/267 348/348/348
f 267/267/267 304/304/304 303/303/303
f 267/267/267 305/305/305 292/292/292
f 302/302/302 299/299/299 297/297/297
f 291/291/291 304/304/304 290/290/290
f 291/291/291 290/290/290 286/286/286
f 265/265/265 266/266/266 345/345/345
f 264/264/264 344/344/344 263/263/263
f 364/364/364 83/83/83 84/84/84
f 364/364/364 313/313/313 362/362/362
f 241/241/241 362/362/362 317/317/317
f 240/240/240 241/241/241 317/317/317
f 240/240/240 317/317/317 239/239/239
f 317/317/317 238/238/238 239/239/239
f 343/343/343 238/238/238 318/318/318
f 321/321/321 320/320/320 314/314/314
f 268/268/268 321/321/321 314/314/314
f 364/364/364 84/84/84 90/90/90
f 313/313/313 364/364/364 90/90/90
f 102/102/102 103/103/103 238/238/238
f 343/343/343 102/102/102 238/238/238
f 314/314/314 343/343/343 318/318/318
f 314/314/314 320/320/320 343/343/343
f 364/364/364 362/362/362 241/241/241
f 364/364/364 241/241/241 97/97/97
f 72/72/72 107/107/107 321/321/321
f 360/360/360 243/243/243 242/242/242
f 125/125/125 123/123/123 243/243/243
f 268/268/268 269/269/269 272/272/272
f 272/272/272 269/269/269 271/271/271
f 273/273/273 58/58/58 271/271/271
f 262/262/262 261/261/261 365/365/365
f 367/367/367 262/262/262 365/365/365
f 367/367/367 368/368/368 296/296/296
f 262/262/262 367/367/367 296/296/296
f 368/368/368 301/301/301 302/302/302
f 296/296/296 368/368/368 302/302/302
f 367/367/367 365/365/365 341/341/341
f 367/367/367 335/335/335 307/307/307
f 368/368/368 308/308/308 336/336/336
f 338/338/338 322/322/322 300/300/300
f 301/301/301 338/338/338 300/300/300
f 322/322/322 323/323/323 294/294/294
f 300/300/300 322/322/322 294/294/294
f 294/294/294 323/323/323 244/244/244
f 293/293/293 244/244/244 245/245/245
f 369/369/369 269/269/269 274/274/274
f 237/237/237 274/274/274 236/236/236
f 369/369/369 273/273/273 271/271/271
f 370/370/370 113/113/113 111/111/111
f 236/236/236 370/370/370 111/111/111
f 369/369/369 271/271/271 269/269/269
f 273/273/273 369/369/369 274/274/274
f 237/237/237 273/273/273 274/274/274
f 236/236/236 275/275/275 370/370/370
f 370/370/370 346/346/346 347/347/347
f 276/276/276 370/370/370 347/347/347
f 277/277/277 349/349/349 350/350/350
f 248/248/248 277/277/277 350/350/350
f 249/249/249 248/248/248 350/350/350
f 351/351/351 249/249/249 350/350/350
f 252/252/252 249/249/249 351/351/351
f 353/353/353 252/252/252 351/351/351
f 252/252/252 353/353/353 354/354/354
f 253/253/253 252/252/252 354/354/354
f 356/356/356 250/250/250 251/251/251
f 355/355/355 356/356/356 251/251/251
f 257/257/257 250/250/250 356/356/356
f 357/357/357 257/257/257 356/356/356
f 357/357/357 359/359/359 256/256/256
f 257/257/257 357/357/357 256/256/256
f 359/359/359 358/358/358 255/255/255
f 256/256/256 359/359/359 255/255/255
f 255/255/255 358/358/358 254/254/254
f 255/255/255 78/78/78 67/67/67
f 49/49/49 119/119/119 371/371/371
f 251/251/251 49/49/49 371/371/371
f 251/251/251 371/371/371 361/361/361
f 355/355/355 251/251/251 361/361/361
f 361/361/361 329/329/329 333/333/333
f 355/355/355 361/361/361 333/333/333
f 333/333/333 329/329/329 330/330/330
f 371/371/371 253/253/253 354/354/354
f 361/361/361 371/371/371 354/354/354
f 371/371/371 119/119/119 120/120/120
f 253/253/253 371/371/371 120/120/120
f 277/277/277 54/54/54 276/276/276
f 276/276/276 347/347/347 349/349/349
f 277/277/277 276/276/276 349/349/349
f 349/349/349 348/348/348 366/366/366
f 350/350/350 349/349/349 245/245/245
f 292/292/292 245/245/245 366/366/366
f 349/349/349 366/366/366 245/245/245
f 272/272/272 321/321/321 268/268/268
f 72/72/72 321/321/321 272/272/272
f 367/367/367 307/307/307 368/368/368
f 307/307/307 308/308/308 368/368/368
f 309/309/309 336/336/336 308/308/308
f 310/310/310 335/335/335 342/342/342
f 263/263/263 260/260/260 258/258/258
f 261/261/261 125/125/125 365/365/365
f 368/368/368 336/336/336 301/301/301
f 336/336/336 338/338/338 301/301/301
f 367/367/367 341/341/341 335/335/335
f 294/294/294 244/244/244 293/293/293
f 304/304/304 265/265/265 345/345/345
f 267/267/267 265/265/265 304/304/304
f 302/302/302 297/297/297 298/298/298
f 298/298/298 295/295/295 296/296/296
f 62/62/62 113/113/113 370/370/370
f 276/276/276 62/62/62 370/370/370
f 324/324/324 330/330/330 328/328/328
f 324/324/324 328/328/328 352/352/352
f 306/306/306 352/352/352 246/246/246
f 324/324/324 339/339/339 330/330/330
f 324/324/324 352/352/352 306/306/306
f 306/306/306 244/244/244 323/323/323
f 275/275/275 346/346/346 370/370/370
f 360/360/360 342/342/342 341/341/341
f 281/281/281 259/259/259 295/295/295
f 305/305/305 294/294/294 292/292/292
f 54/54/54 61/61/61 276/276/276
f 277/277/277 53/53/53 54/54/54
f 263/263/263 76/76/76 260/260/260
f 317/317/317 318/318/318 238/238/238
f 311/311/311 362/362/362 313/313/313
f 311/311/311 280/280/280 319/319/319
f 344/344/344 88/88/88 263/263/263
f 278/278/278 90/90/90 91/91/91
f 279/279/279 87/87/87 344/344/344
f 159/159/159 373/373/373 372/372/372
f 376/376/376 375/375/375 374/374/374
f 377/377/377 376/376/376 374/374/374
f 379/379/379 378/378/378 375/375/375
f 376/376/376 379/379/379 375/375/375
f 381/381/381 380/380/380 378/378/378
f 379/379/379 381/381/381 378/378/378
f 381/381/381 382/382/382 380/380/380
f 384/384/384 382/382/382 383/383/383
f 386/386/386 385/385/385 212/212/212
f 388/388/388 387/387/387 383/383/383
f 147/147/147 390/390/390 389/389/389
f 391/391/391 198/198/198 199/199/199
f 392/392/392 187/187/187 156/156/156
f 393/393/393 392/392/392 156/156/156
f 396/396/396 395/395/395 394/394/394
f 397/397/397 396/396/396 394/394/394
f 393/393/393 399/399/399 398/398/398
f 400/400/400 393/393/393 398/398/398
f 401/401/401 396/396/396 397/397/397
f 402/402/402 401/401/401 397/397/397
f 403/403/403 191/191/191 201/201/201
f 406/406/406 405/405/405 404/404/404
f 407/407/407 406/406/406 404/404/404
f 373/373/373 193/193/193 190/190/190
f 404/404/404 405/405/405 408/408/408
f 399/399/399 410/410/410 409/409/409
f 398/398/398 399/399/399 409/409/409
f 411/411/411 401/401/401 402/402/402
f 412/412/412 411/411/411 402/402/402
f 410/410/410 414/414/414 413/413/413
f 416/416/416 415/415/415 412/412/412
f 414/414/414 151/151/151 202/202/202
f 214/214/214 212/212/212 416/416/416
f 417/417/417 391/391/391 162/162/162
f 373/373/373 160/160/160 193/193/193
f 391/391/391 199/199/199 162/162/162
f 420/420/420 419/419/419 418/418/418
f 421/421/421 389/389/389 390/390/390
f 424/424/424 423/423/423 422/422/422
f 425/425/425 424/424/424 422/422/422
f 426/426/426 424/424/424 425/425/425
f 427/427/427 426/426/426 425/425/425
f 429/429/429 428/428/428 171/171/171
f 172/172/172 429/429/429 171/171/171
f 429/429/429 172/172/172 167/167/167
f 430/430/430 179/179/179 165/165/165
f 168/168/168 179/179/179 431/431/431
f 432/432/432 168/168/168 431/431/431
f 433/433/433 209/209/209 198/198/198
f 434/434/434 433/433/433 198/198/198
f 141/141/141 436/436/436 435/435/435
f 437/437/437 377/377/377 374/374/374
f 438/438/438 437/437/437 374/374/374
f 439/439/439 437/437/437 438/438/438
f 440/440/440 439/439/439 438/438/438
f 441/441/441 439/439/439 440/440/440
f 442/442/442 441/441/441 440/440/440
f 443/443/443 441/441/441 442/442/442
f 388/388/388 383/383/383 443/443/443
f 384/384/384 383/383/383 387/387/387
f 434/434/434 198/198/198 391/391/391
f 444/444/444 434/434/434 391/391/391
f 445/445/445 175/175/175 171/171/171
f 445/445/445 174/174/174 175/175/175
f 178/178/178 174/174/174 445/445/445
f 422/422/422 423/423/423 446/446/446
f 137/137/137 447/447/447 147/147/147
f 138/138/138 447/447/447 137/137/137
f 138/138/138 448/448/448 447/447/447
f 449/449/449 385/385/385 386/386/386
f 450/450/450 449/449/449 386/386/386
f 452/452/452 213/213/213 451/451/451
f 447/447/447 453/453/453 147/147/147
f 453/453/453 447/447/447 454/454/454
f 455/455/455 453/453/453 454/454/454
f 458/458/458 457/457/457 456/456/456
f 459/459/459 458/458/458 456/456/456
f 460/460/460 435/435/435 456/456/456
f 426/426/426 458/458/458 459/459/459
f 448/448/448 133/133/133 134/134/134
f 448/448/448 134/134/134 164/164/164
f 431/431/431 179/179/179 430/430/430
f 424/424/424 426/426/426 459/459/459
f 384/384/384 387/387/387 459/459/459
f 411/411/411 415/415/415 461/461/461
f 462/462/462 388/388/388 443/443/443
f 424/424/424 388/388/388 462/462/462
f 456/456/456 382/382/382 384/384/384
f 459/459/459 456/456/456 384/384/384
f 424/424/424 387/387/387 388/388/388
f 424/424/424 459/459/459 387/387/387
f 465/465/465 464/464/464 463/463/463
f 466/466/466 465/465/465 463/463/463
f 436/436/436 468/468/468 467/467/467
f 469/469/469 436/436/436 467/467/467
f 468/468/468 463/463/463 464/464/464
f 467/467/467 468/468/468 464/464/464
f 435/435/435 436/436/436 469/469/469
f 456/456/456 435/435/435 469/469/469
f 207/207/207 209/209/209 433/433/433
f 466/466/466 471/471/471 470/470/470
f 465/465/465 466/466/466 470/470/470
f 472/472/472 408/408/408 405/405/405
f 473/473/473 472/472/472 405/405/405
f 444/444/444 391/391/391 408/408/408
f 472/472/472 444/444/444 408/408/408
f 474/474/474 395/395/395 396/396/396
f 475/475/475 474/474/474 396/396/396
f 474/474/474 406/406/406 395/395/395
f 476/476/476 474/474/474 475/475/475
f 477/477/477 476/476/476 475/475/475
f 476/476/476 478/478/478 473/473/473
f 474/474/474 476/476/476 473/473/473
f 478/478/478 479/479/479 472/472/472
f 473/473/473 478/478/478 472/472/472
f 479/479/479 480/480/480 444/444/444
f 472/472/472 479/479/479 444/444/444
f 480/480/480 481/481/481 434/434/434
f 444/444/444 480/480/480 434/434/434
f 481/481/481 482/482/482 433/433/433
f 434/434/434 481/481/481 433/433/433
f 471/471/471 433/433/433 482/482/482
f 470/470/470 471/471/471 482/482/482
f 475/475/475 396/396/396 401/401/401
f 484/484/484 483/483/483 477/477/477
f 475/475/475 484/484/484 477/477/477
f 417/417/417 162/162/162 485/485/485
f 486/486/486 390/390/390 453/453/453
f 455/455/455 486/486/486 453/453/453
f 453/453/453 390/390/390 147/147/147
f 421/421/421 486/486/486 458/458/458
f 486/486/486 455/455/455 457/457/457
f 458/458/458 486/486/486 457/457/457
f 457/457/457 455/455/455 454/454/454
f 460/460/460 457/457/457 454/454/454
f 451/451/451 141/141/141 435/435/435
f 460/460/460 456/456/456 457/457/457
f 427/427/427 431/431/431 430/430/430
f 432/432/432 431/431/431 427/427/427
f 425/425/425 432/432/432 427/427/427
f 422/422/422 429/429/429 432/432/432
f 425/425/425 422/422/422 432/432/432
f 429/429/429 422/422/422 428/428/428
f 432/432/432 429/429/429 167/167/167
f 168/168/168 432/432/432 167/167/167
f 142/142/142 145/145/145 468/468/468
f 436/436/436 142/142/142 468/468/468
f 145/145/145 146/146/146 463/463/463
f 468/468/468 145/145/145 463/463/463
f 195/195/195 466/466/466 463/463/463
f 146/146/146 195/195/195 463/463/463
f 195/195/195 207/207/207 471/471/471
f 466/466/466 195/195/195 471/471/471
f 471/471/471 207/207/207 433/433/433
f 428/428/428 445/445/445 171/171/171
f 428/428/428 487/487/487 445/445/445
f 443/443/443 383/383/383 441/441/441
f 441/441/441 383/383/383 439/439/439
f 439/439/439 383/383/383 437/437/437
f 437/437/437 383/383/383 377/377/377
f 377/377/377 383/383/383 376/376/376
f 376/376/376 383/383/383 379/379/379
f 379/379/379 383/383/383 381/381/381
f 381/381/381 383/383/383 382/382/382
f 449/449/449 450/450/450 419/419/419
f 420/420/420 449/449/449 419/419/419
f 487/487/487 428/428/428 422/422/422
f 178/178/178 445/445/445 488/488/488
f 489/489/489 488/488/488 445/445/445
f 487/487/487 489/489/489 445/445/445
f 490/490/490 489/489/489 487/487/487
f 446/446/446 490/490/490 487/487/487
f 490/490/490 446/446/446 462/462/462
f 423/423/423 462/462/462 446/446/446
f 178/178/178 386/386/386 212/212/212
f 419/419/419 462/462/462 418/418/418
f 446/446/446 487/487/487 422/422/422
f 419/419/419 490/490/490 462/462/462
f 419/419/419 450/450/450 489/489/489
f 490/490/490 419/419/419 489/489/489
f 450/450/450 386/386/386 488/488/488
f 489/489/489 450/450/450 488/488/488
f 178/178/178 488/488/488 386/386/386
f 426/426/426 427/427/427 421/421/421
f 421/421/421 427/427/427 430/430/430
f 389/389/389 165/165/165 166/166/166
f 147/147/147 389/389/389 166/166/166
f 426/426/426 421/421/421 458/458/458
f 486/486/486 421/421/421 390/390/390
f 430/430/430 165/165/165 389/389/389
f 421/421/421 430/430/430 389/389/389
f 420/420/420 418/418/418 491/491/491
f 420/420/420 491/491/491 461/461/461
f 449/449/449 461/461/461 415/415/415
f 385/385/385 415/415/415 212/212/212
f 420/420/420 461/461/461 449/449/449
f 449/449/449 415/415/415 385/385/385
f 460/460/460 451/451/451 435/435/435
f 452/452/452 451/451/451 460/460/460
f 448/448/448 452/452/452 454/454/454
f 138/138/138 133/133/133 448/448/448
f 164/164/164 213/213/213 452/452/452
f 448/448/448 164/164/164 452/452/452
f 213/213/213 141/141/141 451/451/451
f 454/454/454 452/452/452 460/460/460
f 447/447/447 448/448/448 454/454/454
f 484/484/484 475/475/475 401/401/401
f 393/393/393 156/156/156 157/157/157
f 399/399/399 184/184/184 180/180/180
f 410/410/410 181/181/181 150/150/150
f 400/400/400 492/492/492 392/392/392
f 393/393/393 400/400/400 392/392/392
f 495/495/495 494/494/494 493/493/493
f 403/403/403 493/493/493 372/372/372
f 414/414/414 204/204/204 210/210/210
f 485/485/485 162/162/162 159/159/159
f 485/485/485 372/372/372 493/493/493
f 404/404/404 485/485/485 493/493/493
f 404/404/404 493/493/493 494/494/494
f 407/407/407 404/404/404 494/494/494
f 394/394/394 492/492/492 400/400/400
f 397/397/397 394/394/394 400/400/400
f 397/397/397 400/400/400 398/398/398
f 402/402/402 397/397/397 398/398/398
f 402/402/402 398/398/398 409/409/409
f 412/412/412 402/402/402 409/409/409
f 412/412/412 409/409/409 413/413/413
f 416/416/416 412/412/412 413/413/413
f 414/414/414 202/202/202 204/204/204
f 190/190/190 191/191/191 403/403/403
f 373/373/373 190/190/190 403/403/403
f 201/201/201 187/187/187 392/392/392
f 495/495/495 403/403/403 201/201/201
f 393/393/393 157/157/157 399/399/399
f 157/157/157 184/184/184 399/399/399
f 399/399/399 180/180/180 410/410/410
f 180/180/180 181/181/181 410/410/410
f 410/410/410 150/150/150 414/414/414
f 150/150/150 151/151/151 414/414/414
f 410/410/410 413/413/413 409/409/409
f 373/373/373 403/403/403 372/372/372
f 416/416/416 212/212/212 415/415/415
f 485/485/485 159/159/159 372/372/372
f 417/417/417 485/485/485 408/408/408
f 417/417/417 408/408/408 391/391/391
f 443/443/443 477/477/477 483/483/483
f 443/443/443 442/442/442 476/476/476
f 477/477/477 443/443/443 476/476/476
f 442/442/442 440/440/440 478/478/478
f 476/476/476 442/442/442 478/478/478
f 478/478/478 440/440/440 479/479/479
f 440/440/440 438/438/438 480/480/480
f 479/479/479 440/440/440 480/480/480
f 438/438/438 374/374/374 481/481/481
f 480/480/480 438/438/438 481/481/481
f 481/481/481 374/374/374 482/482/482
f 482/482/482 374/374/374 375/375/375
f 470/470/470 482/482/482 375/375/375
f 465/465/465 470/470/470 375/375/375
f 375/375/375 378/378/378 465/465/465
f 464/464/464 380/380/380 382/382/382
f 467/467/467 464/464/464 382/382/382
f 469/469/469 467/467/467 382/382/382
f 456/456/456 469/469/469 382/382/382
f 378/378/378 464/464/464 465/465/465
f 378/378/378 380/380/380 464/464/464
f 141/141/141 142/142/142 436/436/436
f 484/484/484 401/401/401 411/411/411
f 461/461/461 491/491/491 484/484/484
f 483/483/483 418/418/418 462/462/462
f 491/491/491 483/483/483 484/484/484
f 491/491/491 418/418/418 483/483/483
f 484/484/484 411/411/411 461/461/461
f 483/483/483 462/462/462 443/443/443
f 424/424/424 462/462/462 423/423/423
f 404/404/404 408/408/408 485/485/485
f 415/415/415 411/411/411 412/412/412
f 416/416/416 413/413/413 210/210/210
f 214/214/214 416/416/416 210/210/210
f 159/159/159 160/160/160 373/373/373
f 414/414/414 210/210/210 413/413/413
f 495/495/495 201/201/201 392/392/392
f 495/495/495 392/392/392 492/492/492
f 403/403/403 495/495/495 493/493/493
f 495/495/495 492/492/492 494/494/494
f 407/407/407 494/494/494 492/492/492
f 394/394/394 407/407/407 492/492/492
f 394/394/394 395/395/395 406/406/406
f 407/407/407 394/394/394 406/406/406
f 474/474/474 473/473/473 406/406/406
f 473/473/473 405/405/405 406/406/406
g cPK_10_000560_00_KAMEXex_RR_L_SB_2
f 498/498/498 497/497/497 496/496/496
f 501/501/501 500/500/500 499/499/499
f 504/504/504 503/503/503 502/502/502
f 507/507/507 506/506/506 505/505/505
f 510/510/510 509/509/509 508/508/508
f 512/512/512 510/510/510 511/511/511
f 513/513/513 510/510/510 512/512/512
f 514/514/514 510/510/510 513/513/513
f 517/517/517 516/516/516 515/515/515
f 518/518/518 517/517/517 515/515/515
f 521/521/521 520/520/520 519/519/519
f 523/523/523 522/522/522 510/510/510
f 522/522/522 509/509/509 510/510/510
f 510/510/510 514/514/514 517/517/517
f 514/514/514 516/516/516 517/517/517
f 511/511/511 510/510/510 524/524/524
f 510/510/510 525/525/525 524/524/524
f 510/510/510 526/526/526 525/525/525
f 508/508/508 526/526/526 510/510/510
f 527/527/527 505/505/505 506/506/506
f 530/530/530 529/529/529 528/528/528
f 530/530/530 531/531/531 529/529/529
f 530/530/530 532/532/532 531/531/531
f 533/533/533 532/532/532 530/530/530
f 534/534/534 498/498/498 496/496/496
f 518/518/518 515/515/515 507/507/507
f 505/505/505 518/518/518 507/507/507
f 527/527/527 536/536/536 535/535/535
f 504/504/504 502/502/502 511/511/511
f 504/504/504 524/524/524 525/525/525
f 535/535/535 536/536/536 531/531/531
f 532/532/532 535/535/535 531/531/531
f 533/533/533 520/520/520 535/535/535
f 532/532/532 533/533/533 535/535/535
f 537/537/537 519/519/519 520/520/520
f 533/533/533 537/537/537 520/520/520
f 538/538/538 509/509/509 522/522/522
f 539/539/539 538/538/538 522/522/522
f 539/539/539 522/522/522 519/519/519
f 537/537/537 539/539/539 519/519/519
f 540/540/540 508/508/508 509/509/509
f 538/538/538 540/540/540 509/509/509
f 541/541/541 526/526/526 508/508/508
f 540/540/540 541/541/541 508/508/508
f 542/542/542 525/525/525 526/526/526
f 541/541/541 542/542/542 526/526/526
f 543/543/543 504/504/504 542/542/542
f 546/546/546 545/545/545 544/544/544
f 543/543/543 546/546/546 544/544/544
f 549/549/549 548/548/548 547/547/547
f 550/550/550 549/549/549 547/547/547
f 501/501/501 499/499/499 551/551/551
f 552/552/552 501/501/501 551/551/551
f 552/552/552 551/551/551 548/548/548
f 549/549/549 552/552/552 548/548/548
f 550/550/550 547/547/547 545/545/545
f 546/546/546 550/550/550 545/545/545
f 543/543/543 553/553/553 503/503/503
f 504/504/504 543/543/543 503/503/503
f 543/543/543 544/544/544 553/553/553
f 554/554/554 546/546/546 543/543/543
f 555/555/555 550/550/550 554/554/554
f 556/556/556 549/549/549 555/555/555
f 556/556/556 538/538/538 539/539/539
f 530/530/530 501/501/501 552/552/552
f 557/557/557 536/536/536 498/498/498
f 529/529/529 531/531/531 536/536/536
f 557/557/557 529/529/529 536/536/536
f 557/557/557 528/528/528 529/529/529
f 528/528/528 557/557/557 498/498/498
f 534/534/534 500/500/500 528/528/528
f 534/534/534 528/528/528 498/498/498
f 504/504/504 511/511/511 524/524/524
f 500/500/500 530/530/530 528/528/528
f 500/500/500 501/501/501 530/530/530
f 552/552/552 539/539/539 530/530/530
f 539/539/539 537/537/537 530/530/530
f 537/537/537 533/533/533 530/530/530
f 517/517/517 518/518/518 521/521/521
f 523/523/523 517/517/517 521/521/521
f 518/518/518 505/505/505 527/527/527
f 521/521/521 518/518/518 527/527/527
f 520/520/520 521/521/521 535/535/535
f 521/521/521 527/527/527 535/535/535
f 522/522/522 523/523/523 519/519/519
f 523/523/523 521/521/521 519/519/519
f 523/523/523 510/510/510 517/517/517
f 536/536/536 527/527/527 498/498/498
f 527/527/527 506/506/506 498/498/498
f 554/554/554 543/543/543 542/542/542
f 554/554/554 541/541/541 540/540/540
f 555/555/555 554/554/554 540/540/540
f 555/555/555 540/540/540 538/538/538
f 552/552/552 556/556/556 539/539/539
f 552/552/552 549/549/549 556/556/556
f 554/554/554 542/542/542 541/541/541
f 550/550/550 546/546/546 554/554/554
f 549/549/549 550/550/550 555/555/555
f 555/555/555 538/538/538 556/556/556
f 504/504/504 525/525/525 542/542/542
g cPK_10_000560_00_KAMEXex_RR_L_SB_3
f 558/558/558 511/511/511 502/502/502
f 559/559/559 558/558/558 502/502/502
f 560/560/560 506/506/506 507/507/507
f 561/561/561 560/560/560 507/507/507
f 562/562/562 513/513/513 512/512/512
f 563/563/563 515/515/515 516/516/516
f 563/563/563 516/516/516 514/514/514
f 564/564/564 563/563/563 514/514/514
f 562/562/562 512/512/512 511/511/511
f 558/558/558 562/562/562 511/511/511
f 562/562/562 564/564/564 513/513/513
f 564/564/564 514/514/514 513/513/513
f 563/563/563 561/561/561 515/515/515
f 561/561/561 507/507/507 515/515/515
f 565/565/565 503/503/503 553/553/553
f 565/565/565 553/553/553 544/544/544
f 566/566/566 565/565/565 544/544/544
f 565/565/565 559/559/559 502/502/502
f 503/503/503 565/565/565 502/502/502
f 566/566/566 545/545/545 567/567/567
f 566/566/566 544/544/544 545/545/545
f 566/566/566 567/567/567 568/568/568
f 567/567/567 569/569/569 568/568/568
