g cPK_20_000960_00_PIKACHUex_SR_L_SB
v 0.3431969 0.21707137 -0.05
v 0.0747939 0.16593097 -0.05
v 0.16927592 0.09895077 -0.05
v 0.2978597 0.08094937 -0.05
v 0.1391777 0.048759375 -0.05
v 0.06514532 0.0061265794 -0.05
v 0.12347168 -0.010863826 -0.05
v 0.20731024 0.029680386 -0.05
v 0.08915048 -0.10180382 -0.05
v 0.10721828 -0.10120153 -0.05
v 0.10111699 -0.073374026 -0.05
v 0.099439286 -0.04310228 -0.05
v 0.07414999 -0.044868127 -0.05
v 0.11416719 -0.072692454 -0.05
v 0.15741739 -0.07043363 -0.05
v 0.06347736 0.20470615 -0.080000006
v 0.06780671 0.21250677 -0.080000006
v 0.02435394 0.233065 -0.080000006
v 0.07418709 0.22302678 -0.08
v 0.026195368 0.24086276 -0.080000006
v 0.028408898 0.25023624 -0.080000006
v 0.079424836 0.23225498 -0.080000006
v 0.030374235 0.25855875 -0.080000006
v 0.08264642 0.23890038 -0.080000006
v 0.08614274 0.24611247 -0.08
v 0.032518823 0.26764032 -0.080000006
v 0.08886253 0.2518722 -0.080000006
v 0.034959637 0.27797627 -0.080000006
v 0.09156874 0.2586002 -0.080000006
v 0.09460679 0.26611623 -0.080000006
v 0.037000656 0.28619552 -0.080000006
v 0.0977787 0.27453285 -0.080000006
v 0.039153237 0.29486397 -0.08
v 0.10010757 0.28134367 -0.080000006
v 0.041446965 0.3035037 -0.08
v 0.10323614 0.2932121 -0.08
v 0.043789934 0.31232888 -0.08
v 0.10538956 0.30279037 -0.08
v 0.045622896 0.3193446 -0.08
v 0.10721221 0.3129597 -0.080000006
v 0.048891254 0.33101648 -0.08
v 0.10827172 0.31924558 -0.080000006
v 0.052968044 0.34373012 -0.080000006
v 0.10999087 0.3297704 -0.08
v 0.056885537 0.3547029 -0.080000006
v 0.11078992 0.33506277 -0.08
v 0.11162354 0.3426168 -0.08
v 0.060021576 0.36194834 -0.08
v 0.11202399 0.34821278 -0.080000006
v 0.11246135 0.35929656 -0.080000006
v 0.06280463 0.3678195 -0.08
v 0.06530968 0.37250915 -0.080000006
v 0.11260295 0.3642611 -0.08
v 0.06952846 0.38001138 -0.080000006
v 0.11274207 0.3703494 -0.080000006
v 0.072492786 0.3848598 -0.080000006
v 0.11276298 0.37602207 -0.080000006
v 0.07615716 0.39045396 -0.080000006
v 0.112369455 0.38619164 -0.080000006
v 0.07891056 0.39465758 -0.080000006
v 0.08261071 0.40009138 -0.080000006
v 0.111917615 0.39405677 -0.080000006
v 0.0851227 0.4034996 -0.080000006
v 0.110149406 0.4037138 -0.080000006
v 0.0882968 0.4075252 -0.080000006
v 0.090411454 0.4101691 -0.080000006
v 0.10877587 0.40951067 -0.080000006
v 0.09329973 0.41368276 -0.080000006
v 0.10768654 0.41299948 -0.08
v 0.09614093 0.41699028 -0.08
v 0.10653736 0.41620025 -0.08
v 0.09801002 0.41904774 -0.08
v 0.105427824 0.41873375 -0.08
v 0.09974787 0.42039284 -0.08
v 0.10156955 0.42134115 -0.08
v 0.10430105 0.42058197 -0.08
v 0.10315503 0.42141256 -0.08
v -0.15909687 0.045822274 -0.080000006
v -0.15404637 0.033931874 -0.080000006
v 0.10029464 0.072534576 -0.080000006
v -0.14837937 0.024555271 -0.080000006
v 0.098386735 0.061667472 -0.080000006
v 0.09350414 0.050769974 -0.080000006
v 0.08938004 0.043421973 -0.080000006
v 0.11165374 -0.06856543 -0.080000006
v 0.09755652 0.002312407 -0.080000006
v -0.14254026 -0.06732883 -0.080000006
v -0.14402567 -0.062008496 -0.080000006
v -0.14654978 -0.052967634 -0.080000006
v -0.14773332 -0.047335144 -0.080000006
v -0.14986806 -0.03717593 -0.080000006
v -0.15095651 -0.028723622 -0.080000006
v -0.15213826 -0.019546831 -0.080000006
v -0.15198267 -0.011550222 -0.080000006
v -0.15183775 -0.004102832 -0.080000006
v -0.15110087 0.0073757707 -0.080000006
v -0.14932406 0.02067827 -0.080000006
v -0.011715669 -0.21578713 -0.080000006
v -0.011599666 -0.2156323 -0.080000006
v -0.021000216 -0.21298651 -0.080000006
v 0.11720023 -0.08388763 -0.080000006
v -0.14606667 -0.07377004 -0.080000006
v -0.15050726 -0.08453943 -0.080000006
v -0.15296324 -0.09121984 -0.080000006
v -0.15610306 -0.09976043 -0.080000006
v -0.16020218 -0.113552034 -0.080000006
v 0.122354485 -0.096834265 -0.080000006
v -0.16218427 -0.120878436 -0.08
v -0.16348258 -0.12904063 -0.08
v -0.16412997 -0.13849683 -0.08
v -0.16370848 -0.15073852 -0.08
v -0.16261287 -0.16191082 -0.08
v -0.16121116 -0.16935554 -0.08
v -0.15861785 -0.17892654 -0.08
v -0.15609618 -0.18478353 -0.080000006
v -0.15039396 -0.19400774 -0.080000006
v -0.14657167 -0.19855714 -0.08
v -0.14212196 -0.20282392 -0.08
v -0.13545306 -0.20684162 -0.080000006
v -0.12862305 -0.20953242 -0.080000006
v -0.07130877 -0.21505395 -0.080000006
v -0.06386902 -0.2124915 -0.080000006
v -0.057300784 -0.21097703 -0.080000006
v -0.05077367 -0.20968238 -0.080000006
v -0.041677464 -0.20891474 -0.080000006
v -0.03272977 -0.20990303 -0.080000006
v -0.002242567 -0.21832208 -0.080000006
v 0.0066512856 -0.22106853 -0.080000006
v 0.018218935 -0.22428213 -0.080000006
v 0.12647478 -0.107183866 -0.080000006
v 0.027379677 -0.22674532 -0.080000006
v 0.13060685 -0.11756293 -0.080000006
v 0.036376134 -0.22878806 -0.080000006
v 0.13391455 -0.12824722 -0.080000006
v 0.13624685 -0.13796294 -0.080000006
v 0.13695887 -0.15112184 -0.08
v 0.13628744 -0.16121204 -0.080000006
v 0.13414131 -0.17322193 -0.08
v 0.04764094 -0.23079894 -0.080000006
v 0.05872624 -0.23228984 -0.080000006
v 0.13200572 -0.1818205 -0.080000006
v 0.067985035 -0.23265949 -0.080000006
v 0.12974668 -0.18990897 -0.080000006
v 0.12443384 -0.20125122 -0.08
v 0.11714544 -0.21180983 -0.08
v 0.11051412 -0.21873644 -0.08
v 0.10450869 -0.22375043 -0.080000006
v -0.07060907 -0.21758924 -0.08
v -0.07115617 -0.22104493 -0.08
v -0.073226966 -0.22430554 -0.08
v -0.077298164 -0.22743993 -0.08
v -0.08593877 -0.23050223 -0.080000006
v -0.09619997 -0.23286192 -0.080000006
v -0.105959766 -0.23437224 -0.080000006
v -0.12392876 -0.23653543 -0.080000006
v -0.13921247 -0.21388912 -0.080000006
v -0.13576245 -0.23766553 -0.08
v -0.14786683 -0.21726418 -0.080000006
v -0.14531545 -0.23816924 -0.08
v -0.15809326 -0.22125232 -0.080000006
v -0.15435527 -0.23842643 -0.080000006
v -0.15640616 -0.23824982 -0.08
v -0.16352637 -0.22395514 -0.080000006
v -0.15812846 -0.23803373 -0.08
v -0.15995207 -0.23752163 -0.08
v -0.16079476 -0.23656432 -0.08
v -0.16092788 -0.23615971 -0.08
v -0.16636966 -0.22681855 -0.080000006
v -0.16693936 -0.22886653 -0.08
v -0.16698077 -0.23049365 -0.08
v -0.16646397 -0.23180054 -0.08
v -0.16493697 -0.23267554 -0.08
v -0.16242516 -0.23600662 -0.08
v -0.16360076 -0.23575154 -0.08
v -0.16464697 -0.23486333 -0.08
v -0.16512327 -0.23364614 -0.08
v 0.067447305 -0.23630603 -0.080000006
v 0.06868554 -0.24159732 -0.080000006
v 0.07385774 -0.24584703 -0.080000006
v 0.08111194 -0.25075945 -0.080000006
v 0.08502556 -0.25318462 -0.080000006
v 0.113096975 -0.23091774 -0.080000006
v 0.0898635 -0.25618252 -0.080000006
v 0.09288574 -0.25823644 -0.08
v 0.11970387 -0.23772483 -0.080000006
v 0.09562854 -0.25966445 -0.08
v 0.09893354 -0.26085234 -0.08
v 0.10167124 -0.26155353 -0.08
v 0.103892736 -0.26166773 -0.08
v 0.105884336 -0.2610683 -0.08
v 0.10668323 -0.25959453 -0.08
v 0.10669074 -0.25738212 -0.08
v 0.103892736 -0.26166773 -0.08
v 0.10669074 -0.25738212 -0.08
v 0.11970387 -0.23772483 -0.080000006
v 0.122703366 -0.24188963 -0.08
v 0.12498837 -0.24677394 -0.08
v 0.10807244 -0.25846964 -0.08
v 0.10979583 -0.25896272 -0.08
v 0.11260094 -0.25954154 -0.08
v 0.11494763 -0.25923413 -0.08
v 0.12465904 -0.25539634 -0.08
v 0.12588523 -0.25292155 -0.08
v 0.122928835 -0.25667435 -0.08
v 0.120996945 -0.25675532 -0.08
v 0.12585096 -0.25025642 -0.08
v 0.11932434 -0.25647703 -0.08
v 0.11741444 -0.25592074 -0.080000006
v 0.116407536 -0.25782874 -0.08
v 0.11494763 -0.25923413 -0.08
v 0.11741444 -0.25592074 -0.080000006
v 0.12498837 -0.24677394 -0.08
v -0.122236155 0.21703649 -0.080000006
v -0.12660837 0.21892424 -0.080000006
v -0.15373556 0.17658077 -0.080000006
v -0.13480507 0.22246328 -0.080000006
v -0.14069794 0.22489648 -0.080000006
v -0.14706628 0.22739856 -0.080000006
v -0.15976126 0.17604618 -0.080000006
v -0.15532906 0.23036277 -0.080000006
v -0.16611937 0.17589028 -0.080000006
v -0.17040081 0.1761156 -0.080000006
v -0.16309014 0.23304442 -0.080000006
v -0.17583477 0.17640157 -0.080000006
v -0.17130776 0.23566964 -0.08
v -0.18582027 0.17738388 -0.08
v -0.17818497 0.23770776 -0.08
v -0.19207501 0.17829183 -0.08
v -0.18540858 0.23965967 -0.08
v -0.19727698 0.17904697 -0.08
v -0.20387582 0.18014674 -0.08
v -0.1923381 0.24134259 -0.08
v -0.21002726 0.18117197 -0.08
v -0.19837487 0.24270086 -0.08
v -0.21636625 0.18275233 -0.080000006
v -0.20489636 0.2441212 -0.080000006
v -0.22166708 0.18407387 -0.080000006
v -0.21156275 0.24544787 -0.080000006
v -0.22840202 0.18609242 -0.080000006
v -0.22090255 0.24724172 -0.080000006
v -0.23512483 0.18810734 -0.080000006
v -0.24216619 0.19052845 -0.080000006
v -0.22875896 0.24852267 -0.08
v -0.25067386 0.19345377 -0.080000006
v -0.23720706 0.24989203 -0.08
v -0.25952837 0.19718657 -0.080000006
v -0.24337415 0.25067747 -0.08
v -0.25150937 0.25168693 -0.080000006
v -0.2654619 0.19968797 -0.08
v -0.2718285 0.20304398 -0.080000006
v -0.25836465 0.2524235 -0.080000006
v -0.2778456 0.20621577 -0.080000006
v -0.26454908 0.25292292 -0.080000006
v -0.28420946 0.21021235 -0.080000006
v -0.27031127 0.2530295 -0.08
v -0.2752737 0.25314218 -0.080000006
v -0.28963608 0.21362033 -0.080000006
v -0.28109837 0.25313058 -0.080000006
v -0.29424948 0.21651757 -0.080000006
v -0.2871209 0.25285304 -0.080000006
v -0.2980756 0.21939743 -0.080000006
v -0.29713616 0.25215238 -0.080000006
v -0.30120456 0.22175257 -0.08
v -0.30711135 0.22685598 -0.080000006
v -0.30880207 0.25064147 -0.080000006
v -0.31255788 0.23228836 -0.08
v -0.3162366 0.23701596 -0.080000006
v -0.31346518 0.24917988 -0.08
v -0.31780878 0.23889227 -0.08
v -0.31628466 0.24788438 -0.08
v -0.31918046 0.24117838 -0.08
v -0.31857085 0.24636026 -0.08
v -0.32001868 0.24315968 -0.08
v -0.31994247 0.24491239 -0.08
v 0.09902304 0.08977957 -0.080000006
v 0.09583544 0.10530978 -0.080000006
v 0.089660734 0.12920517 -0.080000006
v -0.16117227 0.05284517 -0.080000006
v -0.16179858 0.059984274 -0.080000006
v -0.16139507 0.07807557 -0.080000006
v -0.16104928 0.09757817 -0.080000006
v -0.16154397 0.119955376 -0.080000006
v 0.08529844 0.14883147 -0.08
v -0.16063826 0.14276777 -0.080000006
v 0.08100514 0.16646987 -0.08
v -0.15803187 0.16239567 -0.080000006
v 0.07565374 0.18282108 -0.08
v 0.06891434 0.19709107 -0.08
v 0.015911734 0.23625366 -0.080000006
v 0.0061395266 0.23896651 -0.080000006
v 0.00014303923 0.24041186 -0.080000006
v -0.012238228 0.24277584 -0.080000006
v -0.023493363 0.2440228 -0.080000006
v -0.03846801 0.24463199 -0.080000006
v -0.047647964 0.24421178 -0.080000006
v -0.064512275 0.24154632 -0.080000006
v -0.07530957 0.23872507 -0.080000006
v -0.09031911 0.23431392 -0.080000006
v -0.09836396 0.23111449 -0.080000006
v -0.10955894 0.22600129 -0.080000006
v -0.11536687 0.22231637 -0.080000006
v -0.15548776 0.17291968 -0.080000006
vt 0.049560547 0.8251953
vt 0.3544922 0.7651367
vt 0.24853516 0.69091797
vt 0.10107422 0.67041016
vt 0.28149414 0.63427734
vt 0.36547852 0.5854492
vt 0.2993164 0.56640625
vt 0.20593262 0.61279297
vt 0.3383789 0.46289062
vt 0.31762695 0.46362305
vt 0.32470703 0.49536133
vt 0.32666016 0.52978516
vt 0.3552246 0.52783203
vt 0.30981445 0.49609375
vt 0.2607422 0.49853516
vt 0.5209961 0.6411133
vt 0.5161133 0.64990234
vt 0.5654297 0.67333984
vt 0.50878906 0.6621094
vt 0.56347656 0.6821289
vt 0.56103516 0.6928711
vt 0.5029297 0.6723633
vt 0.55859375 0.7026367
vt 0.49926758 0.6801758
vt 0.49536133 0.68847656
vt 0.55615234 0.7128906
vt 0.49243164 0.6948242
vt 0.55371094 0.7246094
vt 0.4892578 0.7026367
vt 0.48583984 0.7109375
vt 0.55126953 0.7338867
vt 0.48217773 0.7207031
vt 0.5488281 0.74365234
vt 0.4794922 0.7285156
vt 0.5463867 0.75341797
vt 0.47607422 0.7416992
vt 0.54345703 0.7636719
vt 0.4736328 0.7529297
vt 0.5415039 0.7714844
vt 0.47143555 0.76416016
vt 0.53759766 0.78466797
vt 0.47021484 0.7714844
vt 0.5332031 0.7993164
vt 0.46826172 0.7832031
vt 0.5288086 0.81152344
vt 0.46728516 0.7895508
vt 0.46679688 0.79785156
vt 0.52490234 0.8198242
vt 0.46655273 0.8041992
vt 0.46606445 0.81689453
vt 0.52197266 0.82666016
vt 0.51904297 0.83203125
vt 0.46606445 0.8227539
vt 0.51464844 0.84033203
vt 0.46606445 0.82958984
vt 0.51123047 0.8461914
vt 0.46606445 0.8359375
vt 0.5073242 0.85253906
vt 0.46655273 0.84765625
vt 0.50439453 0.8569336
vt 0.5 0.86328125
vt 0.46728516 0.8564453
vt 0.49731445 0.8671875
vt 0.46899414 0.8671875
vt 0.49365234 0.87158203
vt 0.49145508 0.875
vt 0.47045898 0.87402344
vt 0.48828125 0.87890625
vt 0.47192383 0.8779297
vt 0.48510742 0.8823242
vt 0.47338867 0.88134766
vt 0.48291016 0.88427734
vt 0.47485352 0.88378906
vt 0.48095703 0.8852539
vt 0.4790039 0.88623047
vt 0.47607422 0.8852539
vt 0.47729492 0.88623047
vt 0.7739258 0.46069336
vt 0.7685547 0.44726562
vt 0.47924805 0.4909668
vt 0.76171875 0.43652344
vt 0.4814453 0.47875977
vt 0.48706055 0.4663086
vt 0.49169922 0.4580078
vt 0.4663086 0.33081055
vt 0.48242188 0.41137695
vt 0.7553711 0.33203125
vt 0.75683594 0.33813477
vt 0.7597656 0.34838867
vt 0.76123047 0.35498047
vt 0.7636719 0.36645508
vt 0.76464844 0.37597656
vt 0.7661133 0.3864746
vt 0.7661133 0.3955078
vt 0.765625 0.40405273
vt 0.7651367 0.4169922
vt 0.7631836 0.4321289
vt 0.6064453 0.16345215
vt 0.6064453 0.16357422
vt 0.6171875 0.16662598
vt 0.46020508 0.31323242
vt 0.75927734 0.32495117
vt 0.76416016 0.3125
vt 0.76708984 0.30493164
vt 0.7705078 0.29541016
vt 0.7753906 0.27954102
vt 0.4543457 0.29858398
vt 0.77783203 0.27124023
vt 0.7792969 0.2619629
vt 0.77978516 0.2512207
vt 0.7792969 0.23742676
vt 0.7783203 0.22473145
vt 0.7763672 0.21618652
vt 0.7734375 0.20532227
vt 0.7705078 0.19873047
vt 0.76416016 0.18823242
vt 0.7597656 0.1829834
vt 0.7548828 0.17822266
vt 0.7470703 0.17358398
vt 0.7392578 0.17053223
vt 0.6743164 0.16430664
vt 0.6660156 0.16723633
vt 0.6582031 0.16894531
vt 0.6508789 0.17041016
vt 0.640625 0.17126465
vt 0.6303711 0.17016602
vt 0.5957031 0.16052246
vt 0.5859375 0.1574707
vt 0.5727539 0.1538086
vt 0.4494629 0.28686523
vt 0.5620117 0.15100098
vt 0.44482422 0.27514648
vt 0.5517578 0.14868164
vt 0.4411621 0.26293945
vt 0.43847656 0.25195312
vt 0.43774414 0.23693848
vt 0.43847656 0.22546387
vt 0.44091797 0.21179199
vt 0.5390625 0.1463623
vt 0.5263672 0.14465332
vt 0.44335938 0.20202637
vt 0.5161133 0.14428711
vt 0.44580078 0.1928711
vt 0.4519043 0.17993164
vt 0.46020508 0.16796875
vt 0.46850586 0.16015625
vt 0.4765625 0.15441895
vt 0.67333984 0.16137695
vt 0.6743164 0.1574707
vt 0.67626953 0.1538086
vt 0.68115234 0.15014648
vt 0.69091797 0.14672852
vt 0.7026367 0.14404297
vt 0.7138672 0.14233398
vt 0.7338867 0.13989258
vt 0.75146484 0.16564941
vt 0.7475586 0.1385498
vt 0.76123047 0.16174316
vt 0.7583008 0.13806152
vt 0.7729492 0.15722656
vt 0.7685547 0.13769531
vt 0.7709961 0.13793945
vt 0.7792969 0.1541748
vt 0.7729492 0.1381836
vt 0.77490234 0.13879395
vt 0.7758789 0.13989258
vt 0.7763672 0.14025879
vt 0.78222656 0.1508789
vt 0.7832031 0.14855957
vt 0.7832031 0.14672852
vt 0.78222656 0.14526367
vt 0.7807617 0.14428711
vt 0.77783203 0.14050293
vt 0.7792969 0.14074707
vt 0.78027344 0.14172363
vt 0.7807617 0.14318848
vt 0.51660156 0.14013672
vt 0.5151367 0.13415527
vt 0.50927734 0.12927246
vt 0.50097656 0.12371826
vt 0.49658203 0.12097168
vt 0.4663086 0.14624023
vt 0.49121094 0.11755371
vt 0.48779297 0.115234375
vt 0.45825195 0.1385498
vt 0.48461914 0.113586426
vt 0.48095703 0.11224365
vt 0.4777832 0.111450195
vt 0.4753418 0.111328125
vt 0.4729004 0.11199951
vt 0.47216797 0.11364746
vt 0.47216797 0.11621094
vt 0.4753418 0.111328125
vt 0.47216797 0.11621094
vt 0.45825195 0.1385498
vt 0.45483398 0.13378906
vt 0.45239258 0.1282959
vt 0.47045898 0.1149292
vt 0.46850586 0.11437988
vt 0.46533203 0.113708496
vt 0.46264648 0.11407471
vt 0.45166016 0.1184082
vt 0.45117188 0.121276855
vt 0.45361328 0.117004395
vt 0.45581055 0.116882324
vt 0.45141602 0.12426758
vt 0.45776367 0.1171875
vt 0.45996094 0.11785889
vt 0.4609375 0.11566162
vt 0.46264648 0.11407471
vt 0.45996094 0.11785889
vt 0.45239258 0.1282959
vt 0.7324219 0.65527344
vt 0.7373047 0.65722656
vt 0.7680664 0.609375
vt 0.74658203 0.6616211
vt 0.75341797 0.6640625
vt 0.7602539 0.6669922
vt 0.77490234 0.6088867
vt 0.77001953 0.67041016
vt 0.78222656 0.60839844
vt 0.7871094 0.6088867
vt 0.7788086 0.67333984
vt 0.79296875 0.6088867
vt 0.78808594 0.67626953
vt 0.8046875 0.61035156
vt 0.79589844 0.67871094
vt 0.81152344 0.6113281
vt 0.8041992 0.68115234
vt 0.8173828 0.6123047
vt 0.8251953 0.61328125
vt 0.8120117 0.68310547
vt 0.83203125 0.6147461
vt 0.81884766 0.6845703
vt 0.83935547 0.61621094
vt 0.8261719 0.68603516
vt 0.84521484 0.6176758
vt 0.8334961 0.6875
vt 0.85302734 0.6201172
vt 0.8442383 0.6894531
vt 0.86035156 0.6225586
vt 0.86865234 0.625
vt 0.85302734 0.69091797
vt 0.8779297 0.62841797
vt 0.86279297 0.6928711
vt 0.8881836 0.6328125
vt 0.8696289 0.6933594
vt 0.87890625 0.6948242
vt 0.89501953 0.6357422
vt 0.90234375 0.63916016
vt 0.88671875 0.6953125
vt 0.9091797 0.6430664
vt 0.89404297 0.69628906
vt 0.9160156 0.64746094
vt 0.9003906 0.69628906
vt 0.90625 0.69628906
vt 0.9223633 0.6513672
vt 0.91259766 0.69628906
vt 0.9277344 0.65478516
vt 0.9194336 0.6958008
vt 0.9321289 0.6582031
vt 0.93115234 0.6953125
vt 0.9355469 0.66064453
vt 0.9423828 0.6665039
vt 0.94433594 0.6933594
vt 0.9482422 0.67285156
vt 0.9526367 0.67822266
vt 0.94970703 0.69189453
vt 0.95458984 0.6801758
vt 0.9526367 0.6904297
vt 0.9560547 0.6826172
vt 0.9550781 0.68847656
vt 0.95703125 0.6850586
vt 0.95703125 0.6870117
vt 0.4807129 0.5107422
vt 0.484375 0.5283203
vt 0.49145508 0.55566406
vt 0.7763672 0.46875
vt 0.77734375 0.47680664
vt 0.77685547 0.49731445
vt 0.7763672 0.51953125
vt 0.77685547 0.5449219
vt 0.4963379 0.5776367
vt 0.7758789 0.5708008
vt 0.50146484 0.59765625
vt 0.7729492 0.5932617
vt 0.5073242 0.61621094
vt 0.5151367 0.6328125
vt 0.5751953 0.6772461
vt 0.5864258 0.6801758
vt 0.5932617 0.6816406
vt 0.6074219 0.6845703
vt 0.6201172 0.68603516
vt 0.63720703 0.68652344
vt 0.64746094 0.68603516
vt 0.6665039 0.68310547
vt 0.67871094 0.6801758
vt 0.6958008 0.6748047
vt 0.7050781 0.6713867
vt 0.71777344 0.66552734
vt 0.7246094 0.6611328
vt 0.77001953 0.60498047
vn -0 0 -1
vn -0 0 -1
vn -0 0 -1
vn -0 0 -1
vn -0 0 -1
vn -0 0 -1
vn -0 0 -1
vn -0 0 -1
vn -0 0 -1
vn -0 0 -1
vn -0 0 -1
vn -0 0 -1
vn -0 0 -1
vn -0 0 -1
vn -0 0 -1
vn -0 0 -1
vn -0 0 -1
vn -0 0 -1
vn -0 0 -1
vn -0 0 -1
vn -0 0 -1
vn -0 0 -1
vn -0 0 -1
vn -0 0 -1
vn -0 0 -1
vn -0 0 -1
vn -0 0 -1
vn -0 0 -1
vn -0 0 -1
vn -0 0 -1
vn -0 0 -1
vn -0 0 -1
vn -0 0 -1
vn -0 0 -1
vn -0 0 -1
vn -0 0 -1
vn -0 0 -1
vn -0 0 -1
vn -0 0 -1
vn -0 0 -1
vn -0 0 -1
vn -0 0 -1
vn -0 0 -1
vn -0 0 -1
vn -0 0 -1
vn -0 0 -1
vn -0 0 -1
vn -0 0 -1
vn -0 0 -1
vn -0 0 -1
vn -0 0 -1
vn -0 0 -1
vn -0 0 -1
vn -0 0 -1
vn -0 0 -1
vn -0 0 -1
vn -0 0 -1
vn -0 0 -1
vn -0 0 -1
vn -0 0 -1
vn -0 0 -1
vn -0 0 -1
vn -0 0 -1
vn -0 0 -1
vn -0 0 -1
vn -0 0 -1
vn -0 0 -1
vn -0 0 -1
vn 1.1920929E-06 3.0398369E-06 -1
vn -0 2.4437904E-06 -1
vn -0 0 -1
vn -0 0 -1
vn -0 0 -1
vn -0 0 -1
vn 5.543232E-06 0 -1
vn -6.854534E-06 0 -1
vn -0 0 -1
vn -0 0 -1
vn -0 0 -1
vn -0 0 -1
vn -0 0 -1
vn -0 0 -1
vn -0 0 -1
vn -0 0 -1
vn -0 0 -1
vn -0 0 -1
vn -0 0 -1
vn -0 0 -1
vn -0 0 -1
vn -0 0 -1
vn -0 0 -1
vn -0 0 -1
vn -0 0 -1
vn -0 0 -1
vn -0 0 -1
vn -0 0 -1
vn -0 0 -1
vn -1.4543533E-05 0 -1
vn -0 0 -1
vn -0 0 -1
vn -0 0 -1
vn -0 0 -1
vn -0 0 -1
vn -0 0 -1
vn -0 0 -1
vn -0 0 -1
vn -0 0 -1
vn -0 0 -1
vn -0 0 -1
vn -0 0 -1
vn -0 0 -1
vn -0 0 -1
vn -0 0 -1
vn -0 0 -1
vn -0 0 -1
vn -0 0 -1
vn -0 -1.3113022E-06 -1
vn -0 0 -1
vn -0 1.3709068E-06 -1
vn -0 0 -1
vn -0 0 -1
vn -1.2516975E-06 0 -1
vn -0 0 -1
vn -0 0 -1
vn -0 0 -1
vn -0 0 -1
vn -0 0 -1
vn -0 0 -1
vn -0 0 -1
vn -0 0 -1
vn -0 0 -1
vn -0 0 -1
vn -0 0 -1
vn -0 0 -1
vn -0 0 -1
vn -0 0 -1
vn -0 0 -1
vn -0 0 -1
vn -0 0 -1
vn -0 0 -1
vn -0 0 -1
vn -0 0 -1
vn -0 0 -1
vn 1.1324883E-06 -1.3709068E-06 -1
vn -0 0 -1
vn 1.3113022E-06 0 -1
vn -0 1.0728836E-06 -1
vn -0 -1.66893E-06 -1
vn -0 0 -1
vn -0 0 -1
vn -0 0 -1
vn -0 1.2516975E-06 -1
vn -0 0 -1
vn -0 0 -1
vn -0 0 -1
vn -0 0 -1
vn -0 0 -1
vn -0 0 -1
vn -0 0 -1
vn -0 0 -1
vn -0 0 -1
vn -0 -1.013279E-06 -1
vn -0 0 -1
vn -2.026558E-06 0 -1
vn -6.020069E-06 0 -1
vn -0 -1.2516975E-06 -1
vn -0 -1.2516975E-06 -1
vn -0 -1.3113022E-06 -1
vn -0 -3.6358833E-06 -1
vn -0 0 -1
vn 6.020069E-06 0 -1
vn -1.3947487E-05 0 -1
vn -0 0 -1
vn -0 0 -1
vn -0 0 -1
vn -0 0 -1
vn -0 0 -1
vn -0 0 -1
vn -0 0 -1
vn -0 0 -1
vn -0 0 -1
vn -0 0 -1
vn 1.1324883E-06 0 -1
vn 1.9073486E-06 -1.1920929E-06 -1
vn -0 0 -1
vn -1.0728836E-06 0 -1
vn -1.7285347E-06 0 -1
vn -0 0 -1
vn -0 0 -1
vn 7.56979E-06 0 -1
vn 6.1392784E-06 0 -1
vn 2.5629997E-06 -1.3709068E-06 -1
vn -0 0 -1
vn 2.5629997E-06 -1.3709068E-06 -1
vn -0 0 -1
vn 1.6093254E-06 0 -1
vn -0 0 -1
vn -0 0 -1
vn -0 0 -1
vn -0 0 -1
vn -2.0861626E-06 0 -1
vn 1.0192394E-05 0 -1
vn -0 0 -1
vn -3.9339066E-06 0 -1
vn -0 0 -1
vn 4.351139E-06 0 -1
vn 7.0929527E-06 -3.1590462E-06 -1
vn -2.0503998E-05 1.1086464E-05 -1
vn 1.3589859E-05 -1.2695789E-05 -1
vn -2.0861626E-06 0 -1
vn -2.0503998E-05 1.1086464E-05 -1
vn -0 0 -1
vn -0 0 -1
vn -0 0 -1
vn -0 0 -1
vn -0 0 -1
vn -0 0 -1
vn -0 0 -1
vn -0 0 -1
vn -0 0 -1
vn -0 0 -1
vn 1.0728836E-06 0 -1
vn -1.4901161E-06 0 -1
vn -0 0 -1
vn -1.0728836E-06 0 -1
vn -0 0 -1
vn -0 0 -1
vn -0 0 -1
vn -0 0 -1
vn -0 0 -1
vn -0 0 -1
vn -0 0 -1
vn -0 0 -1
vn -0 0 -1
vn -0 0 -1
vn -0 0 -1
vn 1.4901161E-06 0 -1
vn -0 0 -1
vn 1.2516975E-06 0 -1
vn -0 0 -1
vn -0 0 -1
vn -0 0 -1
vn -0 0 -1
vn -0 0 -1
vn -0 0 -1
vn -1.1324883E-06 0 -1
vn 1.0728836E-06 0 -1
vn 1.847744E-06 0 -1
vn -0 0 -1
vn -0 0 -1
vn 1.66893E-06 0 -1
vn -0 0 -1
vn -0 0 -1
vn -0 0 -1
vn -0 0 -1
vn 1.3113022E-06 0 -1
vn -0 0 -1
vn 1.013279E-06 0 -1
vn -0 0 -1
vn -0 0 -1
vn -1.0728836E-06 0 -1
vn -0 0 -1
vn -1.5497208E-06 0 -1
vn 1.4901161E-06 0 -1
vn -0 0 -1
vn -1.9073486E-06 0 -1
vn -0 0 -1
vn -2.861023E-06 1.4901161E-06 -1
vn -0 1.6093254E-06 -1
vn -1.3113022E-06 0 -1
vn -0 0 -1
vn -0 0 -1
vn -0 0 -1
vn -0 0 -1
vn -0 0 -1
vn -0 0 -1
vn -0 0 -1
vn -0 0 -1
vn -0 0 -1
vn -0 0 -1
vn -0 0 -1
vn -0 0 -1
vn -0 0 -1
vn -0 0 -1
vn -0 0 -1
vn -0 0 -1
vn -0 0 -1
vn -0 0 -1
vn -0 0 -1
vn -0 0 -1
vn -0 0 -1
vn -0 0 -1
vn -0 0 -1
vn -0 0 -1
vn -0 0 -1
vn -0 0 -1
vn -0 0 -1
vn -0 0 -1
vn -0 0 -1
vn -0 0 -1
vn 2.3841858E-06 0 -1
vn -8.165836E-06 0 -1
g cPK_20_000960_00_PIKACHUex_SR_L_SB_0
f 3/3/3 2/2/2 1/1/1
f 4/4/4 3/3/3 1/1/1
g cPK_20_000960_00_PIKACHUex_SR_L_SB_1
f 7/7/7 6/6/6 5/5/5
f 8/8/8 7/7/7 5/5/5
f 8/8/8 5/5/5 2/2/2
f 3/3/3 8/8/8 2/2/2
f 11/11/11 10/10/10 9/9/9
f 9/9/9 12/12/12 11/11/11
f 9/9/9 13/13/13 12/12/12
f 12/12/12 15/15/15 14/14/14
f 14/14/14 11/11/11 12/12/12
f 15/15/15 12/12/12 6/6/6
f 7/7/7 15/15/15 6/6/6
f 18/18/18 17/17/17 16/16/16
f 18/18/18 19/19/19 17/17/17
f 20/20/20 19/19/19 18/18/18
f 21/21/21 19/19/19 20/20/20
f 21/21/21 22/22/22 19/19/19
f 23/23/23 22/22/22 21/21/21
f 23/23/23 24/24/24 22/22/22
f 23/23/23 25/25/25 24/24/24
f 26/26/26 25/25/25 23/23/23
f 26/26/26 27/27/27 25/25/25
f 28/28/28 27/27/27 26/26/26
f 28/28/28 29/29/29 27/27/27
f 28/28/28 30/30/30 29/29/29
f 31/31/31 30/30/30 28/28/28
f 31/31/31 32/32/32 30/30/30
f 33/33/33 32/32/32 31/31/31
f 33/33/33 34/34/34 32/32/32
f 35/35/35 34/34/34 33/33/33
f 35/35/35 36/36/36 34/34/34
f 37/37/37 36/36/36 35/35/35
f 37/37/37 38/38/38 36/36/36
f 39/39/39 38/38/38 37/37/37
f 39/39/39 40/40/40 38/38/38
f 41/41/41 40/40/40 39/39/39
f 41/41/41 42/42/42 40/40/40
f 43/43/43 42/42/42 41/41/41
f 43/43/43 44/44/44 42/42/42
f 45/45/45 44/44/44 43/43/43
f 45/45/45 46/46/46 44/44/44
f 45/45/45 47/47/47 46/46/46
f 48/48/48 47/47/47 45/45/45
f 48/48/48 49/49/49 47/47/47
f 48/48/48 50/50/50 49/49/49
f 51/51/51 50/50/50 48/48/48
f 52/52/52 50/50/50 51/51/51
f 52/52/52 53/53/53 50/50/50
f 54/54/54 53/53/53 52/52/52
f 54/54/54 55/55/55 53/53/53
f 56/56/56 55/55/55 54/54/54
f 56/56/56 57/57/57 55/55/55
f 58/58/58 57/57/57 56/56/56
f 58/58/58 59/59/59 57/57/57
f 60/60/60 59/59/59 58/58/58
f 61/61/61 59/59/59 60/60/60
f 61/61/61 62/62/62 59/59/59
f 63/63/63 62/62/62 61/61/61
f 63/63/63 64/64/64 62/62/62
f 65/65/65 64/64/64 63/63/63
f 66/66/66 64/64/64 65/65/65
f 66/66/66 67/67/67 64/64/64
f 68/68/68 67/67/67 66/66/66
f 68/68/68 69/69/69 67/67/67
f 70/70/70 69/69/69 68/68/68
f 70/70/70 71/71/71 69/69/69
f 72/72/72 71/71/71 70/70/70
f 72/72/72 73/73/73 71/71/71
f 74/74/74 73/73/73 72/72/72
f 75/75/75 73/73/73 74/74/74
f 75/75/75 76/76/76 73/73/73
f 77/77/77 76/76/76 75/75/75
f 80/80/80 79/79/79 78/78/78
f 80/80/80 81/81/81 79/79/79
f 82/82/82 81/81/81 80/80/80
f 83/83/83 81/81/81 82/82/82
f 84/84/84 81/81/81 83/83/83
f 87/87/87 86/86/86 85/85/85
f 88/88/88 86/86/86 87/87/87
f 89/89/89 86/86/86 88/88/88
f 90/90/90 86/86/86 89/89/89
f 91/91/91 86/86/86 90/90/90
f 91/91/91 84/84/84 86/86/86
f 92/92/92 84/84/84 91/91/91
f 93/93/93 84/84/84 92/92/92
f 94/94/94 84/84/84 93/93/93
f 95/95/95 84/84/84 94/94/94
f 96/96/96 84/84/84 95/95/95
f 84/84/84 97/97/97 81/81/81
f 97/97/97 84/84/84 96/96/96
f 100/100/100 99/99/99 98/98/98
f 101/101/101 87/87/87 85/85/85
f 101/101/101 102/102/102 87/87/87
f 101/101/101 103/103/103 102/102/102
f 101/101/101 104/104/104 103/103/103
f 101/101/101 105/105/105 104/104/104
f 101/101/101 106/106/106 105/105/105
f 107/107/107 106/106/106 101/101/101
f 107/107/107 108/108/108 106/106/106
f 107/107/107 109/109/109 108/108/108
f 107/107/107 110/110/110 109/109/109
f 107/107/107 111/111/111 110/110/110
f 107/107/107 112/112/112 111/111/111
f 107/107/107 113/113/113 112/112/112
f 107/107/107 114/114/114 113/113/113
f 107/107/107 115/115/115 114/114/114
f 107/107/107 116/116/116 115/115/115
f 107/107/107 117/117/117 116/116/116
f 107/107/107 118/118/118 117/117/117
f 107/107/107 119/119/119 118/118/118
f 107/107/107 120/120/120 119/119/119
f 107/107/107 121/121/121 120/120/120
f 107/107/107 122/122/122 121/121/121
f 107/107/107 123/123/123 122/122/122
f 107/107/107 124/124/124 123/123/123
f 107/107/107 125/125/125 124/124/124
f 107/107/107 126/126/126 125/125/125
f 107/107/107 100/100/100 126/126/126
f 107/107/107 99/99/99 100/100/100
f 107/107/107 127/127/127 99/99/99
f 107/107/107 128/128/128 127/127/127
f 107/107/107 129/129/129 128/128/128
f 130/130/130 129/129/129 107/107/107
f 130/130/130 131/131/131 129/129/129
f 132/132/132 131/131/131 130/130/130
f 132/132/132 133/133/133 131/131/131
f 134/134/134 133/133/133 132/132/132
f 135/135/135 133/133/133 134/134/134
f 136/136/136 133/133/133 135/135/135
f 137/137/137 133/133/133 136/136/136
f 138/138/138 133/133/133 137/137/137
f 138/138/138 139/139/139 133/133/133
f 138/138/138 140/140/140 139/139/139
f 141/141/141 140/140/140 138/138/138
f 141/141/141 142/142/142 140/140/140
f 143/143/143 142/142/142 141/141/141
f 144/144/144 142/142/142 143/143/143
f 145/145/145 142/142/142 144/144/144
f 146/146/146 142/142/142 145/145/145
f 147/147/147 142/142/142 146/146/146
f 148/148/148 120/120/120 121/121/121
f 149/149/149 120/120/120 148/148/148
f 150/150/150 120/120/120 149/149/149
f 151/151/151 120/120/120 150/150/150
f 152/152/152 120/120/120 151/151/151
f 153/153/153 120/120/120 152/152/152
f 154/154/154 120/120/120 153/153/153
f 155/155/155 120/120/120 154/154/154
f 155/155/155 156/156/156 120/120/120
f 157/157/157 156/156/156 155/155/155
f 157/157/157 158/158/158 156/156/156
f 159/159/159 158/158/158 157/157/157
f 159/159/159 160/160/160 158/158/158
f 161/161/161 160/160/160 159/159/159
f 162/162/162 160/160/160 161/161/161
f 162/162/162 163/163/163 160/160/160
f 164/164/164 163/163/163 162/162/162
f 165/165/165 163/163/163 164/164/164
f 166/166/166 163/163/163 165/165/165
f 167/167/167 163/163/163 166/166/166
f 167/167/167 168/168/168 163/163/163
f 167/167/167 169/169/169 168/168/168
f 167/167/167 170/170/170 169/169/169
f 170/170/170 172/172/172 171/171/171
f 167/167/167 172/172/172 170/170/170
f 173/173/173 172/172/172 167/167/167
f 174/174/174 172/172/172 173/173/173
f 175/175/175 172/172/172 174/174/174
f 176/176/176 172/172/172 175/175/175
f 147/147/147 177/177/177 142/142/142
f 147/147/147 178/178/178 177/177/177
f 147/147/147 179/179/179 178/178/178
f 147/147/147 180/180/180 179/179/179
f 147/147/147 181/181/181 180/180/180
f 182/182/182 181/181/181 147/147/147
f 182/182/182 183/183/183 181/181/181
f 182/182/182 184/184/184 183/183/183
f 185/185/185 184/184/184 182/182/182
f 185/185/185 186/186/186 184/184/184
f 185/185/185 187/187/187 186/186/186
f 185/185/185 188/188/188 187/187/187
f 185/185/185 189/189/189 188/188/188
f 189/189/189 191/191/191 190/190/190
f 189/189/189 192/192/192 191/191/191
f 195/195/195 194/194/194 193/193/193
f 196/196/196 192/192/192 185/185/185
f 197/197/197 192/192/192 196/196/196
f 197/197/197 198/198/198 192/192/192
f 197/197/197 199/199/199 198/198/198
f 197/197/197 200/200/200 199/199/199
f 197/197/197 201/201/201 200/200/200
f 204/204/204 203/203/203 202/202/202
f 205/205/205 203/203/203 204/204/204
f 205/205/205 206/206/206 203/203/203
f 207/207/207 206/206/206 205/205/205
f 208/208/208 206/206/206 207/207/207
f 201/201/201 208/208/208 209/209/209
f 212/212/212 211/211/211 210/210/210
f 206/206/206 208/208/208 197/197/197
f 215/215/215 214/214/214 213/213/213
f 215/215/215 216/216/216 214/214/214
f 215/215/215 217/217/217 216/216/216
f 215/215/215 218/218/218 217/217/217
f 219/219/219 218/218/218 215/215/215
f 219/219/219 220/220/220 218/218/218
f 221/221/221 220/220/220 219/219/219
f 222/222/222 220/220/220 221/221/221
f 222/222/222 223/223/223 220/220/220
f 224/224/224 223/223/223 222/222/222
f 224/224/224 225/225/225 223/223/223
f 226/226/226 225/225/225 224/224/224
f 226/226/226 227/227/227 225/225/225
f 228/228/228 227/227/227 226/226/226
f 228/228/228 229/229/229 227/227/227
f 230/230/230 229/229/229 228/228/228
f 231/231/231 229/229/229 230/230/230
f 231/231/231 232/232/232 229/229/229
f 233/233/233 232/232/232 231/231/231
f 233/233/233 234/234/234 232/232/232
f 235/235/235 234/234/234 233/233/233
f 235/235/235 236/236/236 234/234/234
f 237/237/237 236/236/236 235/235/235
f 237/237/237 238/238/238 236/236/236
f 239/239/239 238/238/238 237/237/237
f 239/239/239 240/240/240 238/238/238
f 241/241/241 240/240/240 239/239/239
f 242/242/242 240/240/240 241/241/241
f 242/242/242 243/243/243 240/240/240
f 244/244/244 243/243/243 242/242/242
f 244/244/244 245/245/245 243/243/243
f 246/246/246 245/245/245 244/244/244
f 246/246/246 247/247/247 245/245/245
f 246/246/246 248/248/248 247/247/247
f 249/249/249 248/248/248 246/246/246
f 250/250/250 248/248/248 249/249/249
f 250/250/250 251/251/251 248/248/248
f 252/252/252 251/251/251 250/250/250
f 252/252/252 253/253/253 251/251/251
f 254/254/254 253/253/253 252/252/252
f 254/254/254 255/255/255 253/253/253
f 254/254/254 256/256/256 255/255/255
f 257/257/257 256/256/256 254/254/254
f 257/257/257 258/258/258 256/256/256
f 259/259/259 258/258/258 257/257/257
f 259/259/259 260/260/260 258/258/258
f 261/261/261 260/260/260 259/259/259
f 261/261/261 262/262/262 260/260/260
f 263/263/263 262/262/262 261/261/261
f 264/264/264 262/262/262 263/263/263
f 264/264/264 265/265/265 262/262/262
f 266/266/266 265/265/265 264/264/264
f 267/267/267 265/265/265 266/266/266
f 267/267/267 268/268/268 265/265/265
f 269/269/269 268/268/268 267/267/267
f 269/269/269 270/270/270 268/268/268
f 271/271/271 270/270/270 269/269/269
f 271/271/271 272/272/272 270/270/270
f 273/273/273 272/272/272 271/271/271
f 274/274/274 272/272/272 273/273/273
f 78/78/78 275/275/275 80/80/80
f 78/78/78 276/276/276 275/275/275
f 78/78/78 277/277/277 276/276/276
f 278/278/278 277/277/277 78/78/78
f 279/279/279 277/277/277 278/278/278
f 280/280/280 277/277/277 279/279/279
f 281/281/281 277/277/277 280/280/280
f 282/282/282 277/277/277 281/281/281
f 282/282/282 283/283/283 277/277/277
f 284/284/284 283/283/283 282/282/282
f 284/284/284 285/285/285 283/283/283
f 286/286/286 285/285/285 284/284/284
f 286/286/286 287/287/287 285/285/285
f 286/286/286 288/288/288 287/287/287
f 286/286/286 16/16/16 288/288/288
f 286/286/286 18/18/18 16/16/16
f 286/286/286 289/289/289 18/18/18
f 286/286/286 290/290/290 289/289/289
f 286/286/286 291/291/291 290/290/290
f 286/286/286 292/292/292 291/291/291
f 286/286/286 293/293/293 292/292/292
f 286/286/286 294/294/294 293/293/293
f 286/286/286 295/295/295 294/294/294
f 286/286/286 296/296/296 295/295/295
f 286/286/286 297/297/297 296/296/296
f 286/286/286 298/298/298 297/297/297
f 286/286/286 299/299/299 298/298/298
f 286/286/286 300/300/300 299/299/299
f 286/286/286 301/301/301 300/300/300
f 286/286/286 213/213/213 301/301/301
f 286/286/286 215/215/215 213/213/213
f 286/286/286 302/302/302 215/215/215
