g cPK_20_000230_00_NASSYex_SR_L_SB
v 0.12724836 -0.26806912 -0.09199802
v 0.13958414 -0.2559362 -0.09199802
v 0.11311696 -0.2729775 -0.09199802
v 0.10478854 -0.27364013 -0.09199802
v 0.09724245 -0.27188092 -0.09199802
v 0.09189134 -0.2673147 -0.09199802
v 0.084327154 -0.26174664 -0.09199802
v 0.15026318 -0.23995891 -0.09199802
v 0.15805006 -0.22228451 -0.09199802
v 0.077312045 -0.25851744 -0.09199802
v 0.16205254 -0.2036684 -0.09199802
v 0.15993643 -0.1837805 -0.09199802
v 0.15262885 -0.1665263 -0.09199802
v 0.14063354 -0.15099171 -0.09199802
v 0.12720466 -0.14006901 -0.09199802
v 0.11298895 -0.13447921 -0.09199802
v 0.10072725 -0.1348447 -0.09199802
v 0.087541245 -0.1383698 -0.09199802
v 0.07373934 -0.14697412 -0.09199802
v 0.06323264 -0.1560332 -0.09199802
v 0.05423305 -0.1662231 -0.09199802
v 0.04453316 -0.1811354 -0.09199802
v 0.03810766 -0.1961658 -0.09199802
v 0.03421426 -0.21601132 -0.09199802
v 0.071000054 -0.2581977 -0.09199802
v 0.034511853 -0.22540541 -0.09199802
v 0.035933446 -0.2343256 -0.09199802
v 0.03998294 -0.245363 -0.09199802
v 0.04615264 -0.2533792 -0.09199802
v 0.063557744 -0.26001292 -0.09199802
v 0.05601375 -0.25946862 -0.09199802
v -0.05410446 -0.2572558 -0.07699801
v -0.04333646 -0.22898917 -0.07699801
v -0.07113306 -0.2529016 -0.07699801
v -0.059600055 -0.20658378 -0.07699801
v -0.08021246 -0.25225273 -0.07699801
v -0.07603156 -0.1886569 -0.07699801
v -0.09103336 -0.2521824 -0.07699801
v -0.10111686 -0.2524968 -0.07699801
v -0.09255416 -0.17250769 -0.07699801
v -0.110639565 -0.2533022 -0.07699801
v -0.12293426 -0.25498018 -0.07699801
v -0.10902726 -0.15824859 -0.07699801
v -0.13587497 -0.2578588 -0.07699801
v -0.11387946 -0.15489098 -0.07699801
v -0.12015952 -0.15275483 -0.07699801
v -0.14103267 -0.14909369 -0.07699801
v -0.14831285 -0.1486369 -0.07699801
v -0.16116427 -0.15001 -0.07699801
v -0.18126766 -0.15519111 -0.07699801
v -0.14838997 -0.2616039 -0.07699801
v -0.20888956 -0.16460139 -0.07699801
v -0.17207687 -0.269029 -0.07699801
v -0.18379657 -0.27135593 -0.07699801
v -0.21801837 -0.16891639 -0.07699801
v -0.22386436 -0.1727029 -0.07699801
v -0.22863905 -0.1763013 -0.07699801
v -0.23281777 -0.18060939 -0.07699801
v -0.23608588 -0.18487948 -0.07699801
v -0.23842736 -0.18918161 -0.07699801
v -0.23983185 -0.19459778 -0.07699801
v -0.24000995 -0.20048438 -0.07699801
v -0.23944955 -0.20548831 -0.07699801
v -0.23466657 -0.22034808 -0.07699801
v -0.22694348 -0.23696637 -0.07699801
v -0.21575986 -0.2560092 -0.07699801
v -0.20841885 -0.26688042 -0.07699801
v -0.19054896 -0.2723008 -0.07699801
v -0.20009516 -0.27168924 -0.07699801
v -0.20365946 -0.2703401 -0.07699801
v -0.27851987 0.264682 -0.06381487
v -0.2752377 0.26292717 -0.06381487
v -0.27915022 0.26908508 -0.06381487
v -0.2778155 0.27132747 -0.06381487
v -0.2723201 0.27393338 -0.06381487
v -0.2653075 0.26095608 -0.06381487
v -0.25923228 0.27702498 -0.06381487
v -0.2525904 0.25776178 -0.06381487
v -0.24332981 0.27953258 -0.06381487
v -0.22467189 0.24823478 -0.06381487
v -0.21353579 0.2793502 -0.06381487
v -0.1895462 0.23374157 -0.06381487
v -0.17862938 0.2739305 -0.06381487
v -0.13276619 0.25953266 -0.06381487
v -0.1571028 0.21695648 -0.06381487
v -0.08552229 0.23472658 -0.06381487
v -0.13501464 0.20196171 -0.06381487
v -0.1067655 0.18278448 -0.06381487
v -0.05494958 0.21109629 -0.06381487
v -0.0796075 0.15946548 -0.06381487
v -0.030829286 0.18334918 -0.06381487
v -0.057935394 0.13566437 -0.06381487
v -0.0051518916 0.14056806 -0.06381487
v -0.042338695 0.10996657 -0.06381487
v 0.015957713 0.08473427 -0.06381487
v -0.031270694 0.08034407 -0.06381487
v -0.022252893 0.04294727 -0.06381487
v 0.027928412 0.033651073 -0.06381487
v -0.020486189 0.030170573 -0.06381487
v -0.015429891 0.018856872 -0.06381487
v -0.0061986926 0.01100067 -0.06381487
v 0.009331405 0.008173669 -0.06381487
v 0.021795107 0.011809868 -0.06381487
v 0.028708613 0.018362273 -0.06381487
v 0.02967441 0.023573166 -0.06381487
v -0.07853665 0.24680085 -0.068626024
v -0.05481104 0.20407143 -0.068626024
v -0.012395662 0.25206995 -0.068626024
v 0.0005077541 0.22627015 -0.068626024
v -0.036229547 0.17058216 -0.068626024
v 0.015735859 0.18710215 -0.068626024
v -0.02121715 0.13759196 -0.068626024
v 0.024089832 0.15154906 -0.068626024
v 0.028607953 0.11602676 -0.068626024
v -0.010019428 0.10215546 -0.068626024
v 0.030531252 0.07769807 -0.068626024
v 0.006737852 0.031356063 -0.068626024
v 0.027882857 0.03951056 -0.068626024
v 0.025284154 0.025033861 -0.068626024
v 0.020871354 0.02080096 -0.068626024
v 0.012652755 0.021807758 -0.068626024
v -0.05935309 0.10677638 -0.059126485
v -0.059284996 0.11024459 -0.059126485
v -0.063740395 0.10603409 -0.059126485
v -0.06294651 0.114548884 -0.059126485
v -0.071134806 0.10814599 -0.059126485
v -0.073065594 0.12320719 -0.059126485
v -0.09271941 0.11431159 -0.059126485
v -0.08764851 0.13271889 -0.059126485
v -0.1230876 0.12298498 -0.059126485
v -0.10463071 0.1406245 -0.059126485
v -0.1288028 0.1484242 -0.059126485
v -0.1504715 0.13033569 -0.059126485
v -0.15323329 0.15261969 -0.059126485
v -0.1630954 0.13213749 -0.059126485
v -0.16926701 0.15377748 -0.059126485
v -0.1779918 0.13255338 -0.059126485
v -0.184606 0.15196109 -0.059126485
v -0.19874421 0.13150549 -0.059126485
v -0.1995729 0.1481448 -0.059126485
v -0.219993 0.1405146 -0.059126485
v -0.2176657 0.13007669 -0.059126485
v -0.2329582 0.13368338 -0.059126485
v -0.229407 0.12766528 -0.059126485
v -0.2348039 0.12674308 -0.059126485
v -0.2360382 0.12830019 -0.059126485
v -0.23575719 0.13091229 -0.059126485
v -0.36504918 0.14978512 -0.06622551
v -0.36257076 0.14656562 -0.06622551
v -0.3627979 0.15358932 -0.06622551
v -0.3588932 0.14497112 -0.06622551
v -0.3532824 0.15973862 -0.06622551
v -0.35134256 0.14653853 -0.06622551
v -0.33143887 0.1500111 -0.06622551
v -0.3337651 0.16659741 -0.06622551
v -0.29309908 0.15275612 -0.06622551
v -0.28693518 0.18023962 -0.06622551
v -0.26231498 0.15423152 -0.06622551
v -0.23503597 0.19085802 -0.06622551
v -0.23567389 0.15451871 -0.06622551
v -0.20775329 0.15215272 -0.06622551
v -0.20503977 0.19364832 -0.06622551
v -0.17476979 0.19291882 -0.06622551
v -0.18401878 0.14938322 -0.06622551
v -0.15686768 0.14316152 -0.06622551
v -0.14909789 0.18997382 -0.06622551
v -0.12717329 0.18475652 -0.06622551
v -0.13672788 0.13754882 -0.06622551
v -0.097776875 0.17384902 -0.06622551
v -0.11328899 0.12919061 -0.06622551
v -0.07233248 0.15939452 -0.06622551
v -0.091729075 0.119302325 -0.06622551
v -0.043740775 0.13686572 -0.06622551
v -0.07257028 0.10617431 -0.06622551
v -0.025801575 0.11471131 -0.06622551
v -0.057873677 0.09087101 -0.06622551
v -0.010108877 0.08345502 -0.06622551
v -0.044107776 0.066727914 -0.06622551
v -0.0019586764 0.054393616 -0.06622551
v -0.034714576 0.04323682 -0.06622551
v 0.0014548235 0.028991913 -0.06622551
v -0.028042376 0.01658752 -0.06622551
v 0.0022140236 0.015089512 -0.06622551
v -0.025133578 0.010290516 -0.06622551
v -0.013054776 0.0069095134 -0.06622551
v -0.0062745432 0.0076807025 -0.06622551
v -0.00024077669 0.010152209 -0.06622551
v 0.22079025 0.18563047 -0.07324796
v 0.19364706 0.18614817 -0.07324796
v 0.22218423 0.13962622 -0.07324796
v 0.19458573 0.13424456 -0.07324796
v 0.16777714 0.18154237 -0.07324796
v 0.17221425 0.12880306 -0.07324796
v 0.13216443 0.17120567 -0.07324796
v 0.14560854 0.12097856 -0.07324796
v 0.104195334 0.15649235 -0.07324796
v 0.12068923 0.11123116 -0.07324796
v 0.07294423 0.12976216 -0.07324796
v 0.10180204 0.09852396 -0.07324796
v 0.048860736 0.10035127 -0.07324796
v 0.085014544 0.08265146 -0.07324796
v 0.070177935 0.06387096 -0.07324796
v 0.030049836 0.071568064 -0.07324796
v 0.060061235 0.04722566 -0.07324796
v 0.019731134 0.04385646 -0.07324796
v 0.05361853 0.032461356 -0.07324796
v 0.019460035 0.02786696 -0.07324796
v 0.04733034 0.023344059 -0.07324796
v 0.041217234 0.01821136 -0.07324796
v 0.031980436 0.015410656 -0.07324796
v 0.024163634 0.01863426 -0.07324796
v 0.21442191 0.12246511 -0.069606386
v 0.18276191 0.1328717 -0.069606386
v 0.20428501 0.091293305 -0.069606386
v 0.1779263 0.09767841 -0.069606386
v 0.15958352 0.1358173 -0.069606386
v 0.15982442 0.1005015 -0.069606386
v 0.12878671 0.13218561 -0.069606386
v 0.13177732 0.09982891 -0.069606386
v 0.10428512 0.1248278 -0.069606386
v 0.11094811 0.0966844 -0.069606386
v 0.07897311 0.1097129 -0.069606386
v 0.091794014 0.090607904 -0.069606386
v 0.071447305 0.100446604 -0.069606386
v 0.083381824 0.087180704 -0.069606386
v 0.070250206 0.09444891 -0.069606386
v 0.0730293 0.0890764 -0.069606386
v 0.0787096 0.086032905 -0.069606386
v -0.038209356 -0.24003029 -0.07699801
v -0.037881155 -0.2495319 -0.07699801
v -0.042836655 -0.255584 -0.07699801
v -0.28351903 -0.13354707 -0.09199804
v -0.28901416 -0.13126968 -0.09199804
v -0.31602022 -0.14644866 -0.09199804
v -0.29566064 -0.12931147 -0.09199804
v -0.30437595 -0.12734187 -0.09199804
v -0.3191049 -0.13447826 -0.09199804
v -0.31343362 -0.12582596 -0.09199804
v -0.32018432 -0.12895858 -0.09199804
v -0.3208333 -0.12563996 -0.09199804
v 0.06415874 0.34190634 -0.05689307
v 0.059701946 0.34248117 -0.05689307
v 0.06574221 0.33675107 -0.05689307
v 0.06297523 0.33170044 -0.05689307
v 0.057014037 0.34168956 -0.05689307
v 0.054003943 0.33807668 -0.05689307
v 0.050176945 0.33256048 -0.05689307
v 0.059407998 0.32372397 -0.05689307
v 0.041180637 0.31914428 -0.05689307
v 0.049727738 0.29530725 -0.05689307
v 0.032045636 0.30248636 -0.05689307
v 0.024263037 0.28563794 -0.05689307
v 0.04333934 0.27140316 -0.05689307
v 0.018478438 0.27211854 -0.05689307
v 0.03867414 0.24482715 -0.05689307
v 0.012349638 0.25290745 -0.05689307
v 0.007420236 0.23182814 -0.05689307
v 0.033057738 0.20892237 -0.05689307
v 0.0016960383 0.20222835 -0.05689307
v 0.027861238 0.17752744 -0.05689307
v -0.0018369615 0.16925105 -0.05689307
v 0.025600037 0.15666994 -0.05689307
v -0.0019334614 0.14563124 -0.05689307
v 0.025102038 0.13507284 -0.05689307
v -7.462502E-06 0.11983074 -0.05689307
v 0.025469039 0.11758713 -0.05689307
v 0.0038309365 0.08560904 -0.05689307
v 0.029072637 0.058558643 -0.05689307
v 0.009280738 0.059068035 -0.05689307
v 0.016187537 0.031221343 -0.05689307
v 0.028087238 0.033278644 -0.05689307
v 0.027453637 0.028919935 -0.05689307
v 0.017704237 0.028174544 -0.05689307
v 0.021078939 0.025013436 -0.05689307
v 0.025272539 0.025692439 -0.05689307
v -0.19224663 0.029732203 -0.058063336
v -0.18855074 0.026081705 -0.058063336
v -0.18990262 0.03592949 -0.058063336
v -0.18433993 0.026296807 -0.058063336
v -0.16372383 0.03622389 -0.058063336
v -0.17774613 0.055471804 -0.058063336
v -0.13988452 0.048319604 -0.058063336
v -0.16558433 0.07154801 -0.058063336
v -0.14777641 0.08654471 -0.058063336
v -0.111529924 0.057415605 -0.058063336
v -0.13127983 0.0974521 -0.058063336
v -0.11796192 0.10283909 -0.058063336
v -0.10202693 0.1044296 -0.058063336
v -0.09407493 0.058709502 -0.058063336
v -0.079330124 0.10078881 -0.058063336
v -0.07306682 0.057424307 -0.058063336
v -0.053533126 0.089154795 -0.058063336
v -0.056346025 0.053377893 -0.058063336
v -0.03557373 0.07674899 -0.058063336
v -0.042074323 0.046437692 -0.058063336
v -0.026583523 0.0660851 -0.058063336
v -0.023123724 0.059299804 -0.058063336
v -0.025346924 0.04940219 -0.058063336
v -0.034377426 0.04393499 -0.058063336
v -0.25900802 -0.12988468 -0.09199804
v -0.23137331 -0.11830776 -0.09199804
v -0.25797725 -0.12335646 -0.09199804
v -0.23916264 -0.111751154 -0.09199804
v -0.256682 -0.11602616 -0.09199804
v -0.24616896 -0.106651954 -0.09199804
v -0.25541982 -0.10974457 -0.09199804
v -0.25295883 -0.102892354 -0.09199804
v -0.25418326 -0.10333317 -0.09199804
v -0.3104751 -0.16224876 -0.09199804
v -0.27968955 -0.13532268 -0.09199804
v -0.30459362 -0.17750047 -0.09199804
v -0.22427073 -0.124515966 -0.09199804
v -0.21857242 -0.12979877 -0.09199804
v -0.27682963 -0.13364688 -0.09199804
v -0.19121033 -0.29258206 -0.09199804
v -0.18031873 -0.28170317 -0.09199804
v -0.20524655 -0.30007336 -0.09199804
v -0.22499032 -0.3027719 -0.09199804
v -0.21543173 -0.30248258 -0.09199804
v -0.23544183 -0.29952967 -0.09199804
v -0.30526733 -0.18054608 -0.09199804
v -0.30488083 -0.18631287 -0.09199804
v -0.27287775 -0.13215466 -0.09199804
v -0.26789555 -0.13056786 -0.09199804
v -0.26349202 -0.12977627 -0.09199804
v -0.21567956 -0.13300847 -0.09199804
v -0.21346083 -0.13576007 -0.09199804
v -0.20110784 -0.14832476 -0.09199804
v -0.21257606 -0.13760285 -0.09199804
v -0.18804842 -0.16365547 -0.09199804
v -0.17782184 -0.18050507 -0.09199804
v -0.17257152 -0.19280477 -0.09199804
v -0.16796702 -0.20554857 -0.09199804
v -0.16518603 -0.21996517 -0.09199804
v -0.16436145 -0.23382886 -0.09199804
v -0.16724734 -0.25403675 -0.09199804
v -0.17212094 -0.26805848 -0.09199804
v -0.24484162 -0.29452908 -0.09199804
v -0.25212336 -0.28913304 -0.09199804
v -0.26161295 -0.27900037 -0.09199804
v -0.26884323 -0.27009207 -0.09199804
v -0.27877027 -0.25506935 -0.09199804
v -0.28748924 -0.23937348 -0.09199804
v -0.29800564 -0.21517856 -0.09199804
v -0.3030765 -0.19706558 -0.09199804
v 0.232192 -0.12854986 -0.10236704
v 0.1932797 -0.112124145 -0.10236704
v 0.23031698 -0.14900504 -0.10236704
v 0.18883426 -0.11524297 -0.10236704
v 0.112711094 -0.098826945 -0.10236704
v 0.108067706 -0.10766593 -0.10236704
v 0.1459925 -0.10296074 -0.10236704
v 0.14972399 -0.110800445 -0.10236704
v 0.10460599 -0.11478964 -0.10236704
v 0.10227831 -0.12114693 -0.10236704
v 0.1007447 -0.12670204 -0.10236704
v 0.22846489 -0.15873505 -0.10236704
v 0.099997595 -0.13045344 -0.10236704
v 0.09991179 -0.13300504 -0.10236704
v 0.2292922 -0.16154024 -0.10236704
v 0.22966719 -0.16638884 -0.10236704
v 0.2293676 -0.18512534 -0.10236704
v 0.22607131 -0.20708047 -0.10236704
v 0.18236919 -0.11215683 -0.10236704
v 0.1722219 -0.10968055 -0.10236704
v 0.1627785 -0.10921594 -0.10236704
v 0.1540675 -0.109696545 -0.10236704
v 0.2215253 -0.22465225 -0.10236704
v 0.2142456 -0.24234453 -0.10236704
v 0.0984266 -0.13417095 -0.10236704
v 0.09302979 -0.14198665 -0.10236704
v 0.08903108 -0.14928965 -0.10236704
v 0.08542609 -0.15742204 -0.10236704
v 0.079315305 -0.17490725 -0.10236704
v 0.076390386 -0.18820974 -0.10236704
v 0.07471271 -0.20059042 -0.10236704
v 0.20802818 -0.25417754 -0.10236704
v 0.0735234 -0.21631984 -0.10236704
v 0.0745158 -0.23189035 -0.10236704
v 0.2009079 -0.26579723 -0.10236704
v 0.1922581 -0.27605423 -0.10236704
v 0.07661231 -0.24703364 -0.10236704
v 0.18445559 -0.2838355 -0.10236704
v 0.08070159 -0.26114774 -0.10236704
v 0.17473109 -0.29156825 -0.10236704
v 0.161653 -0.29858324 -0.10236704
v 0.08693381 -0.27439275 -0.10236704
v 0.14925818 -0.30259606 -0.10236704
v 0.13742308 -0.30391803 -0.10236704
v 0.1253904 -0.30263644 -0.10236704
v 0.11354198 -0.29869923 -0.10236704
v 0.10242329 -0.2923394 -0.10236704
v 0.0939451 -0.2845715 -0.10236704
v 0.2043782 -0.10508694 -0.10236704
v 0.232577 -0.109120145 -0.10236704
v 0.21420269 -0.099438034 -0.10236704
v 0.22597352 -0.09345683 -0.10236704
v 0.22827192 -0.092351735 -0.10236704
v 0.23072071 -0.09188124 -0.10236704
v 0.23233481 -0.09489063 -0.10236704
v 0.2318956 -0.092747845 -0.10236704
v 0.13935171 -0.09267875 -0.10236704
v 0.116404705 -0.09185375 -0.10236704
v 0.1307718 -0.08076984 -0.10236704
v 0.1209918 -0.08350314 -0.10236704
v 0.1279275 -0.07679395 -0.10236704
v 0.12693469 -0.075769536 -0.10236704
v 0.1250184 -0.07703713 -0.10236704
v 0.1260141 -0.07577845 -0.10236704
v 0.22062457 0.04800682 -0.09049996
v 0.21868137 0.05296762 -0.09049996
v 0.21790007 0.03999553 -0.09049996
v 0.21490148 0.056633808 -0.09049996
v 0.21251456 0.03349941 -0.09049996
v 0.21170595 0.05929332 -0.09049996
v 0.2082516 0.031362105 -0.09049996
v 0.20750068 0.030985618 -0.09049996
v 0.20760296 0.028194714 -0.09049996
v 0.20523117 0.020569205 -0.09049996
v 0.15719645 -0.029672742 -0.09049996
v 0.16856615 -0.024128294 -0.09049996
v 0.14889355 -0.033092596 -0.09049996
v 0.13861625 -0.035456564 -0.09049996
v 0.12700029 -0.03657949 -0.09049996
v 0.11112197 -0.03463271 -0.09049996
v 0.0968158 -0.029720498 -0.09049996
v 0.08615017 -0.023218323 -0.09049996
v 0.07821796 -0.016154958 -0.09049996
v 0.068257764 -0.0024757863 -0.09049996
v 0.061350893 0.010756731 -0.09049996
v 0.057326343 0.026097346 -0.09049996
v 0.055521347 0.040634777 -0.09049996
v 0.055536676 0.05163629 -0.09049996
v 0.05761237 0.064412646 -0.09049996
v 0.060928084 0.075362705 -0.09049996
v 0.0643028 0.084832214 -0.09049996
v 0.07001338 0.09477456 -0.09049996
v 0.07641616 0.104098015 -0.09049996
v 0.08289998 0.111734465 -0.09049996
v 0.09438789 0.12155566 -0.09049996
v 0.10268579 0.12645757 -0.09049996
v 0.11093056 0.13078502 -0.09049996
v 0.12405389 0.1342953 -0.09049996
v 0.13487284 0.13585973 -0.09049996
v 0.14617029 0.1349848 -0.09049996
v 0.15784304 0.13240726 -0.09049996
v 0.16725357 0.1284194 -0.09049996
v 0.17628406 0.12368901 -0.09049996
v 0.1853842 0.11597524 -0.09049996
v 0.19409059 0.106620625 -0.09049996
v 0.20158108 0.094054006 -0.09049996
v 0.20610006 0.083528355 -0.09049996
v 0.20881116 0.074896716 -0.09049996
v 0.21041606 0.06722815 -0.09049996
v 0.20167959 0.013383365 -0.09049996
v 0.19653967 0.0038401128 -0.09049996
v 0.19017258 -0.004996538 -0.09049996
v 0.18555315 -0.010584093 -0.09049996
v 0.17712596 -0.017593218 -0.09049996
v -0.08423257 0.07332908 -0.096931815
v -0.0817678 0.06900391 -0.096931815
v -0.0851471 0.07749799 -0.096931815
v -0.084601164 0.08259719 -0.096931815
v -0.08300829 0.08714089 -0.096931815
v -0.08161368 0.08971428 -0.096931815
v -0.047439504 0.1548785 -0.097046055
v -0.057270862 0.14601985 -0.096931815
v -0.036275078 0.16059549 -0.096931815
v -0.025980497 0.16369139 -0.096931815
v -0.06408908 0.138195 -0.096931815
v -0.06925688 0.13095057 -0.096931815
v -0.015595794 0.16545649 -0.096931815
v -0.0028975965 0.16498518 -0.096931815
v 0.009930707 0.16204198 -0.096931815
v 0.021705007 0.157594 -0.096931815
v -0.07384119 0.12231248 -0.096931815
v -0.079116106 0.10808559 -0.096931815
v 0.032497622 0.1514455 -0.096931815
v 0.042798113 0.14236999 -0.096931815
v -0.08127274 0.097463675 -0.096931815
v 0.05148661 0.13309439 -0.096931815
v 0.05891421 0.12193477 -0.096931815
v 0.06490202 0.109086394 -0.096931815
v 0.06945961 0.09314309 -0.096931815
v -0.080080606 0.060451694 -0.096931815
v 0.072230816 0.07582238 -0.096931815
v -0.0779613 0.05145959 -0.096931815
v -0.07437263 0.042288523 -0.096931815
v 0.07136872 0.056009084 -0.096931815
v -0.069745064 0.033132393 -0.096931815
v 0.06813991 0.04275629 -0.096931815
v -0.064091496 0.023690289 -0.096931815
v -0.054809596 0.0126104895 -0.096931815
v 0.06225562 0.029140884 -0.096931815
v 0.05221331 0.016042685 -0.096931815
v 0.03974972 0.0064939857 -0.096931815
v 0.024671508 -0.0012693107 -0.096931815
v 0.009138823 -0.0058690133 -0.096931815
v -0.008559895 -0.007789612 -0.096931815
v -0.02431469 -0.005274111 -0.096931815
v -0.032705594 -0.0024555146 -0.096931815
v -0.042931177 0.002912587 -0.096931815
v -0.030008657 0.2800748 -0.068626024
v -0.099453054 0.28801137 -0.068626024
v -0.048184723 0.3039879 -0.068626024
v -0.06904929 0.32554016 -0.068626024
v -0.120586656 0.32479444 -0.068626024
v -0.09668555 0.34717655 -0.068626024
v -0.12484236 0.36244556 -0.068626024
v -0.13781905 0.34850946 -0.068626024
v -0.14181057 0.36854157 -0.068626024
v -0.14590235 0.35803157 -0.068626024
v -0.14827855 0.36148176 -0.068626024
v -0.14584945 0.36784217 -0.068626024
v -0.14815576 0.36569285 -0.068626024
v -0.1294028 -0.039937187 -0.07723037
v -0.11734442 -0.043283727 -0.07723037
v -0.14326124 -0.03187404 -0.07723037
v -0.15140913 -0.023034954 -0.07723037
v -0.10588831 -0.04435761 -0.07723037
v -0.15677214 -0.015159845 -0.07723037
v -0.1614253 -0.0041935206 -0.07723037
v -0.09153914 -0.04357774 -0.07723037
v -0.16370803 0.0049060583 -0.07723037
v -0.076781206 -0.04018266 -0.07723037
v -0.16542229 0.016061187 -0.07723037
v -0.066465534 -0.035536338 -0.07723037
v -0.16570844 0.025045753 -0.07723037
v -0.1633334 0.03825834 -0.07723037
v -0.05501442 -0.028318048 -0.07723037
v -0.04557253 -0.019942332 -0.07723037
v -0.036158014 -0.0065478086 -0.07723037
v -0.030456698 0.008324027 -0.07723037
v -0.16076954 0.04810655 -0.07723037
v -0.1563913 0.058043648 -0.07723037
v -0.02768234 0.020949317 -0.07723037
v -0.02642013 0.037341952 -0.07723037
v -0.1518451 0.06640687 -0.07723037
v -0.028130388 0.050422262 -0.07723037
v -0.14718328 0.07380712 -0.07723037
v -0.14024563 0.08265927 -0.07723037
v -0.1340528 0.08809483 -0.07723037
v -0.12574163 0.093969755 -0.07723037
v -0.11685579 0.09889191 -0.07723037
v -0.030349433 0.06110227 -0.07723037
v -0.035075296 0.07296004 -0.07723037
v -0.109233834 0.10215738 -0.07723037
v -0.09829343 0.10539067 -0.07723037
v -0.08971452 0.106021 -0.07723037
v -0.039837338 0.081467986 -0.07723037
v -0.045578122 0.088514164 -0.07723037
v -0.08089478 0.10575368 -0.07723037
v -0.07410058 0.10424139 -0.07723037
v -0.05184133 0.09423359 -0.07723037
v -0.06368234 0.10087927 -0.07723037
v 0.03630779 0.06328717 -0.08244892
v 0.01973859 0.059735466 -0.08244892
v 0.05045059 0.06258397 -0.08244892
v 0.06279838 0.05919647 -0.08244892
v 0.077637486 0.051464666 -0.08244892
v 0.09371289 0.036473073 -0.08244892
v 0.00748508 0.055474844 -0.08244892
v -0.017689317 0.040602174 -0.08244892
v 0.10835119 0.016490972 -0.08244892
v 0.11898857 -0.005029035 -0.08244892
v -0.042900015 0.019886864 -0.08244892
v 0.1281449 -0.03311683 -0.08244892
v -0.056826033 0.0064300657 -0.08244892
v 0.13390599 -0.060875524 -0.08244892
v -0.06906922 -0.007196331 -0.08244892
v -0.081187524 -0.022178663 -0.08244892
v 0.13589607 -0.072730914 -0.08244892
v 0.13727479 -0.08703305 -0.08244892
v -0.092335686 -0.03724114 -0.08244892
v 0.13909684 -0.107953824 -0.08244892
v -0.101342075 -0.05117277 -0.08244892
v 0.13874935 -0.121081434 -0.08244892
v 0.13760728 -0.13797694 -0.08244892
v -0.10985092 -0.065063946 -0.08244892
v 0.13391978 -0.16276555 -0.08244892
v -0.117840625 -0.08044261 -0.08244892
v -0.124569416 -0.095174134 -0.08244892
v 0.13127832 -0.17544104 -0.08244892
v -0.12910186 -0.1080213 -0.08244892
v 0.12798613 -0.18729274 -0.08244892
v 0.12318849 -0.20016661 -0.08244892
v -0.13195775 -0.11820322 -0.08244892
v -0.13529561 -0.13468835 -0.08244892
v -0.13620932 -0.15261513 -0.08244892
v -0.13396117 -0.16621841 -0.08244892
v -0.13029413 -0.18182704 -0.08244892
v -0.12569062 -0.19445492 -0.08244892
v -0.11822932 -0.20984864 -0.08244892
v -0.108864 -0.22276998 -0.08244892
v -0.09555696 -0.23726082 -0.08244892
v -0.07718282 -0.25030255 -0.08244892
v -0.054303218 -0.26179168 -0.08244892
v -0.041055318 -0.26691037 -0.08244892
v -0.02286231 -0.2713842 -0.08244892
v -0.0019421816 -0.27412447 -0.08244892
v 0.011785186 -0.27449402 -0.08244892
v 0.11847669 -0.21076885 -0.08244892
v 0.037575282 -0.27248684 -0.08244892
v 0.10945469 -0.22685233 -0.08244892
v 0.095872894 -0.24245004 -0.08244892
v 0.080436386 -0.25522313 -0.08244892
v 0.059996188 -0.26631805 -0.08244892
v 0.21185921 0.38635164 -0.07710595
v 0.208167 0.39002314 -0.07710595
v 0.21072951 0.38070402 -0.07710595
v 0.20183821 0.38976765 -0.07710595
v 0.20393601 0.37504956 -0.07710595
v 0.18141621 0.38165757 -0.07710595
v 0.19303282 0.3646737 -0.07710595
v 0.15336142 0.36720735 -0.07710595
v 0.17595223 0.34369946 -0.07710595
v 0.124160424 0.34860173 -0.07710595
v 0.15880011 0.31850415 -0.07710595
v 0.09872411 0.32700965 -0.07710595
v 0.14374062 0.29254314 -0.07710595
v 0.07573281 0.30292425 -0.07710595
v 0.12872192 0.26471043 -0.07710595
v 0.051449914 0.26688012 -0.07710595
v 0.109956615 0.23105334 -0.07710595
v 0.03914372 0.24180761 -0.07710595
v 0.093731314 0.20078734 -0.07710595
v 0.030313546 0.21539044 -0.07710595
v 0.025192697 0.19518058 -0.07710595
v 0.020263674 0.172877 -0.07710595
v 0.015892813 0.14695604 -0.07710595
v 0.3889037 0.26504993 -0.07710595
v 0.389376 0.27011773 -0.07710595
v 0.3835549 0.26154312 -0.07710595
v 0.38694212 0.27276665 -0.07710595
v 0.3771772 0.27409443 -0.07710595
v 0.36475632 0.25721905 -0.07710595
v 0.32845622 0.27656895 -0.07710595
v 0.32954293 0.24748054 -0.07710595
v 0.27750853 0.27361265 -0.07710595
v 0.27945152 0.23205064 -0.07710595
v 0.23102322 0.26564324 -0.07710595
v 0.23128393 0.21367884 -0.07710595
v 0.18909772 0.25433704 -0.07710595
v 0.19594252 0.19818173 -0.07710595
v 0.15185842 0.23963884 -0.07710595
v 0.15880743 0.17894223 -0.07710595
v 0.118903115 0.22087033 -0.07710595
v 0.12285608 0.15542029 -0.07710595
v 0.101791225 0.13797024 -0.07710595
v 0.08736391 0.12143624 -0.07710595
v 0.013236213 0.10652534 -0.07710595
v 0.07368501 0.10064524 -0.07710595
v 0.064185716 0.08128404 -0.07710595
v 0.015790813 0.065412335 -0.07710595
v 0.05350641 0.056313533 -0.07710595
v 0.019217914 0.039678633 -0.07710595
v 0.045902114 0.038181733 -0.07710595
v 0.039937213 0.029088533 -0.07710595
v 0.023010813 0.029212935 -0.07710595
v 0.026082313 0.025236934 -0.07710595
v 0.03339961 0.024390036 -0.07710595
v -0.016707797 0.003577423 -0.06149087
v -0.0041598976 0.007653713 -0.06149087
v -0.0273399 0.011828112 -0.06149087
v 0.0010255009 0.015031314 -0.06149087
v 0.0005930007 0.025277615 -0.06149087
v -0.004116827 0.034747817 -0.06149087
v -0.0418737 0.034953523 -0.06149087
v -0.016861731 0.05768919 -0.06149087
v -0.052947875 0.049160767 -0.06149087
v -0.025953008 0.07137024 -0.06149087
v -0.061413802 0.05892421 -0.06149087
v -0.0343704 0.08362321 -0.06149087
v -0.04455256 0.09555985 -0.06149087
v -0.080295496 0.07644681 -0.06149087
v -0.0569303 0.10780171 -0.06149087
v -0.07145666 0.11834427 -0.06149087
v -0.0982578 0.08687178 -0.06149087
v -0.086203404 0.12646233 -0.06149087
v -0.102589466 0.13178699 -0.06149087
v -0.11699269 0.091821015 -0.06149087
v -0.118845105 0.13500921 -0.06149087
v -0.1387517 0.09221371 -0.06149087
v -0.1346867 0.13665618 -0.06149087
v -0.1518551 0.13680111 -0.06149087
v -0.15608095 0.09112997 -0.06149087
v -0.16729565 0.13487332 -0.06149087
v -0.1761465 0.08949482 -0.06149087
v -0.18447201 0.13114911 -0.06149087
v -0.2117038 0.12295622 -0.06149087
v -0.2056083 0.084842205 -0.06149087
v 0.36844936 0.13371566 -0.07324796
v 0.36919075 0.13749416 -0.07324796
v 0.36485305 0.13161576 -0.07324796
v 0.35830855 0.13213067 -0.07324796
v 0.36813065 0.14057676 -0.07324796
v 0.36371335 0.14260426 -0.07324796
v 0.35326385 0.14751816 -0.07324796
v 0.34872413 0.13360076 -0.07324796
v 0.32574844 0.15838437 -0.07324796
v 0.31417736 0.13799016 -0.07324796
v 0.28932825 0.17139517 -0.07324796
v 0.29009864 0.13974527 -0.07324796
v 0.25300023 0.14106886 -0.07324796
v 0.25309634 0.18046255 -0.07324796
v 0.27865022 0.069972105 -0.069606386
v 0.28048462 0.073182605 -0.069606386
v 0.27433452 0.0689643 -0.069606386
v 0.2797971 0.07670541 -0.069606386
v 0.27638644 0.0805912 -0.069606386
v 0.2669542 0.071608804 -0.069606386
v 0.26273164 0.09315611 -0.069606386
v 0.25616363 0.07543441 -0.069606386
v 0.22921053 0.084045105 -0.069606386
v 0.23814832 0.110019505 -0.069606386
v -0.24953142 0.10614132 -0.06149087
v -0.24583021 0.073610805 -0.06149087
v -0.2664518 0.09547092 -0.06149087
v -0.2832999 0.058596313 -0.06149087
v -0.2807653 0.08448432 -0.06149087
v -0.29368863 0.07137281 -0.06149087
v -0.2947931 0.052618206 -0.06149087
v -0.301324 0.06184541 -0.06149087
v -0.30317113 0.05781281 -0.06149087
v -0.2987337 0.05206051 -0.06149087
v -0.3019875 0.05421392 -0.06149087
vt 0.07159424 0.28955078
vt 0.05731201 0.30297852
vt 0.087402344 0.2836914
vt 0.09686279 0.28295898
vt 0.105407715 0.2849121
vt 0.111450195 0.29003906
vt 0.12005615 0.29638672
vt 0.045166016 0.32104492
vt 0.036315918 0.3413086
vt 0.12805176 0.30004883
vt 0.0317688 0.3623047
vt 0.034179688 0.38500977
vt 0.04248047 0.40454102
vt 0.05609131 0.42211914
vt 0.0713501 0.4345703
vt 0.087524414 0.44091797
vt 0.10144043 0.4404297
vt 0.11639404 0.43652344
vt 0.13208008 0.4267578
vt 0.14404297 0.4165039
vt 0.15429688 0.40478516
vt 0.1652832 0.38793945
vt 0.17260742 0.3708496
vt 0.17700195 0.34838867
vt 0.1352539 0.30029297
vt 0.17663574 0.33764648
vt 0.17504883 0.32763672
vt 0.17041016 0.3149414
vt 0.16345215 0.3059082
vt 0.14367676 0.29858398
vt 0.15197754 0.29956055
vt 0.55371094 0.038269043
vt 0.5415039 0.0703125
vt 0.5732422 0.043182373
vt 0.5600586 0.09576416
vt 0.5834961 0.043914795
vt 0.5786133 0.1161499
vt 0.5957031 0.044006348
vt 0.6069336 0.043640137
vt 0.59765625 0.13452148
vt 0.61816406 0.04272461
vt 0.63183594 0.04083252
vt 0.61621094 0.15075684
vt 0.6464844 0.03753662
vt 0.62158203 0.15454102
vt 0.62890625 0.15698242
vt 0.65234375 0.16113281
vt 0.66064453 0.1616211
vt 0.67529297 0.16003418
vt 0.6982422 0.1541748
vt 0.66064453 0.033294678
vt 0.7294922 0.14355469
vt 0.6879883 0.024856567
vt 0.7011719 0.022216797
vt 0.7402344 0.1385498
vt 0.74658203 0.13427734
vt 0.7519531 0.13024902
vt 0.75683594 0.12536621
vt 0.7607422 0.1204834
vt 0.7631836 0.115600586
vt 0.76464844 0.109436035
vt 0.7651367 0.10272217
vt 0.76416016 0.0970459
vt 0.75878906 0.080200195
vt 0.75 0.061309814
vt 0.7373047 0.03967285
vt 0.7290039 0.027389526
vt 0.7089844 0.02128601
vt 0.71972656 0.02218628
vt 0.7236328 0.023895264
vt 0.984375 0.8544922
vt 0.9814453 0.8520508
vt 0.98583984 0.8588867
vt 0.984375 0.8613281
vt 0.9785156 0.8642578
vt 0.9707031 0.8496094
vt 0.9638672 0.8676758
vt 0.95654297 0.8457031
vt 0.9458008 0.87060547
vt 0.9248047 0.83496094
vt 0.9121094 0.8701172
vt 0.8847656 0.8183594
vt 0.8725586 0.8642578
vt 0.8203125 0.84765625
vt 0.84814453 0.7993164
vt 0.76660156 0.8198242
vt 0.8227539 0.78222656
vt 0.79052734 0.7607422
vt 0.7319336 0.79296875
vt 0.7597656 0.7338867
vt 0.70458984 0.76123047
vt 0.73535156 0.70703125
vt 0.67529297 0.71240234
vt 0.71728516 0.6777344
vt 0.6513672 0.64941406
vt 0.7050781 0.64404297
vt 0.6948242 0.6015625
vt 0.6381836 0.5913086
vt 0.6928711 0.58740234
vt 0.6870117 0.57421875
vt 0.67626953 0.5654297
vt 0.6591797 0.5625
vt 0.6455078 0.56689453
vt 0.6381836 0.57470703
vt 0.63671875 0.5800781
vt 0.7011719 0.8310547
vt 0.6743164 0.78271484
vt 0.62597656 0.83740234
vt 0.6113281 0.80810547
vt 0.6533203 0.7446289
vt 0.5942383 0.7631836
vt 0.63623047 0.70703125
vt 0.58447266 0.72314453
vt 0.57958984 0.6826172
vt 0.62353516 0.6669922
vt 0.57714844 0.63916016
vt 0.6040039 0.5864258
vt 0.5800781 0.5957031
vt 0.5830078 0.57958984
vt 0.5878906 0.57470703
vt 0.59716797 0.5761719
vt 0.7729492 0.3935547
vt 0.77246094 0.39648438
vt 0.77685547 0.3918457
vt 0.7758789 0.4008789
vt 0.78515625 0.39379883
vt 0.7871094 0.4104004
vt 0.80908203 0.40039062
vt 0.80322266 0.42114258
vt 0.84375 0.41015625
vt 0.8227539 0.43017578
vt 0.85009766 0.43896484
vt 0.8745117 0.41845703
vt 0.8779297 0.44360352
vt 0.88916016 0.4206543
vt 0.8959961 0.44506836
vt 0.9057617 0.42114258
vt 0.9135742 0.4428711
vt 0.9291992 0.41992188
vt 0.9301758 0.43847656
vt 0.953125 0.42993164
vt 0.9506836 0.4182129
vt 0.96728516 0.421875
vt 0.9638672 0.41577148
vt 0.9692383 0.41455078
vt 0.97021484 0.41577148
vt 0.96972656 0.41845703
vt 0.92626953 0.4909668
vt 0.9243164 0.4873047
vt 0.9243164 0.4951172
vt 0.92041016 0.4855957
vt 0.9140625 0.5019531
vt 0.9121094 0.4873047
vt 0.88964844 0.49121094
vt 0.89208984 0.5097656
vt 0.8457031 0.49414062
vt 0.8388672 0.5253906
vt 0.81103516 0.4958496
vt 0.77978516 0.53759766
vt 0.7807617 0.4963379
vt 0.74902344 0.49365234
vt 0.74560547 0.54052734
vt 0.7114258 0.54003906
vt 0.72216797 0.49047852
vt 0.69091797 0.48339844
vt 0.6821289 0.5366211
vt 0.65722656 0.5307617
vt 0.66796875 0.47705078
vt 0.62402344 0.5180664
vt 0.64160156 0.4675293
vt 0.59521484 0.50146484
vt 0.6171875 0.45629883
vt 0.5625 0.47607422
vt 0.59521484 0.4411621
vt 0.5419922 0.45092773
vt 0.5786133 0.42382812
vt 0.52441406 0.41552734
vt 0.5629883 0.39648438
vt 0.5151367 0.38232422
vt 0.5522461 0.36987305
vt 0.51123047 0.35351562
vt 0.5444336 0.3395996
vt 0.5107422 0.33813477
vt 0.5415039 0.33251953
vt 0.52783203 0.32885742
vt 0.5205078 0.33007812
vt 0.51416016 0.33325195
vt 0.18798828 0.6040039
vt 0.21887207 0.6044922
vt 0.18640137 0.5517578
vt 0.21777344 0.54589844
vt 0.24816895 0.5996094
vt 0.24316406 0.5395508
vt 0.28857422 0.5878906
vt 0.2734375 0.5307617
vt 0.32055664 0.5708008
vt 0.3017578 0.51953125
vt 0.35595703 0.54052734
vt 0.3232422 0.5053711
vt 0.38330078 0.5073242
vt 0.34228516 0.48706055
vt 0.35913086 0.4658203
vt 0.40454102 0.47460938
vt 0.37060547 0.44702148
vt 0.41625977 0.44335938
vt 0.3779297 0.43017578
vt 0.41625977 0.4255371
vt 0.38500977 0.41992188
vt 0.3918457 0.41430664
vt 0.40161133 0.41186523
vt 0.4099121 0.41577148
vt 0.093444824 0.5078125
vt 0.12939453 0.51953125
vt 0.10491943 0.47265625
vt 0.1348877 0.47998047
vt 0.15576172 0.5229492
vt 0.15539551 0.4831543
vt 0.19067383 0.51904297
vt 0.18725586 0.48242188
vt 0.21838379 0.5107422
vt 0.21081543 0.47924805
vt 0.24707031 0.49389648
vt 0.23242188 0.4729004
vt 0.2553711 0.48388672
vt 0.24182129 0.4699707
vt 0.2565918 0.4777832
vt 0.25317383 0.47265625
vt 0.24682617 0.4699707
vt 0.53564453 0.057800293
vt 0.53564453 0.04711914
vt 0.5410156 0.040649414
vt 0.9399414 0.2084961
vt 0.94628906 0.21105957
vt 0.9770508 0.19384766
vt 0.9536133 0.21325684
vt 0.9638672 0.2154541
vt 0.98046875 0.20739746
vt 0.9741211 0.21716309
vt 0.9814453 0.21362305
vt 0.9819336 0.21691895
vt 0.4855957 0.9790039
vt 0.48950195 0.98095703
vt 0.48364258 0.9741211
vt 0.48583984 0.9692383
vt 0.4921875 0.97998047
vt 0.49536133 0.9760742
vt 0.49975586 0.97021484
vt 0.48950195 0.9604492
vt 0.5097656 0.9550781
vt 0.5004883 0.92822266
vt 0.52001953 0.93652344
vt 0.5288086 0.9169922
vt 0.5073242 0.9008789
vt 0.53564453 0.90185547
vt 0.5126953 0.87060547
vt 0.54248047 0.8798828
vt 0.54833984 0.85595703
vt 0.51904297 0.8300781
vt 0.5546875 0.8222656
vt 0.52490234 0.7944336
vt 0.55859375 0.78466797
vt 0.52783203 0.7705078
vt 0.55859375 0.7578125
vt 0.5283203 0.74609375
vt 0.5566406 0.7285156
vt 0.52783203 0.7260742
vt 0.5522461 0.6899414
vt 0.5239258 0.6591797
vt 0.54589844 0.65966797
vt 0.5385742 0.62841797
vt 0.5253906 0.6308594
vt 0.5263672 0.62646484
vt 0.5366211 0.6254883
vt 0.5336914 0.6230469
vt 0.5292969 0.62402344
vt 0.78222656 0.1586914
vt 0.7788086 0.15454102
vt 0.7807617 0.16552734
vt 0.77441406 0.15478516
vt 0.75146484 0.16589355
vt 0.7675781 0.18762207
vt 0.7246094 0.17956543
vt 0.75341797 0.20581055
vt 0.73339844 0.22290039
vt 0.6923828 0.18981934
vt 0.71484375 0.23522949
vt 0.69970703 0.24133301
vt 0.6816406 0.24316406
vt 0.6723633 0.19128418
vt 0.6557617 0.23901367
vt 0.6484375 0.18981934
vt 0.62646484 0.22583008
vt 0.62939453 0.1854248
vt 0.60595703 0.21179199
vt 0.61328125 0.17785645
vt 0.5957031 0.19970703
vt 0.5917969 0.19226074
vt 0.59472656 0.18164062
vt 0.60498047 0.17614746
vt 0.9121094 0.21264648
vt 0.8808594 0.22570801
vt 0.9111328 0.22009277
vt 0.88964844 0.2331543
vt 0.9091797 0.22839355
vt 0.89746094 0.23901367
vt 0.90771484 0.23547363
vt 0.90527344 0.24316406
vt 0.9057617 0.24243164
vt 0.9707031 0.17578125
vt 0.9355469 0.2064209
vt 0.9638672 0.15844727
vt 0.8725586 0.21875
vt 0.86621094 0.21264648
vt 0.9321289 0.20825195
vt 0.8354492 0.028305054
vt 0.8227539 0.040222168
vt 0.8510742 0.019302368
vt 0.87353516 0.016937256
vt 0.86279297 0.01676941
vt 0.8852539 0.01991272
vt 0.96435547 0.1550293
vt 0.96435547 0.1484375
vt 0.9277344 0.20996094
vt 0.9223633 0.21179199
vt 0.9169922 0.21228027
vt 0.86279297 0.20898438
vt 0.86035156 0.20593262
vt 0.8466797 0.19116211
vt 0.859375 0.20385742
vt 0.83154297 0.17419434
vt 0.8203125 0.15478516
vt 0.81396484 0.14111328
vt 0.8095703 0.12646484
vt 0.80566406 0.11022949
vt 0.8051758 0.09454346
vt 0.80810547 0.0715332
vt 0.81396484 0.05593872
vt 0.8955078 0.026046753
vt 0.9042969 0.031707764
vt 0.9145508 0.043426514
vt 0.92333984 0.05331421
vt 0.93408203 0.07067871
vt 0.94433594 0.088256836
vt 0.9555664 0.1159668
vt 0.96191406 0.13623047
vt 0.016479492 0.2121582
vt 0.060638428 0.23083496
vt 0.018585205 0.18896484
vt 0.06573486 0.22729492
vt 0.15222168 0.24597168
vt 0.1574707 0.23596191
vt 0.11444092 0.24133301
vt 0.11016846 0.23242188
vt 0.16137695 0.22790527
vt 0.1640625 0.22058105
vt 0.16577148 0.21435547
vt 0.020690918 0.17797852
vt 0.16662598 0.21008301
vt 0.16674805 0.20715332
vt 0.019836426 0.17468262
vt 0.019424438 0.16918945
vt 0.019714355 0.14794922
vt 0.023406982 0.12298584
vt 0.07305908 0.23083496
vt 0.08459473 0.23364258
vt 0.095336914 0.23413086
vt 0.10522461 0.23364258
vt 0.028579712 0.103027344
vt 0.036834717 0.08288574
vt 0.16845703 0.20581055
vt 0.17456055 0.19689941
vt 0.17907715 0.18859863
vt 0.18322754 0.17944336
vt 0.19018555 0.1595459
vt 0.19348145 0.14440918
vt 0.19543457 0.1303711
vt 0.043914795 0.06945801
vt 0.19677734 0.11248779
vt 0.19555664 0.0947876
vt 0.052001953 0.056243896
vt 0.061828613 0.0446167
vt 0.1932373 0.07757568
vt 0.07067871 0.0357666
vt 0.18859863 0.061523438
vt 0.081726074 0.026977539
vt 0.09661865 0.01902771
vt 0.18139648 0.046539307
vt 0.11065674 0.01448822
vt 0.12408447 0.013015747
vt 0.13769531 0.014549255
vt 0.15100098 0.019256592
vt 0.16308594 0.027175903
vt 0.1730957 0.03552246
vt 0.048034668 0.2388916
vt 0.016098022 0.23425293
vt 0.036865234 0.24523926
vt 0.023529053 0.25195312
vt 0.020965576 0.25317383
vt 0.018463135 0.2536621
vt 0.017120361 0.25024414
vt 0.017623901 0.2524414
vt 0.12194824 0.2529297
vt 0.14794922 0.25390625
vt 0.13171387 0.26635742
vt 0.1427002 0.2631836
vt 0.1348877 0.27075195
vt 0.13586426 0.27197266
vt 0.13781738 0.27026367
vt 0.13671875 0.27148438
vt 0.02053833 0.8300781
vt 0.022750854 0.8359375
vt 0.023635864 0.82128906
vt 0.027053833 0.83984375
vt 0.029754639 0.81347656
vt 0.030670166 0.84277344
vt 0.034606934 0.81103516
vt 0.035461426 0.81103516
vt 0.035339355 0.8076172
vt 0.038024902 0.7988281
vt 0.09265137 0.7416992
vt 0.079711914 0.7480469
vt 0.10205078 0.73779297
vt 0.113708496 0.73535156
vt 0.12695312 0.7338867
vt 0.14501953 0.7363281
vt 0.16125488 0.7416992
vt 0.17333984 0.74902344
vt 0.18237305 0.7573242
vt 0.19372559 0.7729492
vt 0.20153809 0.78808594
vt 0.20605469 0.8051758
vt 0.20812988 0.82177734
vt 0.20812988 0.83447266
vt 0.20581055 0.8486328
vt 0.20202637 0.8613281
vt 0.19812012 0.8720703
vt 0.19165039 0.8833008
vt 0.18444824 0.89404297
vt 0.17700195 0.90234375
vt 0.16394043 0.9135742
vt 0.15454102 0.9194336
vt 0.1451416 0.9243164
vt 0.13024902 0.92822266
vt 0.11798096 0.9301758
vt 0.105163574 0.9291992
vt 0.09185791 0.92626953
vt 0.08117676 0.9213867
vt 0.07092285 0.9160156
vt 0.06060791 0.90722656
vt 0.050720215 0.89697266
vt 0.04220581 0.8823242
vt 0.03704834 0.87060547
vt 0.033966064 0.86083984
vt 0.03213501 0.8520508
vt 0.04208374 0.7910156
vt 0.047912598 0.77978516
vt 0.055145264 0.77001953
vt 0.060394287 0.7636719
vt 0.06994629 0.7558594
vt 0.9741211 0.6777344
vt 0.9716797 0.67285156
vt 0.97509766 0.6826172
vt 0.9746094 0.68847656
vt 0.97314453 0.6933594
vt 0.9711914 0.69628906
vt 0.93310547 0.76953125
vt 0.9448242 0.7597656
vt 0.92089844 0.7763672
vt 0.9082031 0.78027344
vt 0.95214844 0.75097656
vt 0.9580078 0.74316406
vt 0.8964844 0.78222656
vt 0.88183594 0.7817383
vt 0.8671875 0.7788086
vt 0.8540039 0.7734375
vt 0.9628906 0.73339844
vt 0.96875 0.71728516
vt 0.8417969 0.76660156
vt 0.8300781 0.75634766
vt 0.9711914 0.7050781
vt 0.8203125 0.74560547
vt 0.81152344 0.73291016
vt 0.8046875 0.7182617
vt 0.7998047 0.7001953
vt 0.96972656 0.66308594
vt 0.7963867 0.68066406
vt 0.96728516 0.65283203
vt 0.9628906 0.6425781
vt 0.7973633 0.6582031
vt 0.9580078 0.6323242
vt 0.80126953 0.6430664
vt 0.9511719 0.62158203
vt 0.94091797 0.6088867
vt 0.80810547 0.6274414
vt 0.81933594 0.61279297
vt 0.8334961 0.6020508
vt 0.85058594 0.5932617
vt 0.86816406 0.5878906
vt 0.8881836 0.5854492
vt 0.90625 0.5883789
vt 0.91552734 0.5917969
vt 0.9272461 0.59814453
vt 0.6459961 0.8691406
vt 0.72509766 0.8779297
vt 0.6665039 0.8959961
vt 0.6904297 0.92089844
vt 0.74902344 0.9199219
vt 0.7216797 0.9453125
vt 0.75390625 0.96240234
vt 0.7685547 0.94677734
vt 0.7729492 0.9692383
vt 0.77734375 0.95751953
vt 0.77978516 0.9614258
vt 0.77685547 0.9682617
vt 0.7788086 0.9658203
vt 0.4362793 0.82373047
vt 0.4230957 0.81933594
vt 0.45239258 0.83251953
vt 0.46166992 0.8417969
vt 0.41015625 0.8173828
vt 0.46801758 0.85058594
vt 0.47314453 0.86328125
vt 0.39379883 0.8183594
vt 0.47583008 0.87353516
vt 0.37719727 0.8222656
vt 0.4777832 0.88623047
vt 0.36547852 0.8276367
vt 0.47802734 0.8964844
vt 0.4753418 0.9116211
vt 0.35229492 0.8359375
vt 0.34155273 0.84521484
vt 0.3310547 0.86035156
vt 0.3244629 0.8774414
vt 0.4724121 0.9223633
vt 0.4675293 0.93408203
vt 0.32128906 0.89160156
vt 0.31982422 0.91015625
vt 0.46240234 0.9433594
vt 0.32177734 0.92529297
vt 0.45703125 0.95166016
vt 0.44921875 0.96191406
vt 0.44213867 0.96777344
vt 0.4326172 0.9746094
vt 0.42260742 0.98046875
vt 0.32421875 0.9375
vt 0.32983398 0.9506836
vt 0.4140625 0.9838867
vt 0.40161133 0.98779297
vt 0.3918457 0.98828125
vt 0.33520508 0.9604492
vt 0.34179688 0.9682617
vt 0.38183594 0.98779297
vt 0.37426758 0.98583984
vt 0.3491211 0.9741211
vt 0.36279297 0.9814453
vt 0.33081055 0.3935547
vt 0.34985352 0.39038086
vt 0.3149414 0.39331055
vt 0.3010254 0.38964844
vt 0.28393555 0.38085938
vt 0.26586914 0.36401367
vt 0.36376953 0.38549805
vt 0.39233398 0.36865234
vt 0.24914551 0.3413086
vt 0.23706055 0.3166504
vt 0.42089844 0.3449707
vt 0.22668457 0.2849121
vt 0.43676758 0.32983398
vt 0.22009277 0.25341797
vt 0.4506836 0.31420898
vt 0.4645996 0.29736328
vt 0.21789551 0.23986816
vt 0.2163086 0.22351074
vt 0.47705078 0.2800293
vt 0.2142334 0.1998291
vt 0.4873047 0.2644043
vt 0.21459961 0.18493652
vt 0.21594238 0.16564941
vt 0.4970703 0.24853516
vt 0.22009277 0.13757324
vt 0.50634766 0.2310791
vt 0.5136719 0.21435547
vt 0.22314453 0.12310791
vt 0.51904297 0.19970703
vt 0.22680664 0.109680176
vt 0.2322998 0.09503174
vt 0.52197266 0.18811035
vt 0.5258789 0.1694336
vt 0.52685547 0.14904785
vt 0.52441406 0.13354492
vt 0.5205078 0.11584473
vt 0.5151367 0.101501465
vt 0.50634766 0.08404541
vt 0.4958496 0.06933594
vt 0.4807129 0.052886963
vt 0.45996094 0.038085938
vt 0.4338379 0.025024414
vt 0.4189453 0.019195557
vt 0.39819336 0.01411438
vt 0.37451172 0.011009216
vt 0.35888672 0.010574341
vt 0.2376709 0.08294678
vt 0.32958984 0.012893677
vt 0.2479248 0.0647583
vt 0.26342773 0.047058105
vt 0.28100586 0.03265381
vt 0.30444336 0.020492554
vt 0.28222656 0.83203125
vt 0.28564453 0.8364258
vt 0.28271484 0.8261719
vt 0.29248047 0.8364258
vt 0.28979492 0.8198242
vt 0.3154297 0.82714844
vt 0.3022461 0.80810547
vt 0.34716797 0.8105469
vt 0.3215332 0.7841797
vt 0.3803711 0.7895508
vt 0.34106445 0.7553711
vt 0.40942383 0.7651367
vt 0.3581543 0.7260742
vt 0.43554688 0.73779297
vt 0.37524414 0.69433594
vt 0.46313477 0.69677734
vt 0.39648438 0.65625
vt 0.47705078 0.66845703
vt 0.41503906 0.62158203
vt 0.48706055 0.6381836
vt 0.49291992 0.6152344
vt 0.49853516 0.58984375
vt 0.50341797 0.5605469
vt 0.08087158 0.6953125
vt 0.079711914 0.7006836
vt 0.08605957 0.69091797
vt 0.082092285 0.7036133
vt 0.09301758 0.7050781
vt 0.1071167 0.68603516
vt 0.14831543 0.70751953
vt 0.14709473 0.6748047
vt 0.20617676 0.70458984
vt 0.20397949 0.65722656
vt 0.2590332 0.6953125
vt 0.25878906 0.63623047
vt 0.30664062 0.6826172
vt 0.29882812 0.61865234
vt 0.34887695 0.66552734
vt 0.34106445 0.5966797
vt 0.3864746 0.64453125
vt 0.38183594 0.5703125
vt 0.40576172 0.55029297
vt 0.42236328 0.53125
vt 0.50634766 0.51464844
vt 0.43774414 0.5078125
vt 0.44848633 0.48583984
vt 0.50341797 0.46777344
vt 0.46069336 0.45751953
vt 0.49975586 0.4387207
vt 0.46948242 0.43701172
vt 0.47631836 0.42700195
vt 0.49536133 0.42700195
vt 0.49194336 0.42285156
vt 0.48388672 0.42260742
vt 0.55908203 0.22180176
vt 0.5449219 0.22595215
vt 0.57128906 0.23059082
vt 0.5390625 0.23413086
vt 0.5395508 0.24560547
vt 0.5449219 0.25634766
vt 0.5878906 0.2565918
vt 0.5595703 0.28222656
vt 0.60058594 0.27270508
vt 0.5698242 0.29785156
vt 0.61035156 0.2836914
vt 0.57958984 0.31176758
vt 0.5908203 0.32543945
vt 0.63183594 0.30371094
vt 0.60498047 0.33935547
vt 0.62158203 0.35131836
vt 0.65185547 0.3154297
vt 0.6381836 0.36035156
vt 0.6567383 0.36645508
vt 0.67333984 0.32104492
vt 0.67529297 0.3701172
vt 0.6982422 0.3215332
vt 0.6933594 0.3720703
vt 0.7128906 0.37231445
vt 0.71777344 0.3203125
vt 0.73046875 0.3701172
vt 0.74072266 0.31860352
vt 0.75 0.36572266
vt 0.7807617 0.3564453
vt 0.7739258 0.31323242
vt 0.022003174 0.5463867
vt 0.02017212 0.5498047
vt 0.025466919 0.5439453
vt 0.032043457 0.5439453
vt 0.021026611 0.55322266
vt 0.025848389 0.5551758
vt 0.037597656 0.56103516
vt 0.04272461 0.54541016
vt 0.06878662 0.5732422
vt 0.081848145 0.55029297
vt 0.11010742 0.5878906
vt 0.10925293 0.5522461
vt 0.15136719 0.55371094
vt 0.15124512 0.59814453
vt 0.022460938 0.45092773
vt 0.02017212 0.45385742
vt 0.026473999 0.4489746
vt 0.020507812 0.4572754
vt 0.023956299 0.46118164
vt 0.034240723 0.45117188
vt 0.038879395 0.47509766
vt 0.04623413 0.45507812
vt 0.076660156 0.4645996
vt 0.066589355 0.49389648
vt 0.82373047 0.33740234
vt 0.8198242 0.3005371
vt 0.8432617 0.3251953
vt 0.8623047 0.28344727
vt 0.859375 0.31274414
vt 0.87402344 0.29785156
vt 0.875 0.27685547
vt 0.8823242 0.28710938
vt 0.88427734 0.28295898
vt 0.87890625 0.27685547
vt 0.8823242 0.27954102
vn -0 0 -1
vn -0 0 -1
vn 2.2053719E-06 0 -1
vn -1.1920929E-06 0 -1
vn -0 0 -1
vn -0 0 -1
vn -0 0 -1
vn -0 0 -1
vn -0 0 -1
vn -0 0 -1
vn -0 0 -1
vn -0 0 -1
vn -0 0 -1
vn -0 0 -1
vn -0 0 -1
vn -0 0 -1
vn -0 0 -1
vn -0 0 -1
vn -0 0 -1
vn -0 0 -1
vn -0 0 -1
vn -0 0 -1
vn -0 0 -1
vn -0 0 -1
vn -0 0 -1
vn -0 0 -1
vn -0 0 -1
vn -0 0 -1
vn -0 0 -1
vn -0 0 -1
vn -0 0 -1
vn -0 0 -1
vn -0 0 -1
vn -0 0 -1
vn -0 0 -1
vn -0 0 -1
vn -0 0 -1
vn -0 0 -1
vn -0 0 -1
vn -0 0 -1
vn -0 0 -1
vn -0 0 -1
vn -0 0 -1
vn -0 0 -1
vn -0 0 -1
vn -0 0 -1
vn -0 0 -1
vn -0 0 -1
vn -0 0 -1
vn -0 0 -1
vn -0 0 -1
vn -0 0 -1
vn -0 0 -1
vn -0 0 -1
vn -0 0 -1
vn -0 0 -1
vn -0 0 -1
vn -0 0 -1
vn -0 0 -1
vn -0 0 -1
vn -0 0 -1
vn 2.5629997E-06 0 -1
vn -1.1920929E-06 0 -1
vn -0 0 -1
vn -0 0 -1
vn -0 0 -1
vn -0 0 -1
vn -0 0 -1
vn 1.7285347E-06 0 -1
vn -6.3180923E-06 0 -1
vn 2.8014183E-06 0 -1
vn -0 0 -1
vn -3.3974648E-06 0 -1
vn -0 0 -1
vn -0 0 -1
vn -0 0 -1
vn -0 0 -1
vn -0 0 -1
vn -0 0 -1
vn -0 0 -1
vn -0 0 -1
vn -0 0 -1
vn -0 0 -1
vn -0 0 -1
vn -0 0 -1
vn -0 0 -1
vn -0 0 -1
vn -0 0 -1
vn -0 0 -1
vn -0 0 -1
vn -0 0 -1
vn -0 0 -1
vn -0 0 -1
vn -0 0 -1
vn -0 0 -1
vn -0 0 -1
vn -0 0 -1
vn -0 0 -1
vn -0 0 -1
vn -0 0 -1
vn -0 0 -1
vn -0 0 -1
vn -0 0 -1
vn -0 0 -1
vn -0 0 -1
vn -0 0 -1
vn -0 0 -1
vn -0 0 -1
vn -0 0 -1
vn -0 0 -1
vn -0 0 -1
vn -0 0 -1
vn -0 0 -1
vn -0 0 -1
vn -0 0 -1
vn -0 0 -1
vn -0 0 -1
vn -0 0 -1
vn -0 0 -1
vn -0 0 -1
vn -0 0 -1
vn -0 0 -1
vn -0 0 -1
vn -0 0 -1
vn -0 0 -1
vn -0 0 -1
vn -0 0 -1
vn -0 0 -1
vn -0 0 -1
vn -0 0 -1
vn -0 0 -1
vn -0 0 -1
vn -0 0 -1
vn -0 0 -1
vn -0 0 -1
vn -0 0 -1
vn -0 0 -1
vn -0 0 -1
vn -0 0 -1
vn -0 0 -1
vn -0 0 -1
vn -0 0 -1
vn -0 0 -1
vn -0 0 -1
vn -0 0 -1
vn -0 0 -1
vn -0 0 -1
vn -0 0 -1
vn -0 0 -1
vn -0 0 -1
vn -0 0 -1
vn -0 0 -1
vn -0 0 -1
vn -0 0 -1
vn -0 0 -1
vn -0 0 -1
vn -0 0 -1
vn -0 0 -1
vn -0 0 -1
vn -0 0 -1
vn -0 0 -1
vn -0 0 -1
vn -0 0 -1
vn -0 0 -1
vn -0 0 -1
vn -0 0 -1
vn -0 0 -1
vn -0 0 -1
vn -0 0 -1
vn -0 0 -1
vn -0 0 -1
vn -0 0 -1
vn -0 0 -1
vn -0 0 -1
vn -0 0 -1
vn -0 0 -1
vn -0 0 -1
vn -0 0 -1
vn -0 0 -1
vn -0 0 -1
vn -0 0 -1
vn -0 0 -1
vn -0 0 -1
vn -0 0 -1
vn -0 0 -1
vn -0 0 -1
vn -0 0 -1
vn -0 0 -1
vn -0 0 -1
vn -0 0 -1
vn -0 0 -1
vn -0 0 -1
vn -0 0 -1
vn -0 0 -1
vn -0 0 -1
vn -0 0 -1
vn -0 0 -1
vn -0 0 -1
vn -0 0 -1
vn -0 0 -1
vn -0 0 -1
vn -0 0 -1
vn -0 0 -1
vn -0 0 -1
vn -0 0 -1
vn -0 0 -1
vn -0 0 -1
vn -0 0 -1
vn -0 0 -1
vn -0 0 -1
vn -1.9669533E-06 0 -1
vn -0 0 -1
vn -0 0 -1
vn -0 0 -1
vn -0 0 -1
vn -0 0 -1
vn -0 0 -1
vn -0 0 -1
vn -0 0 -1
vn -0 0 -1
vn -0 0 -1
vn -0 0 -1
vn -0 0 -1
vn -0 0 -1
vn -0 0 -1
vn -0 0 -1
vn -0 0 -1
vn -0 0 -1
vn -0 0 -1
vn -1.7285347E-06 0 -1
vn -0 0 -1
vn -0 0 -1
vn -0 0 -1
vn -0 0 -1
vn -0 0 -1
vn -0 0 -1
vn -1.2516975E-06 0 -1
vn -0 0 -1
vn -0 0 -1
vn 1.5497208E-06 0 -1
vn -1.0728836E-06 0 -1
vn -0 0 -1
vn -0 0 -1
vn -0 0 -1
vn -0 0 -1
vn -0 0 -1
vn -0 0 -1
vn -0 0 -1
vn -0 0 -1
vn -0 0 -1
vn -0 0 -1
vn -0 0 -1
vn -0 0 -1
vn -0 0 -1
vn -0 0 -1
vn -0 0 -1
vn -0 0 -1
vn -0 0 -1
vn -0 0 -1
vn -0 0 -1
vn -0 0 -1
vn -0 0 -1
vn -0 0 -1
vn -0 0 -1
vn -0 0 -1
vn -0 0 -1
vn -0 0 -1
vn -0 0 -1
vn -0 0 -1
vn -0 0 -1
vn -0 0 -1
vn -0 0 -1
vn -0 0 -1
vn -0 0 -1
vn -0 0 -1
vn -0 0 -1
vn -0 0 -1
vn -0 0 -1
vn -0 0 -1
vn -0 0 -1
vn -0 0 -1
vn -0 0 -1
vn -0 0 -1
vn -0 0 -1
vn -0 0 -1
vn -0 0 -1
vn -0 0 -1
vn -0 0 -1
vn -0 0 -1
vn -0 0 -1
vn -0 0 -1
vn -0 0 -1
vn -0 0 -1
vn -0 0 -1
vn -0 0 -1
vn -0 0 -1
vn -0 0 -1
vn -0 0 -1
vn -0 0 -1
vn -0 0 -1
vn -0 0 -1
vn -0 0 -1
vn -0 0 -1
vn -0 0 -1
vn -0 0 -1
vn -0 0 -1
vn -1.2516975E-06 0 -1
vn -0 0 -1
vn -0 0 -1
vn -0 0 -1
vn -0 0 -1
vn -0 0 -1
vn -0 0 -1
vn -0 0 -1
vn -0 0 -1
vn -0 0 -1
vn -0 0 -1
vn -0 0 -1
vn -0 0 -1
vn -0 0 -1
vn -1.4722347E-05 0 -1
vn -0 0 -1
vn -0 0 -1
vn -0 0 -1
vn -0 0 -1
vn -4.440546E-05 0 -1
vn -0 0 -1
vn -4.172325E-06 0 -1
vn -0 0 -1
vn -0 0 -1
vn -0 0 -1
vn -0 0 -1
vn 4.827976E-06 0 -1
vn -0 0 -1
vn -0 0 -1
vn -0 0 -1
vn -0 0 -1
vn -5.185604E-06 0 -1
vn -0 0 -1
vn 1.3232231E-05 0 -1
vn -0 0 -1
vn -0 0 -1
vn -0 0 -1
vn -0 0 -1
vn -0 0 -1
vn -0 0 -1
vn -0 0 -1
vn -0 0 -1
vn -0 0 -1
vn -0 0 -1
vn -0 0 -1
vn -0 0 -1
vn -0 0 -1
vn -0 0 -1
vn -0 0 -1
vn -0 0 -1
vn -0 0 -1
vn -0 0 -1
vn -0 0 -1
vn -3.0994415E-06 0 -1
vn 1.2516975E-06 0 -1
vn -0 0 -1
vn -0 0 -1
vn -1.0728836E-06 0 -1
vn -0 0 -1
vn -0 0 -1
vn -0 0 -1
vn -0 0 -1
vn -0 0 -1
vn -0 0 -1
vn -0 0 -1
vn -0 0 -1
vn -0 0 -1
vn -0 0 -1
vn -0 0 -1
vn -0 0 -1
vn -0 0 -1
vn -0 0 -1
vn -0 0 -1
vn -0 0 -1
vn -0 0 -1
vn -0 0 -1
vn -0 0 -1
vn -0 0 -1
vn -0 0 -1
vn -0 0 -1
vn -0 0 -1
vn -0 0 -1
vn -0 0 -1
vn -0 0 -1
vn -0 0 -1
vn 4.5895576E-06 0 -1
vn -2.861023E-06 0 -1
vn -0 0 -1
vn -0 0 -1
vn -0 0 -1
vn -0 0 -1
vn -0 0 -1
vn -0 0 -1
vn -0 0 -1
vn -0 0 -1
vn -0 0 -1
vn -0 0 -1
vn -0 0 -1
vn -0 0 -1
vn -1.3113022E-06 0 -1
vn -4.708767E-06 0 -1
vn -0 0 -1
vn -0 0 -1
vn 2.5629997E-06 0 -1
vn -3.6358833E-06 0 -1
vn -0 0 -1
vn -1.6093254E-06 0 -1
vn -0 0 -1
vn -0 0 -1
vn -0 0 -1
vn -0 0 -1
vn -5.00679E-06 0 -1
vn -0 0 -1
vn -0 0 -1
vn -0 0 -1
vn -0 0 -1
vn -2.3245811E-06 0 -1
vn -0 0 -1
vn -0 0 -1
vn -0 0 -1
vn -0 0 -1
vn -0 0 -1
vn -0 0 -1
vn -0 0 -1
vn -0 0 -1
vn -0 0 -1
vn -6.556511E-06 0 -1
vn -0 0 -1
vn -0 0 -1
vn -0 0 -1
vn -1.4305115E-05 0 -1
vn -0 0 -1
vn 6.198883E-06 0 -1
vn -0 0 -1
vn -0 0 -1
vn -0 0 -1
vn -0 0 -1
vn -0 0 -1
vn -0 0 -1
vn -0 0 -1
vn -0 0 -1
vn -0 0 -1
vn 8.285046E-06 0 -1
vn -0 0 -1
vn 6.735325E-06 0 -1
vn -0 0 -1
vn -0 0 -1
vn -0 0 -1
vn 4.8995018E-05 0 -1
vn -0 0 -1
vn -0 0 -1
vn -0 0 -1
vn 3.027916E-05 0 -1
vn -1.180172E-05 0 -1
vn -0 0 -1
vn -0 0 -1
vn -0 0 -1
vn -0 0 -1
vn -0 0 -1
vn 0.038909912 -0.056030273 -0.9975586
vn 0.0005850792 -0.00084114075 -1
vn 0.00090551376 -0.0013046265 -1
vn -0 0 -1
vn 1.0728836E-06 0 -1
vn -0 0 -1
vn -1.1920929E-06 0 -1
vn -0 0 -1
vn -0 0 -1
vn -0 0 -1
vn -0 0 -1
vn -0 0 -1
vn -0 0 -1
vn -0 0 -1
vn -0 0 -1
vn -0 0 -1
vn -0 0 -1
vn -0 0 -1
vn -0 0 -1
vn -0 0 -1
vn -0 0 -1
vn -0 0 -1
vn -0 0 -1
vn -0 0 -1
vn -0 0 -1
vn -0 0 -1
vn -0 0 -1
vn -0 0 -1
vn -0 0 -1
vn -0 0 -1
vn -0 0 -1
vn -0 0 -1
vn -0 0 -1
vn -0 0 -1
vn -0 0 -1
vn -4.351139E-06 0 -1
vn 8.404255E-06 0 -1
vn -0 0 -1
vn -0 0 -1
vn -0 0 -1
vn -0 0 -1
vn -0 0 -1
vn -0 0 -1
vn -0 0 -1
vn -0 0 -1
vn -0 0 -1
vn -0 0 -1
vn -0 0 -1
vn -0 0 -1
vn -3.9339066E-06 0 -1
vn -0 0 -1
vn -0 0 -1
vn -0 0 -1
vn -0 0 -1
vn -0 0 -1
vn -0 0 -1
vn -0 0 -1
vn -0 0 -1
vn -0 0 -1
vn -0 0 -1
vn -0 0 -1
vn -0 0 -1
vn -0 0 -1
vn -0 0 -1
vn -0 0 -1
vn -0 0 -1
vn -0 0 -1
vn -0 0 -1
vn -0 0 -1
vn -0 0 -1
vn -0 0 -1
vn -0 0 -1
vn -0 0 -1
vn -0 0 -1
vn -0 0 -1
vn -0 0 -1
vn -0 0 -1
vn -0 0 -1
vn -0 0 -1
vn -0 0 -1
vn -0 0 -1
vn -0 0 -1
vn -0 0 -1
vn -0 0 -1
vn -0 0 -1
vn -0 0 -1
vn -0 0 -1
vn -0 0 -1
vn -0 0 -1
vn -0 0 -1
vn -0 0 -1
vn -0 0 -1
vn -0 0 -1
vn -0 0 -1
vn -0 0 -1
vn -0 0 -1
vn -0 0 -1
vn -0 0 -1
vn -0 0 -1
vn -0 0 -1
vn -0 0 -1
vn -0 0 -1
vn -0 0 -1
vn -0 0 -1
vn -0 0 -1
vn -0 0 -1
vn -0 0 -1
vn -0 0 -1
vn -0 0 -1
vn -0 0 -1
vn -0 0 -1
vn -0 0 -1
vn -0 0 -1
vn -0 0 -1
vn -0 0 -1
vn -0 0 -1
vn -0 0 -1
vn -0 0 -1
vn -0 0 -1
vn -0 0 -1
vn -0 0 -1
vn -0 0 -1
vn -0 0 -1
vn -0 0 -1
vn -0 0 -1
vn -0 0 -1
vn -0 0 -1
vn -0 0 -1
vn -0 0 -1
vn -0 0 -1
vn -0 0 -1
vn -0 0 -1
vn -0 0 -1
vn -0 0 -1
vn -0 0 -1
vn -0 0 -1
vn -0 0 -1
vn -0 0 -1
vn -0 0 -1
vn -0 0 -1
vn -0 0 -1
vn -0 0 -1
vn 2.9802322E-06 0 -1
vn -0 0 -1
vn -0 0 -1
vn -0 0 -1
vn -0 0 -1
vn -0 0 -1
vn -0 0 -1
vn -0 0 -1
vn -0 0 -1
vn -0 0 -1
vn -0 0 -1
vn -0 0 -1
vn -0 0 -1
vn -0 0 -1
vn -0 0 -1
vn -0 0 -1
vn -0 0 -1
vn -0 0 -1
vn -0 0 -1
vn -0 0 -1
vn -0 0 -1
vn -0 0 -1
vn -0 0 -1
vn 2.9206276E-06 0 -1
vn -1.2516975E-06 0 -1
vn -0 0 -1
vn -0 0 -1
vn -0 0 -1
vn -0 0 -1
vn -0 0 -1
vn -0 0 -1
vn -0 0 -1
vn -0 0 -1
vn -0 0 -1
vn -0 0 -1
vn -0 0 -1
vn -0 0 -1
vn -0 0 -1
vn -0 0 -1
vn -0 0 -1
vn -0 0 -1
vn -0 0 -1
vn -0 0 -1
vn -0 0 -1
vn -0 0 -1
vn -0 0 -1
vn -0 0 -1
vn -0 0 -1
vn -0 0 -1
vn -0 0 -1
vn -0 0 -1
vn -0 0 -1
vn -0 0 -1
vn -0 0 -1
vn -0 0 -1
vn -0 0 -1
vn -0 0 -1
vn -0 0 -1
vn -0 0 -1
vn -0 0 -1
vn -0 0 -1
vn -0 0 -1
vn -0 0 -1
vn -0 0 -1
vn -0 0 -1
vn -0 0 -1
vn -0 0 -1
vn -0 0 -1
vn -0 0 -1
vn -0 0 -1
vn -0 0 -1
vn -0 0 -1
vn -0 0 -1
vn -0 0 -1
vn -0 0 -1
vn -0 0 -1
vn -0 0 -1
vn -0 0 -1
vn -0 0 -1
vn -0 0 -1
vn -0 0 -1
vn -0 0 -1
vn -0 0 -1
vn -0 0 -1
vn -0 0 -1
vn -0 0 -1
vn -0 0 -1
vn -0 0 -1
vn -0 0 -1
vn -0 0 -1
vn -0 0 -1
vn -0 0 -1
vn -0 0 -1
vn -0 0 -1
vn -0 0 -1
vn -0 0 -1
vn -0 0 -1
vn -0 0 -1
vn -0 0 -1
vn -1.3709068E-06 0 -1
vn 1.1324883E-06 0 -1
vn -0 0 -1
vn -0 0 -1
vn -0 0 -1
vn -0 0 -1
vn -0 0 -1
vn -0 0 -1
vn -0 0 -1
vn -0 0 -1
vn -0 0 -1
vn -0 0 -1
vn -0 0 -1
vn -0 0 -1
vn -0 0 -1
vn -0 0 -1
vn -0 0 -1
vn -0 0 -1
vn -0 0 -1
vn -0 0 -1
g cPK_20_000230_00_NASSYex_SR_L_SB_0
f 3/3/3 2/2/2 1/1/1
f 4/4/4 2/2/2 3/3/3
f 5/5/5 2/2/2 4/4/4
f 6/6/6 2/2/2 5/5/5
f 7/7/7 2/2/2 6/6/6
f 7/7/7 8/8/8 2/2/2
f 7/7/7 9/9/9 8/8/8
f 10/10/10 9/9/9 7/7/7
f 10/10/10 11/11/11 9/9/9
f 10/10/10 12/12/12 11/11/11
f 10/10/10 13/13/13 12/12/12
f 10/10/10 14/14/14 13/13/13
f 10/10/10 15/15/15 14/14/14
f 10/10/10 16/16/16 15/15/15
f 10/10/10 17/17/17 16/16/16
f 10/10/10 18/18/18 17/17/17
f 10/10/10 19/19/19 18/18/18
f 10/10/10 20/20/20 19/19/19
f 10/10/10 21/21/21 20/20/20
f 10/10/10 22/22/22 21/21/21
f 10/10/10 23/23/23 22/22/22
f 10/10/10 24/24/24 23/23/23
f 25/25/25 24/24/24 10/10/10
f 25/25/25 26/26/26 24/24/24
f 25/25/25 27/27/27 26/26/26
f 25/25/25 28/28/28 27/27/27
f 25/25/25 29/29/29 28/28/28
f 30/30/30 29/29/29 25/25/25
f 31/31/31 29/29/29 30/30/30
f 34/34/34 33/33/33 32/32/32
f 34/34/34 35/35/35 33/33/33
f 36/36/36 35/35/35 34/34/34
f 36/36/36 37/37/37 35/35/35
f 38/38/38 37/37/37 36/36/36
f 39/39/39 37/37/37 38/38/38
f 39/39/39 40/40/40 37/37/37
f 41/41/41 40/40/40 39/39/39
f 42/42/42 40/40/40 41/41/41
f 42/42/42 43/43/43 40/40/40
f 44/44/44 43/43/43 42/42/42
f 44/44/44 45/45/45 43/43/43
f 44/44/44 46/46/46 45/45/45
f 44/44/44 47/47/47 46/46/46
f 44/44/44 48/48/48 47/47/47
f 44/44/44 49/49/49 48/48/48
f 44/44/44 50/50/50 49/49/49
f 51/51/51 50/50/50 44/44/44
f 51/51/51 52/52/52 50/50/50
f 53/53/53 52/52/52 51/51/51
f 54/54/54 52/52/52 53/53/53
f 54/54/54 55/55/55 52/52/52
f 54/54/54 56/56/56 55/55/55
f 54/54/54 57/57/57 56/56/56
f 54/54/54 58/58/58 57/57/57
f 54/54/54 59/59/59 58/58/58
f 54/54/54 60/60/60 59/59/59
f 54/54/54 61/61/61 60/60/60
f 54/54/54 62/62/62 61/61/61
f 54/54/54 63/63/63 62/62/62
f 54/54/54 64/64/64 63/63/63
f 54/54/54 65/65/65 64/64/64
f 54/54/54 66/66/66 65/65/65
f 54/54/54 67/67/67 66/66/66
f 68/68/68 67/67/67 54/54/54
f 69/69/69 67/67/67 68/68/68
f 69/69/69 70/70/70 67/67/67
f 73/73/73 72/72/72 71/71/71
f 74/74/74 72/72/72 73/73/73
f 75/75/75 72/72/72 74/74/74
f 75/75/75 76/76/76 72/72/72
f 77/77/77 76/76/76 75/75/75
f 77/77/77 78/78/78 76/76/76
f 79/79/79 78/78/78 77/77/77
f 79/79/79 80/80/80 78/78/78
f 81/81/81 80/80/80 79/79/79
f 81/81/81 82/82/82 80/80/80
f 83/83/83 82/82/82 81/81/81
f 84/84/84 82/82/82 83/83/83
f 84/84/84 85/85/85 82/82/82
f 86/86/86 85/85/85 84/84/84
f 86/86/86 87/87/87 85/85/85
f 86/86/86 88/88/88 87/87/87
f 89/89/89 88/88/88 86/86/86
f 89/89/89 90/90/90 88/88/88
f 91/91/91 90/90/90 89/89/89
f 91/91/91 92/92/92 90/90/90
f 93/93/93 92/92/92 91/91/91
f 93/93/93 94/94/94 92/92/92
f 95/95/95 94/94/94 93/93/93
f 95/95/95 96/96/96 94/94/94
f 95/95/95 97/97/97 96/96/96
f 98/98/98 97/97/97 95/95/95
f 98/98/98 99/99/99 97/97/97
f 98/98/98 100/100/100 99/99/99
f 98/98/98 101/101/101 100/100/100
f 98/98/98 102/102/102 101/101/101
f 98/98/98 103/103/103 102/102/102
f 103/103/103 105/105/105 104/104/104
f 105/105/105 103/103/103 98/98/98
f 108/108/108 107/107/107 106/106/106
f 109/109/109 107/107/107 108/108/108
f 109/109/109 110/110/110 107/107/107
f 111/111/111 110/110/110 109/109/109
f 111/111/111 112/112/112 110/110/110
f 113/113/113 112/112/112 111/111/111
f 114/114/114 112/112/112 113/113/113
f 114/114/114 115/115/115 112/112/112
f 116/116/116 115/115/115 114/114/114
f 116/116/116 117/117/117 115/115/115
f 118/118/118 117/117/117 116/116/116
f 119/119/119 117/117/117 118/118/118
f 120/120/120 117/117/117 119/119/119
f 121/121/121 117/117/117 120/120/120
f 124/124/124 123/123/123 122/122/122
f 124/124/124 125/125/125 123/123/123
f 126/126/126 125/125/125 124/124/124
f 126/126/126 127/127/127 125/125/125
f 128/128/128 127/127/127 126/126/126
f 128/128/128 129/129/129 127/127/127
f 130/130/130 129/129/129 128/128/128
f 130/130/130 131/131/131 129/129/129
f 130/130/130 132/132/132 131/131/131
f 133/133/133 132/132/132 130/130/130
f 133/133/133 134/134/134 132/132/132
f 135/135/135 134/134/134 133/133/133
f 135/135/135 136/136/136 134/134/134
f 137/137/137 136/136/136 135/135/135
f 137/137/137 138/138/138 136/136/136
f 139/139/139 138/138/138 137/137/137
f 139/139/139 140/140/140 138/138/138
f 139/139/139 141/141/141 140/140/140
f 142/142/142 141/141/141 139/139/139
f 142/142/142 143/143/143 141/141/141
f 144/144/144 143/143/143 142/142/142
f 145/145/145 143/143/143 144/144/144
f 146/146/146 143/143/143 145/145/145
f 147/147/147 143/143/143 146/146/146
f 150/150/150 149/149/149 148/148/148
f 150/150/150 151/151/151 149/149/149
f 152/152/152 151/151/151 150/150/150
f 152/152/152 153/153/153 151/151/151
f 152/152/152 154/154/154 153/153/153
f 155/155/155 154/154/154 152/152/152
f 155/155/155 156/156/156 154/154/154
f 157/157/157 156/156/156 155/155/155
f 157/157/157 158/158/158 156/156/156
f 159/159/159 158/158/158 157/157/157
f 159/159/159 160/160/160 158/158/158
f 159/159/159 161/161/161 160/160/160
f 162/162/162 161/161/161 159/159/159
f 163/163/163 161/161/161 162/162/162
f 163/163/163 164/164/164 161/161/161
f 163/163/163 165/165/165 164/164/164
f 166/166/166 165/165/165 163/163/163
f 167/167/167 165/165/165 166/166/166
f 167/167/167 168/168/168 165/165/165
f 169/169/169 168/168/168 167/167/167
f 169/169/169 170/170/170 168/168/168
f 171/171/171 170/170/170 169/169/169
f 171/171/171 172/172/172 170/170/170
f 173/173/173 172/172/172 171/171/171
f 173/173/173 174/174/174 172/172/172
f 175/175/175 174/174/174 173/173/173
f 175/175/175 176/176/176 174/174/174
f 177/177/177 176/176/176 175/175/175
f 177/177/177 178/178/178 176/176/176
f 179/179/179 178/178/178 177/177/177
f 179/179/179 180/180/180 178/178/178
f 181/181/181 180/180/180 179/179/179
f 181/181/181 182/182/182 180/180/180
f 183/183/183 182/182/182 181/181/181
f 183/183/183 184/184/184 182/182/182
f 183/183/183 185/185/185 184/184/184
f 183/183/183 186/186/186 185/185/185
f 187/187/187 186/186/186 183/183/183
f 190/190/190 189/189/189 188/188/188
f 191/191/191 189/189/189 190/190/190
f 191/191/191 192/192/192 189/189/189
f 193/193/193 192/192/192 191/191/191
f 193/193/193 194/194/194 192/192/192
f 195/195/195 194/194/194 193/193/193
f 195/195/195 196/196/196 194/194/194
f 197/197/197 196/196/196 195/195/195
f 197/197/197 198/198/198 196/196/196
f 199/199/199 198/198/198 197/197/197
f 199/199/199 200/200/200 198/198/198
f 201/201/201 200/200/200 199/199/199
f 202/202/202 200/200/200 201/201/201
f 202/202/202 203/203/203 200/200/200
f 204/204/204 203/203/203 202/202/202
f 204/204/204 205/205/205 203/203/203
f 206/206/206 205/205/205 204/204/204
f 206/206/206 207/207/207 205/205/205
f 208/208/208 207/207/207 206/206/206
f 209/209/209 207/207/207 208/208/208
f 210/210/210 207/207/207 209/209/209
f 207/207/207 210/210/210 211/211/211
f 214/214/214 213/213/213 212/212/212
f 215/215/215 213/213/213 214/214/214
f 215/215/215 216/216/216 213/213/213
f 217/217/217 216/216/216 215/215/215
f 217/217/217 218/218/218 216/216/216
f 219/219/219 218/218/218 217/217/217
f 219/219/219 220/220/220 218/218/218
f 221/221/221 220/220/220 219/219/219
f 221/221/221 222/222/222 220/220/220
f 223/223/223 222/222/222 221/221/221
f 223/223/223 224/224/224 222/222/222
f 225/225/225 224/224/224 223/223/223
f 225/225/225 226/226/226 224/224/224
f 225/225/225 227/227/227 226/226/226
f 225/225/225 228/228/228 227/227/227
f 229/229/229 32/32/32 33/33/33
f 230/230/230 32/32/32 229/229/229
f 231/231/231 32/32/32 230/230/230
f 234/234/234 233/233/233 232/232/232
f 234/234/234 235/235/235 233/233/233
f 234/234/234 236/236/236 235/235/235
f 237/237/237 236/236/236 234/234/234
f 237/237/237 238/238/238 236/236/236
f 239/239/239 238/238/238 237/237/237
f 240/240/240 238/238/238 239/239/239
f 243/243/243 242/242/242 241/241/241
f 244/244/244 242/242/242 243/243/243
f 244/244/244 245/245/245 242/242/242
f 244/244/244 246/246/246 245/245/245
f 244/244/244 247/247/247 246/246/246
f 248/248/248 247/247/247 244/244/244
f 248/248/248 249/249/249 247/247/247
f 250/250/250 249/249/249 248/248/248
f 250/250/250 251/251/251 249/249/249
f 250/250/250 252/252/252 251/251/251
f 253/253/253 252/252/252 250/250/250
f 253/253/253 254/254/254 252/252/252
f 255/255/255 254/254/254 253/253/253
f 255/255/255 256/256/256 254/254/254
f 255/255/255 257/257/257 256/256/256
f 258/258/258 257/257/257 255/255/255
f 258/258/258 259/259/259 257/257/257
f 260/260/260 259/259/259 258/258/258
f 260/260/260 261/261/261 259/259/259
f 262/262/262 261/261/261 260/260/260
f 262/262/262 263/263/263 261/261/261
f 264/264/264 263/263/263 262/262/262
f 264/264/264 265/265/265 263/263/263
f 266/266/266 265/265/265 264/264/264
f 266/266/266 267/267/267 265/265/265
f 268/268/268 267/267/267 266/266/266
f 268/268/268 269/269/269 267/267/267
f 268/268/268 270/270/270 269/269/269
f 271/271/271 270/270/270 268/268/268
f 272/272/272 270/270/270 271/271/271
f 272/272/272 273/273/273 270/270/270
f 272/272/272 274/274/274 273/273/273
f 275/275/275 274/274/274 272/272/272
f 278/278/278 277/277/277 276/276/276
f 278/278/278 279/279/279 277/277/277
f 278/278/278 280/280/280 279/279/279
f 281/281/281 280/280/280 278/278/278
f 281/281/281 282/282/282 280/280/280
f 283/283/283 282/282/282 281/281/281
f 284/284/284 282/282/282 283/283/283
f 284/284/284 285/285/285 282/282/282
f 286/286/286 285/285/285 284/284/284
f 287/287/287 285/285/285 286/286/286
f 288/288/288 285/285/285 287/287/287
f 288/288/288 289/289/289 285/285/285
f 290/290/290 289/289/289 288/288/288
f 290/290/290 291/291/291 289/289/289
f 292/292/292 291/291/291 290/290/290
f 292/292/292 293/293/293 291/291/291
f 294/294/294 293/293/293 292/292/292
f 294/294/294 295/295/295 293/293/293
f 296/296/296 295/295/295 294/294/294
f 297/297/297 295/295/295 296/296/296
f 298/298/298 295/295/295 297/297/297
f 299/299/299 295/295/295 298/298/298
f 302/302/302 301/301/301 300/300/300
f 302/302/302 303/303/303 301/301/301
f 304/304/304 303/303/303 302/302/302
f 304/304/304 305/305/305 303/303/303
f 306/306/306 305/305/305 304/304/304
f 306/306/306 307/307/307 305/305/305
f 308/308/308 307/307/307 306/306/306
f 232/232/232 309/309/309 234/234/234
f 310/310/310 309/309/309 232/232/232
f 310/310/310 311/311/311 309/309/309
f 312/312/312 300/300/300 301/301/301
f 313/313/313 300/300/300 312/312/312
f 314/314/314 311/311/311 310/310/310
f 317/317/317 316/316/316 315/315/315
f 320/320/320 319/319/319 318/318/318
f 311/311/311 322/322/322 321/321/321
f 324/324/324 314/314/314 323/323/323
f 300/300/300 324/324/324 325/325/325
f 327/327/327 313/313/313 326/326/326
f 330/330/330 329/329/329 328/328/328
f 332/332/332 330/330/330 331/331/331
f 334/334/334 332/332/332 333/333/333
f 336/336/336 334/334/334 335/335/335
f 316/316/316 336/336/336 337/337/337
f 339/339/339 320/320/320 338/338/338
f 341/341/341 339/339/339 340/340/340
f 343/343/343 341/341/341 342/342/342
f 345/345/345 343/343/343 344/344/344
f 327/327/327 300/300/300 313/313/313
f 329/329/329 300/300/300 327/327/327
f 324/324/324 311/311/311 314/314/314
f 317/317/317 336/336/336 316/316/316
f 320/320/320 317/317/317 319/319/319
f 320/320/320 336/336/336 317/317/317
f 339/339/339 336/336/336 320/320/320
f 341/341/341 336/336/336 339/339/339
f 341/341/341 334/334/334 336/336/336
f 343/343/343 334/334/334 341/341/341
f 343/343/343 332/332/332 334/334/334
f 343/343/343 330/330/330 332/332/332
f 345/345/345 330/330/330 343/343/343
f 345/345/345 329/329/329 330/330/330
f 345/345/345 300/300/300 329/329/329
f 322/322/322 300/300/300 345/345/345
f 311/311/311 300/300/300 322/322/322
f 300/300/300 311/311/311 324/324/324
f 348/348/348 347/347/347 346/346/346
f 348/348/348 349/349/349 347/347/347
f 352/352/352 351/351/351 350/350/350
f 353/353/353 351/351/351 352/352/352
f 353/353/353 354/354/354 351/351/351
f 353/353/353 355/355/355 354/354/354
f 353/353/353 356/356/356 355/355/355
f 357/357/357 349/349/349 348/348/348
f 353/353/353 358/358/358 356/356/356
f 353/353/353 359/359/359 358/358/358
f 360/360/360 349/349/349 357/357/357
f 361/361/361 349/349/349 360/360/360
f 362/362/362 349/349/349 361/361/361
f 363/363/363 349/349/349 362/362/362
f 363/363/363 364/364/364 349/349/349
f 363/363/363 365/365/365 364/364/364
f 363/363/363 366/366/366 365/365/365
f 363/363/363 367/367/367 366/366/366
f 363/363/363 353/353/353 367/367/367
f 363/363/363 359/359/359 353/353/353
f 368/368/368 359/359/359 363/363/363
f 369/369/369 359/359/359 368/368/368
f 369/369/369 370/370/370 359/359/359
f 369/369/369 371/371/371 370/370/370
f 369/369/369 372/372/372 371/371/371
f 369/369/369 373/373/373 372/372/372
f 369/369/369 374/374/374 373/373/373
f 369/369/369 375/375/375 374/374/374
f 369/369/369 376/376/376 375/375/375
f 377/377/377 376/376/376 369/369/369
f 377/377/377 378/378/378 376/376/376
f 377/377/377 379/379/379 378/378/378
f 380/380/380 379/379/379 377/377/377
f 381/381/381 379/379/379 380/380/380
f 381/381/381 382/382/382 379/379/379
f 383/383/383 382/382/382 381/381/381
f 383/383/383 384/384/384 382/382/382
f 385/385/385 384/384/384 383/383/383
f 386/386/386 384/384/384 385/385/385
f 386/386/386 387/387/387 384/384/384
f 388/388/388 387/387/387 386/386/386
f 389/389/389 387/387/387 388/388/388
f 390/390/390 387/387/387 389/389/389
f 391/391/391 387/387/387 390/390/390
f 393/393/393 391/391/391 392/392/392
f 393/393/393 387/387/387 391/391/391
f 394/394/394 346/346/346 347/347/347
f 394/394/394 395/395/395 346/346/346
f 396/396/396 395/395/395 394/394/394
f 397/397/397 395/395/395 396/396/396
f 398/398/398 395/395/395 397/397/397
f 399/399/399 395/395/395 398/398/398
f 399/399/399 400/400/400 395/395/395
f 401/401/401 400/400/400 399/399/399
f 350/350/350 402/402/402 352/352/352
f 403/403/403 402/402/402 350/350/350
f 403/403/403 404/404/404 402/402/402
f 405/405/405 404/404/404 403/403/403
f 405/405/405 406/406/406 404/404/404
f 405/405/405 407/407/407 406/406/406
f 408/408/408 407/407/407 405/405/405
f 409/409/409 407/407/407 408/408/408
f 412/412/412 411/411/411 410/410/410
f 412/412/412 413/413/413 411/411/411
f 414/414/414 413/413/413 412/412/412
f 414/414/414 415/415/415 413/413/413
f 416/416/416 415/415/415 414/414/414
f 417/417/417 415/415/415 416/416/416
f 419/419/419 417/417/417 418/418/418
f 422/422/422 421/421/421 420/420/420
f 424/424/424 422/422/422 423/423/423
f 426/426/426 424/424/424 425/425/425
f 428/428/428 426/426/426 427/427/427
f 430/430/430 428/428/428 429/429/429
f 432/432/432 430/430/430 431/431/431
f 434/434/434 432/432/432 433/433/433
f 436/436/436 434/434/434 435/435/435
f 438/438/438 436/436/436 437/437/437
f 440/440/440 438/438/438 439/439/439
f 442/442/442 440/440/440 441/441/441
f 444/444/444 442/442/442 443/443/443
f 446/446/446 444/444/444 445/445/445
f 448/448/448 446/446/446 447/447/447
f 450/450/450 448/448/448 449/449/449
f 452/452/452 450/450/450 451/451/451
f 454/454/454 452/452/452 453/453/453
f 456/456/456 419/419/419 455/455/455
f 458/458/458 456/456/456 457/457/457
f 421/421/421 458/458/458 459/459/459
f 426/426/426 422/422/422 424/424/424
f 428/428/428 422/422/422 426/426/426
f 430/430/430 422/422/422 428/428/428
f 432/432/432 422/422/422 430/430/430
f 432/432/432 421/421/421 422/422/422
f 432/432/432 458/458/458 421/421/421
f 432/432/432 456/456/456 458/458/458
f 434/434/434 456/456/456 432/432/432
f 434/434/434 419/419/419 456/456/456
f 434/434/434 417/417/417 419/419/419
f 436/436/436 417/417/417 434/434/434
f 438/438/438 417/417/417 436/436/436
f 438/438/438 415/415/415 417/417/417
f 440/440/440 415/415/415 438/438/438
f 440/440/440 454/454/454 415/415/415
f 440/440/440 452/452/452 454/454/454
f 440/440/440 450/450/450 452/452/452
f 440/440/440 448/448/448 450/450/450
f 442/442/442 448/448/448 440/440/440
f 442/442/442 446/446/446 448/448/448
f 444/444/444 446/446/446 442/442/442
f 462/462/462 461/461/461 460/460/460
f 463/463/463 461/461/461 462/462/462
f 464/464/464 461/461/461 463/463/463
f 465/465/465 461/461/461 464/464/464
f 468/468/468 467/467/467 466/466/466
f 469/469/469 467/467/467 468/468/468
f 469/469/469 470/470/470 467/467/467
f 469/469/469 471/471/471 470/470/470
f 472/472/472 471/471/471 469/469/469
f 473/473/473 471/471/471 472/472/472
f 474/474/474 471/471/471 473/473/473
f 475/475/475 471/471/471 474/474/474
f 475/475/475 476/476/476 471/471/471
f 475/475/475 477/477/477 476/476/476
f 478/478/478 477/477/477 475/475/475
f 479/479/479 477/477/477 478/478/478
f 479/479/479 480/480/480 477/477/477
f 479/479/479 465/465/465 480/480/480
f 481/481/481 465/465/465 479/479/479
f 482/482/482 465/465/465 481/481/481
f 483/483/483 465/465/465 482/482/482
f 483/483/483 461/461/461 465/465/465
f 484/484/484 461/461/461 483/483/483
f 484/484/484 485/485/485 461/461/461
f 486/486/486 485/485/485 484/484/484
f 486/486/486 487/487/487 485/485/485
f 486/486/486 488/488/488 487/487/487
f 489/489/489 488/488/488 486/486/486
f 489/489/489 490/490/490 488/488/488
f 491/491/491 490/490/490 489/489/489
f 491/491/491 492/492/492 490/490/490
f 491/491/491 493/493/493 492/492/492
f 494/494/494 493/493/493 491/491/491
f 495/495/495 493/493/493 494/494/494
f 496/496/496 493/493/493 495/495/495
f 497/497/497 493/493/493 496/496/496
f 498/498/498 493/493/493 497/497/497
f 499/499/499 493/493/493 498/498/498
f 500/500/500 493/493/493 499/499/499
f 501/501/501 493/493/493 500/500/500
f 502/502/502 493/493/493 501/501/501
f 106/106/106 503/503/503 108/108/108
f 504/504/504 503/503/503 106/106/106
f 504/504/504 505/505/505 503/503/503
f 504/504/504 506/506/506 505/505/505
f 507/507/507 506/506/506 504/504/504
f 507/507/507 508/508/508 506/506/506
f 507/507/507 509/509/509 508/508/508
f 510/510/510 509/509/509 507/507/507
f 510/510/510 511/511/511 509/509/509
f 512/512/512 511/511/511 510/510/510
f 513/513/513 511/511/511 512/512/512
f 513/513/513 514/514/514 511/511/511
f 514/514/514 513/513/513 515/515/515
f 518/518/518 517/517/517 516/516/516
f 519/519/519 517/517/517 518/518/518
f 519/519/519 520/520/520 517/517/517
f 521/521/521 520/520/520 519/519/519
f 522/522/522 520/520/520 521/521/521
f 522/522/522 523/523/523 520/520/520
f 524/524/524 523/523/523 522/522/522
f 524/524/524 525/525/525 523/523/523
f 526/526/526 525/525/525 524/524/524
f 526/526/526 527/527/527 525/525/525
f 528/528/528 527/527/527 526/526/526
f 529/529/529 527/527/527 528/528/528
f 529/529/529 530/530/530 527/527/527
f 529/529/529 531/531/531 530/530/530
f 529/529/529 532/532/532 531/531/531
f 529/529/529 533/533/533 532/532/532
f 534/534/534 533/533/533 529/529/529
f 535/535/535 533/533/533 534/534/534
f 535/535/535 536/536/536 533/533/533
f 535/535/535 537/537/537 536/536/536
f 538/538/538 537/537/537 535/535/535
f 538/538/538 539/539/539 537/537/537
f 540/540/540 539/539/539 538/538/538
f 541/541/541 539/539/539 540/540/540
f 542/542/542 539/539/539 541/541/541
f 543/543/543 539/539/539 542/542/542
f 544/544/544 539/539/539 543/543/543
f 544/544/544 545/545/545 539/539/539
f 544/544/544 546/546/546 545/545/545
f 547/547/547 546/546/546 544/544/544
f 548/548/548 546/546/546 547/547/547
f 549/549/549 546/546/546 548/548/548
f 549/549/549 550/550/550 546/546/546
f 549/549/549 551/551/551 550/550/550
f 552/552/552 551/551/551 549/549/549
f 553/553/553 551/551/551 552/552/552
f 553/553/553 554/554/554 551/551/551
f 555/555/555 554/554/554 553/553/553
f 558/558/558 557/557/557 556/556/556
f 559/559/559 557/557/557 558/558/558
f 560/560/560 557/557/557 559/559/559
f 561/561/561 557/557/557 560/560/560
f 561/561/561 562/562/562 557/557/557
f 561/561/561 563/563/563 562/562/562
f 564/564/564 563/563/563 561/561/561
f 565/565/565 563/563/563 564/564/564
f 565/565/565 566/566/566 563/563/563
f 567/567/567 566/566/566 565/565/565
f 567/567/567 568/568/568 566/566/566
f 569/569/569 568/568/568 567/567/567
f 569/569/569 570/570/570 568/568/568
f 569/569/569 571/571/571 570/570/570
f 572/572/572 571/571/571 569/569/569
f 573/573/573 571/571/571 572/572/572
f 573/573/573 574/574/574 571/571/571
f 575/575/575 574/574/574 573/573/573
f 575/575/575 576/576/576 574/574/574
f 577/577/577 576/576/576 575/575/575
f 578/578/578 576/576/576 577/577/577
f 578/578/578 579/579/579 576/576/576
f 580/580/580 579/579/579 578/578/578
f 580/580/580 581/581/581 579/579/579
f 580/580/580 582/582/582 581/581/581
f 583/583/583 582/582/582 580/580/580
f 583/583/583 584/584/584 582/582/582
f 585/585/585 584/584/584 583/583/583
f 586/586/586 584/584/584 585/585/585
f 586/586/586 587/587/587 584/584/584
f 586/586/586 588/588/588 587/587/587
f 586/586/586 589/589/589 588/588/588
f 586/586/586 590/590/590 589/589/589
f 586/586/586 591/591/591 590/590/590
f 586/586/586 592/592/592 591/591/591
f 586/586/586 593/593/593 592/592/592
f 586/586/586 594/594/594 593/593/593
f 586/586/586 595/595/595 594/594/594
f 586/586/586 596/596/596 595/595/595
f 586/586/586 597/597/597 596/596/596
f 586/586/586 598/598/598 597/597/597
f 586/586/586 599/599/599 598/598/598
f 586/586/586 600/600/600 599/599/599
f 586/586/586 601/601/601 600/600/600
f 602/602/602 601/601/601 586/586/586
f 602/602/602 603/603/603 601/601/601
f 604/604/604 603/603/603 602/602/602
f 605/605/605 603/603/603 604/604/604
f 606/606/606 603/603/603 605/605/605
f 607/607/607 603/603/603 606/606/606
f 610/610/610 609/609/609 608/608/608
f 610/610/610 611/611/611 609/609/609
f 612/612/612 611/611/611 610/610/610
f 612/612/612 613/613/613 611/611/611
f 614/614/614 613/613/613 612/612/612
f 614/614/614 615/615/615 613/613/613
f 616/616/616 615/615/615 614/614/614
f 616/616/616 617/617/617 615/615/615
f 618/618/618 617/617/617 616/616/616
f 618/618/618 619/619/619 617/617/617
f 620/620/620 619/619/619 618/618/618
f 620/620/620 621/621/621 619/619/619
f 622/622/622 621/621/621 620/620/620
f 622/622/622 623/623/623 621/621/621
f 624/624/624 623/623/623 622/622/622
f 624/624/624 625/625/625 623/623/623
f 626/626/626 625/625/625 624/624/624
f 626/626/626 627/627/627 625/625/625
f 626/626/626 628/628/628 627/627/627
f 626/626/626 629/629/629 628/628/628
f 626/626/626 630/630/630 629/629/629
f 633/633/633 632/632/632 631/631/631
f 633/633/633 634/634/634 632/632/632
f 633/633/633 635/635/635 634/634/634
f 636/636/636 635/635/635 633/633/633
f 636/636/636 637/637/637 635/635/635
f 638/638/638 637/637/637 636/636/636
f 638/638/638 639/639/639 637/637/637
f 640/640/640 639/639/639 638/638/638
f 640/640/640 641/641/641 639/639/639
f 642/642/642 641/641/641 640/640/640
f 642/642/642 643/643/643 641/641/641
f 644/644/644 643/643/643 642/642/642
f 644/644/644 645/645/645 643/643/643
f 646/646/646 645/645/645 644/644/644
f 646/646/646 647/647/647 645/645/645
f 648/648/648 647/647/647 646/646/646
f 648/648/648 626/626/626 647/647/647
f 648/648/648 630/630/630 626/626/626
f 649/649/649 630/630/630 648/648/648
f 650/650/650 630/630/630 649/649/649
f 650/650/650 651/651/651 630/630/630
f 652/652/652 651/651/651 650/650/650
f 653/653/653 651/651/651 652/652/652
f 653/653/653 654/654/654 651/651/651
f 655/655/655 654/654/654 653/653/653
f 655/655/655 656/656/656 654/654/654
f 657/657/657 656/656/656 655/655/655
f 658/658/658 656/656/656 657/657/657
f 658/658/658 659/659/659 656/656/656
f 658/658/658 660/660/660 659/659/659
f 661/661/661 660/660/660 658/658/658
f 664/664/664 663/663/663 662/662/662
f 664/664/664 665/665/665 663/663/663
f 664/664/664 666/666/666 665/665/665
f 664/664/664 667/667/667 666/666/666
f 668/668/668 667/667/667 664/664/664
f 668/668/668 669/669/669 667/667/667
f 670/670/670 669/669/669 668/668/668
f 670/670/670 671/671/671 669/669/669
f 672/672/672 671/671/671 670/670/670
f 672/672/672 673/673/673 671/671/671
f 672/672/672 674/674/674 673/673/673
f 675/675/675 674/674/674 672/672/672
f 675/675/675 676/676/676 674/674/674
f 675/675/675 677/677/677 676/676/676
f 678/678/678 677/677/677 675/675/675
f 678/678/678 679/679/679 677/677/677
f 678/678/678 680/680/680 679/679/679
f 681/681/681 680/680/680 678/678/678
f 681/681/681 682/682/682 680/680/680
f 683/683/683 682/682/682 681/681/681
f 683/683/683 684/684/684 682/682/682
f 683/683/683 685/685/685 684/684/684
f 686/686/686 685/685/685 683/683/683
f 686/686/686 687/687/687 685/685/685
f 688/688/688 687/687/687 686/686/686
f 688/688/688 689/689/689 687/687/687
f 688/688/688 690/690/690 689/689/689
f 691/691/691 690/690/690 688/688/688
g cPK_20_000230_00_NASSYex_SR_L_SB_1
f 694/694/694 693/693/693 692/692/692
f 695/695/695 693/693/693 694/694/694
f 695/695/695 696/696/696 693/693/693
f 695/695/695 697/697/697 696/696/696
f 695/695/695 698/698/698 697/697/697
f 699/699/699 698/698/698 695/695/695
f 699/699/699 700/700/700 698/698/698
f 701/701/701 700/700/700 699/699/699
f 701/701/701 702/702/702 700/700/700
f 703/703/703 702/702/702 701/701/701
f 704/704/704 702/702/702 703/703/703
f 704/704/704 705/705/705 702/702/702
f 190/190/190 705/705/705 704/704/704
f 190/190/190 188/188/188 705/705/705
f 708/708/708 707/707/707 706/706/706
f 708/708/708 709/709/709 707/707/707
f 708/708/708 710/710/710 709/709/709
f 711/711/711 710/710/710 708/708/708
f 711/711/711 712/712/712 710/710/710
f 713/713/713 712/712/712 711/711/711
f 714/714/714 712/712/712 713/713/713
f 714/714/714 715/715/715 712/712/712
f 214/214/214 715/715/715 714/714/714
f 214/214/214 212/212/212 715/715/715
f 691/691/691 716/716/716 690/690/690
f 717/717/717 716/716/716 691/691/691
f 717/717/717 718/718/718 716/716/716
f 719/719/719 718/718/718 717/717/717
f 719/719/719 720/720/720 718/718/718
f 719/719/719 721/721/721 720/720/720
f 722/722/722 721/721/721 719/719/719
f 722/722/722 723/723/723 721/721/721
f 722/722/722 724/724/724 723/723/723
f 725/725/725 724/724/724 722/722/722
f 726/726/726 724/724/724 725/725/725
