g cPK_90_000470_00_FIREex_RR_L_SB
v 0.33439642 0.25883326 -0.0075641433
v 0.3139926 0.31584397 -0.0075641433
v 0.32839534 0.23962967 -0.0075641433
v 0.27018428 0.32310244 -0.0075641433
v 0.28804833 0.20881347 -0.0075641433
v 0.17356622 0.31704417 -0.0075641433
v 0.24077879 0.3416488 -0.0075641433
v 0.07934862 0.3038418 -0.0075641433
v 0.25218102 0.18141878 -0.0075641433
v 0.028339012 0.24983159 -0.0075641433
v 0.17776702 0.13100938 -0.0075641433
v 0.021751313 0.20536451 -0.0075641433
v 0.09915232 0.11240589 -0.0075641433
v 0.01633681 0.16881648 -0.0075641433
v 0.019337313 0.09740309 -0.0075641433
v 0.0070043965 0.11072128 -0.0129615385
v 0.04738241 0.20153879 -0.0129615385
v 0.0008452322 0.27064565 -0.0129615385
v -0.063986614 0.31983963 -0.0129615385
v -0.053250756 0.121176936 -0.0129615385
v -0.17844726 0.3591558 -0.0129615385
v -0.16610658 0.192973 -0.0129615385
v -0.09731565 0.14540063 -0.0129615385
v -0.2747353 0.3922298 -0.0129615385
v -0.23950513 0.229713 -0.0129615385
v -0.32633317 0.24800935 -0.0129615385
v -0.39305833 0.2577189 -0.0129615385
v -0.378992 0.42804098 -0.0129615385
v 0.31486192 0.06976145 -0.011329919
v 0.31130773 0.073173545 -0.011329919
v 0.30746922 0.06777115 -0.011329919
v -0.08979208 0.20303546 -0.011329919
v -0.08962418 0.20622455 -0.011329919
v -0.09650578 0.20723155 -0.011329919
v -0.04917378 0.18020874 -0.011329919
v -0.05034868 0.18255854 -0.011329919
v -0.05387348 0.18406914 -0.011329919
v -0.07502178 0.19917504 -0.011329919
v -0.071497075 0.20135704 -0.011329919
v -0.07988928 0.20253196 -0.011329919
v 0.31912705 0.06592295 -0.011329919
v 0.3046258 0.06180005 -0.011329919
v 0.30533662 0.08241444 -0.011329919
v 0.3033463 0.08895423 -0.011329919
v 0.29893905 0.08838554 -0.011329919
v 0.3258089 0.05853014 -0.011329919
v 0.30761132 0.088812046 -0.011329919
v 0.30391493 0.075306036 -0.011329919
v 0.293821 0.08710604 -0.011329919
v 0.28859797 0.08426416 -0.011329919
v 0.28614393 0.08213015 -0.011329919
v 0.3033463 0.067628935 -0.011329919
v 0.28202102 0.07672775 -0.011329919
v 0.27818242 0.070898846 -0.011329919
v 0.2579945 0.08497355 -0.011329919
v 0.26069576 0.090233736 -0.011329919
v 0.25244996 0.09080243 -0.011329919
v 0.25401375 0.08070844 -0.011329919
v 0.24605231 0.09080243 -0.011329919
v 0.24932222 0.07772293 -0.011329919
v 0.24079214 0.09080243 -0.011329919
v 0.26069576 0.104450636 -0.011329919
v 0.26481864 0.109284356 -0.011329919
v 0.2545824 0.10900004 -0.011329919
v 0.24662104 0.07559035 -0.011329919
v 0.2558619 0.09933255 -0.011329919
v 0.24548364 0.107862644 -0.011329919
v 0.25045952 0.095493935 -0.011329919
v 0.23738003 0.10658314 -0.011329919
v 0.24463062 0.09222414 -0.011329919
v 0.23027162 0.10487714 -0.011329919
v 0.22401623 0.10317113 -0.011329919
v 0.22899213 0.11170125 -0.011329919
v 0.22927642 0.11696144 -0.011329919
v 0.22344752 0.11696144 -0.011329919
v 0.22728601 0.10686743 -0.011329919
v 0.21619692 0.11681924 -0.011329919
v 0.20624514 0.11724575 -0.011329919
v 0.17909092 0.13302654 -0.011329919
v 0.17965953 0.13786024 -0.011329919
v 0.17411503 0.13700724 -0.011329919
v 0.18335591 0.13842894 -0.011329919
v 0.17511012 0.12833494 -0.011329919
v 0.16771743 0.13601205 -0.011329919
v 0.17056073 0.12421204 -0.011329919
v 0.16131982 0.13515905 -0.011329919
v 0.16885473 0.15051325 -0.011329919
v 0.16871251 0.15364094 -0.011329919
v 0.16458973 0.15165065 -0.011329919
v 0.16586922 0.12080004 -0.011329919
v 0.16856644 0.14526494 -0.011329919
v 0.15790771 0.14880724 -0.011329919
v 0.14880893 0.14639035 -0.011329919
v 0.16501622 0.13842894 -0.011329919
v 0.16757523 0.14155665 -0.011329919
v 0.16146192 0.11852534 -0.011329919
v 0.13871501 0.14440005 -0.011329919
v 0.13700892 0.15065543 -0.011329919
v 0.13771981 0.15449394 -0.011329919
v 0.1324595 0.15492044 -0.011329919
v 0.14170052 0.15378314 -0.011329919
v 0.13146442 0.14766984 -0.011329919
v 0.12648852 0.15506265 -0.011329919
v 0.12734152 0.14525305 -0.011329919
v 0.12023302 0.15477835 -0.011329919
v 0.10971262 0.15179275 -0.011329919
v 0.12506682 0.14326264 -0.011329919
v 0.11554152 0.15378314 -0.011329919
v 0.097770415 0.14738554 -0.011329919
v 0.10331502 0.14937595 -0.011329919
v -0.06478328 0.19632174 -0.011329919
v -0.06730098 0.20085354 -0.011329919
v -0.04531338 0.18205504 -0.011329919
v -0.04967738 0.18541186 -0.011329919
v -0.03994238 0.17752324 -0.011329919
v -0.08509238 0.20689583 -0.011329919
v -0.08811358 0.20941353 -0.011329919
v -0.06092288 0.19078285 -0.011329919
v -0.16330768 0.25019965 -0.011329919
v -0.16565748 0.25221375 -0.011329919
v -0.16616099 0.24868904 -0.011329919
v -0.1594473 0.24650705 -0.011329919
v -0.16548958 0.24331804 -0.011329919
v -0.15139078 0.23962545 -0.011329919
v -0.16397898 0.23912194 -0.011329919
v -0.16934998 0.24214315 -0.011329919
v -0.17404968 0.24432504 -0.011329919
v -0.17572808 0.24163954 -0.011329919
v -0.1451805 0.23425446 -0.011329919
v -0.17556028 0.23811483 -0.011329919
v -0.14064868 0.23056184 -0.011329919
v -0.13141727 0.23224035 -0.011329919
v -0.13796318 0.23358305 -0.011329919
v -0.13460639 0.23391874 -0.011329919
v -0.12487137 0.22804426 -0.011329919
v -0.2034223 0.26530555 -0.011329919
v -0.20711489 0.26815894 -0.011329919
v -0.21181448 0.26446635 -0.011329919
v -0.19956188 0.26094165 -0.011329919
v -0.21584277 0.26262006 -0.011329919
v -0.19771568 0.25724906 -0.011329919
v -0.22154947 0.26077375 -0.011329919
v -0.2250742 0.26060596 -0.011329919
v -0.19922619 0.24835335 -0.011329919
v -0.19805127 0.25254944 -0.011329919
v 0.33135352 0.036067437 -0.011329919
v 0.33263302 0.040332533 -0.011329919
v 0.3327752 0.04402895 -0.011329919
v 0.3320643 0.04815185 -0.011329919
v 0.3293631 0.05383854 -0.011329919
v 0.27377525 0.06748674 -0.011329919
v 0.26808843 0.06734464 -0.011329919
v 0.25552303 0.0048923492 -0.011329919
v 0.26026922 0.06890845 -0.011329919
v 0.278975 -0.01465106 -0.011329919
v 0.30423114 -0.040207863 -0.011329919
v 0.3504041 0.04019034 -0.011329919
v 0.3282846 -0.065764666 -0.011329919
v 0.35053402 -0.09072006 -0.011329919
v 0.33718243 0.03720484 -0.011329919
v 0.25216562 0.072747044 -0.011329919
v 0.23688154 0.016618347 -0.011329919
v 0.22816224 0.020527054 -0.011329919
v 0.2134295 0.02263174 -0.011329919
v 0.22124682 0.021128345 -0.011329919
v 0.19779472 0.031050444 -0.011329919
v 0.20591283 0.025638437 -0.011329919
v 0.18727142 0.038867738 -0.011329919
v 0.19728844 0.11795664 -0.011329919
v 0.17554532 0.048188448 -0.011329919
v 0.19032222 0.11852534 -0.011329919
v 0.18207642 0.118667446 -0.011329919
v 0.16111323 0.056607153 -0.011329919
v 0.17425713 0.117814444 -0.011329919
v 0.16928121 0.11738794 -0.011329919
v 0.14668123 0.063221835 -0.011329919
v 0.13203304 0.14340484 -0.011329919
v 0.12653641 0.06923526 -0.011329919
v 0.13645853 0.06713054 -0.011329919
v 0.11661442 0.06983655 -0.011329919
v 0.087392114 0.15904334 -0.011329919
v 0.09045632 0.060816552 -0.011329919
v 0.091657124 0.15449394 -0.011329919
v 0.09549572 0.14994454 -0.011329919
v 0.09767232 0.07013724 -0.011329919
v -0.021983081 0.16325645 -0.011329919
v -0.02685058 0.16610985 -0.011329919
v -0.05296228 0.11403475 -0.011329919
v -0.016779978 0.16308865 -0.011329919
v -0.04995558 0.10832205 -0.011329919
v -0.03289298 0.17131294 -0.011329919
v -0.059576977 0.122152746 -0.011329919
v -0.067694984 0.13087215 -0.011329919
v -0.08393108 0.14981423 -0.011329919
v -0.076714985 0.14079414 -0.011329919
v -0.09084638 0.15733095 -0.011329919
v -0.09926508 0.16424625 -0.011329919
v -0.110389784 0.17056035 -0.011329919
v -0.113793686 0.22032344 -0.011329919
v -0.121213876 0.17537095 -0.011329919
v -0.10372307 0.21344185 -0.011329919
v -0.13474388 0.18108365 -0.011329919
v -0.14917599 0.18709704 -0.011329919
v -0.16060138 0.19070505 -0.011329919
v -0.17473269 0.19551574 -0.011329919
v -0.18730928 0.24247876 -0.011329919
v -0.18345208 0.19882305 -0.011329919
v -0.19848548 0.20784314 -0.011329919
v -0.19157009 0.20363374 -0.011329919
v -0.21201558 0.21295443 -0.011329919
v -0.23005557 0.21926844 -0.011329919
v 0.07928852 0.16586743 -0.011329919
v 0.082939625 0.053299833 -0.011329919
v 0.08341142 0.16288196 -0.011329919
v 0.06891012 0.17055903 -0.011329919
v 0.07512223 0.04728644 -0.011329919
v 0.07402822 0.16842654 -0.011329919
v 0.057821024 0.17326024 -0.011329919
v 0.06790622 0.041273143 -0.011329919
v 0.063792124 0.17198074 -0.011329919
v 0.05284512 0.17411324 -0.011329919
v 0.05888622 0.035861135 -0.011329919
v 0.048527826 0.17437184 -0.011329919
v 0.047761526 0.031050444 -0.011329919
v 0.042785324 0.17456235 -0.011329919
v 0.03573482 0.027743055 -0.011329919
v 0.036594417 0.17450204 -0.011329919
v 0.029377116 0.17399855 -0.011329919
v 0.024309421 0.025939036 -0.011329919
v 0.02266332 0.17315924 -0.011329919
v 0.01578172 0.17215225 -0.011329919
v 0.012282724 0.025939036 -0.011329919
v 0.009068019 0.17080943 -0.011329919
v 0.0023606182 0.028344441 -0.011329919
v 0.0021864176 0.16896315 -0.011329919
v -0.006058079 0.031651735 -0.011329919
v -0.0033524812 0.16745254 -0.011329919
v -0.010401881 0.16493495 -0.011329919
v -0.02229408 0.043377854 -0.011329919
v -0.01477738 0.036161732 -0.011329919
v -0.03582418 0.061718535 -0.011329919
v -0.04153688 0.072843246 -0.011329919
v -0.04574618 0.08366723 -0.011329919
v -0.02981078 0.05209713 -0.011329919
v -0.04785088 0.091785334 -0.011329919
v -0.04875288 0.09930205 -0.011329919
v -0.027791886 0.114978924 -0.01837111
v 0.005491899 0.107492924 -0.017552031
v -0.02260931 0.116245806 -0.018225057
v -0.017081207 0.116821624 -0.018069802
v 0.0008851493 0.11129352 -0.017641185
v -0.0051036673 0.114172675 -0.017771758
v -0.011207597 0.116245806 -0.017909216
v -0.037465993 0.10864469 -0.018651938
v 0.013323307 0.098394655 -0.017408825
v -0.032859255 0.1124452 -0.018515626
v 0.009868233 0.103231706 -0.017468102
v 0.017814849 0.08733845 -0.017352821
v -0.04057556 0.10438335 -0.01877144
v 0.016202578 0.092981756 -0.017363762
v 0.01885141 0.07547612 -0.0173677
v -0.044606473 0.09885528 -0.018919852
v 0.018736204 0.08077381 -0.017352821
v 0.014359868 0.058431115 -0.017521799
v 0.016778404 0.06407443 -0.017449662
v -0.04644917 0.097012565 -0.018978884
v 0.018160379 0.06971771 -0.0174017
v 0.011710919 0.053363748 -0.01761165
v -0.056699216 0.09252103 -0.019241598
v -0.00026662005 0.044150244 -0.018006653
v -0.0051036673 0.041962035 -0.018152585
v -0.009940714 0.040234555 -0.018293763
v 0.008371053 0.04967835 -0.017730977
v 0.0043401294 0.04656878 -0.017863853
v -0.025949178 0.038506962 -0.018722015
v -0.01996036 0.039197993 -0.018564895
v -0.014317165 0.039313197 -0.018416027
v -0.0451823 0.034476038 -0.019201716
v -0.034932356 0.036664248 -0.01895312
v -0.071440704 0.08733845 -0.019570313
v -0.06740989 0.02940867 -0.019673022
v -0.09643233 0.08031319 -0.019996922
v -0.09251662 0.024341276 -0.020065343
v -0.12096324 0.07397894 -0.020248666
v -0.12499416 0.07236655 -0.02027555
v -0.11497442 0.019273838 -0.02027446
v -0.1315587 0.068335645 -0.02031204
v -0.13720201 0.06407443 -0.020336838
v -0.12994641 0.015703628 -0.020336837
v -0.14088741 0.05900694 -0.020336837
v -0.14480312 0.024917126 -0.020336837
v -0.14572446 0.045071602 -0.020336837
v -0.14595477 0.03159688 -0.020336837
v -0.14618519 0.03896767 -0.020336837
v -0.13533525 0.0143547645 -0.020336837
v -0.13927501 0.016279478 -0.020336837
v -0.14388177 0.051751357 -0.020336837
v -0.14238459 0.019619366 -0.020336837
v -0.07654654 0.11781951 -0.02179465
v -0.079157494 0.12677145 -0.02179465
v -0.090160914 0.14169131 -0.02179465
v -0.084192984 0.13516381 -0.02179465
v -0.11086227 0.15642464 -0.02179465
v -0.07542749 0.08909876 -0.02179465
v -0.1037753 0.15232168 -0.02179465
v -0.09687484 0.14747272 -0.02179465
v -0.07486801 0.09879669 -0.02179465
v -0.075054534 0.10793506 -0.02179465
v -0.13436101 0.16500363 -0.02179465
v -0.080462985 0.06634592 -0.02179465
v -0.12652813 0.1627656 -0.02179465
v -0.11888168 0.15996812 -0.02179465
v -0.07747897 0.07865482 -0.02179465
v -0.1574868 0.16519006 -0.02179465
v -0.084565945 0.056088507 -0.02179465
v -0.15002687 0.16612259 -0.02179465
v -0.142194 0.16593605 -0.02179465
v -0.1755772 0.15996812 -0.02179465
v -0.09109335 0.044898566 -0.02179465
v -0.16979569 0.1618331 -0.02179465
v -0.1640143 0.16369814 -0.02179465
v -0.18620758 0.15437315 -0.02179465
v -0.09836685 0.035760205 -0.02179465
v -0.18173164 0.15717064 -0.02179465
v -0.19087002 0.1510162 -0.02179465
v -0.1052673 0.028859755 -0.02179465
v -0.19534601 0.14747272 -0.02179465
v -0.1132867 0.022705307 -0.02179465
v -0.19907592 0.14411575 -0.02179465
v -0.20243299 0.1407588 -0.02179465
v -0.20746839 0.13516381 -0.02179465
v -0.21138482 0.1291959 -0.02179465
v -0.120746635 0.017669814 -0.02179465
v -0.21492831 0.12304144 -0.02179465
v -0.21791235 0.11632752 -0.02179465
v -0.1283931 0.014872345 -0.02179465
v -0.22070983 0.10905411 -0.02179465
v -0.22238825 0.102153674 -0.02179465
v -0.14573748 0.012634418 -0.02179465
v -0.22406678 0.09562616 -0.02179465
v -0.13771798 0.013007372 -0.02179465
v -0.22499922 0.088352755 -0.02179465
v -0.16513325 0.015618331 -0.02179465
v -0.22499922 0.08163883 -0.02179465
v -0.15487584 0.013380422 -0.02179465
v -0.22443974 0.07380585 -0.02179465
v -0.1755772 0.018975293 -0.02179465
v -0.22238825 0.06559992 -0.02179465
v -0.21903129 0.057767034 -0.02179465
v -0.18415608 0.02307826 -0.02179465
v -0.19254854 0.028486803 -0.02179465
v -0.21530138 0.051053014 -0.02179465
v -0.21194439 0.046017617 -0.02179465
v -0.20616291 0.0400497 -0.02179465
v -0.19982193 0.034268197 -0.02179465
v -0.17540106 0.07573568 -0.024003493
v -0.17928776 0.07895211 -0.024003493
v -0.18424653 0.080962494 -0.024003493
v -0.19563825 0.08029234 -0.024003493
v -0.1704423 0.06702428 -0.024003493
v -0.18974137 0.081364505 -0.024003493
v -0.17245267 0.07171501 -0.024003493
v -0.20635994 0.07546763 -0.024003493
v -0.16829793 0.061261375 -0.024003493
v -0.20140116 0.07787993 -0.024003493
v -0.21627758 0.07050876 -0.024003493
v -0.16199894 0.047323167 -0.024003493
v -0.21627758 0.073591314 -0.024003493
v -0.21426721 0.07493154 -0.024003493
v -0.20997858 0.07452943 -0.024003493
v -0.16628765 0.056302607 -0.024003493
v -0.16146286 0.049735572 -0.024003493
v -0.16347325 0.052281942 -0.024003493
v -0.21842192 0.06595211 -0.024003493
v -0.1704423 0.038477704 -0.024003493
v -0.16494742 0.044106632 -0.024003493
v -0.16829793 0.041292217 -0.024003493
v -0.22874148 0.043704618 -0.024003493
v -0.17781346 0.030704517 -0.024003493
v -0.23718484 0.026549876 -0.024003493
v -0.18893726 0.018776586 -0.024003493
v -0.24386597 0.012985195 -0.024003493
v -0.2022053 0.0051064217 -0.024003493
v -0.250453 -0.0003884389 -0.024003493
v -0.21292698 -0.0057492275 -0.024003493
v -0.25876227 -0.018213246 -0.024003493
v -0.22458687 -0.017006993 -0.024003493
v -0.2635348 -0.02782855 -0.024003493
v -0.23664875 -0.028800849 -0.024003493
v -0.26787567 -0.036574136 -0.024003493
v -0.24857669 -0.04046073 -0.024003493
v -0.27430877 -0.050378274 -0.024003493
v -0.26157668 -0.0526567 -0.024003493
v -0.27739123 -0.059893798 -0.024003493
v -0.27283445 -0.061770108 -0.024003493
v -0.269752 -0.059759825 -0.024003493
v -0.27538094 -0.06190408 -0.024003493
v -0.27672115 -0.05627525 -0.024003493
v -0.19366613 0.109195806 -0.02571479
v -0.1835992 0.11055618 -0.02571479
v -0.1895849 0.1117805 -0.02571479
v -0.18659204 0.11191654 -0.02571479
v -0.18060635 0.10810741 -0.02571479
v -0.19897167 0.10525061 -0.02571479
v -0.1567993 0.056140184 -0.02571479
v -0.15829572 0.049610294 -0.02571479
v -0.15516683 0.05124278 -0.02571479
v -0.15516683 0.049066108 -0.02571479
v -0.17829363 0.104162335 -0.02571479
v -0.16577795 0.049338203 -0.02571479
v -0.15965621 0.061853893 -0.02571479
v -0.1770693 0.047841772 -0.02571479
v -0.16428153 0.06988021 -0.02571479
v -0.20400515 0.1021217 -0.02571479
v -0.17570883 0.09736024 -0.02571479
v -0.17339621 0.09001416 -0.02571479
v -0.21311986 0.09627196 -0.02571479
v -0.17121956 0.083620235 -0.02571479
v -0.22809684 0.08655785 -0.02571479
v -0.1682267 0.076682195 -0.02571479
v -0.2114874 0.04280831 -0.02571479
v -0.24809091 0.07366908 -0.02571479
v -0.19434637 0.045257073 -0.02571479
v -0.25461203 0.036414474 -0.02571479
v -0.27403364 0.056979805 -0.02571479
v -0.23162125 0.03967942 -0.02571479
v -0.2759702 0.033421528 -0.02571479
v -0.29889685 0.041230686 -0.02571479
v -0.3082327 0.033606842 -0.02571479
v -0.30642012 0.029443292 -0.02571479
v -0.30413043 0.029476458 -0.02571479
v -0.30154577 0.029748527 -0.02571479
v -0.30933604 0.03158691 -0.02571479
v -0.3085406 0.029996146 -0.02571479
v -0.30456382 0.03715448 -0.02571479
v 0.20062505 0.20870665 -0.011329919
v 0.31603575 -0.12490957 -0.011329914
v 0.36673734 -0.12490957 -0.011329916
v 0.28755265 -0.07918637 -0.011329919
v 0.26553383 -0.052566696 -0.011329919
v 0.24606644 -0.029031469 -0.011329919
v 0.20581861 -0.007978749 -0.011329919
v 0.17382698 0.013888955 -0.011329919
v 0.15690212 0.025457835 -0.011329919
v 0.12284622 0.035365034 -0.011329919
v 0.09513642 0.01984756 -0.011329919
v 0.060926523 0.00069003104 -0.011329919
v 0.0775369 0.009991861 -0.011329919
v 0.007056421 -0.012313152 -0.011329919
v 0.029471124 -0.0069026947 -0.011329919
v -0.03690658 -0.004263568 -0.011329919
v -0.06477038 0.037841845 -0.011329919
v -0.074058376 0.077470444 -0.011329919
v -0.08768068 0.10595343 -0.011329919
v -0.13563418 0.13632125 -0.011329919
v -0.2297144 0.18684584 -0.011329919
v -0.19573262 0.16859636 -0.011329919
v -0.17685382 0.15845774 -0.011329919
v -0.18101017 0.33855456 -0.011329919
v -0.22658478 0.26866245 -0.011329919
v -0.22154947 0.26731965 -0.011329919
v -0.13586609 0.30948457 -0.011329919
v -0.2228922 0.26446635 -0.011329919
v -0.15638764 0.32269916 -0.011329919
v -0.07362208 0.28212455 -0.011329919
v -0.021979982 0.24758244 -0.011329919
v 0.014956022 0.21543446 -0.011329919
v 0.03837831 0.21171765 -0.011329919
v 0.10234212 0.19790265 -0.011329919
v 0.15888022 0.20098653 -0.011329919
v 0.25449082 0.21902135 -0.011329919
v 0.31461692 0.20561245 -0.011329919
v 0.36673734 0.18196924 -0.011329916
v 0.09216292 0.20010117 -0.011329919
v 0.0707589 0.20472403 -0.011329919
v 0.056828476 0.20773275 -0.011329919
v -0.03815192 0.1449951 -0.018431723
v -0.06536693 0.1297547 -0.019208055
v -0.086194955 -0.0027830345 -0.019966377
v -0.13075231 -0.012417602 -0.020336835
v -0.08265218 0.120075 -0.019616453
v -0.098965965 0.110939264 -0.019924285
v -0.1298597 0.10348212 -0.020263968
v -0.15187417 0.09816827 -0.020336837
v -0.17741607 0.07627519 -0.020336837
v -0.18231598 0.052592326 -0.020336837
v -0.18836257 0.023367025 -0.020336837
v -0.18775456 -0.012417602 -0.020336835
v -0.13679743 -0.012417602 -0.020336835
v -0.024772774 0.003906533 -0.018746892
v 0.0046482156 0.017104708 -0.017958654
v 0.040298175 0.033097204 -0.016906941
v 0.041782055 0.066929884 -0.016731387
v 0.043338902 0.10242528 -0.016552279
v 0.011918503 0.1239025 -0.017217211
v -0.004704141 0.1352648 -0.017621994
v -0.04583621 0.06482187 -0.02179465
v -0.040481266 0.10096788 -0.02179465
v -0.06287562 0.039205905 -0.02179465
v -0.077733636 0.016869318 -0.02179465
v -0.10646977 0.0024109145 -0.02179465
v -0.13151358 -0.010189723 -0.02179465
v -0.1581275 -0.00799799 -0.02179465
v -0.18901405 -0.005454392 -0.02179465
v -0.20930986 0.00761486 -0.02179465
v -0.23366156 0.02329584 -0.02179465
v -0.24301887 0.04274156 -0.02179465
v -0.25530878 0.06828159 -0.02179465
v -0.2532496 0.09188343 -0.02179465
v -0.2509117 0.11867906 -0.02179465
v -0.246204 0.13319705 -0.02179465
v -0.23853071 0.1568605 -0.02179465
v -0.12680113 0.046492632 -0.02400349
v -0.1493789 0.0005964979 -0.024003493
v -0.18901047 -0.039034948 -0.024003493
v -0.2164089 -0.06430945 -0.024003493
v -0.23770069 -0.08395071 -0.024003493
v -0.298469 -0.026956847 -0.024003493
v -0.30979228 -0.0741372 -0.024003493
v -0.2909201 -0.09414163 -0.024003493
v -0.28876352 -0.006789607 -0.024003493
v -0.2780407 0.015491619 -0.024003493
v -0.26940593 0.033434063 -0.024003493
v -0.25956473 0.05779184 -0.024003493
v -0.24732618 0.08808321 -0.024003493
v -0.21188927 0.115149155 -0.024003493
v -0.1470646 0.094448216 -0.024003493
v -0.16900603 0.11269715 -0.024003493
v -0.19651449 0.114270054 -0.024003493
v -0.12680118 0.07759494 -0.024003493
v -0.12680113 0.04919919 -0.024003493
v -0.3140153 -0.008391726 -0.025714789
v -0.30399415 -0.008391726 -0.025714789
v -0.15544614 0.19155972 -0.02571479
v -0.19304517 0.17138426 -0.02571479
v -0.14626959 0.15240668 -0.02571479
v -0.24078651 0.1480075 -0.02571479
v -0.26897636 -0.0031807695 -0.025714789
v -0.2867822 0.12548548 -0.02571479
v -0.31784084 0.11027747 -0.02571479
v -0.35248908 0.07452343 -0.02571479
v -0.3605001 0.020076722 -0.02571479
v -0.2332413 0.0021369895 -0.02571479
v -0.1979994 0.0073813014 -0.02571479
v -0.16453388 0.01525255 -0.02571479
v -0.13351217 0.022548994 -0.02571479
v -0.11874016 0.110806525 -0.02571479
v -0.10099894 0.08082991 -0.02571479
v -0.105928056 0.057005834 -0.02571479
v -0.11201068 0.027606273 -0.02571479
v 0.057899106 0.36433712 -0.022032274
v 0.11574637 0.24563463 -0.022032274
v 0.13768652 0.34189686 -0.022032274
v 0.13971101 0.26459166 -0.022032274
v 0.16178899 0.2820564 -0.022032274
v 0.022160975 0.20060673 -0.022032274
v -0.022719417 0.37514168 -0.022032274
v 0.10610402 0.23800707 -0.022032274
v -0.03352399 0.13744162 -0.022032274
v -0.1099869 0.36433712 -0.022032274
v -0.18063195 0.30865216 -0.022032274
v -0.21729723 0.25379786 -0.022032274
v -0.05438909 0.12703498 -0.022032274
v -0.14489381 0.09006791 -0.022032274
v -0.08505334 0.095885746 -0.022032274
v -0.21729723 0.091729924 -0.022032274
v 0.04689311 0.20606287 -0.022442913
v 0.017390419 0.40408418 -0.022442913
v -0.031540938 0.41522408 -0.022442913
v 0.14845091 0.3454897 -0.022442913
v 0.17168877 0.26716968 -0.022442913
v 0.19582896 0.31548634 -0.022442913
v 0.2092878 0.28734514 -0.022442913
v 0.12394744 0.24379289 -0.022442913
v 0.10772592 0.36736056 -0.022442913
v 0.012244853 0.17030884 -0.022442913
v -0.11749291 0.41089985 -0.022442913
v -0.18978834 0.32483393 -0.022442913
v -0.07035656 0.41552106 -0.022442913
v -0.22464605 0.23188256 -0.022442909
v -0.03400897 0.12257882 -0.022442913
v -0.22464605 0.08739369 -0.022442909
v -0.062869295 0.08739369 -0.022442909
v 0.07795175 0.2212709 -0.022442913
v 0.08907365 0.3773775 -0.022442913
v 0.055499673 0.39540803 -0.022442913
v -0.05821675 0.41542816 -0.022442913
v -0.31063458 0.23580526 -0.011329919
v -0.34481198 0.20710914 -0.011329919
v -0.31781217 0.20690255 -0.011329919
v -0.2866729 0.28494325 -0.011329919
v -0.28533006 0.28964296 -0.011329919
v -0.2866729 0.28981075 -0.011329919
v -0.2923796 0.29350334 -0.011329919
v -0.28751206 0.29417476 -0.011329919
v -0.2570768 0.35803774 -0.011329919
v -0.27626657 0.28242564 -0.011329919
v -0.2809662 0.28678954 -0.011329919
v -0.32807326 0.23790994 -0.011329919
v -0.34220466 0.24001455 -0.011329919
v -0.2712471 0.22919054 -0.011329919
v -0.26828653 0.19562733 -0.011329919
v -0.29349646 0.23309925 -0.011329919
v -0.25260568 0.22468054 -0.011329919
v -0.2829263 0.36249456 -0.011329919
v -0.3272574 0.37181783 -0.011329919
v -0.3200738 0.29635665 -0.011329919
v -0.3100032 0.29652455 -0.011329919
v -0.30245018 0.29534966 -0.011329919
v -0.2965757 0.29383907 -0.011329919
v -0.3483759 0.36128482 -0.011329919
v -0.33148718 0.29534966 -0.011329919
v -0.3383688 0.29518175 -0.011329919
v -0.34273267 0.29501396 -0.011329919
v -0.29959688 0.28846806 -0.011329919
v -0.270392 0.27688676 -0.011329919
v -0.22341819 0.35223457 -0.011329919
v -0.26619586 0.27285856 -0.011329919
v -0.2625034 0.27101225 -0.011329919
v -0.25629318 0.27336204 -0.011329919
v -0.24941158 0.27369773 -0.011329919
v -0.24303348 0.27285856 -0.011329919
v -0.23447347 0.27050874 -0.011329919
v -0.033966035 0.14494582 -0.02179465
v -0.085174866 0.19342975 -0.02179465
v -0.2288786 0.16449575 -0.02179465
v -0.114515044 0.19981556 -0.02179465
v -0.14267544 0.20594457 -0.02179465
v -0.18278937 0.20095436 -0.02179465
v -0.2048897 0.18347202 -0.02179465
v 0.3196565 -0.051504947 -0.0129615385
v 0.37382132 -0.07850029 -0.0129615385
v 0.3608038 0.17420809 -0.0129615385
v 0.25897917 -0.0034600438 -0.0129615385
v 0.28249595 0.20110606 -0.0129615385
v 0.21213143 0.22527564 -0.0129615385
v 0.18382928 0.022574319 -0.0129615385
v 0.122697964 0.21621405 -0.0129615385
v 0.07866575 0.05594203 -0.0129615385
vt 0.045196533 0.6767578
vt 0.068359375 0.74121094
vt 0.052001953 0.65478516
vt 0.11816406 0.7495117
vt 0.097839355 0.6196289
vt 0.22790527 0.7426758
vt 0.15161133 0.7709961
vt 0.33496094 0.72802734
vt 0.13867188 0.5888672
vt 0.3930664 0.6665039
vt 0.22314453 0.53125
vt 0.40039062 0.61572266
vt 0.3125 0.5102539
vt 0.40673828 0.57421875
vt 0.4033203 0.49316406
vt 0.46606445 0.80078125
vt 0.4560547 0.9135742
vt 0.53222656 0.9711914
vt 0.62060547 1
vt 0.53515625 0.79003906
vt 0.7583008 1
vt 0.68359375 0.8251953
vt 0.5917969 0.7998047
vt 0.8745117 1
vt 0.7763672 0.8378906
vt 0.87646484 0.8251953
vt 0.95214844 0.81103516
vt 1 1
vt 0.05895996 0.2211914
vt 0.06298828 0.22509766
vt 0.06732178 0.21899414
vt 0.5185547 0.3725586
vt 0.5185547 0.3762207
vt 0.5263672 0.3774414
vt 0.47265625 0.3466797
vt 0.47387695 0.34936523
vt 0.47802734 0.35107422
vt 0.5019531 0.36816406
vt 0.49804688 0.3708496
vt 0.5073242 0.3720703
vt 0.054107666 0.21679688
vt 0.07055664 0.2121582
vt 0.06976318 0.2355957
vt 0.072021484 0.24304199
vt 0.07702637 0.24243164
vt 0.04650879 0.2084961
vt 0.06719971 0.24291992
vt 0.07141113 0.22753906
vt 0.08288574 0.2409668
vt 0.08880615 0.2376709
vt 0.09161377 0.23522949
vt 0.072021484 0.21875
vt 0.09625244 0.22912598
vt 0.10064697 0.22253418
vt 0.12359619 0.23852539
vt 0.1204834 0.24450684
vt 0.12988281 0.24511719
vt 0.12805176 0.23364258
vt 0.13708496 0.24511719
vt 0.13342285 0.23022461
vt 0.1430664 0.24511719
vt 0.1204834 0.2607422
vt 0.11584473 0.26611328
vt 0.1274414 0.26586914
vt 0.13647461 0.2277832
vt 0.12597656 0.2548828
vt 0.13781738 0.2644043
vt 0.13208008 0.25048828
vt 0.14697266 0.26293945
vt 0.13879395 0.2467041
vt 0.1550293 0.26123047
vt 0.16223145 0.25927734
vt 0.15649414 0.26879883
vt 0.15625 0.27490234
vt 0.1628418 0.27490234
vt 0.15844727 0.26342773
vt 0.17102051 0.2746582
vt 0.18237305 0.27514648
vt 0.21325684 0.2932129
vt 0.21264648 0.29858398
vt 0.21887207 0.29760742
vt 0.20837402 0.2993164
vt 0.21777344 0.2878418
vt 0.22619629 0.29638672
vt 0.22290039 0.28320312
vt 0.23339844 0.2956543
vt 0.22485352 0.31298828
vt 0.22497559 0.3166504
vt 0.22973633 0.31420898
vt 0.22827148 0.27929688
vt 0.22521973 0.3071289
vt 0.23730469 0.31103516
vt 0.24768066 0.3083496
vt 0.22924805 0.2993164
vt 0.22631836 0.30273438
vt 0.23327637 0.27661133
vt 0.2590332 0.30615234
vt 0.26098633 0.31323242
vt 0.2602539 0.3173828
vt 0.26611328 0.3178711
vt 0.25561523 0.3166504
vt 0.26733398 0.30981445
vt 0.27294922 0.31811523
vt 0.27197266 0.30688477
vt 0.2800293 0.3178711
vt 0.2919922 0.31445312
vt 0.2746582 0.3046875
vt 0.2854004 0.3166504
vt 0.30566406 0.30932617
vt 0.2993164 0.31176758
vt 0.49047852 0.36499023
vt 0.49316406 0.3701172
vt 0.46826172 0.34887695
vt 0.47314453 0.35253906
vt 0.4621582 0.34375
vt 0.5136719 0.37695312
vt 0.51708984 0.3798828
vt 0.48608398 0.35864258
vt 0.60253906 0.42626953
vt 0.60498047 0.4284668
vt 0.60546875 0.42456055
vt 0.59814453 0.42211914
vt 0.60498047 0.41845703
vt 0.5888672 0.41430664
vt 0.60302734 0.41357422
vt 0.609375 0.4169922
vt 0.6147461 0.41967773
vt 0.61621094 0.4165039
vt 0.58154297 0.40820312
vt 0.61621094 0.41259766
vt 0.57666016 0.40405273
vt 0.56591797 0.40576172
vt 0.57373047 0.4074707
vt 0.5698242 0.40771484
vt 0.55859375 0.40112305
vt 0.6479492 0.44335938
vt 0.65234375 0.44677734
vt 0.65722656 0.4423828
vt 0.6435547 0.43847656
vt 0.6621094 0.4404297
vt 0.64160156 0.43432617
vt 0.66845703 0.43823242
vt 0.6723633 0.43798828
vt 0.6430664 0.42407227
vt 0.64160156 0.42895508
vt 0.040222168 0.1829834
vt 0.038757324 0.18774414
vt 0.038604736 0.1920166
vt 0.039398193 0.19665527
vt 0.04248047 0.203125
vt 0.105651855 0.21862793
vt 0.11212158 0.21850586
vt 0.12634277 0.14746094
vt 0.12097168 0.22021484
vt 0.099731445 0.12524414
vt 0.07104492 0.09625244
vt 0.018554688 0.18762207
vt 0.043701172 0.06719971
vt 0.018417358 0.038848877
vt 0.033599854 0.1842041
vt 0.13024902 0.22460938
vt 0.14758301 0.1607666
vt 0.1574707 0.1652832
vt 0.17419434 0.16760254
vt 0.1652832 0.16589355
vt 0.1920166 0.1772461
vt 0.18273926 0.17102051
vt 0.20397949 0.18615723
vt 0.19250488 0.2758789
vt 0.21728516 0.19665527
vt 0.20043945 0.27661133
vt 0.20983887 0.27685547
vt 0.23364258 0.20629883
vt 0.21875 0.2758789
vt 0.22436523 0.27539062
vt 0.25 0.21374512
vt 0.26660156 0.30493164
vt 0.27294922 0.22058105
vt 0.26171875 0.21826172
vt 0.2841797 0.22131348
vt 0.3173828 0.3227539
vt 0.31396484 0.21105957
vt 0.3125 0.3173828
vt 0.3083496 0.31225586
vt 0.30566406 0.22167969
vt 0.4416504 0.32739258
vt 0.44726562 0.33081055
vt 0.47705078 0.27148438
vt 0.43579102 0.32739258
vt 0.4736328 0.26513672
vt 0.45410156 0.33666992
vt 0.484375 0.28076172
vt 0.49365234 0.29077148
vt 0.51220703 0.31225586
vt 0.50390625 0.30200195
vt 0.52001953 0.32080078
vt 0.52978516 0.32861328
vt 0.5419922 0.33569336
vt 0.54589844 0.39233398
vt 0.5546875 0.3413086
vt 0.53466797 0.38452148
vt 0.5698242 0.34765625
vt 0.5864258 0.3544922
vt 0.5991211 0.35864258
vt 0.6152344 0.36401367
vt 0.62939453 0.41748047
vt 0.625 0.36791992
vt 0.64208984 0.37817383
vt 0.63427734 0.37329102
vt 0.65771484 0.3840332
vt 0.67822266 0.39111328
vt 0.32666016 0.33032227
vt 0.32250977 0.20251465
vt 0.32202148 0.32714844
vt 0.3383789 0.33569336
vt 0.33129883 0.19567871
vt 0.33251953 0.33325195
vt 0.35107422 0.3388672
vt 0.3395996 0.18884277
vt 0.34423828 0.33740234
vt 0.35668945 0.33984375
vt 0.34985352 0.18273926
vt 0.36157227 0.3400879
vt 0.36254883 0.1772461
vt 0.36816406 0.34033203
vt 0.3762207 0.17346191
vt 0.37524414 0.34033203
vt 0.38330078 0.3395996
vt 0.38916016 0.17138672
vt 0.39111328 0.33862305
vt 0.39892578 0.33764648
vt 0.40283203 0.17138672
vt 0.40649414 0.3359375
vt 0.4140625 0.17419434
vt 0.41430664 0.33398438
vt 0.42358398 0.17785645
vt 0.4206543 0.3322754
vt 0.4284668 0.3293457
vt 0.44213867 0.19128418
vt 0.43359375 0.1829834
vt 0.45751953 0.21203613
vt 0.4638672 0.22473145
vt 0.46875 0.23706055
vt 0.4506836 0.20117188
vt 0.4711914 0.24621582
vt 0.47216797 0.2548828
vt 0.26513672 0.14746094
vt 0.22668457 0.13879395
vt 0.25927734 0.14892578
vt 0.25268555 0.14953613
vt 0.2319336 0.14318848
vt 0.2388916 0.14648438
vt 0.24597168 0.14892578
vt 0.2763672 0.14001465
vt 0.21765137 0.12817383
vt 0.2709961 0.14440918
vt 0.22155762 0.13378906
vt 0.21240234 0.11541748
vt 0.2800293 0.13513184
vt 0.2142334 0.12194824
vt 0.21118164 0.10168457
vt 0.28466797 0.12878418
vt 0.21130371 0.10784912
vt 0.21643066 0.081970215
vt 0.21362305 0.08850098
vt 0.28686523 0.12658691
vt 0.21203613 0.09503174
vt 0.21948242 0.07611084
vt 0.29858398 0.121398926
vt 0.23327637 0.06542969
vt 0.2388916 0.062927246
vt 0.24450684 0.060913086
vt 0.2232666 0.07183838
vt 0.22802734 0.068237305
vt 0.26293945 0.058929443
vt 0.25610352 0.0597229
vt 0.24951172 0.05984497
vt 0.2854004 0.054260254
vt 0.2734375 0.056793213
vt 0.31567383 0.11541748
vt 0.31103516 0.04840088
vt 0.34448242 0.107299805
vt 0.3400879 0.042541504
vt 0.37304688 0.099975586
vt 0.37768555 0.098083496
vt 0.3659668 0.03668213
vt 0.3852539 0.093444824
vt 0.3918457 0.08850098
vt 0.38330078 0.03253174
vt 0.3959961 0.0826416
vt 0.40063477 0.043182373
vt 0.40161133 0.06652832
vt 0.40185547 0.050933838
vt 0.4020996 0.059448242
vt 0.38964844 0.030975342
vt 0.39404297 0.033203125
vt 0.39941406 0.07421875
vt 0.39770508 0.037078857
vt 0.44189453 0.6352539
vt 0.44482422 0.6455078
vt 0.45751953 0.66259766
vt 0.4506836 0.65527344
vt 0.4814453 0.6796875
vt 0.44067383 0.6020508
vt 0.47314453 0.6748047
vt 0.46533203 0.6694336
vt 0.4399414 0.61328125
vt 0.44018555 0.62402344
vt 0.5083008 0.6894531
vt 0.4465332 0.5761719
vt 0.49926758 0.6870117
vt 0.49047852 0.68359375
vt 0.4428711 0.59033203
vt 0.53515625 0.6899414
vt 0.45117188 0.5644531
vt 0.5263672 0.69091797
vt 0.5175781 0.6904297
vt 0.55566406 0.68359375
vt 0.45874023 0.55126953
vt 0.5488281 0.68603516
vt 0.54248047 0.6879883
vt 0.5678711 0.6772461
vt 0.46704102 0.5410156
vt 0.5629883 0.68066406
vt 0.5732422 0.67333984
vt 0.47485352 0.5332031
vt 0.5786133 0.6694336
vt 0.48413086 0.5258789
vt 0.58251953 0.66552734
vt 0.5864258 0.6616211
vt 0.59228516 0.65527344
vt 0.5966797 0.6484375
vt 0.49267578 0.52001953
vt 0.6010742 0.6411133
vt 0.6044922 0.63378906
vt 0.50146484 0.51708984
vt 0.6074219 0.625
vt 0.609375 0.6171875
vt 0.5214844 0.51464844
vt 0.6113281 0.6098633
vt 0.51220703 0.51464844
vt 0.6123047 0.6015625
vt 0.5439453 0.5180664
vt 0.6123047 0.59375
vt 0.5317383 0.5151367
vt 0.6118164 0.58447266
vt 0.55566406 0.5214844
vt 0.609375 0.5751953
vt 0.60546875 0.56640625
vt 0.5654297 0.5263672
vt 0.5751953 0.53271484
vt 0.6015625 0.55859375
vt 0.59765625 0.5527344
vt 0.5908203 0.54589844
vt 0.5834961 0.5390625
vt 0.055908203 0.57470703
vt 0.06036377 0.578125
vt 0.066101074 0.5805664
vt 0.0791626 0.57958984
vt 0.050201416 0.5644531
vt 0.072387695 0.5810547
vt 0.052520752 0.5698242
vt 0.0914917 0.57421875
vt 0.047729492 0.5576172
vt 0.08581543 0.57714844
vt 0.10290527 0.5683594
vt 0.040496826 0.5419922
vt 0.10290527 0.5722656
vt 0.10058594 0.57373047
vt 0.09564209 0.5732422
vt 0.045410156 0.5522461
vt 0.039855957 0.5444336
vt 0.042175293 0.5473633
vt 0.105407715 0.56347656
vt 0.050201416 0.5317383
vt 0.043884277 0.53808594
vt 0.047729492 0.53466797
vt 0.117248535 0.53759766
vt 0.058685303 0.52246094
vt 0.12695312 0.5180664
vt 0.07147217 0.50878906
vt 0.13464355 0.5024414
vt 0.08673096 0.49316406
vt 0.14221191 0.48706055
vt 0.09906006 0.4807129
vt 0.1517334 0.46655273
vt 0.11248779 0.46777344
vt 0.15722656 0.45532227
vt 0.12634277 0.4543457
vt 0.16223145 0.4453125
vt 0.14001465 0.44091797
vt 0.16967773 0.42944336
vt 0.1550293 0.4267578
vt 0.17321777 0.41845703
vt 0.16796875 0.41625977
vt 0.16442871 0.41870117
vt 0.17089844 0.41625977
vt 0.17248535 0.42260742
vt 0.5449219 0.1352539
vt 0.5332031 0.13684082
vt 0.54003906 0.1381836
vt 0.5366211 0.13842773
vt 0.52978516 0.1340332
vt 0.55078125 0.1307373
vt 0.5024414 0.07421875
vt 0.50439453 0.066711426
vt 0.5004883 0.068603516
vt 0.5004883 0.066101074
vt 0.52734375 0.1295166
vt 0.5126953 0.06640625
vt 0.5058594 0.08081055
vt 0.5258789 0.064697266
vt 0.51123047 0.090026855
vt 0.5566406 0.1270752
vt 0.52441406 0.12164307
vt 0.5214844 0.11315918
vt 0.5673828 0.12036133
vt 0.51904297 0.10583496
vt 0.58447266 0.109191895
vt 0.515625 0.097839355
vt 0.5654297 0.058898926
vt 0.6074219 0.09436035
vt 0.54541016 0.061706543
vt 0.6147461 0.05154419
vt 0.63720703 0.07519531
vt 0.5883789 0.05529785
vt 0.63964844 0.048095703
vt 0.6660156 0.05706787
vt 0.6767578 0.048309326
vt 0.6743164 0.043518066
vt 0.671875 0.043548584
vt 0.6689453 0.04385376
vt 0.6777344 0.04598999
vt 0.6767578 0.044158936
vt 0.6723633 0.05239868
vt 0.1887207 0.3791504
vt 0.057617188 0
vt 0 0
vt 0.08996582 0.051971436
vt 0.114990234 0.082214355
vt 0.13708496 0.108947754
vt 0.18286133 0.13293457
vt 0.21923828 0.15771484
vt 0.23840332 0.17089844
vt 0.2770996 0.1821289
vt 0.30859375 0.16455078
vt 0.3474121 0.1427002
vt 0.32861328 0.15332031
vt 0.4086914 0.12792969
vt 0.38330078 0.13415527
vt 0.45874023 0.13708496
vt 0.49023438 0.18493652
vt 0.50097656 0.22998047
vt 0.51660156 0.26245117
vt 0.5708008 0.296875
vt 0.6777344 0.35424805
vt 0.63916016 0.3334961
vt 0.6176758 0.32202148
vt 0.6225586 0.52685547
vt 0.6743164 0.44726562
vt 0.66845703 0.44580078
vt 0.57128906 0.49365234
vt 0.6699219 0.4423828
vt 0.5942383 0.50878906
vt 0.5004883 0.46264648
vt 0.4416504 0.42333984
vt 0.3996582 0.38671875
vt 0.37304688 0.38256836
vt 0.3005371 0.36694336
vt 0.23620605 0.37036133
vt 0.12756348 0.39086914
vt 0.05923462 0.37548828
vt 0 0.3486328
vt 0.31201172 0.36938477
vt 0.33642578 0.37451172
vt 0.35205078 0.3779297
vt 0.2770996 0.1821289
vt 0.30859375 0.16455078
vt 0.33276367 0.011146545
vt 0.38427734 0
vt 0.32861328 0.15332031
vt 0.3474121 0.1427002
vt 0.38330078 0.13415527
vt 0.4086914 0.12792969
vt 0.43823242 0.1026001
vt 0.44384766 0.07519531
vt 0.45092773 0.041412354
vt 0.4501953 0
vt 0.39135742 0
vt 0.26171875 0.01889038
vt 0.22766113 0.03414917
vt 0.18640137 0.05267334
vt 0.18469238 0.091796875
vt 0.18286133 0.13293457
vt 0.21923828 0.15771484
vt 0.23840332 0.17089844
vt 0.40673828 0.57421875
vt 0.40039062 0.61572266
vt 0.42626953 0.5449219
vt 0.44335938 0.51904297
vt 0.47631836 0.5024414
vt 0.5048828 0.48828125
vt 0.53564453 0.49072266
vt 0.57128906 0.49365234
vt 0.5942383 0.50878906
vt 0.6225586 0.52685547
vt 0.6333008 0.5488281
vt 0.64746094 0.578125
vt 0.64501953 0.60546875
vt 0.64208984 0.63623047
vt 0.63671875 0.65283203
vt 0.6279297 0.6801758
vt 0 0.5410156
vt 0.025970459 0.4880371
vt 0.0715332 0.4423828
vt 0.10308838 0.41333008
vt 0.12756348 0.39086914
vt 0.1973877 0.45629883
vt 0.21044922 0.4020996
vt 0.1887207 0.3791504
vt 0.1862793 0.4794922
vt 0.1739502 0.5053711
vt 0.1640625 0.5258789
vt 0.15270996 0.55371094
vt 0.13867188 0.5888672
vt 0.097839355 0.6196289
vt 0.02330017 0.5961914
vt 0.048553467 0.6171875
vt 0.080200195 0.61865234
vt 0 0.57666016
vt 0 0.5439453
vt 0.68310547 0
vt 0.671875 0
vt 0.50097656 0.22998047
vt 0.5439453 0.20678711
vt 0.49023438 0.18493652
vt 0.5991211 0.17993164
vt 0.63134766 0.0059928894
vt 0.65185547 0.15393066
vt 0.6875 0.13647461
vt 0.72753906 0.095336914
vt 0.7368164 0.03274536
vt 0.59033203 0.012107849
vt 0.5498047 0.0181427
vt 0.51123047 0.027191162
vt 0.47558594 0.035583496
vt 0.45874023 0.13708496
vt 0.43823242 0.1026001
vt 0.44384766 0.07519531
vt 0.45092773 0.041412354
vt 0.68359375 0.8251953
vt 0.6171875 0.68896484
vt 0.5917969 0.7998047
vt 0.58935547 0.7109375
vt 0.56396484 0.73095703
vt 0.7246094 0.63720703
vt 0.7763672 0.8378906
vt 0.6279297 0.6801758
vt 0.7885742 0.5644531
vt 0.87646484 0.8251953
vt 0.9580078 0.76123047
vt 1 0.6982422
vt 0.8125 0.5527344
vt 0.9165039 0.5097656
vt 0.84765625 0.51660156
vt 1 0.51171875
vt 0.6875 0.13647461
vt 0.7216797 0.3642578
vt 0.77783203 0.37695312
vt 0.5708008 0.296875
vt 0.5439453 0.20678711
vt 0.51660156 0.26245117
vt 0.50097656 0.22998047
vt 0.5991211 0.17993164
vt 0.6176758 0.32202148
vt 0.72753906 0.095336914
vt 0.8769531 0.3720703
vt 0.95996094 0.27319336
vt 0.8227539 0.3774414
vt 1 0.1661377
vt 0.7807617 0.04046631
vt 1 0
vt 0.81396484 0
vt 0.65185547 0.15393066
vt 0.63916016 0.3334961
vt 0.6777344 0.35424805
vt 0.80859375 0.37719727
vt 0.76953125 0.4099121
vt 0.80859375 0.37719727
vt 0.77783203 0.37695312
vt 0.7426758 0.4658203
vt 0.74121094 0.4711914
vt 0.7426758 0.4711914
vt 0.74902344 0.47558594
vt 0.74365234 0.47631836
vt 0.7089844 0.5488281
vt 0.73046875 0.46289062
vt 0.73583984 0.46777344
vt 0.7895508 0.41235352
vt 0.80566406 0.41479492
vt 0.72509766 0.40234375
vt 0.7216797 0.3642578
vt 0.7504883 0.40673828
vt 0.7036133 0.3972168
vt 0.73828125 0.55371094
vt 0.7885742 0.5644531
vt 0.78027344 0.47875977
vt 0.76904297 0.4790039
vt 0.7602539 0.47753906
vt 0.75390625 0.47583008
vt 0.8125 0.5527344
vt 0.79345703 0.47753906
vt 0.80126953 0.47729492
vt 0.80615234 0.47729492
vt 0.7573242 0.46972656
vt 0.7241211 0.45654297
vt 0.67041016 0.5419922
vt 0.7192383 0.4519043
vt 0.71484375 0.44995117
vt 0.7080078 0.45263672
vt 0.7001953 0.45288086
vt 0.6928711 0.4519043
vt 0.68310547 0.44921875
vt 0.3930664 0.6665039
vt 0.4519043 0.72216797
vt 0.6171875 0.68896484
vt 0.4855957 0.7294922
vt 0.5180664 0.7363281
vt 0.56396484 0.73095703
vt 0.58935547 0.7109375
vt 0.068359375 0.74121094
vt 0 0.7324219
vt 0.10760498 1
vt 0.15161133 0.7709961
vt 0.20202637 1
vt 0.28686523 1
vt 0.2421875 0.7709961
vt 0.3798828 0.95703125
vt 0.36791992 0.7680664
vn -0 0 -1
vn -0 0 -1
vn -0 0 -1
vn -0 0 -1
vn -0 0 -1
vn -0 0 -1
vn -0 0 -1
vn -0 0 -1
vn -0 0 -1
vn -0 0 -1
vn -0 0 -1
vn -0 0 -1
vn -0 0 -1
vn -0 0 -1
vn -0 0 -1
vn -0 0 -1
vn -0 0 -1
vn -0 0 -1
vn -0 0 -1
vn -0 0 -1
vn -0 0 -1
vn -0 0 -1
vn -0 0 -1
vn -0 0 -1
vn -0 0 -1
vn -0 0 -1
vn -0 0 -1
vn -0 0 -1
vn -0 0 -1
vn -0 0 -1
vn -0 0 -1
vn -0 0 -1
vn -0 0 -1
vn -0 0 -1
vn -0 0 -1
vn -0 0 -1
vn -0 0 -1
vn -0 0 -1
vn -0 0 -1
vn -0 0 -1
vn -0 0 -1
vn -0 0 -1
vn -0 0 -1
vn -0 0 -1
vn -0 0 -1
vn -0 0 -1
vn -0 0 -1
vn -0 0 -1
vn -0 0 -1
vn -0 0 -1
vn -0 0 -1
vn -0 0 -1
vn -0 0 -1
vn -0 0 -1
vn -0 0 -1
vn -0 0 -1
vn -0 0 -1
vn -0 0 -1
vn -0 0 -1
vn -0 0 -1
vn -0 0 -1
vn -0 0 -1
vn -0 0 -1
vn -0 0 -1
vn -0 0 -1
vn -0 0 -1
vn -0 0 -1
vn -0 0 -1
vn -0 0 -1
vn -0 0 -1
vn -0 0 -1
vn -0 0 -1
vn -0 0 -1
vn -0 0 -1
vn -0 0 -1
vn -0 0 -1
vn -0 0 -1
vn -0 0 -1
vn -0 0 -1
vn -0 0 -1
vn -0 0 -1
vn -0 0 -1
vn -0 0 -1
vn -0 0 -1
vn -0 0 -1
vn -0 0 -1
vn -0 0 -1
vn -0 0 -1
vn -0 0 -1
vn -0 0 -1
vn -0 0 -1
vn -0 0 -1
vn -0 0 -1
vn -0 0 -1
vn -0 0 -1
vn -0 0 -1
vn -0 0 -1
vn -0 0 -1
vn -0 0 -1
vn -0 0 -1
vn -0 0 -1
vn -0 0 -1
vn -0 0 -1
vn -0 0 -1
vn -0 0 -1
vn -0 0 -1
vn -0 0 -1
vn -0 0 -1
vn -0 0 -1
vn -0 0 -1
vn -0 0 -1
vn -0 0 -1
vn -0 0 -1
vn -0 0 -1
vn -0 0 -1
vn -0 0 -1
vn -0 0 -1
vn -0 0 -1
vn -0 0 -1
vn -0 0 -1
vn -0 0 -1
vn -0 0 -1
vn -0 0 -1
vn -0 0 -1
vn -0 0 -1
vn -0 0 -1
vn -0 0 -1
vn -0 0 -1
vn -0 0 -1
vn -0 0 -1
vn -0 0 -1
vn -0 0 -1
vn -0 0 -1
vn -0 0 -1
vn -0 0 -1
vn -0 0 -1
vn -0 0 -1
vn -0 0 -1
vn -0 0 -1
vn -0 0 -1
vn -0 0 -1
vn -0 0 -1
vn -0 0 -1
vn -0 0 -1
vn -0 0 -1
vn -0 0 -1
vn -0 0 -1
vn -0 0 -1
vn -0 0 -1
vn -0 0 -1
vn -0 0 -1
vn -0 0 -1
vn -0 0 -1
vn -0 0 -1
vn -0 0 -1
vn -0 0 -1
vn -0 0 -1
vn -0 0 -1
vn -0 0 -1
vn -0 0 -1
vn -0 0 -1
vn -0 0 -1
vn -0 0 -1
vn -0 0 -1
vn -0 0 -1
vn -0 0 -1
vn -0 0 -1
vn -0 0 -1
vn -0 0 -1
vn -0 0 -1
vn -0 0 -1
vn -0 0 -1
vn -0 0 -1
vn -0 0 -1
vn -0 0 -1
vn -0 0 -1
vn -0 0 -1
vn -0 0 -1
vn -0 0 -1
vn -0 0 -1
vn -0 0 -1
vn -0 0 -1
vn -0 0 -1
vn -0 0 -1
vn -0 0 -1
vn -0 0 -1
vn -0 0 -1
vn -0 0 -1
vn -0 0 -1
vn -0 0 -1
vn -0 0 -1
vn -0 0 -1
vn -0 0 -1
vn -0 0 -1
vn -0 0 -1
vn -0 0 -1
vn -0 0 -1
vn -0 0 -1
vn -0 0 -1
vn -0 0 -1
vn -0 0 -1
vn -0 0 -1
vn -0 0 -1
vn -0 0 -1
vn -0 0 -1
vn -0 0 -1
vn -0 0 -1
vn -0 0 -1
vn -0 0 -1
vn -0 0 -1
vn -0 0 -1
vn -0 0 -1
vn -0 0 -1
vn -0 0 -1
vn -0 0 -1
vn -0 0 -1
vn -0 0 -1
vn -0 0 -1
vn -0 0 -1
vn -0 0 -1
vn -0 0 -1
vn -0 0 -1
vn -0 0 -1
vn -0 0 -1
vn -0 0 -1
vn -0 0 -1
vn -0 0 -1
vn -0 0 -1
vn -0 0 -1
vn -0 0 -1
vn -0 0 -1
vn -0 0 -1
vn -0 0 -1
vn -0 0 -1
vn -0 0 -1
vn -0 0 -1
vn -0 0 -1
vn -0 0 -1
vn -0 0 -1
vn -0 0 -1
vn -0 0 -1
vn -0 0 -1
vn -0 0 -1
vn -0 0 -1
vn -0 0 -1
vn -0 0 -1
vn -0 0 -1
vn -0 0 -1
vn -0 0 -1
vn -0 0 -1
vn -0 0 -1
vn -0 0 -1
vn -0 0 -1
vn -0 0 -1
vn -0 0 -1
vn -0 0 -1
vn -0 0 -1
vn -0 0 -1
vn -0 0 -1
vn -0 0 -1
vn -0 0 -1
vn -0 0 -1
vn -0 0 -1
vn -0 0 -1
vn -0 0 -1
vn -0 0 -1
vn -0 0 -1
vn -0 0 -1
vn -0 0 -1
vn -0 0 -1
vn -0 0 -1
vn -0 0 -1
vn -0 0 -1
vn -0 0 -1
vn -0 0 -1
vn -0 0 -1
vn -0 0 -1
vn -0 0 -1
vn -0 0 -1
vn -0 0 -1
vn -0 0 -1
vn -0 0 -1
vn -0 0 -1
vn -0 0 -1
vn -0 0 -1
vn -0 0 -1
vn -0 0 -1
vn -0 0 -1
vn -0 0 -1
vn -0 0 -1
vn -0 0 -1
vn -0 0 -1
vn -0 0 -1
vn -0 0 -1
vn -0 0 -1
vn -0 0 -1
vn -0 0 -1
vn -0 0 -1
vn -0 0 -1
vn -0 0 -1
vn -0 0 -1
vn -0 0 -1
vn -0 0 -1
vn -0 0 -1
vn -0 0 -1
vn -0 0 -1
vn -0 0 -1
vn -0 0 -1
vn -0 0 -1
vn -0 0 -1
vn -0 0 -1
vn -0 0 -1
vn -0 0 -1
vn -0 0 -1
vn -0 0 -1
vn -0 0 -1
vn -0 0 -1
vn -0 0 -1
vn -0 0 -1
vn -0 0 -1
vn -0 0 -1
vn -0 0 -1
vn -0 0 -1
vn -0 0 -1
vn -0 0 -1
vn -0 0 -1
vn -0 0 -1
vn -0 0 -1
vn -0 0 -1
vn -0 0 -1
vn -0 0 -1
vn -0 0 -1
vn -0 0 -1
vn -0 0 -1
vn -0 0 -1
vn -0 0 -1
vn -0 0 -1
vn -0 0 -1
vn -0 0 -1
vn -0 0 -1
vn -0 0 -1
vn -0 0 -1
vn -0 0 -1
vn -0 0 -1
vn -0 0 -1
vn -0 0 -1
vn -0 0 -1
vn -0 0 -1
vn -0 0 -1
vn -0 0 -1
vn -0 0 -1
vn -0 0 -1
vn -0 0 -1
vn -0 0 -1
vn -0 0 -1
vn -0 0 -1
vn -0 0 -1
vn -0 0 -1
vn -0 0 -1
vn -0 0 -1
vn -0 0 -1
vn -0 0 -1
vn -0 0 -1
vn -0 0 -1
vn -0 0 -1
vn -0 0 -1
vn -0 0 -1
vn -0 0 -1
vn -0 0 -1
vn -0 0 -1
vn -0 0 -1
vn -0 0 -1
vn -0 0 -1
vn -0 0 -1
vn -0 0 -1
vn -0 0 -1
vn -0 0 -1
vn -0 0 -1
vn -0 0 -1
vn -0 0 -1
vn -0 0 -1
vn -0 0 -1
vn -0 0 -1
vn -0 0 -1
vn -0 0 -1
vn -0 0 -1
vn -0 0 -1
vn -0 0 -1
vn -0 0 -1
vn -0 0 -1
vn -0 0 -1
vn -0 0 -1
vn -0 0 -1
vn -0 0 -1
vn -0 0 -1
vn -0 0 -1
vn -0 0 -1
vn -0 0 -1
vn -0 0 -1
vn -0 0 -1
vn -0 0 -1
vn -0 0 -1
vn -0 0 -1
vn -0 0 -1
vn -0 0 -1
vn -0 0 -1
vn -0 0 -1
vn -0 0 -1
vn -0 0 -1
vn -0 0 -1
vn -0 0 -1
vn -0 0 -1
vn -0 0 -1
vn -0 0 -1
vn -0 0 -1
vn -0 0 -1
vn -0 0 -1
vn -0 0 -1
vn -0 0 -1
vn -0 0 -1
vn -0 0 -1
vn -0 0 -1
vn -0 0 -1
vn -0 0 -1
vn -0 0 -1
vn -0 0 -1
vn -0 0 -1
vn -0 0 -1
vn -0 0 -1
vn -0 0 -1
vn -0 0 -1
vn -0 0 -1
vn -0 0 -1
vn -0 0 -1
vn -0 0 -1
vn -0 0 -1
vn -0 0 -1
vn -0 0 -1
vn -0 0 -1
vn -0 0 -1
vn -0 0 -1
vn -0 0 -1
vn -0 0 -1
vn -0 0 -1
vn -0 0 -1
vn -0 0 -1
vn -0 0 -1
vn -0 0 -1
vn -0 0 -1
vn -0 0 -1
vn -0 0 -1
vn -0 0 -1
vn -0 0 -1
vn -0 0 -1
vn -0 0 -1
vn -0 0 -1
vn -0 0 -1
vn -0 0 -1
vn -0 0 -1
vn -0 0 -1
vn -0 0 -1
vn -0 0 -1
vn -0 0 -1
vn -0 0 -1
vn -0 0 -1
vn -0 0 -1
vn -0 0 -1
vn -0 0 -1
vn -0 0 -1
vn -0 0 -1
vn -0 0 -1
vn -0 0 -1
vn -0 0 -1
vn -0 0 -1
vn -0 0 -1
vn -0 0 -1
vn -0 0 -1
vn -0 0 -1
vn -0 0 -1
vn -0 0 -1
vn -0 0 -1
vn -0 0 -1
vn -0 0 -1
vn -0 0 -1
vn -0 0 -1
vn -0 0 -1
vn -0 0 -1
vn -0 0 -1
vn -0 0 -1
vn -0 0 -1
vn -0 0 -1
vn -0 0 -1
vn -0 0 -1
vn -0 0 -1
vn -0 0 -1
vn -0 0 -1
vn -0 0 -1
vn -0 0 -1
vn -0 0 -1
vn -0 0 -1
vn -0 0 -1
vn -0 0 -1
vn -0 0 -1
vn -0 0 -1
vn -0 0 -1
vn -0 0 -1
vn -0 0 -1
vn -0 0 -1
vn -0 0 -1
vn -0 0 -1
vn -0 0 -1
vn -0 0 -1
vn -0 0 -1
vn -0 0 -1
vn -0 0 -1
vn -0 0 -1
vn -0 0 -1
vn -0 0 -1
vn -0 0 -1
vn -0 0 -1
vn -0 0 -1
vn -0 0 -1
vn -0 0 -1
vn -0 0 -1
vn -0 0 -1
vn -0 0 -1
vn -0 0 -1
vn -0 0 -1
vn -0 0 -1
vn -0 0 -1
vn -0 0 -1
vn -0 0 -1
vn -0 0 -1
vn -0 0 -1
vn -0 0 -1
vn -0 0 -1
vn -0 0 -1
vn -0 0 -1
vn -0 0 -1
vn -0 0 -1
vn -0 0 -1
vn -0 0 -1
vn -0 0 -1
vn -0 0 -1
vn -0 0 -1
vn -0 0 -1
vn -0 0 -1
vn -0 0 -1
vn -0 0 -1
vn -0 0 -1
vn -0 0 -1
vn -0 0 -1
vn -0 0 -1
vn -0 0 -1
vn -0 0 -1
vn -0 0 -1
vn -0 0 -1
vn -0 0 -1
vn -0 0 -1
vn -0 0 -1
vn -0 0 -1
vn -0 0 -1
vn -0 0 -1
vn -0 0 -1
vn -0 0 -1
vn -0 0 -1
vn -0 0 -1
vn -0 0 -1
vn -0 0 -1
vn -0 0 -1
vn -0 0 -1
vn -0 0 -1
vn -0 0 -1
vn -0 0 -1
vn -0 0 -1
vn -0 0 -1
vn -0 0 -1
vn -0 0 -1
vn -0 0 -1
vn -0 0 -1
vn -0 0 -1
vn -0 0 -1
vn -0 0 -1
vn -0 0 -1
vn -0 0 -1
vn -0 0 -1
vn -0 0 -1
vn -0 0 -1
vn -0 0 -1
vn -0 0 -1
vn -0 0 -1
vn -0 0 -1
vn -0 0 -1
vn -0 0 -1
vn -0 0 -1
vn -0 0 -1
vn -0 0 -1
vn -0 0 -1
vn -0 0 -1
vn -0 0 -1
vn -0 0 -1
vn -0 0 -1
vn -0 0 -1
vn -0 0 -1
vn -0 0 -1
vn -0 0 -1
vn -0 0 -1
vn -0 0 -1
vn -0 0 -1
vn -0 0 -1
vn -0 0 -1
vn -0 0 -1
vn -0 0 -1
vn -0 0 -1
vn -0 0 -1
vn -0 0 -1
vn -0 0 -1
vn -0 0 -1
vn -0 0 -1
vn -0 0 -1
vn -0 0 -1
vn -0 0 -1
vn -0 0 -1
vn -0 0 -1
vn -0 0 -1
vn -0 0 -1
vn -0 0 -1
vn -0 0 -1
vn -0 0 -1
vn -0 0 -1
vn -0 0 -1
vn -0 0 -1
vn -0 0 -1
vn -0 0 -1
vn -0 0 -1
vn -0 0 -1
vn -0 0 -1
vn -0 0 -1
vn -0 0 -1
g cPK_90_000470_00_FIREex_RR_L_SB_0
f 3/3/3 2/2/2 1/1/1
f 3/3/3 4/4/4 2/2/2
f 6/6/6 4/4/4 5/5/5
f 6/6/6 7/7/7 4/4/4
f 3/3/3 5/5/5 4/4/4
f 9/9/9 8/8/8 6/6/6
f 5/5/5 9/9/9 6/6/6
f 11/11/11 10/10/10 8/8/8
f 9/9/9 11/11/11 8/8/8
f 13/13/13 12/12/12 10/10/10
f 14/14/14 12/12/12 13/13/13
f 11/11/11 13/13/13 10/10/10
f 13/13/13 15/15/15 14/14/14
f 18/18/18 17/17/17 16/16/16
f 18/18/18 20/20/20 19/19/19
f 18/18/18 16/16/16 20/20/20
f 22/22/22 21/21/21 19/19/19
f 20/20/20 23/23/23 19/19/19
f 23/23/23 22/22/22 19/19/19
f 25/25/25 24/24/24 21/21/21
f 22/22/22 25/25/25 21/21/21
f 27/27/27 24/24/24 26/26/26
f 27/27/27 28/28/28 24/24/24
f 25/25/25 26/26/26 24/24/24
g cPK_90_000470_00_FIREex_RR_L_SB_1
f 31/31/31 30/30/30 29/29/29
f 34/34/34 33/33/33 32/32/32
f 37/37/37 36/36/36 35/35/35
f 40/40/40 39/39/39 38/38/38
f 42/42/42 31/31/31 41/41/41
f 31/31/31 29/29/29 41/41/41
f 45/45/45 44/44/44 43/43/43
f 42/42/42 41/41/41 46/46/46
f 44/44/44 47/47/47 43/43/43
f 49/49/49 45/45/45 48/48/48
f 45/45/45 43/43/43 48/48/48
f 51/51/51 50/50/50 48/48/48
f 50/50/50 49/49/49 48/48/48
f 53/53/53 51/51/51 52/52/52
f 51/51/51 48/48/48 52/52/52
f 54/54/54 52/52/52 42/42/42
f 54/54/54 53/53/53 52/52/52
f 57/57/57 56/56/56 55/55/55
f 59/59/59 57/57/57 58/58/58
f 57/57/57 55/55/55 58/58/58
f 61/61/61 59/59/59 60/60/60
f 59/59/59 58/58/58 60/60/60
f 64/64/64 63/63/63 62/62/62
f 61/61/61 60/60/60 65/65/65
f 67/67/67 64/64/64 66/66/66
f 64/64/64 62/62/62 66/66/66
f 69/69/69 67/67/67 68/68/68
f 67/67/67 66/66/66 68/68/68
f 71/71/71 69/69/69 70/70/70
f 69/69/69 68/68/68 70/70/70
f 72/72/72 71/71/71 61/61/61
f 71/71/71 70/70/70 61/61/61
f 75/75/75 74/74/74 73/73/73
f 77/77/77 75/75/75 76/76/76
f 75/75/75 73/73/73 76/76/76
f 78/78/78 77/77/77 72/72/72
f 77/77/77 76/76/76 72/72/72
f 81/81/81 80/80/80 79/79/79
f 80/80/80 82/82/82 79/79/79
f 84/84/84 81/81/81 83/83/83
f 81/81/81 79/79/79 83/83/83
f 86/86/86 84/84/84 85/85/85
f 84/84/84 83/83/83 85/85/85
f 89/89/89 88/88/88 87/87/87
f 86/86/86 85/85/85 90/90/90
f 92/92/92 89/89/89 91/91/91
f 89/89/89 87/87/87 91/91/91
f 92/92/92 86/86/86 93/93/93
f 92/92/92 94/94/94 86/86/86
f 92/92/92 91/91/91 95/95/95
f 92/92/92 95/95/95 94/94/94
f 97/97/97 93/93/93 96/96/96
f 86/86/86 96/96/96 93/93/93
f 86/86/86 90/90/90 96/96/96
f 100/100/100 99/99/99 98/98/98
f 99/99/99 101/101/101 98/98/98
f 103/103/103 100/100/100 102/102/102
f 100/100/100 98/98/98 102/102/102
f 105/105/105 103/103/103 104/104/104
f 103/103/103 102/102/102 104/104/104
f 108/108/108 107/107/107 106/106/106
f 108/108/108 105/105/105 107/107/107
f 105/105/105 104/104/104 107/107/107
f 110/110/110 107/107/107 109/109/109
f 110/110/110 106/106/106 107/107/107
f 38/38/38 112/112/112 111/111/111
f 38/38/38 39/39/39 112/112/112
f 36/36/36 113/113/113 35/35/35
f 36/36/36 114/114/114 113/113/113
f 35/35/35 113/113/113 115/115/115
f 33/33/33 117/117/117 116/116/116
f 38/38/38 111/111/111 118/118/118
f 32/32/32 33/33/33 40/40/40
f 33/33/33 116/116/116 40/40/40
f 121/121/121 120/120/120 119/119/119
f 32/32/32 40/40/40 38/38/38
f 123/123/123 121/121/121 122/122/122
f 121/121/121 119/119/119 122/122/122
f 125/125/125 123/123/123 124/124/124
f 123/123/123 122/122/122 124/124/124
f 128/128/128 127/127/127 126/126/126
f 125/125/125 124/124/124 129/129/129
f 130/130/130 128/128/128 125/125/125
f 128/128/128 126/126/126 125/125/125
f 133/133/133 132/132/132 131/131/131
f 133/133/133 134/134/134 132/132/132
f 125/125/125 129/129/129 131/131/131
f 131/131/131 132/132/132 135/135/135
f 138/138/138 137/137/137 136/136/136
f 140/140/140 138/138/138 139/139/139
f 138/138/138 136/136/136 139/139/139
f 142/142/142 140/140/140 141/141/141
f 140/140/140 139/139/139 141/141/141
f 142/142/142 144/144/144 143/143/143
f 142/142/142 145/145/145 144/144/144
f 142/142/142 141/141/141 145/145/145
f 42/42/42 147/147/147 146/146/146
f 42/42/42 148/148/148 147/147/147
f 149/149/149 148/148/148 42/42/42
f 42/42/42 150/150/150 149/149/149
f 46/46/46 150/150/150 42/42/42
f 151/151/151 54/54/54 42/42/42
f 153/153/153 152/152/152 151/151/151
f 154/154/154 152/152/152 153/153/153
f 156/156/156 155/155/155 146/146/146
f 155/155/155 42/42/42 146/146/146
f 159/159/159 158/158/158 157/157/157
f 156/156/156 146/146/146 160/160/160
f 156/156/156 157/157/157 158/158/158
f 156/156/156 160/160/160 157/157/157
f 153/153/153 42/42/42 155/155/155
f 153/153/153 151/151/151 42/42/42
f 162/162/162 161/161/161 154/154/154
f 153/153/153 162/162/162 154/154/154
f 163/163/163 65/65/65 161/161/161
f 162/162/162 163/163/163 161/161/161
f 164/164/164 61/61/61 65/65/65
f 65/65/65 165/165/165 164/164/164
f 163/163/163 165/165/165 65/65/65
f 166/166/166 72/72/72 61/61/61
f 61/61/61 167/167/167 166/166/166
f 164/164/164 167/167/167 61/61/61
f 168/168/168 78/78/78 72/72/72
f 166/166/166 168/168/168 72/72/72
f 170/170/170 169/169/169 78/78/78
f 171/171/171 169/169/169 170/170/170
f 168/168/168 170/170/170 78/78/78
f 173/173/173 172/172/172 171/171/171
f 174/174/174 172/172/172 173/173/173
f 170/170/170 173/173/173 171/171/171
f 176/176/176 175/175/175 174/174/174
f 96/96/96 175/175/175 176/176/176
f 173/173/173 176/176/176 174/174/174
f 178/178/178 177/177/177 97/97/97
f 107/107/107 177/177/177 178/178/178
f 176/176/176 179/179/179 96/96/96
f 178/178/178 96/96/96 179/179/179
f 178/178/178 97/97/97 96/96/96
f 180/180/180 109/109/109 107/107/107
f 178/178/178 180/180/180 107/107/107
f 183/183/183 182/182/182 181/181/181
f 182/182/182 183/183/183 184/184/184
f 180/180/180 185/185/185 109/109/109
f 188/188/188 187/187/187 186/186/186
f 190/190/190 188/188/188 189/189/189
f 192/192/192 191/191/191 187/187/187
f 188/188/188 192/192/192 187/187/187
f 193/193/193 115/115/115 191/191/191
f 192/192/192 193/193/193 191/191/191
f 194/194/194 118/118/118 37/37/37
f 195/195/195 115/115/115 193/193/193
f 195/195/195 35/35/35 115/115/115
f 194/194/194 35/35/35 195/195/195
f 194/194/194 37/37/37 35/35/35
f 196/196/196 38/38/38 118/118/118
f 194/194/194 196/196/196 118/118/118
f 197/197/197 32/32/32 38/38/38
f 196/196/196 197/197/197 38/38/38
f 198/198/198 34/34/34 32/32/32
f 197/197/197 198/198/198 32/32/32
f 201/201/201 200/200/200 199/199/199
f 200/200/200 201/201/201 34/34/34
f 198/198/198 200/200/200 34/34/34
f 202/202/202 135/135/135 199/199/199
f 200/200/200 202/202/202 199/199/199
f 203/203/203 131/131/131 135/135/135
f 202/202/202 203/203/203 135/135/135
f 204/204/204 125/125/125 131/131/131
f 203/203/203 204/204/204 131/131/131
f 205/205/205 130/130/130 125/125/125
f 204/204/204 205/205/205 125/125/125
f 207/207/207 206/206/206 130/130/130
f 205/205/205 207/207/207 130/130/130
f 208/208/208 144/144/144 206/206/206
f 209/209/209 206/206/206 207/207/207
f 209/209/209 208/208/208 206/206/206
f 211/211/211 144/144/144 210/210/210
f 211/211/211 143/143/143 144/144/144
f 208/208/208 210/210/210 144/144/144
f 185/185/185 184/184/184 109/109/109
f 185/185/185 182/182/182 184/184/184
f 214/214/214 213/213/213 212/212/212
f 213/213/213 214/214/214 181/181/181
f 182/182/182 213/213/213 181/181/181
f 217/217/217 216/216/216 215/215/215
f 216/216/216 217/217/217 212/212/212
f 213/213/213 216/216/216 212/212/212
f 220/220/220 219/219/219 218/218/218
f 219/219/219 220/220/220 215/215/215
f 216/216/216 219/219/219 215/215/215
f 222/222/222 221/221/221 218/218/218
f 219/219/219 222/222/222 218/218/218
f 224/224/224 223/223/223 221/221/221
f 222/222/222 224/224/224 221/221/221
f 226/226/226 225/225/225 223/223/223
f 227/227/227 225/225/225 226/226/226
f 224/224/224 226/226/226 223/223/223
f 229/229/229 228/228/228 227/227/227
f 230/230/230 228/228/228 229/229/229
f 226/226/226 229/229/229 227/227/227
f 232/232/232 231/231/231 230/230/230
f 229/229/229 232/232/232 230/230/230
f 234/234/234 233/233/233 231/231/231
f 232/232/232 234/234/234 231/231/231
f 236/236/236 235/235/235 233/233/233
f 237/237/237 235/235/235 236/236/236
f 234/234/234 236/236/236 233/233/233
f 239/239/239 238/238/238 237/237/237
f 189/189/189 238/238/238 239/239/239
f 240/240/240 237/237/237 236/236/236
f 240/240/240 239/239/239 237/237/237
f 242/242/242 189/189/189 241/241/241
f 242/242/242 243/243/243 189/189/189
f 244/244/244 189/189/189 239/239/239
f 244/244/244 241/241/241 189/189/189
f 245/245/245 189/189/189 243/243/243
f 245/245/245 246/246/246 189/189/189
f 188/188/188 186/186/186 189/189/189
f 246/246/246 190/190/190 189/189/189
f 249/249/249 248/248/248 247/247/247
f 249/249/249 250/250/250 248/248/248
f 250/250/250 251/251/251 248/248/248
f 250/250/250 252/252/252 251/251/251
f 253/253/253 252/252/252 250/250/250
f 256/256/256 255/255/255 254/254/254
f 256/256/256 247/247/247 255/255/255
f 247/247/247 257/257/257 255/255/255
f 248/248/248 257/257/257 247/247/247
f 259/259/259 254/254/254 258/258/258
f 254/254/254 260/260/260 258/258/258
f 255/255/255 260/260/260 254/254/254
f 262/262/262 259/259/259 261/261/261
f 259/259/259 263/263/263 261/261/261
f 258/258/258 263/263/263 259/259/259
f 266/266/266 265/265/265 264/264/264
f 266/266/266 262/262/262 265/265/265
f 262/262/262 267/267/267 265/265/265
f 261/261/261 267/267/267 262/262/262
f 269/269/269 266/266/266 268/268/268
f 266/266/266 264/264/264 268/268/268
f 271/271/271 269/269/269 270/270/270
f 269/269/269 271/271/271 272/272/272
f 273/273/273 269/269/269 268/268/268
f 274/274/274 269/269/269 273/273/273
f 269/269/269 274/274/274 270/270/270
f 269/269/269 276/276/276 275/275/275
f 277/277/277 269/269/269 272/272/272
f 269/269/269 277/277/277 276/276/276
f 280/280/280 279/279/279 278/278/278
f 269/269/269 279/279/279 280/280/280
f 269/269/269 275/275/275 279/279/279
f 282/282/282 280/280/280 281/281/281
f 280/280/280 278/278/278 281/281/281
f 284/284/284 282/282/282 283/283/283
f 282/282/282 281/281/281 283/283/283
f 286/286/286 285/285/285 284/284/284
f 287/287/287 285/285/285 286/286/286
f 284/284/284 283/283/283 286/286/286
f 289/289/289 288/288/288 287/287/287
f 290/290/290 288/288/288 289/289/289
f 287/287/287 286/286/286 289/289/289
f 293/293/293 292/292/292 291/291/291
f 293/293/293 294/294/294 292/292/292
f 295/295/295 290/290/290 289/289/289
f 298/298/298 297/297/297 296/296/296
f 298/298/298 291/291/291 297/297/297
f 291/291/291 292/292/292 297/297/297
f 295/295/295 296/296/296 290/290/290
f 296/296/296 297/297/297 290/290/290
f 301/301/301 300/300/300 299/299/299
f 301/301/301 302/302/302 300/300/300
f 305/305/305 304/304/304 303/303/303
f 306/306/306 304/304/304 305/305/305
f 306/306/306 301/301/301 304/304/304
f 301/301/301 307/307/307 304/304/304
f 301/301/301 308/308/308 307/307/307
f 299/299/299 308/308/308 301/301/301
f 311/311/311 310/310/310 309/309/309
f 312/312/312 310/310/310 311/311/311
f 312/312/312 303/303/303 310/310/310
f 303/303/303 313/313/313 310/310/310
f 304/304/304 313/313/313 303/303/303
f 316/316/316 315/315/315 314/314/314
f 317/317/317 315/315/315 316/316/316
f 317/317/317 309/309/309 315/315/315
f 309/309/309 310/310/310 315/315/315
f 320/320/320 319/319/319 318/318/318
f 321/321/321 319/319/319 320/320/320
f 321/321/321 314/314/314 319/319/319
f 314/314/314 315/315/315 319/319/319
f 324/324/324 323/323/323 322/322/322
f 324/324/324 318/318/318 323/323/323
f 318/318/318 319/319/319 323/323/323
f 326/326/326 325/325/325 322/322/322
f 327/327/327 325/325/325 326/326/326
f 322/322/322 323/323/323 326/326/326
f 327/327/327 326/326/326 328/328/328
f 328/328/328 329/329/329 327/327/327
f 328/328/328 330/330/330 329/329/329
f 328/328/328 331/331/331 330/330/330
f 333/333/333 332/332/332 331/331/331
f 334/334/334 332/332/332 333/333/333
f 328/328/328 333/333/333 331/331/331
f 336/336/336 335/335/335 334/334/334
f 337/337/337 335/335/335 336/336/336
f 333/333/333 336/336/336 334/334/334
f 339/339/339 338/338/338 337/337/337
f 340/340/340 338/338/338 339/339/339
f 341/341/341 337/337/337 336/336/336
f 341/341/341 339/339/339 337/337/337
f 343/343/343 342/342/342 340/340/340
f 344/344/344 342/342/342 343/343/343
f 345/345/345 340/340/340 339/339/339
f 345/345/345 343/343/343 340/340/340
f 347/347/347 346/346/346 344/344/344
f 348/348/348 346/346/346 347/347/347
f 343/343/343 347/347/347 344/344/344
f 350/350/350 349/349/349 348/348/348
f 351/351/351 349/349/349 350/350/350
f 352/352/352 349/349/349 351/351/351
f 347/347/347 350/350/350 348/348/348
f 351/351/351 353/353/353 352/352/352
f 351/351/351 354/354/354 353/353/353
f 355/355/355 354/354/354 351/351/351
f 358/358/358 357/357/357 356/356/356
f 361/361/361 360/360/360 359/359/359
f 361/361/361 358/358/358 360/360/360
f 358/358/358 362/362/362 360/360/360
f 356/356/356 362/362/362 358/358/358
f 365/365/365 364/364/364 363/363/363
f 365/365/365 359/359/359 364/364/364
f 359/359/359 360/360/360 364/364/364
f 368/368/368 367/367/367 366/366/366
f 369/369/369 367/367/367 368/368/368
f 369/369/369 370/370/370 367/367/367
f 363/363/363 364/364/364 371/371/371
f 363/363/363 367/367/367 370/370/370
f 363/363/363 372/372/372 367/367/367
f 363/363/363 373/373/373 372/372/372
f 371/371/371 373/373/373 363/363/363
f 375/375/375 374/374/374 366/366/366
f 376/376/376 366/366/366 367/367/367
f 377/377/377 366/366/366 376/376/376
f 375/375/375 366/366/366 377/377/377
f 379/379/379 378/378/378 374/374/374
f 375/375/375 379/379/379 374/374/374
f 381/381/381 380/380/380 378/378/378
f 379/379/379 381/381/381 378/378/378
f 383/383/383 382/382/382 380/380/380
f 381/381/381 383/383/383 380/380/380
f 385/385/385 384/384/384 382/382/382
f 383/383/383 385/385/385 382/382/382
f 387/387/387 386/386/386 384/384/384
f 385/385/385 387/387/387 384/384/384
f 389/389/389 388/388/388 386/386/386
f 387/387/387 389/389/389 386/386/386
f 391/391/391 390/390/390 388/388/388
f 389/389/389 391/391/391 388/388/388
f 393/393/393 392/392/392 390/390/390
f 391/391/391 393/393/393 390/390/390
f 396/396/396 395/395/395 394/394/394
f 395/395/395 397/397/397 394/394/394
f 393/393/393 396/396/396 398/398/398
f 396/396/396 394/394/394 398/398/398
f 393/393/393 398/398/398 392/392/392
f 401/401/401 400/400/400 399/399/399
f 401/401/401 402/402/402 400/400/400
f 404/404/404 399/399/399 403/403/403
f 399/399/399 400/400/400 403/403/403
f 407/407/407 406/406/406 405/405/405
f 407/407/407 408/408/408 406/406/406
f 404/404/404 403/403/403 409/409/409
f 411/411/411 405/405/405 410/410/410
f 405/405/405 406/406/406 410/410/410
f 413/413/413 410/410/410 412/412/412
f 413/413/413 411/411/411 410/410/410
f 404/404/404 415/415/415 414/414/414
f 404/404/404 409/409/409 415/415/415
f 417/417/417 414/414/414 416/416/416
f 414/414/414 415/415/415 416/416/416
f 419/419/419 417/417/417 418/418/418
f 417/417/417 416/416/416 418/418/418
f 412/412/412 420/420/420 413/413/413
f 419/419/419 420/420/420 412/412/412
f 419/419/419 418/418/418 420/420/420
f 422/422/422 419/419/419 421/421/421
f 419/419/419 412/412/412 423/423/423
f 419/419/419 423/423/423 421/421/421
f 425/425/425 422/422/422 424/424/424
f 422/422/422 421/421/421 426/426/426
f 422/422/422 426/426/426 424/424/424
f 428/428/428 425/425/425 427/427/427
f 425/425/425 424/424/424 427/427/427
f 431/431/431 430/430/430 429/429/429
f 428/428/428 427/427/427 432/432/432
f 430/430/430 433/433/433 429/429/429
f 430/430/430 434/434/434 433/433/433
f 431/431/431 435/435/435 432/432/432
f 431/431/431 429/429/429 435/435/435
f 435/435/435 428/428/428 432/432/432
g cPK_90_000470_00_FIREex_RR_L_SB_2
f 94/94/94 84/84/84 86/86/86
f 95/95/95 84/84/84 94/94/94
f 95/95/95 81/81/81 84/84/84
f 91/91/91 81/81/81 95/95/95
f 80/80/80 436/436/436 82/82/82
f 81/81/81 436/436/436 80/80/80
f 91/91/91 436/436/436 81/81/81
f 87/87/87 436/436/436 91/91/91
f 87/87/87 88/88/88 436/436/436
f 159/159/159 438/438/438 437/437/437
f 439/439/439 158/158/158 159/159/159
f 437/437/437 439/439/439 159/159/159
f 440/440/440 156/156/156 158/158/158
f 439/439/439 440/440/440 158/158/158
f 440/440/440 155/155/155 156/156/156
f 441/441/441 153/153/153 155/155/155
f 440/440/440 441/441/441 155/155/155
f 442/442/442 162/162/162 153/153/153
f 163/163/163 162/162/162 442/442/442
f 441/441/441 442/442/442 153/153/153
f 442/442/442 165/165/165 163/163/163
f 164/164/164 442/442/442 167/167/167
f 164/164/164 165/165/165 442/442/442
f 443/443/443 166/166/166 167/167/167
f 168/168/168 443/443/443 170/170/170
f 168/168/168 166/166/166 443/443/443
f 442/442/442 443/443/443 167/167/167
f 444/444/444 173/173/173 170/170/170
f 444/444/444 176/176/176 173/173/173
f 443/443/443 444/444/444 170/170/170
f 180/180/180 445/445/445 185/185/185
f 445/445/445 179/179/179 176/176/176
f 178/178/178 445/445/445 180/180/180
f 178/178/178 179/179/179 445/445/445
f 444/444/444 445/445/445 176/176/176
f 446/446/446 182/182/182 185/185/185
f 446/446/446 213/213/213 182/182/182
f 446/446/446 216/216/216 213/213/213
f 219/219/219 216/216/216 446/446/446
f 445/445/445 446/446/446 185/185/185
f 226/226/226 447/447/447 229/229/229
f 447/447/447 222/222/222 219/219/219
f 224/224/224 447/447/447 226/226/226
f 224/224/224 222/222/222 447/447/447
f 448/448/448 219/219/219 446/446/446
f 448/448/448 447/447/447 219/219/219
f 234/234/234 449/449/449 236/236/236
f 449/449/449 232/232/232 229/229/229
f 234/234/234 232/232/232 449/449/449
f 450/450/450 229/229/229 447/447/447
f 450/450/450 449/449/449 229/229/229
f 239/239/239 451/451/451 244/244/244
f 240/240/240 451/451/451 239/239/239
f 451/451/451 240/240/240 236/236/236
f 449/449/449 451/451/451 236/236/236
f 241/241/241 452/452/452 242/242/242
f 452/452/452 241/241/241 244/244/244
f 451/451/451 452/452/452 244/244/244
f 245/245/245 453/453/453 246/246/246
f 453/453/453 243/243/243 242/242/242
f 245/245/245 243/243/243 453/453/453
f 452/452/452 453/453/453 242/242/242
f 454/454/454 190/190/190 246/246/246
f 188/188/188 190/190/190 454/454/454
f 453/453/453 454/454/454 246/246/246
f 193/193/193 454/454/454 195/195/195
f 454/454/454 192/192/192 188/188/188
f 193/193/193 192/192/192 454/454/454
f 455/455/455 194/194/194 195/195/195
f 455/455/455 196/196/196 194/194/194
f 197/197/197 196/196/196 455/455/455
f 454/454/454 455/455/455 195/195/195
f 457/457/457 456/456/456 208/208/208
f 456/456/456 210/210/210 208/208/208
f 456/456/456 211/211/211 210/210/210
f 458/458/458 457/457/457 205/205/205
f 209/209/209 457/457/457 208/208/208
f 207/207/207 457/457/457 209/209/209
f 457/457/457 207/207/207 205/205/205
f 455/455/455 458/458/458 202/202/202
f 458/458/458 203/203/203 202/202/202
f 458/458/458 204/204/204 203/203/203
f 205/205/205 204/204/204 458/458/458
f 455/455/455 198/198/198 197/197/197
f 200/200/200 455/455/455 202/202/202
f 200/200/200 198/198/198 455/455/455
f 461/461/461 460/460/460 459/459/459
f 141/141/141 462/462/462 145/145/145
f 141/141/141 139/139/139 462/462/462
f 463/463/463 142/142/142 143/143/143
f 463/463/463 140/140/140 142/142/142
f 461/461/461 140/140/140 463/463/463
f 459/459/459 140/140/140 461/461/461
f 459/459/459 138/138/138 140/140/140
f 137/137/137 138/138/138 459/459/459
f 139/139/139 464/464/464 462/462/462
f 136/136/136 464/464/464 139/139/139
f 464/464/464 137/137/137 459/459/459
f 137/137/137 464/464/464 136/136/136
f 462/462/462 117/117/117 33/33/33
f 465/465/465 117/117/117 462/462/462
f 145/145/145 206/206/206 144/144/144
f 206/206/206 145/145/145 462/462/462
f 121/121/121 127/127/127 120/120/120
f 126/126/126 123/123/123 125/125/125
f 121/121/121 126/126/126 127/127/127
f 123/123/123 126/126/126 121/121/121
f 129/129/129 462/462/462 131/131/131
f 129/129/129 124/124/124 462/462/462
f 191/191/191 466/466/466 187/187/187
f 115/115/115 466/466/466 191/191/191
f 466/466/466 115/115/115 113/113/113
f 462/462/462 133/133/133 131/131/131
f 34/34/34 462/462/462 33/33/33
f 201/201/201 462/462/462 34/34/34
f 199/199/199 462/462/462 201/201/201
f 135/135/135 462/462/462 199/199/199
f 132/132/132 462/462/462 135/135/135
f 134/134/134 462/462/462 132/132/132
f 134/134/134 133/133/133 462/462/462
f 465/465/465 114/114/114 36/36/36
f 465/465/465 36/36/36 37/37/37
f 118/118/118 465/465/465 37/37/37
f 111/111/111 465/465/465 118/118/118
f 112/112/112 465/465/465 111/111/111
f 39/39/39 465/465/465 112/112/112
f 40/40/40 465/465/465 39/39/39
f 116/116/116 465/465/465 40/40/40
f 465/465/465 116/116/116 117/117/117
f 114/114/114 466/466/466 113/113/113
f 465/465/465 466/466/466 114/114/114
f 467/467/467 238/238/238 189/189/189
f 467/467/467 237/237/237 238/238/238
f 467/467/467 235/235/235 237/237/237
f 233/233/233 235/235/235 467/467/467
f 466/466/466 186/186/186 187/187/187
f 466/466/466 189/189/189 186/186/186
f 467/467/467 189/189/189 466/466/466
f 468/468/468 231/231/231 233/233/233
f 468/468/468 230/230/230 231/231/231
f 468/468/468 228/228/228 230/230/230
f 227/227/227 228/228/228 468/468/468
f 467/467/467 468/468/468 233/233/233
f 225/225/225 468/468/468 223/223/223
f 468/468/468 225/225/225 227/227/227
f 120/120/120 206/206/206 462/462/462
f 127/127/127 206/206/206 120/120/120
f 122/122/122 462/462/462 124/124/124
f 119/119/119 462/462/462 122/122/122
f 119/119/119 120/120/120 462/462/462
f 128/128/128 206/206/206 127/127/127
f 128/128/128 130/130/130 206/206/206
f 469/469/469 110/110/110 109/109/109
f 101/101/101 469/469/469 470/470/470
f 99/99/99 469/469/469 101/101/101
f 100/100/100 469/469/469 99/99/99
f 103/103/103 469/469/469 100/100/100
f 105/105/105 469/469/469 103/103/103
f 469/469/469 106/106/106 110/110/110
f 108/108/108 469/469/469 105/105/105
f 106/106/106 469/469/469 108/108/108
f 109/109/109 184/184/184 469/469/469
f 104/104/104 177/177/177 107/107/107
f 88/88/88 470/470/470 436/436/436
f 88/88/88 101/101/101 470/470/470
f 89/89/89 101/101/101 88/88/88
f 92/92/92 101/101/101 89/89/89
f 93/93/93 101/101/101 92/92/92
f 102/102/102 177/177/177 104/104/104
f 97/97/97 101/101/101 93/93/93
f 97/97/97 98/98/98 101/101/101
f 97/97/97 102/102/102 98/98/98
f 177/177/177 102/102/102 97/97/97
f 76/76/76 71/71/71 72/72/72
f 64/64/64 471/471/471 63/63/63
f 67/67/67 471/471/471 64/64/64
f 69/69/69 471/471/471 67/67/67
f 73/73/73 71/71/71 76/76/76
f 73/73/73 69/69/69 71/71/71
f 74/74/74 69/69/69 73/73/73
f 69/69/69 74/74/74 471/471/471
f 90/90/90 175/175/175 96/96/96
f 74/74/74 436/436/436 471/471/471
f 74/74/74 82/82/82 436/436/436
f 75/75/75 82/82/82 74/74/74
f 77/77/77 82/82/82 75/75/75
f 78/78/78 82/82/82 77/77/77
f 169/169/169 82/82/82 78/78/78
f 171/171/171 82/82/82 169/169/169
f 171/171/171 79/79/79 82/82/82
f 172/172/172 79/79/79 171/171/171
f 172/172/172 83/83/83 79/79/79
f 174/174/174 83/83/83 172/172/172
f 174/174/174 85/85/85 83/83/83
f 175/175/175 85/85/85 174/174/174
f 90/90/90 85/85/85 175/175/175
f 70/70/70 59/59/59 61/61/61
f 56/56/56 63/63/63 50/50/50
f 56/56/56 62/62/62 63/63/63
f 56/56/56 66/66/66 62/62/62
f 57/57/57 66/66/66 56/56/56
f 57/57/57 68/68/68 66/66/66
f 59/59/59 68/68/68 57/57/57
f 70/70/70 68/68/68 59/59/59
f 63/63/63 471/471/471 472/472/472
f 147/147/147 160/160/160 146/146/146
f 473/473/473 29/29/29 30/30/30
f 473/473/473 41/41/41 29/29/29
f 160/160/160 473/473/473 157/157/157
f 147/147/147 473/473/473 160/160/160
f 148/148/148 473/473/473 147/147/147
f 149/149/149 473/473/473 148/148/148
f 150/150/150 473/473/473 149/149/149
f 46/46/46 473/473/473 150/150/150
f 46/46/46 41/41/41 473/473/473
f 44/44/44 472/472/472 47/47/47
f 45/45/45 472/472/472 44/44/44
f 63/63/63 49/49/49 50/50/50
f 49/49/49 472/472/472 45/45/45
f 49/49/49 63/63/63 472/472/472
f 51/51/51 56/56/56 50/50/50
f 60/60/60 161/161/161 65/65/65
f 53/53/53 56/56/56 51/51/51
f 53/53/53 55/55/55 56/56/56
f 54/54/54 55/55/55 53/53/53
f 151/151/151 55/55/55 54/54/54
f 152/152/152 55/55/55 151/151/151
f 154/154/154 55/55/55 152/152/152
f 154/154/154 58/58/58 55/55/55
f 161/161/161 58/58/58 154/154/154
f 60/60/60 58/58/58 161/161/161
f 52/52/52 31/31/31 42/42/42
f 48/48/48 31/31/31 52/52/52
f 48/48/48 30/30/30 31/31/31
f 43/43/43 30/30/30 48/48/48
f 43/43/43 473/473/473 30/30/30
f 47/47/47 473/473/473 43/43/43
f 47/47/47 472/472/472 473/473/473
f 460/460/460 463/463/463 143/143/143
f 460/460/460 461/461/461 463/463/463
f 181/181/181 474/474/474 469/469/469
f 183/183/183 469/469/469 184/184/184
f 183/183/183 181/181/181 469/469/469
f 212/212/212 475/475/475 474/474/474
f 214/214/214 474/474/474 181/181/181
f 214/214/214 212/212/212 474/474/474
f 220/220/220 476/476/476 475/475/475
f 217/217/217 475/475/475 212/212/212
f 215/215/215 475/475/475 217/217/217
f 215/215/215 220/220/220 475/475/475
f 223/223/223 476/476/476 221/221/221
f 223/223/223 468/468/468 476/476/476
f 218/218/218 476/476/476 220/220/220
f 218/218/218 221/221/221 476/476/476
f 478/478/478 477/477/477 247/247/247
f 480/480/480 286/286/286 479/479/479
f 480/480/480 289/289/289 286/286/286
f 481/481/481 478/478/478 262/262/262
f 256/256/256 478/478/478 247/247/247
f 254/254/254 478/478/478 256/256/256
f 478/478/478 259/259/259 262/262/262
f 254/254/254 259/259/259 478/478/478
f 482/482/482 481/481/481 280/280/280
f 266/266/266 481/481/481 262/262/262
f 269/269/269 481/481/481 266/266/266
f 481/481/481 269/269/269 280/280/280
f 483/483/483 482/482/482 282/282/282
f 482/482/482 280/280/280 282/282/282
f 484/484/484 483/483/483 285/285/285
f 483/483/483 284/284/284 285/285/285
f 282/282/282 284/284/284 483/483/483
f 485/485/485 484/484/484 288/288/288
f 287/287/287 484/484/484 285/285/285
f 484/484/484 287/287/287 288/288/288
f 486/486/486 485/485/485 297/297/297
f 290/290/290 485/485/485 288/288/288
f 485/485/485 290/290/290 297/297/297
f 487/487/487 486/486/486 293/293/293
f 486/486/486 294/294/294 293/293/293
f 486/486/486 292/292/292 294/294/294
f 297/297/297 292/292/292 486/486/486
f 487/487/487 298/298/298 488/488/488
f 487/487/487 291/291/291 298/298/298
f 293/293/293 291/291/291 487/487/487
f 488/488/488 295/295/295 489/489/489
f 488/488/488 296/296/296 295/295/295
f 298/298/298 296/296/296 488/488/488
f 490/490/490 479/479/479 281/281/281
f 479/479/479 286/286/286 283/283/283
f 479/479/479 283/283/283 281/281/281
f 490/490/490 279/279/279 275/275/275
f 278/278/278 490/490/490 281/281/281
f 490/490/490 278/278/278 279/279/279
f 491/491/491 490/490/490 277/277/277
f 490/490/490 276/276/276 277/277/277
f 275/275/275 276/276/276 490/490/490
f 492/492/492 491/491/491 270/270/270
f 272/272/272 491/491/491 277/277/277
f 491/491/491 271/271/271 270/270/270
f 272/272/272 271/271/271 491/491/491
f 493/493/493 492/492/492 264/264/264
f 274/274/274 492/492/492 270/270/270
f 273/273/273 492/492/492 274/274/274
f 492/492/492 268/268/268 264/264/264
f 273/273/273 268/268/268 492/492/492
f 494/494/494 493/493/493 263/263/263
f 265/265/265 493/493/493 264/264/264
f 493/493/493 261/261/261 263/263/263
f 267/267/267 493/493/493 265/265/265
f 267/267/267 261/261/261 493/493/493
f 495/495/495 494/494/494 255/255/255
f 258/258/258 494/494/494 263/263/263
f 494/494/494 260/260/260 255/255/255
f 258/258/258 260/260/260 494/494/494
f 496/496/496 495/495/495 251/251/251
f 257/257/257 495/495/495 255/255/255
f 248/248/248 495/495/495 257/257/257
f 495/495/495 248/248/248 251/251/251
f 250/250/250 477/477/477 496/496/496
f 249/249/249 477/477/477 250/250/250
f 477/477/477 249/249/249 247/247/247
f 252/252/252 496/496/496 251/251/251
f 496/496/496 253/253/253 250/250/250
f 252/252/252 253/253/253 496/496/496
f 295/295/295 480/480/480 489/489/489
f 295/295/295 289/289/289 480/480/480
f 497/497/497 304/304/304 307/307/307
f 497/497/497 313/313/313 304/304/304
f 310/310/310 313/313/313 497/497/497
f 307/307/307 498/498/498 497/497/497
f 499/499/499 315/315/315 310/310/310
f 319/319/319 315/315/315 499/499/499
f 499/499/499 310/310/310 497/497/497
f 500/500/500 323/323/323 319/319/319
f 326/326/326 323/323/323 500/500/500
f 499/499/499 500/500/500 319/319/319
f 501/501/501 328/328/328 326/326/326
f 333/333/333 328/328/328 501/501/501
f 500/500/500 501/501/501 326/326/326
f 502/502/502 336/336/336 333/333/333
f 341/341/341 336/336/336 502/502/502
f 501/501/501 502/502/502 333/333/333
f 503/503/503 339/339/339 341/341/341
f 345/345/345 339/339/339 503/503/503
f 502/502/502 503/503/503 341/341/341
f 504/504/504 343/343/343 345/345/345
f 503/503/503 504/504/504 345/345/345
f 504/504/504 347/347/347 343/343/343
f 350/350/350 347/347/347 504/504/504
f 505/505/505 351/351/351 350/350/350
f 355/355/355 351/351/351 505/505/505
f 504/504/504 505/505/505 350/350/350
f 506/506/506 354/354/354 355/355/355
f 353/353/353 354/354/354 506/506/506
f 505/505/505 506/506/506 355/355/355
f 507/507/507 352/352/352 353/353/353
f 349/349/349 352/352/352 507/507/507
f 506/506/506 507/507/507 353/353/353
f 508/508/508 348/348/348 349/349/349
f 346/346/346 348/348/348 508/508/508
f 507/507/507 508/508/508 349/349/349
f 509/509/509 344/344/344 346/346/346
f 509/509/509 342/342/342 344/344/344
f 340/340/340 342/342/342 509/509/509
f 508/508/508 509/509/509 346/346/346
f 510/510/510 338/338/338 340/340/340
f 337/337/337 338/338/338 510/510/510
f 509/509/509 510/510/510 340/340/340
f 511/511/511 335/335/335 337/337/337
f 334/334/334 511/511/511 332/332/332
f 334/334/334 335/335/335 511/511/511
f 510/510/510 511/511/511 337/337/337
f 512/512/512 331/331/331 332/332/332
f 511/511/511 512/512/512 332/332/332
f 514/514/514 377/377/377 513/513/513
f 514/514/514 375/375/375 377/377/377
f 379/379/379 514/514/514 381/381/381
f 379/379/379 375/375/375 514/514/514
f 515/515/515 383/383/383 381/381/381
f 515/515/515 385/385/385 383/383/383
f 387/387/387 385/385/385 515/515/515
f 514/514/514 515/515/515 381/381/381
f 516/516/516 389/389/389 387/387/387
f 391/391/391 389/389/389 516/516/516
f 515/515/515 516/516/516 387/387/387
f 517/517/517 393/393/393 391/391/391
f 396/396/396 393/393/393 517/517/517
f 516/516/516 517/517/517 391/391/391
f 398/398/398 518/518/518 392/392/392
f 398/398/398 519/519/519 518/518/518
f 519/519/519 398/398/398 394/394/394
f 517/517/517 520/520/520 396/396/396
f 520/520/520 395/395/395 396/396/396
f 520/520/520 397/397/397 395/395/395
f 520/520/520 394/394/394 397/397/397
f 519/519/519 394/394/394 520/520/520
f 521/521/521 390/390/390 392/392/392
f 521/521/521 388/388/388 390/390/390
f 386/386/386 388/388/388 521/521/521
f 518/518/518 521/521/521 392/392/392
f 522/522/522 384/384/384 386/386/386
f 521/521/521 522/522/522 386/386/386
f 523/523/523 382/382/382 384/384/384
f 380/380/380 382/382/382 523/523/523
f 522/522/522 523/523/523 384/384/384
f 524/524/524 378/378/378 380/380/380
f 523/523/523 524/524/524 380/380/380
f 525/525/525 374/374/374 378/378/378
f 524/524/524 525/525/525 378/378/378
f 369/369/369 525/525/525 526/526/526
f 525/525/525 369/369/369 368/368/368
f 360/360/360 527/527/527 364/364/364
f 362/362/362 527/527/527 360/360/360
f 527/527/527 362/362/362 356/356/356
f 525/525/525 366/366/366 374/374/374
f 368/368/368 366/366/366 525/525/525
f 529/529/529 528/528/528 361/361/361
f 528/528/528 358/358/358 361/361/361
f 357/357/357 358/358/358 528/528/528
f 363/363/363 526/526/526 529/529/529
f 526/526/526 370/370/370 369/369/369
f 363/363/363 370/370/370 526/526/526
f 529/529/529 365/365/365 363/363/363
f 529/529/529 359/359/359 365/365/365
f 361/361/361 359/359/359 529/529/529
f 527/527/527 357/357/357 528/528/528
f 527/527/527 356/356/356 357/357/357
f 530/530/530 371/371/371 364/364/364
f 373/373/373 371/371/371 530/530/530
f 527/527/527 530/530/530 364/364/364
f 367/367/367 531/531/531 376/376/376
f 531/531/531 367/367/367 372/372/372
f 530/530/530 372/372/372 373/373/373
f 531/531/531 372/372/372 530/530/530
f 376/376/376 513/513/513 377/377/377
f 376/376/376 531/531/531 513/513/513
f 430/430/430 533/533/533 532/532/532
f 533/533/533 431/431/431 432/432/432
f 431/431/431 533/533/533 430/430/430
f 536/536/536 535/535/535 534/534/534
f 537/537/537 401/401/401 399/399/399
f 401/401/401 537/537/537 535/535/535
f 538/538/538 432/432/432 427/427/427
f 538/538/538 533/533/533 432/432/432
f 419/419/419 539/539/539 537/537/537
f 537/537/537 417/417/417 419/419/419
f 404/404/404 537/537/537 399/399/399
f 414/414/414 537/537/537 404/404/404
f 414/414/414 417/417/417 537/537/537
f 425/425/425 540/540/540 539/539/539
f 422/422/422 539/539/539 419/419/419
f 422/422/422 425/425/425 539/539/539
f 428/428/428 541/541/541 540/540/540
f 425/425/425 428/428/428 540/540/540
f 429/429/429 542/542/542 541/541/541
f 435/435/435 541/541/541 428/428/428
f 435/435/435 429/429/429 541/541/541
f 433/433/433 542/542/542 429/429/429
f 532/532/532 434/434/434 430/430/430
f 434/434/434 542/542/542 433/433/433
f 434/434/434 532/532/532 542/542/542
f 543/543/543 538/538/538 424/424/424
f 538/538/538 427/427/427 424/424/424
f 544/544/544 543/543/543 426/426/426
f 543/543/543 424/424/424 426/426/426
f 545/545/545 544/544/544 423/423/423
f 421/421/421 544/544/544 426/426/426
f 544/544/544 421/421/421 423/423/423
f 546/546/546 545/545/545 410/410/410
f 412/412/412 545/545/545 423/423/423
f 545/545/545 412/412/412 410/410/410
f 403/403/403 536/536/536 409/409/409
f 536/536/536 400/400/400 402/402/402
f 403/403/403 400/400/400 536/536/536
f 406/406/406 546/546/546 410/410/410
f 546/546/546 406/406/406 408/408/408
f 535/535/535 402/402/402 401/401/401
f 536/536/536 402/402/402 535/535/535
f 547/547/547 415/415/415 409/409/409
f 416/416/416 547/547/547 418/418/418
f 416/416/416 415/415/415 547/547/547
f 536/536/536 547/547/547 409/409/409
f 548/548/548 420/420/420 418/418/418
f 413/413/413 420/420/420 548/548/548
f 547/547/547 548/548/548 418/418/418
f 549/549/549 411/411/411 413/413/413
f 405/405/405 411/411/411 549/549/549
f 548/548/548 549/549/549 413/413/413
f 550/550/550 407/407/407 405/405/405
f 549/549/549 550/550/550 405/405/405
f 550/550/550 408/408/408 407/407/407
f 546/546/546 408/408/408 550/550/550
f 553/553/553 552/552/552 551/551/551
f 553/553/553 554/554/554 552/552/552
f 555/555/555 554/554/554 553/553/553
f 557/557/557 551/551/551 556/556/556
f 558/558/558 551/551/551 552/552/552
f 551/551/551 558/558/558 556/556/556
f 560/560/560 557/557/557 559/559/559
f 557/557/557 556/556/556 559/559/559
f 561/561/561 560/560/560 559/559/559
f 561/561/561 563/563/563 562/562/562
f 561/561/561 559/559/559 563/563/563
f 565/565/565 564/564/564 562/562/562
f 563/563/563 565/565/565 562/562/562
f 564/564/564 566/566/566 562/562/562
f 569/569/569 568/568/568 567/567/567
f 572/572/572 571/571/571 570/570/570
f 573/573/573 571/571/571 572/572/572
f 575/575/575 570/570/570 574/574/574
f 578/578/578 577/577/577 576/576/576
f 579/579/579 567/567/567 576/576/576
f 578/578/578 581/581/581 580/580/580
f 578/578/578 576/576/576 581/581/581
f 583/583/583 582/582/582 580/580/580
f 581/581/581 583/583/583 580/580/580
f 577/577/577 579/579/579 576/576/576
f 570/570/570 571/571/571 574/574/574
f 585/585/585 575/575/575 584/584/584
f 575/575/575 574/574/574 584/584/584
f 586/586/586 585/585/585 567/567/567
f 585/585/585 584/584/584 567/567/567
f 587/587/587 569/569/569 567/567/567
f 568/568/568 586/586/586 567/567/567
f 579/579/579 587/587/587 567/567/567
g cPK_90_000470_00_FIREex_RR_L_SB_3
f 590/590/590 589/589/589 588/588/588
f 593/593/593 592/592/592 591/591/591
f 596/596/596 595/595/595 594/594/594
f 598/598/598 596/596/596 597/597/597
f 592/592/592 596/596/596 598/598/598
f 593/593/593 596/596/596 592/592/592
f 593/593/593 595/595/595 596/596/596
f 589/589/589 599/599/599 588/588/588
f 600/600/600 599/599/599 589/589/589
f 602/602/602 590/590/590 601/601/601
f 590/590/590 603/603/603 601/601/601
f 590/590/590 588/588/588 603/603/603
f 456/456/456 602/602/602 211/211/211
f 602/602/602 604/604/604 211/211/211
f 602/602/602 601/601/601 604/604/604
f 607/607/607 606/606/606 605/605/605
f 605/605/605 608/608/608 607/607/607
f 605/605/605 609/609/609 608/608/608
f 610/610/610 609/609/609 605/605/605
f 612/612/612 611/611/611 606/606/606
f 613/613/613 611/611/611 612/612/612
f 614/614/614 611/611/611 613/613/613
f 607/607/607 612/612/612 606/606/606
f 610/610/610 594/594/594 615/615/615
f 605/605/605 594/594/594 610/610/610
f 594/594/594 605/605/605 596/596/596
f 617/617/617 616/616/616 597/597/597
f 617/617/617 618/618/618 616/616/616
f 617/617/617 619/619/619 618/618/618
f 617/617/617 620/620/620 619/619/619
f 621/621/621 620/620/620 617/617/617
f 597/597/597 596/596/596 617/617/617
f 459/459/459 622/622/622 621/621/621
f 459/459/459 623/623/623 622/622/622
f 459/459/459 460/460/460 623/623/623
f 621/621/621 617/617/617 459/459/459
f 460/460/460 143/143/143 623/623/623
f 622/622/622 143/143/143 621/621/621
f 622/622/622 623/623/623 143/143/143
f 620/620/620 143/143/143 619/619/619
f 620/620/620 621/621/621 143/143/143
f 591/591/591 592/592/592 598/598/598
f 615/615/615 594/594/594 593/593/593
f 591/591/591 598/598/598 597/597/597
f 594/594/594 595/595/595 593/593/593
f 609/609/609 610/610/610 615/615/615
f 615/615/615 593/593/593 591/591/591
f 607/607/607 608/608/608 615/615/615
f 608/608/608 609/609/609 615/615/615
f 612/612/612 607/607/607 615/615/615
f 604/604/604 619/619/619 143/143/143
f 211/211/211 604/604/604 143/143/143
f 601/601/601 618/618/618 619/619/619
f 604/604/604 601/601/601 619/619/619
f 616/616/616 603/603/603 597/597/597
f 603/603/603 616/616/616 618/618/618
f 601/601/601 603/603/603 618/618/618
f 588/588/588 615/615/615 591/591/591
f 603/603/603 591/591/591 597/597/597
f 603/603/603 588/588/588 591/591/591
f 599/599/599 612/612/612 615/615/615
f 588/588/588 599/599/599 615/615/615
f 600/600/600 613/613/613 612/612/612
f 614/614/614 613/613/613 600/600/600
f 599/599/599 600/600/600 612/612/612
f 302/302/302 624/624/624 300/300/300
f 302/302/302 625/625/625 624/624/624
f 330/330/330 626/626/626 329/329/329
f 330/330/330 512/512/512 626/626/626
f 299/299/299 300/300/300 624/624/624
f 305/305/305 627/627/627 625/625/625
f 301/301/301 625/625/625 302/302/302
f 306/306/306 625/625/625 301/301/301
f 306/306/306 305/305/305 625/625/625
f 309/309/309 628/628/628 627/627/627
f 303/303/303 627/627/627 305/305/305
f 312/312/312 627/627/627 303/303/303
f 311/311/311 627/627/627 312/312/312
f 311/311/311 309/309/309 627/627/627
f 314/314/314 629/629/629 628/628/628
f 628/628/628 316/316/316 314/314/314
f 317/317/317 628/628/628 309/309/309
f 317/317/317 316/316/316 628/628/628
f 318/318/318 630/630/630 629/629/629
f 321/321/321 629/629/629 314/314/314
f 320/320/320 629/629/629 321/321/321
f 320/320/320 318/318/318 629/629/629
f 630/630/630 329/329/329 626/626/626
f 630/630/630 327/327/327 329/329/329
f 325/325/325 327/327/327 630/630/630
f 324/324/324 630/630/630 318/318/318
f 630/630/630 322/322/322 325/325/325
f 324/324/324 322/322/322 630/630/630
f 498/498/498 308/308/308 299/299/299
f 307/307/307 308/308/308 498/498/498
f 299/299/299 624/624/624 498/498/498
f 331/331/331 512/512/512 330/330/330
g cPK_90_000470_00_FIREex_RR_L_SB_4
f 633/633/633 632/632/632 631/631/631
f 635/635/635 633/633/633 634/634/634
f 633/633/633 631/631/631 634/634/634
f 637/637/637 636/636/636 635/635/635
f 637/637/637 635/635/635 634/634/634
f 639/639/639 638/638/638 636/636/636
f 637/637/637 639/639/639 636/636/636
f 16/16/16 17/17/17 638/638/638
f 639/639/639 16/16/16 638/638/638
