g cPK_10_002170_00_CELEBIex_RR_L_SB
v 0.122279815 0.34442332 -0.010289048
v 0.12839533 0.3371838 -0.010844846
v 0.1275404 0.35210058 -0.00962079
v 0.13299607 0.3238047 -0.011648672
v 0.1352685 0.31222102 -0.012486219
v 0.15081094 0.31222102 -0.012486219
v 0.14383705 0.34088174 -0.010399093
v 0.08903445 0.31297907 -0.012346657
v 0.096243046 0.29041752 -0.013840933
v 0.10238709 0.31222102 -0.012486219
v 0.13640784 0.3024589 -0.013151713
v 0.08164655 0.27355433 -0.0154707385
v 0.07409532 0.23311892 -0.019336652
v 0.087182604 0.24080682 -0.018531134
v 0.09201122 0.27275544 -0.0154707385
v 0.1246111 0.23246188 -0.019336628
v 0.13500915 0.22730242 -0.019755315
v 0.12850636 0.2419325 -0.018531142
v 0.15046771 0.27192304 -0.0154707385
v 0.13567545 0.27234146 -0.0154707385
v 0.13355717 0.2608785 -0.01658717
v 0.08827643 0.1963725 -0.022857282
v 0.090827025 0.21498132 -0.021182645
v 0.084905215 0.227494 -0.019755302
v 0.10214734 0.20225406 -0.022159515
v 0.11950129 0.20546739 -0.022159515
v 0.111596026 0.21284743 -0.021182645
v 0.1275404 0.31222102 -0.012486219
v 0.11360542 0.27247947 -0.0154707385
v 0.1275404 0.27234146 -0.0154707385
v 0.11552516 0.31222102 -0.012486219
v 0.10169252 0.27261743 -0.0154707385
v 0.09054377 0.23246188 -0.019336622
v 0.111685686 0.23246188 -0.019336669
v 0.10275131 0.1906124 -0.022857282
v 0.098666586 0.19742098 -0.022857282
v 0.106847145 0.3490685 -0.009966078
v 0.11160612 0.332097 -0.011233816
v 0.11685965 0.3399432 -0.010485642
v 0.106352665 0.32044864 -0.011832975
v 0.09555355 0.32845 -0.0112704355
v 0.13684128 0.28583255 -0.0141740665
v 0.14474669 0.24716774 -0.017972924
v 0.10169252 0.23246188 -0.01933666
v 0.21967219 0.30254114 -0.025964532
v 0.23907137 0.30090365 -0.025964532
v 0.22316478 0.32592037 -0.025964534
v 0.21443032 0.28252396 -0.025964532
v 0.21735838 0.23901239 -0.025964532
v 0.20044601 0.24134909 -0.025964534
v 0.18697913 0.20270486 -0.025964532
v 0.18277733 0.15544191 -0.025964532
v 0.1995924 0.18966512 -0.025964532
v 0.17347935 0.17998837 -0.025964532
v 0.119253 0.1381965 -0.025964532
v 0.117470145 0.11606558 -0.025964532
v 0.13117784 0.1458216 -0.025964532
v 0.08847547 0.109484196 -0.025964532
v 0.095402375 0.12724173 -0.025964532
v 0.065088145 0.19315074 -0.025964532
v 0.069115534 0.16878054 -0.025964532
v 0.085954316 0.16854845 -0.025964532
v 0.08188005 0.18504667 -0.025964532
v 0.11855767 0.25948763 -0.025964532
v 0.09074736 0.22948651 -0.025964532
v 0.09926786 0.2048815 -0.025964532
v 0.12053871 0.22615123 -0.025964532
v 0.13519196 0.24225631 -0.025964532
v 0.15923546 0.30741596 -0.025964532
v 0.15321647 0.26190808 -0.025964532
v 0.17658971 0.28731987 -0.025964532
v 0.18580556 0.2980527 -0.025964532
v 0.18895988 0.30538937 -0.025964532
v 0.18260053 0.36240822 -0.025964532
v 0.20458332 0.3550676 -0.025964532
v 0.2073164 0.3556012 -0.025964532
v 0.21428859 0.37521607 -0.025964532
v 0.22269109 0.3592517 -0.025964532
v 0.22582932 0.35914978 -0.025964532
v 0.23983829 0.36015472 -0.025964532
v 0.1938902 0.3337168 -0.025964532
v 0.19761299 0.34096324 -0.025964532
v 0.16509229 0.27580628 -0.025964532
v 0.21222916 0.35042244 -0.025964532
v 0.2188267 0.35690734 -0.025964532
v 0.16080329 0.1677432 -0.025964532
v 0.1532844 0.13427041 -0.025964532
v 0.18776666 0.32840845 -0.025964532
v 0.19014768 0.3328131 -0.025964532
v 0.18920904 0.3163864 -0.025964532
v 0.20200677 0.35150275 -0.025964532
v 0.22612286 0.35177276 -0.025964532
v -0.21315609 0.14941041 -0.0108794505
v -0.1910697 0.14942297 -0.012687278
v -0.19787924 0.17278244 -0.011712107
v -0.10688519 0.13723157 -0.018192707
v -0.06926674 0.12997377 -0.020319233
v -0.09282425 0.1502942 -0.019129118
v -0.051050473 0.12672399 -0.021112192
v -0.024814745 0.121819176 -0.022514403
v -0.04210173 0.1387255 -0.021762295
v -0.23413599 0.09762772 -0.009369767
v -0.18877552 0.09962102 -0.012687281
v -0.21282732 0.11177669 -0.0108794505
v -0.23330458 0.12737744 -0.009369767
v -0.25479296 0.12235612 -0.008384813
v 0.020634023 0.089130856 -0.024393816
v -0.01037309 0.11018302 -0.023489555
v 0.009770939 0.09251858 -0.024393816
v -0.20315051 0.07629247 -0.01171212
v -0.16196863 0.09021931 -0.014407674
v -0.16196863 0.07144507 -0.014407674
v -0.13916142 0.085106365 -0.015681336
v -0.06914431 0.08114726 -0.020319233
v -0.06838968 0.0650196 -0.020319233
v -0.03914285 0.08429735 -0.021762295
v -0.06914431 0.12547205 -0.020319233
v -0.2413073 0.13625209 -0.009369769
v -0.24245994 0.142076 -0.009369769
v -0.23933117 0.14570308 -0.009369769
v -0.23116474 0.14780492 -0.009369767
v -0.25680825 0.15314381 -0.008384813
v -0.16196863 0.13436478 -0.014407674
v -0.16196863 0.14652427 -0.014407674
v -0.16196863 0.103121534 -0.014407674
v -0.16196863 0.1184782 -0.014407674
v -0.21294141 0.124837115 -0.0108794505
v -0.06914431 0.11148107 -0.020319233
v -0.1074607 0.11372365 -0.018192707
v -0.06914431 0.093385786 -0.020319233
v -0.041490432 0.09248664 -0.021762295
v -0.23690705 0.17181295 -0.009369769
v -0.16196862 0.16676351 -0.014407674
v -0.04664758 0.1102484 -0.021112192
v -0.10773136 0.09506479 -0.018192707
v -0.08729225 0.08108055 -0.019129118
v -0.05043238 0.123679414 -0.021112192
v -0.107213154 0.12930238 -0.018192707
v -0.21306737 0.1392601 -0.0108794505
v -0.019289577 0.110199094 -0.023001982
v -0.011228341 0.0925055 -0.023489555
v -0.10797598 0.08168809 -0.018192707
v -0.015114817 0.13132383 -0.023164505
v -0.0040905005 0.073623195 -0.023652082
v -0.009947643 0.08911752 -0.023489555
v 0.0017186253 0.11331224 -0.023743713
v 0.08890786 -0.0017481804 -0.019169636
v 0.105126955 -0.010097253 -0.019169636
v 0.1141089 0.010575247 -0.019169636
v 0.09872943 0.0047447714 -0.019169636
v 0.109548464 0.05755657 -0.019169636
v 0.10506158 0.049812224 -0.019169636
v 0.113513224 0.041912865 -0.019169636
v 0.12083919 0.05928073 -0.019169636
v 0.10597923 0.07628999 -0.020124553
v 0.10939264 0.0673333 -0.019169636
v 0.11470093 0.08513009 -0.020347994
v 0.09893458 0.102156416 -0.022821387
v 0.102688454 0.09084498 -0.022012634
v 0.10147969 0.11195729 -0.021965241
v 0.093732305 0.11052332 -0.02357875
v 0.0002353251 0.05556747 -0.019169636
v 0.0054950537 0.06826198 -0.019169636
v -0.002842021 0.076353945 -0.019169636
v 0.0118608745 0.033869185 -0.019169636
v 0.03557536 0.03010798 -0.019169636
v 0.023289025 0.03794934 -0.019169636
v 0.03394432 0.017983673 -0.019169636
v 0.0549028 0.015498889 -0.019169636
v 0.04607451 0.025513237 -0.019169636
v 0.10820156 0.098317936 -0.021125069
v 0.103314914 0.07970753 -0.0208754
v 0.098035276 0.04428366 -0.019169636
v 0.09158748 0.04325954 -0.019169636
v 0.08803212 0.042542353 -0.020366719
v 0.09265234 0.036750395 -0.020077523
v 0.089208044 0.044710647 -0.019169636
v 0.11187372 0.031178713 -0.019169636
v 0.10077417 0.02173669 -0.019169636
v 0.10126629 0.0121483505 -0.019169636
v 0.07482414 -0.00024867058 -0.019169636
v 0.06755405 -0.011806893 -0.019169636
v 0.04981482 0.001642251 -0.019169636
v 0.06562535 0.005563134 -0.019169636
v 0.059874456 0.010892036 -0.019169636
v 0.041556522 0.027145952 -0.019169636
v 0.015241987 0.046741277 -0.019169636
v 0.010321587 0.05579707 -0.019169636
v 0.0027715445 0.07936794 -0.019169636
v 0.09748965 0.029619157 -0.019676726
v -0.029612556 0.15716739 -0.032361604
v -0.045773614 0.14432521 -0.032361604
v -0.0051343874 0.14648095 -0.032361604
v -0.014420563 0.15759118 -0.032361604
v -0.04245713 0.15730487 -0.032361604
v -0.05833001 0.15962608 -0.032361604
v -0.20207691 0.27379355 -0.044112187
v -0.18546812 0.27173996 -0.042967595
v -0.18357363 0.27615556 -0.043090552
v -0.1950984 0.28875825 -0.044494204
v -0.17776977 0.28113022 -0.043000933
v -0.17765243 0.27951917 -0.042905804
v -0.15733895 0.28839076 -0.042126533
v -0.17884766 0.29928803 -0.04405794
v -0.17893057 0.28079855 -0.043055024
v -0.019223005 0.17850138 -0.032361604
v -0.015249687 0.16754062 -0.032361604
v -0.007373035 0.17578872 -0.032361604
v -0.024382273 0.16861197 -0.032361604
v -0.037501503 0.18314704 -0.032361604
v -0.04113055 0.1717562 -0.032361604
v -0.05267886 0.18799387 -0.032361604
v -0.058995254 0.17858444 -0.032361604
v -0.080596745 0.15178728 -0.032361604
v -0.07313462 0.16398188 -0.032361604
v -0.066501655 0.19448712 -0.032361604
v -0.07462705 0.1856473 -0.032361604
v -0.104641296 0.15966402 -0.032361604
v -0.094691806 0.17310221 -0.032361604
v -0.088068835 0.20690267 -0.033376936
v -0.09718918 0.19834916 -0.03341509
v -0.13142188 0.17301284 -0.034224626
v -0.11890215 0.18706486 -0.03419663
v -0.10961594 0.22101896 -0.035486232
v -0.11873632 0.21275702 -0.03552438
v -0.15438853 0.18992692 -0.036574718
v -0.14162008 0.20335868 -0.036513176
v -0.12949413 0.23598456 -0.037538078
v -0.13896687 0.2269403 -0.03758683
v -0.17221467 0.20692387 -0.038609732
v -0.15787084 0.219112 -0.038382437
v -0.147341 0.2512819 -0.039481703
v -0.15621261 0.24191986 -0.039427537
v -0.18516968 0.22123523 -0.040195458
v -0.1695822 0.23276006 -0.039854683
v -0.16732284 0.25177935 -0.040751163
v -0.160084 0.26694238 -0.041127805
v -0.19335727 0.23635772 -0.041529007
v -0.17975968 0.24697052 -0.04126222
v -0.1995756 0.2550129 -0.04293273
v -0.18456857 0.2592415 -0.04223023
v -0.18589517 0.2676985 -0.0427738
v -0.17368159 0.26022646 -0.041607056
v -0.17802477 0.26852763 -0.042365376
v -0.16038245 0.2987313 -0.042879537
v -0.17926218 0.27499482 -0.042759206
v 0.20631044 0.32756564 -0.025964532
v 0.16311269 0.24186634 -0.025964532
v 0.20438612 0.3040801 -0.025964532
v 0.11995679 0.20443271 -0.025964532
v 0.16172312 0.20343462 -0.025964532
v 0.11941928 0.16815326 -0.025964532
v 0.11975993 0.18347989 -0.025964532
v 0.16108783 0.1807638 -0.025964532
v 0.20270088 0.28402078 -0.025964532
v 0.08147929 0.014919597 -0.020122455
v 0.09812906 0.05787095 -0.020471856
v 0.077027194 0.02428848 -0.02063675
v 0.074296825 0.02994733 -0.02082638
v 0.060159326 0.026111353 -0.019908605
v 0.08503938 0.047909137 -0.021692367
v 0.10237285 0.06901201 -0.020197403
v 0.06459236 0.035066705 -0.021045601
v 0.07783642 0.10757692 -0.024816789
v 0.0834638 0.09716046 -0.02488984
v 0.028514018 0.0926622 -0.024597075
v 0.0343195 0.08011553 -0.024905156
v 0.041233983 0.09771844 -0.025136957
v 0.089291565 0.083755314 -0.02405745
v 0.04148757 0.064280316 -0.02430412
v 0.06974688 0.07620799 -0.02490304
v 0.06261261 0.09077474 -0.025136957
v 0.09354953 0.071734734 -0.02228139
v 0.04993804 0.049577456 -0.023556737
v 0.07683014 0.06298678 -0.023770746
v 0.013143328 0.07167159 -0.021885684
v 0.010495001 0.0836941 -0.021885684
v 0.019734805 0.05593116 -0.021885684
v 0.029600194 0.04093435 -0.021885684
v 0.045898706 0.03111167 -0.020993574
v 0.05604524 0.10199465 -0.025136957
v -0.3139808 0.044803377 -0.039703336
v -0.31582862 0.012414451 -0.03981286
v -0.30755422 0.044813238 -0.039297298
v -0.26196042 0.037091255 -0.036414932
v -0.25707957 -0.0042125327 -0.036097344
v -0.24671297 0.036924656 -0.035451546
v -0.26685756 -0.001854424 -0.036715653
v -0.06084145 0.08056938 -0.025949875
v -0.048914935 0.0021025522 -0.025949875
v -0.037369113 0.0060354103 -0.025949875
v -0.025886243 0.08778773 -0.025949875
v 0.031991106 0.058179714 -0.025949875
v 0.036087476 0.062439512 -0.025949875
v -0.2832375 0.038602065 -0.03775957
v -0.2995331 0.006622971 -0.038782
v -0.29438877 0.04200818 -0.038464874
v -0.3104517 0.01025366 -0.03947266
v -0.34407195 0.03506155 -0.04160235
v -0.3442952 0.03307599 -0.04161601
v -0.34200284 0.03675553 -0.041472
v -0.34200278 0.03004076 -0.041470498
v -0.3337284 0.038434196 -0.04094959
v -0.33035108 0.020807935 -0.040732276
v -0.32021913 0.038602065 -0.0400961
v -0.32394588 0.016612157 -0.040326655
v -0.31785497 0.043470293 -0.03994782
v -0.3195599 0.041754458 -0.040055152
v -0.1920097 0.0468428 -0.031997558
v -0.18749072 -0.007394084 -0.03169995
v -0.15523736 0.055388995 -0.02967616
v -0.13649333 -0.0070583806 -0.02847797
v -0.11302098 0.06713983 -0.027011517
v -0.08850782 -0.0051160674 -0.025949875
v -0.08853545 0.07385461 -0.025949875
v -0.061957892 -0.0011539961 -0.025949875
v -0.021182561 0.01369673 -0.025949875
v -0.0059601045 0.023661716 -0.025949875
v 0.010588772 0.037594862 -0.025949875
v -0.23080471 0.037594862 -0.034446597
v -0.2178865 -0.007394084 -0.033620384
v -0.13155769 0.061718296 -0.028181473
v -0.10559087 -0.0058832453 -0.026525794
v 0.028150827 0.053878177 -0.025949875
v -0.24625595 -0.005883291 -0.035413124
v -0.02385987 0.090137914 -0.025949875
v 0.038113885 0.064789675 -0.025949875
v -0.10630634 0.44041798 -0.029900406
v -0.10121832 0.4402487 -0.029900406
v -0.103969514 0.44147387 -0.029900406
v -0.12920229 0.4101162 -0.029900406
v -0.090899654 0.3961846 -0.029900406
v -0.095960766 0.40850806 -0.029900406
v -0.1553207 0.34121785 -0.029900406
v -0.15874988 0.31201655 -0.029900406
v -0.084142536 0.38386118 -0.029900406
v -0.076220125 0.3725709 -0.029900406
v -0.16050476 0.28432027 -0.029900406
v -0.06154228 0.35983908 -0.029900406
v -0.11140584 0.13487072 -0.029900406
v -0.10175178 0.122673094 -0.029900406
v 0.065303616 0.29891056 -0.029900406
v 0.12539278 0.23372297 -0.029900406
v -0.026594449 0.060004782 -0.029900406
v 0.13138247 0.21908434 -0.029900406
v -0.050881326 0.07408876 -0.029900406
v -0.038147304 0.0658158 -0.029900406
v 0.11316849 0.2555868 -0.029900406
v -0.10092509 0.4375131 -0.029900406
v -0.11076838 0.43596837 -0.029900406
v -0.11682148 0.42806035 -0.029900406
v -0.10042129 0.43123028 -0.029900406
v -0.100011304 0.42363548 -0.029900406
v -0.121813074 0.42040738 -0.029900406
v -0.09977674 0.41654903 -0.029900406
v -0.13425787 0.40026504 -0.029900406
v -0.14175265 0.3911565 -0.029900406
v -0.14599264 0.37761387 -0.029900406
v 0.07890228 0.2892899 -0.029900406
v -0.0866841 0.104804456 -0.029900406
v 0.09084114 0.2790275 -0.029900406
v -0.071617715 0.09118637 -0.029900406
v 0.13606767 0.20164879 -0.029900406
v -0.006581736 0.05238704 -0.029900406
v 0.10235961 0.26866737 -0.029900406
v -0.060626786 0.081175886 -0.029900406
v 0.13897946 0.18214847 -0.029900406
v 0.0085688345 0.049356524 -0.029900406
v -0.13683431 0.4013135 -0.029900406
v 0.11127358 0.107418954 -0.029900406
v 0.08433439 0.067811646 -0.029900406
v 0.09686463 0.07633612 -0.029900406
v 0.10833961 0.08716785 -0.029900406
v 0.121030286 0.102105156 -0.029900406
v 0.13009171 0.117212415 -0.029900406
v 0.13606729 0.1318525 -0.029900406
v 0.13821276 0.1463157 -0.029900406
v 0.06880539 0.05979485 -0.029900406
v 0.08144352 0.106529474 -0.029900406
v 0.13928 0.16300844 -0.029900406
v 0.024115842 0.04909188 -0.029900406
v 0.045532476 0.05224215 -0.029900406
v -0.1215523 0.15141039 -0.029900406
v 0.03759901 0.31364235 -0.029900406
v -0.13908465 0.18547723 -0.029900406
v 0.008093303 0.324841 -0.029900406
v -0.019640878 0.3362087 -0.029900406
v -0.14835243 0.21161197 -0.029900406
v -0.15300046 0.22959614 -0.029900406
v -0.04453393 0.34860778 -0.029900406
v -0.15744063 0.24895842 -0.029900406
v -0.15871657 0.26553664 -0.029900406
v -0.15120791 0.3593777 -0.029900406
v 0.010172914 0.35235214 -0.04650904
v 0.011514272 0.34084058 -0.04569797
v 0.018297747 0.35173646 -0.046056658
v -0.016925506 0.3398591 -0.047522943
v -0.00934225 0.3381472 -0.046972677
v -0.011913755 0.34345645 -0.047472488
v 0.07269957 0.21277516 -0.033185672
v 0.08008362 0.20784791 -0.033185672
v 0.08619854 0.21959841 -0.033185672
v 0.07718429 0.22591603 -0.03318568
v 0.07964456 0.23641907 -0.03352735
v 0.08978978 0.23170952 -0.033185672
v 0.092581205 0.24333909 -0.03294282
v 0.08020747 0.24736278 -0.034042094
v 0.09383353 0.2558883 -0.03377663
v 0.080162816 0.2551391 -0.034647495
v 0.079291575 0.26354924 -0.03534587
v 0.092964105 0.26900288 -0.03481394
v 0.07504527 0.27672735 -0.0365733
v 0.09018399 0.28238535 -0.036018606
v 0.060902756 0.3050532 -0.039690714
v 0.06805056 0.29240915 -0.03825232
v 0.083704464 0.3005148 -0.037830736
v 0.07625587 0.31392333 -0.03936916
v 0.068322815 0.32514772 -0.040832072
v 0.051555056 0.31775647 -0.04127969
v 0.058686823 0.33453932 -0.042021383
v 0.0383123 0.33011314 -0.043098927
v 0.024516122 0.33745128 -0.044576295
v 0.03960113 0.34676984 -0.04419915
v 0.026994377 0.35059926 -0.04537115
v 0.00055325776 0.34075084 -0.046452925
v -0.004456174 0.34821314 -0.04730379
v -0.023244504 0.33156717 -0.047400434
v 0.086777404 0.29264617 -0.037026923
v 0.071287744 0.28576475 -0.03749231
v 0.050434332 0.3407631 -0.043043524
v -0.35938966 0.0459802 -0.04257257
v -0.35779175 0.018793512 -0.04246555
v -0.32232994 -0.0059672277 -0.040219527
v -0.32950673 0.05824278 -0.040687274
v -0.31582642 0.06290011 -0.039823983
v -0.28510115 0.059970178 -0.037882082
v -0.11842468 0.088459246 -0.02735768
v -0.09337842 0.09462014 -0.025949875
v 0.0046771066 0.004865935 -0.025949875
v -0.051722694 -0.023173854 -0.025949875
v 0.032141842 0.032445796 -0.025949875
v 0.0460973 0.06002562 -0.025949875
v -0.09256061 -0.028617768 -0.025949875
v -0.26374975 -0.023097843 -0.03651456
v -0.36326945 0.030145649 -0.042814165
v -0.34006086 0.054046042 -0.04135316
v -0.038888898 0.10910714 -0.025949875
v -0.0669206 0.10104942 -0.025949875
v -0.26196042 0.058242757 -0.036419645
v -0.24951492 0.05946657 -0.0356336
v -0.13606165 0.083695315 -0.028470937
v -0.19423717 0.069703184 -0.032143395
v -0.15641941 0.07838708 -0.02975597
v -0.016768152 -0.010412968 -0.025949875
v -0.13868856 -0.029888576 -0.028611576
v -0.1893482 -0.029888576 -0.031812295
v -0.222277 -0.029049251 -0.03389295
v -0.23080471 0.061306387 -0.034451887
v -0.095176704 0.4631252 -0.029900406
v -0.11283109 0.4623881 -0.029900406
v -0.081588455 0.43080264 -0.029900406
v -0.15227392 0.4154995 -0.029900406
v -0.17270023 0.35635182 -0.029900406
v -0.18308994 0.27976805 -0.029900406
v -0.020828078 0.363988 -0.029900406
v 0.028062945 0.33870858 -0.029900406
v 0.16735074 0.11990054 -0.029900406
v -0.17390347 0.19616918 -0.029900406
v -0.12722038 0.106744066 -0.029900406
v 0.1672368 0.20423643 -0.029900406
v 0.12808514 0.055943992 -0.029900406
v -0.004406042 0.01897452 -0.029900406
v 0.05910885 0.023486912 -0.029900406
v 0.09070063 0.3097832 -0.029900406
v -0.071270764 0.05055839 -0.029900406
v -0.06483223 0.3955547 -0.029900406
v -0.085861966 0.44167525 -0.029900406
v -0.13740997 0.4357693 -0.029900406
v -0.14430007 0.43527174 -0.029900406
v 0.14064823 0.2702448 -0.029900406
v -0.1531059 0.14976378 -0.029900406
v -0.10336788 0.46698865 -0.029900406
v 0.026428355 0.018110413 -0.029900406
v 0.11691534 0.29284868 -0.029900406
v 0.15717588 0.24001336 -0.029900406
v 0.17165487 0.16143978 -0.029900406
v 0.15003082 0.08264672 -0.029900406
v 0.094411336 0.034698505 -0.029900406
v -0.03788396 0.028229266 -0.029900406
v -0.10051624 0.076520965 -0.029900406
v 0.11103679 0.25004503 -0.03233485
v 0.111491345 0.27826557 -0.034289762
v 0.06152878 0.2624895 -0.036404792
v 0.09456209 0.32710364 -0.03913648
v 0.051553138 0.36370632 -0.044782277
v 0.030519778 0.31490362 -0.042458992
v 0.022690287 0.3710367 -0.047257528
v -0.025648607 0.35881624 -0.049573988
v 0.084174186 0.19671185 -0.033185672
v 0.1020574 0.22504024 -0.033185672
v 0.06019059 0.20718427 -0.033185672
v 0.062929355 0.23263934 -0.033185687
v 0.06360897 0.24539398 -0.03496359
v 0.07903859 0.34737828 -0.041712653
v 0.048529282 0.2933734 -0.03962204
v 0.015333314 0.32097295 -0.04393
v -0.0011073928 0.32460842 -0.045332413
v -0.006724298 0.36731336 -0.048961412
v -0.023346122 0.3201914 -0.046465036
v -0.03745786 0.32922384 -0.048102316
v -0.036201704 0.319825 -0.04729018
v -0.036348175 0.34236586 -0.04904759
v 0.10601914 0.30426905 -0.03663519
v 0.057593133 0.27903903 -0.037927583
vt 0.6015625 0.9316406
vt 0.5942383 0.92333984
vt 0.59521484 0.9399414
vt 0.58935547 0.9086914
vt 0.5864258 0.8955078
vt 0.56884766 0.8955078
vt 0.57714844 0.9277344
vt 0.63916016 0.8955078
vt 0.63134766 0.8701172
vt 0.62402344 0.89501953
vt 0.5854492 0.88427734
vt 0.6479492 0.85058594
vt 0.6567383 0.8041992
vt 0.64208984 0.8129883
vt 0.63623047 0.85009766
vt 0.5991211 0.80371094
vt 0.58740234 0.79785156
vt 0.59472656 0.8149414
vt 0.56933594 0.8496094
vt 0.5864258 0.8496094
vt 0.5888672 0.8364258
vt 0.640625 0.76220703
vt 0.6376953 0.7832031
vt 0.64453125 0.79785156
vt 0.625 0.76904297
vt 0.60498047 0.7729492
vt 0.6142578 0.78125
vt 0.59521484 0.89501953
vt 0.6113281 0.8496094
vt 0.5957031 0.8496094
vt 0.609375 0.89501953
vt 0.625 0.8496094
vt 0.6381836 0.80371094
vt 0.61376953 0.80371094
vt 0.62402344 0.7553711
vt 0.62890625 0.7631836
vt 0.61865234 0.93652344
vt 0.61376953 0.91748047
vt 0.6074219 0.9267578
vt 0.6196289 0.9042969
vt 0.63183594 0.91308594
vt 0.58496094 0.8652344
vt 0.5761719 0.8208008
vt 0.6254883 0.80371094
vt 0.8105469 0.32836914
vt 0.78808594 0.32666016
vt 0.8066406 0.3552246
vt 0.81640625 0.30517578
vt 0.8129883 0.2553711
vt 0.83251953 0.2578125
vt 0.84814453 0.2133789
vt 0.85253906 0.15905762
vt 0.8330078 0.19848633
vt 0.86328125 0.18713379
vt 0.92626953 0.1385498
vt 0.92822266 0.113220215
vt 0.91259766 0.14746094
vt 0.96191406 0.10546875
vt 0.95410156 0.12585449
vt 0.9897461 0.20092773
vt 0.9848633 0.1730957
vt 0.96533203 0.17297363
vt 0.97021484 0.19189453
vt 0.92822266 0.2775879
vt 0.9604492 0.24291992
vt 0.9501953 0.21484375
vt 0.92578125 0.23950195
vt 0.9086914 0.25805664
vt 0.88134766 0.33325195
vt 0.8876953 0.28100586
vt 0.86083984 0.31030273
vt 0.85009766 0.3227539
vt 0.8466797 0.33129883
vt 0.8544922 0.39648438
vt 0.8286133 0.38842773
vt 0.8256836 0.38916016
vt 0.8173828 0.4116211
vt 0.8076172 0.39331055
vt 0.80371094 0.39331055
vt 0.78759766 0.3947754
vt 0.8408203 0.36376953
vt 0.8364258 0.3720703
vt 0.87402344 0.296875
vt 0.8198242 0.38330078
vt 0.8120117 0.390625
vt 0.87841797 0.17297363
vt 0.88671875 0.13439941
vt 0.84814453 0.35766602
vt 0.84521484 0.36279297
vt 0.8461914 0.34375
vt 0.83154297 0.38427734
vt 0.80322266 0.38476562
vt 0.77001953 0.13671875
vt 0.7451172 0.13659668
vt 0.7529297 0.16308594
vt 0.6503906 0.12237549
vt 0.60791016 0.11395264
vt 0.63427734 0.13708496
vt 0.58740234 0.11016846
vt 0.55810547 0.10443115
vt 0.5776367 0.12359619
vt 0.7939453 0.078063965
vt 0.7426758 0.08001709
vt 0.77001953 0.09399414
vt 0.79296875 0.111816406
vt 0.8173828 0.10620117
vt 0.5073242 0.06707764
vt 0.5419922 0.09112549
vt 0.51953125 0.07098389
vt 0.75927734 0.053649902
vt 0.7128906 0.06921387
vt 0.7128906 0.047943115
vt 0.6870117 0.06329346
vt 0.60839844 0.058441162
vt 0.6074219 0.040161133
vt 0.57421875 0.06188965
vt 0.60791016 0.10882568
vt 0.8017578 0.12194824
vt 0.80322266 0.12854004
vt 0.7998047 0.13269043
vt 0.79052734 0.13500977
vt 0.81933594 0.14123535
vt 0.71240234 0.119384766
vt 0.71240234 0.13317871
vt 0.7128906 0.083862305
vt 0.71240234 0.10131836
vt 0.77001953 0.10882568
vt 0.60791016 0.09289551
vt 0.6513672 0.09564209
vt 0.60791016 0.072387695
vt 0.57714844 0.07122803
vt 0.796875 0.16223145
vt 0.71240234 0.15612793
vt 0.58251953 0.091430664
vt 0.6513672 0.07446289
vt 0.62841797 0.05847168
vt 0.58691406 0.10668945
vt 0.6508789 0.113342285
vt 0.77001953 0.12524414
vt 0.5517578 0.09118652
vt 0.54296875 0.07104492
vt 0.65185547 0.059265137
vt 0.5473633 0.115112305
vt 0.53515625 0.049560547
vt 0.5415039 0.06719971
vt 0.5283203 0.09454346
vt 0.18981934 0.40625
vt 0.17126465 0.39672852
vt 0.16101074 0.42041016
vt 0.17858887 0.41357422
vt 0.1661377 0.4741211
vt 0.17126465 0.46533203
vt 0.1616211 0.45629883
vt 0.15319824 0.47607422
vt 0.17028809 0.49560547
vt 0.16638184 0.48535156
vt 0.16040039 0.5058594
vt 0.17871094 0.5253906
vt 0.17419434 0.51220703
vt 0.17578125 0.5361328
vt 0.18469238 0.53466797
vt 0.29174805 0.47192383
vt 0.28564453 0.48657227
vt 0.29516602 0.4958496
vt 0.2783203 0.44702148
vt 0.2512207 0.44262695
vt 0.26513672 0.45166016
vt 0.2529297 0.42871094
vt 0.22888184 0.4260254
vt 0.23901367 0.4375
vt 0.16821289 0.5209961
vt 0.17346191 0.49951172
vt 0.17932129 0.45898438
vt 0.18676758 0.45776367
vt 0.19091797 0.45703125
vt 0.18554688 0.45043945
vt 0.18945312 0.45947266
vt 0.16345215 0.44384766
vt 0.17626953 0.43310547
vt 0.17565918 0.42211914
vt 0.20605469 0.40795898
vt 0.21435547 0.39453125
vt 0.23474121 0.41015625
vt 0.21655273 0.41455078
vt 0.22314453 0.4206543
vt 0.2442627 0.43920898
vt 0.27441406 0.46166992
vt 0.2800293 0.47216797
vt 0.28881836 0.49926758
vt 0.18005371 0.44213867
vt 0.29833984 0.6567383
vt 0.3173828 0.64160156
vt 0.27124023 0.64404297
vt 0.28222656 0.65722656
vt 0.31347656 0.6567383
vt 0.3322754 0.65966797
vt 0.50097656 0.7939453
vt 0.48168945 0.7915039
vt 0.4794922 0.796875
vt 0.49291992 0.81152344
vt 0.47265625 0.8027344
vt 0.4724121 0.80078125
vt 0.44848633 0.81103516
vt 0.47387695 0.82373047
vt 0.47387695 0.8022461
vt 0.2861328 0.6816406
vt 0.28320312 0.6689453
vt 0.27392578 0.67871094
vt 0.29223633 0.67041016
vt 0.3076172 0.6875
vt 0.31201172 0.6738281
vt 0.32543945 0.6928711
vt 0.3330078 0.6821289
vt 0.35839844 0.6503906
vt 0.34960938 0.6645508
vt 0.34179688 0.7006836
vt 0.35131836 0.6904297
vt 0.38671875 0.65966797
vt 0.375 0.67529297
vt 0.3671875 0.71533203
vt 0.37768555 0.7050781
vt 0.41796875 0.67529297
vt 0.4033203 0.69189453
vt 0.39233398 0.7314453
vt 0.40307617 0.72216797
vt 0.44506836 0.6953125
vt 0.42993164 0.7109375
vt 0.41577148 0.7495117
vt 0.42700195 0.73876953
vt 0.46606445 0.71533203
vt 0.44921875 0.7294922
vt 0.43676758 0.76708984
vt 0.44726562 0.75634766
vt 0.48120117 0.7319336
vt 0.46289062 0.74560547
vt 0.46020508 0.7680664
vt 0.45166016 0.78564453
vt 0.4909668 0.75
vt 0.47485352 0.76220703
vt 0.49829102 0.77197266
vt 0.4807129 0.77685547
vt 0.48217773 0.7866211
vt 0.46777344 0.77783203
vt 0.4729004 0.78759766
vt 0.45214844 0.8232422
vt 0.47436523 0.79541016
vt 0.8261719 0.3569336
vt 0.87597656 0.25805664
vt 0.8286133 0.32983398
vt 0.92626953 0.21447754
vt 0.8774414 0.21386719
vt 0.92626953 0.17297363
vt 0.92626953 0.19055176
vt 0.8779297 0.18786621
vt 0.8300781 0.30688477
vt 0.19836426 0.42529297
vt 0.17932129 0.47460938
vt 0.20349121 0.43603516
vt 0.20666504 0.44262695
vt 0.22290039 0.43823242
vt 0.19445801 0.46313477
vt 0.17443848 0.4873047
vt 0.21777344 0.44848633
vt 0.20263672 0.53125
vt 0.19616699 0.51953125
vt 0.25878906 0.51416016
vt 0.2524414 0.5
vt 0.24450684 0.52001953
vt 0.1895752 0.50439453
vt 0.2442627 0.4819336
vt 0.21191406 0.49560547
vt 0.22009277 0.51220703
vt 0.18469238 0.49047852
vt 0.23461914 0.4650879
vt 0.20385742 0.48046875
vt 0.27661133 0.49047852
vt 0.27954102 0.50390625
vt 0.2692871 0.4724121
vt 0.2578125 0.45532227
vt 0.23925781 0.4440918
vt 0.22753906 0.52490234
vt 0.59228516 0.23144531
vt 0.59472656 0.19372559
vt 0.58496094 0.23144531
vt 0.53222656 0.22241211
vt 0.5263672 0.17443848
vt 0.51464844 0.22229004
vt 0.53808594 0.17712402
vt 0.29956055 0.27294922
vt 0.28588867 0.1817627
vt 0.27246094 0.1862793
vt 0.25927734 0.28149414
vt 0.19226074 0.24694824
vt 0.1875 0.25195312
vt 0.5566406 0.22424316
vt 0.5756836 0.18701172
vt 0.5698242 0.22814941
vt 0.5883789 0.19128418
vt 0.6274414 0.22009277
vt 0.6274414 0.21777344
vt 0.625 0.2220459
vt 0.625 0.2142334
vt 0.6152344 0.22399902
vt 0.6113281 0.20349121
vt 0.5996094 0.22424316
vt 0.6040039 0.1986084
vt 0.5966797 0.2298584
vt 0.5986328 0.22790527
vt 0.45141602 0.23376465
vt 0.44604492 0.1706543
vt 0.4086914 0.24377441
vt 0.38720703 0.17114258
vt 0.35986328 0.25732422
vt 0.33154297 0.17333984
vt 0.33154297 0.26513672
vt 0.30078125 0.17797852
vt 0.2536621 0.19519043
vt 0.23608398 0.20678711
vt 0.21704102 0.22302246
vt 0.49609375 0.22302246
vt 0.48120117 0.1706543
vt 0.38134766 0.2512207
vt 0.35131836 0.17248535
vt 0.19665527 0.24194336
vt 0.51416016 0.17248535
vt 0.25683594 0.2841797
vt 0.18518066 0.25463867
vt 0.78222656 0.7919922
vt 0.7763672 0.7919922
vt 0.77978516 0.79345703
vt 0.80859375 0.7573242
vt 0.76464844 0.74121094
vt 0.7705078 0.7553711
vt 0.8388672 0.6777344
vt 0.84277344 0.64404297
vt 0.75683594 0.7270508
vt 0.7475586 0.7138672
vt 0.84472656 0.6123047
vt 0.73095703 0.69921875
vt 0.78808594 0.43969727
vt 0.77734375 0.4255371
vt 0.58496094 0.62890625
vt 0.515625 0.55371094
vt 0.6904297 0.35327148
vt 0.50878906 0.5366211
vt 0.71875 0.3696289
vt 0.70410156 0.36010742
vt 0.52978516 0.57910156
vt 0.7763672 0.7890625
vt 0.78759766 0.7871094
vt 0.7944336 0.77783203
vt 0.7758789 0.7817383
vt 0.7753906 0.7729492
vt 0.80029297 0.76904297
vt 0.77490234 0.76464844
vt 0.8144531 0.74609375
vt 0.8232422 0.73535156
vt 0.828125 0.71972656
vt 0.56933594 0.6176758
vt 0.7597656 0.4050293
vt 0.5551758 0.60595703
vt 0.7426758 0.38916016
vt 0.50341797 0.51660156
vt 0.66748047 0.34448242
vt 0.5419922 0.5942383
vt 0.72998047 0.37768555
vt 0.5 0.49414062
vt 0.64990234 0.34106445
vt 0.8173828 0.7470703
vt 0.5317383 0.40795898
vt 0.5629883 0.3623047
vt 0.54833984 0.3720703
vt 0.53515625 0.38452148
vt 0.5205078 0.40185547
vt 0.5102539 0.41918945
vt 0.50341797 0.4362793
vt 0.50097656 0.45288086
vt 0.5805664 0.35302734
vt 0.56640625 0.40698242
vt 0.49951172 0.47216797
vt 0.6323242 0.34057617
vt 0.6074219 0.34423828
vt 0.7998047 0.45874023
vt 0.6166992 0.6459961
vt 0.8203125 0.49804688
vt 0.6508789 0.6586914
vt 0.6826172 0.671875
vt 0.8310547 0.5283203
vt 0.8364258 0.5488281
vt 0.7114258 0.68603516
vt 0.8413086 0.57128906
vt 0.84277344 0.59033203
vt 0.8339844 0.69873047
vt 0.2529297 0.88671875
vt 0.25146484 0.8725586
vt 0.24377441 0.8857422
vt 0.28515625 0.87158203
vt 0.27539062 0.8696289
vt 0.27856445 0.87597656
vt 0.18225098 0.7207031
vt 0.17199707 0.71777344
vt 0.1661377 0.73095703
vt 0.17565918 0.74121094
vt 0.17419434 0.74902344
vt 0.1619873 0.7416992
vt 0.1595459 0.75341797
vt 0.17346191 0.7583008
vt 0.1574707 0.76904297
vt 0.17333984 0.7680664
vt 0.1743164 0.7783203
vt 0.15795898 0.78466797
vt 0.17858887 0.7944336
vt 0.16125488 0.80126953
vt 0.19482422 0.82910156
vt 0.18664551 0.81347656
vt 0.16870117 0.8232422
vt 0.1772461 0.83984375
vt 0.18640137 0.8535156
vt 0.2055664 0.8442383
vt 0.19750977 0.8652344
vt 0.22106934 0.859375
vt 0.23657227 0.86865234
vt 0.21936035 0.8798828
vt 0.23376465 0.8847656
vt 0.26342773 0.8725586
vt 0.26953125 0.8823242
vt 0.2927246 0.8618164
vt 0.16516113 0.81396484
vt 0.18286133 0.8051758
vt 0.20690918 0.8725586
vt 0.64501953 0.23278809
vt 0.6430664 0.20117188
vt 0.6020508 0.17236328
vt 0.61035156 0.24707031
vt 0.59472656 0.2524414
vt 0.55908203 0.24902344
vt 0.36621094 0.28222656
vt 0.3371582 0.28930664
vt 0.22387695 0.18493652
vt 0.2890625 0.15234375
vt 0.1920166 0.21704102
vt 0.17590332 0.24914551
vt 0.33618164 0.1459961
vt 0.5341797 0.15246582
vt 0.64941406 0.21435547
vt 0.6225586 0.2421875
vt 0.27416992 0.30615234
vt 0.30664062 0.296875
vt 0.53222656 0.24707031
vt 0.5180664 0.24853516
vt 0.38671875 0.27661133
vt 0.45385742 0.26049805
vt 0.41015625 0.2705078
vt 0.24865723 0.16723633
vt 0.38964844 0.14453125
vt 0.4482422 0.14453125
vt 0.48632812 0.14550781
vt 0.49609375 0.25073242
vt 0.76953125 0.8183594
vt 0.79003906 0.8173828
vt 0.75390625 0.78125
vt 0.8354492 0.7636719
vt 0.8588867 0.6953125
vt 0.87060547 0.6069336
vt 0.68408203 0.70410156
vt 0.6274414 0.6748047
vt 0.46728516 0.42236328
vt 0.86035156 0.5102539
vt 0.8066406 0.40722656
vt 0.4675293 0.51953125
vt 0.5126953 0.3486328
vt 0.66503906 0.3059082
vt 0.5917969 0.31103516
vt 0.55566406 0.64160156
vt 0.7421875 0.34228516
vt 0.7348633 0.7402344
vt 0.75878906 0.79345703
vt 0.8183594 0.7866211
vt 0.8261719 0.7861328
vt 0.49804688 0.5957031
vt 0.8364258 0.4567871
vt 0.7788086 0.8227539
vt 0.62939453 0.30493164
vt 0.5253906 0.6220703
vt 0.4790039 0.56103516
vt 0.46240234 0.47021484
vt 0.4873047 0.37939453
vt 0.55126953 0.3239746
vt 0.7036133 0.3166504
vt 0.7758789 0.37231445
vt 0.13745117 0.76171875
vt 0.13684082 0.7963867
vt 0.19396973 0.77685547
vt 0.15637207 0.85595703
vt 0.20568848 0.9008789
vt 0.22961426 0.8408203
vt 0.23876953 0.90966797
vt 0.29516602 0.8959961
vt 0.16674805 0.7011719
vt 0.14770508 0.7314453
vt 0.1940918 0.7133789
vt 0.19226074 0.7402344
vt 0.19152832 0.7558594
vt 0.17419434 0.8808594
vt 0.20898438 0.8144531
vt 0.24707031 0.84814453
vt 0.26538086 0.8515625
vt 0.2722168 0.9067383
vt 0.29296875 0.84521484
vt 0.3100586 0.8569336
vt 0.3083496 0.84472656
vt 0.30859375 0.87402344
vt 0.14318848 0.828125
vt 0.19848633 0.796875
vn -0 0 -1
vn -0 0 -1
vn -0 0 -1
vn -0 0 -1
vn -0 0 -1
vn -0 0 -1
vn -0 0 -1
vn -0 0 -1
vn -0 0 -1
vn -0 0 -1
vn -0 0 -1
vn -0 0 -1
vn -0 0 -1
vn -0 0 -1
vn -0 0 -1
vn -0 0 -1
vn -0 0 -1
vn -0 0 -1
vn -0 0 -1
vn -0 0 -1
vn -0 0 -1
vn -0 0 -1
vn -0 0 -1
vn -0 0 -1
vn -0 0 -1
vn -0 0 -1
vn -0 0 -1
vn -0 0 -1
vn -0 0 -1
vn -0 0 -1
vn -0 0 -1
vn -0 0 -1
vn -0 0 -1
vn -0 0 -1
vn -0 0 -1
vn -0 0 -1
vn -0 0 -1
vn -0 0 -1
vn -0 0 -1
vn -0 0 -1
vn -0 0 -1
vn -0 0 -1
vn -0 0 -1
vn -0 0 -1
vn -0 0 -1
vn -0 0 -1
vn -0 0 -1
vn -0 0 -1
vn -0 0 -1
vn -0 0 -1
vn -0 0 -1
vn -0 0 -1
vn -0 0 -1
vn -0 0 -1
vn -0 0 -1
vn -0 0 -1
vn -0 0 -1
vn -0 0 -1
vn -0 0 -1
vn -0 0 -1
vn -0 0 -1
vn -0 0 -1
vn -0 0 -1
vn -0 0 -1
vn -0 0 -1
vn -0 0 -1
vn -0 0 -1
vn -0 0 -1
vn -0 0 -1
vn -0 0 -1
vn -0 0 -1
vn -0 0 -1
vn -0 0 -1
vn -0 0 -1
vn -0 0 -1
vn -0 0 -1
vn -0 0 -1
vn -0 0 -1
vn -0 0 -1
vn -0 0 -1
vn -0 0 -1
vn -0 0 -1
vn -0 0 -1
vn -0 0 -1
vn -0 0 -1
vn -0 0 -1
vn -0 0 -1
vn -0 0 -1
vn -0 0 -1
vn -0 0 -1
vn -0 0 -1
vn -0 0 -1
vn -0 0 -1
vn -0 0 -1
vn -0 0 -1
vn -0 0 -1
vn -0 0 -1
vn -0 0 -1
vn -0 0 -1
vn -0 0 -1
vn -0 0 -1
vn -0 0 -1
vn -0 0 -1
vn -0 0 -1
vn -0 0 -1
vn -0 0 -1
vn -0 0 -1
vn -0 0 -1
vn -0 0 -1
vn -0 0 -1
vn -0 0 -1
vn -0 0 -1
vn -0 0 -1
vn -0 0 -1
vn -0 0 -1
vn -0 0 -1
vn -0 0 -1
vn -0 0 -1
vn -0 0 -1
vn -0 0 -1
vn -0 0 -1
vn -0 0 -1
vn -0 0 -1
vn -0 0 -1
vn -0 0 -1
vn -0 0 -1
vn -0 0 -1
vn -0 0 -1
vn -0 0 -1
vn -0 0 -1
vn -0 0 -1
vn -0 0 -1
vn -0 0 -1
vn -0 0 -1
vn -0 0 -1
vn -0 0 -1
vn -0 0 -1
vn -0 0 -1
vn -0 0 -1
vn -0 0 -1
vn -0 0 -1
vn -0 0 -1
vn -0 0 -1
vn -0 0 -1
vn -0 0 -1
vn -0 0 -1
vn -0 0 -1
vn -0 0 -1
vn -0 0 -1
vn -0 0 -1
vn -0 0 -1
vn -0 0 -1
vn -0 0 -1
vn -0 0 -1
vn -0 0 -1
vn -0 0 -1
vn -0 0 -1
vn -0 0 -1
vn -0 0 -1
vn -0 0 -1
vn -0 0 -1
vn -0 0 -1
vn -0 0 -1
vn -0 0 -1
vn -0 0 -1
vn -0 0 -1
vn -0 0 -1
vn -0 0 -1
vn -0 0 -1
vn -0 0 -1
vn -0 0 -1
vn -0 0 -1
vn -0 0 -1
vn -0 0 -1
vn -0 0 -1
vn -0 0 -1
vn -0 0 -1
vn -0 0 -1
vn -0 0 -1
vn -0 0 -1
vn -0 0 -1
vn -0 0 -1
vn -0 0 -1
vn -0 0 -1
vn -0 0 -1
vn -0 0 -1
vn -0 0 -1
vn -0 0 -1
vn -0 0 -1
vn -0 0 -1
vn -0 0 -1
vn -0 0 -1
vn -0 0 -1
vn -0 0 -1
vn -0 0 -1
vn -0 0 -1
vn -0 0 -1
vn -0 0 -1
vn -0 0 -1
vn -0 0 -1
vn -0 0 -1
vn -0 0 -1
vn -0 0 -1
vn -0 0 -1
vn -0 0 -1
vn -0 0 -1
vn -0 0 -1
vn -0 0 -1
vn -0 0 -1
vn -0 0 -1
vn -0 0 -1
vn -0 0 -1
vn -0 0 -1
vn -0 0 -1
vn -0 0 -1
vn -0 0 -1
vn -0 0 -1
vn -0 0 -1
vn -0 0 -1
vn -0 0 -1
vn -0 0 -1
vn -0 0 -1
vn -0 0 -1
vn -0 0 -1
vn -0 0 -1
vn -0 0 -1
vn -0 0 -1
vn -0 0 -1
vn -0 0 -1
vn -0 0 -1
vn -0 0 -1
vn -0 0 -1
vn -0 0 -1
vn -0 0 -1
vn -0 0 -1
vn -0 0 -1
vn -0 0 -1
vn -0 0 -1
vn -0 0 -1
vn -0 0 -1
vn -0 0 -1
vn -0 0 -1
vn -0 0 -1
vn -0 0 -1
vn -0 0 -1
vn -0 0 -1
vn -0 0 -1
vn -0 0 -1
vn -0 0 -1
vn -0 0 -1
vn -0 0 -1
vn -0 0 -1
vn -0 0 -1
vn -0 0 -1
vn -0 0 -1
vn -0 0 -1
vn -0 0 -1
vn -0 0 -1
vn -0 0 -1
vn -0 0 -1
vn -0 0 -1
vn -0 0 -1
vn -0 0 -1
vn -0 0 -1
vn -0 0 -1
vn -0 0 -1
vn -0 0 -1
vn -0 0 -1
vn -0 0 -1
vn -0 0 -1
vn -0 0 -1
vn -0 0 -1
vn -0 0 -1
vn -0 0 -1
vn -0 0 -1
vn -0 0 -1
vn -0 0 -1
vn -0 0 -1
vn -0 0 -1
vn -0 0 -1
vn -0 0 -1
vn -0 0 -1
vn -0 0 -1
vn -0 0 -1
vn -0 0 -1
vn -0 0 -1
vn -0 0 -1
vn -0 0 -1
vn -0 0 -1
vn -0 0 -1
vn -0 0 -1
vn -0 0 -1
vn -0 0 -1
vn -0 0 -1
vn -0 0 -1
vn -0 0 -1
vn -0 0 -1
vn -0 0 -1
vn -0 0 -1
vn -0 0 -1
vn -0 0 -1
vn -0 0 -1
vn -0 0 -1
vn -0 0 -1
vn -0 0 -1
vn -0 0 -1
vn -0 0 -1
vn -0 0 -1
vn -0 0 -1
vn -0 0 -1
vn -0 0 -1
vn -0 0 -1
vn -0 0 -1
vn -0 0 -1
vn -0 0 -1
vn -0 0 -1
vn -0 0 -1
vn -0 0 -1
vn -0 0 -1
vn -0 0 -1
vn -0 0 -1
vn -0 0 -1
vn -0 0 -1
vn -0 0 -1
vn -0 0 -1
vn -0 0 -1
vn -0 0 -1
vn -0 0 -1
vn -0 0 -1
vn -0 0 -1
vn -0 0 -1
vn -0 0 -1
vn -0 0 -1
vn -0 0 -1
vn -0 0 -1
vn -0 0 -1
vn -0 0 -1
vn -0 0 -1
vn -0 0 -1
vn -0 0 -1
vn -0 0 -1
vn -0 0 -1
vn -0 0 -1
vn -0 0 -1
vn -0 0 -1
vn -0 0 -1
vn -0 0 -1
vn -0 0 -1
vn -0 0 -1
vn -0 0 -1
vn -0 0 -1
vn -0 0 -1
vn -0 0 -1
vn -0 0 -1
vn -0 0 -1
vn -0 0 -1
vn -0 0 -1
vn -0 0 -1
vn -0 0 -1
vn -0 0 -1
vn -0 0 -1
vn -0 0 -1
vn -0 0 -1
vn -0 0 -1
vn -0 0 -1
vn -0 0 -1
vn -0 0 -1
vn -0 0 -1
vn -0 0 -1
vn -0 0 -1
vn -0 0 -1
vn -0 0 -1
vn -0 0 -1
vn -0 0 -1
vn -0 0 -1
vn -0 0 -1
vn -0 0 -1
vn -0 0 -1
vn -0 0 -1
vn -0 0 -1
vn -0 0 -1
vn -0 0 -1
vn -0 0 -1
vn -0 0 -1
vn -0 0 -1
vn -0 0 -1
vn -0 0 -1
vn -0 0 -1
vn -0 0 -1
vn -0 0 -1
vn -0 0 -1
vn -0 0 -1
vn -0 0 -1
vn -0 0 -1
vn -0 0 -1
vn -0 0 -1
vn -0 0 -1
vn -0 0 -1
vn -0 0 -1
vn -0 0 -1
vn -0 0 -1
vn -0 0 -1
vn -0 0 -1
vn -0 0 -1
vn -0 0 -1
vn -0 0 -1
vn -0 0 -1
vn -0 0 -1
vn -0 0 -1
vn -0 0 -1
vn -0 0 -1
vn -0 0 -1
vn -0 0 -1
vn -0 0 -1
vn -0 0 -1
vn -0 0 -1
vn -0 0 -1
vn -0 0 -1
vn -0 0 -1
vn -0 0 -1
vn -0 0 -1
vn -0 0 -1
vn -0 0 -1
vn -0 0 -1
vn -0 0 -1
vn -0 0 -1
vn -0 0 -1
vn -0 0 -1
vn -0 0 -1
vn -0 0 -1
vn -0 0 -1
vn -0 0 -1
vn -0 0 -1
vn -0 0 -1
vn -0 0 -1
vn -0 0 -1
vn -0 0 -1
vn -0 0 -1
vn -0 0 -1
vn -0 0 -1
vn -0 0 -1
vn -0 0 -1
vn -0 0 -1
vn -0 0 -1
vn -0 0 -1
vn -0 0 -1
vn -0 0 -1
vn -0 0 -1
vn -0 0 -1
vn -0 0 -1
vn -0 0 -1
vn -0 0 -1
vn -0 0 -1
vn -0 0 -1
vn -0 0 -1
vn -0 0 -1
vn -0 0 -1
vn -0 0 -1
vn -0 0 -1
vn -0 0 -1
vn -0 0 -1
vn -0 0 -1
vn -0 0 -1
vn -0 0 -1
vn -0 0 -1
vn -0 0 -1
vn -0 0 -1
vn -0 0 -1
vn -0 0 -1
vn -0 0 -1
vn -0 0 -1
vn -0 0 -1
vn -0 0 -1
vn -0 0 -1
vn -0 0 -1
vn -0 0 -1
vn -0 0 -1
vn -0 0 -1
vn -0 0 -1
vn -0 0 -1
vn -0 0 -1
vn -0 0 -1
vn -0 0 -1
vn -0 0 -1
vn -0 0 -1
vn -0 0 -1
vn -0 0 -1
vn -0 0 -1
vn -0 0 -1
vn -0 0 -1
vn -0 0 -1
vn -0 0 -1
vn -0 0 -1
vn -0 0 -1
vn -0 0 -1
vn -0 0 -1
vn -0 0 -1
vn -0 0 -1
vn -0 0 -1
vn -0 0 -1
vn -0 0 -1
vn -0 0 -1
vn -0 0 -1
vn -0 0 -1
vn -0 0 -1
vn -0 0 -1
vn -0 0 -1
vn -0 0 -1
vn -0 0 -1
vn -0 0 -1
vn -0 0 -1
vn -0 0 -1
vn -0 0 -1
vn -0 0 -1
g cPK_10_002170_00_CELEBIex_RR_L_SB_0
f 3/3/3 2/2/2 1/1/1
f 6/6/6 5/5/5 4/4/4
f 7/7/7 6/6/6 4/4/4
f 10/10/10 9/9/9 8/8/8
f 11/11/11 5/5/5 6/6/6
f 14/14/14 13/13/13 12/12/12
f 15/15/15 14/14/14 12/12/12
f 18/18/18 17/17/17 16/16/16
f 21/21/21 20/20/20 19/19/19
f 23/23/23 22/22/22 13/13/13
f 24/24/24 23/23/23 13/13/13
f 27/27/27 26/26/26 25/25/25
f 1/1/1 2/2/2 28/28/28
f 28/28/28 30/30/30 29/29/29
f 31/31/31 28/28/28 29/29/29
f 9/9/9 10/10/10 32/32/32
f 14/14/14 15/15/15 33/33/33
f 23/23/23 24/24/24 33/33/33
f 34/34/34 16/16/16 27/27/27
f 30/30/30 18/18/18 16/16/16
f 29/29/29 30/30/30 16/16/16
f 20/20/20 21/21/21 30/30/30
f 5/5/5 11/11/11 28/28/28
f 4/4/4 28/28/28 2/2/2
f 16/16/16 17/17/17 26/26/26
f 27/27/27 16/16/16 26/26/26
f 26/26/26 35/35/35 25/25/25
f 36/36/36 25/25/25 35/35/35
f 36/36/36 35/35/35 22/22/22
f 14/14/14 24/24/24 13/13/13
f 9/9/9 12/12/12 8/8/8
f 9/9/9 15/15/15 12/12/12
f 3/3/3 1/1/1 37/37/37
f 39/39/39 38/38/38 37/37/37
f 1/1/1 39/39/39 37/37/37
f 38/38/38 40/40/40 37/37/37
f 40/40/40 41/41/41 37/37/37
f 10/10/10 8/8/8 41/41/41
f 7/7/7 4/4/4 2/2/2
f 7/7/7 2/2/2 3/3/3
f 40/40/40 10/10/10 41/41/41
f 42/42/42 19/19/19 20/20/20
f 11/11/11 6/6/6 19/19/19
f 42/42/42 11/11/11 19/19/19
f 21/21/21 43/43/43 18/18/18
f 21/21/21 19/19/19 43/43/43
f 43/43/43 17/17/17 18/18/18
f 34/34/34 27/27/27 44/44/44
f 34/34/34 44/44/44 32/32/32
f 29/29/29 34/34/34 32/32/32
f 29/29/29 32/32/32 10/10/10
f 31/31/31 29/29/29 10/10/10
f 40/40/40 38/38/38 31/31/31
f 38/38/38 39/39/39 31/31/31
f 40/40/40 31/31/31 10/10/10
f 39/39/39 1/1/1 31/31/31
f 1/1/1 28/28/28 31/31/31
f 4/4/4 5/5/5 28/28/28
f 42/42/42 30/30/30 28/28/28
f 11/11/11 42/42/42 28/28/28
f 42/42/42 20/20/20 30/30/30
f 21/21/21 18/18/18 30/30/30
f 29/29/29 16/16/16 34/34/34
f 27/27/27 25/25/25 44/44/44
f 32/32/32 44/44/44 33/33/33
f 15/15/15 32/32/32 33/33/33
f 33/33/33 44/44/44 25/25/25
f 23/23/23 36/36/36 22/22/22
f 23/23/23 33/33/33 25/25/25
f 36/36/36 23/23/23 25/25/25
f 9/9/9 32/32/32 15/15/15
f 14/14/14 33/33/33 24/24/24
f 47/47/47 46/46/46 45/45/45
f 48/48/48 45/45/45 46/46/46
f 51/51/51 50/50/50 49/49/49
f 54/54/54 53/53/53 52/52/52
f 57/57/57 56/56/56 55/55/55
f 55/55/55 56/56/56 58/58/58
f 59/59/59 55/55/55 58/58/58
f 62/62/62 61/61/61 60/60/60
f 63/63/63 62/62/62 60/60/60
f 66/66/66 65/65/65 64/64/64
f 67/67/67 66/66/66 64/64/64
f 68/68/68 67/67/67 64/64/64
f 70/70/70 64/64/64 69/69/69
f 72/72/72 71/71/71 69/69/69
f 73/73/73 72/72/72 69/69/69
f 76/76/76 75/75/75 74/74/74
f 77/77/77 76/76/76 74/74/74
f 79/79/79 78/78/78 77/77/77
f 80/80/80 79/79/79 77/77/77
f 82/82/82 81/81/81 74/74/74
f 71/71/71 83/83/83 69/69/69
f 85/85/85 84/84/84 77/77/77
f 59/59/59 58/58/58 61/61/61
f 62/62/62 59/59/59 61/61/61
f 63/63/63 60/60/60 65/65/65
f 66/66/66 63/63/63 65/65/65
f 54/54/54 52/52/52 86/86/86
f 52/52/52 87/87/87 86/86/86
f 57/57/57 86/86/86 87/87/87
f 48/48/48 49/49/49 50/50/50
f 48/48/48 46/46/46 49/49/49
f 88/88/88 69/69/69 74/74/74
f 81/81/81 89/89/89 74/74/74
f 90/90/90 73/73/73 69/69/69
f 88/88/88 90/90/90 69/69/69
f 91/91/91 82/82/82 74/74/74
f 84/84/84 76/76/76 77/77/77
f 92/92/92 79/79/79 80/80/80
f 47/47/47 92/92/92 80/80/80
f 47/47/47 80/80/80 46/46/46
f 83/83/83 70/70/70 69/69/69
f 70/70/70 68/68/68 64/64/64
f 57/57/57 87/87/87 56/56/56
f 54/54/54 51/51/51 53/53/53
f 51/51/51 49/49/49 53/53/53
f 78/78/78 85/85/85 77/77/77
f 75/75/75 91/91/91 74/74/74
f 89/89/89 88/88/88 74/74/74
f 95/95/95 94/94/94 93/93/93
f 98/98/98 97/97/97 96/96/96
f 101/101/101 100/100/100 99/99/99
f 104/104/104 103/103/103 102/102/102
f 102/102/102 105/105/105 104/104/104
f 102/102/102 106/106/106 105/105/105
f 109/109/109 108/108/108 107/107/107
f 103/103/103 110/110/110 102/102/102
f 113/113/113 112/112/112 111/111/111
f 116/116/116 115/115/115 114/114/114
f 99/99/99 117/117/117 97/97/97
f 96/96/96 97/97/97 117/117/117
f 119/119/119 118/118/118 106/106/106
f 122/122/122 121/121/121 120/120/120
f 120/120/120 119/119/119 122/122/122
f 119/119/119 106/106/106 122/122/122
f 94/94/94 124/124/124 123/123/123
f 127/127/127 126/126/126 125/125/125
f 130/130/130 129/129/129 128/128/128
f 131/131/131 130/130/130 128/128/128
f 118/118/118 105/105/105 106/106/106
f 121/121/121 122/122/122 132/132/132
f 93/93/93 121/121/121 132/132/132
f 95/95/95 93/93/93 132/132/132
f 133/133/133 124/124/124 94/94/94
f 95/95/95 133/133/133 94/94/94
f 134/134/134 131/131/131 128/128/128
f 131/131/131 116/116/116 130/130/130
f 136/136/136 135/135/135 130/130/130
f 103/103/103 104/104/104 125/125/125
f 137/137/137 134/134/134 117/117/117
f 138/138/138 117/117/117 128/128/128
f 139/139/139 123/123/123 126/126/126
f 99/99/99 137/137/137 117/117/117
f 99/99/99 100/100/100 137/137/137
f 100/100/100 108/108/108 140/140/140
f 140/140/140 108/108/108 109/109/109
f 131/131/131 141/141/141 116/116/116
f 134/134/134 140/140/140 141/141/141
f 140/140/140 137/137/137 100/100/100
f 142/142/142 113/113/113 135/135/135
f 135/135/135 113/113/113 125/125/125
f 129/129/129 135/135/135 126/126/126
f 138/138/138 129/129/129 123/123/123
f 96/96/96 138/138/138 124/124/124
f 98/98/98 96/96/96 124/124/124
f 98/98/98 124/124/124 133/133/133
f 136/136/136 130/130/130 114/114/114
f 136/136/136 142/142/142 135/135/135
f 116/116/116 114/114/114 130/130/130
f 134/134/134 128/128/128 117/117/117
f 140/140/140 134/134/134 137/137/137
f 130/130/130 135/135/135 129/129/129
f 113/113/113 111/111/111 125/125/125
f 104/104/104 105/105/105 127/127/127
f 119/119/119 139/139/139 127/127/127
f 139/139/139 121/121/121 93/93/93
f 103/103/103 125/125/125 111/111/111
f 139/139/139 93/93/93 94/94/94
f 139/139/139 94/94/94 123/123/123
f 101/101/101 99/99/99 98/98/98
f 101/101/101 143/143/143 100/100/100
f 99/99/99 97/97/97 98/98/98
f 109/109/109 107/107/107 144/144/144
f 116/116/116 141/141/141 145/145/145
f 116/116/116 144/144/144 115/115/115
f 136/136/136 114/114/114 115/115/115
f 142/142/142 136/136/136 115/115/115
f 142/142/142 115/115/115 112/112/112
f 113/113/113 142/142/142 112/112/112
f 111/111/111 112/112/112 110/110/110
f 103/103/103 111/111/111 110/110/110
f 108/108/108 100/100/100 143/143/143
f 140/140/140 109/109/109 141/141/141
f 134/134/134 141/141/141 131/131/131
f 138/138/138 128/128/128 129/129/129
f 96/96/96 117/117/117 138/138/138
f 138/138/138 123/123/123 124/124/124
f 129/129/129 126/126/126 123/123/123
f 135/135/135 125/125/125 126/126/126
f 139/139/139 126/126/126 127/127/127
f 104/104/104 127/127/127 125/125/125
f 119/119/119 127/127/127 105/105/105
f 118/118/118 119/119/119 105/105/105
f 139/139/139 119/119/119 120/120/120
f 139/139/139 120/120/120 121/121/121
f 108/108/108 143/143/143 146/146/146
f 108/108/108 146/146/146 107/107/107
f 145/145/145 141/141/141 109/109/109
f 145/145/145 109/109/109 144/144/144
f 116/116/116 145/145/145 144/144/144
f 149/149/149 148/148/148 147/147/147
f 150/150/150 149/149/149 147/147/147
f 153/153/153 152/152/152 151/151/151
f 154/154/154 153/153/153 151/151/151
f 157/157/157 156/156/156 155/155/155
f 160/160/160 159/159/159 158/158/158
f 160/160/160 158/158/158 161/161/161
f 164/164/164 163/163/163 162/162/162
f 167/167/167 166/166/166 165/165/165
f 170/170/170 169/169/169 168/168/168
f 171/171/171 159/159/159 160/160/160
f 155/155/155 172/172/172 157/157/157
f 151/151/151 156/156/156 157/157/157
f 154/154/154 151/151/151 157/157/157
f 173/173/173 152/152/152 153/153/153
f 174/174/174 173/173/173 153/153/153
f 175/175/175 174/174/174 153/153/153
f 176/176/176 175/175/175 153/153/153
f 177/177/177 174/174/174 175/175/175
f 180/180/180 179/179/179 178/178/178
f 149/149/149 180/180/180 178/178/178
f 150/150/150 180/180/180 149/149/149
f 148/148/148 182/182/182 181/181/181
f 147/147/147 148/148/148 181/181/181
f 184/184/184 182/182/182 183/183/183
f 181/181/181 182/182/182 184/184/184
f 185/185/185 184/184/184 183/183/183
f 186/186/186 170/170/170 168/168/168
f 166/166/166 186/186/186 168/168/168
f 165/165/165 166/166/166 168/168/168
f 162/162/162 187/187/187 165/165/165
f 187/187/187 167/167/167 165/165/165
f 188/188/188 187/187/187 162/162/162
f 163/163/163 188/188/188 162/162/162
f 189/189/189 163/163/163 164/164/164
f 178/178/178 176/176/176 153/153/153
f 179/179/179 190/190/190 178/178/178
f 190/190/190 176/176/176 178/178/178
f 172/172/172 159/159/159 157/157/157
f 157/157/157 159/159/159 171/171/171
f 169/169/169 185/185/185 183/183/183
f 168/168/168 169/169/169 183/183/183
f 193/193/193 192/192/192 191/191/191
f 194/194/194 193/193/193 191/191/191
f 191/191/191 192/192/192 195/195/195
f 195/195/195 192/192/192 196/196/196
f 199/199/199 198/198/198 197/197/197
f 199/199/199 197/197/197 200/200/200
f 203/203/203 202/202/202 201/201/201
f 201/201/201 205/205/205 204/204/204
f 208/208/208 207/207/207 206/206/206
f 206/206/206 207/207/207 209/209/209
f 206/206/206 209/209/209 210/210/210
f 210/210/210 209/209/209 211/211/211
f 210/210/210 211/211/211 212/212/212
f 212/212/212 211/211/211 213/213/213
f 196/196/196 192/192/192 214/214/214
f 196/196/196 214/214/214 215/215/215
f 212/212/212 213/213/213 216/216/216
f 216/216/216 213/213/213 217/217/217
f 219/219/219 214/214/214 218/218/218
f 215/215/215 214/214/214 219/219/219
f 216/216/216 217/217/217 220/220/220
f 220/220/220 217/217/217 221/221/221
f 223/223/223 218/218/218 222/222/222
f 219/219/219 218/218/218 223/223/223
f 220/220/220 221/221/221 224/224/224
f 224/224/224 221/221/221 225/225/225
f 227/227/227 222/222/222 226/226/226
f 223/223/223 222/222/222 227/227/227
f 224/224/224 225/225/225 228/228/228
f 228/228/228 225/225/225 229/229/229
f 231/231/231 226/226/226 230/230/230
f 227/227/227 226/226/226 231/231/231
f 228/228/228 229/229/229 232/232/232
f 232/232/232 229/229/229 233/233/233
f 235/235/235 230/230/230 234/234/234
f 231/231/231 230/230/230 235/235/235
f 232/232/232 233/233/233 236/236/236
f 237/237/237 232/232/232 236/236/236
f 239/239/239 235/235/235 238/238/238
f 235/235/235 234/234/234 238/238/238
f 239/239/239 238/238/238 240/240/240
f 241/241/241 239/239/239 240/240/240
f 204/204/204 205/205/205 200/200/200
f 205/205/205 199/199/199 200/200/200
f 198/198/198 242/242/242 197/197/197
f 241/241/241 240/240/240 242/242/242
f 242/242/242 240/240/240 197/197/197
f 237/237/237 236/236/236 243/243/243
f 237/237/237 243/243/243 244/244/244
f 208/208/208 194/194/194 207/207/207
f 208/208/208 193/193/193 194/194/194
f 245/245/245 201/201/201 204/204/204
f 203/203/203 201/201/201 245/245/245
f 203/203/203 237/237/237 202/202/202
f 246/246/246 237/237/237 244/244/244
f 202/202/202 237/237/237 246/246/246
g cPK_10_002170_00_CELEBIex_RR_L_SB_1
f 82/82/82 91/91/91 247/247/247
f 84/84/84 85/85/85 247/247/247
f 70/70/70 248/248/248 68/68/68
f 72/72/72 73/73/73 249/249/249
f 45/45/45 48/48/48 249/249/249
f 66/66/66 67/67/67 250/250/250
f 68/68/68 251/251/251 67/67/67
f 50/50/50 51/51/51 248/248/248
f 63/63/63 253/253/253 252/252/252
f 254/254/254 86/86/86 253/253/253
f 54/54/54 86/86/86 254/254/254
f 70/70/70 83/83/83 248/248/248
f 47/47/47 45/45/45 247/247/247
f 90/90/90 88/88/88 247/247/247
f 92/92/92 47/47/47 247/247/247
f 84/84/84 247/247/247 76/76/76
f 79/79/79 92/92/92 247/247/247
f 247/247/247 78/78/78 79/79/79
f 247/247/247 85/85/85 78/78/78
f 75/75/75 76/76/76 247/247/247
f 91/91/91 75/75/75 247/247/247
f 89/89/89 81/81/81 247/247/247
f 88/88/88 89/89/89 247/247/247
f 81/81/81 82/82/82 247/247/247
f 90/90/90 249/249/249 73/73/73
f 90/90/90 247/247/247 249/249/249
f 48/48/48 50/50/50 255/255/255
f 50/50/50 248/248/248 83/83/83
f 71/71/71 72/72/72 255/255/255
f 72/72/72 249/249/249 255/255/255
f 71/71/71 255/255/255 50/50/50
f 71/71/71 50/50/50 83/83/83
f 51/51/51 54/54/54 251/251/251
f 251/251/251 254/254/254 250/250/250
f 66/66/66 250/250/250 253/253/253
f 68/68/68 248/248/248 251/251/251
f 251/251/251 250/250/250 67/67/67
f 57/57/57 55/55/55 252/252/252
f 62/62/62 252/252/252 55/55/55
f 86/86/86 57/57/57 252/252/252
f 86/86/86 252/252/252 253/253/253
f 45/45/45 249/249/249 247/247/247
f 48/48/48 255/255/255 249/249/249
f 51/51/51 251/251/251 248/248/248
f 54/54/54 254/254/254 251/251/251
f 254/254/254 253/253/253 250/250/250
f 66/66/66 253/253/253 63/63/63
f 62/62/62 63/63/63 252/252/252
f 62/62/62 55/55/55 59/59/59
f 184/184/184 256/256/256 181/181/181
f 173/173/173 257/257/257 152/152/152
f 180/180/180 256/256/256 179/179/179
f 190/190/190 258/258/258 176/176/176
f 169/169/169 258/258/258 185/185/185
f 258/258/258 259/259/259 175/175/175
f 176/176/176 258/258/258 175/175/175
f 259/259/259 258/258/258 169/169/169
f 260/260/260 259/259/259 169/169/169
f 179/179/179 256/256/256 190/190/190
f 256/256/256 258/258/258 190/190/190
f 147/147/147 256/256/256 150/150/150
f 150/150/150 256/256/256 180/180/180
f 181/181/181 256/256/256 147/147/147
f 185/185/185 256/256/256 184/184/184
f 258/258/258 256/256/256 185/185/185
f 175/175/175 261/261/261 257/257/257
f 177/177/177 175/175/175 257/257/257
f 152/152/152 257/257/257 151/151/151
f 177/177/177 257/257/257 174/174/174
f 174/174/174 257/257/257 173/173/173
f 151/151/151 257/257/257 156/156/156
f 257/257/257 262/262/262 156/156/156
f 263/263/263 261/261/261 175/175/175
f 259/259/259 263/263/263 175/175/175
f 264/264/264 161/161/161 158/158/158
f 265/265/265 264/264/264 158/158/158
f 268/268/268 267/267/267 266/266/266
f 269/269/269 265/265/265 158/158/158
f 159/159/159 269/269/269 158/158/158
f 271/271/271 270/270/270 267/267/267
f 272/272/272 271/271/271 267/267/267
f 273/273/273 269/269/269 159/159/159
f 172/172/172 273/273/273 159/159/159
f 275/275/275 274/274/274 270/270/270
f 271/271/271 275/275/275 270/270/270
f 257/257/257 273/273/273 262/262/262
f 261/261/261 263/263/263 274/274/274
f 275/275/275 261/261/261 274/274/274
f 277/277/277 276/276/276 163/163/163
f 189/189/189 277/277/277 163/163/163
f 276/276/276 278/278/278 188/188/188
f 163/163/163 276/276/276 188/188/188
f 278/278/278 279/279/279 187/187/187
f 188/188/188 278/278/278 187/187/187
f 187/187/187 279/279/279 167/167/167
f 166/166/166 280/280/280 186/186/186
f 170/170/170 260/260/260 169/169/169
f 267/267/267 276/276/276 277/277/277
f 266/266/266 267/267/267 277/277/277
f 270/270/270 278/278/278 276/276/276
f 267/267/267 270/270/270 276/276/276
f 274/274/274 279/279/279 278/278/278
f 270/270/270 274/274/274 278/278/278
f 263/263/263 280/280/280 279/279/279
f 274/274/274 263/263/263 279/279/279
f 280/280/280 263/263/263 259/259/259
f 260/260/260 280/280/280 259/259/259
f 279/279/279 280/280/280 166/166/166
f 167/167/167 279/279/279 166/166/166
f 170/170/170 280/280/280 260/260/260
f 186/186/186 280/280/280 170/170/170
f 281/281/281 264/264/264 265/265/265
f 272/272/272 281/281/281 265/265/265
f 272/272/272 265/265/265 269/269/269
f 271/271/271 272/272/272 269/269/269
f 271/271/271 269/269/269 273/273/273
f 275/275/275 271/271/271 273/273/273
f 275/275/275 273/273/273 257/257/257
f 261/261/261 275/275/275 257/257/257
f 156/156/156 262/262/262 155/155/155
f 155/155/155 262/262/262 172/172/172
f 262/262/262 273/273/273 172/172/172
f 281/281/281 272/272/272 268/268/268
f 272/272/272 267/267/267 268/268/268
f 221/221/221 219/219/219 223/223/223
f 201/201/201 202/202/202 205/205/205
f 194/194/194 191/191/191 209/209/209
f 207/207/207 194/194/194 209/209/209
f 209/209/209 191/191/191 211/211/211
f 211/211/211 191/191/191 195/195/195
f 211/211/211 195/195/195 196/196/196
f 211/211/211 196/196/196 213/213/213
f 213/213/213 196/196/196 215/215/215
f 213/213/213 215/215/215 217/217/217
f 217/217/217 215/215/215 219/219/219
f 217/217/217 219/219/219 221/221/221
f 225/225/225 223/223/223 227/227/227
f 221/221/221 223/223/223 225/225/225
f 225/225/225 227/227/227 229/229/229
f 229/229/229 227/227/227 231/231/231
f 229/229/229 231/231/231 233/233/233
f 233/233/233 231/231/231 235/235/235
f 233/233/233 235/235/235 236/236/236
f 236/236/236 235/235/235 239/239/239
f 236/236/236 239/239/239 243/243/243
f 243/243/243 239/239/239 241/241/241
f 243/243/243 241/241/241 244/244/244
f 244/244/244 241/241/241 242/242/242
f 246/246/246 198/198/198 199/199/199
f 202/202/202 246/246/246 205/205/205
f 205/205/205 246/246/246 199/199/199
f 244/244/244 242/242/242 198/198/198
f 246/246/246 244/244/244 198/198/198
g cPK_10_002170_00_CELEBIex_RR_L_SB_2
f 284/284/284 283/283/283 282/282/282
f 287/287/287 286/286/286 285/285/285
f 285/285/285 286/286/286 288/288/288
f 291/291/291 290/290/290 289/289/289
f 294/294/294 293/293/293 292/292/292
f 285/285/285 288/288/288 295/295/295
f 295/295/295 288/288/288 296/296/296
f 295/295/295 296/296/296 297/297/297
f 297/297/297 296/296/296 298/298/298
f 301/301/301 300/300/300 299/299/299
f 301/301/301 302/302/302 300/300/300
f 303/303/303 302/302/302 301/301/301
f 303/303/303 304/304/304 302/302/302
f 305/305/305 304/304/304 303/303/303
f 305/305/305 306/306/306 304/304/304
f 282/282/282 305/305/305 307/307/307
f 307/307/307 305/305/305 308/308/308
f 305/305/305 283/283/283 306/306/306
f 282/282/282 283/283/283 305/305/305
f 311/311/311 310/310/310 309/309/309
f 312/312/312 310/310/310 311/311/311
f 315/315/315 314/314/314 313/313/313
f 316/316/316 314/314/314 315/315/315
f 289/289/289 316/316/316 315/315/315
f 290/290/290 316/316/316 289/289/289
f 292/292/292 317/317/317 289/289/289
f 317/317/317 291/291/291 289/289/289
f 319/319/319 318/318/318 292/292/292
f 318/318/318 317/317/317 292/292/292
f 297/297/297 298/298/298 284/284/284
f 284/284/284 298/298/298 283/283/283
f 309/309/309 321/321/321 320/320/320
f 309/309/309 310/310/310 321/321/321
f 323/323/323 312/312/312 322/322/322
f 322/322/322 312/312/312 311/311/311
f 313/313/313 323/323/323 322/322/322
f 314/314/314 323/323/323 313/313/313
f 293/293/293 324/324/324 292/292/292
f 324/324/324 319/319/319 292/292/292
f 320/320/320 321/321/321 325/325/325
f 320/320/320 325/325/325 287/287/287
f 287/287/287 325/325/325 286/286/286
f 326/326/326 294/294/294 292/292/292
f 327/327/327 294/294/294 326/326/326
f 330/330/330 329/329/329 328/328/328
f 333/333/333 332/332/332 331/331/331
f 336/336/336 335/335/335 334/334/334
f 339/339/339 338/338/338 337/337/337
f 342/342/342 341/341/341 340/340/340
f 345/345/345 344/344/344 343/343/343
f 348/348/348 347/347/347 346/346/346
f 329/329/329 349/349/349 328/328/328
f 352/352/352 351/351/351 350/350/350
f 352/352/352 353/353/353 351/351/351
f 351/351/351 355/355/355 354/354/354
f 353/353/353 355/355/355 351/351/351
f 332/332/332 336/336/336 356/356/356
f 331/331/331 332/332/332 356/356/356
f 336/336/336 358/358/358 357/357/357
f 337/337/337 335/335/335 336/336/336
f 337/337/337 338/338/338 335/335/335
f 361/361/361 360/360/360 359/359/359
f 361/361/361 362/362/362 360/360/360
f 363/363/363 344/344/344 345/345/345
f 363/363/363 364/364/364 344/344/344
f 365/365/365 362/362/362 361/361/361
f 365/365/365 366/366/366 362/362/362
f 343/343/343 344/344/344 347/347/347
f 343/343/343 347/347/347 348/348/348
f 348/348/348 366/366/366 365/365/365
f 348/348/348 346/346/346 366/366/366
f 367/367/367 364/364/364 363/363/363
f 367/367/367 368/368/368 364/364/364
f 359/359/359 341/341/341 342/342/342
f 359/359/359 360/360/360 341/341/341
f 349/349/349 350/350/350 328/328/328
f 349/349/349 352/352/352 350/350/350
f 355/355/355 333/333/333 331/331/331
f 355/355/355 331/331/331 354/354/354
f 356/356/356 357/357/357 369/369/369
f 356/356/356 336/336/336 357/357/357
f 372/372/372 371/371/371 370/370/370
f 373/373/373 372/372/372 370/370/370
f 374/374/374 373/373/373 370/370/370
f 375/375/375 374/374/374 370/370/370
f 375/375/375 370/370/370 376/376/376
f 376/376/376 370/370/370 377/377/377
f 371/371/371 378/378/378 370/370/370
f 370/370/370 378/378/378 379/379/379
f 377/377/377 379/379/379 380/380/380
f 370/370/370 379/379/379 377/377/377
f 379/379/379 381/381/381 368/368/368
f 379/379/379 368/368/368 367/367/367
f 380/380/380 379/379/379 367/367/367
f 382/382/382 381/381/381 379/379/379
f 378/378/378 382/382/382 379/379/379
f 384/384/384 340/340/340 383/383/383
f 342/342/342 340/340/340 384/384/384
f 386/386/386 383/383/383 385/385/385
f 384/384/384 383/383/383 386/386/386
f 386/386/386 385/385/385 387/387/387
f 387/387/387 385/385/385 388/388/388
f 387/387/387 388/388/388 389/389/389
f 387/387/387 391/391/391 390/390/390
f 387/387/387 389/389/389 391/391/391
f 339/339/339 392/392/392 338/338/338
f 390/390/390 392/392/392 339/339/339
f 390/390/390 391/391/391 392/392/392
f 336/336/336 393/393/393 358/358/358
f 336/336/336 334/334/334 393/393/393
f 396/396/396 395/395/395 394/394/394
f 399/399/399 398/398/398 397/397/397
f 402/402/402 401/401/401 400/400/400
f 402/402/402 400/400/400 403/403/403
f 406/406/406 405/405/405 404/404/404
f 406/406/406 404/404/404 407/407/407
f 408/408/408 406/406/406 407/407/407
f 408/408/408 407/407/407 409/409/409
f 408/408/408 409/409/409 410/410/410
f 411/411/411 408/408/408 410/410/410
f 411/411/411 410/410/410 412/412/412
f 413/413/413 411/411/411 412/412/412
f 416/416/416 415/415/415 414/414/414
f 417/417/417 416/416/416 414/414/414
f 417/417/417 414/414/414 418/418/418
f 418/418/418 414/414/414 419/419/419
f 418/418/418 419/419/419 420/420/420
f 420/420/420 419/419/419 421/421/421
f 423/423/423 421/421/421 422/422/422
f 423/423/423 422/422/422 424/424/424
f 396/396/396 422/422/422 395/395/395
f 424/424/424 422/422/422 396/396/396
f 394/394/394 395/395/395 425/425/425
f 394/394/394 425/425/425 426/426/426
f 425/425/425 398/398/398 426/426/426
f 426/426/426 398/398/398 399/399/399
f 398/398/398 427/427/427 397/397/397
f 405/405/405 403/403/403 404/404/404
f 405/405/405 402/402/402 403/403/403
f 428/428/428 415/415/415 416/416/416
f 428/428/428 429/429/429 415/415/415
f 413/413/413 412/412/412 429/429/429
f 428/428/428 413/413/413 429/429/429
f 430/430/430 421/421/421 423/423/423
f 420/420/420 421/421/421 430/430/430
g cPK_10_002170_00_CELEBIex_RR_L_SB_3
f 301/301/301 299/299/299 431/431/431
f 304/304/304 433/433/433 432/432/432
f 304/304/304 432/432/432 302/302/302
f 306/306/306 433/433/433 304/304/304
f 283/283/283 433/433/433 306/306/306
f 307/307/307 308/308/308 434/434/434
f 308/308/308 305/305/305 434/434/434
f 284/284/284 282/282/282 435/435/435
f 436/436/436 295/295/295 297/297/297
f 315/315/315 313/313/313 437/437/437
f 438/438/438 315/315/315 437/437/437
f 318/318/318 439/439/439 317/317/317
f 319/319/319 439/439/439 318/318/318
f 291/291/291 440/440/440 290/290/290
f 290/290/290 440/440/440 316/316/316
f 442/442/442 441/441/441 319/319/319
f 442/442/442 319/319/319 324/324/324
f 314/314/314 443/443/443 323/323/323
f 286/286/286 444/444/444 288/288/288
f 325/325/325 444/444/444 286/286/286
f 298/298/298 433/433/433 283/283/283
f 296/296/296 433/433/433 298/298/298
f 442/442/442 324/324/324 293/293/293
f 442/442/442 293/293/293 294/294/294
f 299/299/299 445/445/445 431/431/431
f 300/300/300 445/445/445 299/299/299
f 300/300/300 432/432/432 445/445/445
f 302/302/302 432/432/432 300/300/300
f 446/446/446 301/301/301 431/431/431
f 303/303/303 301/301/301 446/446/446
f 434/434/434 303/303/303 446/446/446
f 305/305/305 303/303/303 434/434/434
f 282/282/282 307/307/307 435/435/435
f 435/435/435 307/307/307 434/434/434
f 292/292/292 289/289/289 447/447/447
f 447/447/447 289/289/289 448/448/448
f 436/436/436 297/297/297 284/284/284
f 436/436/436 284/284/284 435/435/435
f 449/449/449 295/295/295 436/436/436
f 449/449/449 285/285/285 295/295/295
f 450/450/450 285/285/285 449/449/449
f 450/450/450 287/287/287 285/285/285
f 313/313/313 322/322/322 451/451/451
f 437/437/437 313/313/313 451/451/451
f 311/311/311 309/309/309 452/452/452
f 453/453/453 311/311/311 452/452/452
f 439/439/439 454/454/454 317/317/317
f 440/440/440 443/443/443 314/314/314
f 316/316/316 440/440/440 314/314/314
f 323/323/323 455/455/455 312/312/312
f 443/443/443 455/455/455 323/323/323
f 312/312/312 455/455/455 310/310/310
f 310/310/310 455/455/455 456/456/456
f 325/325/325 457/457/457 444/444/444
f 321/321/321 457/457/457 325/325/325
f 296/296/296 444/444/444 433/433/433
f 288/288/288 444/444/444 296/296/296
f 321/321/321 456/456/456 457/457/457
f 310/310/310 456/456/456 321/321/321
f 452/452/452 309/309/309 458/458/458
f 309/309/309 320/320/320 458/458/458
f 451/451/451 322/322/322 453/453/453
f 322/322/322 311/311/311 453/453/453
f 289/289/289 315/315/315 448/448/448
f 448/448/448 315/315/315 438/438/438
f 327/327/327 442/442/442 294/294/294
f 326/326/326 292/292/292 447/447/447
f 320/320/320 287/287/287 458/458/458
f 458/458/458 287/287/287 450/450/450
f 317/317/317 454/454/454 291/291/291
f 454/454/454 440/440/440 291/291/291
f 441/441/441 439/439/439 319/319/319
f 459/459/459 329/329/329 330/330/330
f 330/330/330 328/328/328 460/460/460
f 328/328/328 350/350/350 460/460/460
f 350/350/350 351/351/351 460/460/460
f 461/461/461 353/353/353 352/352/352
f 357/357/357 358/358/358 462/462/462
f 393/393/393 334/334/334 463/463/463
f 338/338/338 464/464/464 335/335/335
f 465/465/465 387/387/387 390/390/390
f 466/466/466 384/384/384 386/386/386
f 467/467/467 375/375/375 376/376/376
f 377/377/377 467/467/467 376/376/376
f 391/391/391 468/468/468 464/464/464
f 389/389/389 468/468/468 391/391/391
f 388/388/388 468/468/468 389/389/389
f 388/388/388 385/385/385 468/468/468
f 341/341/341 469/469/469 340/340/340
f 470/470/470 367/367/367 363/363/363
f 373/373/373 471/471/471 372/372/372
f 368/368/368 472/472/472 364/364/364
f 382/382/382 473/473/473 381/381/381
f 474/474/474 359/359/359 342/342/342
f 474/474/474 361/361/361 359/359/359
f 474/474/474 365/365/365 361/361/361
f 346/346/346 475/475/475 366/366/366
f 347/347/347 475/475/475 346/346/346
f 476/476/476 336/336/336 332/332/332
f 358/358/358 463/463/463 462/462/462
f 393/393/393 463/463/463 358/358/358
f 477/477/477 329/329/329 459/459/459
f 477/477/477 349/349/349 329/329/329
f 351/351/351 354/354/354 478/478/478
f 460/460/460 351/351/351 478/478/478
f 461/461/461 355/355/355 353/353/353
f 461/461/461 333/333/333 355/355/355
f 461/461/461 476/476/476 333/333/333
f 333/333/333 476/476/476 332/332/332
f 479/479/479 369/369/369 462/462/462
f 369/369/369 357/357/357 462/462/462
f 335/335/335 464/464/464 463/463/463
f 334/334/334 335/335/335 463/463/463
f 476/476/476 337/337/337 336/336/336
f 476/476/476 339/339/339 337/337/337
f 465/465/465 390/390/390 339/339/339
f 465/465/465 339/339/339 476/476/476
f 466/466/466 386/386/386 465/465/465
f 465/465/465 386/386/386 387/387/387
f 474/474/474 342/342/342 384/384/384
f 466/466/466 474/474/474 384/384/384
f 331/331/331 369/369/369 479/479/479
f 378/378/378 473/473/473 382/382/382
f 341/341/341 360/360/360 469/469/469
f 392/392/392 391/391/391 464/464/464
f 338/338/338 392/392/392 464/464/464
f 480/480/480 343/343/343 348/348/348
f 477/477/477 352/352/352 349/349/349
f 477/477/477 461/461/461 352/352/352
f 354/354/354 331/331/331 478/478/478
f 478/478/478 331/331/331 479/479/479
f 385/385/385 481/481/481 468/468/468
f 383/383/383 481/481/481 385/385/385
f 459/459/459 330/330/330 482/482/482
f 482/482/482 330/330/330 460/460/460
f 473/473/473 483/483/483 381/381/381
f 484/484/484 365/365/365 474/474/474
f 340/340/340 469/469/469 383/383/383
f 383/383/383 469/469/469 481/481/481
f 470/470/470 363/363/363 485/485/485
f 485/485/485 363/363/363 345/345/345
f 485/485/485 343/343/343 480/480/480
f 485/485/485 345/345/345 343/343/343
f 480/480/480 348/348/348 484/484/484
f 484/484/484 348/348/348 365/365/365
f 470/470/470 486/486/486 367/367/367
f 367/367/367 486/486/486 380/380/380
f 486/486/486 377/377/377 380/380/380
f 486/486/486 467/467/467 377/377/377
f 467/467/467 487/487/487 375/375/375
f 375/375/375 487/487/487 374/374/374
f 374/374/374 487/487/487 373/373/373
f 487/487/487 471/471/471 373/373/373
f 372/372/372 488/488/488 371/371/371
f 471/471/471 488/488/488 372/372/372
f 371/371/371 488/488/488 378/378/378
f 488/488/488 473/473/473 378/378/378
f 381/381/381 472/472/472 368/368/368
f 381/381/381 483/483/483 472/472/472
f 364/364/364 472/472/472 344/344/344
f 344/344/344 472/472/472 489/489/489
f 344/344/344 475/475/475 347/347/347
f 344/344/344 489/489/489 475/475/475
f 366/366/366 475/475/475 362/362/362
f 362/362/362 475/475/475 490/490/490
f 360/360/360 362/362/362 469/469/469
f 362/362/362 490/490/490 469/469/469
f 331/331/331 356/356/356 369/369/369
f 492/492/492 491/491/491 408/408/408
f 492/492/492 408/408/408 411/411/411
f 410/410/410 493/493/493 412/412/412
f 492/492/492 411/411/411 413/413/413
f 494/494/494 416/416/416 417/417/417
f 494/494/494 417/417/417 418/418/418
f 495/495/495 420/420/420 430/430/430
f 495/495/495 430/430/430 423/423/423
f 421/421/421 496/496/496 422/422/422
f 497/497/497 424/424/424 396/396/396
f 396/396/396 394/394/394 497/497/497
f 426/426/426 399/399/399 498/498/498
f 399/399/399 397/397/397 498/498/498
f 397/397/397 427/427/427 498/498/498
f 500/500/500 499/499/499 401/401/401
f 500/500/500 401/401/401 402/402/402
f 400/400/400 499/499/499 501/501/501
f 401/401/401 499/499/499 400/400/400
f 400/400/400 501/501/501 502/502/502
f 403/403/403 400/400/400 502/502/502
f 407/407/407 404/404/404 503/503/503
f 407/407/407 503/503/503 493/493/493
f 409/409/409 407/407/407 493/493/493
f 410/410/410 409/409/409 493/493/493
f 504/504/504 420/420/420 495/495/495
f 419/419/419 505/505/505 496/496/496
f 419/419/419 496/496/496 421/421/421
f 495/495/495 423/423/423 424/424/424
f 495/495/495 424/424/424 497/497/497
f 422/422/422 496/496/496 506/506/506
f 395/395/395 507/507/507 425/425/425
f 497/497/497 394/394/394 508/508/508
f 394/394/394 426/426/426 508/508/508
f 398/398/398 507/507/507 427/427/427
f 507/507/507 509/509/509 427/427/427
f 408/408/408 500/500/500 406/406/406
f 406/406/406 500/500/500 405/405/405
f 427/427/427 511/511/511 510/510/510
f 509/509/509 511/511/511 427/427/427
f 498/498/498 427/427/427 512/512/512
f 427/427/427 510/510/510 512/512/512
f 404/404/404 502/502/502 503/503/503
f 403/403/403 502/502/502 404/404/404
f 500/500/500 402/402/402 405/405/405
f 513/513/513 413/413/413 428/428/428
f 513/513/513 492/492/492 413/413/413
f 513/513/513 416/416/416 494/494/494
f 513/513/513 428/428/428 416/416/416
f 429/429/429 514/514/514 415/415/415
f 415/415/415 514/514/514 505/505/505
f 412/412/412 493/493/493 514/514/514
f 429/429/429 412/412/412 514/514/514
f 414/414/414 505/505/505 419/419/419
f 414/414/414 415/415/415 505/505/505
f 508/508/508 426/426/426 498/498/498
f 425/425/425 507/507/507 398/398/398
f 422/422/422 506/506/506 395/395/395
f 395/395/395 506/506/506 507/507/507
f 491/491/491 500/500/500 408/408/408
f 494/494/494 418/418/418 504/504/504
f 504/504/504 418/418/418 420/420/420
