g cPK_10_002450_00_MEWex_RR_L_SB
v -0.018929405 0.38097987 -0.0072797104
v -0.14557564 0.39054272 -0.007395919
v -0.07881203 0.32353362 -0.0073230774
v -0.17210327 0.35826525 -0.0073813233
v 0.079167835 0.3635659 -0.007380405
v -0.019295989 0.29695082 -0.007345137
v 0.06321841 0.2448947 -0.0073757814
v 0.09589123 0.1782734 -0.007410418
v 0.14738923 0.3177965 -0.007166718
v 0.26100764 0.2614991 -0.007333319
v 0.20092483 0.2717354 -0.007166618
v 0.36851364 0.16966902 -0.0074672415
v 0.19137503 0.1261729 -0.0074502155
v 0.24905868 0.076680444 -0.0074841753
v 0.29216164 0.018942703 -0.007517919
v 0.34334323 0.0020305992 -0.0074978187
v 0.39892647 0.12584145 -0.0074760513
v 0.41499755 0.0652287 -0.0074797184
v 0.3949699 0.0122668985 -0.0074848174
v 0.2209631 0.33203125 -0.011689725
v 0.22826405 0.31714296 -0.011689725
v 0.23590325 0.3441689 -0.0117169805
v 0.15207599 0.32509762 -0.011762633
v 0.12201541 0.31406042 -0.011780981
v 0.1519938 0.3027713 -0.011689725
v 0.31816846 0.18878527 -0.011696031
v 0.29991946 0.1720864 -0.011689725
v 0.2994977 0.16396652 -0.011689725
v 0.25023842 0.31663305 -0.0117758075
v 0.2336841 0.3028681 -0.011689725
v 0.24128135 0.2972503 -0.011689725
v 0.20621791 0.34691945 -0.011689725
v 0.21161257 0.36869866 -0.011722233
v 0.19778584 0.36929032 -0.011763904
v 0.21351893 0.34162265 -0.011689725
v 0.18359926 0.33131546 -0.011689725
v 0.19047074 0.33761427 -0.011689725
v 0.17502561 0.3526071 -0.011778393
v 0.17143092 0.31728604 -0.011689725
v 0.17701407 0.3243008 -0.011689725
v 0.16398682 0.30683565 -0.011689725
v 0.24921134 0.2907221 -0.011689725
v 0.26536113 0.30909643 -0.011742879
v 0.25697422 0.2835201 -0.011689725
v 0.26538977 0.27422473 -0.011689725
v 0.27245137 0.26425534 -0.011689725
v 0.2794677 0.2952406 -0.011713471
v 0.27722847 0.25615522 -0.011689725
v 0.2808631 0.24961281 -0.011689725
v 0.29317468 0.27554008 -0.011686015
v 0.2837708 0.2429666 -0.011689725
v 0.28553623 0.23569722 -0.011689725
v 0.28730166 0.22738938 -0.011689725
v 0.3043495 0.25185853 -0.011688789
v 0.29727107 0.18595412 -0.011689725
v 0.2990758 0.17957346 -0.011689725
v 0.309327 0.21175031 -0.011687993
v 0.29072866 0.20111592 -0.011689725
v 0.29405174 0.19384655 -0.011689725
v 0.288444 0.21669304 -0.011689725
v 0.2894825 0.20610057 -0.011689725
v 0.32368812 0.16664349 -0.011661104
v 0.29728308 0.15479212 -0.011689725
v 0.29338142 0.14656684 -0.011689725
v 0.31805065 0.14422035 -0.0116209425
v 0.2874761 0.13907966 -0.011689725
v 0.27988344 0.13285795 -0.011689725
v 0.30731085 0.12497137 -0.011553957
v 0.27176365 0.12769079 -0.011689725
v 0.29139456 0.11222996 -0.011515673
v 0.2634328 0.124210894 -0.011689725
v 0.25130576 0.12115276 -0.011689725
v 0.27077556 0.10110237 -0.01152259
v 0.23696421 0.12125822 -0.011689725
v 0.24717632 0.09777324 -0.011549859
v 0.22757898 0.12178546 -0.011689725
v 0.21418647 0.12178546 -0.011689725
v 0.22096696 0.098506354 -0.01152376
v 0.1914913 0.11941667 -0.011689725
v 0.176108 0.11666282 -0.011689725
v 0.19571552 0.09524251 -0.011512886
v 0.20195396 0.12104728 -0.011689725
v 0.16423807 0.11542832 -0.011689725
v 0.15322281 0.11533338 -0.011689725
v 0.16894144 0.09243301 -0.0114787435
v 0.13176216 0.11818218 -0.011689725
v 0.122076325 0.121505775 -0.011689725
v 0.13504514 0.09183843 -0.011345866
v 0.11400479 0.12625372 -0.011689725
v 0.11762538 0.09789261 -0.011351954
v 0.14334714 0.11590313 -0.011689725
v 0.104698874 0.13442017 -0.011689725
v 0.09772442 0.14303838 -0.011689725
v 0.095810704 0.11375862 -0.011499227
v 0.093043335 0.15208142 -0.011689725
v 0.08857499 0.16303934 -0.011689725
v 0.077963404 0.13903348 -0.011621567
v 0.08612808 0.17218879 -0.011689725
v 0.0854898 0.18144457 -0.011689725
v 0.07198996 0.16393612 -0.011644381
v 0.06474405 0.20144553 -0.011689725
v 0.061552387 0.20814808 -0.011689725
v 0.043074705 0.19258963 -0.011628597
v 0.07293599 0.19261535 -0.011689725
v 0.056225877 0.17831267 -0.011668203
v 0.07878727 0.23197901 -0.011689725
v 0.085808985 0.23708566 -0.011689725
v 0.05654643 0.24335006 -0.011784006
v 0.062084306 0.21453138 -0.011689725
v 0.038011696 0.2111508 -0.011728334
v 0.065063246 0.21995714 -0.011689725
v 0.070595436 0.2255957 -0.011689725
v 0.041193034 0.22954483 -0.011807334
v 0.09321698 0.2420963 -0.011689725
v 0.084806204 0.27601922 -0.01183829
v 0.076737426 0.25464454 -0.011810659
v 0.13049424 0.28869292 -0.011689725
v 0.14064373 0.2962232 -0.011689725
v 0.09878241 0.29521313 -0.011793723
v 0.12056293 0.28094435 -0.011689725
v 0.10369163 0.26032427 -0.011689725
v 0.111874096 0.27113673 -0.011689725
v 0.09757535 0.25004378 -0.011689725
v 0.1976959 0.34392306 -0.011689725
v 0.112240806 0.0026998997 -0.021370491
v 0.11210211 -0.0017385007 -0.021370491
v 0.13764273 -0.0073702815 -0.021282388
v -0.18047687 -0.0059387684 -0.021370491
v -0.17080818 0.019863367 -0.021370491
v -0.18501084 0.024460793 -0.021370491
v 0.012310016 0.043764304 -0.021370491
v 0.017860068 0.06793709 -0.021473438
v -0.013472378 0.06448891 -0.021465754
v 0.057625066 0.06443296 -0.021546092
v -0.0037918927 0.04199312 -0.021370491
v 0.07913281 0.029433632 -0.021370491
v 0.0929804 0.022509813 -0.021370491
v 0.08426491 0.05445037 -0.02151482
v 0.031632196 0.042798232 -0.021370491
v 0.047251116 0.040543914 -0.021370491
v 0.063352905 0.035713315 -0.021370491
v 0.11299571 0.039464664 -0.021469705
v 0.1047347 0.015908003 -0.021370491
v 0.13007765 0.024631977 -0.021466529
v 0.11037041 0.009789324 -0.021370491
v 0.13763653 0.006639838 -0.021328663
v 0.11043771 -0.0070091723 -0.021370491
v 0.107802406 -0.011724996 -0.021370491
v 0.13161494 -0.02080431 -0.021185208
v 0.09961899 -0.017134285 -0.021370491
v 0.08796819 -0.020879174 -0.021370491
v 0.11776399 -0.03384001 -0.021184642
v 0.07312721 -0.024624063 -0.021370491
v 0.098099224 -0.043430235 -0.021195194
v 0.0538478 -0.02809167 -0.021370491
v 0.0698624 -0.052723505 -0.021138927
v 0.0399778 -0.029062605 -0.021370491
v 0.020975817 -0.028923893 -0.021370491
v 0.0368549 -0.055702973 -0.021169266
v 0.0012802959 -0.025179004 -0.021370491
v -0.0142542 -0.020879174 -0.021370491
v 0.0001630187 -0.0523716 -0.0212075
v -0.0364463 -0.012834596 -0.021370491
v -0.03538958 -0.040971186 -0.021149864
v -0.05191065 -0.008028126 -0.021370491
v -0.08263359 0.00017080308 -0.021370491
v -0.06848409 -0.030999327 -0.02114482
v -0.14875866 0.013954687 -0.021370491
v -0.16023235 -0.012136745 -0.021121265
v -0.1193794 -0.021620704 -0.021065209
v -0.1056579 0.0050253393 -0.021370491
v -0.12527446 0.008774901 -0.021370491
v -0.2003583 0.030974794 -0.021370491
v -0.21249662 0.008497119 -0.021185795
v -0.21696992 0.04007206 -0.021370491
v -0.24238706 0.021278858 -0.021140141
v -0.2121501 0.0616374 -0.021370491
v -0.1978194 0.053264428 -0.021370491
v -0.20056354 0.08520212 -0.021411141
v -0.17405997 0.07027264 -0.021439178
v -0.1672259 0.041188 -0.021370491
v -0.14894766 0.06278296 -0.021481946
v -0.1825226 0.04682362 -0.021370491
v -0.089453794 0.03120482 -0.021370491
v -0.08245774 0.055182338 -0.021413574
v -0.11422068 0.057165146 -0.021448197
v -0.15192911 0.037484623 -0.021370491
v -0.13437812 0.034103204 -0.021370491
v -0.1100642 0.031687927 -0.021370491
v -0.020537794 0.03957782 -0.021370491
v -0.048274565 0.05742359 -0.021434074
v -0.0704536 0.031848907 -0.021370491
v -0.056284 0.033459116 -0.021370491
v -0.038249888 0.03619642 -0.021370491
v -0.32466125 0.4706851 -0.02634554
v -0.37980065 0.41554576 -0.02637204
v -0.381506 0.36665934 -0.026385939
v -0.31894013 0.22789584 -0.02645616
v 0.042478703 0.36026073 -0.02633964
v -0.099615216 0.43829727 -0.026295556
v 0.18457262 0.28222415 -0.026383728
v -0.26848108 0.17097746 -0.026339695
v -0.16374281 0.09766601 -0.026444769
v -0.042143006 0.042644437 -0.02648184
v 0.07867858 0.010711694 -0.02650624
v 0.25522733 0.23510046 -0.026421804
v 0.27557623 -0.029929394 -0.026389642
v 0.15591452 -0.009468245 -0.026376069
v 0.35179085 0.14610185 -0.02643824
v 0.2892617 0.18077706 -0.026464239
v 0.40720597 0.036073014 -0.02640454
v 0.397408 0.07930038 -0.026403403
v 0.37195477 -0.014928833 -0.02640054
v -0.011603099 0.3893052 -0.008649157
v -0.015367204 0.3885814 -0.008653722
v -0.0178284 0.3852515 -0.008634575
v 0.005073946 0.38559747 -0.008570461
v 0.0097319065 0.3809425 -0.008520753
v 0.01964249 0.39984092 -0.00864186
v 7.223445E-05 0.3868079 -0.00859635
v 0.014125389 0.3738354 -0.0084552765
v 0.038226943 0.37706438 -0.008443794
v 0.017356008 0.3660821 -0.008390922
v -0.003995211 0.3863006 -0.00860633
v -0.004874117 0.40832472 -0.008963488
v -0.0074045956 0.3884366 -0.008631523
v -0.01521743 0.40922004 -0.008940883
v -0.025989419 0.40703055 -0.008953577
v -0.032585006 0.40127096 -0.008929354
v -0.01855219 0.381777 -0.008609617
v -0.043136653 0.38920614 -0.008861109
v -0.025067097 0.37511727 -0.008580751
v -0.021447688 0.3820665 -0.008621183
v -0.023908908 0.3796053 -0.008610587
v -0.04650634 0.37526092 -0.008687179
v -0.02535661 0.3662861 -0.008517085
v -0.045639545 0.35806707 -0.008535755
v -0.024198396 0.3591922 -0.008462823
v -0.035226326 0.32579425 -0.008274299
v -0.019855196 0.3465968 -0.008363115
v -0.012326891 0.32893428 -0.008232593
v 0.0076518953 0.294478 -0.008031167
v -0.0055224965 0.3167733 -0.008150049
v -0.0069717467 0.27242526 -0.007919269
v 0.020392103 0.2747887 -0.007967364
v 0.01743297 0.23438859 -0.007848404
v 0.031829305 0.2569814 -0.007948547
v 0.0348695 0.25003228 -0.007948547
v 0.031829305 0.2533621 -0.007948547
v 0.0399366 0.24815018 -0.007948547
v 0.032044023 0.22495715 -0.007771513
v 0.051474232 0.22377871 -0.00770756
v 0.047899205 0.2506114 -0.007948547
v 0.044569403 0.2485845 -0.007948547
v 0.052676804 0.2548098 -0.007948547
v 0.06790585 0.23218644 -0.0077431113
v 0.056440897 0.2621933 -0.007948547
v 0.0558618 0.25857398 -0.007948547
v 0.07815804 0.24871273 -0.007843164
v 0.05528271 0.2658127 -0.007948547
v 0.057445545 0.32939053 -0.008125736
v 0.0492022 0.2863706 -0.007967364
v 0.08056955 0.27541038 -0.007993008
v 0.020457298 0.35626128 -0.008316248
v 0.032991704 0.327445 -0.008123624
v 0.043717105 0.3003085 -0.008003779
v -0.2235959 0.32426876 -0.017732399
v -0.20008312 0.323168 -0.017621875
v -0.1997597 0.32650223 -0.017621875
v -0.1567138 0.3369217 -0.017621875
v -0.15366164 0.33165932 -0.017621875
v -0.15199465 0.3630927 -0.017705783
v -0.17744736 0.3446047 -0.017621875
v -0.17313226 0.34502563 -0.017621875
v -0.17079072 0.3690589 -0.017707886
v -0.16839622 0.3443942 -0.017621875
v -0.18515101 0.36796284 -0.01772682
v -0.16376537 0.34271023 -0.017621875
v -0.15966074 0.33997387 -0.017621875
v -0.1917609 0.34397316 -0.017621875
v -0.18818255 0.3443942 -0.017621875
v -0.18081525 0.34334174 -0.017621875
v -0.18418312 0.3440785 -0.017621875
v -0.20259967 0.36514166 -0.017712176
v -0.19544458 0.3311332 -0.017621875
v -0.1957603 0.33597445 -0.017621875
v -0.19376062 0.34260496 -0.017621875
v -0.19502352 0.33934233 -0.017621875
v -0.21591404 0.35561603 -0.017720144
v -0.19775999 0.32976487 -0.017621875
v -0.14945185 0.3227134 -0.017621875
v -0.13336667 0.3485569 -0.017652256
v -0.14462888 0.31289032 -0.017621875
v -0.1251481 0.327402 -0.017661108
v -0.13670038 0.30426228 -0.017621875
v -0.11338122 0.27954385 -0.017621875
v -0.1010103 0.30382785 -0.01769532
v -0.07817258 0.27418935 -0.017711176
v -0.08726364 0.25016165 -0.017621875
v -0.067212865 0.22567537 -0.017621875
v -0.05559034 0.24571048 -0.017642848
v -0.057872202 0.21329899 -0.017621875
v -0.04259301 0.22976528 -0.017665535
v -0.055186838 0.20746115 -0.017621875
v -0.035804093 0.21168248 -0.017629411
v -0.054953307 0.20279084 -0.017621875
v -0.05647117 0.19928813 -0.017621875
v -0.059156537 0.19613566 -0.017621875
v -0.03740715 0.19231908 -0.017571954
v -0.06254255 0.19368373 -0.017621875
v -0.06429394 0.19099836 -0.017621875
v -0.06954797 0.1912318 -0.017621875
v -0.062467605 0.16290994 -0.017541088
v -0.045835745 0.17242692 -0.017494636
v -0.07328423 0.19204915 -0.017621875
v -0.07748758 0.19555186 -0.017621875
v -0.07906125 0.16075179 -0.017547889
v -0.083442114 0.19917138 -0.017621875
v -0.08928005 0.2037249 -0.017621875
v -0.09544163 0.1625813 -0.017526397
v -0.1184695 0.22602563 -0.017621875
v -0.13656692 0.24003652 -0.017621875
v -0.13323835 0.21234925 -0.017496476
v -0.1042335 0.17068477 -0.017561084
v -0.10939509 0.1828699 -0.017602911
v -0.10944607 0.1918178 -0.017555537
v -0.10177316 0.21364938 -0.017621875
v -0.118236326 0.201986 -0.017552111
v -0.15793358 0.2563826 -0.017621875
v -0.15303199 0.22740065 -0.017547278
v -0.17241155 0.26910925 -0.017621875
v -0.16946709 0.24094765 -0.017514234
v -0.18420403 0.28101847 -0.017621875
v -0.18330613 0.2527303 -0.017521907
v -0.18887436 0.28767365 -0.017621875
v -0.19554023 0.2664542 -0.017549373
v -0.19296087 0.2959635 -0.017621875
v -0.20467234 0.27960804 -0.017567882
v -0.19728093 0.3057711 -0.017621875
v -0.21080592 0.29164395 -0.017564083
v -0.19961606 0.3124263 -0.017621875
v -0.217164 0.3056467 -0.017574357
v -0.2004334 0.3179139 -0.017621875
v -0.27639338 0.18148743 -0.021334363
v -0.3012602 0.19825803 -0.021370491
v -0.2990191 0.18442582 -0.021370491
v -0.23235631 0.05009389 -0.021370491
v -0.24564485 0.060928296 -0.021370491
v -0.26011178 0.07413893 -0.021370491
v -0.2675779 0.041790772 -0.021188734
v -0.27372834 0.08889794 -0.021370491
v -0.28646952 0.10541153 -0.021370491
v -0.2968359 0.12087331 -0.021370491
v -0.31216916 0.09718366 -0.021283595
v -0.29478145 0.0681963 -0.021255152
v -0.30649957 0.13879493 -0.021370491
v -0.32995605 0.13650034 -0.021389104
v -0.31212202 0.15249963 -0.021370491
v -0.31739312 0.16743432 -0.021370491
v -0.33883807 0.16821109 -0.021380303
v -0.3233768 0.19545841 -0.021370491
v -0.3458817 0.20455332 -0.021466091
v -0.34296843 0.19303362 -0.02138051
v -0.32020432 0.17903072 -0.021370491
v -0.28274813 0.21218407 -0.021275029
v -0.2796391 0.20001116 -0.021294465
v -0.2950399 0.17049861 -0.021370491
v -0.2688345 0.16172884 -0.02136184
v -0.28907108 0.15515032 -0.021370491
v -0.28310236 0.14037052 -0.021370491
v -0.25722525 0.14181744 -0.021413065
v -0.2760431 0.12792091 -0.021370491
v -0.2663417 0.114379406 -0.021370491
v -0.24417864 0.12252133 -0.021437049
v -0.25684246 0.10225272 -0.021370491
v -0.22751485 0.10380512 -0.021410543
v -0.24714108 0.09093442 -0.021370491
v -0.23582278 0.07941403 -0.021370491
v -0.22390452 0.06952732 -0.021370491
v 0.16567805 0.11768895 -0.011689725
vt 0.51953125 0.75927734
vt 0.66308594 0.7705078
vt 0.58740234 0.69433594
vt 0.6933594 0.7338867
vt 0.40795898 0.7397461
vt 0.52001953 0.6640625
vt 0.4260254 0.60498047
vt 0.38891602 0.5292969
vt 0.33032227 0.6875
vt 0.20117188 0.62353516
vt 0.26953125 0.6352539
vt 0.07910156 0.51953125
vt 0.28027344 0.4699707
vt 0.21472168 0.41381836
vt 0.16577148 0.34814453
vt 0.107666016 0.32885742
vt 0.044708252 0.46948242
vt 0.026275635 0.40063477
vt 0.048980713 0.34057617
vt 0.16455078 0.9321289
vt 0.15612793 0.91503906
vt 0.14746094 0.9458008
vt 0.24304199 0.9238281
vt 0.27734375 0.9111328
vt 0.24316406 0.8984375
vt 0.053466797 0.7685547
vt 0.07434082 0.7495117
vt 0.07476807 0.7402344
vt 0.13110352 0.9145508
vt 0.14990234 0.8984375
vt 0.14123535 0.89208984
vt 0.18139648 0.94873047
vt 0.1751709 0.9736328
vt 0.19091797 0.9746094
vt 0.1730957 0.9428711
vt 0.20715332 0.93115234
vt 0.19934082 0.9379883
vt 0.21679688 0.9555664
vt 0.22106934 0.91503906
vt 0.21472168 0.92285156
vt 0.22949219 0.9033203
vt 0.13220215 0.8847656
vt 0.11376953 0.9057617
vt 0.12335205 0.87646484
vt 0.11376953 0.86572266
vt 0.10571289 0.8544922
vt 0.09765625 0.8901367
vt 0.10021973 0.84521484
vt 0.096069336 0.8378906
vt 0.08203125 0.8676758
vt 0.09277344 0.8300781
vt 0.09075928 0.82177734
vt 0.08868408 0.8125
vt 0.0692749 0.84033203
vt 0.07733154 0.7651367
vt 0.07531738 0.7578125
vt 0.06359863 0.7944336
vt 0.08477783 0.78222656
vt 0.08105469 0.7739258
vt 0.087402344 0.80029297
vt 0.086242676 0.78808594
vt 0.04711914 0.74316406
vt 0.07727051 0.7294922
vt 0.081726074 0.72021484
vt 0.053527832 0.71728516
vt 0.08850098 0.7114258
vt 0.09710693 0.70458984
vt 0.0657959 0.6953125
vt 0.10632324 0.69873047
vt 0.083984375 0.68066406
vt 0.11590576 0.69433594
vt 0.12976074 0.69091797
vt 0.107543945 0.66796875
vt 0.14624023 0.69140625
vt 0.13452148 0.6645508
vt 0.15686035 0.69189453
vt 0.17224121 0.69189453
vt 0.16442871 0.66503906
vt 0.19812012 0.68896484
vt 0.21569824 0.68603516
vt 0.1932373 0.6616211
vt 0.18615723 0.69091797
vt 0.22937012 0.6845703
vt 0.24194336 0.68408203
vt 0.22387695 0.6582031
vt 0.26660156 0.6875
vt 0.27783203 0.69140625
vt 0.2626953 0.65722656
vt 0.28710938 0.69677734
vt 0.2824707 0.6645508
vt 0.25341797 0.6850586
vt 0.29785156 0.7060547
vt 0.30541992 0.7158203
vt 0.30737305 0.6826172
vt 0.31079102 0.7265625
vt 0.31567383 0.73876953
vt 0.32788086 0.7114258
vt 0.31860352 0.7495117
vt 0.31933594 0.7597656
vt 0.3347168 0.7397461
vt 0.34301758 0.78271484
vt 0.3466797 0.79052734
vt 0.36767578 0.77246094
vt 0.3334961 0.77246094
vt 0.35253906 0.75634766
vt 0.3269043 0.8173828
vt 0.31884766 0.8232422
vt 0.35205078 0.8305664
vt 0.34594727 0.7973633
vt 0.37329102 0.7939453
vt 0.3425293 0.80371094
vt 0.33618164 0.8100586
vt 0.3696289 0.8149414
vt 0.31079102 0.82910156
vt 0.31982422 0.8676758
vt 0.32910156 0.8432617
vt 0.26782227 0.8823242
vt 0.25610352 0.8911133
vt 0.30395508 0.88964844
vt 0.27929688 0.87353516
vt 0.29882812 0.85009766
vt 0.28930664 0.8623047
vt 0.30615234 0.8383789
vt 0.19116211 0.9453125
vt 0.45336914 0.093933105
vt 0.45336914 0.08886719
vt 0.42456055 0.08239746
vt 0.7861328 0.083984375
vt 0.77490234 0.113342285
vt 0.7910156 0.11859131
vt 0.56689453 0.14050293
vt 0.5605469 0.16784668
vt 0.5961914 0.16394043
vt 0.515625 0.16394043
vt 0.5854492 0.1385498
vt 0.4909668 0.12426758
vt 0.47509766 0.11645508
vt 0.48535156 0.15258789
vt 0.5449219 0.1394043
vt 0.52734375 0.13684082
vt 0.50878906 0.13134766
vt 0.45263672 0.13549805
vt 0.46191406 0.108947754
vt 0.4333496 0.118652344
vt 0.45532227 0.101989746
vt 0.42456055 0.0982666
vt 0.45532227 0.08282471
vt 0.45825195 0.07751465
vt 0.43139648 0.06713867
vt 0.46777344 0.07128906
vt 0.48095703 0.0670166
vt 0.44702148 0.05227661
vt 0.49780273 0.06274414
vt 0.46948242 0.041381836
vt 0.52001953 0.058776855
vt 0.50146484 0.030776978
vt 0.53564453 0.05770874
vt 0.5571289 0.057891846
vt 0.5390625 0.027404785
vt 0.57958984 0.06213379
vt 0.59716797 0.0670166
vt 0.5805664 0.031204224
vt 0.6225586 0.076171875
vt 0.62109375 0.044158936
vt 0.6401367 0.081604004
vt 0.6748047 0.09094238
vt 0.6586914 0.055480957
vt 0.75 0.10662842
vt 0.7631836 0.0769043
vt 0.7167969 0.066101074
vt 0.7011719 0.09643555
vt 0.72314453 0.10070801
vt 0.80859375 0.12597656
vt 0.8222656 0.10040283
vt 0.8276367 0.13635254
vt 0.8564453 0.1149292
vt 0.8222656 0.1607666
vt 0.80566406 0.15124512
vt 0.80908203 0.18762207
vt 0.7788086 0.1706543
vt 0.7709961 0.13757324
vt 0.75 0.16210938
vt 0.7885742 0.14404297
vt 0.6826172 0.1262207
vt 0.6748047 0.15344238
vt 0.7109375 0.15563965
vt 0.75341797 0.13342285
vt 0.73339844 0.1295166
vt 0.7060547 0.12683105
vt 0.6044922 0.13574219
vt 0.6357422 0.15600586
vt 0.6611328 0.12695312
vt 0.64501953 0.12878418
vt 0.6245117 0.13195801
vt 0.90234375 0.6772461
vt 0.96533203 0.61376953
vt 0.96728516 0.55810547
vt 0.8955078 0.3984375
vt 0.48046875 0.55078125
vt 0.6435547 0.6401367
vt 0.31713867 0.4609375
vt 0.83740234 0.3330078
vt 0.71728516 0.24890137
vt 0.5776367 0.18566895
vt 0.4387207 0.14904785
vt 0.23596191 0.40673828
vt 0.21252441 0.10229492
vt 0.34985352 0.12585449
vt 0.124938965 0.30444336
vt 0.19677734 0.34423828
vt 0.061309814 0.17810059
vt 0.0725708 0.2277832
vt 0.101867676 0.119628906
vt 0.59277344 0.95458984
vt 0.5966797 0.95410156
vt 0.5996094 0.9501953
vt 0.5732422 0.9506836
vt 0.5678711 0.9453125
vt 0.5571289 0.9667969
vt 0.57910156 0.95214844
vt 0.5629883 0.9375
vt 0.53564453 0.94091797
vt 0.5595703 0.92871094
vt 0.5839844 0.9511719
vt 0.58447266 0.9765625
vt 0.5878906 0.9536133
vt 0.5961914 0.97753906
vt 0.6088867 0.97509766
vt 0.61621094 0.9682617
vt 0.60058594 0.9458008
vt 0.6279297 0.95458984
vt 0.60791016 0.93847656
vt 0.6040039 0.94628906
vt 0.6069336 0.9433594
vt 0.63183594 0.93896484
vt 0.60839844 0.92871094
vt 0.6308594 0.9194336
vt 0.6064453 0.92041016
vt 0.6191406 0.8828125
vt 0.6015625 0.90625
vt 0.59277344 0.88623047
vt 0.5703125 0.84716797
vt 0.5854492 0.8725586
vt 0.58691406 0.8222656
vt 0.55566406 0.82470703
vt 0.55908203 0.7788086
vt 0.54296875 0.8046875
vt 0.5395508 0.7963867
vt 0.54296875 0.80029297
vt 0.5336914 0.7944336
vt 0.54248047 0.7680664
vt 0.5205078 0.76660156
vt 0.52441406 0.7973633
vt 0.5283203 0.7949219
vt 0.51904297 0.8017578
vt 0.5019531 0.7763672
vt 0.51464844 0.8105469
vt 0.515625 0.80615234
vt 0.49023438 0.7949219
vt 0.5161133 0.8144531
vt 0.5136719 0.88671875
vt 0.5229492 0.8378906
vt 0.4873047 0.8256836
vt 0.55566406 0.91748047
vt 0.5415039 0.8847656
vt 0.5292969 0.8540039
vt 0.9580078 0.92285156
vt 0.93115234 0.9213867
vt 0.93115234 0.92529297
vt 0.88134766 0.9375
vt 0.8779297 0.93115234
vt 0.87597656 0.96728516
vt 0.90527344 0.94628906
vt 0.9003906 0.94677734
vt 0.8979492 0.9741211
vt 0.89501953 0.9458008
vt 0.9140625 0.97314453
vt 0.88964844 0.94384766
vt 0.8847656 0.94091797
vt 0.921875 0.9453125
vt 0.91748047 0.9458008
vt 0.9091797 0.9448242
vt 0.91308594 0.9458008
vt 0.93408203 0.96972656
vt 0.92578125 0.93066406
vt 0.92626953 0.93652344
vt 0.9238281 0.94384766
vt 0.92529297 0.9399414
vt 0.94921875 0.9589844
vt 0.92871094 0.9291992
vt 0.8730469 0.92089844
vt 0.85498047 0.9506836
vt 0.8676758 0.90966797
vt 0.84521484 0.92626953
vt 0.85839844 0.89990234
vt 0.83203125 0.87158203
vt 0.8178711 0.89941406
vt 0.7915039 0.8652344
vt 0.8017578 0.8378906
vt 0.7788086 0.8095703
vt 0.765625 0.83251953
vt 0.7680664 0.79541016
vt 0.7504883 0.8144531
vt 0.7651367 0.7885742
vt 0.7426758 0.79345703
vt 0.76464844 0.7832031
vt 0.76660156 0.7792969
vt 0.76953125 0.7758789
vt 0.7446289 0.7714844
vt 0.7734375 0.7729492
vt 0.7753906 0.77001953
vt 0.78125 0.77001953
vt 0.7734375 0.73779297
vt 0.75439453 0.74853516
vt 0.78564453 0.7709961
vt 0.79052734 0.77490234
vt 0.79248047 0.73535156
vt 0.7973633 0.7792969
vt 0.8041992 0.78466797
vt 0.81103516 0.7373047
vt 0.83740234 0.8100586
vt 0.85839844 0.8261719
vt 0.8544922 0.7944336
vt 0.82128906 0.74658203
vt 0.82714844 0.7607422
vt 0.82714844 0.7709961
vt 0.8183594 0.79589844
vt 0.83740234 0.78271484
vt 0.8828125 0.84472656
vt 0.8774414 0.81152344
vt 0.89941406 0.859375
vt 0.8959961 0.82714844
vt 0.91308594 0.8730469
vt 0.9121094 0.8408203
vt 0.91845703 0.8808594
vt 0.92626953 0.8564453
vt 0.92333984 0.8901367
vt 0.93652344 0.87158203
vt 0.92822266 0.9013672
vt 0.94384766 0.8852539
vt 0.93066406 0.9091797
vt 0.9506836 0.9013672
vt 0.9316406 0.91552734
vt 0.89501953 0.29711914
vt 0.92333984 0.3161621
vt 0.92089844 0.30029297
vt 0.84521484 0.14770508
vt 0.86035156 0.16003418
vt 0.87646484 0.17504883
vt 0.8852539 0.1381836
vt 0.89208984 0.19177246
vt 0.9067383 0.21057129
vt 0.91845703 0.22814941
vt 0.9355469 0.20117188
vt 0.9160156 0.16821289
vt 0.9291992 0.24853516
vt 0.9560547 0.24597168
vt 0.9355469 0.26416016
vt 0.94140625 0.28100586
vt 0.9658203 0.28198242
vt 0.9482422 0.31298828
vt 0.9741211 0.32299805
vt 0.9707031 0.3100586
vt 0.9448242 0.29418945
vt 0.90234375 0.3317871
vt 0.8989258 0.31811523
vt 0.9160156 0.28466797
vt 0.88671875 0.2746582
vt 0.90966797 0.26708984
vt 0.90283203 0.25024414
vt 0.87353516 0.25195312
vt 0.89453125 0.23620605
vt 0.88378906 0.22070312
vt 0.85839844 0.22998047
vt 0.8730469 0.20703125
vt 0.83935547 0.20874023
vt 0.8618164 0.1940918
vt 0.8491211 0.18103027
vt 0.8354492 0.1697998
vt 0.22766113 0.6870117
vn -0 0 -1
vn -0 0 -1
vn -0 0 -1
vn -0 0 -1
vn -0 0 -1
vn -0 0 -1
vn -0 0 -1
vn -0 0 -1
vn -0 0 -1
vn -0 0 -1
vn -0 0 -1
vn -0 0 -1
vn -0 0 -1
vn -0 0 -1
vn -0 0 -1
vn -0 0 -1
vn -0 0 -1
vn -0 0 -1
vn -0 0 -1
vn -0 0 -1
vn -0 0 -1
vn -0 0 -1
vn -0 0 -1
vn -0 0 -1
vn -0 0 -1
vn -0 0 -1
vn -0 0 -1
vn -0 0 -1
vn -0 0 -1
vn -0 0 -1
vn -0 0 -1
vn -0 0 -1
vn -0 0 -1
vn -0 0 -1
vn -0 0 -1
vn -0 0 -1
vn -0 0 -1
vn -0 0 -1
vn -0 0 -1
vn -0 0 -1
vn -0 0 -1
vn -0 0 -1
vn -0 0 -1
vn -0 0 -1
vn -0 0 -1
vn -0 0 -1
vn -0 0 -1
vn -0 0 -1
vn -0 0 -1
vn -0 0 -1
vn -0 0 -1
vn -0 0 -1
vn -0 0 -1
vn -0 0 -1
vn -0 0 -1
vn -0 0 -1
vn -0 0 -1
vn -0 0 -1
vn -0 0 -1
vn -0 0 -1
vn -0 0 -1
vn -0 0 -1
vn -0 0 -1
vn -0 0 -1
vn -0 0 -1
vn -0 0 -1
vn -0 0 -1
vn -0 0 -1
vn -0 0 -1
vn -0 0 -1
vn -0 0 -1
vn -0 0 -1
vn -0 0 -1
vn -0 0 -1
vn -0 0 -1
vn -0 0 -1
vn -0 0 -1
vn -0 0 -1
vn -0 0 -1
vn -0 0 -1
vn -0 0 -1
vn -0 0 -1
vn -0 0 -1
vn -0 0 -1
vn -0 0 -1
vn -0 0 -1
vn -0 0 -1
vn -0 0 -1
vn -0 0 -1
vn -0 0 -1
vn -0 0 -1
vn -0 0 -1
vn -0 0 -1
vn -0 0 -1
vn -0 0 -1
vn -0 0 -1
vn -0 0 -1
vn -0 0 -1
vn -0 0 -1
vn -0 0 -1
vn -0 0 -1
vn -0 0 -1
vn -0 0 -1
vn -0 0 -1
vn -0 0 -1
vn -0 0 -1
vn -0 0 -1
vn -0 0 -1
vn -0 0 -1
vn -0 0 -1
vn -0 0 -1
vn -0 0 -1
vn -0 0 -1
vn -0 0 -1
vn -0 0 -1
vn -0 0 -1
vn -0 0 -1
vn -0 0 -1
vn -0 0 -1
vn -0 0 -1
vn -0 0 -1
vn -0 0 -1
vn -0 0 -1
vn -0 0 -1
vn -0 0 -1
vn -0 0 -1
vn -0 0 -1
vn -0 0 -1
vn -0 0 -1
vn -0 0 -1
vn -0 0 -1
vn -0 0 -1
vn -0 0 -1
vn -0 0 -1
vn -0 0 -1
vn -0 0 -1
vn -0 0 -1
vn -0 0 -1
vn -0 0 -1
vn -0 0 -1
vn -0 0 -1
vn -0 0 -1
vn -0 0 -1
vn -0 0 -1
vn -0 0 -1
vn -0 0 -1
vn -0 0 -1
vn -0 0 -1
vn -0 0 -1
vn -0 0 -1
vn -0 0 -1
vn -0 0 -1
vn -0 0 -1
vn -0 0 -1
vn -0 0 -1
vn -0 0 -1
vn -0 0 -1
vn -0 0 -1
vn -0 0 -1
vn -0 0 -1
vn -0 0 -1
vn -0 0 -1
vn -0 0 -1
vn -0 0 -1
vn -0 0 -1
vn -0 0 -1
vn -0 0 -1
vn -0 0 -1
vn -0 0 -1
vn -0 0 -1
vn -0 0 -1
vn -0 0 -1
vn -0 0 -1
vn -0 0 -1
vn -0 0 -1
vn -0 0 -1
vn -0 0 -1
vn -0 0 -1
vn -0 0 -1
vn -0 0 -1
vn -0 0 -1
vn -0 0 -1
vn -0 0 -1
vn -0 0 -1
vn -0 0 -1
vn -0 0 -1
vn -0 0 -1
vn -0 0 -1
vn -0 0 -1
vn -0 0 -1
vn -0 0 -1
vn -0 0 -1
vn -0 0 -1
vn -0 0 -1
vn -0 0 -1
vn -0 0 -1
vn -0 0 -1
vn -0 0 -1
vn -0 0 -1
vn -0 0 -1
vn -0 0 -1
vn -0 0 -1
vn -0 0 -1
vn -0 0 -1
vn -0 0 -1
vn -0 0 -1
vn -0 0 -1
vn -0 0 -1
vn -0 0 -1
vn -0 0 -1
vn -0 0 -1
vn -0 0 -1
vn -0 0 -1
vn -0 0 -1
vn -0 0 -1
vn -0 0 -1
vn -0 0 -1
vn -0 0 -1
vn -0 0 -1
vn -0 0 -1
vn -0 0 -1
vn -0 0 -1
vn -0 0 -1
vn -0 0 -1
vn -0 0 -1
vn -0 0 -1
vn -0 0 -1
vn -0 0 -1
vn -0 0 -1
vn -0 0 -1
vn -0 0 -1
vn -0 0 -1
vn -0 0 -1
vn -0 0 -1
vn -0 0 -1
vn -0 0 -1
vn -0 0 -1
vn -0 0 -1
vn -0 0 -1
vn -0 0 -1
vn -0 0 -1
vn -0 0 -1
vn -0 0 -1
vn -0 0 -1
vn -0 0 -1
vn -0 0 -1
vn -0 0 -1
vn -0 0 -1
vn -0 0 -1
vn -0 0 -1
vn -0 0 -1
vn -0 0 -1
vn -0 0 -1
vn -0 0 -1
vn -0 0 -1
vn -0 0 -1
vn -0 0 -1
vn -0 0 -1
vn -0 0 -1
vn -0 0 -1
vn -0 0 -1
vn -0 0 -1
vn -0 0 -1
vn -0 0 -1
vn -0 0 -1
vn -0 0 -1
vn -0 0 -1
vn -0 0 -1
vn -0 0 -1
vn -0 0 -1
vn -0 0 -1
vn -0 0 -1
vn -0 0 -1
vn -0 0 -1
vn -0 0 -1
vn -0 0 -1
vn -0 0 -1
vn -0 0 -1
vn -0 0 -1
vn -0 0 -1
vn -0 0 -1
vn -0 0 -1
vn -0 0 -1
vn -0 0 -1
vn -0 0 -1
vn -0 0 -1
vn -0 0 -1
vn -0 0 -1
vn -0 0 -1
vn -0 0 -1
vn -0 0 -1
vn -0 0 -1
vn -0 0 -1
vn -0 0 -1
vn -0 0 -1
vn -0 0 -1
vn -0 0 -1
vn -0 0 -1
vn -0 0 -1
vn -0 0 -1
vn -0 0 -1
vn -0 0 -1
vn -0 0 -1
vn -0 0 -1
vn -0 0 -1
vn -0 0 -1
vn -0 0 -1
vn -0 0 -1
vn -0 0 -1
vn -0 0 -1
vn -0 0 -1
vn -0 0 -1
vn -0 0 -1
vn -0 0 -1
vn -0 0 -1
vn -0 0 -1
vn -0 0 -1
vn -0 0 -1
vn -0 0 -1
vn -0 0 -1
vn -0 0 -1
vn -0 0 -1
vn -0 0 -1
vn -0 0 -1
vn -0 0 -1
vn -0 0 -1
vn -0 0 -1
vn -0 0 -1
vn -0 0 -1
vn -0 0 -1
vn -0 0 -1
vn -0 0 -1
vn -0 0 -1
vn -0 0 -1
vn -0 0 -1
vn -0 0 -1
vn -0 0 -1
vn -0 0 -1
vn -0 0 -1
vn -0 0 -1
vn -0 0 -1
vn -0 0 -1
vn -0 0 -1
vn -0 0 -1
vn -0 0 -1
vn -0 0 -1
vn -0 0 -1
vn -0 0 -1
vn -0 0 -1
vn -0 0 -1
vn -0 0 -1
vn -0 0 -1
vn -0 0 -1
vn -0 0 -1
vn -0 0 -1
vn -0 0 -1
vn -0 0 -1
vn -0 0 -1
vn -0 0 -1
vn -0 0 -1
vn -0 0 -1
vn -0 0 -1
vn -0 0 -1
vn -0 0 -1
vn -0 0 -1
vn -0 0 -1
vn -0 0 -1
vn -0 0 -1
vn -0 0 -1
vn -0 0 -1
vn -0 0 -1
vn -0 0 -1
vn -0 0 -1
vn -0 0 -1
vn -0 0 -1
vn -0 0 -1
vn -0 0 -1
vn -0 0 -1
vn -0 0 -1
vn -0 0 -1
g cPK_10_002450_00_MEWex_RR_L_SB_0
f 3/3/3 2/2/2 1/1/1
f 4/4/4 2/2/2 3/3/3
f 6/6/6 3/3/3 5/5/5
f 3/3/3 1/1/1 5/5/5
f 7/7/7 6/6/6 5/5/5
f 8/8/8 7/7/7 5/5/5
f 8/8/8 5/5/5 9/9/9
f 8/8/8 11/11/11 10/10/10
f 8/8/8 9/9/9 11/11/11
f 8/8/8 10/10/10 12/12/12
f 14/14/14 13/13/13 12/12/12
f 13/13/13 8/8/8 12/12/12
f 15/15/15 14/14/14 12/12/12
f 16/16/16 15/15/15 12/12/12
f 18/18/18 12/12/12 17/17/17
f 19/19/19 16/16/16 12/12/12
f 18/18/18 19/19/19 12/12/12
f 22/22/22 21/21/21 20/20/20
f 25/25/25 24/24/24 23/23/23
f 28/28/28 27/27/27 26/26/26
f 31/31/31 30/30/30 29/29/29
f 34/34/34 33/33/33 32/32/32
f 33/33/33 35/35/35 32/32/32
f 38/38/38 37/37/37 36/36/36
f 38/38/38 40/40/40 39/39/39
f 38/38/38 36/36/36 40/40/40
f 38/38/38 39/39/39 23/23/23
f 39/39/39 41/41/41 23/23/23
f 33/33/33 20/20/20 35/35/35
f 33/33/33 22/22/22 20/20/20
f 29/29/29 30/30/30 21/21/21
f 22/22/22 29/29/29 21/21/21
f 43/43/43 42/42/42 31/31/31
f 43/43/43 31/31/31 29/29/29
f 43/43/43 44/44/44 42/42/42
f 43/43/43 45/45/45 44/44/44
f 47/47/47 46/46/46 45/45/45
f 43/43/43 47/47/47 45/45/45
f 47/47/47 48/48/48 46/46/46
f 50/50/50 49/49/49 48/48/48
f 47/47/47 50/50/50 48/48/48
f 50/50/50 51/51/51 49/49/49
f 54/54/54 53/53/53 52/52/52
f 50/50/50 54/54/54 51/51/51
f 57/57/57 56/56/56 55/55/55
f 54/54/54 52/52/52 51/51/51
f 54/54/54 57/57/57 53/53/53
f 57/57/57 26/26/26 56/56/56
f 57/57/57 59/59/59 58/58/58
f 57/57/57 55/55/55 59/59/59
f 57/57/57 61/61/61 60/60/60
f 57/57/57 58/58/58 61/61/61
f 57/57/57 60/60/60 53/53/53
f 62/62/62 28/28/28 26/26/26
f 27/27/27 56/56/56 26/26/26
f 62/62/62 63/63/63 28/28/28
f 62/62/62 64/64/64 63/63/63
f 62/62/62 65/65/65 64/64/64
f 65/65/65 66/66/66 64/64/64
f 68/68/68 67/67/67 66/66/66
f 65/65/65 68/68/68 66/66/66
f 70/70/70 69/69/69 67/67/67
f 68/68/68 70/70/70 67/67/67
f 70/70/70 71/71/71 69/69/69
f 73/73/73 72/72/72 71/71/71
f 70/70/70 73/73/73 71/71/71
f 75/75/75 74/74/74 72/72/72
f 73/73/73 75/75/75 72/72/72
f 78/78/78 77/77/77 76/76/76
f 75/75/75 78/78/78 74/74/74
f 81/81/81 80/80/80 79/79/79
f 78/78/78 76/76/76 74/74/74
f 78/78/78 82/82/82 77/77/77
f 78/78/78 81/81/81 82/82/82
f 85/85/85 84/84/84 83/83/83
f 81/81/81 79/79/79 82/82/82
f 81/81/81 85/85/85 80/80/80
f 88/88/88 87/87/87 86/86/86
f 85/85/85 83/83/83 80/80/80
f 85/85/85 88/88/88 84/84/84
f 90/90/90 89/89/89 87/87/87
f 88/88/88 86/86/86 91/91/91
f 88/88/88 91/91/91 84/84/84
f 88/88/88 90/90/90 87/87/87
f 94/94/94 93/93/93 92/92/92
f 90/90/90 94/94/94 89/89/89
f 97/97/97 96/96/96 95/95/95
f 94/94/94 92/92/92 89/89/89
f 94/94/94 97/97/97 93/93/93
f 100/100/100 99/99/99 98/98/98
f 97/97/97 95/95/95 93/93/93
f 97/97/97 100/100/100 96/96/96
f 103/103/103 102/102/102 101/101/101
f 100/100/100 98/98/98 96/96/96
f 100/100/100 104/104/104 99/99/99
f 100/100/100 105/105/105 104/104/104
f 105/105/105 103/103/103 104/104/104
f 103/103/103 101/101/101 104/104/104
f 108/108/108 107/107/107 106/106/106
f 110/110/110 109/109/109 102/102/102
f 110/110/110 111/111/111 109/109/109
f 103/103/103 110/110/110 102/102/102
f 113/113/113 112/112/112 111/111/111
f 113/113/113 106/106/106 112/112/112
f 110/110/110 113/113/113 111/111/111
f 113/113/113 108/108/108 106/106/106
f 116/116/116 115/115/115 114/114/114
f 108/108/108 116/116/116 107/107/107
f 116/116/116 114/114/114 107/107/107
f 25/25/25 23/23/23 41/41/41
f 118/118/118 117/117/117 24/24/24
f 25/25/25 118/118/118 24/24/24
f 120/120/120 119/119/119 24/24/24
f 117/117/117 120/120/120 24/24/24
f 121/121/121 115/115/115 119/119/119
f 120/120/120 122/122/122 119/119/119
f 122/122/122 121/121/121 119/119/119
f 123/123/123 114/114/114 115/115/115
f 121/121/121 123/123/123 115/115/115
f 124/124/124 34/34/34 32/32/32
f 124/124/124 38/38/38 34/34/34
f 124/124/124 37/37/37 38/38/38
f 127/127/127 126/126/126 125/125/125
f 130/130/130 129/129/129 128/128/128
f 133/133/133 132/132/132 131/131/131
f 132/132/132 134/134/134 131/131/131
f 133/133/133 131/131/131 135/135/135
f 138/138/138 137/137/137 136/136/136
f 134/134/134 139/139/139 131/131/131
f 134/134/134 140/140/140 139/139/139
f 134/134/134 141/141/141 140/140/140
f 134/134/134 136/136/136 141/141/141
f 134/134/134 138/138/138 136/136/136
f 138/138/138 142/142/142 137/137/137
f 144/144/144 143/143/143 137/137/137
f 142/142/142 144/144/144 137/137/137
f 144/144/144 145/145/145 143/143/143
f 144/144/144 125/125/125 145/145/145
f 144/144/144 146/146/146 125/125/125
f 127/127/127 125/125/125 146/146/146
f 127/127/127 147/147/147 126/126/126
f 149/149/149 148/148/148 147/147/147
f 127/127/127 149/149/149 147/147/147
f 149/149/149 150/150/150 148/148/148
f 152/152/152 151/151/151 150/150/150
f 149/149/149 152/152/152 150/150/150
f 154/154/154 153/153/153 151/151/151
f 152/152/152 154/154/154 151/151/151
f 156/156/156 155/155/155 153/153/153
f 154/154/154 156/156/156 153/153/153
f 159/159/159 158/158/158 157/157/157
f 156/156/156 157/157/157 155/155/155
f 156/156/156 159/159/159 157/157/157
f 162/162/162 161/161/161 160/160/160
f 159/159/159 160/160/160 158/158/158
f 159/159/159 162/162/162 160/160/160
f 164/164/164 163/163/163 161/161/161
f 162/162/162 164/164/164 161/161/161
f 167/167/167 166/166/166 165/165/165
f 164/164/164 165/165/165 163/163/163
f 164/164/164 167/167/167 165/165/165
f 169/169/169 129/129/129 168/168/168
f 167/167/167 170/170/170 166/166/166
f 170/170/170 171/171/171 166/166/166
f 170/170/170 172/172/172 171/171/171
f 170/170/170 169/169/169 172/172/172
f 169/169/169 168/168/168 172/172/172
f 169/169/169 128/128/128 129/129/129
f 174/174/174 173/173/173 130/130/130
f 174/174/174 130/130/130 128/128/128
f 174/174/174 175/175/175 173/173/173
f 174/174/174 176/176/176 175/175/175
f 179/179/179 178/178/178 177/177/177
f 179/179/179 180/180/180 178/178/178
f 180/180/180 182/182/182 181/181/181
f 180/180/180 183/183/183 178/178/178
f 180/180/180 181/181/181 183/183/183
f 186/186/186 185/185/185 184/184/184
f 182/182/182 187/187/187 181/181/181
f 182/182/182 188/188/188 187/187/187
f 182/182/182 186/186/186 188/188/188
f 186/186/186 189/189/189 188/188/188
f 186/186/186 184/184/184 189/189/189
f 191/191/191 133/133/133 190/190/190
f 185/185/185 192/192/192 184/184/184
f 185/185/185 193/193/193 192/192/192
f 133/133/133 135/135/135 190/190/190
f 185/185/185 191/191/191 193/193/193
f 191/191/191 190/190/190 194/194/194
f 191/191/191 194/194/194 193/193/193
f 197/197/197 196/196/196 195/195/195
f 198/198/198 197/197/197 195/195/195
f 198/198/198 200/200/200 199/199/199
f 198/198/198 195/195/195 200/200/200
f 203/203/203 202/202/202 201/201/201
f 202/202/202 198/198/198 201/201/201
f 205/205/205 204/204/204 201/201/201
f 204/204/204 203/203/203 201/201/201
f 207/207/207 201/201/201 206/206/206
f 208/208/208 205/205/205 201/201/201
f 207/207/207 208/208/208 201/201/201
f 210/210/210 209/209/209 207/207/207
f 210/210/210 207/207/207 206/206/206
f 212/212/212 211/211/211 207/207/207
f 209/209/209 212/212/212 207/207/207
f 211/211/211 213/213/213 207/207/207
f 198/198/198 199/199/199 201/201/201
g cPK_10_002450_00_MEWex_RR_L_SB_1
f 216/216/216 215/215/215 214/214/214
f 219/219/219 218/218/218 217/217/217
f 219/219/219 217/217/217 220/220/220
f 219/219/219 221/221/221 218/218/218
f 219/219/219 222/222/222 221/221/221
f 222/222/222 223/223/223 221/221/221
f 224/224/224 219/219/219 220/220/220
f 226/226/226 225/225/225 219/219/219
f 215/215/215 228/228/228 227/227/227
f 226/226/226 214/214/214 225/225/225
f 214/214/214 215/215/215 225/225/225
f 215/215/215 227/227/227 225/225/225
f 230/230/230 229/229/229 228/228/228
f 215/215/215 216/216/216 228/228/228
f 216/216/216 230/230/230 228/228/228
f 232/232/232 231/231/231 229/229/229
f 230/230/230 233/233/233 229/229/229
f 234/234/234 232/232/232 229/229/229
f 233/233/233 234/234/234 229/229/229
f 236/236/236 235/235/235 231/231/231
f 232/232/232 236/236/236 231/231/231
f 238/238/238 237/237/237 235/235/235
f 236/236/236 238/238/238 235/235/235
f 240/240/240 239/239/239 237/237/237
f 238/238/238 240/240/240 237/237/237
f 240/240/240 241/241/241 239/239/239
f 243/243/243 242/242/242 239/239/239
f 241/241/241 243/243/243 239/239/239
f 242/242/242 244/244/244 239/239/239
f 242/242/242 245/245/245 244/244/244
f 247/247/247 246/246/246 244/244/244
f 245/245/245 247/247/247 244/244/244
f 249/249/249 248/248/248 246/246/246
f 247/247/247 249/249/249 246/246/246
f 248/248/248 250/250/250 246/246/246
f 250/250/250 251/251/251 246/246/246
f 250/250/250 252/252/252 251/251/251
f 254/254/254 253/253/253 252/252/252
f 250/250/250 254/254/254 252/252/252
f 253/253/253 255/255/255 252/252/252
f 255/255/255 256/256/256 252/252/252
f 258/258/258 257/257/257 256/256/256
f 255/255/255 258/258/258 256/256/256
f 257/257/257 259/259/259 256/256/256
f 257/257/257 260/260/260 259/259/259
f 260/260/260 262/262/262 261/261/261
f 260/260/260 263/263/263 259/259/259
f 265/265/265 264/264/264 261/261/261
f 260/260/260 261/261/261 263/263/263
f 262/262/262 266/266/266 261/261/261
f 266/266/266 265/265/265 261/261/261
f 264/264/264 222/222/222 261/261/261
f 264/264/264 223/223/223 222/222/222
f 224/224/224 226/226/226 219/219/219
f 216/216/216 214/214/214 226/226/226
f 269/269/269 268/268/268 267/267/267
f 272/272/272 271/271/271 270/270/270
f 275/275/275 274/274/274 273/273/273
f 275/275/275 276/276/276 274/274/274
f 277/277/277 275/275/275 273/273/273
f 275/275/275 278/278/278 276/276/276
f 275/275/275 279/279/279 278/278/278
f 275/275/275 272/272/272 279/279/279
f 272/272/272 270/270/270 279/279/279
f 277/277/277 281/281/281 280/280/280
f 277/277/277 273/273/273 282/282/282
f 277/277/277 282/282/282 283/283/283
f 277/277/277 283/283/283 281/281/281
f 284/284/284 277/277/277 280/280/280
f 284/284/284 286/286/286 285/285/285
f 284/284/284 280/280/280 287/287/287
f 284/284/284 287/287/287 288/288/288
f 284/284/284 288/288/288 286/286/286
f 289/289/289 284/284/284 285/285/285
f 289/289/289 269/269/269 267/267/267
f 289/289/289 285/285/285 290/290/290
f 289/289/289 290/290/290 269/269/269
f 292/292/292 291/291/291 271/271/271
f 272/272/272 292/292/292 271/271/271
f 294/294/294 293/293/293 291/291/291
f 292/292/292 294/294/294 291/291/291
f 294/294/294 295/295/295 293/293/293
f 297/297/297 296/296/296 295/295/295
f 294/294/294 297/297/297 295/295/295
f 297/297/297 298/298/298 296/296/296
f 298/298/298 299/299/299 296/296/296
f 301/301/301 300/300/300 299/299/299
f 298/298/298 301/301/301 299/299/299
f 303/303/303 302/302/302 300/300/300
f 301/301/301 303/303/303 300/300/300
f 305/305/305 304/304/304 302/302/302
f 303/303/303 305/305/305 302/302/302
f 305/305/305 306/306/306 304/304/304
f 309/309/309 308/308/308 307/307/307
f 305/305/305 307/307/307 306/306/306
f 305/305/305 309/309/309 307/307/307
f 309/309/309 310/310/310 308/308/308
f 309/309/309 311/311/311 310/310/310
f 313/313/313 312/312/312 311/311/311
f 309/309/309 314/314/314 311/311/311
f 314/314/314 313/313/313 311/311/311
f 317/317/317 316/316/316 315/315/315
f 313/313/313 315/315/315 312/312/312
f 313/313/313 317/317/317 315/315/315
f 320/320/320 319/319/319 318/318/318
f 317/317/317 318/318/318 316/316/316
f 317/317/317 320/320/320 318/318/318
f 323/323/323 322/322/322 321/321/321
f 320/320/320 324/324/324 319/319/319
f 324/324/324 325/325/325 319/319/319
f 325/325/325 326/326/326 319/319/319
f 326/326/326 327/327/327 319/319/319
f 326/326/326 328/328/328 327/327/327
f 328/328/328 321/321/321 327/327/327
f 328/328/328 323/323/323 321/321/321
f 330/330/330 329/329/329 322/322/322
f 323/323/323 330/330/330 322/322/322
f 332/332/332 331/331/331 329/329/329
f 330/330/330 332/332/332 329/329/329
f 334/334/334 333/333/333 331/331/331
f 332/332/332 334/334/334 331/331/331
f 336/336/336 335/335/335 333/333/333
f 334/334/334 336/336/336 333/333/333
f 338/338/338 337/337/337 335/335/335
f 336/336/336 338/338/338 335/335/335
f 340/340/340 339/339/339 337/337/337
f 338/338/338 340/340/340 337/337/337
f 342/342/342 341/341/341 339/339/339
f 340/340/340 342/342/342 339/339/339
f 267/267/267 268/268/268 343/343/343
f 342/342/342 343/343/343 341/341/341
f 342/342/342 267/267/267 343/343/343
f 346/346/346 345/345/345 344/344/344
f 176/176/176 347/347/347 175/175/175
f 350/350/350 349/349/349 348/348/348
f 176/176/176 348/348/348 347/347/347
f 176/176/176 350/350/350 348/348/348
f 350/350/350 351/351/351 349/349/349
f 354/354/354 353/353/353 352/352/352
f 350/350/350 355/355/355 351/351/351
f 355/355/355 352/352/352 351/351/351
f 355/355/355 354/354/354 352/352/352
f 357/357/357 356/356/356 353/353/353
f 354/354/354 357/357/357 353/353/353
f 360/360/360 359/359/359 358/358/358
f 357/357/357 358/358/358 356/356/356
f 357/357/357 360/360/360 358/358/358
f 363/363/363 362/362/362 361/361/361
f 360/360/360 364/364/364 359/359/359
f 360/360/360 363/363/363 364/364/364
f 363/363/363 361/361/361 364/364/364
f 365/365/365 345/345/345 361/361/361
f 362/362/362 365/365/365 361/361/361
f 365/365/365 366/366/366 345/345/345
f 345/345/345 366/366/366 344/344/344
f 367/367/367 346/346/346 344/344/344
f 367/367/367 344/344/344 368/368/368
f 370/370/370 369/369/369 368/368/368
f 369/369/369 367/367/367 368/368/368
f 370/370/370 368/368/368 371/371/371
f 372/372/372 370/370/370 371/371/371
f 373/373/373 372/372/372 371/371/371
f 373/373/373 371/371/371 374/374/374
f 375/375/375 373/373/373 374/374/374
f 377/377/377 374/374/374 376/376/376
f 377/377/377 375/375/375 374/374/374
f 378/378/378 377/377/377 376/376/376
f 379/379/379 378/378/378 376/376/376
f 179/179/179 379/379/379 376/376/376
f 179/179/179 177/177/177 379/379/379
g cPK_10_002450_00_MEWex_RR_L_SB_2
f 216/216/216 226/226/226 224/224/224
f 230/230/230 216/216/216 224/224/224
f 234/234/234 233/233/233 230/230/230
f 232/232/232 234/234/234 230/230/230
f 236/236/236 232/232/232 230/230/230
f 236/236/236 230/230/230 224/224/224
f 217/217/217 224/224/224 220/220/220
f 217/217/217 218/218/218 224/224/224
f 218/218/218 221/221/221 236/236/236
f 218/218/218 236/236/236 224/224/224
f 221/221/221 223/223/223 236/236/236
f 223/223/223 264/264/264 236/236/236
f 264/264/264 265/265/265 242/242/242
f 264/264/264 238/238/238 236/236/236
f 264/264/264 240/240/240 238/238/238
f 264/264/264 241/241/241 240/240/240
f 264/264/264 243/243/243 241/241/241
f 264/264/264 242/242/242 243/243/243
f 265/265/265 266/266/266 242/242/242
f 266/266/266 262/262/262 242/242/242
f 262/262/262 260/260/260 242/242/242
f 260/260/260 257/257/257 258/258/258
f 260/260/260 245/245/245 242/242/242
f 260/260/260 247/247/247 245/245/245
f 260/260/260 249/249/249 247/247/247
f 260/260/260 248/248/248 249/249/249
f 260/260/260 250/250/250 248/248/248
f 260/260/260 254/254/254 250/250/250
f 260/260/260 253/253/253 254/254/254
f 260/260/260 255/255/255 253/253/253
f 260/260/260 258/258/258 255/255/255
f 300/300/300 310/310/310 311/311/311
f 306/306/306 307/307/307 308/308/308
f 304/304/304 306/306/306 308/308/308
f 302/302/302 304/304/304 308/308/308
f 300/300/300 302/302/302 308/308/308
f 300/300/300 308/308/308 310/310/310
f 300/300/300 312/312/312 315/315/315
f 300/300/300 311/311/311 312/312/312
f 300/300/300 315/315/315 316/316/316
f 300/300/300 318/318/318 319/319/319
f 300/300/300 316/316/316 318/318/318
f 293/293/293 295/295/295 333/333/333
f 299/299/299 300/300/300 319/319/319
f 299/299/299 319/319/319 327/327/327
f 299/299/299 327/327/327 321/321/321
f 296/296/296 299/299/299 321/321/321
f 295/295/295 296/296/296 321/321/321
f 295/295/295 321/321/321 322/322/322
f 295/295/295 322/322/322 329/329/329
f 295/295/295 329/329/329 331/331/331
f 295/295/295 331/331/331 333/333/333
f 291/291/291 333/333/333 335/335/335
f 291/291/291 293/293/293 333/333/333
f 291/291/291 335/335/335 337/337/337
f 291/291/291 339/339/339 341/341/341
f 291/291/291 337/337/337 339/339/339
f 291/291/291 343/343/343 268/268/268
f 291/291/291 341/341/341 343/343/343
f 269/269/269 278/278/278 268/268/268
f 271/271/271 291/291/291 268/268/268
f 270/270/270 271/271/271 268/268/268
f 279/279/279 270/270/270 268/268/268
f 278/278/278 279/279/279 268/268/268
f 269/269/269 290/290/290 278/278/278
f 290/290/290 285/285/285 278/278/278
f 281/281/281 283/283/283 282/282/282
f 285/285/285 276/276/276 278/278/278
f 285/285/285 274/274/274 276/276/276
f 285/285/285 273/273/273 274/274/274
f 285/285/285 282/282/282 273/273/273
f 285/285/285 286/286/286 282/282/282
f 286/286/286 288/288/288 282/282/282
f 288/288/288 287/287/287 282/282/282
f 287/287/287 280/280/280 282/282/282
f 280/280/280 281/281/281 282/282/282
f 379/379/379 177/177/177 347/347/347
f 177/177/177 175/175/175 347/347/347
f 377/377/377 378/378/378 348/348/348
f 379/379/379 347/347/347 348/348/348
f 378/378/378 379/379/379 348/348/348
f 375/375/375 377/377/377 349/349/349
f 377/377/377 348/348/348 349/349/349
f 373/373/373 375/375/375 351/351/351
f 375/375/375 349/349/349 351/351/351
f 372/372/372 373/373/373 352/352/352
f 373/373/373 351/351/351 352/352/352
f 370/370/370 372/372/372 353/353/353
f 372/372/372 352/352/352 353/353/353
f 367/367/367 369/369/369 358/358/358
f 370/370/370 353/353/353 356/356/356
f 369/369/369 370/370/370 356/356/356
f 369/369/369 356/356/356 358/358/358
f 346/346/346 367/367/367 359/359/359
f 367/367/367 358/358/358 359/359/359
f 346/346/346 364/364/364 345/345/345
f 346/346/346 359/359/359 364/364/364
f 364/364/364 361/361/361 345/345/345
g cPK_10_002450_00_MEWex_RR_L_SB_3
f 69/69/69 59/59/59 67/67/67
f 63/63/63 64/64/64 66/66/66
f 28/28/28 63/63/63 66/66/66
f 27/27/27 28/28/28 66/66/66
f 56/56/56 27/27/27 66/66/66
f 55/55/55 56/56/56 66/66/66
f 59/59/59 55/55/55 66/66/66
f 59/59/59 66/66/66 67/67/67
f 69/69/69 71/71/71 59/59/59
f 71/71/71 72/72/72 59/59/59
f 72/72/72 74/74/74 60/60/60
f 72/72/72 58/58/58 59/59/59
f 72/72/72 61/61/61 58/58/58
f 72/72/72 60/60/60 61/61/61
f 74/74/74 76/76/76 60/60/60
f 76/76/76 77/77/77 60/60/60
f 77/77/77 82/82/82 60/60/60
f 82/82/82 79/79/79 46/46/46
f 82/82/82 53/53/53 60/60/60
f 82/82/82 52/52/52 53/53/53
f 82/82/82 51/51/51 52/52/52
f 82/82/82 49/49/49 51/51/51
f 82/82/82 48/48/48 49/49/49
f 82/82/82 46/46/46 48/48/48
f 79/79/79 80/80/80 46/46/46
f 83/83/83 84/84/84 42/42/42
f 80/80/80 83/83/83 46/46/46
f 380/380/380 45/45/45 46/46/46
f 83/83/83 380/380/380 46/46/46
f 380/380/380 44/44/44 45/45/45
f 83/83/83 42/42/42 44/44/44
f 380/380/380 83/83/83 44/44/44
f 84/84/84 91/91/91 42/42/42
f 91/91/91 86/86/86 42/42/42
f 41/41/41 21/21/21 30/30/30
f 86/86/86 31/31/31 42/42/42
f 86/86/86 30/30/30 31/31/31
f 25/25/25 41/41/41 30/30/30
f 39/39/39 40/40/40 21/21/21
f 41/41/41 39/39/39 21/21/21
f 40/40/40 36/36/36 20/20/20
f 40/40/40 20/20/20 21/21/21
f 36/36/36 37/37/37 20/20/20
f 37/37/37 124/124/124 20/20/20
f 124/124/124 32/32/32 20/20/20
f 32/32/32 35/35/35 20/20/20
f 99/99/99 107/107/107 114/114/114
f 99/99/99 114/114/114 123/123/123
f 99/99/99 106/106/106 107/107/107
f 99/99/99 112/112/112 106/106/106
f 99/99/99 111/111/111 112/112/112
f 104/104/104 101/101/101 102/102/102
f 99/99/99 109/109/109 111/111/111
f 99/99/99 102/102/102 109/109/109
f 99/99/99 104/104/104 102/102/102
f 87/87/87 122/122/122 86/86/86
f 89/89/89 121/121/121 122/122/122
f 98/98/98 99/99/99 123/123/123
f 89/89/89 123/123/123 121/121/121
f 96/96/96 98/98/98 123/123/123
f 95/95/95 96/96/96 123/123/123
f 93/93/93 95/95/95 123/123/123
f 92/92/92 93/93/93 123/123/123
f 89/89/89 92/92/92 123/123/123
f 87/87/87 89/89/89 122/122/122
f 122/122/122 120/120/120 86/86/86
f 118/118/118 25/25/25 30/30/30
f 117/117/117 118/118/118 30/30/30
f 117/117/117 30/30/30 120/120/120
f 30/30/30 86/86/86 120/120/120
f 143/143/143 145/145/145 126/126/126
f 145/145/145 125/125/125 126/126/126
f 137/137/137 143/143/143 126/126/126
f 137/137/137 147/147/147 148/148/148
f 137/137/137 126/126/126 147/147/147
f 136/136/136 137/137/137 151/151/151
f 137/137/137 148/148/148 150/150/150
f 137/137/137 150/150/150 151/151/151
f 141/141/141 136/136/136 155/155/155
f 136/136/136 151/151/151 153/153/153
f 136/136/136 153/153/153 155/155/155
f 140/140/140 141/141/141 155/155/155
f 139/139/139 140/140/140 157/157/157
f 140/140/140 155/155/155 157/157/157
f 131/131/131 139/139/139 158/158/158
f 139/139/139 157/157/157 158/158/158
f 193/193/193 160/160/160 161/161/161
f 131/131/131 158/158/158 160/160/160
f 135/135/135 131/131/131 160/160/160
f 190/190/190 135/135/135 160/160/160
f 194/194/194 190/190/190 160/160/160
f 193/193/193 194/194/194 160/160/160
f 184/184/184 192/192/192 166/166/166
f 193/193/193 161/161/161 163/163/163
f 192/192/192 193/193/193 163/163/163
f 192/192/192 163/163/163 165/165/165
f 192/192/192 165/165/165 166/166/166
f 181/181/181 187/187/187 168/168/168
f 189/189/189 184/184/184 166/166/166
f 189/189/189 166/166/166 171/171/171
f 189/189/189 171/171/171 172/172/172
f 188/188/188 189/189/189 172/172/172
f 187/187/187 188/188/188 172/172/172
f 187/187/187 172/172/172 168/168/168
f 178/178/178 183/183/183 130/130/130
f 181/181/181 168/168/168 129/129/129
f 183/183/183 181/181/181 129/129/129
f 183/183/183 129/129/129 130/130/130
f 177/177/177 178/178/178 175/175/175
f 178/178/178 130/130/130 173/173/173
f 178/178/178 173/173/173 175/175/175
