g cPK_20_001290_02_MEWTWOex_UR_L_SB
v 0.015541919 0.3620619 -0.06121983
v 0.012670455 0.3595269 -0.06121983
v 0.019370621 0.3620619 -0.061219823
v 0.011471299 0.35652995 -0.06121983
v 0.012501761 0.35141867 -0.06121983
v 0.03222383 0.35836458 -0.06121983
v 0.01650014 0.3418967 -0.06121983
v 0.042615794 0.3541941 -0.06121983
v 0.01728338 0.33662054 -0.06121983
v 0.04979444 0.350092 -0.06121983
v 0.054306775 0.34551132 -0.06121983
v 0.05690477 0.33963162 -0.06121983
v 0.059024192 0.33149585 -0.06121983
v 0.016211668 0.32631546 -0.06121983
v 0.060938556 0.3224028 -0.06121983
v 0.013491044 0.31617522 -0.06121983
v 0.06442534 0.3118057 -0.06121983
v 0.009987294 0.3090853 -0.06121983
v 0.0044225506 0.30269614 -0.06121983
v -0.0020077706 0.29362765 -0.06121983
v 0.12484095 0.2754065 -0.061219823
v 0.12333192 0.28015363 -0.06121983
v 0.12338465 0.27112132 -0.06121983
v 0.119934015 0.2836014 -0.06121983
v 0.115237 0.28580004 -0.06121983
v 0.10784161 0.2854003 -0.06121983
v 0.119015336 0.2601155 -0.06121983
v 0.103494346 0.28410116 -0.06121983
v 0.11843816 0.25784838 -0.06121983
v 0.08958393 0.17202745 -0.06121983
v 0.090861715 0.17643805 -0.06121983
v 0.08583287 0.16736965 -0.06121983
v 0.07367283 0.16089152 -0.061219823
v 0.08080394 0.16361855 -0.06121983
v 0.068932556 0.16089152 -0.061219823
v 0.045189552 0.16584444 -0.06121983
v 0.053804595 0.16361855 -0.06121983
v 0.03603863 0.17140917 -0.06121983
v -0.012725082 0.20694113 -0.06121983
v -0.008355754 0.20269541 -0.06121983
v -0.019691307 0.21897757 -0.06121983
v 0.07228773 0.30818215 -0.06121983
v 0.08097048 0.30346477 -0.06121983
v -0.0092626065 0.28324008 -0.06121983
v 0.08965325 0.29758504 -0.06121983
v 0.09734822 0.29049706 -0.06121983
v -0.015569317 0.27285254 -0.06121983
v -0.019897465 0.26411384 -0.06121983
v -0.023112625 0.2549217 -0.06121983
v -0.025460174 0.24494636 -0.061219823
v -0.025460174 0.24201973 -0.061219823
v -0.023978297 0.23126124 -0.06121983
v 0.0053293793 0.19403921 -0.06121983
v 0.019179491 0.18447609 -0.06121983
v 0.119633555 0.25405607 -0.06121983
v 0.12115877 0.2483264 -0.06121983
v 0.1219007 0.24239074 -0.06121983
v 0.12214803 0.21584475 -0.06121983
v 0.028660206 0.17722127 -0.06121983
v 0.120993905 0.2101564 -0.06121983
v 0.11872675 0.20541604 -0.06121983
v 0.11592376 0.20166497 -0.06121983
v 0.111925386 0.19762532 -0.06121983
v 0.1064018 0.19370948 -0.06121983
v 0.097827934 0.18756764 -0.06121983
v 0.0954372 0.18501191 -0.06121983
v 0.09172738 0.18027157 -0.06121983
v 0.12252587 0.051367283 -0.045383632
v 0.118222274 0.107827686 -0.045383632
v 0.11674348 0.052346706 -0.045383632
v 0.10987019 0.054583192 -0.045383632
v 0.1019058 0.059329104 -0.045383632
v 0.085486315 0.0709482 -0.045383632
v 0.11138021 0.1143019 -0.045383632
v 0.06252072 0.087258674 -0.045383632
v 0.09556248 0.12769173 -0.045383632
v 0.0762133 0.14152308 -0.045383632
v 0.04386454 0.098768786 -0.045383632
v 0.060248483 0.15344158 -0.045383632
v 0.027554153 0.10880597 -0.045383632
v 0.020353455 0.11742487 -0.045383632
v 0.017482657 0.127353 -0.045383632
v 0.017482657 0.13253534 -0.045383632
v 0.020189855 0.14295433 -0.045383632
v 0.025099352 0.15010034 -0.045383632
v 0.03311824 0.15762831 -0.045383632
v 0.052701738 0.15784653 -0.045383632
v 0.04391914 0.15953752 -0.045383632
v 0.12513791 0.11496396 -0.04538363
v 0.12994458 0.05360129 -0.04538363
v 0.13785787 0.058401704 -0.045383614
v 0.14694682 0.06669328 -0.045383602
v 0.13243137 0.12171767 -0.045383625
v 0.14301436 0.13151741 -0.04538361
v 0.15151988 0.071567826 -0.0453836
v 0.1564145 0.076785065 -0.04538359
v 0.16615264 0.087695055 -0.04538358
v 0.17583667 0.09898696 -0.04538357
v 0.1567318 0.14255309 -0.04538359
v 0.18573713 0.10967877 -0.045383554
v 0.19336541 0.11617024 -0.045383543
v 0.16213118 0.14829159 -0.045383584
v 0.20678242 0.12549834 -0.045383524
v 0.16483085 0.15241157 -0.04538358
v 0.2212274 0.13700834 -0.04538351
v 0.16446604 0.17565987 -0.045383584
v 0.23064093 0.14311793 -0.045383494
v 0.23734942 0.14737283 -0.04538349
v 0.24189392 0.15293702 -0.045383483
v 0.24394973 0.15784653 -0.04538348
v 0.24597183 0.16422884 -0.04538348
v 0.24597184 0.16675206 -0.04538348
v 0.2445292 0.1749377 -0.04538348
v 0.24034703 0.18203193 -0.045383483
v 0.23532847 0.18684413 -0.04538349
v 0.23045745 0.18957269 -0.045383494
v 0.16315271 0.18279622 -0.045383584
v 0.23065427 0.20897038 -0.045383494
v 0.15906666 0.18927054 -0.04538359
v 0.15395908 0.18912333 -0.045383595
v 0.14717335 0.19206618 -0.045383602
v 0.13688533 0.20854607 -0.045383617
v 0.14038761 0.19890825 -0.045383614
v 0.13805275 0.21987596 -0.045383614
v 0.14274545 0.22818397 -0.04538361
v 0.15104553 0.23398511 -0.0453836
v 0.19316235 0.24057224 -0.045383543
v 0.1876026 0.23203926 -0.04538355
v 0.20177269 0.24593012 -0.04538353
v 0.16745691 0.23469844 -0.04538358
v 0.16024159 0.23555434 -0.045383587
v 0.1743894 0.23084684 -0.04538357
v 0.18228872 0.21869402 -0.045383558
v 0.17889385 0.22583798 -0.04538356
v 0.18278074 0.21006179 -0.045383558
v 0.19099744 0.2067875 -0.04538355
v 0.19537643 0.20326519 -0.045383543
v 0.1875534 0.21358421 -0.045383554
v 0.21131802 0.24774885 -0.04538352
v 0.21776338 0.24637663 -0.045383513
v 0.2294734 0.23789325 -0.045383494
v 0.22356915 0.24310236 -0.04538351
v 0.23286836 0.23069973 -0.04538349
v 0.23350792 0.21437795 -0.04538349
v 0.23434444 0.22271247 -0.04538349
v 0.18607736 0.224052 -0.045383554
v 0.18100949 0.20336448 -0.04538356
v 0.18676607 0.200487 -0.045383554
v 0.19178477 0.19999091 -0.045383547
v 0.015010404 0.22580877 -0.049131773
v 0.01998551 0.22795486 -0.049131773
v 0.007596493 0.22766219 -0.049131773
v 0.023523808 0.23206607 -0.049131773
v 0.025129987 0.24001446 -0.04913177
v 0.022926211 0.24856067 -0.049131773
v 0.018623209 0.25549316 -0.049131773
v 0.012228608 0.26069257 -0.049131773
v 0.006476617 0.26223284 -0.04913177
v -0.006365109 0.2599415 -0.049131773
v 8.509159E-05 0.22717448 -0.049131773
v -0.022066593 0.2523088 -0.049131773
v -0.008987188 0.22249198 -0.049131773
v -0.034133505 0.24322227 -0.049131773
v -0.016791297 0.21390748 -0.049131773
v -0.043147396 0.23282729 -0.049131773
v -0.049617004 0.21807078 -0.049131773
v -0.020612812 0.20527688 -0.049131773
v -0.053190734 0.20033388 -0.04913177
v -0.021121597 0.19604497 -0.049131773
v -0.053190734 0.1887031 -0.04913177
v -0.019522404 0.18630427 -0.049131773
v -0.047799706 0.16035317 -0.049131773
v -0.01559701 0.17721777 -0.049131773
v -0.04263849 0.14283428 -0.049131773
v -0.010944701 0.17256537 -0.049131773
v -0.0045478106 0.16253386 -0.049131773
v -0.0030940056 0.15272048 -0.049131773
v -0.004402399 0.14268897 -0.049131773
v -0.03733201 0.13454737 -0.049131773
v -0.028245497 0.12858668 -0.049131773
v -0.0073827985 0.13483816 -0.049131773
v -0.013416195 0.12873197 -0.049131773
v -0.020394707 0.12631766 -0.04913177
v -0.13625279 0.1668253 -0.055951715
v -0.14786713 0.16408741 -0.055951733
v -0.1356966 0.120416455 -0.055951715
v -0.14731942 0.11865535 -0.055951733
v -0.1658973 0.16408741 -0.055951763
v -0.1577723 0.11596928 -0.05595175
v -0.1895418 0.1665883 -0.05595181
v -0.15850261 0.11495042 -0.05595175
v -0.2057917 0.16640306 -0.055951834
v -0.16110449 0.050391413 -0.055951755
v -0.15325342 0.054327942 -0.055951744
v -0.16973154 0.049511507 -0.055951774
v -0.22231548 0.061135817 -0.055951864
v -0.22085476 0.071509674 -0.05595186
v -0.2272909 0.05247548 -0.05595187
v -0.14362215 0.0919796 -0.055951726
v -0.14731942 0.09855588 -0.055951733
v -0.1418876 0.08461604 -0.055951726
v -0.14133982 0.07683561 -0.055951726
v -0.14293738 0.068360426 -0.055951726
v -0.14686292 0.06104319 -0.055951733
v -0.17813034 0.05062301 -0.055951785
v -0.18552494 0.05414269 -0.0559518
v -0.19908176 0.07364004 -0.055951823
v -0.19584087 0.065489106 -0.055951815
v -0.20017727 0.08253198 -0.055951823
v -0.22560191 0.08892298 -0.05595187
v -0.22948182 0.093971014 -0.055951875
v -0.22226982 0.08114257 -0.055951864
v -0.24134977 0.043398287 -0.055951893
v -0.23409203 0.046917967 -0.055951882
v -0.2495203 0.042425755 -0.055951905
v -0.2580105 0.043259338 -0.055951923
v -0.2653138 0.04617701 -0.055951934
v -0.27649698 0.056689788 -0.055951953
v -0.2716585 0.050900817 -0.05595195
v -0.27928135 0.06294196 -0.05595196
v -0.28078774 0.07831752 -0.055951964
v -0.28078774 0.07090767 -0.055951964
v -0.27855107 0.086097956 -0.05595196
v -0.27859673 0.094711974 -0.05595196
v -0.27211502 0.09614771 -0.05595195
v -0.2885019 0.095406726 -0.05595198
v -0.29767665 0.09897273 -0.05595199
v -0.30374756 0.10420604 -0.055952
v -0.30812952 0.11068969 -0.055952013
v -0.31139323 0.11981316 -0.055952013
v -0.31139323 0.12824193 -0.055952013
v -0.30876863 0.13759692 -0.055952013
v -0.29767665 0.15098117 -0.05595199
v -0.30429527 0.14468269 -0.055952
v -0.28950608 0.1551492 -0.05595198
v -0.15265994 0.10420604 -0.055951744
v -0.15708764 0.10721631 -0.05595175
v -0.191185 0.059051752 -0.05595181
v -0.1989448 0.09193327 -0.055951823
v -0.19679943 0.097814895 -0.055951823
v -0.2754471 0.0919796 -0.055951953
v -0.27992046 0.15663122 -0.055951964
v -0.27174982 0.15644597 -0.05595195
v -0.2617078 0.15917836 -0.05595193
v -0.24874435 0.16070668 -0.055951905
v -0.22222419 0.16418004 -0.055951864
v -0.1944259 0.101519875 -0.055951815
v -0.15809186 0.11027282 -0.05595175
v -0.19670813 0.104854345 -0.055951823
v -0.22637789 0.09897273 -0.05595187
v -0.22153953 0.103603914 -0.05595186
v -0.2160163 0.10480805 -0.055951852
v -0.072297834 0.1752653 -0.055951644
v -0.0796012 0.175897 -0.055951644
v -0.07373346 0.121619344 -0.055951644
v -0.080092914 0.1201997 -0.055951644
v -0.09628742 0.17566541 -0.055951655
v -0.09660696 0.12036889 -0.055951655
v -0.10496012 0.17418349 -0.055951666
v -0.11879084 0.17094159 -0.055951685
v -0.10450987 0.120469116 -0.055951666
v -0.11817058 0.120642446 -0.055951685
v -0.06494698 0.17504202 -0.055951633
v -0.06465636 0.125139 -0.055951633
v -0.060025092 0.1750634 -0.055951633
v -0.14791004 -0.18062076 -0.055951633
v -0.1343348 -0.19568457 -0.055951633
v -0.07324674 -0.09481683 -0.055951633
v -0.12058566 -0.20644473 -0.055951633
v -0.10683652 -0.2155112 -0.055951633
v -0.09009851 -0.22348176 -0.055951633
v -0.071068875 -0.22975853 -0.055951633
v -0.06710949 -0.0944785 -0.055951633
v -0.051740438 -0.23334526 -0.055951633
v -0.028825214 -0.23518923 -0.055951633
v -0.0601507 -0.091917366 -0.055951633
v -0.023644308 -0.23518923 -0.055951633
v 0.0046509705 -0.23234887 -0.055951633
v -0.05502823 -0.08800303 -0.055951633
v 0.024676893 -0.22826405 -0.055951633
v 0.045400187 -0.22059241 -0.055951633
v -0.04995413 -0.08355712 -0.055951633
v 0.06642241 -0.21042998 -0.055951633
v 0.091276236 -0.1961275 -0.055951633
v -0.047489624 -0.07988447 -0.055951633
v 0.104799345 -0.18691136 -0.055951633
v -0.041738942 -0.06669172 -0.055951633
v 0.11799834 -0.17751005 -0.055951633
v 0.12647341 -0.16968332 -0.055951633
v 0.132494 -0.16333862 -0.055951633
v 0.13758834 -0.15592864 -0.055951633
v 0.14194159 -0.14875023 -0.055951633
v -0.036519866 -0.05001967 -0.055951633
v 0.14731386 -0.14004359 -0.055951633
v 0.1531955 -0.126891 -0.055951633
v 0.15564997 -0.11711917 -0.055951633
v 0.15731719 -0.10628215 -0.055951633
v 0.15788563 -0.07827915 -0.055951633
v 0.15708573 -0.07187229 -0.055951633
v 0.15449217 -0.05654302 -0.055951633
v 0.15111144 -0.042417895 -0.055951633
v -0.03357206 -0.037455197 -0.055951633
v 0.14694332 -0.02986735 -0.055951633
v 0.14180267 -0.017548298 -0.055951633
v 0.13480954 -0.0042104586 -0.055951633
v 0.12582508 0.011535646 -0.055951633
v 0.11660893 0.026123932 -0.055951633
v -0.03395863 -0.034555756 -0.055951633
v 0.10554042 0.0411753 -0.055951633
v 0.094981186 0.05358696 -0.055951633
v -0.035891585 -0.028805086 -0.055951633
v -0.03734131 -0.0201066 -0.055951633
v -0.037631277 -0.0038211446 -0.055951633
v -0.036954716 0.004442491 -0.055951633
v -0.034538463 0.012319423 -0.055951633
v -0.02956107 0.021404507 -0.055951633
v -0.024921825 0.028411536 -0.055951633
v -0.020620992 0.033437397 -0.055951633
v -0.015595153 0.038028173 -0.055951633
v 0.08937745 0.060672667 -0.055951633
v -0.013323883 0.04774156 -0.055951633
v 0.085348316 0.06775842 -0.055951633
v -0.012260751 0.058179736 -0.055951633
v 0.08368108 0.07414951 -0.055951633
v -0.012937287 0.064171985 -0.055951633
v 0.08335688 0.08128152 -0.055951633
v -0.01569176 0.0705992 -0.055951633
v 0.08456101 0.08933985 -0.055951633
v -0.019654468 0.07726803 -0.055951633
v -0.056783315 0.17636018 -0.055951633
v -0.024341991 0.08350189 -0.055951633
v -0.007044176 0.22336678 -0.055951633
v -0.008757714 0.22077337 -0.055951633
v -0.0002363002 0.22517295 -0.055951633
v -0.008665089 0.21785574 -0.055951633
v -0.0046822107 0.20887117 -0.055951633
v 0.019261047 0.22558986 -0.055951633
v -0.0024592197 0.20011817 -0.055951633
v 0.027643582 0.22359839 -0.055951633
v 0.036442872 0.2183188 -0.055951633
v -0.0019498384 0.19117995 -0.055951633
v 0.046538852 0.21058469 -0.055951633
v 0.050938506 0.20391575 -0.055951633
v 0.055060215 0.1982657 -0.055951633
v 0.055430766 0.19386612 -0.055951633
v 0.054597136 0.1918747 -0.055951633
v 0.04894712 0.18566886 -0.055951633
v 0.04450111 0.17788842 -0.055951633
v -0.0033392466 0.18539095 -0.055951633
v 0.043945406 0.17103425 -0.055951633
v 0.044130657 0.1612624 -0.055951633
v -0.052198347 0.18298276 -0.055951633
v 0.09113728 0.09489725 -0.055951633
v 0.094193906 0.10244608 -0.055951633
v 0.087432355 0.09119232 -0.055951633
v -0.034923986 0.08961775 -0.055951633
v -0.02888451 0.08939755 -0.055951633
v -0.041870788 0.092164874 -0.055951633
v -0.047242954 0.09549935 -0.055951633
v -0.053309854 0.101010464 -0.055951633
v -0.057616908 0.10707736 -0.055951633
v -0.061229225 0.11416302 -0.055951633
v -0.064100556 0.121341445 -0.055951633
v -0.047289256 0.18775289 -0.055951633
v -0.040944558 0.19145785 -0.055951633
v -0.032932572 0.19386612 -0.055951633
v -0.02556899 0.19432917 -0.055951633
v -0.01880744 0.19354188 -0.055951633
v -0.0126015935 0.19117995 -0.055951633
v -0.0072757523 0.18821597 -0.055951633
v 0.056449622 0.1579279 -0.055951633
v 0.045612596 0.16001193 -0.055951633
v 0.06432268 0.15533446 -0.055951633
v 0.07159361 0.15172212 -0.055951633
v 0.07844779 0.14732246 -0.055951633
v 0.08391268 0.1422282 -0.055951633
v 0.08854386 0.13602236 -0.055951633
v 0.09197099 0.1286588 -0.055951633
v 0.093869776 0.12148037 -0.055951633
v 0.094934866 0.11231055 -0.055951633
v -0.23087814 0.3201479 -0.04563056
v -0.23844495 0.31268388 -0.04563056
v -0.2164013 0.25214192 -0.04563056
v -0.22630356 0.25556394 -0.04563056
v -0.23583005 0.26212522 -0.04563056
v -0.24383774 0.30403814 -0.04563056
v -0.24701357 0.29039773 -0.04563056
v -0.24687436 0.28081688 -0.04563056
v -0.24333413 0.2710828 -0.04563056
v -0.1452328 0.117193274 -0.04574314
v -0.09123868 0.115871064 -0.045730114
v -0.13418144 0.14101206 -0.04569881
v -0.0820265 0.14126512 -0.045691993
v -0.12563105 0.16442716 -0.045664
v -0.07505305 0.16532692 -0.045665003
v -0.12247892 0.17809683 -0.04564953
v -0.07267724 0.17901388 -0.04565404
v -0.119772375 0.19489692 -0.045638017
v -0.07049748 0.19767207 -0.045645192
v -0.11987647 0.20718296 -0.045632448
v -0.07023545 0.21447389 -0.045634497
v -0.12133145 0.2194285 -0.04563056
v -0.07202916 0.23223439 -0.04563056
v -0.12445843 0.22951367 -0.04563056
v -0.07629777 0.25104854 -0.04563056
v -0.12825976 0.23633313 -0.04563056
v -0.08227752 0.26603904 -0.04563056
v -0.13183904 0.24146178 -0.04563056
v -0.088427804 0.2785203 -0.04563056
v -0.13693127 0.24595709 -0.04563056
v -0.096938185 0.29112944 -0.04563056
v -0.12419432 0.31374273 -0.04563056
v -0.15049358 0.25235718 -0.04563056
v -0.10926824 0.3035785 -0.04563056
v -0.15261844 0.32555073 -0.04563056
v -0.16370524 0.2555593 -0.04563056
v -0.1397373 0.3212782 -0.04563056
v -0.1826 0.33215967 -0.04563056
v -0.17674276 0.2556387 -0.04563056
v -0.16793166 0.32989812 -0.04563056
v -0.19899656 0.3311487 -0.04563056
v -0.21878476 0.3259051 -0.04563056
v -0.18949175 0.25325662 -0.04563056
v -0.20302983 0.25166985 -0.04563056
v -0.15380454 0.09587023 -0.04578368
v -0.09840793 0.09425577 -0.045767285
v -0.1690524 0.051945742 -0.045853287
v -0.11081716 0.052634995 -0.045835454
v -0.16073655 0.077625506 -0.045816123
v -0.10450735 0.076383896 -0.045798212
v -0.18127722 0.0034300499 -0.045884088
v -0.11650695 0.0041499785 -0.045880917
v -0.17672206 0.024572402 -0.04587779
v -0.11491033 0.026146764 -0.045866504
v -0.11619546 -0.022154788 -0.045884088
v -0.11698135 -0.014524114 -0.045884088
v -0.18448627 -0.02081575 -0.045884088
v -0.1860921 -0.06226016 -0.045884088
v -0.11184919 -0.04828065 -0.045884088
v -0.1859511 -0.04200842 -0.045884088
v -0.11506956 -0.03308667 -0.045884088
v -0.07179134 -0.09626266 -0.045884088
v -0.08171328 -0.09393419 -0.045884088
v -0.14640638 -0.18185711 -0.045884088
v -0.15612128 -0.16744749 -0.045884088
v -0.16409726 -0.15437494 -0.045884088
v -0.09045743 -0.0874972 -0.045884088
v -0.17233177 -0.13524243 -0.045884088
v -0.17877351 -0.11430847 -0.045884088
v -0.098485574 -0.07672962 -0.045884088
v -0.18354617 -0.09001594 -0.045884088
v -0.10624911 -0.06269195 -0.045884088
v -0.18373026 -0.16373897 -0.06291616
v -0.19157709 -0.17172185 -0.06291616
v -0.17467822 -0.15959507 -0.06291616
v -0.16534029 -0.15939336 -0.06291616
v -0.20347038 -0.19135615 -0.06291616
v -0.21183328 -0.213552 -0.06291616
v -0.22174077 -0.25012 -0.06291616
v -0.11897718 -0.21049307 -0.06291616
v -0.1220878 -0.20226328 -0.06291616
v -0.11901201 -0.22152613 -0.06291616
v -0.121783435 -0.23336421 -0.06291616
v -0.12529223 -0.24085227 -0.06291616
v -0.13162276 -0.24785061 -0.06291616
v -0.1406105 -0.2528708 -0.06291616
v -0.14881772 -0.25544357 -0.06291616
v -0.153647 -0.25587296 -0.06291616
v -0.18015878 -0.49590722 -0.06291616
v -0.17195605 -0.48745465 -0.06291616
v -0.1899804 -0.5002143 -0.06291616
v -0.19888498 -0.5008074 -0.06291616
v -0.1670904 -0.4779521 -0.06291616
v -0.2086834 -0.4990131 -0.06291616
v -0.21786991 -0.49414206 -0.06291616
v -0.22383122 -0.4874463 -0.06291616
v -0.22708116 -0.48032528 -0.06291616
v -0.22859831 -0.4728589 -0.06291616
v -0.16294341 -0.46520567 -0.06291616
v -0.16013381 -0.45001602 -0.06291616
v -0.15853252 -0.43440437 -0.06291616
v -0.15922599 -0.41769338 -0.06291616
v -0.16038994 -0.39558482 -0.06291616
v -0.16198823 -0.37209255 -0.06291616
v -0.16347621 -0.3495153 -0.06291616
v -0.16368864 -0.32198498 -0.06291616
v -0.2502655 -0.49453154 -0.06291616
v -0.24136391 -0.49001867 -0.06291616
v -0.26168752 -0.49579936 -0.06291616
v -0.23419027 -0.48240542 -0.06291616
v -0.275523 -0.49458012 -0.06291615
v -0.28272557 -0.49112973 -0.06291615
v -0.28891745 -0.48573288 -0.06291616
v -0.2945841 -0.47776762 -0.06291616
v -0.2981145 -0.46714255 -0.06291616
v -0.29935032 -0.45761657 -0.06291616
v -0.2977724 -0.44559965 -0.06291616
v -0.29332128 -0.43131503 -0.06291616
v -0.2879784 -0.41789255 -0.06291616
v -0.26059437 -0.3618641 -0.06291616
v -0.24838734 -0.33161637 -0.06291616
v -0.23520647 -0.29411596 -0.06291616
v -0.16170415 -0.30099285 -0.06291616
v -0.15869603 -0.27884525 -0.06291616
v -0.114783995 -0.19486912 -0.06291616
v -0.157048 -0.1466227 -0.06291616
v -0.10311526 -0.18483712 -0.06291616
v -0.1510513 -0.13296975 -0.06291616
v -0.09331776 -0.17859066 -0.06291616
v -0.14859156 -0.1176224 -0.06291616
v -0.07771257 -0.17262822 -0.06291616
v -0.14637123 -0.10368253 -0.06291616
v -0.1408171 -0.084598996 -0.06291616
v -0.060980596 -0.1675503 -0.06291616
v -0.13173896 -0.06383319 -0.06291616
v -0.047738206 -0.1636432 -0.06291616
v -0.118545495 -0.042647004 -0.06291616
v -0.03293432 -0.15755536 -0.06291616
v -0.014922703 -0.14800808 -0.06291616
v -0.10051447 -0.022256184 -0.06291616
v 0.0042695524 -0.13635594 -0.06291616
v -0.07882663 -0.0028561116 -0.06291616
v 0.017747749 -0.12584281 -0.06291616
v 0.027022576 -0.11745087 -0.06291616
v 0.035673905 -0.10712359 -0.06291616
v 0.044062614 -0.093913935 -0.06291616
v -0.053607453 0.01778779 -0.06291616
v 0.051849272 -0.07765956 -0.06291616
v 0.05759975 -0.061893728 -0.06291616
v -0.025204932 0.03690672 -0.06291616
v 0.062463105 -0.047425963 -0.06291616
v 0.06617607 -0.030684328 -0.06291616
v 0.068017974 -0.014252233 -0.06291616
v -0.0038644671 0.04831908 -0.06291616
v 0.06720499 0.00095350744 -0.06291616
v 0.06476172 0.015992714 -0.06291616
v 0.01387688 0.054714967 -0.06291616
v 0.061543595 0.025727415 -0.06291616
v 0.02685305 0.055021953 -0.06291616
v 0.03677043 0.052347995 -0.06291617
v 0.05733601 0.034836482 -0.06291616
v 0.04060806 0.05050955 -0.06291617
v 0.04995339 0.043693304 -0.06291616
v 0.27056715 -0.35956806 -0.03405304
v 0.27665895 -0.3510394 -0.03405304
v 0.2577742 -0.36419415 -0.034053035
v 0.2789739 -0.34129247 -0.03405304
v 0.2525672 -0.36419415 -0.034053035
v 0.22614776 -0.36045727 -0.03405304
v 0.21088552 -0.35687858 -0.03405304
v 0.27519688 -0.29365408 -0.03405304
v 0.2633787 -0.29255757 -0.03405304
v 0.28482202 -0.29938042 -0.03405304
v 0.2924978 -0.33130178 -0.03405304
v 0.29487488 -0.32167664 -0.034053035
v 0.2864059 -0.3380028 -0.03405304
v 0.29487488 -0.31729046 -0.034053035
v 0.29079208 -0.306447 -0.03405304
v 0.2503421 -0.29438516 -0.03405304
v 0.23913307 -0.2960908 -0.03405304
v 0.21671502 -0.29572535 -0.03405304
v 0.19962296 -0.3537208 -0.03405304
v 0.19130771 -0.35056314 -0.03405304
v 0.20538417 -0.2912174 -0.03405304
v 0.18341343 -0.3464581 -0.03405304
v 0.17509818 -0.34066904 -0.03405304
v 0.16562502 -0.33224848 -0.03405304
v 0.19673379 -0.28390712 -0.03405304
v 0.15541516 -0.32214388 -0.03405304
v 0.14110026 -0.3066711 -0.03405304
v 0.18491553 -0.26916483 -0.03405304
v 0.12531167 -0.2899352 -0.03405304
v 0.17626508 -0.25271687 -0.03405304
v 0.11299669 -0.2771992 -0.03405304
v 0.17370652 -0.24028943 -0.03405304
v 0.10657596 -0.2718311 -0.03405304
v 0.098997496 -0.2639368 -0.03405304
v 0.09373472 -0.25720045 -0.03405304
v 0.091945305 -0.250885 -0.03405304
v 0.09120852 -0.24299072 -0.03405304
v 0.09172356 -0.23623605 -0.03405304
v 0.09357645 -0.22817592 -0.03405304
v 0.09672643 -0.2207644 -0.03405304
v 0.10163658 -0.21539097 -0.03405304
v 0.10839962 -0.2115926 -0.03405304
v 0.11627442 -0.20936917 -0.03405304
v 0.12405651 -0.20742357 -0.03405304
v 0.1754912 -0.22943611 -0.03405304
v 0.12795489 -0.20473213 -0.03405304
v 0.13420661 -0.19746447 -0.03405304
v 0.18338458 -0.20997277 -0.03405304
v 0.13952059 -0.18839936 -0.03405304
v 0.1940894 -0.19018511 -0.03405304
v 0.14178684 -0.18253838 -0.03405304
v 0.14202128 -0.17730255 -0.03405304
v 0.20468605 -0.17558776 -0.03405304
v 0.2139852 -0.16196346 -0.03405304
v 0.22014856 -0.14747415 -0.03405304
v 0.22350049 -0.13071406 -0.03405304
v 0.22429517 -0.116471864 -0.03405304
v 0.22288242 -0.10151978 -0.03405304
v 0.11720618 -0.16768716 -0.03405304
v 0.21923266 -0.08444856 -0.03405304
v 0.2136993 -0.06926104 -0.03405304
v 0.20639987 -0.055604078 -0.03405304
v 0.19592161 -0.04135845 -0.03405304
v 0.1827356 -0.025699979 -0.03405304
v 0.10344704 -0.16572158 -0.03405304
v 0.16060188 -0.0039194077 -0.03405304
v 0.086493745 -0.16375601 -0.03405304
v 0.14459018 0.009266612 -0.03405304
v 0.1306978 0.01762565 -0.03405304
v 0.10514974 0.026926482 -0.03405304
v 0.067943454 -0.16277318 -0.03405304
v 0.05099025 -0.15994759 -0.03405304
v 0.06935906 0.035756465 -0.03405304
v 0.03514261 -0.15601645 -0.03405304
v 0.028263057 -0.15196238 -0.03405304
v 0.021137822 -0.14581998 -0.03405304
v 0.012661195 -0.1339035 -0.03405304
v 0.0030756237 -0.11753147 -0.03405304
v -0.005047989 -0.10046017 -0.03405304
v -0.013053799 -0.079739295 -0.03405304
v -0.019764567 -0.06066658 -0.03405304
v 0.061353255 0.038346525 -0.03405304
v 0.046401154 0.042349525 -0.03405304
v 0.039692473 0.043802395 -0.03405304
v 0.029807806 0.044274673 -0.03405304
v 0.022736883 0.042938184 -0.03405304
v 0.006254339 0.039052997 -0.03405304
v -0.005872083 0.033166308 -0.03405304
v -0.014113403 0.025396029 -0.03405304
v -0.020588636 0.015271017 -0.03405304
v -0.024591565 0.0023204207 -0.03405304
v -0.026946282 -0.011925304 -0.03405304
v -0.026710749 -0.021932507 -0.03405304
v -0.028867817 -0.031115664 -0.034053035
v -0.028867817 -0.04124067 -0.03405304
v -0.025298 -0.05289621 -0.03405304
vt 0.16186523 0.26611328
vt 0.1652832 0.2631836
vt 0.1574707 0.26611328
vt 0.16662598 0.25952148
vt 0.16540527 0.2536621
vt 0.14257812 0.26171875
vt 0.1607666 0.24267578
vt 0.13049316 0.25683594
vt 0.15991211 0.23657227
vt 0.12219238 0.25219727
vt 0.11694336 0.24682617
vt 0.11395264 0.23999023
vt 0.11151123 0.23059082
vt 0.16113281 0.22460938
vt 0.10925293 0.22009277
vt 0.16430664 0.21276855
vt 0.10522461 0.20776367
vt 0.16833496 0.20458984
vt 0.17480469 0.19714355
vt 0.18225098 0.18664551
vt 0.035186768 0.16552734
vt 0.036956787 0.17102051
vt 0.036895752 0.16064453
vt 0.040893555 0.17504883
vt 0.046325684 0.1776123
vt 0.054901123 0.17712402
vt 0.04196167 0.14782715
vt 0.059936523 0.17565918
vt 0.042633057 0.1451416
vt 0.076049805 0.045715332
vt 0.07458496 0.050811768
vt 0.080444336 0.04031372
vt 0.09448242 0.032806396
vt 0.086242676 0.035949707
vt 0.10003662 0.032806396
vt 0.12756348 0.0385437
vt 0.11755371 0.035949707
vt 0.1381836 0.04498291
vt 0.19470215 0.08618164
vt 0.1895752 0.08123779
vt 0.20275879 0.10015869
vt 0.09613037 0.20349121
vt 0.08605957 0.19812012
vt 0.19067383 0.17468262
vt 0.07598877 0.19128418
vt 0.06707764 0.18310547
vt 0.19799805 0.16259766
vt 0.20300293 0.15246582
vt 0.20666504 0.1418457
vt 0.20947266 0.13024902
vt 0.20947266 0.12683105
vt 0.20776367 0.11437988
vt 0.17370605 0.07122803
vt 0.15771484 0.060150146
vt 0.041229248 0.14074707
vt 0.03945923 0.13415527
vt 0.038604736 0.12731934
vt 0.038330078 0.09649658
vt 0.14672852 0.051727295
vt 0.039642334 0.089904785
vt 0.042297363 0.08441162
vt 0.045532227 0.080078125
vt 0.0501709 0.07537842
vt 0.05657959 0.07086182
vt 0.06652832 0.0637207
vt 0.0692749 0.060760498
vt 0.0736084 0.055267334
vt 0.32885742 0.16918945
vt 0.33374023 0.23461914
vt 0.33544922 0.17041016
vt 0.34350586 0.17297363
vt 0.3527832 0.1784668
vt 0.37158203 0.19189453
vt 0.34179688 0.24206543
vt 0.39819336 0.21081543
vt 0.36010742 0.25756836
vt 0.38232422 0.27368164
vt 0.41992188 0.2241211
vt 0.4008789 0.28735352
vt 0.4387207 0.23571777
vt 0.44702148 0.24572754
vt 0.45043945 0.25708008
vt 0.45043945 0.2631836
vt 0.44726562 0.27514648
vt 0.4416504 0.28344727
vt 0.43237305 0.29223633
vt 0.40966797 0.29248047
vt 0.41967773 0.2944336
vt 0.3256836 0.24279785
vt 0.3203125 0.171875
vt 0.31103516 0.17736816
vt 0.3005371 0.18701172
vt 0.3173828 0.25073242
vt 0.30517578 0.2619629
vt 0.29516602 0.19262695
vt 0.28955078 0.1986084
vt 0.2783203 0.21130371
vt 0.26708984 0.22436523
vt 0.28930664 0.2746582
vt 0.25561523 0.23669434
vt 0.24682617 0.2442627
vt 0.28295898 0.28149414
vt 0.23132324 0.25512695
vt 0.27978516 0.2861328
vt 0.21459961 0.26831055
vt 0.28027344 0.31298828
vt 0.20373535 0.27539062
vt 0.19592285 0.28027344
vt 0.19067383 0.28686523
vt 0.18835449 0.29248047
vt 0.18603516 0.2998047
vt 0.18603516 0.30273438
vt 0.18762207 0.31225586
vt 0.19250488 0.32055664
vt 0.19824219 0.32592773
vt 0.20397949 0.32910156
vt 0.28173828 0.32128906
vt 0.20373535 0.3515625
vt 0.2866211 0.32885742
vt 0.29248047 0.32861328
vt 0.30029297 0.33203125
vt 0.31225586 0.35107422
vt 0.30810547 0.3400879
vt 0.31079102 0.3642578
vt 0.30541992 0.3737793
vt 0.29589844 0.38061523
vt 0.24707031 0.3881836
vt 0.25341797 0.37841797
vt 0.23718262 0.3942871
vt 0.27685547 0.38134766
vt 0.28515625 0.38232422
vt 0.26879883 0.37695312
vt 0.25976562 0.36279297
vt 0.26367188 0.37109375
vt 0.2590332 0.3527832
vt 0.24963379 0.3491211
vt 0.24450684 0.3449707
vt 0.2536621 0.3569336
vt 0.22607422 0.39648438
vt 0.21862793 0.3947754
vt 0.20507812 0.38500977
vt 0.21191406 0.39111328
vt 0.20117188 0.37670898
vt 0.20043945 0.35791016
vt 0.19946289 0.36743164
vt 0.2553711 0.36914062
vt 0.26123047 0.34521484
vt 0.25439453 0.34179688
vt 0.24865723 0.3413086
vt 0.056793213 0.40673828
vt 0.051116943 0.4091797
vt 0.06518555 0.40893555
vt 0.04711914 0.41381836
vt 0.045288086 0.42285156
vt 0.047790527 0.4326172
vt 0.05267334 0.4404297
vt 0.059936523 0.44628906
vt 0.066467285 0.4482422
vt 0.08105469 0.44555664
vt 0.07373047 0.40820312
vt 0.09893799 0.43676758
vt 0.08404541 0.40307617
vt 0.11260986 0.42651367
vt 0.09289551 0.39331055
vt 0.12286377 0.41479492
vt 0.13024902 0.39794922
vt 0.097229004 0.38330078
vt 0.13427734 0.37768555
vt 0.097839355 0.37304688
vt 0.13427734 0.36450195
vt 0.0960083 0.3618164
vt 0.12817383 0.3322754
vt 0.091552734 0.3515625
vt 0.12231445 0.3125
vt 0.086242676 0.3461914
vt 0.07897949 0.33496094
vt 0.07733154 0.32373047
vt 0.07885742 0.31225586
vt 0.11627197 0.30297852
vt 0.10595703 0.29638672
vt 0.082214355 0.3034668
vt 0.08911133 0.29638672
vt 0.09698486 0.29370117
vt 0.36621094 0.9140625
vt 0.3798828 0.91064453
vt 0.36547852 0.8598633
vt 0.3791504 0.8574219
vt 0.40112305 0.91064453
vt 0.39160156 0.8544922
vt 0.42919922 0.9135742
vt 0.39257812 0.8535156
vt 0.44848633 0.9135742
vt 0.3955078 0.77783203
vt 0.38623047 0.78271484
vt 0.40576172 0.77685547
vt 0.46801758 0.79052734
vt 0.4663086 0.8027344
vt 0.47387695 0.78027344
vt 0.37475586 0.82666016
vt 0.3791504 0.8339844
vt 0.37280273 0.8178711
vt 0.3720703 0.80859375
vt 0.37402344 0.7988281
vt 0.3786621 0.79052734
vt 0.41577148 0.7783203
vt 0.42456055 0.78222656
vt 0.44067383 0.8051758
vt 0.43676758 0.79541016
vt 0.44189453 0.8154297
vt 0.47192383 0.8227539
vt 0.4765625 0.8286133
vt 0.46801758 0.81396484
vt 0.49072266 0.76953125
vt 0.4819336 0.7739258
vt 0.5004883 0.7685547
vt 0.5102539 0.76953125
vt 0.51904297 0.7729492
vt 0.53222656 0.78515625
vt 0.5263672 0.7783203
vt 0.53564453 0.79248047
vt 0.53759766 0.8105469
vt 0.53759766 0.8017578
vt 0.53466797 0.8198242
vt 0.53466797 0.82958984
vt 0.52685547 0.83154297
vt 0.5463867 0.8305664
vt 0.5576172 0.83447266
vt 0.5644531 0.8408203
vt 0.5698242 0.84814453
vt 0.57373047 0.8588867
vt 0.57373047 0.86865234
vt 0.5703125 0.8798828
vt 0.5576172 0.8955078
vt 0.5654297 0.8881836
vt 0.54785156 0.9003906
vt 0.38549805 0.8408203
vt 0.39086914 0.8442383
vt 0.43115234 0.78808594
vt 0.4404297 0.82666016
vt 0.43774414 0.8334961
vt 0.53125 0.82666016
vt 0.5361328 0.90185547
vt 0.52685547 0.90185547
vt 0.51464844 0.90478516
vt 0.49951172 0.9067383
vt 0.46801758 0.91064453
vt 0.4350586 0.83740234
vt 0.39208984 0.84765625
vt 0.43774414 0.8413086
vt 0.4729004 0.83447266
vt 0.46728516 0.83984375
vt 0.46069336 0.8413086
vt 0.29052734 0.9238281
vt 0.29907227 0.9243164
vt 0.29223633 0.8613281
vt 0.2998047 0.859375
vt 0.31860352 0.9243164
vt 0.3190918 0.8598633
vt 0.32885742 0.9223633
vt 0.34545898 0.91845703
vt 0.32836914 0.8598633
vt 0.34472656 0.8598633
vt 0.28198242 0.92333984
vt 0.28173828 0.8652344
vt 0.27612305 0.92333984
vt 0.37890625 0.5083008
vt 0.3630371 0.49047852
vt 0.29174805 0.60839844
vt 0.34692383 0.47802734
vt 0.33081055 0.46728516
vt 0.3112793 0.4580078
vt 0.2890625 0.4506836
vt 0.28442383 0.6088867
vt 0.26660156 0.4465332
vt 0.2397461 0.44433594
vt 0.2763672 0.6118164
vt 0.23376465 0.44433594
vt 0.2006836 0.4477539
vt 0.27026367 0.61621094
vt 0.1772461 0.45239258
vt 0.15307617 0.46142578
vt 0.2644043 0.62158203
vt 0.12854004 0.47338867
vt 0.09954834 0.48999023
vt 0.2614746 0.62597656
vt 0.083740234 0.50097656
vt 0.2548828 0.6411133
vt 0.06829834 0.51171875
vt 0.058410645 0.5209961
vt 0.0513916 0.5283203
vt 0.045440674 0.5371094
vt 0.04034424 0.54541016
vt 0.2487793 0.66064453
vt 0.034088135 0.55566406
vt 0.02720642 0.5708008
vt 0.024337769 0.58251953
vt 0.022399902 0.59472656
vt 0.021728516 0.6274414
vt 0.022659302 0.6352539
vt 0.0256958 0.65283203
vt 0.029632568 0.6694336
vt 0.24536133 0.67529297
vt 0.03451538 0.68408203
vt 0.040496826 0.69873047
vt 0.048675537 0.71435547
vt 0.059173584 0.7324219
vt 0.06994629 0.7495117
vt 0.24572754 0.67871094
vt 0.08288574 0.76708984
vt 0.095214844 0.7817383
vt 0.24804688 0.6855469
vt 0.24975586 0.6958008
vt 0.25 0.71435547
vt 0.24926758 0.7241211
vt 0.24645996 0.73339844
vt 0.24060059 0.7441406
vt 0.23522949 0.7524414
vt 0.23022461 0.7583008
vt 0.22436523 0.7636719
vt 0.101745605 0.79003906
vt 0.22167969 0.77490234
vt 0.10644531 0.79833984
vt 0.22045898 0.7871094
vt 0.10839844 0.80566406
vt 0.2211914 0.7939453
vt 0.10876465 0.81396484
vt 0.2244873 0.80126953
vt 0.10736084 0.8232422
vt 0.22912598 0.80908203
vt 0.27246094 0.9248047
vt 0.23449707 0.81640625
vt 0.21435547 0.97998047
vt 0.2163086 0.9770508
vt 0.2064209 0.9819336
vt 0.21618652 0.9736328
vt 0.21154785 0.9628906
vt 0.18359375 0.9824219
vt 0.20898438 0.9526367
vt 0.17382812 0.97998047
vt 0.16357422 0.9741211
vt 0.20837402 0.9423828
vt 0.1517334 0.96484375
vt 0.14660645 0.95703125
vt 0.1418457 0.9506836
vt 0.14135742 0.9453125
vt 0.14233398 0.9433594
vt 0.14892578 0.93603516
vt 0.1541748 0.9267578
vt 0.20996094 0.9355469
vt 0.15478516 0.9189453
vt 0.15454102 0.90722656
vt 0.26708984 0.9326172
vt 0.09967041 0.8300781
vt 0.09613037 0.8388672
vt 0.104003906 0.8256836
vt 0.24694824 0.82373047
vt 0.23986816 0.8232422
vt 0.25512695 0.82666016
vt 0.26123047 0.8305664
vt 0.26831055 0.83691406
vt 0.2734375 0.8442383
vt 0.2775879 0.85253906
vt 0.28100586 0.86083984
vt 0.26123047 0.93847656
vt 0.25390625 0.9428711
vt 0.2446289 0.9453125
vt 0.23596191 0.9458008
vt 0.22802734 0.9453125
vt 0.2208252 0.9423828
vt 0.21459961 0.93896484
vt 0.14013672 0.9033203
vt 0.15283203 0.9057617
vt 0.13098145 0.9003906
vt 0.12249756 0.8964844
vt 0.11450195 0.8911133
vt 0.10809326 0.8852539
vt 0.10272217 0.8779297
vt 0.09869385 0.8691406
vt 0.09649658 0.86083984
vt 0.09527588 0.85009766
vt 0.94677734 0.83203125
vt 0.9458008 0.8198242
vt 0.87597656 0.79345703
vt 0.88623047 0.78759766
vt 0.89941406 0.7836914
vt 0.9423828 0.80859375
vt 0.9326172 0.79541016
vt 0.9243164 0.78808594
vt 0.91308594 0.7841797
vt 0.7026367 0.7548828
vt 0.6611328 0.8017578
vt 0.7158203 0.78271484
vt 0.6767578 0.82910156
vt 0.72998047 0.80810547
vt 0.6923828 0.8535156
vt 0.7397461 0.8208008
vt 0.703125 0.86572266
vt 0.7524414 0.8359375
vt 0.71777344 0.88183594
vt 0.7631836 0.84521484
vt 0.7324219 0.89453125
vt 0.7753906 0.85302734
vt 0.7495117 0.90625
vt 0.7866211 0.85791016
vt 0.76953125 0.9169922
vt 0.79541016 0.8598633
vt 0.7871094 0.92285156
vt 0.8027344 0.86035156
vt 0.8027344 0.9267578
vt 0.8105469 0.859375
vt 0.8203125 0.92871094
vt 0.86083984 0.9213867
vt 0.82666016 0.8520508
vt 0.8408203 0.9272461
vt 0.8925781 0.90527344
vt 0.83935547 0.84277344
vt 0.87939453 0.9135742
vt 0.9213867 0.88378906
vt 0.8491211 0.83154297
vt 0.9082031 0.89501953
vt 0.9326172 0.86865234
vt 0.9428711 0.84716797
vt 0.8564453 0.8183594
vt 0.8652344 0.8051758
vt 0.6904297 0.7314453
vt 0.64746094 0.7792969
vt 0.66308594 0.6850586
vt 0.6196289 0.7368164
vt 0.6796875 0.7114258
vt 0.63623047 0.7602539
vt 0.62939453 0.6376953
vt 0.5810547 0.6953125
vt 0.64453125 0.65722656
vt 0.5996094 0.7133789
vt 0.5576172 0.67578125
vt 0.5649414 0.68066406
vt 0.61035156 0.61621094
vt 0.57470703 0.5839844
vt 0.53125 0.66015625
vt 0.59277344 0.5991211
vt 0.546875 0.66845703
vt 0.4584961 0.6591797
vt 0.46801758 0.65234375
vt 0.43896484 0.5288086
vt 0.45898438 0.53125
vt 0.4765625 0.5336914
vt 0.48046875 0.64941406
vt 0.49975586 0.5410156
vt 0.5229492 0.55126953
vt 0.4958496 0.6503906
vt 0.54833984 0.5649414
vt 0.51416016 0.6542969
vt 0.95947266 0.42700195
vt 0.9633789 0.41455078
vt 0.95166016 0.43579102
vt 0.94189453 0.44067383
vt 0.9663086 0.38793945
vt 0.9638672 0.36035156
vt 0.9555664 0.31689453
vt 0.8676758 0.4104004
vt 0.875 0.41748047
vt 0.8623047 0.39868164
vt 0.8588867 0.38500977
vt 0.8588867 0.37524414
vt 0.8623047 0.3647461
vt 0.8691406 0.35498047
vt 0.87646484 0.34814453
vt 0.88134766 0.34521484
vt 0.78808594 0.07952881
vt 0.7836914 0.0925293
vt 0.7963867 0.07006836
vt 0.80566406 0.064941406
vt 0.7836914 0.10498047
vt 0.81640625 0.061920166
vt 0.8286133 0.062408447
vt 0.8383789 0.066467285
vt 0.84521484 0.072265625
vt 0.85058594 0.0793457
vt 0.78564453 0.1204834
vt 0.79003906 0.13781738
vt 0.7963867 0.1550293
vt 0.80566406 0.17236328
vt 0.8178711 0.19494629
vt 0.83154297 0.21887207
vt 0.8442383 0.24182129
vt 0.85839844 0.27075195
vt 0.86279297 0.045684814
vt 0.85546875 0.054901123
vt 0.87402344 0.038604736
vt 0.8520508 0.06652832
vt 0.88916016 0.03289795
vt 0.8984375 0.03289795
vt 0.90771484 0.035461426
vt 0.91748047 0.040985107
vt 0.9267578 0.05038452
vt 0.9326172 0.059753418
vt 0.9370117 0.07318115
vt 0.9399414 0.0904541
vt 0.94091797 0.10723877
vt 0.9404297 0.17993164
vt 0.9428711 0.21789551
vt 0.9477539 0.26391602
vt 0.8671875 0.29370117
vt 0.875 0.31860352
vt 0.87109375 0.42895508
vt 0.9399414 0.45825195
vt 0.86376953 0.4453125
vt 0.9404297 0.47583008
vt 0.8569336 0.4567871
vt 0.9453125 0.49316406
vt 0.8432617 0.47094727
vt 0.9501953 0.50878906
vt 0.95410156 0.5317383
vt 0.828125 0.48486328
vt 0.9550781 0.55810547
vt 0.81640625 0.49560547
vt 0.95166016 0.58691406
vt 0.80371094 0.50927734
vt 0.7895508 0.5283203
vt 0.9428711 0.6176758
vt 0.7753906 0.55029297
vt 0.9301758 0.6489258
vt 0.76660156 0.5683594
vt 0.76123047 0.58154297
vt 0.7573242 0.59716797
vt 0.7548828 0.6152344
vt 0.9140625 0.68310547
vt 0.7548828 0.63623047
vt 0.75683594 0.6557617
vt 0.8935547 0.71777344
vt 0.75878906 0.67333984
vt 0.7636719 0.6928711
vt 0.77001953 0.7109375
vt 0.8769531 0.7402344
vt 0.7783203 0.7265625
vt 0.7885742 0.74121094
vt 0.8613281 0.75634766
vt 0.796875 0.7495117
vt 0.84814453 0.7631836
vt 0.8364258 0.7651367
vt 0.80566406 0.7573242
vt 0.83154297 0.7651367
vt 0.8178711 0.7626953
vt 0.44140625 0.038269043
vt 0.4345703 0.04812622
vt 0.45629883 0.032928467
vt 0.43188477 0.059387207
vt 0.46240234 0.032928467
vt 0.49291992 0.037231445
vt 0.5102539 0.041381836
vt 0.4362793 0.11437988
vt 0.44970703 0.11566162
vt 0.42504883 0.107788086
vt 0.41625977 0.07092285
vt 0.41333008 0.08203125
vt 0.42333984 0.06317139
vt 0.41333008 0.08709717
vt 0.4182129 0.099609375
vt 0.46484375 0.11352539
vt 0.4777832 0.111572266
vt 0.50390625 0.11199951
vt 0.5234375 0.045013428
vt 0.5332031 0.048675537
vt 0.51660156 0.1171875
vt 0.5419922 0.05340576
vt 0.5517578 0.06008911
vt 0.5625 0.06982422
vt 0.52685547 0.12561035
vt 0.57470703 0.08148193
vt 0.5908203 0.099365234
vt 0.54052734 0.1427002
vt 0.609375 0.118652344
vt 0.55029297 0.1616211
vt 0.62353516 0.13342285
vt 0.55322266 0.17602539
vt 0.6308594 0.13952637
vt 0.63964844 0.14868164
vt 0.6455078 0.15649414
vt 0.6479492 0.16369629
vt 0.6484375 0.17285156
vt 0.6479492 0.18066406
vt 0.6459961 0.1899414
vt 0.64208984 0.19848633
vt 0.63671875 0.20471191
vt 0.62890625 0.20910645
vt 0.6196289 0.21166992
vt 0.61083984 0.21398926
vt 0.55126953 0.18847656
vt 0.60595703 0.21704102
vt 0.5991211 0.22546387
vt 0.5419922 0.2109375
vt 0.59277344 0.23596191
vt 0.52978516 0.23388672
vt 0.59033203 0.24267578
vt 0.58984375 0.24865723
vt 0.5175781 0.25073242
vt 0.50683594 0.26635742
vt 0.49975586 0.28320312
vt 0.4958496 0.30249023
vt 0.49487305 0.31884766
vt 0.49658203 0.33618164
vt 0.61865234 0.25976562
vt 0.50097656 0.35595703
vt 0.5073242 0.37353516
vt 0.515625 0.38916016
vt 0.52783203 0.40576172
vt 0.54296875 0.42382812
vt 0.63427734 0.26220703
vt 0.5683594 0.4489746
vt 0.6538086 0.2644043
vt 0.58691406 0.46411133
vt 0.60302734 0.47387695
vt 0.6323242 0.48461914
vt 0.67529297 0.26538086
vt 0.6948242 0.26879883
vt 0.6738281 0.4946289
vt 0.7133789 0.27319336
vt 0.7211914 0.27807617
vt 0.7294922 0.28515625
vt 0.7392578 0.29882812
vt 0.7504883 0.31762695
vt 0.7597656 0.33740234
vt 0.76904297 0.36132812
vt 0.77685547 0.38330078
vt 0.68310547 0.49780273
vt 0.7001953 0.5024414
vt 0.7080078 0.50390625
vt 0.71972656 0.50439453
vt 0.72753906 0.5029297
vt 0.74658203 0.49853516
vt 0.7607422 0.49169922
vt 0.77001953 0.48266602
vt 0.77783203 0.47094727
vt 0.78222656 0.4560547
vt 0.78515625 0.43969727
vt 0.78466797 0.42822266
vt 0.7871094 0.41748047
vt 0.7871094 0.40576172
vt 0.7832031 0.39233398
vn -0 0 -1
vn -0 0 -1
vn -0 0 -1
vn -0 0 -1
vn -0 0 -1
vn -0 0 -1
vn -0 0 -1
vn -0 0 -1
vn -0 0 -1
vn -0 0 -1
vn -0 0 -1
vn -0 0 -1
vn -0 0 -1
vn -0 0 -1
vn -0 0 -1
vn -0 0 -1
vn -0 0 -1
vn -0 0 -1
vn -0 0 -1
vn -0 0 -1
vn -0 0 -1
vn -0 0 -1
vn -0 0 -1
vn -0 0 -1
vn -0 0 -1
vn -0 0 -1
vn -0 0 -1
vn -0 0 -1
vn -0 0 -1
vn -0 0 -1
vn -0 0 -1
vn -0 0 -1
vn -0 0 -1
vn -0 0 -1
vn -0 0 -1
vn -0 0 -1
vn -0 0 -1
vn -0 0 -1
vn -0 0 -1
vn -0 0 -1
vn -0 0 -1
vn -0 0 -1
vn -0 0 -1
vn -0 0 -1
vn -0 0 -1
vn -0 0 -1
vn -0 0 -1
vn -0 0 -1
vn -0 0 -1
vn -0 0 -1
vn -0 0 -1
vn -0 0 -1
vn -0 0 -1
vn -0 0 -1
vn -0 0 -1
vn -0 0 -1
vn -0 0 -1
vn -0 0 -1
vn -0 0 -1
vn -0 0 -1
vn -0 0 -1
vn -0 0 -1
vn -0 0 -1
vn -0 0 -1
vn -0 0 -1
vn -0 0 -1
vn -0 0 -1
vn -0 0 -1
vn -0 0 -1
vn -0 0 -1
vn -0 0 -1
vn -0 0 -1
vn -0 0 -1
vn -0 0 -1
vn -0 0 -1
vn -0 0 -1
vn -0 0 -1
vn -0 0 -1
vn -0 0 -1
vn -0 0 -1
vn -0 0 -1
vn -0 0 -1
vn -0 0 -1
vn -0 0 -1
vn -0 0 -1
vn -0 0 -1
vn -0 0 -1
vn -0 0 -1
vn -0 0 -1
vn -0 0 -1
vn -0 0 -1
vn 1.7285347E-06 0 -1
vn 1.3709068E-06 0 -1
vn 1.3113022E-06 0 -1
vn 1.3709068E-06 0 -1
vn 1.2516975E-06 0 -1
vn 1.2516975E-06 0 -1
vn 1.2516975E-06 0 -1
vn 1.2516975E-06 0 -1
vn 1.2516975E-06 0 -1
vn 1.2516975E-06 0 -1
vn 1.2516975E-06 0 -1
vn 1.2516975E-06 0 -1
vn 1.2516975E-06 0 -1
vn 1.2516975E-06 0 -1
vn 1.2516975E-06 0 -1
vn 1.2516975E-06 0 -1
vn 1.2516975E-06 0 -1
vn 1.2516975E-06 0 -1
vn 1.2516975E-06 0 -1
vn 1.2516975E-06 0 -1
vn 1.2516975E-06 0 -1
vn 1.2516975E-06 0 -1
vn 1.2516975E-06 0 -1
vn 1.2516975E-06 0 -1
vn 1.2516975E-06 0 -1
vn 1.2516975E-06 0 -1
vn 1.2516975E-06 0 -1
vn 1.2516975E-06 0 -1
vn 1.2516975E-06 0 -1
vn 1.2516975E-06 0 -1
vn 1.2516975E-06 0 -1
vn 1.2516975E-06 0 -1
vn 1.2516975E-06 0 -1
vn 1.2516975E-06 0 -1
vn 1.2516975E-06 0 -1
vn 1.2516975E-06 0 -1
vn 1.2516975E-06 0 -1
vn 1.2516975E-06 0 -1
vn 1.2516975E-06 0 -1
vn 1.2516975E-06 0 -1
vn 1.2516975E-06 0 -1
vn 1.2516975E-06 0 -1
vn 1.2516975E-06 0 -1
vn 1.2516975E-06 0 -1
vn 1.2516975E-06 0 -1
vn 1.2516975E-06 0 -1
vn 1.2516975E-06 0 -1
vn 1.2516975E-06 0 -1
vn 1.2516975E-06 0 -1
vn 1.2516975E-06 0 -1
vn 1.2516975E-06 0 -1
vn 1.2516975E-06 0 -1
vn 1.2516975E-06 0 -1
vn 1.2516975E-06 0 -1
vn 1.2516975E-06 0 -1
vn 1.2516975E-06 0 -1
vn 1.2516975E-06 0 -1
vn 1.2516975E-06 0 -1
vn -0 0 -1
vn -0 0 -1
vn -0 0 -1
vn -0 0 -1
vn -0 0 -1
vn -0 0 -1
vn -0 0 -1
vn -0 0 -1
vn -0 0 -1
vn -0 0 -1
vn -0 0 -1
vn -0 0 -1
vn -0 0 -1
vn -0 0 -1
vn -0 0 -1
vn -0 0 -1
vn -0 0 -1
vn -0 0 -1
vn -0 0 -1
vn -0 0 -1
vn -0 0 -1
vn -0 0 -1
vn -0 0 -1
vn -0 0 -1
vn -0 0 -1
vn -0 0 -1
vn -0 0 -1
vn -0 0 -1
vn -0 0 -1
vn -0 0 -1
vn -0 0 -1
vn -0 0 -1
vn -0 0 -1
vn -0 0 -1
vn 1.7285347E-06 0 -1
vn 1.7285347E-06 0 -1
vn 1.7285347E-06 0 -1
vn 1.7285347E-06 0 -1
vn 1.7285347E-06 0 -1
vn 1.7285347E-06 0 -1
vn 1.7285347E-06 0 -1
vn 1.7285347E-06 0 -1
vn 1.7285347E-06 0 -1
vn 1.7285347E-06 0 -1
vn 1.7285347E-06 0 -1
vn 1.7285347E-06 0 -1
vn 1.7285347E-06 0 -1
vn 1.7285347E-06 0 -1
vn 1.7285347E-06 0 -1
vn 1.7285347E-06 0 -1
vn 1.7285347E-06 0 -1
vn 1.7285347E-06 0 -1
vn 1.7285347E-06 0 -1
vn 1.7285347E-06 0 -1
vn 1.7285347E-06 0 -1
vn 1.7285347E-06 0 -1
vn 1.7285347E-06 0 -1
vn 1.7285347E-06 0 -1
vn 1.7285347E-06 0 -1
vn 1.7285347E-06 0 -1
vn 1.7285347E-06 0 -1
vn 1.7285347E-06 0 -1
vn 1.7285347E-06 0 -1
vn 1.7285347E-06 0 -1
vn 1.7285347E-06 0 -1
vn 1.7285347E-06 0 -1
vn 1.7285347E-06 0 -1
vn 1.7285347E-06 0 -1
vn 1.7285347E-06 0 -1
vn 1.7285347E-06 0 -1
vn 1.7285347E-06 0 -1
vn 1.7285347E-06 0 -1
vn 1.7285347E-06 0 -1
vn 1.7285347E-06 0 -1
vn 1.7285347E-06 0 -1
vn 1.7285347E-06 0 -1
vn 1.7285347E-06 0 -1
vn 1.7285347E-06 0 -1
vn 1.7285347E-06 0 -1
vn 1.7285347E-06 0 -1
vn 1.7285347E-06 0 -1
vn 1.7285347E-06 0 -1
vn 1.7285347E-06 0 -1
vn 1.7285347E-06 0 -1
vn 1.7285347E-06 0 -1
vn 1.7285347E-06 0 -1
vn 1.7285347E-06 0 -1
vn 1.7285347E-06 0 -1
vn 1.7285347E-06 0 -1
vn 1.7285347E-06 0 -1
vn 1.7285347E-06 0 -1
vn 1.7285347E-06 0 -1
vn 1.7285347E-06 0 -1
vn 1.7285347E-06 0 -1
vn 1.7285347E-06 0 -1
vn 1.7285347E-06 0 -1
vn 1.7285347E-06 0 -1
vn 1.7285347E-06 0 -1
vn 1.7285347E-06 0 -1
vn 1.7285347E-06 0 -1
vn 1.7285347E-06 0 -1
vn 1.7285347E-06 0 -1
vn 1.7285347E-06 0 -1
vn -0 0 -1
vn -0 0 -1
vn -0 0 -1
vn -0 0 -1
vn 1.1920929E-06 0 -1
vn 1.2516975E-06 0 -1
vn 1.3113022E-06 0 -1
vn 1.3709068E-06 0 -1
vn 1.2516975E-06 0 -1
vn 1.3709068E-06 0 -1
vn -0 0 -1
vn -0 0 -1
vn -0 0 -1
vn -0 0 -1
vn -0 0 -1
vn -0 0 -1
vn -0 0 -1
vn -0 0 -1
vn -0 0 -1
vn -0 0 -1
vn -0 0 -1
vn -0 0 -1
vn -0 0 -1
vn -0 0 -1
vn -0 0 -1
vn -0 0 -1
vn -0 0 -1
vn -0 0 -1
vn -0 0 -1
vn -0 0 -1
vn -0 0 -1
vn -0 0 -1
vn -0 0 -1
vn -0 0 -1
vn -0 0 -1
vn -0 0 -1
vn -0 0 -1
vn -0 0 -1
vn -0 0 -1
vn -0 0 -1
vn -0 0 -1
vn -0 0 -1
vn -0 0 -1
vn -0 0 -1
vn -0 0 -1
vn -0 0 -1
vn -0 0 -1
vn -0 0 -1
vn -0 0 -1
vn -0 0 -1
vn -0 0 -1
vn -0 0 -1
vn -0 0 -1
vn -0 0 -1
vn -0 0 -1
vn -0 0 -1
vn -0 0 -1
vn -0 0 -1
vn -0 0 -1
vn -0 0 -1
vn -0 0 -1
vn -0 0 -1
vn -0 0 -1
vn -0 0 -1
vn -0 0 -1
vn -0 0 -1
vn -0 0 -1
vn -0 0 -1
vn -0 0 -1
vn -0 0 -1
vn -0 0 -1
vn -0 0 -1
vn -0 0 -1
vn -0 0 -1
vn -0 0 -1
vn -0 0 -1
vn -0 0 -1
vn -0 0 -1
vn -0 0 -1
vn -0 0 -1
vn -0 0 -1
vn -0 0 -1
vn -0 0 -1
vn -0 0 -1
vn -0 0 -1
vn -0 0 -1
vn -0 0 -1
vn -0 0 -1
vn -0 0 -1
vn -0 0 -1
vn -0 0 -1
vn -0 0 -1
vn -0 0 -1
vn -0 0 -1
vn -0 0 -1
vn -0 0 -1
vn -0 0 -1
vn -0 0 -1
vn -0 0 -1
vn -0 0 -1
vn -0 0 -1
vn -0 0 -1
vn -0 0 -1
vn -0 0 -1
vn -0 0 -1
vn -0 0 -1
vn -0 0 -1
vn -0 0 -1
vn -0 0 -1
vn -0 0 -1
vn -0 0 -1
vn -0 0 -1
vn -0 0 -1
vn -0 0 -1
vn -0 0 -1
vn -0 0 -1
vn -0 0 -1
vn -0 0 -1
vn -0 0 -1
vn -0 0 -1
vn -0 0 -1
vn -0 0 -1
vn -0 0 -1
vn -0 0 -1
vn -0 0 -1
vn -0 0 -1
vn -0 0 -1
vn -0 0 -1
vn -0 0 -1
vn -0 0 -1
vn -0 0 -1
vn -0 0 -1
vn -0 0 -1
vn -0 0 -1
vn -0 0 -1
vn -0 0 -1
vn -0 0 -1
vn 0.00026988983 0.0016536713 -1
vn 0.0002450943 0.0016307831 -1
vn 0.00014519691 0.0014829636 -1
vn 0.00010877848 0.001414299 -1
vn 1.0371208E-05 0.0011920929 -1
vn -7.867813E-06 0.0011377335 -1
vn -0.00010573864 0.00077056885 -1
vn -0.00011372566 0.00072956085 -1
vn -0.00014436245 0.000579834 -1
vn -0.00014519691 0.00057697296 -1
vn -0.00010561943 0.00037837029 -1
vn -0.00010019541 0.00035619736 -1
vn -3.0040741E-05 9.5784664E-05 -1
vn -2.7418137E-05 8.755922E-05 -1
vn -0 0 -1
vn -0 0 -1
vn -0 0 -1
vn -0 0 -1
vn -0 0 -1
vn -0 0 -1
vn -0 0 -1
vn -0 0 -1
vn -0 0 -1
vn -0 0 -1
vn -0 0 -1
vn -0 0 -1
vn -0 0 -1
vn -0 0 -1
vn -0 0 -1
vn -0 0 -1
vn -0 0 -1
vn -0 0 -1
vn -0 0 -1
vn -0 0 -1
vn -0 0 -1
vn 0.00033426285 0.0016565323 -1
vn 0.0003271103 0.0016698837 -1
vn 0.0002593994 0.0011415482 -1
vn 0.00027489662 0.00121212 -1
vn 0.00032877922 0.0014810562 -1
vn 0.00033402443 0.0015201569 -1
vn 5.1617622E-05 0.00021862984 -1
vn 5.8472157E-05 0.00024986267 -1
vn 0.00015950203 0.00069999695 -1
vn 0.00017488003 0.000767231 -1
vn 6.2584877E-06 2.2649765E-05 -1
vn 1.6987324E-05 6.0915947E-05 -1
vn 6.4969063E-06 2.336502E-05 -1
vn -0 0 -1
vn -0 0 -1
vn -0 0 -1
vn -0 0 -1
vn -0 0 -1
vn -0 0 -1
vn -0 0 -1
vn -0 0 -1
vn -0 0 -1
vn -0 0 -1
vn -0 0 -1
vn -0 0 -1
vn -0 0 -1
vn -0 0 -1
vn -0 0 -1
vn -0 0 -1
vn -0 0 -1
vn -0 0 -1
vn -0 0 -1
vn -0 0 -1
vn -0 0 -1
vn -0 0 -1
vn -0 0 -1
vn -0 0 -1
vn -0 0 -1
vn -0 0 -1
vn -0 0 -1
vn -0 0 -1
vn -0 0 -1
vn -0 0 -1
vn -0 0 -1
vn -0 0 -1
vn -0 0 -1
vn -0 0 -1
vn -0 0 -1
vn -0 0 -1
vn -0 0 -1
vn -0 0 -1
vn -0 0 -1
vn -0 0 -1
vn -0 0 -1
vn -0 0 -1
vn -0 0 -1
vn -0 0 -1
vn -0 0 -1
vn -0 0 -1
vn -0 0 -1
vn -0 0 -1
vn -0 0 -1
vn -0 0 -1
vn -0 0 -1
vn -0 0 -1
vn -0 0 -1
vn -0 0 -1
vn -0 0 -1
vn -0 0 -1
vn -0 0 -1
vn -0 0 -1
vn -0 0 -1
vn -0 0 -1
vn -0 0 -1
vn -0 0 -1
vn -0 0 -1
vn -0 0 -1
vn -0 0 -1
vn -0 0 -1
vn -0 0 -1
vn -0 0 -1
vn -0 0 -1
vn -0 0 -1
vn -0 0 -1
vn -0 0 -1
vn -0 0 -1
vn -0 0 -1
vn -0 0 -1
vn -0 0 -1
vn -0 0 -1
vn -0 0 -1
vn -0 0 -1
vn -0 0 -1
vn -0 0 -1
vn -0 0 -1
vn -0 0 -1
vn -0 0 -1
vn -0 0 -1
vn -0 0 -1
vn -0 0 -1
vn -0 0 -1
vn -0 0 -1
vn -0 0 -1
vn -0 0 -1
vn -0 0 -1
vn -0 0 -1
vn -0 0 -1
vn -0 0 -1
vn -0 0 -1
vn -0 0 -1
vn -0 0 -1
vn -0 0 -1
vn -0 0 -1
vn -0 0 -1
vn -0 0 -1
vn -0 0 -1
vn -0 0 -1
vn -0 0 -1
vn -0 0 -1
vn -0 0 -1
vn -0 0 -1
vn -0 0 -1
vn -0 0 -1
vn -0 0 -1
vn -0 0 -1
vn -0 0 -1
vn -0 0 -1
vn -0 0 -1
vn -0 0 -1
vn -0 0 -1
vn -0 0 -1
vn -0 0 -1
vn -0 0 -1
vn -0 0 -1
vn -0 0 -1
vn -0 0 -1
vn -0 0 -1
vn -0 0 -1
vn -0 0 -1
vn -0 0 -1
vn -0 0 -1
vn -0 0 -1
vn -0 0 -1
vn -0 0 -1
vn -0 0 -1
vn -0 0 -1
vn -0 0 -1
vn -0 0 -1
vn -0 0 -1
vn -0 0 -1
vn -0 0 -1
vn -0 0 -1
vn -0 0 -1
vn -0 0 -1
vn -0 0 -1
vn -0 0 -1
vn -0 0 -1
vn -0 0 -1
vn -0 0 -1
vn -0 0 -1
vn -0 0 -1
vn -0 0 -1
vn -0 0 -1
vn -0 0 -1
vn -0 0 -1
vn -0 0 -1
vn -0 0 -1
vn -0 0 -1
vn -0 0 -1
vn -0 0 -1
vn -0 0 -1
vn -0 0 -1
vn -0 0 -1
vn -0 0 -1
vn -0 0 -1
vn -0 0 -1
vn -0 0 -1
vn -0 0 -1
vn -0 0 -1
vn -0 0 -1
vn -0 0 -1
vn -0 0 -1
vn -0 0 -1
vn -0 0 -1
vn -0 0 -1
vn -0 0 -1
vn -0 0 -1
vn -0 0 -1
vn -0 0 -1
vn -0 0 -1
vn -0 0 -1
vn -0 0 -1
vn -0 0 -1
vn -0 0 -1
vn -0 0 -1
vn -0 0 -1
vn -0 0 -1
vn -0 0 -1
vn -0 0 -1
vn -0 0 -1
vn -0 0 -1
vn -0 0 -1
vn -0 0 -1
vn -0 0 -1
vn -0 0 -1
vn -0 0 -1
vn -0 0 -1
vn -0 0 -1
vn -0 0 -1
vn -0 0 -1
vn -0 0 -1
vn -0 0 -1
vn -0 0 -1
vn -0 0 -1
vn -0 0 -1
g cPK_20_001290_02_MEWTWOex_UR_L_SB_0
f 3/3/3 2/2/2 1/1/1
f 3/3/3 4/4/4 2/2/2
f 3/3/3 5/5/5 4/4/4
f 6/6/6 5/5/5 3/3/3
f 6/6/6 7/7/7 5/5/5
f 8/8/8 7/7/7 6/6/6
f 8/8/8 9/9/9 7/7/7
f 10/10/10 9/9/9 8/8/8
f 11/11/11 9/9/9 10/10/10
f 12/12/12 9/9/9 11/11/11
f 13/13/13 9/9/9 12/12/12
f 13/13/13 14/14/14 9/9/9
f 15/15/15 14/14/14 13/13/13
f 15/15/15 16/16/16 14/14/14
f 17/17/17 16/16/16 15/15/15
f 17/17/17 18/18/18 16/16/16
f 17/17/17 19/19/19 18/18/18
f 17/17/17 20/20/20 19/19/19
f 23/23/23 22/22/22 21/21/21
f 23/23/23 24/24/24 22/22/22
f 23/23/23 25/25/25 24/24/24
f 23/23/23 26/26/26 25/25/25
f 27/27/27 26/26/26 23/23/23
f 27/27/27 28/28/28 26/26/26
f 29/29/29 28/28/28 27/27/27
f 32/32/32 31/31/31 30/30/30
f 35/35/35 34/34/34 33/33/33
f 38/38/38 37/37/37 36/36/36
f 41/41/41 40/40/40 39/39/39
f 43/43/43 17/17/17 42/42/42
f 43/43/43 20/20/20 17/17/17
f 43/43/43 44/44/44 20/20/20
f 45/45/45 44/44/44 43/43/43
f 46/46/46 44/44/44 45/45/45
f 46/46/46 47/47/47 44/44/44
f 28/28/28 47/47/47 46/46/46
f 29/29/29 47/47/47 28/28/28
f 29/29/29 48/48/48 47/47/47
f 29/29/29 49/49/49 48/48/48
f 29/29/29 50/50/50 49/49/49
f 29/29/29 51/51/51 50/50/50
f 29/29/29 52/52/52 51/51/51
f 29/29/29 41/41/41 52/52/52
f 29/29/29 40/40/40 41/41/41
f 29/29/29 53/53/53 40/40/40
f 29/29/29 54/54/54 53/53/53
f 55/55/55 54/54/54 29/29/29
f 56/56/56 54/54/54 55/55/55
f 57/57/57 54/54/54 56/56/56
f 58/58/58 54/54/54 57/57/57
f 58/58/58 59/59/59 54/54/54
f 60/60/60 59/59/59 58/58/58
f 61/61/61 59/59/59 60/60/60
f 62/62/62 59/59/59 61/61/61
f 63/63/63 59/59/59 62/62/62
f 64/64/64 59/59/59 63/63/63
f 65/65/65 59/59/59 64/64/64
f 66/66/66 59/59/59 65/65/65
f 67/67/67 59/59/59 66/66/66
f 67/67/67 38/38/38 59/59/59
f 67/67/67 37/37/37 38/38/38
f 67/67/67 35/35/35 37/37/37
f 31/31/31 35/35/35 67/67/67
f 31/31/31 34/34/34 35/35/35
f 32/32/32 34/34/34 31/31/31
f 70/70/70 69/69/69 68/68/68
f 71/71/71 69/69/69 70/70/70
f 72/72/72 69/69/69 71/71/71
f 73/73/73 69/69/69 72/72/72
f 73/73/73 74/74/74 69/69/69
f 75/75/75 74/74/74 73/73/73
f 75/75/75 76/76/76 74/74/74
f 75/75/75 77/77/77 76/76/76
f 78/78/78 77/77/77 75/75/75
f 78/78/78 79/79/79 77/77/77
f 80/80/80 79/79/79 78/78/78
f 81/81/81 79/79/79 80/80/80
f 82/82/82 79/79/79 81/81/81
f 83/83/83 79/79/79 82/82/82
f 84/84/84 79/79/79 83/83/83
f 85/85/85 79/79/79 84/84/84
f 86/86/86 79/79/79 85/85/85
f 86/86/86 87/87/87 79/79/79
f 88/88/88 87/87/87 86/86/86
f 90/90/90 69/69/69 89/89/89
f 90/90/90 68/68/68 69/69/69
f 93/93/93 92/92/92 91/91/91
f 95/95/95 93/93/93 94/94/94
f 92/92/92 93/93/93 95/95/95
f 94/94/94 96/96/96 95/95/95
f 94/94/94 97/97/97 96/96/96
f 94/94/94 98/98/98 97/97/97
f 99/99/99 98/98/98 94/94/94
f 99/99/99 100/100/100 98/98/98
f 99/99/99 101/101/101 100/100/100
f 102/102/102 101/101/101 99/99/99
f 102/102/102 103/103/103 101/101/101
f 104/104/104 103/103/103 102/102/102
f 104/104/104 105/105/105 103/103/103
f 106/106/106 105/105/105 104/104/104
f 106/106/106 107/107/107 105/105/105
f 106/106/106 108/108/108 107/107/107
f 106/106/106 109/109/109 108/108/108
f 106/106/106 110/110/110 109/109/109
f 106/106/106 111/111/111 110/110/110
f 106/106/106 112/112/112 111/111/111
f 106/106/106 113/113/113 112/112/112
f 106/106/106 114/114/114 113/113/113
f 106/106/106 115/115/115 114/114/114
f 106/106/106 116/116/116 115/115/115
f 117/117/117 116/116/116 106/106/106
f 117/117/117 118/118/118 116/116/116
f 119/119/119 118/118/118 117/117/117
f 121/121/121 119/119/119 120/120/120
f 124/124/124 123/123/123 122/122/122
f 126/126/126 124/124/124 125/125/125
f 129/129/129 128/128/128 127/127/127
f 132/132/132 131/131/131 130/130/130
f 135/135/135 134/134/134 133/133/133
f 138/138/138 137/137/137 136/136/136
f 140/140/140 129/129/129 139/139/139
f 143/143/143 142/142/142 141/141/141
f 118/118/118 145/145/145 144/144/144
f 128/128/128 138/138/138 146/146/146
f 126/126/126 123/123/123 124/124/124
f 131/131/131 123/123/123 126/126/126
f 132/132/132 123/123/123 131/131/131
f 132/132/132 121/121/121 123/123/123
f 132/132/132 119/119/119 121/121/121
f 134/134/134 119/119/119 132/132/132
f 135/135/135 119/119/119 134/134/134
f 147/147/147 119/119/119 135/135/135
f 148/148/148 119/119/119 147/147/147
f 129/129/129 138/138/138 128/128/128
f 140/140/140 138/138/138 129/129/129
f 140/140/140 137/137/137 138/138/138
f 142/142/142 137/137/137 140/140/140
f 143/143/143 137/137/137 142/142/142
f 145/145/145 137/137/137 143/143/143
f 118/118/118 137/137/137 145/145/145
f 118/118/118 149/149/149 137/137/137
f 119/119/119 149/149/149 118/118/118
f 148/148/148 149/149/149 119/119/119
f 91/91/91 89/89/89 93/93/93
f 91/91/91 90/90/90 89/89/89
f 152/152/152 151/151/151 150/150/150
f 152/152/152 153/153/153 151/151/151
f 152/152/152 154/154/154 153/153/153
f 152/152/152 155/155/155 154/154/154
f 152/152/152 156/156/156 155/155/155
f 152/152/152 157/157/157 156/156/156
f 152/152/152 158/158/158 157/157/157
f 152/152/152 159/159/159 158/158/158
f 160/160/160 159/159/159 152/152/152
f 160/160/160 161/161/161 159/159/159
f 162/162/162 161/161/161 160/160/160
f 162/162/162 163/163/163 161/161/161
f 164/164/164 163/163/163 162/162/162
f 164/164/164 165/165/165 163/163/163
f 164/164/164 166/166/166 165/165/165
f 167/167/167 166/166/166 164/164/164
f 167/167/167 168/168/168 166/166/166
f 169/169/169 168/168/168 167/167/167
f 169/169/169 170/170/170 168/168/168
f 171/171/171 170/170/170 169/169/169
f 171/171/171 172/172/172 170/170/170
f 173/173/173 172/172/172 171/171/171
f 173/173/173 174/174/174 172/172/172
f 175/175/175 174/174/174 173/173/173
f 176/176/176 174/174/174 175/175/175
f 177/177/177 174/174/174 176/176/176
f 178/178/178 174/174/174 177/177/177
f 178/178/178 179/179/179 174/174/174
f 178/178/178 180/180/180 179/179/179
f 181/181/181 180/180/180 178/178/178
f 182/182/182 180/180/180 181/181/181
f 180/180/180 182/182/182 183/183/183
f 186/186/186 185/185/185 184/184/184
f 187/187/187 185/185/185 186/186/186
f 187/187/187 188/188/188 185/185/185
f 189/189/189 188/188/188 187/187/187
f 189/189/189 190/190/190 188/188/188
f 191/191/191 190/190/190 189/189/189
f 191/191/191 192/192/192 190/190/190
f 195/195/195 194/194/194 193/193/193
f 198/198/198 197/197/197 196/196/196
f 201/201/201 200/200/200 199/199/199
f 203/203/203 201/201/201 202/202/202
f 194/194/194 203/203/203 204/204/204
f 206/206/206 195/195/195 205/205/205
f 209/209/209 208/208/208 207/207/207
f 212/212/212 211/211/211 210/210/210
f 215/215/215 214/214/214 213/213/213
f 217/217/217 215/215/215 216/216/216
f 220/220/220 219/219/219 218/218/218
f 223/223/223 222/222/222 221/221/221
f 226/226/226 225/225/225 224/224/224
f 228/228/228 226/226/226 227/227/227
f 230/230/230 228/228/228 229/229/229
f 232/232/232 230/230/230 231/231/231
f 235/235/235 234/234/234 233/233/233
f 200/200/200 237/237/237 236/236/236
f 208/208/208 206/206/206 238/238/238
f 240/240/240 209/209/209 239/239/239
f 225/225/225 223/223/223 241/241/241
f 243/243/243 235/235/235 242/242/242
f 245/245/245 243/243/243 244/244/244
f 191/191/191 246/246/246 192/192/192
f 195/195/195 203/203/203 194/194/194
f 228/228/228 225/225/225 226/226/226
f 232/232/232 228/228/228 230/230/230
f 232/232/232 225/225/225 228/228/228
f 234/234/234 225/225/225 232/232/232
f 235/235/235 225/225/225 234/234/234
f 243/243/243 225/225/225 235/235/235
f 245/245/245 225/225/225 243/243/243
f 246/246/246 225/225/225 245/245/245
f 191/191/191 225/225/225 246/246/246
f 208/208/208 195/195/195 206/206/206
f 208/208/208 203/203/203 195/195/195
f 208/208/208 201/201/201 203/203/203
f 209/209/209 201/201/201 208/208/208
f 209/209/209 200/200/200 201/201/201
f 209/209/209 237/237/237 200/200/200
f 240/240/240 237/237/237 209/209/209
f 247/247/247 237/237/237 240/240/240
f 247/247/247 248/248/248 237/237/237
f 247/247/247 191/191/191 248/248/248
f 249/249/249 191/191/191 247/247/247
f 214/214/214 197/197/197 198/198/198
f 217/217/217 214/214/214 215/215/215
f 217/217/217 197/197/197 214/214/214
f 217/217/217 212/212/212 197/197/197
f 217/217/217 211/211/211 212/212/212
f 219/219/219 211/211/211 217/217/217
f 220/220/220 211/211/211 219/219/219
f 222/222/222 211/211/211 220/220/220
f 223/223/223 211/211/211 222/222/222
f 225/225/225 211/211/211 223/223/223
f 225/225/225 250/250/250 211/211/211
f 225/225/225 251/251/251 250/250/250
f 252/252/252 191/191/191 249/249/249
f 252/252/252 225/225/225 191/191/191
f 251/251/251 225/225/225 252/252/252
f 255/255/255 254/254/254 253/253/253
f 255/255/255 256/256/256 254/254/254
f 256/256/256 257/257/257 254/254/254
f 256/256/256 258/258/258 257/257/257
f 261/261/261 260/260/260 259/259/259
f 261/261/261 262/262/262 260/260/260
f 262/262/262 184/184/184 260/260/260
f 262/262/262 186/186/186 184/184/184
f 258/258/258 259/259/259 257/257/257
f 258/258/258 261/261/261 259/259/259
f 265/265/265 264/264/264 263/263/263
f 268/268/268 267/267/267 266/266/266
f 268/268/268 269/269/269 267/267/267
f 268/268/268 270/270/270 269/269/269
f 268/268/268 271/271/271 270/270/270
f 268/268/268 272/272/272 271/271/271
f 273/273/273 272/272/272 268/268/268
f 273/273/273 274/274/274 272/272/272
f 273/273/273 275/275/275 274/274/274
f 276/276/276 275/275/275 273/273/273
f 276/276/276 277/277/277 275/275/275
f 276/276/276 278/278/278 277/277/277
f 279/279/279 278/278/278 276/276/276
f 279/279/279 280/280/280 278/278/278
f 279/279/279 281/281/281 280/280/280
f 282/282/282 281/281/281 279/279/279
f 282/282/282 283/283/283 281/281/281
f 282/282/282 284/284/284 283/283/283
f 285/285/285 284/284/284 282/282/282
f 285/285/285 286/286/286 284/284/284
f 287/287/287 286/286/286 285/285/285
f 287/287/287 288/288/288 286/286/286
f 287/287/287 289/289/289 288/288/288
f 287/287/287 290/290/290 289/289/289
f 287/287/287 291/291/291 290/290/290
f 287/287/287 292/292/292 291/291/291
f 293/293/293 292/292/292 287/287/287
f 293/293/293 294/294/294 292/292/292
f 293/293/293 295/295/295 294/294/294
f 293/293/293 296/296/296 295/295/295
f 293/293/293 297/297/297 296/296/296
f 293/293/293 298/298/298 297/297/297
f 293/293/293 299/299/299 298/298/298
f 293/293/293 300/300/300 299/299/299
f 293/293/293 301/301/301 300/300/300
f 302/302/302 301/301/301 293/293/293
f 302/302/302 303/303/303 301/301/301
f 302/302/302 304/304/304 303/303/303
f 302/302/302 305/305/305 304/304/304
f 302/302/302 306/306/306 305/305/305
f 302/302/302 307/307/307 306/306/306
f 308/308/308 307/307/307 302/302/302
f 308/308/308 309/309/309 307/307/307
f 308/308/308 310/310/310 309/309/309
f 311/311/311 310/310/310 308/308/308
f 312/312/312 310/310/310 311/311/311
f 313/313/313 310/310/310 312/312/312
f 314/314/314 310/310/310 313/313/313
f 315/315/315 310/310/310 314/314/314
f 316/316/316 310/310/310 315/315/315
f 317/317/317 310/310/310 316/316/316
f 318/318/318 310/310/310 317/317/317
f 319/319/319 310/310/310 318/318/318
f 319/319/319 320/320/320 310/310/310
f 321/321/321 320/320/320 319/319/319
f 321/321/321 322/322/322 320/320/320
f 323/323/323 322/322/322 321/321/321
f 323/323/323 324/324/324 322/322/322
f 325/325/325 324/324/324 323/323/323
f 325/325/325 326/326/326 324/324/324
f 327/327/327 326/326/326 325/325/325
f 327/327/327 328/328/328 326/326/326
f 329/329/329 328/328/328 327/327/327
f 330/330/330 264/264/264 265/265/265
f 331/331/331 328/328/328 329/329/329
f 334/334/334 333/333/333 332/332/332
f 334/334/334 335/335/335 333/333/333
f 334/334/334 336/336/336 335/335/335
f 337/337/337 336/336/336 334/334/334
f 337/337/337 338/338/338 336/336/336
f 339/339/339 338/338/338 337/337/337
f 340/340/340 338/338/338 339/339/339
f 340/340/340 341/341/341 338/338/338
f 342/342/342 341/341/341 340/340/340
f 343/343/343 341/341/341 342/342/342
f 344/344/344 341/341/341 343/343/343
f 345/345/345 341/341/341 344/344/344
f 346/346/346 341/341/341 345/345/345
f 347/347/347 341/341/341 346/346/346
f 348/348/348 341/341/341 347/347/347
f 348/348/348 349/349/349 341/341/341
f 350/350/350 349/349/349 348/348/348
f 351/351/351 349/349/349 350/350/350
f 352/352/352 264/264/264 330/330/330
f 355/355/355 354/354/354 353/353/353
f 358/358/358 357/357/357 356/356/356
f 360/360/360 358/358/358 359/359/359
f 362/362/362 360/360/360 361/361/361
f 264/264/264 362/362/362 363/363/363
f 365/365/365 352/352/352 364/364/364
f 367/367/367 365/365/365 366/366/366
f 369/369/369 367/367/367 368/368/368
f 349/349/349 369/369/369 370/370/370
f 373/373/373 372/372/372 371/371/371
f 375/375/375 373/373/373 374/374/374
f 377/377/377 375/375/375 376/376/376
f 379/379/379 377/377/377 378/378/378
f 354/354/354 379/379/379 380/380/380
f 357/357/357 328/328/328 331/331/331
f 365/365/365 264/264/264 352/352/352
f 367/367/367 264/264/264 365/365/365
f 369/369/369 264/264/264 367/367/367
f 349/349/349 264/264/264 369/369/369
f 351/351/351 264/264/264 349/349/349
f 351/351/351 362/362/362 264/264/264
f 351/351/351 360/360/360 362/362/362
f 351/351/351 358/358/358 360/360/360
f 351/351/351 357/357/357 358/358/358
f 351/351/351 328/328/328 357/357/357
f 372/372/372 328/328/328 351/351/351
f 373/373/373 328/328/328 372/372/372
f 375/375/375 328/328/328 373/373/373
f 377/377/377 328/328/328 375/375/375
f 379/379/379 328/328/328 377/377/377
f 379/379/379 355/355/355 328/328/328
f 354/354/354 355/355/355 379/379/379
f 264/264/264 253/253/253 263/263/263
f 264/264/264 255/255/255 253/253/253
f 383/383/383 382/382/382 381/381/381
f 384/384/384 382/382/382 383/383/383
f 385/385/385 382/382/382 384/384/384
f 385/385/385 386/386/386 382/382/382
f 385/385/385 387/387/387 386/386/386
f 385/385/385 388/388/388 387/387/387
f 389/389/389 388/388/388 385/385/385
f 392/392/392 391/391/391 390/390/390
f 392/392/392 393/393/393 391/391/391
f 394/394/394 393/393/393 392/392/392
f 394/394/394 395/395/395 393/393/393
f 398/398/398 397/397/397 396/396/396
f 398/398/398 399/399/399 397/397/397
f 402/402/402 401/401/401 400/400/400
f 402/402/402 403/403/403 401/401/401
f 406/406/406 405/405/405 404/404/404
f 406/406/406 407/407/407 405/405/405
f 410/410/410 409/409/409 408/408/408
f 410/410/410 411/411/411 409/409/409
f 414/414/414 413/413/413 412/412/412
f 414/414/414 410/410/410 413/413/413
f 410/410/410 414/414/414 411/411/411
f 417/417/417 416/416/416 415/415/415
f 417/417/417 413/413/413 416/416/416
f 413/413/413 417/417/417 412/412/412
f 420/420/420 419/419/419 418/418/418
f 415/415/415 419/419/419 420/420/420
f 416/416/416 419/419/419 415/415/415
f 423/423/423 422/422/422 421/421/421
f 423/423/423 424/424/424 422/422/422
f 383/383/383 422/422/422 424/424/424
f 383/383/383 381/381/381 422/422/422
f 390/390/390 426/426/426 425/425/425
f 390/390/390 391/391/391 426/426/426
f 429/429/429 428/428/428 427/427/427
f 429/429/429 430/430/430 428/428/428
f 433/433/433 432/432/432 431/431/431
f 433/433/433 434/434/434 432/432/432
f 427/427/427 434/434/434 433/433/433
f 427/427/427 428/428/428 434/434/434
f 425/425/425 430/430/430 429/429/429
f 425/425/425 426/426/426 430/430/430
f 437/437/437 436/436/436 435/435/435
f 431/431/431 436/436/436 437/437/437
f 432/432/432 436/436/436 431/431/431
f 440/440/440 439/439/439 438/438/438
f 440/440/440 441/441/441 439/439/439
f 437/437/437 441/441/441 440/440/440
f 435/435/435 441/441/441 437/437/437
f 444/444/444 443/443/443 442/442/442
f 445/445/445 443/443/443 444/444/444
f 446/446/446 443/443/443 445/445/445
f 446/446/446 447/447/447 443/443/443
f 448/448/448 447/447/447 446/446/446
f 449/449/449 447/447/447 448/448/448
f 449/449/449 450/450/450 447/447/447
f 451/451/451 450/450/450 449/449/449
f 451/451/451 452/452/452 450/450/450
f 438/438/438 452/452/452 451/451/451
f 439/439/439 452/452/452 438/438/438
f 396/396/396 395/395/395 394/394/394
f 396/396/396 397/397/397 395/395/395
f 400/400/400 399/399/399 398/398/398
f 400/400/400 401/401/401 399/399/399
f 404/404/404 403/403/403 402/402/402
f 404/404/404 405/405/405 403/403/403
f 419/419/419 421/421/421 418/418/418
f 419/419/419 423/423/423 421/421/421
f 408/408/408 407/407/407 406/406/406
f 408/408/408 409/409/409 407/407/407
g cPK_20_001290_02_MEWTWOex_UR_L_SB_1
f 455/455/455 454/454/454 453/453/453
f 456/456/456 454/454/454 455/455/455
f 456/456/456 457/457/457 454/454/454
f 456/456/456 458/458/458 457/457/457
f 456/456/456 459/459/459 458/458/458
f 462/462/462 461/461/461 460/460/460
f 463/463/463 461/461/461 462/462/462
f 464/464/464 461/461/461 463/463/463
f 465/465/465 461/461/461 464/464/464
f 466/466/466 461/461/461 465/465/465
f 467/467/467 461/461/461 466/466/466
f 468/468/468 461/461/461 467/467/467
f 471/471/471 470/470/470 469/469/469
f 472/472/472 470/470/470 471/471/471
f 472/472/472 473/473/473 470/470/470
f 474/474/474 473/473/473 472/472/472
f 475/475/475 473/473/473 474/474/474
f 476/476/476 473/473/473 475/475/475
f 477/477/477 473/473/473 476/476/476
f 478/478/478 473/473/473 477/477/477
f 478/478/478 479/479/479 473/473/473
f 478/478/478 480/480/480 479/479/479
f 478/478/478 481/481/481 480/480/480
f 478/478/478 482/482/482 481/481/481
f 478/478/478 483/483/483 482/482/482
f 478/478/478 484/484/484 483/483/483
f 478/478/478 485/485/485 484/484/484
f 478/478/478 486/486/486 485/485/485
f 489/489/489 488/488/488 487/487/487
f 489/489/489 490/490/490 488/488/488
f 489/489/489 478/478/478 490/490/490
f 491/491/491 478/478/478 489/489/489
f 492/492/492 478/478/478 491/491/491
f 493/493/493 478/478/478 492/492/492
f 494/494/494 478/478/478 493/493/493
f 495/495/495 478/478/478 494/494/494
f 496/496/496 478/478/478 495/495/495
f 497/497/497 478/478/478 496/496/496
f 497/497/497 486/486/486 478/478/478
f 498/498/498 486/486/486 497/497/497
f 499/499/499 486/486/486 498/498/498
f 500/500/500 486/486/486 499/499/499
f 501/501/501 486/486/486 500/500/500
f 502/502/502 486/486/486 501/501/501
f 502/502/502 503/503/503 486/486/486
f 459/459/459 503/503/503 502/502/502
f 459/459/459 504/504/504 503/503/503
f 459/459/459 468/468/468 504/504/504
f 456/456/456 468/468/468 459/459/459
f 456/456/456 461/461/461 468/468/468
f 456/456/456 505/505/505 461/461/461
f 506/506/506 505/505/505 456/456/456
f 506/506/506 507/507/507 505/505/505
f 508/508/508 507/507/507 506/506/506
f 508/508/508 509/509/509 507/507/507
f 510/510/510 509/509/509 508/508/508
f 510/510/510 511/511/511 509/509/509
f 512/512/512 511/511/511 510/510/510
f 513/513/513 511/511/511 512/512/512
f 513/513/513 514/514/514 511/511/511
f 515/515/515 514/514/514 513/513/513
f 515/515/515 516/516/516 514/514/514
f 517/517/517 516/516/516 515/515/515
f 517/517/517 518/518/518 516/516/516
f 517/517/517 519/519/519 518/518/518
f 520/520/520 519/519/519 517/517/517
f 520/520/520 521/521/521 519/519/519
f 522/522/522 521/521/521 520/520/520
f 522/522/522 523/523/523 521/521/521
f 522/522/522 524/524/524 523/523/523
f 522/522/522 525/525/525 524/524/524
f 522/522/522 526/526/526 525/525/525
f 527/527/527 526/526/526 522/522/522
f 527/527/527 528/528/528 526/526/526
f 527/527/527 529/529/529 528/528/528
f 530/530/530 529/529/529 527/527/527
f 530/530/530 531/531/531 529/529/529
f 530/530/530 532/532/532 531/531/531
f 530/530/530 533/533/533 532/532/532
f 534/534/534 533/533/533 530/530/530
f 534/534/534 535/535/535 533/533/533
f 534/534/534 536/536/536 535/535/535
f 537/537/537 536/536/536 534/534/534
f 537/537/537 538/538/538 536/536/536
f 539/539/539 538/538/538 537/537/537
f 540/540/540 538/538/538 539/539/539
f 540/540/540 541/541/541 538/538/538
f 542/542/542 541/541/541 540/540/540
f 543/543/543 541/541/541 542/542/542
f 546/546/546 545/545/545 544/544/544
f 546/546/546 547/547/547 545/545/545
f 548/548/548 547/547/547 546/546/546
f 549/549/549 547/547/547 548/548/548
f 550/550/550 547/547/547 549/549/549
f 553/553/553 552/552/552 551/551/551
f 556/556/556 555/555/555 554/554/554
f 547/547/547 555/555/555 556/556/556
f 547/547/547 557/557/557 555/555/555
f 547/547/547 558/558/558 557/557/557
f 547/547/547 553/553/553 558/558/558
f 547/547/547 552/552/552 553/553/553
f 550/550/550 552/552/552 547/547/547
f 550/550/550 559/559/559 552/552/552
f 550/550/550 560/560/560 559/559/559
f 550/550/550 561/561/561 560/560/560
f 562/562/562 561/561/561 550/550/550
f 563/563/563 561/561/561 562/562/562
f 563/563/563 564/564/564 561/561/561
f 565/565/565 564/564/564 563/563/563
f 566/566/566 564/564/564 565/565/565
f 567/567/567 564/564/564 566/566/566
f 567/567/567 568/568/568 564/564/564
f 569/569/569 568/568/568 567/567/567
f 570/570/570 568/568/568 569/569/569
f 570/570/570 571/571/571 568/568/568
f 572/572/572 571/571/571 570/570/570
f 572/572/572 573/573/573 571/571/571
f 574/574/574 573/573/573 572/572/572
f 574/574/574 575/575/575 573/573/573
f 576/576/576 575/575/575 574/574/574
f 577/577/577 575/575/575 576/576/576
f 578/578/578 575/575/575 577/577/577
f 579/579/579 575/575/575 578/578/578
f 580/580/580 575/575/575 579/579/579
f 581/581/581 575/575/575 580/580/580
f 582/582/582 575/575/575 581/581/581
f 583/583/583 575/575/575 582/582/582
f 584/584/584 575/575/575 583/583/583
f 585/585/585 575/575/575 584/584/584
f 586/586/586 575/575/575 585/585/585
f 587/587/587 575/575/575 586/586/586
f 587/587/587 588/588/588 575/575/575
f 589/589/589 588/588/588 587/587/587
f 590/590/590 588/588/588 589/589/589
f 590/590/590 591/591/591 588/588/588
f 592/592/592 591/591/591 590/590/590
f 592/592/592 593/593/593 591/591/591
f 594/594/594 593/593/593 592/592/592
f 595/595/595 593/593/593 594/594/594
f 595/595/595 596/596/596 593/593/593
f 595/595/595 597/597/597 596/596/596
f 595/595/595 598/598/598 597/597/597
f 595/595/595 599/599/599 598/598/598
f 595/595/595 600/600/600 599/599/599
f 595/595/595 601/601/601 600/600/600
f 602/602/602 601/601/601 595/595/595
f 602/602/602 603/603/603 601/601/601
f 602/602/602 604/604/604 603/603/603
f 602/602/602 605/605/605 604/604/604
f 602/602/602 606/606/606 605/605/605
f 602/602/602 607/607/607 606/606/606
f 608/608/608 607/607/607 602/602/602
f 608/608/608 609/609/609 607/607/607
f 610/610/610 609/609/609 608/608/608
f 610/610/610 611/611/611 609/609/609
f 610/610/610 612/612/612 611/611/611
f 610/610/610 613/613/613 612/612/612
f 614/614/614 613/613/613 610/610/610
f 615/615/615 613/613/613 614/614/614
f 615/615/615 616/616/616 613/613/613
f 617/617/617 616/616/616 615/615/615
f 618/618/618 616/616/616 617/617/617
f 619/619/619 616/616/616 618/618/618
f 620/620/620 616/616/616 619/619/619
f 621/621/621 616/616/616 620/620/620
f 622/622/622 616/616/616 621/621/621
f 623/623/623 616/616/616 622/622/622
f 624/624/624 616/616/616 623/623/623
f 624/624/624 625/625/625 616/616/616
f 624/624/624 626/626/626 625/625/625
f 624/624/624 627/627/627 626/626/626
f 624/624/624 628/628/628 627/627/627
f 624/624/624 629/629/629 628/628/628
f 624/624/624 630/630/630 629/629/629
f 624/624/624 631/631/631 630/630/630
f 624/624/624 632/632/632 631/631/631
f 624/624/624 633/633/633 632/632/632
f 624/624/624 634/634/634 633/633/633
f 624/624/624 635/635/635 634/634/634
f 624/624/624 636/636/636 635/635/635
f 624/624/624 637/637/637 636/636/636
f 624/624/624 638/638/638 637/637/637
f 639/639/639 638/638/638 624/624/624
