g cPK_20_001460_00_KAIRIKYex_SR_L_SB
v -0.16494885 0.36559883 -0.08657279
v -0.17244804 0.37522602 -0.08694782
v -0.18004845 0.38297853 -0.086993776
v -0.16009204 0.3567988 -0.086181365
v -0.18861166 0.38890684 -0.086993776
v -0.19634257 0.3929542 -0.086993776
v -0.20305704 0.3950976 -0.086993776
v -0.15896986 0.34978983 -0.085801594
v -0.20955102 0.39510784 -0.086993776
v -0.16271944 0.33185282 -0.08458658
v -0.22128665 0.38516858 -0.086102426
v -0.16690408 0.31524372 -0.08325658
v -0.17178646 0.2993214 -0.08185029
v -0.2362591 0.37326235 -0.08516294
v -0.24932154 0.36005375 -0.08373431
v -0.17735696 0.28846422 -0.080405556
v -0.2569786 0.34944436 -0.08258664
v -0.18419865 0.27950785 -0.078814805
v -0.2638415 0.33760273 -0.081410624
v -0.19240867 0.27129772 -0.077055275
v -0.26938266 0.3254505 -0.08041412
v -0.27216884 0.31473097 -0.07970382
v -0.20310663 0.2633365 -0.075225234
v -0.27378795 0.30306134 -0.078909
v -0.21007274 0.25916922 -0.07435981
v -0.27357206 0.2884822 -0.077732675
v -0.27149713 0.27807054 -0.076721564
v -0.21274722 0.25319833 -0.07382568
v -0.26839054 0.26887804 -0.07580346
v -0.21691445 0.24685423 -0.073358916
v -0.26390085 0.25969154 -0.07495477
v -0.2506711 0.23981261 -0.073529914
v -0.25797507 0.24960153 -0.07416397
v -0.24196422 0.23620878 -0.07313565
v -0.22368304 0.23971991 -0.07299592
v -0.22981022 0.23660603 -0.07292149
v -0.10058748 0.31859043 -0.09109372
v -0.112783186 0.43713233 -0.09544072
v -0.11907412 0.4372964 -0.095185615
v -0.091381304 0.31704035 -0.09119737
v -0.07998208 0.3181579 -0.09141213
v -0.08489605 0.35327357 -0.0923126
v -0.08653134 0.35416833 -0.09233296
v -0.067116894 0.3215509 -0.09169809
v -0.07813424 0.35477826 -0.09239437
v -0.056124985 0.3257922 -0.09207081
v -0.06953303 0.35623732 -0.092509165
v -0.050788082 0.3312351 -0.09234219
v -0.06222676 0.35601676 -0.092599824
v -0.048526086 0.3375263 -0.09254378
v -0.055594888 0.353325 -0.09263956
v -0.048632182 0.3430753 -0.0926528
v -0.050858773 0.3485889 -0.092689395
v -0.112498276 0.3233888 -0.091039754
v -0.10667819 0.44123015 -0.09576795
v -0.10130199 0.4441428 -0.09602807
v -0.09494318 0.4464964 -0.09629621
v -0.08590418 0.35910818 -0.0924797
v -0.08121909 0.3650591 -0.092677824
v -0.088345446 0.44669992 -0.09649893
v -0.07301928 0.3736123 -0.09303129
v -0.08110539 0.44484672 -0.096622705
v -0.06566538 0.38134322 -0.093437865
v -0.07549268 0.4418702 -0.09663351
v -0.06156949 0.38154802 -0.09351007
v -0.0671585 0.44157907 -0.09679218
v -0.05836109 0.3833911 -0.09365219
v -0.059357084 0.43897375 -0.09682578
v -0.052761782 0.38237172 -0.09371787
v -0.047834076 0.3801441 -0.093729675
v -0.038472593 0.4337336 -0.09697377
v -0.04940332 0.4332533 -0.09673035
v -0.055588093 0.38584822 -0.093824424
v -0.040881287 0.3798066 -0.09398563
v -0.029891312 0.4322377 -0.09710039
v -0.030485785 0.3877044 -0.09480375
v -0.028227389 0.39370212 -0.09519428
v -0.033725988 0.3831817 -0.0944502
v -0.023516882 0.3919554 -0.09533059
v -0.021344889 0.4281784 -0.09716632
v -0.017026579 0.3922407 -0.095638014
v -0.014799083 0.42298922 -0.097154476
v -0.0116774915 0.3958781 -0.09603647
v -0.009338486 0.4160025 -0.097027294
v -0.007878387 0.40154648 -0.0964398
v -0.007000482 0.40915337 -0.0968063
v -0.12856351 0.43556243 -0.094690464
v -0.12398499 0.3287611 -0.09096443
v -0.12959819 0.3303634 -0.090848856
v -0.14313318 0.4303511 -0.0937176
v -0.14028059 0.3317607 -0.09042189
v -0.16177069 0.4212737 -0.09196692
v -0.15174168 0.33468622 -0.08989433
v -0.1774552 0.41276652 -0.09046196
v -0.1650479 0.3407089 -0.08934412
v -0.19105643 0.40571007 -0.08940251
v -0.1808273 0.34859833 -0.08874829
v -0.19263679 0.3560445 -0.08840358
v -0.19355986 0.35767365 -0.0884123
v -0.20350455 0.39869422 -0.08865587
v -0.21176742 0.3926545 -0.08824648
v -0.20061758 0.36297235 -0.08823142
v -0.21997087 0.3845136 -0.0878796
v -0.22017053 0.37906095 -0.08781864
v -0.21221617 0.3732006 -0.08799839
v -0.20795806 0.3682849 -0.088067904
v 0.13285829 0.23831287 -0.073774874
v 0.12510227 0.2434129 -0.07400918
v 0.13261265 0.23298799 -0.07402027
v 0.08559879 -0.24244873 -0.05500002
v 0.13912322 -0.19305407 -0.055000007
v 0.13005993 -0.18568313 -0.055000007
v 0.0953962 -0.25037253 -0.055000007
v 0.077480994 -0.23446575 -0.055000015
v 0.12491085 -0.1824332 -0.05500002
v 0.072281085 -0.22642283 -0.055000015
v 0.11928836 -0.18045227 -0.055000015
v 0.07011141 -0.21953952 -0.05500002
v 0.1133341 -0.18002908 -0.055000007
v 0.06928839 -0.21190803 -0.05500002
v 0.10723666 -0.18104613 -0.055000015
v 0.07073142 -0.20476294 -0.055000015
v 0.10062648 -0.18368395 -0.05500002
v 0.09464856 -0.18484358 -0.055000015
v 0.0735968 -0.19891146 -0.055000015
v 0.089014664 -0.18637057 -0.05500002
v 0.07858354 -0.19294737 -0.05500002
v 0.08381728 -0.18912648 -0.05500002
v 0.11499616 0.23720029 -0.07463478
v 0.10111004 0.22461417 -0.07500001
v 0.11764375 0.21373045 -0.07489808
v 0.12161099 0.2422746 -0.07425248
v 0.09505796 0.21784912 -0.07500001
v 0.10722586 0.20146096 -0.07500001
v 0.06905385 0.2777041 -0.07500001
v 0.06432625 0.2797852 -0.07500001
v 0.059110343 0.2791991 -0.07500001
v 0.06991805 0.27511185 -0.07500001
v 0.05377716 0.26777098 -0.07500001
v 0.06479913 0.25820136 -0.07500001
v 0.04887086 0.25393996 -0.07500001
v 0.058969177 0.23899476 -0.07500001
v 0.04504577 0.24084781 -0.07500001
v -0.004140556 0.26849756 -0.07500001
v -0.009062851 0.26899987 -0.07500001
v -0.014638245 0.26704097 -0.07500001
v -0.00052415114 0.26236966 -0.07500001
v -0.016546858 0.2634245 -0.07500001
v -0.017350543 0.25167108 -0.07500001
v 0.0029416445 0.24910946 -0.07500001
v -0.015743244 0.23142917 -0.07500001
v 0.006932843 0.23238967 -0.07500001
v -0.014272273 0.21583259 -0.07500001
v 0.06810285 0.23605037 -0.07500001
v 0.03368975 0.24062796 -0.07500001
v 0.079755746 0.22999588 -0.07500001
v 0.023277843 0.23886167 -0.07500001
v 0.08883754 0.22356807 -0.07500001
v 0.013098347 0.23514317 -0.07500001
v -0.022670258 0.20671046 -0.07500001
v 0.11255399 0.1911416 -0.07500001
v -0.031342756 0.19531727 -0.07500001
v 0.116232865 0.17770088 -0.07500001
v -0.037783947 0.19417126 -0.07500001
v 0.11855985 0.16196397 -0.07500001
v -0.04418565 0.19049628 -0.07500001
v -0.04848025 0.18345268 -0.07500001
v -0.05185045 0.17115477 -0.07500001
v 0.12495796 0.15621138 -0.07500001
v -0.052211154 0.15781207 -0.07500001
v 0.12805976 0.14887197 -0.07500001
v -0.049698543 0.14745477 -0.07500001
v 0.12822972 0.14207113 -0.07500001
v -0.04657525 0.14193456 -0.07500001
v 0.12508906 0.13268314 -0.07500001
v -0.046212055 0.12450247 -0.07500001
v 0.119371854 0.12235186 -0.07500001
v -0.04359726 0.10852297 -0.07500001
v 0.111192934 0.10902186 -0.07500001
v -0.03748244 0.09458237 -0.07500001
v 0.10409655 0.09524176 -0.07500001
v -0.026073992 0.079206824 -0.07500001
v 0.09767655 0.08394587 -0.07500001
v -0.012641347 0.066624574 -0.07500001
v 0.09219116 0.07707899 -0.07500001
v 0.0020528438 0.058787704 -0.07500001
v 0.08069886 0.06815498 -0.07500001
v 0.019240558 0.053533386 -0.07500001
v 0.066171944 0.0603328 -0.07500001
v 0.036428344 0.052464794 -0.07500001
v 0.05159656 0.054454114 -0.07500001
v -0.19691119 -0.28828305 -0.07000001
v -0.14005694 -0.31533182 -0.07000001
v -0.12761919 -0.30740827 -0.07000003
v -0.19915359 -0.29957822 -0.07014429
v -0.19672945 -0.26752672 -0.07000001
v -0.11742462 -0.29977998 -0.07000001
v -0.19503279 -0.2529143 -0.07000001
v -0.108493984 -0.2896716 -0.07000001
v -0.1915212 -0.2412523 -0.07000001
v -0.10153812 -0.27785107 -0.07000001
v -0.1833805 -0.22695482 -0.07000001
v -0.0973566 -0.26618454 -0.07000001
v -0.17127208 -0.21115232 -0.07000001
v -0.09432908 -0.25222287 -0.07000001
v -0.1654573 -0.19801772 -0.07000001
v -0.09136708 -0.24841857 -0.07000001
v -0.1624473 -0.18242042 -0.07000001
v -0.07654255 -0.23770633 -0.07000001
v -0.061280817 -0.2260895 -0.07000001
v -0.15752189 -0.16825972 -0.07000001
v -0.04669853 -0.21208695 -0.07000001
v -0.1475341 -0.15197833 -0.07000001
v -0.031122005 -0.19450063 -0.07000001
v -0.1299102 -0.13173673 -0.07000001
v -0.018257057 -0.17732032 -0.07000001
v -0.10607499 -0.111390114 -0.07000001
v -0.00787695 -0.16080032 -0.07000001
v -0.08696629 -0.09832602 -0.07000001
v 0.18583934 -0.14719352 -0.070000015
v 0.17279613 -0.17425413 -0.070000015
v 0.19464383 -0.15855479 -0.07000001
v 0.19984762 -0.16915222 -0.07000001
v 0.20275532 -0.19252388 -0.07000001
v 0.20298648 -0.18085898 -0.07000001
v 0.19810602 -0.20478824 -0.07000001
v 0.11108016 -0.21587293 -0.07000001
v 0.120343484 -0.22109763 -0.07000001
v 0.09823784 -0.19315135 -0.070000045
v 0.09865951 -0.19906102 -0.07000003
v 0.104320705 -0.20949443 -0.07000001
v 0.10108258 -0.20394178 -0.07000001
v 0.18269071 -0.13746992 -0.07000001
v 0.17681532 -0.12811263 -0.07000001
v 0.08723149 -0.18880795 -0.07000003
v 0.07384915 -0.18182258 -0.07000003
v 0.16586182 -0.11502421 -0.07000001
v 0.1524948 -0.10332812 -0.07000001
v 0.13792862 -0.09382331 -0.07000001
v 0.058467347 -0.17259353 -0.07000001
v 0.11703612 -0.08327852 -0.07000001
v 0.04409153 -0.16145392 -0.070000015
v 0.09282242 -0.07242472 -0.07000001
v 0.034475308 -0.15170991 -0.07000001
v 0.0076984703 -0.15824732 -0.07000001
v 0.021365566 -0.15542392 -0.07000001
v 0.088735215 -0.06465162 -0.07000001
v -0.08524549 -0.09015652 -0.07000001
v 0.09083381 -0.06103732 -0.07000001
v 0.09025092 -0.054450016 -0.07000001
v -0.08527759 -0.08279962 -0.07000001
v -0.08781559 -0.07171602 -0.07000001
v -0.08765499 -0.07920142 -0.07000001
v -0.08617709 -0.06811782 -0.07000001
v 0.08758411 -0.050243217 -0.07000001
v -0.08942759 -0.05606202 -0.07000001
v 0.089183815 -0.039656818 -0.07000001
v 0.09247741 -0.03184642 -0.07000001
v 0.11001481 -0.02527682 -0.07000001
v -0.09539213 -0.040819198 -0.07000001
v 0.1254805 -0.016504018 -0.07000001
v -0.10319358 -0.024673719 -0.07000001
v 0.13674401 -0.006447416 -0.07000001
v -0.1116543 -0.012533516 -0.07000001
v 0.14478931 0.00501718 -0.07000001
v -0.124671094 0.0029975243 -0.07000001
v 0.1503204 0.019900983 -0.07000001
v -0.1397339 0.022116184 -0.07000001
v 0.1519561 0.03379038 -0.07000001
v -0.1521068 0.04215498 -0.07000001
v -0.15748629 0.06044538 -0.07000001
v 0.15869981 0.029635185 -0.07000001
v 0.19410662 0.14431058 -0.069961205
v 0.1886191 0.14894658 -0.07000001
v -0.256317 0.2884858 -0.07412759
v -0.26162657 0.280985 -0.073267736
v -0.2651629 0.27280566 -0.07248367
v 0.08764502 0.2547134 -0.07000001
v 0.075677805 0.2472339 -0.07000001
v -0.24876308 0.2948523 -0.075020805
v -0.2645751 0.2635077 -0.07173109
v -0.23053317 0.3021386 -0.07649411
v -0.2602102 0.2539421 -0.07086437
v -0.20981398 0.3048662 -0.07694834
v -0.25305918 0.24168327 -0.06961896
v -0.19339599 0.3017715 -0.07654493
v -0.24358647 0.22923867 -0.068640724
v -0.17619109 0.2958967 -0.07555175
v -0.23248978 0.2191705 -0.068285465
v -0.16003539 0.29147428 -0.07424682
v -0.2141631 0.2065057 -0.06871934
v -0.1407324 0.2919807 -0.073194146
v -0.18562989 0.18808228 -0.06983894
v -0.12299224 0.288686 -0.0722595
v -0.16341668 0.17348199 -0.07000001
v -0.107746996 0.28290102 -0.07184284
v -0.14977048 0.16209298 -0.07000001
v -0.08031796 0.2659639 -0.070533074
v -0.09164003 0.2741215 -0.07114949
v -0.06747048 0.25522205 -0.07000001
v -0.14123979 0.15243608 -0.07000001
v -0.060410287 0.24665539 -0.07000001
v -0.13645528 0.14213608 -0.07000001
v -0.13599008 0.13409539 -0.07000001
v -0.046645775 0.2503818 -0.07000001
v -0.15247308 0.101084985 -0.07000001
v -0.15324758 0.093262985 -0.07000001
v -0.1534098 0.08201938 -0.07000001
v -0.1564104 0.072683886 -0.07000001
v 0.061787315 0.25129417 -0.07000001
v 0.043821484 0.2523627 -0.07000001
v 0.02314492 0.25009024 -0.07000001
v 0.0068445145 0.24323328 -0.07000001
v -0.007949066 0.2489732 -0.07000001
v -0.026364028 0.25141418 -0.07000001
v -0.147652 0.113766484 -0.07000001
v 0.16644041 0.02722928 -0.07000001
v 0.1769529 0.026026381 -0.07000001
v 0.19985501 0.13692269 -0.069537655
v 0.18647172 0.023725182 -0.069401495
v 0.20637481 0.12643729 -0.06845456
v 0.2130963 0.10304659 -0.06590177
v 0.21155043 0.11353208 -0.06678611
v 0.1997562 0.02037788 -0.06799453
v 0.21282743 0.09498078 -0.065652214
v 0.21602182 0.018756581 -0.06523805
v 0.22821963 0.09572019 -0.062239673
v 0.23097992 0.01995948 -0.06192665
v 0.24327572 0.094577484 -0.057353783
v 0.24651332 0.023541594 -0.059040815
v 0.26194248 0.031231254 -0.056452226
v 0.27396002 0.039852094 -0.05584208
v 0.2860211 0.048394334 -0.057250988
v 0.29985067 0.054943886 -0.060134675
v 0.31308764 0.06774571 -0.06123668
v 0.24399422 0.10191908 -0.0553244
v 0.32089695 0.080165185 -0.06120796
v 0.24628492 0.10387459 -0.054959178
v 0.32437503 0.089792885 -0.061026633
v 0.24533513 0.10867938 -0.05495541
v 0.33047432 0.10083208 -0.06065792
v 0.24594973 0.116389476 -0.054989792
v 0.3327901 0.11230848 -0.060233623
v 0.24706712 0.12002108 -0.055000007
v 0.23857482 0.12873678 -0.054921865
v 0.24254163 0.123205684 -0.054957498
v 0.23751333 0.13633518 -0.054989792
v 0.33218125 0.12096639 -0.05995368
v 0.23851903 0.14605659 -0.0549958
v 0.33401754 0.1292861 -0.059757657
v 0.24388252 0.15784518 -0.05468726
v 0.3339515 0.13966829 -0.059756655
v 0.25069872 0.16667268 -0.05508892
v 0.3288407 0.15061997 -0.05944859
v 0.32032272 0.16132829 -0.059060153
v 0.3104087 0.1692795 -0.058833826
v 0.27013513 0.16822578 -0.056506038
v 0.26379782 0.17104928 -0.05586971
v 0.25695863 0.17079829 -0.0553961
v 0.3007672 0.17239289 -0.058512997
v 0.2785215 0.1710371 -0.056962576
v 0.2896192 0.1727946 -0.0579136
v 0.19448511 0.15197419 -0.07000001
v 0.20536552 0.15888089 -0.069968544
v 0.10367252 0.26069698 -0.06961222
v 0.1470537 0.25855997 -0.06576222
v 0.12461521 0.26304767 -0.06775707
v 0.17013332 0.24360096 -0.065129064
v 0.16073053 0.25150788 -0.065210916
v 0.17476985 0.23654878 -0.06546219
v -0.28054994 0.009184647 -0.09235396
v -0.26977614 0.0023732432 -0.091774896
v -0.25548723 -0.00059525896 -0.08650877
v -0.27598876 0.005376042 -0.09227898
v -0.28322756 0.014538742 -0.09205467
v -0.23577714 -0.0027003519 -0.08071099
v -0.28387153 0.022363937 -0.09073326
v -0.20822811 -0.002796864 -0.07590923
v -0.28083932 0.033468045 -0.08737176
v -0.18698055 -0.0013131611 -0.07419939
v -0.27958006 0.043885447 -0.085314065
v -0.16919833 0.0033127316 -0.07340195
v -0.27559206 0.055487465 -0.08239903
v -0.15578744 0.009700931 -0.072924815
v -0.26916263 0.06918504 -0.079427496
v -0.14536254 0.018592848 -0.07189541
v -0.26092023 0.084639445 -0.07394421
v -0.13573314 0.021324253 -0.07118955
v -0.25015932 0.09837674 -0.07153263
v -0.122924246 0.026768744 -0.07070037
v -0.23642202 0.10913765 -0.07068799
v -0.11175054 0.03467214 -0.07052445
v -0.21729134 0.116701245 -0.07049537
v -0.104096234 0.04147624 -0.07049536
v -0.18929881 0.118068375 -0.07049536
v -0.20088172 0.11935818 -0.07049536
v -0.18080215 0.13758765 -0.07049536
v -0.098705545 0.03918114 -0.07049536
v -0.08803083 0.036352336 -0.07049536
v -0.17060103 0.15036272 -0.07049535
v -0.07911753 0.037419844 -0.07049536
v -0.15780793 0.16091867 -0.070495345
v -0.06716193 0.04398475 -0.070495345
v -0.05787493 0.054659437 -0.070495345
v -0.14274074 0.16749975 -0.070495345
v -0.052591037 0.06517394 -0.07049534
v -0.12447816 0.1713165 -0.070495345
v -0.048374534 0.08086574 -0.07049534
v -0.10460166 0.17007315 -0.070495345
v -0.048089426 0.09774884 -0.07049534
v -0.08819097 0.16437918 -0.07049534
v -0.05173253 0.11696594 -0.07049534
v -0.075274386 0.1559237 -0.07049534
v -0.0594545 0.13343742 -0.07049534
v -0.06325122 0.14181407 -0.07049534
v -0.18918055 -0.087959364 -0.096229725
v -0.1734908 -0.08374777 -0.096229725
v -0.15931731 -0.07859128 -0.096229725
v -0.20220359 -0.088556245 -0.096229725
v -0.14854501 -0.07164667 -0.096229725
v -0.2128487 -0.08593555 -0.096229725
v -0.13968651 -0.061530568 -0.096229725
v -0.21971658 -0.0809237 -0.096229725
v -0.1327964 -0.048735023 -0.09622974
v -0.22476183 -0.07373893 -0.096229725
v -0.12721115 -0.033642866 -0.096229725
v -0.22591971 -0.06776428 -0.096229725
v -0.12721115 -0.021503473 -0.096229725
v -0.2800748 -0.08066757 -0.096229725
v -0.2595497 -0.076142885 -0.096229725
v -0.2540414 -0.07089677 -0.096229725
v -0.246697 -0.07319198 -0.096229725
v -0.2344344 -0.07155257 -0.096229725
v -0.2690582 -0.08066757 -0.096229725
v -0.12936543 -0.010931468 -0.096229725
v -0.2880618 -0.0757884 -0.096229725
v -0.13335842 -0.0024267428 -0.096229725
v -0.29819733 -0.056664538 -0.096229725
v -0.13885282 0.0069368132 -0.096229725
v -0.3075071 -0.03459537 -0.096229725
v -0.1464671 0.019507838 -0.096229725
v -0.3135185 -0.017344857 -0.096229725
v -0.15137404 0.03416252 -0.096229725
v -0.15538022 0.04471612 -0.096229725
v -0.31358 -0.00020258353 -0.096229725
v -0.16172332 0.05505092 -0.096229725
v -0.3101283 0.0109616285 -0.09622974
v -0.1697235 0.063934736 -0.09622972
v -0.3046271 0.021532536 -0.09622972
v -0.17736301 0.06877303 -0.09622972
v -0.2960219 0.03344033 -0.0962297
v -0.1848877 0.070332125 -0.09622972
v -0.19192332 0.07004783 -0.09622972
v -0.20002489 0.06748944 -0.09622972
v -0.28799495 0.043410014 -0.0962297
v -0.20658763 0.06773126 -0.09622972
v -0.2520368 0.06286702 -0.09622972
v -0.27293763 0.057795595 -0.09622972
v -0.27812558 0.054310467 -0.09622972
v -0.23527391 0.071113825 -0.09622972
v -0.22782739 0.07169571 -0.09622972
v -0.27306238 -0.4260616 -0.09039404
v -0.26863548 -0.43087864 -0.09093963
v -0.26155755 -0.43472132 -0.0916164
v 0.21292718 -0.29360798 -0.055000015
v 0.21716292 -0.29039726 -0.055000015
v 0.22026943 -0.28538123 -0.055000015
v 0.22124088 -0.27916002 -0.055000015
v 0.20731771 -0.29479083 -0.055000015
v 0.22080334 -0.2734499 -0.055000015
v 0.2022095 -0.29417905 -0.055000015
v 0.21781571 -0.26675442 -0.055000015
v 0.21328597 -0.26207635 -0.055000015
v 0.19289173 -0.31216484 -0.055000015
v 0.19711052 -0.30924255 -0.055000015
v 0.20239793 -0.29955336 -0.055000015
v 0.20096533 -0.30478585 -0.055000015
v 0.18752623 -0.31336 -0.055000015
v 0.171304 -0.30854604 -0.055000015
v 0.20593376 -0.25725135 -0.055000015
v 0.19504802 -0.2522351 -0.055000015
v 0.18200582 -0.31295395 -0.055000015
v 0.1769684 -0.31116447 -0.055000015
v 0.16259359 -0.30314884 -0.055000015
v 0.18395995 -0.24599805 -0.05500002
v 0.1547917 -0.29759124 -0.055000015
v 0.1721131 -0.2367341 -0.055000007
v 0.144946 -0.29125175 -0.055000015
v 0.1608667 -0.22600393 -0.055000007
v 0.1347182 -0.28427675 -0.055000015
v 0.15390436 -0.21663712 -0.055000015
v 0.12038261 -0.26964635 -0.05500002
v 0.1263158 -0.27613243 -0.055000007
v 0.11485471 -0.26448706 -0.055000015
v 0.14979611 -0.20912723 -0.055000007
v 0.1071453 -0.25888184 -0.055000007
v 0.14606212 -0.20238093 -0.05500002
v -0.276013 -0.4201719 -0.089496166
v -0.25358918 -0.43551382 -0.09177648
v -0.27606258 -0.4133856 -0.088504545
v -0.24651687 -0.43426776 -0.091388576
v -0.27437687 -0.40618402 -0.08724759
v -0.24090138 -0.43127322 -0.0907209
v -0.27097198 -0.39967832 -0.086037256
v -0.23586476 -0.4268975 -0.089788176
v -0.23413108 -0.43972942 -0.09243831
v -0.22827403 -0.44595194 -0.09303739
v -0.22089742 -0.4497222 -0.09311239
v -0.26622948 -0.393355 -0.08467056
v -0.23587675 -0.4329228 -0.09133505
v -0.21234162 -0.45052513 -0.09269512
v -0.20389108 -0.44874063 -0.09144526
v -0.19588457 -0.44352055 -0.08935534
v -0.18971206 -0.43664104 -0.086966656
v -0.258751 -0.38624123 -0.08289795
v -0.18404077 -0.42712316 -0.08402198
v -0.25388688 -0.38076913 -0.081583686
v -0.17802423 -0.41709533 -0.08108795
v -0.24655758 -0.36942095 -0.079317056
v -0.17135076 -0.40761754 -0.07898927
v -0.23469618 -0.35511753 -0.07676964
v -0.16611543 -0.3973733 -0.077465706
v -0.22506618 -0.34035733 -0.07433782
v -0.1617824 -0.3870241 -0.075987
v -0.2177575 -0.32756713 -0.07255089
v -0.15632221 -0.37814534 -0.07457969
v -0.14951424 -0.36929673 -0.073170476
v -0.14125986 -0.35886267 -0.07175044
v -0.21086407 -0.31635502 -0.07128552
v -0.13670108 -0.34910342 -0.070900336
v -0.20297408 -0.30796665 -0.07052245
v -0.1344154 -0.33969483 -0.07039099
v -0.1345673 -0.33031148 -0.07012086
v -0.13665062 -0.32225868 -0.07002026
v 0.13090569 -0.22483984 -0.070000015
v 0.1396068 -0.22508419 -0.070000015
v 0.1478983 -0.22212811 -0.07000001
v 0.19262601 -0.21088396 -0.070000015
v 0.17282766 -0.21951532 -0.07000001
v 0.18391325 -0.21646607 -0.07000001
v 0.1608383 -0.22036646 -0.070000015
v 0.21948023 0.17176959 -0.069005184
v 0.23158741 0.18442099 -0.06705937
v 0.17822653 0.2450969 -0.06392348
v 0.2417221 0.19700429 -0.06471779
v 0.18586689 0.25578186 -0.06148983
v 0.25110862 0.211152 -0.062131513
v 0.1993832 0.2712634 -0.05864023
v 0.20113693 0.2755421 -0.058338296
v 0.25791043 0.22693217 -0.05981647
v 0.26539242 0.2518268 -0.057208516
v 0.2775155 0.2859034 -0.057752457
v 0.18309502 0.2846301 -0.059470274
v 0.2810869 0.2983897 -0.05899895
v 0.16840392 0.291764 -0.060545146
v 0.28244728 0.30626267 -0.059891082
v 0.16286172 0.2971729 -0.06083497
v 0.28227913 0.31350848 -0.0606655
v 0.16095851 0.3058872 -0.060813297
v 0.2795089 0.31976417 -0.061177444
v 0.16426401 0.3168052 -0.06078544
v 0.27567342 0.3242738 -0.061488163
v 0.17040044 0.3249605 -0.060991254
v 0.27113542 0.3277527 -0.061714686
v 0.17652856 0.3284991 -0.061204173
v 0.2696134 0.33157334 -0.06218163
v 0.17759082 0.33667448 -0.06198125
v 0.2661482 0.33689916 -0.062814
v 0.2606325 0.3421434 -0.0633586
v 0.1811402 0.3443576 -0.06279277
v 0.25524268 0.3450035 -0.06356155
v 0.2509512 0.3458403 -0.06357276
v 0.24651372 0.3510073 -0.064011715
v 0.18572311 0.3521305 -0.0635248
v 0.24094231 0.3550959 -0.0642637
v 0.23357382 0.35716268 -0.064309314
v 0.19340621 0.3599933 -0.06414416
v 0.22669952 0.35734242 -0.06424254
v 0.22058903 0.36125138 -0.06435323
v 0.20090953 0.3630935 -0.0643377
v 0.21128844 0.364037 -0.06440661
vt 0.83984375 0.61328125
vt 0.8491211 0.62402344
vt 0.8574219 0.6328125
vt 0.83447266 0.6035156
vt 0.8666992 0.6401367
vt 0.8754883 0.64453125
vt 0.8828125 0.64697266
vt 0.8330078 0.5957031
vt 0.8901367 0.64697266
vt 0.83740234 0.5751953
vt 0.9038086 0.6357422
vt 0.84228516 0.55615234
vt 0.84765625 0.53808594
vt 0.92089844 0.6225586
vt 0.9355469 0.6074219
vt 0.8540039 0.5258789
vt 0.94433594 0.59521484
vt 0.8618164 0.515625
vt 0.95214844 0.58154297
vt 0.87109375 0.50634766
vt 0.9584961 0.5678711
vt 0.96191406 0.55566406
vt 0.8833008 0.49731445
vt 0.9633789 0.54248047
vt 0.8911133 0.49243164
vt 0.9633789 0.5258789
vt 0.9609375 0.51416016
vt 0.89404297 0.48583984
vt 0.95751953 0.50341797
vt 0.8989258 0.47851562
vt 0.95214844 0.49316406
vt 0.9370117 0.47045898
vt 0.9453125 0.48168945
vt 0.9272461 0.46655273
vt 0.9067383 0.47045898
vt 0.9135742 0.46679688
vt 0.8486328 0.83984375
vt 0.8623047 0.9746094
vt 0.8696289 0.9746094
vt 0.8378906 0.8378906
vt 0.8251953 0.83935547
vt 0.8305664 0.87939453
vt 0.83251953 0.8803711
vt 0.8105469 0.8432617
vt 0.8232422 0.8808594
vt 0.79785156 0.84814453
vt 0.81347656 0.8828125
vt 0.7919922 0.8540039
vt 0.8051758 0.8823242
vt 0.7895508 0.8613281
vt 0.7973633 0.87939453
vt 0.7895508 0.8676758
vt 0.7919922 0.87402344
vt 0.8623047 0.84521484
vt 0.85546875 0.9790039
vt 0.8496094 0.9824219
vt 0.84228516 0.98535156
vt 0.83203125 0.8857422
vt 0.82666016 0.8925781
vt 0.83447266 0.98535156
vt 0.8173828 0.90234375
vt 0.82666016 0.98339844
vt 0.80908203 0.9111328
vt 0.8198242 0.97998047
vt 0.8041992 0.9111328
vt 0.8105469 0.9794922
vt 0.80078125 0.9135742
vt 0.8017578 0.9765625
vt 0.7944336 0.9121094
vt 0.7885742 0.90966797
vt 0.77783203 0.9707031
vt 0.79052734 0.97021484
vt 0.7973633 0.9160156
vt 0.7807617 0.9091797
vt 0.7680664 0.96875
vt 0.76904297 0.91845703
vt 0.7661133 0.92529297
vt 0.77246094 0.91308594
vt 0.76123047 0.92333984
vt 0.7583008 0.96435547
vt 0.75341797 0.92333984
vt 0.75097656 0.9584961
vt 0.7475586 0.9277344
vt 0.7451172 0.9506836
vt 0.74316406 0.93408203
vt 0.7421875 0.9428711
vt 0.8803711 0.97265625
vt 0.875 0.8515625
vt 0.88134766 0.85302734
vt 0.89697266 0.9667969
vt 0.8935547 0.85498047
vt 0.91796875 0.95654297
vt 0.9067383 0.85791016
vt 0.93603516 0.94677734
vt 0.921875 0.8647461
vt 0.9511719 0.93896484
vt 0.9399414 0.87402344
vt 0.953125 0.8823242
vt 0.95410156 0.88427734
vt 0.96533203 0.93066406
vt 0.97509766 0.9238281
vt 0.96240234 0.8901367
vt 0.9838867 0.9145508
vt 0.9838867 0.9086914
vt 0.97558594 0.90185547
vt 0.9707031 0.8964844
vt 0.06964111 0.22583008
vt 0.07849121 0.23168945
vt 0.06994629 0.21984863
vt 0.79785156 0.6640625
vt 0.7373047 0.72021484
vt 0.7475586 0.7285156
vt 0.7866211 0.65478516
vt 0.8071289 0.67285156
vt 0.75341797 0.7319336
vt 0.8129883 0.6821289
vt 0.7597656 0.734375
vt 0.8154297 0.6899414
vt 0.76660156 0.7348633
vt 0.81640625 0.69873047
vt 0.7734375 0.7338867
vt 0.8149414 0.70654297
vt 0.7807617 0.73095703
vt 0.78759766 0.7294922
vt 0.81152344 0.7133789
vt 0.7939453 0.72753906
vt 0.80566406 0.72021484
vt 0.7998047 0.7246094
vt 0.08996582 0.22460938
vt 0.105773926 0.21032715
vt 0.0869751 0.19787598
vt 0.082458496 0.23034668
vt 0.11260986 0.20263672
vt 0.09881592 0.18395996
vt 0.14221191 0.2705078
vt 0.14758301 0.27294922
vt 0.15344238 0.2722168
vt 0.14123535 0.26757812
vt 0.1595459 0.25927734
vt 0.14697266 0.24841309
vt 0.16516113 0.24365234
vt 0.15368652 0.2265625
vt 0.1694336 0.22875977
vt 0.2253418 0.2602539
vt 0.23095703 0.2607422
vt 0.23730469 0.25854492
vt 0.2211914 0.25317383
vt 0.23950195 0.25439453
vt 0.24035645 0.2409668
vt 0.21728516 0.23815918
vt 0.23852539 0.21801758
vt 0.21276855 0.21911621
vt 0.2368164 0.20031738
vt 0.14331055 0.2232666
vt 0.18237305 0.22851562
vt 0.13000488 0.21643066
vt 0.19421387 0.22644043
vt 0.11968994 0.20910645
vt 0.20581055 0.22229004
vt 0.24645996 0.1899414
vt 0.09277344 0.17224121
vt 0.25634766 0.17700195
vt 0.08856201 0.15698242
vt 0.26367188 0.17565918
vt 0.0859375 0.13903809
vt 0.27075195 0.17150879
vt 0.27563477 0.16345215
vt 0.27954102 0.14953613
vt 0.07867432 0.13256836
vt 0.2800293 0.13439941
vt 0.07513428 0.12420654
vt 0.2770996 0.12261963
vt 0.07495117 0.11645508
vt 0.27368164 0.11633301
vt 0.07849121 0.10583496
vt 0.27319336 0.09649658
vt 0.08502197 0.094055176
vt 0.27026367 0.07836914
vt 0.09429932 0.07891846
vt 0.2631836 0.0625
vt 0.10235596 0.06329346
vt 0.25 0.045196533
vt 0.109680176 0.05041504
vt 0.23498535 0.03074646
vt 0.11590576 0.042633057
vt 0.21826172 0.021835327
vt 0.12890625 0.032470703
vt 0.19873047 0.01586914
vt 0.14550781 0.023590088
vt 0.17919922 0.014656067
vt 0.1619873 0.016921997
vt 0.6191406 0.24377441
vt 0.5541992 0.2130127
vt 0.54003906 0.2220459
vt 0.62158203 0.23095703
vt 0.61865234 0.26733398
vt 0.5288086 0.23071289
vt 0.6166992 0.28393555
vt 0.5185547 0.2421875
vt 0.61279297 0.29711914
vt 0.5107422 0.25561523
vt 0.6035156 0.31347656
vt 0.5058594 0.26879883
vt 0.58984375 0.33129883
vt 0.5024414 0.28466797
vt 0.5830078 0.34643555
vt 0.49902344 0.2890625
vt 0.57958984 0.36401367
vt 0.48217773 0.30126953
vt 0.46484375 0.31445312
vt 0.57421875 0.38012695
vt 0.4482422 0.33032227
vt 0.5629883 0.39868164
vt 0.43041992 0.3503418
vt 0.54296875 0.42163086
vt 0.41601562 0.36987305
vt 0.515625 0.44482422
vt 0.40405273 0.38867188
vt 0.49389648 0.4597168
vt 0.18395996 0.40405273
vt 0.19873047 0.37329102
vt 0.1739502 0.39111328
vt 0.16809082 0.3791504
vt 0.16479492 0.35253906
vt 0.16442871 0.36572266
vt 0.17004395 0.33862305
vt 0.26904297 0.32592773
vt 0.25830078 0.32006836
vt 0.28344727 0.35180664
vt 0.28295898 0.34521484
vt 0.27661133 0.33325195
vt 0.28027344 0.3395996
vt 0.1875 0.41503906
vt 0.19421387 0.42578125
vt 0.29614258 0.35668945
vt 0.3112793 0.3647461
vt 0.20666504 0.44067383
vt 0.22180176 0.45385742
vt 0.23840332 0.46484375
vt 0.32861328 0.37524414
vt 0.26220703 0.47680664
vt 0.3449707 0.38793945
vt 0.28955078 0.48901367
vt 0.35595703 0.39892578
vt 0.3864746 0.39160156
vt 0.3708496 0.3947754
vt 0.2944336 0.49780273
vt 0.49194336 0.46899414
vt 0.2919922 0.5019531
vt 0.29248047 0.50927734
vt 0.49194336 0.47729492
vt 0.49487305 0.4897461
vt 0.49487305 0.4814453
vt 0.49316406 0.49389648
vt 0.2956543 0.51416016
vt 0.49682617 0.5078125
vt 0.29370117 0.5263672
vt 0.29003906 0.53515625
vt 0.27001953 0.54248047
vt 0.50341797 0.52490234
vt 0.2524414 0.5527344
vt 0.51220703 0.54345703
vt 0.2397461 0.56396484
vt 0.52197266 0.5571289
vt 0.23059082 0.57714844
vt 0.5366211 0.57470703
vt 0.22436523 0.59375
vt 0.55371094 0.5966797
vt 0.22241211 0.6098633
vt 0.5678711 0.6191406
vt 0.57421875 0.6401367
vt 0.21484375 0.60498047
vt 0.17456055 0.73535156
vt 0.18078613 0.74072266
vt 0.68652344 0.8989258
vt 0.6923828 0.890625
vt 0.69628906 0.88134766
vt 0.2956543 0.86083984
vt 0.30908203 0.8520508
vt 0.6777344 0.90625
vt 0.6958008 0.87060547
vt 0.65722656 0.9145508
vt 0.69091797 0.8598633
vt 0.6333008 0.91796875
vt 0.6826172 0.8461914
vt 0.6147461 0.9140625
vt 0.671875 0.83203125
vt 0.59521484 0.90771484
vt 0.6591797 0.8203125
vt 0.57714844 0.90234375
vt 0.6386719 0.80615234
vt 0.5551758 0.9033203
vt 0.60595703 0.78515625
vt 0.53515625 0.89941406
vt 0.5810547 0.7685547
vt 0.5175781 0.8930664
vt 0.5654297 0.7553711
vt 0.48632812 0.87353516
vt 0.49926758 0.8828125
vt 0.47192383 0.8613281
vt 0.55566406 0.7446289
vt 0.4638672 0.8515625
vt 0.55029297 0.73291016
vt 0.5498047 0.7236328
vt 0.4482422 0.85595703
vt 0.5683594 0.68603516
vt 0.56933594 0.6772461
vt 0.56933594 0.6645508
vt 0.5727539 0.6538086
vt 0.32495117 0.8569336
vt 0.34545898 0.85791016
vt 0.36889648 0.85546875
vt 0.38745117 0.84765625
vt 0.40429688 0.8544922
vt 0.42504883 0.8569336
vt 0.5629883 0.7006836
vt 0.20605469 0.6020508
vt 0.1940918 0.6010742
vt 0.16809082 0.7270508
vt 0.18322754 0.59814453
vt 0.16064453 0.71484375
vt 0.1529541 0.68847656
vt 0.15478516 0.7001953
vt 0.16821289 0.59472656
vt 0.15332031 0.6791992
vt 0.1496582 0.59277344
vt 0.13586426 0.6801758
vt 0.13269043 0.5942383
vt 0.11871338 0.67871094
vt 0.114990234 0.59814453
vt 0.097473145 0.6069336
vt 0.08380127 0.6166992
vt 0.070129395 0.62646484
vt 0.05441284 0.63378906
vt 0.039367676 0.6484375
vt 0.11785889 0.6870117
vt 0.03048706 0.66259766
vt 0.11529541 0.6894531
vt 0.026535034 0.67333984
vt 0.11633301 0.6948242
vt 0.019607544 0.68603516
vt 0.11566162 0.7036133
vt 0.016983032 0.69873047
vt 0.11437988 0.70751953
vt 0.12402344 0.71777344
vt 0.119506836 0.7114258
vt 0.12524414 0.7260742
vt 0.017669678 0.7089844
vt 0.12408447 0.7373047
vt 0.015579224 0.7182617
vt 0.11798096 0.7504883
vt 0.015655518 0.72998047
vt 0.11022949 0.7602539
vt 0.021438599 0.7421875
vt 0.031051636 0.75390625
vt 0.04220581 0.76220703
vt 0.08807373 0.76171875
vt 0.095581055 0.7631836
vt 0.10321045 0.7636719
vt 0.053100586 0.76464844
vt 0.078430176 0.76416016
vt 0.06573486 0.76464844
vt 0.17419434 0.7441406
vt 0.16174316 0.7519531
vt 0.27734375 0.8676758
vt 0.22802734 0.8652344
vt 0.25341797 0.8701172
vt 0.20178223 0.84814453
vt 0.21252441 0.8569336
vt 0.1965332 0.84033203
vt 0.98046875 0.2783203
vt 0.96777344 0.27197266
vt 0.95166016 0.26757812
vt 0.9746094 0.27514648
vt 0.9838867 0.2836914
vt 0.9296875 0.2644043
vt 0.984375 0.29248047
vt 0.8984375 0.2644043
vt 0.98095703 0.30541992
vt 0.8745117 0.26586914
vt 0.9794922 0.31762695
vt 0.8540039 0.27124023
vt 0.97509766 0.3305664
vt 0.8388672 0.27856445
vt 0.96777344 0.3461914
vt 0.82714844 0.28857422
vt 0.9584961 0.3635254
vt 0.81591797 0.29174805
vt 0.94628906 0.37939453
vt 0.8017578 0.29785156
vt 0.93066406 0.39160156
vt 0.7890625 0.30688477
vt 0.9086914 0.40014648
vt 0.78027344 0.31469727
vt 0.8769531 0.40185547
vt 0.8901367 0.40307617
vt 0.8671875 0.42382812
vt 0.7739258 0.31201172
vt 0.76171875 0.3088379
vt 0.85546875 0.43847656
vt 0.75146484 0.3100586
vt 0.8413086 0.45043945
vt 0.73779297 0.31762695
vt 0.72753906 0.32983398
vt 0.82421875 0.4580078
vt 0.7211914 0.34179688
vt 0.80322266 0.46240234
vt 0.7167969 0.35961914
vt 0.78027344 0.4609375
vt 0.7163086 0.3786621
vt 0.76171875 0.4543457
vt 0.7207031 0.40039062
vt 0.7475586 0.44458008
vt 0.72998047 0.4189453
vt 0.734375 0.4284668
vt 0.83447266 0.04736328
vt 0.81689453 0.052337646
vt 0.80029297 0.057617188
vt 0.8491211 0.046081543
vt 0.78808594 0.06512451
vt 0.8613281 0.04876709
vt 0.77783203 0.07647705
vt 0.8691406 0.05441284
vt 0.77001953 0.09100342
vt 0.8745117 0.06262207
vt 0.7636719 0.10809326
vt 0.87597656 0.06976318
vt 0.7636719 0.12194824
vt 0.9375 0.055480957
vt 0.9145508 0.060760498
vt 0.9082031 0.066101074
vt 0.89990234 0.06414795
vt 0.88623047 0.06652832
vt 0.92529297 0.05645752
vt 0.7661133 0.13391113
vt 0.94677734 0.060455322
vt 0.7709961 0.14355469
vt 0.9580078 0.08203125
vt 0.77685547 0.15429688
vt 0.96875 0.107055664
vt 0.78564453 0.1685791
vt 0.97558594 0.12658691
vt 0.7915039 0.18518066
vt 0.79589844 0.19714355
vt 0.97558594 0.14611816
vt 0.80322266 0.2088623
vt 0.9716797 0.15881348
vt 0.8120117 0.21899414
vt 0.96533203 0.17077637
vt 0.8208008 0.22436523
vt 0.9555664 0.18432617
vt 0.82910156 0.22595215
vt 0.83740234 0.22473145
vt 0.8466797 0.22277832
vt 0.94628906 0.19567871
vt 0.8540039 0.2232666
vt 0.9057617 0.21765137
vt 0.9291992 0.21191406
vt 0.9350586 0.20788574
vt 0.88671875 0.22619629
vt 0.87841797 0.22631836
vt 0.7050781 0.08734131
vt 0.69970703 0.082336426
vt 0.6923828 0.07751465
vt 0.6533203 0.60595703
vt 0.6484375 0.609375
vt 0.64501953 0.6152344
vt 0.6435547 0.6220703
vt 0.65966797 0.6044922
vt 0.64404297 0.62890625
vt 0.66552734 0.60498047
vt 0.64746094 0.63623047
vt 0.65283203 0.64160156
vt 0.67578125 0.58447266
vt 0.6713867 0.5878906
vt 0.66503906 0.5991211
vt 0.6669922 0.5932617
vt 0.6821289 0.5834961
vt 0.7006836 0.5888672
vt 0.6611328 0.64697266
vt 0.67333984 0.65283203
vt 0.68847656 0.5839844
vt 0.69384766 0.5859375
vt 0.7104492 0.59472656
vt 0.68603516 0.65966797
vt 0.7192383 0.6010742
vt 0.69970703 0.67041016
vt 0.73046875 0.60839844
vt 0.71240234 0.6826172
vt 0.7421875 0.61621094
vt 0.72021484 0.6933594
vt 0.7583008 0.6328125
vt 0.75146484 0.6254883
vt 0.76464844 0.6386719
vt 0.72509766 0.70166016
vt 0.7734375 0.6455078
vt 0.7290039 0.70947266
vt 0.7084961 0.094055176
vt 0.68310547 0.07635498
vt 0.7084961 0.101745605
vt 0.67529297 0.07775879
vt 0.70703125 0.10992432
vt 0.6689453 0.08123779
vt 0.703125 0.11730957
vt 0.66308594 0.086242676
vt 0.6611328 0.07171631
vt 0.65478516 0.064575195
vt 0.6459961 0.060302734
vt 0.6977539 0.12463379
vt 0.66308594 0.0793457
vt 0.63623047 0.059387207
vt 0.6269531 0.061401367
vt 0.6176758 0.06732178
vt 0.61083984 0.07513428
vt 0.68896484 0.13256836
vt 0.6044922 0.085998535
vt 0.68359375 0.13879395
vt 0.59765625 0.097351074
vt 0.67529297 0.15148926
vt 0.58984375 0.1081543
vt 0.6616211 0.16784668
vt 0.5839844 0.11975098
vt 0.6508789 0.18457031
vt 0.57910156 0.1315918
vt 0.6425781 0.19909668
vt 0.5727539 0.14160156
vt 0.5649414 0.1517334
vt 0.55566406 0.16357422
vt 0.6347656 0.21179199
vt 0.55029297 0.17468262
vt 0.62597656 0.22143555
vt 0.54785156 0.18530273
vt 0.54785156 0.19604492
vt 0.55029297 0.20507812
vt 0.24633789 0.31591797
vt 0.2364502 0.31567383
vt 0.22705078 0.31884766
vt 0.17626953 0.3317871
vt 0.19873047 0.32177734
vt 0.18615723 0.32543945
vt 0.21240234 0.32080078
vt 0.14575195 0.76660156
vt 0.13195801 0.7807617
vt 0.19262695 0.85009766
vt 0.1204834 0.79541016
vt 0.18395996 0.8618164
vt 0.109802246 0.81152344
vt 0.1685791 0.87939453
vt 0.16662598 0.88427734
vt 0.10205078 0.82910156
vt 0.093566895 0.8574219
vt 0.07977295 0.8959961
vt 0.18713379 0.89501953
vt 0.07574463 0.91064453
vt 0.20373535 0.90283203
vt 0.074157715 0.9194336
vt 0.21008301 0.9091797
vt 0.074401855 0.9277344
vt 0.21228027 0.9189453
vt 0.07751465 0.9345703
vt 0.2084961 0.93115234
vt 0.08190918 0.9399414
vt 0.20153809 0.9404297
vt 0.08703613 0.94384766
vt 0.19458008 0.9448242
vt 0.08874512 0.9482422
vt 0.19335938 0.95410156
vt 0.0927124 0.95410156
vt 0.09899902 0.95996094
vt 0.18933105 0.9628906
vt 0.10510254 0.9633789
vt 0.10998535 0.96435547
vt 0.114990234 0.97021484
vt 0.18408203 0.9716797
vt 0.12133789 0.97509766
vt 0.12976074 0.9770508
vt 0.17541504 0.98046875
vt 0.13757324 0.97753906
vt 0.14453125 0.9819336
vt 0.16687012 0.9838867
vt 0.1550293 0.9848633
vn -0.06414795 -0.079833984 -0.9946289
vn -0.15966797 -0.16235352 -0.9736328
vn -0.045898438 -0.06591797 -0.99658203
vn -0.034210205 -0.059295654 -0.9975586
vn -0.026046753 -0.04840088 -0.99853516
vn -0.011734009 -0.034210205 -0.9995117
vn -0.0017871857 -0.02772522 -0.9995117
vn -0.03112793 -0.060668945 -0.9975586
vn -0.02470398 -0.055145264 -0.9980469
vn -0.03564453 -0.06707764 -0.9970703
vn -0.02267456 -0.056884766 -0.9980469
vn -0.035583496 -0.07318115 -0.99658203
vn -0.047332764 -0.09082031 -0.9946289
vn -0.027359009 -0.065979004 -0.9975586
vn -0.03527832 -0.07824707 -0.99609375
vn -0.061401367 -0.11291504 -0.9916992
vn -0.033203125 -0.083740234 -0.99609375
vn -0.06707764 -0.12976074 -0.9892578
vn -0.022598267 -0.08251953 -0.99609375
vn -0.058563232 -0.14111328 -0.98828125
vn -0.0077590942 -0.07287598 -0.9970703
vn -0.00021886826 -0.071899414 -0.9975586
vn -0.04547119 -0.15148926 -0.9873047
vn 0.012916565 -0.07476807 -0.9970703
vn -0.014427185 -0.12512207 -0.9921875
vn 0.014328003 -0.083618164 -0.99658203
vn 0.008872986 -0.095214844 -0.99560547
vn 0.010719299 -0.08850098 -0.99609375
vn 0.00869751 -0.09411621 -0.99560547
vn 0.013626099 -0.07678223 -0.9970703
vn 0.011314392 -0.082458496 -0.99658203
vn 0.01637268 -0.053894043 -0.99853516
vn 0.0152282715 -0.064819336 -0.9975586
vn 0.01953125 -0.0619812 -0.9980469
vn 0.019500732 -0.068847656 -0.9975586
vn 0.019622803 -0.062469482 -0.9980469
vn -0.01890564 -0.03842163 -0.99902344
vn -0.033477783 -0.04006958 -0.99853516
vn -0.042510986 -0.039611816 -0.99853516
vn -0.01361084 -0.036224365 -0.99902344
vn -0.015380859 -0.02696228 -0.9995117
vn -0.0077171326 -0.027435303 -0.9995117
vn 0.05218506 -0.03768921 -0.9980469
vn -0.018447876 -0.025527954 -0.9995117
vn -0.009338379 -0.025253296 -0.9995117
vn -0.024291992 -0.024307251 -0.9995117
vn -0.012832642 -0.023025513 -0.9995117
vn -0.026870728 -0.022323608 -0.9995117
vn -0.014129639 -0.019638062 -0.9995117
vn -0.032104492 -0.020401001 -0.9995117
vn -0.014389038 -0.016571045 -1
vn -0.03378296 -0.02027893 -0.99902344
vn -0.030059814 -0.019500732 -0.9995117
vn -0.021347046 -0.03704834 -0.99902344
vn -0.026473999 -0.039794922 -0.99902344
vn -0.027053833 -0.04006958 -0.99902344
vn -0.0262146 -0.042541504 -0.99853516
vn 0.051330566 -0.04434204 -0.9975586
vn 0.011734009 -0.046813965 -0.99902344
vn -0.028747559 -0.04711914 -0.99853516
vn 0.006099701 -0.0501709 -0.99853516
vn -0.02796936 -0.05041504 -0.99853516
vn -0.0042686462 -0.053619385 -0.99853516
vn -0.024917603 -0.054779053 -0.9980469
vn -0.014602661 -0.056396484 -0.99853516
vn -0.021774292 -0.05633545 -0.9980469
vn -0.013320923 -0.057647705 -0.9980469
vn -0.023223877 -0.057006836 -0.9980469
vn -0.02708435 -0.05618286 -0.9980469
vn -0.03451538 -0.054382324 -0.9980469
vn -0.022583008 -0.05593872 -0.9980469
vn -0.02168274 -0.05758667 -0.9980469
vn -0.022079468 -0.058288574 -0.9980469
vn -0.03866577 -0.05267334 -0.9980469
vn -0.027374268 -0.052978516 -0.9980469
vn -0.037719727 -0.050964355 -0.9980469
vn -0.04095459 -0.049438477 -0.9980469
vn -0.04055786 -0.050750732 -0.9980469
vn -0.044952393 -0.046966553 -0.9980469
vn -0.033569336 -0.049987793 -0.9980469
vn -0.04425049 -0.045715332 -0.9980469
vn -0.03704834 -0.04788208 -0.9980469
vn -0.043945312 -0.044006348 -0.9980469
vn -0.03677368 -0.04638672 -0.9980469
vn -0.04135132 -0.04333496 -0.9980469
vn -0.03717041 -0.044799805 -0.99853516
vn -0.04852295 -0.037322998 -0.9980469
vn -0.02507019 -0.03591919 -0.99902344
vn -0.03970337 -0.035369873 -0.99853516
vn -0.06329346 -0.035705566 -0.9975586
vn -0.051208496 -0.033294678 -0.9980469
vn -0.076293945 -0.03451538 -0.99658203
vn -0.055786133 -0.028961182 -0.9980469
vn -0.07232666 -0.030441284 -0.9970703
vn -0.05230713 -0.02368164 -0.99853516
vn -0.058746338 -0.023849487 -0.9980469
vn -0.04626465 -0.019729614 -0.99853516
vn -0.04067993 -0.018798828 -0.99902344
vn -0.038269043 -0.017227173 -0.99902344
vn -0.046905518 -0.017242432 -0.99853516
vn -0.037139893 -0.014320374 -0.99902344
vn -0.036254883 -0.014518738 -0.99902344
vn -0.03253174 -0.011810303 -0.9995117
vn -0.030014038 -0.01007843 -0.9995117
vn -0.03100586 -0.011940002 -0.9995117
vn -0.0309906 -0.012168884 -0.9995117
vn 0.058563232 0.043273926 -0.9975586
vn 0.056427002 0.04168701 -0.9975586
vn 0.040130615 0.018218994 -0.99902344
vn -0 0 -1
vn -0 0 -1
vn -0 0 -1
vn -0 0 -1
vn -0 0 -1
vn 1.1920929E-06 0 -1
vn -0 0 -1
vn -1.4901161E-06 0 -1
vn -0 0 -1
vn -0 0 -1
vn -0 0 -1
vn 1.847744E-06 -1.1920929E-06 -1
vn -1.9073486E-06 0 -1
vn 3.8146973E-06 -2.861023E-06 -1
vn -2.9802322E-06 1.7881393E-06 -1
vn -1.1324883E-06 0 -1
vn -0 -2.9206276E-06 -1
vn 2.682209E-06 -2.2649765E-06 -1
vn 3.3974648E-06 0 -1
vn 0.030075073 0.015380859 -0.9995117
vn 0.009788513 0.007411957 -1
vn 0.018478394 0.0090408325 -1
vn 0.04309082 0.02609253 -0.99853516
vn -0 0 -1
vn 0.0005478859 0.00014472008 -1
vn -0 0 -1
vn -0 0 -1
vn -0 0 -1
vn -0 0 -1
vn -0 0 -1
vn -0 0 -1
vn -0 0 -1
vn -0 0 -1
vn -0 0 -1
vn -0 0 -1
vn -0 0 -1
vn -1.013279E-06 0 -1
vn -0 0 -1
vn -0 0 -1
vn -0 0 -1
vn -0 0 -1
vn -0 0 -1
vn -0 0 -1
vn -0 0 -1
vn -0 0 -1
vn -0 0 -1
vn -0 0 -1
vn -0 0 -1
vn -0 0 -1
vn -0 0 -1
vn -0 0 -1
vn -0 0 -1
vn -0 0 -1
vn -0 0 -1
vn -0 0 -1
vn -0 0 -1
vn -0 0 -1
vn -0 0 -1
vn -0 0 -1
vn -0 0 -1
vn -0 0 -1
vn -0 0 -1
vn -0 0 -1
vn -0 0 -1
vn -0 0 -1
vn -0 0 -1
vn -0 0 -1
vn -0 0 -1
vn -0 0 -1
vn -0 0 -1
vn -0 0 -1
vn -0 0 -1
vn -0 0 -1
vn -0 0 -1
vn -0 0 -1
vn -0 0 -1
vn -0 0 -1
vn -0 0 -1
vn -0 0 -1
vn -0 0 -1
vn -0 0 -1
vn -0 0 -1
vn 0.0013923645 0.0029258728 -1
vn 0.0014247894 0.0020484924 -1
vn -0 0 -1
vn 0.0116119385 0.022994995 -0.9995117
vn -0 0 -1
vn -0 0 -1
vn -0 0 -1
vn -0 0 -1
vn -0 0 -1
vn -0 0 -1
vn -0 0 -1
vn -0 0 -1
vn -0 0 -1
vn -0 0 -1
vn -0 0 -1
vn -0 0 -1
vn -0 0 -1
vn -0 0 -1
vn -0 0 -1
vn -0 0 -1
vn -0 0 -1
vn -0 0 -1
vn -0 0 -1
vn -0 0 -1
vn -0 0 -1
vn -0 0 -1
vn -0 0 -1
vn -0 0 -1
vn -0 0 -1
vn -0 0 -1
vn -0 0 -1
vn -0 0 -1
vn -0 0 -1
vn -0 0 -1
vn 1.3113022E-06 0 -1
vn -0 0 -1
vn -0 0 -1
vn -0 0 -1
vn 1.1920929E-06 -3.0398369E-06 -1
vn -0 0 -1
vn -0 -2.0861626E-06 -1
vn -0 0 -1
vn -0 0 -1
vn -0 0 -1
vn -0 0 -1
vn -0 0 -1
vn -0 0 -1
vn -0 0 -1
vn -0 0 -1
vn -0 0 -1
vn -0 0 -1
vn -0 0 -1
vn -0 0 -1
vn -0 0 -1
vn -0 0 -1
vn -0 0 -1
vn -0 0 -1
vn -0 0 -1
vn -0 0 -1
vn -0 0 -1
vn -0 0 -1
vn -0 0 -1
vn -0 0 -1
vn -0 0 -1
vn -0 0 -1
vn -0 0 -1
vn -0 0 -1
vn -0 0 -1
vn -0 0 -1
vn -0 0 -1
vn -0 0 -1
vn -0 0 -1
vn -0 0 -1
vn -0 0 -1
vn -0 0 -1
vn -0 0 -1
vn -0 0 -1
vn -0 0 -1
vn -0 0 -1
vn -0 0 -1
vn 0.00014328957 0.00014925003 -1
vn 0.022247314 -0.005191803 -0.9995117
vn 0.00014460087 -3.6239624E-05 -1
vn -0.056854248 -0.07232666 -0.99560547
vn -0.06781006 -0.066101074 -0.99560547
vn -0.042510986 -0.08294678 -0.99560547
vn 0.0072250366 0.0075149536 -1
vn -0 0 -1
vn -0.048431396 -0.08001709 -0.99560547
vn -0.02796936 -0.097839355 -0.9946289
vn -0.011413574 -0.10852051 -0.9941406
vn -0.013458252 -0.10668945 -0.9941406
vn -0.00024747849 -0.11529541 -0.99316406
vn -0.016479492 -0.099609375 -0.9951172
vn 0.010604858 -0.11743164 -0.99316406
vn -0.024230957 -0.083618164 -0.99609375
vn 0.031402588 -0.12182617 -0.9921875
vn -0.037750244 -0.052459717 -0.9980469
vn 0.04437256 -0.10253906 -0.99365234
vn -0.044525146 -0.02281189 -0.99853516
vn 0.029266357 -0.054779053 -0.9980469
vn -0.030014038 -0.013954163 -0.9995117
vn 0.02368164 -0.034179688 -0.99902344
vn -0.012275696 -0.013305664 -1
vn 0.02218628 -0.02494812 -0.9995117
vn -0.00039172173 -0.008270264 -1
vn 0.028808594 -0.024398804 -0.9995117
vn 0.031204224 -0.026443481 -0.99902344
vn 0.01486969 -0.013137817 -1
vn -0 0 -1
vn -0 0 -1
vn -0 0 -1
vn -0 0 -1
vn -0 0 -1
vn -0 0 -1
vn -0 0 -1
vn -0 0 -1
vn -0 0 -1
vn -0 0 -1
vn -0 0 -1
vn -0 0 -1
vn -0 0 -1
vn -0 0 -1
vn -0 0 -1
vn -0 0 -1
vn 0.0012893677 0.0020389557 -1
vn 0.029846191 0.00051641464 -0.9995117
vn 0.07385254 -0.014915466 -0.9970703
vn 0.089416504 0.003332138 -0.99609375
vn 0.1430664 -0.023895264 -0.9892578
vn 0.25585938 -0.043304443 -0.9658203
vn 0.22912598 -0.03564453 -0.97265625
vn 0.14440918 0.010734558 -0.9892578
vn 0.21447754 -0.01209259 -0.9765625
vn 0.19384766 0.014701843 -0.98095703
vn 0.2644043 -0.008415222 -0.96435547
vn 0.19897461 0.027236938 -0.9794922
vn 0.18432617 0.053009033 -0.9814453
vn 0.16564941 0.030960083 -0.98583984
vn 0.11407471 0.019470215 -0.99316406
vn -0.0054893494 -0.030685425 -0.9995117
vn -0.1104126 -0.10437012 -0.98828125
vn -0.09918213 -0.035858154 -0.9946289
vn -0.076171875 0.025131226 -0.99658203
vn 0.031829834 0.15722656 -0.9868164
vn -0.067871094 0.043914795 -0.99658203
vn -0.056610107 0.05493164 -0.9970703
vn -0.059936523 0.05429077 -0.99658203
vn -0.07836914 0.0003066063 -0.9970703
vn -0.05593872 0.055114746 -0.9970703
vn -0.070007324 0.013008118 -0.9975586
vn -0.05444336 0.03894043 -0.9975586
vn -0.06524658 -0.028427124 -0.9975586
vn -0.056549072 -0.019332886 -0.9980469
vn -0.0635376 -0.043273926 -0.9970703
vn -0.05117798 -0.0024547577 -0.99853516
vn -0.049224854 0.030258179 -0.99853516
vn -0.047912598 0.024871826 -0.99853516
vn -0.04849243 0.015007019 -0.99853516
vn -0.049468994 0.032592773 -0.9980469
vn -0.05154419 0.003293991 -0.99853516
vn -0.056762695 -0.0034542084 -0.99853516
vn -0.05618286 -0.00043582916 -0.99853516
vn -0.057617188 -0.013511658 -0.9980469
vn -0.056762695 -0.042907715 -0.9975586
vn -0.06390381 -0.08685303 -0.9941406
vn -0.07128906 0.064331055 -0.99560547
vn -0.075805664 0.041656494 -0.99609375
vn -0.06347656 -0.0949707 -0.99365234
vn -0.05819702 0.006137848 -0.9980469
vn -0.058807373 -0.16174316 -0.9848633
vn 0.0012521744 0.0036964417 -1
vn 0.01689148 0.037506104 -0.99902344
vn 0.0368042 0.03845215 -0.99853516
vn 0.10675049 0.10418701 -0.98876953
vn 0.085510254 0.08734131 -0.9926758
vn 0.08569336 0.092285156 -0.9921875
vn 0.088012695 0.093322754 -0.9916992
vn 0.08166504 0.10876465 -0.99072266
vn 0.30395508 0.2277832 -0.9248047
vn 0.38623047 0.54785156 -0.7421875
vn 0.29907227 0.20959473 -0.93115234
vn 0.16491699 0.1784668 -0.97021484
vn 0.2915039 0.18493652 -0.93847656
vn 0.17858887 -0.05001831 -0.9824219
vn 0.25927734 0.19421387 -0.94628906
vn 0.1048584 -0.11035156 -0.98828125
vn 0.21911621 0.17871094 -0.9589844
vn 0.076416016 -0.095458984 -0.9926758
vn 0.17785645 0.16882324 -0.9692383
vn 0.066101074 -0.050598145 -0.99658203
vn 0.14855957 0.15917969 -0.9760742
vn 0.07293701 0.01638794 -0.9970703
vn 0.14746094 0.20129395 -0.9682617
vn 0.070495605 0.06512451 -0.99560547
vn 0.12249756 0.18664551 -0.9746094
vn 0.03302002 0.04269409 -0.99853516
vn 0.057861328 0.08203125 -0.9951172
vn 0.013763428 0.018554688 -0.9995117
vn 0.021530151 0.029693604 -0.9995117
vn 0.0047073364 0.006641388 -1
vn 0.005290985 0.007095337 -1
vn 0.00030517578 0.00045919418 -1
vn -0 0 -1
vn -0 0 -1
vn -0 0 -1
vn -0 0 -1
vn -0 0 -1
vn -0 0 -1
vn -0 0 -1
vn -0 0 -1
vn -0 0 -1
vn -0 0 -1
vn -0 0 -1
vn -0 0 -1
vn -0 0 -1
vn -0 0 -1
vn -0 0 -1
vn -0 0 -1
vn -0 0 -1
vn -0 0 -1
vn -0 0 -1
vn -1.1324883E-06 0 -1
vn -1.1324883E-06 0 -1
vn -0 0 -1
vn 3.516674E-06 0 -1
vn -0 0 -1
vn -0 0 -1
vn -0 0 -1
vn -0 0 -1
vn -0 0 -1
vn -0 0 -1
vn -0 0 -1
vn -0 0 -1
vn -0 0 -1
vn -0 0 -1
vn -0 0 -1
vn -0 0 -1
vn -0 0 -1
vn -0 0 -1
vn -0 0 -1
vn -0 0 -1
vn -0 0 -1
vn -0 0 -1
vn -0 0 -1
vn -0 0 -1
vn -0 0 -1
vn -0 0 -1
vn -0 0 -1
vn -0 0 -1
vn -0 0 -1
vn -0 0 -1
vn -0 0 -1
vn -0 0 -1
vn -0 0 -1
vn -0 0 -1
vn -0 0 -1
vn -0 2.3245811E-06 -1
vn -0 0 -1
vn -0 1.0728836E-06 -1
vn -0 0 -1
vn -0 0 -1
vn 2.8014183E-06 -1.4305115E-06 -1
vn -0 0 -1
vn -0 0 -1
vn -0 0 -1
vn -0 0 -1
vn -0 -1.2516975E-06 -1
vn -0 0 -1
vn -0 0 -1
vn 0.011329651 0.15454102 -0.98779297
vn -0.067871094 0.05050659 -0.99658203
vn -0.0062828064 0.13781738 -0.9902344
vn 1.1324883E-06 0 -1
vn 3.2782555E-06 0 -1
vn -0 0 -1
vn -0 0 -1
vn -0 0 -1
vn -0 0 -1
vn -0 0 -1
vn -0 0 -1
vn -0 0 -1
vn -1.4901161E-06 0 -1
vn -0 0 -1
vn 2.6226044E-06 0 -1
vn -0 0 -1
vn -0 0 -1
vn -0 0 -1
vn -0 0 -1
vn -0 0 -1
vn -0 0 -1
vn -0 0 -1
vn -0 0 -1
vn -0 0 -1
vn -0 0 -1
vn -0 0 -1
vn -0 0 -1
vn 1.013279E-06 0 -1
vn -0 0 -1
vn -0 0 -1
vn 1.4901161E-06 0 -1
vn -0 0 -1
vn -0 0 -1
vn -0 0 -1
vn -0 0 -1
vn -0 0 -1
vn -0.0013885498 0.14465332 -0.9892578
vn 0.019332886 0.1652832 -0.98583984
vn 0.017532349 0.16296387 -0.9863281
vn 0.025222778 0.17053223 -0.9848633
vn 0.024215698 0.16918945 -0.98535156
vn 0.028503418 0.17321777 -0.984375
vn 0.03265381 0.17834473 -0.98339844
vn 0.10168457 0.2376709 -0.9658203
vn 0.08654785 0.18066406 -0.9794922
vn 0.074035645 0.16430664 -0.98339844
vn 0.06427002 0.16137695 -0.9848633
vn 0.0670166 0.18688965 -0.97998047
vn 0.12036133 0.23449707 -0.96484375
vn 0.09484863 0.21130371 -0.97265625
vn 0.10321045 0.22460938 -0.96875
vn 0.107055664 0.23840332 -0.96533203
vn 0.10821533 0.23291016 -0.9663086
vn 0.07354736 0.1743164 -0.9819336
vn 0.110839844 0.22363281 -0.9682617
vn 0.07867432 0.15844727 -0.984375
vn 0.096191406 0.1850586 -0.97802734
vn 0.0715332 0.13415527 -0.98828125
vn 0.07281494 0.13647461 -0.98779297
vn 0.06524658 0.12121582 -0.99072266
vn 0.061279297 0.116760254 -0.99121094
vn 0.0592041 0.11462402 -0.9916992
vn 0.06112671 0.11633301 -0.99121094
vn 0.050201416 0.09741211 -0.9941406
vn 0.06188965 0.1149292 -0.99121094
vn 0.053863525 0.10284424 -0.99316406
vn 0.04324341 0.08355713 -0.99560547
vn 0.039794922 0.07507324 -0.99658203
vn 0.03137207 0.06124878 -0.9975586
vn 0.02645874 0.050598145 -0.99853516
vn 0.020889282 0.041778564 -0.99902344
vn 0.012451172 0.025405884 -0.9995117
vn 0.006439209 0.012283325 -1
vn -0 0 -1
vn -0 0 -1
vn -0 0 -1
vn -0 0 -1
vn -0 0 -1
vn -0 0 -1
vn -0 0 -1
vn 0.030532837 0.07861328 -0.99658203
vn 0.064697266 0.111450195 -0.9916992
vn 0.103637695 0.13842773 -0.9848633
vn 0.07598877 0.12512207 -0.9892578
vn 0.08154297 0.12854004 -0.98828125
vn 0.07751465 0.12231445 -0.9892578
vn 0.057556152 0.109375 -0.9921875
vn 0.023406982 -0.023101807 -0.9995117
vn 0.06185913 0.10241699 -0.9926758
vn 0.02758789 0.027145386 -0.99902344
vn 0.015014648 -0.06149292 -0.9980469
vn 0.019500732 -0.105041504 -0.9941406
vn 0.018234253 -0.109375 -0.99365234
vn 0.01675415 -0.053222656 -0.99853516
vn 0.0119018555 -0.10723877 -0.9941406
vn 0.009590149 -0.007774353 -1
vn 0.0042419434 -0.09197998 -0.99560547
vn 0.004245758 0.001250267 -1
vn -0.0021381378 -0.078186035 -0.9970703
vn 5.9604645E-05 -0.005252838 -1
vn -0.005302429 -0.07281494 -0.9975586
vn -0.003030777 -0.026107788 -0.9995117
vn -0.0069084167 -0.08959961 -0.99609375
vn -0.005622864 -0.074157715 -0.9970703
vn -0.009056091 -0.12438965 -0.9921875
vn -0.007293701 -0.09710693 -0.9951172
vn -0.009269714 -0.120666504 -0.9926758
vn -0.010185242 -0.1116333 -0.99365234
vn -0.009162903 -0.097351074 -0.9951172
vn -0.009567261 -0.088134766 -0.99609375
vn -0.009674072 -0.08099365 -0.99658203
vn -0.009635925 -0.089660645 -0.99609375
vn -0.009162903 -0.08544922 -0.99609375
vn -0.009414673 -0.07312012 -0.9970703
vn -0.010231018 -0.05834961 -0.9980469
vn -0.008384705 -0.068237305 -0.9975586
vn -0.009353638 -0.05380249 -0.99853516
vn -0.004016876 -0.034484863 -0.9995117
vn -0.006511688 -0.045684814 -0.99902344
vn -0.003753662 -0.031677246 -0.9995117
g cPK_20_001460_00_KAIRIKYex_SR_L_SB_0
f 3/3/3 2/2/2 1/1/1
f 5/5/5 3/3/3 4/4/4
f 3/3/3 1/1/1 4/4/4
f 7/7/7 6/6/6 4/4/4
f 6/6/6 5/5/5 4/4/4
f 9/9/9 7/7/7 8/8/8
f 7/7/7 4/4/4 8/8/8
f 11/11/11 9/9/9 10/10/10
f 9/9/9 8/8/8 10/10/10
f 11/11/11 10/10/10 12/12/12
f 15/15/15 14/14/14 13/13/13
f 14/14/14 11/11/11 12/12/12
f 14/14/14 12/12/12 13/13/13
f 17/17/17 15/15/15 16/16/16
f 15/15/15 13/13/13 16/16/16
f 19/19/19 17/17/17 18/18/18
f 17/17/17 16/16/16 18/18/18
f 21/21/21 19/19/19 20/20/20
f 19/19/19 18/18/18 20/20/20
f 22/22/22 21/21/21 20/20/20
f 20/20/20 23/23/23 22/22/22
f 24/24/24 22/22/22 23/23/23
f 23/23/23 25/25/25 24/24/24
f 26/26/26 24/24/24 25/25/25
f 25/25/25 28/28/28 27/27/27
f 29/29/29 27/27/27 28/28/28
f 27/27/27 26/26/26 25/25/25
f 31/31/31 29/29/29 30/30/30
f 29/29/29 28/28/28 30/30/30
f 33/33/33 30/30/30 32/32/32
f 33/33/33 31/31/31 30/30/30
f 35/35/35 34/34/34 32/32/32
f 30/30/30 35/35/35 32/32/32
f 35/35/35 36/36/36 34/34/34
f 39/39/39 38/38/38 37/37/37
f 42/42/42 41/41/41 40/40/40
f 43/43/43 42/42/42 40/40/40
f 45/45/45 44/44/44 41/41/41
f 42/42/42 45/45/45 41/41/41
f 47/47/47 46/46/46 44/44/44
f 45/45/45 47/47/47 44/44/44
f 49/49/49 48/48/48 46/46/46
f 47/47/47 49/49/49 46/46/46
f 51/51/51 50/50/50 48/48/48
f 49/49/49 51/51/51 48/48/48
f 53/53/53 52/52/52 50/50/50
f 51/51/51 53/53/53 50/50/50
f 37/37/37 54/54/54 39/39/39
f 38/38/38 55/55/55 37/37/37
f 40/40/40 37/37/37 55/55/55
f 55/55/55 56/56/56 40/40/40
f 57/57/57 43/43/43 40/40/40
f 56/56/56 57/57/57 40/40/40
f 60/60/60 59/59/59 58/58/58
f 57/57/57 60/60/60 43/43/43
f 60/60/60 58/58/58 43/43/43
f 62/62/62 61/61/61 59/59/59
f 60/60/60 62/62/62 59/59/59
f 64/64/64 63/63/63 61/61/61
f 62/62/62 64/64/64 61/61/61
f 66/66/66 65/65/65 63/63/63
f 64/64/64 66/66/66 63/63/63
f 68/68/68 67/67/67 65/65/65
f 66/66/66 68/68/68 65/65/65
f 71/71/71 70/70/70 69/69/69
f 68/68/68 72/72/72 67/67/67
f 72/72/72 73/73/73 67/67/67
f 72/72/72 69/69/69 73/73/73
f 72/72/72 71/71/71 69/69/69
f 71/71/71 75/75/75 74/74/74
f 75/75/75 77/77/77 76/76/76
f 71/71/71 74/74/74 70/70/70
f 75/75/75 78/78/78 74/74/74
f 75/75/75 76/76/76 78/78/78
f 80/80/80 79/79/79 77/77/77
f 75/75/75 80/80/80 77/77/77
f 82/82/82 81/81/81 79/79/79
f 80/80/80 82/82/82 79/79/79
f 84/84/84 83/83/83 81/81/81
f 82/82/82 84/84/84 81/81/81
f 86/86/86 85/85/85 83/83/83
f 84/84/84 86/86/86 83/83/83
f 54/54/54 88/88/88 87/87/87
f 87/87/87 39/39/39 54/54/54
f 88/88/88 89/89/89 87/87/87
f 90/90/90 87/87/87 89/89/89
f 89/89/89 91/91/91 90/90/90
f 92/92/92 90/90/90 91/91/91
f 91/91/91 93/93/93 92/92/92
f 94/94/94 92/92/92 93/93/93
f 93/93/93 95/95/95 94/94/94
f 96/96/96 94/94/94 95/95/95
f 95/95/95 97/97/97 96/96/96
f 96/96/96 97/97/97 98/98/98
f 98/98/98 99/99/99 96/96/96
f 99/99/99 100/100/100 96/96/96
f 102/102/102 101/101/101 100/100/100
f 99/99/99 102/102/102 100/100/100
f 105/105/105 104/104/104 103/103/103
f 102/102/102 106/106/106 101/101/101
f 106/106/106 105/105/105 101/101/101
f 105/105/105 103/103/103 101/101/101
f 109/109/109 108/108/108 107/107/107
f 112/112/112 111/111/111 110/110/110
f 111/111/111 113/113/113 110/110/110
f 115/115/115 112/112/112 114/114/114
f 112/112/112 110/110/110 114/114/114
f 117/117/117 115/115/115 116/116/116
f 115/115/115 114/114/114 116/116/116
f 119/119/119 117/117/117 118/118/118
f 117/117/117 116/116/116 118/118/118
f 121/121/121 119/119/119 120/120/120
f 119/119/119 118/118/118 120/120/120
f 123/123/123 121/121/121 122/122/122
f 121/121/121 120/120/120 122/122/122
f 125/125/125 124/124/124 123/123/123
f 125/125/125 123/123/123 122/122/122
f 127/127/127 126/126/126 124/124/124
f 125/125/125 127/127/127 124/124/124
f 127/127/127 128/128/128 126/126/126
f 131/131/131 130/130/130 129/129/129
f 109/109/109 132/132/132 108/108/108
f 109/109/109 129/129/129 132/132/132
f 109/109/109 131/131/131 129/129/129
f 134/134/134 133/133/133 130/130/130
f 131/131/131 134/134/134 130/130/130
f 137/137/137 136/136/136 135/135/135
f 139/139/139 137/137/137 138/138/138
f 137/137/137 135/135/135 138/138/138
f 141/141/141 139/139/139 140/140/140
f 139/139/139 138/138/138 140/140/140
f 143/143/143 141/141/141 142/142/142
f 141/141/141 140/140/140 142/142/142
f 146/146/146 145/145/145 144/144/144
f 148/148/148 144/144/144 147/147/147
f 148/148/148 146/146/146 144/144/144
f 149/149/149 148/148/148 147/147/147
f 151/151/151 149/149/149 150/150/150
f 149/149/149 147/147/147 150/150/150
f 153/153/153 151/151/151 152/152/152
f 151/151/151 150/150/150 152/152/152
f 143/143/143 142/142/142 154/154/154
f 155/155/155 143/143/143 154/154/154
f 157/157/157 155/155/155 156/156/156
f 155/155/155 154/154/154 156/156/156
f 159/159/159 157/157/157 158/158/158
f 157/157/157 156/156/156 158/158/158
f 152/152/152 159/159/159 133/133/133
f 159/159/159 158/158/158 133/133/133
f 134/134/134 153/153/153 152/152/152
f 134/134/134 152/152/152 133/133/133
f 161/161/161 160/160/160 153/153/153
f 134/134/134 161/161/161 153/153/153
f 163/163/163 162/162/162 160/160/160
f 161/161/161 163/163/163 160/160/160
f 165/165/165 164/164/164 162/162/162
f 163/163/163 165/165/165 162/162/162
f 165/165/165 167/167/167 166/166/166
f 165/165/165 166/166/166 164/164/164
f 169/169/169 168/168/168 167/167/167
f 165/165/165 169/169/169 167/167/167
f 171/171/171 170/170/170 168/168/168
f 169/169/169 171/171/171 168/168/168
f 173/173/173 172/172/172 170/170/170
f 171/171/171 173/173/173 170/170/170
f 175/175/175 174/174/174 172/172/172
f 173/173/173 175/175/175 172/172/172
f 177/177/177 176/176/176 174/174/174
f 175/175/175 177/177/177 174/174/174
f 179/179/179 178/178/178 176/176/176
f 177/177/177 179/179/179 176/176/176
f 181/181/181 180/180/180 178/178/178
f 179/179/179 181/181/181 178/178/178
f 183/183/183 182/182/182 180/180/180
f 181/181/181 183/183/183 180/180/180
f 185/185/185 184/184/184 182/182/182
f 183/183/183 185/185/185 182/182/182
f 187/187/187 186/186/186 184/184/184
f 185/185/185 187/187/187 184/184/184
f 189/189/189 188/188/188 186/186/186
f 187/187/187 189/189/189 186/186/186
f 191/191/191 190/190/190 188/188/188
f 189/189/189 191/191/191 188/188/188
f 194/194/194 193/193/193 192/192/192
f 193/193/193 195/195/195 192/192/192
f 197/197/197 194/194/194 196/196/196
f 194/194/194 192/192/192 196/196/196
f 199/199/199 197/197/197 198/198/198
f 197/197/197 196/196/196 198/198/198
f 201/201/201 199/199/199 200/200/200
f 199/199/199 198/198/198 200/200/200
f 203/203/203 201/201/201 202/202/202
f 201/201/201 200/200/200 202/202/202
f 205/205/205 203/203/203 204/204/204
f 203/203/203 202/202/202 204/204/204
f 207/207/207 204/204/204 206/206/206
f 207/207/207 205/205/205 204/204/204
f 210/210/210 209/209/209 208/208/208
f 206/206/206 209/209/209 207/207/207
f 209/209/209 206/206/206 208/208/208
f 212/212/212 210/210/210 211/211/211
f 210/210/210 208/208/208 211/211/211
f 214/214/214 212/212/212 213/213/213
f 212/212/212 211/211/211 213/213/213
f 216/216/216 214/214/214 215/215/215
f 214/214/214 213/213/213 215/215/215
f 218/218/218 216/216/216 217/217/217
f 216/216/216 215/215/215 217/217/217
f 218/218/218 217/217/217 219/219/219
f 222/222/222 221/221/221 220/220/220
f 222/222/222 223/223/223 221/221/221
f 225/225/225 224/224/224 221/221/221
f 223/223/223 225/225/225 221/221/221
f 224/224/224 226/226/226 221/221/221
f 221/221/221 228/228/228 227/227/227
f 221/221/221 230/230/230 229/229/229
f 221/221/221 227/227/227 231/231/231
f 221/221/221 229/229/229 220/220/220
f 221/221/221 231/231/231 232/232/232
f 221/221/221 232/232/232 230/230/230
f 234/234/234 233/233/233 220/220/220
f 235/235/235 234/234/234 220/220/220
f 229/229/229 235/235/235 220/220/220
f 235/235/235 236/236/236 234/234/234
f 236/236/236 238/238/238 237/237/237
f 236/236/236 237/237/237 234/234/234
f 240/240/240 239/239/239 238/238/238
f 236/236/236 240/240/240 238/238/238
f 242/242/242 241/241/241 239/239/239
f 240/240/240 242/242/242 239/239/239
f 244/244/244 243/243/243 241/241/241
f 242/242/242 244/244/244 241/241/241
f 246/246/246 245/245/245 219/219/219
f 244/244/244 246/246/246 243/243/243
f 246/246/246 247/247/247 243/243/243
f 245/245/245 218/218/218 219/219/219
f 219/219/219 248/248/248 247/247/247
f 246/246/246 219/219/219 247/247/247
f 248/248/248 249/249/249 247/247/247
f 251/251/251 250/250/250 249/249/249
f 248/248/248 251/251/251 249/249/249
f 250/250/250 253/253/253 252/252/252
f 251/251/251 253/253/253 250/250/250
f 255/255/255 252/252/252 254/254/254
f 252/252/252 255/255/255 250/250/250
f 257/257/257 254/254/254 256/256/256
f 254/254/254 257/257/257 255/255/255
f 260/260/260 259/259/259 258/258/258
f 256/256/256 258/258/258 257/257/257
f 256/256/256 260/260/260 258/258/258
f 262/262/262 261/261/261 259/259/259
f 260/260/260 262/262/262 259/259/259
f 264/264/264 263/263/263 261/261/261
f 262/262/262 264/264/264 261/261/261
f 266/266/266 265/265/265 263/263/263
f 264/264/264 266/266/266 263/263/263
f 268/268/268 267/267/267 265/265/265
f 266/266/266 268/268/268 265/265/265
f 270/270/270 269/269/269 267/267/267
f 268/268/268 270/270/270 267/267/267
f 270/270/270 271/271/271 269/269/269
f 274/274/274 273/273/273 272/272/272
f 277/277/277 276/276/276 275/275/275
f 279/279/279 278/278/278 274/274/274
f 281/281/281 277/277/277 280/280/280
f 277/277/277 275/275/275 280/280/280
f 283/283/283 281/281/281 282/282/282
f 281/281/281 280/280/280 282/282/282
f 285/285/285 283/283/283 284/284/284
f 283/283/283 282/282/282 284/284/284
f 287/287/287 285/285/285 286/286/286
f 285/285/285 284/284/284 286/286/286
f 289/289/289 287/287/287 288/288/288
f 287/287/287 286/286/286 288/288/288
f 291/291/291 289/289/289 290/290/290
f 289/289/289 288/288/288 290/290/290
f 293/293/293 291/291/291 292/292/292
f 291/291/291 290/290/290 292/292/292
f 295/295/295 293/293/293 294/294/294
f 293/293/293 292/292/292 294/294/294
f 297/297/297 295/295/295 296/296/296
f 295/295/295 294/294/294 296/296/296
f 297/297/297 299/299/299 298/298/298
f 297/297/297 296/296/296 299/299/299
f 301/301/301 297/297/297 300/300/300
f 297/297/297 298/298/298 300/300/300
f 303/303/303 301/301/301 302/302/302
f 301/301/301 300/300/300 302/302/302
f 304/304/304 303/303/303 302/302/302
f 304/304/304 302/302/302 305/305/305
f 308/308/308 307/307/307 306/306/306
f 269/269/269 308/308/308 306/306/306
f 269/269/269 271/271/271 309/309/309
f 269/269/269 309/309/309 308/308/308
f 279/279/279 274/274/274 269/269/269
f 304/304/304 311/311/311 310/310/310
f 304/304/304 310/310/310 279/279/279
f 304/304/304 313/313/313 312/312/312
f 304/304/304 312/312/312 311/311/311
f 304/304/304 315/315/315 314/314/314
f 304/304/304 314/314/314 313/313/313
f 304/304/304 305/305/305 315/315/315
f 279/279/279 316/316/316 304/304/304
f 269/269/269 306/306/306 316/316/316
f 279/279/279 269/269/269 316/316/316
f 273/273/273 317/317/317 272/272/272
f 274/274/274 272/272/272 269/269/269
f 319/319/319 318/318/318 317/317/317
f 273/273/273 319/319/319 317/317/317
f 321/321/321 320/320/320 318/318/318
f 319/319/319 321/321/321 318/318/318
f 323/323/323 322/322/322 320/320/320
f 321/321/321 323/323/323 320/320/320
f 325/325/325 324/324/324 320/320/320
f 322/322/322 325/325/325 320/320/320
f 327/327/327 326/326/326 324/324/324
f 325/325/325 327/327/327 324/324/324
f 329/329/329 328/328/328 326/326/326
f 327/327/327 329/329/329 326/326/326
f 329/329/329 331/331/331 330/330/330
f 329/329/329 330/330/330 328/328/328
f 329/329/329 332/332/332 331/331/331
f 329/329/329 334/334/334 333/333/333
f 329/329/329 333/333/333 332/332/332
f 336/336/336 335/335/335 334/334/334
f 329/329/329 336/336/336 334/334/334
f 338/338/338 337/337/337 335/335/335
f 336/336/336 338/338/338 335/335/335
f 340/340/340 339/339/339 337/337/337
f 338/338/338 340/340/340 337/337/337
f 342/342/342 341/341/341 339/339/339
f 340/340/340 342/342/342 339/339/339
f 344/344/344 343/343/343 341/341/341
f 342/342/342 344/344/344 341/341/341
f 343/343/343 346/346/346 345/345/345
f 344/344/344 346/346/346 343/343/343
f 348/348/348 345/345/345 347/347/347
f 345/345/345 348/348/348 343/343/343
f 350/350/350 347/347/347 349/349/349
f 347/347/347 350/350/350 348/348/348
f 352/352/352 349/349/349 351/351/351
f 349/349/349 352/352/352 350/350/350
f 354/354/354 351/351/351 353/353/353
f 351/351/351 354/354/354 352/352/352
f 357/357/357 356/356/356 355/355/355
f 353/353/353 355/355/355 354/354/354
f 359/359/359 358/358/358 357/357/357
f 353/353/353 359/359/359 357/357/357
f 353/353/353 357/357/357 355/355/355
f 361/361/361 360/360/360 356/356/356
f 357/357/357 361/361/361 356/356/356
f 361/361/361 362/362/362 360/360/360
f 365/365/365 364/364/364 363/363/363
f 278/278/278 363/363/363 274/274/274
f 278/278/278 365/365/365 363/363/363
f 364/364/364 367/367/367 366/366/366
f 365/365/365 367/367/367 364/364/364
f 369/369/369 368/368/368 364/364/364
f 364/364/364 366/366/366 369/369/369
f 368/368/368 370/370/370 364/364/364
f 373/373/373 372/372/372 371/371/371
f 372/372/372 374/374/374 371/371/371
f 376/376/376 373/373/373 375/375/375
f 373/373/373 371/371/371 375/375/375
f 378/378/378 376/376/376 377/377/377
f 376/376/376 375/375/375 377/377/377
f 380/380/380 378/378/378 379/379/379
f 378/378/378 377/377/377 379/379/379
f 382/382/382 380/380/380 381/381/381
f 380/380/380 379/379/379 381/381/381
f 384/384/384 382/382/382 383/383/383
f 382/382/382 381/381/381 383/383/383
f 386/386/386 384/384/384 385/385/385
f 384/384/384 383/383/383 385/385/385
f 388/388/388 386/386/386 387/387/387
f 386/386/386 385/385/385 387/387/387
f 390/390/390 388/388/388 389/389/389
f 388/388/388 387/387/387 389/389/389
f 392/392/392 390/390/390 391/391/391
f 390/390/390 389/389/389 391/391/391
f 394/394/394 392/392/392 393/393/393
f 392/392/392 391/391/391 393/393/393
f 394/394/394 396/396/396 395/395/395
f 394/394/394 393/393/393 396/396/396
f 399/399/399 398/398/398 397/397/397
f 394/394/394 395/395/395 397/397/397
f 398/398/398 394/394/394 397/397/397
f 401/401/401 399/399/399 400/400/400
f 399/399/399 397/397/397 400/400/400
f 403/403/403 401/401/401 402/402/402
f 401/401/401 400/400/400 402/402/402
f 405/405/405 404/404/404 403/403/403
f 405/405/405 403/403/403 402/402/402
f 407/407/407 406/406/406 404/404/404
f 405/405/405 407/407/407 404/404/404
f 409/409/409 408/408/408 406/406/406
f 407/407/407 409/409/409 406/406/406
f 411/411/411 410/410/410 408/408/408
f 409/409/409 411/411/411 408/408/408
f 413/413/413 412/412/412 410/410/410
f 411/411/411 413/413/413 410/410/410
f 415/415/415 414/414/414 412/412/412
f 413/413/413 415/415/415 412/412/412
f 418/418/418 417/417/417 416/416/416
f 420/420/420 418/418/418 419/419/419
f 418/418/418 416/416/416 419/419/419
f 422/422/422 420/420/420 421/421/421
f 420/420/420 419/419/419 421/421/421
f 424/424/424 422/422/422 423/423/423
f 422/422/422 421/421/421 423/423/423
f 426/426/426 424/424/424 425/425/425
f 424/424/424 423/423/423 425/425/425
f 428/428/428 426/426/426 427/427/427
f 426/426/426 425/425/425 427/427/427
f 431/431/431 430/430/430 429/429/429
f 427/427/427 432/432/432 431/431/431
f 431/431/431 428/428/428 427/427/427
f 433/433/433 432/432/432 427/427/427
f 430/430/430 434/434/434 429/429/429
f 436/436/436 435/435/435 428/428/428
f 431/431/431 436/436/436 428/428/428
f 431/431/431 429/429/429 436/436/436
f 438/438/438 437/437/437 435/435/435
f 436/436/436 438/438/438 435/435/435
f 440/440/440 439/439/439 437/437/437
f 438/438/438 440/440/440 437/437/437
f 440/440/440 442/442/442 441/441/441
f 440/440/440 441/441/441 439/439/439
f 442/442/442 443/443/443 441/441/441
f 445/445/445 444/444/444 443/443/443
f 442/442/442 445/445/445 443/443/443
f 447/447/447 446/446/446 444/444/444
f 445/445/445 447/447/447 444/444/444
f 449/449/449 448/448/448 446/446/446
f 447/447/447 449/449/449 446/446/446
f 451/451/451 450/450/450 448/448/448
f 449/449/449 451/451/451 448/448/448
f 454/454/454 453/453/453 452/452/452
f 451/451/451 455/455/455 450/450/450
f 458/458/458 457/457/457 456/456/456
f 455/455/455 459/459/459 454/454/454
f 455/455/455 454/454/454 452/452/452
f 455/455/455 452/452/452 450/450/450
f 459/459/459 458/458/458 454/454/454
f 458/458/458 456/456/456 454/454/454
f 456/456/456 457/457/457 460/460/460
f 460/460/460 461/461/461 456/456/456
g cPK_20_001460_00_KAIRIKYex_SR_L_SB_1
f 464/464/464 463/463/463 462/462/462
f 467/467/467 466/466/466 465/465/465
f 468/468/468 467/467/467 465/465/465
f 470/470/470 468/468/468 469/469/469
f 468/468/468 465/465/465 469/469/469
f 473/473/473 472/472/472 471/471/471
f 470/470/470 469/469/469 471/471/471
f 476/476/476 475/475/475 474/474/474
f 472/472/472 470/470/470 471/471/471
f 476/476/476 477/477/477 475/475/475
f 471/471/471 476/476/476 474/474/474
f 474/474/474 478/478/478 471/471/471
f 481/481/481 480/480/480 479/479/479
f 471/471/471 478/478/478 482/482/482
f 473/473/473 482/482/482 483/483/483
f 480/480/480 473/473/473 483/483/483
f 473/473/473 471/471/471 482/482/482
f 480/480/480 483/483/483 479/479/479
f 485/485/485 481/481/481 484/484/484
f 481/481/481 479/479/479 484/484/484
f 487/487/487 485/485/485 486/486/486
f 485/485/485 484/484/484 486/486/486
f 489/489/489 487/487/487 488/488/488
f 487/487/487 486/486/486 488/488/488
f 491/491/491 489/489/489 490/490/490
f 489/489/489 488/488/488 490/490/490
f 491/491/491 493/493/493 492/492/492
f 491/491/491 490/490/490 493/493/493
f 495/495/495 491/491/491 494/494/494
f 491/491/491 492/492/492 494/494/494
f 497/497/497 495/495/495 496/496/496
f 495/495/495 494/494/494 496/496/496
f 111/111/111 497/497/497 113/113/113
f 497/497/497 496/496/496 113/113/113
f 499/499/499 464/464/464 498/498/498
f 464/464/464 462/462/462 498/498/498
f 501/501/501 499/499/499 500/500/500
f 499/499/499 498/498/498 500/500/500
f 503/503/503 501/501/501 502/502/502
f 501/501/501 500/500/500 502/502/502
f 505/505/505 503/503/503 504/504/504
f 503/503/503 502/502/502 504/504/504
f 508/508/508 507/507/507 506/506/506
f 505/505/505 504/504/504 509/509/509
f 511/511/511 508/508/508 510/510/510
f 508/508/508 506/506/506 510/510/510
f 512/512/512 511/511/511 505/505/505
f 511/511/511 510/510/510 505/505/505
f 514/514/514 513/513/513 509/509/509
f 513/513/513 512/512/512 505/505/505
f 513/513/513 505/505/505 509/509/509
f 516/516/516 514/514/514 515/515/515
f 514/514/514 509/509/509 515/515/515
f 518/518/518 516/516/516 517/517/517
f 516/516/516 515/515/515 517/517/517
f 520/520/520 518/518/518 519/519/519
f 518/518/518 517/517/517 519/519/519
f 522/522/522 520/520/520 521/521/521
f 520/520/520 519/519/519 521/521/521
f 524/524/524 522/522/522 523/523/523
f 522/522/522 521/521/521 523/523/523
f 526/526/526 524/524/524 525/525/525
f 524/524/524 523/523/523 525/525/525
f 528/528/528 527/527/527 525/525/525
f 527/527/527 526/526/526 525/525/525
f 530/530/530 528/528/528 529/529/529
f 528/528/528 525/525/525 529/529/529
f 532/532/532 530/530/530 531/531/531
f 530/530/530 529/529/529 531/531/531
f 533/533/533 532/532/532 195/195/195
f 532/532/532 531/531/531 195/195/195
f 193/193/193 534/534/534 195/195/195
f 534/534/534 533/533/533 195/195/195
f 221/221/221 536/536/536 535/535/535
f 221/221/221 537/537/537 536/536/536
f 226/226/226 538/538/538 221/221/221
f 540/540/540 539/539/539 221/221/221
f 538/538/538 540/540/540 221/221/221
f 541/541/541 537/537/537 221/221/221
f 539/539/539 541/541/541 221/221/221
f 221/221/221 535/535/535 228/228/228
f 370/370/370 542/542/542 364/364/364
f 544/544/544 543/543/543 542/542/542
f 370/370/370 544/544/544 542/542/542
f 546/546/546 545/545/545 543/543/543
f 544/544/544 546/546/546 543/543/543
f 548/548/548 547/547/547 545/545/545
f 546/546/546 548/548/548 545/545/545
f 548/548/548 549/549/549 547/547/547
f 549/549/549 551/551/551 550/550/550
f 549/549/549 550/550/550 547/547/547
f 549/549/549 553/553/553 552/552/552
f 549/549/549 552/552/552 551/551/551
f 555/555/555 554/554/554 552/552/552
f 553/553/553 555/555/555 552/552/552
f 557/557/557 556/556/556 554/554/554
f 555/555/555 557/557/557 554/554/554
f 559/559/559 558/558/558 556/556/556
f 557/557/557 559/559/559 556/556/556
f 561/561/561 560/560/560 558/558/558
f 559/559/559 561/561/561 558/558/558
f 563/563/563 562/562/562 560/560/560
f 561/561/561 563/563/563 560/560/560
f 565/565/565 564/564/564 562/562/562
f 563/563/563 565/565/565 562/562/562
f 567/567/567 566/566/566 564/564/564
f 565/565/565 567/567/567 564/564/564
f 567/567/567 568/568/568 566/566/566
f 570/570/570 569/569/569 568/568/568
f 567/567/567 570/570/570 568/568/568
f 570/570/570 572/572/572 571/571/571
f 570/570/570 571/571/571 569/569/569
f 574/574/574 573/573/573 572/572/572
f 570/570/570 574/574/574 572/572/572
f 574/574/574 576/576/576 575/575/575
f 574/574/574 575/575/575 573/573/573
f 578/578/578 574/574/574 577/577/577
f 578/578/578 576/576/576 574/574/574
f 580/580/580 579/579/579 578/578/578
f 580/580/580 578/578/578 577/577/577
f 580/580/580 581/581/581 579/579/579
