g cPK_10_001040_00_THUNDERex_RR_L_SB
v -0.0573756 0.07130593 -0.011703772
v 0.0019522768 0.04386149 -0.006835288
v 0.009841149 0.062561885 -0.007912067
v -0.03590091 0.08176248 -0.009616122
v -0.0505969 0.11389238 -0.009761958
v -0.07084081 0.14233255 -0.011167055
v -0.043519534 0.094401404 -0.009830521
v 0.36684918 0.4036064 -0.0134662865
v 0.38239798 0.3929783 -0.0134662865
v 0.38017887 0.4156273 -0.0134662865
v 0.54205066 0.24339692 -0.015293759
v 0.54666704 0.22517717 -0.015293759
v 0.55668205 0.24462914 -0.015293759
v 0.3692534 0.029984713 -0.011209886
v 0.36778694 0.011376191 -0.011156824
v 0.38994452 0.024573907 -0.011156824
v -0.049405362 0.19625396 -0.010030924
v -0.036868032 0.18231705 -0.009616122
v -0.02023101 0.18766384 -0.009180702
v -0.04949062 0.14076552 -0.009616122
v 0.03900677 0.26431003 -0.0087010935
v -0.0002814005 0.23771775 -0.00836375
v 0.013231826 0.22072108 -0.00836375
v 0.048281282 0.2452263 -0.008865589
v -0.0014569052 0.20289257 -0.008914
v 0.16477497 0.32730892 -0.008806805
v 0.09147135 0.29059023 -0.007941389
v 0.10700548 0.2737424 -0.008233557
v 0.17552294 0.30701408 -0.009273661
v 0.23259325 0.25695917 -0.00804303
v 0.20428276 0.26269647 -0.009862399
v 0.16999736 0.23530567 -0.009047607
v 0.35973474 0.41957456 -0.0134662865
v 0.39129063 0.26020396 -0.012004481
v 0.39185712 0.2407105 -0.013192083
v 0.26910046 0.3764703 -0.010067008
v 0.28014788 0.3581403 -0.011345166
v 0.13349442 -0.022126047 -0.009616122
v 0.16463874 -0.024035674 -0.009616122
v 0.14531323 -0.0064965235 -0.009616122
v 0.16299497 0.0037159815 -0.0089975465
v 0.0922348 0.066649795 -0.008511168
v 0.13798326 0.041367218 -0.0074866726
v 0.16202621 0.05760641 -0.00874448
v 0.20726393 0.05162337 -0.009123134
v 0.20416951 0.032729447 -0.008494287
v 0.21447687 0.13312303 -0.008751317
v 0.23814343 0.11735634 -0.008893574
v 0.265681 0.12657796 -0.008751317
v 0.37678668 0.05041335 -0.011156824
v 0.39831817 0.19501106 -0.01326435
v 0.40709636 0.17381634 -0.012570518
v 0.54262996 0.26264572 -0.015293759
v 0.30405942 0.32129392 -0.010057901
v 0.29313383 0.3383155 -0.011327806
v -0.0874952 0.17288557 -0.011297745
v -0.044680614 0.08710114 -0.012222725
v -0.033691373 0.09228029 -0.013859036
v -0.06081999 0.16712187 -0.015328104
v 0.15214507 0.19164889 -0.018274775
v 0.036186 0.21593955 -0.018318314
v 0.050424676 0.20145623 -0.016610257
v 0.15156259 0.18072033 -0.01751559
v 0.1135509 0.35864195 -0.016610257
v 0.11092146 0.37224275 -0.016610257
v 0.095530145 0.3617233 -0.016997105
v -0.06882234 0.36416826 -0.011971851
v -0.1309875 0.40475446 -0.012027516
v -0.13605887 0.38868544 -0.013067776
v -0.058533758 0.3333734 -0.018365374
v -0.13746871 0.29325113 -0.010481306
v -0.22211568 0.2518987 -0.008575663
v -0.21558113 0.24013746 -0.00935832
v -0.11331536 0.2901476 -0.012816208
v 0.08692298 0.23980644 -0.016610257
v 0.1397962 0.23895207 -0.017576851
v 0.13818237 0.24883185 -0.018336037
v 0.06510455 0.24662529 -0.018200811
v -0.22229229 0.22902215 -0.008575663
v -0.13960226 0.21032786 -0.010179202
v -0.11838373 0.21926975 -0.012666381
v -0.016826315 0.15162888 -0.0151294535
v 0.058458764 0.08474416 -0.018254232
v 0.06541732 0.094005905 -0.01931162
v -0.025170768 0.17383735 -0.016783658
v -0.039491612 0.42487383 -0.01170621
v -0.050156403 0.42053434 -0.01170621
v -0.038850304 0.40564847 -0.012219468
v -0.15072444 0.38980845 -0.009722439
v -0.14337131 0.36575377 -0.009092053
v -0.10585882 0.33296388 -0.014056143
v -0.19594955 0.3647705 -0.008724778
v -0.19010942 0.36814305 -0.010443384
v -0.17951451 0.15396526 -0.009767649
v -0.1713693 0.14701727 -0.010370887
v -0.18106131 0.13951227 -0.009767649
v -0.17011966 0.13826083 -0.009937744
v -0.03342671 0.0782824 -0.012824236
v -0.022206128 0.08656367 -0.01366159
v 0.07669115 0.093304306 -0.018254232
v 0.070386626 0.084270075 -0.018254232
v 0.15972121 0.19496323 -0.01751559
v 0.15383886 0.24650244 -0.017576851
v 0.1512271 0.2605726 -0.017576851
v 0.16450171 0.18672149 -0.01751559
v 0.06482428 0.29795238 -0.016407037
v 0.026924973 0.28971484 -0.018619528
v 0.09128816 0.37822595 -0.016610257
v -0.0025176723 0.34298873 -0.016610257
v -0.025149146 0.41841912 -0.01170621
v -0.014801185 0.31638914 -0.018801201
v -0.14719954 0.40194717 -0.011462172
v -0.20098102 0.3784028 -0.008033013
v -0.23061709 0.23852554 -0.008575663
v -0.19108544 0.3840518 -0.007833669
v -0.10963543 0.1799625 -0.013746715
v -0.08414273 0.18637785 -0.015812706
v -0.18075149 0.3621824 -0.011673509
v -0.0651749 0.18464993 -0.020659752
v -0.06846943 0.18720701 -0.020659752
v -0.08602563 0.16791013 -0.021124978
v -0.05000869 0.20262022 -0.021561496
v -0.048080742 0.20860887 -0.021818276
v -0.050653435 0.20842262 -0.02249997
v -0.052637964 0.20402019 -0.021561496
v -0.109400265 0.15096585 -0.021423524
v -0.10981023 0.16089831 -0.021130359
v -0.11244968 0.160665 -0.02054922
v -0.11151816 0.14734916 -0.020770045
v -0.09806363 0.15669051 -0.021560378
v -0.09671819 0.15301602 -0.021125564
v -0.059031088 0.21274869 -0.023745824
v -0.05109265 0.21420753 -0.022504095
v -0.07351051 0.21997559 -0.022369638
v -0.09922695 0.20016456 -0.021426897
v -0.09164572 0.21899612 -0.021635374
v -0.093135126 0.22369532 -0.021320075
v -0.10257691 0.20104091 -0.021094669
v -0.109490685 0.16826528 -0.021189716
v -0.10756581 0.17748313 -0.021273812
v -0.11248821 0.1685511 -0.020663517
v -0.08871778 0.21871488 -0.02272935
v -0.053317923 0.21067996 -0.02276854
v -0.0880519 0.1591482 -0.020920787
v -0.090888254 0.16264014 -0.02140967
v -0.049906682 0.2069592 -0.022319896
v -0.057534344 0.20877631 -0.023308938
v -0.04942466 0.20376816 -0.022319896
v -0.065833986 0.20423388 -0.023731757
v -0.06614557 0.20765367 -0.024063295
v -0.043396182 0.20840946 -0.02190692
v -0.040724855 0.21422036 -0.021948425
v -0.043968104 0.2158706 -0.0220861
v -0.046049863 0.21024533 -0.02201289
v -0.22130969 0.14323011 -0.02943323
v -0.21971624 0.12887454 -0.02943323
v -0.20537601 0.13988627 -0.02943323
v -0.20515218 0.14373744 -0.029068938
v -0.18584393 0.1623434 -0.027494285
v -0.16110052 0.17890222 -0.026206551
v -0.16627507 0.18615907 -0.025637627
v -0.19955266 0.17146966 -0.027858576
v -0.19774044 0.12214352 -0.02943323
v -0.19457218 0.13922308 -0.02943323
v -0.20229511 0.13843825 -0.02943323
v -0.21835797 0.15823384 -0.02943323
v -0.062187206 0.263549 -0.0235851
v -0.05551306 0.26341042 -0.023669695
v -0.05478562 0.26740515 -0.02508602
v -0.061650243 0.26752776 -0.024732092
v -0.081541896 0.24914065 -0.022330595
v -0.074389614 0.25552282 -0.022730822
v -0.08337757 0.25234386 -0.022499856
v -0.06851486 0.2643181 -0.023618696
v -0.06662564 0.26161388 -0.023363573
v -0.04707115 0.2340519 -0.02280333
v -0.041173644 0.22917585 -0.02280333
v -0.04420411 0.25052616 -0.023378626
v -0.172315 0.13721806 -0.028962532
v -0.18509802 0.14256592 -0.029283905
v -0.043944933 0.22206794 -0.02239446
v -0.044918478 0.22852087 -0.02280333
v -0.050940454 0.25822148 -0.023725681
v -0.04793855 0.2494169 -0.023378626
v -0.047955703 0.25996536 -0.024385784
v -0.09659824 0.22863685 -0.022722289
v -0.09203296 0.24109562 -0.022112405
v -0.09566372 0.2435735 -0.021796156
v -0.10051545 0.2310962 -0.021711955
v -0.12050163 0.17493474 -0.026651585
v -0.099117056 0.19269519 -0.025386674
v -0.122538365 0.17882447 -0.02676859
v -0.14976886 0.15623268 -0.027830211
v -0.1507218 0.1622969 -0.02794228
v -0.17543598 0.14785752 -0.028962532
v -0.2023511 0.1494838 -0.028635237
v -0.1338959 0.19757418 -0.024788825
v -0.1389438 0.20084932 -0.023906868
v -0.075367436 0.19912447 -0.024519803
v -0.078088075 0.20329331 -0.024519803
v -0.111653626 0.2138459 -0.023555709
v -0.08801696 0.24579 -0.022078117
v -0.10259372 -0.05089539 -0.02939258
v -0.11519001 -0.027769104 -0.03323851
v -0.13860886 -0.038004637 -0.03323851
v -0.100493826 -0.0323992 -0.029933987
v -0.12384424 -0.021867191 -0.03323851
v -0.12767924 -0.013069245 -0.03323851
v -0.14647418 0.0011505516 -0.03323851
v -0.12634677 -0.0018178698 -0.03323851
v -0.047883388 0.1562815 -0.030969976
v -0.061168846 0.16278963 -0.031543605
v -0.06390286 0.14803208 -0.031985044
v -0.0571026 0.14352408 -0.031439003
v 0.037416305 0.12956084 -0.031986415
v 0.044315748 0.12342379 -0.031005254
v 0.058580853 0.13289532 -0.030779792
v 0.044278927 0.14492384 -0.03128181
v 0.045489714 0.003507462 -0.026841575
v 0.035035755 -0.0028531686 -0.029302364
v 0.038355436 -0.021313598 -0.026407091
v 0.05876698 -0.0104656145 -0.025218425
v 0.010450795 0.011003227 -0.029393617
v -0.0046834447 0.0035432186 -0.027987435
v 0.0046755066 -0.018348329 -0.026092092
v -0.009413421 -0.016782418 -0.024409268
v -0.011663792 0.0026552284 -0.027152015
v -0.040843412 -0.028600588 -0.023214627
v -0.076088965 -0.023623038 -0.02584059
v -0.08361404 -0.04573943 -0.02484784
v -0.060185492 -0.017447727 -0.025025398
v -0.04675896 -0.01154008 -0.025050793
v -0.088254504 -0.02663745 -0.02717395
v -0.13702969 0.021602212 -0.03323851
v -0.12100088 0.006685531 -0.03323851
v -0.07400844 0.057348747 -0.02335327
v -0.060250647 0.0678562 -0.026489718
v -0.06683021 0.08864084 -0.028314168
v 0.05934329 0.0282336 -0.025964612
v 0.059399575 0.020417934 -0.025964612
v 0.075170115 0.014123194 -0.0236183
v 0.07405167 0.03154261 -0.0236183
v 0.053060975 0.011577501 -0.025718315
v -0.10425861 0.012847478 -0.03266282
v -0.096565045 0.01128072 -0.031994082
v -0.09253669 0.026528357 -0.026126225
v -0.112717845 0.012182261 -0.033238214
v -0.09042262 0.007923043 -0.030129287
v -0.07147987 0.0132855205 -0.025683612
v -0.06631305 0.017180912 -0.024543269
v -0.0779437 0.034868877 -0.02310408
v -0.06150345 0.02988107 -0.024401186
v -0.05927741 0.056294937 -0.025952319
v -0.055905014 0.06300803 -0.026230607
v -0.08550336 0.09163947 -0.028449882
v -0.07188131 0.10545152 -0.029695407
v -0.0818275 0.10727173 -0.0319726
v -0.09445237 0.15687953 -0.03323851
v -0.10553684 0.1388226 -0.03323851
v -0.08829089 0.13400708 -0.03323851
v -0.082966685 0.14372203 -0.03323851
v -0.10447153 0.10247772 -0.032455903
v -0.08852562 0.112944864 -0.03284413
v -0.09090728 0.12288921 -0.03323851
v -0.07366305 0.14878005 -0.03323851
v -0.052081443 0.1370591 -0.030746326
v -0.023960954 0.1152428 -0.028570099
v -0.045698494 0.12161224 -0.02932823
v -0.037737396 0.10484042 -0.027424624
v 0.02839725 0.13202989 -0.03323851
v 0.014593661 0.14680147 -0.03270295
v 0.009941115 0.1256661 -0.03323851
v 0.018657526 0.13131005 -0.03323851
v -0.00013695726 0.13948686 -0.03323851
v -0.011527151 0.12444754 -0.032240573
v 0.0035734344 0.1178439 -0.03321596
v 0.014614944 0.0493134 -0.025637006
v 0.026585594 0.04799786 -0.026070599
v 0.047355246 0.06287522 -0.027188484
v 0.04281493 0.09420231 -0.028761161
v 0.03409666 0.07712272 -0.027258545
v 0.06110372 0.09156029 -0.029241744
v 0.04722352 0.11542399 -0.030357504
v 0.06578647 0.11554461 -0.030779792
v 0.005912173 0.09531834 -0.029981872
v 0.0025744685 0.10343013 -0.033215947
v -0.014800946 0.100525 -0.0284554
v 0.0014288236 0.10960084 -0.03321595
v -0.016896274 0.07229509 -0.025099887
v -0.005655093 0.08298041 -0.027740577
v -0.01988348 0.07925265 -0.026031503
v -0.027255494 0.086025186 -0.02567335
v 0.051680814 0.0374355 -0.025794296
v 0.064553194 0.049200155 -0.024638593
v 0.024858924 0.06453444 -0.026285375
v 0.012275524 0.0037820123 -0.030948875
v 0.017055577 -0.0016710553 -0.032444604
v 0.023224061 -0.0040182504 -0.032670323
v 0.04088384 0.0433962 -0.025808802
v 0.047157954 0.103196144 -0.029668799
v 0.002209597 0.11545732 -0.035499237
v 0.002884681 0.09743317 -0.03930799
v 0.0061879307 0.101436906 -0.03906444
v 0.013604874 0.09259292 -0.03333677
v 0.015146847 0.09549167 -0.033569504
v 0.012648485 0.097948015 -0.035202254
v 0.010150122 0.10040434 -0.037038505
v 0.031003747 0.09481626 -0.033381585
v 0.022800026 0.09339929 -0.033381585
v 0.022332719 0.08882703 -0.033381585
v 0.032151584 0.09039699 -0.033381585
v 0.037050612 0.09942978 -0.033381585
v 0.040433243 0.09683669 -0.033381585
v 0.04061564 0.1137166 -0.033381585
v 0.04380317 0.11455901 -0.033381585
v 0.041751586 0.12144089 -0.033381585
v 0.038382538 0.12012074 -0.033381585
v 0.033475485 0.13008432 -0.033381585
v 0.019474026 0.13015835 -0.033381585
v 0.020418813 0.12659724 -0.033381585
v 0.032014333 0.12542488 -0.033381585
v 0.00867975 0.12566656 -0.033381585
v 0.011502082 0.12249064 -0.033381585
v 0.005902803 0.1141269 -0.036180403
v 0.04386503 0.105162404 -0.033381585
v 0.04023726 0.10706096 -0.033381585
v -0.09360768 0.16122782 -0.033381585
v -0.11232676 0.1479429 -0.033381585
v -0.0951081 0.13912298 -0.03406095
v -0.085493274 0.14523597 -0.033381585
v -0.12103601 0.12290644 -0.036224384
v -0.10507461 0.12319088 -0.03692714
v -0.101753436 0.13204335 -0.03539543
v -0.10419895 0.11106205 -0.03906445
v -0.11650427 0.100286916 -0.03817586
v -0.10787775 0.0953304 -0.036810886
v -0.07215584 0.16096668 -0.032609608
v -0.0739704 0.14698406 -0.033381585
v -0.06870951 0.14473875 -0.033381585
v -0.06380799 0.1532871 -0.033381585
v -0.059161406 0.13083224 -0.033381585
v -0.06258517 0.11873483 -0.033381585
v -0.059325438 0.11659809 -0.033381585
v -0.0551171 0.13137399 -0.033381585
v -0.069046356 0.11307706 -0.033381585
v -0.06701382 0.108723454 -0.033381585
v -0.09303358 0.099896885 -0.035623815
v -0.07437122 0.11122804 -0.033381585
v -0.078189395 0.104463376 -0.033381585
v -0.08003908 0.11160838 -0.033381585
v -0.063421 0.13890019 -0.033381585
v -0.08673572 0.115418054 -0.034038804
v -0.09718545 0.1152987 -0.036548715
v 0.0010407305 0.030330459 -0.035538297
v 0.012565046 0.03052718 -0.03436751
v 0.024251027 0.039039116 -0.033381585
v 0.00283581 0.026799966 -0.035538297
v -0.016543616 0.0014363218 -0.03746433
v -0.010654918 0.007823843 -0.036449563
v -0.025865031 0.01638048 -0.03906444
v -0.03290309 0.017485969 -0.038971823
v 0.031556796 -0.0015898634 -0.033381585
v 0.038345423 0.0048996583 -0.033381585
v 0.035627294 0.006930037 -0.033381585
v 0.029465476 0.0016656414 -0.033191334
v 0.0027175925 -0.011694152 -0.03517562
v 0.011424701 -0.011471617 -0.03392629
v 0.011453824 0.0005444951 -0.03293004
v 0.00556878 0.0020802647 -0.033710536
v 0.037909947 0.031794973 -0.033381585
v 0.031817626 0.036660966 -0.033381585
v 0.030368572 0.032920416 -0.033381585
v 0.03451516 0.028426124 -0.033381585
v 0.04255406 0.0128634125 -0.033381585
v 0.04219019 0.02352113 -0.033381585
v 0.03807946 0.022686353 -0.033381585
v 0.039209154 0.013668689 -0.033381585
v 0.02013181 -0.011249081 -0.033717003
v 0.017338868 0.0003480413 -0.03251322
v 0.024747698 0.034926895 -0.033381585
v -0.009912946 0.022150982 -0.036953498
v -0.1264604 -0.012083348 -0.033381585
v -0.12227426 -0.019589258 -0.033381585
v -0.119491816 -0.017125709 -0.033381585
v -0.122729 -0.011158955 -0.033381585
v -0.11620581 -0.025212849 -0.033381585
v -0.10727644 -0.02594915 -0.033381585
v -0.10698783 -0.022195593 -0.033381585
v -0.11437231 -0.021210186 -0.033381585
v -0.09299808 -0.015805352 -0.033381585
v -0.09960334 -0.021110488 -0.033381585
v -0.098347075 -0.024614958 -0.033381585
v -0.089859806 -0.018302975 -0.033381585
v -0.09279541 0.0013632708 -0.033325233
v -0.08664297 -0.00916755 -0.033381585
v -0.07969258 0.012553907 -0.03452116
v -0.08916798 0.034566615 -0.03906444
v -0.074443944 0.037111588 -0.035785306
v -0.08184616 0.049374335 -0.036042236
v -0.0989229 0.045804713 -0.036042236
v -0.12242817 0.02865376 -0.035828684
v -0.12115524 -7.544551E-06 -0.033447895
v -0.108918406 0.018007142 -0.035591982
v -0.13401909 0.0061627747 -0.034358438
v -0.0915605 -0.008082958 -0.033381585
v -0.091710515 0.01422967 -0.035047665
v 0.0055921255 -0.0049276715 -0.03765608
v -0.03290309 0.017485969 -0.039650373
v -0.022681473 -0.018520843 -0.038068518
v -0.011024878 0.08114643 -0.032240357
v 0.008467118 0.05856635 -0.031642955
v 0.016354801 0.08228769 -0.034302697
v 0.04277545 0.07201388 -0.030397017
v -0.060180224 0.09716549 -0.032984886
v -0.06869619 0.0743142 -0.031784322
v -0.045405913 0.050673295 -0.032275975
v -0.12370553 0.104904786 -0.039060093
v -0.118197024 0.08438025 -0.03697696
v -0.10474571 0.108981036 -0.039520018
v -0.1389286 -0.052394778 -0.03200571
v -0.12628399 -0.03005119 -0.03531925
v -0.14347827 -0.015514028 -0.034469977
v -0.051926382 0.12213035 -0.0346656
v -0.084556065 0.11223966 -0.036846507
v -0.023696912 0.04986178 -0.03173507
v 0.0060444823 0.03254397 -0.03560103
v 0.066627145 0.013529765 -0.028563833
v 0.096205354 0.040324733 -0.025518468
v 0.06068073 0.045208137 -0.02916042
v -0.04980029 0.011611815 -0.030238776
v -0.08782079 0.03646776 -0.039406653
v -0.096528985 0.042791132 -0.037014943
v -0.12829694 0.022772877 -0.036044408
v -0.10827873 0.0035529286 -0.039428774
v -0.07137617 -0.037406344 -0.029281659
v -0.08636551 -0.015419547 -0.0354328
v -0.10259416 -0.050833363 -0.03352023
v -0.07450169 0.054697704 -0.037603475
v -0.0756255 0.022391412 -0.03510211
v 0.041689213 0.015782626 -0.034353413
v 0.0068480796 0.0131346155 -0.039090466
v 0.037966933 -0.0082182875 -0.03209109
v -0.0018190917 0.11948862 -0.03628665
v 0.0041168067 0.09827204 -0.039872244
v 0.018910721 0.11861875 -0.03849624
v 0.034920737 0.095388256 -0.03460401
v 0.02342867 0.16023493 -0.03115113
v 0.08201133 0.120209925 -0.030835181
v 0.06632935 0.16016398 -0.028021177
v 0.09365692 0.07501868 -0.026673375
v 0.08723559 0.09901659 -0.030163933
v 0.029770358 0.038851332 -0.034313858
v -0.10889893 0.14000976 -0.03685628
v -0.09174131 0.1297309 -0.038511213
v -0.07873691 0.15048075 -0.03573216
v -0.09130644 0.1611249 -0.033640154
v -0.05981136 0.17986165 -0.028709048
v -0.038346145 0.17440675 -0.028709048
v -0.018218746 0.14526081 -0.028636772
v -0.03053914 0.094928265 -0.030416308
v 0.011130196 -0.025687123 -0.034622096
v 0.39215586 0.23239636 -0.016559312
v 0.51392806 0.23857437 -0.018211788
v 0.19942749 0.26979664 -0.013454375
v 0.1387842 0.22066343 -0.013222563
v 0.22893333 0.107186414 -0.013204852
v 0.35823032 0.03351761 -0.013402718
v 0.28353152 0.35330704 -0.0140216965
v 0.33695334 0.3825365 -0.01507167
v 0.29004526 0.34337792 -0.014507681
v 0.39674395 0.20287545 -0.016559312
v 0.18202029 0.1344543 -0.013222692
v 0.21759461 0.08178409 -0.014345084
v 0.39339206 0.21528693 -0.01869384
v 0.0036214497 0.1407499 -0.014362334
v 0.18014236 0.29932758 -0.012970713
v 0.28649017 0.3481419 -0.0155372545
v 0.18977228 0.2849306 -0.0155267855
v 0.11365056 0.26651078 -0.013054428
v 0.13189167 0.24716666 -0.015278789
v 0.20925716 0.05965968 -0.01200428
v 0.16701566 0.06633687 -0.012056156
v 0.06182606 0.077627264 -0.01261386
v 0.13375778 0.0033248903 -0.011862024
v 0.17746212 0.09455814 -0.014763
v 0.17373373 0.17423041 -0.016888697
v 0.052713335 0.23560067 -0.012890435
v 0.05811859 0.20290498 -0.015010476
v 0.07045 0.12246809 -0.014631222
v 0.006972986 0.09407099 -0.013996561
v 0.009435539 0.06913569 -0.011862024
v -0.0006103387 0.18688704 -0.012517962
v 0.039301027 0.07151688 -0.01352738
v 0.0658564 0.15511027 -0.0150337
v -0.038584676 0.3957648 -0.014563856
v -0.055849373 0.32567474 -0.021141415
v -0.038595483 0.31727895 -0.022737525
v 0.12554258 0.25092122 -0.02036441
v 0.014790589 0.28704882 -0.022420159
v 0.030059228 0.2706116 -0.022534506
v -0.048310436 0.240574 -0.022631368
v -0.05452271 0.23035632 -0.022828097
v -0.03866264 0.22786582 -0.022522647
v -0.07426863 0.27753636 -0.021673558
v -0.082519345 0.30462402 -0.020005755
v -0.08877797 0.28190956 -0.019852495
v -0.06637889 0.2502026 -0.023166014
v -0.07140713 0.23903866 -0.022935783
v -0.07480948 0.25571132 -0.022072045
v -0.0790368 0.24479845 -0.022189828
v -0.06971025 0.27714851 -0.022988701
v 0.060641825 0.10176994 -0.021235226
v 0.021555688 0.22262846 -0.020727908
v -0.10358558 0.2865642 -0.016252473
v -0.102455236 0.30565634 -0.01815344
v -0.028213391 0.18898265 -0.019549737
v -0.08348736 0.20279475 -0.02045065
v -0.110698774 0.1857458 -0.017897647
v -0.09675513 0.3247485 -0.017722161
v -0.12790458 0.38002488 -0.014963564
v -0.021341605 0.30888322 -0.023138942
v 0.08319182 0.35380957 -0.018784625
v 0.0407581 0.25618705 -0.02101917
v 0.13827664 0.1969267 -0.019934399
v -0.05647261 0.1751927 -0.018717252
v -0.046744782 0.17993966 -0.020093428
v -0.034931734 0.10336733 -0.016015194
v -0.16203752 0.1554163 -0.012578822
v -0.10926356 0.22479133 -0.017963234
v -0.2081693 0.2411727 -0.010722542
v -0.10838304 0.25567776 -0.018407887
v -0.09368881 0.2623556 -0.019538214
v 0.02935986 0.23624721 -0.022247082
v -0.0040295436 0.2984216 -0.023449289
v -0.0054011396 0.20440464 -0.022202289
v -0.018456107 0.2246928 -0.022614043
v -0.042605802 0.28507748 -0.023711506
v -0.08052042 0.32529995 -0.02076085
v -0.07173207 0.29992393 -0.022255603
v 0.007577944 0.2601793 -0.021564232
v -0.005591761 0.26693568 -0.023544367
v -0.031986944 0.25794753 -0.023833973
v -0.06014474 0.29379368 -0.023238573
v -0.0047651916 0.24333906 -0.02224307
v -0.05588627 0.26743305 -0.023785012
v -0.030562147 0.2527092 -0.022585372
v -0.019900355 0.27369642 -0.023595372
v -0.101099454 0.16753845 -0.023373283
v -0.09295138 0.17448749 -0.0234448
v -0.10294638 0.17690432 -0.02253352
v -0.08940043 0.17163917 -0.02216361
v -0.09749566 0.1652473 -0.02240393
v -0.09364879 0.16390851 -0.022294898
v -0.08770171 0.16977672 -0.022223253
v -0.10748207 0.16814135 -0.022342559
v -0.099252015 0.1602823 -0.022413475
v -0.09591034 0.19934794 -0.022680422
v -0.10286578 0.16280036 -0.0226197
v -0.07586346 0.1941812 -0.023684282
v -0.070503205 0.1905133 -0.022430494
v -0.06907904 0.18873696 -0.022132643
v -0.10323564 0.16794148 -0.022447629
v -0.106369846 0.15731336 -0.022455348
v -0.20143643 0.14312223 -0.031966943
v -0.19843218 0.14101142 -0.031067466
v -0.15791255 0.17696297 -0.02957498
v -0.13049228 0.19554366 -0.028343901
v -0.07814967 0.23892143 -0.02661172
v -0.08890987 0.22344513 -0.027188746
v -0.07346962 0.2362583 -0.026959628
v -0.12679888 0.19292764 -0.029244915
v -0.15414502 0.17414542 -0.030475989
v -0.15214178 0.16885522 -0.030733814
v -0.12412131 0.1859743 -0.029458836
v -0.10864284 0.21206573 -0.02717526
v -0.09362342 0.22662652 -0.026165662
v -0.10505247 0.2099928 -0.02807627
v -0.10126596 0.20094757 -0.028322643
v -0.08242492 0.21420375 -0.027673442
v -0.084678136 0.23882449 -0.025678335
v -0.20191793 0.14630356 -0.031020716
v -0.18160827 0.16042118 -0.030595228
v -0.17826983 0.15806298 -0.03149624
v -0.17629087 0.15377705 -0.031436726
v -0.07353753 0.25298104 -0.024870437
v -0.066144966 0.25643924 -0.026122594
v -0.05815019 0.2505102 -0.026197309
v -0.056272727 0.22963117 -0.025732188
v -0.079109415 0.20656507 -0.026344363
v -0.06002103 0.21544652 -0.025612792
v -0.06547432 0.22521041 -0.02681779
v -0.05138131 0.21900503 -0.024791148
v -0.049866777 0.2157148 -0.024174962
v -0.107526496 -0.0066959597 -0.033216927
v -0.101500906 -0.028607998 -0.03323851
v -0.066534534 0.14687444 -0.03323851
v 0.035613574 0.12770592 -0.03323851
v -0.035918694 0.058148105 -0.029866338
v -0.032877054 0.03283959 -0.029638737
v -0.01189374 0.05543214 -0.030772945
v -0.08489176 -0.00057729887 -0.03323851
v -0.06493099 0.005777921 -0.030654153
v -0.085184224 -0.011984547 -0.03323851
v -0.0615089 -0.010283914 -0.029115697
v -0.078267574 -0.017901933 -0.030952796
v -0.090569854 -0.022303661 -0.03323851
v -0.060789075 0.017373648 -0.0274628
v -0.047167912 -0.0029837277 -0.029107166
v -0.05113041 0.0116775725 -0.029945085
v 0.00991758 0.018646657 -0.033238497
v -0.013855192 0.009132563 -0.031116752
v -0.04107041 0.09959697 -0.030538931
v -0.049917743 0.11806261 -0.031940516
v -0.059188932 0.10765455 -0.03323851
v -0.051163703 0.091146305 -0.03183637
v 0.002014734 0.04530274 -0.029819667
v 0.024793288 0.044291507 -0.02988109
v 0.051946796 0.02940085 -0.030721739
v 0.044588305 0.03818296 -0.030531034
v 0.024599588 0.017102977 -0.03321692
v 0.018346248 0.036565885 -0.033238497
v 0.011174094 0.028778419 -0.033238497
v 0.031355556 0.0364617 -0.033238497
v 0.028482838 0.038664855 -0.03099223
v 0.033910282 -0.00039265753 -0.033238497
v 0.0381591 0.029797537 -0.033238497
v 0.04198606 0.018258154 -0.033238497
v 0.04043224 0.0073714717 -0.033238497
v 0.048251577 0.010170496 -0.031164885
v 0.05300733 0.019719899 -0.031015737
v 0.043063045 0.0052731633 -0.031513613
v -0.054827876 0.032604486 -0.02747902
v -0.049774025 0.059720557 -0.028060332
v -0.07560207 0.12823159 -0.03321693
v -0.060623944 0.14180823 -0.03323851
v -0.057487678 0.13402794 -0.03323851
v -0.057005156 0.12190514 -0.03323851
v -0.063398324 0.11141081 -0.03323851
v -0.07172146 0.108515814 -0.03323851
v -0.06732236 0.105625086 -0.03161291
v -0.06114657 0.08802241 -0.030337337
v -0.02081306 0.063726254 -0.028570691
v -0.0025884232 0.0813727 -0.031358816
v 0.0048805024 0.07543312 -0.03231905
v 0.016902959 0.067548804 -0.031300087
v 0.015294628 0.08839862 -0.03323851
v 0.008515145 0.09269264 -0.03321596
v 0.030543787 0.088098116 -0.03323851
v 0.04131368 0.12186145 -0.03323851
v 0.04446752 0.11474381 -0.03323851
v 0.022107825 0.1103429 -0.033216935
v 0.04367173 0.104081385 -0.03323851
v 0.040011525 0.09580596 -0.03323851
v 0.009343684 0.11215811 -0.038128324
v 0.01615927 0.12050203 -0.03667178
v 0.020577338 0.097073786 -0.034914393
v 0.029680723 0.09811478 -0.034433555
v 0.018021487 0.101241685 -0.036401283
v 0.015964294 0.10440295 -0.03750093
v 0.028480602 0.10138009 -0.035187226
v 0.025931958 0.12368955 -0.034771364
v 0.02967757 0.11860263 -0.03547367
v 0.034282666 0.107217394 -0.034813534
v 0.012890137 0.108897746 -0.03821211
v 0.02140235 0.11487249 -0.037008956
v 0.02638726 0.10675502 -0.036067616
v -0.10320743 0.122446775 -0.038319692
v -0.073300414 0.12123468 -0.03476286
v -0.07383581 0.116231345 -0.034482326
v -0.08571054 0.12123471 -0.03617941
v -0.073820174 0.12972835 -0.035361487
v -0.08702757 0.12595552 -0.036987416
v -0.08632198 0.117486194 -0.03557876
v -0.09789447 0.117948964 -0.038136672
v -0.081706986 0.14318432 -0.034756172
v -0.09315618 0.13654211 -0.03628844
v -0.0726969 0.14474581 -0.033816013
v -0.10045379 0.12059462 -0.038604576
v -0.09022825 0.13233845 -0.037377674
v -0.07725588 0.13803017 -0.035678335
v -0.0668797 0.13081367 -0.034428928
v -0.06994347 0.13937701 -0.034600988
v 0.01638022 0.022957822 -0.03663897
v 0.027239798 0.026204005 -0.03515857
v 0.029980991 0.013010116 -0.035299413
v 0.019558094 0.012351539 -0.036819074
v 0.01896682 0.0056300955 -0.036258783
v 0.029942555 0.0061947303 -0.034820184
v -0.008418575 0.013294204 -0.0387738
v -0.00929789 0.009886394 -0.038321394
v 0.004944173 0.01999319 -0.037718084
v 0.0068446337 0.012369623 -0.038071185
v 0.006272198 0.006321126 -0.03750356
v -0.008751691 0.018136153 -0.038481433
v -0.116193645 -0.0026648522 -0.035902943
v -0.10591539 0.017185887 -0.038097266
v -0.11051794 -0.00431775 -0.036838118
v -0.101684354 -0.00670257 -0.036342192
v -0.096400425 0.015023845 -0.038133316
v -0.10273021 0.016364634 -0.038598213
v -0.11812673 -0.010553178 -0.03478537
v -0.09383254 0.014626758 -0.037411943
v -0.09639951 -0.00746707 -0.03526007
v -0.09541212 0.001031362 -0.03618511
v -0.11255383 -0.012332619 -0.03560815
v -0.102343336 -0.014502828 -0.035194222
vt 0.9785156 0.36328125
vt 0.9111328 0.33203125
vt 0.90185547 0.35327148
vt 0.95410156 0.37524414
vt 0.9711914 0.41186523
vt 0.9941406 0.44433594
vt 0.9628906 0.38964844
vt 0.49414062 0.7426758
vt 0.4765625 0.73095703
vt 0.4790039 0.75634766
vt 0.29418945 0.5600586
vt 0.28881836 0.5390625
vt 0.27734375 0.56103516
vt 0.49145508 0.3161621
vt 0.49316406 0.29492188
vt 0.46777344 0.3100586
vt 0.96972656 0.5058594
vt 0.9550781 0.48999023
vt 0.93652344 0.49609375
vt 0.96972656 0.44262695
vt 0.86865234 0.5834961
vt 0.9135742 0.55322266
vt 0.8979492 0.5341797
vt 0.85791016 0.5620117
vt 0.91503906 0.5136719
vt 0.72509766 0.6557617
vt 0.80859375 0.61376953
vt 0.7910156 0.59472656
vt 0.7128906 0.6323242
vt 0.64746094 0.5751953
vt 0.6796875 0.58203125
vt 0.7192383 0.55078125
vt 0.5024414 0.7607422
vt 0.4663086 0.57910156
vt 0.46557617 0.5566406
vt 0.60595703 0.71191406
vt 0.5932617 0.69091797
vt 0.7607422 0.2565918
vt 0.72509766 0.25439453
vt 0.7470703 0.27441406
vt 0.7270508 0.2861328
vt 0.80810547 0.35791016
vt 0.7558594 0.32910156
vt 0.72802734 0.34765625
vt 0.67626953 0.3408203
vt 0.6801758 0.31933594
vt 0.66845703 0.4338379
vt 0.6411133 0.41601562
vt 0.6098633 0.42651367
vt 0.48291016 0.33935547
vt 0.45825195 0.50439453
vt 0.4482422 0.48046875
vt 0.29345703 0.58203125
vt 0.56591797 0.6489258
vt 0.5786133 0.66845703
vt 0.31982422 0.70166016
vt 0.27172852 0.6040039
vt 0.25805664 0.609375
vt 0.2890625 0.6948242
vt 0.044799805 0.72314453
vt 0.17785645 0.75097656
vt 0.1616211 0.734375
vt 0.045440674 0.7104492
vt 0.08911133 0.9135742
vt 0.092163086 0.9291992
vt 0.109802246 0.91748047
vt 0.29833984 0.9199219
vt 0.36987305 0.9663086
vt 0.37573242 0.9482422
vt 0.2866211 0.8847656
vt 0.37719727 0.8388672
vt 0.47436523 0.78808594
vt 0.46679688 0.77441406
vt 0.34960938 0.8354492
vt 0.11968994 0.77783203
vt 0.05899048 0.77734375
vt 0.060821533 0.78808594
vt 0.14477539 0.78564453
vt 0.47460938 0.76171875
vt 0.37963867 0.7441406
vt 0.3552246 0.75439453
vt 0.23876953 0.6772461
vt 0.15222168 0.6010742
vt 0.14440918 0.6113281
vt 0.24829102 0.7026367
vt 0.26489258 0.9892578
vt 0.2770996 0.984375
vt 0.26416016 0.96728516
vt 0.39233398 0.94921875
vt 0.3840332 0.921875
vt 0.34106445 0.88427734
vt 0.44433594 0.9165039
vt 0.43774414 0.92041016
vt 0.4255371 0.6801758
vt 0.41625977 0.671875
vt 0.4272461 0.6635742
vt 0.41479492 0.6621094
vt 0.25756836 0.59375
vt 0.24377441 0.6040039
vt 0.1315918 0.61083984
vt 0.13879395 0.60058594
vt 0.036102295 0.7265625
vt 0.042877197 0.78564453
vt 0.04586792 0.8017578
vt 0.03062439 0.71728516
vt 0.14501953 0.8442383
vt 0.18859863 0.83496094
vt 0.11462402 0.93603516
vt 0.22229004 0.8959961
vt 0.24841309 0.9819336
vt 0.2364502 0.8652344
vt 0.38842773 0.9633789
vt 0.4501953 0.9321289
vt 0.48413086 0.77246094
vt 0.4387207 0.93847656
vt 0.34521484 0.70947266
vt 0.31591797 0.7167969
vt 0.42700195 0.9135742
vt 0.04095459 0.57714844
vt 0.044799805 0.5800781
vt 0.06567383 0.5571289
vt 0.022872925 0.5986328
vt 0.020858765 0.60546875
vt 0.023742676 0.60546875
vt 0.026062012 0.60009766
vt 0.093444824 0.5371094
vt 0.093933105 0.54833984
vt 0.09710693 0.54785156
vt 0.095947266 0.53271484
vt 0.08001709 0.5439453
vt 0.07849121 0.5395508
vt 0.033569336 0.61035156
vt 0.024139404 0.6123047
vt 0.050811768 0.61865234
vt 0.08135986 0.59521484
vt 0.07232666 0.6176758
vt 0.07409668 0.62353516
vt 0.08526611 0.5966797
vt 0.093566895 0.5576172
vt 0.091308594 0.5683594
vt 0.09710693 0.5576172
vt 0.068847656 0.6176758
vt 0.02684021 0.60791016
vt 0.068115234 0.546875
vt 0.07147217 0.55078125
vt 0.7836914 0.66064453
vt 0.79248047 0.66259766
vt 0.7832031 0.6567383
vt 0.8022461 0.65722656
vt 0.8027344 0.6611328
vt 0.7763672 0.6621094
vt 0.7729492 0.6689453
vt 0.77685547 0.67089844
vt 0.7792969 0.6640625
vt 0.9824219 0.58691406
vt 0.98046875 0.5703125
vt 0.9638672 0.5830078
vt 0.9633789 0.58740234
vt 0.94189453 0.6088867
vt 0.91308594 0.6279297
vt 0.9194336 0.63623047
vt 0.9580078 0.6196289
vt 0.9550781 0.5625
vt 0.9511719 0.58203125
vt 0.9604492 0.58154297
vt 0.9790039 0.6040039
vt 0.79785156 0.72558594
vt 0.79003906 0.72558594
vt 0.7895508 0.72998047
vt 0.7973633 0.72998047
vt 0.8203125 0.7089844
vt 0.8120117 0.7163086
vt 0.8227539 0.7128906
vt 0.8051758 0.7265625
vt 0.80322266 0.7236328
vt 0.78027344 0.69140625
vt 0.7734375 0.68603516
vt 0.77685547 0.7104492
vt 0.92626953 0.5800781
vt 0.9399414 0.5864258
vt 0.77685547 0.6777344
vt 0.77783203 0.6850586
vt 0.78466797 0.71972656
vt 0.78125 0.70947266
vt 0.7817383 0.7211914
vt 0.8378906 0.6855469
vt 0.83251953 0.69970703
vt 0.83691406 0.7026367
vt 0.84277344 0.6879883
vt 0.86572266 0.62353516
vt 0.8408203 0.64404297
vt 0.86816406 0.6279297
vt 0.89990234 0.6020508
vt 0.9013672 0.6088867
vt 0.9296875 0.59228516
vt 0.9604492 0.5942383
vt 0.88134766 0.64941406
vt 0.88720703 0.6533203
vt 0.81347656 0.6513672
vt 0.81640625 0.65625
vt 0.85546875 0.66845703
vt 0.828125 0.7050781
vt 0.69677734 0.73779297
vt 0.7109375 0.76416016
vt 0.73779297 0.7524414
vt 0.69384766 0.75878906
vt 0.7211914 0.7709961
vt 0.72558594 0.78125
vt 0.7470703 0.7973633
vt 0.7241211 0.7939453
vt 0.63378906 0.97558594
vt 0.6489258 0.98339844
vt 0.65185547 0.9667969
vt 0.64404297 0.9614258
vt 0.53564453 0.9453125
vt 0.52734375 0.93847656
vt 0.51220703 0.94873047
vt 0.52783203 0.96240234
vt 0.5258789 0.80029297
vt 0.53808594 0.79296875
vt 0.5341797 0.77197266
vt 0.5107422 0.7841797
vt 0.56640625 0.80859375
vt 0.5839844 0.80029297
vt 0.5732422 0.7753906
vt 0.58935547 0.77685547
vt 0.5917969 0.7993164
vt 0.6254883 0.7631836
vt 0.6660156 0.76904297
vt 0.6748047 0.74365234
vt 0.64746094 0.7758789
vt 0.6323242 0.78271484
vt 0.6796875 0.765625
vt 0.7363281 0.8208008
vt 0.71777344 0.80371094
vt 0.6635742 0.8623047
vt 0.6479492 0.87402344
vt 0.65527344 0.8979492
vt 0.5097656 0.8286133
vt 0.5097656 0.8198242
vt 0.49145508 0.8125
vt 0.49267578 0.83251953
vt 0.51708984 0.8095703
vt 0.69873047 0.81103516
vt 0.6894531 0.80908203
vt 0.6850586 0.82666016
vt 0.7084961 0.8100586
vt 0.6826172 0.80566406
vt 0.66064453 0.81152344
vt 0.65478516 0.81591797
vt 0.66796875 0.8364258
vt 0.64941406 0.8305664
vt 0.64697266 0.86083984
vt 0.6430664 0.86865234
vt 0.6767578 0.9013672
vt 0.6611328 0.91748047
vt 0.67285156 0.9199219
vt 0.6870117 0.9765625
vt 0.69970703 0.9560547
vt 0.6801758 0.9506836
vt 0.6738281 0.9614258
vt 0.69873047 0.9140625
vt 0.6801758 0.92626953
vt 0.68310547 0.9379883
vt 0.66308594 0.96728516
vt 0.6381836 0.95410156
vt 0.60595703 0.92871094
vt 0.6308594 0.93603516
vt 0.6220703 0.9169922
vt 0.54589844 0.9482422
vt 0.56152344 0.96484375
vt 0.56689453 0.94091797
vt 0.5571289 0.9472656
vt 0.5786133 0.95654297
vt 0.5913086 0.9394531
vt 0.57421875 0.9321289
vt 0.56152344 0.85302734
vt 0.54785156 0.8515625
vt 0.52441406 0.86865234
vt 0.5292969 0.90478516
vt 0.5390625 0.8847656
vt 0.50927734 0.9013672
vt 0.52441406 0.9291992
vt 0.50390625 0.92871094
vt 0.57177734 0.9057617
vt 0.5751953 0.91552734
vt 0.5957031 0.9121094
vt 0.57666016 0.9223633
vt 0.59814453 0.87939453
vt 0.58496094 0.89160156
vt 0.6015625 0.8876953
vt 0.6098633 0.8955078
vt 0.5185547 0.83935547
vt 0.50390625 0.85302734
vt 0.5498047 0.87060547
vt 0.5644531 0.80078125
vt 0.55859375 0.7944336
vt 0.5517578 0.7915039
vt 0.53125 0.8461914
vt 0.52441406 0.91503906
vt 0.8183594 0.9321289
vt 0.8173828 0.9121094
vt 0.81396484 0.9165039
vt 0.8051758 0.90625
vt 0.80371094 0.90966797
vt 0.8066406 0.9121094
vt 0.8095703 0.91503906
vt 0.7861328 0.9091797
vt 0.79541016 0.90722656
vt 0.79589844 0.90234375
vt 0.78466797 0.9042969
vt 0.7792969 0.9140625
vt 0.7753906 0.9116211
vt 0.77490234 0.9301758
vt 0.7714844 0.93115234
vt 0.7739258 0.93847656
vt 0.77783203 0.9375
vt 0.7832031 0.9482422
vt 0.7988281 0.9482422
vt 0.79785156 0.94433594
vt 0.78466797 0.9433594
vt 0.81103516 0.9433594
vt 0.8076172 0.9399414
vt 0.8144531 0.93066406
vt 0.7714844 0.92089844
vt 0.7753906 0.92285156
vt 0.9296875 0.9848633
vt 0.9506836 0.96972656
vt 0.93115234 0.95947266
vt 0.92041016 0.9663086
vt 0.9609375 0.94091797
vt 0.9423828 0.94140625
vt 0.93896484 0.95166016
vt 0.94140625 0.9272461
vt 0.9555664 0.91503906
vt 0.9453125 0.9091797
vt 0.90478516 0.984375
vt 0.90722656 0.96875
vt 0.9008789 0.9658203
vt 0.8955078 0.97558594
vt 0.8901367 0.9501953
vt 0.89404297 0.93603516
vt 0.890625 0.93408203
vt 0.8857422 0.9506836
vt 0.9013672 0.9296875
vt 0.89941406 0.9248047
vt 0.92822266 0.9145508
vt 0.90771484 0.9277344
vt 0.9116211 0.9199219
vt 0.9140625 0.92822266
vt 0.89501953 0.95947266
vt 0.9213867 0.9321289
vt 0.93359375 0.9321289
vt 0.8198242 0.8330078
vt 0.8066406 0.8334961
vt 0.79345703 0.8432617
vt 0.8178711 0.82910156
vt 0.83935547 0.80078125
vt 0.8330078 0.8076172
vt 0.85058594 0.8173828
vt 0.85839844 0.8183594
vt 0.78515625 0.796875
vt 0.77734375 0.8041992
vt 0.7807617 0.8066406
vt 0.78759766 0.80078125
vt 0.81689453 0.7861328
vt 0.8071289 0.7861328
vt 0.80810547 0.7993164
vt 0.8144531 0.80078125
vt 0.7783203 0.83496094
vt 0.78515625 0.84033203
vt 0.7866211 0.8364258
vt 0.7817383 0.8310547
vt 0.7729492 0.81347656
vt 0.7734375 0.8251953
vt 0.77783203 0.82470703
vt 0.7763672 0.8144531
vt 0.79785156 0.7861328
vt 0.80126953 0.7988281
vt 0.79296875 0.8383789
vt 0.83251953 0.82373047
vt 0.9663086 0.78564453
vt 0.9614258 0.77685547
vt 0.9584961 0.77978516
vt 0.96240234 0.7866211
vt 0.95458984 0.7705078
vt 0.94433594 0.77001953
vt 0.94433594 0.7739258
vt 0.9526367 0.77490234
vt 0.92822266 0.78125
vt 0.9355469 0.7753906
vt 0.93408203 0.7714844
vt 0.9248047 0.7783203
vt 0.9277344 0.80078125
vt 0.92089844 0.7890625
vt 0.91259766 0.81347656
vt 0.92333984 0.83935547
vt 0.9067383 0.84228516
vt 0.91503906 0.8564453
vt 0.9350586 0.8520508
vt 0.96191406 0.83251953
vt 0.9604492 0.7993164
vt 0.94628906 0.8203125
vt 0.97509766 0.8066406
vt 0.92626953 0.79003906
vt 0.92626953 0.81591797
vt 0.6069336 0.074279785
vt 0.65185547 0.10028076
vt 0.63964844 0.05847168
vt 0.62646484 0.17553711
vt 0.6035156 0.1484375
vt 0.5942383 0.17565918
vt 0.56396484 0.16357422
vt 0.68359375 0.19384766
vt 0.6933594 0.16723633
vt 0.6660156 0.1394043
vt 0.7573242 0.20202637
vt 0.75097656 0.17822266
vt 0.73535156 0.20678711
vt 0.77490234 0.019104004
vt 0.7602539 0.045074463
vt 0.78027344 0.0619812
vt 0.6738281 0.2220459
vt 0.71191406 0.21057129
vt 0.6411133 0.1385498
vt 0.6064453 0.11798096
vt 0.5366211 0.095825195
vt 0.5048828 0.1274414
vt 0.5439453 0.13244629
vt 0.6713867 0.09375
vt 0.71533203 0.12243652
vt 0.72558594 0.12976074
vt 0.76220703 0.10620117
vt 0.7392578 0.08416748
vt 0.69628906 0.036712646
vt 0.7138672 0.062072754
vt 0.73291016 0.0209198
vt 0.7001953 0.14367676
vt 0.7011719 0.1060791
vt 0.5649414 0.09838867
vt 0.60546875 0.09527588
vt 0.56933594 0.07055664
vt 0.61572266 0.22033691
vt 0.60839844 0.19433594
vt 0.5913086 0.21801758
vt 0.5727539 0.19104004
vt 0.5859375 0.26489258
vt 0.5180664 0.21984863
vt 0.5361328 0.26635742
vt 0.50634766 0.16467285
vt 0.5126953 0.19445801
vt 0.57910156 0.12524414
vt 0.7402344 0.24291992
vt 0.72021484 0.23095703
vt 0.7050781 0.25512695
vt 0.71972656 0.26733398
vt 0.68359375 0.28588867
vt 0.6582031 0.28320312
vt 0.6347656 0.25219727
vt 0.6489258 0.19262695
vt 0.60058594 0.05026245
vt 0.46533203 0.5473633
vt 0.32617188 0.5541992
vt 0.6855469 0.58984375
vt 0.7548828 0.5336914
vt 0.65185547 0.40429688
vt 0.50390625 0.32006836
vt 0.58935547 0.6855469
vt 0.5283203 0.71875
vt 0.58203125 0.6738281
vt 0.46020508 0.5136719
vt 0.7055664 0.43554688
vt 0.6645508 0.37524414
vt 0.4638672 0.52783203
vt 0.9091797 0.44262695
vt 0.70751953 0.62353516
vt 0.5859375 0.6796875
vt 0.69628906 0.6074219
vt 0.7832031 0.5864258
vt 0.7626953 0.56396484
vt 0.6743164 0.35009766
vt 0.72265625 0.35766602
vt 0.84277344 0.37060547
vt 0.7602539 0.28564453
vt 0.7104492 0.38989258
vt 0.71484375 0.48095703
vt 0.85302734 0.55078125
vt 0.8466797 0.5136719
vt 0.83251953 0.42163086
vt 0.90527344 0.3894043
vt 0.90234375 0.36083984
vt 0.9140625 0.49536133
vt 0.86816406 0.3635254
vt 0.8378906 0.45898438
vt 0.26367188 0.9560547
vt 0.28344727 0.87597656
vt 0.26367188 0.8666992
vt 0.07531738 0.79052734
vt 0.20251465 0.83203125
vt 0.18493652 0.8129883
vt 0.27490234 0.7788086
vt 0.28198242 0.76708984
vt 0.26391602 0.76416016
vt 0.3046875 0.82128906
vt 0.31420898 0.8520508
vt 0.32128906 0.8261719
vt 0.2956543 0.79003906
vt 0.30126953 0.77734375
vt 0.30541992 0.7963867
vt 0.3100586 0.7836914
vt 0.29956055 0.8208008
vt 0.14978027 0.6201172
vt 0.19470215 0.7583008
vt 0.3383789 0.83154297
vt 0.3371582 0.85302734
vt 0.25170898 0.71972656
vt 0.31518555 0.73583984
vt 0.34643555 0.7163086
vt 0.3305664 0.875
vt 0.36621094 0.9379883
vt 0.24389648 0.8569336
vt 0.1239624 0.9082031
vt 0.17260742 0.796875
vt 0.06072998 0.7290039
vt 0.2841797 0.70410156
vt 0.27319336 0.70947266
vt 0.25952148 0.6220703
vt 0.40551758 0.6816406
vt 0.3449707 0.7607422
vt 0.4584961 0.7758789
vt 0.34375 0.79589844
vt 0.3269043 0.80371094
vt 0.18579102 0.7739258
vt 0.2241211 0.84472656
vt 0.22558594 0.73779297
vt 0.24060059 0.7607422
vt 0.26831055 0.82958984
vt 0.31176758 0.8754883
vt 0.3017578 0.8466797
vt 0.21069336 0.80126953
vt 0.22583008 0.80908203
vt 0.25610352 0.7988281
vt 0.28857422 0.83984375
vt 0.22485352 0.78222656
vt 0.2836914 0.8095703
vt 0.25463867 0.79296875
vt 0.24230957 0.81689453
vt 0.08355713 0.5566406
vt 0.073913574 0.5649414
vt 0.08581543 0.5678711
vt 0.06970215 0.56152344
vt 0.07928467 0.55371094
vt 0.07470703 0.5522461
vt 0.06768799 0.55908203
vt 0.09118652 0.5571289
vt 0.0814209 0.54785156
vt 0.07739258 0.5942383
vt 0.08569336 0.55078125
vt 0.053588867 0.5883789
vt 0.047210693 0.5839844
vt 0.045562744 0.58203125
vt 0.086120605 0.5571289
vt 0.08984375 0.5444336
vt 0.95947266 0.58691406
vt 0.9555664 0.58447266
vt 0.90966797 0.62597656
vt 0.8774414 0.64697266
vt 0.81640625 0.6972656
vt 0.82910156 0.6791992
vt 0.81103516 0.69433594
vt 0.8730469 0.64404297
vt 0.90527344 0.6225586
vt 0.90283203 0.61621094
vt 0.8701172 0.63623047
vt 0.8520508 0.6665039
vt 0.83447266 0.68310547
vt 0.84814453 0.6640625
vt 0.84375 0.6533203
vt 0.82177734 0.6689453
vt 0.82421875 0.6972656
vt 0.95996094 0.59033203
vt 0.9370117 0.6069336
vt 0.93310547 0.6040039
vt 0.93066406 0.5991211
vt 0.81103516 0.7133789
vt 0.8027344 0.71728516
vt 0.79345703 0.7104492
vt 0.7910156 0.68652344
vt 0.8178711 0.66015625
vt 0.79541016 0.67041016
vt 0.8017578 0.6816406
vt 0.78564453 0.6743164
vt 0.7836914 0.67041016
vt 0.70214844 0.7885742
vt 0.6953125 0.7631836
vt 0.65478516 0.96533203
vt 0.53759766 0.9433594
vt 0.6196289 0.86328125
vt 0.61621094 0.8339844
vt 0.59228516 0.8598633
vt 0.67626953 0.79541016
vt 0.6533203 0.8027344
vt 0.6767578 0.78222656
vt 0.64941406 0.7841797
vt 0.66845703 0.7753906
vt 0.6826172 0.7705078
vt 0.6484375 0.81640625
vt 0.6328125 0.79296875
vt 0.63720703 0.8095703
vt 0.56689453 0.8178711
vt 0.5942383 0.8066406
vt 0.6254883 0.9111328
vt 0.6357422 0.9321289
vt 0.6464844 0.92041016
vt 0.63720703 0.9013672
vt 0.5761719 0.8486328
vt 0.5498047 0.84716797
vt 0.5185547 0.8300781
vt 0.52734375 0.83984375
vt 0.55029297 0.81591797
vt 0.5571289 0.8383789
vt 0.5654297 0.82910156
vt 0.54248047 0.8378906
vt 0.54541016 0.8413086
vt 0.5395508 0.79589844
vt 0.53466797 0.8305664
vt 0.53027344 0.8173828
vt 0.53222656 0.8046875
vt 0.5229492 0.80810547
vt 0.5175781 0.81884766
vt 0.5288086 0.8022461
vt 0.64160156 0.8339844
vt 0.6357422 0.8652344
vt 0.66552734 0.94384766
vt 0.6484375 0.95947266
vt 0.64453125 0.9506836
vt 0.64404297 0.93652344
vt 0.6513672 0.9243164
vt 0.6611328 0.9213867
vt 0.65625 0.91796875
vt 0.6489258 0.89746094
vt 0.60253906 0.8696289
vt 0.58154297 0.8901367
vt 0.5727539 0.8833008
vt 0.55908203 0.87402344
vt 0.56103516 0.8979492
vt 0.56884766 0.90283203
vt 0.54345703 0.8979492
vt 0.53125 0.93652344
vt 0.52783203 0.92822266
vt 0.55322266 0.92333984
vt 0.5288086 0.9160156
vt 0.53271484 0.9067383
vt 0.8105469 0.92871094
vt 0.8027344 0.9375
vt 0.79785156 0.9116211
vt 0.78759766 0.91259766
vt 0.80029297 0.9160156
vt 0.8027344 0.9199219
vt 0.7885742 0.9165039
vt 0.7915039 0.94140625
vt 0.78759766 0.9355469
vt 0.78222656 0.92285156
vt 0.80615234 0.9248047
vt 0.796875 0.93115234
vt 0.7910156 0.9223633
vt 0.9404297 0.9404297
vt 0.90625 0.93896484
vt 0.9067383 0.93359375
vt 0.92041016 0.93896484
vt 0.9067383 0.94873047
vt 0.921875 0.94433594
vt 0.9213867 0.9345703
vt 0.9345703 0.9350586
vt 0.9160156 0.96435547
vt 0.9291992 0.95654297
vt 0.9057617 0.9658203
vt 0.9375 0.93847656
vt 0.92578125 0.95166016
vt 0.91064453 0.9584961
vt 0.8989258 0.9501953
vt 0.90234375 0.95996094
vt 0.8027344 0.82470703
vt 0.79003906 0.8286133
vt 0.7871094 0.81347656
vt 0.7988281 0.8129883
vt 0.7998047 0.8051758
vt 0.7871094 0.80615234
vt 0.8305664 0.81396484
vt 0.83154297 0.8100586
vt 0.8154297 0.82128906
vt 0.81347656 0.8129883
vt 0.81396484 0.80566406
vt 0.8310547 0.81933594
vt 0.95458984 0.7963867
vt 0.9428711 0.81933594
vt 0.9482422 0.7944336
vt 0.9379883 0.7919922
vt 0.9316406 0.81689453
vt 0.93896484 0.8183594
vt 0.95703125 0.78759766
vt 0.9291992 0.81640625
vt 0.9321289 0.7910156
vt 0.93066406 0.80078125
vt 0.9506836 0.78564453
vt 0.93896484 0.7832031
vn -0 0 -1
vn -0 0 -1
vn -0 0 -1
vn -0 0 -1
vn -0 0 -1
vn -0 0 -1
vn -0 0 -1
vn -0 0 -1
vn -0 0 -1
vn -0 0 -1
vn -0 0 -1
vn -0 0 -1
vn -0 0 -1
vn -0 0 -1
vn -0 0 -1
vn -0 0 -1
vn -0 0 -1
vn -0 0 -1
vn -0 0 -1
vn -0 0 -1
vn -0 0 -1
vn -0 0 -1
vn -0 0 -1
vn -0 0 -1
vn -0 0 -1
vn -0 0 -1
vn -0 0 -1
vn -0 0 -1
vn -0 0 -1
vn -0 0 -1
vn -0 0 -1
vn -0 0 -1
vn -0 0 -1
vn -0 0 -1
vn -0 0 -1
vn -0 0 -1
vn -0 0 -1
vn -0 0 -1
vn -0 0 -1
vn -0 0 -1
vn -0 0 -1
vn -0 0 -1
vn -0 0 -1
vn -0 0 -1
vn -0 0 -1
vn -0 0 -1
vn -0 0 -1
vn -0 0 -1
vn -0 0 -1
vn -0 0 -1
vn -0 0 -1
vn -0 0 -1
vn -0 0 -1
vn -0 0 -1
vn -0 0 -1
vn -0 0 -1
vn -0 0 -1
vn -0 0 -1
vn -0 0 -1
vn -0 0 -1
vn -0 0 -1
vn -0 0 -1
vn -0 0 -1
vn -0 0 -1
vn -0 0 -1
vn -0 0 -1
vn -0 0 -1
vn -0 0 -1
vn -0 0 -1
vn -0 0 -1
vn -0 0 -1
vn -0 0 -1
vn -0 0 -1
vn -0 0 -1
vn -0 0 -1
vn -0 0 -1
vn -0 0 -1
vn -0 0 -1
vn -0 0 -1
vn -0 0 -1
vn -0 0 -1
vn -0 0 -1
vn -0 0 -1
vn -0 0 -1
vn -0 0 -1
vn -0 0 -1
vn -0 0 -1
vn -0 0 -1
vn -0 0 -1
vn -0 0 -1
vn -0 0 -1
vn -0 0 -1
vn -0 0 -1
vn -0 0 -1
vn -0 0 -1
vn -0 0 -1
vn -0 0 -1
vn -0 0 -1
vn -0 0 -1
vn -0 0 -1
vn -0 0 -1
vn -0 0 -1
vn -0 0 -1
vn -0 0 -1
vn -0 0 -1
vn -0 0 -1
vn -0 0 -1
vn -0 0 -1
vn -0 0 -1
vn -0 0 -1
vn -0 0 -1
vn -0 0 -1
vn -0 0 -1
vn -0 0 -1
vn -0 0 -1
vn -0 0 -1
vn -0 0 -1
vn -0 0 -1
vn -0 0 -1
vn -0 0 -1
vn -0 0 -1
vn -0 0 -1
vn -0 0 -1
vn -0 0 -1
vn -0 0 -1
vn -0 0 -1
vn -0 0 -1
vn -0 0 -1
vn -0 0 -1
vn -0 0 -1
vn -0 0 -1
vn -0 0 -1
vn -0 0 -1
vn -0 0 -1
vn -0 0 -1
vn -0 0 -1
vn -0 0 -1
vn -0 0 -1
vn -0 0 -1
vn -0 0 -1
vn -0 0 -1
vn -0 0 -1
vn -0 0 -1
vn -0 0 -1
vn -0 0 -1
vn -0 0 -1
vn -0 0 -1
vn -0 0 -1
vn -0 0 -1
vn -0 0 -1
vn -0 0 -1
vn -0 0 -1
vn -0 0 -1
vn -0 0 -1
vn -0 0 -1
vn -0 0 -1
vn -0 0 -1
vn -0 0 -1
vn -0 0 -1
vn -0 0 -1
vn -0 0 -1
vn -0 0 -1
vn -0 0 -1
vn -0 0 -1
vn -0 0 -1
vn -0 0 -1
vn -0 0 -1
vn -0 0 -1
vn -0 0 -1
vn -0 0 -1
vn -0 0 -1
vn -0 0 -1
vn -0 0 -1
vn -0 0 -1
vn -0 0 -1
vn -0 0 -1
vn -0 0 -1
vn -0 0 -1
vn -0 0 -1
vn -0 0 -1
vn -0 0 -1
vn -0 0 -1
vn -0 0 -1
vn -0 0 -1
vn -0 0 -1
vn -0 0 -1
vn -0 0 -1
vn -0 0 -1
vn -0 0 -1
vn -0 0 -1
vn -0 0 -1
vn -0 0 -1
vn -0 0 -1
vn -0 0 -1
vn -0 0 -1
vn -0 0 -1
vn -0 0 -1
vn -0 0 -1
vn -0 0 -1
vn -0 0 -1
vn -0 0 -1
vn -0 0 -1
vn -0 0 -1
vn -0 0 -1
vn -0 0 -1
vn -0 0 -1
vn -0 0 -1
vn -0 0 -1
vn -0 0 -1
vn -0 0 -1
vn -0 0 -1
vn -0 0 -1
vn -0 0 -1
vn -0 0 -1
vn -0 0 -1
vn -0 0 -1
vn -0 0 -1
vn -0 0 -1
vn -0 0 -1
vn -0 0 -1
vn -0 0 -1
vn -0 0 -1
vn -0 0 -1
vn -0 0 -1
vn -0 0 -1
vn -0 0 -1
vn -0 0 -1
vn -0 0 -1
vn -0 0 -1
vn -0 0 -1
vn -0 0 -1
vn -0 0 -1
vn -0 0 -1
vn -0 0 -1
vn -0 0 -1
vn -0 0 -1
vn -0 0 -1
vn -0 0 -1
vn -0 0 -1
vn -0 0 -1
vn -0 0 -1
vn -0 0 -1
vn -0 0 -1
vn -0 0 -1
vn -0 0 -1
vn -0 0 -1
vn -0 0 -1
vn -0 0 -1
vn -0 0 -1
vn -0 0 -1
vn -0 0 -1
vn -0 0 -1
vn -0 0 -1
vn -0 0 -1
vn -0 0 -1
vn -0 0 -1
vn -0 0 -1
vn -0 0 -1
vn -0 0 -1
vn -0 0 -1
vn -0 0 -1
vn -0 0 -1
vn -0 0 -1
vn -0 0 -1
vn -0 0 -1
vn -0 0 -1
vn -0 0 -1
vn -0 0 -1
vn -0 0 -1
vn -0 0 -1
vn -0 0 -1
vn -0 0 -1
vn -0 0 -1
vn -0 0 -1
vn -0 0 -1
vn -0 0 -1
vn -0 0 -1
vn -0 0 -1
vn -0 0 -1
vn -0 0 -1
vn -0 0 -1
vn -0 0 -1
vn -0 0 -1
vn -0 0 -1
vn -0 0 -1
vn -0 0 -1
vn -0 0 -1
vn -0 0 -1
vn -0 0 -1
vn -0 0 -1
vn -0 0 -1
vn -0 0 -1
vn -0 0 -1
vn -0 0 -1
vn -0 0 -1
vn -0 0 -1
vn -0 0 -1
vn -0 0 -1
vn -0 0 -1
vn -0 0 -1
vn -0 0 -1
vn -0 0 -1
vn -0 0 -1
vn -0 0 -1
vn -0 0 -1
vn -0 0 -1
vn -0 0 -1
vn -0 0 -1
vn -0 0 -1
vn -0 0 -1
vn -0 0 -1
vn -0 0 -1
vn -0 0 -1
vn -0 0 -1
vn -0 0 -1
vn -0 0 -1
vn -0 0 -1
vn -0 0 -1
vn -0 0 -1
vn -0 0 -1
vn -0 0 -1
vn -0 0 -1
vn -0 0 -1
vn -0 0 -1
vn -0 0 -1
vn -0 0 -1
vn -0 0 -1
vn -0 0 -1
vn -0 0 -1
vn -0 0 -1
vn -0 0 -1
vn -0 0 -1
vn -0 0 -1
vn -0 0 -1
vn -0 0 -1
vn -0 0 -1
vn -0 0 -1
vn -0 0 -1
vn -0 0 -1
vn -0 0 -1
vn -0 0 -1
vn -0 0 -1
vn -0 0 -1
vn -0 0 -1
vn -0 0 -1
vn -0 0 -1
vn -0 0 -1
vn -0 0 -1
vn -0 0 -1
vn -0 0 -1
vn -0 0 -1
vn -0 0 -1
vn -0 0 -1
vn -0 0 -1
vn -0 0 -1
vn -0 0 -1
vn -0 0 -1
vn -0 0 -1
vn -0 0 -1
vn -0 0 -1
vn -0 0 -1
vn -0 0 -1
vn -0 0 -1
vn -0 0 -1
vn -0 0 -1
vn -0 0 -1
vn -0 0 -1
vn -0 0 -1
vn -0 0 -1
vn -0 0 -1
vn -0 0 -1
vn -0 0 -1
vn -0 0 -1
vn -0 0 -1
vn -0 0 -1
vn -0 0 -1
vn -0 0 -1
vn -0 0 -1
vn -0 0 -1
vn -0 0 -1
vn -0 0 -1
vn -0 0 -1
vn -0 0 -1
vn -0 0 -1
vn -0 0 -1
vn -0 0 -1
vn -0 0 -1
vn -0 0 -1
vn -0 0 -1
vn -0 0 -1
vn -0 0 -1
vn -0 0 -1
vn -0 0 -1
vn -0 0 -1
vn -0 0 -1
vn -0 0 -1
vn -0 0 -1
vn -0 0 -1
vn -0 0 -1
vn -0 0 -1
vn -0 0 -1
vn -0 0 -1
vn -0 0 -1
vn -0 0 -1
vn -0 0 -1
vn -0 0 -1
vn -0 0 -1
vn -0 0 -1
vn -0 0 -1
vn -0 0 -1
vn -0 0 -1
vn -0 0 -1
vn -0 0 -1
vn -0 0 -1
vn -0 0 -1
vn -0 0 -1
vn -0 0 -1
vn -0 0 -1
vn -0 0 -1
vn -0 0 -1
vn -0 0 -1
vn -0 0 -1
vn -0 0 -1
vn -0 0 -1
vn -0 0 -1
vn -0 0 -1
vn -0 0 -1
vn -0 0 -1
vn -0 0 -1
vn -0 0 -1
vn -0 0 -1
vn -0 0 -1
vn -0 0 -1
vn -0 0 -1
vn -0 0 -1
vn -0 0 -1
vn -0 0 -1
vn -0 0 -1
vn -0 0 -1
vn -0 0 -1
vn -0 0 -1
vn -0 0 -1
vn -0 0 -1
vn -0 0 -1
vn -0 0 -1
vn -0 0 -1
vn -0 0 -1
vn -0 0 -1
vn -0 0 -1
vn -0 0 -1
vn -0 0 -1
vn -0 0 -1
vn -0 0 -1
vn -0 0 -1
vn -0 0 -1
vn -0 0 -1
vn -0 0 -1
vn -0 0 -1
vn -0 0 -1
vn -0 0 -1
vn -0 0 -1
vn -0 0 -1
vn -0 0 -1
vn -0 0 -1
vn -0 0 -1
vn -0 0 -1
vn -0 0 -1
vn -0 0 -1
vn -0 0 -1
vn -0 0 -1
vn -0 0 -1
vn -0 0 -1
vn -0 0 -1
vn -0 0 -1
vn -0 0 -1
vn -0 0 -1
vn -0 0 -1
vn -0 0 -1
vn -0 0 -1
vn -0 0 -1
vn -0 0 -1
vn -0 0 -1
vn -0 0 -1
vn -0 0 -1
vn -0 0 -1
vn -0 0 -1
vn -0 0 -1
vn -0 0 -1
vn -0 0 -1
vn -0 0 -1
vn -0 0 -1
vn -0 0 -1
vn -0 0 -1
vn -0 0 -1
vn -0 0 -1
vn -0 0 -1
vn -0 0 -1
vn -0 0 -1
vn -0 0 -1
vn -0 0 -1
vn -0 0 -1
vn -0 0 -1
vn -0 0 -1
vn -0 0 -1
vn -0 0 -1
vn -0 0 -1
vn -0 0 -1
vn -0 0 -1
vn -0 0 -1
vn -0 0 -1
vn -0 0 -1
vn -0 0 -1
vn -0 0 -1
vn -0 0 -1
vn -0 0 -1
vn -0 0 -1
vn -0 0 -1
vn -0 0 -1
vn -0 0 -1
vn -0 0 -1
vn -0 0 -1
vn -0 0 -1
vn -0 0 -1
vn -0 0 -1
vn -0 0 -1
vn -0 0 -1
vn -0 0 -1
vn -0 0 -1
vn -0 0 -1
vn -0 0 -1
vn -0 0 -1
vn -0 0 -1
vn -0 0 -1
vn -0 0 -1
vn -0 0 -1
vn -0 0 -1
vn -0 0 -1
vn -0 0 -1
vn -0 0 -1
vn -0 0 -1
vn -0 0 -1
vn -0 0 -1
vn -0 0 -1
vn -0 0 -1
vn -0 0 -1
vn -0 0 -1
vn -0 0 -1
vn -0 0 -1
vn -0 0 -1
vn -0 0 -1
vn -0 0 -1
vn -0 0 -1
vn -0 0 -1
vn -0 0 -1
vn -0 0 -1
vn -0 0 -1
vn -0 0 -1
vn -0 0 -1
vn -0 0 -1
vn -0 0 -1
vn -0 0 -1
vn -0 0 -1
vn -0 0 -1
vn -0 0 -1
vn -0 0 -1
vn -0 0 -1
vn -0 0 -1
vn -0 0 -1
vn -0 0 -1
vn -0 0 -1
vn -0 0 -1
vn -0 0 -1
vn -0 0 -1
vn -0 0 -1
vn -0 0 -1
vn -0 0 -1
vn -0 0 -1
vn -0 0 -1
vn -0 0 -1
vn -0 0 -1
vn -0 0 -1
vn -0 0 -1
vn -0 0 -1
vn -0 0 -1
vn -0 0 -1
vn -0 0 -1
vn -0 0 -1
vn -0 0 -1
vn -0 0 -1
vn -0 0 -1
vn -0 0 -1
vn -0 0 -1
vn -0 0 -1
vn -0 0 -1
vn -0 0 -1
vn -0 0 -1
vn -0 0 -1
vn -0 0 -1
vn -0 0 -1
vn -0 0 -1
vn -0 0 -1
vn -0 0 -1
vn -0 0 -1
vn -0 0 -1
vn -0 0 -1
vn -0 0 -1
vn -0 0 -1
vn -0 0 -1
vn -0 0 -1
vn -0 0 -1
vn -0 0 -1
vn -0 0 -1
vn -0 0 -1
vn -0 0 -1
vn -0 0 -1
vn -0 0 -1
vn -0 0 -1
vn -0 0 -1
vn -0 0 -1
vn -0 0 -1
vn -0 0 -1
vn -0 0 -1
vn -0 0 -1
vn -0 0 -1
vn -0 0 -1
vn -0 0 -1
vn -0 0 -1
vn -0 0 -1
vn -0 0 -1
vn -0 0 -1
vn -0 0 -1
vn -0 0 -1
vn -0 0 -1
vn -0 0 -1
vn -0 0 -1
vn -0 0 -1
vn -0 0 -1
vn -0 0 -1
vn -0 0 -1
vn -0 0 -1
vn -0 0 -1
vn -0 0 -1
vn -0 0 -1
vn -0 0 -1
vn -0 0 -1
vn -0 0 -1
vn -0 0 -1
vn -0 0 -1
vn -0 0 -1
vn -0 0 -1
vn -0 0 -1
vn -0 0 -1
vn -0 0 -1
vn -0 0 -1
vn -0 0 -1
vn -0 0 -1
vn -0 0 -1
vn -0 0 -1
vn -0 0 -1
vn -0 0 -1
vn -0 0 -1
vn -0 0 -1
vn -0 0 -1
vn -0 0 -1
vn -0 0 -1
vn -0 0 -1
vn -0 0 -1
vn -0 0 -1
vn -0 0 -1
vn -0 0 -1
vn -0 0 -1
vn -0 0 -1
vn -0 0 -1
vn -0 0 -1
vn -0 0 -1
vn -0 0 -1
vn -0 0 -1
vn -0 0 -1
vn -0 0 -1
vn -0 0 -1
vn -0 0 -1
vn -0 0 -1
vn -0 0 -1
vn -0 0 -1
vn -0 0 -1
vn -0 0 -1
vn -0 0 -1
vn -0 0 -1
vn -0 0 -1
vn -0 0 -1
vn -0 0 -1
vn -0 0 -1
vn -0 0 -1
vn -0 0 -1
vn -0 0 -1
vn -0 0 -1
vn -0 0 -1
vn -0 0 -1
vn -0 0 -1
vn -0 0 -1
vn -0 0 -1
vn -0 0 -1
vn -0 0 -1
vn -0 0 -1
vn -0 0 -1
vn -0 0 -1
g cPK_10_001040_00_THUNDERex_RR_L_SB_0
f 3/3/3 2/2/2 1/1/1
f 4/4/4 3/3/3 1/1/1
f 6/6/6 5/5/5 1/1/1
f 7/7/7 1/1/1 5/5/5
f 4/4/4 1/1/1 7/7/7
f 10/10/10 9/9/9 8/8/8
f 13/13/13 12/12/12 11/11/11
f 16/16/16 15/15/15 14/14/14
f 19/19/19 18/18/18 17/17/17
f 20/20/20 6/6/6 17/17/17
f 18/18/18 20/20/20 17/17/17
f 23/23/23 22/22/22 21/21/21
f 24/24/24 23/23/23 21/21/21
f 22/22/22 23/23/23 25/25/25
f 17/17/17 22/22/22 25/25/25
f 19/19/19 17/17/17 25/25/25
f 28/28/28 27/27/27 26/26/26
f 29/29/29 28/28/28 26/26/26
f 32/32/32 31/31/31 30/30/30
f 33/33/33 10/10/10 8/8/8
f 32/32/32 30/30/30 34/34/34
f 35/35/35 32/32/32 34/34/34
f 29/29/29 26/26/26 36/36/36
f 37/37/37 29/29/29 36/36/36
f 37/37/37 36/36/36 33/33/33
f 8/8/8 37/37/37 33/33/33
f 40/40/40 39/39/39 38/38/38
f 40/40/40 38/38/38 2/2/2
f 3/3/3 40/40/40 2/2/2
f 41/41/41 39/39/39 40/40/40
f 43/43/43 40/40/40 42/42/42
f 43/43/43 42/42/42 44/44/44
f 46/46/46 45/45/45 14/14/14
f 15/15/15 46/46/46 14/14/14
f 49/49/49 48/48/48 47/47/47
f 50/50/50 16/16/16 14/14/14
f 49/49/49 47/47/47 51/51/51
f 52/52/52 49/49/49 51/51/51
f 52/52/52 51/51/51 11/11/11
f 12/12/12 52/52/52 11/11/11
f 53/53/53 13/13/13 11/11/11
f 11/11/11 35/35/35 34/34/34
f 53/53/53 11/11/11 34/34/34
f 50/50/50 14/14/14 48/48/48
f 49/49/49 50/50/50 48/48/48
f 8/8/8 9/9/9 54/54/54
f 55/55/55 8/8/8 54/54/54
f 55/55/55 54/54/54 30/30/30
f 31/31/31 55/55/55 30/30/30
f 43/43/43 44/44/44 45/45/45
f 46/46/46 43/43/43 45/45/45
f 24/24/24 21/21/21 27/27/27
f 28/28/28 24/24/24 27/27/27
f 6/6/6 20/20/20 5/5/5
f 43/43/43 41/41/41 40/40/40
f 58/58/58 57/57/57 56/56/56
f 59/59/59 58/58/58 56/56/56
f 62/62/62 61/61/61 60/60/60
f 63/63/63 62/62/62 60/60/60
f 66/66/66 65/65/65 64/64/64
f 69/69/69 68/68/68 67/67/67
f 70/70/70 69/69/69 67/67/67
f 73/73/73 72/72/72 71/71/71
f 74/74/74 73/73/73 71/71/71
f 77/77/77 76/76/76 75/75/75
f 78/78/78 77/77/77 75/75/75
f 80/80/80 79/79/79 73/73/73
f 81/81/81 80/80/80 73/73/73
f 84/84/84 83/83/83 82/82/82
f 85/85/85 84/84/84 82/82/82
f 88/88/88 87/87/87 86/86/86
f 90/90/90 89/89/89 69/69/69
f 91/91/91 90/90/90 69/69/69
f 74/74/74 71/71/71 92/92/92
f 93/93/93 74/74/74 92/92/92
f 94/94/94 80/80/80 81/81/81
f 95/95/95 94/94/94 81/81/81
f 95/95/95 97/97/97 96/96/96
f 99/99/99 98/98/98 58/58/58
f 100/100/100 84/84/84 61/61/61
f 62/62/62 100/100/100 61/61/61
f 100/100/100 101/101/101 84/84/84
f 78/78/78 75/75/75 102/102/102
f 60/60/60 78/78/78 102/102/102
f 77/77/77 104/104/104 103/103/103
f 60/60/60 102/102/102 105/105/105
f 107/107/107 106/106/106 104/104/104
f 77/77/77 107/107/107 104/104/104
f 66/66/66 64/64/64 106/106/106
f 107/107/107 66/66/66 106/106/106
f 108/108/108 65/65/65 66/66/66
f 88/88/88 110/110/110 109/109/109
f 111/111/111 88/88/88 109/109/109
f 70/70/70 67/67/67 87/87/87
f 88/88/88 70/70/70 87/87/87
f 89/89/89 112/112/112 69/69/69
f 93/93/93 92/92/92 113/113/113
f 79/79/79 114/114/114 73/73/73
f 93/93/93 115/115/115 90/90/90
f 91/91/91 93/93/93 90/90/90
f 93/93/93 113/113/113 115/115/115
f 84/84/84 101/101/101 83/83/83
f 109/109/109 108/108/108 66/66/66
f 111/111/111 109/109/109 66/66/66
f 77/77/77 103/103/103 76/76/76
f 63/63/63 60/60/60 105/105/105
f 82/82/82 99/99/99 58/58/58
f 85/85/85 82/82/82 58/58/58
f 58/58/58 98/98/98 57/57/57
f 116/116/116 56/56/56 97/97/97
f 95/95/95 116/116/116 97/97/97
f 95/95/95 96/96/96 94/94/94
f 73/73/73 114/114/114 72/72/72
f 69/69/69 112/112/112 68/68/68
f 88/88/88 86/86/86 110/110/110
f 116/116/116 117/117/117 56/56/56
f 117/117/117 59/59/59 56/56/56
f 93/93/93 118/118/118 74/74/74
f 121/121/121 120/120/120 119/119/119
f 124/124/124 123/123/123 122/122/122
f 125/125/125 124/124/124 122/122/122
f 128/128/128 127/127/127 126/126/126
f 129/129/129 128/128/128 126/126/126
f 129/129/129 126/126/126 130/130/130
f 131/131/131 129/129/129 130/130/130
f 134/134/134 133/133/133 132/132/132
f 137/137/137 136/136/136 135/135/135
f 138/138/138 137/137/137 135/135/135
f 141/141/141 140/140/140 139/139/139
f 141/141/141 139/139/139 127/127/127
f 128/128/128 141/141/141 127/127/127
f 125/125/125 122/122/122 119/119/119
f 120/120/120 125/125/125 119/119/119
f 137/137/137 142/142/142 136/136/136
f 133/133/133 143/143/143 132/132/132
f 132/132/132 142/142/142 134/134/134
f 137/137/137 134/134/134 142/142/142
f 130/130/130 145/145/145 144/144/144
f 131/131/131 130/130/130 144/144/144
f 144/144/144 145/145/145 121/121/121
f 144/144/144 121/121/121 119/119/119
f 143/143/143 133/133/133 123/123/123
f 124/124/124 143/143/143 123/123/123
f 141/141/141 138/138/138 140/140/140
f 138/138/138 135/135/135 140/140/140
f 148/148/148 147/147/147 146/146/146
f 150/150/150 147/147/147 149/149/149
f 153/153/153 152/152/152 151/151/151
f 154/154/154 153/153/153 151/151/151
f 157/157/157 156/156/156 155/155/155
f 158/158/158 157/157/157 155/155/155
f 161/161/161 160/160/160 159/159/159
f 162/162/162 161/161/161 159/159/159
f 165/165/165 164/164/164 163/163/163
f 166/166/166 158/158/158 155/155/155
f 169/169/169 168/168/168 167/167/167
f 170/170/170 169/169/169 167/167/167
f 173/173/173 172/172/172 171/171/171
f 174/174/174 172/172/172 173/173/173
f 175/175/175 172/172/172 174/174/174
f 178/178/178 177/177/177 176/176/176
f 180/180/180 179/179/179 163/163/163
f 152/152/152 181/181/181 177/177/177
f 177/177/177 181/181/181 182/182/182
f 178/178/178 184/184/184 183/183/183
f 185/185/185 178/178/178 183/183/183
f 154/154/154 151/151/151 148/148/148
f 146/146/146 154/154/154 148/148/148
f 188/188/188 187/187/187 186/186/186
f 189/189/189 188/188/188 186/186/186
f 192/192/192 191/191/191 190/190/190
f 192/192/192 190/190/190 193/193/193
f 194/194/194 192/192/192 193/193/193
f 194/194/194 193/193/193 179/179/179
f 195/195/195 194/194/194 179/179/179
f 180/180/180 195/195/195 179/179/179
f 162/162/162 159/159/159 196/196/196
f 198/198/198 197/197/197 160/160/160
f 161/161/161 198/198/198 160/160/160
f 150/150/150 149/149/149 199/199/199
f 200/200/200 150/150/150 199/199/199
f 198/198/198 189/189/189 201/201/201
f 186/186/186 201/201/201 189/189/189
f 191/191/191 200/200/200 199/199/199
f 191/191/191 199/199/199 190/190/190
f 198/198/198 201/201/201 197/197/197
f 185/185/185 183/183/183 168/168/168
f 169/169/169 185/185/185 168/168/168
f 170/170/170 167/167/167 175/175/175
f 174/174/174 170/170/170 175/175/175
f 178/178/178 176/176/176 184/184/184
f 177/177/177 182/182/182 176/176/176
f 152/152/152 153/153/153 181/181/181
f 148/148/148 149/149/149 147/147/147
f 188/188/188 202/202/202 187/187/187
f 171/171/171 202/202/202 173/173/173
f 188/188/188 173/173/173 202/202/202
f 164/164/164 180/180/180 163/163/163
f 165/165/165 163/163/163 156/156/156
f 157/157/157 165/165/165 156/156/156
f 166/166/166 196/196/196 158/158/158
f 166/166/166 162/162/162 196/196/196
f 205/205/205 204/204/204 203/203/203
f 206/206/206 203/203/203 204/204/204
f 205/205/205 208/208/208 207/207/207
f 210/210/210 208/208/208 209/209/209
f 213/213/213 212/212/212 211/211/211
f 214/214/214 213/213/213 211/211/211
f 217/217/217 216/216/216 215/215/215
f 218/218/218 217/217/217 215/215/215
f 221/221/221 220/220/220 219/219/219
f 222/222/222 221/221/221 219/219/219
f 225/225/225 224/224/224 223/223/223
f 226/226/226 224/224/224 225/225/225
f 227/227/227 224/224/224 226/226/226
f 230/230/230 229/229/229 228/228/228
f 231/231/231 228/228/228 229/229/229
f 228/228/228 231/231/231 232/232/232
f 233/233/233 230/230/230 203/203/203
f 206/206/206 233/233/233 203/203/203
f 210/210/210 209/209/209 234/234/234
f 235/235/235 210/210/210 234/234/234
f 238/238/238 237/237/237 236/236/236
f 241/241/241 240/240/240 239/239/239
f 242/242/242 241/241/241 239/239/239
f 241/241/241 243/243/243 240/240/240
f 241/241/241 222/222/222 243/243/243
f 222/222/222 219/219/219 243/243/243
f 246/246/246 245/245/245 244/244/244
f 235/235/235 234/234/234 247/247/247
f 248/248/248 245/245/245 246/246/246
f 250/250/250 249/249/249 246/246/246
f 249/249/249 248/248/248 246/246/246
f 252/252/252 251/251/251 236/236/236
f 253/253/253 252/252/252 236/236/236
f 251/251/251 252/252/252 250/250/250
f 251/251/251 250/250/250 246/246/246
f 254/254/254 253/253/253 236/236/236
f 237/237/237 254/254/254 236/236/236
f 257/257/257 256/256/256 255/255/255
f 260/260/260 259/259/259 258/258/258
f 261/261/261 260/260/260 258/258/258
f 264/264/264 263/263/263 262/262/262
f 259/259/259 260/260/260 264/264/264
f 264/264/264 262/262/262 259/259/259
f 258/258/258 212/212/212 213/213/213
f 213/213/213 265/265/265 258/258/258
f 265/265/265 261/261/261 258/258/258
f 211/211/211 267/267/267 266/266/266
f 267/267/267 268/268/268 266/266/266
f 269/269/269 268/268/268 267/267/267
f 271/271/271 218/218/218 270/270/270
f 215/215/215 270/270/270 218/218/218
f 271/271/271 273/273/273 272/272/272
f 274/274/274 271/271/271 272/272/272
f 272/272/272 276/276/276 275/275/275
f 274/274/274 272/272/272 275/275/275
f 279/279/279 278/278/278 277/277/277
f 279/279/279 281/281/281 280/280/280
f 282/282/282 279/279/279 280/280/280
f 284/284/284 283/283/283 216/216/216
f 217/217/217 284/284/284 216/216/216
f 287/287/287 286/286/286 285/285/285
f 287/287/287 275/275/275 288/288/288
f 276/276/276 288/288/288 275/275/275
f 291/291/291 290/290/290 289/289/289
f 287/287/287 291/291/291 292/292/292
f 292/292/292 269/269/269 267/267/267
f 287/287/287 292/292/292 267/267/267
f 242/242/242 239/239/239 293/293/293
f 294/294/294 242/242/242 293/293/293
f 279/279/279 295/295/295 281/281/281
f 228/228/228 232/232/232 227/227/227
f 226/226/226 228/228/228 227/227/227
f 230/230/230 233/233/233 229/229/229
f 244/244/244 247/247/247 234/234/234
f 246/246/246 244/244/244 234/234/234
f 205/205/205 209/209/209 208/208/208
f 205/205/205 207/207/207 204/204/204
f 296/296/296 225/225/225 223/223/223
f 297/297/297 225/225/225 296/296/296
f 225/225/225 297/297/297 298/298/298
f 221/221/221 298/298/298 220/220/220
f 225/225/225 298/298/298 221/221/221
f 279/279/279 299/299/299 278/278/278
f 294/294/294 299/299/299 279/279/279
f 293/293/293 299/299/299 294/294/294
f 287/287/287 288/288/288 286/286/286
f 282/282/282 300/300/300 283/283/283
f 284/284/284 282/282/282 283/283/283
f 282/282/282 280/280/280 300/300/300
f 257/257/257 255/255/255 262/262/262
f 211/211/211 266/266/266 214/214/214
f 279/279/279 277/277/277 295/295/295
f 271/271/271 270/270/270 273/273/273
f 291/291/291 287/287/287 290/290/290
f 287/287/287 285/285/285 290/290/290
f 256/256/256 238/238/238 255/255/255
f 238/238/238 236/236/236 255/255/255
f 263/263/263 257/257/257 262/262/262
f 303/303/303 302/302/302 301/301/301
f 306/306/306 305/305/305 304/304/304
f 304/304/304 302/302/302 306/306/306
f 302/302/302 307/307/307 306/306/306
f 310/310/310 309/309/309 308/308/308
f 311/311/311 310/310/310 308/308/308
f 311/311/311 308/308/308 312/312/312
f 313/313/313 311/311/311 312/312/312
f 316/316/316 315/315/315 314/314/314
f 317/317/317 316/316/316 314/314/314
f 320/320/320 319/319/319 318/318/318
f 321/321/321 320/320/320 318/318/318
f 321/321/321 318/318/318 316/316/316
f 317/317/317 321/321/321 316/316/316
f 323/323/323 322/322/322 319/319/319
f 320/320/320 323/323/323 319/319/319
f 324/324/324 301/301/301 322/322/322
f 323/323/323 324/324/324 322/322/322
f 314/314/314 315/315/315 325/325/325
f 326/326/326 314/314/314 325/325/325
f 312/312/312 326/326/326 325/325/325
f 313/313/313 312/312/312 325/325/325
f 309/309/309 310/310/310 304/304/304
f 305/305/305 309/309/309 304/304/304
f 303/303/303 307/307/307 302/302/302
f 324/324/324 303/303/303 301/301/301
f 329/329/329 328/328/328 327/327/327
f 330/330/330 329/329/329 327/327/327
f 333/333/333 332/332/332 331/331/331
f 336/336/336 335/335/335 334/334/334
f 331/331/331 332/332/332 334/334/334
f 335/335/335 331/331/331 334/334/334
f 330/330/330 327/327/327 337/337/337
f 338/338/338 330/330/330 337/337/337
f 339/339/339 338/338/338 337/337/337
f 340/340/340 339/339/339 337/337/337
f 343/343/343 342/342/342 341/341/341
f 344/344/344 343/343/343 341/341/341
f 346/346/346 345/345/345 342/342/342
f 343/343/343 346/346/346 342/342/342
f 347/347/347 336/336/336 334/334/334
f 349/349/349 348/348/348 345/345/345
f 346/346/346 349/349/349 345/345/345
f 349/349/349 350/350/350 348/348/348
f 340/340/340 351/351/351 339/339/339
f 344/344/344 341/341/341 351/351/351
f 340/340/340 344/344/344 351/351/351
f 329/329/329 333/333/333 328/328/328
f 347/347/347 352/352/352 350/350/350
f 349/349/349 347/347/347 350/350/350
f 347/347/347 353/353/353 352/352/352
f 347/347/347 334/334/334 353/353/353
f 333/333/333 331/331/331 328/328/328
f 356/356/356 355/355/355 354/354/354
f 357/357/357 354/354/354 355/355/355
f 360/360/360 359/359/359 358/358/358
f 361/361/361 360/360/360 358/358/358
f 364/364/364 363/363/363 362/362/362
f 365/365/365 364/364/364 362/362/362
f 368/368/368 367/367/367 366/366/366
f 369/369/369 368/368/368 366/366/366
f 369/369/369 366/366/366 358/358/358
f 359/359/359 369/369/369 358/358/358
f 372/372/372 371/371/371 370/370/370
f 373/373/373 372/372/372 370/370/370
f 376/376/376 375/375/375 374/374/374
f 377/377/377 376/376/376 374/374/374
f 365/365/365 362/362/362 378/378/378
f 379/379/379 365/365/365 378/378/378
f 377/377/377 374/374/374 363/363/363
f 364/364/364 377/377/377 363/363/363
f 380/380/380 356/356/356 371/371/371
f 372/372/372 380/380/380 371/371/371
f 373/373/373 370/370/370 375/375/375
f 376/376/376 373/373/373 375/375/375
f 361/361/361 381/381/381 360/360/360
f 357/357/357 381/381/381 354/354/354
f 356/356/356 380/380/380 355/355/355
f 361/361/361 354/354/354 381/381/381
f 379/379/379 378/378/378 367/367/367
f 368/368/368 379/379/379 367/367/367
f 384/384/384 383/383/383 382/382/382
f 385/385/385 384/384/384 382/382/382
f 388/388/388 387/387/387 386/386/386
f 389/389/389 388/388/388 386/386/386
f 392/392/392 391/391/391 390/390/390
f 393/393/393 392/392/392 390/390/390
f 396/396/396 395/395/395 394/394/394
f 399/399/399 398/398/398 397/397/397
f 400/400/400 399/399/399 397/397/397
f 401/401/401 400/400/400 397/397/397
f 401/401/401 403/403/403 402/402/402
f 404/404/404 401/401/401 402/402/402
f 389/389/389 386/386/386 383/383/383
f 384/384/384 389/389/389 383/383/383
f 391/391/391 392/392/392 387/387/387
f 388/388/388 391/391/391 387/387/387
f 393/393/393 390/390/390 405/405/405
f 395/395/395 393/393/393 405/405/405
f 402/402/402 385/385/385 382/382/382
f 404/404/404 402/402/402 382/382/382
f 396/396/396 406/406/406 397/397/397
f 398/398/398 396/396/396 397/397/397
f 396/396/396 394/394/394 406/406/406
f 395/395/395 405/405/405 394/394/394
f 401/401/401 397/397/397 403/403/403
f 409/409/409 408/408/408 407/407/407
f 412/412/412 411/411/411 410/410/410
f 413/413/413 411/411/411 412/412/412
f 416/416/416 415/415/415 414/414/414
f 419/419/419 418/418/418 417/417/417
f 422/422/422 421/421/421 420/420/420
f 414/414/414 424/424/424 423/423/423
f 426/426/426 408/408/408 425/425/425
f 429/429/429 428/428/428 427/427/427
f 416/416/416 425/425/425 430/430/430
f 433/433/433 432/432/432 431/431/431
f 434/434/434 433/433/433 431/431/431
f 437/437/437 436/436/436 435/435/435
f 430/430/430 435/435/435 436/436/436
f 431/431/431 432/432/432 438/438/438
f 421/421/421 422/422/422 434/434/434
f 431/431/431 438/438/438 439/439/439
f 431/431/431 439/439/439 436/436/436
f 434/434/434 431/431/431 436/436/436
f 434/434/434 436/436/436 437/437/437
f 421/421/421 437/437/437 420/420/420
f 409/409/409 435/435/435 430/430/430
f 440/440/440 429/429/429 427/427/427
f 441/441/441 407/407/407 408/408/408
f 407/407/407 440/440/440 442/442/442
f 445/445/445 444/444/444 443/443/443
f 444/444/444 445/445/445 446/446/446
f 445/445/445 443/443/443 447/447/447
f 445/445/445 449/449/449 448/448/448
f 429/429/429 450/450/450 428/428/428
f 450/450/450 413/413/413 451/451/451
f 452/452/452 426/426/426 411/411/411
f 408/408/408 430/430/430 425/425/425
f 419/419/419 424/424/424 418/418/418
f 455/455/455 454/454/454 453/453/453
f 454/454/454 455/455/455 423/423/423
f 457/457/457 455/455/455 456/456/456
f 455/455/455 458/458/458 423/423/423
f 410/410/410 459/459/459 443/443/443
f 426/426/426 441/441/441 408/408/408
f 441/441/441 426/426/426 452/452/452
f 441/441/441 440/440/440 407/407/407
f 452/452/452 429/429/429 440/440/440
f 455/455/455 453/453/453 456/456/456
f 422/422/422 433/433/433 434/434/434
f 421/421/421 434/434/434 437/437/437
f 430/430/430 436/436/436 439/439/439
f 440/440/440 427/427/427 442/442/442
f 445/445/445 448/448/448 446/446/446
f 445/445/445 447/447/447 449/449/449
f 444/444/444 410/410/410 443/443/443
f 410/410/410 411/411/411 425/425/425
f 419/419/419 454/454/454 424/424/424
f 454/454/454 419/419/419 453/453/453
f 454/454/454 423/423/423 424/424/424
f 415/415/415 418/418/418 414/414/414
f 419/419/419 417/417/417 453/453/453
f 423/423/423 458/458/458 459/459/459
f 460/460/460 423/423/423 459/459/459
f 444/444/444 446/446/446 412/412/412
f 407/407/407 442/442/442 461/461/461
f 429/429/429 452/452/452 413/413/413
f 441/441/441 452/452/452 440/440/440
f 412/412/412 410/410/410 444/444/444
f 410/410/410 460/460/460 459/459/459
f 460/460/460 410/410/410 425/425/425
f 414/414/414 418/418/418 424/424/424
f 426/426/426 425/425/425 411/411/411
f 460/460/460 414/414/414 423/423/423
f 439/439/439 416/416/416 430/430/430
f 460/460/460 425/425/425 416/416/416
f 439/439/439 438/438/438 416/416/416
f 416/416/416 438/438/438 415/415/415
f 415/415/415 438/438/438 432/432/432
f 460/460/460 416/416/416 414/414/414
f 415/415/415 432/432/432 418/418/418
f 457/457/457 458/458/458 455/455/455
f 409/409/409 407/407/407 461/461/461
f 448/448/448 413/413/413 446/446/446
f 408/408/408 409/409/409 430/430/430
f 452/452/452 411/411/411 413/413/413
f 413/413/413 412/412/412 446/446/446
f 448/448/448 451/451/451 413/413/413
f 450/450/450 429/429/429 413/413/413
g cPK_10_001040_00_THUNDERex_RR_L_SB_1
f 462/462/462 35/35/35 11/11/11
f 463/463/463 462/462/462 11/11/11
f 464/464/464 31/31/31 32/32/32
f 465/465/465 464/464/464 32/32/32
f 466/466/466 48/48/48 14/14/14
f 467/467/467 466/466/466 14/14/14
f 468/468/468 37/37/37 8/8/8
f 469/469/469 468/468/468 8/8/8
f 470/470/470 55/55/55 31/31/31
f 464/464/464 470/470/470 31/31/31
f 471/471/471 51/51/51 47/47/47
f 472/472/472 471/471/471 47/47/47
f 47/47/47 48/48/48 466/466/466
f 472/472/472 47/47/47 466/466/466
f 473/473/473 466/466/466 467/467/467
f 32/32/32 35/35/35 462/462/462
f 465/465/465 32/32/32 462/462/462
f 463/463/463 474/474/474 462/462/462
f 18/18/18 475/475/475 20/20/20
f 29/29/29 37/37/37 468/468/468
f 476/476/476 29/29/29 468/468/468
f 469/469/469 477/477/477 468/468/468
f 476/476/476 468/468/468 477/477/477
f 478/478/478 476/476/476 477/477/477
f 479/479/479 476/476/476 478/478/478
f 480/480/480 479/479/479 478/478/478
f 469/469/469 8/8/8 55/55/55
f 470/470/470 469/469/469 55/55/55
f 463/463/463 11/11/11 51/51/51
f 471/471/471 463/463/463 51/51/51
f 467/467/467 14/14/14 45/45/45
f 481/481/481 467/467/467 45/45/45
f 482/482/482 44/44/44 42/42/42
f 483/483/483 482/482/482 42/42/42
f 483/483/483 42/42/42 40/40/40
f 484/484/484 483/483/483 40/40/40
f 28/28/28 29/29/29 476/476/476
f 479/479/479 28/28/28 476/476/476
f 472/472/472 466/466/466 473/473/473
f 485/485/485 472/472/472 473/473/473
f 481/481/481 45/45/45 44/44/44
f 482/482/482 481/481/481 44/44/44
f 465/465/465 462/462/462 474/474/474
f 486/486/486 465/465/465 474/474/474
f 487/487/487 24/24/24 28/28/28
f 479/479/479 487/487/487 28/28/28
f 488/488/488 487/487/487 479/479/479
f 480/480/480 488/488/488 479/479/479
f 485/485/485 489/489/489 472/472/472
f 7/7/7 490/490/490 4/4/4
f 491/491/491 3/3/3 4/4/4
f 492/492/492 25/25/25 23/23/23
f 24/24/24 487/487/487 23/23/23
f 492/492/492 488/488/488 475/475/475
f 490/490/490 475/475/475 489/489/489
f 493/493/493 490/490/490 483/483/483
f 491/491/491 484/484/484 40/40/40
f 3/3/3 491/491/491 40/40/40
f 475/475/475 490/490/490 5/5/5
f 19/19/19 25/25/25 492/492/492
f 463/463/463 471/471/471 474/474/474
f 486/486/486 474/474/474 471/471/471
f 472/472/472 486/486/486 471/471/471
f 486/486/486 472/472/472 494/494/494
f 494/494/494 489/489/489 475/475/475
f 20/20/20 475/475/475 5/5/5
f 481/481/481 473/473/473 467/467/467
f 485/485/485 473/473/473 481/481/481
f 482/482/482 485/485/485 481/481/481
f 482/482/482 483/483/483 489/489/489
f 485/485/485 482/482/482 489/489/489
f 469/469/469 470/470/470 477/477/477
f 478/478/478 477/477/477 470/470/470
f 464/464/464 478/478/478 470/470/470
f 480/480/480 478/478/478 464/464/464
f 465/465/465 480/480/480 464/464/464
f 492/492/492 23/23/23 487/487/487
f 493/493/493 491/491/491 490/490/490
f 484/484/484 493/493/493 483/483/483
f 493/493/493 484/484/484 491/491/491
f 488/488/488 480/480/480 465/465/465
f 488/488/488 494/494/494 475/475/475
f 488/488/488 465/465/465 494/494/494
f 483/483/483 490/490/490 489/489/489
f 490/490/490 491/491/491 4/4/4
f 7/7/7 5/5/5 490/490/490
f 492/492/492 487/487/487 488/488/488
f 18/18/18 492/492/492 475/475/475
f 18/18/18 19/19/19 492/492/492
f 465/465/465 486/486/486 494/494/494
f 472/472/472 489/489/489 494/494/494
f 497/497/497 496/496/496 495/495/495
f 500/500/500 499/499/499 498/498/498
f 503/503/503 502/502/502 501/501/501
f 506/506/506 505/505/505 504/504/504
f 501/501/501 508/508/508 507/507/507
f 510/510/510 509/509/509 507/507/507
f 511/511/511 509/509/509 504/504/504
f 61/61/61 84/84/84 512/512/512
f 513/513/513 61/61/61 512/512/512
f 515/515/515 514/514/514 118/118/118
f 512/512/512 84/84/84 85/85/85
f 516/516/516 512/512/512 85/85/85
f 517/517/517 117/117/117 116/116/116
f 518/518/518 517/517/517 116/116/116
f 118/118/118 93/93/93 91/91/91
f 519/519/519 118/118/118 91/91/91
f 519/519/519 91/91/91 69/69/69
f 520/520/520 519/519/519 69/69/69
f 521/521/521 111/111/111 66/66/66
f 522/522/522 521/521/521 66/66/66
f 523/523/523 78/78/78 60/60/60
f 524/524/524 523/523/523 60/60/60
f 526/526/526 525/525/525 517/517/517
f 502/502/502 526/526/526 517/517/517
f 516/516/516 85/85/85 58/58/58
f 527/527/527 516/516/516 58/58/58
f 528/528/528 95/95/95 81/81/81
f 529/529/529 528/528/528 81/81/81
f 495/495/495 88/88/88 111/111/111
f 521/521/521 495/495/495 111/111/111
f 520/520/520 69/69/69 70/70/70
f 496/496/496 520/520/520 70/70/70
f 530/530/530 73/73/73 74/74/74
f 514/514/514 530/530/530 74/74/74
f 527/527/527 58/58/58 59/59/59
f 525/525/525 527/527/527 59/59/59
f 524/524/524 60/60/60 61/61/61
f 513/513/513 524/524/524 61/61/61
f 523/523/523 498/498/498 77/77/77
f 78/78/78 523/523/523 77/77/77
f 522/522/522 66/66/66 107/107/107
f 499/499/499 522/522/522 107/107/107
f 514/514/514 74/74/74 118/118/118
f 496/496/496 70/70/70 88/88/88
f 495/495/495 496/496/496 88/88/88
f 499/499/499 107/107/107 77/77/77
f 498/498/498 499/499/499 77/77/77
f 59/59/59 117/117/117 517/517/517
f 525/525/525 59/59/59 517/517/517
f 529/529/529 81/81/81 73/73/73
f 530/530/530 529/529/529 73/73/73
f 532/532/532 531/531/531 514/514/514
f 533/533/533 523/523/523 524/524/524
f 526/526/526 503/503/503 516/516/516
f 522/522/522 534/534/534 521/521/521
f 518/518/518 116/116/116 95/95/95
f 528/528/528 518/518/518 95/95/95
f 518/518/518 528/528/528 529/529/529
f 517/517/517 518/518/518 529/529/529
f 512/512/512 535/535/535 513/513/513
f 535/535/535 512/512/512 516/516/516
f 527/527/527 526/526/526 516/516/516
f 526/526/526 527/527/527 525/525/525
f 531/531/531 529/529/529 530/530/530
f 506/506/506 532/532/532 514/514/514
f 535/535/535 536/536/536 513/513/513
f 534/534/534 522/522/522 499/499/499
f 537/537/537 521/521/521 534/534/534
f 520/520/520 538/538/538 519/519/519
f 538/538/538 539/539/539 505/505/505
f 533/533/533 524/524/524 513/513/513
f 497/497/497 495/495/495 521/521/521
f 520/520/520 496/496/496 538/538/538
f 519/519/519 515/515/515 118/118/118
f 531/531/531 530/530/530 514/514/514
f 500/500/500 498/498/498 523/523/523
f 511/511/511 504/504/504 505/505/505
f 539/539/539 511/511/511 505/505/505
f 500/500/500 523/523/523 540/540/540
f 542/542/542 541/541/541 540/540/540
f 521/521/521 537/537/537 543/543/543
f 497/497/497 521/521/521 543/543/543
f 536/536/536 535/535/535 516/516/516
f 540/540/540 523/523/523 533/533/533
f 544/544/544 540/540/540 533/533/533
f 532/532/532 510/510/510 531/531/531
f 538/538/538 496/496/496 539/539/539
f 539/539/539 543/543/543 511/511/511
f 537/537/537 545/545/545 511/511/511
f 543/543/543 537/537/537 511/511/511
f 511/511/511 545/545/545 507/507/507
f 542/542/542 546/546/546 501/501/501
f 542/542/542 501/501/501 507/507/507
f 542/542/542 545/545/545 537/537/537
f 547/547/547 542/542/542 537/537/537
f 542/542/542 547/547/547 541/541/541
f 541/541/541 547/547/547 534/534/534
f 499/499/499 500/500/500 541/541/541
f 496/496/496 497/497/497 539/539/539
f 503/503/503 536/536/536 516/516/516
f 510/510/510 508/508/508 517/517/517
f 510/510/510 529/529/529 531/531/531
f 508/508/508 502/502/502 517/517/517
f 510/510/510 517/517/517 529/529/529
f 544/544/544 533/533/533 513/513/513
f 515/515/515 519/519/519 505/505/505
f 544/544/544 546/546/546 540/540/540
f 504/504/504 509/509/509 506/506/506
f 510/510/510 532/532/532 509/509/509
f 515/515/515 506/506/506 514/514/514
f 515/515/515 505/505/505 506/506/506
f 538/538/538 505/505/505 519/519/519
f 542/542/542 540/540/540 546/546/546
f 536/536/536 544/544/544 513/513/513
f 497/497/497 543/543/543 539/539/539
f 547/547/547 537/537/537 534/534/534
f 499/499/499 541/541/541 534/534/534
f 500/500/500 540/540/540 541/541/541
f 511/511/511 507/507/507 509/509/509
f 542/542/542 507/507/507 545/545/545
f 501/501/501 502/502/502 508/508/508
f 510/510/510 507/507/507 508/508/508
f 509/509/509 532/532/532 506/506/506
f 503/503/503 546/546/546 544/544/544
f 526/526/526 502/502/502 503/503/503
f 503/503/503 501/501/501 546/546/546
f 503/503/503 544/544/544 536/536/536
f 550/550/550 549/549/549 548/548/548
f 553/553/553 552/552/552 551/551/551
f 554/554/554 553/553/553 551/551/551
f 550/550/550 555/555/555 140/140/140
f 553/553/553 556/556/556 552/552/552
f 550/550/550 140/140/140 135/135/135
f 557/557/557 550/550/550 135/135/135
f 552/552/552 548/548/548 549/549/549
f 551/551/551 552/552/552 549/549/549
f 552/552/552 558/558/558 548/548/548
f 135/135/135 136/136/136 142/142/142
f 557/557/557 135/135/135 142/142/142
f 132/132/132 559/559/559 557/557/557
f 142/142/142 132/132/132 557/557/557
f 559/559/559 132/132/132 143/143/143
f 560/560/560 559/559/559 143/143/143
f 560/560/560 143/143/143 124/124/124
f 561/561/561 560/560/560 124/124/124
f 548/548/548 558/558/558 562/562/562
f 562/562/562 558/558/558 563/563/563
f 555/555/555 562/562/562 563/563/563
f 559/559/559 549/549/549 550/550/550
f 557/557/557 559/559/559 550/550/550
f 551/551/551 549/549/549 559/559/559
f 560/560/560 551/551/551 559/559/559
f 554/554/554 551/551/551 560/560/560
f 561/561/561 554/554/554 560/560/560
f 556/556/556 558/558/558 552/552/552
f 556/556/556 563/563/563 558/558/558
f 548/548/548 562/562/562 550/550/550
f 561/561/561 124/124/124 125/125/125
f 120/120/120 121/121/121 554/554/554
f 561/561/561 120/120/120 554/554/554
f 121/121/121 145/145/145 553/553/553
f 554/554/554 121/121/121 553/553/553
f 145/145/145 130/130/130 556/556/556
f 553/553/553 145/145/145 556/556/556
f 130/130/130 126/126/126 563/563/563
f 556/556/556 130/130/130 563/563/563
f 127/127/127 563/563/563 126/126/126
f 127/127/127 555/555/555 563/563/563
f 555/555/555 127/127/127 139/139/139
f 555/555/555 139/139/139 140/140/140
f 120/120/120 561/561/561 125/125/125
f 550/550/550 562/562/562 555/555/555
f 564/564/564 157/157/157 158/158/158
f 565/565/565 165/165/165 564/564/564
f 566/566/566 160/160/160 197/197/197
f 567/567/567 566/566/566 197/197/197
f 570/570/570 569/569/569 568/568/568
f 573/573/573 572/572/572 571/571/571
f 574/574/574 573/573/573 571/571/571
f 575/575/575 201/201/201 186/186/186
f 576/576/576 575/575/575 186/186/186
f 574/574/574 571/571/571 577/577/577
f 578/578/578 574/574/574 577/577/577
f 567/567/567 197/197/197 201/201/201
f 575/575/575 567/567/567 201/201/201
f 578/578/578 577/577/577 569/569/569
f 579/579/579 578/578/578 569/569/569
f 569/569/569 576/576/576 580/580/580
f 568/568/568 569/569/569 580/580/580
f 569/569/569 577/577/577 575/575/575
f 576/576/576 569/569/569 575/575/575
f 577/577/577 571/571/571 567/567/567
f 575/575/575 577/577/577 567/567/567
f 571/571/571 572/572/572 566/566/566
f 567/567/567 571/571/571 566/566/566
f 581/581/581 196/196/196 159/159/159
f 582/582/582 581/581/581 159/159/159
f 582/582/582 583/583/583 564/564/564
f 581/581/581 582/582/582 564/564/564
f 565/565/565 564/564/564 583/583/583
f 584/584/584 565/565/565 583/583/583
f 196/196/196 581/581/581 158/158/158
f 581/581/581 564/564/564 158/158/158
f 165/165/165 157/157/157 564/564/564
f 582/582/582 159/159/159 160/160/160
f 566/566/566 582/582/582 160/160/160
f 566/566/566 572/572/572 583/583/583
f 582/582/582 566/566/566 583/583/583
f 584/584/584 583/583/583 572/572/572
f 573/573/573 584/584/584 572/572/572
f 576/576/576 186/186/186 187/187/187
f 585/585/585 171/171/171 172/172/172
f 175/175/175 586/586/586 585/585/585
f 586/586/586 167/167/167 168/168/168
f 175/175/175 167/167/167 586/586/586
f 587/587/587 586/586/586 168/168/168
f 585/585/585 172/172/172 175/175/175
f 580/580/580 171/171/171 585/585/585
f 580/580/580 202/202/202 171/171/171
f 187/187/187 202/202/202 580/580/580
f 568/568/568 580/580/580 585/585/585
f 586/586/586 568/568/568 585/585/585
f 568/568/568 586/586/586 587/587/587
f 570/570/570 568/568/568 587/587/587
f 588/588/588 176/176/176 182/182/182
f 590/590/590 589/589/589 579/579/579
f 591/591/591 590/590/590 579/579/579
f 579/579/579 589/589/589 578/578/578
f 191/191/191 192/192/192 574/574/574
f 578/578/578 191/191/191 574/574/574
f 192/192/192 194/194/194 573/573/573
f 574/574/574 192/192/192 573/573/573
f 194/194/194 195/195/195 584/584/584
f 573/573/573 194/194/194 584/584/584
f 584/584/584 195/195/195 180/180/180
f 565/565/565 164/164/164 165/165/165
f 587/587/587 183/183/183 184/184/184
f 587/587/587 184/184/184 176/176/176
f 591/591/591 579/579/579 569/569/569
f 570/570/570 591/591/591 569/569/569
f 587/587/587 168/168/168 183/183/183
f 592/592/592 181/181/181 153/153/153
f 593/593/593 592/592/592 153/153/153
f 590/590/590 147/147/147 150/150/150
f 589/589/589 200/200/200 191/191/191
f 589/589/589 191/191/191 578/578/578
f 590/590/590 150/150/150 589/589/589
f 150/150/150 200/200/200 589/589/589
f 588/588/588 591/591/591 587/587/587
f 593/593/593 153/153/153 154/154/154
f 584/584/584 180/180/180 565/565/565
f 180/180/180 164/164/164 565/565/565
f 146/146/146 147/147/147 593/593/593
f 146/146/146 593/593/593 154/154/154
f 147/147/147 590/590/590 593/593/593
f 593/593/593 590/590/590 592/592/592
f 590/590/590 591/591/591 588/588/588
f 592/592/592 590/590/590 588/588/588
f 592/592/592 588/588/588 182/182/182
f 181/181/181 592/592/592 182/182/182
f 588/588/588 587/587/587 176/176/176
f 591/591/591 570/570/570 587/587/587
f 580/580/580 576/576/576 187/187/187
f 595/595/595 204/204/204 594/594/594
f 207/207/207 594/594/594 204/204/204
f 208/208/208 594/594/594 207/207/207
f 596/596/596 265/265/265 213/213/213
f 597/597/597 270/270/270 215/215/215
f 600/600/600 599/599/599 598/598/598
f 601/601/601 248/248/248 249/249/249
f 602/602/602 601/601/601 249/249/249
f 206/206/206 204/204/204 595/595/595
f 604/604/604 603/603/603 602/602/602
f 605/605/605 603/603/603 604/604/604
f 233/233/233 206/206/206 606/606/606
f 603/603/603 605/605/605 606/606/606
f 602/602/602 249/249/249 607/607/607
f 602/602/602 609/609/609 608/608/608
f 604/604/604 602/602/602 608/608/608
f 608/608/608 232/232/232 231/231/231
f 604/604/604 608/608/608 231/231/231
f 210/210/210 594/594/594 208/208/208
f 235/235/235 247/247/247 594/594/594
f 235/235/235 594/594/594 210/210/210
f 601/601/601 594/594/594 245/245/245
f 244/244/244 245/245/245 594/594/594
f 244/244/244 594/594/594 247/247/247
f 601/601/601 603/603/603 594/594/594
f 606/606/606 595/595/595 594/594/594
f 606/606/606 594/594/594 603/603/603
f 604/604/604 231/231/231 229/229/229
f 605/605/605 604/604/604 229/229/229
f 229/229/229 233/233/233 606/606/606
f 605/605/605 229/229/229 606/606/606
f 603/603/603 601/601/601 602/602/602
f 611/611/611 610/610/610 223/223/223
f 614/614/614 613/613/613 612/612/612
f 615/615/615 614/614/614 612/612/612
f 611/611/611 227/227/227 232/232/232
f 608/608/608 611/611/611 232/232/232
f 616/616/616 277/277/277 278/278/278
f 617/617/617 616/616/616 278/278/278
f 611/611/611 224/224/224 227/227/227
f 293/293/293 239/239/239 618/618/618
f 619/619/619 293/293/293 618/618/618
f 610/610/610 620/620/620 297/297/297
f 620/620/620 622/622/622 621/621/621
f 620/620/620 610/610/610 622/622/622
f 621/621/621 624/624/624 623/623/623
f 625/625/625 220/220/220 298/298/298
f 620/620/620 623/623/623 626/626/626
f 620/620/620 621/621/621 623/623/623
f 627/627/627 620/620/620 626/626/626
f 620/620/620 628/628/628 625/625/625
f 627/627/627 628/628/628 620/620/620
f 620/620/620 625/625/625 298/298/298
f 620/620/620 298/298/298 297/297/297
f 240/240/240 243/243/243 629/629/629
f 630/630/630 240/240/240 629/629/629
f 618/618/618 239/239/239 240/240/240
f 630/630/630 618/618/618 240/240/240
f 631/631/631 628/628/628 629/629/629
f 629/629/629 628/628/628 627/627/627
f 630/630/630 629/629/629 627/627/627
f 627/627/627 626/626/626 618/618/618
f 630/630/630 627/627/627 618/618/618
f 618/618/618 626/626/626 623/623/623
f 619/619/619 618/618/618 623/623/623
f 617/617/617 619/619/619 624/624/624
f 631/631/631 625/625/625 628/628/628
f 219/219/219 631/631/631 629/629/629
f 243/243/243 219/219/219 629/629/629
f 631/631/631 219/219/219 220/220/220
f 624/624/624 619/619/619 623/623/623
f 278/278/278 299/299/299 619/619/619
f 617/617/617 278/278/278 619/619/619
f 299/299/299 293/293/293 619/619/619
f 617/617/617 624/624/624 621/621/621
f 616/616/616 617/617/617 621/621/621
f 616/616/616 621/621/621 622/622/622
f 616/616/616 622/622/622 610/610/610
f 611/611/611 616/616/616 610/610/610
f 611/611/611 608/608/608 609/609/609
f 609/609/609 632/632/632 599/599/599
f 607/607/607 250/250/250 252/252/252
f 632/632/632 607/607/607 252/252/252
f 253/253/253 254/254/254 633/633/633
f 252/252/252 253/253/253 633/633/633
f 632/632/632 252/252/252 633/633/633
f 632/632/632 633/633/633 598/598/598
f 634/634/634 261/261/261 265/265/265
f 634/634/634 260/260/260 261/261/261
f 264/264/264 260/260/260 634/634/634
f 596/596/596 213/213/213 214/214/214
f 635/635/635 596/596/596 214/214/214
f 635/635/635 214/214/214 266/266/266
f 636/636/636 635/635/635 266/266/266
f 614/614/614 638/638/638 637/637/637
f 613/613/613 614/614/614 637/637/637
f 640/640/640 256/256/256 639/639/639
f 256/256/256 257/257/257 639/639/639
f 637/637/637 636/636/636 266/266/266
f 613/613/613 637/637/637 266/266/266
f 596/596/596 634/634/634 265/265/265
f 635/635/635 634/634/634 596/596/596
f 636/636/636 634/634/634 635/635/635
f 637/637/637 634/634/634 636/636/636
f 638/638/638 634/634/634 637/637/637
f 638/638/638 639/639/639 634/634/634
f 634/634/634 639/639/639 257/257/257
f 264/264/264 634/634/634 263/263/263
f 634/634/634 257/257/257 263/263/263
f 613/613/613 266/266/266 268/268/268
f 238/238/238 256/256/256 640/640/640
f 641/641/641 238/238/238 640/640/640
f 640/640/640 614/614/614 615/615/615
f 641/641/641 640/640/640 615/615/615
f 613/613/613 268/268/268 269/269/269
f 612/612/612 613/613/613 269/269/269
f 612/612/612 269/269/269 292/292/292
f 612/612/612 642/642/642 598/598/598
f 615/615/615 612/612/612 598/598/598
f 641/641/641 615/615/615 598/598/598
f 633/633/633 641/641/641 598/598/598
f 641/641/641 633/633/633 254/254/254
f 612/612/612 292/292/292 642/642/642
f 291/291/291 289/289/289 642/642/642
f 292/292/292 291/291/291 642/642/642
f 641/641/641 254/254/254 237/237/237
f 616/616/616 599/599/599 600/600/600
f 642/642/642 289/289/289 290/290/290
f 643/643/643 642/642/642 290/290/290
f 616/616/616 600/600/600 644/644/644
f 645/645/645 616/616/616 644/644/644
f 645/645/645 295/295/295 277/277/277
f 616/616/616 645/645/645 277/277/277
f 600/600/600 642/642/642 643/643/643
f 644/644/644 600/600/600 643/643/643
f 616/616/616 611/611/611 599/599/599
f 609/609/609 607/607/607 632/632/632
f 611/611/611 609/609/609 599/599/599
f 643/643/643 290/290/290 285/285/285
f 643/643/643 647/647/647 646/646/646
f 644/644/644 643/643/643 646/646/646
f 644/644/644 646/646/646 648/648/648
f 645/645/645 644/644/644 648/648/648
f 648/648/648 280/280/280 281/281/281
f 648/648/648 281/281/281 295/295/295
f 645/645/645 648/648/648 295/295/295
f 597/597/597 215/215/215 216/216/216
f 649/649/649 597/597/597 216/216/216
f 650/650/650 216/216/216 283/283/283
f 649/649/649 651/651/651 597/597/597
f 651/651/651 276/276/276 272/272/272
f 288/288/288 651/651/651 286/286/286
f 288/288/288 276/276/276 651/651/651
f 650/650/650 283/283/283 300/300/300
f 652/652/652 650/650/650 300/300/300
f 652/652/652 300/300/300 280/280/280
f 653/653/653 652/652/652 280/280/280
f 648/648/648 653/653/653 280/280/280
f 650/650/650 649/649/649 216/216/216
f 651/651/651 652/652/652 653/653/653
f 651/651/651 650/650/650 652/652/652
f 649/649/649 650/650/650 651/651/651
f 647/647/647 285/285/285 286/286/286
f 651/651/651 272/272/272 273/273/273
f 648/648/648 651/651/651 653/653/653
f 646/646/646 651/651/651 648/648/648
f 646/646/646 647/647/647 651/651/651
f 651/651/651 270/270/270 597/597/597
f 651/651/651 273/273/273 270/270/270
f 643/643/643 285/285/285 647/647/647
f 614/614/614 640/640/640 638/638/638
f 640/640/640 639/639/639 638/638/638
f 602/602/602 607/607/607 609/609/609
f 249/249/249 250/250/250 607/607/607
f 206/206/206 595/595/595 606/606/606
f 611/611/611 223/223/223 224/224/224
f 641/641/641 237/237/237 238/238/238
f 642/642/642 600/600/600 598/598/598
f 632/632/632 598/598/598 599/599/599
f 296/296/296 223/223/223 610/610/610
f 610/610/610 297/297/297 296/296/296
f 647/647/647 286/286/286 651/651/651
f 601/601/601 245/245/245 248/248/248
f 631/631/631 220/220/220 625/625/625
f 655/655/655 654/654/654 324/324/324
f 305/305/305 656/656/656 309/309/309
f 654/654/654 303/303/303 324/324/324
f 656/656/656 657/657/657 308/308/308
f 309/309/309 656/656/656 308/308/308
f 307/307/307 659/659/659 658/658/658
f 660/660/660 658/658/658 659/659/659
f 661/661/661 320/320/320 321/321/321
f 321/321/321 662/662/662 661/661/661
f 663/663/663 326/326/326 312/312/312
f 303/303/303 654/654/654 664/664/664
f 664/664/664 654/654/654 655/655/655
f 665/665/665 664/664/664 655/655/655
f 307/307/307 303/303/303 659/659/659
f 655/655/655 323/323/323 320/320/320
f 655/655/655 661/661/661 662/662/662
f 665/665/665 655/655/655 662/662/662
f 660/660/660 666/666/666 663/663/663
f 657/657/657 312/312/312 308/308/308
f 663/663/663 314/314/314 326/326/326
f 655/655/655 320/320/320 661/661/661
f 660/660/660 663/663/663 312/312/312
f 662/662/662 317/317/317 314/314/314
f 665/665/665 662/662/662 663/663/663
f 666/666/666 665/665/665 663/663/663
f 665/665/665 666/666/666 664/664/664
f 303/303/303 664/664/664 659/659/659
f 321/321/321 317/317/317 662/662/662
f 663/663/663 662/662/662 314/314/314
f 660/660/660 659/659/659 666/666/666
f 306/306/306 307/307/307 658/658/658
f 658/658/658 660/660/660 657/657/657
f 656/656/656 658/658/658 657/657/657
f 657/657/657 660/660/660 312/312/312
f 666/666/666 659/659/659 664/664/664
f 655/655/655 324/324/324 323/323/323
f 656/656/656 305/305/305 306/306/306
f 656/656/656 306/306/306 658/658/658
f 667/667/667 332/332/332 333/333/333
f 342/342/342 669/669/669 668/668/668
f 671/671/671 668/668/668 670/670/670
f 672/672/672 671/671/671 670/670/670
f 673/673/673 352/352/352 353/353/353
f 674/674/674 672/672/672 670/670/670
f 667/667/667 334/334/334 332/332/332
f 674/674/674 353/353/353 334/334/334
f 329/329/329 330/330/330 675/675/675
f 676/676/676 329/329/329 675/675/675
f 675/675/675 330/330/330 338/338/338
f 677/677/677 675/675/675 338/338/338
f 678/678/678 674/674/674 334/334/334
f 678/678/678 679/679/679 672/672/672
f 674/674/674 678/678/678 672/672/672
f 672/672/672 679/679/679 680/680/680
f 671/671/671 672/672/672 680/680/680
f 681/681/681 342/342/342 668/668/668
f 682/682/682 681/681/681 671/671/671
f 680/680/680 682/682/682 671/671/671
f 677/677/677 682/682/682 680/680/680
f 675/675/675 677/677/677 680/680/680
f 675/675/675 680/680/680 679/679/679
f 676/676/676 675/675/675 679/679/679
f 678/678/678 667/667/667 676/676/676
f 679/679/679 678/678/678 676/676/676
f 667/667/667 678/678/678 334/334/334
f 669/669/669 345/345/345 348/348/348
f 669/669/669 348/348/348 350/350/350
f 329/329/329 676/676/676 333/333/333
f 676/676/676 667/667/667 333/333/333
f 677/677/677 338/338/338 339/339/339
f 677/677/677 339/339/339 682/682/682
f 682/682/682 351/351/351 341/341/341
f 681/681/681 341/341/341 342/342/342
f 671/671/671 681/681/681 668/668/668
f 682/682/682 341/341/341 681/681/681
f 339/339/339 351/351/351 682/682/682
f 673/673/673 353/353/353 674/674/674
f 673/673/673 350/350/350 352/352/352
f 673/673/673 674/674/674 670/670/670
f 673/673/673 670/670/670 668/668/668
f 669/669/669 673/673/673 668/668/668
f 342/342/342 345/345/345 669/669/669
f 669/669/669 350/350/350 673/673/673
f 683/683/683 355/355/355 380/380/380
f 684/684/684 683/683/683 380/380/380
f 687/687/687 686/686/686 685/685/685
f 688/688/688 687/687/687 685/685/685
f 690/690/690 360/360/360 689/689/689
f 691/691/691 357/357/357 355/355/355
f 683/683/683 691/691/691 355/355/355
f 686/686/686 683/683/683 684/684/684
f 685/685/685 686/686/686 684/684/684
f 683/683/683 686/686/686 692/692/692
f 691/691/691 683/683/683 692/692/692
f 687/687/687 365/365/365 379/379/379
f 687/687/687 688/688/688 365/365/365
f 693/693/693 368/368/368 369/369/369
f 692/692/692 686/686/686 687/687/687
f 693/693/693 692/692/692 687/687/687
f 360/360/360 690/690/690 359/359/359
f 694/694/694 689/689/689 360/360/360
f 694/694/694 360/360/360 381/381/381
f 693/693/693 369/369/369 359/359/359
f 690/690/690 693/693/693 359/359/359
f 690/690/690 689/689/689 692/692/692
f 693/693/693 690/690/690 692/692/692
f 691/691/691 692/692/692 689/689/689
f 694/694/694 691/691/691 689/689/689
f 694/694/694 381/381/381 357/357/357
f 691/691/691 694/694/694 357/357/357
f 372/372/372 684/684/684 380/380/380
f 684/684/684 373/373/373 376/376/376
f 688/688/688 685/685/685 377/377/377
f 688/688/688 364/364/364 365/365/365
f 372/372/372 373/373/373 684/684/684
f 685/685/685 684/684/684 376/376/376
f 377/377/377 685/685/685 376/376/376
f 688/688/688 377/377/377 364/364/364
f 687/687/687 379/379/379 368/368/368
f 693/693/693 687/687/687 368/368/368
f 696/696/696 695/695/695 402/402/402
f 699/699/699 698/698/698 697/697/697
f 700/700/700 699/699/699 697/697/697
f 701/701/701 385/385/385 695/695/695
f 696/696/696 403/403/403 397/397/397
f 699/699/699 700/700/700 397/397/397
f 702/702/702 699/699/699 397/397/397
f 704/704/704 703/703/703 698/698/698
f 703/703/703 405/405/405 390/390/390
f 705/705/705 697/697/697 698/698/698
f 706/706/706 705/705/705 698/698/698
f 700/700/700 696/696/696 397/397/397
f 700/700/700 697/697/697 695/695/695
f 696/696/696 700/700/700 695/695/695
f 695/695/695 697/697/697 705/705/705
f 701/701/701 695/695/695 705/705/705
f 706/706/706 390/390/390 391/391/391
f 388/388/388 706/706/706 391/391/391
f 706/706/706 388/388/388 705/705/705
f 705/705/705 389/389/389 384/384/384
f 701/701/701 705/705/705 384/384/384
f 701/701/701 384/384/384 385/385/385
f 385/385/385 402/402/402 695/695/695
f 388/388/388 389/389/389 705/705/705
f 704/704/704 702/702/702 406/406/406
f 702/702/702 397/397/397 406/406/406
f 703/703/703 706/706/706 698/698/698
f 703/703/703 390/390/390 706/706/706
f 704/704/704 394/394/394 405/405/405
f 702/702/702 704/704/704 699/699/699
f 704/704/704 698/698/698 699/699/699
f 704/704/704 406/406/406 394/394/394
f 704/704/704 405/405/405 703/703/703
f 696/696/696 402/402/402 403/403/403
