g cPK_20_001950_00_PUKURINex_SR_L_SB
v -0.19140798 0.049479913 -0.07021662
v -0.19578166 0.025381863 -0.07021662
v 0.0039131995 0.030608004 -0.07021662
v -0.19818057 0.00065976434 -0.07021662
v -0.1990095 -0.02402643 -0.07021662
v 0.005474413 0.027295554 -0.07021662
v -0.1983489 -0.04758103 -0.07021662
v 0.14709702 0.036064263 -0.07021662
v 0.07263159 0.032776665 -0.07021662
v 0.15013151 0.027162164 -0.07021662
v -0.19690357 -0.07103333 -0.07021662
v 0.009581411 0.022423262 -0.07021662
v -0.19422293 -0.09540763 -0.07021662
v 0.07022585 0.026440365 -0.07021662
v 0.015396619 0.017383063 -0.07021662
v -0.19015549 -0.11962154 -0.07021662
v -0.1833472 -0.14667463 -0.07021662
v 0.022408212 0.013247097 -0.07021662
v -0.17560457 -0.16935933 -0.07021662
v -0.16532 -0.19307564 -0.07021662
v -0.15279599 -0.21493113 -0.07021662
v 0.03048551 0.009909141 -0.07021662
v -0.1411192 -0.23128593 -0.07021662
v -0.13285828 -0.24076894 -0.07021662
v -0.1259888 -0.24811892 -0.07021662
v -0.11680398 -0.2563952 -0.07021662
v -0.10594695 -0.26469514 -0.07021662
v -0.09307609 -0.27313367 -0.07021662
v -0.07696619 -0.28044823 -0.07021662
v -0.0638114 -0.28390002 -0.07021662
v -0.048977494 -0.28533107 -0.07021662
v -0.033089995 -0.28481147 -0.07021662
v -0.017032076 -0.28311306 -0.07021662
v -0.0030998706 -0.28089145 -0.07021662
v 0.009149111 -0.27831525 -0.07021662
v 0.023844017 -0.27428275 -0.07021662
v 0.04080361 -0.26884982 -0.07021662
v 0.056222714 -0.26283243 -0.07021662
v 0.07048332 -0.2565424 -0.07021662
v 0.037865017 0.008495904 -0.07021662
v 0.082759716 -0.25059023 -0.07021662
v 0.093918525 -0.24425665 -0.07021662
v 0.10175792 -0.23941074 -0.07021662
v 0.107607916 -0.23503533 -0.07021662
v 0.1920783 -0.11946254 -0.07021662
v 0.044922706 0.008392334 -0.07021662
v 0.051580608 0.009892225 -0.07021662
v 0.1936621 -0.11122234 -0.07021662
v 0.19430333 -0.10503023 -0.07021662
v 0.19482957 -0.09332104 -0.07021662
v 0.19373016 -0.081198834 -0.07021662
v 0.19201824 -0.07100083 -0.07021662
v 0.18959768 -0.061516833 -0.07021662
v 0.18492213 -0.048585035 -0.07021662
v 0.17892398 -0.033650827 -0.07021662
v 0.05865064 0.013397539 -0.07021662
v 0.17147155 -0.016779829 -0.07021662
v 0.16467392 -0.002453327 -0.07021662
v 0.06316775 0.016848767 -0.07021662
v 0.15667301 0.012572062 -0.07021662
v 0.067244984 0.021523667 -0.07021662
v 0.07633625 0.01667353 -0.060216606
v 0.07076444 0.021683538 -0.060216606
v 0.07945774 0.010121238 -0.060216606
v 0.07964444 0.0040401337 -0.060216606
v 0.06394263 0.025251329 -0.060216606
v 0.07889083 -0.00138725 -0.060216606
v 0.07566964 -0.0074369544 -0.060216606
v 0.07099555 -0.012863052 -0.060216606
v 0.053955246 0.027662648 -0.060216606
v 0.065713644 -0.017059553 -0.060216606
v 0.042214446 0.027773036 -0.060216606
v 0.058466543 -0.021198167 -0.060216606
v 0.05045824 -0.024581967 -0.060216606
v 0.032976434 0.02635175 -0.060216606
v 0.041404735 -0.026378071 -0.060216606
v 0.027546335 0.02456273 -0.060216606
v 0.033591237 -0.026663363 -0.060216606
v 0.019719541 0.02121905 -0.060216606
v 0.02546264 -0.026289452 -0.060216606
v 0.014150036 0.017746652 -0.060216606
v 0.009188545 0.013503635 -0.060216606
v 0.017019046 -0.024493515 -0.060216606
v 0.005014539 0.008457029 -0.060216606
v 0.010355937 -0.02083236 -0.060216606
v 0.0060511357 -0.016799152 -0.060216606
v 0.0020519379 0.0032046442 -0.060216606
v 0.00085693627 -0.0016694671 -0.060216606
v 0.0026550419 -0.01227175 -0.060216606
v 0.0010132433 -0.0075097675 -0.060216606
v 0.09428009 0.04048216 -0.05621661
v 0.08748257 0.058322757 -0.05621661
v 0.09165299 0.01496957 -0.05621661
v 0.07167228 0.07529246 -0.05621661
v 0.04969487 0.08473317 -0.05621661
v 0.02441127 0.08405166 -0.05621661
v 0.004418371 0.074214764 -0.05621661
v 0.08057618 -0.0064427326 -0.05621661
v 0.063033275 -0.019590136 -0.05621661
v -0.0074256207 0.060659867 -0.05621661
v 0.042026278 -0.025685638 -0.05621661
v 0.019205067 -0.022005647 -0.05621661
v 0.0024511786 -0.010701626 -0.05621661
v -0.010326627 0.0046387734 -0.05621661
v -0.016051725 0.023485167 -0.05621661
v -0.01497412 0.04478566 -0.05621661
v -0.023212636 -0.26112643 -0.08251505
v -0.06623703 -0.31746662 -0.08251505
v -0.016257131 -0.27128303 -0.08251505
v -0.053152647 -0.32197234 -0.08251505
v -0.043239035 -0.32249305 -0.08251505
v -0.033885445 -0.32123592 -0.08251505
v -0.012065637 -0.2790409 -0.08251505
v -0.009901631 -0.2881678 -0.08251505
v -0.026851833 -0.31879944 -0.08251505
v -0.020611538 -0.31477913 -0.08251505
v -0.00961293 -0.29740003 -0.08251505
v -0.012525642 -0.3053691 -0.08251505
v -0.015430368 -0.30985487 -0.08251505
v -0.144581 0.22237782 -0.07835468
v -0.22519536 0.14478584 -0.07720279
v -0.13703538 0.21019268 -0.07683074
v -0.21469326 0.13668852 -0.075825326
v -0.12665986 0.18698739 -0.07419404
v -0.20538966 0.13042407 -0.0746813
v -0.121811084 0.16465306 -0.0719978
v -0.19501415 0.12343788 -0.073405445
v -0.18489254 0.11781664 -0.072261035
v -0.120437205 0.14928877 -0.0712166
v -0.17638545 0.113092065 -0.071299136
v -0.16694966 0.10843547 -0.0712166
v -0.04939776 0.17525549 -0.07807407
v -0.04660325 0.16289191 -0.07652761
v 0.039227165 0.11872961 -0.071003705
v -0.041260432 0.15023692 -0.0749447
v 0.027155792 0.115257815 -0.07056945
v -0.03661075 0.14179301 -0.07388852
v -0.029336452 0.13187161 -0.072647534
v 0.018412555 0.11354583 -0.07035531
v 0.008236361 0.11350413 -0.070350096
v -0.0018333438 0.11531422 -0.070576504
v -0.02277336 0.12547071 -0.071846895
v -0.011978149 0.11870833 -0.071001045
v 0.09908156 0.11840736 -0.06821662
v 0.05534221 0.15928075 -0.06821662
v 0.08511697 0.11810726 -0.06821662
v 0.07095975 0.12285296 -0.06821662
v 0.0539912 0.14991754 -0.06821662
v 0.055553176 0.13861164 -0.06821662
v 0.060315575 0.12935536 -0.06821662
v -0.29704812 0.23578718 -0.089614265
v -0.24069622 0.30959135 -0.09206106
v -0.30461428 0.25153136 -0.09143819
v -0.31446752 0.27534637 -0.09409133
v -0.25327188 0.31827837 -0.09362584
v -0.28022978 0.33537605 -0.09685232
v -0.32198337 0.30028486 -0.096683346
v -0.32728136 0.32345116 -0.09897927
v -0.30063766 0.3467458 -0.09916278
v -0.32838178 0.331444 -0.09972306
v -0.30681738 0.34961152 -0.099814
v -0.32849646 0.3387238 -0.10034148
v -0.31275606 0.3518242 -0.10039438
v -0.32782054 0.34431496 -0.10076567
v -0.31715485 0.3525655 -0.10074898
v -0.32633466 0.34854898 -0.10102214
v -0.32406613 0.35117012 -0.1010913
v -0.3213924 0.3525415 -0.10102862
v -0.2563474 0.17378557 -0.08170668
v -0.23741646 0.15521696 -0.07889034
v -0.16778831 0.25103268 -0.082301535
v -0.15528296 0.23705287 -0.08029734
v 0.072959736 0.036070317 -0.07021662
v 0.07255514 0.037383217 -0.07021662
v 0.14394513 0.049772263 -0.07021662
v 0.11742462 0.114238195 -0.07021662
v 0.07115791 0.037510194 -0.07021662
v 0.12626202 0.100150466 -0.07021662
v 0.13245383 0.087735765 -0.07021662
v 0.13710603 0.07569217 -0.07021662
v 0.14079617 0.062731564 -0.07021662
v -0.18265866 0.26534662 -0.08449098
v -0.27383834 0.19670396 -0.08479225
v -0.20693286 0.28538826 -0.08778607
v -0.2881255 0.21996085 -0.087693274
v -0.22685908 0.29987118 -0.09032575
v -0.15547666 0.10827949 -0.0712166
v -0.14406244 0.112207055 -0.0712166
v -0.13209176 0.118898176 -0.0712166
v -0.12022821 0.14195774 -0.0712166
v -0.121102765 0.13277297 -0.0712166
v 0.11947135 0.26215544 -0.05993701
v 0.102426566 0.24703704 -0.061871875
v 0.16939396 0.18216965 -0.061778605
v 0.08909825 0.23156105 -0.06360566
v 0.15016066 0.15861945 -0.06435408
v 0.07556037 0.21049777 -0.06568958
v 0.13193716 0.13908085 -0.06662663
v 0.069285385 0.19763431 -0.06684281
v 0.063916646 0.18530335 -0.06790959
v 0.11438028 0.12570116 -0.06848713
v 0.059487548 0.17371811 -0.068875015
v 0.2465736 -0.17539595 -0.07021662
v 0.23236452 -0.18562832 -0.07021662
v 0.21729492 -0.19754551 -0.07021662
v 0.20460263 -0.20784692 -0.07021662
v 0.19369142 -0.21642473 -0.07021662
v 0.1818335 -0.22647083 -0.07021662
v 0.17115512 -0.23522227 -0.07021662
v 0.158827 -0.24505842 -0.07021662
v 0.14954773 -0.25107938 -0.07021662
v 0.14142552 -0.2547764 -0.07021662
v 0.13311963 -0.25668424 -0.07021662
v 0.12448102 -0.2568689 -0.07021662
v 0.119180016 -0.2549195 -0.07021662
v 0.11546757 -0.25232828 -0.07021662
v 0.112533785 -0.24950099 -0.07021662
v 0.10959118 -0.24548014 -0.07021662
v 0.107761204 -0.24085844 -0.07021662
v -0.18688338 0.0683512 -0.07021662
v -0.1838786 0.07819896 -0.07021662
v 0.004180992 0.032516606 -0.07021662
v -0.1801273 0.089392714 -0.07021662
v -0.17533667 0.102251865 -0.07021662
v -0.16715272 0.11926842 -0.07021662
v -0.15634778 0.13494878 -0.07021662
v -0.14062527 0.15280822 -0.07021662
v -0.12436619 0.16714987 -0.07021662
v -0.10836108 0.17787726 -0.07021662
v -0.087744 0.18730736 -0.07021662
v -0.06479158 0.19468339 -0.07021662
v -0.049392916 0.1972647 -0.07021662
v -0.037856888 0.1980531 -0.07021662
v -0.023929834 0.19829698 -0.07021662
v -0.0053255796 0.19667156 -0.07021662
v 0.0078758 0.19422488 -0.07021662
v 0.021572316 0.19064876 -0.07021662
v 0.034038257 0.18662845 -0.07021662
v 0.048322413 0.18010668 -0.07021662
v 0.006186115 0.032624938 -0.07021662
v 0.059467316 0.17355837 -0.07021662
v 0.010451019 0.03251294 -0.07021662
v 0.02516811 0.03276066 -0.07021662
v 0.07524171 0.16127627 -0.07021662
v 0.03884321 0.03360523 -0.07021662
v 0.091900714 0.14523229 -0.07021662
v 0.050650716 0.034580447 -0.07021662
v 0.10754632 0.12689483 -0.07021662
v 0.060387816 0.036051333 -0.07021662
v 0.068126716 0.03732192 -0.07021662
v 0.08435394 0.15847401 -0.07597501
v 0.09237047 0.17559691 -0.07811677
v -0.009157944 0.2300765 -0.08493119
v 0.09528447 0.18938592 -0.079841524
v 0.09624287 0.20857263 -0.08224144
v 0.09321944 0.22584382 -0.08440175
v 0.08842966 0.24036132 -0.08621763
v 0.08148357 0.25223276 -0.08770253
v 0.072139844 0.26254535 -0.08899244
v 0.059165776 0.27143198 -0.090104006
v 0.045920383 0.275913 -0.0906645
v 0.03147737 0.27763566 -0.09087997
v 0.019370854 0.27652815 -0.09074144
v 0.010028839 0.27326065 -0.09033274
v 0.002216673 0.26806363 -0.08968268
v -0.0031505942 0.2626769 -0.0890089
v -0.006710267 0.2575914 -0.08837279
v -0.009963728 0.2511522 -0.08756737
v -0.010554648 0.23279162 -0.08527079
v -0.0113335615 0.2369843 -0.085795216
v -0.011802721 0.24356699 -0.086618595
v 0.075551994 0.1458811 -0.074399866
v 0.06727997 0.13739763 -0.07333874
v 0.05844685 0.12943843 -0.072343186
v 0.04838067 0.123305224 -0.07157603
v -0.011951542 0.22991423 -0.084910884
v -0.01982522 0.22852932 -0.08473765
v -0.029797126 0.2239943 -0.08417041
v -0.03798256 0.21812291 -0.083436005
v -0.045782614 0.20712052 -0.0820598
v -0.049114227 0.19547181 -0.08060276
v -0.049896147 0.18647671 -0.07947764
v -0.08526184 -0.30971143 -0.0816425
v -0.033388842 -0.24725233 -0.082663916
v -0.05186094 -0.22423723 -0.084759526
v -0.10432953 -0.30011824 -0.08303597
v -0.12412914 -0.28995594 -0.08449389
v -0.06513244 -0.20730953 -0.08628648
v -0.15140222 -0.2755463 -0.08652443
v -0.08098673 -0.18893863 -0.08800997
v -0.17031755 -0.26345414 -0.08804675
v -0.09558033 -0.1732325 -0.089531004
v -0.18689804 -0.24926122 -0.08957644
v -0.11361674 -0.15669782 -0.09125453
v -0.20069824 -0.23575401 -0.09094167
v -0.12890643 -0.14575453 -0.09254859
v -0.21105933 -0.22091313 -0.09222209
v -0.14653644 -0.13667373 -0.09384848
v -0.21756545 -0.20874882 -0.093180716
v -0.15808205 -0.13337612 -0.09455576
v -0.22247644 -0.19468372 -0.09416968
v -0.17278175 -0.13176513 -0.095315695
v -0.22408365 -0.18264063 -0.09489764
v -0.22379284 -0.17231002 -0.095445715
v -0.18473995 -0.13242832 -0.09582664
v -0.19794254 -0.13570972 -0.09625222
v -0.22167464 -0.16217282 -0.095899716
v -0.20908332 -0.14314981 -0.09635752
v -0.21695943 -0.15182443 -0.096246384
v -0.086477615 -0.08312654 -0.072
v -0.08898245 -0.06862004 -0.072
v -0.13784157 -0.07102167 -0.072
v -0.09333973 -0.05709354 -0.072
v -0.101139836 -0.04635224 -0.072
v -0.23449218 -0.046363275 -0.077265345
v -0.23183279 -0.03913709 -0.07713425
v -0.22624575 -0.033109736 -0.07685887
v -0.22014923 -0.029448343 -0.07655837
v -0.20722905 -0.026315128 -0.07592151
v -0.19479595 -0.025721133 -0.07530867
v -0.117482446 -0.120675735 -0.072
v -0.08644944 -0.09534144 -0.072
v -0.106452346 -0.1201598 -0.072
v -0.09610877 -0.115181826 -0.072
v -0.08937874 -0.107093744 -0.072
v -0.2342829 -0.054552842 -0.077255026
v -0.23241162 -0.06256534 -0.077162795
v -0.22684248 -0.07076223 -0.07688828
v -0.21915483 -0.07865391 -0.07650935
v -0.20511393 -0.089116536 -0.075817265
v -0.14281714 -0.12073479 -0.072
v -0.12972963 -0.12281523 -0.072
v -0.12148409 -0.12265666 -0.072
v -0.11223104 -0.036226537 -0.072
v -0.12339673 -0.03117079 -0.072
v -0.13362575 -0.028899623 -0.072
v -0.17181115 -0.026012039 -0.07417573
v -0.16130567 -0.026766593 -0.07365791
v -0.15196477 -0.027437499 -0.073197484
v -0.14257513 -0.028186113 -0.072734654
v -0.19035554 -0.098571226 -0.075089805
v -0.17440067 -0.10703323 -0.074303366
v -0.15755387 -0.114903234 -0.07347298
v 0.11307051 -0.0023240566 -0.06421661
v 0.11091552 -0.015687298 -0.06421661
v 0.17325893 -0.051196337 -0.06421661
v 0.11063802 -0.025591422 -0.06421661
v 0.11096638 -0.0340668 -0.06421661
v 0.111769676 -0.041211035 -0.06421661
v 0.11378729 -0.048965167 -0.06421661
v 0.11713972 -0.057220437 -0.06421661
v 0.16873915 -0.060438227 -0.06421661
v 0.12186847 -0.06329032 -0.06421661
v 0.12781222 -0.068159975 -0.06421661
v 0.13658856 -0.071908556 -0.06421661
v 0.14641933 -0.07321557 -0.06421661
v 0.16289501 -0.06750653 -0.06421661
v 0.15434451 -0.07273681 -0.06421661
v 0.2073742 0.3074773 -0.0519313
v 0.23755145 0.26927313 -0.052431464
v 0.21894918 0.30908233 -0.051140726
v 0.24552904 0.27870175 -0.051383723
v 0.228586 0.3100795 -0.050503016
v 0.25056764 0.28481755 -0.050712265
v 0.23504043 0.31062037 -0.05008359
v 0.24119401 0.3108097 -0.049703408
v 0.25514475 0.29074928 -0.050079584
v 0.24926706 0.31057826 -0.049233653
v 0.2581435 0.29468322 -0.0496622
v 0.25645676 0.3081897 -0.048947155
v 0.26029655 0.29922968 -0.04925847
v 0.25973988 0.30557066 -0.048908688
v 0.18848717 -0.018627811 -0.06046268
v 0.19235972 -0.008156205 -0.058891583
v 0.119593315 0.015924145 -0.060383953
v 0.1246553 0.024126649 -0.05902649
v 0.13231161 0.0334903 -0.057359494
v 0.19582064 0.0027901174 -0.057285953
v 0.14059949 0.041352298 -0.05584358
v 0.19867735 0.014213062 -0.055657614
v 0.14812827 0.04687159 -0.05467247
v 0.15693873 0.052835464 -0.053364825
v 0.20078532 0.02747798 -0.053842306
v 0.16696583 0.057911184 -0.05209384
v 0.20149544 0.03647387 -0.052656185
v 0.17565821 0.060259867 -0.05125239
v 0.18353382 0.05941088 -0.050867833
v 0.19144122 0.055302884 -0.050894942
v 0.19729923 0.04926877 -0.05129459
v 0.20058821 0.043829467 -0.05177933
v 0.22908555 0.25857684 -0.05358504
v 0.19620948 0.30435166 -0.05278915
v 0.21576229 0.24235187 -0.055363763
v 0.1871633 0.30130687 -0.053515185
v 0.17702024 0.29719505 -0.054371417
v 0.16275558 0.29093394 -0.055604495
v 0.20064555 0.22216597 -0.057489287
v 0.15000246 0.28407174 -0.056783307
v 0.14117445 0.27842227 -0.057653654
v 0.18585812 0.2035182 -0.059502114
v 0.13084544 0.27097422 -0.058722626
v 0.17944458 -0.03862083 -0.06356539
v 0.116540626 0.008707762 -0.061490666
v 0.18459773 -0.027855683 -0.06187698
v 0.26296422 -0.051970433 -0.07021662
v 0.28017733 -0.078334495 -0.07021662
v 0.27274653 -0.05076343 -0.07021662
v 0.28204364 -0.050944924 -0.07021662
v 0.30190954 -0.060727037 -0.07021662
v 0.29313904 -0.054015424 -0.07021662
v 0.2520307 -0.05581633 -0.07021662
v 0.302317 -0.112244226 -0.07021662
v 0.3068326 -0.10277734 -0.07021662
v 0.31028643 -0.091379926 -0.07021662
v 0.31095654 -0.080328636 -0.07021662
v 0.30826473 -0.070385434 -0.07021662
v 0.29590893 -0.121771626 -0.07021662
v 0.28759742 -0.13323723 -0.07021662
v 0.23994522 -0.062298466 -0.07021662
v 0.19387592 -0.11855717 -0.07021662
v 0.22610562 -0.07365493 -0.07021662
v 0.21683243 -0.08418348 -0.07021662
v 0.27368063 -0.14997232 -0.07021662
v 0.20846522 -0.09568532 -0.07021662
v 0.20048821 -0.107653335 -0.07021662
v 0.26332045 -0.1602041 -0.07021662
vt 0.9458008 0.42285156
vt 0.9511719 0.39526367
vt 0.7241211 0.4013672
vt 0.9536133 0.3671875
vt 0.95458984 0.33911133
vt 0.72216797 0.39746094
vt 0.95410156 0.3125
vt 0.56152344 0.4074707
vt 0.6459961 0.4038086
vt 0.55810547 0.39746094
vt 0.95214844 0.28588867
vt 0.71777344 0.39208984
vt 0.94921875 0.25805664
vt 0.6489258 0.39648438
vt 0.7109375 0.38623047
vt 0.9448242 0.23059082
vt 0.9370117 0.1998291
vt 0.703125 0.3815918
vt 0.92822266 0.17407227
vt 0.9165039 0.14709473
vt 0.90234375 0.12225342
vt 0.69384766 0.37768555
vt 0.8886719 0.10369873
vt 0.87939453 0.09289551
vt 0.87158203 0.08459473
vt 0.8613281 0.07513428
vt 0.8491211 0.06573486
vt 0.83447266 0.056152344
vt 0.81591797 0.047821045
vt 0.80078125 0.043914795
vt 0.7841797 0.042266846
vt 0.7661133 0.042877197
vt 0.7480469 0.044799805
vt 0.7319336 0.047332764
vt 0.7182617 0.05026245
vt 0.7011719 0.054840088
vt 0.6821289 0.06100464
vt 0.6645508 0.067871094
vt 0.6484375 0.07501221
vt 0.6855469 0.3762207
vt 0.63427734 0.08178711
vt 0.62158203 0.08892822
vt 0.61279297 0.09448242
vt 0.6064453 0.09942627
vt 0.5102539 0.23071289
vt 0.6772461 0.37597656
vt 0.6699219 0.37768555
vt 0.5083008 0.2401123
vt 0.5078125 0.24719238
vt 0.5073242 0.26049805
vt 0.5083008 0.27416992
vt 0.5102539 0.28588867
vt 0.5131836 0.29663086
vt 0.5185547 0.3112793
vt 0.5253906 0.32836914
vt 0.6616211 0.38183594
vt 0.5336914 0.3474121
vt 0.5415039 0.36376953
vt 0.6567383 0.3857422
vt 0.55029297 0.38085938
vt 0.65185547 0.39086914
vt 0.28833008 0.43676758
vt 0.29467773 0.4423828
vt 0.28466797 0.42919922
vt 0.28442383 0.42236328
vt 0.30249023 0.4465332
vt 0.2854004 0.41625977
vt 0.2890625 0.40942383
vt 0.2944336 0.40307617
vt 0.3137207 0.44921875
vt 0.30029297 0.3984375
vt 0.32714844 0.44921875
vt 0.30859375 0.39379883
vt 0.31762695 0.38989258
vt 0.33764648 0.4477539
vt 0.32788086 0.3876953
vt 0.34375 0.44580078
vt 0.33691406 0.38745117
vt 0.35253906 0.44189453
vt 0.3461914 0.38793945
vt 0.35888672 0.43798828
vt 0.36450195 0.43310547
vt 0.3557129 0.38989258
vt 0.36938477 0.42749023
vt 0.36328125 0.39404297
vt 0.36816406 0.39868164
vt 0.37280273 0.42138672
vt 0.37402344 0.41577148
vt 0.3720703 0.4038086
vt 0.3737793 0.4091797
vt 0.3930664 0.58447266
vt 0.4008789 0.60498047
vt 0.3959961 0.55566406
vt 0.41870117 0.62402344
vt 0.44384766 0.6347656
vt 0.4724121 0.63427734
vt 0.4951172 0.6230469
vt 0.4086914 0.53125
vt 0.42871094 0.5161133
vt 0.50878906 0.6074219
vt 0.45239258 0.50927734
vt 0.47851562 0.5136719
vt 0.49731445 0.5263672
vt 0.51171875 0.5439453
vt 0.5185547 0.5654297
vt 0.51708984 0.58935547
vt 0.37939453 0.78125
vt 0.42822266 0.71728516
vt 0.37158203 0.77001953
vt 0.41333008 0.71240234
vt 0.4020996 0.7114258
vt 0.39160156 0.7128906
vt 0.36669922 0.76123047
vt 0.3642578 0.7504883
vt 0.38354492 0.7158203
vt 0.37646484 0.72021484
vt 0.36401367 0.7402344
vt 0.3671875 0.73095703
vt 0.37060547 0.7260742
vt 0.6640625 0.7529297
vt 0.7558594 0.6645508
vt 0.6557617 0.73876953
vt 0.7441406 0.65527344
vt 0.64404297 0.71240234
vt 0.73339844 0.6484375
vt 0.6381836 0.6870117
vt 0.7216797 0.6401367
vt 0.70996094 0.63378906
vt 0.63671875 0.6694336
vt 0.7001953 0.62841797
vt 0.6899414 0.6230469
vt 0.34106445 0.12011719
vt 0.33789062 0.10601807
vt 0.24023438 0.055847168
vt 0.3317871 0.091674805
vt 0.25390625 0.0519104
vt 0.32641602 0.082092285
vt 0.31811523 0.07080078
vt 0.26391602 0.049957275
vt 0.27539062 0.049926758
vt 0.28686523 0.051971436
vt 0.31079102 0.0635376
vt 0.29833984 0.055847168
vt 0.23095703 0.74365234
vt 0.28051758 0.79003906
vt 0.24682617 0.74316406
vt 0.26293945 0.74902344
vt 0.28222656 0.77978516
vt 0.28027344 0.76660156
vt 0.27490234 0.75634766
vt 0.83740234 0.7680664
vt 0.7734375 0.8520508
vt 0.8461914 0.78564453
vt 0.8574219 0.8129883
vt 0.78759766 0.8618164
vt 0.8183594 0.88134766
vt 0.86572266 0.8413086
vt 0.8720703 0.8676758
vt 0.8417969 0.89404297
vt 0.8730469 0.87646484
vt 0.8486328 0.89746094
vt 0.87353516 0.8847656
vt 0.85546875 0.89990234
vt 0.8725586 0.8911133
vt 0.86035156 0.9008789
vt 0.87060547 0.8959961
vt 0.86816406 0.8989258
vt 0.8652344 0.9003906
vt 0.7915039 0.6972656
vt 0.77001953 0.67626953
vt 0.6904297 0.78515625
vt 0.67626953 0.76953125
vt 0.6455078 0.4074707
vt 0.6459961 0.40893555
vt 0.5649414 0.4230957
vt 0.59521484 0.4963379
vt 0.64746094 0.4091797
vt 0.58496094 0.4802246
vt 0.578125 0.4663086
vt 0.5727539 0.45263672
vt 0.5683594 0.43774414
vt 0.70751953 0.8017578
vt 0.81103516 0.7236328
vt 0.73535156 0.82421875
vt 0.8276367 0.75
vt 0.7578125 0.8408203
vt 0.6767578 0.6230469
vt 0.6635742 0.6274414
vt 0.64990234 0.6352539
vt 0.63671875 0.6611328
vt 0.6376953 0.6508789
vt 0.20776367 0.90722656
vt 0.22717285 0.8901367
vt 0.15100098 0.81640625
vt 0.24230957 0.8725586
vt 0.17285156 0.7895508
vt 0.25756836 0.84814453
vt 0.19360352 0.76708984
vt 0.26489258 0.8339844
vt 0.2709961 0.8198242
vt 0.21350098 0.7519531
vt 0.2758789 0.8066406
vt 0.4482422 0.16723633
vt 0.46435547 0.15551758
vt 0.48168945 0.14208984
vt 0.49609375 0.1303711
vt 0.5083008 0.12060547
vt 0.52197266 0.109191895
vt 0.5341797 0.099243164
vt 0.54785156 0.088012695
vt 0.55859375 0.08117676
vt 0.5678711 0.07702637
vt 0.57714844 0.0748291
vt 0.58691406 0.074645996
vt 0.5932617 0.07684326
vt 0.59716797 0.07977295
vt 0.60058594 0.08300781
vt 0.6040039 0.08758545
vt 0.60595703 0.09283447
vt 0.94091797 0.4440918
vt 0.9375 0.45532227
vt 0.7236328 0.40356445
vt 0.93310547 0.46801758
vt 0.9277344 0.48266602
vt 0.91845703 0.5019531
vt 0.90625 0.52001953
vt 0.8881836 0.54003906
vt 0.8696289 0.5566406
vt 0.8515625 0.56884766
vt 0.828125 0.57958984
vt 0.8022461 0.5878906
vt 0.78466797 0.5908203
vt 0.7714844 0.5917969
vt 0.7558594 0.5917969
vt 0.734375 0.58984375
vt 0.71972656 0.58740234
vt 0.70410156 0.5830078
vt 0.6899414 0.5786133
vt 0.6738281 0.57128906
vt 0.7216797 0.40356445
vt 0.6611328 0.56396484
vt 0.7167969 0.40356445
vt 0.69970703 0.4038086
vt 0.6430664 0.5498047
vt 0.6845703 0.40478516
vt 0.62402344 0.5317383
vt 0.67089844 0.40576172
vt 0.6064453 0.5107422
vt 0.65966797 0.4074707
vt 0.6508789 0.40893555
vt 0.18896484 0.10101318
vt 0.17980957 0.1204834
vt 0.29516602 0.18237305
vt 0.17651367 0.1361084
vt 0.17541504 0.15795898
vt 0.17883301 0.1776123
vt 0.18432617 0.1940918
vt 0.19226074 0.20751953
vt 0.20288086 0.21923828
vt 0.2175293 0.22937012
vt 0.23266602 0.23449707
vt 0.24902344 0.2364502
vt 0.2626953 0.23522949
vt 0.2734375 0.23144531
vt 0.28222656 0.22558594
vt 0.28833008 0.21948242
vt 0.29248047 0.21362305
vt 0.29614258 0.20629883
vt 0.296875 0.1854248
vt 0.29760742 0.19018555
vt 0.29833984 0.1977539
vt 0.19897461 0.08673096
vt 0.20837402 0.0770874
vt 0.21838379 0.0680542
vt 0.2298584 0.061065674
vt 0.29833984 0.18225098
vt 0.30737305 0.18066406
vt 0.31860352 0.17541504
vt 0.32788086 0.16882324
vt 0.33691406 0.15625
vt 0.34057617 0.1430664
vt 0.34155273 0.1328125
vt 0.44995117 0.7260742
vt 0.39086914 0.7973633
vt 0.41186523 0.8232422
vt 0.47143555 0.7373047
vt 0.49414062 0.74853516
vt 0.42700195 0.84277344
vt 0.52490234 0.7651367
vt 0.44506836 0.86328125
vt 0.5463867 0.7788086
vt 0.46166992 0.88134766
vt 0.5654297 0.7949219
vt 0.48217773 0.89990234
vt 0.5810547 0.8100586
vt 0.49951172 0.91259766
vt 0.59277344 0.82714844
vt 0.51953125 0.92285156
vt 0.60009766 0.8408203
vt 0.53271484 0.9267578
vt 0.60595703 0.8569336
vt 0.5493164 0.92822266
vt 0.6074219 0.87060547
vt 0.6074219 0.8823242
vt 0.5629883 0.9277344
vt 0.578125 0.9238281
vt 0.60498047 0.89404297
vt 0.5908203 0.91552734
vt 0.5996094 0.9057617
vt 0.061187744 0.30786133
vt 0.06402588 0.3244629
vt 0.11956787 0.32177734
vt 0.06896973 0.33740234
vt 0.077819824 0.34960938
vt 0.22937012 0.34960938
vt 0.22631836 0.35791016
vt 0.2199707 0.3647461
vt 0.21313477 0.36889648
vt 0.19836426 0.3725586
vt 0.18432617 0.37304688
vt 0.09643555 0.26513672
vt 0.061157227 0.2939453
vt 0.083862305 0.26586914
vt 0.072143555 0.27148438
vt 0.064453125 0.28076172
vt 0.22912598 0.34033203
vt 0.22705078 0.33129883
vt 0.22070312 0.32202148
vt 0.21191406 0.31298828
vt 0.19604492 0.3010254
vt 0.12524414 0.26513672
vt 0.11035156 0.2626953
vt 0.10095215 0.26293945
vt 0.0904541 0.36108398
vt 0.103149414 0.36694336
vt 0.114746094 0.3696289
vt 0.15820312 0.37280273
vt 0.14624023 0.3720703
vt 0.13562012 0.37109375
vt 0.124938965 0.37036133
vt 0.17919922 0.2902832
vt 0.16113281 0.28076172
vt 0.14196777 0.27172852
vt 0.18981934 0.5708008
vt 0.19226074 0.55566406
vt 0.12133789 0.5151367
vt 0.19250488 0.5444336
vt 0.19213867 0.53466797
vt 0.19128418 0.52685547
vt 0.18896484 0.5180664
vt 0.18518066 0.5083008
vt 0.12646484 0.5048828
vt 0.17980957 0.50146484
vt 0.17297363 0.49609375
vt 0.16308594 0.49194336
vt 0.15185547 0.49047852
vt 0.13317871 0.49682617
vt 0.14282227 0.4909668
vt 0.10784912 0.9584961
vt 0.07354736 0.91503906
vt 0.09472656 0.9604492
vt 0.06451416 0.92578125
vt 0.083740234 0.9614258
vt 0.058776855 0.9326172
vt 0.076416016 0.96240234
vt 0.06945801 0.96240234
vt 0.053588867 0.9394531
vt 0.060272217 0.96191406
vt 0.0501709 0.94384766
vt 0.052093506 0.95947266
vt 0.047729492 0.94921875
vt 0.04837036 0.95654297
vt 0.10406494 0.5522461
vt 0.09967041 0.5644531
vt 0.18237305 0.5917969
vt 0.17663574 0.6010742
vt 0.16784668 0.6118164
vt 0.095703125 0.57666016
vt 0.15844727 0.62060547
vt 0.09246826 0.58984375
vt 0.14990234 0.6269531
vt 0.13989258 0.63378906
vt 0.09008789 0.60498047
vt 0.12854004 0.63916016
vt 0.08929443 0.6152344
vt 0.118652344 0.64208984
vt 0.109680176 0.6411133
vt 0.10070801 0.63623047
vt 0.094055176 0.62939453
vt 0.09033203 0.62353516
vt 0.08319092 0.90283203
vt 0.12054443 0.9550781
vt 0.09832764 0.8847656
vt 0.13085938 0.95166016
vt 0.14233398 0.94677734
vt 0.15856934 0.9399414
vt 0.11553955 0.8618164
vt 0.1730957 0.9321289
vt 0.18310547 0.92578125
vt 0.13232422 0.84033203
vt 0.19482422 0.9169922
vt 0.11431885 0.52978516
vt 0.18579102 0.5834961
vt 0.10845947 0.5419922
vt 0.4296875 0.30737305
vt 0.41015625 0.2775879
vt 0.41845703 0.3088379
vt 0.40795898 0.30859375
vt 0.38549805 0.29760742
vt 0.3955078 0.30517578
vt 0.44213867 0.30297852
vt 0.38500977 0.23901367
vt 0.3798828 0.24975586
vt 0.37597656 0.2626953
vt 0.37524414 0.27514648
vt 0.37817383 0.2866211
vt 0.39233398 0.22814941
vt 0.40161133 0.21508789
vt 0.45581055 0.2956543
vt 0.5083008 0.23181152
vt 0.4716797 0.28271484
vt 0.48217773 0.27075195
vt 0.41748047 0.19604492
vt 0.49169922 0.2578125
vt 0.5004883 0.24414062
vt 0.42919922 0.18444824
vn -0 0 -1
vn -0 0 -1
vn -0 0 -1
vn -0 0 -1
vn -0 0 -1
vn -0 0 -1
vn -0 0 -1
vn -0 0 -1
vn -0 0 -1
vn -0 0 -1
vn -0 0 -1
vn -0 0 -1
vn -0 0 -1
vn -0 0 -1
vn -0 0 -1
vn -0 0 -1
vn -0 0 -1
vn -0 0 -1
vn -0 0 -1
vn -0 0 -1
vn -0 0 -1
vn -0 0 -1
vn -0 0 -1
vn -0 0 -1
vn -0 0 -1
vn -0 0 -1
vn -0 0 -1
vn -0 0 -1
vn -0 0 -1
vn -0 0 -1
vn -0 0 -1
vn -0 0 -1
vn -0 0 -1
vn 1.1920929E-06 0 -1
vn -0 0 -1
vn -0 0 -1
vn -0 0 -1
vn -0 0 -1
vn -0 0 -1
vn -0 0 -1
vn -0 0 -1
vn -0 0 -1
vn -0 0 -1
vn -0 0 -1
vn -0 0 -1
vn -0 0 -1
vn -0 0 -1
vn -0 0 -1
vn -0 0 -1
vn -0 0 -1
vn -0 0 -1
vn -0 0 -1
vn -0 0 -1
vn -0 0 -1
vn -0 0 -1
vn -0 0 -1
vn -0 0 -1
vn -0 0 -1
vn -0 0 -1
vn -0 0 -1
vn -0 0 -1
vn 1.7881393E-06 0 -1
vn -0 0 -1
vn -0 0 -1
vn -0 0 -1
vn -0 0 -1
vn 1.4305115E-06 0 -1
vn -0 0 -1
vn -0 0 -1
vn -0 0 -1
vn -0 0 -1
vn -0 0 -1
vn -0 0 -1
vn -0 0 -1
vn -0 0 -1
vn -0 0 -1
vn -0 0 -1
vn -0 0 -1
vn -0 0 -1
vn -0 0 -1
vn -0 0 -1
vn -0 0 -1
vn -0 0 -1
vn -0 0 -1
vn -0 0 -1
vn -0 0 -1
vn 1.9073486E-06 0 -1
vn 2.026558E-06 0 -1
vn -0 0 -1
vn -5.2452087E-06 0 -1
vn -0 0 -1
vn -0 0 -1
vn -0 0 -1
vn -0 0 -1
vn -0 0 -1
vn -0 0 -1
vn -0 0 -1
vn -0 0 -1
vn -0 0 -1
vn -0 0 -1
vn -0 0 -1
vn -0 0 -1
vn -0 0 -1
vn -0 0 -1
vn -0 0 -1
vn -0 0 -1
vn -0.005695343 -0.005458832 -1
vn -0.024932861 0.019042969 -0.9995117
vn -0 0 -1
vn -0 0 -1
vn -0 0 -1
vn -0 0 -1
vn -0 0 -1
vn -0 0 -1
vn -0 0 -1
vn 2.6226044E-06 0 -1
vn -2.7418137E-06 0 -1
vn -0 0 -1
vn -0 0 -1
vn 0.066101074 -0.08343506 -0.9941406
vn 0.066101074 -0.08343506 -0.9941406
vn 0.066101074 -0.08343506 -0.9941406
vn 0.066101074 -0.08343506 -0.9941406
vn 0.066101074 -0.08343506 -0.9941406
vn 0.066101074 -0.08343506 -0.9941406
vn 0.0602417 -0.07550049 -0.9951172
vn 0.066101074 -0.08343506 -0.9941406
vn 0.062805176 -0.08258057 -0.9946289
vn 0.035186768 -0.042907715 -0.99853516
vn 0.04208374 -0.06274414 -0.9970703
vn 0.004322052 -0.0049209595 -1
vn -0 -0.12408447 -0.9921875
vn -0 -0.12408447 -0.9921875
vn -0 -0.12408447 -0.9921875
vn -0 -0.12408447 -0.9921875
vn -0 -0.12408447 -0.9921875
vn -0 -0.12414551 -0.9921875
vn -0 -0.12408447 -0.9921875
vn 1.0728836E-06 -0.12408447 -0.9921875
vn -0 -0.12408447 -0.9921875
vn -0 -0.12414551 -0.9921875
vn 2.1457672E-06 -0.12414551 -0.9921875
vn -0 -0.12408447 -0.9921875
vn -0.009399414 -0.010055542 -1
vn -0.021270752 -0.030441284 -0.9995117
vn -0 0 -1
vn -0 0 -1
vn -0 0 -1
vn -0 0 -1
vn -0 0 -1
vn 0.066101074 -0.08343506 -0.9941406
vn 0.066101074 -0.08343506 -0.9941406
vn 0.066101074 -0.08343506 -0.9941406
vn 0.066101074 -0.08343506 -0.9941406
vn 0.066101074 -0.08343506 -0.9941406
vn 0.066101074 -0.08343506 -0.9941406
vn 0.066101074 -0.08343506 -0.9941406
vn 0.066101074 -0.08343506 -0.9941406
vn 0.066101074 -0.08343506 -0.9941406
vn 0.066101074 -0.08343506 -0.9941406
vn 0.066101074 -0.08343506 -0.9941406
vn 0.066101074 -0.08343506 -0.9941406
vn 0.066101074 -0.08343506 -0.9941406
vn 0.066101074 -0.08343506 -0.9941406
vn 0.066101074 -0.08343506 -0.9941406
vn 0.066101074 -0.08343506 -0.9941406
vn 0.066101074 -0.08343506 -0.9941406
vn 0.066101074 -0.08343506 -0.9941406
vn 0.066101074 -0.08343506 -0.9941406
vn 0.066101074 -0.08343506 -0.9941406
vn 0.066101074 -0.08343506 -0.9941406
vn 0.066101074 -0.08343506 -0.9941406
vn -0 0 -1
vn -0 0 -1
vn -0 0 -1
vn -0 0 -1
vn -0 0 -1
vn -0 0 -1
vn -0 0 -1
vn -0 0 -1
vn -0 0 -1
vn 0.066101074 -0.08343506 -0.9941406
vn 0.066101074 -0.08343506 -0.9941406
vn 0.066101074 -0.08343506 -0.9941406
vn 0.066101074 -0.08343506 -0.9941406
vn 0.066101074 -0.08343506 -0.9941406
vn -0 0 -1
vn -0 0 -1
vn -0 0 -1
vn -0 0 -1
vn -0 0 -1
vn 0.059692383 0.06021118 -0.99658203
vn 0.059692383 0.06021118 -0.99658203
vn 0.059692383 0.06021118 -0.99658203
vn 0.059692383 0.06021118 -0.99658203
vn 0.059692383 0.06021118 -0.99658203
vn 0.059692383 0.06021118 -0.99658203
vn 0.059692383 0.06021118 -0.99658203
vn 0.059692383 0.06021118 -0.99658203
vn 0.059692383 0.06021118 -0.99658203
vn 0.03942871 0.039001465 -0.99853516
vn 0.024795532 0.02027893 -0.9995117
vn -0 0 -1
vn -0 0 -1
vn -0 0 -1
vn -0 0 -1
vn -0 0 -1
vn -0 0 -1
vn -0 0 -1
vn -0 0 -1
vn -0 0 -1
vn -0 0 -1
vn -0 0 -1
vn 1.4305115E-06 0 -1
vn -0 0 -1
vn -0 0 -1
vn -4.7683716E-06 0 -1
vn -0 0 -1
vn -0 0 -1
vn -0 0 -1
vn -0 0 -1
vn -0 0 -1
vn -0 0 -1
vn -0 0 -1
vn -0 0 -1
vn -0 0 -1
vn -0 0 -1
vn -0 0 -1
vn -0 0 -1
vn -0 0 -1
vn -0 0 -1
vn -0 0 -1
vn -0 0 -1
vn -0 0 -1
vn -0 0 -1
vn -0 0 -1
vn -0 0 -1
vn -0 0 -1
vn -0 0 -1
vn -0 0 -1
vn -0 0 -1
vn -0 0 -1
vn -0 0 -1
vn -0 0 -1
vn -0 0 -1
vn -0 0 -1
vn -0 0 -1
vn -0 0 -1
vn -0 0 -1
vn -0 0 -1
vn -0 -0.12408447 -0.9921875
vn -0 -0.12408447 -0.9921875
vn -0 -0.12408447 -0.9921875
vn -0 -0.12414551 -0.9921875
vn -0 -0.12408447 -0.9921875
vn -0 -0.12408447 -0.9921875
vn -0 -0.12408447 -0.9921875
vn -0 -0.12408447 -0.9921875
vn -0 -0.12408447 -0.9921875
vn -0 -0.12414551 -0.9921875
vn -0 -0.12408447 -0.9921875
vn -0 -0.12408447 -0.9921875
vn -0 -0.12408447 -0.9921875
vn -1.3709068E-06 -0.12414551 -0.9921875
vn -1.5497208E-06 -0.12408447 -0.9921875
vn 5.1259995E-06 -0.12408447 -0.9921875
vn -5.185604E-06 -0.12408447 -0.9921875
vn 1.847744E-06 -0.12408447 -0.9921875
vn -0 -0.12408447 -0.9921875
vn -0 -0.12408447 -0.9921875
vn -9.417534E-06 -0.12408447 -0.9921875
vn -0 -0.12408447 -0.9921875
vn -0 -0.12408447 -0.9921875
vn -0 -0.12408447 -0.9921875
vn -0 -0.12408447 -0.9921875
vn -0 -0.12408447 -0.9921875
vn -0 -0.12408447 -0.9921875
vn -0 -0.12408447 -0.9921875
vn -0 -0.12408447 -0.9921875
vn -0 -0.12408447 -0.9921875
vn -0 -0.12408447 -0.9921875
vn -0 -0.12408447 -0.9921875
vn 0.020980835 -0.029937744 -0.9995117
vn 0.030822754 -0.041931152 -0.99853516
vn 0.04562378 -0.05419922 -0.9975586
vn 0.04562378 -0.05419922 -0.9975586
vn 0.04562378 -0.05419922 -0.9975586
vn 0.04562378 -0.05419922 -0.9975586
vn 0.04562378 -0.05419922 -0.9975586
vn 0.04562378 -0.05419922 -0.9975586
vn 0.04562378 -0.05419922 -0.9975586
vn 0.04562378 -0.05419922 -0.9975586
vn 0.04562378 -0.05419922 -0.9975586
vn 0.04562378 -0.05419922 -0.9975586
vn 0.04562378 -0.05419922 -0.9975586
vn 0.04562378 -0.05419922 -0.9975586
vn 0.04562378 -0.05419922 -0.9975586
vn 0.04562378 -0.05419922 -0.9975586
vn 0.04562378 -0.05419922 -0.9975586
vn 0.04562378 -0.05419922 -0.9975586
vn 0.04562378 -0.05419922 -0.9975586
vn 0.04562378 -0.05419922 -0.9975586
vn 0.04562378 -0.05419922 -0.9975586
vn 0.04562378 -0.05419922 -0.9975586
vn 0.04562378 -0.05419922 -0.9975586
vn 0.04562378 -0.05419922 -0.9975586
vn 0.04562378 -0.05419922 -0.9975586
vn 0.04562378 -0.05419922 -0.9975586
vn 0.04562378 -0.05419922 -0.9975586
vn -0 0 -1
vn -0 0 -1
vn 0.023391724 -0.00023555756 -0.9995117
vn -0 0 -1
vn -0 0 -1
vn 0.0541687 -0.000849247 -0.99853516
vn 0.05368042 -0.0025730133 -0.99853516
vn 0.05307007 -0.0042266846 -0.99853516
vn 0.052093506 -0.0063476562 -0.99853516
vn 0.050964355 -0.008514404 -0.99853516
vn 0.04953003 -0.010681152 -0.99853516
vn -0 0 -1
vn -0 0 -1
vn -0 0 -1
vn -0 0 -1
vn -0 0 -1
vn 0.054504395 0.00056791306 -0.99853516
vn 0.0546875 0.0020713806 -0.99853516
vn 0.054840088 0.004261017 -0.99853516
vn 0.05480957 0.006061554 -0.99853516
vn 0.054626465 0.0075569153 -0.99853516
vn 0.045928955 -0.00459671 -0.99902344
vn -0 0 -1
vn -0 0 -1
vn -0 0 -1
vn -0 0 -1
vn 0.039031982 -0.00390625 -0.99902344
vn 0.048980713 -0.011306763 -0.99853516
vn 0.04837036 -0.011764526 -0.99853516
vn 0.048339844 -0.011772156 -0.99853516
vn 0.06237793 -0.010223389 -0.9980469
vn 0.05432129 0.00844574 -0.99853516
vn 0.053863525 0.00919342 -0.99853516
vn 0.07281494 0.0007786751 -0.9975586
vn 0.05532837 0.11755371 -0.9916992
vn -0 0 -1
vn 0.017944336 0.022094727 -0.9995117
vn -0 0 -1
vn -0 0 -1
vn -0 0 -1
vn -0 0 -1
vn -0 0 -1
vn -0 0 -1
vn -0 0 -1
vn -0 0 -1
vn -0 0 -1
vn -0 0 -1
vn 1.66893E-06 0 -1
vn -1.9669533E-06 0 -1
vn 0.059692383 0.06021118 -0.99658203
vn 0.059692383 0.06021118 -0.99658203
vn 0.059692383 0.06021118 -0.99658203
vn 0.059692383 0.06021118 -0.99658203
vn 0.059692383 0.06021118 -0.99658203
vn 0.059692383 0.06021118 -0.99658203
vn 0.059692383 0.06021118 -0.99658203
vn 0.059692383 0.06021118 -0.99658203
vn 0.059692383 0.06021118 -0.99658203
vn 0.059692383 0.06021118 -0.99658203
vn 0.059692383 0.06021118 -0.99658203
vn 0.059692383 0.06021118 -0.99658203
vn 0.059692383 0.06021118 -0.99658203
vn 0.059692383 0.06021118 -0.99658203
vn 0.0692749 0.12805176 -0.9892578
vn 0.06188965 0.12561035 -0.9902344
vn 0.06188965 0.12561035 -0.9902344
vn 0.06188965 0.12561035 -0.9902344
vn 0.06188965 0.12561035 -0.9902344
vn 0.06188965 0.12561035 -0.9902344
vn 0.06188965 0.12561035 -0.9902344
vn 0.06188965 0.12561035 -0.9902344
vn 0.06188965 0.12561035 -0.9902344
vn 0.06188965 0.12561035 -0.9902344
vn 0.06188965 0.12561035 -0.9902344
vn 0.06188965 0.12561035 -0.9902344
vn 0.06188965 0.12561035 -0.9902344
vn 0.06188965 0.12561035 -0.9902344
vn 0.06188965 0.12561035 -0.9902344
vn 0.06188965 0.12561035 -0.9902344
vn 0.06188965 0.12561035 -0.9902344
vn 0.06188965 0.12561035 -0.9902344
vn 0.059692383 0.06021118 -0.99658203
vn 0.059692383 0.06021118 -0.99658203
vn 0.059692383 0.06021118 -0.99658203
vn 0.059692383 0.06021118 -0.99658203
vn 0.059692383 0.06021118 -0.99658203
vn 0.059692383 0.06021118 -0.99658203
vn 0.059692383 0.06021118 -0.99658203
vn 0.059692383 0.06021118 -0.99658203
vn 0.059692383 0.06021118 -0.99658203
vn 0.059692383 0.06021118 -0.99658203
vn 0.059692383 0.06021118 -0.99658203
vn 0.0501709 0.07385254 -0.99609375
vn 0.08117676 0.17675781 -0.98095703
vn 0.07507324 0.11968994 -0.9897461
vn -0 0 -1
vn -0 0 -1
vn -0 0 -1
vn -0 0 -1
vn -0 0 -1
vn -0 0 -1
vn -0 0 -1
vn -0 0 -1
vn -0 0 -1
vn -0 0 -1
vn -0 0 -1
vn -0 0 -1
vn -0 0 -1
vn -0 0 -1
vn -0 0 -1
vn -0 0 -1
vn -0 0 -1
vn -0 0 -1
vn -0 0 -1
vn -0 0 -1
vn -0 0 -1
vn -0 0 -1
g cPK_20_001950_00_PUKURINex_SR_L_SB_0
f 3/3/3 2/2/2 1/1/1
f 3/3/3 4/4/4 2/2/2
f 3/3/3 5/5/5 4/4/4
f 6/6/6 5/5/5 3/3/3
f 6/6/6 7/7/7 5/5/5
f 10/10/10 9/9/9 8/8/8
f 6/6/6 11/11/11 7/7/7
f 12/12/12 11/11/11 6/6/6
f 12/12/12 13/13/13 11/11/11
f 10/10/10 14/14/14 9/9/9
f 15/15/15 13/13/13 12/12/12
f 15/15/15 16/16/16 13/13/13
f 15/15/15 17/17/17 16/16/16
f 18/18/18 17/17/17 15/15/15
f 18/18/18 19/19/19 17/17/17
f 18/18/18 20/20/20 19/19/19
f 18/18/18 21/21/21 20/20/20
f 22/22/22 21/21/21 18/18/18
f 22/22/22 23/23/23 21/21/21
f 22/22/22 24/24/24 23/23/23
f 22/22/22 25/25/25 24/24/24
f 22/22/22 26/26/26 25/25/25
f 22/22/22 27/27/27 26/26/26
f 22/22/22 28/28/28 27/27/27
f 22/22/22 29/29/29 28/28/28
f 22/22/22 30/30/30 29/29/29
f 22/22/22 31/31/31 30/30/30
f 22/22/22 32/32/32 31/31/31
f 22/22/22 33/33/33 32/32/32
f 22/22/22 34/34/34 33/33/33
f 22/22/22 35/35/35 34/34/34
f 22/22/22 36/36/36 35/35/35
f 22/22/22 37/37/37 36/36/36
f 22/22/22 38/38/38 37/37/37
f 22/22/22 39/39/39 38/38/38
f 40/40/40 39/39/39 22/22/22
f 40/40/40 41/41/41 39/39/39
f 40/40/40 42/42/42 41/41/41
f 40/40/40 43/43/43 42/42/42
f 40/40/40 44/44/44 43/43/43
f 40/40/40 45/45/45 44/44/44
f 46/46/46 45/45/45 40/40/40
f 47/47/47 45/45/45 46/46/46
f 47/47/47 48/48/48 45/45/45
f 47/47/47 49/49/49 48/48/48
f 47/47/47 50/50/50 49/49/49
f 47/47/47 51/51/51 50/50/50
f 47/47/47 52/52/52 51/51/51
f 47/47/47 53/53/53 52/52/52
f 47/47/47 54/54/54 53/53/53
f 47/47/47 55/55/55 54/54/54
f 56/56/56 55/55/55 47/47/47
f 56/56/56 57/57/57 55/55/55
f 56/56/56 58/58/58 57/57/57
f 59/59/59 58/58/58 56/56/56
f 59/59/59 60/60/60 58/58/58
f 61/61/61 60/60/60 59/59/59
f 14/14/14 60/60/60 61/61/61
f 10/10/10 60/60/60 14/14/14
f 64/64/64 63/63/63 62/62/62
f 65/65/65 63/63/63 64/64/64
f 65/65/65 66/66/66 63/63/63
f 67/67/67 66/66/66 65/65/65
f 68/68/68 66/66/66 67/67/67
f 69/69/69 66/66/66 68/68/68
f 69/69/69 70/70/70 66/66/66
f 71/71/71 70/70/70 69/69/69
f 71/71/71 72/72/72 70/70/70
f 73/73/73 72/72/72 71/71/71
f 74/74/74 72/72/72 73/73/73
f 74/74/74 75/75/75 72/72/72
f 76/76/76 75/75/75 74/74/74
f 76/76/76 77/77/77 75/75/75
f 78/78/78 77/77/77 76/76/76
f 78/78/78 79/79/79 77/77/77
f 80/80/80 79/79/79 78/78/78
f 80/80/80 81/81/81 79/79/79
f 80/80/80 82/82/82 81/81/81
f 83/83/83 82/82/82 80/80/80
f 83/83/83 84/84/84 82/82/82
f 85/85/85 84/84/84 83/83/83
f 86/86/86 84/84/84 85/85/85
f 86/86/86 87/87/87 84/84/84
f 86/86/86 88/88/88 87/87/87
f 90/90/90 86/86/86 89/89/89
f 88/88/88 86/86/86 90/90/90
f 93/93/93 92/92/92 91/91/91
f 93/93/93 94/94/94 92/92/92
f 93/93/93 95/95/95 94/94/94
f 93/93/93 96/96/96 95/95/95
f 93/93/93 97/97/97 96/96/96
f 98/98/98 97/97/97 93/93/93
f 99/99/99 97/97/97 98/98/98
f 99/99/99 100/100/100 97/97/97
f 101/101/101 100/100/100 99/99/99
f 102/102/102 100/100/100 101/101/101
f 103/103/103 100/100/100 102/102/102
f 104/104/104 100/100/100 103/103/103
f 105/105/105 100/100/100 104/104/104
f 106/106/106 100/100/100 105/105/105
f 109/109/109 108/108/108 107/107/107
f 109/109/109 110/110/110 108/108/108
f 109/109/109 111/111/111 110/110/110
f 109/109/109 112/112/112 111/111/111
f 113/113/113 112/112/112 109/109/109
f 114/114/114 112/112/112 113/113/113
f 114/114/114 115/115/115 112/112/112
f 114/114/114 116/116/116 115/115/115
f 117/117/117 116/116/116 114/114/114
f 118/118/118 116/116/116 117/117/117
f 119/119/119 116/116/116 118/118/118
f 122/122/122 121/121/121 120/120/120
f 122/122/122 123/123/123 121/121/121
f 124/124/124 123/123/123 122/122/122
f 124/124/124 125/125/125 123/123/123
f 126/126/126 125/125/125 124/124/124
f 126/126/126 127/127/127 125/125/125
f 126/126/126 128/128/128 127/127/127
f 129/129/129 128/128/128 126/126/126
f 129/129/129 130/130/130 128/128/128
f 131/131/131 130/130/130 129/129/129
f 134/134/134 133/133/133 132/132/132
f 134/134/134 135/135/135 133/133/133
f 136/136/136 135/135/135 134/134/134
f 136/136/136 137/137/137 135/135/135
f 136/136/136 138/138/138 137/137/137
f 139/139/139 138/138/138 136/136/136
f 140/140/140 138/138/138 139/139/139
f 141/141/141 138/138/138 140/140/140
f 141/141/141 142/142/142 138/138/138
f 143/143/143 142/142/142 141/141/141
f 146/146/146 145/145/145 144/144/144
f 147/147/147 145/145/145 146/146/146
f 147/147/147 148/148/148 145/145/145
f 147/147/147 149/149/149 148/148/148
f 150/150/150 149/149/149 147/147/147
f 153/153/153 152/152/152 151/151/151
f 154/154/154 152/152/152 153/153/153
f 154/154/154 155/155/155 152/152/152
f 154/154/154 156/156/156 155/155/155
f 157/157/157 156/156/156 154/154/154
f 158/158/158 156/156/156 157/157/157
f 158/158/158 159/159/159 156/156/156
f 160/160/160 159/159/159 158/158/158
f 160/160/160 161/161/161 159/159/159
f 162/162/162 161/161/161 160/160/160
f 162/162/162 163/163/163 161/161/161
f 164/164/164 163/163/163 162/162/162
f 164/164/164 165/165/165 163/163/163
f 166/166/166 165/165/165 164/164/164
f 167/167/167 165/165/165 166/166/166
f 168/168/168 165/165/165 167/167/167
f 171/171/171 170/170/170 169/169/169
f 172/172/172 170/170/170 171/171/171
f 120/120/120 170/170/170 172/172/172
f 121/121/121 170/170/170 120/120/120
f 173/173/173 8/8/8 9/9/9
f 175/175/175 173/173/173 174/174/174
f 173/173/173 175/175/175 8/8/8
f 178/178/178 177/177/177 176/176/176
f 178/178/178 174/174/174 177/177/177
f 179/179/179 174/174/174 178/178/178
f 180/180/180 174/174/174 179/179/179
f 181/181/181 174/174/174 180/180/180
f 175/175/175 174/174/174 181/181/181
f 169/169/169 182/182/182 171/171/171
f 183/183/183 182/182/182 169/169/169
f 183/183/183 184/184/184 182/182/182
f 185/185/185 184/184/184 183/183/183
f 185/185/185 186/186/186 184/184/184
f 151/151/151 186/186/186 185/185/185
f 152/152/152 186/186/186 151/151/151
f 129/129/129 187/187/187 131/131/131
f 129/129/129 188/188/188 187/187/187
f 129/129/129 189/189/189 188/188/188
f 190/190/190 189/189/189 129/129/129
f 191/191/191 189/189/189 190/190/190
f 194/194/194 193/193/193 192/192/192
f 194/194/194 195/195/195 193/193/193
f 196/196/196 195/195/195 194/194/194
f 196/196/196 197/197/197 195/195/195
f 198/198/198 197/197/197 196/196/196
f 198/198/198 199/199/199 197/197/197
f 198/198/198 200/200/200 199/199/199
f 201/201/201 200/200/200 198/198/198
f 201/201/201 202/202/202 200/200/200
f 201/201/201 145/145/145 202/202/202
f 144/144/144 145/145/145 201/201/201
f 203/203/203 44/44/44 45/45/45
f 204/204/204 44/44/44 203/203/203
f 205/205/205 44/44/44 204/204/204
f 206/206/206 44/44/44 205/205/205
f 207/207/207 44/44/44 206/206/206
f 208/208/208 44/44/44 207/207/207
f 209/209/209 44/44/44 208/208/208
f 210/210/210 44/44/44 209/209/209
f 211/211/211 44/44/44 210/210/210
f 212/212/212 44/44/44 211/211/211
f 213/213/213 44/44/44 212/212/212
f 214/214/214 44/44/44 213/213/213
f 215/215/215 44/44/44 214/214/214
f 216/216/216 44/44/44 215/215/215
f 217/217/217 44/44/44 216/216/216
f 218/218/218 44/44/44 217/217/217
f 219/219/219 44/44/44 218/218/218
f 220/220/220 3/3/3 1/1/1
f 221/221/221 3/3/3 220/220/220
f 221/221/221 222/222/222 3/3/3
f 223/223/223 222/222/222 221/221/221
f 224/224/224 222/222/222 223/223/223
f 225/225/225 222/222/222 224/224/224
f 226/226/226 222/222/222 225/225/225
f 227/227/227 222/222/222 226/226/226
f 228/228/228 222/222/222 227/227/227
f 229/229/229 222/222/222 228/228/228
f 230/230/230 222/222/222 229/229/229
f 231/231/231 222/222/222 230/230/230
f 232/232/232 222/222/222 231/231/231
f 233/233/233 222/222/222 232/232/232
f 234/234/234 222/222/222 233/233/233
f 235/235/235 222/222/222 234/234/234
f 236/236/236 222/222/222 235/235/235
f 237/237/237 222/222/222 236/236/236
f 238/238/238 222/222/222 237/237/237
f 239/239/239 222/222/222 238/238/238
f 239/239/239 240/240/240 222/222/222
f 241/241/241 240/240/240 239/239/239
f 241/241/241 242/242/242 240/240/240
f 241/241/241 243/243/243 242/242/242
f 244/244/244 243/243/243 241/241/241
f 244/244/244 245/245/245 243/243/243
f 246/246/246 245/245/245 244/244/244
f 246/246/246 247/247/247 245/245/245
f 248/248/248 247/247/247 246/246/246
f 248/248/248 249/249/249 247/247/247
f 248/248/248 250/250/250 249/249/249
f 248/248/248 177/177/177 250/250/250
f 176/176/176 177/177/177 248/248/248
f 253/253/253 252/252/252 251/251/251
f 253/253/253 254/254/254 252/252/252
f 253/253/253 255/255/255 254/254/254
f 253/253/253 256/256/256 255/255/255
f 253/253/253 257/257/257 256/256/256
f 253/253/253 258/258/258 257/257/257
f 253/253/253 259/259/259 258/258/258
f 253/253/253 260/260/260 259/259/259
f 253/253/253 261/261/261 260/260/260
f 253/253/253 262/262/262 261/261/261
f 253/253/253 263/263/263 262/262/262
f 253/253/253 264/264/264 263/263/263
f 253/253/253 265/265/265 264/264/264
f 253/253/253 266/266/266 265/265/265
f 253/253/253 267/267/267 266/266/266
f 253/253/253 268/268/268 267/267/267
f 269/269/269 268/268/268 253/253/253
f 270/270/270 268/268/268 269/269/269
f 271/271/271 268/268/268 270/270/270
f 272/272/272 253/253/253 251/251/251
f 273/273/273 253/253/253 272/272/272
f 274/274/274 253/253/253 273/273/273
f 275/275/275 253/253/253 274/274/274
f 134/134/134 253/253/253 275/275/275
f 134/134/134 276/276/276 253/253/253
f 134/134/134 277/277/277 276/276/276
f 134/134/134 278/278/278 277/277/277
f 134/134/134 279/279/279 278/278/278
f 134/134/134 280/280/280 279/279/279
f 134/134/134 281/281/281 280/280/280
f 134/134/134 282/282/282 281/281/281
f 132/132/132 282/282/282 134/134/134
f 283/283/283 107/107/107 108/108/108
f 283/283/283 284/284/284 107/107/107
f 283/283/283 285/285/285 284/284/284
f 286/286/286 285/285/285 283/283/283
f 287/287/287 285/285/285 286/286/286
f 287/287/287 288/288/288 285/285/285
f 289/289/289 288/288/288 287/287/287
f 289/289/289 290/290/290 288/288/288
f 291/291/291 290/290/290 289/289/289
f 291/291/291 292/292/292 290/290/290
f 293/293/293 292/292/292 291/291/291
f 293/293/293 294/294/294 292/292/292
f 295/295/295 294/294/294 293/293/293
f 295/295/295 296/296/296 294/294/294
f 297/297/297 296/296/296 295/295/295
f 297/297/297 298/298/298 296/296/296
f 299/299/299 298/298/298 297/297/297
f 299/299/299 300/300/300 298/298/298
f 301/301/301 300/300/300 299/299/299
f 301/301/301 302/302/302 300/300/300
f 303/303/303 302/302/302 301/301/301
f 304/304/304 302/302/302 303/303/303
f 304/304/304 305/305/305 302/302/302
f 304/304/304 306/306/306 305/305/305
f 307/307/307 306/306/306 304/304/304
f 307/307/307 308/308/308 306/306/306
f 309/309/309 308/308/308 307/307/307
f 312/312/312 311/311/311 310/310/310
f 312/312/312 313/313/313 311/311/311
f 314/314/314 313/313/313 312/312/312
f 316/316/316 312/312/312 315/315/315
f 317/317/317 312/312/312 316/316/316
f 318/318/318 312/312/312 317/317/317
f 319/319/319 312/312/312 318/318/318
f 319/319/319 320/320/320 312/312/312
f 310/310/310 321/321/321 312/312/312
f 322/322/322 321/321/321 310/310/310
f 322/322/322 323/323/323 321/321/321
f 322/322/322 324/324/324 323/323/323
f 325/325/325 324/324/324 322/322/322
f 312/312/312 326/326/326 315/315/315
f 312/312/312 327/327/327 326/326/326
f 312/312/312 328/328/328 327/327/327
f 312/312/312 329/329/329 328/328/328
f 330/330/330 329/329/329 312/312/312
f 312/312/312 332/332/332 331/331/331
f 333/333/333 312/312/312 321/321/321
f 333/333/333 332/332/332 312/312/312
f 312/312/312 334/334/334 314/314/314
f 312/312/312 335/335/335 334/334/334
f 336/336/336 335/335/335 312/312/312
f 337/337/337 312/312/312 320/320/320
f 338/338/338 312/312/312 337/337/337
f 339/339/339 312/312/312 338/338/338
f 340/340/340 312/312/312 339/339/339
f 340/340/340 336/336/336 312/312/312
f 312/312/312 341/341/341 330/330/330
f 312/312/312 342/342/342 341/341/341
f 312/312/312 343/343/343 342/342/342
f 312/312/312 331/331/331 343/343/343
g cPK_20_001950_00_PUKURINex_SR_L_SB_1
f 346/346/346 345/345/345 344/344/344
f 346/346/346 347/347/347 345/345/345
f 346/346/346 348/348/348 347/347/347
f 346/346/346 349/349/349 348/348/348
f 346/346/346 350/350/350 349/349/349
f 346/346/346 351/351/351 350/350/350
f 352/352/352 351/351/351 346/346/346
f 352/352/352 353/353/353 351/351/351
f 352/352/352 354/354/354 353/353/353
f 352/352/352 355/355/355 354/354/354
f 352/352/352 356/356/356 355/355/355
f 357/357/357 356/356/356 352/352/352
f 358/358/358 356/356/356 357/357/357
f 361/361/361 360/360/360 359/359/359
f 361/361/361 362/362/362 360/360/360
f 363/363/363 362/362/362 361/361/361
f 363/363/363 364/364/364 362/362/362
f 365/365/365 364/364/364 363/363/363
f 366/366/366 364/364/364 365/365/365
f 366/366/366 367/367/367 364/364/364
f 368/368/368 367/367/367 366/366/366
f 368/368/368 369/369/369 367/367/367
f 370/370/370 369/369/369 368/368/368
f 370/370/370 371/371/371 369/369/369
f 372/372/372 371/371/371 370/370/370
f 375/375/375 374/374/374 373/373/373
f 376/376/376 374/374/374 375/375/375
f 377/377/377 374/374/374 376/376/376
f 377/377/377 378/378/378 374/374/374
f 379/379/379 378/378/378 377/377/377
f 379/379/379 380/380/380 378/378/378
f 381/381/381 380/380/380 379/379/379
f 382/382/382 380/380/380 381/381/381
f 382/382/382 383/383/383 380/380/380
f 384/384/384 383/383/383 382/382/382
f 384/384/384 385/385/385 383/383/383
f 386/386/386 385/385/385 384/384/384
f 387/387/387 385/385/385 386/386/386
f 388/388/388 385/385/385 387/387/387
f 389/389/389 385/385/385 388/388/388
f 390/390/390 385/385/385 389/389/389
f 391/391/391 359/359/359 360/360/360
f 391/391/391 392/392/392 359/359/359
f 393/393/393 392/392/392 391/391/391
f 393/393/393 394/394/394 392/392/392
f 393/393/393 395/395/395 394/394/394
f 393/393/393 396/396/396 395/395/395
f 397/397/397 396/396/396 393/393/393
f 397/397/397 398/398/398 396/396/396
f 397/397/397 399/399/399 398/398/398
f 400/400/400 399/399/399 397/397/397
f 400/400/400 401/401/401 399/399/399
f 400/400/400 192/192/192 401/401/401
f 194/194/194 192/192/192 400/400/400
f 344/344/344 402/402/402 346/346/346
f 373/373/373 403/403/403 375/375/375
f 344/344/344 404/404/404 402/402/402
f 373/373/373 344/344/344 403/403/403
f 344/344/344 373/373/373 404/404/404
f 407/407/407 406/406/406 405/405/405
f 408/408/408 406/406/406 407/407/407
f 406/406/406 410/410/410 409/409/409
f 408/408/408 410/410/410 406/406/406
f 411/411/411 405/405/405 406/406/406
f 406/406/406 413/413/413 412/412/412
f 406/406/406 414/414/414 413/413/413
f 406/406/406 415/415/415 414/414/414
f 406/406/406 416/416/416 415/415/415
f 409/409/409 416/416/416 406/406/406
f 406/406/406 412/412/412 417/417/417
f 419/419/419 417/417/417 418/418/418
f 419/419/419 411/411/411 417/417/417
f 411/411/411 406/406/406 417/417/417
f 420/420/420 203/203/203 45/45/45
f 418/418/418 421/421/421 419/419/419
f 418/418/418 422/422/422 421/421/421
f 423/423/423 422/422/422 418/418/418
f 423/423/423 424/424/424 422/422/422
f 423/423/423 425/425/425 424/424/424
f 426/426/426 425/425/425 423/423/423
f 426/426/426 420/420/420 425/425/425
f 420/420/420 426/426/426 203/203/203
