g cPK_10_002720_00_PIGEOTex_RR_L_SB
v 0.056786846 0.025228858 -0.015000001
v 0.026941199 0.031077031 -0.015000001
v 0.027368462 0.023670731 -0.015000001
v -0.06592539 0.18100742 -0.015000001
v -0.065672725 0.17247784 -0.015000001
v -0.030414045 0.17321084 -0.015000001
v 0.12197321 0.37823817 -0.015000001
v 0.099595636 0.35855937 -0.015000001
v 0.0960124 0.3489388 -0.015000001
v 0.09486233 0.3643991 -0.015000001
v 0.09492363 0.36213177 -0.015000001
v 0.099212945 0.43185735 -0.015000001
v 0.086403094 0.42297515 -0.015000001
v 0.08576086 0.41799018 -0.015000001
v 0.029050618 0.38522345 -0.015000001
v 0.0248417 0.38235363 -0.015000001
v 0.036242317 0.38304317 -0.015000001
v -0.039197065 0.3760669 -0.015000001
v -0.030362764 0.37771884 -0.015000001
v -0.03570993 0.40343338 -0.015000001
v -0.2324984 0.2380501 -0.015000001
v -0.19536325 0.22928996 -0.015000001
v -0.19827117 0.2373846 -0.015000001
v -0.26718688 0.12392634 -0.015
v -0.24073239 0.08643277 -0.015000001
v -0.2395362 0.09830909 -0.015000001
v 0.055315595 0.0008584666 -0.015000001
v 0.014692462 0.0037309923 -0.015000001
v 0.012840864 -0.0019661644 -0.015000001
v -0.036826845 0.3734095 -0.015000001
v -0.021744018 0.3743432 -0.015000001
v -0.021506239 0.39298952 -0.015000001
v -0.058158368 0.36974645 -0.015000001
v -0.048462216 0.3734095 -0.015000001
v -0.06663347 0.36694542 -0.015000001
v -0.08584043 0.3879765 -0.015000001
v -0.07302575 0.36443156 -0.015000001
v -0.08753409 0.35882935 -0.015000001
v -0.07862797 0.36213323 -0.015000001
v -0.09881024 0.35509458 -0.015000001
v -0.09536279 0.35610008 -0.015000001
v 0.04570843 0.4231533 -0.015000001
v -0.11080474 0.35265255 -0.015000001
v -0.10462792 0.35365802 -0.015000001
v -0.11626329 0.35150337 -0.015000001
v -0.13868624 0.37920368 -0.015000001
v -0.14800914 0.33886254 -0.015000001
v -0.14111412 0.34274098 -0.015000001
v -0.12466668 0.3492769 -0.015000001
v -0.13292633 0.3463321 -0.015000001
v -0.15504791 0.3342658 -0.015000001
v -0.18234156 0.36479113 -0.015000001
v -0.16402574 0.32658076 -0.015000001
v -0.15993181 0.33017197 -0.015000001
v -0.17235719 0.31681272 -0.015000001
v -0.16804786 0.3223431 -0.015000001
v -0.17946778 0.30618298 -0.015000001
v -0.17544563 0.31264707 -0.015000001
v -0.21770003 0.3226209 -0.015000001
v -0.18305115 0.29938698 -0.015000001
v -0.012141096 0.37317976 -0.015000001
v 0.0010360688 0.37851343 -0.015000001
v 0.017141555 0.3855203 -0.015000001
v 0.0076247463 0.37809506 -0.015000001
v 0.015909426 0.3806422 -0.015000001
v 0.046842944 0.38838014 -0.015000001
v 0.015467239 0.37661418 -0.015000001
v 0.055069547 0.39469352 -0.015000001
v 0.0726973 0.44583535 -0.015000001
v 0.06243517 0.4002416 -0.015000001
v 0.06970517 0.40856385 -0.015000001
v 0.07821876 0.41822535 -0.015000001
v 0.08338429 0.42386913 -0.015000001
v 0.07774041 0.41258144 -0.015000001
v 0.08409283 0.40365034 -0.015000001
v 0.0811647 0.38554138 -0.015000001
v 0.09040539 0.37803817 -0.015000001
v 0.077998534 0.37248778 -0.015000001
v 0.08713292 0.37439698 -0.015000001
v 0.07592033 0.3661766 -0.015000001
v 0.07989666 0.36674592 -0.015000001
v 0.075195484 0.3620908 -0.015000001
v 0.08915862 0.3673505 -0.015000001
v 0.08289136 0.3583834 -0.015000001
v 0.09185959 0.36115125 -0.015000001
v 0.074695714 0.34633103 -0.015000001
v 0.08278998 0.3512237 -0.015000001
v 0.061775483 0.33080742 -0.015000001
v 0.05872305 0.3166826 -0.015000001
v 0.05049436 0.31798372 -0.015000001
v 0.04239514 0.3088238 -0.015000001
v 0.03668598 0.29226896 -0.015000001
v 0.054942172 0.3120375 -0.015000001
v 0.032174677 0.29821765 -0.015000001
v 0.021375684 0.28770795 -0.015000001
v 0.010865963 0.27960873 -0.015000001
v 0.018097466 0.2772947 -0.015000001
v -0.0048503703 0.2704489 -0.015000001
v 0.0031524312 0.26707423 -0.015000001
v -0.025676971 0.26032484 -0.015000001
v -0.022302324 0.25646806 -0.015000001
v -0.007260864 0.26148182 -0.015000001
v -0.017288474 0.2641816 -0.015000001
v -0.034836855 0.25685376 -0.015000001
v -0.049685474 0.2514542 -0.015000001
v -0.04206836 0.25212917 -0.015000001
v 0.103470005 0.38905182 -0.015000001
v 0.09006622 0.37583598 -0.015000001
v 0.083766416 0.36762545 -0.015000001
v 0.07891238 0.36122236 -0.015000001
v 0.08355978 0.3630813 -0.015000001
v 0.07524609 0.355697 -0.015000001
v 0.080668055 0.35998306 -0.015000001
v 0.07669195 0.35502574 -0.015000001
v 0.091920905 0.356065 -0.015000001
v 0.08989858 0.3502432 -0.015000001
v 0.09385453 0.35168085 -0.015000001
v 0.112175 0.30547002 -0.015000001
v 0.12888514 0.3491253 -0.015000001
v 0.09143134 0.33931825 -0.015000001
v 0.08125642 0.32158026 -0.015000001
v 0.070134416 0.30375788 -0.015000001
v 0.05929699 0.28715178 -0.015000001
v 0.07624812 0.24761115 -0.015000001
v 0.09692701 0.2795694 -0.015000001
v 0.050408643 0.27537492 -0.015000001
v 0.04022709 0.26325405 -0.015000001
v 0.032178853 0.2545271 -0.015000001
v 0.0520184 0.21795061 -0.015000001
v 0.021706523 0.24512124 -0.015000001
v 0.0102643985 0.23668528 -0.015000001
v 0.018806953 0.20207596 -0.015000001
v 0.003282881 0.23270956 -0.015000001
v -0.0038926732 0.22989757 -0.015000001
v -0.010680354 0.22795819 -0.015000001
v -0.022316314 0.22563103 -0.015000001
v -0.03026764 0.22398257 -0.015000001
v -0.03382996 0.19601852 -0.015000001
v -0.012106778 0.1958097 -0.015000001
v -0.04229146 0.2221402 -0.015000001
v -0.05305475 0.21981302 -0.015000001
v -0.06798759 0.21535254 -0.015000001
v -0.06653309 0.20778921 -0.015000001
v -0.065951265 0.19886826 -0.015000001
v -0.0655635 0.18926854 -0.015000001
v -0.0613132 0.16495925 -0.015000001
v -0.05423683 0.15447116 -0.015000001
v -0.048803274 0.14790034 -0.015000001
v -0.041790094 0.1414558 -0.015000001
v -0.037872933 0.13854948 -0.015000001
v -0.03504648 0.13720499 -0.015000001
v -0.0098414 0.12928663 -0.015000001
v -0.0024806415 0.12259507 -0.015000001
v -0.0034916964 0.15774481 -0.015000001
v -0.026904983 0.13597827 -0.015000001
v 0.014074638 0.14132404 -0.015000001
v -0.017982883 0.13363622 -0.015000001
v -0.014190904 0.13229789 -0.015000001
v 0.014136839 0.09270589 -0.015000001
v 0.017851442 0.08033365 -0.015000001
v 0.034230683 0.11211045 -0.015000001
v 0.0030956913 0.11579192 -0.015000001
v 0.008337508 0.10731583 -0.015000001
v 0.02284953 0.05546854 -0.015000001
v 0.025944227 0.039480206 -0.015000001
v 0.046952154 0.071298234 -0.015000001
v 0.024519885 0.02110706 -0.015000001
v 0.031498823 0.019825278 -0.015000001
v 0.029362416 0.016406981 -0.015000001
v 0.024519885 0.013700861 -0.015000001
v 0.016259162 0.013131144 -0.015000001
v 0.016116709 0.009570495 -0.015000001
v 0.019677354 0.012418973 -0.015000001
v 0.008995316 -0.009372363 -0.015000001
v 0.005434662 -0.016066497 -0.015000001
v 0.029994233 -0.045657966 -0.015000001
v -0.0006897477 -0.02560911 -0.015000001
v -0.008523205 -0.03614869 -0.015000001
v -0.018350724 -0.045264035 -0.015000001
v -0.021761378 -0.0908494 -0.015000001
v -0.027893335 -0.052527882 -0.015000001
v -0.04028451 -0.059934087 -0.015000001
v 0.012574017 -0.06762251 -0.015000001
v -0.057090975 -0.066770576 -0.015000001
v -0.07361252 -0.07075857 -0.015000001
v -0.055339374 -0.10650233 -0.015000001
v -0.08885219 -0.07275253 -0.015000001
v -0.09750117 -0.11281394 -0.015000001
v -0.103664696 -0.073322244 -0.015000001
v -0.11676794 -0.07289498 -0.015000001
v -0.13314712 -0.07047367 -0.015000001
v -0.14370249 -0.108774446 -0.015000001
v -0.14582312 -0.06577359 -0.015000001
v -0.19217591 -0.08781978 -0.015000001
v -0.15807186 -0.059079465 -0.015000001
v -0.17146002 -0.050391477 -0.015000001
v -0.22827859 -0.05474673 -0.015000001
v -0.18572453 -0.03833758 -0.015000001
v -0.19849953 -0.025387589 -0.015000001
v -0.2530203 -0.015866997 -0.015000001
v -0.22159946 0.007512362 -0.015000001
v -0.22929947 0.023962285 -0.015000001
v -0.2102245 -0.010687677 -0.015000001
v -0.26718688 0.024527406 -0.015
v -0.23699942 0.044612307 -0.015000001
v -0.23927441 0.057037216 -0.015000001
v -0.26718688 0.07663701 -0.015
v -0.24073239 0.07165151 -0.015000001
v -0.21245149 0.15546902 -0.015000001
v -0.20638518 0.16170624 -0.015000001
v -0.22787674 0.17617519 -0.015000001
v -0.23714387 0.11180878 -0.015000001
v -0.2325301 0.12462484 -0.015000001
v -0.22774537 0.13487785 -0.015000001
v -0.2536039 0.1461017 -0.015000001
v -0.21971391 0.14760847 -0.015000001
v -0.22424237 0.1414567 -0.015000001
v -0.20219858 0.16580744 -0.015000001
v -0.2018568 0.16948137 -0.015000001
v -0.20296757 0.1888764 -0.015000001
v -0.20399284 0.20032544 -0.015000001
v -0.23727618 0.21105771 -0.015000001
v -0.2010024 0.17341164 -0.015000001
v -0.20330933 0.209724 -0.015000001
v -0.20108782 0.2165592 -0.015000001
v -0.19869557 0.221942 -0.015000001
v -0.19939503 0.24379037 -0.015000001
v -0.19849597 0.25154456 -0.015000001
v -0.19748448 0.25986072 -0.015000001
v -0.2337253 0.25889048 -0.015000001
v -0.19585411 0.26751384 -0.015000001
v -0.19477965 0.2726171 -0.015000001
v -0.19191472 0.2819284 -0.015000001
v -0.22954777 0.28813323 -0.015000001
v -0.1888706 0.28927 -0.015000001
v -0.18573703 0.29517907 -0.015000001
v 0.08848911 0.34681153 -0.015000001
v 0.09081777 0.34785324 -0.015000001
v 0.08953093 0.34607616 -0.015000001
v -0.03175277 0.044521216 -0.015244037
v -0.038955882 0.046785157 -0.015244037
v -0.041402698 0.006254831 -0.015244037
v 0.05271394 0.04121207 -0.015244037
v 0.040743932 0.042963803 -0.015244037
v 0.04015999 0.041990627 -0.015244037
v -0.03794235 0.06357382 -0.015244037
v -0.0549536 0.08023423 -0.015244037
v 0.067792 0.0995642 -0.015244037
v 0.023137527 0.066704646 -0.015244037
v 0.06342413 0.07078963 -0.015244037
v -0.02601771 0.040958628 -0.015244037
v -0.010376944 0.0296625 -0.015244037
v -0.01932693 0.036440115 -0.015244037
v -0.00073174987 0.027837683 -0.015244037
v -0.008204575 0.02775075 -0.015244037
v -0.0055978145 0.039915863 -0.015244037
v -0.006988138 0.039829027 -0.015244037
v -0.006901197 0.038699325 -0.015244037
v -0.002904119 0.037048392 -0.015244037
v 0.0058720955 0.028098403 -0.015244037
v -0.0051633213 0.036092564 -0.015244037
v -0.002904119 0.03200854 -0.015244037
v 0.018645484 0.02497021 -0.015244037
v 0.08519634 0.010843175 -0.01524404
v 0.019166816 0.025926033 -0.015244037
v 0.027816508 0.029235482 -0.015244037
v 0.02055883 0.031042947 -0.015244037
v 0.009206468 0.03882026 -0.015244037
v 0.046902508 0.027626062 -0.015244037
v 0.035974473 0.028256524 -0.015244037
v 0.008478952 0.038004216 -0.015244037
v 0.08463784 0.024111487 -0.015244037
v 0.0844882 0.028268889 -0.015244037
v 0.07412386 0.029728597 -0.015244037
v 0.06341895 0.031383023 -0.015244037
v 0.05787183 0.036200237 -0.015244037
v 0.047653455 0.030020524 -0.015244037
v 0.04770211 0.028950041 -0.015244037
v 0.10205789 0.024196908 -0.015244037
v 0.08906214 0.02831754 -0.015244037
v 0.08994271 0.041976172 -0.015244037
v 0.09161567 0.031615723 -0.015244037
v 0.09052185 0.029582638 -0.015244037
v 0.101002336 0.011823943 -0.015244079
v 0.10919284 0.010083665 -0.015237114
v -0.0031524326 0.04019412 -0.01565719
v 0.0042425147 0.016296523 -0.015657187
v 0.01366081 0.04044005 -0.01565719
v 0.1633017 0.023715591 -0.01565719
v 0.1295963 0.040966686 -0.01565719
v 0.12870269 0.039757606 -0.01565719
v 0.12875521 0.043016806 -0.01565719
v 0.12575813 0.045555674 -0.01565719
v 0.07841061 0.1623038 -0.01565719
v 0.047726672 0.1273878 -0.01565719
v 0.06307582 0.12886815 -0.01565719
v 0.07935985 0.13478966 -0.01565719
v 0.09400771 0.14063318 -0.01565719
v 0.033702146 0.12715402 -0.01565719
v 0.020378806 0.12769936 -0.01565719
v 0.013973455 0.12828963 -0.01565719
v 0.0047181007 0.13034849 -0.01565719
v -0.012749835 0.13431033 -0.01565719
v -0.021978484 0.1358142 -0.01565719
v -0.07156323 0.16087888 -0.01565719
v -0.03683166 0.12701494 -0.01565719
v -0.039203037 0.13635233 -0.01565719
v -0.037391674 0.09411476 -0.01565719
v -0.03571163 0.1111949 -0.01565719
v -0.039071623 0.07899473 -0.01565719
v -0.07191945 0.054721605 -0.01565719
v -0.034881525 0.055283632 -0.01565719
v -0.04072635 0.0629376 -0.01565719
v -0.043777075 0.0155360615 -0.01565719
v -0.027853763 0.049369205 -0.01565719
v -0.01567707 0.04074115 -0.01565719
v -0.0111542735 0.043176424 -0.01565719
v -0.0110846795 0.041019406 -0.01565719
v -0.01185008 0.046168428 -0.01565719
v -0.0056772633 0.044289783 -0.01565719
v -0.009693067 0.049995434 -0.01565719
v -0.014424537 0.055840235 -0.01565719
v 0.039173167 0.017067729 -0.015657187
v 0.00962754 0.05595241 -0.01565719
v 0.012109572 0.048329227 -0.01565719
v 0.013793709 0.04154813 -0.01565719
v 0.010513973 0.055863768 -0.01565719
v 0.02154989 0.04828487 -0.01565719
v 0.013173272 0.05391365 -0.01565719
v 0.03161083 0.042877726 -0.01565719
v 0.030236864 0.043232262 -0.01565719
v 0.044330984 0.04141901 -0.01565719
v 0.058026202 0.03965981 -0.01565719
v 0.06736033 0.038867876 -0.01565719
v 0.1149781 0.017838934 -0.01565719
v 0.08305823 0.043513916 -0.01565719
v 0.07499518 0.043752786 -0.01565719
v 0.066603 0.04044005 -0.01565719
v 0.09165876 0.04381252 -0.01565719
v 0.06854468 0.044349995 -0.01565719
v 0.060959484 0.04560433 -0.01565719
v 0.060463775 0.043143623 -0.01565719
v 0.056341965 0.046999533 -0.01565719
v 0.052220058 0.04815197 -0.01565719
v 0.052884962 0.046467744 -0.01565719
v 0.047743723 0.049525823 -0.01565719
v 0.119923785 0.040072963 -0.01565719
v 0.11403608 0.042438544 -0.01565719
v 0.12539084 0.039547354 -0.01565719
v 0.0953744 0.045277324 -0.01565719
v 0.094007604 0.04417333 -0.01565719
v 0.10793822 0.044804126 -0.01565719
v 0.100210644 0.048589062 -0.01565719
v 0.0953744 0.04669665 -0.01565719
v 0.092167735 0.051953446 -0.01565719
v 0.09384989 0.048694246 -0.01565719
v 0.085701786 0.0537933 -0.01565719
v 0.10715418 0.061287265 -0.01565719
v 0.10257095 0.062249184 -0.01565719
v 0.10220337 0.061606 -0.01565719
v 0.10514392 0.059400637 -0.01565719
v 0.12203343 0.05673467 -0.01565719
v 0.11303928 0.059436627 -0.01565719
v 0.11209702 0.054775443 -0.01565719
v 0.11935639 0.050242193 -0.01565719
v 0.13280435 0.053403463 -0.01565719
v 0.14386173 0.05025301 -0.01565719
v 0.15477704 0.04827484 -0.01565719
v 0.1688754 0.04822125 -0.01565719
v 0.16260757 0.047578722 -0.01565719
v 0.17417963 0.050727904 -0.01565719
v 0.17799155 0.05474593 -0.01565719
v 0.17134646 0.056445826 -0.01565719
v 0.17454025 0.05407625 -0.01565719
v 0.18530637 0.05263389 -0.01565719
v 0.17484932 0.05201574 -0.01565719
v 0.19298169 0.050676465 -0.01565719
v 0.20122372 0.048873484 -0.01565719
v 0.21039295 0.047379684 -0.01565719
v 0.21580164 0.046812974 -0.01565719
v 0.22079842 0.04696753 -0.01565719
v 0.25504407 0.043261584 -0.01565719
v 0.23166756 0.05361263 -0.01565719
v 0.23146148 0.052170273 -0.01565719
v 0.22857676 0.049440194 -0.01565719
v 0.22430132 0.047740184 -0.01565719
v 0.23058581 0.055054992 -0.01565719
v 0.22802572 0.057109922 -0.01565719
v -0.027418057 0.37075198 -0.015000001
v -0.035677694 0.36680177 -0.015000001
v -0.022703798 0.36899653 -0.015000001
v -0.04501475 0.36191776 -0.015000001
v -0.033057388 0.36523163 -0.015000001
v 0.0025534562 0.36943984 -0.015000001
v 0.020345768 0.37020507 -0.015000001
v -0.008160237 0.36389172 -0.015000001
v 0.007910244 0.3630308 -0.015000001
v -0.019160906 0.3593958 -0.015000001
v -0.0022294621 0.35700428 -0.015000001
v -0.03513576 0.35470858 -0.015000001
v -0.016099842 0.35174316 -0.015000001
v -0.04680604 0.3516475 -0.015000001
v -0.030544195 0.34667325 -0.015000001
v -0.058858838 0.34925607 -0.015000001
v -0.044797197 0.34361228 -0.015000001
v -0.0669898 0.34772548 -0.015000001
v -0.05713701 0.34198612 -0.015000001
v -0.07626866 0.3458124 -0.015000001
v -0.067372434 0.3411251 -0.015000001
v -0.08468649 0.34389916 -0.015000001
v -0.0757903 0.34026423 -0.015000001
v -0.093008734 0.34169906 -0.015000001
v -0.08286904 0.3393076 -0.015000001
v -0.09970474 0.33959457 -0.015000001
v -0.090521656 0.3372988 -0.015000001
v -0.10869658 0.33586395 -0.015000001
v -0.09932213 0.33404645 -0.015000001
v -0.11520135 0.33203766 -0.015000001
v -0.10783571 0.33041152 -0.015000001
v -0.12218435 0.32668087 -0.015000001
v -0.11529696 0.3271591 -0.015000001
v -0.12763686 0.32141966 -0.015000001
v -0.12065387 0.32467198 -0.015000001
v -0.12811512 0.3193152 -0.015000001
v 0.0660234 0.3532413 -0.015000001
v 0.04539321 0.34768143 -0.015000001
v 0.058694977 0.3463739 -0.015000001
v 0.034743708 0.33619118 -0.015000001
v 0.048831645 0.33780095 -0.015000001
v 0.02390731 0.3268496 -0.015000001
v 0.040811874 0.33097953 -0.015000001
v 0.013444713 0.32040375 -0.015000001
v 0.030395394 0.32291374 -0.015000001
v 0.0019544694 0.31461197 -0.015000001
v 0.017311288 0.31402823 -0.015000001
v -0.0091621755 0.31040817 -0.015000001
v 0.005972533 0.30712324 -0.015000001
v -0.022592494 0.3049427 -0.015000001
v -0.012343967 0.29883718 -0.015000001
v -0.028988814 0.30138117 -0.015000001
v -0.02426424 0.2937492 -0.015000001
v -0.036475267 0.29731077 -0.015000001
v -0.03974606 0.28858864 -0.015000001
v -0.047377937 0.29055116 -0.015000001
v -0.054573722 0.2870623 -0.015000001
v -0.06685748 0.2799392 -0.015000001
v 0.07550431 0.35440612 -0.015000001
v 0.08848911 0.34570843 -0.015000001
v 0.46346575 0.3031497 -0.015244037
v 0.46548143 0.30785298 -0.015244037
v 0.46628776 0.31309372 -0.015244037
v 0.45889688 0.29804328 -0.015244037
v -0.027575493 0.052152433 -0.01565719
v 0.18365285 0.07282676 -0.01565719
v 0.180943 0.07235258 -0.01565719
v 0.19483073 0.068152405 -0.01565719
v 0.22084479 0.05981977 -0.01565719
v 0.21007328 0.06334247 -0.01565719
v 0.4667569 0.35844553 -0.015244037
v 0.4649261 0.3611085 -0.015244037
v 0.4615972 0.36160785 -0.015244037
v 0.45843488 0.36060926 -0.015244037
v 0.43796262 0.34712747 -0.015244037
v 0.4434432 0.28541166 -0.015244037
v 0.41603 0.26579234 -0.015244037
v 0.3978503 0.32432505 -0.015244037
v 0.37279537 0.31092653 -0.015244037
v 0.35389298 0.2994644 -0.015244037
v 0.3060337 0.27070865 -0.015244037
v 0.38808128 0.24806643 -0.015244037
v 0.3878902 0.24940422 -0.015244037
v 0.46681935 0.27596876 -0.015244037
v 0.46481267 0.27883542 -0.015244037
v 0.46175486 0.27893102 -0.015244037
v 0.28250632 0.255627 -0.015244037
v 0.26219636 0.24094747 -0.015244037
v 0.25634462 0.2328811 -0.015244037
v 0.2559157 0.22701834 -0.015244037
v 0.2544857 0.21200407 -0.015244037
v 0.25313964 0.19851583 -0.015244037
v 0.25124678 0.18606257 -0.015244037
v 0.4436949 0.2710954 -0.015244037
v 0.46672383 0.2365042 -0.015244037
v 0.462806 0.22971971 -0.015244037
v 0.46576816 0.2334464 -0.015244037
v 0.45869705 0.22685304 -0.015244037
v 0.42601705 0.20869742 -0.015244037
v 0.41139698 0.257622 -0.015244037
v 0.39276347 0.2500731 -0.015244037
v 0.39123473 0.19283521 -0.015244037
v 0.24785952 0.16882741 -0.015244037
v 0.39018354 0.1912107 -0.015244037
v 0.4676046 0.2067106 -0.015244037
v 0.46576816 0.2086019 -0.015244037
v 0.462504 0.20868993 -0.015244037
v 0.24467154 0.15667307 -0.015244037
v 0.4583478 0.16699304 -0.015244037
v 0.4679908 0.17367505 -0.015244037
v 0.4631725 0.16878515 -0.015244037
v 0.46620518 0.17085283 -0.015244037
v 0.4459083 0.20473137 -0.015244037
v 0.42525253 0.19990635 -0.015244037
v 0.42002597 0.15265684 -0.015244037
v 0.40728804 0.19522414 -0.015244037
v 0.38280675 0.13983689 -0.015244037
v 0.39266798 0.1912107 -0.015244037
v 0.36087048 0.13263488 -0.015244037
v 0.2412842 0.14631201 -0.015244037
v 0.36154926 0.13117495 -0.015244037
v 0.23371267 0.13027236 -0.015244037
v 0.44912234 0.13215768 -0.015244037
v 0.44336915 0.117363356 -0.015244037
v 0.45005366 0.12642711 -0.015244037
v 0.45084667 0.12880635 -0.015244037
v 0.4503369 0.13084564 -0.015244037
v 0.4246753 0.102181725 -0.015244037
v 0.4188871 0.13201022 -0.015244037
v 0.37486264 0.13096587 -0.015244037
v 0.40513164 0.09810299 -0.015244037
v 0.42229605 0.10087874 -0.015244037
v 0.38366964 0.094953954 -0.015244037
v 0.30518514 0.085726604 -0.015244037
v 0.32021856 0.08686707 -0.015244037
v 0.21856962 0.11463119 -0.015244037
v 0.1947591 0.09978694 -0.015244037
v 0.24828218 0.056709804 -0.015244037
v 0.24859941 0.057641555 -0.015244037
v 0.36996934 0.05627915 -0.015244037
v 0.37128547 0.058450725 -0.015244037
v 0.36842898 0.0636431 -0.015244037
v 0.33917305 0.041941565 -0.015244037
v 0.34955952 0.070278555 -0.015244037
v 0.36746877 0.054502394 -0.015244037
v 0.37121966 0.060358983 -0.015244037
v 0.37029836 0.062333137 -0.015244037
v 0.33609578 0.041085042 -0.015244037
v 0.3325435 0.041575067 -0.015244037
v 0.3109911 0.082512565 -0.015244037
v 0.30536285 0.046677623 -0.015244037
v 0.307155 0.084067695 -0.015244037
v 0.27751184 0.05158217 -0.015244037
v 0.1701516 0.09052179 -0.015244037
v 0.19461106 0.04996573 -0.015244037
v 0.19570048 0.050636113 -0.015244037
v 0.1995554 0.04845727 -0.015244037
v 0.27329537 0.03816771 -0.015244037
v 0.25862384 0.048901837 -0.015244037
v 0.2257018 0.035467926 -0.015244037
v 0.24784647 0.02493211 -0.015244037
v 0.28313875 0.027433587 -0.015244037
v 0.28384194 0.029449224 -0.015244037
v 0.25668988 0.023981966 -0.015244037
v 0.26852977 0.023908885 -0.015244037
v 0.27496132 0.024274288 -0.015244037
v 0.28140447 0.026168093 -0.015244037
v 0.28304502 0.031089792 -0.015244037
v 0.19947164 0.018707426 -0.015244037
v 0.21179059 0.019210218 -0.015244037
v 0.21572934 0.02365176 -0.015244037
v 0.21472366 0.020802429 -0.015244037
v 0.18279499 0.023232719 -0.015244037
v 0.1882421 0.01937781 -0.015244037
v 0.17349286 0.030523498 -0.015244037
v 0.1631014 0.036389764 -0.015244037
v 0.15472111 0.03999323 -0.015244037
v 0.13707596 0.08245216 -0.015244037
v 0.12337905 0.021724267 -0.015244037
v 0.12790434 0.02080244 -0.015244037
v 0.15203947 0.025327835 -0.015244037
v 0.14122896 0.044937566 -0.015244037
v 0.14273734 0.044853818 -0.015244037
v 0.15170428 0.021724267 -0.015244037
v 0.15237467 0.02331658 -0.015244037
v 0.14902253 0.020634841 -0.015244037
v 0.13452473 0.020132056 -0.015244037
v 0.11809943 0.024238408 -0.015244037
v 0.14156418 0.043596696 -0.015244037
v 0.108964995 0.029098893 -0.015244037
v 0.08925576 0.07418322 -0.015244037
v 0.09874104 0.035467938 -0.015244037
v 0.45315537 0.4376245 -0.01565719
v 0.4515082 0.43927008 -0.01565719
v 0.44853684 0.43858442 -0.01565719
v 0.4548052 0.43419796 -0.01565719
v 0.45658183 0.42924848 -0.01565719
v 0.45785093 0.4220147 -0.01565719
v 0.45912004 0.41249654 -0.01565719
v 0.4595008 0.4058973 -0.01565719
v 0.4411881 0.4333635 -0.01565719
v 0.4223051 0.41786018 -0.01565719
v 0.45886627 0.39853662 -0.01565719
v 0.4534092 0.38876462 -0.01565719
v 0.375986 0.37894246 -0.01565719
v 0.4336114 0.36909387 -0.01565719
v 0.321549 0.3331008 -0.01565719
v 0.38909557 0.32628512 -0.01565719
v 0.34457973 0.2879984 -0.01565719
v 0.29969352 0.3147778 -0.01565719
v 0.26444072 0.28387126 -0.01565719
v 0.2255661 0.25091228 -0.01565719
v 0.33179337 0.24273871 -0.01565719
v 0.35349745 0.2610483 -0.01565719
v 0.3503086 0.27586046 -0.01565719
v 0.35226303 0.25899094 -0.01565719
v 0.34773704 0.2827522 -0.01565719
v 0.2875625 0.21270283 -0.01565719
v 0.19683261 0.2267665 -0.01565719
v 0.1678703 0.20475645 -0.01565719
v 0.36072338 0.24047576 -0.01565719
v 0.35730326 0.24870479 -0.01565719
v 0.35596606 0.24870479 -0.01565719
v 0.33426207 0.23728703 -0.01565719
v 0.3640923 0.21866892 -0.01565719
v 0.36326933 0.23224679 -0.01565719
v 0.3616235 0.20138799 -0.01565719
v 0.29685175 0.17012917 -0.01565719
v 0.34794244 0.19284597 -0.01565719
v 0.32923576 0.1838256 -0.01565719
v 0.14792429 0.18231723 -0.01565719
v 0.14511931 0.17803192 -0.01565719
v 0.15774146 0.19525096 -0.01565719
v 0.15283284 0.18979692 -0.01565719
v 0.16444202 0.20226327 -0.01565719
v 0.16093597 0.19906877 -0.01565719
v 0.114732884 0.15177487 -0.01565719
v 0.10538311 0.14593133 -0.01565719
v 0.22296472 0.09175385 -0.01565719
v 0.1417691 0.17429207 -0.01565719
v 0.13717212 0.17008473 -0.01565719
v 0.26516423 0.12370048 -0.01565719
v 0.12977026 0.16392952 -0.01565719
v 0.122991756 0.15808588 -0.01565719
v 0.36127153 0.18417385 -0.01565719
v 0.36011085 0.18928099 -0.01565719
v 0.34838757 0.18603095 -0.01565719
v 0.36138758 0.16896845 -0.01565719
v 0.3527983 0.14587021 -0.01565719
v 0.32317552 0.13662033 -0.01565719
v 0.3272626 0.17895064 -0.01565719
v 0.3403434 0.14173774 -0.01565719
v 0.30220386 0.13186528 -0.01565719
v 0.279441 0.12706655 -0.01565719
v 0.34095874 0.12418552 -0.01565719
v 0.34166393 0.12910943 -0.01565719
v 0.32342315 0.12820154 -0.01565719
v 0.33143395 0.10964783 -0.01565719
v 0.33761677 0.11733442 -0.01565719
v 0.31840017 0.09795081 -0.01565719
v 0.3042477 0.09642758 -0.01565719
v 0.3083429 0.12706655 -0.01565719
v 0.2916488 0.09530994 -0.01565719
v 0.2806017 0.124629095 -0.01565719
v 0.2767131 0.094395496 -0.01565719
v 0.25923726 0.09337946 -0.01565719
v 0.240339 0.0926682 -0.01565719
v 0.28976357 0.07499126 -0.01565719
v 0.29051194 0.08005651 -0.01565719
v 0.28930315 0.08201353 -0.01565719
v 0.29091483 0.077293634 -0.01565719
v 0.28550416 0.08379788 -0.01565719
v 0.27451023 0.08552468 -0.01565719
v 0.26127145 0.08753931 -0.01565719
v 0.26633674 0.063824646 -0.01565719
v 0.27508578 0.065781645 -0.01565719
v 0.2823959 0.06923526 -0.01565719
v 0.24820545 0.06324902 -0.01565719
v 0.2583935 0.06296124 -0.01565719
v 0.24958687 0.08880561 -0.01565719
v 0.23952614 0.089620166 -0.01565719
v 0.23038176 0.09073781 -0.01565719
v 0.24087398 0.064201914 -0.01565719
v 0.2268741 0.06645872 -0.01565719
v 0.21224117 0.06855878 -0.01565719
v 0.19699861 0.07120086 -0.01565719
v 0.48887417 0.17312704 -0.015244037
v 0.29763088 0.008225847 -0.015244037
v 0.48734495 0.3787557 -0.015244037
v 0.46502382 0.38661495 -0.015244037
v 0.43441796 0.3843597 -0.015244037
v 0.20764911 0.24368258 -0.015244037
v 0.19408146 0.14982228 -0.015244037
v 0.15155542 0.117927685 -0.015244037
v 0.1487345 0.00018287529 -0.015244037
v 0.19076715 -0.0015547572 -0.015244037
v 0.23061728 0.002092489 -0.015244037
v 0.31911954 0.010251558 -0.015244037
v 0.40593234 0.05253767 -0.015244037
v 0.4780428 0.13332911 -0.015244037
v 0.4883944 0.23762988 -0.015244037
v 0.4879015 0.3039154 -0.015244037
v 0.1675774 -0.0011039856 -0.015244037
v 0.48869416 0.45012116 -0.01565719
v 0.42410955 0.45863563 -0.01565719
v 0.16944717 0.24454133 -0.01565719
v 0.34399417 0.085013874 -0.01565719
v 0.396924 0.19235645 -0.01565719
v 0.376538 0.2809241 -0.01565719
v 0.27540725 0.33187053 -0.01565719
v 0.11902119 0.2079016 -0.01565719
v 0.37045908 0.13868515 -0.01565719
v 0.48415956 0.38174304 -0.01565719
vt 0.6274414 0.4321289
vt 0.6616211 0.4387207
vt 0.6611328 0.43041992
vt 0.7680664 0.61035156
vt 0.7680664 0.60058594
vt 0.72753906 0.6015625
vt 0.5527344 0.8364258
vt 0.5786133 0.81396484
vt 0.58251953 0.8027344
vt 0.5839844 0.8208008
vt 0.5839844 0.8178711
vt 0.57910156 0.8979492
vt 0.59375 0.8876953
vt 0.5942383 0.88183594
vt 0.6591797 0.84472656
vt 0.6640625 0.8413086
vt 0.6508789 0.8417969
vt 0.7373047 0.8339844
vt 0.72753906 0.8359375
vt 0.73339844 0.8652344
vt 0.9589844 0.67578125
vt 0.9165039 0.6660156
vt 0.9199219 0.67529297
vt 0.99853516 0.54541016
vt 0.9682617 0.5024414
vt 0.9667969 0.515625
vt 0.62939453 0.40429688
vt 0.67578125 0.4074707
vt 0.6777344 0.4008789
vt 0.7348633 0.8310547
vt 0.71728516 0.83203125
vt 0.71728516 0.8535156
vt 0.75927734 0.82666016
vt 0.7480469 0.8310547
vt 0.76904297 0.82373047
vt 0.7910156 0.84765625
vt 0.7763672 0.8208008
vt 0.79296875 0.8144531
vt 0.78271484 0.8178711
vt 0.80566406 0.8100586
vt 0.8017578 0.81103516
vt 0.6401367 0.8881836
vt 0.81933594 0.8071289
vt 0.8125 0.80810547
vt 0.8256836 0.80566406
vt 0.8515625 0.83740234
vt 0.8623047 0.7915039
vt 0.8540039 0.79589844
vt 0.8354492 0.80322266
vt 0.84472656 0.7998047
vt 0.8701172 0.7861328
vt 0.9013672 0.82128906
vt 0.8803711 0.77734375
vt 0.87597656 0.78125
vt 0.8901367 0.7661133
vt 0.8852539 0.77246094
vt 0.8979492 0.75390625
vt 0.8935547 0.76123047
vt 0.94189453 0.7729492
vt 0.90234375 0.74609375
vt 0.70654297 0.8305664
vt 0.69140625 0.83691406
vt 0.67285156 0.84472656
vt 0.68408203 0.8364258
vt 0.6743164 0.83935547
vt 0.63916016 0.84814453
vt 0.6748047 0.83447266
vt 0.62939453 0.85546875
vt 0.609375 0.9140625
vt 0.62109375 0.8618164
vt 0.61279297 0.87109375
vt 0.60302734 0.8823242
vt 0.59716797 0.8886719
vt 0.6035156 0.87597656
vt 0.5961914 0.86572266
vt 0.5996094 0.84472656
vt 0.5888672 0.8364258
vt 0.60302734 0.8300781
vt 0.59277344 0.83203125
vt 0.60546875 0.8227539
vt 0.6010742 0.8232422
vt 0.6064453 0.8178711
vt 0.59033203 0.82421875
vt 0.59765625 0.81396484
vt 0.58740234 0.81689453
vt 0.6069336 0.7998047
vt 0.59765625 0.80566406
vt 0.6220703 0.78222656
vt 0.6254883 0.7661133
vt 0.6347656 0.7675781
vt 0.64404297 0.75683594
vt 0.6503906 0.73779297
vt 0.6298828 0.7607422
vt 0.6557617 0.7446289
vt 0.66796875 0.73291016
vt 0.6801758 0.7236328
vt 0.671875 0.7207031
vt 0.6982422 0.7128906
vt 0.68896484 0.7089844
vt 0.72216797 0.70166016
vt 0.7182617 0.69677734
vt 0.7006836 0.7026367
vt 0.71240234 0.7060547
vt 0.7324219 0.6972656
vt 0.7495117 0.69140625
vt 0.74072266 0.69189453
vt 0.57421875 0.8491211
vt 0.58935547 0.8334961
vt 0.5966797 0.82421875
vt 0.6020508 0.81689453
vt 0.5966797 0.81933594
vt 0.6064453 0.8105469
vt 0.60009766 0.8154297
vt 0.60498047 0.8100586
vt 0.58740234 0.81103516
vt 0.58984375 0.8041992
vt 0.58496094 0.80615234
vt 0.56396484 0.7529297
vt 0.5449219 0.80322266
vt 0.5878906 0.7919922
vt 0.5996094 0.7714844
vt 0.6123047 0.75097656
vt 0.6245117 0.7319336
vt 0.60546875 0.6870117
vt 0.58154297 0.7236328
vt 0.6347656 0.71875
vt 0.6464844 0.70458984
vt 0.6557617 0.6948242
vt 0.6328125 0.65283203
vt 0.66796875 0.68408203
vt 0.68066406 0.6743164
vt 0.67089844 0.6347656
vt 0.68896484 0.6699219
vt 0.6972656 0.6665039
vt 0.7050781 0.6645508
vt 0.7182617 0.6616211
vt 0.7270508 0.65966797
vt 0.7314453 0.6279297
vt 0.70654297 0.6274414
vt 0.74121094 0.65771484
vt 0.75341797 0.65478516
vt 0.7705078 0.64990234
vt 0.76904297 0.6411133
vt 0.7680664 0.6308594
vt 0.7675781 0.6201172
vt 0.7626953 0.59228516
vt 0.7548828 0.5800781
vt 0.74853516 0.5727539
vt 0.7402344 0.5654297
vt 0.73583984 0.5620117
vt 0.73291016 0.5605469
vt 0.70410156 0.55126953
vt 0.6953125 0.54345703
vt 0.69677734 0.5839844
vt 0.7236328 0.55908203
vt 0.67626953 0.5649414
vt 0.7133789 0.55615234
vt 0.7089844 0.5546875
vt 0.67626953 0.50927734
vt 0.6723633 0.4951172
vt 0.6533203 0.5317383
vt 0.68896484 0.53564453
vt 0.68310547 0.5263672
vt 0.6665039 0.46679688
vt 0.66308594 0.44848633
vt 0.6386719 0.48486328
vt 0.6645508 0.42749023
vt 0.6567383 0.4260254
vt 0.6591797 0.42211914
vt 0.6645508 0.4189453
vt 0.6738281 0.4182129
vt 0.6743164 0.4140625
vt 0.6699219 0.41748047
vt 0.6821289 0.39257812
vt 0.68652344 0.38476562
vt 0.6582031 0.35083008
vt 0.6933594 0.3737793
vt 0.70214844 0.3618164
vt 0.7133789 0.35131836
vt 0.71777344 0.29907227
vt 0.7246094 0.34301758
vt 0.73876953 0.33447266
vt 0.67822266 0.3256836
vt 0.7578125 0.32666016
vt 0.77685547 0.32226562
vt 0.7558594 0.28125
vt 0.7944336 0.31982422
vt 0.8041992 0.27392578
vt 0.81152344 0.31933594
vt 0.8261719 0.31982422
vt 0.84521484 0.32250977
vt 0.8574219 0.27856445
vt 0.8598633 0.32788086
vt 0.91259766 0.30273438
vt 0.87353516 0.33544922
vt 0.88916016 0.34545898
vt 0.95410156 0.34057617
vt 0.90527344 0.359375
vt 0.9199219 0.37402344
vt 0.9824219 0.38500977
vt 0.94628906 0.41186523
vt 0.9550781 0.43066406
vt 0.93359375 0.39086914
vt 0.99853516 0.43139648
vt 0.9638672 0.4543457
vt 0.9667969 0.46850586
vt 0.99853516 0.4909668
vt 0.9682617 0.48535156
vt 0.93603516 0.58154297
vt 0.9291992 0.5883789
vt 0.9536133 0.60498047
vt 0.96435547 0.53125
vt 0.9589844 0.54589844
vt 0.9536133 0.5576172
vt 0.98291016 0.5708008
vt 0.94433594 0.5722656
vt 0.94970703 0.5654297
vt 0.9243164 0.5932617
vt 0.9238281 0.59716797
vt 0.92529297 0.6196289
vt 0.92626953 0.6328125
vt 0.96435547 0.64501953
vt 0.92285156 0.6020508
vt 0.92529297 0.6435547
vt 0.92285156 0.6513672
vt 0.92041016 0.65722656
vt 0.92089844 0.6826172
vt 0.9199219 0.69140625
vt 0.9189453 0.7006836
vt 0.9604492 0.69970703
vt 0.9169922 0.70947266
vt 0.91552734 0.71533203
vt 0.91259766 0.7260742
vt 0.9555664 0.73339844
vt 0.9091797 0.734375
vt 0.90527344 0.74121094
vt 0.5913086 0.80029297
vt 0.5883789 0.8017578
vt 0.59033203 0.7998047
vt 0.61035156 0.60058594
vt 0.61865234 0.60302734
vt 0.62158203 0.5571289
vt 0.51416016 0.5966797
vt 0.52783203 0.5986328
vt 0.5283203 0.59765625
vt 0.6171875 0.6225586
vt 0.63671875 0.6411133
vt 0.49682617 0.6635742
vt 0.54785156 0.62597656
vt 0.5019531 0.6303711
vt 0.6040039 0.5966797
vt 0.5859375 0.5834961
vt 0.5961914 0.5913086
vt 0.5751953 0.58154297
vt 0.5834961 0.58154297
vt 0.5805664 0.59521484
vt 0.58203125 0.59521484
vt 0.58203125 0.59375
vt 0.5776367 0.59228516
vt 0.5673828 0.58203125
vt 0.5800781 0.5908203
vt 0.5776367 0.5864258
vt 0.5527344 0.578125
vt 0.47705078 0.5620117
vt 0.5522461 0.57958984
vt 0.54248047 0.5830078
vt 0.55078125 0.5854492
vt 0.56347656 0.5942383
vt 0.5205078 0.58154297
vt 0.5332031 0.58203125
vt 0.5644531 0.5932617
vt 0.4777832 0.57714844
vt 0.4777832 0.58203125
vt 0.4897461 0.5839844
vt 0.5019531 0.5854492
vt 0.5083008 0.5913086
vt 0.52001953 0.5839844
vt 0.52001953 0.5830078
vt 0.45776367 0.5776367
vt 0.47265625 0.58203125
vt 0.4716797 0.59765625
vt 0.46972656 0.5859375
vt 0.47094727 0.5834961
vt 0.45898438 0.56347656
vt 0.44970703 0.56152344
vt 0.5961914 0.0501709
vt 0.58740234 0.022949219
vt 0.57666016 0.050445557
vt 0.40625 0.031402588
vt 0.44482422 0.05102539
vt 0.44580078 0.0496521
vt 0.44555664 0.053375244
vt 0.4489746 0.05630493
vt 0.5029297 0.18933105
vt 0.53808594 0.14953613
vt 0.5205078 0.15124512
vt 0.5019531 0.15795898
vt 0.48535156 0.16467285
vt 0.5541992 0.14929199
vt 0.56933594 0.14990234
vt 0.57666016 0.15063477
vt 0.58691406 0.1529541
vt 0.6069336 0.1574707
vt 0.6176758 0.15917969
vt 0.6738281 0.18774414
vt 0.63427734 0.14916992
vt 0.63720703 0.15979004
vt 0.6352539 0.1116333
vt 0.6333008 0.13110352
vt 0.63671875 0.09442139
vt 0.6743164 0.066711426
vt 0.6323242 0.06738281
vt 0.6386719 0.07611084
vt 0.64208984 0.022079468
vt 0.62402344 0.060638428
vt 0.61035156 0.050811768
vt 0.60498047 0.05355835
vt 0.60498047 0.051086426
vt 0.60595703 0.05697632
vt 0.5991211 0.054840088
vt 0.6035156 0.061340332
vt 0.6088867 0.067993164
vt 0.54785156 0.02381897
vt 0.58154297 0.068115234
vt 0.5786133 0.059448242
vt 0.57666016 0.051727295
vt 0.5805664 0.0680542
vt 0.5678711 0.059387207
vt 0.5776367 0.0657959
vt 0.55615234 0.053222656
vt 0.55810547 0.053649902
vt 0.5419922 0.051574707
vt 0.5263672 0.049560547
vt 0.515625 0.048675537
vt 0.46142578 0.02470398
vt 0.49780273 0.053955078
vt 0.50683594 0.054229736
vt 0.51660156 0.050445557
vt 0.4880371 0.05429077
vt 0.51416016 0.054901123
vt 0.5229492 0.05633545
vt 0.5234375 0.05355835
vt 0.5283203 0.057922363
vt 0.53271484 0.05923462
vt 0.53222656 0.05731201
vt 0.53808594 0.060821533
vt 0.45581055 0.050048828
vt 0.46240234 0.052734375
vt 0.4494629 0.04940796
vt 0.48364258 0.05593872
vt 0.48535156 0.054718018
vt 0.46948242 0.05545044
vt 0.47827148 0.059753418
vt 0.48364258 0.05758667
vt 0.4873047 0.06359863
vt 0.48535156 0.059906006
vt 0.4946289 0.06567383
vt 0.47021484 0.074157715
vt 0.47558594 0.07531738
vt 0.47583008 0.07458496
vt 0.47265625 0.07208252
vt 0.45336914 0.06903076
vt 0.46362305 0.07208252
vt 0.4645996 0.06677246
vt 0.45629883 0.061645508
vt 0.4411621 0.06524658
vt 0.4284668 0.061645508
vt 0.41601562 0.059387207
vt 0.39990234 0.059326172
vt 0.40698242 0.05859375
vt 0.39379883 0.062194824
vt 0.38964844 0.06677246
vt 0.3972168 0.068725586
vt 0.3935547 0.065979004
vt 0.38110352 0.064331055
vt 0.3930664 0.06365967
vt 0.3725586 0.06213379
vt 0.3630371 0.06008911
vt 0.35253906 0.058380127
vt 0.34643555 0.057739258
vt 0.3408203 0.057891846
vt 0.3017578 0.05368042
vt 0.32836914 0.06549072
vt 0.32861328 0.06384277
vt 0.3317871 0.06072998
vt 0.33666992 0.058807373
vt 0.32958984 0.06713867
vt 0.33251953 0.06945801
vt 0.7241211 0.828125
vt 0.73339844 0.8232422
vt 0.71875 0.8256836
vt 0.7441406 0.8178711
vt 0.73046875 0.82177734
vt 0.6894531 0.82666016
vt 0.6694336 0.82714844
vt 0.70214844 0.8198242
vt 0.68359375 0.81884766
vt 0.71435547 0.8149414
vt 0.6953125 0.8120117
vt 0.73291016 0.8095703
vt 0.7109375 0.80615234
vt 0.74609375 0.80615234
vt 0.72753906 0.80029297
vt 0.7602539 0.80322266
vt 0.7441406 0.796875
vt 0.76953125 0.8017578
vt 0.7578125 0.7949219
vt 0.77978516 0.7993164
vt 0.77001953 0.7939453
vt 0.7895508 0.7973633
vt 0.7792969 0.79296875
vt 0.7993164 0.7944336
vt 0.78759766 0.7919922
vt 0.8066406 0.7919922
vt 0.7963867 0.7895508
vt 0.81689453 0.78808594
vt 0.80615234 0.78564453
vt 0.82470703 0.7836914
vt 0.81591797 0.7817383
vt 0.83251953 0.77734375
vt 0.82470703 0.77783203
vt 0.8388672 0.7714844
vt 0.8310547 0.77490234
vt 0.83935547 0.76904297
vt 0.6171875 0.8076172
vt 0.640625 0.80126953
vt 0.6254883 0.7998047
vt 0.65283203 0.78808594
vt 0.63671875 0.79003906
vt 0.66503906 0.77783203
vt 0.6459961 0.78222656
vt 0.6772461 0.77001953
vt 0.65771484 0.7729492
vt 0.6904297 0.7636719
vt 0.67285156 0.7626953
vt 0.703125 0.75878906
vt 0.6855469 0.7548828
vt 0.7182617 0.7524414
vt 0.70654297 0.74560547
vt 0.72558594 0.74853516
vt 0.72021484 0.7397461
vt 0.734375 0.74365234
vt 0.73828125 0.7338867
vt 0.7470703 0.73583984
vt 0.7548828 0.7319336
vt 0.76904297 0.7241211
vt 0.60595703 0.80908203
vt 0.5913086 0.7993164
vt 0.045898438 0.8955078
vt 0.04360962 0.9008789
vt 0.04269409 0.9067383
vt 0.051116943 0.88964844
vt 0.62402344 0.06378174
vt 0.38305664 0.087402344
vt 0.38623047 0.08685303
vt 0.37036133 0.08203125
vt 0.3408203 0.0725708
vt 0.35302734 0.076538086
vt 0.042144775 0.9584961
vt 0.04425049 0.9614258
vt 0.048034668 0.96191406
vt 0.051635742 0.9609375
vt 0.07495117 0.9453125
vt 0.068725586 0.875
vt 0.099975586 0.85302734
vt 0.120666504 0.9194336
vt 0.14929199 0.9042969
vt 0.17077637 0.8911133
vt 0.2253418 0.85839844
vt 0.13183594 0.83251953
vt 0.13208008 0.8339844
vt 0.04208374 0.8642578
vt 0.04437256 0.8676758
vt 0.047851562 0.8676758
vt 0.25219727 0.8413086
vt 0.27539062 0.82470703
vt 0.28198242 0.8154297
vt 0.2824707 0.80859375
vt 0.2841797 0.7915039
vt 0.28564453 0.7763672
vt 0.2878418 0.76171875
vt 0.06842041 0.8588867
vt 0.04220581 0.81933594
vt 0.046661377 0.81152344
vt 0.043273926 0.81591797
vt 0.051330566 0.80859375
vt 0.08856201 0.78759766
vt 0.10522461 0.8432617
vt 0.12646484 0.83496094
vt 0.1282959 0.76953125
vt 0.29174805 0.7421875
vt 0.12939453 0.7675781
vt 0.04119873 0.78564453
vt 0.043273926 0.78759766
vt 0.04699707 0.78759766
vt 0.29516602 0.7285156
vt 0.051757812 0.7402344
vt 0.040740967 0.7480469
vt 0.04623413 0.7421875
vt 0.042785645 0.7446289
vt 0.06591797 0.7832031
vt 0.08947754 0.77783203
vt 0.09539795 0.7236328
vt 0.10992432 0.77246094
vt 0.13781738 0.70947266
vt 0.12658691 0.7675781
vt 0.1628418 0.7011719
vt 0.29907227 0.7167969
vt 0.16210938 0.69921875
vt 0.30786133 0.6982422
vt 0.06225586 0.7006836
vt 0.06878662 0.68359375
vt 0.061187744 0.69384766
vt 0.060302734 0.69677734
vt 0.06085205 0.69921875
vt 0.090148926 0.6665039
vt 0.09674072 0.7001953
vt 0.14685059 0.69921875
vt 0.11236572 0.6616211
vt 0.09283447 0.66503906
vt 0.13684082 0.6582031
vt 0.22631836 0.64746094
vt 0.20922852 0.6489258
vt 0.32495117 0.68066406
vt 0.35229492 0.6635742
vt 0.29125977 0.6142578
vt 0.29077148 0.61572266
vt 0.15246582 0.6142578
vt 0.15100098 0.6166992
vt 0.1541748 0.6225586
vt 0.18762207 0.59765625
vt 0.17578125 0.6298828
vt 0.15527344 0.6118164
vt 0.15100098 0.61865234
vt 0.15209961 0.62109375
vt 0.19104004 0.5966797
vt 0.19519043 0.59716797
vt 0.21972656 0.64404297
vt 0.22607422 0.60302734
vt 0.22399902 0.6455078
vt 0.2578125 0.6088867
vt 0.38012695 0.65283203
vt 0.35229492 0.6069336
vt 0.35107422 0.6074219
vt 0.3466797 0.60498047
vt 0.2626953 0.5932617
vt 0.27929688 0.60546875
vt 0.31689453 0.59033203
vt 0.29174805 0.578125
vt 0.25146484 0.5810547
vt 0.25073242 0.5834961
vt 0.28149414 0.57714844
vt 0.2680664 0.57714844
vt 0.2607422 0.5776367
vt 0.25341797 0.57958984
vt 0.25146484 0.5854492
vt 0.3466797 0.57128906
vt 0.33276367 0.57177734
vt 0.32836914 0.57666016
vt 0.3293457 0.57373047
vt 0.36572266 0.5761719
vt 0.35961914 0.57177734
vt 0.37646484 0.58447266
vt 0.3881836 0.5913086
vt 0.39770508 0.59521484
vt 0.41796875 0.64404297
vt 0.43359375 0.57470703
vt 0.4284668 0.57373047
vt 0.4008789 0.5786133
vt 0.41308594 0.6010742
vt 0.41137695 0.6010742
vt 0.40112305 0.57470703
vt 0.40039062 0.57666016
vt 0.40429688 0.5732422
vt 0.42089844 0.5727539
vt 0.43945312 0.5776367
vt 0.4128418 0.5996094
vt 0.44995117 0.5830078
vt 0.4724121 0.63427734
vt 0.46166992 0.59033203
vt 0.075927734 0.5029297
vt 0.077819824 0.5048828
vt 0.08117676 0.50439453
vt 0.074035645 0.49926758
vt 0.072021484 0.49365234
vt 0.07055664 0.48535156
vt 0.0690918 0.47460938
vt 0.06866455 0.46704102
vt 0.089538574 0.49829102
vt 0.111083984 0.4807129
vt 0.06939697 0.4584961
vt 0.07562256 0.44750977
vt 0.16381836 0.4362793
vt 0.09820557 0.42504883
vt 0.22595215 0.3840332
vt 0.14892578 0.3762207
vt 0.19970703 0.33251953
vt 0.25073242 0.3630371
vt 0.29101562 0.32788086
vt 0.33520508 0.2902832
vt 0.2142334 0.28100586
vt 0.18945312 0.30200195
vt 0.19311523 0.31884766
vt 0.19091797 0.29956055
vt 0.19604492 0.32666016
vt 0.26464844 0.24682617
vt 0.36816406 0.26293945
vt 0.40112305 0.23779297
vt 0.18127441 0.27856445
vt 0.18518066 0.2878418
vt 0.18664551 0.2878418
vt 0.21142578 0.27490234
vt 0.17749023 0.2536621
vt 0.17834473 0.26904297
vt 0.18029785 0.23388672
vt 0.2541504 0.19824219
vt 0.19580078 0.2241211
vt 0.21716309 0.21386719
vt 0.42382812 0.2121582
vt 0.42700195 0.20727539
vt 0.41259766 0.22692871
vt 0.4182129 0.22070312
vt 0.4050293 0.23486328
vt 0.40893555 0.23132324
vt 0.46166992 0.17736816
vt 0.4724121 0.1706543
vt 0.3383789 0.108947754
vt 0.4309082 0.20300293
vt 0.43603516 0.19824219
vt 0.2902832 0.14538574
vt 0.44458008 0.19116211
vt 0.45214844 0.18457031
vt 0.18066406 0.2142334
vt 0.18200684 0.22009277
vt 0.1953125 0.21643066
vt 0.18054199 0.19689941
vt 0.19030762 0.1706543
vt 0.2241211 0.16003418
vt 0.21936035 0.20837402
vt 0.20446777 0.16589355
vt 0.2479248 0.15466309
vt 0.27392578 0.14916992
vt 0.20373535 0.14587402
vt 0.20300293 0.15148926
vt 0.22375488 0.1505127
vt 0.21459961 0.12939453
vt 0.2076416 0.13806152
vt 0.22949219 0.11602783
vt 0.24560547 0.11425781
vt 0.2409668 0.14916992
vt 0.26000977 0.112976074
vt 0.27270508 0.1463623
vt 0.2770996 0.11193848
vt 0.296875 0.11077881
vt 0.31835938 0.10998535
vt 0.26220703 0.08984375
vt 0.26123047 0.095581055
vt 0.2626953 0.097839355
vt 0.2607422 0.09246826
vt 0.26708984 0.099853516
vt 0.27954102 0.101867676
vt 0.29467773 0.10412598
vt 0.28881836 0.0770874
vt 0.2788086 0.0793457
vt 0.2705078 0.08325195
vt 0.3095703 0.07647705
vt 0.29785156 0.07611084
vt 0.30786133 0.10559082
vt 0.31933594 0.10650635
vt 0.32983398 0.107788086
vt 0.3178711 0.07751465
vt 0.33374023 0.08013916
vt 0.35058594 0.08251953
vt 0.36791992 0.085510254
vt 0.016967773 0.7470703
vt 0.23498535 0.55908203
vt 0.018707275 0.9814453
vt 0.044128418 0.99072266
vt 0.07904053 0.98779297
vt 0.33740234 0.8276367
vt 0.35302734 0.7207031
vt 0.4013672 0.68408203
vt 0.40454102 0.55029297
vt 0.35668945 0.54833984
vt 0.3112793 0.5522461
vt 0.21044922 0.56152344
vt 0.11151123 0.6098633
vt 0.029296875 0.70166016
vt 0.017501831 0.8208008
vt 0.018066406 0.8964844
vt 0.38305664 0.5488281
vt 0.03540039 0.5175781
vt 0.10900879 0.52734375
vt 0.39916992 0.28320312
vt 0.20031738 0.101257324
vt 0.14001465 0.22363281
vt 0.16320801 0.3244629
vt 0.27856445 0.38256836
vt 0.4567871 0.24133301
vt 0.17016602 0.16247559
vt 0.04058838 0.43945312
vn -0 0 -1
vn -0 0 -1
vn -0 0 -1
vn -0 0 -1
vn -0 0 -1
vn -0 0 -1
vn -0 0 -1
vn -0 0 -1
vn -0 0 -1
vn -0 0 -1
vn -0 0 -1
vn -0 0 -1
vn -0 0 -1
vn -0 0 -1
vn -0 0 -1
vn -0 0 -1
vn -0 0 -1
vn -0 0 -1
vn -0 0 -1
vn -0 0 -1
vn -0 0 -1
vn -0 0 -1
vn -0 0 -1
vn -0 0 -1
vn -0 0 -1
vn -0 0 -1
vn -0 0 -1
vn -0 0 -1
vn -0 0 -1
vn -0 0 -1
vn -0 0 -1
vn -0 0 -1
vn -0 0 -1
vn -0 0 -1
vn -0 0 -1
vn -0 0 -1
vn -0 0 -1
vn -0 0 -1
vn -0 0 -1
vn -0 0 -1
vn -0 0 -1
vn -0 0 -1
vn -0 0 -1
vn -0 0 -1
vn -0 0 -1
vn -0 0 -1
vn -0 0 -1
vn -0 0 -1
vn -0 0 -1
vn -0 0 -1
vn -0 0 -1
vn -0 0 -1
vn -0 0 -1
vn -0 0 -1
vn -0 0 -1
vn -0 0 -1
vn -0 0 -1
vn -0 0 -1
vn -0 0 -1
vn -0 0 -1
vn -0 0 -1
vn -0 0 -1
vn -0 0 -1
vn -0 0 -1
vn -0 0 -1
vn -0 0 -1
vn -0 0 -1
vn -0 0 -1
vn -0 0 -1
vn -0 0 -1
vn -0 0 -1
vn -0 0 -1
vn -0 0 -1
vn -0 0 -1
vn -0 0 -1
vn -0 0 -1
vn -0 0 -1
vn -0 0 -1
vn -0 0 -1
vn -0 0 -1
vn -0 0 -1
vn -0 0 -1
vn -0 0 -1
vn -0 0 -1
vn -0 0 -1
vn -0 0 -1
vn -0 0 -1
vn -0 0 -1
vn -0 0 -1
vn -0 0 -1
vn -0 0 -1
vn -0 0 -1
vn -0 0 -1
vn -0 0 -1
vn -0 0 -1
vn -0 0 -1
vn -0 0 -1
vn -0 0 -1
vn -0 0 -1
vn -0 0 -1
vn -0 0 -1
vn -0 0 -1
vn -0 0 -1
vn -0 0 -1
vn -0 0 -1
vn -0 0 -1
vn -0 0 -1
vn -0 0 -1
vn -0 0 -1
vn -0 0 -1
vn -0 0 -1
vn -0 0 -1
vn -0 0 -1
vn -0 0 -1
vn -0 0 -1
vn -0 0 -1
vn -0 0 -1
vn -0 0 -1
vn -0 0 -1
vn -0 0 -1
vn -0 0 -1
vn -0 0 -1
vn -0 0 -1
vn -0 0 -1
vn -0 0 -1
vn -0 0 -1
vn -0 0 -1
vn -0 0 -1
vn -0 0 -1
vn -0 0 -1
vn -0 0 -1
vn -0 0 -1
vn -0 0 -1
vn -0 0 -1
vn -0 0 -1
vn -0 0 -1
vn -0 0 -1
vn -0 0 -1
vn -0 0 -1
vn -0 0 -1
vn -0 0 -1
vn -0 0 -1
vn -0 0 -1
vn -0 0 -1
vn -0 0 -1
vn -0 0 -1
vn -0 0 -1
vn -0 0 -1
vn -0 0 -1
vn -0 0 -1
vn -0 0 -1
vn -0 0 -1
vn -0 0 -1
vn -0 0 -1
vn -0 0 -1
vn -0 0 -1
vn -0 0 -1
vn -0 0 -1
vn -0 0 -1
vn -0 0 -1
vn -0 0 -1
vn -0 0 -1
vn -0 0 -1
vn -0 0 -1
vn -0 0 -1
vn -0 0 -1
vn -0 0 -1
vn -0 0 -1
vn -0 0 -1
vn -0 0 -1
vn -0 0 -1
vn -0 0 -1
vn -0 0 -1
vn -0 0 -1
vn -0 0 -1
vn -0 0 -1
vn -0 0 -1
vn -0 0 -1
vn -0 0 -1
vn -0 0 -1
vn -0 0 -1
vn -0 0 -1
vn -0 0 -1
vn -0 0 -1
vn -0 0 -1
vn -0 0 -1
vn -0 0 -1
vn -0 0 -1
vn -0 0 -1
vn -0 0 -1
vn -0 0 -1
vn -0 0 -1
vn -0 0 -1
vn -0 0 -1
vn -0 0 -1
vn -0 0 -1
vn -0 0 -1
vn -0 0 -1
vn -0 0 -1
vn -0 0 -1
vn -0 0 -1
vn -0 0 -1
vn -0 0 -1
vn -0 0 -1
vn -0 0 -1
vn -0 0 -1
vn -0 0 -1
vn -0 0 -1
vn -0 0 -1
vn -0 0 -1
vn -0 0 -1
vn -0 0 -1
vn -0 0 -1
vn -0 0 -1
vn -0 0 -1
vn -0 0 -1
vn -0 0 -1
vn -0 0 -1
vn -0 0 -1
vn -0 0 -1
vn -0 0 -1
vn -0 0 -1
vn -0 0 -1
vn -0 0 -1
vn -0 0 -1
vn -0 0 -1
vn -0 0 -1
vn -0 0 -1
vn -0 0 -1
vn -0 0 -1
vn -0 0 -1
vn -0 0 -1
vn -0 0 -1
vn -0 0 -1
vn -0 0 -1
vn -0 0 -1
vn -0 0 -1
vn -0 0 -1
vn -0 0 -1
vn -0 0 -1
vn -0 0 -1
vn -0 0 -1
vn -0 0 -1
vn -0 0 -1
vn -0 0 -1
vn -0 0 -1
vn -0 0 -1
vn -0 0 -1
vn -0 0 -1
vn -0 0 -1
vn -0 0 -1
vn -0 0 -1
vn -0 0 -1
vn -0 0 -1
vn -0 0 -1
vn -0 0 -1
vn -0 0 -1
vn -0 0 -1
vn -0 0 -1
vn -0 0 -1
vn -0 0 -1
vn -0 0 -1
vn -0 0 -1
vn -0 0 -1
vn -0 0 -1
vn -0 0 -1
vn -0 0 -1
vn -0 0 -1
vn -0 0 -1
vn -0 0 -1
vn -0 0 -1
vn -0 0 -1
vn -0 0 -1
vn -0 0 -1
vn -0 0 -1
vn -0 0 -1
vn -0 0 -1
vn -0 0 -1
vn -0 0 -1
vn -0 0 -1
vn -0 0 -1
vn -0 0 -1
vn -0 0 -1
vn -0 0 -1
vn -0 0 -1
vn -0 0 -1
vn -0 0 -1
vn -0 0 -1
vn -0 0 -1
vn -0 0 -1
vn -0 0 -1
vn -0 0 -1
vn -0 0 -1
vn -0 0 -1
vn -0 0 -1
vn -0 0 -1
vn -0 0 -1
vn -0 0 -1
vn -0 0 -1
vn -0 0 -1
vn -0 0 -1
vn -0 0 -1
vn -0 0 -1
vn -0 0 -1
vn -0 0 -1
vn -0 0 -1
vn -0 0 -1
vn -0 0 -1
vn -0 0 -1
vn -0 0 -1
vn -0 0 -1
vn -0 0 -1
vn -0 0 -1
vn -0 0 -1
vn -0 0 -1
vn -0 0 -1
vn -0 0 -1
vn -0 0 -1
vn -0 0 -1
vn -0 0 -1
vn -0 0 -1
vn -0 0 -1
vn -0 0 -1
vn -0 0 -1
vn -0 0 -1
vn -0 0 -1
vn -0 0 -1
vn -0 0 -1
vn -0 0 -1
vn -0 0 -1
vn -0 0 -1
vn -0 0 -1
vn -0 0 -1
vn -0 0 -1
vn -0 0 -1
vn -0 0 -1
vn -0 0 -1
vn -0 0 -1
vn -0 0 -1
vn -0 0 -1
vn -0 0 -1
vn -0 0 -1
vn -0 0 -1
vn -0 0 -1
vn -0 0 -1
vn -0 0 -1
vn -0 0 -1
vn -0 0 -1
vn -0 0 -1
vn -0 0 -1
vn -0 0 -1
vn -0 0 -1
vn -0 0 -1
vn -0 0 -1
vn -0 0 -1
vn -0 0 -1
vn -0 0 -1
vn -0 0 -1
vn -0 0 -1
vn -0 0 -1
vn -0 0 -1
vn -0 0 -1
vn -0 0 -1
vn -0 0 -1
vn -0 0 -1
vn -0 0 -1
vn -0 0 -1
vn -0 0 -1
vn -0 0 -1
vn -0 0 -1
vn -0 0 -1
vn -0 0 -1
vn -0 0 -1
vn -0 0 -1
vn -0 0 -1
vn -0 0 -1
vn -0 0 -1
vn -0 0 -1
vn -0 0 -1
vn -0 0 -1
vn -0 0 -1
vn -0 0 -1
vn -0 0 -1
vn -0 0 -1
vn -0 0 -1
vn -0 0 -1
vn -0 0 -1
vn -0 0 -1
vn -0 0 -1
vn -0 0 -1
vn -0 0 -1
vn -0 0 -1
vn -0 0 -1
vn -0 0 -1
vn -0 0 -1
vn -0 0 -1
vn -0 0 -1
vn -0 0 -1
vn -0 0 -1
vn -0 0 -1
vn -0 0 -1
vn -0 0 -1
vn -0 0 -1
vn -0 0 -1
vn -0 0 -1
vn -0 0 -1
vn -0 0 -1
vn -0 0 -1
vn -0 0 -1
vn -0 0 -1
vn -0 0 -1
vn -0 0 -1
vn -0 0 -1
vn -0 0 -1
vn -0 0 -1
vn -0 0 -1
vn -0 0 -1
vn -0 0 -1
vn -0 0 -1
vn -0 0 -1
vn -0 0 -1
vn -0 0 -1
vn -0 0 -1
vn -0 0 -1
vn -0 0 -1
vn -0 0 -1
vn -0 0 -1
vn -0 0 -1
vn -0 0 -1
vn -0 0 -1
vn -0 0 -1
vn -0 0 -1
vn -0 0 -1
vn -0 0 -1
vn -0 0 -1
vn -0 0 -1
vn -0 0 -1
vn -0 0 -1
vn -0 0 -1
vn -0 0 -1
vn -0 0 -1
vn -0 0 -1
vn -0 0 -1
vn -0 0 -1
vn -0 0 -1
vn -0 0 -1
vn -0 0 -1
vn -0 0 -1
vn -0 0 -1
vn -0 0 -1
vn -0 0 -1
vn -0 0 -1
vn -0 0 -1
vn -0 0 -1
vn -0 0 -1
vn -0 0 -1
vn -0 0 -1
vn -0 0 -1
vn -0 0 -1
vn -0 0 -1
vn -0 0 -1
vn -0 0 -1
vn -0 0 -1
vn -0 0 -1
vn -0 0 -1
vn -0 0 -1
vn -0 0 -1
vn -0 0 -1
vn -0 0 -1
vn -0 0 -1
vn -0 0 -1
vn -0 0 -1
vn -0 0 -1
vn -0 0 -1
vn -0 0 -1
vn -0 0 -1
vn -0 0 -1
vn -0 0 -1
vn -0 0 -1
vn -0 0 -1
vn -0 0 -1
vn -0 0 -1
vn -0 0 -1
vn -0 0 -1
vn -0 0 -1
vn -0 0 -1
vn -0 0 -1
vn -0 0 -1
vn -0 0 -1
vn -0 0 -1
vn -0 0 -1
vn -0 0 -1
vn -0 0 -1
vn -0 0 -1
vn -0 0 -1
vn -0 0 -1
vn -0 0 -1
vn -0 0 -1
vn -0 0 -1
vn -0 0 -1
vn -0 0 -1
vn -0 0 -1
vn -0 0 -1
vn -0 0 -1
vn -0 0 -1
vn -0 0 -1
vn -0 0 -1
vn -0 0 -1
vn -0 0 -1
vn -0 0 -1
vn -0 0 -1
vn -0 0 -1
vn -0 0 -1
vn -0 0 -1
vn -0 0 -1
vn -0 0 -1
vn -0 0 -1
vn -0 0 -1
vn -0 0 -1
vn -0 0 -1
vn -0 0 -1
vn -0 0 -1
vn -0 0 -1
vn -0 0 -1
vn -0 0 -1
vn -0 0 -1
vn -0 0 -1
vn -0 0 -1
vn -0 0 -1
vn -0 0 -1
vn -0 0 -1
vn -0 0 -1
vn -0 0 -1
vn -0 0 -1
vn -0 0 -1
vn -0 0 -1
vn -0 0 -1
vn -0 0 -1
vn -0 0 -1
vn -0 0 -1
vn -0 0 -1
vn -0 0 -1
vn -0 0 -1
vn -0 0 -1
vn -0 0 -1
vn -0 0 -1
vn -0 0 -1
vn -0 0 -1
vn -0 0 -1
vn -0 0 -1
vn -0 0 -1
vn -0 0 -1
vn -0 0 -1
vn -0 0 -1
vn -0 0 -1
vn -0 0 -1
vn -0 0 -1
vn -0 0 -1
vn -0 0 -1
vn -0 0 -1
vn -0 0 -1
vn -0 0 -1
vn -0 0 -1
vn -0 0 -1
vn -0 0 -1
vn -0 0 -1
vn -0 0 -1
vn -0 0 -1
vn -0 0 -1
vn -0 0 -1
vn -0 0 -1
vn -0 0 -1
vn -0 0 -1
vn -0 0 -1
vn -0 0 -1
vn -0 0 -1
vn -0 0 -1
vn -0 0 -1
vn -0 0 -1
vn -0 0 -1
vn -0 0 -1
vn -0 0 -1
vn -0 0 -1
vn -0 0 -1
vn -0 0 -1
vn -0 0 -1
vn -0 0 -1
vn -0 0 -1
vn -0 0 -1
vn -0 0 -1
vn -0 0 -1
vn -0 0 -1
vn -0 0 -1
vn -0 0 -1
vn -0 0 -1
vn -0 0 -1
vn -0 0 -1
vn -0 0 -1
vn -0 0 -1
vn -0 0 -1
vn -0 0 -1
vn -0 0 -1
vn -0 0 -1
vn -0 0 -1
vn -0 0 -1
vn -0 0 -1
vn -0 0 -1
vn -0 0 -1
vn -0 0 -1
vn -0 0 -1
vn -0 0 -1
vn -0 0 -1
vn -0 0 -1
vn -0 0 -1
vn -0 0 -1
vn -0 0 -1
vn -0 0 -1
vn -0 0 -1
vn -0 0 -1
vn -0 0 -1
vn -0 0 -1
vn -0 0 -1
vn -0 0 -1
vn -0 0 -1
vn -0 0 -1
vn -0 0 -1
vn -0 0 -1
vn -0 0 -1
vn -0 0 -1
vn -0 0 -1
vn -0 0 -1
vn -0 0 -1
vn -0 0 -1
vn -0 0 -1
vn -0 0 -1
vn -0 0 -1
vn -0 0 -1
vn -0 0 -1
vn -0 0 -1
vn -0 0 -1
vn -0 0 -1
vn -0 0 -1
vn -0 0 -1
vn -0 0 -1
vn -0 0 -1
vn -0 0 -1
vn -0 0 -1
vn -0 0 -1
vn -0 0 -1
vn -0 0 -1
vn -0 0 -1
vn -0 0 -1
vn -0 0 -1
vn -0 0 -1
vn -0 0 -1
vn -0 0 -1
vn -0 0 -1
vn -0 0 -1
vn -0 0 -1
vn -0 0 -1
vn -0 0 -1
vn -0 0 -1
vn -0 0 -1
vn -0 0 -1
vn -0 0 -1
vn -0 0 -1
vn -0 0 -1
vn -0 0 -1
vn -0 0 -1
vn -0 0 -1
vn -0 0 -1
vn -0 0 -1
vn -0 0 -1
vn -0 0 -1
vn -0 0 -1
vn -0 0 -1
vn -0 0 -1
vn -0 0 -1
vn -0 0 -1
vn -0 0 -1
vn -0 0 -1
vn -0 0 -1
vn -0 0 -1
vn -0 0 -1
vn -0 0 -1
vn -0 0 -1
vn -0 0 -1
vn -0 0 -1
vn -0 0 -1
vn -0 0 -1
vn -0 0 -1
vn -0 0 -1
vn -0 0 -1
vn -0 0 -1
vn -0 0 -1
vn -0 0 -1
vn -0 0 -1
vn -0 0 -1
vn -0 0 -1
vn -0 0 -1
vn -0 0 -1
g cPK_10_002720_00_PIGEOTex_RR_L_SB_0
f 3/3/3 2/2/2 1/1/1
f 6/6/6 5/5/5 4/4/4
f 9/9/9 8/8/8 7/7/7
f 8/8/8 11/11/11 10/10/10
f 14/14/14 13/13/13 12/12/12
f 17/17/17 16/16/16 15/15/15
f 20/20/20 19/19/19 18/18/18
f 23/23/23 22/22/22 21/21/21
f 26/26/26 25/25/25 24/24/24
f 29/29/29 28/28/28 27/27/27
f 31/31/31 30/30/30 19/19/19
f 20/20/20 32/32/32 19/19/19
f 20/20/20 34/34/34 33/33/33
f 20/20/20 18/18/18 34/34/34
f 36/36/36 20/20/20 35/35/35
f 20/20/20 33/33/33 35/35/35
f 36/36/36 35/35/35 37/37/37
f 36/36/36 39/39/39 38/38/38
f 36/36/36 37/37/37 39/39/39
f 36/36/36 41/41/41 40/40/40
f 36/36/36 38/38/38 41/41/41
f 42/42/42 31/31/31 19/19/19
f 32/32/32 42/42/42 19/19/19
f 36/36/36 44/44/44 43/43/43
f 36/36/36 40/40/40 44/44/44
f 46/46/46 36/36/36 45/45/45
f 36/36/36 43/43/43 45/45/45
f 46/46/46 48/48/48 47/47/47
f 46/46/46 45/45/45 49/49/49
f 46/46/46 49/49/49 50/50/50
f 46/46/46 50/50/50 48/48/48
f 52/52/52 46/46/46 51/51/51
f 46/46/46 47/47/47 51/51/51
f 52/52/52 54/54/54 53/53/53
f 52/52/52 51/51/51 54/54/54
f 52/52/52 56/56/56 55/55/55
f 52/52/52 53/53/53 56/56/56
f 52/52/52 58/58/58 57/57/57
f 52/52/52 55/55/55 58/58/58
f 52/52/52 60/60/60 59/59/59
f 52/52/52 57/57/57 60/60/60
f 42/42/42 61/61/61 31/31/31
f 42/42/42 63/63/63 62/62/62
f 42/42/42 62/62/62 61/61/61
f 65/65/65 64/64/64 63/63/63
f 42/42/42 15/15/15 63/63/63
f 15/15/15 65/65/65 63/63/63
f 66/66/66 17/17/17 42/42/42
f 17/17/17 67/67/67 16/16/16
f 17/17/17 15/15/15 42/42/42
f 69/69/69 68/68/68 66/66/66
f 69/69/69 66/66/66 42/42/42
f 69/69/69 71/71/71 70/70/70
f 69/69/69 70/70/70 68/68/68
f 69/69/69 73/73/73 72/72/72
f 69/69/69 72/72/72 71/71/71
f 12/12/12 13/13/13 73/73/73
f 69/69/69 12/12/12 73/73/73
f 13/13/13 74/74/74 73/73/73
f 75/75/75 14/14/14 12/12/12
f 76/76/76 75/75/75 12/12/12
f 77/77/77 76/76/76 12/12/12
f 79/79/79 78/78/78 76/76/76
f 77/77/77 79/79/79 76/76/76
f 81/81/81 80/80/80 78/78/78
f 79/79/79 81/81/81 78/78/78
f 81/81/81 82/82/82 80/80/80
f 85/85/85 84/84/84 83/83/83
f 10/10/10 85/85/85 83/83/83
f 87/87/87 86/86/86 84/84/84
f 85/85/85 87/87/87 84/84/84
f 89/89/89 88/88/88 86/86/86
f 87/87/87 89/89/89 86/86/86
f 89/89/89 90/90/90 88/88/88
f 92/92/92 91/91/91 90/90/90
f 89/89/89 93/93/93 90/90/90
f 93/93/93 92/92/92 90/90/90
f 92/92/92 94/94/94 91/91/91
f 92/92/92 95/95/95 94/94/94
f 97/97/97 96/96/96 95/95/95
f 92/92/92 97/97/97 95/95/95
f 97/97/97 98/98/98 96/96/96
f 97/97/97 99/99/99 98/98/98
f 102/102/102 101/101/101 100/100/100
f 99/99/99 102/102/102 98/98/98
f 102/102/102 103/103/103 98/98/98
f 102/102/102 100/100/100 103/103/103
f 106/106/106 105/105/105 104/104/104
f 101/101/101 104/104/104 100/100/100
f 101/101/101 106/106/106 104/104/104
f 107/107/107 77/77/77 12/12/12
f 83/83/83 109/109/109 108/108/108
f 107/107/107 108/108/108 77/77/77
f 107/107/107 83/83/83 108/108/108
f 111/111/111 110/110/110 109/109/109
f 83/83/83 111/111/111 109/109/109
f 113/113/113 112/112/112 110/110/110
f 111/111/111 113/113/113 110/110/110
f 113/113/113 114/114/114 112/112/112
f 7/7/7 10/10/10 107/107/107
f 117/117/117 116/116/116 115/115/115
f 7/7/7 8/8/8 10/10/10
f 10/10/10 83/83/83 107/107/107
f 119/119/119 118/118/118 9/9/9
f 119/119/119 9/9/9 7/7/7
f 118/118/118 121/121/121 120/120/120
f 118/118/118 120/120/120 9/9/9
f 118/118/118 122/122/122 121/121/121
f 124/124/124 123/123/123 122/122/122
f 118/118/118 125/125/125 122/122/122
f 125/125/125 124/124/124 122/122/122
f 124/124/124 126/126/126 123/123/123
f 124/124/124 127/127/127 126/126/126
f 124/124/124 129/129/129 128/128/128
f 124/124/124 128/128/128 127/127/127
f 132/132/132 131/131/131 130/130/130
f 129/129/129 132/132/132 128/128/128
f 132/132/132 130/130/130 128/128/128
f 132/132/132 134/134/134 133/133/133
f 132/132/132 133/133/133 131/131/131
f 132/132/132 136/136/136 135/135/135
f 132/132/132 135/135/135 134/134/134
f 138/138/138 137/137/137 136/136/136
f 132/132/132 139/139/139 136/136/136
f 139/139/139 138/138/138 136/136/136
f 138/138/138 140/140/140 137/137/137
f 138/138/138 141/141/141 140/140/140
f 138/138/138 142/142/142 141/141/141
f 138/138/138 144/144/144 143/143/143
f 138/138/138 143/143/143 142/142/142
f 138/138/138 4/4/4 145/145/145
f 138/138/138 145/145/145 144/144/144
f 6/6/6 4/4/4 138/138/138
f 6/6/6 147/147/147 146/146/146
f 6/6/6 146/146/146 5/5/5
f 6/6/6 149/149/149 148/148/148
f 6/6/6 148/148/148 147/147/147
f 6/6/6 151/151/151 150/150/150
f 6/6/6 150/150/150 149/149/149
f 154/154/154 153/153/153 152/152/152
f 6/6/6 155/155/155 151/151/151
f 6/6/6 154/154/154 155/155/155
f 154/154/154 156/156/156 153/153/153
f 154/154/154 158/158/158 157/157/157
f 154/154/154 152/152/152 158/158/158
f 154/154/154 157/157/157 155/155/155
f 161/161/161 160/160/160 159/159/159
f 156/156/156 162/162/162 153/153/153
f 156/156/156 163/163/163 162/162/162
f 156/156/156 161/161/161 163/163/163
f 166/166/166 165/165/165 164/164/164
f 161/161/161 159/159/159 163/163/163
f 161/161/161 166/166/166 160/160/160
f 166/166/166 1/1/1 165/165/165
f 166/166/166 164/164/164 160/160/160
f 168/168/168 167/167/167 1/1/1
f 167/167/167 3/3/3 1/1/1
f 169/169/169 168/168/168 1/1/1
f 2/2/2 165/165/165 1/1/1
f 170/170/170 169/169/169 27/27/27
f 169/169/169 1/1/1 27/27/27
f 172/172/172 171/171/171 27/27/27
f 173/173/173 170/170/170 27/27/27
f 171/171/171 173/173/173 27/27/27
f 28/28/28 172/172/172 27/27/27
f 174/174/174 29/29/29 27/27/27
f 175/175/175 174/174/174 27/27/27
f 177/177/177 175/175/175 176/176/176
f 175/175/175 27/27/27 176/176/176
f 179/179/179 178/178/178 176/176/176
f 178/178/178 177/177/177 176/176/176
f 182/182/182 181/181/181 180/180/180
f 179/179/179 176/176/176 183/183/183
f 181/181/181 179/179/179 183/183/183
f 181/181/181 183/183/183 180/180/180
f 185/185/185 184/184/184 180/180/180
f 184/184/184 182/182/182 180/180/180
f 187/187/187 185/185/185 186/186/186
f 185/185/185 180/180/180 186/186/186
f 189/189/189 187/187/187 188/188/188
f 187/187/187 186/186/186 188/188/188
f 191/191/191 190/190/190 188/188/188
f 190/190/190 189/189/189 188/188/188
f 193/193/193 191/191/191 192/192/192
f 191/191/191 188/188/188 192/192/192
f 196/196/196 195/195/195 194/194/194
f 195/195/195 193/193/193 192/192/192
f 195/195/195 192/192/192 194/194/194
f 199/199/199 198/198/198 197/197/197
f 198/198/198 196/196/196 194/194/194
f 198/198/198 194/194/194 197/197/197
f 202/202/202 201/201/201 200/200/200
f 203/203/203 199/199/199 197/197/197
f 203/203/203 197/197/197 200/200/200
f 206/206/206 205/205/205 204/204/204
f 201/201/201 203/203/203 200/200/200
f 202/202/202 200/200/200 204/204/204
f 206/206/206 204/204/204 207/207/207
f 205/205/205 202/202/202 204/204/204
f 208/208/208 206/206/206 207/207/207
f 25/25/25 208/208/208 207/207/207
f 25/25/25 207/207/207 24/24/24
f 211/211/211 210/210/210 209/209/209
f 212/212/212 26/26/26 24/24/24
f 213/213/213 212/212/212 24/24/24
f 215/215/215 214/214/214 213/213/213
f 215/215/215 209/209/209 216/216/216
f 215/215/215 216/216/216 217/217/217
f 215/215/215 217/217/217 214/214/214
f 215/215/215 213/213/213 24/24/24
f 215/215/215 211/211/211 209/209/209
f 211/211/211 219/219/219 218/218/218
f 211/211/211 218/218/218 210/210/210
f 222/222/222 221/221/221 220/220/220
f 211/211/211 223/223/223 219/219/219
f 211/211/211 220/220/220 223/223/223
f 211/211/211 222/222/222 220/220/220
f 222/222/222 225/225/225 224/224/224
f 222/222/222 224/224/224 221/221/221
f 21/21/21 22/22/22 226/226/226
f 222/222/222 226/226/226 225/225/225
f 222/222/222 21/21/21 226/226/226
f 228/228/228 227/227/227 21/21/21
f 227/227/227 23/23/23 21/21/21
f 230/230/230 229/229/229 228/228/228
f 230/230/230 228/228/228 21/21/21
f 230/230/230 232/232/232 231/231/231
f 230/230/230 231/231/231 229/229/229
f 234/234/234 233/233/233 232/232/232
f 230/230/230 234/234/234 232/232/232
f 234/234/234 236/236/236 235/235/235
f 234/234/234 235/235/235 233/233/233
f 234/234/234 59/59/59 60/60/60
f 234/234/234 60/60/60 236/236/236
f 8/8/8 115/115/115 11/11/11
f 8/8/8 117/117/117 115/115/115
f 238/238/238 237/237/237 116/116/116
f 117/117/117 238/238/238 116/116/116
f 238/238/238 239/239/239 237/237/237
f 242/242/242 241/241/241 240/240/240
f 245/245/245 244/244/244 243/243/243
f 241/241/241 247/247/247 246/246/246
f 250/250/250 249/249/249 248/248/248
f 249/249/249 247/247/247 248/248/248
f 249/249/249 246/246/246 247/247/247
f 241/241/241 242/242/242 247/247/247
f 242/242/242 240/240/240 251/251/251
f 242/242/242 253/253/253 252/252/252
f 242/242/242 251/251/251 253/253/253
f 242/242/242 255/255/255 254/254/254
f 242/242/242 252/252/252 255/255/255
f 258/258/258 257/257/257 256/256/256
f 258/258/258 256/256/256 259/259/259
f 258/258/258 259/259/259 260/260/260
f 262/262/262 261/261/261 260/260/260
f 261/261/261 258/258/258 260/260/260
f 254/254/254 262/262/262 260/260/260
f 242/242/242 254/254/254 260/260/260
f 242/242/242 260/260/260 263/263/263
f 242/242/242 263/263/263 264/264/264
f 263/263/263 265/265/265 264/264/264
f 267/267/267 266/266/266 264/264/264
f 265/265/265 268/268/268 267/267/267
f 270/270/270 269/269/269 264/264/264
f 266/266/266 270/270/270 264/264/264
f 265/265/265 267/267/267 264/264/264
f 265/265/265 271/271/271 268/268/268
f 274/274/274 273/273/273 272/272/272
f 275/275/275 274/274/274 264/264/264
f 245/245/245 276/276/276 275/275/275
f 245/245/245 243/243/243 276/276/276
f 278/278/278 277/277/277 275/275/275
f 277/277/277 245/245/245 275/275/275
f 278/278/278 275/275/275 269/269/269
f 275/275/275 264/264/264 269/269/269
f 240/240/240 241/241/241 246/246/246
f 264/264/264 272/272/272 279/279/279
f 272/272/272 273/273/273 280/280/280
f 279/279/279 282/282/282 281/281/281
f 279/279/279 283/283/283 282/282/282
f 279/279/279 280/280/280 283/283/283
f 279/279/279 272/272/272 280/280/280
f 279/279/279 285/285/285 284/284/284
f 264/264/264 279/279/279 284/284/284
f 274/274/274 272/272/272 264/264/264
f 288/288/288 287/287/287 286/286/286
f 291/291/291 290/290/290 289/289/289
f 293/293/293 289/289/289 292/292/292
f 296/296/296 295/295/295 294/294/294
f 298/298/298 297/297/297 294/294/294
f 297/297/297 296/296/296 294/294/294
f 295/295/295 299/299/299 294/294/294
f 299/299/299 300/300/300 294/294/294
f 300/300/300 301/301/301 294/294/294
f 301/301/301 302/302/302 294/294/294
f 302/302/302 303/303/303 294/294/294
f 303/303/303 304/304/304 294/294/294
f 307/307/307 306/306/306 305/305/305
f 304/304/304 307/307/307 305/305/305
f 309/309/309 308/308/308 305/305/305
f 306/306/306 309/309/309 305/305/305
f 304/304/304 305/305/305 294/294/294
f 308/308/308 310/310/310 305/305/305
f 310/310/310 311/311/311 305/305/305
f 313/313/313 312/312/312 311/311/311
f 310/310/310 313/313/313 311/311/311
f 315/315/315 314/314/314 311/311/311
f 312/312/312 315/315/315 311/311/311
f 315/315/315 316/316/316 314/314/314
f 316/316/316 287/287/287 314/314/314
f 318/318/318 317/317/317 287/287/287
f 316/316/316 318/318/318 287/287/287
f 317/317/317 319/319/319 287/287/287
f 321/321/321 320/320/320 287/287/287
f 322/322/322 321/321/321 287/287/287
f 319/319/319 322/322/322 287/287/287
f 320/320/320 286/286/286 287/287/287
f 288/288/288 323/323/323 287/287/287
f 325/325/325 324/324/324 323/323/323
f 326/326/326 325/325/325 323/323/323
f 324/324/324 327/327/327 323/323/323
f 329/329/329 328/328/328 323/323/323
f 327/327/327 329/329/329 323/323/323
f 331/331/331 330/330/330 323/323/323
f 328/328/328 331/331/331 323/323/323
f 330/330/330 332/332/332 323/323/323
f 288/288/288 326/326/326 323/323/323
f 332/332/332 333/333/333 323/323/323
f 333/333/333 334/334/334 323/323/323
f 334/334/334 335/335/335 323/323/323
f 337/337/337 336/336/336 335/335/335
f 334/334/334 338/338/338 335/335/335
f 336/336/336 339/339/339 335/335/335
f 342/342/342 341/341/341 340/340/340
f 340/340/340 337/337/337 335/335/335
f 338/338/338 340/340/340 335/335/335
f 338/338/338 342/342/342 340/340/340
f 342/342/342 343/343/343 341/341/341
f 345/345/345 344/344/344 343/343/343
f 342/342/342 345/345/345 343/343/343
f 345/345/345 346/346/346 344/344/344
f 290/290/290 292/292/292 289/289/289
f 348/348/348 347/347/347 335/335/335
f 349/349/349 291/291/291 289/289/289
f 347/347/347 349/349/349 289/289/289
f 347/347/347 289/289/289 335/335/335
f 351/351/351 350/350/350 335/335/335
f 352/352/352 348/348/348 335/335/335
f 353/353/353 352/352/352 335/335/335
f 351/351/351 335/335/335 339/339/339
f 350/350/350 354/354/354 335/335/335
f 354/354/354 353/353/353 335/335/335
f 356/356/356 355/355/355 353/353/353
f 356/356/356 357/357/357 355/355/355
f 354/354/354 356/356/356 353/353/353
f 360/360/360 359/359/359 358/358/358
f 361/361/361 360/360/360 358/358/358
f 361/361/361 363/363/363 362/362/362
f 361/361/361 358/358/358 363/363/363
f 365/365/365 364/364/364 362/362/362
f 364/364/364 361/361/361 362/362/362
f 293/293/293 365/365/365 362/362/362
f 293/293/293 362/362/362 366/366/366
f 293/293/293 366/366/366 367/367/367
f 293/293/293 367/367/367 289/289/289
f 367/367/367 368/368/368 289/289/289
f 370/370/370 369/369/369 289/289/289
f 368/368/368 370/370/370 289/289/289
f 369/369/369 371/371/371 289/289/289
f 374/374/374 373/373/373 372/372/372
f 374/374/374 372/372/372 375/375/375
f 371/371/371 375/375/375 289/289/289
f 376/376/376 374/374/374 375/375/375
f 371/371/371 376/376/376 375/375/375
f 375/375/375 377/377/377 289/289/289
f 377/377/377 378/378/378 289/289/289
f 378/378/378 379/379/379 289/289/289
f 379/379/379 380/380/380 289/289/289
f 380/380/380 381/381/381 289/289/289
f 384/384/384 383/383/383 382/382/382
f 385/385/385 384/384/384 382/382/382
f 386/386/386 385/385/385 382/382/382
f 381/381/381 386/386/386 382/382/382
f 381/381/381 382/382/382 289/289/289
f 383/383/383 387/387/387 382/382/382
f 387/387/387 388/388/388 382/382/382
g cPK_10_002720_00_PIGEOTex_RR_L_SB_1
f 85/85/85 10/10/10 11/11/11
f 61/61/61 389/389/389 31/31/31
f 391/391/391 390/390/390 389/389/389
f 61/61/61 391/391/391 389/389/389
f 393/393/393 392/392/392 390/390/390
f 391/391/391 393/393/393 390/390/390
f 395/395/395 394/394/394 67/67/67
f 17/17/17 395/395/395 67/67/67
f 397/397/397 396/396/396 394/394/394
f 395/395/395 397/397/397 394/394/394
f 399/399/399 398/398/398 396/396/396
f 397/397/397 399/399/399 396/396/396
f 401/401/401 400/400/400 398/398/398
f 399/399/399 401/401/401 398/398/398
f 403/403/403 402/402/402 400/400/400
f 401/401/401 403/403/403 400/400/400
f 405/405/405 404/404/404 402/402/402
f 403/403/403 405/405/405 402/402/402
f 407/407/407 406/406/406 404/404/404
f 405/405/405 407/407/407 404/404/404
f 409/409/409 408/408/408 406/406/406
f 407/407/407 409/409/409 406/406/406
f 411/411/411 410/410/410 408/408/408
f 409/409/409 411/411/411 408/408/408
f 413/413/413 412/412/412 410/410/410
f 411/411/411 413/413/413 410/410/410
f 415/415/415 414/414/414 412/412/412
f 413/413/413 415/415/415 412/412/412
f 417/417/417 416/416/416 414/414/414
f 415/415/415 417/417/417 414/414/414
f 419/419/419 418/418/418 416/416/416
f 417/417/417 419/419/419 416/416/416
f 421/421/421 420/420/420 418/418/418
f 419/419/419 421/421/421 418/418/418
f 423/423/423 422/422/422 420/420/420
f 421/421/421 423/423/423 420/420/420
f 423/423/423 424/424/424 422/422/422
f 82/82/82 425/425/425 80/80/80
f 427/427/427 426/426/426 80/80/80
f 425/425/425 427/427/427 80/80/80
f 429/429/429 428/428/428 426/426/426
f 427/427/427 429/429/429 426/426/426
f 431/431/431 430/430/430 428/428/428
f 429/429/429 431/431/431 428/428/428
f 433/433/433 432/432/432 430/430/430
f 431/431/431 433/433/433 430/430/430
f 435/435/435 434/434/434 432/432/432
f 433/433/433 435/435/435 432/432/432
f 437/437/437 436/436/436 434/434/434
f 435/435/435 437/437/437 434/434/434
f 439/439/439 438/438/438 436/436/436
f 437/437/437 439/439/439 436/436/436
f 441/441/441 440/440/440 438/438/438
f 439/439/439 441/441/441 438/438/438
f 443/443/443 442/442/442 440/440/440
f 441/441/441 443/443/443 440/440/440
f 443/443/443 444/444/444 442/442/442
f 443/443/443 445/445/445 444/444/444
f 443/443/443 446/446/446 445/445/445
f 114/114/114 447/447/447 112/112/112
f 87/87/87 85/85/85 115/115/115
f 85/85/85 11/11/11 115/115/115
f 87/87/87 116/116/116 237/237/237
f 87/87/87 115/115/115 116/116/116
f 117/117/117 9/9/9 120/120/120
f 117/117/117 8/8/8 9/9/9
f 239/239/239 238/238/238 120/120/120
f 238/238/238 117/117/117 120/120/120
f 87/87/87 237/237/237 448/448/448
f 448/448/448 239/239/239 120/120/120
f 87/87/87 448/448/448 120/120/120
f 89/89/89 87/87/87 121/121/121
f 87/87/87 120/120/120 121/121/121
f 93/93/93 89/89/89 122/122/122
f 89/89/89 121/121/121 122/122/122
f 92/92/92 93/93/93 123/123/123
f 93/93/93 122/122/122 123/123/123
f 97/97/97 92/92/92 126/126/126
f 92/92/92 123/123/123 126/126/126
f 97/97/97 127/127/127 128/128/128
f 97/97/97 126/126/126 127/127/127
f 97/97/97 128/128/128 130/130/130
f 97/97/97 130/130/130 131/131/131
f 102/102/102 99/99/99 131/131/131
f 99/99/99 97/97/97 131/131/131
f 101/101/101 102/102/102 131/131/131
f 101/101/101 133/133/133 134/134/134
f 101/101/101 131/131/131 133/133/133
f 101/101/101 135/135/135 136/136/136
f 101/101/101 134/134/134 135/135/135
f 101/101/101 137/137/137 140/140/140
f 101/101/101 136/136/136 137/137/137
f 106/106/106 101/101/101 140/140/140
f 105/105/105 106/106/106 141/141/141
f 106/106/106 140/140/140 141/141/141
f 446/446/446 443/443/443 104/104/104
f 105/105/105 141/141/141 142/142/142
f 74/74/74 13/13/13 14/14/14
f 446/446/446 104/104/104 105/105/105
f 441/441/441 439/439/439 96/96/96
f 443/443/443 441/441/441 104/104/104
f 441/441/441 98/98/98 103/103/103
f 441/441/441 96/96/96 98/98/98
f 441/441/441 100/100/100 104/104/104
f 441/441/441 103/103/103 100/100/100
f 437/437/437 435/435/435 96/96/96
f 439/439/439 437/437/437 96/96/96
f 435/435/435 433/433/433 91/91/91
f 435/435/435 95/95/95 96/96/96
f 435/435/435 91/91/91 94/94/94
f 435/435/435 94/94/94 95/95/95
f 431/431/431 429/429/429 91/91/91
f 433/433/433 431/431/431 91/91/91
f 429/429/429 88/88/88 90/90/90
f 429/429/429 90/90/90 91/91/91
f 429/429/429 86/86/86 88/88/88
f 425/425/425 82/82/82 112/112/112
f 429/429/429 427/427/427 86/86/86
f 427/427/427 425/425/425 86/86/86
f 113/113/113 111/111/111 84/84/84
f 447/447/447 114/114/114 86/86/86
f 425/425/425 112/112/112 447/447/447
f 425/425/425 447/447/447 86/86/86
f 114/114/114 84/84/84 86/86/86
f 81/81/81 79/79/79 109/109/109
f 82/82/82 110/110/110 112/112/112
f 114/114/114 113/113/113 84/84/84
f 111/111/111 83/83/83 84/84/84
f 82/82/82 109/109/109 110/110/110
f 82/82/82 81/81/81 109/109/109
f 79/79/79 77/77/77 109/109/109
f 77/77/77 108/108/108 109/109/109
f 72/72/72 73/73/73 74/74/74
f 71/71/71 74/74/74 75/75/75
f 74/74/74 14/14/14 75/75/75
f 70/70/70 71/71/71 75/75/75
f 71/71/71 72/72/72 74/74/74
f 68/68/68 70/70/70 76/76/76
f 70/70/70 75/75/75 76/76/76
f 66/66/66 68/68/68 78/78/78
f 68/68/68 76/76/76 78/78/78
f 17/17/17 66/66/66 78/78/78
f 395/395/395 17/17/17 78/78/78
f 397/397/397 78/78/78 80/80/80
f 397/397/397 395/395/395 78/78/78
f 397/397/397 426/426/426 428/428/428
f 397/397/397 80/80/80 426/426/426
f 397/397/397 430/430/430 432/432/432
f 397/397/397 428/428/428 430/430/430
f 401/401/401 399/399/399 432/432/432
f 399/399/399 397/397/397 432/432/432
f 405/405/405 403/403/403 432/432/432
f 403/403/403 401/401/401 432/432/432
f 407/407/407 432/432/432 434/434/434
f 407/407/407 405/405/405 432/432/432
f 407/407/407 436/436/436 438/438/438
f 407/407/407 434/434/434 436/436/436
f 407/407/407 440/440/440 442/442/442
f 407/407/407 438/438/438 440/440/440
f 407/407/407 444/444/444 445/445/445
f 407/407/407 442/442/442 444/444/444
f 411/411/411 409/409/409 446/446/446
f 407/407/407 445/445/445 446/446/446
f 409/409/409 407/407/407 446/446/446
f 415/415/415 413/413/413 446/446/446
f 413/413/413 411/411/411 446/446/446
f 419/419/419 417/417/417 446/446/446
f 417/417/417 415/415/415 446/446/446
f 424/424/424 423/423/423 446/446/446
f 421/421/421 419/419/419 446/446/446
f 423/423/423 421/421/421 446/446/446
f 65/65/65 15/15/15 16/16/16
f 62/62/62 63/63/63 64/64/64
f 65/65/65 16/16/16 67/67/67
f 64/64/64 65/65/65 67/67/67
f 61/61/61 62/62/62 394/394/394
f 64/64/64 67/67/67 394/394/394
f 62/62/62 64/64/64 394/394/394
f 61/61/61 394/394/394 396/396/396
f 61/61/61 398/398/398 400/400/400
f 61/61/61 396/396/396 398/398/398
f 393/393/393 391/391/391 400/400/400
f 391/391/391 61/61/61 400/400/400
f 392/392/392 393/393/393 400/400/400
f 392/392/392 402/402/402 404/404/404
f 392/392/392 400/400/400 402/402/402
f 392/392/392 404/404/404 406/406/406
f 30/30/30 31/31/31 389/389/389
f 18/18/18 19/19/19 30/30/30
f 30/30/30 389/389/389 390/390/390
f 34/34/34 18/18/18 30/30/30
f 34/34/34 30/30/30 390/390/390
f 35/35/35 33/33/33 406/406/406
f 34/34/34 390/390/390 392/392/392
f 33/33/33 34/34/34 392/392/392
f 33/33/33 392/392/392 406/406/406
f 37/37/37 35/35/35 406/406/406
f 38/38/38 39/39/39 406/406/406
f 39/39/39 37/37/37 406/406/406
f 41/41/41 406/406/406 408/408/408
f 41/41/41 38/38/38 406/406/406
f 41/41/41 410/410/410 412/412/412
f 41/41/41 408/408/408 410/410/410
f 41/41/41 414/414/414 416/416/416
f 41/41/41 412/412/412 414/414/414
f 44/44/44 40/40/40 416/416/416
f 40/40/40 41/41/41 416/416/416
f 45/45/45 43/43/43 416/416/416
f 43/43/43 44/44/44 416/416/416
f 50/50/50 49/49/49 416/416/416
f 49/49/49 45/45/45 416/416/416
f 47/47/47 416/416/416 418/418/418
f 48/48/48 50/50/50 416/416/416
f 47/47/47 48/48/48 416/416/416
f 47/47/47 420/420/420 422/422/422
f 47/47/47 418/418/418 420/420/420
f 51/51/51 47/47/47 424/424/424
f 47/47/47 422/422/422 424/424/424
f 54/54/54 51/51/51 424/424/424
f 56/56/56 53/53/53 424/424/424
f 53/53/53 54/54/54 424/424/424
f 56/56/56 424/424/424 446/446/446
f 446/446/446 105/105/105 142/142/142
f 56/56/56 446/446/446 142/142/142
f 58/58/58 55/55/55 142/142/142
f 55/55/55 56/56/56 142/142/142
f 57/57/57 142/142/142 60/60/60
f 57/57/57 58/58/58 142/142/142
f 142/142/142 235/235/235 236/236/236
f 142/142/142 236/236/236 60/60/60
f 142/142/142 232/232/232 233/233/233
f 142/142/142 233/233/233 235/235/235
f 142/142/142 143/143/143 229/229/229
f 142/142/142 231/231/231 232/232/232
f 142/142/142 229/229/229 231/231/231
f 143/143/143 144/144/144 229/229/229
f 4/4/4 227/227/227 228/228/228
f 144/144/144 145/145/145 229/229/229
f 145/145/145 4/4/4 229/229/229
f 4/4/4 228/228/228 229/229/229
f 4/4/4 22/22/22 23/23/23
f 4/4/4 23/23/23 227/227/227
f 4/4/4 224/224/224 225/225/225
f 4/4/4 226/226/226 22/22/22
f 4/4/4 225/225/225 226/226/226
f 4/4/4 5/5/5 223/223/223
f 4/4/4 221/221/221 224/224/224
f 4/4/4 220/220/220 221/221/221
f 4/4/4 223/223/223 220/220/220
f 5/5/5 146/146/146 223/223/223
f 146/146/146 218/218/218 219/219/219
f 146/146/146 219/219/219 223/223/223
f 146/146/146 210/210/210 218/218/218
f 146/146/146 217/217/217 216/216/216
f 146/146/146 209/209/209 210/210/210
f 146/146/146 216/216/216 209/209/209
f 146/146/146 147/147/147 214/214/214
f 146/146/146 214/214/214 217/217/217
f 148/148/148 149/149/149 214/214/214
f 147/147/147 148/148/148 214/214/214
f 150/150/150 212/212/212 213/213/213
f 149/149/149 150/150/150 214/214/214
f 150/150/150 213/213/213 214/214/214
f 150/150/150 151/151/151 205/205/205
f 150/150/150 26/26/26 212/212/212
f 150/150/150 25/25/25 26/26/26
f 150/150/150 208/208/208 25/25/25
f 150/150/150 206/206/206 208/208/208
f 150/150/150 205/205/205 206/206/206
f 151/151/151 155/155/155 205/205/205
f 155/155/155 157/157/157 205/205/205
f 157/157/157 158/158/158 205/205/205
f 158/158/158 152/152/152 205/205/205
f 153/153/153 162/162/162 205/205/205
f 152/152/152 153/153/153 205/205/205
f 163/163/163 201/201/201 202/202/202
f 162/162/162 163/163/163 205/205/205
f 163/163/163 202/202/202 205/205/205
f 163/163/163 199/199/199 203/203/203
f 163/163/163 203/203/203 201/201/201
f 163/163/163 159/159/159 199/199/199
f 160/160/160 164/164/164 199/199/199
f 159/159/159 160/160/160 199/199/199
f 165/165/165 2/2/2 199/199/199
f 164/164/164 165/165/165 199/199/199
f 3/3/3 167/167/167 199/199/199
f 2/2/2 3/3/3 199/199/199
f 167/167/167 171/171/171 199/199/199
f 167/167/167 168/168/168 171/171/171
f 168/168/168 169/169/169 171/171/171
f 170/170/170 173/173/173 171/171/171
f 169/169/169 170/170/170 171/171/171
f 172/172/172 28/28/28 199/199/199
f 171/171/171 172/172/172 199/199/199
f 28/28/28 196/196/196 198/198/198
f 28/28/28 198/198/198 199/199/199
f 28/28/28 191/191/191 193/193/193
f 28/28/28 195/195/195 196/196/196
f 28/28/28 193/193/193 195/195/195
f 28/28/28 189/189/189 190/190/190
f 28/28/28 190/190/190 191/191/191
f 28/28/28 185/185/185 187/187/187
f 28/28/28 187/187/187 189/189/189
f 28/28/28 182/182/182 184/184/184
f 28/28/28 184/184/184 185/185/185
f 28/28/28 181/181/181 182/182/182
f 28/28/28 179/179/179 181/181/181
f 28/28/28 178/178/178 179/179/179
f 28/28/28 29/29/29 178/178/178
f 174/174/174 175/175/175 178/178/178
f 29/29/29 174/174/174 178/178/178
f 175/175/175 177/177/177 178/178/178
f 239/239/239 448/448/448 237/237/237
f 451/451/451 450/450/450 449/449/449
f 451/451/451 449/449/449 452/452/452
f 244/244/244 245/245/245 249/249/249
f 243/243/243 249/249/249 250/250/250
f 281/281/281 243/243/243 250/250/250
f 281/281/281 276/276/276 243/243/243
f 282/282/282 276/276/276 281/281/281
f 282/282/282 283/283/283 276/276/276
f 283/283/283 280/280/280 276/276/276
f 280/280/280 273/273/273 276/276/276
f 273/273/273 274/274/274 276/276/276
f 274/274/274 275/275/275 276/276/276
f 243/243/243 244/244/244 249/249/249
f 245/245/245 268/268/268 249/249/249
f 277/277/277 278/278/278 269/269/269
f 277/277/277 269/269/269 270/270/270
f 277/277/277 270/270/270 266/266/266
f 277/277/277 266/266/266 267/267/267
f 277/277/277 267/267/267 268/268/268
f 245/245/245 277/277/277 268/268/268
f 268/268/268 246/246/246 249/249/249
f 268/268/268 271/271/271 246/246/246
f 262/262/262 254/254/254 255/255/255
f 251/251/251 240/240/240 246/246/246
f 258/258/258 253/253/253 246/246/246
f 262/262/262 255/255/255 252/252/252
f 261/261/261 262/262/262 252/252/252
f 258/258/258 261/261/261 252/252/252
f 258/258/258 252/252/252 253/253/253
f 253/253/253 251/251/251 246/246/246
f 256/256/256 257/257/257 246/246/246
f 257/257/257 258/258/258 246/246/246
f 271/271/271 256/256/256 246/246/246
f 271/271/271 260/260/260 259/259/259
f 271/271/271 259/259/259 256/256/256
f 265/265/265 263/263/263 260/260/260
f 271/271/271 265/265/265 260/260/260
f 315/315/315 453/453/453 316/316/316
f 454/454/454 297/297/297 298/298/298
f 454/454/454 455/455/455 297/297/297
f 455/455/455 296/296/296 297/297/297
f 373/373/373 374/374/374 369/369/369
f 455/455/455 372/372/372 373/373/373
f 456/456/456 375/375/375 372/372/372
f 455/455/455 456/456/456 372/372/372
f 456/456/456 378/378/378 377/377/377
f 456/456/456 377/377/377 375/375/375
f 458/458/458 457/457/457 379/379/379
f 456/456/456 379/379/379 378/378/378
f 456/456/456 458/458/458 379/379/379
f 457/457/457 380/380/380 379/379/379
f 457/457/457 386/386/386 381/381/381
f 457/457/457 381/381/381 380/380/380
f 457/457/457 383/383/383 384/384/384
f 457/457/457 385/385/385 386/386/386
f 457/457/457 384/384/384 385/385/385
f 457/457/457 388/388/388 387/387/387
f 457/457/457 387/387/387 383/383/383
f 455/455/455 295/295/295 296/296/296
f 455/455/455 373/373/373 295/295/295
f 374/374/374 376/376/376 371/371/371
f 374/374/374 371/371/371 369/369/369
f 373/373/373 368/368/368 367/367/367
f 373/373/373 369/369/369 370/370/370
f 373/373/373 370/370/370 368/368/368
f 373/373/373 366/366/366 362/362/362
f 373/373/373 367/367/367 366/366/366
f 373/373/373 363/363/363 358/358/358
f 373/373/373 362/362/362 363/363/363
f 373/373/373 358/358/358 359/359/359
f 373/373/373 359/359/359 295/295/295
f 359/359/359 299/299/299 295/295/295
f 360/360/360 357/357/357 300/300/300
f 359/359/359 300/300/300 299/299/299
f 359/359/359 360/360/360 300/300/300
f 360/360/360 353/353/353 355/355/355
f 360/360/360 355/355/355 357/357/357
f 360/360/360 361/361/361 352/352/352
f 360/360/360 352/352/352 353/353/353
f 364/364/364 365/365/365 352/352/352
f 361/361/361 364/364/364 352/352/352
f 365/365/365 293/293/293 352/352/352
f 293/293/293 292/292/292 352/352/352
f 290/290/290 291/291/291 352/352/352
f 292/292/292 290/290/290 352/352/352
f 349/349/349 347/347/347 348/348/348
f 291/291/291 349/349/349 352/352/352
f 349/349/349 348/348/348 352/352/352
f 357/357/357 346/346/346 300/300/300
f 357/357/357 343/343/343 344/344/344
f 357/357/357 344/344/344 346/346/346
f 357/357/357 340/340/340 341/341/341
f 357/357/357 341/341/341 343/343/343
f 357/357/357 336/336/336 337/337/337
f 357/357/357 337/337/337 340/340/340
f 357/357/357 356/356/356 354/354/354
f 357/357/357 339/339/339 336/336/336
f 357/357/357 351/351/351 339/339/339
f 357/357/357 350/350/350 351/351/351
f 357/357/357 354/354/354 350/350/350
f 346/346/346 327/327/327 300/300/300
f 346/346/346 328/328/328 329/329/329
f 346/346/346 329/329/329 327/327/327
f 346/346/346 330/330/330 331/331/331
f 346/346/346 331/331/331 328/328/328
f 346/346/346 345/345/345 332/332/332
f 346/346/346 332/332/332 330/330/330
f 345/345/345 333/333/333 332/332/332
f 338/338/338 334/334/334 333/333/333
f 345/345/345 342/342/342 333/333/333
f 342/342/342 338/338/338 333/333/333
f 327/327/327 302/302/302 301/301/301
f 327/327/327 301/301/301 300/300/300
f 327/327/327 324/324/324 302/302/302
f 306/306/306 307/307/307 304/304/304
f 322/322/322 303/303/303 302/302/302
f 324/324/324 321/321/321 322/322/322
f 325/325/325 320/320/320 321/321/321
f 324/324/324 325/325/325 321/321/321
f 325/325/325 326/326/326 320/320/320
f 326/326/326 288/288/288 320/320/320
f 288/288/288 286/286/286 320/320/320
f 324/324/324 322/322/322 302/302/302
f 322/322/322 304/304/304 303/303/303
f 309/309/309 306/306/306 304/304/304
f 308/308/308 309/309/309 304/304/304
f 310/310/310 308/308/308 304/304/304
f 313/313/313 310/310/310 304/304/304
f 312/312/312 313/313/313 304/304/304
f 317/317/317 318/318/318 316/316/316
f 453/453/453 315/315/315 312/312/312
f 453/453/453 312/312/312 304/304/304
f 319/319/319 317/317/317 316/316/316
f 322/322/322 319/319/319 316/316/316
f 322/322/322 316/316/316 453/453/453
f 322/322/322 453/453/453 304/304/304
g cPK_10_002720_00_PIGEOTex_RR_L_SB_2
f 461/461/461 460/460/460 459/459/459
f 462/462/462 461/461/461 459/459/459
f 463/463/463 462/462/462 459/459/459
f 463/463/463 459/459/459 451/451/451
f 463/463/463 452/452/452 464/464/464
f 463/463/463 451/451/451 452/452/452
f 463/463/463 464/464/464 465/465/465
f 466/466/466 463/463/463 465/465/465
f 467/467/467 466/466/466 465/465/465
f 468/468/468 467/467/467 465/465/465
f 469/469/469 468/468/468 465/465/465
f 469/469/469 471/471/471 470/470/470
f 469/469/469 465/465/465 471/471/471
f 474/474/474 473/473/473 472/472/472
f 475/475/475 469/469/469 470/470/470
f 477/477/477 476/476/476 470/470/470
f 476/476/476 475/475/475 470/470/470
f 479/479/479 478/478/478 470/470/470
f 478/478/478 477/477/477 470/470/470
f 481/481/481 480/480/480 470/470/470
f 480/480/480 479/479/479 470/470/470
f 482/482/482 474/474/474 472/472/472
f 482/482/482 472/472/472 483/483/483
f 483/483/483 485/485/485 484/484/484
f 483/483/483 484/484/484 486/486/486
f 488/488/488 482/482/482 487/487/487
f 482/482/482 483/483/483 486/486/486
f 482/482/482 486/486/486 487/487/487
f 489/489/489 488/488/488 487/487/487
f 470/470/470 489/489/489 490/490/490
f 489/489/489 487/487/487 490/490/490
f 481/481/481 470/470/470 490/490/490
f 491/491/491 481/481/481 490/490/490
f 491/491/491 490/490/490 492/492/492
f 495/495/495 494/494/494 493/493/493
f 496/496/496 491/491/491 492/492/492
f 493/493/493 498/498/498 497/497/497
f 498/498/498 500/500/500 499/499/499
f 498/498/498 499/499/499 497/497/497
f 502/502/502 501/501/501 497/497/497
f 495/495/495 493/493/493 497/497/497
f 501/501/501 495/495/495 497/497/497
f 504/504/504 502/502/502 503/503/503
f 502/502/502 497/497/497 503/503/503
f 506/506/506 504/504/504 505/505/505
f 504/504/504 503/503/503 505/505/505
f 496/496/496 492/492/492 507/507/507
f 492/492/492 506/506/506 505/505/505
f 492/492/492 505/505/505 507/507/507
f 508/508/508 496/496/496 507/507/507
f 508/508/508 507/507/507 509/509/509
f 510/510/510 508/508/508 509/509/509
f 513/513/513 512/512/512 511/511/511
f 515/515/515 514/514/514 511/511/511
f 514/514/514 513/513/513 511/511/511
f 512/512/512 516/516/516 511/511/511
f 516/516/516 517/517/517 511/511/511
f 519/519/519 518/518/518 517/517/517
f 516/516/516 520/520/520 517/517/517
f 520/520/520 519/519/519 517/517/517
f 521/521/521 509/509/509 518/518/518
f 519/519/519 521/521/521 518/518/518
f 522/522/522 510/510/510 509/509/509
f 521/521/521 523/523/523 509/509/509
f 523/523/523 522/522/522 509/509/509
f 522/522/522 524/524/524 510/510/510
f 522/522/522 525/525/525 524/524/524
f 527/527/527 526/526/526 525/525/525
f 530/530/530 529/529/529 528/528/528
f 532/532/532 530/530/530 531/531/531
f 530/530/530 528/528/528 533/533/533
f 530/530/530 535/535/535 534/534/534
f 530/530/530 534/534/534 529/529/529
f 530/530/530 533/533/533 531/531/531
f 532/532/532 531/531/531 536/536/536
f 538/538/538 532/532/532 537/537/537
f 532/532/532 536/536/536 537/537/537
f 540/540/540 538/538/538 539/539/539
f 538/538/538 537/537/537 539/539/539
f 522/522/522 541/541/541 527/527/527
f 522/522/522 540/540/540 539/539/539
f 522/522/522 539/539/539 541/541/541
f 522/522/522 527/527/527 525/525/525
f 526/526/526 542/542/542 525/525/525
f 544/544/544 543/543/543 542/542/542
f 526/526/526 545/545/545 544/544/544
f 526/526/526 544/544/544 542/542/542
f 547/547/547 546/546/546 545/545/545
f 526/526/526 547/547/547 545/545/545
f 546/546/546 549/549/549 548/548/548
f 546/546/546 548/548/548 545/545/545
f 546/546/546 551/551/551 550/550/550
f 546/546/546 552/552/552 549/549/549
f 546/546/546 553/553/553 552/552/552
f 546/546/546 554/554/554 553/553/553
f 546/546/546 555/555/555 554/554/554
f 546/546/546 550/550/550 555/555/555
f 546/546/546 556/556/556 551/551/551
f 559/559/559 558/558/558 557/557/557
f 559/559/559 560/560/560 558/558/558
f 559/559/559 562/562/562 561/561/561
f 559/559/559 557/557/557 562/562/562
f 559/559/559 561/561/561 563/563/563
f 559/559/559 563/563/563 564/564/564
f 543/543/543 559/559/559 564/564/564
f 543/543/543 564/564/564 565/565/565
f 543/543/543 566/566/566 542/542/542
f 569/569/569 568/568/568 567/567/567
f 571/571/571 570/570/570 566/566/566
f 565/565/565 571/571/571 566/566/566
f 543/543/543 565/565/565 566/566/566
f 569/569/569 573/573/573 572/572/572
f 569/569/569 572/572/572 574/574/574
f 569/569/569 574/574/574 575/575/575
f 569/569/569 575/575/575 568/568/568
f 577/577/577 569/569/569 576/576/576
f 569/569/569 567/567/567 576/576/576
f 570/570/570 576/576/576 578/578/578
f 570/570/570 577/577/577 576/576/576
f 570/570/570 579/579/579 566/566/566
f 281/281/281 250/250/250 579/579/579
f 580/580/580 281/281/281 579/579/579
f 578/578/578 580/580/580 579/579/579
f 570/570/570 578/578/578 579/579/579
f 583/583/583 582/582/582 581/581/581
f 583/583/583 581/581/581 584/584/584
f 583/583/583 584/584/584 585/585/585
f 583/583/583 585/585/585 586/586/586
f 583/583/583 586/586/586 587/587/587
f 583/583/583 587/587/587 588/588/588
f 590/590/590 589/589/589 588/588/588
f 589/589/589 583/583/583 588/588/588
f 590/590/590 588/588/588 591/591/591
f 593/593/593 590/590/590 592/592/592
f 590/590/590 591/591/591 592/592/592
f 595/595/595 593/593/593 594/594/594
f 593/593/593 592/592/592 594/594/594
f 595/595/595 594/594/594 596/596/596
f 595/595/595 596/596/596 597/597/597
f 598/598/598 595/595/595 597/597/597
f 599/599/599 598/598/598 597/597/597
f 600/600/600 599/599/599 597/597/597
f 603/603/603 602/602/602 601/601/601
f 602/602/602 604/604/604 601/601/601
f 600/600/600 597/597/597 601/601/601
f 605/605/605 603/603/603 601/601/601
f 597/597/597 605/605/605 601/601/601
f 600/600/600 601/601/601 606/606/606
f 607/607/607 600/600/600 606/606/606
f 608/608/608 607/607/607 606/606/606
f 611/611/611 610/610/610 609/609/609
f 612/612/612 611/611/611 609/609/609
f 612/612/612 614/614/614 613/613/613
f 612/612/612 609/609/609 614/614/614
f 612/612/612 613/613/613 615/615/615
f 608/608/608 606/606/606 616/616/616
f 612/612/612 615/615/615 617/617/617
f 612/612/612 617/617/617 618/618/618
f 612/612/612 618/618/618 616/616/616
f 606/606/606 612/612/612 616/616/616
f 620/620/620 619/619/619 616/616/616
f 622/622/622 621/621/621 616/616/616
f 619/619/619 622/622/622 616/616/616
f 624/624/624 623/623/623 616/616/616
f 621/621/621 624/624/624 616/616/616
f 623/623/623 608/608/608 616/616/616
f 627/627/627 626/626/626 625/625/625
f 628/628/628 620/620/620 616/616/616
f 630/630/630 629/629/629 628/628/628
f 627/627/627 631/631/631 629/629/629
f 627/627/627 632/632/632 631/631/631
f 627/627/627 625/625/625 632/632/632
f 635/635/635 634/634/634 633/633/633
f 635/635/635 633/633/633 636/636/636
f 635/635/635 636/636/636 637/637/637
f 639/639/639 635/635/635 638/638/638
f 635/635/635 637/637/637 640/640/640
f 635/635/635 640/640/640 638/638/638
f 616/616/616 639/639/639 638/638/638
f 628/628/628 616/616/616 630/630/630
f 616/616/616 638/638/638 641/641/641
f 616/616/616 641/641/641 642/642/642
f 616/616/616 642/642/642 630/630/630
f 645/645/645 644/644/644 643/643/643
f 645/645/645 647/647/647 646/646/646
f 645/645/645 643/643/643 647/647/647
f 645/645/645 646/646/646 648/648/648
f 649/649/649 645/645/645 648/648/648
f 651/651/651 650/650/650 645/645/645
f 649/649/649 651/651/651 645/645/645
f 651/651/651 630/630/630 652/652/652
f 651/651/651 652/652/652 650/650/650
f 629/629/629 630/630/630 627/627/627
f 651/651/651 653/653/653 630/630/630
f 653/653/653 654/654/654 630/630/630
f 654/654/654 655/655/655 630/630/630
f 655/655/655 627/627/627 630/630/630
f 627/627/627 298/298/298 626/626/626
f 658/658/658 657/657/657 656/656/656
f 657/657/657 659/659/659 656/656/656
f 660/660/660 658/658/658 656/656/656
f 661/661/661 660/660/660 656/656/656
f 662/662/662 661/661/661 656/656/656
f 662/662/662 664/664/664 663/663/663
f 662/662/662 656/656/656 665/665/665
f 662/662/662 665/665/665 664/664/664
f 662/662/662 667/667/667 666/666/666
f 662/662/662 663/663/663 667/667/667
f 669/669/669 668/668/668 666/666/666
f 668/668/668 662/662/662 666/666/666
f 670/670/670 669/669/669 666/666/666
f 627/627/627 454/454/454 298/298/298
f 627/627/627 670/670/670 666/666/666
f 627/627/627 666/666/666 671/671/671
f 627/627/627 671/671/671 672/672/672
f 627/627/627 672/672/672 673/673/673
f 627/627/627 673/673/673 674/674/674
f 627/627/627 674/674/674 454/454/454
g cPK_10_002720_00_PIGEOTex_RR_L_SB_3
f 675/675/675 498/498/498 493/493/493
f 676/676/676 555/555/555 550/550/550
f 678/678/678 677/677/677 459/459/459
f 467/467/467 468/468/468 679/679/679
f 480/480/480 680/680/680 479/479/479
f 678/678/678 460/460/460 461/461/461
f 678/678/678 459/459/459 460/460/460
f 679/679/679 678/678/678 462/462/462
f 678/678/678 461/461/461 462/462/462
f 679/679/679 462/462/462 463/463/463
f 679/679/679 463/463/463 466/466/466
f 467/467/467 679/679/679 466/466/466
f 468/468/468 680/680/680 679/679/679
f 469/469/469 475/475/475 680/680/680
f 468/468/468 469/469/469 680/680/680
f 475/475/475 476/476/476 680/680/680
f 477/477/477 478/478/478 680/680/680
f 476/476/476 477/477/477 680/680/680
f 478/478/478 479/479/479 680/680/680
f 481/481/481 491/491/491 680/680/680
f 480/480/480 481/481/481 680/680/680
f 496/496/496 508/508/508 680/680/680
f 491/491/491 496/496/496 680/680/680
f 510/510/510 681/681/681 680/680/680
f 508/508/508 510/510/510 680/680/680
f 524/524/524 525/525/525 681/681/681
f 510/510/510 524/524/524 681/681/681
f 525/525/525 682/682/682 681/681/681
f 566/566/566 579/579/579 682/682/682
f 525/525/525 542/542/542 682/682/682
f 542/542/542 566/566/566 682/682/682
f 579/579/579 248/248/248 682/682/682
f 579/579/579 250/250/250 248/248/248
f 279/279/279 580/580/580 578/578/578
f 568/568/568 575/575/575 285/285/285
f 576/576/576 567/567/567 285/285/285
f 567/567/567 568/568/568 285/285/285
f 569/569/569 564/564/564 563/563/563
f 577/577/577 570/570/570 571/571/571
f 569/569/569 565/565/565 564/564/564
f 569/569/569 571/571/571 565/565/565
f 575/575/575 574/574/574 285/285/285
f 285/285/285 574/574/574 683/683/683
f 557/557/557 558/558/558 684/684/684
f 562/562/562 557/557/557 684/684/684
f 558/558/558 560/560/560 684/684/684
f 543/543/543 544/544/544 545/545/545
f 559/559/559 543/543/543 545/545/545
f 548/548/548 685/685/685 559/559/559
f 685/685/685 549/549/549 552/552/552
f 554/554/554 555/555/555 676/676/676
f 553/553/553 554/554/554 676/676/676
f 676/676/676 550/550/550 551/551/551
f 547/547/547 526/526/526 541/541/541
f 526/526/526 527/527/527 541/541/541
f 546/546/546 547/547/547 541/541/541
f 556/556/556 546/546/546 541/541/541
f 676/676/676 551/551/551 539/539/539
f 551/551/551 556/556/556 539/539/539
f 556/556/556 541/541/541 539/539/539
f 676/676/676 539/539/539 686/686/686
f 537/537/537 536/536/536 686/686/686
f 539/539/539 537/537/537 686/686/686
f 531/531/531 533/533/533 686/686/686
f 536/536/536 531/531/531 686/686/686
f 528/528/528 529/529/529 687/687/687
f 533/533/533 528/528/528 687/687/687
f 534/534/534 535/535/535 687/687/687
f 529/529/529 534/534/534 687/687/687
f 540/540/540 522/522/522 523/523/523
f 535/535/535 530/530/530 687/687/687
f 533/533/533 687/687/687 686/686/686
f 532/532/532 538/538/538 523/523/523
f 538/538/538 540/540/540 523/523/523
f 530/530/530 532/532/532 521/521/521
f 532/532/532 523/523/523 521/521/521
f 530/530/530 521/521/521 687/687/687
f 521/521/521 519/519/519 687/687/687
f 520/520/520 516/516/516 687/687/687
f 519/519/519 520/520/520 687/687/687
f 516/516/516 688/688/688 687/687/687
f 514/514/514 515/515/515 688/688/688
f 512/512/512 513/513/513 688/688/688
f 513/513/513 514/514/514 688/688/688
f 515/515/515 511/511/511 688/688/688
f 516/516/516 512/512/512 688/688/688
f 518/518/518 509/509/509 505/505/505
f 509/509/509 507/507/507 505/505/505
f 517/517/517 518/518/518 505/505/505
f 517/517/517 503/503/503 497/497/497
f 517/517/517 505/505/505 503/503/503
f 517/517/517 497/497/497 499/499/499
f 511/511/511 499/499/499 500/500/500
f 511/511/511 517/517/517 499/499/499
f 688/688/688 511/511/511 500/500/500
f 688/688/688 498/498/498 675/675/675
f 688/688/688 500/500/500 498/498/498
f 689/689/689 675/675/675 493/493/493
f 689/689/689 483/483/483 472/472/472
f 689/689/689 484/484/484 485/485/485
f 689/689/689 485/485/485 483/483/483
f 689/689/689 486/486/486 484/484/484
f 689/689/689 494/494/494 486/486/486
f 502/502/502 487/487/487 486/486/486
f 494/494/494 495/495/495 486/486/486
f 495/495/495 501/501/501 486/486/486
f 501/501/501 502/502/502 486/486/486
f 504/504/504 490/490/490 487/487/487
f 502/502/502 504/504/504 487/487/487
f 504/504/504 506/506/506 490/490/490
f 506/506/506 492/492/492 490/490/490
f 690/690/690 689/689/689 472/472/472
f 474/474/474 464/464/464 452/452/452
f 690/690/690 472/472/472 473/473/473
f 690/690/690 473/473/473 474/474/474
f 482/482/482 488/488/488 464/464/464
f 690/690/690 474/474/474 452/452/452
f 474/474/474 482/482/482 464/464/464
f 489/489/489 471/471/471 465/465/465
f 488/488/488 465/465/465 464/464/464
f 488/488/488 489/489/489 465/465/465
f 489/489/489 470/470/470 471/471/471
f 690/690/690 449/449/449 450/450/450
f 690/690/690 452/452/452 449/449/449
f 451/451/451 459/459/459 677/677/677
f 690/690/690 450/450/450 451/451/451
f 690/690/690 451/451/451 677/677/677
f 689/689/689 493/493/493 494/494/494
f 569/569/569 561/561/561 562/562/562
f 569/569/569 563/563/563 561/561/561
f 691/691/691 573/573/573 569/569/569
f 691/691/691 572/572/572 573/573/573
f 691/691/691 574/574/574 572/572/572
f 691/691/691 683/683/683 574/574/574
f 569/569/569 562/562/562 684/684/684
f 577/577/577 571/571/571 569/569/569
f 569/569/569 684/684/684 691/691/691
f 676/676/676 685/685/685 552/552/552
f 553/553/553 676/676/676 552/552/552
f 685/685/685 548/548/548 549/549/549
f 685/685/685 560/560/560 559/559/559
f 559/559/559 545/545/545 548/548/548
f 685/685/685 684/684/684 560/560/560
f 279/279/279 578/578/578 576/576/576
f 279/279/279 281/281/281 580/580/580
f 279/279/279 576/576/576 285/285/285
f 693/693/693 692/692/692 582/582/582
f 623/623/623 624/624/624 694/694/694
f 382/382/382 663/663/663 664/664/664
f 695/695/695 646/646/646 647/647/647
f 696/696/696 613/613/613 614/614/614
f 697/697/697 597/597/597 596/596/596
f 583/583/583 589/589/589 693/693/693
f 582/582/582 583/583/583 693/693/693
f 593/593/593 698/698/698 693/693/693
f 589/589/589 590/590/590 693/693/693
f 590/590/590 593/593/593 693/693/693
f 595/595/595 598/598/598 698/698/698
f 593/593/593 595/595/595 698/698/698
f 600/600/600 694/694/694 698/698/698
f 598/598/598 599/599/599 698/698/698
f 599/599/599 600/600/600 698/698/698
f 600/600/600 607/607/607 694/694/694
f 608/608/608 694/694/694 607/607/607
f 608/608/608 623/623/623 694/694/694
f 622/622/622 699/699/699 694/694/694
f 624/624/624 621/621/621 694/694/694
f 621/621/621 622/622/622 694/694/694
f 619/619/619 620/620/620 699/699/699
f 622/622/622 619/619/619 699/699/699
f 628/628/628 629/629/629 699/699/699
f 620/620/620 628/628/628 699/699/699
f 631/631/631 632/632/632 699/699/699
f 629/629/629 631/631/631 699/699/699
f 632/632/632 625/625/625 699/699/699
f 625/625/625 294/294/294 699/699/699
f 626/626/626 298/298/298 294/294/294
f 625/625/625 626/626/626 294/294/294
f 672/672/672 671/671/671 382/382/382
f 388/388/388 672/672/672 382/382/382
f 457/457/457 673/673/673 672/672/672
f 388/388/388 457/457/457 672/672/672
f 455/455/455 454/454/454 674/674/674
f 457/457/457 674/674/674 673/673/673
f 458/458/458 456/456/456 674/674/674
f 456/456/456 455/455/455 674/674/674
f 457/457/457 458/458/458 674/674/674
f 382/382/382 671/671/671 666/666/666
f 382/382/382 666/666/666 667/667/667
f 382/382/382 667/667/667 663/663/663
f 382/382/382 664/664/664 665/665/665
f 382/382/382 665/665/665 695/695/695
f 665/665/665 656/656/656 695/695/695
f 656/656/656 659/659/659 695/695/695
f 659/659/659 657/657/657 695/695/695
f 658/658/658 660/660/660 695/695/695
f 657/657/657 658/658/658 695/695/695
f 660/660/660 661/661/661 695/695/695
f 649/649/649 648/648/648 695/695/695
f 651/651/651 649/649/649 695/695/695
f 653/653/653 651/651/651 695/695/695
f 654/654/654 653/653/653 695/695/695
f 661/661/661 662/662/662 695/695/695
f 662/662/662 655/655/655 654/654/654
f 662/662/662 654/654/654 695/695/695
f 670/670/670 627/627/627 655/655/655
f 662/662/662 668/668/668 655/655/655
f 668/668/668 669/669/669 655/655/655
f 669/669/669 670/670/670 655/655/655
f 695/695/695 648/648/648 646/646/646
f 695/695/695 647/647/647 643/643/643
f 700/700/700 695/695/695 643/643/643
f 652/652/652 630/630/630 642/642/642
f 700/700/700 643/643/643 644/644/644
f 652/652/652 642/642/642 641/641/641
f 645/645/645 650/650/650 638/638/638
f 645/645/645 638/638/638 640/640/640
f 644/644/644 645/645/645 640/640/640
f 700/700/700 640/640/640 637/637/637
f 700/700/700 637/637/637 636/636/636
f 700/700/700 644/644/644 640/640/640
f 700/700/700 636/636/636 696/696/696
f 633/633/633 634/634/634 696/696/696
f 617/617/617 615/615/615 696/696/696
f 634/634/634 617/617/617 696/696/696
f 635/635/635 618/618/618 617/617/617
f 634/634/634 635/635/635 617/617/617
f 639/639/639 616/616/616 618/618/618
f 635/635/635 639/639/639 618/618/618
f 696/696/696 615/615/615 613/613/613
f 696/696/696 609/609/609 697/697/697
f 696/696/696 614/614/614 609/609/609
f 610/610/610 611/611/611 697/697/697
f 609/609/609 610/610/610 697/697/697
f 603/603/603 605/605/605 697/697/697
f 611/611/611 601/601/601 604/604/604
f 604/604/604 602/602/602 697/697/697
f 602/602/602 603/603/603 697/697/697
f 605/605/605 597/597/597 697/697/697
f 611/611/611 604/604/604 697/697/697
f 612/612/612 606/606/606 601/601/601
f 611/611/611 612/612/612 601/601/601
f 697/697/697 596/596/596 594/594/594
f 701/701/701 591/591/591 588/588/588
f 701/701/701 594/594/594 592/592/592
f 701/701/701 697/697/697 594/594/594
f 701/701/701 592/592/592 591/591/591
f 701/701/701 587/587/587 692/692/692
f 701/701/701 588/588/588 587/587/587
f 586/586/586 585/585/585 692/692/692
f 587/587/587 586/586/586 692/692/692
f 584/584/584 581/581/581 692/692/692
f 585/585/585 584/584/584 692/692/692
f 581/581/581 582/582/582 692/692/692
f 641/641/641 638/638/638 650/650/650
f 636/636/636 633/633/633 696/696/696
f 650/650/650 652/652/652 641/641/641
