g cPK_10_001530_00_GARAGARAex_RR_L_SB
v 0.098332234 0.049156245 -0.010374631
v 0.09066005 0.024304505 -0.010600481
v 0.10872692 0.015178508 -0.009198529
v -0.007878941 -0.043222 -0.009198501
v 0.034087505 -0.042856384 -0.009198501
v -0.0043270113 -0.02785558 -0.009795716
v 0.03993317 -0.02205826 -0.010364844
v 0.06664215 -0.029939143 -0.009198529
v 0.085231796 0.014781797 -0.010702636
v 0.07177141 -0.00087812153 -0.010368621
v 0.11196416 0.086746715 -0.009198529
v -0.066932686 0.008919388 -0.009210377
v -0.07778046 0.029722366 -0.009210377
v -0.08774724 0.009554835 -0.009198502
v 0.098590694 0.068053775 -0.010452529
v 0.090301104 0.09014983 -0.0107738655
v 0.09044213 0.12657742 -0.009722693
v 0.083933376 0.10171648 -0.010994999
v 0.0726902 0.12282415 -0.011247817
v -0.10002822 0.04157503 -0.009198502
v -0.08102444 0.040901244 -0.009210377
v -0.0808026 0.07579358 -0.009349538
v -0.091433 0.095815726 -0.009536008
v -0.07634122 0.09940318 -0.010058215
v -0.080890894 0.12068981 -0.010528478
v -0.06306132 0.12141537 -0.01122466
v 0.064517036 0.13866447 -0.011485095
v 0.07476208 0.15795337 -0.010128435
v 0.057964083 0.1540147 -0.0119448
v 0.055698495 0.17020059 -0.012916016
v 0.06454617 0.18684 -0.0110227475
v 0.04419803 0.17637874 -0.012916016
v 0.029796576 0.18026422 -0.012772882
v 0.016492832 0.20078528 -0.010392011
v 0.01711898 0.18180797 -0.012501666
v -0.016103663 0.1606242 -0.012889481
v -0.008924225 0.16371854 -0.012807006
v -0.013927178 0.17157608 -0.01270425
v 0.00038695458 0.16508389 -0.01279254
v -0.074538775 0.15396595 -0.010972672
v -0.060259677 0.14653765 -0.012097227
v -0.059186157 0.16107865 -0.012358582
v -0.06718094 0.20365651 -0.009734201
v -0.057539005 0.17640428 -0.012198504
v -0.05523184 0.18713532 -0.012139955
v -0.04974695 0.19270633 -0.012082269
v -0.049130097 0.21625622 -0.009706526
v -0.041048132 0.19635873 -0.012042941
v -0.027896542 0.2162361 -0.009926658
v -0.0327148 0.19652088 -0.012171752
v -0.00942344 0.2075933 -0.01027487
v -0.023711957 0.19303693 -0.012346152
v -0.015336792 0.18674745 -0.012548804
v -0.06399533 -0.018477945 -0.009198501
v -0.039255537 -0.017507633 -0.009210377
v -0.037213318 -0.036893662 -0.009198501
v -0.1682813 0.28861368 -0.0132813975
v -0.15583839 0.27879104 -0.0132813975
v -0.15432006 0.28314584 -0.0132813975
v -0.1571218 0.30386662 -0.0132813975
v -0.14818838 0.2898747 -0.0132813975
v -0.12209304 0.32275578 -0.013808461
v -0.13280009 0.2981084 -0.013526799
v -0.11969843 0.30037308 -0.013786002
v -0.10957382 0.2970598 -0.013808461
v -0.08184328 0.29593188 -0.013808461
v -0.09879034 0.2883569 -0.01499516
v -0.0885179 0.27975586 -0.013808461
v -0.0791573 0.28057793 -0.013808461
v -0.04804952 0.29950717 -0.013808461
v -0.042856816 0.2847188 -0.013155991
v -0.029579464 0.2865568 -0.013808461
v -0.034034874 0.3021786 -0.013808461
v -0.02383921 0.29082236 -0.013808461
v -0.016884722 0.29992977 -0.013808461
v -0.017949423 0.319618 -0.013808461
v -0.008465859 0.30178246 -0.013808461
v 0.0075703138 0.3134415 -0.013808461
v -0.022402141 0.22722249 -0.013842672
v 0.010619655 0.21785808 -0.013987114
v -0.0068288096 0.24370284 -0.013808461
v 0.007685286 0.23894322 -0.013808461
v 0.020446148 0.24235718 -0.013808461
v 0.041511934 0.23789588 -0.013808461
v -0.014130779 0.21235327 -0.016817002
v 0.0035764517 0.19029704 -0.016223012
v -0.011527109 0.19406465 -0.01749439
v -0.018968573 0.16460656 -0.01708809
v -0.010600998 0.14769855 -0.017385768
v -0.068975985 0.15085581 -0.013479051
v -0.058798105 0.17375953 -0.015003358
v -0.0739033 0.1864648 -0.014287427
v -0.15360834 0.22143178 -0.013808461
v -0.11380281 0.21711734 -0.012879687
v -0.1395441 0.23541749 -0.014369058
v -0.122128665 0.23386312 -0.014066386
v -0.10732007 0.23189893 -0.014131218
v -0.07775287 0.2135231 -0.01429555
v -0.06270643 0.20347488 -0.014330861
v -0.058674186 0.190971 -0.014578198
v -0.05956737 0.19782865 -0.014428608
v -0.05745216 0.13681594 -0.018874671
v -0.05009631 0.17137013 -0.018616956
v -0.032101482 0.14255847 -0.019467417
v -0.026638884 0.16606174 -0.01912938
v -0.022525333 0.1449974 -0.017330563
v 0.118925944 0.22393404 -0.021517998
v 0.13042511 0.20950906 -0.021517998
v 0.13051353 0.22464672 -0.021517998
v 0.14719853 0.21463542 -0.021517998
v 0.16436654 0.2517198 -0.021517998
v 0.14381175 0.23514418 -0.021517998
v 0.14819466 0.25574228 -0.021517998
v 0.15323451 0.2786683 -0.021517998
v 0.157622 0.29877034 -0.021517998
v 0.17302428 0.29181346 -0.021517998
v 0.17522858 0.30810305 -0.021517998
v 0.15946147 0.30903223 -0.021517998
v 0.17276685 0.32107848 -0.021517998
v 0.15959267 0.31441647 -0.021517998
v 0.15651609 0.31637102 -0.021517998
v 0.15637207 0.3311333 -0.021517998
v 0.15095752 0.31470618 -0.021517998
v 0.14309253 0.31040496 -0.021517998
v 0.11193442 0.30943665 -0.021517998
v 0.12598865 0.2999125 -0.021517998
v 0.101559125 0.28619477 -0.021517998
v 0.08893569 0.24338631 -0.021517988
v 0.088541314 0.26455414 -0.021517998
v 0.074265495 0.2610008 -0.021517998
v 0.08180778 0.2847741 -0.021517998
v 0.09428911 0.2781999 -0.021517998
v 0.10573522 0.21127672 -0.021517998
v 0.1061767 0.22559527 -0.021517998
v 0.08133335 0.2330761 -0.021517998
v 0.09180905 0.22067003 -0.021517998
v 0.09583895 0.23282795 -0.021517998
v 0.09877213 0.21597338 -0.021517998
v 0.10100782 0.22921161 -0.021517998
v 0.06995954 0.32882124 -0.029242013
v 0.040802762 0.33185107 -0.029318223
v 0.05360802 0.31556165 -0.028998414
v 0.03404858 0.31627694 -0.02904599
v 0.019290727 0.31651613 -0.028636638
v -0.085742004 0.20441166 -0.015568738
v -0.08834301 0.21136181 -0.015651153
v -0.1027203 0.21478231 -0.015720274
v -0.0982987 0.19122858 -0.016393108
v -0.088445425 0.21948011 -0.015905956
v -0.08657118 0.23089619 -0.017183742
v -0.098163195 0.24116431 -0.01898202
v -0.07968251 0.2404907 -0.018271513
v -0.079630904 0.26184773 -0.021660903
v -0.06523418 0.253996 -0.019937404
v -0.052924197 0.26819164 -0.022403017
v -0.06030804 0.28424406 -0.025717696
v -0.045331985 0.28206894 -0.025138885
v -0.042975854 0.2937116 -0.026620422
v -0.054915797 0.31153616 -0.027930886
v -0.042348463 0.30492887 -0.027529025
v -0.041876417 0.31667438 -0.028076112
v -0.05404816 0.3494047 -0.029318223
v -0.04150813 0.33668172 -0.028597852
v -0.04125909 0.3537253 -0.029007647
v -0.04097866 0.36398092 -0.029318223
v -0.05105513 0.37237355 -0.029318223
v -0.0389821 0.36753935 -0.029318223
v -0.030092759 0.3792229 -0.029318223
v -0.036403697 0.36827514 -0.029318223
v -0.03316026 0.3672322 -0.029318223
v 0.0064707757 0.34970197 -0.029318223
v -0.024973456 0.35880497 -0.029318223
v -0.017065197 0.34981856 -0.029054118
v -0.005524638 0.33671516 -0.028778112
v 0.009185934 0.3216213 -0.028636638
v 0.08681771 0.30745688 -0.028109789
v 0.11406415 0.2924037 -0.027156735
v 0.12820567 0.30200318 -0.027092252
v -0.08053667 0.2008897 -0.015937213
v -0.0746566 0.16866946 -0.018563867
v -0.06756585 0.19299379 -0.016891656
v -0.060269326 0.18704636 -0.017675774
v -0.05740289 0.17614856 -0.018228142
v -0.05639542 0.1655825 -0.018778672
v -0.05580767 0.15524171 -0.019101104
v -0.07039308 0.13639824 -0.019557588
v -0.05409188 0.1409239 -0.019101104
v -0.049457505 0.13103884 -0.019162541
v -0.053408492 0.11147 -0.020558
v -0.03408402 0.12823477 -0.019162541
v -0.04266971 0.12867875 -0.019162541
v -0.025297133 0.107279055 -0.021474399
v -0.016188163 0.12707548 -0.019965231
v 0.0016901408 0.11009864 -0.021606555
v -0.008068314 0.09264856 -0.023135731
v 0.09017843 0.32237598 -0.028325846
v 0.1305549 0.278171 -0.026755646
v 0.14028183 0.26372468 -0.026866784
v 0.15344135 0.27526686 -0.027360726
v 0.14672083 0.24752252 -0.026589448
v 0.1658791 0.23140948 -0.02704377
v 0.14836966 0.23039499 -0.02612657
v 0.12994885 0.13799523 -0.026983649
v 0.15107119 0.14735302 -0.027430356
v 0.13268262 0.15265557 -0.025969638
v 0.13930613 0.15703861 -0.026137656
v 0.14612995 0.21083312 -0.02561085
v 0.16801374 0.18592644 -0.027196318
v 0.14707027 0.19727194 -0.025840417
v 0.14769714 0.18823117 -0.025837881
v 0.14429925 0.17104857 -0.025756901
v 0.083621405 0.078216895 -0.013903493
v 0.07500636 0.09506245 -0.014034561
v 0.06161202 0.08699881 -0.01754171
v 0.06917705 0.062825754 -0.01719274
v 0.08973894 0.055901356 -0.013501564
v 0.07145875 0.03178371 -0.016114065
v 0.072441936 0.012710193 -0.013850856
v 0.09024976 0.037382454 -0.012956157
v -0.040610712 0.18331702 -0.014691398
v 0.066007584 0.1162365 -0.013953445
v 0.0409583 0.15130338 -0.015369791
v 0.042324457 0.13026889 -0.016855756
v 0.053614505 0.110268824 -0.016884599
v 0.04107598 -0.010090965 -0.014673004
v 0.05794841 0.018659307 -0.01709803
v 0.043003794 0.07769886 -0.019507129
v 0.043621335 0.04904483 -0.019981569
v 0.038931783 0.106411316 -0.018382607
v -0.06555077 0.023390999 -0.010962755
v -0.07318222 0.04153205 -0.01080462
v -0.060538508 0.040027108 -0.012972203
v -0.072493896 0.06184056 -0.011232273
v -0.027147308 0.09773987 -0.01666217
v -0.05836898 0.08399499 -0.0136074005
v -0.044114262 0.07039486 -0.01499013
v 0.0028277393 0.110684685 -0.018219966
v 0.018887358 0.13406512 -0.017318858
v 0.0035829612 0.13949428 -0.016272819
v -0.010531218 0.11818814 -0.016814018
v 0.024456019 0.15438646 -0.015687168
v 0.012387586 0.15790331 -0.01535809
v 0.0011307853 -0.017288288 -0.014085296
v 0.044438075 0.011147945 -0.017836986
v 0.026254928 0.0059915264 -0.017928585
v 0.017184822 0.07498159 -0.019576196
v 0.012605327 0.04353229 -0.019730581
v 0.021273492 0.106265545 -0.018867418
v -0.009590897 0.08304581 -0.01823254
v -0.020527398 0.051482864 -0.017786449
v 0.006510047 0.005254057 -0.017478062
v -0.013352439 0.008430223 -0.016687859
v -0.037929397 -0.004162471 -0.0125599
v -0.040609557 0.11278512 -0.015869627
v -0.004813909 0.14727503 -0.0153618185
v -0.021040758 0.12741919 -0.016545778
v -0.053192068 0.12159939 -0.014200255
v -0.042435404 0.1684149 -0.01485261
v -0.04392467 0.15430348 -0.015092921
v -0.032653224 0.01719658 -0.0155673865
v -0.06957558 0.09381742 -0.0122911
v -0.047742546 0.027497152 -0.01448518
v -0.045309063 0.13704416 -0.015249706
v -0.026464213 0.14059262 -0.016070832
v -0.027611151 0.18268903 -0.0147662135
v -0.028272768 0.15568514 -0.0154720545
v -0.01829421 0.15136449 -0.015475291
v -0.027851421 0.16874707 -0.015036198
v -0.15336543 0.27418873 -0.0132813975
v -0.14377895 0.27518582 -0.016420878
v -0.13925907 0.28620982 -0.017176239
v -0.080134794 0.2712958 -0.0145784635
v -0.06115414 0.25668964 -0.014608502
v -0.03987494 0.2591276 -0.015768414
v -0.041910034 0.27626717 -0.015768414
v -0.05462265 0.2128015 -0.017360916
v -0.06935757 0.22403167 -0.01715619
v -0.048133664 0.19582967 -0.017828232
v -0.051130056 0.20424555 -0.017549675
v -0.04810899 0.19145209 -0.017982526
v -0.10241493 0.24365686 -0.01717624
v -0.12058488 0.2414246 -0.016873766
v -0.1515435 0.23862743 -0.013808461
v -0.14104344 0.2390564 -0.015684322
v -0.13286301 0.29084322 -0.017176235
v -0.09286185 0.2669586 -0.01717624
v -0.11120933 0.288287 -0.01717624
v -0.04000407 0.2301137 -0.01718389
v -0.033639267 0.23789795 -0.013808461
v -0.0500496 0.24890482 -0.013304082
v -0.05629611 0.24069248 -0.017169772
v -0.030657211 0.22043745 -0.017297748
v -0.022955274 0.20806506 -0.017629847
v -0.022079153 0.19331105 -0.018166138
v -0.11678614 0.2604122 -0.017929018
v -0.12531322 0.27883488 -0.017929014
v -0.12121749 0.2931329 -0.017176235
v -0.1331529 0.26674494 -0.016420878
v -0.12713067 0.24920943 -0.016420878
v -0.13423164 0.23957615 -0.016420878
v -0.12950514 0.23723295 -0.015941544
v -0.021631572 0.26014215 -0.016420884
v -0.02468937 0.27772027 -0.016420884
v -0.017433118 0.284134 -0.016420878
v 0.016303785 0.25250572 -0.016420878
v 0.017182285 0.2648056 -0.016420878
v 0.0050581284 0.2772812 -0.016420878
v 0.008045263 0.24864006 -0.016420878
v -0.0053088926 0.25338423 -0.016420878
v -0.00038893576 0.2883511 -0.016420878
v -0.009701718 0.2920411 -0.016420878
v -0.038701218 0.24972036 -0.013155991
v -0.019985462 0.24995553 -0.013808461
v 0.022888638 0.27250308 -0.013808461
v 0.01154809 0.28172204 -0.013808461
v 0.026697552 0.25162777 -0.013808461
v 0.027858421 0.2641193 -0.013808461
v 0.009362896 0.29123387 -0.013808461
v 0.0020117857 0.29791245 -0.013808461
v 0.14726909 0.30700442 -0.02280358
v 0.15030913 0.30442506 -0.023412948
v 0.15591377 0.3111535 -0.02246581
v 0.15334916 0.30184564 -0.023078782
v 0.13928434 0.2896392 -0.025004713
v 0.14753047 0.2831388 -0.023785414
v 0.12556908 0.27081534 -0.025960172
v 0.14117508 0.26081905 -0.024200527
v 0.11586495 0.250015 -0.025916044
v 0.13401614 0.24035655 -0.024594342
v 0.108211055 0.23584448 -0.024322605
v 0.118530326 0.23020326 -0.02359984
v 0.097891785 0.24148571 -0.023338716
v 0.09771376 0.25967342 -0.023811951
v 0.10996305 0.28081167 -0.023925325
v 0.13103823 0.29613963 -0.023510212
v -0.02589716 0.22705482 -0.026862869
v -0.017163726 0.2537273 -0.031249035
v -0.028631506 0.2667588 -0.030949384
v -0.038661532 0.2381804 -0.027465144
v -0.06490714 0.2022624 -0.022395467
v -0.08144824 0.20573477 -0.021863747
v -0.03708451 0.28602347 -0.030069506
v 0.1373052 0.17904146 -0.02671647
v 0.12830521 0.16686247 -0.027048811
v 0.060376197 0.26850832 -0.04091452
v 0.0568927 0.29322514 -0.037281003
v 0.022434404 0.28460643 -0.03820667
v 0.14137498 0.23912783 -0.029292872
v 0.11896026 0.25646755 -0.034786493
v 0.118023746 0.23746152 -0.036262594
v 0.11622705 0.27626666 -0.032037556
v 0.088751644 0.2897528 -0.03454415
v 0.090520196 0.26644918 -0.03840319
v 0.14089237 0.25349143 -0.028666575
v 0.015888155 0.3068119 -0.03371734
v 0.008324973 0.3006433 -0.036161546
v 0.091307156 0.24639688 -0.04037035
v 0.06323689 0.24727905 -0.04247283
v 0.030241782 0.26159403 -0.0407739
v 0.12745419 0.20136176 -0.03208259
v 0.11388941 0.21302655 -0.036725093
v 0.107965745 0.19003496 -0.036587995
v 0.117533006 0.18186375 -0.033430744
v 0.09065976 0.22356048 -0.04094573
v 0.08941199 0.19829336 -0.040043693
v 0.06588309 0.22583525 -0.04227175
v 0.07039442 0.19886887 -0.0406884
v 0.047302283 0.22096984 -0.041074768
v 0.056277465 0.1963006 -0.039803017
v 0.03359734 0.21356364 -0.03803678
v 0.03940495 0.2403378 -0.04132976
v 0.011058319 0.25117478 -0.03764669
v -0.031181375 0.35875666 -0.031000335
v 0.08717963 0.30041718 -0.031193508
v 0.113850735 0.28756753 -0.029207602
v 0.12979041 0.27318874 -0.028555641
v 0.108660154 0.16025631 -0.033839688
v 0.1005037 0.16530663 -0.036660742
v 0.08871822 0.16768949 -0.038726356
v 0.07624348 0.16870962 -0.03921923
v 0.055588573 0.1627192 -0.035338897
v 0.058620285 0.1641428 -0.03720414
v 0.045112055 0.19231632 -0.03737692
v 0.042790364 0.18166552 -0.033613842
v 0.03609616 0.1894229 -0.03315245
v 0.028245587 0.17258684 -0.02910839
v 0.036899175 0.16802464 -0.030394698
v 0.022544516 0.20605302 -0.032382857
v 0.011393434 0.18426919 -0.027290722
v 0.010755285 0.22297159 -0.031993598
v -0.0017836068 0.2389936 -0.031853575
v -0.0062662386 0.19703865 -0.026293188
v -0.0023946343 0.19402483 -0.026516452
v -0.050516296 0.25149605 -0.027272517
v -0.010382382 0.21275449 -0.026536806
v -0.040118285 0.20855477 -0.024477337
v -0.02666103 0.19133365 -0.024065768
v -0.053256847 0.21836896 -0.024799852
v -0.071467735 0.22957812 -0.024223369
v 0.005584293 0.12435237 -0.02517899
v -0.01237436 0.13820577 -0.02413771
v -0.030962858 0.1399933 -0.023831941
v -0.044443186 0.175571 -0.023544526
v -0.049266998 0.19704035 -0.022950597
v -0.0103094755 0.16262396 -0.02396204
v -0.020294113 0.17518987 -0.024036475
v -0.041967697 0.14029717 -0.023832873
v 0.023216419 0.13358842 -0.025415575
v 0.006093748 0.14944127 -0.024411064
v -0.04375935 0.15557444 -0.023840604
v 0.13714777 0.2235478 -0.030466247
v 0.022822041 0.23115693 -0.03786243
v 0.121286504 0.17737637 -0.031036824
v 0.1340461 0.19403514 -0.028016511
v -0.0023318487 0.2685865 -0.036652025
v 0.05489425 0.3056744 -0.03324828
v -0.036998473 0.3569859 -0.031346824
v -0.014106405 0.25674874 -0.03321264
v -0.013254225 0.28106594 -0.035696555
v -0.023215476 0.27173087 -0.033202402
v -0.039651632 0.35495546 -0.0307231
v -0.0039176936 0.31532964 -0.03476108
v -0.022312598 0.29810843 -0.03515168
v -0.030195346 0.29165947 -0.033004396
v 0.037912942 0.19039415 -0.03457218
v 0.043541063 0.18293126 -0.034872733
v 0.025233706 0.20788038 -0.034118015
v 0.013610723 0.22490852 -0.033758286
v 0.0013260657 0.24194327 -0.033337306
v -0.017845707 0.33353454 -0.03344923
v -0.030591113 0.32782713 -0.034297675
v -0.03755959 0.3205251 -0.032466706
v -0.026050186 0.34836027 -0.032218903
v -0.03459423 0.34467787 -0.032881003
v -0.038576666 0.3400721 -0.031828914
v 0.025317628 0.16740377 -0.028089494
v 0.042246163 0.14778104 -0.027755177
v 0.050956674 0.15879236 -0.032376643
v 0.11880376 0.14603871 -0.028287878
v 0.12549773 0.17106806 -0.028412625
v 0.11474631 0.15172575 -0.029990261
v 0.13600156 0.18503892 -0.026880924
v 0.053300686 0.16077955 -0.0340676
v 0.064974956 0.165818 -0.03851899
v -0.26758364 0.19662918 -0.013808461
v -0.25703275 0.21221724 -0.013808461
v -0.2861552 0.21425293 -0.013808461
v -0.2718813 0.22484794 -0.013808461
v -0.29332274 0.23489586 -0.013808461
v -0.27279946 0.23200588 -0.013808461
v -0.30230826 0.2535638 -0.013808461
v -0.28753653 0.25508383 -0.013808461
v -0.28332508 0.2479388 -0.013808461
v -0.2714409 0.23926242 -0.013808461
v -0.29566333 0.2790664 -0.013808461
v -0.28620157 0.26705202 -0.013808461
v -0.27963364 0.2784233 -0.014537493
v -0.27858827 0.2980338 -0.013808461
v -0.2697619 0.28453934 -0.013808461
v -0.25085923 0.29779235 -0.013808461
v -0.25845313 0.28491557 -0.013808461
v -0.24086587 0.27834642 -0.013808461
v -0.22177799 0.28534055 -0.013808461
v -0.22638623 0.27256373 -0.013808461
v -0.20757046 0.27164897 -0.013808461
v -0.18239325 0.27248096 -0.013808461
v -0.15572223 0.27405006 -0.013324191
v 0.018025188 0.3047618 -0.013808461
v 0.028244335 0.2937735 -0.013808461
v 0.045395542 0.27611098 -0.013808461
v -0.23807052 0.19050503 -0.013808461
v -0.244942 0.2088964 -0.013808461
v -0.23662941 0.20998433 -0.013808461
v -0.20747426 0.20986338 -0.013808461
v -0.23036793 0.2157044 -0.013808461
v -0.21833317 0.22720419 -0.013808461
v -0.20326391 0.23124091 -0.013808461
v -0.17921595 0.21807854 -0.013808461
v -0.1777574 0.23528786 -0.013808461
v 0.3266283 0.07437184 -0.032146167
v 0.33169788 0.10574695 -0.032030277
v 0.31636795 0.08419899 -0.031816766
v 0.31577063 0.09634214 -0.032431737
v 0.31052274 0.12748158 -0.032724828
v 0.31025183 0.10642045 -0.032856826
v 0.29970214 0.11309973 -0.033063296
v 0.28141162 0.13681784 -0.03284214
v 0.27219537 0.121816196 -0.03262528
v 0.2393676 0.14210804 -0.03088829
v 0.2506561 0.12546125 -0.031174663
v 0.22272101 0.12710562 -0.028886825
v 0.05491641 0.10715514 -0.020273697
v 0.07347021 0.107769564 -0.021702027
v 0.06147104 0.14875719 -0.020273697
v 0.07660469 0.1366985 -0.021292116
v 0.08144024 0.14603657 -0.020310916
v 0.07618862 0.16293854 -0.020273697
v 0.12170654 0.15301983 -0.021105172
v 0.09963407 0.14150488 -0.020719912
v 0.11391564 0.1369936 -0.021433676
v 0.19943285 0.14986561 -0.028183544
v 0.19284575 0.1341921 -0.026957069
v 0.21000014 0.12957397 -0.028155942
v 0.16304807 0.15242307 -0.02464925
v 0.16786532 0.13618703 -0.024862139
v 0.1561015 0.1355676 -0.023833666
v 0.13543108 0.13548099 -0.022460861
v 0.07174784 0.06294628 -0.020301716
v 0.08159929 0.08340906 -0.021889707
v 0.09132046 0.073396616 -0.01988425
v 0.11416735 0.06181376 -0.021648789
v 0.10670482 0.08347623 -0.020181054
v 0.3067134 0.07665261 -0.030213768
v 0.29265192 0.054717686 -0.029026596
v 0.2879725 0.075359695 -0.028430462
v 0.27290222 0.066812135 -0.026992846
v 0.2682038 0.045480642 -0.027638355
v 0.23526788 0.05765267 -0.024302049
v 0.23271814 0.039779376 -0.025585106
v 0.20848761 0.051195543 -0.023922877
v 0.20251024 0.01771358 -0.029755045
v 0.18986283 0.045387924 -0.026471034
v 0.18630534 0.04429124 -0.028990427
v 0.12225349 0.08409771 -0.02094364
v 0.14285119 0.079178974 -0.022671059
v 0.18830983 0.030499324 -0.030674372
v 0.18379542 0.01956722 -0.031533312
v 0.1720656 -0.00044191844 -0.02651147
v 0.1741279 0.014507777 -0.029434908
v 0.16639458 0.018583348 -0.027987331
v 0.15615271 0.028530994 -0.025513057
v 0.13727503 0.025857424 -0.022075355
v 0.14609466 0.04368045 -0.023941217
v 0.14169578 0.062496234 -0.022866312
v 0.15924938 0.022034783 -0.031387396
v 0.16445953 0.007375376 -0.028819902
v 0.17261685 0.01967222 -0.030690735
v 0.17698528 0.016885854 -0.030403567
v 0.18419841 -0.0027106393 -0.031332184
v 0.18463825 0.013267103 -0.03159588
v 0.20561714 -0.001938715 -0.034620825
v 0.19269286 0.010752891 -0.032846928
v 0.19802873 0.010330466 -0.033705715
v 0.21058361 0.015553956 -0.03431839
v 0.1714614 0.024024064 -0.031788047
v 0.16543311 0.037632797 -0.033434406
v 0.17423101 0.029287232 -0.032480553
v 0.17788427 0.033075497 -0.03302957
v 0.17752917 0.044109207 -0.034900762
v 0.18196386 0.03498436 -0.032964267
v 0.19399863 0.04192271 -0.034451313
v 0.18624984 0.03380329 -0.032104265
v 0.19105105 0.023134729 -0.03276516
v 0.19479851 0.015897697 -0.03318718
v 0.08919791 0.053785276 -0.028724326
v 0.07190359 0.054580063 -0.02792996
v 0.08632926 0.035476502 -0.028957982
v 0.05109595 0.042687073 -0.02754938
v 0.05519404 0.057979383 -0.026777877
v 0.029064393 0.05668204 -0.026584556
v 0.045039654 0.06310749 -0.02599143
v 0.03672131 0.0707287 -0.024917126
v 0.029547123 0.08071398 -0.024190404
v 0.096935846 0.056104638 -0.029172504
v 0.1190476 0.051963538 -0.029304272
v 0.10366352 0.061193384 -0.029550126
v 0.10782665 0.0697101 -0.029519906
v 0.12991801 0.085598804 -0.028767917
v 0.10913318 0.08081221 -0.029213125
v 0.11267441 0.09607383 -0.028886268
v 0.11805793 0.100601785 -0.029068604
v 0.1254055 0.11718358 -0.028081516
v 0.018201416 0.09459381 -0.022974001
v 0.008326516 0.07843133 -0.024744809
v -0.2621376 0.27725953 -0.017687678
v -0.27461368 0.2650061 -0.017951248
v -0.2714605 0.25270864 -0.017812315
v -0.15348522 0.2656054 -0.016420878
v -0.15210198 0.2468593 -0.016420878
v -0.18161802 0.26396367 -0.01620794
v -0.18001597 0.24492446 -0.016513905
v -0.20652877 0.26294616 -0.016420878
v -0.2042508 0.24177817 -0.016849343
v -0.22599845 0.26379383 -0.017369807
v -0.2224928 0.23811534 -0.018166991
v -0.2451314 0.27064446 -0.017881634
v -0.23803678 0.22385705 -0.019893989
v -0.2636865 0.23187672 -0.019142106
v -0.26168564 0.24750589 -0.018989792
v -0.25006756 0.2214272 -0.01988851
v 0.20818594 0.12290911 -0.032502677
v 0.19026126 0.12591384 -0.030104185
v 0.2002975 0.10510782 -0.031320535
v 0.1869213 0.09687816 -0.029720483
v 0.2010814 0.098720476 -0.030157963
v 0.13278672 0.12635322 -0.024712529
v 0.16863398 0.12537359 -0.027985817
v 0.23258209 0.06675937 -0.026175106
v 0.23212068 0.081827484 -0.028245011
v 0.2027626 0.08139693 -0.026107013
v 0.20593886 0.062223304 -0.025012111
v 0.30364612 0.10417093 -0.038096387
v 0.27538213 0.11179769 -0.040228017
v 0.2460324 0.11719868 -0.03757855
v 0.17766601 0.024698388 -0.032259505
v 0.17885512 0.037931237 -0.03278925
v 0.16893835 0.03161239 -0.031794205
v 0.17113575 0.06413444 -0.031929675
v 0.16800101 0.08282174 -0.031186018
v 0.15060215 0.067178175 -0.029107084
v 0.17234308 0.10523484 -0.030678798
v 0.15218192 0.10587337 -0.028506635
v 0.18725555 0.1111087 -0.031265125
v 0.18192555 0.07552211 -0.029157264
v 0.17507462 0.048812617 -0.032411277
v 0.1594761 0.038262144 -0.030923724
v 0.16711245 0.024343917 -0.030502288
v 0.15160248 0.053347286 -0.029640382
v 0.14484373 0.087810285 -0.027227921
v 0.15024191 0.084113955 -0.028377889
v 0.30209655 0.08058116 -0.037952717
v 0.27459297 0.08379509 -0.04079415
v 0.23843396 0.0941216 -0.03802238
v 0.23352085 0.08881208 -0.03125753
v 0.2591332 0.07831706 -0.030690024
v 0.21956483 0.12082397 -0.033988472
v 0.20351867 0.11056584 -0.033340495
v 0.12296418 0.10781779 -0.024858057
v 0.122273944 0.09178702 -0.024094624
v 0.097690426 0.10935295 -0.022938766
v 0.099726036 0.08907235 -0.022628875
v 0.10402197 0.1301593 -0.022533396
v 0.21259332 0.10021826 -0.030369962
v 0.21426372 0.10671127 -0.03500722
v 0.18534291 0.07672629 -0.027257686
v 0.268348 0.070617475 -0.027953684
v 0.18348654 0.056601204 -0.029002681
v 0.18788172 0.05769779 -0.026573688
v 0.18392415 0.033896532 -0.031931773
v 0.18261348 0.029354004 -0.032974955
v 0.1775866 0.019276973 -0.032177996
v 0.17834605 0.023020206 -0.033325247
v 0.18878819 0.021143613 -0.033428796
v 0.19262253 0.011732227 -0.033692475
v 0.18465643 0.015307154 -0.033130094
v 0.19375448 0.014975652 -0.03354356
v 0.19271491 0.013090623 -0.033980306
v 0.18554543 0.017464688 -0.033927593
v 0.106391326 0.13690306 -0.03424828
v 0.0992678 0.14034331 -0.03653414
v 0.08823218 0.14261729 -0.0383024
v 0.07949514 0.14267328 -0.03875889
v 0.06999533 0.14145038 -0.038358744
v 0.06272691 0.13791256 -0.03646307
v 0.064918846 0.13897945 -0.037312508
v 0.10656319 0.10620389 -0.034707353
v 0.09950758 0.10955482 -0.03758971
v 0.08961379 0.111189246 -0.039286837
v 0.08175164 0.1108675 -0.039432086
v 0.073810846 0.10965619 -0.038886257
v 0.0669809 0.10853057 -0.036731895
v 0.06927284 0.10890829 -0.037766006
v 0.10679144 0.082869805 -0.033821423
v 0.106677316 0.09453684 -0.034652572
v 0.09966674 0.09645214 -0.037916716
v 0.09982588 0.08334946 -0.037060615
v 0.09024604 0.097691394 -0.03960901
v 0.09087827 0.08419354 -0.03895314
v 0.08229087 0.09784198 -0.03961764
v 0.08212011 0.08481927 -0.03910715
v 0.07415847 0.09725274 -0.038814276
v 0.0745061 0.08484929 -0.038418498
v 0.06665725 0.09675325 -0.036390796
v 0.06609333 0.08501804 -0.035954535
v 0.06854652 0.08496883 -0.03673939
v 0.069203466 0.0969228 -0.03750634
v 0.10695612 0.074200206 -0.03244115
v 0.09961832 0.07416631 -0.036248654
v 0.09008552 0.07436106 -0.03810134
v 0.08132027 0.07466477 -0.03826807
v 0.07241905 0.07517493 -0.037331566
v 0.06305324 0.07692116 -0.03472607
v 0.06551139 0.07646284 -0.035804544
v 0.09943531 0.06917726 -0.034622177
v 0.09538997 0.059572 -0.032224737
v 0.08938639 0.06879938 -0.036398895
v 0.08584547 0.05954961 -0.033604786
v 0.079988755 0.06882157 -0.03649032
v 0.076541886 0.059973955 -0.0336365
v 0.07057848 0.06975269 -0.035119873
v 0.06696142 0.06186058 -0.032503556
v 0.058887172 0.07005737 -0.032726202
v 0.052195538 0.067522645 -0.03023803
v 0.06405294 0.10617354 -0.034066204
v 0.05931729 0.13442151 -0.03358754
v 0.06410069 0.09777057 -0.03419001
v 0.06269069 0.08273441 -0.03371347
v 0.060962003 0.07745414 -0.033436235
v 0.05109598 0.12600389 -0.028415611
v 0.039820008 0.072181255 -0.028705418
v 0.03161974 0.08776339 -0.027728414
v 0.020491233 0.10591898 -0.026674477
v 0.03545339 0.1146132 -0.02598463
v 0.042900197 0.09219467 -0.027474392
v 0.05708331 0.10056298 -0.029657384
v 0.04918373 0.07550493 -0.028787578
v 0.05739854 0.079182684 -0.031771045
v 0.114453666 0.12431313 -0.030078998
v 0.11113497 0.10278251 -0.031522922
v 0.11023786 0.094826296 -0.031745043
v 0.10930625 0.10415106 -0.032514784
v 0.11122873 0.1293491 -0.031228373
v 0.06108692 0.1362334 -0.0350863
vt 0.3894043 0.13232422
vt 0.39819336 0.103881836
vt 0.3774414 0.09350586
vt 0.51123047 0.027114868
vt 0.46313477 0.02722168
vt 0.5073242 0.044128418
vt 0.45654297 0.050720215
vt 0.42578125 0.041809082
vt 0.40454102 0.09295654
vt 0.41992188 0.07501221
vt 0.37402344 0.17541504
vt 0.57910156 0.086242676
vt 0.5913086 0.11010742
vt 0.60253906 0.08721924
vt 0.38916016 0.15405273
vt 0.39868164 0.17944336
vt 0.39892578 0.22106934
vt 0.40600586 0.19274902
vt 0.41870117 0.21704102
vt 0.6166992 0.1237793
vt 0.59521484 0.122924805
vt 0.59472656 0.16296387
vt 0.6064453 0.18579102
vt 0.58984375 0.19006348
vt 0.59472656 0.21435547
vt 0.57470703 0.21533203
vt 0.42822266 0.23522949
vt 0.41674805 0.25708008
vt 0.43579102 0.25268555
vt 0.43847656 0.27124023
vt 0.4284668 0.2902832
vt 0.45166016 0.2783203
vt 0.46801758 0.28271484
vt 0.48339844 0.30615234
vt 0.48266602 0.28466797
vt 0.5205078 0.2602539
vt 0.51220703 0.26391602
vt 0.5180664 0.27294922
vt 0.5019531 0.26538086
vt 0.58740234 0.2524414
vt 0.57128906 0.24414062
vt 0.5703125 0.2607422
vt 0.57910156 0.3095703
vt 0.5683594 0.2783203
vt 0.5654297 0.29052734
vt 0.55908203 0.296875
vt 0.55859375 0.32373047
vt 0.5493164 0.3010254
vt 0.5341797 0.32373047
vt 0.54003906 0.30126953
vt 0.5131836 0.3137207
vt 0.5292969 0.29736328
vt 0.52001953 0.2902832
vt 0.5751953 0.0552063
vt 0.5473633 0.05596924
vt 0.5449219 0.034088135
vt 0.7988281 0.54248047
vt 0.7841797 0.53125
vt 0.78271484 0.5361328
vt 0.78564453 0.5600586
vt 0.7753906 0.5439453
vt 0.74560547 0.58203125
vt 0.7578125 0.55322266
vt 0.7426758 0.55615234
vt 0.73095703 0.5522461
vt 0.69873047 0.55078125
vt 0.71875 0.5419922
vt 0.70654297 0.53222656
vt 0.6958008 0.5332031
vt 0.66015625 0.5551758
vt 0.6538086 0.53808594
vt 0.6386719 0.54003906
vt 0.6435547 0.55810547
vt 0.63183594 0.5449219
vt 0.62402344 0.55566406
vt 0.625 0.578125
vt 0.6142578 0.5576172
vt 0.5957031 0.57128906
vt 0.6303711 0.4716797
vt 0.59228516 0.4609375
vt 0.6123047 0.49047852
vt 0.5957031 0.48510742
vt 0.5810547 0.48901367
vt 0.5566406 0.48388672
vt 0.62060547 0.4543457
vt 0.60058594 0.42895508
vt 0.6176758 0.4333496
vt 0.62646484 0.39916992
vt 0.6171875 0.3798828
vt 0.68408203 0.38330078
vt 0.6723633 0.40966797
vt 0.6899414 0.4243164
vt 0.7817383 0.46484375
vt 0.73583984 0.4597168
vt 0.765625 0.48095703
vt 0.74560547 0.47924805
vt 0.7285156 0.47680664
vt 0.69433594 0.4555664
vt 0.6767578 0.44384766
vt 0.6723633 0.42944336
vt 0.67333984 0.43725586
vt 0.67089844 0.3671875
vt 0.6621094 0.40698242
vt 0.64160156 0.3737793
vt 0.6352539 0.4008789
vt 0.6308594 0.37670898
vt 0.093933105 0.8515625
vt 0.080200195 0.83496094
vt 0.079956055 0.85253906
vt 0.06011963 0.8408203
vt 0.03955078 0.8852539
vt 0.063964844 0.8652344
vt 0.058624268 0.8901367
vt 0.052459717 0.91748047
vt 0.04711914 0.94140625
vt 0.029220581 0.93310547
vt 0.02658081 0.9526367
vt 0.044952393 0.95410156
vt 0.029541016 0.9682617
vt 0.04486084 0.9604492
vt 0.048706055 0.9628906
vt 0.049102783 0.97998047
vt 0.055480957 0.9609375
vt 0.06506348 0.9555664
vt 0.10229492 0.95410156
vt 0.08557129 0.9433594
vt 0.11480713 0.9267578
vt 0.13000488 0.875
vt 0.13049316 0.9003906
vt 0.14733887 0.8964844
vt 0.13830566 0.9248047
vt 0.12359619 0.9169922
vt 0.109680176 0.83691406
vt 0.10925293 0.8535156
vt 0.13879395 0.86279297
vt 0.12634277 0.84814453
vt 0.12176514 0.8623047
vt 0.11804199 0.84228516
vt 0.11553955 0.85791016
vt 0.39331055 0.91308594
vt 0.4267578 0.9165039
vt 0.41210938 0.8979492
vt 0.4345703 0.8984375
vt 0.45166016 0.8989258
vt 0.5722656 0.77001953
vt 0.5751953 0.77783203
vt 0.5917969 0.7817383
vt 0.58691406 0.7548828
vt 0.5756836 0.7871094
vt 0.5732422 0.80029297
vt 0.5864258 0.8120117
vt 0.5654297 0.81152344
vt 0.5654297 0.8359375
vt 0.5488281 0.82714844
vt 0.53466797 0.8432617
vt 0.54296875 0.8618164
vt 0.5258789 0.859375
vt 0.5229492 0.8725586
vt 0.5371094 0.8930664
vt 0.52246094 0.8857422
vt 0.52197266 0.8989258
vt 0.5361328 0.93652344
vt 0.5214844 0.921875
vt 0.5209961 0.94189453
vt 0.5209961 0.9536133
vt 0.53222656 0.9628906
vt 0.5185547 0.95751953
vt 0.5083008 0.9711914
vt 0.515625 0.9584961
vt 0.51171875 0.95703125
vt 0.4663086 0.9370117
vt 0.5024414 0.9477539
vt 0.4934082 0.9370117
vt 0.47998047 0.921875
vt 0.46313477 0.90478516
vt 0.37402344 0.8886719
vt 0.3425293 0.87109375
vt 0.32641602 0.8823242
vt 0.56640625 0.7661133
vt 0.5595703 0.7290039
vt 0.55126953 0.75683594
vt 0.54296875 0.75
vt 0.5395508 0.7373047
vt 0.5385742 0.72509766
vt 0.53808594 0.7133789
vt 0.5546875 0.69189453
vt 0.5361328 0.69677734
vt 0.5307617 0.6855469
vt 0.53515625 0.66308594
vt 0.5126953 0.6821289
vt 0.5229492 0.68310547
vt 0.5029297 0.6582031
vt 0.49243164 0.68115234
vt 0.47192383 0.6616211
vt 0.48291016 0.64160156
vt 0.3701172 0.9057617
vt 0.32373047 0.85498047
vt 0.3125 0.8383789
vt 0.29736328 0.8515625
vt 0.30493164 0.81933594
vt 0.28295898 0.80078125
vt 0.30322266 0.7998047
vt 0.32421875 0.6933594
vt 0.30004883 0.70458984
vt 0.32104492 0.7104492
vt 0.31347656 0.71533203
vt 0.30566406 0.77734375
vt 0.28051758 0.74853516
vt 0.3046875 0.76171875
vt 0.30395508 0.75146484
vt 0.30786133 0.7314453
vt 0.40649414 0.16577148
vt 0.41625977 0.1850586
vt 0.43188477 0.17565918
vt 0.4230957 0.14794922
vt 0.39941406 0.14013672
vt 0.42041016 0.11254883
vt 0.41918945 0.09063721
vt 0.39868164 0.11895752
vt 0.5488281 0.2861328
vt 0.42651367 0.20935059
vt 0.45532227 0.24951172
vt 0.45385742 0.2253418
vt 0.44091797 0.20239258
vt 0.45507812 0.06451416
vt 0.43603516 0.097717285
vt 0.453125 0.16503906
vt 0.45239258 0.13220215
vt 0.45776367 0.19799805
vt 0.57714844 0.10290527
vt 0.5864258 0.12365723
vt 0.57177734 0.12200928
vt 0.5854492 0.14697266
vt 0.5332031 0.18811035
vt 0.56933594 0.17236328
vt 0.5527344 0.15673828
vt 0.49902344 0.20288086
vt 0.48046875 0.22973633
vt 0.49804688 0.23596191
vt 0.51416016 0.21154785
vt 0.4741211 0.25317383
vt 0.4880371 0.25708008
vt 0.50097656 0.056274414
vt 0.45141602 0.08929443
vt 0.4724121 0.083984375
vt 0.48242188 0.1619873
vt 0.48779297 0.12597656
vt 0.4777832 0.19787598
vt 0.5131836 0.17126465
vt 0.5258789 0.13513184
vt 0.49487305 0.08258057
vt 0.5175781 0.08605957
vt 0.54589844 0.0713501
vt 0.5488281 0.20544434
vt 0.5078125 0.24499512
vt 0.5263672 0.22216797
vt 0.5625 0.2154541
vt 0.5488281 0.2692871
vt 0.5498047 0.2529297
vt 0.5395508 0.095947266
vt 0.58203125 0.18371582
vt 0.5566406 0.10772705
vt 0.55029297 0.2331543
vt 0.53271484 0.23730469
vt 0.5336914 0.28564453
vt 0.53466797 0.25463867
vt 0.5229492 0.24963379
vt 0.5341797 0.26953125
vt 0.7817383 0.5258789
vt 0.7705078 0.52685547
vt 0.7651367 0.5395508
vt 0.69677734 0.52246094
vt 0.67529297 0.5053711
vt 0.6503906 0.5083008
vt 0.65283203 0.5283203
vt 0.66748047 0.45483398
vt 0.6845703 0.46777344
vt 0.66015625 0.43530273
vt 0.6635742 0.44506836
vt 0.66015625 0.43017578
vt 0.72265625 0.49047852
vt 0.74365234 0.4880371
vt 0.7792969 0.48461914
vt 0.76708984 0.48535156
vt 0.7578125 0.5449219
vt 0.71191406 0.5175781
vt 0.73291016 0.5419922
vt 0.6508789 0.47485352
vt 0.6430664 0.48388672
vt 0.6621094 0.49658203
vt 0.6694336 0.48706055
vt 0.63964844 0.4638672
vt 0.6308594 0.4494629
vt 0.6298828 0.43237305
vt 0.7392578 0.5097656
vt 0.74902344 0.53125
vt 0.7446289 0.54785156
vt 0.7583008 0.51708984
vt 0.75146484 0.4970703
vt 0.75927734 0.48583984
vt 0.75390625 0.4831543
vt 0.62939453 0.5097656
vt 0.6328125 0.52978516
vt 0.6245117 0.5371094
vt 0.5854492 0.50097656
vt 0.58447266 0.5151367
vt 0.5986328 0.5292969
vt 0.59521484 0.4963379
vt 0.61035156 0.5019531
vt 0.60498047 0.5419922
vt 0.61572266 0.5463867
vt 0.6489258 0.4975586
vt 0.6274414 0.49780273
vt 0.578125 0.5239258
vt 0.5913086 0.53466797
vt 0.57373047 0.49975586
vt 0.5722656 0.51416016
vt 0.59375 0.54541016
vt 0.6020508 0.55322266
vt 0.06048584 0.95214844
vt 0.05645752 0.9482422
vt 0.04949951 0.95654297
vt 0.051849365 0.9448242
vt 0.06970215 0.93066406
vt 0.059326172 0.92285156
vt 0.08605957 0.9082031
vt 0.06713867 0.8959961
vt 0.097595215 0.8833008
vt 0.0758667 0.87158203
vt 0.10681152 0.86621094
vt 0.09436035 0.859375
vt 0.119262695 0.8730469
vt 0.119384766 0.89501953
vt 0.10467529 0.9199219
vt 0.079589844 0.93896484
vt 0.50341797 0.79589844
vt 0.4934082 0.82666016
vt 0.50683594 0.8417969
vt 0.5180664 0.80859375
vt 0.54833984 0.7675781
vt 0.5673828 0.7714844
vt 0.51660156 0.86376953
vt 0.31591797 0.74072266
vt 0.32617188 0.7265625
vt 0.40429688 0.84375
vt 0.40820312 0.8720703
vt 0.44799805 0.8623047
vt 0.3112793 0.8100586
vt 0.33691406 0.8300781
vt 0.33813477 0.80810547
vt 0.3400879 0.85253906
vt 0.37158203 0.86816406
vt 0.3696289 0.8413086
vt 0.31176758 0.8261719
vt 0.4555664 0.8876953
vt 0.46411133 0.8808594
vt 0.36865234 0.8183594
vt 0.40112305 0.81933594
vt 0.43896484 0.8359375
vt 0.32714844 0.76660156
vt 0.34277344 0.77978516
vt 0.34960938 0.75341797
vt 0.33862305 0.7441406
vt 0.36938477 0.7919922
vt 0.3708496 0.7626953
vt 0.39794922 0.7944336
vt 0.39282227 0.7636719
vt 0.4194336 0.7890625
vt 0.40893555 0.7607422
vt 0.4350586 0.78027344
vt 0.4284668 0.81152344
vt 0.4609375 0.82373047
vt 0.5097656 0.9472656
vt 0.37353516 0.8803711
vt 0.34277344 0.86572266
vt 0.3244629 0.8491211
vt 0.34887695 0.7192383
vt 0.3581543 0.72509766
vt 0.37182617 0.72753906
vt 0.38598633 0.7290039
vt 0.4099121 0.72216797
vt 0.40625 0.7236328
vt 0.421875 0.7558594
vt 0.42456055 0.74365234
vt 0.4321289 0.7529297
vt 0.4411621 0.73339844
vt 0.43139648 0.72802734
vt 0.4477539 0.77197266
vt 0.46069336 0.74658203
vt 0.46142578 0.7915039
vt 0.47583008 0.8095703
vt 0.48095703 0.76171875
vt 0.4765625 0.7578125
vt 0.5317383 0.82421875
vt 0.4855957 0.77978516
vt 0.52001953 0.77490234
vt 0.50439453 0.7548828
vt 0.53515625 0.7861328
vt 0.55615234 0.7988281
vt 0.46728516 0.6777344
vt 0.4880371 0.69384766
vt 0.50927734 0.6958008
vt 0.52490234 0.7368164
vt 0.53027344 0.76171875
vt 0.4855957 0.7216797
vt 0.4970703 0.7363281
vt 0.52197266 0.69628906
vt 0.44702148 0.68847656
vt 0.46679688 0.70654297
vt 0.5239258 0.7138672
vt 0.31591797 0.7919922
vt 0.44750977 0.80078125
vt 0.33422852 0.73876953
vt 0.31958008 0.7578125
vt 0.47631836 0.84375
vt 0.41064453 0.88623047
vt 0.5161133 0.9453125
vt 0.48999023 0.8300781
vt 0.48901367 0.85791016
vt 0.5004883 0.84716797
vt 0.51953125 0.9428711
vt 0.47827148 0.89746094
vt 0.49951172 0.8779297
vt 0.5083008 0.8701172
vt 0.43017578 0.75390625
vt 0.42358398 0.7451172
vt 0.44482422 0.7739258
vt 0.4580078 0.79345703
vt 0.47216797 0.8129883
vt 0.49414062 0.91845703
vt 0.50878906 0.9121094
vt 0.51708984 0.9033203
vt 0.50390625 0.9355469
vt 0.5136719 0.93115234
vt 0.5180664 0.92578125
vt 0.44458008 0.72753906
vt 0.42504883 0.7050781
vt 0.41503906 0.71728516
vt 0.3371582 0.7026367
vt 0.3293457 0.7314453
vt 0.34179688 0.70947266
vt 0.3173828 0.7475586
vt 0.41235352 0.71972656
vt 0.39892578 0.72558594
vt 0.9135742 0.4362793
vt 0.9013672 0.4543457
vt 0.9345703 0.45654297
vt 0.91845703 0.46875
vt 0.9428711 0.48046875
vt 0.9194336 0.47705078
vt 0.9536133 0.5019531
vt 0.93652344 0.50390625
vt 0.9316406 0.49560547
vt 0.91796875 0.4855957
vt 0.9458008 0.53125
vt 0.9350586 0.5175781
vt 0.9272461 0.5307617
vt 0.92626953 0.55322266
vt 0.9160156 0.53759766
vt 0.89404297 0.55322266
vt 0.90283203 0.53808594
vt 0.8823242 0.5307617
vt 0.86035156 0.5385742
vt 0.86572266 0.5239258
vt 0.8442383 0.5229492
vt 0.8149414 0.5239258
vt 0.7841797 0.5258789
vt 0.5834961 0.56103516
vt 0.57177734 0.54833984
vt 0.5522461 0.52783203
vt 0.87939453 0.42919922
vt 0.88720703 0.45043945
vt 0.8774414 0.45166016
vt 0.8442383 0.45166016
vt 0.87060547 0.45825195
vt 0.8564453 0.47143555
vt 0.83935547 0.47631836
vt 0.81152344 0.4609375
vt 0.8095703 0.48095703
vt 0.07727051 0.38891602
vt 0.0713501 0.4260254
vt 0.089416504 0.4008789
vt 0.09020996 0.41479492
vt 0.09729004 0.45043945
vt 0.09710693 0.42626953
vt 0.109375 0.4338379
vt 0.1295166 0.45947266
vt 0.14086914 0.44384766
vt 0.17749023 0.46777344
vt 0.16540527 0.4482422
vt 0.19799805 0.4482422
vt 0.39331055 0.42578125
vt 0.37158203 0.42651367
vt 0.38549805 0.4741211
vt 0.36791992 0.45996094
vt 0.3623047 0.47094727
vt 0.3684082 0.49047852
vt 0.3154297 0.4790039
vt 0.3413086 0.46557617
vt 0.3244629 0.46044922
vt 0.22375488 0.4736328
vt 0.23242188 0.45581055
vt 0.21276855 0.45092773
vt 0.26708984 0.4777832
vt 0.26171875 0.46020508
vt 0.27539062 0.4584961
vt 0.29956055 0.4584961
vt 0.37353516 0.37426758
vt 0.36206055 0.39819336
vt 0.35083008 0.3864746
vt 0.32421875 0.37304688
vt 0.3330078 0.39819336
vt 0.1003418 0.3918457
vt 0.115600586 0.36450195
vt 0.12207031 0.390625
vt 0.13916016 0.37963867
vt 0.1439209 0.35351562
vt 0.1829834 0.36914062
vt 0.18615723 0.34985352
vt 0.21447754 0.36132812
vt 0.2208252 0.32202148
vt 0.23583984 0.3544922
vt 0.23999023 0.3527832
vt 0.3149414 0.39892578
vt 0.29077148 0.39331055
vt 0.2376709 0.33691406
vt 0.24291992 0.3239746
vt 0.25683594 0.30078125
vt 0.25463867 0.31835938
vt 0.2631836 0.3232422
vt 0.27514648 0.3347168
vt 0.296875 0.3317871
vt 0.2866211 0.35229492
vt 0.2919922 0.37402344
vt 0.22143555 0.60253906
vt 0.21313477 0.5810547
vt 0.20458984 0.5966797
vt 0.19934082 0.59277344
vt 0.18701172 0.5683594
vt 0.18920898 0.5878906
vt 0.16064453 0.5703125
vt 0.17883301 0.5854492
vt 0.17224121 0.5859375
vt 0.15649414 0.5961914
vt 0.20605469 0.6035156
vt 0.21740723 0.62646484
vt 0.20275879 0.609375
vt 0.19934082 0.6152344
vt 0.20336914 0.63720703
vt 0.19433594 0.6171875
vt 0.18200684 0.6328125
vt 0.18847656 0.6142578
vt 0.1817627 0.6015625
vt 0.17663574 0.59277344
vt 0.37109375 0.5966797
vt 0.39111328 0.59765625
vt 0.37451172 0.5756836
vt 0.41503906 0.5839844
vt 0.4104004 0.6015625
vt 0.4404297 0.60009766
vt 0.421875 0.6074219
vt 0.43164062 0.61621094
vt 0.43969727 0.6279297
vt 0.3623047 0.5996094
vt 0.33691406 0.59472656
vt 0.3544922 0.60546875
vt 0.34985352 0.6152344
vt 0.3244629 0.6333008
vt 0.34814453 0.6279297
vt 0.34423828 0.6455078
vt 0.33789062 0.6503906
vt 0.32958984 0.6694336
vt 0.45288086 0.6435547
vt 0.46411133 0.625
vt 0.90722656 0.5292969
vt 0.9213867 0.5151367
vt 0.91796875 0.50097656
vt 0.7817383 0.5161133
vt 0.78027344 0.49414062
vt 0.81396484 0.51416016
vt 0.8125 0.49194336
vt 0.84277344 0.5126953
vt 0.84033203 0.48828125
vt 0.8652344 0.5136719
vt 0.8613281 0.48413086
vt 0.8876953 0.5214844
vt 0.87939453 0.46777344
vt 0.9086914 0.47705078
vt 0.9067383 0.4951172
vt 0.8930664 0.46484375
vt 0.21459961 0.44140625
vt 0.23547363 0.44580078
vt 0.2241211 0.421875
vt 0.23999023 0.41333008
vt 0.22338867 0.4152832
vt 0.30273438 0.44750977
vt 0.2607422 0.44604492
vt 0.18688965 0.38085938
vt 0.18811035 0.39819336
vt 0.22216797 0.39648438
vt 0.21777344 0.37426758
vt 0.10467529 0.42382812
vt 0.13781738 0.4321289
vt 0.17199707 0.43774414
vt 0.25048828 0.33032227
vt 0.25 0.34545898
vt 0.25952148 0.34033203
vt 0.26000977 0.3762207
vt 0.26245117 0.39892578
vt 0.2800293 0.37939453
vt 0.25610352 0.42358398
vt 0.2800293 0.4248047
vt 0.23852539 0.42944336
vt 0.24597168 0.3894043
vt 0.25512695 0.3581543
vt 0.26904297 0.3474121
vt 0.26171875 0.33081055
vt 0.2783203 0.3642578
vt 0.28808594 0.4033203
vt 0.28149414 0.39916992
vt 0.10601807 0.39746094
vt 0.13793945 0.4013672
vt 0.17980957 0.41381836
vt 0.1854248 0.40600586
vt 0.15576172 0.39501953
vt 0.20129395 0.43945312
vt 0.21899414 0.42871094
vt 0.31396484 0.4267578
vt 0.31469727 0.40795898
vt 0.34350586 0.42822266
vt 0.34106445 0.40478516
vt 0.33618164 0.45239258
vt 0.2097168 0.4169922
vt 0.2064209 0.42504883
vt 0.24194336 0.39086914
vt 0.14501953 0.38500977
vt 0.2442627 0.36743164
vt 0.23876953 0.36889648
vt 0.24682617 0.34155273
vt 0.1928711 0.60791016
vt 0.19824219 0.5957031
vt 0.19726562 0.60009766
vt 0.18493652 0.59814453
vt 0.17932129 0.58691406
vt 0.18920898 0.59033203
vt 0.17822266 0.5913086
vt 0.18029785 0.5883789
vt 0.18896484 0.5932617
vt 0.35131836 0.6923828
vt 0.35961914 0.69628906
vt 0.37231445 0.69873047
vt 0.38232422 0.69921875
vt 0.39331055 0.6977539
vt 0.40161133 0.6933594
vt 0.39916992 0.6948242
vt 0.35131836 0.65722656
vt 0.359375 0.6611328
vt 0.37060547 0.66259766
vt 0.37963867 0.66259766
vt 0.38891602 0.6611328
vt 0.39672852 0.65966797
vt 0.39404297 0.66015625
vt 0.35083008 0.6303711
vt 0.35107422 0.6435547
vt 0.35913086 0.6459961
vt 0.35888672 0.6308594
vt 0.36987305 0.64746094
vt 0.36914062 0.63183594
vt 0.3791504 0.64746094
vt 0.37939453 0.6323242
vt 0.38842773 0.64697266
vt 0.3881836 0.6323242
vt 0.39697266 0.6459961
vt 0.39770508 0.6328125
vt 0.39501953 0.6328125
vt 0.39404297 0.6464844
vt 0.35083008 0.6201172
vt 0.35913086 0.6201172
vt 0.3701172 0.62060547
vt 0.38012695 0.62060547
vt 0.39038086 0.62158203
vt 0.40112305 0.62353516
vt 0.3984375 0.6230469
vt 0.359375 0.6142578
vt 0.36401367 0.6035156
vt 0.3708496 0.6142578
vt 0.375 0.6035156
vt 0.38183594 0.6142578
vt 0.3857422 0.6040039
vt 0.39257812 0.6152344
vt 0.39672852 0.60595703
vt 0.40600586 0.61572266
vt 0.41381836 0.61279297
vt 0.40014648 0.65722656
vt 0.40551758 0.6894531
vt 0.40014648 0.64746094
vt 0.40161133 0.6298828
vt 0.40356445 0.62402344
vt 0.41503906 0.6796875
vt 0.42797852 0.61816406
vt 0.43725586 0.6357422
vt 0.4501953 0.6567383
vt 0.43286133 0.6665039
vt 0.4243164 0.6411133
vt 0.40820312 0.6503906
vt 0.41723633 0.62158203
vt 0.40771484 0.62597656
vt 0.34204102 0.6777344
vt 0.34594727 0.6533203
vt 0.34692383 0.64404297
vt 0.34814453 0.65478516
vt 0.34594727 0.68359375
vt 0.40356445 0.69140625
vn -0 0 -1
vn -0 0 -1
vn -0 0 -1
vn -0 0 -1
vn -0 0 -1
vn -0 0 -1
vn -0 0 -1
vn -0 0 -1
vn -0 0 -1
vn -0 0 -1
vn -0 0 -1
vn -0 0 -1
vn -0 0 -1
vn -0 0 -1
vn -0 0 -1
vn -0 0 -1
vn -0 0 -1
vn -0 0 -1
vn -0 0 -1
vn -0 0 -1
vn -0 0 -1
vn -0 0 -1
vn -0 0 -1
vn -0 0 -1
vn -0 0 -1
vn -0 0 -1
vn -0 0 -1
vn -0 0 -1
vn -0 0 -1
vn -0 0 -1
vn -0 0 -1
vn -0 0 -1
vn -0 0 -1
vn -0 0 -1
vn -0 0 -1
vn -0 0 -1
vn -0 0 -1
vn -0 0 -1
vn -0 0 -1
vn -0 0 -1
vn -0 0 -1
vn -0 0 -1
vn -0 0 -1
vn -0 0 -1
vn -0 0 -1
vn -0 0 -1
vn -0 0 -1
vn -0 0 -1
vn -0 0 -1
vn -0 0 -1
vn -0 0 -1
vn -0 0 -1
vn -0 0 -1
vn -0 0 -1
vn -0 0 -1
vn -0 0 -1
vn -0 0 -1
vn 0.011047363 0.0115356445 -1
vn -0 0 -1
vn -0 0 -1
vn -0 0 -1
vn -0 0 -1
vn -0 0 -1
vn -0 0 -1
vn -0 0 -1
vn -0 0 -1
vn -0 0 -1
vn -0 0 -1
vn -0 0 -1
vn -0 0 -1
vn -0 0 -1
vn -0 0 -1
vn -0 0 -1
vn -0 0 -1
vn -0 0 -1
vn -0 0 -1
vn -0 0 -1
vn -0 0 -1
vn -0 0 -1
vn -0 0 -1
vn -0 0 -1
vn -0 0 -1
vn -0 0 -1
vn -0 0 -1
vn -0 0 -1
vn -0 0 -1
vn -0 0 -1
vn -0 0 -1
vn -0 0 -1
vn -0 0 -1
vn -0 0 -1
vn -0 0 -1
vn -0 0 -1
vn -0 0 -1
vn -0 0 -1
vn -0 0 -1
vn -0 0 -1
vn -0 0 -1
vn -0 0 -1
vn -0 0 -1
vn -0 0 -1
vn -0 0 -1
vn -0 0 -1
vn -0 0 -1
vn -0 0 -1
vn -0 0 -1
vn -0 0 -1
vn -0 0 -1
vn -0 0 -1
vn -0 0 -1
vn -0 0 -1
vn -0 0 -1
vn -0 0 -1
vn -0 0 -1
vn -0 0 -1
vn -0 0 -1
vn -0 0 -1
vn -0 0 -1
vn -0 0 -1
vn -0 0 -1
vn -0 0 -1
vn -0 0 -1
vn -0 0 -1
vn -0 0 -1
vn -0 0 -1
vn -0 0 -1
vn -0 0 -1
vn -0 0 -1
vn -0 0 -1
vn -0 0 -1
vn -0 0 -1
vn -0 0 -1
vn -0 0 -1
vn -0 0 -1
vn -0 0 -1
vn -0 0 -1
vn -0 0 -1
vn -0 0 -1
vn -0 0 -1
vn -0 0 -1
vn -0 0 -1
vn -0 0 -1
vn -0 0 -1
vn -0 0 -1
vn -0 0 -1
vn -0 0 -1
vn -0 0 -1
vn -0 0 -1
vn -0 0 -1
vn -0 0 -1
vn -0 0 -1
vn -0 0 -1
vn -0 0 -1
vn -0 0 -1
vn -0 0 -1
vn -0 0 -1
vn -0 0 -1
vn -0 0 -1
vn -0 0 -1
vn -0 0 -1
vn -0 0 -1
vn -0 0 -1
vn -0 0 -1
vn -0 0 -1
vn -0 0 -1
vn -0 0 -1
vn -0 0 -1
vn -0 0 -1
vn -0 0 -1
vn -0 0 -1
vn -0 0 -1
vn -0 0 -1
vn -0 0 -1
vn -0 0 -1
vn -0 0 -1
vn -0 0 -1
vn -0 0 -1
vn -0 0 -1
vn -0 0 -1
vn -0 0 -1
vn -0 0 -1
vn -0 0 -1
vn -0 0 -1
vn -0 0 -1
vn -0 0 -1
vn -0 0 -1
vn -0 0 -1
vn -0 0 -1
vn -0 0 -1
vn -0 0 -1
vn -0 0 -1
vn -0 0 -1
vn -0 0 -1
vn -0 0 -1
vn -0 0 -1
vn -0 0 -1
vn -0 0 -1
vn -0 0 -1
vn -0 0 -1
vn -0 0 -1
vn -0 0 -1
vn -0 0 -1
vn -0 0 -1
vn -0 0 -1
vn -0 0 -1
vn -0 0 -1
vn -0 0 -1
vn -0 0 -1
vn -0 0 -1
vn -0 0 -1
vn -0 0 -1
vn -0 0 -1
vn -0 0 -1
vn -0 0 -1
vn -0 0 -1
vn -0 0 -1
vn -0 0 -1
vn -0 0 -1
vn -0 0 -1
vn -0 0 -1
vn -0 0 -1
vn -0 0 -1
vn -0 0 -1
vn -0 0 -1
vn -0 0 -1
vn -0 0 -1
vn -0 0 -1
vn -0 0 -1
vn -0 0 -1
vn -0 0 -1
vn -0 0 -1
vn -0 0 -1
vn -0 0 -1
vn -0 0 -1
vn -0 0 -1
vn -0 0 -1
vn -0 0 -1
vn -0 0 -1
vn -0 0 -1
vn -0 0 -1
vn -0 0 -1
vn -0 0 -1
vn -0 0 -1
vn -0 0 -1
vn -0 0 -1
vn -0 0 -1
vn -0 0 -1
vn -0 0 -1
vn -0 0 -1
vn -0 0 -1
vn -0 0 -1
vn -0 0 -1
vn -0 0 -1
vn -0 0 -1
vn -0 0 -1
vn -0 0 -1
vn -0 0 -1
vn -0 0 -1
vn -0 0 -1
vn -0 0 -1
vn -0 0 -1
vn -0 0 -1
vn -0 0 -1
vn -0 0 -1
vn -0 0 -1
vn -0 0 -1
vn -0 0 -1
vn -0 0 -1
vn -0 0 -1
vn -0 0 -1
vn -0 0 -1
vn -0 0 -1
vn -0 0 -1
vn -0 0 -1
vn -0 0 -1
vn -0 0 -1
vn -0 0 -1
vn -0 0 -1
vn -0 0 -1
vn -0 0 -1
vn -0 0 -1
vn -0 0 -1
vn -0 0 -1
vn -0 0 -1
vn -0 0 -1
vn -0 0 -1
vn -0 0 -1
vn -0 0 -1
vn -0 0 -1
vn -0 0 -1
vn -0 0 -1
vn -0 0 -1
vn -0 0 -1
vn -0 0 -1
vn -0 0 -1
vn -0 0 -1
vn -0 0 -1
vn -0 0 -1
vn -0 0 -1
vn -0 0 -1
vn -0 0 -1
vn -0 0 -1
vn -0 0 -1
vn -0 0 -1
vn -0 0 -1
vn -0 0 -1
vn -0 0 -1
vn -0 0 -1
vn -0 0 -1
vn -0 0 -1
vn -0 0 -1
vn -0 0 -1
vn -0 0 -1
vn -0 0 -1
vn -0 0 -1
vn -0 0 -1
vn -0 0 -1
vn -0 0 -1
vn -0 0 -1
vn -0 0 -1
vn -0 0 -1
vn -0 0 -1
vn -0 0 -1
vn -0 0 -1
vn -0 0 -1
vn -0 0 -1
vn -0 0 -1
vn -0 0 -1
vn -0 0 -1
vn -0 0 -1
vn -0 0 -1
vn -0 0 -1
vn -0 0 -1
vn -0 0 -1
vn -0 0 -1
vn -0 0 -1
vn -0 0 -1
vn -0 0 -1
vn -0 0 -1
vn -0 0 -1
vn -0 0 -1
vn -0 0 -1
vn -0 0 -1
vn -0 0 -1
vn -0 0 -1
vn -0 0 -1
vn -0 0 -1
vn -0 0 -1
vn -0 0 -1
vn -0 0 -1
vn -0 0 -1
vn -0 0 -1
vn -0 0 -1
vn -0 0 -1
vn -0 0 -1
vn -0 0 -1
vn -0 0 -1
vn -0 0 -1
vn -0 0 -1
vn -0 0 -1
vn -0 0 -1
vn -0 0 -1
vn -0 0 -1
vn -0 0 -1
vn -0 0 -1
vn -0 0 -1
vn -0 0 -1
vn -0 0 -1
vn -0 0 -1
vn -0 0 -1
vn -0 0 -1
vn -0 0 -1
vn -0 0 -1
vn -0 0 -1
vn -0 0 -1
vn -0 0 -1
vn -0 0 -1
vn -0 0 -1
vn -0 0 -1
vn -0 0 -1
vn -0 0 -1
vn -0 0 -1
vn -0 0 -1
vn -0 0 -1
vn -0 0 -1
vn -0 0 -1
vn -0 0 -1
vn -0 0 -1
vn -0 0 -1
vn -0 0 -1
vn -0 0 -1
vn -0 0 -1
vn -0 0 -1
vn -0 0 -1
vn -0 0 -1
vn -0 0 -1
vn -0 0 -1
vn -0 0 -1
vn -0 0 -1
vn -0 0 -1
vn -0 0 -1
vn -0 0 -1
vn -0 0 -1
vn -0 0 -1
vn -0 0 -1
vn -0 0 -1
vn -0 0 -1
vn -0 0 -1
vn -0 0 -1
vn -0 0 -1
vn -0 0 -1
vn -0 0 -1
vn -0 0 -1
vn -0 0 -1
vn -0 0 -1
vn -0 0 -1
vn -0 0 -1
vn -0 0 -1
vn -0 0 -1
vn -0 0 -1
vn -0 0 -1
vn -0 0 -1
vn -0 0 -1
vn -0 0 -1
vn -0 0 -1
vn -0 0 -1
vn -0 0 -1
vn -0 0 -1
vn -0 0 -1
vn -0 0 -1
vn -0 0 -1
vn -0 0 -1
vn -0 0 -1
vn -0 0 -1
vn -0 0 -1
vn -0 0 -1
vn -0 0 -1
vn -0 0 -1
vn -0 0 -1
vn -0 0 -1
vn -0 0 -1
vn -0 0 -1
vn -0 0 -1
vn -0 0 -1
vn -0 0 -1
vn -0 0 -1
vn -0 0 -1
vn -0 0 -1
vn -0 0 -1
vn -0 0 -1
vn -0 0 -1
vn -0 0 -1
vn -0 0 -1
vn -0 0 -1
vn -0 0 -1
vn -0 0 -1
vn -0 0 -1
vn -0 0 -1
vn -0 0 -1
vn -0 0 -1
vn -0 0 -1
vn -0 0 -1
vn -0 0 -1
vn -0 0 -1
vn -0 0 -1
vn -0 0 -1
vn 0.0004029274 0.1751709 -0.984375
vn -0 0 -1
vn -0 0 -1
vn -0 0 -1
vn -0 0 -1
vn -0 0 -1
vn -0 0 -1
vn -0 0 -1
vn -0 0 -1
vn -0 0 -1
vn -0 0 -1
vn -0 0 -1
vn -0 0 -1
vn -0 0 -1
vn -0 0 -1
vn -0 0 -1
vn -0 0 -1
vn -0 0 -1
vn -0 0 -1
vn -0 0 -1
vn -0 0 -1
vn -0 0 -1
vn -0 0 -1
vn -0 0 -1
vn -0 0 -1
vn -0 0 -1
vn -0 0 -1
vn -0 0 -1
vn -0 0 -1
vn -0 0 -1
vn -0 0 -1
vn -0 0 -1
vn -0 0 -1
vn -0 0 -1
vn -0 0 -1
vn -0 0 -1
vn -0 0 -1
vn -0 0 -1
vn -0 0 -1
vn -0 0 -1
vn -0 0 -1
vn -0 0 -1
vn -0 0 -1
vn -0 0 -1
vn -0 0 -1
vn -0 0 -1
vn -0 0 -1
vn -0 0 -1
vn -0 0 -1
vn -0 0 -1
vn -0 0 -1
vn -0 0 -1
vn -0 0 -1
vn -0 0 -1
vn -0 0 -1
vn -0 0 -1
vn -0 0 -1
vn -0 0 -1
vn -0 0 -1
vn -0 0 -1
vn -0 0 -1
vn -0 0 -1
vn -0 0 -1
vn -0 0 -1
vn -0 0 -1
vn -0 0 -1
vn -0 0 -1
vn -0 0 -1
vn -0 0 -1
vn -0 0 -1
vn -0 0 -1
vn -0 0 -1
vn -0 0 -1
vn -0 0 -1
vn -0 0 -1
vn -0 0 -1
vn -0 0 -1
vn -0 0 -1
vn -0 0 -1
vn -0 0 -1
vn -0 0 -1
vn -0 0 -1
vn -0 0 -1
vn -0 0 -1
vn -0 0 -1
vn -0 0 -1
vn -0 0 -1
vn -0 0 -1
vn -0 0 -1
vn -0 0 -1
vn -0 0 -1
vn -0 0 -1
vn -0 0 -1
vn -0 0 -1
vn -0 0 -1
vn -0 0 -1
vn -0 0 -1
vn -0 0 -1
vn -0 0 -1
vn -0 0 -1
vn -0 0 -1
vn -0 0 -1
vn -0 0 -1
vn -0 0 -1
vn -0 0 -1
vn -0 0 -1
vn -0 0 -1
vn -0 0 -1
vn -0 0 -1
vn -0 0 -1
vn -0 0 -1
vn -0 0 -1
vn -0 0 -1
vn -0 0 -1
vn -0 0 -1
vn -0 0 -1
vn -0 0 -1
vn -0 0 -1
vn -0 0 -1
vn -0 0 -1
vn -0 0 -1
vn -0 0 -1
vn -0 0 -1
vn -0 0 -1
vn -0 0 -1
vn -0 0 -1
vn -0 0 -1
vn -0 0 -1
vn -0 0 -1
vn -0 0 -1
vn -0 0 -1
vn -0 0 -1
vn -0 0 -1
vn -0 0 -1
vn -0 0 -1
vn -0 0 -1
vn -0 0 -1
vn -0 0 -1
vn -0 0 -1
vn -0 0 -1
vn -0 0 -1
vn -0 0 -1
vn -0 0 -1
vn -0 0 -1
vn -0 0 -1
vn -0 0 -1
vn -0 0 -1
vn -0 0 -1
vn -0 0 -1
vn -0 0 -1
vn -0 0 -1
vn -0 0 -1
vn -0 0 -1
vn -0 0 -1
vn -0 0 -1
vn -0 0 -1
vn -0 0 -1
vn -0 0 -1
vn -0 0 -1
vn -0 0 -1
vn -0 0 -1
vn -0 0 -1
vn -0 0 -1
vn -0 0 -1
vn -0 0 -1
vn -0 0 -1
vn -0 0 -1
vn -0 0 -1
vn -0 0 -1
vn -0 0 -1
vn -0 0 -1
vn -0 0 -1
vn -0 0 -1
vn -0 0 -1
vn -0 0 -1
vn -0 0 -1
vn -0 0 -1
vn -0 0 -1
vn -0 0 -1
vn -0 0 -1
vn -0 0 -1
vn -0 0 -1
vn -0 0 -1
vn -0 0 -1
vn -0 0 -1
vn -0 0 -1
vn -0 0 -1
vn -0 0 -1
vn -0 0 -1
vn -0 0 -1
vn -0 0 -1
vn -0 0 -1
vn -0 0 -1
vn -0 0 -1
vn -0 0 -1
vn -0 0 -1
vn -0 0 -1
vn -0 0 -1
vn -0 0 -1
vn -0 0 -1
vn -0 0 -1
vn -0 0 -1
vn -0 0 -1
vn -0 0 -1
vn -0 0 -1
vn -0 0 -1
vn -0 0 -1
vn -0 0 -1
vn -0 0 -1
vn -0 0 -1
vn -0 0 -1
vn -0 0 -1
vn -0 0 -1
vn -0 0 -1
vn -0 0 -1
vn -0 0 -1
vn -0 0 -1
vn -0 0 -1
vn -0 0 -1
vn -0 0 -1
vn -0 0 -1
vn -0 0 -1
vn -0 0 -1
vn -0 0 -1
vn -0 0 -1
vn -0 0 -1
vn -0 0 -1
vn -0 0 -1
vn -0 0 -1
vn -0 0 -1
vn -0 0 -1
vn -0 0 -1
vn -0 0 -1
vn -0 0 -1
vn -0 0 -1
vn -0 0 -1
vn -0 0 -1
vn -0 0 -1
vn -0 0 -1
vn -0 0 -1
vn -0 0 -1
vn -0 0 -1
vn -0 0 -1
vn -0 0 -1
vn -0 0 -1
vn -0 0 -1
vn -0 0 -1
g cPK_10_001530_00_GARAGARAex_RR_L_SB_0
f 3/3/3 2/2/2 1/1/1
f 6/6/6 5/5/5 4/4/4
f 7/7/7 5/5/5 6/6/6
f 8/8/8 2/2/2 3/3/3
f 8/8/8 9/9/9 2/2/2
f 8/8/8 10/10/10 9/9/9
f 8/8/8 7/7/7 10/10/10
f 5/5/5 7/7/7 8/8/8
f 1/1/1 11/11/11 3/3/3
f 14/14/14 13/13/13 12/12/12
f 15/15/15 11/11/11 1/1/1
f 16/16/16 11/11/11 15/15/15
f 16/16/16 17/17/17 11/11/11
f 18/18/18 17/17/17 16/16/16
f 19/19/19 17/17/17 18/18/18
f 20/20/20 13/13/13 14/14/14
f 20/20/20 21/21/21 13/13/13
f 20/20/20 22/22/22 21/21/21
f 23/23/23 22/22/22 20/20/20
f 23/23/23 24/24/24 22/22/22
f 25/25/25 24/24/24 23/23/23
f 25/25/25 26/26/26 24/24/24
f 27/27/27 17/17/17 19/19/19
f 27/27/27 28/28/28 17/17/17
f 29/29/29 28/28/28 27/27/27
f 30/30/30 28/28/28 29/29/29
f 28/28/28 30/30/30 31/31/31
f 32/32/32 31/31/31 30/30/30
f 33/33/33 31/31/31 32/32/32
f 33/33/33 34/34/34 31/31/31
f 35/35/35 34/34/34 33/33/33
f 38/38/38 37/37/37 36/36/36
f 39/39/39 34/34/34 35/35/35
f 37/37/37 34/34/34 39/39/39
f 40/40/40 26/26/26 25/25/25
f 42/42/42 41/41/41 26/26/26
f 40/40/40 42/42/42 26/26/26
f 43/43/43 42/42/42 40/40/40
f 43/43/43 44/44/44 42/42/42
f 43/43/43 45/45/45 44/44/44
f 43/43/43 46/46/46 45/45/45
f 47/47/47 46/46/46 43/43/43
f 47/47/47 48/48/48 46/46/46
f 49/49/49 48/48/48 47/47/47
f 49/49/49 50/50/50 48/48/48
f 51/51/51 50/50/50 49/49/49
f 51/51/51 52/52/52 50/50/50
f 51/51/51 53/53/53 52/52/52
f 34/34/34 53/53/53 51/51/51
f 38/38/38 34/34/34 37/37/37
f 53/53/53 34/34/34 38/38/38
f 54/54/54 14/14/14 12/12/12
f 55/55/55 54/54/54 12/12/12
f 55/55/55 56/56/56 54/54/54
f 56/56/56 6/6/6 4/4/4
f 56/56/56 55/55/55 6/6/6
f 45/45/45 46/46/46 48/48/48
f 48/48/48 50/50/50 52/52/52
f 59/59/59 58/58/58 57/57/57
f 60/60/60 59/59/59 57/57/57
f 59/59/59 60/60/60 61/61/61
f 62/62/62 61/61/61 60/60/60
f 62/62/62 63/63/63 61/61/61
f 62/62/62 64/64/64 63/63/63
f 62/62/62 65/65/65 64/64/64
f 66/66/66 65/65/65 62/62/62
f 66/66/66 67/67/67 65/65/65
f 66/66/66 68/68/68 67/67/67
f 66/66/66 69/69/69 68/68/68
f 70/70/70 69/69/69 66/66/66
f 70/70/70 71/71/71 69/69/69
f 70/70/70 72/72/72 71/71/71
f 73/73/73 72/72/72 70/70/70
f 73/73/73 74/74/74 72/72/72
f 73/73/73 75/75/75 74/74/74
f 76/76/76 75/75/75 73/73/73
f 76/76/76 77/77/77 75/75/75
f 78/78/78 77/77/77 76/76/76
f 81/81/81 80/80/80 79/79/79
f 82/82/82 80/80/80 81/81/81
f 83/83/83 80/80/80 82/82/82
f 83/83/83 84/84/84 80/80/80
f 80/80/80 85/85/85 79/79/79
f 86/86/86 85/85/85 80/80/80
f 86/86/86 87/87/87 85/85/85
f 86/86/86 88/88/88 87/87/87
f 89/89/89 88/88/88 86/86/86
f 92/92/92 91/91/91 90/90/90
f 95/95/95 94/94/94 93/93/93
f 96/96/96 94/94/94 95/95/95
f 97/97/97 94/94/94 96/96/96
f 97/97/97 92/92/92 94/94/94
f 98/98/98 92/92/92 97/97/97
f 99/99/99 92/92/92 98/98/98
f 100/100/100 92/92/92 99/99/99
f 101/101/101 100/100/100 99/99/99
f 100/100/100 91/91/91 92/92/92
f 102/102/102 90/90/90 91/91/91
f 103/103/103 102/102/102 91/91/91
f 105/105/105 104/104/104 102/102/102
f 103/103/103 105/105/105 102/102/102
f 88/88/88 89/89/89 106/106/106
f 88/88/88 106/106/106 104/104/104
f 105/105/105 88/88/88 104/104/104
f 109/109/109 108/108/108 107/107/107
f 109/109/109 110/110/110 108/108/108
f 112/112/112 111/111/111 110/110/110
f 113/113/113 111/111/111 112/112/112
f 114/114/114 111/111/111 113/113/113
f 115/115/115 111/111/111 114/114/114
f 115/115/115 116/116/116 111/111/111
f 115/115/115 117/117/117 116/116/116
f 118/118/118 117/117/117 115/115/115
f 118/118/118 119/119/119 117/117/117
f 120/120/120 119/119/119 118/118/118
f 121/121/121 119/119/119 120/120/120
f 121/121/121 122/122/122 119/119/119
f 123/123/123 122/122/122 121/121/121
f 124/124/124 122/122/122 123/123/123
f 124/124/124 125/125/125 122/122/122
f 126/126/126 125/125/125 124/124/124
f 127/127/127 125/125/125 126/126/126
f 130/130/130 129/129/129 128/128/128
f 131/131/131 129/129/129 130/130/130
f 131/131/131 132/132/132 129/129/129
f 131/131/131 125/125/125 127/127/127
f 133/133/133 107/107/107 108/108/108
f 133/133/133 134/134/134 107/107/107
f 135/135/135 130/130/130 128/128/128
f 137/137/137 136/136/136 135/135/135
f 128/128/128 137/137/137 135/135/135
f 134/134/134 133/133/133 138/138/138
f 139/139/139 134/134/134 138/138/138
f 131/131/131 127/127/127 132/132/132
f 112/112/112 110/110/110 109/109/109
f 139/139/139 138/138/138 136/136/136
f 137/137/137 139/139/139 136/136/136
f 142/142/142 141/141/141 140/140/140
f 143/143/143 141/141/141 142/142/142
f 144/144/144 141/141/141 143/143/143
f 147/147/147 146/146/146 145/145/145
f 148/148/148 147/147/147 145/145/145
f 147/147/147 149/149/149 146/146/146
f 147/147/147 151/151/151 150/150/150
f 149/149/149 147/147/147 150/150/150
f 150/150/150 151/151/151 152/152/152
f 153/153/153 152/152/152 151/151/151
f 153/153/153 154/154/154 152/152/152
f 153/153/153 155/155/155 154/154/154
f 156/156/156 155/155/155 153/153/153
f 156/156/156 157/157/157 155/155/155
f 156/156/156 158/158/158 157/157/157
f 159/159/159 158/158/158 156/156/156
f 159/159/159 160/160/160 158/158/158
f 159/159/159 161/161/161 160/160/160
f 162/162/162 161/161/161 159/159/159
f 162/162/162 163/163/163 161/161/161
f 162/162/162 164/164/164 163/163/163
f 162/162/162 165/165/165 164/164/164
f 166/166/166 165/165/165 162/162/162
f 166/166/166 167/167/167 165/165/165
f 168/168/168 167/167/167 166/166/166
f 168/168/168 169/169/169 167/167/167
f 168/168/168 170/170/170 169/169/169
f 171/171/171 170/170/170 168/168/168
f 171/171/171 172/172/172 170/170/170
f 174/174/174 173/173/173 172/172/172
f 171/171/171 174/174/174 172/172/172
f 141/141/141 174/174/174 171/171/171
f 141/141/141 175/175/175 174/174/174
f 141/141/141 144/144/144 175/175/175
f 178/178/178 177/177/177 176/176/176
f 145/145/145 179/179/179 148/148/148
f 179/179/179 181/181/181 180/180/180
f 148/148/148 179/179/179 180/180/180
f 182/182/182 180/180/180 181/181/181
f 183/183/183 180/180/180 182/182/182
f 184/184/184 180/180/180 183/183/183
f 185/185/185 180/180/180 184/184/184
f 185/185/185 186/186/186 180/180/180
f 187/187/187 186/186/186 185/185/185
f 187/187/187 188/188/188 186/186/186
f 188/188/188 189/189/189 186/186/186
f 191/191/191 190/190/190 189/189/189
f 188/188/188 191/191/191 189/189/189
f 190/190/190 192/192/192 189/189/189
f 190/190/190 193/193/193 192/192/192
f 192/192/192 193/193/193 194/194/194
f 195/195/195 192/192/192 194/194/194
f 176/176/176 196/196/196 178/178/178
f 176/176/176 142/142/142 140/140/140
f 196/196/196 176/176/176 140/140/140
f 178/178/178 197/197/197 177/177/177
f 199/199/199 198/198/198 197/197/197
f 178/178/178 199/199/199 197/197/197
f 200/200/200 198/198/198 199/199/199
f 201/201/201 200/200/200 199/199/199
f 201/201/201 202/202/202 200/200/200
f 205/205/205 204/204/204 203/203/203
f 206/206/206 204/204/204 205/205/205
f 201/201/201 207/207/207 202/202/202
f 208/208/208 207/207/207 201/201/201
f 210/210/210 209/209/209 207/207/207
f 208/208/208 210/210/210 207/207/207
f 208/208/208 211/211/211 210/210/210
f 204/204/204 211/211/211 208/208/208
f 204/204/204 206/206/206 211/211/211
g cPK_10_001530_00_GARAGARAex_RR_L_SB_1
f 214/214/214 213/213/213 212/212/212
f 215/215/215 214/214/214 212/212/212
f 218/218/218 217/217/217 216/216/216
f 219/219/219 218/218/218 216/216/216
f 220/220/220 45/45/45 48/48/48
f 221/221/221 27/27/27 19/19/19
f 213/213/213 18/18/18 16/16/16
f 212/212/212 213/213/213 16/16/16
f 219/219/219 9/9/9 10/10/10
f 218/218/218 219/219/219 10/10/10
f 32/32/32 30/30/30 29/29/29
f 222/222/222 32/32/32 29/29/29
f 223/223/223 27/27/27 221/221/221
f 224/224/224 223/223/223 221/221/221
f 218/218/218 10/10/10 7/7/7
f 225/225/225 218/218/218 7/7/7
f 218/218/218 226/226/226 217/217/217
f 227/227/227 214/214/214 215/215/215
f 228/228/228 227/227/227 215/215/215
f 229/229/229 223/223/223 224/224/224
f 230/230/230 12/12/12 13/13/13
f 231/231/231 230/230/230 13/13/13
f 231/231/231 233/233/233 232/232/232
f 236/236/236 235/235/235 234/234/234
f 239/239/239 238/238/238 237/237/237
f 240/240/240 239/239/239 237/237/237
f 35/35/35 33/33/33 241/241/241
f 242/242/242 35/35/35 241/241/241
f 216/216/216 15/15/15 1/1/1
f 219/219/219 216/216/216 1/1/1
f 225/225/225 7/7/7 6/6/6
f 243/243/243 225/225/225 6/6/6
f 225/225/225 245/245/245 244/244/244
f 246/246/246 227/227/227 228/228/228
f 247/247/247 246/246/246 228/228/228
f 238/238/238 223/223/223 229/229/229
f 248/248/248 238/238/238 229/229/229
f 33/33/33 32/32/32 222/222/222
f 241/241/241 33/33/33 222/222/222
f 237/237/237 238/238/238 248/248/248
f 249/249/249 246/246/246 247/247/247
f 250/250/250 249/249/249 247/247/247
f 243/243/243 252/252/252 251/251/251
f 243/243/243 6/6/6 55/55/55
f 253/253/253 243/243/243 55/55/55
f 254/254/254 234/234/234 235/235/235
f 255/255/255 239/239/239 240/240/240
f 256/256/256 255/255/255 240/240/240
f 39/39/39 35/35/35 242/242/242
f 19/19/19 18/18/18 213/213/213
f 221/221/221 19/19/19 213/213/213
f 221/221/221 213/213/213 214/214/214
f 224/224/224 221/221/221 214/214/214
f 224/224/224 214/214/214 227/227/227
f 229/229/229 224/224/224 227/227/227
f 229/229/229 227/227/227 246/246/246
f 248/248/248 229/229/229 246/246/246
f 248/248/248 246/246/246 249/249/249
f 237/237/237 248/248/248 249/249/249
f 237/237/237 249/249/249 234/234/234
f 240/240/240 237/237/237 234/234/234
f 240/240/240 234/234/234 254/254/254
f 256/256/256 240/240/240 254/254/254
f 257/257/257 26/26/26 41/41/41
f 42/42/42 44/44/44 258/258/258
f 259/259/259 42/42/42 258/258/258
f 16/16/16 15/15/15 216/216/216
f 212/212/212 16/16/16 216/216/216
f 212/212/212 216/216/216 217/217/217
f 215/215/215 212/212/212 217/217/217
f 215/215/215 217/217/217 226/226/226
f 226/226/226 228/228/228 215/215/215
f 226/226/226 244/244/244 228/228/228
f 228/228/228 244/244/244 245/245/245
f 245/245/245 247/247/247 228/228/228
f 245/245/245 251/251/251 247/247/247
f 250/250/250 247/247/247 251/251/251
f 251/251/251 252/252/252 250/250/250
f 252/252/252 260/260/260 250/250/250
f 235/235/235 232/232/232 233/233/233
f 233/233/233 22/22/22 24/24/24
f 261/261/261 233/233/233 24/24/24
f 234/234/234 249/249/249 250/250/250
f 236/236/236 234/234/234 250/250/250
f 236/236/236 250/250/250 260/260/260
f 260/260/260 262/262/262 236/236/236
f 262/262/262 232/232/232 236/236/236
f 253/253/253 262/262/262 260/260/260
f 253/253/253 55/55/55 12/12/12
f 230/230/230 253/253/253 12/12/12
f 231/231/231 13/13/13 21/21/21
f 231/231/231 21/21/21 22/22/22
f 233/233/233 231/231/231 22/22/22
f 261/261/261 235/235/235 233/233/233
f 235/235/235 261/261/261 257/257/257
f 263/263/263 254/254/254 257/257/257
f 256/256/256 264/264/264 255/255/255
f 39/39/39 255/255/255 37/37/37
f 29/29/29 27/27/27 223/223/223
f 222/222/222 29/29/29 223/223/223
f 222/222/222 223/223/223 238/238/238
f 241/241/241 222/222/222 238/238/238
f 241/241/241 238/238/238 239/239/239
f 242/242/242 241/241/241 239/239/239
f 242/242/242 239/239/239 255/255/255
f 41/41/41 42/42/42 259/259/259
f 263/263/263 41/41/41 259/259/259
f 220/220/220 258/258/258 44/44/44
f 45/45/45 220/220/220 44/44/44
f 265/265/265 52/52/52 53/53/53
f 265/265/265 53/53/53 38/38/38
f 266/266/266 38/38/38 36/36/36
f 267/267/267 264/264/264 266/266/266
f 265/265/265 48/48/48 52/52/52
f 265/265/265 268/268/268 258/258/258
f 220/220/220 265/265/265 258/258/258
f 259/259/259 258/258/258 268/268/268
f 266/266/266 259/259/259 268/268/268
f 263/263/263 259/259/259 266/266/266
f 264/264/264 263/263/263 266/266/266
f 264/264/264 256/256/256 254/254/254
f 263/263/263 264/264/264 254/254/254
f 261/261/261 24/24/24 26/26/26
f 257/257/257 261/261/261 26/26/26
f 1/1/1 2/2/2 9/9/9
f 219/219/219 1/1/1 9/9/9
f 235/235/235 257/257/257 254/254/254
f 225/225/225 244/244/244 226/226/226
f 218/218/218 225/225/225 226/226/226
f 243/243/243 251/251/251 245/245/245
f 225/225/225 243/243/243 245/245/245
f 253/253/253 260/260/260 252/252/252
f 243/243/243 253/253/253 252/252/252
f 230/230/230 232/232/232 262/262/262
f 253/253/253 230/230/230 262/262/262
f 41/41/41 263/263/263 257/257/257
f 264/264/264 267/267/267 255/255/255
f 39/39/39 242/242/242 255/255/255
f 265/265/265 38/38/38 268/268/268
f 266/266/266 268/268/268 38/38/38
f 267/267/267 266/266/266 36/36/36
f 267/267/267 37/37/37 255/255/255
f 267/267/267 36/36/36 37/37/37
f 265/265/265 220/220/220 48/48/48
f 230/230/230 231/231/231 232/232/232
f 235/235/235 236/236/236 232/232/232
f 270/270/270 269/269/269 61/61/61
f 271/271/271 270/270/270 61/61/61
f 274/274/274 273/273/273 272/272/272
f 275/275/275 274/274/274 272/272/272
f 276/276/276 99/99/99 98/98/98
f 277/277/277 276/276/276 98/98/98
f 278/278/278 100/100/100 101/101/101
f 279/279/279 278/278/278 101/101/101
f 279/279/279 101/101/101 99/99/99
f 276/276/276 279/279/279 99/99/99
f 278/278/278 280/280/280 100/100/100
f 103/103/103 91/91/91 100/100/100
f 280/280/280 103/103/103 100/100/100
f 277/277/277 98/98/98 97/97/97
f 281/281/281 277/277/277 97/97/97
f 282/282/282 97/97/97 96/96/96
f 284/284/284 95/95/95 283/283/283
f 285/285/285 271/271/271 61/61/61
f 63/63/63 285/285/285 61/61/61
f 67/67/67 68/68/68 286/286/286
f 286/286/286 287/287/287 67/67/67
f 287/287/287 65/65/65 67/67/67
f 286/286/286 68/68/68 272/272/272
f 290/290/290 289/289/289 288/288/288
f 291/291/291 290/290/290 288/288/288
f 289/289/289 79/79/79 292/292/292
f 288/288/288 289/289/289 292/292/292
f 79/79/79 85/85/85 293/293/293
f 292/292/292 79/79/79 293/293/293
f 85/85/85 87/87/87 294/294/294
f 293/293/293 85/85/85 294/294/294
f 87/87/87 88/88/88 105/105/105
f 294/294/294 87/87/87 105/105/105
f 294/294/294 105/105/105 103/103/103
f 280/280/280 294/294/294 103/103/103
f 293/293/293 294/294/294 280/280/280
f 278/278/278 293/293/293 280/280/280
f 292/292/292 293/293/293 278/278/278
f 279/279/279 292/292/292 278/278/278
f 288/288/288 292/292/292 279/279/279
f 276/276/276 288/288/288 279/279/279
f 291/291/291 288/288/288 276/276/276
f 277/277/277 291/291/291 276/276/276
f 286/286/286 291/291/291 277/277/277
f 281/281/281 286/286/286 277/277/277
f 287/287/287 286/286/286 281/281/281
f 295/295/295 287/287/287 281/281/281
f 285/285/285 297/297/297 296/296/296
f 296/296/296 298/298/298 270/270/270
f 271/271/271 296/296/296 270/270/270
f 65/65/65 287/287/287 297/297/297
f 64/64/64 65/65/65 297/297/297
f 64/64/64 297/297/297 285/285/285
f 63/63/63 64/64/64 285/285/285
f 295/295/295 299/299/299 298/298/298
f 296/296/296 295/295/295 298/298/298
f 295/295/295 282/282/282 299/299/299
f 301/301/301 284/284/284 300/300/300
f 282/282/282 96/96/96 301/301/301
f 282/282/282 295/295/295 281/281/281
f 282/282/282 281/281/281 97/97/97
f 301/301/301 300/300/300 299/299/299
f 282/282/282 301/301/301 299/299/299
f 96/96/96 95/95/95 284/284/284
f 301/301/301 96/96/96 284/284/284
f 297/297/297 287/287/287 296/296/296
f 285/285/285 296/296/296 271/271/271
f 287/287/287 295/295/295 296/296/296
f 302/302/302 274/274/274 275/275/275
f 303/303/303 302/302/302 275/275/275
f 303/303/303 72/72/72 74/74/74
f 304/304/304 303/303/303 74/74/74
f 272/272/272 68/68/68 69/69/69
f 275/275/275 71/71/71 72/72/72
f 303/303/303 275/275/275 72/72/72
f 307/307/307 306/306/306 305/305/305
f 305/305/305 308/308/308 307/307/307
f 308/308/308 309/309/309 307/307/307
f 309/309/309 310/310/310 307/307/307
f 309/309/309 311/311/311 310/310/310
f 309/309/309 302/302/302 311/311/311
f 302/302/302 304/304/304 311/311/311
f 302/302/302 303/303/303 304/304/304
f 313/313/313 312/312/312 274/274/274
f 302/302/302 313/313/313 274/274/274
f 312/312/312 290/290/290 273/273/273
f 274/274/274 312/312/312 273/273/273
f 307/307/307 315/315/315 314/314/314
f 306/306/306 307/307/307 314/314/314
f 316/316/316 305/305/305 306/306/306
f 317/317/317 316/316/316 306/306/306
f 317/317/317 306/306/306 314/314/314
f 82/82/82 308/308/308 305/305/305
f 83/83/83 82/82/82 305/305/305
f 316/316/316 83/83/83 305/305/305
f 81/81/81 309/309/309 308/308/308
f 82/82/82 81/81/81 308/308/308
f 313/313/313 302/302/302 309/309/309
f 81/81/81 313/313/313 309/309/309
f 310/310/310 318/318/318 315/315/315
f 307/307/307 310/310/310 315/315/315
f 310/310/310 319/319/319 318/318/318
f 311/311/311 77/77/77 319/319/319
f 310/310/310 311/311/311 319/319/319
f 311/311/311 75/75/75 77/77/77
f 304/304/304 74/74/74 75/75/75
f 311/311/311 304/304/304 75/75/75
f 273/273/273 290/290/290 291/291/291
f 272/272/272 273/273/273 291/291/291
f 286/286/286 272/272/272 291/291/291
f 272/272/272 69/69/69 71/71/71
f 275/275/275 272/272/272 71/71/71
f 322/322/322 321/321/321 320/320/320
f 324/324/324 321/321/321 323/323/323
f 325/325/325 324/324/324 323/323/323
f 326/326/326 324/324/324 325/325/325
f 327/327/327 326/326/326 325/325/325
f 328/328/328 326/326/326 327/327/327
f 329/329/329 328/328/328 327/327/327
f 330/330/330 328/328/328 329/329/329
f 331/331/331 330/330/330 329/329/329
f 139/139/139 330/330/330 331/331/331
f 134/134/134 139/139/139 331/331/331
f 322/322/322 120/120/120 118/118/118
f 323/323/323 115/115/115 114/114/114
f 325/325/325 323/323/323 114/114/114
f 325/325/325 114/114/114 113/113/113
f 327/327/327 325/325/325 113/113/113
f 327/327/327 113/113/113 112/112/112
f 329/329/329 327/327/327 112/112/112
f 329/329/329 112/112/112 109/109/109
f 331/331/331 329/329/329 109/109/109
f 134/134/134 331/331/331 107/107/107
f 137/137/137 128/128/128 332/332/332
f 128/128/128 129/129/129 333/333/333
f 332/332/332 128/128/128 333/333/333
f 127/127/127 334/334/334 333/333/333
f 333/333/333 132/132/132 127/127/127
f 333/333/333 129/129/129 132/132/132
f 127/127/127 126/126/126 335/335/335
f 334/334/334 127/127/127 335/335/335
f 126/126/126 124/124/124 320/320/320
f 335/335/335 126/126/126 320/320/320
f 121/121/121 120/120/120 322/322/322
f 123/123/123 121/121/121 322/322/322
f 118/118/118 115/115/115 323/323/323
f 322/322/322 118/118/118 323/323/323
f 322/322/322 320/320/320 124/124/124
f 123/123/123 322/322/322 124/124/124
f 331/331/331 109/109/109 107/107/107
f 137/137/137 332/332/332 330/330/330
f 139/139/139 137/137/137 330/330/330
f 332/332/332 333/333/333 328/328/328
f 330/330/330 332/332/332 328/328/328
f 333/333/333 334/334/334 326/326/326
f 328/328/328 333/333/333 326/326/326
f 334/334/334 335/335/335 324/324/324
f 326/326/326 334/334/334 324/324/324
f 335/335/335 320/320/320 321/321/321
f 324/324/324 335/335/335 321/321/321
f 322/322/322 323/323/323 321/321/321
f 338/338/338 337/337/337 336/336/336
f 339/339/339 338/338/338 336/336/336
f 341/341/341 340/340/340 181/181/181
f 179/179/179 341/341/341 181/181/181
f 146/146/146 341/341/341 145/145/145
f 160/160/160 161/161/161 342/342/342
f 343/343/343 211/211/211 206/206/206
f 344/344/344 343/343/343 206/206/206
f 347/347/347 346/346/346 345/345/345
f 350/350/350 349/349/349 348/348/348
f 352/352/352 351/351/351 349/349/349
f 353/353/353 352/352/352 349/349/349
f 349/349/349 351/351/351 354/354/354
f 356/356/356 355/355/355 347/347/347
f 346/346/346 352/352/352 353/353/353
f 345/345/345 346/346/346 353/353/353
f 353/353/353 349/349/349 350/350/350
f 357/357/357 353/353/353 350/350/350
f 345/345/345 353/353/353 357/357/357
f 358/358/358 345/345/345 357/357/357
f 359/359/359 345/345/345 358/358/358
f 362/362/362 361/361/361 360/360/360
f 363/363/363 362/362/362 360/360/360
f 365/365/365 364/364/364 361/361/361
f 366/366/366 364/364/364 365/365/365
f 367/367/367 366/366/366 365/365/365
f 368/368/368 366/366/366 367/367/367
f 370/370/370 368/368/368 369/369/369
f 372/372/372 359/359/359 371/371/371
f 172/172/172 373/373/373 169/169/169
f 170/170/170 172/172/172 169/169/169
f 355/355/355 144/144/144 143/143/143
f 142/142/142 176/176/176 374/374/374
f 375/375/375 177/177/177 197/197/197
f 376/376/376 375/375/375 197/197/197
f 354/354/354 198/198/198 200/200/200
f 348/348/348 354/354/354 200/200/200
f 362/362/362 363/363/363 377/377/377
f 378/378/378 362/362/362 377/377/377
f 365/365/365 362/362/362 378/378/378
f 379/379/379 365/365/365 378/378/378
f 367/367/367 365/365/365 379/379/379
f 380/380/380 367/367/367 379/379/379
f 369/369/369 367/367/367 380/380/380
f 383/383/383 382/382/382 381/381/381
f 176/176/176 177/177/177 375/375/375
f 374/374/374 176/176/176 375/375/375
f 386/386/386 385/385/385 384/384/384
f 387/387/387 386/386/386 384/384/384
f 388/388/388 385/385/385 386/386/386
f 389/389/389 388/388/388 386/386/386
f 392/392/392 391/391/391 390/390/390
f 393/393/393 392/392/392 390/390/390
f 394/394/394 342/342/342 338/338/338
f 336/336/336 337/337/337 391/391/391
f 395/395/395 336/336/336 391/391/391
f 397/397/397 396/396/396 336/336/336
f 336/336/336 396/396/396 398/398/398
f 339/339/339 336/336/336 398/398/398
f 394/394/394 339/339/339 398/398/398
f 399/399/399 394/394/394 398/398/398
f 154/154/154 155/155/155 394/394/394
f 400/400/400 194/194/194 193/193/193
f 401/401/401 400/400/400 193/193/193
f 401/401/401 193/193/193 190/190/190
f 402/402/402 401/401/401 190/190/190
f 185/185/185 184/184/184 403/403/403
f 183/183/183 182/182/182 404/404/404
f 182/182/182 181/181/181 340/340/340
f 404/404/404 182/182/182 340/340/340
f 150/150/150 152/152/152 399/399/399
f 399/399/399 398/398/398 340/340/340
f 341/341/341 399/399/399 340/340/340
f 404/404/404 340/340/340 398/398/398
f 396/396/396 404/404/404 398/398/398
f 403/403/403 404/404/404 396/396/396
f 407/407/407 406/406/406 405/405/405
f 409/409/409 408/408/408 400/400/400
f 401/401/401 409/409/409 400/400/400
f 191/191/191 188/188/188 407/407/407
f 403/403/403 397/397/397 406/406/406
f 410/410/410 403/403/403 406/406/406
f 390/390/390 388/388/388 389/389/389
f 393/393/393 390/390/390 389/389/389
f 407/407/407 410/410/410 406/406/406
f 187/187/187 410/410/410 407/407/407
f 188/188/188 187/187/187 407/407/407
f 405/405/405 409/409/409 401/401/401
f 402/402/402 405/405/405 401/401/401
f 407/407/407 405/405/405 402/402/402
f 411/411/411 361/361/361 350/350/350
f 357/357/357 350/350/350 361/361/361
f 364/364/364 357/357/357 361/361/361
f 358/358/358 357/357/357 364/364/364
f 366/366/366 358/358/358 364/364/364
f 371/371/371 358/358/358 366/366/366
f 412/412/412 371/371/371 368/368/368
f 202/202/202 411/411/411 348/348/348
f 411/411/411 207/207/207 360/360/360
f 360/360/360 414/414/414 413/413/413
f 363/363/363 360/360/360 413/413/413
f 363/363/363 413/413/413 377/377/377
f 415/415/415 347/347/347 359/359/359
f 355/355/355 416/416/416 346/346/346
f 167/167/167 169/169/169 373/373/373
f 417/417/417 167/167/167 373/373/373
f 418/418/418 415/415/415 372/372/372
f 420/420/420 419/419/419 415/415/415
f 417/417/417 421/421/421 167/167/167
f 422/422/422 355/355/355 356/356/356
f 424/424/424 423/423/423 419/419/419
f 175/175/175 144/144/144 422/422/422
f 426/426/426 425/425/425 383/383/383
f 370/370/370 383/383/383 425/425/425
f 427/427/427 370/370/370 425/425/425
f 428/428/428 412/412/412 370/370/370
f 429/429/429 372/372/372 412/412/412
f 175/175/175 422/422/422 430/430/430
f 174/174/174 175/175/175 430/430/430
f 422/422/422 423/423/423 431/431/431
f 430/430/430 422/422/422 431/431/431
f 432/432/432 431/431/431 423/423/423
f 174/174/174 430/430/430 433/433/433
f 173/173/173 174/174/174 433/433/433
f 430/430/430 431/431/431 434/434/434
f 433/433/433 430/430/430 434/434/434
f 434/434/434 431/431/431 432/432/432
f 435/435/435 434/434/434 432/432/432
f 173/173/173 433/433/433 373/373/373
f 172/172/172 173/173/173 373/373/373
f 434/434/434 417/417/417 373/373/373
f 433/433/433 434/434/434 373/373/373
f 417/417/417 434/434/434 435/435/435
f 421/421/421 417/417/417 435/435/435
f 157/157/157 158/158/158 342/342/342
f 395/395/395 397/397/397 336/336/336
f 389/389/389 436/436/436 409/409/409
f 405/405/405 389/389/389 409/409/409
f 436/436/436 437/437/437 408/408/408
f 409/409/409 436/436/436 408/408/408
f 152/152/152 154/154/154 399/399/399
f 438/438/438 387/387/387 384/384/384
f 389/389/389 386/386/386 436/436/436
f 393/393/393 389/389/389 405/405/405
f 406/406/406 393/393/393 405/405/405
f 393/393/393 406/406/406 392/392/392
f 392/392/392 395/395/395 391/391/391
f 150/150/150 341/341/341 149/149/149
f 146/146/146 149/149/149 341/341/341
f 343/343/343 210/210/210 211/211/211
f 439/439/439 344/344/344 205/205/205
f 191/191/191 402/402/402 190/190/190
f 191/191/191 407/407/407 402/402/402
f 377/377/377 413/413/413 440/440/440
f 441/441/441 377/377/377 440/440/440
f 413/413/413 414/414/414 442/442/442
f 440/440/440 413/413/413 442/442/442
f 414/414/414 207/207/207 209/209/209
f 442/442/442 414/414/414 209/209/209
f 403/403/403 184/184/184 183/183/183
f 403/403/403 183/183/183 404/404/404
f 187/187/187 185/185/185 410/410/410
f 185/185/185 403/403/403 410/410/410
f 419/419/419 356/356/356 347/347/347
f 356/356/356 419/419/419 423/423/423
f 426/426/426 384/384/384 385/385/385
f 425/425/425 426/426/426 385/385/385
f 425/425/425 385/385/385 388/388/388
f 427/427/427 425/425/425 388/388/388
f 427/427/427 388/388/388 390/390/390
f 428/428/428 427/427/427 390/390/390
f 428/428/428 390/390/390 391/391/391
f 429/429/429 428/428/428 391/391/391
f 429/429/429 391/391/391 337/337/337
f 418/418/418 429/429/429 337/337/337
f 418/418/418 337/337/337 338/338/338
f 426/426/426 383/383/383 381/381/381
f 426/426/426 381/381/381 384/384/384
f 351/351/351 375/375/375 376/376/376
f 374/374/374 375/375/375 351/351/351
f 352/352/352 374/374/374 351/351/351
f 352/352/352 346/346/346 416/416/416
f 374/374/374 352/352/352 416/416/416
f 376/376/376 197/197/197 198/198/198
f 376/376/376 198/198/198 354/354/354
f 351/351/351 376/376/376 354/354/354
f 432/432/432 342/342/342 161/161/161
f 432/432/432 161/161/161 163/163/163
f 435/435/435 432/432/432 163/163/163
f 435/435/435 163/163/163 164/164/164
f 421/421/421 435/435/435 164/164/164
f 164/164/164 165/165/165 167/167/167
f 421/421/421 164/164/164 167/167/167
f 420/420/420 418/418/418 338/338/338
f 424/424/424 420/420/420 342/342/342
f 432/432/432 424/424/424 342/342/342
f 397/397/397 395/395/395 392/392/392
f 406/406/406 397/397/397 392/392/392
f 436/436/436 386/386/386 387/387/387
f 387/387/387 438/438/438 437/437/437
f 436/436/436 387/387/387 437/437/437
f 341/341/341 179/179/179 145/145/145
f 394/394/394 338/338/338 339/339/339
f 155/155/155 157/157/157 394/394/394
f 157/157/157 342/342/342 394/394/394
f 344/344/344 206/206/206 205/205/205
f 439/439/439 205/205/205 203/203/203
f 443/443/443 438/438/438 384/384/384
f 415/415/415 359/359/359 372/372/372
f 415/415/415 419/419/419 347/347/347
f 422/422/422 356/356/356 423/423/423
f 383/383/383 369/369/369 444/444/444
f 443/443/443 384/384/384 381/381/381
f 411/411/411 350/350/350 348/348/348
f 349/349/349 354/354/354 348/348/348
f 411/411/411 360/360/360 361/361/361
f 207/207/207 414/414/414 360/360/360
f 202/202/202 207/207/207 411/411/411
f 348/348/348 200/200/200 202/202/202
f 365/365/365 361/361/361 362/362/362
f 359/359/359 347/347/347 345/345/345
f 347/347/347 355/355/355 346/346/346
f 371/371/371 359/359/359 358/358/358
f 368/368/368 371/371/371 366/366/366
f 369/369/369 368/368/368 367/367/367
f 444/444/444 369/369/369 380/380/380
f 383/383/383 444/444/444 382/382/382
f 370/370/370 369/369/369 383/383/383
f 412/412/412 368/368/368 370/370/370
f 372/372/372 371/371/371 412/412/412
f 418/418/418 372/372/372 429/429/429
f 429/429/429 412/412/412 428/428/428
f 428/428/428 370/370/370 427/427/427
f 420/420/420 415/415/415 418/418/418
f 424/424/424 419/419/419 420/420/420
f 420/420/420 338/338/338 342/342/342
f 432/432/432 423/423/423 424/424/424
f 144/144/144 355/355/355 422/422/422
f 143/143/143 142/142/142 416/416/416
f 142/142/142 374/374/374 416/416/416
f 355/355/355 143/143/143 416/416/416
f 154/154/154 394/394/394 399/399/399
f 150/150/150 399/399/399 341/341/341
f 397/397/397 403/403/403 396/396/396
f 442/442/442 209/209/209 210/210/210
f 343/343/343 442/442/442 210/210/210
f 440/440/440 442/442/442 343/343/343
f 344/344/344 440/440/440 343/343/343
f 441/441/441 440/440/440 344/344/344
f 439/439/439 441/441/441 344/344/344
f 158/158/158 160/160/160 342/342/342
f 59/59/59 61/61/61 269/269/269
f 59/59/59 269/269/269 58/58/58
g cPK_10_001530_00_GARAGARAex_RR_L_SB_2
f 447/447/447 446/446/446 445/445/445
f 447/447/447 448/448/448 446/446/446
f 449/449/449 448/448/448 447/447/447
f 449/449/449 450/450/450 448/448/448
f 452/452/452 449/449/449 451/451/451
f 453/453/453 449/449/449 452/452/452
f 453/453/453 450/450/450 449/449/449
f 454/454/454 450/450/450 453/453/453
f 455/455/455 452/452/452 451/451/451
f 455/455/455 456/456/456 452/452/452
f 455/455/455 457/457/457 456/456/456
f 458/458/458 457/457/457 455/455/455
f 458/458/458 459/459/459 457/457/457
f 460/460/460 459/459/459 458/458/458
f 460/460/460 461/461/461 459/459/459
f 460/460/460 462/462/462 461/461/461
f 463/463/463 462/462/462 460/460/460
f 312/312/312 289/289/289 290/290/290
f 313/313/313 289/289/289 312/312/312
f 313/313/313 79/79/79 289/289/289
f 463/463/463 464/464/464 462/462/462
f 57/57/57 464/464/464 463/463/463
f 57/57/57 465/465/465 464/464/464
f 57/57/57 466/466/466 465/465/465
f 58/58/58 467/467/467 466/466/466
f 57/57/57 58/58/58 466/466/466
f 78/78/78 319/319/319 77/77/77
f 468/468/468 319/319/319 78/78/78
f 469/469/469 319/319/319 468/468/468
f 469/469/469 318/318/318 319/319/319
f 469/469/469 315/315/315 318/318/318
f 81/81/81 79/79/79 313/313/313
f 316/316/316 84/84/84 83/83/83
f 316/316/316 470/470/470 84/84/84
f 317/317/317 470/470/470 316/316/316
f 314/314/314 470/470/470 317/317/317
f 314/314/314 469/469/469 470/470/470
f 315/315/315 469/469/469 314/314/314
f 446/446/446 471/471/471 445/445/445
f 472/472/472 471/471/471 446/446/446
f 473/473/473 471/471/471 472/472/472
f 473/473/473 474/474/474 471/471/471
f 475/475/475 474/474/474 473/473/473
f 476/476/476 474/474/474 475/475/475
f 477/477/477 474/474/474 476/476/476
f 477/477/477 478/478/478 474/474/474
f 479/479/479 478/478/478 477/477/477
f 479/479/479 93/93/93 478/478/478
f 283/283/283 93/93/93 479/479/479
f 95/95/95 93/93/93 283/283/283
f 482/482/482 481/481/481 480/480/480
f 483/483/483 481/481/481 482/482/482
f 483/483/483 484/484/484 481/481/481
f 485/485/485 484/484/484 483/483/483
f 485/485/485 486/486/486 484/484/484
f 486/486/486 487/487/487 484/484/484
f 486/486/486 488/488/488 487/487/487
f 488/488/488 489/489/489 487/487/487
f 488/488/488 490/490/490 489/489/489
f 490/490/490 491/491/491 489/489/489
f 494/494/494 493/493/493 492/492/492
f 494/494/494 495/495/495 493/493/493
f 494/494/494 496/496/496 495/495/495
f 497/497/497 496/496/496 494/494/494
f 498/498/498 496/496/496 497/497/497
f 498/498/498 499/499/499 496/496/496
f 498/498/498 500/500/500 499/499/499
f 491/491/491 501/501/501 489/489/489
f 503/503/503 502/502/502 501/501/501
f 502/502/502 504/504/504 501/501/501
f 502/502/502 505/505/505 504/504/504
f 505/505/505 506/506/506 504/504/504
f 507/507/507 504/504/504 506/506/506
f 507/507/507 498/498/498 504/504/504
f 500/500/500 498/498/498 507/507/507
f 493/493/493 508/508/508 492/492/492
f 509/509/509 508/508/508 493/493/493
f 510/510/510 508/508/508 509/509/509
f 510/510/510 511/511/511 508/508/508
f 512/512/512 511/511/511 510/510/510
f 480/480/480 513/513/513 482/482/482
f 514/514/514 513/513/513 480/480/480
f 514/514/514 515/515/515 513/513/513
f 514/514/514 516/516/516 515/515/515
f 517/517/517 516/516/516 514/514/514
f 517/517/517 518/518/518 516/516/516
f 519/519/519 518/518/518 517/517/517
f 519/519/519 520/520/520 518/518/518
f 521/521/521 520/520/520 519/519/519
f 521/521/521 523/523/523 522/522/522
f 524/524/524 511/511/511 512/512/512
f 525/525/525 511/511/511 524/524/524
f 521/521/521 526/526/526 523/523/523
f 521/521/521 527/527/527 526/526/526
f 528/528/528 527/527/527 521/521/521
f 528/528/528 529/529/529 527/527/527
f 531/531/531 530/530/530 529/529/529
f 528/528/528 531/531/531 529/529/529
f 532/532/532 531/531/531 528/528/528
f 532/532/532 533/533/533 531/531/531
f 511/511/511 533/533/533 532/532/532
f 511/511/511 534/534/534 533/533/533
f 525/525/525 534/534/534 511/511/511
f 491/491/491 503/503/503 501/501/501
f 521/521/521 522/522/522 520/520/520
f 537/537/537 536/536/536 535/535/535
f 536/536/536 537/537/537 538/538/538
f 538/538/538 539/539/539 536/536/536
f 540/540/540 539/539/539 538/538/538
f 540/540/540 541/541/541 539/539/539
f 542/542/542 541/541/541 540/540/540
f 543/543/543 541/541/541 542/542/542
f 543/543/543 544/544/544 541/541/541
f 535/535/535 545/545/545 537/537/537
f 546/546/546 545/545/545 535/535/535
f 546/546/546 547/547/547 545/545/545
f 546/546/546 548/548/548 547/547/547
f 549/549/549 548/548/548 546/546/546
f 549/549/549 550/550/550 548/548/548
f 551/551/551 550/550/550 549/549/549
f 551/551/551 552/552/552 550/550/550
f 554/554/554 553/553/553 544/544/544
f 553/553/553 551/551/551 544/544/544
f 553/553/553 552/552/552 551/551/551
f 554/554/554 544/544/544 543/543/543
f 557/557/557 556/556/556 555/555/555
f 558/558/558 556/556/556 557/557/557
f 558/558/558 559/559/559 556/556/556
f 560/560/560 559/559/559 558/558/558
f 561/561/561 559/559/559 560/560/560
f 560/560/560 562/562/562 561/561/561
f 560/560/560 563/563/563 562/562/562
f 564/564/564 557/557/557 555/555/555
f 564/564/564 565/565/565 557/557/557
f 566/566/566 565/565/565 564/564/564
f 567/567/567 565/565/565 566/566/566
f 567/567/567 568/568/568 565/565/565
f 567/567/567 569/569/569 568/568/568
f 569/569/569 570/570/570 568/568/568
f 570/570/570 571/571/571 568/568/568
f 572/572/572 568/568/568 571/571/571
f 572/572/572 204/204/204 568/568/568
f 203/203/203 204/204/204 572/572/572
f 573/573/573 563/563/563 560/560/560
f 574/574/574 573/573/573 560/560/560
f 195/195/195 194/194/194 573/573/573
f 574/574/574 195/195/195 573/573/573
f 58/58/58 269/269/269 467/467/467
g cPK_10_001530_00_GARAGARAex_RR_L_SB_3
f 459/459/459 461/461/461 575/575/575
f 577/577/577 576/576/576 575/575/575
f 270/270/270 298/298/298 578/578/578
f 269/269/269 270/270/270 578/578/578
f 578/578/578 298/298/298 299/299/299
f 579/579/579 578/578/578 299/299/299
f 579/579/579 299/299/299 300/300/300
f 300/300/300 284/284/284 579/579/579
f 284/284/284 283/283/283 579/579/579
f 467/467/467 578/578/578 580/580/580
f 466/466/466 467/467/467 580/580/580
f 581/581/581 580/580/580 578/578/578
f 579/579/579 581/581/581 578/578/578
f 579/579/579 283/283/283 479/479/479
f 581/581/581 579/579/579 479/479/479
f 466/466/466 580/580/580 582/582/582
f 465/465/465 466/466/466 582/582/582
f 583/583/583 582/582/582 580/580/580
f 581/581/581 583/583/583 580/580/580
f 581/581/581 479/479/479 477/477/477
f 583/583/583 581/581/581 477/477/477
f 465/465/465 582/582/582 584/584/584
f 464/464/464 465/465/465 584/584/584
f 585/585/585 584/584/584 582/582/582
f 583/583/583 585/585/585 582/582/582
f 583/583/583 477/477/477 476/476/476
f 585/585/585 583/583/583 476/476/476
f 464/464/464 584/584/584 586/586/586
f 462/462/462 464/464/464 586/586/586
f 585/585/585 476/476/476 475/475/475
f 587/587/587 585/585/585 475/475/475
f 462/462/462 586/586/586 575/575/575
f 461/461/461 462/462/462 575/575/575
f 456/456/456 457/457/457 576/576/576
f 459/459/459 575/575/575 576/576/576
f 457/457/457 459/459/459 576/576/576
f 452/452/452 576/576/576 577/577/577
f 453/453/453 452/452/452 577/577/577
f 452/452/452 456/456/456 576/576/576
f 454/454/454 453/453/453 577/577/577
f 454/454/454 589/589/589 588/588/588
f 450/450/450 454/454/454 588/588/588
f 448/448/448 450/450/450 588/588/588
f 587/587/587 475/475/475 473/473/473
f 448/448/448 588/588/588 590/590/590
f 587/587/587 473/473/473 472/472/472
f 590/590/590 587/587/587 472/472/472
f 590/590/590 472/472/472 446/446/446
f 584/584/584 585/585/585 587/587/587
f 586/586/586 584/584/584 587/587/587
f 590/590/590 588/588/588 589/589/589
f 575/575/575 586/586/586 589/589/589
f 586/586/586 587/587/587 589/589/589
f 448/448/448 590/590/590 446/446/446
f 454/454/454 577/577/577 589/589/589
f 587/587/587 590/590/590 589/589/589
f 577/577/577 575/575/575 589/589/589
f 591/591/591 503/503/503 491/491/491
f 502/502/502 503/503/503 591/591/591
f 592/592/592 502/502/502 591/591/591
f 595/595/595 594/594/594 593/593/593
f 495/495/495 496/496/496 499/499/499
f 597/597/597 596/596/596 506/506/506
f 596/596/596 507/507/507 506/506/506
f 600/600/600 599/599/599 598/598/598
f 601/601/601 600/600/600 598/598/598
f 602/602/602 486/486/486 485/485/485
f 603/603/603 488/488/488 486/486/486
f 604/604/604 490/490/490 488/488/488
f 607/607/607 606/606/606 605/605/605
f 610/610/610 609/609/609 608/608/608
f 612/612/612 611/611/611 609/609/609
f 613/613/613 594/594/594 611/611/611
f 611/611/611 594/594/594 609/609/609
f 609/609/609 614/614/614 608/608/608
f 606/606/606 615/615/615 523/523/523
f 615/615/615 606/606/606 607/607/607
f 616/616/616 615/615/615 607/607/607
f 607/607/607 617/617/617 531/531/531
f 616/616/616 607/607/607 531/531/531
f 610/610/610 618/618/618 534/534/534
f 620/620/620 619/619/619 612/612/612
f 597/597/597 611/611/611 612/612/612
f 618/618/618 616/616/616 533/533/533
f 621/621/621 482/482/482 513/513/513
f 621/621/621 515/515/515 622/622/622
f 625/625/625 624/624/624 623/623/623
f 627/627/627 591/591/591 626/626/626
f 603/603/603 623/623/623 604/604/604
f 602/602/602 622/622/622 603/603/603
f 621/621/621 602/602/602 483/483/483
f 619/619/619 629/629/629 628/628/628
f 612/612/612 619/619/619 628/628/628
f 629/629/629 631/631/631 630/630/630
f 628/628/628 629/629/629 630/630/630
f 631/631/631 509/509/509 493/493/493
f 630/630/630 631/631/631 493/493/493
f 525/525/525 524/524/524 629/629/629
f 619/619/619 525/525/525 629/629/629
f 524/524/524 512/512/512 631/631/631
f 629/629/629 524/524/524 631/631/631
f 512/512/512 510/510/510 509/509/509
f 631/631/631 512/512/512 509/509/509
f 597/597/597 612/612/612 596/596/596
f 628/628/628 630/630/630 632/632/632
f 596/596/596 628/628/628 632/632/632
f 630/630/630 493/493/493 495/495/495
f 632/632/632 630/630/630 495/495/495
f 597/597/597 502/502/502 592/592/592
f 592/592/592 591/591/591 627/627/627
f 620/620/620 609/609/609 610/610/610
f 620/620/620 525/525/525 619/619/619
f 620/620/620 534/534/534 525/525/525
f 599/599/599 633/633/633 624/624/624
f 626/626/626 491/491/491 490/490/490
f 626/626/626 604/604/604 634/634/634
f 634/634/634 623/623/623 624/624/624
f 634/634/634 633/633/633 627/627/627
f 627/627/627 593/593/593 613/613/613
f 635/635/635 594/594/594 600/600/600
f 599/599/599 624/624/624 625/625/625
f 636/636/636 625/625/625 515/515/515
f 636/636/636 515/515/515 516/516/516
f 636/636/636 516/516/516 518/518/518
f 598/598/598 636/636/636 518/518/518
f 598/598/598 518/518/518 520/520/520
f 601/601/601 598/598/598 520/520/520
f 637/637/637 522/522/522 523/523/523
f 601/601/601 520/520/520 522/522/522
f 638/638/638 601/601/601 522/522/522
f 608/608/608 637/637/637 615/615/615
f 618/618/618 610/610/610 608/608/608
f 608/608/608 615/615/615 616/616/616
f 618/618/618 608/608/608 616/616/616
f 597/597/597 592/592/592 613/613/613
f 599/599/599 625/625/625 636/636/636
f 635/635/635 600/600/600 601/601/601
f 638/638/638 635/635/635 601/601/601
f 597/597/597 505/505/505 502/502/502
f 597/597/597 613/613/613 611/611/611
f 597/597/597 506/506/506 505/505/505
f 612/612/612 628/628/628 596/596/596
f 632/632/632 500/500/500 507/507/507
f 596/596/596 632/632/632 507/507/507
f 632/632/632 499/499/499 500/500/500
f 632/632/632 495/495/495 499/499/499
f 515/515/515 621/621/621 513/513/513
f 602/602/602 485/485/485 483/483/483
f 515/515/515 625/625/625 622/622/622
f 622/622/622 625/625/625 623/623/623
f 634/634/634 624/624/624 633/633/633
f 637/637/637 523/523/523 615/615/615
f 639/639/639 606/606/606 523/523/523
f 605/605/605 606/606/606 639/639/639
f 617/617/617 607/607/607 605/605/605
f 639/639/639 523/523/523 526/526/526
f 639/639/639 526/526/526 527/527/527
f 605/605/605 639/639/639 527/527/527
f 605/605/605 527/527/527 529/529/529
f 617/617/617 529/529/529 530/530/530
f 617/617/617 530/530/530 531/531/531
f 637/637/637 638/638/638 522/522/522
f 637/637/637 614/614/614 635/635/635
f 638/638/638 637/637/637 635/635/635
f 635/635/635 614/614/614 594/594/594
f 600/600/600 594/594/594 595/595/595
f 598/598/598 599/599/599 636/636/636
f 599/599/599 600/600/600 633/633/633
f 613/613/613 593/593/593 594/594/594
f 595/595/595 593/593/593 633/633/633
f 600/600/600 595/595/595 633/633/633
f 592/592/592 627/627/627 613/613/613
f 603/603/603 622/622/622 623/623/623
f 604/604/604 623/623/623 634/634/634
f 602/602/602 621/621/621 622/622/622
f 621/621/621 483/483/483 482/482/482
f 602/602/602 603/603/603 486/486/486
f 603/603/603 604/604/604 488/488/488
f 604/604/604 626/626/626 490/490/490
f 633/633/633 593/593/593 627/627/627
f 626/626/626 591/591/591 491/491/491
f 617/617/617 605/605/605 529/529/529
f 614/614/614 637/637/637 608/608/608
f 594/594/594 614/614/614 609/609/609
f 620/620/620 612/612/612 609/609/609
f 620/620/620 610/610/610 534/534/534
f 618/618/618 533/533/533 534/534/534
f 616/616/616 531/531/531 533/533/533
f 627/627/627 626/626/626 634/634/634
f 550/550/550 640/640/640 548/548/548
f 545/545/545 642/642/642 641/641/641
f 643/643/643 553/553/553 554/554/554
f 644/644/644 542/542/542 540/540/540
f 645/645/645 644/644/644 540/540/540
f 640/640/640 552/552/552 553/553/553
f 641/641/641 645/645/645 538/538/538
f 646/646/646 554/554/554 543/543/543
f 644/644/644 543/543/543 542/542/542
f 642/642/642 547/547/547 548/548/548
f 642/642/642 545/545/545 547/547/547
f 641/641/641 538/538/538 537/537/537
f 647/647/647 646/646/646 543/543/543
f 647/647/647 648/648/648 643/643/643
f 648/648/648 642/642/642 640/640/640
f 640/640/640 642/642/642 548/548/548
f 641/641/641 642/642/642 648/648/648
f 645/645/645 648/648/648 647/647/647
f 644/644/644 647/647/647 543/543/543
f 545/545/545 641/641/641 537/537/537
f 550/550/550 552/552/552 640/640/640
f 643/643/643 648/648/648 640/640/640
f 646/646/646 647/647/647 643/643/643
f 641/641/641 648/648/648 645/645/645
f 645/645/645 647/647/647 644/644/644
f 645/645/645 540/540/540 538/538/538
f 643/643/643 640/640/640 553/553/553
f 646/646/646 643/643/643 554/554/554
f 378/378/378 377/377/377 649/649/649
f 650/650/650 378/378/378 649/649/649
f 379/379/379 378/378/378 650/650/650
f 651/651/651 379/379/379 650/650/650
f 380/380/380 379/379/379 651/651/651
f 652/652/652 380/380/380 651/651/651
f 444/444/444 380/380/380 652/652/652
f 653/653/653 444/444/444 652/652/652
f 655/655/655 654/654/654 381/381/381
f 382/382/382 655/655/655 381/381/381
f 650/650/650 649/649/649 656/656/656
f 657/657/657 650/650/650 656/656/656
f 651/651/651 650/650/650 657/657/657
f 658/658/658 651/651/651 657/657/657
f 652/652/652 651/651/651 658/658/658
f 659/659/659 652/652/652 658/658/658
f 653/653/653 652/652/652 659/659/659
f 660/660/660 653/653/653 659/659/659
f 662/662/662 661/661/661 654/654/654
f 655/655/655 662/662/662 654/654/654
f 665/665/665 664/664/664 663/663/663
f 666/666/666 665/665/665 663/663/663
f 667/667/667 665/665/665 666/666/666
f 668/668/668 667/667/667 666/666/666
f 669/669/669 667/667/667 668/668/668
f 670/670/670 669/669/669 668/668/668
f 671/671/671 669/669/669 670/670/670
f 672/672/672 671/671/671 670/670/670
f 675/675/675 674/674/674 673/673/673
f 676/676/676 675/675/675 673/673/673
f 666/666/666 663/663/663 677/677/677
f 678/678/678 666/666/666 677/677/677
f 668/668/668 666/666/666 678/678/678
f 679/679/679 668/668/668 678/678/678
f 670/670/670 668/668/668 679/679/679
f 680/680/680 670/670/670 679/679/679
f 672/672/672 670/670/670 680/680/680
f 681/681/681 672/672/672 680/680/680
f 683/683/683 682/682/682 674/674/674
f 675/675/675 683/683/683 674/674/674
f 685/685/685 684/684/684 566/566/566
f 686/686/686 684/684/684 685/685/685
f 687/687/687 686/686/686 685/685/685
f 688/688/688 686/686/686 687/687/687
f 689/689/689 688/688/688 687/687/687
f 690/690/690 688/688/688 689/689/689
f 691/691/691 690/690/690 689/689/689
f 691/691/691 693/693/693 692/692/692
f 695/695/695 661/661/661 694/694/694
f 694/694/694 661/661/661 673/673/673
f 696/696/696 694/694/694 673/673/673
f 697/697/697 674/674/674 682/682/682
f 698/698/698 697/697/697 682/682/682
f 438/438/438 695/695/695 699/699/699
f 437/437/437 438/438/438 699/699/699
f 700/700/700 561/561/561 562/562/562
f 701/701/701 700/700/700 562/562/562
f 563/563/563 701/701/701 562/562/562
f 701/701/701 563/563/563 573/573/573
f 702/702/702 701/701/701 573/573/573
f 702/702/702 573/573/573 194/194/194
f 400/400/400 702/702/702 194/194/194
f 408/408/408 703/703/703 702/702/702
f 400/400/400 408/408/408 702/702/702
f 703/703/703 704/704/704 701/701/701
f 702/702/702 703/703/703 701/701/701
f 437/437/437 699/699/699 703/703/703
f 408/408/408 437/437/437 703/703/703
f 699/699/699 705/705/705 704/704/704
f 703/703/703 699/699/699 704/704/704
f 705/705/705 707/707/707 706/706/706
f 704/704/704 705/705/705 706/706/706
f 707/707/707 692/692/692 693/693/693
f 706/706/706 707/707/707 693/693/693
f 685/685/685 566/566/566 564/564/564
f 687/687/687 685/685/685 555/555/555
f 687/687/687 555/555/555 556/556/556
f 689/689/689 687/687/687 556/556/556
f 691/691/691 556/556/556 559/559/559
f 559/559/559 561/561/561 693/693/693
f 691/691/691 559/559/559 693/693/693
f 439/439/439 203/203/203 572/572/572
f 708/708/708 439/439/439 572/572/572
f 708/708/708 572/572/572 571/571/571
f 709/709/709 708/708/708 571/571/571
f 709/709/709 571/571/571 570/570/570
f 710/710/710 709/709/709 570/570/570
f 677/677/677 663/663/663 569/569/569
f 663/663/663 710/710/710 569/569/569
f 663/663/663 664/664/664 710/710/710
f 711/711/711 664/664/664 656/656/656
f 656/656/656 649/649/649 712/712/712
f 711/711/711 656/656/656 712/712/712
f 649/649/649 377/377/377 441/441/441
f 712/712/712 649/649/649 441/441/441
f 704/704/704 706/706/706 700/700/700
f 701/701/701 704/704/704 700/700/700
f 700/700/700 706/706/706 693/693/693
f 443/443/443 713/713/713 695/695/695
f 438/438/438 443/443/443 695/695/695
f 695/695/695 713/713/713 661/661/661
f 690/690/690 691/691/691 692/692/692
f 691/691/691 689/689/689 556/556/556
f 684/684/684 567/567/567 566/566/566
f 678/678/678 677/677/677 567/567/567
f 684/684/684 678/678/678 567/567/567
f 679/679/679 678/678/678 684/684/684
f 686/686/686 679/679/679 684/684/684
f 680/680/680 679/679/679 686/686/686
f 688/688/688 680/680/680 686/686/686
f 681/681/681 680/680/680 688/688/688
f 690/690/690 681/681/681 688/688/688
f 683/683/683 692/692/692 682/682/682
f 677/677/677 569/569/569 567/567/567
f 698/698/698 682/682/682 692/692/692
f 676/676/676 673/673/673 661/661/661
f 662/662/662 676/676/676 661/661/661
f 660/660/660 659/659/659 669/669/669
f 671/671/671 660/660/660 669/669/669
f 659/659/659 658/658/658 667/667/667
f 669/669/669 659/659/659 667/667/667
f 658/658/658 657/657/657 665/665/665
f 667/667/667 658/658/658 665/665/665
f 657/657/657 656/656/656 664/664/664
f 665/665/665 657/657/657 664/664/664
f 673/673/673 674/674/674 697/697/697
f 696/696/696 673/673/673 697/697/697
f 710/710/710 570/570/570 569/569/569
f 685/685/685 564/564/564 555/555/555
f 444/444/444 653/653/653 655/655/655
f 382/382/382 444/444/444 655/655/655
f 653/653/653 660/660/660 662/662/662
f 655/655/655 653/653/653 662/662/662
f 660/660/660 671/671/671 676/676/676
f 662/662/662 660/660/660 676/676/676
f 671/671/671 672/672/672 675/675/675
f 676/676/676 671/671/671 675/675/675
f 672/672/672 681/681/681 683/683/683
f 675/675/675 672/672/672 683/683/683
f 681/681/681 690/690/690 692/692/692
f 683/683/683 681/681/681 692/692/692
f 707/707/707 698/698/698 692/692/692
f 698/698/698 707/707/707 697/697/697
f 696/696/696 697/697/697 707/707/707
f 705/705/705 696/696/696 707/707/707
f 696/696/696 705/705/705 694/694/694
f 695/695/695 694/694/694 705/705/705
f 699/699/699 695/695/695 705/705/705
f 700/700/700 693/693/693 561/561/561
f 381/381/381 654/654/654 713/713/713
f 443/443/443 381/381/381 713/713/713
f 713/713/713 654/654/654 661/661/661
f 712/712/712 441/441/441 439/439/439
f 708/708/708 712/712/712 439/439/439
f 711/711/711 712/712/712 708/708/708
f 709/709/709 711/711/711 708/708/708
f 711/711/711 710/710/710 664/664/664
f 711/711/711 709/709/709 710/710/710
f 467/467/467 269/269/269 578/578/578
