g cPK_10_000840_00_FREEZERex_RR_L_SB
v 0.40991336 0.24154316 -0.012838309
v 0.4099954 0.23960431 -0.012838309
v 0.42993098 0.2370472 -0.012838311
v -0.21227793 0.07078075 -0.009458213
v -0.20805226 0.08445307 -0.009528088
v -0.23256747 0.09403315 -0.008047305
v -0.23737743 0.06733614 -0.008409697
v 0.29139787 0.14861433 -0.012838311
v 0.27401483 0.15703696 -0.012838219
v 0.31230196 0.13480611 -0.012838311
v -0.20412765 0.09519404 -0.0093485145
v 0.4222804 0.28146526 -0.012838311
v 0.41561103 0.32012734 -0.017339362
v 0.3690121 0.33652076 -0.017339362
v 0.36679807 0.30076817 -0.019189645
v 0.28794822 0.3527681 -0.02508658
v 0.29670116 0.3164909 -0.025456462
v 0.2606157 0.35374206 -0.024838531
v 0.2656322 0.32083282 -0.028723631
v 0.23628333 0.35098308 -0.023809213
v 0.23964058 0.31564957 -0.027951796
v 0.22071758 0.30722782 -0.025626233
v 0.20646277 0.34029448 -0.022344476
v 0.19025294 0.33085582 -0.020824878
v 0.19712423 0.292075 -0.022264672
v 0.45671955 0.26361012 -0.012838309
v 0.48095566 0.29205266 -0.012838309
v 0.45641336 0.23527578 -0.012838311
v 0.5049432 0.24309011 -0.012838309
v 0.17632139 0.32143733 -0.019429186
v 0.11037698 0.27295414 -0.014169595
v 0.13010414 0.24596429 -0.015148393
v 0.07216022 0.24485503 -0.011506602
v 0.091559015 0.21690737 -0.011846892
v 0.039101277 0.21939781 -0.010093432
v 0.057039905 0.19079286 -0.009664322
v 0.01464795 0.19855256 -0.009630147
v 0.015839212 0.15597425 -0.008345131
v -0.054062296 0.19693005 -0.008528309
v -0.02318895 0.20179415 -0.006590713
v -0.04566903 0.24229513 -0.007840177
v -0.06721479 0.22012582 -0.007954182
v -0.1694065 0.24043941 -0.00757468
v -0.17528011 0.27176738 -0.0075358124
v -0.1924247 0.26285133 -0.0075358087
v -0.18159364 0.23447554 -0.0075755105
v -0.09277856 0.2718005 -0.0075358124
v -0.08318397 0.23587537 -0.007401876
v -0.10742128 0.24502786 -0.0076186755
v -0.13692568 0.27744645 -0.0075358124
v -0.12236599 0.24655662 -0.0075385408
v -0.14501773 0.24628296 -0.0075364485
v -0.22004543 0.16935694 -0.0072166133
v -0.24576592 0.17550765 -0.007300438
v -0.24111259 0.132684 -0.0072166133
v -0.21924777 0.1461412 -0.0072166133
v -0.23618089 0.21887408 -0.0020194626
v -0.20299232 0.21683116 -0.007268579
v -0.21270695 0.19963735 -0.0072166133
v -0.21832195 0.18280576 -0.0072166133
v -0.24576592 0.17550765 -0.007300438
v -0.20299232 0.21683116 -0.007268579
v -0.23618089 0.21887408 -0.0020194626
v -0.21270695 0.19963735 -0.0072166133
v -0.21832195 0.18280576 -0.0072166133
v -0.0028990945 0.18293113 -0.008022103
v -0.0493751 0.17715822 -0.008699513
v 0.00022560358 0.13571699 -0.0075383927
v -0.04367857 0.14612079 -0.008055319
v -0.017262844 0.16789156 -0.007042172
v -0.0073831603 0.12524872 -0.0062293704
v -0.024833797 0.1316806 -0.007091783
v 0.31958482 0.09099253 -0.012838311
v 0.33335584 0.061642297 -0.012838309
v 0.3270639 0.09420913 -0.012838311
v 0.19216095 -0.060726058 -0.0075946907
v 0.144496 -0.039872248 -0.009916439
v 0.14365803 -0.04888552 -0.007889838
v 0.18280262 -0.07937774 -0.0075221234
v -0.16094118 0.021861278 -0.009631188
v -0.19354753 0.0009084502 -0.008844213
v -0.19472955 -0.04938494 -0.0080653615
v -0.15968977 -0.048885483 -0.006869866
v -0.2162172 0.13153361 -0.007456804
v -0.21233132 0.118534304 -0.0077879997
v -0.19547631 -0.07937774 -0.008050639
v -0.16116978 -0.07937774 -0.007839081
v 0.50637186 0.17808309 -0.012838309
v 0.4563066 0.22880033 -0.012838311
v 0.45686594 0.19466119 -0.012838309
v 0.4401508 0.108108036 -0.012838311
v 0.48382735 0.1260582 -0.012838309
v 0.45706233 0.1565295 -0.012838311
v 0.44877696 0.14914785 -0.012838311
v 0.4372041 0.14337273 -0.012838311
v 0.40407428 0.09967799 -0.012838311
v 0.37392697 0.13963369 -0.012838309
v 0.3802087 0.13394476 -0.012838309
v 0.37764892 0.13051108 -0.012838309
v 0.3712171 0.12723899 -0.012838309
v 0.365497 0.12783872 -0.012838309
v 0.31595063 0.14327629 -0.012838309
v 0.33556354 0.11354605 -0.012838311
v 0.36840752 0.08102865 -0.012838311
v 0.33844993 0.10769983 -0.012838311
v 0.33465394 0.10226853 -0.012838311
v 0.45676732 0.16283546 -0.012838311
v 0.372648 0.2108718 -0.012838311
v 0.3551791 0.21108137 -0.012838309
v 0.4182175 0.18298237 -0.012838309
v 0.4421822 0.23870352 -0.012838311
v 0.2266223 0.1231895 -0.012838244
v 0.26079258 0.10279901 -0.012838224
v 0.29919395 0.100743294 -0.012838311
v 0.21821938 0.12952423 -0.012838246
v 0.21710813 0.127828 -0.012838247
v 0.2838535 0.0836389 -0.012838309
v -0.21240285 0.057013012 -0.009886596
v -0.21124919 0.050842624 -0.010267703
v -0.2356197 0.04872078 -0.008828101
v -0.23198543 0.03680364 -0.009099328
v -0.208185 0.04553751 -0.010878089
v -0.17069328 0.04220547 -0.010987106
v -0.18244271 0.03453732 -0.010412182
v -0.20072077 0.0072261104 -0.009071278
v -0.16533011 0.0313386 -0.010142909
v 0.1568403 0.070479624 -0.012838254
v 0.14695793 0.072706394 -0.012838254
v 0.16385284 0.055576622 -0.012838254
v 0.19912998 0.056902297 -0.012838234
v 0.16917783 0.068505876 -0.012838254
v 0.17249133 0.0438208 -0.012838254
v 0.120141104 0.049844477 -0.012208217
v 0.11743343 0.05082137 -0.012208212
v 0.1318429 0.0341736 -0.012208222
v 0.1281765 0.046466865 -0.012208219
v 0.14270607 0.039091323 -0.012838252
v 0.12608273 0.024170646 -0.0122082215
v 0.11083052 0.031343367 -0.012208214
v 0.12046128 0.0144437505 -0.012878107
v 0.15431856 0.03129409 -0.012838252
v 0.13922523 -0.032870606 -0.010367229
v 0.19758908 -0.04783469 -0.009568733
v 0.13164286 0.029809637 -0.012208224
v 0.1313391 -0.006171622 -0.011411028
v 0.20300336 -0.03555342 -0.011105176
v 0.20964411 -0.017820409 -0.012208193
v 0.15775166 0.030585933 -0.012838252
v 0.16186188 0.030941004 -0.012838254
v 0.16916575 0.033926357 -0.012838254
v 0.1736232 0.03704291 -0.012838254
v 0.22408345 0.016950252 -0.012838286
v 0.17427845 0.03964787 -0.012838254
v 0.20451732 0.05431648 -0.012838234
v 0.19789134 0.091711454 -0.012838252
v 0.1965974 0.090121344 -0.012838252
v 0.21120663 0.07920946 -0.01283824
v 0.28262934 0.079002224 -0.012838309
v 0.294069 0.045129616 -0.012838309
v 0.25771034 0.067504406 -0.012838224
v 0.25201514 0.06701334 -0.012838224
v 0.25733122 0.030059403 -0.012838254
v 0.3217842 0.17590821 -0.012838309
v 0.3100904 0.17616947 -0.012838309
v 0.31061313 0.17815319 -0.012838309
v 0.21290417 0.05153651 -0.012838234
v 0.22103237 0.07026009 -0.012838234
v 0.22523077 0.06456824 -0.012838234
v 0.22388144 0.059426855 -0.012838234
v 0.43826753 0.19968805 -0.012838309
v 0.4202048 0.20313668 -0.012838309
v 0.44627005 0.16986762 -0.012838311
v -0.112063445 -0.07937774 -0.007792263
v -0.118853286 -0.048937254 -0.007011746
v 0.044763103 -0.07937774 -0.007168343
v 0.044725284 -0.04888549 -0.008017514
v -0.089419685 -0.048968714 -0.007642384
v -0.0663684 -0.048941158 -0.007647063
v -0.032384332 -0.07937774 -0.008139707
v -0.20062482 0.048678916 -0.011313818
v -0.200476 0.04145966 -0.010518911
v -0.19208214 0.031936515 -0.009991059
v -0.21052352 0.01481991 -0.009391794
v -0.19655216 0.034277625 -0.010226752
v -0.22699836 0.02820575 -0.0097322175
v -0.21631923 0.01952893 -0.009745545
v -0.00063008425 -0.048916634 -0.007259813
v -0.038637187 -0.048927367 -0.0078061684
v -0.21054342 0.23318279 -0.0074273855
v -0.22759771 0.20497309 -0.0072688246
v -0.20299232 0.21683116 -0.007268579
v -0.18948852 0.23061214 -0.0074275616
v 0.3260051 0.29928803 -0.024789233
v 0.093117855 0.038044665 -0.012907222
v 0.10461082 0.04640863 -0.012208217
v 0.040486034 0.10485073 -0.011912796
v 0.09904381 0.21008098 -0.014829076
v 0.062464513 0.18292814 -0.012865694
v -0.01157464 0.11894939 -0.009995549
v 0.1532166 0.047371827 -0.012838252
v -0.20983742 0.20221508 -0.0076435283
v -0.20915571 0.05514234 -0.0105102165
v -0.19205298 0.037565228 -0.0103507945
v -0.14930438 0.06280007 -0.012225137
v -0.14474352 0.07288986 -0.012350815
v -0.1515799 0.06952505 -0.012426687
v -0.15917131 0.051454123 -0.011518756
v -0.16154322 0.05809168 -0.012002575
v -0.1741573 0.04621535 -0.011357383
v -0.1542042 0.0658651 -0.012352011
v -0.18514906 0.038844664 -0.010805626
v -0.19072871 0.03551772 -0.010506082
v -0.14761287 0.08110532 -0.012482693
v -0.1558854 0.09422107 -0.012331323
v -0.16362026 0.08203744 -0.012590222
v -0.19029304 0.05350941 -0.011919338
v -0.19551526 0.06265139 -0.011790701
v -0.157989 0.06617518 -0.01191521
v -0.17400688 0.058945198 -0.011667547
v -0.1629787 0.05824724 -0.011685317
v -0.19155374 0.10310163 -0.010895081
v -0.19919032 0.10245856 -0.009682227
v -0.16873251 0.108031824 -0.012048658
v -0.18360464 0.115539394 -0.010975725
v -0.17839842 0.09538758 -0.012083656
v -0.200267 0.08674549 -0.010903212
v -0.18826516 0.07642382 -0.012058726
v -0.20687233 0.070976116 -0.010569327
v -0.17649935 0.0590506 -0.012420782
v -0.21052821 0.11857834 -0.00833725
v -0.09483653 0.23133467 -0.008977166
v -0.066977136 0.21109214 -0.008980558
v -0.056507744 0.1764623 -0.009675824
v -0.21770482 0.17298557 -0.0077023455
v -0.042481925 0.13661714 -0.008570219
v -0.074864544 0.12170123 -0.012570411
v -0.07636875 0.14625941 -0.012465093
v -0.094814256 0.14640312 -0.013058657
v -0.15629564 0.1186697 -0.012325809
v -0.16982946 0.1186574 -0.011925711
v -0.21695912 0.14620455 -0.007873527
v -0.19280879 0.11192777 -0.010118625
v -0.19442339 0.11870637 -0.0101785045
v -0.12602995 0.085593864 -0.012929683
v -0.12586932 0.119086504 -0.012711743
v -0.09483304 0.0935787 -0.013246046
v -0.12589328 0.14628066 -0.012477347
v -0.15661517 0.17647628 -0.011399566
v -0.15608065 0.14635512 -0.011985904
v -0.15527646 0.2054762 -0.010619929
v -0.12623042 0.176512 -0.012207835
v -0.15177205 0.23848622 -0.009100087
v -0.124135636 0.23762508 -0.009249928
v -0.1851745 0.22924021 -0.008379064
v -0.17715345 0.2324953 -0.00853199
v -0.185472 0.1463009 -0.010957779
v -0.19985066 0.17647463 -0.009603685
v -0.19847178 0.14629166 -0.009936281
v -0.1550074 0.038620908 -0.011437806
v -0.15221386 0.023121372 -0.011203258
v -0.026471859 0.12672006 -0.0073520686
v -0.04552562 0.109564856 -0.011167181
v -0.06787741 0.071057454 -0.012540792
v -0.041884746 0.083700314 -0.011945798
v -0.06603271 0.046842873 -0.012667908
v -0.039747454 0.052914865 -0.012089316
v -0.11866603 -0.038485374 -0.010461277
v -0.15134081 -0.037740614 -0.009557555
v -0.1513475 -0.0069694533 -0.010555744
v -0.06630371 -0.039491374 -0.011212199
v -0.0893836 -0.03904022 -0.010986605
v 0.2116982 0.27613026 -0.024761623
v 0.2972777 0.16906035 -0.012838309
v 0.16126925 0.22694111 -0.018949738
v 0.25189596 0.14800109 -0.012838234
v 0.11995929 0.18480507 -0.0137953805
v 0.2091699 0.111002915 -0.012838254
v 0.085010044 0.15204369 -0.012041057
v 0.18127696 0.08140609 -0.012838237
v 0.2434691 0.30029297 -0.027250344
v 0.3399704 0.19686146 -0.012838311
v 0.39900517 0.22870503 -0.012838311
v 0.13997994 0.24033618 -0.01755844
v 0.019764004 0.14748584 -0.011610992
v 0.0008951534 0.1217152 -0.012527435
v -0.0016747576 0.06886202 -0.013364618
v -0.024097009 0.090091564 -0.012654004
v 0.12585793 -0.03849119 -0.011323955
v 0.044383433 -0.039628122 -0.01403826
v -0.0006990617 -0.040169492 -0.013936694
v -0.18577234 0.17654507 -0.010637853
v -0.18283226 0.20555559 -0.009753704
v -0.12645699 0.20541857 -0.011542861
v -0.09462615 0.1764107 -0.01254302
v -0.047640543 0.14611939 -0.009074817
v -0.09496166 0.11923885 -0.013171764
v -0.18379556 0.118684486 -0.01109746
v -0.092916265 0.062204506 -0.01286064
v -0.118615545 0.052694973 -0.0123736225
v -0.18653119 0.039474472 -0.010428671
v -0.19054876 0.041091662 -0.010404405
v -0.19465458 0.041824423 -0.010444414
v -0.19080326 0.050370257 -0.010895766
v -0.19461508 0.0478744 -0.010663065
v -0.17834209 0.056949373 -0.01147903
v -0.071533345 0.10157179 -0.012911868
v -0.19275467 0.22489119 -0.008217725
v -0.0908198 0.044185903 -0.012703841
v -0.11814051 0.02309339 -0.01208114
v -0.18491034 0.049459822 -0.010974154
v -0.17590494 0.046759058 -0.010979155
v -0.07672806 0.17643411 -0.011720984
v -0.094882645 0.2055091 -0.011545852
v -0.07861978 0.20563082 -0.010765718
v -0.19702679 0.2053471 -0.009037299
v -0.118586734 -0.0065547475 -0.011511332
v 0.04426049 -0.005282284 -0.013663909
v -0.00058767834 -0.005445655 -0.013621198
v 0.08113795 -0.0062814183 -0.013732552
v 0.044374146 0.022737468 -0.01352595
v 0.06938014 0.03154426 -0.01386976
v 0.11500966 -0.0061517316 -0.012906792
v -0.0662923 0.023051513 -0.012453134
v -0.06618682 -0.005409475 -0.011921837
v -0.039376304 -0.0054234345 -0.012036831
v -0.0395354 0.023050142 -0.012350095
v -0.08954284 -0.005942348 -0.011827587
v -0.029544631 0.11495638 -0.00920819
v -0.05236255 0.123673536 -0.010806678
v -0.043236345 0.12060151 -0.010403049
v -0.054623093 0.14644943 -0.010271435
v -0.08923409 0.023010498 -0.012370572
v -0.038952153 -0.039830435 -0.011397738
v -0.017476497 0.062039804 -0.014016709
v -0.00063865056 0.023046765 -0.01341065
v -0.026710743 0.10202155 -0.011911149
v -0.118462004 0.038822234 -0.012326483
v -0.20487288 0.2051519 -0.008244765
v -0.21014002 0.17650154 -0.0084716845
v -0.21005677 0.14626792 -0.008754663
v -0.20508097 0.1187243 -0.009120646
v -0.21526769 0.14082956 -0.008885974
v -0.199806 0.12638241 -0.0106905205
v -0.22351705 0.16897194 -0.009760384
v -0.18888167 0.13742305 -0.014635557
v -0.18595111 0.11653241 -0.011415099
v -0.17516014 0.13185263 -0.015142021
v -0.16748102 0.12244202 -0.015282464
v -0.16495965 0.11762116 -0.012919344
v -0.19272894 0.13551287 -0.0130541865
v -0.22577904 0.33952364 -0.0072814464
v -0.23369122 0.3098786 -0.0072723404
v -0.22978532 0.31274113 -0.0075969086
v -0.22034171 0.31340393 -0.007831725
v -0.21377066 0.29025605 -0.008632016
v -0.1035609 0.35190558 -0.011449212
v -0.08692005 0.37753615 -0.010903004
v -0.099234626 0.36876473 -0.010006002
v -0.113751344 0.35062763 -0.010158232
v -0.07879578 0.37742046 -0.011075522
v -0.08210832 0.3669991 -0.011351582
v -0.08093281 0.23377962 -0.013931301
v -0.106002234 0.2259837 -0.013313452
v -0.09625789 0.22148974 -0.015985318
v 0.024311358 0.24740575 -0.014368978
v 0.02455468 0.23625927 -0.012877087
v 0.049896684 0.2616971 -0.013521857
v -0.059384733 0.24127607 -0.014538727
v -0.020339338 0.24949114 -0.01692687
v -0.015505445 0.25807083 -0.015394129
v 0.04170836 0.27648106 -0.01612991
v 0.00914199 0.2665047 -0.015796958
v 0.012501175 0.26209667 -0.01709286
v 0.038596522 0.27095488 -0.017118298
v -0.01332767 0.21420287 -0.015923364
v -0.04421846 0.1677189 -0.011975602
v -0.0091016535 0.20276526 -0.012099336
v -0.07767014 0.20301259 -0.019298723
v -0.055173185 0.18214108 -0.018409584
v -0.03429044 0.22819865 -0.018606657
v -0.08009219 0.22767317 -0.016454874
v -0.09783259 0.3031615 -0.013377535
v -0.12459972 0.31639463 -0.012090578
v -0.1421461 0.2859842 -0.012670514
v -0.13661793 0.3150464 -0.0106332945
v -0.13950917 0.3148374 -0.009700939
v -0.15766476 0.28715342 -0.009470383
v -0.15375878 0.2872466 -0.010857599
v -0.11882638 0.23328045 -0.015335289
v -0.16284356 0.25038946 -0.013309217
v -0.17961769 0.2175879 -0.013704056
v -0.10738788 0.27001074 -0.014353394
v -0.16781001 0.26501784 -0.010911675
v -0.17137188 0.26444876 -0.009265007
v -0.18406507 0.24226299 -0.008885962
v -0.08769059 0.34287307 -0.012169063
v -0.23349892 0.28912756 -0.0077588665
v -0.20709212 0.2588471 -0.009390204
v -0.23778073 0.28714725 -0.0071844324
v -0.24572623 0.23442774 -0.0072723404
v -0.20421186 0.24219017 -0.009842124
v -0.237764 0.24255644 -0.008475157
v -0.23885055 0.20571148 -0.009011152
v -0.24784322 0.20119928 -0.0077908314
v -0.24172492 0.18462287 -0.007979972
v -0.19741432 0.21264127 -0.010720636
v -0.12699446 0.19833271 -0.016315643
v -0.19084725 0.17574857 -0.015009298
v -0.10931685 0.18318504 -0.019673964
v -0.14610505 0.15690854 -0.017318806
v -0.1316854 0.1363139 -0.017289666
v -0.12611678 0.12630747 -0.013017434
v -0.090906516 0.13642162 -0.01348975
v -0.20091589 0.17209826 -0.01217155
v -0.2319508 0.16807675 -0.0083976295
v -0.1985374 0.17231445 -0.012714324
v -0.15153442 0.16472618 -0.0160892
v 0.07182943 0.28472137 -0.014247402
v -0.08484393 0.16175519 -0.018810464
v -0.067493826 0.14676477 -0.013367765
v -0.112697266 0.21509437 -0.015299114
v -0.07181362 0.3993871 -0.010237123
v -0.08733365 0.38347003 -0.010006002
v -0.21421568 0.31328872 -0.0075643086
v -0.20483187 0.28985876 -0.007884163
v -0.19517927 0.26516613 -0.008312878
v 0.017056972 0.25676927 -0.017640095
v -0.053014632 0.2379524 -0.016660921
v -0.075225614 0.37735882 -0.010493451
v -0.07837546 0.3601142 -0.010769139
v -0.084280275 0.3372043 -0.0112495
v -0.09245923 0.2983315 -0.011955124
v -0.09938324 0.2621304 -0.012706335
v -0.11432393 0.2158623 -0.014637813
v -0.17936464 0.24418107 -0.011075273
v -0.19429003 0.2159005 -0.011691921
v 0.24940789 0.35068545 -0.026370151
v 0.23505561 0.3413947 -0.029921746
v 0.26749384 0.3399033 -0.026770009
v 0.1990138 0.34795296 -0.025000691
v 0.190723 0.33480918 -0.024978366
v 0.23126748 0.36107954 -0.025091661
v 0.2078725 0.3568301 -0.02488034
v 0.21785927 0.36226246 -0.024823446
v 0.12484747 -0.029926661 -0.022919381
v 0.10772401 0.0021516876 -0.025192946
v 0.11479425 -0.031906214 -0.023246983
v 0.079536 -0.0175025 -0.024814798
v 0.08775043 -0.023304744 -0.02481893
v 0.07609966 -0.013225137 -0.024637535
v 0.45760494 0.18218575 -0.019224016
v 0.41455784 0.2221303 -0.02240387
v 0.42023736 0.19982502 -0.021887267
v 0.42674637 0.12665035 -0.017905015
v 0.4417985 0.087102756 -0.017424671
v 0.45169887 0.10491439 -0.01694414
v 0.46414456 0.1585896 -0.018332772
v 0.4777123 0.15447454 -0.017514104
v 0.2751126 -0.006175681 -0.018403608
v 0.2858243 -0.006266746 -0.016972624
v 0.2921947 0.005139056 -0.01702925
v 0.28435668 0.009648356 -0.01860851
v 0.25189552 -0.009547438 -0.019975146
v 0.26253474 -0.01668851 -0.017845044
v 0.280362 -0.012118101 -0.01704946
v 0.22514872 0.0026553618 -0.019022485
v 0.23356417 0.0037458872 -0.02036927
v 0.24116695 0.022742482 -0.020740137
v 0.2344358 0.022262879 -0.018837348
v 0.24583064 -0.017904764 -0.01851643
v 0.3785009 0.22005467 -0.023452729
v 0.3519205 0.2837552 -0.026149604
v 0.35370973 0.23074631 -0.024365777
v 0.37964183 0.25702003 -0.024475617
v 0.22252524 -0.014876823 -0.019320864
v 0.23227096 -0.006093834 -0.02044546
v 0.21828263 -0.00951148 -0.019240426
v 0.18359874 0.3085573 -0.025084374
v 0.22003262 0.31825238 -0.02851463
v 0.26184607 0.2719114 -0.028539712
v 0.212503 0.29516354 -0.029064303
v 0.28245527 0.31755477 -0.029448688
v 0.19535188 0.21165669 -0.027462168
v 0.18538553 0.17398731 -0.026992625
v 0.27444193 0.18191871 -0.02274051
v 0.16672705 0.2224711 -0.02472658
v 0.15654445 0.18141942 -0.024515426
v 0.1714494 0.1329017 -0.026606804
v 0.24174133 0.10440079 -0.021763891
v 0.25534576 0.13343139 -0.02182551
v 0.14748667 0.15367095 -0.024447778
v 0.15017116 0.08237579 -0.025936896
v 0.2274864 0.07764196 -0.021676552
v 0.13913924 0.12949179 -0.024272854
v 0.21036386 0.051550757 -0.02158363
v 0.1305848 0.10585543 -0.024223138
v 0.19275892 0.028797198 -0.021858811
v 0.11916231 0.07705995 -0.024081474
v 0.12821095 0.032577474 -0.025315031
v 0.1726066 0.00598774 -0.021897942
v 0.110825956 0.05575919 -0.023932038
v 0.15538186 -0.009451466 -0.022090502
v 0.099877656 0.032190453 -0.023942655
v 0.13915578 -0.021338638 -0.022434434
v 0.09015207 0.015440881 -0.02410237
v 0.2903037 0.32726574 -0.027019769
v 0.3039101 0.252588 -0.026289785
v 0.31030354 0.30468568 -0.02737609
v 0.26411828 0.15392138 -0.022289436
v 0.26821414 0.15316556 -0.021972837
v 0.31499007 0.1317825 -0.02048948
v 0.3226768 0.13048917 -0.018838456
v 0.33036244 0.17035237 -0.019708097
v 0.32335737 0.17243557 -0.020802604
v 0.3012979 0.06242747 -0.01934763
v 0.30918244 0.055682193 -0.01719979
v 0.31572914 0.08893932 -0.018003436
v 0.30693626 0.091902666 -0.019856894
v 0.24732697 0.0668391 -0.019047435
v 0.25496086 0.06611179 -0.021208731
v 0.25962138 0.09351663 -0.0215483
v 0.25247043 0.09685533 -0.019590292
v 0.29423007 0.033568617 -0.018899051
v 0.30252334 0.030610783 -0.01685459
v 0.2412684 0.04267295 -0.018815579
v 0.24941997 0.043633945 -0.021045135
v 0.3374351 -0.0038628958 -0.01819234
v 0.3454566 0.012968595 -0.017949345
v 0.3340844 0.020370016 -0.01959054
v 0.3178181 0.030504107 -0.018155871
v 0.3084133 -0.0068105757 -0.018318977
v 0.31431684 -0.0020094258 -0.018756924
v 0.32188457 0.027636914 -0.01894982
v 0.34292367 0.05902751 -0.019874847
v 0.35743684 0.048632782 -0.018003685
v 0.3497468 0.11352048 -0.020680705
v 0.36356652 0.078098804 -0.018282386
v 0.36805445 0.10764523 -0.018857552
v 0.32897633 0.118795745 -0.019135043
v 0.32773036 0.09636866 -0.018735325
v 0.33395228 0.09518454 -0.019485135
v 0.33585632 0.11735785 -0.01989628
v 0.35269707 0.15901205 -0.021802291
v 0.37291464 0.14867443 -0.019727442
v 0.33079466 0.14089653 -0.019252883
v 0.3366912 0.14019199 -0.020180328
v 0.40488562 0.080875814 -0.018808983
v 0.4049314 0.05132177 -0.018106638
v 0.4216453 0.046530273 -0.017173583
v 0.39355105 0.055549502 -0.017453555
v 0.4122641 0.037366856 -0.017440004
v 0.39396465 0.038047723 -0.017154409
v 0.3949052 0.029674431 -0.017263848
v 0.42582813 0.08114428 -0.017129159
v 0.3990775 0.12438116 -0.019617256
v 0.38977513 0.08063106 -0.01785139
v 0.42580754 0.14286289 -0.018052526
v 0.39531773 0.14569663 -0.020079779
v 0.38032866 0.12125049 -0.018957814
v 0.4256723 0.053179033 -0.01707665
v 0.39772636 0.027880961 -0.01735176
v 0.32426098 0.070242904 -0.018491318
v 0.32978433 0.0669392 -0.01913154
v 0.33573866 0.16719171 -0.02029281
v 0.3112127 -0.010599186 -0.018588295
v 0.31807443 -0.011794462 -0.018622477
v 0.33107936 -0.01061745 -0.01836031
v 0.083547555 0.0030913432 -0.024226388
v 0.33454624 0.23893459 -0.024940705
v 0.33712882 0.29321977 -0.026754474
v 0.4695542 0.13907067 -0.017190998
v 0.44067654 0.14148812 -0.018157138
v 0.42927098 0.17010963 -0.01982448
v 0.379864 0.18415031 -0.021985969
v 0.35259715 0.19509389 -0.023176877
v 0.33365947 0.20173085 -0.020394843
v 0.30069533 0.21380106 -0.025057806
v 0.25388598 0.22744612 -0.026026502
v 0.20162968 0.2456787 -0.02774549
v 0.17729251 0.27807707 -0.025077352
v 0.17254114 0.25168043 -0.024992969
v 0.2955856 0.17829913 -0.023967454
v 0.28743494 0.13663852 -0.022891397
v 0.26638496 0.13741028 -0.021737
v 0.25721905 0.1339299 -0.021018086
v 0.31222904 0.31494638 -0.026689772
v 0.33701637 0.30584 -0.024444724
v 0.3509725 0.30014253 -0.024053797
v 0.3790863 0.2715961 -0.020987317
v 0.41037104 0.23744102 -0.017332556
v 0.27407435 0.08305521 -0.022030381
v 0.26360664 0.04257646 -0.021554383
v 0.24857418 0.004029143 -0.021044204
v 0.078695595 -0.005751915 -0.024395397
v 0.10200274 -0.029061845 -0.024006346
v -0.011664059 0.13594462 -0.015618733
v -0.18010443 0.30985996 -0.0072814464
v -0.19987135 0.34991345 -0.0072814464
v -0.058086645 0.2843692 -0.01348455
v -0.09759601 0.41404065 -0.00999775
v -0.072879024 0.4226574 -0.009823023
v -0.052695066 0.42371878 -0.009823023
v 0.07500019 0.22880526 -0.016306862
v 0.048333973 0.1976016 -0.016227527
v 0.03565942 0.31267202 -0.015415716
v -0.17373838 0.10722148 -0.013452507
v -0.215693 0.10890754 -0.008430986
v -0.10723271 0.11060693 -0.014598933
v -0.15011077 0.10842424 -0.015310965
v -0.057761442 0.11492398 -0.013039094
v -0.05375241 0.3024741 -0.01242828
v -0.047375523 0.33035076 -0.011739332
v -0.040716015 0.403751 -0.010249251
v -0.039618064 0.38168782 -0.010644226
v 0.024747824 0.17292766 -0.016288785
v 0.0024438717 0.30207196 -0.015234164
v -0.046928357 0.28756675 -0.01399574
v -0.16105947 0.34088278 -0.0085872505
v -0.26494804 0.29793757 -0.0072814464
v -0.27058154 0.27081558 -0.0072814464
v -0.27569982 0.23390587 -0.0072723404
v -0.2811935 0.19428886 -0.0072723404
v -0.27010658 0.1658743 -0.0072723404
v -0.23887911 0.117644206 -0.009327438
v -0.24868305 0.12890875 -0.008217362
v -0.18876444 0.32740772 -0.0072814464
v -0.26131946 0.31540725 -0.0072814464
v -0.14091587 0.37198716 -0.0096200695
v -0.043435227 0.34869903 -0.011343762
v -0.120637774 0.39737567 -0.009887541
v -0.12917596 0.38751838 -0.00978487
v -0.04192025 0.36173764 -0.011095131
v -0.11401147 0.40502557 -0.009867101
v 0.08997982 0.24835758 -0.016433937
v 0.12766014 0.3241139 -0.016969139
v 0.073675685 0.32557935 -0.015225089
v 0.10500335 0.26796728 -0.016770968
v -0.25424725 0.34945568 -0.0072814464
v -0.22025505 0.39611062 -0.0072814464
v 0.36336142 0.32930398 -0.024339313
v 0.12210218 0.17301689 -0.025207547
v 0.30206022 0.36330804 -0.026481314
v 0.1467223 0.26964602 -0.025308076
v 0.24955714 0.38618347 -0.026115661
v 0.16487102 0.3429273 -0.025310775
v 0.18459488 0.37530932 -0.02544438
v 0.097982876 0.10697402 -0.025090089
v 0.19023173 -0.013340692 -0.021343699
v 0.070494436 0.04078723 -0.024916414
v 0.1270337 -0.06108132 -0.022246635
v 0.071692325 -0.045757838 -0.024435638
v 0.05132268 -0.019786006 -0.025029136
v 0.42788768 0.26628503 -0.020380631
v 0.45174977 0.036595505 -0.017424671
v 0.46911296 0.06415206 -0.017424671
v 0.29189384 -0.036068235 -0.01839081
v 0.19993512 -0.040124137 -0.020696634
v 0.25878116 -0.050043017 -0.018558325
v 0.38363573 -0.00018895119 -0.017735837
v 0.35264012 -0.03181743 -0.018390523
v 0.31467435 -0.039424714 -0.017791785
v 0.41324264 0.002159546 -0.017410515
v 0.13769098 0.22993107 -0.02526327
v 0.50666004 0.13604575 -0.01724304
v 0.5104236 0.16490477 -0.01724304
v 0.48269126 0.20789061 -0.019202232
v 0.15534751 0.30728585 -0.02540536
v 0.3951045 0.2993959 -0.022314638
v 0.45515132 0.23744002 -0.019608736
v 0.16678539 -0.03747495 -0.02183489
v 0.055518236 0.008709083 -0.024411917
v 0.21600595 0.39399981 -0.025561064
vt 0.14941406 0.32543945
vt 0.14941406 0.32348633
vt 0.12683105 0.32055664
vt 0.8544922 0.1340332
vt 0.8496094 0.14941406
vt 0.8774414 0.16015625
vt 0.8828125 0.13024902
vt 0.2836914 0.22131348
vt 0.3034668 0.23083496
vt 0.26000977 0.20581055
vt 0.84521484 0.16149902
vt 0.13549805 0.37036133
vt 0.1430664 0.41357422
vt 0.19580078 0.4321289
vt 0.19836426 0.3918457
vt 0.28759766 0.44995117
vt 0.27783203 0.40966797
vt 0.31933594 0.44970703
vt 0.31298828 0.41455078
vt 0.34692383 0.44604492
vt 0.3425293 0.40844727
vt 0.36401367 0.39916992
vt 0.38085938 0.43481445
vt 0.40039062 0.42285156
vt 0.390625 0.38208008
vt 0.09643555 0.3503418
vt 0.06896973 0.38208008
vt 0.09674072 0.31860352
vt 0.041778564 0.32739258
vt 0.41625977 0.41186523
vt 0.4897461 0.359375
vt 0.46679688 0.3305664
vt 0.53271484 0.32910156
vt 0.5102539 0.29785156
vt 0.5698242 0.3005371
vt 0.5493164 0.26879883
vt 0.59765625 0.27734375
vt 0.5961914 0.22961426
vt 0.67529297 0.27563477
vt 0.6401367 0.28100586
vt 0.6660156 0.32641602
vt 0.6899414 0.30151367
vt 0.80615234 0.32421875
vt 0.8125 0.359375
vt 0.83203125 0.34936523
vt 0.8198242 0.31762695
vt 0.7192383 0.359375
vt 0.7084961 0.3190918
vt 0.73583984 0.3293457
vt 0.76904297 0.36572266
vt 0.7524414 0.3310547
vt 0.7783203 0.33081055
vt 0.86328125 0.2446289
vt 0.8925781 0.25146484
vt 0.88720703 0.20349121
vt 0.8623047 0.21862793
vt 0.88183594 0.30004883
vt 0.8442383 0.29785156
vt 0.85498047 0.27856445
vt 0.8613281 0.25976562
vt 0.8925781 0.25170898
vt 0.8442383 0.29785156
vt 0.88183594 0.30004883
vt 0.85498047 0.27856445
vt 0.8613281 0.25976562
vt 0.6176758 0.25976562
vt 0.6699219 0.25341797
vt 0.61376953 0.20690918
vt 0.6635742 0.21850586
vt 0.63378906 0.24291992
vt 0.6225586 0.19519043
vt 0.64208984 0.20239258
vt 0.25170898 0.15673828
vt 0.23620605 0.12384033
vt 0.2434082 0.16040039
vt 0.39624023 -0.013771057
vt 0.4501953 0.009841919
vt 0.45117188 -0.00012278557
vt 0.40698242 -0.034423828
vt 0.7963867 0.07922363
vt 0.8334961 0.05569458
vt 0.83447266 -0.00065660477
vt 0.7949219 -9.393692E-05
vt 0.8588867 0.20214844
vt 0.8544922 0.18762207
vt 0.8354492 -0.034210205
vt 0.796875 -0.03427124
vt 0.04019165 0.25439453
vt 0.09686279 0.3112793
vt 0.09625244 0.27294922
vt 0.11517334 0.17590332
vt 0.06573486 0.19616699
vt 0.0960083 0.23022461
vt 0.105407715 0.22192383
vt 0.11853027 0.2154541
vt 0.15612793 0.1665039
vt 0.19018555 0.21130371
vt 0.18310547 0.20495605
vt 0.18603516 0.2010498
vt 0.19335938 0.1973877
vt 0.1998291 0.19812012
vt 0.25585938 0.21533203
vt 0.23376465 0.18200684
vt 0.1965332 0.14562988
vt 0.23046875 0.17541504
vt 0.23474121 0.1694336
vt 0.09637451 0.23730469
vt 0.19165039 0.29125977
vt 0.21154785 0.2915039
vt 0.14001465 0.26000977
vt 0.11291504 0.32226562
vt 0.35717773 0.1928711
vt 0.31835938 0.17004395
vt 0.27490234 0.16772461
vt 0.36669922 0.19995117
vt 0.36791992 0.19799805
vt 0.29223633 0.14855957
vt 0.85498047 0.118652344
vt 0.8535156 0.11175537
vt 0.8808594 0.109375
vt 0.8769531 0.0960083
vt 0.85009766 0.105773926
vt 0.8076172 0.10205078
vt 0.8208008 0.093444824
vt 0.8413086 0.06274414
vt 0.80126953 0.08984375
vt 0.43603516 0.13439941
vt 0.44750977 0.13623047
vt 0.42822266 0.11706543
vt 0.38842773 0.11853027
vt 0.42236328 0.1315918
vt 0.41845703 0.103881836
vt 0.4777832 0.11053467
vt 0.48095703 0.111572266
vt 0.4645996 0.09307861
vt 0.46875 0.10681152
vt 0.45239258 0.09857178
vt 0.47094727 0.081970215
vt 0.4880371 0.090026855
vt 0.47729492 0.07092285
vt 0.43920898 0.089782715
vt 0.45629883 0.017822266
vt 0.39013672 0.00044751167
vt 0.46484375 0.0881958
vt 0.4650879 0.047698975
vt 0.3840332 0.01448822
vt 0.37646484 0.0345459
vt 0.43530273 0.08898926
vt 0.43066406 0.089416504
vt 0.42236328 0.09277344
vt 0.41723633 0.09625244
vt 0.36010742 0.07373047
vt 0.4165039 0.09918213
vt 0.38232422 0.115600586
vt 0.38964844 0.15759277
vt 0.39111328 0.15576172
vt 0.37475586 0.14355469
vt 0.29370117 0.14331055
vt 0.28076172 0.10534668
vt 0.32202148 0.1303711
vt 0.32836914 0.12988281
vt 0.32226562 0.08843994
vt 0.24938965 0.25195312
vt 0.2626953 0.25219727
vt 0.2619629 0.25439453
vt 0.37280273 0.11248779
vt 0.3635254 0.13354492
vt 0.35864258 0.1270752
vt 0.36035156 0.12133789
vt 0.11730957 0.27856445
vt 0.13781738 0.2824707
vt 0.10827637 0.24523926
vt 0.74121094 -0.03427124
vt 0.74853516 -0.00016438961
vt 0.56347656 -0.03427124
vt 0.56347656 -0.00010454655
vt 0.71533203 -0.00021743774
vt 0.6894531 -0.00020837784
vt 0.6508789 -0.034240723
vt 0.8413086 0.109313965
vt 0.8413086 0.10119629
vt 0.83154297 0.09051514
vt 0.8613281 0.07501221
vt 0.83691406 0.09313965
vt 0.87109375 0.086364746
vt 0.8647461 0.07904053
vt 0.6147461 -0.0001552105
vt 0.65771484 -0.00017893314
vt 0.85253906 0.3161621
vt 0.8720703 0.28466797
vt 0.8442383 0.29785156
vt 0.8286133 0.31323242
vt 0.24450684 0.39038086
vt 0.5083008 0.09741211
vt 0.49536133 0.10675049
vt 0.5678711 0.17236328
vt 0.5019531 0.2902832
vt 0.54345703 0.25976562
vt 0.6269531 0.18811035
vt 0.4404297 0.10784912
vt 0.8515625 0.28149414
vt 0.8510742 0.11657715
vt 0.83154297 0.09686279
vt 0.7832031 0.12512207
vt 0.7783203 0.13647461
vt 0.78564453 0.13269043
vt 0.7944336 0.11242676
vt 0.796875 0.11987305
vt 0.81152344 0.10656738
vt 0.7885742 0.12854004
vt 0.82373047 0.0982666
vt 0.8300781 0.09454346
vt 0.78125 0.14575195
vt 0.79052734 0.16040039
vt 0.7993164 0.14672852
vt 0.82958984 0.114746094
vt 0.8354492 0.124938965
vt 0.79296875 0.12890625
vt 0.81103516 0.120788574
vt 0.7988281 0.12005615
vt 0.8310547 0.17028809
vt 0.83984375 0.16955566
vt 0.8051758 0.17590332
vt 0.8222656 0.18432617
vt 0.81591797 0.1616211
vt 0.8408203 0.15197754
vt 0.82714844 0.14038086
vt 0.84814453 0.13427734
vt 0.81396484 0.12097168
vt 0.85253906 0.18774414
vt 0.7216797 0.31396484
vt 0.6899414 0.29125977
vt 0.67822266 0.25268555
vt 0.86035156 0.24865723
vt 0.6621094 0.20800781
vt 0.69873047 0.19116211
vt 0.7006836 0.21875
vt 0.7216797 0.21887207
vt 0.7910156 0.18786621
vt 0.8066406 0.18774414
vt 0.859375 0.21862793
vt 0.83251953 0.18017578
vt 0.83447266 0.18774414
vt 0.75683594 0.15075684
vt 0.75683594 0.18823242
vt 0.7216797 0.15966797
vt 0.75683594 0.21875
vt 0.7915039 0.25268555
vt 0.7910156 0.21887207
vt 0.79003906 0.28515625
vt 0.75683594 0.25268555
vt 0.7861328 0.32202148
vt 0.7548828 0.32104492
vt 0.82373047 0.31152344
vt 0.8149414 0.3154297
vt 0.82421875 0.21875
vt 0.83984375 0.2524414
vt 0.8383789 0.21875
vt 0.7895508 0.09802246
vt 0.7866211 0.08068848
vt 0.64404297 0.19689941
vt 0.66552734 0.1776123
vt 0.69091797 0.13452148
vt 0.6616211 0.14868164
vt 0.68896484 0.10736084
vt 0.6591797 0.11413574
vt 0.74853516 0.01159668
vt 0.78564453 0.012413025
vt 0.78564453 0.046936035
vt 0.68896484 0.010505676
vt 0.71533203 0.0109939575
vt 0.37402344 0.3642578
vt 0.2770996 0.2442627
vt 0.43115234 0.30908203
vt 0.32861328 0.22070312
vt 0.47802734 0.2619629
vt 0.37695312 0.17919922
vt 0.5175781 0.22521973
vt 0.40844727 0.1459961
vt 0.33813477 0.39135742
vt 0.22875977 0.27539062
vt 0.16186523 0.31103516
vt 0.45532227 0.32421875
vt 0.5917969 0.22009277
vt 0.61279297 0.19128418
vt 0.61572266 0.13195801
vt 0.6411133 0.15576172
vt 0.47143555 0.011543274
vt 0.56347656 0.010307312
vt 0.6147461 0.009712219
vt 0.82421875 0.25268555
vt 0.82128906 0.28515625
vt 0.7573242 0.2849121
vt 0.7211914 0.2524414
vt 0.66796875 0.21862793
vt 0.7216797 0.18847656
vt 0.8222656 0.18774414
vt 0.7192383 0.124572754
vt 0.74853516 0.1138916
vt 0.8251953 0.09899902
vt 0.8300781 0.10083008
vt 0.83447266 0.101623535
vt 0.8300781 0.111206055
vt 0.83447266 0.10839844
vt 0.81591797 0.11853027
vt 0.6953125 0.16870117
vt 0.83251953 0.30664062
vt 0.7167969 0.10437012
vt 0.7480469 0.08074951
vt 0.82373047 0.11016846
vt 0.81347656 0.107177734
vt 0.7011719 0.2524414
vt 0.7216797 0.28515625
vt 0.703125 0.28515625
vt 0.83691406 0.2849121
vt 0.7480469 0.047546387
vt 0.56396484 0.048858643
vt 0.6147461 0.048736572
vt 0.52197266 0.047546387
vt 0.56347656 0.08026123
vt 0.53515625 0.09008789
vt 0.48364258 0.04776001
vt 0.68896484 0.08074951
vt 0.68896484 0.048980713
vt 0.6586914 0.048858643
vt 0.6586914 0.08074951
vt 0.71533203 0.048309326
vt 0.64746094 0.18371582
vt 0.67333984 0.19348145
vt 0.66308594 0.19006348
vt 0.67578125 0.21899414
vt 0.71484375 0.08068848
vt 0.6582031 0.010116577
vt 0.63378906 0.12438965
vt 0.6147461 0.08068848
vt 0.64404297 0.16918945
vt 0.7480469 0.09832764
vt 0.8457031 0.28466797
vt 0.8515625 0.25268555
vt 0.8515625 0.21875
vt 0.8461914 0.18786621
vt 0.88427734 0.5390625
vt 0.86621094 0.52246094
vt 0.8935547 0.57128906
vt 0.8535156 0.53515625
vt 0.85009766 0.51123047
vt 0.8378906 0.5288086
vt 0.82910156 0.5180664
vt 0.8261719 0.5126953
vt 0.85791016 0.5332031
vt 0.8959961 0.7675781
vt 0.90527344 0.73339844
vt 0.9008789 0.7368164
vt 0.8901367 0.7373047
vt 0.8823242 0.7109375
vt 0.7553711 0.7817383
vt 0.7363281 0.81103516
vt 0.7504883 0.80126953
vt 0.76708984 0.78027344
vt 0.7265625 0.81103516
vt 0.73046875 0.7993164
vt 0.7294922 0.6459961
vt 0.7583008 0.63720703
vt 0.74658203 0.63183594
vt 0.60791016 0.6616211
vt 0.60791016 0.6489258
vt 0.5786133 0.67822266
vt 0.70458984 0.65478516
vt 0.6591797 0.6640625
vt 0.6538086 0.6738281
vt 0.5878906 0.6953125
vt 0.6254883 0.68359375
vt 0.62158203 0.67871094
vt 0.5913086 0.68847656
vt 0.6513672 0.62353516
vt 0.6870117 0.5703125
vt 0.6464844 0.61035156
vt 0.72558594 0.61035156
vt 0.69970703 0.58691406
vt 0.67529297 0.63964844
vt 0.72802734 0.6386719
vt 0.74853516 0.72558594
vt 0.77978516 0.74072266
vt 0.7998047 0.7060547
vt 0.79345703 0.7392578
vt 0.796875 0.7392578
vt 0.8178711 0.70751953
vt 0.81347656 0.70751953
vt 0.7729492 0.6455078
vt 0.82373047 0.66503906
vt 0.84277344 0.6274414
vt 0.7597656 0.6875
vt 0.82958984 0.6821289
vt 0.8334961 0.68115234
vt 0.84814453 0.6557617
vt 0.7373047 0.7714844
vt 0.90527344 0.70947266
vt 0.8745117 0.6748047
vt 0.91015625 0.70751953
vt 0.9189453 0.6464844
vt 0.87158203 0.6557617
vt 0.91015625 0.65625
vt 0.9111328 0.61376953
vt 0.9213867 0.60839844
vt 0.9145508 0.58935547
vt 0.86328125 0.62158203
vt 0.78222656 0.60498047
vt 0.85595703 0.57910156
vt 0.76171875 0.5878906
vt 0.8041992 0.5576172
vt 0.78759766 0.5341797
vt 0.78125 0.52246094
vt 0.74072266 0.5341797
vt 0.8671875 0.5751953
vt 0.9033203 0.5703125
vt 0.8647461 0.5751953
vt 0.8105469 0.56640625
vt 0.55322266 0.70458984
vt 0.7338867 0.56347656
vt 0.7138672 0.54589844
vt 0.765625 0.6245117
vt 0.71875 0.8364258
vt 0.7368164 0.8178711
vt 0.8828125 0.7373047
vt 0.8720703 0.7104492
vt 0.86083984 0.6821289
vt 0.61621094 0.6723633
vt 0.69677734 0.6503906
vt 0.72265625 0.81103516
vt 0.7260742 0.7910156
vt 0.73291016 0.76464844
vt 0.7426758 0.72021484
vt 0.7504883 0.67871094
vt 0.7675781 0.6254883
vt 0.84277344 0.6582031
vt 0.8598633 0.6254883
vt 0.32055664 0.94091797
vt 0.3371582 0.9301758
vt 0.29956055 0.92822266
vt 0.3791504 0.9379883
vt 0.38891602 0.9223633
vt 0.34179688 0.953125
vt 0.36889648 0.9482422
vt 0.35717773 0.95458984
vt 0.46557617 0.49853516
vt 0.4855957 0.53564453
vt 0.47729492 0.4963379
vt 0.5185547 0.5131836
vt 0.50878906 0.50634766
vt 0.52246094 0.5180664
vt 0.077941895 0.7451172
vt 0.12817383 0.7915039
vt 0.121520996 0.765625
vt 0.11383057 0.68066406
vt 0.09631348 0.6347656
vt 0.08477783 0.65527344
vt 0.0703125 0.71777344
vt 0.054473877 0.7128906
vt 0.29052734 0.5263672
vt 0.27807617 0.5258789
vt 0.27075195 0.5395508
vt 0.27978516 0.5444336
vt 0.31762695 0.52246094
vt 0.30517578 0.51416016
vt 0.28442383 0.51953125
vt 0.3486328 0.5366211
vt 0.3388672 0.53759766
vt 0.33007812 0.5595703
vt 0.33789062 0.55908203
vt 0.32470703 0.5126953
vt 0.17016602 0.7890625
vt 0.2010498 0.86328125
vt 0.19897461 0.8017578
vt 0.16882324 0.83203125
vt 0.35180664 0.5161133
vt 0.3408203 0.5263672
vt 0.35668945 0.52246094
vt 0.3972168 0.89208984
vt 0.35473633 0.9033203
vt 0.3059082 0.8496094
vt 0.3635254 0.87646484
vt 0.28198242 0.90234375
vt 0.38330078 0.7792969
vt 0.39501953 0.73535156
vt 0.29125977 0.7446289
vt 0.41674805 0.7919922
vt 0.42871094 0.7441406
vt 0.4111328 0.6879883
vt 0.3293457 0.65478516
vt 0.31347656 0.68847656
vt 0.43920898 0.71191406
vt 0.43603516 0.62890625
vt 0.34594727 0.62353516
vt 0.4489746 0.68408203
vt 0.3659668 0.5932617
vt 0.45898438 0.65625
vt 0.3864746 0.56689453
vt 0.4724121 0.6230469
vt 0.46166992 0.57128906
vt 0.4099121 0.54052734
vt 0.4819336 0.59814453
vt 0.42993164 0.52246094
vt 0.49487305 0.5708008
vt 0.4489746 0.50878906
vt 0.5058594 0.55126953
vt 0.27294922 0.9135742
vt 0.25708008 0.82714844
vt 0.24951172 0.8876953
vt 0.30322266 0.71240234
vt 0.29833984 0.7114258
vt 0.24389648 0.68652344
vt 0.23510742 0.6850586
vt 0.22619629 0.7314453
vt 0.23449707 0.7338867
vt 0.2602539 0.60595703
vt 0.25097656 0.59814453
vt 0.24328613 0.63671875
vt 0.2536621 0.6401367
vt 0.3227539 0.61083984
vt 0.31420898 0.61035156
vt 0.30859375 0.64208984
vt 0.31689453 0.6459961
vt 0.26879883 0.5727539
vt 0.25854492 0.56884766
vt 0.32983398 0.5830078
vt 0.32055664 0.5839844
vt 0.21789551 0.5288086
vt 0.20861816 0.54833984
vt 0.22192383 0.5571289
vt 0.24084473 0.56884766
vt 0.25170898 0.5253906
vt 0.24487305 0.53125
vt 0.23608398 0.5654297
vt 0.21154785 0.6020508
vt 0.19470215 0.58984375
vt 0.20361328 0.66552734
vt 0.1875 0.62402344
vt 0.18225098 0.6586914
vt 0.2277832 0.6713867
vt 0.22924805 0.6455078
vt 0.2220459 0.64404297
vt 0.21984863 0.6699219
vt 0.20019531 0.7182617
vt 0.17663574 0.7060547
vt 0.22570801 0.6972656
vt 0.21887207 0.69628906
vt 0.13928223 0.6274414
vt 0.13928223 0.5932617
vt 0.11981201 0.58740234
vt 0.15258789 0.59814453
vt 0.1307373 0.57666016
vt 0.15209961 0.5776367
vt 0.15100098 0.5678711
vt 0.1149292 0.6279297
vt 0.14611816 0.6777344
vt 0.15698242 0.6269531
vt 0.1149292 0.69921875
vt 0.1505127 0.7026367
vt 0.16796875 0.6743164
vt 0.115112305 0.59521484
vt 0.14770508 0.56591797
vt 0.23327637 0.6152344
vt 0.22680664 0.6113281
vt 0.2199707 0.72753906
vt 0.24853516 0.5209961
vt 0.24047852 0.51953125
vt 0.2253418 0.5209961
vt 0.5136719 0.5371094
vt 0.22131348 0.81103516
vt 0.21826172 0.87402344
vt 0.063964844 0.6948242
vt 0.09765625 0.6977539
vt 0.11090088 0.73095703
vt 0.16845703 0.7475586
vt 0.20031738 0.7602539
vt 0.22229004 0.7680664
vt 0.2607422 0.7817383
vt 0.3154297 0.79785156
vt 0.37597656 0.81884766
vt 0.40454102 0.8564453
vt 0.41015625 0.8256836
vt 0.2668457 0.74072266
vt 0.27612305 0.6923828
vt 0.3005371 0.6928711
vt 0.3112793 0.68896484
vt 0.24731445 0.89941406
vt 0.21838379 0.8886719
vt 0.20214844 0.8823242
vt 0.1694336 0.8491211
vt 0.13305664 0.8095703
vt 0.29174805 0.6298828
vt 0.30395508 0.5830078
vt 0.32128906 0.53808594
vt 0.51953125 0.52685547
vt 0.4921875 0.49951172
vt 0.64941406 0.5336914
vt 0.84375 0.73339844
vt 0.86621094 0.7792969
vt 0.703125 0.70410156
vt 0.74853516 0.85302734
vt 0.71972656 0.86279297
vt 0.69677734 0.8642578
vt 0.5493164 0.6401367
vt 0.5800781 0.6044922
vt 0.59472656 0.7368164
vt 0.8364258 0.5004883
vt 0.8847656 0.5024414
vt 0.7597656 0.50439453
vt 0.80908203 0.5019531
vt 0.7026367 0.50927734
vt 0.6977539 0.72509766
vt 0.6904297 0.75683594
vt 0.68310547 0.8413086
vt 0.6816406 0.81591797
vt 0.6074219 0.5761719
vt 0.6333008 0.7246094
vt 0.6899414 0.7080078
vt 0.82177734 0.76904297
vt 0.94140625 0.71972656
vt 0.9477539 0.68847656
vt 0.9536133 0.6459961
vt 0.95996094 0.60058594
vt 0.9472656 0.5678711
vt 0.9111328 0.5126953
vt 0.9223633 0.5253906
vt 0.8535156 0.75341797
vt 0.9370117 0.7397461
vt 0.79833984 0.8046875
vt 0.68603516 0.77783203
vt 0.77490234 0.8339844
vt 0.78466797 0.8227539
vt 0.68408203 0.79296875
vt 0.7675781 0.84277344
vt 0.53222656 0.66259766
vt 0.48876953 0.75
vt 0.55126953 0.75146484
vt 0.5151367 0.6855469
vt 0.9291992 0.7788086
vt 0.88964844 0.83251953
vt 0.18774414 0.9165039
vt 0.46875 0.734375
vt 0.25927734 0.9555664
vt 0.44018555 0.8466797
vt 0.3203125 0.9824219
vt 0.4189453 0.9321289
vt 0.3959961 0.96972656
vt 0.4970703 0.65771484
vt 0.3894043 0.5180664
vt 0.5288086 0.5805664
vt 0.46313477 0.46240234
vt 0.52783203 0.4802246
vt 0.55126953 0.5102539
vt 0.11260986 0.8432617
vt 0.0847168 0.5756836
vt 0.06451416 0.60791016
vt 0.2709961 0.49145508
vt 0.37817383 0.4868164
vt 0.3095703 0.4753418
vt 0.1640625 0.5332031
vt 0.20031738 0.4963379
vt 0.24450684 0.48754883
vt 0.12963867 0.5361328
vt 0.4506836 0.80078125
vt 0.020736694 0.69140625
vt 0.016357422 0.72509766
vt 0.04925537 0.7753906
vt 0.43017578 0.890625
vt 0.15075684 0.88134766
vt 0.082092285 0.8105469
vt 0.4169922 0.48999023
vt 0.54589844 0.54345703
vt 0.359375 0.99121094
vn -0 0 -1
vn -0 0 -1
vn -0 0 -1
vn -0 0 -1
vn -0 0 -1
vn -0 0 -1
vn -0 0 -1
vn -0 0 -1
vn -0 0 -1
vn -0 0 -1
vn -0 0 -1
vn -0 0 -1
vn -0 0 -1
vn -0 0 -1
vn -0 0 -1
vn -0 0 -1
vn -0 0 -1
vn -0 0 -1
vn -0 0 -1
vn -0 0 -1
vn -0 0 -1
vn -0 0 -1
vn -0 0 -1
vn -0 0 -1
vn -0 0 -1
vn -0 0 -1
vn -0 0 -1
vn -0 0 -1
vn -0 0 -1
vn -0 0 -1
vn -0 0 -1
vn -0 0 -1
vn -0 0 -1
vn -0 0 -1
vn -0 0 -1
vn -0 0 -1
vn -0 0 -1
vn -0 0 -1
vn -0 0 -1
vn -0 0 -1
vn -0 0 -1
vn -0 0 -1
vn -0 0 -1
vn -0 0 -1
vn -0 0 -1
vn -0 0 -1
vn -0 0 -1
vn -0 0 -1
vn -0 0 -1
vn -0 0 -1
vn -0 0 -1
vn -0 0 -1
vn -0 0 -1
vn -0 0 -1
vn -0 0 -1
vn -0 0 -1
vn -0 0 -1
vn 0.07476807 -0.10583496 0.9916992
vn -0 0 -1
vn -0 0 -1
vn -0 0 -1
vn 0.07476807 -0.10583496 0.9916992
vn -0 0 -1
vn -0 0 -1
vn -0 0 -1
vn -0 0 -1
vn -0 0 -1
vn -0 0 -1
vn -0 0 -1
vn -0 0 -1
vn -0 0 -1
vn -0 0 -1
vn -0 0 -1
vn -0 0 -1
vn -0 0 -1
vn -0 0 -1
vn -0 0 -1
vn -0 0 -1
vn -0 0 -1
vn -0 0 -1
vn -0 0 -1
vn -0 0 -1
vn -0 0 -1
vn -0 0 -1
vn -0 0 -1
vn -0 0 -1
vn -0 0 -1
vn -0 0 -1
vn -0 0 -1
vn -0 0 -1
vn -0 0 -1
vn -0 0 -1
vn -0 0 -1
vn -0 0 -1
vn -0 0 -1
vn -0 0 -1
vn -0 0 -1
vn -0 0 -1
vn -0 0 -1
vn -0 0 -1
vn -0 0 -1
vn -0 0 -1
vn -0 0 -1
vn -0 0 -1
vn -0 0 -1
vn -0 0 -1
vn -0 0 -1
vn -0 0 -1
vn -0 0 -1
vn -0 0 -1
vn -0 0 -1
vn -0 0 -1
vn -0 0 -1
vn -0 0 -1
vn -0 0 -1
vn -0 0 -1
vn -0 0 -1
vn -0 0 -1
vn -0 0 -1
vn -0 0 -1
vn -0 0 -1
vn -0 0 -1
vn -0 0 -1
vn -0 0 -1
vn -0 0 -1
vn -0 0 -1
vn -0 0 -1
vn -0 0 -1
vn -0 0 -1
vn -0 0 -1
vn -0 0 -1
vn -0 0 -1
vn -0 0 -1
vn -0 0 -1
vn -0 0 -1
vn -0 0 -1
vn -0 0 -1
vn -0 0 -1
vn -0 0 -1
vn -0 0 -1
vn -0 0 -1
vn -0 0 -1
vn -0 0 -1
vn -0 0 -1
vn -0 0 -1
vn -0 0 -1
vn -0 0 -1
vn -0 0 -1
vn -0 0 -1
vn -0 0 -1
vn -0 0 -1
vn -0 0 -1
vn -0 0 -1
vn -0 0 -1
vn -0 0 -1
vn -0 0 -1
vn -0 0 -1
vn -0 0 -1
vn -0 0 -1
vn -0 0 -1
vn -0 0 -1
vn -0 0 -1
vn -0 0 -1
vn -0 0 -1
vn -0 0 -1
vn -0 0 -1
vn -0 0 -1
vn -0 0 -1
vn -0 0 -1
vn -0 0 -1
vn -0 0 -1
vn -0 0 -1
vn -0 0 -1
vn -0 0 -1
vn -0 0 -1
vn -0 0 -1
vn -0 0 -1
vn -0 0 -1
vn -0 0 -1
vn -0 0 -1
vn -0 0 -1
vn -0 0 -1
vn -0 0 -1
vn -0 0 -1
vn -0 0 -1
vn -0 0 -1
vn -0 0 -1
vn -0 0 -1
vn -0.00087451935 -0.0068626404 -1
vn 0.0028495789 -0.0028514862 -1
vn -0 0 -1
vn -0 0 -1
vn -0 0 -1
vn -0 0 -1
vn -0 0 -1
vn -0 0 -1
vn -0 0 -1
vn -0 0 -1
vn -0 0 -1
vn -0 0 -1
vn -0 0 -1
vn -0 0 -1
vn -0 0 -1
vn -0 0 -1
vn -0 0 -1
vn -0 0 -1
vn -0 0 -1
vn -0 0 -1
vn -0 0 -1
vn -0 0 -1
vn -0 0 -1
vn -0 0 -1
vn -0 0 -1
vn -0 0 -1
vn -0 0 -1
vn -0 0 -1
vn -0 0 -1
vn -0 0 -1
vn -0 0 -1
vn -0 0 -1
vn -0 0 -1
vn -0 0 -1
vn -0 0 -1
vn -0 0 -1
vn -0 0 -1
vn -0 0 -1
vn -0 0 -1
vn -0 0 -1
vn -0 0 -1
vn -0 0 -1
vn -0 0 -1
vn -0 0 -1
vn -0 0 -1
vn -0 0 -1
vn -0 0 -1
vn -0 0 -1
vn -0 0 -1
vn -0 0 -1
vn -0 0 -1
vn -0 0 -1
vn -0 0 -1
vn -0 0 -1
vn -0 0 -1
vn -0 0 -1
vn -0 0 -1
vn -0 0 -1
vn -0 0 -1
vn -0 0 -1
vn -0 0 -1
vn -0 0 -1
vn -0 0 -1
vn -0 0 -1
vn -0 0 -1
vn -0 0 -1
vn -0 0 -1
vn -0 0 -1
vn -0 0 -1
vn -0 0 -1
vn -0 0 -1
vn -0 0 -1
vn -0 0 -1
vn -0 0 -1
vn -0 0 -1
vn -0 0 -1
vn -0 0 -1
vn -0 0 -1
vn -0 0 -1
vn -0 0 -1
vn -0 0 -1
vn -0 0 -1
vn -0 0 -1
vn -0 0 -1
vn -0 0 -1
vn -0 0 -1
vn -0 0 -1
vn -0 0 -1
vn -0 0 -1
vn -0 0 -1
vn -0 0 -1
vn -0 0 -1
vn -0 0 -1
vn -0 0 -1
vn -0 0 -1
vn -0 0 -1
vn -0 0 -1
vn -0 0 -1
vn -0 0 -1
vn -0 0 -1
vn -0 0 -1
vn -0 0 -1
vn -0 0 -1
vn -0 0 -1
vn -0 0 -1
vn -0 0 -1
vn -0 0 -1
vn -0 0 -1
vn -0 0 -1
vn -0 0 -1
vn -0 0 -1
vn -0 0 -1
vn -0 0 -1
vn -0 0 -1
vn -0 0 -1
vn -0 0 -1
vn -0 0 -1
vn -0 0 -1
vn -0 0 -1
vn -0 0 -1
vn -0 0 -1
vn -0 0 -1
vn -0 0 -1
vn -0 0 -1
vn -0 0 -1
vn -0 0 -1
vn -0 0 -1
vn -0 0 -1
vn -0 0 -1
vn -0 0 -1
vn -0 0 -1
vn -0 0 -1
vn -0 0 -1
vn -0 0 -1
vn -0 0 -1
vn -0 0 -1
vn -0 0 -1
vn -0 0 -1
vn -0 0 -1
vn -0 0 -1
vn -0 0 -1
vn -0 0 -1
vn -0 0 -1
vn -0 0 -1
vn -0 0 -1
vn -0 0 -1
vn -0 0 -1
vn -0 0 -1
vn -0 0 -1
vn -0.12121582 0.052001953 -0.99121094
vn -0.111816406 0.018737793 -0.99365234
vn -0.112976074 0.0006828308 -0.99365234
vn -0.111083984 -0.004020691 -0.99365234
vn -0 0 -1
vn -0 0 -1
vn -0 0 -1
vn -0 0 -1
vn -0 0 -1
vn -0 0 -1
vn -0 0 -1
vn -0 0 -1
vn -0 0 -1
vn -0 0 -1
vn -0 0 -1
vn -0 0 -1
vn -0 0 -1
vn -0 0 -1
vn -0 0 -1
vn -0 0 -1
vn -0 0 -1
vn -0 0 -1
vn -0 0 -1
vn -0 0 -1
vn -0 0 -1
vn -0 0 -1
vn -0 0 -1
vn -0 0 -1
vn -0 0 -1
vn -0 0 -1
vn -0 0 -1
vn -0 0 -1
vn -0 0 -1
vn -0 0 -1
vn -0 0 -1
vn -0 0 -1
vn -0 0 -1
vn -0 0 -1
vn -0 0 -1
vn -0 0 -1
vn -0 0 -1
vn -0 0 -1
vn -0 0 -1
vn -0 0 -1
vn -0 0 -1
vn -0 0 -1
vn -0 0 -1
vn -0 0 -1
vn -0 0 -1
vn -0 0 -1
vn -0 0 -1
vn -0 0 -1
vn -0 0 -1
vn -0 0 -1
vn -0 0 -1
vn -0 0 -1
vn -0 0 -1
vn -0 0 -1
vn -0 0 -1
vn -0 0 -1
vn -0 0 -1
vn -0 0 -1
vn -0 0 -1
vn -0 0 -1
vn -0 0 -1
vn -0 0 -1
vn -0 0 -1
vn -0 0 -1
vn -0 0 -1
vn -0 0 -1
vn -0 0 -1
vn -0 0 -1
vn -0 0 -1
vn -0 0 -1
vn -0 0 -1
vn -0 0 -1
vn -0 0 -1
vn -0 0 -1
vn -0 0 -1
vn -0 0 -1
vn -0 0 -1
vn -0 0 -1
vn -0 0 -1
vn -0 0 -1
vn -0 0 -1
vn -0 0 -1
vn -0 0 -1
vn -0 0 -1
vn -0 0 -1
vn -0 0 -1
vn -0 0 -1
vn -0 0 -1
vn -0 0 -1
vn -0 0 -1
vn -0 0 -1
vn -0 0 -1
vn -0 0 -1
vn -0 0 -1
vn -0 0 -1
vn -0 0 -1
vn -0 0 -1
vn -0 0 -1
vn -0 0 -1
vn -0 0 -1
vn -0 0 -1
vn -0 0 -1
vn -0 0 -1
vn -0 0 -1
vn -0 0 -1
vn -0 0 -1
vn -0 0 -1
vn -0 0 -1
vn -0 0 -1
vn -0 0 -1
vn -0 0 -1
vn -0 0 -1
vn -0 0 -1
vn -0 0 -1
vn -0 0 -1
vn -0 0 -1
vn -0 0 -1
vn -0 0 -1
vn -0 0 -1
vn -0 0 -1
vn -0 0 -1
vn -0 0 -1
vn -0 0 -1
vn -0 0 -1
vn -0 0 -1
vn -0 0 -1
vn -0 0 -1
vn -0 0 -1
vn -0 0 -1
vn -0 0 -1
vn -0 0 -1
vn -0 0 -1
vn -0 0 -1
vn -0 0 -1
vn -0 0 -1
vn -0 0 -1
vn -0 0 -1
vn -0 0 -1
vn -0 0 -1
vn -0 0 -1
vn -0 0 -1
vn -0 0 -1
vn -0 0 -1
vn -0 0 -1
vn -0 0 -1
vn -0 0 -1
vn -0 0 -1
vn -0 0 -1
vn -0 0 -1
vn -0 0 -1
vn -0 0 -1
vn -0 0 -1
vn -0 0 -1
vn -0 0 -1
vn -0 0 -1
vn -0 0 -1
vn -0 0 -1
vn -0 0 -1
vn -0 0 -1
vn -0 0 -1
vn -0 0 -1
vn -0 0 -1
vn -0 0 -1
vn -0 0 -1
vn -0 0 -1
vn -0 0 -1
vn -0 0 -1
vn -0 0 -1
vn -0 0 -1
vn -0 0 -1
vn -0 0 -1
vn -0 0 -1
vn -0 0 -1
vn -0 0 -1
vn -0 0 -1
vn -0 0 -1
vn -0 0 -1
vn -0 0 -1
vn -0 0 -1
vn -0 0 -1
vn -0 0 -1
vn -0 0 -1
vn -0 0 -1
vn -0 0 -1
vn -0 0 -1
vn -0 0 -1
vn -0 0 -1
vn -0 0 -1
vn -0 0 -1
vn -0 0 -1
vn -0 0 -1
vn -0 0 -1
vn -0 0 -1
vn -0 0 -1
vn -0 0 -1
vn -0 0 -1
vn -0 0 -1
vn -0 0 -1
vn -0 0 -1
vn -0 0 -1
vn -0 0 -1
vn -0 0 -1
vn -0 0 -1
vn -0 0 -1
vn -0 0 -1
vn -0 0 -1
vn -0 0 -1
vn -0 0 -1
vn -0 0 -1
vn -0 0 -1
vn -0 0 -1
vn -0 0 -1
vn -0 0 -1
vn -0 0 -1
vn -0 0 -1
vn -0 0 -1
vn -0 0 -1
vn -0 0 -1
vn -0 0 -1
vn -0 0 -1
vn -0 0 -1
vn -0 0 -1
vn -0 0 -1
vn -0 0 -1
vn -0 0 -1
vn -0 0 -1
vn -0 0 -1
vn -0 0 -1
vn -0 0 -1
vn -0 0 -1
vn -0 0 -1
vn -0 0 -1
vn -0 0 -1
vn -0 0 -1
vn -0 0 -1
vn 0.040924072 -0.06100464 -0.9970703
vn 0.019363403 -0.054840088 -0.99853516
vn -0.036224365 -0.014877319 -0.99902344
vn -0 0 -1
vn -0 0 -1
vn 0.043060303 -0.032989502 -0.99853516
vn 0.03137207 -0.02281189 -0.99902344
vn -0.08154297 0.00092601776 -0.99658203
vn -0 0 -1
vn -0 0 -1
vn -0 0 -1
vn -0 0 -1
vn -0 0 -1
vn -0 0 -1
vn 0.03643799 -0.023773193 -0.99902344
vn 0.048583984 -0.02772522 -0.99853516
vn 0.03677368 -0.037017822 -0.99853516
vn -0 0 -1
vn -0 0 -1
vn -0 0 -1
vn -0 0 -1
vn -0 0 -1
vn -0 0 -1
vn -0 0 -1
vn -0 0 -1
vn -0 0 -1
vn -0 0 -1
vn -0 0 -1
vn -0 0 -1
vn -0 0 -1
vn -0 0 -1
vn -0 0 -1
vn -0 0 -1
vn -0 0 -1
vn -0 0 -1
vn -0 0 -1
vn -0 0 -1
vn -0 0 -1
vn -0 0 -1
vn -0 0 -1
vn -0 0 -1
vn -0 0 -1
vn -0 0 -1
vn -0 0 -1
vn -0 0 -1
vn -0 0 -1
vn -0 0 -1
vn -0 0 -1
vn -0 0 -1
vn -0 0 -1
vn -0 0 -1
vn -0 0 -1
vn -0 0 -1
vn -0 0 -1
vn -0 0 -1
vn -0 0 -1
vn -0 0 -1
vn -0 0 -1
vn -0 0 -1
vn -0 0 -1
vn -0 0 -1
vn -0 0 -1
vn -0 0 -1
vn -0 0 -1
vn -0 0 -1
vn -0 0 -1
vn -0 0 -1
vn -0 0 -1
vn -0 0 -1
vn -0 0 -1
vn -0 0 -1
vn -0 0 -1
vn -0 0 -1
vn -0 0 -1
vn -0 0 -1
vn -0 0 -1
vn -0 0 -1
vn -0 0 -1
vn -0 0 -1
vn -0 0 -1
vn -0 0 -1
vn -0 0 -1
vn -0 0 -1
vn -0 0 -1
vn -0 0 -1
vn -0 0 -1
vn -0 0 -1
vn -0 0 -1
vn -0 0 -1
vn -0 0 -1
vn -0 0 -1
vn -0 0 -1
vn -0 0 -1
vn -0 0 -1
vn -0 0 -1
vn -0 0 -1
g cPK_10_000840_00_FREEZERex_RR_L_SB_0
f 3/3/3 2/2/2 1/1/1
f 6/6/6 5/5/5 4/4/4
f 7/7/7 6/6/6 4/4/4
f 10/10/10 9/9/9 8/8/8
f 11/11/11 5/5/5 6/6/6
f 14/14/14 13/13/13 12/12/12
f 15/15/15 14/14/14 12/12/12
f 16/16/16 14/14/14 15/15/15
f 17/17/17 16/16/16 15/15/15
f 18/18/18 16/16/16 17/17/17
f 19/19/19 18/18/18 17/17/17
f 20/20/20 18/18/18 19/19/19
f 21/21/21 20/20/20 19/19/19
f 24/24/24 23/23/23 22/22/22
f 25/25/25 24/24/24 22/22/22
f 13/13/13 27/27/27 26/26/26
f 12/12/12 13/13/13 26/26/26
f 27/27/27 29/29/29 28/28/28
f 26/26/26 27/27/27 28/28/28
f 23/23/23 20/20/20 21/21/21
f 22/22/22 23/23/23 21/21/21
f 30/30/30 24/24/24 25/25/25
f 31/31/31 30/30/30 25/25/25
f 32/32/32 31/31/31 25/25/25
f 33/33/33 31/31/31 32/32/32
f 34/34/34 33/33/33 32/32/32
f 35/35/35 33/33/33 34/34/34
f 36/36/36 35/35/35 34/34/34
f 37/37/37 35/35/35 36/36/36
f 38/38/38 37/37/37 36/36/36
f 41/41/41 40/40/40 39/39/39
f 42/42/42 41/41/41 39/39/39
f 45/45/45 44/44/44 43/43/43
f 46/46/46 45/45/45 43/43/43
f 47/47/47 41/41/41 42/42/42
f 48/48/48 47/47/47 42/42/42
f 50/50/50 47/47/47 49/49/49
f 51/51/51 50/50/50 49/49/49
f 49/49/49 47/47/47 48/48/48
f 52/52/52 50/50/50 51/51/51
f 44/44/44 50/50/50 52/52/52
f 43/43/43 44/44/44 52/52/52
f 55/55/55 54/54/54 53/53/53
f 56/56/56 55/55/55 53/53/53
f 59/59/59 58/58/58 57/57/57
f 57/57/57 60/60/60 59/59/59
f 57/57/57 61/61/61 60/60/60
f 64/64/64 63/63/63 62/62/62
f 53/53/53 54/54/54 65/65/65
f 54/54/54 63/63/63 64/64/64
f 65/65/65 54/54/54 64/64/64
f 66/66/66 37/37/37 38/38/38
f 39/39/39 40/40/40 67/67/67
f 68/68/68 66/66/66 38/38/38
f 40/40/40 70/70/70 69/69/69
f 67/67/67 40/40/40 69/69/69
f 72/72/72 70/70/70 71/71/71
f 69/69/69 70/70/70 72/72/72
f 75/75/75 74/74/74 73/73/73
f 78/78/78 77/77/77 76/76/76
f 79/79/79 78/78/78 76/76/76
f 82/82/82 81/81/81 80/80/80
f 83/83/83 82/82/82 80/80/80
f 84/84/84 55/55/55 56/56/56
f 85/85/85 55/55/55 84/84/84
f 87/87/87 86/86/86 82/82/82
f 83/83/83 87/87/87 82/82/82
f 89/89/89 29/29/29 88/88/88
f 90/90/90 89/89/89 88/88/88
f 93/93/93 92/92/92 91/91/91
f 91/91/91 94/94/94 93/93/93
f 91/91/91 95/95/95 94/94/94
f 97/97/97 91/91/91 96/96/96
f 98/98/98 97/97/97 96/96/96
f 99/99/99 98/98/98 96/96/96
f 100/100/100 99/99/99 96/96/96
f 96/96/96 102/102/102 101/101/101
f 104/104/104 103/103/103 10/10/10
f 96/96/96 104/104/104 10/10/10
f 104/104/104 105/105/105 103/103/103
f 104/104/104 74/74/74 75/75/75
f 106/106/106 104/104/104 75/75/75
f 104/104/104 106/106/106 105/105/105
f 101/101/101 100/100/100 96/96/96
f 92/92/92 93/93/93 107/107/107
f 88/88/88 92/92/92 107/107/107
f 110/110/110 109/109/109 108/108/108
f 3/3/3 111/111/111 89/89/89
f 3/3/3 1/1/1 111/111/111
f 111/111/111 28/28/28 89/89/89
f 28/28/28 29/29/29 89/89/89
f 102/102/102 8/8/8 9/9/9
f 102/102/102 96/96/96 10/10/10
f 8/8/8 102/102/102 10/10/10
f 114/114/114 113/113/113 112/112/112
f 112/112/112 116/116/116 115/115/115
f 114/114/114 112/112/112 115/115/115
f 114/114/114 117/117/117 113/113/113
f 7/7/7 4/4/4 118/118/118
f 7/7/7 118/118/118 119/119/119
f 120/120/120 7/7/7 119/119/119
f 122/122/122 121/121/121 120/120/120
f 119/119/119 122/122/122 120/120/120
f 125/125/125 124/124/124 123/123/123
f 125/125/125 123/123/123 126/126/126
f 126/126/126 80/80/80 81/81/81
f 125/125/125 126/126/126 81/81/81
f 129/129/129 128/128/128 127/127/127
f 129/129/129 131/131/131 130/130/130
f 132/132/132 129/129/129 130/130/130
f 135/135/135 134/134/134 133/133/133
f 135/135/135 133/133/133 136/136/136
f 135/135/135 136/136/136 137/137/137
f 140/140/140 139/139/139 138/138/138
f 135/135/135 137/137/137 141/141/141
f 76/76/76 77/77/77 142/142/142
f 143/143/143 76/76/76 142/142/142
f 144/144/144 135/135/135 141/141/141
f 138/138/138 144/144/144 141/141/141
f 140/140/140 138/138/138 141/141/141
f 146/146/146 145/145/145 140/140/140
f 147/147/147 146/146/146 140/140/140
f 143/143/143 142/142/142 145/145/145
f 146/146/146 143/143/143 145/145/145
f 140/140/140 141/141/141 148/148/148
f 140/140/140 148/148/148 149/149/149
f 147/147/147 140/140/140 149/149/149
f 147/147/147 149/149/149 150/150/150
f 147/147/147 150/150/150 151/151/151
f 152/152/152 147/147/147 151/151/151
f 152/152/152 151/151/151 153/153/153
f 154/154/154 152/152/152 153/153/153
f 153/153/153 130/130/130 154/154/154
f 153/153/153 132/132/132 130/130/130
f 157/157/157 156/156/156 155/155/155
f 158/158/158 117/117/117 74/74/74
f 159/159/159 158/158/158 74/74/74
f 159/159/159 160/160/160 158/158/158
f 162/162/162 161/161/161 160/160/160
f 159/159/159 162/162/162 160/160/160
f 97/97/97 164/164/164 163/163/163
f 165/165/165 163/163/163 164/164/164
f 97/97/97 163/163/163 95/95/95
f 97/97/97 95/95/95 91/91/91
f 152/152/152 154/154/154 166/166/166
f 157/157/157 155/155/155 161/161/161
f 167/167/167 157/157/157 161/161/161
f 168/168/168 167/167/167 161/161/161
f 152/152/152 166/166/166 169/169/169
f 162/162/162 152/152/152 169/169/169
f 169/169/169 168/168/168 161/161/161
f 162/162/162 169/169/169 161/161/161
f 114/114/114 73/73/73 74/74/74
f 117/117/117 114/114/114 74/74/74
f 108/108/108 171/171/171 170/170/170
f 110/110/110 108/108/108 170/170/170
f 172/172/172 110/110/110 170/170/170
f 172/172/172 170/170/170 90/90/90
f 172/172/172 90/90/90 88/88/88
f 88/88/88 107/107/107 172/172/172
f 173/173/173 87/87/87 83/83/83
f 174/174/174 173/173/173 83/83/83
f 11/11/11 6/6/6 55/55/55
f 85/85/85 11/11/11 55/55/55
f 129/129/129 127/127/127 131/131/131
f 78/78/78 79/79/79 175/175/175
f 176/176/176 78/78/78 175/175/175
f 174/174/174 177/177/177 173/173/173
f 177/177/177 178/178/178 173/173/173
f 178/178/178 179/179/179 173/173/173
f 71/71/71 70/70/70 66/66/66
f 68/68/68 71/71/71 66/66/66
f 121/121/121 122/122/122 180/180/180
f 181/181/181 121/121/121 180/180/180
f 182/182/182 124/124/124 125/125/125
f 183/183/183 182/182/182 125/125/125
f 185/185/185 181/181/181 184/184/184
f 186/186/186 185/185/185 184/184/184
f 184/184/184 182/182/182 183/183/183
f 186/186/186 184/184/184 183/183/183
f 181/181/181 185/185/185 121/121/121
f 187/187/187 176/176/176 175/175/175
f 179/179/179 187/187/187 175/175/175
f 179/179/179 188/188/188 187/187/187
f 179/179/179 178/178/178 188/188/188
f 191/191/191 190/190/190 189/189/189
f 192/192/192 191/191/191 189/189/189
f 192/192/192 189/189/189 45/45/45
f 46/46/46 192/192/192 45/45/45
f 191/191/191 64/64/64 190/190/190
f 65/65/65 54/54/54 190/190/190
f 64/64/64 65/65/65 190/190/190
g cPK_10_000840_00_FREEZERex_RR_L_SB_1
f 28/28/28 111/111/111 1/1/1
f 193/193/193 28/28/28 1/1/1
f 196/196/196 195/195/195 194/194/194
f 36/36/36 34/34/34 197/197/197
f 198/198/198 36/36/36 197/197/197
f 32/32/32 197/197/197 34/34/34
f 38/38/38 199/199/199 68/68/68
f 137/137/137 148/148/148 141/141/141
f 149/149/149 148/148/148 200/200/200
f 201/201/201 64/64/64 191/191/191
f 202/202/202 122/122/122 119/119/119
f 118/118/118 202/202/202 119/119/119
f 77/77/77 78/78/78 142/142/142
f 181/181/181 203/203/203 184/184/184
f 206/206/206 205/205/205 204/204/204
f 208/208/208 207/207/207 123/123/123
f 209/209/209 208/208/208 123/123/123
f 210/210/210 204/204/204 207/207/207
f 208/208/208 210/210/210 207/207/207
f 212/212/212 211/211/211 124/124/124
f 124/124/124 182/182/182 184/184/184
f 212/212/212 124/124/124 184/184/184
f 202/202/202 180/180/180 122/122/122
f 215/215/215 214/214/214 213/213/213
f 217/217/217 216/216/216 180/180/180
f 219/219/219 218/218/218 210/210/210
f 220/220/220 219/219/219 210/210/210
f 209/209/209 123/123/123 124/124/124
f 211/211/211 209/209/209 124/124/124
f 11/11/11 222/222/222 221/221/221
f 221/221/221 224/224/224 223/223/223
f 225/225/225 223/223/223 214/214/214
f 4/4/4 5/5/5 226/226/226
f 228/228/228 226/226/226 227/227/227
f 227/227/227 229/229/229 217/217/217
f 230/230/230 85/85/85 84/84/84
f 231/231/231 48/48/48 42/42/42
f 232/232/232 231/231/231 42/42/42
f 232/232/232 39/39/39 67/67/67
f 233/233/233 232/232/232 67/67/67
f 234/234/234 53/53/53 65/65/65
f 201/201/201 234/234/234 65/65/65
f 235/235/235 69/69/69 72/72/72
f 238/238/238 237/237/237 236/236/236
f 240/240/240 239/239/239 214/214/214
f 234/234/234 241/241/241 56/56/56
f 53/53/53 234/234/234 56/56/56
f 243/243/243 224/224/224 242/242/242
f 230/230/230 11/11/11 85/85/85
f 214/214/214 239/239/239 244/244/244
f 246/246/246 244/244/244 245/245/245
f 249/249/249 248/248/248 247/247/247
f 251/251/251 248/248/248 250/250/250
f 252/252/252 52/52/52 51/51/51
f 253/253/253 252/252/252 51/51/51
f 254/254/254 46/46/46 43/43/43
f 255/255/255 254/254/254 43/43/43
f 258/258/258 257/257/257 256/256/256
f 259/259/259 80/80/80 126/126/126
f 259/259/259 260/260/260 80/80/80
f 261/261/261 72/72/72 71/71/71
f 264/264/264 263/263/263 262/262/262
f 266/266/266 265/265/265 263/263/263
f 267/267/267 174/174/174 83/83/83
f 268/268/268 267/267/267 83/83/83
f 269/269/269 268/268/268 83/83/83
f 270/270/270 178/178/178 177/177/177
f 271/271/271 270/270/270 177/177/177
f 273/273/273 272/272/272 165/165/165
f 275/275/275 274/274/274 9/9/9
f 116/116/116 276/276/276 115/115/115
f 277/277/277 276/276/276 116/116/116
f 279/279/279 278/278/278 276/276/276
f 133/133/133 196/196/196 136/136/136
f 134/134/134 196/196/196 133/133/133
f 272/272/272 280/280/280 19/19/19
f 281/281/281 272/272/272 19/19/19
f 282/282/282 109/109/109 19/19/19
f 1/1/1 2/2/2 19/19/19
f 32/32/32 283/283/283 197/197/197
f 198/198/198 197/197/197 276/276/276
f 278/278/278 198/198/198 276/276/276
f 196/196/196 285/285/285 284/284/284
f 286/286/286 285/285/285 196/196/196
f 286/286/286 287/287/287 285/285/285
f 194/194/194 139/139/139 140/140/140
f 288/288/288 78/78/78 176/176/176
f 289/289/289 288/288/288 176/176/176
f 290/290/290 289/289/289 176/176/176
f 256/256/256 291/291/291 249/249/249
f 248/248/248 291/291/291 292/292/292
f 255/255/255 43/43/43 52/52/52
f 252/252/252 255/255/255 52/52/52
f 247/247/247 251/251/251 238/238/238
f 294/294/294 251/251/251 293/293/293
f 253/253/253 51/51/51 49/49/49
f 231/231/231 49/49/49 48/48/48
f 231/231/231 253/253/253 49/49/49
f 233/233/233 67/67/67 69/69/69
f 295/295/295 233/233/233 69/69/69
f 247/247/247 296/296/296 245/245/245
f 249/249/249 245/245/245 239/239/239
f 256/256/256 249/249/249 239/239/239
f 297/297/297 224/224/224 243/243/243
f 258/258/258 297/297/297 243/243/243
f 230/230/230 84/84/84 56/56/56
f 241/241/241 230/230/230 56/56/56
f 232/232/232 42/42/42 39/39/39
f 239/239/239 245/245/245 244/244/244
f 244/244/244 246/246/246 298/298/298
f 126/126/126 123/123/123 207/207/207
f 259/259/259 126/126/126 207/207/207
f 207/207/207 299/299/299 259/259/259
f 203/203/203 301/301/301 300/300/300
f 203/203/203 302/302/302 301/301/301
f 304/304/304 216/216/216 303/303/303
f 303/303/303 216/216/216 229/229/229
f 305/305/305 303/303/303 229/229/229
f 305/305/305 229/229/229 219/219/219
f 180/180/180 216/216/216 304/304/304
f 203/203/203 211/211/211 212/212/212
f 272/272/272 25/25/25 22/22/22
f 4/4/4 228/228/228 202/202/202
f 118/118/118 4/4/4 202/202/202
f 202/202/202 228/228/228 217/217/217
f 215/215/215 206/206/206 229/229/229
f 227/227/227 225/225/225 215/215/215
f 226/226/226 221/221/221 225/225/225
f 5/5/5 11/11/11 221/221/221
f 213/213/213 205/205/205 206/206/206
f 297/297/297 256/256/256 240/240/240
f 256/256/256 239/239/239 240/240/240
f 240/240/240 214/214/214 223/223/223
f 240/240/240 223/223/223 224/224/224
f 296/296/296 236/236/236 306/306/306
f 246/246/246 306/306/306 263/263/263
f 244/244/244 298/298/298 299/299/299
f 279/279/279 276/276/276 156/156/156
f 279/279/279 169/169/169 166/166/166
f 279/279/279 166/166/166 154/154/154
f 279/279/279 131/131/131 127/127/127
f 127/127/127 128/128/128 278/278/278
f 279/279/279 127/127/127 278/278/278
f 279/279/279 156/156/156 157/157/157
f 279/279/279 157/157/157 167/167/167
f 168/168/168 279/279/279 167/167/167
f 168/168/168 169/169/169 279/279/279
f 279/279/279 154/154/154 130/130/130
f 279/279/279 130/130/130 131/131/131
f 200/200/200 278/278/278 128/128/128
f 196/196/196 278/278/278 200/200/200
f 200/200/200 151/151/151 150/150/150
f 149/149/149 200/200/200 150/150/150
f 148/148/148 137/137/137 200/200/200
f 137/137/137 136/136/136 200/200/200
f 136/136/136 196/196/196 200/200/200
f 151/151/151 200/200/200 153/153/153
f 200/200/200 132/132/132 153/153/153
f 200/200/200 129/129/129 132/132/132
f 200/200/200 128/128/128 129/129/129
f 195/195/195 196/196/196 134/134/134
f 139/139/139 194/194/194 195/195/195
f 138/138/138 139/139/139 195/195/195
f 144/144/144 138/138/138 195/195/195
f 135/135/135 144/144/144 195/195/195
f 135/135/135 195/195/195 134/134/134
f 161/161/161 155/155/155 277/277/277
f 158/158/158 160/160/160 277/277/277
f 117/117/117 158/158/158 277/277/277
f 160/160/160 161/161/161 277/277/277
f 156/156/156 276/276/276 277/277/277
f 155/155/155 156/156/156 277/277/277
f 117/117/117 277/277/277 113/113/113
f 277/277/277 112/112/112 113/113/113
f 277/277/277 116/116/116 112/112/112
f 274/274/274 275/275/275 276/276/276
f 275/275/275 105/105/105 106/106/106
f 275/275/275 73/73/73 114/114/114
f 275/275/275 75/75/75 73/73/73
f 275/275/275 106/106/106 75/75/75
f 275/275/275 114/114/114 115/115/115
f 275/275/275 115/115/115 276/276/276
f 275/275/275 10/10/10 103/103/103
f 275/275/275 103/103/103 105/105/105
f 275/275/275 9/9/9 10/10/10
f 273/273/273 274/274/274 272/272/272
f 273/273/273 97/97/97 98/98/98
f 99/99/99 273/273/273 98/98/98
f 273/273/273 164/164/164 97/97/97
f 102/102/102 9/9/9 273/273/273
f 9/9/9 274/274/274 273/273/273
f 101/101/101 102/102/102 273/273/273
f 99/99/99 100/100/100 273/273/273
f 100/100/100 101/101/101 273/273/273
f 281/281/281 19/19/19 109/109/109
f 165/165/165 272/272/272 281/281/281
f 163/163/163 165/165/165 281/281/281
f 281/281/281 109/109/109 110/110/110
f 94/94/94 95/95/95 281/281/281
f 93/93/93 94/94/94 281/281/281
f 95/95/95 163/163/163 281/281/281
f 107/107/107 93/93/93 281/281/281
f 107/107/107 281/281/281 172/172/172
f 281/281/281 110/110/110 172/172/172
f 2/2/2 3/3/3 89/89/89
f 282/282/282 2/2/2 89/89/89
f 282/282/282 90/90/90 170/170/170
f 282/282/282 89/89/89 90/90/90
f 282/282/282 170/170/170 171/171/171
f 282/282/282 171/171/171 108/108/108
f 282/282/282 108/108/108 109/109/109
f 2/2/2 282/282/282 19/19/19
f 193/193/193 19/19/19 17/17/17
f 15/15/15 193/193/193 17/17/17
f 193/193/193 1/1/1 19/19/19
f 15/15/15 12/12/12 193/193/193
f 12/12/12 26/26/26 193/193/193
f 26/26/26 28/28/28 193/193/193
f 273/273/273 165/165/165 164/164/164
f 201/201/201 65/65/65 64/64/64
f 307/307/307 191/191/191 192/192/192
f 214/214/214 244/244/244 213/213/213
f 38/38/38 36/36/36 198/198/198
f 284/284/284 38/38/38 198/198/198
f 284/284/284 198/198/198 278/278/278
f 196/196/196 284/284/284 278/278/278
f 308/308/308 298/298/298 263/263/263
f 265/265/265 308/308/308 263/263/263
f 246/246/246 263/263/263 298/298/298
f 259/259/259 309/309/309 260/260/260
f 311/311/311 310/310/310 220/220/220
f 305/305/305 310/310/310 303/303/303
f 303/303/303 310/310/310 301/301/301
f 301/301/301 302/302/302 303/303/303
f 302/302/302 304/304/304 303/303/303
f 181/181/181 180/180/180 302/302/302
f 218/218/218 229/229/229 206/206/206
f 218/218/218 206/206/206 210/210/210
f 210/210/210 206/206/206 204/204/204
f 218/218/218 219/219/219 229/229/229
f 305/305/305 219/219/219 220/220/220
f 310/310/310 305/305/305 220/220/220
f 301/301/301 310/310/310 311/311/311
f 300/300/300 301/301/301 311/311/311
f 244/244/244 205/205/205 213/213/213
f 295/295/295 69/69/69 235/235/235
f 294/294/294 312/312/312 237/237/237
f 314/314/314 312/312/312 313/313/313
f 314/314/314 313/313/313 231/231/231
f 313/313/313 293/293/293 253/253/253
f 293/293/293 250/250/250 252/252/252
f 250/250/250 292/292/292 255/255/255
f 254/254/254 292/292/292 315/315/315
f 315/315/315 292/292/292 291/291/291
f 315/315/315 291/291/291 257/257/257
f 205/205/205 244/244/244 299/299/299
f 220/220/220 210/210/210 208/208/208
f 220/220/220 208/208/208 209/209/209
f 311/311/311 220/220/220 209/209/209
f 300/300/300 311/311/311 209/209/209
f 300/300/300 209/209/209 211/211/211
f 203/203/203 300/300/300 211/211/211
f 274/274/274 276/276/276 197/197/197
f 283/283/283 274/274/274 197/197/197
f 283/283/283 32/32/32 25/25/25
f 272/272/272 274/274/274 283/283/283
f 25/25/25 272/272/272 283/283/283
f 269/269/269 260/260/260 309/309/309
f 316/316/316 269/269/269 309/309/309
f 290/290/290 318/318/318 317/317/317
f 289/289/289 290/290/290 317/317/317
f 289/289/289 317/317/317 288/288/288
f 317/317/317 320/320/320 319/319/319
f 320/320/320 321/321/321 319/319/319
f 319/319/319 321/321/321 194/194/194
f 269/269/269 83/83/83 80/80/80
f 322/322/322 145/145/145 142/142/142
f 261/261/261 71/71/71 199/199/199
f 321/321/321 320/320/320 196/196/196
f 322/322/322 140/140/140 145/145/145
f 322/322/322 194/194/194 140/140/140
f 242/242/242 224/224/224 221/221/221
f 325/325/325 324/324/324 323/323/323
f 326/326/326 325/325/325 323/323/323
f 322/322/322 319/319/319 194/194/194
f 322/322/322 288/288/288 319/319/319
f 317/317/317 319/319/319 288/288/288
f 327/327/327 316/316/316 309/309/309
f 322/322/322 142/142/142 288/288/288
f 142/142/142 78/78/78 288/288/288
f 287/287/287 199/199/199 285/285/285
f 328/328/328 261/261/261 199/199/199
f 331/331/331 330/330/330 329/329/329
f 271/271/271 177/177/177 174/174/174
f 267/267/267 271/271/271 174/174/174
f 323/323/323 324/324/324 327/327/327
f 332/332/332 323/323/323 327/327/327
f 324/324/324 270/270/270 271/271/271
f 327/327/327 324/324/324 271/271/271
f 270/270/270 324/324/324 325/325/325
f 333/333/333 270/270/270 325/325/325
f 333/333/333 188/188/188 178/178/178
f 270/270/270 333/333/333 178/178/178
f 320/320/320 286/286/286 196/196/196
f 334/334/334 287/287/287 286/286/286
f 335/335/335 320/320/320 317/317/317
f 318/318/318 335/335/335 317/317/317
f 267/267/267 316/316/316 327/327/327
f 271/271/271 267/267/267 327/327/327
f 316/316/316 267/267/267 268/268/268
f 269/269/269 316/316/316 268/268/268
f 330/330/330 235/235/235 328/328/328
f 260/260/260 269/269/269 80/80/80
f 335/335/335 286/286/286 320/320/320
f 280/280/280 21/21/21 19/19/19
f 272/272/272 21/21/21 280/280/280
f 272/272/272 22/22/22 21/21/21
f 196/196/196 194/194/194 321/321/321
f 331/331/331 295/295/295 235/235/235
f 295/295/295 331/331/331 233/233/233
f 336/336/336 328/328/328 199/199/199
f 330/330/330 328/328/328 262/262/262
f 330/330/330 262/262/262 329/329/329
f 262/262/262 328/328/328 336/336/336
f 68/68/68 199/199/199 71/71/71
f 199/199/199 38/38/38 284/284/284
f 199/199/199 284/284/284 285/285/285
f 257/257/257 291/291/291 256/256/256
f 251/251/251 294/294/294 238/238/238
f 248/248/248 251/251/251 247/247/247
f 247/247/247 238/238/238 296/296/296
f 249/249/249 247/247/247 245/245/245
f 246/246/246 245/245/245 296/296/296
f 253/253/253 293/293/293 252/252/252
f 294/294/294 293/293/293 313/313/313
f 251/251/251 250/250/250 293/293/293
f 231/231/231 313/313/313 253/253/253
f 252/252/252 250/250/250 255/255/255
f 248/248/248 292/292/292 250/250/250
f 291/291/291 248/248/248 249/249/249
f 255/255/255 292/292/292 254/254/254
f 204/204/204 205/205/205 299/299/299
f 259/259/259 299/299/299 337/337/337
f 332/332/332 327/327/327 309/309/309
f 299/299/299 298/298/298 308/308/308
f 337/337/337 299/299/299 308/308/308
f 207/207/207 204/204/204 299/299/299
f 203/203/203 212/212/212 184/184/184
f 225/225/225 214/214/214 215/215/215
f 226/226/226 225/225/225 227/227/227
f 4/4/4 226/226/226 228/228/228
f 221/221/221 223/223/223 225/225/225
f 227/227/227 215/215/215 229/229/229
f 228/228/228 227/227/227 217/217/217
f 202/202/202 217/217/217 180/180/180
f 5/5/5 221/221/221 226/226/226
f 215/215/215 213/213/213 206/206/206
f 331/331/331 235/235/235 330/330/330
f 235/235/235 261/261/261 328/328/328
f 261/261/261 235/235/235 72/72/72
f 229/229/229 216/216/216 217/217/217
f 180/180/180 304/304/304 302/302/302
f 181/181/181 302/302/302 203/203/203
f 336/336/336 199/199/199 287/287/287
f 262/262/262 336/336/336 287/287/287
f 232/232/232 314/314/314 231/231/231
f 233/233/233 314/314/314 232/232/232
f 314/314/314 233/233/233 312/312/312
f 312/312/312 233/233/233 331/331/331
f 312/312/312 331/331/331 237/237/237
f 237/237/237 331/331/331 329/329/329
f 237/237/237 329/329/329 236/236/236
f 236/236/236 329/329/329 262/262/262
f 236/236/236 262/262/262 306/306/306
f 306/306/306 262/262/262 263/263/263
f 294/294/294 237/237/237 238/238/238
f 312/312/312 294/294/294 313/313/313
f 238/238/238 236/236/236 296/296/296
f 296/296/296 306/306/306 246/246/246
f 266/266/266 263/263/263 264/264/264
f 264/264/264 262/262/262 287/287/287
f 264/264/264 287/287/287 266/266/266
f 335/335/335 318/318/318 325/325/325
f 326/326/326 335/335/335 325/325/325
f 290/290/290 325/325/325 318/318/318
f 333/333/333 325/325/325 290/290/290
f 290/290/290 187/187/187 188/188/188
f 333/333/333 290/290/290 188/188/188
f 290/290/290 176/176/176 187/187/187
f 335/335/335 334/334/334 286/286/286
f 334/334/334 335/335/335 266/266/266
f 335/335/335 326/326/326 266/266/266
f 266/266/266 326/326/326 323/323/323
f 265/265/265 266/266/266 323/323/323
f 265/265/265 323/323/323 308/308/308
f 323/323/323 332/332/332 308/308/308
f 337/337/337 308/308/308 332/332/332
f 337/337/337 332/332/332 309/309/309
f 259/259/259 337/337/337 309/309/309
f 287/287/287 334/334/334 266/266/266
f 338/338/338 201/201/201 191/191/191
f 307/307/307 338/338/338 191/191/191
f 338/338/338 339/339/339 234/234/234
f 201/201/201 338/338/338 234/234/234
f 339/339/339 340/340/340 241/241/241
f 234/234/234 339/339/339 241/241/241
f 340/340/340 341/341/341 230/230/230
f 241/241/241 340/340/340 230/230/230
f 341/341/341 222/222/222 11/11/11
f 230/230/230 341/341/341 11/11/11
f 341/341/341 242/242/242 222/222/222
f 222/222/222 242/242/242 221/221/221
f 341/341/341 243/243/243 242/242/242
f 243/243/243 341/341/341 340/340/340
f 297/297/297 240/240/240 224/224/224
f 258/258/258 256/256/256 297/297/297
f 340/340/340 258/258/258 243/243/243
f 340/340/340 339/339/339 257/257/257
f 258/258/258 340/340/340 257/257/257
f 315/315/315 257/257/257 339/339/339
f 338/338/338 315/315/315 339/339/339
f 315/315/315 338/338/338 307/307/307
f 254/254/254 315/315/315 307/307/307
f 307/307/307 192/192/192 46/46/46
f 254/254/254 307/307/307 46/46/46
g cPK_10_000840_00_FREEZERex_RR_L_SB_2
f 344/344/344 343/343/343 342/342/342
f 347/347/347 346/346/346 345/345/345
f 349/349/349 346/346/346 348/348/348
f 350/350/350 345/345/345 346/346/346
f 343/343/343 350/350/350 346/346/346
f 353/353/353 352/352/352 351/351/351
f 355/355/355 353/353/353 354/354/354
f 358/358/358 357/357/357 356/356/356
f 359/359/359 358/358/358 356/356/356
f 361/361/361 357/357/357 360/360/360
f 364/364/364 363/363/363 362/362/362
f 367/367/367 366/366/366 365/365/365
f 370/370/370 369/369/369 368/368/368
f 373/373/373 372/372/372 371/371/371
f 374/374/374 373/373/373 371/371/371
f 347/347/347 348/348/348 346/346/346
f 377/377/377 376/376/376 375/375/375
f 380/380/380 379/379/379 378/378/378
f 378/378/378 364/364/364 381/381/381
f 366/366/366 377/377/377 365/365/365
f 369/369/369 370/370/370 373/373/373
f 384/384/384 383/383/383 382/382/382
f 387/387/387 386/386/386 385/385/385
f 388/388/388 387/387/387 385/385/385
f 391/391/391 390/390/390 389/389/389
f 390/390/390 384/384/384 392/392/392
f 395/395/395 394/394/394 393/393/393
f 383/383/383 356/356/356 396/396/396
f 385/385/385 386/386/386 359/359/359
f 398/398/398 397/397/397 355/355/355
f 397/397/397 400/400/400 399/399/399
f 403/403/403 402/402/402 401/401/401
f 402/402/402 404/404/404 400/400/400
f 405/405/405 403/403/403 344/344/344
f 344/344/344 403/403/403 406/406/406
f 408/408/408 391/391/391 407/407/407
f 411/411/411 410/410/410 409/409/409
f 411/411/411 413/413/413 412/412/412
f 402/402/402 397/397/397 398/398/398
f 401/401/401 402/402/402 398/398/398
f 354/354/354 353/353/353 351/351/351
f 353/353/353 397/397/397 352/352/352
f 403/403/403 401/401/401 406/406/406
f 344/344/344 406/406/406 414/414/414
f 344/344/344 342/342/342 415/415/415
f 344/344/344 414/414/414 350/350/350
f 350/350/350 414/414/414 416/416/416
f 345/345/345 408/408/408 417/417/417
f 410/410/410 411/411/411 348/348/348
f 347/347/347 410/410/410 348/348/348
f 412/412/412 348/348/348 411/411/411
f 412/412/412 349/349/349 348/348/348
f 374/374/374 371/371/371 418/418/418
f 367/367/367 365/365/365 418/418/418
f 377/377/377 375/375/375 365/365/365
f 379/379/379 375/375/375 376/376/376
f 420/420/420 413/413/413 419/419/419
f 379/379/379 420/420/420 419/419/419
f 378/378/378 419/419/419 409/409/409
f 364/364/364 421/421/421 363/363/363
f 360/360/360 357/357/357 422/422/422
f 356/356/356 357/357/357 361/361/361
f 423/423/423 422/422/422 357/357/357
f 358/358/358 423/423/423 357/357/357
f 394/394/394 387/387/387 388/388/388
f 393/393/393 394/394/394 388/388/388
f 354/354/354 351/351/351 424/424/424
f 354/354/354 424/424/424 425/425/425
f 355/355/355 425/425/425 426/426/426
f 398/398/398 426/426/426 395/395/395
f 401/401/401 395/395/395 406/406/406
f 397/397/397 399/399/399 352/352/352
f 355/355/355 397/397/397 353/353/353
f 355/355/355 354/354/354 425/425/425
f 398/398/398 355/355/355 426/426/426
f 401/401/401 398/398/398 395/395/395
f 350/350/350 408/408/408 345/345/345
f 343/343/343 344/344/344 350/350/350
f 403/403/403 405/405/405 404/404/404
f 381/381/381 364/364/364 362/362/362
f 373/373/373 370/370/370 372/372/372
f 405/405/405 344/344/344 415/415/415
f 402/402/402 403/403/403 404/404/404
f 397/397/397 402/402/402 400/400/400
f 365/365/365 374/374/374 418/418/418
f 374/374/374 365/365/365 427/427/427
f 427/427/427 375/375/375 380/380/380
f 362/362/362 428/428/428 381/381/381
f 373/373/373 427/427/427 380/380/380
f 369/369/369 373/373/373 380/380/380
f 374/374/374 427/427/427 373/373/373
f 360/360/360 422/422/422 429/429/429
f 360/360/360 429/429/429 430/430/430
f 361/361/361 360/360/360 430/430/430
f 396/396/396 361/361/361 431/431/431
f 382/382/382 396/396/396 432/432/432
f 392/392/392 382/382/382 433/433/433
f 389/389/389 392/392/392 363/363/363
f 434/434/434 389/389/389 363/363/363
f 359/359/359 356/356/356 383/383/383
f 385/385/385 359/359/359 383/383/383
f 385/385/385 383/383/383 384/384/384
f 388/388/388 385/385/385 384/384/384
f 393/393/393 388/388/388 384/384/384
f 393/393/393 435/435/435 395/395/395
f 406/406/406 395/395/395 435/435/435
f 436/436/436 406/406/406 435/435/435
f 414/414/414 406/406/406 436/436/436
f 416/416/416 414/414/414 436/436/436
f 396/396/396 356/356/356 361/361/361
f 383/383/383 396/396/396 382/382/382
f 384/384/384 382/382/382 392/392/392
f 390/390/390 392/392/392 389/389/389
f 391/391/391 389/389/389 407/407/407
f 408/408/408 407/407/407 417/417/417
f 345/345/345 417/417/417 347/347/347
f 379/379/379 376/376/376 420/420/420
f 411/411/411 419/419/419 413/413/413
f 378/378/378 381/381/381 380/380/380
f 421/421/421 364/364/364 378/378/378
f 434/434/434 407/407/407 389/389/389
f 393/393/393 384/384/384 390/390/390
f 411/411/411 409/409/409 419/419/419
f 378/378/378 379/379/379 419/419/419
f 380/380/380 375/375/375 379/379/379
f 427/427/427 365/365/365 375/375/375
f 392/392/392 433/433/433 363/363/363
f 382/382/382 432/432/432 433/433/433
f 396/396/396 431/431/431 432/432/432
f 361/361/361 430/430/430 431/431/431
f 409/409/409 407/407/407 421/421/421
f 410/410/410 407/407/407 409/409/409
f 407/407/407 410/410/410 417/417/417
f 417/417/417 410/410/410 347/347/347
f 421/421/421 378/378/378 409/409/409
f 393/393/393 390/390/390 435/435/435
f 435/435/435 391/391/391 436/436/436
f 436/436/436 408/408/408 416/416/416
f 350/350/350 416/416/416 408/408/408
f 421/421/421 434/434/434 363/363/363
f 434/434/434 421/421/421 407/407/407
f 435/435/435 390/390/390 391/391/391
f 436/436/436 391/391/391 408/408/408
f 369/369/369 380/380/380 428/428/428
f 428/428/428 380/380/380 381/381/381
f 428/428/428 362/362/362 368/368/368
f 369/369/369 428/428/428 368/368/368
f 439/439/439 438/438/438 437/437/437
f 438/438/438 441/441/441 440/440/440
f 437/437/437 438/438/438 442/442/442
f 438/438/438 440/440/440 443/443/443
f 442/442/442 438/438/438 444/444/444
f 444/444/444 438/438/438 443/443/443
f 447/447/447 446/446/446 445/445/445
f 450/450/450 449/449/449 448/448/448
f 453/453/453 452/452/452 451/451/451
f 456/456/456 455/455/455 454/454/454
f 458/458/458 457/457/457 451/451/451
f 461/461/461 460/460/460 459/459/459
f 462/462/462 461/461/461 459/459/459
f 465/465/465 464/464/464 463/463/463
f 459/459/459 465/465/465 463/463/463
f 468/468/468 467/467/467 466/466/466
f 469/469/469 468/468/468 466/466/466
f 464/464/464 470/470/470 463/463/463
f 460/460/460 465/465/465 459/459/459
f 473/473/473 472/472/472 471/471/471
f 471/471/471 474/474/474 453/453/453
f 463/463/463 470/470/470 475/475/475
f 476/476/476 463/463/463 475/475/475
f 476/476/476 475/475/475 477/477/477
f 467/467/467 477/477/477 466/466/466
f 438/438/438 479/479/479 478/478/478
f 481/481/481 479/479/479 480/480/480
f 482/482/482 480/480/480 438/438/438
f 485/485/485 484/484/484 483/483/483
f 483/483/483 487/487/487 486/486/486
f 490/490/490 489/489/489 488/488/488
f 483/483/483 491/491/491 487/487/487
f 483/483/483 484/484/484 491/491/491
f 493/493/493 492/492/492 488/488/488
f 489/489/489 493/493/493 488/488/488
f 491/491/491 488/488/488 494/494/494
f 493/493/493 495/495/495 492/492/492
f 494/494/494 488/488/488 496/496/496
f 488/488/488 492/492/492 496/496/496
f 495/495/495 497/497/497 492/492/492
f 492/492/492 498/498/498 496/496/496
f 497/497/497 500/500/500 499/499/499
f 497/497/497 499/499/499 492/492/492
f 498/498/498 492/492/492 501/501/501
f 492/492/492 499/499/499 501/501/501
f 500/500/500 502/502/502 499/499/499
f 501/501/501 499/499/499 503/503/503
f 446/446/446 499/499/499 504/504/504
f 502/502/502 504/504/504 499/499/499
f 503/503/503 499/499/499 505/505/505
f 499/499/499 446/446/446 505/505/505
f 506/506/506 438/438/438 439/439/439
f 438/438/438 478/478/478 441/441/441
f 507/507/507 480/480/480 482/482/482
f 508/508/508 507/507/507 482/482/482
f 510/510/510 509/509/509 485/485/485
f 513/513/513 512/512/512 511/511/511
f 514/514/514 513/513/513 511/511/511
f 517/517/517 516/516/516 515/515/515
f 518/518/518 517/517/517 515/515/515
f 521/521/521 520/520/520 519/519/519
f 522/522/522 521/521/521 519/519/519
f 516/516/516 524/524/524 523/523/523
f 515/515/515 516/516/516 523/523/523
f 520/520/520 526/526/526 525/525/525
f 519/519/519 520/520/520 525/525/525
f 524/524/524 461/461/461 462/462/462
f 523/523/523 524/524/524 462/462/462
f 468/468/468 469/469/469 525/525/525
f 526/526/526 468/468/468 525/525/525
f 512/512/512 517/517/517 518/518/518
f 511/511/511 512/512/512 518/518/518
f 529/529/529 528/528/528 527/527/527
f 532/532/532 531/531/531 530/530/530
f 533/533/533 532/532/532 530/530/530
f 528/528/528 529/529/529 534/534/534
f 535/535/535 528/528/528 534/534/534
f 538/538/538 537/537/537 536/536/536
f 541/541/541 540/540/540 539/539/539
f 542/542/542 541/541/541 539/539/539
f 544/544/544 536/536/536 543/543/543
f 542/542/542 539/539/539 545/545/545
f 546/546/546 542/542/542 545/545/545
f 549/549/549 548/548/548 547/547/547
f 547/547/547 548/548/548 550/550/550
f 549/549/549 551/551/551 548/548/548
f 553/553/553 552/552/552 550/550/550
f 548/548/548 553/553/553 550/550/550
f 555/555/555 454/454/454 554/554/554
f 547/547/547 555/555/555 554/554/554
f 555/555/555 547/547/547 556/556/556
f 555/555/555 558/558/558 557/557/557
f 559/559/559 544/544/544 558/558/558
f 554/554/554 560/560/560 547/547/547
f 560/560/560 549/549/549 547/547/547
f 561/561/561 553/553/553 548/548/548
f 551/551/551 561/561/561 548/548/548
f 547/547/547 550/550/550 556/556/556
f 555/555/555 556/556/556 559/559/559
f 563/563/563 562/562/562 540/540/540
f 541/541/541 563/563/563 540/540/540
f 564/564/564 545/545/545 513/513/513
f 533/533/533 530/530/530 562/562/562
f 563/563/563 533/533/533 562/562/562
f 532/532/532 566/566/566 565/565/565
f 529/529/529 567/567/567 566/566/566
f 529/529/529 527/527/527 567/567/567
f 531/531/531 532/532/532 565/565/565
f 446/446/446 568/568/568 505/505/505
f 508/508/508 570/570/570 569/569/569
f 507/507/507 508/508/508 569/569/569
f 569/569/569 472/472/472 473/473/473
f 570/570/570 472/472/472 569/569/569
f 572/572/572 571/571/571 456/456/456
f 456/456/456 454/454/454 557/557/557
f 572/572/572 456/456/456 557/557/557
f 453/453/453 451/451/451 457/457/457
f 573/573/573 453/453/453 457/457/457
f 574/574/574 471/471/471 573/573/573
f 575/575/575 473/473/473 574/574/574
f 576/576/576 569/569/569 575/575/575
f 577/577/577 507/507/507 569/569/569
f 577/577/577 578/578/578 480/480/480
f 579/579/579 481/481/481 480/480/480
f 579/579/579 581/581/581 580/580/580
f 481/481/481 579/579/579 580/580/580
f 481/481/481 580/580/580 478/478/478
f 458/458/458 571/571/571 457/457/457
f 573/573/573 457/457/457 571/571/571
f 572/572/572 573/573/573 571/571/571
f 573/573/573 572/572/572 557/557/557
f 574/574/574 573/573/573 558/558/558
f 544/544/544 574/574/574 558/558/558
f 575/575/575 574/574/574 543/543/543
f 564/564/564 513/513/513 576/576/576
f 577/577/577 576/576/576 582/582/582
f 582/582/582 485/485/485 577/577/577
f 577/577/577 485/485/485 578/578/578
f 579/579/579 578/578/578 483/483/483
f 581/581/581 483/483/483 486/486/486
f 578/578/578 485/485/485 483/483/483
f 573/573/573 557/557/557 558/558/558
f 574/574/574 544/544/544 543/543/543
f 576/576/576 513/513/513 514/514/514
f 581/581/581 579/579/579 483/483/483
f 510/510/510 490/490/490 509/509/509
f 510/510/510 485/485/485 582/582/582
f 564/564/564 576/576/576 575/575/575
f 564/564/564 546/546/546 545/545/545
f 510/510/510 582/582/582 583/583/583
f 584/584/584 521/521/521 522/522/522
f 585/585/585 584/584/584 522/522/522
f 544/544/544 538/538/538 536/536/536
f 555/555/555 557/557/557 454/454/454
f 537/537/537 535/535/535 534/534/534
f 555/555/555 559/559/559 558/558/558
f 509/509/509 490/490/490 488/488/488
f 509/509/509 488/488/488 484/484/484
f 484/484/484 488/488/488 491/491/491
f 510/510/510 585/585/585 490/490/490
f 584/584/584 585/585/585 510/510/510
f 485/485/485 509/509/509 484/484/484
f 569/569/569 473/473/473 575/575/575
f 564/564/564 575/575/575 543/543/543
f 506/506/506 482/482/482 438/438/438
f 508/508/508 482/482/482 506/506/506
f 586/586/586 508/508/508 506/506/506
f 586/586/586 587/587/587 570/570/570
f 508/508/508 586/586/586 570/570/570
f 587/587/587 588/588/588 472/472/472
f 570/570/570 587/587/587 472/472/472
f 588/588/588 589/589/589 474/474/474
f 472/472/472 588/588/588 474/474/474
f 589/589/589 590/590/590 452/452/452
f 474/474/474 589/589/589 452/452/452
f 452/452/452 590/590/590 451/451/451
f 479/479/479 481/481/481 478/478/478
f 479/479/479 438/438/438 480/480/480
f 584/584/584 510/510/510 583/583/583
f 584/584/584 583/583/583 521/521/521
f 521/521/521 583/583/583 591/591/591
f 521/521/521 591/591/591 520/520/520
f 591/591/591 592/592/592 520/520/520
f 520/520/520 592/592/592 526/526/526
f 526/526/526 592/592/592 468/468/468
f 592/592/592 593/593/593 468/468/468
f 468/468/468 593/593/593 467/467/467
f 467/467/467 593/593/593 476/476/476
f 476/476/476 593/593/593 463/463/463
f 459/459/459 463/463/463 593/593/593
f 462/462/462 459/459/459 593/593/593
f 592/592/592 462/462/462 593/593/593
f 523/523/523 462/462/462 592/592/592
f 591/591/591 523/523/523 592/592/592
f 515/515/515 523/523/523 591/591/591
f 518/518/518 515/515/515 591/591/591
f 583/583/583 518/518/518 591/591/591
f 511/511/511 518/518/518 583/583/583
f 514/514/514 511/511/511 583/583/583
f 514/514/514 583/583/583 582/582/582
f 564/564/564 543/543/543 546/546/546
f 543/543/543 536/536/536 546/546/546
f 546/546/546 536/536/536 542/542/542
f 542/542/542 536/536/536 541/541/541
f 536/536/536 534/534/534 541/541/541
f 541/541/541 534/534/534 563/563/563
f 563/563/563 534/534/534 533/533/533
f 534/534/534 529/529/529 533/533/533
f 533/533/533 529/529/529 532/532/532
f 532/532/532 529/529/529 566/566/566
f 537/537/537 534/534/534 536/536/536
f 446/446/446 449/449/449 450/450/450
f 446/446/446 504/504/504 445/445/445
f 446/446/446 594/594/594 568/568/568
f 446/446/446 450/450/450 594/594/594
f 446/446/446 447/447/447 595/595/595
f 467/467/467 476/476/476 477/477/477
f 577/577/577 569/569/569 576/576/576
f 576/576/576 514/514/514 582/582/582
f 473/473/473 471/471/471 574/574/574
f 472/472/472 474/474/474 471/471/471
f 474/474/474 452/452/452 453/453/453
f 471/471/471 453/453/453 573/573/573
f 507/507/507 577/577/577 480/480/480
f 579/579/579 480/480/480 578/578/578
f 446/446/446 595/595/595 449/449/449
g cPK_10_000840_00_FREEZERex_RR_L_SB_3
f 376/376/376 596/596/596 420/420/420
f 597/597/597 395/395/395 426/426/426
f 597/597/597 426/426/426 425/425/425
f 598/598/598 424/424/424 351/351/351
f 420/420/420 596/596/596 413/413/413
f 433/433/433 432/432/432 599/599/599
f 394/394/394 395/395/395 597/597/597
f 601/601/601 422/422/422 600/600/600
f 601/601/601 602/602/602 422/422/422
f 603/603/603 366/366/366 367/367/367
f 603/603/603 604/604/604 366/366/366
f 371/371/371 372/372/372 605/605/605
f 349/349/349 606/606/606 346/346/346
f 346/346/346 606/606/606 607/607/607
f 346/346/346 607/607/607 343/343/343
f 413/413/413 608/608/608 412/412/412
f 412/412/412 608/608/608 349/349/349
f 609/609/609 606/606/606 349/349/349
f 610/610/610 608/608/608 413/413/413
f 596/596/596 610/610/610 413/413/413
f 611/611/611 432/432/432 431/431/431
f 611/611/611 599/599/599 432/432/432
f 612/612/612 611/611/611 431/431/431
f 613/613/613 422/422/422 602/602/602
f 613/613/613 614/614/614 422/422/422
f 615/615/615 376/376/376 377/377/377
f 615/615/615 596/596/596 376/376/376
f 604/604/604 615/615/615 377/377/377
f 370/370/370 617/617/617 616/616/616
f 370/370/370 616/616/616 372/372/372
f 618/618/618 387/387/387 597/597/597
f 618/618/618 386/386/386 387/387/387
f 618/618/618 359/359/359 386/386/386
f 620/620/620 619/619/619 399/399/399
f 399/399/399 619/619/619 352/352/352
f 399/399/399 400/400/400 620/620/620
f 620/620/620 400/400/400 621/621/621
f 400/400/400 404/404/404 621/621/621
f 404/404/404 622/622/622 621/621/621
f 405/405/405 622/622/622 404/404/404
f 405/405/405 623/623/623 622/622/622
f 342/342/342 607/607/607 624/624/624
f 343/343/343 607/607/607 342/342/342
f 342/342/342 625/625/625 415/415/415
f 342/342/342 624/624/624 625/625/625
f 405/405/405 415/415/415 623/623/623
f 415/415/415 625/625/625 623/623/623
f 626/626/626 597/597/597 424/424/424
f 352/352/352 619/619/619 627/627/627
f 598/598/598 626/626/626 424/424/424
f 597/597/597 425/425/425 424/424/424
f 628/628/628 359/359/359 618/618/618
f 431/431/431 629/629/629 612/612/612
f 631/631/631 630/630/630 358/358/358
f 423/423/423 358/358/358 630/630/630
f 632/632/632 430/430/430 429/429/429
f 632/632/632 629/629/629 430/430/430
f 359/359/359 631/631/631 358/358/358
f 359/359/359 628/628/628 631/631/631
f 430/430/430 629/629/629 431/431/431
f 422/422/422 423/423/423 633/633/633
f 614/614/614 429/429/429 422/422/422
f 423/423/423 630/630/630 633/633/633
f 429/429/429 614/614/614 632/632/632
f 372/372/372 616/616/616 605/605/605
f 371/371/371 605/605/605 418/418/418
f 634/634/634 367/367/367 418/418/418
f 634/634/634 603/603/603 367/367/367
f 636/636/636 635/635/635 418/418/418
f 368/368/368 617/617/617 370/370/370
f 368/368/368 599/599/599 617/617/617
f 604/604/604 377/377/377 366/366/366
f 362/362/362 599/599/599 368/368/368
f 362/362/362 363/363/363 599/599/599
f 363/363/363 433/433/433 599/599/599
f 387/387/387 394/394/394 597/597/597
f 605/605/605 636/636/636 418/418/418
f 637/637/637 418/418/418 635/635/635
f 637/637/637 634/634/634 418/418/418
f 600/600/600 422/422/422 633/633/633
f 352/352/352 638/638/638 351/351/351
f 352/352/352 627/627/627 638/638/638
f 598/598/598 351/351/351 639/639/639
f 639/639/639 351/351/351 638/638/638
f 608/608/608 609/609/609 349/349/349
f 640/640/640 588/588/588 587/587/587
f 487/487/487 491/491/491 641/641/641
f 642/642/642 587/587/587 586/586/586
f 580/580/580 643/643/643 478/478/478
f 642/642/642 586/586/586 506/506/506
f 644/644/644 439/439/439 437/437/437
f 440/440/440 441/441/441 645/645/645
f 443/443/443 440/440/440 646/646/646
f 644/644/644 442/442/442 444/444/444
f 491/491/491 494/494/494 641/641/641
f 496/496/496 498/498/498 647/647/647
f 498/498/498 501/501/501 647/647/647
f 497/497/497 648/648/648 500/500/500
f 503/503/503 505/505/505 649/649/649
f 500/500/500 648/648/648 502/502/502
f 505/505/505 568/568/568 649/649/649
f 504/504/504 650/650/650 445/445/445
f 445/445/445 650/650/650 447/447/447
f 449/449/449 651/651/651 448/448/448
f 450/450/450 448/448/448 652/652/652
f 450/450/450 652/652/652 594/594/594
f 653/653/653 590/590/590 589/589/589
f 545/545/545 512/512/512 513/513/513
f 559/559/559 538/538/538 544/544/544
f 455/455/455 654/654/654 554/554/554
f 655/655/655 654/654/654 455/455/455
f 456/456/456 655/655/655 455/455/455
f 516/516/516 530/530/530 524/524/524
f 525/525/525 469/469/469 495/495/495
f 530/530/530 461/461/461 524/524/524
f 461/461/461 656/656/656 460/460/460
f 477/477/477 648/648/648 466/466/466
f 477/477/477 657/657/657 648/648/648
f 465/465/465 658/658/658 464/464/464
f 470/470/470 658/658/658 475/475/475
f 460/460/460 656/656/656 465/465/465
f 545/545/545 539/539/539 512/512/512
f 540/540/540 517/517/517 539/539/539
f 539/539/539 517/517/517 512/512/512
f 562/562/562 516/516/516 517/517/517
f 540/540/540 562/562/562 517/517/517
f 562/562/562 530/530/530 516/516/516
f 537/537/537 659/659/659 535/535/535
f 535/535/535 659/659/659 528/528/528
f 659/659/659 660/660/660 527/527/527
f 528/528/528 659/659/659 527/527/527
f 527/527/527 660/660/660 567/567/567
f 567/567/567 661/661/661 566/566/566
f 531/531/531 656/656/656 461/461/461
f 530/530/530 531/531/531 461/461/461
f 566/566/566 661/661/661 565/565/565
f 556/556/556 550/550/550 537/537/537
f 554/554/554 654/654/654 560/560/560
f 560/560/560 654/654/654 549/549/549
f 556/556/556 537/537/537 538/538/538
f 559/559/559 556/556/556 538/538/538
f 551/551/551 662/662/662 561/561/561
f 553/553/553 659/659/659 552/552/552
f 552/552/552 659/659/659 537/537/537
f 550/550/550 552/552/552 537/537/537
f 654/654/654 662/662/662 551/551/551
f 549/549/549 654/654/654 551/551/551
f 455/455/455 554/554/554 454/454/454
f 475/475/475 658/658/658 657/657/657
f 475/475/475 657/657/657 477/477/477
f 643/643/643 486/486/486 663/663/663
f 580/580/580 581/581/581 643/643/643
f 487/487/487 641/641/641 663/663/663
f 486/486/486 487/487/487 663/663/663
f 665/665/665 664/664/664 458/458/458
f 458/458/458 664/664/664 571/571/571
f 665/665/665 458/458/458 451/451/451
f 666/666/666 665/665/665 451/451/451
f 664/664/664 655/655/655 456/456/456
f 664/664/664 456/456/456 571/571/571
f 478/478/478 667/667/667 645/645/645
f 441/441/441 478/478/478 645/645/645
f 478/478/478 643/643/643 667/667/667
f 642/642/642 506/506/506 439/439/439
f 642/642/642 439/439/439 644/644/644
f 640/640/640 587/587/587 642/642/642
f 668/668/668 653/653/653 589/589/589
f 668/668/668 589/589/589 640/640/640
f 640/640/640 589/589/589 588/588/588
f 669/669/669 590/590/590 653/653/653
f 669/669/669 666/666/666 590/590/590
f 666/666/666 451/451/451 590/590/590
f 561/561/561 659/659/659 553/553/553
f 662/662/662 659/659/659 561/561/561
f 660/660/660 661/661/661 567/567/567
f 531/531/531 661/661/661 656/656/656
f 565/565/565 661/661/661 531/531/531
f 656/656/656 658/658/658 465/465/465
f 464/464/464 658/658/658 470/470/470
f 648/648/648 670/670/670 502/502/502
f 502/502/502 670/670/670 504/504/504
f 670/670/670 650/650/650 504/504/504
f 447/447/447 650/650/650 595/595/595
f 595/595/595 650/650/650 651/651/651
f 595/595/595 651/651/651 449/449/449
f 448/448/448 651/651/651 652/652/652
f 568/568/568 594/594/594 671/671/671
f 649/649/649 568/568/568 671/671/671
f 594/594/594 652/652/652 671/671/671
f 501/501/501 649/649/649 647/647/647
f 501/501/501 503/503/503 649/649/649
f 494/494/494 496/496/496 647/647/647
f 494/494/494 647/647/647 641/641/641
f 440/440/440 645/645/645 646/646/646
f 444/444/444 443/443/443 646/646/646
f 644/644/644 444/444/444 672/672/672
f 672/672/672 444/444/444 646/646/646
f 644/644/644 437/437/437 442/442/442
f 522/522/522 493/493/493 489/489/489
f 522/522/522 519/519/519 493/493/493
f 466/466/466 648/648/648 495/495/495
f 469/469/469 466/466/466 495/495/495
f 495/495/495 648/648/648 497/497/497
f 525/525/525 495/495/495 493/493/493
f 519/519/519 525/525/525 493/493/493
f 489/489/489 490/490/490 585/585/585
f 581/581/581 486/486/486 643/643/643
f 489/489/489 585/585/585 522/522/522
