g cPK_10_001460_00_KAIRIKYex_RR_L_SB
v 0.14733124 0.32386294 -0.007612546
v 0.14028056 0.32504869 -0.00761254
v 0.13941136 0.29069263 -0.0072589326
v 0.14555775 0.29214528 -0.007258938
v 0.14213315 0.2719383 -0.006895578
v 0.14926235 0.24527667 -0.0068768295
v 0.15944217 0.26360914 -0.006271659
v 0.1503827 0.27705938 -0.006895581
v 0.18033881 0.36976415 -0.0062815784
v 0.15537341 0.35932285 -0.0071885884
v 0.15949641 0.34656256 -0.007188599
v 0.18174477 0.3465625 -0.006226261
v 0.14664087 0.34356403 -0.007474472
v 0.15253794 0.33963183 -0.0074744853
v 0.25855026 0.33354756 -0.0062815784
v 0.23585704 0.3494359 -0.0062815784
v 0.22275665 0.32878262 -0.006384519
v 0.24152032 0.31369662 -0.00648125
v 0.3237984 0.23394115 -0.0062815784
v 0.31200156 0.26282647 -0.0062815784
v 0.29822975 0.23945633 -0.006196177
v 0.32402727 0.20427144 -0.0062815784
v 0.30183193 0.22525099 -0.0061690905
v 0.30022365 0.21509914 -0.0061453977
v 0.27781233 0.19573598 -0.0061453977
v 0.2866716 0.17086464 -0.0062815784
v 0.2618923 0.19377777 -0.0061762
v 0.24394403 0.20145066 -0.008156994
v 0.2404087 0.17360689 -0.0062815784
v 0.2604415 0.16980219 -0.0062815784
v 0.2165915 0.20674801 -0.008404638
v 0.2069416 0.21833184 -0.009288669
v 0.182085 0.20675085 -0.0062815784
v 0.2127271 0.18252806 -0.0062815784
v 0.17398262 0.2587739 -0.0064953244
v 0.18079944 0.23386502 -0.0070258095
v 0.22918995 0.20324588 -0.008428498
v 0.22306645 0.20238088 -0.008522975
v 0.2106376 0.3618333 -0.0062815784
v 0.20265277 0.33928892 -0.0063648135
v 0.28725928 0.30218396 -0.0062815784
v 0.26957926 0.28432858 -0.0063066967
v 0.28172812 0.26924694 -0.0062682675
v 0.29174402 0.2541089 -0.006262438
v 0.233041 0.20798123 -0.008279431
v 0.20426111 0.22641368 -0.009294191
v 0.19032238 0.25766313 -0.0071063326
v 0.20738311 0.25954446 -0.007819751
v 0.20510697 0.25231716 -0.008244097
v -0.18079172 0.07004308 -0.00856176
v -0.16336255 0.02726507 -0.00738961
v -0.14878683 0.05365734 -0.00830656
v -0.14405794 0.34246254 -0.006333248
v -0.12849888 0.3431773 -0.006063193
v -0.124016635 0.36038893 -0.0060632005
v 0.1641374 0.36805174 -0.008487563
v 0.14474307 0.3722292 -0.008720899
v 0.14725456 0.3486266 -0.008646977
v 0.103925586 0.0206651 -0.0062550376
v 0.071144946 0.0066694557 -0.006500204
v 0.08121151 -0.020445533 -0.0061335536
v -0.024061903 0.32736924 -0.007502842
v -0.045792107 0.30734226 -0.00770242
v -0.029977236 0.29976627 -0.008163846
v -0.053696252 0.36686233 -0.0071630063
v -0.07038202 0.3740654 -0.0066286065
v -0.074728385 0.3510147 -0.0060988097
v -0.06625225 0.34654137 -0.00617904
v 0.066526674 0.36973634 -0.010143387
v 0.044505566 0.3592489 -0.010143387
v 0.057356443 0.33638605 -0.010325378
v 0.072038315 0.3452321 -0.010045448
v 0.16958599 0.31294733 -0.009649819
v 0.17030726 0.29765218 -0.00949186
v 0.1815014 0.29789427 -0.010798027
v 0.11455742 0.21838167 -0.007951959
v 0.09973069 0.19926603 -0.0077442126
v 0.12937108 0.19123681 -0.008041452
v 0.10348594 0.17275532 -0.0073909685
v 0.13199526 0.13605992 -0.0069740787
v -0.15962915 0.24651258 -0.008473826
v -0.17722566 0.22346048 -0.009352469
v -0.15441415 0.23299666 -0.010212399
v -0.17084645 0.14486878 -0.01056488
v -0.17760766 0.17380492 -0.0105550485
v -0.18607341 0.17308329 -0.009840575
v -0.1765042 0.20276241 -0.010993272
v -0.1857255 0.20433073 -0.010665724
v -0.16548795 0.31790105 -0.0072527616
v -0.16602333 0.29438132 -0.008122436
v -0.14712924 0.3010036 -0.007739506
v -0.14628549 0.31468114 -0.007911208
v -0.15915214 0.2708616 -0.00902983
v -0.14376453 0.26100227 -0.008592847
v -0.14318684 0.2713098 -0.008396379
v -0.10698012 0.3534505 -0.0060632005
v -0.09012432 0.3547811 -0.0060632005
v -0.09540799 0.37447906 -0.006063193
v -0.11719819 -0.0047579976 -0.0073549026
v -0.09579905 0.0010405664 -0.0064054043
v -0.10383886 0.009453429 -0.0072331303
v -0.13334045 0.030183742 -0.0066604055
v -0.1421763 0.04079367 -0.006790099
v 0.15445626 0.26057857 -0.008905968
v 0.15277867 0.23333816 -0.009212183
v 0.16932352 0.24825919 -0.010361026
v 0.16034374 0.26658115 -0.008866201
v 0.16890003 0.28485328 -0.009246646
v 0.17743443 0.27042243 -0.011263939
v 0.15797427 0.3457681 -0.009165108
v 0.16553514 0.3326542 -0.0095100645
v 0.18346266 0.33926746 -0.010347736
v 0.10062408 0.08313637 -0.0063215992
v 0.11699293 0.048192795 -0.006135434
v 0.12850204 0.09155381 -0.006524347
v 0.09133371 0.05347864 -0.006135434
v 0.079363324 0.032039296 -0.0061354334
v -0.14498337 0.007981524 -0.008588815
v -0.119003594 0.01832315 -0.006906715
v -0.15486129 0.07581126 -0.009476759
v -0.17662132 0.1114585 -0.011213973
v -0.1584345 0.09653593 -0.010224778
v -0.16111442 0.112794094 -0.010679187
v -0.16928391 0.21923976 -0.010876101
v -0.14786603 0.24318913 -0.010095119
v -0.14641511 0.28801405 -0.00889841
v -0.14289099 0.32468605 -0.0067064203
v -0.13676737 0.33538547 -0.0060393824
v -0.036104757 0.35081947 -0.007481292
v -0.05952855 0.3407314 -0.0064076036
v -0.053460877 0.3326673 -0.006830352
v 0.10590323 0.13894273 -0.006437894
v 0.104379214 0.10573651 -0.0063330904
v 0.13474828 0.25179237 -0.008579646
v 0.14572692 0.25595108 -0.008472894
v 0.1659223 0.27439532 -0.009128182
v 0.12534879 0.3684767 -0.009099362
v 0.11277296 0.350056 -0.009521564
v 0.12456465 0.3457681 -0.009554057
v 0.09760719 0.37515828 -0.009614649
v 0.08615246 0.3504133 -0.009904764
v 0.09947213 0.35147473 -0.009664363
v 0.13403371 0.3482693 -0.008735669
v 0.02624078 0.34333572 -0.010143387
v 0.017211495 0.3153064 -0.00971565
v 0.03684203 0.3220062 -0.010885422
v 0.00025471355 0.3380654 -0.009780968
v -0.0036582411 0.3107505 -0.009203863
v 0.046905555 0.3274846 -0.010445562
v -0.016024932 0.3064403 -0.008772335
v -0.04695684 0.31688365 -0.0074599623
v -0.049351692 0.32498872 -0.0070899427
v -0.11108106 -0.01996225 -0.0062000863
v -0.100023225 -0.02031164 -0.0062000863
v 0.06336543 -0.020522159 -0.0061335536
v -0.11826563 0.34993696 -0.006063193
v 0.26669022 0.26622984 -0.011520858
v 0.27271 0.25535905 -0.01175042
v 0.17437509 0.33472466 -0.00935997
v 0.2447973 0.2473479 -0.011398847
v 0.16714165 0.31313533 -0.009205128
v 0.26812747 0.20353866 -0.008053518
v 0.27853617 0.21939206 -0.0077066184
v 0.2683905 0.23333633 -0.011888917
v 0.26049992 0.2162075 -0.011547155
v 0.20236622 0.3225614 -0.010181711
v 0.19063362 0.30102482 -0.011032797
v 0.2559702 0.20147029 -0.0080980575
v 0.24705155 0.21305521 -0.010930848
v 0.16193765 0.28655273 -0.008377011
v 0.1764192 0.26590982 -0.009290511
v 0.1820308 0.28117272 -0.01037436
v 0.15980794 0.27161154 -0.008102231
v 0.22841302 0.30550113 -0.009607347
v 0.21143086 0.28899324 -0.010687671
v 0.19412626 0.26480347 -0.009465941
v 0.20070815 0.27636155 -0.010322483
v 0.24877124 0.28628153 -0.009359124
v 0.2283101 0.27896908 -0.0097846985
v 0.21727012 0.27352354 -0.009635933
v 0.2114714 0.26675078 -0.008773388
v 0.29128143 0.24422708 -0.006722541
v 0.21572939 0.25783622 -0.011047143
v 0.23616476 0.27789247 -0.010788214
v 0.22094004 0.21632932 -0.011358581
v 0.23512085 0.24416225 -0.0108539015
v 0.22792017 0.25458252 -0.011998906
v 0.22052348 0.22381811 -0.01204097
v 0.21341017 0.21691695 -0.010681175
v 0.21187066 0.22470228 -0.011324604
v 0.23335634 0.21430428 -0.010624147
v 0.22467665 0.22033115 -0.010324219
v 0.22704387 0.2127183 -0.009953781
v 0.24745147 0.27478442 -0.011279392
v -0.13717265 0.29070923 -0.013072798
v 0.13858484 0.33964387 -0.011203361
v 0.033453256 0.13197827 -0.013923901
v 0.03696295 0.10758044 -0.014385313
v 0.07601423 0.13289481 -0.011405743
v 0.024592314 -0.020483058 -0.007970548
v 0.04987758 -0.020508556 -0.0072791213
v 0.05560127 0.0022622214 -0.008495696
v 0.027595757 -0.009685101 -0.010115357
v -0.01816907 -0.020424237 -0.008422175
v -0.01745613 -0.013943811 -0.01134433
v -0.046283964 -0.0076225945 -0.011363617
v -0.06093045 -0.020365415 -0.008495696
v -0.13721661 0.1325541 -0.015604657
v -0.1409974 0.16404794 -0.018215444
v 0.00066772656 0.2966666 -0.0148568945
v -0.056792296 0.31179705 -0.010071868
v -0.03854176 0.29429573 -0.010211899
v 0.10898484 0.34756312 -0.012069578
v 0.010485601 0.21256255 -0.015500383
v -0.0432505 0.224523 -0.0142987985
v -0.035465743 0.19072919 -0.013727573
v -0.12880269 0.088870846 -0.014302969
v -0.13393301 0.1071597 -0.013143121
v -0.057302605 0.08023903 -0.015523474
v -0.08031013 0.078959264 -0.016150402
v -0.07272672 0.02924611 -0.0112382015
v -0.05073406 0.027305037 -0.013292578
v -0.11576785 0.02838612 -0.00993384
v 0.15505035 0.31258747 -0.012936075
v 0.15627772 0.29703084 -0.012844364
v -0.07403421 0.09833891 -0.015061428
v -0.05153947 0.10080936 -0.013742119
v -0.065986 0.004810732 -0.009513319
v 0.03595751 0.03274972 -0.012246891
v 0.06641076 0.039848533 -0.009980224
v 0.03908519 0.08227146 -0.014259556
v -0.025786543 0.08327573 -0.015261637
v -0.017350644 0.026842803 -0.013529374
v 0.011041415 0.12999904 -0.011039189
v 0.07191212 0.18759112 -0.011630048
v 0.07350051 0.16400313 -0.011487733
v 0.076743245 0.10653211 -0.011159487
v 0.039905895 0.18951719 -0.014185371
v 0.03412107 0.16361015 -0.014107786
v 0.07463284 0.08255859 -0.010796467
v 0.008416099 0.16966921 -0.014175463
v -0.029368052 0.14880462 -0.012658617
v -0.13558455 0.20987599 -0.019239051
v -0.104912914 0.16784886 -0.022398237
v -0.07474255 0.17517978 -0.023333123
v -0.08884206 0.2353131 -0.021308677
v -0.09552046 0.09919724 -0.0153451385
v 0.1400792 0.31088075 -0.015222484
v 0.0949302 0.2186489 -0.011889583
v 0.11600488 0.2506784 -0.012245396
v 0.091234624 0.2584031 -0.015054779
v 0.06821867 0.2234329 -0.01542573
v 0.06749099 0.270229 -0.017033903
v 0.04062214 0.2397604 -0.017784523
v 0.046183288 0.29495737 -0.016759276
v 0.014662677 0.2706802 -0.018264364
v 0.148917 0.3271629 -0.012374635
v 0.15320952 0.28519592 -0.012251203
v -0.073018976 0.31215736 -0.012086838
v -0.06851381 0.26770076 -0.01606809
v -0.050398003 0.28371006 -0.0117864935
v -0.11343961 0.28726146 -0.016207999
v -0.12972526 0.27130815 -0.011186439
v -0.11832394 0.24288121 -0.0131864175
v -0.095085524 0.2536243 -0.015218757
v -0.06848851 0.3443037 -0.008566642
v -0.11496134 0.3427389 -0.009673043
v -0.13374315 0.32812086 -0.010304165
v -0.14277795 0.31175208 -0.0117365
v -0.09615691 0.30221757 -0.01654915
v -0.05915382 0.328446 -0.009384924
v -0.07877644 0.33183718 -0.011904684
v -0.10722548 0.32565138 -0.013993311
v -0.12587689 0.31052992 -0.015267298
v -0.08912105 0.3485854 -0.009226273
v -0.029640604 0.10841357 -0.012387131
v -0.08300446 0.12591316 -0.019474765
v -0.062405568 0.13220808 -0.01902791
v -0.0522318 0.25376388 -0.015268385
v -0.10378953 0.12644276 -0.018320201
v -0.016857922 0.24640302 -0.01677268
v -0.029407872 0.27714822 -0.014303322
v 0.03956329 0.31412646 -0.013267234
v 0.14699785 0.27009597 -0.011223038
v 0.14206952 0.2840323 -0.014289332
v 0.13950555 0.26569587 -0.012259873
v 0.12450196 0.33794972 -0.01417721
v 0.13085936 0.25998494 -0.012591243
v 0.12220595 0.27821454 -0.01604591
v 0.09990897 0.26698202 -0.016096335
v 0.10979215 0.3039221 -0.018180838
v 0.08441656 0.2863394 -0.01841113
v 0.093411736 0.32926527 -0.017471727
v 0.06777128 0.3139787 -0.017853722
v 0.07825406 0.34214348 -0.014105955
v 0.059740495 0.33040407 -0.013933035
v 0.013996166 0.13351679 -0.027017927
v 0.025928909 0.13403259 -0.027400171
v 0.025950892 0.13938503 -0.030008761
v 0.009625122 0.13946491 -0.030634478
v 0.037331358 0.13697246 -0.02770941
v 0.03390732 0.14162533 -0.029503942
v 0.06161009 0.2098438 -0.02999003
v 0.054964837 0.21279542 -0.030070772
v 0.037067603 0.2105995 -0.03195912
v 0.037026696 0.19010332 -0.031031758
v 0.043040767 0.20273362 -0.03127067
v 0.02966637 0.20584635 -0.03262147
v 0.02026704 0.19176829 -0.032885607
v 0.02999627 0.16360444 -0.030600308
v 0.012833615 0.16552864 -0.031934593
v 0.053583473 0.15186101 -0.027094586
v 0.062388223 0.17848901 -0.027978221
v 0.06580275 0.19516133 -0.029342521
v 0.046619922 0.14351615 -0.02719492
v 0.002016499 0.13592398 -0.027451918
v -0.0009485991 0.16745284 -0.028004447
v -0.004768975 0.14244232 -0.028027741
v 0.007129279 0.1931918 -0.028765947
v 0.015627963 0.20547305 -0.029176338
v 0.025672605 0.21225856 -0.029483367
v 0.034068868 0.21420108 -0.029799033
v 0.065354906 0.2037733 -0.029912388
v -0.281171 0.20492998 -0.027346397
v -0.26093867 0.21646388 -0.02951314
v -0.28312972 0.22848876 -0.027763262
v -0.21085265 0.123632364 -0.02319705
v -0.2145442 0.13441232 -0.023438942
v -0.2363228 0.13091503 -0.024259182
v -0.2303288 0.114828885 -0.02437642
v -0.123751484 0.08749328 -0.019710498
v -0.14325337 0.08885388 -0.019391438
v -0.14666294 0.06825202 -0.019391438
v -0.120267704 0.07239449 -0.019970672
v -0.05238344 0.1660129 -0.020985328
v -0.06371059 0.14890854 -0.021082824
v -0.063494 0.11942698 -0.02113649
v -0.078499384 0.2403012 -0.020815011
v -0.07205115 0.20513073 -0.020656038
v -0.060774762 0.20880614 -0.020497015
v -0.061852295 0.23940897 -0.020910047
v -0.10159625 0.28446856 -0.023929564
v -0.09154087 0.27183196 -0.02242478
v -0.07966889 0.27823913 -0.022206454
v -0.08920825 0.29442048 -0.02359664
v -0.17318113 0.2860972 -0.030121107
v -0.16516005 0.29273087 -0.03003988
v -0.17297518 0.31477734 -0.029377896
v -0.18513334 0.30854616 -0.029779864
v -0.24732171 0.29532108 -0.030494247
v -0.25956297 0.27413318 -0.030061124
v -0.23770265 0.26922473 -0.03262871
v -0.23315476 0.2762127 -0.032209914
v -0.21431886 0.14359502 -0.02446614
v -0.24058698 0.14887178 -0.025603656
v -0.19048084 0.11997787 -0.021923034
v -0.2052931 0.118935876 -0.022838533
v -0.21885104 0.10228964 -0.023097392
v -0.1983765 0.09860124 -0.021099668
v -0.094273835 0.098600015 -0.020523766
v -0.10765181 0.09111987 -0.020148614
v -0.10356083 0.07900698 -0.020305268
v -0.08830911 0.09144696 -0.020523766
v -0.06120632 0.17662054 -0.021132663
v -0.060555745 0.1665391 -0.021221863
v -0.053301137 0.17838077 -0.02089612
v -0.08484493 0.2586219 -0.021522764
v -0.12407296 0.29701957 -0.026902009
v -0.112368636 0.29214475 -0.025341881
v -0.104305975 0.30957422 -0.026067084
v -0.120209254 0.3165322 -0.026856227
v -0.2727782 0.18487965 -0.027346397
v -0.25458026 0.2015342 -0.028102133
v -0.25980493 0.20966399 -0.028820923
v -0.14188574 0.2993072 -0.02837412
v -0.14659223 0.31956586 -0.027870238
v -0.22604552 0.2827547 -0.031788394
v -0.17715292 0.11061432 -0.020790378
v -0.1553829 0.09281909 -0.019531356
v -0.16715911 0.07413043 -0.019531356
v -0.07046358 0.124778114 -0.02113649
v -0.08032883 0.11106642 -0.020990198
v -0.064575665 0.18799224 -0.020903653
v -0.24669261 0.16136856 -0.026313413
v -0.22378659 0.17466576 -0.027177898
v -0.24744911 0.1934138 -0.027611181
v -0.21858113 0.16142428 -0.02601226
v -0.2609045 0.25015163 -0.029914254
v -0.24240461 0.23110712 -0.030875772
v -0.23278244 0.23058534 -0.03139405
v -0.2728169 0.24330841 -0.02856535
v -0.25802082 0.22527371 -0.03013038
v -0.2514149 0.22991388 -0.030460317
v -0.2389349 0.24893211 -0.031988967
v -0.23984182 0.25998718 -0.032516222
v -0.22043693 0.30872217 -0.030100176
v -0.21615605 0.2862423 -0.031246046
v -0.17746542 0.28071782 -0.030214418
v -0.19129755 0.28567722 -0.030754942
v -0.20297387 0.2870372 -0.030852769
v -0.15427887 0.29763278 -0.029349832
v -0.2120318 0.14859939 -0.025175575
v 0.123756945 0.0872764 -0.022253554
v 0.0862814 0.044521585 -0.022085551
v 0.096548654 0.04438624 -0.021955369
v 0.130899 0.08094509 -0.022032095
v 0.1040674 -0.038242664 -0.017650958
v 0.11739405 -0.015861789 -0.018466609
v 0.10391833 -0.006620597 -0.019253667
v 0.22451678 -0.01825196 -0.018914923
v 0.20485842 -0.025420332 -0.017952153
v 0.20940773 -0.050719667 -0.014985523
v 0.2341703 -0.04158419 -0.015891938
v 0.17568016 -0.027183771 -0.017091539
v 0.14312468 -0.0244986 -0.017557252
v 0.13366675 -0.051154654 -0.016021442
v 0.17604247 -0.052438892 -0.014547134
v 0.2726114 -0.0032679283 -0.017103223
v 0.28106484 0.021926211 -0.017028859
v 0.25523946 0.029426659 -0.02060282
v 0.24731445 0.009919455 -0.020267513
v 0.28076077 0.043617368 -0.017830133
v 0.27156025 0.07032558 -0.018651607
v 0.24968834 0.05726936 -0.020713344
v 0.2553717 0.041979313 -0.020552348
v 0.2562295 0.0909036 -0.019332385
v 0.23904979 0.10640605 -0.020339072
v 0.22368918 0.08720577 -0.0216935
v 0.2386661 0.07283755 -0.020920208
v 0.16801421 0.119621925 -0.023184424
v 0.14272295 0.10091906 -0.022464076
v 0.1459106 0.09058306 -0.022207614
v 0.17149596 0.09928195 -0.022733267
v 0.08997496 0.027795464 -0.021556942
v 0.19745517 0.12270347 -0.022302313
v 0.19266751 0.10060012 -0.0226583
v 0.077314906 0.01155947 -0.020899745
v 0.076898105 -0.010115408 -0.020271298
v 0.09434004 0.002620593 -0.020245327
v 0.09002367 0.012884609 -0.020710606
v 0.23687994 -0.009854729 -0.019537764
v 0.25464687 -0.025435245 -0.016685912
v 0.21934715 0.11751039 -0.021426538
v 0.20828442 0.09639857 -0.022362575
v -0.026055465 0.1333754 -0.027115876
v -0.012038313 0.11493125 -0.02687998
v -0.027445143 0.1708975 -0.028332472
v 0.077048905 0.22477765 -0.03024295
v 0.05880816 0.23397382 -0.03139439
v 0.046029616 0.11563349 -0.027663697
v 0.06116075 0.14806496 -0.027767068
v 0.018315015 0.10877309 -0.027114129
v 0.078703836 0.19201128 -0.029682083
v 0.005989873 0.23165803 -0.03221916
v -0.015430416 0.2036891 -0.02876984
v 0.030288277 0.23596346 -0.03260747
v 0.012148852 0.13447154 -0.0358582
v 0.0055168164 0.113531195 -0.033057872
v 0.027251396 0.1188033 -0.03448558
v -0.016489571 0.036321376 -0.023492193
v -0.009136755 0.0050308714 -0.0199232
v 0.015454905 0.018212479 -0.024534611
v 0.014628599 0.025635973 -0.02492512
v 0.023300542 0.012727718 -0.024094392
v 0.0102203805 -0.008310824 -0.019343678
v 0.12749027 -0.0125642335 -0.023423715
v 0.0928247 -0.01275415 -0.0228376
v 0.09116871 -0.038427316 -0.01935991
v 0.12987922 -0.03556366 -0.020219376
v 0.17470148 0.011016483 -0.02646493
v 0.15068108 -0.006291467 -0.024430767
v 0.15810029 -0.030468216 -0.021547567
v 0.18943338 -0.0072867186 -0.025152683
v 0.23220284 0.05922615 -0.031171093
v 0.20243393 0.06846236 -0.031381506
v 0.1980229 0.050397426 -0.030033145
v 0.19566701 0.14175598 -0.03722311
v 0.224388 0.14868538 -0.03611674
v 0.20566557 0.20574374 -0.04001506
v 0.19021845 0.17047806 -0.039512243
v 0.18097919 0.19177055 -0.041287582
v 0.1720586 0.20019387 -0.04177167
v 0.18754564 0.2249666 -0.040733576
v 0.146524 0.24316883 -0.040449765
v 0.12894551 0.21540819 -0.0409397
v 0.1018553 0.25302154 -0.040459197
v 0.09546755 0.22495328 -0.039441492
v 0.19843973 0.10974387 -0.03480847
v 0.19087872 0.032476157 -0.028855786
v 0.21384795 0.019019296 -0.028594619
v 0.07563051 -0.008739262 -0.022853307
v 0.067442335 -0.031899203 -0.01854713
v 0.0490693 0.0015980139 -0.02306731
v 0.041460376 0.23265707 -0.039110057
v 0.024701297 0.21783935 -0.038825933
v 0.04759447 0.20101802 -0.03613488
v 0.058621075 0.21184914 -0.03682576
v 0.021969995 0.19026841 -0.037536275
v 0.039837983 0.18484825 -0.035634093
v 0.016699625 0.03917126 -0.02592565
v -0.011158116 0.065903224 -0.02670995
v 0.021450173 0.06877041 -0.030160353
v 0.021289548 0.07583257 -0.030335406
v 0.024011573 0.061948348 -0.030134767
v 0.08018115 0.25272283 -0.039969884
v 0.070635475 0.22095168 -0.03762097
v 0.033046942 0.10306507 -0.03465924
v 0.029037913 0.11019333 -0.03469424
v 0.02496304 0.09139133 -0.031973418
v 0.027785528 0.13119046 -0.034295157
v 0.023800602 0.16268913 -0.035482496
v 0.03414151 0.14802797 -0.03471667
v 0.039999377 0.15826261 -0.035565596
v 0.03835196 0.17064355 -0.03523266
v 0.03039412 0.057121027 -0.03010641
v 0.021554528 0.048418652 -0.027550159
v 0.08159798 0.22577992 -0.038294908
v -0.19540343 0.18321064 -0.030713687
v -0.17425431 0.1600327 -0.029042184
v -0.18977834 0.18442617 -0.029846508
v -0.17709468 0.12826277 -0.02841316
v -0.1614834 0.13010354 -0.030118722
v -0.17382777 0.15101026 -0.028643895
v -0.18635331 0.14554821 -0.027364109
v -0.12589517 0.11431699 -0.025805974
v -0.11331327 0.12269839 -0.026193097
v -0.13834316 0.14800821 -0.027022986
v -0.18334119 0.15260437 -0.028077424
v -0.19752091 0.1597766 -0.027585972
v -0.08647477 0.23716684 -0.021724408
v -0.09070139 0.2454969 -0.022114165
v -0.081026316 0.22832084 -0.021250186
v -0.084878795 0.2274618 -0.02297805
v -0.12850536 0.18255952 -0.03034391
v -0.11645385 0.19444694 -0.029507054
v -0.12673546 0.20651689 -0.028505227
v -0.14085607 0.19265133 -0.029898843
v -0.17891861 0.15640871 -0.028596157
v -0.16756576 0.15698197 -0.029329518
v -0.16947185 0.16374855 -0.02909045
v -0.22884122 0.201648 -0.029175565
v -0.25905606 0.21801047 -0.03013038
v -0.16793431 0.1126953 -0.02331086
v -0.16049938 0.113186255 -0.023817834
v -0.16966371 0.12164181 -0.024579989
v -0.17797129 0.12113245 -0.02436858
v -0.15137795 0.09913642 -0.02226868
v -0.14793892 0.10497319 -0.022843026
v -0.12635249 0.095190465 -0.022643112
v -0.13345058 0.103275634 -0.022963768
v -0.13919532 0.09578984 -0.022386443
v -0.10103001 0.10643365 -0.023365255
v -0.10664194 0.1148361 -0.02406497
v -0.11818888 0.10690614 -0.023622282
v -0.11352217 0.09919724 -0.02309152
v -0.087367386 0.11785757 -0.023578143
v -0.07121548 0.15047665 -0.023568967
v -0.078066975 0.130944 -0.023578143
v -0.069247216 0.1671787 -0.023628917
v -0.07157759 0.185629 -0.023568423
v -0.09206612 0.24168794 -0.022486871
v -0.0931204 0.23221278 -0.024726627
v -0.16260408 0.122283295 -0.025735307
v -0.15497628 0.124585085 -0.026752388
v -0.094900675 0.12591554 -0.024165519
v -0.085982144 0.1373627 -0.024027962
v -0.08019181 0.15310936 -0.023821352
v -0.07900068 0.16770436 -0.023791377
v -0.08211303 0.18171345 -0.023723448
v -0.09029459 0.20607398 -0.0241474
v -0.085895754 0.21568823 -0.023620902
v -0.09504875 0.19959572 -0.024573194
v -0.0995981 0.24305849 -0.023573816
v -0.09684176 0.21875826 -0.02663554
v -0.10011222 0.21135712 -0.027370734
v -0.111118294 0.23604663 -0.026170066
v -0.10730868 0.24134974 -0.025209872
v -0.11300476 0.22006397 -0.026702737
v -0.15620485 0.13627842 -0.030901793
v -0.14801292 0.1300212 -0.027260536
v -0.19081475 0.1271361 -0.026571983
v -0.20258978 0.12548831 -0.024846157
v -0.19814889 0.14308514 -0.026642049
v -0.2075235 0.13925408 -0.025216078
v -0.13844171 0.16913828 -0.030676663
v -0.14763637 0.15326373 -0.030966727
v -0.12856145 0.16422276 -0.026470026
v -0.15158084 0.18084626 -0.030192692
v -0.1604129 0.1676786 -0.029828787
v -0.11848419 0.17734127 -0.025954256
v -0.10827648 0.1880468 -0.025271056
v -0.09403905 0.14439924 -0.025708452
v -0.086398035 0.160961 -0.02510727
v -0.14170666 0.1111537 -0.024889385
v -0.1537867 0.113780215 -0.025201423
v -0.21263714 0.16763142 -0.027169252
v -0.20582429 0.15345685 -0.027178321
v -0.12187002 0.24287489 -0.026656915
v -0.13230474 0.23381594 -0.028170226
v -0.117576 0.25151798 -0.025214208
v -0.10437045 0.24920218 -0.023714637
v -0.15480362 0.20494442 -0.030285394
v -0.16265713 0.1907024 -0.030292174
v -0.14503558 0.22156624 -0.029741962
v -0.13834646 0.2966828 -0.028659595
v -0.13541524 0.25059167 -0.026869873
v -0.22051711 0.20668875 -0.030649979
v -0.21092252 0.19293848 -0.030120004
v -0.20740567 0.19858089 -0.03148511
v -0.22482578 0.2141079 -0.030985255
v -0.22665198 0.19548535 -0.029132256
v -0.2081718 0.17193842 -0.028471803
v -0.21977933 0.17819141 -0.028618086
v -0.24383162 0.19677071 -0.029227247
v -0.25116214 0.2043046 -0.029580519
v -0.25681585 0.21210535 -0.02997402
v -0.20303178 0.17299066 -0.028808465
v -0.21667926 0.18346997 -0.029061733
v -0.1990333 0.17840777 -0.029436698
v -0.22158857 0.220137 -0.03232422
v -0.22946863 0.23525503 -0.032848734
v -0.2361474 0.25512573 -0.032836687
v -0.19220515 0.22945009 -0.031176317
v -0.19044182 0.25087795 -0.03128111
v -0.19889708 0.24311772 -0.03074835
v -0.1973346 0.19966023 -0.03016287
v -0.20347877 0.21954143 -0.030649707
v -0.20356761 0.23277465 -0.030409176
v -0.1850854 0.2692351 -0.030858219
v -0.18424812 0.19006972 -0.030075017
v -0.17937683 0.19543502 -0.031313874
v -0.18905556 0.20804441 -0.030722296
v -0.18359189 0.21356618 -0.03212698
v -0.17218713 0.19996782 -0.029957352
v -0.18513735 0.23521502 -0.03264445
v -0.18197906 0.25542724 -0.03253353
v -0.17782936 0.2679896 -0.032274764
v -0.17001891 0.21755794 -0.030056028
v -0.16078894 0.23571439 -0.029070636
v -0.17088597 0.27962515 -0.031785816
v -0.14826894 0.24519101 -0.027809484
v -0.14855042 0.29465488 -0.029731113
v -0.1595781 0.29009283 -0.030758757
v 0.15276116 0.048710633 -0.0254396
v 0.1724885 0.014341391 -0.026063038
v 0.15061846 0.0059566773 -0.02419678
v 0.119534366 0.002911591 -0.022463694
v 0.21844058 0.080933586 -0.023988677
v 0.22830918 0.047050335 -0.027000556
v 0.20364033 0.051228452 -0.027848234
v 0.19838919 0.03616893 -0.027861295
v 0.22161634 0.024670696 -0.02702787
v 0.2270277 0.06296102 -0.026225789
v 0.24310687 0.058985263 -0.023218434
v 0.16191052 -0.0107423095 -0.0230809
v 0.18626283 -0.004755348 -0.024847781
v 0.18634824 0.02285487 -0.026861548
v 0.20925109 0.008043217 -0.026234915
v 0.12600689 -0.010158267 -0.021494407
v 0.2455494 0.044095032 -0.023947474
v 0.23837693 0.015504188 -0.023991821
v 0.2282757 -0.0043400205 -0.020816842
v 0.17089443 -0.023283055 -0.019751731
v 0.19899121 -0.01984115 -0.021366134
v 0.20036833 0.08402236 -0.025400067
v 0.20400178 0.0663053 -0.027240342
v 0.022971375 0.020839358 -0.027503634
v 0.024343563 0.037243806 -0.030752411
v 0.13267072 -0.0045110327 -0.028967207
v 0.09852599 0.009246836 -0.034017447
v 0.08654964 -0.004962306 -0.029202014
v 0.050788134 0.18008493 -0.039875336
v 0.055809457 0.17204666 -0.040564056
v 0.04771891 0.16754255 -0.03837084
v 0.045085263 0.14942132 -0.04259767
v 0.035722498 0.05519727 -0.032430317
v 0.031406857 0.07315027 -0.03659846
v 0.18685882 0.12242611 -0.043669876
v 0.15330194 0.1510642 -0.048100132
v 0.14712289 0.119599454 -0.048906278
v 0.18423797 0.08763281 -0.040991273
v 0.12181997 0.057780545 -0.04319426
v 0.103410475 0.029914761 -0.037109118
v 0.15447524 0.016246825 -0.032081973
v 0.16889723 0.041496716 -0.035774577
v 0.18444957 0.15988839 -0.045486163
v 0.16696413 0.17649871 -0.049374893
v 0.1778361 0.06394962 -0.0386568
v 0.12963913 0.08906504 -0.045517966
v 0.041144885 0.120292865 -0.041594036
v 0.03454142 0.11738528 -0.038576625
v 0.033698913 0.090277284 -0.039154477
v 0.055663403 0.20305185 -0.040163025
v 0.07520236 0.21938916 -0.041002143
v 0.17075129 0.19411325 -0.046804406
v 0.17751914 0.18597777 -0.04666784
v 0.09389598 0.2193929 -0.044026785
v 0.120651506 0.19343856 -0.048901167
v 0.067124985 0.20594084 -0.043709774
v 0.06601687 0.18121108 -0.04333981
v 0.11368477 0.16790545 -0.048244998
v 0.11096989 0.16068499 -0.04708601
v 0.100830555 0.13563052 -0.049374502
v 0.089718424 0.10580333 -0.046450995
v 0.04752553 0.10965643 -0.04029758
v 0.0883074 0.09960614 -0.044369157
v 0.03822975 0.10777704 -0.037319105
v 0.12677091 0.20972955 -0.045951154
v 0.07774948 0.07439922 -0.043178543
v 0.06610663 0.04381436 -0.035359632
v 0.058217328 0.02398797 -0.033737894
v 0.051476713 0.007952897 -0.029297162
vt 0.24035645 0.30615234
vt 0.24804688 0.3071289
vt 0.24914551 0.26782227
vt 0.24243164 0.26953125
vt 0.24609375 0.24633789
vt 0.23803711 0.21582031
vt 0.22644043 0.2368164
vt 0.2368164 0.25219727
vt 0.20214844 0.35864258
vt 0.23083496 0.34643555
vt 0.22619629 0.33203125
vt 0.20056152 0.33203125
vt 0.24072266 0.32836914
vt 0.234375 0.32421875
vt 0.11199951 0.31713867
vt 0.1381836 0.33520508
vt 0.15332031 0.31152344
vt 0.1315918 0.2944336
vt 0.036712646 0.20275879
vt 0.050354004 0.23596191
vt 0.066223145 0.20910645
vt 0.03643799 0.16870117
vt 0.062042236 0.19274902
vt 0.06390381 0.18115234
vt 0.089782715 0.15893555
vt 0.07952881 0.1303711
vt 0.10809326 0.15661621
vt 0.12878418 0.16552734
vt 0.13293457 0.13354492
vt 0.109802246 0.12915039
vt 0.16040039 0.17150879
vt 0.17150879 0.18481445
vt 0.20019531 0.17150879
vt 0.16479492 0.14379883
vt 0.20959473 0.23120117
vt 0.20166016 0.20263672
vt 0.14587402 0.16748047
vt 0.1529541 0.1665039
vt 0.16723633 0.34960938
vt 0.17651367 0.32373047
vt 0.07885742 0.28100586
vt 0.099243164 0.26049805
vt 0.08520508 0.24328613
vt 0.07366943 0.22595215
vt 0.14135742 0.17297363
vt 0.17456055 0.1940918
vt 0.19067383 0.22998047
vt 0.17102051 0.23217773
vt 0.17370605 0.22387695
vt 0.9428711 0.6113281
vt 0.92285156 0.5620117
vt 0.90625 0.59228516
vt 0.9003906 0.9238281
vt 0.8828125 0.9248047
vt 0.8774414 0.94433594
vt 0.546875 0.953125
vt 0.56933594 0.9580078
vt 0.56640625 0.93115234
vt 0.61621094 0.5546875
vt 0.6538086 0.5385742
vt 0.64208984 0.5073242
vt 0.7626953 0.9067383
vt 0.78808594 0.88378906
vt 0.76953125 0.875
vt 0.796875 0.95166016
vt 0.81591797 0.95996094
vt 0.82128906 0.93359375
vt 0.81152344 0.92871094
vt 0.6591797 0.9550781
vt 0.68408203 0.9433594
vt 0.6694336 0.9169922
vt 0.65283203 0.9272461
vt 0.54052734 0.8901367
vt 0.5395508 0.8725586
vt 0.52734375 0.8730469
vt 0.6040039 0.78125
vt 0.62060547 0.7597656
vt 0.58691406 0.7504883
vt 0.6166992 0.7290039
vt 0.5839844 0.6870117
vt 0.91845703 0.81396484
vt 0.93847656 0.7871094
vt 0.91259766 0.79833984
vt 0.9316406 0.6972656
vt 0.93896484 0.73046875
vt 0.94873047 0.7294922
vt 0.9379883 0.7636719
vt 0.94873047 0.7651367
vt 0.92529297 0.8955078
vt 0.92578125 0.86865234
vt 0.9042969 0.87646484
vt 0.9033203 0.89208984
vt 0.91796875 0.8417969
vt 0.9003906 0.8305664
vt 0.89990234 0.84228516
vt 0.85791016 0.93652344
vt 0.8388672 0.9379883
vt 0.84472656 0.9604492
vt 0.8696289 0.5253906
vt 0.84521484 0.53222656
vt 0.8544922 0.5415039
vt 0.8881836 0.5654297
vt 0.8984375 0.5776367
vt 0.55810547 0.8300781
vt 0.5600586 0.7988281
vt 0.5410156 0.81591797
vt 0.55126953 0.83691406
vt 0.5415039 0.85791016
vt 0.5317383 0.8413086
vt 0.5541992 0.9277344
vt 0.54541016 0.91259766
vt 0.5253906 0.92041016
vt 0.6196289 0.62646484
vt 0.6010742 0.5859375
vt 0.5878906 0.6357422
vt 0.6303711 0.59228516
vt 0.64404297 0.5673828
vt 0.90185547 0.54003906
vt 0.8720703 0.5517578
vt 0.91308594 0.6176758
vt 0.9379883 0.6586914
vt 0.9169922 0.64160156
vt 0.92041016 0.66015625
vt 0.9296875 0.78222656
vt 0.90527344 0.8100586
vt 0.9033203 0.8613281
vt 0.89941406 0.9033203
vt 0.89208984 0.9160156
vt 0.77685547 0.93359375
vt 0.80371094 0.921875
vt 0.796875 0.91259766
vt 0.61376953 0.6904297
vt 0.61572266 0.65234375
vt 0.5805664 0.8198242
vt 0.5678711 0.82470703
vt 0.5449219 0.8457031
vt 0.5913086 0.9536133
vt 0.60595703 0.9326172
vt 0.59228516 0.9277344
vt 0.6230469 0.9614258
vt 0.63623047 0.93310547
vt 0.62109375 0.93408203
vt 0.58154297 0.93066406
vt 0.7050781 0.9248047
vt 0.71533203 0.8925781
vt 0.6928711 0.9003906
vt 0.7348633 0.9189453
vt 0.7397461 0.8876953
vt 0.6816406 0.9067383
vt 0.75390625 0.8823242
vt 0.7890625 0.89453125
vt 0.7919922 0.9038086
vt 0.8623047 0.5083008
vt 0.85009766 0.5073242
vt 0.66259766 0.5073242
vt 0.87109375 0.9326172
vt 0.1026001 0.23986816
vt 0.09564209 0.22729492
vt 0.20910645 0.31835938
vt 0.12780762 0.21813965
vt 0.2175293 0.29370117
vt 0.10095215 0.16784668
vt 0.08892822 0.18603516
vt 0.10064697 0.20202637
vt 0.10974121 0.18237305
vt 0.17675781 0.30444336
vt 0.19030762 0.27978516
vt 0.1149292 0.16552734
vt 0.12524414 0.17883301
vt 0.22351074 0.2631836
vt 0.20666504 0.23950195
vt 0.20031738 0.25708008
vt 0.22595215 0.24597168
vt 0.14672852 0.2849121
vt 0.16638184 0.26586914
vt 0.1862793 0.23828125
vt 0.17871094 0.25146484
vt 0.12322998 0.26293945
vt 0.14685059 0.25439453
vt 0.15966797 0.24816895
vt 0.16625977 0.24047852
vt 0.07421875 0.21459961
vt 0.16137695 0.23022461
vt 0.13781738 0.25317383
vt 0.15539551 0.18261719
vt 0.13903809 0.21447754
vt 0.14733887 0.22644043
vt 0.15588379 0.19116211
vt 0.1640625 0.18322754
vt 0.16577148 0.19213867
vt 0.14099121 0.18017578
vt 0.15100098 0.18713379
vt 0.14831543 0.1784668
vt 0.12475586 0.24963379
vt 0.8925781 0.8642578
vt 0.5761719 0.92089844
vt 0.69677734 0.6821289
vt 0.6928711 0.6542969
vt 0.6479492 0.68359375
vt 0.70703125 0.5073242
vt 0.67822266 0.5073242
vt 0.6713867 0.5332031
vt 0.7036133 0.51953125
vt 0.75634766 0.5073242
vt 0.7553711 0.51464844
vt 0.7885742 0.52197266
vt 0.8051758 0.5073242
vt 0.8925781 0.68310547
vt 0.89697266 0.7192383
vt 0.734375 0.87109375
vt 0.80029297 0.8886719
vt 0.77978516 0.86865234
vt 0.61035156 0.9296875
vt 0.72314453 0.77490234
vt 0.78515625 0.7885742
vt 0.7758789 0.7495117
vt 0.8833008 0.6328125
vt 0.88916016 0.6538086
vt 0.80126953 0.6230469
vt 0.8276367 0.62158203
vt 0.81884766 0.5644531
vt 0.79345703 0.5620117
vt 0.86816406 0.56347656
vt 0.5571289 0.88964844
vt 0.55615234 0.87158203
vt 0.8203125 0.6435547
vt 0.7944336 0.6464844
vt 0.81103516 0.5361328
vt 0.69384766 0.5683594
vt 0.6591797 0.57666016
vt 0.6904297 0.625
vt 0.7651367 0.62646484
vt 0.7553711 0.56152344
vt 0.72265625 0.6801758
vt 0.65283203 0.74609375
vt 0.6508789 0.7192383
vt 0.64746094 0.6533203
vt 0.6894531 0.74853516
vt 0.69628906 0.71875
vt 0.64941406 0.6254883
vt 0.72558594 0.72558594
vt 0.76904297 0.70166016
vt 0.8911133 0.7714844
vt 0.85595703 0.7236328
vt 0.82128906 0.7319336
vt 0.83740234 0.80078125
vt 0.84472656 0.64453125
vt 0.57470703 0.8876953
vt 0.62646484 0.7817383
vt 0.6020508 0.8183594
vt 0.6303711 0.8276367
vt 0.65722656 0.7871094
vt 0.65771484 0.8408203
vt 0.68847656 0.80615234
vt 0.6821289 0.8691406
vt 0.7182617 0.8413086
vt 0.5644531 0.90625
vt 0.5595703 0.85839844
vt 0.81933594 0.88916016
vt 0.81396484 0.8378906
vt 0.79296875 0.8564453
vt 0.86572266 0.86035156
vt 0.88427734 0.84228516
vt 0.87109375 0.8095703
vt 0.8442383 0.82177734
vt 0.81396484 0.92578125
vt 0.8671875 0.9243164
vt 0.8886719 0.90722656
vt 0.89941406 0.8886719
vt 0.8457031 0.8779297
vt 0.80322266 0.90771484
vt 0.8256836 0.9116211
vt 0.85839844 0.90478516
vt 0.8798828 0.88720703
vt 0.83740234 0.93115234
vt 0.76953125 0.65527344
vt 0.8305664 0.67529297
vt 0.8071289 0.6826172
vt 0.79541016 0.8222656
vt 0.8544922 0.67578125
vt 0.7548828 0.81347656
vt 0.76904297 0.8491211
vt 0.6899414 0.89160156
vt 0.56640625 0.8408203
vt 0.5722656 0.8569336
vt 0.5751953 0.8359375
vt 0.59228516 0.9189453
vt 0.58496094 0.82910156
vt 0.59521484 0.85009766
vt 0.62060547 0.83740234
vt 0.609375 0.8798828
vt 0.6381836 0.859375
vt 0.6279297 0.9086914
vt 0.65771484 0.8911133
vt 0.6455078 0.92333984
vt 0.6665039 0.91015625
vt 0.41137695 0.8261719
vt 0.3972168 0.82714844
vt 0.3972168 0.8334961
vt 0.4165039 0.8334961
vt 0.38378906 0.8305664
vt 0.38793945 0.8359375
vt 0.3552246 0.9160156
vt 0.3630371 0.9199219
vt 0.3840332 0.9169922
vt 0.38427734 0.8930664
vt 0.37719727 0.90771484
vt 0.39282227 0.9116211
vt 0.4038086 0.89501953
vt 0.39257812 0.8618164
vt 0.41259766 0.8642578
vt 0.36450195 0.84814453
vt 0.35424805 0.87939453
vt 0.3503418 0.8989258
vt 0.37280273 0.8378906
vt 0.4255371 0.82910156
vt 0.42895508 0.86621094
vt 0.4333496 0.83691406
vt 0.4194336 0.8964844
vt 0.40942383 0.9111328
vt 0.39746094 0.9189453
vt 0.3876953 0.9213867
vt 0.35083008 0.9091797
vt 0.57666016 0.55126953
vt 0.55322266 0.5644531
vt 0.5786133 0.578125
vt 0.4951172 0.45703125
vt 0.49951172 0.46948242
vt 0.52441406 0.46533203
vt 0.5175781 0.44677734
vt 0.3942871 0.4152832
vt 0.4169922 0.41674805
vt 0.42089844 0.39282227
vt 0.39038086 0.39770508
vt 0.31176758 0.5058594
vt 0.32495117 0.48632812
vt 0.32470703 0.45214844
vt 0.34204102 0.5917969
vt 0.3347168 0.55126953
vt 0.3215332 0.55566406
vt 0.32299805 0.5908203
vt 0.36889648 0.6430664
vt 0.35717773 0.62841797
vt 0.34350586 0.6357422
vt 0.3544922 0.6542969
vt 0.45166016 0.64501953
vt 0.4423828 0.65283203
vt 0.45141602 0.67822266
vt 0.46533203 0.67089844
vt 0.5371094 0.6557617
vt 0.55126953 0.6308594
vt 0.5263672 0.6254883
vt 0.5209961 0.6333008
vt 0.49902344 0.47998047
vt 0.5292969 0.48608398
vt 0.4716797 0.45263672
vt 0.48876953 0.45166016
vt 0.50439453 0.43237305
vt 0.4807129 0.42797852
vt 0.36035156 0.42797852
vt 0.37573242 0.4194336
vt 0.37109375 0.40527344
vt 0.35351562 0.41967773
vt 0.32202148 0.5180664
vt 0.32128906 0.50683594
vt 0.31298828 0.5205078
vt 0.34936523 0.61328125
vt 0.3947754 0.65771484
vt 0.38134766 0.65185547
vt 0.37182617 0.671875
vt 0.39038086 0.6801758
vt 0.56689453 0.52783203
vt 0.54589844 0.546875
vt 0.5517578 0.5566406
vt 0.4152832 0.66015625
vt 0.42089844 0.68359375
vt 0.5126953 0.6411133
vt 0.4560547 0.44189453
vt 0.4309082 0.42138672
vt 0.44458008 0.3996582
vt 0.33276367 0.45825195
vt 0.34423828 0.4423828
vt 0.32592773 0.53125
vt 0.5366211 0.5004883
vt 0.5102539 0.5161133
vt 0.53759766 0.53759766
vt 0.50390625 0.5004883
vt 0.55322266 0.6035156
vt 0.5317383 0.58154297
vt 0.5205078 0.5805664
vt 0.56689453 0.59521484
vt 0.5498047 0.57470703
vt 0.5419922 0.5800781
vt 0.52783203 0.6020508
vt 0.5288086 0.6147461
vt 0.50634766 0.67089844
vt 0.50146484 0.64501953
vt 0.45654297 0.6386719
vt 0.4724121 0.64453125
vt 0.48608398 0.6459961
vt 0.4296875 0.6582031
vt 0.49658203 0.48583984
vt 0.2109375 0.5517578
vt 0.25463867 0.5019531
vt 0.24267578 0.5019531
vt 0.20263672 0.5444336
vt 0.23388672 0.40551758
vt 0.21838379 0.43164062
vt 0.23400879 0.4423828
vt 0.09350586 0.42895508
vt 0.11639404 0.42041016
vt 0.111083984 0.39111328
vt 0.08227539 0.40161133
vt 0.15039062 0.41845703
vt 0.18835449 0.42163086
vt 0.19934082 0.390625
vt 0.15002441 0.38891602
vt 0.03741455 0.44628906
vt 0.02758789 0.47558594
vt 0.057678223 0.484375
vt 0.06689453 0.46166992
vt 0.027923584 0.50097656
vt 0.03869629 0.53222656
vt 0.06414795 0.51708984
vt 0.057525635 0.49902344
vt 0.056549072 0.55615234
vt 0.07659912 0.57421875
vt 0.09442139 0.5517578
vt 0.07696533 0.53515625
vt 0.15930176 0.58935547
vt 0.18884277 0.5678711
vt 0.1850586 0.55566406
vt 0.15527344 0.56591797
vt 0.25024414 0.48242188
vt 0.125 0.5932617
vt 0.13061523 0.5673828
vt 0.26513672 0.46362305
vt 0.265625 0.43823242
vt 0.24523926 0.453125
vt 0.25024414 0.4650879
vt 0.07910156 0.4387207
vt 0.058380127 0.42041016
vt 0.09954834 0.58691406
vt 0.11242676 0.5625
vt 0.4584961 0.8261719
vt 0.44189453 0.8046875
vt 0.46020508 0.8701172
vt 0.3371582 0.93359375
vt 0.35864258 0.94433594
vt 0.37353516 0.8051758
vt 0.35595703 0.84375
vt 0.40625 0.7973633
vt 0.33520508 0.89501953
vt 0.4206543 0.94189453
vt 0.44604492 0.9091797
vt 0.39208984 0.94677734
vt 0.28881836 0.8330078
vt 0.29663086 0.80859375
vt 0.27124023 0.8149414
vt 0.32299805 0.7182617
vt 0.31445312 0.6816406
vt 0.28515625 0.6972656
vt 0.2861328 0.7060547
vt 0.27612305 0.69091797
vt 0.29174805 0.6660156
vt 0.15441895 0.6616211
vt 0.19482422 0.6611328
vt 0.19689941 0.6308594
vt 0.1517334 0.6347656
vt 0.0993042 0.68896484
vt 0.12731934 0.6689453
vt 0.11871338 0.640625
vt 0.08215332 0.66796875
vt 0.032318115 0.7451172
vt 0.06695557 0.7558594
vt 0.072143555 0.7348633
vt 0.07489014 0.8413086
vt 0.041412354 0.8496094
vt 0.06323242 0.9160156
vt 0.08123779 0.875
vt 0.09197998 0.89990234
vt 0.10241699 0.90966797
vt 0.084350586 0.93847656
vt 0.13220215 0.95947266
vt 0.15270996 0.9272461
vt 0.1842041 0.9711914
vt 0.19165039 0.93847656
vt 0.07165527 0.8041992
vt 0.080444336 0.71435547
vt 0.053710938 0.69873047
vt 0.21484375 0.6660156
vt 0.22473145 0.6381836
vt 0.24584961 0.6777344
vt 0.25463867 0.9472656
vt 0.27416992 0.9301758
vt 0.24743652 0.91064453
vt 0.23461914 0.92333984
vt 0.27734375 0.8979492
vt 0.2565918 0.89160156
vt 0.2836914 0.7216797
vt 0.31640625 0.7529297
vt 0.27807617 0.75634766
vt 0.27807617 0.76464844
vt 0.27514648 0.74853516
vt 0.20947266 0.9707031
vt 0.22058105 0.93359375
vt 0.2644043 0.7963867
vt 0.26904297 0.8046875
vt 0.27392578 0.78271484
vt 0.2705078 0.82910156
vt 0.27514648 0.86572266
vt 0.2631836 0.8486328
vt 0.25634766 0.86083984
vt 0.25830078 0.875
vt 0.26757812 0.7426758
vt 0.27783203 0.73291016
vt 0.20788574 0.9394531
vt 0.47729492 0.5258789
vt 0.45288086 0.49902344
vt 0.47070312 0.52734375
vt 0.4560547 0.46240234
vt 0.43798828 0.46435547
vt 0.45239258 0.48876953
vt 0.46679688 0.48242188
vt 0.39697266 0.44628906
vt 0.38232422 0.45581055
vt 0.41137695 0.48510742
vt 0.4633789 0.49047852
vt 0.47973633 0.4987793
vt 0.35131836 0.5883789
vt 0.35620117 0.59814453
vt 0.3449707 0.578125
vt 0.34936523 0.57714844
vt 0.39990234 0.5253906
vt 0.38598633 0.5390625
vt 0.39794922 0.5527344
vt 0.4140625 0.5366211
vt 0.45825195 0.49487305
vt 0.44506836 0.49560547
vt 0.44726562 0.50341797
vt 0.5161133 0.5473633
vt 0.55078125 0.56640625
vt 0.44555664 0.44433594
vt 0.43701172 0.44482422
vt 0.44750977 0.45458984
vt 0.45703125 0.45410156
vt 0.42626953 0.42871094
vt 0.42236328 0.43530273
vt 0.39746094 0.42407227
vt 0.40551758 0.4333496
vt 0.41235352 0.4248047
vt 0.36816406 0.43701172
vt 0.37451172 0.44677734
vt 0.38793945 0.43774414
vt 0.38256836 0.42871094
vt 0.35229492 0.4501953
vt 0.33374023 0.4880371
vt 0.34155273 0.46533203
vt 0.33129883 0.5073242
vt 0.33398438 0.5288086
vt 0.35766602 0.59375
vt 0.35888672 0.58251953
vt 0.43920898 0.45532227
vt 0.43041992 0.4580078
vt 0.36108398 0.4597168
vt 0.35083008 0.4729004
vt 0.34399414 0.4909668
vt 0.3425293 0.5078125
vt 0.3461914 0.52441406
vt 0.3557129 0.5522461
vt 0.35058594 0.56347656
vt 0.36132812 0.5449219
vt 0.36645508 0.59521484
vt 0.36328125 0.56689453
vt 0.36694336 0.55859375
vt 0.3798828 0.58691406
vt 0.37548828 0.5932617
vt 0.38208008 0.5683594
vt 0.43188477 0.4716797
vt 0.42236328 0.46435547
vt 0.47192383 0.4609375
vt 0.4855957 0.45922852
vt 0.48046875 0.4794922
vt 0.49121094 0.47509766
vt 0.41137695 0.5097656
vt 0.42211914 0.49121094
vt 0.39990234 0.50390625
vt 0.42651367 0.5229492
vt 0.43676758 0.5078125
vt 0.3881836 0.51904297
vt 0.37646484 0.5317383
vt 0.36010742 0.48095703
vt 0.35131836 0.5
vt 0.4152832 0.44262695
vt 0.42919922 0.44555664
vt 0.4970703 0.5078125
vt 0.4892578 0.49145508
vt 0.39233398 0.59472656
vt 0.40429688 0.58447266
vt 0.38720703 0.60498047
vt 0.3720703 0.6020508
vt 0.43041992 0.55126953
vt 0.43945312 0.53466797
vt 0.4189453 0.5703125
vt 0.41137695 0.65722656
vt 0.40795898 0.6040039
vt 0.50634766 0.55322266
vt 0.4951172 0.5371094
vt 0.49121094 0.54345703
vt 0.51123047 0.56152344
vt 0.5131836 0.54003906
vt 0.49194336 0.5126953
vt 0.5053711 0.52001953
vt 0.5332031 0.5415039
vt 0.5415039 0.55029297
vt 0.54833984 0.5595703
vt 0.48608398 0.51416016
vt 0.5019531 0.5263672
vt 0.4814453 0.5205078
vt 0.5073242 0.56884766
vt 0.51660156 0.5859375
vt 0.52441406 0.6088867
vt 0.4736328 0.57958984
vt 0.47143555 0.6040039
vt 0.48120117 0.59521484
vt 0.4794922 0.5449219
vt 0.48657227 0.5678711
vt 0.4868164 0.5830078
vt 0.46533203 0.6254883
vt 0.46435547 0.5336914
vt 0.45874023 0.54003906
vt 0.4699707 0.5546875
vt 0.46362305 0.56103516
vt 0.45043945 0.54541016
vt 0.46533203 0.5859375
vt 0.46166992 0.609375
vt 0.45703125 0.62402344
vt 0.44799805 0.5654297
vt 0.43725586 0.5864258
vt 0.4489746 0.63720703
vt 0.42285156 0.59765625
vt 0.4230957 0.65478516
vt 0.43579102 0.64941406
vt 0.17712402 0.50683594
vt 0.1541748 0.46679688
vt 0.1796875 0.45703125
vt 0.21582031 0.45361328
vt 0.10058594 0.5444336
vt 0.08905029 0.5048828
vt 0.11779785 0.5097656
vt 0.1239624 0.4921875
vt 0.09686279 0.4790039
vt 0.09057617 0.5234375
vt 0.07183838 0.51904297
vt 0.1665039 0.4375
vt 0.13806152 0.44458008
vt 0.13793945 0.47680664
vt 0.11126709 0.45947266
vt 0.20837402 0.43823242
vt 0.06896973 0.50146484
vt 0.07733154 0.46826172
vt 0.08911133 0.44506836
vt 0.15600586 0.4230957
vt 0.12322998 0.42700195
vt 0.12164307 0.54785156
vt 0.117370605 0.52734375
vt 0.27612305 0.7006836
vt 0.2746582 0.71972656
vt 0.14831543 0.67089844
vt 0.18811035 0.6870117
vt 0.20202637 0.67041016
vt 0.24365234 0.88623047
vt 0.23791504 0.8769531
vt 0.24731445 0.87158203
vt 0.25048828 0.85058594
vt 0.2614746 0.74072266
vt 0.26635742 0.76171875
vt 0.08514404 0.81884766
vt 0.12426758 0.85253906
vt 0.13146973 0.81591797
vt 0.0881958 0.7783203
vt 0.16101074 0.74365234
vt 0.18237305 0.7109375
vt 0.122924805 0.6953125
vt 0.1060791 0.7246094
vt 0.08795166 0.86279297
vt 0.1083374 0.88183594
vt 0.095703125 0.75097656
vt 0.15185547 0.78027344
vt 0.2548828 0.81640625
vt 0.2626953 0.8129883
vt 0.26367188 0.7817383
vt 0.23803711 0.91308594
vt 0.21533203 0.9321289
vt 0.10394287 0.90234375
vt 0.0960083 0.8930664
vt 0.19348145 0.9321289
vt 0.16235352 0.90185547
vt 0.22473145 0.9165039
vt 0.22595215 0.8876953
vt 0.17041016 0.8720703
vt 0.17358398 0.86376953
vt 0.1854248 0.83447266
vt 0.19836426 0.7998047
vt 0.2475586 0.8041992
vt 0.20007324 0.79248047
vt 0.25854492 0.8017578
vt 0.15515137 0.92089844
vt 0.21228027 0.7631836
vt 0.22595215 0.72753906
vt 0.23510742 0.70410156
vt 0.24291992 0.6855469
vn -0 0 -1
vn -0 0 -1
vn -0 0 -1
vn -0 0 -1
vn -0 0 -1
vn -0 0 -1
vn -0 0 -1
vn -0 0 -1
vn -0 0 -1
vn -0 0 -1
vn -0 0 -1
vn -0 0 -1
vn -0 0 -1
vn -0 0 -1
vn -0 0 -1
vn -0 0 -1
vn -0 0 -1
vn -0 0 -1
vn -0 0 -1
vn -0 0 -1
vn -0 0 -1
vn -0 0 -1
vn -0 0 -1
vn -0 0 -1
vn -0 0 -1
vn -0 0 -1
vn -0 0 -1
vn -0 0 -1
vn -0 0 -1
vn -0 0 -1
vn -0 0 -1
vn -0 0 -1
vn -0 0 -1
vn -0 0 -1
vn -0 0 -1
vn -0 0 -1
vn -0 0 -1
vn -0 0 -1
vn -0 0 -1
vn -0 0 -1
vn -0 0 -1
vn -0 0 -1
vn -0 0 -1
vn -0 0 -1
vn -0 0 -1
vn -0 0 -1
vn -0 0 -1
vn -0 0 -1
vn -0 0 -1
vn -0 0 -1
vn -0 0 -1
vn -0 0 -1
vn -0 0 -1
vn -0 0 -1
vn -0 0 -1
vn -0 0 -1
vn -0 0 -1
vn -0 0 -1
vn -0 0 -1
vn -0 0 -1
vn -0 0 -1
vn -0 0 -1
vn -0 0 -1
vn -0 0 -1
vn -0 0 -1
vn -0 0 -1
vn -0 0 -1
vn -0 0 -1
vn -0 0 -1
vn -0 0 -1
vn -0 0 -1
vn -0 0 -1
vn -0 0 -1
vn -0 0 -1
vn -0 0 -1
vn -0 0 -1
vn -0 0 -1
vn -0 0 -1
vn -0 0 -1
vn -0 0 -1
vn -0 0 -1
vn -0 0 -1
vn -0 0 -1
vn -0 0 -1
vn -0 0 -1
vn -0 0 -1
vn -0 0 -1
vn -0 0 -1
vn -0 0 -1
vn -0 0 -1
vn -0 0 -1
vn -0 0 -1
vn -0 0 -1
vn -0 0 -1
vn -0 0 -1
vn -0 0 -1
vn -0 0 -1
vn -0 0 -1
vn -0 0 -1
vn -0 0 -1
vn -0 0 -1
vn -0 0 -1
vn -0 0 -1
vn -0 0 -1
vn -0 0 -1
vn -0 0 -1
vn -0 0 -1
vn -0 0 -1
vn -0 0 -1
vn -0 0 -1
vn -0 0 -1
vn -0 0 -1
vn -0 0 -1
vn -0 0 -1
vn -0 0 -1
vn -0 0 -1
vn -0 0 -1
vn -0 0 -1
vn -0 0 -1
vn -0 0 -1
vn -0 0 -1
vn -0 0 -1
vn -0 0 -1
vn -0 0 -1
vn -0 0 -1
vn -0 0 -1
vn -0 0 -1
vn -0 0 -1
vn -0 0 -1
vn -0 0 -1
vn -0 0 -1
vn -0 0 -1
vn -0 0 -1
vn -0 0 -1
vn -0 0 -1
vn -0 0 -1
vn -0 0 -1
vn -0 0 -1
vn -0 0 -1
vn -0 0 -1
vn -0 0 -1
vn -0 0 -1
vn -0 0 -1
vn -0 0 -1
vn -0 0 -1
vn -0 0 -1
vn -0 0 -1
vn -0 0 -1
vn -0 0 -1
vn -0 0 -1
vn -0 0 -1
vn -0 0 -1
vn -0 0 -1
vn -0 0 -1
vn -0 0 -1
vn -0 0 -1
vn -0 0 -1
vn -0 0 -1
vn -0 0 -1
vn -0 0 -1
vn -0 0 -1
vn -0 0 -1
vn -0 0 -1
vn -0 0 -1
vn -0 0 -1
vn -0 0 -1
vn -0 0 -1
vn -0 0 -1
vn -0 0 -1
vn -0 0 -1
vn -0 0 -1
vn -0 0 -1
vn -0 0 -1
vn -0 0 -1
vn -0 0 -1
vn -0 0 -1
vn -0 0 -1
vn -0 0 -1
vn -0 0 -1
vn -0 0 -1
vn -0 0 -1
vn -0 0 -1
vn -0 0 -1
vn -0 0 -1
vn -0 0 -1
vn -0 0 -1
vn -0 0 -1
vn -0 0 -1
vn -0 0 -1
vn -0 0 -1
vn -0 0 -1
vn -0 0 -1
vn -0 0 -1
vn -0 0 -1
vn -0 0 -1
vn -0 0 -1
vn -0 0 -1
vn -0 0 -1
vn -0 0 -1
vn -0 0 -1
vn -0 0 -1
vn -0 0 -1
vn -0 0 -1
vn -0 0 -1
vn -0 0 -1
vn -0 0 -1
vn -0 0 -1
vn -0 0 -1
vn -0 0 -1
vn -0 0 -1
vn -0 0 -1
vn -0 0 -1
vn -0 0 -1
vn -0 0 -1
vn -0 0 -1
vn -0 0 -1
vn -0 0 -1
vn -0 0 -1
vn -0 0 -1
vn -0 0 -1
vn -0 0 -1
vn -0 0 -1
vn -0 0 -1
vn -0 0 -1
vn -0 0 -1
vn -0 0 -1
vn -0 0 -1
vn -0 0 -1
vn -0 0 -1
vn -0 0 -1
vn -0 0 -1
vn -0 0 -1
vn -0 0 -1
vn -0 0 -1
vn -0 0 -1
vn -0 0 -1
vn -0 0 -1
vn -0 0 -1
vn -0 0 -1
vn -0 0 -1
vn -0 0 -1
vn -0 0 -1
vn -0 0 -1
vn -0 0 -1
vn -0 0 -1
vn -0 0 -1
vn -0 0 -1
vn -0 0 -1
vn -0 0 -1
vn -0 0 -1
vn -0 0 -1
vn -0 0 -1
vn -0 0 -1
vn -0 0 -1
vn -0 0 -1
vn -0 0 -1
vn -0 0 -1
vn -0 0 -1
vn -0 0 -1
vn -0 0 -1
vn -0 0 -1
vn -0 0 -1
vn -0 0 -1
vn -0 0 -1
vn -0 0 -1
vn -0 0 -1
vn -0 0 -1
vn -0 0 -1
vn -0 0 -1
vn -0 0 -1
vn -0 0 -1
vn -0 0 -1
vn -0 0 -1
vn -0 0 -1
vn -0 0 -1
vn -0 0 -1
vn -0 0 -1
vn -0 0 -1
vn -0 0 -1
vn -0 0 -1
vn -0 0 -1
vn -0 0 -1
vn -0 0 -1
vn -0 0 -1
vn -0 0 -1
vn -0 0 -1
vn -0 0 -1
vn -0 0 -1
vn -0 0 -1
vn -0 0 -1
vn -0 0 -1
vn -0 0 -1
vn -0 0 -1
vn -0 0 -1
vn -0 0 -1
vn -0 0 -1
vn -0 0 -1
vn -0 0 -1
vn -0 0 -1
vn -0 0 -1
vn -0 0 -1
vn -0 0 -1
vn -0 0 -1
vn -0 0 -1
vn -0 0 -1
vn -0 0 -1
vn -0 0 -1
vn -0 0 -1
vn -0 0 -1
vn -0 0 -1
vn -0 0 -1
vn -0 0 -1
vn -0 0 -1
vn -0 0 -1
vn -0 0 -1
vn -0 0 -1
vn -0 0 -1
vn -0 0 -1
vn -0 0 -1
vn -0 0 -1
vn -0 0 -1
vn -0 0 -1
vn -0 0 -1
vn -0 0 -1
vn -0 0 -1
vn -0 0 -1
vn -0 0 -1
vn -0 0 -1
vn -0 0 -1
vn -0 0 -1
vn -0 0 -1
vn -0 0 -1
vn -0 0 -1
vn -0 0 -1
vn -0 0 -1
vn -0 0 -1
vn -0 0 -1
vn -0 0 -1
vn -0 0 -1
vn -0 0 -1
vn -0 0 -1
vn -0 0 -1
vn -0 0 -1
vn -0 0 -1
vn -0 0 -1
vn -0 0 -1
vn -0 0 -1
vn -0 0 -1
vn -0 0 -1
vn -0 0 -1
vn -0 0 -1
vn -0 0 -1
vn -0 0 -1
vn -0 0 -1
vn -0 0 -1
vn -0 0 -1
vn -0 0 -1
vn -0 0 -1
vn -0 0 -1
vn -0 0 -1
vn -0 0 -1
vn -0 0 -1
vn -0 0 -1
vn -0 0 -1
vn -0 0 -1
vn -0 0 -1
vn -0 0 -1
vn -0 0 -1
vn -0 0 -1
vn -0 0 -1
vn -0 0 -1
vn -0 0 -1
vn -0 0 -1
vn -0 0 -1
vn -0 0 -1
vn -0 0 -1
vn -0 0 -1
vn -0 0 -1
vn -0 0 -1
vn -0 0 -1
vn -0 0 -1
vn -0 0 -1
vn -0 0 -1
vn -0 0 -1
vn -0 0 -1
vn -0 0 -1
vn -0 0 -1
vn -0 0 -1
vn -0 0 -1
vn -0 0 -1
vn -0 0 -1
vn -0 0 -1
vn -0 0 -1
vn -0 0 -1
vn -0 0 -1
vn -0 0 -1
vn -0 0 -1
vn -0 0 -1
vn -0 0 -1
vn -0 0 -1
vn -0 0 -1
vn -0 0 -1
vn -0 0 -1
vn -0 0 -1
vn -0 0 -1
vn -0 0 -1
vn -0 0 -1
vn -0 0 -1
vn -0 0 -1
vn -0 0 -1
vn -0 0 -1
vn -0 0 -1
vn -0 0 -1
vn -0 0 -1
vn -0 0 -1
vn -0 0 -1
vn -0 0 -1
vn -0 0 -1
vn -0 0 -1
vn -0 0 -1
vn -0 0 -1
vn -0 0 -1
vn -0 0 -1
vn -0 0 -1
vn -0 0 -1
vn -0 0 -1
vn -0 0 -1
vn -0 0 -1
vn -0 0 -1
vn -0 0 -1
vn -0 0 -1
vn -0 0 -1
vn -0 0 -1
vn -0 0 -1
vn -0 0 -1
vn -0 0 -1
vn -0 0 -1
vn -0 0 -1
vn -0 0 -1
vn -0 0 -1
vn -0 0 -1
vn -0 0 -1
vn -0 0 -1
vn -0 0 -1
vn -0 0 -1
vn -0 0 -1
vn -0 0 -1
vn -0 0 -1
vn -0 0 -1
vn -0 0 -1
vn -0 0 -1
vn -0 0 -1
vn -0 0 -1
vn -0 0 -1
vn -0 0 -1
vn -0 0 -1
vn -0 0 -1
vn -0 0 -1
vn -0 0 -1
vn -0 0 -1
vn -0 0 -1
vn -0 0 -1
vn -0 0 -1
vn -0 0 -1
vn -0 0 -1
vn -0 0 -1
vn -0 0 -1
vn -0 0 -1
vn -0 0 -1
vn -0 0 -1
vn -0 0 -1
vn -0 0 -1
vn -0 0 -1
vn -0 0 -1
vn -0 0 -1
vn -0 0 -1
vn -0 0 -1
vn -0 0 -1
vn -0 0 -1
vn -0 0 -1
vn -0 0 -1
vn -0 0 -1
vn -0 0 -1
vn -0 0 -1
vn -0 0 -1
vn -0 0 -1
vn -0 0 -1
vn -0 0 -1
vn -0 0 -1
vn -0 0 -1
vn -0 0 -1
vn -0 0 -1
vn -0 0 -1
vn -0 0 -1
vn -0 0 -1
vn -0 0 -1
vn -0 0 -1
vn -0 0 -1
vn -0 0 -1
vn -0 0 -1
vn -0 0 -1
vn -0 0 -1
vn -0 0 -1
vn -0 0 -1
vn -0 0 -1
vn -0 0 -1
vn -0 0 -1
vn -0 0 -1
vn -0 0 -1
vn -0 0 -1
vn -0 0 -1
vn -0 0 -1
vn -0 0 -1
vn -0 0 -1
vn -0 0 -1
vn -0 0 -1
vn -0 0 -1
vn -0 0 -1
vn -0 0 -1
vn -0 0 -1
vn -0 0 -1
vn -0 0 -1
vn -0 0 -1
vn -0 0 -1
vn -0 0 -1
vn -0 0 -1
vn -0 0 -1
vn -0 0 -1
vn -0 0 -1
vn -0 0 -1
vn -0 0 -1
vn -0 0 -1
vn -0 0 -1
vn -0 0 -1
vn -0 0 -1
vn -0 0 -1
vn -0 0 -1
vn -0 0 -1
vn -0 0 -1
vn -0 0 -1
vn -0 0 -1
vn -0 0 -1
vn -0 0 -1
vn -0 0 -1
vn -0 0 -1
vn -0 0 -1
vn -0 0 -1
vn -0 0 -1
vn -0 0 -1
vn -0 0 -1
vn -0 0 -1
vn -0 0 -1
vn -0 0 -1
vn -0 0 -1
vn -0 0 -1
vn -0 0 -1
vn -0 0 -1
vn -0 0 -1
vn -0 0 -1
vn -0 0 -1
vn -0 0 -1
vn -0 0 -1
vn -0 0 -1
vn -0 0 -1
vn -0 0 -1
vn -0 0 -1
vn -0 0 -1
vn -0 0 -1
vn -0 0 -1
vn -0 0 -1
vn -0 0 -1
vn -0 0 -1
vn -0 0 -1
vn -0 0 -1
vn -0 0 -1
vn -0 0 -1
vn -0 0 -1
vn -0 0 -1
vn -0 0 -1
vn -0 0 -1
vn -0 0 -1
vn -0 0 -1
vn -0 0 -1
vn -0 0 -1
vn -0 0 -1
vn -0 0 -1
vn -0 0 -1
vn -0 0 -1
vn -0 0 -1
vn -0 0 -1
vn -0 0 -1
vn -0 0 -1
vn -0 0 -1
vn -0 0 -1
vn -0 0 -1
vn -0 0 -1
vn -0 0 -1
vn -0 0 -1
vn -0 0 -1
vn -0 0 -1
vn -0 0 -1
vn -0 0 -1
vn -0 0 -1
vn -0 0 -1
vn -0 0 -1
vn -0 0 -1
vn -0 0 -1
vn -0 0 -1
vn -0 0 -1
vn -0 0 -1
vn -0 0 -1
vn -0 0 -1
vn -0 0 -1
vn -0 0 -1
vn -0 0 -1
vn -0 0 -1
vn -0 0 -1
vn -0 0 -1
vn -0 0 -1
vn -0 0 -1
vn -0 0 -1
vn -0 0 -1
vn -0 0 -1
vn -0 0 -1
vn -0 0 -1
vn -0 0 -1
vn -0 0 -1
vn -0 0 -1
vn -0 0 -1
vn -0 0 -1
vn -0 0 -1
vn -0 0 -1
vn -0 0 -1
vn -0 0 -1
vn -0 0 -1
vn -0 0 -1
vn -0 0 -1
vn -0 0 -1
vn -0 0 -1
vn -0 0 -1
vn -0 0 -1
vn -0 0 -1
vn -0 0 -1
vn -0 0 -1
vn -0 0 -1
vn -0 0 -1
vn -0 0 -1
vn -0 0 -1
vn -0 0 -1
vn -0 0 -1
vn -0 0 -1
vn -0 0 -1
vn -0 0 -1
vn -0 0 -1
vn -0 0 -1
vn -0 0 -1
vn -0 0 -1
vn -0 0 -1
vn -0 0 -1
vn -0 0 -1
vn -0 0 -1
vn -0 0 -1
vn -0 0 -1
vn -0 0 -1
vn -0 0 -1
vn -0 0 -1
vn -0 0 -1
vn -0 0 -1
vn -0 0 -1
vn -0 0 -1
vn -0 0 -1
vn -0 0 -1
vn -0 0 -1
vn -0 0 -1
vn -0 0 -1
vn -0 0 -1
vn -0 0 -1
vn -0 0 -1
vn -0 0 -1
vn -0 0 -1
vn -0 0 -1
vn -0 0 -1
vn -0 0 -1
vn -0 0 -1
vn -0 0 -1
vn -0 0 -1
vn -0 0 -1
vn -0 0 -1
vn -0 0 -1
vn -0 0 -1
vn -0 0 -1
vn -0 0 -1
vn -0 0 -1
vn -0 0 -1
vn -0 0 -1
vn -0 0 -1
vn -0 0 -1
vn -0 0 -1
vn -0 0 -1
vn -0 0 -1
vn -0 0 -1
vn -0 0 -1
vn -0 0 -1
vn -0 0 -1
vn -0 0 -1
vn -0 0 -1
vn -0 0 -1
vn -0 0 -1
vn -0 0 -1
vn -0 0 -1
vn -0 0 -1
vn -0 0 -1
g cPK_10_001460_00_KAIRIKYex_RR_L_SB_0
f 3/3/3 2/2/2 1/1/1
f 4/4/4 3/3/3 1/1/1
f 7/7/7 6/6/6 5/5/5
f 8/8/8 7/7/7 5/5/5
f 11/11/11 10/10/10 9/9/9
f 12/12/12 11/11/11 9/9/9
f 14/14/14 13/13/13 10/10/10
f 11/11/11 14/14/14 10/10/10
f 17/17/17 16/16/16 15/15/15
f 18/18/18 17/17/17 15/15/15
f 21/21/21 20/20/20 19/19/19
f 23/23/23 19/19/19 22/22/22
f 24/24/24 23/23/23 22/22/22
f 22/22/22 26/26/26 25/25/25
f 24/24/24 22/22/22 25/25/25
f 29/29/29 28/28/28 27/27/27
f 30/30/30 29/29/29 27/27/27
f 33/33/33 32/32/32 31/31/31
f 34/34/34 33/33/33 31/31/31
f 36/36/36 6/6/6 35/35/35
f 34/34/34 38/38/38 37/37/37
f 8/8/8 5/5/5 3/3/3
f 4/4/4 8/8/8 3/3/3
f 1/1/1 2/2/2 13/13/13
f 14/14/14 1/1/1 13/13/13
f 12/12/12 9/9/9 39/39/39
f 40/40/40 12/12/12 39/39/39
f 40/40/40 39/39/39 16/16/16
f 17/17/17 40/40/40 16/16/16
f 30/30/30 27/27/27 25/25/25
f 26/26/26 30/30/30 25/25/25
f 18/18/18 15/15/15 41/41/41
f 42/42/42 18/18/18 41/41/41
f 20/20/20 44/44/44 43/43/43
f 21/21/21 44/44/44 20/20/20
f 23/23/23 21/21/21 19/19/19
f 29/29/29 45/45/45 28/28/28
f 34/34/34 31/31/31 38/38/38
f 33/33/33 46/46/46 32/32/32
f 36/36/36 35/35/35 47/47/47
f 33/33/33 36/36/36 46/46/46
f 6/6/6 7/7/7 35/35/35
f 36/36/36 47/47/47 48/48/48
f 36/36/36 49/49/49 46/46/46
f 29/29/29 37/37/37 45/45/45
f 29/29/29 34/34/34 37/37/37
f 36/36/36 48/48/48 49/49/49
f 43/43/43 42/42/42 41/41/41
f 20/20/20 43/43/43 41/41/41
f 52/52/52 51/51/51 50/50/50
f 55/55/55 54/54/54 53/53/53
f 58/58/58 57/57/57 56/56/56
f 61/61/61 60/60/60 59/59/59
f 64/64/64 63/63/63 62/62/62
f 67/67/67 66/66/66 65/65/65
f 68/68/68 67/67/67 65/65/65
f 71/71/71 70/70/70 69/69/69
f 72/72/72 71/71/71 69/69/69
f 75/75/75 74/74/74 73/73/73
f 78/78/78 77/77/77 76/76/76
f 78/78/78 80/80/80 79/79/79
f 83/83/83 82/82/82 81/81/81
f 86/86/86 85/85/85 84/84/84
f 87/87/87 85/85/85 86/86/86
f 88/88/88 87/87/87 86/86/86
f 91/91/91 90/90/90 89/89/89
f 92/92/92 91/91/91 89/89/89
f 95/95/95 94/94/94 93/93/93
f 98/98/98 97/97/97 96/96/96
f 101/101/101 100/100/100 99/99/99
f 103/103/103 102/102/102 51/51/51
f 106/106/106 105/105/105 104/104/104
f 106/106/106 104/104/104 107/107/107
f 75/75/75 109/109/109 108/108/108
f 112/112/112 111/111/111 110/110/110
f 115/115/115 114/114/114 113/113/113
f 59/59/59 117/117/117 116/116/116
f 114/114/114 59/59/59 116/116/116
f 119/119/119 99/99/99 118/118/118
f 102/102/102 119/119/119 118/118/118
f 120/120/120 52/52/52 50/50/50
f 52/52/52 103/103/103 51/51/51
f 123/123/123 122/122/122 121/121/121
f 122/122/122 120/120/120 50/50/50
f 122/122/122 50/50/50 121/121/121
f 124/124/124 88/88/88 82/82/82
f 124/124/124 87/87/87 88/88/88
f 125/125/125 83/83/83 81/81/81
f 83/83/83 124/124/124 82/82/82
f 125/125/125 81/81/81 93/93/93
f 94/94/94 125/125/125 93/93/93
f 91/91/91 126/126/126 90/90/90
f 95/95/95 93/93/93 90/90/90
f 126/126/126 95/95/95 90/90/90
f 53/53/53 128/128/128 127/127/127
f 97/97/97 98/98/98 66/66/66
f 67/67/67 97/97/97 66/66/66
f 131/131/131 130/130/130 129/129/129
f 115/115/115 133/133/133 132/132/132
f 80/80/80 115/115/115 132/132/132
f 115/115/115 113/113/113 133/133/133
f 78/78/78 79/79/79 77/77/77
f 105/105/105 78/78/78 76/76/76
f 134/134/134 105/105/105 76/76/76
f 105/105/105 134/134/134 135/135/135
f 106/106/106 107/107/107 136/136/136
f 109/109/109 106/106/106 136/136/136
f 139/139/139 138/138/138 137/137/137
f 142/142/142 141/141/141 140/140/140
f 58/58/58 143/143/143 57/57/57
f 143/143/143 137/137/137 57/57/57
f 138/138/138 140/140/140 137/137/137
f 138/138/138 142/142/142 140/140/140
f 141/141/141 69/69/69 140/140/140
f 141/141/141 72/72/72 69/69/69
f 146/146/146 145/145/145 144/144/144
f 145/145/145 148/148/148 147/147/147
f 71/71/71 149/149/149 70/70/70
f 149/149/149 144/144/144 70/70/70
f 149/149/149 146/146/146 144/144/144
f 145/145/145 147/147/147 144/144/144
f 148/148/148 62/62/62 147/147/147
f 150/150/150 64/64/64 62/62/62
f 63/63/63 151/151/151 62/62/62
f 152/152/152 131/131/131 129/129/129
f 151/151/151 152/152/152 62/62/62
f 154/154/154 153/153/153 99/99/99
f 100/100/100 154/154/154 99/99/99
f 119/119/119 101/101/101 99/99/99
f 60/60/60 117/117/117 59/59/59
f 61/61/61 155/155/155 60/60/60
f 73/73/73 111/111/111 112/112/112
f 75/75/75 73/73/73 112/112/112
f 74/74/74 75/75/75 108/108/108
f 109/109/109 136/136/136 108/108/108
f 96/96/96 156/156/156 55/55/55
f 98/98/98 96/96/96 55/55/55
f 55/55/55 156/156/156 54/54/54
f 54/54/54 128/128/128 53/53/53
f 127/127/127 92/92/92 89/89/89
f 53/53/53 127/127/127 89/89/89
f 148/148/148 150/150/150 62/62/62
f 105/105/105 135/135/135 104/104/104
f 110/110/110 58/58/58 56/56/56
f 143/143/143 139/139/139 137/137/137
f 112/112/112 110/110/110 56/56/56
f 114/114/114 116/116/116 113/113/113
f 80/80/80 132/132/132 79/79/79
f 152/152/152 129/129/129 62/62/62
f 130/130/130 68/68/68 65/65/65
f 130/130/130 65/65/65 129/129/129
f 86/86/86 84/84/84 121/121/121
f 84/84/84 123/123/123 121/121/121
f 102/102/102 118/118/118 51/51/51
g cPK_10_001460_00_KAIRIKYex_RR_L_SB_1
f 158/158/158 157/157/157 43/43/43
f 159/159/159 14/14/14 11/11/11
f 160/160/160 157/157/157 158/158/158
f 1/1/1 14/14/14 159/159/159
f 161/161/161 1/1/1 159/159/159
f 164/164/164 163/163/163 162/162/162
f 165/165/165 164/164/164 162/162/162
f 159/159/159 12/12/12 40/40/40
f 166/166/166 159/159/159 40/40/40
f 167/167/167 161/161/161 159/159/159
f 165/165/165 162/162/162 168/168/168
f 169/169/169 165/165/165 168/168/168
f 169/169/169 168/168/168 28/28/28
f 170/170/170 4/4/4 1/1/1
f 161/161/161 170/170/170 1/1/1
f 170/170/170 172/172/172 171/171/171
f 173/173/173 170/170/170 171/171/171
f 4/4/4 170/170/170 173/173/173
f 8/8/8 4/4/4 173/173/173
f 166/166/166 17/17/17 18/18/18
f 174/174/174 166/166/166 18/18/18
f 167/167/167 166/166/166 174/174/174
f 175/175/175 167/167/167 174/174/174
f 177/177/177 176/176/176 171/171/171
f 172/172/172 177/177/177 171/171/171
f 176/176/176 47/47/47 35/35/35
f 171/171/171 176/176/176 35/35/35
f 174/174/174 18/18/18 178/178/178
f 174/174/174 178/178/178 179/179/179
f 175/175/175 179/179/179 180/180/180
f 177/177/177 180/180/180 181/181/181
f 176/176/176 181/181/181 48/48/48
f 171/171/171 35/35/35 7/7/7
f 173/173/173 171/171/171 7/7/7
f 8/8/8 173/173/173 7/7/7
f 175/175/175 180/180/180 177/177/177
f 175/175/175 177/177/177 172/172/172
f 167/167/167 175/175/175 172/172/172
f 167/167/167 172/172/172 170/170/170
f 163/163/163 24/24/24 25/25/25
f 162/162/162 25/25/25 27/27/27
f 168/168/168 27/27/27 28/28/28
f 182/182/182 163/163/163 164/164/164
f 182/182/182 21/21/21 23/23/23
f 184/184/184 183/183/183 180/180/180
f 183/183/183 181/181/181 180/180/180
f 181/181/181 183/183/183 48/48/48
f 157/157/157 178/178/178 42/42/42
f 185/185/185 37/37/37 38/38/38
f 188/188/188 187/187/187 186/186/186
f 190/190/190 189/189/189 32/32/32
f 190/190/190 46/46/46 49/49/49
f 166/166/166 40/40/40 17/17/17
f 193/193/193 192/192/192 191/191/191
f 182/182/182 44/44/44 21/21/21
f 185/185/185 188/188/188 192/192/192
f 193/193/193 45/45/45 37/37/37
f 185/185/185 192/192/192 193/193/193
f 18/18/18 42/42/42 178/178/178
f 175/175/175 174/174/174 179/179/179
f 157/157/157 42/42/42 43/43/43
f 43/43/43 44/44/44 158/158/158
f 160/160/160 165/165/165 169/169/169
f 160/160/160 164/164/164 165/165/165
f 160/160/160 158/158/158 164/164/164
f 186/186/186 160/160/160 169/169/169
f 186/186/186 191/191/191 192/192/192
f 194/194/194 178/178/178 157/157/157
f 194/194/194 157/157/157 160/160/160
f 194/194/194 160/160/160 187/187/187
f 184/184/184 179/179/179 178/178/178
f 184/184/184 194/194/194 187/187/187
f 187/187/187 188/188/188 190/190/190
f 183/183/183 187/187/187 190/190/190
f 188/188/188 185/185/185 189/189/189
f 190/190/190 188/188/188 189/189/189
f 189/189/189 38/38/38 31/31/31
f 184/184/184 178/178/178 194/194/194
f 159/159/159 11/11/11 12/12/12
f 169/169/169 28/28/28 45/45/45
f 191/191/191 169/169/169 45/45/45
f 160/160/160 186/186/186 187/187/187
f 186/186/186 169/169/169 191/191/191
f 44/44/44 182/182/182 158/158/158
f 162/162/162 163/163/163 25/25/25
f 23/23/23 163/163/163 182/182/182
f 189/189/189 31/31/31 32/32/32
f 158/158/158 182/182/182 164/164/164
f 23/23/23 24/24/24 163/163/163
f 168/168/168 162/162/162 27/27/27
f 185/185/185 193/193/193 37/37/37
f 193/193/193 191/191/191 45/45/45
f 184/184/184 187/187/187 183/183/183
f 49/49/49 183/183/183 190/190/190
f 188/188/188 186/186/186 192/192/192
f 189/189/189 185/185/185 38/38/38
f 190/190/190 32/32/32 46/46/46
f 49/49/49 48/48/48 183/183/183
f 176/176/176 48/48/48 47/47/47
f 177/177/177 181/181/181 176/176/176
f 184/184/184 180/180/180 179/179/179
f 167/167/167 159/159/159 166/166/166
f 161/161/161 167/167/167 170/170/170
f 195/195/195 126/126/126 91/91/91
f 196/196/196 139/139/139 143/143/143
f 199/199/199 198/198/198 197/197/197
f 202/202/202 201/201/201 200/200/200
f 203/203/203 202/202/202 200/200/200
f 206/206/206 205/205/205 204/204/204
f 100/100/100 207/207/207 154/154/154
f 209/209/209 208/208/208 84/84/84
f 210/210/210 148/148/148 145/145/145
f 63/63/63 212/212/212 211/211/211
f 213/213/213 142/142/142 138/138/138
f 216/216/216 215/215/215 214/214/214
f 218/218/218 217/217/217 123/123/123
f 221/221/221 220/220/220 219/219/219
f 222/222/222 221/221/221 219/219/219
f 217/217/217 220/220/220 221/221/221
f 223/223/223 217/217/217 221/221/221
f 224/224/224 73/73/73 74/74/74
f 225/225/225 224/224/224 74/74/74
f 227/227/227 220/220/220 226/226/226
f 223/223/223 221/221/221 228/228/228
f 101/101/101 223/223/223 228/228/228
f 228/228/228 221/221/221 222/222/222
f 206/206/206 228/228/228 222/222/222
f 202/202/202 203/203/203 229/229/229
f 230/230/230 202/202/202 229/229/229
f 100/100/100 228/228/228 207/207/207
f 232/232/232 198/198/198 231/231/231
f 233/233/233 229/229/229 203/203/203
f 205/205/205 233/233/233 203/203/203
f 203/203/203 200/200/200 204/204/204
f 205/205/205 203/203/203 204/204/204
f 234/234/234 197/197/197 198/198/198
f 101/101/101 119/119/119 223/223/223
f 119/119/119 102/102/102 223/223/223
f 102/102/102 103/103/103 223/223/223
f 217/217/217 122/122/122 123/123/123
f 223/223/223 103/103/103 52/52/52
f 120/120/120 217/217/217 52/52/52
f 120/120/120 122/122/122 217/217/217
f 79/79/79 236/236/236 235/235/235
f 77/77/77 79/79/79 235/235/235
f 230/230/230 116/116/116 117/117/117
f 60/60/60 155/155/155 201/201/201
f 202/202/202 60/60/60 201/201/201
f 117/117/117 60/60/60 202/202/202
f 230/230/230 117/117/117 202/202/202
f 133/133/133 237/237/237 199/199/199
f 132/132/132 133/133/133 199/199/199
f 199/199/199 237/237/237 198/198/198
f 239/239/239 238/238/238 235/235/235
f 236/236/236 239/239/239 235/235/235
f 240/240/240 113/113/113 116/116/116
f 230/230/230 229/229/229 231/231/231
f 240/240/240 230/230/230 231/231/231
f 232/232/232 231/231/231 229/229/229
f 233/233/233 232/232/232 229/229/229
f 133/133/133 113/113/113 240/240/240
f 237/237/237 133/133/133 240/240/240
f 240/240/240 231/231/231 198/198/198
f 237/237/237 240/240/240 198/198/198
f 236/236/236 79/79/79 132/132/132
f 199/199/199 236/236/236 132/132/132
f 199/199/199 197/197/197 239/239/239
f 236/236/236 199/199/199 239/239/239
f 242/242/242 216/216/216 241/241/241
f 214/214/214 238/238/238 239/239/239
f 241/241/241 214/214/214 239/239/239
f 241/241/241 239/239/239 197/197/197
f 234/234/234 241/241/241 197/197/197
f 245/245/245 244/244/244 243/243/243
f 246/246/246 245/245/245 243/243/243
f 242/242/242 245/245/245 216/216/216
f 226/226/226 220/220/220 247/247/247
f 248/248/248 224/224/224 225/225/225
f 251/251/251 250/250/250 249/249/249
f 252/252/252 251/251/251 249/249/249
f 253/253/253 251/251/251 252/252/252
f 254/254/254 253/253/253 252/252/252
f 134/134/134 76/76/76 249/249/249
f 250/250/250 134/134/134 249/249/249
f 256/256/256 255/255/255 253/253/253
f 254/254/254 256/256/256 253/253/253
f 196/196/196 110/110/110 111/111/111
f 257/257/257 196/196/196 111/111/111
f 257/257/257 111/111/111 73/73/73
f 224/224/224 257/257/257 73/73/73
f 225/225/225 74/74/74 108/108/108
f 258/258/258 225/225/225 108/108/108
f 258/258/258 108/108/108 136/136/136
f 196/196/196 58/58/58 110/110/110
f 196/196/196 143/143/143 58/58/58
f 261/261/261 260/260/260 259/259/259
f 264/264/264 263/263/263 262/262/262
f 265/265/265 264/264/264 262/262/262
f 266/266/266 67/67/67 68/68/68
f 267/267/267 156/156/156 96/96/96
f 268/268/268 128/128/128 54/54/54
f 269/269/269 91/91/91 92/92/92
f 264/264/264 83/83/83 125/125/125
f 265/265/265 262/262/262 270/270/270
f 261/261/261 259/259/259 211/211/211
f 264/264/264 94/94/94 263/263/263
f 264/264/264 125/125/125 94/94/94
f 271/271/271 152/152/152 151/151/151
f 211/211/211 259/259/259 272/272/272
f 271/271/271 211/211/211 272/272/272
f 259/259/259 270/270/270 273/273/273
f 272/272/272 259/259/259 273/273/273
f 270/270/270 262/262/262 274/274/274
f 273/273/273 270/270/270 274/274/274
f 262/262/262 263/263/263 195/195/195
f 274/274/274 262/262/262 195/195/195
f 263/263/263 94/94/94 95/95/95
f 195/195/195 95/95/95 126/126/126
f 271/271/271 266/266/266 130/130/130
f 266/266/266 271/271/271 272/272/272
f 272/272/272 273/273/273 267/267/267
f 275/275/275 272/272/272 267/267/267
f 273/273/273 274/274/274 268/268/268
f 267/267/267 273/273/273 268/268/268
f 269/269/269 195/195/195 91/91/91
f 266/266/266 68/68/68 130/130/130
f 271/271/271 131/131/131 152/152/152
f 211/211/211 151/151/151 63/63/63
f 275/275/275 97/97/97 67/67/67
f 275/275/275 96/96/96 97/97/97
f 275/275/275 267/267/267 96/96/96
f 267/267/267 54/54/54 156/156/156
f 267/267/267 268/268/268 54/54/54
f 268/268/268 269/269/269 127/127/127
f 269/269/269 268/268/268 274/274/274
f 269/269/269 92/92/92 127/127/127
f 219/219/219 220/220/220 227/227/227
f 232/232/232 227/227/227 276/276/276
f 247/247/247 220/220/220 217/217/217
f 208/208/208 123/123/123 84/84/84
f 276/276/276 234/234/234 198/198/198
f 223/223/223 52/52/52 217/217/217
f 246/246/246 264/264/264 265/265/265
f 227/227/227 226/226/226 277/277/277
f 278/278/278 227/227/227 277/277/277
f 265/265/265 260/260/260 279/279/279
f 246/246/246 265/265/265 279/279/279
f 246/246/246 243/243/243 264/264/264
f 243/243/243 209/209/209 87/87/87
f 243/243/243 244/244/244 209/209/209
f 209/209/209 280/280/280 208/208/208
f 85/85/85 87/87/87 209/209/209
f 209/209/209 84/84/84 85/85/85
f 243/243/243 83/83/83 264/264/264
f 243/243/243 87/87/87 124/124/124
f 279/279/279 215/215/215 246/246/246
f 260/260/260 261/261/261 279/279/279
f 234/234/234 242/242/242 241/241/241
f 278/278/278 242/242/242 276/276/276
f 234/234/234 276/276/276 242/242/242
f 278/278/278 277/277/277 244/244/244
f 245/245/245 278/278/278 244/244/244
f 244/244/244 280/280/280 209/209/209
f 278/278/278 276/276/276 227/227/227
f 215/215/215 245/245/245 246/246/246
f 277/277/277 226/226/226 280/280/280
f 280/280/280 226/226/226 247/247/247
f 280/280/280 247/247/247 208/208/208
f 214/214/214 215/215/215 281/281/281
f 282/282/282 279/279/279 261/261/261
f 76/76/76 77/77/77 235/235/235
f 249/249/249 76/76/76 235/235/235
f 249/249/249 235/235/235 238/238/238
f 252/252/252 249/249/249 238/238/238
f 254/254/254 252/252/252 238/238/238
f 214/214/214 254/254/254 238/238/238
f 214/214/214 281/281/281 256/256/256
f 254/254/254 214/214/214 256/256/256
f 282/282/282 64/64/64 150/150/150
f 210/210/210 283/283/283 255/255/255
f 256/256/256 210/210/210 255/255/255
f 256/256/256 281/281/281 282/282/282
f 210/210/210 256/256/256 282/282/282
f 281/281/281 215/215/215 279/279/279
f 282/282/282 281/281/281 279/279/279
f 282/282/282 261/261/261 212/212/212
f 210/210/210 150/150/150 148/148/148
f 210/210/210 282/282/282 150/150/150
f 145/145/145 146/146/146 283/283/283
f 210/210/210 145/145/145 283/283/283
f 285/285/285 258/258/258 284/284/284
f 286/286/286 285/285/285 284/284/284
f 287/287/287 213/213/213 139/139/139
f 290/290/290 289/289/289 288/288/288
f 250/250/250 290/290/290 288/288/288
f 290/290/290 292/292/292 291/291/291
f 289/289/289 290/290/290 291/291/291
f 292/292/292 294/294/294 293/293/293
f 291/291/291 292/292/292 293/293/293
f 294/294/294 296/296/296 295/295/295
f 293/293/293 294/294/294 295/295/295
f 296/296/296 71/71/71 72/72/72
f 295/295/295 296/296/296 72/72/72
f 287/287/287 196/196/196 257/257/257
f 289/289/289 285/285/285 286/286/286
f 288/288/288 289/289/289 286/286/286
f 289/289/289 291/291/291 248/248/248
f 285/285/285 289/289/289 248/248/248
f 248/248/248 291/291/291 293/293/293
f 287/287/287 248/248/248 293/293/293
f 293/293/293 295/295/295 213/213/213
f 287/287/287 293/293/293 213/213/213
f 295/295/295 72/72/72 141/141/141
f 213/213/213 138/138/138 139/139/139
f 141/141/141 213/213/213 295/295/295
f 250/250/250 251/251/251 290/290/290
f 251/251/251 253/253/253 292/292/292
f 290/290/290 251/251/251 292/292/292
f 253/253/253 255/255/255 294/294/294
f 292/292/292 253/253/253 294/294/294
f 255/255/255 283/283/283 296/296/296
f 294/294/294 255/255/255 296/296/296
f 283/283/283 146/146/146 149/149/149
f 296/296/296 149/149/149 71/71/71
f 296/296/296 283/283/283 149/149/149
f 257/257/257 224/224/224 248/248/248
f 287/287/287 257/257/257 248/248/248
f 285/285/285 248/248/248 225/225/225
f 285/285/285 225/225/225 258/258/258
f 286/286/286 284/284/284 134/134/134
f 288/288/288 286/286/286 134/134/134
f 250/250/250 288/288/288 134/134/134
f 284/284/284 136/136/136 107/107/107
f 284/284/284 135/135/135 134/134/134
f 284/284/284 104/104/104 135/135/135
f 107/107/107 104/104/104 284/284/284
f 287/287/287 139/139/139 196/196/196
f 284/284/284 258/258/258 136/136/136
f 141/141/141 142/142/142 213/213/213
f 100/100/100 101/101/101 228/228/228
f 276/276/276 198/198/198 232/232/232
f 218/218/218 123/123/123 208/208/208
f 247/247/247 218/218/218 208/208/208
f 218/218/218 247/247/247 217/217/217
f 241/241/241 216/216/216 214/214/214
f 266/266/266 272/272/272 275/275/275
f 266/266/266 275/275/275 67/67/67
f 268/268/268 127/127/127 128/128/128
f 269/269/269 274/274/274 195/195/195
f 211/211/211 271/271/271 151/151/151
f 260/260/260 270/270/270 259/259/259
f 260/260/260 265/265/265 270/270/270
f 195/195/195 263/263/263 95/95/95
f 230/230/230 240/240/240 116/116/116
f 211/211/211 212/212/212 261/261/261
f 271/271/271 130/130/130 131/131/131
f 243/243/243 124/124/124 83/83/83
f 242/242/242 278/278/278 245/245/245
f 282/282/282 212/212/212 64/64/64
f 63/63/63 64/64/64 212/212/212
f 215/215/215 216/216/216 245/245/245
f 232/232/232 219/219/219 227/227/227
f 219/219/219 232/232/232 233/233/233
f 222/222/222 219/219/219 233/233/233
f 206/206/206 222/222/222 233/233/233
f 205/205/205 206/206/206 233/233/233
f 206/206/206 204/204/204 207/207/207
f 228/228/228 206/206/206 207/207/207
f 244/244/244 277/277/277 280/280/280
f 299/299/299 298/298/298 297/297/297
f 300/300/300 299/299/299 297/297/297
f 299/299/299 302/302/302 301/301/301
f 298/298/298 299/299/299 301/301/301
f 305/305/305 304/304/304 303/303/303
f 308/308/308 307/307/307 306/306/306
f 309/309/309 308/308/308 306/306/306
f 309/309/309 306/306/306 310/310/310
f 311/311/311 309/309/309 310/310/310
f 311/311/311 310/310/310 299/299/299
f 300/300/300 311/311/311 299/299/299
f 310/310/310 302/302/302 299/299/299
f 310/310/310 312/312/312 302/302/302
f 314/314/314 313/313/313 306/306/306
f 307/307/307 314/314/314 306/306/306
f 313/313/313 312/312/312 310/310/310
f 306/306/306 313/313/313 310/310/310
f 312/312/312 315/315/315 302/302/302
f 315/315/315 301/301/301 302/302/302
f 300/300/300 297/297/297 316/316/316
f 318/318/318 317/317/317 311/311/311
f 300/300/300 318/318/318 311/311/311
f 317/317/317 319/319/319 309/309/309
f 311/311/311 317/317/317 309/309/309
f 319/319/319 320/320/320 308/308/308
f 309/309/309 319/319/319 308/308/308
f 320/320/320 321/321/321 305/305/305
f 308/308/308 320/320/320 305/305/305
f 305/305/305 321/321/321 322/322/322
f 305/305/305 322/322/322 304/304/304
f 318/318/318 300/300/300 316/316/316
f 308/308/308 305/305/305 307/307/307
f 303/303/303 323/323/323 307/307/307
f 323/323/323 314/314/314 307/307/307
f 305/305/305 303/303/303 307/307/307
g cPK_10_001460_00_KAIRIKYex_RR_L_SB_2
f 326/326/326 325/325/325 324/324/324
f 329/329/329 328/328/328 327/327/327
f 330/330/330 329/329/329 327/327/327
f 333/333/333 332/332/332 331/331/331
f 334/334/334 333/333/333 331/331/331
f 337/337/337 336/336/336 335/335/335
f 340/340/340 339/339/339 338/338/338
f 341/341/341 340/340/340 338/338/338
f 344/344/344 343/343/343 342/342/342
f 345/345/345 344/344/344 342/342/342
f 348/348/348 347/347/347 346/346/346
f 349/349/349 348/348/348 346/346/346
f 352/352/352 351/351/351 350/350/350
f 353/353/353 352/352/352 350/350/350
f 354/354/354 328/328/328 329/329/329
f 329/329/329 355/355/355 354/354/354
f 358/358/358 357/357/357 356/356/356
f 359/359/359 358/358/358 356/356/356
f 362/362/362 361/361/361 360/360/360
f 363/363/363 362/362/362 360/360/360
f 335/335/335 365/365/365 364/364/364
f 366/366/366 335/335/335 364/364/364
f 344/344/344 367/367/367 343/343/343
f 370/370/370 369/369/369 368/368/368
f 371/371/371 370/370/370 368/368/368
f 373/373/373 372/372/372 324/324/324
f 374/374/374 373/373/373 324/324/324
f 371/371/371 368/368/368 375/375/375
f 376/376/376 371/371/371 375/375/375
f 377/377/377 353/353/353 350/350/350
f 359/359/359 356/356/356 378/378/378
f 380/380/380 379/379/379 332/332/332
f 333/333/333 380/380/380 332/332/332
f 359/359/359 378/378/378 379/379/379
f 380/380/380 359/359/359 379/379/379
f 334/334/334 331/331/331 361/361/361
f 362/362/362 334/334/334 361/361/361
f 382/382/382 381/381/381 337/337/337
f 383/383/383 339/339/339 340/340/340
f 345/345/345 342/342/342 369/369/369
f 370/370/370 345/345/345 369/369/369
f 341/341/341 338/338/338 367/367/367
f 344/344/344 341/341/341 367/367/367
f 330/330/330 327/327/327 357/357/357
f 358/358/358 330/330/330 357/357/357
f 385/385/385 384/384/384 372/372/372
f 386/386/386 385/385/385 372/372/372
f 385/385/385 387/387/387 384/384/384
f 390/390/390 389/389/389 388/388/388
f 392/392/392 326/326/326 391/391/391
f 393/393/393 392/392/392 391/391/391
f 389/389/389 393/393/393 388/388/388
f 393/393/393 391/391/391 388/388/388
f 394/394/394 390/390/390 388/388/388
f 373/373/373 386/386/386 372/372/372
f 352/352/352 395/395/395 351/351/351
f 394/394/394 388/388/388 351/351/351
f 395/395/395 394/394/394 351/351/351
f 377/377/377 350/350/350 396/396/396
f 397/397/397 377/377/377 396/396/396
f 399/399/399 349/349/349 398/398/398
f 349/349/349 399/399/399 400/400/400
f 349/349/349 346/346/346 398/398/398
f 376/376/376 375/375/375 401/401/401
f 348/348/348 401/401/401 347/347/347
f 336/336/336 365/365/365 335/335/335
f 337/337/337 381/381/381 336/336/336
f 363/363/363 360/360/360 382/382/382
f 363/363/363 382/382/382 337/337/337
f 366/366/366 364/364/364 383/383/383
f 366/366/366 383/383/383 340/340/340
f 349/349/349 400/400/400 396/396/396
f 400/400/400 397/397/397 396/396/396
f 355/355/355 387/387/387 402/402/402
f 355/355/355 402/402/402 354/354/354
f 326/326/326 392/392/392 325/325/325
f 325/325/325 374/374/374 324/324/324
f 348/348/348 376/376/376 401/401/401
f 387/387/387 355/355/355 384/384/384
f 405/405/405 404/404/404 403/403/403
f 406/406/406 405/405/405 403/403/403
f 409/409/409 408/408/408 407/407/407
f 412/412/412 411/411/411 410/410/410
f 413/413/413 412/412/412 410/410/410
f 416/416/416 415/415/415 414/414/414
f 417/417/417 416/416/416 414/414/414
f 407/407/407 408/408/408 415/415/415
f 416/416/416 407/407/407 415/415/415
f 420/420/420 419/419/419 418/418/418
f 421/421/421 420/420/420 418/418/418
f 424/424/424 423/423/423 422/422/422
f 425/425/425 424/424/424 422/422/422
f 428/428/428 427/427/427 426/426/426
f 429/429/429 428/428/428 426/426/426
f 432/432/432 431/431/431 430/430/430
f 433/433/433 432/432/432 430/430/430
f 404/404/404 405/405/405 434/434/434
f 433/433/433 430/430/430 435/435/435
f 436/436/436 433/433/433 435/435/435
f 406/406/406 403/403/403 431/431/431
f 432/432/432 406/406/406 431/431/431
f 439/439/439 438/438/438 437/437/437
f 440/440/440 439/439/439 437/437/437
f 441/441/441 421/421/421 418/418/418
f 442/442/442 441/441/441 418/418/418
f 413/413/413 410/410/410 441/441/441
f 442/442/442 413/413/413 441/441/441
f 417/417/417 414/414/414 411/411/411
f 412/412/412 417/417/417 411/411/411
f 425/425/425 422/422/422 419/419/419
f 420/420/420 425/425/425 419/419/419
f 429/429/429 426/426/426 423/423/423
f 424/424/424 429/429/429 423/423/423
f 444/444/444 443/443/443 427/427/427
f 428/428/428 444/444/444 427/427/427
f 436/436/436 435/435/435 443/443/443
f 444/444/444 436/436/436 443/443/443
f 409/409/409 407/407/407 438/438/438
f 439/439/439 409/409/409 438/438/438
f 404/404/404 434/434/434 437/437/437
f 434/434/434 440/440/440 437/437/437
f 316/316/316 446/446/446 445/445/445
f 318/318/318 316/316/316 445/445/445
f 318/318/318 445/445/445 447/447/447
f 317/317/317 318/318/318 447/447/447
f 448/448/448 303/303/303 304/304/304
f 449/449/449 448/448/448 304/304/304
f 323/323/323 303/303/303 448/448/448
f 451/451/451 450/450/450 315/315/315
f 452/452/452 446/446/446 297/297/297
f 313/313/313 314/314/314 453/453/453
f 454/454/454 320/320/320 319/319/319
f 455/455/455 454/454/454 319/319/319
f 456/456/456 322/322/322 321/321/321
f 449/449/449 304/304/304 322/322/322
f 456/456/456 449/449/449 322/322/322
f 314/314/314 323/323/323 453/453/453
f 323/323/323 448/448/448 453/453/453
f 452/452/452 297/297/297 298/298/298
f 452/452/452 298/298/298 301/301/301
f 319/319/319 317/317/317 447/447/447
f 455/455/455 319/319/319 447/447/447
f 454/454/454 321/321/321 320/320/320
f 454/454/454 456/456/456 321/321/321
f 451/451/451 312/312/312 313/313/313
f 451/451/451 313/313/313 453/453/453
f 451/451/451 315/315/315 312/312/312
f 450/450/450 301/301/301 315/315/315
f 450/450/450 452/452/452 301/301/301
f 446/446/446 316/316/316 297/297/297
f 459/459/459 458/458/458 457/457/457
f 462/462/462 461/461/461 460/460/460
f 463/463/463 462/462/462 460/460/460
f 465/465/465 461/461/461 464/464/464
f 468/468/468 467/467/467 466/466/466
f 469/469/469 468/468/468 466/466/466
f 472/472/472 471/471/471 470/470/470
f 473/473/473 472/472/472 470/470/470
f 476/476/476 475/475/475 474/474/474
f 479/479/479 478/478/478 477/477/477
f 477/477/477 480/480/480 479/479/479
f 480/480/480 481/481/481 479/479/479
f 484/484/484 483/483/483 482/482/482
f 485/485/485 484/484/484 482/482/482
f 487/487/487 486/486/486 484/484/484
f 485/485/485 487/487/487 484/484/484
f 488/488/488 477/477/477 478/478/478
f 482/482/482 483/483/483 479/479/479
f 481/481/481 482/482/482 479/479/479
f 473/473/473 470/470/470 489/489/489
f 490/490/490 473/473/473 489/489/489
f 469/469/469 466/466/466 471/471/471
f 472/472/472 469/469/469 471/471/471
f 492/492/492 491/491/491 467/467/467
f 468/468/468 492/492/492 467/467/467
f 492/492/492 493/493/493 491/491/491
f 496/496/496 495/495/495 494/494/494
f 497/497/497 496/496/496 494/494/494
f 499/499/499 498/498/498 495/495/495
f 496/496/496 499/499/499 495/495/495
f 500/500/500 463/463/463 460/460/460
f 503/503/503 502/502/502 501/501/501
f 502/502/502 504/504/504 501/501/501
f 506/506/506 494/494/494 505/505/505
f 508/508/508 507/507/507 458/458/458
f 507/507/507 509/509/509 458/458/458
f 510/510/510 459/459/459 457/457/457
f 459/459/459 508/508/508 458/458/458
f 513/513/513 512/512/512 511/511/511
f 499/499/499 514/514/514 498/498/498
f 514/514/514 511/511/511 498/498/498
f 514/514/514 513/513/513 511/511/511
f 512/512/512 510/510/510 457/457/457
f 512/512/512 457/457/457 511/511/511
f 501/501/501 504/504/504 515/515/515
f 516/516/516 500/500/500 501/501/501
f 500/500/500 460/460/460 501/501/501
f 458/458/458 509/509/509 503/503/503
f 517/517/517 505/505/505 486/486/486
f 487/487/487 517/517/517 486/486/486
f 474/474/474 488/488/488 478/478/478
f 474/474/474 475/475/475 488/488/488
f 492/492/492 465/465/465 493/493/493
f 465/465/465 464/464/464 493/493/493
f 501/501/501 515/515/515 516/516/516
f 458/458/458 503/503/503 501/501/501
f 490/490/490 476/476/476 474/474/474
f 490/490/490 489/489/489 476/476/476
f 517/517/517 506/506/506 505/505/505
f 506/506/506 497/497/497 494/494/494
f 461/461/461 462/462/462 464/464/464
g cPK_10_001460_00_KAIRIKYex_RR_L_SB_3
f 520/520/520 519/519/519 518/518/518
f 523/523/523 522/522/522 521/521/521
f 524/524/524 523/523/523 521/521/521
f 527/527/527 526/526/526 525/525/525
f 529/529/529 528/528/528 524/524/524
f 531/531/531 338/338/338 530/530/530
f 533/533/533 530/530/530 532/532/532
f 536/536/536 535/535/535 534/534/534
f 537/537/537 536/536/536 534/534/534
f 528/528/528 538/538/538 523/523/523
f 519/519/519 540/540/540 539/539/539
f 528/528/528 523/523/523 524/524/524
f 542/542/542 392/392/392 541/541/541
f 545/545/545 544/544/544 543/543/543
f 546/546/546 545/545/545 543/543/543
f 544/544/544 548/548/548 547/547/547
f 543/543/543 544/544/544 547/547/547
f 551/551/551 550/550/550 549/549/549
f 554/554/554 553/553/553 552/552/552
f 555/555/555 554/554/554 552/552/552
f 556/556/556 382/382/382 360/360/360
f 552/552/552 556/556/556 360/360/360
f 557/557/557 336/336/336 381/381/381
f 558/558/558 557/557/557 381/381/381
f 559/559/559 365/365/365 336/336/336
f 557/557/557 559/559/559 336/336/336
f 560/560/560 383/383/383 364/364/364
f 558/558/558 381/381/381 382/382/382
f 556/556/556 558/558/558 382/382/382
f 550/550/550 554/554/554 555/555/555
f 549/549/549 550/550/550 555/555/555
f 548/548/548 550/550/550 551/551/551
f 547/547/547 548/548/548 551/551/551
f 562/562/562 561/561/561 530/530/530
f 522/522/522 564/564/564 563/563/563
f 552/552/552 360/360/360 361/361/361
f 555/555/555 552/552/552 361/361/361
f 555/555/555 361/361/361 331/331/331
f 549/549/549 555/555/555 331/331/331
f 549/549/549 331/331/331 332/332/332
f 551/551/551 549/549/549 332/332/332
f 551/551/551 332/332/332 379/379/379
f 547/547/547 551/551/551 379/379/379
f 547/547/547 379/379/379 378/378/378
f 543/543/543 547/547/547 378/378/378
f 543/543/543 378/378/378 356/356/356
f 546/546/546 543/543/543 356/356/356
f 553/553/553 565/565/565 556/556/556
f 552/552/552 553/553/553 556/556/556
f 565/565/565 566/566/566 558/558/558
f 556/556/556 565/565/565 558/558/558
f 566/566/566 567/567/567 557/557/557
f 558/558/558 566/566/566 557/557/557
f 567/567/567 568/568/568 559/559/559
f 557/557/557 567/567/567 559/559/559
f 568/568/568 569/569/569 560/560/560
f 559/559/559 568/568/568 560/560/560
f 560/560/560 569/569/569 570/570/570
f 559/559/559 560/560/560 364/364/364
f 559/559/559 364/364/364 365/365/365
f 560/560/560 570/570/570 571/571/571
f 569/569/569 572/572/572 570/570/570
f 560/560/560 339/339/339 383/383/383
f 533/533/533 532/532/532 339/339/339
f 338/338/338 339/339/339 532/532/532
f 338/338/338 532/532/532 530/530/530
f 531/531/531 561/561/561 573/573/573
f 570/570/570 575/575/575 574/574/574
f 571/571/571 570/570/570 574/574/574
f 577/577/577 562/562/562 576/576/576
f 573/573/573 562/562/562 577/577/577
f 562/562/562 573/573/573 561/561/561
f 533/533/533 574/574/574 562/562/562
f 574/574/574 578/578/578 576/576/576
f 533/533/533 562/562/562 530/530/530
f 564/564/564 522/522/522 579/579/579
f 580/580/580 564/564/564 579/579/579
f 522/522/522 523/523/523 539/539/539
f 579/579/579 522/522/522 539/539/539
f 581/581/581 546/546/546 356/356/356
f 583/583/583 581/581/581 582/582/582
f 584/584/584 583/583/583 582/582/582
f 582/582/582 356/356/356 357/357/357
f 582/582/582 327/327/327 328/328/328
f 527/527/527 586/586/586 585/585/585
f 587/587/587 527/527/527 585/585/585
f 586/586/586 589/589/589 588/588/588
f 585/585/585 586/586/586 588/588/588
f 570/570/570 572/572/572 575/575/575
f 574/574/574 575/575/575 578/578/578
f 585/585/585 588/588/588 537/537/537
f 534/534/534 585/585/585 537/537/537
f 587/587/587 585/585/585 534/534/534
f 590/590/590 587/587/587 534/534/534
f 580/580/580 579/579/579 586/586/586
f 527/527/527 580/580/580 586/586/586
f 579/579/579 539/539/539 589/589/589
f 586/586/586 579/579/579 589/589/589
f 591/591/591 590/590/590 534/534/534
f 535/535/535 591/591/591 534/534/534
f 521/521/521 522/522/522 563/563/563
f 521/521/521 563/563/563 545/545/545
f 584/584/584 354/354/354 402/402/402
f 584/584/584 328/328/328 354/354/354
f 584/584/584 582/582/582 328/328/328
f 592/592/592 590/590/590 591/591/591
f 593/593/593 592/592/592 591/591/591
f 593/593/593 567/567/567 566/566/566
f 592/592/592 593/593/593 566/566/566
f 526/526/526 553/553/553 554/554/554
f 525/525/525 526/526/526 554/554/554
f 592/592/592 566/566/566 565/565/565
f 592/592/592 526/526/526 587/587/587
f 594/594/594 550/550/550 548/548/548
f 544/544/544 545/545/545 563/563/563
f 595/595/595 544/544/544 563/563/563
f 595/595/595 563/563/563 564/564/564
f 525/525/525 554/554/554 550/550/550
f 594/594/594 525/525/525 550/550/550
f 580/580/580 525/525/525 594/594/594
f 536/536/536 578/578/578 575/575/575
f 535/535/535 536/536/536 575/575/575
f 575/575/575 572/572/572 591/591/591
f 535/535/535 575/575/575 591/591/591
f 593/593/593 591/591/591 572/572/572
f 593/593/593 569/569/569 568/568/568
f 593/593/593 568/568/568 567/567/567
f 593/593/593 572/572/572 569/569/569
f 594/594/594 595/595/595 564/564/564
f 595/595/595 594/594/594 548/548/548
f 595/595/595 548/548/548 544/544/544
f 529/529/529 524/524/524 583/583/583
f 597/597/597 596/596/596 529/529/529
f 582/582/582 357/357/357 327/327/327
f 583/583/583 524/524/524 521/521/521
f 581/581/581 583/583/583 521/521/521
f 521/521/521 545/545/545 546/546/546
f 582/582/582 581/581/581 356/356/356
f 581/581/581 521/521/521 546/546/546
f 583/583/583 584/584/584 402/402/402
f 597/597/597 583/583/583 402/402/402
f 402/402/402 387/387/387 596/596/596
f 597/597/597 402/402/402 596/596/596
f 387/387/387 385/385/385 596/596/596
f 599/599/599 598/598/598 576/576/576
f 598/598/598 600/600/600 577/577/577
f 601/601/601 573/573/573 577/577/577
f 589/589/589 539/539/539 540/540/540
f 602/602/602 537/537/537 588/588/588
f 603/603/603 602/602/602 588/588/588
f 604/604/604 536/536/536 537/537/537
f 599/599/599 578/578/578 536/536/536
f 604/604/604 599/599/599 536/536/536
f 603/603/603 588/588/588 589/589/589
f 600/600/600 606/606/606 605/605/605
f 609/609/609 608/608/608 607/607/607
f 541/541/541 610/610/610 607/607/607
f 611/611/611 541/541/541 607/607/607
f 529/529/529 612/612/612 538/538/538
f 385/385/385 613/613/613 612/612/612
f 596/596/596 385/385/385 612/612/612
f 386/386/386 614/614/614 613/613/613
f 385/385/385 386/386/386 613/613/613
f 373/373/373 615/615/615 614/614/614
f 386/386/386 373/373/373 614/614/614
f 374/374/374 616/616/616 615/615/615
f 373/373/373 374/374/374 615/615/615
f 325/325/325 392/392/392 542/542/542
f 325/325/325 542/542/542 616/616/616
f 374/374/374 325/325/325 616/616/616
f 529/529/529 596/596/596 612/612/612
f 529/529/529 538/538/538 528/528/528
f 612/612/612 617/617/617 538/538/538
f 613/613/613 618/618/618 617/617/617
f 612/612/612 613/613/613 617/617/617
f 616/616/616 542/542/542 541/541/541
f 614/614/614 615/615/615 541/541/541
f 613/613/613 614/614/614 611/611/611
f 389/389/389 390/390/390 610/610/610
f 393/393/393 389/389/389 610/610/610
f 392/392/392 393/393/393 610/610/610
f 392/392/392 610/610/610 541/541/541
f 615/615/615 616/616/616 541/541/541
f 617/617/617 619/619/619 538/538/538
f 618/618/618 608/608/608 619/619/619
f 617/617/617 618/618/618 619/619/619
f 611/611/611 607/607/607 608/608/608
f 618/618/618 611/611/611 608/608/608
f 519/519/519 538/538/538 619/619/619
f 518/518/518 519/519/519 619/619/619
f 518/518/518 619/619/619 608/608/608
f 609/609/609 518/518/518 608/608/608
f 621/621/621 620/620/620 610/610/610
f 622/622/622 394/394/394 395/395/395
f 622/622/622 621/621/621 390/390/390
f 625/625/625 624/624/624 623/623/623
f 520/520/520 518/518/518 609/609/609
f 626/626/626 520/520/520 609/609/609
f 626/626/626 609/609/609 620/620/620
f 627/627/627 626/626/626 620/620/620
f 627/627/627 620/620/620 621/621/621
f 628/628/628 627/627/627 621/621/621
f 628/628/628 621/621/621 622/622/622
f 625/625/625 622/622/622 352/352/352
f 353/353/353 625/625/625 352/352/352
f 377/377/377 625/625/625 353/353/353
f 377/377/377 624/624/624 625/625/625
f 625/625/625 628/628/628 622/622/622
f 629/629/629 624/624/624 397/397/397
f 377/377/377 397/397/397 624/624/624
f 540/540/540 519/519/519 630/630/630
f 631/631/631 540/540/540 630/630/630
f 520/520/520 630/630/630 519/519/519
f 631/631/631 630/630/630 632/632/632
f 633/633/633 631/631/631 632/632/632
f 634/634/634 540/540/540 631/631/631
f 626/626/626 632/632/632 630/630/630
f 520/520/520 626/626/626 630/630/630
f 627/627/627 623/623/623 632/632/632
f 626/626/626 627/627/627 632/632/632
f 620/620/620 607/607/607 610/610/610
f 620/620/620 609/609/609 607/607/607
f 613/613/613 611/611/611 618/618/618
f 614/614/614 541/541/541 611/611/611
f 627/627/627 628/628/628 623/623/623
f 628/628/628 625/625/625 623/623/623
f 635/635/635 623/623/623 624/624/624
f 636/636/636 635/635/635 624/624/624
f 633/633/633 632/632/632 623/623/623
f 635/635/635 633/633/633 623/623/623
f 636/636/636 624/624/624 629/629/629
f 637/637/637 636/636/636 629/629/629
f 634/634/634 631/631/631 633/633/633
f 638/638/638 634/634/634 633/633/633
f 638/638/638 633/633/633 635/635/635
f 638/638/638 635/635/635 636/636/636
f 639/639/639 638/638/638 636/636/636
f 641/641/641 637/637/637 640/640/640
f 637/637/637 641/641/641 639/639/639
f 640/640/640 398/398/398 346/346/346
f 637/637/637 629/629/629 398/398/398
f 640/640/640 637/637/637 398/398/398
f 637/637/637 639/639/639 636/636/636
f 642/642/642 401/401/401 375/375/375
f 643/643/643 347/347/347 401/401/401
f 642/642/642 643/643/643 401/401/401
f 643/643/643 346/346/346 347/347/347
f 643/643/643 640/640/640 346/346/346
f 605/605/605 642/642/642 375/375/375
f 605/605/605 375/375/375 368/368/368
f 600/600/600 605/605/605 368/368/368
f 606/606/606 642/642/642 605/605/605
f 606/606/606 643/643/643 642/642/642
f 643/643/643 606/606/606 641/641/641
f 531/531/531 367/367/367 338/338/338
f 369/369/369 600/600/600 368/368/368
f 342/342/342 600/600/600 369/369/369
f 342/342/342 601/601/601 600/600/600
f 343/343/343 531/531/531 601/601/601
f 643/643/643 641/641/641 640/640/640
f 342/342/342 343/343/343 601/601/601
f 343/343/343 367/367/367 531/531/531
f 634/634/634 603/603/603 540/540/540
f 634/634/634 638/638/638 602/602/602
f 603/603/603 634/634/634 602/602/602
f 638/638/638 639/639/639 604/604/604
f 602/602/602 638/638/638 604/604/604
f 604/604/604 639/639/639 599/599/599
f 599/599/599 641/641/641 598/598/598
f 598/598/598 606/606/606 600/600/600
f 598/598/598 577/577/577 576/576/576
f 603/603/603 589/589/589 540/540/540
f 526/526/526 592/592/592 565/565/565
f 526/526/526 565/565/565 553/553/553
f 527/527/527 587/587/587 526/526/526
f 580/580/580 527/527/527 525/525/525
f 580/580/580 594/594/594 564/564/564
f 592/592/592 587/587/587 590/590/590
f 533/533/533 560/560/560 571/571/571
f 562/562/562 574/574/574 576/576/576
f 533/533/533 571/571/571 574/574/574
f 519/519/519 539/539/539 523/523/523
f 538/538/538 519/519/519 523/523/523
f 602/602/602 604/604/604 537/537/537
f 629/629/629 399/399/399 398/398/398
f 629/629/629 400/400/400 399/399/399
f 629/629/629 397/397/397 400/400/400
f 622/622/622 395/395/395 352/352/352
f 597/597/597 529/529/529 583/583/583
f 600/600/600 601/601/601 577/577/577
f 601/601/601 531/531/531 573/573/573
f 531/531/531 530/530/530 561/561/561
f 599/599/599 576/576/576 578/578/578
f 621/621/621 610/610/610 390/390/390
f 622/622/622 390/390/390 394/394/394
f 641/641/641 606/606/606 598/598/598
f 533/533/533 339/339/339 560/560/560
f 639/639/639 641/641/641 599/599/599
f 644/644/644 405/405/405 406/406/406
f 646/646/646 644/644/644 645/645/645
f 644/644/644 647/647/647 439/439/439
f 644/644/644 646/646/646 647/647/647
f 648/648/648 444/444/444 428/428/428
f 651/651/651 650/650/650 649/649/649
f 652/652/652 651/651/651 649/649/649
f 653/653/653 648/648/648 429/429/429
f 654/654/654 653/653/653 429/429/429
f 656/656/656 655/655/655 646/646/646
f 645/645/645 656/656/656 646/646/646
f 658/658/658 657/657/657 651/651/651
f 652/652/652 658/658/658 651/651/651
f 439/439/439 647/647/647 659/659/659
f 409/409/409 439/439/439 659/659/659
f 647/647/647 646/646/646 655/655/655
f 659/659/659 647/647/647 655/655/655
f 652/652/652 649/649/649 660/660/660
f 661/661/661 652/652/652 660/660/660
f 658/658/658 652/652/652 661/661/661
f 662/662/662 658/658/658 661/661/661
f 664/664/664 663/663/663 655/655/655
f 656/656/656 664/664/664 655/655/655
f 655/655/655 663/663/663 415/415/415
f 659/659/659 655/655/655 415/415/415
f 659/659/659 415/415/415 408/408/408
f 666/666/666 665/665/665 648/648/648
f 653/653/653 666/666/666 648/648/648
f 665/665/665 436/436/436 444/444/444
f 649/649/649 653/653/653 654/654/654
f 660/660/660 649/649/649 654/654/654
f 649/649/649 650/650/650 666/666/666
f 653/653/653 649/649/649 666/666/666
f 644/644/644 433/433/433 436/436/436
f 644/644/644 432/432/432 433/433/433
f 406/406/406 432/432/432 644/644/644
f 665/665/665 644/644/644 436/436/436
f 666/666/666 644/644/644 665/665/665
f 650/650/650 644/644/644 666/666/666
f 651/651/651 644/644/644 650/650/650
f 657/657/657 644/644/644 651/651/651
f 645/645/645 644/644/644 657/657/657
f 440/440/440 644/644/644 439/439/439
f 434/434/434 644/644/644 440/440/440
f 405/405/405 644/644/644 434/434/434
f 661/661/661 421/421/421 441/441/441
f 662/662/662 661/661/661 441/441/441
f 411/411/411 414/414/414 663/663/663
f 664/664/664 411/411/411 663/663/663
f 663/663/663 414/414/414 415/415/415
f 654/654/654 429/429/429 424/424/424
f 654/654/654 424/424/424 425/425/425
f 660/660/660 654/654/654 425/425/425
f 661/661/661 660/660/660 420/420/420
f 660/660/660 425/425/425 420/420/420
f 662/662/662 441/441/441 410/410/410
f 662/662/662 664/664/664 656/656/656
f 658/658/658 662/662/662 656/656/656
f 658/658/658 656/656/656 645/645/645
f 657/657/657 658/658/658 645/645/645
f 662/662/662 410/410/410 664/664/664
f 410/410/410 411/411/411 664/664/664
f 409/409/409 659/659/659 408/408/408
f 648/648/648 428/428/428 429/429/429
f 648/648/648 665/665/665 444/444/444
f 661/661/661 420/420/420 421/421/421
f 668/668/668 667/667/667 462/462/462
f 671/671/671 670/670/670 669/669/669
f 499/499/499 672/672/672 514/514/514
f 675/675/675 674/674/674 673/673/673
f 675/675/675 513/513/513 674/674/674
f 512/512/512 513/513/513 675/675/675
f 515/515/515 677/677/677 676/676/676
f 504/504/504 677/677/677 515/515/515
f 677/677/677 504/504/504 502/502/502
f 680/680/680 679/679/679 678/678/678
f 681/681/681 680/680/680 678/678/678
f 684/684/684 683/683/683 682/682/682
f 685/685/685 684/684/684 682/682/682
f 687/687/687 686/686/686 678/678/678
f 678/678/678 488/488/488 475/475/475
f 684/684/684 685/685/685 489/489/489
f 669/669/669 471/471/471 466/466/466
f 678/678/678 686/686/686 477/477/477
f 681/681/681 475/475/475 476/476/476
f 688/688/688 681/681/681 476/476/476
f 688/688/688 689/689/689 680/680/680
f 681/681/681 688/688/688 680/680/680
f 691/691/691 510/510/510 690/690/690
f 692/692/692 509/509/509 507/507/507
f 682/682/682 689/689/689 688/688/688
f 685/685/685 682/682/682 688/688/688
f 688/688/688 476/476/476 489/489/489
f 685/685/685 688/688/688 489/489/489
f 668/668/668 500/500/500 516/516/516
f 670/670/670 683/683/683 684/684/684
f 669/669/669 684/684/684 470/470/470
f 694/694/694 693/693/693 497/497/497
f 695/695/695 482/482/482 481/481/481
f 696/696/696 695/695/695 481/481/481
f 686/686/686 480/480/480 477/477/477
f 694/694/694 517/517/517 487/487/487
f 697/697/697 694/694/694 487/487/487
f 700/700/700 699/699/699 698/698/698
f 701/701/701 700/700/700 698/698/698
f 675/675/675 673/673/673 702/702/702
f 703/703/703 675/675/675 702/702/702
f 690/690/690 675/675/675 703/703/703
f 704/704/704 690/690/690 703/703/703
f 705/705/705 690/690/690 704/704/704
f 706/706/706 705/705/705 704/704/704
f 690/690/690 705/705/705 707/707/707
f 691/691/691 690/690/690 707/707/707
f 673/673/673 700/700/700 701/701/701
f 702/702/702 673/673/673 701/701/701
f 678/678/678 477/477/477 488/488/488
f 698/698/698 697/697/697 708/708/708
f 671/671/671 467/467/467 491/491/491
f 667/667/667 464/464/464 462/462/462
f 687/687/687 695/695/695 696/696/696
f 481/481/481 480/480/480 686/686/686
f 696/696/696 481/481/481 686/686/686
f 687/687/687 696/696/696 686/686/686
f 671/671/671 669/669/669 466/466/466
f 485/485/485 482/482/482 695/695/695
f 708/708/708 485/485/485 695/695/695
f 708/708/708 695/695/695 687/687/687
f 698/698/698 708/708/708 687/687/687
f 698/698/698 687/687/687 679/679/679
f 701/701/701 698/698/698 679/679/679
f 702/702/702 701/701/701 679/679/679
f 702/702/702 679/679/679 680/680/680
f 703/703/703 702/702/702 680/680/680
f 703/703/703 680/680/680 689/689/689
f 704/704/704 703/703/703 689/689/689
f 706/706/706 704/704/704 689/689/689
f 706/706/706 689/689/689 682/682/682
f 709/709/709 706/706/706 682/682/682
f 709/709/709 682/682/682 683/683/683
f 710/710/710 709/709/709 683/683/683
f 710/710/710 683/683/683 670/670/670
f 711/711/711 710/710/710 670/670/670
f 711/711/711 670/670/670 671/671/671
f 712/712/712 711/711/711 671/671/671
f 671/671/671 491/491/491 493/493/493
f 712/712/712 671/671/671 493/493/493
f 692/692/692 705/705/705 706/706/706
f 709/709/709 692/692/692 706/706/706
f 677/677/677 692/692/692 709/709/709
f 668/668/668 676/676/676 710/710/710
f 711/711/711 668/668/668 710/710/710
f 667/667/667 668/668/668 711/711/711
f 712/712/712 667/667/667 711/711/711
f 712/712/712 493/493/493 464/464/464
f 667/667/667 712/712/712 464/464/464
f 668/668/668 516/516/516 676/676/676
f 516/516/516 515/515/515 676/676/676
f 692/692/692 507/507/507 707/707/707
f 503/503/503 509/509/509 692/692/692
f 677/677/677 503/503/503 692/692/692
f 677/677/677 502/502/502 503/503/503
f 710/710/710 677/677/677 709/709/709
f 710/710/710 676/676/676 677/677/677
f 707/707/707 507/507/507 508/508/508
f 691/691/691 707/707/707 508/508/508
f 691/691/691 508/508/508 459/459/459
f 691/691/691 459/459/459 510/510/510
f 693/693/693 699/699/699 700/700/700
f 672/672/672 700/700/700 673/673/673
f 672/672/672 673/673/673 674/674/674
f 674/674/674 513/513/513 514/514/514
f 672/672/672 674/674/674 514/514/514
f 499/499/499 693/693/693 672/672/672
f 694/694/694 506/506/506 517/517/517
f 694/694/694 497/497/497 506/506/506
f 697/697/697 487/487/487 485/485/485
f 708/708/708 697/697/697 485/485/485
f 698/698/698 699/699/699 697/697/697
f 699/699/699 694/694/694 697/697/697
f 692/692/692 707/707/707 705/705/705
f 681/681/681 678/678/678 475/475/475
f 669/669/669 470/470/470 471/471/471
f 693/693/693 496/496/496 497/497/497
f 694/694/694 699/699/699 693/693/693
f 672/672/672 693/693/693 700/700/700
f 499/499/499 496/496/496 693/693/693
f 510/510/510 512/512/512 675/675/675
f 510/510/510 675/675/675 690/690/690
f 463/463/463 500/500/500 668/668/668
f 668/668/668 462/462/462 463/463/463
f 671/671/671 466/466/466 467/467/467
f 684/684/684 489/489/489 470/470/470
f 679/679/679 687/687/687 678/678/678
f 670/670/670 684/684/684 669/669/669
