g cPK_10_000960_00_PIKACHUex_RR_L_SB
v 0.1137424 0.3888404 -0.0068423594
v 0.11658591 0.35639426 -0.008991331
v 0.13236263 0.3531873 -0.008991331
v 0.13252373 0.38576227 -0.0068423594
v 0.30590603 0.32107565 -0.008991331
v 0.3309719 0.3259615 -0.008991331
v 0.31937632 0.35212418 -0.008148971
v 0.2966147 0.3099319 -0.008991331
v 0.31974134 0.2912138 -0.008991331
v 0.3331991 0.30630642 -0.010410714
v 0.15437399 0.29079387 -0.011506626
v 0.18212628 0.25181556 -0.010359536
v 0.17918421 0.27795765 -0.010838046
v 0.26578352 0.2746509 -0.009132691
v 0.28955662 0.26066753 -0.008991331
v 0.30364734 0.27481407 -0.008991331
v 0.20822437 0.26155397 -0.010085016
v 0.20786957 0.23311062 -0.008991331
v 0.23924287 0.21014957 -0.0068423594
v 0.23869978 0.24525674 -0.009180769
v 0.2902762 0.35780331 -0.008991331
v 0.2965272 0.32220778 -0.008991331
v 0.23881768 0.36728865 -0.008991331
v 0.23892216 0.3330164 -0.008991331
v 0.26557615 0.32821843 -0.008991331
v 0.2656193 0.362219 -0.008991331
v 0.2081586 0.3728187 -0.008991331
v 0.20814934 0.3384365 -0.008991331
v 0.17842259 0.3780402 -0.008991331
v 0.17907576 0.34364334 -0.008991331
v 0.15419973 0.38251463 -0.0068423594
v 0.15445055 0.34915748 -0.008991331
v 0.08810722 0.3568914 -0.0068423594
v 0.11735286 0.34795794 -0.008991331
v 0.120278955 0.31311697 -0.008991331
v 0.11933514 0.32274812 -0.008991331
v 0.09153707 0.3212408 -0.0073296996
v 0.16134952 0.22651565 -0.0100294715
v 0.1871394 0.2230159 -0.01003509
v 0.2832298 0.29456714 -0.009089126
v 0.25109902 0.25906786 -0.009217194
v 0.12308917 0.28289577 -0.010778139
v 0.12104662 0.30352113 -0.008991331
v 0.15769164 0.26414925 -0.010757627
v 0.11825251 0.33551818 -0.008991331
v 0.09772481 0.28016266 -0.010266109
v 0.124390505 0.26475874 -0.011362567
v 0.13244498 0.3444995 -0.012463024
v 0.15432483 0.3402031 -0.012901413
v 0.17913993 0.33486637 -0.012658114
v 0.20811264 0.32878742 -0.012269746
v 0.2388136 0.32251748 -0.011853189
v 0.26560113 0.31694397 -0.011077704
v 0.17901953 0.32119605 -0.0126530295
v 0.15440154 0.32745263 -0.012739658
v 0.23867594 0.30625898 -0.011865441
v 0.26570436 0.29893002 -0.010582396
v 0.2081784 0.29550108 -0.0119823925
v 0.17909461 0.30553868 -0.012390669
v 0.17899552 0.2906357 -0.011694101
v 0.20811239 0.27819765 -0.011331529
v 0.23873399 0.28447154 -0.011283878
v 0.23871751 0.26474887 -0.010432927
v 0.20815162 0.31372952 -0.012372125
v 0.13243876 0.33258793 -0.012342217
v 0.154399 0.31330827 -0.012452651
v 0.15430531 0.3008926 -0.012005413
v 0.13240205 0.31926736 -0.011993329
v 0.13237761 0.3089683 -0.01167632
v 0.13418314 0.27681357 -0.011408544
v 0.13244323 0.2987524 -0.011443414
v 0.14678715 0.26970783 -0.011375322
v 0.13418046 0.2542746 -0.0119719235
v 0.14799862 0.24079071 -0.0120272245
v 0.085794106 0.22553793 -0.008261742
v 0.05821995 0.23391633 -0.008261742
v 0.09165601 0.20886622 -0.008261742
v 0.109276675 0.22484377 -0.011252916
v 0.114685796 0.2069207 -0.010323867
v 0.1415441 0.20028491 -0.008200636
v 0.12806876 0.225444 -0.010688181
v 0.16588627 0.198326 -0.0077637336
v 0.038386844 0.2158887 -0.008261742
v 0.037509006 0.19662257 -0.008261742
v 0.062863104 0.19434233 -0.008261742
v 0.059149384 0.2132535 -0.008261742
v 0.122595705 0.1824672 -0.008261742
v 0.1308965 0.15511091 -0.008261742
v 0.14670743 0.17832214 -0.008261742
v 0.05130362 0.2527729 -0.010054973
v 0.075859 0.2520465 -0.010838275
v 0.0634033 0.27154168 -0.010898537
v 0.10374248 0.25925776 -0.011033608
v 0.045201246 0.23261781 -0.008261742
v 0.08587206 0.18171115 -0.00894862
v 0.08341451 0.19049178 -0.0090515455
v 0.04872875 0.17030583 -0.008261742
v 0.07702516 0.16298562 -0.008261742
v 0.107239686 0.18510081 -0.008853326
v 0.103270315 0.15767987 -0.008261742
v 0.17024209 0.06805306 -0.006
v 0.16211423 0.14606182 -0.0059999996
v 0.13816883 0.08369602 -0.006
v 0.13811356 0.0914251 -0.006
v 0.13765478 0.09921007 -0.006
v 0.13555185 0.10977026 -0.006
v 0.13001837 0.1293631 -0.0071264952
v 0.12294703 0.14669026 -0.008958503
v 0.117404364 0.15670109 -0.009209882
v 0.11402648 0.21476649 -0.012597451
v 0.11119361 0.16627853 -0.009594246
v 0.10373982 0.17522879 -0.009845156
v 0.095970474 0.182433 -0.00997731
v 0.08487288 0.19193493 -0.010591465
v 0.073434964 0.19913195 -0.010333826
v 0.06823757 0.23620819 -0.012206729
v 0.062146183 0.20420353 -0.010934404
v 0.050261196 0.20784596 -0.011568141
v 0.025387496 0.24153669 -0.01514738
v 0.037854668 0.20940213 -0.013921538
v 0.021647977 0.20959707 -0.016119955
v 0.008980633 0.20813297 -0.019530123
v -0.0004823303 0.24311757 -0.019001152
v -0.008245716 0.20427544 -0.019987892
v -0.09080064 0.4668005 -0.017339546
v -0.08681982 0.4619402 -0.017339546
v -0.0614264 0.49429402 -0.017339546
v -0.028974323 0.45430404 -0.017339546
v -0.078842 0.44874462 -0.017339546
v -0.071697235 0.4321266 -0.017339546
v -0.066809386 0.4181045 -0.017339546
v -0.015228349 0.38732165 -0.017339546
v -0.062657915 0.4002862 -0.017339546
v -0.05692897 0.37615728 -0.017339546
v -0.051754374 0.34950507 -0.017339546
v -0.0106443865 0.3331744 -0.017339546
v -0.04954016 0.32914305 -0.017339546
v -0.04885074 0.30846414 -0.01754132
v -0.0098077385 0.27713257 -0.018154893
v -0.048200443 0.28979242 -0.017873095
v -0.048642296 0.2735893 -0.018258069
v -0.05020475 0.2561979 -0.018978322
v -0.04272499 0.24916904 -0.01950184
v -0.004857457 0.25854293 -0.01873156
v -0.035421018 0.23803179 -0.019577736
v -0.027886195 0.2240589 -0.019906612
v -0.018807467 0.20171152 -0.020345269
v -0.022728225 0.21143098 -0.020358026
v -0.33096066 0.36331373 -0.017339546
v -0.3258128 0.36207172 -0.017339546
v -0.31595513 0.38822198 -0.017339546
v -0.3585925 0.37173223 -0.017339546
v -0.36003456 0.34349224 -0.017339546
v -0.33215135 0.36059436 -0.017339546
v -0.33294767 0.35578343 -0.017339546
v 0.13699694 0.07632594 -0.006
v 0.13287269 0.06733637 -0.006
v 0.14633183 0.030360742 -0.006
v -0.33301845 0.35104746 -0.017339546
v 0.12620759 0.058260567 -0.006
v 0.11402791 0.046098746 -0.006
v 0.112102866 0.00974913 -0.006
v 0.101403855 0.039174795 -0.006
v 0.08686342 0.034027737 -0.0062952936
v 0.06564693 0.00021457595 -0.00731218
v 0.06914893 0.0318357 -0.0075114914
v 0.055221695 0.031160941 -0.008811376
v 0.046649374 0.030641688 -0.009970181
v -0.3326988 0.34451756 -0.017339546
v -0.33155724 0.3356589 -0.017339546
v -0.35253653 0.30377433 -0.017339546
v -0.32922837 0.32629788 -0.017339546
v -0.32474276 0.3145503 -0.017339546
v -0.3175355 0.299502 -0.017339546
v -0.3272971 0.25635025 -0.017339546
v -0.30957565 0.2863545 -0.017339546
v -0.30370736 0.27697518 -0.017339546
v -0.29818866 0.26928958 -0.017339546
v -0.2893568 0.26009336 -0.017339546
v -0.29467875 0.21896799 -0.017339546
v -0.28084368 0.25170833 -0.017339546
v -0.271836 0.24291234 -0.017339546
v -0.26152918 0.233343 -0.017339546
v -0.26840076 0.19955117 -0.017339546
v -0.2519864 0.2248036 -0.017339546
v -0.24350312 0.21714568 -0.017339546
v 0.040326223 0.028029764 -0.010776925
v -0.059686907 0.020707665 -0.02228249
v -0.0675623 0.02092211 -0.02209291
v -0.059686895 0.014211199 -0.02199885
v 0.034743417 0.025515262 -0.012210113
v 0.040407408 -0.00948369 -0.010475925
v 0.029367445 0.021834387 -0.014778303
v 0.022656932 0.01845516 -0.01805835
v -0.23851822 0.21073298 -0.017427525
v -0.24000788 0.20473103 -0.0174267
v -0.24174872 0.19705145 -0.01745452
v -0.270658 0.1807953 -0.017339546
v -0.24222477 0.18572162 -0.017396986
v -0.24232851 0.17731534 -0.01736759
v -0.27084684 0.14296876 -0.017339546
v -0.24206054 0.16654675 -0.017339546
v -0.24092185 0.15360342 -0.017339546
v -0.23952328 0.13708185 -0.017339546
v -0.23878005 0.12673011 -0.017339546
v -0.2686014 0.10525781 -0.017339546
v -0.23803556 0.11811476 -0.017339546
v -0.2371137 0.11003126 -0.017339546
v -0.23527005 0.10240855 -0.017339546
v -0.23303273 0.09428951 -0.017339546
v -0.25537458 0.0662121 -0.017339546
v -0.22973776 0.08732862 -0.017339546
v -0.22491603 0.0807111 -0.017344518
v -0.22844708 0.041957077 -0.017541816
v -0.21755409 0.07367372 -0.017472345
v -0.20462088 0.06509284 -0.017719623
v -0.18664686 0.023174116 -0.018861417
v -0.19013171 0.056156624 -0.018133998
v -0.17177002 0.048669368 -0.018865038
v -0.1582086 0.044018313 -0.019327534
v -0.13312405 0.0063928138 -0.020435253
v -0.1451694 0.039995573 -0.019593785
v -0.11123785 0.02981374 -0.02090347
v -0.09314507 -0.0032858525 -0.021670476
v -0.087534234 0.023492888 -0.021760007
v -0.061351664 0.008203257 -0.021954931
v -0.06359354 0.003043417 -0.021945594
v -0.06444759 -0.00015918571 -0.021999743
v -0.06433815 -0.0034981312 -0.022260182
v -0.08868107 -0.016427575 -0.022503614
v -0.082270816 -0.028300801 -0.02276336
v -0.06887659 -0.034079712 -0.022755178
v -0.06138674 -0.0030704164 -0.023046376
v -0.058606435 -0.0038403247 -0.023452705
v -0.05621112 -0.005251894 -0.023729524
v -0.054799527 -0.009529308 -0.024003018
v 0.016519818 0.016794385 -0.019536609
v 0.013177864 0.010340719 -0.019966591
v 0.01002193 0.0045152074 -0.020446539
v 0.023874978 -0.02976285 -0.012379847
v 0.0066892058 -0.00092236366 -0.020918936
v 0.0021579806 -0.0075877183 -0.02161693
v -0.0012039909 -0.011300469 -0.022310525
v -0.010550705 -0.03983662 -0.022461236
v -0.0038065582 -0.014434761 -0.022984443
v -0.0065224282 -0.014434757 -0.022985803
v -0.015282414 -0.010309094 -0.023747778
v -0.04330987 -0.03820206 -0.023024445
v -0.007904812 -0.012425019 -0.022917686
v -0.0097773215 -0.0107023 -0.022938073
v -0.01254855 -0.00999084 -0.023381792
v -0.01809112 -0.011413878 -0.024172187
v -0.02024629 -0.012664377 -0.024457062
v -0.021982457 -0.012606545 -0.02433087
v -0.02328447 -0.010928313 -0.024119584
v -0.025020618 -0.009365769 -0.023926942
v -0.0276399 -0.0082286745 -0.023847794
v -0.030038476 -0.008322708 -0.024082609
v -0.03220197 -0.009263364 -0.024464615
v -0.034482997 -0.010744825 -0.025000507
v -0.03634078 -0.012485032 -0.024943462
v -0.03817501 -0.012437961 -0.024796734
v -0.039609406 -0.0105567565 -0.024628986
v -0.041749347 -0.00872253 -0.024360346
v -0.04419503 -0.007899435 -0.024031708
v -0.04678008 -0.008382117 -0.024155704
v -0.049062785 -0.009992326 -0.024291014
v -0.050450243 -0.011544388 -0.024505341
v -0.053174105 -0.011710776 -0.02439688
v -0.05497069 -0.007647212 -0.023894561
v -0.3443744 0.38615775 -0.017339546
v -0.094372034 0.2789811 -0.02008043
v -0.09698003 0.28801167 -0.018869027
v -0.10472621 0.2815501 -0.019735178
v -0.31894007 0.3591922 -0.017339546
v -0.21704927 0.2440383 -0.018706596
v -0.2129619 0.24822207 -0.018706596
v -0.22156528 0.2531357 -0.018254543
v -0.09674909 0.5019013 -0.017339546
v -0.094486825 0.47056302 -0.017339546
v -0.12387711 0.48555455 -0.017339546
v -0.2801213 0.36511448 -0.017339546
v -0.3110491 0.35435882 -0.017339546
v -0.30269763 0.34773996 -0.017339546
v -0.29219753 0.3378289 -0.017339546
v -0.25101474 0.33697906 -0.017339546
v -0.28249678 0.32826728 -0.017339546
v -0.26572523 0.31061742 -0.017339546
v -0.22526637 0.3092737 -0.017834246
v -0.2513666 0.293927 -0.017450143
v -0.23786202 0.2774828 -0.017764082
v -0.20908737 0.28657925 -0.017834246
v -0.22791381 0.26354218 -0.01802516
v -0.09700513 0.4666514 -0.017339546
v -0.10103736 0.45897108 -0.017339546
v -0.14270793 0.44524214 -0.017784078
v -0.105352655 0.44809887 -0.017339546
v -0.11015775 0.42791373 -0.017339546
v -0.1480489 0.39747736 -0.017847622
v -0.11227226 0.40086928 -0.017339546
v -0.11222541 0.38670605 -0.017339546
v -0.11145383 0.36891896 -0.01714346
v -0.1472477 0.35472795 -0.017924188
v -0.10947504 0.34904662 -0.017339546
v -0.1417441 0.3259115 -0.017927542
v -0.10702278 0.330635 -0.017395707
v -0.103714086 0.31239024 -0.017581666
v -0.137657 0.30907914 -0.017870516
v -0.09986051 0.29793766 -0.01807799
v -0.20653582 0.2537238 -0.018651774
v -0.19947146 0.25887343 -0.018630559
v -0.19077866 0.26400104 -0.018657133
v -0.17358302 0.30216464 -0.01858967
v -0.18021528 0.2694149 -0.018657133
v -0.16980593 0.27379426 -0.01880135
v -0.157548 0.27777752 -0.018769538
v -0.14458571 0.2803434 -0.018955654
v -0.13216852 0.28170583 -0.019237075
v -0.11866146 0.28186154 -0.019535992
v 0.09319202 0.23849063 -0.0113180475
v 0.10839331 0.25202683 -0.011963858
v 0.11785334 0.23982945 -0.0121586835
v 0.10197344 0.2078578 -0.00989701
v 0.097364984 0.22528723 -0.010911753
v -0.092340045 0.4486641 -0.019872898
v -0.32858723 0.33255985 -0.019104213
v -0.328397 0.35343635 -0.019040057
v -0.30596265 0.34531137 -0.019102214
v -0.31872782 0.33896717 -0.020510407
v -0.30284297 0.31751892 -0.021721132
v -0.2898633 0.32525396 -0.02033229
v -0.3140901 0.30867746 -0.020203581
v -0.28612658 0.29617688 -0.02219474
v -0.27069739 0.27697924 -0.0222586
v -0.25932965 0.28661728 -0.020542376
v -0.2738882 0.3050076 -0.020581689
v -0.29861012 0.2864324 -0.020401597
v -0.28252873 0.2668323 -0.02041005
v -0.24637191 0.24858356 -0.021610474
v -0.23532747 0.25886217 -0.020384995
v -0.2570589 0.23907986 -0.020380579
v -0.2201138 0.23961852 -0.02032481
v -0.23569918 0.21760559 -0.02032086
v -0.22873381 0.2289645 -0.02092834
v -0.10410978 0.3980932 -0.021013869
v -0.071428865 0.39779976 -0.021556279
v -0.08831192 0.39732903 -0.02315607
v -0.08333582 0.34925756 -0.02494365
v -0.06445249 0.3493767 -0.022512835
v -0.099834256 0.34915766 -0.022534462
v -0.07986529 0.30639255 -0.025433099
v -0.061109442 0.30663544 -0.022734322
v -0.09455426 0.30766678 -0.023239752
v -0.07712724 0.27405924 -0.025291214
v -0.06032851 0.27347118 -0.02279276
v -0.091216356 0.2797452 -0.023763752
v -0.059715528 0.2566144 -0.022905523
v -0.07585863 0.2573683 -0.024944117
v -0.090525866 0.2667199 -0.023998
v -0.08570225 0.26113096 -0.024385806
v -0.14532076 0.27334955 -0.021679116
v -0.05332765 0.020513345 -0.025554715
v -0.1570535 0.14800668 -0.027566556
v -0.14684273 0.110723376 -0.028531069
v -0.11930509 0.15526669 -0.028015364
v -0.20743477 0.13876638 -0.024749866
v -0.19766837 0.102744 -0.02531243
v -0.18550687 0.14256722 -0.02695254
v -0.11684551 0.27681717 -0.021894595
v -0.054287847 0.16954856 -0.027466321
v -0.086122386 0.16221973 -0.02787959
v -0.051818646 0.1327751 -0.028571276
v -0.049484853 0.14297631 -0.028350389
v -0.051748432 0.12409961 -0.028699804
v -0.07257119 0.1077069 -0.028916156
v -0.049760006 0.11228516 -0.02869201
v -0.17373283 0.0878359 -0.02658476
v -0.19244412 0.086480916 -0.025144387
v -0.18579637 0.06907512 -0.02463354
v -0.22060983 0.08352067 -0.019929254
v -0.22479485 0.09314377 -0.020184098
v -0.043270282 0.07415466 -0.026015205
v -0.03279848 0.09793099 -0.02734221
v -0.06364934 0.07947627 -0.028470093
v -0.09101001 0.06555426 -0.027898282
v -0.12321261 0.056839474 -0.02681989
v -0.11951818 0.04230997 -0.025625242
v -0.14803533 0.044138025 -0.024056712
v -0.17954881 0.057464313 -0.023487324
v -0.1959608 0.061426397 -0.020807298
v -0.10439642 0.2321596 -0.025979359
v -0.09548239 0.19819224 -0.026945625
v -0.07041533 0.23690414 -0.025594926
v -0.1728863 0.21971451 -0.025475169
v -0.16531067 0.18366098 -0.026568318
v -0.13612461 0.22691803 -0.026059449
v -0.21944366 0.20885599 -0.022695364
v -0.21486507 0.1734768 -0.023948072
v -0.19860701 0.21427691 -0.024233129
v -0.2347358 0.13616285 -0.020554647
v -0.23528242 0.20231806 -0.020751009
v -0.2309345 0.16979615 -0.021861125
v -0.22457643 0.13623706 -0.022874203
v -0.21508454 0.10239645 -0.023703966
v -0.17485635 0.26655897 -0.021473125
v -0.19279033 0.17780338 -0.025696967
v -0.1736012 0.105856135 -0.027604504
v -0.15547343 0.076929584 -0.027037567
v -0.1500216 0.070849404 -0.026885396
v -0.14017265 0.075230286 -0.027095858
v -0.15112494 0.08601657 -0.027702365
v -0.12808721 0.1914428 -0.027051384
v -0.07693825 0.12648195 -0.028649827
v -0.11007153 0.11749997 -0.028706217
v -0.095344715 0.10375323 -0.028900823
v -0.100089066 0.09798892 -0.028881395
v -0.08334028 0.04823819 -0.02645954
v -0.046031006 0.23969834 -0.023248428
v -0.036612324 0.20888126 -0.024284784
v -0.062002804 0.20437288 -0.026371483
v -0.039717678 0.15783584 -0.027332187
v -0.0144183105 0.108415045 -0.023827674
v -0.011751615 0.12152662 -0.024754634
v -0.016746944 0.11228736 -0.025201995
v -0.026432646 0.16217054 -0.025955457
v -0.01882982 0.14840004 -0.026111776
v -0.015226959 0.1543646 -0.024762953
v -0.0154350465 0.13780813 -0.02601779
v -0.010659385 0.14655463 -0.02452488
v -0.028044289 0.08696685 -0.025309308
v -0.02361221 0.10297308 -0.026167816
v -0.12669618 0.092326924 -0.028552298
v -0.15347189 0.05511201 -0.02557732
v -0.02949788 0.17660159 -0.025308544
v -0.03497394 0.15230958 -0.027419513
v -0.03895198 0.13088197 -0.0282116
v -0.035399854 0.11781531 -0.02811574
v -0.023646066 0.12628365 -0.027263239
v -0.027753377 0.14040168 -0.027323851
v -0.013092537 0.18042879 -0.023858702
v -0.0073624747 0.14648256 -0.023254564
v -0.009138433 0.14066736 -0.02442899
v -0.008779371 0.12952435 -0.024401315
v -0.044807453 0.10290553 -0.028451806
v -0.0146083785 0.1252408 -0.025756499
v -0.022307688 0.11388873 -0.0269164
v -0.033766005 0.10723251 -0.027710408
v -0.13498172 0.0925799 -0.028413072
v -0.11386245 0.092904635 -0.028727258
v -0.10550659 0.09491953 -0.028817117
v -0.15988809 0.084111094 -0.027161216
v -0.16683958 0.084104046 -0.026875569
v -0.1044686 0.08397337 -0.02845538
v -0.105245106 0.07652414 -0.028140163
v -0.1445181 0.066290185 -0.026783526
v -0.15959236 0.06605785 -0.026216615
v -0.106969975 0.07004578 -0.027858997
v -0.110473655 0.06389517 -0.027449185
v -0.11516472 0.059827358 -0.027166039
v -0.13053893 0.058077127 -0.026715452
v -0.13800061 0.061151274 -0.026598737
v -0.11411198 0.084132195 -0.028228372
v -0.114052735 0.076057844 -0.027837424
v -0.13816105 0.069014184 -0.026935933
v -0.11486079 0.063557304 -0.027298732
v -0.12530561 0.062655 -0.027109358
v -0.1339784 0.062479086 -0.026708443
v -0.12592995 0.07556745 -0.02777772
v -0.12623616 0.083986364 -0.028151764
v -0.13537206 0.08344809 -0.02799865
v -0.1354841 0.075280055 -0.027632913
v -0.142121 0.09343539 -0.028333256
v -0.14052811 0.08259975 -0.02740006
v -0.23119561 0.110774554 -0.0204909
v -0.23321746 0.12086041 -0.020500021
v -0.2060207 0.08343466 -0.023830997
v -0.21062414 0.09290945 -0.023862503
v -0.2026606 0.06928157 -0.021490155
v -0.21150906 0.07066874 -0.019052798
v -0.21688287 0.07667473 -0.019625908
v -0.22811401 0.10213224 -0.0203437
v -0.2264012 0.117053084 -0.022038568
v -0.20328867 0.075260825 -0.023286408
v -0.24224894 0.18555441 -0.01740388
v -0.23882046 0.16719574 -0.020095369
v -0.2403374 0.19876958 -0.019657664
v -0.1128664 0.26463756 -0.02364697
v -0.14410917 0.2611897 -0.023303216
v -0.17762695 0.25478658 -0.023167588
v -0.19999383 0.2466493 -0.022865964
v -0.21709083 0.23823683 -0.021552073
v -0.19701473 0.2564576 -0.021043673
v 0.03460453 0.14652799 -0.019754266
v 0.0008212354 0.14665382 -0.022431498
v 0.009409719 0.108320154 -0.021929314
v 0.040974062 0.10823735 -0.01890601
v 0.013313706 0.08240263 -0.023025645
v 0.012155824 0.072609946 -0.023775458
v 0.019563721 0.06933859 -0.02199314
v -0.0033475035 0.087538175 -0.024113806
v -0.0049363286 0.078175165 -0.025476068
v -0.021156747 0.082401656 -0.02542442
v -0.01951943 0.08843767 -0.024585983
v 0.0026813278 0.0008275183 -0.022411704
v -0.006174864 0.0046942253 -0.024822066
v -0.039040357 0.016333405 -0.026701808
v -0.057668734 0.045290712 -0.02498514
v -0.048193034 0.041970152 -0.026226101
v -0.05309024 0.060190964 -0.02519899
v -0.01678752 0.031771824 -0.027330264
v -0.012289947 0.047077484 -0.027201746
v -0.029335976 0.05308159 -0.0270473
v -0.03325388 0.037744906 -0.027217263
v 0.0010892763 0.024259359 -0.02491242
v 0.005853824 0.039637808 -0.024902694
v 0.0110294325 0.01971817 -0.022402205
v 0.016232826 0.03443032 -0.0225577
v -0.059108645 0.027386969 -0.022785375
v -0.02285754 0.011012205 -0.026740817
v 0.009556049 0.056801677 -0.024676098
v 0.018976873 0.053125538 -0.022887625
v -0.008417713 0.06337158 -0.026515234
v -0.024763254 0.06877365 -0.026305322
v -0.038447812 0.07268664 -0.025402883
v -0.043659996 0.057285514 -0.026113093
v -0.075304516 0.03336547 -0.024971446
v -0.09040039 0.03015174 -0.024856772
v -0.114334546 0.033309437 -0.024491142
v 0.0032541044 0.20376611 -0.021238802
v 0.022880243 0.18350624 -0.021718292
v 0.023775866 0.0673336 -0.020258846
v 0.044071212 0.082445785 -0.017781308
v 0.04623981 0.03773303 -0.012675491
v 0.045938846 0.049305644 -0.014459196
v 0.027947566 0.048453145 -0.017424827
v 0.036018163 0.20681404 -0.016755981
v 0.063299574 0.1834292 -0.017181246
v 0.08974505 0.18242589 -0.012930046
v 0.07644564 0.1464404 -0.01512879
v 0.112455286 0.14650103 -0.011167757
v 0.082517795 0.108454265 -0.013998839
v 0.08350308 0.08250741 -0.013457823
v 0.0835123 0.0656911 -0.012957034
v 0.12406194 0.0832651 -0.009132463
v 0.08267083 0.050809097 -0.012134693
v 0.12108258 0.06670903 -0.008681563
v 0.08292423 0.04200439 -0.0108185895
v 0.045526378 0.066041626 -0.016924292
v 0.029546047 0.030012036 -0.016558722
v 0.02447213 0.049763553 -0.021183725
v 0.021925423 0.030777503 -0.020579217
v 0.12289468 0.10898681 -0.009581574
v 0.10145497 0.052084196 -0.010150661
v -0.034046333 0.082583666 -0.02566188
v -0.05946074 0.059113927 -0.026539609
v -0.007461969 0.1279054 -0.023514766
v -0.21502636 0.24404366 -0.020549273
v -0.24222477 0.18572162 -0.017396986
v -0.2422462 0.18583833 -0.01740513
v -0.24174872 0.19705145 -0.01745452
v -0.2422462 0.18583833 -0.01740513
vt 0.26464844 0.96435547
vt 0.2614746 0.9277344
vt 0.24353027 0.9243164
vt 0.24353027 0.9609375
vt 0.044555664 0.88916016
vt 0.018188477 0.89453125
vt 0.031463623 0.92333984
vt 0.056671143 0.87646484
vt 0.031082153 0.85546875
vt 0.015777588 0.8725586
vt 0.21838379 0.8540039
vt 0.18725586 0.8100586
vt 0.19042969 0.83984375
vt 0.092041016 0.8364258
vt 0.06530762 0.8208008
vt 0.049346924 0.83691406
vt 0.1574707 0.82128906
vt 0.15808105 0.7890625
vt 0.12225342 0.7631836
vt 0.12286377 0.80322266
vt 0.064453125 0.9296875
vt 0.056427002 0.8901367
vt 0.1227417 0.9404297
vt 0.122558594 0.90185547
vt 0.09222412 0.89697266
vt 0.09240723 0.9345703
vt 0.15759277 0.94628906
vt 0.15759277 0.9086914
vt 0.19140625 0.95214844
vt 0.19055176 0.9140625
vt 0.21887207 0.95703125
vt 0.21850586 0.9199219
vt 0.29370117 0.92871094
vt 0.26049805 0.91845703
vt 0.25708008 0.87890625
vt 0.25830078 0.8901367
vt 0.28979492 0.8881836
vt 0.21057129 0.7807617
vt 0.1817627 0.77734375
vt 0.072143555 0.8588867
vt 0.10876465 0.81884766
vt 0.2536621 0.84472656
vt 0.25610352 0.86816406
vt 0.21459961 0.82373047
vt 0.25952148 0.9042969
vt 0.28271484 0.8417969
vt 0.25219727 0.82421875
vt 0.2434082 0.9145508
vt 0.21862793 0.90966797
vt 0.19042969 0.9038086
vt 0.15759277 0.89746094
vt 0.12261963 0.8901367
vt 0.09210205 0.88427734
vt 0.19055176 0.8886719
vt 0.21850586 0.8955078
vt 0.12286377 0.8720703
vt 0.092041016 0.86376953
vt 0.1574707 0.8598633
vt 0.19055176 0.87109375
vt 0.19055176 0.8540039
vt 0.15759277 0.84033203
vt 0.12286377 0.84716797
vt 0.12286377 0.8251953
vt 0.1574707 0.8803711
vt 0.2434082 0.9013672
vt 0.21850586 0.87939453
vt 0.21850586 0.8652344
vt 0.2434082 0.88623047
vt 0.2434082 0.8745117
vt 0.24121094 0.8378906
vt 0.24328613 0.86279297
vt 0.22692871 0.8300781
vt 0.24121094 0.8125
vt 0.22558594 0.796875
vt 0.29614258 0.77978516
vt 0.32739258 0.7895508
vt 0.28979492 0.76171875
vt 0.2692871 0.7783203
vt 0.2626953 0.7573242
vt 0.23254395 0.75
vt 0.24816895 0.7792969
vt 0.20532227 0.7480469
vt 0.34814453 0.76953125
vt 0.34838867 0.74902344
vt 0.32128906 0.7446289
vt 0.32592773 0.765625
vt 0.25390625 0.72998047
vt 0.2434082 0.6977539
vt 0.22570801 0.72314453
vt 0.33520508 0.8105469
vt 0.3076172 0.8095703
vt 0.3215332 0.83154297
vt 0.2758789 0.8178711
vt 0.34228516 0.7871094
vt 0.2956543 0.72998047
vt 0.29833984 0.73876953
vt 0.3359375 0.71875
vt 0.30493164 0.70947266
vt 0.27124023 0.73291016
vt 0.2758789 0.7026367
vt 0.23486328 0.36621094
vt 0.24414062 0.45581055
vt 0.27172852 0.3840332
vt 0.27172852 0.3930664
vt 0.2722168 0.40185547
vt 0.2746582 0.4140625
vt 0.28100586 0.43652344
vt 0.2890625 0.45654297
vt 0.2956543 0.46801758
vt 0.29956055 0.53466797
vt 0.30273438 0.4790039
vt 0.3112793 0.4892578
vt 0.3203125 0.4975586
vt 0.3330078 0.5083008
vt 0.3461914 0.51660156
vt 0.35205078 0.5595703
vt 0.35913086 0.52246094
vt 0.37280273 0.52685547
vt 0.4013672 0.5654297
vt 0.3869629 0.5288086
vt 0.40551758 0.5288086
vt 0.42016602 0.52734375
vt 0.43115234 0.5673828
vt 0.4399414 0.5229492
vt 0.53466797 0.82421875
vt 0.53027344 0.81884766
vt 0.50097656 0.85595703
vt 0.4638672 0.8100586
vt 0.5209961 0.80371094
vt 0.5126953 0.78466797
vt 0.5073242 0.7685547
vt 0.44799805 0.73291016
vt 0.5024414 0.7480469
vt 0.4958496 0.72021484
vt 0.48999023 0.6894531
vt 0.44262695 0.67089844
vt 0.48754883 0.6660156
vt 0.48657227 0.6425781
vt 0.44189453 0.6064453
vt 0.48583984 0.62109375
vt 0.48632812 0.60253906
vt 0.48828125 0.58251953
vt 0.4794922 0.57421875
vt 0.43603516 0.58496094
vt 0.4711914 0.56152344
vt 0.46264648 0.54541016
vt 0.45214844 0.52001953
vt 0.45654297 0.5307617
vt 0.81103516 0.7055664
vt 0.8051758 0.70410156
vt 0.79345703 0.7338867
vt 0.84277344 0.71533203
vt 0.8442383 0.6826172
vt 0.8120117 0.70214844
vt 0.8129883 0.69677734
vt 0.27294922 0.37573242
vt 0.27783203 0.36523438
vt 0.26220703 0.3227539
vt 0.81347656 0.69140625
vt 0.2854004 0.35498047
vt 0.29956055 0.3408203
vt 0.3017578 0.29907227
vt 0.31396484 0.3330078
vt 0.3305664 0.32714844
vt 0.35498047 0.28808594
vt 0.35107422 0.3244629
vt 0.36694336 0.32373047
vt 0.37695312 0.3232422
vt 0.8129883 0.68408203
vt 0.81152344 0.6738281
vt 0.8354492 0.63720703
vt 0.80908203 0.66308594
vt 0.80371094 0.64941406
vt 0.79541016 0.6323242
vt 0.8066406 0.58251953
vt 0.7861328 0.6171875
vt 0.77978516 0.6064453
vt 0.7734375 0.59765625
vt 0.7631836 0.58691406
vt 0.76904297 0.5395508
vt 0.75341797 0.57714844
vt 0.74316406 0.56689453
vt 0.73095703 0.55615234
vt 0.73876953 0.51708984
vt 0.72021484 0.5463867
vt 0.7104492 0.53759766
vt 0.3840332 0.32006836
vt 0.49926758 0.31176758
vt 0.5083008 0.31201172
vt 0.49926758 0.30419922
vt 0.390625 0.3173828
vt 0.3840332 0.2770996
vt 0.39672852 0.31298828
vt 0.40454102 0.30908203
vt 0.70458984 0.53027344
vt 0.7060547 0.5234375
vt 0.7084961 0.51464844
vt 0.7416992 0.4958496
vt 0.7089844 0.50146484
vt 0.7089844 0.49169922
vt 0.7416992 0.45214844
vt 0.7084961 0.47924805
vt 0.70751953 0.4645996
vt 0.7055664 0.44555664
vt 0.7050781 0.43359375
vt 0.7392578 0.40893555
vt 0.70410156 0.42358398
vt 0.703125 0.41430664
vt 0.7006836 0.40576172
vt 0.6982422 0.39624023
vt 0.7241211 0.36401367
vt 0.69433594 0.38842773
vt 0.68896484 0.38061523
vt 0.6928711 0.33618164
vt 0.68066406 0.3725586
vt 0.66552734 0.36279297
vt 0.64501953 0.31469727
vt 0.6489258 0.35253906
vt 0.6279297 0.34399414
vt 0.6123047 0.33862305
vt 0.5834961 0.29541016
vt 0.59716797 0.33398438
vt 0.55810547 0.32226562
vt 0.53759766 0.2841797
vt 0.53125 0.3149414
vt 0.50097656 0.29736328
vt 0.50341797 0.2915039
vt 0.50439453 0.2878418
vt 0.50439453 0.28393555
vt 0.53222656 0.26904297
vt 0.52490234 0.2553711
vt 0.5097656 0.2487793
vt 0.50097656 0.28442383
vt 0.49780273 0.28344727
vt 0.4951172 0.28198242
vt 0.4934082 0.2770996
vt 0.4116211 0.3071289
vt 0.4152832 0.2998047
vt 0.4189453 0.2932129
vt 0.40307617 0.2536621
vt 0.42285156 0.28686523
vt 0.42797852 0.27929688
vt 0.43188477 0.27490234
vt 0.44262695 0.2421875
vt 0.43481445 0.27124023
vt 0.43798828 0.27124023
vt 0.44799805 0.27612305
vt 0.4802246 0.24401855
vt 0.43969727 0.27368164
vt 0.4416504 0.27563477
vt 0.44482422 0.2763672
vt 0.45117188 0.27490234
vt 0.45385742 0.2734375
vt 0.45581055 0.2734375
vt 0.4572754 0.27539062
vt 0.45922852 0.2770996
vt 0.4621582 0.27856445
vt 0.4650879 0.2783203
vt 0.4675293 0.27734375
vt 0.47021484 0.27563477
vt 0.47216797 0.27368164
vt 0.47436523 0.27368164
vt 0.47607422 0.2758789
vt 0.47851562 0.27783203
vt 0.48120117 0.2788086
vt 0.484375 0.2783203
vt 0.4868164 0.2763672
vt 0.4885254 0.2746582
vt 0.49169922 0.27441406
vt 0.49365234 0.27905273
vt 0.8261719 0.7319336
vt 0.5390625 0.60839844
vt 0.5419922 0.6191406
vt 0.55078125 0.6113281
vt 0.796875 0.7006836
vt 0.6801758 0.5683594
vt 0.67529297 0.5732422
vt 0.6850586 0.57910156
vt 0.5415039 0.8647461
vt 0.5390625 0.8286133
vt 0.5727539 0.8461914
vt 0.7524414 0.70751953
vt 0.78808594 0.6953125
vt 0.7783203 0.6875
vt 0.7661133 0.67626953
vt 0.7192383 0.67529297
vt 0.7553711 0.66503906
vt 0.73583984 0.64501953
vt 0.6894531 0.6435547
vt 0.7192383 0.62597656
vt 0.70410156 0.6069336
vt 0.67089844 0.6171875
vt 0.6923828 0.5908203
vt 0.5419922 0.82421875
vt 0.5463867 0.8154297
vt 0.59472656 0.7998047
vt 0.5517578 0.8027344
vt 0.5571289 0.77978516
vt 0.60058594 0.7446289
vt 0.5595703 0.74853516
vt 0.5595703 0.7324219
vt 0.55859375 0.71191406
vt 0.5996094 0.6958008
vt 0.55615234 0.68896484
vt 0.5932617 0.66259766
vt 0.55371094 0.66796875
vt 0.5498047 0.64697266
vt 0.5888672 0.6430664
vt 0.54541016 0.6303711
vt 0.66796875 0.57958984
vt 0.65966797 0.5854492
vt 0.64990234 0.5913086
vt 0.6298828 0.6352539
vt 0.6376953 0.59765625
vt 0.6254883 0.60253906
vt 0.6118164 0.6074219
vt 0.5966797 0.61035156
vt 0.58251953 0.6118164
vt 0.56689453 0.6118164
vt 0.2878418 0.7944336
vt 0.2705078 0.8095703
vt 0.25976562 0.79589844
vt 0.2775879 0.7597656
vt 0.28295898 0.7792969
vt 0.5366211 0.80371094
vt 0.80810547 0.67041016
vt 0.80810547 0.69433594
vt 0.78222656 0.6845703
vt 0.796875 0.6777344
vt 0.7783203 0.65283203
vt 0.7636719 0.6616211
vt 0.7915039 0.6425781
vt 0.75927734 0.62841797
vt 0.7416992 0.6064453
vt 0.7285156 0.6171875
vt 0.7451172 0.6386719
vt 0.7734375 0.6171875
vt 0.7548828 0.59472656
vt 0.7138672 0.57373047
vt 0.7011719 0.5854492
vt 0.7260742 0.5629883
vt 0.68359375 0.56347656
vt 0.7011719 0.53808594
vt 0.6933594 0.55126953
vt 0.55029297 0.74560547
vt 0.5126953 0.7451172
vt 0.53222656 0.7446289
vt 0.5263672 0.6894531
vt 0.50439453 0.6894531
vt 0.54541016 0.6894531
vt 0.52246094 0.6401367
vt 0.50097656 0.6401367
vt 0.5390625 0.64160156
vt 0.51904297 0.60302734
vt 0.49975586 0.6020508
vt 0.53515625 0.609375
vt 0.49926758 0.5830078
vt 0.5175781 0.5834961
vt 0.53466797 0.5942383
vt 0.5288086 0.5878906
vt 0.59716797 0.6015625
vt 0.49169922 0.31152344
vt 0.61083984 0.4580078
vt 0.5991211 0.4152832
vt 0.5673828 0.4663086
vt 0.66845703 0.44750977
vt 0.65771484 0.40600586
vt 0.6435547 0.45166016
vt 0.5649414 0.60546875
vt 0.49291992 0.48266602
vt 0.5292969 0.47436523
vt 0.49023438 0.44067383
vt 0.48754883 0.45239258
vt 0.49023438 0.43066406
vt 0.51416016 0.41186523
vt 0.4880371 0.41723633
vt 0.6298828 0.38891602
vt 0.65185547 0.38745117
vt 0.64404297 0.36743164
vt 0.68408203 0.3840332
vt 0.68896484 0.39501953
vt 0.48046875 0.37353516
vt 0.46826172 0.40063477
vt 0.50390625 0.37939453
vt 0.53515625 0.36328125
vt 0.5722656 0.35327148
vt 0.5678711 0.33666992
vt 0.60058594 0.3388672
vt 0.63671875 0.3540039
vt 0.6557617 0.35864258
vt 0.55029297 0.5546875
vt 0.54003906 0.515625
vt 0.51171875 0.5600586
vt 0.62890625 0.54052734
vt 0.62060547 0.49902344
vt 0.58691406 0.5488281
vt 0.6826172 0.52783203
vt 0.6772461 0.4873047
vt 0.6586914 0.5341797
vt 0.7001953 0.44433594
vt 0.7006836 0.5205078
vt 0.6958008 0.4831543
vt 0.68847656 0.44458008
vt 0.6777344 0.40576172
vt 0.63134766 0.5942383
vt 0.65185547 0.4921875
vt 0.6298828 0.40966797
vt 0.609375 0.37646484
vt 0.60302734 0.36938477
vt 0.5913086 0.37451172
vt 0.6040039 0.38671875
vt 0.5776367 0.5078125
vt 0.51904297 0.4333496
vt 0.5571289 0.4230957
vt 0.54003906 0.40722656
vt 0.54541016 0.40063477
vt 0.5263672 0.34350586
vt 0.48364258 0.56347656
vt 0.4729004 0.52783203
vt 0.5019531 0.5229492
vt 0.47631836 0.46923828
vt 0.44702148 0.41259766
vt 0.44506836 0.42773438
vt 0.4501953 0.41723633
vt 0.4609375 0.47436523
vt 0.45239258 0.4584961
vt 0.4482422 0.46533203
vt 0.44848633 0.44628906
vt 0.44335938 0.45629883
vt 0.46264648 0.38793945
vt 0.45776367 0.40649414
vt 0.57666016 0.39404297
vt 0.6069336 0.3515625
vt 0.4645996 0.49072266
vt 0.47070312 0.46289062
vt 0.47558594 0.43847656
vt 0.47143555 0.42358398
vt 0.4580078 0.43310547
vt 0.46264648 0.44921875
vt 0.44555664 0.49536133
vt 0.43896484 0.45629883
vt 0.44189453 0.4494629
vt 0.44140625 0.43701172
vt 0.48217773 0.40649414
vt 0.44750977 0.43188477
vt 0.45654297 0.4189453
vt 0.46972656 0.41137695
vt 0.5864258 0.3942871
vt 0.56152344 0.3942871
vt 0.5517578 0.39697266
vt 0.6142578 0.38452148
vt 0.6220703 0.38452148
vt 0.55078125 0.38452148
vt 0.55126953 0.37597656
vt 0.5966797 0.3642578
vt 0.61376953 0.36401367
vt 0.55322266 0.3684082
vt 0.5576172 0.36132812
vt 0.5629883 0.35668945
vt 0.5805664 0.35473633
vt 0.5888672 0.3581543
vt 0.56152344 0.38427734
vt 0.56152344 0.37524414
vt 0.58935547 0.3671875
vt 0.5625 0.36108398
vt 0.57470703 0.36010742
vt 0.58447266 0.35986328
vt 0.5751953 0.37475586
vt 0.5756836 0.38427734
vt 0.5859375 0.38354492
vt 0.5859375 0.37451172
vt 0.5942383 0.39526367
vt 0.5917969 0.3828125
vt 0.6958008 0.4152832
vt 0.6982422 0.4267578
vt 0.66748047 0.38378906
vt 0.6723633 0.3947754
vt 0.6635742 0.36767578
vt 0.67333984 0.36914062
vt 0.6796875 0.3762207
vt 0.6923828 0.40527344
vt 0.6899414 0.42260742
vt 0.6640625 0.37451172
vt 0.7089844 0.50097656
vt 0.70458984 0.4802246
vt 0.7060547 0.5161133
vt 0.5600586 0.5917969
vt 0.5961914 0.5878906
vt 0.6347656 0.5805664
vt 0.66015625 0.57128906
vt 0.6801758 0.56152344
vt 0.6567383 0.58251953
vt 0.390625 0.45629883
vt 0.42944336 0.45654297
vt 0.41967773 0.41235352
vt 0.38330078 0.41235352
vt 0.4152832 0.38256836
vt 0.41674805 0.3713379
vt 0.40795898 0.36767578
vt 0.43432617 0.38842773
vt 0.4362793 0.37768555
vt 0.45483398 0.38256836
vt 0.45288086 0.38964844
vt 0.42749023 0.28881836
vt 0.4375 0.29345703
vt 0.4753418 0.30664062
vt 0.49682617 0.3400879
vt 0.48583984 0.33618164
vt 0.49145508 0.35717773
vt 0.44970703 0.3244629
vt 0.44458008 0.34204102
vt 0.46411133 0.34887695
vt 0.46875 0.33129883
vt 0.42919922 0.31591797
vt 0.42382812 0.3334961
vt 0.41796875 0.31054688
vt 0.41186523 0.32763672
vt 0.49853516 0.31933594
vt 0.4567871 0.3005371
vt 0.41967773 0.35327148
vt 0.4086914 0.3491211
vt 0.44018555 0.36083984
vt 0.45898438 0.36694336
vt 0.47460938 0.37158203
vt 0.48046875 0.35375977
vt 0.51708984 0.32641602
vt 0.53466797 0.32226562
vt 0.5620117 0.32641602
vt 0.4267578 0.52197266
vt 0.40429688 0.4987793
vt 0.40307617 0.36523438
vt 0.3798828 0.3828125
vt 0.3774414 0.33129883
vt 0.37768555 0.34472656
vt 0.3984375 0.34350586
vt 0.38916016 0.5253906
vt 0.35766602 0.4987793
vt 0.32739258 0.4975586
vt 0.34277344 0.45629883
vt 0.30126953 0.45629883
vt 0.33569336 0.41259766
vt 0.33447266 0.3828125
vt 0.33447266 0.3635254
vt 0.2878418 0.38354492
vt 0.33544922 0.34643555
vt 0.29125977 0.3647461
vt 0.33520508 0.33618164
vt 0.37817383 0.36376953
vt 0.39648438 0.32250977
vt 0.40234375 0.34521484
vt 0.40527344 0.3232422
vt 0.28930664 0.41308594
vt 0.31396484 0.3479004
vt 0.46972656 0.3828125
vt 0.4987793 0.35595703
vt 0.43920898 0.4350586
vt 0.6772461 0.5683594
vt 0.7089844 0.50146484
vt 0.7089844 0.50146484
vt 0.7084961 0.51464844
vt 0.7089844 0.50146484
vn -0 0 -1
vn -0 0 -1
vn -0 0 -1
vn -0 0 -1
vn -0 0 -1
vn -0 0 -1
vn -0 0 -1
vn -0 0 -1
vn -0 0 -1
vn -0 0 -1
vn -0 0 -1
vn -0 0 -1
vn -0 0 -1
vn -0 0 -1
vn -0 0 -1
vn -0 0 -1
vn -0 0 -1
vn -0 0 -1
vn -0 0 -1
vn -0 0 -1
vn -0 0 -1
vn -0 0 -1
vn -0 0 -1
vn -0 0 -1
vn -0 0 -1
vn -0 0 -1
vn -0 0 -1
vn -0 0 -1
vn -0 0 -1
vn -0 0 -1
vn -0 0 -1
vn -0 0 -1
vn -0 0 -1
vn -0 0 -1
vn -0 0 -1
vn -0 0 -1
vn -0 0 -1
vn -0 0 -1
vn -0 0 -1
vn -0 0 -1
vn -0 0 -1
vn -0 0 -1
vn -0 0 -1
vn -0 0 -1
vn -0 0 -1
vn -0 0 -1
vn -0 0 -1
vn -0 0 -1
vn -0 0 -1
vn -0 0 -1
vn -0 0 -1
vn -0 0 -1
vn -0 0 -1
vn -0 0 -1
vn -0 0 -1
vn -0 0 -1
vn -0 0 -1
vn -0 0 -1
vn -0 0 -1
vn -0 0 -1
vn -0 0 -1
vn -0 0 -1
vn -0 0 -1
vn -0 0 -1
vn -0 0 -1
vn -0 0 -1
vn -0 0 -1
vn -0 0 -1
vn -0 0 -1
vn -0 0 -1
vn -0 0 -1
vn -0 0 -1
vn -0 0 -1
vn -0 0 -1
vn -0 0 -1
vn -0 0 -1
vn -0 0 -1
vn -0 0 -1
vn -0 0 -1
vn -0 0 -1
vn -0 0 -1
vn -0 0 -1
vn -0 0 -1
vn -0 0 -1
vn -0 0 -1
vn -0 0 -1
vn -0 0 -1
vn -0 0 -1
vn -0 0 -1
vn -0 0 -1
vn -0 0 -1
vn -0 0 -1
vn -0 0 -1
vn -0 0 -1
vn -0 0 -1
vn -0 0 -1
vn -0 0 -1
vn -0 0 -1
vn -0 0 -1
vn -0 0 -1
vn -0 0 -1
vn -0 0 -1
vn -0 0 -1
vn -0 0 -1
vn -0 0 -1
vn -0 0 -1
vn -0 0 -1
vn -0 0 -1
vn -0 0 -1
vn -0 0 -1
vn -0 0 -1
vn -0 0 -1
vn -0 0 -1
vn -0 0 -1
vn -0 0 -1
vn -0 0 -1
vn -0 0 -1
vn -0 0 -1
vn -0 0 -1
vn -0 0 -1
vn -0 0 -1
vn -0 0 -1
vn -0 0 -1
vn -0 0 -1
vn -0 0 -1
vn -0 0 -1
vn -0 0 -1
vn -0 0 -1
vn -0 0 -1
vn -0 0 -1
vn -0 0 -1
vn -0 0 -1
vn -0 0 -1
vn -0 0 -1
vn -0 0 -1
vn -0 0 -1
vn -0 0 -1
vn -0 0 -1
vn -0 0 -1
vn -0 0 -1
vn -0 0 -1
vn -0 0 -1
vn -0 0 -1
vn -0 0 -1
vn -0 0 -1
vn -0 0 -1
vn -0 0 -1
vn -0 0 -1
vn -0 0 -1
vn -0 0 -1
vn -0 0 -1
vn -0 0 -1
vn -0 0 -1
vn -0 0 -1
vn -0 0 -1
vn -0 0 -1
vn -0 0 -1
vn -0 0 -1
vn -0 0 -1
vn -0 0 -1
vn -0 0 -1
vn -0 0 -1
vn -0 0 -1
vn -0 0 -1
vn -0 0 -1
vn -0 0 -1
vn -0 0 -1
vn -0 0 -1
vn -0 0 -1
vn -0 0 -1
vn -0 0 -1
vn -0 0 -1
vn -0 0 -1
vn -0 0 -1
vn -0 0 -1
vn -0 0 -1
vn -0 0 -1
vn -0 0 -1
vn -0 0 -1
vn -0 0 -1
vn -0 0 -1
vn -0 0 -1
vn -0 0 -1
vn -0 0 -1
vn -0 0 -1
vn -0 0 -1
vn -0 0 -1
vn -0 0 -1
vn -0 0 -1
vn -0 0 -1
vn -0 0 -1
vn -0 0 -1
vn -0 0 -1
vn -0 0 -1
vn -0 0 -1
vn -0 0 -1
vn -0 0 -1
vn -0 0 -1
vn -0 0 -1
vn -0 0 -1
vn -0 0 -1
vn -0 0 -1
vn -0 0 -1
vn -0 0 -1
vn -0 0 -1
vn -0 0 -1
vn -0 0 -1
vn -0 0 -1
vn -0 0 -1
vn -0 0 -1
vn -0 0 -1
vn -0 0 -1
vn -0 0 -1
vn -0 0 -1
vn -0 0 -1
vn -0 0 -1
vn -0 0 -1
vn -0 0 -1
vn -0 0 -1
vn -0 0 -1
vn -0 0 -1
vn -0 0 -1
vn -0 0 -1
vn -0 0 -1
vn -0 0 -1
vn -0 0 -1
vn -0 0 -1
vn -0 0 -1
vn -0 0 -1
vn -0 0 -1
vn -0 0 -1
vn -0 0 -1
vn -0 0 -1
vn -0 0 -1
vn -0 0 -1
vn -0 0 -1
vn -0 0 -1
vn -0 0 -1
vn -0 0 -1
vn -0 0 -1
vn -0 0 -1
vn -0 0 -1
vn -0 0 -1
vn -0 0 -1
vn -0 0 -1
vn -0 0 -1
vn -0 0 -1
vn -0 0 -1
vn -0 0 -1
vn -0 0 -1
vn -0 0 -1
vn -0 0 -1
vn -0 0 -1
vn -0 0 -1
vn -0 0 -1
vn -0 0 -1
vn -0 0 -1
vn -0 0 -1
vn -0 0 -1
vn -0 0 -1
vn -0 0 -1
vn -0 0 -1
vn -0 0 -1
vn -0 0 -1
vn -0 0 -1
vn -0 0 -1
vn -0 0 -1
vn -0 0 -1
vn -0 0 -1
vn -0 0 -1
vn -0 0 -1
vn -0 0 -1
vn -0 0 -1
vn -0 0 -1
vn -0 0 -1
vn -0 0 -1
vn -0 0 -1
vn -0 0 -1
vn -0 0 -1
vn -0 0 -1
vn -0 0 -1
vn -0 0 -1
vn -0 0 -1
vn -0 0 -1
vn -0 0 -1
vn -0 0 -1
vn -0 0 -1
vn -0 0 -1
vn -0 0 -1
vn -0 0 -1
vn -0 0 -1
vn -0 0 -1
vn -0 0 -1
vn -0 0 -1
vn -0 0 -1
vn -0 0 -1
vn -0 0 -1
vn -0 0 -1
vn -0 0 -1
vn -0 0 -1
vn -0 0 -1
vn -0 0 -1
vn -0 0 -1
vn -0 0 -1
vn -0 0 -1
vn -0 0 -1
vn -0 0 -1
vn -0 0 -1
vn -0 0 -1
vn -0 0 -1
vn -0 0 -1
vn -0 0 -1
vn -0 0 -1
vn -0 0 -1
vn -0 0 -1
vn -0 0 -1
vn -0 0 -1
vn -0 0 -1
vn -0 0 -1
vn -0 0 -1
vn -0 0 -1
vn -0 0 -1
vn -0 0 -1
vn -0 0 -1
vn -0 0 -1
vn -0 0 -1
vn -0 0 -1
vn -0 0 -1
vn -0 0 -1
vn -0 0 -1
vn -0 0 -1
vn -0 0 -1
vn -0 0 -1
vn -0 0 -1
vn -0 0 -1
vn -0 0 -1
vn -0 0 -1
vn -0 0 -1
vn -0 0 -1
vn -0 0 -1
vn -0 0 -1
vn -0 0 -1
vn -0 0 -1
vn -0 0 -1
vn -0 0 -1
vn -0 0 -1
vn -0 0 -1
vn -0 0 -1
vn -0 0 -1
vn -0 0 -1
vn -0 0 -1
vn -0 0 -1
vn -0 0 -1
vn -0 0 -1
vn -0 0 -1
vn -0 0 -1
vn -0 0 -1
vn -0 0 -1
vn -0 0 -1
vn -0 0 -1
vn -0 0 -1
vn -0 0 -1
vn -0 0 -1
vn -0 0 -1
vn -0 0 -1
vn -0 0 -1
vn -0 0 -1
vn -0 0 -1
vn -0 0 -1
vn -0 0 -1
vn -0 0 -1
vn -0 0 -1
vn -0 0 -1
vn -0 0 -1
vn -0 0 -1
vn -0 0 -1
vn -0 0 -1
vn -0 0 -1
vn -0 0 -1
vn -0 0 -1
vn -0 0 -1
vn -0 0 -1
vn -0 0 -1
vn -0 0 -1
vn -0 0 -1
vn -0 0 -1
vn -0 0 -1
vn -0 0 -1
vn -0 0 -1
vn -0 0 -1
vn -0 0 -1
vn -0 0 -1
vn -0 0 -1
vn -0 0 -1
vn -0 0 -1
vn -0 0 -1
vn -0 0 -1
vn -0 0 -1
vn -0 0 -1
vn -0 0 -1
vn -0 0 -1
vn -0 0 -1
vn -0 0 -1
vn -0 0 -1
vn -0 0 -1
vn -0 0 -1
vn -0 0 -1
vn -0 0 -1
vn -0 0 -1
vn -0 0 -1
vn -0 0 -1
vn -0 0 -1
vn -0 0 -1
vn -0 0 -1
vn -0 0 -1
vn -0 0 -1
vn -0 0 -1
vn -0 0 -1
vn -0 0 -1
vn -0 0 -1
vn -0 0 -1
vn -0 0 -1
vn -0 0 -1
vn -0 0 -1
vn -0 0 -1
vn -0 0 -1
vn -0 0 -1
vn -0 0 -1
vn -0 0 -1
vn -0 0 -1
vn -0 0 -1
vn -0 0 -1
vn -0 0 -1
vn -0 0 -1
vn -0 0 -1
vn -0 0 -1
vn -0 0 -1
vn -0 0 -1
vn -0 0 -1
vn -0 0 -1
vn -0 0 -1
vn -0 0 -1
vn -0 0 -1
vn -0 0 -1
vn -0 0 -1
vn -0 0 -1
vn -0 0 -1
vn -0 0 -1
vn -0 0 -1
vn -0 0 -1
vn -0 0 -1
vn -0 0 -1
vn -0 0 -1
vn -0 0 -1
vn -0 0 -1
vn -0 0 -1
vn -0 0 -1
vn -0 0 -1
vn -0 0 -1
vn -0 0 -1
vn -0 0 -1
vn -0 0 -1
vn -0 0 -1
vn -0 0 -1
vn -0 0 -1
vn -0 0 -1
vn -0 0 -1
vn -0 0 -1
vn -0 0 -1
vn -0 0 -1
vn -0 0 -1
vn -0 0 -1
vn -0 0 -1
vn -0 0 -1
vn -0 0 -1
vn -0 0 -1
vn -0 0 -1
vn -0 0 -1
vn -0 0 -1
vn -0 0 -1
vn -0 0 -1
vn -0 0 -1
vn -0 0 -1
vn -0 0 -1
vn -0 0 -1
vn -0 0 -1
vn -0 0 -1
vn -0 0 -1
vn -0 0 -1
vn -0 0 -1
vn -0 0 -1
vn -0 0 -1
vn -0 0 -1
vn -0 0 -1
vn -0 0 -1
vn -0 0 -1
vn -0 0 -1
vn -0 0 -1
vn -0 0 -1
vn -0 0 -1
vn -0 0 -1
vn -0 0 -1
vn -0 0 -1
vn -0 0 -1
vn -0 0 -1
vn -0 0 -1
vn -0 0 -1
vn -0 0 -1
vn -0 0 -1
vn -0 0 -1
vn -0 0 -1
vn -0 0 -1
vn -0 0 -1
vn -0 0 -1
vn -0 0 -1
vn -0 0 -1
vn -0 0 -1
vn -0 0 -1
vn -0 0 -1
vn -0 0 -1
vn -0 0 -1
vn -0 0 -1
vn -0 0 -1
vn -0 0 -1
vn -0 0 -1
vn -0 0 -1
vn -0 0 -1
vn -0 0 -1
vn -0 0 -1
vn -0 0 -1
vn -0 0 -1
vn -0 0 -1
vn -0 0 -1
vn -0 0 -1
vn -0 0 -1
vn -0 0 -1
vn -0 0 -1
vn -0 0 -1
vn -0 0 -1
vn -0 0 -1
vn -0 0 -1
vn -0 0 -1
vn -0 0 -1
vn -0 0 -1
vn -0 0 -1
vn -0 0 -1
vn -0 0 -1
vn -0 0 -1
vn -0 0 -1
vn -0 0 -1
vn -0 0 -1
vn -0 0 -1
vn -0 0 -1
vn -0 0 -1
vn -0 0 -1
vn -0 0 -1
vn -0 0 -1
vn -0 0 -1
vn -0 0 -1
vn -0 0 -1
vn -0 0 -1
g cPK_10_000960_00_PIKACHUex_RR_L_SB_0
f 3/3/3 2/2/2 1/1/1
f 4/4/4 3/3/3 1/1/1
f 7/7/7 6/6/6 5/5/5
f 10/10/10 9/9/9 8/8/8
f 13/13/13 12/12/12 11/11/11
f 16/16/16 15/15/15 14/14/14
f 12/12/12 13/13/13 17/17/17
f 18/18/18 12/12/12 17/17/17
f 19/19/19 18/18/18 17/17/17
f 20/20/20 19/19/19 17/17/17
f 7/7/7 5/5/5 21/21/21
f 21/21/21 5/5/5 22/22/22
f 25/25/25 24/24/24 23/23/23
f 26/26/26 25/25/25 23/23/23
f 24/24/24 28/28/28 27/27/27
f 23/23/23 24/24/24 27/27/27
f 28/28/28 30/30/30 29/29/29
f 27/27/27 28/28/28 29/29/29
f 30/30/30 32/32/32 31/31/31
f 29/29/29 30/30/30 31/31/31
f 32/32/32 3/3/3 4/4/4
f 31/31/31 32/32/32 4/4/4
f 1/1/1 2/2/2 33/33/33
f 33/33/33 2/2/2 34/34/34
f 37/37/37 36/36/36 35/35/35
f 22/22/22 25/25/25 26/26/26
f 21/21/21 22/22/22 26/26/26
f 8/8/8 5/5/5 6/6/6
f 10/10/10 8/8/8 6/6/6
f 12/12/12 39/39/39 38/38/38
f 40/40/40 16/16/16 14/14/14
f 41/41/41 19/19/19 20/20/20
f 37/37/37 43/43/43 42/42/42
f 12/12/12 44/44/44 11/11/11
f 12/12/12 38/38/38 44/44/44
f 33/33/33 34/34/34 37/37/37
f 34/34/34 45/45/45 37/37/37
f 37/37/37 42/42/42 46/46/46
f 42/42/42 47/47/47 46/46/46
f 45/45/45 36/36/36 37/37/37
f 40/40/40 9/9/9 16/16/16
f 40/40/40 8/8/8 9/9/9
f 37/37/37 35/35/35 43/43/43
f 41/41/41 14/14/14 15/15/15
f 41/41/41 15/15/15 19/19/19
g cPK_10_000960_00_PIKACHUex_RR_L_SB_1
f 48/48/48 34/34/34 2/2/2
f 3/3/3 48/48/48 2/2/2
f 49/49/49 48/48/48 3/3/3
f 32/32/32 49/49/49 3/3/3
f 50/50/50 49/49/49 32/32/32
f 30/30/30 50/50/50 32/32/32
f 51/51/51 50/50/50 30/30/30
f 28/28/28 51/51/51 30/30/30
f 52/52/52 51/51/51 28/28/28
f 24/24/24 52/52/52 28/28/28
f 53/53/53 52/52/52 24/24/24
f 25/25/25 53/53/53 24/24/24
f 22/22/22 5/5/5 8/8/8
f 49/49/49 50/50/50 54/54/54
f 55/55/55 49/49/49 54/54/54
f 57/57/57 56/56/56 52/52/52
f 53/53/53 57/57/57 52/52/52
f 40/40/40 57/57/57 53/53/53
f 8/8/8 40/40/40 53/53/53
f 60/60/60 59/59/59 58/58/58
f 61/61/61 60/60/60 58/58/58
f 41/41/41 63/63/63 62/62/62
f 14/14/14 41/41/41 62/62/62
f 56/56/56 64/64/64 51/51/51
f 52/52/52 56/56/56 51/51/51
f 58/58/58 62/62/62 63/63/63
f 61/61/61 58/58/58 63/63/63
f 8/8/8 53/53/53 25/25/25
f 22/22/22 8/8/8 25/25/25
f 50/50/50 51/51/51 64/64/64
f 54/54/54 50/50/50 64/64/64
f 45/45/45 34/34/34 48/48/48
f 65/65/65 45/45/45 48/48/48
f 48/48/48 49/49/49 55/55/55
f 65/65/65 48/48/48 55/55/55
f 66/66/66 59/59/59 60/60/60
f 67/67/67 66/66/66 60/60/60
f 68/68/68 66/66/66 67/67/67
f 69/69/69 68/68/68 67/67/67
f 69/69/69 35/35/35 36/36/36
f 68/68/68 69/69/69 36/36/36
f 70/70/70 42/42/42 43/43/43
f 71/71/71 70/70/70 43/43/43
f 72/72/72 70/70/70 71/71/71
f 72/72/72 11/11/11 44/44/44
f 73/73/73 47/47/47 42/42/42
f 70/70/70 73/73/73 42/42/42
f 74/74/74 73/73/73 70/70/70
f 72/72/72 74/74/74 70/70/70
f 72/72/72 44/44/44 38/38/38
f 74/74/74 72/72/72 38/38/38
f 11/11/11 72/72/72 71/71/71
f 40/40/40 14/14/14 57/57/57
f 14/14/14 62/62/62 56/56/56
f 57/57/57 14/14/14 56/56/56
f 62/62/62 58/58/58 64/64/64
f 56/56/56 62/62/62 64/64/64
f 54/54/54 64/64/64 58/58/58
f 59/59/59 54/54/54 58/58/58
f 55/55/55 54/54/54 59/59/59
f 66/66/66 55/55/55 59/59/59
f 65/65/65 55/55/55 66/66/66
f 68/68/68 65/65/65 66/66/66
f 68/68/68 36/36/36 45/45/45
f 65/65/65 68/68/68 45/45/45
f 41/41/41 20/20/20 63/63/63
f 63/63/63 20/20/20 17/17/17
f 61/61/61 63/63/63 17/17/17
f 17/17/17 13/13/13 60/60/60
f 61/61/61 17/17/17 60/60/60
f 60/60/60 13/13/13 11/11/11
f 67/67/67 60/60/60 11/11/11
f 69/69/69 67/67/67 11/11/11
f 71/71/71 69/69/69 11/11/11
f 71/71/71 43/43/43 35/35/35
f 69/69/69 71/71/71 35/35/35
g cPK_10_000960_00_PIKACHUex_RR_L_SB_2
f 77/77/77 76/76/76 75/75/75
f 80/80/80 79/79/79 78/78/78
f 81/81/81 80/80/80 78/78/78
f 39/39/39 82/82/82 38/38/38
f 85/85/85 84/84/84 83/83/83
f 86/86/86 85/85/85 83/83/83
f 89/89/89 88/88/88 87/87/87
f 75/75/75 76/76/76 90/90/90
f 91/91/91 75/75/75 90/90/90
f 82/82/82 80/80/80 81/81/81
f 38/38/38 82/82/82 81/81/81
f 91/91/91 90/90/90 92/92/92
f 93/93/93 46/46/46 47/47/47
f 93/93/93 91/91/91 92/92/92
f 46/46/46 93/93/93 92/92/92
f 86/86/86 83/83/83 94/94/94
f 80/80/80 89/89/89 87/87/87
f 79/79/79 80/80/80 87/87/87
f 77/77/77 86/86/86 94/94/94
f 76/76/76 77/77/77 94/94/94
f 85/85/85 96/96/96 95/95/95
f 95/95/95 98/98/98 97/97/97
f 85/85/85 95/95/95 97/97/97
f 85/85/85 97/97/97 84/84/84
f 88/88/88 100/100/100 99/99/99
f 87/87/87 88/88/88 99/99/99
f 99/99/99 95/95/95 96/96/96
f 100/100/100 98/98/98 95/95/95
f 99/99/99 100/100/100 95/95/95
f 103/103/103 102/102/102 101/101/101
f 104/104/104 102/102/102 103/103/103
f 105/105/105 102/102/102 104/104/104
f 106/106/106 102/102/102 105/105/105
f 107/107/107 102/102/102 106/106/106
f 108/108/108 102/102/102 107/107/107
f 109/109/109 102/102/102 108/108/108
f 109/109/109 110/110/110 102/102/102
f 111/111/111 110/110/110 109/109/109
f 112/112/112 110/110/110 111/111/111
f 113/113/113 110/110/110 112/112/112
f 114/114/114 110/110/110 113/113/113
f 115/115/115 110/110/110 114/114/114
f 115/115/115 116/116/116 110/110/110
f 117/117/117 116/116/116 115/115/115
f 118/118/118 116/116/116 117/117/117
f 118/118/118 119/119/119 116/116/116
f 120/120/120 119/119/119 118/118/118
f 121/121/121 119/119/119 120/120/120
f 122/122/122 119/119/119 121/121/121
f 122/122/122 123/123/123 119/119/119
f 124/124/124 123/123/123 122/122/122
f 127/127/127 126/126/126 125/125/125
f 128/128/128 126/126/126 127/127/127
f 128/128/128 129/129/129 126/126/126
f 128/128/128 130/130/130 129/129/129
f 128/128/128 131/131/131 130/130/130
f 132/132/132 131/131/131 128/128/128
f 132/132/132 133/133/133 131/131/131
f 132/132/132 134/134/134 133/133/133
f 132/132/132 135/135/135 134/134/134
f 136/136/136 135/135/135 132/132/132
f 136/136/136 137/137/137 135/135/135
f 136/136/136 138/138/138 137/137/137
f 139/139/139 138/138/138 136/136/136
f 139/139/139 140/140/140 138/138/138
f 139/139/139 141/141/141 140/140/140
f 139/139/139 142/142/142 141/141/141
f 139/139/139 143/143/143 142/142/142
f 144/144/144 143/143/143 139/139/139
f 144/144/144 145/145/145 143/143/143
f 123/123/123 145/145/145 144/144/144
f 123/123/123 146/146/146 145/145/145
f 148/148/148 124/124/124 147/147/147
f 148/148/148 123/123/123 124/124/124
f 148/148/148 146/146/146 123/123/123
f 151/151/151 150/150/150 149/149/149
f 154/154/154 153/153/153 152/152/152
f 155/155/155 153/153/153 154/154/154
f 101/101/101 156/156/156 103/103/103
f 101/101/101 157/157/157 156/156/156
f 158/158/158 157/157/157 101/101/101
f 159/159/159 153/153/153 155/155/155
f 158/158/158 160/160/160 157/157/157
f 158/158/158 161/161/161 160/160/160
f 162/162/162 161/161/161 158/158/158
f 162/162/162 163/163/163 161/161/161
f 162/162/162 164/164/164 163/163/163
f 165/165/165 164/164/164 162/162/162
f 165/165/165 166/166/166 164/164/164
f 165/165/165 167/167/167 166/166/166
f 165/165/165 168/168/168 167/167/167
f 169/169/169 153/153/153 159/159/159
f 170/170/170 153/153/153 169/169/169
f 170/170/170 171/171/171 153/153/153
f 172/172/172 171/171/171 170/170/170
f 173/173/173 171/171/171 172/172/172
f 174/174/174 171/171/171 173/173/173
f 174/174/174 175/175/175 171/171/171
f 176/176/176 175/175/175 174/174/174
f 177/177/177 175/175/175 176/176/176
f 178/178/178 175/175/175 177/177/177
f 179/179/179 175/175/175 178/178/178
f 179/179/179 180/180/180 175/175/175
f 181/181/181 180/180/180 179/179/179
f 182/182/182 180/180/180 181/181/181
f 183/183/183 180/180/180 182/182/182
f 183/183/183 184/184/184 180/180/180
f 185/185/185 184/184/184 183/183/183
f 186/186/186 184/184/184 185/185/185
f 165/165/165 187/187/187 168/168/168
f 190/190/190 189/189/189 188/188/188
f 165/165/165 191/191/191 187/187/187
f 192/192/192 191/191/191 165/165/165
f 192/192/192 193/193/193 191/191/191
f 192/192/192 194/194/194 193/193/193
f 195/195/195 184/184/184 186/186/186
f 196/196/196 184/184/184 195/195/195
f 197/197/197 184/184/184 196/196/196
f 197/197/197 198/198/198 184/184/184
f 199/199/199 198/198/198 197/197/197
f 200/200/200 198/198/198 199/199/199
f 200/200/200 201/201/201 198/198/198
f 202/202/202 201/201/201 200/200/200
f 203/203/203 201/201/201 202/202/202
f 204/204/204 201/201/201 203/203/203
f 205/205/205 201/201/201 204/204/204
f 205/205/205 206/206/206 201/201/201
f 207/207/207 206/206/206 205/205/205
f 208/208/208 206/206/206 207/207/207
f 209/209/209 206/206/206 208/208/208
f 210/210/210 206/206/206 209/209/209
f 210/210/210 211/211/211 206/206/206
f 212/212/212 211/211/211 210/210/210
f 213/213/213 211/211/211 212/212/212
f 213/213/213 214/214/214 211/211/211
f 215/215/215 214/214/214 213/213/213
f 216/216/216 214/214/214 215/215/215
f 216/216/216 217/217/217 214/214/214
f 218/218/218 217/217/217 216/216/216
f 219/219/219 217/217/217 218/218/218
f 220/220/220 217/217/217 219/219/219
f 220/220/220 221/221/221 217/217/217
f 222/222/222 221/221/221 220/220/220
f 223/223/223 221/221/221 222/222/222
f 223/223/223 224/224/224 221/221/221
f 225/225/225 224/224/224 223/223/223
f 189/189/189 224/224/224 225/225/225
f 190/190/190 224/224/224 189/189/189
f 226/226/226 224/224/224 190/190/190
f 227/227/227 224/224/224 226/226/226
f 228/228/228 224/224/224 227/227/227
f 229/229/229 224/224/224 228/228/228
f 229/229/229 230/230/230 224/224/224
f 229/229/229 231/231/231 230/230/230
f 229/229/229 232/232/232 231/231/231
f 232/232/232 229/229/229 233/233/233
f 232/232/232 233/233/233 234/234/234
f 232/232/232 234/234/234 235/235/235
f 232/232/232 235/235/235 236/236/236
f 192/192/192 237/237/237 194/194/194
f 192/192/192 238/238/238 237/237/237
f 192/192/192 239/239/239 238/238/238
f 240/240/240 239/239/239 192/192/192
f 240/240/240 241/241/241 239/239/239
f 240/240/240 242/242/242 241/241/241
f 240/240/240 243/243/243 242/242/242
f 244/244/244 243/243/243 240/240/240
f 244/244/244 245/245/245 243/243/243
f 244/244/244 246/246/246 245/245/245
f 244/244/244 248/248/248 247/247/247
f 249/249/249 246/246/246 244/244/244
f 250/250/250 249/249/249 244/244/244
f 251/251/251 250/250/250 244/244/244
f 247/247/247 251/251/251 244/244/244
f 248/248/248 252/252/252 247/247/247
f 248/248/248 253/253/253 252/252/252
f 248/248/248 254/254/254 253/253/253
f 255/255/255 254/254/254 248/248/248
f 256/256/256 255/255/255 248/248/248
f 257/257/257 256/256/256 248/248/248
f 258/258/258 257/257/257 248/248/248
f 259/259/259 258/258/258 248/248/248
f 260/260/260 259/259/259 248/248/248
f 261/261/261 260/260/260 248/248/248
f 262/262/262 261/261/261 248/248/248
f 248/248/248 263/263/263 262/262/262
f 248/248/248 264/264/264 263/263/263
f 248/248/248 265/265/265 264/264/264
f 248/248/248 266/266/266 265/265/265
f 248/248/248 267/267/267 266/266/266
f 248/248/248 268/268/268 267/267/267
f 248/248/248 269/269/269 268/268/268
f 269/269/269 248/248/248 232/232/232
f 236/236/236 235/235/235 270/270/270
f 232/232/232 236/236/236 269/269/269
f 154/154/154 152/152/152 149/149/149
f 152/152/152 271/271/271 149/149/149
f 151/151/151 149/149/149 271/271/271
f 274/274/274 273/273/273 272/272/272
f 151/151/151 275/275/275 150/150/150
f 278/278/278 277/277/277 276/276/276
f 125/125/125 279/279/279 127/127/127
f 280/280/280 279/279/279 125/125/125
f 280/280/280 281/281/281 279/279/279
f 282/282/282 275/275/275 151/151/151
f 282/282/282 283/283/283 275/275/275
f 282/282/282 284/284/284 283/283/283
f 282/282/282 285/285/285 284/284/284
f 286/286/286 285/285/285 282/282/282
f 286/286/286 287/287/287 285/285/285
f 286/286/286 288/288/288 287/287/287
f 289/289/289 288/288/288 286/286/286
f 289/289/289 290/290/290 288/288/288
f 289/289/289 291/291/291 290/290/290
f 292/292/292 291/291/291 289/289/289
f 292/292/292 293/293/293 291/291/291
f 294/294/294 281/281/281 280/280/280
f 295/295/295 281/281/281 294/294/294
f 295/295/295 296/296/296 281/281/281
f 297/297/297 296/296/296 295/295/295
f 298/298/298 296/296/296 297/297/297
f 298/298/298 299/299/299 296/296/296
f 300/300/300 299/299/299 298/298/298
f 301/301/301 299/299/299 300/300/300
f 302/302/302 299/299/299 301/301/301
f 302/302/302 303/303/303 299/299/299
f 304/304/304 303/303/303 302/302/302
f 304/304/304 305/305/305 303/303/303
f 306/306/306 305/305/305 304/304/304
f 307/307/307 305/305/305 306/306/306
f 307/307/307 308/308/308 305/305/305
f 309/309/309 308/308/308 307/307/307
f 278/278/278 310/310/310 277/277/277
f 292/292/292 278/278/278 293/293/293
f 292/292/292 310/310/310 278/278/278
f 292/292/292 311/311/311 310/310/310
f 292/292/292 312/312/312 311/311/311
f 313/313/313 312/312/312 292/292/292
f 313/313/313 314/314/314 312/312/312
f 313/313/313 315/315/315 314/314/314
f 313/313/313 316/316/316 315/315/315
f 313/313/313 317/317/317 316/316/316
f 308/308/308 317/317/317 313/313/313
f 308/308/308 318/318/318 317/317/317
f 309/309/309 318/318/318 308/308/308
f 309/309/309 319/319/319 318/318/318
f 309/309/309 274/274/274 319/319/319
f 273/273/273 274/274/274 309/309/309
g cPK_10_000960_00_PIKACHUex_RR_L_SB_3
f 320/320/320 91/91/91 93/93/93
f 321/321/321 320/320/320 93/93/93
f 74/74/74 38/38/38 81/81/81
f 322/322/322 74/74/74 81/81/81
f 323/323/323 77/77/77 75/75/75
f 324/324/324 323/323/323 75/75/75
f 322/322/322 81/81/81 78/78/78
f 320/320/320 322/322/322 78/78/78
f 324/324/324 75/75/75 91/91/91
f 320/320/320 324/324/324 91/91/91
f 86/86/86 77/77/77 96/96/96
f 85/85/85 86/86/86 96/96/96
f 87/87/87 99/99/99 79/79/79
f 99/99/99 96/96/96 77/77/77
f 323/323/323 99/99/99 77/77/77
f 93/93/93 47/47/47 73/73/73
f 321/321/321 93/93/93 73/73/73
f 73/73/73 74/74/74 322/322/322
f 321/321/321 73/73/73 322/322/322
f 320/320/320 321/321/321 322/322/322
f 320/320/320 78/78/78 324/324/324
f 78/78/78 79/79/79 323/323/323
f 324/324/324 78/78/78 323/323/323
f 323/323/323 79/79/79 99/99/99
f 325/325/325 297/297/297 295/295/295
f 326/326/326 172/172/172 170/170/170
f 327/327/327 149/149/149 150/150/150
f 328/328/328 275/275/275 283/283/283
f 327/327/327 159/159/159 155/155/155
f 328/328/328 284/284/284 285/285/285
f 331/331/331 330/330/330 329/329/329
f 328/328/328 331/331/331 329/329/329
f 330/330/330 332/332/332 326/326/326
f 329/329/329 330/330/330 326/326/326
f 332/332/332 174/174/174 173/173/173
f 331/331/331 287/287/287 288/288/288
f 335/335/335 334/334/334 333/333/333
f 336/336/336 335/335/335 333/333/333
f 334/334/334 338/338/338 337/337/337
f 333/333/333 334/334/334 337/337/337
f 338/338/338 179/179/179 178/178/178
f 335/335/335 290/290/290 291/291/291
f 340/340/340 339/339/339 334/334/334
f 335/335/335 340/340/340 334/334/334
f 339/339/339 341/341/341 338/338/338
f 334/334/334 339/339/339 338/338/338
f 341/341/341 183/183/183 182/182/182
f 340/340/340 293/293/293 278/278/278
f 340/340/340 342/342/342 339/339/339
f 344/344/344 343/343/343 341/341/341
f 339/339/339 344/344/344 341/341/341
f 343/343/343 195/195/195 186/186/186
f 328/328/328 329/329/329 327/327/327
f 275/275/275 328/328/328 327/327/327
f 329/329/329 326/326/326 159/159/159
f 327/327/327 329/329/329 159/159/159
f 340/340/340 278/278/278 342/342/342
f 278/278/278 276/276/276 342/342/342
f 340/340/340 291/291/291 293/293/293
f 340/340/340 335/335/335 291/291/291
f 335/335/335 288/288/288 290/290/290
f 335/335/335 336/336/336 288/288/288
f 331/331/331 285/285/285 287/287/287
f 331/331/331 328/328/328 285/285/285
f 328/328/328 283/283/283 284/284/284
f 275/275/275 327/327/327 150/150/150
f 327/327/327 154/154/154 149/149/149
f 327/327/327 155/155/155 154/154/154
f 326/326/326 169/169/169 159/159/159
f 326/326/326 170/170/170 169/169/169
f 326/326/326 173/173/173 172/172/172
f 326/326/326 332/332/332 173/173/173
f 337/337/337 177/177/177 176/176/176
f 333/333/333 337/337/337 332/332/332
f 330/330/330 333/333/333 332/332/332
f 336/336/336 333/333/333 330/330/330
f 331/331/331 336/336/336 330/330/330
f 336/336/336 331/331/331 288/288/288
f 332/332/332 176/176/176 174/174/174
f 332/332/332 337/337/337 176/176/176
f 337/337/337 178/178/178 177/177/177
f 337/337/337 338/338/338 178/178/178
f 338/338/338 181/181/181 179/179/179
f 341/341/341 182/182/182 181/181/181
f 338/338/338 341/341/341 181/181/181
f 341/341/341 185/185/185 183/183/183
f 343/343/343 186/186/186 185/185/185
f 341/341/341 343/343/343 185/185/185
f 325/325/325 280/280/280 125/125/125
f 345/345/345 300/300/300 298/298/298
f 346/346/346 129/129/129 130/130/130
f 347/347/347 325/325/325 129/129/129
f 346/346/346 347/347/347 129/129/129
f 347/347/347 345/345/345 297/297/297
f 325/325/325 347/347/347 297/297/297
f 346/346/346 133/133/133 134/134/134
f 349/349/349 348/348/348 347/347/347
f 346/346/346 349/349/349 347/347/347
f 348/348/348 350/350/350 345/345/345
f 347/347/347 348/348/348 345/345/345
f 350/350/350 304/304/304 302/302/302
f 349/349/349 135/135/135 137/137/137
f 352/352/352 351/351/351 348/348/348
f 349/349/349 352/352/352 348/348/348
f 351/351/351 353/353/353 350/350/350
f 348/348/348 351/351/351 350/350/350
f 353/353/353 307/307/307 306/306/306
f 352/352/352 138/138/138 140/140/140
f 355/355/355 354/354/354 351/351/351
f 352/352/352 355/355/355 351/351/351
f 354/354/354 356/356/356 353/353/353
f 351/351/351 354/354/354 353/353/353
f 356/356/356 273/273/273 309/309/309
f 355/355/355 141/141/141 142/142/142
f 357/357/357 355/355/355 142/142/142
f 357/357/357 358/358/358 354/354/354
f 355/355/355 357/357/357 354/354/354
f 360/360/360 359/359/359 356/356/356
f 359/359/359 272/272/272 273/273/273
f 356/356/356 359/359/359 273/273/273
f 325/325/325 125/125/125 126/126/126
f 325/325/325 126/126/126 129/129/129
f 280/280/280 325/325/325 294/294/294
f 325/325/325 295/295/295 294/294/294
f 345/345/345 298/298/298 297/297/297
f 346/346/346 130/130/130 131/131/131
f 346/346/346 131/131/131 133/133/133
f 349/349/349 346/346/346 134/134/134
f 349/349/349 134/134/134 135/135/135
f 345/345/345 301/301/301 300/300/300
f 350/350/350 302/302/302 301/301/301
f 345/345/345 350/350/350 301/301/301
f 350/350/350 306/306/306 304/304/304
f 350/350/350 353/353/353 306/306/306
f 352/352/352 349/349/349 137/137/137
f 352/352/352 137/137/137 138/138/138
f 355/355/355 352/352/352 140/140/140
f 355/355/355 140/140/140 141/141/141
f 353/353/353 309/309/309 307/307/307
f 353/353/353 356/356/356 309/309/309
f 316/316/316 317/317/317 361/361/361
f 362/362/362 234/234/234 233/233/233
f 365/365/365 364/364/364 363/363/363
f 368/368/368 367/367/367 366/366/366
f 369/369/369 319/319/319 274/274/274
f 372/372/372 371/371/371 370/370/370
f 373/373/373 372/372/372 370/370/370
f 376/376/376 375/375/375 374/374/374
f 379/379/379 378/378/378 377/377/377
f 380/380/380 212/212/212 210/210/210
f 381/381/381 380/380/380 210/210/210
f 384/384/384 383/383/383 382/382/382
f 387/387/387 386/386/386 385/385/385
f 219/219/219 389/389/389 388/388/388
f 390/390/390 218/218/218 216/216/216
f 393/393/393 392/392/392 391/391/391
f 396/396/396 395/395/395 394/394/394
f 399/399/399 398/398/398 397/397/397
f 400/400/400 204/204/204 203/203/203
f 402/402/402 401/401/401 397/397/397
f 404/404/404 403/403/403 366/366/366
f 390/390/390 389/389/389 219/219/219
f 314/314/314 315/315/315 405/405/405
f 406/406/406 399/399/399 394/394/394
f 363/363/363 407/407/407 368/368/368
f 410/410/410 409/409/409 408/408/408
f 411/411/411 410/410/410 408/408/408
f 361/361/361 317/317/317 318/318/318
f 412/412/412 396/396/396 391/391/391
f 415/415/415 414/414/414 413/413/413
f 385/385/385 416/416/416 384/384/384
f 417/417/417 385/385/385 384/384/384
f 358/358/358 418/418/418 393/393/393
f 420/420/420 393/393/393 419/419/419
f 373/373/373 370/370/370 421/421/421
f 424/424/424 423/423/423 422/422/422
f 357/357/357 142/142/142 143/143/143
f 418/418/418 145/145/145 146/146/146
f 427/427/427 426/426/426 425/425/425
f 429/429/429 428/428/428 426/426/426
f 427/427/427 429/429/429 426/426/426
f 383/383/383 431/431/431 430/430/430
f 414/414/414 432/432/432 364/364/364
f 388/388/388 433/433/433 387/387/387
f 421/421/421 370/370/370 434/434/434
f 435/435/435 373/373/373 421/421/421
f 372/372/372 436/436/436 374/374/374
f 376/376/376 374/374/374 436/436/436
f 437/437/437 376/376/376 436/436/436
f 436/436/436 439/439/439 438/438/438
f 437/437/437 436/436/436 438/438/438
f 425/425/425 421/421/421 434/434/434
f 425/425/425 434/434/434 440/440/440
f 427/427/427 425/425/425 440/440/440
f 443/443/443 442/442/442 441/441/441
f 442/442/442 429/429/429 441/441/441
f 444/444/444 383/383/383 384/384/384
f 372/372/372 375/375/375 413/413/413
f 431/431/431 422/422/422 430/430/430
f 431/431/431 424/424/424 422/422/422
f 425/425/425 435/435/435 421/421/421
f 428/428/428 438/438/438 439/439/439
f 426/426/426 428/428/428 439/439/439
f 445/445/445 442/442/442 443/443/443
f 445/445/445 431/431/431 446/446/446
f 446/446/446 383/383/383 447/447/447
f 447/447/447 383/383/383 444/444/444
f 425/425/425 426/426/426 435/435/435
f 439/439/439 436/436/436 373/373/373
f 432/432/432 448/448/448 364/364/364
f 365/365/365 414/414/414 364/364/364
f 450/450/450 449/449/449 432/432/432
f 414/414/414 450/450/450 432/432/432
f 414/414/414 365/365/365 371/371/371
f 411/411/411 451/451/451 407/407/407
f 411/411/411 407/407/407 364/364/364
f 407/407/407 451/451/451 452/452/452
f 454/454/454 453/453/453 385/385/385
f 456/456/456 409/409/409 455/455/455
f 458/458/458 457/457/457 385/385/385
f 459/459/459 385/385/385 386/386/386
f 433/433/433 461/461/461 460/460/460
f 463/463/463 462/462/462 454/454/454
f 455/455/455 409/409/409 410/410/410
f 464/464/464 455/455/455 410/410/410
f 465/465/465 458/458/458 459/459/459
f 467/467/467 466/466/466 386/386/386
f 460/460/460 467/467/467 386/386/386
f 470/470/470 469/469/469 468/468/468
f 471/471/471 470/470/470 468/468/468
f 449/449/449 450/450/450 453/453/453
f 453/453/453 450/450/450 385/385/385
f 457/457/457 454/454/454 385/385/385
f 459/459/459 458/458/458 385/385/385
f 433/433/433 460/460/460 386/386/386
f 459/459/459 386/386/386 466/466/466
f 465/465/465 459/459/459 466/466/466
f 463/463/463 468/468/468 469/469/469
f 462/462/462 463/463/463 469/469/469
f 432/432/432 462/462/462 469/469/469
f 460/460/460 461/461/461 467/467/467
f 471/471/471 410/410/410 470/470/470
f 448/448/448 472/472/472 364/364/364
f 467/467/467 461/461/461 455/455/455
f 464/464/464 467/467/467 455/455/455
f 452/452/452 451/451/451 408/408/408
f 407/407/407 377/377/377 378/378/378
f 407/407/407 452/452/452 377/377/377
f 379/379/379 377/377/377 452/452/452
f 414/414/414 416/416/416 450/450/450
f 414/414/414 415/415/415 416/416/416
f 470/470/470 410/410/410 473/473/473
f 449/449/449 453/453/453 462/462/462
f 453/453/453 454/454/454 462/462/462
f 457/457/457 458/458/458 465/465/465
f 411/411/411 364/364/364 472/472/472
f 474/474/474 208/208/208 207/207/207
f 475/475/475 474/474/474 207/207/207
f 477/477/477 378/378/378 476/476/476
f 478/478/478 390/390/390 216/216/216
f 479/479/479 215/215/215 213/213/213
f 480/480/480 479/479/479 213/213/213
f 479/479/479 216/216/216 215/215/215
f 381/381/381 210/210/210 209/209/209
f 481/481/481 381/381/381 209/209/209
f 481/481/481 209/209/209 208/208/208
f 474/474/474 481/481/481 208/208/208
f 475/475/475 482/482/482 474/474/474
f 474/474/474 404/404/404 481/481/481
f 404/404/404 477/477/477 381/381/381
f 481/481/481 404/404/404 381/381/381
f 381/381/381 477/477/477 476/476/476
f 380/380/380 381/381/381 476/476/476
f 483/483/483 478/478/478 479/479/479
f 480/480/480 483/483/483 479/479/479
f 479/479/479 478/478/478 216/216/216
f 476/476/476 483/483/483 480/480/480
f 380/380/380 476/476/476 480/480/480
f 480/480/480 213/213/213 212/212/212
f 380/380/380 480/480/480 212/212/212
f 403/403/403 404/404/404 482/482/482
f 475/475/475 205/205/205 204/204/204
f 475/475/475 207/207/207 205/205/205
f 484/484/484 200/200/200 199/199/199
f 486/486/486 401/401/401 485/485/485
f 400/400/400 203/203/203 202/202/202
f 143/143/143 145/145/145 418/418/418
f 357/357/357 143/143/143 418/418/418
f 419/419/419 418/418/418 146/146/146
f 420/420/420 434/434/434 370/370/370
f 420/420/420 371/371/371 392/392/392
f 412/412/412 392/392/392 365/365/365
f 412/412/412 363/363/363 395/395/395
f 406/406/406 395/395/395 368/368/368
f 406/406/406 366/366/366 398/398/398
f 402/402/402 398/398/398 403/403/403
f 419/419/419 146/146/146 148/148/148
f 419/419/419 440/440/440 434/434/434
f 485/485/485 400/400/400 202/202/202
f 485/485/485 202/202/202 200/200/200
f 487/487/487 359/359/359 360/360/360
f 488/488/488 487/487/487 396/396/396
f 489/489/489 488/488/488 394/394/394
f 490/490/490 489/489/489 399/399/399
f 491/491/491 490/490/490 397/397/397
f 311/311/311 312/312/312 492/492/492
f 495/495/495 494/494/494 493/493/493
f 496/496/496 495/495/495 493/493/493
f 499/499/499 498/498/498 497/497/497
f 501/501/501 500/500/500 497/497/497
f 430/430/430 503/503/503 502/502/502
f 502/502/502 503/503/503 500/500/500
f 505/505/505 504/504/504 242/242/242
f 505/505/505 251/251/251 247/247/247
f 506/506/506 265/265/265 266/266/266
f 509/509/509 508/508/508 507/507/507
f 512/512/512 511/511/511 510/510/510
f 513/513/513 512/512/512 510/510/510
f 511/511/511 515/515/515 514/514/514
f 510/510/510 511/511/511 514/514/514
f 517/517/517 516/516/516 514/514/514
f 515/515/515 517/517/517 514/514/514
f 518/518/518 507/507/507 362/362/362
f 507/507/507 508/508/508 362/362/362
f 513/513/513 510/510/510 519/519/519
f 506/506/506 513/513/513 519/519/519
f 510/510/510 514/514/514 505/505/505
f 519/519/519 510/510/510 505/505/505
f 504/504/504 505/505/505 514/514/514
f 516/516/516 504/504/504 514/514/514
f 520/520/520 498/498/498 499/499/499
f 521/521/521 520/520/520 499/499/499
f 501/501/501 498/498/498 520/520/520
f 522/522/522 501/501/501 520/520/520
f 502/502/502 501/501/501 522/522/522
f 523/523/523 502/502/502 522/522/522
f 515/515/515 520/520/520 521/521/521
f 517/517/517 515/515/515 521/521/521
f 522/522/522 520/520/520 515/515/515
f 511/511/511 522/522/522 515/515/515
f 523/523/523 522/522/522 511/511/511
f 512/512/512 523/523/523 511/511/511
f 525/525/525 509/509/509 524/524/524
f 519/519/519 257/257/257 258/258/258
f 525/525/525 524/524/524 523/523/523
f 508/508/508 525/525/525 512/512/512
f 508/508/508 513/513/513 362/362/362
f 505/505/505 242/242/242 243/243/243
f 505/505/505 243/243/243 245/245/245
f 505/505/505 245/245/245 246/246/246
f 249/249/249 505/505/505 246/246/246
f 249/249/249 250/250/250 505/505/505
f 250/250/250 251/251/251 505/505/505
f 505/505/505 247/247/247 252/252/252
f 505/505/505 252/252/252 253/253/253
f 519/519/519 505/505/505 253/253/253
f 519/519/519 253/253/253 254/254/254
f 519/519/519 254/254/254 255/255/255
f 519/519/519 255/255/255 256/256/256
f 519/519/519 256/256/256 257/257/257
f 519/519/519 258/258/258 259/259/259
f 519/519/519 259/259/259 260/260/260
f 519/519/519 260/260/260 261/261/261
f 519/519/519 261/261/261 262/262/262
f 506/506/506 519/519/519 262/262/262
f 263/263/263 506/506/506 262/262/262
f 263/263/263 264/264/264 506/506/506
f 264/264/264 265/265/265 506/506/506
f 506/506/506 266/266/266 267/267/267
f 506/506/506 267/267/267 268/268/268
f 506/506/506 268/268/268 269/269/269
f 362/362/362 506/506/506 269/269/269
f 236/236/236 362/362/362 269/269/269
f 236/236/236 270/270/270 362/362/362
f 270/270/270 235/235/235 362/362/362
f 235/235/235 234/234/234 362/362/362
f 362/362/362 233/233/233 229/229/229
f 362/362/362 228/228/228 227/227/227
f 362/362/362 229/229/229 228/228/228
f 362/362/362 227/227/227 226/226/226
f 362/362/362 226/226/226 190/190/190
f 362/362/362 190/190/190 188/188/188
f 526/526/526 507/507/507 518/518/518
f 527/527/527 189/189/189 225/225/225
f 528/528/528 223/223/223 222/222/222
f 225/225/225 223/223/223 528/528/528
f 440/440/440 147/147/147 529/529/529
f 494/494/494 440/440/440 530/530/530
f 529/529/529 147/147/147 124/124/124
f 532/532/532 531/531/531 497/497/497
f 533/533/533 166/166/166 167/167/167
f 533/533/533 535/535/535 534/534/534
f 538/538/538 537/537/537 536/536/536
f 539/539/539 537/537/537 538/538/538
f 541/541/541 539/539/539 540/540/540
f 544/544/544 543/543/543 542/542/542
f 546/546/546 545/545/545 543/543/543
f 161/161/161 163/163/163 547/547/547
f 538/538/538 117/117/117 115/115/115
f 538/538/538 113/113/113 112/112/112
f 540/540/540 108/108/108 107/107/107
f 544/544/544 103/103/103 156/156/156
f 546/546/546 157/157/157 160/160/160
f 529/529/529 124/124/124 122/122/122
f 537/537/537 530/530/530 529/529/529
f 493/493/493 530/530/530 537/537/537
f 539/539/539 493/493/493 537/537/537
f 496/496/496 493/493/493 539/539/539
f 541/541/541 496/496/496 539/539/539
f 548/548/548 531/531/531 532/532/532
f 536/536/536 529/529/529 122/122/122
f 536/536/536 122/122/122 121/121/121
f 530/530/530 440/440/440 529/529/529
f 546/546/546 160/160/160 161/161/161
f 166/166/166 547/547/547 164/164/164
f 533/533/533 168/168/168 187/187/187
f 533/533/533 549/549/549 535/535/535
f 535/535/535 550/550/550 531/531/531
f 533/533/533 167/167/167 168/168/168
f 533/533/533 187/187/187 191/191/191
f 551/551/551 549/549/549 193/193/193
f 551/551/551 193/193/193 194/194/194
f 551/551/551 194/194/194 237/237/237
f 497/497/497 495/495/495 496/496/496
f 532/532/532 497/497/497 496/496/496
f 532/532/532 496/496/496 541/541/541
f 542/542/542 532/532/532 541/541/541
f 542/542/542 541/541/541 552/552/552
f 552/552/552 106/106/106 105/105/105
f 500/500/500 503/503/503 422/422/422
f 503/503/503 430/430/430 422/422/422
f 552/552/552 105/105/105 104/104/104
f 544/544/544 552/552/552 104/104/104
f 544/544/544 104/104/104 103/103/103
f 552/552/552 540/540/540 107/107/107
f 552/552/552 107/107/107 106/106/106
f 540/540/540 109/109/109 108/108/108
f 540/540/540 111/111/111 109/109/109
f 538/538/538 112/112/112 111/111/111
f 540/540/540 538/538/538 111/111/111
f 538/538/538 114/114/114 113/113/113
f 538/538/538 115/115/115 114/114/114
f 536/536/536 120/120/120 118/118/118
f 117/117/117 536/536/536 118/118/118
f 536/536/536 121/121/121 120/120/120
f 548/548/548 534/534/534 535/535/535
f 531/531/531 548/548/548 535/535/535
f 524/524/524 502/502/502 523/523/523
f 432/432/432 449/449/449 462/462/462
f 470/470/470 432/432/432 469/469/469
f 470/470/470 448/448/448 432/432/432
f 470/470/470 473/473/473 448/448/448
f 448/448/448 473/473/473 472/472/472
f 378/378/378 483/483/483 476/476/476
f 478/478/478 389/389/389 390/390/390
f 378/378/378 379/379/379 483/483/483
f 414/414/414 371/371/371 413/413/413
f 372/372/372 413/413/413 371/371/371
f 407/407/407 378/378/378 367/367/367
f 367/367/367 378/378/378 477/477/477
f 404/404/404 367/367/367 477/477/477
f 450/450/450 416/416/416 385/385/385
f 478/478/478 483/483/483 389/389/389
f 456/456/456 379/379/379 452/452/452
f 372/372/372 373/373/373 436/436/436
f 547/547/547 553/553/553 161/161/161
f 166/166/166 533/533/533 547/547/547
f 163/163/163 164/164/164 547/547/547
f 544/544/544 546/546/546 543/543/543
f 544/544/544 542/542/542 552/552/552
f 552/552/552 541/541/541 540/540/540
f 540/540/540 539/539/539 538/538/538
f 538/538/538 536/536/536 117/117/117
f 536/536/536 537/537/537 529/529/529
f 419/419/419 148/148/148 147/147/147
f 419/419/419 147/147/147 440/440/440
f 358/358/358 357/357/357 418/418/418
f 391/391/391 487/487/487 360/360/360
f 509/509/509 525/525/525 508/508/508
f 502/502/502 500/500/500 501/501/501
f 445/445/445 424/424/424 431/431/431
f 426/426/426 439/439/439 435/435/435
f 435/435/435 439/439/439 373/373/373
f 446/446/446 431/431/431 383/383/383
f 463/463/463 454/454/454 457/457/457
f 463/463/463 457/457/457 465/465/465
f 465/465/465 466/466/466 468/468/468
f 463/463/463 465/465/465 468/468/468
f 471/471/471 468/468/468 466/466/466
f 467/467/467 471/471/471 466/466/466
f 471/471/471 467/467/467 464/464/464
f 471/471/471 464/464/464 410/410/410
f 390/390/390 219/219/219 218/218/218
f 403/403/403 482/482/482 475/475/475
f 400/400/400 475/475/475 204/204/204
f 525/525/525 523/523/523 512/512/512
f 508/508/508 512/512/512 513/513/513
f 473/473/473 411/411/411 472/472/472
f 411/411/411 473/473/473 410/410/410
f 411/411/411 408/408/408 451/451/451
f 456/456/456 452/452/452 408/408/408
f 456/456/456 433/433/433 389/389/389
f 456/456/456 455/455/455 433/433/433
f 455/455/455 461/461/461 433/433/433
f 456/456/456 408/408/408 409/409/409
f 456/456/456 389/389/389 379/379/379
f 379/379/379 389/389/389 483/483/483
f 415/415/415 375/375/375 384/384/384
f 416/416/416 415/415/415 384/384/384
f 415/415/415 413/413/413 375/375/375
f 372/372/372 374/374/374 375/375/375
f 420/420/420 419/419/419 434/434/434
f 393/393/393 418/418/418 419/419/419
f 554/554/554 383/383/383 430/430/430
f 382/382/382 383/383/383 554/554/554
f 343/343/343 344/344/344 397/397/397
f 417/417/417 555/555/555 526/526/526
f 222/222/222 388/388/388 528/528/528
f 220/220/220 388/388/388 222/222/222
f 389/389/389 433/433/433 388/388/388
f 433/433/433 386/386/386 387/387/387
f 387/387/387 385/385/385 417/417/417
f 555/555/555 417/417/417 384/384/384
f 527/527/527 526/526/526 189/189/189
f 555/555/555 384/384/384 509/509/509
f 555/555/555 509/509/509 507/507/507
f 445/445/445 423/423/423 424/424/424
f 442/442/442 445/445/445 428/428/428
f 429/429/429 442/442/442 428/428/428
f 445/445/445 446/446/446 438/438/438
f 428/428/428 445/445/445 438/438/438
f 437/437/437 438/438/438 446/446/446
f 447/447/447 437/437/437 446/446/446
f 447/447/447 444/444/444 376/376/376
f 437/437/437 447/447/447 376/376/376
f 376/376/376 384/384/384 375/375/375
f 376/376/376 444/444/444 384/384/384
f 427/427/427 440/440/440 441/441/441
f 429/429/429 427/427/427 441/441/441
f 443/443/443 441/441/441 556/556/556
f 555/555/555 507/507/507 526/526/526
f 388/388/388 387/387/387 528/528/528
f 499/499/499 497/497/497 531/531/531
f 521/521/521 499/499/499 550/550/550
f 521/521/521 550/550/550 551/551/551
f 517/517/517 521/521/521 551/551/551
f 551/551/551 237/237/237 516/516/516
f 517/517/517 551/551/551 516/516/516
f 516/516/516 237/237/237 238/238/238
f 504/504/504 241/241/241 242/242/242
f 518/518/518 362/362/362 188/188/188
f 518/518/518 188/188/188 189/189/189
f 551/551/551 550/550/550 535/535/535
f 549/549/549 551/551/551 535/535/535
f 553/553/553 546/546/546 161/161/161
f 549/549/549 533/533/533 191/191/191
f 549/549/549 191/191/191 193/193/193
f 238/238/238 239/239/239 504/504/504
f 516/516/516 238/238/238 504/504/504
f 239/239/239 241/241/241 504/504/504
f 527/527/527 225/225/225 528/528/528
f 387/387/387 417/417/417 527/527/527
f 417/417/417 526/526/526 527/527/527
f 528/528/528 387/387/387 527/527/527
f 220/220/220 219/219/219 388/388/388
f 526/526/526 518/518/518 189/189/189
f 501/501/501 497/497/497 498/498/498
f 543/543/543 548/548/548 532/532/532
f 542/542/542 543/543/543 532/532/532
f 543/543/543 545/545/545 534/534/534
f 548/548/548 543/543/543 534/534/534
f 533/533/533 534/534/534 547/547/547
f 553/553/553 547/547/547 545/545/545
f 545/545/545 547/547/547 534/534/534
f 546/546/546 553/553/553 545/545/545
f 546/546/546 156/156/156 157/157/157
f 546/546/546 544/544/544 156/156/156
f 445/445/445 443/443/443 423/423/423
f 497/497/497 500/500/500 495/495/495
f 500/500/500 422/422/422 495/495/495
f 556/556/556 441/441/441 494/494/494
f 494/494/494 441/441/441 440/440/440
f 499/499/499 531/531/531 550/550/550
f 513/513/513 506/506/506 362/362/362
f 495/495/495 556/556/556 494/494/494
f 493/493/493 494/494/494 530/530/530
f 369/369/369 359/359/359 487/487/487
f 361/361/361 369/369/369 488/488/488
f 405/405/405 361/361/361 489/489/489
f 492/492/492 405/405/405 490/490/490
f 557/557/557 492/492/492 491/491/491
f 342/342/342 557/557/557 491/491/491
f 369/369/369 272/272/272 359/359/359
f 369/369/369 274/274/274 272/272/272
f 318/318/318 319/319/319 369/369/369
f 361/361/361 318/318/318 369/369/369
f 405/405/405 315/315/315 316/316/316
f 405/405/405 316/316/316 361/361/361
f 492/492/492 312/312/312 314/314/314
f 492/492/492 314/314/314 405/405/405
f 277/277/277 310/310/310 311/311/311
f 557/557/557 277/277/277 311/311/311
f 557/557/557 311/311/311 492/492/492
f 492/492/492 490/490/490 491/491/491
f 405/405/405 489/489/489 490/490/490
f 361/361/361 488/488/488 489/489/489
f 369/369/369 487/487/487 488/488/488
f 382/382/382 524/524/524 509/509/509
f 384/384/384 382/382/382 509/509/509
f 554/554/554 430/430/430 502/502/502
f 382/382/382 554/554/554 524/524/524
f 554/554/554 502/502/502 524/524/524
f 354/354/354 358/358/358 360/360/360
f 360/360/360 358/358/358 393/393/393
f 391/391/391 360/360/360 393/393/393
f 354/354/354 360/360/360 356/356/356
f 495/495/495 422/422/422 556/556/556
f 443/443/443 556/556/556 422/422/422
f 423/423/423 443/443/443 422/422/422
f 276/276/276 277/277/277 557/557/557
f 342/342/342 276/276/276 557/557/557
f 344/344/344 342/342/342 491/491/491
f 342/342/342 344/344/344 339/339/339
f 489/489/489 394/394/394 399/399/399
f 488/488/488 396/396/396 394/394/394
f 487/487/487 391/391/391 396/396/396
f 490/490/490 399/399/399 397/397/397
f 399/399/399 406/406/406 398/398/398
f 402/402/402 397/397/397 398/398/398
f 406/406/406 394/394/394 395/395/395
f 396/396/396 412/412/412 395/395/395
f 363/363/363 364/364/364 407/407/407
f 368/368/368 407/407/407 367/367/367
f 404/404/404 366/366/366 367/367/367
f 398/398/398 366/366/366 403/403/403
f 406/406/406 368/368/368 366/366/366
f 395/395/395 363/363/363 368/368/368
f 412/412/412 365/365/365 363/363/363
f 412/412/412 391/391/391 392/392/392
f 393/393/393 420/420/420 392/392/392
f 392/392/392 371/371/371 365/365/365
f 420/420/420 370/370/370 371/371/371
f 344/344/344 491/491/491 397/397/397
f 343/343/343 397/397/397 401/401/401
f 196/196/196 195/195/195 343/343/343
f 485/485/485 402/402/402 400/400/400
f 400/400/400 403/403/403 475/475/475
f 474/474/474 482/482/482 404/404/404
f 401/401/401 402/402/402 485/485/485
f 402/402/402 403/403/403 400/400/400
f 486/486/486 485/485/485 200/200/200
f 486/486/486 197/197/197 196/196/196
f 560/560/560 559/559/559 558/558/558
f 561/561/561 484/484/484 199/199/199
f 484/484/484 561/561/561 197/197/197
f 486/486/486 484/484/484 197/197/197
f 486/486/486 200/200/200 484/484/484
f 486/486/486 343/343/343 401/401/401
f 486/486/486 196/196/196 343/343/343
