g cPK_20_002450_00_MEWex_SR_L_SB
v 0.014418572 -0.0035918825 -0.03808853
v 0.013216424 -0.00017519532 -0.03808853
v 0.014292098 -0.0073250853 -0.03808853
v 0.0111284135 0.0031782219 -0.03808853
v 0.013532728 -0.010362136 -0.03808853
v 0.008724004 0.0056459196 -0.03808853
v 0.0056236507 0.0072277077 -0.03808853
v 0.002586442 0.007860411 -0.03808853
v -0.0010200205 0.008050318 -0.03808853
v 0.01188761 -0.014031941 -0.03808853
v 0.009419942 -0.01713234 -0.03808853
v -0.0047530713 0.007860411 -0.03808853
v 0.005560321 -0.020738905 -0.03808853
v -0.008106584 0.0072277077 -0.03808853
v 0.0012577949 -0.023902554 -0.03808853
v -0.011586565 0.0063418574 -0.03808853
v -0.01494009 0.0051396973 -0.03808853
v -0.0030447426 -0.02630688 -0.03808853
v -0.018103749 0.0035578914 -0.03808853
v -0.024241108 0.00039421977 -0.03808853
v -0.010194594 -0.02978695 -0.03808853
v -0.02158373 -0.034469143 -0.03808853
v -0.031201178 -0.002579608 -0.03808853
v -0.03822449 -0.0051737363 -0.03808853
v -0.032403417 -0.03782257 -0.03808853
v -0.045753926 -0.007767906 -0.03808853
v -0.046513196 -0.041429162 -0.03808853
v -0.05707975 -0.011627638 -0.03808853
v -0.06119251 -0.044845816 -0.03808853
v -0.06840567 -0.014791274 -0.03808853
v -0.07707401 -0.0483259 -0.03808853
v -0.083401285 -0.018334497 -0.03808853
v -0.08953882 -0.050730314 -0.03808853
v -0.095233314 -0.020612374 -0.03808853
v -0.10200355 -0.052122235 -0.03808853
v -0.10801456 -0.022573778 -0.03808853
v -0.11870766 -0.053577553 -0.03808853
v -0.12098539 -0.024345487 -0.03808853
v -0.1356647 -0.054336783 -0.03808853
v -0.12864152 -0.024788423 -0.03808853
v -0.14161234 -0.024851704 -0.03808853
v -0.14882548 -0.05389395 -0.03808853
v -0.15211563 -0.024725074 -0.03808853
v -0.167048 -0.052185517 -0.03808853
v -0.1608473 -0.024282238 -0.03808853
v -0.17166701 -0.022130957 -0.03808853
v -0.18160085 -0.04940152 -0.03808853
v -0.18109465 -0.019853054 -0.03808853
v -0.1924604 -0.046587836 -0.03808853
v -0.19355936 -0.015993431 -0.03808853
v -0.20464268 -0.04254959 -0.03808853
v -0.21611999 -0.037844356 -0.03808853
v -0.20380965 -0.011247953 -0.03808853
v -0.22660068 -0.031923976 -0.03808853
v -0.21424957 -0.0047309035 -0.03808853
v -0.23388119 -0.027683735 -0.03808853
v -0.22383855 0.0030202216 -0.03808853
v -0.24134576 -0.022108499 -0.03808853
v -0.24745421 -0.01667872 -0.03808853
v -0.23371552 0.012034196 -0.03808853
v -0.25362432 -0.010940498 -0.03808853
v -0.26133698 -0.002981075 -0.03808853
v -0.24031062 0.018871296 -0.03808853
v -0.2662731 0.0026337868 -0.03808853
v -0.24799481 0.027523577 -0.03808853
v -0.27114758 0.0085571 -0.03808853
v -0.2750348 0.013554925 -0.03808853
v -0.25416633 0.036236346 -0.03808853
v -0.27981737 0.021176744 -0.03808853
v -0.28654212 0.033821147 -0.03808853
v -0.25979328 0.045312114 -0.03808853
v -0.2656019 0.057110645 -0.03808853
v -0.29227236 0.04641824 -0.03808853
v -0.2969608 0.05882585 -0.03808853
v -0.2695953 0.0680017 -0.03808853
v -0.3007494 0.073175155 -0.03808853
v -0.2717129 0.07877167 -0.03808853
v -0.30335405 0.0919287 -0.03808853
v -0.27413315 0.09389793 -0.03808853
v -0.30448675 0.108103886 -0.03808853
v -0.27437514 0.112715185 -0.03808853
v -0.30367154 0.12164088 -0.03808853
v -0.27377012 0.12620784 -0.03808853
v -0.3023332 0.13523592 -0.03808853
v -0.2718339 0.13849053 -0.03808853
v -0.30029035 0.1471404 -0.03808853
v -0.26886916 0.15289077 -0.03808853
v -0.29852933 0.15686128 -0.03808853
v -0.29532287 0.16884479 -0.03808853
v -0.2653598 0.16571793 -0.03808853
v -0.2920992 0.17912398 -0.03808853
v -0.26076147 0.17908953 -0.03808853
v -0.289058 0.18849076 -0.03808853
v -0.28522614 0.19816177 -0.03808853
v -0.2551345 0.19409488 -0.03808853
v -0.2808468 0.20801508 -0.03808853
v -0.24835785 0.20698261 -0.03808853
v -0.27598104 0.21792936 -0.03808853
v -0.27184507 0.2258972 -0.03808853
v -0.2415813 0.21829703 -0.03808853
v -0.26758736 0.23319595 -0.03808853
v -0.26168746 0.24171133 -0.03808853
v -0.23419952 0.22840147 -0.03808853
v -0.2555443 0.25004414 -0.03808853
v -0.22488168 0.23929249 -0.03808853
v -0.24934028 0.2577079 -0.03808853
v -0.24490015 0.26299953 -0.03808853
v -0.21368821 0.2512121 -0.03808853
v -0.23973022 0.2689602 -0.03808853
v -0.23279631 0.27510342 -0.03808853
v -0.20630653 0.25750455 -0.03808853
v -0.22689644 0.28027338 -0.03808853
v -0.21953686 0.28617322 -0.03808853
v -0.19420555 0.26694342 -0.03808853
v -0.2124813 0.29189068 -0.03808853
v -0.18404062 0.2742041 -0.03808853
v -0.20639896 0.29645246 -0.03808853
v -0.20165475 0.29973692 -0.03808853
v -0.1932611 0.30515018 -0.03808853
v -0.17024536 0.2821908 -0.03808853
v -0.18480662 0.30965117 -0.03808853
v -0.15614764 0.28999597 -0.03808853
v -0.1746491 0.31500354 -0.03808853
v -0.16242364 0.32090342 -0.03808853
v -0.14398594 0.29653057 -0.03808853
v -0.15263097 0.32522193 -0.03808853
v -0.12444279 0.30451727 -0.03808853
v -0.14387242 0.32893217 -0.03808853
v -0.13274181 0.3332506 -0.03808853
v -0.09999854 0.31244346 -0.03808853
v -0.12173271 0.33726498 -0.03808853
v -0.109324746 0.34134007 -0.03808853
v -0.093267314 0.34584105 -0.03808853
v -0.0727712 0.31861505 -0.03808853
v -0.07733161 0.34942964 -0.03808851
v -0.051049836 0.32260844 -0.03808853
v -0.054461904 0.35338315 -0.03808851
v -0.036770504 0.3236975 -0.03808853
v -0.036579866 0.35624185 -0.03808851
v -0.022309666 0.32460514 -0.03808853
v -0.02319867 0.35806653 -0.03808851
v 0.0068538967 0.3249076 -0.03808853
v -0.008357793 0.35934395 -0.03808851
v 0.0051449956 0.36049947 -0.03808851
v 0.02369622 0.3606212 -0.03808851
v 0.016595364 0.32393953 -0.03808853
v 0.023492903 0.32266894 -0.03808853
v 0.03537428 0.36019543 -0.03808851
v 0.03154018 0.3209142 -0.03808853
v 0.051261343 0.3587383 -0.03808853
v 0.037924033 0.31882557 -0.03808853
v 0.042812105 0.3167218 -0.03808853
v 0.06446851 0.35675514 -0.03808853
v 0.04819533 0.31387553 -0.03808853
v 0.07591545 0.35452765 -0.03808853
v 0.05258846 0.31109118 -0.03808853
v 0.056981634 0.30787358 -0.03808853
v 0.08525863 0.35267136 -0.03808853
v 0.06267417 0.3029236 -0.03808853
v 0.095344275 0.35025823 -0.03808853
v 0.06700547 0.29853043 -0.03808853
v 0.10419251 0.34759757 -0.03808853
v 0.07300733 0.2924667 -0.03808853
v 0.11242183 0.34450382 -0.03808853
v 0.12052762 0.34097692 -0.03808853
v 0.078637965 0.28578416 -0.03808853
v 0.12727192 0.33794495 -0.03808853
v 0.08538237 0.27767846 -0.03808853
v 0.13686262 0.33311877 -0.03808853
v 0.089527994 0.27217153 -0.03808853
v 0.1452777 0.32835442 -0.03808853
v 0.093364224 0.26678845 -0.03808853
v 0.15505396 0.32247618 -0.03808853
v 0.096396156 0.26208586 -0.03808853
v 0.1640259 0.3166599 -0.03808853
v 0.10196494 0.25354707 -0.03808853
v 0.10815249 0.24494636 -0.03808853
v 0.17052284 0.3123286 -0.03808853
v 0.17541102 0.30873993 -0.03808853
v 0.17968039 0.30477986 -0.03808853
v 0.11353562 0.23758326 -0.03808853
v 0.18549667 0.29914925 -0.03808853
v 0.12133198 0.22879694 -0.03808853
v 0.1914367 0.29289982 -0.03808853
v 0.19904733 0.28368032 -0.03808853
v 0.12912817 0.2200725 -0.03808853
v 0.20709114 0.2724191 -0.03808853
v 0.13673897 0.21289495 -0.03808853
v 0.14366893 0.20738804 -0.03808853
v 0.21272181 0.26258084 -0.03808853
v 0.15041336 0.202438 -0.03808853
v 0.21847616 0.25212392 -0.03808853
v 0.15765284 0.1978593 -0.03808853
v 0.16928531 0.19074363 -0.03808853
v 0.2223743 0.24401824 -0.03808853
v 0.22534442 0.23628378 -0.03808853
v 0.1776385 0.18622671 -0.03808853
v 0.22862375 0.22762132 -0.03808853
v 0.1834548 0.18375176 -0.03808853
v 0.1900136 0.18177173 -0.03808853
v 0.2310369 0.2199488 -0.03808853
v 0.19514918 0.18022482 -0.03808853
v 0.23221259 0.21518444 -0.03808853
v 0.23283128 0.21178126 -0.03808853
v 0.23289314 0.2067074 -0.03808853
v 0.19991362 0.17880172 -0.03808853
v 0.23283128 0.19983934 -0.03808853
v 0.23134628 0.19433235 -0.03808853
v 0.2045542 0.17787354 -0.03808853
v 0.20944238 0.1777498 -0.03808853
v 0.22961378 0.18944427 -0.03808853
v 0.2135881 0.17799734 -0.03808853
v 0.21748614 0.17892545 -0.03808853
v 0.22757189 0.1857317 -0.03808853
v 0.22559182 0.18344232 -0.03808853
v 0.22317867 0.1815242 -0.03808853
v 0.22045624 0.17991549 -0.03808853
v 0.101246156 -0.11330692 -0.06794884
v 0.10020862 -0.11426475 -0.06794884
v 0.102893054 -0.11334721 -0.06794884
v 0.06445395 -0.17284499 -0.06794884
v 0.06581071 -0.17316417 -0.06794884
v 0.06269816 -0.17164779 -0.06794885
v 0.059024643 -0.00282069 -0.0345832
v 0.06258929 -0.0030992727 -0.0345832
v 0.056462474 -0.0017624382 -0.0345832
v 0.052173775 0.0022477347 -0.0345832
v 0.054346006 -0.00014725672 -0.0345832
v 0.051338382 0.004085844 -0.0345832
v 0.064753294 0.030327762 -0.0345832
v 0.062032312 0.027813142 -0.0345832
v 0.06770863 0.032575816 -0.0345832
v 0.07473233 0.036778826 -0.03495241
v 0.08413532 0.042017564 -0.03588518
v 0.09689626 0.0475248 -0.037618335
v 0.10643356 0.05101741 -0.039197635
v 0.11597069 0.053972583 -0.040929552
v 0.1232244 0.05545016 -0.042097308
v 0.13047801 0.05665905 -0.04316261
v 0.13880628 0.057599463 -0.044371773
v 0.14713451 0.058136787 -0.045311857
v 0.15600006 0.058136787 -0.046111014
v 0.16486572 0.05800241 -0.046955686
v 0.1782983 0.05652467 -0.047704436
v 0.18904442 0.054375626 -0.04797966
v 0.1969697 0.052226346 -0.047922205
v 0.20798448 0.04859959 -0.047757603
v 0.21617833 0.045107 -0.04749781
v 0.22343205 0.041077174 -0.04742806
v 0.23149161 0.0362415 -0.047312815
v 0.23740208 0.031942897 -0.047312815
v 0.24479 0.026435686 -0.047312815
v 0.2533869 0.018913245 -0.047312815
v 0.2606405 0.012465619 -0.047312815
v 0.2683774 0.005016597 -0.047312815
v 0.2740732 -0.001504308 -0.047312815
v 0.27939805 -0.008389117 -0.047484722
v 0.2838392 -0.016860126 -0.047312815
v 0.28737563 -0.024097526 -0.047312815
v 0.2906654 -0.031746145 -0.047312815
v 0.2937084 -0.040463977 -0.04741755
v 0.296258 -0.051155705 -0.047312815
v 0.2974916 -0.058475323 -0.047312815
v 0.29856083 -0.06612406 -0.047312815
v 0.29938322 -0.07549971 -0.047439855
v 0.29946545 -0.09836346 -0.04802046
v 0.2987253 -0.10560093 -0.04821251
v 0.2974094 -0.11357855 -0.048773613
v 0.2963402 -0.11966454 -0.04901278
v 0.2946954 -0.12706654 -0.04960375
v 0.29288593 -0.13339919 -0.05010279
v 0.29074764 -0.14030774 -0.05082457
v 0.28844488 -0.14729841 -0.05127986
v 0.285813 -0.15346669 -0.051985767
v 0.28309903 -0.15873034 -0.05235779
v 0.28063172 -0.16292475 -0.052667577
v 0.27808216 -0.16744816 -0.05294345
v 0.27429897 -0.17312303 -0.05337959
v 0.26977548 -0.17904443 -0.053724177
v 0.26533446 -0.18471922 -0.054391056
v 0.26015306 -0.19064079 -0.054952282
v 0.25636983 -0.19434185 -0.055343628
v 0.2527511 -0.19746703 -0.055689424
v 0.24839218 -0.20059238 -0.056191184
v 0.24222401 -0.2046223 -0.056830812
v 0.23704259 -0.20774744 -0.057632327
v 0.23153229 -0.210626 -0.058331836
v 0.22454157 -0.2138336 -0.05909664
v 0.21837325 -0.21597178 -0.059590813
v 0.21179388 -0.21761678 -0.05997702
v 0.2037339 -0.21901481 -0.060828697
v 0.19978626 -0.21942608 -0.060972836
v 0.18942355 -0.21967275 -0.06129237
v 0.18383107 -0.2195082 -0.06184063
v 0.17667584 -0.2186859 -0.062444676
v 0.1695206 -0.21737002 -0.06300707
v 0.1635991 -0.2158074 -0.06347931
v 0.1554569 -0.21350451 -0.06417033
v 0.14897232 -0.21099399 -0.0646264
v 0.14162977 -0.20740262 -0.06545829
v 0.13428734 -0.20317256 -0.06627947
v 0.12750348 -0.19862346 -0.0665647
v 0.10962615 -0.18760979 -0.06700655
v 0.11577151 -0.19112138 -0.06700655
v 0.101964414 -0.18314023 -0.06700654
v 0.06908291 -0.17332375 -0.06794885
v 0.0727541 -0.17340359 -0.06794884
v 0.060144216 -0.1695728 -0.06794885
v 0.057749923 -0.16669956 -0.06794884
v 0.056313436 -0.16470443 -0.06794884
v 0.055196065 -0.16231011 -0.06794884
v 0.05479702 -0.16023502 -0.06794884
v 0.05431818 -0.15616469 -0.06794885
v 0.054158527 -0.15249354 -0.06794884
v 0.054238256 -0.14906171 -0.06794884
v 0.055435456 -0.1436346 -0.06794884
v 0.056632575 -0.14052199 -0.06794884
v 0.058148958 -0.13629225 -0.06794884
v 0.05974517 -0.13349886 -0.06794884
v 0.061820265 -0.13030627 -0.06794885
v 0.06413465 -0.12791209 -0.06794884
v 0.06836455 -0.124480344 -0.06794884
v 0.07235516 -0.12152734 -0.06794884
v 0.0760263 -0.11945236 -0.06794884
v 0.080735154 -0.11753684 -0.06794885
v 0.08576304 -0.11578103 -0.06794884
v 0.090471886 -0.11498308 -0.06794884
v 0.09478153 -0.11450412 -0.06794884
v 0.09893169 -0.11418482 -0.06794884
v 0.106719136 -0.11391242 -0.06794884
v 0.110545196 -0.11521695 -0.06794885
v 0.11345823 -0.11660806 -0.06794884
v 0.11650175 -0.11843425 -0.06794884
v 0.118936494 -0.120260276 -0.06794884
v 0.12124088 -0.122564636 -0.06794884
v 0.12284952 -0.12486899 -0.06794884
v 0.124110416 -0.12760809 -0.06794884
v 0.12502345 -0.1304342 -0.06794884
v 0.1256756 -0.13339077 -0.06794884
v 0.12602343 -0.13612987 -0.06794884
v 0.12615386 -0.13904284 -0.06794884
v 0.08408867 0.003083342 -0.035021015
v 0.08809893 0.005756704 -0.03552235
v 0.079855554 0.00068835024 -0.0345832
v 0.07545548 -0.00092699623 -0.0345832
v 0.07155659 -0.002319321 -0.0345832
v 0.06760213 -0.0028763923 -0.0345832
v 0.050669987 0.0062023005 -0.0345832
v 0.050558604 0.008207469 -0.0345832
v 0.05072558 0.011103689 -0.0345832
v 0.051282573 0.013944253 -0.0345832
v 0.05239662 0.016339364 -0.0345832
v 0.05378904 0.018734356 -0.0345832
v 0.05618403 0.021964883 -0.0345832
v 0.05896895 0.025084008 -0.0345832
v 0.09366865 0.009377055 -0.03641283
v 0.09926822 0.012608928 -0.037123766
v 0.10556692 0.016020771 -0.038262874
v 0.11015959 0.01812038 -0.03921437
v 0.11744243 0.020482242 -0.040496167
v 0.12754658 0.022713143 -0.042086907
v 0.1380443 0.02441897 -0.043692853
v 0.1447366 0.025140721 -0.04444899
v 0.15247868 0.025403095 -0.045194782
v 0.16625711 0.025140721 -0.04614997
v 0.17629562 0.02435337 -0.046875443
v 0.18572478 0.022584371 -0.047309466
v 0.19543615 0.019399084 -0.047312815
v 0.20505062 0.015347393 -0.047312815
v 0.2129895 0.011312974 -0.047312815
v 0.22040775 0.0069314498 -0.047312815
v 0.2255702 0.0033306803 -0.047312815
v 0.23051567 -0.00070376246 -0.047312815
v 0.2359818 -0.0055624554 -0.047312815
v 0.23943488 -0.0088451505 -0.047312815
v 0.24242456 -0.0117297545 -0.047312815
v 0.2463059 -0.016397847 -0.047312815
v 0.2505543 -0.021800226 -0.047312815
v 0.25391114 -0.026520748 -0.047312815
v 0.2581596 -0.032814838 -0.047312815
v 0.26130667 -0.0379548 -0.047312815
v 0.26398152 -0.043567028 -0.047312815
v 0.26649925 -0.049965996 -0.047312815
v 0.2683874 -0.056155045 -0.047312815
v 0.26970643 -0.061891664 -0.047312815
v 0.27033958 -0.06661174 -0.047312815
v 0.27068493 -0.07156197 -0.047312815
v 0.27074254 -0.07846924 -0.047620393
v 0.27056977 -0.08963599 -0.04810691
v 0.26999426 -0.09688862 -0.04857722
v 0.26890048 -0.10770998 -0.049271323
v 0.26740402 -0.116919756 -0.05016054
v 0.26590738 -0.123769425 -0.050852906
v 0.26189318 -0.13421628 -0.052208185
v 0.2573497 -0.14402492 -0.053540047
v 0.25259396 -0.1526448 -0.054523706
v 0.2474985 -0.16054289 -0.055241268
v 0.24274278 -0.16631775 -0.056121737
v 0.23437767 -0.17349383 -0.057425376
v 0.2252482 -0.17969327 -0.058502253
v 0.21743515 -0.18359986 -0.059542216
v 0.21115367 -0.18591239 -0.06029691
v 0.20667541 -0.18734708 -0.060736664
v 0.2021971 -0.1884775 -0.06116424
v 0.19576238 -0.18878193 -0.061845522
v 0.1898928 -0.18878193 -0.06228258
v 0.18545805 -0.18817319 -0.062698655
v 0.18097983 -0.18708627 -0.06303277
v 0.17658849 -0.18560795 -0.06348284
v 0.16989289 -0.18269484 -0.064080454
v 0.16380592 -0.17956457 -0.06462096
v 0.15832764 -0.17639053 -0.06536258
v 0.15354507 -0.17304282 -0.06604483
v 0.14780597 -0.16886888 -0.066810444
v 0.12167746 -0.19479258 -0.066915296
v 0.14311032 -0.16512966 -0.067340665
v 0.13945813 -0.1620428 -0.06765638
v 0.13689297 -0.159521 -0.067819744
v 0.1344582 -0.1568689 -0.067917444
v 0.1325017 -0.15439065 -0.06794885
v 0.13071908 -0.15178202 -0.06794884
v 0.096218176 -0.1801077 -0.06729091
v 0.12906687 -0.14921674 -0.06794884
v 0.12767556 -0.14678198 -0.06794884
v 0.08943433 -0.17715454 -0.0676679
v 0.12680599 -0.14452118 -0.06794884
v 0.08488513 -0.17539875 -0.06794884
v 0.1263713 -0.14208627 -0.06794885
v 0.082411095 -0.17460077 -0.06794884
v 0.07985725 -0.17396228 -0.06794884
v 0.07674454 -0.17364298 -0.06794885
v 0.030619783 0.3079767 -0.075171076
v 0.027292801 0.30838618 -0.075171076
v 0.03302545 0.3065946 -0.075171076
v 0.034970477 0.30444488 -0.075171076
v 0.023914643 0.30823252 -0.075171076
v 0.019563915 0.30731124 -0.075171076
v 0.038553342 0.2999919 -0.075171076
v 0.015264392 0.3056733 -0.075171076
v 0.041982822 0.29297957 -0.075171076
v 0.0093781585 0.30316532 -0.075171076
v 0.044797916 0.28555784 -0.075171076
v 0.0030824249 0.3000943 -0.075171076
v 0.047817882 0.27537203 -0.075171076
v -0.005567744 0.2948222 -0.075171076
v -0.013347822 0.28903836 -0.075171076
v 0.050786544 0.26426494 -0.075171076
v 0.052782703 0.25346503 -0.075171076
v -0.019643545 0.28448296 -0.075171076
v -0.024198972 0.28120708 -0.075171076
v 0.054113526 0.24486594 -0.075171076
v -0.029675681 0.2771635 -0.075171076
v -0.03305392 0.27516732 -0.075171076
v -0.035306048 0.27393892 -0.075171076
v -0.037558176 0.2735294 -0.075171076
v -0.04175534 0.2729152 -0.075171076
v -0.052606475 0.2717379 -0.075171076
v 0.05774772 0.24184616 -0.075171076
v 0.06383865 0.23601107 -0.075171076
v 0.06911057 0.23073898 -0.075171076
v 0.07392193 0.22541581 -0.075171076
v 0.07827274 0.21937604 -0.075171076
v 0.083135255 0.21154478 -0.075171076
v 0.08702528 0.2033552 -0.075171076
v 0.08922629 0.19537036 -0.075171076
v 0.09132477 0.18579891 -0.075171076
v 0.09173425 0.17627858 -0.075171076
v 0.09127372 0.16747479 -0.075171076
v 0.08937973 0.15698196 -0.075171076
v 0.08584804 0.14771745 -0.075171076
v 0.08165087 0.13794124 -0.075171076
v 0.07740257 0.13062182 -0.075171076
v 0.073307715 0.12376312 -0.075171076
v 0.06849649 0.116904356 -0.075171076
v 0.064504094 0.11132517 -0.075171076
v 0.06086992 0.106616154 -0.075171076
v 0.056877423 0.102214314 -0.075171076
v 0.053294618 0.09939921 -0.075171076
v 0.046435833 0.09167037 -0.075171076
v -0.06089839 0.27107257 -0.075171076
v -0.06750121 0.26984414 -0.075171076
v -0.07420644 0.26800144 -0.075171076
v -0.081269935 0.265647 -0.075171076
v -0.086849034 0.26344597 -0.075171076
v -0.09171155 0.2616033 -0.075171076
v -0.096830025 0.25899294 -0.075171076
v -0.1024603 0.2560243 -0.075171076
v -0.110438466 0.2510129 -0.075171076
v -0.118666686 0.24525976 -0.075171076
v -0.12589158 0.23903833 -0.075171076
v -0.13258122 0.23281701 -0.075171076
v -0.13773231 0.22719756 -0.075171076
v -0.14295025 0.22144452 -0.075171076
v -0.14749919 0.21689549 -0.075171076
v -0.15365379 0.21522306 -0.075171076
v -0.16308622 0.21281481 -0.075171076
v -0.17098014 0.20987132 -0.075171076
v -0.17733525 0.20752998 -0.075171076
v -0.18502845 0.20364998 -0.075171076
v -0.19058095 0.20030509 -0.075171076
v -0.19539747 0.19696024 -0.075171076
v -0.19907677 0.19394979 -0.075171076
v -0.20081608 0.19207668 -0.075171076
v -0.20181954 0.18973537 -0.075171076
v -0.20255542 0.18726014 -0.075171076
v -0.20275615 0.18485187 -0.075171076
v -0.202823 0.1821091 -0.075171076
v -0.2026892 0.17923252 -0.075171076
v -0.20168574 0.17588775 -0.075171076
v -0.20021398 0.17194079 -0.075171076
v -0.19733742 0.16665588 -0.075171076
v -0.19365814 0.16003318 -0.075171076
v -0.19084843 0.15581866 -0.075171076
v -0.18650019 0.14973103 -0.075171076
v -0.18201798 0.14411163 -0.075171076
v -0.17882806 0.14064123 -0.075171076
v -0.17638883 0.13832097 -0.075171076
v -0.17430663 0.13629831 -0.075171076
v -0.17323576 0.12856446 -0.075171076
v -0.17133215 0.11856989 -0.075171076
v -0.16924994 0.10786145 -0.075171076
v -0.16639434 0.09745053 -0.075171076
v -0.16312227 0.08888378 -0.075171076
v -0.15985028 0.08174472 -0.075171076
v -0.15675671 0.07639056 -0.075171076
v -0.15253283 0.0702629 -0.075171076
v -0.14926086 0.06639606 -0.075171076
v -0.1458867 0.06288825 -0.075171076
v -0.14139844 0.059328634 -0.075171076
v -0.1348984 0.05525313 -0.075171076
v -0.12757282 0.051487226 -0.075171076
v -0.118751206 0.048288666 -0.075171076
v -0.11065179 0.045915574 -0.075171076
v -0.10275876 0.044677425 -0.075171076
v -0.09419511 0.0435942 -0.075171076
v -0.08846878 0.04261392 -0.075171076
v -0.08294877 0.041891746 -0.075171076
v -0.07902816 0.041066263 -0.075171076
v -0.07412719 0.039105963 -0.075171076
v -0.068762004 0.036578096 -0.075171076
v -0.06303569 0.033895507 -0.075171076
v -0.056638665 0.03178035 -0.075171076
v -0.048539426 0.02982003 -0.075171076
v 0.052424468 0.084402084 -0.075171076
v 0.055495597 0.0812798 -0.075171076
v 0.057184648 0.079948984 -0.075171076
v 0.058924884 0.07872056 -0.075171076
v 0.06081877 0.07764568 -0.075171076
v 0.06327569 0.07611016 -0.075171076
v 0.06619313 0.074216306 -0.075171076
v 0.06962249 0.07150352 -0.075171076
v 0.07274475 0.068381235 -0.075171076
v 0.0748945 0.06571962 -0.075171076
v 0.07806803 0.060754757 -0.075171076
v 0.081702046 0.05399839 -0.075171076
v 0.08554094 0.04601359 -0.075171076
v 0.089533366 0.039513163 -0.075171076
v -0.049829025 0.02672474 -0.075171076
v -0.050757688 0.023216685 -0.075171076
v -0.051273566 0.019244391 -0.075171076
v -0.051376678 0.012692626 -0.075171076
v -0.05044809 0.0072758943 -0.075171076
v -0.04833303 0.0024781516 -0.075171076
v -0.04575355 -0.0018036239 -0.075171076
v -0.04229713 -0.005105315 -0.075171076
v -0.039253503 -0.0071172863 -0.075171076
v 0.093576886 0.034497004 -0.075171076
v -0.039562996 -0.018466713 -0.075171076
v 0.09792768 0.029941592 -0.075171076
v -0.040233623 -0.024038278 -0.075171076
v 0.10453043 0.024515938 -0.075171076
v 0.11287349 0.018066758 -0.075171076
v 0.11906691 0.013153063 -0.075171076
v 0.12490197 0.0085464185 -0.075171076
v 0.12920152 0.0052705817 -0.075171076
v 0.13549714 0.00071507384 -0.075171076
v 0.1419977 -0.0045568454 -0.075171076
v 0.14807461 -0.010120069 -0.075171076
v 0.15336968 -0.015357639 -0.075171076
v 0.15912537 -0.021401104 -0.075171076
v 0.16263632 -0.026063055 -0.075171076
v 0.1672408 -0.033027496 -0.075171076
v 0.1703488 -0.03895565 -0.075171076
v 0.17362957 -0.046610687 -0.075171076
v 0.17610452 -0.053977806 -0.075171076
v 0.17800383 -0.06128755 -0.075171076
v 0.17921247 -0.06859716 -0.075171076
v 0.1793276 -0.0764248 -0.075171076
v 0.17903987 -0.08430999 -0.075171076
v 0.1778311 -0.09236781 -0.075171076
v 0.17581668 -0.0996775 -0.075171076
v 0.17403235 -0.104569785 -0.075171076
v 0.17161505 -0.110210314 -0.075171076
v 0.16850705 -0.116023414 -0.075171076
v 0.16539906 -0.11999489 -0.075171076
v 0.16096714 -0.12448423 -0.075171076
v 0.15699583 -0.12707421 -0.075171076
v 0.15204589 -0.1296643 -0.075171076
v 0.1464054 -0.13190895 -0.075171076
v 0.14082251 -0.13346294 -0.075171076
v 0.13472156 -0.13455652 -0.075171076
v 0.13103798 -0.13472924 -0.075171076
v 0.1288399 -0.1349803 -0.075171076
v 0.12702619 -0.13606848 -0.075171076
v 0.12129488 -0.13998614 -0.075171076
v 0.11715964 -0.14310566 -0.075171076
v 0.11320988 -0.1466144 -0.075171076
v 0.10874356 -0.1496795 -0.075171076
v 0.10489024 -0.15160614 -0.075171076
v 0.10147486 -0.15370797 -0.075171076
v 0.09481918 -0.15808669 -0.075171076
v 0.08790081 -0.16229017 -0.075171076
v 0.081146516 -0.16587627 -0.075171076
v 0.07297717 -0.1695456 -0.075171076
v 0.06743867 -0.17127639 -0.075171076
v 0.059477013 -0.17314562 -0.075171076
v 0.052069187 -0.17480719 -0.075171076
v 0.04549219 -0.1761226 -0.075171076
v -0.043019406 -0.026875606 -0.075171076
v -0.04632097 -0.030796422 -0.075171076
v -0.050035425 -0.035800382 -0.075171076
v -0.0546784 -0.042868044 -0.075171076
v -0.058805462 -0.050399948 -0.075171076
v -0.061659098 -0.05597747 -0.075171076
v -0.06378975 -0.06178164 -0.075171076
v -0.065387644 -0.06730145 -0.075171076
v 0.04057672 -0.17792264 -0.075171076
v -0.06718915 -0.07060426 -0.075171076
v 0.037045922 -0.17979185 -0.075171076
v -0.069170915 -0.07420733 -0.075171076
v -0.07073224 -0.076609366 -0.075171076
v 0.033030428 -0.18304582 -0.075171076
v 0.027422702 -0.18692277 -0.0751711
v -0.07331443 -0.07985212 -0.075171076
v -0.0770976 -0.08519671 -0.075171076
v 0.022022573 -0.19045357 -0.0751711
v -0.07979997 -0.08879974 -0.075171076
v -0.0838233 -0.09498494 -0.075171076
v 0.015584096 -0.19460751 -0.0751711
v -0.0875465 -0.10207104 -0.075171076
v -0.09144976 -0.110598244 -0.075171076
v -0.09403202 -0.11840483 -0.075171076
v 0.008453182 -0.19910753 -0.0751711
v -0.09583352 -0.1253707 -0.075171076
v -0.09673427 -0.13353764 -0.075171076
v -0.0007545798 -0.20409219 -0.0751711
v -0.09739479 -0.14248519 -0.075171076
v -0.096854374 -0.15203331 -0.075171076
v -0.094932765 -0.16194169 -0.075171076
v -0.0918701 -0.17040889 -0.075171076
v -0.086945996 -0.17989695 -0.075171076
v -0.081901714 -0.18794379 -0.075171076
v -0.010031657 -0.20859233 -0.0751711
v -0.07619684 -0.19539015 -0.075171076
v -0.06959124 -0.20175551 -0.075171076
v -0.06292563 -0.20619933 -0.075171076
v -0.05668027 -0.20914176 -0.075171076
v -0.049294077 -0.21166392 -0.075171076
v -0.04298862 -0.21292503 -0.075171076
v -0.019239513 -0.21219233 -0.0751711
v -0.03620295 -0.21388581 -0.075171076
v -0.027680311 -0.21392094 -0.0751711
v 0.1254158 0.13282126 -0.090087816
v 0.12289804 0.13268392 -0.090087816
v 0.12784204 0.13222611 -0.090087816
v 0.12111276 0.1321346 -0.090087816
v 0.11859496 0.13076119 -0.090087816
v 0.115985505 0.1284724 -0.090087816
v 0.11204871 0.12471849 -0.090087816
v 0.1078371 0.120049156 -0.090087816
v 0.104382895 0.115792386 -0.090087816
v 0.10240283 0.11201811 -0.090087816
v 0.09998982 0.106634974 -0.090087816
v 0.0976386 0.09921007 -0.090087816
v 0.09621557 0.093517594 -0.090087816
v 0.09508375 0.08779948 -0.090087816
v 0.09431692 0.08270221 -0.090087816
v 0.09389536 0.07683626 -0.090087816
v 0.093693145 0.039313484 -0.09008781
v 0.12935275 0.1339199 -0.090087816
v 0.13132118 0.13616304 -0.090087816
v 0.13393055 0.1382688 -0.090087816
v 0.13644838 0.13959636 -0.090087816
v 0.13882875 0.14046611 -0.090087816
v 0.14134665 0.14092392 -0.090087816
v 0.14391014 0.14092392 -0.090087816
v 0.14647366 0.14009993 -0.090087816
v 0.14876246 0.13890964 -0.090087816
v 0.15109728 0.13739903 -0.090087816
v 0.15292838 0.13556787 -0.090087816
v 0.15462212 0.13355367 -0.090087816
v 0.1559497 0.13167678 -0.090087816
v 0.15741462 0.12929629 -0.090087816
v 0.16295367 0.12925054 -0.090087816
v 0.16510536 0.12870121 -0.090087816
v 0.16716538 0.12741941 -0.090087816
v 0.16931678 0.12545098 -0.090087816
v 0.17142259 0.123024836 -0.090087816
v 0.17361997 0.120003484 -0.090087816
v 0.17558841 0.116661645 -0.090087816
v 0.17728214 0.11299934 -0.090087816
v 0.17851816 0.1096576 -0.090087816
v 0.17934217 0.106315844 -0.090087816
v 0.18021202 0.10214998 -0.090087816
v 0.1809903 0.097892694 -0.090087816
v 0.18176849 0.09354377 -0.090087816
v 0.18195152 0.088599764 -0.090087816
v 0.18167688 0.083426885 -0.090087816
v 0.1808072 0.07839127 -0.090087816
v 0.17934217 0.06818275 -0.090087816
v 0.17760256 0.055731203 -0.090087816
v 0.17604624 0.043920543 -0.090087816
v 0.17421514 0.030644942 -0.0900878
v 0.093676336 0.017473279 -0.090087794
v 0.1727044 0.017964412 -0.090087794
v 0.16741703 -0.01388289 -0.09008779
v 0.094956726 -0.03127929 -0.09008777
v 0.16307652 -0.039192636 -0.090087764
v 0.09636191 -0.061453294 -0.09008775
v 0.15999669 -0.05681273 -0.09008776
v 0.15741807 -0.071854346 -0.09008774
v 0.09760854 -0.08237806 -0.090087734
v 0.15426654 -0.0896893 -0.09008772
v 0.09827903 -0.091440484 -0.09008772
v 0.1493427 -0.11478378 -0.090087704
v 0.09882622 -0.09686592 -0.09008771
v 0.09982928 -0.10607558 -0.09008771
v 0.10078672 -0.11282325 -0.090087704
v 0.14747332 -0.1219417 -0.090087704
v 0.10183527 -0.11884152 -0.090087704
v 0.10324865 -0.12408457 -0.090087704
v 0.14464666 -0.12937334 -0.0900877
v 0.104889944 -0.1285527 -0.0900877
v 0.14195667 -0.13502678 -0.0900877
v 0.106485836 -0.13270158 -0.0900877
v 0.10853737 -0.13666815 -0.0900877
v 0.1391754 -0.1402243 -0.0900877
v 0.11040666 -0.139586 -0.0900877
v 0.11236719 -0.14236717 -0.0900877
v 0.13621192 -0.14423648 -0.0900877
v 0.115421765 -0.14533067 -0.0900877
v 0.1179294 -0.14710884 -0.0900877
v 0.13311176 -0.14706318 -0.0900877
v 0.12992017 -0.14870445 -0.0900877
v 0.12627289 -0.14952521 -0.0900877
v 0.12057387 -0.14856768 -0.0900877
v 0.1235372 -0.14957078 -0.0900877
v -0.03998001 -0.20018552 -0.0759889
v -0.040980555 -0.20399511 -0.0759889
v -0.038811874 -0.2040919 -0.0759889
v -0.037497006 -0.20790528 -0.0759889
v -0.28221497 -0.11377776 -0.0759889
v -0.28270453 -0.116592325 -0.0759889
v -0.2804407 -0.1110245 -0.0759889
v -0.2779933 -0.10876057 -0.0759889
v -0.28270453 -0.11965161 -0.0759889
v -0.2819091 -0.123383895 -0.0759889
v -0.2808078 -0.12570891 -0.0759889
v -0.2755459 -0.10686385 -0.0759889
v -0.28001234 -0.1270549 -0.0759889
v -0.27175233 -0.104844786 -0.0759889
v -0.26783654 -0.103559904 -0.0759889
v -0.2646549 -0.102825634 -0.0759889
v -0.26300284 -0.10245849 -0.0759889
v -0.28019592 -0.13011423 -0.0759889
v -0.28019592 -0.13341817 -0.0759889
v -0.27952293 -0.13739519 -0.0759889
v -0.27854398 -0.1403933 -0.0759889
v -0.27658603 -0.14345251 -0.0759889
v -0.27419972 -0.14651184 -0.0759889
v -0.27101815 -0.14908159 -0.0759889
v -0.26691875 -0.1517737 -0.0759889
v -0.2622687 -0.1542211 -0.0759889
v -0.25761858 -0.15630142 -0.0759889
v -0.25156125 -0.15850405 -0.0759889
v -0.2608614 -0.10074531 -0.0759889
v -0.25859758 -0.09952162 -0.0759889
v -0.25474292 -0.09799194 -0.0759889
v -0.2505823 -0.09695181 -0.0759889
v -0.24599338 -0.0960953 -0.0759889
v -0.24611576 -0.16015613 -0.0759889
v -0.24183284 -0.09554454 -0.0759889
v -0.24054794 -0.16119623 -0.0759889
v -0.23571424 -0.09529977 -0.0759889
v -0.22861683 -0.09572812 -0.0759889
v -0.22041808 -0.09738019 -0.0759889
v -0.234307 -0.16272588 -0.0759889
v -0.20928228 -0.09994996 -0.0759889
v -0.22916757 -0.16382723 -0.0759889
v -0.2241504 -0.16505091 -0.0759889
v -0.19973744 -0.10233611 -0.0759889
v -0.21968387 -0.16682526 -0.0759889
v -0.18982545 -0.10570133 -0.0759889
v -0.21283107 -0.1703128 -0.0759889
v -0.1804641 -0.10931122 -0.0759889
v -0.19265549 -0.18019818 -0.0759889
v -0.17018504 -0.11414488 -0.0759889
v -0.15764205 -0.12038574 -0.0759889
v -0.17494152 -0.18926124 -0.0759889
v -0.1484031 -0.12528054 -0.0759889
v -0.14142798 -0.12968586 -0.0759889
v -0.15551102 -0.19873616 -0.0759889
v -0.13316803 -0.13494778 -0.0759889
v -0.1264195 -0.13946341 -0.0759889
v -0.12085161 -0.14350772 -0.0759889
v -0.13621779 -0.2083485 -0.0759889
v -0.115406156 -0.1473624 -0.0759889
v -0.108253576 -0.15206751 -0.0759889
v -0.10168584 -0.1564083 -0.0759889
v -0.11706179 -0.21796067 -0.0759889
v -0.0919276 -0.16301592 -0.0759889
v -0.08454392 -0.16832262 -0.0759889
v -0.0926879 -0.23004468 -0.0759889
v -0.078632526 -0.17266612 -0.0759889
v -0.07294629 -0.17664151 -0.0759889
v -0.069411054 -0.17941539 -0.0759889
v -0.06600829 -0.18273604 -0.0759889
v -0.062190145 -0.18657869 -0.0759889
v -0.06663289 -0.24042256 -0.0759889
v -0.05982652 -0.19008091 -0.0759889
v -0.057959378 -0.19274503 -0.0759889
v -0.054666966 -0.1957892 -0.0759889
v -0.05144955 -0.19837867 -0.0759889
v -0.04800999 -0.20069578 -0.0759889
v -0.044742204 -0.20251945 -0.0759889
v -0.060166933 -0.24249505 -0.0759889
v -0.043044772 -0.2036591 -0.0759889
v -0.03582559 -0.21303152 -0.0759889
v -0.054944377 -0.2436556 -0.0759889
v -0.034377735 -0.21728535 -0.0759889
v -0.04632302 -0.24357271 -0.0759889
v -0.0328827 -0.22164571 -0.0759889
v -0.042592473 -0.24282658 -0.0759889
v -0.03194833 -0.22494717 -0.0759889
v -0.031823777 -0.22893386 -0.0759889
v -0.039525427 -0.24158315 -0.0759889
v -0.036116853 -0.23928145 -0.0759889
v -0.034377735 -0.23721842 -0.0759889
v -0.033256423 -0.23510058 -0.0759889
v -0.032010633 -0.23223515 -0.0759889
vt 0.60302734 0.5541992
vt 0.6044922 0.55810547
vt 0.6035156 0.5498047
vt 0.6069336 0.5620117
vt 0.6040039 0.5463867
vt 0.6098633 0.5649414
vt 0.61328125 0.56689453
vt 0.6166992 0.5673828
vt 0.62109375 0.5678711
vt 0.60595703 0.5419922
vt 0.6088867 0.5385742
vt 0.6254883 0.5673828
vt 0.61328125 0.5341797
vt 0.62939453 0.56689453
vt 0.61816406 0.5307617
vt 0.6333008 0.56591797
vt 0.63720703 0.5644531
vt 0.62353516 0.52783203
vt 0.640625 0.5625
vt 0.6479492 0.55908203
vt 0.63183594 0.5239258
vt 0.64501953 0.5185547
vt 0.65625 0.55566406
vt 0.6640625 0.5522461
vt 0.65722656 0.51464844
vt 0.67285156 0.5493164
vt 0.6738281 0.5102539
vt 0.68603516 0.5449219
vt 0.69091797 0.50634766
vt 0.69921875 0.5415039
vt 0.7089844 0.5024414
vt 0.7163086 0.5371094
vt 0.7236328 0.49975586
vt 0.72998047 0.53466797
vt 0.73828125 0.49804688
vt 0.7451172 0.53222656
vt 0.7573242 0.4963379
vt 0.7602539 0.53027344
vt 0.77685547 0.49536133
vt 0.76904297 0.52978516
vt 0.7841797 0.52978516
vt 0.79248047 0.49609375
vt 0.79589844 0.52978516
vt 0.81347656 0.49804688
vt 0.80615234 0.53027344
vt 0.81884766 0.53271484
vt 0.8300781 0.50097656
vt 0.82958984 0.53564453
vt 0.84277344 0.50439453
vt 0.8442383 0.54003906
vt 0.8569336 0.50927734
vt 0.8701172 0.51464844
vt 0.85595703 0.54541016
vt 0.8823242 0.5214844
vt 0.86816406 0.5527344
vt 0.890625 0.5263672
vt 0.87939453 0.5620117
vt 0.89941406 0.53271484
vt 0.9067383 0.5390625
vt 0.890625 0.5722656
vt 0.9135742 0.54589844
vt 0.92285156 0.5551758
vt 0.8984375 0.5800781
vt 0.92822266 0.56152344
vt 0.90722656 0.59033203
vt 0.93408203 0.5683594
vt 0.93847656 0.57421875
vt 0.9145508 0.60058594
vt 0.94384766 0.5830078
vt 0.95166016 0.59765625
vt 0.92089844 0.61083984
vt 0.9277344 0.6245117
vt 0.9584961 0.6123047
vt 0.9638672 0.62646484
vt 0.9321289 0.63720703
vt 0.9682617 0.6430664
vt 0.9345703 0.64990234
vt 0.9711914 0.66503906
vt 0.9375 0.6669922
vt 0.97265625 0.68359375
vt 0.9379883 0.68896484
vt 0.9716797 0.69921875
vt 0.9370117 0.70458984
vt 0.97021484 0.71533203
vt 0.9350586 0.71875
vt 0.96777344 0.7290039
vt 0.93115234 0.73535156
vt 0.9658203 0.7402344
vt 0.96191406 0.75390625
vt 0.9272461 0.7504883
vt 0.9584961 0.7661133
vt 0.921875 0.7661133
vt 0.95458984 0.77685547
vt 0.9501953 0.78808594
vt 0.91552734 0.7832031
vt 0.9453125 0.7993164
vt 0.90771484 0.79833984
vt 0.9394531 0.81103516
vt 0.9350586 0.8203125
vt 0.89990234 0.81152344
vt 0.9296875 0.8286133
vt 0.92285156 0.8383789
vt 0.8911133 0.8232422
vt 0.9160156 0.84814453
vt 0.8803711 0.8354492
vt 0.9086914 0.8569336
vt 0.9038086 0.86328125
vt 0.8676758 0.8496094
vt 0.89746094 0.8701172
vt 0.88964844 0.8769531
vt 0.8588867 0.8569336
vt 0.8828125 0.8833008
vt 0.87402344 0.8901367
vt 0.84472656 0.8676758
vt 0.86621094 0.8964844
vt 0.8330078 0.87597656
vt 0.8588867 0.90185547
vt 0.8535156 0.9057617
vt 0.84375 0.9121094
vt 0.81689453 0.8852539
vt 0.8339844 0.9169922
vt 0.80078125 0.89453125
vt 0.8222656 0.92333984
vt 0.80810547 0.9301758
vt 0.7866211 0.90185547
vt 0.796875 0.9350586
vt 0.76416016 0.9111328
vt 0.7866211 0.9394531
vt 0.7734375 0.94433594
vt 0.73583984 0.92041016
vt 0.7607422 0.94921875
vt 0.74658203 0.95410156
vt 0.72802734 0.9589844
vt 0.70410156 0.9277344
vt 0.70947266 0.9633789
vt 0.6791992 0.9321289
vt 0.68310547 0.96777344
vt 0.66259766 0.93359375
vt 0.6621094 0.9711914
vt 0.6455078 0.9345703
vt 0.64697266 0.97314453
vt 0.6118164 0.9350586
vt 0.62939453 0.9746094
vt 0.61376953 0.9760742
vt 0.59228516 0.9760742
vt 0.60058594 0.93359375
vt 0.59277344 0.9321289
vt 0.57910156 0.97558594
vt 0.5834961 0.9301758
vt 0.5605469 0.9741211
vt 0.5756836 0.9277344
vt 0.5703125 0.92529297
vt 0.54541016 0.9716797
vt 0.56396484 0.921875
vt 0.5317383 0.9692383
vt 0.55908203 0.9189453
vt 0.55371094 0.91503906
vt 0.5209961 0.9667969
vt 0.5473633 0.9091797
vt 0.50927734 0.96435547
vt 0.5419922 0.9042969
vt 0.49902344 0.9609375
vt 0.53515625 0.89746094
vt 0.48950195 0.95751953
vt 0.4802246 0.9536133
vt 0.5288086 0.88964844
vt 0.4724121 0.9501953
vt 0.5209961 0.8803711
vt 0.46118164 0.94433594
vt 0.5161133 0.87353516
vt 0.45166016 0.93896484
vt 0.51171875 0.8676758
vt 0.44018555 0.9321289
vt 0.5083008 0.8623047
vt 0.42993164 0.92529297
vt 0.5019531 0.8520508
vt 0.4946289 0.84228516
vt 0.42236328 0.92041016
vt 0.41674805 0.9160156
vt 0.4116211 0.9116211
vt 0.48828125 0.8334961
vt 0.4050293 0.90478516
vt 0.47924805 0.82373047
vt 0.39794922 0.8979492
vt 0.38916016 0.88720703
vt 0.47021484 0.81347656
vt 0.3798828 0.87402344
vt 0.46142578 0.8051758
vt 0.45336914 0.7988281
vt 0.37329102 0.86279297
vt 0.44555664 0.79296875
vt 0.36669922 0.85058594
vt 0.43725586 0.78759766
vt 0.42382812 0.7792969
vt 0.3623047 0.8413086
vt 0.35888672 0.83203125
vt 0.4140625 0.77441406
vt 0.35498047 0.8222656
vt 0.40722656 0.7714844
vt 0.3996582 0.76904297
vt 0.35229492 0.81347656
vt 0.39379883 0.76708984
vt 0.35083008 0.8076172
vt 0.35009766 0.80371094
vt 0.35009766 0.79785156
vt 0.3881836 0.765625
vt 0.35009766 0.79003906
vt 0.35180664 0.7836914
vt 0.3828125 0.76464844
vt 0.37719727 0.76416016
vt 0.35375977 0.77783203
vt 0.37231445 0.76464844
vt 0.36791992 0.765625
vt 0.35620117 0.7734375
vt 0.35839844 0.7709961
vt 0.36132812 0.7685547
vt 0.36450195 0.76708984
vt 0.2709961 0.7519531
vt 0.2722168 0.75146484
vt 0.26904297 0.7524414
vt 0.31420898 0.68310547
vt 0.3125 0.6826172
vt 0.3161621 0.6845703
vt 0.32055664 0.8823242
vt 0.31640625 0.88183594
vt 0.32348633 0.8833008
vt 0.32861328 0.8881836
vt 0.32617188 0.8852539
vt 0.32958984 0.8901367
vt 0.31396484 0.92089844
vt 0.31713867 0.91796875
vt 0.31030273 0.9238281
vt 0.3022461 0.92871094
vt 0.29125977 0.9345703
vt 0.27612305 0.94140625
vt 0.26513672 0.9453125
vt 0.25390625 0.94873047
vt 0.24536133 0.9506836
vt 0.2368164 0.95214844
vt 0.22705078 0.953125
vt 0.21728516 0.9536133
vt 0.20690918 0.9536133
vt 0.1965332 0.953125
vt 0.18078613 0.95166016
vt 0.16821289 0.94921875
vt 0.15893555 0.94677734
vt 0.14611816 0.9423828
vt 0.13635254 0.93847656
vt 0.12792969 0.93359375
vt 0.1184082 0.92822266
vt 0.11151123 0.92285156
vt 0.10284424 0.9165039
vt 0.09277344 0.90771484
vt 0.084228516 0.89990234
vt 0.07543945 0.8911133
vt 0.068481445 0.88378906
vt 0.062927246 0.875
vt 0.057128906 0.8652344
vt 0.053009033 0.8564453
vt 0.04940796 0.84716797
vt 0.045959473 0.83691406
vt 0.042877197 0.82421875
vt 0.041412354 0.8144531
vt 0.04147339 0.80371094
vt 0.039245605 0.7949219
vt 0.03881836 0.77001953
vt 0.03994751 0.76123047
vt 0.041259766 0.7519531
vt 0.04260254 0.7451172
vt 0.044433594 0.7363281
vt 0.046569824 0.7290039
vt 0.049041748 0.7211914
vt 0.051971436 0.7128906
vt 0.054840088 0.7055664
vt 0.058044434 0.69970703
vt 0.06088257 0.6948242
vt 0.063964844 0.6894531
vt 0.068237305 0.6826172
vt 0.07354736 0.67578125
vt 0.07879639 0.6694336
vt 0.0848999 0.6621094
vt 0.0892334 0.6582031
vt 0.09350586 0.6542969
vt 0.09851074 0.6508789
vt 0.10571289 0.6459961
vt 0.111816406 0.64208984
vt 0.1182251 0.6386719
vt 0.12646484 0.6352539
vt 0.13366699 0.6328125
vt 0.14135742 0.6308594
vt 0.15075684 0.62890625
vt 0.15539551 0.62841797
vt 0.16760254 0.62841797
vt 0.17419434 0.62841797
vt 0.18261719 0.62939453
vt 0.19104004 0.6308594
vt 0.19799805 0.6328125
vt 0.20751953 0.6352539
vt 0.21496582 0.6386719
vt 0.22375488 0.6425781
vt 0.23217773 0.64746094
vt 0.24023438 0.65283203
vt 0.26123047 0.66552734
vt 0.2541504 0.6616211
vt 0.27026367 0.67089844
vt 0.3088379 0.6826172
vt 0.30444336 0.6821289
vt 0.3190918 0.6870117
vt 0.32202148 0.6904297
vt 0.32348633 0.6923828
vt 0.32495117 0.6953125
vt 0.32543945 0.6977539
vt 0.32617188 0.7026367
vt 0.32617188 0.70654297
vt 0.32617188 0.7109375
vt 0.3244629 0.7167969
vt 0.3232422 0.7207031
vt 0.32128906 0.72558594
vt 0.31982422 0.7290039
vt 0.31713867 0.7324219
vt 0.31445312 0.73535156
vt 0.3095703 0.7392578
vt 0.30493164 0.74316406
vt 0.3005371 0.7451172
vt 0.29516602 0.7475586
vt 0.2890625 0.7495117
vt 0.2836914 0.7504883
vt 0.27856445 0.75097656
vt 0.27392578 0.75146484
vt 0.26464844 0.75146484
vt 0.2602539 0.7504883
vt 0.25683594 0.74853516
vt 0.25317383 0.74658203
vt 0.25048828 0.7441406
vt 0.24768066 0.7416992
vt 0.24597168 0.73876953
vt 0.24438477 0.73583984
vt 0.2434082 0.7324219
vt 0.24243164 0.7290039
vt 0.2421875 0.7260742
vt 0.24194336 0.72265625
vt 0.29125977 0.88916016
vt 0.2866211 0.89208984
vt 0.29614258 0.88623047
vt 0.30126953 0.88427734
vt 0.3059082 0.8828125
vt 0.31054688 0.8823242
vt 0.33032227 0.8925781
vt 0.3305664 0.89501953
vt 0.33032227 0.8984375
vt 0.32958984 0.90185547
vt 0.32836914 0.90478516
vt 0.32666016 0.90771484
vt 0.3239746 0.9111328
vt 0.32055664 0.91503906
vt 0.2800293 0.8964844
vt 0.2734375 0.9003906
vt 0.26611328 0.9042969
vt 0.2607422 0.9067383
vt 0.25219727 0.90966797
vt 0.24023438 0.9121094
vt 0.22790527 0.9140625
vt 0.22009277 0.91503906
vt 0.21105957 0.91552734
vt 0.19482422 0.91503906
vt 0.18310547 0.9140625
vt 0.17199707 0.9121094
vt 0.16064453 0.9082031
vt 0.14941406 0.9033203
vt 0.14013672 0.8989258
vt 0.13134766 0.8935547
vt 0.12536621 0.88964844
vt 0.119506836 0.8847656
vt 0.113098145 0.87890625
vt 0.109069824 0.875
vt 0.105529785 0.87158203
vt 0.10095215 0.86621094
vt 0.095947266 0.859375
vt 0.092041016 0.8535156
vt 0.08734131 0.8457031
vt 0.08355713 0.83935547
vt 0.080444336 0.83251953
vt 0.07757568 0.82470703
vt 0.07543945 0.81689453
vt 0.07385254 0.8105469
vt 0.07318115 0.8046875
vt 0.07299805 0.7988281
vt 0.072753906 0.7910156
vt 0.072753906 0.7788086
vt 0.07336426 0.7709961
vt 0.07458496 0.75878906
vt 0.07635498 0.7480469
vt 0.078063965 0.74072266
vt 0.08276367 0.7285156
vt 0.08807373 0.71728516
vt 0.09362793 0.70703125
vt 0.09954834 0.6977539
vt 0.10510254 0.69091797
vt 0.11480713 0.6826172
vt 0.12548828 0.67529297
vt 0.13464355 0.67041016
vt 0.14196777 0.66796875
vt 0.14709473 0.6660156
vt 0.15258789 0.66503906
vt 0.16015625 0.6645508
vt 0.16687012 0.6645508
vt 0.17224121 0.66503906
vt 0.17736816 0.6660156
vt 0.18273926 0.66796875
vt 0.19055176 0.6713867
vt 0.19763184 0.6748047
vt 0.20422363 0.67871094
vt 0.2097168 0.6826172
vt 0.21655273 0.6875
vt 0.24719238 0.65722656
vt 0.2220459 0.69189453
vt 0.22631836 0.6953125
vt 0.22937012 0.69873047
vt 0.23217773 0.70166016
vt 0.23449707 0.70458984
vt 0.23657227 0.70751953
vt 0.2770996 0.6743164
vt 0.23852539 0.7104492
vt 0.2401123 0.7133789
vt 0.2849121 0.6777344
vt 0.24108887 0.7163086
vt 0.2902832 0.6796875
vt 0.24169922 0.71875
vt 0.2932129 0.68066406
vt 0.29614258 0.6816406
vt 0.2998047 0.6821289
vt 0.29541016 0.64208984
vt 0.2993164 0.6425781
vt 0.2927246 0.640625
vt 0.2902832 0.6381836
vt 0.3034668 0.6425781
vt 0.30859375 0.64160156
vt 0.2861328 0.6328125
vt 0.3137207 0.63964844
vt 0.28198242 0.6245117
vt 0.32055664 0.63671875
vt 0.2788086 0.61572266
vt 0.328125 0.6328125
vt 0.27514648 0.6035156
vt 0.33813477 0.6269531
vt 0.3474121 0.6201172
vt 0.27172852 0.5908203
vt 0.2692871 0.5776367
vt 0.35498047 0.6147461
vt 0.36035156 0.61083984
vt 0.26757812 0.5678711
vt 0.36669922 0.60595703
vt 0.3708496 0.6035156
vt 0.37329102 0.6020508
vt 0.37597656 0.6015625
vt 0.38110352 0.6010742
vt 0.39379883 0.5996094
vt 0.26342773 0.56396484
vt 0.25610352 0.5571289
vt 0.25 0.55078125
vt 0.2442627 0.5449219
vt 0.23913574 0.53759766
vt 0.23339844 0.5283203
vt 0.22875977 0.5185547
vt 0.22619629 0.50927734
vt 0.22375488 0.49780273
vt 0.2232666 0.48657227
vt 0.22375488 0.47631836
vt 0.22595215 0.4638672
vt 0.23022461 0.45288086
vt 0.23510742 0.44140625
vt 0.2401123 0.4326172
vt 0.24499512 0.42456055
vt 0.25073242 0.4165039
vt 0.2553711 0.4099121
vt 0.25976562 0.40429688
vt 0.2644043 0.39892578
vt 0.2685547 0.39575195
vt 0.27685547 0.3864746
vt 0.40356445 0.5986328
vt 0.41137695 0.59716797
vt 0.4194336 0.59521484
vt 0.42773438 0.59228516
vt 0.43432617 0.58984375
vt 0.44018555 0.58740234
vt 0.44604492 0.58447266
vt 0.45288086 0.5810547
vt 0.4621582 0.5751953
vt 0.47192383 0.5683594
vt 0.48046875 0.56103516
vt 0.4885254 0.55322266
vt 0.49438477 0.546875
vt 0.5004883 0.54003906
vt 0.5058594 0.53466797
vt 0.5131836 0.53271484
vt 0.52441406 0.52978516
vt 0.5336914 0.5263672
vt 0.5415039 0.5234375
vt 0.55029297 0.51904297
vt 0.5571289 0.5151367
vt 0.5625 0.51123047
vt 0.56689453 0.5073242
vt 0.56884766 0.5053711
vt 0.5703125 0.5024414
vt 0.57128906 0.49951172
vt 0.57128906 0.49682617
vt 0.57128906 0.4934082
vt 0.57128906 0.48999023
vt 0.5703125 0.48608398
vt 0.5683594 0.4814453
vt 0.5649414 0.4753418
vt 0.5605469 0.46728516
vt 0.5571289 0.46240234
vt 0.5522461 0.45532227
vt 0.546875 0.44848633
vt 0.54296875 0.44458008
vt 0.54003906 0.4416504
vt 0.53759766 0.43945312
vt 0.5366211 0.43017578
vt 0.5341797 0.41845703
vt 0.5317383 0.40576172
vt 0.5283203 0.39331055
vt 0.52441406 0.38330078
vt 0.5205078 0.37475586
vt 0.51708984 0.3684082
vt 0.51220703 0.36132812
vt 0.5083008 0.35668945
vt 0.50390625 0.35253906
vt 0.4987793 0.34838867
vt 0.49121094 0.34350586
vt 0.48242188 0.33911133
vt 0.47216797 0.33520508
vt 0.46240234 0.33251953
vt 0.453125 0.3310547
vt 0.44311523 0.32983398
vt 0.4362793 0.32861328
vt 0.4296875 0.32763672
vt 0.42504883 0.32666016
vt 0.41918945 0.3244629
vt 0.4128418 0.3215332
vt 0.40625 0.31835938
vt 0.39868164 0.31567383
vt 0.38916016 0.31347656
vt 0.2697754 0.3779297
vt 0.26611328 0.37426758
vt 0.26416016 0.37280273
vt 0.2619629 0.3713379
vt 0.25976562 0.3701172
vt 0.25683594 0.36816406
vt 0.25341797 0.3659668
vt 0.24938965 0.36279297
vt 0.24572754 0.35913086
vt 0.24316406 0.35595703
vt 0.23937988 0.35009766
vt 0.23510742 0.34204102
vt 0.23059082 0.33251953
vt 0.22583008 0.32495117
vt 0.390625 0.30981445
vt 0.39160156 0.30566406
vt 0.39233398 0.3010254
vt 0.39233398 0.2932129
vt 0.39135742 0.28686523
vt 0.38891602 0.28125
vt 0.3857422 0.27612305
vt 0.3815918 0.2722168
vt 0.37817383 0.2697754
vt 0.22106934 0.3190918
vt 0.37841797 0.25634766
vt 0.21594238 0.3137207
vt 0.3791504 0.24975586
vt 0.20812988 0.3071289
vt 0.19824219 0.29956055
vt 0.19091797 0.29370117
vt 0.18395996 0.28833008
vt 0.17895508 0.28442383
vt 0.17150879 0.27905273
vt 0.16381836 0.27270508
vt 0.15661621 0.26635742
vt 0.15039062 0.26000977
vt 0.14355469 0.2529297
vt 0.1394043 0.24743652
vt 0.13391113 0.23913574
vt 0.13024902 0.23217773
vt 0.12646484 0.22314453
vt 0.12347412 0.21435547
vt 0.12121582 0.20581055
vt 0.11981201 0.19714355
vt 0.11968994 0.18786621
vt 0.11999512 0.17858887
vt 0.12145996 0.16906738
vt 0.12384033 0.16040039
vt 0.12597656 0.15454102
vt 0.12878418 0.14794922
vt 0.13244629 0.14099121
vt 0.1361084 0.13635254
vt 0.14135742 0.13098145
vt 0.14611816 0.12792969
vt 0.15197754 0.124938965
vt 0.15856934 0.12225342
vt 0.16516113 0.12042236
vt 0.17236328 0.119140625
vt 0.17675781 0.11895752
vt 0.17932129 0.118652344
vt 0.18151855 0.117370605
vt 0.18823242 0.11273193
vt 0.19311523 0.10900879
vt 0.19787598 0.1048584
vt 0.203125 0.101257324
vt 0.2076416 0.09899902
vt 0.21166992 0.09649658
vt 0.21960449 0.091308594
vt 0.2277832 0.086364746
vt 0.23571777 0.082092285
vt 0.24536133 0.07775879
vt 0.25195312 0.07574463
vt 0.2614746 0.07348633
vt 0.27001953 0.0715332
vt 0.27783203 0.070007324
vt 0.38256836 0.24645996
vt 0.3864746 0.24182129
vt 0.39086914 0.23583984
vt 0.39624023 0.22753906
vt 0.40112305 0.21862793
vt 0.40454102 0.21203613
vt 0.40698242 0.2052002
vt 0.40893555 0.1986084
vt 0.2836914 0.067871094
vt 0.4111328 0.19470215
vt 0.2878418 0.06567383
vt 0.41333008 0.19042969
vt 0.4152832 0.18762207
vt 0.2927246 0.061798096
vt 0.2993164 0.05722046
vt 0.41845703 0.18383789
vt 0.42285156 0.17749023
vt 0.30566406 0.05303955
vt 0.4260254 0.17321777
vt 0.43066406 0.16589355
vt 0.31323242 0.04812622
vt 0.4350586 0.15759277
vt 0.43969727 0.14746094
vt 0.4428711 0.1381836
vt 0.32177734 0.042816162
vt 0.44506836 0.13000488
vt 0.44604492 0.12036133
vt 0.33251953 0.03692627
vt 0.44677734 0.10974121
vt 0.44628906 0.09844971
vt 0.44384766 0.08673096
vt 0.44018555 0.07672119
vt 0.4345703 0.06555176
vt 0.4284668 0.056030273
vt 0.34350586 0.03161621
vt 0.42163086 0.047210693
vt 0.4140625 0.03970337
vt 0.40600586 0.034423828
vt 0.39868164 0.030960083
vt 0.38989258 0.02796936
vt 0.38256836 0.026489258
vt 0.3544922 0.02734375
vt 0.37451172 0.025344849
vt 0.36450195 0.025314331
vt 0.6513672 0.46655273
vt 0.6542969 0.46606445
vt 0.6484375 0.4663086
vt 0.65625 0.46557617
vt 0.6591797 0.46411133
vt 0.6621094 0.46166992
vt 0.6669922 0.45776367
vt 0.671875 0.45239258
vt 0.67578125 0.44750977
vt 0.67822266 0.44335938
vt 0.68115234 0.43701172
vt 0.68408203 0.42822266
vt 0.68603516 0.42163086
vt 0.6875 0.41479492
vt 0.68847656 0.4086914
vt 0.68896484 0.40185547
vt 0.6894531 0.35717773
vt 0.6464844 0.46899414
vt 0.64404297 0.4716797
vt 0.6411133 0.47436523
vt 0.6381836 0.47607422
vt 0.6357422 0.47729492
vt 0.6328125 0.4777832
vt 0.62939453 0.4777832
vt 0.62646484 0.47705078
vt 0.62402344 0.47558594
vt 0.62109375 0.47387695
vt 0.6191406 0.4716797
vt 0.6171875 0.46923828
vt 0.6152344 0.46704102
vt 0.61376953 0.46411133
vt 0.6069336 0.46411133
vt 0.6044922 0.4633789
vt 0.6020508 0.46191406
vt 0.5996094 0.45947266
vt 0.59716797 0.4567871
vt 0.5942383 0.453125
vt 0.59228516 0.44921875
vt 0.59033203 0.44482422
vt 0.5888672 0.44091797
vt 0.58740234 0.43676758
vt 0.5864258 0.43188477
vt 0.5854492 0.4267578
vt 0.58496094 0.42163086
vt 0.58447266 0.41577148
vt 0.58496094 0.40966797
vt 0.5859375 0.4038086
vt 0.58740234 0.39160156
vt 0.58984375 0.37695312
vt 0.5917969 0.36279297
vt 0.59375 0.34716797
vt 0.6894531 0.33129883
vt 0.5957031 0.33203125
vt 0.6020508 0.29418945
vt 0.6879883 0.27319336
vt 0.6069336 0.26391602
vt 0.68603516 0.23706055
vt 0.61083984 0.24304199
vt 0.61376953 0.22521973
vt 0.6845703 0.21203613
vt 0.6176758 0.20397949
vt 0.68408203 0.20129395
vt 0.6230469 0.17419434
vt 0.68310547 0.19494629
vt 0.6821289 0.18432617
vt 0.68066406 0.1763916
vt 0.6254883 0.16577148
vt 0.6796875 0.16931152
vt 0.6777344 0.16320801
vt 0.62890625 0.15698242
vt 0.67578125 0.15783691
vt 0.63183594 0.15026855
vt 0.6738281 0.1529541
vt 0.6713867 0.14831543
vt 0.6352539 0.14416504
vt 0.6694336 0.14489746
vt 0.6669922 0.14160156
vt 0.6386719 0.13952637
vt 0.6635742 0.13830566
vt 0.66015625 0.13635254
vt 0.6425781 0.13659668
vt 0.6464844 0.13500977
vt 0.6503906 0.13427734
vt 0.65722656 0.1352539
vt 0.6538086 0.13452148
vt 0.6791992 0.10058594
vt 0.6801758 0.09637451
vt 0.67822266 0.09613037
vt 0.67626953 0.091796875
vt 0.9658203 0.20336914
vt 0.9667969 0.20019531
vt 0.96435547 0.20666504
vt 0.9614258 0.20947266
vt 0.9667969 0.1965332
vt 0.9658203 0.19213867
vt 0.96484375 0.18933105
vt 0.9584961 0.21166992
vt 0.9638672 0.18774414
vt 0.95410156 0.21411133
vt 0.94921875 0.21557617
vt 0.9458008 0.21643066
vt 0.9433594 0.21691895
vt 0.9638672 0.18408203
vt 0.9638672 0.18017578
vt 0.9633789 0.17553711
vt 0.96191406 0.171875
vt 0.95947266 0.16833496
vt 0.95703125 0.16467285
vt 0.953125 0.1616211
vt 0.9482422 0.15844727
vt 0.9428711 0.15551758
vt 0.9370117 0.15307617
vt 0.9301758 0.1505127
vt 0.94091797 0.21899414
vt 0.93847656 0.22033691
vt 0.93359375 0.22216797
vt 0.92871094 0.22338867
vt 0.92333984 0.2244873
vt 0.92333984 0.1484375
vt 0.91845703 0.22509766
vt 0.9169922 0.1472168
vt 0.9111328 0.2253418
vt 0.90283203 0.22485352
vt 0.8930664 0.22290039
vt 0.90966797 0.14550781
vt 0.8798828 0.21984863
vt 0.9033203 0.14416504
vt 0.89746094 0.1427002
vt 0.86865234 0.21704102
vt 0.89208984 0.140625
vt 0.8569336 0.2130127
vt 0.88427734 0.13647461
vt 0.8457031 0.20874023
vt 0.86035156 0.12475586
vt 0.8334961 0.20300293
vt 0.81884766 0.19567871
vt 0.83935547 0.11395264
vt 0.8076172 0.18981934
vt 0.7993164 0.18457031
vt 0.81591797 0.10272217
vt 0.7895508 0.17834473
vt 0.7817383 0.17297363
vt 0.77490234 0.16821289
vt 0.79345703 0.091308594
vt 0.7685547 0.16369629
vt 0.7602539 0.15808105
vt 0.7529297 0.1529541
vt 0.7705078 0.079956055
vt 0.74121094 0.1451416
vt 0.7324219 0.13891602
vt 0.7416992 0.06561279
vt 0.72558594 0.13366699
vt 0.71875 0.12902832
vt 0.71435547 0.12573242
vt 0.7104492 0.12176514
vt 0.7055664 0.1171875
vt 0.7109375 0.05331421
vt 0.7026367 0.11303711
vt 0.7006836 0.10986328
vt 0.69677734 0.10620117
vt 0.6928711 0.103149414
vt 0.68847656 0.10040283
vt 0.6845703 0.0982666
vt 0.703125 0.050842285
vt 0.6826172 0.09686279
vt 0.6743164 0.08581543
vt 0.69677734 0.049468994
vt 0.6723633 0.08074951
vt 0.68652344 0.049591064
vt 0.67089844 0.07556152
vt 0.6821289 0.050476074
vt 0.6694336 0.07165527
vt 0.6694336 0.06695557
vt 0.67871094 0.051940918
vt 0.6743164 0.054656982
vt 0.6723633 0.05709839
vt 0.6713867 0.059631348
vt 0.6699219 0.06304932
vn -0 0 -1
vn -0 0 -1
vn -0 0 -1
vn -0 0 -1
vn -0 0 -1
vn -0 0 -1
vn -0 0 -1
vn -0 0 -1
vn -0 0 -1
vn -0 0 -1
vn -0 0 -1
vn -0 0 -1
vn -0 0 -1
vn -0 0 -1
vn -0 0 -1
vn -0 0 -1
vn -0 0 -1
vn -0 0 -1
vn -0 0 -1
vn -0 0 -1
vn -0 0 -1
vn -0 0 -1
vn -0 0 -1
vn -0 0 -1
vn -0 0 -1
vn -0 0 -1
vn -0 0 -1
vn -0 0 -1
vn -0 0 -1
vn -0 0 -1
vn -0 0 -1
vn -0 0 -1
vn -0 0 -1
vn -0 0 -1
vn -0 0 -1
vn -0 0 -1
vn -0 0 -1
vn -0 0 -1
vn -0 0 -1
vn -0 0 -1
vn -0 0 -1
vn -0 0 -1
vn -0 0 -1
vn -0 0 -1
vn -0 0 -1
vn -0 0 -1
vn -0 0 -1
vn -0 0 -1
vn -0 0 -1
vn -0 0 -1
vn -0 0 -1
vn -0 0 -1
vn -0 0 -1
vn -0 0 -1
vn -0 0 -1
vn -0 0 -1
vn -0 0 -1
vn -0 0 -1
vn -0 0 -1
vn -0 0 -1
vn -0 0 -1
vn -0 0 -1
vn -0 0 -1
vn -0 0 -1
vn -0 0 -1
vn -0 0 -1
vn -0 0 -1
vn -0 0 -1
vn -0 0 -1
vn -0 0 -1
vn -0 0 -1
vn -0 0 -1
vn -0 0 -1
vn -0 0 -1
vn -0 0 -1
vn -0 0 -1
vn -0 0 -1
vn -0 0 -1
vn -0 0 -1
vn -0 0 -1
vn -0 0 -1
vn -0 0 -1
vn -0 0 -1
vn -0 0 -1
vn -0 0 -1
vn -0 0 -1
vn -0 0 -1
vn -0 0 -1
vn -0 0 -1
vn -0 0 -1
vn -0 0 -1
vn -0 0 -1
vn -0 0 -1
vn -0 0 -1
vn -0 0 -1
vn -0 0 -1
vn -0 0 -1
vn -0 0 -1
vn -0 0 -1
vn -0 0 -1
vn -0 0 -1
vn -0 0 -1
vn -0 0 -1
vn -0 0 -1
vn -0 0 -1
vn -0 0 -1
vn -0 0 -1
vn -0 0 -1
vn -0 0 -1
vn -0 0 -1
vn -0 0 -1
vn -0 0 -1
vn -0 0 -1
vn -0 0 -1
vn -0 0 -1
vn -0 0 -1
vn -0 0 -1
vn -0 0 -1
vn -0 0 -1
vn -0 0 -1
vn -0 0 -1
vn -0 0 -1
vn -0 0 -1
vn -0 0 -1
vn -0 0 -1
vn -0 0 -1
vn -0 0 -1
vn -0 0 -1
vn -0 0 -1
vn -0 0 -1
vn -0 0 -1
vn -0 0 -1
vn -0 0 -1
vn -0 0 -1
vn -0 0 -1
vn -0 0 -1
vn -0 0 -1
vn -0 0 -1
vn -0 0 -1
vn -0 0 -1
vn -0 0 -1
vn -0 0 -1
vn -0 0 -1
vn -0 0 -1
vn -0 0 -1
vn -0 0 -1
vn -0 0 -1
vn -0 0 -1
vn -0 0 -1
vn -0 0 -1
vn -0 0 -1
vn -0 0 -1
vn -0 0 -1
vn -0 0 -1
vn -0 0 -1
vn -0 0 -1
vn -0 0 -1
vn -0 0 -1
vn -0 0 -1
vn -0 0 -1
vn -0 0 -1
vn -0 0 -1
vn -0 0 -1
vn -0 0 -1
vn -0 0 -1
vn -0 0 -1
vn -0 0 -1
vn -0 0 -1
vn -0 0 -1
vn -0 0 -1
vn -0 0 -1
vn -0 0 -1
vn -0 0 -1
vn -0 0 -1
vn -0 0 -1
vn -0 0 -1
vn -0 0 -1
vn -0 0 -1
vn -0 0 -1
vn -0 0 -1
vn -0 0 -1
vn -0 0 -1
vn -0 0 -1
vn -0 0 -1
vn -0 0 -1
vn -0 0 -1
vn -0 0 -1
vn -0 0 -1
vn -0 0 -1
vn -0 0 -1
vn -0 0 -1
vn -0 0 -1
vn -0 0 -1
vn -0 0 -1
vn -0 0 -1
vn -0 0 -1
vn -0 0 -1
vn -0 0 -1
vn -0 0 -1
vn -0 0 -1
vn -0 0 -1
vn -0 0 -1
vn -0 0 -1
vn -0 0 -1
vn -0 0 -1
vn -0 0 -1
vn -0 0 -1
vn -0 0 -1
vn -0 0 -1
vn -0 0 -1
vn -0 0 -1
vn -0 0 -1
vn -0 0 -1
vn -0 0 -1
vn -0 0 -1
vn -0 0 -1
vn -0 0 -1
vn -0 0 -1
vn -0 0 -1
vn -0 0 -1
vn -0 0 -1
vn -0 0 -1
vn -0 0 -1
vn -0 0 -1
vn -0 0 -1
vn -0 0 -1
vn -0 0 -1
vn -0 0 -1
vn -0 0 -1
vn -0 0 -1
vn -0 0 -1
vn -0 0 -1
vn -0 0 -1
vn -0 0 -1
vn -0 0 -1
vn -0 0 -1
vn -0 0 -1
vn -0 0 -1
vn -0 0 -1
vn -0 0 -1
vn -0 0 -1
vn -0 0 -1
vn -0 0 -1
vn -0 0 -1
vn -0 0 -1
vn -0 0 -1
vn -0 0 -1
vn -0 0 -1
vn -0 0 -1
vn -0 0 -1
vn -0 0 -1
vn -0 0 -1
vn -0 0 -1
vn -0 0 -1
vn -0 0 -1
vn -0 0 -1
vn -0 0 -1
vn -0 0 -1
vn -0 0 -1
vn -0 0 -1
vn -0 0 -1
vn -0 0 -1
vn -0 0 -1
vn -0 0 -1
vn -0 0 -1
vn -0 0 -1
vn -0 0 -1
vn -0 0 -1
vn -0 0 -1
vn -0 0 -1
vn -0 0 -1
vn -0 0 -1
vn -0 0 -1
vn -0 0 -1
vn -0 0 -1
vn -0 0 -1
vn -0 0 -1
vn -0 0 -1
vn -0 0 -1
vn -0 0 -1
vn -0 0 -1
vn -0 0 -1
vn -0 0 -1
vn -0 0 -1
vn -0 0 -1
vn -0 0 -1
vn -0 0 -1
vn -0 0 -1
vn -0 0 -1
vn -0 0 -1
vn -0 0 -1
vn -0 0 -1
vn -0 0 -1
vn -0 0 -1
vn -0 0 -1
vn -0 0 -1
vn -0 0 -1
vn -0 0 -1
vn -0 0 -1
vn -0 0 -1
vn -0 0 -1
vn -0 0 -1
vn -0 0 -1
vn -0 0 -1
vn -0 0 -1
vn -0 0 -1
vn -0 0 -1
vn -0 0 -1
vn -0 0 -1
vn -0 0 -1
vn -0 0 -1
vn -0 0 -1
vn -0 0 -1
vn -0 0 -1
vn -0 0 -1
vn -0 0 -1
vn -0 0 -1
vn -0 0 -1
vn -0 0 -1
vn -0 0 -1
vn -0 0 -1
vn -0 0 -1
vn -0 0 -1
vn -0 0 -1
vn -0 0 -1
vn -0 0 -1
vn -0 0 -1
vn -0 0 -1
vn -0 0 -1
vn -0 0 -1
vn -0 0 -1
vn -0 0 -1
vn -0 0 -1
vn -0 0 -1
vn -0 0 -1
vn -0 0 -1
vn -0 0 -1
vn -0 0 -1
vn -0 0 -1
vn -0 0 -1
vn -0 0 -1
vn -0 0 -1
vn -0 0 -1
vn -0 0 -1
vn -0 0 -1
vn -0 0 -1
vn -0 0 -1
vn -0 0 -1
vn -0 0 -1
vn -0 0 -1
vn -0 0 -1
vn -0 0 -1
vn -0 0 -1
vn -0 0 -1
vn -0 0 -1
vn -0 0 -1
vn -0 0 -1
vn -0 0 -1
vn -0 0 -1
vn -0 0 -1
vn -0 0 -1
vn -0 0 -1
vn -0 0 -1
vn -0 0 -1
vn -0 0 -1
vn -0 0 -1
vn -0 0 -1
vn -0 0 -1
vn -0 0 -1
vn -0 0 -1
vn -0 0 -1
vn -0 0 -1
vn -0 0 -1
vn -0 0 -1
vn -0 0 -1
vn -0 0 -1
vn -0 0 -1
vn -0 0 -1
vn -0 0 -1
vn -0 0 -1
vn -0 0 -1
vn -0 0 -1
vn -0 0 -1
vn -0 0 -1
vn -0 0 -1
vn -0 0 -1
vn -0 0 -1
vn -0 0 -1
vn -0 0 -1
vn -0 0 -1
vn -0 0 -1
vn -0 0 -1
vn -0 0 -1
vn -0 0 -1
vn -0 0 -1
vn -0 0 -1
vn -0 0 -1
vn -0 0 -1
vn -0 0 -1
vn -0 0 -1
vn -0 0 -1
vn -0 0 -1
vn -0 0 -1
vn -0 0 -1
vn -0 0 -1
vn -0 0 -1
vn -0 0 -1
vn -0 0 -1
vn -0 0 -1
vn -0 0 -1
vn -0 0 -1
vn -0 0 -1
vn -0 0 -1
vn -0 0 -1
vn -0 0 -1
vn -0 0 -1
vn -0 0 -1
vn -0 0 -1
vn -0 0 -1
vn -0 0 -1
vn -0 0 -1
vn -0 0 -1
vn -0 0 -1
vn -0 0 -1
vn -0 0 -1
vn -0 0 -1
vn -0 0 -1
vn -0 0 -1
vn -0 0 -1
vn -0 0 -1
vn -0 0 -1
vn -0 0 -1
vn -0 0 -1
vn -0 0 -1
vn -0 0 -1
vn -0 0 -1
vn -0 0 -1
vn -0 0 -1
vn -0 0 -1
vn -0 0 -1
vn -0 0 -1
vn -0 0 -1
vn -0 0 -1
vn -0 0 -1
vn -0 0 -1
vn -0 0 -1
vn -0 0 -1
vn -0 0 -1
vn -0 0 -1
vn -0 0 -1
vn -0 0 -1
vn -0 0 -1
vn -0 0 -1
vn -0 0 -1
vn -0 0 -1
vn -0 0 -1
vn -0 0 -1
vn -0 0 -1
vn -0 0 -1
vn -0 0 -1
vn -0 0 -1
vn -0 0 -1
vn -0 0 -1
vn -0 0 -1
vn -0 0 -1
vn -0 0 -1
vn -0 0 -1
vn -0 0 -1
vn -0 0 -1
vn -0 0 -1
vn -0 0 -1
vn -0 0 -1
vn -0 0 -1
vn -0 0 -1
vn -0 0 -1
vn -0 0 -1
vn -0 0 -1
vn -0 0 -1
vn -0 0 -1
vn -0 0 -1
vn -0 0 -1
vn -0 0 -1
vn -0 0 -1
vn -0 0 -1
vn -0 0 -1
vn -0 0 -1
vn -0 0 -1
vn -0 0 -1
vn -0 0 -1
vn -0 0 -1
vn -0 0 -1
vn -0 0 -1
vn -0 0 -1
vn -0 0 -1
vn -0 0 -1
vn -0 0 -1
vn -0 0 -1
vn -0 0 -1
vn -0 0 -1
vn -0 0 -1
vn -0 0 -1
vn -0 0 -1
vn -0 0 -1
vn -0 0 -1
vn -0 0 -1
vn -0 0 -1
vn -0 0 -1
vn -0 0 -1
vn -0 0 -1
vn -0 0 -1
vn -0 0 -1
vn -0 0 -1
vn -0 0 -1
vn -0 0 -1
vn -0 0 -1
vn -0 0 -1
vn -0 0 -1
vn -0 0 -1
vn -0 0 -1
vn -0 0 -1
vn -0 0 -1
vn -0 0 -1
vn -0 0 -1
vn -0 0 -1
vn -0 0 -1
vn -0 0 -1
vn -0 0 -1
vn -0 0 -1
vn -0 0 -1
vn -0 0 -1
vn -0 0 -1
vn -0 0 -1
vn -0 0 -1
vn -0 0 -1
vn -0 0 -1
vn -0 0 -1
vn -0 0 -1
vn -0 0 -1
vn -0 0 -1
vn -0 0 -1
vn -0 0 -1
vn -0 0 -1
vn -0 0 -1
vn -0 0 -1
vn -0 0 -1
vn -0 0 -1
vn -0 0 -1
vn -0 0 -1
vn -0 0 -1
vn -0 0 -1
vn -0 0 -1
vn -0 0 -1
vn -0 0 -1
vn -0 0 -1
vn -0 0 -1
vn -0 0 -1
vn -0 0 -1
vn -0 0 -1
vn -0 0 -1
vn -0 0 -1
vn -0 0 -1
vn -0 0 -1
vn -0 0 -1
vn -0 0 -1
vn -0 0 -1
vn -0 0 -1
vn -0 0 -1
vn -0 0 -1
vn -0 0 -1
vn -0 0 -1
vn -0 0 -1
vn -0 0 -1
vn -0 0 -1
vn -0 0 -1
vn -0 0 -1
vn -0 0 -1
vn -0 0 -1
vn -0 0 -1
vn -0 0 -1
vn -0 0 -1
vn -0 0 -1
vn -0 0 -1
vn -0 0 -1
vn -0 0 -1
vn -0 0 -1
vn -0 0 -1
vn -0 0 -1
vn -0 0 -1
vn -0 0 -1
vn -0 0 -1
vn -0 0 -1
vn -0 0 -1
vn -0 0 -1
vn -0 0 -1
vn -0 0 -1
vn -0 0 -1
vn -0 0 -1
vn -0 0 -1
vn -0 0 -1
vn -0 0 -1
vn -0 0 -1
vn -0 0 -1
vn -0 0 -1
vn -0 0 -1
vn -0 0 -1
vn -0 0 -1
vn -0 0 -1
vn -0 0 -1
vn -0 0 -1
vn -0 0 -1
vn -0 0 -1
vn -0 0 -1
vn -0 0 -1
vn -0 0 -1
vn -0 0 -1
vn -0 0 -1
vn -0 0 -1
vn -0 0 -1
vn -0 0 -1
vn -0 0 -1
vn -0 0 -1
vn -0 0 -1
vn -0 0 -1
vn -0 0 -1
vn -0 0 -1
vn -0 0 -1
vn -0 0 -1
vn -0 0 -1
vn -0 0 -1
vn -0 0 -1
vn -0 0 -1
vn -0 0 -1
vn -0 0 -1
vn -0 0 -1
vn -0 0 -1
vn -0 0 -1
vn -0 0 -1
vn -0 0 -1
vn -0 0 -1
vn -0 0 -1
vn -0 0 -1
vn -0 0 -1
vn -0 0 -1
vn -0 0 -1
vn -0 0 -1
vn -0 0 -1
vn -0 0 -1
vn -0 0 -1
vn -0 0 -1
vn -0 0 -1
vn -0 0 -1
vn -0 0 -1
vn -0 0 -1
vn -0 0 -1
vn -0 0 -1
vn -0 0 -1
vn -0 0 -1
vn -0 0 -1
vn -0 0 -1
vn -0 0 -1
vn -0 0 -1
vn -0 0 -1
vn -0 0 -1
vn -0 0 -1
vn -0 0 -1
vn -0 0 -1
vn -0 0 -1
vn -0 0 -1
vn -0 0 -1
vn -0 0 -1
vn -0 0 -1
vn -0 0 -1
vn -0 0 -1
vn -0 0 -1
vn -0 0 -1
vn -0 0 -1
vn -0 0 -1
vn -0 0 -1
vn -0 0 -1
vn -0 0 -1
vn -0 0 -1
vn -0 0 -1
vn -0 0 -1
vn -0 0 -1
vn -0 0 -1
vn -0 0 -1
vn -0 0 -1
vn -0 0 -1
vn -0 0 -1
vn -0 0 -1
vn -0 0 -1
vn -0 0 -1
vn -0 0 -1
vn -0 0 -1
vn -0 0 -1
vn -0 0 -1
vn -0 0 -1
vn -0 0 -1
vn -0 0 -1
vn -0 0 -1
vn -0 0 -1
vn -0 0 -1
vn -0 0 -1
vn -0 0 -1
vn -0 0 -1
vn -0 0 -1
vn -0 0 -1
vn -0 0 -1
vn -0 0 -1
vn -0 0 -1
vn -0 0 -1
vn -0 0 -1
vn -0 0 -1
vn -0 0 -1
vn -0 0 -1
vn -0 0 -1
vn -0 0 -1
vn -0 0 -1
vn -0 0 -1
vn -0 0 -1
vn -0 0 -1
vn -0 0 -1
vn -0 0 -1
vn -0 0 -1
vn -0 0 -1
vn -0 0 -1
vn -0 0 -1
vn -0 0 -1
vn -0 0 -1
vn -0 0 -1
vn -0 0 -1
vn -0 0 -1
vn -0 0 -1
vn -0 0 -1
vn -0 0 -1
vn -0 0 -1
vn -0 0 -1
vn -0 0 -1
vn -0 0 -1
vn -0 0 -1
vn -0 0 -1
vn -0 0 -1
vn -0 0 -1
vn -0 0 -1
vn -0 0 -1
vn -0 0 -1
vn -0 0 -1
vn -0 0 -1
vn -0 0 -1
vn -0 0 -1
vn -0 0 -1
vn -0 0 -1
vn -0 0 -1
vn -0 0 -1
vn -0 0 -1
vn -0 0 -1
vn -0 0 -1
vn -0 0 -1
vn -0 0 -1
vn -0 0 -1
vn -0 0 -1
vn -0 0 -1
vn -0 0 -1
vn -0 0 -1
vn -0 0 -1
vn -0 0 -1
vn -0 0 -1
vn -0 0 -1
vn -0 0 -1
vn -0 0 -1
vn -0 0 -1
vn -0 0 -1
vn -0 0 -1
vn -0 0 -1
vn -0 0 -1
vn -0 0 -1
vn -0 0 -1
vn -0 0 -1
vn -0 0 -1
vn -0 0 -1
vn -0 0 -1
vn -0 0 -1
vn -0 0 -1
vn -0 0 -1
vn -0 0 -1
vn -0 0 -1
vn -0 0 -1
vn -0 0 -1
vn -0 0 -1
vn -0 0 -1
vn -0 0 -1
vn -0 0 -1
vn -0 0 -1
vn -0 0 -1
vn -0 0 -1
vn -0 0 -1
vn -0 0 -1
vn -0 0 -1
vn -0 0 -1
vn -0 0 -1
vn -0 0 -1
vn -0 0 -1
vn -0 0 -1
vn -0 0 -1
vn -0 0 -1
vn -0 0 -1
vn -0 0 -1
vn -0 0 -1
vn -0 0 -1
vn -0 0 -1
vn -0 0 -1
vn -0 0 -1
vn -0 0 -1
vn -0 0 -1
vn -0 0 -1
vn -0 0 -1
vn -0 0 -1
vn -0 0 -1
vn -0 0 -1
vn -0 0 -1
vn -0 0 -1
vn -0 0 -1
vn -0 0 -1
vn -0 0 -1
vn -0 0 -1
vn -0 0 -1
vn -0 0 -1
vn -0 0 -1
vn -0 0 -1
vn -0 0 -1
vn -0 0 -1
vn -0 0 -1
vn -0 0 -1
vn -0 0 -1
vn -0 0 -1
vn -0 0 -1
vn -0 0 -1
vn -0 0 -1
vn -0 0 -1
vn -0 0 -1
g cPK_20_002450_00_MEWex_SR_L_SB_0
f 3/3/3 2/2/2 1/1/1
f 3/3/3 4/4/4 2/2/2
f 5/5/5 4/4/4 3/3/3
f 5/5/5 6/6/6 4/4/4
f 5/5/5 7/7/7 6/6/6
f 5/5/5 8/8/8 7/7/7
f 5/5/5 9/9/9 8/8/8
f 10/10/10 9/9/9 5/5/5
f 11/11/11 9/9/9 10/10/10
f 11/11/11 12/12/12 9/9/9
f 13/13/13 12/12/12 11/11/11
f 13/13/13 14/14/14 12/12/12
f 15/15/15 14/14/14 13/13/13
f 15/15/15 16/16/16 14/14/14
f 15/15/15 17/17/17 16/16/16
f 18/18/18 17/17/17 15/15/15
f 18/18/18 19/19/19 17/17/17
f 18/18/18 20/20/20 19/19/19
f 21/21/21 20/20/20 18/18/18
f 22/22/22 20/20/20 21/21/21
f 22/22/22 23/23/23 20/20/20
f 22/22/22 24/24/24 23/23/23
f 25/25/25 24/24/24 22/22/22
f 25/25/25 26/26/26 24/24/24
f 27/27/27 26/26/26 25/25/25
f 27/27/27 28/28/28 26/26/26
f 29/29/29 28/28/28 27/27/27
f 29/29/29 30/30/30 28/28/28
f 31/31/31 30/30/30 29/29/29
f 31/31/31 32/32/32 30/30/30
f 33/33/33 32/32/32 31/31/31
f 33/33/33 34/34/34 32/32/32
f 35/35/35 34/34/34 33/33/33
f 35/35/35 36/36/36 34/34/34
f 37/37/37 36/36/36 35/35/35
f 37/37/37 38/38/38 36/36/36
f 39/39/39 38/38/38 37/37/37
f 39/39/39 40/40/40 38/38/38
f 39/39/39 41/41/41 40/40/40
f 42/42/42 41/41/41 39/39/39
f 42/42/42 43/43/43 41/41/41
f 44/44/44 43/43/43 42/42/42
f 44/44/44 45/45/45 43/43/43
f 44/44/44 46/46/46 45/45/45
f 47/47/47 46/46/46 44/44/44
f 47/47/47 48/48/48 46/46/46
f 49/49/49 48/48/48 47/47/47
f 49/49/49 50/50/50 48/48/48
f 51/51/51 50/50/50 49/49/49
f 52/52/52 50/50/50 51/51/51
f 52/52/52 53/53/53 50/50/50
f 54/54/54 53/53/53 52/52/52
f 54/54/54 55/55/55 53/53/53
f 56/56/56 55/55/55 54/54/54
f 56/56/56 57/57/57 55/55/55
f 58/58/58 57/57/57 56/56/56
f 59/59/59 57/57/57 58/58/58
f 59/59/59 60/60/60 57/57/57
f 61/61/61 60/60/60 59/59/59
f 62/62/62 60/60/60 61/61/61
f 62/62/62 63/63/63 60/60/60
f 64/64/64 63/63/63 62/62/62
f 64/64/64 65/65/65 63/63/63
f 66/66/66 65/65/65 64/64/64
f 67/67/67 65/65/65 66/66/66
f 67/67/67 68/68/68 65/65/65
f 69/69/69 68/68/68 67/67/67
f 70/70/70 68/68/68 69/69/69
f 70/70/70 71/71/71 68/68/68
f 70/70/70 72/72/72 71/71/71
f 73/73/73 72/72/72 70/70/70
f 74/74/74 72/72/72 73/73/73
f 74/74/74 75/75/75 72/72/72
f 76/76/76 75/75/75 74/74/74
f 76/76/76 77/77/77 75/75/75
f 78/78/78 77/77/77 76/76/76
f 78/78/78 79/79/79 77/77/77
f 80/80/80 79/79/79 78/78/78
f 80/80/80 81/81/81 79/79/79
f 82/82/82 81/81/81 80/80/80
f 82/82/82 83/83/83 81/81/81
f 84/84/84 83/83/83 82/82/82
f 84/84/84 85/85/85 83/83/83
f 86/86/86 85/85/85 84/84/84
f 86/86/86 87/87/87 85/85/85
f 88/88/88 87/87/87 86/86/86
f 89/89/89 87/87/87 88/88/88
f 89/89/89 90/90/90 87/87/87
f 91/91/91 90/90/90 89/89/89
f 91/91/91 92/92/92 90/90/90
f 93/93/93 92/92/92 91/91/91
f 94/94/94 92/92/92 93/93/93
f 94/94/94 95/95/95 92/92/92
f 96/96/96 95/95/95 94/94/94
f 96/96/96 97/97/97 95/95/95
f 98/98/98 97/97/97 96/96/96
f 99/99/99 97/97/97 98/98/98
f 99/99/99 100/100/100 97/97/97
f 101/101/101 100/100/100 99/99/99
f 102/102/102 100/100/100 101/101/101
f 102/102/102 103/103/103 100/100/100
f 104/104/104 103/103/103 102/102/102
f 104/104/104 105/105/105 103/103/103
f 106/106/106 105/105/105 104/104/104
f 107/107/107 105/105/105 106/106/106
f 107/107/107 108/108/108 105/105/105
f 109/109/109 108/108/108 107/107/107
f 110/110/110 108/108/108 109/109/109
f 110/110/110 111/111/111 108/108/108
f 112/112/112 111/111/111 110/110/110
f 113/113/113 111/111/111 112/112/112
f 113/113/113 114/114/114 111/111/111
f 115/115/115 114/114/114 113/113/113
f 115/115/115 116/116/116 114/114/114
f 117/117/117 116/116/116 115/115/115
f 118/118/118 116/116/116 117/117/117
f 119/119/119 116/116/116 118/118/118
f 119/119/119 120/120/120 116/116/116
f 121/121/121 120/120/120 119/119/119
f 121/121/121 122/122/122 120/120/120
f 123/123/123 122/122/122 121/121/121
f 124/124/124 122/122/122 123/123/123
f 124/124/124 125/125/125 122/122/122
f 126/126/126 125/125/125 124/124/124
f 126/126/126 127/127/127 125/125/125
f 128/128/128 127/127/127 126/126/126
f 129/129/129 127/127/127 128/128/128
f 129/129/129 130/130/130 127/127/127
f 131/131/131 130/130/130 129/129/129
f 132/132/132 130/130/130 131/131/131
f 133/133/133 130/130/130 132/132/132
f 133/133/133 134/134/134 130/130/130
f 135/135/135 134/134/134 133/133/133
f 135/135/135 136/136/136 134/134/134
f 137/137/137 136/136/136 135/135/135
f 137/137/137 138/138/138 136/136/136
f 139/139/139 138/138/138 137/137/137
f 139/139/139 140/140/140 138/138/138
f 141/141/141 140/140/140 139/139/139
f 141/141/141 142/142/142 140/140/140
f 143/143/143 142/142/142 141/141/141
f 144/144/144 142/142/142 143/143/143
f 145/145/145 142/142/142 144/144/144
f 145/145/145 146/146/146 142/142/142
f 145/145/145 147/147/147 146/146/146
f 148/148/148 147/147/147 145/145/145
f 148/148/148 149/149/149 147/147/147
f 150/150/150 149/149/149 148/148/148
f 150/150/150 151/151/151 149/149/149
f 150/150/150 152/152/152 151/151/151
f 153/153/153 152/152/152 150/150/150
f 153/153/153 154/154/154 152/152/152
f 155/155/155 154/154/154 153/153/153
f 155/155/155 156/156/156 154/154/154
f 155/155/155 157/157/157 156/156/156
f 158/158/158 157/157/157 155/155/155
f 158/158/158 159/159/159 157/157/157
f 160/160/160 159/159/159 158/158/158
f 160/160/160 161/161/161 159/159/159
f 162/162/162 161/161/161 160/160/160
f 162/162/162 163/163/163 161/161/161
f 164/164/164 163/163/163 162/162/162
f 165/165/165 163/163/163 164/164/164
f 165/165/165 166/166/166 163/163/163
f 167/167/167 166/166/166 165/165/165
f 167/167/167 168/168/168 166/166/166
f 169/169/169 168/168/168 167/167/167
f 169/169/169 170/170/170 168/168/168
f 171/171/171 170/170/170 169/169/169
f 171/171/171 172/172/172 170/170/170
f 173/173/173 172/172/172 171/171/171
f 173/173/173 174/174/174 172/172/172
f 175/175/175 174/174/174 173/173/173
f 175/175/175 176/176/176 174/174/174
f 175/175/175 177/177/177 176/176/176
f 178/178/178 177/177/177 175/175/175
f 179/179/179 177/177/177 178/178/178
f 180/180/180 177/177/177 179/179/179
f 180/180/180 181/181/181 177/177/177
f 182/182/182 181/181/181 180/180/180
f 182/182/182 183/183/183 181/181/181
f 184/184/184 183/183/183 182/182/182
f 185/185/185 183/183/183 184/184/184
f 185/185/185 186/186/186 183/183/183
f 187/187/187 186/186/186 185/185/185
f 187/187/187 188/188/188 186/186/186
f 187/187/187 189/189/189 188/188/188
f 190/190/190 189/189/189 187/187/187
f 190/190/190 191/191/191 189/189/189
f 192/192/192 191/191/191 190/190/190
f 192/192/192 193/193/193 191/191/191
f 192/192/192 194/194/194 193/193/193
f 195/195/195 194/194/194 192/192/192
f 196/196/196 194/194/194 195/195/195
f 196/196/196 197/197/197 194/194/194
f 198/198/198 197/197/197 196/196/196
f 198/198/198 199/199/199 197/197/197
f 198/198/198 200/200/200 199/199/199
f 201/201/201 200/200/200 198/198/198
f 201/201/201 202/202/202 200/200/200
f 203/203/203 202/202/202 201/201/201
f 204/204/204 202/202/202 203/203/203
f 205/205/205 202/202/202 204/204/204
f 205/205/205 206/206/206 202/202/202
f 207/207/207 206/206/206 205/205/205
f 208/208/208 206/206/206 207/207/207
f 208/208/208 209/209/209 206/206/206
f 208/208/208 210/210/210 209/209/209
f 211/211/211 210/210/210 208/208/208
f 211/211/211 212/212/212 210/210/210
f 211/211/211 213/213/213 212/212/212
f 214/214/214 213/213/213 211/211/211
f 215/215/215 213/213/213 214/214/214
f 216/216/216 213/213/213 215/215/215
f 217/217/217 213/213/213 216/216/216
f 220/220/220 219/219/219 218/218/218
f 223/223/223 222/222/222 221/221/221
f 226/226/226 225/225/225 224/224/224
f 229/229/229 228/228/228 227/227/227
f 232/232/232 231/231/231 230/230/230
f 234/234/234 232/232/232 233/233/233
f 236/236/236 234/234/234 235/235/235
f 238/238/238 236/236/236 237/237/237
f 240/240/240 238/238/238 239/239/239
f 242/242/242 240/240/240 241/241/241
f 244/244/244 242/242/242 243/243/243
f 246/246/246 244/244/244 245/245/245
f 248/248/248 246/246/246 247/247/247
f 250/250/250 248/248/248 249/249/249
f 252/252/252 250/250/250 251/251/251
f 254/254/254 252/252/252 253/253/253
f 256/256/256 254/254/254 255/255/255
f 258/258/258 256/256/256 257/257/257
f 260/260/260 258/258/258 259/259/259
f 262/262/262 260/260/260 261/261/261
f 264/264/264 262/262/262 263/263/263
f 266/266/266 264/264/264 265/265/265
f 268/268/268 266/266/266 267/267/267
f 270/270/270 268/268/268 269/269/269
f 272/272/272 270/270/270 271/271/271
f 274/274/274 272/272/272 273/273/273
f 276/276/276 274/274/274 275/275/275
f 278/278/278 276/276/276 277/277/277
f 280/280/280 278/278/278 279/279/279
f 282/282/282 280/280/280 281/281/281
f 284/284/284 282/282/282 283/283/283
f 286/286/286 284/284/284 285/285/285
f 288/288/288 286/286/286 287/287/287
f 290/290/290 288/288/288 289/289/289
f 292/292/292 290/290/290 291/291/291
f 294/294/294 292/292/292 293/293/293
f 296/296/296 294/294/294 295/295/295
f 298/298/298 296/296/296 297/297/297
f 300/300/300 298/298/298 299/299/299
f 302/302/302 300/300/300 301/301/301
f 305/305/305 304/304/304 303/303/303
f 222/222/222 307/307/307 306/306/306
f 309/309/309 223/223/223 308/308/308
f 311/311/311 309/309/309 310/310/310
f 313/313/313 311/311/311 312/312/312
f 315/315/315 313/313/313 314/314/314
f 317/317/317 315/315/315 316/316/316
f 319/319/319 317/317/317 318/318/318
f 321/321/321 319/319/319 320/320/320
f 323/323/323 321/321/321 322/322/322
f 325/325/325 323/323/323 324/324/324
f 327/327/327 325/325/325 326/326/326
f 329/329/329 327/327/327 328/328/328
f 331/331/331 220/220/220 330/330/330
f 333/333/333 331/331/331 332/332/332
f 335/335/335 333/333/333 334/334/334
f 337/337/337 335/335/335 336/336/336
f 339/339/339 337/337/337 338/338/338
f 341/341/341 339/339/339 340/340/340
f 344/344/344 343/343/343 342/342/342
f 346/346/346 344/344/344 345/345/345
f 225/225/225 346/346/346 347/347/347
f 349/349/349 229/229/229 348/348/348
f 351/351/351 349/349/349 350/350/350
f 353/353/353 351/351/351 352/352/352
f 355/355/355 353/353/353 354/354/354
f 331/331/331 219/219/219 220/220/220
f 228/228/228 225/225/225 226/226/226
f 229/229/229 225/225/225 228/228/228
f 349/349/349 225/225/225 229/229/229
f 351/351/351 225/225/225 349/349/349
f 351/351/351 346/346/346 225/225/225
f 353/353/353 346/346/346 351/351/351
f 355/355/355 346/346/346 353/353/353
f 355/355/355 344/344/344 346/346/346
f 231/231/231 344/344/344 355/355/355
f 231/231/231 343/343/343 344/344/344
f 232/232/232 343/343/343 231/231/231
f 234/234/234 343/343/343 232/232/232
f 234/234/234 356/356/356 343/343/343
f 234/234/234 357/357/357 356/356/356
f 236/236/236 357/357/357 234/234/234
f 236/236/236 358/358/358 357/357/357
f 236/236/236 359/359/359 358/358/358
f 236/236/236 360/360/360 359/359/359
f 238/238/238 360/360/360 236/236/236
f 238/238/238 361/361/361 360/360/360
f 238/238/238 362/362/362 361/361/361
f 240/240/240 362/362/362 238/238/238
f 240/240/240 363/363/363 362/362/362
f 242/242/242 363/363/363 240/240/240
f 242/242/242 364/364/364 363/363/363
f 242/242/242 365/365/365 364/364/364
f 244/244/244 365/365/365 242/242/242
f 244/244/244 366/366/366 365/365/365
f 246/246/246 366/366/366 244/244/244
f 246/246/246 367/367/367 366/366/366
f 246/246/246 368/368/368 367/367/367
f 248/248/248 368/368/368 246/246/246
f 248/248/248 369/369/369 368/368/368
f 250/250/250 369/369/369 248/248/248
f 250/250/250 370/370/370 369/369/369
f 250/250/250 371/371/371 370/370/370
f 252/252/252 371/371/371 250/250/250
f 252/252/252 372/372/372 371/371/371
f 254/254/254 372/372/372 252/252/252
f 254/254/254 373/373/373 372/372/372
f 254/254/254 374/374/374 373/373/373
f 254/254/254 375/375/375 374/374/374
f 256/256/256 375/375/375 254/254/254
f 256/256/256 376/376/376 375/375/375
f 256/256/256 377/377/377 376/376/376
f 256/256/256 378/378/378 377/377/377
f 258/258/258 378/378/378 256/256/256
f 258/258/258 379/379/379 378/378/378
f 258/258/258 380/380/380 379/379/379
f 260/260/260 380/380/380 258/258/258
f 260/260/260 381/381/381 380/380/380
f 260/260/260 382/382/382 381/381/381
f 262/262/262 382/382/382 260/260/260
f 262/262/262 383/383/383 382/382/382
f 262/262/262 384/384/384 383/383/383
f 262/262/262 385/385/385 384/384/384
f 264/264/264 385/385/385 262/262/262
f 264/264/264 386/386/386 385/385/385
f 264/264/264 387/387/387 386/386/386
f 266/266/266 387/387/387 264/264/264
f 266/266/266 388/388/388 387/387/387
f 266/266/266 389/389/389 388/388/388
f 266/266/266 390/390/390 389/389/389
f 268/268/268 390/390/390 266/266/266
f 268/268/268 391/391/391 390/390/390
f 268/268/268 392/392/392 391/391/391
f 270/270/270 392/392/392 268/268/268
f 270/270/270 393/393/393 392/392/392
f 272/272/272 393/393/393 270/270/270
f 272/272/272 394/394/394 393/393/393
f 274/274/274 394/394/394 272/272/272
f 274/274/274 395/395/395 394/394/394
f 276/276/276 395/395/395 274/274/274
f 276/276/276 396/396/396 395/395/395
f 278/278/278 396/396/396 276/276/276
f 278/278/278 397/397/397 396/396/396
f 280/280/280 397/397/397 278/278/278
f 280/280/280 398/398/398 397/397/397
f 282/282/282 398/398/398 280/280/280
f 282/282/282 399/399/399 398/398/398
f 284/284/284 399/399/399 282/282/282
f 284/284/284 400/400/400 399/399/399
f 286/286/286 400/400/400 284/284/284
f 286/286/286 401/401/401 400/400/400
f 288/288/288 401/401/401 286/286/286
f 288/288/288 402/402/402 401/401/401
f 290/290/290 402/402/402 288/288/288
f 290/290/290 403/403/403 402/402/402
f 290/290/290 404/404/404 403/403/403
f 292/292/292 404/404/404 290/290/290
f 292/292/292 405/405/405 404/404/404
f 294/294/294 405/405/405 292/292/292
f 294/294/294 406/406/406 405/405/405
f 294/294/294 407/407/407 406/406/406
f 296/296/296 407/407/407 294/294/294
f 296/296/296 408/408/408 407/407/407
f 296/296/296 409/409/409 408/408/408
f 298/298/298 409/409/409 296/296/296
f 298/298/298 410/410/410 409/409/409
f 300/300/300 410/410/410 298/298/298
f 300/300/300 411/411/411 410/410/410
f 300/300/300 412/412/412 411/411/411
f 302/302/302 412/412/412 300/300/300
f 302/302/302 413/413/413 412/412/412
f 302/302/302 414/414/414 413/413/413
f 415/415/415 414/414/414 302/302/302
f 415/415/415 416/416/416 414/414/414
f 304/304/304 416/416/416 415/415/415
f 304/304/304 417/417/417 416/416/416
f 304/304/304 418/418/418 417/417/417
f 305/305/305 418/418/418 304/304/304
f 305/305/305 419/419/419 418/418/418
f 305/305/305 420/420/420 419/419/419
f 305/305/305 421/421/421 420/420/420
f 422/422/422 421/421/421 305/305/305
f 422/422/422 423/423/423 421/421/421
f 422/422/422 424/424/424 423/423/423
f 425/425/425 424/424/424 422/422/422
f 425/425/425 426/426/426 424/424/424
f 427/427/427 426/426/426 425/425/425
f 427/427/427 428/428/428 426/426/426
f 429/429/429 428/428/428 427/427/427
f 429/429/429 341/341/341 428/428/428
f 429/429/429 339/339/339 341/341/341
f 429/429/429 337/337/337 339/339/339
f 429/429/429 335/335/335 337/337/337
f 429/429/429 333/333/333 335/335/335
f 429/429/429 331/331/331 333/333/333
f 429/429/429 219/219/219 331/331/331
f 429/429/429 329/329/329 219/219/219
f 429/429/429 327/327/327 329/329/329
f 429/429/429 325/325/325 327/327/327
f 429/429/429 323/323/323 325/325/325
f 429/429/429 321/321/321 323/323/323
f 430/430/430 321/321/321 429/429/429
f 430/430/430 319/319/319 321/321/321
f 430/430/430 317/317/317 319/319/319
f 431/431/431 317/317/317 430/430/430
f 431/431/431 315/315/315 317/317/317
f 431/431/431 313/313/313 315/315/315
f 307/307/307 313/313/313 431/431/431
f 222/222/222 313/313/313 307/307/307
f 222/222/222 311/311/311 313/313/313
f 222/222/222 309/309/309 311/311/311
f 223/223/223 309/309/309 222/222/222
f 434/434/434 433/433/433 432/432/432
f 435/435/435 433/433/433 434/434/434
f 435/435/435 436/436/436 433/433/433
f 435/435/435 437/437/437 436/436/436
f 438/438/438 437/437/437 435/435/435
f 438/438/438 439/439/439 437/437/437
f 440/440/440 439/439/439 438/438/438
f 440/440/440 441/441/441 439/439/439
f 442/442/442 441/441/441 440/440/440
f 442/442/442 443/443/443 441/441/441
f 444/444/444 443/443/443 442/442/442
f 444/444/444 445/445/445 443/443/443
f 444/444/444 446/446/446 445/445/445
f 447/447/447 446/446/446 444/444/444
f 448/448/448 446/446/446 447/447/447
f 448/448/448 449/449/449 446/446/446
f 448/448/448 450/450/450 449/449/449
f 451/451/451 450/450/450 448/448/448
f 451/451/451 452/452/452 450/450/450
f 451/451/451 453/453/453 452/452/452
f 451/451/451 454/454/454 453/453/453
f 451/451/451 455/455/455 454/454/454
f 451/451/451 456/456/456 455/455/455
f 451/451/451 457/457/457 456/456/456
f 458/458/458 457/457/457 451/451/451
f 459/459/459 457/457/457 458/458/458
f 460/460/460 457/457/457 459/459/459
f 461/461/461 457/457/457 460/460/460
f 462/462/462 457/457/457 461/461/461
f 463/463/463 457/457/457 462/462/462
f 464/464/464 457/457/457 463/463/463
f 465/465/465 457/457/457 464/464/464
f 466/466/466 457/457/457 465/465/465
f 467/467/467 457/457/457 466/466/466
f 468/468/468 457/457/457 467/467/467
f 469/469/469 457/457/457 468/468/468
f 470/470/470 457/457/457 469/469/469
f 471/471/471 457/457/457 470/470/470
f 472/472/472 457/457/457 471/471/471
f 473/473/473 457/457/457 472/472/472
f 474/474/474 457/457/457 473/473/473
f 475/475/475 457/457/457 474/474/474
f 476/476/476 457/457/457 475/475/475
f 477/477/477 457/457/457 476/476/476
f 478/478/478 457/457/457 477/477/477
f 479/479/479 457/457/457 478/478/478
f 479/479/479 480/480/480 457/457/457
f 479/479/479 481/481/481 480/480/480
f 479/479/479 482/482/482 481/481/481
f 479/479/479 483/483/483 482/482/482
f 479/479/479 484/484/484 483/483/483
f 479/479/479 485/485/485 484/484/484
f 479/479/479 486/486/486 485/485/485
f 479/479/479 487/487/487 486/486/486
f 479/479/479 488/488/488 487/487/487
f 479/479/479 489/489/489 488/488/488
f 479/479/479 490/490/490 489/489/489
f 479/479/479 491/491/491 490/490/490
f 479/479/479 492/492/492 491/491/491
f 479/479/479 493/493/493 492/492/492
f 479/479/479 494/494/494 493/493/493
f 479/479/479 495/495/495 494/494/494
f 479/479/479 496/496/496 495/495/495
f 479/479/479 497/497/497 496/496/496
f 479/479/479 498/498/498 497/497/497
f 479/479/479 499/499/499 498/498/498
f 479/479/479 500/500/500 499/499/499
f 479/479/479 501/501/501 500/500/500
f 479/479/479 502/502/502 501/501/501
f 479/479/479 503/503/503 502/502/502
f 479/479/479 504/504/504 503/503/503
f 479/479/479 505/505/505 504/504/504
f 479/479/479 506/506/506 505/505/505
f 479/479/479 507/507/507 506/506/506
f 479/479/479 508/508/508 507/507/507
f 479/479/479 509/509/509 508/508/508
f 479/479/479 510/510/510 509/509/509
f 479/479/479 511/511/511 510/510/510
f 479/479/479 512/512/512 511/511/511
f 479/479/479 513/513/513 512/512/512
f 479/479/479 514/514/514 513/513/513
f 479/479/479 515/515/515 514/514/514
f 479/479/479 516/516/516 515/515/515
f 479/479/479 517/517/517 516/516/516
f 479/479/479 518/518/518 517/517/517
f 479/479/479 519/519/519 518/518/518
f 479/479/479 520/520/520 519/519/519
f 479/479/479 521/521/521 520/520/520
f 479/479/479 522/522/522 521/521/521
f 479/479/479 523/523/523 522/522/522
f 479/479/479 524/524/524 523/523/523
f 479/479/479 525/525/525 524/524/524
f 479/479/479 526/526/526 525/525/525
f 479/479/479 527/527/527 526/526/526
f 479/479/479 528/528/528 527/527/527
f 479/479/479 529/529/529 528/528/528
f 479/479/479 530/530/530 529/529/529
f 479/479/479 531/531/531 530/530/530
f 479/479/479 532/532/532 531/531/531
f 479/479/479 533/533/533 532/532/532
f 479/479/479 534/534/534 533/533/533
f 479/479/479 535/535/535 534/534/534
f 479/479/479 536/536/536 535/535/535
f 479/479/479 537/537/537 536/536/536
f 479/479/479 538/538/538 537/537/537
f 479/479/479 539/539/539 538/538/538
f 479/479/479 540/540/540 539/539/539
f 479/479/479 541/541/541 540/540/540
f 479/479/479 542/542/542 541/541/541
f 479/479/479 543/543/543 542/542/542
f 544/544/544 543/543/543 479/479/479
f 545/545/545 543/543/543 544/544/544
f 546/546/546 543/543/543 545/545/545
f 547/547/547 543/543/543 546/546/546
f 548/548/548 543/543/543 547/547/547
f 549/549/549 543/543/543 548/548/548
f 550/550/550 543/543/543 549/549/549
f 551/551/551 543/543/543 550/550/550
f 552/552/552 543/543/543 551/551/551
f 553/553/553 543/543/543 552/552/552
f 554/554/554 543/543/543 553/553/553
f 555/555/555 543/543/543 554/554/554
f 556/556/556 543/543/543 555/555/555
f 557/557/557 543/543/543 556/556/556
f 557/557/557 558/558/558 543/543/543
f 557/557/557 559/559/559 558/558/558
f 557/557/557 560/560/560 559/559/559
f 557/557/557 561/561/561 560/560/560
f 557/557/557 562/562/562 561/561/561
f 557/557/557 563/563/563 562/562/562
f 557/557/557 564/564/564 563/563/563
f 557/557/557 565/565/565 564/564/564
f 557/557/557 566/566/566 565/565/565
f 567/567/567 566/566/566 557/557/557
f 567/567/567 568/568/568 566/566/566
f 569/569/569 568/568/568 567/567/567
f 569/569/569 570/570/570 568/568/568
f 571/571/571 570/570/570 569/569/569
f 572/572/572 570/570/570 571/571/571
f 573/573/573 570/570/570 572/572/572
f 574/574/574 570/570/570 573/573/573
f 575/575/575 570/570/570 574/574/574
f 576/576/576 570/570/570 575/575/575
f 577/577/577 570/570/570 576/576/576
f 578/578/578 570/570/570 577/577/577
f 579/579/579 570/570/570 578/578/578
f 580/580/580 570/570/570 579/579/579
f 581/581/581 570/570/570 580/580/580
f 582/582/582 570/570/570 581/581/581
f 583/583/583 570/570/570 582/582/582
f 584/584/584 570/570/570 583/583/583
f 585/585/585 570/570/570 584/584/584
f 586/586/586 570/570/570 585/585/585
f 587/587/587 570/570/570 586/586/586
f 588/588/588 570/570/570 587/587/587
f 589/589/589 570/570/570 588/588/588
f 590/590/590 570/570/570 589/589/589
f 591/591/591 570/570/570 590/590/590
f 592/592/592 570/570/570 591/591/591
f 593/593/593 570/570/570 592/592/592
f 594/594/594 570/570/570 593/593/593
f 595/595/595 570/570/570 594/594/594
f 596/596/596 570/570/570 595/595/595
f 597/597/597 570/570/570 596/596/596
f 598/598/598 570/570/570 597/597/597
f 599/599/599 570/570/570 598/598/598
f 600/600/600 570/570/570 599/599/599
f 601/601/601 570/570/570 600/600/600
f 602/602/602 570/570/570 601/601/601
f 603/603/603 570/570/570 602/602/602
f 604/604/604 570/570/570 603/603/603
f 605/605/605 570/570/570 604/604/604
f 606/606/606 570/570/570 605/605/605
f 607/607/607 570/570/570 606/606/606
f 608/608/608 570/570/570 607/607/607
f 609/609/609 570/570/570 608/608/608
f 610/610/610 570/570/570 609/609/609
f 611/611/611 570/570/570 610/610/610
f 612/612/612 570/570/570 611/611/611
f 613/613/613 570/570/570 612/612/612
f 614/614/614 570/570/570 613/613/613
f 615/615/615 570/570/570 614/614/614
f 616/616/616 570/570/570 615/615/615
f 617/617/617 570/570/570 616/616/616
f 618/618/618 570/570/570 617/617/617
f 618/618/618 619/619/619 570/570/570
f 618/618/618 620/620/620 619/619/619
f 618/618/618 621/621/621 620/620/620
f 618/618/618 622/622/622 621/621/621
f 618/618/618 623/623/623 622/622/622
f 618/618/618 624/624/624 623/623/623
f 618/618/618 625/625/625 624/624/624
f 618/618/618 626/626/626 625/625/625
f 627/627/627 626/626/626 618/618/618
f 627/627/627 628/628/628 626/626/626
f 629/629/629 628/628/628 627/627/627
f 629/629/629 630/630/630 628/628/628
f 629/629/629 631/631/631 630/630/630
f 632/632/632 631/631/631 629/629/629
f 633/633/633 631/631/631 632/632/632
f 633/633/633 634/634/634 631/631/631
f 633/633/633 635/635/635 634/634/634
f 636/636/636 635/635/635 633/633/633
f 636/636/636 637/637/637 635/635/635
f 636/636/636 638/638/638 637/637/637
f 639/639/639 638/638/638 636/636/636
f 639/639/639 640/640/640 638/638/638
f 639/639/639 641/641/641 640/640/640
f 639/639/639 642/642/642 641/641/641
f 643/643/643 642/642/642 639/639/639
f 643/643/643 644/644/644 642/642/642
f 643/643/643 645/645/645 644/644/644
f 646/646/646 645/645/645 643/643/643
f 646/646/646 647/647/647 645/645/645
f 646/646/646 648/648/648 647/647/647
f 646/646/646 649/649/649 648/648/648
f 646/646/646 650/650/650 649/649/649
f 646/646/646 651/651/651 650/650/650
f 646/646/646 652/652/652 651/651/651
f 653/653/653 652/652/652 646/646/646
f 653/653/653 654/654/654 652/652/652
f 653/653/653 655/655/655 654/654/654
f 653/653/653 656/656/656 655/655/655
f 653/653/653 657/657/657 656/656/656
f 653/653/653 658/658/658 657/657/657
f 653/653/653 659/659/659 658/658/658
f 660/660/660 659/659/659 653/653/653
f 660/660/660 661/661/661 659/659/659
f 660/660/660 662/662/662 661/661/661
f 665/665/665 664/664/664 663/663/663
f 665/665/665 666/666/666 664/664/664
f 665/665/665 667/667/667 666/666/666
f 665/665/665 668/668/668 667/667/667
f 665/665/665 669/669/669 668/668/668
f 665/665/665 670/670/670 669/669/669
f 665/665/665 671/671/671 670/670/670
f 665/665/665 672/672/672 671/671/671
f 665/665/665 673/673/673 672/672/672
f 665/665/665 674/674/674 673/673/673
f 665/665/665 675/675/675 674/674/674
f 665/665/665 676/676/676 675/675/675
f 665/665/665 677/677/677 676/676/676
f 665/665/665 678/678/678 677/677/677
f 665/665/665 679/679/679 678/678/678
f 680/680/680 679/679/679 665/665/665
f 681/681/681 679/679/679 680/680/680
f 682/682/682 679/679/679 681/681/681
f 683/683/683 679/679/679 682/682/682
f 684/684/684 679/679/679 683/683/683
f 685/685/685 679/679/679 684/684/684
f 686/686/686 679/679/679 685/685/685
f 687/687/687 679/679/679 686/686/686
f 688/688/688 679/679/679 687/687/687
f 689/689/689 679/679/679 688/688/688
f 690/690/690 679/679/679 689/689/689
f 691/691/691 679/679/679 690/690/690
f 692/692/692 679/679/679 691/691/691
f 693/693/693 679/679/679 692/692/692
f 694/694/694 679/679/679 693/693/693
f 695/695/695 679/679/679 694/694/694
f 696/696/696 679/679/679 695/695/695
f 697/697/697 679/679/679 696/696/696
f 698/698/698 679/679/679 697/697/697
f 699/699/699 679/679/679 698/698/698
f 700/700/700 679/679/679 699/699/699
f 701/701/701 679/679/679 700/700/700
f 702/702/702 679/679/679 701/701/701
f 703/703/703 679/679/679 702/702/702
f 704/704/704 679/679/679 703/703/703
f 705/705/705 679/679/679 704/704/704
f 706/706/706 679/679/679 705/705/705
f 707/707/707 679/679/679 706/706/706
f 708/708/708 679/679/679 707/707/707
f 709/709/709 679/679/679 708/708/708
f 710/710/710 679/679/679 709/709/709
f 711/711/711 679/679/679 710/710/710
f 712/712/712 679/679/679 711/711/711
f 713/713/713 679/679/679 712/712/712
f 713/713/713 714/714/714 679/679/679
f 715/715/715 714/714/714 713/713/713
f 716/716/716 714/714/714 715/715/715
f 716/716/716 717/717/717 714/714/714
f 718/718/718 717/717/717 716/716/716
f 718/718/718 719/719/719 717/717/717
f 720/720/720 719/719/719 718/718/718
f 721/721/721 719/719/719 720/720/720
f 721/721/721 722/722/722 719/719/719
f 723/723/723 722/722/722 721/721/721
f 723/723/723 724/724/724 722/722/722
f 725/725/725 724/724/724 723/723/723
f 725/725/725 726/726/726 724/724/724
f 725/725/725 727/727/727 726/726/726
f 725/725/725 728/728/728 727/727/727
f 729/729/729 728/728/728 725/725/725
f 729/729/729 730/730/730 728/728/728
f 729/729/729 731/731/731 730/730/730
f 732/732/732 731/731/731 729/729/729
f 732/732/732 733/733/733 731/731/731
f 734/734/734 733/733/733 732/732/732
f 734/734/734 735/735/735 733/733/733
f 734/734/734 736/736/736 735/735/735
f 737/737/737 736/736/736 734/734/734
f 737/737/737 738/738/738 736/736/736
f 737/737/737 739/739/739 738/738/738
f 740/740/740 739/739/739 737/737/737
f 740/740/740 741/741/741 739/739/739
f 740/740/740 742/742/742 741/741/741
f 743/743/743 742/742/742 740/740/740
f 744/744/744 742/742/742 743/743/743
f 745/745/745 742/742/742 744/744/744
f 745/745/745 746/746/746 742/742/742
f 747/747/747 746/746/746 745/745/745
g cPK_20_002450_00_MEWex_SR_L_SB_1
f 750/750/750 749/749/749 748/748/748
f 751/751/751 749/749/749 750/750/750
f 754/754/754 753/753/753 752/752/752
f 755/755/755 753/753/753 754/754/754
f 755/755/755 756/756/756 753/753/753
f 755/755/755 757/757/757 756/756/756
f 755/755/755 758/758/758 757/757/757
f 759/759/759 758/758/758 755/755/755
f 759/759/759 760/760/760 758/758/758
f 761/761/761 760/760/760 759/759/759
f 762/762/762 760/760/760 761/761/761
f 763/763/763 760/760/760 762/762/762
f 764/764/764 760/760/760 763/763/763
f 764/764/764 765/765/765 760/760/760
f 764/764/764 766/766/766 765/765/765
f 764/764/764 767/767/767 766/766/766
f 764/764/764 768/768/768 767/767/767
f 764/764/764 769/769/769 768/768/768
f 764/764/764 770/770/770 769/769/769
f 764/764/764 771/771/771 770/770/770
f 764/764/764 772/772/772 771/771/771
f 764/764/764 773/773/773 772/772/772
f 764/764/764 774/774/774 773/773/773
f 764/764/764 775/775/775 774/774/774
f 776/776/776 775/775/775 764/764/764
f 777/777/777 775/775/775 776/776/776
f 778/778/778 775/775/775 777/777/777
f 779/779/779 775/775/775 778/778/778
f 780/780/780 775/775/775 779/779/779
f 780/780/780 781/781/781 775/775/775
f 782/782/782 781/781/781 780/780/780
f 782/782/782 783/783/783 781/781/781
f 784/784/784 783/783/783 782/782/782
f 785/785/785 783/783/783 784/784/784
f 786/786/786 783/783/783 785/785/785
f 786/786/786 787/787/787 783/783/783
f 788/788/788 787/787/787 786/786/786
f 788/788/788 789/789/789 787/787/787
f 788/788/788 790/790/790 789/789/789
f 791/791/791 790/790/790 788/788/788
f 791/791/791 792/792/792 790/790/790
f 793/793/793 792/792/792 791/791/791
f 793/793/793 794/794/794 792/792/792
f 795/795/795 794/794/794 793/793/793
f 795/795/795 796/796/796 794/794/794
f 797/797/797 796/796/796 795/795/795
f 798/798/798 796/796/796 797/797/797
f 798/798/798 799/799/799 796/796/796
f 800/800/800 799/799/799 798/798/798
f 801/801/801 799/799/799 800/800/800
f 801/801/801 802/802/802 799/799/799
f 803/803/803 802/802/802 801/801/801
f 804/804/804 802/802/802 803/803/803
f 805/805/805 802/802/802 804/804/804
f 805/805/805 806/806/806 802/802/802
f 807/807/807 806/806/806 805/805/805
f 808/808/808 806/806/806 807/807/807
f 809/809/809 806/806/806 808/808/808
f 809/809/809 810/810/810 806/806/806
f 811/811/811 810/810/810 809/809/809
f 812/812/812 810/810/810 811/811/811
f 812/812/812 813/813/813 810/810/810
f 814/814/814 813/813/813 812/812/812
f 815/815/815 813/813/813 814/814/814
f 816/816/816 813/813/813 815/815/815
f 817/817/817 813/813/813 816/816/816
f 818/818/818 813/813/813 817/817/817
f 818/818/818 819/819/819 813/813/813
f 820/820/820 819/819/819 818/818/818
f 821/821/821 819/819/819 820/820/820
f 822/822/822 819/819/819 821/821/821
f 823/823/823 819/819/819 822/822/822
f 824/824/824 819/819/819 823/823/823
f 825/825/825 819/819/819 824/824/824
f 825/825/825 826/826/826 819/819/819
f 827/827/827 826/826/826 825/825/825
f 749/749/749 826/826/826 827/827/827
f 751/751/751 826/826/826 749/749/749
f 828/828/828 826/826/826 751/751/751
f 828/828/828 829/829/829 826/826/826
f 830/830/830 829/829/829 828/828/828
f 830/830/830 831/831/831 829/829/829
f 832/832/832 831/831/831 830/830/830
f 832/832/832 833/833/833 831/831/831
f 834/834/834 833/833/833 832/832/832
f 835/835/835 833/833/833 834/834/834
f 835/835/835 836/836/836 833/833/833
f 835/835/835 837/837/837 836/836/836
f 835/835/835 838/838/838 837/837/837
f 835/835/835 839/839/839 838/838/838
f 840/840/840 839/839/839 835/835/835
