g cPK_10_000410_00_WINDIEex_RR_L_SB
v -0.16371946 -0.035954524 -0.005727909
v -0.12502691 -0.035954524 -0.005727909
v -0.14116919 -0.022683537 -0.005727909
v 0.11637282 -0.008915472 -0.005727909
v 0.10780358 -0.007537043 -0.005727909
v 0.116718344 -0.035954572 -0.005727909
v 0.07988675 -0.03595456 -0.005727909
v 0.2025501 0.029786516 -0.005727909
v 0.18698776 0.048900705 -0.005727909
v 0.17615946 0.035340883 -0.005727909
v 0.19373277 0.12594782 -0.005727909
v 0.13537204 0.15678187 -0.005727909
v 0.15164995 0.12776177 -0.005727909
v 0.01623559 0.17167765 -0.005727909
v 0.01842997 0.15285678 -0.0074525434
v 0.047977805 0.15485345 -0.011267993
v -0.037243903 0.16297808 -0.005727909
v -0.007867932 0.15018594 -0.005727909
v -0.13368516 0.14012422 -0.005727909
v -0.12191363 0.12530003 -0.005727909
v -0.11175775 0.1314944 -0.005727909
v -0.15481474 0.09982035 -0.005727909
v -0.13699944 0.09072242 -0.005727909
v -0.1473029 0.011861372 -0.005727909
v -0.16335683 0.06547899 -0.005727909
v -0.14407448 0.046405405 -0.005727909
v -0.14360383 0.06146413 -0.005727909
v 0.1623036 0.025098098 -0.005727909
v 0.14481024 0.022252595 -0.005727909
v 0.112558894 -0.003017092 -0.005727909
v 0.21139143 0.0861484 -0.005727909
v 0.19103701 0.06739049 -0.005727909
v 0.18135183 0.10337361 -0.005727909
v 0.1886893 0.084500946 -0.005727909
v 0.16987729 0.11587725 -0.005727909
v -0.09337341 0.15560351 -0.005727909
v -0.08035435 0.14196692 -0.0076357275
v -0.072108224 0.12403559 -0.0057279086
v 0.076348856 0.17304091 -0.009692028
v 0.074058965 0.1535021 -0.011801703
v 0.10665405 0.14376271 -0.008873338
v 0.12775958 0.13809319 -0.005727909
v -0.055724382 0.13853675 -0.0067485757
v -0.032020748 0.14390467 -0.0062052435
v 0.131951 0.010307583 -0.005833181
v 0.14780718 0.010118432 -0.0058331825
v 0.14938861 0.024274213 -0.005911007
v 0.13206585 0.024305457 -0.00609133
v 0.12547939 0.024461584 -0.0061290064
v 0.1128109 0.013903377 -0.006823664
v 0.12612711 0.011198535 -0.005833181
v 0.124703504 0.046702072 -0.0075759105
v 0.09323623 0.048107654 -0.009984738
v 0.09536939 0.025175342 -0.009098447
v 0.12099546 0.1284085 -0.007020037
v 0.102694884 0.103043154 -0.009928971
v 0.13615333 0.09460312 -0.010079558
v 0.0952068 0.07915971 -0.010863723
v 0.12796558 0.071765736 -0.009852034
v 0.13318746 0.04598574 -0.0075394064
v 0.15005438 0.043666583 -0.008728168
v 0.15269832 0.1062923 -0.008780239
v 0.1586663 0.117012635 -0.0063411496
v 0.15102768 0.11797607 -0.0063411496
v 0.14490375 0.10835315 -0.008537318
v 0.13655357 0.06981151 -0.009852034
v 0.14506523 0.09258083 -0.010402513
v 0.17310463 0.10089705 -0.009827362
v 0.16340266 0.087933086 -0.010633751
v 0.15421817 0.06639604 -0.011162038
v 0.13393167 0.057898622 -0.008690246
v 0.15119742 0.055031326 -0.009913686
v 0.1253957 0.0592339 -0.008434727
v 0.09328266 0.06363369 -0.010503769
v 0.1636634 0.009929292 -0.0058331895
v 0.16671138 0.024242975 -0.0058331797
v 0.17343932 0.009812674 -0.005833195
v 0.17899488 0.11004931 -0.0066889706
v -0.06339613 0.084885575 -0.010687508
v -0.063223235 0.07019824 -0.009793951
v -0.039801374 0.06943204 -0.011011957
v -0.041745707 0.08613872 -0.012266677
v -0.05377075 0.11926253 -0.009095717
v -0.067370854 0.13384952 -0.008192691
v -0.07257789 0.12373715 -0.0082056355
v -0.068065666 0.10886829 -0.0103654945
v -0.04757792 0.10705649 -0.011206832
v -0.09278371 0.019211527 -0.007837041
v -0.08643685 0.036176495 -0.008350387
v -0.106274836 0.017587474 -0.008382213
v -0.116068065 0.013927448 -0.008382211
v -0.10856439 0.026100485 -0.008382223
v -0.06532131 0.050063975 -0.008911538
v -0.040322278 0.045895472 -0.009648102
v -0.069624744 0.03887134 -0.008261937
v -0.045312002 0.030894741 -0.008911536
v -0.07859061 0.021317933 -0.007715618
v -0.05261081 0.021055298 -0.008574696
v -0.08905267 0.12772886 -0.008206084
v -0.08197312 0.11067448 -0.01207437
v -0.07654872 0.08488386 -0.012764479
v -0.076582596 0.06931888 -0.011718104
v -0.080388054 0.050613888 -0.008828439
v -0.102310024 0.034655374 -0.009551496
v -0.11769428 0.018653963 -0.008382223
v -0.12667145 0.010469849 -0.00838221
v -0.12745513 0.012620849 -0.008382217
v -0.13396151 0.008166925 -0.00838221
v 0.06419289 0.024102787 -0.010232158
v 0.063306324 0.00295439 -0.010232158
v 0.081562154 0.031855848 -0.0102211675
v 0.13918225 0.061022907 -0.009842308
v 0.1290416 0.05260591 -0.008901866
v 0.1330256 0.03673498 -0.008291393
v 0.15259832 0.055651784 -0.01198791
v 0.02383853 0.057552308 -0.012245029
v 0.01322874 0.046087887 -0.011208902
v 0.040167324 0.048001017 -0.011391146
v 0.13297883 0.06164357 -0.009619653
v 0.0940986 0.037330586 -0.010116256
v 0.09740009 0.019880263 -0.009681423
v 0.11502333 0.0429804 -0.008522989
v 0.11951231 0.05993712 -0.009243942
v 0.10495553 0.061259516 -0.010665249
v 0.07999631 0.05546161 -0.011147069
v 0.076291166 0.054923784 -0.0111417575
v 0.012308471 0.07177725 -0.012660983
v 0.046884965 0.06561913 -0.012337553
v 0.025887728 0.08607712 -0.013453928
v 0.06322467 0.08861847 -0.012764982
v 0.036376476 0.09328866 -0.013710297
v 0.121594265 0.020708097 -0.005727909
v 0.028538465 -0.035954535 -0.005727909
v 0.058178045 0.063544124 -0.011622051
v 0.023222256 0.032704618 -0.009844283
v 0.09952047 0.03126517 -0.008543387
v 0.113315605 0.07575431 -0.0095233265
v -0.021404792 0.10228469 -0.013234896
v -0.029082848 0.076371945 -0.011613488
v -0.012056182 0.0691288 -0.013023049
v 0.006427002 0.061496466 -0.01096138
v -0.049236786 0.10468366 -0.010510901
v -0.037470452 0.087223105 -0.01227691
v 0.07072909 0.025026977 -0.009538482
v 0.08848312 -0.0028047324 -0.008338858
v 0.08595586 0.08248281 -0.0113209775
v 0.01143291 0.09886423 -0.013227633
v -0.011879444 0.13599089 -0.009425354
v -0.05453464 0.12665741 -0.008334497
v -0.031307198 -0.035954535 -0.005727909
v -0.036280345 0.038462814 -0.008895657
v -0.059793927 0.066294804 -0.008820389
v 0.017441679 0.14523071 -0.010278358
v -0.06891101 0.11524115 -0.009027207
v 0.18174009 0.083285324 -0.01180195
v 0.19181257 0.096142076 -0.01072628
v 0.17188273 0.062980585 -0.012307358
v 0.16846317 0.052164014 -0.011379411
v 0.16692132 0.041347418 -0.01006456
v 0.19932349 0.10308597 -0.007702513
v -0.10295309 0.13021266 -0.009231656
v -0.09588059 0.11248063 -0.0144229205
v -0.08970132 0.08488218 -0.015394534
v -0.0906462 0.06867435 -0.014716953
v -0.09204411 0.056620866 -0.012886948
v -0.093830206 0.04925396 -0.011798801
v 0.063810356 0.06726845 -0.014959233
v 0.09153018 0.063384354 -0.013830313
v 0.041368548 0.085627586 -0.015963295
v 0.32873315 -0.04861857 -0.009447268
v 0.34201622 -0.03449485 -0.0094153825
v 0.32889387 -0.025864908 -0.011462978
v 0.31892887 -0.03668076 -0.011850346
v 0.3471868 -0.018808318 -0.0094153825
v 0.33203432 -0.014897986 -0.011545819
v 0.30765933 -0.05695036 -0.010392333
v 0.30690685 -0.04163263 -0.012076196
v 0.27823913 -0.049061876 -0.011965769
v 0.29209334 -0.055003215 -0.011180404
v 0.29622632 -0.039829943 -0.012297712
v 0.28554577 -0.03460366 -0.012888283
v 0.22081554 -0.020551402 -0.013150922
v 0.23718451 -0.028293718 -0.01329034
v 0.24352446 -0.015525184 -0.0144266905
v 0.22651124 -0.008439204 -0.013710642
v 0.18294759 0.00523537 -0.007554163
v 0.18878041 0.01840796 -0.007770589
v 0.17750455 0.024223508 -0.005833186
v 0.23731716 0.086385176 -0.011428854
v 0.24865209 0.08021055 -0.01222328
v 0.24163134 0.10048312 -0.010838173
v 0.3102226 0.026295483 -0.012471537
v 0.32182264 0.010235495 -0.011970392
v 0.33436012 0.018153626 -0.010855015
v 0.32069454 0.03579163 -0.011670823
v 0.33069548 -0.005337657 -0.011628323
v 0.34357077 -0.000112167516 -0.009966514
v 0.2590893 -0.040156495 -0.01326105
v 0.26394182 -0.026905322 -0.013879632
v 0.21591596 0.0006581097 -0.013166529
v 0.20712869 -0.011001796 -0.012104641
v 0.22093587 -0.004445996 -0.013280019
v 0.20005624 0.01328672 -0.00973005
v 0.19245584 0.0006580683 -0.0093371
v 0.20854154 0.007008239 -0.011735369
v 0.2941812 0.04285132 -0.0129938945
v 0.30400795 0.054454565 -0.012356463
v 0.27172697 0.06464472 -0.013136915
v 0.28136164 0.075487964 -0.01251331
v 0.21091735 0.098906934 -0.008772232
v 0.22108118 0.09416269 -0.009820046
v 0.21604632 0.11267858 -0.008772232
v 0.18317734 0.12374003 -0.0062338384
v 0.16322635 0.12999488 -0.005889069
v 0.14519238 0.13295461 -0.005853038
v 0.25998697 0.07403593 -0.012832889
v 0.26676193 0.08689088 -0.012291111
v 0.20619836 0.116138175 -0.0077874125
v -0.28407285 -0.0217719 -0.008896695
v -0.2674581 -0.02565595 -0.008697919
v -0.26547226 -0.007856278 -0.010179517
v -0.27487442 -0.0060364655 -0.010221443
v -0.31661135 0.026095225 -0.008369472
v -0.3097998 0.0060295146 -0.0088424375
v -0.2958017 0.017013764 -0.0101811085
v -0.30065435 0.033391576 -0.010246328
v -0.31646904 0.04943162 -0.00811371
v -0.298228 0.04794969 -0.010174838
v -0.29953477 -0.010331048 -0.009076613
v -0.2870766 0.004660907 -0.01020339
v -0.25273404 -0.007553007 -0.010638422
v -0.2505203 -0.02348719 -0.008687342
v -0.21815856 0.0006359092 -0.011570991
v -0.22847049 0.0012424736 -0.0114119975
v -0.2258255 -0.01599196 -0.0090942485
v -0.17960164 -0.008891249 -0.010700525
v -0.18479635 0.007308355 -0.011978723
v -0.19329403 0.004145628 -0.011918218
v -0.17300501 0.012987107 -0.011865593
v -0.16806823 -0.0025276009 -0.009830753
v -0.24816667 0.12015263 -0.010969161
v -0.26951644 0.10492873 -0.010078701
v -0.26183477 0.09078148 -0.01217335
v -0.23942403 0.105967976 -0.013079392
v -0.28687266 0.09142514 -0.009631689
v -0.30857566 0.068507716 -0.008789247
v -0.28912914 0.06463077 -0.01045468
v -0.274782 0.07968345 -0.011423892
v -0.19762558 0.14758085 -0.012390171
v -0.22346313 0.13514827 -0.011824808
v -0.21554697 0.12057898 -0.014106445
v -0.18964906 0.13287172 -0.014807381
v -0.16954136 0.1537202 -0.01225813
v -0.1672054 0.13833098 -0.014590456
v -0.14858952 0.13960624 -0.013524273
v -0.10916751 0.14794983 -0.008984718
v -0.12886344 0.15343416 -0.010412451
v -0.12947428 0.1368865 -0.011968074
v -0.11362665 0.13277215 -0.010252616
v -0.08630253 0.14221078 -0.007718246
v -0.20093809 -0.012441604 -0.010390135
v -0.15217133 0.021376384 -0.010733593
v -0.16101108 0.021096243 -0.011209923
v -0.15653484 0.0038360234 -0.008781085
v -0.14603443 0.005458261 -0.008327338
v -0.14627813 0.021563105 -0.0105441855
v -0.13885695 0.022973986 -0.010559809
v -0.20207904 0.0021534946 -0.011910989
v -0.12069996 0.02620819 -0.009888153
v -0.13163827 0.024992548 -0.010672841
v -0.12187252 0.029240418 -0.01137201
v -0.113160074 0.034845084 -0.012232193
v -0.109940246 0.029770857 -0.009699167
v -0.10694059 0.04091092 -0.013098075
v 0.037571326 0.3457049 -0.010862294
v 0.035145346 0.3326305 -0.012613289
v 0.058715202 0.3353004 -0.01355024
v 0.20282976 0.19168335 -0.01560112
v 0.19486366 0.18561332 -0.016554022
v 0.20225301 0.17258401 -0.0138358055
v 0.21245663 0.18316278 -0.012939083
v 0.010492084 0.35182258 -0.010689705
v 0.018194178 0.33954677 -0.01205246
v 0.0021810986 0.32893354 -0.011615654
v -0.08302253 0.30857006 -0.010199628
v -0.07047118 0.3054615 -0.010882249
v -0.06681899 0.30929253 -0.010921998
v -0.07369639 0.3210473 -0.010199628
v -0.0897563 0.25830722 -0.008023585
v -0.11026942 0.25939748 -0.0072833407
v -0.095014594 0.23972104 -0.008235933
v -0.0897435 0.17054637 -0.006100639
v -0.11932832 0.1775596 -0.0059969476
v -0.10493436 0.15913957 -0.0064271586
v -0.057659637 0.1320465 -0.008959427
v -0.06286266 0.1489657 -0.0079078
v -0.080081455 0.14047922 -0.008657798
v 0.19035262 0.12699749 -0.008895765
v 0.20210409 0.10475024 -0.008543824
v 0.20550798 0.12654957 -0.008685958
v 0.21143015 0.23481677 -0.016337449
v 0.22166911 0.2227339 -0.014201743
v 0.23323838 0.2240306 -0.011669639
v 0.21919854 0.24159065 -0.013600257
v 0.17258646 0.2613655 -0.022123883
v 0.19078748 0.2665846 -0.019973338
v 0.18106137 0.28472793 -0.017983416
v 0.14195131 0.32927072 -0.014433578
v 0.14432828 0.34788764 -0.0125325415
v 0.13026701 0.34873527 -0.012290549
v 0.06807981 0.35511327 -0.013102588
v 0.07485354 0.3411247 -0.013331132
v 0.10498629 0.33561537 -0.014606649
v 0.102713846 0.3503991 -0.013348472
v -0.078761 0.28012845 -0.008995207
v -0.056215893 0.1604448 -0.008109026
v -0.030193929 0.12732826 -0.010176309
v -0.04479386 0.1311122 -0.00909458
v -0.0571572 0.12016089 -0.011208902
v -0.04039452 0.13356394 -0.009931271
v -0.042030398 0.14198115 -0.009213038
v 0.15113476 0.07052026 -0.01186122
v 0.14771694 0.07601105 -0.01123215
v 0.14326878 0.069687925 -0.0111092655
v 0.1720515 0.17567617 -0.016291132
v 0.17563199 0.16788436 -0.014835218
v 0.18864632 0.17102453 -0.013717172
v 0.22146247 0.21781905 -0.014121207
v 0.21032646 0.20128088 -0.014741805
v 0.22099748 0.19497685 -0.012141417
v 0.23196962 0.21287702 -0.011621126
v 0.19835539 0.24581175 -0.019078994
v 0.20557678 0.25455722 -0.016135592
v 0.1926368 0.24748614 -0.020241559
v 0.17776103 0.25591204 -0.022277132
v 0.17930102 0.24748953 -0.02196945
v 0.115730755 0.32719424 -0.015604406
v 0.12670678 0.32232478 -0.015832547
v 0.14414267 0.30676284 -0.017159436
v 0.14839026 0.3089594 -0.016994392
v 0.16775745 0.26410636 -0.022166694
v 0.1903918 0.13164628 -0.008988461
v 0.17607433 0.13309975 -0.013097161
v -0.0949853 0.22073029 -0.00797058
v -0.12033462 0.21876355 -0.006718654
v -0.10506853 0.20372951 -0.007426598
v 0.17912917 0.08229399 -0.012438374
v 0.19061662 0.093522124 -0.012065108
v 0.16789828 0.093777604 -0.011326006
v 0.147623 0.30521482 -0.017233878
v 0.16098915 0.31874526 -0.014710306
v 0.15714583 0.2934405 -0.01861797
v 0.16427568 0.2790573 -0.020140862
v 0.17012128 0.30519053 -0.016460111
v -0.006014695 0.31232563 -0.012218836
v -0.03655228 0.3276318 -0.010561707
v 0.0020139955 0.31022546 -0.012868962
v 0.020954937 0.31061837 -0.01289267
v -0.037499934 0.31310746 -0.011195211
v 0.18049268 0.2409799 -0.021701902
v 0.18789035 0.24634683 -0.021039987
v 0.13612096 0.31709462 -0.016247159
v 0.09212317 0.32744786 -0.014899521
v 0.10016858 0.3272166 -0.015119604
v 0.070610516 0.33104178 -0.013900356
v 0.05440562 0.32594922 -0.013557962
v 0.18342005 0.15592675 -0.012027755
v 0.1780424 0.1581828 -0.013429663
v 0.18425594 0.14424053 -0.010703317
v 0.18643998 0.18522581 -0.017659975
v 0.17897487 0.18915485 -0.019112814
v 0.1720515 0.17567617 -0.016291132
v 0.20357807 0.14638719 -0.010955095
v 0.18125258 0.12509607 -0.009827005
v 0.18755525 0.1121251 -0.007709949
v 0.13838482 0.06669092 -0.010677304
v 0.15913711 0.09570376 -0.01077347
v 0.16608118 0.1100541 -0.0093959635
v 0.17280588 0.113235705 -0.009083618
v 0.008615396 0.087375164 -0.014160859
v -0.0031443716 0.075376585 -0.013554173
v -0.0116245765 0.09970087 -0.013919473
v -0.016838947 0.12684405 -0.011208913
v -0.030799234 0.11101152 -0.01274314
v -0.051199313 0.24077883 -0.010498761
v -0.08392686 0.19227678 -0.008857247
v -0.05922989 0.20156439 -0.013507876
v -0.06261084 0.2629615 -0.009185257
v -0.05115838 0.26920912 -0.010630897
v -0.061999638 0.28705 -0.010294921
v -0.07832471 0.21643148 -0.010099063
v -0.0908195 0.1871808 -0.008371158
v -0.14666092 0.17798014 -0.00612733
v 0.004878418 0.1110661 -0.0134627465
v 0.16496566 0.102091864 -0.010383925
v 0.31011912 0.008487797 -0.01667501
v 0.3217121 -0.0034168889 -0.0145915095
v 0.20576937 0.02281488 -0.014959407
v 0.27181196 0.044385966 -0.0192954
v 0.29467386 0.022543145 -0.018211482
v 0.30751738 -0.009721896 -0.016813386
v 0.3002577 -0.021834569 -0.016485352
v 0.3095933 -0.029257668 -0.015032356
v 0.31820562 -0.0177934 -0.015090021
v 0.26685345 0.018395903 -0.019645527
v 0.26103172 0.0034256477 -0.019229302
v 0.28398222 -0.0119857015 -0.018602287
v 0.29107913 0.0013703494 -0.01927347
v 0.29226825 -0.030991895 -0.015623269
v 0.29958755 -0.036312263 -0.014120752
v 0.2527149 -0.008217797 -0.017915606
v 0.27558205 -0.022148252 -0.017265335
v 0.21829653 0.090809874 -0.011545577
v 0.19259576 0.04253007 -0.014097399
v 0.21276982 0.033343866 -0.016648132
v 0.21934485 0.04495786 -0.017405618
v 0.19715442 0.053787287 -0.014866987
v 0.22997971 0.06756974 -0.01624601
v 0.20858148 0.07463579 -0.014494426
v 0.19172856 0.080200896 -0.012868404
v 0.20343529 0.09375759 -0.011173724
v 0.18085074 0.06027442 -0.013184569
v 0.17750493 0.04940164 -0.012299484
v 0.17650622 0.03852887 -0.011133793
v 0.24409096 0.061308183 -0.01740448
v 0.25776675 0.05395795 -0.018481348
v 0.23437987 0.036703356 -0.019417686
v 0.24941488 0.028448854 -0.020584747
v 0.24358808 0.015591877 -0.020062512
v 0.22817893 0.024467872 -0.018672395
v 0.23558898 0.0031693594 -0.018756205
v 0.22298002 0.011476287 -0.017601976
v 0.19007407 0.03124308 -0.012869655
v -0.18819986 0.11162237 -0.023599615
v -0.18408623 0.08416704 -0.025571799
v -0.16434275 0.08864187 -0.02539136
v -0.16748516 0.11547927 -0.02310239
v -0.21046741 0.07481267 -0.02597881
v -0.2161339 0.10170668 -0.023898814
v -0.24449837 0.02165941 -0.021391863
v -0.271603 0.008566993 -0.017869676
v -0.23755522 0.011233482 -0.019128526
v -0.25990587 0.068329826 -0.021767972
v -0.28795466 0.046821825 -0.017243518
v -0.17643319 0.0552316 -0.023408389
v -0.20215933 0.044681203 -0.025305597
v -0.25300422 0.045134924 -0.02294004
v -0.15627201 0.036603052 -0.020449473
v -0.2825476 0.028195634 -0.018295346
v -0.2214595 0.03418998 -0.024752598
v -0.23101036 0.061804302 -0.025286043
v -0.23730803 0.08803265 -0.023211615
v -0.16901535 0.03604712 -0.020371705
v -0.21279132 0.017359633 -0.02088692
v -0.26276466 -0.0013682912 -0.01573419
v -0.16098905 0.058482822 -0.02378099
v -0.14898032 0.118015766 -0.021767827
v -0.12848091 0.11811576 -0.019834874
v -0.14610314 0.09173092 -0.024046987
v -0.12614468 0.0934309 -0.022365177
v -0.12189182 0.06494686 -0.020968398
v -0.1418531 0.062097557 -0.022827217
v -0.117483675 0.046407994 -0.017990176
v -0.13704793 0.040584717 -0.019920448
v -0.1162649 0.11632413 -0.018159175
v -0.110098556 0.090509064 -0.019947266
v -0.10297703 0.11340225 -0.01571939
v -0.110480525 0.06619652 -0.01921284
v -0.09706911 0.06837992 -0.016085355
v -0.09666167 0.08488135 -0.016748192
v -0.10199728 0.048252936 -0.01425497
v -0.09931004 0.05656417 -0.015259131
v -0.19486724 0.02413456 -0.021368036
v 0.02497902 0.30506092 -0.014563242
v 0.18385483 0.22242613 -0.020794664
v 0.08998344 0.0841063 -0.016272211
v 0.078473344 0.060899626 -0.013735907
v -0.028478894 0.25115865 -0.012186105
v -0.040533405 0.25724703 -0.011585391
v 0.118253924 0.25502983 -0.022701135
v 0.10452572 0.26618332 -0.022078557
v 0.10063312 0.25339898 -0.022503724
v 0.03381167 0.24018264 -0.016346155
v 0.02124019 0.2515246 -0.015215752
v 0.007904164 0.23079489 -0.0179703
v 0.15087931 0.09442156 -0.013802837
v -0.03115425 0.1979595 -0.01645794
v -0.029818168 0.22452708 -0.015576685
v 0.09231471 0.272746 -0.02136738
v 0.082805745 0.25322196 -0.021736875
v 0.06967624 0.2813917 -0.0194341
v 0.05551486 0.28275594 -0.017707935
v 0.044744562 0.2621101 -0.017744055
v 0.058310032 0.254619 -0.019627232
v 0.03283219 0.2722316 -0.01564839
v 0.019860417 0.26942056 -0.015634788
v -0.053249646 0.3039062 -0.0125532
v -0.03345955 0.27572995 -0.01097739
v -0.015047965 0.30119678 -0.011908911
v -0.020522535 0.27011144 -0.011315392
v -0.0045361407 0.29715523 -0.012317207
v -0.057945102 0.25396052 -0.010779086
v 0.19799758 0.22277342 -0.017282978
v 0.18330507 0.20288621 -0.019735439
v 0.19786695 0.20149839 -0.01665523
v 0.13370197 0.31210855 -0.018958373
v 0.13905597 0.3064493 -0.01937907
v 0.1192261 0.2998417 -0.021546623
v 0.107586496 0.32801524 -0.01778771
v 0.101952255 0.30255115 -0.02134795
v 0.07721911 0.3320449 -0.016540617
v 0.07097726 0.32495993 -0.016498802
v 0.060327113 0.32762668 -0.015972808
v 0.054364152 0.31902033 -0.015864028
v 0.023051094 0.33105353 -0.014187566
v 0.1546935 0.28572088 -0.021371458
v 0.07659717 0.08911314 -0.017031962
v 0.05335045 0.10317955 -0.017533932
v 0.06321089 0.09411999 -0.017472625
v -0.0046265493 0.13369603 -0.015329758
v 0.013944799 0.11829469 -0.016185442
v 0.017802872 0.1478348 -0.01749676
v 0.1677999 0.17181434 -0.018063456
v 0.16071896 0.16105734 -0.017176632
v 0.1711595 0.15972589 -0.01600171
v 0.17535333 0.144603 -0.013885054
v 0.15358846 0.14548925 -0.016476626
v 0.15411997 0.107741795 -0.013840598
v 0.14740866 0.12684241 -0.016162312
v 0.14099127 0.11458104 -0.016197404
v 0.12616499 0.06745263 -0.011789783
v 0.14017811 0.08214518 -0.013038156
v 0.1449229 0.29093352 -0.021793565
v 0.14440998 0.30079004 -0.019799773
v -0.024266653 0.16374338 -0.014953378
v -0.021564772 0.14895907 -0.014747784
v 0.011921731 0.1670218 -0.017468935
v -0.09028151 0.17886358 -0.009199395
v -0.05534765 0.22052184 -0.013310633
v -0.006629951 0.24924119 -0.013401843
v 0.013362556 0.21522415 -0.019743115
v -0.057642 0.17990054 -0.012800551
v 0.14089729 0.13312803 -0.020699514
v 0.13454826 0.1245227 -0.020003114
v 0.11968457 0.12488836 -0.021576246
v 0.1274429 0.13512003 -0.022078523
v 0.10147601 0.14495645 -0.0230649
v 0.09378685 0.13237052 -0.022471374
v 0.06901856 0.15872301 -0.020769177
v 0.062431812 0.14976661 -0.021353457
v 0.043560043 0.19222602 -0.018498534
v 0.0215954 0.19292279 -0.018549696
v 0.04168388 0.17244147 -0.019716699
v 0.050617635 0.17839037 -0.019379402
v 0.12833829 0.19710676 -0.02296944
v 0.13494526 0.2178357 -0.02500899
v 0.12736611 0.22316717 -0.025928631
v 0.15995671 0.21538539 -0.023956178
v 0.14742783 0.21939003 -0.024679815
v 0.14903502 0.20339237 -0.02092258
v 0.06000026 0.19799185 -0.01932171
v 0.13053314 0.1051928 -0.015917504
v 0.1225965 0.10697444 -0.018384943
v 0.11285173 0.09304816 -0.015809545
v 0.10722418 0.10696801 -0.019324291
v 0.08032369 0.11337411 -0.02004168
v 0.051603425 0.1343621 -0.019677965
v 0.03725137 0.11798479 -0.017337529
v 0.031511873 0.16494657 -0.018678084
v 0.16990297 0.18097259 -0.02107629
v 0.1567483 0.16265409 -0.020274047
v 0.108503126 0.15881874 -0.015558223
v 0.076982744 0.16947608 -0.016843447
v 0.09014257 0.18724799 -0.017878119
v 0.16761333 0.20553224 -0.022224197
v 0.13836966 0.14780043 -0.016899038
v 0.1464827 0.16678187 -0.018192396
v 0.122892 0.17557488 -0.016245151
v 0.16610974 0.19017991 -0.019211626
v 0.14668727 0.14595586 -0.020011676
v 0.17198655 0.1897705 -0.022205323
v 0.16916405 0.20526154 -0.023541784
v 0.15046374 0.23292795 -0.028044915
v 0.12837552 0.22845721 -0.02733445
v 0.15538844 0.25158986 -0.027663961
v 0.16806473 0.2264552 -0.02640829
v 0.17383432 0.24420185 -0.026257182
v 0.17884797 0.21782677 -0.02453366
v 0.17876998 0.20358737 -0.022723734
v 0.17773966 0.22666223 -0.024837932
v 0.17675984 0.194496 -0.022420047
v 0.13982727 0.25523084 -0.026140952
v 0.13593437 0.26187035 -0.023669636
v 0.12131935 0.24802135 -0.025936294
v 0.098178476 0.2165598 -0.025359808
v 0.10637945 0.20918007 -0.023038656
v 0.042408388 0.20217179 -0.020566422
v 0.097520836 0.23940961 -0.025316035
v 0.097568326 0.24546058 -0.022882795
v 0.077042095 0.24185732 -0.021767432
v 0.0736907 0.23500775 -0.023577452
v 0.03520585 0.22830641 -0.020687116
v 0.060326587 0.20653549 -0.022115951
v 0.121174335 0.21522276 -0.024149274
v 0.054340553 0.23143005 -0.022174016
v 0.019164743 0.09879352 -0.016330449
v -0.029630309 0.18553495 -0.016067771
v 0.003809408 0.1934881 -0.017615607
v 0.0086321505 0.17775409 -0.018253023
v 0.15960974 0.2656681 -0.02304096
v 0.14815204 0.26326886 -0.02340138
v 0.11843654 0.26367778 -0.023704309
v 0.104040526 0.27304003 -0.023558695
v 0.08473214 0.30548078 -0.020642256
v 0.090904646 0.27952486 -0.022892952
v 0.064930156 0.3069285 -0.019162238
v 0.06852307 0.28713548 -0.020670159
v 0.053956714 0.30755967 -0.018340765
v 0.055208575 0.28889927 -0.019214967
v 0.038128313 0.3089602 -0.016845692
v 0.035484407 0.29004848 -0.016503943
v 0.035786908 0.32585558 -0.014816052
v 0.10063108 0.3206426 -0.017657498
v 0.09006117 0.3215886 -0.017144198
v 0.12507325 0.3170826 -0.018608648
v 0.11660965 0.31999794 -0.018261848
v 0.14845258 0.29597577 -0.020346308
v 0.15785213 0.26002142 -0.02703367
v 0.1500336 0.25812453 -0.026275164
v 0.17625536 0.25140116 -0.025659082
v 0.16758968 0.25672087 -0.026749779
v 0.05224656 0.23975459 -0.019083023
v 0.16704462 0.18651398 -0.02181068
v 0.16795418 0.19049728 -0.022317221
v 0.1689021 0.19626199 -0.022829209
v -0.011638514 0.30703637 -0.014054465
v -0.00078054436 0.30306745 -0.014534647
v 0.0137533145 0.28530088 -0.015524909
v 0.019814285 0.29300258 -0.014196125
v 0.011594859 0.2813564 -0.013807773
v 0.004411691 0.26810607 -0.01319681
v 0.0026247795 0.26480988 -0.014920609
v -0.022674082 0.2652956 -0.013720038
v -0.03627991 0.27124617 -0.013401197
v -0.024866145 0.17332739 -0.015749777
v -0.06188471 0.16742758 -0.010920501
v 0.17702922 0.11929132 -0.011774868
v 0.16413182 0.11460401 -0.012684347
v 0.1039987 0.067736305 -0.012836769
vt 0.4309082 0.31176758
vt 0.38671875 0.31176758
vt 0.40527344 0.3269043
vt 0.11212158 0.34277344
vt 0.12188721 0.34423828
vt 0.111694336 0.31201172
vt 0.15368652 0.31201172
vt 0.014587402 0.38720703
vt 0.0317688 0.40844727
vt 0.0440979 0.3930664
vt 0.025238037 0.49414062
vt 0.091918945 0.52783203
vt 0.07196045 0.49780273
vt 0.22607422 0.5473633
vt 0.22351074 0.5263672
vt 0.1899414 0.5283203
vt 0.2866211 0.5366211
vt 0.25341797 0.5229492
vt 0.39648438 0.51171875
vt 0.38330078 0.49487305
vt 0.37158203 0.5019531
vt 0.4182129 0.46533203
vt 0.40039062 0.4555664
vt 0.41210938 0.36621094
vt 0.42944336 0.42700195
vt 0.40844727 0.40527344
vt 0.40795898 0.42236328
vt 0.05984497 0.38134766
vt 0.07977295 0.37817383
vt 0.11645508 0.34936523
vt 0.0070533752 0.44970703
vt 0.027160645 0.42944336
vt 0.03817749 0.47021484
vt 0.029830933 0.44873047
vt 0.051239014 0.484375
vt 0.35058594 0.5292969
vt 0.3359375 0.5136719
vt 0.32641602 0.4934082
vt 0.15783691 0.54833984
vt 0.16027832 0.52685547
vt 0.12359619 0.5151367
vt 0.099121094 0.50927734
vt 0.30786133 0.5097656
vt 0.28100586 0.5161133
vt 0.6665039 0.5649414
vt 0.6484375 0.5644531
vt 0.6459961 0.5805664
vt 0.6660156 0.5805664
vt 0.67333984 0.5810547
vt 0.6879883 0.56884766
vt 0.67285156 0.56591797
vt 0.6743164 0.6064453
vt 0.7104492 0.60791016
vt 0.7080078 0.58203125
vt 0.67871094 0.7006836
vt 0.69970703 0.6713867
vt 0.6616211 0.6616211
vt 0.7084961 0.6435547
vt 0.67089844 0.6352539
vt 0.66503906 0.60546875
vt 0.6455078 0.60302734
vt 0.64208984 0.6743164
vt 0.6352539 0.6855469
vt 0.64404297 0.68896484
vt 0.6513672 0.6767578
vt 0.6611328 0.6333008
vt 0.6513672 0.6591797
vt 0.61865234 0.6669922
vt 0.6298828 0.6538086
vt 0.640625 0.62939453
vt 0.6640625 0.6191406
vt 0.64404297 0.61621094
vt 0.6738281 0.62060547
vt 0.7104492 0.62597656
vt 0.6303711 0.5644531
vt 0.62646484 0.5805664
vt 0.6191406 0.5644531
vt 0.6118164 0.6777344
vt 0.66503906 0.85058594
vt 0.66503906 0.8334961
vt 0.6381836 0.83251953
vt 0.6401367 0.8520508
vt 0.6542969 0.8901367
vt 0.6699219 0.9067383
vt 0.67578125 0.89501953
vt 0.67041016 0.8779297
vt 0.64697266 0.87597656
vt 0.69873047 0.77490234
vt 0.69140625 0.7939453
vt 0.71435547 0.7729492
vt 0.72558594 0.76904297
vt 0.7167969 0.7817383
vt 0.66748047 0.8105469
vt 0.6386719 0.80566406
vt 0.6723633 0.7973633
vt 0.64453125 0.7885742
vt 0.6826172 0.77734375
vt 0.65283203 0.77734375
vt 0.69433594 0.89941406
vt 0.68652344 0.8798828
vt 0.6801758 0.85058594
vt 0.6801758 0.83251953
vt 0.6845703 0.81103516
vt 0.70947266 0.7919922
vt 0.7270508 0.7739258
vt 0.73779297 0.7651367
vt 0.73876953 0.7675781
vt 0.74609375 0.7626953
vt 0.26245117 0.57666016
vt 0.26367188 0.5527344
vt 0.24267578 0.5859375
vt 0.17687988 0.6196289
vt 0.18847656 0.6098633
vt 0.18408203 0.5913086
vt 0.16174316 0.61376953
vt 0.3088379 0.6152344
vt 0.32080078 0.6020508
vt 0.29003906 0.6040039
vt 0.18383789 0.62060547
vt 0.22839355 0.59228516
vt 0.22460938 0.5727539
vt 0.2043457 0.5986328
vt 0.19934082 0.61816406
vt 0.21594238 0.6196289
vt 0.24450684 0.61328125
vt 0.24865723 0.6123047
vt 0.32202148 0.63134766
vt 0.2824707 0.6245117
vt 0.30639648 0.6479492
vt 0.17248535 0.45336914
vt 0.203125 0.45874023
vt 0.10620117 0.37646484
vt 0.21203613 0.31201172
vt 0.17834473 0.42504883
vt 0.21813965 0.38989258
vt 0.13134766 0.38842773
vt 0.11553955 0.4387207
vt 0.26879883 0.46875
vt 0.2775879 0.43945312
vt 0.2578125 0.43164062
vt 0.23718262 0.42260742
vt 0.30029297 0.47143555
vt 0.2866211 0.45166016
vt 0.1640625 0.38134766
vt 0.14379883 0.34960938
vt 0.14660645 0.44628906
vt 0.23156738 0.46484375
vt 0.25805664 0.50683594
vt 0.30639648 0.4963379
vt 0.28027344 0.31201172
vt 0.28588867 0.39648438
vt 0.3125 0.42797852
vt 0.22473145 0.5175781
vt 0.32299805 0.48339844
vt 0.6088867 0.6484375
vt 0.59716797 0.6611328
vt 0.6201172 0.6254883
vt 0.62402344 0.61279297
vt 0.62597656 0.60058594
vt 0.5888672 0.6699219
vt 0.7104492 0.90234375
vt 0.7026367 0.88183594
vt 0.6953125 0.85058594
vt 0.69677734 0.83203125
vt 0.6982422 0.8178711
vt 0.7001953 0.80908203
vt 0.26293945 0.62646484
vt 0.23132324 0.6225586
vt 0.28857422 0.64746094
vt 0.43896484 0.49609375
vt 0.42407227 0.5126953
vt 0.43945312 0.5229492
vt 0.45092773 0.5107422
vt 0.41723633 0.5307617
vt 0.43579102 0.53564453
vt 0.46362305 0.48657227
vt 0.46484375 0.50439453
vt 0.4975586 0.49560547
vt 0.4814453 0.48876953
vt 0.47705078 0.50683594
vt 0.48950195 0.5126953
vt 0.5644531 0.5292969
vt 0.54541016 0.52001953
vt 0.53808594 0.53466797
vt 0.5576172 0.54296875
vt 0.60839844 0.55908203
vt 0.6015625 0.57373047
vt 0.61376953 0.5805664
vt 0.5449219 0.65234375
vt 0.53222656 0.64501953
vt 0.54052734 0.6689453
vt 0.46118164 0.5830078
vt 0.4477539 0.5644531
vt 0.43310547 0.57373047
vt 0.44873047 0.5942383
vt 0.43725586 0.546875
vt 0.42211914 0.5527344
vt 0.52001953 0.50634766
vt 0.51464844 0.5214844
vt 0.5703125 0.55371094
vt 0.5800781 0.54052734
vt 0.5644531 0.5473633
vt 0.5888672 0.5678711
vt 0.59716797 0.55371094
vt 0.57910156 0.5605469
vt 0.4794922 0.6020508
vt 0.46801758 0.61572266
vt 0.5053711 0.6274414
vt 0.49438477 0.63964844
vt 0.5751953 0.66503906
vt 0.56396484 0.66015625
vt 0.5708008 0.68115234
vt 0.60791016 0.6933594
vt 0.6303711 0.7001953
vt 0.6508789 0.7055664
vt 0.51904297 0.6381836
vt 0.51123047 0.65283203
vt 0.58203125 0.6850586
vt 0.91845703 0.72802734
vt 0.89941406 0.7236328
vt 0.89697266 0.7441406
vt 0.90771484 0.74609375
vt 0.9555664 0.78271484
vt 0.9477539 0.7597656
vt 0.9316406 0.77246094
vt 0.9375 0.7915039
vt 0.9555664 0.8095703
vt 0.9345703 0.80810547
vt 0.93603516 0.74121094
vt 0.921875 0.7583008
vt 0.8823242 0.7441406
vt 0.8798828 0.7260742
vt 0.84277344 0.75390625
vt 0.8544922 0.75439453
vt 0.8515625 0.7348633
vt 0.79833984 0.7426758
vt 0.8046875 0.76123047
vt 0.8144531 0.7578125
vt 0.7910156 0.7680664
vt 0.78515625 0.75
vt 0.8769531 0.890625
vt 0.90185547 0.87353516
vt 0.8930664 0.8569336
vt 0.8671875 0.8745117
vt 0.9213867 0.85791016
vt 0.94677734 0.83154297
vt 0.9243164 0.82714844
vt 0.90771484 0.8442383
vt 0.81933594 0.9223633
vt 0.8486328 0.90771484
vt 0.83984375 0.89160156
vt 0.8100586 0.90527344
vt 0.7871094 0.9291992
vt 0.7841797 0.9116211
vt 0.7626953 0.91308594
vt 0.71777344 0.92285156
vt 0.7402344 0.9291992
vt 0.74121094 0.91015625
vt 0.72265625 0.90527344
vt 0.69140625 0.9160156
vt 0.8232422 0.73876953
vt 0.76708984 0.77734375
vt 0.77734375 0.77734375
vt 0.77197266 0.7573242
vt 0.7597656 0.75927734
vt 0.7602539 0.77783203
vt 0.7519531 0.7792969
vt 0.82421875 0.7553711
vt 0.73095703 0.78271484
vt 0.74365234 0.7817383
vt 0.7324219 0.7866211
vt 0.72216797 0.79296875
vt 0.7182617 0.7861328
vt 0.71484375 0.7998047
vt 0.29492188 0.9477539
vt 0.29663086 0.9316406
vt 0.26904297 0.9350586
vt 0.10345459 0.77001953
vt 0.11303711 0.7631836
vt 0.10449219 0.7480469
vt 0.09173584 0.7602539
vt 0.3244629 0.953125
vt 0.3154297 0.93896484
vt 0.3334961 0.9272461
vt 0.43115234 0.90283203
vt 0.41674805 0.89941406
vt 0.41259766 0.9038086
vt 0.42041016 0.91748047
vt 0.4387207 0.84521484
vt 0.4621582 0.8461914
vt 0.44482422 0.8232422
vt 0.4387207 0.7441406
vt 0.47265625 0.7519531
vt 0.4560547 0.73095703
vt 0.40185547 0.7001953
vt 0.40795898 0.71972656
vt 0.42749023 0.70996094
vt 0.11779785 0.6958008
vt 0.103759766 0.6699219
vt 0.10089111 0.6958008
vt 0.09350586 0.81933594
vt 0.081848145 0.80566406
vt 0.068115234 0.8071289
vt 0.08325195 0.8276367
vt 0.13745117 0.8510742
vt 0.11651611 0.8569336
vt 0.12731934 0.87841797
vt 0.17199707 0.9291992
vt 0.1694336 0.9501953
vt 0.1854248 0.9511719
vt 0.25805664 0.95751953
vt 0.25 0.94189453
vt 0.21508789 0.93603516
vt 0.2175293 0.9526367
vt 0.42626953 0.8701172
vt 0.40039062 0.73291016
vt 0.37060547 0.6948242
vt 0.38720703 0.69921875
vt 0.4013672 0.68652344
vt 0.38232422 0.70214844
vt 0.3840332 0.7114258
vt 0.16320801 0.63183594
vt 0.16711426 0.63720703
vt 0.17211914 0.6303711
vt 0.13806152 0.75
vt 0.13439941 0.7421875
vt 0.11999512 0.74560547
vt 0.082092285 0.80029297
vt 0.09448242 0.7807617
vt 0.08123779 0.7734375
vt 0.06951904 0.7944336
vt 0.10852051 0.83203125
vt 0.09844971 0.84228516
vt 0.11529541 0.8334961
vt 0.1315918 0.84472656
vt 0.12988281 0.83496094
vt 0.20251465 0.9267578
vt 0.18969727 0.9213867
vt 0.1694336 0.9033203
vt 0.16479492 0.9057617
vt 0.1430664 0.8540039
vt 0.11785889 0.7011719
vt 0.13464355 0.703125
vt 0.44482422 0.80126953
vt 0.4736328 0.79833984
vt 0.45629883 0.78222656
vt 0.13110352 0.64501953
vt 0.117614746 0.65625
vt 0.14428711 0.6582031
vt 0.16564941 0.9013672
vt 0.15002441 0.9169922
vt 0.15490723 0.8881836
vt 0.14685059 0.87158203
vt 0.13977051 0.9013672
vt 0.34301758 0.9082031
vt 0.3779297 0.92529297
vt 0.33374023 0.9057617
vt 0.31225586 0.90625
vt 0.37890625 0.9086914
vt 0.12854004 0.8276367
vt 0.12072754 0.83251953
vt 0.17883301 0.91552734
vt 0.23010254 0.9267578
vt 0.22106934 0.9267578
vt 0.25512695 0.93066406
vt 0.27416992 0.9243164
vt 0.12597656 0.7285156
vt 0.13122559 0.7314453
vt 0.124816895 0.71533203
vt 0.12219238 0.7626953
vt 0.13085938 0.76708984
vt 0.13745117 0.75097656
vt 0.10290527 0.71777344
vt 0.12805176 0.6933594
vt 0.120788574 0.67871094
vt 0.1776123 0.62646484
vt 0.1541748 0.65966797
vt 0.1459961 0.67626953
vt 0.1381836 0.6801758
vt 0.32617188 0.64941406
vt 0.33935547 0.6357422
vt 0.34936523 0.66308594
vt 0.3552246 0.69433594
vt 0.3713379 0.67578125
vt 0.3947754 0.8251953
vt 0.4321289 0.76904297
vt 0.4038086 0.78027344
vt 0.40795898 0.85058594
vt 0.3947754 0.85791016
vt 0.40722656 0.87841797
vt 0.42578125 0.796875
vt 0.4399414 0.7631836
vt 0.50390625 0.7519531
vt 0.33032227 0.67626953
vt 0.14733887 0.66748047
vt 0.46142578 0.5625
vt 0.44799805 0.5488281
vt 0.58154297 0.57910156
vt 0.5053711 0.6040039
vt 0.4790039 0.5786133
vt 0.46435547 0.5415039
vt 0.47265625 0.52783203
vt 0.46191406 0.51904297
vt 0.4519043 0.53222656
vt 0.51123047 0.57421875
vt 0.5175781 0.5566406
vt 0.49145508 0.5390625
vt 0.4831543 0.5541992
vt 0.48168945 0.51708984
vt 0.47338867 0.5107422
vt 0.52734375 0.54345703
vt 0.50097656 0.52734375
vt 0.56689453 0.65527344
vt 0.5961914 0.6015625
vt 0.5732422 0.5913086
vt 0.5654297 0.6044922
vt 0.5913086 0.6147461
vt 0.55322266 0.6303711
vt 0.578125 0.6386719
vt 0.59765625 0.64501953
vt 0.5839844 0.6582031
vt 0.6098633 0.6220703
vt 0.61376953 0.6098633
vt 0.6147461 0.59716797
vt 0.5371094 0.62353516
vt 0.5214844 0.6147461
vt 0.54833984 0.59521484
vt 0.53125 0.5854492
vt 0.53759766 0.5708008
vt 0.5551758 0.5810547
vt 0.546875 0.5566406
vt 0.56152344 0.56591797
vt 0.5991211 0.5888672
vt 0.80859375 0.8808594
vt 0.80371094 0.8496094
vt 0.78125 0.8544922
vt 0.78466797 0.8852539
vt 0.8339844 0.8388672
vt 0.84033203 0.8696289
vt 0.8730469 0.77783203
vt 0.9042969 0.7626953
vt 0.8652344 0.7661133
vt 0.890625 0.83154297
vt 0.92285156 0.8066406
vt 0.7949219 0.81640625
vt 0.82421875 0.8041992
vt 0.8828125 0.8046875
vt 0.77197266 0.7949219
vt 0.9165039 0.78515625
vt 0.8466797 0.79248047
vt 0.8574219 0.82373047
vt 0.8647461 0.8540039
vt 0.7861328 0.7944336
vt 0.8364258 0.7729492
vt 0.89404297 0.75146484
vt 0.77734375 0.8203125
vt 0.7631836 0.8881836
vt 0.7397461 0.8886719
vt 0.7602539 0.85839844
vt 0.7373047 0.86035156
vt 0.7324219 0.8276367
vt 0.7553711 0.82421875
vt 0.72753906 0.8066406
vt 0.7495117 0.7998047
vt 0.7260742 0.88623047
vt 0.7192383 0.8569336
vt 0.7104492 0.8833008
vt 0.71972656 0.82910156
vt 0.70410156 0.83154297
vt 0.7036133 0.85058594
vt 0.70947266 0.80859375
vt 0.70654297 0.8178711
vt 0.81591797 0.7807617
vt 0.3076172 0.89990234
vt 0.124816895 0.80615234
vt 0.23303223 0.6459961
vt 0.24621582 0.6191406
vt 0.36865234 0.83740234
vt 0.38256836 0.8442383
vt 0.20019531 0.8432617
vt 0.21606445 0.85595703
vt 0.22045898 0.8413086
vt 0.29736328 0.8251953
vt 0.31176758 0.8383789
vt 0.3269043 0.8144531
vt 0.16357422 0.6586914
vt 0.37158203 0.7763672
vt 0.3701172 0.8066406
vt 0.23010254 0.86328125
vt 0.2409668 0.8408203
vt 0.25610352 0.8730469
vt 0.27246094 0.8745117
vt 0.28466797 0.85058594
vt 0.26904297 0.84228516
vt 0.29858398 0.8623047
vt 0.31323242 0.8588867
vt 0.39697266 0.8979492
vt 0.37451172 0.86572266
vt 0.35351562 0.89501953
vt 0.35986328 0.859375
vt 0.34155273 0.890625
vt 0.40234375 0.84033203
vt 0.10888672 0.80566406
vt 0.12561035 0.7832031
vt 0.109313965 0.78125
vt 0.18200684 0.9091797
vt 0.17578125 0.90283203
vt 0.19873047 0.89453125
vt 0.21203613 0.9267578
vt 0.21862793 0.89746094
vt 0.24719238 0.93115234
vt 0.25439453 0.92333984
vt 0.2668457 0.92626953
vt 0.27392578 0.9165039
vt 0.3095703 0.9296875
vt 0.15795898 0.87890625
vt 0.24829102 0.65185547
vt 0.27490234 0.66796875
vt 0.26367188 0.65771484
vt 0.3413086 0.7026367
vt 0.32006836 0.6850586
vt 0.3154297 0.71875
vt 0.14367676 0.74658203
vt 0.15209961 0.7348633
vt 0.13989258 0.73291016
vt 0.1352539 0.7158203
vt 0.16027832 0.7167969
vt 0.15991211 0.6738281
vt 0.1673584 0.6953125
vt 0.17480469 0.6816406
vt 0.19165039 0.6274414
vt 0.17565918 0.64453125
vt 0.16918945 0.8847656
vt 0.16967773 0.8959961
vt 0.36376953 0.7368164
vt 0.3605957 0.72021484
vt 0.32226562 0.74072266
vt 0.43920898 0.75390625
vt 0.39941406 0.8017578
vt 0.34375 0.8354492
vt 0.32080078 0.7963867
vt 0.40185547 0.7553711
vt 0.17492676 0.7026367
vt 0.1821289 0.6928711
vt 0.19909668 0.6933594
vt 0.19018555 0.7050781
vt 0.21984863 0.7163086
vt 0.2286377 0.70166016
vt 0.25708008 0.7319336
vt 0.2644043 0.7216797
vt 0.2861328 0.77001953
vt 0.3112793 0.7709961
vt 0.28833008 0.7475586
vt 0.27807617 0.75439453
vt 0.18896484 0.7763672
vt 0.18127441 0.80029297
vt 0.1899414 0.80615234
vt 0.15258789 0.79785156
vt 0.16687012 0.8017578
vt 0.1652832 0.7836914
vt 0.26733398 0.77685547
vt 0.18676758 0.67089844
vt 0.19592285 0.67285156
vt 0.20690918 0.6567383
vt 0.2133789 0.6723633
vt 0.24401855 0.6796875
vt 0.27685547 0.7036133
vt 0.29345703 0.6845703
vt 0.30004883 0.73876953
vt 0.14111328 0.75683594
vt 0.15673828 0.7363281
vt 0.21166992 0.7324219
vt 0.24780273 0.7441406
vt 0.23291016 0.76464844
vt 0.1439209 0.7861328
vt 0.17749023 0.71972656
vt 0.16833496 0.7416992
vt 0.19543457 0.75146484
vt 0.14587402 0.7685547
vt 0.16821289 0.71728516
vt 0.13903809 0.7680664
vt 0.14208984 0.7861328
vt 0.16333008 0.8178711
vt 0.1887207 0.8125
vt 0.1574707 0.83935547
vt 0.14318848 0.8105469
vt 0.13647461 0.8310547
vt 0.13085938 0.80078125
vt 0.13122559 0.7841797
vt 0.13220215 0.81103516
vt 0.13366699 0.7739258
vt 0.17541504 0.8432617
vt 0.17980957 0.8510742
vt 0.19665527 0.83496094
vt 0.22338867 0.7988281
vt 0.21411133 0.79003906
vt 0.28735352 0.7817383
vt 0.2241211 0.82470703
vt 0.22399902 0.83203125
vt 0.24768066 0.8276367
vt 0.25146484 0.8198242
vt 0.2956543 0.81152344
vt 0.2668457 0.7866211
vt 0.19714355 0.796875
vt 0.27368164 0.8154297
vt 0.31396484 0.66259766
vt 0.36987305 0.76171875
vt 0.3317871 0.7714844
vt 0.32617188 0.75341797
vt 0.15246582 0.85595703
vt 0.16564941 0.85302734
vt 0.19995117 0.85302734
vt 0.21643066 0.86376953
vt 0.23852539 0.9008789
vt 0.23144531 0.87109375
vt 0.2614746 0.90234375
vt 0.25732422 0.87939453
vt 0.27416992 0.90283203
vt 0.27270508 0.88134766
vt 0.29223633 0.9042969
vt 0.29541016 0.8828125
vt 0.29516602 0.9238281
vt 0.22021484 0.9189453
vt 0.23242188 0.9199219
vt 0.19189453 0.9145508
vt 0.20166016 0.91796875
vt 0.16516113 0.890625
vt 0.15466309 0.8491211
vt 0.16357422 0.8466797
vt 0.13354492 0.83935547
vt 0.14355469 0.84521484
vt 0.27612305 0.8251953
vt 0.14465332 0.76464844
vt 0.14355469 0.76904297
vt 0.14245605 0.7758789
vt 0.34936523 0.90185547
vt 0.33691406 0.89746094
vt 0.3203125 0.8769531
vt 0.31347656 0.8857422
vt 0.32299805 0.8725586
vt 0.33129883 0.8574219
vt 0.3330078 0.8535156
vt 0.36206055 0.8535156
vt 0.3774414 0.86035156
vt 0.36450195 0.7480469
vt 0.40673828 0.74072266
vt 0.13354492 0.6875
vt 0.14831543 0.6816406
vt 0.21704102 0.6274414
vn -0 0 -1
vn -0 0 -1
vn -0 0 -1
vn -0 0 -1
vn -0 0 -1
vn -0 0 -1
vn -0 0 -1
vn -0 0 -1
vn -0 0 -1
vn -0 0 -1
vn -0 0 -1
vn -0 0 -1
vn -0 0 -1
vn -0 0 -1
vn -0 0 -1
vn -0 0 -1
vn -0 0 -1
vn -0 0 -1
vn -0 0 -1
vn -0 0 -1
vn -0 0 -1
vn -0 0 -1
vn -0 0 -1
vn -0 0 -1
vn -0 0 -1
vn -0 0 -1
vn -0 0 -1
vn -0 0 -1
vn -0 0 -1
vn -0 0 -1
vn -0 0 -1
vn -0 0 -1
vn -0 0 -1
vn -0 0 -1
vn -0 0 -1
vn -0 0 -1
vn -0 0 -1
vn -0 0 -1
vn -0 0 -1
vn -0 0 -1
vn -0 0 -1
vn -0 0 -1
vn -0 0 -1
vn -0 0 -1
vn -0 0 -1
vn -0 0 -1
vn -0 0 -1
vn -0 0 -1
vn -0 0 -1
vn -0 0 -1
vn -0 0 -1
vn -0 0 -1
vn -0 0 -1
vn -0 0 -1
vn -0 0 -1
vn -0 0 -1
vn -0 0 -1
vn -0 0 -1
vn -0 0 -1
vn -0 0 -1
vn -0 0 -1
vn -0 0 -1
vn -0 0 -1
vn -0 0 -1
vn -0 0 -1
vn -0 0 -1
vn -0 0 -1
vn -0 0 -1
vn -0 0 -1
vn -0 0 -1
vn -0 0 -1
vn -0 0 -1
vn -0 0 -1
vn -0 0 -1
vn -0 0 -1
vn -0 0 -1
vn -0 0 -1
vn -0 0 -1
vn -0 0 -1
vn -0 0 -1
vn -0 0 -1
vn -0 0 -1
vn -0 0 -1
vn -0 0 -1
vn -0 0 -1
vn -0 0 -1
vn -0 0 -1
vn -0 0 -1
vn -0 0 -1
vn -0 0 -1
vn -0 0 -1
vn -0 0 -1
vn -0 0 -1
vn -0 0 -1
vn -0 0 -1
vn -0 0 -1
vn -0 0 -1
vn -0 0 -1
vn -0 0 -1
vn -0 0 -1
vn -0 0 -1
vn -0 0 -1
vn -0 0 -1
vn -0 0 -1
vn -0 0 -1
vn -0 0 -1
vn -0 0 -1
vn -0 0 -1
vn -0 0 -1
vn -0 0 -1
vn -0 0 -1
vn -0 0 -1
vn -0 0 -1
vn -0 0 -1
vn -0 0 -1
vn -0 0 -1
vn -0 0 -1
vn -0 0 -1
vn -0 0 -1
vn -0 0 -1
vn -0 0 -1
vn -0 0 -1
vn -0 0 -1
vn -0 0 -1
vn -0 0 -1
vn -0 0 -1
vn -0 0 -1
vn -0 0 -1
vn -0 0 -1
vn -0 0 -1
vn -0 0 -1
vn -0 0 -1
vn -0 0 -1
vn -0 0 -1
vn -0 0 -1
vn -0 0 -1
vn -0 0 -1
vn -0 0 -1
vn -0 0 -1
vn -0 0 -1
vn -0 0 -1
vn -0 0 -1
vn -0 0 -1
vn -0 0 -1
vn -0 0 -1
vn -0 0 -1
vn -0 0 -1
vn -0 0 -1
vn -0 0 -1
vn -0 0 -1
vn -0 0 -1
vn -0 0 -1
vn -0 0 -1
vn -0 0 -1
vn -0 0 -1
vn -0 0 -1
vn -0 0 -1
vn -0 0 -1
vn -0 0 -1
vn -0 0 -1
vn -0 0 -1
vn -0 0 -1
vn -0 0 -1
vn -0 0 -1
vn -0 0 -1
vn -0 0 -1
vn -0 0 -1
vn -0 0 -1
vn -0 0 -1
vn -0 0 -1
vn -0 0 -1
vn -0 0 -1
vn -0 0 -1
vn -0 0 -1
vn -0 0 -1
vn -0 0 -1
vn -0 0 -1
vn -0 0 -1
vn -0 0 -1
vn -0 0 -1
vn -0 0 -1
vn -0 0 -1
vn -0 0 -1
vn -0 0 -1
vn -0 0 -1
vn -0 0 -1
vn -0 0 -1
vn -0 0 -1
vn -0 0 -1
vn -0 0 -1
vn -0 0 -1
vn -0 0 -1
vn -0 0 -1
vn -0 0 -1
vn -0 0 -1
vn -0 0 -1
vn -0 0 -1
vn -0 0 -1
vn -0 0 -1
vn -0 0 -1
vn -0 0 -1
vn -0 0 -1
vn -0 0 -1
vn -0 0 -1
vn -0 0 -1
vn -0 0 -1
vn -0 0 -1
vn -0 0 -1
vn -0 0 -1
vn -0 0 -1
vn -0 0 -1
vn -0 0 -1
vn -0 0 -1
vn -0 0 -1
vn -0 0 -1
vn -0 0 -1
vn -0 0 -1
vn -0 0 -1
vn -0 0 -1
vn -0 0 -1
vn -0 0 -1
vn -0 0 -1
vn -0 0 -1
vn -0 0 -1
vn -0 0 -1
vn -0 0 -1
vn -0 0 -1
vn -0 0 -1
vn -0 0 -1
vn -0 0 -1
vn -0 0 -1
vn -0 0 -1
vn -0 0 -1
vn -0 0 -1
vn -0 0 -1
vn -0 0 -1
vn -0 0 -1
vn -0 0 -1
vn -0 0 -1
vn -0 0 -1
vn -0 0 -1
vn -0 0 -1
vn -0 0 -1
vn -0 0 -1
vn -0 0 -1
vn -0 0 -1
vn -0 0 -1
vn -0 0 -1
vn -0 0 -1
vn -0 0 -1
vn -0 0 -1
vn -0 0 -1
vn -0 0 -1
vn -0 0 -1
vn -0 0 -1
vn -0 0 -1
vn -0 0 -1
vn -0 0 -1
vn -0 0 -1
vn -0 0 -1
vn -0 0 -1
vn -0 0 -1
vn -0 0 -1
vn -0 0 -1
vn -0 0 -1
vn -0 0 -1
vn -0 0 -1
vn -0 0 -1
vn -0 0 -1
vn -0 0 -1
vn -0 0 -1
vn -0 0 -1
vn -0 0 -1
vn -0 0 -1
vn -0 0 -1
vn -0 0 -1
vn -0 0 -1
vn -0 0 -1
vn -0 0 -1
vn -0 0 -1
vn -0 0 -1
vn -0 0 -1
vn -0 0 -1
vn -0 0 -1
vn -0 0 -1
vn -0 0 -1
vn -0 0 -1
vn -0 0 -1
vn -0 0 -1
vn -0 0 -1
vn -0 0 -1
vn -0 0 -1
vn -0 0 -1
vn -0 0 -1
vn -0 0 -1
vn -0 0 -1
vn -0 0 -1
vn -0 0 -1
vn -0 0 -1
vn -0 0 -1
vn -0 0 -1
vn -0 0 -1
vn -0 0 -1
vn -0 0 -1
vn -0 0 -1
vn -0 0 -1
vn -0 0 -1
vn -0 0 -1
vn -0 0 -1
vn -0 0 -1
vn -0 0 -1
vn -0 0 -1
vn -0 0 -1
vn -0 0 -1
vn -0 0 -1
vn -0 0 -1
vn -0 0 -1
vn -0 0 -1
vn -0 0 -1
vn -0 0 -1
vn -0 0 -1
vn -0 0 -1
vn -0 0 -1
vn -0 0 -1
vn -0 0 -1
vn -0 0 -1
vn -0 0 -1
vn -0 0 -1
vn -0 0 -1
vn -0 0 -1
vn -0 0 -1
vn -0 0 -1
vn -0 0 -1
vn -0 0 -1
vn -0 0 -1
vn -0 0 -1
vn -0 0 -1
vn -0 0 -1
vn -0 0 -1
vn -0 0 -1
vn -0 0 -1
vn -0 0 -1
vn -0 0 -1
vn -0 0 -1
vn -0 0 -1
vn -0 0 -1
vn -0 0 -1
vn -0 0 -1
vn -0 0 -1
vn -0 0 -1
vn -0 0 -1
vn -0 0 -1
vn -0 0 -1
vn -0 0 -1
vn -0 0 -1
vn -0 0 -1
vn -0 0 -1
vn -0 0 -1
vn -0 0 -1
vn -0 0 -1
vn -0 0 -1
vn -0 0 -1
vn -0 0 -1
vn -0 0 -1
vn -0 0 -1
vn -0 0 -1
vn -0 0 -1
vn -0 0 -1
vn -0 0 -1
vn -0 0 -1
vn -0 0 -1
vn -0 0 -1
vn -0 0 -1
vn -0 0 -1
vn -0 0 -1
vn -0 0 -1
vn -0 0 -1
vn -0 0 -1
vn -0 0 -1
vn -0 0 -1
vn -0 0 -1
vn -0 0 -1
vn -0 0 -1
vn -0 0 -1
vn -0 0 -1
vn -0 0 -1
vn -0 0 -1
vn -0 0 -1
vn -0 0 -1
vn -0 0 -1
vn -0 0 -1
vn -0 0 -1
vn -0 0 -1
vn -0 0 -1
vn -0 0 -1
vn -0 0 -1
vn -0 0 -1
vn -0 0 -1
vn -0 0 -1
vn -0 0 -1
vn -0 0 -1
vn -0 0 -1
vn -0 0 -1
vn -0 0 -1
vn -0 0 -1
vn -0 0 -1
vn -0 0 -1
vn -0 0 -1
vn -0 0 -1
vn -0 0 -1
vn -0 0 -1
vn -0 0 -1
vn -0 0 -1
vn -0 0 -1
vn -0 0 -1
vn -0 0 -1
vn -0 0 -1
vn -0 0 -1
vn -0 0 -1
vn -0 0 -1
vn -0 0 -1
vn -0 0 -1
vn -0 0 -1
vn -0 0 -1
vn -0 0 -1
vn -0 0 -1
vn -0 0 -1
vn -0 0 -1
vn -0 0 -1
vn -0 0 -1
vn -0 0 -1
vn -0 0 -1
vn -0 0 -1
vn -0 0 -1
vn -0 0 -1
vn -0 0 -1
vn -0 0 -1
vn -0 0 -1
vn -0 0 -1
vn -0 0 -1
vn -0 0 -1
vn -0 0 -1
vn -0 0 -1
vn -0 0 -1
vn -0 0 -1
vn -0 0 -1
vn -0 0 -1
vn -0 0 -1
vn -0 0 -1
vn -0 0 -1
vn -0 0 -1
vn -0 0 -1
vn -0 0 -1
vn -0 0 -1
vn -0 0 -1
vn -0 0 -1
vn -0 0 -1
vn -0 0 -1
vn -0 0 -1
vn -0 0 -1
vn -0 0 -1
vn -0 0 -1
vn -0 0 -1
vn -0 0 -1
vn -0 0 -1
vn -0 0 -1
vn -0 0 -1
vn -0 0 -1
vn -0 0 -1
vn -0 0 -1
vn -0 0 -1
vn -0 0 -1
vn -0 0 -1
vn -0 0 -1
vn -0 0 -1
vn -0 0 -1
vn -0 0 -1
vn -0 0 -1
vn -0 0 -1
vn -0 0 -1
vn -0 0 -1
vn -0 0 -1
vn -0 0 -1
vn -0 0 -1
vn -0 0 -1
vn -0 0 -1
vn -0 0 -1
vn -0 0 -1
vn -0 0 -1
vn -0 0 -1
vn -0 0 -1
vn -0 0 -1
vn -0 0 -1
vn -0 0 -1
vn -0 0 -1
vn -0 0 -1
vn -0 0 -1
vn -0 0 -1
vn -0 0 -1
vn -0 0 -1
vn -0 0 -1
vn -0 0 -1
vn -0 0 -1
vn -0 0 -1
vn -0 0 -1
vn -0 0 -1
vn -0 0 -1
vn -0 0 -1
vn -0 0 -1
vn -0 0 -1
vn -0 0 -1
vn -0 0 -1
vn -0 0 -1
vn -0 0 -1
vn -0 0 -1
vn -0 0 -1
vn -0 0 -1
vn -0 0 -1
vn -0 0 -1
vn -0 0 -1
vn -0 0 -1
vn -0 0 -1
vn -0 0 -1
vn -0 0 -1
vn -0 0 -1
vn -0 0 -1
vn -0 0 -1
vn -0 0 -1
vn -0 0 -1
vn -0 0 -1
vn -0 0 -1
vn -0 0 -1
vn -0 0 -1
vn -0 0 -1
vn -0 0 -1
vn -0 0 -1
vn -0 0 -1
vn -0 0 -1
vn -0 0 -1
vn -0 0 -1
vn -0 0 -1
vn -0 0 -1
vn -0 0 -1
vn -0 0 -1
vn -0 0 -1
vn -0 0 -1
vn -0 0 -1
vn -0 0 -1
vn -0 0 -1
vn -0 0 -1
vn -0 0 -1
vn -0 0 -1
vn -0 0 -1
vn -0 0 -1
vn -0 0 -1
vn -0 0 -1
vn -0 0 -1
vn -0 0 -1
vn -0 0 -1
vn -0 0 -1
vn -0 0 -1
vn -0 0 -1
vn -0 0 -1
vn -0 0 -1
vn -0 0 -1
vn -0 0 -1
vn -0 0 -1
vn -0 0 -1
vn -0 0 -1
vn -0 0 -1
vn -0 0 -1
vn -0 0 -1
vn -0 0 -1
vn -0 0 -1
vn -0 0 -1
vn -0 0 -1
vn -0 0 -1
vn -0 0 -1
vn -0 0 -1
vn -0 0 -1
vn -0 0 -1
vn -0 0 -1
vn -0 0 -1
vn -0 0 -1
vn -0 0 -1
vn -0 0 -1
vn -0 0 -1
vn -0 0 -1
vn -0 0 -1
vn -0 0 -1
vn -0 0 -1
vn -0 0 -1
vn -0 0 -1
vn -0 0 -1
vn -0 0 -1
vn -0 0 -1
vn -0 0 -1
vn -0 0 -1
vn -0 0 -1
vn -0 0 -1
vn -0 0 -1
vn -0 0 -1
vn -0 0 -1
vn -0 0 -1
vn -0 0 -1
vn -0 0 -1
vn -0 0 -1
vn -0 0 -1
vn -0 0 -1
vn -0 0 -1
vn -0 0 -1
vn -0 0 -1
vn -0 0 -1
vn -0 0 -1
vn -0 0 -1
vn -0 0 -1
vn -0 0 -1
vn -0 0 -1
vn -0 0 -1
vn -0 0 -1
vn -0 0 -1
vn -0 0 -1
vn -0 0 -1
vn -0 0 -1
vn -0 0 -1
vn -0 0 -1
vn -0 0 -1
vn -0 0 -1
vn -0 0 -1
vn -0 0 -1
vn -0 0 -1
vn -0 0 -1
vn -0 0 -1
vn -0 0 -1
vn -0 0 -1
vn -0 0 -1
vn -0 0 -1
vn -0 0 -1
vn -0 0 -1
vn -0 0 -1
vn -0 0 -1
vn -0 0 -1
vn -0 0 -1
vn -0 0 -1
vn -0 0 -1
vn -0 0 -1
vn -0 0 -1
vn -0 0 -1
vn -0 0 -1
g cPK_10_000410_00_WINDIEex_RR_L_SB_0
f 3/3/3 2/2/2 1/1/1
f 6/6/6 5/5/5 4/4/4
f 6/6/6 7/7/7 5/5/5
f 10/10/10 9/9/9 8/8/8
f 13/13/13 12/12/12 11/11/11
f 16/16/16 15/15/15 14/14/14
f 18/18/18 17/17/17 14/14/14
f 21/21/21 20/20/20 19/19/19
f 23/23/23 22/22/22 19/19/19
f 20/20/20 23/23/23 19/19/19
f 24/24/24 3/3/3 1/1/1
f 27/27/27 26/26/26 25/25/25
f 24/24/24 1/1/1 25/25/25
f 26/26/26 24/24/24 25/25/25
f 28/28/28 10/10/10 8/8/8
f 8/8/8 4/4/4 29/29/29
f 28/28/28 8/8/8 29/29/29
f 4/4/4 30/30/30 29/29/29
f 27/27/27 25/25/25 22/22/22
f 23/23/23 27/27/27 22/22/22
f 32/32/32 31/31/31 8/8/8
f 9/9/9 32/32/32 8/8/8
f 33/33/33 11/11/11 31/31/31
f 34/34/34 33/33/33 31/31/31
f 32/32/32 34/34/34 31/31/31
f 33/33/33 35/35/35 11/11/11
f 21/21/21 19/19/19 36/36/36
f 37/37/37 21/21/21 36/36/36
f 37/37/37 38/38/38 21/21/21
f 40/40/40 16/16/16 39/39/39
f 16/16/16 14/14/14 39/39/39
f 42/42/42 41/41/41 12/12/12
f 13/13/13 42/42/42 12/12/12
f 41/41/41 40/40/40 39/39/39
f 41/41/41 39/39/39 12/12/12
f 35/35/35 13/13/13 11/11/11
f 44/44/44 43/43/43 17/17/17
f 43/43/43 37/37/37 17/17/17
f 18/18/18 44/44/44 17/17/17
f 15/15/15 18/18/18 14/14/14
f 37/37/37 36/36/36 17/17/17
f 8/8/8 6/6/6 4/4/4
f 47/47/47 46/46/46 45/45/45
f 48/48/48 47/47/47 45/45/45
f 51/51/51 50/50/50 49/49/49
f 54/54/54 53/53/53 52/52/52
f 49/49/49 54/54/54 52/52/52
f 57/57/57 56/56/56 55/55/55
f 58/58/58 56/56/56 57/57/57
f 59/59/59 58/58/58 57/57/57
f 47/47/47 48/48/48 60/60/60
f 61/61/61 47/47/47 60/60/60
f 64/64/64 63/63/63 62/62/62
f 65/65/65 64/64/64 62/62/62
f 57/57/57 67/67/67 66/66/66
f 59/59/59 57/57/57 66/66/66
f 52/52/52 60/60/60 48/48/48
f 49/49/49 52/52/52 48/48/48
f 51/51/51 49/49/49 48/48/48
f 45/45/45 51/51/51 48/48/48
f 50/50/50 54/54/54 49/49/49
f 67/67/67 62/62/62 68/68/68
f 69/69/69 67/67/67 68/68/68
f 70/70/70 66/66/66 67/67/67
f 69/69/69 70/70/70 67/67/67
f 72/72/72 71/71/71 66/66/66
f 70/70/70 72/72/72 66/66/66
f 59/59/59 66/66/66 71/71/71
f 73/73/73 59/59/59 71/71/71
f 73/73/73 74/74/74 58/58/58
f 59/59/59 73/73/73 58/58/58
f 61/61/61 60/60/60 71/71/71
f 72/72/72 61/61/61 71/71/71
f 73/73/73 71/71/71 60/60/60
f 52/52/52 73/73/73 60/60/60
f 52/52/52 53/53/53 74/74/74
f 73/73/73 52/52/52 74/74/74
f 76/76/76 75/75/75 46/46/46
f 47/47/47 76/76/76 46/46/46
f 76/76/76 77/77/77 75/75/75
f 57/57/57 55/55/55 64/64/64
f 65/65/65 57/57/57 64/64/64
f 63/63/63 78/78/78 68/68/68
f 62/62/62 63/63/63 68/68/68
f 65/65/65 62/62/62 67/67/67
f 57/57/57 65/65/65 67/67/67
f 81/81/81 80/80/80 79/79/79
f 82/82/82 81/81/81 79/79/79
f 85/85/85 84/84/84 83/83/83
f 87/87/87 86/86/86 83/83/83
f 90/90/90 89/89/89 88/88/88
f 92/92/92 90/90/90 91/91/91
f 94/94/94 93/93/93 80/80/80
f 81/81/81 94/94/94 80/80/80
f 94/94/94 96/96/96 95/95/95
f 93/93/93 94/94/94 95/95/95
f 96/96/96 97/97/97 95/95/95
f 96/96/96 98/98/98 97/97/97
f 82/82/82 79/79/79 86/86/86
f 87/87/87 82/82/82 86/86/86
f 99/99/99 85/85/85 86/86/86
f 100/100/100 99/99/99 86/86/86
f 100/100/100 86/86/86 79/79/79
f 101/101/101 100/100/100 79/79/79
f 101/101/101 79/79/79 80/80/80
f 102/102/102 101/101/101 80/80/80
f 103/103/103 102/102/102 80/80/80
f 103/103/103 93/93/93 95/95/95
f 89/89/89 103/103/103 95/95/95
f 95/95/95 97/97/97 88/88/88
f 89/89/89 95/95/95 88/88/88
f 103/103/103 80/80/80 93/93/93
f 89/89/89 92/92/92 104/104/104
f 92/92/92 91/91/91 105/105/105
f 105/105/105 91/91/91 106/106/106
f 107/107/107 105/105/105 106/106/106
f 107/107/107 106/106/106 108/108/108
f 85/85/85 83/83/83 86/86/86
f 89/89/89 90/90/90 92/92/92
f 111/111/111 110/110/110 109/109/109
f 114/114/114 113/113/113 112/112/112
f 115/115/115 114/114/114 112/112/112
f 118/118/118 117/117/117 116/116/116
f 113/113/113 119/119/119 112/112/112
f 110/110/110 118/118/118 109/109/109
f 122/122/122 121/121/121 120/120/120
f 114/114/114 122/122/122 113/113/113
f 122/122/122 124/124/124 123/123/123
f 121/121/121 111/111/111 120/120/120
f 126/126/126 125/125/125 111/111/111
f 117/117/117 127/127/127 116/116/116
f 118/118/118 128/128/128 109/109/109
f 111/111/111 109/109/109 126/126/126
f 122/122/122 120/120/120 124/124/124
f 122/122/122 123/123/123 113/113/113
f 127/127/127 129/129/129 116/116/116
f 118/118/118 116/116/116 128/128/128
f 125/125/125 120/120/120 111/111/111
g cPK_10_000410_00_WINDIEex_RR_L_SB_1
f 30/30/30 4/4/4 5/5/5
f 16/16/16 40/40/40 130/130/130
f 131/131/131 16/16/16 130/130/130
f 132/132/132 29/29/29 30/30/30
f 135/135/135 134/134/134 133/133/133
f 137/137/137 132/132/132 136/136/136
f 140/140/140 139/139/139 138/138/138
f 131/131/131 135/135/135 141/141/141
f 138/138/138 143/143/143 142/142/142
f 146/146/146 145/145/145 144/144/144
f 141/141/141 140/140/140 147/147/147
f 139/139/139 143/143/143 138/138/138
f 149/149/149 148/148/148 138/138/138
f 135/135/135 131/131/131 134/134/134
f 131/131/131 141/141/141 147/147/147
f 130/130/130 40/40/40 41/41/41
f 146/146/146 130/130/130 41/41/41
f 136/136/136 145/145/145 146/146/146
f 146/146/146 144/144/144 134/134/134
f 145/145/145 7/7/7 133/133/133
f 144/144/144 145/145/145 133/133/133
f 145/145/145 132/132/132 30/30/30
f 145/145/145 5/5/5 7/7/7
f 145/145/145 136/136/136 132/132/132
f 145/145/145 30/30/30 5/5/5
f 134/134/134 144/144/144 133/133/133
f 151/151/151 150/150/150 2/2/2
f 152/152/152 139/139/139 151/151/151
f 141/141/141 135/135/135 150/150/150
f 135/135/135 133/133/133 150/150/150
f 151/151/151 141/141/141 150/150/150
f 137/137/137 42/42/42 13/13/13
f 146/146/146 41/41/41 42/42/42
f 153/153/153 147/147/147 148/148/148
f 147/147/147 153/153/153 16/16/16
f 131/131/131 147/147/147 16/16/16
f 137/137/137 34/34/34 32/32/32
f 137/137/137 33/33/33 34/34/34
f 137/137/137 35/35/35 33/33/33
f 13/13/13 35/35/35 137/137/137
f 132/132/132 137/137/137 29/29/29
f 9/9/9 137/137/137 32/32/32
f 10/10/10 137/137/137 9/9/9
f 28/28/28 137/137/137 10/10/10
f 137/137/137 28/28/28 29/29/29
f 146/146/146 134/134/134 130/130/130
f 131/131/131 130/130/130 134/134/134
f 27/27/27 23/23/23 152/152/152
f 26/26/26 27/27/27 152/152/152
f 24/24/24 26/26/26 152/152/152
f 154/154/154 142/142/142 152/152/152
f 3/3/3 24/24/24 152/152/152
f 23/23/23 20/20/20 154/154/154
f 21/21/21 38/38/38 154/154/154
f 20/20/20 21/21/21 154/154/154
f 23/23/23 154/154/154 152/152/152
f 149/149/149 37/37/37 43/43/43
f 148/148/148 18/18/18 15/15/15
f 153/153/153 148/148/148 15/15/15
f 153/153/153 15/15/15 16/16/16
f 149/149/149 43/43/43 44/44/44
f 149/149/149 38/38/38 37/37/37
f 149/149/149 142/142/142 154/154/154
f 149/149/149 154/154/154 38/38/38
f 148/148/148 44/44/44 18/18/18
f 148/148/148 149/149/149 44/44/44
f 137/137/137 136/136/136 146/146/146
f 151/151/151 2/2/2 3/3/3
f 147/147/147 138/138/138 148/148/148
f 146/146/146 42/42/42 137/137/137
f 151/151/151 3/3/3 152/152/152
f 141/141/141 151/151/151 140/140/140
f 140/140/140 151/151/151 139/139/139
f 139/139/139 152/152/152 143/143/143
f 143/143/143 152/152/152 142/142/142
f 140/140/140 138/138/138 147/147/147
f 149/149/149 138/138/138 142/142/142
f 155/155/155 69/69/69 68/68/68
f 156/156/156 155/155/155 68/68/68
f 155/155/155 157/157/157 70/70/70
f 69/69/69 155/155/155 70/70/70
f 157/157/157 158/158/158 72/72/72
f 70/70/70 157/157/157 72/72/72
f 158/158/158 159/159/159 61/61/61
f 72/72/72 158/158/158 61/61/61
f 159/159/159 76/76/76 47/47/47
f 61/61/61 159/159/159 47/47/47
f 68/68/68 78/78/78 160/160/160
f 156/156/156 68/68/68 160/160/160
f 162/162/162 161/161/161 99/99/99
f 100/100/100 162/162/162 99/99/99
f 103/103/103 89/89/89 104/104/104
f 164/164/164 163/163/163 101/101/101
f 102/102/102 164/164/164 101/101/101
f 103/103/103 165/165/165 102/102/102
f 163/163/163 162/162/162 100/100/100
f 101/101/101 163/163/163 100/100/100
f 166/166/166 103/103/103 104/104/104
f 165/165/165 164/164/164 102/102/102
f 103/103/103 166/166/166 165/165/165
f 167/167/167 126/126/126 109/109/109
f 168/168/168 124/124/124 120/120/120
f 169/169/169 128/128/128 116/116/116
f 168/168/168 120/120/120 125/125/125
f 169/169/169 116/116/116 129/129/129
f 167/167/167 109/109/109 128/128/128
g cPK_10_000410_00_WINDIEex_RR_L_SB_2
f 172/172/172 171/171/171 170/170/170
f 173/173/173 172/172/172 170/170/170
f 175/175/175 174/174/174 171/171/171
f 172/172/172 175/175/175 171/171/171
f 173/173/173 170/170/170 176/176/176
f 177/177/177 173/173/173 176/176/176
f 180/180/180 179/179/179 178/178/178
f 181/181/181 180/180/180 178/178/178
f 184/184/184 183/183/183 182/182/182
f 185/185/185 184/184/184 182/182/182
f 187/187/187 186/186/186 77/77/77
f 188/188/188 187/187/187 77/77/77
f 191/191/191 190/190/190 189/189/189
f 194/194/194 193/193/193 192/192/192
f 195/195/195 194/194/194 192/192/192
f 174/174/174 175/175/175 196/196/196
f 197/197/197 174/174/174 196/196/196
f 181/181/181 178/178/178 198/198/198
f 199/199/199 181/181/181 198/198/198
f 199/199/199 198/198/198 183/183/183
f 184/184/184 199/199/199 183/183/183
f 202/202/202 201/201/201 200/200/200
f 202/202/202 182/182/182 201/201/201
f 202/202/202 185/185/185 182/182/182
f 205/205/205 204/204/204 203/203/203
f 205/205/205 201/201/201 204/204/204
f 205/205/205 200/200/200 201/201/201
f 195/195/195 192/192/192 206/206/206
f 207/207/207 195/195/195 206/206/206
f 207/207/207 206/206/206 208/208/208
f 209/209/209 207/207/207 208/208/208
f 212/212/212 211/211/211 210/210/210
f 213/213/213 78/78/78 63/63/63
f 214/214/214 213/213/213 63/63/63
f 197/197/197 196/196/196 193/193/193
f 194/194/194 197/197/197 193/193/193
f 64/64/64 55/55/55 215/215/215
f 203/203/203 204/204/204 186/186/186
f 187/187/187 203/203/203 186/186/186
f 209/209/209 208/208/208 216/216/216
f 217/217/217 209/209/209 216/216/216
f 64/64/64 214/214/214 63/63/63
f 64/64/64 215/215/215 214/214/214
f 177/177/177 176/176/176 179/179/179
f 180/180/180 177/177/177 179/179/179
f 212/212/212 210/210/210 160/160/160
f 218/218/218 212/212/212 160/160/160
f 76/76/76 188/188/188 77/77/77
f 218/218/218 160/160/160 78/78/78
f 213/213/213 218/218/218 78/78/78
f 217/217/217 216/216/216 190/190/190
f 191/191/191 217/217/217 190/190/190
f 191/191/191 189/189/189 211/211/211
f 212/212/212 191/191/191 211/211/211
f 221/221/221 220/220/220 219/219/219
f 222/222/222 221/221/221 219/219/219
f 225/225/225 224/224/224 223/223/223
f 226/226/226 225/225/225 223/223/223
f 226/226/226 223/223/223 227/227/227
f 228/228/228 226/226/226 227/227/227
f 230/230/230 229/229/229 224/224/224
f 225/225/225 230/230/230 224/224/224
f 222/222/222 219/219/219 229/229/229
f 230/230/230 222/222/222 229/229/229
f 220/220/220 221/221/221 231/231/231
f 232/232/232 220/220/220 231/231/231
f 235/235/235 234/234/234 233/233/233
f 238/238/238 237/237/237 236/236/236
f 236/236/236 237/237/237 239/239/239
f 240/240/240 236/236/236 239/239/239
f 232/232/232 231/231/231 234/234/234
f 235/235/235 232/232/232 234/234/234
f 243/243/243 242/242/242 241/241/241
f 244/244/244 243/243/243 241/241/241
f 247/247/247 246/246/246 245/245/245
f 248/248/248 247/247/247 245/245/245
f 228/228/228 227/227/227 246/246/246
f 247/247/247 228/228/228 246/246/246
f 251/251/251 250/250/250 249/249/249
f 252/252/252 251/251/251 249/249/249
f 252/252/252 249/249/249 253/253/253
f 254/254/254 252/252/252 253/253/253
f 255/255/255 254/254/254 253/253/253
f 258/258/258 257/257/257 256/256/256
f 259/259/259 258/258/258 256/256/256
f 99/99/99 260/260/260 84/84/84
f 85/85/85 99/99/99 84/84/84
f 233/233/233 261/261/261 235/235/235
f 244/244/244 241/241/241 250/250/250
f 251/251/251 244/244/244 250/250/250
f 264/264/264 263/263/263 262/262/262
f 265/265/265 264/264/264 262/262/262
f 108/108/108 265/265/265 266/266/266
f 267/267/267 108/108/108 266/266/266
f 233/233/233 268/268/268 261/261/261
f 161/161/161 259/259/259 256/256/256
f 270/270/270 269/269/269 105/105/105
f 107/107/107 270/270/270 105/105/105
f 240/240/240 239/239/239 263/263/263
f 264/264/264 240/240/240 263/263/263
f 262/262/262 266/266/266 265/265/265
f 107/107/107 108/108/108 267/267/267
f 270/270/270 107/107/107 267/267/267
f 248/248/248 245/245/245 242/242/242
f 243/243/243 248/248/248 242/242/242
f 269/269/269 270/270/270 271/271/271
f 269/269/269 271/271/271 272/272/272
f 273/273/273 269/269/269 272/272/272
f 273/273/273 272/272/272 274/274/274
f 104/104/104 273/273/273 274/274/274
f 99/99/99 161/161/161 260/260/260
f 161/161/161 256/256/256 260/260/260
f 104/104/104 92/92/92 273/273/273
f 238/238/238 236/236/236 261/261/261
f 238/238/238 261/261/261 268/268/268
f 92/92/92 105/105/105 269/269/269
f 273/273/273 92/92/92 269/269/269
f 258/258/258 255/255/255 257/257/257
f 255/255/255 253/253/253 257/257/257
f 277/277/277 276/276/276 275/275/275
f 280/280/280 279/279/279 278/278/278
f 281/281/281 280/280/280 278/278/278
f 283/283/283 282/282/282 275/275/275
f 276/276/276 283/283/283 275/275/275
f 284/284/284 282/282/282 283/283/283
f 287/287/287 286/286/286 285/285/285
f 288/288/288 287/287/287 285/285/285
f 291/291/291 290/290/290 289/289/289
f 294/294/294 293/293/293 292/292/292
f 297/297/297 296/296/296 295/295/295
f 300/300/300 299/299/299 298/298/298
f 303/303/303 302/302/302 301/301/301
f 304/304/304 303/303/303 301/301/301
f 307/307/307 306/306/306 305/305/305
f 310/310/310 309/309/309 308/308/308
f 313/313/313 312/312/312 311/311/311
f 314/314/314 313/313/313 311/311/311
f 286/286/286 315/315/315 285/285/285
f 316/316/316 294/294/294 292/292/292
f 319/319/319 318/318/318 317/317/317
f 321/321/321 320/320/320 318/318/318
f 318/318/318 319/319/319 295/295/295
f 296/296/296 318/318/318 295/295/295
f 324/324/324 323/323/323 322/322/322
f 327/327/327 326/326/326 325/325/325
f 330/330/330 329/329/329 328/328/328
f 331/331/331 330/330/330 328/328/328
f 304/304/304 301/301/301 332/332/332
f 333/333/333 304/304/304 332/332/332
f 306/306/306 333/333/333 334/334/334
f 331/331/331 328/328/328 302/302/302
f 303/303/303 331/331/331 302/302/302
f 281/281/281 278/278/278 329/329/329
f 330/330/330 281/281/281 329/329/329
f 306/306/306 336/336/336 335/335/335
f 310/310/310 338/338/338 337/337/337
f 340/340/340 339/339/339 308/308/308
f 307/307/307 305/305/305 341/341/341
f 298/298/298 343/343/343 342/342/342
f 346/346/346 345/345/345 344/344/344
f 347/347/347 115/115/115 322/322/322
f 115/115/115 324/324/324 322/322/322
f 349/349/349 348/348/348 347/347/347
f 351/351/351 350/350/350 340/340/340
f 307/307/307 353/353/353 352/352/352
f 354/354/354 307/307/307 352/352/352
f 307/307/307 341/341/341 353/353/353
f 306/306/306 335/335/335 305/305/305
f 356/356/356 284/284/284 355/355/355
f 284/284/284 358/358/358 357/357/357
f 284/284/284 357/357/357 355/355/355
f 356/356/356 359/359/359 287/287/287
f 288/288/288 356/356/356 287/287/287
f 306/306/306 361/361/361 360/360/360
f 306/306/306 334/334/334 361/361/361
f 333/333/333 332/332/332 334/334/334
f 351/351/351 340/340/340 308/308/308
f 308/308/308 362/362/362 338/338/338
f 310/310/310 337/337/337 313/313/313
f 310/310/310 308/308/308 338/338/338
f 314/314/314 310/310/310 313/313/313
f 313/313/313 363/363/363 312/312/312
f 313/313/313 364/364/364 363/363/363
f 312/312/312 365/365/365 277/277/277
f 277/277/277 366/366/366 276/276/276
f 312/312/312 277/277/277 311/311/311
f 277/277/277 275/275/275 311/311/311
f 284/284/284 283/283/283 358/358/358
f 356/356/356 355/355/355 359/359/359
f 369/369/369 368/368/368 367/367/367
f 327/327/327 370/370/370 279/279/279
f 280/280/280 327/327/327 279/279/279
f 327/327/327 372/372/372 371/371/371
f 327/327/327 371/371/371 370/370/370
f 373/373/373 369/369/369 367/367/367
f 327/327/327 373/373/373 367/367/367
f 327/327/327 367/367/367 326/326/326
f 375/375/375 374/374/374 298/298/298
f 119/119/119 376/376/376 112/112/112
f 115/115/115 112/112/112 324/324/324
f 322/322/322 377/377/377 349/349/349
f 379/379/379 348/348/348 378/378/378
f 296/296/296 321/321/321 318/318/318
f 127/127/127 381/381/381 380/380/380
f 381/381/381 382/382/382 380/380/380
f 384/384/384 317/317/317 383/383/383
f 384/384/384 319/319/319 317/317/317
f 291/291/291 385/385/385 344/344/344
f 289/289/289 290/290/290 315/315/315
f 346/346/346 387/387/387 386/386/386
f 345/345/345 291/291/291 344/344/344
f 389/389/389 388/388/388 315/315/315
f 291/291/291 289/289/289 385/385/385
f 388/388/388 289/289/289 315/315/315
f 390/390/390 389/389/389 315/315/315
f 346/346/346 391/391/391 387/387/387
f 346/346/346 344/344/344 391/391/391
f 346/346/346 386/386/386 392/392/392
f 346/346/346 392/392/392 293/293/293
f 294/294/294 393/393/393 293/293/293
f 393/393/393 346/346/346 293/293/293
f 382/382/382 394/394/394 380/380/380
f 127/127/127 380/380/380 129/129/129
f 382/382/382 383/383/383 394/394/394
f 347/347/347 322/322/322 349/349/349
f 373/373/373 342/342/342 369/369/369
f 299/299/299 375/375/375 298/298/298
f 300/300/300 298/298/298 342/342/342
f 373/373/373 300/300/300 342/342/342
f 354/354/354 352/352/352 350/350/350
f 351/351/351 354/354/354 350/350/350
f 382/382/382 384/384/384 383/383/383
f 316/316/316 296/296/296 294/294/294
f 296/296/296 297/297/297 294/294/294
f 286/286/286 390/390/390 315/315/315
f 298/298/298 374/374/374 343/343/343
f 309/309/309 351/351/351 308/308/308
f 306/306/306 360/360/360 336/336/336
f 379/379/379 375/375/375 348/348/348
f 395/395/395 378/378/378 348/348/348
f 349/349/349 395/395/395 348/348/348
f 375/375/375 299/299/299 348/348/348
g cPK_10_000410_00_WINDIEex_RR_L_SB_3
f 396/396/396 192/192/192 193/193/193
f 397/397/397 396/396/396 193/193/193
f 398/398/398 203/203/203 187/187/187
f 399/399/399 208/208/208 206/206/206
f 400/400/400 399/399/399 206/206/206
f 403/403/403 402/402/402 401/401/401
f 404/404/404 403/403/403 401/401/401
f 407/407/407 406/406/406 405/405/405
f 408/408/408 407/407/407 405/405/405
f 401/401/401 396/396/396 397/397/397
f 404/404/404 401/401/401 397/397/397
f 408/408/408 405/405/405 399/399/399
f 400/400/400 408/408/408 399/399/399
f 410/410/410 409/409/409 402/402/402
f 403/403/403 410/410/410 402/402/402
f 412/412/412 411/411/411 406/406/406
f 407/407/407 412/412/412 406/406/406
f 180/180/180 181/181/181 409/409/409
f 410/410/410 180/180/180 409/409/409
f 199/199/199 184/184/184 411/411/411
f 412/412/412 199/199/199 411/411/411
f 413/413/413 211/211/211 189/189/189
f 416/416/416 415/415/415 414/414/414
f 417/417/417 416/416/416 414/414/414
f 418/418/418 416/416/416 417/417/417
f 419/419/419 418/418/418 417/417/417
f 397/397/397 193/193/193 196/196/196
f 404/404/404 397/397/397 175/175/175
f 172/172/172 404/404/404 175/175/175
f 172/172/172 173/173/173 403/403/403
f 404/404/404 172/172/172 403/403/403
f 173/173/173 177/177/177 410/410/410
f 403/403/403 173/173/173 410/410/410
f 397/397/397 196/196/196 175/175/175
f 410/410/410 177/177/177 180/180/180
f 400/400/400 206/206/206 192/192/192
f 396/396/396 400/400/400 192/192/192
f 396/396/396 401/401/401 408/408/408
f 400/400/400 396/396/396 408/408/408
f 401/401/401 402/402/402 407/407/407
f 408/408/408 401/401/401 407/407/407
f 402/402/402 409/409/409 412/412/412
f 407/407/407 402/402/402 412/412/412
f 409/409/409 181/181/181 199/199/199
f 412/412/412 409/409/409 199/199/199
f 420/420/420 155/155/155 156/156/156
f 421/421/421 420/420/420 156/156/156
f 420/420/420 422/422/422 157/157/157
f 155/155/155 420/420/420 157/157/157
f 157/157/157 422/422/422 423/423/423
f 158/158/158 157/157/157 423/423/423
f 159/159/159 424/424/424 188/188/188
f 425/425/425 190/190/190 216/216/216
f 426/426/426 425/425/425 216/216/216
f 426/426/426 428/428/428 427/427/427
f 425/425/425 426/426/426 427/427/427
f 427/427/427 428/428/428 429/429/429
f 430/430/430 427/427/427 429/429/429
f 431/431/431 185/185/185 202/202/202
f 432/432/432 202/202/202 200/200/200
f 399/399/399 405/405/405 428/428/428
f 426/426/426 399/399/399 428/428/428
f 428/428/428 405/405/405 406/406/406
f 429/429/429 428/428/428 406/406/406
f 411/411/411 184/184/184 185/185/185
f 431/431/431 411/411/411 185/185/185
f 406/406/406 411/411/411 431/431/431
f 429/429/429 406/406/406 431/431/431
f 429/429/429 431/431/431 432/432/432
f 415/415/415 398/398/398 433/433/433
f 414/414/414 415/415/415 433/433/433
f 423/423/423 424/424/424 159/159/159
f 158/158/158 423/423/423 159/159/159
f 187/187/187 188/188/188 424/424/424
f 433/433/433 398/398/398 187/187/187
f 205/205/205 432/432/432 200/200/200
f 205/205/205 398/398/398 432/432/432
f 398/398/398 205/205/205 203/203/203
f 415/415/415 432/432/432 398/398/398
f 430/430/430 429/429/429 432/432/432
f 431/431/431 202/202/202 432/432/432
f 159/159/159 188/188/188 76/76/76
f 415/415/415 430/430/430 432/432/432
f 415/415/415 416/416/416 427/427/427
f 430/430/430 415/415/415 427/427/427
f 425/425/425 427/427/427 416/416/416
f 418/418/418 425/425/425 416/416/416
f 189/189/189 190/190/190 425/425/425
f 418/418/418 189/189/189 425/425/425
f 433/433/433 187/187/187 424/424/424
f 433/433/433 424/424/424 423/423/423
f 414/414/414 433/433/433 423/423/423
f 414/414/414 423/423/423 422/422/422
f 417/417/417 414/414/414 422/422/422
f 417/417/417 422/422/422 420/420/420
f 419/419/419 417/417/417 420/420/420
f 419/419/419 420/420/420 421/421/421
f 413/413/413 419/419/419 421/421/421
f 156/156/156 160/160/160 210/210/210
f 421/421/421 156/156/156 210/210/210
f 421/421/421 210/210/210 211/211/211
f 413/413/413 421/421/421 211/211/211
f 399/399/399 426/426/426 216/216/216
f 208/208/208 399/399/399 216/216/216
f 418/418/418 413/413/413 189/189/189
f 418/418/418 419/419/419 413/413/413
f 436/436/436 435/435/435 434/434/434
f 437/437/437 436/436/436 434/434/434
f 434/434/434 435/435/435 438/438/438
f 439/439/439 434/434/434 438/438/438
f 442/442/442 441/441/441 440/440/440
f 443/443/443 248/248/248 243/243/243
f 247/247/247 443/443/443 444/444/444
f 247/247/247 248/248/248 443/443/443
f 439/439/439 251/251/251 252/252/252
f 434/434/434 439/439/439 252/252/252
f 434/434/434 252/252/252 254/254/254
f 437/437/437 434/434/434 254/254/254
f 438/438/438 435/435/435 445/445/445
f 446/446/446 438/438/438 445/445/445
f 444/444/444 443/443/443 447/447/447
f 448/448/448 267/267/267 266/266/266
f 449/449/449 441/441/441 230/230/230
f 444/444/444 449/449/449 225/225/225
f 230/230/230 225/225/225 449/449/449
f 444/444/444 226/226/226 228/228/228
f 450/450/450 440/440/440 447/447/447
f 451/451/451 450/450/450 447/447/447
f 451/451/451 447/447/447 443/443/443
f 452/452/452 451/451/451 443/443/443
f 443/443/443 243/243/243 244/244/244
f 452/452/452 443/443/443 244/244/244
f 453/453/453 263/263/263 239/239/239
f 233/233/233 454/454/454 268/268/268
f 442/442/442 454/454/454 233/233/233
f 442/442/442 234/234/234 231/231/231
f 455/455/455 442/442/442 231/231/231
f 455/455/455 231/231/231 221/221/221
f 456/456/456 445/445/445 435/435/435
f 436/436/436 456/456/456 435/435/435
f 455/455/455 221/221/221 222/222/222
f 444/444/444 228/228/228 247/247/247
f 444/444/444 225/225/225 226/226/226
f 442/442/442 233/233/233 234/234/234
f 454/454/454 238/238/238 268/268/268
f 450/450/450 451/451/451 438/438/438
f 446/446/446 450/450/450 438/438/438
f 439/439/439 438/438/438 451/451/451
f 452/452/452 439/439/439 451/451/451
f 452/452/452 244/244/244 251/251/251
f 439/439/439 452/452/452 251/251/251
f 457/457/457 255/255/255 258/258/258
f 458/458/458 457/457/457 258/258/258
f 458/458/458 460/460/460 459/459/459
f 457/457/457 458/458/458 459/459/459
f 459/459/459 460/460/460 461/461/461
f 462/462/462 459/459/459 461/461/461
f 464/464/464 463/463/463 271/271/271
f 465/465/465 458/458/458 258/258/258
f 465/465/465 467/467/467 466/466/466
f 470/470/470 469/469/469 468/468/468
f 466/466/466 470/470/470 468/468/468
f 274/274/274 463/463/463 471/471/471
f 272/272/272 463/463/463 274/274/274
f 463/463/463 272/272/272 271/271/271
f 453/453/453 448/448/448 262/262/262
f 262/262/262 448/448/448 266/266/266
f 453/453/453 262/262/262 263/263/263
f 166/166/166 104/104/104 274/274/274
f 166/166/166 471/471/471 472/472/472
f 165/165/165 166/166/166 472/472/472
f 469/469/469 470/470/470 163/163/163
f 164/164/164 469/469/469 163/163/163
f 470/470/470 467/467/467 162/162/162
f 163/163/163 470/470/470 162/162/162
f 467/467/467 259/259/259 161/161/161
f 162/162/162 467/467/467 161/161/161
f 472/472/472 469/469/469 164/164/164
f 165/165/165 472/472/472 164/164/164
f 468/468/468 469/469/469 472/472/472
f 473/473/473 239/239/239 237/237/237
f 473/473/473 453/453/453 239/239/239
f 473/473/473 237/237/237 238/238/238
f 454/454/454 473/473/473 238/238/238
f 166/166/166 274/274/274 471/471/471
f 464/464/464 270/270/270 267/267/267
f 456/456/456 436/436/436 459/459/459
f 462/462/462 456/456/456 459/459/459
f 457/457/457 459/459/459 436/436/436
f 437/437/437 457/457/457 436/436/436
f 437/437/437 254/254/254 255/255/255
f 457/457/457 437/437/437 255/255/255
f 464/464/464 267/267/267 448/448/448
f 464/464/464 271/271/271 270/270/270
f 464/464/464 462/462/462 461/461/461
f 463/463/463 464/464/464 461/461/461
f 464/464/464 448/448/448 456/456/456
f 462/462/462 464/464/464 456/456/456
f 448/448/448 453/453/453 445/445/445
f 456/456/456 448/448/448 445/445/445
f 446/446/446 445/445/445 453/453/453
f 473/473/473 446/446/446 453/453/453
f 473/473/473 454/454/454 450/450/450
f 446/446/446 473/473/473 450/450/450
f 454/454/454 442/442/442 440/440/440
f 450/450/450 454/454/454 440/440/440
f 441/441/441 449/449/449 440/440/440
f 449/449/449 447/447/447 440/440/440
f 444/444/444 447/447/447 449/449/449
f 441/441/441 455/455/455 222/222/222
f 442/442/442 455/455/455 441/441/441
f 441/441/441 222/222/222 230/230/230
f 461/461/461 468/468/468 463/463/463
f 466/466/466 468/468/468 461/461/461
f 465/465/465 466/466/466 460/460/460
f 458/458/458 465/465/465 460/460/460
f 465/465/465 258/258/258 259/259/259
f 468/468/468 472/472/472 463/463/463
f 472/472/472 471/471/471 463/463/463
f 467/467/467 470/470/470 466/466/466
f 467/467/467 465/465/465 259/259/259
f 460/460/460 466/466/466 461/461/461
f 357/357/357 358/358/358 474/474/474
f 475/475/475 360/360/360 361/361/361
f 168/168/168 477/477/477 476/476/476
f 479/479/479 478/478/478 385/385/385
f 482/482/482 481/481/481 480/480/480
f 485/485/485 484/484/484 483/483/483
f 486/486/486 377/377/377 322/322/322
f 488/488/488 485/485/485 487/487/487
f 489/489/489 481/481/481 482/482/482
f 490/490/490 489/489/489 482/482/482
f 493/493/493 492/492/492 491/491/491
f 494/494/494 493/493/493 491/491/491
f 495/495/495 492/492/492 493/493/493
f 496/496/496 495/495/495 484/484/484
f 491/491/491 489/489/489 490/490/490
f 494/494/494 491/491/491 490/490/490
f 497/497/497 390/390/390 286/286/286
f 497/497/497 499/499/499 498/498/498
f 500/500/500 498/498/498 499/499/499
f 501/501/501 500/500/500 499/499/499
f 502/502/502 289/289/289 388/388/388
f 502/502/502 388/388/388 389/389/389
f 479/479/479 502/502/502 389/389/389
f 504/504/504 475/475/475 503/503/503
f 505/505/505 504/504/504 503/503/503
f 505/505/505 279/279/279 370/370/370
f 503/503/503 334/334/334 332/332/332
f 503/503/503 302/302/302 328/328/328
f 505/505/505 329/329/329 278/278/278
f 505/505/505 278/278/278 279/279/279
f 503/503/503 301/301/301 302/302/302
f 505/505/505 503/503/503 328/328/328
f 503/503/503 361/361/361 334/334/334
f 503/503/503 475/475/475 361/361/361
f 503/503/503 332/332/332 301/301/301
f 505/505/505 328/328/328 329/329/329
f 504/504/504 370/370/370 371/371/371
f 504/504/504 505/505/505 370/370/370
f 507/507/507 506/506/506 362/362/362
f 510/510/510 509/509/509 508/508/508
f 365/365/365 312/312/312 511/511/511
f 512/512/512 365/365/365 511/511/511
f 366/366/366 277/277/277 513/513/513
f 514/514/514 366/366/366 513/513/513
f 515/515/515 474/474/474 358/358/358
f 283/283/283 515/515/515 358/358/358
f 516/516/516 352/352/352 353/353/353
f 517/517/517 477/477/477 167/167/167
f 519/519/519 169/169/169 518/518/518
f 522/522/522 521/521/521 520/520/520
f 520/520/520 394/394/394 383/383/383
f 324/324/324 112/112/112 376/376/376
f 326/326/326 367/367/367 368/368/368
f 525/525/525 524/524/524 523/523/523
f 527/527/527 525/525/525 526/526/526
f 349/349/349 528/528/528 395/395/395
f 528/528/528 530/530/530 529/529/529
f 119/119/119 113/113/113 531/531/531
f 532/532/532 324/324/324 376/376/376
f 507/507/507 534/534/534 533/533/533
f 391/391/391 344/344/344 385/385/385
f 537/537/537 536/536/536 535/535/535
f 538/538/538 293/293/293 392/392/392
f 296/296/296 535/535/535 321/321/321
f 536/536/536 383/383/383 317/317/317
f 539/539/539 387/387/387 391/391/391
f 539/539/539 488/488/488 487/487/487
f 387/387/387 539/539/539 487/487/487
f 540/540/540 484/484/484 485/485/485
f 487/487/487 485/485/485 541/541/541
f 538/538/538 392/392/392 542/542/542
f 529/529/529 544/544/544 543/543/543
f 547/547/547 546/546/546 545/545/545
f 548/548/548 547/547/547 545/545/545
f 550/550/550 549/549/549 547/547/547
f 553/553/553 552/552/552 551/551/551
f 553/553/553 554/554/554 549/549/549
f 557/557/557 556/556/556 555/555/555
f 560/560/560 559/559/559 558/558/558
f 556/556/556 559/559/559 560/560/560
f 554/554/554 551/551/551 561/561/561
f 546/546/546 543/543/543 544/544/544
f 545/545/545 546/546/546 544/544/544
f 563/563/563 530/530/530 562/562/562
f 563/563/563 564/564/564 476/476/476
f 565/565/565 563/563/563 476/476/476
f 517/517/517 566/566/566 565/565/565
f 518/518/518 568/568/568 567/567/567
f 567/567/567 568/568/568 569/569/569
f 569/569/569 522/522/522 537/537/537
f 527/527/527 529/529/529 543/543/543
f 570/570/570 523/523/523 524/524/524
f 571/571/571 570/570/570 524/524/524
f 572/572/572 547/547/547 549/549/549
f 573/573/573 554/554/554 561/561/561
f 574/574/574 573/573/573 561/561/561
f 560/560/560 558/558/558 575/575/575
f 577/577/577 576/576/576 572/572/572
f 578/578/578 577/577/577 572/572/572
f 576/576/576 543/543/543 546/546/546
f 576/576/576 546/546/546 572/572/572
f 572/572/572 546/546/546 547/547/547
f 578/578/578 560/560/560 579/579/579
f 577/577/577 578/578/578 579/579/579
f 560/560/560 575/575/575 579/579/579
f 571/571/571 524/524/524 527/527/527
f 580/580/580 571/571/571 527/527/527
f 543/543/543 580/580/580 527/527/527
f 570/570/570 581/581/581 371/371/371
f 558/558/558 582/582/582 575/575/575
f 556/556/556 584/584/584 583/583/583
f 559/559/559 556/556/556 583/583/583
f 586/586/586 583/583/583 585/585/585
f 587/587/587 586/586/586 585/585/585
f 559/559/559 583/583/583 586/586/586
f 558/558/558 559/559/559 586/586/586
f 589/589/589 588/588/588 504/504/504
f 587/587/587 590/590/590 586/586/586
f 591/591/591 589/589/589 504/504/504
f 480/480/480 593/593/593 592/592/592
f 594/594/594 480/480/480 592/592/592
f 596/596/596 561/561/561 595/595/595
f 551/551/551 552/552/552 597/597/597
f 600/600/600 599/599/599 598/598/598
f 601/601/601 600/600/600 598/598/598
f 541/541/541 485/485/485 602/602/602
f 551/551/551 597/597/597 603/603/603
f 561/561/561 551/551/551 603/603/603
f 604/604/604 596/596/596 595/595/595
f 598/598/598 599/599/599 480/480/480
f 594/594/594 598/598/598 480/480/480
f 602/602/602 483/483/483 605/605/605
f 573/573/573 549/549/549 554/554/554
f 563/563/563 562/562/562 564/564/564
f 563/563/563 544/544/544 530/530/530
f 545/545/545 544/544/544 563/563/563
f 565/565/565 545/545/545 563/563/563
f 548/548/548 545/545/545 565/565/565
f 566/566/566 548/548/548 565/565/565
f 566/566/566 567/567/567 550/550/550
f 548/548/548 566/566/566 550/550/550
f 567/567/567 569/569/569 553/553/553
f 550/550/550 567/567/567 553/553/553
f 553/553/553 551/551/551 554/554/554
f 529/529/529 530/530/530 544/544/544
f 169/169/169 606/606/606 568/568/568
f 167/167/167 128/128/128 169/169/169
f 566/566/566 519/519/519 518/518/518
f 566/566/566 518/518/518 567/567/567
f 539/539/539 391/391/391 385/385/385
f 385/385/385 478/478/478 488/488/488
f 539/539/539 385/385/385 488/488/488
f 478/478/478 540/540/540 485/485/485
f 488/488/488 478/478/478 485/485/485
f 387/387/387 487/487/487 607/607/607
f 542/542/542 387/387/387 607/607/607
f 607/607/607 487/487/487 608/608/608
f 609/609/609 608/608/608 552/552/552
f 553/553/553 569/569/569 552/552/552
f 353/353/353 341/341/341 610/610/610
f 516/516/516 353/353/353 610/610/610
f 533/533/533 611/611/611 593/593/593
f 508/508/508 593/593/593 612/612/612
f 614/614/614 510/510/510 613/613/613
f 615/615/615 614/614/614 613/613/613
f 616/616/616 614/614/614 615/615/615
f 617/617/617 616/616/616 615/615/615
f 617/617/617 619/619/619 618/618/618
f 616/616/616 617/617/617 618/618/618
f 621/621/621 620/620/620 619/619/619
f 515/515/515 283/283/283 276/276/276
f 622/622/622 515/515/515 276/276/276
f 276/276/276 366/366/366 514/514/514
f 622/622/622 276/276/276 514/514/514
f 363/363/363 364/364/364 623/623/623
f 624/624/624 363/363/363 623/623/623
f 626/626/626 625/625/625 508/508/508
f 277/277/277 365/365/365 512/512/512
f 513/513/513 277/277/277 512/512/512
f 312/312/312 363/363/363 624/624/624
f 511/511/511 312/312/312 624/624/624
f 509/509/509 626/626/626 508/508/508
f 625/625/625 506/506/506 508/508/508
f 627/627/627 516/516/516 533/533/533
f 610/610/610 611/611/611 533/533/533
f 516/516/516 610/610/610 533/533/533
f 495/495/495 483/483/483 484/484/484
f 588/588/588 586/586/586 590/590/590
f 588/588/588 475/475/475 504/504/504
f 629/629/629 628/628/628 585/585/585
f 631/631/631 630/630/630 587/587/587
f 630/630/630 336/336/336 360/360/360
f 592/592/592 593/593/593 611/611/611
f 482/482/482 480/480/480 599/599/599
f 482/482/482 599/599/599 600/600/600
f 490/490/490 482/482/482 600/600/600
f 490/490/490 600/600/600 632/632/632
f 494/494/494 490/490/490 632/632/632
f 632/632/632 483/483/483 493/493/493
f 494/494/494 632/632/632 493/493/493
f 495/495/495 493/493/493 483/483/483
f 613/613/613 510/510/510 508/508/508
f 612/612/612 613/613/613 508/508/508
f 611/611/611 610/610/610 628/628/628
f 628/628/628 610/610/610 341/341/341
f 630/630/630 335/335/335 336/336/336
f 305/305/305 335/335/335 630/630/630
f 631/631/631 305/305/305 630/630/630
f 631/631/631 341/341/341 305/305/305
f 631/631/631 587/587/587 585/585/585
f 628/628/628 631/631/631 585/585/585
f 605/605/605 632/632/632 600/600/600
f 601/601/601 605/605/605 600/600/600
f 605/605/605 603/603/603 597/597/597
f 602/602/602 605/605/605 597/597/597
f 541/541/541 602/602/602 597/597/597
f 552/552/552 608/608/608 541/541/541
f 487/487/487 541/541/541 608/608/608
f 592/592/592 585/585/585 583/583/583
f 592/592/592 583/583/583 584/584/584
f 594/594/594 592/592/592 584/584/584
f 584/584/584 595/595/595 598/598/598
f 594/594/594 584/584/584 598/598/598
f 601/601/601 598/598/598 595/595/595
f 603/603/603 601/601/601 595/595/595
f 601/601/601 603/603/603 605/605/605
f 592/592/592 629/629/629 585/585/585
f 543/543/543 576/576/576 580/580/580
f 576/576/576 577/577/577 571/571/571
f 580/580/580 576/576/576 571/571/571
f 571/571/571 633/633/633 570/570/570
f 633/633/633 634/634/634 581/581/581
f 635/635/635 582/582/582 589/589/589
f 591/591/591 635/635/635 589/589/589
f 556/556/556 560/560/560 555/555/555
f 604/604/604 557/557/557 555/555/555
f 556/556/556 557/557/557 584/584/584
f 557/557/557 595/595/595 584/584/584
f 557/557/557 604/604/604 595/595/595
f 574/574/574 561/561/561 596/596/596
f 596/596/596 604/604/604 555/555/555
f 560/560/560 578/578/578 555/555/555
f 578/578/578 596/596/596 555/555/555
f 497/497/497 287/287/287 359/359/359
f 497/497/497 359/359/359 636/636/636
f 636/636/636 355/355/355 357/357/357
f 637/637/637 636/636/636 357/357/357
f 638/638/638 637/637/637 357/357/357
f 639/639/639 638/638/638 357/357/357
f 638/638/638 639/639/639 495/495/495
f 641/641/641 640/640/640 496/496/496
f 496/496/496 640/640/640 638/638/638
f 501/501/501 499/499/499 637/637/637
f 637/637/637 499/499/499 636/636/636
f 497/497/497 636/636/636 499/499/499
f 496/496/496 484/484/484 540/540/540
f 642/642/642 496/496/496 540/540/540
f 540/540/540 478/478/478 643/643/643
f 642/642/642 540/540/540 643/643/643
f 478/478/478 479/479/479 644/644/644
f 643/643/643 478/478/478 644/644/644
f 644/644/644 479/479/479 389/389/389
f 633/633/633 579/579/579 634/634/634
f 635/635/635 634/634/634 579/579/579
f 571/571/571 577/577/577 633/633/633
f 577/577/577 579/579/579 633/633/633
f 581/581/581 634/634/634 635/635/635
f 591/591/591 581/581/581 635/635/635
f 589/589/589 582/582/582 588/588/588
f 586/586/586 588/588/588 582/582/582
f 558/558/558 586/586/586 582/582/582
f 591/591/591 504/504/504 371/371/371
f 371/371/371 581/581/581 591/591/591
f 635/635/635 575/575/575 582/582/582
f 635/635/635 579/579/579 575/575/575
f 592/592/592 611/611/611 629/629/629
f 629/629/629 611/611/611 628/628/628
f 570/570/570 633/633/633 581/581/581
f 371/371/371 523/523/523 570/570/570
f 483/483/483 632/632/632 605/605/605
f 609/609/609 537/537/537 535/535/535
f 645/645/645 609/609/609 535/535/535
f 646/646/646 645/645/645 535/535/535
f 646/646/646 316/316/316 292/292/292
f 538/538/538 292/292/292 293/293/293
f 386/386/386 387/387/387 542/542/542
f 392/392/392 386/386/386 542/542/542
f 538/538/538 542/542/542 292/292/292
f 542/542/542 646/646/646 292/292/292
f 646/646/646 542/542/542 607/607/607
f 607/607/607 608/608/608 609/609/609
f 645/645/645 607/607/607 609/609/609
f 569/569/569 609/609/609 552/552/552
f 569/569/569 537/537/537 609/609/609
f 316/316/316 646/646/646 535/535/535
f 646/646/646 607/607/607 645/645/645
f 497/497/497 286/286/286 287/287/287
f 359/359/359 355/355/355 636/636/636
f 631/631/631 628/628/628 341/341/341
f 587/587/587 360/360/360 590/590/590
f 588/588/588 590/590/590 475/475/475
f 360/360/360 475/475/475 590/590/590
f 497/497/497 644/644/644 389/389/389
f 390/390/390 497/497/497 389/389/389
f 485/485/485 483/483/483 602/602/602
f 552/552/552 541/541/541 597/597/597
f 296/296/296 316/316/316 535/535/535
f 321/321/321 536/536/536 320/320/320
f 536/536/536 520/520/520 383/383/383
f 537/537/537 522/522/522 536/536/536
f 321/321/321 535/535/535 536/536/536
f 536/536/536 317/317/317 320/320/320
f 317/317/317 318/318/318 320/320/320
f 169/169/169 568/568/568 518/518/518
f 606/606/606 129/129/129 380/380/380
f 606/606/606 380/380/380 394/394/394
f 375/375/375 647/647/647 374/374/374
f 527/527/527 343/343/343 647/647/647
f 486/486/486 532/532/532 562/562/562
f 375/375/375 379/379/379 647/647/647
f 648/648/648 528/528/528 529/529/529
f 527/527/527 647/647/647 529/529/529
f 531/531/531 113/113/113 123/123/123
f 486/486/486 322/322/322 323/323/323
f 486/486/486 562/562/562 530/530/530
f 349/349/349 377/377/377 528/528/528
f 528/528/528 377/377/377 486/486/486
f 378/378/378 395/395/395 528/528/528
f 325/325/325 525/525/525 523/523/523
f 526/526/526 525/525/525 368/368/368
f 369/369/369 526/526/526 368/368/368
f 342/342/342 526/526/526 369/369/369
f 343/343/343 527/527/527 526/526/526
f 342/342/342 343/343/343 526/526/526
f 525/525/525 326/326/326 368/368/368
f 531/531/531 123/123/123 124/124/124
f 562/562/562 532/532/532 531/531/531
f 564/564/564 562/562/562 531/531/531
f 532/532/532 323/323/323 324/324/324
f 486/486/486 323/323/323 532/532/532
f 531/531/531 532/532/532 376/376/376
f 119/119/119 531/531/531 376/376/376
f 517/517/517 167/167/167 519/519/519
f 517/517/517 519/519/519 566/566/566
f 517/517/517 565/565/565 476/476/476
f 548/548/548 550/550/550 547/547/547
f 550/550/550 553/553/553 549/549/549
f 568/568/568 522/522/522 569/569/569
f 536/536/536 522/522/522 520/520/520
f 479/479/479 385/385/385 502/502/502
f 502/502/502 385/385/385 289/289/289
f 578/578/578 574/574/574 596/596/596
f 578/578/578 572/572/572 573/573/573
f 574/574/574 578/578/578 573/573/573
f 573/573/573 572/572/572 549/549/549
f 496/496/496 638/638/638 495/495/495
f 642/642/642 641/641/641 496/496/496
f 642/642/642 643/643/643 500/500/500
f 641/641/641 642/642/642 500/500/500
f 643/643/643 644/644/644 498/498/498
f 500/500/500 643/643/643 498/498/498
f 497/497/497 498/498/498 644/644/644
f 640/640/640 501/501/501 637/637/637
f 638/638/638 640/640/640 637/637/637
f 640/640/640 641/641/641 500/500/500
f 501/501/501 640/640/640 500/500/500
f 480/480/480 481/481/481 613/613/613
f 612/612/612 480/480/480 613/613/613
f 613/613/613 481/481/481 489/489/489
f 615/615/615 613/613/613 489/489/489
f 615/615/615 489/489/489 491/491/491
f 617/617/617 615/615/615 491/491/491
f 491/491/491 492/492/492 619/619/619
f 617/617/617 491/491/491 619/619/619
f 495/495/495 619/619/619 492/492/492
f 621/621/621 495/495/495 639/639/639
f 495/495/495 621/621/621 619/619/619
f 593/593/593 480/480/480 612/612/612
f 533/533/533 593/593/593 508/508/508
f 620/620/620 618/618/618 619/619/619
f 325/325/325 326/326/326 525/525/525
f 561/561/561 603/603/603 595/595/595
f 343/343/343 374/374/374 647/647/647
f 527/527/527 524/524/524 525/525/525
f 528/528/528 486/486/486 530/530/530
f 649/649/649 531/531/531 124/124/124
f 648/648/648 647/647/647 379/379/379
f 648/648/648 378/378/378 528/528/528
f 648/648/648 379/379/379 378/378/378
f 647/647/647 648/648/648 529/529/529
f 371/371/371 325/325/325 523/523/523
f 623/623/623 510/510/510 614/614/614
f 624/624/624 623/623/623 614/614/614
f 511/511/511 624/624/624 614/614/614
f 512/512/512 511/511/511 614/614/614
f 513/513/513 512/512/512 616/616/616
f 514/514/514 513/513/513 616/616/616
f 622/622/622 514/514/514 618/618/618
f 622/622/622 620/620/620 515/515/515
f 620/620/620 621/621/621 474/474/474
f 474/474/474 621/621/621 639/639/639
f 313/313/313 509/509/509 623/623/623
f 364/364/364 313/313/313 623/623/623
f 313/313/313 337/337/337 626/626/626
f 509/509/509 313/313/313 626/626/626
f 337/337/337 338/338/338 625/625/625
f 626/626/626 337/337/337 625/625/625
f 338/338/338 362/362/362 506/506/506
f 625/625/625 338/338/338 506/506/506
f 339/339/339 350/350/350 534/534/534
f 627/627/627 352/352/352 516/516/516
f 534/534/534 350/350/350 627/627/627
f 350/350/350 352/352/352 627/627/627
f 534/534/534 627/627/627 533/533/533
f 357/357/357 474/474/474 639/639/639
f 620/620/620 474/474/474 515/515/515
f 616/616/616 512/512/512 614/614/614
f 510/510/510 623/623/623 509/509/509
f 618/618/618 514/514/514 616/616/616
f 308/308/308 339/339/339 507/507/507
f 339/339/339 534/534/534 507/507/507
f 308/308/308 507/507/507 362/362/362
f 507/507/507 533/533/533 508/508/508
f 507/507/507 508/508/508 506/506/506
f 622/622/622 618/618/618 620/620/620
f 339/339/339 340/340/340 350/350/350
f 587/587/587 630/630/630 360/360/360
f 531/531/531 649/649/649 564/564/564
f 477/477/477 168/168/168 125/125/125
f 477/477/477 125/125/125 126/126/126
f 649/649/649 124/124/124 168/168/168
f 649/649/649 168/168/168 476/476/476
f 477/477/477 126/126/126 167/167/167
f 517/517/517 476/476/476 477/477/477
f 649/649/649 476/476/476 564/564/564
f 167/167/167 169/169/169 519/519/519
f 169/169/169 129/129/129 606/606/606
f 521/521/521 606/606/606 394/394/394
f 521/521/521 394/394/394 520/520/520
f 522/522/522 568/568/568 521/521/521
f 568/568/568 606/606/606 521/521/521
