g cPK_20_000760_00_STARMIEex_SR_L_SB
v -0.092787124 0.24110404 -0.08429044
v -0.04499536 0.24959265 -0.08222141
v -0.09069507 0.24214995 -0.084174216
v -0.049135502 0.2520582 -0.0822789
v -0.053329922 0.25342584 -0.08238014
v -0.057034213 0.25371957 -0.08250432
v -0.061369937 0.25284806 -0.08269587
v -0.011403262 -0.080364935 -0.093543336
v -0.054410856 -0.039469663 -0.09355934
v -0.060409397 -0.07372245 -0.095081255
v -0.1614182 0.045134258 -0.09425135
v -0.12828553 0.0024790566 -0.09466308
v -0.13306212 0.06282432 -0.09254249
v -0.1502629 0.052866466 -0.09354969
v 0.15215974 0.17243966 -0.07795226
v 0.16499242 0.1246985 -0.07929914
v 0.1835553 0.13770975 -0.078126036
v 0.042559188 0.25337684 -0.07887848
v 0.04136406 0.2527047 -0.07894771
v 0.07686378 0.22481208 -0.07871149
v 0.04051715 0.25124356 -0.079034224
v 0.03466324 0.23864046 -0.07972745
v -0.14145811 0.18238574 -0.08830198
v -0.14882824 0.1819679 -0.08858715
v -0.18018095 0.145256 -0.09112896
v -0.1800931 0.14671592 -0.09107022
v -0.17765845 0.15230809 -0.090768576
v -0.17030986 0.16775547 -0.08991257
v -0.15497349 0.18107471 -0.08884565
v -0.15978274 0.17965384 -0.08907541
v -0.16301478 0.17814396 -0.08925092
v -0.1664716 0.17499878 -0.08949684
v -0.16506961 0.17680985 -0.08937674
v 0.057743944 -0.0537102 -0.090003125
v 0.07103538 -0.07326158 -0.090261094
v 0.11847301 -0.041404795 -0.08731624
v 0.13895448 0.0071354695 -0.08472177
v 0.16465056 -0.00042868266 -0.084070586
v 0.16811006 0.061437864 -0.08159122
v -0.07646128 0.19836065 -0.08531959
v 0.070963986 0.19797263 -0.07994784
v -0.016743144 0.21493371 -0.082507335
v 0.023507472 0.21439515 -0.08105717
v 0.04446637 0.25311327 -0.07881882
v 0.04970701 0.25129622 -0.07869645
v 0.07841581 0.23233128 -0.078368805
v 0.07921485 0.23749971 -0.07814304
v 0.079013474 0.23913129 -0.078088336
v 0.07848882 0.24047874 -0.07805627
v 0.07725801 0.24136439 -0.07806755
v 0.07367285 0.21029587 -0.07938017
v -0.024472263 0.22710223 -0.08232693
v -0.08550888 0.22051226 -0.08480768
v -0.031409867 0.23649529 -0.08222316
v -0.040466614 0.24604519 -0.082190864
v -0.17947075 0.1441174 -0.09114631
v -0.17808561 0.14322034 -0.09112983
v -0.15292044 0.12936743 -0.09073722
v -0.13457209 0.11926704 -0.09045098
v -0.10259252 0.1753426 -0.08714981
v -0.12237151 0.18027924 -0.08768471
v -0.13213228 0.18176137 -0.08798498
v -0.10937425 0.0079006925 -0.093765914
v -0.1693493 0.03862199 -0.09478881
v -0.1604981 -0.006650855 -0.096187286
v -0.16187946 -0.006142809 -0.09621843
v -0.16281797 -0.004467407 -0.096189
v -0.1734949 0.03482913 -0.09508454
v -0.17645565 0.031935837 -0.09530275
v -0.17843089 0.029536286 -0.09546619
v -0.17763239 0.025104662 -0.09560556
v -0.17858134 0.027680421 -0.09554227
v -0.15840492 -0.0061558154 -0.09609198
v -0.0016865509 -0.05601592 -0.092262246
v -0.022927636 -0.10490831 -0.09489786
v -0.02421946 -0.10517581 -0.09495524
v -0.025988115 -0.1046344 -0.09499927
v -0.061270602 -0.09202312 -0.095808744
v -0.062770635 -0.09142458 -0.09584079
v -0.06302318 -0.08864763 -0.095744394
v -0.06322139 -0.09053441 -0.0958234
v -0.017736744 -0.09468382 -0.094319336
v -0.02187722 -0.103646256 -0.094811484
v 0.11190136 -0.023544567 -0.08687707
v 0.0851927 -0.03842126 -0.08841874
v 0.08670402 -0.096309796 -0.0905652
v 0.088010356 -0.09792279 -0.09057882
v 0.123446204 -0.06713087 -0.08811297
v 0.12127332 -0.051449623 -0.08759596
v 0.122934245 -0.060806107 -0.087891124
v 0.12344567 -0.07364966 -0.08836093
v 0.08910352 -0.09812638 -0.090546615
v 0.09096889 -0.09756 -0.09045692
v 0.12304681 -0.07855631 -0.08856211
v 0.12254973 -0.08145726 -0.0886906
v 0.12181147 -0.08303771 -0.08877768
v 0.119833544 -0.08441821 -0.08890246
v 0.15146933 0.07110396 -0.0818316
v 0.14814709 0.17197509 -0.07811654
v 0.1379861 0.17004849 -0.07856107
v 0.12643029 0.16703224 -0.07909801
v 0.11401031 0.16320415 -0.07969739
v 0.14619716 0.11385846 -0.080398135
v -0.09325575 0.23975614 -0.08435882
v -0.09237876 0.23733203 -0.084418975
v 0.18234366 0.1404367 -0.078066595
v 0.17860071 0.14765449 -0.07792883
v 0.17122409 0.16048713 -0.07771029
v 0.16737008 0.16651188 -0.07762197
v 0.15576316 0.17242573 -0.07782113
v 0.15898539 0.17190231 -0.07772331
v 0.16195242 0.17110023 -0.077645406
v 0.16493593 0.16941755 -0.0776004
v 0.08902718 0.18329844 -0.07984596
v -0.1334565 0.07756614 -0.09199622
v -0.07493826 -0.02177806 -0.09363649
v 0.16653647 0.24096803 -0.06230718
v 0.19965374 0.20773499 -0.06236112
v 0.18033747 0.24268578 -0.061737604
v 0.2027283 0.22308917 -0.061664827
v 0.19287445 0.24268642 -0.061279513
v 0.20140481 0.23436205 -0.061284434
v 0.19884124 0.24041103 -0.061148044
v 0.15171576 0.074634776 -0.06917485
v 0.05901439 0.2117863 -0.06734562
v 0.021115877 0.20149593 -0.0691217
v 0.16288227 0.10657517 -0.067552075
v 0.09822283 0.22239442 -0.06550959
v 0.17614046 0.14325447 -0.06567263
v 0.13028067 0.23137657 -0.063996665
v 0.18796861 0.1759775 -0.0639959
v -0.14519563 0.3131668 -0.07095108
v -0.1306035 0.32070985 -0.07013104
v -0.14183016 0.31758744 -0.07065999
v -0.1342032 0.32104406 -0.070249856
v -0.138447 0.3204781 -0.070426434
v -0.2136799 -0.014912118 -0.085931145
v -0.18395248 0.1215977 -0.07965311
v -0.22395177 0.10274973 -0.08183142
v -0.06474576 -0.25855464 -0.089755975
v -0.04955521 -0.268212 -0.08956825
v -0.041188 -0.26416683 -0.08910868
v -0.03585391 -0.25986522 -0.08875019
v 0.07584446 -0.08307493 -0.077945165
v -0.14404336 0.1403296 -0.07748251
v -0.14908162 0.29421625 -0.071813814
v -0.11862817 0.3155565 -0.06988949
v -0.14828625 0.30332658 -0.07143826
v -0.14723901 0.30785677 -0.0712277
v -0.124536894 0.3187004 -0.06998581
v -0.09637981 0.29917556 -0.069699615
v -0.14929867 0.2858601 -0.072139554
v -0.1480989 0.24963856 -0.07347333
v -0.11221657 0.31167823 -0.06980273
v -0.06381834 0.2721057 -0.06953946
v -0.14663902 0.21785198 -0.074628934
v -0.028254006 0.2425394 -0.06936453
v -0.14530379 0.17797391 -0.07609683
v -0.161556 -0.0301494 -0.08460621
v -0.26127362 -0.0010697367 -0.08714363
v -0.2570344 0.08764352 -0.0836147
v -0.27719685 0.07822514 -0.08470959
v -0.30272594 0.011189139 -0.08819194
v -0.30159646 0.06687196 -0.08603288
v -0.32131496 0.018884823 -0.08857844
v -0.31925955 0.056853663 -0.087059274
v -0.32619318 0.051720213 -0.087507844
v -0.33110848 0.025157252 -0.088697694
v -0.33204794 0.046615306 -0.08791592
v -0.3357284 0.04156926 -0.08824231
v -0.33752498 0.037671067 -0.088456206
v -0.3372426 0.032688197 -0.088635415
v -0.14189883 -0.03587844 -0.08410588
v -0.11933317 -0.042768855 -0.083543465
v 0.13003261 -0.08880426 -0.076183185
v 0.16606592 0.058158565 -0.06927718
v -0.0568532 -0.2675245 -0.08980875
v -0.07171001 -0.24406973 -0.089459516
v -0.030243015 -0.25396773 -0.08832088
v -0.02239008 -0.2432694 -0.08762706
v -0.068411306 -0.25203475 -0.08964193
v -0.07632313 -0.22837763 -0.08903126
v -0.013003302 -0.22944915 -0.08675847
v 0.0019655218 -0.20475368 -0.08527231
v -0.08905524 -0.17472589 -0.08745592
v -0.08346739 -0.19958244 -0.08819711
v -0.10559912 -0.101518534 -0.08527609
v -0.094093755 -0.15231298 -0.086787574
v 0.03298073 -0.1526023 -0.08215562
v 0.055555966 -0.11578598 -0.079930544
v 0.01589208 -0.18162748 -0.08388391
v -0.053165436 -0.08417821 -0.072039
v -0.18243562 0.04902816 -0.07169594
v -0.10124381 -0.101000465 -0.074435465
v -0.20381096 0.0060779564 -0.07411046
v -0.22123711 -0.028608708 -0.076066405
v -0.24101746 -0.06717544 -0.07825593
v -0.1451361 -0.11643801 -0.0766263
v -0.18115354 -0.1293056 -0.078431666
v -0.21859479 -0.1422422 -0.08029169
v -0.26051542 -0.1070104 -0.08048339
v -0.2371155 -0.14723657 -0.08115834
v -0.26520136 -0.11963379 -0.0811347
v -0.2518905 -0.14867845 -0.08175301
v -0.26745334 -0.13160697 -0.08167236
v -0.2616711 -0.14648966 -0.08202713
v -0.2672437 -0.13795924 -0.08190629
v -0.26569563 -0.14290361 -0.082037784
v -0.25238523 -0.08895288 -0.07949954
v -0.09444731 0.188505 -0.063176356
v -0.12664893 0.19345093 -0.06416481
v -0.07218218 0.2164665 -0.06129939
v 0.07285875 0.15009955 -0.05852413
v 0.05984623 0.19251429 -0.05738641
v 0.106621794 -0.011712551 -0.063444726
v 0.15575986 0.017046308 -0.060555574
v 0.11390169 0.1369263 -0.057525553
v -0.022547567 -0.11045366 -0.07191965
v 0.11110685 -0.050881147 -0.06477056
v -0.049420215 0.24575801 -0.059353687
v 0.050908107 0.22220269 -0.056583848
v 0.045542754 0.23989592 -0.05610695
v -0.03459674 0.2650011 -0.058080204
v 0.037501 0.26641512 -0.055392172
v 0.027129993 0.2949392 -0.054686245
v -0.013223529 0.2923927 -0.056257498
v 0.031933326 0.28333697 -0.054952007
v -0.023174686 0.27991387 -0.057095695
v 0.02346422 0.30113077 -0.054584693
v 0.019962994 0.3049738 -0.054566454
v -0.001239502 0.30398336 -0.055378806
v -0.007107783 0.29891875 -0.055785842
v 0.005532009 0.30772477 -0.0549891
v 0.011626512 0.30880442 -0.054725356
v 0.015932014 0.30810443 -0.054594673
v -0.1668202 0.19899662 -0.06542163
v -0.21505193 0.090169385 -0.071322925
v -0.19772069 0.0687675 -0.07150367
v -0.21058463 0.20585716 -0.06675974
v -0.24438882 0.1261206 -0.07102748
v -0.24820118 0.21175395 -0.067909874
v -0.269389 0.15704468 -0.07076478
v -0.2716683 0.21363321 -0.06869582
v -0.2835965 0.17461866 -0.07061549
v -0.28325874 0.21287565 -0.069148116
v -0.2922888 0.18841553 -0.070408344
v -0.2898657 0.21064115 -0.06947451
v -0.29451782 0.20667827 -0.0697952
v -0.29526487 0.20097439 -0.070039436
v -0.29458353 0.19486873 -0.070246756
v 0.15451512 0.12425976 -0.056523394
v 0.017595453 -0.14579035 -0.071796894
v 0.11691671 -0.099941544 -0.0664242
v 0.055523206 -0.17868303 -0.07166212
v 0.12144549 -0.13908769 -0.06774757
v 0.08214191 -0.20176797 -0.07156755
v 0.12589698 -0.1775658 -0.06904837
v 0.09306111 -0.20979619 -0.07147392
v 0.12600583 -0.20060335 -0.069920585
v 0.10235794 -0.21505813 -0.07133436
v 0.1109061 -0.21734606 -0.07110906
v 0.12645136 -0.18779145 -0.06941702
v 0.12334366 -0.21048246 -0.070393585
v 0.12090371 -0.2142169 -0.07062476
v 0.117436804 -0.21705489 -0.07085937
v 0.1803833 0.13403186 -0.07838183
v 0.18316926 0.13582908 -0.07821167
v 0.18858558 -0.0060578524 -0.083410166
v 0.19008288 0.04392215 -0.08145457
v 0.18653549 -0.0066574314 -0.08350787
v 0.18277644 -0.005764387 -0.08361126
v 0.17647336 0.056017514 -0.0814918
v 0.18197724 0.051556647 -0.081460364
v 0.18685271 0.047095414 -0.0814519
v 0.18960682 -0.0044222903 -0.08331065
v 0.19277456 0.040555328 -0.08148427
v 0.1949142 0.03695129 -0.08154317
v 0.19674031 0.03286275 -0.08163195
v 0.19760817 0.029095585 -0.081743516
v 0.19775125 0.025528267 -0.08187396
v 0.19725786 0.021191888 -0.08205692
v 0.2790013 -0.07126408 -0.07007317
v 0.27917823 -0.099118076 -0.07112607
v 0.28482205 -0.08281981 -0.07029999
v 0.28523073 -0.08852764 -0.07050215
v 0.28443584 -0.09455259 -0.07076033
v 0.26411924 -0.10255688 -0.07180708
v 0.27431735 -0.0646697 -0.0699935
v 0.27116862 -0.06033594 -0.06994372
v 0.27146712 -0.10178202 -0.07150914
v 0.24770294 -0.1023906 -0.07240056
v 0.25081155 -0.03737434 -0.06981421
v 0.20060284 -0.096774325 -0.07390787
v 0.23314385 -0.017446244 -0.06970181
v 0.21078835 0.00763594 -0.06956467
v 0.18951961 0.031498805 -0.069434196
v 0.16295624 -0.09228528 -0.07511263
v 0.19081944 0.03694509 -0.05851778
v 0.21302342 0.049547385 -0.0572272
v 0.18899652 0.11350697 -0.055672504
v 0.22884248 0.058785725 -0.056297857
v 0.22065139 0.103635624 -0.05489136
v 0.240315 0.067037106 -0.055564858
v 0.23294273 0.09858336 -0.05463442
v 0.24697962 0.07458086 -0.055034436
v 0.24272075 0.09261365 -0.054504197
v 0.24780546 0.08744319 -0.05451507
v 0.24901263 0.08427222 -0.054591566
v 0.24910966 0.080575965 -0.054728597
vt 0.30371094 0.9375
vt 0.25732422 0.9458008
vt 0.3017578 0.93847656
vt 0.2614746 0.9482422
vt 0.26538086 0.94921875
vt 0.26904297 0.94970703
vt 0.27319336 0.94873047
vt 0.22460938 0.62597656
vt 0.26635742 0.66552734
vt 0.27197266 0.6323242
vt 0.3701172 0.7475586
vt 0.33789062 0.70654297
vt 0.3425293 0.76464844
vt 0.35913086 0.7553711
vt 0.06628418 0.87109375
vt 0.05380249 0.82470703
vt 0.035827637 0.83740234
vt 0.17260742 0.94921875
vt 0.17370605 0.94873047
vt 0.13928223 0.921875
vt 0.17456055 0.9472656
vt 0.18017578 0.9350586
vt 0.35083008 0.8808594
vt 0.35791016 0.8803711
vt 0.3881836 0.84472656
vt 0.3881836 0.8461914
vt 0.3857422 0.8515625
vt 0.3786621 0.8666992
vt 0.36376953 0.87939453
vt 0.3684082 0.8779297
vt 0.37158203 0.87646484
vt 0.375 0.87353516
vt 0.37353516 0.875
vt 0.15759277 0.65185547
vt 0.14465332 0.6328125
vt 0.09875488 0.6635742
vt 0.07891846 0.7109375
vt 0.05404663 0.7036133
vt 0.050720215 0.7631836
vt 0.2878418 0.8959961
vt 0.14489746 0.8955078
vt 0.22998047 0.9121094
vt 0.19091797 0.9116211
vt 0.1706543 0.94921875
vt 0.16564941 0.9472656
vt 0.13781738 0.9291992
vt 0.13696289 0.93408203
vt 0.13720703 0.9355469
vt 0.13781738 0.93652344
vt 0.13903809 0.9370117
vt 0.14233398 0.90771484
vt 0.23742676 0.9238281
vt 0.29663086 0.91748047
vt 0.24414062 0.93310547
vt 0.2529297 0.9423828
vt 0.3876953 0.84375
vt 0.38623047 0.84277344
vt 0.3618164 0.82958984
vt 0.34399414 0.81933594
vt 0.31323242 0.87402344
vt 0.3322754 0.87841797
vt 0.34179688 0.8798828
vt 0.31958008 0.7114258
vt 0.37768555 0.74121094
vt 0.36914062 0.6977539
vt 0.37060547 0.6982422
vt 0.3713379 0.69970703
vt 0.38183594 0.73779297
vt 0.38452148 0.7348633
vt 0.3864746 0.7324219
vt 0.3857422 0.7285156
vt 0.3869629 0.73046875
vt 0.3671875 0.6982422
vt 0.21520996 0.64941406
vt 0.23583984 0.6020508
vt 0.23718262 0.6015625
vt 0.23864746 0.60253906
vt 0.27294922 0.6147461
vt 0.27441406 0.6152344
vt 0.2746582 0.61816406
vt 0.27514648 0.61621094
vt 0.23071289 0.6123047
vt 0.23474121 0.6035156
vt 0.10510254 0.68115234
vt 0.13098145 0.6665039
vt 0.1295166 0.61035156
vt 0.12817383 0.6088867
vt 0.093933105 0.6386719
vt 0.0960083 0.6538086
vt 0.09442139 0.64501953
vt 0.093933105 0.6323242
vt 0.12719727 0.6088867
vt 0.12536621 0.609375
vt 0.09429932 0.6279297
vt 0.0947876 0.625
vt 0.095458984 0.62353516
vt 0.09741211 0.6220703
vt 0.066833496 0.77246094
vt 0.07019043 0.87060547
vt 0.08001709 0.86865234
vt 0.09118652 0.86572266
vt 0.10321045 0.8618164
vt 0.072021484 0.81396484
vt 0.30419922 0.93603516
vt 0.30322266 0.93408203
vt 0.037017822 0.83984375
vt 0.040649414 0.8466797
vt 0.047821045 0.859375
vt 0.05154419 0.8652344
vt 0.062805176 0.87060547
vt 0.0597229 0.8701172
vt 0.056915283 0.8691406
vt 0.05429077 0.8676758
vt 0.1274414 0.88134766
vt 0.34301758 0.7792969
vt 0.2861328 0.6826172
vt 0.4741211 0.87939453
vt 0.44213867 0.84716797
vt 0.46069336 0.8808594
vt 0.43920898 0.8618164
vt 0.44873047 0.8808594
vt 0.4404297 0.8730469
vt 0.44311523 0.87841797
vt 0.4885254 0.7182617
vt 0.578125 0.8510742
vt 0.6152344 0.8413086
vt 0.47753906 0.74902344
vt 0.54052734 0.8613281
vt 0.46484375 0.78466797
vt 0.50927734 0.8701172
vt 0.45336914 0.81640625
vt 0.7763672 0.94970703
vt 0.76220703 0.95654297
vt 0.7729492 0.9536133
vt 0.765625 0.95703125
vt 0.76953125 0.9560547
vt 0.84228516 0.63183594
vt 0.81396484 0.7636719
vt 0.85253906 0.74560547
vt 0.6977539 0.3955078
vt 0.68310547 0.38598633
vt 0.67529297 0.38989258
vt 0.6699219 0.39404297
vt 0.5620117 0.5654297
vt 0.77490234 0.78222656
vt 0.78027344 0.93115234
vt 0.7504883 0.95166016
vt 0.7792969 0.9399414
vt 0.7783203 0.94433594
vt 0.75634766 0.95458984
vt 0.7290039 0.93603516
vt 0.78027344 0.92285156
vt 0.7792969 0.8876953
vt 0.7441406 0.9482422
vt 0.6972656 0.90966797
vt 0.77783203 0.8569336
vt 0.66308594 0.8808594
vt 0.7763672 0.8183594
vt 0.7919922 0.6166992
vt 0.8886719 0.64501953
vt 0.8847656 0.73095703
vt 0.9042969 0.7216797
vt 0.92871094 0.65722656
vt 0.9277344 0.7109375
vt 0.94677734 0.6645508
vt 0.9448242 0.7011719
vt 0.95166016 0.69628906
vt 0.9560547 0.67041016
vt 0.95703125 0.69140625
vt 0.9609375 0.68652344
vt 0.96240234 0.6826172
vt 0.96191406 0.6777344
vt 0.7729492 0.6113281
vt 0.75097656 0.6044922
vt 0.50927734 0.5595703
vt 0.47460938 0.70214844
vt 0.6904297 0.3869629
vt 0.70458984 0.40942383
vt 0.6645508 0.39990234
vt 0.6567383 0.41015625
vt 0.70166016 0.40185547
vt 0.7089844 0.4248047
vt 0.6479492 0.42358398
vt 0.6333008 0.44750977
vt 0.7216797 0.47680664
vt 0.7163086 0.45263672
vt 0.73779297 0.54785156
vt 0.7265625 0.49829102
vt 0.6035156 0.49804688
vt 0.58154297 0.5336914
vt 0.6201172 0.4699707
vt 0.33129883 0.16296387
vt 0.4567871 0.29223633
vt 0.3779297 0.14672852
vt 0.47753906 0.25048828
vt 0.49438477 0.21691895
vt 0.5136719 0.17956543
vt 0.42041016 0.13183594
vt 0.45532227 0.119384766
vt 0.49169922 0.10687256
vt 0.53222656 0.14099121
vt 0.5097656 0.10205078
vt 0.5366211 0.12878418
vt 0.5239258 0.10064697
vt 0.5390625 0.1171875
vt 0.5332031 0.1027832
vt 0.5385742 0.111083984
vt 0.5371094 0.10632324
vt 0.52441406 0.15844727
vt 0.37158203 0.4272461
vt 0.40283203 0.4321289
vt 0.35009766 0.4543457
vt 0.20947266 0.38989258
vt 0.2220459 0.43115234
vt 0.17663574 0.2331543
vt 0.12902832 0.26098633
vt 0.16967773 0.37719727
vt 0.3017578 0.13757324
vt 0.17224121 0.19519043
vt 0.328125 0.48266602
vt 0.23083496 0.4597168
vt 0.23596191 0.47705078
vt 0.3137207 0.50146484
vt 0.24377441 0.5024414
vt 0.25390625 0.53027344
vt 0.29296875 0.52783203
vt 0.24926758 0.51904297
vt 0.30249023 0.515625
vt 0.25732422 0.5361328
vt 0.2607422 0.54003906
vt 0.28125 0.5390625
vt 0.28710938 0.5341797
vt 0.27490234 0.54248047
vt 0.26879883 0.5439453
vt 0.26464844 0.54296875
vt 0.4416504 0.4375
vt 0.4885254 0.33203125
vt 0.4716797 0.3112793
vt 0.48413086 0.4440918
vt 0.51708984 0.36694336
vt 0.5205078 0.44995117
vt 0.5410156 0.39697266
vt 0.54345703 0.45166016
vt 0.5546875 0.41381836
vt 0.5546875 0.45092773
vt 0.56347656 0.4272461
vt 0.56103516 0.44873047
vt 0.5654297 0.44482422
vt 0.56640625 0.43945312
vt 0.5654297 0.43359375
vt 0.13024902 0.3647461
vt 0.2626953 0.103271484
vt 0.16662598 0.14758301
vt 0.22607422 0.0713501
vt 0.16223145 0.109680176
vt 0.20019531 0.048980713
vt 0.15783691 0.072387695
vt 0.1895752 0.04119873
vt 0.15771484 0.050048828
vt 0.18066406 0.036102295
vt 0.17236328 0.033843994
vt 0.15734863 0.062469482
vt 0.16027832 0.040527344
vt 0.16271973 0.036956787
vt 0.1661377 0.0345459
vt 0.038970947 0.8339844
vt 0.036499023 0.8354492
vt 0.030944824 0.6977539
vt 0.029418945 0.74609375
vt 0.03286743 0.6972656
vt 0.036468506 0.6982422
vt 0.042633057 0.7583008
vt 0.03729248 0.75390625
vt 0.032562256 0.7495117
vt 0.029846191 0.69970703
vt 0.02684021 0.74316406
vt 0.024765015 0.7397461
vt 0.023025513 0.73583984
vt 0.022232056 0.7319336
vt 0.022140503 0.7285156
vt 0.02293396 0.7246094
vt 0.36499023 0.57666016
vt 0.3647461 0.5498047
vt 0.359375 0.5654297
vt 0.35888672 0.5600586
vt 0.36010742 0.5541992
vt 0.37939453 0.5463867
vt 0.3696289 0.5830078
vt 0.3725586 0.58740234
vt 0.37231445 0.5473633
vt 0.39526367 0.5463867
vt 0.39233398 0.609375
vt 0.44091797 0.5522461
vt 0.40942383 0.62890625
vt 0.43115234 0.6533203
vt 0.45166016 0.67626953
vt 0.47753906 0.5566406
vt 0.09509277 0.28027344
vt 0.07354736 0.29248047
vt 0.09686279 0.3544922
vt 0.05822754 0.30126953
vt 0.066223145 0.34472656
vt 0.04711914 0.30932617
vt 0.05429077 0.33984375
vt 0.04067993 0.3166504
vt 0.044799805 0.33398438
vt 0.039916992 0.32910156
vt 0.03869629 0.32592773
vt 0.03869629 0.32250977
vn 0.036499023 0.037994385 -0.99853516
vn 0.036499023 0.037994385 -0.99853516
vn 0.036499023 0.037963867 -0.99853516
vn 0.036499023 0.037994385 -0.99853516
vn 0.036499023 0.037994385 -0.99853516
vn 0.036499023 0.037994385 -0.99853516
vn 0.036468506 0.037994385 -0.99853516
vn 0.036499023 0.037994385 -0.99853516
vn 0.036499023 0.037994385 -0.99853516
vn 0.036499023 0.037994385 -0.99853516
vn 0.036499023 0.037994385 -0.99853516
vn 0.036499023 0.037994385 -0.99853516
vn 0.036499023 0.037994385 -0.99853516
vn 0.036499023 0.037994385 -0.99853516
vn 0.036499023 0.037994385 -0.99853516
vn 0.036499023 0.037994385 -0.99853516
vn 0.036499023 0.037994385 -0.99853516
vn 0.036499023 0.037994385 -0.99853516
vn 0.036499023 0.037994385 -0.99853516
vn 0.036499023 0.037994385 -0.99853516
vn 0.036499023 0.037994385 -0.99853516
vn 0.036499023 0.037994385 -0.99853516
vn 0.036499023 0.037994385 -0.99853516
vn 0.036499023 0.037994385 -0.99853516
vn 0.036499023 0.037963867 -0.99853516
vn 0.036468506 0.037994385 -0.99853516
vn 0.036499023 0.037994385 -0.99853516
vn 0.036499023 0.037994385 -0.99853516
vn 0.036499023 0.037994385 -0.99853516
vn 0.036499023 0.037994385 -0.99853516
vn 0.036468506 0.037994385 -0.99853516
vn 0.036499023 0.037994385 -0.99853516
vn 0.036468506 0.037963867 -0.99853516
vn 0.036499023 0.037994385 -0.99853516
vn 0.036499023 0.037994385 -0.99853516
vn 0.036499023 0.037994385 -0.99853516
vn 0.036499023 0.037994385 -0.99853516
vn 0.036499023 0.037994385 -0.99853516
vn 0.036499023 0.037994385 -0.99853516
vn 0.036499023 0.037994385 -0.99853516
vn 0.036499023 0.037994385 -0.99853516
vn 0.036499023 0.037994385 -0.99853516
vn 0.036499023 0.037994385 -0.99853516
vn 0.036499023 0.037994385 -0.99853516
vn 0.036499023 0.037994385 -0.99853516
vn 0.036499023 0.037994385 -0.99853516
vn 0.036499023 0.037994385 -0.99853516
vn 0.036499023 0.037994385 -0.99853516
vn 0.036468506 0.037963867 -0.99853516
vn 0.036499023 0.037994385 -0.99853516
vn 0.036499023 0.037994385 -0.99853516
vn 0.036499023 0.037994385 -0.99853516
vn 0.036499023 0.037994385 -0.99853516
vn 0.036499023 0.037994385 -0.99853516
vn 0.036499023 0.037994385 -0.99853516
vn 0.036499023 0.037994385 -0.99853516
vn 0.036499023 0.037994385 -0.99853516
vn 0.036499023 0.037994385 -0.99853516
vn 0.036499023 0.037994385 -0.99853516
vn 0.036499023 0.037994385 -0.99853516
vn 0.036499023 0.037994385 -0.99853516
vn 0.036499023 0.037994385 -0.99853516
vn 0.036499023 0.037994385 -0.99853516
vn 0.036499023 0.037994385 -0.99853516
vn 0.036499023 0.037994385 -0.99853516
vn 0.036499023 0.037994385 -0.99853516
vn 0.036499023 0.037994385 -0.99853516
vn 0.036499023 0.037994385 -0.99853516
vn 0.036499023 0.037994385 -0.99853516
vn 0.036499023 0.037994385 -0.99853516
vn 0.036499023 0.037994385 -0.99853516
vn 0.036499023 0.037994385 -0.99853516
vn 0.036499023 0.037994385 -0.99853516
vn 0.036499023 0.037994385 -0.99853516
vn 0.036499023 0.037994385 -0.99853516
vn 0.036499023 0.037994385 -0.99853516
vn 0.036499023 0.037963867 -0.99853516
vn 0.036499023 0.037994385 -0.99853516
vn 0.036468506 0.037994385 -0.99853516
vn 0.036499023 0.037994385 -0.99853516
vn 0.03656006 0.037994385 -0.99853516
vn 0.036499023 0.037994385 -0.99853516
vn 0.036499023 0.037994385 -0.99853516
vn 0.036499023 0.037994385 -0.99853516
vn 0.036499023 0.037994385 -0.99853516
vn 0.036499023 0.037994385 -0.99853516
vn 0.036499023 0.037994385 -0.99853516
vn 0.036499023 0.037994385 -0.99853516
vn 0.036499023 0.037994385 -0.99853516
vn 0.036499023 0.037994385 -0.99853516
vn 0.036499023 0.037994385 -0.99853516
vn 0.036499023 0.037994385 -0.99853516
vn 0.036499023 0.037963867 -0.99853516
vn 0.036499023 0.037994385 -0.99853516
vn 0.036499023 0.037994385 -0.99853516
vn 0.036468506 0.037994385 -0.99853516
vn 0.036499023 0.037963867 -0.99853516
vn 0.036499023 0.037994385 -0.99853516
vn 0.036499023 0.037994385 -0.99853516
vn 0.036499023 0.037994385 -0.99853516
vn 0.036499023 0.037994385 -0.99853516
vn 0.036499023 0.037994385 -0.99853516
vn 0.036499023 0.037994385 -0.99853516
vn 0.036499023 0.037994385 -0.99853516
vn 0.036499023 0.037994385 -0.99853516
vn 0.036499023 0.037994385 -0.99853516
vn 0.036499023 0.037994385 -0.99853516
vn 0.036499023 0.037994385 -0.99853516
vn 0.036499023 0.037994385 -0.99853516
vn 0.036499023 0.037994385 -0.99853516
vn 0.036468506 0.037963867 -0.99853516
vn 0.036499023 0.037994385 -0.99853516
vn 0.036499023 0.037963867 -0.99853516
vn 0.036499023 0.037994385 -0.99853516
vn 0.036499023 0.037994385 -0.99853516
vn 0.036499023 0.037994385 -0.99853516
vn 0.036499023 0.037994385 -0.99853516
vn 0.036499023 0.037994385 -0.99853516
vn 0.036499023 0.037994385 -0.99853516
vn 0.036499023 0.037994385 -0.99853516
vn 0.036499023 0.037994385 -0.99853516
vn 0.036499023 0.037994385 -0.99853516
vn 0.036499023 0.037994385 -0.99853516
vn 0.036499023 0.037994385 -0.99853516
vn 0.036499023 0.037994385 -0.99853516
vn 0.036499023 0.037994385 -0.99853516
vn 0.036499023 0.037994385 -0.99853516
vn 0.036499023 0.037994385 -0.99853516
vn 0.036499023 0.037994385 -0.99853516
vn 0.036499023 0.037994385 -0.99853516
vn 0.036499023 0.037994385 -0.99853516
vn 0.036499023 0.037994385 -0.99853516
vn 0.036499023 0.037994385 -0.99853516
vn 0.036499023 0.037963867 -0.99853516
vn 0.036499023 0.037994385 -0.99853516
vn 0.036499023 0.037994385 -0.99853516
vn 0.036499023 0.037994385 -0.99853516
vn 0.036499023 0.037994385 -0.99853516
vn 0.036499023 0.037994385 -0.99853516
vn 0.036499023 0.037994385 -0.99853516
vn 0.036499023 0.037994385 -0.99853516
vn 0.036499023 0.037994385 -0.99853516
vn 0.036499023 0.037994385 -0.99853516
vn 0.036499023 0.037994385 -0.99853516
vn 0.036499023 0.037994385 -0.99853516
vn 0.036499023 0.037994385 -0.99853516
vn 0.036499023 0.037994385 -0.99853516
vn 0.036499023 0.037994385 -0.99853516
vn 0.036499023 0.037994385 -0.99853516
vn 0.036499023 0.037994385 -0.99853516
vn 0.036499023 0.037994385 -0.99853516
vn 0.036499023 0.037994385 -0.99853516
vn 0.036499023 0.037994385 -0.99853516
vn 0.036499023 0.037994385 -0.99853516
vn 0.036499023 0.037994385 -0.99853516
vn 0.036499023 0.037994385 -0.99853516
vn 0.036499023 0.037994385 -0.99853516
vn 0.036499023 0.037994385 -0.99853516
vn 0.036499023 0.037994385 -0.99853516
vn 0.036499023 0.037994385 -0.99853516
vn 0.036499023 0.037994385 -0.99853516
vn 0.036499023 0.037994385 -0.99853516
vn 0.036499023 0.037994385 -0.99853516
vn 0.036499023 0.037994385 -0.99853516
vn 0.036499023 0.037994385 -0.99853516
vn 0.036499023 0.037994385 -0.99853516
vn 0.036499023 0.037994385 -0.99853516
vn 0.036499023 0.037994385 -0.99853516
vn 0.036499023 0.037994385 -0.99853516
vn 0.036499023 0.037994385 -0.99853516
vn 0.036499023 0.037994385 -0.99853516
vn 0.036499023 0.037994385 -0.99853516
vn 0.036499023 0.037994385 -0.99853516
vn 0.036499023 0.037994385 -0.99853516
vn 0.036499023 0.037994385 -0.99853516
vn 0.036499023 0.037994385 -0.99853516
vn 0.036499023 0.037963867 -0.99853516
vn 0.036499023 0.037994385 -0.99853516
vn 0.036499023 0.037994385 -0.99853516
vn 0.036499023 0.037994385 -0.99853516
vn 0.036499023 0.037994385 -0.99853516
vn 0.036499023 0.037994385 -0.99853516
vn 0.036499023 0.037994385 -0.99853516
vn 0.036499023 0.037994385 -0.99853516
vn 0.036499023 0.037994385 -0.99853516
vn 0.036499023 0.037994385 -0.99853516
vn 0.036499023 0.037994385 -0.99853516
vn 0.036499023 0.037994385 -0.99853516
vn 0.036499023 0.037994385 -0.99853516
vn 0.036499023 0.037994385 -0.99853516
vn 0.036499023 0.037994385 -0.99853516
vn 0.036499023 0.037994385 -0.99853516
vn 0.036499023 0.037994385 -0.99853516
vn 0.036499023 0.037994385 -0.99853516
vn 0.036499023 0.037994385 -0.99853516
vn 0.036499023 0.037994385 -0.99853516
vn 0.036499023 0.037994385 -0.99853516
vn 0.036499023 0.037994385 -0.99853516
vn 0.036499023 0.037994385 -0.99853516
vn 0.036499023 0.037994385 -0.99853516
vn 0.036499023 0.037994385 -0.99853516
vn 0.036499023 0.037994385 -0.99853516
vn 0.036499023 0.037994385 -0.99853516
vn 0.036499023 0.037994385 -0.99853516
vn 0.036499023 0.037994385 -0.99853516
vn 0.036499023 0.037994385 -0.99853516
vn 0.036468506 0.037994385 -0.99853516
vn 0.036468506 0.037994385 -0.99853516
vn 0.036499023 0.037994385 -0.99853516
vn 0.036499023 0.037994385 -0.99853516
vn 0.036499023 0.037994385 -0.99853516
vn 0.036499023 0.037994385 -0.99853516
vn 0.036499023 0.037994385 -0.99853516
vn 0.036499023 0.037994385 -0.99853516
vn 0.036499023 0.037994385 -0.99853516
vn 0.036499023 0.037994385 -0.99853516
vn 0.036499023 0.037994385 -0.99853516
vn 0.036499023 0.037994385 -0.99853516
vn 0.036499023 0.037994385 -0.99853516
vn 0.036499023 0.037994385 -0.99853516
vn 0.036499023 0.037994385 -0.99853516
vn 0.036499023 0.037994385 -0.99853516
vn 0.036499023 0.037994385 -0.99853516
vn 0.036499023 0.037994385 -0.99853516
vn 0.036499023 0.037994385 -0.99853516
vn 0.036499023 0.037994385 -0.99853516
vn 0.036499023 0.037994385 -0.99853516
vn 0.036499023 0.037994385 -0.99853516
vn 0.036499023 0.037994385 -0.99853516
vn 0.036499023 0.037994385 -0.99853516
vn 0.036499023 0.037994385 -0.99853516
vn 0.036499023 0.037994385 -0.99853516
vn 0.036499023 0.037994385 -0.99853516
vn 0.036499023 0.037994385 -0.99853516
vn 0.036499023 0.037963867 -0.99853516
vn 0.036499023 0.037994385 -0.99853516
vn 0.036499023 0.037994385 -0.99853516
vn 0.036499023 0.037994385 -0.99853516
vn 0.036499023 0.037994385 -0.99853516
vn 0.036499023 0.037994385 -0.99853516
vn 0.036499023 0.037994385 -0.99853516
vn 0.036499023 0.037994385 -0.99853516
vn 0.036499023 0.037994385 -0.99853516
vn 0.036499023 0.037994385 -0.99853516
vn 0.036499023 0.037994385 -0.99853516
vn 0.036499023 0.037994385 -0.99853516
vn 0.036499023 0.037994385 -0.99853516
vn 0.036499023 0.037994385 -0.99853516
vn 0.036499023 0.037994385 -0.99853516
vn 0.036499023 0.037994385 -0.99853516
vn 0.036499023 0.037994385 -0.99853516
vn 0.036499023 0.037994385 -0.99853516
vn 0.036499023 0.037994385 -0.99853516
vn 0.036499023 0.037994385 -0.99853516
vn 0.036499023 0.037994385 -0.99853516
vn 0.036499023 0.037994385 -0.99853516
vn 0.036499023 0.037994385 -0.99853516
vn 0.036499023 0.037994385 -0.99853516
vn 0.036499023 0.037994385 -0.99853516
vn 0.036499023 0.037994385 -0.99853516
vn 0.036499023 0.037994385 -0.99853516
vn 0.036499023 0.037994385 -0.99853516
vn 0.036499023 0.037994385 -0.99853516
vn 0.036499023 0.037994385 -0.99853516
vn 0.036468506 0.037994385 -0.99853516
vn 0.036468506 0.037994385 -0.99853516
vn 0.036468506 0.037994385 -0.99853516
vn 0.036499023 0.037994385 -0.99853516
vn 0.036499023 0.037994385 -0.99853516
vn 0.036499023 0.037994385 -0.99853516
vn 0.036499023 0.037994385 -0.99853516
vn 0.036499023 0.037994385 -0.99853516
vn 0.036499023 0.037994385 -0.99853516
vn 0.036499023 0.037994385 -0.99853516
vn 0.036499023 0.037994385 -0.99853516
vn 0.036468506 0.037994385 -0.99853516
vn 0.036499023 0.037994385 -0.99853516
vn 0.036499023 0.037994385 -0.99853516
vn 0.036499023 0.037994385 -0.99853516
vn 0.036468506 0.037963867 -0.99853516
vn 0.036499023 0.037994385 -0.99853516
vn 0.036499023 0.037994385 -0.99853516
vn 0.036499023 0.037994385 -0.99853516
vn 0.036499023 0.037994385 -0.99853516
vn 0.036499023 0.037994385 -0.99853516
vn 0.036499023 0.037994385 -0.99853516
vn 0.036499023 0.037994385 -0.99853516
vn 0.036499023 0.037994385 -0.99853516
vn 0.036499023 0.037994385 -0.99853516
vn 0.036499023 0.037994385 -0.99853516
vn 0.036499023 0.037994385 -0.99853516
vn 0.036499023 0.037994385 -0.99853516
vn 0.036499023 0.037994385 -0.99853516
vn 0.036499023 0.037994385 -0.99853516
vn 0.036499023 0.037994385 -0.99853516
vn 0.036499023 0.037994385 -0.99853516
vn 0.036499023 0.037994385 -0.99853516
vn 0.036499023 0.037994385 -0.99853516
vn 0.036499023 0.037994385 -0.99853516
vn 0.036499023 0.037994385 -0.99853516
vn 0.036499023 0.037994385 -0.99853516
vn 0.036499023 0.037994385 -0.99853516
vn 0.036499023 0.037994385 -0.99853516
vn 0.036499023 0.037994385 -0.99853516
vn 0.036499023 0.037994385 -0.99853516
vn 0.036499023 0.037994385 -0.99853516
vn 0.036468506 0.037994385 -0.99853516
vn 0.036468506 0.037994385 -0.99853516
vn 0.036499023 0.037963867 -0.99853516
g cPK_20_000760_00_STARMIEex_SR_L_SB_0
f 3/3/3 2/2/2 1/1/1
f 3/3/3 4/4/4 2/2/2
f 3/3/3 5/5/5 4/4/4
f 3/3/3 6/6/6 5/5/5
f 7/7/7 6/6/6 3/3/3
f 10/10/10 9/9/9 8/8/8
f 13/13/13 12/12/12 11/11/11
f 14/14/14 13/13/13 11/11/11
f 17/17/17 16/16/16 15/15/15
f 20/20/20 19/19/19 18/18/18
f 20/20/20 21/21/21 19/19/19
f 22/22/22 21/21/21 20/20/20
f 25/25/25 24/24/24 23/23/23
f 26/26/26 24/24/24 25/25/25
f 27/27/27 24/24/24 26/26/26
f 28/28/28 24/24/24 27/27/27
f 28/28/28 29/29/29 24/24/24
f 28/28/28 30/30/30 29/29/29
f 28/28/28 31/31/31 30/30/30
f 32/32/32 31/31/31 28/28/28
f 31/31/31 32/32/32 33/33/33
f 36/36/36 35/35/35 34/34/34
f 39/39/39 38/38/38 37/37/37
f 42/42/42 41/41/41 40/40/40
f 42/42/42 43/43/43 41/41/41
f 44/44/44 20/20/20 18/18/18
f 45/45/45 20/20/20 44/44/44
f 45/45/45 46/46/46 20/20/20
f 45/45/45 47/47/47 46/46/46
f 45/45/45 48/48/48 47/47/47
f 45/45/45 49/49/49 48/48/48
f 50/50/50 49/49/49 45/45/45
f 51/51/51 43/43/43 22/22/22
f 51/51/51 22/22/22 20/20/20
f 51/51/51 41/41/41 43/43/43
f 40/40/40 53/53/53 52/52/52
f 53/53/53 54/54/54 52/52/52
f 53/53/53 55/55/55 54/54/54
f 2/2/2 55/55/55 53/53/53
f 40/40/40 52/52/52 42/42/42
f 23/23/23 56/56/56 25/25/25
f 23/23/23 57/57/57 56/56/56
f 58/58/58 57/57/57 23/23/23
f 60/60/60 59/59/59 58/58/58
f 58/58/58 61/61/61 60/60/60
f 58/58/58 62/62/62 61/61/61
f 23/23/23 62/62/62 58/58/58
f 13/13/13 63/63/63 12/12/12
f 65/65/65 64/64/64 11/11/11
f 66/66/66 64/64/64 65/65/65
f 67/67/67 64/64/64 66/66/66
f 67/67/67 68/68/68 64/64/64
f 67/67/67 69/69/69 68/68/68
f 67/67/67 70/70/70 69/69/69
f 71/71/71 70/70/70 67/67/67
f 72/72/72 70/70/70 71/71/71
f 73/73/73 65/65/65 11/11/11
f 12/12/12 73/73/73 11/11/11
f 9/9/9 74/74/74 8/8/8
f 76/76/76 10/10/10 75/75/75
f 77/77/77 10/10/10 76/76/76
f 78/78/78 10/10/10 77/77/77
f 79/79/79 10/10/10 78/78/78
f 79/79/79 80/80/80 10/10/10
f 81/81/81 80/80/80 79/79/79
f 82/82/82 10/10/10 8/8/8
f 10/10/10 83/83/83 75/75/75
f 82/82/82 83/83/83 10/10/10
f 84/84/84 36/36/36 34/34/34
f 85/85/85 84/84/84 34/34/34
f 87/87/87 86/86/86 35/35/35
f 88/88/88 87/87/87 35/35/35
f 89/89/89 35/35/35 36/36/36
f 90/90/90 35/35/35 89/89/89
f 90/90/90 88/88/88 35/35/35
f 91/91/91 87/87/87 88/88/88
f 91/91/91 92/92/92 87/87/87
f 91/91/91 93/93/93 92/92/92
f 94/94/94 93/93/93 91/91/91
f 95/95/95 93/93/93 94/94/94
f 96/96/96 93/93/93 95/95/95
f 97/97/97 93/93/93 96/96/96
f 98/98/98 39/39/39 37/37/37
f 100/100/100 99/99/99 15/15/15
f 16/16/16 100/100/100 15/15/15
f 102/102/102 101/101/101 100/100/100
f 103/103/103 102/102/102 100/100/100
f 16/16/16 103/103/103 100/100/100
f 2/2/2 104/104/104 1/1/1
f 2/2/2 105/105/105 104/104/104
f 53/53/53 105/105/105 2/2/2
f 15/15/15 106/106/106 17/17/17
f 15/15/15 107/107/107 106/106/106
f 15/15/15 108/108/108 107/107/107
f 15/15/15 109/109/109 108/108/108
f 110/110/110 109/109/109 15/15/15
f 111/111/111 109/109/109 110/110/110
f 112/112/112 109/109/109 111/111/111
f 113/113/113 109/109/109 112/112/112
f 60/60/60 114/114/114 102/102/102
f 40/40/40 114/114/114 60/60/60
f 41/41/41 114/114/114 40/40/40
f 102/102/102 59/59/59 60/60/60
f 102/102/102 103/103/103 59/59/59
f 103/103/103 115/115/115 59/59/59
f 103/103/103 98/98/98 115/115/115
f 98/98/98 13/13/13 115/115/115
f 37/37/37 116/116/116 63/63/63
f 37/37/37 84/84/84 116/116/116
f 85/85/85 116/116/116 84/84/84
f 85/85/85 9/9/9 116/116/116
f 98/98/98 63/63/63 13/13/13
f 98/98/98 37/37/37 63/63/63
f 85/85/85 74/74/74 9/9/9
f 85/85/85 34/34/34 74/74/74
f 119/119/119 118/118/118 117/117/117
f 119/119/119 120/120/120 118/118/118
f 121/121/121 120/120/120 119/119/119
f 121/121/121 122/122/122 120/120/120
f 123/123/123 122/122/122 121/121/121
f 126/126/126 125/125/125 124/124/124
f 128/128/128 127/127/127 125/125/125
f 128/128/128 129/129/129 127/127/127
f 125/125/125 127/127/127 124/124/124
f 130/130/130 129/129/129 128/128/128
f 130/130/130 131/131/131 129/129/129
f 117/117/117 131/131/131 130/130/130
f 117/117/117 118/118/118 131/131/131
f 134/134/134 133/133/133 132/132/132
f 134/134/134 135/135/135 133/133/133
f 136/136/136 135/135/135 134/134/134
f 139/139/139 138/138/138 137/137/137
f 142/142/142 141/141/141 140/140/140
f 143/143/143 142/142/142 140/140/140
f 145/145/145 126/126/126 144/144/144
f 148/148/148 147/147/147 146/146/146
f 149/149/149 147/147/147 148/148/148
f 149/149/149 132/132/132 147/147/147
f 133/133/133 150/150/150 147/147/147
f 132/132/132 133/133/133 147/147/147
f 152/152/152 146/146/146 151/151/151
f 153/153/153 152/152/152 151/151/151
f 147/147/147 154/154/154 151/151/151
f 146/146/146 147/147/147 151/151/151
f 156/156/156 153/153/153 155/155/155
f 153/153/153 151/151/151 155/155/155
f 158/158/158 156/156/156 157/157/157
f 156/156/156 155/155/155 157/157/157
f 158/158/158 126/126/126 145/145/145
f 158/158/158 157/157/157 126/126/126
f 138/138/138 159/159/159 137/137/137
f 161/161/161 139/139/139 160/160/160
f 162/162/162 161/161/161 160/160/160
f 139/139/139 137/137/137 160/160/160
f 164/164/164 162/162/162 163/163/163
f 162/162/162 160/160/160 163/163/163
f 166/166/166 164/164/164 165/165/165
f 167/167/167 166/166/166 165/165/165
f 164/164/164 163/163/163 165/165/165
f 169/169/169 167/167/167 168/168/168
f 170/170/170 169/169/169 168/168/168
f 167/167/167 165/165/165 168/168/168
f 168/168/168 172/172/172 171/171/171
f 170/170/170 168/168/168 171/171/171
f 174/174/174 173/173/173 159/159/159
f 145/145/145 174/174/174 159/159/159
f 138/138/138 145/145/145 159/159/159
f 176/176/176 175/175/175 124/124/124
f 124/124/124 175/175/175 144/144/144
f 141/141/141 177/177/177 140/140/140
f 179/179/179 143/143/143 178/178/178
f 180/180/180 179/179/179 178/178/178
f 140/140/140 181/181/181 178/178/178
f 143/143/143 140/140/140 178/178/178
f 183/183/183 180/180/180 182/182/182
f 184/184/184 183/183/183 182/182/182
f 180/180/180 178/178/178 182/182/182
f 182/182/182 186/186/186 185/185/185
f 184/184/184 182/182/182 185/185/185
f 189/189/189 188/188/188 187/187/187
f 144/144/144 190/190/190 174/174/174
f 190/190/190 187/187/187 174/174/174
f 190/190/190 189/189/189 187/187/187
f 191/191/191 185/185/185 188/188/188
f 189/189/189 191/191/191 188/188/188
f 191/191/191 184/184/184 185/185/185
f 145/145/145 144/144/144 174/174/174
f 126/126/126 124/124/124 144/144/144
f 194/194/194 193/193/193 192/192/192
f 194/194/194 195/195/195 193/193/193
f 198/198/198 197/197/197 196/196/196
f 198/198/198 199/199/199 197/197/197
f 202/202/202 201/201/201 200/200/200
f 202/202/202 203/203/203 201/201/201
f 204/204/204 203/203/203 202/202/202
f 204/204/204 205/205/205 203/203/203
f 206/206/206 205/205/205 204/204/204
f 207/207/207 205/205/205 206/206/206
f 208/208/208 207/207/207 206/206/206
f 198/198/198 195/195/195 194/194/194
f 198/198/198 196/196/196 195/195/195
f 200/200/200 197/197/197 199/199/199
f 201/201/201 209/209/209 197/197/197
f 200/200/200 201/201/201 197/197/197
f 192/192/192 193/193/193 210/210/210
f 193/193/193 211/211/211 210/210/210
f 214/214/214 213/213/213 212/212/212
f 217/217/217 216/216/216 215/215/215
f 219/219/219 218/218/218 192/192/192
f 213/213/213 210/210/210 212/212/212
f 221/221/221 214/214/214 220/220/220
f 222/222/222 221/221/221 220/220/220
f 214/214/214 212/212/212 220/220/220
f 224/224/224 222/222/222 223/223/223
f 222/222/222 220/220/220 223/223/223
f 224/224/224 226/226/226 225/225/225
f 227/227/227 224/224/224 225/225/225
f 223/223/223 228/228/228 226/226/226
f 224/224/224 223/223/223 226/226/226
f 230/230/230 229/229/229 225/225/225
f 231/231/231 230/230/230 225/225/225
f 232/232/232 231/231/231 225/225/225
f 226/226/226 232/232/232 225/225/225
f 233/233/233 230/230/230 231/231/231
f 234/234/234 230/230/230 233/233/233
f 234/234/234 235/235/235 230/230/230
f 237/237/237 236/236/236 211/211/211
f 238/238/238 237/237/237 211/211/211
f 193/193/193 238/238/238 211/211/211
f 240/240/240 239/239/239 236/236/236
f 237/237/237 240/240/240 236/236/236
f 242/242/242 241/241/241 239/239/239
f 240/240/240 242/242/242 239/239/239
f 244/244/244 243/243/243 241/241/241
f 242/242/242 244/244/244 241/241/241
f 246/246/246 245/245/245 243/243/243
f 244/244/244 246/246/246 243/243/243
f 248/248/248 247/247/247 245/245/245
f 249/249/249 248/248/248 245/245/245
f 250/250/250 249/249/249 245/245/245
f 246/246/246 250/250/250 245/245/245
f 213/213/213 217/217/217 215/215/215
f 217/217/217 251/251/251 216/216/216
f 215/215/215 219/219/219 192/192/192
f 253/253/253 252/252/252 218/218/218
f 219/219/219 253/253/253 218/218/218
f 255/255/255 254/254/254 252/252/252
f 253/253/253 255/255/255 252/252/252
f 257/257/257 256/256/256 254/254/254
f 255/255/255 257/257/257 254/254/254
f 259/259/259 258/258/258 256/256/256
f 259/259/259 260/260/260 258/258/258
f 261/261/261 260/260/260 259/259/259
f 262/262/262 259/259/259 256/256/256
f 257/257/257 262/262/262 256/256/256
f 263/263/263 261/261/261 259/259/259
f 264/264/264 261/261/261 263/263/263
f 264/264/264 265/265/265 261/261/261
f 210/210/210 213/213/213 215/215/215
f 210/210/210 215/215/215 192/192/192
g cPK_20_000760_00_STARMIEex_SR_L_SB_1
f 17/17/17 266/266/266 16/16/16
f 267/267/267 266/266/266 17/17/17
f 270/270/270 269/269/269 268/268/268
f 271/271/271 269/269/269 270/270/270
f 38/38/38 269/269/269 271/271/271
f 272/272/272 38/38/38 39/39/39
f 273/273/273 38/38/38 272/272/272
f 274/274/274 38/38/38 273/273/273
f 274/274/274 269/269/269 38/38/38
f 269/269/269 275/275/275 268/268/268
f 276/276/276 275/275/275 269/269/269
f 277/277/277 275/275/275 276/276/276
f 278/278/278 275/275/275 277/277/277
f 279/279/279 275/275/275 278/278/278
f 280/280/280 275/275/275 279/279/279
f 281/281/281 275/275/275 280/280/280
f 284/284/284 283/283/283 282/282/282
f 285/285/285 283/283/283 284/284/284
f 285/285/285 286/286/286 283/283/283
f 288/288/288 282/282/282 287/287/287
f 289/289/289 288/288/288 287/287/287
f 283/283/283 290/290/290 287/287/287
f 282/282/282 283/283/283 287/287/287
f 292/292/292 289/289/289 291/291/291
f 289/289/289 287/287/287 291/291/291
f 294/294/294 292/292/292 293/293/293
f 295/295/295 294/294/294 293/293/293
f 292/292/292 291/291/291 293/293/293
f 296/296/296 175/175/175 176/176/176
f 296/296/296 295/295/295 175/175/175
f 293/293/293 297/297/297 175/175/175
f 295/295/295 293/293/293 175/175/175
f 251/251/251 298/298/298 216/216/216
f 300/300/300 299/299/299 298/298/298
f 251/251/251 300/300/300 298/298/298
f 302/302/302 301/301/301 299/299/299
f 300/300/300 302/302/302 299/299/299
f 304/304/304 303/303/303 301/301/301
f 302/302/302 304/304/304 301/301/301
f 306/306/306 305/305/305 303/303/303
f 304/304/304 306/306/306 303/303/303
f 307/307/307 305/305/305 306/306/306
f 308/308/308 305/305/305 307/307/307
f 308/308/308 309/309/309 305/305/305
