g cPK_10_000760_00_STARMIEex_RR_L_SB
v 0.30348969 0.21673612 -0.015802579
v 0.26847848 0.24417582 -0.014852392
v 0.25297314 0.20221081 -0.02128199
v 0.2573173 0.19890063 -0.021366414
v -0.20328866 -0.0013310009 -0.038419805
v -0.18320742 -0.02318198 -0.03937069
v -0.15704404 0.019770285 -0.030303568
v 0.18841022 0.008027951 -0.026274417
v 0.18858708 0.0025287985 -0.026274413
v 0.24828617 -0.01989709 -0.032561805
v 0.054021895 0.052951574 -0.01589769
v 0.015144785 0.07778863 -0.013831304
v 0.022737758 0.0075408714 -0.02370706
v 0.09953896 -0.04408693 -0.032735195
v 0.15287212 -0.059855707 -0.035607934
v 0.15089785 0.0043024793 -0.023934586
v 0.12576424 0.013567065 -0.021546615
v 0.09670809 0.027821679 -0.019310378
v 0.061138358 -0.018273031 -0.027580172
v 0.17082594 -6.713118E-05 -0.025253076
v 0.20556045 -0.057190567 -0.03557123
v 0.18655136 -0.00044131652 -0.026274413
v -0.18277907 0.1419035 -0.018801704
v -0.1333757 0.100529134 -0.018873252
v -0.114530884 0.13123532 -0.014327844
v -0.094900385 0.1603577 -0.00965062
v -0.20293975 0.09387194 -0.025336845
v -0.14874282 0.07507544 -0.023105789
v -0.21179155 0.057490587 -0.031215388
v -0.15814696 0.048624855 -0.026874712
v -0.21330455 0.024785804 -0.036234837
v -0.16016905 0.03293272 -0.02858213
v -0.08191198 -0.032449562 -0.038505584
v -0.1497408 0.019969074 -0.029876536
v -0.0147686545 -0.034697082 -0.03598664
v 0.025529666 -0.03299969 -0.033704802
v 0.021305734 -0.006198337 -0.028599307
v -0.0037819804 0.0032403008 -0.027332345
v -0.11606649 0.03694984 -0.024698991
v -0.07633623 0.051925957 -0.021284468
v -0.030079022 0.06403783 -0.018710056
v 0.3159274 0.18273269 -0.01723712
v 0.250751 0.19001229 -0.020590503
v 0.30477577 0.14940529 -0.019856637
v 0.24188101 0.18112394 -0.020087762
v 0.2334564 0.08674771 -0.024224838
v 0.15993674 0.12599297 -0.018897593
v 0.14649588 0.12049382 -0.015886363
v 0.20149735 0.1479895 -0.020476539
v 0.18196528 0.13641351 -0.02014661
v 0.22292946 0.16450728 -0.01997329
v 0.27158123 0.11666357 -0.02168161
v 0.32246926 0.066897124 -0.031389676
v 0.3179319 0.102718525 -0.029440612
v 0.26158342 0.06699001 -0.029447133
v 0.17092316 0.043690767 -0.02232083
v 0.1535307 0.09650141 -0.017350292
v 0.2025585 0.20156157 -0.019421512
v 0.22979395 0.20138417 -0.020801865
v 0.1861085 0.2736573 -0.010084859
v 0.22909482 0.26178524 -0.011321905
v 0.15972722 0.27535012 -0.007892144
v 0.135531 0.2109633 -0.021827323
v 0.17135404 0.2045772 -0.018930497
v 0.11101142 0.21593021 -0.021271769
v 0.16056553 0.07250901 -0.019649943
v -0.13315628 0.028966282 -0.027011722
v 0.1810038 0.02329796 -0.024725972
v -0.18545875 0.06793815 -0.039393123
v -0.14612807 0.07969729 -0.037315894
v -0.16331077 0.119295776 -0.02747778
v -0.20852916 0.3028969 -0.01106225
v -0.22536369 0.24981187 -0.012894955
v -0.17919302 0.27599642 -0.012894955
v -0.13916375 0.36537006 -0.0092299385
v -0.118879735 0.3366542 -0.0092299385
v -0.11495924 0.33671924 -0.0092299385
v 0.07671856 -0.041616526 -0.048699077
v 0.011396186 -0.02779122 -0.04061199
v 0.015412291 -0.06016753 -0.04659346
v 0.19598691 0.09232271 -0.028661152
v 0.15053041 0.09196403 -0.028512418
v 0.14431657 0.063659675 -0.037396904
v 0.19880883 0.055698074 -0.042253148
v 0.16132987 0.22212087 -0.018742222
v 0.1474475 0.18775919 -0.026274726
v 0.17367493 0.20176934 -0.025932228
v 0.15129066 0.33893982 -0.00929605
v 0.11550206 0.34523523 -0.0100358
v 0.10990212 0.31574914 -0.009894378
v -0.14014746 0.24198687 -0.014844293
v -0.12339757 0.22288004 -0.017789328
v -0.09767815 0.23288777 -0.017438542
v -0.08521549 0.05790288 -0.039354347
v -0.05068115 0.06275103 -0.032853823
v -0.06476569 0.09484339 -0.030989563
v 0.26904982 0.215079 -0.027059102
v 0.23322137 0.24058281 -0.02348972
v 0.22896962 0.21616547 -0.025117634
v 0.10633027 0.072945595 -0.033801846
v 0.09057591 0.09656438 -0.029331287
v 0.071340255 0.07327658 -0.032161437
v 0.088139825 0.037927043 -0.033673722
v 0.055554945 0.05357917 -0.03410782
v 0.037932895 0.0268455 -0.036374535
v -0.0065607647 -0.011530397 -0.03938348
v -0.020016007 -0.052675214 -0.044817504
v -0.031606592 0.027360564 -0.035759714
v -0.07083533 0.018475823 -0.040371653
v -0.094958104 0.0983718 -0.035993796
v -0.07614428 0.1273243 -0.027571658
v -0.053629536 -0.01441931 -0.041908342
v -0.02003528 0.008007376 -0.037369188
v -0.13215889 0.14206111 -0.023665259
v -0.16454476 0.14723498 -0.022299616
v -0.1041516 0.135241 -0.024720956
v -0.29082492 0.18185316 -0.016683916
v -0.26245996 0.15401731 -0.018935224
v -0.2563737 0.16152471 -0.018263718
v -0.25766933 0.21055591 -0.016243478
v -0.22316504 0.18177801 -0.01958103
v -0.20075464 0.22971757 -0.015651314
v -0.19291501 0.1954963 -0.02013014
v -0.15621297 0.20989287 -0.01859749
v 0.003915337 0.2826512 -0.01570031
v 0.03546165 0.26390734 -0.01938053
v 0.042582665 0.3075784 -0.012103195
v -0.006434449 0.33456415 -0.01141711
v -0.10562903 0.37220916 -0.0092299385
v -0.10068442 0.33474645 -0.009376771
v -0.055624124 0.31539112 -0.011163768
v -0.0325104 0.3032548 -0.01249293
v -0.05903649 0.36098984 -0.0101932725
v -0.07998597 0.326054 -0.010157681
v -0.10385364 0.28627157 -0.012040879
v -0.1106264 0.30478084 -0.010252092
v -0.14874773 0.28506407 -0.01215809
v -0.17339495 0.3384448 -0.010098918
v -0.098869674 0.26105854 -0.014678952
v -0.14060959 0.2635255 -0.013478803
v -0.11962255 0.32785293 -0.0092299385
v -0.20726319 0.1515426 -0.0203091
v -0.29375225 0.14876117 -0.019796757
v -0.27050182 0.12285792 -0.024089748
v -0.25309822 0.1521877 -0.019205084
v 0.029162837 0.010233886 -0.03756241
v 0.106465995 0.0099146245 -0.0407259
v 0.12375791 -0.04366105 -0.049666177
v 0.17030214 -0.031999726 -0.05057857
v 0.12517391 0.024496408 -0.03827509
v 0.021303063 -0.0089506535 -0.039164227
v 0.016662305 -0.022320865 -0.039921097
v 0.27108556 0.1061995 -0.030351257
v 0.2602386 0.060984608 -0.043417744
v 0.29859212 0.07645735 -0.045447346
v 0.23673733 0.09669445 -0.029222375
v 0.2875549 0.114767395 -0.031190315
v 0.20390454 0.14751504 -0.027724555
v 0.25245672 0.12789512 -0.029208386
v 0.2380112 0.17887515 -0.027917389
v 0.20451036 0.18451792 -0.027000222
v 0.17364186 0.16869523 -0.02823681
v 0.17446266 0.31306466 -0.010103235
v 0.21889865 0.32054377 -0.01015987
v 0.18631919 0.3405233 -0.010159868
v 0.2997394 0.17562805 -0.031552505
v 0.3268764 0.10562239 -0.043790128
v 0.31508482 0.14330411 -0.035547342
v 0.28186283 0.11883839 -0.030992955
v 0.19806372 0.23555796 -0.017069884
v 0.17836301 0.26963335 -0.013336256
v 0.1718218 0.24970162 -0.015174416
v 0.180012 0.30228636 -0.010627977
v 0.18126099 0.28878197 -0.0113382805
v 0.21855043 0.28459933 -0.012067154
v 0.13060325 0.28783146 -0.012140824
v 0.15098059 0.2986098 -0.010913305
v 0.0740036 0.27108094 -0.01698624
v 0.07565009 0.3077942 -0.012810496
v 0.110761285 0.2804067 -0.01371243
v 0.17162555 0.31306466 -0.010103235
v 0.08754413 0.34605557 -0.010303319
v 0.061264005 0.32969174 -0.009423062
v -0.06459915 0.30313244 -0.017563276
v -0.06528499 0.3334086 -0.015097749
v -0.09787964 0.32471094 -0.014778698
v -0.12122084 0.14453004 -0.03222343
v -0.0874687 0.12219999 -0.036534566
v -0.099816635 0.1508343 -0.03296888
v -0.122872055 0.3067542 -0.015849108
v -0.12126427 0.27813578 -0.017050544
v -0.09271645 0.28540474 -0.017413959
v 0.10468354 0.2866746 -0.017572286
v 0.1137793 0.28569382 -0.016552541
v 0.14367151 0.31026372 -0.014289156
v 0.10655012 0.32018843 -0.014116786
v 0.041530278 0.09701085 -0.044860233
v 0.015548955 0.100680105 -0.04706724
v 0.010398116 0.09231493 -0.04951467
v 0.044100277 0.08800166 -0.046644464
v -0.16342284 0.20053406 -0.0271866
v -0.12131896 0.17918997 -0.03358255
v -0.13660894 0.21463351 -0.023742354
v -0.08720467 0.19934486 -0.029910544
v -0.09296746 0.20882905 -0.026689297
v 0.16004932 0.12962012 -0.036157828
v 0.14500926 0.11916766 -0.039850727
v 0.14697415 0.09872446 -0.042638585
v 0.18332386 0.11118032 -0.041019034
v 0.018050717 0.3136947 -0.014721723
v 0.03903637 0.31151754 -0.013387141
v 0.051939495 0.3405447 -0.013603139
v 0.014672036 0.34368604 -0.011114222
v 0.18317983 0.20419708 -0.026339872
v 0.18576403 0.19364168 -0.027881116
v 0.21676505 0.18168901 -0.029142812
v 0.21711607 0.20832399 -0.02395828
v 0.04578748 0.12910096 -0.04678759
v 0.0624261 0.11308582 -0.04007253
v -0.051408585 0.12766592 -0.04054978
v -0.045513 0.15336707 -0.03673281
v -0.08201361 0.13706204 -0.03945773
v 0.15834765 0.14070031 -0.035770923
v 0.19051628 0.1383457 -0.037754368
v 0.1360635 0.2635448 -0.019858837
v 0.120352864 0.24251838 -0.024210397
v 0.16658185 0.26727158 -0.019988889
v 0.11669772 0.24834652 -0.024189098
v 0.13416396 0.27081165 -0.019263728
v 0.15997164 0.2918143 -0.016899882
v -0.017427256 0.32948333 -0.014221433
v -0.16507901 0.23531525 -0.021537159
v -0.13620557 0.2293636 -0.020280508
v -0.0023141939 0.11973061 -0.04500028
v 0.01048769 0.13259034 -0.042199317
v -0.016768176 0.1427025 -0.04115526
v -0.07794194 0.18410048 -0.035153296
v -0.14591174 0.2653952 -0.016882865
v -0.116992 0.24682914 -0.022965727
v -0.104967795 0.2516991 -0.023972541
v -0.067929804 0.26407915 -0.02360853
v -0.15854502 0.251999 -0.016987113
v -0.1275795 0.24020384 -0.021623835
v 0.07975949 0.13558291 -0.039920904
v 0.107995294 0.114361025 -0.03561217
v 0.10805439 0.14098166 -0.03554287
v 0.059384562 0.28806993 -0.020477548
v 0.06274625 0.28823677 -0.018759748
v 0.076679364 0.3191706 -0.014378786
v -0.042038474 0.29909632 -0.021369413
v -0.040688246 0.33403796 -0.015053046
v -0.031372186 0.2939789 -0.02243946
v -0.004547636 0.29467687 -0.022211878
v -0.020374266 0.28693664 -0.023014808
v -0.08841654 0.29087982 -0.017581074
v -0.0828196 0.29504988 -0.017908756
v -0.087322466 0.17325446 -0.034651563
v -0.09502158 0.16052875 -0.0337841
v -0.07373177 0.25588807 -0.025017986
v -0.054291345 0.3027348 -0.019377572
v 0.20071232 0.1669191 -0.03195452
v 0.18715777 0.16307598 -0.033451784
v 0.14659785 0.19338028 -0.029475087
v 0.15316616 0.15372148 -0.03536513
v 0.14669523 0.16429536 -0.03482529
v 0.17933694 0.21773927 -0.023898242
v 0.21234083 0.22704986 -0.020894453
v 0.16051157 0.23311877 -0.02230384
v 0.19683231 0.24852557 -0.019505268
v 0.17121327 0.2259494 -0.023011899
v 0.14407276 0.23884366 -0.022779299
v 0.13007413 0.27588072 -0.018426724
v 0.091583 0.2834724 -0.019159203
v 0.07911692 0.2775172 -0.020180255
v 0.043083046 0.2927821 -0.020190734
v 0.054472145 0.29151234 -0.019476179
v 0.04151057 0.3092599 -0.014582979
v 0.042712297 0.30193317 -0.017773895
v 0.013943942 0.29461855 -0.022176135
v 0.13861065 0.17492609 -0.034407493
v -0.087370664 0.2551742 -0.024647376
v 0.038678605 0.18345615 -0.023939619
v -0.027302582 0.11271471 -0.027599012
v 0.065024346 0.09865665 -0.02768584
v -0.02636905 0.23980045 -0.014588306
v -0.064823486 0.19522338 -0.020742053
v -0.060296495 0.13844766 -0.022704344
v 0.120466925 0.0870833 -0.028081877
v 0.13629779 0.05955714 -0.030944867
v 0.15633194 0.07024952 -0.024743317
v 0.14803189 0.0949351 -0.02264893
v 0.16019115 0.011038783 -0.028915564
v 0.0051858253 0.08598295 -0.021389026
v -0.04004857 0.0724445 -0.024606533
v -0.11053852 0.12836216 -0.019319206
v -0.089857176 0.1571645 -0.014502388
v 0.045349903 0.22506098 -0.019829612
v -0.08262548 0.057621807 -0.027405739
v -0.1200486 0.04230368 -0.030574912
v -0.14557146 0.071903504 -0.027058681
v -0.13012539 0.098022364 -0.023893842
v -0.13673411 0.035473984 -0.032409713
v -0.15500143 0.048978105 -0.029902747
v -0.15320924 0.035140116 -0.032463726
v 0.17004372 0.016708069 -0.02994716
v 0.1775635 0.021229438 -0.027862197
v 0.06479523 0.058592793 -0.022936454
v 0.10485011 0.034330692 -0.024679577
v 0.13343984 0.019825213 -0.026855294
v 0.15392216 0.03510858 -0.030827913
v 0.16721056 0.041816626 -0.027113115
v 0.2125229 0.18274757 -0.0247645
v 0.2344342 0.19360624 -0.023094608
v 0.18752535 0.17415997 -0.025806367
v 0.1292238 0.16703092 -0.024743773
v 0.14793931 0.16787109 -0.024999289
v 0.03151306 0.08463659 -0.021073816
v 0.104636036 0.11460947 -0.024306444
v 0.14133649 0.11976855 -0.02043805
v 0.09222197 0.0729542 -0.028689405
v 0.12058703 0.046911314 -0.029533371
v 0.14299372 0.02620678 -0.029874802
v -0.14555131 0.05003938 -0.03407445
v -0.123721875 0.047242306 -0.032615997
v -0.1365768 0.06290723 -0.03456391
v -0.09526208 0.06906612 -0.03148016
v -0.115290485 0.0865811 -0.032289203
v -0.06130431 0.090368085 -0.029047567
v -0.088848256 0.112752475 -0.027464265
v 0.17648695 0.17160472 -0.0257614
v 0.1537243 0.100920595 -0.033310663
v 0.08504871 0.10957452 -0.034289125
v 0.011082663 0.1402671 -0.03991099
v 0.028741455 0.22891347 -0.028390829
v -0.036458235 0.16770135 -0.034544993
v -0.058648895 0.31444356 -0.01361947
v -0.042991295 0.30405635 -0.016094321
v -0.05275582 0.243642 -0.025087336
v 0.0055433786 0.2575986 -0.02511218
v -0.019679045 0.2840185 -0.020035038
v -0.06502051 0.2708725 -0.021553487
v 0.06435074 0.24822019 -0.023425845
v 0.13034596 0.18099445 -0.030670336
v 0.113187276 0.21268685 -0.0272229
v -0.09241793 0.21988726 -0.02338227
v -0.085525945 0.1806863 -0.032773625
v 0.066037096 0.15432478 -0.034711096
v 0.01431534 -0.007249379 -0.04303349
v 0.007869475 -0.016907731 -0.043586764
v 0.0043427623 -0.0060242377 -0.04572563
v -0.0020737993 -0.008471536 -0.043110255
v -0.112317346 0.17868763 -0.03181958
v -0.11933845 0.21604411 -0.022840444
v -0.15486096 0.20768407 -0.021605263
v -0.1437291 0.17550617 -0.030539408
v 0.1370643 0.24198042 -0.022468159
v 0.10480956 0.26837847 -0.01884057
v 0.17604466 0.15855041 -0.030326573
v 0.19931257 0.116130374 -0.03579491
v 0.16199829 0.12318434 -0.035749283
v -0.010226694 0.010198849 -0.04495907
v 0.001215614 0.012755333 -0.048282925
v -0.00013225268 0.032447226 -0.049602706
v -0.016609764 0.029784251 -0.045876477
v 0.029925117 0.02806716 -0.042036258
v 0.022781882 0.010809586 -0.042448867
v 0.00016117486 0.06926354 -0.049049925
v -0.024157906 0.0661888 -0.04531578
v 0.045443356 0.056567956 -0.041022312
v -0.015809849 0.008951439 -0.041853715
v -0.029188761 0.09987143 -0.04278892
v 0.0054389997 0.10476535 -0.04489583
v -0.03449769 0.13350385 -0.039814886
v 0.06040538 0.07897345 -0.03911256
v -0.2548641 0.15614828 -0.020306254
v -0.21451758 0.16533595 -0.024847662
v -0.17889018 0.17163837 -0.028175348
v 0.26975426 0.11370548 -0.032713648
v 0.24455976 0.1131978 -0.034109287
v 0.11173767 0.13908431 -0.034535605
v 0.15254505 0.2640646 -0.019278
v 0.12887721 0.2816994 -0.015908668
v 0.14043193 0.28975013 -0.014103362
v 0.16151583 0.2787064 -0.017188473
v 0.16835009 0.29298148 -0.015101358
v -0.07715868 0.29407224 -0.017941156
v -0.09404321 0.31643838 -0.014162962
v -0.10941291 0.33156925 -0.011061381
v 0.015093674 0.011503231 -0.04559058
v 0.01704433 0.030032247 -0.04683595
v 0.02527203 0.06253021 -0.046725754
v 0.036752995 0.090089746 -0.044703875
v 0.050836362 0.11841186 -0.040833768
v -0.025792906 0.028300134 -0.04119266
v -0.04208062 0.06386577 -0.039277773
v -0.053855844 0.09638526 -0.03699088
v -0.10595063 0.14481291 -0.029973378
v -0.13526383 0.15012269 -0.027668422
v -0.1690103 0.15483144 -0.025518319
v -0.21051447 0.15772453 -0.022343198
v 0.23983608 0.104596816 -0.032830246
v 0.19698758 0.100270666 -0.032305777
v -0.06626191 0.13737875 -0.032246824
v 0.06997564 0.18826364 -0.035832323
v 0.05933717 0.23748954 -0.037964273
v 0.019583251 0.23887716 -0.041036528
v 0.0020169974 0.19415109 -0.040632635
v 0.020451233 0.18724495 -0.04234171
v -0.0009244731 0.18839356 -0.042992692
v -0.009886039 0.2815934 -0.027418187
v -0.045796175 0.2682847 -0.025087643
v 0.019657334 0.31082577 -0.016012644
v -0.009406624 0.25876024 -0.03567664
v 0.08942192 0.19252399 -0.034954246
v 0.073917605 0.1826878 -0.038261317
v 0.11328836 0.21448027 -0.027587533
v 0.084997006 0.25054187 -0.031993147
v 0.082597524 0.27245554 -0.023877947
v 0.1069741 0.25322494 -0.024029864
v -0.054202642 0.2706451 -0.024589613
v -0.037989773 0.27904373 -0.023877649
v -0.04796593 0.2865959 -0.023124296
v -0.04561033 0.22844778 -0.02863544
v -0.047750145 0.20890616 -0.033768386
v -0.03698315 0.21492212 -0.03258956
v -0.053860426 0.22745506 -0.02910314
v 0.09766756 0.26628768 -0.021894375
v 0.10695767 0.27210116 -0.020999778
v 0.12159125 0.21243612 -0.027947528
v 0.105375245 0.20239876 -0.030664666
v 0.021270975 0.16661958 -0.04683892
v 0.020143775 0.14805135 -0.04918859
v 0.019270156 0.13127412 -0.04925462
v -0.054085463 0.25551566 -0.0258954
v -0.070594944 0.29502618 -0.019945482
v 0.118637495 0.22817548 -0.026269129
v -0.07781698 0.14739323 -0.04023803
v 0.04641865 0.18486023 -0.039786097
v -0.126422 0.22722374 -0.025082389
v -0.018394528 0.20153259 -0.038339052
v -0.053660482 0.24014392 -0.02725631
v 0.11959561 0.19318333 -0.03211249
v 0.10377699 0.18362051 -0.037080776
v 0.11452361 0.2549511 -0.023963144
v 0.11828958 0.2760114 -0.019751314
v 0.020220827 0.29422295 -0.021765007
v 0.020368591 0.30340123 -0.019288382
v -0.058781564 0.29169255 -0.021779735
v -0.07325607 0.24161163 -0.027469382
v -0.08716643 0.24129985 -0.027344218
v -0.11593282 0.23297444 -0.025821075
v -0.10418137 0.23795767 -0.02665626
v -0.029456338 0.1954235 -0.03965309
v -0.041385453 0.18745968 -0.040752042
v -0.05156825 0.1786711 -0.041282114
v -0.06965775 0.15983336 -0.041040372
v -0.06013279 0.17053081 -0.041520536
v -0.06946715 0.1928734 -0.03522886
v -0.059867766 0.20089126 -0.034518983
v 0.047113072 0.16438758 -0.044422984
v 0.046538707 0.14589472 -0.0466874
v 0.11518531 0.17428492 -0.038598433
v 0.14347804 0.13097349 -0.04021701
v 0.13845839 0.14352311 -0.040283002
v 0.12370359 0.16525532 -0.039524045
v 0.13206966 0.15454221 -0.04008117
v 0.12995104 0.18431948 -0.033316366
v 0.14481376 0.22544765 -0.025449753
v 0.16148035 0.22043024 -0.02552532
v 0.17211026 0.21396036 -0.0258618
vt 0.018371582 0.43310547
vt 0.058563232 0.4645996
vt 0.076416016 0.4165039
vt 0.07147217 0.41259766
vt 0.6020508 0.18261719
vt 0.5786133 0.15771484
vt 0.54833984 0.20703125
vt 0.15075684 0.19360352
vt 0.1505127 0.18725586
vt 0.081848145 0.16149902
vt 0.30541992 0.24511719
vt 0.3503418 0.27368164
vt 0.34155273 0.19299316
vt 0.25317383 0.13342285
vt 0.19165039 0.115600586
vt 0.19396973 0.18933105
vt 0.22290039 0.19995117
vt 0.25634766 0.2163086
vt 0.29736328 0.16333008
vt 0.17102051 0.18432617
vt 0.13098145 0.11871338
vt 0.1529541 0.18383789
vt 0.578125 0.34716797
vt 0.5214844 0.2998047
vt 0.49951172 0.33496094
vt 0.47705078 0.3684082
vt 0.6015625 0.2919922
vt 0.5390625 0.2705078
vt 0.6118164 0.25024414
vt 0.5498047 0.24023438
vt 0.61328125 0.21264648
vt 0.5522461 0.22216797
vt 0.4621582 0.14672852
vt 0.54003906 0.20727539
vt 0.38476562 0.14404297
vt 0.3383789 0.14611816
vt 0.34326172 0.17663574
vt 0.3720703 0.18811035
vt 0.50146484 0.22680664
vt 0.4555664 0.24401855
vt 0.40234375 0.2578125
vt 0.0039901733 0.39404297
vt 0.07897949 0.4025879
vt 0.016830444 0.35595703
vt 0.0892334 0.39233398
vt 0.09893799 0.28393555
vt 0.18359375 0.32910156
vt 0.19897461 0.3227539
vt 0.13562012 0.35424805
vt 0.15820312 0.34106445
vt 0.11102295 0.37329102
vt 0.055023193 0.31835938
vt -0.003627777 0.26123047
vt 0.0014314651 0.30200195
vt 0.06652832 0.26123047
vt 0.17089844 0.23449707
vt 0.19091797 0.29516602
vt 0.13452148 0.41577148
vt 0.103027344 0.4152832
vt 0.15344238 0.49853516
vt 0.10394287 0.48461914
vt 0.18383789 0.5004883
vt 0.21166992 0.42651367
vt 0.17041016 0.41918945
vt 0.23986816 0.4321289
vt 0.18286133 0.26757812
vt 0.5209961 0.21765137
vt 0.15930176 0.21105957
vt 0.8798828 0.65722656
vt 0.83496094 0.6699219
vt 0.8544922 0.7158203
vt 0.90625 0.9243164
vt 0.92578125 0.86376953
vt 0.8725586 0.8935547
vt 0.82666016 0.99560547
vt 0.80371094 0.9628906
vt 0.7988281 0.9628906
vt 0.57910156 0.53222656
vt 0.6538086 0.54785156
vt 0.64941406 0.5107422
vt 0.44213867 0.6850586
vt 0.49414062 0.6845703
vt 0.50146484 0.65234375
vt 0.4387207 0.6430664
vt 0.4819336 0.8334961
vt 0.49780273 0.7939453
vt 0.46777344 0.8100586
vt 0.4934082 0.9667969
vt 0.53466797 0.9736328
vt 0.5410156 0.9404297
vt 0.8276367 0.85595703
vt 0.80859375 0.8339844
vt 0.7792969 0.8457031
vt 0.7651367 0.6455078
vt 0.72509766 0.6513672
vt 0.74121094 0.6879883
vt 0.3581543 0.8251953
vt 0.39916992 0.8540039
vt 0.40405273 0.8261719
vt 0.5449219 0.66308594
vt 0.5629883 0.6899414
vt 0.58496094 0.66308594
vt 0.56591797 0.6230469
vt 0.60302734 0.640625
vt 0.62353516 0.61035156
vt 0.6743164 0.56640625
vt 0.6899414 0.51953125
vt 0.703125 0.61083984
vt 0.74853516 0.60058594
vt 0.7758789 0.69189453
vt 0.75439453 0.72509766
vt 0.7285156 0.5629883
vt 0.6899414 0.5888672
vt 0.81884766 0.7416992
vt 0.85595703 0.7475586
vt 0.7866211 0.7338867
vt 1.0009766 0.7866211
vt 0.9682617 0.7553711
vt 0.9614258 0.76416016
vt 0.96240234 0.81933594
vt 0.92333984 0.7871094
vt 0.89746094 0.8417969
vt 0.8881836 0.8027344
vt 0.8461914 0.81933594
vt 0.66259766 0.90234375
vt 0.62646484 0.8808594
vt 0.61816406 0.93066406
vt 0.6743164 0.96191406
vt 0.78808594 1.0039062
vt 0.78271484 0.9609375
vt 0.73095703 0.9399414
vt 0.70458984 0.92578125
vt 0.7348633 0.9916992
vt 0.75878906 0.95166016
vt 0.7861328 0.9067383
vt 0.7939453 0.9277344
vt 0.8378906 0.90527344
vt 0.86621094 0.96484375
vt 0.7807617 0.8779297
vt 0.828125 0.8803711
vt 0.8041992 0.9526367
vt 0.90478516 0.7529297
vt 1.0039062 0.7495117
vt 0.97753906 0.71972656
vt 0.95751953 0.75341797
vt 0.63378906 0.5913086
vt 0.5449219 0.5908203
vt 0.52490234 0.53027344
vt 0.4716797 0.5449219
vt 0.5234375 0.6069336
vt 0.6425781 0.56933594
vt 0.6479492 0.5541992
vt 0.3557129 0.7006836
vt 0.3684082 0.64941406
vt 0.32421875 0.6669922
vt 0.39526367 0.6899414
vt 0.33691406 0.7109375
vt 0.43286133 0.7480469
vt 0.37719727 0.72558594
vt 0.39379883 0.7836914
vt 0.43237305 0.79052734
vt 0.46777344 0.77246094
vt 0.46679688 0.9370117
vt 0.41577148 0.9458008
vt 0.453125 0.96875
vt 0.32299805 0.78027344
vt 0.29174805 0.7001953
vt 0.30541992 0.74316406
vt 0.34350586 0.71533203
vt 0.43969727 0.8486328
vt 0.46240234 0.8876953
vt 0.46972656 0.8647461
vt 0.46044922 0.9248047
vt 0.45898438 0.90966797
vt 0.41625977 0.90478516
vt 0.51708984 0.9082031
vt 0.49365234 0.92089844
vt 0.58203125 0.88916016
vt 0.5800781 0.93115234
vt 0.54003906 0.89990234
vt 0.4699707 0.9370117
vt 0.56640625 0.9746094
vt 0.5966797 0.9560547
vt 0.88916016 0.24499512
vt 0.88964844 0.27929688
vt 0.9272461 0.26953125
vt 0.95410156 0.063964844
vt 0.91552734 0.038482666
vt 0.9296875 0.07116699
vt 0.9560547 0.24890137
vt 0.95410156 0.21643066
vt 0.9213867 0.22485352
vt 0.6948242 0.22619629
vt 0.68408203 0.22521973
vt 0.64990234 0.25317383
vt 0.6923828 0.2644043
vt 0.76708984 0.009689331
vt 0.796875 0.013877869
vt 0.80322266 0.0042152405
vt 0.76464844 -0.00095653534
vt 1.0029297 0.12792969
vt 0.95410156 0.103515625
vt 0.9716797 0.14404297
vt 0.91503906 0.12658691
vt 0.921875 0.1373291
vt 0.6308594 0.046905518
vt 0.6484375 0.034973145
vt 0.6459961 0.011650085
vt 0.6044922 0.025878906
vt 0.7939453 0.25708008
vt 0.77001953 0.25463867
vt 0.7553711 0.2878418
vt 0.79785156 0.29125977
vt 0.6044922 0.13195801
vt 0.6015625 0.11981201
vt 0.56591797 0.10595703
vt 0.5654297 0.13647461
vt 0.76220703 0.046325684
vt 0.74316406 0.028030396
vt 0.87402344 0.044677734
vt 0.8671875 0.074035645
vt 0.9091797 0.055419922
vt 0.6328125 0.059570312
vt 0.5961914 0.056854248
vt 0.6586914 0.19970703
vt 0.6767578 0.17565918
vt 0.62353516 0.20385742
vt 0.68115234 0.18200684
vt 0.66064453 0.20800781
vt 0.63134766 0.2319336
vt 0.83496094 0.27514648
vt 1.0048828 0.16760254
vt 0.9711914 0.16088867
vt 0.8173828 0.035583496
vt 0.8027344 0.050323486
vt 0.8339844 0.06185913
vt 0.9042969 0.10913086
vt 0.9824219 0.20178223
vt 0.94921875 0.18078613
vt 0.9355469 0.18615723
vt 0.8930664 0.20043945
vt 0.9970703 0.18664551
vt 0.9614258 0.17321777
vt 0.72314453 0.053710938
vt 0.69091797 0.029510498
vt 0.69091797 0.059906006
vt 0.74658203 0.22790527
vt 0.7426758 0.22802734
vt 0.7265625 0.26342773
vt 0.86328125 0.23999023
vt 0.8618164 0.28027344
vt 0.85058594 0.23400879
vt 0.8203125 0.23498535
vt 0.8383789 0.22631836
vt 0.9165039 0.2310791
vt 0.91015625 0.23571777
vt 0.91503906 0.09674072
vt 0.9243164 0.082214355
vt 0.89941406 0.19104004
vt 0.8769531 0.24438477
vt 0.58447266 0.0892334
vt 0.5996094 0.08508301
vt 0.6464844 0.11975098
vt 0.6386719 0.07446289
vt 0.6464844 0.08648682
vt 0.6088867 0.14746094
vt 0.5708008 0.15808105
vt 0.6303711 0.16503906
vt 0.5888672 0.18249512
vt 0.61816406 0.15686035
vt 0.64941406 0.17163086
vt 0.66552734 0.21374512
vt 0.70947266 0.22253418
vt 0.7241211 0.21582031
vt 0.765625 0.23327637
vt 0.7524414 0.23181152
vt 0.76708984 0.25219727
vt 0.765625 0.24365234
vt 0.7988281 0.23535156
vt 0.6557617 0.09863281
vt 0.91503906 0.19006348
vt 0.3232422 0.39501953
vt 0.39916992 0.3137207
vt 0.2927246 0.29760742
vt 0.39794922 0.4597168
vt 0.4423828 0.40844727
vt 0.43701172 0.34326172
vt 0.2290039 0.28442383
vt 0.21081543 0.25268555
vt 0.18786621 0.26489258
vt 0.1973877 0.2932129
vt 0.18322754 0.19702148
vt 0.3618164 0.28295898
vt 0.41381836 0.26757812
vt 0.49487305 0.33154297
vt 0.4711914 0.3647461
vt 0.3154297 0.44262695
vt 0.46289062 0.25048828
vt 0.5058594 0.23303223
vt 0.53515625 0.2668457
vt 0.5175781 0.296875
vt 0.52490234 0.22509766
vt 0.54589844 0.24047852
vt 0.5439453 0.22473145
vt 0.171875 0.20349121
vt 0.16333008 0.20861816
vt 0.2927246 0.25195312
vt 0.2467041 0.2241211
vt 0.21386719 0.20739746
vt 0.19042969 0.22460938
vt 0.17541504 0.2322998
vt 0.12310791 0.3942871
vt 0.097839355 0.40673828
vt 0.15185547 0.38427734
vt 0.21899414 0.3762207
vt 0.1973877 0.37719727
vt 0.33129883 0.28149414
vt 0.24719238 0.31591797
vt 0.20495605 0.32177734
vt 0.2614746 0.2680664
vt 0.22888184 0.23828125
vt 0.20300293 0.21447754
vt 0.53515625 0.24182129
vt 0.5102539 0.23864746
vt 0.52490234 0.2565918
vt 0.47729492 0.26367188
vt 0.5004883 0.2836914
vt 0.43823242 0.28808594
vt 0.4699707 0.3137207
vt 0.16455078 0.38134766
vt 0.49047852 0.6948242
vt 0.56933594 0.70458984
vt 0.6542969 0.7397461
vt 0.63427734 0.8408203
vt 0.7089844 0.7709961
vt 0.734375 0.93847656
vt 0.7163086 0.9267578
vt 0.72753906 0.85791016
vt 0.66064453 0.87402344
vt 0.6894531 0.9038086
vt 0.7416992 0.88916016
vt 0.5932617 0.86328125
vt 0.5175781 0.7861328
vt 0.5371094 0.8222656
vt 0.7729492 0.8305664
vt 0.7651367 0.7861328
vt 0.5913086 0.7558594
vt 0.6508789 0.57128906
vt 0.6582031 0.5605469
vt 0.6621094 0.5727539
vt 0.6694336 0.5698242
vt 0.79589844 0.7836914
vt 0.8041992 0.8261719
vt 0.84472656 0.81689453
vt 0.83203125 0.78027344
vt 0.5097656 0.85595703
vt 0.546875 0.88623047
vt 0.46484375 0.7607422
vt 0.43823242 0.71240234
vt 0.48095703 0.72021484
vt 0.67871094 0.5913086
vt 0.66552734 0.5942383
vt 0.6669922 0.6166992
vt 0.68603516 0.61376953
vt 0.6328125 0.6118164
vt 0.6411133 0.59228516
vt 0.6669922 0.6586914
vt 0.6948242 0.65527344
vt 0.6152344 0.64404297
vt 0.6845703 0.58984375
vt 0.7006836 0.69384766
vt 0.66064453 0.69921875
vt 0.70654297 0.7319336
vt 0.59765625 0.6699219
vt 0.95947266 0.7578125
vt 0.91308594 0.7685547
vt 0.8725586 0.7758789
vt 0.35717773 0.70947266
vt 0.38623047 0.7089844
vt 0.5385742 0.73828125
vt 0.49194336 0.88134766
vt 0.51904297 0.9013672
vt 0.5058594 0.91064453
vt 0.48168945 0.8979492
vt 0.47387695 0.9140625
vt 0.7553711 0.91552734
vt 0.77490234 0.94091797
vt 0.79248047 0.95703125
vt 0.64990234 0.59277344
vt 0.64746094 0.61376953
vt 0.6381836 0.6508789
vt 0.625 0.6826172
vt 0.6088867 0.71484375
vt 0.69628906 0.6118164
vt 0.71533203 0.65234375
vt 0.7285156 0.6894531
vt 0.7885742 0.7451172
vt 0.8222656 0.75097656
vt 0.86083984 0.75634766
vt 0.9086914 0.7597656
vt 0.3918457 0.69921875
vt 0.44091797 0.69433594
vt 0.74316406 0.7363281
vt 0.734375 0.1138916
vt 0.74658203 0.17016602
vt 0.79248047 0.17175293
vt 0.8125 0.12060547
vt 0.7915039 0.11273193
vt 0.81591797 0.11401367
vt 0.8261719 0.22045898
vt 0.8676758 0.20532227
vt 0.79248047 0.2536621
vt 0.8256836 0.19433594
vt 0.71191406 0.118774414
vt 0.72998047 0.107543945
vt 0.6845703 0.14379883
vt 0.71728516 0.1850586
vt 0.72021484 0.21008301
vt 0.69189453 0.18798828
vt 0.8769531 0.20788574
vt 0.85839844 0.21716309
vt 0.8696289 0.22546387
vt 0.8671875 0.15979004
vt 0.8696289 0.13745117
vt 0.8574219 0.14428711
vt 0.8769531 0.15856934
vt 0.7026367 0.20300293
vt 0.69189453 0.20935059
vt 0.67529297 0.14147949
vt 0.69384766 0.13000488
vt 0.79052734 0.08917236
vt 0.7915039 0.067993164
vt 0.79296875 0.048797607
vt 0.8769531 0.19067383
vt 0.8959961 0.23547363
vt 0.67871094 0.15942383
vt 0.9042969 0.06719971
vt 0.76171875 0.10992432
vt 0.95996094 0.1583252
vt 0.8359375 0.12902832
vt 0.87646484 0.1730957
vt 0.6772461 0.1194458
vt 0.6958008 0.10858154
vt 0.68359375 0.18945312
vt 0.6791992 0.21374512
vt 0.7915039 0.23474121
vt 0.7915039 0.24511719
vt 0.8823242 0.23168945
vt 0.8989258 0.17480469
vt 0.91503906 0.17443848
vt 0.9482422 0.16491699
vt 0.9345703 0.1706543
vt 0.8486328 0.12207031
vt 0.8623047 0.112976074
vt 0.87402344 0.10296631
vt 0.89501953 0.0814209
vt 0.88378906 0.09362793
vt 0.89453125 0.118896484
vt 0.88378906 0.12817383
vt 0.7607422 0.08660889
vt 0.76123047 0.06549072
vt 0.6826172 0.09790039
vt 0.64990234 0.048461914
vt 0.6557617 0.062805176
vt 0.67285156 0.08758545
vt 0.66308594 0.07537842
vt 0.66552734 0.109313965
vt 0.6484375 0.15625
vt 0.62939453 0.1505127
vt 0.6171875 0.14318848
vn -0 0 -1
vn -0 0 -1
vn -0 0 -1
vn -0 0 -1
vn -0 0 -1
vn -0 0 -1
vn -0 0 -1
vn -0 0 -1
vn -0 0 -1
vn -0 0 -1
vn -0 0 -1
vn -0 0 -1
vn -0 0 -1
vn -0 0 -1
vn -0 0 -1
vn -0 0 -1
vn -0 0 -1
vn -0 0 -1
vn -0 0 -1
vn -0 0 -1
vn -0 0 -1
vn -0 0 -1
vn -0 0 -1
vn -0 0 -1
vn -0 0 -1
vn -0 0 -1
vn -0 0 -1
vn -0 0 -1
vn -0 0 -1
vn -0 0 -1
vn -0 0 -1
vn -0 0 -1
vn -0 0 -1
vn -0 0 -1
vn -0 0 -1
vn -0 0 -1
vn -0 0 -1
vn -0 0 -1
vn -0 0 -1
vn -0 0 -1
vn -0 0 -1
vn -0 0 -1
vn -0 0 -1
vn -0 0 -1
vn -0 0 -1
vn -0 0 -1
vn -0 0 -1
vn -0 0 -1
vn -0 0 -1
vn -0 0 -1
vn -0 0 -1
vn -0 0 -1
vn -0 0 -1
vn -0 0 -1
vn -0 0 -1
vn -0 0 -1
vn -0 0 -1
vn -0 0 -1
vn -0 0 -1
vn -0 0 -1
vn -0 0 -1
vn -0 0 -1
vn -0 0 -1
vn -0 0 -1
vn -0 0 -1
vn -0 0 -1
vn -0 0 -1
vn -0 0 -1
vn -0 0 -1
vn -0 0 -1
vn -0 0 -1
vn -0 0 -1
vn -0 0 -1
vn -0 0 -1
vn -0 0 -1
vn -0 0 -1
vn -0 0 -1
vn -0 0 -1
vn -0 0 -1
vn -0 0 -1
vn -0 0 -1
vn -0 0 -1
vn -0 0 -1
vn -0 0 -1
vn -0 0 -1
vn -0 0 -1
vn -0 0 -1
vn -0 0 -1
vn -0 0 -1
vn -0 0 -1
vn -0 0 -1
vn -0 0 -1
vn -0 0 -1
vn -0 0 -1
vn -0 0 -1
vn -0 0 -1
vn -0 0 -1
vn -0 0 -1
vn -0 0 -1
vn -0 0 -1
vn -0 0 -1
vn -0 0 -1
vn -0 0 -1
vn -0 0 -1
vn -0 0 -1
vn -0 0 -1
vn -0 0 -1
vn -0 0 -1
vn -0 0 -1
vn -0 0 -1
vn -0 0 -1
vn -0 0 -1
vn -0 0 -1
vn -0 0 -1
vn -0 0 -1
vn -0 0 -1
vn -0 0 -1
vn -0 0 -1
vn -0 0 -1
vn -0 0 -1
vn -0 0 -1
vn -0 0 -1
vn -0 0 -1
vn -0 0 -1
vn -0 0 -1
vn -0 0 -1
vn -0 0 -1
vn -0 0 -1
vn -0 0 -1
vn -0 0 -1
vn -0 0 -1
vn -0 0 -1
vn -0 0 -1
vn -0 0 -1
vn -0 0 -1
vn -0 0 -1
vn -0 0 -1
vn -0 0 -1
vn -0 0 -1
vn -0 0 -1
vn -0 0 -1
vn -0 0 -1
vn -0 0 -1
vn -0 0 -1
vn -0 0 -1
vn -0 0 -1
vn -0 0 -1
vn -0 0 -1
vn -0 0 -1
vn -0 0 -1
vn -0 0 -1
vn -0 0 -1
vn -0 0 -1
vn -0 0 -1
vn -0 0 -1
vn -0 0 -1
vn -0 0 -1
vn -0 0 -1
vn -0 0 -1
vn -0 0 -1
vn -0 0 -1
vn -0 0 -1
vn -0 0 -1
vn -0 0 -1
vn -0 0 -1
vn -0 0 -1
vn -0 0 -1
vn -0 0 -1
vn -0 0 -1
vn -0 0 -1
vn -0 0 -1
vn -0 0 -1
vn -0 0 -1
vn -0 0 -1
vn -0 0 -1
vn -0 0 -1
vn -0 0 -1
vn -0 0 -1
vn -0 0 -1
vn -0 0 -1
vn -0 0 -1
vn -0 0 -1
vn -0 0 -1
vn -0 0 -1
vn -0 0 -1
vn -0 0 -1
vn -0 0 -1
vn -0 0 -1
vn -0 0 -1
vn -0 0 -1
vn -0 0 -1
vn -0 0 -1
vn -0 0 -1
vn -0 0 -1
vn -0 0 -1
vn -0 0 -1
vn -0 0 -1
vn -0 0 -1
vn -0 0 -1
vn -0 0 -1
vn -0 0 -1
vn -0 0 -1
vn -0 0 -1
vn -0 0 -1
vn -0 0 -1
vn -0 0 -1
vn -0 0 -1
vn -0 0 -1
vn -0 0 -1
vn -0 0 -1
vn -0 0 -1
vn -0 0 -1
vn -0 0 -1
vn -0 0 -1
vn -0 0 -1
vn -0 0 -1
vn -0 0 -1
vn -0 0 -1
vn -0 0 -1
vn -0 0 -1
vn -0 0 -1
vn -0 0 -1
vn -0 0 -1
vn -0 0 -1
vn -0 0 -1
vn -0 0 -1
vn -0 0 -1
vn -0 0 -1
vn -0 0 -1
vn -0 0 -1
vn -0 0 -1
vn -0 0 -1
vn -0 0 -1
vn -0 0 -1
vn -0 0 -1
vn -0 0 -1
vn -0 0 -1
vn -0 0 -1
vn -0 0 -1
vn -0 0 -1
vn -0 0 -1
vn -0 0 -1
vn -0 0 -1
vn -0 0 -1
vn -0 0 -1
vn -0 0 -1
vn -0 0 -1
vn -0 0 -1
vn -0 0 -1
vn -0 0 -1
vn -0 0 -1
vn -0 0 -1
vn -0 0 -1
vn -0 0 -1
vn -0 0 -1
vn -0 0 -1
vn -0 0 -1
vn -0 0 -1
vn -0 0 -1
vn -0 0 -1
vn -0 0 -1
vn -0 0 -1
vn -0 0 -1
vn -0 0 -1
vn -0 0 -1
vn -0 0 -1
vn -0 0 -1
vn -0 0 -1
vn -0 0 -1
vn -0 0 -1
vn -0 0 -1
vn -0 0 -1
vn -0 0 -1
vn -0 0 -1
vn -0 0 -1
vn -0 0 -1
vn -0 0 -1
vn -0 0 -1
vn -0 0 -1
vn -0 0 -1
vn -0 0 -1
vn -0 0 -1
vn -0 0 -1
vn -0 0 -1
vn -0 0 -1
vn -0 0 -1
vn -0 0 -1
vn -0 0 -1
vn -0 0 -1
vn -0 0 -1
vn -0 0 -1
vn -0 0 -1
vn -0 0 -1
vn -0 0 -1
vn -0 0 -1
vn -0 0 -1
vn -0 0 -1
vn -0 0 -1
vn -0 0 -1
vn -0 0 -1
vn -0 0 -1
vn -0 0 -1
vn -0 0 -1
vn -0 0 -1
vn -0 0 -1
vn -0 0 -1
vn -0 0 -1
vn -0 0 -1
vn -0 0 -1
vn -0 0 -1
vn -0 0 -1
vn -0 0 -1
vn -0 0 -1
vn -0 0 -1
vn -0 0 -1
vn -0 0 -1
vn -0 0 -1
vn -0 0 -1
vn -0 0 -1
vn -0 0 -1
vn -0 0 -1
vn -0 0 -1
vn -0 0 -1
vn -0 0 -1
vn -0 0 -1
vn -0 0 -1
vn -0 0 -1
vn -0 0 -1
vn -0 0 -1
vn -0 0 -1
vn -0 0 -1
vn -0 0 -1
vn -0 0 -1
vn -0 0 -1
vn -0 0 -1
vn -0 0 -1
vn -0 0 -1
vn -0 0 -1
vn -0 0 -1
vn -0 0 -1
vn -0 0 -1
vn -0 0 -1
vn -0 0 -1
vn -0 0 -1
vn -0 0 -1
vn -0 0 -1
vn -0 0 -1
vn -0 0 -1
vn -0 0 -1
vn -0 0 -1
vn -0 0 -1
vn -0 0 -1
vn -0 0 -1
vn -0 0 -1
vn -0 0 -1
vn -0 0 -1
vn -0 0 -1
vn -0 0 -1
vn -0 0 -1
vn -0 0 -1
vn -0 0 -1
vn -0 0 -1
vn -0 0 -1
vn -0 0 -1
vn -0 0 -1
vn -0 0 -1
vn -0 0 -1
vn -0 0 -1
vn -0 0 -1
vn -0 0 -1
vn -0 0 -1
vn -0 0 -1
vn -0 0 -1
vn -0 0 -1
vn -0 0 -1
vn -0 0 -1
vn -0 0 -1
vn -0 0 -1
vn -0 0 -1
vn -0 0 -1
vn -0 0 -1
vn -0 0 -1
vn -0 0 -1
vn -0 0 -1
vn -0 0 -1
vn -0 0 -1
vn -0 0 -1
vn -0 0 -1
vn -0 0 -1
vn -0 0 -1
vn -0 0 -1
vn -0 0 -1
vn -0 0 -1
vn -0 0 -1
vn -0 0 -1
vn -0 0 -1
vn -0 0 -1
vn -0 0 -1
vn -0 0 -1
vn -0 0 -1
vn -0 0 -1
vn -0 0 -1
vn -0 0 -1
vn -0 0 -1
vn -0 0 -1
vn -0 0 -1
vn -0 0 -1
vn -0 0 -1
vn -0 0 -1
vn -0 0 -1
vn -0 0 -1
vn -0 0 -1
vn -0 0 -1
vn -0 0 -1
vn -0 0 -1
vn -0 0 -1
vn -0 0 -1
vn -0 0 -1
vn -0 0 -1
vn -0 0 -1
vn -0 0 -1
vn -0 0 -1
vn -0 0 -1
vn -0 0 -1
vn -0 0 -1
vn -0 0 -1
vn -0 0 -1
vn -0 0 -1
vn -0 0 -1
vn -0 0 -1
vn -0 0 -1
vn -0 0 -1
vn -0 0 -1
vn -0 0 -1
vn -0 0 -1
vn -0 0 -1
vn -0 0 -1
vn -0 0 -1
vn -0 0 -1
vn -0 0 -1
vn -0 0 -1
vn -0 0 -1
vn -0 0 -1
vn -0 0 -1
vn -0 0 -1
vn -0 0 -1
vn -0 0 -1
vn -0 0 -1
vn -0 0 -1
vn -0 0 -1
vn -0 0 -1
vn -0 0 -1
vn -0 0 -1
vn -0 0 -1
vn -0 0 -1
vn -0 0 -1
vn -0 0 -1
vn -0 0 -1
vn -0 0 -1
vn -0 0 -1
vn -0 0 -1
vn -0 0 -1
vn -0 0 -1
vn -0 0 -1
vn -0 0 -1
vn -0 0 -1
vn -0 0 -1
vn -0 0 -1
vn -0 0 -1
vn -0 0 -1
g cPK_10_000760_00_STARMIEex_RR_L_SB_0
f 3/3/3 2/2/2 1/1/1
f 4/4/4 3/3/3 1/1/1
f 7/7/7 6/6/6 5/5/5
f 10/10/10 9/9/9 8/8/8
f 13/13/13 12/12/12 11/11/11
f 16/16/16 15/15/15 14/14/14
f 17/17/17 16/16/16 14/14/14
f 13/13/13 11/11/11 18/18/18
f 19/19/19 13/13/13 18/18/18
f 18/18/18 17/17/17 14/14/14
f 19/19/19 18/18/18 14/14/14
f 16/16/16 20/20/20 15/15/15
f 22/22/22 21/21/21 15/15/15
f 20/20/20 22/22/22 15/15/15
f 25/25/25 24/24/24 23/23/23
f 26/26/26 25/25/25 23/23/23
f 28/28/28 27/27/27 23/23/23
f 24/24/24 28/28/28 23/23/23
f 30/30/30 29/29/29 27/27/27
f 28/28/28 30/30/30 27/27/27
f 32/32/32 31/31/31 29/29/29
f 30/30/30 32/32/32 29/29/29
f 32/32/32 7/7/7 5/5/5
f 32/32/32 5/5/5 31/31/31
f 6/6/6 34/34/34 33/33/33
f 37/37/37 36/36/36 35/35/35
f 38/38/38 37/37/37 35/35/35
f 40/40/40 38/38/38 39/39/39
f 38/38/38 40/40/40 41/41/41
f 43/43/43 4/4/4 42/42/42
f 45/45/45 43/43/43 44/44/44
f 4/4/4 1/1/1 42/42/42
f 43/43/43 42/42/42 44/44/44
f 48/48/48 47/47/47 46/46/46
f 50/50/50 49/49/49 46/46/46
f 47/47/47 50/50/50 46/46/46
f 49/49/49 51/51/51 46/46/46
f 51/51/51 45/45/45 52/52/52
f 10/10/10 21/21/21 9/9/9
f 55/55/55 54/54/54 53/53/53
f 21/21/21 22/22/22 9/9/9
f 55/55/55 56/56/56 46/46/46
f 57/57/57 48/48/48 46/46/46
f 60/60/60 59/59/59 58/58/58
f 3/3/3 59/59/59 61/61/61
f 3/3/3 61/61/61 2/2/2
f 59/59/59 60/60/60 61/61/61
f 64/64/64 63/63/63 62/62/62
f 63/63/63 65/65/65 62/62/62
f 60/60/60 58/58/58 64/64/64
f 55/55/55 10/10/10 8/8/8
f 10/10/10 55/55/55 53/53/53
f 60/60/60 64/64/64 62/62/62
f 45/45/45 44/44/44 52/52/52
f 66/66/66 57/57/57 46/46/46
f 6/6/6 7/7/7 34/34/34
f 34/34/34 67/67/67 33/33/33
f 67/67/67 39/39/39 33/33/33
f 39/39/39 38/38/38 33/33/33
f 38/38/38 35/35/35 33/33/33
f 38/38/38 41/41/41 12/12/12
f 38/38/38 12/12/12 13/13/13
f 55/55/55 68/68/68 56/56/56
f 55/55/55 8/8/8 68/68/68
f 56/56/56 66/66/66 46/46/46
f 51/51/51 52/52/52 46/46/46
f 71/71/71 70/70/70 69/69/69
f 74/74/74 73/73/73 72/72/72
f 77/77/77 76/76/76 75/75/75
f 80/80/80 79/79/79 78/78/78
f 83/83/83 82/82/82 81/81/81
f 84/84/84 83/83/83 81/81/81
f 87/87/87 86/86/86 85/85/85
f 90/90/90 89/89/89 88/88/88
f 93/93/93 92/92/92 91/91/91
f 96/96/96 95/95/95 94/94/94
f 99/99/99 98/98/98 97/97/97
f 102/102/102 101/101/101 100/100/100
f 105/105/105 104/104/104 103/103/103
f 107/107/107 106/106/106 79/79/79
f 94/94/94 95/95/95 108/108/108
f 109/109/109 94/94/94 108/108/108
f 111/111/111 96/96/96 110/110/110
f 113/113/113 106/106/106 112/112/112
f 108/108/108 113/113/113 112/112/112
f 109/109/109 108/108/108 112/112/112
f 106/106/106 107/107/107 112/112/112
f 71/71/71 115/115/115 114/114/114
f 116/116/116 111/111/111 110/110/110
f 119/119/119 118/118/118 117/117/117
f 121/121/121 119/119/119 120/120/120
f 119/119/119 117/117/117 120/120/120
f 121/121/121 120/120/120 122/122/122
f 123/123/123 121/121/121 122/122/122
f 124/124/124 123/123/123 122/122/122
f 124/124/124 122/122/122 91/91/91
f 92/92/92 124/124/124 91/91/91
f 127/127/127 126/126/126 125/125/125
f 128/128/128 127/127/127 125/125/125
f 130/130/130 77/77/77 129/129/129
f 77/77/77 75/75/75 129/129/129
f 128/128/128 132/132/132 131/131/131
f 133/133/133 128/128/128 131/131/131
f 133/133/133 131/131/131 134/134/134
f 134/134/134 130/130/130 129/129/129
f 128/128/128 125/125/125 132/132/132
f 137/137/137 136/136/136 135/135/135
f 76/76/76 138/138/138 75/75/75
f 74/74/74 72/72/72 138/138/138
f 137/137/137 74/74/74 138/138/138
f 140/140/140 139/139/139 91/91/91
f 140/140/140 135/135/135 139/139/139
f 140/140/140 137/137/137 135/135/135
f 136/136/136 137/137/137 138/138/138
f 141/141/141 136/136/136 138/138/138
f 76/76/76 141/141/141 138/138/138
f 142/142/142 115/115/115 71/71/71
f 118/118/118 144/144/144 143/143/143
f 145/145/145 69/69/69 144/144/144
f 104/104/104 102/102/102 103/103/103
f 102/102/102 100/100/100 103/103/103
f 105/105/105 147/147/147 146/146/146
f 149/149/149 148/148/148 147/147/147
f 103/103/103 150/150/150 147/147/147
f 147/147/147 148/148/148 78/78/78
f 152/152/152 151/151/151 78/78/78
f 83/83/83 100/100/100 82/82/82
f 155/155/155 154/154/154 153/153/153
f 84/84/84 81/81/81 156/156/156
f 155/155/155 153/153/153 157/157/157
f 160/160/160 159/159/159 158/158/158
f 161/161/161 160/160/160 158/158/158
f 161/161/161 158/158/158 162/162/162
f 87/87/87 161/161/161 162/162/162
f 87/87/87 162/162/162 86/86/86
f 165/165/165 164/164/164 163/163/163
f 166/166/166 159/159/159 160/160/160
f 160/160/160 99/99/99 97/97/97
f 168/168/168 167/167/167 157/157/157
f 157/157/157 169/169/169 166/166/166
f 157/157/157 166/166/166 168/168/168
f 170/170/170 87/87/87 85/85/85
f 170/170/170 172/172/172 171/171/171
f 175/175/175 174/174/174 173/173/173
f 164/164/164 175/175/175 173/173/173
f 175/175/175 171/171/171 174/174/174
f 175/175/175 170/170/170 171/171/171
f 170/170/170 85/85/85 172/172/172
f 90/90/90 177/177/177 176/176/176
f 179/179/179 178/178/178 126/126/126
f 127/127/127 179/179/179 126/126/126
f 90/90/90 176/176/176 180/180/180
f 179/179/179 90/90/90 180/180/180
f 179/179/179 180/180/180 178/178/178
f 90/90/90 88/88/88 177/177/177
f 88/88/88 165/165/165 181/181/181
f 165/165/165 163/163/163 181/181/181
f 90/90/90 183/183/183 182/182/182
f 90/90/90 182/182/182 89/89/89
f 147/147/147 151/151/151 146/146/146
f 105/105/105 103/103/103 147/147/147
f 118/118/118 145/145/145 144/144/144
f 118/118/118 143/143/143 117/117/117
f 142/142/142 71/71/71 69/69/69
f 114/114/114 116/116/116 110/110/110
f 71/71/71 114/114/114 110/110/110
f 164/164/164 173/173/173 163/163/163
f 88/88/88 181/181/181 177/177/177
f 133/133/133 134/134/134 129/129/129
f 147/147/147 78/78/78 151/151/151
f 167/167/167 155/155/155 157/157/157
f 154/154/154 156/156/156 153/153/153
f 145/145/145 142/142/142 69/69/69
f 79/79/79 152/152/152 78/78/78
f 107/107/107 79/79/79 80/80/80
f 100/100/100 101/101/101 82/82/82
f 154/154/154 84/84/84 156/156/156
f 160/160/160 97/97/97 166/166/166
f 166/166/166 169/169/169 159/159/159
f 139/139/139 93/93/93 91/91/91
f 96/96/96 94/94/94 110/110/110
f 186/186/186 185/185/185 184/184/184
f 189/189/189 188/188/188 187/187/187
f 192/192/192 191/191/191 190/190/190
f 195/195/195 194/194/194 193/193/193
f 196/196/196 195/195/195 193/193/193
f 199/199/199 198/198/198 197/197/197
f 200/200/200 199/199/199 197/197/197
f 203/203/203 202/202/202 201/201/201
f 202/202/202 205/205/205 204/204/204
f 205/205/205 202/202/202 203/203/203
f 208/208/208 207/207/207 206/206/206
f 209/209/209 208/208/208 206/206/206
f 212/212/212 211/211/211 210/210/210
f 213/213/213 212/212/212 210/210/210
f 216/216/216 215/215/215 214/214/214
f 217/217/217 216/216/216 214/214/214
f 219/219/219 197/197/197 218/218/218
f 219/219/219 200/200/200 197/197/197
f 221/221/221 220/220/220 188/188/188
f 222/222/222 221/221/221 188/188/188
f 209/209/209 206/206/206 223/223/223
f 224/224/224 209/209/209 223/223/223
f 227/227/227 226/226/226 225/225/225
f 225/225/225 226/226/226 228/228/228
f 230/230/230 227/227/227 229/229/229
f 225/225/225 229/229/229 227/227/227
f 231/231/231 213/213/213 210/210/210
f 203/203/203 201/201/201 232/232/232
f 233/233/233 203/203/203 232/232/232
f 236/236/236 235/235/235 234/234/234
f 236/236/236 234/234/234 220/220/220
f 198/198/198 234/234/234 235/235/235
f 198/198/198 199/199/199 234/234/234
f 221/221/221 236/236/236 220/220/220
f 204/204/204 237/237/237 202/202/202
f 191/191/191 239/239/239 238/238/238
f 191/191/191 240/240/240 239/239/239
f 191/191/191 192/192/192 241/241/241
f 243/243/243 242/242/242 238/238/238
f 239/239/239 243/243/243 238/238/238
f 245/245/245 219/219/219 244/244/244
f 245/245/245 244/244/244 246/246/246
f 249/249/249 248/248/248 247/247/247
f 251/251/251 231/231/231 250/250/250
f 231/231/231 252/252/252 250/250/250
f 254/254/254 231/231/231 253/253/253
f 254/254/254 252/252/252 231/231/231
f 186/186/186 256/256/256 255/255/255
f 255/255/255 192/192/192 186/186/186
f 192/192/192 190/190/190 186/186/186
f 219/219/219 218/218/218 244/244/244
f 245/245/245 246/246/246 207/207/207
f 208/208/208 245/245/245 207/207/207
f 257/257/257 202/202/202 237/237/237
f 258/258/258 202/202/202 257/257/257
f 202/202/202 189/189/189 187/187/187
f 258/258/258 189/189/189 202/202/202
f 233/233/233 232/232/232 242/242/242
f 243/243/243 233/233/233 242/242/242
f 259/259/259 191/191/191 241/241/241
f 251/251/251 250/250/250 260/260/260
f 185/185/185 251/251/251 260/260/260
f 184/184/184 185/185/185 260/260/260
f 186/186/186 184/184/184 256/256/256
f 216/216/216 261/261/261 215/215/215
f 261/261/261 262/262/262 215/215/215
f 215/215/215 262/262/262 263/263/263
f 224/224/224 223/223/223 264/264/264
f 262/262/262 224/224/224 264/264/264
f 262/262/262 264/264/264 265/265/265
f 217/217/217 214/214/214 266/266/266
f 267/267/267 217/217/217 266/266/266
f 269/269/269 268/268/268 227/227/227
f 269/269/269 270/270/270 268/268/268
f 266/266/266 269/269/269 267/267/267
f 266/266/266 270/270/270 269/269/269
f 227/227/227 268/268/268 271/271/271
f 230/230/230 272/272/272 194/194/194
f 195/195/195 230/230/230 194/194/194
f 230/230/230 229/229/229 272/272/272
f 196/196/196 193/193/193 273/273/273
f 249/249/249 196/196/196 273/273/273
f 249/249/249 273/273/273 274/274/274
f 249/249/249 276/276/276 275/275/275
f 212/212/212 277/277/277 211/211/211
f 249/249/249 278/278/278 277/277/277
f 212/212/212 249/249/249 277/277/277
f 231/231/231 210/210/210 279/279/279
f 249/249/249 247/247/247 276/276/276
f 249/249/249 274/274/274 248/248/248
f 249/249/249 275/275/275 278/278/278
f 231/231/231 279/279/279 253/253/253
f 280/280/280 263/263/263 262/262/262
f 280/280/280 262/262/262 265/265/265
f 259/259/259 281/281/281 191/191/191
f 281/281/281 240/240/240 191/191/191
f 189/189/189 222/222/222 188/188/188
f 227/227/227 271/271/271 226/226/226
g cPK_10_000760_00_STARMIEex_RR_L_SB_1
f 3/3/3 4/4/4 43/43/43
f 284/284/284 283/283/283 282/282/282
f 282/282/282 286/286/286 285/285/285
f 287/287/287 286/286/286 282/282/282
f 283/283/283 287/287/287 282/282/282
f 290/290/290 289/289/289 288/288/288
f 291/291/291 290/290/290 288/288/288
f 292/292/292 20/20/20 16/16/16
f 293/293/293 12/12/12 41/41/41
f 294/294/294 293/293/293 41/41/41
f 295/295/295 25/25/25 26/26/26
f 296/296/296 295/295/295 26/26/26
f 282/282/282 297/297/297 65/65/65
f 298/298/298 40/40/40 39/39/39
f 299/299/299 298/298/298 39/39/39
f 300/300/300 28/28/28 24/24/24
f 301/301/301 300/300/300 24/24/24
f 301/301/301 24/24/24 25/25/25
f 295/295/295 301/301/301 25/25/25
f 294/294/294 41/41/41 40/40/40
f 298/298/298 294/294/294 40/40/40
f 39/39/39 67/67/67 302/302/302
f 299/299/299 39/39/39 302/302/302
f 303/303/303 30/30/30 28/28/28
f 300/300/300 303/303/303 28/28/28
f 304/304/304 34/34/34 7/7/7
f 304/304/304 7/7/7 32/32/32
f 34/34/34 304/304/304 302/302/302
f 32/32/32 303/303/303 304/304/304
f 306/306/306 22/22/22 305/305/305
f 18/18/18 11/11/11 307/307/307
f 308/308/308 18/18/18 307/307/307
f 309/309/309 17/17/17 18/18/18
f 308/308/308 309/309/309 18/18/18
f 311/311/311 310/310/310 289/289/289
f 290/290/290 311/311/311 289/289/289
f 292/292/292 16/16/16 17/17/17
f 309/309/309 292/292/292 17/17/17
f 306/306/306 305/305/305 310/310/310
f 311/311/311 306/306/306 310/310/310
f 312/312/312 58/58/58 59/59/59
f 313/313/313 312/312/312 59/59/59
f 314/314/314 64/64/64 58/58/58
f 312/312/312 314/314/314 58/58/58
f 315/315/315 65/65/65 63/63/63
f 316/316/316 315/315/315 63/63/63
f 11/11/11 12/12/12 317/317/317
f 307/307/307 11/11/11 317/317/317
f 291/291/291 288/288/288 318/318/318
f 319/319/319 291/291/291 318/318/318
f 320/320/320 284/284/284 318/318/318
f 288/288/288 320/320/320 318/318/318
f 320/320/320 288/288/288 289/289/289
f 321/321/321 320/320/320 289/289/289
f 289/289/289 310/310/310 322/322/322
f 321/321/321 289/289/289 322/322/322
f 310/310/310 305/305/305 292/292/292
f 322/322/322 310/310/310 292/292/292
f 292/292/292 305/305/305 22/22/22
f 303/303/303 323/323/323 304/304/304
f 324/324/324 302/302/302 323/323/323
f 325/325/325 324/324/324 323/323/323
f 325/325/325 327/327/327 326/326/326
f 324/324/324 325/325/325 326/326/326
f 327/327/327 329/329/329 328/328/328
f 326/326/326 327/327/327 328/328/328
f 329/329/329 287/287/287 283/283/283
f 328/328/328 329/329/329 283/283/283
f 34/34/34 302/302/302 67/67/67
f 304/304/304 323/323/323 302/302/302
f 282/282/282 318/318/318 284/284/284
f 313/313/313 59/59/59 3/3/3
f 330/330/330 316/316/316 63/63/63
f 64/64/64 330/330/330 63/63/63
f 297/297/297 282/282/282 285/285/285
f 315/315/315 319/319/319 318/318/318
f 314/314/314 330/330/330 64/64/64
f 292/292/292 22/22/22 20/20/20
f 313/313/313 3/3/3 43/43/43
f 45/45/45 313/313/313 43/43/43
f 45/45/45 51/51/51 312/312/312
f 313/313/313 45/45/45 312/312/312
f 51/51/51 49/49/49 314/314/314
f 312/312/312 51/51/51 314/314/314
f 49/49/49 50/50/50 330/330/330
f 314/314/314 49/49/49 330/330/330
f 50/50/50 47/47/47 316/316/316
f 330/330/330 50/50/50 316/316/316
f 47/47/47 48/48/48 315/315/315
f 316/316/316 47/47/47 315/315/315
f 315/315/315 282/282/282 65/65/65
f 296/296/296 26/26/26 286/286/286
f 315/315/315 318/318/318 282/282/282
f 317/317/317 12/12/12 293/293/293
f 299/299/299 302/302/302 324/324/324
f 324/324/324 326/326/326 298/298/298
f 299/299/299 324/324/324 298/298/298
f 326/326/326 328/328/328 294/294/294
f 298/298/298 326/326/326 294/294/294
f 328/328/328 283/283/283 293/293/293
f 294/294/294 328/328/328 293/293/293
f 317/317/317 293/293/293 283/283/283
f 284/284/284 317/317/317 283/283/283
f 307/307/307 317/317/317 284/284/284
f 320/320/320 307/307/307 284/284/284
f 308/308/308 307/307/307 320/320/320
f 321/321/321 308/308/308 320/320/320
f 321/321/321 322/322/322 309/309/309
f 308/308/308 321/321/321 309/309/309
f 309/309/309 322/322/322 292/292/292
f 287/287/287 296/296/296 286/286/286
f 296/296/296 287/287/287 329/329/329
f 295/295/295 329/329/329 327/327/327
f 301/301/301 327/327/327 325/325/325
f 323/323/323 303/303/303 300/300/300
f 325/325/325 323/323/323 300/300/300
f 32/32/32 30/30/30 303/303/303
f 315/315/315 48/48/48 319/319/319
f 48/48/48 57/57/57 291/291/291
f 319/319/319 48/48/48 291/291/291
f 57/57/57 66/66/66 290/290/290
f 291/291/291 57/57/57 290/290/290
f 66/66/66 56/56/56 311/311/311
f 290/290/290 66/66/66 311/311/311
f 56/56/56 68/68/68 306/306/306
f 311/311/311 56/56/56 306/306/306
f 306/306/306 68/68/68 8/8/8
f 306/306/306 8/8/8 9/9/9
f 306/306/306 9/9/9 22/22/22
f 295/295/295 327/327/327 301/301/301
f 301/301/301 325/325/325 300/300/300
f 296/296/296 329/329/329 295/295/295
f 331/331/331 82/82/82 101/101/101
f 332/332/332 331/331/331 101/101/101
f 335/335/335 334/334/334 333/333/333
f 336/336/336 131/131/131 132/132/132
f 337/337/337 336/336/336 132/132/132
f 340/340/340 339/339/339 338/338/338
f 341/341/341 340/340/340 338/338/338
f 126/126/126 342/342/342 334/334/334
f 334/334/334 344/344/344 343/343/343
f 334/334/334 346/346/346 345/345/345
f 333/333/333 334/334/334 347/347/347
f 348/348/348 151/151/151 152/152/152
f 351/351/351 350/350/350 349/349/349
f 354/354/354 353/353/353 352/352/352
f 355/355/355 354/354/354 352/352/352
f 354/354/354 123/123/123 124/124/124
f 339/339/339 126/126/126 334/334/334
f 126/126/126 178/178/178 342/342/342
f 342/342/342 357/357/357 356/356/356
f 344/344/344 342/342/342 356/356/356
f 162/162/162 358/358/358 343/343/343
f 86/86/86 162/162/162 343/343/343
f 358/358/358 158/158/158 359/359/359
f 360/360/360 358/358/358 359/359/359
f 354/354/354 124/124/124 92/92/92
f 353/353/353 354/354/354 92/92/92
f 337/337/337 132/132/132 125/125/125
f 340/340/340 337/337/337 125/125/125
f 363/363/363 362/362/362 361/361/361
f 364/364/364 363/363/363 361/361/361
f 365/365/365 105/105/105 146/146/146
f 366/366/366 365/365/365 146/146/146
f 367/367/367 363/363/363 364/364/364
f 368/368/368 367/367/367 364/364/364
f 369/369/369 104/104/104 105/105/105
f 365/365/365 369/369/369 105/105/105
f 366/366/366 146/146/146 151/151/151
f 351/351/351 370/370/370 361/361/361
f 333/333/333 372/372/372 371/371/371
f 373/373/373 333/333/333 371/371/371
f 374/374/374 102/102/102 104/104/104
f 369/369/369 374/374/374 104/104/104
f 372/372/372 367/367/367 368/368/368
f 371/371/371 372/372/372 368/368/368
f 375/375/375 118/118/118 119/119/119
f 375/375/375 119/119/119 121/121/121
f 376/376/376 375/375/375 121/121/121
f 376/376/376 121/121/121 123/123/123
f 377/377/377 376/376/376 123/123/123
f 355/355/355 377/377/377 123/123/123
f 354/354/354 355/355/355 123/123/123
f 353/353/353 92/92/92 93/93/93
f 345/345/345 353/353/353 93/93/93
f 353/353/353 345/345/345 346/346/346
f 352/352/352 353/353/353 346/346/346
f 379/379/379 159/159/159 378/378/378
f 378/378/378 169/169/169 157/157/157
f 343/343/343 358/358/358 360/360/360
f 380/380/380 343/343/343 360/360/360
f 158/158/158 159/159/159 379/379/379
f 359/359/359 158/158/158 379/379/379
f 178/178/178 180/180/180 357/357/357
f 357/357/357 382/382/382 381/381/381
f 356/356/356 357/357/357 381/381/381
f 176/176/176 383/383/383 382/382/382
f 180/180/180 176/176/176 382/382/382
f 382/382/382 383/383/383 384/384/384
f 381/381/381 382/382/382 384/384/384
f 176/176/176 177/177/177 383/383/383
f 384/384/384 383/383/383 385/385/385
f 385/385/385 177/177/177 181/181/181
f 340/340/340 125/125/125 126/126/126
f 339/339/339 340/340/340 126/126/126
f 337/337/337 340/340/340 341/341/341
f 386/386/386 337/337/337 341/341/341
f 387/387/387 134/134/134 336/336/336
f 336/336/336 134/134/134 131/131/131
f 77/77/77 130/130/130 388/388/388
f 77/77/77 141/141/141 76/76/76
f 130/130/130 134/134/134 387/387/387
f 388/388/388 130/130/130 387/387/387
f 338/338/338 339/339/339 334/334/334
f 162/162/162 158/158/158 358/358/358
f 180/180/180 382/382/382 357/357/357
f 178/178/178 357/357/357 342/342/342
f 348/348/348 152/152/152 79/79/79
f 350/350/350 362/362/362 389/389/389
f 348/348/348 350/350/350 389/389/389
f 362/362/362 363/363/363 390/390/390
f 389/389/389 362/362/362 390/390/390
f 363/363/363 367/367/367 391/391/391
f 390/390/390 363/363/363 391/391/391
f 367/367/367 372/372/372 392/392/392
f 391/391/391 367/367/367 392/392/392
f 372/372/372 333/333/333 393/393/393
f 392/392/392 372/372/372 393/393/393
f 364/364/364 361/361/361 370/370/370
f 394/394/394 364/364/364 370/370/370
f 368/368/368 364/364/364 394/394/394
f 395/395/395 368/368/368 394/394/394
f 371/371/371 368/368/368 395/395/395
f 396/396/396 371/371/371 395/395/395
f 362/362/362 350/350/350 351/351/351
f 361/361/361 362/362/362 351/351/351
f 106/106/106 351/351/351 79/79/79
f 348/348/348 349/349/349 350/350/350
f 101/101/101 102/102/102 374/374/374
f 332/332/332 101/101/101 374/374/374
f 355/355/355 352/352/352 397/397/397
f 398/398/398 355/355/355 397/397/397
f 398/398/398 399/399/399 377/377/377
f 355/355/355 398/398/398 377/377/377
f 399/399/399 400/400/400 376/376/376
f 377/377/377 399/399/399 376/376/376
f 376/376/376 400/400/400 375/375/375
f 375/375/375 145/145/145 118/118/118
f 378/378/378 157/157/157 153/153/153
f 401/401/401 378/378/378 153/153/153
f 156/156/156 401/401/401 153/153/153
f 401/401/401 156/156/156 81/81/81
f 402/402/402 401/401/401 81/81/81
f 402/402/402 81/81/81 82/82/82
f 331/331/331 402/402/402 82/82/82
f 159/159/159 169/169/169 378/378/378
f 373/373/373 403/403/403 335/335/335
f 397/397/397 352/352/352 346/346/346
f 403/403/403 397/397/397 346/346/346
f 347/347/347 334/334/334 343/343/343
f 347/347/347 343/343/343 380/380/380
f 333/333/333 347/347/347 393/393/393
f 335/335/335 333/333/333 373/373/373
f 344/344/344 86/86/86 343/343/343
f 334/334/334 335/335/335 346/346/346
f 385/385/385 163/163/163 173/173/173
f 385/385/385 174/174/174 171/171/171
f 384/384/384 385/385/385 171/171/171
f 384/384/384 171/171/171 172/172/172
f 381/381/381 384/384/384 172/172/172
f 381/381/381 172/172/172 85/85/85
f 356/356/356 381/381/381 85/85/85
f 356/356/356 85/85/85 86/86/86
f 344/344/344 356/356/356 86/86/86
f 338/338/338 93/93/93 139/139/139
f 341/341/341 338/338/338 139/139/139
f 341/341/341 139/139/139 135/135/135
f 386/386/386 341/341/341 135/135/135
f 387/387/387 136/136/136 141/141/141
f 388/388/388 387/387/387 141/141/141
f 77/77/77 388/388/388 141/141/141
f 135/135/135 136/136/136 387/387/387
f 386/386/386 135/135/135 387/387/387
f 337/337/337 386/386/386 336/336/336
f 386/386/386 387/387/387 336/336/336
f 345/345/345 93/93/93 338/338/338
f 338/338/338 334/334/334 345/345/345
f 334/334/334 342/342/342 344/344/344
f 174/174/174 385/385/385 173/173/173
f 385/385/385 181/181/181 163/163/163
f 383/383/383 177/177/177 385/385/385
f 351/351/351 106/106/106 370/370/370
f 370/370/370 113/113/113 108/108/108
f 394/394/394 370/370/370 108/108/108
f 394/394/394 108/108/108 95/95/95
f 395/395/395 394/394/394 95/95/95
f 395/395/395 95/95/95 96/96/96
f 396/396/396 395/395/395 96/96/96
f 396/396/396 96/96/96 111/111/111
f 403/403/403 396/396/396 111/111/111
f 106/106/106 113/113/113 370/370/370
f 348/348/348 389/389/389 366/366/366
f 389/389/389 390/390/390 365/365/365
f 366/366/366 389/389/389 365/365/365
f 390/390/390 391/391/391 369/369/369
f 365/365/365 390/390/390 369/369/369
f 391/391/391 392/392/392 374/374/374
f 369/369/369 391/391/391 374/374/374
f 374/374/374 392/392/392 393/393/393
f 332/332/332 374/374/374 393/393/393
f 348/348/348 366/366/366 151/151/151
f 116/116/116 397/397/397 403/403/403
f 111/111/111 116/116/116 403/403/403
f 397/397/397 116/116/116 114/114/114
f 398/398/398 397/397/397 114/114/114
f 114/114/114 115/115/115 399/399/399
f 398/398/398 114/114/114 399/399/399
f 115/115/115 142/142/142 400/400/400
f 399/399/399 115/115/115 400/400/400
f 142/142/142 145/145/145 375/375/375
f 400/400/400 142/142/142 375/375/375
f 360/360/360 331/331/331 332/332/332
f 380/380/380 360/360/360 332/332/332
f 360/360/360 359/359/359 402/402/402
f 331/331/331 360/360/360 402/402/402
f 359/359/359 379/379/379 401/401/401
f 402/402/402 359/359/359 401/401/401
f 401/401/401 379/379/379 378/378/378
f 335/335/335 403/403/403 346/346/346
f 373/373/373 371/371/371 396/396/396
f 403/403/403 373/373/373 396/396/396
f 347/347/347 332/332/332 393/393/393
f 380/380/380 332/332/332 347/347/347
f 348/348/348 79/79/79 349/349/349
f 351/351/351 349/349/349 79/79/79
f 406/406/406 405/405/405 404/404/404
f 407/407/407 406/406/406 404/404/404
f 409/409/409 408/408/408 235/235/235
f 411/411/411 279/279/279 410/410/410
f 210/210/210 211/211/211 277/277/277
f 412/412/412 210/210/210 277/277/277
f 413/413/413 405/405/405 406/406/406
f 415/415/415 414/414/414 246/246/246
f 405/405/405 417/417/417 416/416/416
f 404/404/404 405/405/405 416/416/416
f 416/416/416 417/417/417 418/418/418
f 419/419/419 416/416/416 418/418/418
f 422/422/422 421/421/421 420/420/420
f 411/411/411 410/410/410 413/413/413
f 423/423/423 411/411/411 413/413/413
f 426/426/426 425/425/425 424/424/424
f 427/427/427 274/274/274 273/273/273
f 428/428/428 427/427/427 273/273/273
f 430/430/430 416/416/416 429/429/429
f 430/430/430 404/404/404 416/416/416
f 414/414/414 404/404/404 430/430/430
f 415/415/415 404/404/404 414/414/414
f 431/431/431 235/235/235 408/408/408
f 432/432/432 235/235/235 431/431/431
f 235/235/235 433/433/433 198/198/198
f 433/433/433 235/235/235 432/432/432
f 434/434/434 420/420/420 411/411/411
f 256/256/256 184/184/184 260/260/260
f 435/435/435 256/256/256 260/260/260
f 429/429/429 436/436/436 263/263/263
f 437/437/437 222/222/222 189/189/189
f 258/258/258 437/437/437 189/189/189
f 438/438/438 404/404/404 415/415/415
f 438/438/438 407/407/407 404/404/404
f 408/408/408 407/407/407 438/438/438
f 407/407/407 408/408/408 409/409/409
f 279/279/279 254/254/254 253/253/253
f 411/411/411 421/421/421 254/254/254
f 420/420/420 421/421/421 411/411/411
f 203/203/203 233/233/233 243/243/243
f 439/439/439 203/203/203 243/243/243
f 434/434/434 259/259/259 241/241/241
f 423/423/423 425/425/425 426/426/426
f 407/407/407 425/425/425 423/423/423
f 407/407/407 440/440/440 425/425/425
f 407/407/407 409/409/409 440/440/440
f 413/413/413 406/406/406 407/407/407
f 423/423/423 413/413/413 407/407/407
f 423/423/423 434/434/434 411/411/411
f 423/423/423 441/441/441 434/434/434
f 426/426/426 441/441/441 423/423/423
f 414/414/414 430/430/430 442/442/442
f 443/443/443 414/414/414 442/442/442
f 416/416/416 436/436/436 429/429/429
f 228/228/228 419/419/419 444/444/444
f 444/444/444 445/445/445 272/272/272
f 428/428/428 273/273/273 193/193/193
f 445/445/445 428/428/428 193/193/193
f 193/193/193 194/194/194 272/272/272
f 445/445/445 193/193/193 272/272/272
f 447/447/447 446/446/446 279/279/279
f 412/412/412 277/277/277 278/278/278
f 447/447/447 412/412/412 278/278/278
f 447/447/447 278/278/278 275/275/275
f 446/446/446 447/447/447 275/275/275
f 412/412/412 447/447/447 279/279/279
f 412/412/412 279/279/279 210/210/210
f 422/422/422 252/252/252 254/254/254
f 421/421/421 422/422/422 254/254/254
f 448/448/448 250/250/250 252/252/252
f 422/422/422 448/448/448 252/252/252
f 435/435/435 260/260/260 250/250/250
f 448/448/448 435/435/435 250/250/250
f 241/241/241 255/255/255 256/256/256
f 420/420/420 448/448/448 422/422/422
f 241/241/241 192/192/192 255/255/255
f 241/241/241 256/256/256 435/435/435
f 241/241/241 435/435/435 448/448/448
f 205/205/205 449/449/449 441/441/441
f 205/205/205 450/450/450 449/449/449
f 439/439/439 205/205/205 203/203/203
f 451/451/451 205/205/205 439/439/439
f 452/452/452 205/205/205 451/451/451
f 450/450/450 205/205/205 452/452/452
f 439/439/439 243/243/243 239/239/239
f 451/451/451 439/439/439 239/239/239
f 451/451/451 239/239/239 240/240/240
f 452/452/452 451/451/451 240/240/240
f 452/452/452 240/240/240 281/281/281
f 450/450/450 452/452/452 281/281/281
f 450/450/450 281/281/281 259/259/259
f 449/449/449 450/450/450 259/259/259
f 441/441/441 449/449/449 259/259/259
f 434/434/434 441/441/441 259/259/259
f 420/420/420 241/241/241 448/448/448
f 434/434/434 241/241/241 420/420/420
f 221/221/221 453/453/453 440/440/440
f 221/221/221 454/454/454 453/453/453
f 437/437/437 221/221/221 222/222/222
f 221/221/221 455/455/455 454/454/454
f 456/456/456 221/221/221 437/437/437
f 221/221/221 457/457/457 455/455/455
f 457/457/457 221/221/221 456/456/456
f 458/458/458 455/455/455 457/457/457
f 237/237/237 458/458/458 457/457/457
f 237/237/237 457/457/457 456/456/456
f 257/257/257 237/237/237 456/456/456
f 257/257/257 456/456/456 437/437/437
f 258/258/258 257/257/257 437/437/437
f 459/459/459 454/454/454 455/455/455
f 458/458/458 459/459/459 455/455/455
f 424/424/424 453/453/453 454/454/454
f 459/459/459 424/424/424 454/454/454
f 425/425/425 440/440/440 453/453/453
f 424/424/424 425/425/425 453/453/453
f 460/460/460 431/431/431 408/408/408
f 438/438/438 460/460/460 408/408/408
f 197/197/197 198/198/198 433/433/433
f 218/218/218 197/197/197 433/433/433
f 218/218/218 433/433/433 432/432/432
f 461/461/461 218/218/218 432/432/432
f 461/461/461 432/432/432 431/431/431
f 460/460/460 461/461/461 431/431/431
f 443/443/443 246/246/246 414/414/414
f 462/462/462 246/246/246 443/443/443
f 246/246/246 463/463/463 207/207/207
f 246/246/246 464/464/464 463/463/463
f 465/465/465 246/246/246 462/462/462
f 246/246/246 466/466/466 464/464/464
f 465/465/465 466/466/466 246/246/246
f 443/443/443 442/442/442 467/467/467
f 462/462/462 443/443/443 467/467/467
f 462/462/462 467/467/467 280/280/280
f 465/465/465 462/462/462 280/280/280
f 465/465/465 280/280/280 265/265/265
f 466/466/466 465/465/465 265/265/265
f 466/466/466 265/265/265 264/264/264
f 464/464/464 466/466/466 264/264/264
f 464/464/464 264/264/264 223/223/223
f 463/463/463 464/464/464 223/223/223
f 223/223/223 206/206/206 207/207/207
f 463/463/463 223/223/223 207/207/207
f 444/444/444 427/427/427 428/428/428
f 444/444/444 225/225/225 228/228/228
f 225/225/225 444/444/444 229/229/229
f 444/444/444 272/272/272 229/229/229
f 444/444/444 428/428/428 445/445/445
f 468/468/468 263/263/263 436/436/436
f 469/469/469 263/263/263 468/468/468
f 263/263/263 214/214/214 215/215/215
f 263/263/263 470/470/470 214/214/214
f 469/469/469 470/470/470 263/263/263
f 270/270/270 266/266/266 214/214/214
f 470/470/470 270/270/270 214/214/214
f 469/469/469 268/268/268 270/270/270
f 470/470/470 469/469/469 270/270/270
f 468/468/468 271/271/271 268/268/268
f 469/469/469 468/468/468 268/268/268
f 436/436/436 226/226/226 271/271/271
f 468/468/468 436/436/436 271/271/271
f 460/460/460 438/438/438 415/415/415
f 460/460/460 244/244/244 461/461/461
f 244/244/244 218/218/218 461/461/461
f 409/409/409 236/236/236 221/221/221
f 440/440/440 409/409/409 221/221/221
f 426/426/426 424/424/424 459/459/459
f 426/426/426 204/204/204 205/205/205
f 441/441/441 426/426/426 205/205/205
f 426/426/426 459/459/459 204/204/204
f 409/409/409 235/235/235 236/236/236
f 415/415/415 246/246/246 244/244/244
f 459/459/459 458/458/458 204/204/204
f 458/458/458 237/237/237 204/204/204
f 442/442/442 430/430/430 429/429/429
f 442/442/442 429/429/429 263/263/263
f 467/467/467 263/263/263 280/280/280
f 419/419/419 427/427/427 444/444/444
f 418/418/418 427/427/427 419/419/419
f 418/418/418 274/274/274 427/427/427
f 274/274/274 247/247/247 248/248/248
f 279/279/279 411/411/411 254/254/254
f 274/274/274 418/418/418 247/247/247
f 460/460/460 415/415/415 244/244/244
f 442/442/442 263/263/263 467/467/467
f 419/419/419 228/228/228 436/436/436
f 228/228/228 226/226/226 436/436/436
f 419/419/419 436/436/436 416/416/416
f 247/247/247 275/275/275 276/276/276
f 410/410/410 247/247/247 418/418/418
f 410/410/410 418/418/418 417/417/417
f 413/413/413 410/410/410 417/417/417
f 410/410/410 279/279/279 446/446/446
f 410/410/410 446/446/446 275/275/275
f 410/410/410 275/275/275 247/247/247
f 413/413/413 417/417/417 405/405/405
