g cPK_20_002170_00_CELEBIex_SR_L_SB
v -0.18659922 0.11284162 -0.04228608
v -0.20607805 0.098187335 -0.042290773
v -0.20553665 0.09041266 -0.04289269
v -0.18002675 0.11138381 -0.042809535
v -0.02862793 -0.022743447 -0.061095346
v -0.034099232 -0.011752859 -0.060342964
v -0.08932285 -0.02856787 -0.059514966
v -0.07989677 -0.031268366 -0.060133096
v -0.039822046 -0.0036114932 -0.059659716
v -0.09896967 -0.024560798 -0.058726776
v -0.05151395 0.012635693 -0.058293957
v -0.115179814 -0.017414963 -0.057020158
v -0.065861344 0.0279966 -0.05664816
v -0.13256055 -0.009044838 -0.05522887
v -0.08021607 0.043442283 -0.0544747
v -0.14938606 0.0012302083 -0.053342666
v -0.095329575 0.057410814 -0.052384794
v -0.16392533 0.012853232 -0.051444847
v -0.10975727 0.07027043 -0.050442465
v -0.17733827 0.025802908 -0.049575903
v -0.12500933 0.082031 -0.04854677
v -0.1881831 0.03927925 -0.04783235
v -0.14116345 0.09342601 -0.046636023
v -0.19617617 0.05258807 -0.046299882
v -0.1519784 0.09937506 -0.045492947
v -0.2012668 0.066574514 -0.044876378
v -0.16240962 0.104550995 -0.044437993
v -0.20331883 0.07437282 -0.04414906
v -0.17378025 0.1092595 -0.043363344
v -0.20462625 0.082396686 -0.043513674
v -0.20392509 0.10515218 -0.04183658
v -0.19357513 0.1129213 -0.041840542
v -0.1977328 0.111473076 -0.041685995
v -0.20025015 0.11020719 -0.041707147
v -0.05320851 -0.18038191 -0.052930515
v -0.062318683 -0.18051238 -0.05238688
v -0.0699767 -0.18270993 -0.0519299
v -0.04095234 -0.18351583 -0.05366188
v -0.026977345 -0.1951175 -0.05440514
v -0.031036505 -0.1936034 -0.054167695
v -0.03274686 -0.2348341 -0.051068038
v -0.028647983 -0.23308225 -0.051513255
v -0.020925816 -0.19213223 -0.054856915
v -0.022869011 -0.23140466 -0.051962685
v -0.013332016 -0.22916153 -0.052722283
v -0.014284766 -0.18874663 -0.055253204
v -0.0076436833 -0.18363464 -0.055649508
v -0.0039907848 -0.2257855 -0.053555425
v 2.0787307E-05 -0.18303445 -0.056106873
v 0.0044788527 -0.22184311 -0.054400858
v 0.0043893596 -0.18298213 -0.056367557
v 0.012068386 -0.21635179 -0.055235505
v 0.00851983 -0.18357787 -0.056614038
v 0.018762896 -0.21005554 -0.05570783
v 0.012664403 -0.18433283 -0.056742217
v 0.024345307 -0.20253086 -0.05624772
v 0.027957296 -0.19655831 -0.05655241
v 0.017151745 -0.1855016 -0.056742217
v 0.022084812 -0.18773727 -0.056742217
v 0.029944032 -0.19000974 -0.056742217
v -0.04028497 -0.2511889 -0.049304795
v -0.10036918 -0.20767482 -0.049080502
v -0.10973523 -0.22257729 -0.047400005
v -0.09083514 -0.19639271 -0.050498553
v -0.08647236 -0.19212589 -0.050945528
v -0.033230998 -0.18946405 -0.05407105
v -0.08252771 -0.18896064 -0.051180918
v -0.03609525 -0.1870455 -0.0539517
v -0.07666738 -0.18535663 -0.051530626
v -0.052398827 -0.27389136 -0.046890497
v -0.11780559 -0.23916104 -0.045653015
v -0.1215445 -0.24799596 -0.04474768
v -0.057511766 -0.28485376 -0.0457257
v -0.063401684 -0.29596105 -0.044537842
v -0.124543585 -0.25683135 -0.043903727
v -0.06824618 -0.3032995 -0.043679353
v -0.12748133 -0.26560357 -0.043085016
v -0.07415933 -0.308158 -0.043012757
v -0.12894237 -0.2741756 -0.042335827
v -0.08207787 -0.31132352 -0.042371154
v -0.12915066 -0.28241023 -0.041703172
v -0.08943068 -0.3131986 -0.041791268
v -0.12831227 -0.2901766 -0.041203756
v -0.097623535 -0.31315875 -0.04130537
v -0.12611425 -0.2969149 -0.040827777
v -0.10559826 -0.31179085 -0.040932443
v -0.1212299 -0.30331025 -0.040637918
v -0.114568055 -0.3087273 -0.040627755
v -0.1182987 -0.30625078 -0.04059152
v 0.060300123 -0.047095448 -0.058742512
v 0.03955865 -0.12444579 -0.057798006
v 0.053029556 -0.13682847 -0.057064123
v 0.077590175 -0.058860447 -0.057973366
v 0.093414426 -0.07085084 -0.057220407
v 0.06406668 -0.14516653 -0.055836525
v 0.043220025 -0.1020994 -0.05894325
v 0.05657348 -0.045487475 -0.058842033
v 0.047317244 -0.07816835 -0.05894325
v 0.054459568 -0.051121946 -0.058930952
v 0.05009265 -0.066924386 -0.05894325
v 0.052730676 -0.05725075 -0.05894325
v 0.1074599 -0.08585717 -0.056546148
v 0.075451456 -0.15353166 -0.054617263
v 0.1145239 -0.09340923 -0.05620415
v 0.08428697 -0.15972559 -0.05381455
v 0.09371411 -0.16489108 -0.05299918
v 0.12147446 -0.10224479 -0.05586449
v 0.13220315 -0.11669669 -0.054440685
v 0.103482895 -0.16976164 -0.052191224
v 0.14563897 -0.13561761 -0.052561253
v 0.11901263 -0.1775475 -0.050981946
v 0.15608834 -0.15117179 -0.05103406
v 0.13386506 -0.18453538 -0.049758848
v 0.14190085 -0.18935244 -0.049084585
v 0.16388327 -0.16096194 -0.049873978
v 0.1702686 -0.16648014 -0.049066424
v 0.14863265 -0.19447528 -0.048420947
v 0.17582124 -0.16802268 -0.048855968
v 0.15284501 -0.19861025 -0.04788958
v 0.15693948 -0.20477414 -0.047297157
v 0.19430077 -0.18776125 -0.046756446
v 0.18351856 -0.16864602 -0.04846176
v 0.19569734 -0.18071885 -0.04713815
v 0.20039228 -0.19295447 -0.046144135
v 0.198836 -0.21474247 -0.044740167
v 0.20411885 -0.21441288 -0.044763166
v 0.2045366 -0.19655244 -0.045786805
v 0.20773402 -0.21165065 -0.044870455
v 0.20686908 -0.19889261 -0.0456327
v 0.20890808 -0.20850857 -0.045058526
v 0.20832995 -0.20091699 -0.045452982
v 0.2092034 -0.20420757 -0.04526831
v 0.20140052 -0.21955755 -0.04424856
v 0.16757862 -0.21641396 -0.045948785
v 0.17426912 -0.22197483 -0.04537135
v 0.16191939 -0.21096921 -0.04660217
v 0.20141213 -0.2229485 -0.04403152
v 0.18034971 -0.22650182 -0.044842966
v 0.20053115 -0.2261738 -0.043863934
v 0.18430857 -0.2286394 -0.04456208
v 0.19831903 -0.22979715 -0.043865044
v 0.18761437 -0.2302147 -0.044300456
v 0.19479774 -0.2320324 -0.043910164
v 0.19112821 -0.23190175 -0.04408085
v 0.1884022 -0.16970932 -0.0481793
v 0.19563954 -0.17716828 -0.04737835
v 0.19422126 -0.17370032 -0.04767512
v 0.1928026 -0.17211716 -0.047845926
v 0.19423494 0.12087518 -0.060855962
v 0.19929634 0.10587975 -0.060855962
v 0.21696739 0.11075582 -0.060855962
v 0.20684694 0.12696652 -0.060855962
v 0.18440035 0.10326829 -0.060855962
v 0.18375142 0.11588134 -0.060855962
v 0.22061796 0.13460366 -0.060855962
v 0.23610197 0.117019296 -0.060855962
v 0.23197539 0.14139557 -0.060855962
v 0.25022167 0.12295877 -0.060855962
v 0.24133912 0.14752524 -0.060855962
v 0.26122546 0.12882438 -0.060855962
v 0.27118504 0.13594629 -0.060855962
v 0.24908677 0.15347353 -0.060855962
v 0.28817686 0.17395158 -0.060855955
v 0.25950918 0.16414821 -0.060838718
v 0.28941044 0.16941588 -0.060855955
v 0.28924108 0.16260116 -0.060855955
v 0.27789935 0.14239338 -0.060855955
v 0.25304264 0.15717863 -0.06043752
v 0.25677502 0.16088377 -0.06066048
v 0.28352222 0.1487022 -0.060855955
v 0.2871963 0.15594247 -0.060855955
v 0.2531147 0.16655736 -0.06042677
v 0.27020803 0.19080994 -0.060855955
v 0.26079577 0.19332725 -0.060855955
v 0.27823302 0.18674122 -0.060855974
v 0.28269252 0.18310997 -0.060855974
v 0.28585076 0.17937386 -0.060855955
v 0.24501507 0.16815399 -0.05992816
v 0.25015098 0.19441937 -0.06020531
v 0.23280649 0.16949202 -0.059177347
v 0.23864682 0.19463657 -0.059499558
v 0.22568507 0.16970228 -0.058739692
v 0.22660653 0.19421785 -0.058760416
v 0.21435094 0.19306399 -0.058007598
v 0.21672447 0.16966072 -0.05818817
v 0.20492569 0.16878074 -0.05746149
v 0.20219806 0.19124354 -0.057260543
v 0.19044623 0.16765343 -0.056567866
v 0.19046354 0.18892832 -0.05653856
v 0.17946039 0.18606228 -0.055861294
v 0.18139434 0.16722809 -0.056007933
v 0.1609115 0.17893602 -0.054720085
v 0.1538925 0.174791 -0.054289456
v 0.1579202 0.16580194 -0.05455187
v 0.16542356 0.16601235 -0.055018168
v 0.17235652 0.16652583 -0.055447996
v 0.1694996 0.18268275 -0.05524825
v 0.14561929 0.1670477 -0.05387528
v 0.14992577 0.16538656 -0.05405424
v 0.14895886 0.17117013 -0.053987503
v -0.039124873 -0.21524373 -0.065761745
v -0.036851592 -0.20943773 -0.06518116
v -0.07392067 -0.17843372 -0.06432743
v -0.075276375 -0.1959146 -0.06432743
v -0.10764729 0.13710803 -0.06432743
v -0.10498194 0.12229371 -0.06432743
v -0.0073613697 0.25210094 -0.06432743
v -0.013220876 0.25641814 -0.06432743
v -0.109807566 0.15214658 -0.06432743
v -0.018946731 0.2616971 -0.06432743
v -0.11125647 0.16742626 -0.06432743
v -0.02410399 0.26775965 -0.06432743
v -0.111930564 0.18288292 -0.06432743
v -0.029186457 0.2744909 -0.06432743
v -0.09779056 0.27205336 -0.06432743
v -0.03700315 0.28878623 -0.06432743
v -0.043108262 0.30359107 -0.06432743
v -0.09270605 0.28532037 -0.06432743
v -0.071252815 0.33124813 -0.06432743
v -0.074901134 0.32463714 -0.06432743
v -0.048411217 0.32302332 -0.06432743
v -0.05022613 0.33272192 -0.06432743
v -0.10149908 0.2581521 -0.06432743
v -0.08690842 0.30026835 -0.06432743
v -0.046042804 0.31270525 -0.06432743
v -0.078649655 0.3172506 -0.06432743
v -0.10534986 0.24373285 -0.06432743
v -0.11067468 0.2137147 -0.06432743
v -0.10863352 0.22887567 -0.06432743
v -0.11177095 0.19834808 -0.06432743
v -0.068111815 0.3368351 -0.06432743
v -0.051419385 0.336531 -0.06432743
v -0.0621336 0.3415397 -0.06432743
v -0.05559921 0.3410339 -0.06432743
v -0.040637117 -0.22187312 -0.066315286
v -0.07748049 -0.21380167 -0.06548556
v -0.04180676 -0.2290241 -0.06691496
v -0.07913869 -0.22307418 -0.06626215
v -0.04180887 -0.23290792 -0.0672436
v -0.08042542 -0.23107277 -0.06696961
v -0.041595582 -0.23705533 -0.0675972
v -0.08932884 -0.23648441 -0.0673578
v -0.095381156 -0.24210778 -0.06780865
v -0.039147828 -0.24327087 -0.06813087
v -0.10047346 -0.24884656 -0.06835666
v -0.03635372 -0.24961232 -0.06868317
v -0.10121062 -0.33379456 -0.07553879
v -0.014027958 -0.2964134 -0.072731376
v -0.019683361 -0.28476244 -0.071723334
v -0.105155684 -0.324046 -0.0746982
v -0.01938881 -0.38655332 -0.08034026
v -0.01133872 -0.38269675 -0.0800442
v -0.037055675 -0.3876302 -0.08036317
v -0.028914154 -0.38758057 -0.08039258
v -0.005490311 -0.37724638 -0.079608314
v -0.04531059 -0.38618627 -0.08020691
v -0.0014082565 -0.37041596 -0.079048954
v -0.053570297 -0.383338 -0.0799318
v 0.002080667 -0.3619314 -0.07834423
v -0.06129803 -0.37897375 -0.079540946
v 0.0038788405 -0.35284725 -0.077580616
v -0.068526246 -0.37373176 -0.0790525
v 0.003562145 -0.3429677 -0.07674391
v -0.07614939 -0.36736438 -0.07848223
v 0.0012595393 -0.33251032 -0.0758507
v -0.083486244 -0.36009848 -0.07783773
v -0.0033479766 -0.32007942 -0.07478218
v -0.09013172 -0.35197628 -0.07712301
v -0.008651803 -0.3080642 -0.073742986
v -0.096243195 -0.34314254 -0.076350875
v -0.10836885 -0.31404048 -0.07383769
v -0.025192598 -0.27312303 -0.07071629
v -0.028162885 -0.26730335 -0.07021277
v -0.03084497 -0.26148364 -0.06970925
v -0.112183265 -0.29412836 -0.072138205
v -0.11065246 -0.30410764 -0.07298837
v -0.033698495 -0.25531098 -0.069173954
v -0.112226985 -0.28446183 -0.07132065
v -0.107990675 -0.2647031 -0.06966621
v -0.11076193 -0.27510652 -0.07053685
v -0.10447233 -0.2558247 -0.06893005
v 0.04801988 0.30946955 -0.06464822
v 0.043141734 0.3281328 -0.06544427
v 0.03292248 0.3212506 -0.064283244
v 0.03716654 0.30447155 -0.06361036
v 0.075992376 -0.04865341 -0.06432743
v 0.17230622 0.19446522 -0.06432743
v 0.15104479 0.21501611 -0.06432743
v -0.043889098 0.0077005476 -0.06432744
v 0.17712043 0.20663686 -0.06432743
v 0.18112825 0.22044261 -0.06465484
v 0.15321119 0.22511108 -0.064941265
v 0.18362339 0.23329893 -0.06557566
v 0.15457587 0.23582368 -0.0657072
v 0.18452023 0.24614976 -0.06649405
v 0.15502703 0.246271 -0.06645339
v 0.18471907 0.25630245 -0.067218535
v 0.15450214 0.25652283 -0.06718394
v 0.18391077 0.265907 -0.06790168
v 0.15287706 0.26639903 -0.0678865
v 0.1823574 0.2752095 -0.06856298
v 0.15054882 0.27583706 -0.068555854
v 0.18032533 0.28378594 -0.06917115
v 0.14725761 0.28470266 -0.069182225
v 0.1772068 0.2924217 -0.06978289
v 0.14276877 0.29286924 -0.06975714
v 0.17369357 0.30059192 -0.07035905
v 0.13709188 0.300247 -0.070217185
v 0.16959842 0.30834743 -0.07090456
v 0.13213407 0.305117 -0.07029792
v 0.16424723 0.31571972 -0.07142111
v 0.15868467 0.32263306 -0.07190425
v 0.12564994 0.30994242 -0.070234306
v 0.15045185 0.32985124 -0.07234557
v 0.11916789 0.31389114 -0.07001567
v 0.14231241 0.33558103 -0.07274086
v 0.1103629 0.31729168 -0.069632016
v 0.1351104 0.33935133 -0.07247293
v 0.12740372 0.34278768 -0.07194287
v 0.109477185 0.34635952 -0.07075804
v 0.10258933 0.31872413 -0.06916191
v 0.118717216 0.34480155 -0.07135452
v 0.09417387 0.3459206 -0.06966839
v 0.09221029 0.31878385 -0.06833359
v 0.07970361 0.34339508 -0.068658166
v 0.07904902 0.3178199 -0.06740531
v 0.06667033 0.3394785 -0.067749344
v 0.0706503 0.31609687 -0.066700876
v 0.054381665 0.33441752 -0.06663011
v 0.060441848 0.3136141 -0.065793924
v 0.08217928 -0.062300067 -0.06432743
v -0.060046967 -0.08071468 -0.06507847
v -0.08113815 -0.08167079 -0.06650188
v -0.06795745 0.012002377 -0.06561228
v 0.08690768 -0.076153524 -0.06432743
v -0.06661822 -0.09711569 -0.06432743
v 0.090238765 -0.09007429 -0.06432743
v -0.071098424 -0.11254553 -0.06432743
v 0.09254843 -0.1037597 -0.06432743
v -0.07381599 -0.12816541 -0.06432743
v -0.074453644 -0.14434318 -0.06432743
v 0.09317352 -0.117142975 -0.06432743
v 0.09290155 -0.13015136 -0.06432743
v -0.072326235 -0.16138844 -0.06432743
v 0.09083926 -0.14271575 -0.06432743
v 0.08297296 -0.16610391 -0.06432743
v 0.07651213 -0.17664336 -0.06432743
v -0.028000703 -0.21289444 -0.06432743
v 0.06930028 -0.18622255 -0.06432743
v -0.01626895 -0.21547428 -0.06432743
v 0.060509603 -0.19476368 -0.06432743
v -0.003593059 -0.2167267 -0.06432743
v 0.050479013 -0.20229767 -0.06432743
v 0.01034294 -0.21623297 -0.06432743
v 0.037298314 -0.20943268 -0.06432743
v 0.024017189 -0.21419981 -0.06432743
v -0.100225404 -0.08051624 -0.067790486
v -0.08997801 0.013096857 -0.06746791
v -0.11801868 -0.0775853 -0.0689921
v -0.10841655 0.013150035 -0.06842133
v -0.13490444 -0.07338136 -0.07013277
v -0.12549533 0.012771169 -0.069361135
v -0.16751103 -0.06364767 -0.07233632
v -0.15103965 0.0092513 -0.07122303
v 0.18488376 0.17956334 -0.06432743
v 0.09078415 -0.04881994 -0.06432743
v -0.06273499 0.03124685 -0.06432743
v 0.13024467 0.22845069 -0.06432743
v -0.07239982 0.043625873 -0.06432743
v 0.10990303 0.2376843 -0.06432743
v -0.0803868 0.056911618 -0.06432743
v 0.099004544 0.24139805 -0.06432743
v -0.08678264 0.06857482 -0.06432743
v 0.08742212 0.24424036 -0.06432743
v -0.10166889 0.10785414 -0.06432743
v 0.00039194306 0.24772047 -0.06432743
v -0.09733338 0.09402111 -0.06432743
v 0.013173208 0.24917021 -0.06432743
v -0.09241014 0.081025235 -0.06432743
v 0.04250228 0.24992256 -0.06432743
v 0.061588056 0.24859264 -0.06432743
v 0.07500659 0.24679296 -0.06432743
v 0.019752312 0.2973884 -0.061905753
v 0.026662562 0.29897872 -0.062553935
v 0.023382723 0.31434342 -0.06313234
v 0.015932089 0.3069272 -0.062131345
v 0.015516854 0.30226228 -0.061874326
v 0.016430374 0.29977083 -0.061781503
v 0.19436891 0.1647312 -0.06432743
v 0.10604272 -0.047483858 -0.06432743
v 0.20097776 0.15202609 -0.06432743
v 0.120891534 -0.044281106 -0.06432743
v 0.20819406 0.13140173 -0.06432743
v 0.20507117 0.14192034 -0.06432743
v 0.21398573 0.1031325 -0.06432743
v 0.21180664 0.12004528 -0.06432743
v 0.13505152 -0.039400976 -0.06432743
v 0.14770143 -0.032454863 -0.06432743
v 0.21360488 0.070159696 -0.06432743
v 0.21490641 0.08645745 -0.06432743
v 0.16008697 -0.024705492 -0.06432743
v 0.2118733 0.054370333 -0.06432743
v 0.17160273 -0.015101089 -0.06432743
v 0.20757179 0.039220534 -0.06432743
v 0.18201189 -0.0039638896 -0.06432743
v 0.20139928 0.024841446 -0.06432743
v 0.19395326 0.011496 -0.06432743
v -0.1840157 -0.058379438 -0.073452175
v -0.16823614 0.0058847843 -0.07238534
v -0.19261254 -0.056339473 -0.074033506
v -0.18893862 0.0011112781 -0.07378506
v -0.2011807 -0.055391908 -0.074613005
v -0.19921064 -0.0012318308 -0.07447975
v -0.20668049 -0.05506545 -0.074985
v -0.20920019 -0.003134203 -0.07515544
v -0.2117186 -0.05533755 -0.07532581
v -0.21854897 -0.0039500115 -0.075787894
v -0.21635738 -0.056256752 -0.07563963
v -0.22643219 -0.0034507306 -0.07641812
v -0.22065906 -0.057214882 -0.07593066
v -0.23553438 -0.0017549848 -0.077034086
v -0.22707014 -0.061236795 -0.07646129
v -0.24286404 0.00093543733 -0.07753017
v -0.28696418 0.0006025604 -0.080574475
v -0.2845213 -0.006180227 -0.08040901
v -0.24960442 0.004635479 -0.07796699
v -0.25537458 0.009453504 -0.07839632
v -0.2733805 -0.053517915 -0.07961538
v -0.28753072 -0.006421218 -0.08061285
v -0.2757915 -0.049026366 -0.079817764
v -0.24210548 -0.07062633 -0.07743975
v -0.23431526 -0.06655573 -0.076951586
v -0.27316505 -0.0573679 -0.079600796
v -0.28839827 0.007024888 -0.08067162
v -0.2606797 0.0142933875 -0.07881369
v -0.28874072 0.013488523 -0.08069481
v -0.2662982 0.018823532 -0.07921342
v -0.28718686 0.020395314 -0.08060892
v -0.2724533 0.022671433 -0.07964983
v -0.2816042 0.023717277 -0.08021143
v -0.2488793 -0.074088775 -0.07795649
v -0.2733708 -0.060911227 -0.07961472
v -0.25301036 -0.075468 -0.07823614
v -0.27385065 -0.06708311 -0.07964721
v -0.25721255 -0.07703709 -0.07852063
v -0.27371976 -0.06980066 -0.079638354
v -0.26194882 -0.077691555 -0.07884129
v -0.2727964 -0.0723031 -0.07957582
v -0.26710328 -0.076771535 -0.07919031
v -0.27071324 -0.07461765 -0.07943475
v -0.2804028 -0.04462723 -0.080130056
v -0.29056206 -0.006557441 -0.08081818
v -0.29400355 -0.0072872094 -0.08114825
v -0.28622198 -0.03956663 -0.0805242
v -0.29541323 -0.031364843 -0.081243746
v -0.29061285 -0.035937853 -0.08091855
v -0.29772732 -0.009274715 -0.081400536
v -0.3003049 -0.011651818 -0.081575155
v -0.2992046 -0.02644268 -0.08150061
v -0.30156913 -0.016596051 -0.081660815
v -0.30043283 -0.02285029 -0.081583835
v -0.30112442 -0.019888176 -0.08163069
vt 0.88916016 0.52246094
vt 0.9116211 0.5053711
vt 0.9111328 0.4963379
vt 0.88134766 0.5205078
vt 0.7050781 0.3647461
vt 0.7114258 0.37719727
vt 0.7753906 0.35766602
vt 0.76464844 0.3544922
vt 0.71777344 0.38671875
vt 0.7866211 0.3623047
vt 0.7314453 0.40551758
vt 0.80566406 0.37060547
vt 0.7480469 0.42358398
vt 0.8261719 0.3803711
vt 0.7651367 0.44140625
vt 0.8457031 0.39233398
vt 0.78271484 0.45776367
vt 0.86279297 0.40576172
vt 0.7993164 0.47265625
vt 0.87841797 0.42089844
vt 0.8173828 0.48657227
vt 0.890625 0.43652344
vt 0.8359375 0.49975586
vt 0.9003906 0.45214844
vt 0.8486328 0.50683594
vt 0.90625 0.46850586
vt 0.86083984 0.5126953
vt 0.9086914 0.47753906
vt 0.87402344 0.5180664
vt 0.91015625 0.4868164
vt 0.9091797 0.5131836
vt 0.89697266 0.52246094
vt 0.90185547 0.5209961
vt 0.9042969 0.5185547
vt 0.6645508 0.27148438
vt 0.67578125 0.27172852
vt 0.6850586 0.2692871
vt 0.64990234 0.2680664
vt 0.6328125 0.25439453
vt 0.6381836 0.25634766
vt 0.6411133 0.2064209
vt 0.63623047 0.2084961
vt 0.6254883 0.25805664
vt 0.62939453 0.21057129
vt 0.61816406 0.21325684
vt 0.6176758 0.26220703
vt 0.609375 0.26831055
vt 0.6069336 0.21728516
vt 0.60009766 0.26904297
vt 0.5966797 0.22216797
vt 0.59521484 0.26904297
vt 0.58740234 0.22875977
vt 0.58984375 0.26831055
vt 0.57910156 0.23632812
vt 0.58496094 0.26733398
vt 0.57177734 0.24536133
vt 0.5673828 0.2524414
vt 0.57958984 0.26611328
vt 0.57373047 0.2631836
vt 0.5649414 0.25976562
vt 0.6503906 0.18664551
vt 0.7211914 0.23925781
vt 0.7319336 0.2211914
vt 0.70996094 0.2529297
vt 0.7050781 0.25805664
vt 0.640625 0.26123047
vt 0.7001953 0.2619629
vt 0.64404297 0.26416016
vt 0.6928711 0.26611328
vt 0.6645508 0.15917969
vt 0.74121094 0.20117188
vt 0.7451172 0.19042969
vt 0.67089844 0.14587402
vt 0.6772461 0.13244629
vt 0.7480469 0.17980957
vt 0.68310547 0.123535156
vt 0.75097656 0.16918945
vt 0.6894531 0.11767578
vt 0.7524414 0.15881348
vt 0.6982422 0.11383057
vt 0.7519531 0.14880371
vt 0.70654297 0.111572266
vt 0.75097656 0.1394043
vt 0.7158203 0.1116333
vt 0.7480469 0.13122559
vt 0.7246094 0.11328125
vt 0.7421875 0.123535156
vt 0.7348633 0.117004395
vt 0.73876953 0.11999512
vt 0.85791016 0.88134766
vt 0.8823242 0.79003906
vt 0.86621094 0.7758789
vt 0.83740234 0.8676758
vt 0.81884766 0.8535156
vt 0.8535156 0.765625
vt 0.8779297 0.81640625
vt 0.8618164 0.8833008
vt 0.8730469 0.84472656
vt 0.8647461 0.87646484
vt 0.8696289 0.85791016
vt 0.8666992 0.8696289
vt 0.8022461 0.8359375
vt 0.83984375 0.7558594
vt 0.7939453 0.82666016
vt 0.82958984 0.74853516
vt 0.8183594 0.7426758
vt 0.78564453 0.81640625
vt 0.7729492 0.7993164
vt 0.8066406 0.7368164
vt 0.7573242 0.77685547
vt 0.7885742 0.72753906
vt 0.7451172 0.75878906
vt 0.7709961 0.7192383
vt 0.76171875 0.7138672
vt 0.73583984 0.7470703
vt 0.72802734 0.74072266
vt 0.75341797 0.70751953
vt 0.7216797 0.73876953
vt 0.74853516 0.7026367
vt 0.74365234 0.6958008
vt 0.69970703 0.7158203
vt 0.71240234 0.73828125
vt 0.6982422 0.7241211
vt 0.6928711 0.70947266
vt 0.69433594 0.68359375
vt 0.6879883 0.68408203
vt 0.6875 0.7050781
vt 0.68408203 0.6875
vt 0.6850586 0.7026367
vt 0.6826172 0.69140625
vt 0.68310547 0.7001953
vt 0.6826172 0.69628906
vt 0.69140625 0.67822266
vt 0.7314453 0.6816406
vt 0.7236328 0.67529297
vt 0.73779297 0.68847656
vt 0.69140625 0.6743164
vt 0.7163086 0.6699219
vt 0.6923828 0.67041016
vt 0.7114258 0.66748047
vt 0.6953125 0.6669922
vt 0.70751953 0.6665039
vt 0.69921875 0.6665039
vt 0.7036133 0.6660156
vt 0.70654297 0.7368164
vt 0.6982422 0.72802734
vt 0.69970703 0.7324219
vt 0.70166016 0.7338867
vt 0.6191406 0.85253906
vt 0.61328125 0.83496094
vt 0.59228516 0.8408203
vt 0.6040039 0.8598633
vt 0.6308594 0.83154297
vt 0.63183594 0.8466797
vt 0.5878906 0.8691406
vt 0.56933594 0.84814453
vt 0.57421875 0.8769531
vt 0.5522461 0.85498047
vt 0.5629883 0.88427734
vt 0.5390625 0.8623047
vt 0.52734375 0.87060547
vt 0.55371094 0.89160156
vt 0.5073242 0.9160156
vt 0.5415039 0.9042969
vt 0.5058594 0.91064453
vt 0.5058594 0.90234375
vt 0.51953125 0.87841797
vt 0.5488281 0.8959961
vt 0.5444336 0.9003906
vt 0.5126953 0.8857422
vt 0.5083008 0.89453125
vt 0.5488281 0.90722656
vt 0.5283203 0.93603516
vt 0.5395508 0.93896484
vt 0.51904297 0.93115234
vt 0.5136719 0.9267578
vt 0.5097656 0.9223633
vt 0.55859375 0.9091797
vt 0.5522461 0.9404297
vt 0.5732422 0.91064453
vt 0.56591797 0.9404297
vt 0.58154297 0.9111328
vt 0.5805664 0.9399414
vt 0.59521484 0.93896484
vt 0.59228516 0.91064453
vt 0.6064453 0.90966797
vt 0.6098633 0.93652344
vt 0.62402344 0.9086914
vt 0.62402344 0.93359375
vt 0.63720703 0.9301758
vt 0.6347656 0.9082031
vt 0.6591797 0.921875
vt 0.66796875 0.9169922
vt 0.66308594 0.90625
vt 0.6538086 0.9067383
vt 0.6455078 0.90722656
vt 0.6489258 0.92626953
vt 0.6767578 0.90771484
vt 0.6723633 0.9057617
vt 0.6738281 0.91259766
vt 0.34692383 0.28735352
vt 0.34423828 0.29418945
vt 0.38793945 0.3305664
vt 0.3894043 0.3100586
vt 0.42749023 0.70166016
vt 0.4243164 0.68408203
vt 0.3095703 0.83691406
vt 0.31640625 0.8417969
vt 0.43017578 0.7192383
vt 0.3232422 0.84814453
vt 0.43188477 0.7373047
vt 0.3293457 0.85546875
vt 0.4326172 0.7553711
vt 0.33520508 0.86328125
vt 0.41601562 0.86035156
vt 0.34448242 0.8798828
vt 0.3515625 0.89746094
vt 0.4099121 0.87597656
vt 0.38476562 0.9301758
vt 0.38891602 0.9223633
vt 0.35791016 0.92041016
vt 0.36010742 0.9316406
vt 0.42041016 0.8442383
vt 0.40307617 0.8935547
vt 0.3552246 0.9082031
vt 0.3935547 0.9135742
vt 0.4248047 0.82714844
vt 0.43115234 0.7919922
vt 0.42871094 0.8095703
vt 0.43237305 0.7739258
vt 0.38110352 0.93652344
vt 0.36157227 0.93603516
vt 0.37402344 0.94189453
vt 0.36645508 0.94140625
vt 0.34887695 0.27954102
vt 0.39208984 0.2890625
vt 0.35009766 0.27124023
vt 0.39404297 0.27807617
vt 0.35009766 0.26660156
vt 0.3955078 0.26879883
vt 0.34985352 0.26171875
vt 0.40600586 0.26245117
vt 0.41308594 0.25585938
vt 0.34692383 0.25439453
vt 0.41918945 0.24780273
vt 0.34375 0.24694824
vt 0.41992188 0.14794922
vt 0.3173828 0.19189453
vt 0.32421875 0.2055664
vt 0.42456055 0.15942383
vt 0.32373047 0.08630371
vt 0.31420898 0.09051514
vt 0.34448242 0.08465576
vt 0.33496094 0.0847168
vt 0.30737305 0.09692383
vt 0.35424805 0.086364746
vt 0.30273438 0.10491943
vt 0.36401367 0.08972168
vt 0.29858398 0.114868164
vt 0.37304688 0.09484863
vt 0.29638672 0.12561035
vt 0.3815918 0.10101318
vt 0.296875 0.13720703
vt 0.39038086 0.10852051
vt 0.29956055 0.14953613
vt 0.39916992 0.11706543
vt 0.30493164 0.1640625
vt 0.40698242 0.12658691
vt 0.31103516 0.17822266
vt 0.4140625 0.13696289
vt 0.4284668 0.17114258
vt 0.3305664 0.21936035
vt 0.33398438 0.22619629
vt 0.3371582 0.23303223
vt 0.43286133 0.19458008
vt 0.43115234 0.18286133
vt 0.34057617 0.24023438
vt 0.43286133 0.20593262
vt 0.42797852 0.22924805
vt 0.43115234 0.21691895
vt 0.42382812 0.23962402
vt 0.24450684 0.9042969
vt 0.25024414 0.92626953
vt 0.26220703 0.91845703
vt 0.25732422 0.8984375
vt 0.21166992 0.4831543
vt 0.09832764 0.76904297
vt 0.12335205 0.79345703
vt 0.35253906 0.5493164
vt 0.0927124 0.7836914
vt 0.088012695 0.7998047
vt 0.120788574 0.8051758
vt 0.08508301 0.8149414
vt 0.11920166 0.8178711
vt 0.083984375 0.8300781
vt 0.118652344 0.8300781
vt 0.08380127 0.8417969
vt 0.119262695 0.84228516
vt 0.0847168 0.85302734
vt 0.121154785 0.8535156
vt 0.08654785 0.8642578
vt 0.12390137 0.8647461
vt 0.08892822 0.87402344
vt 0.12780762 0.8754883
vt 0.09259033 0.88427734
vt 0.13305664 0.8847656
vt 0.09674072 0.89404297
vt 0.13977051 0.8935547
vt 0.1015625 0.90283203
vt 0.14550781 0.89941406
vt 0.10784912 0.9116211
vt 0.11437988 0.9199219
vt 0.15319824 0.90478516
vt 0.12408447 0.92822266
vt 0.1607666 0.90966797
vt 0.13366699 0.9350586
vt 0.17114258 0.9135742
vt 0.14208984 0.9394531
vt 0.15112305 0.9433594
vt 0.17224121 0.9477539
vt 0.18029785 0.91552734
vt 0.16137695 0.9458008
vt 0.19018555 0.9472656
vt 0.19250488 0.91552734
vt 0.20727539 0.94433594
vt 0.20800781 0.9140625
vt 0.22253418 0.9394531
vt 0.21789551 0.9121094
vt 0.23706055 0.93359375
vt 0.2298584 0.9091797
vt 0.2043457 0.46728516
vt 0.37158203 0.44555664
vt 0.39672852 0.44433594
vt 0.38110352 0.5546875
vt 0.19873047 0.45092773
vt 0.37939453 0.42626953
vt 0.19482422 0.4345703
vt 0.38452148 0.40820312
vt 0.19213867 0.41845703
vt 0.3876953 0.38964844
vt 0.38842773 0.3708496
vt 0.19140625 0.40283203
vt 0.19177246 0.38745117
vt 0.38598633 0.35058594
vt 0.1940918 0.3725586
vt 0.20336914 0.34521484
vt 0.2109375 0.33276367
vt 0.33398438 0.29003906
vt 0.21948242 0.3215332
vt 0.32006836 0.28710938
vt 0.2298584 0.31152344
vt 0.30517578 0.28564453
vt 0.24169922 0.30297852
vt 0.28881836 0.28637695
vt 0.25732422 0.29516602
vt 0.27294922 0.28955078
vt 0.41918945 0.44580078
vt 0.40722656 0.55566406
vt 0.44018555 0.44921875
vt 0.42895508 0.55615234
vt 0.46020508 0.45410156
vt 0.4489746 0.55566406
vt 0.49853516 0.46557617
vt 0.47924805 0.55126953
vt 0.08355713 0.75146484
vt 0.19421387 0.4831543
vt 0.37475586 0.57714844
vt 0.14782715 0.80908203
vt 0.38598633 0.5917969
vt 0.17175293 0.8198242
vt 0.3955078 0.6074219
vt 0.18457031 0.82421875
vt 0.40307617 0.62109375
vt 0.19812012 0.8276367
vt 0.42041016 0.66748047
vt 0.3005371 0.83154297
vt 0.41552734 0.6508789
vt 0.2854004 0.8334961
vt 0.40966797 0.6357422
vt 0.25097656 0.83447266
vt 0.22851562 0.8330078
vt 0.21276855 0.8305664
vt 0.27783203 0.8901367
vt 0.26953125 0.89208984
vt 0.2734375 0.91015625
vt 0.28222656 0.9013672
vt 0.28271484 0.8959961
vt 0.28173828 0.8930664
vt 0.072387695 0.734375
vt 0.17626953 0.48461914
vt 0.06463623 0.7192383
vt 0.15881348 0.4885254
vt 0.056152344 0.6948242
vt 0.05984497 0.70751953
vt 0.049346924 0.6616211
vt 0.0519104 0.6816406
vt 0.14221191 0.49414062
vt 0.12731934 0.5024414
vt 0.049804688 0.6230469
vt 0.04827881 0.64208984
vt 0.11279297 0.51171875
vt 0.051879883 0.6044922
vt 0.09942627 0.5229492
vt 0.057250977 0.58691406
vt 0.087402344 0.5361328
vt 0.064941406 0.5703125
vt 0.074035645 0.5546875
vt 0.5180664 0.47192383
vt 0.49951172 0.5473633
vt 0.52783203 0.4741211
vt 0.5239258 0.5419922
vt 0.53808594 0.4753418
vt 0.53564453 0.5390625
vt 0.5444336 0.47583008
vt 0.5473633 0.5366211
vt 0.55029297 0.4753418
vt 0.55859375 0.53564453
vt 0.55566406 0.47436523
vt 0.56933594 0.5366211
vt 0.56103516 0.47314453
vt 0.5800781 0.5385742
vt 0.5703125 0.46850586
vt 0.5883789 0.5415039
vt 0.6411133 0.5410156
vt 0.6381836 0.5332031
vt 0.5957031 0.54589844
vt 0.60302734 0.5517578
vt 0.6245117 0.47753906
vt 0.64160156 0.53271484
vt 0.6279297 0.48291016
vt 0.58691406 0.45751953
vt 0.5786133 0.4621582
vt 0.62402344 0.4729004
vt 0.6425781 0.5488281
vt 0.609375 0.5571289
vt 0.6430664 0.55615234
vt 0.61572266 0.5625
vt 0.6411133 0.5644531
vt 0.62402344 0.56689453
vt 0.6347656 0.5683594
vt 0.5957031 0.45336914
vt 0.6245117 0.46875
vt 0.60058594 0.45166016
vt 0.625 0.46166992
vt 0.60546875 0.44995117
vt 0.625 0.4584961
vt 0.6113281 0.44921875
vt 0.62402344 0.4555664
vt 0.6171875 0.4501953
vt 0.62158203 0.45263672
vt 0.6333008 0.4880371
vt 0.64501953 0.53271484
vt 0.64941406 0.5317383
vt 0.6401367 0.49389648
vt 0.6508789 0.50341797
vt 0.6455078 0.49829102
vt 0.6538086 0.5292969
vt 0.6567383 0.52685547
vt 0.6557617 0.50927734
vt 0.6586914 0.5209961
vt 0.65771484 0.5131836
vt 0.6586914 0.51660156
vn -0.06213379 0.07623291 -0.9951172
vn -0.06210327 0.07623291 -0.9951172
vn -0.06109619 0.07446289 -0.9951172
vn -0.06109619 0.07446289 -0.9951172
vn -0.036071777 0.08111572 -0.99609375
vn -0.039123535 0.08123779 -0.99609375
vn -0.04171753 0.08129883 -0.99560547
vn -0.036071777 0.08111572 -0.99609375
vn -0.046691895 0.074157715 -0.99609375
vn -0.04824829 0.0713501 -0.99609375
vn -0.05307007 0.06921387 -0.99609375
vn -0.055725098 0.06866455 -0.99609375
vn -0.06210327 0.072387695 -0.99560547
vn -0.06427002 0.074645996 -0.9951172
vn -0.06665039 0.0770874 -0.9946289
vn -0.06652832 0.0769043 -0.9946289
vn -0.06604004 0.076416016 -0.9951172
vn -0.065979004 0.076293945 -0.9951172
vn -0.06549072 0.075805664 -0.9951172
vn -0.06536865 0.07574463 -0.9951172
vn -0.06488037 0.07525635 -0.9951172
vn -0.064819336 0.07519531 -0.9951172
vn -0.064331055 0.07470703 -0.9951172
vn -0.06427002 0.07470703 -0.9951172
vn -0.06384277 0.074279785 -0.9951172
vn -0.06378174 0.074279785 -0.9951172
vn -0.06274414 0.07342529 -0.9951172
vn -0.062683105 0.07336426 -0.9951172
vn -0.060791016 0.07232666 -0.99560547
vn -0.060791016 0.072265625 -0.99560547
vn -0.06542969 0.07940674 -0.9946289
vn -0.06542969 0.0793457 -0.9946289
vn -0.062561035 0.07342529 -0.9951172
vn -0.062561035 0.07342529 -0.9951172
vn -0.059570312 -1.4305115E-06 -0.9980469
vn -0.059570312 -1.4305115E-06 -0.9980469
vn -0.059570312 -5.185604E-06 -0.9980469
vn -0.059570312 -5.185604E-06 -0.9980469
vn -0.055786133 -0.074523926 -0.99560547
vn -0.060058594 -0.036590576 -0.9975586
vn -0.059387207 -0.07489014 -0.99560547
vn -0.056884766 -0.074645996 -0.99560547
vn -0.04876709 -0.07147217 -0.99609375
vn -0.050354004 -0.072387695 -0.99609375
vn -0.047973633 -0.06750488 -0.99658203
vn -0.048706055 -0.065979004 -0.99658203
vn -0.053466797 -0.06008911 -0.99658203
vn -0.052215576 -0.06124878 -0.99658203
vn -0.060638428 -0.056610107 -0.99658203
vn -0.05908203 -0.05697632 -0.99658203
vn -0.05630493 -0.053222656 -0.9970703
vn -0.0579834 -0.053497314 -0.9970703
vn -0.03643799 -0.05102539 -0.9980469
vn -0.03640747 -0.05105591 -0.9980469
vn -0.032958984 -0.053344727 -0.9980469
vn -0.03250122 -0.052886963 -0.9980469
vn -0.024780273 -0.0435791 -0.99853516
vn -0.0256958 -0.04534912 -0.99853516
vn -0.018859863 -0.032104492 -0.9995117
vn -0.018859863 -0.032104492 -0.9995117
vn -0.059387207 -0.07489014 -0.99560547
vn -0.059387207 -0.07489014 -0.99560547
vn -0.059387207 -0.07489014 -0.99560547
vn -0.059417725 -0.074035645 -0.99560547
vn -0.06011963 -0.04119873 -0.9975586
vn -0.059570312 0 -0.9980469
vn -0.059570312 0 -0.9980469
vn -0.059570312 -1.1324883E-06 -0.9980469
vn -0.059570312 0 -0.9980469
vn -0.059387207 -0.07489014 -0.99560547
vn -0.059387207 -0.07489014 -0.99560547
vn -0.059387207 -0.07489014 -0.99560547
vn -0.059387207 -0.07489014 -0.99560547
vn -0.059387207 -0.07489014 -0.99560547
vn -0.059387207 -0.07489014 -0.99560547
vn -0.059387207 -0.07489014 -0.99560547
vn -0.059387207 -0.07489014 -0.99560547
vn -0.059387207 -0.07489014 -0.99560547
vn -0.059387207 -0.07489014 -0.99560547
vn -0.059387207 -0.07489014 -0.99560547
vn -0.059387207 -0.07489014 -0.99560547
vn -0.059387207 -0.07489014 -0.99560547
vn -0.059387207 -0.07489014 -0.99560547
vn -0.059387207 -0.07489014 -0.99560547
vn -0.059387207 -0.07489014 -0.99560547
vn -0.059387207 -0.07489014 -0.99560547
vn -0.059387207 -0.07489014 -0.99560547
vn -0.059387207 -0.07489014 -0.99560547
vn -0.059387207 -0.07489014 -0.99560547
vn 0.04916382 -0.026184082 -0.99853516
vn 0.037750244 -0.023544312 -0.99902344
vn 0.042053223 -0.029388428 -0.99853516
vn 0.03967285 -0.027038574 -0.99902344
vn 0.042755127 -0.036193848 -0.99853516
vn 0.04107666 -0.03778076 -0.99853516
vn 0.19006348 -0.05822754 -0.97998047
vn 0.17993164 -0.055023193 -0.9819336
vn 0.02520752 -0.006450653 -0.9995117
vn 0.025115967 -0.006427765 -0.9995117
vn 0.0058670044 -0.0016765594 -1
vn 0.0058670044 -0.0016765594 -1
vn 0.036315918 -0.042663574 -0.99853516
vn 0.03543091 -0.043792725 -0.99853516
vn 0.029907227 -0.049438477 -0.99853516
vn 0.028686523 -0.05029297 -0.99853516
vn 0.035095215 -0.060028076 -0.9975586
vn 0.0317688 -0.0574646 -0.9980469
vn 0.043762207 -0.066711426 -0.99658203
vn 0.04425049 -0.06713867 -0.99658203
vn 0.046020508 -0.068481445 -0.99658203
vn 0.04598999 -0.06842041 -0.99658203
vn 0.045715332 -0.068115234 -0.99658203
vn 0.045715332 -0.068115234 -0.99658203
vn 0.04550171 -0.06781006 -0.99658203
vn 0.04550171 -0.06781006 -0.99658203
vn 0.04537964 -0.06762695 -0.99658203
vn 0.04537964 -0.06762695 -0.99658203
vn 0.045135498 -0.06732178 -0.99658203
vn 0.04510498 -0.06738281 -0.99658203
vn 0.045013428 -0.06732178 -0.99658203
vn 0.0440979 -0.0670166 -0.99658203
vn 0.04559326 -0.066711426 -0.99658203
vn 0.04559326 -0.066711426 -0.99658203
vn 0.030639648 -0.06567383 -0.9975586
vn 0.042510986 -0.066589355 -0.9970703
vn 0.028930664 -0.06536865 -0.9975586
vn 0.016906738 -0.06359863 -0.9980469
vn 0.016418457 -0.06359863 -0.9980469
vn 0.002128601 -0.06384277 -0.9980469
vn 0.002128601 -0.06384277 -0.9980469
vn 0.0021400452 -0.06384277 -0.9980469
vn 0.0021400452 -0.06384277 -0.9980469
vn 0.044128418 -0.06628418 -0.99658203
vn 0.04449463 -0.06677246 -0.99658203
vn 0.04425049 -0.06652832 -0.99658203
vn 0.0446167 -0.06689453 -0.99658203
vn 0.043884277 -0.06652832 -0.99658203
vn 0.043914795 -0.066101074 -0.9970703
vn 0.043884277 -0.06842041 -0.99658203
vn 0.043884277 -0.06854248 -0.99658203
vn 0.044036865 -0.06665039 -0.99658203
vn 0.044036865 -0.06665039 -0.99658203
vn 0.044006348 -0.06665039 -0.99658203
vn 0.044006348 -0.06665039 -0.99658203
vn 0.04559326 -0.06665039 -0.99658203
vn 0.04559326 -0.06665039 -0.99658203
vn 0.04562378 -0.06665039 -0.99658203
vn 0.04562378 -0.06665039 -0.99658203
vn -0 0 -1
vn -0 0 -1
vn -0 0 -1
vn -0 0 -1
vn -0 0 -1
vn -0 0 -1
vn -0 0 -1
vn -0 0 -1
vn -0 0 -1
vn -0 0 -1
vn -0 0 -1
vn -0 0 -1
vn 0.005428314 0.015357971 -1
vn 0.0037193298 0.010520935 -1
vn -0.00054597855 -0.00019431114 -1
vn -0.014564514 -0.0044403076 -1
vn -0.00057315826 -5.5372715E-05 -1
vn -0.00057697296 0.000100553036 -1
vn -0.0045433044 0.008552551 -1
vn 0.00034928322 0.015686035 -1
vn -0.012916565 -0.009384155 -1
vn -0.011703491 -0.009979248 -1
vn -0.005264282 -0.0068893433 -1
vn -0.044158936 0.0009264946 -0.99902344
vn -0.01651001 -5.6624413E-06 -1
vn -0.04269409 0.00087690353 -0.99902344
vn -0.00032639503 -0.0005168915 -1
vn -0.0004169941 -0.00042629242 -1
vn -0.00049877167 -0.0002965927 -1
vn -0.06112671 0.0014848709 -0.9980469
vn -0.06109619 0.0014858246 -0.9980469
vn -0.061279297 0.0014810562 -0.9980469
vn -0.061279297 0.0014801025 -0.9980469
vn -0.061401367 0.0014848709 -0.9980469
vn -0.061401367 0.0014848709 -0.9980469
vn -0.06149292 0.0014839172 -0.9980469
vn -0.06149292 0.0014839172 -0.9980469
vn -0.06161499 0.0014820099 -0.9980469
vn -0.06161499 0.0014820099 -0.9980469
vn -0.06173706 0.0014839172 -0.9980469
vn -0.06173706 0.0014829636 -0.9980469
vn -0.06185913 0.0014886856 -0.9980469
vn -0.06185913 0.0014886856 -0.9980469
vn -0.062042236 0.0014896393 -0.9980469
vn -0.06210327 0.0014867783 -0.9980469
vn -0.06210327 0.0014877319 -0.9980469
vn -0.062042236 0.0014896393 -0.9980469
vn -0.061950684 0.0014886856 -0.9980469
vn -0.061950684 0.0014886856 -0.9980469
vn -0.062194824 0.0014886856 -0.9980469
vn -0.062164307 0.0014839172 -0.9980469
vn -0.062164307 0.0014839172 -0.9980469
vn -0.008903503 0.051330566 -0.99853516
vn -0.0011577606 0.0126571655 -1
vn -0.001534462 0.009796143 -1
vn -0.010879517 0.042419434 -0.99902344
vn -0 0 -1
vn -0 0 -1
vn -0 0 -1
vn -0 0 -1
vn -0 0 -1
vn -0 0 -1
vn -0 0 -1
vn -0 0 -1
vn -0 0 -1
vn -0 0 -1
vn -0 0 -1
vn -0 0 -1
vn -0 0 -1
vn -0 0 -1
vn -0 0 -1
vn -0 0 -1
vn -0 0 -1
vn -0 0 -1
vn -0 0 -1
vn -0 0 -1
vn -0 0 -1
vn -0 0 -1
vn -0 0 -1
vn -0 0 -1
vn -0 0 -1
vn -0 0 -1
vn -0 0 -1
vn -0 0 -1
vn -0 0 -1
vn -0 0 -1
vn -0.0044403076 0.07598877 -0.9970703
vn -0.004447937 0.075805664 -0.9970703
vn -0.0041122437 0.08428955 -0.99658203
vn -0.0041122437 0.08428955 -0.99658203
vn -0.0041122437 0.08428955 -0.99658203
vn -0.0041122437 0.08428955 -0.99658203
vn -0.0041122437 0.08428955 -0.99658203
vn -0.0041122437 0.08428955 -0.99658203
vn -0.0041122437 0.08428955 -0.99658203
vn -0.0041122437 0.08428955 -0.99658203
vn -0.0041122437 0.08428955 -0.99658203
vn -0.0041122437 0.08428955 -0.99658203
vn -0.0041122437 0.08428955 -0.99658203
vn -0.0041122437 0.08428955 -0.99658203
vn -0.0041122437 0.08428955 -0.99658203
vn -0.0041122437 0.08428955 -0.99658203
vn -0.0041160583 0.08428955 -0.99658203
vn -0.0041122437 0.08428955 -0.99658203
vn -0.0041122437 0.08428955 -0.99658203
vn -0.0041160583 0.08428955 -0.99658203
vn -0.0041122437 0.08428955 -0.99658203
vn -0.0041122437 0.08428955 -0.99658203
vn -0.0041122437 0.08428955 -0.99658203
vn -0.0041122437 0.08428955 -0.99658203
vn -0.0041122437 0.08428955 -0.99658203
vn -0.0041122437 0.08428955 -0.99658203
vn -0.0041122437 0.08428955 -0.99658203
vn -0.0041122437 0.08428955 -0.99658203
vn -0.0041122437 0.08428955 -0.99658203
vn -0.0041122437 0.08428955 -0.99658203
vn -0.0041122437 0.08428955 -0.99658203
vn -0.0041122437 0.08428955 -0.99658203
vn -0.0041122437 0.08428955 -0.99658203
vn -0.0041122437 0.08428955 -0.99658203
vn -0.0041122437 0.08428955 -0.99658203
vn -0.0041122437 0.08428955 -0.99658203
vn -0.0041122437 0.08428955 -0.99658203
vn -0.0041122437 0.08428955 -0.99658203
vn -0.0041122437 0.08428955 -0.99658203
vn -0.0041122437 0.08428955 -0.99658203
vn -0.0041122437 0.08428955 -0.99658203
vn -0.0041122437 0.08428955 -0.99658203
vn -0.0041122437 0.08428955 -0.99658203
vn -0.0041122437 0.08428955 -0.99658203
vn -0.0041122437 0.08428955 -0.99658203
vn -0.0041122437 0.08428955 -0.99658203
vn -0.0041122437 0.08428955 -0.99658203
vn -0.06982422 -0.064208984 -0.99560547
vn -0.069885254 -0.064331055 -0.99560547
vn -0.06945801 -0.06359863 -0.99560547
vn -0.06939697 -0.0635376 -0.99560547
vn 0.0012111664 0.00217247 -1
vn -0 0 -1
vn -0.0021572113 -0.021484375 -1
vn 0.0045394897 0.0012111664 -1
vn -0.0024662018 -0.024551392 -0.9995117
vn -0.0027427673 -0.054992676 -0.99853516
vn -0.0027713776 -0.054534912 -0.99853516
vn -0.0017356873 -0.07116699 -0.9975586
vn -0.0017356873 -0.07116699 -0.9975586
vn -0.0017356873 -0.07116699 -0.9975586
vn -0.0017356873 -0.07116699 -0.9975586
vn -0.0017347336 -0.07116699 -0.9975586
vn -0.0017347336 -0.07116699 -0.9975586
vn -0.0017356873 -0.07116699 -0.9975586
vn -0.0017356873 -0.07116699 -0.9975586
vn -0.0017356873 -0.07116699 -0.9975586
vn -0.0017356873 -0.07116699 -0.9975586
vn -0.0017347336 -0.07116699 -0.9975586
vn -0.0017347336 -0.07116699 -0.9975586
vn -0.0020523071 -0.06994629 -0.9975586
vn -0.0023002625 -0.06903076 -0.9975586
vn -0.0048713684 -0.06201172 -0.9980469
vn -0.0071868896 -0.055999756 -0.99853516
vn -0.013084412 -0.05178833 -0.99853516
vn -0.017700195 -0.05343628 -0.99853516
vn -0.021591187 -0.061798096 -0.9980469
vn -0.030807495 -0.080444336 -0.99609375
vn -0.033081055 -0.06829834 -0.9970703
vn -0.040740967 -0.078125 -0.99609375
vn -0.044158936 -0.08532715 -0.99560547
vn -0.049743652 -0.08654785 -0.9951172
vn -0.06536865 -0.060699463 -0.99609375
vn -0.0725708 -0.05960083 -0.99560547
vn -0.08441162 -0.04434204 -0.99560547
vn -0.07110596 -0.045776367 -0.99658203
vn -0.070739746 -0.04562378 -0.99658203
vn -0.07635498 -0.046081543 -0.99609375
vn -0.06866455 -0.04650879 -0.99658203
vn -0.06829834 -0.046936035 -0.99658203
vn -0.06463623 -0.050994873 -0.99658203
vn -0.0637207 -0.052001953 -0.99658203
vn -0.06378174 -0.058807373 -0.99609375
vn -0.06427002 -0.059326172 -0.99609375
vn -0.06878662 -0.06359863 -0.99560547
vn -0.06890869 -0.06365967 -0.99560547
vn 0.0045547485 -0.0034751892 -1
vn 0.016906738 -0.0036506653 -1
vn 0.06311035 -0.00036668777 -0.9980469
vn 0.06262207 -0.0004117489 -0.9980469
vn 0.0026340485 -0.011169434 -1
vn 0.002008438 -0.008514404 -1
vn -0 0 -1
vn -0 0 -1
vn -0 0 -1
vn -0 0 -1
vn -0 0 -1
vn -0 0 -1
vn -0 0 -1
vn -0 0 -1
vn -0.00059747696 0.0075187683 -1
vn 0.00017821789 0.011306763 -1
vn 0.019195557 -0.04611206 -0.99853516
vn 0.019424438 -0.04663086 -0.99853516
vn -0 0 -1
vn -0 0 -1
vn -0 0 -1
vn -0 0 -1
vn -0 0 -1
vn -0 0 -1
vn -0 0 -1
vn -0 0 -1
vn 0.06738281 0 -0.9975586
vn 0.06738281 0 -0.9975586
vn 0.06738281 0 -0.9975586
vn 0.06738281 0 -0.9975586
vn 0.06738281 0 -0.9975586
vn 0.06738281 0 -0.9975586
vn 0.06744385 0 -0.9975586
vn 0.06744385 0 -0.9975586
vn -0 0 -1
vn -0 0 -1
vn -0 0 -1
vn -0 0 -1
vn -0 0 -1
vn -0 0 -1
vn -0 0 -1
vn -0 0 -1
vn -0 0 -1
vn -0 0 -1
vn -0 0 -1
vn -0 0 -1
vn -0 0 -1
vn -0 0 -1
vn -0 0 -1
vn -0 0 -1
vn -0 0 -1
vn -0 0 -1
vn -0.068725586 -0.06262207 -0.99560547
vn -0.06903076 -0.062927246 -0.99560547
vn -0.0690918 -0.06304932 -0.99560547
vn -0.068725586 -0.06262207 -0.99560547
vn -0.06842041 -0.06222534 -0.99560547
vn -0.06842041 -0.06222534 -0.99560547
vn -0 0 -1
vn -0 0 -1
vn -0 0 -1
vn -0 0 -1
vn -1.2516975E-06 0 -1
vn -0 0 -1
vn -0 0 -1
vn -0 0 -1
vn -0 0 -1
vn -0 0 -1
vn -0 0 -1
vn -0 0 -1
vn -0 0 -1
vn -0 0 -1
vn -0 0 -1
vn -1.013279E-06 0 -1
vn -1.013279E-06 0 -1
vn -1.2516975E-06 0 -1
vn -1.2516975E-06 0 -1
vn 0.06744385 0 -0.9975586
vn 0.06744385 0 -0.9975586
vn 0.06744385 0 -0.9975586
vn 0.06744385 0 -0.9975586
vn 0.06750488 0 -0.9975586
vn 0.06750488 0 -0.9975586
vn 0.06750488 0 -0.9975586
vn 0.06750488 0 -0.9975586
vn 0.06750488 0 -0.9975586
vn 0.06750488 0 -0.9975586
vn 0.06750488 0 -0.9975586
vn 0.06750488 0 -0.9975586
vn 0.06750488 0 -0.9975586
vn 0.06750488 0 -0.9975586
vn 0.06750488 0 -0.9975586
vn 0.06750488 0 -0.9975586
vn 0.06756592 5.7816505E-06 -0.9975586
vn 0.06756592 1.0728836E-06 -0.9975586
vn 0.06756592 0 -0.9975586
vn 0.06756592 5.841255E-06 -0.9975586
vn 0.06756592 0 -0.9975586
vn 0.06756592 0 -0.9975586
vn 0.06756592 0 -0.9975586
vn 0.06756592 -1.3232231E-05 -0.9975586
vn 0.06756592 0 -0.9975586
vn 0.06756592 -1.2993813E-05 -0.9975586
vn 0.06756592 5.9604645E-06 -0.9975586
vn 0.06756592 5.7816505E-06 -0.9975586
vn 0.06756592 6.198883E-06 -0.9975586
vn 0.06756592 6.377697E-06 -0.9975586
vn 0.06756592 5.543232E-06 -0.9975586
vn 0.06756592 5.4240227E-06 -0.9975586
vn 0.06756592 1.0251999E-05 -0.9975586
vn 0.06756592 -9.953976E-06 -0.9975586
vn 0.06756592 -9.417534E-06 -0.9975586
vn 0.06756592 -5.066395E-06 -0.9975586
vn 0.06756592 -5.3048134E-06 -0.9975586
vn 0.06756592 -7.2717667E-06 -0.9975586
vn 0.06756592 -7.5101852E-06 -0.9975586
vn 0.06756592 -1.013279E-05 -0.9975586
vn 0.06756592 -1.013279E-05 -0.9975586
vn 0.06756592 -9.655952E-06 -0.9975586
vn 0.06756592 -9.655952E-06 -0.9975586
vn 0.06756592 0 -0.9975586
vn 0.06756592 0 -0.9975586
vn 0.06756592 0 -0.9975586
vn 0.06756592 0 -0.9975586
vn 0.06756592 0 -0.9975586
vn 0.06756592 0 -0.9975586
vn 0.06756592 0 -0.9975586
vn 0.06756592 0 -0.9975586
vn 0.06756592 0 -0.9975586
vn 0.06756592 0 -0.9975586
vn 0.06762695 0 -0.9975586
vn 0.06762695 0 -0.9975586
g cPK_20_002170_00_CELEBIex_SR_L_SB_0
f 3/3/3 2/2/2 1/1/1
f 4/4/4 3/3/3 1/1/1
f 7/7/7 6/6/6 5/5/5
f 8/8/8 7/7/7 5/5/5
f 10/10/10 9/9/9 6/6/6
f 7/7/7 10/10/10 6/6/6
f 12/12/12 11/11/11 9/9/9
f 10/10/10 12/12/12 9/9/9
f 14/14/14 13/13/13 11/11/11
f 12/12/12 14/14/14 11/11/11
f 16/16/16 15/15/15 13/13/13
f 14/14/14 16/16/16 13/13/13
f 18/18/18 17/17/17 15/15/15
f 16/16/16 18/18/18 15/15/15
f 20/20/20 19/19/19 17/17/17
f 18/18/18 20/20/20 17/17/17
f 22/22/22 21/21/21 19/19/19
f 20/20/20 22/22/22 19/19/19
f 24/24/24 23/23/23 21/21/21
f 22/22/22 24/24/24 21/21/21
f 26/26/26 25/25/25 23/23/23
f 24/24/24 26/26/26 23/23/23
f 28/28/28 27/27/27 25/25/25
f 26/26/26 28/28/28 25/25/25
f 30/30/30 29/29/29 27/27/27
f 28/28/28 30/30/30 27/27/27
f 3/3/3 4/4/4 29/29/29
f 30/30/30 3/3/3 29/29/29
f 1/1/1 2/2/2 31/31/31
f 32/32/32 1/1/1 31/31/31
f 33/33/33 32/32/32 31/31/31
f 34/34/34 33/33/33 31/31/31
f 37/37/37 36/36/36 35/35/35
f 38/38/38 37/37/37 35/35/35
f 41/41/41 40/40/40 39/39/39
f 42/42/42 41/41/41 39/39/39
f 42/42/42 39/39/39 43/43/43
f 44/44/44 42/42/42 43/43/43
f 45/45/45 44/44/44 43/43/43
f 46/46/46 45/45/45 43/43/43
f 45/45/45 46/46/46 47/47/47
f 48/48/48 45/45/45 47/47/47
f 48/48/48 47/47/47 49/49/49
f 50/50/50 48/48/48 49/49/49
f 50/50/50 49/49/49 51/51/51
f 52/52/52 50/50/50 51/51/51
f 52/52/52 51/51/51 53/53/53
f 54/54/54 52/52/52 53/53/53
f 54/54/54 53/53/53 55/55/55
f 56/56/56 54/54/54 55/55/55
f 57/57/57 56/56/56 55/55/55
f 58/58/58 57/57/57 55/55/55
f 57/57/57 58/58/58 59/59/59
f 60/60/60 57/57/57 59/59/59
f 62/62/62 41/41/41 61/61/61
f 63/63/63 62/62/62 61/61/61
f 64/64/64 40/40/40 41/41/41
f 62/62/62 64/64/64 41/41/41
f 64/64/64 65/65/65 40/40/40
f 67/67/67 66/66/66 40/40/40
f 65/65/65 67/67/67 40/40/40
f 69/69/69 68/68/68 66/66/66
f 67/67/67 69/69/69 66/66/66
f 37/37/37 38/38/38 68/68/68
f 69/69/69 37/37/37 68/68/68
f 63/63/63 61/61/61 70/70/70
f 71/71/71 63/63/63 70/70/70
f 72/72/72 71/71/71 70/70/70
f 73/73/73 72/72/72 70/70/70
f 72/72/72 73/73/73 74/74/74
f 75/75/75 72/72/72 74/74/74
f 75/75/75 74/74/74 76/76/76
f 77/77/77 75/75/75 76/76/76
f 77/77/77 76/76/76 78/78/78
f 79/79/79 77/77/77 78/78/78
f 79/79/79 78/78/78 80/80/80
f 81/81/81 79/79/79 80/80/80
f 81/81/81 80/80/80 82/82/82
f 83/83/83 81/81/81 82/82/82
f 83/83/83 82/82/82 84/84/84
f 85/85/85 83/83/83 84/84/84
f 85/85/85 84/84/84 86/86/86
f 87/87/87 85/85/85 86/86/86
f 87/87/87 86/86/86 88/88/88
f 89/89/89 87/87/87 88/88/88
f 92/92/92 91/91/91 90/90/90
f 93/93/93 92/92/92 90/90/90
f 92/92/92 93/93/93 94/94/94
f 95/95/95 92/92/92 94/94/94
f 90/90/90 91/91/91 96/96/96
f 97/97/97 90/90/90 96/96/96
f 97/97/97 96/96/96 98/98/98
f 99/99/99 97/97/97 98/98/98
f 99/99/99 98/98/98 100/100/100
f 101/101/101 99/99/99 100/100/100
f 95/95/95 94/94/94 102/102/102
f 103/103/103 95/95/95 102/102/102
f 103/103/103 102/102/102 104/104/104
f 105/105/105 103/103/103 104/104/104
f 106/106/106 105/105/105 104/104/104
f 107/107/107 106/106/106 104/104/104
f 106/106/106 107/107/107 108/108/108
f 109/109/109 106/106/106 108/108/108
f 109/109/109 108/108/108 110/110/110
f 111/111/111 109/109/109 110/110/110
f 111/111/111 110/110/110 112/112/112
f 113/113/113 111/111/111 112/112/112
f 114/114/114 113/113/113 112/112/112
f 115/115/115 114/114/114 112/112/112
f 114/114/114 115/115/115 116/116/116
f 117/117/117 114/114/114 116/116/116
f 117/117/117 116/116/116 118/118/118
f 119/119/119 117/117/117 118/118/118
f 118/118/118 121/121/121 120/120/120
f 119/119/119 118/118/118 120/120/120
f 121/121/121 118/118/118 122/122/122
f 123/123/123 121/121/121 122/122/122
f 125/125/125 121/121/121 124/124/124
f 126/126/126 125/125/125 124/124/124
f 126/126/126 124/124/124 127/127/127
f 128/128/128 126/126/126 127/127/127
f 128/128/128 127/127/127 129/129/129
f 130/130/130 128/128/128 129/129/129
f 130/130/130 129/129/129 131/131/131
f 132/132/132 130/130/130 131/131/131
f 134/134/134 125/125/125 133/133/133
f 135/135/135 134/134/134 133/133/133
f 136/136/136 120/120/120 121/121/121
f 135/135/135 133/133/133 137/137/137
f 138/138/138 135/135/135 137/137/137
f 138/138/138 137/137/137 139/139/139
f 140/140/140 138/138/138 139/139/139
f 140/140/140 139/139/139 141/141/141
f 142/142/142 140/140/140 141/141/141
f 142/142/142 141/141/141 143/143/143
f 144/144/144 142/142/142 143/143/143
f 123/123/123 122/122/122 145/145/145
f 146/146/146 123/123/123 145/145/145
f 147/147/147 146/146/146 145/145/145
f 148/148/148 147/147/147 145/145/145
f 136/136/136 121/121/121 125/125/125
f 134/134/134 136/136/136 125/125/125
f 151/151/151 150/150/150 149/149/149
f 152/152/152 151/151/151 149/149/149
f 149/149/149 150/150/150 153/153/153
f 154/154/154 149/149/149 153/153/153
f 151/151/151 152/152/152 155/155/155
f 156/156/156 151/151/151 155/155/155
f 156/156/156 155/155/155 157/157/157
f 158/158/158 156/156/156 157/157/157
f 161/161/161 160/160/160 159/159/159
f 162/162/162 161/161/161 159/159/159
f 165/165/165 164/164/164 163/163/163
f 166/166/166 164/164/164 165/165/165
f 159/159/159 160/160/160 158/158/158
f 157/157/157 159/159/159 158/158/158
f 167/167/167 161/161/161 162/162/162
f 168/168/168 167/167/167 162/162/162
f 170/170/170 169/169/169 164/164/164
f 171/171/171 170/170/170 164/164/164
f 171/171/171 164/164/164 166/166/166
f 167/167/167 168/168/168 169/169/169
f 170/170/170 167/167/167 169/169/169
f 173/173/173 164/164/164 172/172/172
f 174/174/174 173/173/173 172/172/172
f 175/175/175 164/164/164 173/173/173
f 176/176/176 164/164/164 175/175/175
f 177/177/177 164/164/164 176/176/176
f 163/163/163 164/164/164 177/177/177
f 174/174/174 172/172/172 178/178/178
f 179/179/179 174/174/174 178/178/178
f 179/179/179 178/178/178 180/180/180
f 181/181/181 179/179/179 180/180/180
f 184/184/184 183/183/183 182/182/182
f 185/185/185 184/184/184 182/182/182
f 182/182/182 183/183/183 181/181/181
f 180/180/180 182/182/182 181/181/181
f 184/184/184 185/185/185 186/186/186
f 187/187/187 184/184/184 186/186/186
f 187/187/187 186/186/186 188/188/188
f 189/189/189 187/187/187 188/188/188
f 190/190/190 189/189/189 188/188/188
f 191/191/191 190/190/190 188/188/188
f 194/194/194 193/193/193 192/192/192
f 195/195/195 194/194/194 192/192/192
f 190/190/190 191/191/191 196/196/196
f 197/197/197 190/190/190 196/196/196
f 200/200/200 199/199/199 198/198/198
f 193/193/193 194/194/194 199/199/199
f 200/200/200 193/193/193 199/199/199
f 195/195/195 192/192/192 197/197/197
f 196/196/196 195/195/195 197/197/197
f 203/203/203 202/202/202 201/201/201
f 204/204/204 203/203/203 201/201/201
f 207/207/207 206/206/206 205/205/205
f 208/208/208 207/207/207 205/205/205
f 208/208/208 205/205/205 209/209/209
f 210/210/210 208/208/208 209/209/209
f 210/210/210 209/209/209 211/211/211
f 212/212/212 210/210/210 211/211/211
f 212/212/212 211/211/211 213/213/213
f 214/214/214 212/212/212 213/213/213
f 217/217/217 216/216/216 215/215/215
f 218/218/218 217/217/217 215/215/215
f 221/221/221 220/220/220 219/219/219
f 222/222/222 221/221/221 219/219/219
f 215/215/215 216/216/216 223/223/223
f 217/217/217 218/218/218 224/224/224
f 225/225/225 217/217/217 224/224/224
f 225/225/225 224/224/224 226/226/226
f 225/225/225 226/226/226 220/220/220
f 221/221/221 225/225/225 220/220/220
f 216/216/216 214/214/214 227/227/227
f 223/223/223 216/216/216 227/227/227
f 229/229/229 214/214/214 228/228/228
f 227/227/227 214/214/214 229/229/229
f 228/228/228 214/214/214 230/230/230
f 230/230/230 214/214/214 213/213/213
f 222/222/222 219/219/219 231/231/231
f 232/232/232 222/222/222 231/231/231
f 232/232/232 231/231/231 233/233/233
f 234/234/234 232/232/232 233/233/233
f 204/204/204 201/201/201 235/235/235
f 236/236/236 204/204/204 235/235/235
f 236/236/236 235/235/235 237/237/237
f 238/238/238 236/236/236 237/237/237
f 238/238/238 237/237/237 239/239/239
f 240/240/240 238/238/238 239/239/239
f 240/240/240 239/239/239 241/241/241
f 242/242/242 240/240/240 241/241/241
f 243/243/243 242/242/242 241/241/241
f 244/244/244 243/243/243 241/241/241
f 246/246/246 245/245/245 243/243/243
f 244/244/244 246/246/246 243/243/243
f 249/249/249 248/248/248 247/247/247
f 250/250/250 249/249/249 247/247/247
f 253/253/253 252/252/252 251/251/251
f 254/254/254 253/253/253 251/251/251
f 256/256/256 255/255/255 252/252/252
f 253/253/253 256/256/256 252/252/252
f 258/258/258 257/257/257 255/255/255
f 256/256/256 258/258/258 255/255/255
f 260/260/260 259/259/259 257/257/257
f 258/258/258 260/260/260 257/257/257
f 262/262/262 261/261/261 259/259/259
f 260/260/260 262/262/262 259/259/259
f 264/264/264 263/263/263 261/261/261
f 262/262/262 264/264/264 261/261/261
f 266/266/266 265/265/265 263/263/263
f 264/264/264 266/266/266 263/263/263
f 268/268/268 267/267/267 265/265/265
f 266/266/266 268/268/268 265/265/265
f 270/270/270 269/269/269 267/267/267
f 268/268/268 270/270/270 267/267/267
f 247/247/247 248/248/248 269/269/269
f 270/270/270 247/247/247 269/269/269
f 249/249/249 250/250/250 271/271/271
f 272/272/272 249/249/249 271/271/271
f 275/275/275 274/274/274 273/273/273
f 276/276/276 275/275/275 273/273/273
f 277/277/277 274/274/274 275/275/275
f 278/278/278 277/277/277 275/275/275
f 276/276/276 273/273/273 272/272/272
f 271/271/271 276/276/276 272/272/272
f 277/277/277 280/280/280 279/279/279
f 246/246/246 277/277/277 279/279/279
f 246/246/246 279/279/279 281/281/281
f 277/277/277 278/278/278 280/280/280
f 246/246/246 281/281/281 245/245/245
g cPK_20_002170_00_CELEBIex_SR_L_SB_1
f 284/284/284 283/283/283 282/282/282
f 285/285/285 284/284/284 282/282/282
f 288/288/288 287/287/287 286/286/286
f 289/289/289 288/288/288 286/286/286
f 288/288/288 290/290/290 287/287/287
f 292/292/292 291/291/291 290/290/290
f 288/288/288 292/292/292 290/290/290
f 294/294/294 293/293/293 291/291/291
f 292/292/292 294/294/294 291/291/291
f 296/296/296 295/295/295 293/293/293
f 294/294/294 296/296/296 293/293/293
f 298/298/298 297/297/297 295/295/295
f 296/296/296 298/298/298 295/295/295
f 300/300/300 299/299/299 297/297/297
f 298/298/298 300/300/300 297/297/297
f 302/302/302 301/301/301 299/299/299
f 300/300/300 302/302/302 299/299/299
f 304/304/304 303/303/303 301/301/301
f 302/302/302 304/304/304 301/301/301
f 306/306/306 305/305/305 303/303/303
f 304/304/304 306/306/306 303/303/303
f 308/308/308 307/307/307 305/305/305
f 306/306/306 308/308/308 305/305/305
f 310/310/310 309/309/309 307/307/307
f 308/308/308 310/310/310 307/307/307
f 313/313/313 312/312/312 311/311/311
f 313/313/313 311/311/311 309/309/309
f 310/310/310 313/313/313 309/309/309
f 315/315/315 314/314/314 312/312/312
f 313/313/313 315/315/315 312/312/312
f 317/317/317 316/316/316 314/314/314
f 315/315/315 317/317/317 314/314/314
f 317/317/317 318/318/318 316/316/316
f 317/317/317 319/319/319 318/318/318
f 317/317/317 321/321/321 320/320/320
f 322/322/322 317/317/317 320/320/320
f 323/323/323 320/320/320 321/321/321
f 324/324/324 323/323/323 321/321/321
f 325/325/325 323/323/323 324/324/324
f 326/326/326 325/325/325 324/324/324
f 327/327/327 325/325/325 326/326/326
f 328/328/328 327/327/327 326/326/326
f 329/329/329 327/327/327 328/328/328
f 330/330/330 329/329/329 328/328/328
f 317/317/317 322/322/322 319/319/319
f 289/289/289 286/286/286 331/331/331
f 332/332/332 289/289/289 331/331/331
f 289/289/289 332/332/332 333/333/333
f 334/334/334 289/289/289 333/333/333
f 332/332/332 331/331/331 335/335/335
f 336/336/336 332/332/332 335/335/335
f 336/336/336 335/335/335 337/337/337
f 338/338/338 336/336/336 337/337/337
f 341/341/341 340/340/340 339/339/339
f 342/342/342 341/341/341 339/339/339
f 338/338/338 337/337/337 339/339/339
f 340/340/340 338/338/338 339/339/339
f 341/341/341 342/342/342 343/343/343
f 344/344/344 341/341/341 343/343/343
f 344/344/344 343/343/343 345/345/345
f 203/203/203 344/344/344 345/345/345
f 203/203/203 345/345/345 346/346/346
f 202/202/202 203/203/203 346/346/346
f 202/202/202 346/346/346 347/347/347
f 348/348/348 202/202/202 347/347/347
f 348/348/348 347/347/347 349/349/349
f 350/350/350 348/348/348 349/349/349
f 350/350/350 349/349/349 351/351/351
f 352/352/352 350/350/350 351/351/351
f 352/352/352 351/351/351 353/353/353
f 354/354/354 352/352/352 353/353/353
f 354/354/354 353/353/353 355/355/355
f 356/356/356 354/354/354 355/355/355
f 334/334/334 333/333/333 357/357/357
f 358/358/358 334/334/334 357/357/357
f 358/358/358 357/357/357 359/359/359
f 360/360/360 358/358/358 359/359/359
f 360/360/360 359/359/359 361/361/361
f 362/362/362 360/360/360 361/361/361
f 362/362/362 361/361/361 363/363/363
f 364/364/364 362/362/362 363/363/363
f 286/286/286 287/287/287 365/365/365
f 366/366/366 286/286/286 365/365/365
f 288/288/288 289/289/289 367/367/367
f 368/368/368 288/288/288 367/367/367
f 368/368/368 367/367/367 369/369/369
f 370/370/370 368/368/368 369/369/369
f 370/370/370 369/369/369 371/371/371
f 372/372/372 370/370/370 371/371/371
f 372/372/372 371/371/371 373/373/373
f 374/374/374 372/372/372 373/373/373
f 376/376/376 375/375/375 206/206/206
f 207/207/207 376/376/376 206/206/206
f 378/378/378 377/377/377 375/375/375
f 376/376/376 378/378/378 375/375/375
f 380/380/380 379/379/379 377/377/377
f 378/378/378 380/380/380 377/377/377
f 382/382/382 373/373/373 381/381/381
f 374/374/374 373/373/373 382/382/382
f 381/381/381 373/373/373 379/379/379
f 380/380/380 381/381/381 379/379/379
f 385/385/385 384/384/384 383/383/383
f 386/386/386 385/385/385 383/383/383
f 284/284/284 285/285/285 384/384/384
f 385/385/385 284/284/284 384/384/384
f 282/282/282 283/283/283 329/329/329
f 330/330/330 282/282/282 329/329/329
f 387/387/387 386/386/386 383/383/383
f 388/388/388 387/387/387 383/383/383
f 366/366/366 365/365/365 389/389/389
f 390/390/390 366/366/366 389/389/389
f 390/390/390 389/389/389 391/391/391
f 392/392/392 390/390/390 391/391/391
f 392/392/392 394/394/394 393/393/393
f 397/397/397 396/396/396 395/395/395
f 398/398/398 397/397/397 395/395/395
f 398/398/398 400/400/400 399/399/399
f 401/401/401 398/398/398 399/399/399
f 392/392/392 391/391/391 394/394/394
f 392/392/392 393/393/393 396/396/396
f 397/397/397 392/392/392 396/396/396
f 398/398/398 395/395/395 400/400/400
f 401/401/401 399/399/399 402/402/402
f 403/403/403 401/401/401 402/402/402
f 403/403/403 402/402/402 404/404/404
f 405/405/405 403/403/403 404/404/404
f 405/405/405 404/404/404 406/406/406
f 407/407/407 405/405/405 406/406/406
f 364/364/364 363/363/363 408/408/408
f 409/409/409 364/364/364 408/408/408
f 409/409/409 408/408/408 410/410/410
f 411/411/411 409/409/409 410/410/410
f 411/411/411 410/410/410 412/412/412
f 413/413/413 411/411/411 412/412/412
f 413/413/413 412/412/412 414/414/414
f 415/415/415 413/413/413 414/414/414
f 415/415/415 414/414/414 416/416/416
f 417/417/417 415/415/415 416/416/416
f 417/417/417 416/416/416 418/418/418
f 419/419/419 417/417/417 418/418/418
f 419/419/419 418/418/418 420/420/420
f 421/421/421 419/419/419 420/420/420
f 421/421/421 420/420/420 422/422/422
f 423/423/423 421/421/421 422/422/422
f 426/426/426 425/425/425 424/424/424
f 427/427/427 426/426/426 424/424/424
f 429/429/429 425/425/425 428/428/428
f 430/430/430 429/429/429 428/428/428
f 428/428/428 432/432/432 431/431/431
f 433/433/433 428/428/428 431/431/431
f 426/426/426 432/432/432 428/428/428
f 425/425/425 426/426/426 428/428/428
f 423/423/423 422/422/422 432/432/432
f 426/426/426 423/423/423 432/432/432
f 427/427/427 424/424/424 434/434/434
f 435/435/435 427/427/427 434/434/434
f 435/435/435 434/434/434 436/436/436
f 437/437/437 435/435/435 436/436/436
f 437/437/437 436/436/436 438/438/438
f 439/439/439 437/437/437 438/438/438
f 439/439/439 438/438/438 440/440/440
f 433/433/433 431/431/431 441/441/441
f 442/442/442 433/433/433 441/441/441
f 442/442/442 441/441/441 443/443/443
f 444/444/444 442/442/442 443/443/443
f 444/444/444 443/443/443 445/445/445
f 446/446/446 444/444/444 445/445/445
f 446/446/446 445/445/445 447/447/447
f 448/448/448 446/446/446 447/447/447
f 448/448/448 447/447/447 449/449/449
f 450/450/450 448/448/448 449/449/449
f 429/429/429 430/430/430 451/451/451
f 452/452/452 429/429/429 451/451/451
f 453/453/453 452/452/452 451/451/451
f 454/454/454 453/453/453 451/451/451
f 457/457/457 456/456/456 455/455/455
f 458/458/458 457/457/457 455/455/455
f 453/453/453 454/454/454 456/456/456
f 457/457/457 453/453/453 456/456/456
f 458/458/458 455/455/455 459/459/459
f 460/460/460 458/458/458 459/459/459
f 460/460/460 459/459/459 461/461/461
f 462/462/462 460/460/460 461/461/461
