g cPK_10_000230_00_NASSYex_RR_L_SB
v -0.17536847 0.0462975 -0.006
v -0.13808936 0.03339381 -0.006
v -0.14245062 0.05003175 -0.006
v -0.15434437 0.057192843 -0.006
v -0.09881935 0.06917056 -0.006
v -0.08239761 0.06949704 -0.006
v -0.09774942 0.08116196 -0.006
v -0.1745978 0.07810473 -0.006
v -0.18882263 0.064979486 -0.006
v -0.12949805 0.11830687 -0.006
v -0.11279187 0.11860651 -0.006
v -0.13327537 0.12626174 -0.006
v -0.22044352 0.12736502 -0.006
v -0.19985624 0.13215224 -0.006
v -0.20576487 0.15413582 -0.006
v -0.1745978 0.1523209 -0.006
v -0.1592414 0.15333615 -0.006
v -0.1745978 0.16863883 -0.006
v -0.12240908 0.13827768 -0.006
v -0.13760816 0.16181575 -0.006
v -0.102882706 0.060845193 -0.006
v -0.0968094 0.040452 -0.006
v -0.11069123 0.054734867 -0.006
v -0.12949805 0.04999163 -0.006
v -0.16416799 0.06696069 -0.006
v -0.18073891 0.08445585 -0.006
v -0.19000314 0.09061135 -0.006
v -0.19665217 0.0878131 -0.006
v -0.18602149 0.08854183 -0.006
v -0.20286718 0.08756363 -0.006
v -0.21705818 0.07880088 -0.006
v -0.2073565 0.08891227 -0.006
v -0.20557466 0.09536888 -0.006
v -0.20507696 0.1054842 -0.006
v -0.20563953 0.11473874 -0.006
v -0.20429896 0.12336822 -0.006
v -0.18597464 0.14768335 -0.006
v -0.15128325 0.15142041 -0.006
v -0.14179155 0.14106011 -0.006
v -0.1244478 0.106752835 -0.006
v -0.11900284 0.10113808 -0.006
v -0.11217721 0.09813489 -0.006
v -0.10644398 0.097028136 -0.006
v -0.08615797 0.09877315 -0.006
v -0.101176776 0.092394054 -0.006
v -0.19287024 0.14213827 -0.006
v 0.11886877 0.21104537 -0.009987206
v 0.08817884 0.21508585 -0.009071717
v 0.110701956 0.18975738 -0.008562668
v 0.081363745 0.19481996 -0.007955536
v 0.1865982 0.1762859 -0.010428409
v 0.15969394 0.17791897 -0.009177838
v 0.17218404 0.16025595 -0.00878187
v 0.27519163 0.12704666 -0.0070216493
v 0.2534587 0.13844283 -0.007467165
v 0.23227656 0.12175723 -0.0069060135
v 0.23309341 0.14309405 -0.007996759
v 0.19450593 0.1404758 -0.008033273
v 0.20587257 0.15941551 -0.009493055
v 0.27022925 0.15341783 -0.008686435
v 0.24394381 0.16988413 -0.00950734
v 0.23197658 0.15094928 -0.008215538
v 0.21488416 0.17349654 -0.010611391
v 0.22908361 0.18705504 -0.01081268
v 0.18149614 0.22650479 -0.013446147
v 0.19795485 0.23818432 -0.013609678
v 0.17351352 0.23840049 -0.01391109
v 0.1835073 0.25252894 -0.013779095
v 0.1676518 0.26377594 -0.013925488
v 0.14610453 0.2687156 -0.013236317
v 0.15956326 0.24587373 -0.013911786
v 0.1432349 0.24978684 -0.013684112
v 0.10526025 0.27199328 -0.011026147
v 0.061953872 0.26670152 -0.008908606
v 0.103670895 0.25334364 -0.01179359
v 0.062424153 0.24901593 -0.00892004
v 0.036855884 0.2520599 -0.008596944
v 0.052099552 0.23878597 -0.008503822
v 0.04357143 0.23310912 -0.008707785
v 0.13969861 0.20674694 -0.010608534
v 0.13384514 0.18413156 -0.008778225
v 0.06383859 0.22015512 -0.00887049
v 0.19958487 0.19844429 -0.012615867
v 0.21443689 0.21370617 -0.012935126
v 0.1822997 0.21566394 -0.012977141
v 0.15767214 0.20004797 -0.01110006
v 0.17242254 0.19087635 -0.011286643
v 0.1509885 0.16088776 -0.007656959
v 0.052259576 0.22461367 -0.009129286
v 0.045077078 0.22634135 -0.008707785
v 0.05334111 0.20188196 -0.008908606
v 0.19820689 0.110840015 -0.012010674
v 0.20283805 0.13344258 -0.013123191
v 0.18378048 0.11744609 -0.014248925
v 0.1884986 0.13509046 -0.01478882
v 0.1884986 0.15605831 -0.0152376015
v 0.2020443 0.15890531 -0.013619321
v 0.08381129 0.20742404 -0.009885682
v 0.09037569 0.19649448 -0.01008128
v 0.1085551 0.21476276 -0.009994246
v 0.109736875 0.20389645 -0.01137373
v 0.17075557 0.06584918 -0.010218645
v 0.16507457 0.08022836 -0.012118548
v 0.15613595 0.06340759 -0.010195247
v 0.1511858 0.07868735 -0.012562296
v 0.03794196 0.106635205 -0.010379522
v 0.051509567 0.08131315 -0.010359778
v 0.05580619 0.109741114 -0.01135144
v 0.0674331 0.09072233 -0.011220633
v 0.19193879 0.095302515 -0.011202796
v 0.17636475 0.1037475 -0.013833511
v 0.1539548 0.19881411 -0.01395224
v 0.17037658 0.18829474 -0.014766881
v 0.158965 0.20944826 -0.012383757
v 0.18034832 0.19764692 -0.0133816665
v 0.1828179 0.17279135 -0.015100819
v 0.1955183 0.17874898 -0.013831946
v 0.1343384 0.21557553 -0.011065291
v 0.133082 0.20476022 -0.0127076
v 0.061380852 0.19401275 -0.009885682
v 0.073906206 0.18273072 -0.009917043
v 0.062402066 0.16214709 -0.010108859
v 0.045585357 0.17513795 -0.009885682
v 0.05424143 0.13947181 -0.011022175
v 0.037746575 0.1452595 -0.009907078
v 0.06935243 0.06714352 -0.0099699665
v 0.085489295 0.07781984 -0.010895861
v 0.10311525 0.057209987 -0.010056217
v 0.109998524 0.072139144 -0.011068471
v 0.13403344 0.055865645 -0.010006095
v 0.13310584 0.0730304 -0.011522952
v 0.17646371 0.08273196 -0.011942129
v 0.18617867 0.07240325 -0.010216367
v 0.078233 0.22649021 -0.010696805
v 0.0751288 0.23514847 -0.010751009
v 0.056466695 0.22566445 -0.009714064
v 0.09168042 0.2954769 -0.011613631
v 0.06681219 0.28256 -0.010839677
v 0.095983885 0.27224326 -0.012545939
v 0.07585551 0.26335835 -0.011652467
v 0.09095121 0.23095539 -0.011269234
v 0.08691954 0.24006383 -0.011254478
v 0.13503842 0.23157175 -0.013479984
v 0.1360099 0.24673568 -0.01406759
v 0.10468518 0.23237328 -0.011596862
v 0.10205106 0.24412456 -0.011706568
v 0.16108412 0.24478237 -0.016022788
v 0.15731476 0.22913508 -0.014936945
v 0.13600807 0.3036373 -0.0142555265
v 0.13625202 0.28070733 -0.015606892
v 0.2054957 0.2962942 -0.02029129
v 0.17182744 0.30307293 -0.017499704
v 0.19816591 0.27824703 -0.02033138
v 0.16721536 0.28195664 -0.018079435
v 0.1845221 0.2408251 -0.017682327
v 0.17863505 0.22430833 -0.016248891
v 0.050070036 0.2671037 -0.010760021
v 0.06258541 0.25228083 -0.011005096
v 0.054325145 0.24004339 -0.010336275
v -0.01665188 0.3307443 -0.012973524
v -0.035391968 0.32003054 -0.011457226
v -0.006889395 0.29983756 -0.012371853
v -0.024809623 0.28893772 -0.011458377
v -0.24229899 0.39770696 -0.009793396
v -0.24234866 0.37748852 -0.009742426
v -0.22734883 0.3863053 -0.00976664
v -0.19202192 0.4065411 -0.0097390795
v -0.22342287 0.36855662 -0.00968223
v 0.11348853 0.39098752 -0.023821667
v 0.087731086 0.39366284 -0.023600414
v 0.097338885 0.35894865 -0.02340651
v 0.20197211 0.3094581 -0.022406531
v 0.17793125 0.31568453 -0.024026344
v 0.18656851 0.28467715 -0.021527732
v 0.16530348 0.30162477 -0.022900824
v 0.11861805 0.25387368 -0.016611053
v 0.109217204 0.27135783 -0.017851336
v 0.20232585 0.3483107 -0.023707917
v 0.18440156 0.37508744 -0.02429215
v 0.17475782 0.34829757 -0.024594946
v 0.16591783 0.35987604 -0.025256548
v 0.18006046 0.32964438 -0.023973137
v 0.14717491 0.37024269 -0.025013043
v 0.15126877 0.39256257 -0.023778543
v 0.12064983 0.36787483 -0.024316952
v 0.09083895 0.43012914 -0.020164186
v 0.071780115 0.41949654 -0.021297703
v 0.024694858 0.39706203 -0.015895976
v 0.048280638 0.38684458 -0.018901799
v 0.04320286 0.4058989 -0.017835265
v -0.00439278 0.41095182 -0.015773654
v -0.059573837 0.4186534 -0.0133496225
v -0.01837652 0.39595935 -0.015735133
v -0.0451059 0.34072834 -0.0118971905
v -0.029058574 0.35201365 -0.013747453
v -0.056157585 0.3584162 -0.012574772
v -0.04414077 0.37261412 -0.013879309
v -0.06719225 0.40040955 -0.013518012
v -0.07545268 0.3832551 -0.013343197
v -0.10040637 0.39095902 -0.013067327
v -0.09534536 0.4086384 -0.013092932
v -0.12310034 0.39202848 -0.012415566
v -0.12337136 0.4096859 -0.012439194
v -0.15040208 0.40675378 -0.0116189
v -0.1457943 0.38883254 -0.011593295
v -0.18860707 0.39815268 -0.010623945
v -0.18210626 0.38218376 -0.010601413
v -0.0077399607 0.24144371 -0.011631175
v 0.00906019 0.23382655 -0.012042394
v 0.028850425 0.32376203 -0.0152973225
v 0.030602127 0.29342678 -0.014360256
v 0.0410338 0.32305714 -0.016823858
v 0.04828389 0.35446963 -0.018479338
v 0.020409955 0.34941515 -0.016155252
v 0.028327499 0.37826094 -0.017251773
v 0.0023544687 0.3763661 -0.016412828
v 0.081511684 0.30428633 -0.019142512
v 0.09135114 0.2979826 -0.018168584
v 0.09180355 0.32759032 -0.02201413
v 0.11847283 0.32865936 -0.021557352
v 0.06615047 0.27660626 -0.015904112
v 0.096407846 0.3525403 -0.02319093
v 0.13310653 0.34506404 -0.02430652
v 0.06543188 0.42710376 -0.020039026
v 0.012986074 0.42085868 -0.013792015
v 0.033845395 0.42334253 -0.015901491
v 0.062375378 0.2251213 -0.013724751
v 0.038970996 0.22787468 -0.013442931
v 0.0015742481 0.25340816 -0.013483315
v -0.0010804569 0.28102037 -0.0133225145
v -0.008697028 0.27718338 -0.013912438
v -0.024955567 0.30060235 -0.014002164
v -0.017647019 0.3067262 -0.013350407
v -0.031801593 0.32463 -0.014070086
v -0.03929364 0.31577465 -0.014184117
v -0.05613015 0.32806638 -0.014601588
v -0.04869899 0.33851063 -0.014746298
v -0.1729648 0.29088342 -0.01999951
v -0.15293051 0.28883523 -0.019298578
v -0.15081377 0.30811033 -0.0200017
v -0.13020599 0.3069112 -0.018740106
v -0.10814656 0.28296748 -0.017123599
v -0.10325098 0.30259675 -0.016934505
v -0.04417744 0.27585393 -0.014488152
v -0.050415486 0.26562676 -0.01479587
v -0.036147323 0.25115415 -0.014539108
v -0.08814173 0.2784049 -0.01596865
v -0.07914614 0.29559544 -0.015630623
v -0.06220873 0.28901446 -0.015066937
v -0.0191256 0.23442803 -0.013971889
v -0.029377613 0.25652662 -0.0142099885
v 0.007882728 0.25554013 -0.013407615
v -0.13319288 0.28708372 -0.018315626
v -0.06916187 0.2734226 -0.015191339
v 0.007987345 0.24035273 -0.013265279
v 0.18629122 0.051745266 -0.007362193
v 0.15056679 0.066657476 -0.011594574
v 0.16725402 0.035933536 -0.0075512617
v 0.14113322 0.04416331 -0.009679038
v 0.023506232 -0.086684965 -0.008537114
v 0.036292102 -0.068549715 -0.008733957
v 0.026988765 -0.05817299 -0.008320386
v 0.055256493 -0.068191916 -0.008426926
v 0.061720073 -0.08744551 -0.0077097537
v 0.08209305 -0.056383904 -0.007967073
v 0.09606347 -0.072120644 -0.0068612187
v 0.11143414 -0.034556936 -0.0064387233
v 0.13155086 -0.049478248 -0.006133976
v 0.14650053 0.0022984648 -0.006057821
v 0.16745752 -0.013816761 -0.005672597
v 0.18049334 0.028061477 -0.0065298947
v 0.2039166 0.026985591 -0.0055507175
v 0.13540813 -0.010225202 -0.0060255276
v -0.014092199 0.0035664786 -0.006655256
v -0.021904422 -0.018767683 -0.0070620324
v 0.0044461745 -0.0019953053 -0.008024752
v -0.0068213725 -0.027097857 -0.008828889
v 0.08028846 0.07906858 -0.0149562685
v 0.0548181 0.06415294 -0.010975441
v 0.07350536 0.051677592 -0.011104087
v -0.051150084 -0.02135002 -0.006172174
v -0.04045041 -0.0013870314 -0.0074367533
v 0.062879704 0.080758326 -0.012931491
v 0.08025295 0.12792775 -0.020107836
v -0.1581147 0.1020443 -0.007214227
v -0.15344514 0.06174901 -0.007214227
v -0.14032178 0.1010785 -0.0070142313
v -0.13513374 0.06476159 -0.0070142285
v -0.082884915 -0.018345032 -0.0064999997
v -0.07071449 0.0029364775 -0.007170646
v -0.111053124 -0.0034069095 -0.0064999997
v -0.10011387 0.016339116 -0.006268603
v -0.1223364 0.0374375 -0.007214227
v -0.13839935 0.023183078 -0.0064999997
v -0.15821551 0.1488052 -0.007214227
v -0.13816014 0.14085412 -0.0070142313
v -0.12068663 0.22234748 -0.009629516
v -0.1449492 0.1901661 -0.0074363262
v -0.10486964 0.19965284 -0.010152212
v -0.1277838 0.16982116 -0.007347554
v 0.023879034 0.24882846 -0.00911793
v -0.011577028 0.25605756 -0.009117915
v 0.012295525 0.22256707 -0.010857998
v -0.0158068 0.23164628 -0.010625485
v 0.05595961 0.21619177 -0.01269857
v 0.03348042 0.20051757 -0.013588481
v 0.073150046 0.17508602 -0.019630343
v 0.05120649 0.16593 -0.015982023
v 0.061366547 0.1246412 -0.017096344
v -0.09394043 0.24081276 -0.009191219
v -0.078929 0.22083767 -0.011134667
v -0.045638483 0.23164628 -0.010671532
v -0.049247384 0.25285107 -0.009117927
v -0.0052669453 -0.048956648 -0.008775479
v 0.018401142 -0.03419913 -0.008634147
v 0.014822984 -0.012014293 -0.008636832
v 0.12360008 0.04774151 -0.011298848
v 0.11823274 0.062054284 -0.014433816
v 0.085468136 0.054095127 -0.011335059
v 0.12705995 0.075312115 -0.014362332
v -0.06318356 0.31402382 -0.018587096
v -0.081043445 0.31757566 -0.019049466
v -0.06694286 0.30478814 -0.019542763
v -0.083042204 0.30924696 -0.020427005
v -0.09959262 0.31757647 -0.019530876
v -0.09824582 0.30786613 -0.021087429
v -0.1109364 0.3032092 -0.02156278
v -0.114103906 0.3138686 -0.020045087
v -0.14897572 0.21846218 -0.020172989
v -0.14995813 0.23309378 -0.020349259
v -0.16504255 0.21226037 -0.018472424
v -0.16662489 0.24647234 -0.019256199
v -0.14930509 0.24772541 -0.020587942
v -0.034211073 0.15844488 -0.018062212
v -0.020453162 0.17614034 -0.017426213
v -0.04061755 0.16803046 -0.016632587
v -0.028673911 0.18162976 -0.016495679
v -0.11377267 0.15886575 -0.016484398
v -0.11666913 0.14940695 -0.01572209
v -0.09735009 0.15413563 -0.016047861
v -0.09717036 0.143431 -0.015689418
v -0.011759084 0.19533989 -0.01597218
v -0.0063029486 0.21429935 -0.015838725
v -0.020014713 0.19966345 -0.01612928
v -0.015981933 0.21664917 -0.015914897
v -0.025463158 0.26285648 -0.016493907
v -0.016193422 0.2681112 -0.015863635
v -0.03653563 0.28086597 -0.017500183
v -0.029667398 0.28889462 -0.017000923
v -0.0063677393 0.23205192 -0.015836665
v -0.016796919 0.23325427 -0.015914908
v -0.051391453 0.29485816 -0.01845502
v -0.04551588 0.30305275 -0.017650349
v -0.07555284 0.15236183 -0.016326813
v -0.0756714 0.14303184 -0.016462797
v -0.13727425 0.15984264 -0.016519185
v -0.12750787 0.16803046 -0.017741466
v -0.14542341 0.19966345 -0.019670807
v -0.1595035 0.19632237 -0.017991802
v -0.14380242 0.2632886 -0.02103495
v -0.16225623 0.2652716 -0.019817162
v -0.12571631 0.2921975 -0.021641763
v -0.13754462 0.301072 -0.020740638
v -0.13616706 0.27800694 -0.021393318
v -0.15151209 0.28599498 -0.020656306
v -0.15049317 0.17842041 -0.017055167
v -0.13825719 0.18251662 -0.018760337
v -0.054172426 0.14762312 -0.01732485
v -0.05674156 0.15768318 -0.016572446
v -0.009407933 0.2502955 -0.015834607
v -0.020175451 0.249795 -0.016095683
v -0.16697925 0.22936635 -0.018769162
v -0.00549855 0.13374291 -0.021917654
v 0.01173995 0.12396755 -0.022577457
v 0.0009855857 0.14310972 -0.021634417
v 0.01807675 0.13102281 -0.022304876
v 0.03187063 0.11534909 -0.02332042
v 0.05837328 0.113728575 -0.023031238
v 0.035568234 0.1256617 -0.022706538
v 0.058052517 0.1256617 -0.023074364
v -0.018049462 0.25209597 -0.019410023
v -0.008601674 0.24782334 -0.018519787
v -0.00071293896 0.27797136 -0.018581988
v 0.12623607 0.15733662 -0.025747973
v 0.13665675 0.18044582 -0.024569217
v 0.121563815 0.18681781 -0.024760036
v 0.09117661 0.29740956 -0.021348838
v 0.08908238 0.28704947 -0.020852517
v 0.11449323 0.28334334 -0.020759532
v 0.10573999 0.27391145 -0.020942805
v 0.06762948 0.3038939 -0.021804297
v 0.06604563 0.29326627 -0.020762827
v 0.039390206 0.3019943 -0.019805718
v 0.042369477 0.29061255 -0.02023357
v 0.017603327 0.292875 -0.0184968
v 0.023394411 0.2820887 -0.019607145
v 0.13175528 0.19622357 -0.024807448
v 0.14574422 0.1932516 -0.024308655
v 0.14379403 0.20832746 -0.024488775
v 0.12577656 0.23302631 -0.023657242
v 0.13106222 0.22450249 -0.024027927
v 0.13803183 0.24193843 -0.022550741
v 0.14357917 0.22282493 -0.024056949
v 0.1301707 0.25989512 -0.021421304
v 0.11985264 0.2536908 -0.022089535
v 0.0781542 0.13206261 -0.023653118
v 0.08420883 0.1222139 -0.022959301
v -0.03199347 0.17953297 -0.020829026
v -0.023373494 0.15634874 -0.021054605
v -0.020480674 0.1796632 -0.019686392
v -0.0112636965 0.15697296 -0.021245144
v -0.03339985 0.20616753 -0.021489145
v -0.021888694 0.20480116 -0.018792957
v -0.016852437 0.22871521 -0.018624544
v -0.026592305 0.23173468 -0.0204375
v 0.107536174 0.14093213 -0.02478802
v 0.09721619 0.14625072 -0.024019897
v 0.1128123 0.16651478 -0.02469134
v 0.0071051167 0.2689186 -0.019094633
v 0.12708734 0.21926032 -0.02500358
v 0.12524575 0.20558047 -0.025444472
v -0.1745978 0.14175259 -0.006
v -0.15971762 0.14148323 -0.006
v -0.16010082 0.11253204 -0.006
v -0.1745978 0.112409286 -0.006
v -0.1745978 0.09823712 -0.006
v -0.16014288 0.098698676 -0.006
v -0.12949805 0.10043868 -0.006
v -0.111429624 0.078604005 -0.006
v -0.12949805 0.07889634 -0.006
v -0.1600384 0.07872012 -0.006
v -0.19367033 0.09695157 -0.006
v -0.1937718 0.11203849 -0.006
v -0.1745978 0.12626174 -0.006
v -0.16017221 0.12626174 -0.006
v -0.19345006 0.12626123 -0.006
v -0.14189868 0.12626174 -0.006
v -0.14197163 0.11304798 -0.006
v -0.14209174 0.09959943 -0.006
v -0.1422315 0.078764014 -0.006
v 0.12696415 0.19108222 -0.016418708
v 0.107295096 0.16018179 -0.01829862
v 0.08944359 0.14078817 -0.017180238
v 0.18540274 0.14880079 -0.016612792
v 0.15818904 0.08644342 -0.015100784
v 0.16880071 0.09658778 -0.015622333
v 0.15013433 0.10596998 -0.018094448
v 0.15674318 0.11275788 -0.019219622
v 0.17182156 0.12774526 -0.01857598
v 0.11829573 0.17474441 -0.018229682
v 0.18230693 0.14154325 -0.017655462
v 0.11719956 0.08532195 -0.014934224
v 0.13650064 0.09581755 -0.016613191
v 0.07148702 0.12484725 -0.014435673
v 0.15932478 0.1636116 -0.019851644
v 0.16482411 0.17592828 -0.01801077
v 0.14857824 0.14893854 -0.02084676
v 0.13621217 0.13502406 -0.021084731
v 0.09403395 0.10500379 -0.016767746
v 0.11322244 0.1178584 -0.019197416
v 0.14314447 0.17734692 -0.018781597
v 0.14854965 0.1880805 -0.016801402
v 0.133437 0.16184147 -0.020208849
v 0.121753626 0.14760292 -0.020439766
v 0.10133302 0.12932329 -0.018717576
v 0.08276049 0.11492552 -0.016103923
v 0.0531014 0.22994749 -0.009733544
v -0.09152906 0.42540494 -0.011702831
v -0.124171965 0.42530534 -0.010833508
v -0.15429427 0.4209462 -0.0102288
v 0.089390464 0.35433277 -0.02307647
v 0.16361801 0.3318021 -0.02535143
v -0.1251605 0.32547736 -0.020433629
v -0.09837409 0.31921336 -0.019012293
v -0.03586335 0.28655842 -0.01605661
v -0.019430395 0.2660797 -0.015369654
v -0.00649267 0.24716368 -0.015078828
v 0.0014443526 0.23336752 -0.01436449
v -0.052882887 0.29990515 -0.016624196
v -0.069501095 0.30920264 -0.017276188
v -0.009441333 0.23064502 -0.014320386
v 0.0034321737 0.071823284 -0.01891212
v -0.029882893 0.07809778 -0.019683978
v -0.020635022 0.023688959 -0.0133302165
v -0.05712637 0.027949035 -0.013772935
v 0.11137048 0.054192938 -0.016645744
v 0.115370214 0.018400352 -0.013748623
v 0.15186776 0.027703619 -0.0110504115
v 0.094079934 -0.020423047 -0.010539416
v 0.021621516 0.015179954 -0.011211879
v 0.06992717 0.038438257 -0.014260354
v 0.04487982 0.040585138 -0.013350317
v 0.03210273 0.0474386 -0.011739644
v 0.009272144 0.024905168 -0.009916757
v 0.037365597 -0.035272557 -0.013460469
v 0.054183092 -0.011656509 -0.015643634
v 0.081377335 0.013033024 -0.016170004
v 0.069211476 0.023051977 -0.01703301
v 0.10105745 0.010886111 -0.014633822
v -0.091467015 0.11404877 -0.015806122
v -0.12599757 0.1338719 -0.0107848635
v -0.12531465 0.1051731 -0.00951372
v 0.009804433 0.17934018 -0.017471766
v -0.021177607 0.19318067 -0.015408548
v -0.08671124 0.04141505 -0.012405483
v -0.11740754 0.07167912 -0.010812049
v -0.05760006 0.09055796 -0.018225322
v 0.0357711 0.16931415 -0.017177284
v 0.026996974 0.07385708 -0.017838864
v 0.023800513 0.123619236 -0.021913176
v -0.036510598 0.1415293 -0.019109398
v -0.004854029 0.12939693 -0.021951513
v -0.06715844 0.15870543 -0.015050101
v -0.09241468 0.18449362 -0.011680944
v -0.11754258 0.1540935 -0.012150956
v -0.050142158 0.20702112 -0.014439339
v 0.04938182 0.124315165 -0.020032166
v 0.046662565 0.07685726 -0.015919408
v -0.11464363 0.1775186 -0.021088893
v -0.1264504 0.18001762 -0.020187145
v -0.05981484 0.19373721 -0.022149468
v -0.05847292 0.17119616 -0.019283066
v -0.040680297 0.18689547 -0.018630331
v -0.13746558 0.23731434 -0.024563944
v -0.124973014 0.24153493 -0.027004385
v -0.1372041 0.25134048 -0.024780346
v -0.1251031 0.25495556 -0.026798755
v -0.040309 0.24213748 -0.020856721
v -0.039630935 0.2573138 -0.020467792
v -0.05871305 0.24768928 -0.024273079
v -0.057576556 0.2625484 -0.02378367
v -0.11570461 0.29646417 -0.023116544
v -0.085666016 0.29634386 -0.023761585
v -0.07540873 0.25102618 -0.02639905
v -0.074202254 0.26609147 -0.025811587
v -0.092104405 0.25436306 -0.027414907
v -0.09082794 0.26963457 -0.02672939
v -0.12374933 0.27022958 -0.02611483
v -0.06928195 0.2916247 -0.022908837
v -0.052897878 0.28690553 -0.020945974
v -0.06005152 0.23229408 -0.024413018
v -0.0410073 0.22674511 -0.020834524
v -0.076883204 0.23578785 -0.026456196
v -0.093714885 0.23928161 -0.027389258
v -0.13377587 0.2667591 -0.024501141
v -0.12851347 0.2817553 -0.02386046
v -0.12085988 0.2855036 -0.02472287
v -0.088015825 0.284526 -0.025672479
v -0.07165364 0.28020653 -0.024654234
v -0.03822938 0.26896277 -0.01942426
v -0.05529147 0.27588707 -0.022525877
v -0.13324054 0.20088688 -0.022457104
v -0.12105765 0.20211028 -0.024466908
v -0.1369093 0.22328825 -0.024129841
v -0.12484292 0.22811432 -0.026710019
v -0.090517744 0.19970565 -0.024448331
v -0.093144745 0.22420011 -0.026800578
v -0.07516629 0.19672142 -0.023821691
v -0.07681714 0.22109127 -0.025972873
v -0.041171752 0.20984833 -0.020390581
v -0.060489524 0.21798244 -0.02403506
v -0.08501467 0.17595059 -0.021136371
v -0.0717438 0.17357337 -0.020564254
v 0.043000344 0.2837413 -0.023518903
v 0.025865292 0.27569786 -0.02328356
v 0.08095636 0.20440832 -0.029093383
v 0.05737136 0.21548031 -0.02956709
v 0.062930405 0.20055465 -0.026537446
v 0.037392255 0.12734348 -0.023897026
v 0.11559125 0.18842813 -0.028061826
v 0.1086787 0.19024375 -0.029454404
v 0.10084992 0.17438853 -0.027428363
v 0.050039586 0.20818098 -0.027594501
v 0.051944226 0.22048557 -0.029589022
v 0.09698439 0.24627829 -0.029441241
v 0.10972655 0.23305689 -0.028222645
v 0.10693582 0.2402141 -0.02828729
v 0.09919108 0.2065475 -0.032453448
v 0.10176615 0.19205937 -0.029422034
v 0.08181319 0.21597643 -0.03276347
v 0.091361254 0.19793853 -0.02921147
v 1.8851715E-05 0.24557896 -0.022636512
v 0.012330557 0.26364943 -0.023005715
v 0.098000064 0.23096776 -0.031366877
v 0.11224126 0.22035229 -0.029929815
v 0.08517127 0.23680447 -0.03146269
v 0.086671054 0.2532135 -0.028760387
v 0.08808387 0.26953432 -0.025975013
v 0.09693375 0.2654204 -0.02566506
v 0.044429578 0.2679625 -0.026365373
v 0.029442986 0.2665982 -0.0257598
v 0.038419362 0.2526343 -0.028517148
v 0.12194317 0.2262353 -0.026902828
v 0.12404807 0.1979321 -0.029047877
v 0.11634087 0.19964062 -0.030590763
v 0.1187435 0.21296676 -0.028915226
v 0.07818151 0.25196728 -0.028386965
v 0.05952322 0.26422533 -0.026577055
v 0.05001715 0.2440621 -0.03013963
v 0.0438053 0.23392887 -0.030679349
v 0.06220711 0.22554116 -0.0320927
v 0.07025904 0.23903227 -0.031198502
v 0.044515725 0.22120212 -0.02853309
v 0.03144793 0.24399243 -0.028937027
v 0.025679661 0.23578715 -0.028725794
v 0.030506639 0.2312185 -0.028461
v 0.06343436 0.27745673 -0.025910938
v 0.08871614 0.28062496 -0.02362878
v 0.06497953 0.28628388 -0.023675283
v 0.061447468 0.26927087 -0.027540023
v 0.10708296 0.2603246 -0.024928685
v 0.106307805 0.2671867 -0.023755228
v 0.11360403 0.2569369 -0.024119874
v 0.12276014 0.23169973 -0.027024163
v 0.04353326 0.27322558 -0.026649712
v 0.020175729 0.25494808 -0.025833338
v 0.01060387 0.24212544 -0.026171131
v 0.0029917397 0.22325931 -0.025827784
v 9.635316E-05 0.20218296 -0.025606308
v 0.021359233 0.21593009 -0.028300405
v 0.02099054 0.19763608 -0.028052954
v 0.10922431 0.16912203 -0.026895573
v 0.09099718 0.14907257 -0.026487915
v -0.0077715255 0.22647992 -0.022597417
v -0.011738221 0.20337415 -0.02259328
v -0.010094172 0.17889407 -0.023226185
v -0.0020539851 0.15766394 -0.02371983
v 0.0040691686 0.14908503 -0.023842229
v 0.02158909 0.13378485 -0.024238048
v 0.038133167 0.16282378 -0.026367096
v 0.032391526 0.16169168 -0.027611164
v 0.040660672 0.14962593 -0.027498407
v 0.044429947 0.15362845 -0.025935901
v 0.021631803 0.17630842 -0.027689634
v 0.0014876866 0.17826205 -0.025766267
v 0.054292656 0.14852957 -0.026116952
v 0.051246632 0.14374703 -0.027503705
v 0.06313003 0.14280187 -0.027257105
v 0.075980626 0.13514209 -0.02595575
v 0.0347452 0.20901978 -0.026563901
v 0.028565487 0.21220091 -0.028101584
v 0.028174525 0.19572918 -0.027809842
v 0.03323307 0.19436172 -0.026251225
v 0.02882967 0.17608662 -0.027625605
v 0.034336936 0.17638281 -0.026125899
v 0.09146432 0.1664894 -0.026470665
v 0.07834645 0.15387444 -0.026394859
v 0.08512854 0.1515737 -0.027211627
v 0.10462234 0.17201613 -0.027701363
v 0.11879406 0.1875646 -0.026963979
v 0.065748915 0.14784268 -0.026841804
v 0.0698452 0.14338149 -0.027169732
v 0.03669343 0.22477336 -0.02692425
v 0.044337615 0.20908375 -0.02725452
v 0.025343144 0.15987079 -0.027492901
v 0.008822976 0.1582469 -0.026038213
v 0.035028096 0.14509785 -0.027309403
v 0.026442235 0.13758193 -0.025897106
v 0.04792319 0.1386187 -0.027247533
v 0.040926185 0.1306018 -0.025770385
v 0.061452996 0.13666937 -0.02690048
v 0.09935553 0.19080207 -0.027920743
v 0.08015038 0.17258689 -0.02632854
v 0.061794322 0.18204318 -0.026243636
v 0.074480005 0.18870866 -0.026065473
v 0.04426728 0.20243418 -0.02647473
v 0.05847865 0.16492017 -0.026643207
v 0.09906958 0.17602682 -0.026517976
v 0.059925802 0.13116552 -0.025616193
v 0.12207744 0.20371905 -0.029015744
v 0.07328477 0.1387314 -0.026594732
v 0.25191462 0.27972072 -0.023560861
v 0.24236391 0.26093066 -0.023588637
v 0.22865741 0.22654389 -0.020729769
v 0.22144902 0.20943914 -0.019163603
v 0.28739235 0.22819553 -0.024654627
v 0.3021999 0.24594836 -0.024946377
v 0.26436374 0.24713564 -0.024410928
v 0.27777427 0.2658222 -0.024526788
v 0.24882059 0.21817122 -0.021914741
v 0.24054813 0.20232478 -0.020200534
v 0.28846943 0.19617188 -0.023235569
v 0.2708848 0.20778565 -0.022825396
v 0.27459154 0.18247329 -0.021509105
v 0.25821316 0.19329827 -0.020993588
v 0.30625245 0.15894115 -0.022190154
v 0.33115816 0.15397033 -0.023540497
v 0.31821337 0.1720839 -0.02350584
v 0.3033414 0.18412788 -0.02359417
v 0.33615676 0.17314357 -0.024040787
v 0.30351603 0.20893414 -0.024492025
v 0.31788635 0.22084394 -0.024453824
v 0.31252244 0.19133791 -0.023909321
v 0.3295117 0.19973879 -0.024602612
v -0.29999757 0.35696658 -0.024349619
v -0.2826722 0.3578374 -0.024407187
v -0.2844579 0.36964688 -0.024490252
v -0.27550313 0.35364032 -0.024487535
v -0.25407645 0.36119503 -0.02385898
v -0.2628803 0.3671916 -0.023887534
v -0.08670101 0.36215052 -0.016275883
v -0.115016274 0.36838084 -0.017084105
v -0.09114553 0.34384266 -0.015909586
v -0.11825329 0.3508943 -0.017317964
v -0.1453784 0.35365325 -0.018768875
v -0.14258543 0.37152106 -0.018351583
v -0.17045122 0.37169465 -0.020010263
v -0.1697531 0.35234103 -0.019862985
v -0.19269408 0.35137227 -0.021021191
v -0.19516756 0.3699613 -0.021375513
v -0.21826804 0.3475401 -0.022329152
v -0.23913462 0.36196297 -0.02345615
v -0.23738115 0.34409022 -0.023282697
v -0.26251253 0.34395996 -0.024157254
v -0.26833403 0.3470708 -0.024271345
v -0.2792006 0.3482786 -0.02416046
v -0.29403332 0.33999482 -0.02438013
v -0.27996084 0.31915465 -0.022873089
v -0.25453186 0.3047435 -0.022686882
v -0.2674912 0.33465746 -0.022961784
v -0.2469399 0.32223108 -0.02278764
v -0.22211678 0.31493506 -0.022072433
v -0.22514375 0.29807264 -0.021530135
v -0.19749266 0.29308176 -0.02079451
v -0.19523303 0.31140134 -0.021367857
v -0.17142157 0.3093095 -0.020705238
v -0.2814202 0.38456172 -0.023682952
v -0.29784504 0.37819833 -0.02436158
v -0.22089434 0.36602414 -0.022648856
v -0.27034688 0.37891898 -0.023467947
v -0.2881491 0.32867873 -0.0244414
v -0.2739279 0.34100243 -0.024119092
v -0.26612538 0.33720946 -0.024580076
v -0.24364762 0.33044955 -0.02444057
v -0.22053504 0.32833493 -0.024207044
v -0.17068845 0.3282174 -0.022714913
v -0.14843611 0.3280328 -0.021807581
v -0.19416466 0.32822102 -0.023496095
vt 0.22473145 0.20776367
vt 0.18237305 0.19299316
vt 0.18737793 0.21191406
vt 0.20092773 0.22009277
vt 0.13781738 0.23376465
vt 0.119262695 0.23413086
vt 0.13659668 0.24743652
vt 0.22387695 0.24389648
vt 0.2401123 0.2290039
vt 0.17260742 0.28979492
vt 0.15368652 0.29003906
vt 0.17700195 0.29882812
vt 0.2758789 0.30004883
vt 0.25268555 0.30541992
vt 0.25927734 0.3305664
vt 0.22387695 0.32861328
vt 0.2064209 0.32958984
vt 0.22387695 0.34716797
vt 0.16455078 0.3125
vt 0.18188477 0.33935547
vt 0.14245605 0.22424316
vt 0.13549805 0.2010498
vt 0.15124512 0.21728516
vt 0.17260742 0.21191406
vt 0.21203613 0.23120117
vt 0.23095703 0.2512207
vt 0.24145508 0.25830078
vt 0.24902344 0.25512695
vt 0.23693848 0.25585938
vt 0.25610352 0.25463867
vt 0.2722168 0.24475098
vt 0.26123047 0.25634766
vt 0.2590332 0.26367188
vt 0.25854492 0.27514648
vt 0.25927734 0.28564453
vt 0.25756836 0.29541016
vt 0.2368164 0.3232422
vt 0.1973877 0.32739258
vt 0.18664551 0.31567383
vt 0.16687012 0.27661133
vt 0.1607666 0.27026367
vt 0.1529541 0.2668457
vt 0.14648438 0.265625
vt 0.123413086 0.26757812
vt 0.14050293 0.2602539
vt 0.2446289 0.31689453
vt 0.17285156 0.9223633
vt 0.20788574 0.9267578
vt 0.18225098 0.8979492
vt 0.21569824 0.9038086
vt 0.09552002 0.8823242
vt 0.1262207 0.88427734
vt 0.11199951 0.8642578
vt -0.0056533813 0.8261719
vt 0.01914978 0.83935547
vt 0.04333496 0.8203125
vt 0.042419434 0.84472656
vt 0.08648682 0.8417969
vt 0.07348633 0.86328125
vt -6.0796738E-06 0.8564453
vt 0.02999878 0.875
vt 0.043670654 0.8535156
vt 0.06323242 0.87939453
vt 0.04699707 0.89453125
vt 0.10131836 0.9399414
vt 0.08258057 0.953125
vt 0.11047363 0.9536133
vt 0.09906006 0.96972656
vt 0.1171875 0.9824219
vt 0.1418457 0.98779297
vt 0.12634277 0.96191406
vt 0.14501953 0.9663086
vt 0.18835449 0.9916992
vt 0.23791504 0.98583984
vt 0.19018555 0.9707031
vt 0.23730469 0.96533203
vt 0.26660156 0.96875
vt 0.24914551 0.9536133
vt 0.25878906 0.9472656
vt 0.14904785 0.9169922
vt 0.15576172 0.89160156
vt 0.23571777 0.9326172
vt 0.08068848 0.90771484
vt 0.0637207 0.92529297
vt 0.10046387 0.9272461
vt 0.12854004 0.90966797
vt 0.111694336 0.8989258
vt 0.13623047 0.8647461
vt 0.24890137 0.9375
vt 0.25708008 0.9394531
vt 0.24768066 0.9116211
vt 0.34692383 0.48876953
vt 0.34155273 0.5151367
vt 0.3635254 0.49658203
vt 0.3581543 0.51708984
vt 0.3581543 0.5415039
vt 0.3425293 0.5444336
vt 0.47924805 0.60058594
vt 0.4716797 0.5878906
vt 0.4506836 0.6088867
vt 0.44921875 0.5966797
vt 0.3786621 0.43701172
vt 0.3852539 0.45361328
vt 0.3955078 0.43408203
vt 0.4013672 0.45166016
vt 0.53222656 0.48413086
vt 0.51660156 0.45483398
vt 0.51171875 0.48779297
vt 0.49829102 0.46557617
vt 0.3540039 0.47070312
vt 0.3720703 0.4807129
vt 0.39819336 0.5908203
vt 0.3791504 0.5786133
vt 0.39233398 0.60302734
vt 0.36767578 0.58935547
vt 0.3647461 0.5605469
vt 0.35009766 0.5673828
vt 0.42089844 0.6098633
vt 0.42211914 0.59765625
vt 0.5053711 0.58496094
vt 0.49072266 0.5722656
vt 0.50390625 0.54833984
vt 0.5234375 0.56347656
vt 0.5136719 0.52197266
vt 0.53271484 0.5288086
vt 0.49609375 0.43823242
vt 0.47729492 0.4506836
vt 0.4567871 0.42700195
vt 0.4489746 0.4440918
vt 0.42114258 0.42529297
vt 0.42211914 0.44506836
vt 0.3720703 0.45629883
vt 0.36083984 0.44458008
vt 0.30297852 0.7729492
vt 0.30664062 0.78271484
vt 0.32861328 0.77197266
vt 0.28710938 0.8540039
vt 0.31640625 0.8388672
vt 0.28222656 0.82666016
vt 0.3059082 0.81591797
vt 0.28808594 0.77783203
vt 0.2927246 0.7885742
vt 0.23620605 0.7788086
vt 0.23498535 0.7963867
vt 0.27197266 0.77978516
vt 0.27490234 0.79345703
vt 0.2055664 0.7944336
vt 0.20996094 0.7758789
vt 0.23498535 0.86376953
vt 0.23474121 0.8364258
vt 0.15319824 0.85498047
vt 0.1928711 0.86279297
vt 0.16186523 0.8334961
vt 0.19824219 0.8378906
vt 0.17797852 0.7895508
vt 0.18481445 0.77001953
vt 0.33618164 0.8203125
vt 0.3215332 0.80322266
vt 0.33129883 0.7885742
vt 0.25341797 0.56103516
vt 0.27514648 0.54833984
vt 0.2421875 0.5253906
vt 0.26293945 0.51220703
vt 0.51464844 0.6381836
vt 0.51464844 0.6152344
vt 0.49731445 0.6254883
vt 0.45654297 0.6489258
vt 0.49291992 0.60498047
vt 0.10284424 0.6308594
vt 0.13269043 0.63378906
vt 0.121520996 0.59375
vt 0.00065231323 0.5371094
vt 0.028320312 0.5439453
vt 0.01838684 0.5083008
vt 0.042938232 0.52783203
vt 0.09698486 0.4724121
vt 0.10784912 0.49243164
vt 0.00022852421 0.58154297
vt 0.020874023 0.6123047
vt 0.031982422 0.58154297
vt 0.042175293 0.59472656
vt 0.025878906 0.5600586
vt 0.06384277 0.6069336
vt 0.059143066 0.6328125
vt 0.09454346 0.6040039
vt 0.12902832 0.67626953
vt 0.15112305 0.6640625
vt 0.20605469 0.6381836
vt 0.1784668 0.62597656
vt 0.18444824 0.6484375
vt 0.23937988 0.6538086
vt 0.3034668 0.66308594
vt 0.25561523 0.63671875
vt 0.2866211 0.5722656
vt 0.26782227 0.5854492
vt 0.2993164 0.59277344
vt 0.2854004 0.609375
vt 0.31201172 0.64160156
vt 0.3215332 0.6220703
vt 0.35058594 0.6308594
vt 0.34472656 0.6513672
vt 0.37670898 0.6323242
vt 0.37695312 0.65234375
vt 0.40844727 0.6489258
vt 0.40307617 0.62841797
vt 0.45263672 0.63916016
vt 0.44506836 0.62060547
vt 0.24304199 0.45776367
vt 0.22375488 0.4489746
vt 0.20080566 0.55322266
vt 0.19873047 0.5180664
vt 0.18676758 0.5522461
vt 0.17834473 0.5888672
vt 0.21057129 0.5830078
vt 0.20153809 0.61621094
vt 0.23144531 0.61376953
vt 0.13989258 0.5307617
vt 0.12841797 0.5234375
vt 0.12792969 0.5576172
vt 0.09710693 0.55859375
vt 0.15759277 0.49853516
vt 0.12261963 0.5864258
vt 0.08013916 0.5776367
vt 0.15844727 0.67285156
vt 0.21960449 0.66552734
vt 0.19555664 0.66845703
vt 0.1619873 0.43896484
vt 0.18920898 0.44213867
vt 0.35351562 0.8432617
vt 0.3564453 0.875
vt 0.36499023 0.87060547
vt 0.38354492 0.89746094
vt 0.375 0.9042969
vt 0.39135742 0.92529297
vt 0.39990234 0.91503906
vt 0.4194336 0.9291992
vt 0.41064453 0.94091797
vt 0.5541992 0.8857422
vt 0.5307617 0.88378906
vt 0.5288086 0.90625
vt 0.5048828 0.90478516
vt 0.4790039 0.8769531
vt 0.47387695 0.89990234
vt 0.40576172 0.8691406
vt 0.4128418 0.8574219
vt 0.39624023 0.8408203
vt 0.4560547 0.8720703
vt 0.44604492 0.89160156
vt 0.42651367 0.88427734
vt 0.37451172 0.82421875
vt 0.38671875 0.84765625
vt 0.3466797 0.8457031
vt 0.5078125 0.88183594
vt 0.43432617 0.86621094
vt 0.35058594 0.8276367
vt 0.56591797 0.5390625
vt 0.6069336 0.55615234
vt 0.5878906 0.5209961
vt 0.6176758 0.53027344
vt 0.7519531 0.38110352
vt 0.7373047 0.40185547
vt 0.7480469 0.41357422
vt 0.7158203 0.4020996
vt 0.7080078 0.38012695
vt 0.6850586 0.41577148
vt 0.6689453 0.39770508
vt 0.65185547 0.44067383
vt 0.62841797 0.42333984
vt 0.6113281 0.48266602
vt 0.58740234 0.46411133
vt 0.5727539 0.51220703
vt 0.54589844 0.5107422
vt 0.62402344 0.46826172
vt 0.79541016 0.48388672
vt 0.8041992 0.45825195
vt 0.7739258 0.47753906
vt 0.7866211 0.4489746
vt 0.6875 0.5703125
vt 0.7163086 0.55322266
vt 0.6948242 0.5390625
vt 0.83740234 0.4555664
vt 0.8251953 0.47827148
vt 0.70703125 0.5722656
vt 0.6875 0.62646484
vt 0.95947266 0.5966797
vt 0.95410156 0.55078125
vt 0.93896484 0.5957031
vt 0.93310547 0.5541992
vt 0.87353516 0.45898438
vt 0.8598633 0.48339844
vt 0.9057617 0.47631836
vt 0.8935547 0.4987793
vt 0.91845703 0.5229492
vt 0.9370117 0.50683594
vt 0.95947266 0.64990234
vt 0.93652344 0.6411133
vt 0.9169922 0.7338867
vt 0.94433594 0.6972656
vt 0.8989258 0.7080078
vt 0.9248047 0.6738281
vt 0.7519531 0.76416016
vt 0.79248047 0.77246094
vt 0.7651367 0.734375
vt 0.796875 0.7446289
vt 0.71533203 0.7270508
vt 0.74072266 0.7089844
vt 0.6953125 0.6801758
vt 0.7207031 0.6694336
vt 0.7089844 0.6225586
vt 0.88623047 0.7548828
vt 0.8691406 0.7324219
vt 0.8310547 0.7446289
vt 0.8354492 0.76904297
vt 0.78515625 0.42407227
vt 0.7578125 0.44091797
vt 0.76220703 0.46606445
vt 0.6376953 0.53466797
vt 0.64404297 0.55078125
vt 0.68115234 0.5419922
vt 0.63378906 0.56591797
vt 0.5595703 0.86328125
vt 0.5800781 0.8676758
vt 0.56396484 0.85302734
vt 0.58251953 0.85791016
vt 0.6015625 0.86621094
vt 0.5996094 0.85546875
vt 0.6142578 0.85009766
vt 0.61816406 0.8623047
vt 0.6582031 0.7524414
vt 0.6591797 0.76953125
vt 0.6767578 0.7451172
vt 0.67822266 0.78515625
vt 0.6586914 0.7866211
vt 0.5258789 0.6826172
vt 0.5102539 0.703125
vt 0.5332031 0.69384766
vt 0.51953125 0.70947266
vt 0.6176758 0.68310547
vt 0.62109375 0.6723633
vt 0.5986328 0.6777344
vt 0.5986328 0.66552734
vt 0.5 0.72558594
vt 0.49389648 0.7475586
vt 0.5097656 0.73046875
vt 0.5048828 0.7504883
vt 0.5161133 0.8041992
vt 0.5053711 0.8105469
vt 0.5288086 0.8251953
vt 0.5209961 0.83447266
vt 0.49414062 0.7685547
vt 0.5058594 0.76953125
vt 0.54589844 0.8413086
vt 0.5390625 0.8510742
vt 0.57373047 0.67578125
vt 0.57373047 0.66503906
vt 0.64453125 0.6845703
vt 0.63378906 0.69384766
vt 0.6542969 0.73046875
vt 0.67041016 0.7270508
vt 0.65234375 0.8046875
vt 0.67333984 0.8071289
vt 0.63134766 0.8383789
vt 0.64501953 0.8486328
vt 0.6435547 0.82177734
vt 0.6611328 0.8310547
vt 0.66015625 0.7060547
vt 0.6459961 0.7109375
vt 0.5488281 0.67041016
vt 0.5517578 0.6816406
vt 0.4975586 0.7895508
vt 0.5097656 0.7890625
vt 0.67871094 0.7651367
vt 0.54833984 0.14465332
vt 0.5283203 0.13342285
vt 0.5410156 0.15539551
vt 0.5209961 0.14147949
vt 0.5053711 0.12347412
vt 0.47485352 0.12158203
vt 0.50097656 0.1352539
vt 0.47509766 0.1352539
vt 0.5629883 0.28125
vt 0.5517578 0.27612305
vt 0.54296875 0.31103516
vt 0.39648438 0.171875
vt 0.38452148 0.19848633
vt 0.40185547 0.20581055
vt 0.43701172 0.3334961
vt 0.43945312 0.3215332
vt 0.41015625 0.31713867
vt 0.42016602 0.30639648
vt 0.46411133 0.3408203
vt 0.4658203 0.32861328
vt 0.49658203 0.33862305
vt 0.49316406 0.32543945
vt 0.52197266 0.328125
vt 0.5151367 0.31567383
vt 0.39013672 0.2166748
vt 0.37402344 0.21325684
vt 0.3762207 0.23071289
vt 0.39697266 0.2590332
vt 0.39086914 0.24926758
vt 0.3828125 0.2692871
vt 0.37646484 0.24731445
vt 0.3918457 0.29003906
vt 0.4038086 0.28295898
vt 0.4519043 0.1427002
vt 0.44506836 0.13134766
vt 0.57910156 0.19750977
vt 0.56884766 0.17077637
vt 0.56591797 0.19763184
vt 0.5551758 0.17138672
vt 0.5805664 0.22814941
vt 0.5673828 0.2265625
vt 0.56152344 0.2541504
vt 0.5727539 0.25756836
vt 0.4182129 0.1529541
vt 0.42993164 0.15905762
vt 0.41186523 0.18237305
vt 0.5336914 0.3005371
vt 0.3955078 0.24328613
vt 0.39770508 0.22753906
vt 0.22387695 0.31640625
vt 0.20703125 0.3161621
vt 0.20739746 0.28320312
vt 0.22387695 0.28295898
vt 0.22387695 0.2668457
vt 0.20751953 0.26733398
vt 0.17260742 0.2692871
vt 0.15209961 0.24450684
vt 0.17260742 0.24487305
vt 0.20739746 0.2446289
vt 0.24560547 0.26538086
vt 0.24572754 0.28271484
vt 0.22387695 0.29882812
vt 0.20751953 0.29882812
vt 0.24536133 0.29882812
vt 0.18676758 0.29882812
vt 0.18688965 0.2836914
vt 0.18701172 0.2685547
vt 0.18713379 0.24475098
vt 0.42919922 0.58154297
vt 0.4519043 0.54589844
vt 0.47265625 0.5234375
vt 0.3618164 0.53271484
vt 0.3930664 0.46069336
vt 0.38085938 0.4724121
vt 0.4025879 0.48339844
vt 0.3947754 0.49121094
vt 0.3774414 0.5083008
vt 0.43920898 0.5629883
vt 0.36523438 0.52441406
vt 0.44067383 0.45947266
vt 0.4182129 0.4716797
vt 0.4934082 0.5053711
vt 0.3918457 0.5498047
vt 0.38549805 0.5644531
vt 0.40429688 0.5332031
vt 0.41870117 0.51708984
vt 0.46728516 0.48217773
vt 0.44506836 0.4970703
vt 0.41064453 0.56591797
vt 0.40429688 0.578125
vt 0.421875 0.54785156
vt 0.43530273 0.53125
vt 0.45898438 0.5102539
vt 0.48046875 0.49365234
vt 0.33251953 0.77685547
vt 0.34033203 0.67041016
vt 0.37817383 0.67041016
vt 0.41308594 0.66552734
vt 0.1307373 0.5883789
vt 0.04486084 0.5625
vt 0.49926758 0.92626953
vt 0.46826172 0.9189453
vt 0.39624023 0.88134766
vt 0.37719727 0.85791016
vt 0.36206055 0.8359375
vt 0.35351562 0.8222656
vt 0.41577148 0.89697266
vt 0.43481445 0.90771484
vt 0.3623047 0.8198242
vt 0.77490234 0.5620117
vt 0.8129883 0.56933594
vt 0.8027344 0.5073242
vt 0.8442383 0.51220703
vt 0.65185547 0.5419922
vt 0.64697266 0.50097656
vt 0.60546875 0.51171875
vt 0.6713867 0.4567871
vt 0.75439453 0.49731445
vt 0.69921875 0.5239258
vt 0.72753906 0.5263672
vt 0.7421875 0.5341797
vt 0.7685547 0.5083008
vt 0.7363281 0.4399414
vt 0.71728516 0.46679688
vt 0.68603516 0.49487305
vt 0.69970703 0.50634766
vt 0.6635742 0.49243164
vt 0.8833008 0.61035156
vt 0.92285156 0.6328125
vt 0.921875 0.60009766
vt 0.7675781 0.6850586
vt 0.80322266 0.7006836
vt 0.8779297 0.52734375
vt 0.91308594 0.5620117
vt 0.84472656 0.5834961
vt 0.73828125 0.67333984
vt 0.7480469 0.5644531
vt 0.7519531 0.62109375
vt 0.8208008 0.64160156
vt 0.78466797 0.6279297
vt 0.85546875 0.6611328
vt 0.88427734 0.69091797
vt 0.91308594 0.65625
vt 0.8364258 0.7163086
vt 0.72265625 0.6220703
vt 0.72558594 0.5678711
vt 0.61865234 0.7050781
vt 0.6323242 0.7080078
vt 0.55566406 0.7236328
vt 0.55371094 0.6972656
vt 0.5332031 0.7158203
vt 0.64501953 0.77441406
vt 0.6308594 0.7792969
vt 0.64453125 0.7910156
vt 0.6308594 0.7949219
vt 0.5332031 0.78027344
vt 0.53222656 0.79785156
vt 0.5541992 0.7866211
vt 0.5527344 0.80371094
vt 0.6201172 0.8432617
vt 0.5854492 0.8432617
vt 0.57373047 0.79052734
vt 0.5722656 0.80810547
vt 0.59277344 0.7944336
vt 0.5913086 0.8120117
vt 0.62939453 0.8129883
vt 0.56640625 0.8378906
vt 0.5473633 0.83203125
vt 0.55566406 0.7685547
vt 0.5336914 0.76220703
vt 0.5751953 0.7729492
vt 0.59472656 0.77685547
vt 0.640625 0.80859375
vt 0.6347656 0.8261719
vt 0.62597656 0.8305664
vt 0.5878906 0.82958984
vt 0.56933594 0.82421875
vt 0.5307617 0.81152344
vt 0.55029297 0.81933594
vt 0.6401367 0.7319336
vt 0.62597656 0.73339844
vt 0.64453125 0.7583008
vt 0.6303711 0.7636719
vt 0.5908203 0.73046875
vt 0.59375 0.75927734
vt 0.5732422 0.7270508
vt 0.5751953 0.7553711
vt 0.5341797 0.7426758
vt 0.55615234 0.7519531
vt 0.58447266 0.703125
vt 0.56933594 0.7001953
vt 0.49243164 0.31762695
vt 0.51220703 0.3083496
vt 0.44873047 0.22607422
vt 0.47583008 0.2388916
vt 0.46948242 0.22167969
vt 0.49902344 0.13720703
vt 0.4086914 0.2076416
vt 0.41674805 0.20983887
vt 0.42578125 0.19152832
vt 0.484375 0.23046875
vt 0.48217773 0.2446289
vt 0.43041992 0.27441406
vt 0.41552734 0.25927734
vt 0.4189453 0.26733398
vt 0.42773438 0.2286377
vt 0.4248047 0.21191406
vt 0.4477539 0.23950195
vt 0.43676758 0.21862793
vt 0.5419922 0.27368164
vt 0.52783203 0.2944336
vt 0.42895508 0.25683594
vt 0.41259766 0.24450684
vt 0.44384766 0.26342773
vt 0.44213867 0.2824707
vt 0.4404297 0.30126953
vt 0.43017578 0.29638672
vt 0.49072266 0.2993164
vt 0.5083008 0.29785156
vt 0.49780273 0.28173828
vt 0.4013672 0.2512207
vt 0.39892578 0.21862793
vt 0.40795898 0.22058105
vt 0.40527344 0.23596191
vt 0.4519043 0.28100586
vt 0.47338867 0.29516602
vt 0.484375 0.27197266
vt 0.49145508 0.2602539
vt 0.47021484 0.25048828
vt 0.4609375 0.26611328
vt 0.49072266 0.2454834
vt 0.5058594 0.27172852
vt 0.5126953 0.26220703
vt 0.50683594 0.25708008
vt 0.46899414 0.31030273
vt 0.43969727 0.31396484
vt 0.46704102 0.32055664
vt 0.4711914 0.3010254
vt 0.41870117 0.29052734
vt 0.4194336 0.29833984
vt 0.4111328 0.2866211
vt 0.40039062 0.25756836
vt 0.49194336 0.30541992
vt 0.5185547 0.28442383
vt 0.52978516 0.26953125
vt 0.5385742 0.24780273
vt 0.5419922 0.22351074
vt 0.5175781 0.23937988
vt 0.5175781 0.21826172
vt 0.41625977 0.18554688
vt 0.43725586 0.16247559
vt 0.55078125 0.25146484
vt 0.55566406 0.22497559
vt 0.55371094 0.19665527
vt 0.5444336 0.17224121
vt 0.53759766 0.16235352
vt 0.51708984 0.14477539
vt 0.49804688 0.17822266
vt 0.5048828 0.17675781
vt 0.4951172 0.16296387
vt 0.49072266 0.16760254
vt 0.51708984 0.19372559
vt 0.54052734 0.19592285
vt 0.4794922 0.16174316
vt 0.48291016 0.15612793
vt 0.46923828 0.1550293
vt 0.45483398 0.14685059
vt 0.5019531 0.23144531
vt 0.50927734 0.23510742
vt 0.5097656 0.21618652
vt 0.50390625 0.21447754
vt 0.50878906 0.19348145
vt 0.5024414 0.19384766
vt 0.43676758 0.18237305
vt 0.45166016 0.16784668
vt 0.44384766 0.1652832
vt 0.42138672 0.18884277
vt 0.4050293 0.20666504
vt 0.4663086 0.16088867
vt 0.46142578 0.15576172
vt 0.49975586 0.24963379
vt 0.4909668 0.23156738
vt 0.5126953 0.17480469
vt 0.5317383 0.17285156
vt 0.50146484 0.15771484
vt 0.51171875 0.14904785
vt 0.4868164 0.15026855
vt 0.49487305 0.14099121
vt 0.4711914 0.14807129
vt 0.42773438 0.21008301
vt 0.44970703 0.18945312
vt 0.47070312 0.20031738
vt 0.45629883 0.20800781
vt 0.4909668 0.22387695
vt 0.47460938 0.18054199
vt 0.42797852 0.19311523
vt 0.4729004 0.1418457
vt 0.4013672 0.2253418
vt 0.45751953 0.15039062
vt 0.09857178 0.8354492
vt 0.10986328 0.81347656
vt 0.12597656 0.7729492
vt 0.13439941 0.7524414
vt 0.05682373 0.77490234
vt 0.039398193 0.79541016
vt 0.08392334 0.796875
vt 0.06817627 0.81884766
vt 0.10223389 0.7626953
vt 0.11193848 0.7441406
vt 0.055541992 0.7368164
vt 0.07623291 0.75097656
vt 0.071899414 0.7207031
vt 0.09112549 0.7338867
vt 0.034454346 0.6933594
vt 0.0050735474 0.6875
vt 0.020431519 0.7089844
vt 0.037994385 0.72314453
vt -0.0006170273 0.70996094
vt 0.03781128 0.7519531
vt 0.0209198 0.7661133
vt 0.02720642 0.7314453
vt 0.007259369 0.74121094
vt 0.7006836 0.96240234
vt 0.68115234 0.9633789
vt 0.68310547 0.9770508
vt 0.67285156 0.9589844
vt 0.64746094 0.96777344
vt 0.65771484 0.9746094
vt 0.45458984 0.9682617
vt 0.4873047 0.97558594
vt 0.45996094 0.9472656
vt 0.49121094 0.9555664
vt 0.52246094 0.9589844
vt 0.5185547 0.9794922
vt 0.55078125 0.9794922
vt 0.55078125 0.95751953
vt 0.57714844 0.9560547
vt 0.57910156 0.97753906
vt 0.6064453 0.95166016
vt 0.6303711 0.9682617
vt 0.62841797 0.9477539
vt 0.65771484 0.9477539
vt 0.6640625 0.9511719
vt 0.6767578 0.9526367
vt 0.69384766 0.9428711
vt 0.6777344 0.9189453
vt 0.6484375 0.90234375
vt 0.6635742 0.9370117
vt 0.63964844 0.9223633
vt 0.61083984 0.9140625
vt 0.6142578 0.89453125
vt 0.58251953 0.8886719
vt 0.5800781 0.91015625
vt 0.5522461 0.90771484
vt 0.6791992 0.9951172
vt 0.6982422 0.9868164
vt 0.6088867 0.97314453
vt 0.6665039 0.98828125
vt 0.6870117 0.9301758
vt 0.67089844 0.94433594
vt 0.6616211 0.9399414
vt 0.6357422 0.9321289
vt 0.609375 0.9296875
vt 0.5517578 0.9291992
vt 0.5258789 0.9291992
vt 0.5786133 0.9296875
vn -0 0 -1
vn -0 0 -1
vn -0 0 -1
vn -0 0 -1
vn -0 0 -1
vn -0 0 -1
vn -0 0 -1
vn -0 0 -1
vn -0 0 -1
vn -0 0 -1
vn -0 0 -1
vn -0 0 -1
vn -0 0 -1
vn -0 0 -1
vn -0 0 -1
vn -0 0 -1
vn -0 0 -1
vn -0 0 -1
vn -0 0 -1
vn -0 0 -1
vn -0 0 -1
vn -0 0 -1
vn -0 0 -1
vn -0 0 -1
vn -0 0 -1
vn -0 0 -1
vn -0 0 -1
vn -0 0 -1
vn -0 0 -1
vn -0 0 -1
vn -0 0 -1
vn -0 0 -1
vn -0 0 -1
vn -0 0 -1
vn -0 0 -1
vn -0 0 -1
vn -0 0 -1
vn -0 0 -1
vn -0 0 -1
vn -0 0 -1
vn -0 0 -1
vn -0 0 -1
vn -0 0 -1
vn -0 0 -1
vn -0 0 -1
vn -0 0 -1
vn -0 0 -1
vn -0 0 -1
vn -0 0 -1
vn -0 0 -1
vn -0 0 -1
vn -0 0 -1
vn -0 0 -1
vn -0 0 -1
vn -0 0 -1
vn -0 0 -1
vn -0 0 -1
vn -0 0 -1
vn -0 0 -1
vn -0 0 -1
vn -0 0 -1
vn -0 0 -1
vn -0 0 -1
vn -0 0 -1
vn -0 0 -1
vn -0 0 -1
vn -0 0 -1
vn -0 0 -1
vn -0 0 -1
vn -0 0 -1
vn -0 0 -1
vn -0 0 -1
vn -0 0 -1
vn -0 0 -1
vn -0 0 -1
vn -0 0 -1
vn -0 0 -1
vn -0 0 -1
vn -0 0 -1
vn -0 0 -1
vn -0 0 -1
vn -0 0 -1
vn -0 0 -1
vn -0 0 -1
vn -0 0 -1
vn -0 0 -1
vn -0 0 -1
vn -0 0 -1
vn -0 0 -1
vn -0 0 -1
vn -0 0 -1
vn -0 0 -1
vn -0 0 -1
vn -0 0 -1
vn -0 0 -1
vn -0 0 -1
vn -0 0 -1
vn -0 0 -1
vn -0 0 -1
vn -0 0 -1
vn -0 0 -1
vn -0 0 -1
vn -0 0 -1
vn -0 0 -1
vn -0 0 -1
vn -0 0 -1
vn -0 0 -1
vn -0 0 -1
vn -0 0 -1
vn -0 0 -1
vn -0 0 -1
vn -0 0 -1
vn -0 0 -1
vn -0 0 -1
vn -0 0 -1
vn -0 0 -1
vn -0 0 -1
vn -0 0 -1
vn -0 0 -1
vn -0 0 -1
vn -0 0 -1
vn -0 0 -1
vn -0 0 -1
vn -0 0 -1
vn -0 0 -1
vn -0 0 -1
vn -0 0 -1
vn -0 0 -1
vn -0 0 -1
vn -0 0 -1
vn -0 0 -1
vn -0 0 -1
vn -0 0 -1
vn -0 0 -1
vn -0 0 -1
vn -0 0 -1
vn -0 0 -1
vn -0 0 -1
vn -0 0 -1
vn -0 0 -1
vn -0 0 -1
vn -0 0 -1
vn -0 0 -1
vn -0 0 -1
vn -0 0 -1
vn -0 0 -1
vn -0 0 -1
vn -0 0 -1
vn -0 0 -1
vn -0 0 -1
vn -0 0 -1
vn -0 0 -1
vn -0 0 -1
vn -0 0 -1
vn -0 0 -1
vn -0 0 -1
vn -0 0 -1
vn -0 0 -1
vn -0 0 -1
vn -0 0 -1
vn -0 0 -1
vn -0 0 -1
vn -0 0 -1
vn -0 0 -1
vn -0 0 -1
vn -0 0 -1
vn -0 0 -1
vn -0 0 -1
vn -0 0 -1
vn -0 0 -1
vn -0 0 -1
vn -0 0 -1
vn -0 0 -1
vn -0 0 -1
vn -0 0 -1
vn -0 0 -1
vn -0 0 -1
vn -0 0 -1
vn -0 0 -1
vn -0 0 -1
vn -0 0 -1
vn -0 0 -1
vn -0 0 -1
vn -0 0 -1
vn -0 0 -1
vn -0 0 -1
vn -0 0 -1
vn -0 0 -1
vn -0 0 -1
vn -0 0 -1
vn -0 0 -1
vn -0 0 -1
vn -0 0 -1
vn -0 0 -1
vn -0 0 -1
vn -0 0 -1
vn -0 0 -1
vn -0 0 -1
vn -0 0 -1
vn -0 0 -1
vn -0 0 -1
vn -0 0 -1
vn -0 0 -1
vn -0 0 -1
vn -0 0 -1
vn -0 0 -1
vn -0 0 -1
vn -0 0 -1
vn -0 0 -1
vn -0 0 -1
vn -0 0 -1
vn -0 0 -1
vn -0 0 -1
vn -0 0 -1
vn -0 0 -1
vn -0 0 -1
vn -0 0 -1
vn -0 0 -1
vn -0 0 -1
vn -0 0 -1
vn -0 0 -1
vn -0 0 -1
vn -0 0 -1
vn -0 0 -1
vn -0 0 -1
vn -0 0 -1
vn -0 0 -1
vn -0 0 -1
vn -0 0 -1
vn -0 0 -1
vn -0 0 -1
vn -0 0 -1
vn -0 0 -1
vn -0 0 -1
vn -0 0 -1
vn -0 0 -1
vn -0 0 -1
vn -0 0 -1
vn -0 0 -1
vn -0 0 -1
vn -0 0 -1
vn -0 0 -1
vn -0 0 -1
vn -0 0 -1
vn -0 0 -1
vn -0 0 -1
vn -0 0 -1
vn -0 0 -1
vn -0 0 -1
vn -0 0 -1
vn -0 0 -1
vn -0 0 -1
vn -0 0 -1
vn -0 0 -1
vn -0 0 -1
vn -0 0 -1
vn -0 0 -1
vn -0 0 -1
vn -0 0 -1
vn -0 0 -1
vn -0 0 -1
vn -0 0 -1
vn -0 0 -1
vn -0 0 -1
vn -0 0 -1
vn -0 0 -1
vn -0 0 -1
vn -0 0 -1
vn -0 0 -1
vn -0 0 -1
vn -0 0 -1
vn -0 0 -1
vn -0 0 -1
vn -0 0 -1
vn -0 0 -1
vn -0 0 -1
vn -0 0 -1
vn -0 0 -1
vn -0 0 -1
vn -0 0 -1
vn -0 0 -1
vn -0 0 -1
vn -0 0 -1
vn -0 0 -1
vn -0 0 -1
vn -0 0 -1
vn -0 0 -1
vn -0 0 -1
vn -0 0 -1
vn -0 0 -1
vn -0 0 -1
vn -0 0 -1
vn -0 0 -1
vn -0 0 -1
vn -0 0 -1
vn -0 0 -1
vn -0 0 -1
vn -0 0 -1
vn -0 0 -1
vn -0 0 -1
vn -0 0 -1
vn -0 0 -1
vn -0 0 -1
vn -0 0 -1
vn -0 0 -1
vn -0 0 -1
vn -0 0 -1
vn -0 0 -1
vn -0 0 -1
vn -0 0 -1
vn -0 0 -1
vn -0 0 -1
vn -0 0 -1
vn -0 0 -1
vn -0 0 -1
vn -0 0 -1
vn -0 0 -1
vn -0 0 -1
vn -0 0 -1
vn -0 0 -1
vn -0 0 -1
vn -0 0 -1
vn -0 0 -1
vn -0 0 -1
vn -0 0 -1
vn -0 0 -1
vn -0 0 -1
vn -0 0 -1
vn -0 0 -1
vn -0 0 -1
vn -0 0 -1
vn -0 0 -1
vn -0 0 -1
vn -0 0 -1
vn -0 0 -1
vn -0 0 -1
vn -0 0 -1
vn -0 0 -1
vn -0 0 -1
vn -0 0 -1
vn -0 0 -1
vn -0 0 -1
vn -0 0 -1
vn -0 0 -1
vn -0 0 -1
vn -0 0 -1
vn -0 0 -1
vn -0 0 -1
vn -0 0 -1
vn -0 0 -1
vn -0 0 -1
vn -0 0 -1
vn -0 0 -1
vn -0 0 -1
vn -0 0 -1
vn -0 0 -1
vn -0 0 -1
vn -0 0 -1
vn -0 0 -1
vn -0 0 -1
vn -0 0 -1
vn -0 0 -1
vn -0 0 -1
vn -0 0 -1
vn -0 0 -1
vn -0 0 -1
vn -0 0 -1
vn -0 0 -1
vn -0 0 -1
vn -0 0 -1
vn -0 0 -1
vn -0 0 -1
vn -0 0 -1
vn -0 0 -1
vn -0 0 -1
vn -0 0 -1
vn -0 0 -1
vn -0 0 -1
vn -0 0 -1
vn -0 0 -1
vn -0 0 -1
vn -0 0 -1
vn -0 0 -1
vn -0 0 -1
vn -0 0 -1
vn -0 0 -1
vn -0 0 -1
vn -0 0 -1
vn -0 0 -1
vn -0 0 -1
vn -0 0 -1
vn -0 0 -1
vn -0 0 -1
vn -0 0 -1
vn -0 0 -1
vn -0 0 -1
vn -0 0 -1
vn -0 0 -1
vn -0 0 -1
vn -0 0 -1
vn -0 0 -1
vn -0 0 -1
vn -0 0 -1
vn -0 0 -1
vn -0 0 -1
vn -0 0 -1
vn -0 0 -1
vn -0 0 -1
vn -0 0 -1
vn -0 0 -1
vn -0 0 -1
vn -0 0 -1
vn -0 0 -1
vn -0 0 -1
vn -0 0 -1
vn -0 0 -1
vn -0 0 -1
vn -0 0 -1
vn -0 0 -1
vn -0 0 -1
vn -0 0 -1
vn -0 0 -1
vn -0 0 -1
vn -0 0 -1
vn -0 0 -1
vn -0 0 -1
vn -0 0 -1
vn -0 0 -1
vn -0 0 -1
vn -0 0 -1
vn -0 0 -1
vn -0 0 -1
vn -0 0 -1
vn -0 0 -1
vn -0 0 -1
vn -0 0 -1
vn -0 0 -1
vn -0 0 -1
vn -0 0 -1
vn -0 0 -1
vn -0 0 -1
vn -0 0 -1
vn -0 0 -1
vn -0 0 -1
vn -0 0 -1
vn -0 0 -1
vn -0 0 -1
vn -0 0 -1
vn -0 0 -1
vn -0 0 -1
vn -0 0 -1
vn -0 0 -1
vn -0 0 -1
vn -0 0 -1
vn -0 0 -1
vn -0 0 -1
vn -0 0 -1
vn -0 0 -1
vn -0 0 -1
vn -0 0 -1
vn -0 0 -1
vn -0 0 -1
vn -0 0 -1
vn -0 0 -1
vn -0 0 -1
vn -0 0 -1
vn -0 0 -1
vn -0 0 -1
vn -0 0 -1
vn -0 0 -1
vn -0 0 -1
vn -0 0 -1
vn -0 0 -1
vn -0 0 -1
vn -0 0 -1
vn -0 0 -1
vn -0 0 -1
vn -0 0 -1
vn -0 0 -1
vn -0 0 -1
vn -0 0 -1
vn -0 0 -1
vn -0 0 -1
vn -0 0 -1
vn -0 0 -1
vn -0 0 -1
vn -0 0 -1
vn -0 0 -1
vn -0 0 -1
vn -0 0 -1
vn -0 0 -1
vn -0 0 -1
vn -0 0 -1
vn -0 0 -1
vn -0 0 -1
vn -0 0 -1
vn -0 0 -1
vn -0 0 -1
vn -0 0 -1
vn -0 0 -1
vn -0 0 -1
vn -0 0 -1
vn -0 0 -1
vn -0 0 -1
vn -0 0 -1
vn -0 0 -1
vn -0 0 -1
vn -0 0 -1
vn -0 0 -1
vn -0 0 -1
vn -0 0 -1
vn -0 0 -1
vn -0 0 -1
vn -0 0 -1
vn -0 0 -1
vn -0 0 -1
vn -0 0 -1
vn -0 0 -1
vn -0 0 -1
vn -0 0 -1
vn -0 0 -1
vn -0 0 -1
vn -0 0 -1
vn -0 0 -1
vn -0 0 -1
vn -0 0 -1
vn -0 0 -1
vn -0 0 -1
vn -0 0 -1
vn -0 0 -1
vn -0 0 -1
vn -0 0 -1
vn -0 0 -1
vn -0 0 -1
vn -0 0 -1
vn -0 0 -1
vn -0 0 -1
vn -0 0 -1
vn -0 0 -1
vn -0 0 -1
vn -0 0 -1
vn -0 0 -1
vn -0 0 -1
vn -0 0 -1
vn -0 0 -1
vn -0 0 -1
vn -0 0 -1
vn -0 0 -1
vn -0 0 -1
vn -0 0 -1
vn -0 0 -1
vn -0 0 -1
vn -0 0 -1
vn -0 0 -1
vn -0 0 -1
vn -0 0 -1
vn -0 0 -1
vn -0 0 -1
vn -0 0 -1
vn -0 0 -1
vn -0 0 -1
vn -0 0 -1
vn -0 0 -1
vn -0 0 -1
vn -0 0 -1
vn -0 0 -1
vn -0 0 -1
vn -0 0 -1
vn -0 0 -1
vn -0 0 -1
vn -0 0 -1
vn -0 0 -1
vn -0 0 -1
vn -0 0 -1
vn -0 0 -1
vn -0 0 -1
vn -0 0 -1
vn -0 0 -1
vn -0 0 -1
vn -0 0 -1
vn -0 0 -1
vn -0 0 -1
vn -0 0 -1
vn -0 0 -1
vn -0 0 -1
vn -0 0 -1
vn -0 0 -1
vn -0 0 -1
vn -0 0 -1
vn -0 0 -1
vn -0 0 -1
vn -0 0 -1
vn -0 0 -1
vn -0 0 -1
vn -0 0 -1
vn -0 0 -1
vn -0 0 -1
vn -0 0 -1
vn -0 0 -1
vn -0 0 -1
vn -0 0 -1
vn -0 0 -1
vn -0 0 -1
vn -0 0 -1
vn -0 0 -1
vn -0 0 -1
vn -0 0 -1
vn -0 0 -1
vn -0 0 -1
vn -0 0 -1
vn -0 0 -1
vn -0 0 -1
vn -0 0 -1
vn -0 0 -1
vn -0 0 -1
vn -0 0 -1
vn -0 0 -1
vn -0 0 -1
vn -0 0 -1
vn -0 0 -1
vn -0 0 -1
vn -0 0 -1
vn -0 0 -1
vn -0 0 -1
vn -0 0 -1
vn -0 0 -1
vn -0 0 -1
vn -0 0 -1
vn -0 0 -1
vn -0 0 -1
vn -0 0 -1
vn -0 0 -1
vn -0 0 -1
vn -0 0 -1
vn -0 0 -1
vn -0 0 -1
vn -0 0 -1
vn -0 0 -1
vn -0 0 -1
vn -0 0 -1
vn -0 0 -1
vn -0 0 -1
vn -0 0 -1
vn -0 0 -1
vn -0 0 -1
vn -0 0 -1
vn -0 0 -1
vn -0 0 -1
vn -0 0 -1
vn -0 0 -1
vn -0 0 -1
vn -0 0 -1
vn -0 0 -1
vn -0 0 -1
vn -0 0 -1
vn -0 0 -1
vn -0 0 -1
vn -0 0 -1
vn -0 0 -1
vn -0 0 -1
vn -0 0 -1
vn -0 0 -1
vn -0 0 -1
vn -0 0 -1
vn -0 0 -1
vn -0 0 -1
vn -0 0 -1
vn -0 0 -1
vn -0 0 -1
vn -0 0 -1
vn -0 0 -1
vn -0 0 -1
vn -0 0 -1
vn -0 0 -1
vn -0 0 -1
vn -0 0 -1
vn -0 0 -1
vn -0 0 -1
vn -0 0 -1
vn -0 0 -1
vn -0 0 -1
vn -0 0 -1
vn -0 0 -1
vn -0 0 -1
vn -0 0 -1
vn -0 0 -1
vn -0 0 -1
vn -0 0 -1
vn -0 0 -1
vn -0 0 -1
vn -0 0 -1
vn -0 0 -1
vn -0 0 -1
vn -0 0 -1
vn -0 0 -1
vn -0 0 -1
vn -0 0 -1
vn -0 0 -1
vn -0 0 -1
vn -0 0 -1
vn -0 0 -1
vn -0 0 -1
vn -0 0 -1
vn -0 0 -1
vn -0 0 -1
vn -0 0 -1
vn -0 0 -1
vn -0 0 -1
vn -0 0 -1
vn -0 0 -1
vn -0 0 -1
vn -0 0 -1
vn -0 0 -1
vn -0 0 -1
vn -0 0 -1
vn -0 0 -1
vn -0 0 -1
vn -0 0 -1
vn -0 0 -1
vn -0 0 -1
vn -0 0 -1
vn -0 0 -1
vn -0 0 -1
vn -0 0 -1
vn -0 0 -1
vn -0 0 -1
vn -0 0 -1
vn -0 0 -1
vn -0 0 -1
vn -0 0 -1
vn -0 0 -1
vn -0 0 -1
vn -0 0 -1
vn -0 0 -1
vn -0 0 -1
vn -0 0 -1
vn -0 0 -1
vn -0 0 -1
g cPK_10_000230_00_NASSYex_RR_L_SB_0
f 3/3/3 2/2/2 1/1/1
f 4/4/4 3/3/3 1/1/1
f 7/7/7 6/6/6 5/5/5
f 1/1/1 9/9/9 8/8/8
f 12/12/12 11/11/11 10/10/10
f 15/15/15 14/14/14 13/13/13
f 18/18/18 17/17/17 16/16/16
f 19/19/19 11/11/11 12/12/12
f 20/20/20 19/19/19 12/12/12
f 18/18/18 16/16/16 15/15/15
f 5/5/5 22/22/22 21/21/21
f 21/21/21 22/22/22 2/2/2
f 23/23/23 21/21/21 2/2/2
f 24/24/24 23/23/23 2/2/2
f 24/24/24 2/2/2 3/3/3
f 25/25/25 4/4/4 1/1/1
f 8/8/8 25/25/25 1/1/1
f 9/9/9 26/26/26 8/8/8
f 28/28/28 27/27/27 9/9/9
f 27/27/27 29/29/29 9/9/9
f 30/30/30 28/28/28 9/9/9
f 31/31/31 30/30/30 9/9/9
f 33/33/33 32/32/32 31/31/31
f 32/32/32 30/30/30 31/31/31
f 34/34/34 33/33/33 31/31/31
f 13/13/13 34/34/34 31/31/31
f 36/36/36 35/35/35 13/13/13
f 35/35/35 34/34/34 13/13/13
f 16/16/16 37/37/37 15/15/15
f 38/38/38 17/17/17 18/18/18
f 20/20/20 38/38/38 18/18/18
f 39/39/39 38/38/38 20/20/20
f 12/12/12 39/39/39 20/20/20
f 41/41/41 40/40/40 11/11/11
f 11/11/11 40/40/40 10/10/10
f 42/42/42 41/41/41 11/11/11
f 43/43/43 42/42/42 11/11/11
f 44/44/44 43/43/43 11/11/11
f 7/7/7 45/45/45 44/44/44
f 45/45/45 43/43/43 44/44/44
f 29/29/29 26/26/26 9/9/9
f 15/15/15 46/46/46 14/14/14
f 14/14/14 36/36/36 13/13/13
f 37/37/37 46/46/46 15/15/15
f 7/7/7 44/44/44 6/6/6
f 6/6/6 22/22/22 5/5/5
f 49/49/49 48/48/48 47/47/47
f 49/49/49 50/50/50 48/48/48
f 53/53/53 52/52/52 51/51/51
f 56/56/56 55/55/55 54/54/54
f 58/58/58 57/57/57 56/56/56
f 58/58/58 59/59/59 57/57/57
f 55/55/55 61/61/61 60/60/60
f 55/55/55 62/62/62 61/61/61
f 63/63/63 61/61/61 62/62/62
f 63/63/63 64/64/64 61/61/61
f 67/67/67 66/66/66 65/65/65
f 67/67/67 68/68/68 66/66/66
f 71/71/71 70/70/70 69/69/69
f 71/71/71 72/72/72 70/70/70
f 75/75/75 74/74/74 73/73/73
f 75/75/75 76/76/76 74/74/74
f 76/76/76 78/78/78 77/77/77
f 78/78/78 79/79/79 77/77/77
f 76/76/76 77/77/77 74/74/74
f 53/53/53 59/59/59 58/58/58
f 53/53/53 51/51/51 59/59/59
f 81/81/81 80/80/80 52/52/52
f 81/81/81 47/47/47 80/80/80
f 81/81/81 49/49/49 47/47/47
f 50/50/50 82/82/82 48/48/48
f 72/72/72 73/73/73 70/70/70
f 72/72/72 75/75/75 73/73/73
f 71/71/71 68/68/68 67/67/67
f 71/71/71 69/69/69 68/68/68
f 65/65/65 84/84/84 83/83/83
f 65/65/65 66/66/66 84/84/84
f 83/83/83 64/64/64 63/63/63
f 83/83/83 84/84/84 64/64/64
f 55/55/55 60/60/60 54/54/54
f 56/56/56 57/57/57 55/55/55
f 83/83/83 85/85/85 65/65/65
f 80/80/80 86/86/86 52/52/52
f 52/52/52 87/87/87 51/51/51
f 53/53/53 88/88/88 52/52/52
f 88/88/88 81/81/81 52/52/52
f 91/91/91 90/90/90 89/89/89
f 91/91/91 89/89/89 82/82/82
f 50/50/50 91/91/91 82/82/82
f 94/94/94 93/93/93 92/92/92
f 94/94/94 95/95/95 93/93/93
f 96/96/96 93/93/93 95/95/95
f 96/96/96 97/97/97 93/93/93
f 100/100/100 99/99/99 98/98/98
f 100/100/100 101/101/101 99/99/99
f 104/104/104 103/103/103 102/102/102
f 104/104/104 105/105/105 103/103/103
f 108/108/108 107/107/107 106/106/106
f 108/108/108 109/109/109 107/107/107
f 111/111/111 92/92/92 110/110/110
f 111/111/111 94/94/94 92/92/92
f 114/114/114 113/113/113 112/112/112
f 114/114/114 115/115/115 113/113/113
f 115/115/115 116/116/116 113/113/113
f 115/115/115 117/117/117 116/116/116
f 117/117/117 96/96/96 116/116/116
f 117/117/117 97/97/97 96/96/96
f 114/114/114 119/119/119 118/118/118
f 114/114/114 112/112/112 119/119/119
f 98/98/98 121/121/121 120/120/120
f 98/98/98 99/99/99 121/121/121
f 123/123/123 121/121/121 122/122/122
f 123/123/123 120/120/120 121/121/121
f 125/125/125 122/122/122 124/124/124
f 125/125/125 123/123/123 122/122/122
f 124/124/124 106/106/106 125/125/125
f 124/124/124 108/108/108 106/106/106
f 109/109/109 126/126/126 107/107/107
f 109/109/109 127/127/127 126/126/126
f 127/127/127 128/128/128 126/126/126
f 127/127/127 129/129/129 128/128/128
f 129/129/129 130/130/130 128/128/128
f 129/129/129 131/131/131 130/130/130
f 131/131/131 104/104/104 130/130/130
f 131/131/131 105/105/105 104/104/104
f 132/132/132 102/102/102 103/103/103
f 132/132/132 133/133/133 102/102/102
f 132/132/132 110/110/110 133/133/133
f 132/132/132 111/111/111 110/110/110
f 118/118/118 101/101/101 100/100/100
f 118/118/118 119/119/119 101/101/101
f 136/136/136 135/135/135 134/134/134
f 139/139/139 138/138/138 137/137/137
f 139/139/139 140/140/140 138/138/138
f 134/134/134 142/142/142 141/141/141
f 134/134/134 135/135/135 142/142/142
f 145/145/145 144/144/144 143/143/143
f 145/145/145 146/146/146 144/144/144
f 148/148/148 144/144/144 147/147/147
f 148/148/148 143/143/143 144/144/144
f 150/150/150 137/137/137 149/149/149
f 150/150/150 139/139/139 137/137/137
f 153/153/153 152/152/152 151/151/151
f 153/153/153 154/154/154 152/152/152
f 156/156/156 147/147/147 155/155/155
f 156/156/156 148/148/148 147/147/147
f 154/154/154 149/149/149 152/152/152
f 154/154/154 150/150/150 149/149/149
f 141/141/141 146/146/146 145/145/145
f 141/141/141 142/142/142 146/146/146
f 140/140/140 157/157/157 138/138/138
f 140/140/140 158/158/158 157/157/157
f 158/158/158 159/159/159 157/157/157
f 162/162/162 161/161/161 160/160/160
f 162/162/162 163/163/163 161/161/161
f 166/166/166 165/165/165 164/164/164
f 167/167/167 166/166/166 164/164/164
f 166/166/166 168/168/168 165/165/165
f 171/171/171 170/170/170 169/169/169
f 174/174/174 173/173/173 172/172/172
f 174/174/174 175/175/175 173/173/173
f 176/176/176 175/175/175 174/174/174
f 176/176/176 177/177/177 175/175/175
f 180/180/180 179/179/179 178/178/178
f 180/180/180 181/181/181 179/179/179
f 182/182/182 172/172/172 173/173/173
f 182/182/182 178/178/178 172/172/172
f 182/182/182 180/180/180 178/178/178
f 185/185/185 184/184/184 183/183/183
f 185/185/185 169/169/169 184/184/184
f 185/185/185 171/171/171 169/169/169
f 181/181/181 184/184/184 179/179/179
f 181/181/181 183/183/183 184/184/184
f 170/170/170 187/187/187 186/186/186
f 170/170/170 186/186/186 169/169/169
f 190/190/190 189/189/189 188/188/188
f 193/193/193 192/192/192 191/191/191
f 196/196/196 195/195/195 194/194/194
f 196/196/196 197/197/197 195/195/195
f 197/197/197 199/199/199 198/198/198
f 197/197/197 196/196/196 199/199/199
f 201/201/201 199/199/199 200/200/200
f 201/201/201 198/198/198 199/199/199
f 203/203/203 200/200/200 202/202/202
f 203/203/203 201/201/201 200/200/200
f 203/203/203 205/205/205 204/204/204
f 203/203/203 202/202/202 205/205/205
f 204/204/204 207/207/207 206/206/206
f 204/204/204 205/205/205 207/207/207
f 166/166/166 207/207/207 168/168/168
f 166/166/166 206/206/206 207/207/207
f 194/194/194 160/160/160 161/161/161
f 194/194/194 195/195/195 160/160/160
f 162/162/162 208/208/208 163/163/163
f 162/162/162 209/209/209 208/208/208
f 212/212/212 211/211/211 210/210/210
f 212/212/212 214/214/214 213/213/213
f 212/212/212 210/210/210 214/214/214
f 215/215/215 189/189/189 213/213/213
f 189/189/189 215/215/215 188/188/188
f 216/216/216 193/193/193 191/191/191
f 215/215/215 213/213/213 214/214/214
f 215/215/215 214/214/214 216/216/216
f 215/215/215 216/216/216 191/191/191
f 219/219/219 218/218/218 217/217/217
f 219/219/219 220/220/220 218/218/218
f 217/217/217 218/218/218 221/221/221
f 219/219/219 222/222/222 220/220/220
f 222/222/222 223/223/223 220/220/220
f 187/187/187 224/224/224 186/186/186
f 226/226/226 188/188/188 225/225/225
f 226/226/226 190/190/190 188/188/188
f 227/227/227 177/177/177 176/176/176
f 227/227/227 228/228/228 177/177/177
f 231/231/231 230/230/230 229/229/229
f 232/232/232 230/230/230 231/231/231
f 232/232/232 233/233/233 230/230/230
f 235/235/235 234/234/234 232/232/232
f 236/236/236 234/234/234 235/235/235
f 236/236/236 237/237/237 234/234/234
f 240/240/240 239/239/239 238/238/238
f 243/243/243 242/242/242 241/241/241
f 246/246/246 245/245/245 244/244/244
f 243/243/243 247/247/247 242/242/242
f 243/243/243 248/248/248 247/247/247
f 249/249/249 244/244/244 245/245/245
f 246/246/246 251/251/251 250/250/250
f 252/252/252 229/229/229 230/230/230
f 232/232/232 234/234/234 233/233/233
f 241/241/241 242/242/242 253/253/253
f 249/249/249 245/245/245 254/254/254
f 248/248/248 254/254/254 247/247/247
f 248/248/248 249/249/249 254/254/254
f 240/240/240 253/253/253 239/239/239
f 240/240/240 241/241/241 253/253/253
f 246/246/246 244/244/244 251/251/251
f 252/252/252 255/255/255 229/229/229
f 258/258/258 257/257/257 256/256/256
f 258/258/258 259/259/259 257/257/257
f 262/262/262 261/261/261 260/260/260
f 265/265/265 264/264/264 263/263/263
f 265/265/265 266/266/266 264/264/264
f 261/261/261 264/264/264 260/260/260
f 261/261/261 263/263/263 264/264/264
f 267/267/267 266/266/266 265/265/265
f 267/267/267 268/268/268 266/266/266
f 271/271/271 270/270/270 269/269/269
f 271/271/271 272/272/272 270/270/270
f 273/273/273 269/269/269 270/270/270
f 276/276/276 275/275/275 274/274/274
f 276/276/276 277/277/277 275/275/275
f 271/271/271 256/256/256 272/272/272
f 271/271/271 258/258/258 256/256/256
f 280/280/280 279/279/279 278/278/278
f 282/282/282 275/275/275 281/281/281
f 282/282/282 274/274/274 275/275/275
f 284/284/284 278/278/278 283/283/283
f 278/278/278 279/279/279 283/283/283
f 287/287/287 286/286/286 285/285/285
f 287/287/287 288/288/288 286/286/286
f 290/290/290 281/281/281 289/289/289
f 290/290/290 282/282/282 281/281/281
f 292/292/292 289/289/289 291/291/291
f 292/292/292 290/290/290 289/289/289
f 292/292/292 294/294/294 293/293/293
f 292/292/292 291/291/291 294/294/294
f 296/296/296 285/285/285 295/295/295
f 296/296/296 287/287/287 285/285/285
f 293/293/293 286/286/286 288/288/288
f 293/293/293 294/294/294 286/286/286
f 299/299/299 298/298/298 297/297/297
f 299/299/299 300/300/300 298/298/298
f 300/300/300 295/295/295 298/298/298
f 300/300/300 296/296/296 295/295/295
f 303/303/303 302/302/302 301/301/301
f 303/303/303 304/304/304 302/302/302
f 305/305/305 303/303/303 301/301/301
f 305/305/305 306/306/306 303/303/303
f 284/284/284 308/308/308 307/307/307
f 284/284/284 309/309/309 308/308/308
f 307/307/307 306/306/306 305/305/305
f 307/307/307 308/308/308 306/306/306
f 311/311/311 297/297/297 310/310/310
f 311/311/311 299/299/299 297/297/297
f 311/311/311 313/313/313 312/312/312
f 311/311/311 310/310/310 313/313/313
f 304/304/304 313/313/313 302/302/302
f 304/304/304 312/312/312 313/313/313
f 262/262/262 260/260/260 314/314/314
f 315/315/315 262/262/262 314/314/314
f 315/315/315 277/277/277 316/316/316
f 315/315/315 314/314/314 277/277/277
f 276/276/276 316/316/316 277/277/277
f 259/259/259 317/317/317 257/257/257
f 317/317/317 318/318/318 257/257/257
f 318/318/318 319/319/319 278/278/278
f 319/319/319 280/280/280 278/278/278
f 320/320/320 318/318/318 278/278/278
f 318/318/318 320/320/320 257/257/257
f 273/273/273 268/268/268 267/267/267
f 273/273/273 270/270/270 268/268/268
f 284/284/284 283/283/283 309/309/309
f 323/323/323 322/322/322 321/321/321
f 323/323/323 324/324/324 322/322/322
f 324/324/324 325/325/325 322/322/322
f 324/324/324 326/326/326 325/325/325
f 328/328/328 326/326/326 327/327/327
f 328/328/328 325/325/325 326/326/326
f 331/331/331 330/330/330 329/329/329
f 333/333/333 330/330/330 332/332/332
f 336/336/336 335/335/335 334/334/334
f 336/336/336 337/337/337 335/335/335
f 340/340/340 339/339/339 338/338/338
f 340/340/340 341/341/341 339/339/339
f 344/344/344 343/343/343 342/342/342
f 344/344/344 345/345/345 343/343/343
f 348/348/348 347/347/347 346/346/346
f 348/348/348 349/349/349 347/347/347
f 345/345/345 350/350/350 343/343/343
f 345/345/345 351/351/351 350/350/350
f 323/323/323 353/353/353 352/352/352
f 323/323/323 321/321/321 353/353/353
f 354/354/354 341/341/341 340/340/340
f 354/354/354 355/355/355 341/341/341
f 357/357/357 339/339/339 356/356/356
f 357/357/357 338/338/338 339/339/339
f 358/358/358 331/331/331 329/329/329
f 358/358/358 359/359/359 331/331/331
f 333/333/333 361/361/361 360/360/360
f 333/333/333 332/332/332 361/361/361
f 364/364/364 363/363/363 362/362/362
f 364/364/364 365/365/365 363/363/363
f 328/328/328 362/362/362 363/363/363
f 328/328/328 327/327/327 362/362/362
f 352/352/352 349/349/349 348/348/348
f 352/352/352 353/353/353 349/349/349
f 337/337/337 342/342/342 335/335/335
f 337/337/337 344/344/344 342/342/342
f 367/367/367 356/356/356 366/366/366
f 367/367/367 357/357/357 356/356/356
f 358/358/358 367/367/367 366/366/366
f 354/354/354 369/369/369 368/368/368
f 369/369/369 334/334/334 368/368/368
f 369/369/369 336/336/336 334/334/334
f 364/364/364 360/360/360 361/361/361
f 371/371/371 347/347/347 370/370/370
f 371/371/371 346/346/346 347/347/347
f 351/351/351 371/371/371 370/370/370
f 372/372/372 332/332/332 330/330/330
f 364/364/364 361/361/361 365/365/365
f 351/351/351 370/370/370 350/350/350
f 358/358/358 366/366/366 359/359/359
f 354/354/354 368/368/368 355/355/355
f 331/331/331 372/372/372 330/330/330
f 375/375/375 374/374/374 373/373/373
f 375/375/375 376/376/376 374/374/374
f 379/379/379 378/378/378 377/377/377
f 379/379/379 380/380/380 378/378/378
f 383/383/383 382/382/382 381/381/381
f 386/386/386 385/385/385 384/384/384
f 389/389/389 388/388/388 387/387/387
f 389/389/389 390/390/390 388/388/388
f 387/387/387 392/392/392 391/391/391
f 387/387/387 388/388/388 392/392/392
f 392/392/392 393/393/393 391/391/391
f 392/392/392 394/394/394 393/393/393
f 394/394/394 395/395/395 393/393/393
f 394/394/394 396/396/396 395/395/395
f 399/399/399 398/398/398 397/397/397
f 402/402/402 401/401/401 400/400/400
f 402/402/402 403/403/403 401/401/401
f 404/404/404 390/390/390 389/389/389
f 404/404/404 405/405/405 390/390/390
f 407/407/407 380/380/380 406/406/406
f 407/407/407 378/378/378 380/380/380
f 410/410/410 409/409/409 408/408/408
f 410/410/410 411/411/411 409/409/409
f 413/413/413 408/408/408 412/412/412
f 413/413/413 410/410/410 408/408/408
f 414/414/414 381/381/381 382/382/382
f 414/414/414 415/415/415 381/381/381
f 407/407/407 417/417/417 416/416/416
f 407/407/407 406/406/406 417/417/417
f 411/411/411 373/373/373 409/409/409
f 411/411/411 375/375/375 373/373/373
f 413/413/413 415/415/415 414/414/414
f 413/413/413 412/412/412 415/415/415
f 376/376/376 377/377/377 374/374/374
f 376/376/376 379/379/379 377/377/377
f 416/416/416 418/418/418 384/384/384
f 416/416/416 417/417/417 418/418/418
f 395/395/395 396/396/396 419/419/419
f 402/402/402 405/405/405 404/404/404
f 402/402/402 400/400/400 405/405/405
f 385/385/385 386/386/386 397/397/397
f 399/399/399 421/421/421 420/420/420
f 403/403/403 420/420/420 401/401/401
f 403/403/403 399/399/399 420/420/420
f 399/399/399 397/397/397 421/421/421
f 398/398/398 385/385/385 397/397/397
f 383/383/383 419/419/419 382/382/382
f 395/395/395 419/419/419 383/383/383
f 386/386/386 384/384/384 418/418/418
g cPK_10_000230_00_NASSYex_RR_L_SB_1
f 422/422/422 16/16/16 17/17/17
f 423/423/423 422/422/422 17/17/17
f 426/426/426 425/425/425 424/424/424
f 427/427/427 426/426/426 424/424/424
f 428/428/428 10/10/10 40/40/40
f 429/429/429 23/23/23 24/24/24
f 430/430/430 429/429/429 24/24/24
f 431/431/431 25/25/25 8/8/8
f 432/432/432 33/33/33 34/34/34
f 433/433/433 432/432/432 34/34/34
f 422/422/422 46/46/46 37/37/37
f 423/423/423 435/435/435 434/434/434
f 422/422/422 423/423/423 434/434/434
f 436/436/436 36/36/36 14/14/14
f 434/434/434 436/436/436 46/46/46
f 422/422/422 434/434/434 46/46/46
f 433/433/433 425/425/425 426/426/426
f 432/432/432 433/433/433 426/426/426
f 436/436/436 35/35/35 36/36/36
f 436/436/436 434/434/434 425/425/425
f 433/433/433 436/436/436 425/425/425
f 425/425/425 434/434/434 435/435/435
f 424/424/424 425/425/425 435/435/435
f 41/41/41 42/42/42 430/430/430
f 427/427/427 431/431/431 8/8/8
f 426/426/426 427/427/427 8/8/8
f 426/426/426 8/8/8 26/26/26
f 432/432/432 32/32/32 33/33/33
f 423/423/423 17/17/17 38/38/38
f 39/39/39 437/437/437 435/435/435
f 423/423/423 39/39/39 435/435/435
f 424/424/424 435/435/435 437/437/437
f 438/438/438 424/424/424 437/437/437
f 427/427/427 424/424/424 438/438/438
f 439/439/439 427/427/427 438/438/438
f 439/439/439 440/440/440 431/431/431
f 427/427/427 439/439/439 431/431/431
f 440/440/440 3/3/3 4/4/4
f 39/39/39 12/12/12 437/437/437
f 437/437/437 12/12/12 10/10/10
f 438/438/438 437/437/437 10/10/10
f 438/438/438 10/10/10 428/428/428
f 439/439/439 438/438/438 428/428/428
f 428/428/428 430/430/430 440/440/440
f 439/439/439 428/428/428 440/440/440
f 430/430/430 24/24/24 3/3/3
f 440/440/440 430/430/430 3/3/3
f 43/43/43 45/45/45 429/429/429
f 429/429/429 7/7/7 5/5/5
f 423/423/423 38/38/38 39/39/39
f 422/422/422 37/37/37 16/16/16
f 436/436/436 14/14/14 46/46/46
f 433/433/433 34/34/34 35/35/35
f 436/436/436 433/433/433 35/35/35
f 432/432/432 28/28/28 30/30/30
f 432/432/432 30/30/30 32/32/32
f 426/426/426 29/29/29 27/27/27
f 432/432/432 426/426/426 27/27/27
f 426/426/426 26/26/26 29/29/29
f 432/432/432 27/27/27 28/28/28
f 440/440/440 4/4/4 25/25/25
f 431/431/431 440/440/440 25/25/25
f 45/45/45 7/7/7 429/429/429
f 42/42/42 43/43/43 429/429/429
f 429/429/429 21/21/21 23/23/23
f 429/429/429 5/5/5 21/21/21
f 428/428/428 40/40/40 41/41/41
f 42/42/42 429/429/429 430/430/430
f 428/428/428 41/41/41 430/430/430
f 87/87/87 52/52/52 86/86/86
f 62/62/62 55/55/55 57/57/57
f 62/62/62 59/59/59 63/63/63
f 62/62/62 57/57/57 59/59/59
f 85/85/85 87/87/87 86/86/86
f 63/63/63 51/51/51 83/83/83
f 63/63/63 59/59/59 51/51/51
f 83/83/83 87/87/87 85/85/85
f 83/83/83 51/51/51 87/87/87
f 76/76/76 48/48/48 82/82/82
f 76/76/76 75/75/75 48/48/48
f 75/75/75 47/47/47 48/48/48
f 75/75/75 72/72/72 47/47/47
f 72/72/72 80/80/80 47/47/47
f 72/72/72 71/71/71 80/80/80
f 71/71/71 86/86/86 80/80/80
f 71/71/71 67/67/67 86/86/86
f 67/67/67 65/65/65 86/86/86
f 65/65/65 85/85/85 86/86/86
f 79/79/79 89/89/89 90/90/90
f 79/79/79 78/78/78 89/89/89
f 78/78/78 82/82/82 89/89/89
f 78/78/78 76/76/76 82/82/82
f 441/441/441 101/101/101 119/119/119
f 443/443/443 121/121/121 442/442/442
f 443/443/443 122/122/122 121/121/121
f 95/95/95 444/444/444 96/96/96
f 447/447/447 446/446/446 445/445/445
f 447/447/447 448/448/448 446/446/446
f 94/94/94 111/111/111 449/449/449
f 442/442/442 99/99/99 450/450/450
f 442/442/442 121/121/121 99/99/99
f 95/95/95 94/94/94 451/451/451
f 441/441/441 450/450/450 99/99/99
f 453/453/453 131/131/131 452/452/452
f 453/453/453 105/105/105 131/131/131
f 443/443/443 124/124/124 122/122/122
f 443/443/443 454/454/454 124/124/124
f 452/452/452 131/131/131 129/129/129
f 454/454/454 108/108/108 124/124/124
f 455/455/455 444/444/444 451/451/451
f 455/455/455 456/456/456 444/444/444
f 451/451/451 457/457/457 455/455/455
f 451/451/451 449/449/449 457/457/457
f 449/449/449 458/458/458 457/457/457
f 449/449/449 448/448/448 458/458/458
f 458/458/458 448/448/448 447/447/447
f 460/460/460 452/452/452 459/459/459
f 460/460/460 453/453/453 452/452/452
f 459/459/459 127/127/127 109/109/109
f 459/459/459 452/452/452 127/127/127
f 462/462/462 461/461/461 441/441/441
f 461/461/461 450/450/450 441/441/441
f 461/461/461 463/463/463 450/450/450
f 463/463/463 442/442/442 450/450/450
f 463/463/463 464/464/464 442/442/442
f 442/442/442 465/465/465 443/443/443
f 442/442/442 464/464/464 465/465/465
f 443/443/443 466/466/466 454/454/454
f 443/443/443 465/465/465 466/466/466
f 466/466/466 459/459/459 109/109/109
f 445/445/445 103/103/103 105/105/105
f 458/458/458 453/453/453 460/460/460
f 453/453/453 445/445/445 105/105/105
f 453/453/453 447/447/447 445/445/445
f 111/111/111 132/132/132 446/446/446
f 446/446/446 103/103/103 445/445/445
f 446/446/446 132/132/132 103/103/103
f 111/111/111 446/446/446 448/448/448
f 452/452/452 129/129/129 127/127/127
f 111/111/111 448/448/448 449/449/449
f 94/94/94 449/449/449 451/451/451
f 441/441/441 99/99/99 101/101/101
f 461/461/461 456/456/456 455/455/455
f 461/461/461 462/462/462 456/456/456
f 455/455/455 463/463/463 461/461/461
f 455/455/455 457/457/457 463/463/463
f 457/457/457 464/464/464 463/463/463
f 457/457/457 458/458/458 464/464/464
f 464/464/464 460/460/460 465/465/465
f 464/464/464 458/458/458 460/460/460
f 465/465/465 459/459/459 466/466/466
f 465/465/465 460/460/460 459/459/459
f 466/466/466 109/109/109 108/108/108
f 454/454/454 466/466/466 108/108/108
f 462/462/462 119/119/119 112/112/112
f 462/462/462 113/113/113 456/456/456
f 462/462/462 112/112/112 113/113/113
f 456/456/456 113/113/113 116/116/116
f 95/95/95 451/451/451 444/444/444
f 462/462/462 441/441/441 119/119/119
f 456/456/456 116/116/116 444/444/444
f 116/116/116 96/96/96 444/444/444
f 458/458/458 447/447/447 453/453/453
f 136/136/136 467/467/467 135/135/135
f 158/158/158 142/142/142 135/135/135
f 158/158/158 140/140/140 142/142/142
f 159/159/159 158/158/158 135/135/135
f 467/467/467 159/159/159 135/135/135
f 139/139/139 144/144/144 146/146/146
f 139/139/139 150/150/150 144/144/144
f 150/150/150 147/147/147 144/144/144
f 150/150/150 154/154/154 147/147/147
f 154/154/154 155/155/155 147/147/147
f 154/154/154 153/153/153 155/155/155
f 140/140/140 146/146/146 142/142/142
f 140/140/140 139/139/139 146/146/146
f 195/195/195 193/193/193 216/216/216
f 195/195/195 197/197/197 193/193/193
f 166/166/166 167/167/167 206/206/206
f 468/468/468 198/198/198 201/201/201
f 468/468/468 192/192/192 198/198/198
f 469/469/469 201/201/201 203/203/203
f 469/469/469 468/468/468 201/201/201
f 206/206/206 470/470/470 204/204/204
f 206/206/206 167/167/167 470/470/470
f 223/223/223 185/185/185 183/183/183
f 160/160/160 210/210/210 162/162/162
f 160/160/160 214/214/214 210/210/210
f 221/221/221 218/218/218 177/177/177
f 211/211/211 228/228/228 209/209/209
f 211/211/211 221/221/221 228/228/228
f 189/189/189 471/471/471 213/213/213
f 189/189/189 170/170/170 471/471/471
f 223/223/223 472/472/472 173/173/173
f 204/204/204 469/469/469 203/203/203
f 204/204/204 470/470/470 469/469/469
f 189/189/189 187/187/187 170/170/170
f 189/189/189 190/190/190 187/187/187
f 198/198/198 192/192/192 193/193/193
f 195/195/195 214/214/214 160/160/160
f 195/195/195 216/216/216 214/214/214
f 162/162/162 210/210/210 211/211/211
f 209/209/209 162/162/162 211/211/211
f 212/212/212 221/221/221 211/211/211
f 212/212/212 217/217/217 221/221/221
f 221/221/221 177/177/177 228/228/228
f 222/222/222 471/471/471 171/171/171
f 219/219/219 217/217/217 212/212/212
f 223/223/223 171/171/171 185/185/185
f 170/170/170 171/171/171 471/471/471
f 223/223/223 222/222/222 171/171/171
f 471/471/471 222/222/222 219/219/219
f 219/219/219 213/213/213 471/471/471
f 219/219/219 212/212/212 213/213/213
f 220/220/220 177/177/177 218/218/218
f 220/220/220 175/175/175 177/177/177
f 223/223/223 183/183/183 181/181/181
f 180/180/180 472/472/472 181/181/181
f 472/472/472 182/182/182 173/173/173
f 180/180/180 182/182/182 472/472/472
f 190/190/190 224/224/224 187/187/187
f 190/190/190 226/226/226 224/224/224
f 197/197/197 198/198/198 193/193/193
f 223/223/223 173/173/173 175/175/175
f 223/223/223 175/175/175 220/220/220
f 223/223/223 181/181/181 472/472/472
f 473/473/473 243/243/243 241/241/241
f 473/473/473 474/474/474 243/243/243
f 476/476/476 244/244/244 475/475/475
f 476/476/476 251/251/251 244/244/244
f 477/477/477 251/251/251 476/476/476
f 477/477/477 250/250/250 251/251/251
f 477/477/477 255/255/255 478/478/478
f 477/477/477 229/229/229 255/255/255
f 475/475/475 249/249/249 479/479/479
f 475/475/475 244/244/244 249/249/249
f 474/474/474 248/248/248 243/243/243
f 474/474/474 480/480/480 248/248/248
f 480/480/480 249/249/249 248/248/248
f 480/480/480 479/479/479 249/249/249
f 240/240/240 473/473/473 241/241/241
f 236/236/236 479/479/479 480/480/480
f 236/236/236 235/235/235 479/479/479
f 479/479/479 232/232/232 475/475/475
f 479/479/479 235/235/235 232/232/232
f 475/475/475 231/231/231 476/476/476
f 475/475/475 232/232/232 231/231/231
f 476/476/476 229/229/229 477/477/477
f 476/476/476 231/231/231 229/229/229
f 477/477/477 481/481/481 250/250/250
f 477/477/477 478/478/478 481/481/481
f 474/474/474 236/236/236 480/480/480
f 484/484/484 483/483/483 482/482/482
f 484/484/484 485/485/485 483/483/483
f 319/319/319 318/318/318 486/486/486
f 486/486/486 317/317/317 487/487/487
f 486/486/486 318/318/318 317/317/317
f 488/488/488 259/259/259 258/258/258
f 488/488/488 271/271/271 269/269/269
f 488/488/488 258/258/258 271/271/271
f 269/269/269 489/489/489 488/488/488
f 273/273/273 489/489/489 269/269/269
f 267/267/267 489/489/489 273/273/273
f 490/490/490 316/316/316 276/276/276
f 487/487/487 317/317/317 488/488/488
f 492/492/492 280/280/280 491/491/491
f 492/492/492 493/493/493 279/279/279
f 490/490/490 493/493/493 492/492/492
f 490/490/490 494/494/494 493/493/493
f 276/276/276 274/274/274 494/494/494
f 495/495/495 262/262/262 315/315/315
f 490/490/490 496/496/496 495/495/495
f 495/495/495 315/315/315 316/316/316
f 498/498/498 497/497/497 496/496/496
f 490/490/490 492/492/492 498/498/498
f 280/280/280 319/319/319 491/491/491
f 492/492/492 491/491/491 498/498/498
f 486/486/486 487/487/487 499/499/499
f 486/486/486 497/497/497 498/498/498
f 486/486/486 499/499/499 497/497/497
f 486/486/486 498/498/498 491/491/491
f 319/319/319 486/486/486 491/491/491
f 502/502/502 501/501/501 500/500/500
f 504/504/504 303/303/303 503/503/503
f 504/504/504 304/304/304 303/303/303
f 484/484/484 274/274/274 282/282/282
f 484/484/484 494/494/494 274/274/274
f 505/505/505 290/290/290 292/292/292
f 505/505/505 485/485/485 290/290/290
f 282/282/282 485/485/485 484/484/484
f 282/282/282 290/290/290 485/485/485
f 505/505/505 293/293/293 506/506/506
f 505/505/505 292/292/292 293/293/293
f 507/507/507 485/485/485 505/505/505
f 507/507/507 483/483/483 485/485/485
f 508/508/508 306/306/306 308/308/308
f 507/507/507 506/506/506 500/500/500
f 507/507/507 505/505/505 506/506/506
f 506/506/506 293/293/293 288/288/288
f 509/509/509 493/493/493 482/482/482
f 509/509/509 482/482/482 510/510/510
f 511/511/511 483/483/483 507/507/507
f 511/511/511 512/512/512 483/483/483
f 515/515/515 514/514/514 513/513/513
f 516/516/516 311/311/311 312/312/312
f 482/482/482 512/512/512 510/510/510
f 482/482/482 483/483/483 512/512/512
f 503/503/503 306/306/306 508/508/508
f 503/503/503 303/303/303 306/306/306
f 508/508/508 517/517/517 510/510/510
f 510/510/510 503/503/503 508/508/508
f 510/510/510 512/512/512 503/503/503
f 503/503/503 511/511/511 504/504/504
f 503/503/503 512/512/512 511/511/511
f 516/516/516 299/299/299 311/311/311
f 516/516/516 514/514/514 299/299/299
f 518/518/518 283/283/283 279/279/279
f 518/518/518 279/279/279 493/493/493
f 494/494/494 482/482/482 493/493/493
f 494/494/494 484/484/484 482/482/482
f 515/515/515 500/500/500 501/501/501
f 511/511/511 500/500/500 513/513/513
f 511/511/511 507/507/507 500/500/500
f 504/504/504 513/513/513 516/516/516
f 504/504/504 511/511/511 513/513/513
f 516/516/516 304/304/304 504/504/504
f 516/516/516 312/312/312 304/304/304
f 496/496/496 497/497/497 499/499/499
f 517/517/517 309/309/309 283/283/283
f 261/261/261 262/262/262 495/495/495
f 489/489/489 487/487/487 488/488/488
f 489/489/489 499/499/499 487/487/487
f 317/317/317 259/259/259 488/488/488
f 263/263/263 495/495/495 489/489/489
f 489/489/489 265/265/265 263/263/263
f 267/267/267 265/265/265 489/489/489
f 489/489/489 495/495/495 496/496/496
f 489/489/489 496/496/496 499/499/499
f 490/490/490 495/495/495 316/316/316
f 280/280/280 492/492/492 279/279/279
f 490/490/490 276/276/276 494/494/494
f 490/490/490 498/498/498 496/496/496
f 263/263/263 261/261/261 495/495/495
f 518/518/518 510/510/510 517/517/517
f 517/517/517 508/508/508 308/308/308
f 517/517/517 283/283/283 518/518/518
f 517/517/517 308/308/308 309/309/309
f 518/518/518 509/509/509 510/510/510
f 509/509/509 518/518/518 493/493/493
f 502/502/502 287/287/287 296/296/296
f 506/506/506 502/502/502 500/500/500
f 502/502/502 506/506/506 288/288/288
f 501/501/501 296/296/296 300/300/300
f 300/300/300 299/299/299 514/514/514
f 515/515/515 300/300/300 514/514/514
f 516/516/516 513/513/513 514/514/514
f 502/502/502 288/288/288 287/287/287
f 515/515/515 501/501/501 300/300/300
f 502/502/502 296/296/296 501/501/501
f 500/500/500 515/515/515 513/513/513
f 338/338/338 519/519/519 340/340/340
f 520/520/520 519/519/519 357/357/357
f 338/338/338 357/357/357 519/519/519
f 523/523/523 522/522/522 521/521/521
f 523/523/523 336/336/336 522/522/522
f 526/526/526 525/525/525 524/524/524
f 526/526/526 527/527/527 525/525/525
f 530/530/530 529/529/529 528/528/528
f 530/530/530 531/531/531 529/529/529
f 532/532/532 362/362/362 327/327/327
f 532/532/532 327/327/327 326/326/326
f 324/324/324 533/533/533 326/326/326
f 536/536/536 535/535/535 534/534/534
f 536/536/536 537/537/537 535/535/535
f 536/536/536 538/538/538 537/537/537
f 536/536/536 527/527/527 538/538/538
f 539/539/539 533/533/533 323/323/323
f 324/324/324 323/323/323 533/533/533
f 540/540/540 352/352/352 348/348/348
f 369/369/369 522/522/522 336/336/336
f 528/528/528 541/541/541 530/530/530
f 528/528/528 542/542/542 541/541/541
f 544/544/544 534/534/534 543/543/543
f 544/544/544 536/536/536 534/534/534
f 544/544/544 527/527/527 536/536/536
f 544/544/544 525/525/525 527/527/527
f 545/545/545 527/527/527 526/526/526
f 545/545/545 538/538/538 527/527/527
f 546/546/546 538/538/538 545/545/545
f 546/546/546 547/547/547 538/538/538
f 537/537/537 547/547/547 548/548/548
f 537/537/537 538/538/538 547/547/547
f 537/537/537 549/549/549 535/535/535
f 537/537/537 548/548/548 549/549/549
f 531/531/531 550/550/550 529/529/529
f 531/531/531 551/551/551 550/550/550
f 348/348/348 551/551/551 540/540/540
f 348/348/348 550/550/550 551/551/551
f 539/539/539 548/548/548 533/533/533
f 539/539/539 549/549/549 548/548/548
f 548/548/548 532/532/532 533/533/533
f 548/548/548 547/547/547 532/532/532
f 546/546/546 364/364/364 362/362/362
f 554/554/554 553/553/553 552/552/552
f 554/554/554 555/555/555 553/553/553
f 553/553/553 557/557/557 556/556/556
f 553/553/553 555/555/555 557/557/557
f 556/556/556 559/559/559 558/558/558
f 556/556/556 557/557/557 559/559/559
f 521/521/521 560/560/560 523/523/523
f 521/521/521 561/561/561 560/560/560
f 553/553/553 520/520/520 552/552/552
f 553/553/553 519/519/519 520/520/520
f 556/556/556 519/519/519 553/553/553
f 556/556/556 562/562/562 519/519/519
f 563/563/563 522/522/522 369/369/369
f 562/562/562 558/558/558 563/563/563
f 562/562/562 556/556/556 558/558/558
f 562/562/562 354/354/354 340/340/340
f 542/542/542 561/561/561 541/541/541
f 542/542/542 560/560/560 561/561/561
f 543/543/543 557/557/557 544/544/544
f 543/543/543 559/559/559 557/557/557
f 544/544/544 555/555/555 525/525/525
f 544/544/544 557/557/557 555/555/555
f 524/524/524 555/555/555 554/554/554
f 524/524/524 525/525/525 555/555/555
f 348/348/348 346/346/346 550/550/550
f 529/529/529 346/346/346 371/371/371
f 529/529/529 550/550/550 346/346/346
f 528/528/528 371/371/371 351/351/351
f 528/528/528 529/529/529 371/371/371
f 351/351/351 542/542/542 528/528/528
f 351/351/351 345/345/345 542/542/542
f 345/345/345 560/560/560 542/542/542
f 345/345/345 344/344/344 560/560/560
f 523/523/523 344/344/344 337/337/337
f 523/523/523 560/560/560 344/344/344
f 523/523/523 337/337/337 336/336/336
f 562/562/562 340/340/340 519/519/519
f 540/540/540 323/323/323 352/352/352
f 532/532/532 326/326/326 533/533/533
f 540/540/540 539/539/539 323/323/323
f 539/539/539 551/551/551 549/549/549
f 539/539/539 540/540/540 551/551/551
f 549/549/549 531/531/531 535/535/535
f 549/549/549 551/551/551 531/531/531
f 534/534/534 531/531/531 530/530/530
f 534/534/534 535/535/535 531/531/531
f 543/543/543 530/530/530 541/541/541
f 543/543/543 534/534/534 530/530/530
f 541/541/541 559/559/559 543/543/543
f 541/541/541 561/561/561 559/559/559
f 558/558/558 561/561/561 521/521/521
f 558/558/558 559/559/559 561/561/561
f 563/563/563 521/521/521 522/522/522
f 563/563/563 558/558/558 521/521/521
f 563/563/563 369/369/369 354/354/354
f 563/563/563 354/354/354 562/562/562
f 520/520/520 357/357/357 367/367/367
f 552/552/552 367/367/367 358/358/358
f 552/552/552 520/520/520 367/367/367
f 552/552/552 329/329/329 554/554/554
f 552/552/552 358/358/358 329/329/329
f 554/554/554 330/330/330 524/524/524
f 554/554/554 329/329/329 330/330/330
f 524/524/524 333/333/333 526/526/526
f 524/524/524 330/330/330 333/333/333
f 526/526/526 360/360/360 545/545/545
f 526/526/526 333/333/333 360/360/360
f 545/545/545 364/364/364 546/546/546
f 545/545/545 360/360/360 364/364/364
f 532/532/532 546/546/546 362/362/362
f 532/532/532 547/547/547 546/546/546
f 396/396/396 394/394/394 564/564/564
f 565/565/565 396/396/396 564/564/564
f 568/568/568 567/567/567 566/566/566
f 376/376/376 569/569/569 379/379/379
f 572/572/572 571/571/571 570/570/570
f 574/574/574 567/567/567 573/573/573
f 380/380/380 379/379/379 569/569/569
f 577/577/577 576/576/576 575/575/575
f 571/571/571 579/579/579 578/578/578
f 568/568/568 573/573/573 567/567/567
f 578/578/578 566/566/566 580/580/580
f 578/578/578 581/581/581 566/566/566
f 582/582/582 382/382/382 419/419/419
f 583/583/583 582/582/582 419/419/419
f 575/575/575 585/585/585 584/584/584
f 586/586/586 575/575/575 584/584/584
f 586/586/586 587/587/587 575/575/575
f 589/589/589 587/587/587 588/588/588
f 589/589/589 575/575/575 587/587/587
f 592/592/592 591/591/591 590/590/590
f 585/585/585 576/576/576 593/593/593
f 570/570/570 595/595/595 594/594/594
f 595/595/595 585/585/585 596/596/596
f 585/585/585 578/578/578 584/584/584
f 585/585/585 595/595/595 578/578/578
f 584/584/584 580/580/580 586/586/586
f 584/584/584 578/578/578 580/580/580
f 419/419/419 396/396/396 565/565/565
f 583/583/583 419/419/419 565/565/565
f 599/599/599 598/598/598 597/597/597
f 592/592/592 598/598/598 599/599/599
f 592/592/592 590/590/590 598/598/598
f 599/599/599 601/601/601 600/600/600
f 599/599/599 602/602/602 601/601/601
f 574/574/574 603/603/603 600/600/600
f 599/599/599 604/604/604 592/592/592
f 599/599/599 600/600/600 604/604/604
f 600/600/600 606/606/606 605/605/605
f 593/593/593 596/596/596 585/585/585
f 608/608/608 588/588/588 607/607/607
f 609/609/609 608/608/608 607/607/607
f 580/580/580 566/566/566 567/567/567
f 586/586/586 601/601/601 602/602/602
f 586/586/586 580/580/580 601/601/601
f 586/586/586 602/602/602 587/587/587
f 610/610/610 607/607/607 588/588/588
f 612/612/612 611/611/611 589/589/589
f 564/564/564 609/609/609 607/607/607
f 613/613/613 611/611/611 612/612/612
f 614/614/614 400/400/400 401/401/401
f 597/597/597 610/610/610 587/587/587
f 597/597/597 598/598/598 610/610/610
f 610/610/610 590/590/590 615/615/615
f 610/610/610 598/598/598 590/590/590
f 615/615/615 590/590/590 591/591/591
f 593/593/593 401/401/401 420/420/420
f 593/593/593 614/614/614 401/401/401
f 575/575/575 611/611/611 577/577/577
f 575/575/575 589/589/589 611/611/611
f 602/602/602 597/597/597 587/587/587
f 575/575/575 576/576/576 585/585/585
f 576/576/576 614/614/614 593/593/593
f 576/576/576 577/577/577 614/614/614
f 577/577/577 613/613/613 614/614/614
f 614/614/614 405/405/405 400/400/400
f 587/587/587 610/610/610 588/588/588
f 591/591/591 604/604/604 616/616/616
f 616/616/616 604/604/604 617/617/617
f 620/620/620 619/619/619 618/618/618
f 620/620/620 621/621/621 619/619/619
f 417/417/417 622/622/622 418/418/418
f 417/417/417 623/623/623 622/622/622
f 624/624/624 414/414/414 382/382/382
f 582/582/582 624/624/624 382/382/382
f 624/624/624 625/625/625 413/413/413
f 414/414/414 624/624/624 413/413/413
f 625/625/625 626/626/626 410/410/410
f 413/413/413 625/625/625 410/410/410
f 626/626/626 627/627/627 411/411/411
f 410/410/410 626/626/626 411/411/411
f 628/628/628 375/375/375 411/411/411
f 627/627/627 628/628/628 411/411/411
f 376/376/376 375/375/375 628/628/628
f 629/629/629 376/376/376 628/628/628
f 632/632/632 631/631/631 630/630/630
f 633/633/633 632/632/632 630/630/630
f 635/635/635 621/621/621 634/634/634
f 635/635/635 619/619/619 621/621/621
f 638/638/638 637/637/637 636/636/636
f 380/380/380 639/639/639 406/406/406
f 601/601/601 580/580/580 567/567/567
f 642/642/642 641/641/641 640/640/640
f 643/643/643 642/642/642 640/640/640
f 644/644/644 642/642/642 643/643/643
f 645/645/645 644/644/644 643/643/643
f 648/648/648 647/647/647 646/646/646
f 649/649/649 572/572/572 570/570/570
f 650/650/650 386/386/386 418/418/418
f 652/652/652 651/651/651 647/647/647
f 648/648/648 652/652/652 647/647/647
f 639/639/639 417/417/417 406/406/406
f 631/631/631 644/644/644 645/645/645
f 630/630/630 631/631/631 645/645/645
f 618/618/618 605/605/605 620/620/620
f 618/618/618 617/617/617 605/605/605
f 641/641/641 606/606/606 653/653/653
f 640/640/640 641/641/641 653/653/653
f 640/640/640 653/653/653 654/654/654
f 656/656/656 634/634/634 655/655/655
f 656/656/656 635/635/635 634/634/634
f 633/633/633 636/636/636 637/637/637
f 632/632/632 633/633/633 637/637/637
f 658/658/658 655/655/655 657/657/657
f 658/658/658 656/656/656 655/655/655
f 658/658/658 657/657/657 659/659/659
f 661/661/661 660/660/660 659/659/659
f 662/662/662 581/581/581 579/579/579
f 646/646/646 647/647/647 663/663/663
f 665/665/665 664/664/664 568/568/568
f 665/665/665 663/663/663 664/664/664
f 666/666/666 643/643/643 640/640/640
f 666/666/666 664/664/664 643/643/643
f 666/666/666 568/568/568 664/664/664
f 568/568/568 666/666/666 573/573/573
f 640/640/640 654/654/654 666/666/666
f 600/600/600 603/603/603 653/653/653
f 653/653/653 603/603/603 654/654/654
f 665/665/665 566/566/566 581/581/581
f 665/665/665 568/568/568 566/566/566
f 651/651/651 667/667/667 647/647/647
f 651/651/651 636/636/636 667/667/667
f 667/667/667 630/630/630 645/645/645
f 667/667/667 633/633/633 630/630/630
f 636/636/636 633/633/633 667/667/667
f 663/663/663 667/667/667 664/664/664
f 663/663/663 647/647/647 667/667/667
f 664/664/664 645/645/645 643/643/643
f 664/664/664 667/667/667 645/645/645
f 579/579/579 581/581/581 578/578/578
f 668/668/668 646/646/646 663/663/663
f 604/604/604 600/600/600 605/605/605
f 669/669/669 380/380/380 660/660/660
f 607/607/607 610/610/610 615/615/615
f 599/599/599 597/597/597 602/602/602
f 604/604/604 605/605/605 617/617/617
f 661/661/661 669/669/669 660/660/660
f 661/661/661 639/639/639 669/669/669
f 420/420/420 596/596/596 593/593/593
f 420/420/420 421/421/421 596/596/596
f 670/670/670 595/595/595 596/596/596
f 594/594/594 650/650/650 570/570/570
f 591/591/591 592/592/592 604/604/604
f 670/670/670 596/596/596 421/421/421
f 670/670/670 421/421/421 397/397/397
f 670/670/670 594/594/594 595/595/595
f 670/670/670 397/397/397 594/594/594
f 662/662/662 579/579/579 572/572/572
f 668/668/668 662/662/662 572/572/572
f 668/668/668 572/572/572 646/646/646
f 572/572/572 579/579/579 571/571/571
f 570/570/570 571/571/571 595/595/595
f 574/574/574 666/666/666 654/654/654
f 574/574/574 573/573/573 666/666/666
f 574/574/574 654/654/654 603/603/603
f 601/601/601 567/567/567 574/574/574
f 574/574/574 600/600/600 601/601/601
f 622/622/622 649/649/649 570/570/570
f 648/648/648 649/649/649 622/622/622
f 623/623/623 648/648/648 622/622/622
f 648/648/648 623/623/623 671/671/671
f 652/652/652 671/671/671 661/661/661
f 632/632/632 637/637/637 659/659/659
f 657/657/657 632/632/632 659/659/659
f 657/657/657 655/655/655 631/631/631
f 632/632/632 657/657/657 631/631/631
f 655/655/655 634/634/634 644/644/644
f 631/631/631 655/655/655 644/644/644
f 634/634/634 621/621/621 642/642/642
f 644/644/644 634/634/634 642/642/642
f 621/621/621 620/620/620 641/641/641
f 642/642/642 621/621/621 641/641/641
f 620/620/620 605/605/605 606/606/606
f 641/641/641 620/620/620 606/606/606
f 600/600/600 653/653/653 606/606/606
f 665/665/665 581/581/581 662/662/662
f 665/665/665 662/662/662 668/668/668
f 665/665/665 668/668/668 663/663/663
f 571/571/571 578/578/578 595/595/595
f 637/637/637 638/638/638 661/661/661
f 659/659/659 637/637/637 661/661/661
f 651/651/651 652/652/652 638/638/638
f 651/651/651 638/638/638 636/636/636
f 638/638/638 652/652/652 661/661/661
f 646/646/646 572/572/572 649/649/649
f 648/648/648 646/646/646 649/649/649
f 650/650/650 622/622/622 570/570/570
f 594/594/594 397/397/397 650/650/650
f 639/639/639 671/671/671 623/623/623
f 565/565/565 564/564/564 615/615/615
f 583/583/583 565/565/565 591/591/591
f 583/583/583 616/616/616 617/617/617
f 617/617/617 618/618/618 624/624/624
f 582/582/582 617/617/617 624/624/624
f 618/618/618 619/619/619 625/625/625
f 624/624/624 618/618/618 625/625/625
f 619/619/619 635/635/635 626/626/626
f 625/625/625 619/619/619 626/626/626
f 635/635/635 656/656/656 627/627/627
f 626/626/626 635/635/635 627/627/627
f 627/627/627 656/656/656 628/628/628
f 628/628/628 656/656/656 658/658/658
f 629/629/629 628/628/628 658/658/658
f 394/394/394 392/392/392 609/609/609
f 564/564/564 394/394/394 609/609/609
f 392/392/392 388/388/388 608/608/608
f 609/609/609 392/392/392 608/608/608
f 388/388/388 390/390/390 612/612/612
f 608/608/608 388/388/388 612/612/612
f 612/612/612 390/390/390 405/405/405
f 613/613/613 612/612/612 405/405/405
f 613/613/613 405/405/405 614/614/614
f 608/608/608 612/612/612 589/589/589
f 588/588/588 608/608/608 589/589/589
f 397/397/397 386/386/386 650/650/650
f 639/639/639 623/623/623 417/417/417
f 648/648/648 671/671/671 652/652/652
f 615/615/615 564/564/564 607/607/607
f 577/577/577 611/611/611 613/613/613
f 658/658/658 660/660/660 569/569/569
f 629/629/629 658/658/658 569/569/569
f 380/380/380 569/569/569 660/660/660
f 376/376/376 629/629/629 569/569/569
f 380/380/380 669/669/669 639/639/639
f 661/661/661 671/671/671 639/639/639
f 658/658/658 659/659/659 660/660/660
f 650/650/650 418/418/418 622/622/622
f 583/583/583 617/617/617 582/582/582
f 616/616/616 583/583/583 591/591/591
f 591/591/591 565/565/565 615/615/615
g cPK_10_000230_00_NASSYex_RR_L_SB_2
f 673/673/673 151/151/151 672/672/672
f 673/673/673 153/153/153 151/151/151
f 675/675/675 155/155/155 674/674/674
f 675/675/675 156/156/156 155/155/155
f 678/678/678 677/677/677 676/676/676
f 678/678/678 679/679/679 677/677/677
f 681/681/681 674/674/674 680/680/680
f 681/681/681 675/675/675 674/674/674
f 684/684/684 683/683/683 682/682/682
f 684/684/684 685/685/685 683/683/683
f 688/688/688 687/687/687 686/686/686
f 678/678/678 672/672/672 679/679/679
f 678/678/678 673/673/673 672/672/672
f 685/685/685 680/680/680 683/683/683
f 685/685/685 681/681/681 680/680/680
f 689/689/689 688/688/688 686/686/686
f 688/688/688 690/690/690 687/687/687
f 676/676/676 692/692/692 691/691/691
f 676/676/676 677/677/677 692/692/692
f 691/691/691 694/694/694 693/693/693
f 691/691/691 692/692/692 694/694/694
f 693/693/693 690/690/690 688/688/688
f 693/693/693 694/694/694 690/690/690
f 689/689/689 686/686/686 684/684/684
f 689/689/689 684/684/684 682/682/682
f 697/697/697 696/696/696 695/695/695
f 700/700/700 699/699/699 698/698/698
f 703/703/703 702/702/702 701/701/701
f 704/704/704 702/702/702 703/703/703
f 705/705/705 702/702/702 704/704/704
f 705/705/705 706/706/706 702/702/702
f 708/708/708 707/707/707 705/705/705
f 709/709/709 707/707/707 708/708/708
f 709/709/709 710/710/710 707/707/707
f 713/713/713 712/712/712 711/711/711
f 714/714/714 712/712/712 713/713/713
f 714/714/714 699/699/699 712/712/712
f 715/715/715 699/699/699 714/714/714
f 715/715/715 698/698/698 699/699/699
f 717/717/717 696/696/696 716/716/716
f 717/717/717 695/695/695 696/696/696
f 720/720/720 719/719/719 718/718/718
f 721/721/721 719/719/719 720/720/720
f 723/723/723 721/721/721 722/722/722
f 723/723/723 719/719/719 721/721/721
f 725/725/725 238/238/238 724/724/724
f 726/726/726 238/238/238 725/725/725
f 697/697/697 728/728/728 727/727/727
f 237/237/237 236/236/236 703/703/703
f 729/729/729 709/709/709 711/711/711
f 729/729/729 710/710/710 709/709/709
f 729/729/729 711/711/711 712/712/712
f 730/730/730 698/698/698 697/697/697
f 727/727/727 730/730/730 697/697/697
f 697/697/697 695/695/695 728/728/728
f 717/717/717 732/732/732 731/731/731
f 717/717/717 716/716/716 732/732/732
f 723/723/723 725/725/725 724/724/724
f 723/723/723 722/722/722 725/725/725
f 705/705/705 707/707/707 706/706/706
f 731/731/731 720/720/720 718/718/718
f 731/731/731 732/732/732 720/720/720
f 730/730/730 700/700/700 698/698/698
f 726/726/726 240/240/240 238/238/238
f 237/237/237 703/703/703 701/701/701
g cPK_10_000230_00_NASSYex_RR_L_SB_3
f 153/153/153 674/674/674 155/155/155
f 153/153/153 673/673/673 674/674/674
f 678/678/678 674/674/674 673/673/673
f 678/678/678 680/680/680 674/674/674
f 676/676/676 682/682/682 683/683/683
f 676/676/676 691/691/691 682/682/682
f 678/678/678 683/683/683 680/680/680
f 678/678/678 676/676/676 683/683/683
f 693/693/693 682/682/682 691/691/691
f 693/693/693 689/689/689 682/682/682
f 693/693/693 688/688/688 689/689/689
f 697/697/697 698/698/698 696/696/696
f 714/714/714 734/734/734 733/733/733
f 714/714/714 713/713/713 734/734/734
f 715/715/715 716/716/716 698/698/698
f 715/715/715 732/732/732 716/716/716
f 698/698/698 716/716/716 696/696/696
f 713/713/713 735/735/735 734/734/734
f 713/713/713 711/711/711 735/735/735
f 736/736/736 240/240/240 726/726/726
f 736/736/736 737/737/737 240/240/240
f 736/736/736 725/725/725 738/738/738
f 736/736/736 726/726/726 725/725/725
f 722/722/722 738/738/738 725/725/725
f 722/722/722 735/735/735 738/738/738
f 715/715/715 733/733/733 732/732/732
f 715/715/715 714/714/714 733/733/733
f 711/711/711 738/738/738 735/735/735
f 711/711/711 709/709/709 738/738/738
f 709/709/709 736/736/736 738/738/738
f 709/709/709 708/708/708 736/736/736
f 708/708/708 737/737/737 736/736/736
f 708/708/708 705/705/705 737/737/737
f 705/705/705 473/473/473 737/737/737
f 705/705/705 704/704/704 473/473/473
f 473/473/473 704/704/704 703/703/703
f 474/474/474 703/703/703 236/236/236
f 734/734/734 722/722/722 721/721/721
f 734/734/734 735/735/735 722/722/722
f 734/734/734 720/720/720 733/733/733
f 734/734/734 721/721/721 720/720/720
f 733/733/733 720/720/720 732/732/732
f 240/240/240 737/737/737 473/473/473
f 473/473/473 703/703/703 474/474/474
