g cPK_10_001290_00_MEWTWO_RR_L_SB
v -0.08259062 0.3208652 -0.0077343048
v -0.09720703 0.3005194 -0.0077343048
v -0.08688095 0.30123493 -0.0077343048
v -0.081070356 0.3077974 -0.0077343048
v -0.07542031 0.3123626 -0.0077343048
v -0.06699533 0.32106557 -0.0077343048
v -0.092809275 0.28415692 -0.0077343048
v -0.0852684 0.2935252 -0.0077343048
v -0.0378073 0.30142972 -0.0077343048
v -0.0516331 0.294485 -0.0077343048
v -0.042763203 0.2906544 -0.0077343048
v -0.0378073 0.27453938 -0.0077343048
v -0.048420794 0.2842438 -0.0077343048
v -0.053124994 0.2791561 -0.0077343048
v -0.05814383 0.27858624 -0.0077343048
v -0.065794304 0.266124 -0.0077343048
v -0.06344914 0.2789385 -0.0077343048
v -0.07424615 0.2838086 -0.0077343048
v -0.06874048 0.30637002 -0.0077343048
v -0.061152544 0.30119288 -0.0077343048
v -0.015831914 0.22928174 -0.008334231
v 0.012660863 0.23619647 -0.008334231
v 0.025457779 0.26098552 -0.008334231
v -0.0423863 0.24389632 -0.010983527
v 0.02816752 0.23934305 -0.008334231
v -0.09150498 0.2019931 -0.010983528
v -0.07746695 0.20677283 -0.010983527
v -0.071913965 0.2357463 -0.010983527
v -0.11019758 0.22383705 -0.010983527
v -0.037131798 0.20757845 -0.010983527
v -0.027225196 0.2199726 -0.008334231
v -0.15463874 0.21571587 -0.010983527
v -0.14287329 0.1993332 -0.010983528
v -0.11821349 0.20329519 -0.010983528
v -0.18113212 0.15553519 -0.010983527
v -0.16176869 0.15124004 -0.010983528
v -0.1656814 0.16471301 -0.010983528
v -0.17695957 0.1989547 -0.010983528
v -0.16478552 0.17762935 -0.010983528
v -0.15598725 0.19117482 -0.010983528
v -0.15676634 0.10956871 -0.008855893
v -0.14285617 0.1220068 -0.010983528
v -0.090616316 0.0357763 -0.008334231
v -0.06866623 0.046791863 -0.009473885
v -0.08769705 0.05182239 -0.008334231
v -0.10099578 0.05909142 -0.008334232
v -0.09486684 0.02589778 -0.008334231
v -0.07257693 0.023001483 -0.008334231
v -0.06432586 0.031496894 -0.008895524
v 0.074268706 0.08819125 -0.008334231
v 0.06336467 0.064492226 -0.008334232
v 0.08749921 0.05624777 -0.008334231
v 0.19809811 0.021500507 -0.008334231
v 0.17005682 0.048782263 -0.008334231
v 0.13899867 0.032691285 -0.007923949
v 0.16734008 0.022329995 -0.008334231
v -0.08609747 0.010808662 -0.008334231
v -0.038365822 0.010305337 -0.008334231
v -0.04255093 0.02291744 -0.008334231
v 0.04536987 0.06958803 -0.008334232
v 0.13126272 0.06619375 -0.008334232
v 0.11741179 0.04465183 -0.008829429
v 0.06313537 0.13425373 -0.008334232
v 0.05628854 0.114478126 -0.008334232
v 0.26241174 0.20584504 -0.008334231
v 0.24021709 0.20782709 -0.009508125
v 0.23892617 0.19617836 -0.008334232
v 0.09654214 0.15063216 -0.008436032
v 0.17670026 0.24430318 -0.008334231
v 0.110688105 0.23982747 -0.008334231
v 0.14156486 0.22011064 -0.008334231
v 0.18414056 0.22612403 -0.008334231
v 0.24052553 0.16220833 -0.010592966
v 0.20333564 0.17961356 -0.010167876
v 0.16654961 0.16740833 -0.0095527815
v 0.23840545 0.24593075 -0.008334231
v 0.23421721 0.21886392 -0.009508125
v 0.21909551 0.22608912 -0.008334231
v 0.06520935 0.241455 -0.008334231
v 0.06658466 0.2180403 -0.008334231
v 0.09705358 0.21709283 -0.008609371
v 0.042614114 0.23312528 -0.008334231
v 0.051064055 0.22221617 -0.008334231
v 0.22555952 0.18843208 -0.010167876
v 0.12902397 0.12566245 -0.008334232
v 0.12450256 0.1604407 -0.01005702
v -0.1256265 0.06604554 -0.008334232
v -0.11386265 0.07524549 -0.008334232
v -0.12695552 0.09667143 -0.010539002
v 0.17350543 0.010050324 -0.008334231
v 0.04863007 0.098408125 -0.008334232
v 0.14320834 0.16381583 -0.009561938
v -0.050917655 0.20808497 -0.010983527
v -0.065667145 0.038263615 -0.0094886795
v -0.06625524 0.20545223 -0.010983527
v 0.04223087 0.091056325 -0.011728312
v 0.040191732 0.067030445 -0.01133205
v 0.13831997 0.022411225 -0.008334231
v -0.012180443 0.010273817 -0.008334231
v -0.017590566 0.022847578 -0.008334231
v 0.013406326 0.010243026 -0.008334231
v 0.00889427 0.022773465 -0.008334231
v 0.034210585 0.022702595 -0.008334231
v 0.076496415 0.010167089 -0.008334231
v 0.077800974 0.022580598 -0.008334231
v 0.03844474 0.06694939 -0.024177255
v 0.04415677 0.093424976 -0.024073062
v 0.031769272 0.08287217 -0.02344046
v 0.051821668 0.067074426 -0.024912767
v 0.06641647 0.08710366 -0.02463592
v 0.07581979 0.07042481 -0.02489139
v 0.095454134 0.080442965 -0.024641355
v 0.08875823 0.1107685 -0.025137067
v 0.058465518 0.102472775 -0.024413314
v 0.047437817 0.106968634 -0.02411878
v 0.030524317 0.13695148 -0.023285814
v 0.03272241 0.14758758 -0.022975547
v 0.0100921495 0.15580441 -0.0234303
v 0.04033535 0.15792604 -0.022808347
v 0.049409535 0.1648749 -0.022892827
v 0.033100266 0.18173806 -0.02310062
v 0.10867079 0.14538135 -0.02203299
v 0.11305382 0.16690587 -0.020963551
v 0.09580657 0.15170355 -0.02230375
v 0.13681251 0.1306138 -0.02148514
v 0.14189792 0.1530773 -0.019281512
v 0.16687207 0.116902284 -0.0204756
v 0.16336471 0.14377649 -0.018012976
v 0.18743585 0.108314276 -0.018830309
v 0.17730737 0.13852371 -0.016226336
v 0.19469808 0.12708396 -0.016034465
v 0.19689749 0.1069895 -0.01822382
v 0.19179317 0.14607522 -0.014007807
v 0.1888505 0.17553675 -0.011694741
v 0.17379127 0.16503228 -0.013777437
v 0.18428189 0.19636314 -0.011913608
v 0.17287979 0.18381406 -0.012100041
v 0.07488007 0.16760425 -0.022731518
v 0.07399534 0.18766157 -0.021878738
v 0.062283237 0.16809045 -0.022728657
v 0.09726603 0.099856846 -0.024835242
v 0.079642214 0.104902424 -0.025113696
v 0.06890494 0.1015627 -0.02458219
v 0.038223512 0.114475146 -0.023916772
v 0.03136464 0.12634407 -0.023568386
v 0.004875698 0.12247723 -0.023737114
v 0.08835844 0.16099928 -0.022565132
v 0.01760732 0.09362019 -0.023311837
v 0.10022738 0.09085294 -0.024739832
v 0.1978551 0.18428078 -0.0112642115
v 0.21169901 0.20310834 -0.011411052
v 0.19458854 0.20527695 -0.011784876
v 0.2057056 0.21318899 -0.011150206
v -0.07364923 0.30325922 -0.009483056
v -0.06546066 0.29697612 -0.009483056
v -0.05625815 0.2907324 -0.009483056
v -0.061890144 0.28476933 -0.009483056
v -0.07187737 0.29183236 -0.009483056
v -0.07958295 0.29770577 -0.009483056
v -0.10278051 0.19412498 -0.012848458
v -0.02091005 0.2169257 -0.010722603
v -0.07613946 0.07478364 -0.011727526
v -0.054394193 0.046930447 -0.010376126
v -0.13510282 0.12233537 -0.013194541
v 0.055061758 0.05723046 -0.01046966
v 0.11634336 0.033921137 -0.009838949
v 0.08383616 0.047465917 -0.009671069
v 0.051862985 0.11525718 -0.0108937025
v 0.057661235 0.13599558 -0.011413452
v 0.09594868 0.15762986 -0.011052891
v 0.06427122 0.14227912 -0.0113044055
v 0.123111606 0.1645527 -0.010785124
v 0.16423485 0.17450918 -0.010656618
v 0.2009909 0.18459293 -0.010297496
v 0.2293378 0.19523923 -0.0111391265
v 0.23519285 0.2067652 -0.010341014
v 0.038084805 0.22683576 -0.01037952
v 0.048707746 0.21656929 -0.010056029
v 0.2308425 0.21500336 -0.010341014
v 0.1849702 0.22204255 -0.010084145
v 0.21723974 0.22223704 -0.010722603
v 0.14527936 0.21638982 -0.010118721
v 0.10301441 0.21260226 -0.010031002
v 0.06788326 0.21090586 -0.010113872
v 0.02558643 0.23239711 -0.010722603
v 0.007360395 0.22942416 -0.010722603
v -0.025035078 0.046514247 -0.01202385
v -0.00014135032 0.047465917 -0.012341417
v 0.0027066132 0.0800571 -0.013218703
v -0.023987165 0.07731456 -0.012965545
v 0.012500196 0.05769974 -0.012812088
v 0.026345829 0.082983255 -0.012510776
v -0.054659527 0.07583096 -0.012136453
v 0.036579683 0.11729645 -0.012566919
v -0.037163865 0.2000701 -0.013109018
v -0.051310606 0.1991671 -0.012848458
v -0.077179655 0.19697835 -0.012848458
v -0.124151245 0.19314729 -0.012848458
v -0.1452209 0.18562226 -0.013371899
v -0.15575552 0.1759906 -0.013371899
v -0.15572584 0.15249112 -0.013104168
v -0.09732468 0.073911525 -0.010818808
v -0.11680102 0.09795209 -0.011926171
v -0.12061655 0.12373912 -0.013371899
v -0.14166026 0.15402178 -0.013371899
v -0.12369193 0.15729119 -0.013371899
v -0.10257021 0.16045253 -0.013371899
v -0.07925545 0.16375287 -0.010479827
v -0.05227297 0.16828765 -0.011511922
v 0.008862379 0.17802958 -0.012233358
v -0.020789338 0.17319871 -0.011921957
v 0.04500753 0.18261248 -0.011757913
v -0.09948133 0.100215994 -0.011320579
v -0.10100943 0.12624608 -0.012311011
v -0.07868299 0.10275956 -0.011520089
v -0.079303175 0.12933622 -0.011374585
v -0.0543583 0.105827354 -0.012400887
v -0.05410667 0.1327276 -0.012109938
v -0.022295138 0.10966253 -0.013245425
v -0.021271786 0.13762666 -0.012461613
v 0.006683343 0.11369981 -0.013197834
v 0.0076220357 0.14288184 -0.012636748
v 0.042599764 0.14769696 -0.011969501
v 0.2206817 0.21404865 -0.0109273875
v 0.18988943 0.21038917 -0.011129639
v 0.19564086 0.19719836 -0.011210059
v 0.2252152 0.20426948 -0.01114289
v 0.06783899 0.1638646 -0.011674881
v 0.06854143 0.1938036 -0.011278576
v 0.15946351 0.1892566 -0.01132031
v 0.11705517 0.18122543 -0.01132031
v 0.15299682 0.20543428 -0.011148793
v 0.1093801 0.20067775 -0.01120431
v 0.09303562 0.17573366 -0.01132031
v 0.08545806 0.19858609 -0.011203824
v -0.17009792 0.36106643 -0.009829168
v -0.17714766 0.3871236 -0.010777429
v -0.21964447 0.36633682 -0.009257104
v -0.18854968 0.35459965 -0.009246076
v -0.25323877 0.34024778 -0.009257104
v -0.2395593 0.32103354 -0.009257104
v -0.223559 0.33552292 -0.009206869
v -0.27228996 0.31060013 -0.009257104
v -0.24823146 0.30654556 -0.009257104
v -0.14759828 0.3988569 -0.0122014815
v -0.15133515 0.36522672 -0.01050768
v -0.12809303 0.36830148 -0.0121708615
v -0.121632315 0.3983611 -0.014470276
v -0.12907878 0.42303562 -0.013874464
v -0.12674747 0.38028118 -0.013156329
v -0.05275337 0.38687563 -0.016210204
v -0.082570925 0.404798 -0.016400471
v -0.08162149 0.38427138 -0.01621204
v -0.050175745 0.42882523 -0.016210204
v -0.06585284 0.45483327 -0.016210204
v -0.28062886 0.26125768 -0.009483892
v -0.25759012 0.25394228 -0.009257104
v -0.2574923 0.2749184 -0.009257104
v -0.25482008 0.23506103 -0.009257104
v -0.27229413 0.21002221 -0.009389964
v -0.20437646 0.10991102 -0.010205028
v -0.15672712 0.07223274 -0.0105943
v -0.17806485 0.12118852 -0.011026059
v -0.20119698 0.13391133 -0.011059006
v -0.2429473 0.14122364 -0.009991871
v -0.23653972 0.17577997 -0.01027052
v -0.25889975 0.16780855 -0.009646254
v -0.07678504 0.43064758 -0.016210204
v -0.0761824 0.3630861 -0.015971264
v -0.069268525 0.3492974 -0.015682753
v -0.055883814 0.33426252 -0.0151525615
v -0.25365627 0.28774562 -0.009257104
v -0.21336913 0.1443896 -0.010800651
v -0.20826583 0.3438372 -0.0091299135
v -0.16137294 0.115614 -0.0108588105
v -0.01687011 0.22187865 -0.012520807
v 0.005706256 0.21897827 -0.012773466
v 0.006447316 0.27532986 -0.01382404
v -0.02079318 0.26053306 -0.013128496
v -0.019975133 0.20072232 -0.012960935
v -0.006923895 0.19221921 -0.012892968
v -0.030873088 0.17750287 -0.013160216
v -0.012274037 0.33398372 -0.015131014
v -0.031978145 0.30161065 -0.01399898
v -0.1021071 0.422278 -0.01558241
v -0.08683188 0.43671176 -0.015678585
v -0.10174086 0.4555307 -0.016210204
v -0.14450993 0.08836031 -0.010568616
v -0.13457255 0.06522819 -0.010563745
v -0.1322544 0.08076509 -0.010458849
v -0.15120277 0.09917714 -0.010676856
v -0.25061142 0.21295424 -0.009692805
v -0.22481166 0.15797967 -0.010593957
v -0.07868983 0.43655944 -0.016210204
v -0.11114886 0.066274814 -0.010767849
v -0.115157045 0.07966787 -0.0127846245
v 0.23961489 0.208389 -0.011061153
v 0.24278612 0.22343698 -0.009708126
v 0.22730875 0.22673583 -0.01042524
v 0.26430684 0.15794894 -0.014592293
v 0.26037124 0.19700335 -0.011662866
v 0.24493201 0.16606098 -0.015459955
v 0.27096996 0.09433035 -0.017860353
v 0.24832134 0.12848112 -0.018705547
v 0.24995847 0.09956363 -0.019362105
v 0.24934593 0.07542993 -0.020125056
v 0.27017277 0.06365263 -0.019016065
v 0.24556951 0.0601088 -0.020523658
v 0.25924507 0.032002278 -0.019363526
v 0.23547733 0.04635972 -0.020636518
v 0.23038791 0.008489316 -0.020509068
v 0.21646881 0.03100212 -0.020769892
v 0.19439967 0.016309272 -0.021541005
v 0.1670903 0.0031064476 -0.021734113
v 0.18819985 -0.011393777 -0.020918129
v 0.14001122 -0.0040984177 -0.021617046
v 0.151836 -0.024618236 -0.020050395
v 0.113941096 -0.006641467 -0.02142485
v 0.11856734 -0.033067312 -0.01937967
v 0.086766295 -0.016414775 -0.019201836
v 0.08780194 -0.040096167 -0.018801732
v 0.036783528 -0.030859241 -0.017894993
v 0.034900915 -0.051528912 -0.017732305
v 0.056767594 -0.02712749 -0.018043606
v 0.04705858 -0.030474333 -0.017914332
v 0.01054795 -0.017017892 -0.0179992
v 0.0040994193 -0.00749567 -0.018207988
v -0.01680879 -0.018944839 -0.018430294
v 0.008109242 0.02095232 -0.019550962
v 0.0152227385 0.027122332 -0.020180343
v -0.022807442 0.00987377 -0.018773915
v -0.017845226 0.039033744 -0.020856045
v -0.023963703 0.048665248 -0.021303026
v -0.03453469 0.027745336 -0.020512922
v 0.0015888347 0.027254587 -0.020363312
v -0.007984834 0.03028127 -0.020413551
v 0.072583675 -0.023482312 -0.018485459
v 0.020583507 -0.02634604 -0.017934931
v 0.002032574 0.0033426478 -0.018479498
v 0.0044181137 0.014759555 -0.019039415
v -0.009091346 0.116209246 -0.023627995
v -0.0027488645 0.09644913 -0.02320835
v -0.031534117 0.101682365 -0.023224529
v -0.013377637 0.09137177 -0.022798533
v -0.021448506 0.084149644 -0.0224003
v -0.02635446 0.069666974 -0.021929568
v -0.04667837 0.06492279 -0.02209741
v -0.026257167 0.058123063 -0.021673921
v 0.22878079 0.21342884 -0.012188866
v 0.21531475 0.22053412 -0.01097939
v 0.2520561 0.21245721 -0.010791239
v -0.13369128 0.086972825 -0.012953959
v -0.23032251 0.31437662 -0.012076967
v -0.21140265 0.33088702 -0.012371904
v -0.097559795 0.42037556 -0.016808826
v -0.099972956 0.31953976 -0.018464854
v -0.088948786 0.3294568 -0.017508779
v -0.092870496 0.33960003 -0.017090356
v -0.0918534 0.41632438 -0.017585155
v -0.115073256 0.39704043 -0.01708473
v -0.10760441 0.39564535 -0.01852547
v -0.1223202 0.37430358 -0.01747539
v -0.1156288 0.36932343 -0.018864846
v -0.123527996 0.3363092 -0.017863473
v -0.112315595 0.33132562 -0.018760188
v -0.12839127 0.35895202 -0.014753831
v -0.1259624 0.3174244 -0.018874964
v -0.12876567 0.3445585 -0.016190616
v -0.13388224 0.3258017 -0.018019093
v -0.08624714 0.4100503 -0.016784186
v -0.09544601 0.38956124 -0.017043514
v -0.09544601 0.36622605 -0.017231787
v -0.11512419 0.31018782 -0.019015474
v -0.075778626 0.34191626 -0.016563555
v -0.21908517 0.3004819 -0.014926461
v -0.18805806 0.34260568 -0.012988465
v -0.11616742 0.09311934 -0.014373663
v -0.14929323 0.28618917 -0.019740993
v -0.042728405 0.15917127 -0.012849529
v -0.042994455 0.17987712 -0.016669953
v -0.07922295 0.19568257 -0.01806963
v -0.07226629 0.18285334 -0.017510552
v -0.06854224 0.21949212 -0.018543348
v -0.1631961 0.13283959 -0.015471339
v -0.13986139 0.10871793 -0.013732418
v -0.14194036 0.13916586 -0.017316708
v -0.16679554 0.12386296 -0.013447843
v -0.123312466 0.11860337 -0.015349287
v -0.1021222 0.10347513 -0.015021339
v -0.084824905 0.124545574 -0.015728977
v -0.10125182 0.14194576 -0.017303867
v -0.10738074 0.12861405 -0.016606051
v -0.08819747 0.104788326 -0.012595425
v -0.075274855 0.120814085 -0.01250414
v -0.08954951 0.17058383 -0.017591724
v -0.062215436 0.13459499 -0.012626424
v -0.06974103 0.14159654 -0.016040538
v -0.0991968 0.090779774 -0.012769172
v -0.058353335 0.15719558 -0.016364072
v -0.06031316 0.32623073 -0.01744322
v -0.15090491 0.35570902 -0.013740233
v -0.19051197 0.3136172 -0.016685879
v -0.08276946 0.31175482 -0.018719489
v -0.04016443 0.29422298 -0.017454972
v -0.070976384 0.28155446 -0.018933544
v -0.1384977 0.25649336 -0.020204488
v -0.10058712 0.2707929 -0.019403085
v -0.112515785 0.3007225 -0.01946554
v -0.18721084 0.27494276 -0.018414149
v -0.17764094 0.24008392 -0.019192731
v -0.220583 0.26388714 -0.01606598
v -0.21495096 0.22718163 -0.016220516
v -0.24146359 0.21753271 -0.012028563
v -0.24822064 0.25671515 -0.011964442
v -0.030525541 0.25543165 -0.017187435
v -0.029351605 0.22203243 -0.017163584
v -0.054459967 0.19779985 -0.017598731
v -0.060223915 0.24243002 -0.019236505
v -0.09743523 0.18409002 -0.02037789
v -0.11879398 0.17187044 -0.020366296
v -0.10875336 0.15579294 -0.019497141
v -0.17682675 0.1530633 -0.016177962
v -0.2056485 0.14908892 -0.013067952
v -0.1844338 0.13616046 -0.013312933
v -0.124536596 0.216705 -0.02044273
v -0.08739111 0.23148882 -0.019861987
v -0.16261874 0.20251493 -0.019316724
v -0.19812658 0.18747364 -0.01633112
v -0.22957909 0.17874648 -0.012480306
v -0.24453552 0.29052088 -0.011826754
v -0.15502341 0.32337233 -0.017473435
v -0.14933762 0.16175257 -0.018609652
v -0.12940495 0.14435458 -0.01845499
v -0.1374995 0.16391174 -0.019464504
v -0.033529244 0.19958949 -0.016888728
v -0.08178585 0.20943046 -0.02020298
v 0.06672241 0.16633536 -0.024281537
v 0.08776642 0.06829422 -0.027374346
v 0.10769912 0.083194606 -0.02696881
v 0.050006557 0.16238753 -0.024327597
v 0.03656236 0.14699218 -0.024397358
v 0.03524488 0.1310113 -0.02500707
v 0.037020292 0.12059834 -0.025249569
v 0.08380209 0.16026129 -0.024322664
v 0.08959999 0.15309946 -0.023997582
v 0.079085015 0.14439528 -0.026750911
v 0.07148283 0.1304624 -0.027612811
v 0.077882424 0.12639962 -0.027551854
v 0.06947636 0.11825087 -0.027261926
v 0.07961477 0.109037496 -0.025957296
v 0.08158824 0.117176525 -0.026854074
v 0.06428332 0.15534341 -0.026216133
v 0.053794455 0.13855423 -0.027266646
v 0.051479377 0.12267347 -0.026725966
v 0.06879645 0.10549476 -0.026237458
v 0.05120687 0.10917585 -0.025658166
v 0.014404483 0.091177076 -0.024594754
v -0.02325712 0.053828567 -0.02293749
v -0.0239634 0.06673985 -0.023402205
v -0.0036974952 0.09264941 -0.02430062
v -0.018331775 0.0826214 -0.023849964
v 0.13606182 0.087783866 -0.028007353
v 0.08355384 0.12209248 -0.027229682
v 0.09598177 0.13456158 -0.02674239
v 0.106014766 0.14291945 -0.023641964
v 0.17265102 0.09696544 -0.02455324
v 0.18819155 0.10103675 -0.021350432
v 0.16509463 0.11104538 -0.022737253
v 0.10598456 0.10377796 -0.026987432
v 0.12848955 0.108638875 -0.026994396
v 0.13239464 0.1286873 -0.023264652
v 0.113964394 0.12167149 -0.026466483
v 0.09585178 0.112752795 -0.026907867
v 0.23954502 0.08163297 -0.021344237
v 0.23239191 0.06975677 -0.021910926
v 0.22050051 0.101940684 -0.021699682
v 0.20776354 0.08766001 -0.022775928
v 0.20265889 0.1041163 -0.020503512
v 0.24034221 0.12815337 -0.019968076
v 0.24049623 0.10071661 -0.02066571
v 0.21902744 0.12787561 -0.019965729
v 0.20126377 0.12726368 -0.018336242
v 0.23676038 0.16220447 -0.017472183
v 0.21775866 0.15636021 -0.018254232
v 0.19930796 0.14936177 -0.01673911
v 0.23110281 0.19852312 -0.01416491
v 0.21472883 0.17973427 -0.016072499
v 0.19815715 0.1770213 -0.013905696
v 0.16214918 0.01546019 -0.024494562
v 0.11281686 0.009912391 -0.025912493
v 0.11347516 0.0014441888 -0.024072686
v 0.14844762 0.048317652 -0.027701441
v 0.11134652 0.037259765 -0.028426005
v 0.0982509 0.06081251 -0.02914739
v 0.0070723356 0.048129447 -0.028095437
v 0.0062098023 0.036664557 -0.023542872
v 0.043485772 0.031225367 -0.027949542
v 0.07424196 0.05442625 -0.029336572
v 0.050771154 0.04947067 -0.029291002
v 0.07602986 0.041958194 -0.029088316
v 0.032311823 0.0663713 -0.02570518
v 0.021428091 0.06250434 -0.028382568
v 0.05138656 0.061161935 -0.02687276
v 0.072884806 0.06345834 -0.027138114
v 0.009971535 0.002030067 -0.020653868
v 0.012782504 0.020807246 -0.020990817
v 0.07100563 0.021574063 -0.027463794
v 0.04179078 0.025422072 -0.02556085
v -0.0104762465 0.03566917 -0.022669537
v -0.019639188 0.04472649 -0.022720754
v 0.09006824 0.0017207031 -0.023068665
v 0.07887008 -0.003421311 -0.022547811
v 0.08428276 -0.01204069 -0.020973781
v 0.07063081 -0.018189473 -0.020870326
v 0.03776527 -0.02225977 -0.021042056
v 0.021587046 -0.018033257 -0.02086415
v 0.03971112 0.019427506 -0.022992283
v 0.03946217 0.015085361 -0.023408359
v 0.06619539 0.0100828735 -0.02386638
v 0.03860939 0.00022830842 -0.023412874
v 0.057478 -0.001359825 -0.023307217
v 0.054799806 -0.021061148 -0.020948935
v 0.026282692 0.082837254 -0.024843143
v 0.013290951 0.08066296 -0.027125642
v -0.012866828 0.055031028 -0.02653887
v 0.0004928556 0.07262319 -0.02735352
v -0.013171379 0.045514617 -0.025510997
v 0.00359135 0.030002777 -0.02189204
v 0.09137446 0.007058309 -0.025045816
v 0.093449935 0.014882497 -0.026664237
v 0.19063295 0.068254344 -0.02524783
v 0.18921869 0.027280703 -0.023805246
v 0.22607784 0.056855835 -0.021944119
v 0.21169023 0.041632738 -0.022678664
v 0.068312004 0.015159011 -0.025557859
v -0.35861048 0.05457551 -0.0274032
v -0.35861048 0.00854438 -0.0274032
v -0.31536692 0.00854438 -0.0274032
v -0.3153669 0.05457547 -0.0274032
v -0.35861048 0.14663778 -0.0274032
v -0.35861048 0.10060664 -0.0274032
v -0.31536692 0.10060664 -0.0274032
v -0.31536692 0.14663778 -0.0274032
v -0.14239277 0.14663778 -0.0274032
v -0.18563631 0.14663778 -0.0274032
v -0.18563631 0.10060664 -0.0274032
v -0.14239277 0.10060664 -0.0274032
v -0.14239277 0.00854438 -0.0274032
v -0.14239277 0.05457551 -0.0274032
v -0.18563631 0.05457551 -0.0274032
v -0.18563631 0.00854438 -0.0274032
v -0.2721234 0.10060664 -0.0274032
v -0.22887984 0.10060664 -0.0274032
v -0.22887984 0.14663778 -0.0274032
v -0.2721234 0.14663778 -0.0274032
v -0.2721234 0.05457551 -0.0274032
v -0.22887984 0.05457551 -0.0274032
v -0.2721234 0.00854438 -0.0274032
v -0.22887984 0.00854438 -0.0274032
v -0.09914922 0.10060664 -0.0274032
v -0.055905666 0.10060664 -0.0274032
v -0.055905666 0.14663778 -0.0274032
v -0.09914922 0.14663778 -0.0274032
v -0.055905666 0.05457551 -0.0274032
v -0.09914922 0.05457551 -0.0274032
v -0.09914922 0.00854438 -0.0274032
v -0.055905666 0.00854438 -0.0274032
v -0.09914922 -0.037486754 -0.0274032
v -0.055905666 -0.037486754 -0.0274032
v -0.18563631 -0.037486754 -0.0274032
v -0.14239277 -0.037486754 -0.0274032
v -0.2721234 -0.037486754 -0.0274032
v -0.22887984 -0.037486754 -0.0274032
v -0.35861048 -0.037486754 -0.0274032
v -0.31536692 -0.037486754 -0.0274032
v -0.012662122 0.10060664 -0.0274032
v -0.012662122 0.14663778 -0.0274032
v -0.012662122 0.05457551 -0.0274032
v -0.012662122 0.00854438 -0.0274032
v -0.012662122 -0.037486754 -0.0274032
vt 0.4248047 0.95996094
vt 0.4411621 0.93652344
vt 0.4296875 0.9375
vt 0.4230957 0.9448242
vt 0.4169922 0.94921875
vt 0.40722656 0.95996094
vt 0.4362793 0.91748047
vt 0.42749023 0.92871094
vt 0.37426758 0.9375
vt 0.38989258 0.9296875
vt 0.3798828 0.92529297
vt 0.37426758 0.9067383
vt 0.38623047 0.91748047
vt 0.39208984 0.91259766
vt 0.39697266 0.9116211
vt 0.40576172 0.89697266
vt 0.40307617 0.9121094
vt 0.4152832 0.9169922
vt 0.40942383 0.9428711
vt 0.4008789 0.9370117
vt 0.3486328 0.85595703
vt 0.3161621 0.86376953
vt 0.3017578 0.89208984
vt 0.3786621 0.8725586
vt 0.29858398 0.8671875
vt 0.4345703 0.8251953
vt 0.41870117 0.8305664
vt 0.41235352 0.86328125
vt 0.45581055 0.8496094
vt 0.37280273 0.8310547
vt 0.36157227 0.84521484
vt 0.50634766 0.84033203
vt 0.49291992 0.82177734
vt 0.46484375 0.82666016
vt 0.5366211 0.77246094
vt 0.51416016 0.7675781
vt 0.51904297 0.78271484
vt 0.5317383 0.82128906
vt 0.5175781 0.7973633
vt 0.5078125 0.8125
vt 0.50878906 0.72021484
vt 0.49291992 0.734375
vt 0.43359375 0.63623047
vt 0.4086914 0.6489258
vt 0.43017578 0.65478516
vt 0.4453125 0.66308594
vt 0.43847656 0.625
vt 0.41308594 0.6220703
vt 0.40356445 0.63134766
vt 0.24621582 0.6958008
vt 0.25854492 0.6689453
vt 0.23120117 0.65966797
vt 0.11669922 0.62158203
vt 0.1373291 0.6513672
vt 0.17260742 0.6328125
vt 0.14050293 0.62109375
vt 0.4284668 0.60791016
vt 0.37426758 0.6074219
vt 0.37890625 0.62158203
vt 0.27905273 0.6748047
vt 0.18139648 0.67089844
vt 0.19714355 0.6464844
vt 0.25878906 0.7480469
vt 0.26660156 0.72558594
vt 0.032409668 0.82910156
vt 0.057647705 0.83154297
vt 0.05911255 0.8183594
vt 0.22094727 0.76660156
vt 0.12976074 0.8730469
vt 0.20483398 0.8676758
vt 0.16967773 0.8457031
vt 0.12133789 0.85253906
vt 0.057281494 0.77978516
vt 0.09954834 0.7998047
vt 0.14135742 0.78564453
vt 0.059692383 0.875
vt 0.064453125 0.8442383
vt 0.08166504 0.8520508
vt 0.2565918 0.8696289
vt 0.2548828 0.8432617
vt 0.22033691 0.84228516
vt 0.28222656 0.86035156
vt 0.27246094 0.84765625
vt 0.074279785 0.8095703
vt 0.18395996 0.73828125
vt 0.18908691 0.77783203
vt 0.47338867 0.67089844
vt 0.45996094 0.68115234
vt 0.47485352 0.7055664
vt 0.13342285 0.6074219
vt 0.27539062 0.70751953
vt 0.16784668 0.7817383
vt 0.38842773 0.83203125
vt 0.40527344 0.63916016
vt 0.40576172 0.82910156
vt 0.28271484 0.69921875
vt 0.2849121 0.671875
vt 0.17346191 0.62109375
vt 0.34448242 0.6074219
vt 0.35058594 0.62158203
vt 0.3154297 0.6074219
vt 0.32055664 0.62158203
vt 0.29174805 0.62158203
vt 0.24365234 0.6074219
vt 0.2421875 0.62158203
vt 0.36157227 0.2927246
vt 0.3552246 0.3227539
vt 0.36938477 0.31079102
vt 0.34643555 0.2927246
vt 0.32983398 0.31567383
vt 0.3190918 0.29663086
vt 0.29663086 0.30810547
vt 0.30419922 0.34277344
vt 0.3388672 0.33325195
vt 0.35131836 0.3383789
vt 0.37060547 0.3725586
vt 0.36816406 0.38476562
vt 0.39404297 0.39404297
vt 0.359375 0.39648438
vt 0.3491211 0.40454102
vt 0.36767578 0.42358398
vt 0.28149414 0.38208008
vt 0.27661133 0.40673828
vt 0.29614258 0.3894043
vt 0.24951172 0.36523438
vt 0.24365234 0.39086914
vt 0.21520996 0.34960938
vt 0.21923828 0.3803711
vt 0.19177246 0.33984375
vt 0.20324707 0.37426758
vt 0.18347168 0.36132812
vt 0.1809082 0.3383789
vt 0.18676758 0.38305664
vt 0.19006348 0.4165039
vt 0.20837402 0.4033203
vt 0.18383789 0.43847656
vt 0.21166992 0.42578125
vt 0.32006836 0.4074707
vt 0.32104492 0.43041992
vt 0.33447266 0.40820312
vt 0.29467773 0.33007812
vt 0.31469727 0.3359375
vt 0.3269043 0.33203125
vt 0.3618164 0.34692383
vt 0.3696289 0.36035156
vt 0.3996582 0.35620117
vt 0.3046875 0.39990234
vt 0.38549805 0.32299805
vt 0.29125977 0.31982422
vt 0.17980957 0.42651367
vt 0.16394043 0.44799805
vt 0.17687988 0.44677734
vt 0.16784668 0.45751953
vt 0.41430664 0.93896484
vt 0.40551758 0.9326172
vt 0.39501953 0.92529297
vt 0.4013672 0.91845703
vt 0.41259766 0.92578125
vt 0.42114258 0.93310547
vt 0.44726562 0.81591797
vt 0.35424805 0.8417969
vt 0.4169922 0.68066406
vt 0.39233398 0.6489258
vt 0.48413086 0.734375
vt 0.2680664 0.66064453
vt 0.19836426 0.63427734
vt 0.23535156 0.64990234
vt 0.27172852 0.7265625
vt 0.26513672 0.75
vt 0.22155762 0.77441406
vt 0.25756836 0.7573242
vt 0.19067383 0.78271484
vt 0.1439209 0.7939453
vt 0.10223389 0.8051758
vt 0.070007324 0.8173828
vt 0.06335449 0.8305664
vt 0.28735352 0.85302734
vt 0.27514648 0.8413086
vt 0.06829834 0.83984375
vt 0.12042236 0.84765625
vt 0.083740234 0.84814453
vt 0.16552734 0.8413086
vt 0.21350098 0.83691406
vt 0.25341797 0.83496094
vt 0.30151367 0.859375
vt 0.32226562 0.85595703
vt 0.35913086 0.6484375
vt 0.33081055 0.64990234
vt 0.32739258 0.68652344
vt 0.35791016 0.68359375
vt 0.31640625 0.6611328
vt 0.3005371 0.6899414
vt 0.39257812 0.6816406
vt 0.2890625 0.7290039
vt 0.37280273 0.8227539
vt 0.38891602 0.82177734
vt 0.4182129 0.81933594
vt 0.4716797 0.8149414
vt 0.49560547 0.80615234
vt 0.5073242 0.79541016
vt 0.5073242 0.76904297
vt 0.4411621 0.6796875
vt 0.4633789 0.70703125
vt 0.4675293 0.7363281
vt 0.49145508 0.7705078
vt 0.4711914 0.77441406
vt 0.44702148 0.77783203
vt 0.4206543 0.7817383
vt 0.38989258 0.7866211
vt 0.32055664 0.79785156
vt 0.35424805 0.79248047
vt 0.27954102 0.8027344
vt 0.44360352 0.70947266
vt 0.4453125 0.7392578
vt 0.41992188 0.71240234
vt 0.4206543 0.7426758
vt 0.39233398 0.7158203
vt 0.39208984 0.74658203
vt 0.35595703 0.72021484
vt 0.35473633 0.7519531
vt 0.32299805 0.7246094
vt 0.32202148 0.7578125
vt 0.28222656 0.7631836
vt 0.079833984 0.8388672
vt 0.11480713 0.83447266
vt 0.10827637 0.81933594
vt 0.07470703 0.8276367
vt 0.25341797 0.7817383
vt 0.25268555 0.8154297
vt 0.14941406 0.8105469
vt 0.19763184 0.80126953
vt 0.15673828 0.82910156
vt 0.20629883 0.8232422
vt 0.22485352 0.79541016
vt 0.23352051 0.82128906
vt 0.7753906 0.7192383
vt 0.7832031 0.7529297
vt 0.83203125 0.7294922
vt 0.7963867 0.70996094
vt 0.87060547 0.69970703
vt 0.85498047 0.6689453
vt 0.8364258 0.68652344
vt 0.89208984 0.6660156
vt 0.8647461 0.6591797
vt 0.7495117 0.76660156
vt 0.75390625 0.72509766
vt 0.72753906 0.7290039
vt 0.71972656 0.7661133
vt 0.7285156 0.7939453
vt 0.72558594 0.74560547
vt 0.6411133 0.7529297
vt 0.67529297 0.7734375
vt 0.6743164 0.75
vt 0.6381836 0.80078125
vt 0.65625 0.8305664
vt 0.90185547 0.6098633
vt 0.8754883 0.6010742
vt 0.8754883 0.625
vt 0.8720703 0.57958984
vt 0.89208984 0.55126953
vt 0.8144531 0.43725586
vt 0.7602539 0.39404297
vt 0.78466797 0.44995117
vt 0.81103516 0.46435547
vt 0.85839844 0.4729004
vt 0.8515625 0.51220703
vt 0.87646484 0.50341797
vt 0.66845703 0.8027344
vt 0.66796875 0.72558594
vt 0.66015625 0.70996094
vt 0.64501953 0.6928711
vt 0.87109375 0.63916016
vt 0.82470703 0.47631836
vt 0.81884766 0.6977539
vt 0.765625 0.44360352
vt 0.6010742 0.5649414
vt 0.57470703 0.56152344
vt 0.57373047 0.6254883
vt 0.6044922 0.6088867
vt 0.6044922 0.54052734
vt 0.5888672 0.5307617
vt 0.6166992 0.51416016
vt 0.59521484 0.6923828
vt 0.6191406 0.6557617
vt 0.6977539 0.79345703
vt 0.6801758 0.8095703
vt 0.6972656 0.8310547
vt 0.74609375 0.41235352
vt 0.7348633 0.38623047
vt 0.7324219 0.4038086
vt 0.75390625 0.4248047
vt 0.8676758 0.5546875
vt 0.8378906 0.49194336
vt 0.67089844 0.8095703
vt 0.7104492 0.3869629
vt 0.7128906 0.4025879
vt 0.13110352 0.45410156
vt 0.12805176 0.47729492
vt 0.14831543 0.4729004
vt 0.10406494 0.39648438
vt 0.10858154 0.4411621
vt 0.12487793 0.40576172
vt 0.09643555 0.3239746
vt 0.121276855 0.36279297
vt 0.12042236 0.32983398
vt 0.121154785 0.3022461
vt 0.097473145 0.28881836
vt 0.12548828 0.2849121
vt 0.10998535 0.2529297
vt 0.13696289 0.26904297
vt 0.14282227 0.22595215
vt 0.1586914 0.25170898
vt 0.18383789 0.23474121
vt 0.21496582 0.21972656
vt 0.19091797 0.20324707
vt 0.24584961 0.21142578
vt 0.2322998 0.18811035
vt 0.27563477 0.2084961
vt 0.27026367 0.1784668
vt 0.30664062 0.1973877
vt 0.30541992 0.17041016
vt 0.3635254 0.1809082
vt 0.36572266 0.15734863
vt 0.3408203 0.18518066
vt 0.35180664 0.18127441
vt 0.3935547 0.19665527
vt 0.4008789 0.20751953
vt 0.42456055 0.19445801
vt 0.39624023 0.2401123
vt 0.3881836 0.24707031
vt 0.43139648 0.22741699
vt 0.42578125 0.2607422
vt 0.43286133 0.27172852
vt 0.44482422 0.24780273
vt 0.40356445 0.24731445
vt 0.4140625 0.2512207
vt 0.3227539 0.18933105
vt 0.38208008 0.18603516
vt 0.40307617 0.2199707
vt 0.40039062 0.23303223
vt 0.41577148 0.34887695
vt 0.4086914 0.32617188
vt 0.44140625 0.3322754
vt 0.4206543 0.32055664
vt 0.42993164 0.31225586
vt 0.43554688 0.2956543
vt 0.45874023 0.2902832
vt 0.43554688 0.2824707
vt 0.14453125 0.45996094
vt 0.1583252 0.46484375
vt 0.11804199 0.45874023
vt 0.7338867 0.41088867
vt 0.8442383 0.67041016
vt 0.8227539 0.68896484
vt 0.6923828 0.7910156
vt 0.6953125 0.67626953
vt 0.6826172 0.6875
vt 0.6870117 0.69921875
vt 0.68603516 0.7866211
vt 0.71240234 0.76464844
vt 0.70410156 0.7626953
vt 0.7207031 0.73876953
vt 0.7128906 0.73291016
vt 0.72216797 0.6953125
vt 0.70947266 0.6894531
vt 0.72753906 0.7211914
vt 0.72509766 0.6738281
vt 0.72802734 0.70458984
vt 0.7338867 0.68310547
vt 0.6796875 0.7792969
vt 0.6899414 0.7558594
vt 0.6899414 0.7294922
vt 0.71240234 0.66552734
vt 0.66748047 0.70166016
vt 0.83154297 0.6542969
vt 0.79589844 0.7026367
vt 0.7138672 0.4177246
vt 0.75146484 0.6381836
vt 0.6303711 0.49389648
vt 0.6298828 0.51660156
vt 0.6713867 0.53466797
vt 0.6635742 0.52001953
vt 0.6591797 0.5620117
vt 0.7675781 0.46313477
vt 0.74072266 0.43554688
vt 0.74316406 0.47045898
vt 0.7714844 0.45288086
vt 0.7216797 0.4465332
vt 0.6977539 0.4296875
vt 0.6777344 0.45361328
vt 0.69677734 0.47387695
vt 0.7036133 0.4567871
vt 0.6816406 0.42944336
vt 0.6669922 0.44750977
vt 0.68359375 0.5073242
vt 0.65234375 0.4645996
vt 0.66064453 0.47314453
vt 0.69433594 0.4140625
vt 0.64746094 0.4909668
vt 0.64990234 0.68359375
vt 0.75341797 0.71728516
vt 0.7988281 0.6694336
vt 0.67578125 0.6669922
vt 0.6269531 0.64746094
vt 0.6621094 0.6328125
vt 0.7392578 0.6040039
vt 0.6958008 0.62060547
vt 0.70947266 0.65478516
vt 0.7949219 0.6254883
vt 0.7841797 0.5854492
vt 0.8330078 0.61279297
vt 0.82666016 0.5708008
vt 0.8569336 0.5595703
vt 0.8647461 0.6044922
vt 0.61572266 0.60302734
vt 0.6142578 0.5649414
vt 0.6430664 0.5371094
vt 0.64990234 0.5883789
vt 0.6923828 0.5214844
vt 0.7167969 0.5078125
vt 0.7050781 0.4892578
vt 0.7832031 0.48632812
vt 0.81591797 0.48168945
vt 0.7919922 0.46704102
vt 0.72314453 0.55859375
vt 0.68066406 0.5756836
vt 0.76708984 0.54248047
vt 0.8076172 0.5253906
vt 0.8432617 0.515625
vt 0.86035156 0.6430664
vt 0.7583008 0.68066406
vt 0.75146484 0.49609375
vt 0.7290039 0.47631836
vt 0.73828125 0.49853516
vt 0.6191406 0.5390625
vt 0.6743164 0.55029297
vt 0.3293457 0.40600586
vt 0.30541992 0.29418945
vt 0.28271484 0.3112793
vt 0.34838867 0.40161133
vt 0.36376953 0.3840332
vt 0.36523438 0.36572266
vt 0.36328125 0.35375977
vt 0.30981445 0.39916992
vt 0.30322266 0.39086914
vt 0.31518555 0.38110352
vt 0.3239746 0.36523438
vt 0.3166504 0.3605957
vt 0.32617188 0.35131836
vt 0.31469727 0.34057617
vt 0.3125 0.34985352
vt 0.3322754 0.3935547
vt 0.34423828 0.37451172
vt 0.3466797 0.35620117
vt 0.32714844 0.33666992
vt 0.34716797 0.3408203
vt 0.38916016 0.3203125
vt 0.43188477 0.2775879
vt 0.4326172 0.29223633
vt 0.40966797 0.32177734
vt 0.42626953 0.31054688
vt 0.25024414 0.31640625
vt 0.31030273 0.35546875
vt 0.29614258 0.36987305
vt 0.28466797 0.37939453
vt 0.20861816 0.3269043
vt 0.19091797 0.33154297
vt 0.21716309 0.34301758
vt 0.28466797 0.3347168
vt 0.2590332 0.34033203
vt 0.25439453 0.3630371
vt 0.27563477 0.3552246
vt 0.29614258 0.3449707
vt 0.13232422 0.30932617
vt 0.14050293 0.29589844
vt 0.15405273 0.33251953
vt 0.1685791 0.3161621
vt 0.1743164 0.33496094
vt 0.13134766 0.36254883
vt 0.13122559 0.33129883
vt 0.15563965 0.3623047
vt 0.17590332 0.36157227
vt 0.13549805 0.4013672
vt 0.15710449 0.3947754
vt 0.17810059 0.38671875
vt 0.1418457 0.4428711
vt 0.16052246 0.42138672
vt 0.17944336 0.4182129
vt 0.22058105 0.23388672
vt 0.27685547 0.22790527
vt 0.27612305 0.21826172
vt 0.23620605 0.27124023
vt 0.27856445 0.25878906
vt 0.29345703 0.28564453
vt 0.39746094 0.2709961
vt 0.3984375 0.25805664
vt 0.35595703 0.25195312
vt 0.32080078 0.2783203
vt 0.34765625 0.27270508
vt 0.31884766 0.26416016
vt 0.36865234 0.2919922
vt 0.38110352 0.28759766
vt 0.34692383 0.2861328
vt 0.32250977 0.28881836
vt 0.39404297 0.21850586
vt 0.39086914 0.23986816
vt 0.3244629 0.24084473
vt 0.35791016 0.24523926
vt 0.41723633 0.25708008
vt 0.42773438 0.26733398
vt 0.30273438 0.21813965
vt 0.3154297 0.21228027
vt 0.30932617 0.20227051
vt 0.32495117 0.19543457
vt 0.3623047 0.1907959
vt 0.38061523 0.19567871
vt 0.36010742 0.23828125
vt 0.3605957 0.23339844
vt 0.33007812 0.22766113
vt 0.36157227 0.21643066
vt 0.33984375 0.21459961
vt 0.34301758 0.19213867
vt 0.37548828 0.31054688
vt 0.39038086 0.30810547
vt 0.42016602 0.27905273
vt 0.4050293 0.29907227
vt 0.42041016 0.2680664
vt 0.4013672 0.25073242
vt 0.30126953 0.22460938
vt 0.29907227 0.23339844
vt 0.18811035 0.29418945
vt 0.18969727 0.24731445
vt 0.14770508 0.28100586
vt 0.1640625 0.26367188
vt 0.32763672 0.23352051
vt 0.96435547 0.1697998
vt 0.96435547 0.117248535
vt 0.91503906 0.117248535
vt 0.91503906 0.1697998
vt 0.96435547 0.27514648
vt 0.96435547 0.22241211
vt 0.91503906 0.22241211
vt 0.91503906 0.27514648
vt 0.71777344 0.27514648
vt 0.76708984 0.27514648
vt 0.76708984 0.22241211
vt 0.71777344 0.22241211
vt 0.71777344 0.117248535
vt 0.71777344 0.16992188
vt 0.76708984 0.16992188
vt 0.76708984 0.117248535
vt 0.86572266 0.22241211
vt 0.81640625 0.22241211
vt 0.81640625 0.27514648
vt 0.86572266 0.27514648
vt 0.86572266 0.16992188
vt 0.81640625 0.16992188
vt 0.86572266 0.117248535
vt 0.81640625 0.117248535
vt 0.66845703 0.22241211
vt 0.6191406 0.22241211
vt 0.6191406 0.27514648
vt 0.66845703 0.27514648
vt 0.6191406 0.16992188
vt 0.66845703 0.16992188
vt 0.66845703 0.117248535
vt 0.6191406 0.117248535
vt 0.66845703 0.064697266
vt 0.6191406 0.064697266
vt 0.76708984 0.06463623
vt 0.71777344 0.06463623
vt 0.86572266 0.06463623
vt 0.81640625 0.06463623
vt 0.96435547 0.06463623
vt 0.91503906 0.064697266
vt 0.56933594 0.22241211
vt 0.56933594 0.27514648
vt 0.56933594 0.16992188
vt 0.56933594 0.117248535
vt 0.56933594 0.064697266
vn -0 0 -1
vn -0 0 -1
vn -0 0 -1
vn -0 0 -1
vn -0 0 -1
vn -0 0 -1
vn -0 0 -1
vn -0 0 -1
vn -0 0 -1
vn -0 0 -1
vn -0 0 -1
vn -0 0 -1
vn -0 0 -1
vn -0 0 -1
vn -0 0 -1
vn -0 0 -1
vn -0 0 -1
vn -0 0 -1
vn -0 0 -1
vn -0 0 -1
vn -0 0 -1
vn -0 0 -1
vn -0 0 -1
vn -0 0 -1
vn -0 0 -1
vn -0 0 -1
vn -0 0 -1
vn -0 0 -1
vn -0 0 -1
vn -0 0 -1
vn -0 0 -1
vn -0 0 -1
vn -0 0 -1
vn -0 0 -1
vn -0 0 -1
vn -0 0 -1
vn -0 0 -1
vn -0 0 -1
vn -0 0 -1
vn -0 0 -1
vn -0 0 -1
vn -0 0 -1
vn -0 0 -1
vn -0 0 -1
vn -0 0 -1
vn -0 0 -1
vn -0 0 -1
vn -0 0 -1
vn -0 0 -1
vn -0 0 -1
vn -0 0 -1
vn -0 0 -1
vn -0 0 -1
vn -0 0 -1
vn -0 0 -1
vn -0 0 -1
vn -0 0 -1
vn -0 0 -1
vn -0 0 -1
vn -0 0 -1
vn -0 0 -1
vn -0 0 -1
vn -0 0 -1
vn -0 0 -1
vn -0 0 -1
vn -0 0 -1
vn -0 0 -1
vn -0 0 -1
vn -0 0 -1
vn -0 0 -1
vn -0 0 -1
vn -0 0 -1
vn -0 0 -1
vn -0 0 -1
vn -0 0 -1
vn -0 0 -1
vn -0 0 -1
vn -0 0 -1
vn -0 0 -1
vn -0 0 -1
vn -0 0 -1
vn -0 0 -1
vn -0 0 -1
vn -0 0 -1
vn -0 0 -1
vn -0 0 -1
vn -0 0 -1
vn -0 0 -1
vn -0 0 -1
vn -0 0 -1
vn -0 0 -1
vn -0 0 -1
vn -0 0 -1
vn -0 0 -1
vn -0 0 -1
vn -0 0 -1
vn -0 0 -1
vn -0 0 -1
vn -0 0 -1
vn -0 0 -1
vn -0 0 -1
vn -0 0 -1
vn -0 0 -1
vn -0 0 -1
vn -0 0 -1
vn -0 0 -1
vn -0 0 -1
vn -0 0 -1
vn -0 0 -1
vn -0 0 -1
vn -0 0 -1
vn -0 0 -1
vn -0 0 -1
vn -0 0 -1
vn -0 0 -1
vn -0 0 -1
vn -0 0 -1
vn -0 0 -1
vn -0 0 -1
vn -0 0 -1
vn -0 0 -1
vn -0 0 -1
vn -0 0 -1
vn -0 0 -1
vn -0 0 -1
vn -0 0 -1
vn -0 0 -1
vn -0 0 -1
vn -0 0 -1
vn -0 0 -1
vn -0 0 -1
vn -0 0 -1
vn -0 0 -1
vn -0 0 -1
vn -0 0 -1
vn -0 0 -1
vn -0 0 -1
vn -0 0 -1
vn -0 0 -1
vn -0 0 -1
vn -0 0 -1
vn -0 0 -1
vn -0 0 -1
vn -0 0 -1
vn -0 0 -1
vn -0 0 -1
vn -0 0 -1
vn -0 0 -1
vn -0 0 -1
vn -0 0 -1
vn -0 0 -1
vn -0 0 -1
vn -0 0 -1
vn -0 0 -1
vn -0 0 -1
vn -0 0 -1
vn -0 0 -1
vn -0 0 -1
vn -0 0 -1
vn -0 0 -1
vn -0 0 -1
vn -0 0 -1
vn -0 0 -1
vn -0 0 -1
vn -0 0 -1
vn -0 0 -1
vn -0 0 -1
vn -0 0 -1
vn -0 0 -1
vn -0 0 -1
vn -0 0 -1
vn -0 0 -1
vn -0 0 -1
vn -0 0 -1
vn -0 0 -1
vn -0 0 -1
vn -0 0 -1
vn -0 0 -1
vn -0 0 -1
vn -0 0 -1
vn -0 0 -1
vn -0 0 -1
vn -0 0 -1
vn -0 0 -1
vn -0 0 -1
vn -0 0 -1
vn -0 0 -1
vn -0 0 -1
vn -0 0 -1
vn -0 0 -1
vn -0 0 -1
vn -0 0 -1
vn -0 0 -1
vn -0 0 -1
vn -0 0 -1
vn -0 0 -1
vn -0 0 -1
vn -0 0 -1
vn -0 0 -1
vn -0 0 -1
vn -0 0 -1
vn -0 0 -1
vn -0 0 -1
vn -0 0 -1
vn -0 0 -1
vn -0 0 -1
vn -0 0 -1
vn -0 0 -1
vn -0 0 -1
vn -0 0 -1
vn -0 0 -1
vn -0 0 -1
vn -0 0 -1
vn -0 0 -1
vn -0 0 -1
vn -0 0 -1
vn -0 0 -1
vn -0 0 -1
vn -0 0 -1
vn -0 0 -1
vn -0 0 -1
vn -0 0 -1
vn -0 0 -1
vn -0 0 -1
vn -0 0 -1
vn -0 0 -1
vn -0 0 -1
vn -0 0 -1
vn -0 0 -1
vn -0 0 -1
vn -0 0 -1
vn -0 0 -1
vn -0 0 -1
vn -0 0 -1
vn -0 0 -1
vn -0 0 -1
vn -0 0 -1
vn -0 0 -1
vn -0 0 -1
vn -0 0 -1
vn -0 0 -1
vn -0 0 -1
vn -0 0 -1
vn -0 0 -1
vn -0 0 -1
vn -0 0 -1
vn -0 0 -1
vn -0 0 -1
vn -0 0 -1
vn -0 0 -1
vn -0 0 -1
vn -0 0 -1
vn -0 0 -1
vn -0 0 -1
vn -0 0 -1
vn -0 0 -1
vn -0 0 -1
vn -0 0 -1
vn -0 0 -1
vn -0 0 -1
vn -0 0 -1
vn -0 0 -1
vn -0 0 -1
vn -0 0 -1
vn -0 0 -1
vn -0 0 -1
vn -0 0 -1
vn -0 0 -1
vn -0 0 -1
vn -0 0 -1
vn -0 0 -1
vn -0 0 -1
vn -0 0 -1
vn -0 0 -1
vn -0 0 -1
vn -0 0 -1
vn -0 0 -1
vn -0 0 -1
vn -0 0 -1
vn -0 0 -1
vn -0 0 -1
vn -0 0 -1
vn -0 0 -1
vn -0 0 -1
vn -0 0 -1
vn -0 0 -1
vn -0 0 -1
vn -0 0 -1
vn -0 0 -1
vn -0 0 -1
vn -0 0 -1
vn -0 0 -1
vn -0 0 -1
vn -0 0 -1
vn -0 0 -1
vn -0 0 -1
vn -0 0 -1
vn -0 0 -1
vn -0 0 -1
vn -0 0 -1
vn -0 0 -1
vn -0 0 -1
vn -0 0 -1
vn -0 0 -1
vn -0 0 -1
vn -0 0 -1
vn -0 0 -1
vn -0 0 -1
vn -0 0 -1
vn -0 0 -1
vn -0 0 -1
vn -0 0 -1
vn -0 0 -1
vn -0 0 -1
vn -0 0 -1
vn -0 0 -1
vn -0 0 -1
vn -0 0 -1
vn -0 0 -1
vn -0 0 -1
vn -0 0 -1
vn -0 0 -1
vn -0 0 -1
vn -0 0 -1
vn -0 0 -1
vn -0 0 -1
vn -0 0 -1
vn -0 0 -1
vn -0 0 -1
vn -0 0 -1
vn -0 0 -1
vn -0 0 -1
vn -0 0 -1
vn -0 0 -1
vn -0 0 -1
vn -0 0 -1
vn -0 0 -1
vn -0 0 -1
vn -0 0 -1
vn -0 0 -1
vn -0 0 -1
vn -0 0 -1
vn -0 0 -1
vn -0 0 -1
vn -0 0 -1
vn -0 0 -1
vn -0 0 -1
vn -0 0 -1
vn -0 0 -1
vn -0 0 -1
vn -0 0 -1
vn -0 0 -1
vn -0 0 -1
vn -0 0 -1
vn -0 0 -1
vn -0 0 -1
vn -0 0 -1
vn -0 0 -1
vn -0 0 -1
vn -0 0 -1
vn -0 0 -1
vn -0 0 -1
vn -0 0 -1
vn -0 0 -1
vn -0 0 -1
vn -0 0 -1
vn -0 0 -1
vn -0 0 -1
vn -0 0 -1
vn -0 0 -1
vn -0 0 -1
vn -0 0 -1
vn -0 0 -1
vn -0 0 -1
vn -0 0 -1
vn -0 0 -1
vn -0 0 -1
vn -0 0 -1
vn -0 0 -1
vn -0 0 -1
vn -0 0 -1
vn -0 0 -1
vn -0 0 -1
vn -0 0 -1
vn -0 0 -1
vn -0 0 -1
vn -0 0 -1
vn -0 0 -1
vn -0 0 -1
vn -0 0 -1
vn -0 0 -1
vn -0 0 -1
vn -0 0 -1
vn -0 0 -1
vn -0 0 -1
vn -0 0 -1
vn -0 0 -1
vn -0 0 -1
vn -0 0 -1
vn -0 0 -1
vn -0 0 -1
vn -0 0 -1
vn -0 0 -1
vn -0 0 -1
vn -0 0 -1
vn -0 0 -1
vn -0 0 -1
vn -0 0 -1
vn -0 0 -1
vn -0 0 -1
vn -0 0 -1
vn -0 0 -1
vn -0 0 -1
vn -0 0 -1
vn -0 0 -1
vn -0 0 -1
vn -0 0 -1
vn -0 0 -1
vn -0 0 -1
vn -0 0 -1
vn -0 0 -1
vn -0 0 -1
vn -0 0 -1
vn -0 0 -1
vn -0 0 -1
vn -0 0 -1
vn -0 0 -1
vn -0 0 -1
vn -0 0 -1
vn -0 0 -1
vn -0 0 -1
vn -0 0 -1
vn -0 0 -1
vn -0 0 -1
vn -0 0 -1
vn -0 0 -1
vn -0 0 -1
vn -0 0 -1
vn -0 0 -1
vn -0 0 -1
vn -0 0 -1
vn -0 0 -1
vn -0 0 -1
vn -0 0 -1
vn -0 0 -1
vn -0 0 -1
vn -0 0 -1
vn -0 0 -1
vn -0 0 -1
vn -0 0 -1
vn -0 0 -1
vn -0 0 -1
vn -0 0 -1
vn -0 0 -1
vn -0 0 -1
vn -0 0 -1
vn -0 0 -1
vn -0 0 -1
vn -0 0 -1
vn -0 0 -1
vn -0 0 -1
vn -0 0 -1
vn -0 0 -1
vn -0 0 -1
vn -0 0 -1
vn -0 0 -1
vn -0 0 -1
vn -0 0 -1
vn -0 0 -1
vn -0 0 -1
vn -0 0 -1
vn -0 0 -1
vn -0 0 -1
vn -0 0 -1
vn -0 0 -1
vn -0 0 -1
vn -0 0 -1
vn -0 0 -1
vn -0 0 -1
vn -0 0 -1
vn -0 0 -1
vn -0 0 -1
vn -0 0 -1
vn -0 0 -1
vn -0 0 -1
vn -0 0 -1
vn -0 0 -1
vn -0 0 -1
vn -0 0 -1
vn -0 0 -1
vn -0 0 -1
vn -0 0 -1
vn -0 0 -1
vn -0 0 -1
vn -0 0 -1
vn -0 0 -1
vn -0 0 -1
vn -0 0 -1
vn -0 0 -1
vn -0 0 -1
vn -0 0 -1
vn -0 0 -1
vn -0 0 -1
vn -0 0 -1
vn -0 0 -1
vn -0 0 -1
vn -0 0 -1
vn -0 0 -1
vn -0 0 -1
vn -0 0 -1
vn -0 0 -1
vn -0 0 -1
vn -0 0 -1
vn -0 0 -1
vn -0 0 -1
vn -0 0 -1
vn -0 0 -1
vn -0 0 -1
vn -0 0 -1
vn -0 0 -1
vn -0 0 -1
vn -0 0 -1
vn -0 0 -1
vn -0 0 -1
vn -0 0 -1
vn -0 0 -1
vn -0 0 -1
vn -0 0 -1
vn -0 0 -1
vn -0 0 -1
vn -0 0 -1
vn -0 0 -1
vn -0 0 -1
vn -0 0 -1
vn -0 0 -1
vn -0 0 -1
vn -0 0 -1
vn -0 0 -1
vn -0 0 -1
vn -0 0 -1
vn -0 0 -1
vn -0 0 -1
vn -0 0 -1
vn -0 0 -1
vn -0 0 -1
vn -0 0 -1
vn -0 0 -1
vn -0 0 -1
vn -0 0 -1
vn -0 0 -1
vn -0 0 -1
vn -0 0 -1
vn -0 0 -1
vn -0 0 -1
vn -0 0 -1
vn -0 0 -1
vn -0 0 -1
vn -0 0 -1
vn -0 0 -1
vn -0 0 -1
vn -0 0 -1
vn -0 0 -1
vn -0 0 -1
vn -0 0 -1
vn -0 0 -1
vn -0 0 -1
vn -0 0 -1
vn -0 0 -1
vn -0 0 -1
vn -0 0 -1
vn -0 0 -1
vn -0 0 -1
vn -0 0 -1
vn -0 0 -1
vn -0 0 -1
vn -0 0 -1
vn -0 0 -1
vn -0 0 -1
vn -0 0 -1
vn -0 0 -1
g cPK_10_001290_00_MEWTWO_RR_L_SB_0
f 3/3/3 2/2/2 1/1/1
f 4/4/4 3/3/3 1/1/1
f 5/5/5 4/4/4 1/1/1
f 6/6/6 5/5/5 1/1/1
f 3/3/3 8/8/8 7/7/7
f 11/11/11 10/10/10 9/9/9
f 11/11/11 9/9/9 12/12/12
f 13/13/13 11/11/11 12/12/12
f 14/14/14 13/13/13 12/12/12
f 15/15/15 14/14/14 12/12/12
f 15/15/15 12/12/12 16/16/16
f 17/17/17 15/15/15 16/16/16
f 17/17/17 16/16/16 7/7/7
f 18/18/18 17/17/17 7/7/7
f 8/8/8 18/18/18 7/7/7
f 19/19/19 5/5/5 6/6/6
f 19/19/19 6/6/6 9/9/9
f 20/20/20 19/19/19 9/9/9
f 10/10/10 20/20/20 9/9/9
f 3/3/3 7/7/7 2/2/2
f 23/23/23 22/22/22 21/21/21
f 24/24/24 23/23/23 21/21/21
f 25/25/25 22/22/22 23/23/23
f 28/28/28 27/27/27 26/26/26
f 29/29/29 28/28/28 26/26/26
f 24/24/24 31/31/31 30/30/30
f 34/34/34 33/33/33 32/32/32
f 29/29/29 34/34/34 32/32/32
f 29/29/29 26/26/26 34/34/34
f 37/37/37 36/36/36 35/35/35
f 40/40/40 39/39/39 38/38/38
f 40/40/40 38/38/38 32/32/32
f 33/33/33 40/40/40 32/32/32
f 42/42/42 41/41/41 35/35/35
f 36/36/36 42/42/42 35/35/35
f 37/37/37 35/35/35 38/38/38
f 39/39/39 37/37/37 38/38/38
f 45/45/45 44/44/44 43/43/43
f 46/46/46 45/45/45 43/43/43
f 49/49/49 48/48/48 47/47/47
f 52/52/52 51/51/51 50/50/50
f 55/55/55 54/54/54 53/53/53
f 56/56/56 55/55/55 53/53/53
f 59/59/59 58/58/58 57/57/57
f 48/48/48 59/59/59 57/57/57
f 51/51/51 60/60/60 50/50/50
f 52/52/52 50/50/50 61/61/61
f 62/62/62 52/52/52 61/61/61
f 64/64/64 63/63/63 50/50/50
f 67/67/67 66/66/66 65/65/65
f 63/63/63 68/68/68 50/50/50
f 71/71/71 70/70/70 69/69/69
f 72/72/72 71/71/71 69/69/69
f 75/75/75 74/74/74 73/73/73
f 77/77/77 76/76/76 65/65/65
f 66/66/66 77/77/77 65/65/65
f 77/77/77 78/78/78 76/76/76
f 72/72/72 69/69/69 76/76/76
f 78/78/78 72/72/72 76/76/76
f 80/80/80 79/79/79 70/70/70
f 81/81/81 80/80/80 70/70/70
f 71/71/71 81/81/81 70/70/70
f 83/83/83 82/82/82 79/79/79
f 80/80/80 83/83/83 79/79/79
f 25/25/25 23/23/23 79/79/79
f 82/82/82 25/25/25 79/79/79
f 74/74/74 84/84/84 73/73/73
f 86/86/86 85/85/85 50/50/50
f 68/68/68 86/86/86 50/50/50
f 88/88/88 87/87/87 41/41/41
f 42/42/42 89/89/89 41/41/41
f 56/56/56 53/53/53 90/90/90
f 91/91/91 64/64/64 50/50/50
f 60/60/60 91/91/91 50/50/50
f 62/62/62 61/61/61 54/54/54
f 55/55/55 62/62/62 54/54/54
f 86/86/86 92/92/92 85/85/85
f 24/24/24 30/30/30 93/93/93
f 89/89/89 88/88/88 41/41/41
f 44/44/44 94/94/94 43/43/43
f 49/49/49 47/47/47 43/43/43
f 94/94/94 49/49/49 43/43/43
f 48/48/48 57/57/57 47/47/47
f 28/28/28 95/95/95 27/27/27
f 24/24/24 93/93/93 95/95/95
f 28/28/28 24/24/24 95/95/95
f 24/24/24 21/21/21 31/31/31
f 67/67/67 65/65/65 73/73/73
f 84/84/84 67/67/67 73/73/73
f 96/96/96 91/91/91 60/60/60
f 97/97/97 96/96/96 60/60/60
f 98/98/98 56/56/56 90/90/90
f 100/100/100 99/99/99 58/58/58
f 59/59/59 100/100/100 58/58/58
f 102/102/102 101/101/101 99/99/99
f 100/100/100 102/102/102 99/99/99
f 102/102/102 103/103/103 101/101/101
f 105/105/105 104/104/104 101/101/101
f 103/103/103 105/105/105 101/101/101
f 98/98/98 90/90/90 104/104/104
f 105/105/105 98/98/98 104/104/104
f 75/75/75 73/73/73 85/85/85
f 92/92/92 75/75/75 85/85/85
f 46/46/46 43/43/43 87/87/87
f 88/88/88 46/46/46 87/87/87
f 108/108/108 107/107/107 106/106/106
f 107/107/107 110/110/110 109/109/109
f 106/106/106 107/107/107 109/109/109
f 109/109/109 110/110/110 111/111/111
f 112/112/112 111/111/111 110/110/110
f 113/113/113 112/112/112 110/110/110
f 115/115/115 114/114/114 107/107/107
f 118/118/118 117/117/117 116/116/116
f 121/121/121 120/120/120 119/119/119
f 124/124/124 123/123/123 122/122/122
f 123/123/123 126/126/126 125/125/125
f 122/122/122 123/123/123 125/125/125
f 126/126/126 128/128/128 127/127/127
f 125/125/125 126/126/126 127/127/127
f 128/128/128 130/130/130 129/129/129
f 127/127/127 128/128/128 129/129/129
f 132/132/132 130/130/130 131/131/131
f 131/131/131 130/130/130 133/133/133
f 134/134/134 133/133/133 130/130/130
f 135/135/135 134/134/134 130/130/130
f 137/137/137 136/136/136 134/134/134
f 140/140/140 139/139/139 138/138/138
f 113/113/113 141/141/141 112/112/112
f 143/143/143 142/142/142 110/110/110
f 146/146/146 145/145/145 144/144/144
f 123/123/123 124/124/124 147/147/147
f 132/132/132 129/129/129 130/130/130
f 140/140/140 121/121/121 139/139/139
f 140/140/140 120/120/120 121/121/121
f 118/118/118 119/119/119 117/117/117
f 118/118/118 121/121/121 119/119/119
f 118/118/118 116/116/116 146/146/146
f 116/116/116 145/145/145 146/146/146
f 144/144/144 115/115/115 107/107/107
f 146/146/146 144/144/144 107/107/107
f 114/114/114 143/143/143 110/110/110
f 114/114/114 110/110/110 107/107/107
f 142/142/142 113/113/113 110/110/110
f 147/147/147 138/138/138 139/139/139
f 123/123/123 147/147/147 139/139/139
f 148/148/148 146/146/146 107/107/107
f 108/108/108 148/148/148 107/107/107
f 141/141/141 149/149/149 112/112/112
f 134/134/134 136/136/136 150/150/150
f 136/136/136 152/152/152 151/151/151
f 150/150/150 136/136/136 151/151/151
f 152/152/152 153/153/153 151/151/151
f 137/137/137 134/134/134 135/135/135
g cPK_10_001290_00_MEWTWO_RR_L_SB_1
f 19/19/19 154/154/154 4/4/4
f 5/5/5 19/19/19 4/4/4
f 19/19/19 20/20/20 155/155/155
f 154/154/154 19/19/19 155/155/155
f 10/10/10 11/11/11 13/13/13
f 156/156/156 10/10/10 13/13/13
f 20/20/20 10/10/10 156/156/156
f 155/155/155 20/20/20 156/156/156
f 156/156/156 13/13/13 14/14/14
f 157/157/157 156/156/156 14/14/14
f 155/155/155 156/156/156 157/157/157
f 158/158/158 155/155/155 157/157/157
f 154/154/154 155/155/155 158/158/158
f 159/159/159 154/154/154 158/158/158
f 154/154/154 159/159/159 3/3/3
f 154/154/154 3/3/3 4/4/4
f 157/157/157 14/14/14 15/15/15
f 157/157/157 17/17/17 18/18/18
f 158/158/158 157/157/157 18/18/18
f 158/158/158 18/18/18 8/8/8
f 159/159/159 158/158/158 8/8/8
f 159/159/159 8/8/8 3/3/3
f 157/157/157 15/15/15 17/17/17
f 160/160/160 34/34/34 26/26/26
f 161/161/161 31/31/31 21/21/21
f 59/59/59 49/49/49 94/94/94
f 163/163/163 44/44/44 162/162/162
f 164/164/164 89/89/89 42/42/42
f 165/165/165 60/60/60 51/51/51
f 55/55/55 56/56/56 98/98/98
f 166/166/166 55/55/55 98/98/98
f 165/165/165 51/51/51 52/52/52
f 167/167/167 165/165/165 52/52/52
f 166/166/166 62/62/62 55/55/55
f 167/167/167 52/52/52 62/62/62
f 166/166/166 167/167/167 62/62/62
f 165/165/165 97/97/97 60/60/60
f 168/168/168 64/64/64 91/91/91
f 96/96/96 168/168/168 91/91/91
f 169/169/169 63/63/63 64/64/64
f 168/168/168 169/169/169 64/64/64
f 170/170/170 68/68/68 63/63/63
f 171/171/171 170/170/170 63/63/63
f 169/169/169 171/171/171 63/63/63
f 172/172/172 86/86/86 68/68/68
f 170/170/170 172/172/172 68/68/68
f 173/173/173 92/92/92 86/86/86
f 172/172/172 173/173/173 86/86/86
f 174/174/174 74/74/74 75/75/75
f 173/173/173 174/174/174 75/75/75
f 175/175/175 84/84/84 74/74/74
f 174/174/174 175/175/175 74/74/74
f 176/176/176 66/66/66 67/67/67
f 175/175/175 67/67/67 84/84/84
f 177/177/177 82/82/82 83/83/83
f 178/178/178 177/177/177 83/83/83
f 179/179/179 77/77/77 66/66/66
f 176/176/176 179/179/179 66/66/66
f 179/179/179 78/78/78 77/77/77
f 180/180/180 72/72/72 78/78/78
f 181/181/181 180/180/180 78/78/78
f 182/182/182 71/71/71 72/72/72
f 180/180/180 182/182/182 72/72/72
f 183/183/183 81/81/81 71/71/71
f 182/182/182 183/183/183 71/71/71
f 184/184/184 80/80/80 81/81/81
f 183/183/183 184/184/184 81/81/81
f 178/178/178 83/83/83 80/80/80
f 184/184/184 178/178/178 80/80/80
f 82/82/82 177/177/177 185/185/185
f 25/25/25 82/82/82 185/185/185
f 185/185/185 186/186/186 22/22/22
f 25/25/25 185/185/185 22/22/22
f 161/161/161 21/21/21 22/22/22
f 186/186/186 161/161/161 22/22/22
f 189/189/189 188/188/188 187/187/187
f 190/190/190 189/189/189 187/187/187
f 192/192/192 191/191/191 188/188/188
f 189/189/189 192/192/192 188/188/188
f 190/190/190 187/187/187 163/163/163
f 193/193/193 190/190/190 163/163/163
f 187/187/187 100/100/100 59/59/59
f 163/163/163 187/187/187 59/59/59
f 188/188/188 102/102/102 100/100/100
f 187/187/187 188/188/188 100/100/100
f 194/194/194 168/168/168 96/96/96
f 192/192/192 194/194/194 96/96/96
f 195/195/195 30/30/30 31/31/31
f 161/161/161 195/195/195 31/31/31
f 196/196/196 93/93/93 30/30/30
f 195/195/195 196/196/196 30/30/30
f 197/197/197 95/95/95 93/93/93
f 196/196/196 197/197/197 93/93/93
f 197/197/197 27/27/27 95/95/95
f 160/160/160 26/26/26 27/27/27
f 197/197/197 160/160/160 27/27/27
f 198/198/198 33/33/33 34/34/34
f 160/160/160 198/198/198 34/34/34
f 199/199/199 40/40/40 33/33/33
f 198/198/198 199/199/199 33/33/33
f 200/200/200 39/39/39 40/40/40
f 199/199/199 200/200/200 40/40/40
f 201/201/201 37/37/37 39/39/39
f 200/200/200 201/201/201 39/39/39
f 201/201/201 36/36/36 37/37/37
f 45/45/45 46/46/46 88/88/88
f 202/202/202 45/45/45 88/88/88
f 202/202/202 162/162/162 44/44/44
f 164/164/164 204/204/204 203/203/203
f 200/200/200 199/199/199 205/205/205
f 201/201/201 200/200/200 205/205/205
f 199/199/199 198/198/198 206/206/206
f 205/205/205 199/199/199 206/206/206
f 198/198/198 160/160/160 207/207/207
f 206/206/206 198/198/198 207/207/207
f 160/160/160 197/197/197 208/208/208
f 207/207/207 160/160/160 208/208/208
f 209/209/209 208/208/208 197/197/197
f 196/196/196 209/209/209 197/197/197
f 209/209/209 196/196/196 195/195/195
f 161/161/161 186/186/186 210/210/210
f 211/211/211 161/161/161 210/210/210
f 186/186/186 185/185/185 212/212/212
f 210/210/210 186/186/186 212/212/212
f 204/204/204 214/214/214 213/213/213
f 203/203/203 204/204/204 213/213/213
f 214/214/214 216/216/216 215/215/215
f 213/213/213 214/214/214 215/215/215
f 217/217/217 215/215/215 216/216/216
f 218/218/218 217/217/217 216/216/216
f 218/218/218 220/220/220 219/219/219
f 217/217/217 218/218/218 219/219/219
f 220/220/220 222/222/222 221/221/221
f 219/219/219 220/220/220 221/221/221
f 222/222/222 223/223/223 194/194/194
f 221/221/221 222/222/222 194/194/194
f 210/210/210 212/212/212 223/223/223
f 222/222/222 210/210/210 223/223/223
f 211/211/211 210/210/210 222/222/222
f 220/220/220 211/211/211 222/222/222
f 209/209/209 211/211/211 220/220/220
f 218/218/218 209/209/209 220/220/220
f 218/218/218 216/216/216 208/208/208
f 209/209/209 218/218/218 208/208/208
f 207/207/207 208/208/208 216/216/216
f 214/214/214 207/207/207 216/216/216
f 206/206/206 207/207/207 214/214/214
f 204/204/204 206/206/206 214/214/214
f 205/205/205 206/206/206 204/204/204
f 164/164/164 205/205/205 204/204/204
f 205/205/205 164/164/164 42/42/42
f 201/201/201 205/205/205 42/42/42
f 201/201/201 42/42/42 36/36/36
f 221/221/221 194/194/194 192/192/192
f 189/189/189 221/221/221 192/192/192
f 219/219/219 221/221/221 189/189/189
f 190/190/190 219/219/219 189/189/189
f 217/217/217 219/219/219 190/190/190
f 193/193/193 217/217/217 190/190/190
f 193/193/193 162/162/162 215/215/215
f 217/217/217 193/193/193 215/215/215
f 213/213/213 215/215/215 162/162/162
f 202/202/202 213/213/213 162/162/162
f 203/203/203 213/213/213 202/202/202
f 203/203/203 88/88/88 89/89/89
f 226/226/226 225/225/225 224/224/224
f 227/227/227 226/226/226 224/224/224
f 191/191/191 103/103/103 102/102/102
f 188/188/188 191/191/191 102/102/102
f 192/192/192 96/96/96 97/97/97
f 191/191/191 192/192/192 97/97/97
f 191/191/191 97/97/97 165/165/165
f 165/165/165 167/167/167 105/105/105
f 167/167/167 166/166/166 105/105/105
f 191/191/191 165/165/165 103/103/103
f 165/165/165 105/105/105 103/103/103
f 166/166/166 98/98/98 105/105/105
f 223/223/223 169/169/169 168/168/168
f 194/194/194 223/223/223 168/168/168
f 212/212/212 229/229/229 228/228/228
f 223/223/223 212/212/212 228/228/228
f 212/212/212 177/177/177 178/178/178
f 225/225/225 180/180/180 181/181/181
f 224/224/224 225/225/225 181/181/181
f 227/227/227 175/175/175 174/174/174
f 226/226/226 227/227/227 174/174/174
f 228/228/228 171/171/171 169/169/169
f 223/223/223 228/228/228 169/169/169
f 230/230/230 173/173/173 172/172/172
f 231/231/231 230/230/230 172/172/172
f 231/231/231 233/233/233 232/232/232
f 230/230/230 231/231/231 232/232/232
f 233/233/233 183/183/183 182/182/182
f 232/232/232 233/233/233 182/182/182
f 231/231/231 172/172/172 170/170/170
f 234/234/234 231/231/231 170/170/170
f 234/234/234 235/235/235 233/233/233
f 231/231/231 234/234/234 233/233/233
f 235/235/235 184/184/184 183/183/183
f 233/233/233 235/235/235 183/183/183
f 234/234/234 170/170/170 171/171/171
f 228/228/228 234/234/234 171/171/171
f 228/228/228 229/229/229 235/235/235
f 234/234/234 228/228/228 235/235/235
f 235/235/235 229/229/229 184/184/184
f 226/226/226 174/174/174 173/173/173
f 230/230/230 226/226/226 173/173/173
f 230/230/230 232/232/232 225/225/225
f 226/226/226 230/230/230 225/225/225
f 232/232/232 182/182/182 180/180/180
f 225/225/225 232/232/232 180/180/180
f 224/224/224 181/181/181 179/179/179
f 224/224/224 179/179/179 176/176/176
f 227/227/227 224/224/224 176/176/176
f 227/227/227 176/176/176 175/175/175
f 173/173/173 75/75/75 92/92/92
f 178/178/178 184/184/184 229/229/229
f 212/212/212 178/178/178 229/229/229
f 185/185/185 177/177/177 212/212/212
f 195/195/195 161/161/161 211/211/211
f 209/209/209 195/195/195 211/211/211
f 59/59/59 94/94/94 44/44/44
f 163/163/163 59/59/59 44/44/44
f 59/59/59 48/48/48 49/49/49
f 193/193/193 163/163/163 162/162/162
f 202/202/202 44/44/44 45/45/45
f 203/203/203 202/202/202 88/88/88
f 164/164/164 203/203/203 89/89/89
f 179/179/179 181/181/181 78/78/78
f 175/175/175 176/176/176 67/67/67
g cPK_10_001290_00_MEWTWO_RR_L_SB_2
f 238/238/238 237/237/237 236/236/236
f 239/239/239 238/238/238 236/236/236
f 241/241/241 240/240/240 238/238/238
f 242/242/242 241/241/241 238/238/238
f 244/244/244 243/243/243 240/240/240
f 241/241/241 244/244/244 240/240/240
f 246/246/246 237/237/237 245/245/245
f 247/247/247 246/246/246 245/245/245
f 245/245/245 249/249/249 248/248/248
f 250/250/250 245/245/245 248/248/248
f 253/253/253 252/252/252 251/251/251
f 252/252/252 255/255/255 254/254/254
f 257/257/257 256/256/256 243/243/243
f 258/258/258 257/257/257 243/243/243
f 260/260/260 256/256/256 259/259/259
f 263/263/263 262/262/262 261/261/261
f 264/264/264 263/263/263 261/261/261
f 267/267/267 266/266/266 265/265/265
f 268/268/268 255/255/255 252/252/252
f 270/270/270 269/269/269 251/251/251
f 271/271/271 270/270/270 251/251/251
f 258/258/258 243/243/243 272/272/272
f 273/273/273 264/264/264 261/261/261
f 246/246/246 236/236/236 237/237/237
f 239/239/239 274/274/274 238/238/238
f 275/275/275 262/262/262 263/263/263
f 244/244/244 272/272/272 243/243/243
f 242/242/242 238/238/238 274/274/274
f 278/278/278 277/277/277 276/276/276
f 279/279/279 278/278/278 276/276/276
f 277/277/277 281/281/281 280/280/280
f 276/276/276 277/277/277 280/280/280
f 280/280/280 281/281/281 282/282/282
f 271/271/271 251/251/251 283/283/283
f 284/284/284 271/271/271 283/283/283
f 284/284/284 283/283/283 278/278/278
f 279/279/279 284/284/284 278/278/278
f 248/248/248 249/249/249 285/285/285
f 249/249/249 287/287/287 286/286/286
f 285/285/285 249/249/249 286/286/286
f 286/286/286 287/287/287 255/255/255
f 290/290/290 289/289/289 288/288/288
f 275/275/275 291/291/291 262/262/262
f 266/266/266 267/267/267 260/260/260
f 292/292/292 260/260/260 259/259/259
f 273/273/273 261/261/261 265/265/265
f 266/266/266 293/293/293 265/265/265
f 251/251/251 252/252/252 254/254/254
f 268/268/268 294/294/294 255/255/255
f 294/294/294 286/286/286 255/255/255
f 269/269/269 253/253/253 251/251/251
f 250/250/250 247/247/247 245/245/245
f 292/292/292 266/266/266 260/260/260
f 293/293/293 273/273/273 265/265/265
f 257/257/257 259/259/259 256/256/256
f 291/291/291 288/288/288 262/262/262
f 288/288/288 289/289/289 262/262/262
f 290/290/290 296/296/296 295/295/295
f 290/290/290 295/295/295 289/289/289
f 299/299/299 298/298/298 297/297/297
f 297/297/297 301/301/301 300/300/300
f 302/302/302 297/297/297 300/300/300
f 305/305/305 304/304/304 303/303/303
f 306/306/306 305/305/305 303/303/303
f 306/306/306 303/303/303 307/307/307
f 308/308/308 306/306/306 307/307/307
f 308/308/308 307/307/307 309/309/309
f 310/310/310 308/308/308 309/309/309
f 310/310/310 309/309/309 311/311/311
f 312/312/312 310/310/310 311/311/311
f 312/312/312 311/311/311 313/313/313
f 311/311/311 315/315/315 314/314/314
f 313/313/313 311/311/311 314/314/314
f 316/316/316 314/314/314 315/315/315
f 317/317/317 316/316/316 315/315/315
f 317/317/317 319/319/319 318/318/318
f 316/316/316 317/317/317 318/318/318
f 319/319/319 321/321/321 320/320/320
f 318/318/318 319/319/319 320/320/320
f 324/324/324 323/323/323 322/322/322
f 325/325/325 324/324/324 322/322/322
f 328/328/328 327/327/327 326/326/326
f 331/331/331 330/330/330 329/329/329
f 334/334/334 333/333/333 332/332/332
f 336/336/336 335/335/335 331/331/331
f 324/324/324 321/321/321 323/323/323
f 324/324/324 337/337/337 321/321/321
f 338/338/338 322/322/322 323/323/323
f 328/328/328 338/338/338 323/323/323
f 331/331/331 340/340/340 339/339/339
f 304/304/304 302/302/302 300/300/300
f 304/304/304 300/300/300 303/303/303
f 342/342/342 341/341/341 146/146/146
f 148/148/148 342/342/342 146/146/146
f 344/344/344 343/343/343 341/341/341
f 342/342/342 344/344/344 341/341/341
f 344/344/344 345/345/345 343/343/343
f 345/345/345 346/346/346 343/343/343
f 333/333/333 334/334/334 347/347/347
f 348/348/348 333/333/333 347/347/347
f 346/346/346 347/347/347 343/343/343
f 346/346/346 348/348/348 347/347/347
f 332/332/332 336/336/336 331/331/331
f 334/334/334 332/332/332 331/331/331
f 335/335/335 330/330/330 331/331/331
f 337/337/337 320/320/320 321/321/321
f 328/328/328 326/326/326 338/338/338
f 331/331/331 339/339/339 328/328/328
f 339/339/339 327/327/327 328/328/328
f 331/331/331 329/329/329 340/340/340
f 349/349/349 299/299/299 297/297/297
f 153/153/153 350/350/350 349/349/349
f 151/151/151 153/153/153 349/349/349
f 351/351/351 301/301/301 297/297/297
f 298/298/298 351/351/351 297/297/297
f 350/350/350 299/299/299 349/349/349
g cPK_10_001290_00_MEWTWO_RR_L_SB_3
f 288/288/288 352/352/352 290/290/290
f 354/354/354 353/353/353 242/242/242
f 354/354/354 274/274/274 239/239/239
f 352/352/352 296/296/296 290/290/290
f 285/285/285 286/286/286 294/294/294
f 355/355/355 285/285/285 294/294/294
f 358/358/358 357/357/357 356/356/356
f 359/359/359 355/355/355 294/294/294
f 361/361/361 360/360/360 355/355/355
f 359/359/359 361/361/361 355/355/355
f 360/360/360 248/248/248 285/285/285
f 355/355/355 360/360/360 285/285/285
f 363/363/363 362/362/362 360/360/360
f 361/361/361 363/363/363 360/360/360
f 360/360/360 250/250/250 248/248/248
f 365/365/365 364/364/364 362/362/362
f 363/363/363 365/365/365 362/362/362
f 366/366/366 247/247/247 250/250/250
f 362/362/362 366/366/366 250/250/250
f 365/365/365 367/367/367 364/364/364
f 364/364/364 369/369/369 368/368/368
f 370/370/370 268/268/268 252/252/252
f 359/359/359 294/294/294 268/268/268
f 370/370/370 359/359/359 268/268/268
f 371/371/371 370/370/370 252/252/252
f 253/253/253 371/371/371 252/252/252
f 371/371/371 361/361/361 359/359/359
f 370/370/370 371/371/371 359/359/359
f 269/269/269 372/372/372 371/371/371
f 253/253/253 269/269/269 371/371/371
f 372/372/372 363/363/363 361/361/361
f 371/371/371 372/372/372 361/361/361
f 270/270/270 358/358/358 372/372/372
f 269/269/269 270/270/270 372/372/372
f 358/358/358 365/365/365 363/363/363
f 372/372/372 358/358/358 363/363/363
f 356/356/356 373/373/373 365/365/365
f 358/358/358 356/356/356 365/365/365
f 270/270/270 374/374/374 358/358/358
f 376/376/376 375/375/375 354/354/354
f 353/353/353 354/354/354 375/375/375
f 377/377/377 296/296/296 352/352/352
f 378/378/378 367/367/367 373/373/373
f 380/380/380 282/282/282 379/379/379
f 383/383/383 382/382/382 381/381/381
f 386/386/386 385/385/385 384/384/384
f 387/387/387 385/385/385 275/275/275
f 387/387/387 275/275/275 263/263/263
f 377/377/377 352/352/352 385/385/385
f 388/388/388 377/377/377 385/385/385
f 385/385/385 291/291/291 275/275/275
f 391/391/391 390/390/390 389/389/389
f 392/392/392 391/391/391 389/389/389
f 390/390/390 394/394/394 393/393/393
f 389/389/389 390/390/390 393/393/393
f 391/391/391 395/395/395 390/390/390
f 397/397/397 396/396/396 394/394/394
f 390/390/390 397/397/397 394/394/394
f 392/392/392 389/389/389 377/377/377
f 388/388/388 392/392/392 377/377/377
f 377/377/377 389/389/389 398/398/398
f 377/377/377 398/398/398 296/296/296
f 389/389/389 393/393/393 398/398/398
f 352/352/352 288/288/288 291/291/291
f 385/385/385 352/352/352 291/291/291
f 386/386/386 388/388/388 385/385/385
f 387/387/387 384/384/384 385/385/385
f 399/399/399 379/379/379 396/396/396
f 397/397/397 399/399/399 396/396/396
f 395/395/395 381/381/381 382/382/382
f 399/399/399 380/380/380 379/379/379
f 400/400/400 271/271/271 284/284/284
f 402/402/402 376/376/376 401/401/401
f 403/403/403 356/356/356 357/357/357
f 404/404/404 400/400/400 284/284/284
f 405/405/405 403/403/403 400/400/400
f 407/407/407 406/406/406 378/378/378
f 408/408/408 407/407/407 378/378/378
f 409/409/409 378/378/378 406/406/406
f 410/410/410 409/409/409 406/406/406
f 410/410/410 412/412/412 411/411/411
f 409/409/409 410/410/410 411/411/411
f 414/414/414 412/412/412 413/413/413
f 413/413/413 292/292/292 259/259/259
f 416/416/416 415/415/415 276/276/276
f 418/418/418 417/417/417 383/383/383
f 381/381/381 395/395/395 419/419/419
f 421/421/421 420/420/420 419/419/419
f 386/386/386 384/384/384 422/422/422
f 424/424/424 423/423/423 422/422/422
f 423/423/423 424/424/424 264/264/264
f 415/415/415 404/404/404 279/279/279
f 418/418/418 405/405/405 404/404/404
f 426/426/426 425/425/425 406/406/406
f 407/407/407 426/426/426 406/406/406
f 410/410/410 406/406/406 425/425/425
f 427/427/427 410/410/410 425/425/425
f 427/427/427 428/428/428 412/412/412
f 410/410/410 427/427/427 412/412/412
f 413/413/413 428/428/428 429/429/429
f 429/429/429 266/266/266 292/292/292
f 413/413/413 429/429/429 292/292/292
f 409/409/409 411/411/411 375/375/375
f 430/430/430 411/411/411 414/414/414
f 414/414/414 257/257/257 258/258/258
f 401/401/401 246/246/246 247/247/247
f 366/366/366 401/401/401 247/247/247
f 401/401/401 366/366/366 368/368/368
f 431/431/431 402/402/402 401/401/401
f 376/376/376 236/236/236 246/246/246
f 401/401/401 376/376/376 246/246/246
f 376/376/376 239/239/239 236/236/236
f 376/376/376 354/354/354 239/239/239
f 354/354/354 242/242/242 274/274/274
f 241/241/241 353/353/353 430/430/430
f 430/430/430 244/244/244 241/241/241
f 430/430/430 272/272/272 244/244/244
f 353/353/353 241/241/241 242/242/242
f 430/430/430 258/258/258 272/272/272
f 430/430/430 414/414/414 258/258/258
f 414/414/414 259/259/259 257/257/257
f 414/414/414 413/413/413 259/259/259
f 423/423/423 273/273/273 293/293/293
f 429/429/429 422/422/422 423/423/423
f 432/432/432 422/422/422 428/428/428
f 427/427/427 432/432/432 428/428/428
f 420/420/420 425/425/425 419/419/419
f 426/426/426 419/419/419 425/425/425
f 432/432/432 434/434/434 433/433/433
f 434/434/434 432/432/432 427/427/427
f 434/434/434 427/427/427 425/425/425
f 433/433/433 434/434/434 420/420/420
f 420/420/420 434/434/434 425/425/425
f 421/421/421 395/395/395 391/391/391
f 433/433/433 391/391/391 392/392/392
f 433/433/433 388/388/388 386/386/386
f 387/387/387 424/424/424 384/384/384
f 424/424/424 387/387/387 263/263/263
f 424/424/424 263/263/263 264/264/264
f 429/429/429 293/293/293 266/266/266
f 429/429/429 423/423/423 293/293/293
f 423/423/423 264/264/264 273/273/273
f 424/424/424 422/422/422 384/384/384
f 432/432/432 386/386/386 422/422/422
f 435/435/435 416/416/416 280/280/280
f 400/400/400 270/270/270 271/271/271
f 408/408/408 378/378/378 373/373/373
f 403/403/403 373/373/373 356/356/356
f 403/403/403 408/408/408 373/373/373
f 403/403/403 405/405/405 407/407/407
f 408/408/408 403/403/403 407/407/407
f 405/405/405 418/418/418 426/426/426
f 407/407/407 405/405/405 426/426/426
f 426/426/426 418/418/418 436/436/436
f 436/436/436 383/383/383 381/381/381
f 421/421/421 419/419/419 395/395/395
f 433/433/433 421/421/421 391/391/391
f 409/409/409 402/402/402 378/378/378
f 402/402/402 431/431/431 378/378/378
f 401/401/401 368/368/368 369/369/369
f 431/431/431 401/401/401 369/369/369
f 431/431/431 369/369/369 367/367/367
f 431/431/431 367/367/367 378/378/378
f 376/376/376 402/402/402 375/375/375
f 404/404/404 284/284/284 279/279/279
f 415/415/415 279/279/279 276/276/276
f 416/416/416 276/276/276 280/280/280
f 435/435/435 280/280/280 282/282/282
f 380/380/380 435/435/435 282/282/282
f 403/403/403 357/357/357 374/374/374
f 433/433/433 392/392/392 388/388/388
f 432/432/432 433/433/433 386/386/386
f 436/436/436 381/381/381 419/419/419
f 426/426/426 436/436/436 419/419/419
f 418/418/418 383/383/383 436/436/436
f 364/364/364 367/367/367 369/369/369
f 365/365/365 373/373/373 367/367/367
f 362/362/362 368/368/368 366/366/366
f 362/362/362 364/364/364 368/368/368
f 360/360/360 362/362/362 250/250/250
f 429/429/429 428/428/428 422/422/422
f 430/430/430 375/375/375 411/411/411
f 414/414/414 411/411/411 412/412/412
f 413/413/413 412/412/412 428/428/428
f 417/417/417 435/435/435 380/380/380
f 417/417/417 399/399/399 382/382/382
f 395/395/395 382/382/382 397/397/397
f 383/383/383 417/417/417 382/382/382
f 417/417/417 380/380/380 399/399/399
f 417/417/417 416/416/416 435/435/435
f 382/382/382 399/399/399 397/397/397
f 353/353/353 375/375/375 430/430/430
f 400/400/400 374/374/374 270/270/270
f 403/403/403 374/374/374 400/400/400
f 374/374/374 357/357/357 358/358/358
f 395/395/395 397/397/397 390/390/390
f 433/433/433 420/420/420 421/421/421
f 418/418/418 415/415/415 416/416/416
f 418/418/418 404/404/404 415/415/415
f 405/405/405 400/400/400 404/404/404
f 418/418/418 416/416/416 417/417/417
f 402/402/402 409/409/409 375/375/375
f 437/437/437 120/120/120 140/140/140
f 438/438/438 111/111/111 112/112/112
f 439/439/439 438/438/438 112/112/112
f 437/437/437 440/440/440 120/120/120
f 440/440/440 117/117/117 119/119/119
f 441/441/441 116/116/116 117/117/117
f 442/442/442 145/145/145 116/116/116
f 443/443/443 144/144/144 145/145/145
f 444/444/444 147/147/147 124/124/124
f 445/445/445 444/444/444 124/124/124
f 444/444/444 445/445/445 446/446/446
f 446/446/446 448/448/448 447/447/447
f 447/447/447 448/448/448 449/449/449
f 451/451/451 113/113/113 450/450/450
f 450/450/450 113/113/113 142/142/142
f 437/437/437 140/140/140 138/138/138
f 444/444/444 452/452/452 440/440/440
f 437/437/437 444/444/444 440/440/440
f 452/452/452 453/453/453 441/441/441
f 440/440/440 452/452/452 441/441/441
f 453/453/453 454/454/454 442/442/442
f 441/441/441 453/453/453 442/442/442
f 442/442/442 454/454/454 443/443/443
f 443/443/443 115/115/115 144/144/144
f 455/455/455 143/143/143 114/114/114
f 449/449/449 455/455/455 456/456/456
f 454/454/454 449/449/449 456/456/456
f 453/453/453 447/447/447 454/454/454
f 452/452/452 446/446/446 447/447/447
f 450/450/450 142/142/142 143/143/143
f 455/455/455 450/450/450 143/143/143
f 455/455/455 449/449/449 451/451/451
f 456/456/456 455/455/455 114/114/114
f 456/456/456 114/114/114 115/115/115
f 443/443/443 456/456/456 115/115/115
f 442/442/442 443/443/443 145/145/145
f 437/437/437 138/138/138 147/147/147
f 444/444/444 437/437/437 147/147/147
f 440/440/440 119/119/119 120/120/120
f 440/440/440 441/441/441 117/117/117
f 441/441/441 442/442/442 116/116/116
f 457/457/457 342/342/342 148/148/148
f 458/458/458 348/348/348 346/346/346
f 459/459/459 458/458/458 346/346/346
f 460/460/460 344/344/344 342/342/342
f 459/459/459 346/346/346 345/345/345
f 461/461/461 459/459/459 345/345/345
f 462/462/462 438/438/438 439/439/439
f 463/463/463 451/451/451 448/448/448
f 464/464/464 448/448/448 446/446/446
f 465/465/465 446/446/446 445/445/445
f 445/445/445 124/124/124 122/122/122
f 465/465/465 445/445/445 122/122/122
f 468/468/468 467/467/467 466/466/466
f 470/470/470 439/439/439 469/469/469
f 439/439/439 112/112/112 149/149/149
f 127/127/127 468/468/468 471/471/471
f 125/125/125 127/127/127 471/471/471
f 471/471/471 468/468/468 472/472/472
f 472/472/472 470/470/470 473/473/473
f 469/469/469 141/141/141 113/113/113
f 473/473/473 469/469/469 113/113/113
f 471/471/471 465/465/465 122/122/122
f 125/125/125 471/471/471 122/122/122
f 465/465/465 471/471/471 464/464/464
f 464/464/464 472/472/472 463/463/463
f 473/473/473 113/113/113 451/451/451
f 463/463/463 473/473/473 451/451/451
f 474/474/474 306/306/306 308/308/308
f 475/475/475 474/474/474 308/308/308
f 477/477/477 476/476/476 474/474/474
f 467/467/467 478/478/478 476/476/476
f 479/479/479 304/304/304 305/305/305
f 480/480/480 479/479/479 305/305/305
f 481/481/481 479/479/479 480/480/480
f 476/476/476 481/481/481 480/480/480
f 482/482/482 481/481/481 476/476/476
f 478/478/478 482/482/482 476/476/476
f 129/129/129 467/467/467 468/468/468
f 127/127/127 129/129/129 468/468/468
f 483/483/483 302/302/302 304/304/304
f 479/479/479 483/483/483 304/304/304
f 484/484/484 483/483/483 479/479/479
f 481/481/481 484/484/484 479/479/479
f 485/485/485 484/484/484 481/481/481
f 482/482/482 485/485/485 481/481/481
f 133/133/133 485/485/485 482/482/482
f 131/131/131 133/133/133 482/482/482
f 486/486/486 349/349/349 297/297/297
f 151/151/151 349/349/349 486/486/486
f 487/487/487 151/151/151 486/486/486
f 488/488/488 150/150/150 151/151/151
f 134/134/134 150/150/150 488/488/488
f 491/491/491 490/490/490 489/489/489
f 493/493/493 492/492/492 489/489/489
f 492/492/492 494/494/494 462/462/462
f 468/468/468 466/466/466 470/470/470
f 497/497/497 496/496/496 495/495/495
f 500/500/500 499/499/499 498/498/498
f 503/503/503 502/502/502 501/501/501
f 501/501/501 106/106/106 109/109/109
f 503/503/503 501/501/501 109/109/109
f 438/438/438 504/504/504 111/111/111
f 498/498/498 499/499/499 504/504/504
f 500/500/500 497/497/497 499/499/499
f 505/505/505 339/339/339 340/340/340
f 506/506/506 505/505/505 340/340/340
f 508/508/508 497/497/497 507/507/507
f 503/503/503 109/109/109 111/111/111
f 504/504/504 503/503/503 111/111/111
f 499/499/499 503/503/503 504/504/504
f 509/509/509 336/336/336 332/332/332
f 510/510/510 333/333/333 348/348/348
f 458/458/458 510/510/510 348/348/348
f 512/512/512 511/511/511 318/318/318
f 513/513/513 320/320/320 337/337/337
f 514/514/514 513/513/513 337/337/337
f 515/515/515 322/322/322 338/338/338
f 513/513/513 514/514/514 512/512/512
f 326/326/326 505/505/505 516/516/516
f 517/517/517 506/506/506 330/330/330
f 517/517/517 519/519/519 518/518/518
f 518/518/518 521/521/521 520/520/520
f 520/520/520 522/522/522 515/515/515
f 522/522/522 324/324/324 325/325/325
f 517/517/517 518/518/518 506/506/506
f 518/518/518 520/520/520 505/505/505
f 506/506/506 518/518/518 505/505/505
f 516/516/516 520/520/520 515/515/515
f 514/514/514 337/337/337 324/324/324
f 522/522/522 514/514/514 324/324/324
f 514/514/514 522/522/522 521/521/521
f 512/512/512 521/521/521 519/519/519
f 513/513/513 512/512/512 318/318/318
f 513/513/513 318/318/318 320/320/320
f 495/495/495 502/502/502 499/499/499
f 108/108/108 106/106/106 501/501/501
f 523/523/523 108/108/108 501/501/501
f 524/524/524 523/523/523 501/501/501
f 502/502/502 524/524/524 501/501/501
f 526/526/526 495/495/495 525/525/525
f 525/525/525 495/495/495 527/527/527
f 496/496/496 330/330/330 528/528/528
f 528/528/528 330/330/330 335/335/335
f 460/460/460 524/524/524 526/526/526
f 461/461/461 525/525/525 459/459/459
f 525/525/525 527/527/527 458/458/458
f 459/459/459 525/525/525 458/458/458
f 510/510/510 458/458/458 527/527/527
f 510/510/510 332/332/332 333/333/333
f 510/510/510 509/509/509 332/332/332
f 528/528/528 335/335/335 336/336/336
f 509/509/509 528/528/528 336/336/336
f 527/527/527 496/496/496 509/509/509
f 461/461/461 345/345/345 344/344/344
f 460/460/460 461/461/461 344/344/344
f 524/524/524 460/460/460 457/457/457
f 524/524/524 457/457/457 523/523/523
f 457/457/457 148/148/148 108/108/108
f 523/523/523 457/457/457 108/108/108
f 461/461/461 526/526/526 525/525/525
f 526/526/526 502/502/502 495/495/495
f 460/460/460 342/342/342 457/457/457
f 498/498/498 504/504/504 438/438/438
f 494/494/494 498/498/498 438/438/438
f 500/500/500 498/498/498 494/494/494
f 493/493/493 500/500/500 494/494/494
f 493/493/493 507/507/507 500/500/500
f 530/530/530 490/490/490 529/529/529
f 466/466/466 531/531/531 462/462/462
f 492/492/492 531/531/531 532/532/532
f 532/532/532 313/313/313 314/314/314
f 489/489/489 532/532/532 314/314/314
f 489/489/489 314/314/314 316/316/316
f 533/533/533 310/310/310 312/312/312
f 534/534/534 533/533/533 312/312/312
f 531/531/531 533/533/533 534/534/534
f 534/534/534 312/312/312 313/313/313
f 532/532/532 534/534/534 313/313/313
f 531/531/531 534/534/534 532/532/532
f 533/533/533 308/308/308 310/310/310
f 533/533/533 475/475/475 308/308/308
f 531/531/531 477/477/477 475/475/475
f 466/466/466 467/467/467 477/477/477
f 480/480/480 305/305/305 306/306/306
f 474/474/474 480/480/480 306/306/306
f 476/476/476 480/480/480 474/474/474
f 477/477/477 474/474/474 475/475/475
f 467/467/467 476/476/476 477/477/477
f 466/466/466 477/477/477 531/531/531
f 531/531/531 475/475/475 533/533/533
f 531/531/531 492/492/492 462/462/462
f 492/492/492 532/532/532 489/489/489
f 493/493/493 489/489/489 490/490/490
f 526/526/526 524/524/524 502/502/502
f 492/492/492 493/493/493 494/494/494
f 469/469/469 439/439/439 149/149/149
f 469/469/469 149/149/149 141/141/141
f 132/132/132 478/478/478 467/467/467
f 129/129/129 132/132/132 467/467/467
f 131/131/131 482/482/482 478/478/478
f 132/132/132 131/131/131 478/478/478
f 517/517/517 330/330/330 496/496/496
f 497/497/497 508/508/508 496/496/496
f 493/493/493 490/490/490 530/530/530
f 500/500/500 507/507/507 497/497/497
f 464/464/464 463/463/463 448/448/448
f 448/448/448 451/451/451 449/449/449
f 472/472/472 473/473/473 463/463/463
f 470/470/470 469/469/469 473/473/473
f 470/470/470 462/462/462 439/439/439
f 462/462/462 494/494/494 438/438/438
f 520/520/520 521/521/521 522/522/522
f 514/514/514 521/521/521 512/512/512
f 518/518/518 519/519/519 521/521/521
f 486/486/486 297/297/297 302/302/302
f 483/483/483 486/486/486 302/302/302
f 487/487/487 486/486/486 483/483/483
f 484/484/484 487/487/487 483/483/483
f 488/488/488 487/487/487 484/484/484
f 485/485/485 488/488/488 484/484/484
f 134/134/134 488/488/488 485/485/485
f 133/133/133 134/134/134 485/485/485
f 488/488/488 151/151/151 487/487/487
f 505/505/505 327/327/327 339/339/339
f 505/505/505 326/326/326 327/327/327
f 447/447/447 449/449/449 454/454/454
f 506/506/506 340/340/340 329/329/329
f 510/510/510 527/527/527 509/509/509
f 455/455/455 451/451/451 450/450/450
f 444/444/444 446/446/446 452/452/452
f 452/452/452 447/447/447 453/453/453
f 465/465/465 464/464/464 446/446/446
f 471/471/471 472/472/472 464/464/464
f 468/468/468 470/470/470 472/472/472
f 466/466/466 462/462/462 470/470/470
f 460/460/460 526/526/526 461/461/461
f 454/454/454 456/456/456 443/443/443
f 495/495/495 499/499/499 497/497/497
f 516/516/516 505/505/505 520/520/520
f 516/516/516 515/515/515 338/338/338
f 506/506/506 329/329/329 330/330/330
f 326/326/326 516/516/516 338/338/338
f 515/515/515 522/522/522 325/325/325
f 515/515/515 325/325/325 322/322/322
f 496/496/496 528/528/528 509/509/509
f 495/495/495 496/496/496 527/527/527
f 503/503/503 499/499/499 502/502/502
f 489/489/489 316/316/316 318/318/318
f 491/491/491 489/489/489 318/318/318
f 535/535/535 517/517/517 508/508/508
f 508/508/508 517/517/517 496/496/496
f 490/490/490 491/491/491 529/529/529
f 535/535/535 519/519/519 517/517/517
f 491/491/491 318/318/318 511/511/511
f 529/529/529 491/491/491 511/511/511
f 535/535/535 508/508/508 507/507/507
f 512/512/512 519/519/519 511/511/511
f 529/529/529 511/511/511 519/519/519
f 535/535/535 529/529/529 519/519/519
f 507/507/507 530/530/530 535/535/535
f 493/493/493 530/530/530 507/507/507
f 530/530/530 529/529/529 535/535/535
g cPK_10_001290_00_MEWTWO_RR_L_SB_4
f 538/538/538 537/537/537 536/536/536
f 539/539/539 538/538/538 536/536/536
f 542/542/542 541/541/541 540/540/540
f 543/543/543 542/542/542 540/540/540
f 546/546/546 545/545/545 544/544/544
f 547/547/547 546/546/546 544/544/544
f 550/550/550 549/549/549 548/548/548
f 551/551/551 550/550/550 548/548/548
f 554/554/554 553/553/553 552/552/552
f 555/555/555 554/554/554 552/552/552
f 553/553/553 557/557/557 556/556/556
f 552/552/552 553/553/553 556/556/556
f 557/557/557 559/559/559 558/558/558
f 556/556/556 557/557/557 558/558/558
f 562/562/562 561/561/561 560/560/560
f 563/563/563 562/562/562 560/560/560
f 566/566/566 565/565/565 564/564/564
f 567/567/567 566/566/566 564/564/564
f 567/567/567 569/569/569 568/568/568
f 566/566/566 567/567/567 568/568/568
f 565/565/565 560/560/560 561/561/561
f 564/564/564 565/565/565 561/561/561
f 547/547/547 549/549/549 550/550/550
f 546/546/546 547/547/547 550/550/550
f 539/539/539 536/536/536 541/541/541
f 542/542/542 539/539/539 541/541/541
f 548/548/548 571/571/571 570/570/570
f 551/551/551 548/548/548 570/570/570
f 559/559/559 573/573/573 572/572/572
f 558/558/558 559/559/559 572/572/572
f 538/538/538 575/575/575 574/574/574
f 537/537/537 538/538/538 574/574/574
f 545/545/545 546/546/546 553/553/553
f 554/554/554 545/545/545 553/553/553
f 553/553/553 546/546/546 550/550/550
f 557/557/557 553/553/553 550/550/550
f 550/550/550 551/551/551 559/559/559
f 557/557/557 550/550/550 559/559/559
f 551/551/551 570/570/570 573/573/573
f 559/559/559 551/551/551 573/573/573
f 543/543/543 555/555/555 552/552/552
f 542/542/542 543/543/543 552/552/552
f 552/552/552 556/556/556 539/539/539
f 542/542/542 552/552/552 539/539/539
f 556/556/556 558/558/558 538/538/538
f 539/539/539 556/556/556 538/538/538
f 558/558/558 572/572/572 575/575/575
f 538/538/538 558/558/558 575/575/575
f 544/544/544 563/563/563 560/560/560
f 547/547/547 544/544/544 560/560/560
f 549/549/549 547/547/547 560/560/560
f 565/565/565 549/549/549 560/560/560
f 548/548/548 549/549/549 565/565/565
f 566/566/566 548/548/548 565/565/565
f 566/566/566 568/568/568 571/571/571
f 548/548/548 566/566/566 571/571/571
f 577/577/577 576/576/576 561/561/561
f 562/562/562 577/577/577 561/561/561
f 561/561/561 576/576/576 578/578/578
f 564/564/564 561/561/561 578/578/578
f 564/564/564 578/578/578 579/579/579
f 567/567/567 564/564/564 579/579/579
f 567/567/567 579/579/579 580/580/580
f 569/569/569 567/567/567 580/580/580
