g cTR_20_000160_00_TAKESHI_SR_L_SB
v -0.09050708 -0.0957308 -0.05555542
v -0.096810155 -0.0953375 -0.05555542
v -0.084822565 -0.10054793 -0.05555542
v -0.08139654 -0.10987165 -0.05555542
v -0.08166046 -0.12245228 -0.05555542
v -0.09980016 -0.094860226 -0.05555542
v -0.10185845 -0.09514036 -0.05555542
v -0.10888733 -0.09923924 -0.05555542
v -0.11637031 -0.10299517 -0.05555542
v -0.084181316 -0.13528435 -0.05555542
v -0.13118778 -0.10978434 -0.05555542
v -0.087561816 -0.1443002 -0.05555542
v -0.092628084 -0.1492415 -0.05555542
v -0.094846286 -0.15090755 -0.05555542
v -0.1065637 -0.15505823 -0.05555542
v -0.1159999 -0.15817888 -0.05555542
v -0.12477919 -0.16005705 -0.05555542
v -0.13927393 -0.112845175 -0.05555542
v -0.13236563 -0.1610724 -0.05555542
v -0.14991185 -0.115829505 -0.05555542
v -0.15102978 -0.16223747 -0.05555542
v -0.16006322 -0.117885984 -0.05555542
v -0.15798195 -0.16410483 -0.05555542
v -0.16617543 -0.11850541 -0.05555542
v -0.16435438 -0.1650175 -0.05555542
v -0.17351161 -0.11902118 -0.05555542
v -0.16908176 -0.16540529 -0.05555542
v -0.17391728 -0.1651778 -0.05555542
v -0.18627577 -0.16423838 -0.05555542
v -0.18052958 -0.118669204 -0.05555542
v -0.19596666 -0.16240512 -0.05555542
v -0.20413242 -0.15958586 -0.05532983
v -0.21138449 -0.15416688 -0.05555542
v -0.21615635 -0.14465126 -0.05555542
v -0.21982539 -0.13486834 -0.05555542
v -0.183823 -0.11570006 -0.05555542
v -0.22129063 -0.12623602 -0.05555542
v -0.18750714 -0.11203351 -0.05555542
v -0.22076888 -0.11757763 -0.05555542
v -0.21372159 -0.106749915 -0.05555542
v -0.19054383 -0.109538555 -0.05555542
v -0.19570354 -0.1062025 -0.05555542
v -0.199823 -0.10461618 -0.05555542
v -0.20397499 -0.10381084 -0.05555542
v -0.20850246 -0.10375809 -0.05555542
v -0.22456203 -0.07219068 -0.06152143
v -0.2284879 -0.07276205 -0.06152143
v -0.2241406 -0.093779095 -0.06152143
v -0.23154667 -0.07431407 -0.06152143
v -0.23394051 -0.07731206 -0.06152143
v -0.23642948 -0.08040347 -0.06152143
v -0.22890607 -0.09523182 -0.06152143
v -0.23888896 -0.08402475 -0.06152143
v -0.23232806 -0.09591651 -0.06152143
v -0.23608725 -0.09343365 -0.06152143
v -0.24014322 -0.08664175 -0.06152143
v -0.2395058 -0.08956337 -0.06152143
v -0.21895325 -0.07347705 -0.06152143
v -0.21578367 -0.07512994 -0.06152143
v -0.21256915 -0.07866659 -0.06152143
v -0.22048986 -0.09633279 -0.06152143
v -0.20939766 -0.08116422 -0.06152143
v -0.21632503 -0.0973477 -0.06152143
v -0.2117217 -0.09760182 -0.06152143
v -0.20493458 -0.08353861 -0.06152143
v -0.20600875 -0.09719365 -0.06152143
v -0.2020201 -0.096050434 -0.06152143
v -0.19990613 -0.09388473 -0.06152143
v -0.19880669 -0.09076416 -0.06152143
v -0.20128039 -0.084620915 -0.06152143
v -0.1988837 -0.084821455 -0.06152143
v -0.1983397 -0.08636703 -0.06152143
v -0.21138798 -0.1586762 -0.055496275
v -0.21048875 -0.16028719 -0.055321343
v -0.18653844 -0.12503429 -0.05914953
v -0.20850864 -0.16206774 -0.05512799
v -0.20528579 -0.16344242 -0.054978706
v -0.18687217 -0.16333103 -0.056051016
v -0.18146363 -0.1574146 -0.055565763
v -0.1844155 -0.12538712 -0.059111208
v -0.18211 -0.12617509 -0.05902564
v -0.17836748 -0.1286198 -0.058760166
v -0.17570412 -0.14457062 -0.057028037
v -0.1748158 -0.13884668 -0.05764961
v -0.17797938 -0.14574097 -0.05690095
v -0.17973219 -0.14586161 -0.056887846
v -0.17898081 -0.15265024 -0.055565756
v -0.17961213 -0.15063725 -0.05597464
v -0.17472513 -0.13254909 -0.058333475
v -0.17586224 -0.13085724 -0.0585172
v -0.17464575 -0.13487092 -0.058081347
v -0.19455506 -0.11369014 -0.060381413
v -0.22800505 -0.1482944 -0.056623664
v -0.19438955 -0.11501044 -0.06023804
v -0.19101425 -0.118664406 -0.059841245
v -0.18785068 -0.122868024 -0.05938477
v -0.22654854 -0.15036608 -0.056398697
v -0.22241722 -0.15638067 -0.05574556
v -0.2204922 -0.15754163 -0.055619486
v -0.21589816 -0.15816489 -0.055551805
v -0.23057447 -0.14721888 -0.05674045
v -0.24767216 -0.12819068 -0.058806766
v -0.24633801 -0.13137881 -0.058460563
v -0.21556595 -0.095210604 -0.06238815
v -0.24526206 -0.13581918 -0.057978373
v -0.20917478 -0.09543358 -0.06236393
v -0.20671928 -0.0961479 -0.062286355
v -0.20475768 -0.097666666 -0.062121432
v -0.20121573 -0.10013707 -0.06185317
v -0.19773617 -0.10204514 -0.061645966
v -0.1961235 -0.10324742 -0.06151541
v -0.19474034 -0.10599089 -0.061217494
v -0.19420609 -0.10879781 -0.06091268
v -0.24462855 -0.139333 -0.057596803
v -0.24386719 -0.14313082 -0.057184387
v -0.2430423 -0.1451693 -0.056963023
v -0.24111564 -0.1459621 -0.056876935
v -0.23660174 -0.14660572 -0.05680704
v -0.21861887 -0.089615986 -0.06299568
v -0.22165377 -0.08507815 -0.063488446
v -0.22475854 -0.08135102 -0.06389319
v -0.22738783 -0.079518996 -0.06409213
v -0.23021074 -0.079225026 -0.06412405
v -0.23499404 -0.07995431 -0.06404486
v -0.24068432 -0.08152514 -0.063874274
v -0.24467409 -0.083579086 -0.06365123
v -0.24586077 -0.08509057 -0.063487105
v -0.24655597 -0.08747618 -0.06322805
v -0.25204384 -0.10790843 -0.061009258
v -0.2543131 -0.1143742 -0.060307126
v -0.25646728 -0.12032769 -0.059660632
v -0.25098225 -0.1275879 -0.058872223
v -0.2543209 -0.1259068 -0.05905478
v -0.25652862 -0.12332493 -0.059335142
v -0.10609231 -0.17973143 -0.058790088
v -0.06312247 -0.3189807 -0.058790088
v -0.07624694 -0.17514315 -0.058790088
v -0.055505037 -0.31664482 -0.058790088
v -0.05507487 -0.17416883 -0.058790088
v -0.049656663 -0.315469 -0.058790088
v -0.037631854 -0.17695338 -0.058790088
v -0.024529463 -0.18409489 -0.058790088
v -0.011656447 -0.20399892 -0.058790088
v -0.0056007323 -0.21587208 -0.058790088
v -0.005157271 -0.23310168 -0.058790088
v -0.0092720995 -0.2542216 -0.058790088
v -0.010679617 -0.273804 -0.058790088
v -0.017043581 -0.29085475 -0.058790088
v -0.023706611 -0.29918817 -0.058790088
v -0.026862517 -0.30222994 -0.058790088
v -0.03043584 -0.30525568 -0.058790088
v -0.033556517 -0.30796406 -0.058790088
v -0.036636826 -0.31005865 -0.058790088
v -0.04009237 -0.31202546 -0.058790088
v -0.04404751 -0.31399015 -0.058790088
v -0.36836132 -0.53286546 -0.065984055
v -0.21591532 -0.5331975 -0.065984055
v -0.3310618 -0.4698854 -0.065984055
v -0.21450554 -0.52365464 -0.065984055
v -0.2114654 -0.51083714 -0.065984055
v -0.18518506 -0.450584 -0.064931735
v -0.31232902 -0.4265678 -0.065984055
v -0.18681285 -0.45603773 -0.06518771
v -0.20830393 -0.50130355 -0.065984055
v -0.3263155 -0.4456589 -0.065984055
v -0.1877744 -0.46209726 -0.0654721
v -0.32550094 -0.44303328 -0.065984055
v -0.19790773 -0.4860386 -0.065984055
v -0.18941738 -0.47518784 -0.065984055
v -0.18854508 -0.47362453 -0.065984055
v -0.18835877 -0.47134873 -0.0659063
v -0.1882464 -0.46778542 -0.065739065
v -0.14601943 -0.20032127 -0.058790088
v -0.30809292 -0.4085563 -0.06539622
v -0.30565378 -0.3994336 -0.06508394
v -0.3030328 -0.3916293 -0.064816795
v -0.29904774 -0.3837984 -0.06454873
v -0.2923733 -0.3737323 -0.06420416
v -0.15685831 -0.41308734 -0.06318366
v -0.26480198 -0.3352354 -0.06288638
v -0.22194763 -0.28399816 -0.06113248
v -0.17214207 -0.21487439 -0.058790088
v -0.09316364 -0.3504723 -0.06023707
v -0.18843028 -0.2254893 -0.058790088
v -0.18959217 -0.22693698 -0.059179217
v -0.20370603 -0.25956854 -0.060296226
v -0.15497366 -0.41254526 -0.06315815
v -0.21179092 -0.2689064 -0.060615875
v -0.21964215 -0.27926236 -0.060970366
v 0.22593465 -0.5334199 -0.08244188
v 0.20580597 -0.48573706 -0.08244188
v 0.021079205 -0.5332866 -0.08244188
v 0.19223006 -0.44443035 -0.08244188
v 0.015282418 -0.50804186 -0.08244188
v 0.011256767 -0.48467264 -0.08244188
v 0.0077733323 -0.46559665 -0.08138379
v 0.18772468 -0.42809114 -0.08112964
v 0.1697573 -0.37241977 -0.076602995
v 0.005215847 -0.44875407 -0.079730555
v 0.0038683086 -0.43860275 -0.078733
v 0.003600313 -0.43322974 -0.078205004
v 0.00066875666 -0.42603254 -0.07749774
v 0.1520235 -0.31292778 -0.07176568
v -0.011283867 -0.40002275 -0.0749418
v -0.022834396 -0.37193477 -0.072181635
v -0.028688872 -0.35571477 -0.07058772
v 0.1333067 -0.24027164 -0.065858
v -0.037440684 -0.33106658 -0.06816557
v -0.042421274 -0.31542894 -0.06662888
v -0.043208875 -0.31008655 -0.0661039
v -0.05215469 -0.28869265 -0.064001545
v -0.058491256 -0.27087462 -0.062250596
v -0.08670419 0.097774975 -0.05896868
v -0.11100962 0.075403415 -0.05896868
v -0.072935335 0.08522909 -0.05896868
v -0.06339066 0.06694243 -0.05896868
v -0.061033178 0.04056241 -0.05896868
v -0.11470311 0.07077169 -0.05896868
v -0.117111444 0.06623209 -0.05896868
v -0.118578985 0.061342128 -0.05896868
v -0.12089777 0.05141617 -0.05896868
v -0.122903876 0.035784386 -0.05896868
v -0.060684502 0.015572111 -0.05896868
v -0.12368663 0.024625912 -0.05896868
v -0.12366324 0.010404017 -0.05896868
v -0.06323282 -0.013642512 -0.05896868
v -0.122933745 0.0014796666 -0.05896868
v -0.122102454 -0.00874187 -0.05896868
v -0.06788365 -0.03635625 -0.05896868
v -0.12552622 -0.01557831 -0.05896868
v -0.07357856 -0.054245412 -0.05896868
v -0.12909256 -0.023016876 -0.05896868
v -0.083555646 -0.06660084 -0.05896868
v -0.0901623 -0.06888633 -0.05896868
v -0.09944426 -0.071480334 -0.05896868
v -0.1335577 -0.032670952 -0.05896868
v -0.10667606 -0.072280556 -0.05896868
v -0.112843566 -0.07232995 -0.05896868
v -0.13859169 -0.045044795 -0.05896868
v -0.12163255 -0.070913754 -0.05896868
v -0.13124321 -0.06823264 -0.05896868
v -0.14115505 -0.05258903 -0.05896868
v -0.13575827 -0.066297404 -0.05896868
v -0.14248924 -0.059010323 -0.05896868
v -0.14103334 -0.063895285 -0.05896868
v -0.14211527 -0.062220067 -0.05896868
v 0.113158725 -0.16129194 -0.06103729
v -0.060397472 -0.2584056 -0.06103729
v 0.12226862 -0.1927471 -0.06202955
v -0.060894586 -0.26468465 -0.061642315
v -0.06127563 -0.2611463 -0.061294604
v -0.12899694 -0.20617369 -0.06103729
v -0.08368274 -0.22422242 -0.06103729
v 0.082150176 -0.07191257 -0.06103729
v 0.10055907 -0.11642253 -0.06103729
v 0.11429035 -0.15208726 -0.06103729
v 0.11514553 -0.15599887 -0.06103729
v 0.11438896 -0.15950742 -0.06103729
v -0.0819576 -0.22765939 -0.06103729
v -0.077947825 -0.2358917 -0.06103729
v -0.07236978 -0.24435528 -0.06103729
v -0.066136084 -0.25293458 -0.06103729
v -0.06283938 -0.25674206 -0.06103729
v -0.17150322 -0.21425381 -0.06103729
v -0.17132573 -0.21237469 -0.06103729
v -0.16569972 -0.20293069 -0.06103729
v -0.16026698 -0.19546226 -0.06103729
v -0.15363955 -0.18689457 -0.06103729
v -0.14389314 -0.17591637 -0.06103729
v -0.14406292 -0.17211956 -0.06103729
v -0.1407209 -0.15990147 -0.06103729
v -0.1392655 -0.15809803 -0.06103729
v -0.1358388 -0.1473789 -0.06103729
v -0.12713104 -0.1107957 -0.06103729
v -0.12739566 -0.10768081 -0.06103729
v -0.1272478 -0.10329777 -0.06103729
v -0.12575744 -0.09679211 -0.06103729
v -0.120112 -0.07917583 -0.06103729
v -0.11809992 -0.07764688 -0.06103729
v -0.10891854 -0.04894684 -0.06103729
v 0.07965039 -0.055336326 -0.06103729
v 0.07905837 -0.042141654 -0.06103729
v -0.10833394 -0.03642291 -0.06103729
v 0.079398 -0.032292753 -0.06103729
v -0.10899743 -0.025067857 -0.06103729
v 0.0805016 -0.021515274 -0.06103729
v -0.11191901 0.013295516 -0.06103729
v 0.08162778 -0.014992562 -0.06103729
v 0.0839323 -0.003052152 -0.06103729
v 0.087788984 0.01957011 -0.06103729
v -0.112442516 0.027273158 -0.06103729
v -0.11166773 0.038399562 -0.06103729
v -0.109782755 0.0475745 -0.06103729
v -0.107208505 0.055883985 -0.06103729
v -0.10010026 0.07289932 -0.06103729
v -0.09179144 0.09168447 -0.06103729
v 0.090769164 0.04237896 -0.06103729
v 0.09046162 0.076870166 -0.06103729
v -0.08996657 0.09516218 -0.06103729
v -0.087499164 0.09766916 -0.06103729
v -0.07927122 0.103209965 -0.06103729
v -0.07025888 0.10935338 -0.06103729
v -0.06319115 0.11360669 -0.06103729
v -0.055797156 0.11777319 -0.06103729
v 0.08684164 0.09924918 -0.06103729
v 0.078311406 0.12488641 -0.06103729
v 0.07511369 0.1344584 -0.06103729
v 0.07173331 0.14035845 -0.06103729
v 0.06880971 0.14278142 -0.06103729
v 0.06150083 0.14583634 -0.06103729
v 0.05313617 0.14925772 -0.06103729
v 0.008980473 0.19482893 -0.06103729
v 0.0012526409 0.19355412 -0.06103729
v 0.009692828 0.19385721 -0.06103729
v 0.008191424 0.1856918 -0.06103729
v -0.009372604 0.19083025 -0.06103729
v 0.007457245 0.17934604 -0.06103729
v 0.006765347 0.17312263 -0.06103729
v -0.020901715 0.18791497 -0.06103729
v 0.006572008 0.16679938 -0.06103729
v -0.03233822 0.18247549 -0.06103729
v -0.042661157 0.17664263 -0.06103729
v -0.046488803 0.172993 -0.06103729
v -0.04681274 0.17016375 -0.06103729
v -0.046253975 0.1650114 -0.06103729
v -0.045314632 0.15655349 -0.06103729
v -0.061902758 0.13605627 -0.06103729
v -0.06023672 0.13563547 -0.06103729
v -0.06282988 0.13788666 -0.06103729
v 0.01775632 0.1665907 -0.06103729
v 0.019802159 0.16514494 -0.06103729
v 0.02075313 0.16273144 -0.06103729
v 0.021214081 0.1602263 -0.06103729
v 0.020726176 0.15753649 -0.06103729
v 0.019362528 0.15539308 -0.06103729
v 0.018422505 0.15404916 -0.06103729
v 0.018342232 0.15087597 -0.06103729
v 0.019907748 0.14070003 -0.06103729
v -0.060644973 0.14674348 -0.06103729
v -0.062247213 0.14388172 -0.06103729
v -0.05692595 0.1497632 -0.06103729
v 0.04610616 0.1499177 -0.06103729
v 0.04314485 0.14891563 -0.06103729
v 0.050240476 0.14989814 -0.06103729
v -0.06291724 0.14080183 -0.06103729
v -0.058020424 0.13562433 -0.06103729
v -0.053262163 0.15254135 -0.06103729
v -0.049540583 0.15476295 -0.06103729
v 0.083460234 0.03827002 -0.06152422
v 0.08019877 0.0317961 -0.06152422
v 0.09803309 0.041790675 -0.06152422
v 0.059327878 0.021012167 -0.06152422
v 0.08375641 -0.042621143 -0.06152422
v 0.09147627 -0.041571304 -0.06152422
v 0.15617737 -0.002445628 -0.06653982
v 0.15503874 0.010189979 -0.06683492
v 0.1441337 0.02900554 -0.06683492
v 0.12596874 -0.029190907 -0.06152422
v 0.111263275 -0.0348725 -0.06152422
v 0.15735908 0.0036659003 -0.06692111
v 0.10027721 -0.039208632 -0.06152422
v 0.15350974 -0.008374458 -0.06597009
v 0.12662654 0.03952113 -0.06417685
v 0.14957881 -0.015073876 -0.06493596
v 0.1456121 -0.019347195 -0.064084336
v 0.10965114 0.042816203 -0.062293697
v 0.052143373 0.0036500003 -0.06683492
v 0.06524136 -0.0401983 -0.06152422
v 0.073567115 -0.042325255 -0.06152422
v 0.048245918 -0.012302744 -0.06683492
v 0.055933725 -0.03484602 -0.064382575
v 0.049131315 -0.02663835 -0.06683492
v 0.05064839 -0.030249698 -0.06683492
v 0.04823147 -0.018884977 -0.06683492
v 0.09679162 -0.11204622 -0.06521242
v 0.11911476 -0.07423841 -0.068779536
v 0.08680781 -0.10505866 -0.06521242
v 0.08011822 -0.0988946 -0.06521242
v 0.07395817 -0.09216679 -0.06521242
v 0.06924722 -0.08576729 -0.06521242
v 0.065346 -0.07817456 -0.06521242
v 0.061517697 -0.06730281 -0.06521242
v 0.061199266 -0.06192735 -0.06521242
v 0.13048355 -0.04833598 -0.07107514
v 0.060679782 -0.053158518 -0.06521242
v 0.0591684 -0.039942097 -0.06521242
v 0.13202405 -0.029221073 -0.0727692
v 0.12977873 -0.024810288 -0.07287172
v 0.12717551 -0.018156514 -0.07176455
v 0.057145 -0.021871828 -0.06521242
v 0.124850385 -0.008476255 -0.07050769
v 0.05513968 -0.0068528648 -0.06521242
v 0.11978272 0.011187636 -0.06829356
v 0.052900176 0.0058050067 -0.06521242
v 0.111386694 0.038590822 -0.06598285
v 0.05044167 0.017528798 -0.06521242
v 0.04810057 0.027488733 -0.06521242
v 0.04912054 0.035757326 -0.06521242
v 0.10830077 0.0469014 -0.06528209
v 0.10159286 0.05631381 -0.06448841
v 0.084750734 0.06687708 -0.06521242
v 0.06976415 0.06686895 -0.06521242
v 0.050106663 0.04430145 -0.06521242
v 0.053305484 0.053559076 -0.06521242
v 0.059218418 0.061937 -0.06521242
v 0.051436957 -0.031074947 -0.067195855
v 0.051484432 -0.02986458 -0.067195855
v 0.050218552 -0.030932864 -0.06719584
v 0.049154278 -0.029788157 -0.067195855
v 0.051071074 -0.027609661 -0.067195855
v 0.047574706 -0.026369689 -0.067195855
v 0.05135697 -0.022222396 -0.067195855
v 0.046525933 -0.02158746 -0.067195855
v 0.09301596 0.013340025 -0.07109092
v 0.13435194 0.049463056 -0.067195855
v 0.044146817 0.017800504 -0.067195855
v 0.045907818 -0.014606789 -0.067195855
v 0.054200497 -0.016065734 -0.067893595
v 0.044928167 -0.0063931243 -0.067195855
v 0.05728659 -0.011441229 -0.068446584
v 0.060827445 -0.007162696 -0.06895819
v 0.043917894 0.0014383796 -0.067195855
v 0.06522005 -0.0024782207 -0.06951836
v 0.15504557 -0.00028527484 -0.06666655
v 0.15681942 0.00077951356 -0.06681001
v 0.15381408 0.0006193012 -0.06672075
v 0.15328477 0.0030766192 -0.06690702
v 0.15744793 0.0037246053 -0.06704113
v 0.15723142 0.0063398853 -0.067195855
v 0.15283905 0.005424137 -0.067022294
v 0.15606467 0.009458875 -0.067195855
v 0.15164432 0.007018921 -0.067195855
v 0.15398972 0.013542618 -0.067195855
v 0.1481757 0.008527714 -0.06792366
v 0.1529951 0.017110528 -0.067195855
v 0.14297551 0.010629127 -0.06898153
v 0.1501615 0.022398848 -0.067195855
v 0.13368766 0.0132121 -0.07028181
v 0.14594615 0.029698104 -0.067195855
v 0.12276327 0.014942522 -0.071152925
v 0.071190126 0.0030607968 -0.07018071
v 0.14014904 0.03958058 -0.067195855
v 0.11494141 0.0155188665 -0.07144306
v 0.043599423 0.011474026 -0.067195855
v 0.10814529 0.01554454 -0.07145598
v 0.10059094 0.014837953 -0.07109092
v 0.07763246 0.007915224 -0.07076118
v 0.1332157 0.056784924 -0.067195855
v 0.13163987 0.06607174 -0.067195855
v 0.12963927 0.07335536 -0.067195855
v 0.04275761 0.019119894 -0.067195855
v 0.040377703 0.022656448 -0.067195855
v 0.037812293 0.027955517 -0.067195855
v 0.03546796 0.034171414 -0.067195855
v 0.1258803 0.08510199 -0.067195855
v 0.032049373 0.040116925 -0.067195855
v 0.029818589 0.04748781 -0.067195855
v 0.028141374 0.05452472 -0.067195855
v 0.027381793 0.060620088 -0.066200845
v 0.02737978 0.065860264 -0.066200845
v 0.028512536 0.07388245 -0.066200845
v 0.120625876 0.09903041 -0.06715609
v 0.029156446 0.082129456 -0.06549883
v 0.031821307 0.100904725 -0.064397074
v 0.11470433 0.11193838 -0.065769054
v 0.10998776 0.12068305 -0.06482939
v 0.035407532 0.11691393 -0.06370493
v 0.106559575 0.12541007 -0.06432145
v 0.102799274 0.12925272 -0.06390853
v 0.096285686 0.13265584 -0.06354284
v 0.087813795 0.13637686 -0.063143
v 0.074412204 0.14017692 -0.06273466
v 0.069434375 0.14095299 -0.06260506
v 0.03999724 0.13007271 -0.06260506
v 0.06535922 0.14207748 -0.06260506
v 0.060376316 0.1427689 -0.06260506
v 0.055289894 0.14309159 -0.06260506
v 0.05085979 0.14251135 -0.06260506
v 0.04388001 0.13900581 -0.06260506
v 0.046034742 0.14110301 -0.06260506
v 0.045014974 0.14061373 -0.06260506
v 0.08414288 0.010711634 -0.07109092
v 0.24313807 0.085293464 -0.07348656
v 0.24364007 0.09124016 -0.07348656
v 0.23734188 0.08053135 -0.07348656
v 0.23518936 0.10464249 -0.07348656
v 0.23116688 0.077586964 -0.07348656
v 0.23196279 0.10596951 -0.07348656
v 0.22641948 0.104310825 -0.07348656
v 0.222524 0.10273482 -0.07348656
v 0.2251756 0.07554849 -0.07348656
v 0.21682465 0.075635865 -0.07348656
v 0.21690133 0.10190519 -0.07348656
v 0.20963609 0.10140667 -0.07348656
v 0.20956829 0.07621163 -0.07348656
v 0.20498775 0.07675025 -0.07348656
v 0.20485221 0.101423144 -0.07348656
v 0.19957946 0.07739019 -0.07348656
v 0.19639917 0.07880639 -0.07348656
v 0.18946595 0.08421829 -0.07348656
v 0.2001909 0.10253497 -0.07348656
v 0.18610252 0.088311605 -0.07348656
v 0.18564717 0.09153124 -0.07348656
v 0.18787363 0.09651431 -0.07348656
v 0.1915528 0.10047938 -0.07348656
v 0.19696014 0.1031629 -0.07348656
v 0.19508784 0.10312708 -0.07348656
v 0.22164515 0.10035775 -0.07647993
v 0.22551548 0.064843245 -0.07386241
v 0.25801226 0.091874324 -0.076077096
v 0.21227549 0.09343172 -0.07574503
v 0.2094904 0.090828024 -0.07545687
v 0.20846751 0.08850846 -0.07520016
v 0.20650664 0.076044455 -0.07386241
v 0.20493655 0.071453534 -0.07386241
v 0.24776462 0.10737773 -0.07647993
v 0.2231942 0.10306382 -0.07647993
v 0.22752729 0.10706866 -0.07647993
v 0.23146892 0.11006653 -0.07647993
v 0.23453327 0.111365095 -0.07647993
v 0.24209435 0.111165844 -0.07647993
v 0.24538183 0.11024963 -0.07647993
v 0.24478073 0.04688416 -0.075809196
v 0.25388455 0.037983887 -0.075809196
v 0.27992538 0.054662596 -0.075809196
v 0.26895142 0.07295987 -0.075809196
v 0.27983364 0.049851887 -0.075809196
v 0.26401863 0.08148896 -0.075809196
v 0.23775685 0.047681775 -0.075809196
v 0.23384999 0.053158876 -0.075809196
v 0.27188712 0.021091303 -0.07687848
v 0.27767697 0.027329436 -0.07687848
v 0.24051885 0.05947876 -0.07687848
v 0.24171677 0.060296882 -0.07687848
v 0.27807432 0.027801318 -0.07687848
v 0.27891383 0.030101469 -0.07687848
v 0.27936715 0.04385325 -0.07687848
v 0.28017625 0.0489193 -0.07687848
v 0.24319129 0.062317636 -0.07687848
v 0.24484113 0.064905636 -0.07687848
v 0.24873434 0.06839907 -0.07687848
v 0.25263438 0.07072611 -0.07687848
v 0.25723678 0.07178857 -0.07687848
v 0.26143292 0.07202844 -0.07687848
v 0.2645515 0.07228027 -0.07687848
v 0.26660904 0.07259954 -0.07687848
v 0.28094563 0.05158509 -0.07687848
v 0.28057352 0.05390609 -0.07687848
v 0.2788851 0.05704378 -0.07687848
v 0.2683198 0.07246233 -0.07687848
v 0.15988386 0.015403613 -0.07687848
v 0.15970846 0.007326733 -0.07687848
v 0.17437051 -0.0059981174 -0.07687848
v 0.22295669 -0.04326644 -0.07654672
v 0.22764198 -0.04013774 -0.07687848
v 0.21722959 -0.04809585 -0.07603463
v 0.19566517 -0.06673373 -0.074058324
v 0.20386639 -0.059364464 -0.07483973
v 0.16494052 -0.01678952 -0.075851075
v 0.20959349 -0.054535057 -0.07535183
v 0.16551423 -0.015260375 -0.07599666
v 0.17538948 0.041205145 -0.07687848
v 0.25446376 7.187678E-05 -0.07687848
v 0.17531137 0.044697404 -0.07687848
v 0.1757246 0.04764318 -0.07687848
v 0.17635666 0.049915742 -0.07687848
v 0.17765026 0.052875638 -0.07687848
v 0.18040039 0.056703884 -0.07687848
v 0.18238515 0.059199452 -0.07687848
v 0.18406591 0.061237413 -0.07687848
v 0.18613602 0.06304555 -0.07687848
v 0.18818222 0.06411986 -0.07687848
v 0.18988697 0.064434215 -0.07687848
v 0.19117455 0.06443492 -0.07687848
v 0.16463101 -0.019401932 -0.07560237
v 0.16241029 -0.02219147 -0.075336784
v 0.1596933 -0.0241129 -0.074987255
v 0.18746395 -0.074103 -0.073276915
v 0.18107206 -0.08005675 -0.072380684
v 0.15580422 -0.025020769 -0.07469656
v 0.15089028 -0.02575074 -0.0743711
v 0.1743989 -0.08793654 -0.071043424
v 0.14432223 -0.02628758 -0.074247964
v 0.16906866 -0.09386023 -0.06983898
v 0.16471317 -0.097683005 -0.069061704
v 0.15876023 -0.10174338 -0.06823613
v 0.1515668 -0.104631186 -0.067648955
v 0.1422272 -0.10655355 -0.06725808
v 0.12788783 -0.02583277 -0.07435324
v 0.118358195 -0.025742574 -0.07437412
v 0.13522248 -0.10799531 -0.06696493
v 0.112543285 -0.027243689 -0.07402667
v 0.10393806 -0.032137763 -0.07289387
v 0.097382806 -0.037529882 -0.07164579
v 0.12821777 -0.1094371 -0.06667178
v 0.124163225 -0.111333326 -0.06627401
v 0.11643063 -0.11388477 -0.06600903
v 0.0916501 -0.043357298 -0.07029696
v 0.1086905 -0.11496641 -0.06602164
v 0.101923816 -0.115160085 -0.0660239
v 0.08702115 -0.05204755 -0.06918539
v 0.099254645 -0.114766955 -0.06601931
v 0.15925895 0.0038125932 -0.07687848
v 0.16405998 -0.0017849983 -0.07687848
v 0.15984432 0.0016269764 -0.07687848
v 0.16148351 -0.00046611932 -0.07687848
v 0.2592285 0.006638787 -0.07687848
v 0.23947485 0.05981732 -0.07687848
v 0.23457722 0.06643978 -0.07687848
v 0.2294414 0.072149426 -0.07687848
v 0.22816809 0.07362701 -0.07687848
v 0.22711812 0.074298255 -0.07687848
v 0.2094173 0.08296776 -0.07687848
v 0.19093879 0.0659281 -0.07687848
v 0.19109896 0.06742886 -0.07687848
v 0.19173618 0.06959844 -0.07687848
v 0.19453524 0.0744606 -0.07687848
v 0.19871943 0.07951812 -0.07687848
v 0.20158516 0.082378745 -0.07687848
v 0.20716722 0.083912544 -0.07687848
v 0.20319617 0.08354793 -0.07687848
v 0.20597719 0.0842586 -0.07687848
v 0.2046117 0.08423094 -0.07687848
v 0.09694832 -0.11270209 -0.065995246
v 0.09282852 -0.10939904 -0.06595674
v 0.08346509 -0.10203612 -0.06587091
v 0.0823922 -0.060737807 -0.06807383
v 0.076784365 -0.09548833 -0.06549964
v 0.071264975 -0.088445984 -0.0654098
v 0.12974982 -0.025155654 -0.07450997
v 0.13344847 -0.025259117 -0.07448602
v 0.13792819 -0.025938347 -0.0743288
v 0.24483688 -0.013422436 -0.07687848
v 0.16024537 0.0262411 -0.07687848
v 0.16097628 0.027905941 -0.07687848
v 0.16217841 0.029755706 -0.07687848
v 0.16377003 0.03208816 -0.07687848
v 0.16806085 0.03621353 -0.07687848
v 0.17235516 0.039812576 -0.07687848
v 0.17436527 0.04104604 -0.07687848
v 0.22928634 -0.038554773 -0.07687848
v 0.16005926 0.023480494 -0.07687848
v 0.23521005 -0.026916748 -0.07687848
v -0.08016068 0.18232383 -0.062478583
v -0.0775857 0.18629625 -0.062478583
v -0.08478844 0.18098623 -0.062478583
v -0.077056736 0.19048144 -0.062478583
v -0.088432804 0.1812015 -0.062478583
v -0.07832769 0.19541109 -0.062478583
v -0.09204873 0.18231426 -0.062478583
v -0.09738039 0.18633647 -0.062478583
v -0.08164288 0.20241559 -0.062478583
v -0.10017705 0.19005193 -0.062478583
v -0.08524271 0.20672205 -0.062478583
v -0.102599695 0.1938058 -0.062478583
v -0.10360366 0.19702956 -0.062478583
v -0.10337285 0.20198785 -0.062478583
v -0.08874435 0.20967641 -0.062478583
v -0.092757106 0.21116523 -0.062478583
v -0.09786653 0.21013544 -0.062478583
v -0.10259264 0.20581368 -0.062478583
v -0.101138234 0.20793214 -0.062478583
v -0.09551277 0.23004353 -0.06594514
v -0.10591533 0.22773032 -0.06574828
v -0.0986679 0.20637238 -0.06436964
v -0.101093195 0.20611012 -0.06435202
v -0.104775585 0.20728469 -0.06443098
v -0.111781955 0.21188216 -0.064740054
v -0.11054863 0.22553544 -0.06560863
v -0.11259061 0.22425394 -0.06554708
v -0.11570396 0.21522747 -0.06496494
v -0.11688232 0.22115378 -0.065363355
v -0.117692724 0.21715045 -0.065094225
v -0.11896249 0.21905015 -0.06522193
v -0.08343403 0.21473031 -0.06493153
v -0.09502945 0.20229648 -0.06409564
v -0.087937854 0.19492887 -0.06360034
v -0.08543416 0.19276938 -0.06345516
v -0.0837165 0.19421458 -0.06355231
v 0.02883707 0.2848363 -0.06635628
v 0.03030751 0.29644975 -0.06635628
v 0.01980879 0.29945228 -0.06635628
v 0.03039732 0.2978838 -0.06635628
v 0.029871017 0.29856202 -0.06635628
v -0.09123516 0.31289965 -0.06635628
v -0.06881547 0.32774982 -0.06635628
v -0.080537565 0.3322554 -0.06635628
v -0.07748318 0.3327494 -0.06635628
v -0.079330355 0.3333279 -0.06635628
v 0.046949707 0.26735058 -0.06635628
v 0.04608532 0.26790202 -0.06635628
v 0.046562802 0.26625678 -0.06635628
v 0.041929893 0.25701866 -0.06635628
v 0.036272477 0.27114022 -0.06635628
v 0.00415019 0.32949248 -0.06635628
v 0.0028101604 0.32931322 -0.06635628
v 0.004883403 0.32829365 -0.06635628
v -0.011110596 0.3239964 -0.06635628
v 0.0077686715 0.3147944 -0.06635628
v -0.037126817 0.33189672 -0.06635628
v -0.038294517 0.3313972 -0.06635628
v -0.036170386 0.33102626 -0.06635628
v -0.047022607 0.32551607 -0.06635628
v -0.03253266 0.32482997 -0.06635628
v 0.043479472 0.24312663 -0.06635628
v 0.04221789 0.24332662 -0.06635628
v 0.043256443 0.24201082 -0.06635628
v 0.030221155 0.22858413 -0.06635628
v 0.035017468 0.24321984 -0.06635628
v -0.12632464 0.24721353 -0.06635628
v -0.12557964 0.24525023 -0.06635628
v -0.12516294 0.24822508 -0.06635628
v -0.05577249 0.31927022 -0.06635628
v 0.034295704 0.24383067 -0.06635628
v -0.121440805 0.28684536 -0.06635628
v -0.12138324 0.28530928 -0.06635628
v -0.12016185 0.2874549 -0.06635628
v -0.0281263 0.3168243 -0.06635628
v -0.12188541 0.24975033 -0.06635628
v -0.12157979 0.2391099 -0.06635628
v -0.11582979 0.25235042 -0.06635628
v -0.11695818 0.2328353 -0.06635628
v -0.110711634 0.2249723 -0.06635628
v -0.10766517 0.2254256 -0.06635628
v 0.011677278 0.2998302 -0.06635628
v 0.026669977 0.2736269 -0.06635628
v 0.010591306 0.30078954 -0.06635628
v -0.102896094 0.29224277 -0.06635628
v 0.0087292455 0.18515773 -0.06635628
v 0.0125099495 0.19273414 -0.06635628
v 0.0071097272 0.18473315 -0.06635628
v 0.0060262834 0.18510525 -0.06635628
v -0.11185159 0.28936142 -0.06635628
v -0.11543699 0.25342363 -0.06635628
v -0.10502704 0.2905925 -0.06635628
v -0.08487686 0.17245036 -0.06635628
v -0.07398129 0.16570367 -0.06635628
v -0.08945446 0.19075207 -0.06635628
v -0.053253558 0.15261032 -0.06635628
v -0.050516903 0.15280712 -0.06635628
v -0.055304922 0.15330458 -0.06635628
v 0.032928325 0.22058895 -0.06635628
v 0.031910043 0.22445586 -0.06635628
v 0.032923155 0.21665023 -0.06635628
v 0.032030273 0.210778 -0.06635628
v 0.029865896 0.20597509 -0.06635628
v 0.017136278 0.19416921 -0.06635628
v -0.03329454 0.15491702 -0.06635628
v -0.022789149 0.16294925 -0.06635628
v -0.036317103 0.15370771 -0.06635628
v 0.022343446 0.19743983 -0.06635628
v 0.026004368 0.20081548 -0.06635628
v -0.015146623 0.16868465 -0.06635628
v -0.104864456 0.22581697 -0.06635628
v -0.09437155 0.20773247 -0.06635628
v -0.06543582 0.16026556 -0.06635628
v -0.0071140113 0.17510885 -0.06635628
vt 0.8198242 0.49975586
vt 0.8276367 0.5004883
vt 0.81347656 0.49414062
vt 0.80908203 0.4831543
vt 0.8095703 0.46826172
vt 0.8310547 0.50097656
vt 0.8334961 0.5004883
vt 0.8417969 0.49560547
vt 0.85058594 0.49121094
vt 0.8125 0.45336914
vt 0.8676758 0.4831543
vt 0.81640625 0.44262695
vt 0.8227539 0.43676758
vt 0.8251953 0.43481445
vt 0.8388672 0.42993164
vt 0.85009766 0.42626953
vt 0.86035156 0.42407227
vt 0.8774414 0.47973633
vt 0.8691406 0.42285156
vt 0.88964844 0.47607422
vt 0.8911133 0.42163086
vt 0.90185547 0.4736328
vt 0.89941406 0.4194336
vt 0.9091797 0.4729004
vt 0.9067383 0.4182129
vt 0.91748047 0.4724121
vt 0.91259766 0.41796875
vt 0.91796875 0.4182129
vt 0.9326172 0.41918945
vt 0.92578125 0.4729004
vt 0.94384766 0.42138672
vt 0.9536133 0.4248047
vt 0.96240234 0.43115234
vt 0.96777344 0.4423828
vt 0.97216797 0.45385742
vt 0.9296875 0.47631836
vt 0.9736328 0.4638672
vt 0.93408203 0.4807129
vt 0.97314453 0.4741211
vt 0.96484375 0.4868164
vt 0.9375 0.48364258
vt 0.94384766 0.48754883
vt 0.94873047 0.4892578
vt 0.9536133 0.49023438
vt 0.9589844 0.49023438
vt 0.9511719 0.25170898
vt 0.9555664 0.25097656
vt 0.9506836 0.22595215
vt 0.95947266 0.24914551
vt 0.96191406 0.24560547
vt 0.96533203 0.24182129
vt 0.9560547 0.2241211
vt 0.9682617 0.23754883
vt 0.9604492 0.22338867
vt 0.96484375 0.22631836
vt 0.96972656 0.234375
vt 0.96875 0.23095703
vt 0.94433594 0.25
vt 0.9404297 0.24816895
vt 0.93652344 0.24389648
vt 0.94628906 0.22290039
vt 0.93310547 0.2409668
vt 0.94091797 0.22167969
vt 0.9355469 0.22131348
vt 0.9277344 0.23815918
vt 0.92871094 0.22180176
vt 0.9243164 0.2232666
vt 0.9213867 0.22583008
vt 0.92041016 0.22949219
vt 0.92333984 0.2368164
vt 0.92041016 0.23657227
vt 0.9199219 0.23474121
vt 0.91552734 0.29296875
vt 0.9145508 0.29125977
vt 0.88623047 0.33251953
vt 0.9121094 0.2890625
vt 0.9082031 0.28759766
vt 0.88671875 0.28759766
vt 0.8803711 0.2944336
vt 0.88378906 0.33203125
vt 0.8808594 0.3310547
vt 0.87646484 0.32836914
vt 0.87353516 0.3095703
vt 0.8725586 0.31640625
vt 0.87597656 0.30810547
vt 0.8779297 0.30810547
vt 0.8774414 0.30004883
vt 0.8779297 0.30249023
vt 0.8720703 0.32373047
vt 0.87353516 0.3256836
vt 0.8720703 0.32104492
vt 0.8955078 0.34570312
vt 0.9350586 0.30517578
vt 0.8955078 0.34423828
vt 0.89160156 0.33984375
vt 0.8876953 0.33496094
vt 0.93310547 0.30273438
vt 0.92822266 0.2956543
vt 0.92626953 0.2944336
vt 0.92089844 0.29370117
vt 0.9379883 0.30639648
vt 0.9580078 0.32885742
vt 0.95654297 0.32495117
vt 0.92041016 0.36743164
vt 0.9555664 0.31982422
vt 0.91259766 0.3671875
vt 0.91015625 0.36621094
vt 0.90771484 0.36450195
vt 0.9033203 0.36157227
vt 0.89941406 0.359375
vt 0.89746094 0.35791016
vt 0.8959961 0.35473633
vt 0.89501953 0.3515625
vt 0.95458984 0.31567383
vt 0.9536133 0.3112793
vt 0.9526367 0.3088379
vt 0.9506836 0.30786133
vt 0.9453125 0.3071289
vt 0.9238281 0.37402344
vt 0.9277344 0.37939453
vt 0.93115234 0.38354492
vt 0.93408203 0.3857422
vt 0.9375 0.38623047
vt 0.9433594 0.3852539
vt 0.94970703 0.38354492
vt 0.95458984 0.38110352
vt 0.9560547 0.37939453
vt 0.95703125 0.37646484
vt 0.9633789 0.35253906
vt 0.9658203 0.3449707
vt 0.96875 0.33789062
vt 0.96191406 0.32958984
vt 0.9658203 0.33154297
vt 0.96875 0.33447266
vt 0.6611328 0.4501953
vt 0.61083984 0.28686523
vt 0.62646484 0.4555664
vt 0.6020508 0.28955078
vt 0.6015625 0.4567871
vt 0.59521484 0.29077148
vt 0.5810547 0.45361328
vt 0.5654297 0.44506836
vt 0.55029297 0.42163086
vt 0.54345703 0.40771484
vt 0.54296875 0.3876953
vt 0.54785156 0.36279297
vt 0.5493164 0.33984375
vt 0.5566406 0.31982422
vt 0.5644531 0.3100586
vt 0.5683594 0.30639648
vt 0.5722656 0.30297852
vt 0.5761719 0.29956055
vt 0.57958984 0.29711914
vt 0.5839844 0.29492188
vt 0.5883789 0.2927246
vt 0.9692383 0.035614014
vt 0.79003906 0.035217285
vt 0.92529297 0.109558105
vt 0.7885742 0.046417236
vt 0.78515625 0.06149292
vt 0.75439453 0.13220215
vt 0.9033203 0.16040039
vt 0.7558594 0.12585449
vt 0.78125 0.07269287
vt 0.9199219 0.13806152
vt 0.7573242 0.11871338
vt 0.9189453 0.14111328
vt 0.76904297 0.09057617
vt 0.75927734 0.10333252
vt 0.7583008 0.105163574
vt 0.7578125 0.10784912
vt 0.7578125 0.11199951
vt 0.7080078 0.4260254
vt 0.8984375 0.18151855
vt 0.8955078 0.19226074
vt 0.8925781 0.20141602
vt 0.8876953 0.21069336
vt 0.8798828 0.22241211
vt 0.7207031 0.17626953
vt 0.84765625 0.26757812
vt 0.7973633 0.32788086
vt 0.73828125 0.40942383
vt 0.6459961 0.24975586
vt 0.7578125 0.39648438
vt 0.75927734 0.3947754
vt 0.7758789 0.3564453
vt 0.71875 0.17687988
vt 0.78564453 0.34545898
vt 0.7944336 0.3334961
vt 0.03515625 0.025253296
vt 0.058746338 0.08111572
vt 0.27514648 0.025360107
vt 0.074645996 0.1295166
vt 0.28198242 0.05496216
vt 0.2866211 0.08227539
vt 0.29077148 0.10467529
vt 0.07989502 0.14868164
vt 0.10101318 0.21386719
vt 0.2939453 0.12445068
vt 0.29541016 0.13635254
vt 0.2956543 0.14257812
vt 0.29907227 0.15112305
vt 0.12176514 0.2836914
vt 0.31323242 0.18151855
vt 0.32666016 0.21447754
vt 0.3334961 0.23352051
vt 0.14367676 0.36889648
vt 0.34375 0.26245117
vt 0.34960938 0.28076172
vt 0.35058594 0.28686523
vt 0.36108398 0.31201172
vt 0.3684082 0.3330078
vt 0.88720703 0.9604492
vt 0.91552734 0.9345703
vt 0.87060547 0.9458008
vt 0.859375 0.9248047
vt 0.8569336 0.89404297
vt 0.9199219 0.9291992
vt 0.92285156 0.9238281
vt 0.9248047 0.91845703
vt 0.9272461 0.9067383
vt 0.9296875 0.8886719
vt 0.8564453 0.8652344
vt 0.93066406 0.87597656
vt 0.93066406 0.859375
vt 0.859375 0.83154297
vt 0.9296875 0.8491211
vt 0.92871094 0.83691406
vt 0.8647461 0.8051758
vt 0.9326172 0.82910156
vt 0.87158203 0.7841797
vt 0.9370117 0.8203125
vt 0.8833008 0.77001953
vt 0.8911133 0.7675781
vt 0.90185547 0.76416016
vt 0.9423828 0.8095703
vt 0.91064453 0.7636719
vt 0.91796875 0.7631836
vt 0.9482422 0.7949219
vt 0.92822266 0.7651367
vt 0.9394531 0.7680664
vt 0.9511719 0.7861328
vt 0.9448242 0.7705078
vt 0.9526367 0.7788086
vt 0.9511719 0.7734375
vt 0.95214844 0.7753906
vt 0.1673584 0.46142578
vt 0.37060547 0.3474121
vt 0.15661621 0.42456055
vt 0.3713379 0.3400879
vt 0.37182617 0.34423828
vt 0.45117188 0.4086914
vt 0.39794922 0.3876953
vt 0.20361328 0.56591797
vt 0.1821289 0.51416016
vt 0.16601562 0.47216797
vt 0.16503906 0.4675293
vt 0.16589355 0.4633789
vt 0.3959961 0.38354492
vt 0.39135742 0.37402344
vt 0.38476562 0.36401367
vt 0.3774414 0.3540039
vt 0.37353516 0.34936523
vt 0.50097656 0.40014648
vt 0.50097656 0.4013672
vt 0.49414062 0.41259766
vt 0.48779297 0.42138672
vt 0.47998047 0.43139648
vt 0.46850586 0.4440918
vt 0.46875 0.44873047
vt 0.46484375 0.46289062
vt 0.46313477 0.4650879
vt 0.45922852 0.47753906
vt 0.4489746 0.5205078
vt 0.44921875 0.52441406
vt 0.4489746 0.5292969
vt 0.44726562 0.5371094
vt 0.44067383 0.5576172
vt 0.43823242 0.5595703
vt 0.42749023 0.59277344
vt 0.20654297 0.5854492
vt 0.20727539 0.6010742
vt 0.42700195 0.60791016
vt 0.20690918 0.6123047
vt 0.42773438 0.62109375
vt 0.2055664 0.625
vt 0.43115234 0.6660156
vt 0.20422363 0.6328125
vt 0.20153809 0.64697266
vt 0.19702148 0.67333984
vt 0.43164062 0.6821289
vt 0.4309082 0.6953125
vt 0.42871094 0.7060547
vt 0.4255371 0.7158203
vt 0.41723633 0.73583984
vt 0.4074707 0.7578125
vt 0.19360352 0.7001953
vt 0.19396973 0.7402344
vt 0.40527344 0.76171875
vt 0.4025879 0.76464844
vt 0.39282227 0.7714844
vt 0.38232422 0.7783203
vt 0.37402344 0.7836914
vt 0.36523438 0.7885742
vt 0.19812012 0.76660156
vt 0.20812988 0.796875
vt 0.21191406 0.80810547
vt 0.21582031 0.8149414
vt 0.21923828 0.8178711
vt 0.22790527 0.82128906
vt 0.2376709 0.8251953
vt 0.28930664 0.87890625
vt 0.29858398 0.8774414
vt 0.28857422 0.8774414
vt 0.2902832 0.86816406
vt 0.31103516 0.87402344
vt 0.29125977 0.86035156
vt 0.2919922 0.8535156
vt 0.3244629 0.87060547
vt 0.29223633 0.8457031
vt 0.33789062 0.8642578
vt 0.34985352 0.8574219
vt 0.3544922 0.85302734
vt 0.35473633 0.8496094
vt 0.35424805 0.84375
vt 0.35302734 0.8339844
vt 0.3725586 0.8100586
vt 0.37060547 0.8095703
vt 0.37353516 0.8120117
vt 0.27905273 0.8457031
vt 0.27661133 0.84375
vt 0.27563477 0.8413086
vt 0.27514648 0.8383789
vt 0.27563477 0.83496094
vt 0.27734375 0.83251953
vt 0.2783203 0.8310547
vt 0.2783203 0.82714844
vt 0.27661133 0.8154297
vt 0.37109375 0.8222656
vt 0.37280273 0.81884766
vt 0.36669922 0.8256836
vt 0.24584961 0.8261719
vt 0.24938965 0.82470703
vt 0.24108887 0.8261719
vt 0.3737793 0.8154297
vt 0.36791992 0.8095703
vt 0.3623047 0.82910156
vt 0.35791016 0.83154297
vt 0.6484375 0.62109375
vt 0.65234375 0.61328125
vt 0.6308594 0.625
vt 0.6772461 0.60058594
vt 0.6479492 0.52441406
vt 0.6386719 0.5258789
vt 0.5620117 0.5722656
vt 0.5629883 0.58740234
vt 0.5756836 0.6098633
vt 0.59765625 0.54052734
vt 0.6152344 0.5336914
vt 0.5620117 0.57958984
vt 0.62841797 0.5283203
vt 0.5649414 0.5654297
vt 0.5966797 0.6225586
vt 0.56933594 0.5576172
vt 0.57421875 0.5522461
vt 0.6171875 0.62646484
vt 0.6855469 0.57958984
vt 0.6699219 0.52734375
vt 0.66015625 0.52490234
vt 0.6904297 0.5605469
vt 0.68115234 0.5336914
vt 0.68896484 0.54345703
vt 0.6875 0.5390625
vt 0.6904297 0.5527344
vt 0.09051514 0.6669922
vt 0.064331055 0.7114258
vt 0.10229492 0.67529297
vt 0.11010742 0.6826172
vt 0.117492676 0.6904297
vt 0.122924805 0.6982422
vt 0.1274414 0.70703125
vt 0.13195801 0.71972656
vt 0.13232422 0.7260742
vt 0.050964355 0.7421875
vt 0.13293457 0.7363281
vt 0.13476562 0.7519531
vt 0.0491333 0.76464844
vt 0.05178833 0.76953125
vt 0.054870605 0.77734375
vt 0.13708496 0.7729492
vt 0.057647705 0.7890625
vt 0.13952637 0.7910156
vt 0.06359863 0.8120117
vt 0.14208984 0.80566406
vt 0.07342529 0.8442383
vt 0.14501953 0.81933594
vt 0.14770508 0.8310547
vt 0.14648438 0.8408203
vt 0.0770874 0.8540039
vt 0.08496094 0.8652344
vt 0.10467529 0.8774414
vt 0.12231445 0.8774414
vt 0.14538574 0.8510742
vt 0.14160156 0.8618164
vt 0.13464355 0.87158203
vt 0.58447266 0.021453857
vt 0.58447266 0.022888184
vt 0.5859375 0.021621704
vt 0.58740234 0.022979736
vt 0.58496094 0.025543213
vt 0.58935547 0.027008057
vt 0.58496094 0.03189087
vt 0.59033203 0.03265381
vt 0.53515625 0.073791504
vt 0.48632812 0.11639404
vt 0.5932617 0.07904053
vt 0.5913086 0.040863037
vt 0.58154297 0.039154053
vt 0.59228516 0.05053711
vt 0.5776367 0.04458618
vt 0.57373047 0.049621582
vt 0.59375 0.059783936
vt 0.5683594 0.055145264
vt 0.46166992 0.05999756
vt 0.45996094 0.060668945
vt 0.46289062 0.060455322
vt 0.46362305 0.06225586
vt 0.45922852 0.062927246
vt 0.45922852 0.06555176
vt 0.46435547 0.06451416
vt 0.46069336 0.06921387
vt 0.4658203 0.066345215
vt 0.46313477 0.074035645
vt 0.4699707 0.068115234
vt 0.46435547 0.07824707
vt 0.47607422 0.070617676
vt 0.46777344 0.084472656
vt 0.4873047 0.07366943
vt 0.47265625 0.09307861
vt 0.5 0.075683594
vt 0.56103516 0.061676025
vt 0.4794922 0.10473633
vt 0.50927734 0.07635498
vt 0.59375 0.07159424
vt 0.5175781 0.076416016
vt 0.5263672 0.07556152
vt 0.55371094 0.06738281
vt 0.48779297 0.125
vt 0.48950195 0.13598633
vt 0.49194336 0.14453125
vt 0.59472656 0.08062744
vt 0.59765625 0.08477783
vt 0.60058594 0.09100342
vt 0.6035156 0.09832764
vt 0.4963379 0.1583252
vt 0.6074219 0.10534668
vt 0.61035156 0.11401367
vt 0.6123047 0.12231445
vt 0.61328125 0.1295166
vt 0.61328125 0.13574219
vt 0.6118164 0.1451416
vt 0.5024414 0.17480469
vt 0.61083984 0.15490723
vt 0.60791016 0.17700195
vt 0.5097656 0.1899414
vt 0.5151367 0.20031738
vt 0.6035156 0.19580078
vt 0.51953125 0.20581055
vt 0.5239258 0.21032715
vt 0.5317383 0.21435547
vt 0.5415039 0.21875
vt 0.5576172 0.2232666
vt 0.56347656 0.22424316
vt 0.59814453 0.21142578
vt 0.5683594 0.22546387
vt 0.57421875 0.22631836
vt 0.5800781 0.22668457
vt 0.5854492 0.22595215
vt 0.5932617 0.22167969
vt 0.5908203 0.22399902
vt 0.5917969 0.22338867
vt 0.54589844 0.07067871
vt 0.65722656 0.0703125
vt 0.65625 0.07702637
vt 0.6635742 0.064575195
vt 0.6665039 0.0927124
vt 0.67089844 0.06112671
vt 0.6699219 0.09423828
vt 0.67626953 0.09234619
vt 0.68115234 0.0904541
vt 0.67822266 0.058746338
vt 0.6875 0.05883789
vt 0.6875 0.089538574
vt 0.69628906 0.08892822
vt 0.69628906 0.059539795
vt 0.70166016 0.060150146
vt 0.70166016 0.08892822
vt 0.7080078 0.060913086
vt 0.7114258 0.062561035
vt 0.71972656 0.068847656
vt 0.70703125 0.090270996
vt 0.7236328 0.0736084
vt 0.7241211 0.07739258
vt 0.7216797 0.08319092
vt 0.71728516 0.08782959
vt 0.7109375 0.09088135
vt 0.7128906 0.09057617
vt 0.47094727 0.30688477
vt 0.4663086 0.26489258
vt 0.42797852 0.296875
vt 0.4819336 0.29858398
vt 0.48535156 0.2956543
vt 0.48657227 0.29296875
vt 0.48876953 0.27807617
vt 0.49072266 0.27294922
vt 0.4399414 0.31518555
vt 0.46899414 0.3100586
vt 0.4638672 0.3149414
vt 0.45922852 0.31835938
vt 0.4555664 0.31982422
vt 0.44677734 0.31982422
vt 0.4428711 0.31860352
vt 0.44360352 0.24365234
vt 0.43286133 0.23327637
vt 0.4020996 0.2529297
vt 0.41503906 0.27441406
vt 0.40234375 0.24743652
vt 0.42089844 0.28442383
vt 0.45166016 0.2446289
vt 0.45629883 0.25097656
vt 0.71972656 0.70166016
vt 0.7128906 0.7089844
vt 0.75683594 0.7470703
vt 0.7553711 0.7480469
vt 0.71240234 0.70947266
vt 0.7114258 0.71240234
vt 0.7109375 0.7285156
vt 0.70996094 0.7348633
vt 0.75390625 0.7504883
vt 0.7519531 0.75341797
vt 0.7470703 0.7578125
vt 0.7426758 0.7602539
vt 0.7373047 0.76171875
vt 0.7324219 0.76171875
vt 0.72802734 0.7626953
vt 0.72558594 0.7631836
vt 0.7089844 0.73779297
vt 0.70947266 0.74072266
vt 0.71191406 0.7441406
vt 0.7246094 0.76220703
vt 0.8520508 0.6948242
vt 0.85253906 0.6855469
vt 0.83496094 0.6699219
vt 0.77783203 0.6254883
vt 0.77197266 0.62939453
vt 0.7841797 0.6201172
vt 0.8100586 0.59765625
vt 0.80029297 0.6064453
vt 0.8461914 0.6567383
vt 0.79345703 0.6123047
vt 0.8457031 0.6586914
vt 0.8339844 0.72558594
vt 0.7402344 0.6767578
vt 0.8339844 0.7294922
vt 0.8334961 0.73339844
vt 0.83251953 0.73583984
vt 0.8310547 0.7392578
vt 0.828125 0.7441406
vt 0.8256836 0.7470703
vt 0.82373047 0.74902344
vt 0.82128906 0.75146484
vt 0.81884766 0.7524414
vt 0.81689453 0.7529297
vt 0.8154297 0.7529297
vt 0.8466797 0.6538086
vt 0.8491211 0.6503906
vt 0.85253906 0.6484375
vt 0.8198242 0.58935547
vt 0.82714844 0.58203125
vt 0.8569336 0.64697266
vt 0.86279297 0.6464844
vt 0.83496094 0.5727539
vt 0.87060547 0.6455078
vt 0.8413086 0.56591797
vt 0.8466797 0.56152344
vt 0.8535156 0.5566406
vt 0.8618164 0.55322266
vt 0.8730469 0.55078125
vt 0.8901367 0.6464844
vt 0.9013672 0.6464844
vt 0.88134766 0.5493164
vt 0.9082031 0.64453125
vt 0.91845703 0.6386719
vt 0.92626953 0.6323242
vt 0.88964844 0.5473633
vt 0.89501953 0.5449219
vt 0.9038086 0.5419922
vt 0.93310547 0.6254883
vt 0.91308594 0.5410156
vt 0.92089844 0.54052734
vt 0.93847656 0.6152344
vt 0.9238281 0.5415039
vt 0.85302734 0.68115234
vt 0.84716797 0.6748047
vt 0.8520508 0.67871094
vt 0.85009766 0.67626953
vt 0.7348633 0.6845703
vt 0.7583008 0.7475586
vt 0.7636719 0.7553711
vt 0.77001953 0.76220703
vt 0.7714844 0.7636719
vt 0.77246094 0.76464844
vt 0.79345703 0.77490234
vt 0.8154297 0.7548828
vt 0.8154297 0.75634766
vt 0.8144531 0.75927734
vt 0.81103516 0.7651367
vt 0.80615234 0.7709961
vt 0.8027344 0.77441406
vt 0.7963867 0.7758789
vt 0.80078125 0.7758789
vt 0.79785156 0.7763672
vt 0.7993164 0.7763672
vt 0.9267578 0.54345703
vt 0.9316406 0.5473633
vt 0.9423828 0.55615234
vt 0.94384766 0.60498047
vt 0.9501953 0.56396484
vt 0.9560547 0.57177734
vt 0.8876953 0.64697266
vt 0.8833008 0.64697266
vt 0.87841797 0.6459961
vt 0.7519531 0.6611328
vt 0.8515625 0.7080078
vt 0.8510742 0.70996094
vt 0.8496094 0.71191406
vt 0.84765625 0.71484375
vt 0.84277344 0.71972656
vt 0.83740234 0.7241211
vt 0.83496094 0.72558594
vt 0.77001953 0.63134766
vt 0.8520508 0.70458984
vt 0.7631836 0.64501953
vt 0.030303955 0.23522949
vt 0.027267456 0.23999023
vt 0.035736084 0.23364258
vt 0.026641846 0.24487305
vt 0.040039062 0.23400879
vt 0.028137207 0.25073242
vt 0.044311523 0.23522949
vt 0.050598145 0.23999023
vt 0.032043457 0.2590332
vt 0.053894043 0.24438477
vt 0.0362854 0.26391602
vt 0.056732178 0.2487793
vt 0.057922363 0.25268555
vt 0.057647705 0.25854492
vt 0.040405273 0.26757812
vt 0.045135498 0.2692871
vt 0.05114746 0.2680664
vt 0.056732178 0.26293945
vt 0.055023193 0.26538086
vt 0.05682373 0.95996094
vt 0.06933594 0.95703125
vt 0.06060791 0.93115234
vt 0.0635376 0.93115234
vt 0.067993164 0.9326172
vt 0.076416016 0.9379883
vt 0.0748291 0.95458984
vt 0.07733154 0.9526367
vt 0.08111572 0.94189453
vt 0.08251953 0.94921875
vt 0.083496094 0.94433594
vt 0.08508301 0.94677734
vt 0.042266846 0.94140625
vt 0.05621338 0.92626953
vt 0.047698975 0.91748047
vt 0.044677734 0.91503906
vt 0.04260254 0.9165039
vt 0.4658203 0.83496094
vt 0.46411133 0.84814453
vt 0.4765625 0.8520508
vt 0.46411133 0.85009766
vt 0.4645996 0.8510742
vt 0.6069336 0.8676758
vt 0.5805664 0.8852539
vt 0.5942383 0.890625
vt 0.5908203 0.8911133
vt 0.59277344 0.89160156
vt 0.44458008 0.81396484
vt 0.44555664 0.8149414
vt 0.44506836 0.8129883
vt 0.45043945 0.8022461
vt 0.45703125 0.81884766
vt 0.49487305 0.88720703
vt 0.49658203 0.88720703
vt 0.49414062 0.8857422
vt 0.5126953 0.8808594
vt 0.49072266 0.8701172
vt 0.54345703 0.8901367
vt 0.5449219 0.88964844
vt 0.54248047 0.88916016
vt 0.5551758 0.8823242
vt 0.53808594 0.88183594
vt 0.44873047 0.78564453
vt 0.4501953 0.7861328
vt 0.4489746 0.7841797
vt 0.46435547 0.7685547
vt 0.4584961 0.78564453
vt 0.6484375 0.79052734
vt 0.64746094 0.78808594
vt 0.64697266 0.7915039
vt 0.5654297 0.875
vt 0.45947266 0.7866211
vt 0.6425781 0.83691406
vt 0.6425781 0.8354492
vt 0.6411133 0.8378906
vt 0.53271484 0.8725586
vt 0.6430664 0.79345703
vt 0.6425781 0.7807617
vt 0.6357422 0.7963867
vt 0.63720703 0.7734375
vt 0.6298828 0.76464844
vt 0.62646484 0.7651367
vt 0.48608398 0.85253906
vt 0.46850586 0.82177734
vt 0.4873047 0.8535156
vt 0.62060547 0.8432617
vt 0.48950195 0.71777344
vt 0.48510742 0.7265625
vt 0.49145508 0.71728516
vt 0.49267578 0.71728516
vt 0.63134766 0.83984375
vt 0.6352539 0.79785156
vt 0.6230469 0.8413086
vt 0.5996094 0.7026367
vt 0.58691406 0.6948242
vt 0.60498047 0.7241211
vt 0.5625 0.6791992
vt 0.55908203 0.6796875
vt 0.5649414 0.6801758
vt 0.46118164 0.75927734
vt 0.4621582 0.7636719
vt 0.46118164 0.75439453
vt 0.4621582 0.7475586
vt 0.4645996 0.7421875
vt 0.47973633 0.72802734
vt 0.5390625 0.6821289
vt 0.5263672 0.69140625
vt 0.54248047 0.68066406
vt 0.47338867 0.7319336
vt 0.46923828 0.73583984
vt 0.5175781 0.6982422
vt 0.6230469 0.7651367
vt 0.61083984 0.7441406
vt 0.57666016 0.68847656
vt 0.5083008 0.7055664
vn -0 0 -1
vn -0 0 -1
vn -0 0 -1
vn -0 0 -1
vn -0 0 -1
vn -0 0 -1
vn -0 0 -1
vn -0 0 -1
vn -0 0 -1
vn -0 0 -1
vn -0 0 -1
vn -0 0 -1
vn -0 0 -1
vn -0 0 -1
vn -0 0 -1
vn -0 0 -1
vn -0 0 -1
vn -0 0 -1
vn -0 0 -1
vn -0 0 -1
vn -0 0 -1
vn -0 0 -1
vn -0 0 -1
vn -0 0 -1
vn -0 0 -1
vn -0 0 -1
vn -0 0 -1
vn -0 0 -1
vn -0 0 -1
vn -0 0 -1
vn -0 0 -1
vn -0 0 -1
vn -0 0 -1
vn -0 0 -1
vn -0 0 -1
vn -0 0 -1
vn -0 0 -1
vn -0 0 -1
vn -0 0 -1
vn -0 0 -1
vn -0 0 -1
vn -0 0 -1
vn -0 0 -1
vn -0 0 -1
vn -0 0 -1
vn -0 0 -1
vn -0 0 -1
vn -0 0 -1
vn -0 0 -1
vn -0 0 -1
vn -0 0 -1
vn -0 0 -1
vn -0 0 -1
vn -0 0 -1
vn -0 0 -1
vn -0 0 -1
vn -0 0 -1
vn -0 0 -1
vn -0 0 -1
vn -0 0 -1
vn -0 0 -1
vn -0 0 -1
vn -0 0 -1
vn -0 0 -1
vn -0 0 -1
vn -0 0 -1
vn -0 0 -1
vn -0 0 -1
vn -0 0 -1
vn -0 0 -1
vn -0 0 -1
vn -0 0 -1
vn -0 0 -1
vn -0 0 -1
vn -0 0 -1
vn -0 0 -1
vn -0 0 -1
vn -0 0 -1
vn -0 0 -1
vn -0 0 -1
vn -0 0 -1
vn -0 0 -1
vn -0 0 -1
vn -0 0 -1
vn -0 0 -1
vn -0 0 -1
vn -0 0 -1
vn -0 0 -1
vn -0 0 -1
vn -0 0 -1
vn -0 0 -1
vn -0 0 -1
vn -0 0 -1
vn -0 0 -1
vn -0 0 -1
vn -0 0 -1
vn -0 0 -1
vn -0 0 -1
vn -0 0 -1
vn -0 0 -1
vn -0 0 -1
vn -0 0 -1
vn -0 0 -1
vn -0 0 -1
vn -0 0 -1
vn -0 0 -1
vn -0 0 -1
vn -0 0 -1
vn -0 0 -1
vn -0 0 -1
vn -0 0 -1
vn -0 0 -1
vn -0 0 -1
vn -0 0 -1
vn -0 0 -1
vn -0 0 -1
vn -0 0 -1
vn -0 0 -1
vn -0 0 -1
vn -0 0 -1
vn -0 0 -1
vn -0 0 -1
vn -0 0 -1
vn -0 0 -1
vn -0 0 -1
vn -0 0 -1
vn -0 0 -1
vn -0 0 -1
vn -0 0 -1
vn -0 0 -1
vn -0 0 -1
vn -0 0 -1
vn -0 0 -1
vn -0 0 -1
vn -0 0 -1
vn -0 0 -1
vn -0 0 -1
vn -0 0 -1
vn -0 0 -1
vn -0 0 -1
vn -0 0 -1
vn -0 0 -1
vn -0 0 -1
vn -0 0 -1
vn -0 0 -1
vn -0 0 -1
vn -0 0 -1
vn -0 0 -1
vn -0 0 -1
vn -0 0 -1
vn -0 0 -1
vn -0 0 -1
vn -0 0 -1
vn -0 0 -1
vn -0 0 -1
vn -0 0 -1
vn -0 0 -1
vn -0 0 -1
vn -0 0 -1
vn -0 0 -1
vn -0 0 -1
vn -0 0 -1
vn -0 0 -1
vn -0 0 -1
vn -0 0 -1
vn -0 0 -1
vn -0 0 -1
vn -0 0 -1
vn -0 0 -1
vn -0 0 -1
vn -0 0 -1
vn -0 0 -1
vn -0 0 -1
vn -0 0 -1
vn -0 0 -1
vn -0 0 -1
vn -0 0 -1
vn -0 0 -1
vn -0 0 -1
vn -0 0 -1
vn -0 0 -1
vn -0 0 -1
vn -0 0 -1
vn -0 0 -1
vn -0 0 -1
vn -0 0 -1
vn -0 0 -1
vn -0 0 -1
vn -0 0 -1
vn -0 0 -1
vn -0 0 -1
vn -0 0 -1
vn -0 0 -1
vn -0 0 -1
vn -0 0 -1
vn -0 0 -1
vn -0 0 -1
vn -0 0 -1
vn -0 0 -1
vn -0 0 -1
vn -0 0 -1
vn -0 0 -1
vn -0 0 -1
vn -0 0 -1
vn -0 0 -1
vn -0 0 -1
vn -0 0 -1
vn -0 0 -1
vn -0 0 -1
vn -0 0 -1
vn -0 0 -1
vn -0 0 -1
vn -0 0 -1
vn -0 0 -1
vn -0 0 -1
vn -0 0 -1
vn -0 0 -1
vn -0 0 -1
vn -0 0 -1
vn -0 0 -1
vn -0 0 -1
vn -0 0 -1
vn -0 0 -1
vn -0 0 -1
vn -0 0 -1
vn -0 0 -1
vn -0 0 -1
vn -0 0 -1
vn -0 0 -1
vn -0 0 -1
vn -0 0 -1
vn -0 0 -1
vn -0 0 -1
vn -0 0 -1
vn -0 0 -1
vn -0 0 -1
vn -0 0 -1
vn -0 0 -1
vn -0 0 -1
vn -0 0 -1
vn -0 0 -1
vn -0 0 -1
vn -0 0 -1
vn -0 0 -1
vn -0 0 -1
vn -0 0 -1
vn -0 0 -1
vn -0 0 -1
vn -0 0 -1
vn -0 0 -1
vn -0 0 -1
vn -0 0 -1
vn -0 0 -1
vn -0 0 -1
vn -0 0 -1
vn -0 0 -1
vn -0 0 -1
vn -0 0 -1
vn -0 0 -1
vn -0 0 -1
vn -0 0 -1
vn -0 0 -1
vn -0 0 -1
vn -0 0 -1
vn -0 0 -1
vn -0 0 -1
vn -0 0 -1
vn -0 0 -1
vn -0 0 -1
vn -0 0 -1
vn -0 0 -1
vn -0 0 -1
vn -0 0 -1
vn -0 0 -1
vn -0 0 -1
vn -0 0 -1
vn -0 0 -1
vn -0 0 -1
vn -0 0 -1
vn -0 0 -1
vn -0 0 -1
vn -0 0 -1
vn -0 0 -1
vn -0 0 -1
vn -0 0 -1
vn -0 0 -1
vn -0 0 -1
vn -0 0 -1
vn -0 0 -1
vn -0 0 -1
vn -0 0 -1
vn -0 0 -1
vn -0 0 -1
vn -0 0 -1
vn -0 0 -1
vn -0 0 -1
vn -0 0 -1
vn -0 0 -1
vn -0 0 -1
vn -0 0 -1
vn -0 0 -1
vn -0 0 -1
vn -0 0 -1
vn -0 0 -1
vn -0 0 -1
vn -0 0 -1
vn -0 0 -1
vn -0 0 -1
vn -0 0 -1
vn -0 0 -1
vn -0 0 -1
vn -0 0 -1
vn -0 0 -1
vn -0 0 -1
vn -0 0 -1
vn -0 0 -1
vn -0 0 -1
vn -0 0 -1
vn -0 0 -1
vn -0 0 -1
vn -0 0 -1
vn -0 0 -1
vn -0 0 -1
vn -0 0 -1
vn -0 0 -1
vn -0 0 -1
vn -0 0 -1
vn -0 0 -1
vn -0 0 -1
vn -0 0 -1
vn -0 0 -1
vn -0 0 -1
vn -0 0 -1
vn -0 0 -1
vn -0 0 -1
vn -0 0 -1
vn -0 0 -1
vn -0 0 -1
vn -0 0 -1
vn -0 0 -1
vn -0 0 -1
vn -0 0 -1
vn -0 0 -1
vn -0 0 -1
vn -0 0 -1
vn -0 0 -1
vn -0 0 -1
vn -0 0 -1
vn -0 0 -1
vn -0 0 -1
vn -0 0 -1
vn -0 0 -1
vn -0 0 -1
vn -0 0 -1
vn -0 0 -1
vn -0 0 -1
vn -0 0 -1
vn -0 0 -1
vn -0 0 -1
vn -0 0 -1
vn -0 0 -1
vn -0 0 -1
vn -0 0 -1
vn -0 0 -1
vn -0 0 -1
vn -0 0 -1
vn -0 0 -1
vn -0 0 -1
vn -0 0 -1
vn -0 0 -1
vn -0 0 -1
vn -0 0 -1
vn -0 0 -1
vn -0 0 -1
vn -0 0 -1
vn -0 0 -1
vn -0 0 -1
vn -0 0 -1
vn -0 0 -1
vn -0 0 -1
vn -0 0 -1
vn -0 0 -1
vn -0 0 -1
vn -0 0 -1
vn -0 0 -1
vn -0 0 -1
vn -0 0 -1
vn -0 0 -1
vn -0 0 -1
vn -0 0 -1
vn -0 0 -1
vn -0 0 -1
vn -0 0 -1
vn -0 0 -1
vn -0 0 -1
vn -0 0 -1
vn -0 0 -1
vn -0 0 -1
vn -0 0 -1
vn -0 0 -1
vn -0 0 -1
vn -0 0 -1
vn -0 0 -1
vn -0 0 -1
vn -0 0 -1
vn -0 0 -1
vn -0 0 -1
vn -0 0 -1
vn -0 0 -1
vn -0 0 -1
vn -0 0 -1
vn -0 0 -1
vn -0 0 -1
vn -0 0 -1
vn -0 0 -1
vn -0 0 -1
vn -0 0 -1
vn -0 0 -1
vn -0 0 -1
vn -0 0 -1
vn -0 0 -1
vn -0 0 -1
vn -0 0 -1
vn -0 0 -1
vn -0 0 -1
vn -0 0 -1
vn -0 0 -1
vn -0 0 -1
vn -0 0 -1
vn -0 0 -1
vn -0 0 -1
vn -0 0 -1
vn -0 0 -1
vn -0 0 -1
vn -0 0 -1
vn -0 0 -1
vn -0 0 -1
vn -0 0 -1
vn -0 0 -1
vn -0 0 -1
vn -0 0 -1
vn -0 0 -1
vn -0 0 -1
vn -0 0 -1
vn -0 0 -1
vn -0 0 -1
vn -0 0 -1
vn -0 0 -1
vn -0 0 -1
vn -0 0 -1
vn -0 0 -1
vn -0 0 -1
vn -0 0 -1
vn -0 0 -1
vn -0 0 -1
vn -0 0 -1
vn -0 0 -1
vn -0 0 -1
vn -0 0 -1
vn -0 0 -1
vn -0 0 -1
vn -0 0 -1
vn -0 0 -1
vn -0 0 -1
vn -0 0 -1
vn -0 0 -1
vn -0 0 -1
vn -0 0 -1
vn -0 0 -1
vn -0 0 -1
vn -0 0 -1
vn -0 0 -1
vn -0 0 -1
vn -0 0 -1
vn -0 0 -1
vn -0 0 -1
vn -0 0 -1
vn -0 0 -1
vn -0 0 -1
vn -0 0 -1
vn -0 0 -1
vn -0 0 -1
vn -0 0 -1
vn -0 0 -1
vn -0 0 -1
vn -0 0 -1
vn -0 0 -1
vn -0 0 -1
vn -0 0 -1
vn -0 0 -1
vn -0 0 -1
vn -0 0 -1
vn -0 0 -1
vn -0 0 -1
vn -0 0 -1
vn -0 0 -1
vn -0 0 -1
vn -0 0 -1
vn -0 0 -1
vn -0 0 -1
vn -0 0 -1
vn -0 0 -1
vn -0 0 -1
vn -0 0 -1
vn -0 0 -1
vn -0 0 -1
vn -0 0 -1
vn -0 0 -1
vn -0 0 -1
vn -0 0 -1
vn -0 0 -1
vn -0 0 -1
vn -0 0 -1
vn -0 0 -1
vn -0 0 -1
vn -0 0 -1
vn -0 0 -1
vn -0 0 -1
vn -0 0 -1
vn -0 0 -1
vn -0 0 -1
vn -0 0 -1
vn -0 0 -1
vn -0 0 -1
vn -0 0 -1
vn -0 0 -1
vn -0 0 -1
vn -0 0 -1
vn -0 0 -1
vn -0 0 -1
vn -0 0 -1
vn -0 0 -1
vn -0 0 -1
vn -0 0 -1
vn -0 0 -1
vn -0 0 -1
vn -0 0 -1
vn -0 0 -1
vn -0 0 -1
vn -0 0 -1
vn -0 0 -1
vn -0 0 -1
vn -0 0 -1
vn -0 0 -1
vn -0 0 -1
vn -0 0 -1
vn -0 0 -1
vn -0 0 -1
vn -0 0 -1
vn -0 0 -1
vn -0 0 -1
vn -0 0 -1
vn -0 0 -1
vn -0 0 -1
vn -0 0 -1
vn -0 0 -1
vn -0 0 -1
vn -0 0 -1
vn -0 0 -1
vn -0 0 -1
vn -0 0 -1
vn -0 0 -1
vn -0 0 -1
vn -0 0 -1
vn -0 0 -1
vn -0 0 -1
vn -0 0 -1
vn -0 0 -1
vn -0 0 -1
vn -0 0 -1
vn -0 0 -1
vn -0 0 -1
vn -0 0 -1
vn -0 0 -1
vn -0 0 -1
vn -0 0 -1
vn -0 0 -1
vn -0 0 -1
vn -0 0 -1
vn -0 0 -1
vn -0 0 -1
vn -0 0 -1
vn -0 0 -1
vn -0 0 -1
vn -0 0 -1
vn -0 0 -1
vn -0 0 -1
vn -0 0 -1
vn -0 0 -1
vn -0 0 -1
vn -0 0 -1
vn -0 0 -1
vn -0 0 -1
vn -0 0 -1
vn -0 0 -1
vn -0 0 -1
vn -0 0 -1
vn -0 0 -1
vn -0 0 -1
vn -0 0 -1
vn -0 0 -1
vn -0 0 -1
vn -0 0 -1
vn -0 0 -1
vn -0 0 -1
vn -0 0 -1
vn -0 0 -1
vn -0 0 -1
vn -0 0 -1
vn -0 0 -1
vn -0 0 -1
vn -0 0 -1
vn -0 0 -1
vn -0 0 -1
vn -0 0 -1
vn -0 0 -1
vn -0 0 -1
vn -0 0 -1
vn -0 0 -1
vn -0 0 -1
vn -0 0 -1
vn -0 0 -1
vn -0 0 -1
vn -0 0 -1
vn -0 0 -1
vn -0 0 -1
vn -0 0 -1
vn -0 0 -1
vn -0 0 -1
vn -0 0 -1
vn -0 0 -1
vn -0 0 -1
vn -0 0 -1
vn -0 0 -1
vn -0 0 -1
vn -0 0 -1
vn -0 0 -1
vn -0 0 -1
vn -0 0 -1
vn -0 0 -1
vn -0 0 -1
vn -0 0 -1
vn -0 0 -1
vn -0 0 -1
vn -0 0 -1
vn -0 0 -1
vn -0 0 -1
vn -0 0 -1
vn -0 0 -1
vn -0 0 -1
vn -0 0 -1
vn -0 0 -1
vn -0 0 -1
vn -0 0 -1
vn -0 0 -1
vn -0 0 -1
vn -0 0 -1
vn -0 0 -1
vn -0 0 -1
vn -0 0 -1
vn -0 0 -1
vn -0 0 -1
vn -0 0 -1
vn -0 0 -1
vn -0 0 -1
vn -0 0 -1
vn -0 0 -1
vn -0 0 -1
vn -0 0 -1
vn -0 0 -1
vn -0 0 -1
vn -0 0 -1
vn -0 0 -1
vn -0 0 -1
vn -0 0 -1
vn -0 0 -1
vn -0 0 -1
vn -0 0 -1
vn -0 0 -1
vn -0 0 -1
vn -0 0 -1
vn -0 0 -1
vn -0 0 -1
vn -0 0 -1
vn -0 0 -1
vn -0 0 -1
vn -0 0 -1
vn -0 0 -1
vn -0 0 -1
vn -0 0 -1
vn -0 0 -1
vn -0 0 -1
vn -0 0 -1
vn -0 0 -1
vn -0 0 -1
vn -0 0 -1
vn -0 0 -1
vn -0 0 -1
vn -0 0 -1
vn -0 0 -1
vn -0 0 -1
vn -0 0 -1
vn -0 0 -1
vn -0 0 -1
vn -0 0 -1
vn -0 0 -1
vn -0 0 -1
vn -0 0 -1
vn -0 0 -1
vn -0 0 -1
vn -0 0 -1
vn -0 0 -1
vn -0 0 -1
vn -0 0 -1
vn -0 0 -1
vn -0 0 -1
vn -0 0 -1
vn -0 0 -1
vn -0 0 -1
vn -0 0 -1
vn -0 0 -1
vn -0 0 -1
vn -0 0 -1
vn -0 0 -1
vn -0 0 -1
vn -0 0 -1
vn -0 0 -1
vn -0 0 -1
vn -0 0 -1
vn -0 0 -1
vn -0 0 -1
vn -0 0 -1
vn -0 0 -1
vn -0 0 -1
vn -0 0 -1
vn -0 0 -1
vn -0 0 -1
vn -0 0 -1
vn -0 0 -1
vn -0 0 -1
vn -0 0 -1
vn -0 0 -1
vn -0 0 -1
vn -0 0 -1
vn -0 0 -1
vn -0 0 -1
vn -0 0 -1
vn -0 0 -1
vn -0 0 -1
vn -0 0 -1
vn -0 0 -1
vn -0 0 -1
vn -0 0 -1
vn -0 0 -1
vn -0 0 -1
vn -0 0 -1
vn -0 0 -1
g cTR_20_000160_00_TAKESHI_SR_L_SB_0
f 3/3/3 2/2/2 1/1/1
f 4/4/4 2/2/2 3/3/3
f 5/5/5 2/2/2 4/4/4
f 5/5/5 6/6/6 2/2/2
f 5/5/5 7/7/7 6/6/6
f 5/5/5 8/8/8 7/7/7
f 5/5/5 9/9/9 8/8/8
f 10/10/10 9/9/9 5/5/5
f 10/10/10 11/11/11 9/9/9
f 12/12/12 11/11/11 10/10/10
f 13/13/13 11/11/11 12/12/12
f 14/14/14 11/11/11 13/13/13
f 15/15/15 11/11/11 14/14/14
f 16/16/16 11/11/11 15/15/15
f 17/17/17 11/11/11 16/16/16
f 17/17/17 18/18/18 11/11/11
f 19/19/19 18/18/18 17/17/17
f 19/19/19 20/20/20 18/18/18
f 21/21/21 20/20/20 19/19/19
f 21/21/21 22/22/22 20/20/20
f 23/23/23 22/22/22 21/21/21
f 23/23/23 24/24/24 22/22/22
f 25/25/25 24/24/24 23/23/23
f 25/25/25 26/26/26 24/24/24
f 27/27/27 26/26/26 25/25/25
f 28/28/28 26/26/26 27/27/27
f 29/29/29 26/26/26 28/28/28
f 29/29/29 30/30/30 26/26/26
f 31/31/31 30/30/30 29/29/29
f 32/32/32 30/30/30 31/31/31
f 33/33/33 30/30/30 32/32/32
f 34/34/34 30/30/30 33/33/33
f 35/35/35 30/30/30 34/34/34
f 35/35/35 36/36/36 30/30/30
f 37/37/37 36/36/36 35/35/35
f 37/37/37 38/38/38 36/36/36
f 39/39/39 38/38/38 37/37/37
f 40/40/40 38/38/38 39/39/39
f 40/40/40 41/41/41 38/38/38
f 40/40/40 42/42/42 41/41/41
f 40/40/40 43/43/43 42/42/42
f 40/40/40 44/44/44 43/43/43
f 45/45/45 44/44/44 40/40/40
f 48/48/48 47/47/47 46/46/46
f 48/48/48 49/49/49 47/47/47
f 48/48/48 50/50/50 49/49/49
f 48/48/48 51/51/51 50/50/50
f 52/52/52 51/51/51 48/48/48
f 52/52/52 53/53/53 51/51/51
f 54/54/54 53/53/53 52/52/52
f 55/55/55 53/53/53 54/54/54
f 55/55/55 56/56/56 53/53/53
f 57/57/57 56/56/56 55/55/55
f 58/58/58 48/48/48 46/46/46
f 59/59/59 48/48/48 58/58/58
f 60/60/60 48/48/48 59/59/59
f 60/60/60 61/61/61 48/48/48
f 62/62/62 61/61/61 60/60/60
f 62/62/62 63/63/63 61/61/61
f 62/62/62 64/64/64 63/63/63
f 65/65/65 64/64/64 62/62/62
f 65/65/65 66/66/66 64/64/64
f 65/65/65 67/67/67 66/66/66
f 65/65/65 68/68/68 67/67/67
f 65/65/65 69/69/69 68/68/68
f 70/70/70 69/69/69 65/65/65
f 72/72/72 70/70/70 71/71/71
f 72/72/72 69/69/69 70/70/70
f 75/75/75 74/74/74 73/73/73
f 75/75/75 76/76/76 74/74/74
f 75/75/75 77/77/77 76/76/76
f 75/75/75 78/78/78 77/77/77
f 75/75/75 79/79/79 78/78/78
f 80/80/80 79/79/79 75/75/75
f 81/81/81 79/79/79 80/80/80
f 82/82/82 79/79/79 81/81/81
f 85/85/85 84/84/84 83/83/83
f 86/86/86 84/84/84 85/85/85
f 79/79/79 88/88/88 87/87/87
f 91/91/91 90/90/90 89/89/89
f 86/86/86 91/91/91 84/84/84
f 86/86/86 90/90/90 91/91/91
f 86/86/86 82/82/82 90/90/90
f 86/86/86 79/79/79 82/82/82
f 88/88/88 79/79/79 86/86/86
f 94/94/94 93/93/93 92/92/92
f 95/95/95 93/93/93 94/94/94
f 96/96/96 93/93/93 95/95/95
f 96/96/96 97/97/97 93/93/93
f 75/75/75 97/97/97 96/96/96
f 75/75/75 98/98/98 97/97/97
f 75/75/75 99/99/99 98/98/98
f 75/75/75 100/100/100 99/99/99
f 73/73/73 100/100/100 75/75/75
f 101/101/101 92/92/92 93/93/93
f 104/104/104 103/103/103 102/102/102
f 104/104/104 105/105/105 103/103/103
f 106/106/106 105/105/105 104/104/104
f 107/107/107 105/105/105 106/106/106
f 108/108/108 105/105/105 107/107/107
f 109/109/109 105/105/105 108/108/108
f 110/110/110 105/105/105 109/109/109
f 111/111/111 105/105/105 110/110/110
f 112/112/112 105/105/105 111/111/111
f 113/113/113 105/105/105 112/112/112
f 92/92/92 105/105/105 113/113/113
f 92/92/92 114/114/114 105/105/105
f 92/92/92 115/115/115 114/114/114
f 92/92/92 116/116/116 115/115/115
f 92/92/92 117/117/117 116/116/116
f 92/92/92 118/118/118 117/117/117
f 101/101/101 118/118/118 92/92/92
f 102/102/102 119/119/119 104/104/104
f 102/102/102 120/120/120 119/119/119
f 102/102/102 121/121/121 120/120/120
f 102/102/102 122/122/122 121/121/121
f 102/102/102 123/123/123 122/122/122
f 102/102/102 124/124/124 123/123/123
f 102/102/102 125/125/125 124/124/124
f 102/102/102 126/126/126 125/125/125
f 102/102/102 127/127/127 126/126/126
f 102/102/102 128/128/128 127/127/127
f 102/102/102 129/129/129 128/128/128
f 102/102/102 130/130/130 129/129/129
f 102/102/102 131/131/131 130/130/130
f 132/132/132 131/131/131 102/102/102
f 133/133/133 131/131/131 132/132/132
f 134/134/134 131/131/131 133/133/133
f 137/137/137 136/136/136 135/135/135
f 137/137/137 138/138/138 136/136/136
f 139/139/139 138/138/138 137/137/137
f 139/139/139 140/140/140 138/138/138
f 141/141/141 140/140/140 139/139/139
f 142/142/142 140/140/140 141/141/141
f 143/143/143 140/140/140 142/142/142
f 144/144/144 140/140/140 143/143/143
f 145/145/145 140/140/140 144/144/144
f 146/146/146 140/140/140 145/145/145
f 147/147/147 140/140/140 146/146/146
f 148/148/148 140/140/140 147/147/147
f 149/149/149 140/140/140 148/148/148
f 150/150/150 140/140/140 149/149/149
f 151/151/151 140/140/140 150/150/150
f 152/152/152 140/140/140 151/151/151
f 153/153/153 140/140/140 152/152/152
f 154/154/154 140/140/140 153/153/153
f 155/155/155 140/140/140 154/154/154
f 158/158/158 157/157/157 156/156/156
f 158/158/158 159/159/159 157/157/157
f 158/158/158 160/160/160 159/159/159
f 163/163/163 162/162/162 161/161/161
f 158/158/158 164/164/164 160/160/160
f 165/165/165 164/164/164 158/158/158
f 166/166/166 162/162/162 163/163/163
f 167/167/167 164/164/164 165/165/165
f 162/162/162 164/164/164 167/167/167
f 162/162/162 168/168/168 164/164/164
f 162/162/162 169/169/169 168/168/168
f 162/162/162 170/170/170 169/169/169
f 162/162/162 171/171/171 170/170/170
f 162/162/162 172/172/172 171/171/171
f 166/166/166 172/172/172 162/162/162
f 136/136/136 173/173/173 135/135/135
f 174/174/174 161/161/161 162/162/162
f 175/175/175 161/161/161 174/174/174
f 176/176/176 161/161/161 175/175/175
f 177/177/177 161/161/161 176/176/176
f 178/178/178 161/161/161 177/177/177
f 178/178/178 179/179/179 161/161/161
f 180/180/180 179/179/179 178/178/178
f 181/181/181 179/179/179 180/180/180
f 136/136/136 182/182/182 173/173/173
f 183/183/183 182/182/182 136/136/136
f 183/183/183 184/184/184 182/182/182
f 183/183/183 185/185/185 184/184/184
f 183/183/183 186/186/186 185/185/185
f 187/187/187 186/186/186 183/183/183
f 187/187/187 188/188/188 186/186/186
f 187/187/187 189/189/189 188/188/188
f 187/187/187 181/181/181 189/189/189
f 187/187/187 179/179/179 181/181/181
f 192/192/192 191/191/191 190/190/190
f 192/192/192 193/193/193 191/191/191
f 194/194/194 193/193/193 192/192/192
f 195/195/195 193/193/193 194/194/194
f 196/196/196 193/193/193 195/195/195
f 196/196/196 197/197/197 193/193/193
f 196/196/196 198/198/198 197/197/197
f 199/199/199 198/198/198 196/196/196
f 200/200/200 198/198/198 199/199/199
f 201/201/201 198/198/198 200/200/200
f 202/202/202 198/198/198 201/201/201
f 202/202/202 203/203/203 198/198/198
f 204/204/204 203/203/203 202/202/202
f 205/205/205 203/203/203 204/204/204
f 206/206/206 203/203/203 205/205/205
f 206/206/206 207/207/207 203/203/203
f 208/208/208 207/207/207 206/206/206
f 209/209/209 207/207/207 208/208/208
f 210/210/210 207/207/207 209/209/209
f 211/211/211 207/207/207 210/210/210
f 212/212/212 207/207/207 211/211/211
g cTR_20_000160_00_TAKESHI_SR_L_SB_1
f 215/215/215 214/214/214 213/213/213
f 216/216/216 214/214/214 215/215/215
f 217/217/217 214/214/214 216/216/216
f 217/217/217 218/218/218 214/214/214
f 217/217/217 219/219/219 218/218/218
f 217/217/217 220/220/220 219/219/219
f 217/217/217 221/221/221 220/220/220
f 217/217/217 222/222/222 221/221/221
f 223/223/223 222/222/222 217/217/217
f 223/223/223 224/224/224 222/222/222
f 223/223/223 225/225/225 224/224/224
f 226/226/226 225/225/225 223/223/223
f 226/226/226 227/227/227 225/225/225
f 226/226/226 228/228/228 227/227/227
f 229/229/229 228/228/228 226/226/226
f 229/229/229 230/230/230 228/228/228
f 231/231/231 230/230/230 229/229/229
f 231/231/231 232/232/232 230/230/230
f 233/233/233 232/232/232 231/231/231
f 234/234/234 232/232/232 233/233/233
f 235/235/235 232/232/232 234/234/234
f 235/235/235 236/236/236 232/232/232
f 237/237/237 236/236/236 235/235/235
f 238/238/238 236/236/236 237/237/237
f 238/238/238 239/239/239 236/236/236
f 240/240/240 239/239/239 238/238/238
f 241/241/241 239/239/239 240/240/240
f 241/241/241 242/242/242 239/239/239
f 243/243/243 242/242/242 241/241/241
f 243/243/243 244/244/244 242/242/242
f 245/245/245 244/244/244 243/243/243
f 246/246/246 244/244/244 245/245/245
f 249/249/249 248/248/248 247/247/247
f 207/207/207 248/248/248 249/249/249
f 250/250/250 207/207/207 212/212/212
f 251/251/251 207/207/207 250/250/250
f 248/248/248 207/207/207 251/251/251
f 254/254/254 253/253/253 252/252/252
f 255/255/255 253/253/253 254/254/254
f 256/256/256 253/253/253 255/255/255
f 257/257/257 253/253/253 256/256/256
f 258/258/258 253/253/253 257/257/257
f 247/247/247 253/253/253 258/258/258
f 247/247/247 259/259/259 253/253/253
f 247/247/247 260/260/260 259/259/259
f 247/247/247 261/261/261 260/260/260
f 247/247/247 262/262/262 261/261/261
f 247/247/247 263/263/263 262/262/262
f 248/248/248 263/263/263 247/247/247
f 265/265/265 252/252/252 264/264/264
f 266/266/266 252/252/252 265/265/265
f 267/267/267 252/252/252 266/266/266
f 268/268/268 252/252/252 267/267/267
f 269/269/269 252/252/252 268/268/268
f 269/269/269 254/254/254 252/252/252
f 270/270/270 254/254/254 269/269/269
f 271/271/271 254/254/254 270/270/270
f 272/272/272 254/254/254 271/271/271
f 273/273/273 254/254/254 272/272/272
f 274/274/274 254/254/254 273/273/273
f 275/275/275 254/254/254 274/274/274
f 276/276/276 254/254/254 275/275/275
f 277/277/277 254/254/254 276/276/276
f 278/278/278 254/254/254 277/277/277
f 279/279/279 254/254/254 278/278/278
f 280/280/280 254/254/254 279/279/279
f 280/280/280 281/281/281 254/254/254
f 280/280/280 282/282/282 281/281/281
f 283/283/283 282/282/282 280/280/280
f 283/283/283 284/284/284 282/282/282
f 285/285/285 284/284/284 283/283/283
f 285/285/285 286/286/286 284/284/284
f 287/287/287 286/286/286 285/285/285
f 287/287/287 288/288/288 286/286/286
f 287/287/287 289/289/289 288/288/288
f 287/287/287 290/290/290 289/289/289
f 291/291/291 290/290/290 287/287/287
f 292/292/292 290/290/290 291/291/291
f 293/293/293 290/290/290 292/292/292
f 294/294/294 290/290/290 293/293/293
f 295/295/295 290/290/290 294/294/294
f 296/296/296 290/290/290 295/295/295
f 296/296/296 297/297/297 290/290/290
f 296/296/296 298/298/298 297/297/297
f 299/299/299 298/298/298 296/296/296
f 300/300/300 298/298/298 299/299/299
f 301/301/301 298/298/298 300/300/300
f 302/302/302 298/298/298 301/301/301
f 303/303/303 298/298/298 302/302/302
f 304/304/304 298/298/298 303/303/303
f 304/304/304 305/305/305 298/298/298
f 304/304/304 306/306/306 305/305/305
f 304/304/304 307/307/307 306/306/306
f 304/304/304 308/308/308 307/307/307
f 304/304/304 309/309/309 308/308/308
f 304/304/304 310/310/310 309/309/309
f 304/304/304 311/311/311 310/310/310
f 314/314/314 313/313/313 312/312/312
f 315/315/315 313/313/313 314/314/314
f 315/315/315 316/316/316 313/313/313
f 317/317/317 316/316/316 315/315/315
f 318/318/318 316/316/316 317/317/317
f 318/318/318 319/319/319 316/316/316
f 320/320/320 319/319/319 318/318/318
f 320/320/320 321/321/321 319/319/319
f 320/320/320 322/322/322 321/321/321
f 320/320/320 323/323/323 322/322/322
f 320/320/320 324/324/324 323/323/323
f 320/320/320 325/325/325 324/324/324
f 320/320/320 326/326/326 325/325/325
f 329/329/329 328/328/328 327/327/327
f 331/331/331 320/320/320 330/330/330
f 332/332/332 320/320/320 331/331/331
f 333/333/333 320/320/320 332/332/332
f 334/334/334 320/320/320 333/333/333
f 335/335/335 320/320/320 334/334/334
f 336/336/336 320/320/320 335/335/335
f 336/336/336 326/326/326 320/320/320
f 337/337/337 326/326/326 336/336/336
f 338/338/338 326/326/326 337/337/337
f 341/341/341 340/340/340 339/339/339
f 344/344/344 343/343/343 342/342/342
f 340/340/340 329/329/329 345/345/345
f 340/340/340 328/328/328 329/329/329
f 340/340/340 346/346/346 328/328/328
f 341/341/341 346/346/346 340/340/340
f 348/348/348 341/341/341 347/347/347
f 348/348/348 346/346/346 341/341/341
f 326/326/326 346/346/346 348/348/348
f 338/338/338 346/346/346 326/326/326
f 311/311/311 343/343/343 344/344/344
f 338/338/338 304/304/304 346/346/346
f 338/338/338 311/311/311 304/304/304
f 343/343/343 311/311/311 338/338/338
f 351/351/351 350/350/350 349/349/349
f 354/354/354 353/353/353 352/352/352
f 357/357/357 356/356/356 355/355/355
f 359/359/359 350/350/350 358/358/358
f 355/355/355 356/356/356 360/360/360
f 350/350/350 359/359/359 361/361/361
f 352/352/352 350/350/350 361/361/361
f 363/363/363 357/357/357 362/362/362
f 362/362/362 364/364/364 363/363/363
f 363/363/363 365/365/365 358/358/358
f 365/365/365 363/363/363 364/364/364
f 358/358/358 351/351/351 366/366/366
f 358/358/358 366/366/366 363/363/363
f 358/358/358 350/350/350 351/351/351
f 368/368/368 367/367/367 352/352/352
f 369/369/369 368/368/368 352/352/352
f 371/371/371 370/370/370 367/367/367
f 368/368/368 371/371/371 367/367/367
f 373/373/373 372/372/372 370/370/370
f 371/371/371 373/373/373 370/370/370
f 372/372/372 374/374/374 370/370/370
f 353/353/353 369/369/369 352/352/352
f 361/361/361 354/354/354 352/352/352
f 357/357/357 355/355/355 362/362/362
f 377/377/377 376/376/376 375/375/375
f 378/378/378 376/376/376 377/377/377
f 379/379/379 376/376/376 378/378/378
f 380/380/380 376/376/376 379/379/379
f 381/381/381 376/376/376 380/380/380
f 382/382/382 376/376/376 381/381/381
f 383/383/383 376/376/376 382/382/382
f 383/383/383 384/384/384 376/376/376
f 385/385/385 384/384/384 383/383/383
f 386/386/386 384/384/384 385/385/385
f 386/386/386 387/387/387 384/384/384
f 386/386/386 388/388/388 387/387/387
f 386/386/386 389/389/389 388/388/388
f 390/390/390 389/389/389 386/386/386
f 390/390/390 391/391/391 389/389/389
f 392/392/392 391/391/391 390/390/390
f 392/392/392 393/393/393 391/391/391
f 394/394/394 393/393/393 392/392/392
f 394/394/394 395/395/395 393/393/393
f 396/396/396 395/395/395 394/394/394
f 397/397/397 395/395/395 396/396/396
f 398/398/398 395/395/395 397/397/397
f 398/398/398 399/399/399 395/395/395
f 398/398/398 400/400/400 399/399/399
f 398/398/398 401/401/401 400/400/400
f 398/398/398 402/402/402 401/401/401
f 403/403/403 402/402/402 398/398/398
f 404/404/404 402/402/402 403/403/403
f 405/405/405 402/402/402 404/404/404
f 408/408/408 407/407/407 406/406/406
f 409/409/409 407/407/407 408/408/408
f 409/409/409 410/410/410 407/407/407
f 411/411/411 410/410/410 409/409/409
f 411/411/411 412/412/412 410/410/410
f 413/413/413 412/412/412 411/411/411
f 416/416/416 415/415/415 414/414/414
f 417/417/417 412/412/412 413/413/413
f 417/417/417 418/418/418 412/412/412
f 419/419/419 418/418/418 417/417/417
f 419/419/419 420/420/420 418/418/418
f 419/419/419 421/421/421 420/420/420
f 422/422/422 421/421/421 419/419/419
f 422/422/422 423/423/423 421/421/421
f 426/426/426 425/425/425 424/424/424
f 427/427/427 425/425/425 426/426/426
f 427/427/427 428/428/428 425/425/425
f 427/427/427 429/429/429 428/428/428
f 430/430/430 429/429/429 427/427/427
f 430/430/430 431/431/431 429/429/429
f 432/432/432 431/431/431 430/430/430
f 432/432/432 433/433/433 431/431/431
f 434/434/434 433/433/433 432/432/432
f 434/434/434 435/435/435 433/433/433
f 436/436/436 435/435/435 434/434/434
f 436/436/436 437/437/437 435/435/435
f 438/438/438 437/437/437 436/436/436
f 438/438/438 439/439/439 437/437/437
f 440/440/440 439/439/439 438/438/438
f 422/422/422 441/441/441 423/423/423
f 440/440/440 443/443/443 442/442/442
f 441/441/441 422/422/422 444/444/444
f 445/445/445 415/415/415 442/442/442
f 445/445/445 446/446/446 415/415/415
f 444/444/444 447/447/447 441/441/441
f 416/416/416 448/448/448 415/415/415
f 416/416/416 449/449/449 448/448/448
f 416/416/416 450/450/450 449/449/449
f 451/451/451 450/450/450 416/416/416
f 452/452/452 450/450/450 451/451/451
f 453/453/453 450/450/450 452/452/452
f 454/454/454 450/450/450 453/453/453
f 454/454/454 455/455/455 450/450/450
f 456/456/456 455/455/455 454/454/454
f 457/457/457 455/455/455 456/456/456
f 458/458/458 455/455/455 457/457/457
f 459/459/459 455/455/455 458/458/458
f 460/460/460 455/455/455 459/459/459
f 461/461/461 455/455/455 460/460/460
f 461/461/461 462/462/462 455/455/455
f 463/463/463 462/462/462 461/461/461
f 464/464/464 462/462/462 463/463/463
f 464/464/464 465/465/465 462/462/462
f 464/464/464 466/466/466 465/465/465
f 467/467/467 466/466/466 464/464/464
f 467/467/467 468/468/468 466/466/466
f 467/467/467 469/469/469 468/468/468
f 467/467/467 470/470/470 469/469/469
f 467/467/467 471/471/471 470/470/470
f 467/467/467 472/472/472 471/471/471
f 467/467/467 473/473/473 472/472/472
f 474/474/474 473/473/473 467/467/467
f 474/474/474 475/475/475 473/473/473
f 474/474/474 476/476/476 475/475/475
f 474/474/474 477/477/477 476/476/476
f 474/474/474 478/478/478 477/477/477
f 479/479/479 478/478/478 474/474/474
f 479/479/479 480/480/480 478/478/478
f 479/479/479 481/481/481 480/480/480
f 414/414/414 482/482/482 447/447/447
f 444/444/444 414/414/414 447/447/447
f 444/444/444 416/416/416 414/414/414
f 442/442/442 443/443/443 445/445/445
f 415/415/415 446/446/446 414/414/414
f 442/442/442 439/439/439 440/440/440
f 485/485/485 484/484/484 483/483/483
f 485/485/485 486/486/486 484/484/484
f 487/487/487 486/486/486 485/485/485
f 487/487/487 488/488/488 486/486/486
f 487/487/487 489/489/489 488/488/488
f 487/487/487 490/490/490 489/489/489
f 491/491/491 490/490/490 487/487/487
f 492/492/492 490/490/490 491/491/491
f 492/492/492 493/493/493 490/490/490
f 492/492/492 494/494/494 493/493/493
f 495/495/495 494/494/494 492/492/492
f 496/496/496 494/494/494 495/495/495
f 496/496/496 497/497/497 494/494/494
f 498/498/498 497/497/497 496/496/496
f 499/499/499 497/497/497 498/498/498
f 500/500/500 497/497/497 499/499/499
f 500/500/500 501/501/501 497/497/497
f 502/502/502 501/501/501 500/500/500
f 503/503/503 501/501/501 502/502/502
f 504/504/504 501/501/501 503/503/503
f 505/505/505 501/501/501 504/504/504
f 505/505/505 506/506/506 501/501/501
f 506/506/506 505/505/505 507/507/507
f 510/510/510 509/509/509 508/508/508
f 509/509/509 511/511/511 508/508/508
f 509/509/509 512/512/512 511/511/511
f 509/509/509 513/513/513 512/512/512
f 509/509/509 514/514/514 513/513/513
f 515/515/515 514/514/514 509/509/509
f 508/508/508 516/516/516 510/510/510
f 517/517/517 516/516/516 508/508/508
f 518/518/518 516/516/516 517/517/517
f 519/519/519 516/516/516 518/518/518
f 520/520/520 516/516/516 519/519/519
f 521/521/521 516/516/516 520/520/520
f 522/522/522 516/516/516 521/521/521
f 525/525/525 524/524/524 523/523/523
f 525/525/525 523/523/523 526/526/526
f 525/525/525 527/527/527 524/524/524
f 526/526/526 529/529/529 528/528/528
f 526/526/526 523/523/523 529/529/529
f 529/529/529 530/530/530 528/528/528
f 510/510/510 528/528/528 530/530/530
f 510/510/510 530/530/530 509/509/509
f 533/533/533 532/532/532 531/531/531
f 534/534/534 532/532/532 533/533/533
f 534/534/534 535/535/535 532/532/532
f 534/534/534 536/536/536 535/535/535
f 534/534/534 537/537/537 536/536/536
f 534/534/534 538/538/538 537/537/537
f 539/539/539 538/538/538 534/534/534
f 540/540/540 538/538/538 539/539/539
f 541/541/541 538/538/538 540/540/540
f 542/542/542 538/538/538 541/541/541
f 543/543/543 538/538/538 542/542/542
f 544/544/544 538/538/538 543/543/543
f 545/545/545 538/538/538 544/544/544
f 546/546/546 538/538/538 545/545/545
f 546/546/546 547/547/547 538/538/538
f 546/546/546 548/548/548 547/547/547
f 546/546/546 549/549/549 548/548/548
f 550/550/550 549/549/549 546/546/546
f 553/553/553 552/552/552 551/551/551
f 555/555/555 554/554/554 553/553/553
f 551/551/551 555/555/555 553/553/553
f 556/556/556 553/553/553 554/554/554
f 559/559/559 558/558/558 557/557/557
f 560/560/560 553/553/553 556/556/556
f 560/560/560 561/561/561 553/553/553
f 560/560/560 559/559/559 561/561/561
f 558/558/558 559/559/559 560/560/560
f 564/564/564 563/563/563 562/562/562
f 565/565/565 563/563/563 564/564/564
f 566/566/566 563/563/563 565/565/565
f 567/567/567 563/563/563 566/566/566
f 568/568/568 563/563/563 567/567/567
f 569/569/569 563/563/563 568/568/568
f 570/570/570 563/563/563 569/569/569
f 571/571/571 563/563/563 570/570/570
f 572/572/572 563/563/563 571/571/571
f 573/573/573 563/563/563 572/572/572
f 574/574/574 563/563/563 573/573/573
f 557/557/557 575/575/575 559/559/559
f 557/557/557 576/576/576 575/575/575
f 578/578/578 577/577/577 576/576/576
f 579/579/579 577/577/577 578/578/578
f 579/579/579 580/580/580 577/577/577
f 579/579/579 581/581/581 580/580/580
f 582/582/582 581/581/581 579/579/579
f 582/582/582 583/583/583 581/581/581
f 584/584/584 583/583/583 582/582/582
f 585/585/585 583/583/583 584/584/584
f 586/586/586 583/583/583 585/585/585
f 587/587/587 583/583/583 586/586/586
f 590/590/590 589/589/589 588/588/588
f 592/592/592 590/590/590 591/591/591
f 593/593/593 592/592/592 591/591/591
f 595/595/595 594/594/594 593/593/593
f 594/594/594 595/595/595 596/596/596
f 594/594/594 596/596/596 597/597/597
f 597/597/597 598/598/598 594/594/594
f 599/599/599 598/598/598 597/597/597
f 600/600/600 598/598/598 599/599/599
f 600/600/600 602/602/602 601/601/601
f 553/553/553 604/604/604 603/603/603
f 603/603/603 552/552/552 553/553/553
f 604/604/604 605/605/605 603/603/603
f 606/606/606 605/605/605 604/604/604
f 574/574/574 607/607/607 563/563/563
f 574/574/574 531/531/531 607/607/607
f 574/574/574 533/533/533 531/531/531
f 574/574/574 608/608/608 533/533/533
f 574/574/574 609/609/609 608/608/608
f 574/574/574 610/610/610 609/609/609
f 574/574/574 611/611/611 610/610/610
f 574/574/574 612/612/612 611/611/611
f 574/574/574 613/613/613 612/612/612
f 614/614/614 613/613/613 574/574/574
f 615/615/615 613/613/613 614/614/614
f 616/616/616 613/613/613 615/615/615
f 617/617/617 613/613/613 616/616/616
f 618/618/618 613/613/613 617/617/617
f 619/619/619 613/613/613 618/618/618
f 619/619/619 620/620/620 613/613/613
f 621/621/621 620/620/620 619/619/619
f 621/621/621 622/622/622 620/620/620
f 623/623/623 622/622/622 621/621/621
f 601/601/601 602/602/602 624/624/624
f 601/601/601 624/624/624 625/625/625
f 601/601/601 625/625/625 626/626/626
f 626/626/626 627/627/627 601/601/601
f 628/628/628 627/627/627 626/626/626
f 628/628/628 629/629/629 627/627/627
f 588/588/588 591/591/591 590/590/590
f 630/630/630 587/587/587 589/589/589
f 631/631/631 587/587/587 630/630/630
f 632/632/632 587/587/587 631/631/631
f 583/583/583 587/587/587 632/632/632
f 591/591/591 595/595/595 593/593/593
f 589/589/589 587/587/587 588/588/588
f 601/601/601 598/598/598 600/600/600
f 557/557/557 578/578/578 576/576/576
f 633/633/633 562/562/562 563/563/563
f 635/635/635 633/633/633 634/634/634
f 636/636/636 633/633/633 635/635/635
f 637/637/637 633/633/633 636/636/636
f 638/638/638 633/633/633 637/637/637
f 639/639/639 633/633/633 638/638/638
f 640/640/640 633/633/633 639/639/639
f 562/562/562 633/633/633 640/640/640
f 642/642/642 641/641/641 555/555/555
f 634/634/634 633/633/633 643/643/643
f 643/643/643 642/642/642 634/634/634
f 642/642/642 643/643/643 641/641/641
f 551/551/551 642/642/642 555/555/555
f 646/646/646 645/645/645 644/644/644
f 646/646/646 647/647/647 645/645/645
f 648/648/648 647/647/647 646/646/646
f 648/648/648 649/649/649 647/647/647
f 650/650/650 649/649/649 648/648/648
f 651/651/651 649/649/649 650/650/650
f 651/651/651 652/652/652 649/649/649
f 653/653/653 652/652/652 651/651/651
f 653/653/653 654/654/654 652/652/652
f 655/655/655 654/654/654 653/653/653
f 656/656/656 654/654/654 655/655/655
f 657/657/657 654/654/654 656/656/656
f 657/657/657 658/658/658 654/654/654
f 657/657/657 659/659/659 658/658/658
f 657/657/657 660/660/660 659/659/659
f 662/662/662 657/657/657 661/661/661
f 662/662/662 660/660/660 657/657/657
f 665/665/665 664/664/664 663/663/663
f 666/666/666 664/664/664 665/665/665
f 667/667/667 664/664/664 666/666/666
f 668/668/668 664/664/664 667/667/667
f 668/668/668 669/669/669 664/664/664
f 671/671/671 670/670/670 668/668/668
f 671/671/671 672/672/672 670/670/670
f 673/673/673 672/672/672 671/671/671
f 674/674/674 672/672/672 673/673/673
f 675/675/675 665/665/665 663/663/663
f 675/675/675 676/676/676 665/665/665
f 675/675/675 677/677/677 676/676/676
f 677/677/677 679/679/679 678/678/678
f 679/679/679 677/677/677 675/675/675
f 668/668/668 670/670/670 669/669/669
f 682/682/682 681/681/681 680/680/680
f 682/682/682 683/683/683 681/681/681
f 684/684/684 683/683/683 682/682/682
f 687/687/687 686/686/686 685/685/685
f 687/687/687 688/688/688 686/686/686
f 689/689/689 688/688/688 687/687/687
f 692/692/692 691/691/691 690/690/690
f 694/694/694 692/692/692 693/693/693
f 691/691/691 692/692/692 694/694/694
f 697/697/697 696/696/696 695/695/695
f 696/696/696 699/699/699 698/698/698
f 696/696/696 697/697/697 699/699/699
f 702/702/702 701/701/701 700/700/700
f 701/701/701 704/704/704 703/703/703
f 701/701/701 702/702/702 704/704/704
f 707/707/707 706/706/706 705/705/705
f 708/708/708 706/706/706 707/707/707
f 708/708/708 709/709/709 706/706/706
f 712/712/712 711/711/711 710/710/710
f 713/713/713 685/685/685 686/686/686
f 708/708/708 714/714/714 709/709/709
f 717/717/717 716/716/716 715/715/715
f 718/718/718 703/703/703 704/704/704
f 718/718/718 713/713/713 703/703/703
f 719/719/719 711/711/711 712/712/712
f 719/719/719 720/720/720 711/711/711
f 721/721/721 720/720/720 719/719/719
f 721/721/721 722/722/722 720/720/720
f 721/721/721 724/724/724 723/723/723
f 680/680/680 725/725/725 682/682/682
f 726/726/726 725/725/725 680/680/680
f 693/693/693 726/726/726 694/694/694
f 714/714/714 726/726/726 693/693/693
f 727/727/727 698/698/698 699/699/699
f 727/727/727 718/718/718 698/698/698
f 713/713/713 728/728/728 685/685/685
f 731/731/731 730/730/730 729/729/729
f 732/732/732 730/730/730 731/731/731
f 733/733/733 716/716/716 717/717/717
f 733/733/733 734/734/734 716/716/716
f 735/735/735 734/734/734 733/733/733
f 738/738/738 737/737/737 736/736/736
f 741/741/741 740/740/740 739/739/739
f 744/744/744 743/743/743 742/742/742
f 746/746/746 744/744/744 745/745/745
f 747/747/747 730/730/730 708/708/708
f 750/750/750 749/749/749 748/748/748
f 752/752/752 751/751/751 708/708/708
f 753/753/753 749/749/749 708/708/708
f 734/734/734 754/754/754 721/721/721
f 728/728/728 734/734/734 735/735/735
f 718/718/718 728/728/728 713/713/713
f 718/718/718 734/734/734 728/728/728
f 718/718/718 754/754/754 734/734/734
f 727/727/727 754/754/754 718/718/718
f 727/727/727 755/755/755 754/754/754
f 725/725/725 755/755/755 727/727/727
f 726/726/726 755/755/755 725/725/725
f 714/714/714 755/755/755 726/726/726
f 708/708/708 755/755/755 714/714/714
f 708/708/708 738/738/738 755/755/755
f 708/708/708 737/737/737 738/738/738
f 708/708/708 756/756/756 737/737/737
f 708/708/708 741/741/741 756/756/756
f 708/708/708 740/740/740 741/741/741
f 708/708/708 750/750/750 740/740/740
f 708/708/708 749/749/749 750/750/750
f 708/708/708 732/732/732 757/757/757
f 708/708/708 730/730/730 732/732/732
f 743/743/743 746/746/746 708/708/708
f 744/744/744 746/746/746 743/743/743
f 752/752/752 708/708/708 746/746/746
f 747/747/747 708/708/708 751/751/751
f 753/753/753 708/708/708 757/757/757
f 721/721/721 754/754/754 724/724/724
f 721/721/721 723/723/723 722/722/722
