g DeckShield_F
v 4.608814E-18 0.3159626 0
v -0.266 -0.015522185 0
v -0.266 0.3159626 0
v 5.6205056E-19 -0.015522185 0
v 0.266 0.3159626 0
v 0.266 -0.015522185 0
v -0.266 0.3159626 0
v -0.28000003 -0.015522185 0
v -0.28000003 -0.040037405 0
v -0.266 -0.040037405 0
v 5.6205056E-19 -0.015522185 0
v -0.31500003 -0.040037405 0
v -0.31500003 -0.015522185 0
v -0.31500003 -0.40500003 0
v -0.28000003 -0.40500003 0
v -0.31500003 -0.4196938 0
v -0.31297308 -0.42540237 0
v -0.30973503 -0.43030095 0
v -0.3053689 -0.43488383 0
v -0.2997864 -0.4381034 0
v -0.29400548 -0.43995205 0
v -0.28000003 -0.44000003 0
v -0.28000003 0.3159626 0
v -0.31500003 0.3159626 0
v -0.31500003 0.40500003 0
v -0.28000003 0.40500003 0
v -0.31500003 0.4196938 0
v -0.31300002 0.4254024 0
v -0.30973503 0.43030095 0
v -0.3053689 0.43488383 0
v -0.2997864 0.4381034 0
v -0.29400548 0.43995205 0
v -0.28000003 0.44000003 0
v -0.266 0.40500003 0
v -0.266 0.44000003 0
v 4.608814E-18 0.3159626 0
v 5.6205045E-18 0.40500003 0
v 1.2212454E-17 0.44000003 0
v 0.266 0.40500003 0
v 0.266 0.44000003 0
v 0.28000003 0.44000003 0
v 0.266 0.3159626 0
v 0.28000003 0.40500003 0
v 0.29400548 0.43995205 0
v 0.2997864 0.4381034 0
v 0.3053689 0.43488383 0
v 0.30973503 0.43030095 0
v 0.31297308 0.42540237 0
v 0.31500003 0.4196938 0
v 0.31500003 0.40500003 0
v 0.28000003 0.3159626 0
v 0.31500003 0.3159626 0
v 0.266 -0.015522185 0
v 0.28000003 -0.015522185 0
v 0.31500003 -0.015522185 0
v 0.266 -0.040037405 0
v 0.28000003 -0.040037405 0
v 0.31500003 -0.040037405 0
v 0.31500003 -0.40500003 0
v 0.28000003 -0.40500003 0
v 0.31500003 -0.4196938 0
v 0.31297308 -0.42540237 0
v 0.30973503 -0.43030095 0
v 0.3053689 -0.43488383 0
v 0.2997864 -0.4381034 0
v 0.29400548 -0.43995205 0
v 0.28000003 -0.44000003 0
v 0.266 -0.40500003 0
v 0.266 -0.44000003 0
v -0 -0.040037405 0
v -0 -0.40500003 0
v -0 -0.44000003 0
v -0.266 -0.40500003 0
v -0.266 -0.44000003 0
vt 0.5 0.8588867
vt 0.07824707 0.48046875
vt 0.078552246 0.8588867
vt 0.50097656 0.48046875
vt 0.9223633 0.8588867
vt 0.9223633 0.48046875
vt 0.078552246 0.8588867
vt 0.05569458 0.48046875
vt 0.05569458 0.45458984
vt 0.078552246 0.45458984
vt 0.50097656 0.48046875
vt -5.9604645E-08 0.45458984
vt -5.9604645E-08 0.48046875
vt -5.9604645E-08 0.039764404
vt 0.05569458 0.039764404
vt -5.9604645E-08 0.023071289
vt 0.0032157898 0.016586304
vt 0.008354187 0.011024475
vt 0.015281677 0.0058135986
vt 0.024139404 0.002155304
vt 0.033325195 5.4478645E-05
vt 0.05569458 0
vt 0.05569458 0.8588867
vt -5.9604645E-08 0.8588867
vt -5.9604645E-08 0.9604492
vt 0.05569458 0.9604492
vt -5.9604645E-08 0.9770508
vt 0.0029640198 0.98339844
vt 0.008354187 0.98876953
vt 0.015281677 0.9941406
vt 0.024139404 0.9980469
vt 0.033325195 1
vt 0.05569458 1
vt 0.078552246 0.9604492
vt 0.078552246 1
vt 0.5 0.8588867
vt 0.5 0.9604492
vt 0.5 1
vt 0.9223633 0.9604492
vt 0.9223633 1
vt 0.94433594 1
vt 0.9223633 0.8588867
vt 0.94433594 0.9604492
vt 0.9663086 1
vt 0.97558594 0.9980469
vt 0.984375 0.9941406
vt 0.99121094 0.98876953
vt 0.99658203 0.98339844
vt 1 0.9770508
vt 1 0.9604492
vt 0.94433594 0.8588867
vt 1 0.8588867
vt 0.9223633 0.48046875
vt 0.9453125 0.48046875
vt 1 0.48046875
vt 0.9223633 0.45458984
vt 0.94433594 0.45458984
vt 1 0.45458984
vt 1 0.039764404
vt 0.94433594 0.039764404
vt 1 0.023071289
vt 0.99658203 0.016586304
vt 0.99121094 0.011024475
vt 0.984375 0.0058135986
vt 0.97558594 0.002155304
vt 0.9663086 5.4478645E-05
vt 0.94433594 0
vt 0.9223633 0.039764404
vt 0.9223633 0
vt 0.5 0.45458984
vt 0.5 0.039764404
vt 0.5 0
vt 0.078552246 0.039764404
vt 0.078552246 1.0550022E-05
vn -0 0 1
vn -0 0 1
vn -0 0 1
vn -0 0 1
vn -0 0 1
vn -0 0 1
vn -0 0 1
vn -0 0 1
vn -0 0 1
vn -0 0 1
vn -0 0 1
vn -0 0 1
vn -0 0 1
vn -0 0 1
vn -0 0 1
vn -0 0 1
vn -0 0 1
vn -0 0 1
vn -0 0 1
vn -0 0 1
vn -0 0 1
vn -0 0 1
vn -0 0 1
vn -0 0 1
vn -0 0 1
vn -0 0 1
vn -0 0 1
vn -0 0 1
vn -0 0 1
vn -0 0 1
vn -0 0 1
vn -0 0 1
vn -0 0 1
vn -0 0 1
vn -0 0 1
vn -0 0 1
vn -0 0 1
vn -0 0 1
vn -0 0 1
vn -0 0 1
vn -0 0 1
vn -0 0 1
vn -0 0 1
vn -0 0 1
vn -0 0 1
vn -0 0 1
vn -0 0 1
vn -0 0 1
vn -0 0 1
vn -0 0 1
vn -0 0 1
vn -0 0 1
vn -0 0 1
vn -0 0 1
vn -0 0 1
vn -0 0 1
vn -0 0 1
vn -0 0 1
vn -0 0 1
vn -0 0 1
vn -0 0 1
vn -0 0 1
vn -0 0 1
vn -0 0 1
vn -0 0 1
vn -0 0 1
vn -0 0 1
vn -0 0 1
vn -0 0 1
vn -0 0 1
vn -0 0 1
vn -0 0 1
vn -0 0 1
vn -0 0 1
g DeckShield_F_0
f 3/3/3 2/2/2 1/1/1
f 2/2/2 4/4/4 1/1/1
f 5/5/5 1/1/1 4/4/4
f 6/6/6 5/5/5 4/4/4
f 8/8/8 2/2/2 7/7/7
f 8/8/8 9/9/9 2/2/2
f 9/9/9 10/10/10 2/2/2
f 2/2/2 10/10/10 11/11/11
f 12/12/12 9/9/9 8/8/8
f 13/13/13 12/12/12 8/8/8
f 9/9/9 12/12/12 14/14/14
f 15/15/15 9/9/9 14/14/14
f 10/10/10 9/9/9 15/15/15
f 14/14/14 16/16/16 15/15/15
f 17/17/17 15/15/15 16/16/16
f 18/18/18 15/15/15 17/17/17
f 18/18/18 19/19/19 15/15/15
f 19/19/19 20/20/20 15/15/15
f 21/21/21 15/15/15 20/20/20
f 21/21/21 22/22/22 15/15/15
f 13/13/13 8/8/8 23/23/23
f 24/24/24 13/13/13 23/23/23
f 24/24/24 23/23/23 25/25/25
f 23/23/23 8/8/8 7/7/7
f 23/23/23 26/26/26 25/25/25
f 23/23/23 7/7/7 26/26/26
f 25/25/25 26/26/26 27/27/27
f 26/26/26 28/28/28 27/27/27
f 29/29/29 28/28/28 26/26/26
f 29/29/29 26/26/26 30/30/30
f 30/30/30 26/26/26 31/31/31
f 26/26/26 32/32/32 31/31/31
f 32/32/32 26/26/26 33/33/33
f 7/7/7 34/34/34 26/26/26
f 26/26/26 34/34/34 33/33/33
f 34/34/34 35/35/35 33/33/33
f 7/7/7 36/36/36 34/34/34
f 34/34/34 37/37/37 35/35/35
f 36/36/36 37/37/37 34/34/34
f 37/37/37 38/38/38 35/35/35
f 39/39/39 37/37/37 36/36/36
f 38/38/38 37/37/37 39/39/39
f 40/40/40 38/38/38 39/39/39
f 40/40/40 39/39/39 41/41/41
f 42/42/42 39/39/39 36/36/36
f 39/39/39 43/43/43 41/41/41
f 39/39/39 42/42/42 43/43/43
f 44/44/44 41/41/41 43/43/43
f 44/44/44 43/43/43 45/45/45
f 46/46/46 45/45/45 43/43/43
f 46/46/46 43/43/43 47/47/47
f 48/48/48 47/47/47 43/43/43
f 48/48/48 43/43/43 49/49/49
f 50/50/50 49/49/49 43/43/43
f 42/42/42 51/51/51 43/43/43
f 43/43/43 51/51/51 50/50/50
f 51/51/51 52/52/52 50/50/50
f 42/42/42 53/53/53 51/51/51
f 51/51/51 54/54/54 52/52/52
f 53/53/53 54/54/54 51/51/51
f 54/54/54 55/55/55 52/52/52
f 53/53/53 56/56/56 54/54/54
f 53/53/53 11/11/11 56/56/56
f 54/54/54 57/57/57 55/55/55
f 56/56/56 57/57/57 54/54/54
f 57/57/57 58/58/58 55/55/55
f 58/58/58 57/57/57 59/59/59
f 57/57/57 60/60/60 59/59/59
f 57/57/57 56/56/56 60/60/60
f 59/59/59 60/60/60 61/61/61
f 60/60/60 62/62/62 61/61/61
f 63/63/63 62/62/62 60/60/60
f 63/63/63 60/60/60 64/64/64
f 64/64/64 60/60/60 65/65/65
f 60/60/60 66/66/66 65/65/65
f 66/66/66 60/60/60 67/67/67
f 60/60/60 68/68/68 67/67/67
f 56/56/56 68/68/68 60/60/60
f 68/68/68 69/69/69 67/67/67
f 56/56/56 70/70/70 68/68/68
f 11/11/11 70/70/70 56/56/56
f 10/10/10 70/70/70 11/11/11
f 68/68/68 71/71/71 69/69/69
f 70/70/70 71/71/71 68/68/68
f 71/71/71 70/70/70 10/10/10
f 71/71/71 72/72/72 69/69/69
f 73/73/73 71/71/71 10/10/10
f 72/72/72 71/71/71 73/73/73
f 73/73/73 10/10/10 15/15/15
f 74/74/74 72/72/72 73/73/73
f 73/73/73 15/15/15 22/22/22
f 74/74/74 73/73/73 22/22/22
