g Ene_Battle
v 0.051355746 0.15805589 0
v 0.024725342 0.16414414 0.008032179
v 0.025997734 0.16414414 0
v -1.1290811E-22 0.16618958 0
v 0.021032715 0.16414414 0.015279484
v 0.0152812 0.16414414 0.021030998
v 0.04884224 0.15805589 0.015868092
v 0.07544861 0.14807664 0
v 0.041547395 0.15805589 0.030184364
v 0.07175636 0.14807664 0.02331314
v 0.09768448 0.13445054 0
v 0.09290314 0.13445054 0.030184364
v 0.11751404 0.11751404 0
v 0.061039355 0.14807664 0.044345856
v 0.030185891 0.15805589 0.041545868
v 0.111763 0.11751404 0.036312103
v 0.1344513 0.09768372 0
v 0.07902832 0.13445054 0.057415392
v 0.12787019 0.09768372 0.041545868
v 0.1480774 0.07544861 0
v 0.008033848 0.16414414 0.024723817
v 0.044347763 0.14807664 0.061037447
v 0.09507141 0.11751404 0.069071196
v 0.14083023 0.07544861 0.04575653
v 0.15805589 0.051354982 0
v 0.015869712 0.15805589 0.048839953
v 0.0574173 0.13445054 0.079026036
v 0.108773045 0.09768372 0.079026036
v 0.15031968 0.051354982 0.048839953
v 0.16414566 0.025997734 0
v -0 0.16414414 0.025996208
v 0.023314858 0.14807664 0.071754456
v 0.0690731 0.11751404 0.095069125
v 0.11979675 0.07544861 0.08703537
v 0.15611039 0.025997734 0.050721742
v 0.16618958 0 0
v -0 0.15805589 0.051353455
v 0.030185891 0.13445054 0.09290161
v 0.07902832 0.09768372 0.10877075
v 0.12787019 0.051354982 0.09290161
v 0.15805589 0 0.051353455
v 0.16414566 -0.025997926 0
v -0 0.14807664 0.0754467
v 0.03631382 0.11751404 0.11176071
v 0.08703766 0.07544861 0.119794466
v 0.13279572 0.025997734 0.096479036
v 0.15611039 -0.025997926 0.050721742
v 0.15805589 -0.051355362 0
v 1.8071677E-16 0.13445054 0.09768219
v 0.041547395 0.09768372 0.12786865
v 0.09290314 0.051354982 0.12786865
v 0.1344513 0 0.09768219
v 0.15031968 -0.051355362 0.048839953
v 0.1480774 -0.07544861 0
v 1.8314529E-16 0.11751404 0.11751252
v 0.045758437 0.07544861 0.14082794
v 0.09648132 0.025997734 0.13279419
v 0.13279572 -0.025997926 0.096479036
v 0.14083023 -0.07544861 0.04575653
v 0.1344513 -0.09768372 0
v 1.8521938E-16 0.09768372 0.13444977
v 0.04884224 0.051354982 0.1503189
v 0.09768448 0 0.13444977
v 0.12787019 -0.051355362 0.09290161
v 0.12787019 -0.09768372 0.041545868
v 0.11751404 -0.11751404 0
v 1.868881E-16 0.07544861 0.1480751
v 0.05072365 0.025997734 0.15610962
v 0.09648132 -0.025997926 0.13279419
v 0.11979675 -0.07544861 0.08703537
v 0.111763 -0.11751404 0.036312103
v 0.09768448 -0.13445054 0
v 1.8811024E-16 0.051354982 0.15805435
v 0.051355746 0 0.15805435
v 0.09290314 -0.051355362 0.12786865
v 0.108773045 -0.09768372 0.079026036
v 0.09290314 -0.13445054 0.030184364
v 0.07544861 -0.14807664 0
v 1.8885584E-16 0.025997734 0.16414261
v 0.05072365 -0.025997926 0.15610962
v 0.08703766 -0.07544861 0.119794466
v 0.09507141 -0.11751404 0.069071196
v 0.07175636 -0.14807664 0.02331314
v 0.051355746 -0.15805665 0
v 1.8910634E-16 0 0.16618805
v 0.04884224 -0.051355362 0.1503189
v 0.07902832 -0.09768372 0.10877075
v 0.07902832 -0.13445054 0.057415392
v 0.04884224 -0.15805665 0.015868092
v 0.025997734 -0.16414337 0
v 1.8885584E-16 -0.025997926 0.16414261
v 0.045758437 -0.07544861 0.14082794
v 0.0690731 -0.11751404 0.095069125
v 0.061039355 -0.14807664 0.044345856
v 0.024725342 -0.16414337 0.008032179
v -1.1117308E-22 -0.16618958 0
v 0.021032715 -0.16414337 0.015279484
v 0.0152812 -0.16414337 0.021030998
v 0.041547395 -0.15805665 0.030184364
v 0.0574173 -0.13445054 0.079026036
v 0.041547395 -0.09768372 0.12786865
v 0.030185891 -0.15805665 0.041545868
v 0.044347763 -0.14807664 0.061037447
v 0.03631382 -0.11751404 0.11176071
v 0.030185891 -0.13445054 0.09290161
v 0.023314858 -0.14807664 0.071754456
v 0.015869712 -0.15805665 0.048839953
v 0.008033848 -0.16414337 0.024723817
v 1.868881E-16 -0.07544861 0.1480751
v 1.8521938E-16 -0.09768372 0.13444977
v 1.8314529E-16 -0.11751404 0.11751252
v 1.8071677E-16 -0.13445054 0.09768219
v 1.779937E-16 -0.14807664 0.0754467
v 1.7504316E-16 -0.15805665 0.051353455
v 1.7193775E-16 -0.16414337 0.025996208
v -0.008033848 -0.16414337 0.024723817
v -0.015869712 -0.15805665 0.048839953
v -0.023314858 -0.14807664 0.071754456
v -0.030185891 -0.13445054 0.09290161
v -0.03631382 -0.11751404 0.11176071
v -0.0152812 -0.16414337 0.021030998
v -0.030185891 -0.15805665 0.041545868
v -0.044347763 -0.14807664 0.061037447
v -0.021032715 -0.16414337 0.015279484
v -0.024725342 -0.16414337 0.008032179
v -0.025997734 -0.16414337 0
v -0.041547395 -0.15805665 0.030184364
v -0.04884224 -0.15805665 0.015868092
v -0.051355746 -0.15805665 0
v -0.0574173 -0.13445054 0.079026036
v -0.061039355 -0.14807664 0.044345856
v -0.07175636 -0.14807664 0.02331314
v -0.07544861 -0.14807664 0
v -0.07902832 -0.13445054 0.057415392
v -0.09290314 -0.13445054 0.030184364
v -0.09768448 -0.13445054 0
v -0.0690731 -0.11751404 0.095069125
v -0.111763 -0.11751404 0.036312103
v -0.11751404 -0.11751404 0
v -0.09507141 -0.11751404 0.069071196
v -0.041547395 -0.09768372 0.12786865
v -0.12787019 -0.09768372 0.041545868
v -0.1344513 -0.09768372 0
v -0.108773045 -0.09768372 0.079026036
v -0.07902832 -0.09768372 0.10877075
v -0.045758437 -0.07544861 0.14082794
v -0.14083023 -0.07544861 0.04575653
v -0.1480774 -0.07544861 0
v -0.11979675 -0.07544861 0.08703537
v -0.08703766 -0.07544861 0.119794466
v 1.8811024E-16 -0.051355362 0.15805435
v -0.04884224 -0.051355362 0.1503189
v -0.15031968 -0.051355362 0.048839953
v -0.15805589 -0.051355362 0
v -0.12787019 -0.051355362 0.09290161
v -0.09290314 -0.051355362 0.12786865
v -0.05072365 -0.025997926 0.15610962
v -0.15611039 -0.025997926 0.050721742
v -0.16414566 -0.025997926 0
v -0.13279572 -0.025997926 0.096479036
v -0.09648132 -0.025997926 0.13279419
v -0.051355746 0 0.15805435
v -0.15805589 0 0.051353455
v -0.16618958 0 0
v -0.1344513 0 0.09768219
v -0.09768448 0 0.13444977
v -0.05072365 0.025997734 0.15610962
v -0.15611039 0.025997734 0.050721742
v -0.16414566 0.025997734 0
v -0.13279572 0.025997734 0.096479036
v -0.09648132 0.025997734 0.13279419
v -0.04884224 0.051354982 0.1503189
v -0.15031968 0.051354982 0.048839953
v -0.15805589 0.051354982 0
v -0.12787019 0.051354982 0.09290161
v -0.09290314 0.051354982 0.12786865
v -0.045758437 0.07544861 0.14082794
v -0.14083023 0.07544861 0.04575653
v -0.1480774 0.07544861 0
v -0.11979675 0.07544861 0.08703537
v -0.08703766 0.07544861 0.119794466
v -0.041547395 0.09768372 0.12786865
v -0.12787019 0.09768372 0.041545868
v -0.1344513 0.09768372 0
v -0.108773045 0.09768372 0.079026036
v -0.07902832 0.09768372 0.10877075
v -0.03631382 0.11751404 0.11176071
v -0.111763 0.11751404 0.036312103
v -0.11751404 0.11751404 0
v -0.09507141 0.11751404 0.069071196
v -0.0690731 0.11751404 0.095069125
v -0.030185891 0.13445054 0.09290161
v -0.09290314 0.13445054 0.030184364
v -0.09768448 0.13445054 0
v -0.07902832 0.13445054 0.057415392
v -0.0574173 0.13445054 0.079026036
v -0.023314858 0.14807664 0.071754456
v -0.07175636 0.14807664 0.02331314
v -0.07544861 0.14807664 0
v -0.061039355 0.14807664 0.044345856
v -0.044347763 0.14807664 0.061037447
v -0.015869712 0.15805589 0.048839953
v -0.04884224 0.15805589 0.015868092
v -0.051355746 0.15805589 0
v -0.041547395 0.15805589 0.030184364
v -0.030185891 0.15805589 0.041545868
v -0.008033848 0.16414414 0.024723817
v -0.0152812 0.16414414 0.021030998
v -0.021032715 0.16414414 0.015279484
v -0.024725342 0.16414414 0.008032179
v -0.025997734 0.16414414 0
v -0.051355746 0.15805589 0
v -0.024725342 0.16414414 -0.008032179
v -0.025997734 0.16414414 0
v -1.1290811E-22 0.16618958 0
v -0.021032715 0.16414414 -0.015279484
v -0.0152812 0.16414414 -0.021030998
v -0.04884224 0.15805589 -0.015868092
v -0.07544861 0.14807664 0
v -0.041547395 0.15805589 -0.030184364
v -0.07175636 0.14807664 -0.02331314
v -0.09768448 0.13445054 0
v -0.09290314 0.13445054 -0.030184364
v -0.11751404 0.11751404 0
v -0.061039355 0.14807664 -0.044345856
v -0.030185891 0.15805589 -0.041545868
v -0.111763 0.11751404 -0.036312103
v -0.1344513 0.09768372 0
v -0.07902832 0.13445054 -0.057415392
v -0.12787019 0.09768372 -0.041545868
v -0.1480774 0.07544861 0
v -0.008033848 0.16414414 -0.024723817
v -0.044347763 0.14807664 -0.061037447
v -0.09507141 0.11751404 -0.069071196
v -0.14083023 0.07544861 -0.04575653
v -0.15805589 0.051354982 0
v -0.015869712 0.15805589 -0.048839953
v -0.0574173 0.13445054 -0.079026036
v -0.108773045 0.09768372 -0.079026036
v -0.15031968 0.051354982 -0.048839953
v -0.16414566 0.025997734 0
v 3.1836174E-18 0.16414414 -0.025996208
v -0.023314858 0.14807664 -0.071754456
v -0.0690731 0.11751404 -0.095069125
v -0.11979675 0.07544861 -0.08703537
v -0.15611039 0.025997734 -0.050721742
v -0.16618958 0 0
v 6.2889847E-18 0.15805589 -0.051353455
v -0.030185891 0.13445054 -0.09290161
v -0.07902832 0.09768372 -0.10877075
v -0.12787019 0.051354982 -0.09290161
v -0.15805589 0 -0.051353455
v -0.16414566 -0.025997926 0
v 9.239557E-18 0.14807664 -0.0754467
v -0.03631382 0.11751404 -0.11176071
v -0.08703766 0.07544861 -0.119794466
v -0.13279572 0.025997734 -0.096479036
v -0.15611039 -0.025997926 -0.050721742
v -0.15805589 -0.051355362 0
v -1.6875415E-16 0.13445054 -0.09768219
v -0.041547395 0.09768372 -0.12786865
v -0.09290314 0.051354982 -0.12786865
v -0.1344513 0 -0.09768219
v -0.15031968 -0.051355362 -0.048839953
v -0.1480774 -0.07544861 0
v -1.6875416E-16 0.11751404 -0.11751252
v -0.045758437 0.07544861 -0.14082794
v -0.09648132 0.025997734 -0.13279419
v -0.13279572 -0.025997926 -0.096479036
v -0.14083023 -0.07544861 -0.04575653
v -0.1344513 -0.09768372 0
v -1.6875404E-16 0.09768372 -0.13444977
v -0.04884224 0.051354982 -0.1503189
v -0.09768448 0 -0.13444977
v -0.12787019 -0.051355362 -0.09290161
v -0.12787019 -0.09768372 -0.041545868
v -0.11751404 -0.11751404 0
v -1.6875414E-16 0.07544861 -0.1480751
v -0.05072365 0.025997734 -0.15610962
v -0.09648132 -0.025997926 -0.13279419
v -0.11979675 -0.07544861 -0.08703537
v -0.111763 -0.11751404 -0.036312103
v -0.09768448 -0.13445054 0
v -1.6875416E-16 0.051354982 -0.15805435
v -0.051355746 0 -0.15805435
v -0.09290314 -0.051355362 -0.12786865
v -0.108773045 -0.09768372 -0.079026036
v -0.09290314 -0.13445054 -0.030184364
v -0.07544861 -0.14807664 0
v -1.6875418E-16 0.025997734 -0.16414261
v -0.05072365 -0.025997926 -0.15610962
v -0.08703766 -0.07544861 -0.119794466
v -0.09507141 -0.11751404 -0.069071196
v -0.07175636 -0.14807664 -0.02331314
v -0.051355746 -0.15805665 0
v -1.6875416E-16 0 -0.16618805
v -0.04884224 -0.051355362 -0.1503189
v -0.07902832 -0.09768372 -0.10877075
v -0.07902832 -0.13445054 -0.057415392
v -0.04884224 -0.15805665 -0.015868092
v -0.025997734 -0.16414337 0
v -1.6875418E-16 -0.025997926 -0.16414261
v -0.045758437 -0.07544861 -0.14082794
v -0.0690731 -0.11751404 -0.095069125
v -0.061039355 -0.14807664 -0.044345856
v -0.024725342 -0.16414337 -0.008032179
v -1.1117308E-22 -0.16618958 0
v -0.021032715 -0.16414337 -0.015279484
v -0.0152812 -0.16414337 -0.021030998
v -0.041547395 -0.15805665 -0.030184364
v -0.0574173 -0.13445054 -0.079026036
v -0.041547395 -0.09768372 -0.12786865
v -0.030185891 -0.15805665 -0.041545868
v -0.044347763 -0.14807664 -0.061037447
v -0.03631382 -0.11751404 -0.11176071
v -0.030185891 -0.13445054 -0.09290161
v -0.023314858 -0.14807664 -0.071754456
v -0.015869712 -0.15805665 -0.048839953
v -0.008033848 -0.16414337 -0.024723817
v -1.6875414E-16 -0.07544861 -0.1480751
v -1.6875404E-16 -0.09768372 -0.13444977
v -1.6875416E-16 -0.11751404 -0.11751252
v -1.6875415E-16 -0.13445054 -0.09768219
v -1.6875415E-16 -0.14807664 -0.0754467
v -1.6875416E-16 -0.15805665 -0.051353455
v -1.6875414E-16 -0.16414337 -0.025996208
v 0.008033848 -0.16414337 -0.024723817
v 0.015869712 -0.15805665 -0.048839953
v 0.023314858 -0.14807664 -0.071754456
v 0.030185891 -0.13445054 -0.09290161
v 0.03631382 -0.11751404 -0.11176071
v 0.0152812 -0.16414337 -0.021030998
v 0.030185891 -0.15805665 -0.041545868
v 0.044347763 -0.14807664 -0.061037447
v 0.021032715 -0.16414337 -0.015279484
v 0.024725342 -0.16414337 -0.008032179
v 0.025997734 -0.16414337 0
v 0.041547395 -0.15805665 -0.030184364
v 0.04884224 -0.15805665 -0.015868092
v 0.051355746 -0.15805665 0
v 0.0574173 -0.13445054 -0.079026036
v 0.061039355 -0.14807664 -0.044345856
v 0.07175636 -0.14807664 -0.02331314
v 0.07544861 -0.14807664 0
v 0.07902832 -0.13445054 -0.057415392
v 0.09290314 -0.13445054 -0.030184364
v 0.09768448 -0.13445054 0
v 0.0690731 -0.11751404 -0.095069125
v 0.111763 -0.11751404 -0.036312103
v 0.11751404 -0.11751404 0
v 0.09507141 -0.11751404 -0.069071196
v 0.041547395 -0.09768372 -0.12786865
v 0.12787019 -0.09768372 -0.041545868
v 0.1344513 -0.09768372 0
v 0.108773045 -0.09768372 -0.079026036
v 0.07902832 -0.09768372 -0.10877075
v 0.045758437 -0.07544861 -0.14082794
v 0.14083023 -0.07544861 -0.04575653
v 0.1480774 -0.07544861 0
v 0.11979675 -0.07544861 -0.08703537
v 0.08703766 -0.07544861 -0.119794466
v -1.6875416E-16 -0.051355362 -0.15805435
v 0.04884224 -0.051355362 -0.1503189
v 0.15031968 -0.051355362 -0.048839953
v 0.15805589 -0.051355362 0
v 0.12787019 -0.051355362 -0.09290161
v 0.09290314 -0.051355362 -0.12786865
v 0.05072365 -0.025997926 -0.15610962
v 0.15611039 -0.025997926 -0.050721742
v 0.16414566 -0.025997926 0
v 0.13279572 -0.025997926 -0.096479036
v 0.09648132 -0.025997926 -0.13279419
v 0.051355746 0 -0.15805435
v 0.15805589 0 -0.051353455
v 0.16618958 0 0
v 0.1344513 0 -0.09768219
v 0.09768448 0 -0.13444977
v 0.05072365 0.025997734 -0.15610962
v 0.15611039 0.025997734 -0.050721742
v 0.16414566 0.025997734 0
v 0.13279572 0.025997734 -0.096479036
v 0.09648132 0.025997734 -0.13279419
v 0.04884224 0.051354982 -0.1503189
v 0.15031968 0.051354982 -0.048839953
v 0.15805589 0.051354982 0
v 0.12787019 0.051354982 -0.09290161
v 0.09290314 0.051354982 -0.12786865
v 0.045758437 0.07544861 -0.14082794
v 0.14083023 0.07544861 -0.04575653
v 0.1480774 0.07544861 0
v 0.11979675 0.07544861 -0.08703537
v 0.08703766 0.07544861 -0.119794466
v 0.041547395 0.09768372 -0.12786865
v 0.12787019 0.09768372 -0.041545868
v 0.1344513 0.09768372 0
v 0.108773045 0.09768372 -0.079026036
v 0.07902832 0.09768372 -0.10877075
v 0.03631382 0.11751404 -0.11176071
v 0.111763 0.11751404 -0.036312103
v 0.11751404 0.11751404 0
v 0.09507141 0.11751404 -0.069071196
v 0.0690731 0.11751404 -0.095069125
v 0.030185891 0.13445054 -0.09290161
v 0.09290314 0.13445054 -0.030184364
v 0.09768448 0.13445054 0
v 0.07902832 0.13445054 -0.057415392
v 0.0574173 0.13445054 -0.079026036
v 0.023314858 0.14807664 -0.071754456
v 0.07175636 0.14807664 -0.02331314
v 0.07544861 0.14807664 0
v 0.061039355 0.14807664 -0.044345856
v 0.044347763 0.14807664 -0.061037447
v 0.015869712 0.15805589 -0.048839953
v 0.04884224 0.15805589 -0.015868092
v 0.051355746 0.15805589 0
v 0.041547395 0.15805589 -0.030184364
v 0.030185891 0.15805589 -0.041545868
v 0.008033848 0.16414414 -0.024723817
v 0.0152812 0.16414414 -0.021030998
v 0.021032715 0.16414414 -0.015279484
v 0.024725342 0.16414414 -0.008032179
v 0.025997734 0.16414414 0
vt 0.64746094 0.9526367
vt 0.5698242 0.95458984
vt 0.5761719 0.97021484
vt 0.5 0.9765625
vt 0.5576172 0.94140625
vt 0.5395508 0.9321289
vt 0.6308594 0.9238281
vt 0.7167969 0.92333984
vt 0.60498047 0.90185547
vt 0.6870117 0.8857422
vt 0.78027344 0.8833008
vt 0.73583984 0.8413086
vt 0.83691406 0.83447266
vt 0.64697266 0.85839844
vt 0.5727539 0.88623047
vt 0.77734375 0.7915039
vt 0.8852539 0.77783203
vt 0.6826172 0.8120117
vt 0.81152344 0.73828125
vt 0.92333984 0.71435547
vt 0.52001953 0.92626953
vt 0.6010742 0.83984375
vt 0.71191406 0.7631836
vt 0.8383789 0.6816406
vt 0.95166016 0.6459961
vt 0.5371094 0.8769531
vt 0.62402344 0.79248047
vt 0.73535156 0.71240234
vt 0.8574219 0.6225586
vt 0.96875 0.57421875
vt 0.5 0.9238281
vt 0.55078125 0.82910156
vt 0.6425781 0.7446289
vt 0.75341797 0.66064453
vt 0.86865234 0.5620117
vt 0.9746094 0.5
vt 0.5 0.87402344
vt 0.5625 0.78125
vt 0.65771484 0.69628906
vt 0.7661133 0.60791016
vt 0.8725586 0.5
vt 0.9692383 0.42773438
vt 0.5 0.8251953
vt 0.57128906 0.734375
vt 0.6689453 0.64746094
vt 0.7739258 0.5541992
vt 0.8691406 0.43945312
vt 0.95214844 0.35595703
vt 0.5 0.77783203
vt 0.5786133 0.6870117
vt 0.6767578 0.5986328
vt 0.77685547 0.5
vt 0.85791016 0.3791504
vt 0.9243164 0.28759766
vt 0.5 0.73095703
vt 0.58447266 0.640625
vt 0.6816406 0.5498047
vt 0.77441406 0.44677734
vt 0.8388672 0.32006836
vt 0.88623047 0.22399902
vt 0.5 0.68408203
vt 0.5883789 0.59375
vt 0.68310547 0.5
vt 0.76660156 0.39331055
vt 0.8125 0.2631836
vt 0.8383789 0.16687012
vt 0.5 0.6381836
vt 0.59033203 0.546875
vt 0.6816406 0.45117188
vt 0.75439453 0.34057617
vt 0.7788086 0.20947266
vt 0.78222656 0.11773682
vt 0.5 0.5917969
vt 0.5913086 0.5
vt 0.6772461 0.4020996
vt 0.7363281 0.28857422
vt 0.7373047 0.15979004
vt 0.71875 0.07775879
vt 0.5 0.54589844
vt 0.5908203 0.45336914
vt 0.6694336 0.35327148
vt 0.7128906 0.23791504
vt 0.68847656 0.11505127
vt 0.64941406 0.04815674
vt 0.5 0.5
vt 0.5883789 0.40673828
vt 0.6582031 0.30444336
vt 0.68359375 0.18896484
vt 0.6323242 0.076538086
vt 0.5761719 0.029830933
vt 0.5 0.45410156
vt 0.58496094 0.35986328
vt 0.6435547 0.25610352
vt 0.6484375 0.14233398
vt 0.5698242 0.04547119
vt 0.5 0.023452759
vt 0.5576172 0.05847168
vt 0.5415039 0.068115234
vt 0.6069336 0.09851074
vt 0.625 0.20812988
vt 0.57958984 0.31298828
vt 0.57470703 0.11395264
vt 0.60253906 0.1607666
vt 0.5727539 0.26611328
vt 0.56347656 0.21887207
vt 0.5522461 0.17126465
vt 0.5385742 0.12310791
vt 0.52197266 0.074035645
vt 0.5 0.36206055
vt 0.5 0.31567383
vt 0.5 0.2692871
vt 0.5 0.22229004
vt 0.5 0.17468262
vt 0.5 0.12609863
vt 0.5 0.07598877
vt 0.47827148 0.074035645
vt 0.46142578 0.12310791
vt 0.44750977 0.17126465
vt 0.43652344 0.21887207
vt 0.42749023 0.26611328
vt 0.45874023 0.068115234
vt 0.42529297 0.11395264
vt 0.39770508 0.1607666
vt 0.44213867 0.05847168
vt 0.43017578 0.04547119
vt 0.42382812 0.029830933
vt 0.39331055 0.09851074
vt 0.36743164 0.076538086
vt 0.35083008 0.04815674
vt 0.37475586 0.20812988
vt 0.3515625 0.14233398
vt 0.31152344 0.11505127
vt 0.28149414 0.07775879
vt 0.3161621 0.18896484
vt 0.2626953 0.15979004
vt 0.21789551 0.11773682
vt 0.35620117 0.25610352
vt 0.22131348 0.20947266
vt 0.1616211 0.16687012
vt 0.28710938 0.23791504
vt 0.42041016 0.31298828
vt 0.18737793 0.2631836
vt 0.11376953 0.22399902
vt 0.26367188 0.28857422
vt 0.34155273 0.30444336
vt 0.41503906 0.35986328
vt 0.16101074 0.32006836
vt 0.07556152 0.28759766
vt 0.24584961 0.34057617
vt 0.3305664 0.35327148
vt 0.5 0.40795898
vt 0.41137695 0.40673828
vt 0.14208984 0.3791504
vt 0.047790527 0.35595703
vt 0.23327637 0.39331055
vt 0.3227539 0.4020996
vt 0.4091797 0.45336914
vt 0.13085938 0.43945312
vt 0.030929565 0.42773438
vt 0.22583008 0.44677734
vt 0.31811523 0.45117188
vt 0.4086914 0.5
vt 0.12719727 0.5
vt 0.025390625 0.5
vt 0.22338867 0.5
vt 0.3166504 0.5
vt 0.40942383 0.546875
vt 0.13110352 0.5620117
vt 0.031234741 0.57421875
vt 0.22595215 0.5541992
vt 0.31835938 0.5498047
vt 0.41186523 0.59375
vt 0.1427002 0.6225586
vt 0.04840088 0.6459961
vt 0.23364258 0.60791016
vt 0.3232422 0.5986328
vt 0.41577148 0.640625
vt 0.16174316 0.6816406
vt 0.07647705 0.71435547
vt 0.24645996 0.66064453
vt 0.3310547 0.64746094
vt 0.42114258 0.6870117
vt 0.18835449 0.73828125
vt 0.114990234 0.77783203
vt 0.26464844 0.71240234
vt 0.3425293 0.69628906
vt 0.4284668 0.734375
vt 0.22253418 0.7915039
vt 0.16296387 0.83447266
vt 0.28808594 0.7631836
vt 0.35742188 0.7446289
vt 0.43774414 0.78125
vt 0.26416016 0.8413086
vt 0.21948242 0.8833008
vt 0.31762695 0.8120117
vt 0.3762207 0.79248047
vt 0.4489746 0.82910156
vt 0.31323242 0.8857422
vt 0.28320312 0.92333984
vt 0.35302734 0.85839844
vt 0.39916992 0.83984375
vt 0.46289062 0.8769531
vt 0.36938477 0.9238281
vt 0.3527832 0.9526367
vt 0.39501953 0.90185547
vt 0.42700195 0.88623047
vt 0.47998047 0.92626953
vt 0.46069336 0.9321289
vt 0.44213867 0.94140625
vt 0.43017578 0.95458984
vt 0.42382812 0.97021484
vt 0.64746094 0.9526367
vt 0.5698242 0.95458984
vt 0.5761719 0.97021484
vt 0.5 0.9765625
vt 0.5576172 0.94140625
vt 0.5395508 0.9321289
vt 0.6308594 0.9238281
vt 0.7167969 0.92333984
vt 0.60498047 0.90185547
vt 0.6870117 0.8857422
vt 0.78027344 0.8833008
vt 0.73583984 0.8413086
vt 0.83691406 0.83447266
vt 0.64697266 0.85839844
vt 0.5727539 0.88623047
vt 0.77734375 0.7915039
vt 0.8852539 0.77783203
vt 0.6826172 0.8120117
vt 0.81152344 0.73828125
vt 0.92333984 0.71435547
vt 0.52001953 0.92626953
vt 0.6010742 0.83984375
vt 0.71191406 0.7631836
vt 0.8383789 0.6816406
vt 0.95166016 0.6459961
vt 0.5371094 0.8769531
vt 0.62402344 0.79248047
vt 0.73535156 0.71240234
vt 0.8574219 0.6225586
vt 0.96875 0.57421875
vt 0.5 0.9238281
vt 0.55078125 0.82910156
vt 0.6425781 0.7446289
vt 0.75341797 0.66064453
vt 0.86865234 0.5620117
vt 0.9746094 0.5
vt 0.5 0.87402344
vt 0.5625 0.78125
vt 0.65771484 0.69628906
vt 0.7661133 0.60791016
vt 0.8725586 0.5
vt 0.9692383 0.42773438
vt 0.5 0.8251953
vt 0.57128906 0.734375
vt 0.6689453 0.64746094
vt 0.7739258 0.5541992
vt 0.8691406 0.43945312
vt 0.95214844 0.35595703
vt 0.5 0.77783203
vt 0.5786133 0.6870117
vt 0.6767578 0.5986328
vt 0.77685547 0.5
vt 0.85791016 0.3791504
vt 0.9243164 0.28759766
vt 0.5 0.73095703
vt 0.58447266 0.640625
vt 0.6816406 0.5498047
vt 0.77441406 0.44677734
vt 0.8388672 0.32006836
vt 0.88623047 0.22399902
vt 0.5 0.68408203
vt 0.5883789 0.59375
vt 0.68310547 0.5
vt 0.76660156 0.39331055
vt 0.8125 0.2631836
vt 0.8383789 0.16687012
vt 0.5 0.6381836
vt 0.59033203 0.546875
vt 0.6816406 0.45117188
vt 0.75439453 0.34057617
vt 0.7788086 0.20947266
vt 0.78222656 0.11773682
vt 0.5 0.5917969
vt 0.5913086 0.5
vt 0.6772461 0.4020996
vt 0.7363281 0.28857422
vt 0.7373047 0.15979004
vt 0.71875 0.07775879
vt 0.5 0.54589844
vt 0.5908203 0.45336914
vt 0.6694336 0.35327148
vt 0.7128906 0.23791504
vt 0.68847656 0.11505127
vt 0.64941406 0.04815674
vt 0.5 0.5
vt 0.5883789 0.40673828
vt 0.6582031 0.30444336
vt 0.68359375 0.18896484
vt 0.6323242 0.076538086
vt 0.5761719 0.029830933
vt 0.5 0.45410156
vt 0.58496094 0.35986328
vt 0.6435547 0.25610352
vt 0.6484375 0.14233398
vt 0.5698242 0.04547119
vt 0.5 0.023452759
vt 0.5576172 0.05847168
vt 0.5415039 0.068115234
vt 0.6069336 0.09851074
vt 0.625 0.20812988
vt 0.57958984 0.31298828
vt 0.57470703 0.11395264
vt 0.60253906 0.1607666
vt 0.5727539 0.26611328
vt 0.56347656 0.21887207
vt 0.5522461 0.17126465
vt 0.5385742 0.12310791
vt 0.52197266 0.074035645
vt 0.5 0.36206055
vt 0.5 0.31567383
vt 0.5 0.2692871
vt 0.5 0.22229004
vt 0.5 0.17468262
vt 0.5 0.12609863
vt 0.5 0.07598877
vt 0.47827148 0.074035645
vt 0.46142578 0.12310791
vt 0.44750977 0.17126465
vt 0.43652344 0.21887207
vt 0.42749023 0.26611328
vt 0.45874023 0.068115234
vt 0.42529297 0.11395264
vt 0.39770508 0.1607666
vt 0.44213867 0.05847168
vt 0.43017578 0.04547119
vt 0.42382812 0.029830933
vt 0.39331055 0.09851074
vt 0.36743164 0.076538086
vt 0.35083008 0.04815674
vt 0.37475586 0.20812988
vt 0.3515625 0.14233398
vt 0.31152344 0.11505127
vt 0.28149414 0.07775879
vt 0.3161621 0.18896484
vt 0.2626953 0.15979004
vt 0.21789551 0.11773682
vt 0.35620117 0.25610352
vt 0.22131348 0.20947266
vt 0.1616211 0.16687012
vt 0.28710938 0.23791504
vt 0.42041016 0.31298828
vt 0.18737793 0.2631836
vt 0.11376953 0.22399902
vt 0.26367188 0.28857422
vt 0.34155273 0.30444336
vt 0.41503906 0.35986328
vt 0.16101074 0.32006836
vt 0.07556152 0.28759766
vt 0.24584961 0.34057617
vt 0.3305664 0.35327148
vt 0.5 0.40795898
vt 0.41137695 0.40673828
vt 0.14208984 0.3791504
vt 0.047790527 0.35595703
vt 0.23327637 0.39331055
vt 0.3227539 0.4020996
vt 0.4091797 0.45336914
vt 0.13085938 0.43945312
vt 0.030929565 0.42773438
vt 0.22583008 0.44677734
vt 0.31811523 0.45117188
vt 0.4086914 0.5
vt 0.12719727 0.5
vt 0.025390625 0.5
vt 0.22338867 0.5
vt 0.3166504 0.5
vt 0.40942383 0.546875
vt 0.13110352 0.5620117
vt 0.031234741 0.57421875
vt 0.22595215 0.5541992
vt 0.31835938 0.5498047
vt 0.41186523 0.59375
vt 0.1427002 0.6225586
vt 0.04840088 0.6459961
vt 0.23364258 0.60791016
vt 0.3232422 0.5986328
vt 0.41577148 0.640625
vt 0.16174316 0.6816406
vt 0.07647705 0.71435547
vt 0.24645996 0.66064453
vt 0.3310547 0.64746094
vt 0.42114258 0.6870117
vt 0.18835449 0.73828125
vt 0.114990234 0.77783203
vt 0.26464844 0.71240234
vt 0.3425293 0.69628906
vt 0.4284668 0.734375
vt 0.22253418 0.7915039
vt 0.16296387 0.83447266
vt 0.28808594 0.7631836
vt 0.35742188 0.7446289
vt 0.43774414 0.78125
vt 0.26416016 0.8413086
vt 0.21948242 0.8833008
vt 0.31762695 0.8120117
vt 0.3762207 0.79248047
vt 0.4489746 0.82910156
vt 0.31323242 0.8857422
vt 0.28320312 0.92333984
vt 0.35302734 0.85839844
vt 0.39916992 0.83984375
vt 0.46289062 0.8769531
vt 0.36938477 0.9238281
vt 0.3527832 0.9526367
vt 0.39501953 0.90185547
vt 0.42700195 0.88623047
vt 0.47998047 0.92626953
vt 0.46069336 0.9321289
vt 0.44213867 0.94140625
vt 0.43017578 0.95458984
vt 0.42382812 0.97021484
vn 0.3334961 0.9428711 0
vn 0.19055176 0.9794922 0.061920166
vn 0.20031738 0.9794922 0
vn -0 1 0
vn 0.16210938 0.9794922 0.11779785
vn 0.11779785 0.9794922 0.16210938
vn 0.31713867 0.9428711 0.10308838
vn 0.47070312 0.8823242 0
vn 0.2697754 0.9428711 0.19604492
vn 0.4477539 0.8823242 0.14550781
vn 0.5996094 0.80029297 0
vn 0.5703125 0.80029297 0.18530273
vn 0.71533203 0.69873047 0
vn 0.38085938 0.8823242 0.27661133
vn 0.19604492 0.9428711 0.2697754
vn 0.6801758 0.69873047 0.22106934
vn 0.8144531 0.5805664 0
vn 0.48510742 0.80029297 0.35253906
vn 0.77441406 0.5805664 0.25170898
vn 0.89404297 0.44799805 0
vn 0.061920166 0.9794922 0.19055176
vn 0.27661133 0.8823242 0.38085938
vn 0.5786133 0.69873047 0.42041016
vn 0.85009766 0.44799805 0.2763672
vn 0.9526367 0.3046875 0
vn 0.10308838 0.9428711 0.31713867
vn 0.35253906 0.80029297 0.48510742
vn 0.6586914 0.5805664 0.47875977
vn 0.9057617 0.3046875 0.2944336
vn 0.98779297 0.15429688 0
vn -0 0.9794922 0.20031738
vn 0.14550781 0.8823242 0.4477539
vn 0.42041016 0.69873047 0.5786133
vn 0.72314453 0.44799805 0.5253906
vn 0.9394531 0.15429688 0.30541992
vn 1 0 0
vn -0 0.9428711 0.3334961
vn 0.18530273 0.80029297 0.5703125
vn 0.47875977 0.5805664 0.6586914
vn 0.7705078 0.3046875 0.5600586
vn 0.9511719 0 0.30908203
vn 0.98779297 -0.15429688 0
vn -0 0.8823242 0.47070312
vn 0.22106934 0.69873047 0.6801758
vn 0.5253906 0.44799805 0.72314453
vn 0.7993164 0.15429688 0.5805664
vn 0.9394531 -0.15429688 0.30541992
vn 0.9526367 -0.3046875 0
vn -0 0.80029297 0.5996094
vn 0.25170898 0.5805664 0.77441406
vn 0.5600586 0.3046875 0.7705078
vn 0.80908203 0 0.5878906
vn 0.9057617 -0.3046875 0.2944336
vn 0.89404297 -0.44799805 0
vn -0 0.69873047 0.71533203
vn 0.2763672 0.44799805 0.85009766
vn 0.5805664 0.15429688 0.7993164
vn 0.7993164 -0.15429688 0.5805664
vn 0.85009766 -0.44799805 0.2763672
vn 0.8144531 -0.5805664 0
vn -0 0.5805664 0.8144531
vn 0.2944336 0.3046875 0.9057617
vn 0.5878906 0 0.80908203
vn 0.7705078 -0.3046875 0.5600586
vn 0.77441406 -0.5805664 0.25170898
vn 0.71533203 -0.69873047 0
vn -0 0.44799805 0.89404297
vn 0.30541992 0.15429688 0.9394531
vn 0.5805664 -0.15429688 0.7993164
vn 0.72314453 -0.44799805 0.5253906
vn 0.6801758 -0.69873047 0.22106934
vn 0.5996094 -0.80029297 0
vn -0 0.3046875 0.9526367
vn 0.30908203 0 0.9511719
vn 0.5600586 -0.3046875 0.7705078
vn 0.6586914 -0.5805664 0.47875977
vn 0.5703125 -0.80029297 0.18530273
vn 0.47070312 -0.8823242 0
vn -0 0.15429688 0.98779297
vn 0.30541992 -0.15429688 0.9394531
vn 0.5253906 -0.44799805 0.72314453
vn 0.5786133 -0.69873047 0.42041016
vn 0.4477539 -0.8823242 0.14550781
vn 0.3334961 -0.9428711 0
vn -0 0 1
vn 0.2944336 -0.3046875 0.9057617
vn 0.47875977 -0.5805664 0.6586914
vn 0.48510742 -0.80029297 0.35253906
vn 0.31713867 -0.9428711 0.10308838
vn 0.20031738 -0.9794922 0
vn -0 -0.15429688 0.98779297
vn 0.2763672 -0.44799805 0.85009766
vn 0.42041016 -0.69873047 0.5786133
vn 0.38085938 -0.8823242 0.27661133
vn 0.19055176 -0.9794922 0.061920166
vn -0 -1 0
vn 0.16210938 -0.9794922 0.11773682
vn 0.11773682 -0.9794922 0.16210938
vn 0.2697754 -0.9428711 0.19604492
vn 0.35253906 -0.80029297 0.48510742
vn 0.25170898 -0.5805664 0.77441406
vn 0.19604492 -0.9428711 0.2697754
vn 0.27661133 -0.8823242 0.38085938
vn 0.22106934 -0.69873047 0.6801758
vn 0.18530273 -0.80029297 0.5703125
vn 0.14550781 -0.8823242 0.4477539
vn 0.10308838 -0.9428711 0.31713867
vn 0.061920166 -0.9794922 0.19055176
vn -0 -0.44799805 0.89404297
vn -0 -0.5805664 0.8144531
vn -0 -0.69873047 0.71533203
vn -0 -0.80029297 0.5996094
vn -0 -0.8823242 0.47070312
vn -0 -0.9428711 0.3334961
vn -0 -0.9794922 0.20031738
vn -0.061920166 -0.9794922 0.19055176
vn -0.10308838 -0.9428711 0.31713867
vn -0.14550781 -0.8823242 0.4477539
vn -0.18530273 -0.80029297 0.5703125
vn -0.22106934 -0.69873047 0.6801758
vn -0.11773682 -0.9794922 0.16210938
vn -0.19604492 -0.9428711 0.2697754
vn -0.27661133 -0.8823242 0.38085938
vn -0.16210938 -0.9794922 0.11773682
vn -0.19055176 -0.9794922 0.061920166
vn -0.20031738 -0.9794922 0
vn -0.2697754 -0.9428711 0.19604492
vn -0.31713867 -0.9428711 0.10308838
vn -0.3334961 -0.9428711 0
vn -0.35253906 -0.80029297 0.48510742
vn -0.38085938 -0.8823242 0.27661133
vn -0.4477539 -0.8823242 0.14550781
vn -0.47070312 -0.8823242 0
vn -0.48510742 -0.80029297 0.35253906
vn -0.5703125 -0.80029297 0.18530273
vn -0.5996094 -0.80029297 0
vn -0.42041016 -0.69873047 0.5786133
vn -0.6801758 -0.69873047 0.22106934
vn -0.71533203 -0.69873047 0
vn -0.5786133 -0.69873047 0.42041016
vn -0.25170898 -0.5805664 0.77441406
vn -0.77441406 -0.5805664 0.25170898
vn -0.8144531 -0.5805664 0
vn -0.6586914 -0.5805664 0.47875977
vn -0.47875977 -0.5805664 0.6586914
vn -0.2763672 -0.44799805 0.85009766
vn -0.85009766 -0.44799805 0.2763672
vn -0.89404297 -0.44799805 0
vn -0.72314453 -0.44799805 0.5253906
vn -0.5253906 -0.44799805 0.72314453
vn -0 -0.3046875 0.9526367
vn -0.2944336 -0.3046875 0.9057617
vn -0.9057617 -0.3046875 0.2944336
vn -0.9526367 -0.3046875 0
vn -0.7705078 -0.3046875 0.5600586
vn -0.5600586 -0.3046875 0.7705078
vn -0.30541992 -0.15429688 0.9394531
vn -0.9394531 -0.15429688 0.30541992
vn -0.98779297 -0.15429688 0
vn -0.7993164 -0.15429688 0.5805664
vn -0.5805664 -0.15429688 0.7993164
vn -0.30908203 0 0.9511719
vn -0.9511719 0 0.30908203
vn -1 0 0
vn -0.80908203 0 0.5878906
vn -0.5878906 0 0.80908203
vn -0.30541992 0.15429688 0.9394531
vn -0.9394531 0.15429688 0.30541992
vn -0.98779297 0.15429688 0
vn -0.7993164 0.15429688 0.5805664
vn -0.5805664 0.15429688 0.7993164
vn -0.2944336 0.3046875 0.9057617
vn -0.9057617 0.3046875 0.2944336
vn -0.9526367 0.3046875 0
vn -0.7705078 0.3046875 0.5600586
vn -0.5600586 0.3046875 0.7705078
vn -0.2763672 0.44799805 0.85009766
vn -0.85009766 0.44799805 0.2763672
vn -0.89404297 0.44799805 0
vn -0.72314453 0.44799805 0.5253906
vn -0.5253906 0.44799805 0.72314453
vn -0.25170898 0.5805664 0.77441406
vn -0.77441406 0.5805664 0.25170898
vn -0.8144531 0.5805664 0
vn -0.6586914 0.5805664 0.47875977
vn -0.47875977 0.5805664 0.6586914
vn -0.22106934 0.69873047 0.6801758
vn -0.6801758 0.69873047 0.22106934
vn -0.71533203 0.69873047 0
vn -0.5786133 0.69873047 0.42041016
vn -0.42041016 0.69873047 0.5786133
vn -0.18530273 0.80029297 0.5703125
vn -0.5703125 0.80029297 0.18530273
vn -0.5996094 0.80029297 0
vn -0.48510742 0.80029297 0.35253906
vn -0.35253906 0.80029297 0.48510742
vn -0.14550781 0.8823242 0.4477539
vn -0.4477539 0.8823242 0.14550781
vn -0.47070312 0.8823242 0
vn -0.38085938 0.8823242 0.27661133
vn -0.27661133 0.8823242 0.38085938
vn -0.10308838 0.9428711 0.31713867
vn -0.31713867 0.9428711 0.10308838
vn -0.3334961 0.9428711 0
vn -0.2697754 0.9428711 0.19604492
vn -0.19604492 0.9428711 0.2697754
vn -0.061920166 0.9794922 0.19055176
vn -0.11779785 0.9794922 0.16210938
vn -0.16210938 0.9794922 0.11779785
vn -0.19055176 0.9794922 0.061920166
vn -0.20031738 0.9794922 0
vn -0.3334961 0.9428711 0
vn -0.19055176 0.9794922 -0.061920166
vn -0.20031738 0.9794922 0
vn -0 1 0
vn -0.16210938 0.9794922 -0.11779785
vn -0.11779785 0.9794922 -0.16210938
vn -0.31713867 0.9428711 -0.10308838
vn -0.47070312 0.8823242 0
vn -0.2697754 0.9428711 -0.19604492
vn -0.4477539 0.8823242 -0.14550781
vn -0.5996094 0.80029297 0
vn -0.5703125 0.80029297 -0.18530273
vn -0.71533203 0.69873047 0
vn -0.38085938 0.8823242 -0.27661133
vn -0.19604492 0.9428711 -0.2697754
vn -0.6801758 0.69873047 -0.22106934
vn -0.8144531 0.5805664 0
vn -0.48510742 0.80029297 -0.35253906
vn -0.77441406 0.5805664 -0.25170898
vn -0.89404297 0.44799805 0
vn -0.061920166 0.9794922 -0.19055176
vn -0.27661133 0.8823242 -0.38085938
vn -0.5786133 0.69873047 -0.42041016
vn -0.85009766 0.44799805 -0.2763672
vn -0.9526367 0.3046875 0
vn -0.10308838 0.9428711 -0.31713867
vn -0.35253906 0.80029297 -0.48510742
vn -0.6586914 0.5805664 -0.47875977
vn -0.9057617 0.3046875 -0.2944336
vn -0.98779297 0.15429688 0
vn -0 0.9794922 -0.20031738
vn -0.14550781 0.8823242 -0.4477539
vn -0.42041016 0.69873047 -0.5786133
vn -0.72314453 0.44799805 -0.5253906
vn -0.9394531 0.15429688 -0.30541992
vn -1 0 0
vn -0 0.9428711 -0.3334961
vn -0.18530273 0.80029297 -0.5703125
vn -0.47875977 0.5805664 -0.6586914
vn -0.7705078 0.3046875 -0.5600586
vn -0.9511719 0 -0.30908203
vn -0.98779297 -0.15429688 0
vn -0 0.8823242 -0.47070312
vn -0.22106934 0.69873047 -0.6801758
vn -0.5253906 0.44799805 -0.72314453
vn -0.7993164 0.15429688 -0.5805664
vn -0.9394531 -0.15429688 -0.30541992
vn -0.9526367 -0.3046875 0
vn -0 0.80029297 -0.5996094
vn -0.25170898 0.5805664 -0.77441406
vn -0.5600586 0.3046875 -0.7705078
vn -0.80908203 0 -0.5878906
vn -0.9057617 -0.3046875 -0.2944336
vn -0.89404297 -0.44799805 0
vn -0 0.69873047 -0.71533203
vn -0.2763672 0.44799805 -0.85009766
vn -0.5805664 0.15429688 -0.7993164
vn -0.7993164 -0.15429688 -0.5805664
vn -0.85009766 -0.44799805 -0.2763672
vn -0.8144531 -0.5805664 0
vn -0 0.5805664 -0.8144531
vn -0.2944336 0.3046875 -0.9057617
vn -0.5878906 0 -0.80908203
vn -0.7705078 -0.3046875 -0.5600586
vn -0.77441406 -0.5805664 -0.25170898
vn -0.71533203 -0.69873047 0
vn -0 0.44799805 -0.89404297
vn -0.30541992 0.15429688 -0.9394531
vn -0.5805664 -0.15429688 -0.7993164
vn -0.72314453 -0.44799805 -0.5253906
vn -0.6801758 -0.69873047 -0.22106934
vn -0.5996094 -0.80029297 0
vn -0 0.3046875 -0.9526367
vn -0.30908203 0 -0.9511719
vn -0.5600586 -0.3046875 -0.7705078
vn -0.6586914 -0.5805664 -0.47875977
vn -0.5703125 -0.80029297 -0.18530273
vn -0.47070312 -0.8823242 0
vn -0 0.15429688 -0.98779297
vn -0.30541992 -0.15429688 -0.9394531
vn -0.5253906 -0.44799805 -0.72314453
vn -0.5786133 -0.69873047 -0.42041016
vn -0.4477539 -0.8823242 -0.14550781
vn -0.3334961 -0.9428711 0
vn -0 0 -1
vn -0.2944336 -0.3046875 -0.9057617
vn -0.47875977 -0.5805664 -0.6586914
vn -0.48510742 -0.80029297 -0.35253906
vn -0.31713867 -0.9428711 -0.10308838
vn -0.20031738 -0.9794922 0
vn -0 -0.15429688 -0.98779297
vn -0.2763672 -0.44799805 -0.85009766
vn -0.42041016 -0.69873047 -0.5786133
vn -0.38085938 -0.8823242 -0.27661133
vn -0.19055176 -0.9794922 -0.061920166
vn -0 -1 0
vn -0.16210938 -0.9794922 -0.11773682
vn -0.11773682 -0.9794922 -0.16210938
vn -0.2697754 -0.9428711 -0.19604492
vn -0.35253906 -0.80029297 -0.48510742
vn -0.25170898 -0.5805664 -0.77441406
vn -0.19604492 -0.9428711 -0.2697754
vn -0.27661133 -0.8823242 -0.38085938
vn -0.22106934 -0.69873047 -0.6801758
vn -0.18530273 -0.80029297 -0.5703125
vn -0.14550781 -0.8823242 -0.4477539
vn -0.10308838 -0.9428711 -0.31713867
vn -0.061920166 -0.9794922 -0.19055176
vn -0 -0.44799805 -0.89404297
vn -0 -0.5805664 -0.8144531
vn -0 -0.69873047 -0.71533203
vn -0 -0.80029297 -0.5996094
vn -0 -0.8823242 -0.47070312
vn -0 -0.9428711 -0.3334961
vn -0 -0.9794922 -0.20031738
vn 0.061920166 -0.9794922 -0.19055176
vn 0.10308838 -0.9428711 -0.31713867
vn 0.14550781 -0.8823242 -0.4477539
vn 0.18530273 -0.80029297 -0.5703125
vn 0.22106934 -0.69873047 -0.6801758
vn 0.11773682 -0.9794922 -0.16210938
vn 0.19604492 -0.9428711 -0.2697754
vn 0.27661133 -0.8823242 -0.38085938
vn 0.16210938 -0.9794922 -0.11773682
vn 0.19055176 -0.9794922 -0.061920166
vn 0.20031738 -0.9794922 0
vn 0.2697754 -0.9428711 -0.19604492
vn 0.31713867 -0.9428711 -0.10308838
vn 0.3334961 -0.9428711 0
vn 0.35253906 -0.80029297 -0.48510742
vn 0.38085938 -0.8823242 -0.27661133
vn 0.4477539 -0.8823242 -0.14550781
vn 0.47070312 -0.8823242 0
vn 0.48510742 -0.80029297 -0.35253906
vn 0.5703125 -0.80029297 -0.18530273
vn 0.5996094 -0.80029297 0
vn 0.42041016 -0.69873047 -0.5786133
vn 0.6801758 -0.69873047 -0.22106934
vn 0.71533203 -0.69873047 0
vn 0.5786133 -0.69873047 -0.42041016
vn 0.25170898 -0.5805664 -0.77441406
vn 0.77441406 -0.5805664 -0.25170898
vn 0.8144531 -0.5805664 0
vn 0.6586914 -0.5805664 -0.47875977
vn 0.47875977 -0.5805664 -0.6586914
vn 0.2763672 -0.44799805 -0.85009766
vn 0.85009766 -0.44799805 -0.2763672
vn 0.89404297 -0.44799805 0
vn 0.72314453 -0.44799805 -0.5253906
vn 0.5253906 -0.44799805 -0.72314453
vn -0 -0.3046875 -0.9526367
vn 0.2944336 -0.3046875 -0.9057617
vn 0.9057617 -0.3046875 -0.2944336
vn 0.9526367 -0.3046875 0
vn 0.7705078 -0.3046875 -0.5600586
vn 0.5600586 -0.3046875 -0.7705078
vn 0.30541992 -0.15429688 -0.9394531
vn 0.9394531 -0.15429688 -0.30541992
vn 0.98779297 -0.15429688 0
vn 0.7993164 -0.15429688 -0.5805664
vn 0.5805664 -0.15429688 -0.7993164
vn 0.30908203 0 -0.9511719
vn 0.9511719 0 -0.30908203
vn 1 0 0
vn 0.80908203 0 -0.5878906
vn 0.5878906 0 -0.80908203
vn 0.30541992 0.15429688 -0.9394531
vn 0.9394531 0.15429688 -0.30541992
vn 0.98779297 0.15429688 0
vn 0.7993164 0.15429688 -0.5805664
vn 0.5805664 0.15429688 -0.7993164
vn 0.2944336 0.3046875 -0.9057617
vn 0.9057617 0.3046875 -0.2944336
vn 0.9526367 0.3046875 0
vn 0.7705078 0.3046875 -0.5600586
vn 0.5600586 0.3046875 -0.7705078
vn 0.2763672 0.44799805 -0.85009766
vn 0.85009766 0.44799805 -0.2763672
vn 0.89404297 0.44799805 0
vn 0.72314453 0.44799805 -0.5253906
vn 0.5253906 0.44799805 -0.72314453
vn 0.25170898 0.5805664 -0.77441406
vn 0.77441406 0.5805664 -0.25170898
vn 0.8144531 0.5805664 0
vn 0.6586914 0.5805664 -0.47875977
vn 0.47875977 0.5805664 -0.6586914
vn 0.22106934 0.69873047 -0.6801758
vn 0.6801758 0.69873047 -0.22106934
vn 0.71533203 0.69873047 0
vn 0.5786133 0.69873047 -0.42041016
vn 0.42041016 0.69873047 -0.5786133
vn 0.18530273 0.80029297 -0.5703125
vn 0.5703125 0.80029297 -0.18530273
vn 0.5996094 0.80029297 0
vn 0.48510742 0.80029297 -0.35253906
vn 0.35253906 0.80029297 -0.48510742
vn 0.14550781 0.8823242 -0.4477539
vn 0.4477539 0.8823242 -0.14550781
vn 0.47070312 0.8823242 0
vn 0.38085938 0.8823242 -0.27661133
vn 0.27661133 0.8823242 -0.38085938
vn 0.10308838 0.9428711 -0.31713867
vn 0.31713867 0.9428711 -0.10308838
vn 0.3334961 0.9428711 0
vn 0.2697754 0.9428711 -0.19604492
vn 0.19604492 0.9428711 -0.2697754
vn 0.061920166 0.9794922 -0.19055176
vn 0.11779785 0.9794922 -0.16210938
vn 0.16210938 0.9794922 -0.11779785
vn 0.19055176 0.9794922 -0.061920166
vn 0.20031738 0.9794922 0
g Ene_Battle_0
f 3/3/3 2/2/2 1/1/1
f 4/4/4 2/2/2 3/3/3
f 4/4/4 5/5/5 2/2/2
f 4/4/4 6/6/6 5/5/5
f 2/2/2 7/7/7 1/1/1
f 2/2/2 5/5/5 7/7/7
f 1/1/1 7/7/7 8/8/8
f 5/5/5 9/9/9 7/7/7
f 5/5/5 6/6/6 9/9/9
f 7/7/7 10/10/10 8/8/8
f 7/7/7 9/9/9 10/10/10
f 8/8/8 10/10/10 11/11/11
f 10/10/10 12/12/12 11/11/11
f 11/11/11 12/12/12 13/13/13
f 9/9/9 14/14/14 10/10/10
f 10/10/10 14/14/14 12/12/12
f 6/6/6 15/15/15 9/9/9
f 9/9/9 15/15/15 14/14/14
f 12/12/12 16/16/16 13/13/13
f 13/13/13 16/16/16 17/17/17
f 14/14/14 18/18/18 12/12/12
f 12/12/12 18/18/18 16/16/16
f 16/16/16 19/19/19 17/17/17
f 17/17/17 19/19/19 20/20/20
f 6/6/6 21/21/21 15/15/15
f 4/4/4 21/21/21 6/6/6
f 15/15/15 22/22/22 14/14/14
f 14/14/14 22/22/22 18/18/18
f 18/18/18 23/23/23 16/16/16
f 16/16/16 23/23/23 19/19/19
f 19/19/19 24/24/24 20/20/20
f 20/20/20 24/24/24 25/25/25
f 21/21/21 26/26/26 15/15/15
f 15/15/15 26/26/26 22/22/22
f 22/22/22 27/27/27 18/18/18
f 18/18/18 27/27/27 23/23/23
f 23/23/23 28/28/28 19/19/19
f 19/19/19 28/28/28 24/24/24
f 24/24/24 29/29/29 25/25/25
f 25/25/25 29/29/29 30/30/30
f 21/21/21 31/31/31 26/26/26
f 4/4/4 31/31/31 21/21/21
f 26/26/26 32/32/32 22/22/22
f 22/22/22 32/32/32 27/27/27
f 27/27/27 33/33/33 23/23/23
f 23/23/23 33/33/33 28/28/28
f 28/28/28 34/34/34 24/24/24
f 24/24/24 34/34/34 29/29/29
f 29/29/29 35/35/35 30/30/30
f 30/30/30 35/35/35 36/36/36
f 31/31/31 37/37/37 26/26/26
f 26/26/26 37/37/37 32/32/32
f 32/32/32 38/38/38 27/27/27
f 27/27/27 38/38/38 33/33/33
f 33/33/33 39/39/39 28/28/28
f 28/28/28 39/39/39 34/34/34
f 34/34/34 40/40/40 29/29/29
f 29/29/29 40/40/40 35/35/35
f 35/35/35 41/41/41 36/36/36
f 36/36/36 41/41/41 42/42/42
f 37/37/37 43/43/43 32/32/32
f 32/32/32 43/43/43 38/38/38
f 38/38/38 44/44/44 33/33/33
f 33/33/33 44/44/44 39/39/39
f 39/39/39 45/45/45 34/34/34
f 34/34/34 45/45/45 40/40/40
f 40/40/40 46/46/46 35/35/35
f 35/35/35 46/46/46 41/41/41
f 41/41/41 47/47/47 42/42/42
f 42/42/42 47/47/47 48/48/48
f 43/43/43 49/49/49 38/38/38
f 38/38/38 49/49/49 44/44/44
f 44/44/44 50/50/50 39/39/39
f 39/39/39 50/50/50 45/45/45
f 45/45/45 51/51/51 40/40/40
f 40/40/40 51/51/51 46/46/46
f 46/46/46 52/52/52 41/41/41
f 41/41/41 52/52/52 47/47/47
f 47/47/47 53/53/53 48/48/48
f 48/48/48 53/53/53 54/54/54
f 49/49/49 55/55/55 44/44/44
f 44/44/44 55/55/55 50/50/50
f 50/50/50 56/56/56 45/45/45
f 45/45/45 56/56/56 51/51/51
f 51/51/51 57/57/57 46/46/46
f 46/46/46 57/57/57 52/52/52
f 52/52/52 58/58/58 47/47/47
f 47/47/47 58/58/58 53/53/53
f 53/53/53 59/59/59 54/54/54
f 54/54/54 59/59/59 60/60/60
f 55/55/55 61/61/61 50/50/50
f 50/50/50 61/61/61 56/56/56
f 56/56/56 62/62/62 51/51/51
f 51/51/51 62/62/62 57/57/57
f 57/57/57 63/63/63 52/52/52
f 52/52/52 63/63/63 58/58/58
f 58/58/58 64/64/64 53/53/53
f 53/53/53 64/64/64 59/59/59
f 59/59/59 65/65/65 60/60/60
f 60/60/60 65/65/65 66/66/66
f 61/61/61 67/67/67 56/56/56
f 56/56/56 67/67/67 62/62/62
f 62/62/62 68/68/68 57/57/57
f 57/57/57 68/68/68 63/63/63
f 63/63/63 69/69/69 58/58/58
f 58/58/58 69/69/69 64/64/64
f 64/64/64 70/70/70 59/59/59
f 59/59/59 70/70/70 65/65/65
f 65/65/65 71/71/71 66/66/66
f 66/66/66 71/71/71 72/72/72
f 67/67/67 73/73/73 62/62/62
f 62/62/62 73/73/73 68/68/68
f 68/68/68 74/74/74 63/63/63
f 63/63/63 74/74/74 69/69/69
f 69/69/69 75/75/75 64/64/64
f 64/64/64 75/75/75 70/70/70
f 70/70/70 76/76/76 65/65/65
f 65/65/65 76/76/76 71/71/71
f 71/71/71 77/77/77 72/72/72
f 72/72/72 77/77/77 78/78/78
f 73/73/73 79/79/79 68/68/68
f 68/68/68 79/79/79 74/74/74
f 74/74/74 80/80/80 69/69/69
f 69/69/69 80/80/80 75/75/75
f 75/75/75 81/81/81 70/70/70
f 70/70/70 81/81/81 76/76/76
f 76/76/76 82/82/82 71/71/71
f 71/71/71 82/82/82 77/77/77
f 77/77/77 83/83/83 78/78/78
f 78/78/78 83/83/83 84/84/84
f 79/79/79 85/85/85 74/74/74
f 74/74/74 85/85/85 80/80/80
f 80/80/80 86/86/86 75/75/75
f 75/75/75 86/86/86 81/81/81
f 81/81/81 87/87/87 76/76/76
f 76/76/76 87/87/87 82/82/82
f 82/82/82 88/88/88 77/77/77
f 77/77/77 88/88/88 83/83/83
f 83/83/83 89/89/89 84/84/84
f 84/84/84 89/89/89 90/90/90
f 85/85/85 91/91/91 80/80/80
f 80/80/80 91/91/91 86/86/86
f 86/86/86 92/92/92 81/81/81
f 81/81/81 92/92/92 87/87/87
f 87/87/87 93/93/93 82/82/82
f 82/82/82 93/93/93 88/88/88
f 88/88/88 94/94/94 83/83/83
f 83/83/83 94/94/94 89/89/89
f 89/89/89 95/95/95 90/90/90
f 96/96/96 90/90/90 95/95/95
f 96/96/96 95/95/95 97/97/97
f 96/96/96 97/97/97 98/98/98
f 89/89/89 99/99/99 95/95/95
f 99/99/99 97/97/97 95/95/95
f 94/94/94 99/99/99 89/89/89
f 88/88/88 100/100/100 94/94/94
f 93/93/93 100/100/100 88/88/88
f 87/87/87 101/101/101 93/93/93
f 92/92/92 101/101/101 87/87/87
f 99/99/99 102/102/102 97/97/97
f 102/102/102 98/98/98 97/97/97
f 94/94/94 103/103/103 99/99/99
f 100/100/100 103/103/103 94/94/94
f 103/103/103 102/102/102 99/99/99
f 93/93/93 104/104/104 100/100/100
f 101/101/101 104/104/104 93/93/93
f 100/100/100 105/105/105 103/103/103
f 104/104/104 105/105/105 100/100/100
f 103/103/103 106/106/106 102/102/102
f 105/105/105 106/106/106 103/103/103
f 102/102/102 107/107/107 98/98/98
f 106/106/106 107/107/107 102/102/102
f 107/107/107 108/108/108 98/98/98
f 96/96/96 98/98/98 108/108/108
f 92/92/92 109/109/109 101/101/101
f 101/101/101 110/110/110 104/104/104
f 109/109/109 110/110/110 101/101/101
f 104/104/104 111/111/111 105/105/105
f 110/110/110 111/111/111 104/104/104
f 105/105/105 112/112/112 106/106/106
f 111/111/111 112/112/112 105/105/105
f 106/106/106 113/113/113 107/107/107
f 112/112/112 113/113/113 106/106/106
f 107/107/107 114/114/114 108/108/108
f 113/113/113 114/114/114 107/107/107
f 96/96/96 108/108/108 115/115/115
f 114/114/114 115/115/115 108/108/108
f 115/115/115 114/114/114 116/116/116
f 116/116/116 96/96/96 115/115/115
f 114/114/114 113/113/113 117/117/117
f 114/114/114 117/117/117 116/116/116
f 113/113/113 112/112/112 118/118/118
f 113/113/113 118/118/118 117/117/117
f 112/112/112 111/111/111 119/119/119
f 112/112/112 119/119/119 118/118/118
f 111/111/111 110/110/110 120/120/120
f 111/111/111 120/120/120 119/119/119
f 116/116/116 117/117/117 121/121/121
f 121/121/121 96/96/96 116/116/116
f 117/117/117 118/118/118 122/122/122
f 117/117/117 122/122/122 121/121/121
f 118/118/118 119/119/119 123/123/123
f 118/118/118 123/123/123 122/122/122
f 124/124/124 96/96/96 121/121/121
f 121/121/121 122/122/122 124/124/124
f 125/125/125 96/96/96 124/124/124
f 126/126/126 96/96/96 125/125/125
f 122/122/122 127/127/127 124/124/124
f 124/124/124 127/127/127 125/125/125
f 122/122/122 123/123/123 127/127/127
f 125/125/125 128/128/128 126/126/126
f 127/127/127 128/128/128 125/125/125
f 128/128/128 129/129/129 126/126/126
f 119/119/119 130/130/130 123/123/123
f 119/119/119 120/120/120 130/130/130
f 123/123/123 131/131/131 127/127/127
f 127/127/127 131/131/131 128/128/128
f 123/123/123 130/130/130 131/131/131
f 128/128/128 132/132/132 129/129/129
f 131/131/131 132/132/132 128/128/128
f 132/132/132 133/133/133 129/129/129
f 130/130/130 134/134/134 131/131/131
f 131/131/131 134/134/134 132/132/132
f 132/132/132 135/135/135 133/133/133
f 134/134/134 135/135/135 132/132/132
f 135/135/135 136/136/136 133/133/133
f 120/120/120 137/137/137 130/130/130
f 130/130/130 137/137/137 134/134/134
f 135/135/135 138/138/138 136/136/136
f 138/138/138 139/139/139 136/136/136
f 134/134/134 140/140/140 135/135/135
f 137/137/137 140/140/140 134/134/134
f 140/140/140 138/138/138 135/135/135
f 120/120/120 141/141/141 137/137/137
f 110/110/110 141/141/141 120/120/120
f 110/110/110 109/109/109 141/141/141
f 138/138/138 142/142/142 139/139/139
f 142/142/142 143/143/143 139/139/139
f 140/140/140 144/144/144 138/138/138
f 144/144/144 142/142/142 138/138/138
f 137/137/137 145/145/145 140/140/140
f 141/141/141 145/145/145 137/137/137
f 145/145/145 144/144/144 140/140/140
f 109/109/109 146/146/146 141/141/141
f 141/141/141 146/146/146 145/145/145
f 142/142/142 147/147/147 143/143/143
f 147/147/147 148/148/148 143/143/143
f 144/144/144 149/149/149 142/142/142
f 149/149/149 147/147/147 142/142/142
f 145/145/145 150/150/150 144/144/144
f 146/146/146 150/150/150 145/145/145
f 150/150/150 149/149/149 144/144/144
f 109/109/109 151/151/151 146/146/146
f 151/151/151 109/109/109 92/92/92
f 86/86/86 151/151/151 92/92/92
f 91/91/91 151/151/151 86/86/86
f 151/151/151 152/152/152 146/146/146
f 146/146/146 152/152/152 150/150/150
f 151/151/151 91/91/91 152/152/152
f 147/147/147 153/153/153 148/148/148
f 153/153/153 154/154/154 148/148/148
f 149/149/149 155/155/155 147/147/147
f 155/155/155 153/153/153 147/147/147
f 150/150/150 156/156/156 149/149/149
f 152/152/152 156/156/156 150/150/150
f 156/156/156 155/155/155 149/149/149
f 91/91/91 157/157/157 152/152/152
f 152/152/152 157/157/157 156/156/156
f 91/91/91 85/85/85 157/157/157
f 153/153/153 158/158/158 154/154/154
f 158/158/158 159/159/159 154/154/154
f 155/155/155 160/160/160 153/153/153
f 160/160/160 158/158/158 153/153/153
f 156/156/156 161/161/161 155/155/155
f 157/157/157 161/161/161 156/156/156
f 161/161/161 160/160/160 155/155/155
f 85/85/85 162/162/162 157/157/157
f 157/157/157 162/162/162 161/161/161
f 85/85/85 79/79/79 162/162/162
f 158/158/158 163/163/163 159/159/159
f 163/163/163 164/164/164 159/159/159
f 160/160/160 165/165/165 158/158/158
f 165/165/165 163/163/163 158/158/158
f 161/161/161 166/166/166 160/160/160
f 162/162/162 166/166/166 161/161/161
f 166/166/166 165/165/165 160/160/160
f 79/79/79 167/167/167 162/162/162
f 162/162/162 167/167/167 166/166/166
f 79/79/79 73/73/73 167/167/167
f 163/163/163 168/168/168 164/164/164
f 168/168/168 169/169/169 164/164/164
f 165/165/165 170/170/170 163/163/163
f 170/170/170 168/168/168 163/163/163
f 166/166/166 171/171/171 165/165/165
f 167/167/167 171/171/171 166/166/166
f 171/171/171 170/170/170 165/165/165
f 73/73/73 172/172/172 167/167/167
f 167/167/167 172/172/172 171/171/171
f 73/73/73 67/67/67 172/172/172
f 168/168/168 173/173/173 169/169/169
f 173/173/173 174/174/174 169/169/169
f 170/170/170 175/175/175 168/168/168
f 175/175/175 173/173/173 168/168/168
f 171/171/171 176/176/176 170/170/170
f 172/172/172 176/176/176 171/171/171
f 176/176/176 175/175/175 170/170/170
f 67/67/67 177/177/177 172/172/172
f 172/172/172 177/177/177 176/176/176
f 67/67/67 61/61/61 177/177/177
f 173/173/173 178/178/178 174/174/174
f 178/178/178 179/179/179 174/174/174
f 175/175/175 180/180/180 173/173/173
f 180/180/180 178/178/178 173/173/173
f 176/176/176 181/181/181 175/175/175
f 177/177/177 181/181/181 176/176/176
f 181/181/181 180/180/180 175/175/175
f 61/61/61 182/182/182 177/177/177
f 177/177/177 182/182/182 181/181/181
f 61/61/61 55/55/55 182/182/182
f 178/178/178 183/183/183 179/179/179
f 183/183/183 184/184/184 179/179/179
f 180/180/180 185/185/185 178/178/178
f 185/185/185 183/183/183 178/178/178
f 181/181/181 186/186/186 180/180/180
f 182/182/182 186/186/186 181/181/181
f 186/186/186 185/185/185 180/180/180
f 55/55/55 187/187/187 182/182/182
f 182/182/182 187/187/187 186/186/186
f 55/55/55 49/49/49 187/187/187
f 183/183/183 188/188/188 184/184/184
f 188/188/188 189/189/189 184/184/184
f 185/185/185 190/190/190 183/183/183
f 190/190/190 188/188/188 183/183/183
f 186/186/186 191/191/191 185/185/185
f 187/187/187 191/191/191 186/186/186
f 191/191/191 190/190/190 185/185/185
f 49/49/49 192/192/192 187/187/187
f 187/187/187 192/192/192 191/191/191
f 49/49/49 43/43/43 192/192/192
f 188/188/188 193/193/193 189/189/189
f 193/193/193 194/194/194 189/189/189
f 190/190/190 195/195/195 188/188/188
f 195/195/195 193/193/193 188/188/188
f 191/191/191 196/196/196 190/190/190
f 192/192/192 196/196/196 191/191/191
f 196/196/196 195/195/195 190/190/190
f 43/43/43 197/197/197 192/192/192
f 192/192/192 197/197/197 196/196/196
f 43/43/43 37/37/37 197/197/197
f 193/193/193 198/198/198 194/194/194
f 198/198/198 199/199/199 194/194/194
f 195/195/195 200/200/200 193/193/193
f 200/200/200 198/198/198 193/193/193
f 196/196/196 201/201/201 195/195/195
f 197/197/197 201/201/201 196/196/196
f 201/201/201 200/200/200 195/195/195
f 37/37/37 202/202/202 197/197/197
f 197/197/197 202/202/202 201/201/201
f 37/37/37 31/31/31 202/202/202
f 198/198/198 203/203/203 199/199/199
f 203/203/203 204/204/204 199/199/199
f 200/200/200 205/205/205 198/198/198
f 205/205/205 203/203/203 198/198/198
f 201/201/201 206/206/206 200/200/200
f 202/202/202 206/206/206 201/201/201
f 206/206/206 205/205/205 200/200/200
f 31/31/31 207/207/207 202/202/202
f 202/202/202 207/207/207 206/206/206
f 31/31/31 4/4/4 207/207/207
f 207/207/207 208/208/208 206/206/206
f 206/206/206 208/208/208 205/205/205
f 207/207/207 4/4/4 208/208/208
f 208/208/208 209/209/209 205/205/205
f 205/205/205 209/209/209 203/203/203
f 208/208/208 4/4/4 209/209/209
f 203/203/203 210/210/210 204/204/204
f 209/209/209 210/210/210 203/203/203
f 209/209/209 4/4/4 210/210/210
f 210/210/210 211/211/211 204/204/204
f 210/210/210 4/4/4 211/211/211
f 214/214/214 213/213/213 212/212/212
f 215/215/215 213/213/213 214/214/214
f 215/215/215 216/216/216 213/213/213
f 215/215/215 217/217/217 216/216/216
f 213/213/213 218/218/218 212/212/212
f 213/213/213 216/216/216 218/218/218
f 212/212/212 218/218/218 219/219/219
f 216/216/216 220/220/220 218/218/218
f 216/216/216 217/217/217 220/220/220
f 218/218/218 221/221/221 219/219/219
f 218/218/218 220/220/220 221/221/221
f 219/219/219 221/221/221 222/222/222
f 221/221/221 223/223/223 222/222/222
f 222/222/222 223/223/223 224/224/224
f 220/220/220 225/225/225 221/221/221
f 221/221/221 225/225/225 223/223/223
f 217/217/217 226/226/226 220/220/220
f 220/220/220 226/226/226 225/225/225
f 223/223/223 227/227/227 224/224/224
f 224/224/224 227/227/227 228/228/228
f 225/225/225 229/229/229 223/223/223
f 223/223/223 229/229/229 227/227/227
f 227/227/227 230/230/230 228/228/228
f 228/228/228 230/230/230 231/231/231
f 217/217/217 232/232/232 226/226/226
f 215/215/215 232/232/232 217/217/217
f 226/226/226 233/233/233 225/225/225
f 225/225/225 233/233/233 229/229/229
f 229/229/229 234/234/234 227/227/227
f 227/227/227 234/234/234 230/230/230
f 230/230/230 235/235/235 231/231/231
f 231/231/231 235/235/235 236/236/236
f 232/232/232 237/237/237 226/226/226
f 226/226/226 237/237/237 233/233/233
f 233/233/233 238/238/238 229/229/229
f 229/229/229 238/238/238 234/234/234
f 234/234/234 239/239/239 230/230/230
f 230/230/230 239/239/239 235/235/235
f 235/235/235 240/240/240 236/236/236
f 236/236/236 240/240/240 241/241/241
f 232/232/232 242/242/242 237/237/237
f 215/215/215 242/242/242 232/232/232
f 237/237/237 243/243/243 233/233/233
f 233/233/233 243/243/243 238/238/238
f 238/238/238 244/244/244 234/234/234
f 234/234/234 244/244/244 239/239/239
f 239/239/239 245/245/245 235/235/235
f 235/235/235 245/245/245 240/240/240
f 240/240/240 246/246/246 241/241/241
f 241/241/241 246/246/246 247/247/247
f 242/242/242 248/248/248 237/237/237
f 237/237/237 248/248/248 243/243/243
f 243/243/243 249/249/249 238/238/238
f 238/238/238 249/249/249 244/244/244
f 244/244/244 250/250/250 239/239/239
f 239/239/239 250/250/250 245/245/245
f 245/245/245 251/251/251 240/240/240
f 240/240/240 251/251/251 246/246/246
f 246/246/246 252/252/252 247/247/247
f 247/247/247 252/252/252 253/253/253
f 248/248/248 254/254/254 243/243/243
f 243/243/243 254/254/254 249/249/249
f 249/249/249 255/255/255 244/244/244
f 244/244/244 255/255/255 250/250/250
f 250/250/250 256/256/256 245/245/245
f 245/245/245 256/256/256 251/251/251
f 251/251/251 257/257/257 246/246/246
f 246/246/246 257/257/257 252/252/252
f 252/252/252 258/258/258 253/253/253
f 253/253/253 258/258/258 259/259/259
f 254/254/254 260/260/260 249/249/249
f 249/249/249 260/260/260 255/255/255
f 255/255/255 261/261/261 250/250/250
f 250/250/250 261/261/261 256/256/256
f 256/256/256 262/262/262 251/251/251
f 251/251/251 262/262/262 257/257/257
f 257/257/257 263/263/263 252/252/252
f 252/252/252 263/263/263 258/258/258
f 258/258/258 264/264/264 259/259/259
f 259/259/259 264/264/264 265/265/265
f 260/260/260 266/266/266 255/255/255
f 255/255/255 266/266/266 261/261/261
f 261/261/261 267/267/267 256/256/256
f 256/256/256 267/267/267 262/262/262
f 262/262/262 268/268/268 257/257/257
f 257/257/257 268/268/268 263/263/263
f 263/263/263 269/269/269 258/258/258
f 258/258/258 269/269/269 264/264/264
f 264/264/264 270/270/270 265/265/265
f 265/265/265 270/270/270 271/271/271
f 266/266/266 272/272/272 261/261/261
f 261/261/261 272/272/272 267/267/267
f 267/267/267 273/273/273 262/262/262
f 262/262/262 273/273/273 268/268/268
f 268/268/268 274/274/274 263/263/263
f 263/263/263 274/274/274 269/269/269
f 269/269/269 275/275/275 264/264/264
f 264/264/264 275/275/275 270/270/270
f 270/270/270 276/276/276 271/271/271
f 271/271/271 276/276/276 277/277/277
f 272/272/272 278/278/278 267/267/267
f 267/267/267 278/278/278 273/273/273
f 273/273/273 279/279/279 268/268/268
f 268/268/268 279/279/279 274/274/274
f 274/274/274 280/280/280 269/269/269
f 269/269/269 280/280/280 275/275/275
f 275/275/275 281/281/281 270/270/270
f 270/270/270 281/281/281 276/276/276
f 276/276/276 282/282/282 277/277/277
f 277/277/277 282/282/282 283/283/283
f 278/278/278 284/284/284 273/273/273
f 273/273/273 284/284/284 279/279/279
f 279/279/279 285/285/285 274/274/274
f 274/274/274 285/285/285 280/280/280
f 280/280/280 286/286/286 275/275/275
f 275/275/275 286/286/286 281/281/281
f 281/281/281 287/287/287 276/276/276
f 276/276/276 287/287/287 282/282/282
f 282/282/282 288/288/288 283/283/283
f 283/283/283 288/288/288 289/289/289
f 284/284/284 290/290/290 279/279/279
f 279/279/279 290/290/290 285/285/285
f 285/285/285 291/291/291 280/280/280
f 280/280/280 291/291/291 286/286/286
f 286/286/286 292/292/292 281/281/281
f 281/281/281 292/292/292 287/287/287
f 287/287/287 293/293/293 282/282/282
f 282/282/282 293/293/293 288/288/288
f 288/288/288 294/294/294 289/289/289
f 289/289/289 294/294/294 295/295/295
f 290/290/290 296/296/296 285/285/285
f 285/285/285 296/296/296 291/291/291
f 291/291/291 297/297/297 286/286/286
f 286/286/286 297/297/297 292/292/292
f 292/292/292 298/298/298 287/287/287
f 287/287/287 298/298/298 293/293/293
f 293/293/293 299/299/299 288/288/288
f 288/288/288 299/299/299 294/294/294
f 294/294/294 300/300/300 295/295/295
f 295/295/295 300/300/300 301/301/301
f 296/296/296 302/302/302 291/291/291
f 291/291/291 302/302/302 297/297/297
f 297/297/297 303/303/303 292/292/292
f 292/292/292 303/303/303 298/298/298
f 298/298/298 304/304/304 293/293/293
f 293/293/293 304/304/304 299/299/299
f 299/299/299 305/305/305 294/294/294
f 294/294/294 305/305/305 300/300/300
f 300/300/300 306/306/306 301/301/301
f 307/307/307 301/301/301 306/306/306
f 307/307/307 306/306/306 308/308/308
f 307/307/307 308/308/308 309/309/309
f 300/300/300 310/310/310 306/306/306
f 310/310/310 308/308/308 306/306/306
f 305/305/305 310/310/310 300/300/300
f 299/299/299 311/311/311 305/305/305
f 304/304/304 311/311/311 299/299/299
f 298/298/298 312/312/312 304/304/304
f 303/303/303 312/312/312 298/298/298
f 310/310/310 313/313/313 308/308/308
f 313/313/313 309/309/309 308/308/308
f 305/305/305 314/314/314 310/310/310
f 311/311/311 314/314/314 305/305/305
f 314/314/314 313/313/313 310/310/310
f 304/304/304 315/315/315 311/311/311
f 312/312/312 315/315/315 304/304/304
f 311/311/311 316/316/316 314/314/314
f 315/315/315 316/316/316 311/311/311
f 314/314/314 317/317/317 313/313/313
f 316/316/316 317/317/317 314/314/314
f 313/313/313 318/318/318 309/309/309
f 317/317/317 318/318/318 313/313/313
f 318/318/318 319/319/319 309/309/309
f 307/307/307 309/309/309 319/319/319
f 303/303/303 320/320/320 312/312/312
f 312/312/312 321/321/321 315/315/315
f 320/320/320 321/321/321 312/312/312
f 315/315/315 322/322/322 316/316/316
f 321/321/321 322/322/322 315/315/315
f 316/316/316 323/323/323 317/317/317
f 322/322/322 323/323/323 316/316/316
f 317/317/317 324/324/324 318/318/318
f 323/323/323 324/324/324 317/317/317
f 318/318/318 325/325/325 319/319/319
f 324/324/324 325/325/325 318/318/318
f 307/307/307 319/319/319 326/326/326
f 325/325/325 326/326/326 319/319/319
f 326/326/326 325/325/325 327/327/327
f 327/327/327 307/307/307 326/326/326
f 325/325/325 324/324/324 328/328/328
f 325/325/325 328/328/328 327/327/327
f 324/324/324 323/323/323 329/329/329
f 324/324/324 329/329/329 328/328/328
f 323/323/323 322/322/322 330/330/330
f 323/323/323 330/330/330 329/329/329
f 322/322/322 321/321/321 331/331/331
f 322/322/322 331/331/331 330/330/330
f 327/327/327 328/328/328 332/332/332
f 332/332/332 307/307/307 327/327/327
f 328/328/328 329/329/329 333/333/333
f 328/328/328 333/333/333 332/332/332
f 329/329/329 330/330/330 334/334/334
f 329/329/329 334/334/334 333/333/333
f 335/335/335 307/307/307 332/332/332
f 332/332/332 333/333/333 335/335/335
f 336/336/336 307/307/307 335/335/335
f 337/337/337 307/307/307 336/336/336
f 333/333/333 338/338/338 335/335/335
f 335/335/335 338/338/338 336/336/336
f 333/333/333 334/334/334 338/338/338
f 336/336/336 339/339/339 337/337/337
f 338/338/338 339/339/339 336/336/336
f 339/339/339 340/340/340 337/337/337
f 330/330/330 341/341/341 334/334/334
f 330/330/330 331/331/331 341/341/341
f 334/334/334 342/342/342 338/338/338
f 338/338/338 342/342/342 339/339/339
f 334/334/334 341/341/341 342/342/342
f 339/339/339 343/343/343 340/340/340
f 342/342/342 343/343/343 339/339/339
f 343/343/343 344/344/344 340/340/340
f 341/341/341 345/345/345 342/342/342
f 342/342/342 345/345/345 343/343/343
f 343/343/343 346/346/346 344/344/344
f 345/345/345 346/346/346 343/343/343
f 346/346/346 347/347/347 344/344/344
f 331/331/331 348/348/348 341/341/341
f 341/341/341 348/348/348 345/345/345
f 346/346/346 349/349/349 347/347/347
f 349/349/349 350/350/350 347/347/347
f 345/345/345 351/351/351 346/346/346
f 348/348/348 351/351/351 345/345/345
f 351/351/351 349/349/349 346/346/346
f 331/331/331 352/352/352 348/348/348
f 321/321/321 352/352/352 331/331/331
f 321/321/321 320/320/320 352/352/352
f 349/349/349 353/353/353 350/350/350
f 353/353/353 354/354/354 350/350/350
f 351/351/351 355/355/355 349/349/349
f 355/355/355 353/353/353 349/349/349
f 348/348/348 356/356/356 351/351/351
f 352/352/352 356/356/356 348/348/348
f 356/356/356 355/355/355 351/351/351
f 320/320/320 357/357/357 352/352/352
f 352/352/352 357/357/357 356/356/356
f 353/353/353 358/358/358 354/354/354
f 358/358/358 359/359/359 354/354/354
f 355/355/355 360/360/360 353/353/353
f 360/360/360 358/358/358 353/353/353
f 356/356/356 361/361/361 355/355/355
f 357/357/357 361/361/361 356/356/356
f 361/361/361 360/360/360 355/355/355
f 320/320/320 362/362/362 357/357/357
f 362/362/362 320/320/320 303/303/303
f 297/297/297 362/362/362 303/303/303
f 302/302/302 362/362/362 297/297/297
f 362/362/362 363/363/363 357/357/357
f 357/357/357 363/363/363 361/361/361
f 362/362/362 302/302/302 363/363/363
f 358/358/358 364/364/364 359/359/359
f 364/364/364 365/365/365 359/359/359
f 360/360/360 366/366/366 358/358/358
f 366/366/366 364/364/364 358/358/358
f 361/361/361 367/367/367 360/360/360
f 363/363/363 367/367/367 361/361/361
f 367/367/367 366/366/366 360/360/360
f 302/302/302 368/368/368 363/363/363
f 363/363/363 368/368/368 367/367/367
f 302/302/302 296/296/296 368/368/368
f 364/364/364 369/369/369 365/365/365
f 369/369/369 370/370/370 365/365/365
f 366/366/366 371/371/371 364/364/364
f 371/371/371 369/369/369 364/364/364
f 367/367/367 372/372/372 366/366/366
f 368/368/368 372/372/372 367/367/367
f 372/372/372 371/371/371 366/366/366
f 296/296/296 373/373/373 368/368/368
f 368/368/368 373/373/373 372/372/372
f 296/296/296 290/290/290 373/373/373
f 369/369/369 374/374/374 370/370/370
f 374/374/374 375/375/375 370/370/370
f 371/371/371 376/376/376 369/369/369
f 376/376/376 374/374/374 369/369/369
f 372/372/372 377/377/377 371/371/371
f 373/373/373 377/377/377 372/372/372
f 377/377/377 376/376/376 371/371/371
f 290/290/290 378/378/378 373/373/373
f 373/373/373 378/378/378 377/377/377
f 290/290/290 284/284/284 378/378/378
f 374/374/374 379/379/379 375/375/375
f 379/379/379 380/380/380 375/375/375
f 376/376/376 381/381/381 374/374/374
f 381/381/381 379/379/379 374/374/374
f 377/377/377 382/382/382 376/376/376
f 378/378/378 382/382/382 377/377/377
f 382/382/382 381/381/381 376/376/376
f 284/284/284 383/383/383 378/378/378
f 378/378/378 383/383/383 382/382/382
f 284/284/284 278/278/278 383/383/383
f 379/379/379 384/384/384 380/380/380
f 384/384/384 385/385/385 380/380/380
f 381/381/381 386/386/386 379/379/379
f 386/386/386 384/384/384 379/379/379
f 382/382/382 387/387/387 381/381/381
f 383/383/383 387/387/387 382/382/382
f 387/387/387 386/386/386 381/381/381
f 278/278/278 388/388/388 383/383/383
f 383/383/383 388/388/388 387/387/387
f 278/278/278 272/272/272 388/388/388
f 384/384/384 389/389/389 385/385/385
f 389/389/389 390/390/390 385/385/385
f 386/386/386 391/391/391 384/384/384
f 391/391/391 389/389/389 384/384/384
f 387/387/387 392/392/392 386/386/386
f 388/388/388 392/392/392 387/387/387
f 392/392/392 391/391/391 386/386/386
f 272/272/272 393/393/393 388/388/388
f 388/388/388 393/393/393 392/392/392
f 272/272/272 266/266/266 393/393/393
f 389/389/389 394/394/394 390/390/390
f 394/394/394 395/395/395 390/390/390
f 391/391/391 396/396/396 389/389/389
f 396/396/396 394/394/394 389/389/389
f 392/392/392 397/397/397 391/391/391
f 393/393/393 397/397/397 392/392/392
f 397/397/397 396/396/396 391/391/391
f 266/266/266 398/398/398 393/393/393
f 393/393/393 398/398/398 397/397/397
f 266/266/266 260/260/260 398/398/398
f 394/394/394 399/399/399 395/395/395
f 399/399/399 400/400/400 395/395/395
f 396/396/396 401/401/401 394/394/394
f 401/401/401 399/399/399 394/394/394
f 397/397/397 402/402/402 396/396/396
f 398/398/398 402/402/402 397/397/397
f 402/402/402 401/401/401 396/396/396
f 260/260/260 403/403/403 398/398/398
f 398/398/398 403/403/403 402/402/402
f 260/260/260 254/254/254 403/403/403
f 399/399/399 404/404/404 400/400/400
f 404/404/404 405/405/405 400/400/400
f 401/401/401 406/406/406 399/399/399
f 406/406/406 404/404/404 399/399/399
f 402/402/402 407/407/407 401/401/401
f 403/403/403 407/407/407 402/402/402
f 407/407/407 406/406/406 401/401/401
f 254/254/254 408/408/408 403/403/403
f 403/403/403 408/408/408 407/407/407
f 254/254/254 248/248/248 408/408/408
f 404/404/404 409/409/409 405/405/405
f 409/409/409 410/410/410 405/405/405
f 406/406/406 411/411/411 404/404/404
f 411/411/411 409/409/409 404/404/404
f 407/407/407 412/412/412 406/406/406
f 408/408/408 412/412/412 407/407/407
f 412/412/412 411/411/411 406/406/406
f 248/248/248 413/413/413 408/408/408
f 408/408/408 413/413/413 412/412/412
f 248/248/248 242/242/242 413/413/413
f 409/409/409 414/414/414 410/410/410
f 414/414/414 415/415/415 410/410/410
f 411/411/411 416/416/416 409/409/409
f 416/416/416 414/414/414 409/409/409
f 412/412/412 417/417/417 411/411/411
f 413/413/413 417/417/417 412/412/412
f 417/417/417 416/416/416 411/411/411
f 242/242/242 418/418/418 413/413/413
f 413/413/413 418/418/418 417/417/417
f 242/242/242 215/215/215 418/418/418
f 418/418/418 419/419/419 417/417/417
f 417/417/417 419/419/419 416/416/416
f 418/418/418 215/215/215 419/419/419
f 419/419/419 420/420/420 416/416/416
f 416/416/416 420/420/420 414/414/414
f 419/419/419 215/215/215 420/420/420
f 414/414/414 421/421/421 415/415/415
f 420/420/420 421/421/421 414/414/414
f 420/420/420 215/215/215 421/421/421
f 421/421/421 422/422/422 415/415/415
f 421/421/421 215/215/215 422/422/422
