g Evolution
v 0.2876123 0.31950077 0
v 0.27206972 0.31928405 0
v 0.27167577 0.3038844 0
v 0.23534484 0.30388436 0
v 0.27305824 0.35792282 -3.7252904E-10
v 0.2876123 0.3580242 -3.7252904E-10
v 0.27343485 0.37264463 0
v 0.23626295 0.35766637 3.7252904E-10
v 0.23651862 0.37264463 0
v 0.22062622 0.35755745 -3.7252904E-10
v 0.23559904 0.31877542 3.7252904E-10
v 0.22062622 0.3185666 3.7252904E-10
v -0.038075842 0.33950123 0
v 0.21384935 0.3613705 0
v -0.06037401 0.3613705 0
v 0.21384935 0.33950123 0
v 0.21530877 0.3613705 0
v 0.22627187 0.37264463 0
v 0.23143052 0.37794963 0
v 0.24210678 0.37794963 -3.7252904E-10
v 0.21384935 0.32532665 0
v 0.21384935 0.31677437 0
v 0.22062622 0.3099975 0
v 0.22673932 0.3038844 0
v 0.2682907 0.37794963 0
v 0.23293133 0.29769236 0
v 0.24155222 0.29769236 0
v 0.27516907 0.37794963 0
v 0.28051645 0.37264463 3.7252904E-10
v 0.2876123 0.365605 -3.7252904E-10
v 0.26535675 0.29769236 -3.7252904E-10
v 0.27495462 0.29769236 0
v 0.28114665 0.30388436 3.7252904E-10
v 0.29339343 0.3598697 0
v 0.29339343 0.35206243 0
v 0.29339343 0.32516578 3.7252904E-10
v 0.2876123 0.31035003 0
v 0.29339343 0.31613117 0
vt 0.04348755 0.86328125
vt 0.068115234 0.86279297
vt 0.06878662 0.84521484
vt 0.12646484 0.84521484
vt 0.066589355 0.9067383
vt 0.04348755 0.9067383
vt 0.065979004 0.92333984
vt 0.125 0.90625
vt 0.124572754 0.92333984
vt 0.14978027 0.90625
vt 0.12597656 0.8623047
vt 0.14978027 0.8618164
vt 0.5605469 0.8857422
vt 0.16052246 0.91064453
vt 0.5957031 0.91064453
vt 0.16052246 0.8857422
vt 0.15820312 0.91064453
vt 0.14086914 0.92333984
vt 0.13269043 0.9291992
vt 0.115722656 0.9291992
vt 0.16052246 0.8696289
vt 0.16052246 0.8598633
vt 0.14978027 0.8520508
vt 0.14013672 0.84521484
vt 0.074157715 0.9296875
vt 0.13024902 0.8383789
vt 0.11657715 0.8383789
vt 0.06323242 0.9296875
vt 0.054748535 0.92333984
vt 0.04348755 0.91552734
vt 0.07879639 0.8383789
vt 0.0635376 0.8383789
vt 0.053741455 0.84521484
vt 0.034301758 0.9086914
vt 0.034301758 0.89990234
vt 0.034301758 0.8696289
vt 0.04348755 0.85253906
vt 0.034301758 0.859375
vn -0 0 -1
vn -0 0 -1
vn -0 0 -1
vn -0 0 -1
vn -0 0 -1
vn -0 0 -1
vn -0 0 -1
vn -0 0 -1
vn -0 0 -1
vn -0 0 -1
vn -0 0 -1
vn -0 0 -1
vn -0 0 -1
vn -0 0 -1
vn -0 0 -1
vn -0 0 -1
vn -0 0 -1
vn -0 0 -1
vn -0 0 -1
vn -0 0 -1
vn -0 0 -1
vn -0 0 -1
vn -0 0 -1
vn -0 0 -1
vn -0 0 -1
vn -0 0 -1
vn -0 0 -1
vn -0 0 -1
vn -0 0 -1
vn -0 0 -1
vn -0 0 -1
vn -0 0 -1
vn -0 0 -1
vn -0 0 -1
vn -0 0 -1
vn -0 0 -1
vn -0 0 -1
vn -0 0 -1
g Evolution_0
f 3/3/3 2/2/2 1/1/1
f 3/3/3 4/4/4 2/2/2
f 2/2/2 5/5/5 1/1/1
f 5/5/5 6/6/6 1/1/1
f 5/5/5 7/7/7 6/6/6
f 5/5/5 8/8/8 7/7/7
f 5/5/5 2/2/2 8/8/8
f 8/8/8 9/9/9 7/7/7
f 8/8/8 10/10/10 9/9/9
f 4/4/4 11/11/11 2/2/2
f 2/2/2 11/11/11 8/8/8
f 8/8/8 11/11/11 10/10/10
f 4/4/4 12/12/12 11/11/11
f 11/11/11 12/12/12 10/10/10
g Evolution_1
f 15/15/15 14/14/14 13/13/13
f 14/14/14 16/16/16 13/13/13
f 14/14/14 10/10/10 16/16/16
f 14/14/14 17/17/17 10/10/10
f 17/17/17 18/18/18 10/10/10
f 10/10/10 12/12/12 16/16/16
f 18/18/18 9/9/9 10/10/10
f 9/9/9 18/18/18 19/19/19
f 20/20/20 9/9/9 19/19/19
f 12/12/12 21/21/21 16/16/16
f 9/9/9 20/20/20 7/7/7
f 21/21/21 12/12/12 22/22/22
f 12/12/12 23/23/23 22/22/22
f 24/24/24 23/23/23 12/12/12
f 20/20/20 25/25/25 7/7/7
f 4/4/4 24/24/24 12/12/12
f 26/26/26 24/24/24 4/4/4
f 27/27/27 26/26/26 4/4/4
f 7/7/7 25/25/25 28/28/28
f 7/7/7 28/28/28 29/29/29
f 29/29/29 30/30/30 7/7/7
f 27/27/27 4/4/4 3/3/3
f 30/30/30 6/6/6 7/7/7
f 31/31/31 27/27/27 3/3/3
f 31/31/31 3/3/3 32/32/32
f 3/3/3 33/33/33 32/32/32
f 6/6/6 30/30/30 34/34/34
f 35/35/35 6/6/6 34/34/34
f 6/6/6 35/35/35 36/36/36
f 33/33/33 3/3/3 1/1/1
f 1/1/1 6/6/6 36/36/36
f 37/37/37 33/33/33 1/1/1
f 1/1/1 36/36/36 38/38/38
f 1/1/1 38/38/38 37/37/37
