g L_Card_EffectBase_R4
v -0.30800003 -0.44550005 0
v -0.34070855 -0.47333106 0
v -0.3359058 -0.4783722 0
v -0.32976502 -0.48191372 0
v -0.34427038 -0.46794257 0
v -0.323406 -0.48394725 0
v -0.34665424 -0.46166322 0
v -0.30800003 -0.48400003 0
v -0.3465 -0.44550005 0
v 0.30800003 -0.48400003 0
v -0.3465 0 0
v 0.30800003 -0.44550005 0
v 0.323406 -0.48394725 0
v 0.32976502 -0.48191372 0
v 0.3359058 -0.4783722 0
v 0.34070855 -0.47333106 0
v 0.34427038 -0.46794257 0
v 0.3465 -0.46166322 0
v 0.3465 -0.44550005 0
v 0.30800003 0 0
v 0.3465 0 0
v 0.3465 0.44550005 0
v -0.30800003 0 0
v 0.30800003 0.44550005 0
v 0.3465 0.46166322 0
v 0.34427038 0.46794257 0
v 0.34070855 0.47333106 0
v 0.3359058 0.4783722 0
v 0.32976502 0.48191372 0
v 0.323406 0.48394725 0
v 0.30800003 0.48400003 0
v -0.30800003 0.48400003 0
v -0.30800003 0.44550005 0
v -0.3465 0.44550005 0
v -0.323406 0.48394725 0
v -0.3465 0.46166322 0
v -0.32976502 0.48191372 0
v -0.34427038 0.46794257 0
v -0.3359058 0.4783722 0
v -0.34070855 0.47333106 0
vt 0.94433594 0.039764404
vt 0.9921875 0.011711121
vt 0.9838867 0.00548172
vt 0.9741211 0.00082445145
vt 0.99853516 0.01802063
vt 0.9667969 6.604195E-05
vt 1 0.023086548
vt 0.94433594 0
vt 1 0.039764404
vt 0.055541992 0
vt 1 0.5
vt 0.055541992 0.039764404
vt 0.033325195 6.604195E-05
vt 0.024154663 0.0021705627
vt 0.015312195 0.0058250427
vt 0.008392334 0.0110321045
vt 0.0032424927 0.016586304
vt -0.00020968914 0.023086548
vt 0 0.039764404
vt 0.055541992 0.5
vt 0 0.5
vt 0 0.9604492
vt 0.94433594 0.5
vt 0.055541992 0.9604492
vt 2.0623207E-05 0.9770508
vt 0.0030651093 0.98339844
vt 0.00831604 0.98876953
vt 0.015396118 0.9941406
vt 0.024124146 0.9980469
vt 0.03302002 1
vt 0.055541992 1
vt 0.94433594 1
vt 0.94433594 0.9604492
vt 1 0.9604492
vt 0.9667969 1
vt 1 0.9770508
vt 0.9760742 0.9980469
vt 0.99658203 0.98339844
vt 0.9848633 0.9941406
vt 0.9916992 0.98876953
vn -0 0 -1
vn -0 0 -1
vn -0 0 -1
vn -0 0 -1
vn -0 0 -1
vn -0 0 -1
vn -0 0 -1
vn -0 0 -1
vn -0 0 -1
vn -0 0 -1
vn -0 0 -1
vn -0 0 -1
vn -0 0 -1
vn -0 0 -1
vn -0 0 -1
vn -0 0 -1
vn -0 0 -1
vn -0 0 -1
vn -0 0 -1
vn -0 0 -1
vn -0 0 -1
vn -0 0 -1
vn -0 0 -1
vn -0 0 -1
vn -0 0 -1
vn -0 0 -1
vn -0 0 -1
vn -0 0 -1
vn -0 0 -1
vn -0 0 -1
vn -0 0 -1
vn -0 0 -1
vn -0 0 -1
vn -0 0 -1
vn -0 0 -1
vn -0 0 -1
vn -0 0 -1
vn -0 0 -1
vn -0 0 -1
vn -0 0 -1
g L_Card_EffectBase_R4_0
f 3/3/3 2/2/2 1/1/1
f 3/3/3 1/1/1 4/4/4
f 2/2/2 5/5/5 1/1/1
f 4/4/4 1/1/1 6/6/6
f 5/5/5 7/7/7 1/1/1
f 6/6/6 1/1/1 8/8/8
f 9/9/9 1/1/1 7/7/7
f 8/8/8 1/1/1 10/10/10
f 1/1/1 9/9/9 11/11/11
f 1/1/1 12/12/12 10/10/10
f 13/13/13 10/10/10 12/12/12
f 14/14/14 13/13/13 12/12/12
f 15/15/15 14/14/14 12/12/12
f 16/16/16 15/15/15 12/12/12
f 17/17/17 16/16/16 12/12/12
f 17/17/17 12/12/12 18/18/18
f 19/19/19 18/18/18 12/12/12
f 19/19/19 12/12/12 20/20/20
f 20/20/20 12/12/12 1/1/1
f 21/21/21 19/19/19 20/20/20
f 22/22/22 21/21/21 20/20/20
f 23/23/23 1/1/1 11/11/11
f 20/20/20 1/1/1 23/23/23
f 24/24/24 22/22/22 20/20/20
f 24/24/24 20/20/20 23/23/23
f 22/22/22 24/24/24 25/25/25
f 24/24/24 26/26/26 25/25/25
f 27/27/27 26/26/26 24/24/24
f 27/27/27 24/24/24 28/28/28
f 28/28/28 24/24/24 29/29/29
f 24/24/24 30/30/30 29/29/29
f 30/30/30 24/24/24 31/31/31
f 31/31/31 24/24/24 32/32/32
f 33/33/33 23/23/23 11/11/11
f 33/33/33 24/24/24 23/23/23
f 24/24/24 33/33/33 32/32/32
f 34/34/34 33/33/33 11/11/11
f 35/35/35 32/32/32 33/33/33
f 34/34/34 36/36/36 33/33/33
f 35/35/35 33/33/33 37/37/37
f 38/38/38 33/33/33 36/36/36
f 39/39/39 37/37/37 33/33/33
f 38/38/38 40/40/40 33/33/33
f 39/39/39 33/33/33 40/40/40
