g L_Card_EffectBase_R5
v -0.29400548 -0.43995205 0
v -0.28000003 -0.40500003 0
v -0.2997864 -0.4381034 0
v -0.28000003 -0.44000003 0
v 0.28000003 -0.44000003 0
v 0.28000003 -0.40500003 0
v 0.29400548 -0.43995205 0
v 0.2997864 -0.4381034 0
v 0.3053689 -0.43488383 0
v 0.30973503 -0.43030095 0
v 0.31297308 -0.42540237 0
v 0.31500003 -0.4196938 0
v 0.31500003 -0.40500003 0
v 0.28000003 0 0
v -0.28000003 0 0
v 0.31500003 0 0
v 0.31500003 0.40500003 0
v 0.28000003 0.40500003 0
v 0.31500003 0.4196938 0
v 0.31297308 0.42540237 0
v 0.30973503 0.43030095 0
v 0.3053689 0.43488383 0
v 0.2997864 0.4381034 0
v 0.29400548 0.43995205 0
v 0.28000003 0.44000003 0
v -0.28000003 0.44000003 0
v -0.28000003 0.40500003 0
v -0.29400548 0.43995205 0
v -0.2997864 0.4381034 0
v -0.3053689 0.43488383 0
v -0.30973503 0.43030095 0
v -0.31297308 0.42540237 0
v -0.31500003 0.4196938 0
v -0.31500003 0.40500003 0
v -0.31500003 0 0
v -0.31500003 -0.40500003 0
v -0.31514022 -0.4196938 0
v -0.31297308 -0.42540237 0
v -0.30973503 -0.43030095 0
v -0.3053689 -0.43488383 0
v -0.2997864 -0.4381034 0
vt 0.9667969 6.604195E-05
vt 0.94433594 0.039764404
vt 0.9741211 0.00082445145
vt 0.94433594 0
vt 0.055541992 0
vt 0.055541992 0.039764404
vt 0.033325195 6.604195E-05
vt 0.024154663 0.0021705627
vt 0.015312195 0.0058250427
vt 0.008392334 0.0110321045
vt 0.0032424927 0.016586304
vt -0.00020968914 0.023086548
vt 0 0.039764404
vt 0.055541992 0.5
vt 0.94433594 0.5
vt 0 0.5
vt 0 0.9604492
vt 0.055541992 0.9604492
vt 2.0623207E-05 0.9770508
vt 0.0030651093 0.98339844
vt 0.00831604 0.98876953
vt 0.015396118 0.9941406
vt 0.024124146 0.9980469
vt 0.03302002 1
vt 0.055541992 1
vt 0.94433594 1
vt 0.94433594 0.9604492
vt 0.9667969 1
vt 0.9760742 0.9980469
vt 0.9848633 0.9941406
vt 0.9916992 0.98876953
vt 0.99658203 0.98339844
vt 1 0.9770508
vt 1 0.9604492
vt 1 0.5
vt 1 0.039764404
vt 1 0.023086548
vt 0.99853516 0.01802063
vt 0.9921875 0.011711121
vt 0.9838867 0.00548172
vt 0.9741211 0.00082445145
vn -0 0 -1
vn -0 0 -1
vn -0 0 -1
vn -0 0 -1
vn -0 0 -1
vn -0 0 -1
vn -0 0 -1
vn -0 0 -1
vn -0 0 -1
vn -0 0 -1
vn -0 0 -1
vn -0 0 -1
vn -0 0 -1
vn -0 0 -1
vn -0 0 -1
vn -0 0 -1
vn -0 0 -1
vn -0 0 -1
vn -0 0 -1
vn -0 0 -1
vn -0 0 -1
vn -0 0 -1
vn -0 0 -1
vn -0 0 -1
vn -0 0 -1
vn -0 0 -1
vn -0 0 -1
vn -0 0 -1
vn -0 0 -1
vn -0 0 -1
vn -0 0 -1
vn -0 0 -1
vn -0 0 -1
vn -0 0 -1
vn -0 0 -1
vn -0 0 -1
vn -0 0 -1
vn -0 0 -1
vn -0 0 -1
vn -0 0 -1
vn -0 0 -1
g L_Card_EffectBase_R5_0
f 3/3/3 2/2/2 1/1/1
f 1/1/1 2/2/2 4/4/4
f 4/4/4 2/2/2 5/5/5
f 2/2/2 6/6/6 5/5/5
f 7/7/7 5/5/5 6/6/6
f 8/8/8 7/7/7 6/6/6
f 9/9/9 8/8/8 6/6/6
f 10/10/10 9/9/9 6/6/6
f 11/11/11 10/10/10 6/6/6
f 11/11/11 6/6/6 12/12/12
f 13/13/13 12/12/12 6/6/6
f 14/14/14 6/6/6 2/2/2
f 13/13/13 6/6/6 14/14/14
f 14/14/14 2/2/2 15/15/15
f 16/16/16 13/13/13 14/14/14
f 17/17/17 16/16/16 14/14/14
f 18/18/18 17/17/17 14/14/14
f 18/18/18 14/14/14 15/15/15
f 17/17/17 18/18/18 19/19/19
f 18/18/18 20/20/20 19/19/19
f 21/21/21 20/20/20 18/18/18
f 21/21/21 18/18/18 22/22/22
f 22/22/22 18/18/18 23/23/23
f 18/18/18 24/24/24 23/23/23
f 24/24/24 18/18/18 25/25/25
f 25/25/25 18/18/18 26/26/26
f 18/18/18 27/27/27 26/26/26
f 27/27/27 18/18/18 15/15/15
f 28/28/28 26/26/26 27/27/27
f 28/28/28 27/27/27 29/29/29
f 30/30/30 29/29/29 27/27/27
f 30/30/30 27/27/27 31/31/31
f 32/32/32 31/31/31 27/27/27
f 32/32/32 27/27/27 33/33/33
f 34/34/34 33/33/33 27/27/27
f 34/34/34 27/27/27 35/35/35
f 27/27/27 15/15/15 35/35/35
f 15/15/15 2/2/2 35/35/35
f 2/2/2 36/36/36 35/35/35
f 36/36/36 2/2/2 37/37/37
f 38/38/38 37/37/37 2/2/2
f 39/39/39 38/38/38 2/2/2
f 40/40/40 39/39/39 2/2/2
f 40/40/40 2/2/2 41/41/41
