g L_UI_RareMark_Igaiga_a
v -0.0073345653 0 -5.0000002E-05
v -0.008656152 0.0013423816 -5.0000002E-05
v -0.008911895 0.0009143748 -5.0000002E-05
v -0.009058811 0.00048945623 -5.0000002E-05
v -0.009141038 0 -5.0000002E-05
v -0.009058811 -0.00048945623 -5.0000002E-05
v -0.008911895 -0.0009143748 -5.0000002E-05
v -0.008656152 -0.0013423816 -5.0000002E-05
v -0.008249377 0.0016351402 -5.0000002E-05
v -0.008249377 -0.0016351402 -5.0000002E-05
v -0.0039388686 0.0017622024 -5.0000002E-05
v -0.0039388686 -0.0017622024 -5.0000002E-05
v -0.0062317005 0.0025389665 -5.0000002E-05
v -0.0062317005 -0.0025389665 -5.0000002E-05
v -0.0063875797 0.0066922195 -5.0000002E-05
v -0.008220157 0.00588839 -5.0000002E-05
v -0.008384726 0.0064206147 -5.0000002E-05
v -0.008314493 0.006979639 -5.0000002E-05
v -0.0063875797 -0.0066922195 -5.0000002E-05
v -0.008220157 -0.00588839 -5.0000002E-05
v -0.008384726 -0.0064206147 -5.0000002E-05
v -0.008314493 -0.006979639 -5.0000002E-05
v -0.0080959685 0.0076093758 -5.0000002E-05
v -0.0080959685 -0.0076093758 -5.0000002E-05
v -0.0078030187 0.008094642 -5.0000002E-05
v -0.0078030187 -0.008094642 -5.0000002E-05
v -0.007343758 0.008406813 -5.0000002E-05
v -0.007343758 -0.008406813 -5.0000002E-05
v -0.006868285 0.0085940845 -5.0000002E-05
v -0.006316638 0.008671274 -5.0000002E-05
v -0.005776921 0.008492562 -5.0000002E-05
v -0.0021726817 0.004374688 -5.0000002E-05
v -0.0030510768 0.0068493793 -5.0000002E-05
v -0.006868285 -0.0085940845 -5.0000002E-05
v -0.006316638 -0.008671274 -5.0000002E-05
v -0.005776921 -0.008492562 -5.0000002E-05
v -0.0021726817 -0.004374688 -5.0000002E-05
v -0.0030510768 -0.0068493793 -5.0000002E-05
v -0 0.008865352 -5.0000002E-05
v -0.0017256578 0.009699258 -5.0000002E-05
v -0.0014221085 0.010132542 -5.0000002E-05
v -0.000986474 0.010437479 -5.0000002E-05
v -0.0005222831 0.010654612 -5.0000002E-05
v -0 -0.008865352 -5.0000002E-05
v -0.0017256578 -0.009699258 -5.0000002E-05
v -0.0014221085 -0.010132542 -5.0000002E-05
v -0.000986474 -0.010437479 -5.0000002E-05
v -0.00052228314 -0.010654612 -5.0000002E-05
v -0 0.010770729 -5.0000002E-05
v -0 -0.010770729 -5.0000002E-05
v 0.00052228314 0.010654612 -5.0000002E-05
v 0.00052228314 -0.010654612 -5.0000002E-05
v 0.000986474 0.010437479 -5.0000002E-05
v 0.000986474 -0.010437479 -5.0000002E-05
v 0.0014221085 0.010132542 -5.0000002E-05
v 0.0017256578 0.009699258 -5.0000002E-05
v 0.0030510768 0.0068493793 -5.0000002E-05
v 0.0021726817 0.004374688 -5.0000002E-05
v 0.005776921 0.008492562 -5.0000002E-05
v 0.0063875797 0.0066922195 -5.0000002E-05
v 0.006316638 0.008671274 -5.0000002E-05
v 0.006868285 0.0085940845 -5.0000002E-05
v 0.007343758 0.008406813 -5.0000002E-05
v 0.0014221085 -0.010132542 -5.0000002E-05
v 0.0017256578 -0.009699258 -5.0000002E-05
v 0.0030510768 -0.0068493793 -5.0000002E-05
v 0.0021726817 -0.004374688 -5.0000002E-05
v 0.005776921 -0.008492562 -5.0000002E-05
v 0.0063875797 -0.0066922195 -5.0000002E-05
v 0.006316638 -0.008671274 -5.0000002E-05
v 0.006868285 -0.0085940845 -5.0000002E-05
v 0.007343758 -0.008406813 -5.0000002E-05
v 0.0078030187 0.008094642 -5.0000002E-05
v 0.0078030187 -0.008094642 -5.0000002E-05
v 0.0080959685 0.0076093758 -5.0000002E-05
v 0.0080959685 -0.0076093758 -5.0000002E-05
v 0.008314493 0.006979639 -5.0000002E-05
v 0.008314493 -0.006979639 -5.0000002E-05
v 0.008384726 0.0064206147 -5.0000002E-05
v 0.008220157 0.00588839 -5.0000002E-05
v 0.0062317005 0.0025389665 -5.0000002E-05
v 0.0039388686 0.0017622024 -5.0000002E-05
v 0.008249377 0.0016351402 -5.0000002E-05
v 0.0073345653 0 -5.0000002E-05
v 0.008656152 0.0013423816 -5.0000002E-05
v 0.008911895 0.0009143748 -5.0000002E-05
v 0.008384726 -0.0064206147 -5.0000002E-05
v 0.008220157 -0.00588839 -5.0000002E-05
v 0.0062317005 -0.0025389665 -5.0000002E-05
v 0.0039388686 -0.0017622024 -5.0000002E-05
v 0.008249377 -0.0016351402 -5.0000002E-05
v 0.009058811 0.00048945623 -5.0000002E-05
v 0.008656152 -0.0013423816 -5.0000002E-05
v 0.009141038 0 -5.0000002E-05
v 0.008911895 -0.0009143748 -5.0000002E-05
v 0.009058811 -0.00048945623 -5.0000002E-05
v -0.0073345653 0 5.0000002E-05
v -0.008656152 0.0013423816 5.0000002E-05
v -0.008911895 0.0009143748 5.0000002E-05
v -0.009058811 0.00048945623 5.0000002E-05
v -0.009141038 0 5.0000002E-05
v -0.009058811 -0.00048945623 5.0000002E-05
v -0.008911895 -0.0009143748 5.0000002E-05
v -0.008656152 -0.0013423816 5.0000002E-05
v -0.008249377 0.0016351402 5.0000002E-05
v -0.008249377 -0.0016351402 5.0000002E-05
v -0.0039388686 0.0017622024 5.0000002E-05
v -0 0 5.0000002E-05
v -0.0062317005 0.0025389665 5.0000002E-05
v -0.0039388686 -0.0017622024 5.0000002E-05
v -0.0062317005 -0.0025389665 5.0000002E-05
v -0.0063875797 0.0066922195 5.0000002E-05
v -0.008220157 0.00588839 5.0000002E-05
v -0.008384726 0.0064206147 5.0000002E-05
v -0.008314493 0.006979639 5.0000002E-05
v -0.0080959685 0.0076093758 5.0000002E-05
v -0.0078030187 0.008094642 5.0000002E-05
v -0.007343758 0.008406813 5.0000002E-05
v -0.006868285 0.0085940845 5.0000002E-05
v -0.006316638 0.008671274 5.0000002E-05
v -0.005776921 0.008492562 5.0000002E-05
v -0.0063875797 -0.0066922195 5.0000002E-05
v -0.008220157 -0.00588839 5.0000002E-05
v -0.008384726 -0.0064206147 5.0000002E-05
v -0.008314493 -0.006979639 5.0000002E-05
v -0.0080959685 -0.0076093758 5.0000002E-05
v -0.0078030187 -0.008094642 5.0000002E-05
v -0.007343758 -0.008406813 5.0000002E-05
v -0.006868285 -0.0085940845 5.0000002E-05
v -0.006316638 -0.008671274 5.0000002E-05
v -0.005776921 -0.008492562 5.0000002E-05
v -0.0021726817 0.004374688 5.0000002E-05
v -0.0030510768 0.0068493793 5.0000002E-05
v -0.0021726817 -0.004374688 5.0000002E-05
v -0.0030510768 -0.0068493793 5.0000002E-05
v -0 0.008865352 5.0000002E-05
v -0 -0.008865352 5.0000002E-05
v 0.0021726817 0.004374688 5.0000002E-05
v -0.0017256578 0.009699258 5.0000002E-05
v -0.0014221085 0.010132542 5.0000002E-05
v -0.000986474 0.010437479 5.0000002E-05
v -0.00052228314 0.010654612 5.0000002E-05
v -0.0017256578 -0.009699258 5.0000002E-05
v -0.0014221085 -0.010132542 5.0000002E-05
v -0.000986474 -0.010437479 5.0000002E-05
v -0.00052228314 -0.010654612 5.0000002E-05
v -0 -0.010770729 5.0000002E-05
v -0 0.010770729 5.0000002E-05
v 0.00052228314 -0.010654612 5.0000002E-05
v 0.00052228314 0.010654612 5.0000002E-05
v 0.000986474 -0.010437479 5.0000002E-05
v 0.000986474 0.010437479 5.0000002E-05
v 0.0014221085 -0.010132542 5.0000002E-05
v 0.0014221085 0.010132542 5.0000002E-05
v 0.0017256578 0.009699258 5.0000002E-05
v 0.0030510768 0.0068493793 5.0000002E-05
v 0.0017256578 -0.009699258 5.0000002E-05
v 0.0030510768 -0.0068493793 5.0000002E-05
v 0.005776921 0.008492562 5.0000002E-05
v 0.0021726817 -0.004374688 5.0000002E-05
v 0.005776921 -0.008492562 5.0000002E-05
v 0.0063875797 0.0066922195 5.0000002E-05
v 0.006316638 0.008671274 5.0000002E-05
v 0.006868285 0.0085940845 5.0000002E-05
v 0.007343758 0.008406813 5.0000002E-05
v 0.0078030187 0.008094642 5.0000002E-05
v 0.0080959685 0.0076093758 5.0000002E-05
v 0.008314493 0.006979639 5.0000002E-05
v 0.008384726 0.0064206147 5.0000002E-05
v 0.008220157 0.00588839 5.0000002E-05
v 0.0062317005 0.0025389665 5.0000002E-05
v 0.0063875797 -0.0066922195 5.0000002E-05
v 0.006316638 -0.008671274 5.0000002E-05
v 0.006868285 -0.0085940845 5.0000002E-05
v 0.007343758 -0.008406813 5.0000002E-05
v 0.0078030187 -0.008094642 5.0000002E-05
v 0.0080959685 -0.0076093758 5.0000002E-05
v 0.008314493 -0.006979639 5.0000002E-05
v 0.008384726 -0.0064206147 5.0000002E-05
v 0.008220157 -0.00588839 5.0000002E-05
v 0.0062317005 -0.0025389665 5.0000002E-05
v 0.0039388686 0.0017622024 5.0000002E-05
v 0.008249377 0.0016351402 5.0000002E-05
v 0.0039388686 -0.0017622024 5.0000002E-05
v 0.008249377 -0.0016351402 5.0000002E-05
v 0.0073345653 0 5.0000002E-05
v 0.008656152 0.0013423816 5.0000002E-05
v 0.008656152 -0.0013423816 5.0000002E-05
v 0.008911895 0.0009143748 5.0000002E-05
v 0.008911895 -0.0009143748 5.0000002E-05
v 0.009058811 0.00048945623 5.0000002E-05
v 0.009058811 -0.00048945623 5.0000002E-05
v 0.009141038 0 5.0000002E-05
vt 0.22912598 0.5
vt 0.18029785 0.5498047
vt 0.17089844 0.5336914
vt 0.16540527 0.5180664
vt 0.16247559 0.5
vt 0.16540527 0.4819336
vt 0.17089844 0.4663086
vt 0.18029785 0.45043945
vt 0.1953125 0.5605469
vt 0.1953125 0.43969727
vt 0.3544922 0.5649414
vt 0.3544922 0.43481445
vt 0.2697754 0.59375
vt 0.2697754 0.40625
vt 0.26416016 0.7470703
vt 0.19641113 0.71728516
vt 0.19030762 0.7373047
vt 0.19299316 0.7578125
vt 0.26416016 0.2529297
vt 0.19641113 0.2824707
vt 0.19030762 0.26293945
vt 0.19299316 0.2421875
vt 0.2010498 0.78125
vt 0.2010498 0.21899414
vt 0.21179199 0.7988281
vt 0.21179199 0.2010498
vt 0.22875977 0.8105469
vt 0.22875977 0.1895752
vt 0.24633789 0.8173828
vt 0.2668457 0.8203125
vt 0.2866211 0.81347656
vt 0.41967773 0.6616211
vt 0.38720703 0.7529297
vt 0.24633789 0.18261719
vt 0.2668457 0.17980957
vt 0.2866211 0.18640137
vt 0.41967773 0.3383789
vt 0.38720703 0.24707031
vt 0.5 0.8276367
vt 0.4362793 0.85839844
vt 0.44750977 0.87402344
vt 0.46362305 0.8852539
vt 0.4807129 0.8935547
vt 0.5 0.17260742
vt 0.4362793 0.1418457
vt 0.44750977 0.12585449
vt 0.46362305 0.11456299
vt 0.4807129 0.10650635
vt 0.5 0.8979492
vt 0.5 0.10223389
vt 0.51953125 0.8935547
vt 0.51953125 0.10650635
vt 0.5366211 0.8852539
vt 0.5366211 0.11456299
vt 0.5527344 0.87402344
vt 0.56396484 0.85839844
vt 0.61279297 0.7529297
vt 0.5800781 0.6616211
vt 0.7133789 0.81347656
vt 0.73583984 0.7470703
vt 0.73339844 0.8203125
vt 0.75341797 0.8173828
vt 0.7709961 0.8105469
vt 0.5527344 0.12585449
vt 0.56396484 0.1418457
vt 0.61279297 0.24707031
vt 0.5800781 0.3383789
vt 0.7133789 0.18640137
vt 0.73583984 0.2529297
vt 0.73339844 0.17980957
vt 0.75341797 0.18261719
vt 0.7709961 0.1895752
vt 0.78808594 0.7988281
vt 0.78808594 0.2010498
vt 0.7988281 0.78125
vt 0.7988281 0.21899414
vt 0.8071289 0.7578125
vt 0.8071289 0.2421875
vt 0.8095703 0.7373047
vt 0.80371094 0.71728516
vt 0.72998047 0.59375
vt 0.6455078 0.5649414
vt 0.8046875 0.5605469
vt 0.7709961 0.5
vt 0.8198242 0.5498047
vt 0.82910156 0.5336914
vt 0.8095703 0.26293945
vt 0.80371094 0.2824707
vt 0.72998047 0.40625
vt 0.6455078 0.43481445
vt 0.8046875 0.43969727
vt 0.83447266 0.5180664
vt 0.8198242 0.45043945
vt 0.83740234 0.5
vt 0.82910156 0.4663086
vt 0.83447266 0.4819336
vt 0.7709961 0.5
vt 0.8198242 0.5498047
vt 0.82910156 0.5336914
vt 0.83447266 0.5180664
vt 0.83740234 0.5
vt 0.83447266 0.4819336
vt 0.82910156 0.4663086
vt 0.8198242 0.45043945
vt 0.8046875 0.5605469
vt 0.8046875 0.43969727
vt 0.6455078 0.5649414
vt 0.5 0.5
vt 0.72998047 0.59375
vt 0.6455078 0.43481445
vt 0.72998047 0.40625
vt 0.73583984 0.7470703
vt 0.80371094 0.71728516
vt 0.8095703 0.7373047
vt 0.8071289 0.7578125
vt 0.7988281 0.78125
vt 0.78808594 0.7988281
vt 0.7709961 0.8105469
vt 0.75341797 0.8173828
vt 0.73339844 0.8203125
vt 0.7133789 0.81347656
vt 0.73583984 0.2529297
vt 0.80371094 0.2824707
vt 0.8095703 0.26293945
vt 0.8071289 0.2421875
vt 0.7988281 0.21899414
vt 0.78808594 0.2010498
vt 0.7709961 0.1895752
vt 0.75341797 0.18261719
vt 0.73339844 0.17980957
vt 0.7133789 0.18640137
vt 0.5800781 0.6616211
vt 0.61279297 0.7529297
vt 0.5800781 0.3383789
vt 0.61279297 0.24707031
vt 0.5 0.8276367
vt 0.5 0.17260742
vt 0.41967773 0.6616211
vt 0.56396484 0.85839844
vt 0.5527344 0.87402344
vt 0.5366211 0.8852539
vt 0.51953125 0.8935547
vt 0.56396484 0.1418457
vt 0.5527344 0.12585449
vt 0.5366211 0.11456299
vt 0.51953125 0.10650635
vt 0.5 0.10223389
vt 0.5 0.8979492
vt 0.4807129 0.10650635
vt 0.4807129 0.8935547
vt 0.46362305 0.11456299
vt 0.46362305 0.8852539
vt 0.44750977 0.12585449
vt 0.44750977 0.87402344
vt 0.4362793 0.85839844
vt 0.38720703 0.7529297
vt 0.4362793 0.1418457
vt 0.38720703 0.24707031
vt 0.2866211 0.81347656
vt 0.41967773 0.3383789
vt 0.2866211 0.18640137
vt 0.26416016 0.7470703
vt 0.2668457 0.8203125
vt 0.24633789 0.8173828
vt 0.22875977 0.8105469
vt 0.21179199 0.7988281
vt 0.2010498 0.78125
vt 0.19299316 0.7578125
vt 0.19030762 0.7373047
vt 0.19641113 0.71728516
vt 0.2697754 0.59375
vt 0.26416016 0.2529297
vt 0.2668457 0.17980957
vt 0.24633789 0.18261719
vt 0.22875977 0.1895752
vt 0.21179199 0.2010498
vt 0.2010498 0.21899414
vt 0.19299316 0.2421875
vt 0.19030762 0.26293945
vt 0.19641113 0.2824707
vt 0.2697754 0.40625
vt 0.3544922 0.5649414
vt 0.1953125 0.5605469
vt 0.3544922 0.43481445
vt 0.1953125 0.43969727
vt 0.22912598 0.5
vt 0.18029785 0.5498047
vt 0.18029785 0.45043945
vt 0.17089844 0.5336914
vt 0.17089844 0.4663086
vt 0.16540527 0.5180664
vt 0.16540527 0.4819336
vt 0.16247559 0.5
vn -0 0 -1
vn -0 0 -1
vn -0 0 -1
vn -0 0 -1
vn -0 0 -1
vn -0 0 -1
vn -0 0 -1
vn -0 0 -1
vn -0 0 -1
vn -0 0 -1
vn -0 0 -1
vn -0 0 -1
vn -0 0 -1
vn -0 0 -1
vn -0 0 -1
vn -0 0 -1
vn -0 0 -1
vn -0 0 -1
vn -0 0 -1
vn -0 0 -1
vn -0 0 -1
vn -0 0 -1
vn -0 0 -1
vn -0 0 -1
vn -0 0 -1
vn -0 0 -1
vn -0 0 -1
vn -0 0 -1
vn -0 0 -1
vn -0 0 -1
vn -0 0 -1
vn -0 0 -1
vn -0 0 -1
vn -0 0 -1
vn -0 0 -1
vn -0 0 -1
vn -0 0 -1
vn -0 0 -1
vn -0 0 -1
vn -0 0 -1
vn -0 0 -1
vn -0 0 -1
vn -0 0 -1
vn -0 0 -1
vn -0 0 -1
vn -0 0 -1
vn -0 0 -1
vn -0 0 -1
vn -0 0 -1
vn -0 0 -1
vn -0 0 -1
vn -0 0 -1
vn -0 0 -1
vn -0 0 -1
vn -0 0 -1
vn -0 0 -1
vn -0 0 -1
vn -0 0 -1
vn -0 0 -1
vn -0 0 -1
vn -0 0 -1
vn -0 0 -1
vn -0 0 -1
vn -0 0 -1
vn -0 0 -1
vn -0 0 -1
vn -0 0 -1
vn -0 0 -1
vn -0 0 -1
vn -0 0 -1
vn -0 0 -1
vn -0 0 -1
vn -0 0 -1
vn -0 0 -1
vn -0 0 -1
vn -0 0 -1
vn -0 0 -1
vn -0 0 -1
vn -0 0 -1
vn -0 0 -1
vn -0 0 -1
vn -0 0 -1
vn -0 0 -1
vn -0 0 -1
vn -0 0 -1
vn -0 0 -1
vn -0 0 -1
vn -0 0 -1
vn -0 0 -1
vn -0 0 -1
vn -0 0 -1
vn -0 0 -1
vn -0 0 -1
vn -0 0 -1
vn -0 0 -1
vn -0 0 -1
vn -0 0 -1
vn -0 0 -1
vn -0 0 -1
vn -0 0 -1
vn -0 0 -1
vn -0 0 -1
vn -0 0 -1
vn -0 0 -1
vn -0 0 -1
vn -0 0 -1
vn -0 0 -1
vn -0 0 -1
vn -0 0 -1
vn -0 0 -1
vn -0 0 -1
vn -0 0 -1
vn -0 0 -1
vn -0 0 -1
vn -0 0 -1
vn -0 0 -1
vn -0 0 -1
vn -0 0 -1
vn -0 0 -1
vn -0 0 -1
vn -0 0 -1
vn -0 0 -1
vn -0 0 -1
vn -0 0 -1
vn -0 0 -1
vn -0 0 -1
vn -0 0 -1
vn -0 0 -1
vn -0 0 -1
vn -0 0 -1
vn -0 0 -1
vn -0 0 -1
vn -0 0 -1
vn -0 0 -1
vn -0 0 -1
vn -0 0 -1
vn -0 0 -1
vn -0 0 -1
vn -0 0 -1
vn -0 0 -1
vn -0 0 -1
vn -0 0 -1
vn -0 0 -1
vn -0 0 -1
vn -0 0 -1
vn -0 0 -1
vn -0 0 -1
vn -0 0 -1
vn -0 0 -1
vn -0 0 -1
vn -0 0 -1
vn -0 0 -1
vn -0 0 -1
vn -0 0 -1
vn -0 0 -1
vn -0 0 -1
vn -0 0 -1
vn -0 0 -1
vn -0 0 -1
vn -0 0 -1
vn -0 0 -1
vn -0 0 -1
vn -0 0 -1
vn -0 0 -1
vn -0 0 -1
vn -0 0 -1
vn -0 0 -1
vn -0 0 -1
vn -0 0 -1
vn -0 0 -1
vn -0 0 -1
vn -0 0 -1
vn -0 0 -1
vn -0 0 -1
vn -0 0 -1
vn -0 0 -1
vn -0 0 -1
vn -0 0 -1
vn -0 0 -1
vn -0 0 -1
vn -0 0 -1
vn -0 0 -1
vn -0 0 -1
vn -0 0 -1
vn -0 0 -1
vn -0 0 -1
vn -0 0 -1
vn -0 0 -1
vn -0 0 -1
vn -0 0 -1
vn -0 0 -1
vn -0 0 -1
vn -0 0 -1
g L_UI_RareMark_Igaiga_a_0
f 3/3/3 2/2/2 1/1/1
f 1/1/1 4/4/4 3/3/3
f 5/5/5 4/4/4 1/1/1
f 6/6/6 5/5/5 1/1/1
f 6/6/6 1/1/1 7/7/7
f 8/8/8 7/7/7 1/1/1
f 2/2/2 9/9/9 1/1/1
f 10/10/10 8/8/8 1/1/1
f 1/1/1 9/9/9 11/11/11
f 10/10/10 1/1/1 12/12/12
f 9/9/9 13/13/13 11/11/11
f 14/14/14 10/10/10 12/12/12
f 11/11/11 13/13/13 15/15/15
f 13/13/13 16/16/16 15/15/15
f 16/16/16 17/17/17 15/15/15
f 17/17/17 18/18/18 15/15/15
f 14/14/14 12/12/12 19/19/19
f 20/20/20 14/14/14 19/19/19
f 21/21/21 20/20/20 19/19/19
f 22/22/22 21/21/21 19/19/19
f 18/18/18 23/23/23 15/15/15
f 24/24/24 22/22/22 19/19/19
f 23/23/23 25/25/25 15/15/15
f 26/26/26 24/24/24 19/19/19
f 25/25/25 27/27/27 15/15/15
f 28/28/28 26/26/26 19/19/19
f 15/15/15 27/27/27 29/29/29
f 29/29/29 30/30/30 15/15/15
f 30/30/30 31/31/31 15/15/15
f 15/15/15 31/31/31 32/32/32
f 31/31/31 33/33/33 32/32/32
f 28/28/28 19/19/19 34/34/34
f 35/35/35 34/34/34 19/19/19
f 36/36/36 35/35/35 19/19/19
f 36/36/36 19/19/19 37/37/37
f 38/38/38 36/36/36 37/37/37
f 32/32/32 33/33/33 39/39/39
f 33/33/33 40/40/40 39/39/39
f 40/40/40 41/41/41 39/39/39
f 41/41/41 42/42/42 39/39/39
f 42/42/42 43/43/43 39/39/39
f 38/38/38 37/37/37 44/44/44
f 45/45/45 38/38/38 44/44/44
f 46/46/46 45/45/45 44/44/44
f 47/47/47 46/46/46 44/44/44
f 48/48/48 47/47/47 44/44/44
f 43/43/43 49/49/49 39/39/39
f 50/50/50 48/48/48 44/44/44
f 49/49/49 51/51/51 39/39/39
f 52/52/52 50/50/50 44/44/44
f 51/51/51 53/53/53 39/39/39
f 54/54/54 52/52/52 44/44/44
f 53/53/53 55/55/55 39/39/39
f 55/55/55 56/56/56 39/39/39
f 56/56/56 57/57/57 39/39/39
f 57/57/57 58/58/58 39/39/39
f 57/57/57 59/59/59 58/58/58
f 59/59/59 60/60/60 58/58/58
f 59/59/59 61/61/61 60/60/60
f 61/61/61 62/62/62 60/60/60
f 63/63/63 60/60/60 62/62/62
f 64/64/64 54/54/54 44/44/44
f 65/65/65 64/64/64 44/44/44
f 66/66/66 65/65/65 44/44/44
f 67/67/67 66/66/66 44/44/44
f 68/68/68 66/66/66 67/67/67
f 69/69/69 68/68/68 67/67/67
f 70/70/70 68/68/68 69/69/69
f 71/71/71 70/70/70 69/69/69
f 69/69/69 72/72/72 71/71/71
f 63/63/63 73/73/73 60/60/60
f 74/74/74 72/72/72 69/69/69
f 73/73/73 75/75/75 60/60/60
f 76/76/76 74/74/74 69/69/69
f 75/75/75 77/77/77 60/60/60
f 78/78/78 76/76/76 69/69/69
f 77/77/77 79/79/79 60/60/60
f 79/79/79 80/80/80 60/60/60
f 80/80/80 81/81/81 60/60/60
f 81/81/81 82/82/82 60/60/60
f 81/81/81 83/83/83 82/82/82
f 83/83/83 84/84/84 82/82/82
f 83/83/83 85/85/85 84/84/84
f 85/85/85 86/86/86 84/84/84
f 87/87/87 78/78/78 69/69/69
f 88/88/88 87/87/87 69/69/69
f 89/89/89 88/88/88 69/69/69
f 90/90/90 89/89/89 69/69/69
f 91/91/91 89/89/89 90/90/90
f 84/84/84 91/91/91 90/90/90
f 92/92/92 84/84/84 86/86/86
f 93/93/93 91/91/91 84/84/84
f 92/92/92 94/94/94 84/84/84
f 95/95/95 93/93/93 84/84/84
f 94/94/94 96/96/96 84/84/84
f 84/84/84 96/96/96 95/95/95
g L_UI_RareMark_Igaiga_a_1
f 99/99/99 98/98/98 97/97/97
f 97/97/97 100/100/100 99/99/99
f 101/101/101 100/100/100 97/97/97
f 102/102/102 101/101/101 97/97/97
f 102/102/102 97/97/97 103/103/103
f 104/104/104 103/103/103 97/97/97
f 98/98/98 105/105/105 97/97/97
f 106/106/106 104/104/104 97/97/97
f 97/97/97 105/105/105 107/107/107
f 107/107/107 108/108/108 97/97/97
f 105/105/105 109/109/109 107/107/107
f 106/106/106 97/97/97 110/110/110
f 108/108/108 110/110/110 97/97/97
f 111/111/111 106/106/106 110/110/110
f 107/107/107 109/109/109 112/112/112
f 107/107/107 112/112/112 108/108/108
f 109/109/109 113/113/113 112/112/112
f 113/113/113 114/114/114 112/112/112
f 114/114/114 115/115/115 112/112/112
f 115/115/115 116/116/116 112/112/112
f 116/116/116 117/117/117 112/112/112
f 117/117/117 118/118/118 112/112/112
f 112/112/112 118/118/118 119/119/119
f 119/119/119 120/120/120 112/112/112
f 120/120/120 121/121/121 112/112/112
f 111/111/111 110/110/110 122/122/122
f 108/108/108 122/122/122 110/110/110
f 123/123/123 111/111/111 122/122/122
f 124/124/124 123/123/123 122/122/122
f 125/125/125 124/124/124 122/122/122
f 126/126/126 125/125/125 122/122/122
f 127/127/127 126/126/126 122/122/122
f 128/128/128 127/127/127 122/122/122
f 128/128/128 122/122/122 129/129/129
f 130/130/130 129/129/129 122/122/122
f 131/131/131 130/130/130 122/122/122
f 112/112/112 121/121/121 132/132/132
f 132/132/132 108/108/108 112/112/112
f 121/121/121 133/133/133 132/132/132
f 131/131/131 122/122/122 134/134/134
f 108/108/108 134/134/134 122/122/122
f 135/135/135 131/131/131 134/134/134
f 132/132/132 133/133/133 136/136/136
f 132/132/132 136/136/136 108/108/108
f 108/108/108 137/137/137 134/134/134
f 135/135/135 134/134/134 137/137/137
f 108/108/108 136/136/136 138/138/138
f 133/133/133 139/139/139 136/136/136
f 139/139/139 140/140/140 136/136/136
f 140/140/140 141/141/141 136/136/136
f 141/141/141 142/142/142 136/136/136
f 143/143/143 135/135/135 137/137/137
f 144/144/144 143/143/143 137/137/137
f 145/145/145 144/144/144 137/137/137
f 146/146/146 145/145/145 137/137/137
f 147/147/147 146/146/146 137/137/137
f 142/142/142 148/148/148 136/136/136
f 149/149/149 147/147/147 137/137/137
f 148/148/148 150/150/150 136/136/136
f 151/151/151 149/149/149 137/137/137
f 150/150/150 152/152/152 136/136/136
f 153/153/153 151/151/151 137/137/137
f 152/152/152 154/154/154 136/136/136
f 154/154/154 155/155/155 136/136/136
f 155/155/155 156/156/156 136/136/136
f 157/157/157 153/153/153 137/137/137
f 156/156/156 138/138/138 136/136/136
f 158/158/158 157/157/157 137/137/137
f 156/156/156 159/159/159 138/138/138
f 160/160/160 158/158/158 137/137/137
f 161/161/161 158/158/158 160/160/160
f 160/160/160 137/137/137 108/108/108
f 159/159/159 162/162/162 138/138/138
f 108/108/108 138/138/138 162/162/162
f 159/159/159 163/163/163 162/162/162
f 163/163/163 164/164/164 162/162/162
f 165/165/165 162/162/162 164/164/164
f 165/165/165 166/166/166 162/162/162
f 166/166/166 167/167/167 162/162/162
f 167/167/167 168/168/168 162/162/162
f 168/168/168 169/169/169 162/162/162
f 169/169/169 170/170/170 162/162/162
f 170/170/170 171/171/171 162/162/162
f 172/172/172 161/161/161 160/160/160
f 160/160/160 108/108/108 172/172/172
f 173/173/173 161/161/161 172/172/172
f 174/174/174 173/173/173 172/172/172
f 172/172/172 175/175/175 174/174/174
f 176/176/176 175/175/175 172/172/172
f 177/177/177 176/176/176 172/172/172
f 178/178/178 177/177/177 172/172/172
f 179/179/179 178/178/178 172/172/172
f 180/180/180 179/179/179 172/172/172
f 181/181/181 180/180/180 172/172/172
f 171/171/171 182/182/182 162/162/162
f 108/108/108 162/162/162 182/182/182
f 171/171/171 183/183/183 182/182/182
f 184/184/184 181/181/181 172/172/172
f 184/184/184 172/172/172 108/108/108
f 185/185/185 181/181/181 184/184/184
f 183/183/183 186/186/186 182/182/182
f 108/108/108 182/182/182 186/186/186
f 184/184/184 108/108/108 186/186/186
f 186/186/186 185/185/185 184/184/184
f 183/183/183 187/187/187 186/186/186
f 188/188/188 185/185/185 186/186/186
f 187/187/187 189/189/189 186/186/186
f 190/190/190 188/188/188 186/186/186
f 191/191/191 186/186/186 189/189/189
f 186/186/186 192/192/192 190/190/190
f 191/191/191 193/193/193 186/186/186
f 193/193/193 192/192/192 186/186/186
