g L_UI_RareMark_Crown_a
v 0.0015287459 0.00887941 -0.00010531704
v 0.00085264444 0.009181879 -0.00010531704
v 0.0019894184 0.008428928 -0.00010531704
v 0.004982346 0.0031802699 -0.00010531704
v 0.0005758524 0.009235813 -0.00010531704
v 0.0003150642 0.009237652 -0.00010531704
v 8.146167E-05 0.009239298 -0.00010531741
v -0.00039105417 0.009143569 -0.00010531704
v -0.0009787738 0.008814675 -0.00010531741
v 0.0003150642 0.007172094 -0.00010531704
v -0.0013865948 0.008394018 -0.00010531704
v -0.004376775 0.0031802708 -0.00010531704
v 0.004053682 0.0006522156 -0.00010531704
v 0.011838085 0.0035577335 -0.00010531704
v -0.0034367323 0.0006522164 -0.00010531704
v -0.01188581 0.0035577335 -0.00010531704
v 0.011295981 0.005541733 -0.00010531704
v -0.011128849 0.0054912865 -0.00010531704
v 0.011925763 0.0056319344 -0.00010531704
v -0.011758215 0.0056319344 -0.00010531704
v 0.012398625 0.0055573597 -0.00010531704
v -0.012090772 0.0056319344 -0.00010531704
v 0.012882084 0.005359407 -0.00010531704
v 0.013214189 0.0051225335 -0.00010531704
v 0.013388211 0.004973404 -0.00010531704
v 0.013754345 0.004437101 -0.00010531704
v 0.013832891 0.0042467094 -0.00010531704
v -0.012678421 0.0054754927 -0.00010531704
v -0.013219929 0.0051546455 -0.00010531704
v -0.0135968095 0.0047324584 -0.00010531704
v -0.013779813 0.004358537 -0.00010531704
v -0.013947564 0.0037537718 -0.00010531704
v 0.013933194 0.0036841275 -0.00010531704
v -0.013947564 0.0035577335 -0.00010531704
v 0.013938988 0.0035577335 -0.00010531704
v -0.013947564 0.0033690021 -0.00010531704
v 0.013947568 0.0033708394 -0.00010531704
v -0.013892186 0.0031802708 -0.00010531704
v 0.01390059 0.0031802708 -0.00010531704
v 0.013687143 0.0025584274 -0.00010531704
v 0.008709329 -0.004609243 -0.00010531704
v -0.013815427 0.002844693 -0.00010531704
v -0.01366691 0.0025384047 -0.00010531741
v -0.008117515 -0.004609243 -0.00010531704
v 0.0066101314 -0.0039935894 -0.00010531704
v -0.005980402 -0.0039935894 -0.00010531704
v 0.008717564 -0.0046438477 -0.00010535355
v 0.009671563 -0.0065568276 -0.00010531704
v 0.009737265 -0.0069700438 -0.00010531704
v 0.009763506 -0.0071350983 -0.00010531667
v 0.009668136 -0.0077927113 -0.00010531704
v 0.009547621 -0.0080642905 -0.00010531704
v 0.009254045 -0.008515454 -0.00010531704
v 0.008915544 -0.008843834 -0.00010531704
v 0.00832839 -0.009128651 -0.00010531704
v -0.008957947 -0.0063572503 -0.00010531704
v 0.0076455 -0.0071350983 -0.00010531704
v 0.0077933194 -0.009239298 -0.00010531704
v 0.0075517776 -0.009239298 -0.00010531704
v 0.0003150642 -0.0069700438 -0.00010531704
v 0.0066740513 -0.0052154795 -0.00010531704
v 0.0003150642 -0.0048221904 -0.00010531704
v -0.0069902064 -0.0071350983 -0.00010531667
v 0.0003150642 -0.0030940042 -0.00010531704
v 0.0003150642 -0.0018740162 -0.00010531704
v -0.0060443166 -0.0052154795 -0.00010531704
v -0.006440282 -0.009139715 -0.00010531667
v -0.009116727 -0.0069700438 -0.00010531704
v -0.006959474 -0.009239298 -0.00010531667
v -0.0073248385 -0.009239298 -0.00010531704
v -0.009119362 -0.0071350983 -0.0001053163
v -0.007917357 -0.0090613635 -0.00010531704
v -0.008366883 -0.008787569 -0.00010531704
v -0.008694435 -0.008453726 -0.00010531667
v -0.009122766 -0.0073480434 -0.0001053163
v -0.0091134375 -0.007443203 -0.0001053163
v -0.008967924 -0.007964031 -0.0001053163
v 0.0015134573 0.008790615 0.00010535297
v 0.00084411504 0.009090061 0.00010535297
v 0.0019695223 0.00834464 0.00010535297
v 0.004932523 0.003148467 0.00010535297
v 0.0005700886 0.009143456 0.00010535297
v 0.0003119111 0.009145275 0.00010535297
v 8.0645084E-05 0.0091469055 0.0001053526
v -0.0003871441 0.009052134 0.00010535297
v -0.0009689868 0.008726529 0.0001053526
v 0.0003119111 0.0071003735 0.00010535297
v -0.0013727307 0.008310079 0.00010535297
v -0.0043330076 0.003148468 0.00010535297
v 0.004013145 0.0006456934 0.00010535297
v 0.011719701 0.0035221563 0.00010535297
v 0.011183018 0.0054863156 0.00010535297
v 0.011806503 0.0055756154 0.00010535297
v 0.012274635 0.005501786 0.00010535297
v 0.01275326 0.005305813 0.00010535297
v 0.013082045 0.005071308 0.00010535297
v 0.013254327 0.00492367 0.00010535297
v 0.0136167975 0.0043927305 0.00010535297
v 0.013694561 0.004204243 0.00010535297
v 0.013793859 0.0036472864 0.00010535297
v 0.013799596 0.0035221563 0.00010535297
v 0.013808089 0.0033371316 0.00010535297
v 0.013761583 0.003148468 0.00010535297
v 0.013550269 0.0025328435 0.00010535297
v 0.008622236 -0.0045631505 0.00010535297
v 0.00654403 -0.0039536534 0.00010535297
v 0.008630387 -0.0045974087 0.00010531683
v 0.009574845 -0.0064912597 0.00010535297
v 0.009639889 -0.0069003426 0.00010535297
v 0.009665868 -0.0070637474 0.00010535334
v 0.009571451 -0.0077147842 0.00010535297
v 0.009452144 -0.007983647 0.00010535297
v 0.009161502 -0.008430298 0.00010535297
v 0.008826387 -0.008755394 0.00010535297
v 0.008245105 -0.009037363 0.00010535297
v 0.007569045 -0.0070637474 0.00010535297
v 0.0077153863 -0.0091469055 0.00010535297
v 0.0074762586 -0.0091469055 0.00010535297
v 0.0003119111 -0.0069003426 0.00010535297
v 0.006607306 -0.0051633245 0.00010535297
v 0.0003119111 -0.0047739684 0.00010535297
v -0.006920308 -0.0070637474 0.00010535334
v -0.006375879 -0.009048318 0.00010535334
v -0.0068898797 -0.0091469055 0.00010535334
v -0.0072515905 -0.0091469055 0.00010535297
v 0.0003119111 -0.0030630638 0.00010535297
v 0.006607306 -0.0051633245 0.00010535297
v 0.007569045 -0.0070637474 0.00010535297
v -0.0059838775 -0.0051633245 0.00010535297
v -0.009028173 -0.0070637474 0.00010535371
v -0.007838184 -0.0089707505 0.00010535297
v -0.008283216 -0.008699693 0.00010535297
v -0.008607495 -0.008369188 0.00010535334
v -0.009025562 -0.0069003426 0.00010535297
v -0.009031541 -0.007274564 0.00010535371
v -0.009022308 -0.007368771 0.00010535371
v -0.008878249 -0.007884391 0.00010535371
v -0.0088683665 -0.0062936777 0.00010535297
v -0.0059838775 -0.0051633245 0.00010535297
v -0.005920601 -0.0039536534 0.00010535297
v -0.00803634 -0.0045631505 0.00010535297
v -0.011766952 0.0035221563 0.00010535297
v 0.0003119111 -0.0018552758 0.00010535297
v -0.013530242 0.0025130205 0.0001053526
v -0.013677276 0.0028162457 0.00010535297
v -0.013753265 0.003148468 0.00010535297
v -0.013808089 0.003335312 0.00010535297
v -0.013808089 0.0035221563 0.00010535297
v -0.013808089 0.0037162341 0.00010535297
v -0.01364202 0.0043149516 0.00010535297
v -0.013460845 0.0046851337 0.00010535297
v -0.013087732 0.0051030996 0.00010535297
v -0.012551642 0.0054207384 0.00010535297
v -0.011969864 0.0055756154 0.00010535297
v -0.0116406325 0.0055756154 0.00010535297
v -0.011017561 0.0054363743 0.00010535297
v -0.0034023703 0.00064569415 0.00010535297
v -0.005920601 -0.0039536534 0.00010535297
v -0.011766952 0.0035221563 0.00010535297
v 0.011719701 0.0035221563 0.00010535297
vt 0.47216797 0.71191406
vt 0.49023438 0.71972656
vt 0.45996094 0.69970703
vt 0.38012695 0.55810547
vt 0.4975586 0.7211914
vt 0.50439453 0.7211914
vt 0.5107422 0.7211914
vt 0.5234375 0.71875
vt 0.5390625 0.70996094
vt 0.50439453 0.66552734
vt 0.5498047 0.69873047
vt 0.6298828 0.55810547
vt 0.40478516 0.4897461
vt 0.19714355 0.5683594
vt 0.6044922 0.4897461
vt 0.8300781 0.5683594
vt 0.21154785 0.62158203
vt 0.8100586 0.6201172
vt 0.19482422 0.62402344
vt 0.82666016 0.62402344
vt 0.1821289 0.6220703
vt 0.8354492 0.62402344
vt 0.16931152 0.6166992
vt 0.16040039 0.61035156
vt 0.15576172 0.6064453
vt 0.1459961 0.5917969
vt 0.1439209 0.58691406
vt 0.8510742 0.6201172
vt 0.86572266 0.6113281
vt 0.87597656 0.60009766
vt 0.8808594 0.58984375
vt 0.8852539 0.5732422
vt 0.14123535 0.57177734
vt 0.8852539 0.5683594
vt 0.14111328 0.5683594
vt 0.8852539 0.5629883
vt 0.14086914 0.5629883
vt 0.88378906 0.55810547
vt 0.14208984 0.55810547
vt 0.14782715 0.5410156
vt 0.28051758 0.3479004
vt 0.88183594 0.5488281
vt 0.8779297 0.54052734
vt 0.7294922 0.36767578
vt 0.33666992 0.38427734
vt 0.6723633 0.38427734
vt 0.28051758 0.34692383
vt 0.2548828 0.29541016
vt 0.25317383 0.28442383
vt 0.2524414 0.27978516
vt 0.25512695 0.26220703
vt 0.25830078 0.2548828
vt 0.26611328 0.24267578
vt 0.27514648 0.23376465
vt 0.29077148 0.22607422
vt 0.7519531 0.30078125
vt 0.30908203 0.27978516
vt 0.30517578 0.22314453
vt 0.31152344 0.22314453
vt 0.50439453 0.28442383
vt 0.33496094 0.33154297
vt 0.50439453 0.34228516
vt 0.69970703 0.27978516
vt 0.50439453 0.38891602
vt 0.50439453 0.44140625
vt 0.6743164 0.33154297
vt 0.6850586 0.22583008
vt 0.75634766 0.28442383
vt 0.69873047 0.22314453
vt 0.7084961 0.22314453
vt 0.75634766 0.27978516
vt 0.7241211 0.22790527
vt 0.7363281 0.23535156
vt 0.7451172 0.2442627
vt 0.75634766 0.27416992
vt 0.75634766 0.27148438
vt 0.7524414 0.25756836
vt 0.47216797 0.71191406
vt 0.49023438 0.71972656
vt 0.45996094 0.69970703
vt 0.38012695 0.55810547
vt 0.4975586 0.7211914
vt 0.50439453 0.7211914
vt 0.5107422 0.7211914
vt 0.5234375 0.71875
vt 0.5390625 0.70996094
vt 0.50439453 0.66552734
vt 0.5498047 0.69873047
vt 0.6298828 0.55810547
vt 0.40478516 0.4897461
vt 0.19714355 0.5683594
vt 0.21154785 0.62158203
vt 0.19482422 0.62402344
vt 0.1821289 0.6220703
vt 0.16931152 0.6166992
vt 0.16040039 0.61035156
vt 0.15576172 0.6064453
vt 0.1459961 0.5917969
vt 0.1439209 0.58691406
vt 0.14123535 0.57177734
vt 0.14111328 0.5683594
vt 0.14086914 0.5629883
vt 0.14208984 0.55810547
vt 0.14782715 0.5410156
vt 0.28051758 0.3479004
vt 0.33666992 0.38427734
vt 0.28051758 0.34692383
vt 0.2548828 0.29541016
vt 0.25317383 0.28442383
vt 0.2524414 0.27978516
vt 0.25512695 0.26220703
vt 0.25830078 0.2548828
vt 0.26611328 0.24267578
vt 0.27514648 0.23376465
vt 0.29077148 0.22607422
vt 0.30908203 0.27978516
vt 0.30517578 0.22314453
vt 0.31152344 0.22314453
vt 0.50439453 0.28442383
vt 0.33496094 0.33154297
vt 0.50439453 0.34228516
vt 0.69970703 0.27978516
vt 0.6850586 0.22583008
vt 0.69873047 0.22314453
vt 0.7084961 0.22314453
vt 0.50439453 0.38891602
vt 0.33496094 0.33154297
vt 0.30908203 0.27978516
vt 0.6743164 0.33154297
vt 0.75634766 0.27978516
vt 0.7241211 0.22790527
vt 0.7363281 0.23535156
vt 0.7451172 0.2442627
vt 0.75634766 0.28442383
vt 0.75634766 0.27416992
vt 0.75634766 0.27148438
vt 0.7524414 0.25756836
vt 0.7519531 0.30078125
vt 0.6743164 0.33154297
vt 0.6723633 0.38427734
vt 0.7294922 0.36767578
vt 0.8300781 0.5683594
vt 0.50439453 0.44140625
vt 0.8779297 0.54052734
vt 0.88183594 0.5488281
vt 0.88378906 0.55810547
vt 0.8852539 0.5629883
vt 0.8852539 0.5683594
vt 0.8852539 0.5732422
vt 0.8808594 0.58984375
vt 0.87597656 0.60009766
vt 0.86572266 0.6113281
vt 0.8510742 0.6201172
vt 0.8354492 0.62402344
vt 0.82666016 0.62402344
vt 0.8100586 0.6201172
vt 0.6044922 0.4897461
vt 0.6723633 0.38427734
vt 0.8300781 0.5683594
vt 0.19714355 0.5683594
vn -0 0 -1
vn -0 0 -1
vn -0 0 -1
vn -0 0 -1
vn -0 0 -1
vn 1.0728836E-06 0 -1
vn -0 0 -1
vn -0 0 -1
vn -0 0 -1
vn -0 0 -1
vn -0 0 -1
vn -0 0 -1
vn -0 0 -1
vn -0 0 -1
vn -0 0 -1
vn -0 0 -1
vn -0 0 -1
vn -0 0 -1
vn -0 0 -1
vn -0 0 -1
vn -0 0 -1
vn -0 0 -1
vn -0 0 -1
vn -0 0 -1
vn -0 0 -1
vn -0 0 -1
vn -0 0 -1
vn -0 0 -1
vn -0 0 -1
vn -0 0 -1
vn -0 0 -1
vn -0 0 -1
vn -0 0 -1
vn -0 0 -1
vn -0 0 -1
vn -0 0 -1
vn -0 0 -1
vn -0 0 -1
vn -0 0 -1
vn -0 0 -1
vn 1.3113022E-06 4.4703484E-06 -1
vn -0 0 -1
vn -0 0 -1
vn -0 0 -1
vn -0 -1.013279E-06 -1
vn -0 0 -1
vn -2.4318695E-05 -2.259016E-05 -1
vn -9.4771385E-06 -1.13248825E-05 -1
vn -1.5497208E-06 -1.6093254E-06 -1
vn -0 0 -1
vn -0 0 -1
vn -0 0 -1
vn -0 0 -1
vn -0 0 -1
vn -0 0 -1
vn -0 0 -1
vn -0 0 -1
vn -0 0 -1
vn -0 0 -1
vn -0 0 -1
vn -0 0 -1
vn -0 0 -1
vn -0 0 -1
vn -0 0 -1
vn -0 0 -1
vn -0 0 -1
vn -0 0 -1
vn -0 -1.013279E-06 -1
vn -0 0 -1
vn -0 0 -1
vn -0 0 -1
vn -0 0 -1
vn -0 0 -1
vn -1.2516975E-06 0 -1
vn -0 0 -1
vn -1.4901161E-06 0 -1
vn -2.8014183E-06 0 -1
vn -0 0 -1
vn -0 0 -1
vn -0 0 -1
vn -0 0 -1
vn -0 0 -1
vn 1.1324883E-06 0 -1
vn -0 0 -1
vn -0 0 -1
vn -0 0 -1
vn -0 0 -1
vn -0 0 -1
vn -0 0 -1
vn -0 0 -1
vn -0 0 -1
vn -0 0 -1
vn -0 0 -1
vn -0 0 -1
vn -0 0 -1
vn -0 0 -1
vn -0 0 -1
vn -0 0 -1
vn -0 0 -1
vn -0 0 -1
vn -0 0 -1
vn -0 0 -1
vn -0 0 -1
vn -0 0 -1
vn 1.3113022E-06 4.4703484E-06 -1
vn -0 -1.013279E-06 -1
vn -2.425909E-05 -2.259016E-05 -1
vn -9.536743E-06 -1.13248825E-05 -1
vn -1.4305115E-06 -1.6093254E-06 -1
vn -0 0 -1
vn -0 0 -1
vn -0 0 -1
vn -0 0 -1
vn -0 0 -1
vn -0 0 -1
vn -0 0 -1
vn -0 0 -1
vn -0 0 -1
vn -0 0 -1
vn -0 0 -1
vn -0 0 -1
vn -0 0 -1
vn -0 0 -1
vn -0 0 -1
vn -0 0 -1
vn -0 0 -1
vn -0 0 -1
vn -0 0 -1
vn -0 0 -1
vn -0 0 -1
vn -0 0 -1
vn -0 0 -1
vn -1.3113022E-06 0 -1
vn -0 -1.0728836E-06 -1
vn -0 0 -1
vn -1.1324883E-06 0 -1
vn -2.861023E-06 0 -1
vn -0 0 -1
vn -0 0 -1
vn -0 0 -1
vn -0 0 -1
vn -0 0 -1
vn -0 0 -1
vn -0 0 -1
vn -0 0 -1
vn -0 0 -1
vn -0 0 -1
vn -0 0 -1
vn -0 0 -1
vn -0 0 -1
vn -0 0 -1
vn -0 0 -1
vn -0 0 -1
vn -0 0 -1
vn -0 0 -1
vn -0 0 -1
vn -0 0 -1
vn -0 0 -1
vn -0 0 -1
vn -0 0 -1
g L_UI_RareMark_Crown_a_0
f 3/3/3 2/2/2 1/1/1
f 4/4/4 2/2/2 3/3/3
f 4/4/4 5/5/5 2/2/2
f 4/4/4 6/6/6 5/5/5
f 4/4/4 7/7/7 6/6/6
f 4/4/4 8/8/8 7/7/7
f 4/4/4 9/9/9 8/8/8
f 4/4/4 10/10/10 9/9/9
f 10/10/10 11/11/11 9/9/9
f 10/10/10 12/12/12 11/11/11
f 4/4/4 13/13/13 10/10/10
f 4/4/4 14/14/14 13/13/13
f 15/15/15 12/12/12 10/10/10
f 16/16/16 12/12/12 15/15/15
f 17/17/17 14/14/14 4/4/4
f 16/16/16 18/18/18 12/12/12
f 19/19/19 14/14/14 17/17/17
f 16/16/16 20/20/20 18/18/18
f 21/21/21 14/14/14 19/19/19
f 16/16/16 22/22/22 20/20/20
f 23/23/23 14/14/14 21/21/21
f 24/24/24 14/14/14 23/23/23
f 25/25/25 14/14/14 24/24/24
f 26/26/26 14/14/14 25/25/25
f 27/27/27 14/14/14 26/26/26
f 16/16/16 28/28/28 22/22/22
f 16/16/16 29/29/29 28/28/28
f 16/16/16 30/30/30 29/29/29
f 16/16/16 31/31/31 30/30/30
f 16/16/16 32/32/32 31/31/31
f 33/33/33 14/14/14 27/27/27
f 16/16/16 34/34/34 32/32/32
f 35/35/35 14/14/14 33/33/33
f 16/16/16 36/36/36 34/34/34
f 37/37/37 14/14/14 35/35/35
f 16/16/16 38/38/38 36/36/36
f 39/39/39 14/14/14 37/37/37
f 40/40/40 14/14/14 39/39/39
f 41/41/41 14/14/14 40/40/40
f 16/16/16 42/42/42 38/38/38
f 16/16/16 43/43/43 42/42/42
f 16/16/16 44/44/44 43/43/43
f 41/41/41 45/45/45 14/14/14
f 46/46/46 44/44/44 16/16/16
f 47/47/47 45/45/45 41/41/41
f 48/48/48 45/45/45 47/47/47
f 49/49/49 45/45/45 48/48/48
f 50/50/50 45/45/45 49/49/49
f 51/51/51 45/45/45 50/50/50
f 52/52/52 45/45/45 51/51/51
f 53/53/53 45/45/45 52/52/52
f 54/54/54 45/45/45 53/53/53
f 55/55/55 45/45/45 54/54/54
f 46/46/46 56/56/56 44/44/44
f 57/57/57 45/45/45 55/55/55
f 58/58/58 57/57/57 55/55/55
f 59/59/59 57/57/57 58/58/58
f 60/60/60 57/57/57 59/59/59
f 61/61/61 45/45/45 57/57/57
f 60/60/60 62/62/62 57/57/57
f 60/60/60 63/63/63 62/62/62
f 64/64/64 45/45/45 61/61/61
f 64/64/64 65/65/65 45/45/45
f 64/64/64 46/46/46 65/65/65
f 66/66/66 46/46/46 64/64/64
f 66/66/66 56/56/56 46/46/46
f 63/63/63 56/56/56 66/66/66
f 67/67/67 63/63/63 60/60/60
f 63/63/63 68/68/68 56/56/56
f 69/69/69 63/63/63 67/67/67
f 70/70/70 63/63/63 69/69/69
f 63/63/63 71/71/71 68/68/68
f 70/70/70 71/71/71 63/63/63
f 72/72/72 71/71/71 70/70/70
f 73/73/73 71/71/71 72/72/72
f 74/74/74 71/71/71 73/73/73
f 74/74/74 75/75/75 71/71/71
f 74/74/74 76/76/76 75/75/75
f 77/77/77 76/76/76 74/74/74
g L_UI_RareMark_Crown_a_1
f 80/80/80 79/79/79 78/78/78
f 81/81/81 79/79/79 80/80/80
f 81/81/81 82/82/82 79/79/79
f 81/81/81 83/83/83 82/82/82
f 81/81/81 84/84/84 83/83/83
f 81/81/81 85/85/85 84/84/84
f 81/81/81 86/86/86 85/85/85
f 81/81/81 87/87/87 86/86/86
f 87/87/87 88/88/88 86/86/86
f 87/87/87 89/89/89 88/88/88
f 81/81/81 90/90/90 87/87/87
f 81/81/81 91/91/91 90/90/90
f 92/92/92 91/91/91 81/81/81
f 93/93/93 91/91/91 92/92/92
f 94/94/94 91/91/91 93/93/93
f 95/95/95 91/91/91 94/94/94
f 96/96/96 91/91/91 95/95/95
f 97/97/97 91/91/91 96/96/96
f 98/98/98 91/91/91 97/97/97
f 99/99/99 91/91/91 98/98/98
f 100/100/100 91/91/91 99/99/99
f 101/101/101 91/91/91 100/100/100
f 102/102/102 91/91/91 101/101/101
f 103/103/103 91/91/91 102/102/102
f 104/104/104 91/91/91 103/103/103
f 105/105/105 91/91/91 104/104/104
f 105/105/105 106/106/106 91/91/91
f 107/107/107 106/106/106 105/105/105
f 108/108/108 106/106/106 107/107/107
f 109/109/109 106/106/106 108/108/108
f 110/110/110 106/106/106 109/109/109
f 111/111/111 106/106/106 110/110/110
f 112/112/112 106/106/106 111/111/111
f 113/113/113 106/106/106 112/112/112
f 114/114/114 106/106/106 113/113/113
f 115/115/115 106/106/106 114/114/114
f 116/116/116 106/106/106 115/115/115
f 117/117/117 116/116/116 115/115/115
f 118/118/118 116/116/116 117/117/117
f 119/119/119 116/116/116 118/118/118
f 120/120/120 106/106/106 116/116/116
f 119/119/119 121/121/121 116/116/116
f 119/119/119 122/122/122 121/121/121
f 123/123/123 122/122/122 119/119/119
f 124/124/124 122/122/122 123/123/123
f 125/125/125 122/122/122 124/124/124
f 126/126/126 106/106/106 120/120/120
f 121/121/121 126/126/126 127/127/127
f 121/121/121 127/127/127 128/128/128
f 129/129/129 121/121/121 122/122/122
f 126/126/126 121/121/121 129/129/129
f 125/125/125 130/130/130 122/122/122
f 131/131/131 130/130/130 125/125/125
f 132/132/132 130/130/130 131/131/131
f 133/133/133 130/130/130 132/132/132
f 122/122/122 130/130/130 134/134/134
f 133/133/133 135/135/135 130/130/130
f 133/133/133 136/136/136 135/135/135
f 137/137/137 136/136/136 133/133/133
f 122/122/122 134/134/134 138/138/138
f 122/122/122 138/138/138 139/139/139
f 139/139/139 138/138/138 140/140/140
f 139/139/139 140/140/140 126/126/126
f 140/140/140 138/138/138 141/141/141
f 140/140/140 141/141/141 142/142/142
f 126/126/126 140/140/140 143/143/143
f 142/142/142 141/141/141 144/144/144
f 142/142/142 144/144/144 145/145/145
f 142/142/142 145/145/145 146/146/146
f 142/142/142 146/146/146 147/147/147
f 142/142/142 147/147/147 148/148/148
f 142/142/142 148/148/148 149/149/149
f 142/142/142 149/149/149 150/150/150
f 142/142/142 150/150/150 151/151/151
f 142/142/142 151/151/151 152/152/152
f 142/142/142 152/152/152 153/153/153
f 142/142/142 153/153/153 154/154/154
f 142/142/142 154/154/154 155/155/155
f 142/142/142 155/155/155 156/156/156
f 142/142/142 156/156/156 89/89/89
f 142/142/142 89/89/89 157/157/157
f 157/157/157 89/89/89 87/87/87
f 90/90/90 157/157/157 87/87/87
f 143/143/143 157/157/157 90/90/90
f 157/157/157 143/143/143 158/158/158
f 157/157/157 158/158/158 159/159/159
f 143/143/143 90/90/90 106/106/106
f 126/126/126 143/143/143 106/106/106
f 106/106/106 90/90/90 160/160/160
