g L_UI_RareMark_Diamond_a
v 2.9802324E-10 0.009532831 -8.579105E-05
v 2.9802324E-10 0.011627651 -8.579105E-05
v -0.0005672595 0.011572691 -8.579046E-05
v -0.0010556934 0.011393892 -8.579016E-05
v -0.0013835666 0.0111809885 -8.579046E-05
v -0.0017712351 0.010805768 -8.579046E-05
v -0.0068178936 0 -8.5791355E-05
v -0.008664665 0.0011673247 -8.579016E-05
v -0.008911324 0.0006275523 -8.579016E-05
v -0.008985834 0.00025544167 -8.579046E-05
v -0.008982053 0 -8.5791355E-05
v 2.9802324E-10 0.009532831 -8.579105E-05
v 0.00056726014 0.011572691 -8.5791355E-05
v 2.9802324E-10 0.011627651 -8.579105E-05
v 0.001055694 0.011393892 -8.5791355E-05
v 0.0013835671 0.0111809885 -8.579105E-05
v 0.0017712358 0.010805768 -8.579105E-05
v 0.0068178945 0 -8.5791355E-05
v 0.008664663 0.0011673247 -8.5791355E-05
v 0.008911324 0.0006275523 -8.5791355E-05
v 0.008985837 0.00025544167 -8.579105E-05
v 0.008982056 0 -8.5791355E-05
v 2.9802324E-10 -0.009532831 -8.5791355E-05
v -0.0005672595 -0.011572691 -8.5791944E-05
v 2.9802324E-10 -0.011627651 -8.5791355E-05
v -0.0010556934 -0.011393892 -8.579254E-05
v -0.0013835666 -0.0111809885 -8.579224E-05
v -0.0017712351 -0.010805768 -8.579224E-05
v -0.0068178936 0 -8.5791355E-05
v -0.008664665 -0.0011673247 -8.579254E-05
v -0.008911324 -0.0006275523 -8.579254E-05
v -0.008985834 -0.00025544167 -8.579224E-05
v -0.008982053 0 -8.5791355E-05
v 2.9802324E-10 -0.009532831 -8.5791355E-05
v 2.9802324E-10 -0.011627651 -8.5791355E-05
v 0.00056726014 -0.011572691 -8.5791355E-05
v 0.001055694 -0.011393892 -8.5791355E-05
v 0.0013835671 -0.0111809885 -8.579165E-05
v 0.0017712358 -0.010805768 -8.579165E-05
v 0.0068178945 0 -8.5791355E-05
v 0.008664663 -0.0011673247 -8.5791355E-05
v 0.008911324 -0.0006275523 -8.5791355E-05
v 0.008985837 -0.00025544167 -8.579165E-05
v 0.008982056 0 -8.5791355E-05
v 0.006749715 0 0.000119723976
v 0.00882221 -0.0006212768 0.000119723976
v 0.008895978 -0.00025288726 0.000119723976
v 0.008578017 -0.0011556515 0.000119723976
v 0.008892235 0 0.000119723976
v 0.008895978 0.00025288726 0.000119724566
v 0.00882221 0.0006212768 0.000119723976
v 0.008578017 0.0011556515 0.000119723976
v 0.0017535236 -0.01069771 0.000119723976
v 0.0017535236 0.01069771 0.000119724566
v 2.9802324E-10 -0.009437503 0.000119723976
v 0.0013697317 -0.011069179 0.000119723976
v 0.0010451367 -0.011279953 0.000119723976
v 0.00056158815 -0.011456963 0.000119723976
v 2.9802324E-10 -0.011511373 0.000119723976
v -0.0005615875 -0.011456963 0.000119723685
v -0.0010451361 -0.011279953 0.00011972308
v -0.0013697312 -0.011069179 0.00011972338
v -0.001753523 -0.01069771 0.00011972338
v 2.9802324E-10 0.009437503 0.000119724566
v 0.0013697317 0.011069179 0.000119724566
v 0.0010451367 0.011279953 0.000119723976
v 0.00056158815 0.011456963 0.000119723976
v 2.9802324E-10 0.011511373 0.000119724566
v -0.0005615875 0.011456963 0.00011972518
v -0.0010451361 0.011279953 0.00011972518
v -0.0013697312 0.011069179 0.00011972518
v -0.001753523 0.01069771 0.00011972518
v 2.9802324E-10 0 0.000119724566
v -0.0067497157 0 0.000119723976
v -0.008578019 -0.0011556515 0.00011972308
v -0.008578019 0.0011556515 0.00011972518
v -0.008822209 -0.0006212768 0.00011972308
v -0.008822209 0.0006212768 0.00011972518
v -0.0088959765 -0.00025288726 0.00011972338
v -0.0088959765 0.00025288726 0.00011972518
v -0.0088922335 0 0.000119723976
vt 0.5 0.90966797
vt 0.5 1
vt 0.47583008 0.9975586
vt 0.45507812 0.9902344
vt 0.44091797 0.98095703
vt 0.4243164 0.96484375
vt 0.20739746 0.5
vt 0.12902832 0.55029297
vt 0.11846924 0.52734375
vt 0.115234375 0.51123047
vt 0.11529541 0.5
vt 0.5 0.90966797
vt 0.47583008 0.9975586
vt 0.5 1
vt 0.45507812 0.9902344
vt 0.44091797 0.98095703
vt 0.4243164 0.96484375
vt 0.20739746 0.5
vt 0.12902832 0.55029297
vt 0.11846924 0.52734375
vt 0.115234375 0.51123047
vt 0.11529541 0.5
vt 0.5 0.90966797
vt 0.47583008 0.9975586
vt 0.5 1
vt 0.45507812 0.9902344
vt 0.44091797 0.98095703
vt 0.4243164 0.96484375
vt 0.20739746 0.5
vt 0.12902832 0.55029297
vt 0.11846924 0.52734375
vt 0.115234375 0.51123047
vt 0.11529541 0.5
vt 0.5 0.90966797
vt 0.5 1
vt 0.47583008 0.9975586
vt 0.45507812 0.9902344
vt 0.44091797 0.98095703
vt 0.4243164 0.96484375
vt 0.20739746 0.5
vt 0.12902832 0.55029297
vt 0.11846924 0.52734375
vt 0.115234375 0.51123047
vt 0.11529541 0.5
vt 0.7060547 0.49853516
vt 0.76953125 0.5175781
vt 0.77197266 0.50634766
vt 0.76220703 0.5336914
vt 0.7714844 0.49853516
vt 0.77197266 0.49072266
vt 0.76953125 0.4794922
vt 0.76220703 0.46313477
vt 0.55322266 0.8256836
vt 0.55322266 0.17138672
vt 0.49975586 0.7871094
vt 0.5415039 0.83691406
vt 0.5317383 0.84375
vt 0.51708984 0.8491211
vt 0.49975586 0.85058594
vt 0.48266602 0.8491211
vt 0.46777344 0.84375
vt 0.45776367 0.83691406
vt 0.44604492 0.8256836
vt 0.49975586 0.20996094
vt 0.5415039 0.16003418
vt 0.5317383 0.15356445
vt 0.51708984 0.14819336
vt 0.49975586 0.14648438
vt 0.48266602 0.14819336
vt 0.46777344 0.15356445
vt 0.45776367 0.16003418
vt 0.44604492 0.17138672
vt 0.49975586 0.49853516
vt 0.2932129 0.49853516
vt 0.23742676 0.5336914
vt 0.23742676 0.46313477
vt 0.22998047 0.5175781
vt 0.22998047 0.4794922
vt 0.22766113 0.50634766
vt 0.22766113 0.49072266
vt 0.2277832 0.49853516
vn -0 0 -1
vn -1.013279E-06 0 -1
vn -0 0 -1
vn -0 0 -1
vn -0 0 -1
vn -0 0 -1
vn -0 0 -1
vn -0 0 -1
vn -0 0 -1
vn -0 1.9073486E-06 -1
vn -0 3.516674E-06 -1
vn -0 0 -1
vn -0 0 -1
vn -0 0 -1
vn -0 0 -1
vn -0 0 -1
vn -0 0 -1
vn -0 0 -1
vn -0 0 -1
vn -0 0 -1
vn -0 0 -1
vn -0 1.1920929E-06 -1
vn -0 0 -1
vn 1.1324883E-06 0 -1
vn 1.013279E-06 0 -1
vn -0 0 -1
vn -0 0 -1
vn -0 0 -1
vn -0 0 -1
vn -0 0 -1
vn -0 0 -1
vn -0 1.9073486E-06 -1
vn -0 3.4570694E-06 -1
vn -0 0 -1
vn -0 0 -1
vn -0 0 -1
vn -0 0 -1
vn -0 0 -1
vn -0 0 -1
vn -0 0 -1
vn -0 0 -1
vn -0 0 -1
vn -0 0 -1
vn -0 1.1324883E-06 -1
vn -0 0 -1
vn -0 0 -1
vn -0 0 -1
vn -0 0 -1
vn -0 2.3245811E-06 -1
vn -0 0 -1
vn -0 0 -1
vn -0 0 -1
vn -0 0 -1
vn -0 0 -1
vn -0 0 -1
vn -0 0 -1
vn -0 0 -1
vn -0 0 -1
vn -0 0 -1
vn -0 0 -1
vn -0 0 -1
vn -0 0 -1
vn -0 0 -1
vn -0 0 -1
vn -0 0 -1
vn -0 0 -1
vn -0 0 -1
vn -1.0728836E-06 0 -1
vn -0 0 -1
vn -0 0 -1
vn -0 0 -1
vn -0 0 -1
vn -0 0 -1
vn -0 0 -1
vn -0 0 -1
vn -0 0 -1
vn -0 0 -1
vn -0 0 -1
vn -0 1.4305115E-06 -1
vn -0 1.9073486E-06 -1
vn -0 4.7683716E-06 -1
g L_UI_RareMark_Diamond_a_0
f 3/3/3 2/2/2 1/1/1
f 4/4/4 3/3/3 1/1/1
f 5/5/5 4/4/4 1/1/1
f 6/6/6 5/5/5 1/1/1
f 6/6/6 1/1/1 7/7/7
f 8/8/8 6/6/6 7/7/7
f 9/9/9 8/8/8 7/7/7
f 10/10/10 9/9/9 7/7/7
f 10/10/10 7/7/7 11/11/11
f 14/14/14 13/13/13 12/12/12
f 13/13/13 15/15/15 12/12/12
f 15/15/15 16/16/16 12/12/12
f 16/16/16 17/17/17 12/12/12
f 12/12/12 17/17/17 18/18/18
f 17/17/17 19/19/19 18/18/18
f 19/19/19 20/20/20 18/18/18
f 20/20/20 21/21/21 18/18/18
f 18/18/18 21/21/21 22/22/22
f 25/25/25 24/24/24 23/23/23
f 24/24/24 26/26/26 23/23/23
f 26/26/26 27/27/27 23/23/23
f 27/27/27 28/28/28 23/23/23
f 23/23/23 28/28/28 29/29/29
f 28/28/28 30/30/30 29/29/29
f 30/30/30 31/31/31 29/29/29
f 31/31/31 32/32/32 29/29/29
f 29/29/29 32/32/32 33/33/33
f 36/36/36 35/35/35 34/34/34
f 37/37/37 36/36/36 34/34/34
f 38/38/38 37/37/37 34/34/34
f 39/39/39 38/38/38 34/34/34
f 39/39/39 34/34/34 40/40/40
f 41/41/41 39/39/39 40/40/40
f 42/42/42 41/41/41 40/40/40
f 43/43/43 42/42/42 40/40/40
f 43/43/43 40/40/40 44/44/44
g L_UI_RareMark_Diamond_a_1
f 47/47/47 46/46/46 45/45/45
f 46/46/46 48/48/48 45/45/45
f 47/47/47 45/45/45 49/49/49
f 45/45/45 50/50/50 49/49/49
f 51/51/51 50/50/50 45/45/45
f 52/52/52 51/51/51 45/45/45
f 48/48/48 53/53/53 45/45/45
f 54/54/54 52/52/52 45/45/45
f 53/53/53 55/55/55 45/45/45
f 53/53/53 56/56/56 55/55/55
f 56/56/56 57/57/57 55/55/55
f 57/57/57 58/58/58 55/55/55
f 58/58/58 59/59/59 55/55/55
f 59/59/59 60/60/60 55/55/55
f 60/60/60 61/61/61 55/55/55
f 61/61/61 62/62/62 55/55/55
f 62/62/62 63/63/63 55/55/55
f 64/64/64 54/54/54 45/45/45
f 65/65/65 54/54/54 64/64/64
f 66/66/66 65/65/65 64/64/64
f 67/67/67 66/66/66 64/64/64
f 68/68/68 67/67/67 64/64/64
f 69/69/69 68/68/68 64/64/64
f 70/70/70 69/69/69 64/64/64
f 71/71/71 70/70/70 64/64/64
f 72/72/72 71/71/71 64/64/64
f 45/45/45 55/55/55 73/73/73
f 45/45/45 73/73/73 64/64/64
f 55/55/55 63/63/63 74/74/74
f 73/73/73 55/55/55 74/74/74
f 73/73/73 74/74/74 64/64/64
f 72/72/72 64/64/64 74/74/74
f 63/63/63 75/75/75 74/74/74
f 76/76/76 72/72/72 74/74/74
f 75/75/75 77/77/77 74/74/74
f 78/78/78 76/76/76 74/74/74
f 77/77/77 79/79/79 74/74/74
f 80/80/80 78/78/78 74/74/74
f 74/74/74 79/79/79 81/81/81
f 80/80/80 74/74/74 81/81/81
