g L_UI_RareMark_Star_a
v -0.00736475 -0.008525896 9.999983E-05
v -0.0055352687 -0.006862569 9.999983E-05
v -0.007085061 -0.0063185454 9.999983E-05
v -0.006786966 -0.0044762613 9.999983E-05
v -0.0057105306 -0.008297634 9.999983E-05
v -0.007222891 -0.009500051 9.999983E-05
v -0.0057270527 -0.0089126825 9.999983E-05
v -0.007094288 -0.009920025 9.999983E-05
v -0.006742406 -0.010339975 9.999983E-05
v -0.006275439 -0.010492015 9.999983E-05
v -0.0058084726 -0.0105277775 9.999983E-05
v -0.0052698613 -0.008695173 9.999983E-05
v -0.004789877 -0.010300803 9.999983E-05
v -0.0017347574 -0.0064112665 9.999983E-05
v -0 -0.007507396 9.999983E-05
v -0.0052591087 -0.0048124553 9.999983E-05
v -0.0064887526 -0.002633071 9.999983E-05
v -0.0047852756 -0.002089119 9.999983E-05
v 0.0052591087 -0.0048124553 9.999983E-05
v -0 -0.0054069045 9.999983E-05
v 0.0017347574 -0.0064112665 9.999983E-05
v 0.004789877 -0.010300803 9.999983E-05
v -0.0060089114 -0.00084323884 9.999983E-05
v -0.008755374 -6.687641E-05 9.999983E-05
v -0.006724787 0.0028395175 9.999983E-05
v -0.0075849774 0.0008524895 9.999983E-05
v -0.00881474 0.0022634268 9.999983E-05
v -0.010476708 0.001695943 9.999983E-05
v -0.009004689 0.002616167 9.999983E-05
v -0.01083374 0.002372885 9.999983E-05
v -0.010944533 0.0031349899 9.999983E-05
v -0.010529185 0.003857255 9.999983E-05
v -0.009901667 0.0042340755 9.999983E-05
v -0.008642698 0.0027764083 9.999983E-05
v -0.007815695 0.0044669393 9.999983E-05
v -0.0048318864 0.0047013997 9.999983E-05
v -0.0035809993 0.0029936314 9.999983E-05
v 0.0035809993 0.0029936314 9.999983E-05
v -0.0022387982 0.0049915793 9.999983E-05
v -0.0021780015 0.008843231 9.999983E-05
v -0 0.008558536 9.999983E-05
v -0.0016723156 0.009569502 9.999983E-05
v -0.00091512204 0.010295749 9.999983E-05
v -0 0.010753012 9.999983E-05
v 0.00091512204 0.010295749 9.999983E-05
v 0.0016723156 0.009569502 9.999983E-05
v 0.0021780015 0.008843231 9.999983E-05
v 0.0022387982 0.0049915793 9.999983E-05
v 0.0048318864 0.0047013997 9.999983E-05
v 0.006724787 0.0028395175 9.999983E-05
v 0.007815695 0.0044669393 9.999983E-05
v 0.009901667 0.0042340755 9.999983E-05
v 0.0060089114 -0.00084323884 9.999983E-05
v 0.0047852756 -0.002089119 9.999983E-05
v 0.0064887526 -0.002633071 9.999983E-05
v 0.006786966 -0.0044762613 9.999983E-05
v 0.007085061 -0.0063185454 9.999983E-05
v 0.008755374 -6.687641E-05 9.999983E-05
v 0.0055352687 -0.006862569 9.999983E-05
v 0.00736475 -0.008525896 9.999983E-05
v 0.0057105306 -0.008297634 9.999983E-05
v 0.007222891 -0.009500051 9.999983E-05
v 0.0075849774 0.0008524895 9.999983E-05
v 0.00881474 0.0022634268 9.999983E-05
v 0.010476708 0.001695943 9.999983E-05
v 0.0052698613 -0.008695173 9.999983E-05
v 0.0058084726 -0.0105277775 9.999983E-05
v 0.0057270527 -0.0089126825 9.999983E-05
v 0.007094288 -0.009920025 9.999983E-05
v 0.006275439 -0.010492015 9.999983E-05
v 0.006742406 -0.010339975 9.999983E-05
v 0.008642698 0.0027764083 9.999983E-05
v 0.009004689 0.002616167 9.999983E-05
v 0.01083374 0.002372885 9.999983E-05
v 0.010529185 0.003857255 9.999983E-05
v 0.010944533 0.0031349899 9.999983E-05
v -0.008536267 0.0027545453 -0.0001000002
v -0.006641984 0.0028275251 -0.0001000002
v -0.010132837 0.004413724 -0.0001000002
v -0.0088938 0.0025842905 -0.0001000002
v -0.008005738 0.004618955 -0.0001000002
v -0.010822773 0.0039005042 -0.0001000002
v -0.0049524307 0.0048591616 -0.0001000002
v -0.0035369159 0.00297122 -0.0001000002
v -0.0022700073 0.0049712183 -0.0001000002
v -0.0022778274 0.009115505 -0.0001000002
v -0 0.008454347 -0.0001000002
v -0.011131383 0.0032773972 -0.0001000002
v -0.011101675 0.00248034 -0.0001000002
v -0.010792637 0.0017723799 -0.0001000002
v -0.008706189 0.002202487 -0.0001000002
v -0.0017489672 0.009875059 -0.0001000002
v -0.009124875 -7.126331E-05 -0.0001000002
v -0.0074915886 0.0008423567 -0.0001000002
v -0.0059344294 -0.00083167554 -0.0001000002
v -0.00095705985 0.010634613 -0.0001000002
v -0.006793356 -0.002758193 -0.0001000002
v -0.004903007 -0.0020622255 -0.0001000002
v -0.0052832365 -0.004752016 -0.0001000002
v -0.0070694922 -0.0046858788 -0.0001000002
v -0 0.011014819 -0.0001000002
v -0.0054968833 -0.0067768814 -0.0001000002
v -0.0073776725 -0.0066126348 -0.0001000002
v -0.0076362374 -0.008921171 -0.0001000002
v -0.005699396 -0.00819428 -0.0001000002
v -0.0075522424 -0.009939981 -0.0001000002
v 0.00095705985 0.010634613 -0.0001000002
v 0.0017489672 0.009875059 -0.0001000002
v 0.0022778274 0.009115505 -0.0001000002
v 0.0022700073 0.0049712183 -0.0001000002
v -0.0057510617 -0.008801746 -0.0001000002
v 0.0049524307 0.0048591616 -0.0001000002
v 0.0035369159 0.00297122 -0.0001000002
v -0.0074177505 -0.010379219 -0.0001000002
v 0.006641984 0.0028275251 -0.0001000002
v 0.008005738 0.004618955 -0.0001000002
v -0.0070497277 -0.010818434 -0.0001000002
v -0.006561351 -0.010977435 -0.0001000002
v -0.0060729743 -0.011014843 -0.0001000002
v -0.0052054645 -0.008586931 -0.0001000002
v -0.004975486 -0.010584379 -0.0001000002
v -0.0017133951 -0.006331134 -0.0001000002
v 0.010132837 0.004413724 -0.0001000002
v 0.008536267 0.0027545453 -0.0001000002
v -0 -0.007855988 -0.0001000002
v -0 -0.0053391457 -0.0001000002
v 0.0017133951 -0.006331134 -0.0001000002
v 0.004975486 -0.010584379 -0.0001000002
v 0.0052054645 -0.008586931 -0.0001000002
v 0.0060729743 -0.011014843 -0.0001000002
v 0.0088938 0.0025842905 -0.0001000002
v 0.0057510617 -0.008801746 -0.0001000002
v 0.010822773 0.0039005042 -0.0001000002
v 0.006561351 -0.010977435 -0.0001000002
v 0.011131383 0.0032773972 -0.0001000002
v 0.011101675 0.00248034 -0.0001000002
v 0.010792637 0.0017723799 -0.0001000002
v 0.008706189 0.002202487 -0.0001000002
v 0.0070497277 -0.010818434 -0.0001000002
v 0.0074177505 -0.010379219 -0.0001000002
v 0.0075522424 -0.009939981 -0.0001000002
v 0.005699396 -0.00819428 -0.0001000002
v 0.0076362374 -0.008921171 -0.0001000002
v 0.0054968833 -0.0067768814 -0.0001000002
v 0.0073776725 -0.0066126348 -0.0001000002
v 0.009124875 -7.126331E-05 -0.0001000002
v 0.0074915886 0.0008423567 -0.0001000002
v 0.0059344294 -0.00083167554 -0.0001000002
v 0.0052832365 -0.004752016 -0.0001000002
v 0.0070694922 -0.0046858788 -0.0001000002
v 0.006793356 -0.002758193 -0.0001000002
v 0.004903007 -0.0020622255 -0.0001000002
vt 0.8041992 0.12719727
vt 0.73046875 0.1977539
vt 0.79248047 0.22033691
vt 0.77978516 0.29785156
vt 0.7363281 0.13671875
vt 0.79785156 0.0859375
vt 0.7373047 0.10845947
vt 0.79248047 0.06817627
vt 0.7783203 0.050476074
vt 0.75878906 0.044067383
vt 0.7397461 0.04248047
vt 0.7167969 0.11895752
vt 0.6977539 0.051940918
vt 0.5727539 0.21362305
vt 0.5004883 0.16955566
vt 0.71728516 0.28344727
vt 0.7675781 0.37548828
vt 0.6972656 0.39941406
vt 0.28466797 0.28344727
vt 0.5004883 0.2553711
vt 0.42797852 0.21362305
vt 0.30297852 0.05178833
vt 0.7480469 0.45214844
vt 0.86083984 0.48364258
vt 0.77734375 0.6064453
vt 0.8125 0.5234375
vt 0.86376953 0.5810547
vt 0.9321289 0.5576172
vt 0.875 0.59765625
vt 0.94677734 0.5864258
vt 0.9511719 0.61865234
vt 0.93408203 0.6489258
vt 0.9082031 0.66503906
vt 0.8564453 0.6044922
vt 0.82177734 0.6743164
vt 0.69873047 0.6845703
vt 0.64697266 0.61279297
vt 0.35253906 0.61279297
vt 0.5917969 0.6972656
vt 0.58935547 0.8588867
vt 0.49975586 0.8466797
vt 0.5683594 0.88916016
vt 0.53759766 0.9194336
vt 0.49975586 0.93896484
vt 0.4621582 0.9194336
vt 0.4309082 0.88916016
vt 0.41015625 0.85839844
vt 0.40820312 0.6972656
vt 0.30078125 0.68408203
vt 0.22265625 0.60595703
vt 0.17785645 0.6743164
vt 0.091552734 0.6645508
vt 0.25195312 0.4519043
vt 0.3034668 0.39916992
vt 0.23291016 0.37548828
vt 0.22070312 0.29760742
vt 0.20874023 0.22009277
vt 0.13928223 0.48339844
vt 0.27319336 0.19677734
vt 0.19689941 0.12683105
vt 0.26513672 0.13623047
vt 0.20275879 0.085632324
vt 0.18762207 0.5229492
vt 0.13586426 0.5810547
vt 0.067871094 0.5576172
vt 0.2841797 0.11853027
vt 0.26098633 0.042266846
vt 0.2631836 0.10797119
vt 0.20800781 0.06793213
vt 0.24182129 0.04385376
vt 0.22253418 0.050231934
vt 0.14343262 0.6044922
vt 0.12475586 0.59765625
vt 0.05316162 0.5864258
vt 0.06561279 0.6489258
vt 0.048553467 0.61816406
vt 0.8833008 0.61572266
vt 0.79785156 0.6191406
vt 0.9550781 0.69091797
vt 0.89941406 0.60839844
vt 0.859375 0.7001953
vt 0.9863281 0.66796875
vt 0.72216797 0.7109375
vt 0.6586914 0.6254883
vt 0.60595703 0.71972656
vt 0.6015625 0.90478516
vt 0.4987793 0.8745117
vt 1 0.63964844
vt 0.99853516 0.6035156
vt 0.984375 0.57177734
vt 0.890625 0.5908203
vt 0.5776367 0.9394531
vt 0.9091797 0.4885254
vt 0.8359375 0.52978516
vt 0.7661133 0.4543457
vt 0.5419922 0.9741211
vt 0.8041992 0.36767578
vt 0.71972656 0.39892578
vt 0.7368164 0.27856445
vt 0.81640625 0.28149414
vt 0.49853516 0.99121094
vt 0.74609375 0.18823242
vt 0.8300781 0.19555664
vt 0.8413086 0.09277344
vt 0.7548828 0.12512207
vt 0.83740234 0.047576904
vt 0.45532227 0.9741211
vt 0.41967773 0.93896484
vt 0.3959961 0.9042969
vt 0.3942871 0.7182617
vt 0.7573242 0.09814453
vt 0.27685547 0.7109375
vt 0.3408203 0.6254883
vt 0.83154297 0.028121948
vt 0.20153809 0.6191406
vt 0.13964844 0.69970703
vt 0.8149414 0.008674622
vt 0.79296875 0.0016450882
vt 0.7714844 0
vt 0.73291016 0.107666016
vt 0.72265625 0.019088745
vt 0.57714844 0.20812988
vt 0.04425049 0.6904297
vt 0.11663818 0.61572266
vt 0.50097656 0.14025879
vt 0.5004883 0.2524414
vt 0.42456055 0.20812988
vt 0.28027344 0.01928711
vt 0.26953125 0.10784912
vt 0.23168945 0.00026917458
vt 0.10064697 0.60791016
vt 0.24536133 0.09832764
vt 0.0135269165 0.66748047
vt 0.21008301 0.0019340515
vt 0 0.63916016
vt 0.0017404556 0.60302734
vt 0.015945435 0.57128906
vt 0.10925293 0.5908203
vt 0.18835449 0.008979797
vt 0.17175293 0.028427124
vt 0.16564941 0.04788208
vt 0.24743652 0.12524414
vt 0.16149902 0.09301758
vt 0.25610352 0.18835449
vt 0.17211914 0.19567871
vt 0.0914917 0.48828125
vt 0.16418457 0.5292969
vt 0.23449707 0.45410156
vt 0.26489258 0.27856445
vt 0.18518066 0.28149414
vt 0.19677734 0.36767578
vt 0.28100586 0.39892578
vn -0 0 -1
vn -0 0 -1
vn -0 0 -1
vn -0 0 -1
vn -0 0 -1
vn -0 0 -1
vn -0 0 -1
vn -0 0 -1
vn -0 0 -1
vn -0 0 -1
vn -0 0 -1
vn -0 0 -1
vn -0 0 -1
vn -0 0 -1
vn -0 0 -1
vn -0 0 -1
vn -0 0 -1
vn -0 0 -1
vn -0 0 -1
vn -0 0 -1
vn -0 0 -1
vn -0 0 -1
vn -0 0 -1
vn -0 0 -1
vn -0 0 -1
vn -0 0 -1
vn -0 0 -1
vn -0 0 -1
vn -0 0 -1
vn -0 0 -1
vn -0 0 -1
vn -0 0 -1
vn -0 0 -1
vn -0 0 -1
vn -0 0 -1
vn -0 0 -1
vn -0 0 -1
vn -0 0 -1
vn -0 0 -1
vn -0 0 -1
vn -0 0 -1
vn -0 0 -1
vn -0 0 -1
vn -0 0 -1
vn -0 0 -1
vn -0 0 -1
vn -0 0 -1
vn -0 0 -1
vn -0 0 -1
vn -0 0 -1
vn -0 0 -1
vn -0 0 -1
vn -0 0 -1
vn -0 0 -1
vn -0 0 -1
vn -0 0 -1
vn -0 0 -1
vn -0 0 -1
vn -0 0 -1
vn -0 0 -1
vn -0 0 -1
vn -0 0 -1
vn -0 0 -1
vn -0 0 -1
vn -0 0 -1
vn -0 0 -1
vn -0 0 -1
vn -0 0 -1
vn -0 0 -1
vn -0 0 -1
vn -0 0 -1
vn -0 0 -1
vn -0 0 -1
vn -0 0 -1
vn -0 0 -1
vn -0 0 -1
vn -0 0 -1
vn -0 0 -1
vn -0 0 -1
vn -0 0 -1
vn -0 0 -1
vn -0 0 -1
vn -0 0 -1
vn -0 0 -1
vn -0 0 -1
vn -0 0 -1
vn -0 0 -1
vn -0 0 -1
vn -0 0 -1
vn -0 0 -1
vn -0 0 -1
vn -0 0 -1
vn -0 0 -1
vn -0 0 -1
vn -0 0 -1
vn -0 0 -1
vn -0 0 -1
vn -0 0 -1
vn -0 0 -1
vn -0 0 -1
vn -0 0 -1
vn -0 0 -1
vn -0 0 -1
vn -0 0 -1
vn -0 0 -1
vn -0 0 -1
vn -0 0 -1
vn -0 0 -1
vn -0 0 -1
vn -0 0 -1
vn -0 0 -1
vn -0 0 -1
vn -0 0 -1
vn -0 0 -1
vn -0 0 -1
vn -0 0 -1
vn -0 0 -1
vn -0 0 -1
vn -0 0 -1
vn -0 0 -1
vn -0 0 -1
vn -0 0 -1
vn -0 0 -1
vn -0 0 -1
vn -0 0 -1
vn -0 0 -1
vn -0 0 -1
vn -0 0 -1
vn -0 0 -1
vn -0 0 -1
vn -0 0 -1
vn -0 0 -1
vn -0 0 -1
vn -0 0 -1
vn -0 0 -1
vn -0 0 -1
vn -0 0 -1
vn -0 0 -1
vn -0 0 -1
vn -0 0 -1
vn -0 0 -1
vn -0 0 -1
vn -0 0 -1
vn -0 0 -1
vn -0 0 -1
vn -0 0 -1
vn -0 0 -1
vn -0 0 -1
vn -0 0 -1
vn -0 0 -1
vn -0 0 -1
vn -0 0 -1
g L_UI_RareMark_Star_a_0
f 3/3/3 2/2/2 1/1/1
f 3/3/3 4/4/4 2/2/2
f 1/1/1 2/2/2 5/5/5
f 1/1/1 5/5/5 6/6/6
f 5/5/5 7/7/7 6/6/6
f 8/8/8 6/6/6 7/7/7
f 7/7/7 9/9/9 8/8/8
f 10/10/10 9/9/9 7/7/7
f 11/11/11 10/10/10 7/7/7
f 12/12/12 7/7/7 5/5/5
f 11/11/11 7/7/7 12/12/12
f 12/12/12 5/5/5 2/2/2
f 13/13/13 11/11/11 12/12/12
f 13/13/13 12/12/12 14/14/14
f 14/14/14 12/12/12 2/2/2
f 14/14/14 15/15/15 13/13/13
f 4/4/4 16/16/16 2/2/2
f 14/14/14 2/2/2 16/16/16
f 4/4/4 17/17/17 16/16/16
f 17/17/17 18/18/18 16/16/16
f 19/19/19 16/16/16 18/18/18
f 20/20/20 14/14/14 16/16/16
f 14/14/14 20/20/20 15/15/15
f 19/19/19 20/20/20 16/16/16
f 20/20/20 21/21/21 15/15/15
f 22/22/22 15/15/15 21/21/21
f 23/23/23 18/18/18 17/17/17
f 23/23/23 17/17/17 24/24/24
f 18/18/18 23/23/23 25/25/25
f 23/23/23 26/26/26 25/25/25
f 26/26/26 23/23/23 24/24/24
f 27/27/27 26/26/26 24/24/24
f 26/26/26 27/27/27 25/25/25
f 28/28/28 27/27/27 24/24/24
f 28/28/28 29/29/29 27/27/27
f 28/28/28 30/30/30 29/29/29
f 30/30/30 31/31/31 29/29/29
f 29/29/29 31/31/31 32/32/32
f 29/29/29 32/32/32 33/33/33
f 27/27/27 29/29/29 34/34/34
f 33/33/33 34/34/34 29/29/29
f 27/27/27 34/34/34 25/25/25
f 33/33/33 25/25/25 34/34/34
f 33/33/33 35/35/35 25/25/25
f 35/35/35 36/36/36 25/25/25
f 36/36/36 37/37/37 25/25/25
f 25/25/25 37/37/37 18/18/18
f 18/18/18 37/37/37 38/38/38
f 39/39/39 37/37/37 36/36/36
f 37/37/37 39/39/39 38/38/38
f 40/40/40 39/39/39 36/36/36
f 41/41/41 39/39/39 40/40/40
f 40/40/40 42/42/42 41/41/41
f 42/42/42 43/43/43 41/41/41
f 43/43/43 44/44/44 41/41/41
f 41/41/41 44/44/44 45/45/45
f 41/41/41 45/45/45 46/46/46
f 41/41/41 46/46/46 47/47/47
f 39/39/39 41/41/41 48/48/48
f 47/47/47 48/48/48 41/41/41
f 39/39/39 48/48/48 38/38/38
f 48/48/48 47/47/47 49/49/49
f 48/48/48 49/49/49 38/38/38
f 38/38/38 49/49/49 50/50/50
f 50/50/50 49/49/49 51/51/51
f 50/50/50 51/51/51 52/52/52
f 53/53/53 38/38/38 50/50/50
f 53/53/53 54/54/54 38/38/38
f 54/54/54 18/18/18 38/38/38
f 54/54/54 19/19/19 18/18/18
f 53/53/53 55/55/55 54/54/54
f 54/54/54 55/55/55 19/19/19
f 19/19/19 55/55/55 56/56/56
f 19/19/19 56/56/56 57/57/57
f 58/58/58 55/55/55 53/53/53
f 59/59/59 19/19/19 57/57/57
f 19/19/19 59/59/59 20/20/20
f 59/59/59 57/57/57 60/60/60
f 59/59/59 21/21/21 20/20/20
f 60/60/60 61/61/61 59/59/59
f 59/59/59 61/61/61 21/21/21
f 60/60/60 62/62/62 61/61/61
f 58/58/58 53/53/53 63/63/63
f 50/50/50 63/63/63 53/53/53
f 58/58/58 63/63/63 64/64/64
f 63/63/63 50/50/50 64/64/64
f 65/65/65 58/58/58 64/64/64
f 61/61/61 66/66/66 21/21/21
f 22/22/22 21/21/21 66/66/66
f 22/22/22 66/66/66 67/67/67
f 62/62/62 68/68/68 61/61/61
f 61/61/61 68/68/68 66/66/66
f 66/66/66 68/68/68 67/67/67
f 69/69/69 68/68/68 62/62/62
f 68/68/68 70/70/70 67/67/67
f 69/69/69 71/71/71 68/68/68
f 68/68/68 71/71/71 70/70/70
f 50/50/50 72/72/72 64/64/64
f 72/72/72 50/50/50 52/52/52
f 65/65/65 64/64/64 73/73/73
f 72/72/72 73/73/73 64/64/64
f 73/73/73 72/72/72 52/52/52
f 73/73/73 74/74/74 65/65/65
f 52/52/52 75/75/75 73/73/73
f 73/73/73 76/76/76 74/74/74
f 75/75/75 76/76/76 73/73/73
g L_UI_RareMark_Star_a_1
f 79/79/79 78/78/78 77/77/77
f 79/79/79 77/77/77 80/80/80
f 79/79/79 81/81/81 78/78/78
f 80/80/80 82/82/82 79/79/79
f 81/81/81 83/83/83 78/78/78
f 83/83/83 84/84/84 78/78/78
f 85/85/85 84/84/84 83/83/83
f 86/86/86 85/85/85 83/83/83
f 87/87/87 85/85/85 86/86/86
f 80/80/80 88/88/88 82/82/82
f 89/89/89 88/88/88 80/80/80
f 90/90/90 89/89/89 80/80/80
f 90/90/90 80/80/80 91/91/91
f 86/86/86 92/92/92 87/87/87
f 90/90/90 91/91/91 93/93/93
f 91/91/91 94/94/94 93/93/93
f 94/94/94 95/95/95 93/93/93
f 92/92/92 96/96/96 87/87/87
f 95/95/95 97/97/97 93/93/93
f 95/95/95 98/98/98 97/97/97
f 97/97/97 98/98/98 99/99/99
f 100/100/100 97/97/97 99/99/99
f 96/96/96 101/101/101 87/87/87
f 100/100/100 99/99/99 102/102/102
f 103/103/103 100/100/100 102/102/102
f 103/103/103 102/102/102 104/104/104
f 104/104/104 102/102/102 105/105/105
f 104/104/104 105/105/105 106/106/106
f 87/87/87 101/101/101 107/107/107
f 87/87/87 107/107/107 108/108/108
f 87/87/87 108/108/108 109/109/109
f 109/109/109 110/110/110 87/87/87
f 105/105/105 111/111/111 106/106/106
f 110/110/110 109/109/109 112/112/112
f 110/110/110 112/112/112 113/113/113
f 114/114/114 106/106/106 111/111/111
f 113/113/113 112/112/112 115/115/115
f 115/115/115 112/112/112 116/116/116
f 111/111/111 117/117/117 114/114/114
f 118/118/118 117/117/117 111/111/111
f 119/119/119 118/118/118 111/111/111
f 119/119/119 111/111/111 120/120/120
f 121/121/121 119/119/119 120/120/120
f 121/121/121 120/120/120 122/122/122
f 115/115/115 116/116/116 123/123/123
f 124/124/124 115/115/115 123/123/123
f 122/122/122 125/125/125 121/121/121
f 122/122/122 126/126/126 125/125/125
f 126/126/126 127/127/127 125/125/125
f 128/128/128 125/125/125 127/127/127
f 128/128/128 127/127/127 129/129/129
f 128/128/128 129/129/129 130/130/130
f 131/131/131 124/124/124 123/123/123
f 129/129/129 132/132/132 130/130/130
f 123/123/123 133/133/133 131/131/131
f 132/132/132 134/134/134 130/130/130
f 133/133/133 135/135/135 131/131/131
f 131/131/131 135/135/135 136/136/136
f 131/131/131 136/136/136 137/137/137
f 137/137/137 138/138/138 131/131/131
f 132/132/132 139/139/139 134/134/134
f 140/140/140 139/139/139 132/132/132
f 140/140/140 132/132/132 141/141/141
f 141/141/141 132/132/132 142/142/142
f 143/143/143 141/141/141 142/142/142
f 143/143/143 142/142/142 144/144/144
f 144/144/144 145/145/145 143/143/143
f 137/137/137 146/146/146 138/138/138
f 146/146/146 147/147/147 138/138/138
f 146/146/146 148/148/148 147/147/147
f 144/144/144 149/149/149 145/145/145
f 149/149/149 150/150/150 145/145/145
f 146/146/146 151/151/151 148/148/148
f 149/149/149 151/151/151 150/150/150
f 148/148/148 151/151/151 152/152/152
f 152/152/152 151/151/151 149/149/149
