g logo_drop
v 0.054440547 -0.04229529 0
v 0.0548519 -0.038613405 0
v 0.03844551 -0.03861339 0
v 0.053227164 -0.04579255 0
v 0.05127255 -0.048929818 0
v 0.048674714 -0.051549774 0
v 0.045563973 -0.053521056 0
v 0.042096294 -0.0547448 0
v 0.038445532 -0.05515964 0
v 0.0548519 0.038613405 0
v -0.03844558 -0.05515964 0
v 0.038445484 0.038613405 0
v 0.054440547 0.042295303 0
v 0.053227164 0.04579257 0
v 0.05127255 0.04892981 0
v 0.048674714 0.05154977 0
v 0.045563973 0.05352105 0
v 0.042096294 0.05474479 0
v 0.038445532 0.05515964 0
v -0.03844558 -0.03861339 0
v -0.042096294 -0.0547448 0
v -0.045563973 -0.053521056 0
v -0.048674714 -0.051549774 0
v -0.051272523 -0.048929818 0
v -0.053227175 -0.04579255 0
v -0.054440584 -0.04229529 0
v -0.0548519 -0.038613405 0
v -0.03844556 0.038613405 0
v -0.03844558 0.05515964 0
v -0.0548519 0.038613405 0
v -0.042096294 0.05474479 0
v -0.054440584 0.042295303 0
v -0.045563973 0.05352105 0
v -0.053227175 0.04579257 0
v -0.048674714 0.05154977 0
v -0.051272523 0.04892981 0
vt 0.0037498474 0.11663818
vt 1.1920929E-07 0.15002441
vt 0.14953613 0.15002441
vt 0.014808655 0.0848999
vt 0.03262329 0.05645752
vt 0.05630493 0.032714844
vt 0.08465576 0.014854431
vt 0.11627197 0.0037612915
vt 0.14953613 5.9604645E-08
vt 1.1920929E-07 0.85009766
vt 0.85058594 5.9604645E-08
vt 0.14953613 0.85009766
vt 0.0037498474 0.8833008
vt 0.014808655 0.91503906
vt 0.03262329 0.9433594
vt 0.05630493 0.96728516
vt 0.08465576 0.98535156
vt 0.11627197 0.99609375
vt 0.14953613 1
vt 0.85058594 0.15002441
vt 0.88378906 0.0037612915
vt 0.91552734 0.014854431
vt 0.94384766 0.032714844
vt 0.96728516 0.05645752
vt 0.98535156 0.0848999
vt 0.99609375 0.11663818
vt 1 0.15002441
vt 0.85058594 0.85009766
vt 0.85058594 1
vt 1 0.85009766
vt 0.88378906 0.99609375
vt 0.99609375 0.8833008
vt 0.91552734 0.98535156
vt 0.98535156 0.91503906
vt 0.94384766 0.96728516
vt 0.96728516 0.9433594
vn -0 0 -1
vn -0 0 -1
vn -0 0 -1
vn -0 0 -1
vn -0 0 -1
vn -0 0 -1
vn -0 0 -1
vn -0 0 -1
vn -0 0 -1
vn -0 0 -1
vn -0 0 -1
vn -0 0 -1
vn -0 0 -1
vn -0 0 -1
vn -0 0 -1
vn -0 0 -1
vn -0 0 -1
vn -0 0 -1
vn -0 0 -1
vn -0 0 -1
vn -0 0 -1
vn -0 0 -1
vn -0 0 -1
vn -0 0 -1
vn -0 0 -1
vn -0 0 -1
vn -0 0 -1
vn -0 0 -1
vn -0 0 -1
vn -0 0 -1
vn -0 0 -1
vn -0 0 -1
vn -0 0 -1
vn -0 0 -1
vn -0 0 -1
vn -0 0 -1
g logo_drop_0
f 3/3/3 2/2/2 1/1/1
f 4/4/4 3/3/3 1/1/1
f 4/4/4 5/5/5 3/3/3
f 5/5/5 6/6/6 3/3/3
f 6/6/6 7/7/7 3/3/3
f 7/7/7 8/8/8 3/3/3
f 8/8/8 9/9/9 3/3/3
f 3/3/3 10/10/10 2/2/2
f 3/3/3 9/9/9 11/11/11
f 3/3/3 12/12/12 10/10/10
f 12/12/12 13/13/13 10/10/10
f 12/12/12 14/14/14 13/13/13
f 12/12/12 15/15/15 14/14/14
f 12/12/12 16/16/16 15/15/15
f 12/12/12 17/17/17 16/16/16
f 12/12/12 18/18/18 17/17/17
f 12/12/12 19/19/19 18/18/18
f 3/3/3 11/11/11 20/20/20
f 3/3/3 20/20/20 12/12/12
f 20/20/20 11/11/11 21/21/21
f 20/20/20 21/21/21 22/22/22
f 20/20/20 22/22/22 23/23/23
f 20/20/20 23/23/23 24/24/24
f 20/20/20 24/24/24 25/25/25
f 20/20/20 25/25/25 26/26/26
f 20/20/20 26/26/26 27/27/27
f 12/12/12 28/28/28 19/19/19
f 20/20/20 28/28/28 12/12/12
f 20/20/20 27/27/27 28/28/28
f 28/28/28 29/29/29 19/19/19
f 27/27/27 30/30/30 28/28/28
f 28/28/28 31/31/31 29/29/29
f 28/28/28 30/30/30 32/32/32
f 28/28/28 33/33/33 31/31/31
f 28/28/28 32/32/32 34/34/34
f 28/28/28 35/35/35 33/33/33
f 28/28/28 34/34/34 36/36/36
f 28/28/28 36/36/36 35/35/35
