g logo_luck
v -0.026007045 0.04865578 2.9802323E-09
v 1.1920929E-08 1.4901161E-09 1.4901161E-09
v -0.016015066 0.052794594 -2.9802323E-09
v -0.03499962 0.042647142 2.9802323E-09
v -0.0054076314 0.05490454 -2.9802323E-09
v -0.042647135 0.034999628 2.9802323E-09
v 0.0054076314 0.05490454 -2.9802323E-09
v -0.04865576 0.026007062 2.9802323E-09
v 0.016015088 0.052794594 2.9802323E-09
v -0.052794613 0.016015079 2.9802323E-09
v 0.026007045 0.04865578 -2.9802323E-09
v -0.054904547 0.005407633 2.9802323E-09
v 0.034999598 0.042647142 2.9802323E-09
v -0.054904547 -0.005407624 1.4901161E-09
v 0.042647135 0.034999605 2.9802323E-09
v -0.052794613 -0.016015064 1.4901161E-09
v 0.048655786 0.02600705 0
v -0.048655808 -0.02600704 2.9802323E-09
v 0.052794587 0.01601506 2.9802323E-09
v -0.042647135 -0.03499959 2.9802323E-09
v 0.054904547 0.005407621 2.9802323E-09
v -0.03499962 -0.042647135 2.9802323E-09
v 0.054904547 -0.005407624 1.4901161E-09
v -0.02600707 -0.048655774 2.9802323E-09
v 0.0527946 -0.01601507 1.4901161E-09
v -0.016015066 -0.052794587 2.9802323E-09
v 0.048655774 -0.026007062 2.9802323E-09
v -0.005407655 -0.05490454 2.9802323E-09
v 0.042647135 -0.03499961 2.9802323E-09
v 0.0054076076 -0.05490454 2.9802323E-09
v 0.034999598 -0.04264715 2.9802323E-09
v 0.016015066 -0.052794594 2.9802323E-09
v 0.02600702 -0.04865578 2.9802323E-09
vt 0.7368164 0.9428711
vt 0.5 0.5
vt 0.6459961 0.98095703
vt 0.81884766 0.8881836
vt 0.5493164 1
vt 0.8881836 0.81884766
vt 0.4506836 1
vt 0.9428711 0.7368164
vt 0.35424805 0.98095703
vt 0.98095703 0.6459961
vt 0.2631836 0.9428711
vt 1 0.5493164
vt 0.18127441 0.8881836
vt 1 0.4506836
vt 0.1116333 0.81884766
vt 0.98095703 0.35424805
vt 0.056915283 0.7368164
vt 0.9428711 0.2631836
vt 0.019210815 0.6459961
vt 0.8881836 0.18127441
vt -1.1920929E-07 0.5493164
vt 0.81884766 0.1116333
vt -1.1920929E-07 0.4506836
vt 0.7368164 0.056915283
vt 0.019210815 0.35424805
vt 0.6459961 0.019210815
vt 0.056915283 0.2631836
vt 0.5493164 0
vt 0.1116333 0.18127441
vt 0.4506836 0
vt 0.18127441 0.1116333
vt 0.35424805 0.019210815
vt 0.2631836 0.056915283
vn -0 0 -1
vn -0 0 -1
vn -0 0 -1
vn -0 0 -1
vn -0 0 -1
vn -0 0 -1
vn -0 0 -1
vn -0 0 -1
vn -0 0 -1
vn -0 0 -1
vn -0 0 -1
vn -0 0 -1
vn -0 0 -1
vn -0 0 -1
vn -0 0 -1
vn -0 0 -1
vn -0 0 -1
vn -0 0 -1
vn -0 0 -1
vn -0 0 -1
vn -0 0 -1
vn -0 0 -1
vn -0 0 -1
vn -0 0 -1
vn -0 0 -1
vn -0 0 -1
vn -0 0 -1
vn -0 0 -1
vn -0 0 -1
vn -0 0 -1
vn -0 0 -1
vn -0 0 -1
vn -0 0 -1
g logo_luck_0
f 3/3/3 2/2/2 1/1/1
f 1/1/1 2/2/2 4/4/4
f 5/5/5 2/2/2 3/3/3
f 4/4/4 2/2/2 6/6/6
f 7/7/7 2/2/2 5/5/5
f 6/6/6 2/2/2 8/8/8
f 9/9/9 2/2/2 7/7/7
f 8/8/8 2/2/2 10/10/10
f 11/11/11 2/2/2 9/9/9
f 10/10/10 2/2/2 12/12/12
f 13/13/13 2/2/2 11/11/11
f 12/12/12 2/2/2 14/14/14
f 15/15/15 2/2/2 13/13/13
f 14/14/14 2/2/2 16/16/16
f 17/17/17 2/2/2 15/15/15
f 16/16/16 2/2/2 18/18/18
f 19/19/19 2/2/2 17/17/17
f 18/18/18 2/2/2 20/20/20
f 21/21/21 2/2/2 19/19/19
f 20/20/20 2/2/2 22/22/22
f 23/23/23 2/2/2 21/21/21
f 22/22/22 2/2/2 24/24/24
f 25/25/25 2/2/2 23/23/23
f 24/24/24 2/2/2 26/26/26
f 27/27/27 2/2/2 25/25/25
f 26/26/26 2/2/2 28/28/28
f 29/29/29 2/2/2 27/27/27
f 28/28/28 2/2/2 30/30/30
f 31/31/31 2/2/2 29/29/29
f 30/30/30 2/2/2 32/32/32
f 33/33/33 2/2/2 31/31/31
f 32/32/32 2/2/2 33/33/33
