g Md_CMN_CircleHalf_02
v -0.4975923 -7.984503E-09 0.04900853
v -0.4999999 5.462341E-15 -3.3527613E-08
v -0.14999998 1.6387024E-15 -1.0058284E-08
v -0.14927769 -2.3953506E-09 0.014702556
v -0.4903926 -1.5892116E-08 0.09754512
v -0.14711778 -4.7676343E-09 0.029263534
v -0.47847012 -2.3646678E-08 0.14514227
v -0.14354102 -7.0940027E-09 0.04354268
v -0.4619397 -3.1173514E-08 0.19134167
v -0.13858192 -9.352054E-09 0.0574025
v -0.44096062 -3.840013E-08 0.23569831
v -0.13228819 -1.1520039E-08 0.0707095
v -0.41573483 -4.5256932E-08 0.27778506
v -0.12472044 -1.3577077E-08 0.08333551
v -0.3865052 -5.1677887E-08 0.3171966
v -0.11595155 -1.5503366E-08 0.09515899
v -0.35355338 -5.7601145E-08 0.3535533
v -0.10606602 -1.7280344E-08 0.106065996
v -0.31719664 -6.296969E-08 0.3865052
v -0.095158964 -1.8890908E-08 0.11595155
v -0.27778512 -6.773179E-08 0.41573477
v -0.083335534 -2.0319536E-08 0.12472042
v -0.23569837 -7.1841605E-08 0.44096062
v -0.07070951 -2.1552479E-08 0.13228819
v -0.1913417 -7.525953E-08 0.4619397
v -0.057402514 -2.257786E-08 0.13858192
v -0.14514236 -7.795268E-08 0.47847015
v -0.043542698 -2.3385804E-08 0.14354104
v -0.09754516 -7.9895095E-08 0.4903926
v -0.029263549 -2.3968527E-08 0.14711778
v -0.049008563 -8.106808E-08 0.4975923
v -0.014702572 -2.4320425E-08 0.1492777
v -0 -8.1460335E-08 0.5
v -0 -2.4438101E-08 0.14999999
v 0.04900839 -8.106805E-08 0.49759215
v 0.014702518 -2.4320418E-08 0.14927766
v 0.097544976 -7.989507E-08 0.49039245
v 0.02926349 -2.396852E-08 0.14711772
v 0.14514211 -7.7952656E-08 0.47847
v 0.04354264 -2.3385798E-08 0.14354101
v 0.19134149 -7.5259514E-08 0.4619396
v 0.057402447 -2.2577852E-08 0.13858189
v 0.23569812 -7.1841576E-08 0.44096047
v 0.070709445 -2.1552475E-08 0.13228814
v 0.27778488 -6.773178E-08 0.4157347
v 0.083335474 -2.0319534E-08 0.12472041
v 0.31719643 -6.296969E-08 0.3865052
v 0.09515892 -1.8890907E-08 0.11595155
v 0.3535532 -5.760116E-08 0.35355338
v 0.10606594 -1.7280348E-08 0.10606602
v 0.386505 -5.1677898E-08 0.31719667
v 0.1159515 -1.550337E-08 0.095159
v 0.4157346 -4.525695E-08 0.27778518
v 0.12472035 -1.3577084E-08 0.08333555
v 0.44096038 -3.840015E-08 0.23569843
v 0.13228813 -1.1520045E-08 0.070709534
v 0.46193954 -3.1173535E-08 0.1913418
v 0.13858186 -9.352061E-09 0.057402544
v 0.4784699 -2.3646702E-08 0.14514244
v 0.143541 -7.094011E-09 0.04354273
v 0.49039248 -1.5892141E-08 0.09754526
v 0.14711772 -4.7676423E-09 0.029263576
v 0.49759224 -7.9845295E-09 0.049008694
v 0.14927766 -2.3953588E-09 0.014702607
v 0.49999985 -2.306322E-14 1.4156103E-07
v 0.14999995 -6.9189658E-15 4.2468308E-08
vt 0.03051889 5.9604645E-08
vt 0.00014642416 5.9604645E-08
vt 0.00014642416 1.0000416
vt 0.03051889 1.0000416
vt 0.06166154 5.9604645E-08
vt 0.06166154 1.0000416
vt 0.09280735 5.9604645E-08
vt 0.09280735 1.0000416
vt 0.123959064 5.9604645E-08
vt 0.123959064 1.0000416
vt 0.15511891 5.9604645E-08
vt 0.15511891 1.0000416
vt 0.1862885 5.9604645E-08
vt 0.1862885 1.0000416
vt 0.21746892 5.9604645E-08
vt 0.21746892 1.0000416
vt 0.24866092 5.9604645E-08
vt 0.24866092 1.0000416
vt 0.2798649 5.9604645E-08
vt 0.2798649 1.0000416
vt 0.3110805 5.9604645E-08
vt 0.3110805 1.0000416
vt 0.3423068 5.9604645E-08
vt 0.3423068 1.0000416
vt 0.373543 5.9604645E-08
vt 0.373543 1.0000416
vt 0.40478814 5.9604645E-08
vt 0.40478814 1.0000416
vt 0.43604085 5.9604645E-08
vt 0.43604085 1.0000416
vt 0.46729958 5.9604645E-08
vt 0.46729958 1.0000416
vt 0.49856424 5.9604645E-08
vt 0.49856424 1.0000416
vt 0.52983433 5.9604645E-08
vt 0.52983433 1.0000416
vt 0.561111 5.9604645E-08
vt 0.561111 1.0000416
vt 0.59239554 5.9604645E-08
vt 0.59239554 1.0000416
vt 0.623692 5.9604645E-08
vt 0.623692 1.0000416
vt 0.65500504 5.9604645E-08
vt 0.65500504 1.0000416
vt 0.6863422 5.9604645E-08
vt 0.6863422 1.0000416
vt 0.7177129 5.9604645E-08
vt 0.7177129 1.0000416
vt 0.74912757 5.9604645E-08
vt 0.74912757 1.0000416
vt 0.7805988 5.9604645E-08
vt 0.7805988 1.0000416
vt 0.8121404 5.9604645E-08
vt 0.8121404 1.0000416
vt 0.84376305 5.9604645E-08
vt 0.84376305 1.0000416
vt 0.8754728 5.9604645E-08
vt 0.8754728 1.0000416
vt 0.9072649 5.9604645E-08
vt 0.9072649 1.0000416
vt 0.939112 5.9604645E-08
vt 0.939112 1.0000416
vt 0.97094697 5.9604645E-08
vt 0.97094697 1.0000416
vt 1.0000119 5.9604645E-08
vt 1.0000119 1.0000416
vn -0 1 1.6292066E-07
vn -0 1 1.6292068E-07
vn -0 1 1.6292071E-07
vn -0 1 1.6292078E-07
vn -0 1 1.6292063E-07
vn -0 1 1.6292086E-07
vn -0 1 1.6292064E-07
vn -0 1 1.6292081E-07
vn -0 1 1.6292071E-07
vn -0 1 1.6292068E-07
vn -0 1 1.6292081E-07
vn -0 1 1.6292056E-07
vn -0 1 1.6292071E-07
vn -0 1 1.6292034E-07
vn -0 1 1.629206E-07
vn -0 1 1.6292093E-07
vn -0 1 1.6292056E-07
vn -0 1 1.6292135E-07
vn -0 1 1.629206E-07
vn -0 1 1.6292064E-07
vn -0 1 1.6292068E-07
vn -0 1 1.6292057E-07
vn -0 1 1.6292063E-07
vn -0 1 1.6292083E-07
vn -0 1 1.6292063E-07
vn -0 1 1.6292063E-07
vn -0 1 1.629207E-07
vn -0 1 1.6292063E-07
vn -0 1 1.6292068E-07
vn -0 1 1.6292068E-07
vn -0 1 1.6292068E-07
vn -0 1 1.6292066E-07
vn -0 1 1.6292068E-07
vn -0 1 1.6292068E-07
vn -0 1 1.6292068E-07
vn -0 1 1.629207E-07
vn -0 1 1.6292068E-07
vn -0 1 1.6292084E-07
vn -0 1 1.6292064E-07
vn -0 1 1.629208E-07
vn -0 1 1.6292067E-07
vn -0 1 1.6292057E-07
vn -0 1 1.6292068E-07
vn -0 1 1.6292046E-07
vn -0 1 1.629207E-07
vn -0 1 1.6292056E-07
vn -0 1 1.6292077E-07
vn -0 1 1.6292071E-07
vn -0 1 1.6292073E-07
vn -0 1 1.629203E-07
vn -0 1 1.6292073E-07
vn -0 1 1.6292039E-07
vn -0 1 1.6292073E-07
vn -0 1 1.6292071E-07
vn -0 1 1.6292077E-07
vn -0 1 1.629207E-07
vn -0 1 1.6292076E-07
vn -0 1 1.6292078E-07
vn -0 1 1.6292064E-07
vn -0 1 1.6292078E-07
vn -0 1 1.629207E-07
vn -0 1 1.6292078E-07
vn -0 1 1.6292068E-07
vn -0 1 1.629207E-07
vn -0 1 1.6292067E-07
vn -0 1 1.6292068E-07
g Md_CMN_CircleHalf_02_0
f 3/3/3 2/2/2 1/1/1
f 3/3/3 1/1/1 4/4/4
f 4/4/4 1/1/1 5/5/5
f 4/4/4 5/5/5 6/6/6
f 6/6/6 5/5/5 7/7/7
f 6/6/6 7/7/7 8/8/8
f 8/8/8 7/7/7 9/9/9
f 8/8/8 9/9/9 10/10/10
f 10/10/10 9/9/9 11/11/11
f 10/10/10 11/11/11 12/12/12
f 12/12/12 11/11/11 13/13/13
f 12/12/12 13/13/13 14/14/14
f 14/14/14 13/13/13 15/15/15
f 14/14/14 15/15/15 16/16/16
f 16/16/16 15/15/15 17/17/17
f 16/16/16 17/17/17 18/18/18
f 18/18/18 17/17/17 19/19/19
f 18/18/18 19/19/19 20/20/20
f 20/20/20 19/19/19 21/21/21
f 20/20/20 21/21/21 22/22/22
f 22/22/22 21/21/21 23/23/23
f 22/22/22 23/23/23 24/24/24
f 24/24/24 23/23/23 25/25/25
f 24/24/24 25/25/25 26/26/26
f 26/26/26 25/25/25 27/27/27
f 26/26/26 27/27/27 28/28/28
f 28/28/28 27/27/27 29/29/29
f 28/28/28 29/29/29 30/30/30
f 30/30/30 29/29/29 31/31/31
f 30/30/30 31/31/31 32/32/32
f 32/32/32 31/31/31 33/33/33
f 32/32/32 33/33/33 34/34/34
f 34/34/34 33/33/33 35/35/35
f 34/34/34 35/35/35 36/36/36
f 36/36/36 35/35/35 37/37/37
f 36/36/36 37/37/37 38/38/38
f 38/38/38 37/37/37 39/39/39
f 38/38/38 39/39/39 40/40/40
f 40/40/40 39/39/39 41/41/41
f 40/40/40 41/41/41 42/42/42
f 42/42/42 41/41/41 43/43/43
f 42/42/42 43/43/43 44/44/44
f 44/44/44 43/43/43 45/45/45
f 44/44/44 45/45/45 46/46/46
f 46/46/46 45/45/45 47/47/47
f 46/46/46 47/47/47 48/48/48
f 48/48/48 47/47/47 49/49/49
f 48/48/48 49/49/49 50/50/50
f 50/50/50 49/49/49 51/51/51
f 50/50/50 51/51/51 52/52/52
f 52/52/52 51/51/51 53/53/53
f 52/52/52 53/53/53 54/54/54
f 54/54/54 53/53/53 55/55/55
f 54/54/54 55/55/55 56/56/56
f 56/56/56 55/55/55 57/57/57
f 56/56/56 57/57/57 58/58/58
f 58/58/58 57/57/57 59/59/59
f 58/58/58 59/59/59 60/60/60
f 60/60/60 59/59/59 61/61/61
f 60/60/60 61/61/61 62/62/62
f 62/62/62 61/61/61 63/63/63
f 62/62/62 63/63/63 64/64/64
f 64/64/64 63/63/63 65/65/65
f 64/64/64 65/65/65 66/66/66
