g Md_CMN_RingHalf_00
v -0.49039283 -0.09754512 1.826855E-08
v -0.49759254 -0.049008507 1.853676E-08
v -0.4877064 -0.09754512 0.05126002
v -0.49486667 -0.049008507 0.0520126
v -0.5000002 0 1.8626451E-08
v -0.47967654 -0.09754512 0.10195842
v -0.4972611 0 0.052264266
v -0.49759254 0.049008507 1.853676E-08
v -0.48671892 -0.049008507 0.10345532
v -0.4663913 -0.09754512 0.15153973
v -0.49486667 0.049008507 0.0520126
v -0.49039283 0.09754512 1.826855E-08
v -0.4877064 0.09754512 0.05126002
v -0.4732386 -0.049008507 0.15376456
v -0.44799608 -0.09754512 0.19946073
v -0.48907396 0 0.10395589
v -0.48671892 0.049008507 0.10345532
v -0.47967654 0.09754512 0.10195842
v -0.45457336 -0.049008507 0.2023891
v -0.42469257 -0.09754512 0.24519642
v -0.4755284 0 0.15450856
v -0.4732386 0.049008507 0.15376456
v -0.4663913 0.09754512 0.15153973
v -0.4309277 -0.049008507 0.24879627
v -0.39673606 -0.09754512 0.28824568
v -0.45677286 0 0.2033684
v -0.45457336 0.049008507 0.2023891
v -0.44799608 0.09754512 0.19946073
v -0.40256077 -0.049008507 0.29247758
v -0.3644328 -0.09754512 0.32813686
v -0.4330128 0 0.2500001
v -0.4309277 0.049008507 0.24879627
v -0.42469257 0.09754512 0.24519642
v -0.36978325 -0.049008507 0.3329544
v -0.32813674 -0.09754512 0.36443287
v -0.4045086 0 0.29389274
v -0.40256077 0.049008507 0.29247758
v -0.39673606 0.09754512 0.28824568
v -0.33295432 -0.049008507 0.3697833
v -0.2882456 -0.09754512 0.39673606
v -0.37157243 0 0.33456543
v -0.36978325 0.049008507 0.3329544
v -0.3644328 0.09754512 0.32813686
v -0.2924775 -0.049008507 0.40256077
v -0.24519631 -0.09754512 0.42469257
v -0.33456534 0 0.37157252
v -0.33295432 0.049008507 0.3697833
v -0.32813674 0.09754512 0.36443287
v -0.24879616 -0.049008507 0.4309277
v -0.19946064 -0.09754512 0.44799605
v -0.29389265 0 0.4045086
v -0.2924775 0.049008507 0.40256077
v -0.2882456 0.09754512 0.39673606
v -0.20238903 -0.049008507 0.45457327
v -0.15153964 -0.09754512 0.46639118
v -0.25 0 0.43301275
v -0.24879616 0.049008507 0.4309277
v -0.24519631 0.09754512 0.42469257
v -0.15376446 -0.049008507 0.47323853
v -0.10195832 -0.09754512 0.47967646
v -0.20336829 0 0.45677274
v -0.20238903 0.049008507 0.45457327
v -0.19946064 0.09754512 0.44799605
v -0.10345522 -0.049008507 0.4867188
v -0.051259946 -0.09754512 0.48770633
v -0.15450847 0 0.47552833
v -0.15376446 0.049008507 0.47323853
v -0.15153964 0.09754512 0.46639118
v -0.052012518 -0.049008507 0.49486658
v 5.115194E-08 -0.09754512 0.4903927
v -0.1039558 0 0.4890739
v -0.10345522 0.049008507 0.4867188
v -0.10195832 0.09754512 0.47967646
v 5.1902923E-08 -0.049008507 0.49759242
v 0.051260047 -0.09754512 0.48770627
v -0.052264187 0 0.497261
v -0.052012518 0.049008507 0.49486658
v -0.051259946 0.09754512 0.48770633
v 0.052012622 -0.049008507 0.49486655
v 0.10195842 -0.09754512 0.47967646
v 5.2154064E-08 0 0.50000006
v 5.1902923E-08 0.049008507 0.49759242
v 5.115194E-08 0.09754512 0.4903927
v 0.103455335 -0.049008507 0.4867188
v 0.15153973 -0.09754512 0.46639118
v 0.052264284 0 0.49726096
v 0.052012622 0.049008507 0.49486655
v 0.051260047 0.09754512 0.48770627
v 0.15376456 -0.049008507 0.47323847
v 0.19946072 -0.09754512 0.447996
v 0.103955895 0 0.48907384
v 0.103455335 0.049008507 0.4867188
v 0.10195842 0.09754512 0.47967646
v 0.2023891 -0.049008507 0.45457324
v 0.24519637 -0.09754512 0.42469248
v 0.15450856 0 0.4755283
v 0.15376456 0.049008507 0.47323847
v 0.15153973 0.09754512 0.46639118
v 0.24879625 -0.049008507 0.4309276
v 0.2882456 -0.09754512 0.396736
v 0.20336837 0 0.4567727
v 0.2023891 0.049008507 0.45457324
v 0.19946072 0.09754512 0.447996
v 0.29247752 -0.049008507 0.40256068
v 0.32813677 -0.09754512 0.36443275
v 0.25000006 0 0.4330127
v 0.24879625 0.049008507 0.4309276
v 0.24519637 0.09754512 0.42469248
v 0.33295432 -0.049008507 0.3697832
v 0.3644328 -0.09754512 0.3281367
v 0.29389268 0 0.4045085
v 0.29247752 0.049008507 0.40256068
v 0.2882456 0.09754512 0.396736
v 0.36978325 -0.049008507 0.33295426
v 0.39673603 -0.09754512 0.28824553
v 0.33456537 0 0.3715724
v 0.33295432 0.049008507 0.3697832
v 0.32813677 0.09754512 0.36443275
v 0.4025607 -0.049008507 0.29247746
v 0.42469248 -0.09754512 0.24519631
v 0.37157243 0 0.3345653
v 0.36978325 0.049008507 0.33295426
v 0.3644328 0.09754512 0.3281367
v 0.4309276 -0.049008507 0.24879616
v 0.447996 -0.09754512 0.19946066
v 0.4045085 0 0.29389262
v 0.4025607 0.049008507 0.29247746
v 0.39673603 0.09754512 0.28824553
v 0.45457324 -0.049008507 0.20238905
v 0.46639115 -0.09754512 0.15153967
v 0.4330127 0 0.25
v 0.4309276 0.049008507 0.24879616
v 0.42469248 0.09754512 0.24519631
v 0.47323844 -0.049008507 0.1537645
v 0.47967643 -0.09754512 0.101958364
v 0.4567727 0 0.20336832
v 0.45457324 0.049008507 0.20238905
v 0.447996 0.09754512 0.19946066
v 0.48671877 -0.049008507 0.10345527
v 0.48770624 -0.09754512 0.051259987
v 0.4755283 0 0.1545085
v 0.47323844 0.049008507 0.1537645
v 0.46639115 0.09754512 0.15153967
v 0.49486652 -0.049008507 0.052012566
v 0.49039263 -0.09754512 0
v 0.49759233 -0.049008507 0
v 0.4890738 0 0.10395585
v 0.48671877 0.049008507 0.10345527
v 0.47967643 0.09754512 0.101958364
v 0.49726096 0 0.052264232
v 0.5 0 0
v 0.49486652 0.049008507 0.052012566
v 0.48770624 0.09754512 0.051259987
v 0.49759233 0.049008507 0
v 0.49039263 0.09754512 0
vt 0 0.000120693585
vt 0 0.24825975
vt 0.03334278 0.00012063398
vt 0.03334278 0.24825975
vt 0 0.5
vt 0.066685736 0.00012063398
vt 0.03334278 0.5
vt 0 0.7517394
vt 0.066685736 0.24825975
vt 0.100028545 0.00012063398
vt 0.03334278 0.7517394
vt 0 0.9989703
vt 0.03334278 0.9989703
vt 0.100028545 0.24825975
vt 0.13337132 0.000120693585
vt 0.066685736 0.5
vt 0.066685736 0.7517394
vt 0.066685736 0.9989703
vt 0.13337132 0.24825975
vt 0.16671428 0.00012063398
vt 0.100028545 0.5
vt 0.100028545 0.7517394
vt 0.100028545 0.9989703
vt 0.16671428 0.24825975
vt 0.20005703 0.000120693585
vt 0.13337132 0.5
vt 0.13337132 0.7517394
vt 0.13337132 0.9989703
vt 0.20005703 0.24825975
vt 0.23340002 0.00012063398
vt 0.16671428 0.5
vt 0.16671428 0.7517394
vt 0.16671428 0.9989703
vt 0.23340002 0.24825975
vt 0.26674283 0.000120693585
vt 0.20005703 0.5
vt 0.20005703 0.7517394
vt 0.20005703 0.9989703
vt 0.26674283 0.24825975
vt 0.30008557 0.00012063398
vt 0.23340002 0.5
vt 0.23340002 0.7517394
vt 0.23340002 0.9989703
vt 0.30008557 0.24825975
vt 0.33342862 0.00012063398
vt 0.26674283 0.5
vt 0.26674283 0.7517394
vt 0.26674283 0.9989703
vt 0.33342862 0.24825975
vt 0.36677122 0.00012063398
vt 0.30008557 0.5
vt 0.30008557 0.7517393
vt 0.30008557 0.9989703
vt 0.36677122 0.24825975
vt 0.4001143 0.00012063398
vt 0.33342862 0.5
vt 0.33342862 0.7517393
vt 0.33342862 0.9989703
vt 0.4001143 0.24825975
vt 0.43345702 0.00012063398
vt 0.36677122 0.5
vt 0.36677122 0.7517393
vt 0.36677122 0.9989703
vt 0.43345702 0.24825975
vt 0.4668 0.00012063398
vt 0.4001143 0.5
vt 0.4001143 0.7517393
vt 0.4001143 0.9989703
vt 0.4668 0.24825975
vt 0.5001427 0.000120693585
vt 0.43345702 0.5
vt 0.43345702 0.7517393
vt 0.43345702 0.9989703
vt 0.5001427 0.24825975
vt 0.5334856 0.000120693585
vt 0.4668 0.5
vt 0.4668 0.7517393
vt 0.4668 0.9989703
vt 0.5334856 0.24825975
vt 0.5668283 0.000120693585
vt 0.5001427 0.5
vt 0.5001427 0.7517393
vt 0.5001427 0.9989703
vt 0.5668283 0.24825975
vt 0.60017115 0.000120693585
vt 0.5334856 0.5
vt 0.5334856 0.7517393
vt 0.5334856 0.9989703
vt 0.60017115 0.24825975
vt 0.63351345 0.00012063398
vt 0.5668283 0.5
vt 0.5668283 0.7517393
vt 0.5668283 0.9989703
vt 0.63351387 0.24825975
vt 0.6668568 0.000120693585
vt 0.60017115 0.5
vt 0.60017115 0.7517393
vt 0.60017115 0.9989703
vt 0.6668568 0.24825975
vt 0.700199 0.00012063398
vt 0.63351387 0.5
vt 0.63351387 0.7517393
vt 0.63351345 0.9989703
vt 0.700199 0.24825975
vt 0.733542 0.000120693585
vt 0.6668568 0.5
vt 0.6668568 0.7517393
vt 0.6668568 0.9989703
vt 0.733542 0.24825975
vt 0.7668837 0.00012063398
vt 0.700199 0.5
vt 0.700199 0.7517393
vt 0.700199 0.9989703
vt 0.7668837 0.24825975
vt 0.80022466 0.000120693585
vt 0.733542 0.5
vt 0.733542 0.7517393
vt 0.733542 0.9989703
vt 0.80022466 0.24825975
vt 0.8335635 0.000120693585
vt 0.7668837 0.5
vt 0.7668837 0.7517393
vt 0.7668837 0.9989703
vt 0.8335635 0.24825975
vt 0.8668988 0.00012063398
vt 0.80022466 0.5
vt 0.80022466 0.7517393
vt 0.80022466 0.9989703
vt 0.8668988 0.24825975
vt 0.9002258 0.00012063398
vt 0.8335635 0.5
vt 0.8335635 0.7517393
vt 0.8335635 0.9989703
vt 0.9002258 0.24825975
vt 0.9335352 0.00012063398
vt 0.8668988 0.5
vt 0.86689943 0.7517393
vt 0.8668988 0.9989703
vt 0.9335352 0.24825975
vt 0.9668063 0.00012063398
vt 0.9002258 0.5
vt 0.9002258 0.7517393
vt 0.9002258 0.9989703
vt 0.9668063 0.24825975
vt 0.99972606 0.000120693585
vt 0.99972606 0.24825975
vt 0.9335352 0.5
vt 0.9335352 0.7517393
vt 0.9335352 0.9989703
vt 0.9668063 0.5
vt 0.99972606 0.5
vt 0.9668063 0.7517393
vt 0.9668063 0.9989703
vt 0.99972606 0.7517393
vt 0.99972606 0.9989703
vn -0.98785 -0.1465339 0.05177103
vn -0.99386746 -0.09754195 0.052086446
vn -0.98377824 -0.1467305 0.10320168
vn -0.98977405 -0.0977358 0.10389941
vn -0.99862957 6.1832616E-05 0.052336175
vn -0.96760154 -0.14673045 0.20546888
vn -0.99452186 -2.4142983E-07 0.10452854
vn -0.99385554 0.09766318 0.05208588
vn -0.97349155 -0.09773567 0.20678975
vn -0.9408234 -0.14673103 0.30548558
vn -0.98974705 0.09773562 0.104156926
vn -0.98785 0.14653412 0.051771075
vn -0.98373705 0.14673103 0.103592955
vn -0.94654316 -0.09773562 0.3074148
vn -0.9037376 -0.14673017 0.4021551
vn -0.97814757 1.2702925E-07 0.20791186
vn -0.97343767 0.09773571 0.20704326
vn -0.96751964 0.1467307 0.20585404
vn -0.9092242 -0.097735554 0.40467152
vn -0.85675037 -0.14672974 0.49441805
vn -0.9510565 4.3977374E-07 0.30901718
vn -0.94646317 0.097735725 0.3076609
vn -0.94070184 0.1467306 0.30585963
vn -0.8619439 -0.09773562 0.49749413
vn -0.80037653 -0.14672974 0.58126396
vn -0.9135453 0 0.40673688
vn -0.9091189 0.097735696 0.40490812
vn -0.9035774 0.14673056 0.40251473
vn -0.80522 -0.09773559 0.58486617
vn -0.73523235 -0.14673027 0.66174287
vn -0.86602527 1.2182922E-07 0.50000036
vn -0.86181444 0.09773552 0.49771842
vn -0.8565538 0.14672971 0.4947587
vn -0.73967344 -0.09773588 0.6658311
vn -0.6620343 -0.14673057 0.73496985
vn -0.8090169 4.1228785E-07 0.5877854
vn -0.8050676 0.09773548 0.585076
vn -0.8001452 0.14672978 0.5815824
vn -0.66602314 -0.097735606 0.73950046
vn -0.58158207 -0.14673062 0.8001452
vn -0.7431448 0 0.6691307
vn -0.7395003 0.09773501 0.6660234
vn -0.73496974 0.1467298 0.6620346
vn -0.58507526 -0.09773558 0.80506814
vn -0.49475867 -0.14673004 0.8565537
vn -0.6691302 1.71601E-07 0.74314517
vn -0.66583025 0.09773596 0.73967415
vn -0.66174114 0.14673099 0.7352338
vn -0.49771792 -0.09773533 0.86181474
vn -0.4025138 -0.14672962 0.9035779
vn -0.58778465 -2.1468688E-07 0.80901736
vn -0.58486575 0.09773564 0.80522037
vn -0.581264 0.1467301 0.80037636
vn -0.40490726 -0.097735114 0.90911937
vn -0.3058602 -0.14673005 0.9407017
vn -0.49999964 0 0.8660256
vn -0.49749357 0.09773525 0.86194426
vn -0.4944182 0.14672975 0.85675025
vn -0.30766067 -0.0977355 0.9464633
vn -0.2058549 -0.14672977 0.9675195
vn -0.4067366 0 0.91354555
vn -0.4046709 0.09773498 0.9092246
vn -0.40215406 0.14672981 0.9037381
vn -0.20704328 -0.09773566 0.97343767
vn -0.1035931 -0.14672995 0.9837372
vn -0.3090174 -1.5228655E-07 0.9510565
vn -0.30741444 0.097735636 0.9465433
vn -0.3054847 0.14673018 0.9408238
vn -0.10415672 -0.09773522 0.98974705
vn -0.00019667485 -0.1467301 0.9891766
vn -0.20791152 1.2777214E-07 0.9781477
vn -0.20678967 0.0977356 0.97349155
vn -0.20546918 0.14672975 0.96760154
vn -0.00012949647 -0.09773536 0.99521244
vn 0.10320198 -0.14673007 0.98377824
vn -0.10452815 1.1217204E-07 0.99452186
vn -0.103899434 0.097735025 0.9897741
vn -0.10320106 0.14673005 0.98377836
vn 0.10389947 -0.09773505 0.9897741
vn 0.20546883 -0.1467297 0.96760166
vn 7.398898E-07 0 1
vn 0.00013010854 0.097735375 0.99521244
vn 0.00019699644 0.14673011 0.9891766
vn 0.20678985 -0.09773519 0.97349155
vn 0.30548632 -0.14672972 0.94082326
vn 0.10452872 0 0.99452186
vn 0.10415644 0.09773513 0.98974705
vn 0.103592806 0.14672995 0.9837372
vn 0.30741477 -0.097735316 0.94654316
vn 0.4021553 -0.14673007 0.9037375
vn 0.20791155 -1.2480069E-07 0.9781477
vn 0.20704299 0.097735405 0.9734378
vn 0.20585434 0.14672963 0.96751976
vn 0.40467083 -0.09773533 0.9092246
vn 0.49441844 -0.14673004 0.8567501
vn 0.3090174 0 0.95105636
vn 0.30766138 0.097735256 0.94646305
vn 0.30585998 0.14672974 0.94070196
vn 0.49749357 -0.09773536 0.86194426
vn 0.5812644 -0.14673077 0.80037606
vn 0.40673715 1.18857784E-07 0.91354525
vn 0.4049078 0.09773536 0.90911907
vn 0.40251428 0.1467303 0.90357757
vn 0.5848661 -0.09773577 0.80522007
vn 0.66174215 -0.14673102 0.7352328
vn 0.50000006 0 0.8660253
vn 0.49771827 0.09773534 0.86181456
vn 0.49475908 0.14673027 0.8565533
vn 0.66583085 -0.09773562 0.7396736
vn 0.73496985 -0.1467307 0.6620343
vn 0.58778507 -2.1765837E-07 0.8090171
vn 0.585076 0.097735584 0.80506766
vn 0.5815824 0.14673036 0.800145
vn 0.73950034 -0.09773537 0.66602325
vn 0.80014515 -0.14673083 0.5815822
vn 0.6691308 -1.4485796E-07 0.7431446
vn 0.66602397 0.09773577 0.7394997
vn 0.6620342 0.14673081 0.7349699
vn 0.8050679 -0.0977354 0.5850756
vn 0.8565537 -0.14673057 0.49475843
vn 0.743145 -1.3148649E-07 0.6691304
vn 0.739674 0.09773534 0.6658305
vn 0.73523295 0.14673086 0.66174203
vn 0.8618146 -0.09773501 0.49771816
vn 0.90357774 -0.14672945 0.40251428
vn 0.8090171 -1.7680107E-07 0.587785
vn 0.80522025 0.09773519 0.584866
vn 0.80037653 0.14673062 0.5812638
vn 0.9091192 -0.097735174 0.4049077
vn 0.940702 -0.14672948 0.3058597
vn 0.8660255 0 0.49999985
vn 0.8619442 0.09773538 0.49749383
vn 0.8567504 0.14673008 0.49441785
vn 0.94646317 -0.09773572 0.3076609
vn 0.96751964 -0.14673044 0.2058539
vn 0.9135453 -2.8228723E-07 0.40673682
vn 0.90922433 0.09773601 0.4046712
vn 0.90373766 0.14673083 0.4021546
vn 0.97343767 -0.09773574 0.20704311
vn 0.9837372 -0.14673047 0.103592455
vn 0.9510565 -1.4782941E-07 0.30901715
vn 0.9465433 0.09773567 0.3074144
vn 0.9408237 0.14672923 0.3054855
vn 0.98974705 -0.09773531 0.10415658
vn 0.98785 -0.14653352 0.051770363
vn 0.99385566 -0.097663045 0.052085176
vn 0.97814757 0 0.20791164
vn 0.97349155 0.097735114 0.20678991
vn 0.96760166 0.14672926 0.20546915
vn 0.99452186 0 0.10452819
vn 0.99862957 -6.194242E-05 0.052335456
vn 0.98977405 0.097735904 0.10389898
vn 0.98377824 0.14673105 0.10320096
vn 0.9938676 0.09754192 0.052085735
vn 0.9878501 0.14653265 0.051770337
g Md_CMN_RingHalf_00_0
f 3/3/3 2/2/2 1/1/1
f 3/3/3 4/4/4 2/2/2
f 4/4/4 5/5/5 2/2/2
f 6/6/6 4/4/4 3/3/3
f 4/4/4 7/7/7 5/5/5
f 7/7/7 8/8/8 5/5/5
f 6/6/6 9/9/9 4/4/4
f 9/9/9 7/7/7 4/4/4
f 10/10/10 9/9/9 6/6/6
f 7/7/7 11/11/11 8/8/8
f 11/11/11 12/12/12 8/8/8
f 11/11/11 13/13/13 12/12/12
f 10/10/10 14/14/14 9/9/9
f 15/15/15 14/14/14 10/10/10
f 9/9/9 16/16/16 7/7/7
f 16/16/16 11/11/11 7/7/7
f 14/14/14 16/16/16 9/9/9
f 17/17/17 13/13/13 11/11/11
f 16/16/16 17/17/17 11/11/11
f 17/17/17 18/18/18 13/13/13
f 15/15/15 19/19/19 14/14/14
f 20/20/20 19/19/19 15/15/15
f 14/14/14 21/21/21 16/16/16
f 21/21/21 17/17/17 16/16/16
f 19/19/19 21/21/21 14/14/14
f 22/22/22 18/18/18 17/17/17
f 21/21/21 22/22/22 17/17/17
f 22/22/22 23/23/23 18/18/18
f 20/20/20 24/24/24 19/19/19
f 25/25/25 24/24/24 20/20/20
f 19/19/19 26/26/26 21/21/21
f 26/26/26 22/22/22 21/21/21
f 24/24/24 26/26/26 19/19/19
f 27/27/27 23/23/23 22/22/22
f 26/26/26 27/27/27 22/22/22
f 27/27/27 28/28/28 23/23/23
f 25/25/25 29/29/29 24/24/24
f 30/30/30 29/29/29 25/25/25
f 24/24/24 31/31/31 26/26/26
f 31/31/31 27/27/27 26/26/26
f 29/29/29 31/31/31 24/24/24
f 32/32/32 28/28/28 27/27/27
f 31/31/31 32/32/32 27/27/27
f 32/32/32 33/33/33 28/28/28
f 30/30/30 34/34/34 29/29/29
f 35/35/35 34/34/34 30/30/30
f 29/29/29 36/36/36 31/31/31
f 36/36/36 32/32/32 31/31/31
f 34/34/34 36/36/36 29/29/29
f 37/37/37 33/33/33 32/32/32
f 36/36/36 37/37/37 32/32/32
f 37/37/37 38/38/38 33/33/33
f 35/35/35 39/39/39 34/34/34
f 40/40/40 39/39/39 35/35/35
f 34/34/34 41/41/41 36/36/36
f 41/41/41 37/37/37 36/36/36
f 39/39/39 41/41/41 34/34/34
f 42/42/42 38/38/38 37/37/37
f 41/41/41 42/42/42 37/37/37
f 42/42/42 43/43/43 38/38/38
f 40/40/40 44/44/44 39/39/39
f 45/45/45 44/44/44 40/40/40
f 39/39/39 46/46/46 41/41/41
f 46/46/46 42/42/42 41/41/41
f 44/44/44 46/46/46 39/39/39
f 47/47/47 43/43/43 42/42/42
f 46/46/46 47/47/47 42/42/42
f 47/47/47 48/48/48 43/43/43
f 45/45/45 49/49/49 44/44/44
f 50/50/50 49/49/49 45/45/45
f 44/44/44 51/51/51 46/46/46
f 51/51/51 47/47/47 46/46/46
f 49/49/49 51/51/51 44/44/44
f 52/52/52 48/48/48 47/47/47
f 51/51/51 52/52/52 47/47/47
f 52/52/52 53/53/53 48/48/48
f 50/50/50 54/54/54 49/49/49
f 55/55/55 54/54/54 50/50/50
f 49/49/49 56/56/56 51/51/51
f 56/56/56 52/52/52 51/51/51
f 54/54/54 56/56/56 49/49/49
f 57/57/57 53/53/53 52/52/52
f 56/56/56 57/57/57 52/52/52
f 57/57/57 58/58/58 53/53/53
f 55/55/55 59/59/59 54/54/54
f 60/60/60 59/59/59 55/55/55
f 54/54/54 61/61/61 56/56/56
f 61/61/61 57/57/57 56/56/56
f 59/59/59 61/61/61 54/54/54
f 62/62/62 58/58/58 57/57/57
f 61/61/61 62/62/62 57/57/57
f 62/62/62 63/63/63 58/58/58
f 60/60/60 64/64/64 59/59/59
f 65/65/65 64/64/64 60/60/60
f 59/59/59 66/66/66 61/61/61
f 66/66/66 62/62/62 61/61/61
f 64/64/64 66/66/66 59/59/59
f 67/67/67 63/63/63 62/62/62
f 66/66/66 67/67/67 62/62/62
f 67/67/67 68/68/68 63/63/63
f 65/65/65 69/69/69 64/64/64
f 70/70/70 69/69/69 65/65/65
f 64/64/64 71/71/71 66/66/66
f 71/71/71 67/67/67 66/66/66
f 69/69/69 71/71/71 64/64/64
f 72/72/72 68/68/68 67/67/67
f 71/71/71 72/72/72 67/67/67
f 72/72/72 73/73/73 68/68/68
f 70/70/70 74/74/74 69/69/69
f 75/75/75 74/74/74 70/70/70
f 69/69/69 76/76/76 71/71/71
f 76/76/76 72/72/72 71/71/71
f 74/74/74 76/76/76 69/69/69
f 77/77/77 73/73/73 72/72/72
f 76/76/76 77/77/77 72/72/72
f 77/77/77 78/78/78 73/73/73
f 75/75/75 79/79/79 74/74/74
f 80/80/80 79/79/79 75/75/75
f 74/74/74 81/81/81 76/76/76
f 81/81/81 77/77/77 76/76/76
f 79/79/79 81/81/81 74/74/74
f 82/82/82 78/78/78 77/77/77
f 81/81/81 82/82/82 77/77/77
f 82/82/82 83/83/83 78/78/78
f 80/80/80 84/84/84 79/79/79
f 85/85/85 84/84/84 80/80/80
f 79/79/79 86/86/86 81/81/81
f 86/86/86 82/82/82 81/81/81
f 84/84/84 86/86/86 79/79/79
f 87/87/87 83/83/83 82/82/82
f 86/86/86 87/87/87 82/82/82
f 87/87/87 88/88/88 83/83/83
f 85/85/85 89/89/89 84/84/84
f 90/90/90 89/89/89 85/85/85
f 84/84/84 91/91/91 86/86/86
f 91/91/91 87/87/87 86/86/86
f 89/89/89 91/91/91 84/84/84
f 92/92/92 88/88/88 87/87/87
f 91/91/91 92/92/92 87/87/87
f 92/92/92 93/93/93 88/88/88
f 90/90/90 94/94/94 89/89/89
f 95/95/95 94/94/94 90/90/90
f 89/89/89 96/96/96 91/91/91
f 96/96/96 92/92/92 91/91/91
f 94/94/94 96/96/96 89/89/89
f 97/97/97 93/93/93 92/92/92
f 96/96/96 97/97/97 92/92/92
f 97/97/97 98/98/98 93/93/93
f 95/95/95 99/99/99 94/94/94
f 100/100/100 99/99/99 95/95/95
f 94/94/94 101/101/101 96/96/96
f 101/101/101 97/97/97 96/96/96
f 99/99/99 101/101/101 94/94/94
f 102/102/102 98/98/98 97/97/97
f 101/101/101 102/102/102 97/97/97
f 102/102/102 103/103/103 98/98/98
f 100/100/100 104/104/104 99/99/99
f 105/105/105 104/104/104 100/100/100
f 99/99/99 106/106/106 101/101/101
f 106/106/106 102/102/102 101/101/101
f 104/104/104 106/106/106 99/99/99
f 107/107/107 103/103/103 102/102/102
f 106/106/106 107/107/107 102/102/102
f 107/107/107 108/108/108 103/103/103
f 105/105/105 109/109/109 104/104/104
f 110/110/110 109/109/109 105/105/105
f 104/104/104 111/111/111 106/106/106
f 111/111/111 107/107/107 106/106/106
f 109/109/109 111/111/111 104/104/104
f 112/112/112 108/108/108 107/107/107
f 111/111/111 112/112/112 107/107/107
f 112/112/112 113/113/113 108/108/108
f 110/110/110 114/114/114 109/109/109
f 115/115/115 114/114/114 110/110/110
f 109/109/109 116/116/116 111/111/111
f 116/116/116 112/112/112 111/111/111
f 114/114/114 116/116/116 109/109/109
f 117/117/117 113/113/113 112/112/112
f 116/116/116 117/117/117 112/112/112
f 117/117/117 118/118/118 113/113/113
f 115/115/115 119/119/119 114/114/114
f 120/120/120 119/119/119 115/115/115
f 114/114/114 121/121/121 116/116/116
f 121/121/121 117/117/117 116/116/116
f 119/119/119 121/121/121 114/114/114
f 122/122/122 118/118/118 117/117/117
f 121/121/121 122/122/122 117/117/117
f 122/122/122 123/123/123 118/118/118
f 120/120/120 124/124/124 119/119/119
f 125/125/125 124/124/124 120/120/120
f 119/119/119 126/126/126 121/121/121
f 126/126/126 122/122/122 121/121/121
f 124/124/124 126/126/126 119/119/119
f 127/127/127 123/123/123 122/122/122
f 126/126/126 127/127/127 122/122/122
f 127/127/127 128/128/128 123/123/123
f 125/125/125 129/129/129 124/124/124
f 130/130/130 129/129/129 125/125/125
f 124/124/124 131/131/131 126/126/126
f 131/131/131 127/127/127 126/126/126
f 129/129/129 131/131/131 124/124/124
f 132/132/132 128/128/128 127/127/127
f 131/131/131 132/132/132 127/127/127
f 132/132/132 133/133/133 128/128/128
f 130/130/130 134/134/134 129/129/129
f 135/135/135 134/134/134 130/130/130
f 129/129/129 136/136/136 131/131/131
f 136/136/136 132/132/132 131/131/131
f 134/134/134 136/136/136 129/129/129
f 137/137/137 133/133/133 132/132/132
f 136/136/136 137/137/137 132/132/132
f 137/137/137 138/138/138 133/133/133
f 135/135/135 139/139/139 134/134/134
f 140/140/140 139/139/139 135/135/135
f 134/134/134 141/141/141 136/136/136
f 141/141/141 137/137/137 136/136/136
f 139/139/139 141/141/141 134/134/134
f 142/142/142 138/138/138 137/137/137
f 141/141/141 142/142/142 137/137/137
f 142/142/142 143/143/143 138/138/138
f 140/140/140 144/144/144 139/139/139
f 145/145/145 144/144/144 140/140/140
f 145/145/145 146/146/146 144/144/144
f 139/139/139 147/147/147 141/141/141
f 147/147/147 142/142/142 141/141/141
f 144/144/144 147/147/147 139/139/139
f 148/148/148 143/143/143 142/142/142
f 147/147/147 148/148/148 142/142/142
f 148/148/148 149/149/149 143/143/143
f 146/146/146 150/150/150 144/144/144
f 144/144/144 150/150/150 147/147/147
f 150/150/150 148/148/148 147/147/147
f 146/146/146 151/151/151 150/150/150
f 152/152/152 149/149/149 148/148/148
f 150/150/150 152/152/152 148/148/148
f 151/151/151 152/152/152 150/150/150
f 152/152/152 153/153/153 149/149/149
f 151/151/151 154/154/154 152/152/152
f 154/154/154 153/153/153 152/152/152
f 154/154/154 155/155/155 153/153/153
