g Md_CMN_Circle_03
v 0.24999994 0 -3.8146972E-08
v 0.24879602 0 -0.024504231
v 0.4999999 0 -3.8146972E-08
v 0.49759215 0 -0.04900843
v 0.49039245 0 -0.09754501
v 0.24519618 0 -0.048772525
v 0.23923495 0 -0.0725711
v 0.47847 0 -0.14514217
v 0.23096974 0 -0.09567078
v 0.46193954 0 -0.19134153
v 0.44096047 0 -0.23569816
v 0.2204802 0 -0.1178491
v 0.4157347 0 -0.27778494
v 0.20786731 0 -0.13889247
v 0.38650513 0 -0.3171965
v 0.19325253 0 -0.15859824
v 0.3535533 0 -0.35355324
v 0.17677663 0 -0.17677662
v 0.15859827 0 -0.19325253
v 0.3171966 0 -0.38650504
v 0.13889253 0 -0.20786732
v 0.27778512 0 -0.41573462
v 0.117849156 0 -0.22048025
v 0.23569837 0 -0.44096047
v 0.09567085 0 -0.23096983
v 0.19134174 0 -0.46193957
v 0.14514238 0 -0.47847
v 0.07257116 0 -0.23923501
v 0.048772577 0 -0.24519628
v 0.097545214 0 -0.49039254
v 0.049008634 0 -0.49759227
v 0.024504289 0 -0.24879614
v 1.3560056E-08 0 -0.24999996
v 8.434057E-08 0 -0.49999988
v -0.024504265 0 -0.24879615
v -0.049008474 0 -0.49759227
v -0.09754506 0 -0.49039257
v -0.048772555 0 -0.2451963
v -0.072571136 0 -0.23923507
v -0.14514221 0 -0.47847012
v -0.19134161 0 -0.4619397
v -0.095670834 0 -0.23096988
v -0.11784915 0 -0.22048032
v -0.23569824 0 -0.44096062
v -0.277785 0 -0.41573483
v -0.13889253 0 -0.20786743
v -0.31719655 0 -0.38650525
v -0.1585983 0 -0.19325264
v -0.17677668 0 -0.1767767
v -0.3535533 0 -0.35355338
v -0.19325258 0 -0.15859835
v -0.38650513 0 -0.31719667
v -0.4157347 0 -0.27778515
v -0.20786737 0 -0.13889259
v -0.22048031 0 -0.11784923
v -0.44096053 0 -0.23569843
v -0.4619397 0 -0.19134177
v -0.23096986 0 -0.09567091
v -0.23923507 0 -0.07257123
v -0.47847006 0 -0.14514242
v -0.49039254 0 -0.09754526
v -0.2451963 0 -0.048772648
v -0.4975923 0 -0.049008682
v -0.24879616 0 -0.02450436
v -0.25 0 -8.2850455E-08
v -0.4999999 0 -1.2755393E-07
v -0.2487962 0 0.024504198
v -0.4975923 0 0.04900843
v -0.4903926 0 0.09754502
v -0.24519634 0 0.04877249
v -0.23923509 0 0.07257108
v -0.47847015 0 0.14514218
v -0.4619397 0 0.19134156
v -0.2309699 0 0.095670775
v -0.22048034 0 0.11784909
v -0.44096062 0 0.23569822
v -0.41573486 0 0.27778497
v -0.20786744 0 0.13889246
v -0.38650528 0 0.31719652
v -0.19325265 0 0.15859823
v -0.17677672 0 0.17677662
v -0.35355338 0 0.35355327
v -0.15859838 0 0.19325252
v -0.3171967 0 0.38650507
v -0.13889262 0 0.20786731
v -0.27778518 0 0.41573465
v -0.117849246 0 0.22048023
v -0.23569843 0 0.4409605
v -0.09567092 0 0.2309698
v -0.19134177 0 0.4619396
v -0.1451424 0 0.47847003
v -0.072571225 0 0.239235
v -0.09754523 0 0.49039254
v -0.048772644 0 0.24519624
v -0.024504356 0 0.24879612
v -0.049008656 0 0.49759227
v -7.398426E-08 0 0.24999993
v -9.074807E-08 0 0.49999988
v 0.024504209 0 0.24879612
v 0.049008474 0 0.49759227
v 0.048772503 0 0.24519627
v 0.09754506 0 0.49039257
v 0.072571084 0 0.23923501
v 0.14514221 0 0.47847006
v 0.19134161 0 0.46193966
v 0.095670775 0 0.23096983
v 0.1178491 0 0.22048026
v 0.23569825 0 0.44096056
v 0.13889247 0 0.20786735
v 0.277785 0 0.41573477
v 0.31719655 0 0.38650516
v 0.15859824 0 0.19325256
v 0.17677662 0 0.17677665
v 0.3535533 0 0.35355335
v 0.19325253 0 0.15859827
v 0.38650513 0 0.31719658
v 0.20786732 0 0.13889252
v 0.4157347 0 0.2777851
v 0.22048025 0 0.11784915
v 0.44096053 0 0.23569833
v 0.2309698 0 0.09567082
v 0.4619397 0 0.19134168
v 0.23923501 0 0.072571136
v 0.47847006 0 0.14514232
v 0.49039254 0 0.097545125
v 0.24519624 0 0.048772544
v 0.24879612 0 0.024504246
v 0.4975923 0 0.04900853
v 0.24999994 0 -3.8146972E-08
v 0.4999999 0 -3.8146972E-08
vt 0.00050747395 0.9992211
vt 0.010996431 0.9992211
vt 0.0002565384 0.0007790923
vt 0.018600523 0.0007790923
vt 0.037109077 0.0007790923
vt 0.022989511 0.999221
vt 0.035886824 0.99922097
vt 0.05535078 0.0007790923
vt 0.04938972 0.9992211
vt 0.07338154 0.0007790923
vt 0.09136903 0.0007790923
vt 0.06319517 0.99922097
vt 0.109015286 0.0007790923
vt 0.077448726 0.99922097
vt 0.1263017 0.0007790923
vt 0.092089415 0.999221
vt 0.14321333 0.0007790923
vt 0.10707116 0.999221
vt 0.12243217 0.99922097
vt 0.15964532 0.0007789135
vt 0.13797718 0.99922097
vt 0.17584354 0.0007789135
vt 0.15368563 0.9992211
vt 0.19181299 0.0007789135
vt 0.16954505 0.99922085
vt 0.20757782 0.0007789135
vt 0.223135 0.0007789135
vt 0.18552333 0.99922085
vt 0.20164818 0.99922085
vt 0.23845196 0.0007789135
vt 0.25361812 0.0007789135
vt 0.21786329 0.99922085
vt 0.23417646 0.99922085
vt 0.2686208 0.0007789135
vt 0.25051808 0.99922085
vt 0.28357673 0.0007789135
vt 0.29840738 0.0007789135
vt 0.2669332 0.99922085
vt 0.2834009 0.99922085
vt 0.31314623 0.0007789135
vt 0.32779944 0.0007789135
vt 0.2999186 0.99922085
vt 0.31647086 0.99922085
vt 0.3423913 0.0007789135
vt 0.3569401 0.0007789135
vt 0.3330481 0.99922085
vt 0.37136108 0.0007789135
vt 0.34969926 0.99922085
vt 0.36636376 0.99922085
vt 0.38575873 0.0007789135
vt 0.3829865 0.99922085
vt 0.40022954 0.0007789135
vt 0.41466984 0.0007789135
vt 0.3996258 0.99922085
vt 0.41626614 0.99922085
vt 0.4291093 0.0007789135
vt 0.44354853 0.0007789135
vt 0.4329059 0.99922085
vt 0.44954193 0.99922085
vt 0.45799395 0.0007789135
vt 0.47245786 0.0007789135
vt 0.46616805 0.99922085
vt 0.48683926 0.0007789135
vt 0.48284122 0.99922085
vt 0.49950492 0.99922085
vt 0.5012353 0.0007789135
vt 0.51612747 0.99922085
vt 0.5157221 0.0007789135
vt 0.53016776 0.0007789135
vt 0.5327622 0.99922085
vt 0.54937994 0.99922085
vt 0.54463696 0.0007789135
vt 0.5590784 0.0007789135
vt 0.56602573 0.99922085
vt 0.5826477 0.99922085
vt 0.573544 0.0007789135
vt 0.5879674 0.0007789135
vt 0.5992944 0.99922085
vt 0.6022771 0.0007789135
vt 0.61600584 0.99922085
vt 0.63269085 0.99922085
vt 0.6166296 0.0007789135
vt 0.64933145 0.99922085
vt 0.6310573 0.0007789135
vt 0.66593474 0.99922085
vt 0.6455481 0.0007789135
vt 0.68250114 0.99922085
vt 0.66010267 0.0007789135
vt 0.6990377 0.99922085
vt 0.6747342 0.0007789135
vt 0.68929887 0.0007789135
vt 0.7156112 0.99922085
vt 0.7037968 0.0007789135
vt 0.73220956 0.99922085
vt 0.7487369 0.99922085
vt 0.7184161 0.0007789135
vt 0.7651861 0.99922085
vt 0.73316544 0.0007789135
vt 0.7815566 0.99922085
vt 0.7480455 0.0007789135
vt 0.7978399 0.99922085
vt 0.76307034 0.0007789135
vt 0.8140298 0.99922085
vt 0.7782645 0.0007789135
vt 0.79344714 0.0007789135
vt 0.8302354 0.99922085
vt 0.8462312 0.9992208
vt 0.80893826 0.0007789135
vt 0.8620493 0.9992208
vt 0.8247167 0.0007789135
vt 0.8405616 0.0007789135
vt 0.8778118 0.9992208
vt 0.89325464 0.9992208
vt 0.85687697 0.0007787347
vt 0.90842056 0.9992208
vt 0.8735678 0.0007787347
vt 0.9232694 0.9992208
vt 0.89065206 0.0007787347
vt 0.9377513 0.9992208
vt 0.9081403 0.0007787347
vt 0.95180535 0.9992208
vt 0.9260292 0.0007787347
vt 0.96536666 0.9992208
vt 0.9442924 0.0007787347
vt 0.9626409 0.0007787347
vt 0.9785572 0.9992208
vt 0.9908315 0.9992208
vt 0.9814129 0.0007787347
vt 0.9999743 0.9992208
vt 0.9999743 0.0007787347
vn -0 1 0
vn -0 1 0
vn -0 1 0
vn -0 1 0
vn -0 1 0
vn -0 1 0
vn -0 1 0
vn -0 1 0
vn -0 1 0
vn -0 1 0
vn -0 1 0
vn -0 1 0
vn -0 1 0
vn -0 1 0
vn -0 1 0
vn -0 1 0
vn -0 1 0
vn -0 1 0
vn -0 1 0
vn -0 1 0
vn -0 1 0
vn -0 1 0
vn -0 1 0
vn -0 1 0
vn -0 1 0
vn -0 1 0
vn -0 1 0
vn -0 1 0
vn -0 1 0
vn -0 1 0
vn -0 1 0
vn -0 1 0
vn -0 1 0
vn -0 1 0
vn -0 1 0
vn -0 1 0
vn -0 1 0
vn -0 1 0
vn -0 1 0
vn -0 1 0
vn -0 1 0
vn -0 1 0
vn -0 1 0
vn -0 1 0
vn -0 1 0
vn -0 1 0
vn -0 1 0
vn -0 1 0
vn -0 1 0
vn -0 1 0
vn -0 1 0
vn -0 1 0
vn -0 1 0
vn -0 1 0
vn -0 1 0
vn -0 1 0
vn -0 1 0
vn -0 1 0
vn -0 1 0
vn -0 1 0
vn -0 1 0
vn -0 1 0
vn -0 1 0
vn -0 1 0
vn -0 1 0
vn -0 1 0
vn -0 1 0
vn -0 1 0
vn -0 1 0
vn -0 1 0
vn -0 1 0
vn -0 1 0
vn -0 1 0
vn -0 1 0
vn -0 1 0
vn -0 1 0
vn -0 1 0
vn -0 1 0
vn -0 1 0
vn -0 1 0
vn -0 1 0
vn -0 1 0
vn -0 1 0
vn -0 1 0
vn -0 1 0
vn -0 1 0
vn -0 1 0
vn -0 1 0
vn -0 1 0
vn -0 1 0
vn -0 1 0
vn -0 1 0
vn -0 1 0
vn -0 1 0
vn -0 1 0
vn -0 1 0
vn -0 1 0
vn -0 1 0
vn -0 1 0
vn -0 1 0
vn -0 1 0
vn -0 1 0
vn -0 1 0
vn -0 1 0
vn -0 1 0
vn -0 1 0
vn -0 1 0
vn -0 1 0
vn -0 1 0
vn -0 1 0
vn -0 1 0
vn -0 1 0
vn -0 1 0
vn -0 1 0
vn -0 1 0
vn -0 1 0
vn -0 1 0
vn -0 1 0
vn -0 1 0
vn -0 1 0
vn -0 1 0
vn -0 1 0
vn -0 1 0
vn -0 1 0
vn -0 1 0
vn -0 1 0
vn -0 1 0
vn -0 1 0
vn -0 1 0
vn -0 1 0
g Md_CMN_Circle_03_0
f 3/3/3 2/2/2 1/1/1
f 3/3/3 4/4/4 2/2/2
f 5/5/5 2/2/2 4/4/4
f 6/6/6 2/2/2 5/5/5
f 5/5/5 7/7/7 6/6/6
f 5/5/5 8/8/8 7/7/7
f 8/8/8 9/9/9 7/7/7
f 8/8/8 10/10/10 9/9/9
f 11/11/11 9/9/9 10/10/10
f 12/12/12 9/9/9 11/11/11
f 13/13/13 12/12/12 11/11/11
f 14/14/14 12/12/12 13/13/13
f 15/15/15 14/14/14 13/13/13
f 16/16/16 14/14/14 15/15/15
f 17/17/17 16/16/16 15/15/15
f 18/18/18 16/16/16 17/17/17
f 17/17/17 19/19/19 18/18/18
f 17/17/17 20/20/20 19/19/19
f 20/20/20 21/21/21 19/19/19
f 20/20/20 22/22/22 21/21/21
f 22/22/22 23/23/23 21/21/21
f 22/22/22 24/24/24 23/23/23
f 24/24/24 25/25/25 23/23/23
f 24/24/24 26/26/26 25/25/25
f 27/27/27 25/25/25 26/26/26
f 28/28/28 25/25/25 27/27/27
f 27/27/27 29/29/29 28/28/28
f 27/27/27 30/30/30 29/29/29
f 31/31/31 29/29/29 30/30/30
f 32/32/32 29/29/29 31/31/31
f 31/31/31 33/33/33 32/32/32
f 31/31/31 34/34/34 33/33/33
f 34/34/34 35/35/35 33/33/33
f 34/34/34 36/36/36 35/35/35
f 37/37/37 35/35/35 36/36/36
f 38/38/38 35/35/35 37/37/37
f 37/37/37 39/39/39 38/38/38
f 37/37/37 40/40/40 39/39/39
f 41/41/41 39/39/39 40/40/40
f 42/42/42 39/39/39 41/41/41
f 41/41/41 43/43/43 42/42/42
f 41/41/41 44/44/44 43/43/43
f 45/45/45 43/43/43 44/44/44
f 46/46/46 43/43/43 45/45/45
f 47/47/47 46/46/46 45/45/45
f 48/48/48 46/46/46 47/47/47
f 47/47/47 49/49/49 48/48/48
f 47/47/47 50/50/50 49/49/49
f 50/50/50 51/51/51 49/49/49
f 50/50/50 52/52/52 51/51/51
f 53/53/53 51/51/51 52/52/52
f 54/54/54 51/51/51 53/53/53
f 53/53/53 55/55/55 54/54/54
f 53/53/53 56/56/56 55/55/55
f 57/57/57 55/55/55 56/56/56
f 58/58/58 55/55/55 57/57/57
f 57/57/57 59/59/59 58/58/58
f 57/57/57 60/60/60 59/59/59
f 61/61/61 59/59/59 60/60/60
f 62/62/62 59/59/59 61/61/61
f 63/63/63 62/62/62 61/61/61
f 64/64/64 62/62/62 63/63/63
f 63/63/63 65/65/65 64/64/64
f 63/63/63 66/66/66 65/65/65
f 66/66/66 67/67/67 65/65/65
f 66/66/66 68/68/68 67/67/67
f 69/69/69 67/67/67 68/68/68
f 70/70/70 67/67/67 69/69/69
f 69/69/69 71/71/71 70/70/70
f 69/69/69 72/72/72 71/71/71
f 73/73/73 71/71/71 72/72/72
f 74/74/74 71/71/71 73/73/73
f 73/73/73 75/75/75 74/74/74
f 73/73/73 76/76/76 75/75/75
f 77/77/77 75/75/75 76/76/76
f 78/78/78 75/75/75 77/77/77
f 79/79/79 78/78/78 77/77/77
f 80/80/80 78/78/78 79/79/79
f 79/79/79 81/81/81 80/80/80
f 79/79/79 82/82/82 81/81/81
f 82/82/82 83/83/83 81/81/81
f 82/82/82 84/84/84 83/83/83
f 84/84/84 85/85/85 83/83/83
f 84/84/84 86/86/86 85/85/85
f 86/86/86 87/87/87 85/85/85
f 86/86/86 88/88/88 87/87/87
f 88/88/88 89/89/89 87/87/87
f 88/88/88 90/90/90 89/89/89
f 91/91/91 89/89/89 90/90/90
f 92/92/92 89/89/89 91/91/91
f 93/93/93 92/92/92 91/91/91
f 94/94/94 92/92/92 93/93/93
f 93/93/93 95/95/95 94/94/94
f 93/93/93 96/96/96 95/95/95
f 96/96/96 97/97/97 95/95/95
f 96/96/96 98/98/98 97/97/97
f 98/98/98 99/99/99 97/97/97
f 98/98/98 100/100/100 99/99/99
f 100/100/100 101/101/101 99/99/99
f 100/100/100 102/102/102 101/101/101
f 102/102/102 103/103/103 101/101/101
f 102/102/102 104/104/104 103/103/103
f 105/105/105 103/103/103 104/104/104
f 106/106/106 103/103/103 105/105/105
f 105/105/105 107/107/107 106/106/106
f 105/105/105 108/108/108 107/107/107
f 108/108/108 109/109/109 107/107/107
f 108/108/108 110/110/110 109/109/109
f 111/111/111 109/109/109 110/110/110
f 112/112/112 109/109/109 111/111/111
f 111/111/111 113/113/113 112/112/112
f 111/111/111 114/114/114 113/113/113
f 114/114/114 115/115/115 113/113/113
f 114/114/114 116/116/116 115/115/115
f 116/116/116 117/117/117 115/115/115
f 116/116/116 118/118/118 117/117/117
f 118/118/118 119/119/119 117/117/117
f 118/118/118 120/120/120 119/119/119
f 120/120/120 121/121/121 119/119/119
f 120/120/120 122/122/122 121/121/121
f 122/122/122 123/123/123 121/121/121
f 122/122/122 124/124/124 123/123/123
f 125/125/125 123/123/123 124/124/124
f 126/126/126 123/123/123 125/125/125
f 125/125/125 127/127/127 126/126/126
f 125/125/125 128/128/128 127/127/127
f 128/128/128 129/129/129 127/127/127
f 128/128/128 130/130/130 129/129/129
