g Md_CMN_Circle_04
v 0.3499999 0 -3.8146972E-08
v 0.34831443 0 -0.03430591
v 0.4999999 0 -3.8146972E-08
v 0.49759215 0 -0.04900843
v 0.49039245 0 -0.09754501
v 0.34327468 0 -0.06828152
v 0.33492896 0 -0.10159952
v 0.47847 0 -0.14514217
v 0.3233577 0 -0.13393909
v 0.46193954 0 -0.19134153
v 0.44096047 0 -0.23569816
v 0.3086723 0 -0.16498873
v 0.29101425 0 -0.19444945
v 0.4157347 0 -0.27778494
v 0.27055356 0 -0.22203754
v 0.38650513 0 -0.3171965
v 0.2474873 0 -0.24748725
v 0.3535533 0 -0.35355324
v 0.2220376 0 -0.27055356
v 0.3171966 0 -0.38650504
v 0.19444957 0 -0.29101425
v 0.27778512 0 -0.41573462
v 0.16498885 0 -0.30867234
v 0.23569837 0 -0.44096047
v 0.1339392 0 -0.32335773
v 0.19134174 0 -0.46193957
v 0.10159964 0 -0.334929
v 0.14514238 0 -0.47847
v 0.06828163 0 -0.34327477
v 0.097545214 0 -0.49039254
v 0.049008634 0 -0.49759227
v 0.03430603 0 -0.34831458
v 4.1872262E-08 0 -0.3499999
v 8.434057E-08 0 -0.49999988
v -0.03430595 0 -0.34831458
v -0.049008474 0 -0.49759227
v -0.09754506 0 -0.49039257
v -0.06828155 0 -0.3432748
v -0.101599574 0 -0.33492908
v -0.14514221 0 -0.47847012
v -0.19134161 0 -0.4619397
v -0.13393915 0 -0.3233578
v -0.23569824 0 -0.44096062
v -0.16498879 0 -0.30867243
v -0.19444951 0 -0.29101437
v -0.277785 0 -0.41573483
v -0.2220376 0 -0.27055365
v -0.31719655 0 -0.38650525
v -0.2474873 0 -0.24748738
v -0.3535533 0 -0.35355338
v -0.2705536 0 -0.22203769
v -0.38650513 0 -0.31719667
v -0.4157347 0 -0.27778515
v -0.2910143 0 -0.19444962
v -0.3086724 0 -0.16498892
v -0.44096053 0 -0.23569843
v -0.4619397 0 -0.19134177
v -0.32335776 0 -0.13393927
v -0.47847006 0 -0.14514242
v -0.33492905 0 -0.10159971
v -0.34327483 0 -0.068281695
v -0.49039254 0 -0.09754526
v -0.4975923 0 -0.049008682
v -0.34831458 0 -0.03430609
v -0.35 0 -1.00731846E-07
v -0.4999999 0 -1.2755393E-07
v -0.34831467 0 0.034305893
v -0.4975923 0 0.04900843
v -0.4903926 0 0.09754502
v -0.34327483 0 0.06828151
v -0.3349291 0 0.10159952
v -0.47847015 0 0.14514218
v -0.4619397 0 0.19134156
v -0.32335785 0 0.13393909
v -0.30867246 0 0.16498874
v -0.44096062 0 0.23569822
v -0.29101437 0 0.19444945
v -0.41573486 0 0.27778497
v -0.27055368 0 0.22203754
v -0.38650528 0 0.31719652
v -0.24748738 0 0.24748725
v -0.35355338 0 0.35355327
v -0.22203769 0 0.27055356
v -0.3171967 0 0.38650507
v -0.19444963 0 0.29101425
v -0.27778518 0 0.41573465
v -0.16498892 0 0.30867234
v -0.23569843 0 0.4409605
v -0.13393927 0 0.32335773
v -0.19134177 0 0.4619396
v -0.1015997 0 0.334929
v -0.1451424 0 0.47847003
v -0.06828168 0 0.34327477
v -0.09754523 0 0.49039254
v -0.034306075 0 0.34831458
v -0.049008656 0 0.49759227
v -9.074807E-08 0 0.49999988
v -8.068979E-08 0 0.3499999
v 0.049008474 0 0.49759227
v 0.034305915 0 0.34831458
v 0.068281524 0 0.34327477
v 0.09754506 0 0.49039257
v 0.14514221 0 0.47847006
v 0.10159954 0 0.33492905
v 0.13393912 0 0.32335776
v 0.19134161 0 0.46193966
v 0.16498876 0 0.30867237
v 0.23569825 0 0.44096056
v 0.19444948 0 0.2910143
v 0.277785 0 0.41573477
v 0.31719655 0 0.38650516
v 0.22203755 0 0.2705536
v 0.24748729 0 0.24748734
v 0.3535533 0 0.35355335
v 0.27055356 0 0.2220376
v 0.38650513 0 0.31719658
v 0.4157347 0 0.2777851
v 0.29101425 0 0.19444953
v 0.30867237 0 0.16498882
v 0.44096053 0 0.23569833
v 0.4619397 0 0.19134168
v 0.32335776 0 0.13393916
v 0.47847006 0 0.14514232
v 0.33492905 0 0.101599604
v 0.34327477 0 0.068281576
v 0.49039254 0 0.097545125
v 0.4975923 0 0.04900853
v 0.34831458 0 0.034305964
v 0.4999999 0 -3.8146972E-08
v 0.3499999 0 -3.8146972E-08
vt 0.00046926737 0.99991435
vt 0.013666898 0.99991435
vt 0.00046920776 0.0002720356
vt 0.014701426 0.0002720356
vt 0.03217113 0.0002720356
vt 0.027460933 0.99991435
vt 0.041854054 0.99991435
vt 0.049266458 0.0002720356
vt 0.056626916 0.99991435
vt 0.06604934 0.0002720356
vt 0.08253837 0.0002720356
vt 0.07168585 0.99991435
vt 0.087014616 0.99991435
vt 0.098715544 0.0002720356
vt 0.102496475 0.99991435
vt 0.1147002 0.0002720356
vt 0.11810404 0.99991435
vt 0.13051248 0.0002720356
vt 0.13381845 0.99991435
vt 0.14618397 0.0002720356
vt 0.14961368 0.99991435
vt 0.16174233 0.0002720356
vt 0.16547519 0.9999142
vt 0.17721802 0.0002720356
vt 0.18137467 0.9999142
vt 0.19262862 0.0002720356
vt 0.19730428 0.9999142
vt 0.20800614 0.0002720356
vt 0.2132451 0.9999142
vt 0.22335744 0.0002720356
vt 0.23860168 0.0002720356
vt 0.22926474 0.9999143
vt 0.24527556 0.9999142
vt 0.25385302 0.0002720356
vt 0.26124755 0.9999143
vt 0.269158 0.0002720356
vt 0.28446275 0.0002720356
vt 0.27721477 0.9999142
vt 0.29321262 0.9999143
vt 0.29972267 0.0002720356
vt 0.31508243 0.0002720356
vt 0.30913585 0.99991435
vt 0.33037746 0.0002720356
vt 0.325104 0.9999142
vt 0.3410949 0.9999142
vt 0.3456409 0.0002720356
vt 0.35702097 0.9999142
vt 0.36099195 0.0002720356
vt 0.37291902 0.99991435
vt 0.37638256 0.0002720356
vt 0.3888083 0.99991435
vt 0.39178762 0.0002720356
vt 0.40717825 0.0002720356
vt 0.4047107 0.9999142
vt 0.42065054 0.9999142
vt 0.42251346 0.0002720356
vt 0.4379563 0.0002720356
vt 0.43651128 0.99991435
vt 0.45335087 0.0002720356
vt 0.4524076 0.99991435
vt 0.4683587 0.9999142
vt 0.46867368 0.0002720356
vt 0.48406455 0.0002720356
vt 0.48426002 0.9999142
vt 0.5001927 0.9999142
vt 0.49941453 0.0002720356
vt 0.51608694 0.9999142
vt 0.5148205 0.0002720356
vt 0.5302126 0.0002720356
vt 0.5319903 0.9999142
vt 0.547926 0.9999142
vt 0.5455606 0.0002720356
vt 0.56090665 0.0002720356
vt 0.563861 0.9999142
vt 0.5798052 0.9999142
vt 0.57623875 0.0002720356
vt 0.595708 0.9999142
vt 0.59162194 0.0002720356
vt 0.611604 0.9999142
vt 0.60702735 0.0002720356
vt 0.6274956 0.9999142
vt 0.6224323 0.0002720356
vt 0.6433941 0.9999142
vt 0.63783514 0.0002720356
vt 0.659294 0.9999142
vt 0.65322626 0.0002720356
vt 0.6752008 0.9999142
vt 0.66861343 0.0002720356
vt 0.6911149 0.9999142
vt 0.6839977 0.0002720356
vt 0.707029 0.9999142
vt 0.69937146 0.0002720356
vt 0.7229507 0.9999142
vt 0.7147418 0.0002720356
vt 0.7388805 0.9999142
vt 0.7301041 0.0002720356
vt 0.74545807 0.0002720356
vt 0.7548127 0.9999142
vt 0.76075065 0.0002720356
vt 0.77078533 0.9999142
vt 0.78680336 0.9999142
vt 0.7759776 0.0002720356
vt 0.79126275 0.0002720356
vt 0.80277437 0.9999142
vt 0.818756 0.9999142
vt 0.8065295 0.0002720356
vt 0.8346633 0.9999142
vt 0.8218956 0.0002720356
vt 0.8505162 0.9999142
vt 0.83733666 0.0002720356
vt 0.85282576 0.0002720356
vt 0.8663337 0.9999142
vt 0.88210124 0.9999142
vt 0.86838794 0.0002720356
vt 0.89773047 0.9999142
vt 0.88415575 0.0002720356
vt 0.9001337 0.0002720356
vt 0.91322076 0.9999142
vt 0.9285648 0.9999142
vt 0.91633844 0.0002720356
vt 0.93290293 0.0002720356
vt 0.9436563 0.9999142
vt 0.9497994 0.0002720356
vt 0.9584979 0.9999142
vt 0.97295445 0.9999142
vt 0.96712685 0.0002720356
vt 0.9847777 0.0002720356
vt 0.98701376 0.9999142
vt 0.9999575 0.0002720356
vt 0.9999576 0.9999142
vn -0 1 0
vn -0 1 0
vn -0 1 0
vn -0 1 0
vn -0 1 0
vn -0 1 0
vn -0 1 0
vn -0 1 0
vn -0 1 0
vn -0 1 0
vn -0 1 0
vn -0 1 0
vn -0 1 0
vn -0 1 0
vn -0 1 0
vn -0 1 0
vn -0 1 0
vn -0 1 0
vn -0 1 0
vn -0 1 0
vn -0 1 0
vn -0 1 0
vn -0 1 0
vn -0 1 0
vn -0 1 0
vn -0 1 0
vn -0 1 0
vn -0 1 0
vn -0 1 0
vn -0 1 0
vn -0 1 0
vn -0 1 0
vn -0 1 0
vn -0 1 0
vn -0 1 0
vn -0 1 0
vn -0 1 0
vn -0 1 0
vn -0 1 0
vn -0 1 0
vn -0 1 0
vn -0 1 0
vn -0 1 0
vn -0 1 0
vn -0 1 0
vn -0 1 0
vn -0 1 0
vn -0 1 0
vn -0 1 0
vn -0 1 0
vn -0 1 0
vn -0 1 0
vn -0 1 0
vn -0 1 0
vn -0 1 0
vn -0 1 0
vn -0 1 0
vn -0 1 0
vn -0 1 0
vn -0 1 0
vn -0 1 0
vn -0 1 0
vn -0 1 0
vn -0 1 0
vn -0 1 0
vn -0 1 0
vn -0 1 0
vn -0 1 0
vn -0 1 0
vn -0 1 0
vn -0 1 0
vn -0 1 0
vn -0 1 0
vn -0 1 0
vn -0 1 0
vn -0 1 0
vn -0 1 0
vn -0 1 0
vn -0 1 0
vn -0 1 0
vn -0 1 0
vn -0 1 0
vn -0 1 0
vn -0 1 0
vn -0 1 0
vn -0 1 0
vn -0 1 0
vn -0 1 0
vn -0 1 0
vn -0 1 0
vn -0 1 0
vn -0 1 0
vn -0 1 0
vn -0 1 0
vn -0 1 0
vn -0 1 0
vn -0 1 0
vn -0 1 0
vn -0 1 0
vn -0 1 0
vn -0 1 0
vn -0 1 0
vn -0 1 0
vn -0 1 0
vn -0 1 0
vn -0 1 0
vn -0 1 0
vn -0 1 0
vn -0 1 0
vn -0 1 0
vn -0 1 0
vn -0 1 0
vn -0 1 0
vn -0 1 0
vn -0 1 0
vn -0 1 0
vn -0 1 0
vn -0 1 0
vn -0 1 0
vn -0 1 0
vn -0 1 0
vn -0 1 0
vn -0 1 0
vn -0 1 0
vn -0 1 0
vn -0 1 0
vn -0 1 0
vn -0 1 0
vn -0 1 0
vn -0 1 0
g Md_CMN_Circle_04_0
f 3/3/3 2/2/2 1/1/1
f 3/3/3 4/4/4 2/2/2
f 5/5/5 2/2/2 4/4/4
f 6/6/6 2/2/2 5/5/5
f 5/5/5 7/7/7 6/6/6
f 5/5/5 8/8/8 7/7/7
f 9/9/9 7/7/7 8/8/8
f 9/9/9 8/8/8 10/10/10
f 11/11/11 9/9/9 10/10/10
f 12/12/12 9/9/9 11/11/11
f 11/11/11 13/13/13 12/12/12
f 11/11/11 14/14/14 13/13/13
f 15/15/15 13/13/13 14/14/14
f 15/15/15 14/14/14 16/16/16
f 17/17/17 15/15/15 16/16/16
f 17/17/17 16/16/16 18/18/18
f 18/18/18 19/19/19 17/17/17
f 18/18/18 20/20/20 19/19/19
f 21/21/21 19/19/19 20/20/20
f 21/21/21 20/20/20 22/22/22
f 22/22/22 23/23/23 21/21/21
f 22/22/22 24/24/24 23/23/23
f 25/25/25 23/23/23 24/24/24
f 25/25/25 24/24/24 26/26/26
f 27/27/27 25/25/25 26/26/26
f 27/27/27 26/26/26 28/28/28
f 29/29/29 27/27/27 28/28/28
f 29/29/29 28/28/28 30/30/30
f 31/31/31 29/29/29 30/30/30
f 32/32/32 29/29/29 31/31/31
f 31/31/31 33/33/33 32/32/32
f 31/31/31 34/34/34 33/33/33
f 34/34/34 35/35/35 33/33/33
f 34/34/34 36/36/36 35/35/35
f 37/37/37 35/35/35 36/36/36
f 38/38/38 35/35/35 37/37/37
f 37/37/37 39/39/39 38/38/38
f 37/37/37 40/40/40 39/39/39
f 41/41/41 39/39/39 40/40/40
f 42/42/42 39/39/39 41/41/41
f 43/43/43 42/42/42 41/41/41
f 44/44/44 42/42/42 43/43/43
f 43/43/43 45/45/45 44/44/44
f 43/43/43 46/46/46 45/45/45
f 47/47/47 45/45/45 46/46/46
f 47/47/47 46/46/46 48/48/48
f 49/49/49 47/47/47 48/48/48
f 49/49/49 48/48/48 50/50/50
f 50/50/50 51/51/51 49/49/49
f 50/50/50 52/52/52 51/51/51
f 53/53/53 51/51/51 52/52/52
f 54/54/54 51/51/51 53/53/53
f 55/55/55 54/54/54 53/53/53
f 55/55/55 53/53/53 56/56/56
f 57/57/57 55/55/55 56/56/56
f 58/58/58 55/55/55 57/57/57
f 59/59/59 58/58/58 57/57/57
f 60/60/60 58/58/58 59/59/59
f 59/59/59 61/61/61 60/60/60
f 59/59/59 62/62/62 61/61/61
f 63/63/63 61/61/61 62/62/62
f 64/64/64 61/61/61 63/63/63
f 63/63/63 65/65/65 64/64/64
f 63/63/63 66/66/66 65/65/65
f 66/66/66 67/67/67 65/65/65
f 66/66/66 68/68/68 67/67/67
f 69/69/69 67/67/67 68/68/68
f 70/70/70 67/67/67 69/69/69
f 69/69/69 71/71/71 70/70/70
f 69/69/69 72/72/72 71/71/71
f 73/73/73 71/71/71 72/72/72
f 74/74/74 71/71/71 73/73/73
f 73/73/73 75/75/75 74/74/74
f 73/73/73 76/76/76 75/75/75
f 76/76/76 77/77/77 75/75/75
f 76/76/76 78/78/78 77/77/77
f 79/79/79 77/77/77 78/78/78
f 79/79/79 78/78/78 80/80/80
f 81/81/81 79/79/79 80/80/80
f 81/81/81 80/80/80 82/82/82
f 82/82/82 83/83/83 81/81/81
f 82/82/82 84/84/84 83/83/83
f 85/85/85 83/83/83 84/84/84
f 85/85/85 84/84/84 86/86/86
f 87/87/87 85/85/85 86/86/86
f 87/87/87 86/86/86 88/88/88
f 89/89/89 87/87/87 88/88/88
f 89/89/89 88/88/88 90/90/90
f 91/91/91 89/89/89 90/90/90
f 91/91/91 90/90/90 92/92/92
f 93/93/93 91/91/91 92/92/92
f 93/93/93 92/92/92 94/94/94
f 95/95/95 93/93/93 94/94/94
f 95/95/95 94/94/94 96/96/96
f 97/97/97 95/95/95 96/96/96
f 98/98/98 95/95/95 97/97/97
f 99/99/99 98/98/98 97/97/97
f 100/100/100 98/98/98 99/99/99
f 99/99/99 101/101/101 100/100/100
f 99/99/99 102/102/102 101/101/101
f 103/103/103 101/101/101 102/102/102
f 104/104/104 101/101/101 103/103/103
f 105/105/105 104/104/104 103/103/103
f 105/105/105 103/103/103 106/106/106
f 106/106/106 107/107/107 105/105/105
f 106/106/106 108/108/108 107/107/107
f 109/109/109 107/107/107 108/108/108
f 109/109/109 108/108/108 110/110/110
f 111/111/111 109/109/109 110/110/110
f 112/112/112 109/109/109 111/111/111
f 111/111/111 113/113/113 112/112/112
f 111/111/111 114/114/114 113/113/113
f 115/115/115 113/113/113 114/114/114
f 115/115/115 114/114/114 116/116/116
f 117/117/117 115/115/115 116/116/116
f 118/118/118 115/115/115 117/117/117
f 117/117/117 119/119/119 118/118/118
f 117/117/117 120/120/120 119/119/119
f 121/121/121 119/119/119 120/120/120
f 122/122/122 119/119/119 121/121/121
f 123/123/123 122/122/122 121/121/121
f 124/124/124 122/122/122 123/123/123
f 123/123/123 125/125/125 124/124/124
f 123/123/123 126/126/126 125/125/125
f 127/127/127 125/125/125 126/126/126
f 128/128/128 125/125/125 127/127/127
f 129/129/129 128/128/128 127/127/127
f 130/130/130 128/128/128 129/129/129
