g Md_CMN_Circle_06
v -0.18887924 0 -0.1262052
v -0.30967748 0 -0.20692012
v -0.20987144 0 -0.08693167
v -0.3440953 0 -0.14252912
v -0.4115192 0 -0.27496862
v -0.22279832 0 -0.04431742
v -0.4572557 0 -0.18940179
v -0.3652896 0 -0.0726608
v -0.2271632 0 -6.9857066E-08
v -0.48542008 0 -0.096556306
v -0.37244612 0 -1.6725413E-07
v -0.22279835 0 0.044317286
v -0.49493015 0 -2.491018E-07
v -0.36528972 0 0.07266046
v -0.20987152 0 0.08693155
v -0.48542023 0 0.09655581
v -0.3440954 0 0.14252883
v -0.18887943 0 0.12620512
v -0.45725584 0 0.18940136
v -0.30967778 0 0.20691988
v -0.16062872 0 0.16062862
v -0.4115196 0 0.2749683
v -0.26335937 0 0.26335907
v -0.1262052 0 0.18887936
v -0.34996867 0 0.34996825
v -0.20692016 0 0.30967754
v -0.08693167 0 0.2098715
v -0.27496868 0 0.4115192
v -0.14252912 0 0.3440953
v -0.044317417 0 0.22279842
v -0.18940178 0 0.4572557
v -0.07266077 0 0.36528963
v -3.998805E-08 0 0.22716331
v -0.09655627 0 0.48542
v -1.1236886E-07 0 0.37244612
v 0.044317324 0 0.22279844
v -1.6797637E-07 0 0.49493012
v 0.072660565 0 0.36528972
v 0.08693162 0 0.20987159
v 0.096555956 0 0.48542017
v 0.1425289 0 0.3440954
v 0.12620516 0 0.18887943
v 0.18940146 0 0.45725584
v 0.20691995 0 0.30967778
v 0.16062875 0 0.16062881
v 0.27496836 0 0.4115195
v 0.2633592 0 0.26335925
v 0.18887939 0 0.1262052
v 0.34996843 0 0.34996852
v 0.30967778 0 0.20692009
v 0.20987153 0 0.08693165
v 0.4115195 0 0.27496856
v 0.34409544 0 0.142529
v 0.22279848 0 0.04431738
v 0.45725584 0 0.18940155
v 0.3652898 0 0.072660625
v 0.22716336 0 4.6128816E-09
v 0.4854203 0 0.09655603
v 0.37244633 0 -4.515669E-08
v 0.22279823 0 -0.044317216
v 0.4949303 0 -8.6850946E-08
v 0.36528945 0 -0.07266046
v 0.48541984 0 -0.09655587
vt 0 0
vt 0 0.5588129
vt 0.049999982 0
vt 0.05000004 0.5588129
vt 0 0.99997944
vt 0.099999994 0
vt 0.049999982 0.99997944
vt 0.099999994 0.5588129
vt 0.15 0
vt 0.099999994 0.99997944
vt 0.15 0.5588129
vt 0.19999999 0
vt 0.15 0.99997944
vt 0.19999999 0.5588129
vt 0.25 0
vt 0.19999999 0.99997944
vt 0.25 0.5588129
vt 0.3 0
vt 0.25 0.99997944
vt 0.3 0.5588129
vt 0.35 0
vt 0.3 0.99997944
vt 0.35 0.5588129
vt 0.4 0
vt 0.35 0.99997944
vt 0.4 0.5588129
vt 0.45 0
vt 0.4 0.99997944
vt 0.45 0.55881286
vt 0.5 0
vt 0.45 0.99997944
vt 0.5 0.5588129
vt 0.55 0
vt 0.5 0.99997944
vt 0.55 0.5588129
vt 0.6 0
vt 0.55 0.99997944
vt 0.6 0.5588129
vt 0.65 0
vt 0.6 0.99997944
vt 0.65 0.5588129
vt 0.7 0
vt 0.65 0.99997944
vt 0.7 0.5588129
vt 0.75 0
vt 0.7 0.99997944
vt 0.75 0.5588129
vt 0.8 0
vt 0.75 0.99997944
vt 0.8 0.5588129
vt 0.85 0
vt 0.8 0.99997944
vt 0.85000014 0.5588129
vt 0.9 0
vt 0.85 0.99997944
vt 0.9 0.5588129
vt 0.95000005 0
vt 0.9 0.99997944
vt 0.95000005 0.5588129
vt 0.9999843 0
vt 0.95000005 0.99997944
vt 0.9999843 0.5588129
vt 0.9999843 0.99997944
vn -0 -1 0
vn -0 -1 0
vn -0 -1 0
vn -0 -1 0
vn -0 -1 0
vn -0 -1 0
vn -0 -1 0
vn -0 -1 0
vn -0 -1 0
vn -0 -1 0
vn -0 -1 0
vn -0 -1 0
vn -0 -1 0
vn -0 -1 0
vn -0 -1 0
vn -0 -1 0
vn -0 -1 0
vn -0 -1 0
vn -0 -1 0
vn -0 -1 0
vn -0 -1 0
vn -0 -1 0
vn -0 -1 0
vn -0 -1 0
vn -0 -1 0
vn -0 -1 0
vn -0 -1 0
vn -0 -1 0
vn -0 -1 0
vn -0 -1 0
vn -0 -1 0
vn -0 -1 0
vn -0 -1 0
vn -0 -1 0
vn -0 -1 0
vn -0 -1 0
vn -0 -1 0
vn -0 -1 0
vn -0 -1 0
vn -0 -1 0
vn -0 -1 0
vn -0 -1 0
vn -0 -1 0
vn -0 -1 0
vn -0 -1 0
vn -0 -1 0
vn -0 -1 0
vn -0 -1 0
vn -0 -1 0
vn -0 -1 0
vn -0 -1 0
vn -0 -1 0
vn -0 -1 0
vn -0 -1 0
vn -0 -1 0
vn -0 -1 0
vn -0 -1 0
vn -0 -1 0
vn -0 -1 0
vn -0 -1 0
vn -0 -1 0
vn -0 -1 0
vn -0 -1 0
g Md_CMN_Circle_06_0
f 3/3/3 2/2/2 1/1/1
f 3/3/3 4/4/4 2/2/2
f 4/4/4 5/5/5 2/2/2
f 6/6/6 4/4/4 3/3/3
f 4/4/4 7/7/7 5/5/5
f 6/6/6 8/8/8 4/4/4
f 8/8/8 7/7/7 4/4/4
f 9/9/9 8/8/8 6/6/6
f 8/8/8 10/10/10 7/7/7
f 9/9/9 11/11/11 8/8/8
f 11/11/11 10/10/10 8/8/8
f 12/12/12 11/11/11 9/9/9
f 11/11/11 13/13/13 10/10/10
f 12/12/12 14/14/14 11/11/11
f 14/14/14 13/13/13 11/11/11
f 15/15/15 14/14/14 12/12/12
f 14/14/14 16/16/16 13/13/13
f 15/15/15 17/17/17 14/14/14
f 17/17/17 16/16/16 14/14/14
f 18/18/18 17/17/17 15/15/15
f 17/17/17 19/19/19 16/16/16
f 18/18/18 20/20/20 17/17/17
f 20/20/20 19/19/19 17/17/17
f 21/21/21 20/20/20 18/18/18
f 20/20/20 22/22/22 19/19/19
f 21/21/21 23/23/23 20/20/20
f 23/23/23 22/22/22 20/20/20
f 24/24/24 23/23/23 21/21/21
f 23/23/23 25/25/25 22/22/22
f 24/24/24 26/26/26 23/23/23
f 26/26/26 25/25/25 23/23/23
f 27/27/27 26/26/26 24/24/24
f 26/26/26 28/28/28 25/25/25
f 27/27/27 29/29/29 26/26/26
f 29/29/29 28/28/28 26/26/26
f 30/30/30 29/29/29 27/27/27
f 29/29/29 31/31/31 28/28/28
f 30/30/30 32/32/32 29/29/29
f 32/32/32 31/31/31 29/29/29
f 33/33/33 32/32/32 30/30/30
f 32/32/32 34/34/34 31/31/31
f 33/33/33 35/35/35 32/32/32
f 35/35/35 34/34/34 32/32/32
f 36/36/36 35/35/35 33/33/33
f 35/35/35 37/37/37 34/34/34
f 36/36/36 38/38/38 35/35/35
f 38/38/38 37/37/37 35/35/35
f 39/39/39 38/38/38 36/36/36
f 38/38/38 40/40/40 37/37/37
f 39/39/39 41/41/41 38/38/38
f 41/41/41 40/40/40 38/38/38
f 42/42/42 41/41/41 39/39/39
f 41/41/41 43/43/43 40/40/40
f 42/42/42 44/44/44 41/41/41
f 44/44/44 43/43/43 41/41/41
f 45/45/45 44/44/44 42/42/42
f 44/44/44 46/46/46 43/43/43
f 45/45/45 47/47/47 44/44/44
f 47/47/47 46/46/46 44/44/44
f 48/48/48 47/47/47 45/45/45
f 47/47/47 49/49/49 46/46/46
f 48/48/48 50/50/50 47/47/47
f 50/50/50 49/49/49 47/47/47
f 51/51/51 50/50/50 48/48/48
f 50/50/50 52/52/52 49/49/49
f 51/51/51 53/53/53 50/50/50
f 53/53/53 52/52/52 50/50/50
f 54/54/54 53/53/53 51/51/51
f 53/53/53 55/55/55 52/52/52
f 54/54/54 56/56/56 53/53/53
f 56/56/56 55/55/55 53/53/53
f 57/57/57 56/56/56 54/54/54
f 56/56/56 58/58/58 55/55/55
f 57/57/57 59/59/59 56/56/56
f 59/59/59 58/58/58 56/56/56
f 60/60/60 59/59/59 57/57/57
f 59/59/59 61/61/61 58/58/58
f 60/60/60 62/62/62 59/59/59
f 62/62/62 61/61/61 59/59/59
f 62/62/62 63/63/63 61/61/61
