g Md_CMN_SpiralCorn_01
v 0.0012140572 0.00021395832 0
v 0.0012328029 -8.918655E-08 0
v 0.022172064 -0.044961665 0.05000001
v 0.014027774 -0.048128743 0.05000001
v 0.0012140572 -0.00021413714 0
v 0.026984334 -0.09350407 0.10000002
v 0.0054572225 -0.04983343 0.05000001
v 0.0011584461 -0.00042168796 0
v 0.010337681 -0.09676936 0.10000002
v 0.01580441 -0.14113379 0.15000004
v -0.0032791793 -0.050023966 0.05000001
v 0.0010676384 -0.00061643124 0
v -0.011915892 -0.04869455 0.05000001
v -0.0066231787 -0.09709431 0.10000002
v -0.0089432 -0.14173412 0.15000004
v -0.010731906 -0.18401146 0.20000003
v -0.02338281 -0.0944691 0.10000002
v -0.03943193 -0.08897349 0.10000002
v -0.03341919 -0.13802786 0.15000004
v -0.04252201 -0.17935248 0.20000003
v -0.051506426 -0.21873797 0.25000006
v -0.05687973 -0.1301277 0.15000004
v -0.07861206 -0.118273675 0.15000004
v -0.07302022 -0.16924378 0.20000003
v -0.08870726 -0.20647104 0.25000006
v -0.10491869 -0.24235433 0.30000004
v -0.10129973 -0.15399276 0.20000003
v -0.12650129 -0.1340627 0.20000003
v -0.123212926 -0.1879304 0.25000006
v -0.14540905 -0.22045374 0.30000004
v -0.16888592 -0.25234175 0.35000002
v -0.1539748 -0.16367956 0.25000006
v -0.18005821 -0.13445543 0.25000006
v -0.1814813 -0.19185449 0.30000004
v -0.2101388 -0.21918167 0.35000002
v -0.24084309 -0.24662161 0.40000004
v -0.21203937 -0.15742585 0.30000004
v -0.2361547 -0.11821389 0.30000004
v -0.24500678 -0.17936155 0.35000002
v -0.28000957 -0.2010532 0.40000004
v -0.31774285 -0.22355536 0.45000002
v -0.2724304 -0.13409162 0.35000002
v -0.2915763 -0.08474737 0.35000002
v -0.3106681 -0.14937557 0.40000004
v -0.3517357 -0.16498391 0.45000002
v -0.39605537 -0.18194468 0.50000006
v -0.3318871 -0.09315921 0.40000004
v -0.34302187 -0.034112275 0.40000004
v -0.37504113 -0.10139913 0.45000002
v -0.42163298 -0.110406615 0.50000006
v -0.4717687 -0.12103159 0.55
v -0.38695118 -0.0347334 0.45000002
v -0.3871039 0.032987714 0.45000002
v -0.43439928 -0.03551344 0.50000006
v -0.48561868 -0.037271433 0.55
v -0.5403887 -0.040497907 0.6
v -0.43396658 0.040458784 0.50000006
v -0.42034802 0.11520168 0.50000006
v -0.48471314 0.04762166 0.55
v -0.5392117 0.05395451 0.6
v -0.5969385 0.059534095 0.65
v -0.46907976 0.13106775 0.55
v -0.43919364 0.21053144 0.55
v -0.5216507 0.146768 0.6
v -0.57753223 0.16228662 0.65
v -0.63595927 0.17850208 0.70000005
v -0.48823962 0.235122 0.6
v -0.4399936 0.31633192 0.6
v -0.5405773 0.2601086 0.65
v -0.59530175 0.2862232 0.70000005
v -0.6515098 0.31540334 0.75
v -0.48719728 0.35002726 0.65
v -0.419014 0.42931047 0.65
v -0.53655565 0.38524792 0.70000005
v -0.5868435 0.42374504 0.75
v -0.6371666 0.4687957 0.8000001
v -0.46150637 0.47256702 0.70000005
v -0.37243456 0.54552746 0.70000005
v -0.50434536 0.5192117 0.75
v -0.5460819 0.57231647 0.8000001
v -0.58602375 0.6367956 0.84999996
v -0.40652302 0.5989024 0.75
v -0.2963486 0.66039574 0.75
v -0.43840387 0.65844786 0.8000001
v -0.4665432 0.7288833 0.84999996
v -0.490693 0.81708074 0.90000004
v -0.31740516 0.7245725 0.8000001
v -0.18676229 0.76868147 0.8000001
v -0.33288604 0.7988244 0.84999996
v -0.3413545 0.88987577 0.90000004
v -0.34330407 1.0068873 0.95000005
v -0.1891143 0.84449357 0.84999996
v -0.039596345 0.864503 0.84999996
v -0.18164317 0.93563217 0.90000004
v -0.16324526 1.0512052 0.95000005
v -0.13550428 1.203012 1
v 0.075454354 1.2082665 1
v -0.016412705 0.9529597 0.90000004
v 0.14931646 0.94133204 0.90000004
v 0.02177471 1.0635822 0.95000005
v 0.2841214 1.1768076 1
v 0.2061331 1.0436428 0.95000005
v 0.3842282 0.9919927 0.95000005
v 0.4841555 1.1095922 1
v 0.6694788 1.0086621 1
vt 0.9995016 0
vt 0.7497508 0
vt 0.9995016 0.049999982
vt 0.7497508 0.049999982
vt 0.5 0
vt 0.9995016 0.099999994
vt 0.5 0.049999982
vt 0.2502492 0
vt 0.7497508 0.099999994
vt 0.9995016 0.15
vt 0.2502492 0.049999982
vt 0.00049841404 0
vt 0.00049841404 0.049999982
vt 0.5 0.099999994
vt 0.7497508 0.15
vt 0.9995016 0.19999999
vt 0.2502492 0.099999994
vt 0.00049841404 0.099999994
vt 0.5 0.15
vt 0.7497508 0.19999999
vt 0.9995016 0.25
vt 0.2502492 0.15
vt 0.00049841404 0.15
vt 0.5 0.19999999
vt 0.7497508 0.25
vt 0.9995016 0.3
vt 0.2502492 0.19999999
vt 0.00049841404 0.19999999
vt 0.5 0.25
vt 0.7497508 0.3
vt 0.9995016 0.35
vt 0.2502492 0.25
vt 0.00049841404 0.25
vt 0.5 0.3
vt 0.7497508 0.35
vt 0.9995016 0.4
vt 0.2502492 0.3
vt 0.00049841404 0.3
vt 0.5 0.35
vt 0.7497508 0.4
vt 0.9995016 0.45
vt 0.2502492 0.35
vt 0.00049841404 0.35
vt 0.5 0.4
vt 0.7497508 0.45
vt 0.9995016 0.5
vt 0.2502492 0.4
vt 0.00049841404 0.4
vt 0.5 0.45
vt 0.7497508 0.5
vt 0.9995016 0.55
vt 0.2502492 0.45
vt 0.00049841404 0.45
vt 0.5 0.5
vt 0.7497508 0.55
vt 0.9995016 0.6
vt 0.2502492 0.5
vt 0.00049841404 0.5
vt 0.5 0.55
vt 0.7497508 0.6
vt 0.9995016 0.65
vt 0.2502492 0.55
vt 0.00049841404 0.55
vt 0.5 0.6
vt 0.7497508 0.65
vt 0.9995016 0.7
vt 0.2502492 0.6
vt 0.00049841404 0.6
vt 0.5 0.65
vt 0.7497508 0.7
vt 0.9995016 0.75
vt 0.2502492 0.65
vt 0.00049841404 0.65
vt 0.5 0.7
vt 0.7497508 0.75
vt 0.9995016 0.8
vt 0.2502492 0.7
vt 0.00049841404 0.7
vt 0.5 0.75
vt 0.7497508 0.8
vt 0.9995016 0.85
vt 0.2502492 0.75
vt 0.00049841404 0.75
vt 0.5 0.8
vt 0.7497508 0.85
vt 0.9995016 0.9
vt 0.2502492 0.8
vt 0.00049841404 0.8
vt 0.5 0.85
vt 0.7497508 0.9
vt 0.9995016 0.95000005
vt 0.2502492 0.85
vt 0.00049841404 0.85
vt 0.5 0.9
vt 0.7497508 0.95000005
vt 0.9995016 1
vt 0.7497508 1
vt 0.2502492 0.9
vt 0.00049841404 0.9
vt 0.5 0.95000005
vt 0.5 1
vt 0.2502492 0.95000005
vt 0.00049841404 0.95000005
vt 0.2502492 1
vt 0.00049841404 1
vn 0.9435275 0.08262819 -0.32082438
vn 0.5467129 -0.5046846 -0.66813046
vn 0.26138088 -0.67013216 -0.6946962
vn 0.19875012 -0.6909507 -0.6950436
vn 0.45072502 -0.5919762 -0.66814005
vn 0.14477456 -0.7219421 -0.6766387
vn 0.07569838 -0.71497434 -0.69504064
vn 0.34110773 -0.66120344 -0.6681732
vn 0.0760891 -0.732871 -0.67609954
vn 0.025734758 -0.75331473 -0.65715647
vn -0.049598217 -0.7172578 -0.6950405
vn 0.221144 -0.7104023 -0.6681496
vn -0.17333746 -0.69776064 -0.69504267
vn -0.052330248 -0.73494947 -0.6760998
vn -0.049592 -0.7533543 -0.6557423
vn -0.099073276 -0.7632801 -0.6384261
vn -0.17915836 -0.7146969 -0.6760996
vn -0.3005769 -0.67272 -0.67609257
vn -0.17961042 -0.73330337 -0.65574867
vn -0.17994511 -0.74989504 -0.63661385
vn -0.22795916 -0.74740434 -0.6240364
vn -0.30426458 -0.6909593 -0.6557426
vn -0.4196606 -0.6276115 -0.6557353
vn -0.30738398 -0.7072695 -0.6366199
vn -0.3106736 -0.71788585 -0.6229943
vn -0.35448405 -0.70158607 -0.618157
vn -0.42557305 -0.6431244 -0.6366149
vn -0.53075767 -0.55947524 -0.636619
vn -0.43057242 -0.6530551 -0.62299794
vn -0.4339506 -0.65437895 -0.6192537
vn -0.4696694 -0.62478924 -0.62373805
vn -0.5373961 -0.56839764 -0.6230005
vn -0.62797064 -0.466395 -0.6229998
vn -0.54099035 -0.56908107 -0.6192545
vn -0.5400384 -0.56052464 -0.6278301
vn -0.56386083 -0.52095336 -0.6408342
vn -0.63159126 -0.46649334 -0.6192547
vn -0.7030614 -0.34960613 -0.6192578
vn -0.62916815 -0.4582306 -0.6278313
vn -0.62004673 -0.44271868 -0.64772075
vn -0.6302385 -0.39878547 -0.66616035
vn -0.69918054 -0.3420148 -0.6278316
vn -0.74796516 -0.21531104 -0.6278449
vn -0.68749297 -0.32836652 -0.6477104
vn -0.6691546 -0.31175816 -0.67456573
vn -0.6671468 -0.2694106 -0.694502
vn -0.7340715 -0.20394868 -0.6477222
vn -0.7583303 -0.07339674 -0.6477253
vn -0.71312386 -0.1908227 -0.6745673
vn -0.6884865 -0.17829864 -0.7029907
vn -0.6781552 -0.14172283 -0.7211243
vn -0.7354073 -0.06400013 -0.67459625
vn -0.7353481 0.06468113 -0.6745958
vn -0.708976 -0.055988576 -0.70300657
vn -0.6831065 -0.05058998 -0.7285645
vn -0.668734 -0.021173678 -0.7432002
vn -0.70796525 0.06788963 -0.7029767
vn -0.6853436 0.1898979 -0.7030241
vn -0.68145597 0.06892895 -0.7286058
vn -0.6588856 0.06765811 -0.7491944
vn -0.64324385 0.090933874 -0.76024234
vn -0.6592117 0.18609866 -0.7285652
vn -0.6167883 0.29782793 -0.7286087
vn -0.6371005 0.18108642 -0.7492066
vn -0.619525 0.17565313 -0.7650717
vn -0.60275346 0.19460171 -0.7738336
vn -0.59603935 0.2888945 -0.7491842
vn -0.5367449 0.38806486 -0.7492066
vn -0.5796095 0.28056484 -0.7650727
vn -0.5649412 0.27324808 -0.77857363
vn -0.5443602 0.28876954 -0.78758115
vn -0.52197725 0.37704754 -0.7650979
vn -0.4485799 0.4619519 -0.765099
vn -0.5089066 0.367198 -0.7785754
vn -0.49216527 0.35682204 -0.79400975
vn -0.46275675 0.36707014 -0.8069174
vn -0.4375342 0.44991347 -0.77855104
vn -0.35261375 0.5191235 -0.778572
vn -0.42276704 0.43684363 -0.7939998
vn -0.39743808 0.4177083 -0.81704515
vn -0.3551825 0.41604066 -0.8371114
vn -0.3405332 0.50360763 -0.7939878
vn -0.24790806 0.55509025 -0.79398763
vn -0.31886372 0.48037568 -0.8170466
vn -0.2820261 0.4420864 -0.8514816
vn -0.22969572 0.41981417 -0.8780638
vn -0.23060307 0.528448 -0.81704646
vn -0.13527699 0.5604629 -0.81705666
vn -0.20093533 0.48431978 -0.8515042
vn -0.1595898 0.4191562 -0.893778
vn -0.10982624 0.37493426 -0.920523
vn -0.113780975 0.51185346 -0.85150445
vn -0.023134448 0.5238108 -0.8515204
vn -0.08437797 0.44049937 -0.89377886
vn -0.053745225 0.35538682 -0.93317294
vn -0.02426939 0.31674 -0.94820184
vn 0.023256678 0.31575385 -0.9485561
vn -0.006603973 0.4484593 -0.89377886
vn 0.07137043 0.4427924 -0.89377916
vn 0.008784512 0.35931924 -0.93317336
vn 0.077651665 0.3069696 -0.94854623
vn 0.07105015 0.35229015 -0.93319
vn 0.13113566 0.33463782 -0.93317795
vn 0.12977652 0.28882143 -0.94854647
vn 0.1780061 0.26184812 -0.9485513
g Md_CMN_SpiralCorn_01_0
f 3/3/3 2/2/2 1/1/1
f 3/3/3 4/4/4 2/2/2
f 4/4/4 5/5/5 2/2/2
f 6/6/6 4/4/4 3/3/3
f 4/4/4 7/7/7 5/5/5
f 7/7/7 8/8/8 5/5/5
f 6/6/6 9/9/9 4/4/4
f 9/9/9 7/7/7 4/4/4
f 10/10/10 9/9/9 6/6/6
f 7/7/7 11/11/11 8/8/8
f 11/11/11 12/12/12 8/8/8
f 11/11/11 13/13/13 12/12/12
f 9/9/9 14/14/14 7/7/7
f 14/14/14 11/11/11 7/7/7
f 10/10/10 15/15/15 9/9/9
f 15/15/15 14/14/14 9/9/9
f 16/16/16 15/15/15 10/10/10
f 17/17/17 13/13/13 11/11/11
f 14/14/14 17/17/17 11/11/11
f 17/17/17 18/18/18 13/13/13
f 15/15/15 19/19/19 14/14/14
f 19/19/19 17/17/17 14/14/14
f 16/16/16 20/20/20 15/15/15
f 20/20/20 19/19/19 15/15/15
f 21/21/21 20/20/20 16/16/16
f 22/22/22 18/18/18 17/17/17
f 19/19/19 22/22/22 17/17/17
f 22/22/22 23/23/23 18/18/18
f 20/20/20 24/24/24 19/19/19
f 24/24/24 22/22/22 19/19/19
f 21/21/21 25/25/25 20/20/20
f 25/25/25 24/24/24 20/20/20
f 26/26/26 25/25/25 21/21/21
f 27/27/27 23/23/23 22/22/22
f 24/24/24 27/27/27 22/22/22
f 27/27/27 28/28/28 23/23/23
f 25/25/25 29/29/29 24/24/24
f 29/29/29 27/27/27 24/24/24
f 26/26/26 30/30/30 25/25/25
f 30/30/30 29/29/29 25/25/25
f 31/31/31 30/30/30 26/26/26
f 32/32/32 28/28/28 27/27/27
f 29/29/29 32/32/32 27/27/27
f 32/32/32 33/33/33 28/28/28
f 30/30/30 34/34/34 29/29/29
f 34/34/34 32/32/32 29/29/29
f 31/31/31 35/35/35 30/30/30
f 35/35/35 34/34/34 30/30/30
f 36/36/36 35/35/35 31/31/31
f 37/37/37 33/33/33 32/32/32
f 34/34/34 37/37/37 32/32/32
f 37/37/37 38/38/38 33/33/33
f 35/35/35 39/39/39 34/34/34
f 39/39/39 37/37/37 34/34/34
f 36/36/36 40/40/40 35/35/35
f 40/40/40 39/39/39 35/35/35
f 41/41/41 40/40/40 36/36/36
f 42/42/42 38/38/38 37/37/37
f 39/39/39 42/42/42 37/37/37
f 42/42/42 43/43/43 38/38/38
f 40/40/40 44/44/44 39/39/39
f 44/44/44 42/42/42 39/39/39
f 41/41/41 45/45/45 40/40/40
f 45/45/45 44/44/44 40/40/40
f 46/46/46 45/45/45 41/41/41
f 47/47/47 43/43/43 42/42/42
f 44/44/44 47/47/47 42/42/42
f 47/47/47 48/48/48 43/43/43
f 45/45/45 49/49/49 44/44/44
f 49/49/49 47/47/47 44/44/44
f 46/46/46 50/50/50 45/45/45
f 50/50/50 49/49/49 45/45/45
f 51/51/51 50/50/50 46/46/46
f 52/52/52 48/48/48 47/47/47
f 49/49/49 52/52/52 47/47/47
f 52/52/52 53/53/53 48/48/48
f 50/50/50 54/54/54 49/49/49
f 54/54/54 52/52/52 49/49/49
f 51/51/51 55/55/55 50/50/50
f 55/55/55 54/54/54 50/50/50
f 56/56/56 55/55/55 51/51/51
f 57/57/57 53/53/53 52/52/52
f 54/54/54 57/57/57 52/52/52
f 57/57/57 58/58/58 53/53/53
f 55/55/55 59/59/59 54/54/54
f 59/59/59 57/57/57 54/54/54
f 56/56/56 60/60/60 55/55/55
f 60/60/60 59/59/59 55/55/55
f 61/61/61 60/60/60 56/56/56
f 62/62/62 58/58/58 57/57/57
f 59/59/59 62/62/62 57/57/57
f 62/62/62 63/63/63 58/58/58
f 60/60/60 64/64/64 59/59/59
f 64/64/64 62/62/62 59/59/59
f 61/61/61 65/65/65 60/60/60
f 65/65/65 64/64/64 60/60/60
f 66/66/66 65/65/65 61/61/61
f 67/67/67 63/63/63 62/62/62
f 64/64/64 67/67/67 62/62/62
f 67/67/67 68/68/68 63/63/63
f 65/65/65 69/69/69 64/64/64
f 69/69/69 67/67/67 64/64/64
f 66/66/66 70/70/70 65/65/65
f 70/70/70 69/69/69 65/65/65
f 71/71/71 70/70/70 66/66/66
f 72/72/72 68/68/68 67/67/67
f 69/69/69 72/72/72 67/67/67
f 72/72/72 73/73/73 68/68/68
f 70/70/70 74/74/74 69/69/69
f 74/74/74 72/72/72 69/69/69
f 71/71/71 75/75/75 70/70/70
f 75/75/75 74/74/74 70/70/70
f 76/76/76 75/75/75 71/71/71
f 77/77/77 73/73/73 72/72/72
f 74/74/74 77/77/77 72/72/72
f 77/77/77 78/78/78 73/73/73
f 75/75/75 79/79/79 74/74/74
f 79/79/79 77/77/77 74/74/74
f 76/76/76 80/80/80 75/75/75
f 80/80/80 79/79/79 75/75/75
f 81/81/81 80/80/80 76/76/76
f 82/82/82 78/78/78 77/77/77
f 79/79/79 82/82/82 77/77/77
f 82/82/82 83/83/83 78/78/78
f 80/80/80 84/84/84 79/79/79
f 84/84/84 82/82/82 79/79/79
f 81/81/81 85/85/85 80/80/80
f 85/85/85 84/84/84 80/80/80
f 86/86/86 85/85/85 81/81/81
f 87/87/87 83/83/83 82/82/82
f 84/84/84 87/87/87 82/82/82
f 87/87/87 88/88/88 83/83/83
f 85/85/85 89/89/89 84/84/84
f 89/89/89 87/87/87 84/84/84
f 86/86/86 90/90/90 85/85/85
f 90/90/90 89/89/89 85/85/85
f 91/91/91 90/90/90 86/86/86
f 92/92/92 88/88/88 87/87/87
f 89/89/89 92/92/92 87/87/87
f 92/92/92 93/93/93 88/88/88
f 90/90/90 94/94/94 89/89/89
f 94/94/94 92/92/92 89/89/89
f 91/91/91 95/95/95 90/90/90
f 95/95/95 94/94/94 90/90/90
f 96/96/96 95/95/95 91/91/91
f 96/96/96 97/97/97 95/95/95
f 98/98/98 93/93/93 92/92/92
f 94/94/94 98/98/98 92/92/92
f 98/98/98 99/99/99 93/93/93
f 95/95/95 100/100/100 94/94/94
f 97/97/97 100/100/100 95/95/95
f 100/100/100 98/98/98 94/94/94
f 97/97/97 101/101/101 100/100/100
f 102/102/102 99/99/99 98/98/98
f 100/100/100 102/102/102 98/98/98
f 101/101/101 102/102/102 100/100/100
f 102/102/102 103/103/103 99/99/99
f 101/101/101 104/104/104 102/102/102
f 104/104/104 103/103/103 102/102/102
f 104/104/104 105/105/105 103/103/103
