g Md_CMN_Stone_00
v -0.0011024039 0.018674439 0.8206767
v -0.090852246 -0.041628387 0.7961551
v -0.0010762671 0.07519586 0.8242023
v -0.16536531 -0.01903607 0.64437485
v -0.090852246 -0.041628387 0.7961551
v -0.30805397 -0.049825553 0.4488948
v 0.37128302 0.05901492 -0.18900034
v 0.42685944 0.00025783322 -0.15596959
v 0.351208 0.049566746 0.15370654
v -0.4312305 0.0047764857 0.08663213
v -0.3788988 0.06237811 -0.10997378
v -0.42041364 0.048023567 0.07706445
v -0.3239442 0.025906777 -0.4571632
v -0.31354952 0.074389 -0.4500783
v -0.4296476 -0.048086513 -0.052522954
v -0.4312305 0.0047764857 0.08663213
v -0.45322752 -0.03426201 0.07650468
v -0.17719558 0.0009282041 -0.765918
v -0.051495977 -0.035470057 -0.67874444
v 0.15789719 0.048038404 -0.628497
v -0.051495977 -0.035470057 -0.67874444
v 0.23017478 -0.0078398725 -0.53978014
v 0.15789719 0.048038404 -0.628497
v 0.29192352 0.021629173 0.46417624
v 0.29063857 0.08739223 0.4707791
v 0.351208 0.049566746 0.15370654
v -0.22500587 -0.10701282 0.00208161
v -0.40640628 -0.06396675 -0.08910453
v -0.37641346 -0.061992418 -0.005613717
v -0.37641346 -0.061992418 -0.005613717
v -0.40640628 -0.06396675 -0.08910453
v -0.4296476 -0.048086513 -0.052522954
v -0.40640628 -0.06396675 -0.08910453
v -0.38567916 -0.043217488 -0.2801971
v -0.4296476 -0.048086513 -0.052522954
v -0.30805397 -0.049825553 0.4488948
v -0.45322752 -0.03426201 0.07650468
v -0.3950796 -0.033588476 0.22374259
v -0.3788988 0.06237811 -0.10997378
v -0.3775165 0.091450155 0.11477724
v -0.42041364 0.048023567 0.07706445
v -0.24172354 0.049472596 -0.6382292
v -0.3239442 0.025906777 -0.4571632
v -0.31417486 -0.014980859 -0.5622806
v -0.31417486 -0.014980859 -0.5622806
v -0.3239442 0.025906777 -0.4571632
v -0.38567916 -0.043217488 -0.2801971
v -0.17719558 0.0009282041 -0.765918
v -0.24172354 0.049472596 -0.6382292
v -0.31417486 -0.014980859 -0.5622806
v -0.24172354 0.049472596 -0.6382292
v -0.31354952 0.074389 -0.4500783
v -0.3239442 0.025906777 -0.4571632
v 0.09617861 -0.07496568 -0.56813765
v 0.27561396 -0.07914699 -0.50654113
v -0.051495977 -0.035470057 -0.67874444
v -0.051495977 -0.035470057 -0.67874444
v 0.27561396 -0.07914699 -0.50654113
v 0.23017478 -0.0078398725 -0.53978014
v 0.23162599 -0.11986792 0.09118647
v 0.3275748 -0.10833999 0.01735792
v 0.32336277 -0.099177845 -0.13748032
v 0.27561396 -0.07914699 -0.50654113
v 0.23162599 -0.11986792 0.09118647
v -0.097698 -0.12109571 -0.0062187198
v 0.095298 -0.12283761 0.249649
v -0.024994131 -0.09171429 -0.3162219
v 0.27561396 -0.07914699 -0.50654113
v 0.09617861 -0.07496568 -0.56813765
v 0.33632046 -0.087835416 -0.3471512
v 0.32336277 -0.099177845 -0.13748032
v 0.32336277 -0.099177845 -0.13748032
v 0.3275748 -0.10833999 0.01735792
v 0.44772792 -0.0488891 -0.14074992
v 0.40453503 -0.047758892 -0.29080328
v 0.32336277 -0.099177845 -0.13748032
v 0.44772792 -0.0488891 -0.14074992
v 0.30205485 0.09508986 0.015843304
v 0.1776934 0.14590988 -0.1311732
v 0.30386394 0.09934461 -0.26311347
v 0.34305382 -0.048720393 0.28981227
v 0.351208 0.049566746 0.15370654
v 0.39854097 -0.07369025 0.09618338
v -0.011843252 0.14516933 0.5250608
v 0.074639335 0.15085925 0.33432713
v 0.0015499952 0.12833591 0.72121835
v -0.011843252 0.14516933 0.5250608
v 0.0015499952 0.12833591 0.72121835
v -0.080705024 0.14044513 0.5612947
v -0.19218384 0.12598185 0.44375193
v -0.080705024 0.14044513 0.5612947
v 0.0015499952 0.12833591 0.72121835
v 0.0015499952 0.12833591 0.72121835
v 0.24543901 0.09233643 0.57437867
v 0.062635064 0.10671757 0.75306916
v -0.28265494 0.11284506 0.30832046
v -0.30805397 -0.049825553 0.4488948
v -0.42041364 0.048023567 0.07706445
v 0.062635064 0.10671757 0.75306916
v -0.0010762671 0.07519586 0.8242023
v 0.0015499952 0.12833591 0.72121835
v 0.09951936 0.0011049152 0.67631644
v 0.24543901 0.09233643 0.57437867
v 0.29192352 0.021629173 0.46417624
v 0.29597947 -0.014611514 0.4786769
v 0.119851075 -0.041800737 0.5661452
v 0.09951936 0.0011049152 0.67631644
v 0.40453503 -0.047758892 -0.29080328
v 0.44772792 -0.0488891 -0.14074992
v 0.42685944 0.00025783322 -0.15596959
v -0.3950796 -0.033588476 0.22374259
v -0.45322752 -0.03426201 0.07650468
v -0.4312305 0.0047764857 0.08663213
v -0.30805397 -0.049825553 0.4488948
v -0.42041364 0.048023567 0.07706445
v -0.17719558 0.0009282041 -0.765918
v 0.15789719 0.048038404 -0.628497
v -0.131379 0.048864 -0.76931965
v -0.17719558 0.0009282041 -0.765918
v -0.131379 0.048864 -0.76931965
v -0.24172354 0.049472596 -0.6382292
v -0.131379 0.048864 -0.76931965
v 0.15789719 0.048038404 -0.628497
v -0.051549964 0.07765777 -0.7298152
v -0.090852246 -0.041628387 0.7961551
v -0.19193843 -0.07475441 0.68302613
v -0.30805397 -0.049825553 0.4488948
v -0.0010762671 0.07519586 0.8242023
v 0.09951936 0.0011049152 0.67631644
v -0.0011024039 0.018674439 0.8206767
v 0.40453503 -0.047758892 -0.29080328
v 0.27561396 -0.07914699 -0.50654113
v 0.33632046 -0.087835416 -0.3471512
v 0.31881842 -0.03555363 -0.47440132
v 0.27561396 -0.07914699 -0.50654113
v 0.40453503 -0.047758892 -0.29080328
v 0.31881842 -0.03555363 -0.47440132
v 0.24511664 0.08202911 -0.4570197
v 0.23017478 -0.0078398725 -0.53978014
v 0.37128302 0.05901492 -0.18900034
v 0.30386394 0.09934461 -0.26311347
v 0.24511664 0.08202911 -0.4570197
v -0.32600537 0.09953105 0.054691456
v -0.33474532 0.08874346 -0.18861473
v -0.2965692 0.09692667 -0.38069165
v 0.0007443727 0.10554095 -0.67991674
v -0.051549964 0.07765777 -0.7298152
v 0.13183701 0.0804797 -0.6501734
v 0.13183701 0.0804797 -0.6501734
v -0.051549964 0.07765777 -0.7298152
v 0.15789719 0.048038404 -0.628497
v 0.31881842 -0.03555363 -0.47440132
v 0.23017478 -0.0078398725 -0.53978014
v 0.27561396 -0.07914699 -0.50654113
v 0.39854097 -0.07369025 0.09618338
v 0.44772792 -0.0488891 -0.14074992
v 0.3275748 -0.10833999 0.01735792
v 0.32336277 -0.099177845 -0.13748032
v 0.40453503 -0.047758892 -0.29080328
v 0.33632046 -0.087835416 -0.3471512
v 0.351208 0.049566746 0.15370654
v 0.29063857 0.08739223 0.4707791
v 0.30205485 0.09508986 0.015843304
v -0.099828616 -0.0731289 0.7705684
v -0.090852246 -0.041628387 0.7961551
v 0.119851075 -0.041800737 0.5661452
v -0.19193843 -0.07475441 0.68302613
v -0.090852246 -0.041628387 0.7961551
v -0.099828616 -0.0731289 0.7705684
v 0.074639335 0.15085925 0.33432713
v 0.24543901 0.09233643 0.57437867
v 0.0015499952 0.12833591 0.72121835
v 0.30205485 0.09508986 0.015843304
v 0.30386394 0.09934461 -0.26311347
v 0.37128302 0.05901492 -0.18900034
v 0.24543901 0.09233643 0.57437867
v 0.09951936 0.0011049152 0.67631644
v 0.062635064 0.10671757 0.75306916
v 0.30205485 0.09508986 0.015843304
v 0.074639335 0.15085925 0.33432713
v 0.1776934 0.14590988 -0.1311732
v -0.42041364 0.048023567 0.07706445
v -0.3950796 -0.033588476 0.22374259
v -0.4312305 0.0047764857 0.08663213
v 0.39854097 -0.07369025 0.09618338
v 0.42685944 0.00025783322 -0.15596959
v 0.44772792 -0.0488891 -0.14074992
v 0.42685944 0.00025783322 -0.15596959
v 0.39854097 -0.07369025 0.09618338
v 0.351208 0.049566746 0.15370654
v -0.28265494 0.11284506 0.30832046
v -0.42041364 0.048023567 0.07706445
v -0.3775165 0.091450155 0.11477724
v -0.0010762671 0.07519586 0.8242023
v -0.19218384 0.12598185 0.44375193
v 0.0015499952 0.12833591 0.72121835
v -0.051495977 -0.035470057 -0.67874444
v -0.25655133 -0.05690709 -0.39437583
v -0.024994131 -0.09171429 -0.3162219
v -0.051495977 -0.035470057 -0.67874444
v 0.09617861 -0.07496568 -0.56813765
v -0.25655133 -0.05690709 -0.39437583
v -0.17719558 0.0009282041 -0.765918
v -0.31417486 -0.014980859 -0.5622806
v -0.22500587 -0.10701282 0.00208161
v -0.097698 -0.12109571 -0.0062187198
v -0.25655133 -0.05690709 -0.39437583
v -0.40640628 -0.06396675 -0.08910453
v 0.30205485 0.09508986 0.015843304
v 0.37128302 0.05901492 -0.18900034
v 0.351208 0.049566746 0.15370654
v 0.24543901 0.09233643 0.57437867
v 0.29063857 0.08739223 0.4707791
v 0.29192352 0.021629173 0.46417624
v 0.062635064 0.10671757 0.75306916
v 0.09951936 0.0011049152 0.67631644
v -0.0010762671 0.07519586 0.8242023
v 0.09951936 0.0011049152 0.67631644
v 0.29192352 0.021629173 0.46417624
v 0.29597947 -0.014611514 0.4786769
v 0.42685944 0.00025783322 -0.15596959
v 0.31881842 -0.03555363 -0.47440132
v 0.40453503 -0.047758892 -0.29080328
v 0.37128302 0.05901492 -0.18900034
v 0.24511664 0.08202911 -0.4570197
v 0.0752745 0.1350889 -0.32618257
v 0.1776934 0.14590988 -0.1311732
v 0.074639335 0.15085925 0.33432713
v -0.15523914 0.1091685 -0.45767558
v -0.017576473 0.12216207 -0.594588
v -0.32600537 0.09953105 0.054691456
v -0.2965692 0.09692667 -0.38069165
v 0.0752745 0.1350889 -0.32618257
v 0.074639335 0.15085925 0.33432713
v -0.28265494 0.11284506 0.30832046
v -0.19218384 0.12598185 0.44375193
v -0.011843252 0.14516933 0.5250608
v -0.080705024 0.14044513 0.5612947
v 0.074639335 0.15085925 0.33432713
v 0.29063857 0.08739223 0.4707791
v 0.24543901 0.09233643 0.57437867
v 0.30205485 0.09508986 0.015843304
v -0.30805397 -0.049825553 0.4488948
v -0.19193843 -0.07475441 0.68302613
v -0.20236726 -0.08296694 0.4836379
v -0.22500587 -0.10701282 0.00208161
v -0.37641346 -0.061992418 -0.005613717
v -0.45322752 -0.03426201 0.07650468
v -0.4296476 -0.048086513 -0.052522954
v 0.23017478 -0.0078398725 -0.53978014
v 0.24511664 0.08202911 -0.4570197
v 0.15789719 0.048038404 -0.628497
v 0.13183701 0.0804797 -0.6501734
v -0.097698 -0.12109571 -0.0062187198
v -0.0014647605 -0.09498249 0.51002455
v 0.095298 -0.12283761 0.249649
v -0.22500587 -0.10701282 0.00208161
v -0.20236726 -0.08296694 0.4836379
v -0.19193843 -0.07475441 0.68302613
v -0.0014647605 -0.09498249 0.51002455
v -0.099828616 -0.0731289 0.7705684
v -0.40640628 -0.06396675 -0.08910453
v -0.25655133 -0.05690709 -0.39437583
v -0.38567916 -0.043217488 -0.2801971
v -0.31417486 -0.014980859 -0.5622806
v -0.32600537 0.09953105 0.054691456
v -0.28265494 0.11284506 0.30832046
v -0.3775165 0.091450155 0.11477724
v -0.33474532 0.08874346 -0.18861473
v -0.3239442 0.025906777 -0.4571632
v -0.3788988 0.06237811 -0.10997378
v -0.38567916 -0.043217488 -0.2801971
v -0.4296476 -0.048086513 -0.052522954
v -0.4312305 0.0047764857 0.08663213
v 0.3275748 -0.10833999 0.01735792
v 0.23162599 -0.11986792 0.09118647
v 0.39854097 -0.07369025 0.09618338
v 0.34305382 -0.048720393 0.28981227
v 0.095298 -0.12283761 0.249649
v 0.29597947 -0.014611514 0.4786769
v 0.119851075 -0.041800737 0.5661452
v -0.0014647605 -0.09498249 0.51002455
v -0.099828616 -0.0731289 0.7705684
v 0.119851075 -0.041800737 0.5661452
v 0.095298 -0.12283761 0.249649
v 0.09951936 0.0011049152 0.67631644
v 0.119851075 -0.041800737 0.5661452
v -0.090852246 -0.041628387 0.7961551
v -0.0011024039 0.018674439 0.8206767
v -0.33474532 0.08874346 -0.18861473
v -0.3775165 0.091450155 0.11477724
v -0.3788988 0.06237811 -0.10997378
v -0.31354952 0.074389 -0.4500783
v -0.2965692 0.09692667 -0.38069165
v -0.017576473 0.12216207 -0.594588
v 0.0007443727 0.10554095 -0.67991674
v 0.0752745 0.1350889 -0.32618257
v 0.13183701 0.0804797 -0.6501734
v 0.24511664 0.08202911 -0.4570197
v 0.0752745 0.1350889 -0.32618257
v 0.1776934 0.14590988 -0.1311732
v 0.30386394 0.09934461 -0.26311347
v -0.30805397 -0.049825553 0.4488948
v -0.28265494 0.11284506 0.30832046
v -0.16536531 -0.01903607 0.64437485
v -0.19218384 0.12598185 0.44375193
v -0.0010762671 0.07519586 0.8242023
v -0.090852246 -0.041628387 0.7961551
v -0.2965692 0.09692667 -0.38069165
v -0.31354952 0.074389 -0.4500783
v -0.15523914 0.1091685 -0.45767558
v -0.24172354 0.049472596 -0.6382292
v -0.131379 0.048864 -0.76931965
v -0.051549964 0.07765777 -0.7298152
v -0.15523914 0.1091685 -0.45767558
v -0.051549964 0.07765777 -0.7298152
v -0.017576473 0.12216207 -0.594588
v 0.0007443727 0.10554095 -0.67991674
v 0.29192352 0.021629173 0.46417624
v 0.34305382 -0.048720393 0.28981227
v 0.29597947 -0.014611514 0.4786769
v 0.351208 0.049566746 0.15370654
vt 0.43141842 0.5615077
vt 0.51552904 0.54328215
vt 0.36734197 0.54396224
vt 0.66822165 0.85460144
vt 0.6806425 0.92671615
vt 0.7293819 0.7551821
vt 0.18477356 0.8511397
vt 0.112124994 0.8812049
vt 0.19052789 0.9296554
vt 0.85063744 0.60542494
vt 0.9175715 0.67600876
vt 0.90180176 0.6096449
vt 0.8707562 0.79474807
vt 0.928511 0.7938663
vt 0.7847548 0.64785177
vt 0.85063744 0.60542494
vt 0.8020112 0.60260403
vt 0.14601031 0.47885147
vt 0.09490509 0.55181766
vt 0.17396966 0.65197444
vt 0.09490509 0.55181766
vt 0.10544482 0.703065
vt 0.17396966 0.65197444
vt 0.35997435 0.76728344
vt 0.28576195 0.74575907
vt 0.30510387 0.8490757
vt 0.2066735 0.34919688
vt 0.10527319 0.40401697
vt 0.13882738 0.40808362
vt 0.13882738 0.40808362
vt 0.10527319 0.40401697
vt 0.10356401 0.42004538
vt 0.7684288 0.6671049
vt 0.78844666 0.72699183
vt 0.7847548 0.64785177
vt 0.7293819 0.7551821
vt 0.7370246 0.59926075
vt 0.7260889 0.65996647
vt 0.9175715 0.67600876
vt 0.959505 0.61180526
vt 0.90180176 0.6096449
vt 0.90324014 0.8732125
vt 0.8707562 0.79474807
vt 0.8211192 0.82985055
vt 0.8211192 0.82985055
vt 0.8707562 0.79474807
vt 0.78844666 0.72699183
vt 0.85181963 0.9342423
vt 0.90324014 0.8732125
vt 0.8211192 0.82985055
vt 0.90324014 0.8732125
vt 0.928511 0.7938663
vt 0.8707562 0.79474807
vt 0.03903293 0.63967913
vt 0.019149594 0.728792
vt 0.09490509 0.55181766
vt 0.09490509 0.55181766
vt 0.019149594 0.728792
vt 0.10544482 0.703065
vt 0.4112359 0.17677528
vt 0.4277368 0.12104602
vt 0.3838603 0.091144934
vt 0.2647389 0.035777777
vt 0.4112359 0.17677528
vt 0.25643817 0.29516402
vt 0.40004107 0.26582628
vt 0.19886251 0.20061359
vt 0.2647389 0.035777777
vt 0.17745359 0.09825538
vt 0.33191994 0.042913273
vt 0.3838603 0.091144934
vt 0.3838603 0.091144934
vt 0.4277368 0.12104602
vt 0.42465055 0.03514014
vt 0.36788377 0.023041561
vt 0.3838603 0.091144934
vt 0.42465055 0.03514014
vt 0.56624293 0.25521687
vt 0.63287157 0.21467276
vt 0.56945306 0.15201125
vt 0.4236097 0.8470385
vt 0.30510387 0.8490757
vt 0.43413177 0.91917384
vt 0.736155 0.47702336
vt 0.6856863 0.3975591
vt 0.72823125 0.5478565
vt 0.736155 0.47702336
vt 0.72823125 0.5478565
vt 0.7785927 0.4975645
vt 0.5069395 0.7651552
vt 0.46982527 0.8351351
vt 0.46888113 0.91041124
vt 0.72823125 0.5478565
vt 0.59077823 0.46749908
vt 0.6954815 0.55290574
vt 0.53837043 0.6979064
vt 0.7293819 0.7551821
vt 0.63705975 0.59681904
vt 0.31697878 0.57820857
vt 0.36734197 0.54396224
vt 0.30244535 0.5502043
vt 0.42713606 0.64215386
vt 0.2925561 0.70255685
vt 0.35997435 0.76728344
vt 0.40096548 0.7770042
vt 0.46779975 0.6865941
vt 0.42713606 0.64215386
vt 0.052431013 0.83695525
vt 0.053344104 0.8927021
vt 0.112124994 0.8812049
vt 0.7260889 0.65996647
vt 0.7370246 0.59926075
vt 0.68842906 0.60311157
vt 0.7293819 0.7551821
vt 0.63705975 0.59681904
vt 0.14601031 0.47885147
vt 0.17396966 0.65197444
vt 0.1973235 0.49766976
vt 0.85181963 0.9342423
vt 0.91366005 0.94874567
vt 0.90324014 0.8732125
vt 0.1973235 0.49766976
vt 0.17396966 0.65197444
vt 0.22479236 0.5409577
vt 0.6806425 0.92671615
vt 0.7370246 0.86508495
vt 0.7293819 0.7551821
vt 0.36734197 0.54396224
vt 0.42713606 0.64215386
vt 0.43141842 0.5615077
vt 0.052431013 0.83695525
vt 0.019149594 0.728792
vt 0.009917133 0.79394615
vt 0.06718554 0.7554728
vt 0.019149594 0.728792
vt 0.052431013 0.83695525
vt 0.06718554 0.7554728
vt 0.21248218 0.7318628
vt 0.10544482 0.703065
vt 0.18477356 0.8511397
vt 0.2352966 0.8054545
vt 0.21248218 0.7318628
vt 0.94760066 0.33549586
vt 0.96013093 0.24635082
vt 0.93856657 0.17149197
vt 0.25435764 0.5755757
vt 0.22479236 0.5409577
vt 0.21347693 0.6363986
vt 0.21347693 0.6363986
vt 0.22479236 0.5409577
vt 0.17396966 0.65197444
vt 0.06718554 0.7554728
vt 0.10544482 0.703065
vt 0.019149594 0.728792
vt 0.47149217 0.10488726
vt 0.42465055 0.03514014
vt 0.4277368 0.12104602
vt 0.3838603 0.091144934
vt 0.36788377 0.023041561
vt 0.33191994 0.042913273
vt 0.19052789 0.9296554
vt 0.25435767 0.9859507
vt 0.24256182 0.8753869
vt 0.551967 0.55373764
vt 0.51552904 0.54328215
vt 0.46779975 0.6865941
vt 0.7370246 0.86508495
vt 0.6806425 0.92671615
vt 0.7180417 0.92218935
vt 0.6856863 0.3975591
vt 0.59077823 0.46749908
vt 0.72823125 0.5478565
vt 0.24256182 0.8753869
vt 0.2352966 0.8054545
vt 0.18477356 0.8511397
vt 0.2925561 0.70255685
vt 0.42713606 0.64215386
vt 0.31697878 0.57820857
vt 0.56624293 0.25521687
vt 0.6856863 0.3975591
vt 0.63287157 0.21467276
vt 0.63705975 0.59681904
vt 0.7260889 0.65996647
vt 0.68842906 0.60311157
vt 0.43413177 0.91917384
vt 0.33499762 0.96123266
vt 0.3875753 0.982365
vt 0.33499762 0.96123266
vt 0.43413177 0.91917384
vt 0.30510387 0.8490757
vt 0.53837043 0.6979064
vt 0.63705975 0.59681904
vt 0.57963705 0.61497384
vt 0.53058785 0.94647235
vt 0.5069395 0.7651552
vt 0.46888113 0.91041124
vt 0.08465958 0.13529441
vt 0.082395405 0.27958244
vt 0.19886251 0.20061359
vt 0.08465958 0.13529441
vt 0.17745359 0.09825538
vt 0.082395405 0.27958244
vt 0.00712204 0.16803902
vt 0.00944975 0.2672728
vt 0.2066735 0.34919688
vt 0.25643817 0.29516402
vt 0.082395405 0.27958244
vt 0.10527319 0.40401697
vt 0.24256182 0.8753869
vt 0.18477356 0.8511397
vt 0.19052789 0.9296554
vt 0.2925561 0.70255685
vt 0.28576195 0.74575907
vt 0.35997435 0.76728344
vt 0.31697878 0.57820857
vt 0.42713606 0.64215386
vt 0.36734197 0.54396224
vt 0.42713606 0.64215386
vt 0.35997435 0.76728344
vt 0.40096548 0.7770042
vt 0.112124994 0.8812049
vt 0.06718554 0.7554728
vt 0.052431013 0.83695525
vt 0.18477356 0.8511397
vt 0.21248218 0.7318628
vt 0.7016376 0.15319686
vt 0.63287157 0.21467276
vt 0.6856863 0.3975591
vt 0.8509151 0.12840353
vt 0.7664661 0.06356628
vt 0.94760066 0.33549586
vt 0.93856657 0.17149197
vt 0.7016376 0.15319686
vt 0.6856863 0.3975591
vt 0.91316044 0.42486274
vt 0.8522711 0.46561047
vt 0.736155 0.47702336
vt 0.7785927 0.4975645
vt 0.6856863 0.3975591
vt 0.56635225 0.42440617
vt 0.59077823 0.46749908
vt 0.56624293 0.25521687
vt 0.28404292 0.46985918
vt 0.39502823 0.46985918
vt 0.33940774 0.4347596
vt 0.2066735 0.34919688
vt 0.13882738 0.40808362
vt 0.12644629 0.4548971
vt 0.10356401 0.42004538
vt 0.10544482 0.703065
vt 0.21248218 0.7318628
vt 0.17396966 0.65197444
vt 0.21347693 0.6363986
vt 0.25643817 0.29516402
vt 0.42692494 0.35674486
vt 0.40004107 0.26582628
vt 0.2066735 0.34919688
vt 0.33940774 0.4347596
vt 0.39502823 0.46985918
vt 0.42692494 0.35674486
vt 0.45407802 0.44876015
vt 0.10527319 0.40401697
vt 0.082395405 0.27958244
vt 0.059954643 0.35564476
vt 0.00944975 0.2672728
vt 0.94760066 0.33549586
vt 0.91316044 0.42486274
vt 0.979794 0.3629822
vt 0.96013093 0.24635082
vt 0.8707562 0.79474807
vt 0.9175715 0.67600876
vt 0.78844666 0.72699183
vt 0.7847548 0.64785177
vt 0.85063744 0.60542494
vt 0.4277368 0.12104602
vt 0.4112359 0.17677528
vt 0.47149217 0.10488726
vt 0.49734282 0.16532613
vt 0.40004107 0.26582628
vt 0.52985394 0.22253054
vt 0.49123448 0.31685007
vt 0.42692494 0.35674486
vt 0.45407802 0.44876015
vt 0.49123448 0.31685007
vt 0.40004107 0.26582628
vt 0.42713606 0.64215386
vt 0.46779975 0.6865941
vt 0.51552904 0.54328215
vt 0.43141842 0.5615077
vt 0.951527 0.7122031
vt 0.959505 0.61180526
vt 0.9175715 0.67600876
vt 0.928511 0.7938663
vt 0.959505 0.77913576
vt 0.7664661 0.06356628
vt 0.7608562 0.029873312
vt 0.7016376 0.15319686
vt 0.68625414 0.026752517
vt 0.61309505 0.08626895
vt 0.7016376 0.15319686
vt 0.63287157 0.21467276
vt 0.56945306 0.15201125
vt 0.7293819 0.7551821
vt 0.53837043 0.6979064
vt 0.66822165 0.85460144
vt 0.5069395 0.7651552
vt 0.53058785 0.94647235
vt 0.6806425 0.92671615
vt 0.93856657 0.17149197
vt 0.95559037 0.14730543
vt 0.8509151 0.12840353
vt 0.92126703 0.06988709
vt 0.856596 0.009867862
vt 0.80031854 0.016513124
vt 0.8509151 0.12840353
vt 0.80031854 0.016513124
vt 0.7664661 0.06356628
vt 0.7608562 0.029873312
vt 0.35997435 0.76728344
vt 0.4236097 0.8470385
vt 0.40096548 0.7770042
vt 0.30510387 0.8490757
vn -0.22501728 -0.060555536 0.97247124
vn -0.22501728 -0.060555536 0.97247124
vn -0.22501728 -0.060555536 0.97247124
vn -0.71117264 0.5548422 0.43172163
vn -0.71117264 0.5548422 0.43172163
vn -0.71117264 0.5548422 0.43172163
vn 0.70784336 0.70374227 0.06086558
vn 0.70784336 0.70374227 0.06086558
vn 0.70784336 0.70374227 0.06086558
vn -0.96031445 0.1963682 -0.19807993
vn -0.96031445 0.1963682 -0.19807993
vn -0.96031445 0.1963682 -0.19807993
vn -0.95698684 0.2308597 -0.17572711
vn -0.95698684 0.2308597 -0.17572711
vn -0.8283569 0.52049345 -0.20715077
vn -0.8283569 0.52049345 -0.20715077
vn -0.8283569 0.52049345 -0.20715077
vn 0.38707575 -0.5072886 -0.769955
vn 0.38707575 -0.5072886 -0.769955
vn 0.38707575 -0.5072886 -0.769955
vn 0.4031123 -0.58969116 -0.6998319
vn 0.4031123 -0.58969116 -0.6998319
vn 0.4031123 -0.58969116 -0.6998319
vn 0.9822468 0.00035793023 0.18759303
vn 0.9822468 0.00035793023 0.18759303
vn 0.9822468 0.00035793023 0.18759303
vn -0.28862113 -0.94909954 0.12612648
vn -0.28862113 -0.94909954 0.12612648
vn -0.28862113 -0.94909954 0.12612648
vn -0.37676278 -0.91291916 0.15693457
vn -0.37676278 -0.91291916 0.15693457
vn -0.37676278 -0.91291916 0.15693457
vn -0.7091892 -0.68850785 -0.15168308
vn -0.7091892 -0.68850785 -0.15168308
vn -0.7091892 -0.68850785 -0.15168308
vn -0.92545694 0.101432696 0.36502182
vn -0.92545694 0.101432696 0.36502182
vn -0.92545694 0.101432696 0.36502182
vn -0.6675912 0.7388877 -0.091470875
vn -0.6675912 0.7388877 -0.091470875
vn -0.6675912 0.7388877 -0.091470875
vn -0.7866047 0.54724383 -0.2859672
vn -0.7866047 0.54724383 -0.2859672
vn -0.7866047 0.54724383 -0.2859672
vn -0.92990524 0.3052625 -0.20516142
vn -0.92990524 0.3052625 -0.20516142
vn -0.92990524 0.3052625 -0.20516142
vn -0.80368865 0.29339725 -0.51768965
vn -0.80368865 0.29339725 -0.51768965
vn -0.80368865 0.29339725 -0.51768965
vn -0.8941303 0.24635112 -0.3739548
vn -0.8941303 0.24635112 -0.3739548
vn -0.8941303 0.24635112 -0.3739548
vn 0.15513337 -0.8464468 -0.50937355
vn 0.15513337 -0.8464468 -0.50937355
vn 0.15513337 -0.8464468 -0.50937355
vn 0.4488361 -0.1263509 -0.8846365
vn 0.4488361 -0.1263509 -0.8846365
vn 0.4488361 -0.1263509 -0.8846365
vn 0.07275672 -0.99548966 -0.060884688
vn 0.07275672 -0.99548966 -0.060884688
vn 0.07275672 -0.99548966 -0.060884688
vn 0.06794843 -0.9957082 -0.062833406
vn 0.021295004 -0.99800605 -0.059417948
vn 0.021295004 -0.99800605 -0.059417948
vn 0.021295004 -0.99800605 -0.059417948
vn -0.00041078727 -0.9977841 -0.06653516
vn -0.00041078727 -0.9977841 -0.06653516
vn -0.00041078727 -0.9977841 -0.06653516
vn -0.0009342468 -0.99853647 -0.054074876
vn -0.0009342468 -0.99853647 -0.054074876
vn 0.37261772 -0.9257118 -0.06491281
vn 0.37261772 -0.9257118 -0.06491281
vn 0.37261772 -0.9257118 -0.06491281
vn 0.3698923 -0.9221257 -0.1134191
vn 0.3698923 -0.9221257 -0.1134191
vn 0.3698923 -0.9221257 -0.1134191
vn 0.36138895 0.93226796 0.016562928
vn 0.36138895 0.93226796 0.016562928
vn 0.36138895 0.93226796 0.016562928
vn 0.93883824 0.25002113 0.23679574
vn 0.93883824 0.25002113 0.23679574
vn 0.93883824 0.25002113 0.23679574
vn 0.1063751 0.99127734 0.07780432
vn 0.1063751 0.99127734 0.07780432
vn 0.1063751 0.99127734 0.07780432
vn -0.022544263 0.9959525 0.087007776
vn -0.022544263 0.9959525 0.087007776
vn -0.022544263 0.9959525 0.087007776
vn -0.40060562 0.87485594 0.2722908
vn -0.40060562 0.87485594 0.2722908
vn -0.40060562 0.87485594 0.2722908
vn 0.24610572 0.95330465 0.17504886
vn 0.24610572 0.95330465 0.17504886
vn 0.24610572 0.95330465 0.17504886
vn -0.8194763 0.44259402 0.3641003
vn -0.8194763 0.44259402 0.3641003
vn -0.8194763 0.44259402 0.3641003
vn 0.074147455 0.8854484 0.45878455
vn 0.074147455 0.8854484 0.45878455
vn 0.074147455 0.8854484 0.45878455
vn 0.6830974 -0.4488446 0.5761219
vn 0.6830974 -0.4488446 0.5761219
vn 0.6830974 -0.4488446 0.5761219
vn 0.32851246 -0.8580359 0.39478344
vn 0.32851246 -0.8580359 0.39478344
vn 0.32851246 -0.8580359 0.39478344
vn 0.9149798 0.30766827 -0.26105976
vn 0.9149798 0.30766827 -0.26105976
vn 0.9149798 0.30766827 -0.26105976
vn -0.8551862 0.39472583 0.3359287
vn -0.8551862 0.39472583 0.3359287
vn -0.8551862 0.39472583 0.3359287
vn -0.8543817 0.37718865 0.3574362
vn -0.8543817 0.37718865 0.3574362
vn 0.39342266 -0.4335595 -0.8107063
vn 0.39342266 -0.4335595 -0.8107063
vn 0.39342266 -0.4335595 -0.8107063
vn -0.6301975 0.5645088 -0.53308606
vn -0.6301975 0.5645088 -0.53308606
vn -0.6301975 0.5645088 -0.53308606
vn 0.43766 0.019912388 -0.89892006
vn 0.43766 0.019912388 -0.89892006
vn 0.43766 0.019912388 -0.89892006
vn -0.65178066 0.6490325 0.39235035
vn -0.65178066 0.6490325 0.39235035
vn -0.65178066 0.6490325 0.39235035
vn 0.8177686 -0.036207564 0.57440716
vn 0.8177686 -0.036207564 0.57440716
vn 0.8177686 -0.036207564 0.57440716
vn 0.64989346 -0.7041976 -0.28590968
vn 0.64989346 -0.7041976 -0.28590968
vn 0.64989346 -0.7041976 -0.28590968
vn 0.7813022 -0.48178837 -0.39679572
vn 0.7813022 -0.48178837 -0.39679572
vn 0.7813022 -0.48178837 -0.39679572
vn 0.613325 0.4774466 -0.6291877
vn 0.613325 0.4774466 -0.6291877
vn 0.613325 0.4774466 -0.6291877
vn 0.6953418 0.66597736 -0.27013665
vn 0.6953418 0.66597736 -0.27013665
vn 0.6953418 0.66597736 -0.27013665
vn -0.34725192 0.9373207 -0.029084539
vn -0.34725192 0.9373207 -0.029084539
vn -0.34725192 0.9373207 -0.029084539
vn 0.28344095 0.6794743 -0.6767392
vn 0.28344095 0.6794743 -0.6767392
vn 0.28344095 0.6794743 -0.6767392
vn 0.38628986 -0.27745572 -0.8796581
vn 0.38628986 -0.27745572 -0.8796581
vn 0.38628986 -0.27745572 -0.8796581
vn 0.5943438 0.0038656187 -0.8042018
vn 0.5943438 0.0038656187 -0.8042018
vn 0.5943438 0.0038656187 -0.8042018
vn 0.44091746 -0.8975444 -0.0024173527
vn 0.44091746 -0.8975444 -0.0024173527
vn 0.44091746 -0.8975444 -0.0024173527
vn 0.5153784 -0.8568401 -0.014501525
vn 0.5153784 -0.8568401 -0.014501525
vn 0.5153784 -0.8568401 -0.014501525
vn 0.63423467 0.77259696 0.028988242
vn 0.63423467 0.77259696 0.028988242
vn 0.63423467 0.77259696 0.028988242
vn 0.5871389 -0.60455906 0.5383088
vn 0.5871389 -0.60455906 0.5383088
vn 0.5871389 -0.60455906 0.5383088
vn -0.63701427 -0.36845428 0.67709255
vn -0.63701427 -0.36845428 0.67709255
vn -0.63701427 -0.36845428 0.67709255
vn 0.20094827 0.9750114 0.09472346
vn 0.20094827 0.9750114 0.09472346
vn 0.20094827 0.9750114 0.09472346
vn 0.49990734 0.8659227 0.016449338
vn 0.49990734 0.8659227 0.016449338
vn 0.49990734 0.8659227 0.016449338
vn 0.6605336 -0.27657595 0.69799805
vn 0.6605336 -0.27657595 0.69799805
vn 0.6605336 -0.27657595 0.69799805
vn 0.3160959 0.9468336 0.059911266
vn 0.3160959 0.9468336 0.059911266
vn 0.3160959 0.9468336 0.059911266
vn -0.8999848 0.29591843 0.32009307
vn -0.8999848 0.29591843 0.32009307
vn -0.8999848 0.29591843 0.32009307
vn 0.86934716 0.43926474 0.2264553
vn 0.86934716 0.43926474 0.2264553
vn 0.86934716 0.43926474 0.2264553
vn 0.9431346 0.2750973 0.18659727
vn 0.9431346 0.2750973 0.18659727
vn 0.9431346 0.2750973 0.18659727
vn -0.79954374 0.4972081 0.33691832
vn -0.79954374 0.4972081 0.33691832
vn -0.79954374 0.4972081 0.33691832
vn -0.5443023 0.7510683 0.3736729
vn -0.5443023 0.7510683 0.3736729
vn -0.5443023 0.7510683 0.3736729
vn -0.09886557 -0.9844061 -0.14550008
vn -0.09886557 -0.9844061 -0.14550008
vn -0.11692484 -0.9857605 -0.12085014
vn -0.15643655 -0.97768 -0.14024787
vn -0.15643655 -0.97768 -0.14024787
vn -0.15357357 -0.9708683 -0.18392904
vn -0.15357357 -0.9708683 -0.18392904
vn -0.16364267 -0.9688711 -0.18576871
vn -0.11692484 -0.9857605 -0.12085014
vn -0.11692484 -0.9857605 -0.12085014
vn -0.13902043 -0.98378986 -0.11327329
vn -0.13902043 -0.98378986 -0.11327329
vn 0.58815974 0.8067552 0.056694794
vn 0.58815974 0.8067552 0.056694794
vn 0.58815974 0.8067552 0.056694794
vn 0.9159443 -0.022332568 0.40068364
vn 0.9159443 -0.022332568 0.40068364
vn 0.9159443 -0.022332568 0.40068364
vn 0.77074397 -0.17587219 0.6123909
vn 0.77074397 -0.17587219 0.6123909
vn 0.77074397 -0.17587219 0.6123909
vn 0.68111944 0.33642787 0.6503019
vn 0.68111944 0.33642787 0.6503019
vn 0.68111944 0.33642787 0.6503019
vn 0.7705334 0.5493707 -0.32321846
vn 0.7705334 0.5493707 -0.32321846
vn 0.7705334 0.5493707 -0.32321846
vn 0.78030497 0.53658885 -0.32124212
vn 0.78030497 0.53658885 -0.32124212
vn -0.059957918 0.9979151 -0.023883907
vn -0.059957918 0.9979151 -0.023883907
vn -0.059957918 0.9979151 -0.023883907
vn -0.092903055 0.9956 -0.012236701
vn -0.10526851 0.9943777 -0.011474772
vn -0.092903055 0.9956 -0.012236701
vn -0.092903055 0.9956 -0.012236701
vn -0.110658854 0.99357283 -0.023828968
vn -0.110658854 0.99357283 -0.023828968
vn -0.10324849 0.99405587 -0.034534834
vn -0.09900368 0.9949708 -0.015208577
vn -0.09900368 0.9949708 -0.015208577
vn -0.08854113 0.9953282 -0.038498983
vn 0.24570395 0.96742177 0.061029144
vn 0.24570395 0.96742177 0.061029144
vn 0.24570395 0.96742177 0.061029144
vn 0.26841736 0.9630274 0.023030445
vn -0.3153233 -0.9473592 0.055513132
vn -0.3153233 -0.9473592 0.055513132
vn -0.3153233 -0.9473592 0.055513132
vn -0.31718537 -0.94632393 0.06216476
vn -0.29252625 -0.9550082 0.048863526
vn -0.29252625 -0.9550082 0.048863526
vn -0.29252625 -0.9550082 0.048863526
vn 0.82332546 0.30430973 -0.4790936
vn 0.82332546 0.30430973 -0.4790936
vn 0.82332546 0.30430973 -0.4790936
vn 0.81236595 0.33245522 -0.47909823
vn -0.10031245 -0.99256706 0.06890653
vn -0.10031245 -0.99256706 0.06890653
vn -0.10031245 -0.99256706 0.06890653
vn -0.10627053 -0.99283856 0.05457201
vn -0.10627053 -0.99283856 0.05457201
vn -0.065462716 -0.996863 0.044483393
vn -0.045531325 -0.9967527 0.06641483
vn -0.045531325 -0.9967527 0.06641483
vn -0.21627162 -0.96783364 -0.12854786
vn -0.21627162 -0.96783364 -0.12854786
vn -0.21627162 -0.96783364 -0.12854786
vn -0.24019016 -0.9579817 -0.15677914
vn -0.17887838 0.9836457 -0.021061638
vn -0.17887838 0.9836457 -0.021061638
vn -0.17887838 0.9836457 -0.021061638
vn -0.19618051 0.9798921 -0.03639893
vn -0.9177429 0.35285056 -0.18233025
vn -0.9177429 0.35285056 -0.18233025
vn -0.9177429 0.35285056 -0.18233025
vn -0.92549145 0.35046566 -0.14366403
vn -0.92549145 0.35046566 -0.14366403
vn 0.25683326 -0.9484494 0.1856893
vn 0.25124815 -0.9473713 0.1983987
vn 0.25683326 -0.9484494 0.1856893
vn 0.25124815 -0.9473713 0.1983987
vn 0.25124815 -0.9473713 0.1983987
vn 0.2442972 -0.94178987 0.23097767
vn 0.25515845 -0.94125515 0.22120793
vn 0.3157283 -0.9281634 0.19704925
vn 0.3157283 -0.9281634 0.19704925
vn 0.3157283 -0.9281634 0.19704925
vn 0.30768532 -0.92721677 0.21353848
vn 0.4309873 -0.8111067 0.39541858
vn 0.4309873 -0.8111067 0.39541858
vn 0.4309873 -0.8111067 0.39541858
vn 0.43322632 -0.80753684 0.40024883
vn -0.63049704 0.7702623 -0.09575722
vn -0.63049704 0.7702623 -0.09575722
vn -0.63049704 0.7702623 -0.09575722
vn -0.6276917 0.77284896 -0.09331423
vn -0.6351835 0.76667094 -0.09358235
vn 0.25077772 0.9588738 -0.13293393
vn 0.25077772 0.9588738 -0.13293393
vn 0.25077772 0.9588738 -0.13293393
vn 0.20469643 0.9704422 -0.12783371
vn 0.20469643 0.9704422 -0.12783371
vn 0.18635932 0.9706933 -0.15173912
vn 0.18635932 0.9706933 -0.15173912
vn 0.20266138 0.9680242 -0.14784276
vn -0.7322112 0.5071652 0.45458815
vn -0.7322112 0.5071652 0.45458815
vn -0.7322112 0.5071652 0.45458815
vn -0.7593113 0.4749559 0.4448183
vn -0.7593113 0.4749559 0.4448183
vn -0.75893945 0.47673646 0.44354612
vn -0.21916583 0.9424527 -0.25248605
vn -0.2193932 0.9527838 -0.20992765
vn -0.2193932 0.9527838 -0.20992765
vn -0.2193932 0.9527838 -0.20992765
vn -0.24222542 0.94892347 -0.20216607
vn -0.24222542 0.94892347 -0.20216607
vn -0.31145325 0.9231048 -0.22555354
vn -0.31145325 0.9231048 -0.22555354
vn -0.31145325 0.9231048 -0.22555354
vn -0.26893428 0.9329154 -0.2394644
vn 0.9602139 0.18953031 0.20510349
vn 0.9602139 0.18953031 0.20510349
vn 0.9602139 0.18953031 0.20510349
vn 0.9591896 0.1988322 0.20104997
g Md_CMN_Stone_00_0
f 3/3/3 2/2/2 1/1/1
f 6/6/6 5/5/5 4/4/4
f 9/9/9 8/8/8 7/7/7
f 12/12/12 11/11/11 10/10/10
f 14/14/14 13/13/13 11/11/11
f 17/17/17 16/16/16 15/15/15
f 20/20/20 19/19/19 18/18/18
f 23/23/23 22/22/22 21/21/21
f 26/26/26 25/25/25 24/24/24
f 29/29/29 28/28/28 27/27/27
f 32/32/32 31/31/31 30/30/30
f 35/35/35 34/34/34 33/33/33
f 38/38/38 37/37/37 36/36/36
f 41/41/41 40/40/40 39/39/39
f 44/44/44 43/43/43 42/42/42
f 47/47/47 46/46/46 45/45/45
f 50/50/50 49/49/49 48/48/48
f 53/53/53 52/52/52 51/51/51
f 56/56/56 55/55/55 54/54/54
f 59/59/59 58/58/58 57/57/57
f 62/62/62 61/61/61 60/60/60
f 62/62/62 64/64/64 63/63/63
f 64/64/64 66/66/66 65/65/65
f 64/64/64 65/65/65 67/67/67
f 68/68/68 64/64/64 67/67/67
f 69/69/69 68/68/68 67/67/67
f 71/71/71 68/68/68 70/70/70
f 74/74/74 73/73/73 72/72/72
f 77/77/77 76/76/76 75/75/75
f 80/80/80 79/79/79 78/78/78
f 83/83/83 82/82/82 81/81/81
f 86/86/86 85/85/85 84/84/84
f 89/89/89 88/88/88 87/87/87
f 92/92/92 91/91/91 90/90/90
f 95/95/95 94/94/94 93/93/93
f 98/98/98 97/97/97 96/96/96
f 101/101/101 100/100/100 99/99/99
f 104/104/104 103/103/103 102/102/102
f 107/107/107 106/106/106 105/105/105
f 110/110/110 109/109/109 108/108/108
f 113/113/113 112/112/112 111/111/111
f 115/115/115 111/111/111 114/114/114
f 118/118/118 117/117/117 116/116/116
f 121/121/121 120/120/120 119/119/119
f 124/124/124 123/123/123 122/122/122
f 127/127/127 126/126/126 125/125/125
f 130/130/130 129/129/129 128/128/128
f 133/133/133 132/132/132 131/131/131
f 136/136/136 135/135/135 134/134/134
f 139/139/139 138/138/138 137/137/137
f 142/142/142 141/141/141 140/140/140
f 145/145/145 144/144/144 143/143/143
f 148/148/148 147/147/147 146/146/146
f 151/151/151 150/150/150 149/149/149
f 154/154/154 153/153/153 152/152/152
f 157/157/157 156/156/156 155/155/155
f 160/160/160 159/159/159 158/158/158
f 163/163/163 162/162/162 161/161/161
f 166/166/166 165/165/165 164/164/164
f 169/169/169 168/168/168 167/167/167
f 172/172/172 171/171/171 170/170/170
f 175/175/175 174/174/174 173/173/173
f 178/178/178 177/177/177 176/176/176
f 181/181/181 180/180/180 179/179/179
f 184/184/184 183/183/183 182/182/182
f 187/187/187 186/186/186 185/185/185
f 190/190/190 189/189/189 188/188/188
f 193/193/193 192/192/192 191/191/191
f 196/196/196 195/195/195 194/194/194
f 199/199/199 198/198/198 197/197/197
f 201/201/201 199/199/199 200/200/200
f 203/203/203 200/200/200 202/202/202
f 204/204/204 203/203/203 202/202/202
f 206/206/206 205/205/205 199/199/199
f 205/205/205 207/207/207 199/199/199
f 205/205/205 208/208/208 207/207/207
f 211/211/211 210/210/210 209/209/209
f 214/214/214 213/213/213 212/212/212
f 217/217/217 216/216/216 215/215/215
f 220/220/220 219/219/219 218/218/218
f 223/223/223 222/222/222 221/221/221
f 221/221/221 222/222/222 224/224/224
f 225/225/225 224/224/224 222/222/222
f 228/228/228 227/227/227 226/226/226
f 230/230/230 229/229/229 226/226/226
f 232/232/232 231/231/231 229/229/229
f 229/229/229 231/231/231 233/233/233
f 233/233/233 231/231/231 234/234/234
f 235/235/235 228/228/228 231/231/231
f 236/236/236 228/228/228 235/235/235
f 236/236/236 237/237/237 228/228/228
f 236/236/236 238/238/238 237/237/237
f 241/241/241 240/240/240 239/239/239
f 242/242/242 239/239/239 240/240/240
f 245/245/245 244/244/244 243/243/243
f 245/245/245 243/243/243 246/246/246
f 246/246/246 243/243/243 247/247/247
f 248/248/248 247/247/247 243/243/243
f 248/248/248 249/249/249 247/247/247
f 252/252/252 251/251/251 250/250/250
f 252/252/252 253/253/253 251/251/251
f 256/256/256 255/255/255 254/254/254
f 254/254/254 258/258/258 257/257/257
f 259/259/259 258/258/258 255/255/255
f 260/260/260 258/258/258 254/254/254
f 261/261/261 259/259/259 260/260/260
f 264/264/264 263/263/263 262/262/262
f 263/263/263 264/264/264 265/265/265
f 268/268/268 267/267/267 266/266/266
f 269/269/269 268/268/268 266/266/266
f 272/272/272 271/271/271 270/270/270
f 273/273/273 271/271/271 272/272/272
f 274/274/274 271/271/271 273/273/273
f 277/277/277 276/276/276 275/275/275
f 277/277/277 278/278/278 276/276/276
f 276/276/276 278/278/278 279/279/279
f 279/279/279 278/278/278 280/280/280
f 281/281/281 279/279/279 280/280/280
f 284/284/284 283/283/283 282/282/282
f 285/285/285 284/284/284 282/282/282
f 288/288/288 287/287/287 286/286/286
f 289/289/289 288/288/288 286/286/286
f 292/292/292 291/291/291 290/290/290
f 293/293/293 292/292/292 290/290/290
f 294/294/294 293/293/293 290/290/290
f 297/297/297 296/296/296 295/295/295
f 296/296/296 297/297/297 298/298/298
f 298/298/298 297/297/297 299/299/299
f 301/301/301 299/299/299 300/300/300
f 302/302/302 299/299/299 301/301/301
f 305/305/305 304/304/304 303/303/303
f 304/304/304 305/305/305 306/306/306
f 307/307/307 306/306/306 305/305/305
f 308/308/308 307/307/307 305/305/305
f 311/311/311 310/310/310 309/309/309
f 310/310/310 311/311/311 312/312/312
f 312/312/312 311/311/311 313/313/313
f 313/313/313 311/311/311 314/314/314
f 317/317/317 316/316/316 315/315/315
f 318/318/318 316/316/316 317/317/317
f 321/321/321 320/320/320 319/319/319
f 319/319/319 320/320/320 322/322/322
