g Md_CMN_AuraLine_03
v 0.7087231 0.093533926 0.30277
v 0.7073545 0.06477881 0.30203176
v 0.68957907 0.092698686 0.27893835
v 0.68821335 0.06400414 0.2782305
v 0.6669151 0.09113118 0.2530437
v 0.6656346 0.06262567 0.25240988
v 0.64255226 0.08882516 0.2272639
v 0.64132404 0.060621213 0.2266838
v 0.615042 0.085554734 0.20022243
v 0.613877 0.057780486 0.19969988
v 0.5844699 0.08122231 0.1723329
v 0.58337194 0.05401018 0.17187095
v 0.5531571 0.07617152 0.1458283
v 0.5521345 0.049607504 0.14542225
v 0.520521 0.07040374 0.12020327
v 0.5195717 0.044578552 0.119852595
v 0.4869384 0.06409838 0.09583073
v 0.48606893 0.039089337 0.095531814
v 0.45281142 0.05737 0.07304424
v 0.45202032 0.033337712 0.0727943
v 0.41968367 0.050840966 0.05280029
v 0.41897154 0.027726253 0.052593593
v 0.38565955 0.04420104 0.03393955
v 0.38502946 0.022060933 0.03377269
v 0.3511794 0.0376631 0.016870765
v 0.3506308 0.01653574 0.016739538
v 0.31885266 0.03180351 0.0028136065
v 0.31837845 0.011641254 0.002711335
v 0.2889275 0.026678812 -0.008545373
v 0.28852412 0.007419682 -0.0086244745
v 0.25868112 0.021846486 -0.01847653
v 0.25834557 0.0035053259 -0.018535914
v 0.23130761 0.017813984 -0.026135597
v 0.23103437 0.0003035073 -0.026180211
v 0.20588174 0.014386208 -0.03209308
v 0.2056643 -0.0023600762 -0.0321259
v 0.18239288 0.011509512 -0.036545485
v 0.18222515 -0.0045466037 -0.03657001
v 0.16076377 0.00911784 -0.039661486
v 0.16063921 -0.006328258 -0.039679773
v 0.14076887 0.007132099 -0.041586738
v 0.14076887 -0.007780122 -0.041586738
v 0.12249809 0.0055081444 -0.042365737
v 0.12243711 -0.008973683 -0.042376783
v 0.106029645 0.004200142 -0.04209932
v 0.105990484 -0.009941539 -0.04210828
v 0.08960451 0.0030400448 -0.04064994
v 0.0895831 -0.010828104 -0.040657125
v 0.07467217 0.0021084195 -0.03800179
v 0.07467217 -0.011580448 -0.03800179
v 0.06055589 0.0013370973 -0.03404456
v 0.06055589 -0.012249612 -0.03404456
v 0.047106877 0.00071022805 -0.028775757
v 0.047106877 -0.012840519 -0.028775757
v 0.034213506 0.00022464573 -0.022321956
v 0.034213506 -0.013325271 -0.022321958
v 0.021816928 -0.00011466205 -0.014955973
v 0.02181693 -0.013663997 -0.014955973
v 0.009817169 -0.0003042525 -0.006957147
v 0.009817169 -0.013871183 -0.0069571477
v -0.0019630003 -0.0004181403 0.0013629618
v -0.001963 -0.013871183 0.0013629608
v -0.001963 0.01333843 0.0013629608
v 0.009817169 0.013338421 -0.0069571477
v 0.02181693 0.013572814 -0.014955973
v 0.034213506 0.013912351 -0.022321958
v 0.047106877 0.014398086 -0.028775757
v 0.06055589 0.015061119 -0.03404456
v 0.07467217 0.015935862 -0.03800179
v 0.0895831 0.017047193 -0.040657125
v 0.105990484 0.018482134 -0.04210828
v 0.12243711 0.0201314 -0.042376783
v 0.14076887 0.022202784 -0.041586738
v 0.16063921 0.02470507 -0.039679773
v 0.18222515 0.02770351 -0.03657001
v 0.2056643 0.031263884 -0.0321259
v 0.23103437 0.03544572 -0.026180211
v 0.25834557 0.040294144 -0.018535914
v 0.28852412 0.046024885 -0.0086244745
v 0.31885266 0.03180351 0.0028136065
v 0.31837845 0.052028675 0.002711335
v 0.3511794 0.0376631 0.016870765
v 0.3506308 0.058825057 0.016739538
v 0.38565955 0.04420104 0.03393955
v 0.38502946 0.06634234 0.03377269
v 0.41968367 0.050840966 0.05280029
v 0.41897154 0.07392222 0.052593593
v 0.45281142 0.05737 0.07304424
v 0.45202032 0.08133617 0.0727943
v 0.4869384 0.06409838 0.09583073
v 0.48606893 0.08886672 0.095531814
v 0.520521 0.07040374 0.12020327
v 0.5195717 0.0960141 0.119852595
v 0.5531571 0.07617152 0.1458283
v 0.5521345 0.10254922 0.14542225
v 0.5844699 0.08122231 0.1723329
v 0.58337194 0.108277984 0.17187095
v 0.615042 0.085554734 0.20022243
v 0.613877 0.11320373 0.19969988
v 0.64255226 0.08882516 0.2272639
v 0.64132404 0.11693337 0.2266838
v 0.6669151 0.09113118 0.2530437
v 0.6656346 0.11956772 0.25240988
v 0.68957907 0.092698686 0.27893835
v 0.68821335 0.12134893 0.2782305
v 0.7073545 0.12226597 0.30203176
v 0.7087231 0.093533926 0.30277
v 0.70872205 0.09353372 0.30276975
v 0.67289084 0.0928785 0.32671955
v 0.68957925 0.09269848 0.27893847
v 0.65380836 0.09158118 0.30291888
v 0.6669151 0.09113122 0.2530437
v 0.6316787 0.08950643 0.27719837
v 0.64255226 0.088825196 0.2272639
v 0.608106 0.08671018 0.25162026
v 0.615042 0.08555477 0.20022243
v 0.5817289 0.082969606 0.22483423
v 0.5844699 0.08122235 0.1723329
v 0.55266744 0.07823179 0.1972474
v 0.5531571 0.07617155 0.1458283
v 0.5231771 0.07290691 0.1710975
v 0.520521 0.07040377 0.12020327
v 0.49268785 0.067004405 0.14585984
v 0.4869384 0.06409841 0.09583073
v 0.46141794 0.06068584 0.1218288
v 0.45281142 0.057370026 0.07304424
v 0.43019408 0.054246906 0.09950838
v 0.41968367 0.050840996 0.05280029
v 0.4000224 0.048032336 0.079667464
v 0.38565955 0.04420107 0.03393955
v 0.36923087 0.04180629 0.06115157
v 0.3511794 0.03766312 0.016870765
v 0.33816805 0.035742573 0.04431296
v 0.30907416 0.030335512 0.030306825
v 0.31885266 0.03180354 0.0028136065
v 0.2819564 0.025582861 0.018757543
v 0.2889275 0.026678843 -0.008545373
v 0.2540409 0.02102108 0.0083039915
v 0.25868112 0.021846503 -0.01847653
v 0.22854659 0.017179627 -2.3394822E-08
v 0.23130761 0.017814007 -0.026135597
v 0.20458877 0.013875031 -0.006708411
v 0.20588174 0.014386234 -0.03209308
v 0.18226074 0.011077318 -0.011953057
v 0.18239288 0.011509533 -0.036545485
v 0.16157037 0.008737859 -0.015859295
v 0.16076377 0.00911786 -0.039661486
v 0.1424723 0.006800251 -0.018530441
v 0.14076887 0.0071321293 -0.041586738
v 0.12487239 0.0052059744 -0.020041144
v 0.12249809 0.0055081653 -0.042365737
v 0.109287925 0.003948059 -0.020420777
v 0.106029645 0.004200163 -0.04209932
v 0.09385991 0.0028452969 -0.019678956
v 0.08960451 0.0030400658 -0.04064994
v 0.08018045 0.0020404148 -0.017751584
v 0.07467217 0.0021084498 -0.038001787
v 0.06742107 0.0012687969 -0.01461107
v 0.06055589 0.001337099 -0.03404456
v 0.055374265 0.00071024895 -0.010253719
v 0.047106877 0.00071022986 -0.028775748
v 0.043808516 0.00029571532 -0.00470564
v 0.1597644 0.009804573 -0.062158383
v 0.18205066 0.01223115 -0.059796676
v 0.13928074 0.007795839 -0.06338947
v 0.20637345 0.015158777 -0.05615197
v 0.12034897 0.0061297608 -0.063581705
v 0.23290604 0.018669395 -0.051020645
v 0.10312469 0.0047710133 -0.06278777
v 0.08960451 0.0030400658 -0.04064994
v 0.26177 0.022838239 -0.044146713
v 0.08573856 0.0035473919 -0.060803145
v 0.07467217 0.0021084498 -0.038001787
v 0.29393938 0.027871823 -0.034945194
v 0.06955828 0.0025377274 -0.05758823
v 0.06055589 0.001337099 -0.03404456
v 0.3262925 0.033290256 -0.02404793
v 0.05397009 0.0016839695 -0.05298586
v 0.36148807 0.039513767 -0.010262618
v 0.3511794 0.03766312 0.016870765
v 0.3990437 0.046429507 0.0066841464
v 0.38565955 0.04420107 0.03393955
v 0.41968367 0.050840996 0.05280029
v 0.43599737 0.053386584 0.025548961
v 0.45281142 0.057370026 0.07304424
v 0.47181013 0.06013624 0.045876503
v 0.4869384 0.06409841 0.09583073
v 0.5084048 0.06688537 0.06874711
v 0.520521 0.07040377 0.12020327
v 0.54418486 0.073174424 0.0932251
v 0.5531571 0.07617155 0.1458283
v 0.5787091 0.0787869 0.1189432
v 0.5844699 0.08122235 0.1723329
v 0.61157954 0.083559655 0.14552209
v 0.615042 0.08555477 0.20022243
v 0.64339936 0.08750337 0.17343327
v 0.64255226 0.088825196 0.2272639
v 0.6718034 0.09034211 0.20047146
v 0.6669151 0.09113122 0.2530437
v 0.69683033 0.092218205 0.22625607
v 0.7196826 0.09334791 0.25202048
v 0.68957925 0.09269848 0.27893847
v 0.7390096 0.093851395 0.27583346
v 0.70872205 0.09353372 0.30276975
v 0.021133715 -0.00018375396 0.009533329
v 0.009575007 -0.00018369674 0.017699253
v -0.0019630014 -0.00041811942 0.0013629651
v 0.00981717 -0.00030423162 -0.006957142
v -0.013501011 -0.000114507675 -0.014973326
v 0.032475233 -1.2998581E-05 0.0019674017
v -0.0014983529 -0.00011454582 -0.023446113
v 0.021816926 -0.000114660186 -0.01495597
v 0.011162196 9.253502E-05 -0.031873662
v 0.034213502 0.0002246666 -0.022321956
v 0.024629205 0.0004312992 -0.039861117
v 0.038934465 0.000982523 -0.04700983
v -0.21250772 0.092698686 -0.70920163
v -0.21198985 0.06394357 -0.7078662
v -0.22310346 0.09158139 -0.6809273
v -0.22254947 0.06288685 -0.6796151
v -0.23266856 0.089781284 -0.64905936
v -0.23211093 0.06127578 -0.64784855
v -0.24039781 0.08741634 -0.6161942
v -0.23982638 0.059212398 -0.61505437
v -0.24661678 0.08426044 -0.5804509
v -0.24603441 0.056486174 -0.57938725
v -0.2509788 0.08022063 -0.5421245
v -0.25039214 0.053022906 -0.54114753
v -0.25308314 0.07560759 -0.50417024
v -0.25249726 0.04907414 -0.5032771
v -0.25303376 0.07040372 -0.46584573
v -0.25245348 0.044608854 -0.4650359
v -0.25080767 0.06467259 -0.42761782
v -0.2502405 0.03973372 -0.4268944
v -0.24643748 0.058619842 -0.389941
v -0.24588989 0.03458161 -0.38930574
v -0.24025366 0.052602317 -0.3544569
v -0.23972712 0.029476633 -0.35389844
v -0.23195866 0.046369504 -0.31910414
v -0.2314599 0.024214314 -0.31862372
v -0.22155446 0.04009129 -0.2844034
v -0.22109121 0.01894652 -0.28400093
v -0.20996226 0.03432069 -0.2529119
v -0.20953734 0.014140401 -0.25257915
v -0.19769691 0.029146444 -0.22463562
v -0.19731115 0.009869175 -0.22436455
v -0.18388677 0.024145614 -0.1968646
v -0.18354423 0.005787373 -0.19664982
v -0.17021571 0.019871986 -0.17240506
v -0.1699151 0.0023459438 -0.17224102
v -0.15655176 0.016160747 -0.15024781
v -0.15629391 -0.00059908803 -0.15012655
v -0.14312683 0.012987811 -0.13025495
v -0.14291106 -0.0030797287 -0.13016893
v -0.1301025 0.010309598 -0.112247504
v -0.12992492 -0.00514574 -0.11219099
v -0.11742148 0.008057611 -0.09599104
v -0.11742148 -0.0068562785 -0.09599104
v -0.10552042 0.006214569 -0.08137924
v -0.10541267 -0.0082726665 -0.08136124
v -0.0942962 0.0047710016 -0.06853252
v -0.09421733 -0.009417895 -0.06852633
v -0.08260606 0.0034183864 -0.056065563
v -0.08255386 -0.010452385 -0.05606616
v -0.07135625 0.002379759 -0.045151103
v -0.07135625 -0.01130949 -0.045151103
v -0.060047887 0.0015427858 -0.035287607
v -0.060047887 -0.0120517155 -0.035287607
v -0.048473973 0.0009160405 -0.026407871
v -0.048473973 -0.012692585 -0.026407871
v -0.036438134 0.0002956754 -0.018468788
v -0.036438134 -0.013217115 -0.018468788
v -0.023860717 -1.3095736E-05 -0.011416028
v -0.023860719 -0.013600816 -0.011416028
v -0.010933651 -0.00018365085 -0.005023344
v -0.010933651 -0.01376955 -0.0050233435
v 0.00216186 -0.0004181403 0.0010185272
v 0.0021618588 -0.013871183 0.0010185273
v 0.0021618588 0.01333843 0.0010185273
v -0.010933651 0.01333841 -0.0050233435
v -0.023860719 0.013641927 -0.011416028
v -0.036438134 0.013981206 -0.018468788
v -0.048473973 0.014546268 -0.026407871
v -0.060047887 0.015259387 -0.035287607
v -0.07135625 0.016210325 -0.045151103
v -0.08255386 0.017423727 -0.05606616
v -0.09421733 0.019006798 -0.06852633
v -0.10541267 0.020908672 -0.08136124
v -0.11742148 0.023128692 -0.09599104
v -0.12992492 0.025890257 -0.11219099
v -0.14291106 0.029173905 -0.13016893
v -0.15629391 0.03302942 -0.15012655
v -0.1699151 0.03749362 -0.17224102
v -0.18354423 0.0425826 -0.19664982
v -0.19769691 0.029146444 -0.22463562
v -0.19731115 0.04848189 -0.22436455
v -0.20996226 0.03432069 -0.2529119
v -0.20953734 0.054535992 -0.25257915
v -0.22155446 0.04009129 -0.2844034
v -0.22109121 0.061244387 -0.28400093
v -0.23195866 0.046369504 -0.31910414
v -0.2314599 0.068503976 -0.31862372
v -0.24025366 0.052602317 -0.3544569
v -0.23972712 0.075679906 -0.35389844
v -0.24643748 0.058619842 -0.389941
v -0.24588989 0.08258574 -0.38930574
v -0.25080767 0.06467259 -0.42761782
v -0.2502405 0.08951431 -0.4268944
v -0.25303376 0.07040372 -0.46584573
v -0.25245348 0.09601413 -0.4650359
v -0.25308314 0.07560759 -0.50417024
v -0.25249726 0.10201254 -0.5032771
v -0.2509788 0.08022063 -0.5421245
v -0.25039214 0.107283644 -0.54114753
v -0.24661678 0.08426044 -0.5804509
v -0.24603441 0.111898534 -0.57938725
v -0.24039781 0.08741634 -0.6161942
v -0.23982638 0.115510315 -0.61505437
v -0.23266856 0.089781284 -0.64905936
v -0.23211093 0.11820074 -0.64784855
v -0.22310346 0.09158139 -0.6809273
v -0.22254947 0.12019571 -0.6796151
v -0.21250772 0.092698686 -0.70920163
v -0.21198985 0.12145331 -0.7078662
v -0.21250786 0.09269848 -0.70920223
v -0.17289467 0.091302 -0.69058806
v -0.22310336 0.09158118 -0.6809273
v -0.18344624 0.08961967 -0.66240484
v -0.23266856 0.08978132 -0.64905936
v -0.19316383 0.087275065 -0.6310689
v -0.24039783 0.08741638 -0.6161942
v -0.2011594 0.08437698 -0.5989697
v -0.24661678 0.08426047 -0.5804509
v -0.20781094 0.08071436 -0.5642922
v -0.2509788 0.08022067 -0.5421245
v -0.21280338 0.07625221 -0.5273602
v -0.25308314 0.07560763 -0.50417024
v -0.21570283 0.07135824 -0.49107608
v -0.25303376 0.07040375 -0.46584573
v -0.21664882 0.066001974 -0.454685
v -0.25080767 0.06467262 -0.42761782
v -0.2155326 0.060290482 -0.41851705
v -0.24643748 0.058619868 -0.389941
v -0.21267872 0.054454878 -0.3833695
v -0.24025366 0.052602343 -0.3544569
v -0.20808432 0.048769847 -0.35043055
v -0.23195866 0.046369527 -0.31910414
v -0.2016371 0.042994685 -0.3178031
v -0.22155446 0.04009131 -0.2844034
v -0.1933262 0.037264958 -0.28590414
v -0.20996226 0.03432072 -0.2529119
v -0.1838682 0.03199048 -0.2569786
v -0.19769691 0.02914647 -0.22463562
v -0.17364311 0.027358236 -0.23081878
v -0.18388677 0.024145631 -0.1968646
v -0.1617864 0.022759961 -0.2046491
v -0.17021571 0.019871997 -0.17240506
v -0.14983207 0.018803349 -0.18139441
v -0.15655176 0.016160773 -0.15024781
v -0.13764499 0.015330977 -0.16009025
v -0.14312683 0.012987833 -0.13025495
v -0.12546635 0.012337131 -0.14071488
v -0.1301025 0.010309629 -0.112247504
v -0.11347039 0.009804553 -0.123183765
v -0.11742148 0.0080576325 -0.09599104
v -0.1017773 0.0076594446 -0.107380934
v -0.10552042 0.00621459 -0.08137924
v -0.09043866 0.0058873747 -0.09317274
v -0.0942962 0.0047710226 -0.06853252
v -0.079909995 0.0044830893 -0.08091103
v -0.08260606 0.0034184074 -0.056065563
v -0.068855725 0.0032476329 -0.06917558
v -0.07135625 0.0023797892 -0.045151107
v -0.058404904 0.002314949 -0.059194878
v -0.060047887 0.0015428066 -0.035287604
v -0.04791361 0.0015428257 -0.050362285
v -0.04847397 0.0009160614 -0.026407871
v -0.037204765 0.0009161472 -0.042531952
v -0.03643813 0.00029567716 -0.018468786
v -0.026117107 0.00043136594 -0.035522476
v -0.023860713 -1.30748E-05 -0.011416027
v -0.014533796 9.251594E-05 -0.029108075
v -0.010933647 -0.00018362999 -0.0050233477
v -0.0023107522 -0.000114555354 -0.023069
v 0.0021618633 -0.00041811942 0.0010185266
v 0.010540499 -0.00018362999 -0.017141826
v -0.0062167738 -0.00018368721 0.01917888
v -0.019555755 -0.00011458396 0.013020669
v -0.033184502 0.00015575408 0.0062700864
v -0.04683534 0.0005394268 -0.0013989591
v -0.060178943 0.0010640048 -0.01021332
v -0.072872154 0.0018574523 -0.02024654
v -0.08479003 0.0027643202 -0.031381223
v -0.09647119 0.0038653563 -0.04341071
v -0.10849048 0.005205946 -0.056727692
v -0.12006041 0.0067794514 -0.07019229
v -0.13242377 0.0087378975 -0.085259065
v -0.14546059 0.010998173 -0.10181895
v -0.14312683 0.012987833 -0.13025495
v -0.1591757 0.013768835 -0.12015449
v -0.15655176 0.016160773 -0.15024781
v -0.17352489 0.01707034 -0.14055455
v -0.17021571 0.019871997 -0.17240506
v -0.18837969 0.021021098 -0.16329329
v -0.18388677 0.024145631 -0.1968646
v -0.20352589 0.025486244 -0.18862768
v -0.19769691 0.02914647 -0.22463562
v -0.21909557 0.030815547 -0.21762243
v -0.20996226 0.03432072 -0.2529119
v -0.23329097 0.036402334 -0.24762374
v -0.22155446 0.04009131 -0.2844034
v -0.24696645 0.042644586 -0.2812708
v -0.23195866 0.046369527 -0.31910414
v -0.25946042 0.049385734 -0.31836563
v -0.24025366 0.052602343 -0.3544569
v -0.26963308 0.05598893 -0.35606617
v -0.24643748 0.058619868 -0.389941
v -0.27744693 0.062251374 -0.3937517
v -0.25080767 0.06467262 -0.42761782
v -0.28327975 0.06839968 -0.43346488
v -0.25303376 0.07040375 -0.46584573
v -0.2867578 0.07405491 -0.47353518
v -0.25308314 0.07560763 -0.50417024
v -0.28785357 0.07907155 -0.51345235
v -0.2509788 0.08022067 -0.5421245
v -0.28659928 0.083350584 -0.552732
v -0.24661678 0.08426047 -0.5804509
v -0.28292486 0.086940646 -0.5921088
v -0.24039783 0.08741638 -0.6161942
v -0.27720344 0.08961967 -0.62860465
v -0.23266856 0.08978132 -0.64905936
v -0.26985645 0.09150133 -0.66202104
v -0.22310336 0.09158118 -0.6809273
v -0.2604623 0.092776746 -0.6939993
v -0.25002357 0.09351114 -0.72240764
v -0.21250786 0.09269848 -0.70920223
v -0.6282832 0.0938516 0.5945964
v -0.6269151 0.06509649 0.59326017
v -0.5980286 0.0938516 0.5894145
v -0.59668624 0.065157056 0.5880548
v -0.5641204 0.093851365 0.5810559
v -0.5628857 0.06534586 0.5797491
v -0.5293801 0.093716115 0.5701922
v -0.52821696 0.06551217 0.5689123
v -0.49186972 0.092776716 0.5561062
v -0.4907885 0.064924195 0.554861
v -0.45199293 0.09065481 0.538627
v -0.4510007 0.06344267 0.53742564
v -0.41287625 0.08741635 0.51905656
v -0.41197145 0.06085233 0.5179056
v -0.37379012 0.083075985 0.49709547
v -0.37297052 0.057250816 0.4960005
v -0.3352532 0.0776239 0.47301346
v -0.334522 0.05261484 0.4719792
v -0.29777077 0.07126081 0.44711924
v -0.29712355 0.04712998 0.44615045
v -0.2629794 0.06447028 0.420693
v -0.26241064 0.041231792 0.4197952
v -0.22889215 0.05701372 0.39229044
v -0.22840136 0.034773488 0.3914689
v -0.19609782 0.049236026 0.36223745
v -0.19567893 0.02808843 0.36149508
v -0.16701987 0.041911516 0.33291873
v -0.16666754 0.021665048 0.33225515
v -0.14152522 0.035256073 0.30483928
v -0.14123012 0.01592329 0.30425093
v -0.11709125 0.028790332 0.27560383
v -0.11685042 0.010388002 0.27509475
v -0.096127614 0.023277624 0.24845889
v -0.095933005 0.005717297 0.2480226
v -0.07766034 0.01853248 0.2227053
v -0.077505805 0.001746903 0.2223387
v -0.061521802 0.014604246 0.1985086
v -0.061401714 -0.001549997 0.19820659
v -0.04753087 0.011232965 0.1759433
v -0.047439512 -0.0042346665 0.17570089
v -0.03544197 0.008522318 0.15481012
v -0.03544197 -0.006397628 0.15481012
v -0.025297219 0.006382025 0.13559769
v -0.025248872 -0.008110637 0.13545501
v -0.017025094 0.0046553495 0.11817064
v -0.016991405 -0.009417915 0.11806816
v -0.009851454 0.0032476215 0.100781456
v -0.0098300995 -0.0105283735 0.100713536
v -0.0045335693 0.0022156315 0.08488788
v -0.0045335693 -0.0115155885 0.08488788
v -0.00082252093 0.001337145 0.069779985
v -0.00082252093 -0.012249517 0.069779985
v 0.0013670981 0.00071022805 0.055183634
v 0.0013670981 -0.012840499 0.055183634
v 0.0022246272 0.00022468387 0.040790744
v 0.0022246286 -0.013325271 0.040790748
v 0.002043788 -0.00011456668 0.026372
v 0.0020437895 -0.013663997 0.026372002
v 0.0011164814 -0.00030427158 0.011980489
v 0.0011164822 -0.013871183 0.011980491
v -0.00019885953 -0.0004181403 -0.002381489
v -0.00019885879 -0.013871183 -0.0023814882
v -0.00019885879 0.01333843 -0.0023814882
v 0.0011164822 0.013338421 0.011980491
v 0.0020437895 0.013641937 0.026372002
v 0.0022246286 0.013912313 0.040790748
v 0.0013670981 0.014398077 0.055183634
v -0.00082252093 0.015061119 0.069779985
v -0.0045335693 0.016003806 0.08488788
v -0.0098300995 0.017323425 0.100713536
v -0.016991405 0.01900675 0.11806816
v -0.025248872 0.020996163 0.13545501
v -0.03544197 0.023593605 0.15481012
v -0.047439512 0.026802713 0.17570089
v -0.061401714 0.030707428 0.19820659
v -0.077505805 0.035381377 0.2223387
v -0.096127614 0.023277624 0.24845889
v -0.095933005 0.040874165 0.2480226
v -0.11709125 0.028790332 0.27560383
v -0.11685042 0.047196634 0.27509475
v -0.14152522 0.035256073 0.30483928
v -0.14123012 0.054554854 0.30425093
v -0.16701987 0.041911516 0.33291873
v -0.16666754 0.062085908 0.33225515
v -0.19609782 0.049236026 0.36223745
v -0.19567893 0.07034557 0.36149508
v -0.22889215 0.05701372 0.39229044
v -0.22840136 0.07910539 0.3914689
v -0.2629794 0.06447028 0.420693
v -0.26241064 0.087486856 0.4197952
v -0.29777077 0.07126081 0.44711924
v -0.29712355 0.09519539 0.44615045
v -0.3352532 0.0776239 0.47301346
v -0.334522 0.102466196 0.4719792
v -0.37379012 0.083075985 0.49709547
v -0.37297052 0.108765826 0.4960005
v -0.41287625 0.08741635 0.51905656
v -0.41197145 0.11387039 0.5179056
v -0.45199293 0.09065481 0.538627
v -0.4510007 0.117795035 0.53742564
v -0.49186972 0.092776716 0.5561062
v -0.4907885 0.12047274 0.554861
v -0.52821696 0.1219058 0.5689123
v -0.5293801 0.093716115 0.5701922
v -0.5628857 0.122356966 0.5797491
v -0.5641204 0.093851365 0.5810559
v -0.59668624 0.12254577 0.5880548
v -0.5980286 0.0938516 0.5894145
v -0.6269151 0.12260624 0.59326017
v -0.6282832 0.0938516 0.5945964
v -0.62828326 0.093851395 0.59459645
v -0.6310142 0.093851395 0.5505389
v -0.5980286 0.093851395 0.58941454
v -0.60081124 0.093851395 0.5453409
v -0.5641204 0.093851395 0.5810559
v -0.5673271 0.093851395 0.5373999
v -0.5293801 0.09371615 0.5701922
v -0.53315693 0.093056306 0.5271689
v -0.49186972 0.09277675 0.5561062
v -0.49644515 0.09141987 0.5140327
v -0.45199293 0.090654835 0.538627
v -0.4575989 0.088651806 0.49785754
v -0.41287625 0.08741638 0.51905656
v -0.41972017 0.084896185 0.47990188
v -0.37379012 0.083076015 0.49709547
v -0.38206762 0.08007145 0.45989212
v -0.3352532 0.077623926 0.47301346
v -0.34500945 0.07442439 0.43791452
v -0.29777077 0.07126084 0.44711924
v -0.30942658 0.06809127 0.41481435
v -0.2629794 0.064470306 0.420693
v -0.27650768 0.06150609 0.39125308
v -0.22889215 0.057013754 0.39229044
v -0.24438737 0.054454908 0.36606124
v -0.19609782 0.049236048 0.36223745
v -0.21355611 0.047255233 0.33949292
v -0.16701987 0.041911542 0.33291873
v -0.18619362 0.04050785 0.3135651
v -0.16198385 0.03432073 0.28852984
v -0.14152522 0.035256103 0.30483928
v -0.1382962 0.028270936 0.26194367
v -0.11709125 0.028790364 0.27560383
v -0.11773523 0.02302639 0.23698801
v -0.096127614 0.023277644 0.24845889
v -0.099360675 0.018417029 0.21298403
v -0.07766034 0.018532509 0.2227053
v -0.08311355 0.014604297 0.19016573
v -0.061521802 0.014604277 0.1985086
v -0.068895265 0.011232957 0.16867113
v -0.04753087 0.011232986 0.1759433
v -0.056599073 0.008522281 0.14857003
v -0.03544197 0.008522329 0.15481012
v -0.046116512 0.006382046 0.12985767
v -0.025297219 0.006382046 0.13559769
v -0.03769702 0.0047710226 0.11318515
v -0.017025094 0.0046553514 0.11817064
v -0.030362863 0.0033479023 0.09648923
v -0.009851454 0.0032476233 0.100781456
v -0.025003418 0.0022156907 0.08154533
v -0.004533572 0.0022156525 0.08488788
v -0.021207923 0.0014670467 0.06739611
v -0.0008225179 0.0013371658 0.069779985
v -0.018869126 0.0007897377 0.053782728
v 0.001367095 0.00071024895 0.05518362
v -0.017842522 0.0002957058 0.040443342
v 0.0022246272 0.00022470474 0.040790737
v -0.017941436 9.246826E-05 0.027140673
v -0.0155112 0.008807383 0.16097797
v -0.027195105 0.011428795 0.1823439
v -0.0055805543 0.006686916 0.14131366
v -0.017025094 0.0046553514 0.11817064
v -0.040833272 0.01472475 0.20553604
v 0.0025653637 0.005030985 0.1235062
v -0.009851454 0.0032476233 0.100781456
v -0.056670807 0.018711353 0.2306491
v 0.009695682 0.0036234187 0.10569118
v -0.004533572 0.0022156525 0.08488788
v -0.07496806 0.02356121 0.25768605
v 0.015080373 0.0025376987 0.089184985
v -0.096127614 0.023277644 0.24845889
v -0.0008225179 0.0013371658 0.069779985
v -0.09600231 0.02923574 0.28657058
v 0.01890206 0.0016840171 0.073232405
v -0.11709125 0.028790364 0.27560383
v -0.12078102 0.035963133 0.31801867
v -0.14152522 0.035256103 0.30483928
v -0.14712064 0.042994667 0.34877753
v -0.16701987 0.041911542 0.33291873
v 0.001367095 0.00071024895 0.05518362
v 0.021244476 0.0009160423 0.05722314
v 0.022206137 0.00043126105 0.041260075
v -0.17743823 0.05078946 0.3811698
v -0.19609782 0.049236048 0.36223745
v -0.22889215 0.057013754 0.39229044
v -0.21170877 0.059007566 0.4144401
v -0.2629794 0.064470306 0.420693
v -0.24730624 0.06675843 0.44583654
v -0.29777077 0.07126084 0.44711924
v -0.28354624 0.07372039 0.4749394
v -0.3352532 0.077623926 0.47301346
v -0.32236597 0.080071464 0.50326
v -0.37379012 0.083076015 0.49709547
v -0.36211422 0.08528678 0.5294642
v -0.41287625 0.08741638 0.51905656
v -0.40224272 0.089270405 0.55321145
v -0.45199293 0.090654835 0.538627
v -0.4422166 0.091968544 0.57424176
v -0.49186972 0.09277675 0.5561062
v -0.4827434 0.09351114 0.5928812
v -0.5293801 0.09371615 0.5701922
v -0.5207033 0.093851395 0.6077965
v -0.5641204 0.093851395 0.5810559
v -0.55578434 0.093851395 0.61929095
v -0.5980286 0.093851395 0.58941454
v -0.5896685 0.093851395 0.6278372
v -0.6200059 0.093851395 0.63324213
v -0.62828326 0.093851395 0.59459645
v -0.018822964 -0.0001146698 0.013535668
v -0.020115506 -0.000114507675 -0.0005574271
v -0.00019886166 -0.00041811942 -0.0023814917
v 0.0011164766 -0.00030425072 0.011980488
v 0.019717785 -0.00018362045 -0.004205557
v 0.021054106 -0.00018375396 0.010425446
v 0.0020437872 -0.00011454574 0.026371999
v 0.022022303 9.246826E-05 0.025603577
vt 0.5 0
vt 4.4703484E-07 0
vt 0.5 0.03333333
vt 4.4703484E-07 0.03333333
vt 0.5 0.06666666
vt 4.4703484E-07 0.06666666
vt 0.5 0.100000024
vt 4.4703484E-07 0.100000024
vt 0.5 0.13333333
vt 4.4703484E-07 0.13333333
vt 0.5 0.16666669
vt 4.4703484E-07 0.16666669
vt 0.5 0.20000002
vt 4.4703484E-07 0.20000002
vt 0.5 0.23333335
vt 4.4703484E-07 0.23333335
vt 0.5 0.26666668
vt 4.4703484E-07 0.26666668
vt 0.5 0.3
vt 4.4703484E-07 0.3
vt 0.5 0.33333334
vt 4.4703484E-07 0.33333334
vt 0.5 0.36666667
vt 4.4703484E-07 0.36666667
vt 0.5 0.40000004
vt 4.4703484E-07 0.40000004
vt 0.5 0.43333337
vt 4.4703484E-07 0.43333337
vt 0.5 0.4666667
vt 4.4703484E-07 0.4666667
vt 0.5 0.5
vt 4.4703484E-07 0.5
vt 0.5 0.53333336
vt 4.4703484E-07 0.53333336
vt 0.5 0.5666667
vt 4.4703484E-07 0.5666667
vt 0.5 0.6
vt 4.4703484E-07 0.6
vt 0.5 0.6333334
vt 4.4703484E-07 0.6333334
vt 0.5 0.6666667
vt 4.4703484E-07 0.6666667
vt 0.5 0.70000005
vt 4.4703484E-07 0.70000005
vt 0.5 0.73333335
vt 4.4703484E-07 0.73333335
vt 0.5 0.7666667
vt 4.4703484E-07 0.7666667
vt 0.5 0.8000001
vt 4.4703484E-07 0.8000001
vt 0.5 0.8333334
vt 4.4703484E-07 0.8333334
vt 0.5 0.86666673
vt 4.4703484E-07 0.86666673
vt 0.5 0.90000004
vt 4.4703484E-07 0.90000004
vt 0.5 0.9333334
vt 4.4703484E-07 0.9333334
vt 0.5 0.9666667
vt 4.4703484E-07 0.9666667
vt 0.5 1
vt 4.4703484E-07 1
vt 1.0000005 1
vt 1.0000005 0.9666667
vt 1.0000005 0.9333334
vt 1.0000005 0.90000004
vt 1.0000005 0.86666673
vt 1.0000005 0.8333334
vt 1.0000005 0.8000001
vt 1.0000005 0.7666667
vt 1.0000005 0.73333335
vt 1.0000005 0.70000005
vt 1.0000005 0.6666667
vt 1.0000005 0.6333334
vt 1.0000005 0.6
vt 1.0000005 0.5666667
vt 1.0000005 0.53333336
vt 1.0000005 0.5
vt 1.0000005 0.4666667
vt 0.5 0.43333337
vt 1.0000005 0.43333337
vt 0.5 0.40000004
vt 1.0000005 0.40000004
vt 0.5 0.36666667
vt 1.0000005 0.36666667
vt 0.5 0.33333334
vt 1.0000005 0.33333334
vt 0.5 0.3
vt 1.0000005 0.3
vt 0.5 0.26666668
vt 1.0000005 0.26666668
vt 0.5 0.23333335
vt 1.0000005 0.23333335
vt 0.5 0.20000002
vt 1.0000005 0.20000002
vt 0.5 0.16666669
vt 1.0000005 0.16666669
vt 0.5 0.13333333
vt 1.0000005 0.13333333
vt 0.5 0.100000024
vt 1.0000005 0.100000024
vt 0.5 0.06666666
vt 1.0000005 0.06666666
vt 0.5 0.03333333
vt 1.0000005 0.03333333
vt 1.0000005 0
vt 0.5 0
vt 0.50025916 0
vt 1.7881393E-07 2.9802322E-08
vt 0.50025916 0.032262444
vt 1.7881393E-07 0.032262474
vt 0.50025916 0.06563741
vt 0 0.0656375
vt 0.50025916 0.09789997
vt 0 0.09790006
vt 0.50025916 0.13127446
vt 0 0.13127461
vt 0.50025916 0.16576153
vt 0 0.16576162
vt 0.50025916 0.19913578
vt 0 0.19913593
vt 0.50025916 0.23250961
vt 0 0.23250964
vt 0.50025916 0.26588285
vt 0 0.26588285
vt 0.50025916 0.2992555
vt 1.1920929E-07 0.2992555
vt 0.50025916 0.3315149
vt 1.1920929E-07 0.3315149
vt 0.50025916 0.3648854
vt 1.1920929E-07 0.3648854
vt 0.50025916 0.39936626
vt 1.1920929E-07 0.39936635
vt 1.1920929E-07 0.4327341
vt 0.50025916 0.432734
vt 2.3841858E-07 0.46499053
vt 0.50025934 0.4649905
vt 2.3841858E-07 0.49947134
vt 0.50025916 0.4994713
vt 2.3841858E-07 0.5328409
vt 0.50025934 0.5328408
vt 2.3841858E-07 0.5662107
vt 0.5002594 0.56621057
vt 2.3841858E-07 0.5995807
vt 0.500259 0.5995806
vt 2.3841858E-07 0.6329508
vt 0.50025946 0.6329508
vt 2.3841858E-07 0.6663207
vt 0.5002591 0.6663207
vt 2.3841858E-07 0.6996903
vt 0.50025934 0.6996903
vt 2.3841858E-07 0.73194706
vt 0.5002591 0.73194706
vt 2.3841858E-07 0.76642543
vt 0.50025946 0.7664253
vt 2.3841858E-07 0.79978985
vt 0.50025946 0.7997898
vt 2.3841858E-07 0.8331534
vt 0.500259 0.8331533
vt 2.9802322E-07 0.8665171
vt 0.50025946 0.866517
vt 2.9802322E-07 0.8998832
vt 1 0.6329508
vt 0.99999994 0.5995805
vt 1 0.6663207
vt 0.99999994 0.5662105
vt 0.99999994 0.6996903
vt 0.99999994 0.5328407
vt 1 0.73194706
vt 0.50025946 0.7664253
vt 1 0.49947128
vt 0.99999994 0.76642525
vt 0.50025946 0.7997898
vt 1 0.46499047
vt 1 0.79978967
vt 0.500259 0.8331533
vt 1 0.43273398
vt 0.99999994 0.83315325
vt 1 0.39936623
vt 0.50025916 0.39936626
vt 1 0.36488545
vt 0.50025916 0.3648854
vt 0.50025916 0.3315149
vt 1 0.33151495
vt 0.50025916 0.2992555
vt 0.9999999 0.2992555
vt 0.50025916 0.26588285
vt 0.9999999 0.26588285
vt 0.50025916 0.23250961
vt 0.9999999 0.23250958
vt 0.50025916 0.19913578
vt 0.9999999 0.19913575
vt 0.50025916 0.16576153
vt 0.9999999 0.16576144
vt 0.50025916 0.13127446
vt 0.99999976 0.13127443
vt 0.50025916 0.09789997
vt 0.99999976 0.097899884
vt 0.50025916 0.06563741
vt 0.99999976 0.06563732
vt 0.99999976 0.032262415
vt 0.50025916 0.032262444
vt 0.99999976 0
vt 0.50025916 0
vt 2.9802322E-07 0.9666255
vt 2.9802322E-07 1
vt 0.5002593 1
vt 0.50025904 0.96662545
vt 1 0.9999999
vt 2.9802322E-07 0.93325263
vt 1 0.96662533
vt 0.50025946 0.9332526
vt 1 0.93325245
vt 0.500259 0.8998831
vt 1 0.89988303
vt 1 0.86651695
vt 0.5 0
vt 4.4703484E-07 0
vt 0.5 0.03333333
vt 4.4703484E-07 0.03333333
vt 0.5 0.06666666
vt 4.4703484E-07 0.06666666
vt 0.5 0.100000024
vt 4.4703484E-07 0.100000024
vt 0.5 0.13333333
vt 4.4703484E-07 0.13333333
vt 0.5 0.16666669
vt 4.4703484E-07 0.16666669
vt 0.5 0.20000002
vt 4.4703484E-07 0.20000002
vt 0.5 0.23333335
vt 4.4703484E-07 0.23333335
vt 0.5 0.26666668
vt 4.4703484E-07 0.26666668
vt 0.5 0.3
vt 4.4703484E-07 0.3
vt 0.5 0.33333334
vt 4.4703484E-07 0.33333334
vt 0.5 0.36666667
vt 4.4703484E-07 0.36666667
vt 0.5 0.40000004
vt 4.4703484E-07 0.40000004
vt 0.5 0.43333337
vt 4.4703484E-07 0.43333337
vt 0.5 0.4666667
vt 4.4703484E-07 0.4666667
vt 0.5 0.5
vt 4.4703484E-07 0.5
vt 0.5 0.53333336
vt 4.4703484E-07 0.53333336
vt 0.5 0.5666667
vt 4.4703484E-07 0.5666667
vt 0.5 0.6
vt 4.4703484E-07 0.6
vt 0.5 0.6333334
vt 4.4703484E-07 0.6333334
vt 0.5 0.6666667
vt 4.4703484E-07 0.6666667
vt 0.5 0.70000005
vt 4.4703484E-07 0.70000005
vt 0.5 0.73333335
vt 4.4703484E-07 0.73333335
vt 0.5 0.7666667
vt 4.4703484E-07 0.7666667
vt 0.5 0.8000001
vt 4.4703484E-07 0.8000001
vt 0.5 0.8333334
vt 4.4703484E-07 0.8333334
vt 0.5 0.86666673
vt 4.4703484E-07 0.86666673
vt 0.5 0.90000004
vt 4.4703484E-07 0.90000004
vt 0.5 0.9333334
vt 4.4703484E-07 0.9333334
vt 0.5 0.9666667
vt 4.4703484E-07 0.9666667
vt 0.5 1
vt 4.4703484E-07 1
vt 1.0000005 1
vt 1.0000005 0.9666667
vt 1.0000005 0.9333334
vt 1.0000005 0.90000004
vt 1.0000005 0.86666673
vt 1.0000005 0.8333334
vt 1.0000005 0.8000001
vt 1.0000005 0.7666667
vt 1.0000005 0.73333335
vt 1.0000005 0.70000005
vt 1.0000005 0.6666667
vt 1.0000005 0.6333334
vt 1.0000005 0.6
vt 1.0000005 0.5666667
vt 1.0000005 0.53333336
vt 1.0000005 0.5
vt 0.5 0.4666667
vt 1.0000005 0.4666667
vt 0.5 0.43333337
vt 1.0000005 0.43333337
vt 0.5 0.40000004
vt 1.0000005 0.40000004
vt 0.5 0.36666667
vt 1.0000005 0.36666667
vt 0.5 0.33333334
vt 1.0000005 0.33333334
vt 0.5 0.3
vt 1.0000005 0.3
vt 0.5 0.26666668
vt 1.0000005 0.26666668
vt 0.5 0.23333335
vt 1.0000005 0.23333335
vt 0.5 0.20000002
vt 1.0000005 0.20000002
vt 0.5 0.16666669
vt 1.0000005 0.16666669
vt 0.5 0.13333333
vt 1.0000005 0.13333333
vt 0.5 0.100000024
vt 1.0000005 0.100000024
vt 0.5 0.06666666
vt 1.0000005 0.06666666
vt 0.5 0.03333333
vt 1.0000005 0.03333333
vt 0.5 0
vt 1.0000005 0
vt 0.50025916 0
vt 1.7881393E-07 2.9802322E-08
vt 0.50025916 0.032262444
vt 1.7881393E-07 0.032262474
vt 0.50025916 0.06563741
vt 0 0.0656375
vt 0.50025916 0.09789997
vt 0 0.09790006
vt 0.50025916 0.13127446
vt 0 0.13127461
vt 0.50025916 0.16576153
vt 0 0.16576162
vt 0.50025916 0.19913578
vt 0 0.19913593
vt 0.50025916 0.23250961
vt 0 0.23250964
vt 0.50025916 0.26588285
vt 0 0.26588285
vt 0.50025916 0.2992555
vt 1.1920929E-07 0.2992555
vt 0.50025916 0.3315149
vt 1.1920929E-07 0.3315149
vt 0.50025916 0.3648854
vt 1.1920929E-07 0.3648854
vt 0.50025916 0.39936626
vt 1.1920929E-07 0.39936635
vt 0.50025916 0.432734
vt 1.1920929E-07 0.4327341
vt 0.50025934 0.4649905
vt 2.3841858E-07 0.46499053
vt 0.50025916 0.4994713
vt 2.3841858E-07 0.49947134
vt 0.50025934 0.5328408
vt 2.3841858E-07 0.5328409
vt 0.5002594 0.56621057
vt 2.3841858E-07 0.5662107
vt 0.500259 0.5995806
vt 2.3841858E-07 0.5995807
vt 0.50025946 0.6329508
vt 2.3841858E-07 0.6329508
vt 0.5002591 0.6663207
vt 2.3841858E-07 0.6663207
vt 0.50025934 0.6996903
vt 2.3841858E-07 0.6996903
vt 0.5002591 0.73194706
vt 2.3841858E-07 0.73194706
vt 0.50025946 0.7664253
vt 2.3841858E-07 0.76642543
vt 0.50025946 0.7997898
vt 2.3841858E-07 0.79978985
vt 0.500259 0.8331533
vt 2.3841858E-07 0.8331534
vt 0.50025946 0.866517
vt 2.9802322E-07 0.8665171
vt 0.500259 0.8998831
vt 2.9802322E-07 0.8998832
vt 0.50025946 0.9332526
vt 2.9802322E-07 0.93325263
vt 0.50025904 0.96662545
vt 2.9802322E-07 0.9666255
vt 0.5002593 1
vt 2.9802322E-07 1
vt 1 0.9999999
vt 1 0.96662533
vt 1 0.93325245
vt 1 0.89988303
vt 1 0.86651695
vt 0.99999994 0.83315325
vt 1 0.79978967
vt 0.99999994 0.76642525
vt 1 0.73194706
vt 0.99999994 0.6996903
vt 1 0.6663207
vt 1 0.6329508
vt 0.500259 0.5995806
vt 0.99999994 0.5995805
vt 0.5002594 0.56621057
vt 0.99999994 0.5662105
vt 0.50025934 0.5328408
vt 0.99999994 0.5328407
vt 0.50025916 0.4994713
vt 1 0.49947128
vt 0.50025934 0.4649905
vt 1 0.46499047
vt 0.50025916 0.432734
vt 1 0.43273398
vt 0.50025916 0.39936626
vt 1 0.39936623
vt 0.50025916 0.3648854
vt 1 0.36488545
vt 0.50025916 0.3315149
vt 1 0.33151495
vt 0.50025916 0.2992555
vt 0.9999999 0.2992555
vt 0.50025916 0.26588285
vt 0.9999999 0.26588285
vt 0.50025916 0.23250961
vt 0.9999999 0.23250958
vt 0.50025916 0.19913578
vt 0.9999999 0.19913575
vt 0.50025916 0.16576153
vt 0.9999999 0.16576144
vt 0.50025916 0.13127446
vt 0.99999976 0.13127443
vt 0.50025916 0.09789997
vt 0.99999976 0.097899884
vt 0.50025916 0.06563741
vt 0.99999976 0.06563732
vt 0.50025916 0.032262444
vt 0.99999976 0.032262415
vt 0.99999976 0
vt 0.50025916 0
vt 0.5 0
vt 4.4703484E-07 0
vt 0.5 0.03333333
vt 4.4703484E-07 0.03333333
vt 0.5 0.06666666
vt 4.4703484E-07 0.06666666
vt 0.5 0.100000024
vt 4.4703484E-07 0.100000024
vt 0.5 0.13333333
vt 4.4703484E-07 0.13333333
vt 0.5 0.16666669
vt 4.4703484E-07 0.16666669
vt 0.5 0.20000002
vt 4.4703484E-07 0.20000002
vt 0.5 0.23333335
vt 4.4703484E-07 0.23333335
vt 0.5 0.26666668
vt 4.4703484E-07 0.26666668
vt 0.5 0.3
vt 4.4703484E-07 0.3
vt 0.5 0.33333334
vt 4.4703484E-07 0.33333334
vt 0.5 0.36666667
vt 4.4703484E-07 0.36666667
vt 0.5 0.40000004
vt 4.4703484E-07 0.40000004
vt 0.5 0.43333337
vt 4.4703484E-07 0.43333337
vt 0.5 0.4666667
vt 4.4703484E-07 0.4666667
vt 0.5 0.5
vt 4.4703484E-07 0.5
vt 0.5 0.53333336
vt 4.4703484E-07 0.53333336
vt 0.5 0.5666667
vt 4.4703484E-07 0.5666667
vt 0.5 0.6
vt 4.4703484E-07 0.6
vt 0.5 0.6333334
vt 4.4703484E-07 0.6333334
vt 0.5 0.6666667
vt 4.4703484E-07 0.6666667
vt 0.5 0.70000005
vt 4.4703484E-07 0.70000005
vt 0.5 0.73333335
vt 4.4703484E-07 0.73333335
vt 0.5 0.7666667
vt 4.4703484E-07 0.7666667
vt 0.5 0.8000001
vt 4.4703484E-07 0.8000001
vt 0.5 0.8333334
vt 4.4703484E-07 0.8333334
vt 0.5 0.86666673
vt 4.4703484E-07 0.86666673
vt 0.5 0.90000004
vt 4.4703484E-07 0.90000004
vt 0.5 0.9333334
vt 4.4703484E-07 0.9333334
vt 0.5 0.9666667
vt 4.4703484E-07 0.9666667
vt 0.5 1
vt 4.4703484E-07 1
vt 1.0000005 1
vt 1.0000005 0.9666667
vt 1.0000005 0.9333334
vt 1.0000005 0.90000004
vt 1.0000005 0.86666673
vt 1.0000005 0.8333334
vt 1.0000005 0.8000001
vt 1.0000005 0.7666667
vt 1.0000005 0.73333335
vt 1.0000005 0.70000005
vt 1.0000005 0.6666667
vt 1.0000005 0.6333334
vt 1.0000005 0.6
vt 1.0000005 0.5666667
vt 0.5 0.53333336
vt 1.0000005 0.53333336
vt 0.5 0.5
vt 1.0000005 0.5
vt 0.5 0.4666667
vt 1.0000005 0.4666667
vt 0.5 0.43333337
vt 1.0000005 0.43333337
vt 0.5 0.40000004
vt 1.0000005 0.40000004
vt 0.5 0.36666667
vt 1.0000005 0.36666667
vt 0.5 0.33333334
vt 1.0000005 0.33333334
vt 0.5 0.3
vt 1.0000005 0.3
vt 0.5 0.26666668
vt 1.0000005 0.26666668
vt 0.5 0.23333335
vt 1.0000005 0.23333335
vt 0.5 0.20000002
vt 1.0000005 0.20000002
vt 0.5 0.16666669
vt 1.0000005 0.16666669
vt 0.5 0.13333333
vt 1.0000005 0.13333333
vt 1.0000005 0.100000024
vt 0.5 0.100000024
vt 1.0000005 0.06666666
vt 0.5 0.06666666
vt 1.0000005 0.03333333
vt 0.5 0.03333333
vt 1.0000005 0
vt 0.5 0
vt 0.50025916 0
vt 1.7881393E-07 2.9802322E-08
vt 0.50025916 0.032262444
vt 1.7881393E-07 0.032262474
vt 0.50025916 0.06563741
vt 0 0.0656375
vt 0.50025916 0.09789997
vt 0 0.09790006
vt 0.50025916 0.13127446
vt 0 0.13127461
vt 0.50025916 0.16576153
vt 0 0.16576162
vt 0.50025916 0.19913578
vt 0 0.19913593
vt 0.50025916 0.23250961
vt 0 0.23250964
vt 0.50025916 0.26588285
vt 0 0.26588285
vt 0.50025916 0.2992555
vt 1.1920929E-07 0.2992555
vt 0.50025916 0.3315149
vt 1.1920929E-07 0.3315149
vt 0.50025916 0.3648854
vt 1.1920929E-07 0.3648854
vt 0.50025916 0.39936626
vt 1.1920929E-07 0.39936635
vt 0.50025916 0.432734
vt 1.1920929E-07 0.4327341
vt 2.3841858E-07 0.46499053
vt 0.50025934 0.4649905
vt 2.3841858E-07 0.49947134
vt 0.50025916 0.4994713
vt 2.3841858E-07 0.5328409
vt 0.50025934 0.5328408
vt 2.3841858E-07 0.5662107
vt 0.5002594 0.56621057
vt 2.3841858E-07 0.5995807
vt 0.500259 0.5995806
vt 2.3841858E-07 0.6329508
vt 0.50025946 0.6329508
vt 2.3841858E-07 0.6663207
vt 0.5002591 0.6663207
vt 2.3841858E-07 0.6996903
vt 0.50025934 0.6996903
vt 2.3841858E-07 0.73194706
vt 0.5002591 0.73194706
vt 2.3841858E-07 0.76642543
vt 0.50025946 0.7664253
vt 2.3841858E-07 0.79978985
vt 0.50025946 0.7997898
vt 2.3841858E-07 0.8331534
vt 0.500259 0.8331533
vt 2.9802322E-07 0.8665171
vt 0.50025946 0.866517
vt 2.9802322E-07 0.8998832
vt 0.500259 0.8998831
vt 2.9802322E-07 0.93325263
vt 1 0.6663207
vt 1 0.6329508
vt 0.99999994 0.6996903
vt 0.5002591 0.73194706
vt 0.99999994 0.5995805
vt 1 0.73194706
vt 0.50025946 0.7664253
vt 0.99999994 0.5662105
vt 0.99999994 0.76642525
vt 0.50025946 0.7997898
vt 0.99999994 0.5328407
vt 1 0.79978967
vt 0.50025934 0.5328408
vt 0.500259 0.8331533
vt 1 0.49947128
vt 0.99999994 0.83315325
vt 0.50025916 0.4994713
vt 1 0.46499047
vt 0.50025934 0.4649905
vt 1 0.43273398
vt 0.50025916 0.432734
vt 0.50025946 0.866517
vt 1 0.86651695
vt 1 0.89988303
vt 1 0.39936623
vt 0.50025916 0.39936626
vt 0.50025916 0.3648854
vt 1 0.36488545
vt 0.50025916 0.3315149
vt 1 0.33151495
vt 0.50025916 0.2992555
vt 0.9999999 0.2992555
vt 0.50025916 0.26588285
vt 0.9999999 0.26588285
vt 0.50025916 0.23250961
vt 0.9999999 0.23250958
vt 0.50025916 0.19913578
vt 0.9999999 0.19913575
vt 0.50025916 0.16576153
vt 0.9999999 0.16576144
vt 0.50025916 0.13127446
vt 0.99999976 0.13127443
vt 0.50025916 0.09789997
vt 0.99999976 0.097899884
vt 0.50025916 0.06563741
vt 0.99999976 0.06563732
vt 0.50025916 0.032262444
vt 0.99999976 0.032262415
vt 0.99999976 0
vt 0.50025916 0
vt 2.9802322E-07 0.9666255
vt 2.9802322E-07 1
vt 0.5002593 1
vt 0.50025904 0.96662545
vt 1 0.9999999
vt 1 0.96662533
vt 0.50025946 0.9332526
vt 1 0.93325245
vn -0.7796135 0.021352252 0.6258968
vn -0.7796135 0.021352252 0.6258967
vn -0.7664792 0.020384071 0.64194566
vn -0.7650591 0.02028031 0.64364064
vn -0.74106824 0.01850914 0.6711745
vn -0.739462 0.01838932 0.67294705
vn -0.7152932 0.016772043 0.6986231
vn -0.7134187 0.016660567 0.70053995
vn -0.68935364 0.015320028 0.7242631
vn -0.68709487 0.015202012 0.72640866
vn -0.66278803 0.01397492 0.7486767
vn -0.66018254 0.013847888 0.7509775
vn -0.6347532 0.012657751 0.77261114
vn -0.6318219 0.012526337 0.7750125
vn -0.6057687 0.011417908 0.79555887
vn -0.6024517 0.011284285 0.79807556
vn -0.57500875 0.010225368 0.81808335
vn -0.5712994 0.010088527 0.8206798
vn -0.5425761 0.009074922 0.8399576
vn -0.5385636 0.008939989 0.84253746
vn -0.5070138 0.007890318 0.86190176
vn -0.5026393 0.0077463286 0.8644615
vn -0.46847987 0.0066655595 0.883449
vn -0.46361652 0.0065176296 0.88601196
vn -0.4263547 0.005442168 0.9045396
vn -0.4212308 0.005302486 0.906938
vn -0.38167334 0.004265776 0.92428744
vn -0.376882 0.0041461233 0.926252
vn -0.33692005 0.0031932364 0.94152784
vn -0.3324836 0.0030931002 0.94310397
vn -0.2949897 0.0022915709 0.9554976
vn -0.29095075 0.0022107135 0.9567355
vn -0.25236246 0.0014854966 0.9676317
vn -0.24876468 0.0014231781 0.9685629
vn -0.21053568 0.00081521686 0.9775858
vn -0.20724298 0.00076818705 0.97828925
vn -0.1676244 0.00025911277 0.9858509
vn -0.16455398 0.00022455218 0.9863681
vn -0.12225526 -0.000102455335 0.9924987
vn -0.1193269 -0.00011399105 0.992855
vn -0.07242043 -0.00024217577 0.9973742
vn -0.069702834 -0.00024627527 0.9975677
vn -0.016870292 -0.0004928663 0.99985754
vn -0.013985699 -0.00051576924 0.9999021
vn 0.050079573 -0.00076050655 0.99874496
vn 0.05319485 -0.00076088513 0.9985839
vn 0.12762183 -0.0005964566 0.9918228
vn 0.13094565 -0.0005822504 0.99138933
vn 0.21997352 -0.00020799055 0.9755058
vn 0.22313356 -0.00019492055 0.97478783
vn 0.31582522 0 0.9488174
vn 0.3185804 0 0.9478958
vn 0.4055272 0 0.91408294
vn 0.40752628 0 0.91319346
vn 0.47895288 0 0.87784064
vn 0.48010337 0 0.87721187
vn 0.53266823 0 0.8463241
vn 0.53318816 0 0.8459967
vn 0.5657335 0 0.82458806
vn 0.565859 0 0.824502
vn 0.5769004 0 0.8168145
vn 0.5769004 0 0.8168145
vn 0.5769004 0 0.8168145
vn 0.5657846 0 0.8245531
vn 0.53262144 0 0.84635365
vn 0.47895318 0 0.8778404
vn 0.40549573 0 0.9140969
vn 0.31568408 0 0.94886434
vn 0.21966557 0.0002070569 0.97557515
vn 0.12723084 0.0005917283 0.99187297
vn 0.049664825 0.00075268815 0.9987657
vn -0.017208654 0.0004857397 0.9998518
vn -0.072879896 0.00023900878 0.99734074
vn -0.122434005 0.00010075009 0.99247664
vn -0.16765946 -0.00025734882 0.98584497
vn -0.21036418 -0.00080667227 0.9776228
vn -0.2519298 -0.0014683761 0.9677444
vn -0.29422906 -0.0022638962 0.9557322
vn -0.33578193 -0.0031537374 0.9419344
vn -0.37591776 -0.0041086865 0.9266439
vn -0.38010293 -0.0042130398 0.92493457
vn -0.41999567 -0.005257873 0.9075108
vn -0.42432845 -0.005375984 0.90549237
vn -0.46208233 -0.0064667338 0.88681346
vn -0.4660512 -0.006587671 0.88473326
vn -0.50082624 -0.0076906113 0.8655137
vn -0.50426567 -0.007804162 0.86351323
vn -0.5365179 -0.008894159 0.8438421
vn -0.53955185 -0.008999059 0.8419043
vn -0.5691791 -0.010070764 0.8221518
vn -0.57184696 -0.010171384 0.8202973
vn -0.6003788 -0.011277062 0.79963624
vn -0.6026124 -0.011365936 0.79795307
vn -0.6298424 -0.012510517 0.7766221
vn -0.63165206 -0.012590663 0.7751497
vn -0.65841657 -0.013826644 0.7525267
vn -0.6598294 -0.01389452 0.75128704
vn -0.68562704 -0.015178933 0.72779465
vn -0.6866251 -0.01523039 0.7268522
vn -0.7123107 -0.016643418 0.7016669
vn -0.7128864 -0.016677238 0.7010813
vn -0.7387925 -0.018390758 0.673682
vn -0.73899853 -0.018405946 0.67345554
vn -0.7648946 -0.020297974 0.64383566
vn -0.76470876 -0.02028452 0.6440567
vn -0.77887845 -0.02131923 0.62681246
vn -0.77887845 -0.02131923 0.62681246
vn -0.03557318 0.99923587 -0.016189424
vn -0.035573177 0.99923587 -0.016189422
vn -0.04479574 0.9988024 -0.019677373
vn -0.046059676 0.99873537 -0.020155368
vn -0.063464686 0.9976386 -0.02625857
vn -0.06516178 0.9975145 -0.026811311
vn -0.083564855 0.99598074 -0.032237183
vn -0.08557299 0.99579287 -0.032769185
vn -0.10358002 0.99393713 -0.036879808
vn -0.10581125 0.993686 -0.037310775
vn -0.122758806 0.99163616 -0.03984911
vn -0.12493975 0.99135476 -0.04007189
vn -0.14054368 0.9892306 -0.040871467
vn -0.14244546 0.9889593 -0.040850855
vn -0.1555412 0.98702735 -0.03979999
vn -0.15704888 0.9867988 -0.03954563
vn -0.16747095 0.98516047 -0.037581142
vn -0.16853201 0.9849882 -0.037351597
vn -0.17524369 0.9839258 -0.034345336
vn -0.17564891 0.9838674 -0.03394548
vn -0.17902756 0.9834168 -0.02899507
vn -0.17917982 0.98340005 -0.028616576
vn -0.1798681 0.9834313 -0.022592142
vn -0.17983294 0.9834431 -0.022356542
vn -0.17739306 0.9840148 -0.01570331
vn -0.17739329 0.9840147 -0.015703723
vn -0.17220418 0.9850199 -0.009031773
vn -0.1719737 0.98506224 -0.0088040875
vn -0.16454045 0.9863669 -0.0026000994
vn -0.16396669 0.9864634 -0.0021977539
vn -0.15537284 0.98785096 0.0031074232
vn -0.15445653 0.987993 0.0035979743
vn -0.1445239 0.98946583 0.008378924
vn -0.14336029 0.98963076 0.008868588
vn -0.133049 0.99102694 0.012789973
vn -0.13173659 0.9911965 0.01322897
vn -0.12117094 0.992496 0.016406558
vn -0.11982131 0.99265397 0.016759505
vn -0.109214604 0.99383247 0.019215785
vn -0.107923545 0.9939685 0.019469213
vn -0.09748014 0.9950117 0.02119717
vn -0.09629943 0.99512345 0.021349017
vn -0.086208306 0.99602616 0.022360342
vn -0.08525891 0.99610645 0.022422412
vn -0.0750904 0.99691784 0.022722336
vn -0.07431347 0.99697626 0.022713682
vn -0.06407472 0.99771404 0.021473754
vn -0.063426085 0.9977586 0.0213266
vn -0.054954696 0.9982919 0.019830057
vn -0.05476312 0.9983026 0.019820087
vn -0.046239335 0.998755 0.018717714
vn -0.046002887 0.99876666 0.018678932
vn -0.035179216 0.9992623 0.015402439
vn -0.03511028 0.99926525 0.015368653
vn -0.026434042 0.99959415 0.0106196245
vn -0.10691416 0.99365366 0.03495507
vn -0.11923171 0.9923362 0.032444254
vn -0.0949089 0.994812 0.03662516
vn -0.13161784 0.9908751 0.029037343
vn -0.08337854 0.9958125 0.037489027
vn -0.143772 0.9893027 0.024696084
vn -0.07190519 0.99670523 0.037526835
vn -0.061413158 0.9974356 0.03674951
vn -0.15542299 0.9876594 0.01930079
vn -0.061103843 0.997456 0.036713164
vn -0.05037354 0.99811906 0.034941018
vn -0.16546185 0.98612785 0.013193589
vn -0.05023332 0.99812716 0.034910463
vn -0.039822146 0.9986915 0.03208446
vn -0.1738349 0.98475605 0.0060801376
vn -0.039785407 0.9986934 0.032072425
vn -0.17930596 0.9837922 -0.0014953064
vn -0.17941333 0.98377234 -0.0017022864
vn -0.18139985 0.98336685 -0.00914879
vn -0.18139905 0.9833672 -0.009131099
vn -0.17979081 0.9835722 -0.016156135
vn -0.17969711 0.9835864 -0.016333362
vn -0.174291 0.9844253 -0.023009023
vn -0.1739627 0.98447615 -0.023318011
vn -0.16440435 0.9859859 -0.028337281
vn -0.16369091 0.9860984 -0.028553266
vn -0.15081339 0.98807305 -0.031095564
vn -0.14991269 0.9882069 -0.031194953
vn -0.13479586 0.99036247 -0.031816177
vn -0.13371731 0.99050915 -0.03180087
vn -0.11582229 0.99279636 -0.030670475
vn -0.11471062 0.9929289 -0.030554665
vn -0.09535065 0.9950553 -0.027806783
vn -0.09441026 0.9951497 -0.027640391
vn -0.07395993 0.9969856 -0.023444595
vn -0.07336894 0.9970325 -0.023305735
vn -0.05271596 0.9984486 -0.017927824
vn -0.052531626 0.9984592 -0.017874878
vn -0.033740565 0.9993574 -0.012094324
vn -0.033410333 0.9993699 -0.011984617
vn -0.023870206 0.9996762 -0.008815172
vn -0.023870211 0.9996762 -0.008815174
vn -0.011074637 0.9999379 -0.0013021568
vn -0.008388273 0.99995244 -0.0049707387
vn -0.008388273 0.99995244 -0.004970738
vn -0.011074881 0.9999379 -0.0013018234
vn 0.0039042928 0.9999167 0.012308494
vn -0.018109227 0.9998221 0.0052855713
vn -0.0009287543 0.9999019 0.013975804
vn -0.018103812 0.9998222 0.005281981
vn -0.009944661 0.9997888 0.017982587
vn -0.026414977 0.99959475 0.010607875
vn -0.019681944 0.99953926 0.023106508
vn -0.029897422 0.9991571 0.028129281
vn 0.9356004 0.033652782 0.35145327
vn 0.9356004 0.033652786 0.35145327
vn 0.946604 0.03252827 0.32075354
vn 0.9476852 0.03240992 0.31755692
vn 0.96463335 0.03022612 0.26185662
vn 0.96558607 0.030080415 0.25833845
vn 0.97867703 0.028076641 0.20347703
vn 0.9794957 0.027951507 0.19951683
vn 0.98887014 0.026329404 0.14643307
vn 0.9895405 0.026193973 0.14185709
vn 0.99562573 0.024705075 0.09010575
vn 0.99607533 0.024563525 0.08503296
vn 0.9991861 0.023158038 0.033028185
vn 0.99935514 0.023015672 0.02756106
vn 0.9994956 0.021719825 -0.023166891
vn 0.9993443 0.021571964 -0.029080905
vn 0.9966113 0.020312708 -0.07970772
vn 0.9960913 0.020157296 -0.085998304
vn 0.9905468 0.018953208 -0.13585995
vn 0.98964334 0.018801825 -0.14231108
vn 0.98098195 0.017622193 -0.19329742
vn 0.9796521 0.017471157 -0.19994113
vn 0.9678811 0.016294159 -0.25087982
vn 0.96606356 0.01613164 -0.25780028
vn 0.95106304 0.014921918 -0.30863652
vn 0.9488432 0.0147590535 -0.31540245
vn 0.9309902 0.013565754 -0.364792
vn 0.92864424 0.013422838 -0.37072852
vn 0.909003 0.012297055 -0.41660804
vn 0.9066276 0.012168568 -0.4217563
vn 0.88724893 0.011174392 -0.46115562
vn 0.8849751 0.011063751 -0.46550694
vn 0.8647437 0.010105598 -0.50211173
vn 0.8626965 0.010010884 -0.505623
vn 0.8431881 0.009080054 -0.537542
vn 0.8413755 0.008989796 -0.5403762
vn 0.8224901 0.008048586 -0.5687224
vn 0.8209251 0.007970008 -0.57098013
vn 0.8020918 0.005747394 -0.5971732
vn 0.800641 0.005466479 -0.5991195
vn 0.78331417 0.0030287914 -0.6216185
vn 0.78239363 0.0029693071 -0.62277704
vn 0.7653019 0.0032814674 -0.64366317
vn 0.76416546 0.0033856595 -0.6450115
vn 0.7426028 0.0038464041 -0.669721
vn 0.741448 0.0037938168 -0.67099965
vn 0.7153968 0.0024020826 -0.6987143
vn 0.7139958 0.0023189292 -0.70014626
vn 0.678817 0.0007115474 -0.7343073
vn 0.6773842 0.00066355034 -0.7356291
vn 0.6344658 0 -0.77295095
vn 0.63298255 0 -0.774166
vn 0.5810413 0 -0.8138741
vn 0.57950234 0 -0.8149706
vn 0.5208349 0 -0.8536573
vn 0.5195894 0 -0.85441613
vn 0.46655554 0 -0.8844919
vn 0.46603304 0 -0.8847673
vn 0.43128362 0 -0.90221643
vn 0.43110186 0 -0.9023033
vn 0.41893178 0 -0.9080177
vn 0.41893178 0 -0.9080177
vn 0.41893175 0 -0.9080177
vn 0.43120268 0 -0.90225506
vn 0.46673825 0 -0.8843955
vn 0.5207938 0 -0.8536825
vn 0.58103085 0 -0.81388146
vn 0.6346217 0 -0.7728229
vn 0.67887074 -0.0007084512 -0.73425746
vn 0.71519345 -0.002386328 -0.6989224
vn 0.7422775 -0.0038181196 -0.6700817
vn 0.76501286 -0.003237095 -0.6440069
vn 0.7830212 -0.003001408 -0.6219878
vn 0.8013297 -0.005696303 -0.59819597
vn 0.8213515 -0.007966608 -0.57036674
vn 0.8418411 -0.008986038 -0.53965074
vn 0.8632087 -0.010000089 -0.5047481
vn 0.8855603 -0.011057774 -0.46439287
vn 0.9050385 -0.012052883 -0.42515877
vn 0.9072157 -0.012170081 -0.4204896
vn 0.92707473 -0.013302169 -0.37464046
vn 0.9291825 -0.0134297535 -0.36937702
vn 0.94737256 -0.014636527 -0.31979835
vn 0.94932854 -0.014778729 -0.31393766
vn 0.96475774 -0.01600959 -0.26265237
vn 0.96632797 -0.01614813 -0.25680625
vn 0.9785741 -0.017352747 -0.20516248
vn 0.9797031 -0.017478362 -0.19969082
vn 0.98884857 -0.018692007 -0.147747
vn 0.9896041 -0.018814402 -0.14258173
vn 0.99560225 -0.020072779 -0.09150546
vn 0.9960323 -0.020195717 -0.08667022
vn 0.99917454 -0.021518506 -0.034453947
vn 0.99931216 -0.021627728 -0.030122496
vn 0.99948287 -0.02296771 0.02250178
vn 0.9993887 -0.023064509 0.026272126
vn 0.9964579 -0.024521694 0.08043917
vn 0.9961927 -0.02461111 0.083632745
vn 0.99010056 -0.026171088 0.13789815
vn 0.98974484 -0.02624523 0.1404152
vn 0.9801482 -0.027939461 0.19628815
vn 0.9797881 -0.027995147 0.19806947
vn 0.9662289 -0.030090567 0.25592256
vn 0.96592784 -0.030136965 0.25705072
vn 0.9481668 -0.032422666 0.31611443
vn 0.94801944 -0.03243865 0.31655458
vn 0.93649006 -0.033607237 0.3490801
vn 0.93649006 -0.033607237 0.34908018
vn 0.016247245 0.9983215 0.05559013
vn 0.016247245 0.9983215 0.05559013
vn 0.019463548 0.99777883 0.063707516
vn 0.01993734 0.99769235 0.06490318
vn 0.026370283 0.9964978 0.0793526
vn 0.02718821 0.99634343 0.08099642
vn 0.034641035 0.99488574 0.09488059
vn 0.03582672 0.99464595 0.09693242
vn 0.043726977 0.99300295 0.109695315
vn 0.045272786 0.9926731 0.11202958
vn 0.053299468 0.9909615 0.123102896
vn 0.05511139 0.99057955 0.12535942
vn 0.06339791 0.98888373 0.13449824
vn 0.06540025 0.98849326 0.1363957
vn 0.07318516 0.9869658 0.14332704
vn 0.075116865 0.9865889 0.14491387
vn 0.082080714 0.9853415 0.14954926
vn 0.083884254 0.98505974 0.15040186
vn 0.09000823 0.9841949 0.15250887
vn 0.09155145 0.9840109 0.15277722
vn 0.0968571 0.98350173 0.1527844
vn 0.098045036 0.9834292 0.15249285
vn 0.102061585 0.98334634 0.15037702
vn 0.10286351 0.98337895 0.14961569
vn 0.105910525 0.9836314 0.14578195
vn 0.10646304 0.9837108 0.14483987
vn 0.108013615 0.9844422 0.1385882
vn 0.10802556 0.984624 0.13728023
vn 0.10706999 0.98577034 0.12958708
vn 0.1068109 0.9859094 0.12874064
vn 0.10444477 0.9871258 0.12113539
vn 0.1041741 0.9872594 0.12027735
vn 0.100708894 0.9887135 0.11092086
vn 0.10041676 0.9888187 0.11024499
vn 0.09583693 0.990297 0.10063395
vn 0.09556012 0.990377 0.100108124
vn 0.08992079 0.9918411 0.090363815
vn 0.08965991 0.9919018 0.089955434
vn 0.08348432 0.9932473 0.0805617
vn 0.083274126 0.99328995 0.08025274
vn 0.076875515 0.99450606 0.071048185
vn 0.076715514 0.9945345 0.07082317
vn 0.07004134 0.99567044 0.061111473
vn 0.06989425 0.9956943 0.060889293
vn 0.06369445 0.99658823 0.052487824
vn 0.06360954 0.9965988 0.052390456
vn 0.056186277 0.99737984 0.04556781
vn 0.0560681 0.9973908 0.045474265
vn 0.047236733 0.99814725 0.0383491
vn 0.047201093 0.9981501 0.038319554
vn 0.03973239 0.9987256 0.031120198
vn 0.039723605 0.9987263 0.031110551
vn 0.033842377 0.9990926 0.02585803
vn 0.0338381 0.9990928 0.025855768
vn 0.02453509 0.9994837 0.020744191
vn 0.024507739 0.99948466 0.020729002
vn 0.013732958 0.9998166 0.013350544
vn 0.013726857 0.9998167 0.013344856
vn 0.008247581 0.9999089 0.010687821
vn 0.008247395 0.9999089 0.010687893
vn 0.0064368774 0.9999143 0.011406249
vn 0.006436877 0.9999143 0.011406249
vn 0.012617607 0.9999174 -0.0024567326
vn 0.014289767 0.9998977 -0.000539239
vn 0.020533236 0.9997875 0.0018553339
vn 0.03093278 0.9994931 0.0075263893
vn 0.040085677 0.99906844 0.015981765
vn 0.048247267 0.998599 0.021729745
vn 0.05717713 0.9979705 0.028026998
vn 0.06461792 0.9972234 0.037015524
vn 0.07114075 0.996414 0.045805138
vn 0.08009451 0.9953145 0.054165494
vn 0.08798605 0.9941818 0.062136244
vn 0.094072364 0.9929558 0.07203588
vn 0.10024297 0.9915207 0.08269221
vn 0.100487925 0.9914623 0.08309463
vn 0.1070713 0.98986953 0.09324171
vn 0.10740011 0.9897884 0.093723215
vn 0.11247794 0.98831046 0.10291345
vn 0.11267713 0.9882373 0.10339678
vn 0.115432434 0.98683745 0.11325722
vn 0.11559702 0.98672116 0.11409922
vn 0.11718522 0.9854058 0.123462394
vn 0.11730409 0.985285 0.12431099
vn 0.11747094 0.98425955 0.13203655
vn 0.117374875 0.9841487 0.13294576
vn 0.115569726 0.9835519 0.13881347
vn 0.11511044 0.9834832 0.13967945
vn 0.111515716 0.98335177 0.14347011
vn 0.11060405 0.9833714 0.1440399
vn 0.10540398 0.98372006 0.14554992
vn 0.104092754 0.9838485 0.14562573
vn 0.09741877 0.9846769 0.14464149
vn 0.095759645 0.9849117 0.14414923
vn 0.08793618 0.9861276 0.14078225
vn 0.08597363 0.9864482 0.13974406
vn 0.07723412 0.98802596 0.13356502
vn 0.07530286 0.9883989 0.13189766
vn 0.066209465 0.99016386 0.123255
vn 0.0644006 0.99051297 0.12139407
vn 0.054823175 0.9923689 0.11044725
vn 0.053206008 0.9926789 0.10843362
vn 0.04389958 0.99444747 0.09564012
vn 0.042673573 0.9946768 0.093792535
vn 0.03383195 0.99626714 0.07941748
vn 0.033037648 0.9964044 0.07801827
vn 0.024664227 0.9977295 0.06266967
vn 0.024219383 0.99779344 0.061820507
vn 0.017046738 0.99878126 0.04631924
vn 0.01698067 0.99878997 0.046154756
vn 0.013576161 0.99919766 0.037678733
vn 0.013576163 0.99919766 0.037678733
vn -0.16917321 0.03823508 -0.9848444
vn -0.16917324 0.038235083 -0.9848444
vn -0.20510373 0.036328394 -0.9780658
vn -0.20747271 0.03620046 -0.9775708
vn -0.26816624 0.032738324 -0.9628163
vn -0.27014583 0.03261912 -0.9622667
vn -0.32465735 0.029522015 -0.9453709
vn -0.32676402 0.029410202 -0.94464827
vn -0.37510154 0.026911097 -0.92659307
vn -0.37771386 0.026779551 -0.925535
vn -0.4213296 0.024618618 -0.9065734
vn -0.42439625 0.024469588 -0.9051459
vn -0.46520445 0.02247548 -0.88491786
vn -0.46863836 0.022307022 -0.88310844
vn -0.50593686 0.020508427 -0.8623266
vn -0.5097149 0.020329976 -0.8601032
vn -0.54482794 0.018696008 -0.83833945
vn -0.5489146 0.018509274 -0.8356736
vn -0.5817994 0.016973766 -0.8131552
vn -0.5860287 0.016771978 -0.8101167
vn -0.6181955 0.015219528 -0.785877
vn -0.6225555 0.015006832 -0.78243166
vn -0.65352386 0.0134997135 -0.7567856
vn -0.6580582 0.01327963 -0.7528499
vn -0.68813235 0.011797914 -0.7254893
vn -0.6925705 0.011576172 -0.72125727
vn -0.72110295 0.01013736 -0.69275373
vn -0.72497624 0.009941328 -0.68870217
vn -0.75094235 0.008608268 -0.6603117
vn -0.7542671 0.008435638 -0.6565134
vn -0.7763335 0.0072819698 -0.63028026
vn -0.7791378 0.0071349908 -0.62681204
vn -0.79970837 0.0060487636 -0.6003582
vn -0.8019959 0.0059277928 -0.59730023
vn -0.82034826 0.004949251 -0.57184285
vn -0.82223773 0.004848099 -0.5691236
vn -0.8392566 0.003945686 -0.54372126
vn -0.8408435 0.003863016 -0.5412644
vn -0.85736275 0.0025316575 -0.51470643
vn -0.8587645 0.0023724292 -0.5123649
vn -0.8750136 0.001121436 -0.48409715
vn -0.8760285 0.0010886051 -0.48225814
vn -0.8927741 0.0009286855 -0.45050365
vn -0.89389116 0.0009451973 -0.4482831
vn -0.9132985 0.0008211722 -0.40729025
vn -0.9143767 0.0007915207 -0.4048636
vn -0.9355747 0.00030256427 -0.35312873
vn -0.9366213 0.00028258594 -0.35034323
vn -0.9596468 2.5530931E-05 -0.28120804
vn -0.96046567 2.3840854E-05 -0.27839833
vn -0.9805237 0 -0.19640087
vn -0.981054 0 -0.19373459
vn -0.9944043 0 -0.10564138
vn -0.99462706 0 -0.1035225
vn -0.9997087 0 -0.024134837
vn -0.99973947 0 -0.022824163
vn -0.9992723 0 0.038142033
vn -0.9992487 0 0.038756095
vn -0.99698097 0 0.07764558
vn -0.99696916 0 0.07779735
vn -0.99583226 0 0.09120325
vn -0.99583226 0 0.09120324
vn -0.99583226 0 0.09120322
vn -0.9969791 0 0.077670015
vn -0.99927443 0 0.038085807
vn -0.9997111 0 -0.02403357
vn -0.9944008 0 -0.105674595
vn -0.9805186 0 -0.19642664
vn -0.9595361 -2.5421734E-05 -0.28158566
vn -0.93549615 -0.00029805538 -0.35333672
vn -0.9133914 -0.00080618344 -0.4070817
vn -0.8928985 -0.0009175005 -0.4502571
vn -0.87501967 -0.0011135874 -0.48408598
vn -0.85776395 -0.002504177 -0.5140377
vn -0.8399174 -0.0039162906 -0.5427001
vn -0.821274 -0.0048998413 -0.570513
vn -0.8028923 -0.005877841 -0.5960951
vn -0.8010347 -0.005976738 -0.59858817
vn -0.78033286 -0.007078462 -0.62532437
vn -0.77812356 -0.0071952837 -0.6280699
vn -0.7558043 -0.00837368 -0.6547439
vn -0.75326574 -0.0085069155 -0.6576614
vn -0.726889 -0.009867079 -0.6866842
vn -0.72402436 -0.010011975 -0.68970174
vn -0.6948988 -0.011489688 -0.71901584
vn -0.6917185 -0.011650393 -0.7220732
vn -0.6608253 -0.013207011 -0.75042355
vn -0.6576994 -0.013363712 -0.7531619
vn -0.6256148 -0.014959858 -0.77998865
vn -0.6227697 -0.01510034 -0.7822594
vn -0.58919793 -0.016723353 -0.80781573
vn -0.5866269 -0.016845064 -0.80968213
vn -0.55200124 -0.018448185 -0.8336392
vn -0.54976183 -0.018549588 -0.8351154
vn -0.5124863 -0.02027063 -0.8584561
vn -0.5107447 -0.020352326 -0.8594915
vn -0.4708733 -0.022260386 -0.8819199
vn -0.4697069 -0.022317147 -0.88254035
vn -0.42584744 -0.024469392 -0.904464
vn -0.42535424 -0.024493735 -0.9046955
vn -0.37805495 -0.026847295 -0.9253937
vn -0.37839478 -0.026830278 -0.9252554
vn -0.32707083 -0.029440729 -0.94454104
vn -0.32588294 -0.02950215 -0.94494975
vn -0.2701956 -0.03262087 -0.9622527
vn -0.26835358 -0.03273152 -0.9627642
vn -0.2074722 -0.036200803 -0.9775709
vn -0.20510323 -0.03632875 -0.9780659
vn -0.16917129 -0.03823566 -0.98484474
vn -0.16917126 -0.038235664 -0.98484474
vn -0 1 0
vn -0 1 0
vn -0 1 0
vn -0 1 0
vn 0.0047949567 0.9999815 -0.0037347877
vn 0.0061417674 0.9999697 -0.0047837817
vn 0.017110366 0.99972206 -0.01621604
vn 0.019252297 0.9996364 -0.01888094
vn 0.032418102 0.9988825 -0.03439332
vn 0.03541068 0.99865913 -0.037761964
vn 0.04879964 0.99737525 -0.053491596
vn 0.051819228 0.9970168 -0.05720424
vn 0.06369199 0.9952526 -0.07358987
vn 0.06624971 0.9947789 -0.07762705
vn 0.07539545 0.9927533 -0.093575194
vn 0.07732394 0.9922381 -0.09738865
vn 0.08466585 0.990123 -0.111750364
vn 0.0863456 0.98960656 -0.11499236
vn 0.09157172 0.9876008 -0.12751168
vn 0.09230552 0.9872028 -0.13003942
vn 0.094940335 0.9854414 -0.14103724
vn 0.0952358 0.98516417 -0.14276469
vn 0.095228314 0.9839971 -0.15060249
vn 0.09499468 0.9839011 -0.15137534
vn 0.09257445 0.9834193 -0.155937
vn 0.092341825 0.9834046 -0.15616801
vn 0.0879009 0.9834832 -0.15822196
vn 0.08781005 0.9834895 -0.15823302
vn 0.08097426 0.9843164 -0.15673032
vn 0.080713555 0.9843589 -0.1565974
vn 0.073659174 0.9856345 -0.1519835
vn 0.073115095 0.98574466 -0.15153119
vn 0.06570571 0.98720515 -0.14528891
vn 0.064795665 0.9873793 -0.14451171
vn 0.056626014 0.98912734 -0.13572255
vn 0.055407293 0.98941433 -0.13412425
vn 0.04838353 0.9908388 -0.12608509
vn 0.04755397 0.99096596 -0.12539968
vn 0.040842094 0.9921904 -0.11785552
vn 0.039461613 0.9924643 -0.11600636
vn 0.032103777 0.9939614 -0.104929194
vn 0.031065308 0.99418676 -0.103090554
vn 0.026590392 0.99535733 -0.09250291
vn 0.026210481 0.99551046 -0.09095064
vn 0.02353669 0.9964933 -0.08029459
vn 0.02316507 0.99661714 -0.078852974
vn 0.01880053 0.99736965 -0.070002176
vn 0.01805941 0.9974444 -0.06912797
vn 0.012820151 0.99813473 -0.05968832
vn 0.012491641 0.99819857 -0.058681708
vn 0.010004738 0.99874216 -0.04913397
vn 0.0099330535 0.99876535 -0.048673708
vn 0.0073863314 0.99916947 -0.0400723
vn 0.007271061 0.99918133 -0.039795943
vn 0.005978811 0.99960643 -0.027409997
vn 0.005989882 0.99960953 -0.027295912
vn 0.007907345 0.999821 -0.017187322
vn 0.019041328 0.9941731 -0.106099956
vn 0.027672786 0.9926703 -0.11764282
vn 0.011856401 0.99529797 -0.096132115
vn 0.005416722 0.99627775 -0.08603106
vn 0.036529265 0.99106735 -0.12826231
vn 0.004783407 0.99637884 -0.08488984
vn -0.000119370176 0.99730766 -0.07333196
vn 0.04424002 0.9893422 -0.13872583
vn -0.00037443248 0.9973713 -0.07245954
vn -0.0038754812 0.9980782 -0.061845463
vn 0.052388687 0.98732716 -0.14980178
vn -0.004011451 0.99809927 -0.061495848
vn 0.05348427 0.98709387 -0.15094763
vn -0.0065769493 0.99862504 -0.052007847
vn 0.06109988 0.98562557 -0.1575088
vn -0.0065972186 0.9986312 -0.051886216
vn 0.062100526 0.98544747 -0.15823027
vn 0.06951633 0.984295 -0.16226742
vn 0.070177265 0.9842069 -0.1625172
vn 0.07716263 0.98348606 -0.16371037
vn 0.07742658 0.9834673 -0.16369829
vn -0.007880829 0.99918395 -0.03961277
vn -0.007881244 0.9991843 -0.039605636
vn -0.009400256 0.9995789 -0.02745305
vn 0.08267825 0.98348504 -0.16100192
vn 0.082644865 0.9834818 -0.1610387
vn 0.085674606 0.9843151 -0.15421943
vn 0.08578363 0.9843836 -0.15372074
vn 0.08573159 0.98596466 -0.14326134
vn 0.08554418 0.98614967 -0.14209493
vn 0.08206932 0.98825455 -0.1289087
vn 0.081461705 0.98853254 -0.12715127
vn 0.07511548 0.9908731 -0.111929394
vn 0.073968194 0.9912316 -0.109491974
vn 0.064839534 0.9936451 -0.092007525
vn 0.06327582 0.99399734 -0.089249566
vn 0.052318852 0.99612904 -0.07063678
vn 0.050617553 0.99641126 -0.067841634
vn 0.037882 0.99811614 -0.048262283
vn 0.03608748 0.9983051 -0.04565889
vn 0.021473698 0.9994191 -0.026466198
vn 0.019736186 0.9995078 -0.024386423
vn 0.0068680122 0.99993694 -0.008885302
vn 0.006147412 0.9999491 -0.008007203
vn 0.0006713585 0.99999917 -0.0010900118
vn 0.000620531 0.9999993 -0.0010074887
vn -0 1 0
vn -0 1 0
vn -0 1 1.574413E-07
vn -0 1 1.574413E-07
vn 0.010520901 0.9998958 -0.009879466
vn 0.011941724 0.9999157 -0.005090114
vn 0.0119417235 0.9999157 -0.005090114
vn 0.010520837 0.9998958 -0.009879686
vn -0.009168421 0.99995327 -0.0030841373
vn -0.009127445 0.9999162 -0.009179164
vn 0.007909338 0.9998211 -0.017183172
vn -0.009805522 0.9997749 -0.018816534
g Md_CMN_AuraLine_03_0
f 3/3/3 2/2/2 1/1/1
f 3/3/3 4/4/4 2/2/2
f 5/5/5 4/4/4 3/3/3
f 5/5/5 6/6/6 4/4/4
f 7/7/7 6/6/6 5/5/5
f 7/7/7 8/8/8 6/6/6
f 9/9/9 8/8/8 7/7/7
f 9/9/9 10/10/10 8/8/8
f 11/11/11 10/10/10 9/9/9
f 11/11/11 12/12/12 10/10/10
f 13/13/13 12/12/12 11/11/11
f 13/13/13 14/14/14 12/12/12
f 15/15/15 14/14/14 13/13/13
f 15/15/15 16/16/16 14/14/14
f 17/17/17 16/16/16 15/15/15
f 17/17/17 18/18/18 16/16/16
f 19/19/19 18/18/18 17/17/17
f 19/19/19 20/20/20 18/18/18
f 21/21/21 20/20/20 19/19/19
f 21/21/21 22/22/22 20/20/20
f 23/23/23 22/22/22 21/21/21
f 23/23/23 24/24/24 22/22/22
f 25/25/25 24/24/24 23/23/23
f 25/25/25 26/26/26 24/24/24
f 27/27/27 26/26/26 25/25/25
f 27/27/27 28/28/28 26/26/26
f 29/29/29 28/28/28 27/27/27
f 29/29/29 30/30/30 28/28/28
f 31/31/31 30/30/30 29/29/29
f 31/31/31 32/32/32 30/30/30
f 33/33/33 32/32/32 31/31/31
f 33/33/33 34/34/34 32/32/32
f 35/35/35 34/34/34 33/33/33
f 35/35/35 36/36/36 34/34/34
f 37/37/37 36/36/36 35/35/35
f 37/37/37 38/38/38 36/36/36
f 39/39/39 38/38/38 37/37/37
f 39/39/39 40/40/40 38/38/38
f 41/41/41 40/40/40 39/39/39
f 41/41/41 42/42/42 40/40/40
f 43/43/43 42/42/42 41/41/41
f 43/43/43 44/44/44 42/42/42
f 45/45/45 44/44/44 43/43/43
f 45/45/45 46/46/46 44/44/44
f 47/47/47 46/46/46 45/45/45
f 47/47/47 48/48/48 46/46/46
f 49/49/49 48/48/48 47/47/47
f 49/49/49 50/50/50 48/48/48
f 51/51/51 50/50/50 49/49/49
f 51/51/51 52/52/52 50/50/50
f 53/53/53 52/52/52 51/51/51
f 53/53/53 54/54/54 52/52/52
f 55/55/55 54/54/54 53/53/53
f 55/55/55 56/56/56 54/54/54
f 57/57/57 56/56/56 55/55/55
f 57/57/57 58/58/58 56/56/56
f 59/59/59 58/58/58 57/57/57
f 59/59/59 60/60/60 58/58/58
f 61/61/61 60/60/60 59/59/59
f 61/61/61 62/62/62 60/60/60
f 63/63/63 61/61/61 59/59/59
f 63/63/63 59/59/59 64/64/64
f 64/64/64 59/59/59 57/57/57
f 64/64/64 57/57/57 65/65/65
f 65/65/65 57/57/57 55/55/55
f 65/65/65 55/55/55 66/66/66
f 66/66/66 55/55/55 53/53/53
f 66/66/66 53/53/53 67/67/67
f 67/67/67 53/53/53 51/51/51
f 67/67/67 51/51/51 68/68/68
f 68/68/68 51/51/51 49/49/49
f 68/68/68 49/49/49 69/69/69
f 69/69/69 49/49/49 47/47/47
f 69/69/69 47/47/47 70/70/70
f 70/70/70 47/47/47 45/45/45
f 70/70/70 45/45/45 71/71/71
f 71/71/71 45/45/45 43/43/43
f 71/71/71 43/43/43 72/72/72
f 72/72/72 43/43/43 41/41/41
f 72/72/72 41/41/41 73/73/73
f 73/73/73 41/41/41 39/39/39
f 73/73/73 39/39/39 74/74/74
f 74/74/74 39/39/39 37/37/37
f 74/74/74 37/37/37 75/75/75
f 75/75/75 37/37/37 35/35/35
f 75/75/75 35/35/35 76/76/76
f 76/76/76 35/35/35 33/33/33
f 76/76/76 33/33/33 77/77/77
f 77/77/77 33/33/33 31/31/31
f 77/77/77 31/31/31 78/78/78
f 78/78/78 31/31/31 29/29/29
f 78/78/78 29/29/29 79/79/79
f 79/79/79 29/29/29 80/80/80
f 79/79/79 80/80/80 81/81/81
f 81/81/81 80/80/80 82/82/82
f 81/81/81 82/82/82 83/83/83
f 83/83/83 82/82/82 84/84/84
f 83/83/83 84/84/84 85/85/85
f 85/85/85 84/84/84 86/86/86
f 85/85/85 86/86/86 87/87/87
f 87/87/87 86/86/86 88/88/88
f 87/87/87 88/88/88 89/89/89
f 89/89/89 88/88/88 90/90/90
f 89/89/89 90/90/90 91/91/91
f 91/91/91 90/90/90 92/92/92
f 91/91/91 92/92/92 93/93/93
f 93/93/93 92/92/92 94/94/94
f 93/93/93 94/94/94 95/95/95
f 95/95/95 94/94/94 96/96/96
f 95/95/95 96/96/96 97/97/97
f 97/97/97 96/96/96 98/98/98
f 97/97/97 98/98/98 99/99/99
f 99/99/99 98/98/98 100/100/100
f 99/99/99 100/100/100 101/101/101
f 101/101/101 100/100/100 102/102/102
f 101/101/101 102/102/102 103/103/103
f 103/103/103 102/102/102 104/104/104
f 103/103/103 104/104/104 105/105/105
f 106/106/106 105/105/105 104/104/104
f 106/106/106 104/104/104 107/107/107
f 110/110/110 109/109/109 108/108/108
f 110/110/110 111/111/111 109/109/109
f 112/112/112 111/111/111 110/110/110
f 112/112/112 113/113/113 111/111/111
f 114/114/114 113/113/113 112/112/112
f 114/114/114 115/115/115 113/113/113
f 116/116/116 115/115/115 114/114/114
f 116/116/116 117/117/117 115/115/115
f 118/118/118 117/117/117 116/116/116
f 118/118/118 119/119/119 117/117/117
f 120/120/120 119/119/119 118/118/118
f 120/120/120 121/121/121 119/119/119
f 122/122/122 121/121/121 120/120/120
f 122/122/122 123/123/123 121/121/121
f 124/124/124 123/123/123 122/122/122
f 124/124/124 125/125/125 123/123/123
f 126/126/126 125/125/125 124/124/124
f 126/126/126 127/127/127 125/125/125
f 128/128/128 127/127/127 126/126/126
f 128/128/128 129/129/129 127/127/127
f 130/130/130 129/129/129 128/128/128
f 130/130/130 131/131/131 129/129/129
f 132/132/132 131/131/131 130/130/130
f 132/132/132 133/133/133 131/131/131
f 134/134/134 133/133/133 132/132/132
f 134/134/134 132/132/132 135/135/135
f 136/136/136 134/134/134 135/135/135
f 136/136/136 135/135/135 137/137/137
f 138/138/138 136/136/136 137/137/137
f 138/138/138 137/137/137 139/139/139
f 140/140/140 138/138/138 139/139/139
f 140/140/140 139/139/139 141/141/141
f 142/142/142 140/140/140 141/141/141
f 142/142/142 141/141/141 143/143/143
f 144/144/144 142/142/142 143/143/143
f 144/144/144 143/143/143 145/145/145
f 146/146/146 144/144/144 145/145/145
f 146/146/146 145/145/145 147/147/147
f 148/148/148 146/146/146 147/147/147
f 148/148/148 147/147/147 149/149/149
f 150/150/150 148/148/148 149/149/149
f 150/150/150 149/149/149 151/151/151
f 152/152/152 150/150/150 151/151/151
f 152/152/152 151/151/151 153/153/153
f 154/154/154 152/152/152 153/153/153
f 154/154/154 153/153/153 155/155/155
f 156/156/156 154/154/154 155/155/155
f 156/156/156 155/155/155 157/157/157
f 158/158/158 156/156/156 157/157/157
f 158/158/158 157/157/157 159/159/159
f 160/160/160 158/158/158 159/159/159
f 160/160/160 159/159/159 161/161/161
f 162/162/162 160/160/160 161/161/161
f 163/163/163 149/149/149 147/147/147
f 164/164/164 163/163/163 147/147/147
f 163/163/163 165/165/165 149/149/149
f 164/164/164 147/147/147 145/145/145
f 165/165/165 151/151/151 149/149/149
f 166/166/166 164/164/164 145/145/145
f 165/165/165 167/167/167 151/151/151
f 166/166/166 145/145/145 143/143/143
f 167/167/167 153/153/153 151/151/151
f 168/168/168 166/166/166 143/143/143
f 167/167/167 169/169/169 153/153/153
f 168/168/168 143/143/143 141/141/141
f 169/169/169 170/170/170 153/153/153
f 171/171/171 168/168/168 141/141/141
f 169/169/169 172/172/172 170/170/170
f 171/171/171 141/141/141 139/139/139
f 172/172/172 173/173/173 170/170/170
f 174/174/174 171/171/171 139/139/139
f 172/172/172 175/175/175 173/173/173
f 174/174/174 139/139/139 137/137/137
f 175/175/175 176/176/176 173/173/173
f 177/177/177 174/174/174 137/137/137
f 175/175/175 178/178/178 176/176/176
f 177/177/177 137/137/137 135/135/135
f 179/179/179 177/177/177 135/135/135
f 179/179/179 135/135/135 180/180/180
f 178/178/178 161/161/161 176/176/176
f 181/181/181 179/179/179 180/180/180
f 181/181/181 180/180/180 182/182/182
f 181/181/181 182/182/182 183/183/183
f 181/181/181 183/183/183 184/184/184
f 184/184/184 183/183/183 185/185/185
f 184/184/184 185/185/185 186/186/186
f 186/186/186 185/185/185 187/187/187
f 186/186/186 187/187/187 188/188/188
f 188/188/188 187/187/187 189/189/189
f 188/188/188 189/189/189 190/190/190
f 190/190/190 189/189/189 191/191/191
f 190/190/190 191/191/191 192/192/192
f 192/192/192 191/191/191 193/193/193
f 192/192/192 193/193/193 194/194/194
f 194/194/194 193/193/193 195/195/195
f 194/194/194 195/195/195 196/196/196
f 196/196/196 195/195/195 197/197/197
f 196/196/196 197/197/197 198/198/198
f 198/198/198 197/197/197 199/199/199
f 198/198/198 199/199/199 200/200/200
f 201/201/201 200/200/200 199/199/199
f 201/201/201 199/199/199 202/202/202
f 203/203/203 201/201/201 202/202/202
f 203/203/203 202/202/202 204/204/204
f 207/207/207 206/206/206 205/205/205
f 207/207/207 205/205/205 208/208/208
f 209/209/209 207/207/207 208/208/208
f 208/208/208 205/205/205 210/210/210
f 209/209/209 208/208/208 211/211/211
f 208/208/208 210/210/210 212/212/212
f 211/211/211 208/208/208 212/212/212
f 212/212/212 210/210/210 162/162/162
f 211/211/211 212/212/212 213/213/213
f 212/212/212 162/162/162 214/214/214
f 213/213/213 212/212/212 214/214/214
f 213/213/213 214/214/214 215/215/215
f 162/162/162 161/161/161 214/214/214
f 215/215/215 214/214/214 161/161/161
f 215/215/215 161/161/161 216/216/216
f 178/178/178 216/216/216 161/161/161
f 219/219/219 218/218/218 217/217/217
f 219/219/219 220/220/220 218/218/218
f 221/221/221 220/220/220 219/219/219
f 221/221/221 222/222/222 220/220/220
f 223/223/223 222/222/222 221/221/221
f 223/223/223 224/224/224 222/222/222
f 225/225/225 224/224/224 223/223/223
f 225/225/225 226/226/226 224/224/224
f 227/227/227 226/226/226 225/225/225
f 227/227/227 228/228/228 226/226/226
f 229/229/229 228/228/228 227/227/227
f 229/229/229 230/230/230 228/228/228
f 231/231/231 230/230/230 229/229/229
f 231/231/231 232/232/232 230/230/230
f 233/233/233 232/232/232 231/231/231
f 233/233/233 234/234/234 232/232/232
f 235/235/235 234/234/234 233/233/233
f 235/235/235 236/236/236 234/234/234
f 237/237/237 236/236/236 235/235/235
f 237/237/237 238/238/238 236/236/236
f 239/239/239 238/238/238 237/237/237
f 239/239/239 240/240/240 238/238/238
f 241/241/241 240/240/240 239/239/239
f 241/241/241 242/242/242 240/240/240
f 243/243/243 242/242/242 241/241/241
f 243/243/243 244/244/244 242/242/242
f 245/245/245 244/244/244 243/243/243
f 245/245/245 246/246/246 244/244/244
f 247/247/247 246/246/246 245/245/245
f 247/247/247 248/248/248 246/246/246
f 249/249/249 248/248/248 247/247/247
f 249/249/249 250/250/250 248/248/248
f 251/251/251 250/250/250 249/249/249
f 251/251/251 252/252/252 250/250/250
f 253/253/253 252/252/252 251/251/251
f 253/253/253 254/254/254 252/252/252
f 255/255/255 254/254/254 253/253/253
f 255/255/255 256/256/256 254/254/254
f 257/257/257 256/256/256 255/255/255
f 257/257/257 258/258/258 256/256/256
f 259/259/259 258/258/258 257/257/257
f 259/259/259 260/260/260 258/258/258
f 261/261/261 260/260/260 259/259/259
f 261/261/261 262/262/262 260/260/260
f 263/263/263 262/262/262 261/261/261
f 263/263/263 264/264/264 262/262/262
f 265/265/265 264/264/264 263/263/263
f 265/265/265 266/266/266 264/264/264
f 267/267/267 266/266/266 265/265/265
f 267/267/267 268/268/268 266/266/266
f 269/269/269 268/268/268 267/267/267
f 269/269/269 270/270/270 268/268/268
f 271/271/271 270/270/270 269/269/269
f 271/271/271 272/272/272 270/270/270
f 273/273/273 272/272/272 271/271/271
f 273/273/273 274/274/274 272/272/272
f 275/275/275 274/274/274 273/273/273
f 275/275/275 276/276/276 274/274/274
f 277/277/277 276/276/276 275/275/275
f 277/277/277 278/278/278 276/276/276
f 279/279/279 277/277/277 275/275/275
f 279/279/279 275/275/275 280/280/280
f 280/280/280 275/275/275 273/273/273
f 280/280/280 273/273/273 281/281/281
f 281/281/281 273/273/273 271/271/271
f 281/281/281 271/271/271 282/282/282
f 282/282/282 271/271/271 269/269/269
f 282/282/282 269/269/269 283/283/283
f 283/283/283 269/269/269 267/267/267
f 283/283/283 267/267/267 284/284/284
f 284/284/284 267/267/267 265/265/265
f 284/284/284 265/265/265 285/285/285
f 285/285/285 265/265/265 263/263/263
f 285/285/285 263/263/263 286/286/286
f 286/286/286 263/263/263 261/261/261
f 286/286/286 261/261/261 287/287/287
f 287/287/287 261/261/261 259/259/259
f 287/287/287 259/259/259 288/288/288
f 288/288/288 259/259/259 257/257/257
f 288/288/288 257/257/257 289/289/289
f 289/289/289 257/257/257 255/255/255
f 289/289/289 255/255/255 290/290/290
f 290/290/290 255/255/255 253/253/253
f 290/290/290 253/253/253 291/291/291
f 291/291/291 253/253/253 251/251/251
f 291/291/291 251/251/251 292/292/292
f 292/292/292 251/251/251 249/249/249
f 292/292/292 249/249/249 293/293/293
f 293/293/293 249/249/249 247/247/247
f 293/293/293 247/247/247 294/294/294
f 294/294/294 247/247/247 295/295/295
f 294/294/294 295/295/295 296/296/296
f 296/296/296 295/295/295 297/297/297
f 296/296/296 297/297/297 298/298/298
f 298/298/298 297/297/297 299/299/299
f 298/298/298 299/299/299 300/300/300
f 300/300/300 299/299/299 301/301/301
f 300/300/300 301/301/301 302/302/302
f 302/302/302 301/301/301 303/303/303
f 302/302/302 303/303/303 304/304/304
f 304/304/304 303/303/303 305/305/305
f 304/304/304 305/305/305 306/306/306
f 306/306/306 305/305/305 307/307/307
f 306/306/306 307/307/307 308/308/308
f 308/308/308 307/307/307 309/309/309
f 308/308/308 309/309/309 310/310/310
f 310/310/310 309/309/309 311/311/311
f 310/310/310 311/311/311 312/312/312
f 312/312/312 311/311/311 313/313/313
f 312/312/312 313/313/313 314/314/314
f 314/314/314 313/313/313 315/315/315
f 314/314/314 315/315/315 316/316/316
f 316/316/316 315/315/315 317/317/317
f 316/316/316 317/317/317 318/318/318
f 318/318/318 317/317/317 319/319/319
f 318/318/318 319/319/319 320/320/320
f 320/320/320 319/319/319 321/321/321
f 320/320/320 321/321/321 322/322/322
f 322/322/322 321/321/321 323/323/323
f 322/322/322 323/323/323 324/324/324
f 327/327/327 326/326/326 325/325/325
f 327/327/327 328/328/328 326/326/326
f 329/329/329 328/328/328 327/327/327
f 329/329/329 330/330/330 328/328/328
f 331/331/331 330/330/330 329/329/329
f 331/331/331 332/332/332 330/330/330
f 333/333/333 332/332/332 331/331/331
f 333/333/333 334/334/334 332/332/332
f 335/335/335 334/334/334 333/333/333
f 335/335/335 336/336/336 334/334/334
f 337/337/337 336/336/336 335/335/335
f 337/337/337 338/338/338 336/336/336
f 339/339/339 338/338/338 337/337/337
f 339/339/339 340/340/340 338/338/338
f 341/341/341 340/340/340 339/339/339
f 341/341/341 342/342/342 340/340/340
f 343/343/343 342/342/342 341/341/341
f 343/343/343 344/344/344 342/342/342
f 345/345/345 344/344/344 343/343/343
f 345/345/345 346/346/346 344/344/344
f 347/347/347 346/346/346 345/345/345
f 347/347/347 348/348/348 346/346/346
f 349/349/349 348/348/348 347/347/347
f 349/349/349 350/350/350 348/348/348
f 351/351/351 350/350/350 349/349/349
f 351/351/351 352/352/352 350/350/350
f 353/353/353 352/352/352 351/351/351
f 353/353/353 354/354/354 352/352/352
f 355/355/355 354/354/354 353/353/353
f 355/355/355 356/356/356 354/354/354
f 357/357/357 356/356/356 355/355/355
f 357/357/357 358/358/358 356/356/356
f 359/359/359 358/358/358 357/357/357
f 359/359/359 360/360/360 358/358/358
f 361/361/361 360/360/360 359/359/359
f 361/361/361 362/362/362 360/360/360
f 363/363/363 362/362/362 361/361/361
f 363/363/363 364/364/364 362/362/362
f 365/365/365 364/364/364 363/363/363
f 365/365/365 366/366/366 364/364/364
f 367/367/367 366/366/366 365/365/365
f 367/367/367 368/368/368 366/366/366
f 369/369/369 368/368/368 367/367/367
f 369/369/369 370/370/370 368/368/368
f 371/371/371 370/370/370 369/369/369
f 371/371/371 372/372/372 370/370/370
f 373/373/373 372/372/372 371/371/371
f 373/373/373 374/374/374 372/372/372
f 375/375/375 374/374/374 373/373/373
f 375/375/375 376/376/376 374/374/374
f 377/377/377 376/376/376 375/375/375
f 377/377/377 378/378/378 376/376/376
f 379/379/379 378/378/378 377/377/377
f 379/379/379 380/380/380 378/378/378
f 381/381/381 380/380/380 379/379/379
f 381/381/381 382/382/382 380/380/380
f 383/383/383 382/382/382 381/381/381
f 383/383/383 384/384/384 382/382/382
f 385/385/385 384/384/384 383/383/383
f 385/385/385 386/386/386 384/384/384
f 387/387/387 385/385/385 383/383/383
f 387/387/387 383/383/383 388/388/388
f 388/388/388 383/383/383 381/381/381
f 388/388/388 381/381/381 389/389/389
f 389/389/389 381/381/381 379/379/379
f 389/389/389 379/379/379 390/390/390
f 390/390/390 379/379/379 377/377/377
f 390/390/390 377/377/377 391/391/391
f 391/391/391 377/377/377 375/375/375
f 391/391/391 375/375/375 392/392/392
f 392/392/392 375/375/375 373/373/373
f 392/392/392 373/373/373 393/393/393
f 393/393/393 373/373/373 371/371/371
f 393/393/393 371/371/371 394/394/394
f 394/394/394 371/371/371 369/369/369
f 394/394/394 369/369/369 395/395/395
f 395/395/395 369/369/369 367/367/367
f 395/395/395 367/367/367 396/396/396
f 396/396/396 367/367/367 365/365/365
f 396/396/396 365/365/365 397/397/397
f 397/397/397 365/365/365 363/363/363
f 397/397/397 363/363/363 398/398/398
f 398/398/398 363/363/363 399/399/399
f 398/398/398 399/399/399 400/400/400
f 400/400/400 399/399/399 401/401/401
f 400/400/400 401/401/401 402/402/402
f 402/402/402 401/401/401 403/403/403
f 402/402/402 403/403/403 404/404/404
f 404/404/404 403/403/403 405/405/405
f 404/404/404 405/405/405 406/406/406
f 406/406/406 405/405/405 407/407/407
f 406/406/406 407/407/407 408/408/408
f 408/408/408 407/407/407 409/409/409
f 408/408/408 409/409/409 410/410/410
f 410/410/410 409/409/409 411/411/411
f 410/410/410 411/411/411 412/412/412
f 412/412/412 411/411/411 413/413/413
f 412/412/412 413/413/413 414/414/414
f 414/414/414 413/413/413 415/415/415
f 414/414/414 415/415/415 416/416/416
f 416/416/416 415/415/415 417/417/417
f 416/416/416 417/417/417 418/418/418
f 418/418/418 417/417/417 419/419/419
f 418/418/418 419/419/419 420/420/420
f 420/420/420 419/419/419 421/421/421
f 420/420/420 421/421/421 422/422/422
f 422/422/422 421/421/421 423/423/423
f 422/422/422 423/423/423 424/424/424
f 424/424/424 423/423/423 425/425/425
f 424/424/424 425/425/425 426/426/426
f 426/426/426 425/425/425 427/427/427
f 426/426/426 427/427/427 428/428/428
f 428/428/428 427/427/427 429/429/429
f 428/428/428 429/429/429 430/430/430
f 430/430/430 429/429/429 431/431/431
f 430/430/430 431/431/431 432/432/432
f 432/432/432 431/431/431 433/433/433
f 432/432/432 433/433/433 434/434/434
f 435/435/435 434/434/434 433/433/433
f 435/435/435 433/433/433 436/436/436
f 439/439/439 438/438/438 437/437/437
f 439/439/439 440/440/440 438/438/438
f 441/441/441 440/440/440 439/439/439
f 441/441/441 442/442/442 440/440/440
f 443/443/443 442/442/442 441/441/441
f 443/443/443 444/444/444 442/442/442
f 445/445/445 444/444/444 443/443/443
f 445/445/445 446/446/446 444/444/444
f 447/447/447 446/446/446 445/445/445
f 447/447/447 448/448/448 446/446/446
f 449/449/449 448/448/448 447/447/447
f 449/449/449 450/450/450 448/448/448
f 451/451/451 450/450/450 449/449/449
f 451/451/451 452/452/452 450/450/450
f 453/453/453 452/452/452 451/451/451
f 453/453/453 454/454/454 452/452/452
f 455/455/455 454/454/454 453/453/453
f 455/455/455 456/456/456 454/454/454
f 457/457/457 456/456/456 455/455/455
f 457/457/457 458/458/458 456/456/456
f 459/459/459 458/458/458 457/457/457
f 459/459/459 460/460/460 458/458/458
f 461/461/461 460/460/460 459/459/459
f 461/461/461 462/462/462 460/460/460
f 463/463/463 462/462/462 461/461/461
f 463/463/463 464/464/464 462/462/462
f 465/465/465 464/464/464 463/463/463
f 465/465/465 466/466/466 464/464/464
f 467/467/467 466/466/466 465/465/465
f 467/467/467 468/468/468 466/466/466
f 469/469/469 468/468/468 467/467/467
f 469/469/469 470/470/470 468/468/468
f 471/471/471 470/470/470 469/469/469
f 471/471/471 472/472/472 470/470/470
f 473/473/473 472/472/472 471/471/471
f 473/473/473 474/474/474 472/472/472
f 475/475/475 474/474/474 473/473/473
f 475/475/475 476/476/476 474/474/474
f 477/477/477 476/476/476 475/475/475
f 477/477/477 478/478/478 476/476/476
f 479/479/479 478/478/478 477/477/477
f 479/479/479 480/480/480 478/478/478
f 481/481/481 480/480/480 479/479/479
f 481/481/481 482/482/482 480/480/480
f 483/483/483 482/482/482 481/481/481
f 483/483/483 484/484/484 482/482/482
f 485/485/485 484/484/484 483/483/483
f 485/485/485 486/486/486 484/484/484
f 487/487/487 486/486/486 485/485/485
f 487/487/487 488/488/488 486/486/486
f 489/489/489 488/488/488 487/487/487
f 489/489/489 490/490/490 488/488/488
f 491/491/491 490/490/490 489/489/489
f 491/491/491 492/492/492 490/490/490
f 493/493/493 492/492/492 491/491/491
f 493/493/493 494/494/494 492/492/492
f 495/495/495 494/494/494 493/493/493
f 495/495/495 496/496/496 494/494/494
f 497/497/497 496/496/496 495/495/495
f 497/497/497 498/498/498 496/496/496
f 499/499/499 497/497/497 495/495/495
f 499/499/499 495/495/495 500/500/500
f 500/500/500 495/495/495 493/493/493
f 500/500/500 493/493/493 501/501/501
f 501/501/501 493/493/493 491/491/491
f 501/501/501 491/491/491 502/502/502
f 502/502/502 491/491/491 489/489/489
f 502/502/502 489/489/489 503/503/503
f 503/503/503 489/489/489 487/487/487
f 503/503/503 487/487/487 504/504/504
f 504/504/504 487/487/487 485/485/485
f 504/504/504 485/485/485 505/505/505
f 505/505/505 485/485/485 483/483/483
f 505/505/505 483/483/483 506/506/506
f 506/506/506 483/483/483 481/481/481
f 506/506/506 481/481/481 507/507/507
f 507/507/507 481/481/481 479/479/479
f 507/507/507 479/479/479 508/508/508
f 508/508/508 479/479/479 477/477/477
f 508/508/508 477/477/477 509/509/509
f 509/509/509 477/477/477 475/475/475
f 509/509/509 475/475/475 510/510/510
f 510/510/510 475/475/475 473/473/473
f 510/510/510 473/473/473 511/511/511
f 511/511/511 473/473/473 471/471/471
f 511/511/511 471/471/471 512/512/512
f 512/512/512 471/471/471 513/513/513
f 512/512/512 513/513/513 514/514/514
f 514/514/514 513/513/513 515/515/515
f 514/514/514 515/515/515 516/516/516
f 516/516/516 515/515/515 517/517/517
f 516/516/516 517/517/517 518/518/518
f 518/518/518 517/517/517 519/519/519
f 518/518/518 519/519/519 520/520/520
f 520/520/520 519/519/519 521/521/521
f 520/520/520 521/521/521 522/522/522
f 522/522/522 521/521/521 523/523/523
f 522/522/522 523/523/523 524/524/524
f 524/524/524 523/523/523 525/525/525
f 524/524/524 525/525/525 526/526/526
f 526/526/526 525/525/525 527/527/527
f 526/526/526 527/527/527 528/528/528
f 528/528/528 527/527/527 529/529/529
f 528/528/528 529/529/529 530/530/530
f 530/530/530 529/529/529 531/531/531
f 530/530/530 531/531/531 532/532/532
f 532/532/532 531/531/531 533/533/533
f 532/532/532 533/533/533 534/534/534
f 534/534/534 533/533/533 535/535/535
f 534/534/534 535/535/535 536/536/536
f 536/536/536 535/535/535 537/537/537
f 536/536/536 537/537/537 538/538/538
f 539/539/539 538/538/538 537/537/537
f 539/539/539 537/537/537 540/540/540
f 541/541/541 539/539/539 540/540/540
f 541/541/541 540/540/540 542/542/542
f 543/543/543 541/541/541 542/542/542
f 543/543/543 542/542/542 544/544/544
f 545/545/545 543/543/543 544/544/544
f 545/545/545 544/544/544 546/546/546
f 549/549/549 548/548/548 547/547/547
f 549/549/549 550/550/550 548/548/548
f 551/551/551 550/550/550 549/549/549
f 551/551/551 552/552/552 550/550/550
f 553/553/553 552/552/552 551/551/551
f 553/553/553 554/554/554 552/552/552
f 555/555/555 554/554/554 553/553/553
f 555/555/555 556/556/556 554/554/554
f 557/557/557 556/556/556 555/555/555
f 557/557/557 558/558/558 556/556/556
f 559/559/559 558/558/558 557/557/557
f 559/559/559 560/560/560 558/558/558
f 561/561/561 560/560/560 559/559/559
f 561/561/561 562/562/562 560/560/560
f 563/563/563 562/562/562 561/561/561
f 563/563/563 564/564/564 562/562/562
f 565/565/565 564/564/564 563/563/563
f 565/565/565 566/566/566 564/564/564
f 567/567/567 566/566/566 565/565/565
f 567/567/567 568/568/568 566/566/566
f 569/569/569 568/568/568 567/567/567
f 569/569/569 570/570/570 568/568/568
f 571/571/571 570/570/570 569/569/569
f 571/571/571 572/572/572 570/570/570
f 573/573/573 572/572/572 571/571/571
f 573/573/573 574/574/574 572/572/572
f 575/575/575 574/574/574 573/573/573
f 575/575/575 573/573/573 576/576/576
f 577/577/577 575/575/575 576/576/576
f 577/577/577 576/576/576 578/578/578
f 579/579/579 577/577/577 578/578/578
f 579/579/579 578/578/578 580/580/580
f 581/581/581 579/579/579 580/580/580
f 581/581/581 580/580/580 582/582/582
f 583/583/583 581/581/581 582/582/582
f 583/583/583 582/582/582 584/584/584
f 585/585/585 583/583/583 584/584/584
f 585/585/585 584/584/584 586/586/586
f 587/587/587 585/585/585 586/586/586
f 587/587/587 586/586/586 588/588/588
f 589/589/589 587/587/587 588/588/588
f 589/589/589 588/588/588 590/590/590
f 591/591/591 589/589/589 590/590/590
f 591/591/591 590/590/590 592/592/592
f 593/593/593 591/591/591 592/592/592
f 593/593/593 592/592/592 594/594/594
f 595/595/595 593/593/593 594/594/594
f 595/595/595 594/594/594 596/596/596
f 597/597/597 595/595/595 596/596/596
f 597/597/597 596/596/596 598/598/598
f 599/599/599 597/597/597 598/598/598
f 599/599/599 598/598/598 600/600/600
f 601/601/601 599/599/599 600/600/600
f 601/601/601 600/600/600 602/602/602
f 603/603/603 601/601/601 602/602/602
f 604/604/604 590/590/590 588/588/588
f 605/605/605 604/604/604 588/588/588
f 604/604/604 606/606/606 590/590/590
f 605/605/605 588/588/588 586/586/586
f 606/606/606 607/607/607 590/590/590
f 608/608/608 605/605/605 586/586/586
f 606/606/606 609/609/609 607/607/607
f 608/608/608 586/586/586 584/584/584
f 609/609/609 610/610/610 607/607/607
f 611/611/611 608/608/608 584/584/584
f 609/609/609 612/612/612 610/610/610
f 611/611/611 584/584/584 582/582/582
f 612/612/612 613/613/613 610/610/610
f 614/614/614 611/611/611 582/582/582
f 612/612/612 615/615/615 613/613/613
f 614/614/614 582/582/582 616/616/616
f 615/615/615 617/617/617 613/613/613
f 618/618/618 614/614/614 616/616/616
f 615/615/615 619/619/619 617/617/617
f 618/618/618 616/616/616 620/620/620
f 621/621/621 618/618/618 620/620/620
f 621/621/621 620/620/620 622/622/622
f 623/623/623 621/621/621 622/622/622
f 623/623/623 622/622/622 624/624/624
f 619/619/619 625/625/625 617/617/617
f 619/619/619 626/626/626 625/625/625
f 627/627/627 625/625/625 626/626/626
f 628/628/628 623/623/623 624/624/624
f 628/628/628 624/624/624 629/629/629
f 628/628/628 629/629/629 630/630/630
f 628/628/628 630/630/630 631/631/631
f 631/631/631 630/630/630 632/632/632
f 631/631/631 632/632/632 633/633/633
f 633/633/633 632/632/632 634/634/634
f 633/633/633 634/634/634 635/635/635
f 635/635/635 634/634/634 636/636/636
f 635/635/635 636/636/636 637/637/637
f 637/637/637 636/636/636 638/638/638
f 637/637/637 638/638/638 639/639/639
f 639/639/639 638/638/638 640/640/640
f 639/639/639 640/640/640 641/641/641
f 641/641/641 640/640/640 642/642/642
f 641/641/641 642/642/642 643/643/643
f 643/643/643 642/642/642 644/644/644
f 643/643/643 644/644/644 645/645/645
f 645/645/645 644/644/644 646/646/646
f 645/645/645 646/646/646 647/647/647
f 647/647/647 646/646/646 648/648/648
f 647/647/647 648/648/648 649/649/649
f 649/649/649 648/648/648 650/650/650
f 649/649/649 650/650/650 651/651/651
f 652/652/652 651/651/651 650/650/650
f 652/652/652 650/650/650 653/653/653
f 656/656/656 655/655/655 654/654/654
f 656/656/656 654/654/654 657/657/657
f 658/658/658 656/656/656 657/657/657
f 657/657/657 654/654/654 603/603/603
f 658/658/658 657/657/657 659/659/659
f 657/657/657 603/603/603 660/660/660
f 659/659/659 657/657/657 660/660/660
f 659/659/659 660/660/660 661/661/661
f 603/603/603 602/602/602 660/660/660
f 661/661/661 660/660/660 602/602/602
f 661/661/661 602/602/602 627/627/627
f 627/627/627 602/602/602 625/625/625
