g Md_CMN_SpiralCorn_00
v 0.0012140572 0.00021395832 0
v 0.0012328029 -8.918655E-08 0
v 0.022172064 -0.044961665 0.05000001
v 0.014027774 -0.048128743 0.05000001
v 0.0012140572 -0.00021413714 0
v 0.026984334 -0.09350407 0.10000002
v 0.0054572225 -0.04983343 0.05000001
v 0.0011584461 -0.00042168796 0
v 0.010337681 -0.09676936 0.10000002
v 0.01580441 -0.14113379 0.15000004
v -0.0032791793 -0.050023966 0.05000001
v 0.0010676384 -0.00061643124 0
v -0.0066231787 -0.09709431 0.10000002
v -0.0089432 -0.14173412 0.15000004
v -0.010731906 -0.18401146 0.20000003
v -0.011915892 -0.04869455 0.05000001
v 0.0009444058 -0.00079244375 0
v -0.02338281 -0.0944691 0.10000002
v -0.03341919 -0.13802786 0.15000004
v -0.04252201 -0.17935248 0.20000003
v -0.051506426 -0.21873797 0.25000006
v -0.020190567 -0.045885563 0.05000001
v 0.00079247355 -0.000944376 0
v -0.03943193 -0.08897349 0.10000002
v -0.05687973 -0.1301277 0.15000004
v -0.07302022 -0.16924378 0.20000003
v -0.08870726 -0.20647104 0.25000006
v -0.10491869 -0.24235433 0.30000004
v -0.02785176 -0.04168239 0.05000001
v 0.00061646104 -0.0010676086 0
v -0.05428296 -0.080774456 0.10000002
v -0.07861206 -0.118273675 0.15000004
v -0.10129973 -0.15399276 0.20000003
v -0.123212926 -0.1879304 0.25000006
v -0.14540905 -0.22045374 0.30000004
v -0.16888592 -0.25234175 0.35000002
v -0.034666702 -0.03621271 0.05000001
v 0.00042171776 -0.0011584163 0
v -0.06748459 -0.07012117 0.10000002
v -0.097955756 -0.102825955 0.15000004
v -0.12650129 -0.1340627 0.20000003
v -0.1539748 -0.16367956 0.25000006
v -0.1814813 -0.19185449 0.30000004
v -0.2101388 -0.21918167 0.35000002
v -0.24084309 -0.24662161 0.40000004
v -0.04042828 -0.02964273 0.05000001
v 0.00021416694 -0.0012140274 0
v -0.07863577 -0.057337284 0.10000002
v -0.11432311 -0.08425394 0.15000004
v -0.1478592 -0.11005923 0.20000003
v -0.18005821 -0.13445543 0.25000006
v -0.21203937 -0.15742585 0.30000004
v -0.24500678 -0.17936155 0.35000002
v -0.04496148 -0.022172064 0.05000001
v 1.1873172E-07 -0.0012327731 0
v -0.087397605 -0.04281121 0.10000002
v -0.12721683 -0.063121915 0.15000004
v -0.16472445 -0.0827117 0.20000003
v -0.20067066 -0.10114592 0.25000006
v -0.2361547 -0.11821389 0.30000004
v -0.048128534 -0.014027715 0.05000001
v -0.00021393597 -0.0012140274 0
v -0.09350389 -0.026984362 0.10000002
v -0.1362451 -0.040071934 0.15000004
v -0.17658465 -0.05285096 0.20000003
v -0.2151858 -0.06476319 0.25000006
v -0.049833227 -0.005457163 0.05000001
v -0.00042147934 -0.0011584163 0
v -0.09676914 -0.010337591 0.10000002
v -0.14113364 -0.01580441 0.15000004
v -0.18307939 -0.021384418 0.20000003
v -0.050023753 0.0032792091 0.05000001
v -0.0006162226 -0.0010676086 0
v -0.09709409 0.006623268 0.10000002
v -0.14173388 0.008943319 0.15000004
v -0.048694342 0.011915952 0.05000001
v -0.00079223514 -0.000944376 0
v -0.09446888 0.023382872 0.10000002
v -0.04588535 0.020190625 0.05000001
v -0.0009441674 -0.00079244375 0
v -0.041682184 0.02785182 0.05000001
v -0.08897326 0.03943202 0.10000002
v -0.08077425 0.054283023 0.10000002
v -0.07012093 0.06748467 0.10000002
v -0.13802764 0.03341931 0.15000004
v -0.18401134 0.010731906 0.20000003
v -0.13012746 0.05687985 0.15000004
v -0.102825716 0.09795585 0.15000004
v -0.0842537 0.11432319 0.15000004
v -0.11827344 0.07861212 0.15000004
v -0.17935221 0.042522132 0.20000003
v -0.11005896 0.14785928 0.20000003
v -0.08271143 0.16472451 0.20000003
v -0.16924354 0.07302034 0.20000003
v -0.13406245 0.12650141 0.20000003
v -0.1539925 0.101299845 0.20000003
v -0.101145655 0.20067072 0.25000006
v -0.06476288 0.21518588 0.25000006
v -0.13445514 0.18005832 0.25000006
v -0.16367929 0.15397492 0.25000006
v -0.1879301 0.12321305 0.25000006
v -0.20647076 0.08870739 0.25000006
v -0.075409785 0.25309467 0.30000004
v -0.030314684 0.26234442 0.30000004
v -0.118213594 0.23615476 0.30000004
v -0.15742551 0.2120395 0.30000004
v -0.19185416 0.18148142 0.30000004
v -0.032827795 0.3018629 0.35000002
v 0.020088881 0.30297744 0.35000002
v -0.084747046 0.29157636 0.35000002
v -0.13409127 0.2724305 0.35000002
v 0.025971502 0.3437342 0.40000004
v 0.08526575 0.33400226 0.40000004
v -0.034111917 0.34302196 0.40000004
v 0.09970686 0.37549463 0.45000002
v 0.16339605 0.35247612 0.45000002
v -0.2204534 0.14540917 0.30000004
v -0.17936118 0.24500692 0.35000002
v -0.09315883 0.3318872 0.40000004
v 0.03298807 0.3871039 0.45000002
v 0.18644458 0.39395735 0.50000006
v 0.25202215 0.35559654 0.50000006
v -0.21918128 0.2101389 0.35000002
v -0.14937517 0.3106682 0.40000004
v -0.034732997 0.38695124 0.45000002
v 0.11520206 0.42034802 0.50000006
v 0.2835986 0.39596277 0.55
v 0.3480484 0.3407009 0.55
v -0.20105281 0.28000963 0.40000004
v -0.101398714 0.37504122 0.45000002
v 0.040459212 0.43396658 0.50000006
v 0.21053186 0.43919364 0.55
v 0.38793066 0.37837845 0.6
v 0.44774193 0.30526668 0.6
v -0.16498348 0.3517357 0.45000002
v -0.03551299 0.43439928 0.50000006
v 0.1310682 0.4690797 0.55
v 0.31633234 0.43999347 0.6
v 0.49554974 0.33809906 0.65
v 0.5467316 0.24691127 0.65
v -0.11040614 0.42163298 0.50000006
v 0.04762211 0.48471305 0.55
v 0.23512247 0.48823947 0.6
v 0.42931092 0.41901383 0.65
v 0.6019127 0.2720463 0.70000005
v 0.6400087 0.16339234 0.70000005
v -0.037270945 0.48561865 0.55
v 0.14676848 0.5216507 0.6
v 0.35002768 0.4871971 0.65
v 0.5455279 0.3724344 0.70000005
v 0.70182365 0.17716956 0.75
v 0.72192657 0.052607592 0.75
v 0.053955015 0.53921163 0.6
v 0.26010907 0.5405772 0.65
v 0.47256747 0.46150622 0.70000005
v 0.66039604 0.2963483 0.75
v 0.7894348 0.050444454 0.8000001
v 0.78620106 -0.08740583 0.8000001
v 0.16228713 0.57753193 0.65
v 0.38524836 0.5365553 0.70000005
v 0.5989028 0.4065227 0.75
v 0.7686818 0.186762 0.8000001
v 0.85824543 -0.11112502 0.84999996
v 0.82591015 -0.25846952 0.84999996
v 0.2862237 0.5953015 0.70000005
v 0.5192121 0.50434506 0.75
v 0.7245729 0.3174049 0.8000001
v 0.8645034 0.039595988 0.84999996
v 0.9011028 -0.3105091 0.90000004
v 0.83349377 -0.46226665 0.90000004
v 0.42374548 0.58684313 0.75
v 0.65844816 0.43840355 0.8000001
v 0.8444937 0.18911389 0.84999996
v 0.9413323 -0.14931688 0.90000004
v 0.9102016 -0.55064917 0.95000005
v 0.80075455 -0.7003385 0.95000005
v 0.8770842 -0.83446074 1
v 0.71885693 -0.9740876 1
v 1.008662 -0.6694792 1
v 0.9919928 -0.38422862 0.95000005
v 1.1095921 -0.484156 1
v 1.0436429 -0.20613357 0.95000005
v 1.1768076 -0.28412196 1
v 0.95296 0.016412258 0.90000004
v 1.0635823 -0.021775274 0.95000005
v 1.2082665 -0.075455 1
v 0.9356323 0.18164264 0.90000004
v 1.0512053 0.16324466 0.95000005
v 1.2030127 0.13550463 1
v 0.79882467 0.33288562 0.84999996
v 0.889876 0.341354 0.90000004
v 1.0068878 0.34330449 0.95000005
v 1.1612061 0.34234703 1
v 0.72888374 0.46654272 0.84999996
v 0.8170813 0.49069342 0.90000004
v 0.93197674 0.51293325 0.95000005
v 1.0841168 0.5387874 1
v 0.57231694 0.54608154 0.8000001
v 0.6367959 0.5860243 0.84999996
v 0.7194599 0.6251234 0.90000004
v 0.8287479 0.66697675 0.95000005
v 0.9740871 0.71885693 1
v 0.46879596 0.6371671 0.8000001
v 0.5253595 0.6876998 0.84999996
v 0.59997815 0.7405593 0.90000004
v 0.70033795 0.80075437 0.95000005
v 0.83446026 0.8770843 1
v 0.31540355 0.65151036 0.75
v 0.35103095 0.70889264 0.8000001
v 0.39796028 0.76847976 0.84999996
v 0.46226624 0.83349353 0.90000004
v 0.5506487 0.9102015 0.95000005
v 0.6694788 1.0086621 1
v 0.17850223 0.63595974 0.70000005
v 0.19747823 0.6963817 0.75
v 0.22260004 0.7590788 0.8000001
v 0.2584692 0.8259099 0.84999996
v 0.31050867 0.9011026 0.90000004
v 0.3842282 0.9919927 0.95000005
v 0.4841555 1.1095922 1
v 0.059534203 0.59693885 0.65
v 0.06535709 0.65729463 0.70000005
v 0.07355262 0.7200937 0.75
v 0.08740552 0.7862008 0.8000001
v 0.111124665 0.8582451 0.84999996
v 0.14931646 0.94133204 0.90000004
v 0.2061331 1.0436428 0.95000005
v 0.2841214 1.1768076 1
v 0.02177471 1.0635822 0.95000005
v 0.075454354 1.2082665 1
v -0.016412705 0.9529597 0.90000004
v -0.039596345 0.864503 0.84999996
v -0.05044475 0.7894343 0.8000001
v -0.05260783 0.7219261 0.75
v -0.16324526 1.0512052 0.95000005
v -0.13550428 1.203012 1
v -0.34330407 1.0068873 0.95000005
v -0.18164317 0.93563217 0.90000004
v -0.3413545 0.88987577 0.90000004
v -0.490693 0.81708074 0.90000004
v -0.1891143 0.84449357 0.84999996
v -0.18676229 0.76868147 0.8000001
v -0.4665432 0.7288833 0.84999996
v -0.58602375 0.6367956 0.84999996
v -0.33288604 0.7988244 0.84999996
v -0.5460819 0.57231647 0.8000001
v -0.6371666 0.4687957 0.8000001
v -0.31740516 0.7245725 0.8000001
v -0.43840387 0.65844786 0.8000001
v -0.1771698 0.7018232 0.75
v -0.5868435 0.42374504 0.75
v -0.6515098 0.31540334 0.75
v -0.50434536 0.5192117 0.75
v -0.2963486 0.66039574 0.75
v -0.40652302 0.5989024 0.75
v -0.59530175 0.2862232 0.70000005
v -0.63595927 0.17850208 0.70000005
v -0.53655565 0.38524792 0.70000005
v -0.46150637 0.47256702 0.70000005
v -0.37243456 0.54552746 0.70000005
v -0.2720465 0.60191226 0.70000005
v -0.57753223 0.16228662 0.65
v -0.5969385 0.059534095 0.65
v -0.5405773 0.2601086 0.65
v -0.48719728 0.35002726 0.65
v -0.419014 0.42931047 0.65
v -0.5392117 0.05395451 0.6
v -0.5403887 -0.040497907 0.6
v -0.5216507 0.146768 0.6
v -0.48823962 0.235122 0.6
v -0.48561868 -0.037271433 0.55
v -0.4717687 -0.12103159 0.55
v -0.48471314 0.04762166 0.55
v -0.42163298 -0.110406615 0.50000006
v -0.39605537 -0.18194468 0.50000006
v -0.33809918 0.49554938 0.65
v -0.4399936 0.31633192 0.6
v -0.46907976 0.13106775 0.55
v -0.43439928 -0.03551344 0.50000006
v -0.3517357 -0.16498391 0.45000002
v -0.31774285 -0.22355536 0.45000002
v -0.37837854 0.3879302 0.6
v -0.43919364 0.21053144 0.55
v -0.43396658 0.040458784 0.50000006
v -0.37504113 -0.10139913 0.45000002
v -0.28000957 -0.2010532 0.40000004
v -0.3106681 -0.14937557 0.40000004
v -0.38695118 -0.0347334 0.45000002
v -0.42034802 0.11520168 0.50000006
v -0.2724304 -0.13409162 0.35000002
v -0.3318871 -0.09315921 0.40000004
v -0.3871039 0.032987714 0.45000002
v -0.2915763 -0.08474737 0.35000002
v -0.34302187 -0.034112275 0.40000004
v -0.2530946 -0.0754101 0.30000004
v -0.30186278 -0.03282812 0.35000002
v -0.3437341 0.025971144 0.40000004
v -0.3754946 0.09970646 0.45000002
v -0.26234436 -0.030314982 0.30000004
v -0.30297732 0.020088553 0.35000002
v -0.22316262 -0.026412634 0.25000006
v -0.26362282 0.015701205 0.30000004
v -0.22435877 0.012740463 0.25000006
v -0.33400214 0.0852654 0.40000004
v -0.39395735 0.18644422 0.50000006
v -0.29488605 0.07239485 0.35000002
v -0.2187379 0.051506426 0.25000006
v -0.25689134 0.061240315 0.30000004
v -0.24235427 0.10491869 0.30000004
v -0.35247612 0.16339564 0.45000002
v -0.3959629 0.28359824 0.55
v -0.27783483 0.122501485 0.35000002
v -0.25234172 0.16888598 0.35000002
v -0.31412172 0.14196897 0.40000004
v -0.35559654 0.25202167 0.50000006
v -0.34070098 0.34804797 0.55
v -0.24662155 0.24084319 0.40000004
v -0.28469685 0.19435883 0.40000004
v -0.31874782 0.22212023 0.45000002
v -0.2235553 0.31774297 0.45000002
v -0.27533454 0.2740957 0.45000002
v -0.3064311 0.3099417 0.50000006
v -0.18194467 0.39605555 0.50000006
v -0.24795488 0.3584442 0.50000006
v -0.275087 0.40192252 0.55
v -0.12103154 0.47176895 0.55
v -0.20111468 0.44358477 0.55
v -0.30526674 0.4477415 0.6
v -0.040497836 0.54038894 0.6
v -0.13372019 0.52514684 0.6
v -0.2228795 0.4939484 0.6
v -0.2469114 0.54673123 0.65
v -0.04502764 0.5982079 0.65
v -0.14822136 0.5813008 0.65
v -0.16339254 0.64000833 0.70000005
v -0.049773917 0.65865797 0.70000005
vt 1 0
vt 0.93333334 0
vt 1 0.049999982
vt 0.93333334 0.049999982
vt 0.8666667 0
vt 1 0.099999994
vt 0.8666667 0.049999982
vt 0.8 0
vt 0.93333334 0.099999994
vt 1 0.15
vt 0.8 0.049999982
vt 0.73333335 0
vt 0.8666667 0.099999994
vt 0.93333334 0.15
vt 1 0.19999999
vt 0.73333335 0.049999982
vt 0.6666667 0
vt 0.8 0.099999994
vt 0.8666667 0.15
vt 0.93333334 0.19999999
vt 1 0.25
vt 0.6666667 0.049999982
vt 0.6 0
vt 0.73333335 0.099999994
vt 0.8 0.15
vt 0.8666667 0.19999999
vt 0.93333334 0.25
vt 1 0.3
vt 0.6 0.049999982
vt 0.53333336 0
vt 0.6666667 0.099999994
vt 0.73333335 0.15
vt 0.8 0.19999999
vt 0.8666667 0.25
vt 0.93333334 0.3
vt 1 0.35
vt 0.53333336 0.049999982
vt 0.46666667 0
vt 0.6 0.099999994
vt 0.6666667 0.15
vt 0.73333335 0.19999999
vt 0.8 0.25
vt 0.8666667 0.3
vt 0.93333334 0.35
vt 1 0.4
vt 0.46666667 0.049999982
vt 0.4 0
vt 0.53333336 0.099999994
vt 0.6 0.15
vt 0.6666667 0.19999999
vt 0.73333335 0.25
vt 0.8 0.3
vt 0.8666667 0.35
vt 0.4 0.049999982
vt 0.3333333 0
vt 0.46666667 0.099999994
vt 0.53333336 0.15
vt 0.6 0.19999999
vt 0.6666667 0.25
vt 0.73333335 0.3
vt 0.3333333 0.049999982
vt 0.26666665 0
vt 0.4 0.099999994
vt 0.46666667 0.15
vt 0.53333336 0.19999999
vt 0.6 0.25
vt 0.26666665 0.049999982
vt 0.19999999 0
vt 0.3333333 0.099999994
vt 0.4 0.15
vt 0.46666667 0.19999999
vt 0.19999999 0.049999982
vt 0.13333333 0
vt 0.26666665 0.099999994
vt 0.3333333 0.15
vt 0.13333333 0.049999982
vt 0.06666666 0
vt 0.19999999 0.099999994
vt 0.06666666 0.049999982
vt 0 0
vt 0 0.049999982
vt 0.13333333 0.099999994
vt 0.06666666 0.099999994
vt 0 0.099999994
vt 0.26666665 0.15
vt 0.4 0.19999999
vt 0.19999999 0.15
vt 0.06666666 0.15
vt 0 0.15
vt 0.13333333 0.15
vt 0.3333333 0.19999999
vt 0.06666666 0.19999999
vt 0 0.19999999
vt 0.26666665 0.19999999
vt 0.13333333 0.19999999
vt 0.19999999 0.19999999
vt 0.06666666 0.25
vt 0 0.25
vt 0.13333333 0.25
vt 0.19999999 0.25
vt 0.26666665 0.25
vt 0.3333333 0.25
vt 0.06666666 0.3
vt 0 0.3
vt 0.13333333 0.3
vt 0.19999999 0.3
vt 0.26666665 0.3
vt 0.06666666 0.35
vt 0 0.35
vt 0.13333333 0.35
vt 0.19999999 0.35
vt 0.06666666 0.4
vt 0 0.4
vt 0.13333333 0.4
vt 0.06666666 0.45
vt 0 0.45
vt 0.3333333 0.3
vt 0.26666665 0.35
vt 0.19999999 0.4
vt 0.13333333 0.45
vt 0.06666666 0.5
vt 0 0.5
vt 0.3333333 0.35
vt 0.26666665 0.4
vt 0.19999999 0.45
vt 0.13333333 0.5
vt 0.06666666 0.55
vt 0 0.55
vt 0.3333333 0.4
vt 0.26666665 0.45
vt 0.19999999 0.5
vt 0.13333333 0.55
vt 0.06666666 0.6
vt 0 0.6
vt 0.3333333 0.45
vt 0.26666665 0.5
vt 0.19999999 0.55
vt 0.13333333 0.6
vt 0.06666666 0.65
vt 0 0.65
vt 0.3333333 0.5
vt 0.26666665 0.55
vt 0.19999999 0.6
vt 0.13333333 0.65
vt 0.06666666 0.7
vt 0 0.7
vt 0.3333333 0.55
vt 0.26666665 0.6
vt 0.19999999 0.65
vt 0.13333333 0.7
vt 0.06666666 0.75
vt 0 0.75
vt 0.3333333 0.6
vt 0.26666665 0.65
vt 0.19999999 0.7
vt 0.13333333 0.75
vt 0.06666666 0.8
vt 0 0.8
vt 0.3333333 0.65
vt 0.26666665 0.7
vt 0.19999999 0.75
vt 0.13333333 0.8
vt 0.06666666 0.85
vt 0 0.85
vt 0.3333333 0.7
vt 0.26666665 0.75
vt 0.19999999 0.8
vt 0.13333333 0.85
vt 0.06666666 0.9
vt 0 0.9
vt 0.3333333 0.75
vt 0.26666665 0.8
vt 0.19999999 0.85
vt 0.13333333 0.9
vt 0.06666666 0.95000005
vt 0 0.95000005
vt 0.06666666 1
vt 0 1
vt 0.13333333 1
vt 0.13333333 0.95000005
vt 0.19999999 1
vt 0.19999999 0.95000005
vt 0.26666665 1
vt 0.19999999 0.9
vt 0.26666665 0.95000005
vt 0.3333333 1
vt 0.26666665 0.9
vt 0.3333333 0.95000005
vt 0.4 1
vt 0.26666665 0.85
vt 0.3333333 0.9
vt 0.4 0.95000005
vt 0.46666667 1
vt 0.3333333 0.85
vt 0.4 0.9
vt 0.46666667 0.95000005
vt 0.53333336 1
vt 0.3333333 0.8
vt 0.4 0.85
vt 0.46666667 0.9
vt 0.53333336 0.95000005
vt 0.6 1
vt 0.4 0.8
vt 0.46666667 0.85
vt 0.53333336 0.9
vt 0.6 0.95000005
vt 0.6666667 1
vt 0.4 0.75
vt 0.46666667 0.8
vt 0.53333336 0.85
vt 0.6 0.9
vt 0.6666667 0.95000005
vt 0.73333335 1
vt 0.4 0.7
vt 0.46666667 0.75
vt 0.53333336 0.8
vt 0.6 0.85
vt 0.6666667 0.9
vt 0.73333335 0.95000005
vt 0.8 1
vt 0.4 0.65
vt 0.46666667 0.7
vt 0.53333336 0.75
vt 0.6 0.8
vt 0.6666667 0.85
vt 0.73333335 0.9
vt 0.8 0.95000005
vt 0.8666667 1
vt 0.8666667 0.95000005
vt 0.93333334 1
vt 0.8 0.9
vt 0.73333335 0.85
vt 0.6666667 0.8
vt 0.6 0.75
vt 0.93333334 0.95000005
vt 1 1
vt 1 0.95000005
vt 0.8666667 0.9
vt 0.93333334 0.9
vt 1 0.9
vt 0.8 0.85
vt 0.73333335 0.8
vt 0.93333334 0.85
vt 1 0.85
vt 0.8666667 0.85
vt 0.93333334 0.8
vt 1 0.8
vt 0.8 0.8
vt 0.8666667 0.8
vt 0.6666667 0.75
vt 0.93333334 0.75
vt 1 0.75
vt 0.8666667 0.75
vt 0.73333335 0.75
vt 0.8 0.75
vt 0.93333334 0.7
vt 1 0.7
vt 0.8666667 0.7
vt 0.8 0.7
vt 0.73333335 0.7
vt 0.6666667 0.7
vt 0.93333334 0.65
vt 1 0.65
vt 0.8666667 0.65
vt 0.8 0.65
vt 0.73333335 0.65
vt 0.93333334 0.6
vt 1 0.6
vt 0.8666667 0.6
vt 0.8 0.6
vt 0.93333334 0.55
vt 1 0.55
vt 0.8666667 0.55
vt 0.93333334 0.5
vt 1 0.5
vt 0.6666667 0.65
vt 0.73333335 0.6
vt 0.8 0.55
vt 0.8666667 0.5
vt 0.93333334 0.45
vt 1 0.45
vt 0.6666667 0.6
vt 0.73333335 0.55
vt 0.8 0.5
vt 0.8666667 0.45
vt 0.93333334 0.4
vt 0.8666667 0.4
vt 0.8 0.45
vt 0.73333335 0.5
vt 0.8 0.35
vt 0.8 0.4
vt 0.73333335 0.45
vt 0.73333335 0.35
vt 0.73333335 0.4
vt 0.6666667 0.3
vt 0.6666667 0.35
vt 0.6666667 0.4
vt 0.6666667 0.45
vt 0.6 0.3
vt 0.6 0.35
vt 0.53333336 0.25
vt 0.53333336 0.3
vt 0.46666667 0.25
vt 0.6 0.4
vt 0.6666667 0.5
vt 0.53333336 0.35
vt 0.4 0.25
vt 0.46666667 0.3
vt 0.4 0.3
vt 0.6 0.45
vt 0.6666667 0.55
vt 0.46666667 0.35
vt 0.4 0.35
vt 0.53333336 0.4
vt 0.6 0.5
vt 0.6 0.55
vt 0.4 0.4
vt 0.46666667 0.4
vt 0.53333336 0.45
vt 0.4 0.45
vt 0.46666667 0.45
vt 0.53333336 0.5
vt 0.4 0.5
vt 0.46666667 0.5
vt 0.53333336 0.55
vt 0.4 0.55
vt 0.46666667 0.55
vt 0.6 0.6
vt 0.4 0.6
vt 0.46666667 0.6
vt 0.53333336 0.6
vt 0.6 0.65
vt 0.46666667 0.65
vt 0.53333336 0.65
vt 0.6 0.7
vt 0.53333336 0.7
vn 0.94352543 0.082638964 -0.32082793
vn 0.5467101 -0.5046633 -0.66814893
vn 0.26067892 -0.67031187 -0.69478667
vn 0.19868329 -0.6909748 -0.69503874
vn 0.45073998 -0.59194684 -0.6681561
vn 0.14460601 -0.7219866 -0.6766273
vn 0.07567679 -0.7149781 -0.695039
vn 0.34111962 -0.661219 -0.66815186
vn 0.07606636 -0.7328759 -0.67609674
vn 0.025773263 -0.7533106 -0.6571597
vn -0.049627617 -0.7172572 -0.6950389
vn 0.22113143 -0.71040696 -0.6681488
vn -0.052353393 -0.7349503 -0.6760971
vn -0.049676303 -0.75335747 -0.6557323
vn -0.09918861 -0.76327235 -0.6384176
vn -0.17342494 -0.69774264 -0.6950389
vn 0.094403826 -0.738013 -0.66815025
vn -0.17918079 -0.71469367 -0.6760971
vn -0.17974235 -0.73328537 -0.65573263
vn -0.17996041 -0.74989253 -0.6366125
vn -0.22797912 -0.7473992 -0.6240351
vn -0.2919514 -0.6570278 -0.69503874
vn -0.03520099 -0.74319196 -0.6681516
vn -0.30056402 -0.6727213 -0.6760971
vn -0.30434507 -0.6909334 -0.6557325
vn -0.3074448 -0.70724916 -0.63661325
vn -0.31069618 -0.7178774 -0.6229929
vn -0.3544975 -0.7015801 -0.6181561
vn -0.40160713 -0.59634966 -0.6950387
vn -0.16372354 -0.7257843 -0.6681554
vn -0.41281456 -0.6103088 -0.67609704
vn -0.41970074 -0.6275877 -0.65573245
vn -0.42558658 -0.6431171 -0.6366133
vn -0.43063512 -0.6530176 -0.62299407
vn -0.43403685 -0.65431905 -0.61925644
vn -0.46969727 -0.62476736 -0.6237389
vn -0.49906114 -0.51755077 -0.695039
vn -0.28725436 -0.6863369 -0.6681516
vn -0.51252156 -0.5293526 -0.67609715
vn -0.52230406 -0.5451727 -0.6557326
vn -0.53079736 -0.55944425 -0.6366132
vn -0.5374882 -0.5683175 -0.62299407
vn -0.54106486 -0.569007 -0.6192575
vn -0.54011333 -0.56043434 -0.62784636
vn -0.5639032 -0.5209016 -0.640839
vn -0.5813514 -0.4230265 -0.695039
vn -0.40206742 -0.62603134 -0.6681516
vn -0.5966563 -0.43231234 -0.676097
vn -0.60903716 -0.44619325 -0.65573263
vn -0.61987954 -0.45877337 -0.6366131
vn -0.62800974 -0.46635005 -0.6229938
vn -0.6316518 -0.4664076 -0.6192576
vn -0.6292264 -0.45812857 -0.6278475
vn -0.6459771 -0.31564918 -0.695039
vn -0.5046661 -0.546708 -0.66814846
vn -0.66266257 -0.32213578 -0.6760969
vn -0.67726547 -0.333656 -0.6557326
vn -0.6901275 -0.3441625 -0.6366131
vn -0.6994497 -0.3502127 -0.6229938
vn -0.70304644 -0.34963652 -0.61925775
vn -0.6909753 -0.19868092 -0.6950389
vn -0.59194297 -0.4507498 -0.66815275
vn -0.70853335 -0.2021719 -0.676097
vn -0.724915 -0.21098079 -0.65573263
vn -0.7394061 -0.21909453 -0.636613
vn -0.74963725 -0.22343369 -0.62299395
vn -0.71497834 -0.07567616 -0.69503886
vn -0.6612191 -0.34112036 -0.6681513
vn -0.7328759 -0.07606523 -0.6760969
vn -0.75053835 -0.08189585 -0.6557327
vn -0.76621825 -0.08736941 -0.63661313
vn -0.71725726 0.04962784 -0.69503886
vn -0.7104081 -0.22112386 -0.6681502
vn -0.73495036 0.052353192 -0.67609704
vn -0.7533572 0.049677752 -0.6557326
vn -0.6977427 0.17342451 -0.6950389
vn -0.73801285 -0.094403654 -0.6681504
vn -0.71469367 0.17918092 -0.6760971
vn -0.6570278 0.29195136 -0.69503874
vn -0.72000015 0.09575191 -0.6873364
vn -0.6234756 0.36120957 -0.6934016
vn -0.6727214 0.3005639 -0.676097
vn -0.61030895 0.4128145 -0.676097
vn -0.5630666 0.4783138 -0.6739228
vn -0.73328537 0.17974256 -0.6557325
vn -0.7697491 0.04701041 -0.6366132
vn -0.69093305 0.30434555 -0.65573263
vn -0.5451726 0.52230424 -0.6557325
vn -0.48379245 0.58267224 -0.6530221
vn -0.62758744 0.41970077 -0.6557325
vn -0.74989176 0.17996173 -0.63661295
vn -0.458773 0.6198799 -0.63661313
vn -0.3833471 0.67181885 -0.6338015
vn -0.70724916 0.30744517 -0.636613
vn -0.55944407 0.5307975 -0.6366132
vn -0.6431169 0.42558694 -0.6366131
vn -0.3502124 0.69944996 -0.6229937
vn -0.26216018 0.73865765 -0.62101275
vn -0.46634957 0.62801003 -0.6229941
vn -0.56831783 0.5374882 -0.62299377
vn -0.65301794 0.43063506 -0.6229937
vn -0.71787596 0.31069756 -0.62299377
vn -0.22224279 0.75307935 -0.6192574
vn -0.12493104 0.7752044 -0.6192336
vn -0.34963632 0.70304656 -0.6192576
vn -0.4664074 0.6316518 -0.6192577
vn -0.56900746 0.5410646 -0.6192572
vn -0.08213795 0.77399063 -0.6278471
vn 0.019206988 0.77597535 -0.63047063
vn -0.21529144 0.74796855 -0.62784755
vn -0.34190398 0.6992204 -0.62784755
vn 0.059415646 0.75955707 -0.64772135
vn 0.15874207 0.74075115 -0.6527548
vn -0.07338239 0.75833493 -0.6477215
vn 0.1914033 0.71293503 -0.67460245
vn 0.28337017 0.67523396 -0.6809996
vn -0.6543176 0.43403777 -0.6192575
vn -0.458129 0.62922645 -0.627847
vn -0.20395093 0.7340714 -0.6477215
vn 0.06469567 0.7353405 -0.6746028
vn 0.30602556 0.64196116 -0.70301795
vn 0.3871234 0.5888232 -0.70952284
vn -0.56043273 0.540114 -0.62784714
vn -0.32832342 0.68750364 -0.64772093
vn -0.06397768 0.7354031 -0.67460287
vn 0.18990089 0.6853491 -0.70301783
vn 0.4003952 0.55573064 -0.72859263
vn 0.469001 0.49075866 -0.7342983
vn -0.4427188 0.62004626 -0.6477211
vn -0.19070792 0.71312135 -0.67460227
vn 0.06800647 0.70791316 -0.7030179
vn 0.29781076 0.6168158 -0.72859246
vn 0.47539642 0.46116686 -0.7492152
vn 0.530941 0.38719633 -0.7537776
vn -0.3116426 0.6691713 -0.6746026
vn -0.055954568 0.7089675 -0.7030179
vn 0.18617742 0.6591591 -0.7285927
vn 0.38809377 0.5367123 -0.749215
vn 0.5328363 0.3615406 -0.7650973
vn 0.5746983 0.28061193 -0.76875144
vn -0.17821558 0.6884804 -0.7030178
vn 0.068887144 0.68147427 -0.72859275
vn 0.28899866 0.5959501 -0.74921507
vn 0.46196032 0.44857338 -0.7650978
vn 0.5724515 0.2571503 -0.7785711
vn 0.5990775 0.1712874 -0.7821553
vn -0.05049599 0.6830835 -0.7285925
vn 0.18112208 0.63708025 -0.74921525
vn 0.377048 0.52197737 -0.7650977
vn 0.519101 0.35264844 -0.77857125
vn 0.58969873 0.14766972 -0.79400814
vn 0.59836626 0.06026871 -0.7989528
vn 0.06774257 0.65885305 -0.74921536
vn 0.28067943 0.5795211 -0.7650977
vn 0.44997776 0.4374325 -0.77857107
vn 0.55509704 0.24782604 -0.79400855
vn 0.5754081 0.035883833 -0.81707877
vn 0.56338584 -0.046835758 -0.8248653
vn 0.17578258 0.61945647 -0.7650976
vn 0.36718252 0.5089246 -0.778571
vn 0.50363016 0.34045258 -0.794008
vn 0.56043524 0.13525769 -0.81707877
vn 0.51987493 -0.068160616 -0.8515188
vn 0.48764318 -0.13735855 -0.8621698
vn 0.27323028 0.564953 -0.77857137
vn 0.43685928 0.42273495 -0.7940083
vn 0.52843314 0.23052071 -0.81707937
vn 0.52381307 0.023150453 -0.85151863
vn 0.42364356 -0.14717883 -0.8937922
vn 0.37824228 -0.19536082 -0.9048574
vn 0.35681564 0.49217203 -0.7940084
vn 0.48037645 0.31878003 -0.8170789
vn 0.51183486 0.1137579 -0.8515188
vn 0.44276282 -0.07137823 -0.8937932
vn 0.3067606 -0.18726066 -0.93318343
vn 0.2597297 -0.21375996 -0.9417257
vn 0.22694409 -0.22077236 -0.9485547
vn 0.20790085 -0.23559572 -0.9493534
vn 0.26183233 -0.17801 -0.9485548
vn 0.33461705 -0.13114747 -0.9331837
vn 0.28876546 -0.12983884 -0.94855493
vn 0.352307 -0.071049266 -0.9331837
vn 0.30692512 -0.07772264 -0.9485547
vn 0.4484319 0.0065914746 -0.89379275
vn 0.35929278 -0.008792206 -0.93318355
vn 0.31575853 -0.023245027 -0.9485548
vn 0.44047418 0.084360614 -0.89379287
vn 0.35536042 0.05373196 -0.9331837
vn 0.31499743 0.031938963 -0.94855493
vn 0.4843051 0.20090877 -0.8515188
vn 0.4191336 0.15956658 -0.89379275
vn 0.34063137 0.11462335 -0.93318367
vn 0.30466637 0.0861524 -0.9485547
vn 0.44206005 0.28195518 -0.8515187
vn 0.38505733 0.22992402 -0.89379287
vn 0.3155526 0.17203201 -0.93318355
vn 0.28507736 0.13774826 -0.9485548
vn 0.41772267 0.39735374 -0.81707877
vn 0.38638344 0.3544346 -0.85151863
vn 0.3392822 0.2932956 -0.8937927
vn 0.28088573 0.22421384 -0.93318343
vn 0.25682667 0.18515882 -0.9485548
vn 0.34237668 0.46385366 -0.81707895
vn 0.31896606 0.4161444 -0.851519
vn 0.2831971 0.3477555 -0.89379275
vn 0.23768373 0.26958278 -0.93318367
vn 0.22077252 0.22694315 -0.9485548
vn 0.26592982 0.54665524 -0.7940084
vn 0.25662774 0.51625997 -0.8170789
vn 0.24185748 0.4652103 -0.85151887
vn 0.21850784 0.39164934 -0.89379257
vn 0.18726042 0.30676025 -0.93318367
vn 0.17800999 0.2618317 -0.94855505
vn 0.17097615 0.6038159 -0.7785715
vn 0.16696383 0.5845285 -0.79400855
vn 0.16308135 0.5529791 -0.81707925
vn 0.15740022 0.50014096 -0.8515188
vn 0.1471787 0.42364207 -0.89379287
vn 0.13114713 0.33461702 -0.9331837
vn 0.12983906 0.28876492 -0.94855505
vn 0.06554475 0.64056987 -0.7650975
vn 0.063527115 0.6243322 -0.7785715
vn 0.06292488 0.60464114 -0.79400855
vn 0.06457952 0.5728975 -0.81707895
vn 0.0681602 0.5198752 -0.85151863
vn 0.07137812 0.44276324 -0.893793
vn 0.07104924 0.3523071 -0.93318367
vn 0.07772245 0.30692422 -0.9485551
vn 0.008792199 0.35929236 -0.93318367
vn 0.023244573 0.31575814 -0.94855493
vn -0.00659115 0.4484312 -0.89379305
vn -0.023149885 0.5238123 -0.85151905
vn -0.035883788 0.57540786 -0.8170791
vn -0.043026146 0.60638285 -0.79400796
vn -0.05373288 0.35536203 -0.93318313
vn -0.024231156 0.31673345 -0.94820505
vn -0.10984855 0.37494716 -0.920515
vn -0.084360845 0.44047424 -0.89379287
vn -0.15956803 0.4191347 -0.89379203
vn -0.22968191 0.41981295 -0.8780679
vn -0.11375795 0.5118343 -0.85151905
vn -0.13525695 0.56043464 -0.81707937
vn -0.28195715 0.44206068 -0.85151774
vn -0.35511753 0.41606483 -0.83712703
vn -0.20090878 0.48430482 -0.85151887
vn -0.39735562 0.41772273 -0.8170778
vn -0.46277297 0.3670556 -0.8069146
vn -0.23051994 0.5284332 -0.8170794
vn -0.31878006 0.4803758 -0.8170792
vn -0.14766945 0.5896988 -0.79400826
vn -0.4921747 0.35681513 -0.79400694
vn -0.5443351 0.28880858 -0.7875842
vn -0.4227339 0.4368591 -0.7940089
vn -0.2478254 0.55509704 -0.79400873
vn -0.34045252 0.5036292 -0.7940086
vn -0.56495565 0.27322936 -0.7785697
vn -0.60272205 0.1946886 -0.7738362
vn -0.5089241 0.36718217 -0.7785714
vn -0.4374313 0.44997776 -0.77857167
vn -0.35264862 0.5191009 -0.7785712
vn -0.25715023 0.5724512 -0.7785714
vn -0.619458 0.17578134 -0.7650965
vn -0.6432458 0.09092367 -0.7602419
vn -0.57952064 0.28067932 -0.7650981
vn -0.52197707 0.377048 -0.76509786
vn -0.44857344 0.46196023 -0.7650978
vn -0.6588541 0.06774132 -0.74921435
vn -0.6687336 -0.021159876 -0.7432009
vn -0.6370799 0.18112212 -0.7492156
vn -0.5959503 0.288998 -0.7492152
vn -0.6830842 -0.050497875 -0.7285918
vn -0.67815584 -0.14171442 -0.72112536
vn -0.6814742 0.0688872 -0.7285928
vn -0.6884805 -0.1782175 -0.70301723
vn -0.66717494 -0.26931196 -0.6945133
vn -0.3615405 0.532836 -0.7650976
vn -0.5367125 0.38809332 -0.74921507
vn -0.65915906 0.18617742 -0.72859275
vn -0.70896703 -0.055954613 -0.7030183
vn -0.66917187 -0.31164417 -0.6746013
vn -0.63024217 -0.39877853 -0.66616106
vn -0.4611666 0.47539634 -0.74921536
vn -0.6168154 0.29781038 -0.728593
vn -0.7079125 0.068006195 -0.70301855
vn -0.7131207 -0.19070739 -0.6746032
vn -0.6200458 -0.44272068 -0.64772034
vn -0.6875035 -0.32832265 -0.64772147
vn -0.7354032 -0.063977964 -0.67460287
vn -0.6853487 0.18990114 -0.70301837
vn -0.69922036 -0.3419043 -0.6278474
vn -0.73407143 -0.203951 -0.6477214
vn -0.7353403 0.064695805 -0.67460287
vn -0.7479686 -0.21529171 -0.6278474
vn -0.7583349 -0.07338253 -0.64772147
vn -0.7530795 -0.22224228 -0.6192574
vn -0.7739904 -0.08213774 -0.6278473
vn -0.7595569 0.059415605 -0.6477214
vn -0.71293485 0.19140328 -0.6746026
vn -0.7802305 -0.08809467 -0.6192574
vn -0.77649474 0.053512424 -0.6278473
vn -0.7770476 -0.08986558 -0.62299377
vn -0.78367466 0.048728995 -0.6192572
vn -0.7808477 0.04643172 -0.6229935
vn -0.7377003 0.19040829 -0.64772135
vn -0.6419608 0.30602556 -0.70301825
vn -0.75540584 0.18753612 -0.6278473
vn -0.7609218 0.18131933 -0.6229938
vn -0.7633072 0.18407181 -0.61925733
vn -0.7197465 0.31382295 -0.6192576
vn -0.66886723 0.31229487 -0.67460245
vn -0.55573046 0.4003951 -0.7285928
vn -0.7113641 0.31586206 -0.62784743
vn -0.6457082 0.43459025 -0.6278472
vn -0.69342893 0.31561613 -0.64772123
vn -0.5790674 0.4128514 -0.7030182
vn -0.47776005 0.49081388 -0.72859263
vn -0.5436625 0.5337492 -0.6477213
vn -0.6280876 0.4312342 -0.6477214
vn -0.604476 0.42369807 -0.6746027
vn -0.42310816 0.6048888 -0.67460287
vn -0.5217179 0.52222735 -0.67460287
vn -0.49857908 0.5071334 -0.70301807
vn -0.2950611 0.64707375 -0.70301807
vn -0.40294155 0.5860063 -0.70301825
vn -0.385273 0.5663194 -0.72859263
vn -0.16834512 0.6639373 -0.7285927
vn -0.28107896 0.6246177 -0.72859275
vn -0.37160906 0.54825467 -0.7492153
vn -0.04769521 0.6606071 -0.74921525
vn -0.16168387 0.6422889 -0.7492152
vn -0.27075964 0.60445464 -0.7492154
vn -0.2635215 0.58752185 -0.76509774
vn -0.04668509 0.64221984 -0.76509744
vn -0.15749562 0.6243563 -0.7650975
vn -0.15383849 0.6084082 -0.7785712
vn -0.04585232 0.62587893 -0.7785712
g Md_CMN_SpiralCorn_00_0
f 3/3/3 2/2/2 1/1/1
f 3/3/3 4/4/4 2/2/2
f 4/4/4 5/5/5 2/2/2
f 6/6/6 4/4/4 3/3/3
f 4/4/4 7/7/7 5/5/5
f 7/7/7 8/8/8 5/5/5
f 6/6/6 9/9/9 4/4/4
f 9/9/9 7/7/7 4/4/4
f 10/10/10 9/9/9 6/6/6
f 7/7/7 11/11/11 8/8/8
f 11/11/11 12/12/12 8/8/8
f 9/9/9 13/13/13 7/7/7
f 13/13/13 11/11/11 7/7/7
f 10/10/10 14/14/14 9/9/9
f 14/14/14 13/13/13 9/9/9
f 15/15/15 14/14/14 10/10/10
f 11/11/11 16/16/16 12/12/12
f 16/16/16 17/17/17 12/12/12
f 13/13/13 18/18/18 11/11/11
f 18/18/18 16/16/16 11/11/11
f 14/14/14 19/19/19 13/13/13
f 19/19/19 18/18/18 13/13/13
f 15/15/15 20/20/20 14/14/14
f 20/20/20 19/19/19 14/14/14
f 21/21/21 20/20/20 15/15/15
f 16/16/16 22/22/22 17/17/17
f 22/22/22 23/23/23 17/17/17
f 18/18/18 24/24/24 16/16/16
f 24/24/24 22/22/22 16/16/16
f 19/19/19 25/25/25 18/18/18
f 25/25/25 24/24/24 18/18/18
f 20/20/20 26/26/26 19/19/19
f 26/26/26 25/25/25 19/19/19
f 21/21/21 27/27/27 20/20/20
f 27/27/27 26/26/26 20/20/20
f 28/28/28 27/27/27 21/21/21
f 22/22/22 29/29/29 23/23/23
f 29/29/29 30/30/30 23/23/23
f 24/24/24 31/31/31 22/22/22
f 31/31/31 29/29/29 22/22/22
f 25/25/25 32/32/32 24/24/24
f 32/32/32 31/31/31 24/24/24
f 26/26/26 33/33/33 25/25/25
f 33/33/33 32/32/32 25/25/25
f 27/27/27 34/34/34 26/26/26
f 34/34/34 33/33/33 26/26/26
f 28/28/28 35/35/35 27/27/27
f 35/35/35 34/34/34 27/27/27
f 36/36/36 35/35/35 28/28/28
f 29/29/29 37/37/37 30/30/30
f 37/37/37 38/38/38 30/30/30
f 31/31/31 39/39/39 29/29/29
f 39/39/39 37/37/37 29/29/29
f 32/32/32 40/40/40 31/31/31
f 40/40/40 39/39/39 31/31/31
f 33/33/33 41/41/41 32/32/32
f 41/41/41 40/40/40 32/32/32
f 34/34/34 42/42/42 33/33/33
f 42/42/42 41/41/41 33/33/33
f 35/35/35 43/43/43 34/34/34
f 43/43/43 42/42/42 34/34/34
f 36/36/36 44/44/44 35/35/35
f 44/44/44 43/43/43 35/35/35
f 45/45/45 44/44/44 36/36/36
f 37/37/37 46/46/46 38/38/38
f 46/46/46 47/47/47 38/38/38
f 39/39/39 48/48/48 37/37/37
f 48/48/48 46/46/46 37/37/37
f 40/40/40 49/49/49 39/39/39
f 49/49/49 48/48/48 39/39/39
f 41/41/41 50/50/50 40/40/40
f 50/50/50 49/49/49 40/40/40
f 42/42/42 51/51/51 41/41/41
f 51/51/51 50/50/50 41/41/41
f 43/43/43 52/52/52 42/42/42
f 52/52/52 51/51/51 42/42/42
f 44/44/44 53/53/53 43/43/43
f 53/53/53 52/52/52 43/43/43
f 46/46/46 54/54/54 47/47/47
f 54/54/54 55/55/55 47/47/47
f 48/48/48 56/56/56 46/46/46
f 56/56/56 54/54/54 46/46/46
f 49/49/49 57/57/57 48/48/48
f 57/57/57 56/56/56 48/48/48
f 50/50/50 58/58/58 49/49/49
f 58/58/58 57/57/57 49/49/49
f 51/51/51 59/59/59 50/50/50
f 59/59/59 58/58/58 50/50/50
f 52/52/52 60/60/60 51/51/51
f 60/60/60 59/59/59 51/51/51
f 54/54/54 61/61/61 55/55/55
f 61/61/61 62/62/62 55/55/55
f 56/56/56 63/63/63 54/54/54
f 63/63/63 61/61/61 54/54/54
f 57/57/57 64/64/64 56/56/56
f 64/64/64 63/63/63 56/56/56
f 58/58/58 65/65/65 57/57/57
f 65/65/65 64/64/64 57/57/57
f 59/59/59 66/66/66 58/58/58
f 66/66/66 65/65/65 58/58/58
f 61/61/61 67/67/67 62/62/62
f 67/67/67 68/68/68 62/62/62
f 63/63/63 69/69/69 61/61/61
f 69/69/69 67/67/67 61/61/61
f 64/64/64 70/70/70 63/63/63
f 70/70/70 69/69/69 63/63/63
f 65/65/65 71/71/71 64/64/64
f 71/71/71 70/70/70 64/64/64
f 67/67/67 72/72/72 68/68/68
f 72/72/72 73/73/73 68/68/68
f 69/69/69 74/74/74 67/67/67
f 74/74/74 72/72/72 67/67/67
f 70/70/70 75/75/75 69/69/69
f 75/75/75 74/74/74 69/69/69
f 72/72/72 76/76/76 73/73/73
f 76/76/76 77/77/77 73/73/73
f 74/74/74 78/78/78 72/72/72
f 78/78/78 76/76/76 72/72/72
f 76/76/76 79/79/79 77/77/77
f 79/79/79 80/80/80 77/77/77
f 79/79/79 81/81/81 80/80/80
f 82/82/82 79/79/79 76/76/76
f 78/78/78 82/82/82 76/76/76
f 83/83/83 81/81/81 79/79/79
f 82/82/82 83/83/83 79/79/79
f 83/83/83 84/84/84 81/81/81
f 85/85/85 78/78/78 74/74/74
f 75/75/75 85/85/85 74/74/74
f 86/86/86 75/75/75 70/70/70
f 71/71/71 86/86/86 70/70/70
f 87/87/87 82/82/82 78/78/78
f 85/85/85 87/87/87 78/78/78
f 88/88/88 84/84/84 83/83/83
f 88/88/88 89/89/89 84/84/84
f 90/90/90 83/83/83 82/82/82
f 87/87/87 90/90/90 82/82/82
f 90/90/90 88/88/88 83/83/83
f 91/91/91 85/85/85 75/75/75
f 86/86/86 91/91/91 75/75/75
f 92/92/92 89/89/89 88/88/88
f 92/92/92 93/93/93 89/89/89
f 94/94/94 87/87/87 85/85/85
f 91/91/91 94/94/94 85/85/85
f 95/95/95 88/88/88 90/90/90
f 95/95/95 92/92/92 88/88/88
f 96/96/96 90/90/90 87/87/87
f 94/94/94 96/96/96 87/87/87
f 96/96/96 95/95/95 90/90/90
f 97/97/97 93/93/93 92/92/92
f 97/97/97 98/98/98 93/93/93
f 99/99/99 92/92/92 95/95/95
f 99/99/99 97/97/97 92/92/92
f 100/100/100 95/95/95 96/96/96
f 100/100/100 99/99/99 95/95/95
f 101/101/101 96/96/96 94/94/94
f 101/101/101 100/100/100 96/96/96
f 102/102/102 94/94/94 91/91/91
f 102/102/102 101/101/101 94/94/94
f 103/103/103 98/98/98 97/97/97
f 103/103/103 104/104/104 98/98/98
f 105/105/105 97/97/97 99/99/99
f 105/105/105 103/103/103 97/97/97
f 106/106/106 99/99/99 100/100/100
f 106/106/106 105/105/105 99/99/99
f 107/107/107 100/100/100 101/101/101
f 107/107/107 106/106/106 100/100/100
f 108/108/108 104/104/104 103/103/103
f 108/108/108 109/109/109 104/104/104
f 110/110/110 103/103/103 105/105/105
f 110/110/110 108/108/108 103/103/103
f 111/111/111 105/105/105 106/106/106
f 111/111/111 110/110/110 105/105/105
f 112/112/112 109/109/109 108/108/108
f 112/112/112 113/113/113 109/109/109
f 114/114/114 108/108/108 110/110/110
f 114/114/114 112/112/112 108/108/108
f 115/115/115 113/113/113 112/112/112
f 115/115/115 116/116/116 113/113/113
f 117/117/117 107/107/107 101/101/101
f 117/117/117 101/101/101 102/102/102
f 118/118/118 106/106/106 107/107/107
f 118/118/118 111/111/111 106/106/106
f 119/119/119 110/110/110 111/111/111
f 119/119/119 114/114/114 110/110/110
f 120/120/120 112/112/112 114/114/114
f 120/120/120 115/115/115 112/112/112
f 121/121/121 116/116/116 115/115/115
f 121/121/121 122/122/122 116/116/116
f 123/123/123 107/107/107 117/117/117
f 123/123/123 118/118/118 107/107/107
f 124/124/124 111/111/111 118/118/118
f 124/124/124 119/119/119 111/111/111
f 125/125/125 114/114/114 119/119/119
f 125/125/125 120/120/120 114/114/114
f 126/126/126 115/115/115 120/120/120
f 126/126/126 121/121/121 115/115/115
f 127/127/127 122/122/122 121/121/121
f 127/127/127 128/128/128 122/122/122
f 129/129/129 118/118/118 123/123/123
f 129/129/129 124/124/124 118/118/118
f 130/130/130 119/119/119 124/124/124
f 130/130/130 125/125/125 119/119/119
f 131/131/131 120/120/120 125/125/125
f 131/131/131 126/126/126 120/120/120
f 132/132/132 121/121/121 126/126/126
f 132/132/132 127/127/127 121/121/121
f 133/133/133 128/128/128 127/127/127
f 133/133/133 134/134/134 128/128/128
f 135/135/135 124/124/124 129/129/129
f 135/135/135 130/130/130 124/124/124
f 136/136/136 125/125/125 130/130/130
f 136/136/136 131/131/131 125/125/125
f 137/137/137 126/126/126 131/131/131
f 137/137/137 132/132/132 126/126/126
f 138/138/138 127/127/127 132/132/132
f 138/138/138 133/133/133 127/127/127
f 139/139/139 134/134/134 133/133/133
f 139/139/139 140/140/140 134/134/134
f 141/141/141 130/130/130 135/135/135
f 141/141/141 136/136/136 130/130/130
f 142/142/142 131/131/131 136/136/136
f 142/142/142 137/137/137 131/131/131
f 143/143/143 132/132/132 137/137/137
f 143/143/143 138/138/138 132/132/132
f 144/144/144 133/133/133 138/138/138
f 144/144/144 139/139/139 133/133/133
f 145/145/145 140/140/140 139/139/139
f 145/145/145 146/146/146 140/140/140
f 147/147/147 136/136/136 141/141/141
f 147/147/147 142/142/142 136/136/136
f 148/148/148 137/137/137 142/142/142
f 148/148/148 143/143/143 137/137/137
f 149/149/149 138/138/138 143/143/143
f 149/149/149 144/144/144 138/138/138
f 150/150/150 139/139/139 144/144/144
f 150/150/150 145/145/145 139/139/139
f 151/151/151 146/146/146 145/145/145
f 151/151/151 152/152/152 146/146/146
f 153/153/153 142/142/142 147/147/147
f 153/153/153 148/148/148 142/142/142
f 154/154/154 143/143/143 148/148/148
f 154/154/154 149/149/149 143/143/143
f 155/155/155 144/144/144 149/149/149
f 155/155/155 150/150/150 144/144/144
f 156/156/156 145/145/145 150/150/150
f 156/156/156 151/151/151 145/145/145
f 157/157/157 152/152/152 151/151/151
f 157/157/157 158/158/158 152/152/152
f 159/159/159 148/148/148 153/153/153
f 159/159/159 154/154/154 148/148/148
f 160/160/160 149/149/149 154/154/154
f 160/160/160 155/155/155 149/149/149
f 161/161/161 150/150/150 155/155/155
f 161/161/161 156/156/156 150/150/150
f 162/162/162 151/151/151 156/156/156
f 162/162/162 157/157/157 151/151/151
f 163/163/163 158/158/158 157/157/157
f 163/163/163 164/164/164 158/158/158
f 165/165/165 154/154/154 159/159/159
f 165/165/165 160/160/160 154/154/154
f 166/166/166 155/155/155 160/160/160
f 166/166/166 161/161/161 155/155/155
f 167/167/167 156/156/156 161/161/161
f 167/167/167 162/162/162 156/156/156
f 168/168/168 157/157/157 162/162/162
f 168/168/168 163/163/163 157/157/157
f 169/169/169 164/164/164 163/163/163
f 169/169/169 170/170/170 164/164/164
f 171/171/171 160/160/160 165/165/165
f 171/171/171 166/166/166 160/160/160
f 172/172/172 161/161/161 166/166/166
f 172/172/172 167/167/167 161/161/161
f 173/173/173 162/162/162 167/167/167
f 173/173/173 168/168/168 162/162/162
f 174/174/174 163/163/163 168/168/168
f 174/174/174 169/169/169 163/163/163
f 175/175/175 170/170/170 169/169/169
f 175/175/175 176/176/176 170/170/170
f 177/177/177 176/176/176 175/175/175
f 177/177/177 178/178/178 176/176/176
f 179/179/179 177/177/177 175/175/175
f 180/180/180 175/175/175 169/169/169
f 179/179/179 175/175/175 180/180/180
f 180/180/180 169/169/169 174/174/174
f 181/181/181 179/179/179 180/180/180
f 181/181/181 180/180/180 182/182/182
f 182/182/182 180/180/180 174/174/174
f 183/183/183 181/181/181 182/182/182
f 184/184/184 174/174/174 168/168/168
f 182/182/182 174/174/174 184/184/184
f 184/184/184 168/168/168 173/173/173
f 183/183/183 182/182/182 185/185/185
f 185/185/185 182/182/182 184/184/184
f 186/186/186 183/183/183 185/185/185
f 187/187/187 184/184/184 173/173/173
f 185/185/185 184/184/184 187/187/187
f 186/186/186 185/185/185 188/188/188
f 188/188/188 185/185/185 187/187/187
f 189/189/189 186/186/186 188/188/188
f 187/187/187 173/173/173 190/190/190
f 190/190/190 173/173/173 167/167/167
f 190/190/190 167/167/167 172/172/172
f 188/188/188 187/187/187 191/191/191
f 191/191/191 187/187/187 190/190/190
f 189/189/189 188/188/188 192/192/192
f 192/192/192 188/188/188 191/191/191
f 193/193/193 189/189/189 192/192/192
f 194/194/194 190/190/190 172/172/172
f 191/191/191 190/190/190 194/194/194
f 192/192/192 191/191/191 195/195/195
f 195/195/195 191/191/191 194/194/194
f 193/193/193 192/192/192 196/196/196
f 196/196/196 192/192/192 195/195/195
f 197/197/197 193/193/193 196/196/196
f 194/194/194 172/172/172 198/198/198
f 198/198/198 172/172/172 166/166/166
f 198/198/198 166/166/166 171/171/171
f 195/195/195 194/194/194 199/199/199
f 199/199/199 194/194/194 198/198/198
f 196/196/196 195/195/195 200/200/200
f 200/200/200 195/195/195 199/199/199
f 197/197/197 196/196/196 201/201/201
f 201/201/201 196/196/196 200/200/200
f 202/202/202 197/197/197 201/201/201
f 203/203/203 198/198/198 171/171/171
f 199/199/199 198/198/198 203/203/203
f 200/200/200 199/199/199 204/204/204
f 204/204/204 199/199/199 203/203/203
f 201/201/201 200/200/200 205/205/205
f 205/205/205 200/200/200 204/204/204
f 202/202/202 201/201/201 206/206/206
f 206/206/206 201/201/201 205/205/205
f 207/207/207 202/202/202 206/206/206
f 203/203/203 171/171/171 208/208/208
f 208/208/208 171/171/171 165/165/165
f 204/204/204 203/203/203 209/209/209
f 209/209/209 203/203/203 208/208/208
f 205/205/205 204/204/204 210/210/210
f 210/210/210 204/204/204 209/209/209
f 206/206/206 205/205/205 211/211/211
f 211/211/211 205/205/205 210/210/210
f 207/207/207 206/206/206 212/212/212
f 212/212/212 206/206/206 211/211/211
f 213/213/213 207/207/207 212/212/212
f 208/208/208 165/165/165 214/214/214
f 214/214/214 165/165/165 159/159/159
f 209/209/209 208/208/208 215/215/215
f 215/215/215 208/208/208 214/214/214
f 210/210/210 209/209/209 216/216/216
f 216/216/216 209/209/209 215/215/215
f 211/211/211 210/210/210 217/217/217
f 217/217/217 210/210/210 216/216/216
f 212/212/212 211/211/211 218/218/218
f 218/218/218 211/211/211 217/217/217
f 213/213/213 212/212/212 219/219/219
f 219/219/219 212/212/212 218/218/218
f 220/220/220 213/213/213 219/219/219
f 214/214/214 159/159/159 221/221/221
f 221/221/221 159/159/159 153/153/153
f 215/215/215 214/214/214 222/222/222
f 222/222/222 214/214/214 221/221/221
f 216/216/216 215/215/215 223/223/223
f 223/223/223 215/215/215 222/222/222
f 217/217/217 216/216/216 224/224/224
f 224/224/224 216/216/216 223/223/223
f 218/218/218 217/217/217 225/225/225
f 225/225/225 217/217/217 224/224/224
f 219/219/219 218/218/218 226/226/226
f 226/226/226 218/218/218 225/225/225
f 220/220/220 219/219/219 227/227/227
f 227/227/227 219/219/219 226/226/226
f 228/228/228 220/220/220 227/227/227
f 228/228/228 227/227/227 229/229/229
f 230/230/230 228/228/228 229/229/229
f 227/227/227 226/226/226 231/231/231
f 229/229/229 227/227/227 231/231/231
f 226/226/226 225/225/225 232/232/232
f 231/231/231 226/226/226 232/232/232
f 225/225/225 224/224/224 233/233/233
f 232/232/232 225/225/225 233/233/233
f 224/224/224 223/223/223 234/234/234
f 233/233/233 224/224/224 234/234/234
f 230/230/230 229/229/229 235/235/235
f 236/236/236 230/230/230 235/235/235
f 236/236/236 235/235/235 237/237/237
f 229/229/229 231/231/231 238/238/238
f 235/235/235 229/229/229 238/238/238
f 237/237/237 235/235/235 239/239/239
f 235/235/235 238/238/238 239/239/239
f 237/237/237 239/239/239 240/240/240
f 231/231/231 232/232/232 241/241/241
f 238/238/238 231/231/231 241/241/241
f 232/232/232 233/233/233 242/242/242
f 241/241/241 232/232/232 242/242/242
f 240/240/240 239/239/239 243/243/243
f 240/240/240 243/243/243 244/244/244
f 239/239/239 238/238/238 245/245/245
f 238/238/238 241/241/241 245/245/245
f 239/239/239 245/245/245 243/243/243
f 244/244/244 243/243/243 246/246/246
f 244/244/244 246/246/246 247/247/247
f 245/245/245 241/241/241 248/248/248
f 241/241/241 242/242/242 248/248/248
f 243/243/243 245/245/245 249/249/249
f 243/243/243 249/249/249 246/246/246
f 245/245/245 248/248/248 249/249/249
f 242/242/242 233/233/233 250/250/250
f 233/233/233 234/234/234 250/250/250
f 247/247/247 246/246/246 251/251/251
f 247/247/247 251/251/251 252/252/252
f 246/246/246 249/249/249 253/253/253
f 246/246/246 253/253/253 251/251/251
f 248/248/248 242/242/242 254/254/254
f 242/242/242 250/250/250 254/254/254
f 249/249/249 248/248/248 255/255/255
f 249/249/249 255/255/255 253/253/253
f 248/248/248 254/254/254 255/255/255
f 252/252/252 251/251/251 256/256/256
f 252/252/252 256/256/256 257/257/257
f 251/251/251 253/253/253 258/258/258
f 251/251/251 258/258/258 256/256/256
f 253/253/253 255/255/255 259/259/259
f 253/253/253 259/259/259 258/258/258
f 255/255/255 254/254/254 260/260/260
f 255/255/255 260/260/260 259/259/259
f 254/254/254 250/250/250 261/261/261
f 254/254/254 261/261/261 260/260/260
f 257/257/257 256/256/256 262/262/262
f 257/257/257 262/262/262 263/263/263
f 256/256/256 258/258/258 264/264/264
f 256/256/256 264/264/264 262/262/262
f 258/258/258 259/259/259 265/265/265
f 258/258/258 265/265/265 264/264/264
f 259/259/259 260/260/260 266/266/266
f 259/259/259 266/266/266 265/265/265
f 263/263/263 262/262/262 267/267/267
f 263/263/263 267/267/267 268/268/268
f 262/262/262 264/264/264 269/269/269
f 262/262/262 269/269/269 267/267/267
f 264/264/264 265/265/265 270/270/270
f 264/264/264 270/270/270 269/269/269
f 268/268/268 267/267/267 271/271/271
f 268/268/268 271/271/271 272/272/272
f 267/267/267 269/269/269 273/273/273
f 267/267/267 273/273/273 271/271/271
f 272/272/272 271/271/271 274/274/274
f 272/272/272 274/274/274 275/275/275
f 260/260/260 276/276/276 266/266/266
f 260/260/260 261/261/261 276/276/276
f 265/265/265 266/266/266 277/277/277
f 265/265/265 277/277/277 270/270/270
f 269/269/269 270/270/270 278/278/278
f 269/269/269 278/278/278 273/273/273
f 271/271/271 273/273/273 279/279/279
f 271/271/271 279/279/279 274/274/274
f 275/275/275 274/274/274 280/280/280
f 275/275/275 280/280/280 281/281/281
f 266/266/266 276/276/276 282/282/282
f 266/266/266 282/282/282 277/277/277
f 270/270/270 277/277/277 283/283/283
f 270/270/270 283/283/283 278/278/278
f 273/273/273 278/278/278 284/284/284
f 273/273/273 284/284/284 279/279/279
f 274/274/274 279/279/279 285/285/285
f 274/274/274 285/285/285 280/280/280
f 281/281/281 280/280/280 286/286/286
f 281/281/281 286/286/286 45/45/45
f 45/45/45 286/286/286 44/44/44
f 286/286/286 53/53/53 44/44/44
f 280/280/280 287/287/287 286/286/286
f 286/286/286 287/287/287 53/53/53
f 280/280/280 285/285/285 287/287/287
f 279/279/279 288/288/288 285/285/285
f 279/279/279 284/284/284 288/288/288
f 278/278/278 289/289/289 284/284/284
f 278/278/278 283/283/283 289/289/289
f 287/287/287 290/290/290 53/53/53
f 53/53/53 290/290/290 52/52/52
f 290/290/290 60/60/60 52/52/52
f 285/285/285 291/291/291 287/287/287
f 287/287/287 291/291/291 290/290/290
f 285/285/285 288/288/288 291/291/291
f 284/284/284 292/292/292 288/288/288
f 284/284/284 289/289/289 292/292/292
f 290/290/290 293/293/293 60/60/60
f 291/291/291 293/293/293 290/290/290
f 288/288/288 294/294/294 291/291/291
f 288/288/288 292/292/292 294/294/294
f 291/291/291 294/294/294 293/293/293
f 293/293/293 295/295/295 60/60/60
f 60/60/60 295/295/295 59/59/59
f 295/295/295 66/66/66 59/59/59
f 294/294/294 296/296/296 293/293/293
f 293/293/293 296/296/296 295/295/295
f 292/292/292 297/297/297 294/294/294
f 294/294/294 297/297/297 296/296/296
f 289/289/289 298/298/298 292/292/292
f 292/292/292 298/298/298 297/297/297
f 295/295/295 299/299/299 66/66/66
f 296/296/296 299/299/299 295/295/295
f 297/297/297 300/300/300 296/296/296
f 296/296/296 300/300/300 299/299/299
f 299/299/299 301/301/301 66/66/66
f 66/66/66 301/301/301 65/65/65
f 301/301/301 71/71/71 65/65/65
f 299/299/299 302/302/302 301/301/301
f 300/300/300 302/302/302 299/299/299
f 301/301/301 303/303/303 71/71/71
f 302/302/302 303/303/303 301/301/301
f 303/303/303 86/86/86 71/71/71
f 297/297/297 304/304/304 300/300/300
f 298/298/298 304/304/304 297/297/297
f 289/289/289 305/305/305 298/298/298
f 283/283/283 305/305/305 289/289/289
f 300/300/300 306/306/306 302/302/302
f 304/304/304 306/306/306 300/300/300
f 303/303/303 307/307/307 86/86/86
f 307/307/307 91/91/91 86/86/86
f 307/307/307 102/102/102 91/91/91
f 302/302/302 308/308/308 303/303/303
f 308/308/308 307/307/307 303/303/303
f 306/306/306 308/308/308 302/302/302
f 309/309/309 102/102/102 307/307/307
f 308/308/308 309/309/309 307/307/307
f 309/309/309 117/117/117 102/102/102
f 298/298/298 310/310/310 304/304/304
f 305/305/305 310/310/310 298/298/298
f 283/283/283 311/311/311 305/305/305
f 277/277/277 311/311/311 283/283/283
f 277/277/277 282/282/282 311/311/311
f 306/306/306 312/312/312 308/308/308
f 312/312/312 309/309/309 308/308/308
f 313/313/313 117/117/117 309/309/309
f 312/312/312 313/313/313 309/309/309
f 313/313/313 123/123/123 117/117/117
f 304/304/304 314/314/314 306/306/306
f 314/314/314 312/312/312 306/306/306
f 310/310/310 314/314/314 304/304/304
f 305/305/305 315/315/315 310/310/310
f 311/311/311 315/315/315 305/305/305
f 282/282/282 316/316/316 311/311/311
f 311/311/311 316/316/316 315/315/315
f 317/317/317 123/123/123 313/313/313
f 317/317/317 129/129/129 123/123/123
f 318/318/318 313/313/313 312/312/312
f 314/314/314 318/318/318 312/312/312
f 318/318/318 317/317/317 313/313/313
f 310/310/310 319/319/319 314/314/314
f 315/315/315 319/319/319 310/310/310
f 319/319/319 318/318/318 314/314/314
f 320/320/320 129/129/129 317/317/317
f 320/320/320 135/135/135 129/129/129
f 321/321/321 317/317/317 318/318/318
f 319/319/319 321/321/321 318/318/318
f 321/321/321 320/320/320 317/317/317
f 315/315/315 322/322/322 319/319/319
f 322/322/322 321/321/321 319/319/319
f 316/316/316 322/322/322 315/315/315
f 323/323/323 135/135/135 320/320/320
f 323/323/323 141/141/141 135/135/135
f 324/324/324 320/320/320 321/321/321
f 322/322/322 324/324/324 321/321/321
f 324/324/324 323/323/323 320/320/320
f 316/316/316 325/325/325 322/322/322
f 325/325/325 324/324/324 322/322/322
f 326/326/326 141/141/141 323/323/323
f 326/326/326 147/147/147 141/141/141
f 327/327/327 323/323/323 324/324/324
f 325/325/325 327/327/327 324/324/324
f 327/327/327 326/326/326 323/323/323
f 328/328/328 325/325/325 316/316/316
f 282/282/282 328/328/328 316/316/316
f 276/276/276 328/328/328 282/282/282
f 329/329/329 147/147/147 326/326/326
f 329/329/329 153/153/153 147/147/147
f 221/221/221 153/153/153 329/329/329
f 330/330/330 326/326/326 327/327/327
f 330/330/330 329/329/329 326/326/326
f 331/331/331 327/327/327 325/325/325
f 328/328/328 331/331/331 325/325/325
f 331/331/331 330/330/330 327/327/327
f 276/276/276 332/332/332 328/328/328
f 332/332/332 331/331/331 328/328/328
f 261/261/261 332/332/332 276/276/276
f 333/333/333 221/221/221 329/329/329
f 333/333/333 329/329/329 330/330/330
f 222/222/222 221/221/221 333/333/333
f 334/334/334 330/330/330 331/331/331
f 332/332/332 334/334/334 331/331/331
f 334/334/334 333/333/333 330/330/330
f 261/261/261 335/335/335 332/332/332
f 335/335/335 334/334/334 332/332/332
f 250/250/250 335/335/335 261/261/261
f 250/250/250 234/234/234 335/335/335
f 336/336/336 222/222/222 333/333/333
f 336/336/336 333/333/333 334/334/334
f 335/335/335 336/336/336 334/334/334
f 234/234/234 336/336/336 335/335/335
f 223/223/223 222/222/222 336/336/336
f 234/234/234 223/223/223 336/336/336
