g Md_CMN_Ring_01
v 0.4594096 -0.1913417 -0.048285946
v 0.47584945 -0.14514232 -0.050013848
v 0.4518456 -0.1913417 -0.096042804
v 0.46801487 -0.14514232 -0.099479675
v 0.48770666 -0.09754512 -0.051260088
v 0.4393311 -0.1913417 -0.1427474
v 0.47967678 -0.09754512 -0.1019585
v 0.4948669 -0.049008507 -0.052012667
v 0.45505252 -0.14514232 -0.1478556
v 0.42200324 -0.1913417 -0.18788801
v 0.48671916 -0.049008507 -0.10345541
v 0.49726135 0 -0.052264325
v 0.43710458 -0.14514232 -0.19461155
v 0.40005183 -0.1913417 -0.23097008
v 0.46639147 -0.09754512 -0.15153985
v 0.4890742 0 -0.10395599
v 0.4948669 0.049008507 -0.052012667
v 0.41436762 -0.14514232 -0.2392353
v 0.37371737 -0.1913417 -0.27152163
v 0.44799632 -0.09754512 -0.19946086
v 0.4732388 -0.049008507 -0.15376468
v 0.48671916 0.049008507 -0.10345541
v 0.48770666 0.09754512 -0.051260088
v 0.38709074 -0.14514232 -0.28123793
v 0.34328833 -0.1913417 -0.30909827
v 0.47552863 0 -0.15450868
v 0.42469278 -0.09754512 -0.24519655
v 0.45457354 -0.049008507 -0.20238926
v 0.47967678 0.09754512 -0.1019585
v 0.47584945 0.14514232 -0.050013848
v 0.35557285 -0.14514232 -0.3201593
v 0.30909818 -0.1913417 -0.34328836
v 0.4732388 0.049008507 -0.15376468
v 0.45677307 0 -0.20336853
v 0.39673626 -0.09754512 -0.28824583
v 0.4309279 -0.049008507 -0.24879642
v 0.46801487 0.14514232 -0.099479675
v 0.4594096 0.1913417 -0.048285946
v 0.4518456 0.1913417 -0.096042804
v 0.32015923 -0.14514232 -0.3555729
v 0.27152154 -0.1913417 -0.37371743
v 0.46639147 0.09754512 -0.15153985
v 0.45505252 0.14514232 -0.1478556
v 0.4393311 0.1913417 -0.1427474
v 0.36443296 -0.09754512 -0.328137
v 0.40256095 -0.049008507 -0.29247773
v 0.28123787 -0.14514232 -0.3870908
v 0.23097001 -0.1913417 -0.40005183
v 0.45457354 0.049008507 -0.20238926
v 0.43301302 0 -0.2500002
v 0.43710458 0.14514232 -0.19461155
v 0.42200324 0.1913417 -0.18788801
v 0.44799632 0.09754512 -0.19946086
v 0.4309279 0.049008507 -0.24879642
v 0.40450877 0 -0.2938929
v 0.41436762 0.14514232 -0.2392353
v 0.40005183 0.1913417 -0.23097008
v 0.42469278 0.09754512 -0.24519655
v 0.38709074 0.14514232 -0.28123793
v 0.37371737 0.1913417 -0.27152163
v 0.40256095 0.049008507 -0.29247773
v 0.39673626 0.09754512 -0.28824583
v 0.36978343 -0.049008507 -0.33295456
v 0.35557285 0.14514232 -0.3201593
v 0.34328833 0.1913417 -0.30909827
v 0.36443296 0.09754512 -0.328137
v 0.37157264 0 -0.33456558
v 0.36978343 0.049008507 -0.33295456
v 0.3281369 -0.09754512 -0.36443305
v 0.32015923 0.14514232 -0.3555729
v 0.30909818 0.1913417 -0.34328836
v 0.3281369 0.09754512 -0.36443305
v 0.33295447 0.049008507 -0.36978346
v 0.33295447 -0.049008507 -0.36978346
v 0.3345655 0 -0.37157267
v 0.28824574 -0.09754512 -0.3967363
v 0.28123787 0.14514232 -0.3870908
v 0.27152154 0.1913417 -0.37371743
v 0.28824574 0.09754512 -0.3967363
v 0.29247764 0.049008507 -0.40256098
v 0.29247764 -0.049008507 -0.40256098
v 0.2938928 0 -0.40450877
v 0.23923522 -0.14514232 -0.41436762
v 0.18788794 -0.1913417 -0.4220032
v 0.23923522 0.14514232 -0.41436762
v 0.23097001 0.1913417 -0.40005183
v 0.24519648 0.09754512 -0.42469278
v 0.24879633 0.049008507 -0.4309279
v 0.25000015 0 -0.43301302
v 0.24519648 -0.09754512 -0.42469278
v 0.19461145 -0.14514232 -0.43710455
v 0.1427473 -0.1913417 -0.43933108
v 0.24879633 -0.049008507 -0.4309279
v 0.14785548 -0.14514232 -0.45505247
v 0.096042685 -0.1913417 -0.45184553
v 0.19946077 -0.09754512 -0.4479963
v 0.20238914 -0.049008507 -0.4545735
v 0.20336841 0 -0.45677307
v 0.09947957 -0.14514232 -0.46801475
v 0.04828583 -0.1913417 -0.45940948
v 0.15153973 -0.09754512 -0.4663914
v 0.050013736 -0.14514232 -0.47584933
v -4.474235E-08 -0.1913417 -0.46194002
v 0.15376456 -0.049008507 -0.47323874
v 0.10195838 -0.09754512 -0.4796767
v 0.20238914 0.049008507 -0.4545735
v -4.6343448E-08 -0.14514232 -0.47847044
v -0.04828592 -0.1913417 -0.45940948
v 0.15450856 0 -0.47552857
v 0.05125997 -0.09754512 -0.48770654
v 0.10345528 -0.049008507 -0.48671904
v 0.19946077 0.09754512 -0.4479963
v -0.050013825 -0.14514232 -0.47584933
v -0.096042775 -0.1913417 -0.45184553
v 0.15376456 0.049008507 -0.47323874
v 0.10395586 0 -0.4890741
v -4.749823E-08 -0.09754512 -0.49039295
v 0.052012544 -0.049008507 -0.49486682
v 0.19461145 0.14514232 -0.43710455
v 0.18788794 0.1913417 -0.4220032
v -0.099479645 -0.14514232 -0.46801475
v -0.14274736 -0.1913417 -0.43933108
v 0.15153973 0.09754512 -0.4663914
v 0.14785548 0.14514232 -0.45505247
v 0.1427473 0.1913417 -0.43933108
v -0.051260065 -0.09754512 -0.48770654
v -4.8195574E-08 -0.049008507 -0.49759266
v -0.14785555 -0.14514232 -0.45505244
v -0.18788798 -0.1913417 -0.4220032
v 0.10345528 0.049008507 -0.48671904
v 0.052264214 0 -0.49726123
v 0.09947957 0.14514232 -0.46801475
v 0.096042685 0.1913417 -0.45184553
v 0.10195838 0.09754512 -0.4796767
v 0.052012544 0.049008507 -0.49486682
v -4.8428774E-08 0 -0.5000003
v 0.050013736 0.14514232 -0.47584933
v 0.04828583 0.1913417 -0.45940948
v 0.05125997 0.09754512 -0.48770654
v -4.6343448E-08 0.14514232 -0.47847044
v -4.474235E-08 0.1913417 -0.46194002
v -4.8195574E-08 0.049008507 -0.49759266
v -4.749823E-08 0.09754512 -0.49039295
v -0.05201264 -0.049008507 -0.49486682
v -0.050013825 0.14514232 -0.47584933
v -0.04828592 0.1913417 -0.45940948
v -0.051260065 0.09754512 -0.48770654
v -0.052264307 0 -0.49726123
v -0.05201264 0.049008507 -0.49486682
v -0.101958476 -0.09754512 -0.4796767
v -0.099479645 0.14514232 -0.46801475
v -0.096042775 0.1913417 -0.45184553
v -0.101958476 0.09754512 -0.4796767
v -0.10345538 0.049008507 -0.48671904
v -0.10345538 -0.049008507 -0.48671904
v -0.10395595 0 -0.4890741
v -0.1515398 -0.09754512 -0.4663914
v -0.14785555 0.14514232 -0.45505244
v -0.14274736 0.1913417 -0.43933108
v -0.1515398 0.09754512 -0.4663914
v -0.15376464 0.049008507 -0.4732387
v -0.15376464 -0.049008507 -0.4732387
v -0.15450864 0 -0.4755285
v -0.1946115 -0.14514232 -0.4371045
v -0.23097004 -0.1913417 -0.40005174
v -0.1946115 0.14514232 -0.4371045
v -0.18788798 0.1913417 -0.4220032
v -0.19946082 0.09754512 -0.4479962
v -0.2023892 0.049008507 -0.45457348
v -0.20336847 0 -0.45677298
v -0.19946082 -0.09754512 -0.4479962
v -0.23923524 -0.14514232 -0.41436756
v -0.27152157 -0.1913417 -0.37371725
v -0.2023892 -0.049008507 -0.45457348
v -0.28123787 -0.14514232 -0.38709068
v -0.30909818 -0.1913417 -0.34328827
v -0.24519649 -0.09754512 -0.42469272
v -0.24879636 -0.049008507 -0.43092784
v -0.25000018 0 -0.4330129
v -0.32015926 -0.14514232 -0.35557276
v -0.34328833 -0.1913417 -0.30909815
v -0.28824577 -0.09754512 -0.39673617
v -0.35557285 -0.14514232 -0.32015917
v -0.37371725 -0.1913417 -0.27152148
v -0.29247767 -0.049008507 -0.40256086
v -0.32813692 -0.09754512 -0.3644329
v -0.24879636 0.049008507 -0.43092784
v -0.38709068 -0.14514232 -0.2812378
v -0.4000517 -0.1913417 -0.23096998
v -0.2938928 0 -0.40450865
v -0.36443296 -0.09754512 -0.32813686
v -0.33295447 -0.049008507 -0.3697833
v -0.24519649 0.09754512 -0.42469272
v -0.41436753 -0.14514232 -0.23923516
v -0.42200312 -0.1913417 -0.18788789
v -0.29247767 0.049008507 -0.40256086
v -0.33456555 0 -0.37157255
v -0.39673617 -0.09754512 -0.28824568
v -0.3697834 -0.049008507 -0.3329544
v -0.23923524 0.14514232 -0.41436756
v -0.23097004 0.1913417 -0.40005174
v -0.43710443 -0.14514232 -0.19461143
v -0.43933097 -0.1913417 -0.14274728
v -0.28824577 0.09754512 -0.39673617
v -0.28123787 0.14514232 -0.38709068
v -0.27152157 0.1913417 -0.37371725
v -0.4246927 -0.09754512 -0.24519642
v -0.40256086 -0.049008507 -0.29247758
v -0.45505232 -0.14514232 -0.14785545
v -0.45184544 -0.1913417 -0.096042685
v -0.33295447 0.049008507 -0.3697833
v -0.3715726 0 -0.33456543
v -0.32015926 0.14514232 -0.35557276
v -0.30909818 0.1913417 -0.34328827
v -0.32813692 0.09754512 -0.3644329
v -0.3697834 0.049008507 -0.3329544
v -0.40450865 0 -0.29389274
v -0.35557285 0.14514232 -0.32015917
v -0.34328833 0.1913417 -0.30909815
v -0.36443296 0.09754512 -0.32813686
v -0.38709068 0.14514232 -0.2812378
v -0.37371725 0.1913417 -0.27152148
v -0.40256086 0.049008507 -0.29247758
v -0.39673617 0.09754512 -0.28824568
v -0.4309278 -0.049008507 -0.24879627
v -0.41436753 0.14514232 -0.23923516
v -0.4000517 0.1913417 -0.23096998
v -0.4246927 0.09754512 -0.24519642
v -0.43301287 0 -0.2500001
v -0.4309278 0.049008507 -0.24879627
v -0.44799617 -0.09754512 -0.19946073
v -0.43710443 0.14514232 -0.19461143
v -0.42200312 0.1913417 -0.18788789
v -0.44799617 0.09754512 -0.19946073
v -0.4545734 0.049008507 -0.2023891
v -0.4545734 -0.049008507 -0.2023891
v -0.45677295 0 -0.2033684
v -0.4663913 -0.09754512 -0.15153971
v -0.45505232 0.14514232 -0.14785545
v -0.43933097 0.1913417 -0.14274728
v -0.4663913 0.09754512 -0.15153971
v -0.47323862 0.049008507 -0.15376455
v -0.47323862 -0.049008507 -0.15376455
v -0.47552845 0 -0.15450855
v -0.4680146 -0.14514232 -0.09947957
v -0.4594094 -0.1913417 -0.048285857
v -0.4680146 0.14514232 -0.09947957
v -0.45184544 0.1913417 -0.096042685
v -0.47967657 0.09754512 -0.10195838
v -0.48671892 0.049008507 -0.10345528
v -0.48907402 0 -0.10395586
v -0.47967657 -0.09754512 -0.10195838
v -0.4758492 -0.14514232 -0.050013755
v -0.46193996 -0.1913417 1.7208597E-08
v -0.48671892 -0.049008507 -0.10345528
v -0.47847033 -0.14514232 1.7824403E-08
v -0.45940936 -0.1913417 0.048285883
v -0.48770645 -0.09754512 -0.051259987
v -0.4948667 -0.049008507 -0.052012566
v -0.4972611 0 -0.052264232
v -0.4758492 -0.14514232 0.050013784
v -0.45184538 -0.1913417 0.096042715
v -0.49039283 -0.09754512 1.826855E-08
v -0.46801457 -0.14514232 0.09947959
v -0.43933097 -0.1913417 0.1427473
v -0.49759254 -0.049008507 1.853676E-08
v -0.4877064 -0.09754512 0.05126002
v -0.4948667 0.049008507 -0.052012566
v -0.45505232 -0.14514232 0.14785548
v -0.4220031 -0.1913417 0.18788789
v -0.5000002 0 1.8626451E-08
v -0.47967654 -0.09754512 0.10195842
v -0.49486667 -0.049008507 0.0520126
v -0.48770645 0.09754512 -0.051259987
v -0.43710437 -0.14514232 0.19461143
v -0.40005165 -0.1913417 0.23096998
v -0.49759254 0.049008507 1.853676E-08
v -0.4972611 0 0.052264266
v -0.4663913 -0.09754512 0.15153973
v -0.48671892 -0.049008507 0.10345532
v -0.4758492 0.14514232 -0.050013755
v -0.4594094 0.1913417 -0.048285857
v -0.41436744 -0.14514232 0.23923516
v -0.37371716 -0.1913417 0.27152148
v -0.49039283 0.09754512 1.826855E-08
v -0.47847033 0.14514232 1.7824403E-08
v -0.46193996 0.1913417 1.7208597E-08
v -0.44799608 -0.09754512 0.19946073
v -0.4732386 -0.049008507 0.15376456
v -0.3870906 -0.14514232 0.2812378
v -0.34328818 -0.1913417 0.30909815
v -0.49486667 0.049008507 0.0520126
v -0.48907396 0 0.10395589
v -0.4758492 0.14514232 0.050013784
v -0.45940936 0.1913417 0.048285883
v -0.4877064 0.09754512 0.05126002
v -0.48671892 0.049008507 0.10345532
v -0.4755284 0 0.15450856
v -0.46801457 0.14514232 0.09947959
v -0.45184538 0.1913417 0.096042715
v -0.47967654 0.09754512 0.10195842
v -0.45505232 0.14514232 0.14785548
v -0.43933097 0.1913417 0.1427473
v -0.4732386 0.049008507 0.15376456
v -0.4663913 0.09754512 0.15153973
v -0.45457336 -0.049008507 0.2023891
v -0.43710437 0.14514232 0.19461143
v -0.4220031 0.1913417 0.18788789
v -0.44799608 0.09754512 0.19946073
v -0.45677286 0 0.2033684
v -0.45457336 0.049008507 0.2023891
v -0.42469257 -0.09754512 0.24519642
v -0.41436744 0.14514232 0.23923516
v -0.40005165 0.1913417 0.23096998
v -0.42469257 0.09754512 0.24519642
v -0.4309277 0.049008507 0.24879627
v -0.4309277 -0.049008507 0.24879627
v -0.4330128 0 0.2500001
v -0.39673606 -0.09754512 0.28824568
v -0.3870906 0.14514232 0.2812378
v -0.37371716 0.1913417 0.27152148
v -0.39673606 0.09754512 0.28824568
v -0.40256077 0.049008507 0.29247758
v -0.40256077 -0.049008507 0.29247758
v -0.4045086 0 0.29389274
v -0.35557264 -0.14514232 0.32015917
v -0.30909806 -0.1913417 0.3432882
v -0.35557264 0.14514232 0.32015917
v -0.34328818 0.1913417 0.30909815
v -0.3644328 0.09754512 0.32813686
v -0.36978325 0.049008507 0.3329544
v -0.37157243 0 0.33456543
v -0.3644328 -0.09754512 0.32813686
v -0.32015908 -0.14514232 0.35557273
v -0.2715214 -0.1913417 0.37371716
v -0.36978325 -0.049008507 0.3329544
v -0.28123775 -0.14514232 0.3870906
v -0.23096986 -0.1913417 0.4000516
v -0.32813674 -0.09754512 0.36443287
v -0.33295432 -0.049008507 0.3697833
v -0.33456534 0 0.37157252
v -0.23923507 -0.14514232 0.4143674
v -0.1878878 -0.1913417 0.422003
v -0.2882456 -0.09754512 0.39673606
v -0.19461134 -0.14514232 0.43710434
v -0.14274721 -0.1913417 0.43933085
v -0.2924775 -0.049008507 0.40256077
v -0.24519631 -0.09754512 0.42469257
v -0.33295432 0.049008507 0.3697833
v -0.14785539 -0.14514232 0.45505223
v -0.09604264 -0.1913417 0.45184532
v -0.29389265 0 0.4045086
v -0.19946064 -0.09754512 0.44799605
v -0.24879616 -0.049008507 0.4309277
v -0.32813674 0.09754512 0.36443287
v -0.099479504 -0.14514232 0.4680145
v -0.04828581 -0.1913417 0.4594093
v -0.2924775 0.049008507 0.40256077
v -0.25 0 0.43301275
v -0.15153964 -0.09754512 0.46639118
v -0.20238903 -0.049008507 0.45457327
v -0.32015908 0.14514232 0.35557273
v -0.30909806 0.1913417 0.3432882
v -0.050013706 -0.14514232 0.4758491
v 4.818407E-08 -0.1913417 0.46193984
v -0.2882456 0.09754512 0.39673606
v -0.28123775 0.14514232 0.3870906
v -0.2715214 0.1913417 0.37371716
v -0.10195832 -0.09754512 0.47967646
v -0.15376446 -0.049008507 0.47323853
v 4.990833E-08 -0.14514232 0.4784702
v 0.04828591 -0.1913417 0.45940924
v -0.24879616 0.049008507 0.4309277
v -0.20336829 0 0.45677274
v -0.23923507 0.14514232 0.4143674
v -0.23096986 0.1913417 0.4000516
v -0.24519631 0.09754512 0.42469257
v -0.20238903 0.049008507 0.45457327
v -0.15450847 0 0.47552833
v -0.19461134 0.14514232 0.43710434
v -0.1878878 0.1913417 0.422003
v -0.19946064 0.09754512 0.44799605
v -0.14785539 0.14514232 0.45505223
v -0.14274721 0.1913417 0.43933085
v -0.15376446 0.049008507 0.47323853
v -0.15153964 0.09754512 0.46639118
v -0.10345522 -0.049008507 0.4867188
v -0.099479504 0.14514232 0.4680145
v -0.09604264 0.1913417 0.45184532
v -0.10195832 0.09754512 0.47967646
v -0.1039558 0 0.4890739
v -0.10345522 0.049008507 0.4867188
v -0.051259946 -0.09754512 0.48770633
v -0.050013706 0.14514232 0.4758491
v -0.04828581 0.1913417 0.4594093
v -0.051259946 0.09754512 0.48770633
v -0.052012518 0.049008507 0.49486658
v -0.052012518 -0.049008507 0.49486658
v -0.052264187 0 0.497261
v 5.115194E-08 -0.09754512 0.4903927
v 4.990833E-08 0.14514232 0.4784702
v 4.818407E-08 0.1913417 0.46193984
v 5.115194E-08 0.09754512 0.4903927
v 5.1902923E-08 0.049008507 0.49759242
v 5.1902923E-08 -0.049008507 0.49759242
v 5.2154064E-08 0 0.50000006
v 0.050013803 -0.14514232 0.47584906
v 0.09604273 -0.1913417 0.4518453
v 0.050013803 0.14514232 0.47584906
v 0.04828591 0.1913417 0.45940924
v 0.051260047 0.09754512 0.48770627
v 0.052012622 0.049008507 0.49486655
v 0.052264284 0 0.49726096
v 0.051260047 -0.09754512 0.48770627
v 0.09947959 -0.14514232 0.46801448
v 0.1427473 -0.1913417 0.43933085
v 0.052012622 -0.049008507 0.49486655
v 0.14785548 -0.14514232 0.45505223
v 0.18788788 -0.1913417 0.42200297
v 0.10195842 -0.09754512 0.47967646
v 0.103455335 -0.049008507 0.4867188
v 0.103955895 0 0.48907384
v 0.19461142 -0.14514232 0.43710428
v 0.23096994 -0.1913417 0.40005156
v 0.15153973 -0.09754512 0.46639118
v 0.23923513 -0.14514232 0.41436735
v 0.27152142 -0.1913417 0.37371707
v 0.15376456 -0.049008507 0.47323847
v 0.19946072 -0.09754512 0.447996
v 0.103455335 0.049008507 0.4867188
v 0.28123778 -0.14514232 0.38709047
v 0.3090981 -0.1913417 0.34328812
v 0.15450856 0 0.4755283
v 0.24519637 -0.09754512 0.42469248
v 0.2023891 -0.049008507 0.45457324
v 0.10195842 0.09754512 0.47967646
v 0.3201591 -0.14514232 0.3555726
v 0.34328818 -0.1913417 0.309098
v 0.15376456 0.049008507 0.47323847
v 0.20336837 0 0.4567727
v 0.2882456 -0.09754512 0.396736
v 0.24879625 -0.049008507 0.4309276
v 0.09947959 0.14514232 0.46801448
v 0.09604273 0.1913417 0.4518453
v 0.35557264 -0.14514232 0.32015902
v 0.3737171 -0.1913417 0.27152136
v 0.15153973 0.09754512 0.46639118
v 0.14785548 0.14514232 0.45505223
v 0.1427473 0.1913417 0.43933085
v 0.32813677 -0.09754512 0.36443275
v 0.29247752 -0.049008507 0.40256068
v 0.38709053 -0.14514232 0.28123772
v 0.40005156 -0.1913417 0.23096986
v 0.2023891 0.049008507 0.45457324
v 0.25000006 0 0.4330127
v 0.19461142 0.14514232 0.43710428
v 0.18788788 0.1913417 0.42200297
v 0.19946072 0.09754512 0.447996
v 0.24879625 0.049008507 0.4309276
v 0.29389268 0 0.4045085
v 0.23923513 0.14514232 0.41436735
v 0.23096994 0.1913417 0.40005156
v 0.24519637 0.09754512 0.42469248
v 0.28123778 0.14514232 0.38709047
v 0.27152142 0.1913417 0.37371707
v 0.29247752 0.049008507 0.40256068
v 0.2882456 0.09754512 0.396736
v 0.33295432 -0.049008507 0.3697832
v 0.3201591 0.14514232 0.3555726
v 0.3090981 0.1913417 0.34328812
v 0.32813677 0.09754512 0.36443275
v 0.33456537 0 0.3715724
v 0.33295432 0.049008507 0.3697832
v 0.3644328 -0.09754512 0.3281367
v 0.35557264 0.14514232 0.32015902
v 0.34328818 0.1913417 0.309098
v 0.3644328 0.09754512 0.3281367
v 0.36978325 0.049008507 0.33295426
v 0.36978325 -0.049008507 0.33295426
v 0.37157243 0 0.3345653
v 0.39673603 -0.09754512 0.28824553
v 0.38709053 0.14514232 0.28123772
v 0.3737171 0.1913417 0.27152136
v 0.39673603 0.09754512 0.28824553
v 0.4025607 0.049008507 0.29247746
v 0.4025607 -0.049008507 0.29247746
v 0.4045085 0 0.29389262
v 0.41436735 -0.14514232 0.23923507
v 0.42200297 -0.1913417 0.18788782
v 0.41436735 0.14514232 0.23923507
v 0.40005156 0.1913417 0.23096986
v 0.42469248 0.09754512 0.24519631
v 0.4309276 0.049008507 0.24879616
v 0.4330127 0 0.25
v 0.42469248 -0.09754512 0.24519631
v 0.43710428 -0.14514232 0.19461136
v 0.43933082 -0.1913417 0.14274724
v 0.4309276 -0.049008507 0.24879616
v 0.45505217 -0.14514232 0.14785542
v 0.45184523 -0.1913417 0.09604268
v 0.447996 -0.09754512 0.19946066
v 0.45457324 -0.049008507 0.20238905
v 0.4567727 0 0.20336832
v 0.46801445 -0.14514232 0.09947955
v 0.4594092 -0.1913417 0.048285857
v 0.46639115 -0.09754512 0.15153967
v 0.47584906 -0.14514232 0.050013755
v 0.46193972 -0.1913417 0
v 0.47323844 -0.049008507 0.1537645
v 0.47967643 -0.09754512 0.101958364
v 0.45457324 0.049008507 0.20238905
v 0.47847015 -0.14514232 0
v 0.4594096 -0.1913417 -0.048285946
v 0.47584945 -0.14514232 -0.050013848
v 0.4755283 0 0.1545085
v 0.48770624 -0.09754512 0.051259987
v 0.49039263 -0.09754512 0
v 0.48770666 -0.09754512 -0.051260088
v 0.48671877 -0.049008507 0.10345527
v 0.447996 0.09754512 0.19946066
v 0.49486652 -0.049008507 0.052012566
v 0.49759233 -0.049008507 0
v 0.4948669 -0.049008507 -0.052012667
v 0.4890738 0 0.10395585
v 0.47323844 0.049008507 0.1537645
v 0.43710428 0.14514232 0.19461136
v 0.42200297 0.1913417 0.18788782
v 0.49726096 0 0.052264232
v 0.5 0 0
v 0.49726135 0 -0.052264325
v 0.48671877 0.049008507 0.10345527
v 0.46639115 0.09754512 0.15153967
v 0.45505217 0.14514232 0.14785542
v 0.43933082 0.1913417 0.14274724
v 0.49486652 0.049008507 0.052012566
v 0.49759233 0.049008507 0
v 0.4948669 0.049008507 -0.052012667
v 0.47967643 0.09754512 0.101958364
v 0.46801445 0.14514232 0.09947955
v 0.45184523 0.1913417 0.09604268
v 0.48770624 0.09754512 0.051259987
v 0.49039263 0.09754512 0
v 0.48770666 0.09754512 -0.051260088
v 0.47584906 0.14514232 0.050013755
v 0.4594092 0.1913417 0.048285857
v 0.47847015 0.14514232 0
v 0.47584945 0.14514232 -0.050013848
v 0.46193972 0.1913417 0
v 0.4594096 0.1913417 -0.048285946
vt 0 0.0013330281
vt 0 0.12599984
vt 0.016666621 0.0013330281
vt 0.016666621 0.12599984
vt 0 0.25066656
vt 0.03333327 0.0013330281
vt 0.016666621 0.25066656
vt 0 0.37533337
vt 0.03333327 0.12599984
vt 0.05000007 0.0013330281
vt 0.016666621 0.37533337
vt 0 0.49999994
vt 0.05000007 0.12599984
vt 0.06666663 0.0013330281
vt 0.03333327 0.25066656
vt 0.016666621 0.49999994
vt 0 0.62466663
vt 0.06666663 0.12599984
vt 0.08333331 0.0013330281
vt 0.05000007 0.25066656
vt 0.03333327 0.37533337
vt 0.016666621 0.62466663
vt 0 0.7493335
vt 0.08333331 0.12599984
vt 0.10000005 0.0013330281
vt 0.03333327 0.49999994
vt 0.06666663 0.25066656
vt 0.05000007 0.37533337
vt 0.016666621 0.7493335
vt 0 0.8740003
vt 0.10000005 0.12599984
vt 0.116666615 0.0013330281
vt 0.03333327 0.62466663
vt 0.05000007 0.49999994
vt 0.08333331 0.25066656
vt 0.06666663 0.37533337
vt 0.016666621 0.8740003
vt 0 0.998667
vt 0.016666621 0.998667
vt 0.116666615 0.12599984
vt 0.13333336 0.0013330281
vt 0.03333327 0.7493335
vt 0.03333327 0.8740003
vt 0.03333327 0.998667
vt 0.10000005 0.25066656
vt 0.08333331 0.37533337
vt 0.13333336 0.12599984
vt 0.15 0.0013330281
vt 0.05000007 0.62466663
vt 0.06666663 0.49999994
vt 0.05000007 0.8740003
vt 0.05000007 0.998667
vt 0.05000007 0.7493335
vt 0.06666663 0.62466663
vt 0.08333331 0.49999994
vt 0.06666663 0.8740003
vt 0.06666663 0.998667
vt 0.06666663 0.7493335
vt 0.08333331 0.8740003
vt 0.08333331 0.998667
vt 0.08333331 0.62466663
vt 0.08333331 0.7493335
vt 0.10000005 0.37533337
vt 0.10000005 0.8740003
vt 0.10000005 0.998667
vt 0.10000005 0.7493335
vt 0.10000005 0.49999994
vt 0.10000005 0.62466663
vt 0.116666615 0.25066656
vt 0.116666615 0.8740003
vt 0.116666615 0.998667
vt 0.116666615 0.7493335
vt 0.116666615 0.62466663
vt 0.116666615 0.37533337
vt 0.116666615 0.49999994
vt 0.13333336 0.25066656
vt 0.13333336 0.8740003
vt 0.13333336 0.998667
vt 0.13333336 0.7493335
vt 0.13333336 0.62466663
vt 0.13333336 0.37533337
vt 0.13333336 0.49999994
vt 0.15 0.12599984
vt 0.16666669 0.0013330281
vt 0.15 0.8740003
vt 0.15 0.998667
vt 0.15 0.7493335
vt 0.15 0.62466663
vt 0.15 0.49999994
vt 0.15 0.25066656
vt 0.16666669 0.12599984
vt 0.18333337 0.0013330281
vt 0.15 0.37533337
vt 0.18333337 0.12599984
vt 0.20000002 0.0013330281
vt 0.16666669 0.25066656
vt 0.16666669 0.37533337
vt 0.16666669 0.49999994
vt 0.20000002 0.12599984
vt 0.21666676 0.0013330281
vt 0.18333337 0.25066656
vt 0.21666676 0.12599984
vt 0.23333338 0.0013330281
vt 0.18333337 0.37533337
vt 0.20000002 0.25066656
vt 0.16666669 0.62466663
vt 0.23333338 0.12599984
vt 0.25000012 0.0013330281
vt 0.18333337 0.49999994
vt 0.21666676 0.25066656
vt 0.20000002 0.37533337
vt 0.16666669 0.7493335
vt 0.25000012 0.12599984
vt 0.26666674 0.0013330281
vt 0.18333337 0.62466663
vt 0.20000002 0.49999994
vt 0.23333338 0.25066656
vt 0.21666676 0.37533337
vt 0.16666669 0.8740003
vt 0.16666669 0.998667
vt 0.26666674 0.12599984
vt 0.28333336 0.0013330281
vt 0.18333337 0.7493335
vt 0.18333337 0.8740003
vt 0.18333337 0.998667
vt 0.25000012 0.25066656
vt 0.23333338 0.37533337
vt 0.28333336 0.12599984
vt 0.30000013 0.0013330281
vt 0.20000002 0.62466663
vt 0.21666676 0.49999994
vt 0.20000002 0.8740003
vt 0.20000002 0.998667
vt 0.20000002 0.7493335
vt 0.21666676 0.62466663
vt 0.23333338 0.49999994
vt 0.21666676 0.8740003
vt 0.21666676 0.998667
vt 0.21666676 0.7493335
vt 0.23333338 0.8740003
vt 0.23333338 0.998667
vt 0.23333338 0.62466663
vt 0.23333338 0.7493335
vt 0.25000012 0.37533337
vt 0.25000012 0.8740003
vt 0.25000012 0.998667
vt 0.25000012 0.7493335
vt 0.25000012 0.49999994
vt 0.25000012 0.62466663
vt 0.26666674 0.25066656
vt 0.26666674 0.8740003
vt 0.26666674 0.998667
vt 0.26666674 0.7493335
vt 0.26666674 0.62466663
vt 0.26666674 0.37533337
vt 0.26666674 0.49999994
vt 0.28333336 0.25066656
vt 0.28333336 0.8740003
vt 0.28333336 0.998667
vt 0.28333336 0.7493335
vt 0.28333336 0.62466663
vt 0.28333336 0.37533337
vt 0.28333336 0.49999994
vt 0.30000013 0.12599984
vt 0.31666684 0.0013330281
vt 0.30000013 0.8740003
vt 0.30000013 0.998667
vt 0.30000013 0.7493335
vt 0.30000013 0.62466663
vt 0.30000013 0.49999994
vt 0.30000013 0.25066656
vt 0.31666684 0.12599984
vt 0.3333335 0.0013330281
vt 0.30000013 0.37533337
vt 0.3333335 0.12599984
vt 0.35000008 0.0013330281
vt 0.31666684 0.25066656
vt 0.31666684 0.37533337
vt 0.31666684 0.49999994
vt 0.35000008 0.12599984
vt 0.36666694 0.0013330281
vt 0.3333335 0.25066656
vt 0.36666694 0.12599984
vt 0.38333353 0.0013330281
vt 0.3333335 0.37533337
vt 0.35000008 0.25066656
vt 0.31666684 0.62466663
vt 0.38333353 0.12599984
vt 0.40000018 0.0013330281
vt 0.3333335 0.49999994
vt 0.36666694 0.25066656
vt 0.35000008 0.37533337
vt 0.31666684 0.7493335
vt 0.40000018 0.12599984
vt 0.41666692 0.0013330281
vt 0.3333335 0.62466663
vt 0.35000008 0.49999994
vt 0.38333353 0.25066656
vt 0.36666694 0.37533337
vt 0.31666684 0.8740003
vt 0.31666684 0.998667
vt 0.41666692 0.12599984
vt 0.43333364 0.0013330281
vt 0.3333335 0.7493335
vt 0.3333335 0.8740003
vt 0.3333335 0.998667
vt 0.40000018 0.25066656
vt 0.38333353 0.37533337
vt 0.43333364 0.12599984
vt 0.4500003 0.0013330281
vt 0.35000008 0.62466663
vt 0.36666694 0.49999994
vt 0.35000008 0.8740003
vt 0.35000008 0.998667
vt 0.35000008 0.7493335
vt 0.36666694 0.62466663
vt 0.38333353 0.49999994
vt 0.36666694 0.8740003
vt 0.36666694 0.998667
vt 0.36666694 0.7493335
vt 0.38333353 0.8740003
vt 0.38333353 0.998667
vt 0.38333353 0.62466663
vt 0.38333353 0.7493335
vt 0.40000018 0.37533337
vt 0.40000018 0.8740003
vt 0.40000018 0.998667
vt 0.40000018 0.7493335
vt 0.40000018 0.49999994
vt 0.40000018 0.62466663
vt 0.41666692 0.25066656
vt 0.41666692 0.8740003
vt 0.41666692 0.998667
vt 0.41666692 0.7493335
vt 0.41666692 0.62466663
vt 0.41666692 0.37533337
vt 0.41666692 0.49999994
vt 0.43333364 0.25066656
vt 0.43333364 0.8740003
vt 0.43333364 0.998667
vt 0.43333364 0.7493335
vt 0.43333364 0.62466663
vt 0.43333364 0.37533337
vt 0.43333364 0.49999994
vt 0.4500003 0.12599984
vt 0.466667 0.0013330281
vt 0.4500003 0.8740003
vt 0.4500003 0.998667
vt 0.4500003 0.7493335
vt 0.4500003 0.62466663
vt 0.4500003 0.49999994
vt 0.4500003 0.25066656
vt 0.466667 0.12599984
vt 0.48333365 0.0013330281
vt 0.4500003 0.37533337
vt 0.48333365 0.12599984
vt 0.50000036 0.0013330281
vt 0.466667 0.25066656
vt 0.466667 0.37533337
vt 0.466667 0.49999994
vt 0.50000036 0.12599984
vt 0.51666695 0.0013330281
vt 0.48333365 0.25066656
vt 0.51666695 0.12599984
vt 0.5333336 0.0013330281
vt 0.48333365 0.37533337
vt 0.50000036 0.25066656
vt 0.466667 0.62466663
vt 0.5333336 0.12599984
vt 0.55000037 0.0013330281
vt 0.48333365 0.49999994
vt 0.51666695 0.25066656
vt 0.50000036 0.37533337
vt 0.466667 0.7493335
vt 0.55000037 0.12599984
vt 0.56666714 0.0013330281
vt 0.48333365 0.62466663
vt 0.50000036 0.49999994
vt 0.5333336 0.25066656
vt 0.51666695 0.37533337
vt 0.466667 0.8740003
vt 0.466667 0.998667
vt 0.56666714 0.12599984
vt 0.5833336 0.0013330281
vt 0.48333365 0.7493335
vt 0.48333365 0.8740003
vt 0.48333365 0.998667
vt 0.55000037 0.25066656
vt 0.5333336 0.37533337
vt 0.5833336 0.12599984
vt 0.60000026 0.0013330281
vt 0.50000036 0.62466663
vt 0.51666695 0.49999994
vt 0.50000036 0.8740003
vt 0.50000036 0.998667
vt 0.50000036 0.7493335
vt 0.51666695 0.62466663
vt 0.5333336 0.49999994
vt 0.51666695 0.8740003
vt 0.51666695 0.998667
vt 0.51666695 0.7493335
vt 0.5333336 0.8740003
vt 0.5333336 0.998667
vt 0.5333336 0.62466663
vt 0.5333336 0.7493335
vt 0.55000037 0.37533337
vt 0.55000037 0.8740003
vt 0.55000037 0.998667
vt 0.55000037 0.7493335
vt 0.55000037 0.49999994
vt 0.55000037 0.62466663
vt 0.56666714 0.25066656
vt 0.56666714 0.8740003
vt 0.56666714 0.998667
vt 0.56666714 0.7493335
vt 0.56666714 0.62466663
vt 0.56666714 0.37533337
vt 0.56666714 0.49999994
vt 0.5833336 0.25066656
vt 0.5833336 0.8740003
vt 0.5833336 0.998667
vt 0.5833336 0.7493335
vt 0.5833336 0.62466663
vt 0.5833336 0.37533337
vt 0.5833336 0.49999994
vt 0.60000026 0.12599984
vt 0.6166669 0.0013330281
vt 0.60000026 0.8740003
vt 0.60000026 0.998667
vt 0.60000026 0.7493335
vt 0.60000026 0.62466663
vt 0.60000026 0.49999994
vt 0.60000026 0.25066656
vt 0.6166669 0.12599984
vt 0.6333335 0.0013330281
vt 0.60000026 0.37533337
vt 0.6333335 0.12599984
vt 0.6500002 0.0013330281
vt 0.6166669 0.25066656
vt 0.6166669 0.37533337
vt 0.6166669 0.49999994
vt 0.6500002 0.12599984
vt 0.66666687 0.0013330281
vt 0.6333335 0.25066656
vt 0.66666687 0.12599984
vt 0.6833335 0.0013330281
vt 0.6333335 0.37533337
vt 0.6500002 0.25066656
vt 0.6166669 0.62466663
vt 0.6833335 0.12599984
vt 0.7000001 0.0013330281
vt 0.6333335 0.49999994
vt 0.66666687 0.25066656
vt 0.6500002 0.37533337
vt 0.6166669 0.7493335
vt 0.7000001 0.12599984
vt 0.71666694 0.0013330281
vt 0.6333335 0.62466663
vt 0.6500002 0.49999994
vt 0.6833335 0.25066656
vt 0.66666687 0.37533337
vt 0.6166669 0.8740003
vt 0.6166669 0.998667
vt 0.71666694 0.12599984
vt 0.7333336 0.0013330281
vt 0.6333335 0.7493335
vt 0.6333335 0.8740003
vt 0.6333335 0.998667
vt 0.7000001 0.25066656
vt 0.6833335 0.37533337
vt 0.7333336 0.12599984
vt 0.7500001 0.0013330281
vt 0.6500002 0.62466663
vt 0.66666687 0.49999994
vt 0.6500002 0.8740003
vt 0.6500002 0.998667
vt 0.6500002 0.7493335
vt 0.66666687 0.62466663
vt 0.6833335 0.49999994
vt 0.66666687 0.8740003
vt 0.66666687 0.998667
vt 0.66666687 0.7493335
vt 0.6833335 0.8740003
vt 0.6833335 0.998667
vt 0.6833335 0.62466663
vt 0.6833335 0.7493335
vt 0.7000001 0.37533337
vt 0.7000001 0.8740003
vt 0.7000001 0.998667
vt 0.7000001 0.7493335
vt 0.7000001 0.49999994
vt 0.7000001 0.62466663
vt 0.71666694 0.25066656
vt 0.71666694 0.8740003
vt 0.71666694 0.998667
vt 0.71666694 0.7493335
vt 0.71666694 0.62466663
vt 0.71666694 0.37533337
vt 0.71666694 0.49999994
vt 0.7333336 0.25066656
vt 0.7333336 0.8740003
vt 0.7333336 0.998667
vt 0.7333336 0.7493335
vt 0.7333336 0.62466663
vt 0.7333336 0.37533337
vt 0.7333336 0.49999994
vt 0.7500001 0.12599984
vt 0.7666669 0.0013330281
vt 0.7500001 0.8740003
vt 0.7500001 0.998667
vt 0.7500001 0.7493335
vt 0.7500001 0.62466663
vt 0.7500001 0.49999994
vt 0.7500001 0.25066656
vt 0.7666669 0.12599984
vt 0.78333354 0.0013330281
vt 0.7500001 0.37533337
vt 0.78333354 0.12599984
vt 0.8000003 0.0013330281
vt 0.7666669 0.25066656
vt 0.7666669 0.37533337
vt 0.7666669 0.49999994
vt 0.8000003 0.12599984
vt 0.81666684 0.0013330281
vt 0.78333354 0.25066656
vt 0.81666684 0.12599984
vt 0.8333335 0.0013330281
vt 0.78333354 0.37533337
vt 0.8000003 0.25066656
vt 0.7666669 0.62466663
vt 0.8333335 0.12599984
vt 0.85000014 0.0013330281
vt 0.78333354 0.49999994
vt 0.81666684 0.25066656
vt 0.8000003 0.37533337
vt 0.7666669 0.7493335
vt 0.85000014 0.12599984
vt 0.8666668 0.0013330281
vt 0.78333354 0.62466663
vt 0.8000003 0.49999994
vt 0.8333335 0.25066656
vt 0.81666684 0.37533337
vt 0.7666669 0.8740003
vt 0.7666669 0.998667
vt 0.8666668 0.12599984
vt 0.88333344 0.0013330281
vt 0.78333354 0.7493335
vt 0.78333354 0.8740003
vt 0.78333354 0.998667
vt 0.85000014 0.25066656
vt 0.8333335 0.37533337
vt 0.88333344 0.12599984
vt 0.8999999 0.0013330281
vt 0.8000003 0.62466663
vt 0.81666684 0.49999994
vt 0.8000003 0.8740003
vt 0.8000003 0.998667
vt 0.8000003 0.7493335
vt 0.81666684 0.62466663
vt 0.8333335 0.49999994
vt 0.81666684 0.8740003
vt 0.81666684 0.998667
vt 0.81666684 0.7493335
vt 0.8333335 0.8740003
vt 0.8333335 0.998667
vt 0.8333335 0.62466663
vt 0.8333335 0.7493335
vt 0.85000014 0.37533337
vt 0.85000014 0.8740003
vt 0.85000014 0.998667
vt 0.85000014 0.7493335
vt 0.85000014 0.49999994
vt 0.85000014 0.62466663
vt 0.8666668 0.25066656
vt 0.8666668 0.8740003
vt 0.8666668 0.998667
vt 0.8666668 0.7493335
vt 0.8666668 0.62466663
vt 0.8666668 0.37533337
vt 0.8666668 0.49999994
vt 0.88333344 0.25066656
vt 0.88333344 0.8740003
vt 0.88333344 0.998667
vt 0.88333344 0.7493335
vt 0.88333344 0.62466663
vt 0.88333344 0.37533337
vt 0.88333344 0.49999994
vt 0.8999999 0.12599984
vt 0.91666675 0.0013330281
vt 0.8999999 0.8740003
vt 0.8999999 0.998667
vt 0.8999999 0.7493335
vt 0.8999999 0.62466663
vt 0.8999999 0.49999994
vt 0.8999999 0.25066656
vt 0.91666675 0.12599984
vt 0.9333334 0.0013330281
vt 0.8999999 0.37533337
vt 0.9333334 0.12599984
vt 0.9499999 0.0013330281
vt 0.91666675 0.25066656
vt 0.91666675 0.37533337
vt 0.91666675 0.49999994
vt 0.9499999 0.12599984
vt 0.9666667 0.0013330281
vt 0.9333334 0.25066656
vt 0.9666667 0.12599984
vt 0.98333347 0.0013330281
vt 0.9333334 0.37533337
vt 0.9499999 0.25066656
vt 0.91666675 0.62466663
vt 0.98333347 0.12599984
vt 0.9998925 0.0013330281
vt 0.9998925 0.12599984
vt 0.9333334 0.49999994
vt 0.9666667 0.25066656
vt 0.98333347 0.25066656
vt 0.9998925 0.25066656
vt 0.9499999 0.37533337
vt 0.91666675 0.7493335
vt 0.9666667 0.37533337
vt 0.98333347 0.37533337
vt 0.9998925 0.37533337
vt 0.9499999 0.49999994
vt 0.9333334 0.62466663
vt 0.91666675 0.8740003
vt 0.91666675 0.998667
vt 0.9666667 0.49999994
vt 0.98333347 0.49999994
vt 0.9998925 0.49999994
vt 0.9499999 0.62466663
vt 0.9333334 0.7493335
vt 0.9333334 0.8740003
vt 0.9333334 0.998667
vt 0.9666667 0.62466663
vt 0.98333347 0.62466663
vt 0.9998925 0.62466663
vt 0.9499999 0.7493335
vt 0.9499999 0.8740003
vt 0.9499999 0.998667
vt 0.9666667 0.7493335
vt 0.98333347 0.7493335
vt 0.9998925 0.7493335
vt 0.9666667 0.8740003
vt 0.9666667 0.998667
vt 0.98333347 0.8740003
vt 0.9998925 0.8740003
vt 0.98333347 0.998667
vt 0.9998925 0.998667
vn 0.9364329 -0.3368894 -0.097973935
vn 0.95198035 -0.2894787 -0.09967648
vn 0.9210607 -0.33689117 -0.1953246
vn 0.9363455 -0.28947845 -0.1986439
vn 0.97554886 -0.19453679 -0.10227346
vn 0.8955978 -0.33689135 -0.29053196
vn 0.9595135 -0.19453587 -0.20369034
vn 0.98977447 -0.09773495 -0.10389544
vn 0.9104522 -0.289478 -0.29543063
vn 0.860323 -0.33689156 -0.3825551
vn 0.97349143 -0.09773562 -0.20678996
vn 0.99452233 5.9800294E-07 -0.10452447
vn 0.8745838 -0.28947812 -0.3889801
vn 0.81562215 -0.3368912 -0.47038785
vn 0.9329658 -0.19453615 -0.30287045
vn 0.97814757 2.191439E-07 -0.20791185
vn 0.9897474 0.09773578 -0.10415274
vn 0.829133 -0.2894779 -0.4782687
vn 0.7619851 -0.3368899 -0.55306774
vn 0.8961963 -0.1945359 -0.3987329
vn 0.94654316 -0.097735666 -0.3074148
vn 0.97343767 0.09773534 -0.20704356
vn 0.9754955 0.19453637 -0.1027817
vn 0.7745985 -0.28947788 -0.5623165
vn 0.6999997 -0.33689004 -0.62968683
vn 0.95105636 -2.978871E-07 -0.3090174
vn 0.8496078 -0.19453606 -0.49022686
vn 0.9092244 -0.097735055 -0.4046712
vn 0.95940715 0.19453648 -0.20419005
vn 0.95190233 0.28947794 -0.10042132
vn 0.7115772 -0.28947836 -0.64020324
vn 0.6303447 -0.33689114 -0.69940686
vn 0.94646305 0.097735174 -0.30766124
vn 0.9135453 2.050296E-07 -0.4067368
vn 0.79371095 -0.19453682 -0.5763492
vn 0.8619439 -0.097735584 -0.49749407
vn 0.9361897 0.28947866 -0.19937631
vn 0.93634015 0.33688986 -0.098855
vn 0.92087615 0.33689123 -0.19619238
vn 0.6407598 -0.28947806 -0.7110761
vn 0.55378366 -0.33689028 -0.7614648
vn 0.9328079 0.19453622 -0.30335656
vn 0.91022086 0.2894782 -0.2961426
vn 0.8953244 0.3368902 -0.29137465
vn 0.7291177 -0.19453691 -0.65615755
vn 0.80521977 -0.09773563 -0.58486646
vn 0.5629222 -0.28947783 -0.77415836
vn 0.4711551 -0.33689046 -0.8151795
vn 0.90911907 0.09773569 -0.4049078
vn 0.86602527 -1.4040072E-07 -0.5000002
vn 0.87427926 0.28947815 -0.3896643
vn 0.85996246 0.33689088 -0.3833655
vn 0.89598846 0.19453597 -0.3991996
vn 0.8618144 0.09773617 -0.49771848
vn 0.8090168 0 -0.58778554
vn 0.8287587 0.2894781 -0.47891688
vn 0.81517893 0.33689082 -0.47115573
vn 0.84935236 0.19453646 -0.49066916
vn 0.7741583 0.289478 -0.5629222
vn 0.7614641 0.33689082 -0.5537843
vn 0.80506754 0.09773567 -0.58507615
vn 0.79341054 0.19453672 -0.5767627
vn 0.7396732 -0.097735435 -0.66583127
vn 0.71107596 0.28947785 -0.6407602
vn 0.6994065 0.33689064 -0.6303454
vn 0.72877604 0.19453673 -0.65653706
vn 0.74314463 0 -0.6691308
vn 0.73950016 0.097735375 -0.66602355
vn 0.6565366 -0.1945365 -0.7287766
vn 0.64020294 0.2894778 -0.71157765
vn 0.6296866 0.33689088 -0.6999996
vn 0.6561573 0.19453622 -0.7291181
vn 0.66583043 0.09773516 -0.739674
vn 0.6660234 -0.09773516 -0.7395003
vn 0.66913056 1.3891498E-07 -0.7431449
vn 0.57676226 -0.19453666 -0.7934109
vn 0.5623157 0.2894781 -0.7745989
vn 0.55306745 0.33689028 -0.7619851
vn 0.5763492 0.19453675 -0.79371095
vn 0.5848662 0.0977356 -0.80522
vn 0.58507574 -0.09773512 -0.80506784
vn 0.5877854 -1.2777204E-07 -0.8090169
vn 0.4789163 -0.28947818 -0.82875896
vn 0.38336495 -0.3368911 -0.85996264
vn 0.47826785 0.28947777 -0.82913357
vn 0.47038767 0.3368905 -0.8156226
vn 0.49022585 0.19453639 -0.84960824
vn 0.49749324 0.09773597 -0.8619444
vn 0.4999996 -3.781162E-07 -0.8660256
vn 0.4906685 -0.19453643 -0.84935266
vn 0.38966388 -0.2894782 -0.8742793
vn 0.29137442 -0.33689076 -0.89532423
vn 0.49771777 -0.097735494 -0.8618148
vn 0.29614168 -0.2894778 -0.9102212
vn 0.19619125 -0.33689064 -0.92087656
vn 0.39919934 -0.19453599 -0.8959886
vn 0.404907 -0.09773568 -0.90911937
vn 0.40673634 0 -0.9135456
vn 0.19937545 -0.28947785 -0.9361901
vn 0.09885892 -0.33689022 -0.9363397
vn 0.3033564 -0.19453627 -0.9328079
vn 0.1004254 -0.28947818 -0.9519019
vn 0.0004435687 -0.33689004 -0.9415439
vn 0.30765995 -0.097735696 -0.94646347
vn 0.20419033 -0.19453639 -0.95940703
vn 0.40467092 0.09773565 -0.9092245
vn 0.000374285 -0.28947794 -0.9571846
vn -0.09797725 -0.33689004 -0.93643236
vn 0.3090168 1.1811484E-07 -0.95105654
vn 0.10278554 -0.19453679 -0.9754951
vn 0.20704313 -0.097735666 -0.97343767
vn 0.39873195 0.19453612 -0.89619666
vn -0.099680685 -0.28947812 -0.9519801
vn -0.19532363 -0.33689046 -0.9210611
vn 0.30741447 0.097735666 -0.9465433
vn 0.20791137 0 -0.9781477
vn 0.0002547353 -0.19453661 -0.9808952
vn 0.104156666 -0.09773522 -0.98974705
vn 0.38897976 0.28947812 -0.8745841
vn 0.38255507 0.33689106 -0.8603232
vn -0.19864367 -0.289478 -0.9363457
vn -0.29053175 -0.33689034 -0.8955983
vn 0.30286956 0.19453636 -0.932966
vn 0.29543063 0.28947794 -0.9104522
vn 0.29053175 0.33689076 -0.8955981
vn -0.10227703 -0.19453679 -0.9755485
vn 0.00012964122 -0.097735375 -0.99521244
vn -0.2954308 -0.2894777 -0.9104522
vn -0.38255602 -0.33689016 -0.86032313
vn 0.20678967 0.09773558 -0.97349155
vn 0.10452811 0 -0.994522
vn 0.19864367 0.289478 -0.9363457
vn 0.19532345 0.33689043 -0.92106116
vn 0.20368923 0.19453612 -0.9595136
vn 0.10389938 0.09773506 -0.9897741
vn -0 0 -1
vn 0.09968067 0.2894782 -0.9519801
vn 0.09797731 0.3368902 -0.93643224
vn 0.102277026 0.19453676 -0.9755485
vn -0.00037428102 0.2894779 -0.9571846
vn -0.0004435579 0.33689016 -0.9415439
vn -0.00012963821 0.09773537 -0.99521244
vn -0.000254733 0.19453666 -0.9808952
vn -0.10389939 -0.09773504 -0.9897741
vn -0.100425355 0.289478 -0.9519019
vn -0.098858915 0.33689007 -0.9363397
vn -0.10278554 0.19453678 -0.9754951
vn -0.104528114 -1.0920057E-07 -0.994522
vn -0.10415668 0.09773521 -0.98974705
vn -0.20368946 -0.1945363 -0.9595136
vn -0.19937558 0.28947794 -0.9361901
vn -0.19619136 0.33689052 -0.9208767
vn -0.20419036 0.19453631 -0.95940715
vn -0.2070437 0.09773561 -0.97343755
vn -0.20678997 -0.09773547 -0.97349143
vn -0.20791171 -1.2851493E-07 -0.97814757
vn -0.3028706 -0.19453621 -0.9329658
vn -0.29614285 0.28947785 -0.91022086
vn -0.2913753 0.33689013 -0.89532423
vn -0.3033567 0.19453627 -0.9328078
vn -0.30766085 0.09773538 -0.9464633
vn -0.30741495 -0.09773544 -0.94654304
vn -0.30901712 0 -0.9510565
vn -0.38898078 -0.28947774 -0.8745837
vn -0.4703883 -0.3368907 -0.81562215
vn -0.38966438 0.28947777 -0.8742793
vn -0.38336524 0.33689016 -0.85996294
vn -0.39919987 0.19453631 -0.8959883
vn -0.40490797 0.09773544 -0.90911895
vn -0.40673703 0 -0.91354525
vn -0.39873308 -0.19453634 -0.8961961
vn -0.47826812 -0.28947788 -0.82913333
vn -0.55306756 -0.33689034 -0.76198506
vn -0.40467107 -0.097735584 -0.9092245
vn -0.5623163 -0.2894779 -0.77459854
vn -0.62968624 -0.33689076 -0.6999999
vn -0.4902265 -0.1945365 -0.8496078
vn -0.4974941 -0.09773542 -0.861944
vn -0.49999997 0 -0.86602545
vn -0.640203 -0.28947836 -0.7115775
vn -0.6994069 -0.33689073 -0.63034487
vn -0.57634944 -0.19453676 -0.7937108
vn -0.7110767 -0.2894777 -0.64075935
vn -0.76146454 -0.33689058 -0.55378383
vn -0.5848668 -0.09773511 -0.8052197
vn -0.65615743 -0.19453631 -0.729118
vn -0.4977185 0.09773521 -0.86181444
vn -0.7741589 -0.2894777 -0.5629214
vn -0.81517935 -0.33689028 -0.47115558
vn -0.5877853 -1.3000061E-07 -0.8090169
vn -0.7287767 -0.19453606 -0.6565366
vn -0.6658311 -0.097735405 -0.73967344
vn -0.49066928 0.19453655 -0.84935224
vn -0.82875913 -0.2894778 -0.47891644
vn -0.8599628 -0.33689076 -0.38336483
vn -0.5850765 0.09773541 -0.8050673
vn -0.6691308 -2.800586E-07 -0.74314463
vn -0.793411 -0.19453685 -0.576762
vn -0.73950046 -0.097735085 -0.66602314
vn -0.47891676 0.28947806 -0.82875884
vn -0.47115606 0.3368906 -0.8151789
vn -0.8742795 -0.2894781 -0.38966364
vn -0.8953247 -0.3368897 -0.2913742
vn -0.5767628 0.19453672 -0.79341054
vn -0.5629225 0.28947794 -0.7741581
vn -0.5537844 0.3368906 -0.7614641
vn -0.8493526 -0.19453613 -0.49066877
vn -0.8050679 -0.09773511 -0.5850756
vn -0.91022116 -0.28947797 -0.2961419
vn -0.920877 -0.33688936 -0.19619183
vn -0.6660239 0.0977355 -0.73949975
vn -0.7431452 0 -0.66913015
vn -0.6407601 0.28947797 -0.7110759
vn -0.63034487 0.33689126 -0.6994066
vn -0.6565369 0.19453625 -0.72877634
vn -0.7396738 0.097735226 -0.6658306
vn -0.8090172 -1.6788661E-07 -0.58778495
vn -0.7115777 0.289478 -0.6402029
vn -0.69999975 0.33689082 -0.62968636
vn -0.72911817 0.19453633 -0.6561572
vn -0.77459896 0.2894781 -0.5623156
vn -0.7619856 0.33689064 -0.5530666
vn -0.80522025 0.09773505 -0.58486605
vn -0.7937113 0.19453652 -0.57634866
vn -0.86181474 -0.09773482 -0.49771798
vn -0.82913333 0.289478 -0.47826812
vn -0.81562257 0.3368903 -0.470388
vn -0.849608 0.1945367 -0.49022627
vn -0.86602527 -2.7857288E-07 -0.5000002
vn -0.8619441 0.09773568 -0.49749377
vn -0.89598876 -0.19453563 -0.39919913
vn -0.87458414 0.2894779 -0.38897955
vn -0.86032337 0.33689073 -0.38255498
vn -0.8961966 0.19453579 -0.39873248
vn -0.9092246 0.09773558 -0.40467086
vn -0.9091192 -0.09773592 -0.40490752
vn -0.91354555 -1.3594354E-07 -0.40673643
vn -0.932808 -0.19453637 -0.3033561
vn -0.9104525 0.28947794 -0.29542977
vn -0.8955983 0.33689043 -0.29053146
vn -0.9329659 0.19453666 -0.30286995
vn -0.9465433 0.097736046 -0.30741426
vn -0.9464633 -0.09773618 -0.3076605
vn -0.95105654 3.1720162E-07 -0.3090168
vn -0.9361899 -0.28947794 -0.1993762
vn -0.93634 -0.3368892 -0.0988592
vn -0.9363457 0.2894778 -0.19864367
vn -0.9210613 0.33688918 -0.19532472
vn -0.9595135 0.19453625 -0.20368999
vn -0.97349155 0.09773527 -0.2067897
vn -0.9781477 1.3222927E-07 -0.20791158
vn -0.95940715 -0.19453652 -0.20418973
vn -0.95190203 -0.28947774 -0.10042559
vn -0.941544 -0.3368898 -0.00044282345
vn -0.97343767 -0.097735815 -0.20704328
vn -0.9571846 -0.28947794 -0.00037419196
vn -0.9364322 -0.33689037 0.09797777
vn -0.975495 -0.19453707 -0.10278557
vn -0.98974705 -0.09773553 -0.1041567
vn -0.99452186 -2.8971579E-07 -0.104528256
vn -0.95198023 -0.2894777 0.09968116
vn -0.92106086 -0.3368905 0.19532442
vn -0.9808952 -0.19453657 -0.00025510945
vn -0.9363457 -0.2894779 0.19864365
vn -0.8955986 -0.33688968 0.2905315
vn -0.99521244 -0.0977353 -0.00012927102
vn -0.9755485 -0.19453624 0.10227772
vn -0.9897741 0.09773488 -0.10389944
vn -0.9104526 -0.28947708 0.2954303
vn -0.8603233 -0.3368899 0.382556
vn -1 0 0
vn -0.9595135 -0.19453676 0.20368963
vn -0.98977405 -0.0977358 0.10389941
vn -0.9755485 0.19453664 -0.10227727
vn -0.8745839 -0.28947777 0.3889804
vn -0.81562215 -0.3368903 0.47038856
vn -0.9952123 0.097735934 0.00012990994
vn -0.99452186 -2.4142983E-07 0.10452854
vn -0.9329656 -0.19453675 0.3028706
vn -0.97349155 -0.09773567 0.20678975
vn -0.95198023 0.2894776 -0.09968082
vn -0.9364326 0.33688918 -0.09797768
vn -0.8291334 -0.28947738 0.4782683
vn -0.76198506 -0.33689138 0.553067
vn -0.9808952 0.19453675 0.0002557547
vn -0.95718473 0.28947768 0.00037438126
vn -0.94154376 0.3368903 0.0004435021
vn -0.8961961 -0.19453645 0.39873314
vn -0.94654316 -0.09773562 0.3074148
vn -0.7745986 -0.28947797 0.5623162
vn -0.6999997 -0.33689064 0.6296866
vn -0.98974705 0.09773562 0.104156926
vn -0.97814757 1.2702925E-07 0.20791186
vn -0.9519019 0.2894778 0.10042588
vn -0.93633956 0.33689028 0.09885975
vn -0.9754951 0.19453673 0.10278577
vn -0.97343767 0.09773571 0.20704326
vn -0.9510565 4.3977374E-07 0.30901718
vn -0.9361901 0.2894776 0.1993761
vn -0.92087686 0.33688995 0.1961915
vn -0.95940715 0.19453694 0.20418969
vn -0.91022134 0.28947687 0.29614222
vn -0.89532465 0.33688974 0.29137465
vn -0.94646317 0.097735725 0.3076609
vn -0.9328078 0.19453672 0.30335644
vn -0.9092242 -0.097735554 0.40467152
vn -0.87427944 0.28947753 0.3896644
vn -0.85996246 0.3368906 0.3833657
vn -0.8959882 0.19453661 0.3992001
vn -0.9135453 0 0.40673688
vn -0.9091189 0.097735696 0.40490812
vn -0.84960794 -0.19453561 0.4902267
vn -0.8287591 0.28947774 0.4789165
vn -0.8151788 0.33689073 0.47115612
vn -0.84935254 0.19453597 0.4906689
vn -0.86181444 0.09773552 0.49771842
vn -0.8619439 -0.09773562 0.49749413
vn -0.86602527 1.2182922E-07 0.50000036
vn -0.7937111 -0.1945365 0.5763491
vn -0.7741584 0.289478 0.562922
vn -0.76146394 0.33689076 0.55378455
vn -0.79341096 0.19453616 0.57676226
vn -0.8050676 0.09773548 0.585076
vn -0.80522 -0.09773559 0.58486617
vn -0.8090169 4.1228785E-07 0.5877854
vn -0.711577 -0.28947797 0.6402036
vn -0.6303447 -0.33689028 0.69940716
vn -0.7110759 0.28947803 0.64076006
vn -0.69940627 0.3368911 0.6303454
vn -0.72877616 0.19453637 0.65653706
vn -0.7395003 0.09773501 0.6660234
vn -0.7431448 0 0.6691307
vn -0.72911763 -0.19453672 0.6561577
vn -0.6407593 -0.28947815 0.7110766
vn -0.55378336 -0.33689108 0.76146454
vn -0.73967344 -0.09773588 0.6658311
vn -0.5629216 -0.289478 0.7741587
vn -0.47115496 -0.3368909 0.8151795
vn -0.6565367 -0.1945365 0.7287766
vn -0.66602314 -0.097735606 0.73950046
vn -0.6691302 1.71601E-07 0.74314517
vn -0.47891635 -0.2894778 0.82875913
vn -0.3833659 -0.33689076 0.8599624
vn -0.57676214 -0.1945363 0.793411
vn -0.3896638 -0.28947783 0.8742795
vn -0.2913748 -0.33689028 0.89532435
vn -0.58507526 -0.09773558 0.80506814
vn -0.49066862 -0.19453639 0.8493526
vn -0.66583025 0.09773596 0.73967415
vn -0.29614174 -0.2894778 0.9102212
vn -0.19619198 -0.33689034 0.92087656
vn -0.58778465 -2.1468688E-07 0.80901736
vn -0.39919922 -0.19453621 0.8959886
vn -0.49771792 -0.09773533 0.86181474
vn -0.6561564 0.19453683 0.7291187
vn -0.1993761 -0.28947774 0.93619
vn -0.09885897 -0.33688954 0.93633986
vn -0.58486575 0.09773564 0.80522037
vn -0.49999964 0 0.8660256
vn -0.30335677 -0.19453639 0.9328077
vn -0.40490726 -0.097735114 0.90911937
vn -0.6402033 0.28947765 0.7115774
vn -0.6296859 0.33689082 0.7000002
vn -0.10042542 -0.28947774 0.95190203
vn -0.00044260698 -0.33688942 0.9415441
vn -0.5763488 0.19453612 0.7937114
vn -0.5623157 0.289478 0.77459896
vn -0.55306584 0.3368912 0.7619858
vn -0.2041903 -0.19453639 0.95940715
vn -0.30766067 -0.0977355 0.9464633
vn -0.00037382188 -0.28947762 0.95718473
vn 0.09797767 -0.33688945 0.9364326
vn -0.49749357 0.09773525 0.86194426
vn -0.4067366 0 0.91354555
vn -0.4782676 0.28947806 0.82913357
vn -0.47038773 0.33689034 0.8156226
vn -0.49022615 0.19453621 0.84960806
vn -0.4046709 0.09773498 0.9092246
vn -0.3090174 -1.5228655E-07 0.9510565
vn -0.3889799 0.2894779 0.87458396
vn -0.38255545 0.33689043 0.8603233
vn -0.3987323 0.19453624 0.8961966
vn -0.2954305 0.2894778 0.9104523
vn -0.2905319 0.3368899 0.8955983
vn -0.30741444 0.097735636 0.9465433
vn -0.3028699 0.19453648 0.9329659
vn -0.20704328 -0.09773566 0.97343767
vn -0.19864365 0.289478 0.9363457
vn -0.19532429 0.33689 0.9210611
vn -0.2036898 0.19453627 0.9595135
vn -0.20791152 1.2777214E-07 0.9781477
vn -0.20678967 0.0977356 0.97349155
vn -0.10278573 -0.19453676 0.9754951
vn -0.09968041 0.2894779 0.95198023
vn -0.09797826 0.33688933 0.9364326
vn -0.10227709 0.19453678 0.9755484
vn -0.103899434 0.097735025 0.9897741
vn -0.10415672 -0.09773522 0.98974705
vn -0.10452815 1.1217204E-07 0.99452186
vn -0.0002550338 -0.19453664 0.9808952
vn 0.00037492387 0.28947756 0.95718473
vn 0.00044325518 0.33688942 0.9415441
vn 0.0002556502 0.1945366 0.9808952
vn 0.00013010854 0.097735375 0.99521244
vn -0.00012949647 -0.09773536 0.99521244
vn 7.398898E-07 0 1
vn 0.09968073 -0.2894779 0.9519801
vn 0.19532399 -0.33689025 0.9210611
vn 0.10042574 0.28947788 0.9519019
vn 0.0988593 0.33688956 0.93633974
vn 0.10278574 0.19453675 0.975495
vn 0.10415644 0.09773513 0.98974705
vn 0.10452872 0 0.99452186
vn 0.10227755 -0.19453686 0.9755484
vn 0.1986435 -0.28947818 0.93634564
vn 0.29053172 -0.33688986 0.8955984
vn 0.10389947 -0.09773505 0.9897741
vn 0.29543024 -0.28947785 0.9104524
vn 0.38255516 -0.33689058 0.86032337
vn 0.2036898 -0.19453648 0.9595135
vn 0.20678985 -0.09773519 0.97349155
vn 0.20791155 -1.2480069E-07 0.9781477
vn 0.3889803 -0.28947788 0.8745839
vn 0.47038856 -0.33689037 0.81562215
vn 0.30287105 -0.19453618 0.9329656
vn 0.47826862 -0.2894775 0.82913333
vn 0.55306756 -0.33689 0.7619852
vn 0.30741477 -0.097735316 0.94654316
vn 0.3987333 -0.19453602 0.8961961
vn 0.20704299 0.097735405 0.9734378
vn 0.562316 -0.28947783 0.7745988
vn 0.6296867 -0.33689004 0.69999987
vn 0.3090174 0 0.95105636
vn 0.49022684 -0.19453616 0.8496078
vn 0.40467083 -0.09773533 0.9092246
vn 0.20418973 0.1945366 0.95940715
vn 0.64020306 -0.28947768 0.7115776
vn 0.6994075 -0.33688956 0.6303447
vn 0.30766138 0.097735256 0.94646305
vn 0.40673715 1.18857784E-07 0.91354525
vn 0.5763494 -0.19453673 0.7937109
vn 0.49749357 -0.09773536 0.86194426
vn 0.1993758 0.28947803 0.93619
vn 0.19619106 0.3368903 0.92087674
vn 0.71107626 -0.28947806 0.6407597
vn 0.76146454 -0.33689 0.55378413
vn 0.30335665 0.19453636 0.9328078
vn 0.29614252 0.28947777 0.91022104
vn 0.2913745 0.33689016 0.8953244
vn 0.6561573 -0.19453673 0.72911805
vn 0.5848661 -0.09773577 0.80522007
vn 0.77415854 -0.28947768 0.56292194
vn 0.8151789 -0.33689117 0.4711557
vn 0.4049078 0.09773536 0.90911907
vn 0.50000006 0 0.8660253
vn 0.3896642 0.2894775 0.87427944
vn 0.38336545 0.33689067 0.8599626
vn 0.39919946 0.19453615 0.89598846
vn 0.49771827 0.09773534 0.86181456
vn 0.58778507 -2.1765837E-07 0.8090171
vn 0.47891718 0.28947774 0.82875866
vn 0.47115603 0.33689046 0.81517893
vn 0.49066925 0.19453627 0.84935236
vn 0.56292236 0.2894777 0.7741583
vn 0.55378366 0.33689037 0.7614648
vn 0.585076 0.097735584 0.80506766
vn 0.5767623 0.19453652 0.7934109
vn 0.66583085 -0.09773562 0.7396736
vn 0.64076006 0.28947777 0.7110761
vn 0.63034475 0.33689046 0.69940716
vn 0.65653676 0.19453634 0.7287765
vn 0.6691308 -1.4485796E-07 0.7431446
vn 0.66602397 0.09773577 0.7394997
vn 0.7287763 -0.19453695 0.65653676
vn 0.7115775 0.28947785 0.6402032
vn 0.7000001 0.33688977 0.6296866
vn 0.7291182 0.19453673 0.65615696
vn 0.739674 0.09773534 0.6658305
vn 0.73950034 -0.09773537 0.66602325
vn 0.743145 -1.3148649E-07 0.6691304
vn 0.79341096 -0.19453654 0.5767621
vn 0.7745987 0.28947788 0.56231606
vn 0.7619857 0.33689004 0.55306673
vn 0.7937113 0.19453678 0.57634866
vn 0.80522025 0.09773519 0.584866
vn 0.8050679 -0.0977354 0.5850756
vn 0.8090171 -1.7680107E-07 0.587785
vn 0.8287591 -0.28947768 0.4789166
vn 0.85996264 -0.33689076 0.38336518
vn 0.8291335 0.28947735 0.47826818
vn 0.81562257 0.33689022 0.47038803
vn 0.84960794 0.19453597 0.49022654
vn 0.8619442 0.09773538 0.49749383
vn 0.8660255 0 0.49999985
vn 0.84935254 -0.19453643 0.49066874
vn 0.8742797 -0.2894771 0.3896639
vn 0.8953244 -0.33689073 0.2913739
vn 0.8618146 -0.09773501 0.49771816
vn 0.91022104 -0.2894781 0.296142
vn 0.9208763 -0.336891 0.1961915
vn 0.8959886 -0.1945356 0.39919966
vn 0.9091192 -0.097735174 0.4049077
vn 0.9135453 -2.8228723E-07 0.40673682
vn 0.9361899 -0.28947812 0.19937626
vn 0.93633944 -0.33689064 0.09885879
vn 0.9328078 -0.1945364 0.30335656
vn 0.95190203 -0.2894779 0.100425154
vn 0.9415439 -0.33689013 0.0004469295
vn 0.94646317 -0.09773572 0.3076609
vn 0.95940715 -0.19453676 0.20418964
vn 0.90922433 0.09773601 0.4046712
vn 0.95718473 -0.28947735 0.00037804167
vn 0.9364329 -0.3368894 -0.097973935
vn 0.95198035 -0.2894787 -0.09967648
vn 0.9510565 -1.4782941E-07 0.30901715
vn 0.9754951 -0.19453664 0.10278519
vn 0.9808952 -0.1945366 0.00025940014
vn 0.97554886 -0.19453679 -0.10227346
vn 0.97343767 -0.09773574 0.20704311
vn 0.8961962 0.19453627 0.39873284
vn 0.98974705 -0.09773531 0.10415658
vn 0.99521244 -0.09773552 0.00013327475
vn 0.98977447 -0.09773495 -0.10389544
vn 0.97814757 0 0.20791164
vn 0.9465433 0.09773567 0.3074144
vn 0.8745841 0.28947765 0.38898
vn 0.8603232 0.33689097 0.3825553
vn 0.99452186 0 0.10452819
vn 1 -6.782316E-07 3.6489305E-06
vn 0.99452233 5.9800294E-07 -0.10452447
vn 0.97349155 0.097735114 0.20678991
vn 0.9329658 0.19453594 0.30287045
vn 0.9104525 0.2894778 0.29542992
vn 0.8955983 0.33689067 0.29053122
vn 0.98977405 0.097735904 0.10389898
vn 0.99521244 0.097735256 -0.00012588961
vn 0.9897474 0.09773578 -0.10415274
vn 0.9595136 0.19453602 0.2036898
vn 0.9363457 0.2894779 0.19864361
vn 0.92106086 0.33689064 0.19532433
vn 0.9755485 0.19453682 0.10227697
vn 0.98089534 0.19453633 -0.00025155072
vn 0.9754955 0.19453637 -0.1027817
vn 0.9519801 0.2894781 0.09968057
vn 0.93643224 0.3368904 0.09797723
vn 0.9571845 0.28947845 -0.00037062026
vn 0.95190233 0.28947794 -0.10042132
vn 0.941544 0.3368898 -0.00043955975
vn 0.93634015 0.33688986 -0.098855
g Md_CMN_Ring_01_0
f 3/3/3 2/2/2 1/1/1
f 3/3/3 4/4/4 2/2/2
f 4/4/4 5/5/5 2/2/2
f 6/6/6 4/4/4 3/3/3
f 4/4/4 7/7/7 5/5/5
f 7/7/7 8/8/8 5/5/5
f 6/6/6 9/9/9 4/4/4
f 9/9/9 7/7/7 4/4/4
f 10/10/10 9/9/9 6/6/6
f 7/7/7 11/11/11 8/8/8
f 11/11/11 12/12/12 8/8/8
f 10/10/10 13/13/13 9/9/9
f 14/14/14 13/13/13 10/10/10
f 9/9/9 15/15/15 7/7/7
f 15/15/15 11/11/11 7/7/7
f 13/13/13 15/15/15 9/9/9
f 11/11/11 16/16/16 12/12/12
f 16/16/16 17/17/17 12/12/12
f 14/14/14 18/18/18 13/13/13
f 19/19/19 18/18/18 14/14/14
f 13/13/13 20/20/20 15/15/15
f 18/18/18 20/20/20 13/13/13
f 15/15/15 21/21/21 11/11/11
f 21/21/21 16/16/16 11/11/11
f 20/20/20 21/21/21 15/15/15
f 16/16/16 22/22/22 17/17/17
f 22/22/22 23/23/23 17/17/17
f 19/19/19 24/24/24 18/18/18
f 25/25/25 24/24/24 19/19/19
f 21/21/21 26/26/26 16/16/16
f 26/26/26 22/22/22 16/16/16
f 18/18/18 27/27/27 20/20/20
f 24/24/24 27/27/27 18/18/18
f 20/20/20 28/28/28 21/21/21
f 28/28/28 26/26/26 21/21/21
f 27/27/27 28/28/28 20/20/20
f 22/22/22 29/29/29 23/23/23
f 29/29/29 30/30/30 23/23/23
f 25/25/25 31/31/31 24/24/24
f 32/32/32 31/31/31 25/25/25
f 26/26/26 33/33/33 22/22/22
f 33/33/33 29/29/29 22/22/22
f 28/28/28 34/34/34 26/26/26
f 34/34/34 33/33/33 26/26/26
f 24/24/24 35/35/35 27/27/27
f 31/31/31 35/35/35 24/24/24
f 27/27/27 36/36/36 28/28/28
f 36/36/36 34/34/34 28/28/28
f 35/35/35 36/36/36 27/27/27
f 29/29/29 37/37/37 30/30/30
f 37/37/37 38/38/38 30/30/30
f 37/37/37 39/39/39 38/38/38
f 32/32/32 40/40/40 31/31/31
f 41/41/41 40/40/40 32/32/32
f 33/33/33 42/42/42 29/29/29
f 42/42/42 37/37/37 29/29/29
f 43/43/43 39/39/39 37/37/37
f 42/42/42 43/43/43 37/37/37
f 43/43/43 44/44/44 39/39/39
f 31/31/31 45/45/45 35/35/35
f 40/40/40 45/45/45 31/31/31
f 35/35/35 46/46/46 36/36/36
f 45/45/45 46/46/46 35/35/35
f 41/41/41 47/47/47 40/40/40
f 48/48/48 47/47/47 41/41/41
f 49/49/49 42/42/42 33/33/33
f 34/34/34 49/49/49 33/33/33
f 36/36/36 50/50/50 34/34/34
f 46/46/46 50/50/50 36/36/36
f 50/50/50 49/49/49 34/34/34
f 51/51/51 44/44/44 43/43/43
f 51/51/51 52/52/52 44/44/44
f 53/53/53 43/43/43 42/42/42
f 49/49/49 53/53/53 42/42/42
f 53/53/53 51/51/51 43/43/43
f 50/50/50 54/54/54 49/49/49
f 54/54/54 53/53/53 49/49/49
f 46/46/46 55/55/55 50/50/50
f 55/55/55 54/54/54 50/50/50
f 56/56/56 52/52/52 51/51/51
f 56/56/56 57/57/57 52/52/52
f 58/58/58 51/51/51 53/53/53
f 54/54/54 58/58/58 53/53/53
f 58/58/58 56/56/56 51/51/51
f 59/59/59 57/57/57 56/56/56
f 59/59/59 60/60/60 57/57/57
f 61/61/61 58/58/58 54/54/54
f 55/55/55 61/61/61 54/54/54
f 62/62/62 56/56/56 58/58/58
f 62/62/62 59/59/59 56/56/56
f 61/61/61 62/62/62 58/58/58
f 63/63/63 55/55/55 46/46/46
f 45/45/45 63/63/63 46/46/46
f 64/64/64 60/60/60 59/59/59
f 64/64/64 65/65/65 60/60/60
f 66/66/66 59/59/59 62/62/62
f 66/66/66 64/64/64 59/59/59
f 67/67/67 61/61/61 55/55/55
f 63/63/63 67/67/67 55/55/55
f 68/68/68 62/62/62 61/61/61
f 68/68/68 66/66/66 62/62/62
f 67/67/67 68/68/68 61/61/61
f 69/69/69 63/63/63 45/45/45
f 40/40/40 69/69/69 45/45/45
f 47/47/47 69/69/69 40/40/40
f 70/70/70 65/65/65 64/64/64
f 70/70/70 71/71/71 65/65/65
f 72/72/72 64/64/64 66/66/66
f 72/72/72 70/70/70 64/64/64
f 73/73/73 66/66/66 68/68/68
f 73/73/73 72/72/72 66/66/66
f 74/74/74 67/67/67 63/63/63
f 69/69/69 74/74/74 63/63/63
f 75/75/75 68/68/68 67/67/67
f 75/75/75 73/73/73 68/68/68
f 74/74/74 75/75/75 67/67/67
f 47/47/47 76/76/76 69/69/69
f 76/76/76 74/74/74 69/69/69
f 77/77/77 71/71/71 70/70/70
f 77/77/77 78/78/78 71/71/71
f 79/79/79 70/70/70 72/72/72
f 79/79/79 77/77/77 70/70/70
f 80/80/80 72/72/72 73/73/73
f 80/80/80 79/79/79 72/72/72
f 81/81/81 75/75/75 74/74/74
f 76/76/76 81/81/81 74/74/74
f 82/82/82 73/73/73 75/75/75
f 82/82/82 80/80/80 73/73/73
f 81/81/81 82/82/82 75/75/75
f 83/83/83 76/76/76 47/47/47
f 48/48/48 83/83/83 47/47/47
f 84/84/84 83/83/83 48/48/48
f 85/85/85 78/78/78 77/77/77
f 85/85/85 86/86/86 78/78/78
f 87/87/87 77/77/77 79/79/79
f 87/87/87 85/85/85 77/77/77
f 88/88/88 79/79/79 80/80/80
f 88/88/88 87/87/87 79/79/79
f 89/89/89 80/80/80 82/82/82
f 89/89/89 88/88/88 80/80/80
f 90/90/90 81/81/81 76/76/76
f 83/83/83 90/90/90 76/76/76
f 84/84/84 91/91/91 83/83/83
f 91/91/91 90/90/90 83/83/83
f 92/92/92 91/91/91 84/84/84
f 93/93/93 82/82/82 81/81/81
f 90/90/90 93/93/93 81/81/81
f 93/93/93 89/89/89 82/82/82
f 92/92/92 94/94/94 91/91/91
f 95/95/95 94/94/94 92/92/92
f 91/91/91 96/96/96 90/90/90
f 96/96/96 93/93/93 90/90/90
f 94/94/94 96/96/96 91/91/91
f 97/97/97 89/89/89 93/93/93
f 96/96/96 97/97/97 93/93/93
f 98/98/98 88/88/88 89/89/89
f 97/97/97 98/98/98 89/89/89
f 95/95/95 99/99/99 94/94/94
f 100/100/100 99/99/99 95/95/95
f 94/94/94 101/101/101 96/96/96
f 101/101/101 97/97/97 96/96/96
f 99/99/99 101/101/101 94/94/94
f 100/100/100 102/102/102 99/99/99
f 103/103/103 102/102/102 100/100/100
f 101/101/101 104/104/104 97/97/97
f 104/104/104 98/98/98 97/97/97
f 99/99/99 105/105/105 101/101/101
f 102/102/102 105/105/105 99/99/99
f 105/105/105 104/104/104 101/101/101
f 98/98/98 106/106/106 88/88/88
f 106/106/106 87/87/87 88/88/88
f 103/103/103 107/107/107 102/102/102
f 108/108/108 107/107/107 103/103/103
f 104/104/104 109/109/109 98/98/98
f 109/109/109 106/106/106 98/98/98
f 102/102/102 110/110/110 105/105/105
f 107/107/107 110/110/110 102/102/102
f 105/105/105 111/111/111 104/104/104
f 111/111/111 109/109/109 104/104/104
f 110/110/110 111/111/111 105/105/105
f 106/106/106 112/112/112 87/87/87
f 112/112/112 85/85/85 87/87/87
f 108/108/108 113/113/113 107/107/107
f 114/114/114 113/113/113 108/108/108
f 109/109/109 115/115/115 106/106/106
f 115/115/115 112/112/112 106/106/106
f 111/111/111 116/116/116 109/109/109
f 116/116/116 115/115/115 109/109/109
f 107/107/107 117/117/117 110/110/110
f 113/113/113 117/117/117 107/107/107
f 110/110/110 118/118/118 111/111/111
f 118/118/118 116/116/116 111/111/111
f 117/117/117 118/118/118 110/110/110
f 112/112/112 119/119/119 85/85/85
f 119/119/119 86/86/86 85/85/85
f 119/119/119 120/120/120 86/86/86
f 114/114/114 121/121/121 113/113/113
f 122/122/122 121/121/121 114/114/114
f 115/115/115 123/123/123 112/112/112
f 123/123/123 119/119/119 112/112/112
f 124/124/124 120/120/120 119/119/119
f 123/123/123 124/124/124 119/119/119
f 124/124/124 125/125/125 120/120/120
f 113/113/113 126/126/126 117/117/117
f 121/121/121 126/126/126 113/113/113
f 117/117/117 127/127/127 118/118/118
f 126/126/126 127/127/127 117/117/117
f 122/122/122 128/128/128 121/121/121
f 129/129/129 128/128/128 122/122/122
f 130/130/130 123/123/123 115/115/115
f 116/116/116 130/130/130 115/115/115
f 118/118/118 131/131/131 116/116/116
f 127/127/127 131/131/131 118/118/118
f 131/131/131 130/130/130 116/116/116
f 132/132/132 125/125/125 124/124/124
f 132/132/132 133/133/133 125/125/125
f 134/134/134 124/124/124 123/123/123
f 130/130/130 134/134/134 123/123/123
f 134/134/134 132/132/132 124/124/124
f 131/131/131 135/135/135 130/130/130
f 135/135/135 134/134/134 130/130/130
f 127/127/127 136/136/136 131/131/131
f 136/136/136 135/135/135 131/131/131
f 137/137/137 133/133/133 132/132/132
f 137/137/137 138/138/138 133/133/133
f 139/139/139 132/132/132 134/134/134
f 135/135/135 139/139/139 134/134/134
f 139/139/139 137/137/137 132/132/132
f 140/140/140 138/138/138 137/137/137
f 140/140/140 141/141/141 138/138/138
f 142/142/142 139/139/139 135/135/135
f 136/136/136 142/142/142 135/135/135
f 143/143/143 137/137/137 139/139/139
f 143/143/143 140/140/140 137/137/137
f 142/142/142 143/143/143 139/139/139
f 144/144/144 136/136/136 127/127/127
f 126/126/126 144/144/144 127/127/127
f 145/145/145 141/141/141 140/140/140
f 145/145/145 146/146/146 141/141/141
f 147/147/147 140/140/140 143/143/143
f 147/147/147 145/145/145 140/140/140
f 148/148/148 142/142/142 136/136/136
f 144/144/144 148/148/148 136/136/136
f 149/149/149 143/143/143 142/142/142
f 149/149/149 147/147/147 143/143/143
f 148/148/148 149/149/149 142/142/142
f 150/150/150 144/144/144 126/126/126
f 121/121/121 150/150/150 126/126/126
f 128/128/128 150/150/150 121/121/121
f 151/151/151 146/146/146 145/145/145
f 151/151/151 152/152/152 146/146/146
f 153/153/153 145/145/145 147/147/147
f 153/153/153 151/151/151 145/145/145
f 154/154/154 147/147/147 149/149/149
f 154/154/154 153/153/153 147/147/147
f 155/155/155 148/148/148 144/144/144
f 150/150/150 155/155/155 144/144/144
f 156/156/156 149/149/149 148/148/148
f 156/156/156 154/154/154 149/149/149
f 155/155/155 156/156/156 148/148/148
f 128/128/128 157/157/157 150/150/150
f 157/157/157 155/155/155 150/150/150
f 158/158/158 152/152/152 151/151/151
f 158/158/158 159/159/159 152/152/152
f 160/160/160 151/151/151 153/153/153
f 160/160/160 158/158/158 151/151/151
f 161/161/161 153/153/153 154/154/154
f 161/161/161 160/160/160 153/153/153
f 162/162/162 156/156/156 155/155/155
f 157/157/157 162/162/162 155/155/155
f 163/163/163 154/154/154 156/156/156
f 163/163/163 161/161/161 154/154/154
f 162/162/162 163/163/163 156/156/156
f 164/164/164 157/157/157 128/128/128
f 129/129/129 164/164/164 128/128/128
f 165/165/165 164/164/164 129/129/129
f 166/166/166 159/159/159 158/158/158
f 166/166/166 167/167/167 159/159/159
f 168/168/168 158/158/158 160/160/160
f 168/168/168 166/166/166 158/158/158
f 169/169/169 160/160/160 161/161/161
f 169/169/169 168/168/168 160/160/160
f 170/170/170 161/161/161 163/163/163
f 170/170/170 169/169/169 161/161/161
f 171/171/171 162/162/162 157/157/157
f 164/164/164 171/171/171 157/157/157
f 165/165/165 172/172/172 164/164/164
f 172/172/172 171/171/171 164/164/164
f 173/173/173 172/172/172 165/165/165
f 174/174/174 163/163/163 162/162/162
f 171/171/171 174/174/174 162/162/162
f 174/174/174 170/170/170 163/163/163
f 173/173/173 175/175/175 172/172/172
f 176/176/176 175/175/175 173/173/173
f 172/172/172 177/177/177 171/171/171
f 177/177/177 174/174/174 171/171/171
f 175/175/175 177/177/177 172/172/172
f 178/178/178 170/170/170 174/174/174
f 177/177/177 178/178/178 174/174/174
f 179/179/179 169/169/169 170/170/170
f 178/178/178 179/179/179 170/170/170
f 176/176/176 180/180/180 175/175/175
f 181/181/181 180/180/180 176/176/176
f 175/175/175 182/182/182 177/177/177
f 182/182/182 178/178/178 177/177/177
f 180/180/180 182/182/182 175/175/175
f 181/181/181 183/183/183 180/180/180
f 184/184/184 183/183/183 181/181/181
f 182/182/182 185/185/185 178/178/178
f 185/185/185 179/179/179 178/178/178
f 180/180/180 186/186/186 182/182/182
f 183/183/183 186/186/186 180/180/180
f 186/186/186 185/185/185 182/182/182
f 179/179/179 187/187/187 169/169/169
f 187/187/187 168/168/168 169/169/169
f 184/184/184 188/188/188 183/183/183
f 189/189/189 188/188/188 184/184/184
f 185/185/185 190/190/190 179/179/179
f 190/190/190 187/187/187 179/179/179
f 183/183/183 191/191/191 186/186/186
f 188/188/188 191/191/191 183/183/183
f 186/186/186 192/192/192 185/185/185
f 192/192/192 190/190/190 185/185/185
f 191/191/191 192/192/192 186/186/186
f 187/187/187 193/193/193 168/168/168
f 193/193/193 166/166/166 168/168/168
f 189/189/189 194/194/194 188/188/188
f 195/195/195 194/194/194 189/189/189
f 190/190/190 196/196/196 187/187/187
f 196/196/196 193/193/193 187/187/187
f 192/192/192 197/197/197 190/190/190
f 197/197/197 196/196/196 190/190/190
f 188/188/188 198/198/198 191/191/191
f 194/194/194 198/198/198 188/188/188
f 191/191/191 199/199/199 192/192/192
f 199/199/199 197/197/197 192/192/192
f 198/198/198 199/199/199 191/191/191
f 193/193/193 200/200/200 166/166/166
f 200/200/200 167/167/167 166/166/166
f 200/200/200 201/201/201 167/167/167
f 195/195/195 202/202/202 194/194/194
f 203/203/203 202/202/202 195/195/195
f 196/196/196 204/204/204 193/193/193
f 204/204/204 200/200/200 193/193/193
f 205/205/205 201/201/201 200/200/200
f 204/204/204 205/205/205 200/200/200
f 205/205/205 206/206/206 201/201/201
f 194/194/194 207/207/207 198/198/198
f 202/202/202 207/207/207 194/194/194
f 198/198/198 208/208/208 199/199/199
f 207/207/207 208/208/208 198/198/198
f 203/203/203 209/209/209 202/202/202
f 210/210/210 209/209/209 203/203/203
f 211/211/211 204/204/204 196/196/196
f 197/197/197 211/211/211 196/196/196
f 199/199/199 212/212/212 197/197/197
f 208/208/208 212/212/212 199/199/199
f 212/212/212 211/211/211 197/197/197
f 213/213/213 206/206/206 205/205/205
f 213/213/213 214/214/214 206/206/206
f 215/215/215 205/205/205 204/204/204
f 211/211/211 215/215/215 204/204/204
f 215/215/215 213/213/213 205/205/205
f 212/212/212 216/216/216 211/211/211
f 216/216/216 215/215/215 211/211/211
f 208/208/208 217/217/217 212/212/212
f 217/217/217 216/216/216 212/212/212
f 218/218/218 214/214/214 213/213/213
f 218/218/218 219/219/219 214/214/214
f 220/220/220 213/213/213 215/215/215
f 216/216/216 220/220/220 215/215/215
f 220/220/220 218/218/218 213/213/213
f 221/221/221 219/219/219 218/218/218
f 221/221/221 222/222/222 219/219/219
f 223/223/223 220/220/220 216/216/216
f 217/217/217 223/223/223 216/216/216
f 224/224/224 218/218/218 220/220/220
f 224/224/224 221/221/221 218/218/218
f 223/223/223 224/224/224 220/220/220
f 225/225/225 217/217/217 208/208/208
f 207/207/207 225/225/225 208/208/208
f 226/226/226 222/222/222 221/221/221
f 226/226/226 227/227/227 222/222/222
f 228/228/228 221/221/221 224/224/224
f 228/228/228 226/226/226 221/221/221
f 229/229/229 223/223/223 217/217/217
f 225/225/225 229/229/229 217/217/217
f 230/230/230 224/224/224 223/223/223
f 230/230/230 228/228/228 224/224/224
f 229/229/229 230/230/230 223/223/223
f 231/231/231 225/225/225 207/207/207
f 202/202/202 231/231/231 207/207/207
f 209/209/209 231/231/231 202/202/202
f 232/232/232 227/227/227 226/226/226
f 232/232/232 233/233/233 227/227/227
f 234/234/234 226/226/226 228/228/228
f 234/234/234 232/232/232 226/226/226
f 235/235/235 228/228/228 230/230/230
f 235/235/235 234/234/234 228/228/228
f 236/236/236 229/229/229 225/225/225
f 231/231/231 236/236/236 225/225/225
f 237/237/237 230/230/230 229/229/229
f 237/237/237 235/235/235 230/230/230
f 236/236/236 237/237/237 229/229/229
f 209/209/209 238/238/238 231/231/231
f 238/238/238 236/236/236 231/231/231
f 239/239/239 233/233/233 232/232/232
f 239/239/239 240/240/240 233/233/233
f 241/241/241 232/232/232 234/234/234
f 241/241/241 239/239/239 232/232/232
f 242/242/242 234/234/234 235/235/235
f 242/242/242 241/241/241 234/234/234
f 243/243/243 237/237/237 236/236/236
f 238/238/238 243/243/243 236/236/236
f 244/244/244 235/235/235 237/237/237
f 244/244/244 242/242/242 235/235/235
f 243/243/243 244/244/244 237/237/237
f 245/245/245 238/238/238 209/209/209
f 210/210/210 245/245/245 209/209/209
f 246/246/246 245/245/245 210/210/210
f 247/247/247 240/240/240 239/239/239
f 247/247/247 248/248/248 240/240/240
f 249/249/249 239/239/239 241/241/241
f 249/249/249 247/247/247 239/239/239
f 250/250/250 241/241/241 242/242/242
f 250/250/250 249/249/249 241/241/241
f 251/251/251 242/242/242 244/244/244
f 251/251/251 250/250/250 242/242/242
f 252/252/252 243/243/243 238/238/238
f 245/245/245 252/252/252 238/238/238
f 246/246/246 253/253/253 245/245/245
f 253/253/253 252/252/252 245/245/245
f 254/254/254 253/253/253 246/246/246
f 255/255/255 244/244/244 243/243/243
f 252/252/252 255/255/255 243/243/243
f 255/255/255 251/251/251 244/244/244
f 254/254/254 256/256/256 253/253/253
f 257/257/257 256/256/256 254/254/254
f 253/253/253 258/258/258 252/252/252
f 258/258/258 255/255/255 252/252/252
f 256/256/256 258/258/258 253/253/253
f 259/259/259 251/251/251 255/255/255
f 258/258/258 259/259/259 255/255/255
f 260/260/260 250/250/250 251/251/251
f 259/259/259 260/260/260 251/251/251
f 257/257/257 261/261/261 256/256/256
f 262/262/262 261/261/261 257/257/257
f 256/256/256 263/263/263 258/258/258
f 263/263/263 259/259/259 258/258/258
f 261/261/261 263/263/263 256/256/256
f 262/262/262 264/264/264 261/261/261
f 265/265/265 264/264/264 262/262/262
f 263/263/263 266/266/266 259/259/259
f 266/266/266 260/260/260 259/259/259
f 261/261/261 267/267/267 263/263/263
f 264/264/264 267/267/267 261/261/261
f 267/267/267 266/266/266 263/263/263
f 260/260/260 268/268/268 250/250/250
f 268/268/268 249/249/249 250/250/250
f 265/265/265 269/269/269 264/264/264
f 270/270/270 269/269/269 265/265/265
f 266/266/266 271/271/271 260/260/260
f 271/271/271 268/268/268 260/260/260
f 264/264/264 272/272/272 267/267/267
f 269/269/269 272/272/272 264/264/264
f 267/267/267 273/273/273 266/266/266
f 273/273/273 271/271/271 266/266/266
f 272/272/272 273/273/273 267/267/267
f 268/268/268 274/274/274 249/249/249
f 274/274/274 247/247/247 249/249/249
f 270/270/270 275/275/275 269/269/269
f 276/276/276 275/275/275 270/270/270
f 271/271/271 277/277/277 268/268/268
f 277/277/277 274/274/274 268/268/268
f 273/273/273 278/278/278 271/271/271
f 278/278/278 277/277/277 271/271/271
f 269/269/269 279/279/279 272/272/272
f 275/275/275 279/279/279 269/269/269
f 272/272/272 280/280/280 273/273/273
f 280/280/280 278/278/278 273/273/273
f 279/279/279 280/280/280 272/272/272
f 274/274/274 281/281/281 247/247/247
f 281/281/281 248/248/248 247/247/247
f 281/281/281 282/282/282 248/248/248
f 276/276/276 283/283/283 275/275/275
f 284/284/284 283/283/283 276/276/276
f 277/277/277 285/285/285 274/274/274
f 285/285/285 281/281/281 274/274/274
f 286/286/286 282/282/282 281/281/281
f 285/285/285 286/286/286 281/281/281
f 286/286/286 287/287/287 282/282/282
f 275/275/275 288/288/288 279/279/279
f 283/283/283 288/288/288 275/275/275
f 279/279/279 289/289/289 280/280/280
f 288/288/288 289/289/289 279/279/279
f 284/284/284 290/290/290 283/283/283
f 291/291/291 290/290/290 284/284/284
f 292/292/292 285/285/285 277/277/277
f 278/278/278 292/292/292 277/277/277
f 280/280/280 293/293/293 278/278/278
f 289/289/289 293/293/293 280/280/280
f 293/293/293 292/292/292 278/278/278
f 294/294/294 287/287/287 286/286/286
f 294/294/294 295/295/295 287/287/287
f 296/296/296 286/286/286 285/285/285
f 292/292/292 296/296/296 285/285/285
f 296/296/296 294/294/294 286/286/286
f 293/293/293 297/297/297 292/292/292
f 297/297/297 296/296/296 292/292/292
f 289/289/289 298/298/298 293/293/293
f 298/298/298 297/297/297 293/293/293
f 299/299/299 295/295/295 294/294/294
f 299/299/299 300/300/300 295/295/295
f 301/301/301 294/294/294 296/296/296
f 297/297/297 301/301/301 296/296/296
f 301/301/301 299/299/299 294/294/294
f 302/302/302 300/300/300 299/299/299
f 302/302/302 303/303/303 300/300/300
f 304/304/304 301/301/301 297/297/297
f 298/298/298 304/304/304 297/297/297
f 305/305/305 299/299/299 301/301/301
f 305/305/305 302/302/302 299/299/299
f 304/304/304 305/305/305 301/301/301
f 306/306/306 298/298/298 289/289/289
f 288/288/288 306/306/306 289/289/289
f 307/307/307 303/303/303 302/302/302
f 307/307/307 308/308/308 303/303/303
f 309/309/309 302/302/302 305/305/305
f 309/309/309 307/307/307 302/302/302
f 310/310/310 304/304/304 298/298/298
f 306/306/306 310/310/310 298/298/298
f 311/311/311 305/305/305 304/304/304
f 311/311/311 309/309/309 305/305/305
f 310/310/310 311/311/311 304/304/304
f 312/312/312 306/306/306 288/288/288
f 283/283/283 312/312/312 288/288/288
f 290/290/290 312/312/312 283/283/283
f 313/313/313 308/308/308 307/307/307
f 313/313/313 314/314/314 308/308/308
f 315/315/315 307/307/307 309/309/309
f 315/315/315 313/313/313 307/307/307
f 316/316/316 309/309/309 311/311/311
f 316/316/316 315/315/315 309/309/309
f 317/317/317 310/310/310 306/306/306
f 312/312/312 317/317/317 306/306/306
f 318/318/318 311/311/311 310/310/310
f 318/318/318 316/316/316 311/311/311
f 317/317/317 318/318/318 310/310/310
f 290/290/290 319/319/319 312/312/312
f 319/319/319 317/317/317 312/312/312
f 320/320/320 314/314/314 313/313/313
f 320/320/320 321/321/321 314/314/314
f 322/322/322 313/313/313 315/315/315
f 322/322/322 320/320/320 313/313/313
f 323/323/323 315/315/315 316/316/316
f 323/323/323 322/322/322 315/315/315
f 324/324/324 318/318/318 317/317/317
f 319/319/319 324/324/324 317/317/317
f 325/325/325 316/316/316 318/318/318
f 325/325/325 323/323/323 316/316/316
f 324/324/324 325/325/325 318/318/318
f 326/326/326 319/319/319 290/290/290
f 291/291/291 326/326/326 290/290/290
f 327/327/327 326/326/326 291/291/291
f 328/328/328 321/321/321 320/320/320
f 328/328/328 329/329/329 321/321/321
f 330/330/330 320/320/320 322/322/322
f 330/330/330 328/328/328 320/320/320
f 331/331/331 322/322/322 323/323/323
f 331/331/331 330/330/330 322/322/322
f 332/332/332 323/323/323 325/325/325
f 332/332/332 331/331/331 323/323/323
f 333/333/333 324/324/324 319/319/319
f 326/326/326 333/333/333 319/319/319
f 327/327/327 334/334/334 326/326/326
f 334/334/334 333/333/333 326/326/326
f 335/335/335 334/334/334 327/327/327
f 336/336/336 325/325/325 324/324/324
f 333/333/333 336/336/336 324/324/324
f 336/336/336 332/332/332 325/325/325
f 335/335/335 337/337/337 334/334/334
f 338/338/338 337/337/337 335/335/335
f 334/334/334 339/339/339 333/333/333
f 339/339/339 336/336/336 333/333/333
f 337/337/337 339/339/339 334/334/334
f 340/340/340 332/332/332 336/336/336
f 339/339/339 340/340/340 336/336/336
f 341/341/341 331/331/331 332/332/332
f 340/340/340 341/341/341 332/332/332
f 338/338/338 342/342/342 337/337/337
f 343/343/343 342/342/342 338/338/338
f 337/337/337 344/344/344 339/339/339
f 344/344/344 340/340/340 339/339/339
f 342/342/342 344/344/344 337/337/337
f 343/343/343 345/345/345 342/342/342
f 346/346/346 345/345/345 343/343/343
f 344/344/344 347/347/347 340/340/340
f 347/347/347 341/341/341 340/340/340
f 342/342/342 348/348/348 344/344/344
f 345/345/345 348/348/348 342/342/342
f 348/348/348 347/347/347 344/344/344
f 341/341/341 349/349/349 331/331/331
f 349/349/349 330/330/330 331/331/331
f 346/346/346 350/350/350 345/345/345
f 351/351/351 350/350/350 346/346/346
f 347/347/347 352/352/352 341/341/341
f 352/352/352 349/349/349 341/341/341
f 345/345/345 353/353/353 348/348/348
f 350/350/350 353/353/353 345/345/345
f 348/348/348 354/354/354 347/347/347
f 354/354/354 352/352/352 347/347/347
f 353/353/353 354/354/354 348/348/348
f 349/349/349 355/355/355 330/330/330
f 355/355/355 328/328/328 330/330/330
f 351/351/351 356/356/356 350/350/350
f 357/357/357 356/356/356 351/351/351
f 352/352/352 358/358/358 349/349/349
f 358/358/358 355/355/355 349/349/349
f 354/354/354 359/359/359 352/352/352
f 359/359/359 358/358/358 352/352/352
f 350/350/350 360/360/360 353/353/353
f 356/356/356 360/360/360 350/350/350
f 353/353/353 361/361/361 354/354/354
f 361/361/361 359/359/359 354/354/354
f 360/360/360 361/361/361 353/353/353
f 355/355/355 362/362/362 328/328/328
f 362/362/362 329/329/329 328/328/328
f 362/362/362 363/363/363 329/329/329
f 357/357/357 364/364/364 356/356/356
f 365/365/365 364/364/364 357/357/357
f 358/358/358 366/366/366 355/355/355
f 366/366/366 362/362/362 355/355/355
f 367/367/367 363/363/363 362/362/362
f 366/366/366 367/367/367 362/362/362
f 367/367/367 368/368/368 363/363/363
f 356/356/356 369/369/369 360/360/360
f 364/364/364 369/369/369 356/356/356
f 360/360/360 370/370/370 361/361/361
f 369/369/369 370/370/370 360/360/360
f 365/365/365 371/371/371 364/364/364
f 372/372/372 371/371/371 365/365/365
f 373/373/373 366/366/366 358/358/358
f 359/359/359 373/373/373 358/358/358
f 361/361/361 374/374/374 359/359/359
f 370/370/370 374/374/374 361/361/361
f 374/374/374 373/373/373 359/359/359
f 375/375/375 368/368/368 367/367/367
f 375/375/375 376/376/376 368/368/368
f 377/377/377 367/367/367 366/366/366
f 373/373/373 377/377/377 366/366/366
f 377/377/377 375/375/375 367/367/367
f 374/374/374 378/378/378 373/373/373
f 378/378/378 377/377/377 373/373/373
f 370/370/370 379/379/379 374/374/374
f 379/379/379 378/378/378 374/374/374
f 380/380/380 376/376/376 375/375/375
f 380/380/380 381/381/381 376/376/376
f 382/382/382 375/375/375 377/377/377
f 378/378/378 382/382/382 377/377/377
f 382/382/382 380/380/380 375/375/375
f 383/383/383 381/381/381 380/380/380
f 383/383/383 384/384/384 381/381/381
f 385/385/385 382/382/382 378/378/378
f 379/379/379 385/385/385 378/378/378
f 386/386/386 380/380/380 382/382/382
f 386/386/386 383/383/383 380/380/380
f 385/385/385 386/386/386 382/382/382
f 387/387/387 379/379/379 370/370/370
f 369/369/369 387/387/387 370/370/370
f 388/388/388 384/384/384 383/383/383
f 388/388/388 389/389/389 384/384/384
f 390/390/390 383/383/383 386/386/386
f 390/390/390 388/388/388 383/383/383
f 391/391/391 385/385/385 379/379/379
f 387/387/387 391/391/391 379/379/379
f 392/392/392 386/386/386 385/385/385
f 392/392/392 390/390/390 386/386/386
f 391/391/391 392/392/392 385/385/385
f 393/393/393 387/387/387 369/369/369
f 364/364/364 393/393/393 369/369/369
f 371/371/371 393/393/393 364/364/364
f 394/394/394 389/389/389 388/388/388
f 394/394/394 395/395/395 389/389/389
f 396/396/396 388/388/388 390/390/390
f 396/396/396 394/394/394 388/388/388
f 397/397/397 390/390/390 392/392/392
f 397/397/397 396/396/396 390/390/390
f 398/398/398 391/391/391 387/387/387
f 393/393/393 398/398/398 387/387/387
f 399/399/399 392/392/392 391/391/391
f 399/399/399 397/397/397 392/392/392
f 398/398/398 399/399/399 391/391/391
f 371/371/371 400/400/400 393/393/393
f 400/400/400 398/398/398 393/393/393
f 401/401/401 395/395/395 394/394/394
f 401/401/401 402/402/402 395/395/395
f 403/403/403 394/394/394 396/396/396
f 403/403/403 401/401/401 394/394/394
f 404/404/404 396/396/396 397/397/397
f 404/404/404 403/403/403 396/396/396
f 405/405/405 399/399/399 398/398/398
f 400/400/400 405/405/405 398/398/398
f 406/406/406 397/397/397 399/399/399
f 406/406/406 404/404/404 397/397/397
f 405/405/405 406/406/406 399/399/399
f 407/407/407 400/400/400 371/371/371
f 372/372/372 407/407/407 371/371/371
f 408/408/408 407/407/407 372/372/372
f 409/409/409 402/402/402 401/401/401
f 409/409/409 410/410/410 402/402/402
f 411/411/411 401/401/401 403/403/403
f 411/411/411 409/409/409 401/401/401
f 412/412/412 403/403/403 404/404/404
f 412/412/412 411/411/411 403/403/403
f 413/413/413 404/404/404 406/406/406
f 413/413/413 412/412/412 404/404/404
f 414/414/414 405/405/405 400/400/400
f 407/407/407 414/414/414 400/400/400
f 408/408/408 415/415/415 407/407/407
f 415/415/415 414/414/414 407/407/407
f 416/416/416 415/415/415 408/408/408
f 417/417/417 406/406/406 405/405/405
f 414/414/414 417/417/417 405/405/405
f 417/417/417 413/413/413 406/406/406
f 416/416/416 418/418/418 415/415/415
f 419/419/419 418/418/418 416/416/416
f 415/415/415 420/420/420 414/414/414
f 420/420/420 417/417/417 414/414/414
f 418/418/418 420/420/420 415/415/415
f 421/421/421 413/413/413 417/417/417
f 420/420/420 421/421/421 417/417/417
f 422/422/422 412/412/412 413/413/413
f 421/421/421 422/422/422 413/413/413
f 419/419/419 423/423/423 418/418/418
f 424/424/424 423/423/423 419/419/419
f 418/418/418 425/425/425 420/420/420
f 425/425/425 421/421/421 420/420/420
f 423/423/423 425/425/425 418/418/418
f 424/424/424 426/426/426 423/423/423
f 427/427/427 426/426/426 424/424/424
f 425/425/425 428/428/428 421/421/421
f 428/428/428 422/422/422 421/421/421
f 423/423/423 429/429/429 425/425/425
f 426/426/426 429/429/429 423/423/423
f 429/429/429 428/428/428 425/425/425
f 422/422/422 430/430/430 412/412/412
f 430/430/430 411/411/411 412/412/412
f 427/427/427 431/431/431 426/426/426
f 432/432/432 431/431/431 427/427/427
f 428/428/428 433/433/433 422/422/422
f 433/433/433 430/430/430 422/422/422
f 426/426/426 434/434/434 429/429/429
f 431/431/431 434/434/434 426/426/426
f 429/429/429 435/435/435 428/428/428
f 435/435/435 433/433/433 428/428/428
f 434/434/434 435/435/435 429/429/429
f 430/430/430 436/436/436 411/411/411
f 436/436/436 409/409/409 411/411/411
f 432/432/432 437/437/437 431/431/431
f 438/438/438 437/437/437 432/432/432
f 433/433/433 439/439/439 430/430/430
f 439/439/439 436/436/436 430/430/430
f 435/435/435 440/440/440 433/433/433
f 440/440/440 439/439/439 433/433/433
f 431/431/431 441/441/441 434/434/434
f 437/437/437 441/441/441 431/431/431
f 434/434/434 442/442/442 435/435/435
f 442/442/442 440/440/440 435/435/435
f 441/441/441 442/442/442 434/434/434
f 436/436/436 443/443/443 409/409/409
f 443/443/443 410/410/410 409/409/409
f 443/443/443 444/444/444 410/410/410
f 438/438/438 445/445/445 437/437/437
f 446/446/446 445/445/445 438/438/438
f 439/439/439 447/447/447 436/436/436
f 447/447/447 443/443/443 436/436/436
f 448/448/448 444/444/444 443/443/443
f 447/447/447 448/448/448 443/443/443
f 448/448/448 449/449/449 444/444/444
f 437/437/437 450/450/450 441/441/441
f 445/445/445 450/450/450 437/437/437
f 441/441/441 451/451/451 442/442/442
f 450/450/450 451/451/451 441/441/441
f 446/446/446 452/452/452 445/445/445
f 453/453/453 452/452/452 446/446/446
f 454/454/454 447/447/447 439/439/439
f 440/440/440 454/454/454 439/439/439
f 442/442/442 455/455/455 440/440/440
f 451/451/451 455/455/455 442/442/442
f 455/455/455 454/454/454 440/440/440
f 456/456/456 449/449/449 448/448/448
f 456/456/456 457/457/457 449/449/449
f 458/458/458 448/448/448 447/447/447
f 454/454/454 458/458/458 447/447/447
f 458/458/458 456/456/456 448/448/448
f 455/455/455 459/459/459 454/454/454
f 459/459/459 458/458/458 454/454/454
f 451/451/451 460/460/460 455/455/455
f 460/460/460 459/459/459 455/455/455
f 461/461/461 457/457/457 456/456/456
f 461/461/461 462/462/462 457/457/457
f 463/463/463 456/456/456 458/458/458
f 459/459/459 463/463/463 458/458/458
f 463/463/463 461/461/461 456/456/456
f 464/464/464 462/462/462 461/461/461
f 464/464/464 465/465/465 462/462/462
f 466/466/466 463/463/463 459/459/459
f 460/460/460 466/466/466 459/459/459
f 467/467/467 461/461/461 463/463/463
f 467/467/467 464/464/464 461/461/461
f 466/466/466 467/467/467 463/463/463
f 468/468/468 460/460/460 451/451/451
f 450/450/450 468/468/468 451/451/451
f 469/469/469 465/465/465 464/464/464
f 469/469/469 470/470/470 465/465/465
f 471/471/471 464/464/464 467/467/467
f 471/471/471 469/469/469 464/464/464
f 472/472/472 466/466/466 460/460/460
f 468/468/468 472/472/472 460/460/460
f 473/473/473 467/467/467 466/466/466
f 473/473/473 471/471/471 467/467/467
f 472/472/472 473/473/473 466/466/466
f 474/474/474 468/468/468 450/450/450
f 445/445/445 474/474/474 450/450/450
f 452/452/452 474/474/474 445/445/445
f 475/475/475 470/470/470 469/469/469
f 475/475/475 476/476/476 470/470/470
f 477/477/477 469/469/469 471/471/471
f 477/477/477 475/475/475 469/469/469
f 478/478/478 471/471/471 473/473/473
f 478/478/478 477/477/477 471/471/471
f 479/479/479 472/472/472 468/468/468
f 474/474/474 479/479/479 468/468/468
f 480/480/480 473/473/473 472/472/472
f 480/480/480 478/478/478 473/473/473
f 479/479/479 480/480/480 472/472/472
f 452/452/452 481/481/481 474/474/474
f 481/481/481 479/479/479 474/474/474
f 482/482/482 476/476/476 475/475/475
f 482/482/482 483/483/483 476/476/476
f 484/484/484 475/475/475 477/477/477
f 484/484/484 482/482/482 475/475/475
f 485/485/485 477/477/477 478/478/478
f 485/485/485 484/484/484 477/477/477
f 486/486/486 480/480/480 479/479/479
f 481/481/481 486/486/486 479/479/479
f 487/487/487 478/478/478 480/480/480
f 487/487/487 485/485/485 478/478/478
f 486/486/486 487/487/487 480/480/480
f 488/488/488 481/481/481 452/452/452
f 453/453/453 488/488/488 452/452/452
f 489/489/489 488/488/488 453/453/453
f 490/490/490 483/483/483 482/482/482
f 490/490/490 491/491/491 483/483/483
f 492/492/492 482/482/482 484/484/484
f 492/492/492 490/490/490 482/482/482
f 493/493/493 484/484/484 485/485/485
f 493/493/493 492/492/492 484/484/484
f 494/494/494 485/485/485 487/487/487
f 494/494/494 493/493/493 485/485/485
f 495/495/495 486/486/486 481/481/481
f 488/488/488 495/495/495 481/481/481
f 489/489/489 496/496/496 488/488/488
f 496/496/496 495/495/495 488/488/488
f 497/497/497 496/496/496 489/489/489
f 498/498/498 487/487/487 486/486/486
f 495/495/495 498/498/498 486/486/486
f 498/498/498 494/494/494 487/487/487
f 497/497/497 499/499/499 496/496/496
f 500/500/500 499/499/499 497/497/497
f 496/496/496 501/501/501 495/495/495
f 501/501/501 498/498/498 495/495/495
f 499/499/499 501/501/501 496/496/496
f 502/502/502 494/494/494 498/498/498
f 501/501/501 502/502/502 498/498/498
f 503/503/503 493/493/493 494/494/494
f 502/502/502 503/503/503 494/494/494
f 500/500/500 504/504/504 499/499/499
f 505/505/505 504/504/504 500/500/500
f 499/499/499 506/506/506 501/501/501
f 506/506/506 502/502/502 501/501/501
f 504/504/504 506/506/506 499/499/499
f 505/505/505 507/507/507 504/504/504
f 508/508/508 507/507/507 505/505/505
f 506/506/506 509/509/509 502/502/502
f 509/509/509 503/503/503 502/502/502
f 504/504/504 510/510/510 506/506/506
f 507/507/507 510/510/510 504/504/504
f 510/510/510 509/509/509 506/506/506
f 503/503/503 511/511/511 493/493/493
f 511/511/511 492/492/492 493/493/493
f 508/508/508 512/512/512 507/507/507
f 513/513/513 512/512/512 508/508/508
f 513/513/513 514/514/514 512/512/512
f 509/509/509 515/515/515 503/503/503
f 515/515/515 511/511/511 503/503/503
f 507/507/507 516/516/516 510/510/510
f 512/512/512 516/516/516 507/507/507
f 514/514/514 517/517/517 512/512/512
f 512/512/512 517/517/517 516/516/516
f 514/514/514 518/518/518 517/517/517
f 510/510/510 519/519/519 509/509/509
f 516/516/516 519/519/519 510/510/510
f 519/519/519 515/515/515 509/509/509
f 511/511/511 520/520/520 492/492/492
f 520/520/520 490/490/490 492/492/492
f 517/517/517 521/521/521 516/516/516
f 516/516/516 521/521/521 519/519/519
f 518/518/518 522/522/522 517/517/517
f 517/517/517 522/522/522 521/521/521
f 518/518/518 523/523/523 522/522/522
f 519/519/519 524/524/524 515/515/515
f 521/521/521 524/524/524 519/519/519
f 515/515/515 525/525/525 511/511/511
f 525/525/525 520/520/520 511/511/511
f 524/524/524 525/525/525 515/515/515
f 520/520/520 526/526/526 490/490/490
f 526/526/526 491/491/491 490/490/490
f 526/526/526 527/527/527 491/491/491
f 522/522/522 528/528/528 521/521/521
f 521/521/521 528/528/528 524/524/524
f 523/523/523 529/529/529 522/522/522
f 522/522/522 529/529/529 528/528/528
f 523/523/523 530/530/530 529/529/529
f 524/524/524 531/531/531 525/525/525
f 528/528/528 531/531/531 524/524/524
f 525/525/525 532/532/532 520/520/520
f 532/532/532 526/526/526 520/520/520
f 531/531/531 532/532/532 525/525/525
f 533/533/533 527/527/527 526/526/526
f 532/532/532 533/533/533 526/526/526
f 533/533/533 534/534/534 527/527/527
f 529/529/529 535/535/535 528/528/528
f 528/528/528 535/535/535 531/531/531
f 530/530/530 536/536/536 529/529/529
f 529/529/529 536/536/536 535/535/535
f 530/530/530 537/537/537 536/536/536
f 531/531/531 538/538/538 532/532/532
f 538/538/538 533/533/533 532/532/532
f 535/535/535 538/538/538 531/531/531
f 539/539/539 534/534/534 533/533/533
f 538/538/538 539/539/539 533/533/533
f 539/539/539 540/540/540 534/534/534
f 535/535/535 541/541/541 538/538/538
f 536/536/536 541/541/541 535/535/535
f 541/541/541 539/539/539 538/538/538
f 537/537/537 542/542/542 536/536/536
f 536/536/536 542/542/542 541/541/541
f 537/537/537 543/543/543 542/542/542
f 544/544/544 540/540/540 539/539/539
f 541/541/541 544/544/544 539/539/539
f 542/542/542 544/544/544 541/541/541
f 544/544/544 545/545/545 540/540/540
f 543/543/543 546/546/546 542/542/542
f 542/542/542 546/546/546 544/544/544
f 546/546/546 545/545/545 544/544/544
f 543/543/543 547/547/547 546/546/546
f 546/546/546 548/548/548 545/545/545
f 547/547/547 548/548/548 546/546/546
f 547/547/547 549/549/549 548/548/548
