g Md_CMN_CircleHalf_04
v 0.5 0 0
v 0.34831467 -5.5891567E-09 0.034306
v 0.35 0 0
v 0.4975923 -7.984509E-09 0.049008563
v 0.34327483 -1.1124486E-08 0.06828161
v 0.4903926 -1.5892125E-08 0.09754516
v 0.47847015 -2.3646688E-08 0.14514235
v 0.33492908 -1.6552683E-08 0.10159964
v 0.32335776 -2.1821467E-08 0.1339392
v 0.46193972 -3.1173524E-08 0.1913417
v 0.30867243 -2.6880095E-08 0.16498886
v 0.44096062 -3.8400138E-08 0.23569837
v 0.41573477 -4.5256943E-08 0.27778512
v 0.2910143 -3.1679857E-08 0.19444957
v 0.27055362 -3.617452E-08 0.22203761
v 0.3865052 -5.1677887E-08 0.31719664
v 0.35355335 -5.760116E-08 0.35355338
v 0.24748735 -4.032081E-08 0.24748737
v 0.3171966 -6.296969E-08 0.3865052
v 0.22203761 -4.407878E-08 0.27055365
v 0.19444951 -4.7412257E-08 0.29101437
v 0.27778506 -6.77318E-08 0.41573483
v 0.23569831 -7.1841605E-08 0.44096062
v 0.16498882 -5.028912E-08 0.30867243
v 0.19134167 -7.525953E-08 0.4619397
v 0.13393916 -5.2681674E-08 0.32335776
v 0.14514227 -7.795268E-08 0.47847012
v 0.1015996 -5.4566872E-08 0.33492908
v 0.06828158 -5.592656E-08 0.3432748
v 0.09754512 -7.9895095E-08 0.4903926
v 0.04900853 -8.106808E-08 0.4975923
v 0.03430597 -5.6747652E-08 0.3483146
v -2.3469328E-08 -5.702223E-08 0.34999996
v -3.3527613E-08 -8.146033E-08 0.4999999
v -0.03430602 -5.6747652E-08 0.3483146
v -0.049008597 -8.106808E-08 0.4975923
v -0.09754518 -7.989509E-08 0.49039257
v -0.06828162 -5.592656E-08 0.3432748
v -0.14514235 -7.795267E-08 0.47847003
v -0.10159964 -5.4566865E-08 0.33492905
v -0.1913417 -7.525952E-08 0.46193966
v -0.1339392 -5.2681667E-08 0.32335776
v -0.23569837 -7.184159E-08 0.44096053
v -0.16498886 -5.0289113E-08 0.30867237
v -0.27778512 -6.773178E-08 0.4157347
v -0.19444957 -4.7412243E-08 0.29101428
v -0.31719664 -6.2969676E-08 0.38650513
v -0.22203761 -4.4078774E-08 0.2705536
v -0.35355335 -5.7601145E-08 0.3535533
v -0.24748734 -4.03208E-08 0.24748729
v -0.3865052 -5.167788E-08 0.31719655
v -0.27055362 -3.6174512E-08 0.22203758
v -0.41573477 -4.5256918E-08 0.277785
v -0.2910143 -3.1679843E-08 0.1944495
v -0.44096053 -3.840012E-08 0.23569825
v -0.30867237 -2.6880084E-08 0.16498879
v -0.46193966 -3.1173503E-08 0.19134161
v -0.32335776 -2.1821453E-08 0.13393913
v -0.33492905 -1.6552669E-08 0.10159956
v -0.47847003 -2.3646669E-08 0.14514221
v -0.49039257 -1.5892107E-08 0.09754506
v -0.3432748 -1.1124475E-08 0.068281546
v -0.34831458 -5.589145E-09 0.03430593
v -0.49759227 -7.984493E-09 0.04900847
v -0.49999988 1.4566244E-14 -8.940697E-08
v -0.3499999 1.019637E-14 -6.2584874E-08
vt 1.0000485 0.0002720356
vt 0.9741609 0.9999142
vt 1.0000485 0.9999142
vt 0.9696889 0.0002720356
vt 0.9460424 0.9999142
vt 0.9343872 0.0002720356
vt 0.8997321 0.0002720356
vt 0.91712916 0.9999142
vt 0.88744617 0.9999142
vt 0.86593926 0.0002720356
vt 0.8572631 0.9999142
vt 0.8328103 0.0002720356
vt 0.800401 0.0002720356
vt 0.8265749 0.9999142
vt 0.79559433 0.9999142
vt 0.7684449 0.0002720356
vt 0.7369093 0.0002720356
vt 0.7643359 0.9999142
vt 0.7057848 0.0002720356
vt 0.73280084 0.9999142
vt 0.7011657 0.9999142
vt 0.6748067 0.0002720356
vt 0.6439245 0.0002720356
vt 0.66945994 0.9999142
vt 0.61319244 0.0002720356
vt 0.63764536 0.9999142
vt 0.58265877 0.0002720356
vt 0.605682 0.9999142
vt 0.5737401 0.9999142
vt 0.5520885 0.0002720356
vt 0.5216346 0.0002720356
vt 0.54170406 0.9999142
vt 0.5097587 0.9999142
vt 0.49104944 0.0002720356
vt 0.47789434 0.9999142
vt 0.46034148 0.0002720356
vt 0.429617 0.0002720356
vt 0.44603467 0.9999142
vt 0.39887616 0.0002720356
vt 0.4141912 0.9999142
vt 0.3681287 0.0002720356
vt 0.38236305 0.9999142
vt 0.33736014 0.0002720356
vt 0.3505349 0.9999142
vt 0.30658576 0.0002720356
vt 0.3187213 0.9999142
vt 0.27580348 0.0002720356
vt 0.28692147 0.9999142
vt 0.2449978 0.0002720356
vt 0.25512436 0.9999142
vt 0.21418789 0.0002720356
vt 0.22334117 0.9999142
vt 0.18337706 0.0002720356
vt 0.19154921 0.9999142
vt 0.15261066 0.0002720356
vt 0.15974358 0.9999142
vt 0.121946484 0.0002720356
vt 0.12785518 0.9999142
vt 0.095985174 0.9999142
vt 0.09125435 0.0002720356
vt 0.06055835 0.0002720356
vt 0.064113736 0.9999142
vt 0.03230697 0.9999142
vt 0.029774189 0.0002720356
vt -0.0010377765 0.0002720356
vt 0.0005185306 0.9999142
vn -0 1 1.6292073E-07
vn -0 1 1.6292068E-07
vn -0 1 1.6292064E-07
vn -0 1 1.6292071E-07
vn -0 1 1.6292068E-07
vn -0 1 1.6292068E-07
vn -0 1 1.6292073E-07
vn -0 1 1.6292066E-07
vn -0 1 1.6292073E-07
vn -0 1 1.6292068E-07
vn -0 1 1.6292076E-07
vn -0 1 1.629206E-07
vn -0 1 1.6292053E-07
vn -0 1 1.629208E-07
vn -0 1 1.629208E-07
vn -0 1 1.6292053E-07
vn -0 1 1.6292073E-07
vn -0 1 1.6292083E-07
vn -0 1 1.629206E-07
vn -0 1 1.6292068E-07
vn -0 1 1.6292063E-07
vn -0 1 1.6292068E-07
vn -0 1 1.629208E-07
vn -0 1 1.6292056E-07
vn -0 1 1.6292078E-07
vn -0 1 1.6292057E-07
vn -0 1 1.6292076E-07
vn -0 1 1.6292071E-07
vn -0 1 1.629207E-07
vn -0 1 1.6292073E-07
vn -0 1 1.629207E-07
vn -0 1 1.6292073E-07
vn -0 1 1.6292073E-07
vn -0 1 1.6292064E-07
vn -0 1 1.6292071E-07
vn -0 1 1.629207E-07
vn -0 1 1.6292068E-07
vn -0 1 1.6292067E-07
vn -0 1 1.6292066E-07
vn -0 1 1.6292066E-07
vn -0 1 1.6292064E-07
vn -0 1 1.629206E-07
vn -0 1 1.6292076E-07
vn -0 1 1.629205E-07
vn -0 1 1.6292086E-07
vn -0 1 1.6292053E-07
vn -0 1 1.6292073E-07
vn -0 1 1.629207E-07
vn -0 1 1.6292066E-07
vn -0 1 1.6292083E-07
vn -0 1 1.6292056E-07
vn -0 1 1.6292086E-07
vn -0 1 1.6292057E-07
vn -0 1 1.6292073E-07
vn -0 1 1.6292073E-07
vn -0 1 1.6292056E-07
vn -0 1 1.6292077E-07
vn -0 1 1.6292053E-07
vn -0 1 1.6292071E-07
vn -0 1 1.6292073E-07
vn -0 1 1.6292073E-07
vn -0 1 1.629207E-07
vn -0 1 1.6292071E-07
vn -0 1 1.6292073E-07
vn -0 1 1.6292066E-07
vn -0 1 1.6292071E-07
g Md_CMN_CircleHalf_04_0
f 3/3/3 2/2/2 1/1/1
f 1/1/1 2/2/2 4/4/4
f 2/2/2 5/5/5 4/4/4
f 4/4/4 5/5/5 6/6/6
f 7/7/7 6/6/6 5/5/5
f 7/7/7 5/5/5 8/8/8
f 8/8/8 9/9/9 7/7/7
f 7/7/7 9/9/9 10/10/10
f 9/9/9 11/11/11 10/10/10
f 10/10/10 11/11/11 12/12/12
f 13/13/13 12/12/12 11/11/11
f 13/13/13 11/11/11 14/14/14
f 14/14/14 15/15/15 13/13/13
f 13/13/13 15/15/15 16/16/16
f 15/15/15 17/17/17 16/16/16
f 15/15/15 18/18/18 17/17/17
f 19/19/19 17/17/17 18/18/18
f 19/19/19 18/18/18 20/20/20
f 20/20/20 21/21/21 19/19/19
f 19/19/19 21/21/21 22/22/22
f 21/21/21 23/23/23 22/22/22
f 21/21/21 24/24/24 23/23/23
f 25/25/25 23/23/23 24/24/24
f 25/25/25 24/24/24 26/26/26
f 26/26/26 27/27/27 25/25/25
f 26/26/26 28/28/28 27/27/27
f 28/28/28 29/29/29 27/27/27
f 27/27/27 29/29/29 30/30/30
f 31/31/31 30/30/30 29/29/29
f 31/31/31 29/29/29 32/32/32
f 32/32/32 33/33/33 31/31/31
f 31/31/31 33/33/33 34/34/34
f 33/33/33 35/35/35 34/34/34
f 34/34/34 35/35/35 36/36/36
f 35/35/35 37/37/37 36/36/36
f 35/35/35 38/38/38 37/37/37
f 38/38/38 39/39/39 37/37/37
f 38/38/38 40/40/40 39/39/39
f 40/40/40 41/41/41 39/39/39
f 40/40/40 42/42/42 41/41/41
f 42/42/42 43/43/43 41/41/41
f 42/42/42 44/44/44 43/43/43
f 44/44/44 45/45/45 43/43/43
f 44/44/44 46/46/46 45/45/45
f 46/46/46 47/47/47 45/45/45
f 46/46/46 48/48/48 47/47/47
f 49/49/49 47/47/47 48/48/48
f 49/49/49 48/48/48 50/50/50
f 50/50/50 51/51/51 49/49/49
f 50/50/50 52/52/52 51/51/51
f 52/52/52 53/53/53 51/51/51
f 52/52/52 54/54/54 53/53/53
f 55/55/55 53/53/53 54/54/54
f 55/55/55 54/54/54 56/56/56
f 57/57/57 55/55/55 56/56/56
f 57/57/57 56/56/56 58/58/58
f 58/58/58 59/59/59 57/57/57
f 57/57/57 59/59/59 60/60/60
f 61/61/61 60/60/60 59/59/59
f 61/61/61 59/59/59 62/62/62
f 62/62/62 63/63/63 61/61/61
f 61/61/61 63/63/63 64/64/64
f 65/65/65 64/64/64 63/63/63
f 65/65/65 63/63/63 66/66/66
