g Md_CMN_Stone_01
v -0.20841557 -0.5358771 1.0452596
v 0.40281504 -0.3306243 0.8549906
v 0.022904688 -0.8697099 0.6788224
v -0.20841557 -0.5358771 1.0452596
v -0.449473 -0.1575523 0.79196316
v -0.091087736 -0.16879106 0.954438
v -0.449473 -0.1575523 0.79196316
v -0.40451998 -0.6570425 0.97062796
v -0.74827874 0.06774187 0.5195422
v 0.91972935 0.53450614 -0.30283174
v 0.38358772 0.15392351 -0.75542974
v 0.92323095 0.037254564 -0.26095393
v -0.38836616 -0.11689305 -0.99148816
v 0.38358772 0.15392351 -0.75542974
v 0.04599478 0.57187504 -0.9690613
v 0.58652395 0.79487157 -0.293945
v 0.2420942 1.0740346 -0.35167426
v 0.04599478 0.57187504 -0.9690613
v 0.7330453 0.74841374 0.52884245
v 0.7501958 0.53751177 0.74424726
v 0.073152766 0.7274413 1.0211601
v -0.00034793565 0.34450153 1.0770435
v 0.75882137 -0.17758526 0.75919104
v 0.40281504 -0.3306243 0.8549906
v -0.6593817 0.62028277 0.7541298
v -0.449473 -0.1575523 0.79196316
v -0.74827874 0.06774187 0.5195422
v 0.7501958 0.53751177 0.74424726
v -0.00034793565 0.34450153 1.0770435
v 0.073152766 0.7274413 1.0211601
v 0.029469298 -0.5140659 -0.9014083
v 0.10405579 -0.7924519 -0.7176506
v 0.6149081 -0.69504714 -0.8284155
v 0.014488648 1.0904707 0.54358196
v -0.09817775 1.066196 0.6896142
v -0.5237025 0.98156095 0.5141593
v 0.073152766 0.7274413 1.0211601
v -0.6593817 0.62028277 0.7541298
v -0.09817775 1.066196 0.6896142
v 0.81215626 -0.8601963 -0.26837307
v 0.7017261 -0.5496451 -0.817502
v 0.6149081 -0.69504714 -0.8284155
v -0.20841557 -0.5358771 1.0452596
v -0.40451998 -0.6570425 0.97062796
v -0.449473 -0.1575523 0.79196316
v 0.10405579 -0.7924519 -0.7176506
v 0.81215626 -0.8601963 -0.26837307
v 0.6149081 -0.69504714 -0.8284155
v -0.5237025 0.98156095 0.5141593
v -0.6593817 0.62028277 0.7541298
v -0.88274205 0.7735846 0.17587641
v -0.9686224 0.51385266 0.138563
v -0.88274205 0.7735846 0.17587641
v -0.74827874 0.06774187 0.5195422
v 0.022904688 -0.8697099 0.6788224
v -0.61441827 -0.7530272 -0.18834442
v -0.40451998 -0.6570425 0.97062796
v -0.74827874 0.06774187 0.5195422
v -0.8956638 -0.43372688 0.5036722
v -0.9686224 0.51385266 0.138563
v -0.92532104 0.45640746 -0.14632568
v -0.77836454 0.8252934 -0.5077752
v -0.75727713 0.784738 -0.05539263
v -0.88274205 0.7735846 0.17587641
v -0.92532104 0.45640746 -0.14632568
v -0.75727713 0.784738 -0.05539263
v -0.90444565 -0.2596468 -0.63271606
v -0.38836616 -0.11689305 -0.99148816
v -0.87250394 0.19289993 -0.5835678
v 0.38358772 0.15392351 -0.75542974
v 0.029469298 -0.5140659 -0.9014083
v 0.62490654 -0.1643593 -0.7844978
v 0.62490654 -0.1643593 -0.7844978
v 0.029469298 -0.5140659 -0.9014083
v 0.7017261 -0.5496451 -0.817502
v 0.7017261 -0.5496451 -0.817502
v 0.029469298 -0.5140659 -0.9014083
v 0.6149081 -0.69504714 -0.8284155
v 0.38358772 0.15392351 -0.75542974
v -0.38836616 -0.11689305 -0.99148816
v 0.029469298 -0.5140659 -0.9014083
v 0.81215626 -0.8601963 -0.26837307
v 0.5880433 -0.9975815 0.11193302
v 1.0025156 -0.5950195 -0.07990238
v -0.005813582 0.99868697 -0.69720036
v -0.75727713 0.784738 -0.05539263
v -0.77836454 0.8252934 -0.5077752
v 0.40281504 -0.3306243 0.8549906
v -0.20841557 -0.5358771 1.0452596
v -0.091087736 -0.16879106 0.954438
v 0.92323095 0.037254564 -0.26095393
v 0.7501958 0.53751177 0.74424726
v 0.91972935 0.53450614 -0.30283174
v 0.93498266 -0.57173425 0.24977536
v 0.92323095 0.037254564 -0.26095393
v 1.0025156 -0.5950195 -0.07990238
v 0.04599478 0.57187504 -0.9690613
v 0.2420942 1.0740346 -0.35167426
v -0.005813582 0.99868697 -0.69720036
v 0.92323095 0.037254564 -0.26095393
v 0.38358772 0.15392351 -0.75542974
v 0.62490654 -0.1643593 -0.7844978
v 0.073152766 0.7274413 1.0211601
v -0.09817775 1.066196 0.6896142
v 0.7330453 0.74841374 0.52884245
v 0.7330453 0.74841374 0.52884245
v 0.014488648 1.0904707 0.54358196
v 0.2420942 1.0740346 -0.35167426
v 0.7501958 0.53751177 0.74424726
v 0.7330453 0.74841374 0.52884245
v 0.91972935 0.53450614 -0.30283174
v 0.75882137 -0.17758526 0.75919104
v -0.00034793565 0.34450153 1.0770435
v 0.7501958 0.53751177 0.74424726
v -0.00034793565 0.34450153 1.0770435
v 0.40281504 -0.3306243 0.8549906
v -0.091087736 -0.16879106 0.954438
v -0.091087736 -0.16879106 0.954438
v -0.449473 -0.1575523 0.79196316
v -0.00034793565 0.34450153 1.0770435
v -0.00034793565 0.34450153 1.0770435
v -0.6593817 0.62028277 0.7541298
v 0.073152766 0.7274413 1.0211601
v -0.449473 -0.1575523 0.79196316
v -0.6593817 0.62028277 0.7541298
v -0.00034793565 0.34450153 1.0770435
v -0.09817775 1.066196 0.6896142
v -0.6593817 0.62028277 0.7541298
v -0.5237025 0.98156095 0.5141593
v 0.7330453 0.74841374 0.52884245
v -0.09817775 1.066196 0.6896142
v 0.014488648 1.0904707 0.54358196
v -0.90444565 -0.2596468 -0.63271606
v 0.029469298 -0.5140659 -0.9014083
v -0.38836616 -0.11689305 -0.99148816
v -0.74827874 0.06774187 0.5195422
v -0.88274205 0.7735846 0.17587641
v -0.6593817 0.62028277 0.7541298
v -0.029961241 -0.89785457 -0.38735977
v -0.61441827 -0.7530272 -0.18834442
v 0.2048197 -1.0841453 0.21180934
v 0.2048197 -1.0841453 0.21180934
v -0.61441827 -0.7530272 -0.18834442
v 0.022904688 -0.8697099 0.6788224
v 0.022904688 -0.8697099 0.6788224
v 0.93498266 -0.57173425 0.24977536
v 0.5880433 -0.9975815 0.11193302
v 0.40281504 -0.3306243 0.8549906
v 0.93498266 -0.57173425 0.24977536
v 0.022904688 -0.8697099 0.6788224
v -0.20841557 -0.5358771 1.0452596
v 0.022904688 -0.8697099 0.6788224
v -0.40451998 -0.6570425 0.97062796
v -0.38836616 -0.11689305 -0.99148816
v 0.04599478 0.57187504 -0.9690613
v -0.3967008 0.46672103 -0.99489105
v 0.04599478 0.57187504 -0.9690613
v 0.91972935 0.53450614 -0.30283174
v 0.58652395 0.79487157 -0.293945
v 0.38358772 0.15392351 -0.75542974
v 0.91972935 0.53450614 -0.30283174
v 0.04599478 0.57187504 -0.9690613
v 0.62490654 -0.1643593 -0.7844978
v 0.7017261 -0.5496451 -0.817502
v 0.92323095 0.037254564 -0.26095393
v 0.92323095 0.037254564 -0.26095393
v 0.7017261 -0.5496451 -0.817502
v 1.0025156 -0.5950195 -0.07990238
v 1.0025156 -0.5950195 -0.07990238
v 0.7017261 -0.5496451 -0.817502
v 0.81215626 -0.8601963 -0.26837307
v -0.005813582 0.99868697 -0.69720036
v -0.3967008 0.46672103 -0.99489105
v 0.04599478 0.57187504 -0.9690613
v -0.74827874 0.06774187 0.5195422
v -0.40451998 -0.6570425 0.97062796
v -0.8956638 -0.43372688 0.5036722
v 0.5880433 -0.9975815 0.11193302
v -0.029961241 -0.89785457 -0.38735977
v 0.2048197 -1.0841453 0.21180934
v 0.93498266 -0.57173425 0.24977536
v 0.75882137 -0.17758526 0.75919104
v 0.92323095 0.037254564 -0.26095393
v 0.92323095 0.037254564 -0.26095393
v 0.75882137 -0.17758526 0.75919104
v 0.7501958 0.53751177 0.74424726
v -1.0316247 -0.33778262 0.13718566
v -0.61441827 -0.7530272 -0.18834442
v -0.94199246 -0.3687002 -0.45005736
v -0.61441827 -0.7530272 -0.18834442
v -1.0316247 -0.33778262 0.13718566
v -0.8956638 -0.43372688 0.5036722
v -0.38836616 -0.11689305 -0.99148816
v -0.3967008 0.46672103 -0.99489105
v -0.87250394 0.19289993 -0.5835678
v -0.87250394 0.19289993 -0.5835678
v -0.3967008 0.46672103 -0.99489105
v -0.83558387 0.51709443 -0.710879
v -0.83558387 0.51709443 -0.710879
v -0.005813582 0.99868697 -0.69720036
v -0.77836454 0.8252934 -0.5077752
v -0.005813582 0.99868697 -0.69720036
v -0.83558387 0.51709443 -0.710879
v -0.3967008 0.46672103 -0.99489105
v 0.10405579 -0.7924519 -0.7176506
v 0.029469298 -0.5140659 -0.9014083
v -0.029961241 -0.89785457 -0.38735977
v -0.61441827 -0.7530272 -0.18834442
v -0.90444565 -0.2596468 -0.63271606
v -0.94199246 -0.3687002 -0.45005736
v -0.9686224 0.51385266 0.138563
v -0.92532104 0.45640746 -0.14632568
v -0.88274205 0.7735846 0.17587641
v 0.75882137 -0.17758526 0.75919104
v 0.93498266 -0.57173425 0.24977536
v 0.40281504 -0.3306243 0.8549906
v 1.0025156 -0.5950195 -0.07990238
v 0.5880433 -0.9975815 0.11193302
v 0.93498266 -0.57173425 0.24977536
v 0.022904688 -0.8697099 0.6788224
v 0.5880433 -0.9975815 0.11193302
v 0.2048197 -1.0841453 0.21180934
v -0.83558387 0.51709443 -0.710879
v -0.77836454 0.8252934 -0.5077752
v -0.92532104 0.45640746 -0.14632568
v -0.40451998 -0.6570425 0.97062796
v -0.61441827 -0.7530272 -0.18834442
v -0.8956638 -0.43372688 0.5036722
v -0.9686224 0.51385266 0.138563
v -0.8956638 -0.43372688 0.5036722
v -1.0316247 -0.33778262 0.13718566
v -0.92532104 0.45640746 -0.14632568
v -0.87250394 0.19289993 -0.5835678
v -0.83558387 0.51709443 -0.710879
v -1.0316247 -0.33778262 0.13718566
v -0.9686224 0.51385266 0.138563
v -0.94199246 -0.3687002 -0.45005736
v -0.90444565 -0.2596468 -0.63271606
v -0.88274205 0.7735846 0.17587641
v -0.75727713 0.784738 -0.05539263
v -0.5237025 0.98156095 0.5141593
v -0.005813582 0.99868697 -0.69720036
v 0.2420942 1.0740346 -0.35167426
v 0.014488648 1.0904707 0.54358196
v -0.005813582 0.99868697 -0.69720036
v -0.5237025 0.98156095 0.5141593
v -0.029961241 -0.89785457 -0.38735977
v 0.81215626 -0.8601963 -0.26837307
v 0.10405579 -0.7924519 -0.7176506
v 0.5880433 -0.9975815 0.11193302
v 0.91972935 0.53450614 -0.30283174
v 0.7330453 0.74841374 0.52884245
v 0.58652395 0.79487157 -0.293945
v 0.2420942 1.0740346 -0.35167426
v -0.61441827 -0.7530272 -0.18834442
v 0.029469298 -0.5140659 -0.9014083
v -0.90444565 -0.2596468 -0.63271606
v -0.029961241 -0.89785457 -0.38735977
vt 0.96530855 0.3190185
vt 0.96091497 0.19276941
vt 0.8692305 0.2824805
vt 0.41654447 0.3214426
vt 0.5117372 0.3542419
vt 0.48395425 0.27961546
vt 0.5117372 0.3542419
vt 0.4085019 0.3675229
vt 0.5850195 0.41020203
vt 0.21689975 0.3548958
vt 0.3576039 0.3427738
vt 0.23334539 0.27059612
vt 0.16214326 0.8123816
vt 0.31619775 0.7865689
vt 0.25227457 0.69437903
vt 0.21834868 0.425719
vt 0.23008285 0.5103833
vt 0.38792157 0.45885032
vt 0.6426892 0.051546484
vt 0.58492357 0.07233477
vt 0.6312349 0.20409673
vt 0.5703296 0.23214328
vt 0.43650526 0.11190683
vt 0.42668098 0.190355
vt 0.6577134 0.32931396
vt 0.5117372 0.3542419
vt 0.5850195 0.41020203
vt 0.58492357 0.07233477
vt 0.5703296 0.23214328
vt 0.6312349 0.20409673
vt 0.65018225 0.6071712
vt 0.6548785 0.6709648
vt 0.75221574 0.67006457
vt 0.9344373 0.44112384
vt 0.9199374 0.409315
vt 0.83290523 0.42193013
vt 0.6312349 0.20409673
vt 0.6577134 0.32931396
vt 0.72297764 0.21511772
vt 0.27964115 0.10230315
vt 0.37442595 0.18719581
vt 0.39266595 0.15327695
vt 0.41654447 0.3214426
vt 0.4085019 0.3675229
vt 0.5117372 0.3542419
vt 0.6548785 0.6709648
vt 0.75221574 0.79333866
vt 0.75221574 0.67006457
vt 0.73543847 0.30674368
vt 0.6577134 0.32931396
vt 0.73785883 0.41159928
vt 0.69969654 0.44756603
vt 0.73785883 0.41159928
vt 0.5850195 0.41020203
vt 0.514257 0.9029391
vt 0.4948781 0.7021808
vt 0.40517634 0.9037775
vt 0.5850195 0.41020203
vt 0.5033666 0.47208312
vt 0.69969654 0.44756603
vt 0.89947873 0.87755173
vt 0.8248691 0.9459162
vt 0.9097117 0.94846785
vt 0.9579849 0.9399291
vt 0.89947873 0.87755173
vt 0.9097117 0.94846785
vt 0.043863744 0.8370611
vt 0.16214326 0.8123816
vt 0.046726733 0.74596184
vt 0.31619775 0.7865689
vt 0.2224392 0.9015383
vt 0.34951502 0.8561624
vt 0.34951502 0.8561624
vt 0.2224392 0.9015383
vt 0.34951505 0.93212074
vt 0.34951505 0.93212074
vt 0.2224392 0.9015383
vt 0.32782322 0.9565836
vt 0.31619775 0.7865689
vt 0.16214326 0.8123816
vt 0.2224392 0.9015383
vt 0.27964115 0.10230315
vt 0.21366027 0.037954926
vt 0.22702411 0.15122029
vt 0.8718735 0.666424
vt 0.75595045 0.51588106
vt 0.7347268 0.5986439
vt 0.42668098 0.190355
vt 0.41654447 0.3214426
vt 0.48395425 0.27961546
vt 0.23334539 0.27059612
vt 0.023829881 0.33964592
vt 0.21689975 0.3548958
vt 0.16539878 0.13894957
vt 0.23334539 0.27059612
vt 0.22702411 0.15122029
vt 0.38792157 0.45885032
vt 0.23008285 0.5103833
vt 0.31495702 0.5316184
vt 0.23334539 0.27059612
vt 0.3576039 0.3427738
vt 0.35589963 0.26352578
vt 0.6312349 0.20409673
vt 0.72297764 0.21511772
vt 0.6426892 0.051546484
vt 0.061030094 0.38775668
vt 0.05670953 0.5433917
vt 0.23008285 0.5103833
vt 0.023829881 0.33964592
vt 0.061030094 0.38775668
vt 0.21689975 0.3548958
vt 0.43650526 0.11190683
vt 0.5703296 0.23214328
vt 0.58492357 0.07233477
vt 0.5703296 0.23214328
vt 0.42668098 0.190355
vt 0.48395425 0.27961546
vt 0.48395425 0.27961546
vt 0.5117372 0.3542419
vt 0.5703296 0.23214328
vt 0.5703296 0.23214328
vt 0.6577134 0.32931396
vt 0.6312349 0.20409673
vt 0.5117372 0.3542419
vt 0.6577134 0.32931396
vt 0.5703296 0.23214328
vt 0.72297764 0.21511772
vt 0.6577134 0.32931396
vt 0.73543847 0.30674368
vt 0.6426892 0.051546484
vt 0.72297764 0.21511772
vt 0.7378589 0.1814987
vt 0.043863744 0.8370611
vt 0.2224392 0.9015383
vt 0.16214326 0.8123816
vt 0.5850195 0.41020203
vt 0.73785883 0.41159928
vt 0.6577134 0.32931396
vt 0.60734653 0.7191515
vt 0.4948781 0.7021808
vt 0.6036429 0.84593594
vt 0.6036429 0.84593594
vt 0.4948781 0.7021808
vt 0.514257 0.9029391
vt 0.8692305 0.2824805
vt 0.8437898 0.086616755
vt 0.7720308 0.16519964
vt 0.96091497 0.19276941
vt 0.8437898 0.086616755
vt 0.8692305 0.2824805
vt 0.96530855 0.3190185
vt 0.8692305 0.2824805
vt 0.94215465 0.35822207
vt 0.16214326 0.8123816
vt 0.25227457 0.69437903
vt 0.1696352 0.7107791
vt 0.38792157 0.45885032
vt 0.21689975 0.3548958
vt 0.21834868 0.425719
vt 0.3576039 0.3427738
vt 0.21689975 0.3548958
vt 0.38792157 0.45885032
vt 0.35589963 0.26352578
vt 0.37442595 0.18719581
vt 0.23334539 0.27059612
vt 0.23334539 0.27059612
vt 0.37442595 0.18719581
vt 0.22702411 0.15122029
vt 0.22702411 0.15122029
vt 0.37442595 0.18719581
vt 0.27964115 0.10230315
vt 0.2382302 0.5942585
vt 0.1696352 0.7107791
vt 0.25227457 0.69437903
vt 0.5850195 0.41020203
vt 0.4085019 0.3675229
vt 0.5033666 0.47208312
vt 0.68265575 0.85179365
vt 0.60734653 0.7191515
vt 0.6036429 0.84593594
vt 0.16539878 0.13894957
vt 0.050785426 0.19584998
vt 0.23334539 0.27059612
vt 0.23334539 0.27059612
vt 0.050785426 0.19584998
vt 0.023829881 0.33964592
vt 0.37163767 0.69559723
vt 0.4948781 0.7021808
vt 0.44621262 0.6102899
vt 0.4948781 0.7021808
vt 0.37163767 0.69559723
vt 0.36232686 0.77246666
vt 0.16214326 0.8123816
vt 0.1696352 0.7107791
vt 0.046726733 0.74596184
vt 0.046726733 0.74596184
vt 0.1696352 0.7107791
vt 0.076716274 0.6830758
vt 0.076716274 0.6830758
vt 0.2382302 0.5942585
vt 0.08279753 0.61158055
vt 0.2382302 0.5942585
vt 0.076716274 0.6830758
vt 0.1696352 0.7107791
vt 0.6548785 0.6709648
vt 0.65018225 0.6071712
vt 0.60734653 0.7191515
vt 0.4948781 0.7021808
vt 0.46270576 0.57262397
vt 0.44621262 0.6102899
vt 0.9538736 0.8885779
vt 0.89947873 0.87755173
vt 0.9579849 0.9399291
vt 0.96530855 0.11788896
vt 0.8437898 0.086616755
vt 0.96091497 0.19276941
vt 0.22702411 0.15122029
vt 0.21366027 0.037954926
vt 0.16539878 0.13894957
vt 0.8692305 0.2824805
vt 0.7720308 0.16519964
vt 0.77543515 0.2412982
vt 0.79142207 0.8849666
vt 0.8248691 0.9459162
vt 0.89947873 0.87755173
vt 0.40517634 0.9037775
vt 0.4948781 0.7021808
vt 0.36232686 0.77246666
vt 0.69969654 0.44756603
vt 0.5033666 0.47208312
vt 0.55575633 0.53016645
vt 0.89947873 0.87755173
vt 0.81793445 0.8253907
vt 0.79142207 0.8849666
vt 0.9579849 0.7281274
vt 0.9538736 0.8885779
vt 0.84669447 0.72019744
vt 0.8113735 0.7400515
vt 0.7434729 0.46799412
vt 0.75595045 0.51588106
vt 0.83290523 0.42193013
vt 0.8718735 0.666424
vt 0.9344373 0.6147321
vt 0.9344373 0.44112384
vt 0.8718735 0.666424
vt 0.83290523 0.42193013
vt 0.60734653 0.7191515
vt 0.75221574 0.79333866
vt 0.6548785 0.6709648
vt 0.68265575 0.85179365
vt 0.21689975 0.3548958
vt 0.061030094 0.38775668
vt 0.21834868 0.425719
vt 0.23008285 0.5103833
vt 0.4948781 0.7021808
vt 0.65018225 0.6071712
vt 0.46270576 0.57262397
vt 0.60734653 0.7191515
vn 0.40927202 -0.530918 0.7420394
vn 0.40927202 -0.530918 0.7420394
vn 0.40927202 -0.530918 0.7420394
vn -0.38033456 0.33485624 0.86210036
vn -0.38033456 0.33485624 0.86210036
vn -0.38033456 0.33485624 0.86210036
vn -0.55111414 0.23662008 0.8001776
vn -0.55111414 0.23662008 0.8001776
vn -0.55111414 0.23662008 0.8001776
vn 0.6676257 -0.05780987 -0.7422492
vn 0.6676257 -0.05780987 -0.7422492
vn 0.6676257 -0.05780987 -0.7422492
vn 0.3472051 -0.18905139 -0.9185359
vn 0.3472051 -0.18905139 -0.9185359
vn 0.3472051 -0.18905139 -0.9185359
vn 0.552254 0.5522132 -0.62456065
vn 0.552254 0.5522132 -0.62456065
vn 0.552254 0.5522132 -0.62456065
vn 0.43547967 0.660313 0.61183673
vn 0.43547967 0.660313 0.61183673
vn 0.43547967 0.660313 0.61183673
vn 0.30800784 -0.12621729 0.9429742
vn 0.30800784 -0.12621729 0.9429742
vn 0.30800784 -0.12621729 0.9429742
vn -0.72941804 -0.1645472 0.66398305
vn -0.72941804 -0.1645472 0.66398305
vn -0.72941804 -0.1645472 0.66398305
vn 0.39198306 0.05874332 0.918095
vn 0.39198306 0.05874332 0.918095
vn 0.39198306 0.05874332 0.918095
vn -0.071274884 -0.5627202 -0.823569
vn -0.071274884 -0.5627202 -0.823569
vn -0.071274884 -0.5627202 -0.823569
vn -0.19883193 0.9799875 0.009499345
vn -0.19883193 0.9799875 0.009499345
vn -0.19883193 0.9799875 0.009499345
vn -0.35526994 0.5558586 0.75153464
vn -0.35526994 0.5558586 0.75153464
vn -0.35526994 0.5558586 0.75153464
vn 0.7958559 -0.44432342 -0.4113274
vn 0.7958559 -0.44432342 -0.4113274
vn 0.7958559 -0.44432342 -0.4113274
vn -0.47846538 0.25725153 0.8395788
vn -0.47846538 0.25725153 0.8395788
vn -0.47846538 0.25725153 0.8395788
vn 0.11090896 -0.9419729 -0.31683788
vn 0.11090896 -0.9419729 -0.31683788
vn 0.11090896 -0.9419729 -0.31683788
vn -0.7186353 0.55135626 0.42375642
vn -0.7186353 0.55135626 0.42375642
vn -0.7186353 0.55135626 0.42375642
vn -0.76072216 0.16120729 0.62874
vn -0.76072216 0.16120729 0.62874
vn -0.76072216 0.16120729 0.62874
vn -0.36166105 -0.9214609 0.14181362
vn -0.36166105 -0.9214609 0.14181362
vn -0.36166105 -0.9214609 0.14181362
vn -0.73285675 0.19476046 0.6519121
vn -0.73285675 0.19476046 0.6519121
vn -0.73285675 0.19476046 0.6519121
vn -0.89617234 0.43627128 0.08088536
vn -0.89617234 0.43627128 0.08088536
vn -0.89617234 0.43627128 0.08088536
vn -0.7696934 0.5028693 -0.39331225
vn -0.7696934 0.5028693 -0.39331225
vn -0.7696934 0.5028693 -0.39331225
vn -0.58976287 0.12821987 -0.7973326
vn -0.58976287 0.12821987 -0.7973326
vn -0.58976287 0.12821987 -0.7973326
vn 0.09694375 0.16316982 -0.9818236
vn 0.09694375 0.16316982 -0.9818236
vn 0.09694375 0.16316982 -0.9818236
vn 0.12883484 0.11011018 -0.9855341
vn 0.12883484 0.11011018 -0.9855341
vn 0.12883484 0.11011018 -0.9855341
vn 0.12387849 0.000511471 -0.99229723
vn 0.12387849 0.000511471 -0.99229723
vn 0.12387849 0.000511471 -0.99229723
vn 0.2703458 0.06657562 -0.9604586
vn 0.2703458 0.06657562 -0.9604586
vn 0.2703458 0.06657562 -0.9604586
vn 0.7279713 -0.65842634 0.19113462
vn 0.7279713 -0.65842634 0.19113462
vn 0.7279713 -0.65842634 0.19113462
vn -0.195362 0.9759621 0.09660013
vn -0.195362 0.9759621 0.09660013
vn -0.195362 0.9759621 0.09660013
vn 0.24454817 0.15851003 0.95659333
vn 0.24454817 0.15851003 0.95659333
vn 0.24454817 0.15851003 0.95659333
vn 0.9869484 0.020402994 0.15973908
vn 0.9869484 0.020402994 0.15973908
vn 0.9869484 0.020402994 0.15973908
vn 0.9669853 0.17444861 0.18576092
vn 0.9669853 0.17444861 0.18576092
vn 0.9669853 0.17444861 0.18576092
vn 0.6745726 0.45309964 -0.5827972
vn 0.6745726 0.45309964 -0.5827972
vn 0.6745726 0.45309964 -0.5827972
vn 0.6320737 0.530793 -0.56457204
vn 0.6320737 0.530793 -0.56457204
vn 0.6320737 0.530793 -0.56457204
vn 0.3887426 0.7373286 0.5524725
vn 0.3887426 0.7373286 0.5524725
vn 0.3887426 0.7373286 0.5524725
vn 0.42951664 0.8982878 0.09270646
vn 0.42951664 0.8982878 0.09270646
vn 0.42951664 0.8982878 0.09270646
vn 0.95937365 0.23597395 0.15465574
vn 0.95937365 0.23597395 0.15465574
vn 0.95937365 0.23597395 0.15465574
vn 0.40007183 0.023971371 0.9161703
vn 0.40007183 0.023971371 0.9161703
vn 0.40007183 0.023971371 0.9161703
vn 0.1119099 -0.24953802 0.96187675
vn 0.1119099 -0.24953802 0.96187675
vn 0.1119099 -0.24953802 0.96187675
vn -0.41240746 -0.14203528 0.8998589
vn -0.41240746 -0.14203528 0.8998589
vn -0.41240746 -0.14203528 0.8998589
vn -0.36138368 0.2021952 0.9102302
vn -0.36138368 0.2021952 0.9102302
vn -0.36138368 0.2021952 0.9102302
vn -0.46627375 -0.08299164 0.880739
vn -0.46627375 -0.08299164 0.880739
vn -0.46627375 -0.08299164 0.880739
vn -0.403178 0.6065596 0.68522483
vn -0.403178 0.6065596 0.68522483
vn -0.403178 0.6065596 0.68522483
vn 0.39369023 0.8081447 0.43807554
vn 0.39369023 0.8081447 0.43807554
vn 0.39369023 0.8081447 0.43807554
vn -0.36607793 -0.5546036 -0.7472629
vn -0.36607793 -0.5546036 -0.7472629
vn -0.36607793 -0.5546036 -0.7472629
vn -0.9330572 -0.0026053323 0.3597185
vn -0.9330572 -0.0026053323 0.3597185
vn -0.9330572 -0.0026053323 0.3597185
vn -0.29315487 -0.9394941 -0.17723182
vn -0.29315487 -0.9394941 -0.17723182
vn -0.29315487 -0.9394941 -0.17723182
vn -0.45560277 -0.8628905 0.21873735
vn -0.45560277 -0.8628905 0.21873735
vn -0.45560277 -0.8628905 0.21873735
vn 0.4922029 -0.603923 0.62690765
vn 0.4922029 -0.603923 0.62690765
vn 0.4922029 -0.603923 0.62690765
vn 0.49509627 -0.5646914 0.6603055
vn 0.49509627 -0.5646914 0.6603055
vn 0.49509627 -0.5646914 0.6603055
vn 0.14916317 -0.68226784 0.7157241
vn 0.14916317 -0.68226784 0.7157241
vn 0.14916317 -0.68226784 0.7157241
vn 0.05942347 -0.0049716826 -0.9982205
vn 0.05942347 -0.0049716826 -0.9982205
vn 0.05942347 -0.0049716826 -0.9982205
vn 0.48344743 0.63911325 -0.59817463
vn 0.48344743 0.63911325 -0.59817463
vn 0.48344743 0.63911325 -0.59817463
vn 0.6064291 0.085777685 -0.7904973
vn 0.6064291 0.085777685 -0.7904973
vn 0.6064291 0.085777685 -0.7904973
vn 0.81298745 0.20866266 -0.54360956
vn 0.81298745 0.20866266 -0.54360956
vn 0.81298745 0.20866266 -0.54360956
vn 0.9261111 0.008129892 -0.3771633
vn 0.9261111 0.008129892 -0.3771633
vn 0.9261111 0.008129892 -0.3771633
vn 0.8588566 -0.3522114 -0.37190402
vn 0.8588566 -0.3522114 -0.37190402
vn 0.8588566 -0.3522114 -0.37190402
vn -0.0763555 0.52905345 -0.8451463
vn -0.0763555 0.52905345 -0.8451463
vn -0.0763555 0.52905345 -0.8451463
vn -0.63945746 0.1641711 0.751094
vn -0.63945746 0.1641711 0.751094
vn -0.63945746 0.1641711 0.751094
vn 0.122632936 -0.9330653 -0.33815706
vn 0.122632936 -0.9330653 -0.33815706
vn 0.122632936 -0.9330653 -0.33815706
vn 0.96428066 0.18088745 0.19350086
vn 0.96428066 0.18088745 0.19350086
vn 0.96428066 0.18088745 0.19350086
vn 0.9866346 0.015291072 0.16222928
vn 0.9866346 0.015291072 0.16222928
vn 0.9866346 0.015291072 0.16222928
vn -0.7326315 -0.6763448 -0.07621462
vn -0.7326315 -0.6763448 -0.07621462
vn -0.7326315 -0.6763448 -0.07621462
vn -0.6798592 -0.73081 0.06089524
vn -0.6798592 -0.73081 0.06089524
vn -0.6798592 -0.73081 0.06089524
vn -0.64939857 -0.013707149 -0.76032466
vn -0.64939857 -0.013707149 -0.76032466
vn -0.64939857 -0.013707149 -0.76032466
vn -0.54600054 -0.2516282 -0.7991036
vn -0.54600054 -0.2516282 -0.7991036
vn -0.54600054 -0.2516282 -0.7991036
vn -0.31380185 0.56240034 -0.76500607
vn -0.31380185 0.56240034 -0.76500607
vn -0.31380185 0.56240034 -0.76500607
vn -0.36240295 0.64355814 -0.67416394
vn -0.36240295 0.64355814 -0.67416394
vn -0.36240295 0.64355814 -0.67416394
vn -0.7356138 -0.49928167 -0.45781013
vn -0.7356138 -0.49928167 -0.45781013
vn -0.7356138 -0.49928167 -0.45781013
vn -0.43663022 -0.7301014 -0.5256483
vn -0.43663022 -0.7301014 -0.5256483
vn -0.43663022 -0.7301014 -0.5256483
vn -0.9196087 0.3338188 -0.20708644
vn -0.9196087 0.3338188 -0.20708644
vn -0.9196087 0.3338188 -0.20708644
vn 0.4423792 -0.6287786 0.63948274
vn 0.4423792 -0.6287786 0.63948274
vn 0.4423792 -0.6287786 0.63948274
vn 0.72835094 -0.65669817 0.19558205
vn 0.72835094 -0.65669817 0.19558205
vn 0.72835094 -0.65669817 0.19558205
vn 0.3120749 -0.81143725 0.49414462
vn 0.3120749 -0.81143725 0.49414462
vn 0.3120749 -0.81143725 0.49414462
vn -0.95765275 0.25971133 -0.12430338
vn -0.95765275 0.25971133 -0.12430338
vn -0.95765275 0.25971133 -0.12430338
vn -0.5342015 -0.8290172 0.16540591
vn -0.5342015 -0.8290172 0.16540591
vn -0.5342015 -0.8290172 0.16540591
vn -0.9294284 0.06817081 0.3626507
vn -0.9294284 0.06817081 0.3626507
vn -0.9294284 0.06817081 0.3626507
vn -0.9870798 0.05303573 -0.15119757
vn -0.9870798 0.05303573 -0.15119757
vn -0.9870798 0.05303573 -0.15119757
vn -0.98371166 0.07303874 -0.16424595
vn -0.98371166 0.07303874 -0.16424595
vn -0.9847728 0.08592062 -0.1511293
vn -0.9847728 0.08592062 -0.1511293
vn -0.37707895 0.9121549 -0.16057701
vn -0.37707895 0.9121549 -0.16057701
vn -0.37707895 0.9121549 -0.16057701
vn -0.38989672 0.9079147 -0.15385525
vn -0.20083411 0.9771922 -0.06899917
vn -0.20083411 0.9771922 -0.06899917
vn -0.20083411 0.9771922 -0.06899917
vn -0.1942299 0.97851187 -0.06920482
vn 0.08142245 -0.9585988 -0.2728714
vn 0.08142245 -0.9585988 -0.2728714
vn 0.08142245 -0.9585988 -0.2728714
vn 0.08415674 -0.9519962 -0.2943142
vn 0.613349 0.787151 -0.06477905
vn 0.613349 0.787151 -0.06477905
vn 0.613349 0.787151 -0.06477905
vn 0.63515157 0.7692387 -0.06967301
vn -0.36491084 -0.73232526 -0.5749258
vn -0.36491084 -0.73232526 -0.5749258
vn -0.36491084 -0.73232526 -0.5749258
vn -0.3767229 -0.72086424 -0.5817513
g Md_CMN_Stone_01_0
f 3/3/3 2/2/2 1/1/1
f 6/6/6 5/5/5 4/4/4
f 9/9/9 8/8/8 7/7/7
f 12/12/12 11/11/11 10/10/10
f 15/15/15 14/14/14 13/13/13
f 18/18/18 17/17/17 16/16/16
f 21/21/21 20/20/20 19/19/19
f 24/24/24 23/23/23 22/22/22
f 27/27/27 26/26/26 25/25/25
f 30/30/30 29/29/29 28/28/28
f 33/33/33 32/32/32 31/31/31
f 36/36/36 35/35/35 34/34/34
f 39/39/39 38/38/38 37/37/37
f 42/42/42 41/41/41 40/40/40
f 45/45/45 44/44/44 43/43/43
f 48/48/48 47/47/47 46/46/46
f 51/51/51 50/50/50 49/49/49
f 54/54/54 53/53/53 52/52/52
f 57/57/57 56/56/56 55/55/55
f 60/60/60 59/59/59 58/58/58
f 63/63/63 62/62/62 61/61/61
f 66/66/66 65/65/65 64/64/64
f 69/69/69 68/68/68 67/67/67
f 72/72/72 71/71/71 70/70/70
f 75/75/75 74/74/74 73/73/73
f 78/78/78 77/77/77 76/76/76
f 81/81/81 80/80/80 79/79/79
f 84/84/84 83/83/83 82/82/82
f 87/87/87 86/86/86 85/85/85
f 90/90/90 89/89/89 88/88/88
f 93/93/93 92/92/92 91/91/91
f 96/96/96 95/95/95 94/94/94
f 99/99/99 98/98/98 97/97/97
f 102/102/102 101/101/101 100/100/100
f 105/105/105 104/104/104 103/103/103
f 108/108/108 107/107/107 106/106/106
f 111/111/111 110/110/110 109/109/109
f 114/114/114 113/113/113 112/112/112
f 117/117/117 116/116/116 115/115/115
f 120/120/120 119/119/119 118/118/118
f 123/123/123 122/122/122 121/121/121
f 126/126/126 125/125/125 124/124/124
f 129/129/129 128/128/128 127/127/127
f 132/132/132 131/131/131 130/130/130
f 135/135/135 134/134/134 133/133/133
f 138/138/138 137/137/137 136/136/136
f 141/141/141 140/140/140 139/139/139
f 144/144/144 143/143/143 142/142/142
f 147/147/147 146/146/146 145/145/145
f 150/150/150 149/149/149 148/148/148
f 153/153/153 152/152/152 151/151/151
f 156/156/156 155/155/155 154/154/154
f 159/159/159 158/158/158 157/157/157
f 162/162/162 161/161/161 160/160/160
f 165/165/165 164/164/164 163/163/163
f 168/168/168 167/167/167 166/166/166
f 171/171/171 170/170/170 169/169/169
f 174/174/174 173/173/173 172/172/172
f 177/177/177 176/176/176 175/175/175
f 180/180/180 179/179/179 178/178/178
f 183/183/183 182/182/182 181/181/181
f 186/186/186 185/185/185 184/184/184
f 189/189/189 188/188/188 187/187/187
f 192/192/192 191/191/191 190/190/190
f 195/195/195 194/194/194 193/193/193
f 198/198/198 197/197/197 196/196/196
f 201/201/201 200/200/200 199/199/199
f 204/204/204 203/203/203 202/202/202
f 207/207/207 206/206/206 205/205/205
f 210/210/210 209/209/209 208/208/208
f 213/213/213 212/212/212 211/211/211
f 216/216/216 215/215/215 214/214/214
f 219/219/219 218/218/218 217/217/217
f 222/222/222 221/221/221 220/220/220
f 225/225/225 224/224/224 223/223/223
f 228/228/228 227/227/227 226/226/226
f 231/231/231 230/230/230 229/229/229
f 234/234/234 233/233/233 232/232/232
f 233/233/233 235/235/235 232/232/232
f 236/236/236 232/232/232 235/235/235
f 237/237/237 235/235/235 233/233/233
f 238/238/238 237/237/237 233/233/233
f 241/241/241 240/240/240 239/239/239
f 240/240/240 241/241/241 242/242/242
f 245/245/245 244/244/244 243/243/243
f 246/246/246 244/244/244 245/245/245
f 249/249/249 248/248/248 247/247/247
f 248/248/248 250/250/250 247/247/247
f 253/253/253 252/252/252 251/251/251
f 252/252/252 253/253/253 254/254/254
f 257/257/257 256/256/256 255/255/255
f 255/255/255 256/256/256 258/258/258
