g Md_CMN_RingHalf_01
v 0.45306364 0.09754518 -0.18766508
v 0.49039257 0.09754518 4.5543388E-08
v 0.4619397 0.1913417 8.290485E-09
v 0.42677665 0.1913417 -0.17677668
v 0.4619397 -2.1855694E-08 -0.19134161
v 0.49999985 -2.1855694E-08 8.2796284E-08
v 0.49039257 0.09754518 4.5543388E-08
v 0.45306364 0.09754518 -0.18766508
v 0.45306364 -0.09754516 -0.18766508
v 0.49039257 -0.09754516 4.5543388E-08
v 0.49999985 -2.1855694E-08 8.2796284E-08
v 0.4619397 -2.1855694E-08 -0.19134161
v 0.42677674 -0.1913417 -0.17677665
v 0.46193975 -0.1913417 7.534571E-08
v 0.49039257 -0.09754516 4.5543388E-08
v 0.45306364 -0.09754516 -0.18766508
v 0.49999985 -2.1855694E-08 8.2796284E-08
v 0.46193954 -2.1855694E-08 0.19134171
v 0.4530636 0.09754518 0.18766515
v 0.49039257 0.09754518 4.5543388E-08
v 0.49039257 -0.09754516 4.5543388E-08
v 0.4530636 -0.09754516 0.18766515
v 0.46193954 -2.1855694E-08 0.19134171
v 0.49999985 -2.1855694E-08 8.2796284E-08
v 0.46193975 -0.1913417 7.534571E-08
v 0.42677668 -0.1913417 0.17677677
v 0.4530636 -0.09754516 0.18766515
v 0.49039257 -0.09754516 4.5543388E-08
v 0.49039257 0.09754518 4.5543388E-08
v 0.4530636 0.09754518 0.18766515
v 0.42677662 0.1913417 0.17677668
v 0.4619397 0.1913417 8.290485E-09
v 0.4530636 -0.09754516 0.18766515
v 0.34675986 -0.09754516 0.34675992
v 0.35355312 -2.1855694E-08 0.3535533
v 0.46193954 -2.1855694E-08 0.19134171
v 0.42677668 -0.1913417 0.17677677
v 0.3266407 -0.1913417 0.32664078
v 0.34675986 -0.09754516 0.34675992
v 0.4530636 -0.09754516 0.18766515
v 0.4530636 0.09754518 0.18766515
v 0.34675986 0.09754518 0.34675992
v 0.32664067 0.1913417 0.3266407
v 0.42677662 0.1913417 0.17677668
v 0.46193954 -2.1855694E-08 0.19134171
v 0.35355312 -2.1855694E-08 0.3535533
v 0.34675986 0.09754518 0.34675992
v 0.4530636 0.09754518 0.18766515
v 0.34675986 -0.09754516 0.34675992
v 0.18766502 -0.09754516 0.4530636
v 0.19134149 -2.1855694E-08 0.46193957
v 0.35355312 -2.1855694E-08 0.3535533
v 0.3266407 -0.1913417 0.32664078
v 0.17677663 -0.1913417 0.42677668
v 0.18766502 -0.09754516 0.4530636
v 0.34675986 -0.09754516 0.34675992
v 0.34675986 0.09754518 0.34675992
v 0.18766502 0.09754518 0.4530636
v 0.17677665 0.1913417 0.42677662
v 0.32664067 0.1913417 0.3266407
v 0.35355312 -2.1855694E-08 0.3535533
v 0.19134149 -2.1855694E-08 0.46193957
v 0.18766502 0.09754518 0.4530636
v 0.34675986 0.09754518 0.34675992
v 0.17677663 -0.1913417 0.42677668
v -5.852755E-08 -0.1913417 0.46193972
v -3.6175813E-08 -0.09754516 0.49039248
v 0.18766502 -0.09754516 0.4530636
v 0.18766502 0.09754518 0.4530636
v -3.6175813E-08 0.09754518 0.49039248
v 8.527669E-09 0.1913417 0.46193966
v 0.17677665 0.1913417 0.42677662
v 0.19134149 -2.1855694E-08 0.46193957
v -1.3303337E-07 -2.1855694E-08 0.49999967
v -3.6175813E-08 0.09754518 0.49039248
v 0.18766502 0.09754518 0.4530636
v 0.18766502 -0.09754516 0.4530636
v -3.6175813E-08 -0.09754516 0.49039248
v -1.3303337E-07 -2.1855694E-08 0.49999967
v 0.19134149 -2.1855694E-08 0.46193957
v -5.852755E-08 -0.1913417 0.46193972
v -0.1767767 -0.1913417 0.42677665
v -0.18766508 -0.09754516 0.45306355
v -3.6175813E-08 -0.09754516 0.49039248
v -3.6175813E-08 0.09754518 0.49039248
v -0.18766508 0.09754518 0.45306355
v -0.17677662 0.1913417 0.42677656
v 8.527669E-09 0.1913417 0.46193966
v -1.3303337E-07 -2.1855694E-08 0.49999967
v -0.1913417 -2.1855694E-08 0.4619394
v -0.18766508 0.09754518 0.45306355
v -3.6175813E-08 0.09754518 0.49039248
v -3.6175813E-08 -0.09754516 0.49039248
v -0.18766508 -0.09754516 0.45306355
v -0.1913417 -2.1855694E-08 0.4619394
v -1.3303337E-07 -2.1855694E-08 0.49999967
v -0.18766508 0.09754518 0.45306355
v -0.34675983 0.09754518 0.3467598
v -0.3266406 0.1913417 0.32664067
v -0.17677662 0.1913417 0.42677656
v -0.1913417 -2.1855694E-08 0.4619394
v -0.35355324 -2.1855694E-08 0.353553
v -0.34675983 0.09754518 0.3467598
v -0.18766508 0.09754518 0.45306355
v -0.18766508 -0.09754516 0.45306355
v -0.34675983 -0.09754516 0.3467598
v -0.35355324 -2.1855694E-08 0.353553
v -0.1913417 -2.1855694E-08 0.4619394
v -0.1767767 -0.1913417 0.42677665
v -0.32664073 -0.1913417 0.32664067
v -0.34675983 -0.09754516 0.3467598
v -0.18766508 -0.09754516 0.45306355
v -0.34675983 0.09754518 0.3467598
v -0.4530635 0.09754518 0.18766502
v -0.42677653 0.1913417 0.17677665
v -0.3266406 0.1913417 0.32664067
v -0.35355324 -2.1855694E-08 0.353553
v -0.46193942 -2.1855694E-08 0.19134136
v -0.4530635 0.09754518 0.18766502
v -0.34675983 0.09754518 0.3467598
v -0.34675983 -0.09754516 0.3467598
v -0.4530635 -0.09754516 0.18766502
v -0.46193942 -2.1855694E-08 0.19134136
v -0.35355324 -2.1855694E-08 0.353553
v -0.32664073 -0.1913417 0.32664067
v -0.42677665 -0.1913417 0.17677662
v -0.4530635 -0.09754516 0.18766502
v -0.34675983 -0.09754516 0.3467598
v -0.4530635 0.09754518 0.18766502
v -0.49039236 0.09754518 -3.6413E-08
v -0.4619396 0.1913417 8.3990415E-10
v -0.42677653 0.1913417 0.17677665
v -0.46193942 -2.1855694E-08 0.19134136
v -0.49999952 -2.1855694E-08 -1.9287519E-07
v -0.49039236 0.09754518 -3.6413E-08
v -0.4530635 0.09754518 0.18766502
v -0.4530635 -0.09754516 0.18766502
v -0.49039236 -0.09754516 -3.6413E-08
v -0.49999952 -2.1855694E-08 -1.9287519E-07
v -0.46193942 -2.1855694E-08 0.19134136
v -0.42677665 -0.1913417 0.17677662
v -0.46193966 -0.1913417 -5.8764737E-08
v -0.49039236 -0.09754516 -3.6413E-08
v -0.4530635 -0.09754516 0.18766502
v -0.49039236 0.09754518 -3.6413E-08
v -0.45306346 0.09754518 -0.18766508
v -0.42677653 0.1913417 -0.17677662
v -0.4619396 0.1913417 8.3990415E-10
v -0.49999952 -2.1855694E-08 -1.9287519E-07
v -0.46193922 -2.1855694E-08 -0.1913417
v -0.45306346 0.09754518 -0.18766508
v -0.49039236 0.09754518 -3.6413E-08
v -0.49039236 -0.09754516 -3.6413E-08
v -0.45306346 -0.09754516 -0.18766508
v -0.46193922 -2.1855694E-08 -0.1913417
v -0.49999952 -2.1855694E-08 -1.9287519E-07
v -0.46193966 -0.1913417 -5.8764737E-08
v -0.42677653 -0.1913417 -0.1767767
v -0.45306346 -0.09754516 -0.18766508
v -0.49039236 -0.09754516 -3.6413E-08
vt 0.99913776 0.74958843
vt 0.8976547 0.74958843
vt 0.8976547 1.0003839
vt 0.99913776 1.0003839
vt 0.99913776 0.49678242
vt 0.8976547 0.49678242
vt 0.8976547 0.74958843
vt 0.99913776 0.74958843
vt 0.99913776 0.24846601
vt 0.8976547 0.24846601
vt 0.8976547 0.49678242
vt 0.99913776 0.49678242
vt 0.99913776 -0.0002720952
vt 0.8976547 -0.0002720952
vt 0.8976547 0.24846601
vt 0.99913776 0.24846601
vt 0.8976547 0.49678242
vt 0.7981526 0.49678242
vt 0.7981526 0.74958843
vt 0.8976547 0.74958843
vt 0.8976547 0.24846601
vt 0.7981526 0.24846601
vt 0.7981526 0.49678242
vt 0.8976547 0.49678242
vt 0.8976547 -0.0002720952
vt 0.7981526 -0.0002720952
vt 0.7981526 0.24846601
vt 0.8976547 0.24846601
vt 0.8976547 0.74958843
vt 0.7981526 0.74958843
vt 0.7981526 1.0003839
vt 0.8976547 1.0003839
vt 0.7981526 0.24846601
vt 0.698981 0.24846601
vt 0.698981 0.49678242
vt 0.7981526 0.49678242
vt 0.7981526 -0.0002720952
vt 0.698981 -0.0002720952
vt 0.698981 0.24846601
vt 0.7981526 0.24846601
vt 0.7981526 0.74958843
vt 0.698981 0.74958843
vt 0.698981 1.0003839
vt 0.7981526 1.0003839
vt 0.7981526 0.49678242
vt 0.698981 0.49678242
vt 0.698981 0.74958843
vt 0.7981526 0.74958843
vt 0.698981 0.24846601
vt 0.5999555 0.24846601
vt 0.5999555 0.49678242
vt 0.698981 0.49678242
vt 0.698981 -0.0002720952
vt 0.5999555 -0.0002720952
vt 0.5999555 0.24846601
vt 0.698981 0.24846601
vt 0.698981 0.74958843
vt 0.5999555 0.74958843
vt 0.5999555 1.0003839
vt 0.698981 1.0003839
vt 0.698981 0.49678242
vt 0.5999555 0.49678242
vt 0.5999555 0.74958843
vt 0.698981 0.74958843
vt 0.5999555 -0.0002720952
vt 0.5009743 -0.0002720952
vt 0.5009743 0.24846601
vt 0.5999555 0.24846601
vt 0.5999555 0.74958843
vt 0.5009743 0.74958843
vt 0.5009743 1.0003839
vt 0.5999555 1.0003839
vt 0.5999555 0.49678242
vt 0.5009743 0.49678242
vt 0.5009743 0.74958843
vt 0.5999555 0.74958843
vt 0.5999555 0.24846601
vt 0.5009743 0.24846601
vt 0.5009743 0.49678242
vt 0.5999555 0.49678242
vt 0.5009743 -0.0002720952
vt 0.40196735 -0.0002720952
vt 0.40196735 0.24846601
vt 0.5009743 0.24846601
vt 0.5009743 0.74958843
vt 0.40196735 0.74958843
vt 0.40196735 1.0003839
vt 0.5009743 1.0003839
vt 0.5009743 0.49678242
vt 0.40196735 0.49678242
vt 0.40196735 0.74958843
vt 0.5009743 0.74958843
vt 0.5009743 0.24846601
vt 0.40196735 0.24846601
vt 0.40196735 0.49678242
vt 0.5009743 0.49678242
vt 0.40196735 0.74958843
vt 0.30269584 0.74958843
vt 0.30269584 1.0003839
vt 0.40196735 1.0003839
vt 0.40196735 0.49678242
vt 0.30269584 0.49678242
vt 0.30269584 0.74958843
vt 0.40196735 0.74958843
vt 0.40196735 0.24846601
vt 0.30269584 0.24846601
vt 0.30269584 0.49678242
vt 0.40196735 0.49678242
vt 0.40196735 -0.0002720952
vt 0.30269584 -0.0002720952
vt 0.30269584 0.24846601
vt 0.40196735 0.24846601
vt 0.30269584 0.74958843
vt 0.20301867 0.74958843
vt 0.20301867 1.0003839
vt 0.30269584 1.0003839
vt 0.30269584 0.49678242
vt 0.20301867 0.49678242
vt 0.20301867 0.74958843
vt 0.30269584 0.74958843
vt 0.30269584 0.24846601
vt 0.20301867 0.24846601
vt 0.20301867 0.49678242
vt 0.30269584 0.49678242
vt 0.30269584 -0.0002720952
vt 0.20301867 -0.0002720952
vt 0.20301867 0.24846601
vt 0.30269584 0.24846601
vt 0.20301867 0.74958843
vt 0.102772355 0.74958843
vt 0.102772355 1.0003839
vt 0.20301867 1.0003839
vt 0.20301867 0.49678242
vt 0.102772355 0.49678242
vt 0.102772355 0.74958843
vt 0.20301867 0.74958843
vt 0.20301867 0.24846601
vt 0.102772355 0.24846601
vt 0.102772355 0.49678242
vt 0.20301867 0.49678242
vt 0.20301867 -0.0002720952
vt 0.102772355 -0.0002720952
vt 0.102772355 0.24846601
vt 0.20301867 0.24846601
vt 0.102772355 0.74958843
vt 0.0003567338 0.74958843
vt 0.0003567338 1.0003839
vt 0.102772355 1.0003839
vt 0.102772355 0.49678242
vt 0.0003567338 0.49678242
vt 0.0003567338 0.74958843
vt 0.102772355 0.74958843
vt 0.102772355 0.24846601
vt 0.0003567338 0.24846601
vt 0.0003567338 0.49678242
vt 0.102772355 0.49678242
vt 0.102772355 -0.0002720952
vt 0.0003567338 -0.0002720952
vt 0.0003567338 0.24846601
vt 0.102772355 0.24846601
vn 0.94006175 0.28516442 -0.18698965
vn 0.94006175 0.28516442 -0.18698965
vn 0.94006175 0.28516442 -0.18698965
vn 0.94006175 0.28516442 -0.18698965
vn 0.9762412 0.09615077 -0.19418627
vn 0.9762412 0.09615077 -0.19418627
vn 0.9762412 0.09615077 -0.19418627
vn 0.9762412 0.09615077 -0.19418627
vn 0.9762412 -0.09615082 -0.19418617
vn 0.9762412 -0.09615082 -0.19418617
vn 0.9762412 -0.09615082 -0.19418617
vn 0.9762412 -0.09615082 -0.19418617
vn 0.94006187 -0.28516382 -0.18699013
vn 0.94006187 -0.28516382 -0.18699013
vn 0.94006187 -0.28516382 -0.18699013
vn 0.94006187 -0.28516382 -0.18699013
vn 0.97624105 0.09615044 0.19418667
vn 0.97624105 0.09615044 0.19418667
vn 0.97624105 0.09615044 0.19418667
vn 0.97624105 0.09615044 0.19418667
vn 0.97624105 -0.09615049 0.19418676
vn 0.97624105 -0.09615049 0.19418676
vn 0.97624105 -0.09615049 0.19418676
vn 0.97624105 -0.09615049 0.19418676
vn 0.94006187 -0.2851637 0.18699034
vn 0.94006187 -0.2851637 0.18699034
vn 0.94006187 -0.2851637 0.18699034
vn 0.94006187 -0.2851637 0.18699034
vn 0.94006175 0.28516454 0.18698989
vn 0.94006175 0.28516454 0.18698989
vn 0.94006175 0.28516454 0.18698989
vn 0.94006175 0.28516454 0.18698989
vn 0.8276171 -0.096150085 0.5529965
vn 0.8276171 -0.096150085 0.5529965
vn 0.8276171 -0.096150085 0.5529965
vn 0.8276171 -0.096150085 0.5529965
vn 0.796946 -0.2851637 0.5325024
vn 0.796946 -0.2851637 0.5325024
vn 0.796946 -0.2851637 0.5325024
vn 0.796946 -0.2851637 0.5325024
vn 0.79694575 0.2851646 0.53250223
vn 0.79694575 0.2851646 0.53250223
vn 0.79694575 0.2851646 0.53250223
vn 0.79694575 0.2851646 0.53250223
vn 0.8276171 0.09615 0.5529965
vn 0.8276171 0.09615 0.5529965
vn 0.8276171 0.09615 0.5529965
vn 0.8276171 0.09615 0.5529965
vn 0.5529959 -0.096150175 0.82761747
vn 0.5529959 -0.096150175 0.82761747
vn 0.5529959 -0.096150175 0.82761747
vn 0.5529959 -0.096150175 0.82761747
vn 0.5325021 -0.28516337 0.7969463
vn 0.5325021 -0.28516337 0.7969463
vn 0.5325021 -0.28516337 0.7969463
vn 0.5325021 -0.28516337 0.7969463
vn 0.53250206 0.285164 0.79694605
vn 0.53250206 0.285164 0.79694605
vn 0.53250206 0.285164 0.79694605
vn 0.53250206 0.285164 0.79694605
vn 0.5529959 0.096150115 0.8276175
vn 0.5529959 0.096150115 0.8276175
vn 0.5529959 0.096150115 0.8276175
vn 0.5529959 0.096150115 0.8276175
vn 0.18698984 -0.28516307 0.94006217
vn 0.18698984 -0.28516307 0.94006217
vn 0.18698984 -0.28516307 0.94006217
vn 0.18698984 -0.28516307 0.94006217
vn 0.18698981 0.28516373 0.9400619
vn 0.18698981 0.28516373 0.9400619
vn 0.18698981 0.28516373 0.9400619
vn 0.18698981 0.28516373 0.9400619
vn 0.19418615 0.09615062 0.9762412
vn 0.19418615 0.09615062 0.9762412
vn 0.19418615 0.09615062 0.9762412
vn 0.19418615 0.09615062 0.9762412
vn 0.19418614 -0.09615067 0.9762412
vn 0.19418614 -0.09615067 0.9762412
vn 0.19418614 -0.09615067 0.9762412
vn 0.19418614 -0.09615067 0.9762412
vn -0.1869901 -0.28516385 0.94006187
vn -0.1869901 -0.28516385 0.94006187
vn -0.1869901 -0.28516385 0.94006187
vn -0.1869901 -0.28516385 0.94006187
vn -0.18699001 0.2851646 0.9400616
vn -0.18699001 0.2851646 0.9400616
vn -0.18699001 0.2851646 0.9400616
vn -0.18699001 0.2851646 0.9400616
vn -0.19418676 0.09614944 0.9762412
vn -0.19418676 0.09614944 0.9762412
vn -0.19418676 0.09614944 0.9762412
vn -0.19418676 0.09614944 0.9762412
vn -0.19418675 -0.09614949 0.9762412
vn -0.19418675 -0.09614949 0.9762412
vn -0.19418675 -0.09614949 0.9762412
vn -0.19418675 -0.09614949 0.9762412
vn -0.53250223 0.28516433 0.7969458
vn -0.53250223 0.28516433 0.7969458
vn -0.53250223 0.28516433 0.7969458
vn -0.53250223 0.28516433 0.7969458
vn -0.55299646 0.09614914 0.8276172
vn -0.55299646 0.09614914 0.8276172
vn -0.55299646 0.09614914 0.8276172
vn -0.55299646 0.09614914 0.8276172
vn -0.5529965 -0.096149385 0.8276171
vn -0.5529965 -0.096149385 0.8276171
vn -0.5529965 -0.096149385 0.8276171
vn -0.5529965 -0.096149385 0.8276171
vn -0.53250253 -0.28516343 0.796946
vn -0.53250253 -0.28516343 0.796946
vn -0.53250253 -0.28516343 0.796946
vn -0.53250253 -0.28516343 0.796946
vn -0.79694605 0.28516388 0.5325022
vn -0.79694605 0.28516388 0.5325022
vn -0.79694605 0.28516388 0.5325022
vn -0.79694605 0.28516388 0.5325022
vn -0.8276177 0.09614936 0.55299574
vn -0.8276177 0.09614936 0.55299574
vn -0.8276177 0.09614936 0.55299574
vn -0.8276177 0.09614936 0.55299574
vn -0.8276176 -0.09614942 0.55299586
vn -0.8276176 -0.09614942 0.55299586
vn -0.8276176 -0.09614942 0.55299586
vn -0.8276176 -0.09614942 0.55299586
vn -0.7969463 -0.28516325 0.5325021
vn -0.7969463 -0.28516325 0.5325021
vn -0.7969463 -0.28516325 0.5325021
vn -0.7969463 -0.28516325 0.5325021
vn -0.9400619 0.28516382 0.18698977
vn -0.9400619 0.28516382 0.18698977
vn -0.9400619 0.28516382 0.18698977
vn -0.9400619 0.28516382 0.18698977
vn -0.9762413 0.096149154 0.19418623
vn -0.9762413 0.096149154 0.19418623
vn -0.9762413 0.096149154 0.19418623
vn -0.9762413 0.096149154 0.19418623
vn -0.9762413 -0.09614919 0.1941861
vn -0.9762413 -0.09614919 0.1941861
vn -0.9762413 -0.09614919 0.1941861
vn -0.9762413 -0.09614919 0.1941861
vn -0.94006205 -0.2851632 0.18698981
vn -0.94006205 -0.2851632 0.18698981
vn -0.94006205 -0.2851632 0.18698981
vn -0.94006205 -0.2851632 0.18698981
vn -0.9400619 0.2851638 -0.18698998
vn -0.9400619 0.2851638 -0.18698998
vn -0.9400619 0.2851638 -0.18698998
vn -0.9400619 0.2851638 -0.18698998
vn -0.9762412 0.09614916 -0.19418679
vn -0.9762412 0.09614916 -0.19418679
vn -0.9762412 0.09614916 -0.19418679
vn -0.9762412 0.09614916 -0.19418679
vn -0.9762412 -0.09614921 -0.1941867
vn -0.9762412 -0.09614921 -0.1941867
vn -0.9762412 -0.09614921 -0.1941867
vn -0.9762412 -0.09614921 -0.1941867
vn -0.94006205 -0.28516328 -0.18699004
vn -0.94006205 -0.28516328 -0.18699004
vn -0.94006205 -0.28516328 -0.18699004
vn -0.94006205 -0.28516328 -0.18699004
g Md_CMN_RingHalf_01_0
f 3/3/3 2/2/2 1/1/1
f 4/4/4 3/3/3 1/1/1
f 7/7/7 6/6/6 5/5/5
f 8/8/8 7/7/7 5/5/5
f 11/11/11 10/10/10 9/9/9
f 12/12/12 11/11/11 9/9/9
f 15/15/15 14/14/14 13/13/13
f 16/16/16 15/15/15 13/13/13
f 19/19/19 18/18/18 17/17/17
f 20/20/20 19/19/19 17/17/17
f 23/23/23 22/22/22 21/21/21
f 24/24/24 23/23/23 21/21/21
f 27/27/27 26/26/26 25/25/25
f 28/28/28 27/27/27 25/25/25
f 31/31/31 30/30/30 29/29/29
f 32/32/32 31/31/31 29/29/29
f 35/35/35 34/34/34 33/33/33
f 36/36/36 35/35/35 33/33/33
f 39/39/39 38/38/38 37/37/37
f 40/40/40 39/39/39 37/37/37
f 43/43/43 42/42/42 41/41/41
f 44/44/44 43/43/43 41/41/41
f 47/47/47 46/46/46 45/45/45
f 48/48/48 47/47/47 45/45/45
f 51/51/51 50/50/50 49/49/49
f 52/52/52 51/51/51 49/49/49
f 55/55/55 54/54/54 53/53/53
f 56/56/56 55/55/55 53/53/53
f 59/59/59 58/58/58 57/57/57
f 60/60/60 59/59/59 57/57/57
f 63/63/63 62/62/62 61/61/61
f 64/64/64 63/63/63 61/61/61
f 67/67/67 66/66/66 65/65/65
f 68/68/68 67/67/67 65/65/65
f 71/71/71 70/70/70 69/69/69
f 72/72/72 71/71/71 69/69/69
f 75/75/75 74/74/74 73/73/73
f 76/76/76 75/75/75 73/73/73
f 79/79/79 78/78/78 77/77/77
f 80/80/80 79/79/79 77/77/77
f 83/83/83 82/82/82 81/81/81
f 84/84/84 83/83/83 81/81/81
f 87/87/87 86/86/86 85/85/85
f 88/88/88 87/87/87 85/85/85
f 91/91/91 90/90/90 89/89/89
f 92/92/92 91/91/91 89/89/89
f 95/95/95 94/94/94 93/93/93
f 96/96/96 95/95/95 93/93/93
f 99/99/99 98/98/98 97/97/97
f 100/100/100 99/99/99 97/97/97
f 103/103/103 102/102/102 101/101/101
f 104/104/104 103/103/103 101/101/101
f 107/107/107 106/106/106 105/105/105
f 108/108/108 107/107/107 105/105/105
f 111/111/111 110/110/110 109/109/109
f 112/112/112 111/111/111 109/109/109
f 115/115/115 114/114/114 113/113/113
f 116/116/116 115/115/115 113/113/113
f 119/119/119 118/118/118 117/117/117
f 120/120/120 119/119/119 117/117/117
f 123/123/123 122/122/122 121/121/121
f 124/124/124 123/123/123 121/121/121
f 127/127/127 126/126/126 125/125/125
f 128/128/128 127/127/127 125/125/125
f 131/131/131 130/130/130 129/129/129
f 132/132/132 131/131/131 129/129/129
f 135/135/135 134/134/134 133/133/133
f 136/136/136 135/135/135 133/133/133
f 139/139/139 138/138/138 137/137/137
f 140/140/140 139/139/139 137/137/137
f 143/143/143 142/142/142 141/141/141
f 144/144/144 143/143/143 141/141/141
f 147/147/147 146/146/146 145/145/145
f 148/148/148 147/147/147 145/145/145
f 151/151/151 150/150/150 149/149/149
f 152/152/152 151/151/151 149/149/149
f 155/155/155 154/154/154 153/153/153
f 156/156/156 155/155/155 153/153/153
f 159/159/159 158/158/158 157/157/157
f 160/160/160 159/159/159 157/157/157
