g Md_CMN_Corn_01
v 0.3089872 -3.1668274E-06 -0.030432474
v 0.49759218 0.9999968 -0.04900839
v 0.30451655 -3.1668274E-06 -0.060571898
v 0.49039248 0.9999968 -0.097544976
v 0.29711252 -3.1668274E-06 -0.09012808
v 0.47847003 0.9999968 -0.14514212
v 0.28684825 -3.1668274E-06 -0.11881608
v 0.4619396 0.9999968 -0.19134149
v 0.27382106 -3.1668274E-06 -0.14636016
v 0.4409605 0.9999968 -0.23569812
v 0.2581563 -3.1668274E-06 -0.17249443
v 0.41573474 0.9999968 -0.27778488
v 0.24000628 -3.1668274E-06 -0.19696727
v 0.3865052 0.9999968 -0.31719643
v 0.21954386 -3.1668274E-06 -0.21954417
v 0.35355338 0.9999968 -0.3535532
v 0.1969674 -3.1668274E-06 -0.24000618
v 0.31719667 0.9999968 -0.386505
v 0.1724947 -3.1668274E-06 -0.25815678
v 0.27778518 0.9999968 -0.4157346
v 0.14636059 -3.1668274E-06 -0.273821
v 0.23569843 0.9999968 -0.4409604
v 0.11881619 -3.1668274E-06 -0.28684822
v 0.1913418 0.9999968 -0.46193954
v 0.090128325 -3.1668274E-06 -0.29711246
v 0.14514244 0.9999968 -0.47846994
v 0.060572233 -3.1668274E-06 -0.3045164
v 0.097545266 0.9999968 -0.49039248
v 0.03043271 -3.1668274E-06 -0.30898708
v 0.049008694 0.9999968 -0.49759224
v 1.0993556E-07 -3.1668274E-06 -0.3104821
v 1.4156103E-07 0.9999968 -0.49999985
v -0.030432476 -3.1668274E-06 -0.30898708
v -0.049008418 0.9999968 -0.49759224
v -0.060571995 -3.1668274E-06 -0.3045164
v -0.097545005 0.9999968 -0.49039254
v -0.09012806 -3.1668274E-06 -0.29711246
v -0.14514217 0.9999968 -0.47847006
v -0.11881607 -3.1668274E-06 -0.28684822
v -0.19134155 0.9999968 -0.46193966
v -0.14636014 -3.1668274E-06 -0.273821
v -0.23569818 0.9999968 -0.44096056
v -0.17249449 -3.1668274E-06 -0.25815678
v -0.27778494 0.9999968 -0.41573477
v -0.19696723 -3.1668274E-06 -0.24000618
v -0.3171965 0.9999968 -0.3865052
v -0.21954416 -3.1668274E-06 -0.21954417
v -0.35355324 0.9999968 -0.35355335
v -0.24000613 -3.1668274E-06 -0.1969678
v -0.38650504 0.9999968 -0.31719664
v -0.25815618 -3.1668274E-06 -0.17249462
v -0.41573465 0.9999968 -0.27778512
v -0.27382094 -3.1668274E-06 -0.14636049
v -0.4409605 0.9999968 -0.23569839
v -0.2868482 -3.1668274E-06 -0.1188161
v -0.4619396 0.9999968 -0.19134174
v -0.2971125 -3.1668274E-06 -0.09012825
v -0.47847003 0.9999968 -0.14514239
v -0.30451643 -3.1668274E-06 -0.060572155
v -0.49039248 0.9999968 -0.09754522
v -0.30898708 -3.1668274E-06 -0.030432625
v -0.49759224 0.9999968 -0.049008645
v -0.31048214 -3.1668274E-06 -4.011755E-08
v -0.49999988 0.9999968 -8.940697E-08
v -0.30898708 -3.1668274E-06 0.030432558
v -0.49759227 0.9999968 0.04900847
v -0.30451643 -3.1668274E-06 0.06057198
v -0.49039257 0.9999968 0.09754506
v -0.2971125 -3.1668274E-06 0.09012815
v -0.47847006 0.9999968 0.14514221
v -0.2868482 -3.1668274E-06 0.11881616
v -0.46193966 0.9999968 0.19134161
v -0.27382094 -3.1668274E-06 0.14636023
v -0.44096056 0.9999968 0.23569825
v -0.25815618 -3.1668274E-06 0.17249458
v -0.41573477 0.9999968 0.277785
v -0.24000618 -3.1668274E-06 0.19696733
v -0.3865052 0.9999968 0.31719655
v -0.21954374 -3.1668274E-06 0.21954383
v -0.35355335 0.9999968 0.3535533
v -0.19696781 -3.1668274E-06 0.24000625
v -0.31719664 0.9999968 0.38650513
v -0.17249458 -3.1668274E-06 0.25815684
v -0.27778512 0.9999968 0.4157347
v -0.14636047 -3.1668274E-06 0.27382106
v -0.23569837 0.9999968 0.44096053
v -0.11881608 -3.1668274E-06 0.28684828
v -0.19134171 0.9999968 0.46193966
v -0.09012821 -3.1668274E-06 0.29711255
v -0.14514235 0.9999968 0.47847006
v -0.060572118 -3.1668274E-06 0.3045165
v -0.09754518 0.9999968 0.49039257
v -0.030432595 -3.1668274E-06 0.30898714
v -0.049008597 0.9999968 0.4975923
v 1.2116732E-09 -3.1668274E-06 0.3104822
v -3.3527613E-08 0.9999968 0.4999999
v 0.030432595 -3.1668274E-06 0.30898714
v 0.04900853 0.9999968 0.4975923
v 0.060572118 -3.1668274E-06 0.3045165
v 0.09754512 0.9999968 0.4903926
v 0.09012817 -3.1668274E-06 0.29711255
v 0.14514227 0.9999968 0.47847012
v 0.11881618 -3.1668274E-06 0.28684828
v 0.19134167 0.9999968 0.4619397
v 0.14636025 -3.1668274E-06 0.27382106
v 0.23569831 0.9999968 0.44096062
v 0.1724946 -3.1668274E-06 0.25815684
v 0.27778506 0.9999968 0.41573483
v 0.19696735 -3.1668274E-06 0.24000625
v 0.3171966 0.9999968 0.3865052
v 0.21954386 -3.1668274E-06 0.21954425
v 0.35355335 0.9999968 0.35355338
v 0.24000628 -3.1668274E-06 0.19696736
v 0.3865052 0.9999968 0.31719664
v 0.2581563 -3.1668274E-06 0.17249465
v 0.41573477 0.9999968 0.27778512
v 0.27382106 -3.1668274E-06 0.14636056
v 0.44096062 0.9999968 0.23569837
v 0.28684828 -3.1668274E-06 0.118816175
v 0.46193972 0.9999968 0.19134171
v 0.2971126 -3.1668274E-06 0.09012815
v 0.47847015 0.9999968 0.14514235
v 0.30451655 -3.1668274E-06 0.06057214
v 0.4903926 0.9999968 0.09754516
v 0.3089872 -3.1668274E-06 0.030432587
v 0.49759233 0.9999968 0.049008567
v 0.31048226 -3.1668274E-06 1.5401111E-08
v 0.5 0.9999968 0
v 0.3089872 -3.1668274E-06 -0.030432474
v 0.49759218 0.9999968 -0.04900839
vt 0 0.00024046656
vt 0 0.9998429
vt 0.015624911 0.00024046656
vt 0.015624911 0.9998429
vt 0.03125 0.00024046656
vt 0.03125 0.9998429
vt 0.04687497 0.00024046656
vt 0.04687497 0.9998429
vt 0.06249997 0.00024046656
vt 0.06249997 0.9998429
vt 0.07812494 0.00024046656
vt 0.07812494 0.9998429
vt 0.09375 0.00024046656
vt 0.09375 0.9998429
vt 0.10937497 0.00024046656
vt 0.10937497 0.9998429
vt 0.12499997 0.00024046656
vt 0.12499997 0.9998429
vt 0.14062497 0.00024046656
vt 0.14062497 0.9998429
vt 0.15624997 0.00024046656
vt 0.15624997 0.9998429
vt 0.17187497 0.00024046656
vt 0.17187497 0.9998429
vt 0.18749997 0.00024046656
vt 0.18749997 0.9998429
vt 0.20312494 0.00024046656
vt 0.20312494 0.9998429
vt 0.21874997 0.00024046656
vt 0.21874997 0.9998429
vt 0.23437497 0.00024046656
vt 0.23437497 0.9998429
vt 0.25 0.00024046656
vt 0.25 0.9998429
vt 0.265625 0.00024046656
vt 0.265625 0.9998429
vt 0.28124997 0.00024046656
vt 0.28124997 0.9998429
vt 0.29687494 0.00024046656
vt 0.29687494 0.9998429
vt 0.31249994 0.00024046656
vt 0.31249994 0.9998429
vt 0.328125 0.00024046656
vt 0.328125 0.9998429
vt 0.34374997 0.00024046656
vt 0.34374997 0.9998429
vt 0.359375 0.00024046656
vt 0.359375 0.9998429
vt 0.375 0.00024046656
vt 0.375 0.9998429
vt 0.390625 0.00024046656
vt 0.390625 0.9998429
vt 0.40624997 0.00024046656
vt 0.40624997 0.9998429
vt 0.421875 0.00024046656
vt 0.421875 0.9998429
vt 0.4375 0.00024046656
vt 0.4375 0.9998429
vt 0.453125 0.00024046656
vt 0.453125 0.9998429
vt 0.46874997 0.00024046656
vt 0.46874997 0.9998429
vt 0.484375 0.00024046656
vt 0.484375 0.9998429
vt 0.5 0.00024046656
vt 0.5 0.9998429
vt 0.515625 0.00024046656
vt 0.515625 0.9998429
vt 0.53125 0.00024046656
vt 0.53125 0.9998429
vt 0.54687494 0.00024046656
vt 0.54687494 0.9998429
vt 0.56250006 0.00024046656
vt 0.56250006 0.9998429
vt 0.5781251 0.00024046656
vt 0.5781251 0.9998429
vt 0.59375 0.00024046656
vt 0.59375 0.9998429
vt 0.609375 0.00024046656
vt 0.609375 0.9998429
vt 0.625 0.00024046656
vt 0.625 0.9998429
vt 0.640625 0.00024046656
vt 0.640625 0.9998429
vt 0.65625 0.00024046656
vt 0.65625 0.9998429
vt 0.6718749 0.00024046656
vt 0.6718749 0.9998429
vt 0.68750006 0.00024046656
vt 0.68750006 0.9998429
vt 0.7031251 0.00024046656
vt 0.7031251 0.9998429
vt 0.71875 0.00024046656
vt 0.71875 0.9998429
vt 0.734375 0.00024046656
vt 0.734375 0.9998429
vt 0.75 0.00024046656
vt 0.75 0.9998429
vt 0.7656251 0.00024046656
vt 0.7656251 0.9998429
vt 0.78125 0.00024046656
vt 0.78125 0.9998429
vt 0.796875 0.00024046656
vt 0.796875 0.9998429
vt 0.81250006 0.00024046656
vt 0.81250006 0.9998429
vt 0.828125 0.00024046656
vt 0.828125 0.9998429
vt 0.84375 0.00024046656
vt 0.84375 0.9998429
vt 0.859375 0.00024046656
vt 0.859375 0.9998429
vt 0.8750001 0.00024046656
vt 0.8750001 0.9998429
vt 0.890625 0.00024046656
vt 0.890625 0.9998429
vt 0.9062501 0.00024046656
vt 0.9062501 0.9998429
vt 0.921875 0.00024046656
vt 0.921875 0.9998429
vt 0.93750006 0.00024046656
vt 0.93750006 0.9998429
vt 0.953125 0.00024046656
vt 0.953125 0.9998429
vt 0.96875 0.00024046656
vt 0.96875 0.9998429
vt 0.9843751 0.00024046656
vt 0.9843751 0.9998429
vt 0.99992806 0.00024046656
vt 0.99992806 0.9998429
vn 0.97782385 -0.18620324 -0.09585812
vn 0.97779727 -0.18620305 -0.09612961
vn 0.9637179 -0.18620315 -0.19124898
vn 0.96366686 -0.18620333 -0.19150583
vn 0.9403333 -0.18620315 -0.28478366
vn 0.9402557 -0.18620346 -0.2850395
vn 0.90789557 -0.18620351 -0.37557146
vn 0.9077894 -0.18620302 -0.37582812
vn 0.8667052 -0.1862032 -0.46276402
vn 0.8665808 -0.18620317 -0.46299678
vn 0.8171744 -0.18620306 -0.54548544
vn 0.81702644 -0.18620348 -0.54570705
vn 0.75977635 -0.18620344 -0.62295115
vn 0.7596032 -0.18620338 -0.6231623
vn 0.69505507 -0.18620335 -0.69442546
vn 0.69486475 -0.1862034 -0.69461596
vn 0.62364596 -0.18620323 -0.75920624
vn 0.62343484 -0.18620323 -0.7593796
vn 0.54622865 -0.18620318 -0.8166778
vn 0.5460006 -0.18620303 -0.81683034
vn 0.46354195 -0.18620296 -0.86628944
vn 0.46330717 -0.18620309 -0.86641496
vn 0.37639442 -0.18620297 -0.9075548
vn 0.37615237 -0.18620344 -0.90765506
vn 0.2856364 -0.18620323 -0.94007456
vn 0.28537646 -0.18620344 -0.9401535
vn 0.19212197 -0.1862035 -0.9635442
vn 0.19185117 -0.18620327 -0.9635982
vn 0.096744254 -0.18620321 -0.97773665
vn 0.09647768 -0.18620332 -0.977763
vn 0.000446009 -0.18620327 -0.9825111
vn 0.0001753997 -0.1862033 -0.9825112
vn -0.095857434 -0.18620329 -0.977824
vn -0.096128024 -0.18620321 -0.9777974
vn -0.19124755 -0.18620336 -0.9637182
vn -0.19150575 -0.1862034 -0.96366686
vn -0.28478122 -0.18620348 -0.9403339
vn -0.28504008 -0.1862034 -0.9402555
vn -0.3755709 -0.18620364 -0.90789574
vn -0.3758282 -0.18620323 -0.90778935
vn -0.4627568 -0.1862031 -0.86670905
vn -0.46299613 -0.18620333 -0.8665812
vn -0.54548734 -0.18620293 -0.8171732
vn -0.54570705 -0.18620338 -0.81702644
vn -0.62295395 -0.18620302 -0.75977415
vn -0.6231623 -0.18620333 -0.75960314
vn -0.6944219 -0.18620321 -0.69505876
vn -0.6946158 -0.18620326 -0.6948649
vn -0.7592137 -0.18620297 -0.623637
vn -0.7593794 -0.18620339 -0.6234351
vn -0.8166802 -0.18620309 -0.54622513
vn -0.81683016 -0.18620332 -0.54600084
vn -0.8662861 -0.18620344 -0.46354797
vn -0.86641467 -0.18620326 -0.46330768
vn -0.907555 -0.18620303 -0.3763939
vn -0.9076546 -0.18620357 -0.37615353
vn -0.94007456 -0.18620317 -0.28563628
vn -0.9401534 -0.18620346 -0.28537655
vn -0.96354455 -0.18620346 -0.19212052
vn -0.9635982 -0.18620321 -0.19185103
vn -0.97773665 -0.1862033 -0.09674411
vn -0.9777629 -0.18620327 -0.096478224
vn -0.9825111 -0.18620338 -0.00044540272
vn -0.9825112 -0.18620327 -0.00017613693
vn -0.97782385 -0.18620338 0.095857866
vn -0.9777975 -0.18620324 0.09612744
vn -0.9637181 -0.18620333 0.19124788
vn -0.96366686 -0.18620344 0.19150598
vn -0.9403334 -0.18620329 0.2847832
vn -0.94025564 -0.18620352 0.28503987
vn -0.90789515 -0.18620351 0.37557232
vn -0.9077894 -0.18620333 0.375828
vn -0.86670524 -0.18620324 0.46276376
vn -0.8665809 -0.18620336 0.4629966
vn -0.8171737 -0.18620335 0.54548633
vn -0.8170265 -0.18620344 0.5457069
vn -0.7597726 -0.18620352 0.6229557
vn -0.7596031 -0.18620363 0.62316245
vn -0.6950595 -0.18620342 0.69442105
vn -0.6948647 -0.18620351 0.69461596
vn -0.6236501 -0.18620332 0.75920284
vn -0.62343466 -0.1862032 0.7593797
vn -0.54622537 -0.18620278 0.8166802
vn -0.54600036 -0.18620308 0.81683046
vn -0.4635408 -0.18620293 0.86629
vn -0.46330774 -0.18620309 0.86641467
vn -0.37639177 -0.1862032 0.9075559
vn -0.3761539 -0.18620336 0.90765446
vn -0.285635 -0.18620345 0.940075
vn -0.2853769 -0.18620339 0.9401534
vn -0.19212121 -0.18620354 0.9635444
vn -0.19185072 -0.1862033 0.9635983
vn -0.096744284 -0.18620318 0.97773665
vn -0.09647719 -0.18620335 0.977763
vn -0.00044673894 -0.18620329 0.9825111
vn -0.00017491063 -0.18620332 0.9825112
vn 0.095856644 -0.18620333 0.9778241
vn 0.096128 -0.18620324 0.9777974
vn 0.1912476 -0.18620327 0.9637182
vn 0.19150622 -0.18620344 0.96366674
vn 0.28478128 -0.18620336 0.9403339
vn 0.28504053 -0.18620344 0.9402554
vn 0.37557024 -0.18620357 0.90789604
vn 0.37582892 -0.18620312 0.90778905
vn 0.46275622 -0.18620317 0.8667093
vn 0.4629969 -0.18620317 0.8665808
vn 0.5454862 -0.18620305 0.8171739
vn 0.54570735 -0.18620335 0.8170261
vn 0.6229569 -0.18620312 0.7597718
vn 0.6231627 -0.1862034 0.7596029
vn 0.69442505 -0.1862034 0.69505554
vn 0.694616 -0.18620339 0.69486463
vn 0.75921017 -0.18620315 0.6236412
vn 0.7593799 -0.1862035 0.62343425
vn 0.8166777 -0.18620317 0.5462288
vn 0.8168306 -0.1862033 0.5460001
vn 0.86628586 -0.18620342 0.46354842
vn 0.8664148 -0.18620315 0.46330744
vn 0.9075553 -0.1862032 0.37639293
vn 0.90765464 -0.18620338 0.3761533
vn 0.94007456 -0.18620358 0.28563607
vn 0.9401535 -0.1862033 0.28537643
vn 0.9635444 -0.18620373 0.19212078
vn 0.9635983 -0.18620309 0.19185095
vn 0.97773665 -0.18620324 0.096744105
vn 0.9777629 -0.18620321 0.09647822
vn 0.9825111 -0.18620333 0.00044540555
vn 0.9825112 -0.18620321 0.00017430887
vn 0.97782385 -0.18620324 -0.09585812
vn 0.97779727 -0.18620305 -0.09612961
g Md_CMN_Corn_01_0
f 3/3/3 2/2/2 1/1/1
f 3/3/3 4/4/4 2/2/2
f 5/5/5 4/4/4 3/3/3
f 5/5/5 6/6/6 4/4/4
f 7/7/7 6/6/6 5/5/5
f 7/7/7 8/8/8 6/6/6
f 9/9/9 8/8/8 7/7/7
f 9/9/9 10/10/10 8/8/8
f 11/11/11 10/10/10 9/9/9
f 11/11/11 12/12/12 10/10/10
f 13/13/13 12/12/12 11/11/11
f 13/13/13 14/14/14 12/12/12
f 15/15/15 14/14/14 13/13/13
f 15/15/15 16/16/16 14/14/14
f 17/17/17 16/16/16 15/15/15
f 17/17/17 18/18/18 16/16/16
f 19/19/19 18/18/18 17/17/17
f 19/19/19 20/20/20 18/18/18
f 21/21/21 20/20/20 19/19/19
f 21/21/21 22/22/22 20/20/20
f 23/23/23 22/22/22 21/21/21
f 23/23/23 24/24/24 22/22/22
f 25/25/25 24/24/24 23/23/23
f 25/25/25 26/26/26 24/24/24
f 27/27/27 26/26/26 25/25/25
f 27/27/27 28/28/28 26/26/26
f 29/29/29 28/28/28 27/27/27
f 29/29/29 30/30/30 28/28/28
f 31/31/31 30/30/30 29/29/29
f 31/31/31 32/32/32 30/30/30
f 33/33/33 32/32/32 31/31/31
f 33/33/33 34/34/34 32/32/32
f 35/35/35 34/34/34 33/33/33
f 35/35/35 36/36/36 34/34/34
f 37/37/37 36/36/36 35/35/35
f 37/37/37 38/38/38 36/36/36
f 39/39/39 38/38/38 37/37/37
f 39/39/39 40/40/40 38/38/38
f 41/41/41 40/40/40 39/39/39
f 41/41/41 42/42/42 40/40/40
f 43/43/43 42/42/42 41/41/41
f 43/43/43 44/44/44 42/42/42
f 45/45/45 44/44/44 43/43/43
f 45/45/45 46/46/46 44/44/44
f 47/47/47 46/46/46 45/45/45
f 47/47/47 48/48/48 46/46/46
f 49/49/49 48/48/48 47/47/47
f 49/49/49 50/50/50 48/48/48
f 51/51/51 50/50/50 49/49/49
f 51/51/51 52/52/52 50/50/50
f 53/53/53 52/52/52 51/51/51
f 53/53/53 54/54/54 52/52/52
f 55/55/55 54/54/54 53/53/53
f 55/55/55 56/56/56 54/54/54
f 57/57/57 56/56/56 55/55/55
f 57/57/57 58/58/58 56/56/56
f 59/59/59 58/58/58 57/57/57
f 59/59/59 60/60/60 58/58/58
f 61/61/61 60/60/60 59/59/59
f 61/61/61 62/62/62 60/60/60
f 63/63/63 62/62/62 61/61/61
f 63/63/63 64/64/64 62/62/62
f 65/65/65 64/64/64 63/63/63
f 65/65/65 66/66/66 64/64/64
f 67/67/67 66/66/66 65/65/65
f 67/67/67 68/68/68 66/66/66
f 69/69/69 68/68/68 67/67/67
f 69/69/69 70/70/70 68/68/68
f 71/71/71 70/70/70 69/69/69
f 71/71/71 72/72/72 70/70/70
f 73/73/73 72/72/72 71/71/71
f 73/73/73 74/74/74 72/72/72
f 75/75/75 74/74/74 73/73/73
f 75/75/75 76/76/76 74/74/74
f 77/77/77 76/76/76 75/75/75
f 77/77/77 78/78/78 76/76/76
f 79/79/79 78/78/78 77/77/77
f 79/79/79 80/80/80 78/78/78
f 81/81/81 80/80/80 79/79/79
f 81/81/81 82/82/82 80/80/80
f 83/83/83 82/82/82 81/81/81
f 83/83/83 84/84/84 82/82/82
f 85/85/85 84/84/84 83/83/83
f 85/85/85 86/86/86 84/84/84
f 87/87/87 86/86/86 85/85/85
f 87/87/87 88/88/88 86/86/86
f 89/89/89 88/88/88 87/87/87
f 89/89/89 90/90/90 88/88/88
f 91/91/91 90/90/90 89/89/89
f 91/91/91 92/92/92 90/90/90
f 93/93/93 92/92/92 91/91/91
f 93/93/93 94/94/94 92/92/92
f 95/95/95 94/94/94 93/93/93
f 95/95/95 96/96/96 94/94/94
f 97/97/97 96/96/96 95/95/95
f 97/97/97 98/98/98 96/96/96
f 99/99/99 98/98/98 97/97/97
f 99/99/99 100/100/100 98/98/98
f 101/101/101 100/100/100 99/99/99
f 101/101/101 102/102/102 100/100/100
f 103/103/103 102/102/102 101/101/101
f 103/103/103 104/104/104 102/102/102
f 105/105/105 104/104/104 103/103/103
f 105/105/105 106/106/106 104/104/104
f 107/107/107 106/106/106 105/105/105
f 107/107/107 108/108/108 106/106/106
f 109/109/109 108/108/108 107/107/107
f 109/109/109 110/110/110 108/108/108
f 111/111/111 110/110/110 109/109/109
f 111/111/111 112/112/112 110/110/110
f 113/113/113 112/112/112 111/111/111
f 113/113/113 114/114/114 112/112/112
f 115/115/115 114/114/114 113/113/113
f 115/115/115 116/116/116 114/114/114
f 117/117/117 116/116/116 115/115/115
f 117/117/117 118/118/118 116/116/116
f 119/119/119 118/118/118 117/117/117
f 119/119/119 120/120/120 118/118/118
f 121/121/121 120/120/120 119/119/119
f 121/121/121 122/122/122 120/120/120
f 123/123/123 122/122/122 121/121/121
f 123/123/123 124/124/124 122/122/122
f 125/125/125 124/124/124 123/123/123
f 125/125/125 126/126/126 124/124/124
f 127/127/127 126/126/126 125/125/125
f 127/127/127 128/128/128 126/126/126
f 129/129/129 128/128/128 127/127/127
f 129/129/129 130/130/130 128/128/128
