g Md_CMN_CornHalf_00
v -0.406042 -3.1668274E-06 -6.42055E-08
v -0.49999988 0.9999968 -8.940697E-08
v -0.40408698 -3.1668274E-06 0.03979901
v -0.49759227 0.9999968 0.04900847
v -0.39823985 -3.1668274E-06 0.07921483
v -0.49039257 0.9999968 0.09754506
v -0.38855815 -3.1668274E-06 0.11786781
v -0.47847006 0.9999968 0.14514221
v -0.37513393 -3.1668274E-06 0.15538552
v -0.46193966 0.9999968 0.19134161
v -0.35809702 -3.1668274E-06 0.19140682
v -0.44096056 0.9999968 0.23569825
v -0.33761162 -3.1668274E-06 0.22558491
v -0.41573477 0.9999968 0.277785
v -0.31387472 -3.1668274E-06 0.25759035
v -0.3865052 0.9999968 0.31719655
v -0.28711522 -3.1668274E-06 0.28711516
v -0.35355335 0.9999968 0.3535533
v -0.25759044 -3.1668274E-06 0.31387475
v -0.31719664 0.9999968 0.38650513
v -0.22558494 -3.1668274E-06 0.3376116
v -0.27778512 0.9999968 0.4157347
v -0.19140697 -3.1668274E-06 0.358097
v -0.23569837 0.9999968 0.44096053
v -0.15538555 -3.1668274E-06 0.37513396
v -0.19134171 0.9999968 0.46193966
v -0.11786784 -3.1668274E-06 0.38855824
v -0.14514235 0.9999968 0.47847006
v -0.07921489 -3.1668274E-06 0.39823994
v -0.09754518 0.9999968 0.49039257
v -0.039799094 -3.1668274E-06 0.40408707
v -0.049008597 0.9999968 0.4975923
v -1.6026592E-08 -3.1668274E-06 0.4060421
v -3.3527613E-08 0.9999968 0.4999999
v 0.03979906 -3.1668274E-06 0.40408707
v 0.04900853 0.9999968 0.4975923
v 0.079214916 -3.1668274E-06 0.39823994
v 0.09754512 0.9999968 0.4903926
v 0.11786783 -3.1668274E-06 0.38855824
v 0.14514227 0.9999968 0.47847012
v 0.15538558 -3.1668274E-06 0.37513396
v 0.19134167 0.9999968 0.4619397
v 0.19140683 -3.1668274E-06 0.35809708
v 0.23569831 0.9999968 0.44096062
v 0.22558494 -3.1668274E-06 0.33761168
v 0.27778506 0.9999968 0.41573483
v 0.2575904 -3.1668274E-06 0.31387478
v 0.3171966 0.9999968 0.3865052
v 0.28711522 -3.1668274E-06 0.28711528
v 0.35355335 0.9999968 0.35355338
v 0.31387478 -3.1668274E-06 0.25759044
v 0.3865052 0.9999968 0.31719664
v 0.33761165 -3.1668274E-06 0.22558501
v 0.41573477 0.9999968 0.27778512
v 0.35809708 -3.1668274E-06 0.191407
v 0.44096062 0.9999968 0.23569837
v 0.37513405 -3.1668274E-06 0.15538563
v 0.46193972 0.9999968 0.19134171
v 0.38855827 -3.1668274E-06 0.117867865
v 0.47847015 0.9999968 0.14514235
v 0.39823997 -3.1668274E-06 0.07921491
v 0.4903926 0.9999968 0.09754516
v 0.4040871 -3.1668274E-06 0.039799094
v 0.49759233 0.9999968 0.049008567
v 0.40604213 -3.1668274E-06 8.400486E-09
v 0.5 0.9999968 0
vt 0 0.001529932
vt 0 0.99855345
vt 0.03125 0.001529932
vt 0.03125 0.99855345
vt 0.06249994 0.001529932
vt 0.06249994 0.99855345
vt 0.09374997 0.001529932
vt 0.09374997 0.99855345
vt 0.12499982 0.001529932
vt 0.12499982 0.99855345
vt 0.15625009 0.001529932
vt 0.15625009 0.99855345
vt 0.18750018 0.001529932
vt 0.18750018 0.99855345
vt 0.21874994 0.001529932
vt 0.21874994 0.99855345
vt 0.24999994 0.001529932
vt 0.24999994 0.99855345
vt 0.2812499 0.001529932
vt 0.2812499 0.99855345
vt 0.31249994 0.001529932
vt 0.31249994 0.99855345
vt 0.34374994 0.001529932
vt 0.34374994 0.99855345
vt 0.37499964 0.001529932
vt 0.37499964 0.99855345
vt 0.40625 0.001529932
vt 0.40625 0.99855345
vt 0.43750012 0.001529932
vt 0.43750012 0.99855345
vt 0.4687499 0.001529932
vt 0.4687499 0.99855345
vt 0.49999988 0.001529932
vt 0.49999988 0.99855345
vt 0.5312499 0.001529932
vt 0.5312499 0.99855345
vt 0.5625001 0.001529932
vt 0.5625001 0.99855345
vt 0.5937498 0.001529932
vt 0.5937498 0.99855345
vt 0.6249998 0.001529932
vt 0.6249998 0.99855345
vt 0.65625 0.001529932
vt 0.65625 0.99855345
vt 0.6874999 0.001529932
vt 0.6874999 0.99855345
vt 0.7187499 0.001529932
vt 0.7187499 0.99855345
vt 0.74999976 0.001529932
vt 0.74999976 0.99855345
vt 0.78125 0.001529932
vt 0.78125 0.99855345
vt 0.81249976 0.001529932
vt 0.81249976 0.99855345
vt 0.8437501 0.001529932
vt 0.8437501 0.99855345
vt 0.87499976 0.001529932
vt 0.87499976 0.99855345
vt 0.90624994 0.001529932
vt 0.90624994 0.99855345
vt 0.9374997 0.001529932
vt 0.9374997 0.99855345
vt 0.96874976 0.001529932
vt 0.96874976 0.99855345
vt 0.999975 0.001529932
vt 0.999975 0.99855345
vn -0.99442637 -0.09343417 0.04884884
vn -0.99442625 -0.09343405 0.048852365
vn -0.99083763 -0.09354582 0.09741571
vn -0.99083227 -0.09354591 0.09747098
vn -0.9765187 -0.09354588 0.19406308
vn -0.9765073 -0.09354588 0.19412048
vn -0.9527955 -0.093545884 0.2888424
vn -0.95277786 -0.093545705 0.28890055
vn -0.91989386 -0.09354575 0.38084686
vn -0.9198731 -0.093545824 0.3808972
vn -0.8781366 -0.093545884 0.469175
vn -0.8781093 -0.09354595 0.46922615
vn -0.82792157 -0.09354588 0.5529875
vn -0.82788837 -0.09354593 0.55303705
vn -0.7697331 -0.09354586 0.6314745
vn -0.7696946 -0.09354583 0.6315214
vn -0.70413053 -0.09354581 0.70388156
vn -0.7040884 -0.093545824 0.7039238
vn -0.6317446 -0.09354575 0.7695115
vn -0.63170165 -0.09354587 0.76954675
vn -0.55327797 -0.09354579 0.8277274
vn -0.5532312 -0.093545936 0.82775867
vn -0.46948487 -0.09354584 0.87797105
vn -0.4694323 -0.09354589 0.8779991
vn -0.3811702 -0.09354593 0.9197599
vn -0.38111344 -0.09354568 0.91978353
vn -0.28917715 -0.09354575 0.952694
vn -0.28912386 -0.09354582 0.95271015
vn -0.19440717 -0.09354575 0.97645026
vn -0.19434908 -0.09354586 0.9764617
vn -0.0977631 -0.09354586 0.9908035
vn -0.09770296 -0.09354574 0.99080944
vn -0.00017481581 -0.09354573 0.995615
vn -0.0001166422 -0.09354575 0.995615
vn 0.09741547 -0.09354576 0.99083775
vn 0.09747108 -0.09354584 0.99083227
vn 0.194064 -0.09354581 0.97651845
vn 0.1941202 -0.09354583 0.9765073
vn 0.28884277 -0.09354592 0.9527954
vn 0.2889008 -0.093545705 0.95277774
vn 0.38084581 -0.09354579 0.9198944
vn 0.38089794 -0.093545854 0.9198728
vn 0.46917433 -0.0935459 0.878137
vn 0.46922573 -0.09354595 0.8781096
vn 0.55298805 -0.093545906 0.82792115
vn 0.55303633 -0.09354588 0.82788885
vn 0.63147587 -0.09354571 0.769732
vn 0.63152105 -0.0935458 0.7696949
vn 0.7038825 -0.09354573 0.70412964
vn 0.70392364 -0.09354577 0.7040884
vn 0.7695104 -0.09354582 0.63174593
vn 0.7695471 -0.093545765 0.63170135
vn 0.82772654 -0.09354589 0.5532791
vn 0.82775897 -0.09354583 0.55323076
vn 0.8779712 -0.09354593 0.46948472
vn 0.8779992 -0.09354592 0.4694323
vn 0.91976017 -0.09354587 0.38116997
vn 0.9197838 -0.09354571 0.38111296
vn 0.9526941 -0.09354573 0.28917664
vn 0.95271033 -0.09354581 0.2891232
vn 0.9764504 -0.0935457 0.19440627
vn 0.9764617 -0.09354587 0.19434933
vn 0.9908035 -0.09354579 0.09776332
vn 0.9908093 -0.09354579 0.09770363
vn 0.99442637 -0.09343398 0.048849005
vn 0.99442613 -0.0934342 0.048853237
g Md_CMN_CornHalf_00_0
f 3/3/3 2/2/2 1/1/1
f 3/3/3 4/4/4 2/2/2
f 5/5/5 4/4/4 3/3/3
f 5/5/5 6/6/6 4/4/4
f 7/7/7 6/6/6 5/5/5
f 7/7/7 8/8/8 6/6/6
f 9/9/9 8/8/8 7/7/7
f 9/9/9 10/10/10 8/8/8
f 11/11/11 10/10/10 9/9/9
f 11/11/11 12/12/12 10/10/10
f 13/13/13 12/12/12 11/11/11
f 13/13/13 14/14/14 12/12/12
f 15/15/15 14/14/14 13/13/13
f 15/15/15 16/16/16 14/14/14
f 17/17/17 16/16/16 15/15/15
f 17/17/17 18/18/18 16/16/16
f 19/19/19 18/18/18 17/17/17
f 19/19/19 20/20/20 18/18/18
f 21/21/21 20/20/20 19/19/19
f 21/21/21 22/22/22 20/20/20
f 23/23/23 22/22/22 21/21/21
f 23/23/23 24/24/24 22/22/22
f 25/25/25 24/24/24 23/23/23
f 25/25/25 26/26/26 24/24/24
f 27/27/27 26/26/26 25/25/25
f 27/27/27 28/28/28 26/26/26
f 29/29/29 28/28/28 27/27/27
f 29/29/29 30/30/30 28/28/28
f 31/31/31 30/30/30 29/29/29
f 31/31/31 32/32/32 30/30/30
f 33/33/33 32/32/32 31/31/31
f 33/33/33 34/34/34 32/32/32
f 35/35/35 34/34/34 33/33/33
f 35/35/35 36/36/36 34/34/34
f 37/37/37 36/36/36 35/35/35
f 37/37/37 38/38/38 36/36/36
f 39/39/39 38/38/38 37/37/37
f 39/39/39 40/40/40 38/38/38
f 41/41/41 40/40/40 39/39/39
f 41/41/41 42/42/42 40/40/40
f 43/43/43 42/42/42 41/41/41
f 43/43/43 44/44/44 42/42/42
f 45/45/45 44/44/44 43/43/43
f 45/45/45 46/46/46 44/44/44
f 47/47/47 46/46/46 45/45/45
f 47/47/47 48/48/48 46/46/46
f 49/49/49 48/48/48 47/47/47
f 49/49/49 50/50/50 48/48/48
f 51/51/51 50/50/50 49/49/49
f 51/51/51 52/52/52 50/50/50
f 53/53/53 52/52/52 51/51/51
f 53/53/53 54/54/54 52/52/52
f 55/55/55 54/54/54 53/53/53
f 55/55/55 56/56/56 54/54/54
f 57/57/57 56/56/56 55/55/55
f 57/57/57 58/58/58 56/56/56
f 59/59/59 58/58/58 57/57/57
f 59/59/59 60/60/60 58/58/58
f 61/61/61 60/60/60 59/59/59
f 61/61/61 62/62/62 60/60/60
f 63/63/63 62/62/62 61/61/61
f 63/63/63 64/64/64 62/62/62
f 65/65/65 64/64/64 63/63/63
f 65/65/65 66/66/66 64/64/64
