g Md_CMN_Ring_00
v 0.48770666 -0.09754512 -0.051260088
v 0.4948669 -0.049008507 -0.052012667
v 0.47967678 -0.09754512 -0.1019585
v 0.48671916 -0.049008507 -0.10345541
v 0.49726135 0 -0.052264325
v 0.46639147 -0.09754512 -0.15153985
v 0.4890742 0 -0.10395599
v 0.4948669 0.049008507 -0.052012667
v 0.4732388 -0.049008507 -0.15376468
v 0.44799632 -0.09754512 -0.19946086
v 0.48671916 0.049008507 -0.10345541
v 0.48770666 0.09754512 -0.051260088
v 0.47967678 0.09754512 -0.1019585
v 0.45457354 -0.049008507 -0.20238926
v 0.42469278 -0.09754512 -0.24519655
v 0.47552863 0 -0.15450868
v 0.4732388 0.049008507 -0.15376468
v 0.46639147 0.09754512 -0.15153985
v 0.4309279 -0.049008507 -0.24879642
v 0.39673626 -0.09754512 -0.28824583
v 0.45677307 0 -0.20336853
v 0.45457354 0.049008507 -0.20238926
v 0.44799632 0.09754512 -0.19946086
v 0.40256095 -0.049008507 -0.29247773
v 0.36443296 -0.09754512 -0.328137
v 0.43301302 0 -0.2500002
v 0.4309279 0.049008507 -0.24879642
v 0.42469278 0.09754512 -0.24519655
v 0.36978343 -0.049008507 -0.33295456
v 0.3281369 -0.09754512 -0.36443305
v 0.40450877 0 -0.2938929
v 0.40256095 0.049008507 -0.29247773
v 0.39673626 0.09754512 -0.28824583
v 0.33295447 -0.049008507 -0.36978346
v 0.28824574 -0.09754512 -0.3967363
v 0.37157264 0 -0.33456558
v 0.36978343 0.049008507 -0.33295456
v 0.36443296 0.09754512 -0.328137
v 0.29247764 -0.049008507 -0.40256098
v 0.24519648 -0.09754512 -0.42469278
v 0.3345655 0 -0.37157267
v 0.33295447 0.049008507 -0.36978346
v 0.3281369 0.09754512 -0.36443305
v 0.24879633 -0.049008507 -0.4309279
v 0.19946077 -0.09754512 -0.4479963
v 0.2938928 0 -0.40450877
v 0.29247764 0.049008507 -0.40256098
v 0.28824574 0.09754512 -0.3967363
v 0.20238914 -0.049008507 -0.4545735
v 0.15153973 -0.09754512 -0.4663914
v 0.25000015 0 -0.43301302
v 0.24879633 0.049008507 -0.4309279
v 0.24519648 0.09754512 -0.42469278
v 0.15376456 -0.049008507 -0.47323874
v 0.10195838 -0.09754512 -0.4796767
v 0.20336841 0 -0.45677307
v 0.20238914 0.049008507 -0.4545735
v 0.19946077 0.09754512 -0.4479963
v 0.10345528 -0.049008507 -0.48671904
v 0.05125997 -0.09754512 -0.48770654
v 0.15450856 0 -0.47552857
v 0.15376456 0.049008507 -0.47323874
v 0.15153973 0.09754512 -0.4663914
v 0.052012544 -0.049008507 -0.49486682
v -4.749823E-08 -0.09754512 -0.49039295
v 0.10395586 0 -0.4890741
v 0.10345528 0.049008507 -0.48671904
v 0.10195838 0.09754512 -0.4796767
v -4.8195574E-08 -0.049008507 -0.49759266
v -0.051260065 -0.09754512 -0.48770654
v 0.052264214 0 -0.49726123
v 0.052012544 0.049008507 -0.49486682
v 0.05125997 0.09754512 -0.48770654
v -0.05201264 -0.049008507 -0.49486682
v -0.101958476 -0.09754512 -0.4796767
v -4.8428774E-08 0 -0.5000003
v -4.8195574E-08 0.049008507 -0.49759266
v -4.749823E-08 0.09754512 -0.49039295
v -0.10345538 -0.049008507 -0.48671904
v -0.1515398 -0.09754512 -0.4663914
v -0.052264307 0 -0.49726123
v -0.05201264 0.049008507 -0.49486682
v -0.051260065 0.09754512 -0.48770654
v -0.15376464 -0.049008507 -0.4732387
v -0.19946082 -0.09754512 -0.4479962
v -0.10395595 0 -0.4890741
v -0.10345538 0.049008507 -0.48671904
v -0.101958476 0.09754512 -0.4796767
v -0.2023892 -0.049008507 -0.45457348
v -0.24519649 -0.09754512 -0.42469272
v -0.15450864 0 -0.4755285
v -0.15376464 0.049008507 -0.4732387
v -0.1515398 0.09754512 -0.4663914
v -0.24879636 -0.049008507 -0.43092784
v -0.28824577 -0.09754512 -0.39673617
v -0.20336847 0 -0.45677298
v -0.2023892 0.049008507 -0.45457348
v -0.19946082 0.09754512 -0.4479962
v -0.29247767 -0.049008507 -0.40256086
v -0.32813692 -0.09754512 -0.3644329
v -0.25000018 0 -0.4330129
v -0.24879636 0.049008507 -0.43092784
v -0.24519649 0.09754512 -0.42469272
v -0.33295447 -0.049008507 -0.3697833
v -0.36443296 -0.09754512 -0.32813686
v -0.2938928 0 -0.40450865
v -0.29247767 0.049008507 -0.40256086
v -0.28824577 0.09754512 -0.39673617
v -0.3697834 -0.049008507 -0.3329544
v -0.39673617 -0.09754512 -0.28824568
v -0.33456555 0 -0.37157255
v -0.33295447 0.049008507 -0.3697833
v -0.32813692 0.09754512 -0.3644329
v -0.40256086 -0.049008507 -0.29247758
v -0.4246927 -0.09754512 -0.24519642
v -0.3715726 0 -0.33456543
v -0.3697834 0.049008507 -0.3329544
v -0.36443296 0.09754512 -0.32813686
v -0.4309278 -0.049008507 -0.24879627
v -0.44799617 -0.09754512 -0.19946073
v -0.40450865 0 -0.29389274
v -0.40256086 0.049008507 -0.29247758
v -0.39673617 0.09754512 -0.28824568
v -0.4545734 -0.049008507 -0.2023891
v -0.4663913 -0.09754512 -0.15153971
v -0.43301287 0 -0.2500001
v -0.4309278 0.049008507 -0.24879627
v -0.4246927 0.09754512 -0.24519642
v -0.47323862 -0.049008507 -0.15376455
v -0.47967657 -0.09754512 -0.10195838
v -0.45677295 0 -0.2033684
v -0.4545734 0.049008507 -0.2023891
v -0.44799617 0.09754512 -0.19946073
v -0.48671892 -0.049008507 -0.10345528
v -0.48770645 -0.09754512 -0.051259987
v -0.47552845 0 -0.15450855
v -0.47323862 0.049008507 -0.15376455
v -0.4663913 0.09754512 -0.15153971
v -0.4948667 -0.049008507 -0.052012566
v -0.49039283 -0.09754512 1.826855E-08
v -0.48907402 0 -0.10395586
v -0.48671892 0.049008507 -0.10345528
v -0.47967657 0.09754512 -0.10195838
v -0.49759254 -0.049008507 1.853676E-08
v -0.4877064 -0.09754512 0.05126002
v -0.4972611 0 -0.052264232
v -0.4948667 0.049008507 -0.052012566
v -0.48770645 0.09754512 -0.051259987
v -0.49486667 -0.049008507 0.0520126
v -0.47967654 -0.09754512 0.10195842
v -0.5000002 0 1.8626451E-08
v -0.49759254 0.049008507 1.853676E-08
v -0.49039283 0.09754512 1.826855E-08
v -0.48671892 -0.049008507 0.10345532
v -0.4663913 -0.09754512 0.15153973
v -0.4972611 0 0.052264266
v -0.49486667 0.049008507 0.0520126
v -0.4877064 0.09754512 0.05126002
v -0.4732386 -0.049008507 0.15376456
v -0.44799608 -0.09754512 0.19946073
v -0.48907396 0 0.10395589
v -0.48671892 0.049008507 0.10345532
v -0.47967654 0.09754512 0.10195842
v -0.45457336 -0.049008507 0.2023891
v -0.42469257 -0.09754512 0.24519642
v -0.4755284 0 0.15450856
v -0.4732386 0.049008507 0.15376456
v -0.4663913 0.09754512 0.15153973
v -0.4309277 -0.049008507 0.24879627
v -0.39673606 -0.09754512 0.28824568
v -0.45677286 0 0.2033684
v -0.45457336 0.049008507 0.2023891
v -0.44799608 0.09754512 0.19946073
v -0.40256077 -0.049008507 0.29247758
v -0.3644328 -0.09754512 0.32813686
v -0.4330128 0 0.2500001
v -0.4309277 0.049008507 0.24879627
v -0.42469257 0.09754512 0.24519642
v -0.36978325 -0.049008507 0.3329544
v -0.32813674 -0.09754512 0.36443287
v -0.4045086 0 0.29389274
v -0.40256077 0.049008507 0.29247758
v -0.39673606 0.09754512 0.28824568
v -0.33295432 -0.049008507 0.3697833
v -0.2882456 -0.09754512 0.39673606
v -0.37157243 0 0.33456543
v -0.36978325 0.049008507 0.3329544
v -0.3644328 0.09754512 0.32813686
v -0.2924775 -0.049008507 0.40256077
v -0.24519631 -0.09754512 0.42469257
v -0.33456534 0 0.37157252
v -0.33295432 0.049008507 0.3697833
v -0.32813674 0.09754512 0.36443287
v -0.24879616 -0.049008507 0.4309277
v -0.19946064 -0.09754512 0.44799605
v -0.29389265 0 0.4045086
v -0.2924775 0.049008507 0.40256077
v -0.2882456 0.09754512 0.39673606
v -0.20238903 -0.049008507 0.45457327
v -0.15153964 -0.09754512 0.46639118
v -0.25 0 0.43301275
v -0.24879616 0.049008507 0.4309277
v -0.24519631 0.09754512 0.42469257
v -0.15376446 -0.049008507 0.47323853
v -0.10195832 -0.09754512 0.47967646
v -0.20336829 0 0.45677274
v -0.20238903 0.049008507 0.45457327
v -0.19946064 0.09754512 0.44799605
v -0.10345522 -0.049008507 0.4867188
v -0.051259946 -0.09754512 0.48770633
v -0.15450847 0 0.47552833
v -0.15376446 0.049008507 0.47323853
v -0.15153964 0.09754512 0.46639118
v -0.052012518 -0.049008507 0.49486658
v 5.115194E-08 -0.09754512 0.4903927
v -0.1039558 0 0.4890739
v -0.10345522 0.049008507 0.4867188
v -0.10195832 0.09754512 0.47967646
v 5.1902923E-08 -0.049008507 0.49759242
v 0.051260047 -0.09754512 0.48770627
v -0.052264187 0 0.497261
v -0.052012518 0.049008507 0.49486658
v -0.051259946 0.09754512 0.48770633
v 0.052012622 -0.049008507 0.49486655
v 0.10195842 -0.09754512 0.47967646
v 5.2154064E-08 0 0.50000006
v 5.1902923E-08 0.049008507 0.49759242
v 5.115194E-08 0.09754512 0.4903927
v 0.103455335 -0.049008507 0.4867188
v 0.15153973 -0.09754512 0.46639118
v 0.052264284 0 0.49726096
v 0.052012622 0.049008507 0.49486655
v 0.051260047 0.09754512 0.48770627
v 0.15376456 -0.049008507 0.47323847
v 0.19946072 -0.09754512 0.447996
v 0.103955895 0 0.48907384
v 0.103455335 0.049008507 0.4867188
v 0.10195842 0.09754512 0.47967646
v 0.2023891 -0.049008507 0.45457324
v 0.24519637 -0.09754512 0.42469248
v 0.15450856 0 0.4755283
v 0.15376456 0.049008507 0.47323847
v 0.15153973 0.09754512 0.46639118
v 0.24879625 -0.049008507 0.4309276
v 0.2882456 -0.09754512 0.396736
v 0.20336837 0 0.4567727
v 0.2023891 0.049008507 0.45457324
v 0.19946072 0.09754512 0.447996
v 0.29247752 -0.049008507 0.40256068
v 0.32813677 -0.09754512 0.36443275
v 0.25000006 0 0.4330127
v 0.24879625 0.049008507 0.4309276
v 0.24519637 0.09754512 0.42469248
v 0.33295432 -0.049008507 0.3697832
v 0.3644328 -0.09754512 0.3281367
v 0.29389268 0 0.4045085
v 0.29247752 0.049008507 0.40256068
v 0.2882456 0.09754512 0.396736
v 0.36978325 -0.049008507 0.33295426
v 0.39673603 -0.09754512 0.28824553
v 0.33456537 0 0.3715724
v 0.33295432 0.049008507 0.3697832
v 0.32813677 0.09754512 0.36443275
v 0.4025607 -0.049008507 0.29247746
v 0.42469248 -0.09754512 0.24519631
v 0.37157243 0 0.3345653
v 0.36978325 0.049008507 0.33295426
v 0.3644328 0.09754512 0.3281367
v 0.4309276 -0.049008507 0.24879616
v 0.447996 -0.09754512 0.19946066
v 0.4045085 0 0.29389262
v 0.4025607 0.049008507 0.29247746
v 0.39673603 0.09754512 0.28824553
v 0.45457324 -0.049008507 0.20238905
v 0.46639115 -0.09754512 0.15153967
v 0.4330127 0 0.25
v 0.4309276 0.049008507 0.24879616
v 0.42469248 0.09754512 0.24519631
v 0.47323844 -0.049008507 0.1537645
v 0.47967643 -0.09754512 0.101958364
v 0.4567727 0 0.20336832
v 0.45457324 0.049008507 0.20238905
v 0.447996 0.09754512 0.19946066
v 0.48671877 -0.049008507 0.10345527
v 0.48770624 -0.09754512 0.051259987
v 0.4755283 0 0.1545085
v 0.47323844 0.049008507 0.1537645
v 0.46639115 0.09754512 0.15153967
v 0.49486652 -0.049008507 0.052012566
v 0.49039263 -0.09754512 0
v 0.4890738 0 0.10395585
v 0.48671877 0.049008507 0.10345527
v 0.47967643 0.09754512 0.101958364
v 0.49759233 -0.049008507 0
v 0.48770666 -0.09754512 -0.051260088
v 0.4948669 -0.049008507 -0.052012667
v 0.49726096 0 0.052264232
v 0.49486652 0.049008507 0.052012566
v 0.48770624 0.09754512 0.051259987
v 0.5 0 0
v 0.49726135 0 -0.052264325
v 0.49759233 0.049008507 0
v 0.49039263 0.09754512 0
v 0.4948669 0.049008507 -0.052012667
v 0.48770666 0.09754512 -0.051260088
vt 0 0.00010249019
vt 0 0.24946326
vt 0.016613632 0.00010249019
vt 0.016613632 0.24946326
vt 0 0.5
vt 0.033212423 0.00010254979
vt 0.016613632 0.5
vt 0 0.7505359
vt 0.033212423 0.24946326
vt 0.049850196 0.00010254979
vt 0.016613632 0.7505359
vt 0 0.9998975
vt 0.016613632 0.9998975
vt 0.049850196 0.24946326
vt 0.06650686 0.00010249019
vt 0.033212423 0.5
vt 0.033212423 0.75053585
vt 0.033212423 0.9998975
vt 0.06650686 0.24946326
vt 0.08317235 0.00010254979
vt 0.049850196 0.5
vt 0.049850196 0.75053585
vt 0.049850196 0.9998975
vt 0.08317235 0.24946326
vt 0.09984192 0.00010254979
vt 0.06650686 0.5
vt 0.06650686 0.75053585
vt 0.06650686 0.9998975
vt 0.09984192 0.24946326
vt 0.1165134 0.00010249019
vt 0.08317211 0.5
vt 0.08317235 0.75053585
vt 0.08317211 0.9998975
vt 0.1165134 0.24946326
vt 0.13318583 0.00010249019
vt 0.09984192 0.5
vt 0.09984192 0.75053585
vt 0.09984192 0.9998975
vt 0.13318583 0.24946326
vt 0.14985874 0.00010254979
vt 0.1165134 0.5
vt 0.1165134 0.75053585
vt 0.1165134 0.9998975
vt 0.14985874 0.24946326
vt 0.16653213 0.00010249019
vt 0.13318583 0.5
vt 0.13318583 0.75053585
vt 0.13318583 0.9998975
vt 0.16653213 0.24946326
vt 0.18320528 0.00010254979
vt 0.14985874 0.5
vt 0.14985874 0.75053585
vt 0.14985874 0.9998975
vt 0.18320528 0.24946326
vt 0.19987866 0.00010249019
vt 0.16653213 0.5
vt 0.16653213 0.75053585
vt 0.16653213 0.9998975
vt 0.19987866 0.24946326
vt 0.21655229 0.00010249019
vt 0.18320528 0.5
vt 0.18320528 0.75053585
vt 0.18320528 0.9998975
vt 0.21655229 0.24946326
vt 0.23322544 0.00010249019
vt 0.19987866 0.5
vt 0.19987866 0.7505359
vt 0.19987866 0.9998975
vt 0.23322544 0.24946326
vt 0.24989882 0.00010254979
vt 0.21655229 0.5
vt 0.21655229 0.7505359
vt 0.21655229 0.9998975
vt 0.24989882 0.24946326
vt 0.26657233 0.00010249019
vt 0.23322544 0.5
vt 0.23322544 0.7505359
vt 0.23322544 0.9998975
vt 0.26657233 0.24946326
vt 0.2832457 0.00010254979
vt 0.24989882 0.5
vt 0.24989882 0.7505359
vt 0.24989882 0.9998975
vt 0.2832457 0.24946326
vt 0.29991922 0.00010249019
vt 0.26657233 0.5
vt 0.26657233 0.7505359
vt 0.26657233 0.9998975
vt 0.29991922 0.24946326
vt 0.3165925 0.00010254979
vt 0.2832457 0.5
vt 0.2832457 0.7505359
vt 0.2832457 0.9998975
vt 0.3165925 0.24946326
vt 0.33326602 0.00010249019
vt 0.29991922 0.5
vt 0.29991922 0.7505359
vt 0.29991922 0.9998975
vt 0.33326602 0.24946326
vt 0.3499394 0.00010249019
vt 0.31659263 0.5
vt 0.3165925 0.7505359
vt 0.31659263 0.9998975
vt 0.3499394 0.24946326
vt 0.3666128 0.00010254979
vt 0.33326602 0.5
vt 0.33326602 0.7505359
vt 0.33326602 0.9998975
vt 0.3666128 0.24946326
vt 0.38328624 0.00010249019
vt 0.3499394 0.5
vt 0.3499394 0.75053585
vt 0.3499394 0.9998975
vt 0.38328618 0.24946326
vt 0.39995968 0.00010249019
vt 0.3666128 0.5
vt 0.3666128 0.75053585
vt 0.3666128 0.9998975
vt 0.39995968 0.24946326
vt 0.416633 0.00010254979
vt 0.38328618 0.5
vt 0.38328618 0.75053585
vt 0.38328618 0.9998975
vt 0.416633 0.24946326
vt 0.43330646 0.00010254979
vt 0.39995968 0.5
vt 0.39995962 0.75053585
vt 0.39995962 0.9998975
vt 0.43330646 0.24946326
vt 0.44997984 0.00010249019
vt 0.41663307 0.5
vt 0.416633 0.75053585
vt 0.41663307 0.9998975
vt 0.44997984 0.24946326
vt 0.46665326 0.00010249019
vt 0.43330646 0.5
vt 0.43330646 0.75053585
vt 0.43330646 0.9998975
vt 0.46665326 0.24946326
vt 0.48332667 0.00010254979
vt 0.44997984 0.5
vt 0.44997984 0.75053585
vt 0.44997984 0.9998975
vt 0.48332667 0.24946326
vt 0.50000006 0.00010249019
vt 0.46665326 0.5
vt 0.46665326 0.7505359
vt 0.46665326 0.9998975
vt 0.50000006 0.24946326
vt 0.5166735 0.00010249019
vt 0.48332667 0.5
vt 0.48332667 0.7505359
vt 0.48332667 0.9998975
vt 0.5166735 0.24946326
vt 0.5333469 0.00010249019
vt 0.50000006 0.5
vt 0.50000006 0.7505359
vt 0.50000006 0.9998975
vt 0.5333469 0.24946326
vt 0.5500203 0.00010254979
vt 0.5166735 0.5
vt 0.5166735 0.7505359
vt 0.5166735 0.9998975
vt 0.5500203 0.24946326
vt 0.5666937 0.00010249019
vt 0.5333469 0.5
vt 0.5333469 0.7505359
vt 0.5333469 0.9998975
vt 0.5666937 0.24946326
vt 0.5833671 0.00010254979
vt 0.5500203 0.5
vt 0.5500203 0.7505359
vt 0.5500203 0.9998975
vt 0.5833671 0.24946326
vt 0.60004056 0.00010249019
vt 0.5666937 0.5
vt 0.5666937 0.7505359
vt 0.5666937 0.9998975
vt 0.60004056 0.24946326
vt 0.61671394 0.00010254979
vt 0.5833671 0.5
vt 0.5833671 0.7505359
vt 0.5833671 0.9998975
vt 0.61671394 0.24946326
vt 0.6333873 0.00010249019
vt 0.60004056 0.5
vt 0.60004056 0.7505359
vt 0.60004056 0.9998975
vt 0.6333873 0.24946326
vt 0.65006083 0.00010249019
vt 0.61671394 0.5
vt 0.61671394 0.7505359
vt 0.61671394 0.9998975
vt 0.65006083 0.24946326
vt 0.6667341 0.00010249019
vt 0.6333873 0.5
vt 0.6333873 0.75053585
vt 0.6333873 0.9998975
vt 0.6667341 0.24946326
vt 0.6834076 0.00010249019
vt 0.65006083 0.5
vt 0.65006083 0.75053585
vt 0.65006083 0.9998975
vt 0.6834076 0.24946326
vt 0.700081 0.00010249019
vt 0.6667341 0.5
vt 0.6667341 0.75053585
vt 0.6667341 0.9998975
vt 0.700081 0.24946326
vt 0.71675444 0.00010249019
vt 0.6834076 0.5
vt 0.6834076 0.75053585
vt 0.6834076 0.9998975
vt 0.71675444 0.24946326
vt 0.73342776 0.00010254979
vt 0.700081 0.5
vt 0.700081 0.75053585
vt 0.700081 0.9998975
vt 0.73342776 0.24946326
vt 0.7501012 0.00010254979
vt 0.71675444 0.5
vt 0.71675444 0.75053585
vt 0.71675444 0.9998975
vt 0.7501012 0.24946326
vt 0.76677454 0.00010254979
vt 0.73342776 0.5
vt 0.73342776 0.75053585
vt 0.73342776 0.9998975
vt 0.76677454 0.24946326
vt 0.783448 0.00010254979
vt 0.7501012 0.5
vt 0.7501012 0.75053585
vt 0.7501012 0.9998975
vt 0.783448 0.24946326
vt 0.80012107 0.00010249019
vt 0.76677454 0.5
vt 0.76677454 0.75053585
vt 0.76677454 0.9998975
vt 0.8001213 0.24946326
vt 0.81679475 0.00010254979
vt 0.783448 0.5
vt 0.783448 0.75053585
vt 0.783448 0.9998975
vt 0.81679475 0.24946326
vt 0.83346784 0.00010249019
vt 0.8001213 0.5
vt 0.8001213 0.75053585
vt 0.80012107 0.9998975
vt 0.83346784 0.24946326
vt 0.8501413 0.00010254979
vt 0.81679475 0.5
vt 0.81679475 0.75053585
vt 0.81679475 0.9998975
vt 0.8501413 0.24946326
vt 0.86681414 0.00010249019
vt 0.83346784 0.5
vt 0.83346784 0.75053585
vt 0.83346784 0.9998975
vt 0.86681414 0.24946326
vt 0.8834866 0.00010254979
vt 0.8501413 0.5
vt 0.8501413 0.75053585
vt 0.8501413 0.9998975
vt 0.8834866 0.24946326
vt 0.90015805 0.00010254979
vt 0.86681414 0.5
vt 0.86681414 0.75053585
vt 0.86681414 0.9998975
vt 0.90015805 0.24946326
vt 0.9168277 0.00010249019
vt 0.8834866 0.5
vt 0.8834866 0.75053585
vt 0.8834866 0.9998975
vt 0.9168277 0.24946326
vt 0.93349314 0.00010249019
vt 0.90015805 0.5
vt 0.90015805 0.75053585
vt 0.90015805 0.9998975
vt 0.93349314 0.24946326
vt 0.9501498 0.00010249019
vt 0.9168277 0.5
vt 0.9168279 0.75053585
vt 0.9168277 0.9998975
vt 0.9501498 0.24946326
vt 0.96678734 0.00010249019
vt 0.93349314 0.5
vt 0.93349314 0.75053585
vt 0.93349314 0.9998975
vt 0.96678734 0.24946326
vt 0.98338616 0.00010254979
vt 0.9501498 0.5
vt 0.9501498 0.75053585
vt 0.9501498 0.9998975
vt 0.98338616 0.24946326
vt 0.99999994 0.00010254979
vt 0.99999994 0.24946326
vt 0.96678734 0.5
vt 0.96678734 0.75053585
vt 0.96678734 0.9998975
vt 0.98338616 0.5
vt 0.99999994 0.5
vt 0.98338616 0.75053585
vt 0.98338616 0.9998975
vt 0.99999994 0.75053585
vt 0.99999994 0.9998975
vn 0.9837788 -0.14672926 -0.10319776
vn 0.98977447 -0.09773495 -0.10389544
vn 0.96760154 -0.14672998 -0.20546931
vn 0.97349143 -0.09773562 -0.20678996
vn 0.99452233 5.9800294E-07 -0.10452447
vn 0.9408237 -0.14672942 -0.30548546
vn 0.97814757 2.191439E-07 -0.20791185
vn 0.9897474 0.09773578 -0.10415274
vn 0.94654316 -0.097735666 -0.3074148
vn 0.9037379 -0.14672941 -0.40215474
vn 0.97343767 0.09773534 -0.20704356
vn 0.9837376 0.14672978 -0.103588626
vn 0.9675195 0.1467301 -0.20585464
vn 0.9092244 -0.097735055 -0.4046712
vn 0.85675037 -0.14672968 -0.4944182
vn 0.95105636 -2.978871E-07 -0.3090174
vn 0.94646305 0.097735174 -0.30766124
vn 0.940702 0.14672942 -0.30585966
vn 0.8619439 -0.097735584 -0.49749407
vn 0.80037624 -0.14673015 -0.5812643
vn 0.9135453 2.050296E-07 -0.4067368
vn 0.90911907 0.09773569 -0.4049078
vn 0.90357786 0.1467293 -0.40251413
vn 0.80521977 -0.09773563 -0.58486646
vn 0.7352327 -0.14673033 -0.66174257
vn 0.86602527 -1.4040072E-07 -0.5000002
vn 0.8618144 0.09773617 -0.49771848
vn 0.8565536 0.14672995 -0.49475878
vn 0.7396732 -0.097735435 -0.66583127
vn 0.66203433 -0.14673033 -0.7349699
vn 0.8090168 0 -0.58778554
vn 0.80506754 0.09773567 -0.58507615
vn 0.8001449 0.14672957 -0.5815829
vn 0.6660234 -0.09773516 -0.7395003
vn 0.58158255 -0.14673026 -0.800145
vn 0.74314463 0 -0.6691308
vn 0.73950016 0.097735375 -0.66602355
vn 0.7349696 0.14672965 -0.6620348
vn 0.58507574 -0.09773512 -0.80506784
vn 0.49475822 -0.14673005 -0.85655385
vn 0.66913056 1.3891498E-07 -0.7431449
vn 0.66583043 0.09773516 -0.739674
vn 0.6617419 0.1467301 -0.7352332
vn 0.49771777 -0.097735494 -0.8618148
vn 0.402514 -0.14672928 -0.90357786
vn 0.5877854 -1.2777204E-07 -0.8090169
vn 0.5848662 0.0977356 -0.80522
vn 0.5812646 0.14673035 -0.8003758
vn 0.404907 -0.09773568 -0.90911937
vn 0.30586007 -0.14673014 -0.94070184
vn 0.4999996 -3.781162E-07 -0.8660256
vn 0.49749324 0.09773597 -0.8619444
vn 0.49441752 0.14672972 -0.8567506
vn 0.30765995 -0.097735696 -0.94646347
vn 0.20585477 -0.14672986 -0.9675195
vn 0.40673634 0 -0.9135456
vn 0.40467092 0.09773565 -0.9092245
vn 0.40215394 0.14672945 -0.9037382
vn 0.20704313 -0.097735666 -0.97343767
vn 0.10359277 -0.14672996 -0.9837372
vn 0.3090168 1.1811484E-07 -0.95105654
vn 0.30741447 0.097735666 -0.9465433
vn 0.30548453 0.1467302 -0.9408238
vn 0.104156666 -0.09773522 -0.98974705
vn 0.00019638466 -0.14673011 -0.9891766
vn 0.20791137 0 -0.9781477
vn 0.20678967 0.09773558 -0.97349155
vn 0.20546874 0.14672972 -0.96760166
vn 0.00012964122 -0.097735375 -0.99521244
vn -0.103201285 -0.14673007 -0.98377836
vn 0.10452811 0 -0.994522
vn 0.10389938 0.09773506 -0.9897741
vn 0.10320129 0.14673008 -0.98377836
vn -0.10389939 -0.09773504 -0.9897741
vn -0.20546879 -0.14672977 -0.96760166
vn -0 0 -1
vn -0.00012963821 0.09773537 -0.99521244
vn -0.0001963839 0.14673011 -0.9891766
vn -0.20678997 -0.09773547 -0.97349143
vn -0.30548564 -0.14672962 -0.9408236
vn -0.104528114 -1.0920057E-07 -0.994522
vn -0.10415668 0.09773521 -0.98974705
vn -0.10359277 0.14672992 -0.9837372
vn -0.30741495 -0.09773544 -0.94654304
vn -0.40215483 -0.14672987 -0.90373766
vn -0.20791171 -1.2851493E-07 -0.97814757
vn -0.2070437 0.09773561 -0.97343755
vn -0.2058548 0.14672962 -0.96751964
vn -0.40467107 -0.097735584 -0.9092245
vn -0.49441808 -0.14673011 -0.85675025
vn -0.30901712 0 -0.9510565
vn -0.30766085 0.09773538 -0.9464633
vn -0.30585974 0.14672974 -0.94070196
vn -0.4974941 -0.09773542 -0.861944
vn -0.5812643 -0.14673038 -0.8003762
vn -0.40673703 0 -0.91354525
vn -0.40490797 0.09773544 -0.90911895
vn -0.40251464 0.14672999 -0.90357745
vn -0.5848668 -0.09773511 -0.8052197
vn -0.66174215 -0.1467299 -0.735233
vn -0.49999997 0 -0.86602545
vn -0.4977185 0.09773521 -0.86181444
vn -0.4947594 0.14673018 -0.85655326
vn -0.6658311 -0.097735405 -0.73967344
vn -0.73497015 -0.14673015 -0.6620342
vn -0.5877853 -1.3000061E-07 -0.8090169
vn -0.5850765 0.09773541 -0.8050673
vn -0.5815829 0.14673024 -0.80014473
vn -0.73950046 -0.097735085 -0.66602314
vn -0.8001452 -0.14673077 -0.58158207
vn -0.6691308 -2.800586E-07 -0.74314463
vn -0.6660239 0.0977355 -0.73949975
vn -0.6620346 0.14672996 -0.73496974
vn -0.8050679 -0.09773511 -0.5850756
vn -0.85655385 -0.14672942 -0.49475843
vn -0.7431452 0 -0.66913015
vn -0.7396738 0.097735226 -0.6658306
vn -0.735233 0.14673044 -0.66174203
vn -0.86181474 -0.09773482 -0.49771798
vn -0.90357804 -0.14672872 -0.40251383
vn -0.8090172 -1.6788661E-07 -0.58778495
vn -0.80522025 0.09773505 -0.58486605
vn -0.8003766 0.14673063 -0.58126366
vn -0.9091192 -0.09773592 -0.40490752
vn -0.940702 -0.14672935 -0.3058596
vn -0.86602527 -2.7857288E-07 -0.5000002
vn -0.8619441 0.09773568 -0.49749377
vn -0.8567504 0.14673074 -0.49441758
vn -0.9464633 -0.09773618 -0.3076605
vn -0.9675198 -0.14672902 -0.20585401
vn -0.91354555 -1.3594354E-07 -0.40673643
vn -0.9092246 0.09773558 -0.40467086
vn -0.90373796 0.14672905 -0.40215456
vn -0.97343767 -0.097735815 -0.20704328
vn -0.9837372 -0.14673035 -0.1035928
vn -0.95105654 3.1720162E-07 -0.3090168
vn -0.9465433 0.097736046 -0.30741426
vn -0.9408238 0.14673026 -0.3054848
vn -0.98974705 -0.09773553 -0.1041567
vn -0.9891766 -0.14673042 -0.00019642057
vn -0.9781477 1.3222927E-07 -0.20791158
vn -0.97349155 0.09773527 -0.2067897
vn -0.96760166 0.1467292 -0.20546937
vn -0.99521244 -0.0977353 -0.00012927102
vn -0.98377824 -0.1467305 0.10320168
vn -0.99452186 -2.8971579E-07 -0.104528256
vn -0.9897741 0.09773488 -0.10389944
vn -0.98377836 0.14672978 -0.10320133
vn -0.98977405 -0.0977358 0.10389941
vn -0.96760154 -0.14673045 0.20546888
vn -1 0 0
vn -0.9952123 0.097735934 0.00012990994
vn -0.98917645 0.14673072 0.00019714965
vn -0.97349155 -0.09773567 0.20678975
vn -0.9408234 -0.14673103 0.30548558
vn -0.99452186 -2.4142983E-07 0.10452854
vn -0.98974705 0.09773562 0.104156926
vn -0.98373705 0.14673103 0.103592955
vn -0.94654316 -0.09773562 0.3074148
vn -0.9037376 -0.14673017 0.4021551
vn -0.97814757 1.2702925E-07 0.20791186
vn -0.97343767 0.09773571 0.20704326
vn -0.96751964 0.1467307 0.20585404
vn -0.9092242 -0.097735554 0.40467152
vn -0.85675037 -0.14672974 0.49441805
vn -0.9510565 4.3977374E-07 0.30901718
vn -0.94646317 0.097735725 0.3076609
vn -0.94070184 0.1467306 0.30585963
vn -0.8619439 -0.09773562 0.49749413
vn -0.80037653 -0.14672974 0.58126396
vn -0.9135453 0 0.40673688
vn -0.9091189 0.097735696 0.40490812
vn -0.9035774 0.14673056 0.40251473
vn -0.80522 -0.09773559 0.58486617
vn -0.73523235 -0.14673027 0.66174287
vn -0.86602527 1.2182922E-07 0.50000036
vn -0.86181444 0.09773552 0.49771842
vn -0.8565538 0.14672971 0.4947587
vn -0.73967344 -0.09773588 0.6658311
vn -0.6620343 -0.14673057 0.73496985
vn -0.8090169 4.1228785E-07 0.5877854
vn -0.8050676 0.09773548 0.585076
vn -0.8001452 0.14672978 0.5815824
vn -0.66602314 -0.097735606 0.73950046
vn -0.58158207 -0.14673062 0.8001452
vn -0.7431448 0 0.6691307
vn -0.7395003 0.09773501 0.6660234
vn -0.73496974 0.1467298 0.6620346
vn -0.58507526 -0.09773558 0.80506814
vn -0.49475867 -0.14673004 0.8565537
vn -0.6691302 1.71601E-07 0.74314517
vn -0.66583025 0.09773596 0.73967415
vn -0.66174114 0.14673099 0.7352338
vn -0.49771792 -0.09773533 0.86181474
vn -0.4025138 -0.14672962 0.9035779
vn -0.58778465 -2.1468688E-07 0.80901736
vn -0.58486575 0.09773564 0.80522037
vn -0.581264 0.1467301 0.80037636
vn -0.40490726 -0.097735114 0.90911937
vn -0.3058602 -0.14673005 0.9407017
vn -0.49999964 0 0.8660256
vn -0.49749357 0.09773525 0.86194426
vn -0.4944182 0.14672975 0.85675025
vn -0.30766067 -0.0977355 0.9464633
vn -0.2058549 -0.14672977 0.9675195
vn -0.4067366 0 0.91354555
vn -0.4046709 0.09773498 0.9092246
vn -0.40215406 0.14672981 0.9037381
vn -0.20704328 -0.09773566 0.97343767
vn -0.1035931 -0.14672995 0.9837372
vn -0.3090174 -1.5228655E-07 0.9510565
vn -0.30741444 0.097735636 0.9465433
vn -0.3054847 0.14673018 0.9408238
vn -0.10415672 -0.09773522 0.98974705
vn -0.00019667485 -0.1467301 0.9891766
vn -0.20791152 1.2777214E-07 0.9781477
vn -0.20678967 0.0977356 0.97349155
vn -0.20546918 0.14672975 0.96760154
vn -0.00012949647 -0.09773536 0.99521244
vn 0.10320198 -0.14673007 0.98377824
vn -0.10452815 1.1217204E-07 0.99452186
vn -0.103899434 0.097735025 0.9897741
vn -0.10320106 0.14673005 0.98377836
vn 0.10389947 -0.09773505 0.9897741
vn 0.20546883 -0.1467297 0.96760166
vn 7.398898E-07 0 1
vn 0.00013010854 0.097735375 0.99521244
vn 0.00019699644 0.14673011 0.9891766
vn 0.20678985 -0.09773519 0.97349155
vn 0.30548632 -0.14672972 0.94082326
vn 0.10452872 0 0.99452186
vn 0.10415644 0.09773513 0.98974705
vn 0.103592806 0.14672995 0.9837372
vn 0.30741477 -0.097735316 0.94654316
vn 0.4021553 -0.14673007 0.9037375
vn 0.20791155 -1.2480069E-07 0.9781477
vn 0.20704299 0.097735405 0.9734378
vn 0.20585434 0.14672963 0.96751976
vn 0.40467083 -0.09773533 0.9092246
vn 0.49441844 -0.14673004 0.8567501
vn 0.3090174 0 0.95105636
vn 0.30766138 0.097735256 0.94646305
vn 0.30585998 0.14672974 0.94070196
vn 0.49749357 -0.09773536 0.86194426
vn 0.5812644 -0.14673077 0.80037606
vn 0.40673715 1.18857784E-07 0.91354525
vn 0.4049078 0.09773536 0.90911907
vn 0.40251428 0.1467303 0.90357757
vn 0.5848661 -0.09773577 0.80522007
vn 0.66174215 -0.14673102 0.7352328
vn 0.50000006 0 0.8660253
vn 0.49771827 0.09773534 0.86181456
vn 0.49475908 0.14673027 0.8565533
vn 0.66583085 -0.09773562 0.7396736
vn 0.73496985 -0.1467307 0.6620343
vn 0.58778507 -2.1765837E-07 0.8090171
vn 0.585076 0.097735584 0.80506766
vn 0.5815824 0.14673036 0.800145
vn 0.73950034 -0.09773537 0.66602325
vn 0.80014515 -0.14673083 0.5815822
vn 0.6691308 -1.4485796E-07 0.7431446
vn 0.66602397 0.09773577 0.7394997
vn 0.6620342 0.14673081 0.7349699
vn 0.8050679 -0.0977354 0.5850756
vn 0.8565537 -0.14673057 0.49475843
vn 0.743145 -1.3148649E-07 0.6691304
vn 0.739674 0.09773534 0.6658305
vn 0.73523295 0.14673086 0.66174203
vn 0.8618146 -0.09773501 0.49771816
vn 0.90357774 -0.14672945 0.40251428
vn 0.8090171 -1.7680107E-07 0.587785
vn 0.80522025 0.09773519 0.584866
vn 0.80037653 0.14673062 0.5812638
vn 0.9091192 -0.097735174 0.4049077
vn 0.940702 -0.14672948 0.3058597
vn 0.8660255 0 0.49999985
vn 0.8619442 0.09773538 0.49749383
vn 0.8567504 0.14673008 0.49441785
vn 0.94646317 -0.09773572 0.3076609
vn 0.96751964 -0.14673044 0.2058539
vn 0.9135453 -2.8228723E-07 0.40673682
vn 0.90922433 0.09773601 0.4046712
vn 0.90373766 0.14673083 0.4021546
vn 0.97343767 -0.09773574 0.20704311
vn 0.9837372 -0.14673047 0.103592455
vn 0.9510565 -1.4782941E-07 0.30901715
vn 0.9465433 0.09773567 0.3074144
vn 0.9408237 0.14672923 0.3054855
vn 0.98974705 -0.09773531 0.10415658
vn 0.9891766 -0.14673033 0.00020084452
vn 0.97814757 0 0.20791164
vn 0.97349155 0.097735114 0.20678991
vn 0.96760166 0.14672926 0.20546915
vn 0.99521244 -0.09773552 0.00013327475
vn 0.9837788 -0.14672926 -0.10319776
vn 0.98977447 -0.09773495 -0.10389544
vn 0.99452186 0 0.10452819
vn 0.98977405 0.097735904 0.10389898
vn 0.98377824 0.14673105 0.10320096
vn 1 -6.782316E-07 3.6489305E-06
vn 0.99452233 5.9800294E-07 -0.10452447
vn 0.99521244 0.097735256 -0.00012588961
vn 0.9891767 0.14672944 -0.00019291484
vn 0.9897474 0.09773578 -0.10415274
vn 0.9837376 0.14672978 -0.103588626
g Md_CMN_Ring_00_0
f 3/3/3 2/2/2 1/1/1
f 3/3/3 4/4/4 2/2/2
f 4/4/4 5/5/5 2/2/2
f 6/6/6 4/4/4 3/3/3
f 4/4/4 7/7/7 5/5/5
f 7/7/7 8/8/8 5/5/5
f 6/6/6 9/9/9 4/4/4
f 9/9/9 7/7/7 4/4/4
f 10/10/10 9/9/9 6/6/6
f 7/7/7 11/11/11 8/8/8
f 11/11/11 12/12/12 8/8/8
f 11/11/11 13/13/13 12/12/12
f 10/10/10 14/14/14 9/9/9
f 15/15/15 14/14/14 10/10/10
f 9/9/9 16/16/16 7/7/7
f 16/16/16 11/11/11 7/7/7
f 14/14/14 16/16/16 9/9/9
f 17/17/17 13/13/13 11/11/11
f 16/16/16 17/17/17 11/11/11
f 17/17/17 18/18/18 13/13/13
f 15/15/15 19/19/19 14/14/14
f 20/20/20 19/19/19 15/15/15
f 14/14/14 21/21/21 16/16/16
f 21/21/21 17/17/17 16/16/16
f 19/19/19 21/21/21 14/14/14
f 22/22/22 18/18/18 17/17/17
f 21/21/21 22/22/22 17/17/17
f 22/22/22 23/23/23 18/18/18
f 20/20/20 24/24/24 19/19/19
f 25/25/25 24/24/24 20/20/20
f 19/19/19 26/26/26 21/21/21
f 26/26/26 22/22/22 21/21/21
f 24/24/24 26/26/26 19/19/19
f 27/27/27 23/23/23 22/22/22
f 26/26/26 27/27/27 22/22/22
f 27/27/27 28/28/28 23/23/23
f 25/25/25 29/29/29 24/24/24
f 30/30/30 29/29/29 25/25/25
f 24/24/24 31/31/31 26/26/26
f 31/31/31 27/27/27 26/26/26
f 29/29/29 31/31/31 24/24/24
f 32/32/32 28/28/28 27/27/27
f 31/31/31 32/32/32 27/27/27
f 32/32/32 33/33/33 28/28/28
f 30/30/30 34/34/34 29/29/29
f 35/35/35 34/34/34 30/30/30
f 29/29/29 36/36/36 31/31/31
f 36/36/36 32/32/32 31/31/31
f 34/34/34 36/36/36 29/29/29
f 37/37/37 33/33/33 32/32/32
f 36/36/36 37/37/37 32/32/32
f 37/37/37 38/38/38 33/33/33
f 35/35/35 39/39/39 34/34/34
f 40/40/40 39/39/39 35/35/35
f 34/34/34 41/41/41 36/36/36
f 41/41/41 37/37/37 36/36/36
f 39/39/39 41/41/41 34/34/34
f 42/42/42 38/38/38 37/37/37
f 41/41/41 42/42/42 37/37/37
f 42/42/42 43/43/43 38/38/38
f 40/40/40 44/44/44 39/39/39
f 45/45/45 44/44/44 40/40/40
f 39/39/39 46/46/46 41/41/41
f 46/46/46 42/42/42 41/41/41
f 44/44/44 46/46/46 39/39/39
f 47/47/47 43/43/43 42/42/42
f 46/46/46 47/47/47 42/42/42
f 47/47/47 48/48/48 43/43/43
f 45/45/45 49/49/49 44/44/44
f 50/50/50 49/49/49 45/45/45
f 44/44/44 51/51/51 46/46/46
f 51/51/51 47/47/47 46/46/46
f 49/49/49 51/51/51 44/44/44
f 52/52/52 48/48/48 47/47/47
f 51/51/51 52/52/52 47/47/47
f 52/52/52 53/53/53 48/48/48
f 50/50/50 54/54/54 49/49/49
f 55/55/55 54/54/54 50/50/50
f 49/49/49 56/56/56 51/51/51
f 56/56/56 52/52/52 51/51/51
f 54/54/54 56/56/56 49/49/49
f 57/57/57 53/53/53 52/52/52
f 56/56/56 57/57/57 52/52/52
f 57/57/57 58/58/58 53/53/53
f 55/55/55 59/59/59 54/54/54
f 60/60/60 59/59/59 55/55/55
f 54/54/54 61/61/61 56/56/56
f 61/61/61 57/57/57 56/56/56
f 59/59/59 61/61/61 54/54/54
f 62/62/62 58/58/58 57/57/57
f 61/61/61 62/62/62 57/57/57
f 62/62/62 63/63/63 58/58/58
f 60/60/60 64/64/64 59/59/59
f 65/65/65 64/64/64 60/60/60
f 59/59/59 66/66/66 61/61/61
f 66/66/66 62/62/62 61/61/61
f 64/64/64 66/66/66 59/59/59
f 67/67/67 63/63/63 62/62/62
f 66/66/66 67/67/67 62/62/62
f 67/67/67 68/68/68 63/63/63
f 65/65/65 69/69/69 64/64/64
f 70/70/70 69/69/69 65/65/65
f 64/64/64 71/71/71 66/66/66
f 71/71/71 67/67/67 66/66/66
f 69/69/69 71/71/71 64/64/64
f 72/72/72 68/68/68 67/67/67
f 71/71/71 72/72/72 67/67/67
f 72/72/72 73/73/73 68/68/68
f 70/70/70 74/74/74 69/69/69
f 75/75/75 74/74/74 70/70/70
f 69/69/69 76/76/76 71/71/71
f 76/76/76 72/72/72 71/71/71
f 74/74/74 76/76/76 69/69/69
f 77/77/77 73/73/73 72/72/72
f 76/76/76 77/77/77 72/72/72
f 77/77/77 78/78/78 73/73/73
f 75/75/75 79/79/79 74/74/74
f 80/80/80 79/79/79 75/75/75
f 74/74/74 81/81/81 76/76/76
f 81/81/81 77/77/77 76/76/76
f 79/79/79 81/81/81 74/74/74
f 82/82/82 78/78/78 77/77/77
f 81/81/81 82/82/82 77/77/77
f 82/82/82 83/83/83 78/78/78
f 80/80/80 84/84/84 79/79/79
f 85/85/85 84/84/84 80/80/80
f 79/79/79 86/86/86 81/81/81
f 86/86/86 82/82/82 81/81/81
f 84/84/84 86/86/86 79/79/79
f 87/87/87 83/83/83 82/82/82
f 86/86/86 87/87/87 82/82/82
f 87/87/87 88/88/88 83/83/83
f 85/85/85 89/89/89 84/84/84
f 90/90/90 89/89/89 85/85/85
f 84/84/84 91/91/91 86/86/86
f 91/91/91 87/87/87 86/86/86
f 89/89/89 91/91/91 84/84/84
f 92/92/92 88/88/88 87/87/87
f 91/91/91 92/92/92 87/87/87
f 92/92/92 93/93/93 88/88/88
f 90/90/90 94/94/94 89/89/89
f 95/95/95 94/94/94 90/90/90
f 89/89/89 96/96/96 91/91/91
f 96/96/96 92/92/92 91/91/91
f 94/94/94 96/96/96 89/89/89
f 97/97/97 93/93/93 92/92/92
f 96/96/96 97/97/97 92/92/92
f 97/97/97 98/98/98 93/93/93
f 95/95/95 99/99/99 94/94/94
f 100/100/100 99/99/99 95/95/95
f 94/94/94 101/101/101 96/96/96
f 101/101/101 97/97/97 96/96/96
f 99/99/99 101/101/101 94/94/94
f 102/102/102 98/98/98 97/97/97
f 101/101/101 102/102/102 97/97/97
f 102/102/102 103/103/103 98/98/98
f 100/100/100 104/104/104 99/99/99
f 105/105/105 104/104/104 100/100/100
f 99/99/99 106/106/106 101/101/101
f 106/106/106 102/102/102 101/101/101
f 104/104/104 106/106/106 99/99/99
f 107/107/107 103/103/103 102/102/102
f 106/106/106 107/107/107 102/102/102
f 107/107/107 108/108/108 103/103/103
f 105/105/105 109/109/109 104/104/104
f 110/110/110 109/109/109 105/105/105
f 104/104/104 111/111/111 106/106/106
f 111/111/111 107/107/107 106/106/106
f 109/109/109 111/111/111 104/104/104
f 112/112/112 108/108/108 107/107/107
f 111/111/111 112/112/112 107/107/107
f 112/112/112 113/113/113 108/108/108
f 110/110/110 114/114/114 109/109/109
f 115/115/115 114/114/114 110/110/110
f 109/109/109 116/116/116 111/111/111
f 116/116/116 112/112/112 111/111/111
f 114/114/114 116/116/116 109/109/109
f 117/117/117 113/113/113 112/112/112
f 116/116/116 117/117/117 112/112/112
f 117/117/117 118/118/118 113/113/113
f 115/115/115 119/119/119 114/114/114
f 120/120/120 119/119/119 115/115/115
f 114/114/114 121/121/121 116/116/116
f 121/121/121 117/117/117 116/116/116
f 119/119/119 121/121/121 114/114/114
f 122/122/122 118/118/118 117/117/117
f 121/121/121 122/122/122 117/117/117
f 122/122/122 123/123/123 118/118/118
f 120/120/120 124/124/124 119/119/119
f 125/125/125 124/124/124 120/120/120
f 119/119/119 126/126/126 121/121/121
f 126/126/126 122/122/122 121/121/121
f 124/124/124 126/126/126 119/119/119
f 127/127/127 123/123/123 122/122/122
f 126/126/126 127/127/127 122/122/122
f 127/127/127 128/128/128 123/123/123
f 125/125/125 129/129/129 124/124/124
f 130/130/130 129/129/129 125/125/125
f 124/124/124 131/131/131 126/126/126
f 131/131/131 127/127/127 126/126/126
f 129/129/129 131/131/131 124/124/124
f 132/132/132 128/128/128 127/127/127
f 131/131/131 132/132/132 127/127/127
f 132/132/132 133/133/133 128/128/128
f 130/130/130 134/134/134 129/129/129
f 135/135/135 134/134/134 130/130/130
f 129/129/129 136/136/136 131/131/131
f 136/136/136 132/132/132 131/131/131
f 134/134/134 136/136/136 129/129/129
f 137/137/137 133/133/133 132/132/132
f 136/136/136 137/137/137 132/132/132
f 137/137/137 138/138/138 133/133/133
f 135/135/135 139/139/139 134/134/134
f 140/140/140 139/139/139 135/135/135
f 134/134/134 141/141/141 136/136/136
f 141/141/141 137/137/137 136/136/136
f 139/139/139 141/141/141 134/134/134
f 142/142/142 138/138/138 137/137/137
f 141/141/141 142/142/142 137/137/137
f 142/142/142 143/143/143 138/138/138
f 140/140/140 144/144/144 139/139/139
f 145/145/145 144/144/144 140/140/140
f 139/139/139 146/146/146 141/141/141
f 146/146/146 142/142/142 141/141/141
f 144/144/144 146/146/146 139/139/139
f 147/147/147 143/143/143 142/142/142
f 146/146/146 147/147/147 142/142/142
f 147/147/147 148/148/148 143/143/143
f 145/145/145 149/149/149 144/144/144
f 150/150/150 149/149/149 145/145/145
f 144/144/144 151/151/151 146/146/146
f 151/151/151 147/147/147 146/146/146
f 149/149/149 151/151/151 144/144/144
f 152/152/152 148/148/148 147/147/147
f 151/151/151 152/152/152 147/147/147
f 152/152/152 153/153/153 148/148/148
f 150/150/150 154/154/154 149/149/149
f 155/155/155 154/154/154 150/150/150
f 149/149/149 156/156/156 151/151/151
f 156/156/156 152/152/152 151/151/151
f 154/154/154 156/156/156 149/149/149
f 157/157/157 153/153/153 152/152/152
f 156/156/156 157/157/157 152/152/152
f 157/157/157 158/158/158 153/153/153
f 155/155/155 159/159/159 154/154/154
f 160/160/160 159/159/159 155/155/155
f 154/154/154 161/161/161 156/156/156
f 161/161/161 157/157/157 156/156/156
f 159/159/159 161/161/161 154/154/154
f 162/162/162 158/158/158 157/157/157
f 161/161/161 162/162/162 157/157/157
f 162/162/162 163/163/163 158/158/158
f 160/160/160 164/164/164 159/159/159
f 165/165/165 164/164/164 160/160/160
f 159/159/159 166/166/166 161/161/161
f 166/166/166 162/162/162 161/161/161
f 164/164/164 166/166/166 159/159/159
f 167/167/167 163/163/163 162/162/162
f 166/166/166 167/167/167 162/162/162
f 167/167/167 168/168/168 163/163/163
f 165/165/165 169/169/169 164/164/164
f 170/170/170 169/169/169 165/165/165
f 164/164/164 171/171/171 166/166/166
f 171/171/171 167/167/167 166/166/166
f 169/169/169 171/171/171 164/164/164
f 172/172/172 168/168/168 167/167/167
f 171/171/171 172/172/172 167/167/167
f 172/172/172 173/173/173 168/168/168
f 170/170/170 174/174/174 169/169/169
f 175/175/175 174/174/174 170/170/170
f 169/169/169 176/176/176 171/171/171
f 176/176/176 172/172/172 171/171/171
f 174/174/174 176/176/176 169/169/169
f 177/177/177 173/173/173 172/172/172
f 176/176/176 177/177/177 172/172/172
f 177/177/177 178/178/178 173/173/173
f 175/175/175 179/179/179 174/174/174
f 180/180/180 179/179/179 175/175/175
f 174/174/174 181/181/181 176/176/176
f 181/181/181 177/177/177 176/176/176
f 179/179/179 181/181/181 174/174/174
f 182/182/182 178/178/178 177/177/177
f 181/181/181 182/182/182 177/177/177
f 182/182/182 183/183/183 178/178/178
f 180/180/180 184/184/184 179/179/179
f 185/185/185 184/184/184 180/180/180
f 179/179/179 186/186/186 181/181/181
f 186/186/186 182/182/182 181/181/181
f 184/184/184 186/186/186 179/179/179
f 187/187/187 183/183/183 182/182/182
f 186/186/186 187/187/187 182/182/182
f 187/187/187 188/188/188 183/183/183
f 185/185/185 189/189/189 184/184/184
f 190/190/190 189/189/189 185/185/185
f 184/184/184 191/191/191 186/186/186
f 191/191/191 187/187/187 186/186/186
f 189/189/189 191/191/191 184/184/184
f 192/192/192 188/188/188 187/187/187
f 191/191/191 192/192/192 187/187/187
f 192/192/192 193/193/193 188/188/188
f 190/190/190 194/194/194 189/189/189
f 195/195/195 194/194/194 190/190/190
f 189/189/189 196/196/196 191/191/191
f 196/196/196 192/192/192 191/191/191
f 194/194/194 196/196/196 189/189/189
f 197/197/197 193/193/193 192/192/192
f 196/196/196 197/197/197 192/192/192
f 197/197/197 198/198/198 193/193/193
f 195/195/195 199/199/199 194/194/194
f 200/200/200 199/199/199 195/195/195
f 194/194/194 201/201/201 196/196/196
f 201/201/201 197/197/197 196/196/196
f 199/199/199 201/201/201 194/194/194
f 202/202/202 198/198/198 197/197/197
f 201/201/201 202/202/202 197/197/197
f 202/202/202 203/203/203 198/198/198
f 200/200/200 204/204/204 199/199/199
f 205/205/205 204/204/204 200/200/200
f 199/199/199 206/206/206 201/201/201
f 206/206/206 202/202/202 201/201/201
f 204/204/204 206/206/206 199/199/199
f 207/207/207 203/203/203 202/202/202
f 206/206/206 207/207/207 202/202/202
f 207/207/207 208/208/208 203/203/203
f 205/205/205 209/209/209 204/204/204
f 210/210/210 209/209/209 205/205/205
f 204/204/204 211/211/211 206/206/206
f 211/211/211 207/207/207 206/206/206
f 209/209/209 211/211/211 204/204/204
f 212/212/212 208/208/208 207/207/207
f 211/211/211 212/212/212 207/207/207
f 212/212/212 213/213/213 208/208/208
f 210/210/210 214/214/214 209/209/209
f 215/215/215 214/214/214 210/210/210
f 209/209/209 216/216/216 211/211/211
f 216/216/216 212/212/212 211/211/211
f 214/214/214 216/216/216 209/209/209
f 217/217/217 213/213/213 212/212/212
f 216/216/216 217/217/217 212/212/212
f 217/217/217 218/218/218 213/213/213
f 215/215/215 219/219/219 214/214/214
f 220/220/220 219/219/219 215/215/215
f 214/214/214 221/221/221 216/216/216
f 221/221/221 217/217/217 216/216/216
f 219/219/219 221/221/221 214/214/214
f 222/222/222 218/218/218 217/217/217
f 221/221/221 222/222/222 217/217/217
f 222/222/222 223/223/223 218/218/218
f 220/220/220 224/224/224 219/219/219
f 225/225/225 224/224/224 220/220/220
f 219/219/219 226/226/226 221/221/221
f 226/226/226 222/222/222 221/221/221
f 224/224/224 226/226/226 219/219/219
f 227/227/227 223/223/223 222/222/222
f 226/226/226 227/227/227 222/222/222
f 227/227/227 228/228/228 223/223/223
f 225/225/225 229/229/229 224/224/224
f 230/230/230 229/229/229 225/225/225
f 224/224/224 231/231/231 226/226/226
f 231/231/231 227/227/227 226/226/226
f 229/229/229 231/231/231 224/224/224
f 232/232/232 228/228/228 227/227/227
f 231/231/231 232/232/232 227/227/227
f 232/232/232 233/233/233 228/228/228
f 230/230/230 234/234/234 229/229/229
f 235/235/235 234/234/234 230/230/230
f 229/229/229 236/236/236 231/231/231
f 236/236/236 232/232/232 231/231/231
f 234/234/234 236/236/236 229/229/229
f 237/237/237 233/233/233 232/232/232
f 236/236/236 237/237/237 232/232/232
f 237/237/237 238/238/238 233/233/233
f 235/235/235 239/239/239 234/234/234
f 240/240/240 239/239/239 235/235/235
f 234/234/234 241/241/241 236/236/236
f 241/241/241 237/237/237 236/236/236
f 239/239/239 241/241/241 234/234/234
f 242/242/242 238/238/238 237/237/237
f 241/241/241 242/242/242 237/237/237
f 242/242/242 243/243/243 238/238/238
f 240/240/240 244/244/244 239/239/239
f 245/245/245 244/244/244 240/240/240
f 239/239/239 246/246/246 241/241/241
f 246/246/246 242/242/242 241/241/241
f 244/244/244 246/246/246 239/239/239
f 247/247/247 243/243/243 242/242/242
f 246/246/246 247/247/247 242/242/242
f 247/247/247 248/248/248 243/243/243
f 245/245/245 249/249/249 244/244/244
f 250/250/250 249/249/249 245/245/245
f 244/244/244 251/251/251 246/246/246
f 251/251/251 247/247/247 246/246/246
f 249/249/249 251/251/251 244/244/244
f 252/252/252 248/248/248 247/247/247
f 251/251/251 252/252/252 247/247/247
f 252/252/252 253/253/253 248/248/248
f 250/250/250 254/254/254 249/249/249
f 255/255/255 254/254/254 250/250/250
f 249/249/249 256/256/256 251/251/251
f 256/256/256 252/252/252 251/251/251
f 254/254/254 256/256/256 249/249/249
f 257/257/257 253/253/253 252/252/252
f 256/256/256 257/257/257 252/252/252
f 257/257/257 258/258/258 253/253/253
f 255/255/255 259/259/259 254/254/254
f 260/260/260 259/259/259 255/255/255
f 254/254/254 261/261/261 256/256/256
f 261/261/261 257/257/257 256/256/256
f 259/259/259 261/261/261 254/254/254
f 262/262/262 258/258/258 257/257/257
f 261/261/261 262/262/262 257/257/257
f 262/262/262 263/263/263 258/258/258
f 260/260/260 264/264/264 259/259/259
f 265/265/265 264/264/264 260/260/260
f 259/259/259 266/266/266 261/261/261
f 266/266/266 262/262/262 261/261/261
f 264/264/264 266/266/266 259/259/259
f 267/267/267 263/263/263 262/262/262
f 266/266/266 267/267/267 262/262/262
f 267/267/267 268/268/268 263/263/263
f 265/265/265 269/269/269 264/264/264
f 270/270/270 269/269/269 265/265/265
f 264/264/264 271/271/271 266/266/266
f 271/271/271 267/267/267 266/266/266
f 269/269/269 271/271/271 264/264/264
f 272/272/272 268/268/268 267/267/267
f 271/271/271 272/272/272 267/267/267
f 272/272/272 273/273/273 268/268/268
f 270/270/270 274/274/274 269/269/269
f 275/275/275 274/274/274 270/270/270
f 269/269/269 276/276/276 271/271/271
f 276/276/276 272/272/272 271/271/271
f 274/274/274 276/276/276 269/269/269
f 277/277/277 273/273/273 272/272/272
f 276/276/276 277/277/277 272/272/272
f 277/277/277 278/278/278 273/273/273
f 275/275/275 279/279/279 274/274/274
f 280/280/280 279/279/279 275/275/275
f 274/274/274 281/281/281 276/276/276
f 281/281/281 277/277/277 276/276/276
f 279/279/279 281/281/281 274/274/274
f 282/282/282 278/278/278 277/277/277
f 281/281/281 282/282/282 277/277/277
f 282/282/282 283/283/283 278/278/278
f 280/280/280 284/284/284 279/279/279
f 285/285/285 284/284/284 280/280/280
f 279/279/279 286/286/286 281/281/281
f 286/286/286 282/282/282 281/281/281
f 284/284/284 286/286/286 279/279/279
f 287/287/287 283/283/283 282/282/282
f 286/286/286 287/287/287 282/282/282
f 287/287/287 288/288/288 283/283/283
f 285/285/285 289/289/289 284/284/284
f 290/290/290 289/289/289 285/285/285
f 284/284/284 291/291/291 286/286/286
f 291/291/291 287/287/287 286/286/286
f 289/289/289 291/291/291 284/284/284
f 292/292/292 288/288/288 287/287/287
f 291/291/291 292/292/292 287/287/287
f 292/292/292 293/293/293 288/288/288
f 290/290/290 294/294/294 289/289/289
f 295/295/295 294/294/294 290/290/290
f 295/295/295 296/296/296 294/294/294
f 289/289/289 297/297/297 291/291/291
f 297/297/297 292/292/292 291/291/291
f 294/294/294 297/297/297 289/289/289
f 298/298/298 293/293/293 292/292/292
f 297/297/297 298/298/298 292/292/292
f 298/298/298 299/299/299 293/293/293
f 296/296/296 300/300/300 294/294/294
f 294/294/294 300/300/300 297/297/297
f 300/300/300 298/298/298 297/297/297
f 296/296/296 301/301/301 300/300/300
f 302/302/302 299/299/299 298/298/298
f 300/300/300 302/302/302 298/298/298
f 301/301/301 302/302/302 300/300/300
f 302/302/302 303/303/303 299/299/299
f 301/301/301 304/304/304 302/302/302
f 304/304/304 303/303/303 302/302/302
f 304/304/304 305/305/305 303/303/303
