g Md_CMN_Corn_02
v 0.17460743 -3.1668274E-06 -0.017197218
v 0.49759218 0.9999968 -0.04900839
v 0.17208062 -3.1668274E-06 -0.03422887
v 0.49039248 0.9999968 -0.097544976
v 0.16789743 -3.1668274E-06 -0.050931033
v 0.47847003 0.9999968 -0.14514212
v 0.1620964 -3.1668274E-06 -0.06714256
v 0.4619396 0.9999968 -0.19134149
v 0.1547349 -3.1668274E-06 -0.08270752
v 0.4409605 0.9999968 -0.23569812
v 0.14588344 -3.1668274E-06 -0.09747564
v 0.41573474 0.9999968 -0.27778488
v 0.13562627 -3.1668274E-06 -0.111305356
v 0.3865052 0.9999968 -0.31719643
v 0.12406368 -3.1668274E-06 -0.12406284
v 0.35355338 0.9999968 -0.3535532
v 0.11130554 -3.1668274E-06 -0.13562618
v 0.31719667 0.9999968 -0.386505
v 0.09747591 -3.1668274E-06 -0.14588256
v 0.27778518 0.9999968 -0.4157346
v 0.08270766 -3.1668274E-06 -0.15473478
v 0.23569843 0.9999968 -0.4409604
v 0.067142695 -3.1668274E-06 -0.16209632
v 0.1913418 0.9999968 -0.46193954
v 0.05093119 -3.1668274E-06 -0.16789733
v 0.14514244 0.9999968 -0.47846994
v 0.03422911 -3.1668274E-06 -0.17208052
v 0.097545266 0.9999968 -0.49039248
v 0.017197387 -3.1668274E-06 -0.1746073
v 0.049008694 0.9999968 -0.49759224
v 8.7009454E-08 -3.1668274E-06 -0.17545189
v 1.4156103E-07 0.9999968 -0.49999985
v -0.017197227 -3.1668274E-06 -0.1746073
v -0.049008418 0.9999968 -0.49759224
v -0.03422891 -3.1668274E-06 -0.17208052
v -0.097545005 0.9999968 -0.49039254
v -0.050931014 -3.1668274E-06 -0.16789733
v -0.14514217 0.9999968 -0.47847006
v -0.06714254 -3.1668274E-06 -0.16209635
v -0.19134155 0.9999968 -0.46193966
v -0.08270751 -3.1668274E-06 -0.15473482
v -0.23569818 0.9999968 -0.44096056
v -0.0974757 -3.1668274E-06 -0.14588256
v -0.27778494 0.9999968 -0.41573477
v -0.11130538 -3.1668274E-06 -0.1356262
v -0.3171965 0.9999968 -0.3865052
v -0.12406282 -3.1668274E-06 -0.12406284
v -0.35355324 0.9999968 -0.35355335
v -0.13562617 -3.1668274E-06 -0.11130548
v -0.38650504 0.9999968 -0.31719664
v -0.14588332 -3.1668274E-06 -0.09747581
v -0.41573465 0.9999968 -0.27778512
v -0.15473478 -3.1668274E-06 -0.08270757
v -0.4409605 0.9999968 -0.23569839
v -0.16209632 -3.1668274E-06 -0.06714266
v -0.4619396 0.9999968 -0.19134174
v -0.16789731 -3.1668274E-06 -0.050931096
v -0.47847003 0.9999968 -0.14514239
v -0.17208052 -3.1668274E-06 -0.03422904
v -0.49039248 0.9999968 -0.09754522
v -0.1746073 -3.1668274E-06 -0.017197309
v -0.49759224 0.9999968 -0.049008645
v -0.17545189 -3.1668274E-06 -6.079781E-09
v -0.49999988 0.9999968 -8.940697E-08
v -0.1746073 -3.1668274E-06 0.017197298
v -0.49759227 0.9999968 0.04900847
v -0.17208052 -3.1668274E-06 0.03422896
v -0.49039257 0.9999968 0.09754506
v -0.16789731 -3.1668274E-06 0.05093111
v -0.47847006 0.9999968 0.14514221
v -0.16209632 -3.1668274E-06 0.067142636
v -0.46193966 0.9999968 0.19134161
v -0.15473482 -3.1668274E-06 0.082707606
v -0.44096056 0.9999968 0.23569825
v -0.14588332 -3.1668274E-06 0.09747578
v -0.41573477 0.9999968 0.277785
v -0.13562618 -3.1668274E-06 0.11130544
v -0.3865052 0.9999968 0.31719655
v -0.12406357 -3.1668274E-06 0.12406366
v -0.35355335 0.9999968 0.3535533
v -0.111305505 -3.1668274E-06 0.13562626
v -0.31719664 0.9999968 0.38650513
v -0.0974758 -3.1668274E-06 0.14588264
v -0.27778512 0.9999968 0.4157347
v -0.08270755 -3.1668274E-06 0.15473485
v -0.23569837 0.9999968 0.44096053
v -0.06714257 -3.1668274E-06 0.16209643
v -0.19134171 0.9999968 0.46193966
v -0.050931077 -3.1668274E-06 0.16789742
v -0.14514235 0.9999968 0.47847006
v -0.034229003 -3.1668274E-06 0.17208059
v -0.09754518 0.9999968 0.49039257
v -0.017197276 -3.1668274E-06 0.17460738
v -0.049008597 0.9999968 0.4975923
v 2.5570184E-08 -3.1668274E-06 0.17545196
v -3.3527613E-08 0.9999968 0.4999999
v 0.017197346 -3.1668274E-06 0.17460738
v 0.04900853 0.9999968 0.4975923
v 0.03422903 -3.1668274E-06 0.17208059
v 0.09754512 0.9999968 0.4903926
v 0.05093113 -3.1668274E-06 0.16789742
v 0.14514227 0.9999968 0.47847012
v 0.06714266 -3.1668274E-06 0.16209643
v 0.19134167 0.9999968 0.4619397
v 0.08270762 -3.1668274E-06 0.15473485
v 0.23569831 0.9999968 0.44096062
v 0.09747581 -3.1668274E-06 0.14588264
v 0.27778506 0.9999968 0.41573483
v 0.11130549 -3.1668274E-06 0.13562626
v 0.3171966 0.9999968 0.3865052
v 0.12406368 -3.1668274E-06 0.12406292
v 0.35355335 0.9999968 0.35355338
v 0.13562627 -3.1668274E-06 0.11130552
v 0.3865052 0.9999968 0.31719664
v 0.14588344 -3.1668274E-06 0.09747588
v 0.41573477 0.9999968 0.27778512
v 0.1547349 -3.1668274E-06 0.08270763
v 0.44096062 0.9999968 0.23569837
v 0.16209644 -3.1668274E-06 0.067142665
v 0.46193972 0.9999968 0.19134171
v 0.16789743 -3.1668274E-06 0.050931133
v 0.47847015 0.9999968 0.14514235
v 0.17208062 -3.1668274E-06 0.034229025
v 0.4903926 0.9999968 0.09754516
v 0.17460743 -3.1668274E-06 0.017197354
v 0.49759233 0.9999968 0.049008567
v 0.175452 -3.1668274E-06 2.5293422E-08
v 0.5 0.9999968 0
v 0.17460743 -3.1668274E-06 -0.017197218
v 0.49759218 0.9999968 -0.04900839
vt 0 0.00024046656
vt 0 0.9998429
vt 0.015624911 0.00024046656
vt 0.015624911 0.9998429
vt 0.03125 0.00024046656
vt 0.03125 0.9998429
vt 0.04687497 0.00024046656
vt 0.04687497 0.9998429
vt 0.06249997 0.00024046656
vt 0.06249997 0.9998429
vt 0.07812494 0.00024046656
vt 0.07812494 0.9998429
vt 0.09375 0.00024046656
vt 0.09375 0.9998429
vt 0.10937497 0.00024046656
vt 0.10937497 0.9998429
vt 0.12499997 0.00024046656
vt 0.12499997 0.9998429
vt 0.14062497 0.00024046656
vt 0.14062497 0.9998429
vt 0.15624997 0.00024046656
vt 0.15624997 0.9998429
vt 0.17187497 0.00024046656
vt 0.17187497 0.9998429
vt 0.18749997 0.00024046656
vt 0.18749997 0.9998429
vt 0.20312494 0.00024046656
vt 0.20312494 0.9998429
vt 0.21874997 0.00024046656
vt 0.21874997 0.9998429
vt 0.23437497 0.00024046656
vt 0.23437497 0.9998429
vt 0.25 0.00024046656
vt 0.25 0.9998429
vt 0.265625 0.00024046656
vt 0.265625 0.9998429
vt 0.28124997 0.00024046656
vt 0.28124997 0.9998429
vt 0.29687494 0.00024046656
vt 0.29687494 0.9998429
vt 0.31249994 0.00024046656
vt 0.31249994 0.9998429
vt 0.328125 0.00024046656
vt 0.328125 0.9998429
vt 0.34374997 0.00024046656
vt 0.34374997 0.9998429
vt 0.359375 0.00024046656
vt 0.359375 0.9998429
vt 0.375 0.00024046656
vt 0.375 0.9998429
vt 0.390625 0.00024046656
vt 0.390625 0.9998429
vt 0.40624997 0.00024046656
vt 0.40624997 0.9998429
vt 0.421875 0.00024046656
vt 0.421875 0.9998429
vt 0.4375 0.00024046656
vt 0.4375 0.9998429
vt 0.453125 0.00024046656
vt 0.453125 0.9998429
vt 0.46874997 0.00024046656
vt 0.46874997 0.9998429
vt 0.484375 0.00024046656
vt 0.484375 0.9998429
vt 0.5 0.00024046656
vt 0.5 0.9998429
vt 0.515625 0.00024046656
vt 0.515625 0.9998429
vt 0.53125 0.00024046656
vt 0.53125 0.9998429
vt 0.54687494 0.00024046656
vt 0.54687494 0.9998429
vt 0.56250006 0.00024046656
vt 0.56250006 0.9998429
vt 0.5781251 0.00024046656
vt 0.5781251 0.9998429
vt 0.59375 0.00024046656
vt 0.59375 0.9998429
vt 0.609375 0.00024046656
vt 0.609375 0.9998429
vt 0.625 0.00024046656
vt 0.625 0.9998429
vt 0.640625 0.00024046656
vt 0.640625 0.9998429
vt 0.65625 0.00024046656
vt 0.65625 0.9998429
vt 0.6718749 0.00024046656
vt 0.6718749 0.9998429
vt 0.68750006 0.00024046656
vt 0.68750006 0.9998429
vt 0.7031251 0.00024046656
vt 0.7031251 0.9998429
vt 0.71875 0.00024046656
vt 0.71875 0.9998429
vt 0.734375 0.00024046656
vt 0.734375 0.9998429
vt 0.75 0.00024046656
vt 0.75 0.9998429
vt 0.7656251 0.00024046656
vt 0.7656251 0.9998429
vt 0.78125 0.00024046656
vt 0.78125 0.9998429
vt 0.796875 0.00024046656
vt 0.796875 0.9998429
vt 0.81250006 0.00024046656
vt 0.81250006 0.9998429
vt 0.828125 0.00024046656
vt 0.828125 0.9998429
vt 0.84375 0.00024046656
vt 0.84375 0.9998429
vt 0.859375 0.00024046656
vt 0.859375 0.9998429
vt 0.8750001 0.00024046656
vt 0.8750001 0.9998429
vt 0.890625 0.00024046656
vt 0.890625 0.9998429
vt 0.9062501 0.00024046656
vt 0.9062501 0.9998429
vt 0.921875 0.00024046656
vt 0.921875 0.9998429
vt 0.93750006 0.00024046656
vt 0.93750006 0.9998429
vt 0.953125 0.00024046656
vt 0.953125 0.9998429
vt 0.96875 0.00024046656
vt 0.96875 0.9998429
vt 0.9843751 0.00024046656
vt 0.9843751 0.9998429
vt 0.99998313 0.00024046656
vt 0.99998313 0.9998429
vn 0.9467006 -0.30869684 -0.09200132
vn 0.9465958 -0.30869696 -0.09307249
vn 0.93312573 -0.30869645 -0.18434455
vn 0.9329154 -0.30869702 -0.18540527
vn 0.9105627 -0.30869707 -0.27492115
vn 0.9102502 -0.308697 -0.27595446
vn 0.87922835 -0.30869645 -0.36285517
vn 0.87881887 -0.30869702 -0.36384562
vn 0.839436 -0.30869702 -0.4472733
vn 0.8389246 -0.30869687 -0.44823188
vn 0.791546 -0.30869696 -0.5274098
vn 0.79095054 -0.3086969 -0.52830243
vn 0.7360398 -0.30869672 -0.6024548
vn 0.7353588 -0.3086971 -0.60328573
vn 0.6734484 -0.30869684 -0.67169446
vn 0.6726852 -0.30869725 -0.6724587
vn 0.6043616 -0.30869654 -0.7344751
vn 0.6035336 -0.30869728 -0.7351551
vn 0.529467 -0.30869687 -0.79017156
vn 0.52857006 -0.3086971 -0.7907716
vn 0.44946992 -0.3086975 -0.8382617
vn 0.44851577 -0.30869702 -0.83877283
vn 0.36514258 -0.3086968 -0.87828076
vn 0.36414212 -0.30869693 -0.878696
vn 0.27728787 -0.30869725 -0.9098447
vn 0.27626187 -0.30869693 -0.91015697
vn 0.18677394 -0.30869657 -0.93264246
vn 0.18571994 -0.3086971 -0.9328528
vn 0.0944661 -0.30869707 -0.9464578
vn 0.093389034 -0.30869704 -0.9465646
vn 0.0012381119 -0.3086966 -0.9511598
vn 0.00016014776 -0.30869707 -0.95116043
vn -0.09200156 -0.30869693 -0.9467005
vn -0.0930704 -0.30869713 -0.946596
vn -0.18434474 -0.30869666 -0.9331256
vn -0.18540487 -0.30869707 -0.9329154
vn -0.27492127 -0.30869713 -0.9105626
vn -0.27595374 -0.3086971 -0.91025025
vn -0.36285573 -0.3086963 -0.8792282
vn -0.3638449 -0.30869713 -0.8788191
vn -0.44728938 -0.3086973 -0.83942735
vn -0.44823247 -0.30869707 -0.8389241
vn -0.52740824 -0.30869716 -0.791547
vn -0.5283028 -0.3086973 -0.7909502
vn -0.60245615 -0.3086975 -0.7360383
vn -0.6032858 -0.30869743 -0.7353585
vn -0.6716955 -0.30869687 -0.6734473
vn -0.6724589 -0.30869743 -0.672685
vn -0.73445636 -0.3086975 -0.60438377
vn -0.7351553 -0.30869707 -0.6035336
vn -0.79017115 -0.3086968 -0.52946746
vn -0.7907718 -0.3086971 -0.5285698
vn -0.838269 -0.30869663 -0.449457
vn -0.8387731 -0.30869716 -0.448515
vn -0.8782802 -0.30869702 -0.36514387
vn -0.8786963 -0.30869704 -0.36414132
vn -0.909844 -0.3086971 -0.27729052
vn -0.91015714 -0.3086971 -0.2762606
vn -0.9326423 -0.3086967 -0.18677428
vn -0.9328528 -0.30869707 -0.18571961
vn -0.9464579 -0.3086973 -0.09446355
vn -0.9465646 -0.30869704 -0.09338996
vn -0.9511598 -0.30869666 -0.0012375994
vn -0.95116043 -0.3086971 -0.00016065397
vn -0.9467005 -0.30869704 0.092001624
vn -0.946596 -0.30869713 0.09307005
vn -0.9331252 -0.30869657 0.18434662
vn -0.9329154 -0.30869707 0.18540494
vn -0.9105626 -0.30869722 0.27492142
vn -0.9102502 -0.308697 0.27595434
vn -0.87922853 -0.30869654 0.3628549
vn -0.87881905 -0.30869707 0.363845
vn -0.839436 -0.3086972 0.44727322
vn -0.83892447 -0.30869702 0.4482319
vn -0.79154575 -0.30869722 0.52741
vn -0.7909501 -0.3086972 0.528303
vn -0.7360462 -0.30869684 0.6024469
vn -0.7353584 -0.308697 0.6032861
vn -0.673449 -0.3086972 0.6716936
vn -0.67268497 -0.308697 0.67245907
vn -0.6043511 -0.30869627 0.7344838
vn -0.60353327 -0.3086974 0.73515546
vn -0.5294676 -0.3086967 0.79017127
vn -0.52856946 -0.30869737 0.79077196
vn -0.44947162 -0.3086973 0.83826077
vn -0.44851524 -0.3086971 0.8387731
vn -0.3651428 -0.30869716 0.8782806
vn -0.36414158 -0.30869687 0.8786962
vn -0.27729023 -0.30869734 0.909844
vn -0.2762606 -0.30869702 0.91015726
vn -0.18677613 -0.30869642 0.93264204
vn -0.18571901 -0.30869713 0.9328529
vn -0.09446611 -0.30869707 0.9464578
vn -0.09338901 -0.30869704 0.9465646
vn -0.0012381085 -0.30869663 0.9511598
vn -0.00016015251 -0.30869707 0.95116043
vn 0.09200022 -0.30869696 0.9467007
vn 0.093070395 -0.30869716 0.946596
vn 0.18434478 -0.30869657 0.9331256
vn 0.18540578 -0.30869707 0.9329153
vn 0.2749202 -0.3086972 0.910563
vn 0.27595547 -0.30869693 0.91024977
vn 0.3628537 -0.30869675 0.87922895
vn 0.36384526 -0.30869716 0.8788189
vn 0.44728938 -0.30869687 0.8394274
vn 0.44823173 -0.30869734 0.83892447
vn 0.52740926 -0.3086962 0.79154664
vn 0.52830327 -0.3086974 0.7909498
vn 0.6024464 -0.308697 0.73604655
vn 0.60328615 -0.30869725 0.7353583
vn 0.6716949 -0.30869707 0.6734479
vn 0.6724588 -0.3086972 0.672685
vn 0.7344659 -0.30869728 0.60437226
vn 0.73515534 -0.308697 0.6035335
vn 0.7901711 -0.30869693 0.52946746
vn 0.7907719 -0.30869696 0.52856964
vn 0.8382694 -0.30869654 0.44945616
vn 0.83877325 -0.30869707 0.448515
vn 0.8782802 -0.30869728 0.36514363
vn 0.87869644 -0.3086969 0.36414132
vn 0.909844 -0.30869722 0.27729037
vn 0.91015726 -0.308697 0.27626055
vn 0.9326424 -0.3086965 0.18677443
vn 0.9328528 -0.30869704 0.18571953
vn 0.9464579 -0.3086971 0.094463654
vn 0.9465646 -0.30869702 0.09338992
vn 0.9511598 -0.3086966 0.0012376042
vn 0.95116043 -0.308697 0.00015887062
vn 0.9467006 -0.30869684 -0.09200132
vn 0.9465958 -0.30869696 -0.09307249
g Md_CMN_Corn_02_0
f 3/3/3 2/2/2 1/1/1
f 3/3/3 4/4/4 2/2/2
f 5/5/5 4/4/4 3/3/3
f 5/5/5 6/6/6 4/4/4
f 7/7/7 6/6/6 5/5/5
f 7/7/7 8/8/8 6/6/6
f 9/9/9 8/8/8 7/7/7
f 9/9/9 10/10/10 8/8/8
f 11/11/11 10/10/10 9/9/9
f 11/11/11 12/12/12 10/10/10
f 13/13/13 12/12/12 11/11/11
f 13/13/13 14/14/14 12/12/12
f 15/15/15 14/14/14 13/13/13
f 15/15/15 16/16/16 14/14/14
f 17/17/17 16/16/16 15/15/15
f 17/17/17 18/18/18 16/16/16
f 19/19/19 18/18/18 17/17/17
f 19/19/19 20/20/20 18/18/18
f 21/21/21 20/20/20 19/19/19
f 21/21/21 22/22/22 20/20/20
f 23/23/23 22/22/22 21/21/21
f 23/23/23 24/24/24 22/22/22
f 25/25/25 24/24/24 23/23/23
f 25/25/25 26/26/26 24/24/24
f 27/27/27 26/26/26 25/25/25
f 27/27/27 28/28/28 26/26/26
f 29/29/29 28/28/28 27/27/27
f 29/29/29 30/30/30 28/28/28
f 31/31/31 30/30/30 29/29/29
f 31/31/31 32/32/32 30/30/30
f 33/33/33 32/32/32 31/31/31
f 33/33/33 34/34/34 32/32/32
f 35/35/35 34/34/34 33/33/33
f 35/35/35 36/36/36 34/34/34
f 37/37/37 36/36/36 35/35/35
f 37/37/37 38/38/38 36/36/36
f 39/39/39 38/38/38 37/37/37
f 39/39/39 40/40/40 38/38/38
f 41/41/41 40/40/40 39/39/39
f 41/41/41 42/42/42 40/40/40
f 43/43/43 42/42/42 41/41/41
f 43/43/43 44/44/44 42/42/42
f 45/45/45 44/44/44 43/43/43
f 45/45/45 46/46/46 44/44/44
f 47/47/47 46/46/46 45/45/45
f 47/47/47 48/48/48 46/46/46
f 49/49/49 48/48/48 47/47/47
f 49/49/49 50/50/50 48/48/48
f 51/51/51 50/50/50 49/49/49
f 51/51/51 52/52/52 50/50/50
f 53/53/53 52/52/52 51/51/51
f 53/53/53 54/54/54 52/52/52
f 55/55/55 54/54/54 53/53/53
f 55/55/55 56/56/56 54/54/54
f 57/57/57 56/56/56 55/55/55
f 57/57/57 58/58/58 56/56/56
f 59/59/59 58/58/58 57/57/57
f 59/59/59 60/60/60 58/58/58
f 61/61/61 60/60/60 59/59/59
f 61/61/61 62/62/62 60/60/60
f 63/63/63 62/62/62 61/61/61
f 63/63/63 64/64/64 62/62/62
f 65/65/65 64/64/64 63/63/63
f 65/65/65 66/66/66 64/64/64
f 67/67/67 66/66/66 65/65/65
f 67/67/67 68/68/68 66/66/66
f 69/69/69 68/68/68 67/67/67
f 69/69/69 70/70/70 68/68/68
f 71/71/71 70/70/70 69/69/69
f 71/71/71 72/72/72 70/70/70
f 73/73/73 72/72/72 71/71/71
f 73/73/73 74/74/74 72/72/72
f 75/75/75 74/74/74 73/73/73
f 75/75/75 76/76/76 74/74/74
f 77/77/77 76/76/76 75/75/75
f 77/77/77 78/78/78 76/76/76
f 79/79/79 78/78/78 77/77/77
f 79/79/79 80/80/80 78/78/78
f 81/81/81 80/80/80 79/79/79
f 81/81/81 82/82/82 80/80/80
f 83/83/83 82/82/82 81/81/81
f 83/83/83 84/84/84 82/82/82
f 85/85/85 84/84/84 83/83/83
f 85/85/85 86/86/86 84/84/84
f 87/87/87 86/86/86 85/85/85
f 87/87/87 88/88/88 86/86/86
f 89/89/89 88/88/88 87/87/87
f 89/89/89 90/90/90 88/88/88
f 91/91/91 90/90/90 89/89/89
f 91/91/91 92/92/92 90/90/90
f 93/93/93 92/92/92 91/91/91
f 93/93/93 94/94/94 92/92/92
f 95/95/95 94/94/94 93/93/93
f 95/95/95 96/96/96 94/94/94
f 97/97/97 96/96/96 95/95/95
f 97/97/97 98/98/98 96/96/96
f 99/99/99 98/98/98 97/97/97
f 99/99/99 100/100/100 98/98/98
f 101/101/101 100/100/100 99/99/99
f 101/101/101 102/102/102 100/100/100
f 103/103/103 102/102/102 101/101/101
f 103/103/103 104/104/104 102/102/102
f 105/105/105 104/104/104 103/103/103
f 105/105/105 106/106/106 104/104/104
f 107/107/107 106/106/106 105/105/105
f 107/107/107 108/108/108 106/106/106
f 109/109/109 108/108/108 107/107/107
f 109/109/109 110/110/110 108/108/108
f 111/111/111 110/110/110 109/109/109
f 111/111/111 112/112/112 110/110/110
f 113/113/113 112/112/112 111/111/111
f 113/113/113 114/114/114 112/112/112
f 115/115/115 114/114/114 113/113/113
f 115/115/115 116/116/116 114/114/114
f 117/117/117 116/116/116 115/115/115
f 117/117/117 118/118/118 116/116/116
f 119/119/119 118/118/118 117/117/117
f 119/119/119 120/120/120 118/118/118
f 121/121/121 120/120/120 119/119/119
f 121/121/121 122/122/122 120/120/120
f 123/123/123 122/122/122 121/121/121
f 123/123/123 124/124/124 122/122/122
f 125/125/125 124/124/124 123/123/123
f 125/125/125 126/126/126 124/124/124
f 127/127/127 126/126/126 125/125/125
f 127/127/127 128/128/128 126/126/126
f 129/129/129 128/128/128 127/127/127
f 129/129/129 130/130/130 128/128/128
