g Md_CMN_Circle_08
v -0.41573465 -4.2535955E-08 -0.27778512
v -0.27715644 -4.2535955E-08 -0.18519008
v -0.4409605 -4.2535955E-08 -0.23569839
v -0.29397368 -4.2535955E-08 -0.15713225
v -0.12499181 -4.2535955E-08 -0.083516866
v -0.4619396 -4.2535955E-08 -0.19134174
v -0.13257603 -4.2535955E-08 -0.07086339
v -0.30795977 -4.2535955E-08 -0.12756118
v -0.47847003 -4.2535955E-08 -0.14514239
v -0.13888346 -4.2535955E-08 -0.057527456
v -0.31898004 -4.2535955E-08 -0.0967616
v -0.49039248 -4.2535955E-08 -0.09754522
v -0.14385332 -4.2535955E-08 -0.043637473
v -0.32692736 -4.2535955E-08 -0.06503015
v -0.49759224 -4.2535955E-08 -0.049008645
v -0.14743778 -4.2535955E-08 -0.029327247
v -0.33172718 -4.2535955E-08 -0.03267243
v -0.49999988 -4.2535955E-08 -8.940697E-08
v -0.14960252 -4.2535955E-08 -0.014734581
v -0.33333233 -4.2535955E-08 -5.9604645E-08
v -0.49759227 -4.2535955E-08 0.04900847
v -0.15032627 -4.2535955E-08 -2.541952E-08
v -0.33172816 -4.2535955E-08 0.032672312
v -0.49039257 -4.2535955E-08 0.09754506
v -0.14960252 -4.2535955E-08 0.014734535
v -0.32692745 -4.2535955E-08 0.06503004
v -0.47847006 -4.2535955E-08 0.14514221
v -0.14743781 -4.2535955E-08 0.029327175
v -0.31898007 -4.2535955E-08 0.096761495
v -0.46193966 -4.2535955E-08 0.19134161
v -0.14385335 -4.2535955E-08 0.04363743
v -0.30795977 -4.2535955E-08 0.12756108
v -0.44096056 -4.2535955E-08 0.23569825
v -0.13888346 -4.2535955E-08 0.057527397
v -0.29397374 -4.2535955E-08 0.15713218
v -0.41573477 -4.2535955E-08 0.277785
v -0.13257606 -4.2535955E-08 0.070863344
v -0.27715653 -4.2535955E-08 0.18519
v -0.3865052 -4.2535955E-08 0.31719655
v -0.124991834 -4.2535955E-08 0.083516866
v -0.25767013 -4.2535955E-08 0.21146436
v -0.35355335 -4.2535955E-08 0.3535533
v -0.11620389 -4.2535955E-08 0.095366046
v -0.23570225 -4.2535955E-08 0.2357022
v -0.31719664 -4.2535955E-08 0.38650513
v -0.10629683 -4.2535955E-08 0.106296815
v -0.21146443 -4.2535955E-08 0.2576701
v -0.27778512 -4.2535955E-08 0.4157347
v -0.09536607 -4.2535955E-08 0.11620393
v -0.18519008 -4.2535955E-08 0.27715647
v -0.23569837 -4.2535955E-08 0.44096053
v -0.08351685 -4.2535955E-08 0.12499184
v -0.15713225 -4.2535955E-08 0.2939737
v -0.19134171 -4.2535955E-08 0.46193966
v -0.07086338 -4.2535955E-08 0.13257605
v -0.12756115 -4.2535955E-08 0.30795977
v -0.14514235 -4.2535955E-08 0.47847006
v -0.05752744 -4.2535955E-08 0.13888347
v -0.09676157 -4.2535955E-08 0.31898007
v -0.09754518 -4.2535955E-08 0.49039257
v -0.04363747 -4.2535955E-08 0.14385335
v -0.06503012 -4.2535955E-08 0.32692745
v -0.049008597 -4.2535955E-08 0.4975923
v -0.029327232 -4.2535955E-08 0.14743784
v -0.032672398 -4.2535955E-08 0.3317282
v -3.3527613E-08 -4.2535955E-08 0.4999999
v -0.014734571 -4.2535955E-08 0.14960255
v -2.2351742E-08 -4.2535955E-08 0.3333333
v 0.04900853 -4.2535955E-08 0.4975923
v -7.88877E-09 -4.2535955E-08 0.1503263
v 0.032672353 -4.2535955E-08 0.3317282
v 0.09754512 -4.2535955E-08 0.4903926
v 0.014734554 -4.2535955E-08 0.14960255
v 0.06503008 -4.2535955E-08 0.32692745
v 0.14514227 -4.2535955E-08 0.47847012
v 0.02932721 -4.2535955E-08 0.14743784
v 0.09676153 -4.2535955E-08 0.3189801
v 0.19134167 -4.2535955E-08 0.4619397
v 0.043637443 -4.2535955E-08 0.14385335
v 0.12756112 -4.2535955E-08 0.30795982
v 0.23569831 -4.2535955E-08 0.44096062
v 0.057527415 -4.2535955E-08 0.13888349
v 0.15713221 -4.2535955E-08 0.29397374
v 0.27778506 -4.2535955E-08 0.41573483
v 0.070863344 -4.2535955E-08 0.13257606
v 0.18519004 -4.2535955E-08 0.27715653
v 0.3171966 -4.2535955E-08 0.3865052
v 0.08351688 -4.2535955E-08 0.12499184
v 0.21146438 -4.2535955E-08 0.25767016
v 0.35355335 -4.2535955E-08 0.35355338
v 0.095366105 -4.2535955E-08 0.11620393
v 0.23570225 -4.2535955E-08 0.23570226
v 0.3865052 -4.2535955E-08 0.31719664
v 0.10629682 -4.2535955E-08 0.106296845
v 0.25767013 -4.2535955E-08 0.21146443
v 0.41573477 -4.2535955E-08 0.27778512
v 0.116203934 -4.2535955E-08 0.095366105
v 0.27715653 -4.2535955E-08 0.18519008
v 0.44096062 -4.2535955E-08 0.23569837
v 0.12499186 -4.2535955E-08 0.08351689
v 0.29397374 -4.2535955E-08 0.15713225
v 0.46193972 -4.2535955E-08 0.19134171
v 0.13257608 -4.2535955E-08 0.070863344
v 0.30795982 -4.2535955E-08 0.12756115
v 0.47847015 -4.2535955E-08 0.14514235
v 0.1388835 -4.2535955E-08 0.05752743
v 0.3189801 -4.2535955E-08 0.09676157
v 0.4903926 -4.2535955E-08 0.09754516
v 0.14385335 -4.2535955E-08 0.04363747
v 0.32692844 -4.2535955E-08 0.06503011
v 0.49759233 -4.2535955E-08 0.049008567
v 0.14743784 -4.2535955E-08 0.029327236
v 0.33172825 -4.2535955E-08 0.032672383
v 0.5 -4.2535955E-08 0
v 0.14960255 -4.2535955E-08 0.014734568
v 0.33333334 -4.2535955E-08 0
v 0.49759218 -4.2535955E-08 -0.04900839
v 0.15032631 -4.2535955E-08 1.4609338E-09
v 0.33172813 -4.2535955E-08 -0.032672264
v 0.49039248 -4.2535955E-08 -0.097544976
v 0.14960249 -4.2535955E-08 -0.0147345085
v 0.32692832 -4.2535955E-08 -0.06502998
v 0.14743784 -4.2535955E-08 -0.029327147
vt 0 0.0027940273
vt 0 0.49882555
vt 0.025 0.0027940273
vt 0.024999999 0.49882555
vt 0 0.99720585
vt 0.05 0.0027940273
vt 0.024999999 0.99720585
vt 0.049999997 0.49882555
vt 0.075 0.0027940273
vt 0.049999997 0.99720585
vt 0.074999996 0.49882555
vt 0.1 0.0027940273
vt 0.074999996 0.99720585
vt 0.099999994 0.49882555
vt 0.125 0.0027940273
vt 0.099999994 0.99720585
vt 0.125 0.49882555
vt 0.15 0.0027940273
vt 0.125 0.99720585
vt 0.15 0.49882555
vt 0.17500001 0.0027940273
vt 0.15 0.99720585
vt 0.17500001 0.49882555
vt 0.20000002 0.0027940273
vt 0.17500001 0.99720585
vt 0.20000002 0.49882555
vt 0.22500002 0.0027940273
vt 0.20000002 0.99720585
vt 0.22500002 0.49882555
vt 0.25000003 0.0027940273
vt 0.22500002 0.99720585
vt 0.25 0.49882555
vt 0.27500004 0.0027940273
vt 0.25000003 0.99720585
vt 0.27499998 0.49882555
vt 0.30000004 0.0027940273
vt 0.27500004 0.99720585
vt 0.29999995 0.49882555
vt 0.32500005 0.0027940273
vt 0.3 0.99720585
vt 0.32499993 0.49882555
vt 0.35000005 0.0027940273
vt 0.325 0.99720585
vt 0.3499999 0.49882555
vt 0.37500006 0.0027940273
vt 0.34999996 0.99720585
vt 0.3749999 0.49882555
vt 0.40000007 0.0027940273
vt 0.37499997 0.99720585
vt 0.39999992 0.49882555
vt 0.42500007 0.0027940273
vt 0.39999998 0.99720585
vt 0.42499992 0.49882555
vt 0.45000008 0.0027940273
vt 0.42499998 0.99720585
vt 0.44999993 0.49882555
vt 0.47500008 0.0027940273
vt 0.45 0.99720585
vt 0.47499993 0.49882555
vt 0.50000006 0.0027940273
vt 0.475 0.99720585
vt 0.49999994 0.49882555
vt 0.52500004 0.0027940273
vt 0.5 0.99720585
vt 0.5249999 0.49882555
vt 0.55 0.0027940273
vt 0.525 0.99720585
vt 0.5499999 0.49882555
vt 0.575 0.0027940273
vt 0.54999995 0.99720585
vt 0.57499987 0.49882555
vt 0.59999996 0.0027940273
vt 0.5749999 0.99720585
vt 0.59999985 0.49882555
vt 0.62499994 0.0027940273
vt 0.5999999 0.99720585
vt 0.6249998 0.49882555
vt 0.6499999 0.0027940273
vt 0.6249999 0.99720585
vt 0.6499998 0.49882555
vt 0.6749999 0.0027940273
vt 0.64999986 0.99720585
vt 0.6749998 0.49882555
vt 0.69999987 0.0027940273
vt 0.67499983 0.99720585
vt 0.69999975 0.49882555
vt 0.72499985 0.0027940273
vt 0.6999998 0.99720585
vt 0.7249997 0.49882555
vt 0.7499998 0.0027940273
vt 0.7249998 0.99720585
vt 0.7499997 0.49882555
vt 0.7749998 0.0027940273
vt 0.74999976 0.99720585
vt 0.7749997 0.49882555
vt 0.7999998 0.0027940273
vt 0.77499974 0.99720585
vt 0.79999965 0.49882555
vt 0.82499975 0.0027940273
vt 0.7999997 0.99720585
vt 0.82499963 0.49882555
vt 0.8499997 0.0027940273
vt 0.8249997 0.99720585
vt 0.8499996 0.49882555
vt 0.8749997 0.0027940273
vt 0.84999967 0.99720585
vt 0.8749996 0.49882555
vt 0.8999997 0.0027940273
vt 0.87499964 0.99720585
vt 0.89999956 0.49882555
vt 0.92499965 0.0027940273
vt 0.8999996 0.99720585
vt 0.92499954 0.49882555
vt 0.94999963 0.0027940273
vt 0.9249996 0.99720585
vt 0.9499995 0.49882555
vt 0.9749996 0.0027940273
vt 0.9499996 0.99720585
vt 0.9749995 0.49882555
vt 0.9999996 0.0027940273
vt 0.97499955 0.99720585
vt 0.99999946 0.49882555
vt 0.9999995 0.99720585
vn -0 1 0
vn -0 1 0
vn -0 1 0
vn -0 1 0
vn -0 1 0
vn -0 1 0
vn -0 1 0
vn -0 1 0
vn -0 1 0
vn -0 1 0
vn -0 1 0
vn -0 1 0
vn -0 1 0
vn -0 1 0
vn -0 1 0
vn -0 1 0
vn -0 1 0
vn -0 1 0
vn -0 1 0
vn -0 1 0
vn -0 1 0
vn -0 1 0
vn -0 1 0
vn -0 1 0
vn -0 1 0
vn -0 1 0
vn -0 1 0
vn -0 1 0
vn -0 1 0
vn -0 1 0
vn -0 1 0
vn -0 1 0
vn -0 1 0
vn -0 1 0
vn -0 1 0
vn -0 1 0
vn -0 1 0
vn -0 1 0
vn -0 1 0
vn -0 1 0
vn -0 1 0
vn -0 1 0
vn -0 1 0
vn -0 1 0
vn -0 1 0
vn -0 1 0
vn -0 1 0
vn -0 1 0
vn -0 1 0
vn -0 1 0
vn -0 1 0
vn -0 1 0
vn -0 1 0
vn -0 1 0
vn -0 1 0
vn -0 1 0
vn -0 1 0
vn -0 1 0
vn -0 1 0
vn -0 1 0
vn -0 1 0
vn -0 1 0
vn -0 1 0
vn -0 1 0
vn -0 1 0
vn -0 1 0
vn -0 1 0
vn -0 1 0
vn -0 1 0
vn -0 1 0
vn -0 1 0
vn -0 1 0
vn -0 1 0
vn -0 1 0
vn -0 1 0
vn -0 1 0
vn -0 1 0
vn -0 1 0
vn -0 1 0
vn -0 1 0
vn -0 1 0
vn -0 1 0
vn -0 1 0
vn -0 1 0
vn -0 1 0
vn -0 1 0
vn -0 1 0
vn -0 1 0
vn -0 1 0
vn -0 1 0
vn -0 1 0
vn -0 1 0
vn -0 1 0
vn -0 1 0
vn -0 1 0
vn -0 1 0
vn -0 1 0
vn -0 1 0
vn -0 1 0
vn -0 1 0
vn -0 1 0
vn -0 1 0
vn -0 1 0
vn -0 1 0
vn -0 1 0
vn -0 1 0
vn -0 1 0
vn -0 1 0
vn -0 1 0
vn -0 1 0
vn -0 1 0
vn -0 1 0
vn -0 1 0
vn -0 1 0
vn -0 1 0
vn -0 1 0
vn -0 1 0
vn -0 1 0
vn -0 1 0
vn -0 1 0
vn -0 1 0
vn -0 1 0
vn -0 1 0
g Md_CMN_Circle_08_0
f 3/3/3 2/2/2 1/1/1
f 3/3/3 4/4/4 2/2/2
f 4/4/4 5/5/5 2/2/2
f 6/6/6 4/4/4 3/3/3
f 4/4/4 7/7/7 5/5/5
f 6/6/6 8/8/8 4/4/4
f 8/8/8 7/7/7 4/4/4
f 9/9/9 8/8/8 6/6/6
f 8/8/8 10/10/10 7/7/7
f 9/9/9 11/11/11 8/8/8
f 11/11/11 10/10/10 8/8/8
f 12/12/12 11/11/11 9/9/9
f 11/11/11 13/13/13 10/10/10
f 12/12/12 14/14/14 11/11/11
f 14/14/14 13/13/13 11/11/11
f 15/15/15 14/14/14 12/12/12
f 14/14/14 16/16/16 13/13/13
f 15/15/15 17/17/17 14/14/14
f 17/17/17 16/16/16 14/14/14
f 18/18/18 17/17/17 15/15/15
f 17/17/17 19/19/19 16/16/16
f 18/18/18 20/20/20 17/17/17
f 20/20/20 19/19/19 17/17/17
f 21/21/21 20/20/20 18/18/18
f 20/20/20 22/22/22 19/19/19
f 21/21/21 23/23/23 20/20/20
f 23/23/23 22/22/22 20/20/20
f 24/24/24 23/23/23 21/21/21
f 23/23/23 25/25/25 22/22/22
f 24/24/24 26/26/26 23/23/23
f 26/26/26 25/25/25 23/23/23
f 27/27/27 26/26/26 24/24/24
f 26/26/26 28/28/28 25/25/25
f 27/27/27 29/29/29 26/26/26
f 29/29/29 28/28/28 26/26/26
f 30/30/30 29/29/29 27/27/27
f 29/29/29 31/31/31 28/28/28
f 30/30/30 32/32/32 29/29/29
f 32/32/32 31/31/31 29/29/29
f 33/33/33 32/32/32 30/30/30
f 32/32/32 34/34/34 31/31/31
f 33/33/33 35/35/35 32/32/32
f 35/35/35 34/34/34 32/32/32
f 36/36/36 35/35/35 33/33/33
f 35/35/35 37/37/37 34/34/34
f 36/36/36 38/38/38 35/35/35
f 38/38/38 37/37/37 35/35/35
f 39/39/39 38/38/38 36/36/36
f 38/38/38 40/40/40 37/37/37
f 39/39/39 41/41/41 38/38/38
f 41/41/41 40/40/40 38/38/38
f 42/42/42 41/41/41 39/39/39
f 41/41/41 43/43/43 40/40/40
f 42/42/42 44/44/44 41/41/41
f 44/44/44 43/43/43 41/41/41
f 45/45/45 44/44/44 42/42/42
f 44/44/44 46/46/46 43/43/43
f 45/45/45 47/47/47 44/44/44
f 47/47/47 46/46/46 44/44/44
f 48/48/48 47/47/47 45/45/45
f 47/47/47 49/49/49 46/46/46
f 48/48/48 50/50/50 47/47/47
f 50/50/50 49/49/49 47/47/47
f 51/51/51 50/50/50 48/48/48
f 50/50/50 52/52/52 49/49/49
f 51/51/51 53/53/53 50/50/50
f 53/53/53 52/52/52 50/50/50
f 54/54/54 53/53/53 51/51/51
f 53/53/53 55/55/55 52/52/52
f 54/54/54 56/56/56 53/53/53
f 56/56/56 55/55/55 53/53/53
f 57/57/57 56/56/56 54/54/54
f 56/56/56 58/58/58 55/55/55
f 57/57/57 59/59/59 56/56/56
f 59/59/59 58/58/58 56/56/56
f 60/60/60 59/59/59 57/57/57
f 59/59/59 61/61/61 58/58/58
f 60/60/60 62/62/62 59/59/59
f 62/62/62 61/61/61 59/59/59
f 63/63/63 62/62/62 60/60/60
f 62/62/62 64/64/64 61/61/61
f 63/63/63 65/65/65 62/62/62
f 65/65/65 64/64/64 62/62/62
f 66/66/66 65/65/65 63/63/63
f 65/65/65 67/67/67 64/64/64
f 66/66/66 68/68/68 65/65/65
f 68/68/68 67/67/67 65/65/65
f 69/69/69 68/68/68 66/66/66
f 68/68/68 70/70/70 67/67/67
f 69/69/69 71/71/71 68/68/68
f 71/71/71 70/70/70 68/68/68
f 72/72/72 71/71/71 69/69/69
f 71/71/71 73/73/73 70/70/70
f 72/72/72 74/74/74 71/71/71
f 74/74/74 73/73/73 71/71/71
f 75/75/75 74/74/74 72/72/72
f 74/74/74 76/76/76 73/73/73
f 75/75/75 77/77/77 74/74/74
f 77/77/77 76/76/76 74/74/74
f 78/78/78 77/77/77 75/75/75
f 77/77/77 79/79/79 76/76/76
f 78/78/78 80/80/80 77/77/77
f 80/80/80 79/79/79 77/77/77
f 81/81/81 80/80/80 78/78/78
f 80/80/80 82/82/82 79/79/79
f 81/81/81 83/83/83 80/80/80
f 83/83/83 82/82/82 80/80/80
f 84/84/84 83/83/83 81/81/81
f 83/83/83 85/85/85 82/82/82
f 84/84/84 86/86/86 83/83/83
f 86/86/86 85/85/85 83/83/83
f 87/87/87 86/86/86 84/84/84
f 86/86/86 88/88/88 85/85/85
f 87/87/87 89/89/89 86/86/86
f 89/89/89 88/88/88 86/86/86
f 90/90/90 89/89/89 87/87/87
f 89/89/89 91/91/91 88/88/88
f 90/90/90 92/92/92 89/89/89
f 92/92/92 91/91/91 89/89/89
f 93/93/93 92/92/92 90/90/90
f 92/92/92 94/94/94 91/91/91
f 93/93/93 95/95/95 92/92/92
f 95/95/95 94/94/94 92/92/92
f 96/96/96 95/95/95 93/93/93
f 95/95/95 97/97/97 94/94/94
f 96/96/96 98/98/98 95/95/95
f 98/98/98 97/97/97 95/95/95
f 99/99/99 98/98/98 96/96/96
f 98/98/98 100/100/100 97/97/97
f 99/99/99 101/101/101 98/98/98
f 101/101/101 100/100/100 98/98/98
f 102/102/102 101/101/101 99/99/99
f 101/101/101 103/103/103 100/100/100
f 102/102/102 104/104/104 101/101/101
f 104/104/104 103/103/103 101/101/101
f 105/105/105 104/104/104 102/102/102
f 104/104/104 106/106/106 103/103/103
f 105/105/105 107/107/107 104/104/104
f 107/107/107 106/106/106 104/104/104
f 108/108/108 107/107/107 105/105/105
f 107/107/107 109/109/109 106/106/106
f 108/108/108 110/110/110 107/107/107
f 110/110/110 109/109/109 107/107/107
f 111/111/111 110/110/110 108/108/108
f 110/110/110 112/112/112 109/109/109
f 111/111/111 113/113/113 110/110/110
f 113/113/113 112/112/112 110/110/110
f 114/114/114 113/113/113 111/111/111
f 113/113/113 115/115/115 112/112/112
f 114/114/114 116/116/116 113/113/113
f 116/116/116 115/115/115 113/113/113
f 117/117/117 116/116/116 114/114/114
f 116/116/116 118/118/118 115/115/115
f 117/117/117 119/119/119 116/116/116
f 119/119/119 118/118/118 116/116/116
f 120/120/120 119/119/119 117/117/117
f 119/119/119 121/121/121 118/118/118
f 120/120/120 122/122/122 119/119/119
f 122/122/122 121/121/121 119/119/119
f 122/122/122 123/123/123 121/121/121
