g Md_CMN_Circle_07
v 0.5 0 0
v 0.34831467 0 0.034306
v 0.35 0 0
v 0.49759233 0 0.049008567
v 0.34327483 0 0.06828161
v 0.4903926 0 0.09754516
v 0.47847015 0 0.14514235
v 0.33492908 0 0.10159964
v 0.3233578 0 0.1339392
v 0.46193972 0 0.19134171
v 0.30867243 0 0.16498886
v 0.44096062 0 0.23569837
v 0.41573477 0 0.27778512
v 0.2910143 0 0.19444957
v 0.27055362 0 0.22203763
v 0.3865052 0 0.31719664
v 0.35355335 0 0.35355338
v 0.24748735 0 0.24748737
v 0.3171966 0 0.3865052
v 0.22203761 0 0.27055365
v 0.19444953 0 0.29101437
v 0.27778506 0 0.41573483
v 0.23569831 0 0.44096062
v 0.16498882 0 0.30867243
v 0.19134167 0 0.4619397
v 0.13393916 0 0.3233578
v 0.14514227 0 0.47847012
v 0.1015996 0 0.33492908
v 0.06828158 0 0.3432748
v 0.09754512 0 0.4903926
v 0.04900853 0 0.4975923
v 0.03430597 0 0.3483146
v -2.3469328E-08 0 0.34999996
v -3.3527613E-08 0 0.4999999
v -0.03430602 0 0.3483146
v -0.049008597 0 0.4975923
v -0.09754518 0 0.49039257
v -0.06828162 0 0.3432748
v -0.14514235 0 0.47847006
v -0.10159964 0 0.33492905
v -0.19134171 0 0.46193966
v -0.1339392 0 0.32335776
v -0.23569837 0 0.44096053
v -0.16498886 0 0.30867237
v -0.27778512 0 0.4157347
v -0.19444957 0 0.29101428
v -0.31719664 0 0.38650513
v -0.22203763 0 0.2705536
v -0.35355335 0 0.3535533
v -0.24748734 0 0.24748729
v -0.3865052 0 0.31719655
v -0.27055362 0 0.22203758
v -0.41573477 0 0.277785
v -0.2910143 0 0.1944495
v -0.44096056 0 0.23569825
v -0.3086724 0 0.16498879
v -0.46193966 0 0.19134161
v -0.32335776 0 0.13393913
v -0.33492905 0 0.10159956
v -0.47847006 0 0.14514221
v -0.49039257 0 0.09754506
v -0.3432748 0 0.068281546
v -0.34831458 0 0.03430593
v -0.49759227 0 0.04900847
v -0.49999988 0 -8.940697E-08
v -0.3499999 0 -6.2584874E-08
v -0.49759224 0 -0.049008645
v -0.34831455 0 -0.034306053
v -0.34327477 0 -0.06828166
v -0.49039248 0 -0.09754522
v -0.47847003 0 -0.14514239
v -0.334929 0 -0.10159967
v -0.32335773 0 -0.13393922
v -0.4619396 0 -0.19134174
v -0.30867234 0 -0.16498888
v -0.4409605 0 -0.23569839
v -0.41573465 0 -0.27778512
v -0.29101425 0 -0.19444957
v -0.27055356 0 -0.22203766
v -0.38650504 0 -0.31719664
vt 0.99839735 0.0002720356
vt 0.97724915 0.9999142
vt 0.9983976 0.9999142
vt 0.97359574 0.0002720356
vt 0.95427823 0.9999142
vt 0.94475675 0.0002720356
vt 0.9164462 0.0002720356
vt 0.9306582 0.9999142
vt 0.90640926 0.9999142
vt 0.8888397 0.0002720356
vt 0.8817518 0.9999142
vt 0.8617757 0.0002720356
vt 0.8352995 0.0002720356
vt 0.8566818 0.9999142
vt 0.8313729 0.9999142
vt 0.80919373 0.0002720356
vt 0.7834314 0.0002720356
vt 0.805837 0.9999142
vt 0.758005 0.0002720356
vt 0.7800751 0.9999142
vt 0.7542315 0.9999142
vt 0.732698 0.0002720356
vt 0.7074695 0.0002720356
vt 0.7283301 0.9999142
vt 0.6823635 0.0002720356
vt 0.7023398 0.9999142
vt 0.6574198 0.0002720356
vt 0.67622817 0.9999142
vt 0.6501338 0.9999142
vt 0.63244605 0.0002720356
vt 0.60756737 0.0002720356
vt 0.6239626 0.9999142
vt 0.5978656 0.9999142
vt 0.58258146 0.0002720356
vt 0.5718347 0.9999142
vt 0.55749524 0.0002720356
vt 0.5323955 0.0002720356
vt 0.5458076 0.9999142
vt 0.50728244 0.0002720356
vt 0.51979375 0.9999142
vt 0.4821639 0.0002720356
vt 0.4937924 0.9999142
vt 0.4570282 0.0002720356
vt 0.46779108 0.9999142
vt 0.43188775 0.0002720356
vt 0.4418016 0.9999142
vt 0.40674087 0.0002720356
vt 0.41582343 0.9999142
vt 0.3815748 0.0002720356
vt 0.38984752 0.9999142
vt 0.35640532 0.0002720356
vt 0.36388287 0.9999142
vt 0.33123505 0.0002720356
vt 0.33791113 0.9999142
vt 0.3061011 0.0002720356
vt 0.31192815 0.9999142
vt 0.28105062 0.0002720356
vt 0.28587765 0.9999142
vt 0.2598421 0.9999142
vt 0.25597736 0.0002720356
vt 0.23090088 0.0002720356
vt 0.23380542 0.9999142
vt 0.20782158 0.9999142
vt 0.20575243 0.0002720356
vt 0.18058124 0.0002720356
vt 0.18185267 0.9999142
vt 0.15550154 0.0002720356
vt 0.15582094 0.9999142
vt 0.12984043 0.9999142
vt 0.13035506 0.0002720356
vt 0.10531977 0.0002720356
vt 0.1037786 0.99991435
vt 0.077806264 0.99991435
vt 0.080167234 0.0002720356
vt 0.051892072 0.9999142
vt 0.054935813 0.0002720356
vt 0.029880255 0.0002720356
vt 0.025848657 0.9999142
vt -0.00013360381 0.99991435
vt 0.0047341585 0.0002720356
vn -0 1 0
vn -0 1 0
vn -0 1 0
vn -0 1 0
vn -0 1 0
vn -0 1 0
vn -0 1 0
vn -0 1 0
vn -0 1 0
vn -0 1 0
vn -0 1 0
vn -0 1 0
vn -0 1 0
vn -0 1 0
vn -0 1 0
vn -0 1 0
vn -0 1 0
vn -0 1 0
vn -0 1 0
vn -0 1 0
vn -0 1 0
vn -0 1 0
vn -0 1 0
vn -0 1 0
vn -0 1 0
vn -0 1 0
vn -0 1 0
vn -0 1 0
vn -0 1 0
vn -0 1 0
vn -0 1 0
vn -0 1 0
vn -0 1 0
vn -0 1 0
vn -0 1 0
vn -0 1 0
vn -0 1 0
vn -0 1 0
vn -0 1 0
vn -0 1 0
vn -0 1 0
vn -0 1 0
vn -0 1 0
vn -0 1 0
vn -0 1 0
vn -0 1 0
vn -0 1 0
vn -0 1 0
vn -0 1 0
vn -0 1 0
vn -0 1 0
vn -0 1 0
vn -0 1 0
vn -0 1 0
vn -0 1 0
vn -0 1 0
vn -0 1 0
vn -0 1 0
vn -0 1 0
vn -0 1 0
vn -0 1 0
vn -0 1 0
vn -0 1 0
vn -0 1 0
vn -0 1 0
vn -0 1 0
vn -0 1 0
vn -0 1 0
vn -0 1 0
vn -0 1 0
vn -0 1 0
vn -0 1 0
vn -0 1 0
vn -0 1 0
vn -0 1 0
vn -0 1 0
vn -0 1 0
vn -0 1 0
vn -0 1 0
vn -0 1 0
g Md_CMN_Circle_07_0
f 3/3/3 2/2/2 1/1/1
f 1/1/1 2/2/2 4/4/4
f 2/2/2 5/5/5 4/4/4
f 4/4/4 5/5/5 6/6/6
f 7/7/7 6/6/6 5/5/5
f 7/7/7 5/5/5 8/8/8
f 8/8/8 9/9/9 7/7/7
f 7/7/7 9/9/9 10/10/10
f 9/9/9 11/11/11 10/10/10
f 10/10/10 11/11/11 12/12/12
f 13/13/13 12/12/12 11/11/11
f 13/13/13 11/11/11 14/14/14
f 14/14/14 15/15/15 13/13/13
f 13/13/13 15/15/15 16/16/16
f 15/15/15 17/17/17 16/16/16
f 15/15/15 18/18/18 17/17/17
f 19/19/19 17/17/17 18/18/18
f 19/19/19 18/18/18 20/20/20
f 20/20/20 21/21/21 19/19/19
f 19/19/19 21/21/21 22/22/22
f 21/21/21 23/23/23 22/22/22
f 21/21/21 24/24/24 23/23/23
f 25/25/25 23/23/23 24/24/24
f 25/25/25 24/24/24 26/26/26
f 26/26/26 27/27/27 25/25/25
f 26/26/26 28/28/28 27/27/27
f 28/28/28 29/29/29 27/27/27
f 27/27/27 29/29/29 30/30/30
f 31/31/31 30/30/30 29/29/29
f 31/31/31 29/29/29 32/32/32
f 32/32/32 33/33/33 31/31/31
f 31/31/31 33/33/33 34/34/34
f 33/33/33 35/35/35 34/34/34
f 34/34/34 35/35/35 36/36/36
f 35/35/35 37/37/37 36/36/36
f 35/35/35 38/38/38 37/37/37
f 38/38/38 39/39/39 37/37/37
f 38/38/38 40/40/40 39/39/39
f 40/40/40 41/41/41 39/39/39
f 40/40/40 42/42/42 41/41/41
f 42/42/42 43/43/43 41/41/41
f 42/42/42 44/44/44 43/43/43
f 44/44/44 45/45/45 43/43/43
f 44/44/44 46/46/46 45/45/45
f 46/46/46 47/47/47 45/45/45
f 46/46/46 48/48/48 47/47/47
f 49/49/49 47/47/47 48/48/48
f 49/49/49 48/48/48 50/50/50
f 50/50/50 51/51/51 49/49/49
f 50/50/50 52/52/52 51/51/51
f 52/52/52 53/53/53 51/51/51
f 52/52/52 54/54/54 53/53/53
f 55/55/55 53/53/53 54/54/54
f 55/55/55 54/54/54 56/56/56
f 57/57/57 55/55/55 56/56/56
f 57/57/57 56/56/56 58/58/58
f 58/58/58 59/59/59 57/57/57
f 57/57/57 59/59/59 60/60/60
f 61/61/61 60/60/60 59/59/59
f 61/61/61 59/59/59 62/62/62
f 62/62/62 63/63/63 61/61/61
f 61/61/61 63/63/63 64/64/64
f 65/65/65 64/64/64 63/63/63
f 65/65/65 63/63/63 66/66/66
f 67/67/67 65/65/65 66/66/66
f 67/67/67 66/66/66 68/68/68
f 68/68/68 69/69/69 67/67/67
f 67/67/67 69/69/69 70/70/70
f 71/71/71 70/70/70 69/69/69
f 71/71/71 69/69/69 72/72/72
f 72/72/72 73/73/73 71/71/71
f 71/71/71 73/73/73 74/74/74
f 73/73/73 75/75/75 74/74/74
f 74/74/74 75/75/75 76/76/76
f 75/75/75 77/77/77 76/76/76
f 75/75/75 78/78/78 77/77/77
f 78/78/78 79/79/79 77/77/77
f 77/77/77 79/79/79 80/80/80
