g Md_CMN_CornHalf_01
v 8.7009454E-08 -3.1668274E-06 -0.17545189
v 1.4156103E-07 0.9999968 -0.49999985
v -0.017197227 -3.1668274E-06 -0.1746073
v -0.049008418 0.9999968 -0.49759224
v -0.03422891 -3.1668274E-06 -0.17208052
v -0.097545005 0.9999968 -0.49039254
v -0.050931014 -3.1668274E-06 -0.16789733
v -0.14514217 0.9999968 -0.47847006
v -0.06714254 -3.1668274E-06 -0.16209635
v -0.19134155 0.9999968 -0.46193966
v -0.08270751 -3.1668274E-06 -0.15473482
v -0.23569818 0.9999968 -0.44096056
v -0.0974757 -3.1668274E-06 -0.14588256
v -0.27778494 0.9999968 -0.41573477
v -0.11130538 -3.1668274E-06 -0.1356262
v -0.3171965 0.9999968 -0.3865052
v -0.12406282 -3.1668274E-06 -0.12406284
v -0.35355324 0.9999968 -0.35355335
v -0.13562617 -3.1668274E-06 -0.11130548
v -0.38650504 0.9999968 -0.31719664
v -0.14588332 -3.1668274E-06 -0.09747581
v -0.41573465 0.9999968 -0.27778512
v -0.15473478 -3.1668274E-06 -0.08270757
v -0.4409605 0.9999968 -0.23569839
v -0.16209632 -3.1668274E-06 -0.06714266
v -0.4619396 0.9999968 -0.19134174
v -0.16789731 -3.1668274E-06 -0.050931096
v -0.47847003 0.9999968 -0.14514239
v -0.17208052 -3.1668274E-06 -0.03422904
v -0.49039248 0.9999968 -0.09754522
v -0.1746073 -3.1668274E-06 -0.017197309
v -0.49759224 0.9999968 -0.049008645
v -0.17545189 -3.1668274E-06 -6.079781E-09
v -0.49999988 0.9999968 -8.940697E-08
v -0.1746073 -3.1668274E-06 0.017197298
v -0.49759227 0.9999968 0.04900847
v -0.17208052 -3.1668274E-06 0.03422896
v -0.49039257 0.9999968 0.09754506
v -0.16789731 -3.1668274E-06 0.05093111
v -0.47847006 0.9999968 0.14514221
v -0.16209632 -3.1668274E-06 0.067142636
v -0.46193966 0.9999968 0.19134161
v -0.15473482 -3.1668274E-06 0.082707606
v -0.44096056 0.9999968 0.23569825
v -0.14588332 -3.1668274E-06 0.09747578
v -0.41573477 0.9999968 0.277785
v -0.13562618 -3.1668274E-06 0.11130544
v -0.3865052 0.9999968 0.31719655
v -0.12406357 -3.1668274E-06 0.12406366
v -0.35355335 0.9999968 0.3535533
v -0.111305505 -3.1668274E-06 0.13562626
v -0.31719664 0.9999968 0.38650513
v -0.0974758 -3.1668274E-06 0.14588264
v -0.27778512 0.9999968 0.4157347
v -0.08270755 -3.1668274E-06 0.15473485
v -0.23569837 0.9999968 0.44096053
v -0.06714257 -3.1668274E-06 0.16209643
v -0.19134171 0.9999968 0.46193966
v -0.050931077 -3.1668274E-06 0.16789742
v -0.14514235 0.9999968 0.47847006
v -0.034229003 -3.1668274E-06 0.17208059
v -0.09754518 0.9999968 0.49039257
v -0.017197276 -3.1668274E-06 0.17460738
v -0.049008597 0.9999968 0.4975923
v 2.5570184E-08 -3.1668274E-06 0.17545196
v -3.3527613E-08 0.9999968 0.4999999
vt 0 7.477775E-05
vt 0 0.99994564
vt 0.03125006 7.477775E-05
vt 0.03125006 0.99994564
vt 0.06250009 7.477775E-05
vt 0.06250009 0.99994564
vt 0.09375 7.477775E-05
vt 0.09375 0.99994564
vt 0.12499994 7.477775E-05
vt 0.12499994 0.99994564
vt 0.15624991 7.477775E-05
vt 0.15624991 0.99994564
vt 0.18750009 7.477775E-05
vt 0.18750009 0.99994564
vt 0.21875003 7.477775E-05
vt 0.21875003 0.99994564
vt 0.2500001 7.477775E-05
vt 0.2500001 0.99994564
vt 0.28125012 7.477775E-05
vt 0.28125012 0.99994564
vt 0.3125001 7.477775E-05
vt 0.3125001 0.99994564
vt 0.34375 7.477775E-05
vt 0.34375 0.99994564
vt 0.37500012 7.477775E-05
vt 0.37500012 0.99994564
vt 0.40625006 7.477775E-05
vt 0.40625006 0.99994564
vt 0.4375001 7.477775E-05
vt 0.4375001 0.99994564
vt 0.46875006 7.477775E-05
vt 0.46875006 0.99994564
vt 0.50000006 7.477775E-05
vt 0.50000006 0.99994564
vt 0.5312501 7.477775E-05
vt 0.5312501 0.99994564
vt 0.5625 7.477775E-05
vt 0.5625 0.99994564
vt 0.59375006 7.477775E-05
vt 0.59375006 0.99994564
vt 0.62499994 7.477775E-05
vt 0.62499994 0.99994564
vt 0.65625024 7.477775E-05
vt 0.65625024 0.99994564
vt 0.68750024 7.477775E-05
vt 0.68750024 0.99994564
vt 0.71875006 7.477775E-05
vt 0.71875006 0.99994564
vt 0.75 7.477775E-05
vt 0.75 0.99994564
vt 0.78125006 7.477775E-05
vt 0.78125006 0.99994564
vt 0.8125 7.477775E-05
vt 0.8125 0.99994564
vt 0.8437501 7.477775E-05
vt 0.8437501 0.99994564
vt 0.8749998 7.477775E-05
vt 0.8749998 0.99994564
vt 0.9062502 7.477775E-05
vt 0.9062502 0.99994564
vt 0.93750024 7.477775E-05
vt 0.93750024 0.99994564
vt 0.9687501 7.477775E-05
vt 0.9687501 0.99994564
vt 0.9999848 7.477775E-05
vt 0.9999848 0.99994564
vn -0.046661705 -0.30836087 -0.9501243
vn -0.04667617 -0.3083605 -0.9501238
vn -0.09200156 -0.30869693 -0.9467005
vn -0.0930704 -0.30869713 -0.946596
vn -0.18434474 -0.30869666 -0.9331256
vn -0.18540487 -0.30869707 -0.9329154
vn -0.27492127 -0.30869713 -0.9105626
vn -0.27595374 -0.3086971 -0.91025025
vn -0.36285573 -0.3086963 -0.8792282
vn -0.3638449 -0.30869713 -0.8788191
vn -0.44728938 -0.3086973 -0.83942735
vn -0.44823247 -0.30869707 -0.8389241
vn -0.52740824 -0.30869716 -0.791547
vn -0.5283028 -0.3086973 -0.7909502
vn -0.60245615 -0.3086975 -0.7360383
vn -0.6032858 -0.30869743 -0.7353585
vn -0.6716955 -0.30869687 -0.6734473
vn -0.6724589 -0.30869743 -0.672685
vn -0.73445636 -0.3086975 -0.60438377
vn -0.7351553 -0.30869707 -0.6035336
vn -0.79017115 -0.3086968 -0.52946746
vn -0.7907718 -0.3086971 -0.5285698
vn -0.838269 -0.30869663 -0.449457
vn -0.8387731 -0.30869716 -0.448515
vn -0.8782802 -0.30869702 -0.36514387
vn -0.8786963 -0.30869704 -0.36414132
vn -0.909844 -0.3086971 -0.27729052
vn -0.91015714 -0.3086971 -0.2762606
vn -0.9326423 -0.3086967 -0.18677428
vn -0.9328528 -0.30869707 -0.18571961
vn -0.9464579 -0.3086973 -0.09446355
vn -0.9465646 -0.30869704 -0.09338996
vn -0.9511598 -0.30869666 -0.0012375994
vn -0.95116043 -0.3086971 -0.00016065397
vn -0.9467005 -0.30869704 0.092001624
vn -0.946596 -0.30869713 0.09307005
vn -0.9331252 -0.30869657 0.18434662
vn -0.9329154 -0.30869707 0.18540494
vn -0.9105626 -0.30869722 0.27492142
vn -0.9102502 -0.308697 0.27595434
vn -0.87922853 -0.30869654 0.3628549
vn -0.87881905 -0.30869707 0.363845
vn -0.839436 -0.3086972 0.44727322
vn -0.83892447 -0.30869702 0.4482319
vn -0.79154575 -0.30869722 0.52741
vn -0.7909501 -0.3086972 0.528303
vn -0.7360462 -0.30869684 0.6024469
vn -0.7353584 -0.308697 0.6032861
vn -0.673449 -0.3086972 0.6716936
vn -0.67268497 -0.308697 0.67245907
vn -0.6043511 -0.30869627 0.7344838
vn -0.60353327 -0.3086974 0.73515546
vn -0.5294676 -0.3086967 0.79017127
vn -0.52856946 -0.30869737 0.79077196
vn -0.44947162 -0.3086973 0.83826077
vn -0.44851524 -0.3086971 0.8387731
vn -0.3651428 -0.30869716 0.8782806
vn -0.36414158 -0.30869687 0.8786962
vn -0.27729023 -0.30869734 0.909844
vn -0.2762606 -0.30869702 0.91015726
vn -0.18677613 -0.30869642 0.93264204
vn -0.18571901 -0.30869713 0.9328529
vn -0.09446611 -0.30869707 0.9464578
vn -0.09338901 -0.30869704 0.9465646
vn -0.0466629 -0.30836028 0.95012444
vn -0.04667621 -0.3083607 0.9501237
g Md_CMN_CornHalf_01_0
f 3/3/3 2/2/2 1/1/1
f 3/3/3 4/4/4 2/2/2
f 5/5/5 4/4/4 3/3/3
f 5/5/5 6/6/6 4/4/4
f 7/7/7 6/6/6 5/5/5
f 7/7/7 8/8/8 6/6/6
f 9/9/9 8/8/8 7/7/7
f 9/9/9 10/10/10 8/8/8
f 11/11/11 10/10/10 9/9/9
f 11/11/11 12/12/12 10/10/10
f 13/13/13 12/12/12 11/11/11
f 13/13/13 14/14/14 12/12/12
f 15/15/15 14/14/14 13/13/13
f 15/15/15 16/16/16 14/14/14
f 17/17/17 16/16/16 15/15/15
f 17/17/17 18/18/18 16/16/16
f 19/19/19 18/18/18 17/17/17
f 19/19/19 20/20/20 18/18/18
f 21/21/21 20/20/20 19/19/19
f 21/21/21 22/22/22 20/20/20
f 23/23/23 22/22/22 21/21/21
f 23/23/23 24/24/24 22/22/22
f 25/25/25 24/24/24 23/23/23
f 25/25/25 26/26/26 24/24/24
f 27/27/27 26/26/26 25/25/25
f 27/27/27 28/28/28 26/26/26
f 29/29/29 28/28/28 27/27/27
f 29/29/29 30/30/30 28/28/28
f 31/31/31 30/30/30 29/29/29
f 31/31/31 32/32/32 30/30/30
f 33/33/33 32/32/32 31/31/31
f 33/33/33 34/34/34 32/32/32
f 35/35/35 34/34/34 33/33/33
f 35/35/35 36/36/36 34/34/34
f 37/37/37 36/36/36 35/35/35
f 37/37/37 38/38/38 36/36/36
f 39/39/39 38/38/38 37/37/37
f 39/39/39 40/40/40 38/38/38
f 41/41/41 40/40/40 39/39/39
f 41/41/41 42/42/42 40/40/40
f 43/43/43 42/42/42 41/41/41
f 43/43/43 44/44/44 42/42/42
f 45/45/45 44/44/44 43/43/43
f 45/45/45 46/46/46 44/44/44
f 47/47/47 46/46/46 45/45/45
f 47/47/47 48/48/48 46/46/46
f 49/49/49 48/48/48 47/47/47
f 49/49/49 50/50/50 48/48/48
f 51/51/51 50/50/50 49/49/49
f 51/51/51 52/52/52 50/50/50
f 53/53/53 52/52/52 51/51/51
f 53/53/53 54/54/54 52/52/52
f 55/55/55 54/54/54 53/53/53
f 55/55/55 56/56/56 54/54/54
f 57/57/57 56/56/56 55/55/55
f 57/57/57 58/58/58 56/56/56
f 59/59/59 58/58/58 57/57/57
f 59/59/59 60/60/60 58/58/58
f 61/61/61 60/60/60 59/59/59
f 61/61/61 62/62/62 60/60/60
f 63/63/63 62/62/62 61/61/61
f 63/63/63 64/64/64 62/62/62
f 65/65/65 64/64/64 63/63/63
f 65/65/65 66/66/66 64/64/64
