g Md_CMN_RingQuater_00
v -0.49039283 -0.09754512 1.826855E-08
v -0.49759254 -0.049008507 1.853676E-08
v -0.4877064 -0.09754512 0.05126002
v -0.49486667 -0.049008507 0.0520126
v -0.5000002 0 1.8626451E-08
v -0.47967654 -0.09754512 0.10195842
v -0.4972611 0 0.052264266
v -0.49759254 0.049008507 1.853676E-08
v -0.48671892 -0.049008507 0.10345532
v -0.4663913 -0.09754512 0.15153973
v -0.49486667 0.049008507 0.0520126
v -0.49039283 0.09754512 1.826855E-08
v -0.4877064 0.09754512 0.05126002
v -0.4732386 -0.049008507 0.15376456
v -0.44799608 -0.09754512 0.19946073
v -0.48907396 0 0.10395589
v -0.48671892 0.049008507 0.10345532
v -0.47967654 0.09754512 0.10195842
v -0.45457336 -0.049008507 0.2023891
v -0.42469257 -0.09754512 0.24519642
v -0.4755284 0 0.15450856
v -0.4732386 0.049008507 0.15376456
v -0.4663913 0.09754512 0.15153973
v -0.4309277 -0.049008507 0.24879627
v -0.39673606 -0.09754512 0.28824568
v -0.45677286 0 0.2033684
v -0.45457336 0.049008507 0.2023891
v -0.44799608 0.09754512 0.19946073
v -0.40256077 -0.049008507 0.29247758
v -0.3644328 -0.09754512 0.32813686
v -0.4330128 0 0.2500001
v -0.4309277 0.049008507 0.24879627
v -0.42469257 0.09754512 0.24519642
v -0.36978325 -0.049008507 0.3329544
v -0.32813674 -0.09754512 0.36443287
v -0.4045086 0 0.29389274
v -0.40256077 0.049008507 0.29247758
v -0.39673606 0.09754512 0.28824568
v -0.33295432 -0.049008507 0.3697833
v -0.2882456 -0.09754512 0.39673606
v -0.37157243 0 0.33456543
v -0.36978325 0.049008507 0.3329544
v -0.3644328 0.09754512 0.32813686
v -0.2924775 -0.049008507 0.40256077
v -0.24519631 -0.09754512 0.42469257
v -0.33456534 0 0.37157252
v -0.33295432 0.049008507 0.3697833
v -0.32813674 0.09754512 0.36443287
v -0.24879616 -0.049008507 0.4309277
v -0.19946064 -0.09754512 0.44799605
v -0.29389265 0 0.4045086
v -0.2924775 0.049008507 0.40256077
v -0.2882456 0.09754512 0.39673606
v -0.20238903 -0.049008507 0.45457327
v -0.15153964 -0.09754512 0.46639118
v -0.25 0 0.43301275
v -0.24879616 0.049008507 0.4309277
v -0.24519631 0.09754512 0.42469257
v -0.15376446 -0.049008507 0.47323853
v -0.10195832 -0.09754512 0.47967646
v -0.20336829 0 0.45677274
v -0.20238903 0.049008507 0.45457327
v -0.19946064 0.09754512 0.44799605
v -0.10345522 -0.049008507 0.4867188
v -0.051259946 -0.09754512 0.48770633
v -0.15450847 0 0.47552833
v -0.15376446 0.049008507 0.47323853
v -0.15153964 0.09754512 0.46639118
v -0.052012518 -0.049008507 0.49486658
v 5.115194E-08 -0.09754512 0.4903927
v 5.1902923E-08 -0.049008507 0.49759242
v -0.1039558 0 0.4890739
v -0.10345522 0.049008507 0.4867188
v -0.10195832 0.09754512 0.47967646
v -0.052264187 0 0.497261
v 5.2154064E-08 0 0.50000006
v -0.052012518 0.049008507 0.49486658
v -0.051259946 0.09754512 0.48770633
v 5.1902923E-08 0.049008507 0.49759242
v 5.115194E-08 0.09754512 0.4903927
vt 0.000980556 0.000120699406
vt 0.000980556 0.24825975
vt 0.06752586 0.0001206398
vt 0.06752586 0.24825975
vt 0.000980556 0.5
vt 0.1340715 0.0001206398
vt 0.06752586 0.5
vt 0.000980556 0.7517394
vt 0.1340715 0.24825975
vt 0.20061684 0.0001206398
vt 0.06752586 0.7517394
vt 0.000980556 0.9989703
vt 0.06752586 0.9989703
vt 0.20061684 0.24825975
vt 0.26716214 0.000120699406
vt 0.1340715 0.5
vt 0.1340715 0.7517394
vt 0.1340715 0.9989703
vt 0.26716214 0.24825975
vt 0.3337078 0.0001206398
vt 0.20061684 0.5
vt 0.20061684 0.7517394
vt 0.20061684 0.9989703
vt 0.3337078 0.24825975
vt 0.40025306 0.000120699406
vt 0.26716214 0.5
vt 0.26716214 0.7517394
vt 0.26716214 0.9989703
vt 0.40025306 0.24825975
vt 0.46679875 0.0001206398
vt 0.3337078 0.5
vt 0.3337078 0.7517394
vt 0.3337078 0.9989703
vt 0.46679875 0.24825975
vt 0.5333441 0.000120699406
vt 0.40025306 0.5
vt 0.40025306 0.7517394
vt 0.40025306 0.9989703
vt 0.5333441 0.24825975
vt 0.59988934 0.0001206398
vt 0.46679875 0.5
vt 0.46679875 0.7517394
vt 0.46679875 0.9989703
vt 0.59988934 0.24825975
vt 0.6664352 0.0001206398
vt 0.5333441 0.5
vt 0.5333441 0.7517394
vt 0.5333441 0.9989703
vt 0.6664352 0.24825975
vt 0.73298013 0.0001206398
vt 0.59988934 0.5
vt 0.59988934 0.7517393
vt 0.59988934 0.9989703
vt 0.73298013 0.24825975
vt 0.799526 0.0001206398
vt 0.6664352 0.5
vt 0.6664352 0.7517393
vt 0.6664352 0.9989703
vt 0.799526 0.24825975
vt 0.8660711 0.0001206398
vt 0.73298013 0.5
vt 0.73298013 0.7517393
vt 0.73298013 0.9989703
vt 0.8660711 0.24825975
vt 0.93261695 0.0001206398
vt 0.799526 0.5
vt 0.799526 0.7517393
vt 0.799526 0.9989703
vt 0.93261695 0.24825975
vt 0.9991621 0.000120699406
vt 0.9991621 0.24825975
vt 0.8660711 0.5
vt 0.8660711 0.7517393
vt 0.8660711 0.9989703
vt 0.93261695 0.5
vt 0.9991621 0.5
vt 0.93261695 0.7517393
vt 0.93261695 0.9989703
vt 0.9991621 0.7517393
vt 0.9991621 0.9989703
vn -0.98785 -0.14653379 0.05177103
vn -0.9938496 -0.09772511 0.052085504
vn -0.9837577 -0.14673068 0.10339736
vn -0.9897484 -0.097858295 0.10402695
vn -0.99862957 5.779352E-07 0.05233617
vn -0.9675607 -0.14673044 0.20566139
vn -0.99452186 1.17293695E-07 0.10452855
vn -0.9938496 0.09772503 0.052085564
vn -0.9734528 -0.09785797 0.20691393
vn -0.9407626 -0.14673087 0.30567268
vn -0.98974854 0.097857915 0.10402686
vn -0.98785 0.14653398 0.051771067
vn -0.98375756 0.1467309 0.10339727
vn -0.94649166 -0.09785784 0.3075343
vn -0.90365756 -0.14672966 0.40233487
vn -0.97814757 2.7745614E-07 0.20791185
vn -0.9734528 0.09785791 0.20691411
vn -0.9675606 0.14673084 0.20566157
vn -0.9091607 -0.0978577 0.40478492
vn -0.856652 -0.1467299 0.49458852
vn -0.9510565 4.2630606E-07 0.30901727
vn -0.9464918 0.09785786 0.307534
vn -0.9407627 0.14673063 0.3056725
vn -0.86186874 -0.0978584 0.4976003
vn -0.80026084 -0.14672986 0.5814232
vn -0.9135453 -1.6671186E-07 0.40673685
vn -0.9091607 0.09785785 0.40478492
vn -0.9036575 0.14673024 0.40233508
vn -0.80513424 -0.0978581 0.5849639
vn -0.73510075 -0.14673032 0.6618891
vn -0.86602527 1.166983E-07 0.5000004
vn -0.8616875 0.09744881 0.49799424
vn -0.856652 0.14672999 0.49458832
vn -0.7398436 -0.0975176 0.665674
vn -0.66188806 -0.14673044 0.73510164
vn -0.8090169 4.370232E-07 0.58778536
vn -0.80513406 0.09785795 0.58496416
vn -0.80026084 0.14672989 0.5814232
vn -0.66591877 -0.09785805 0.73957825
vn -0.5814229 -0.14673069 0.80026084
vn -0.74314475 0 0.6691307
vn -0.739578 0.097857736 0.665919
vn -0.73510146 0.14673014 0.6618883
vn -0.5849635 -0.097858116 0.80513453
vn -0.4945882 -0.14673012 0.8566521
vn -0.6691302 1.5063607E-07 0.74314517
vn -0.6659185 0.097858295 0.7395785
vn -0.66188747 0.14673093 0.7351021
vn -0.4975997 -0.09785779 0.8618691
vn -0.402334 -0.14672966 0.903658
vn -0.5877848 -1.6849805E-07 0.80901736
vn -0.5849635 0.09785818 0.80513453
vn -0.5814233 0.14673023 0.8002608
vn -0.40478402 -0.09785765 0.90916103
vn -0.30567312 -0.1467301 0.9407626
vn -0.49999964 0 0.8660256
vn -0.49759972 0.0978578 0.8618691
vn -0.4945886 0.14672977 0.8566519
vn -0.3075337 -0.09785798 0.9464918
vn -0.20566241 -0.14672975 0.96756047
vn -0.4067366 0 0.91354555
vn -0.40478435 0.09785752 0.909161
vn -0.4023338 0.14672986 0.90365803
vn -0.20691413 -0.09785815 0.9734528
vn -0.103397414 -0.14672992 0.9837577
vn -0.3090174 -1.6075788E-07 0.9510565
vn -0.30753392 0.09785815 0.9464918
vn -0.30567187 0.1467302 0.94076306
vn -0.10402666 -0.097857684 0.98974854
vn -2.0403417E-05 -0.1467289 0.9891768
vn 1.4267863E-05 -0.09785608 0.99520063
vn -0.20791152 1.357511E-07 0.9781477
vn -0.20691384 0.09785805 0.9734528
vn -0.20566162 0.14672975 0.9675607
vn -0.10452814 1.0895807E-07 0.99452186
vn 9.220092E-06 2.5312324E-06 1
vn -0.104026966 0.09785752 0.98974854
vn -0.103396766 0.14673007 0.9837578
vn 1.7724933E-05 0.0978555 0.99520063
vn -2.059114E-05 0.1467289 0.9891768
g Md_CMN_RingQuater_00_0
f 3/3/3 2/2/2 1/1/1
f 3/3/3 4/4/4 2/2/2
f 4/4/4 5/5/5 2/2/2
f 6/6/6 4/4/4 3/3/3
f 4/4/4 7/7/7 5/5/5
f 7/7/7 8/8/8 5/5/5
f 6/6/6 9/9/9 4/4/4
f 9/9/9 7/7/7 4/4/4
f 10/10/10 9/9/9 6/6/6
f 7/7/7 11/11/11 8/8/8
f 11/11/11 12/12/12 8/8/8
f 11/11/11 13/13/13 12/12/12
f 10/10/10 14/14/14 9/9/9
f 15/15/15 14/14/14 10/10/10
f 9/9/9 16/16/16 7/7/7
f 16/16/16 11/11/11 7/7/7
f 14/14/14 16/16/16 9/9/9
f 17/17/17 13/13/13 11/11/11
f 16/16/16 17/17/17 11/11/11
f 17/17/17 18/18/18 13/13/13
f 15/15/15 19/19/19 14/14/14
f 20/20/20 19/19/19 15/15/15
f 14/14/14 21/21/21 16/16/16
f 21/21/21 17/17/17 16/16/16
f 19/19/19 21/21/21 14/14/14
f 22/22/22 18/18/18 17/17/17
f 21/21/21 22/22/22 17/17/17
f 22/22/22 23/23/23 18/18/18
f 20/20/20 24/24/24 19/19/19
f 25/25/25 24/24/24 20/20/20
f 19/19/19 26/26/26 21/21/21
f 26/26/26 22/22/22 21/21/21
f 24/24/24 26/26/26 19/19/19
f 27/27/27 23/23/23 22/22/22
f 26/26/26 27/27/27 22/22/22
f 27/27/27 28/28/28 23/23/23
f 25/25/25 29/29/29 24/24/24
f 30/30/30 29/29/29 25/25/25
f 24/24/24 31/31/31 26/26/26
f 31/31/31 27/27/27 26/26/26
f 29/29/29 31/31/31 24/24/24
f 32/32/32 28/28/28 27/27/27
f 31/31/31 32/32/32 27/27/27
f 32/32/32 33/33/33 28/28/28
f 30/30/30 34/34/34 29/29/29
f 35/35/35 34/34/34 30/30/30
f 29/29/29 36/36/36 31/31/31
f 36/36/36 32/32/32 31/31/31
f 34/34/34 36/36/36 29/29/29
f 37/37/37 33/33/33 32/32/32
f 36/36/36 37/37/37 32/32/32
f 37/37/37 38/38/38 33/33/33
f 35/35/35 39/39/39 34/34/34
f 40/40/40 39/39/39 35/35/35
f 34/34/34 41/41/41 36/36/36
f 41/41/41 37/37/37 36/36/36
f 39/39/39 41/41/41 34/34/34
f 42/42/42 38/38/38 37/37/37
f 41/41/41 42/42/42 37/37/37
f 42/42/42 43/43/43 38/38/38
f 40/40/40 44/44/44 39/39/39
f 45/45/45 44/44/44 40/40/40
f 39/39/39 46/46/46 41/41/41
f 46/46/46 42/42/42 41/41/41
f 44/44/44 46/46/46 39/39/39
f 47/47/47 43/43/43 42/42/42
f 46/46/46 47/47/47 42/42/42
f 47/47/47 48/48/48 43/43/43
f 45/45/45 49/49/49 44/44/44
f 50/50/50 49/49/49 45/45/45
f 44/44/44 51/51/51 46/46/46
f 51/51/51 47/47/47 46/46/46
f 49/49/49 51/51/51 44/44/44
f 52/52/52 48/48/48 47/47/47
f 51/51/51 52/52/52 47/47/47
f 52/52/52 53/53/53 48/48/48
f 50/50/50 54/54/54 49/49/49
f 55/55/55 54/54/54 50/50/50
f 49/49/49 56/56/56 51/51/51
f 56/56/56 52/52/52 51/51/51
f 54/54/54 56/56/56 49/49/49
f 57/57/57 53/53/53 52/52/52
f 56/56/56 57/57/57 52/52/52
f 57/57/57 58/58/58 53/53/53
f 55/55/55 59/59/59 54/54/54
f 60/60/60 59/59/59 55/55/55
f 54/54/54 61/61/61 56/56/56
f 61/61/61 57/57/57 56/56/56
f 59/59/59 61/61/61 54/54/54
f 62/62/62 58/58/58 57/57/57
f 61/61/61 62/62/62 57/57/57
f 62/62/62 63/63/63 58/58/58
f 60/60/60 64/64/64 59/59/59
f 65/65/65 64/64/64 60/60/60
f 59/59/59 66/66/66 61/61/61
f 66/66/66 62/62/62 61/61/61
f 64/64/64 66/66/66 59/59/59
f 67/67/67 63/63/63 62/62/62
f 66/66/66 67/67/67 62/62/62
f 67/67/67 68/68/68 63/63/63
f 65/65/65 69/69/69 64/64/64
f 70/70/70 69/69/69 65/65/65
f 70/70/70 71/71/71 69/69/69
f 64/64/64 72/72/72 66/66/66
f 72/72/72 67/67/67 66/66/66
f 69/69/69 72/72/72 64/64/64
f 73/73/73 68/68/68 67/67/67
f 72/72/72 73/73/73 67/67/67
f 73/73/73 74/74/74 68/68/68
f 71/71/71 75/75/75 69/69/69
f 69/69/69 75/75/75 72/72/72
f 75/75/75 73/73/73 72/72/72
f 71/71/71 76/76/76 75/75/75
f 77/77/77 74/74/74 73/73/73
f 75/75/75 77/77/77 73/73/73
f 76/76/76 77/77/77 75/75/75
f 77/77/77 78/78/78 74/74/74
f 76/76/76 79/79/79 77/77/77
f 79/79/79 78/78/78 77/77/77
f 79/79/79 80/80/80 78/78/78
