g Md_CMN_Circle_01
v 0.04999994 0 -3.8146972E-08
v 0.049759157 0 -0.0049008774
v 0.4999999 0 -3.8146972E-08
v 0.4975923 0 0.04900853
v 0.049759176 0 0.004900819
v 0.049039204 0 0.009754478
v 0.49039254 0 0.097545125
v 0.047846954 0 0.014514196
v 0.47847006 0 0.14514232
v 0.046193916 0 0.019134134
v 0.4619397 0 0.19134168
v 0.44096053 0 0.23569833
v 0.044096 0 0.023569798
v 0.04157342 0 0.027778473
v 0.4157347 0 0.2777851
v 0.38650513 0 0.31719658
v 0.03865046 0 0.031719625
v 0.035355277 0 0.0353553
v 0.3535533 0 0.35355335
v 0.031719603 0 0.038650483
v 0.31719655 0 0.38650516
v 0.027778449 0 0.041573443
v 0.277785 0 0.41573477
v 0.023569774 0 0.04409602
v 0.23569825 0 0.44096056
v 0.19134161 0 0.46193966
v 0.019134108 0 0.04619393
v 0.0145141715 0 0.047846973
v 0.14514221 0 0.47847006
v 0.009754455 0 0.04903922
v 0.09754506 0 0.49039257
v 0.049008474 0 0.49759227
v 0.004900796 0 0.04975919
v -9.074807E-08 0 0.49999988
v -6.057322E-08 0 0.049999956
v -0.049008656 0 0.49759227
v -0.0049009165 0 0.04975919
v -0.009754575 0 0.04903922
v -0.09754523 0 0.49039254
v -0.014514291 0 0.04784697
v -0.1451424 0 0.47847003
v -0.01913423 0 0.04619393
v -0.19134177 0 0.4619396
v -0.023569893 0 0.044096015
v -0.23569843 0 0.4409605
v -0.027778568 0 0.04157343
v -0.27778518 0 0.41573465
v -0.031719718 0 0.038650475
v -0.3171967 0 0.38650507
v -0.35355338 0 0.35355327
v -0.03535539 0 0.035355292
v -0.038650572 0 0.031719618
v -0.38650528 0 0.31719652
v -0.041573532 0 0.027778463
v -0.41573486 0 0.27778497
v -0.44096062 0 0.23569822
v -0.044096116 0 0.023569789
v -0.046194028 0 0.019134123
v -0.4619397 0 0.19134156
v -0.047847066 0 0.014514184
v -0.47847015 0 0.14514218
v -0.049039315 0 0.009754468
v -0.4903926 0 0.09754502
v -0.049759284 0 0.004900809
v -0.4975923 0 0.04900843
v -0.4999999 0 -1.2755393E-07
v -0.050000045 0 -4.7087667E-08
v -0.4975923 0 -0.049008682
v -0.049759284 0 -0.004900903
v -0.049039304 0 -0.009754561
v -0.49039254 0 -0.09754526
v -0.04784706 0 -0.014514277
v -0.47847006 0 -0.14514242
v -0.4619397 0 -0.19134177
v -0.046194017 0 -0.019134214
v -0.044096105 0 -0.023569876
v -0.44096053 0 -0.23569843
v -0.041573524 0 -0.02777855
v -0.4157347 0 -0.27778515
v -0.038650565 0 -0.031719703
v -0.38650513 0 -0.31719667
v -0.03535538 0 -0.03535537
v -0.3535533 0 -0.35355338
v -0.031719707 0 -0.038650554
v -0.31719655 0 -0.38650525
v -0.277785 0 -0.41573483
v -0.027778551 0 -0.041573513
v -0.023569876 0 -0.044096097
v -0.23569824 0 -0.44096062
v -0.19134161 0 -0.4619397
v -0.019134212 0 -0.04619401
v -0.014514274 0 -0.047847047
v -0.14514221 0 -0.47847012
v -0.09754506 0 -0.49039257
v -0.009754557 0 -0.049039293
v -0.004900899 0 -0.04975926
v -0.049008474 0 -0.49759227
v -4.3064354E-08 0 -0.050000023
v 8.434057E-08 0 -0.49999988
v 0.049008634 0 -0.49759227
v 0.004900812 0 -0.049759258
v 0.00975447 0 -0.049039286
v 0.097545214 0 -0.49039254
v 0.14514238 0 -0.47847
v 0.014514186 0 -0.047847033
v 0.019134123 0 -0.046193995
v 0.19134174 0 -0.46193957
v 0.023569787 0 -0.044096082
v 0.23569837 0 -0.44096047
v 0.27778512 0 -0.41573462
v 0.02777846 0 -0.041573495
v 0.031719606 0 -0.03865054
v 0.3171966 0 -0.38650504
v 0.3535533 0 -0.35355324
v 0.03535528 0 -0.035355356
v 0.03865046 0 -0.03171968
v 0.38650513 0 -0.3171965
v 0.041573413 0 -0.027778525
v 0.4157347 0 -0.27778494
v 0.044095993 0 -0.02356985
v 0.44096047 0 -0.23569816
v 0.46193954 0 -0.19134153
v 0.046193905 0 -0.019134188
v 0.47847 0 -0.14514217
v 0.047846947 0 -0.014514251
v 0.49039245 0 -0.09754501
v 0.049039192 0 -0.009754535
v 0.049759157 0 -0.0049008774
v 0.49759215 0 -0.04900843
v 0.4999999 0 -3.8146972E-08
vt 0.98889303 0.9990375
vt 0.9999887 0.9990375
vt 0.99998856 0.0001861453
vt 0.9834629 0.0001861453
vt 0.9737185 0.9990375
vt 0.9583845 0.9990375
vt 0.9671688 0.0001861453
vt 0.94299084 0.9990375
vt 0.95030105 0.0001861453
vt 0.92749286 0.9990375
vt 0.9330485 0.0001861453
vt 0.9159367 0.0001861453
vt 0.9121742 0.9990375
vt 0.89672804 0.9990375
vt 0.8987504 0.0001861453
vt 0.8820027 0.0001861453
vt 0.8813095 0.9990375
vt 0.8658226 0.9990375
vt 0.86514604 0.0001861453
vt 0.8503159 0.9990375
vt 0.8482212 0.0001861453
vt 0.8347913 0.9990376
vt 0.8312509 0.00018632412
vt 0.81918573 0.9990376
vt 0.814247 0.00018632412
vt 0.79812884 0.00018626451
vt 0.8036307 0.9990376
vt 0.7880292 0.9990376
vt 0.7817179 0.00018620491
vt 0.7724234 0.9990376
vt 0.7652459 0.00018632412
vt 0.7498221 0.00018626451
vt 0.7568897 0.9990376
vt 0.73520666 0.00018626451
vt 0.7413455 0.9990376
vt 0.72146666 0.00018626451
vt 0.7257925 0.9990376
vt 0.7101198 0.9990376
vt 0.70721173 0.00018632412
vt 0.6944177 0.9990376
vt 0.6927908 0.00018626451
vt 0.6787542 0.9990376
vt 0.67821753 0.00018632412
vt 0.66300595 0.9990376
vt 0.6634976 0.00018626451
vt 0.6473209 0.9990376
vt 0.6486312 0.00018626451
vt 0.6316626 0.9990376
vt 0.63360906 0.00018632412
vt 0.6199187 0.00018626451
vt 0.61602426 0.9990376
vt 0.6003282 0.9990376
vt 0.60575104 0.00018632412
vt 0.58465075 0.9990376
vt 0.5913278 0.00018626451
vt 0.57806736 0.00018626451
vt 0.5689805 0.9990376
vt 0.553326 0.9990376
vt 0.5644479 0.00018632412
vt 0.5376699 0.9990376
vt 0.5504606 0.00018620491
vt 0.522012 0.9990376
vt 0.5361066 0.00018626451
vt 0.50630784 0.9990376
vt 0.5213816 0.00018626451
vt 0.507201 0.00018626451
vt 0.49065363 0.99903756
vt 0.4939671 0.00018626451
vt 0.47500208 0.9990376
vt 0.45934647 0.9990377
vt 0.48083904 0.00018626451
vt 0.44369325 0.9990376
vt 0.46716788 0.00018626451
vt 0.4535425 0.00018626451
vt 0.4280159 0.99903756
vt 0.4123244 0.9990376
vt 0.4402782 0.00018626451
vt 0.39660326 0.9990376
vt 0.42645803 0.00018626451
vt 0.38084626 0.99903756
vt 0.41209856 0.00018626451
vt 0.36511308 0.99903756
vt 0.39722613 0.00018626451
vt 0.34944782 0.9990376
vt 0.3818424 0.00018626451
vt 0.3659637 0.00018626451
vt 0.33375067 0.99903756
vt 0.31807637 0.9990377
vt 0.35060573 0.00018626451
vt 0.33468145 0.00018626451
vt 0.30242908 0.99903756
vt 0.28677985 0.9990376
vt 0.31926757 0.00018626451
vt 0.303263 0.00018626451
vt 0.27114367 0.99903756
vt 0.2555532 0.99903756
vt 0.2877469 0.00018626451
vt 0.23997319 0.99903756
vt 0.2717331 0.00018626451
vt 0.25516295 0.00018626451
vt 0.22435594 0.99903756
vt 0.20880413 0.99903756
vt 0.23900872 0.00018626451
vt 0.22235674 0.00018626451
vt 0.19320714 0.99903756
vt 0.17765257 0.9990376
vt 0.20607162 0.00018626451
vt 0.16209674 0.99903756
vt 0.18938744 0.00018626451
vt 0.17234647 0.00018626451
vt 0.14647639 0.9990376
vt 0.13118964 0.9990376
vt 0.15557265 0.00018638372
vt 0.13860875 0.00018638372
vt 0.11548549 0.9990376
vt 0.10007614 0.9990376
vt 0.121756256 0.00018638372
vt 0.084692776 0.9990376
vt 0.10440147 0.00018638372
vt 0.06933838 0.9990376
vt 0.08661997 0.00018638372
vt 0.06863475 0.00018638372
vt 0.05390817 0.9990376
vt 0.05094564 0.00018638372
vt 0.038508117 0.9990376
vt 0.033689857 0.00018638372
vt 0.02313912 0.9990376
vt 0.00017824955 0.9990376
vt 0.016641915 0.00018638372
vt 0.00017824979 0.00018638372
vn -0 1 0
vn -0 1 0
vn -0 1 0
vn -0 1 0
vn -0 1 0
vn -0 1 0
vn -0 1 0
vn -0 1 0
vn -0 1 0
vn -0 1 0
vn -0 1 0
vn -0 1 0
vn -0 1 0
vn -0 1 0
vn -0 1 0
vn -0 1 0
vn -0 1 0
vn -0 1 0
vn -0 1 0
vn -0 1 0
vn -0 1 0
vn -0 1 0
vn -0 1 0
vn -0 1 0
vn -0 1 0
vn -0 1 0
vn -0 1 0
vn -0 1 0
vn -0 1 0
vn -0 1 0
vn -0 1 0
vn -0 1 0
vn -0 1 0
vn -0 1 0
vn -0 1 0
vn -0 1 0
vn -0 1 0
vn -0 1 0
vn -0 1 0
vn -0 1 0
vn -0 1 0
vn -0 1 0
vn -0 1 0
vn -0 1 0
vn -0 1 0
vn -0 1 0
vn -0 1 0
vn -0 1 0
vn -0 1 0
vn -0 1 0
vn -0 1 0
vn -0 1 0
vn -0 1 0
vn -0 1 0
vn -0 1 0
vn -0 1 0
vn -0 1 0
vn -0 1 0
vn -0 1 0
vn -0 1 0
vn -0 1 0
vn -0 1 0
vn -0 1 0
vn -0 1 0
vn -0 1 0
vn -0 1 0
vn -0 1 0
vn -0 1 0
vn -0 1 0
vn -0 1 0
vn -0 1 0
vn -0 1 0
vn -0 1 0
vn -0 1 0
vn -0 1 0
vn -0 1 0
vn -0 1 0
vn -0 1 0
vn -0 1 0
vn -0 1 0
vn -0 1 0
vn -0 1 0
vn -0 1 0
vn -0 1 0
vn -0 1 0
vn -0 1 0
vn -0 1 0
vn -0 1 0
vn -0 1 0
vn -0 1 0
vn -0 1 0
vn -0 1 0
vn -0 1 0
vn -0 1 0
vn -0 1 0
vn -0 1 0
vn -0 1 0
vn -0 1 0
vn -0 1 0
vn -0 1 0
vn -0 1 0
vn -0 1 0
vn -0 1 0
vn -0 1 0
vn -0 1 0
vn -0 1 0
vn -0 1 0
vn -0 1 0
vn -0 1 0
vn -0 1 0
vn -0 1 0
vn -0 1 0
vn -0 1 0
vn -0 1 0
vn -0 1 0
vn -0 1 0
vn -0 1 0
vn -0 1 0
vn -0 1 0
vn -0 1 0
vn -0 1 0
vn -0 1 0
vn -0 1 0
vn -0 1 0
vn -0 1 0
vn -0 1 0
vn -0 1 0
vn -0 1 0
vn -0 1 0
vn -0 1 0
g Md_CMN_Circle_01_0
f 3/3/3 2/2/2 1/1/1
f 3/3/3 1/1/1 4/4/4
f 4/4/4 1/1/1 5/5/5
f 6/6/6 4/4/4 5/5/5
f 4/4/4 6/6/6 7/7/7
f 8/8/8 7/7/7 6/6/6
f 7/7/7 8/8/8 9/9/9
f 10/10/10 9/9/9 8/8/8
f 9/9/9 10/10/10 11/11/11
f 11/11/11 10/10/10 12/12/12
f 12/12/12 10/10/10 13/13/13
f 14/14/14 12/12/12 13/13/13
f 12/12/12 14/14/14 15/15/15
f 15/15/15 14/14/14 16/16/16
f 16/16/16 14/14/14 17/17/17
f 18/18/18 16/16/16 17/17/17
f 16/16/16 18/18/18 19/19/19
f 20/20/20 19/19/19 18/18/18
f 19/19/19 20/20/20 21/21/21
f 22/22/22 21/21/21 20/20/20
f 21/21/21 22/22/22 23/23/23
f 24/24/24 23/23/23 22/22/22
f 23/23/23 24/24/24 25/25/25
f 25/25/25 24/24/24 26/26/26
f 26/26/26 24/24/24 27/27/27
f 28/28/28 26/26/26 27/27/27
f 26/26/26 28/28/28 29/29/29
f 30/30/30 29/29/29 28/28/28
f 29/29/29 30/30/30 31/31/31
f 31/31/31 30/30/30 32/32/32
f 32/32/32 30/30/30 33/33/33
f 32/32/32 33/33/33 34/34/34
f 34/34/34 33/33/33 35/35/35
f 34/34/34 35/35/35 36/36/36
f 36/36/36 35/35/35 37/37/37
f 38/38/38 36/36/36 37/37/37
f 36/36/36 38/38/38 39/39/39
f 40/40/40 39/39/39 38/38/38
f 39/39/39 40/40/40 41/41/41
f 42/42/42 41/41/41 40/40/40
f 41/41/41 42/42/42 43/43/43
f 44/44/44 43/43/43 42/42/42
f 43/43/43 44/44/44 45/45/45
f 46/46/46 45/45/45 44/44/44
f 45/45/45 46/46/46 47/47/47
f 48/48/48 47/47/47 46/46/46
f 47/47/47 48/48/48 49/49/49
f 49/49/49 48/48/48 50/50/50
f 50/50/50 48/48/48 51/51/51
f 52/52/52 50/50/50 51/51/51
f 50/50/50 52/52/52 53/53/53
f 54/54/54 53/53/53 52/52/52
f 53/53/53 54/54/54 55/55/55
f 55/55/55 54/54/54 56/56/56
f 56/56/56 54/54/54 57/57/57
f 58/58/58 56/56/56 57/57/57
f 56/56/56 58/58/58 59/59/59
f 60/60/60 59/59/59 58/58/58
f 59/59/59 60/60/60 61/61/61
f 62/62/62 61/61/61 60/60/60
f 61/61/61 62/62/62 63/63/63
f 64/64/64 63/63/63 62/62/62
f 63/63/63 64/64/64 65/65/65
f 65/65/65 64/64/64 66/66/66
f 66/66/66 64/64/64 67/67/67
f 66/66/66 67/67/67 68/68/68
f 68/68/68 67/67/67 69/69/69
f 70/70/70 68/68/68 69/69/69
f 68/68/68 70/70/70 71/71/71
f 72/72/72 71/71/71 70/70/70
f 71/71/71 72/72/72 73/73/73
f 73/73/73 72/72/72 74/74/74
f 74/74/74 72/72/72 75/75/75
f 76/76/76 74/74/74 75/75/75
f 74/74/74 76/76/76 77/77/77
f 78/78/78 77/77/77 76/76/76
f 77/77/77 78/78/78 79/79/79
f 80/80/80 79/79/79 78/78/78
f 79/79/79 80/80/80 81/81/81
f 82/82/82 81/81/81 80/80/80
f 81/81/81 82/82/82 83/83/83
f 84/84/84 83/83/83 82/82/82
f 83/83/83 84/84/84 85/85/85
f 85/85/85 84/84/84 86/86/86
f 86/86/86 84/84/84 87/87/87
f 88/88/88 86/86/86 87/87/87
f 86/86/86 88/88/88 89/89/89
f 89/89/89 88/88/88 90/90/90
f 90/90/90 88/88/88 91/91/91
f 92/92/92 90/90/90 91/91/91
f 90/90/90 92/92/92 93/93/93
f 93/93/93 92/92/92 94/94/94
f 94/94/94 92/92/92 95/95/95
f 96/96/96 94/94/94 95/95/95
f 94/94/94 96/96/96 97/97/97
f 98/98/98 97/97/97 96/96/96
f 97/97/97 98/98/98 99/99/99
f 99/99/99 98/98/98 100/100/100
f 100/100/100 98/98/98 101/101/101
f 102/102/102 100/100/100 101/101/101
f 100/100/100 102/102/102 103/103/103
f 103/103/103 102/102/102 104/104/104
f 104/104/104 102/102/102 105/105/105
f 106/106/106 104/104/104 105/105/105
f 104/104/104 106/106/106 107/107/107
f 108/108/108 107/107/107 106/106/106
f 107/107/107 108/108/108 109/109/109
f 109/109/109 108/108/108 110/110/110
f 110/110/110 108/108/108 111/111/111
f 112/112/112 110/110/110 111/111/111
f 110/110/110 112/112/112 113/113/113
f 113/113/113 112/112/112 114/114/114
f 114/114/114 112/112/112 115/115/115
f 116/116/116 114/114/114 115/115/115
f 114/114/114 116/116/116 117/117/117
f 118/118/118 117/117/117 116/116/116
f 117/117/117 118/118/118 119/119/119
f 120/120/120 119/119/119 118/118/118
f 119/119/119 120/120/120 121/121/121
f 121/121/121 120/120/120 122/122/122
f 122/122/122 120/120/120 123/123/123
f 122/122/122 123/123/123 124/124/124
f 124/124/124 123/123/123 125/125/125
f 124/124/124 125/125/125 126/126/126
f 126/126/126 125/125/125 127/127/127
f 128/128/128 126/126/126 127/127/127
f 126/126/126 128/128/128 129/129/129
f 129/129/129 128/128/128 130/130/130
