g Md_CMN_Circle_00
v 0.49999988 -1.0074521E-07 -1.6763806E-08
v 0.03939871 1.8464076E-08 1.5426843E-07
v 0.4975923 -1.0074521E-07 -0.04900839
v 0.039208945 1.8464076E-08 -0.0038615535
v 1.00422575E-07 7.806872E-08 1.5691037E-07
v 0.4903926 -1.0074521E-07 -0.09754495
v 0.038641542 1.8464076E-08 -0.0076860595
v 1.00422575E-07 7.806872E-08 1.5691037E-07
v 0.47846994 -1.0074521E-07 -0.14514215
v 0.037702188 1.8464076E-08 -0.011436547
v 1.00422575E-07 7.806872E-08 1.5691037E-07
v 0.46193948 -1.0074521E-07 -0.19134149
v 0.03639956 1.8464076E-08 -0.015076854
v 1.00422575E-07 7.806872E-08 1.5691037E-07
v 0.44096062 -1.0074521E-07 -0.23569809
v 0.034746423 1.8464076E-08 -0.018572172
v 1.00422575E-07 7.806872E-08 1.5691037E-07
v 0.4157347 -1.0074521E-07 -0.27778494
v 0.032758858 1.8464076E-08 -0.021888515
v 1.00422575E-07 7.806872E-08 1.5691037E-07
v 0.38650513 -1.0074521E-07 -0.31719643
v 0.030455574 1.8464076E-08 -0.024993952
v 1.00422575E-07 7.806872E-08 1.5691037E-07
v 0.35355344 -1.0074521E-07 -0.35355324
v 0.027859062 1.8464076E-08 -0.027858615
v 1.00422575E-07 7.806872E-08 1.5691037E-07
v 0.3171967 -1.0074521E-07 -0.38650492
v 0.024994254 1.8464076E-08 -0.030455275
v 1.00422575E-07 7.806872E-08 1.5691037E-07
v 0.27778518 -1.0074521E-07 -0.41573465
v 0.021888789 1.8464076E-08 -0.03275853
v 1.00422575E-07 7.806872E-08 1.5691037E-07
v 0.23569843 -1.0074521E-07 -0.44096035
v 0.018572435 1.8464076E-08 -0.034746036
v 1.00422575E-07 7.806872E-08 1.5691037E-07
v 0.19134176 -1.0074521E-07 -0.46193972
v 0.015077166 1.8464076E-08 -0.036399305
v 1.00422575E-07 7.806872E-08 1.5691037E-07
v 0.14514247 -1.0074521E-07 -0.47847003
v 0.0114368545 1.8464076E-08 -0.0377019
v 1.00422575E-07 7.806872E-08 1.5691037E-07
v 0.09754525 -1.0074521E-07 -0.49039257
v 0.007686366 1.8464076E-08 -0.03864132
v 1.00422575E-07 7.806872E-08 1.5691037E-07
v 0.04900871 -1.0074521E-07 -0.4975923
v 0.0038618408 1.8464076E-08 -0.039208725
v 1.00422575E-07 7.806872E-08 1.5691037E-07
v 1.4342368E-07 -1.0074521E-07 -0.4999998
v 1.120175E-07 1.8464076E-08 -0.03939834
v 1.00422575E-07 7.806872E-08 1.5691037E-07
v -0.04900842 -1.0074521E-07 -0.49759233
v -0.003861621 1.8464076E-08 -0.03920859
v 1.00422575E-07 7.806872E-08 1.5691037E-07
v -0.097544976 -1.0074521E-07 -0.49039263
v -0.0076861274 1.8464076E-08 -0.03864132
v 1.00422575E-07 7.806872E-08 1.5691037E-07
v -0.14514214 -1.0074521E-07 -0.47847015
v -0.011436616 1.8464076E-08 -0.03770192
v 1.00422575E-07 7.806872E-08 1.5691037E-07
v -0.19134161 -1.0074521E-07 -0.46193984
v -0.015076914 1.8464076E-08 -0.036399305
v 1.00422575E-07 7.806872E-08 1.5691037E-07
v -0.23569815 -1.0074521E-07 -0.44096047
v -0.018572224 1.8464076E-08 -0.034746036
v 1.00422575E-07 7.806872E-08 1.5691037E-07
v -0.27778497 -1.0074521E-07 -0.41573477
v -0.021888578 1.8464076E-08 -0.03275853
v 1.00422575E-07 7.806872E-08 1.5691037E-07
v -0.31719655 -1.0074521E-07 -0.38650504
v -0.024994016 1.8464076E-08 -0.030455275
v 1.00422575E-07 7.806872E-08 1.5691037E-07
v -0.35355335 -1.0074521E-07 -0.35355335
v -0.027858824 1.8464076E-08 -0.027858628
v 1.00422575E-07 7.806872E-08 1.5691037E-07
v -0.386505 -1.0074521E-07 -0.31719667
v -0.030455336 1.8464076E-08 -0.024993952
v 1.00422575E-07 7.806872E-08 1.5691037E-07
v -0.4157347 -1.0074521E-07 -0.27778512
v -0.03275858 1.8464076E-08 -0.021888522
v 1.00422575E-07 7.806872E-08 1.5691037E-07
v -0.4409603 -1.0074521E-07 -0.2356984
v -0.034746185 1.8464076E-08 -0.018572181
v 1.00422575E-07 7.806872E-08 1.5691037E-07
v -0.46193975 -1.0074521E-07 -0.19134174
v -0.036399286 1.8464076E-08 -0.015076882
v 1.00422575E-07 7.806872E-08 1.5691037E-07
v -0.47847015 -1.0074521E-07 -0.14514238
v -0.03770198 1.8464076E-08 -0.011436547
v 1.00422575E-07 7.806872E-08 1.5691037E-07
v -0.49039263 -1.0074521E-07 -0.09754523
v -0.038641304 1.8464076E-08 -0.0076860595
v 1.00422575E-07 7.806872E-08 1.5691037E-07
v -0.4975924 -1.0074521E-07 -0.049008645
v -0.039208706 7.806872E-08 -0.0038615745
v 1.00422575E-07 7.806872E-08 1.5691037E-07
v -0.4999999 -1.0074521E-07 -9.313226E-08
v -0.039398473 7.806872E-08 1.498654E-07
v 1.00422575E-07 7.806872E-08 1.5691037E-07
v -0.49759242 -1.0074521E-07 0.04900844
v -0.039208796 7.806872E-08 0.0038618576
v 1.00422575E-07 7.806872E-08 1.5691037E-07
v -0.4903927 -1.0074521E-07 0.097545005
v -0.038641304 7.806872E-08 0.0076864096
v 1.00422575E-07 7.806872E-08 1.5691037E-07
v -0.47847015 -1.0074521E-07 0.14514227
v -0.03770199 7.806872E-08 0.011436922
v 1.00422575E-07 7.806872E-08 1.5691037E-07
v -0.46193984 -1.0074521E-07 0.1913416
v -0.03639938 7.806872E-08 0.015077195
v 1.00422575E-07 7.806872E-08 1.5691037E-07
v -0.44096038 -1.0074521E-07 0.23569833
v -0.034746185 1.8464076E-08 0.018572338
v 1.00422575E-07 7.806872E-08 1.5691037E-07
v -0.41573477 -1.0074521E-07 0.2777849
v -0.03275858 1.8464076E-08 0.021888634
v 1.00422575E-07 7.806872E-08 1.5691037E-07
v -0.38650504 -1.0074521E-07 0.31719664
v -0.030455336 1.8464076E-08 0.02499433
v 1.00422575E-07 7.806872E-08 1.5691037E-07
v -0.3535534 -1.0074521E-07 0.35355335
v -0.027858838 1.8464076E-08 0.027859062
v 1.00422575E-07 7.806872E-08 1.5691037E-07
v -0.31719673 -1.0074521E-07 0.38650498
v -0.024994016 1.8464076E-08 0.030455645
v 1.00422575E-07 7.806872E-08 1.5691037E-07
v -0.2777851 -1.0074521E-07 0.41573474
v -0.021888584 1.8464076E-08 0.032758906
v 1.00422575E-07 7.806872E-08 1.5691037E-07
v -0.23569837 -1.0074521E-07 0.44096074
v -0.018572249 1.8464076E-08 0.03474641
v 1.00422575E-07 7.806872E-08 1.5691037E-07
v -0.19134171 -1.0074521E-07 0.4619396
v -0.01507698 7.806872E-08 0.03639947
v 1.00422575E-07 7.806872E-08 1.5691037E-07
v -0.14514235 -1.0074521E-07 0.47847
v -0.011436616 7.806872E-08 0.037702244
v 1.00422575E-07 7.806872E-08 1.5691037E-07
v -0.09754516 -1.0074521E-07 0.4903926
v -0.0076861274 7.806872E-08 0.03864169
v 1.00422575E-07 7.806872E-08 1.5691037E-07
v -0.049008608 -1.0074521E-07 0.4975924
v -0.0038616287 7.806872E-08 0.039208945
v 1.00422575E-07 7.806872E-08 1.5691037E-07
v -3.282912E-08 -1.0074521E-07 0.5
v 9.778079E-08 7.806872E-08 0.03939871
v 1.00422575E-07 7.806872E-08 1.5691037E-07
v 0.049008522 -1.0074521E-07 0.4975924
v 0.003861798 7.806872E-08 0.039208945
v 1.00422575E-07 7.806872E-08 1.5691037E-07
v 0.097545095 -1.0074521E-07 0.49039263
v 0.007686362 7.806872E-08 0.03864169
v 1.00422575E-07 7.806872E-08 1.5691037E-07
v 0.1451423 -1.0074521E-07 0.47847
v 0.0114368545 7.806872E-08 0.037702244
v 1.00422575E-07 7.806872E-08 1.5691037E-07
v 0.19134164 -1.0074521E-07 0.46193966
v 0.015077152 7.806872E-08 0.03639947
v 1.00422575E-07 7.806872E-08 1.5691037E-07
v 0.23569836 -1.0074521E-07 0.44096076
v 0.018572463 7.806872E-08 0.03474641
v 1.00422575E-07 7.806872E-08 1.5691037E-07
v 0.277785 -1.0074521E-07 0.41573477
v 0.02188871 7.806872E-08 0.032758847
v 1.00422575E-07 7.806872E-08 1.5691037E-07
v 0.3171966 -1.0074521E-07 0.38650504
v 0.024994254 1.8464076E-08 0.030455645
v 1.00422575E-07 7.806872E-08 1.5691037E-07
v 0.35355344 -1.0074521E-07 0.35355338
v 0.027859049 1.8464076E-08 0.027859105
v 1.00422575E-07 7.806872E-08 1.5691037E-07
v 0.38650513 -1.0074521E-07 0.31719673
v 0.030455574 1.8464076E-08 0.02499433
v 1.00422575E-07 7.806872E-08 1.5691037E-07
v 0.41573483 -1.0074521E-07 0.27778506
v 0.032758858 1.8464076E-08 0.021888675
v 1.00422575E-07 7.806872E-08 1.5691037E-07
v 0.44096068 -1.0074521E-07 0.23569843
v 0.034746423 1.8464076E-08 0.018572403
v 1.00422575E-07 7.806872E-08 1.5691037E-07
v 0.46193966 -1.0074521E-07 0.19134171
v 0.03639963 1.8464076E-08 0.015077226
v 1.00422575E-07 7.806872E-08 1.5691037E-07
v 0.47847006 -1.0074521E-07 0.14514239
v 0.037702188 1.8464076E-08 0.011436922
v 1.00422575E-07 7.806872E-08 1.5691037E-07
v 0.49039274 -1.0074521E-07 0.09754512
v 0.038641542 1.8464076E-08 0.0076864096
v 1.00422575E-07 7.806872E-08 1.5691037E-07
v 0.49759245 -1.0074521E-07 0.04900859
v 0.039208945 1.8464076E-08 0.0038618576
v 1.00422575E-07 7.806872E-08 1.5691037E-07
v 0.49999988 -1.0074521E-07 -1.6763806E-08
v 0.03939871 1.8464076E-08 1.5426843E-07
v 1.00422575E-07 7.806872E-08 1.5691037E-07
vt 0 1.0565855E-06
vt 0 0.92137647
vt 0.017674953 1.0565855E-06
vt 0.017674953 0.92137647
vt 0.0076290965 0.99960196
vt 0.0365777 1.0565855E-06
vt 0.0365777 0.92137647
vt 0.028007567 0.99960196
vt 0.05464238 1.0565855E-06
vt 0.05464238 0.92137647
vt 0.045178138 0.99960196
vt 0.07200703 1.0565855E-06
vt 0.07200703 0.92137647
vt 0.06503993 0.99960196
vt 0.088795334 1.0565855E-06
vt 0.088795334 0.92137647
vt 0.08094945 0.99960196
vt 0.10510954 1.0565855E-06
vt 0.10510954 0.92137647
vt 0.09754472 0.99960196
vt 0.12103495 1.0565855E-06
vt 0.12103495 0.92137647
vt 0.1135167 0.99960196
vt 0.13664621 1.0565855E-06
vt 0.13664621 0.92137647
vt 0.12949808 0.99960196
vt 0.15200973 1.0565855E-06
vt 0.15200973 0.92137647
vt 0.14416747 0.99960196
vt 0.1671823 1.0565855E-06
vt 0.1671823 0.92137647
vt 0.15952577 0.99960196
vt 0.18221402 1.0565855E-06
vt 0.18221402 0.92137647
vt 0.17292696 0.99960196
vt 0.19714853 1.0565855E-06
vt 0.19714853 0.92137647
vt 0.18695638 0.99960196
vt 0.2120218 1.0565855E-06
vt 0.2120218 0.92137647
vt 0.20236194 0.99960196
vt 0.22686556 1.0565855E-06
vt 0.22686556 0.92137647
vt 0.21844272 0.99960196
vt 0.24170613 1.0565855E-06
vt 0.24170613 0.92137647
vt 0.2318936 0.99960196
vt 0.25656486 1.0565855E-06
vt 0.25656486 0.92137647
vt 0.2466874 0.99960196
vt 0.2714591 1.0565855E-06
vt 0.2714591 0.92137647
vt 0.2621422 0.99960196
vt 0.28640258 1.0565855E-06
vt 0.28640258 0.92137647
vt 0.27826697 0.99960196
vt 0.3014053 1.0565855E-06
vt 0.3014053 0.92137647
vt 0.2930889 0.99960196
vt 0.31647438 1.0565855E-06
vt 0.31647438 0.92137647
vt 0.30858648 0.99960196
vt 0.33161488 1.0565855E-06
vt 0.33161488 0.92137647
vt 0.3227722 0.99960196
vt 0.34682718 1.0565855E-06
vt 0.34682718 0.92137647
vt 0.3356378 0.99960196
vt 0.36211187 1.0565855E-06
vt 0.36211187 0.92137647
vt 0.35117146 0.99960196
vt 0.3774663 1.0565855E-06
vt 0.3774663 0.92137647
vt 0.36670247 0.99960196
vt 0.39288607 1.0565855E-06
vt 0.39288607 0.92137647
vt 0.38223308 0.99960196
vt 0.40836582 1.0565855E-06
vt 0.40836582 0.92137647
vt 0.39777932 0.99960196
vt 0.4238984 1.0565855E-06
vt 0.4238984 0.92137647
vt 0.41333967 0.99960196
vt 0.43947628 1.0565855E-06
vt 0.43947628 0.92137647
vt 0.42889506 0.99960196
vt 0.4550896 1.0565855E-06
vt 0.4550896 0.92137647
vt 0.44445053 0.99960196
vt 0.470729 1.0565855E-06
vt 0.470729 0.92137647
vt 0.46002913 0.99960196
vt 0.48638418 1.0565855E-06
vt 0.48638418 0.92137647
vt 0.4755912 0.99960196
vt 0.5020447 1.0565855E-06
vt 0.5020447 0.92137647
vt 0.49116665 0.99960196
vt 0.5176995 1.0565855E-06
vt 0.5176995 0.92137647
vt 0.50674266 0.99960196
vt 0.5333381 1.0565855E-06
vt 0.5333381 0.92137647
vt 0.52232754 0.99960196
vt 0.54894996 1.0565855E-06
vt 0.54894996 0.92137647
vt 0.5378908 0.99960196
vt 0.5645247 1.0565855E-06
vt 0.5645247 0.92137647
vt 0.5534759 0.99960196
vt 0.58005315 1.0565855E-06
vt 0.58005315 0.92137647
vt 0.5690498 0.99960196
vt 0.5955261 1.0565855E-06
vt 0.5955261 0.92137647
vt 0.5846128 0.99960196
vt 0.6109364 1.0565855E-06
vt 0.6109364 0.92137647
vt 0.60018116 0.99960196
vt 0.62627655 1.0565855E-06
vt 0.62627655 0.92137647
vt 0.6157498 0.99960196
vt 0.64154196 1.0565855E-06
vt 0.64154196 0.92137647
vt 0.63130516 0.99960196
vt 0.65672845 1.0565855E-06
vt 0.65672845 0.92137647
vt 0.64685696 0.99960196
vt 0.6718342 1.0565855E-06
vt 0.6718342 0.92137647
vt 0.6624164 0.99960196
vt 0.68685985 1.0565855E-06
vt 0.68685985 0.92137647
vt 0.67795175 0.99960196
vt 0.7018075 1.0565855E-06
vt 0.7018075 0.92137647
vt 0.693473 0.99960196
vt 0.71668214 1.0565855E-06
vt 0.71668214 0.92137647
vt 0.70900756 0.99960196
vt 0.73149145 1.0565855E-06
vt 0.73149145 0.92137647
vt 0.72351736 0.99960196
vt 0.7462468 1.0565855E-06
vt 0.7462468 0.92137647
vt 0.73851645 0.99960196
vt 0.7609625 1.0565855E-06
vt 0.7609625 0.92137647
vt 0.75301 0.99960196
vt 0.77565724 1.0565855E-06
vt 0.77565724 0.92137647
vt 0.76849395 0.99960196
vt 0.7903532 1.0565855E-06
vt 0.7903532 0.92137647
vt 0.7819561 0.99960196
vt 0.805078 1.0565855E-06
vt 0.805078 0.92137647
vt 0.7969287 0.99960196
vt 0.81986415 1.0565855E-06
vt 0.81986415 0.92137647
vt 0.81287515 0.99960196
vt 0.8347495 1.0565855E-06
vt 0.8347495 0.92137647
vt 0.82629985 0.99960196
vt 0.84977907 1.0565855E-06
vt 0.84977907 0.92137647
vt 0.84223837 0.99960196
vt 0.86500394 1.0565855E-06
vt 0.86500394 0.92137647
vt 0.858667 0.99960196
vt 0.8804835 1.0565855E-06
vt 0.8804835 0.92137647
vt 0.87305796 0.99960196
vt 0.8962854 1.0565855E-06
vt 0.8962854 0.92137647
vt 0.8879428 0.99960196
vt 0.91248536 1.0565855E-06
vt 0.91248536 0.92137647
vt 0.9033172 0.99960196
vt 0.9291713 1.0565855E-06
vt 0.9291713 0.92137647
vt 0.9211835 0.99960196
vt 0.94644076 1.0565855E-06
vt 0.94644076 0.92137647
vt 0.9385361 0.99960196
vt 0.9644109 1.0565855E-06
vt 0.9644109 0.92137647
vt 0.9545427 0.99960196
vt 0.9809461 1.0565855E-06
vt 0.9809461 0.92137647
vt 0.97101426 0.99960196
vt 0.99965286 1.0565855E-06
vt 0.99965286 0.92137647
vt 0.99087274 0.99960196
vn 2.588124E-07 1 0
vn 3.2760047E-07 1 0
vn 2.5756302E-07 1 0
vn 3.2569577E-07 1 0
vn 2.2810649E-07 1 -5.339966E-07
vn 2.5383292E-07 1 0
vn 3.2065736E-07 1 0
vn 2.2810649E-07 1 -5.339966E-07
vn 2.476585E-07 1 0
vn 3.1252412E-07 1 0
vn 2.2810649E-07 1 -5.339966E-07
vn 2.3909925E-07 1 0
vn 3.01388E-07 1 -1.2845858E-07
vn 2.2810649E-07 1 -5.339966E-07
vn 2.28237E-07 1 -1.2203135E-07
vn 2.8735045E-07 1 -1.5737173E-07
vn 2.2810649E-07 1 -5.339966E-07
vn 2.1517648E-07 1 -1.4381526E-07
vn 2.7053582E-07 1 -1.8477749E-07
vn 2.2810649E-07 1 -5.339966E-07
vn 2.0004431E-07 1 -1.6421353E-07
vn 2.5111837E-07 1 -2.1041154E-07
vn 2.2810649E-07 1 -5.339966E-07
vn 1.8298515E-07 1 -1.8303106E-07
vn 2.2928974E-07 1 -2.3400915E-07
vn 2.2810649E-07 1 -5.339966E-07
vn 1.6416384E-07 1 -2.0008528E-07
vn 2.0525302E-07 1 -2.5535115E-07
vn 2.2810649E-07 1 -5.339966E-07
vn 1.4376141E-07 1 -2.1521244E-07
vn 1.7922619E-07 1 -2.7424568E-07
vn 2.2810649E-07 1 -5.339966E-07
vn 1.2197486E-07 1 -2.2826708E-07
vn 1.5148662E-07 1 -2.9049832E-07
vn 2.2810649E-07 1 -5.339966E-07
vn -0 1 -2.3912335E-07
vn 1.222911E-07 1 -3.039395E-07
vn 2.2810649E-07 1 -5.339966E-07
vn -0 1 -2.4767743E-07
vn -0 1 -3.144621E-07
vn 2.2810649E-07 1 -5.339966E-07
vn -0 1 -2.538454E-07
vn -0 1 -3.2195922E-07
vn 2.2810649E-07 1 -5.339966E-07
vn -0 1 -2.5756904E-07
vn -0 1 -3.263491E-07
vn 2.2810649E-07 1 -5.339966E-07
vn -0 1 -2.5881224E-07
vn -0 1 -3.2760204E-07
vn 2.2810649E-07 1 -5.339966E-07
vn -0 1 -2.575627E-07
vn -0 1 -3.2569807E-07
vn 2.2810649E-07 1 -5.339966E-07
vn -0 1 -2.538327E-07
vn -0 1 -3.2065677E-07
vn 2.2810649E-07 1 -5.339966E-07
vn -0 1 -2.4765842E-07
vn -0 1 -3.1252492E-07
vn 2.2810649E-07 1 -5.339966E-07
vn -0 1 -2.3909885E-07
vn -1.2845716E-07 1 -3.0138364E-07
vn 2.2810649E-07 1 -5.339966E-07
vn -1.2203203E-07 1 -2.2823674E-07
vn -1.5737218E-07 1 -2.8735226E-07
vn 2.2810649E-07 1 -5.339966E-07
vn -1.4381509E-07 1 -2.1517643E-07
vn -1.8477475E-07 1 -2.705402E-07
vn 2.2810649E-07 1 -5.339966E-07
vn -1.6421373E-07 1 -2.000439E-07
vn -2.1041242E-07 1 -2.5111927E-07
vn 2.2810649E-07 1 -5.339966E-07
vn -1.8303058E-07 1 -1.8298498E-07
vn -2.3401182E-07 1 -2.2929048E-07
vn 2.2810649E-07 1 -5.339966E-07
vn -2.0008493E-07 1 -1.6416341E-07
vn -2.5535311E-07 1 -2.0525121E-07
vn 2.2810649E-07 1 -5.339966E-07
vn -2.152125E-07 1 -1.4376093E-07
vn -2.7424394E-07 1 -1.7922997E-07
vn 2.2810649E-07 1 -5.339966E-07
vn -2.2826717E-07 1 -1.2197475E-07
vn -2.904948E-07 1 -1.5148508E-07
vn 2.2810649E-07 1 -5.339966E-07
vn -2.391233E-07 1 0
vn -3.0394187E-07 1 -1.222899E-07
vn 2.2810649E-07 1 -5.339966E-07
vn -2.4767715E-07 1 0
vn -3.1446075E-07 1 0
vn 2.2810649E-07 1 -5.339966E-07
vn -2.5384543E-07 1 0
vn 2.0218484E-07 1 -5.3800036E-06
vn 2.2810649E-07 1 -5.339966E-07
vn -3.221354E-07 1 0
vn 1.9224176E-07 1 -5.695297E-06
vn 2.2810649E-07 1 -5.339966E-07
vn -3.8821833E-07 1 0
vn -3.6692313E-07 1 0
vn 2.2810649E-07 1 -5.339966E-07
vn -3.8634425E-07 1 0
vn -3.6466537E-07 1 0
vn 2.2810649E-07 1 -5.339966E-07
vn -3.807492E-07 1 0
vn -3.588956E-07 1 0
vn 2.2810649E-07 1 -5.339966E-07
vn -3.7148766E-07 1 1.1274041E-07
vn -3.4967124E-07 1 1.1130147E-07
vn 2.2810649E-07 1 -5.339966E-07
vn -3.58648E-07 1 1.4861021E-07
vn 2.1824221E-06 1 4.8591755E-06
vn 2.2810649E-07 1 -5.339966E-07
vn -2.8504127E-07 1 1.5260802E-07
vn 2.3956734E-06 1 5.176958E-06
vn 2.2810649E-07 1 -5.339966E-07
vn -2.1517663E-07 1 1.4381492E-07
vn -2.705397E-07 1 1.8477574E-07
vn 2.2810649E-07 1 -5.339966E-07
vn -2.0004428E-07 1 1.6421322E-07
vn -2.5112317E-07 1 2.1040506E-07
vn 2.2810649E-07 1 -5.339966E-07
vn -1.8298508E-07 1 1.8303074E-07
vn -2.292894E-07 1 2.3401022E-07
vn 2.2810649E-07 1 -5.339966E-07
vn -1.6416386E-07 1 2.0008548E-07
vn -2.052508E-07 1 2.5535363E-07
vn 2.2810649E-07 1 -5.339966E-07
vn -1.4376215E-07 1 2.1521232E-07
vn -1.7922612E-07 1 2.7424286E-07
vn 2.2810649E-07 1 -5.339966E-07
vn -1.219746E-07 1 2.2826727E-07
vn -5.089711E-06 1 -1.7552331E-06
vn 2.2810649E-07 1 -5.339966E-07
vn -1.240059E-07 1 2.990141E-07
vn -5.3941512E-06 1 -1.8371798E-06
vn 2.2810649E-07 1 -5.339966E-07
vn -1.1264781E-07 1 3.7151608E-07
vn -1.0173046E-07 1 3.5257463E-07
vn 2.2810649E-07 1 -5.339966E-07
vn -0 1 3.807684E-07
vn -0 1 3.6084998E-07
vn 2.2810649E-07 1 -5.339966E-07
vn -0 1 3.8635378E-07
vn -0 1 3.65647E-07
vn 2.2810649E-07 1 -5.339966E-07
vn -0 1 3.882185E-07
vn -0 1 3.669234E-07
vn 2.2810649E-07 1 -5.339966E-07
vn -0 1 3.8634434E-07
vn -0 1 3.6466588E-07
vn 2.2810649E-07 1 -5.339966E-07
vn -0 1 3.8074938E-07
vn -0 1 3.5889778E-07
vn 2.2810649E-07 1 -5.339966E-07
vn 1.1274078E-07 1 3.7148789E-07
vn 1.113099E-07 1 3.496677E-07
vn 2.2810649E-07 1 -5.339966E-07
vn 1.4860863E-07 1 3.5864906E-07
vn 1.450458E-07 1 3.3707332E-07
vn 2.2810649E-07 1 -5.339966E-07
vn 1.8304746E-07 1 3.4235524E-07
vn 1.7737491E-07 1 3.212421E-07
vn 2.2810649E-07 1 -5.339966E-07
vn 2.1572383E-07 1 3.2276446E-07
vn 4.3399755E-06 1 -3.0884146E-06
vn 2.2810649E-07 1 -5.339966E-07
vn 2.0528395E-07 1 2.4979235E-07
vn 4.6101036E-06 1 -3.3596152E-06
vn 2.2810649E-07 1 -5.339966E-07
vn 1.8303052E-07 1 1.829852E-07
vn 2.3400993E-07 1 2.2929424E-07
vn 2.2810649E-07 1 -5.339966E-07
vn 2.0008521E-07 1 1.6416345E-07
vn 2.553564E-07 1 2.0525161E-07
vn 2.2810649E-07 1 -5.339966E-07
vn 2.1521235E-07 1 1.4376158E-07
vn 2.7424565E-07 1 1.7922817E-07
vn 2.2810649E-07 1 -5.339966E-07
vn 2.2826737E-07 1 1.2197464E-07
vn 2.904944E-07 1 1.5149013E-07
vn 2.2810649E-07 1 -5.339966E-07
vn 2.3912398E-07 1 0
vn 3.0393937E-07 1 1.2229044E-07
vn 2.2810649E-07 1 -5.339966E-07
vn 2.476772E-07 1 0
vn 3.1446302E-07 1 0
vn 2.2810649E-07 1 -5.339966E-07
vn 2.538454E-07 1 0
vn 3.219603E-07 1 0
vn 2.2810649E-07 1 -5.339966E-07
vn 2.575692E-07 1 0
vn 3.263507E-07 1 0
vn 2.2810649E-07 1 -5.339966E-07
vn 2.588124E-07 1 0
vn 3.2760047E-07 1 0
vn 2.2810649E-07 1 -5.339966E-07
g Md_CMN_Circle_00_0
f 3/3/3 2/2/2 1/1/1
f 2/2/2 3/3/3 4/4/4
f 4/4/4 5/5/5 2/2/2
f 6/6/6 4/4/4 3/3/3
f 4/4/4 6/6/6 7/7/7
f 7/7/7 8/8/8 4/4/4
f 9/9/9 7/7/7 6/6/6
f 7/7/7 9/9/9 10/10/10
f 10/10/10 11/11/11 7/7/7
f 12/12/12 10/10/10 9/9/9
f 10/10/10 12/12/12 13/13/13
f 13/13/13 14/14/14 10/10/10
f 15/15/15 13/13/13 12/12/12
f 13/13/13 15/15/15 16/16/16
f 16/16/16 17/17/17 13/13/13
f 18/18/18 16/16/16 15/15/15
f 16/16/16 18/18/18 19/19/19
f 19/19/19 20/20/20 16/16/16
f 21/21/21 19/19/19 18/18/18
f 19/19/19 21/21/21 22/22/22
f 22/22/22 23/23/23 19/19/19
f 24/24/24 22/22/22 21/21/21
f 22/22/22 24/24/24 25/25/25
f 25/25/25 26/26/26 22/22/22
f 27/27/27 25/25/25 24/24/24
f 25/25/25 27/27/27 28/28/28
f 28/28/28 29/29/29 25/25/25
f 30/30/30 28/28/28 27/27/27
f 28/28/28 30/30/30 31/31/31
f 31/31/31 32/32/32 28/28/28
f 33/33/33 31/31/31 30/30/30
f 31/31/31 33/33/33 34/34/34
f 34/34/34 35/35/35 31/31/31
f 36/36/36 34/34/34 33/33/33
f 34/34/34 36/36/36 37/37/37
f 37/37/37 38/38/38 34/34/34
f 39/39/39 37/37/37 36/36/36
f 37/37/37 39/39/39 40/40/40
f 40/40/40 41/41/41 37/37/37
f 42/42/42 40/40/40 39/39/39
f 40/40/40 42/42/42 43/43/43
f 43/43/43 44/44/44 40/40/40
f 45/45/45 43/43/43 42/42/42
f 43/43/43 45/45/45 46/46/46
f 46/46/46 47/47/47 43/43/43
f 48/48/48 46/46/46 45/45/45
f 46/46/46 48/48/48 49/49/49
f 49/49/49 50/50/50 46/46/46
f 51/51/51 49/49/49 48/48/48
f 49/49/49 51/51/51 52/52/52
f 52/52/52 53/53/53 49/49/49
f 54/54/54 52/52/52 51/51/51
f 52/52/52 54/54/54 55/55/55
f 55/55/55 56/56/56 52/52/52
f 57/57/57 55/55/55 54/54/54
f 55/55/55 57/57/57 58/58/58
f 58/58/58 59/59/59 55/55/55
f 60/60/60 58/58/58 57/57/57
f 58/58/58 60/60/60 61/61/61
f 61/61/61 62/62/62 58/58/58
f 63/63/63 61/61/61 60/60/60
f 61/61/61 63/63/63 64/64/64
f 64/64/64 65/65/65 61/61/61
f 66/66/66 64/64/64 63/63/63
f 64/64/64 66/66/66 67/67/67
f 67/67/67 68/68/68 64/64/64
f 69/69/69 67/67/67 66/66/66
f 67/67/67 69/69/69 70/70/70
f 70/70/70 71/71/71 67/67/67
f 72/72/72 70/70/70 69/69/69
f 70/70/70 72/72/72 73/73/73
f 73/73/73 74/74/74 70/70/70
f 75/75/75 73/73/73 72/72/72
f 73/73/73 75/75/75 76/76/76
f 76/76/76 77/77/77 73/73/73
f 78/78/78 76/76/76 75/75/75
f 76/76/76 78/78/78 79/79/79
f 79/79/79 80/80/80 76/76/76
f 81/81/81 79/79/79 78/78/78
f 79/79/79 81/81/81 82/82/82
f 82/82/82 83/83/83 79/79/79
f 84/84/84 82/82/82 81/81/81
f 82/82/82 84/84/84 85/85/85
f 85/85/85 86/86/86 82/82/82
f 87/87/87 85/85/85 84/84/84
f 85/85/85 87/87/87 88/88/88
f 88/88/88 89/89/89 85/85/85
f 90/90/90 88/88/88 87/87/87
f 88/88/88 90/90/90 91/91/91
f 91/91/91 92/92/92 88/88/88
f 93/93/93 91/91/91 90/90/90
f 91/91/91 93/93/93 94/94/94
f 94/94/94 95/95/95 91/91/91
f 96/96/96 94/94/94 93/93/93
f 94/94/94 96/96/96 97/97/97
f 97/97/97 98/98/98 94/94/94
f 99/99/99 97/97/97 96/96/96
f 97/97/97 99/99/99 100/100/100
f 100/100/100 101/101/101 97/97/97
f 102/102/102 100/100/100 99/99/99
f 100/100/100 102/102/102 103/103/103
f 103/103/103 104/104/104 100/100/100
f 105/105/105 103/103/103 102/102/102
f 103/103/103 105/105/105 106/106/106
f 106/106/106 107/107/107 103/103/103
f 108/108/108 106/106/106 105/105/105
f 106/106/106 108/108/108 109/109/109
f 109/109/109 110/110/110 106/106/106
f 111/111/111 109/109/109 108/108/108
f 109/109/109 111/111/111 112/112/112
f 112/112/112 113/113/113 109/109/109
f 114/114/114 112/112/112 111/111/111
f 112/112/112 114/114/114 115/115/115
f 115/115/115 116/116/116 112/112/112
f 117/117/117 115/115/115 114/114/114
f 115/115/115 117/117/117 118/118/118
f 118/118/118 119/119/119 115/115/115
f 120/120/120 118/118/118 117/117/117
f 118/118/118 120/120/120 121/121/121
f 121/121/121 122/122/122 118/118/118
f 123/123/123 121/121/121 120/120/120
f 121/121/121 123/123/123 124/124/124
f 124/124/124 125/125/125 121/121/121
f 126/126/126 124/124/124 123/123/123
f 124/124/124 126/126/126 127/127/127
f 127/127/127 128/128/128 124/124/124
f 129/129/129 127/127/127 126/126/126
f 127/127/127 129/129/129 130/130/130
f 130/130/130 131/131/131 127/127/127
f 132/132/132 130/130/130 129/129/129
f 130/130/130 132/132/132 133/133/133
f 133/133/133 134/134/134 130/130/130
f 135/135/135 133/133/133 132/132/132
f 133/133/133 135/135/135 136/136/136
f 136/136/136 137/137/137 133/133/133
f 138/138/138 136/136/136 135/135/135
f 136/136/136 138/138/138 139/139/139
f 139/139/139 140/140/140 136/136/136
f 141/141/141 139/139/139 138/138/138
f 139/139/139 141/141/141 142/142/142
f 142/142/142 143/143/143 139/139/139
f 144/144/144 142/142/142 141/141/141
f 142/142/142 144/144/144 145/145/145
f 145/145/145 146/146/146 142/142/142
f 147/147/147 145/145/145 144/144/144
f 145/145/145 147/147/147 148/148/148
f 148/148/148 149/149/149 145/145/145
f 150/150/150 148/148/148 147/147/147
f 148/148/148 150/150/150 151/151/151
f 151/151/151 152/152/152 148/148/148
f 153/153/153 151/151/151 150/150/150
f 151/151/151 153/153/153 154/154/154
f 154/154/154 155/155/155 151/151/151
f 156/156/156 154/154/154 153/153/153
f 154/154/154 156/156/156 157/157/157
f 157/157/157 158/158/158 154/154/154
f 159/159/159 157/157/157 156/156/156
f 157/157/157 159/159/159 160/160/160
f 160/160/160 161/161/161 157/157/157
f 162/162/162 160/160/160 159/159/159
f 160/160/160 162/162/162 163/163/163
f 163/163/163 164/164/164 160/160/160
f 165/165/165 163/163/163 162/162/162
f 163/163/163 165/165/165 166/166/166
f 166/166/166 167/167/167 163/163/163
f 168/168/168 166/166/166 165/165/165
f 166/166/166 168/168/168 169/169/169
f 169/169/169 170/170/170 166/166/166
f 171/171/171 169/169/169 168/168/168
f 169/169/169 171/171/171 172/172/172
f 172/172/172 173/173/173 169/169/169
f 174/174/174 172/172/172 171/171/171
f 172/172/172 174/174/174 175/175/175
f 175/175/175 176/176/176 172/172/172
f 177/177/177 175/175/175 174/174/174
f 175/175/175 177/177/177 178/178/178
f 178/178/178 179/179/179 175/175/175
f 180/180/180 178/178/178 177/177/177
f 178/178/178 180/180/180 181/181/181
f 181/181/181 182/182/182 178/178/178
f 183/183/183 181/181/181 180/180/180
f 181/181/181 183/183/183 184/184/184
f 184/184/184 185/185/185 181/181/181
f 186/186/186 184/184/184 183/183/183
f 184/184/184 186/186/186 187/187/187
f 187/187/187 188/188/188 184/184/184
f 189/189/189 187/187/187 186/186/186
f 187/187/187 189/189/189 190/190/190
f 190/190/190 191/191/191 187/187/187
f 192/192/192 190/190/190 189/189/189
f 190/190/190 192/192/192 193/193/193
f 193/193/193 194/194/194 190/190/190
