g Md_CMN_Circle_02
v 0.49759224 0 -0.049008418
v 0.49999985 0 1.4156103E-07
v 0.14999995 0 4.2468308E-08
v 0.14927766 0 -0.014702525
v 0.49039254 0 -0.097545005
v 0.14711775 0 -0.0292635
v 0.47847006 0 -0.14514217
v 0.14354102 0 -0.04354265
v 0.46193966 0 -0.19134155
v 0.1385819 0 -0.057402465
v 0.44096056 0 -0.23569818
v 0.13228817 0 -0.07070946
v 0.41573477 0 -0.27778494
v 0.12472042 0 -0.08333548
v 0.3865052 0 -0.3171965
v 0.11595155 0 -0.09515895
v 0.35355335 0 -0.35355324
v 0.106065996 0 -0.106065966
v 0.31719664 0 -0.38650504
v 0.095158994 0 -0.11595151
v 0.27778512 0 -0.4157347
v 0.083335534 0 -0.12472039
v 0.23569839 0 -0.44096053
v 0.07070951 0 -0.13228814
v 0.19134174 0 -0.4619396
v 0.057402525 0 -0.13858189
v 0.14514238 0 -0.47847006
v 0.043542713 0 -0.14354101
v 0.09754522 0 -0.49039254
v 0.029263567 0 -0.14711775
v 0.049008645 0 -0.49759224
v 0.014702594 0 -0.14927766
v 8.940697E-08 0 -0.4999999
v 2.682209E-08 0 -0.14999996
v -0.04900847 0 -0.4975923
v -0.014702539 0 -0.14927767
v -0.097545065 0 -0.4903926
v -0.029263517 0 -0.14711776
v -0.14514223 0 -0.47847006
v -0.043542672 0 -0.14354102
v -0.19134161 0 -0.4619397
v -0.05740248 0 -0.1385819
v -0.23569825 0 -0.44096062
v -0.070709474 0 -0.13228817
v -0.277785 0 -0.41573477
v -0.08333551 0 -0.124720424
v -0.31719655 0 -0.3865052
v -0.09515897 0 -0.11595155
v -0.3535533 0 -0.35355338
v -0.106065996 0 -0.106066
v -0.38650513 0 -0.31719664
v -0.11595154 0 -0.09515899
v -0.4157347 0 -0.27778512
v -0.12472042 0 -0.083335534
v -0.44096053 0 -0.23569837
v -0.13228817 0 -0.07070951
v -0.46193966 0 -0.19134171
v -0.1385819 0 -0.057402514
v -0.47847006 0 -0.14514235
v -0.14354102 0 -0.0435427
v -0.49039257 0 -0.09754518
v -0.14711776 0 -0.02926355
v -0.4975923 0 -0.049008597
v -0.14927769 0 -0.014702577
v -0.4999999 0 -3.3527613E-08
v -0.14999998 0 -1.0058284E-08
v -0.4975923 0 0.04900853
v -0.14927769 0 0.014702557
v -0.4903926 0 0.09754512
v -0.14711778 0 0.029263534
v -0.47847012 0 0.14514227
v -0.14354102 0 0.04354268
v -0.4619397 0 0.19134167
v -0.13858192 0 0.0574025
v -0.44096062 0 0.23569831
v -0.13228819 0 0.0707095
v -0.41573483 0 0.27778506
v -0.12472044 0 0.08333551
v -0.3865052 0 0.3171966
v -0.11595155 0 0.09515899
v -0.35355338 0 0.3535533
v -0.10606602 0 0.106065996
v -0.31719664 0 0.3865052
v -0.09515897 0 0.11595156
v -0.27778512 0 0.41573477
v -0.083335534 0 0.124720424
v -0.23569837 0 0.44096062
v -0.07070951 0 0.13228819
v -0.19134171 0 0.4619397
v -0.057402518 0 0.13858192
v -0.14514236 0 0.47847015
v -0.0435427 0 0.14354104
v -0.09754516 0 0.4903926
v -0.029263549 0 0.14711778
v -0.049008567 0 0.4975923
v -0.014702572 0 0.1492777
v -0 0 0.5
v -0 0 0.14999999
v 0.04900839 0 0.49759215
v 0.014702518 0 0.14927766
v 0.097544976 0 0.49039245
v 0.029263493 0 0.14711773
v 0.14514211 0 0.47847
v 0.04354264 0 0.14354101
v 0.19134149 0 0.4619396
v 0.057402447 0 0.13858189
v 0.23569812 0 0.44096047
v 0.070709445 0 0.13228814
v 0.27778488 0 0.4157347
v 0.083335474 0 0.12472041
v 0.31719643 0 0.3865052
v 0.09515892 0 0.11595155
v 0.3535532 0 0.35355338
v 0.10606594 0 0.10606602
v 0.386505 0 0.31719667
v 0.1159515 0 0.095159
v 0.4157346 0 0.27778518
v 0.12472036 0 0.08333555
v 0.4409604 0 0.23569843
v 0.13228813 0 0.070709534
v 0.46193954 0 0.1913418
v 0.13858186 0 0.057402544
v 0.47846994 0 0.14514244
v 0.143541 0 0.04354273
v 0.49039248 0 0.097545266
v 0.14711772 0 0.029263578
v 0.49759224 0 0.049008694
v 0.14927766 0 0.014702608
v 0.49999985 0 1.4156103E-07
v 0.14999995 0 4.2468308E-08
vt 0.015933424 5.9604645E-08
vt 6.92606E-05 5.9604645E-08
vt 6.92606E-05 0.99803364
vt 0.015933424 0.99803364
vt 0.03200078 5.9604645E-08
vt 0.03200078 0.99803364
vt 0.048085988 5.9604645E-08
vt 0.048085988 0.99803364
vt 0.06414279 5.9604645E-08
vt 0.06414279 0.99803364
vt 0.0801498 5.9604645E-08
vt 0.0801498 0.99803364
vt 0.096099645 5.9604645E-08
vt 0.096099645 0.99803364
vt 0.11199263 5.9604645E-08
vt 0.11199263 0.99803364
vt 0.12783298 5.9604645E-08
vt 0.12783298 0.99803364
vt 0.14362678 5.9604645E-08
vt 0.14362678 0.99803364
vt 0.1593807 5.9604645E-08
vt 0.1593807 0.99803364
vt 0.1751011 5.9604645E-08
vt 0.1751011 0.99803364
vt 0.19079354 5.9604645E-08
vt 0.19079354 0.99803364
vt 0.20646292 5.9604645E-08
vt 0.20646292 0.99803364
vt 0.22211316 5.9604645E-08
vt 0.22211316 0.99803364
vt 0.23774728 5.9604645E-08
vt 0.23774728 0.99803364
vt 0.2533677 5.9604645E-08
vt 0.2533677 0.99803364
vt 0.2689761 5.9604645E-08
vt 0.2689761 0.99803364
vt 0.2845738 5.9604645E-08
vt 0.2845738 0.99803364
vt 0.30016154 5.9604645E-08
vt 0.30016154 0.99803364
vt 0.3157398 5.9604645E-08
vt 0.3157398 0.99803364
vt 0.33130908 5.9604645E-08
vt 0.33130908 0.99803364
vt 0.34686947 5.9604645E-08
vt 0.34686947 0.99803364
vt 0.36242115 5.9604645E-08
vt 0.36242115 0.99803364
vt 0.3779642 5.9604645E-08
vt 0.3779642 0.99803364
vt 0.3934989 5.9604645E-08
vt 0.3934989 0.99803364
vt 0.4090256 5.9604645E-08
vt 0.4090256 0.99803364
vt 0.42454484 5.9604645E-08
vt 0.42454484 0.99803364
vt 0.44005725 5.9604645E-08
vt 0.44005725 0.99803364
vt 0.45556384 5.9604645E-08
vt 0.45556384 0.99803364
vt 0.47106543 5.9604645E-08
vt 0.47106543 0.99803364
vt 0.48656347 5.9604645E-08
vt 0.48656347 0.99803364
vt 0.50205916 5.9604645E-08
vt 0.50205916 0.99803364
vt 0.5175538 5.9604645E-08
vt 0.5175538 0.99803364
vt 0.533049 5.9604645E-08
vt 0.533049 0.99803364
vt 0.5485458 5.9604645E-08
vt 0.5485458 0.99803364
vt 0.5640455 5.9604645E-08
vt 0.5640455 0.99803364
vt 0.57954925 5.9604645E-08
vt 0.57954925 0.99803364
vt 0.59505785 5.9604645E-08
vt 0.59505785 0.99803364
vt 0.61057186 5.9604645E-08
vt 0.61057186 0.99803364
vt 0.6260916 5.9604645E-08
vt 0.6260916 0.99803364
vt 0.64161736 5.9604645E-08
vt 0.64161736 0.99803364
vt 0.65714884 5.9604645E-08
vt 0.65714884 0.99803364
vt 0.6726857 5.9604645E-08
vt 0.6726857 0.99803364
vt 0.6882274 5.9604645E-08
vt 0.6882274 0.99803364
vt 0.7037736 5.9604645E-08
vt 0.7037736 0.99803364
vt 0.7193236 5.9604645E-08
vt 0.7193236 0.99803364
vt 0.7348766 5.9604645E-08
vt 0.7348766 0.99803364
vt 0.7504325 5.9604645E-08
vt 0.7504325 0.99803364
vt 0.7659911 5.9604645E-08
vt 0.7659911 0.99803364
vt 0.7815529 5.9604645E-08
vt 0.7815529 0.99803364
vt 0.7971188 5.9604645E-08
vt 0.7971188 0.99803364
vt 0.8126905 5.9604645E-08
vt 0.8126905 0.99803364
vt 0.8282705 5.9604645E-08
vt 0.8282705 0.99803364
vt 0.84386253 5.9604645E-08
vt 0.84386253 0.99803364
vt 0.8594711 5.9604645E-08
vt 0.8594711 0.99803364
vt 0.8751017 5.9604645E-08
vt 0.8751017 0.99803364
vt 0.8907604 5.9604645E-08
vt 0.8907604 0.99803364
vt 0.9064541 5.9604645E-08
vt 0.9064541 0.99803364
vt 0.92218816 5.9604645E-08
vt 0.92218816 0.99803364
vt 0.9379655 5.9604645E-08
vt 0.9379655 0.99803364
vt 0.9537839 5.9604645E-08
vt 0.9537839 0.99803364
vt 0.9696296 5.9604645E-08
vt 0.9696296 0.99803364
vt 0.9854692 5.9604645E-08
vt 0.9854692 0.99803364
vt 0.99993074 5.9604645E-08
vt 0.99993074 0.99803364
vn -0 1 0
vn -0 1 0
vn -0 1 0
vn -0 1 0
vn -0 1 0
vn -0 1 0
vn -0 1 0
vn -0 1 0
vn -0 1 0
vn -0 1 0
vn -0 1 0
vn -0 1 0
vn -0 1 0
vn -0 1 0
vn -0 1 0
vn -0 1 0
vn -0 1 0
vn -0 1 0
vn -0 1 0
vn -0 1 0
vn -0 1 0
vn -0 1 0
vn -0 1 0
vn -0 1 0
vn -0 1 0
vn -0 1 0
vn -0 1 0
vn -0 1 0
vn -0 1 0
vn -0 1 0
vn -0 1 0
vn -0 1 0
vn -0 1 0
vn -0 1 0
vn -0 1 0
vn -0 1 0
vn -0 1 0
vn -0 1 0
vn -0 1 0
vn -0 1 0
vn -0 1 0
vn -0 1 0
vn -0 1 0
vn -0 1 0
vn -0 1 0
vn -0 1 0
vn -0 1 0
vn -0 1 0
vn -0 1 0
vn -0 1 0
vn -0 1 0
vn -0 1 0
vn -0 1 0
vn -0 1 0
vn -0 1 0
vn -0 1 0
vn -0 1 0
vn -0 1 0
vn -0 1 0
vn -0 1 0
vn -0 1 0
vn -0 1 0
vn -0 1 0
vn -0 1 0
vn -0 1 0
vn -0 1 0
vn -0 1 0
vn -0 1 0
vn -0 1 0
vn -0 1 0
vn -0 1 0
vn -0 1 0
vn -0 1 0
vn -0 1 0
vn -0 1 0
vn -0 1 0
vn -0 1 0
vn -0 1 0
vn -0 1 0
vn -0 1 0
vn -0 1 0
vn -0 1 0
vn -0 1 0
vn -0 1 0
vn -0 1 0
vn -0 1 0
vn -0 1 0
vn -0 1 0
vn -0 1 0
vn -0 1 0
vn -0 1 0
vn -0 1 0
vn -0 1 0
vn -0 1 0
vn -0 1 0
vn -0 1 0
vn -0 1 0
vn -0 1 0
vn -0 1 0
vn -0 1 0
vn -0 1 0
vn -0 1 0
vn -0 1 0
vn -0 1 0
vn -0 1 0
vn -0 1 0
vn -0 1 0
vn -0 1 0
vn -0 1 0
vn -0 1 0
vn -0 1 0
vn -0 1 0
vn -0 1 0
vn -0 1 0
vn -0 1 0
vn -0 1 0
vn -0 1 0
vn -0 1 0
vn -0 1 0
vn -0 1 0
vn -0 1 0
vn -0 1 0
vn -0 1 0
vn -0 1 0
vn -0 1 0
vn -0 1 0
vn -0 1 0
vn -0 1 0
vn -0 1 0
vn -0 1 0
g Md_CMN_Circle_02_0
f 3/3/3 2/2/2 1/1/1
f 3/3/3 1/1/1 4/4/4
f 4/4/4 1/1/1 5/5/5
f 4/4/4 5/5/5 6/6/6
f 6/6/6 5/5/5 7/7/7
f 6/6/6 7/7/7 8/8/8
f 8/8/8 7/7/7 9/9/9
f 8/8/8 9/9/9 10/10/10
f 10/10/10 9/9/9 11/11/11
f 10/10/10 11/11/11 12/12/12
f 12/12/12 11/11/11 13/13/13
f 12/12/12 13/13/13 14/14/14
f 14/14/14 13/13/13 15/15/15
f 14/14/14 15/15/15 16/16/16
f 16/16/16 15/15/15 17/17/17
f 16/16/16 17/17/17 18/18/18
f 18/18/18 17/17/17 19/19/19
f 18/18/18 19/19/19 20/20/20
f 20/20/20 19/19/19 21/21/21
f 20/20/20 21/21/21 22/22/22
f 22/22/22 21/21/21 23/23/23
f 22/22/22 23/23/23 24/24/24
f 24/24/24 23/23/23 25/25/25
f 24/24/24 25/25/25 26/26/26
f 26/26/26 25/25/25 27/27/27
f 26/26/26 27/27/27 28/28/28
f 28/28/28 27/27/27 29/29/29
f 28/28/28 29/29/29 30/30/30
f 30/30/30 29/29/29 31/31/31
f 30/30/30 31/31/31 32/32/32
f 32/32/32 31/31/31 33/33/33
f 32/32/32 33/33/33 34/34/34
f 34/34/34 33/33/33 35/35/35
f 34/34/34 35/35/35 36/36/36
f 36/36/36 35/35/35 37/37/37
f 36/36/36 37/37/37 38/38/38
f 38/38/38 37/37/37 39/39/39
f 38/38/38 39/39/39 40/40/40
f 40/40/40 39/39/39 41/41/41
f 40/40/40 41/41/41 42/42/42
f 42/42/42 41/41/41 43/43/43
f 42/42/42 43/43/43 44/44/44
f 44/44/44 43/43/43 45/45/45
f 44/44/44 45/45/45 46/46/46
f 46/46/46 45/45/45 47/47/47
f 46/46/46 47/47/47 48/48/48
f 48/48/48 47/47/47 49/49/49
f 48/48/48 49/49/49 50/50/50
f 50/50/50 49/49/49 51/51/51
f 50/50/50 51/51/51 52/52/52
f 52/52/52 51/51/51 53/53/53
f 52/52/52 53/53/53 54/54/54
f 54/54/54 53/53/53 55/55/55
f 54/54/54 55/55/55 56/56/56
f 56/56/56 55/55/55 57/57/57
f 56/56/56 57/57/57 58/58/58
f 58/58/58 57/57/57 59/59/59
f 58/58/58 59/59/59 60/60/60
f 60/60/60 59/59/59 61/61/61
f 60/60/60 61/61/61 62/62/62
f 62/62/62 61/61/61 63/63/63
f 62/62/62 63/63/63 64/64/64
f 64/64/64 63/63/63 65/65/65
f 64/64/64 65/65/65 66/66/66
f 66/66/66 65/65/65 67/67/67
f 66/66/66 67/67/67 68/68/68
f 68/68/68 67/67/67 69/69/69
f 68/68/68 69/69/69 70/70/70
f 70/70/70 69/69/69 71/71/71
f 70/70/70 71/71/71 72/72/72
f 72/72/72 71/71/71 73/73/73
f 72/72/72 73/73/73 74/74/74
f 74/74/74 73/73/73 75/75/75
f 74/74/74 75/75/75 76/76/76
f 76/76/76 75/75/75 77/77/77
f 76/76/76 77/77/77 78/78/78
f 78/78/78 77/77/77 79/79/79
f 78/78/78 79/79/79 80/80/80
f 80/80/80 79/79/79 81/81/81
f 80/80/80 81/81/81 82/82/82
f 82/82/82 81/81/81 83/83/83
f 82/82/82 83/83/83 84/84/84
f 84/84/84 83/83/83 85/85/85
f 84/84/84 85/85/85 86/86/86
f 86/86/86 85/85/85 87/87/87
f 86/86/86 87/87/87 88/88/88
f 88/88/88 87/87/87 89/89/89
f 88/88/88 89/89/89 90/90/90
f 90/90/90 89/89/89 91/91/91
f 90/90/90 91/91/91 92/92/92
f 92/92/92 91/91/91 93/93/93
f 92/92/92 93/93/93 94/94/94
f 94/94/94 93/93/93 95/95/95
f 94/94/94 95/95/95 96/96/96
f 96/96/96 95/95/95 97/97/97
f 96/96/96 97/97/97 98/98/98
f 98/98/98 97/97/97 99/99/99
f 98/98/98 99/99/99 100/100/100
f 100/100/100 99/99/99 101/101/101
f 100/100/100 101/101/101 102/102/102
f 102/102/102 101/101/101 103/103/103
f 102/102/102 103/103/103 104/104/104
f 104/104/104 103/103/103 105/105/105
f 104/104/104 105/105/105 106/106/106
f 106/106/106 105/105/105 107/107/107
f 106/106/106 107/107/107 108/108/108
f 108/108/108 107/107/107 109/109/109
f 108/108/108 109/109/109 110/110/110
f 110/110/110 109/109/109 111/111/111
f 110/110/110 111/111/111 112/112/112
f 112/112/112 111/111/111 113/113/113
f 112/112/112 113/113/113 114/114/114
f 114/114/114 113/113/113 115/115/115
f 114/114/114 115/115/115 116/116/116
f 116/116/116 115/115/115 117/117/117
f 116/116/116 117/117/117 118/118/118
f 118/118/118 117/117/117 119/119/119
f 118/118/118 119/119/119 120/120/120
f 120/120/120 119/119/119 121/121/121
f 120/120/120 121/121/121 122/122/122
f 122/122/122 121/121/121 123/123/123
f 122/122/122 123/123/123 124/124/124
f 124/124/124 123/123/123 125/125/125
f 124/124/124 125/125/125 126/126/126
f 126/126/126 125/125/125 127/127/127
f 126/126/126 127/127/127 128/128/128
f 128/128/128 127/127/127 129/129/129
f 128/128/128 129/129/129 130/130/130
