g Md_CMN_Corn_03
v 0.073998146 -3.1668274E-06 -0.0072877454
v 0.49759218 0.9999968 -0.04900839
v 0.072924994 -3.1668274E-06 -0.014505896
v 0.49039248 0.9999968 -0.097544976
v 0.07115143 -3.1668274E-06 -0.021582736
v 0.47847003 0.9999968 -0.14514212
v 0.06869385 -3.1668274E-06 -0.02845273
v 0.4619396 0.9999968 -0.19134149
v 0.0655727 -3.1668274E-06 -0.035051364
v 0.4409605 0.9999968 -0.23569812
v 0.061824873 -3.1668274E-06 -0.041307982
v 0.41573474 0.9999968 -0.27778488
v 0.057481077 -3.1668274E-06 -0.047169343
v 0.3865052 0.9999968 -0.31719643
v 0.05257818 -3.1668274E-06 -0.052578084
v 0.35355338 0.9999968 -0.3535532
v 0.047169436 -3.1668274E-06 -0.057480983
v 0.31719667 0.9999968 -0.386505
v 0.04130808 -3.1668274E-06 -0.06182068
v 0.27778518 0.9999968 -0.4157346
v 0.03505146 -3.1668274E-06 -0.0655767
v 0.23569843 0.9999968 -0.4409604
v 0.028452825 -3.1668274E-06 -0.06868965
v 0.1913418 0.9999968 -0.46193954
v 0.021582833 -3.1668274E-06 -0.07114315
v 0.14514244 0.9999968 -0.47846994
v 0.014505992 -3.1668274E-06 -0.0729208
v 0.097545266 0.9999968 -0.49039248
v 0.007287841 -3.1668274E-06 -0.07399395
v 0.049008694 0.9999968 -0.49759224
v 6.984492E-08 -3.1668274E-06 -0.074354395
v 1.4156103E-07 0.9999968 -0.49999985
v -0.0072877263 -3.1668274E-06 -0.07399395
v -0.049008418 0.9999968 -0.49759224
v -0.014505877 -3.1668274E-06 -0.0729208
v -0.097545005 0.9999968 -0.49039254
v -0.021582717 -3.1668274E-06 -0.07114315
v -0.14514217 0.9999968 -0.47847006
v -0.028452711 -3.1668274E-06 -0.06868965
v -0.19134155 0.9999968 -0.46193966
v -0.035051346 -3.1668274E-06 -0.0655767
v -0.23569818 0.9999968 -0.44096056
v -0.041307963 -3.1668274E-06 -0.06182068
v -0.27778494 0.9999968 -0.41573477
v -0.04716932 -3.1668274E-06 -0.057480983
v -0.3171965 0.9999968 -0.3865052
v -0.052578066 -3.1668274E-06 -0.052578084
v -0.35355324 0.9999968 -0.35355335
v -0.057480965 -3.1668274E-06 -0.047169343
v -0.38650504 0.9999968 -0.31719664
v -0.061824758 -3.1668274E-06 -0.041307982
v -0.41573465 0.9999968 -0.27778512
v -0.06557258 -3.1668274E-06 -0.035051364
v -0.4409605 0.9999968 -0.23569839
v -0.068693735 -3.1668274E-06 -0.02845273
v -0.4619396 0.9999968 -0.19134174
v -0.07115131 -3.1668274E-06 -0.021582736
v -0.47847003 0.9999968 -0.14514239
v -0.07292488 -3.1668274E-06 -0.014505896
v -0.49039248 0.9999968 -0.09754522
v -0.07399803 -3.1668274E-06 -0.0072877454
v -0.49759224 0.9999968 -0.049008645
v -0.07435028 -3.1668274E-06 1.9404848E-08
v -0.49999988 0.9999968 -8.940697E-08
v -0.07399803 -3.1668274E-06 0.0072878217
v -0.49759227 0.9999968 0.04900847
v -0.07292488 -3.1668274E-06 0.014505972
v -0.49039257 0.9999968 0.09754506
v -0.07115131 -3.1668274E-06 0.021582812
v -0.47847006 0.9999968 0.14514221
v -0.068693735 -3.1668274E-06 0.028452806
v -0.46193966 0.9999968 0.19134161
v -0.06557258 -3.1668274E-06 0.03505144
v -0.44096056 0.9999968 0.23569825
v -0.061824758 -3.1668274E-06 0.04130806
v -0.41573477 0.9999968 0.277785
v -0.057480965 -3.1668274E-06 0.047169417
v -0.3865052 0.9999968 0.31719655
v -0.052578066 -3.1668274E-06 0.052578162
v -0.35355335 0.9999968 0.3535533
v -0.04716932 -3.1668274E-06 0.057481058
v -0.31719664 0.9999968 0.38650513
v -0.041307963 -3.1668274E-06 0.061820753
v -0.27778512 0.9999968 0.4157347
v -0.035051346 -3.1668274E-06 0.065576784
v -0.23569837 0.9999968 0.44096053
v -0.028452711 -3.1668274E-06 0.06868973
v -0.19134171 0.9999968 0.46193966
v -0.021582717 -3.1668274E-06 0.071143225
v -0.14514235 0.9999968 0.47847006
v -0.014505877 -3.1668274E-06 0.072920874
v -0.09754518 0.9999968 0.49039257
v -0.0072877263 -3.1668274E-06 0.073994026
v -0.049008597 0.9999968 0.4975923
v 4.3807418E-08 -3.1668274E-06 0.07435448
v -3.3527613E-08 0.9999968 0.4999999
v 0.007287841 -3.1668274E-06 0.073994026
v 0.04900853 0.9999968 0.4975923
v 0.014505992 -3.1668274E-06 0.072920874
v 0.09754512 0.9999968 0.4903926
v 0.021582833 -3.1668274E-06 0.071143225
v 0.14514227 0.9999968 0.47847012
v 0.028452825 -3.1668274E-06 0.06868973
v 0.19134167 0.9999968 0.4619397
v 0.03505146 -3.1668274E-06 0.065576784
v 0.23569831 0.9999968 0.44096062
v 0.04130808 -3.1668274E-06 0.061820753
v 0.27778506 0.9999968 0.41573483
v 0.047169436 -3.1668274E-06 0.057481058
v 0.3171966 0.9999968 0.3865052
v 0.05257818 -3.1668274E-06 0.052578162
v 0.35355335 0.9999968 0.35355338
v 0.057481077 -3.1668274E-06 0.047169417
v 0.3865052 0.9999968 0.31719664
v 0.061824873 -3.1668274E-06 0.04130806
v 0.41573477 0.9999968 0.27778512
v 0.0655727 -3.1668274E-06 0.03505144
v 0.44096062 0.9999968 0.23569837
v 0.06869385 -3.1668274E-06 0.028452806
v 0.46193972 0.9999968 0.19134171
v 0.07115143 -3.1668274E-06 0.021582812
v 0.47847015 0.9999968 0.14514235
v 0.072924994 -3.1668274E-06 0.014505972
v 0.4903926 0.9999968 0.09754516
v 0.073998146 -3.1668274E-06 0.0072878217
v 0.49759233 0.9999968 0.049008567
v 0.074350394 -3.1668274E-06 3.2699482E-08
v 0.5 0.9999968 0
v 0.073998146 -3.1668274E-06 -0.0072877454
v 0.49759218 0.9999968 -0.04900839
vt 0 0.00024046656
vt 0 0.9998429
vt 0.015624911 0.00024046656
vt 0.015624911 0.9998429
vt 0.03125 0.00024046656
vt 0.03125 0.9998429
vt 0.04687497 0.00024046656
vt 0.04687497 0.9998429
vt 0.06249997 0.00024046656
vt 0.06249997 0.9998429
vt 0.07812494 0.00024046656
vt 0.07812494 0.9998429
vt 0.09375 0.00024046656
vt 0.09375 0.9998429
vt 0.10937497 0.00024046656
vt 0.10937497 0.9998429
vt 0.12499997 0.00024046656
vt 0.12499997 0.9998429
vt 0.14062497 0.00024046656
vt 0.14062497 0.9998429
vt 0.15624997 0.00024046656
vt 0.15624997 0.9998429
vt 0.17187497 0.00024046656
vt 0.17187497 0.9998429
vt 0.18749997 0.00024046656
vt 0.18749997 0.9998429
vt 0.20312494 0.00024046656
vt 0.20312494 0.9998429
vt 0.21874997 0.00024046656
vt 0.21874997 0.9998429
vt 0.23437497 0.00024046656
vt 0.23437497 0.9998429
vt 0.25 0.00024046656
vt 0.25 0.9998429
vt 0.265625 0.00024046656
vt 0.265625 0.9998429
vt 0.28124997 0.00024046656
vt 0.28124997 0.9998429
vt 0.29687494 0.00024046656
vt 0.29687494 0.9998429
vt 0.31249994 0.00024046656
vt 0.31249994 0.9998429
vt 0.328125 0.00024046656
vt 0.328125 0.9998429
vt 0.34374997 0.00024046656
vt 0.34374997 0.9998429
vt 0.359375 0.00024046656
vt 0.359375 0.9998429
vt 0.375 0.00024046656
vt 0.375 0.9998429
vt 0.390625 0.00024046656
vt 0.390625 0.9998429
vt 0.40624997 0.00024046656
vt 0.40624997 0.9998429
vt 0.421875 0.00024046656
vt 0.421875 0.9998429
vt 0.4375 0.00024046656
vt 0.4375 0.9998429
vt 0.453125 0.00024046656
vt 0.453125 0.9998429
vt 0.46874997 0.00024046656
vt 0.46874997 0.9998429
vt 0.484375 0.00024046656
vt 0.484375 0.9998429
vt 0.5 0.00024046656
vt 0.5 0.9998429
vt 0.515625 0.00024046656
vt 0.515625 0.9998429
vt 0.53125 0.00024046656
vt 0.53125 0.9998429
vt 0.54687494 0.00024046656
vt 0.54687494 0.9998429
vt 0.56250006 0.00024046656
vt 0.56250006 0.9998429
vt 0.5781251 0.00024046656
vt 0.5781251 0.9998429
vt 0.59375 0.00024046656
vt 0.59375 0.9998429
vt 0.609375 0.00024046656
vt 0.609375 0.9998429
vt 0.625 0.00024046656
vt 0.625 0.9998429
vt 0.640625 0.00024046656
vt 0.640625 0.9998429
vt 0.65625 0.00024046656
vt 0.65625 0.9998429
vt 0.6718749 0.00024046656
vt 0.6718749 0.9998429
vt 0.68750006 0.00024046656
vt 0.68750006 0.9998429
vt 0.7031251 0.00024046656
vt 0.7031251 0.9998429
vt 0.71875 0.00024046656
vt 0.71875 0.9998429
vt 0.734375 0.00024046656
vt 0.734375 0.9998429
vt 0.75 0.00024046656
vt 0.75 0.9998429
vt 0.7656251 0.00024046656
vt 0.7656251 0.9998429
vt 0.78125 0.00024046656
vt 0.78125 0.9998429
vt 0.796875 0.00024046656
vt 0.796875 0.9998429
vt 0.81250006 0.00024046656
vt 0.81250006 0.9998429
vt 0.828125 0.00024046656
vt 0.828125 0.9998429
vt 0.84375 0.00024046656
vt 0.84375 0.9998429
vt 0.859375 0.00024046656
vt 0.859375 0.9998429
vt 0.8750001 0.00024046656
vt 0.8750001 0.9998429
vt 0.890625 0.00024046656
vt 0.890625 0.9998429
vt 0.9062501 0.00024046656
vt 0.9062501 0.9998429
vt 0.921875 0.00024046656
vt 0.921875 0.9998429
vt 0.93750006 0.00024046656
vt 0.93750006 0.9998429
vt 0.953125 0.00024046656
vt 0.953125 0.9998429
vt 0.96875 0.00024046656
vt 0.96875 0.9998429
vt 0.9843751 0.00024046656
vt 0.9843751 0.9998429
vt 0.9999577 0.00024046656
vt 0.9999577 0.9998429
vn 0.91602653 -0.39165327 -0.08662091
vn 0.91569453 -0.3916431 -0.090105824
vn 0.9030617 -0.39163655 -0.17635271
vn 0.9024531 -0.3916445 -0.17942396
vn 0.88147295 -0.39164063 -0.26386172
vn 0.8805208 -0.3916447 -0.26701602
vn 0.8513751 -0.39164338 -0.3489642
vn 0.85010874 -0.3916446 -0.3520364
vn 0.8131243 -0.39164194 -0.4306338
vn 0.8115102 -0.39164382 -0.43366602
vn 0.76707524 -0.3916458 -0.50814295
vn 0.76509684 -0.3916421 -0.5111197
vn 0.71347857 -0.3916446 -0.5810015
vn 0.7113137 -0.39164144 -0.583652
vn 0.65302145 -0.39163804 -0.64821494
vn 0.6506806 -0.39164153 -0.6505626
vn 0.5861073 -0.3916419 -0.7092918
vn 0.5837805 -0.3916436 -0.71120715
vn 0.5139728 -0.39163098 -0.7631888
vn 0.51125914 -0.39164382 -0.7650028
vn 0.43662038 -0.39165208 -0.80992055
vn 0.43381292 -0.3916447 -0.81143135
vn 0.35464114 -0.39162886 -0.84903264
vn 0.3521894 -0.3916492 -0.8500432
vn 0.27037698 -0.39163852 -0.87949735
vn 0.26717564 -0.39164913 -0.8804704
vn 0.18324432 -0.39165595 -0.9016801
vn 0.17958818 -0.39164641 -0.90241957
vn 0.0938493 -0.39164847 -0.91531616
vn 0.09027045 -0.39164454 -0.9156777
vn 0.0033934056 -0.39164707 -0.9201092
vn 8.3260406E-05 -0.39164454 -0.92011654
vn -0.087087385 -0.39163792 -0.9159888
vn -0.09010391 -0.39164647 -0.9156934
vn -0.17658581 -0.3916399 -0.9030148
vn -0.17942363 -0.39164925 -0.9024511
vn -0.26385808 -0.39163733 -0.88147557
vn -0.26701528 -0.3916493 -0.880519
vn -0.34834838 -0.39165458 -0.85162205
vn -0.35203558 -0.39164484 -0.85010904
vn -0.43064412 -0.39165616 -0.81311196
vn -0.43366584 -0.39164394 -0.8115103
vn -0.5083057 -0.391632 -0.7669744
vn -0.51111937 -0.39164355 -0.76509625
vn -0.5808602 -0.39165276 -0.71358913
vn -0.58365196 -0.39164162 -0.7113137
vn -0.64821696 -0.3916378 -0.6530196
vn -0.6505626 -0.39164174 -0.65068036
vn -0.70917237 -0.39164096 -0.5862524
vn -0.71120733 -0.3916424 -0.5837811
vn -0.7633036 -0.39163548 -0.51379895
vn -0.76500255 -0.39164388 -0.5112593
vn -0.8099212 -0.39163822 -0.43663156
vn -0.81143117 -0.39164457 -0.43381336
vn -0.8487755 -0.39164287 -0.3552406
vn -0.85004485 -0.39164475 -0.35219046
vn -0.8794982 -0.391642 -0.27036905
vn -0.88047236 -0.3916445 -0.267176
vn -0.90173113 -0.39164457 -0.18301798
vn -0.90242094 -0.3916433 -0.17958838
vn -0.9153667 -0.391646 -0.09336644
vn -0.9156777 -0.39164463 -0.09027054
vn -0.92011607 -0.39163095 -0.0034079612
vn -0.92011654 -0.39164463 -8.388247E-05
vn -0.91602653 -0.39165345 0.086620346
vn -0.9156947 -0.3916433 0.09010396
vn -0.9030617 -0.3916367 0.1763526
vn -0.90245306 -0.39164457 0.17942414
vn -0.8814727 -0.39164117 0.26386186
vn -0.8805208 -0.3916446 0.2670163
vn -0.8513743 -0.39164424 0.34896496
vn -0.85010904 -0.3916446 0.35203576
vn -0.81312335 -0.3916425 0.43063518
vn -0.8115104 -0.391644 0.43366563
vn -0.7670758 -0.39164495 0.5081427
vn -0.7650964 -0.39164224 0.51112026
vn -0.7134762 -0.39164558 0.5810037
vn -0.7113137 -0.39164144 0.583652
vn -0.6530182 -0.3916399 0.64821714
vn -0.65068096 -0.39164144 0.65056235
vn -0.58610576 -0.39164177 0.70929307
vn -0.58378094 -0.3916436 0.71120685
vn -0.51396966 -0.39163005 0.7631913
vn -0.5112592 -0.391644 0.7650026
vn -0.4366194 -0.39165145 0.8099213
vn -0.433813 -0.39164484 0.8114312
vn -0.3546408 -0.39162898 0.8490328
vn -0.35218886 -0.39164925 0.8500435
vn -0.27037972 -0.39163873 0.87949634
vn -0.26717475 -0.39164916 0.88047063
vn -0.18324965 -0.39165586 0.90167916
vn -0.17958732 -0.3916464 0.90241975
vn -0.093851954 -0.39164844 0.9153159
vn -0.09026998 -0.39164457 0.9156777
vn -0.0033934065 -0.39164707 0.92010933
vn -8.3260384E-05 -0.39164454 0.92011654
vn 0.08708739 -0.39163786 0.9159889
vn 0.0901039 -0.39164647 0.9156934
vn 0.17658582 -0.3916399 0.9030148
vn 0.17942406 -0.39164934 0.90245104
vn 0.26385552 -0.39163744 0.8814762
vn 0.26701564 -0.3916493 0.88051885
vn 0.34834597 -0.39165464 0.85162294
vn 0.35203585 -0.39164466 0.8501089
vn 0.4306443 -0.39165664 0.81311166
vn 0.43366614 -0.39164382 0.81151015
vn 0.50830597 -0.39163253 0.766974
vn 0.5111199 -0.39164358 0.765096
vn 0.58086026 -0.39165276 0.71358913
vn 0.58365196 -0.39164153 0.7113137
vn 0.6482171 -0.39163777 0.65301955
vn 0.65056235 -0.39164174 0.65068066
vn 0.70917183 -0.39164057 0.5862533
vn 0.7112075 -0.3916424 0.5837808
vn 0.7633031 -0.39163515 0.51379985
vn 0.7650029 -0.39164385 0.5112588
vn 0.80992085 -0.3916383 0.43663204
vn 0.81143117 -0.39164457 0.4338133
vn 0.84877545 -0.3916432 0.3552406
vn 0.8500449 -0.39164472 0.35219035
vn 0.87949836 -0.39164177 0.27036875
vn 0.88047236 -0.39164457 0.267176
vn 0.90173113 -0.39164433 0.18301797
vn 0.90242094 -0.39164317 0.17958836
vn 0.9153666 -0.39164615 0.09336628
vn 0.9156777 -0.3916445 0.09027045
vn 0.92011607 -0.39163095 0.0034079594
vn 0.92011654 -0.3916446 8.216004E-05
vn 0.91602653 -0.39165327 -0.08662091
vn 0.91569453 -0.3916431 -0.090105824
g Md_CMN_Corn_03_0
f 3/3/3 2/2/2 1/1/1
f 3/3/3 4/4/4 2/2/2
f 5/5/5 4/4/4 3/3/3
f 5/5/5 6/6/6 4/4/4
f 7/7/7 6/6/6 5/5/5
f 7/7/7 8/8/8 6/6/6
f 9/9/9 8/8/8 7/7/7
f 9/9/9 10/10/10 8/8/8
f 11/11/11 10/10/10 9/9/9
f 11/11/11 12/12/12 10/10/10
f 13/13/13 12/12/12 11/11/11
f 13/13/13 14/14/14 12/12/12
f 15/15/15 14/14/14 13/13/13
f 15/15/15 16/16/16 14/14/14
f 17/17/17 16/16/16 15/15/15
f 17/17/17 18/18/18 16/16/16
f 19/19/19 18/18/18 17/17/17
f 19/19/19 20/20/20 18/18/18
f 21/21/21 20/20/20 19/19/19
f 21/21/21 22/22/22 20/20/20
f 23/23/23 22/22/22 21/21/21
f 23/23/23 24/24/24 22/22/22
f 25/25/25 24/24/24 23/23/23
f 25/25/25 26/26/26 24/24/24
f 27/27/27 26/26/26 25/25/25
f 27/27/27 28/28/28 26/26/26
f 29/29/29 28/28/28 27/27/27
f 29/29/29 30/30/30 28/28/28
f 31/31/31 30/30/30 29/29/29
f 31/31/31 32/32/32 30/30/30
f 33/33/33 32/32/32 31/31/31
f 33/33/33 34/34/34 32/32/32
f 35/35/35 34/34/34 33/33/33
f 35/35/35 36/36/36 34/34/34
f 37/37/37 36/36/36 35/35/35
f 37/37/37 38/38/38 36/36/36
f 39/39/39 38/38/38 37/37/37
f 39/39/39 40/40/40 38/38/38
f 41/41/41 40/40/40 39/39/39
f 41/41/41 42/42/42 40/40/40
f 43/43/43 42/42/42 41/41/41
f 43/43/43 44/44/44 42/42/42
f 45/45/45 44/44/44 43/43/43
f 45/45/45 46/46/46 44/44/44
f 47/47/47 46/46/46 45/45/45
f 47/47/47 48/48/48 46/46/46
f 49/49/49 48/48/48 47/47/47
f 49/49/49 50/50/50 48/48/48
f 51/51/51 50/50/50 49/49/49
f 51/51/51 52/52/52 50/50/50
f 53/53/53 52/52/52 51/51/51
f 53/53/53 54/54/54 52/52/52
f 55/55/55 54/54/54 53/53/53
f 55/55/55 56/56/56 54/54/54
f 57/57/57 56/56/56 55/55/55
f 57/57/57 58/58/58 56/56/56
f 59/59/59 58/58/58 57/57/57
f 59/59/59 60/60/60 58/58/58
f 61/61/61 60/60/60 59/59/59
f 61/61/61 62/62/62 60/60/60
f 63/63/63 62/62/62 61/61/61
f 63/63/63 64/64/64 62/62/62
f 65/65/65 64/64/64 63/63/63
f 65/65/65 66/66/66 64/64/64
f 67/67/67 66/66/66 65/65/65
f 67/67/67 68/68/68 66/66/66
f 69/69/69 68/68/68 67/67/67
f 69/69/69 70/70/70 68/68/68
f 71/71/71 70/70/70 69/69/69
f 71/71/71 72/72/72 70/70/70
f 73/73/73 72/72/72 71/71/71
f 73/73/73 74/74/74 72/72/72
f 75/75/75 74/74/74 73/73/73
f 75/75/75 76/76/76 74/74/74
f 77/77/77 76/76/76 75/75/75
f 77/77/77 78/78/78 76/76/76
f 79/79/79 78/78/78 77/77/77
f 79/79/79 80/80/80 78/78/78
f 81/81/81 80/80/80 79/79/79
f 81/81/81 82/82/82 80/80/80
f 83/83/83 82/82/82 81/81/81
f 83/83/83 84/84/84 82/82/82
f 85/85/85 84/84/84 83/83/83
f 85/85/85 86/86/86 84/84/84
f 87/87/87 86/86/86 85/85/85
f 87/87/87 88/88/88 86/86/86
f 89/89/89 88/88/88 87/87/87
f 89/89/89 90/90/90 88/88/88
f 91/91/91 90/90/90 89/89/89
f 91/91/91 92/92/92 90/90/90
f 93/93/93 92/92/92 91/91/91
f 93/93/93 94/94/94 92/92/92
f 95/95/95 94/94/94 93/93/93
f 95/95/95 96/96/96 94/94/94
f 97/97/97 96/96/96 95/95/95
f 97/97/97 98/98/98 96/96/96
f 99/99/99 98/98/98 97/97/97
f 99/99/99 100/100/100 98/98/98
f 101/101/101 100/100/100 99/99/99
f 101/101/101 102/102/102 100/100/100
f 103/103/103 102/102/102 101/101/101
f 103/103/103 104/104/104 102/102/102
f 105/105/105 104/104/104 103/103/103
f 105/105/105 106/106/106 104/104/104
f 107/107/107 106/106/106 105/105/105
f 107/107/107 108/108/108 106/106/106
f 109/109/109 108/108/108 107/107/107
f 109/109/109 110/110/110 108/108/108
f 111/111/111 110/110/110 109/109/109
f 111/111/111 112/112/112 110/110/110
f 113/113/113 112/112/112 111/111/111
f 113/113/113 114/114/114 112/112/112
f 115/115/115 114/114/114 113/113/113
f 115/115/115 116/116/116 114/114/114
f 117/117/117 116/116/116 115/115/115
f 117/117/117 118/118/118 116/116/116
f 119/119/119 118/118/118 117/117/117
f 119/119/119 120/120/120 118/118/118
f 121/121/121 120/120/120 119/119/119
f 121/121/121 122/122/122 120/120/120
f 123/123/123 122/122/122 121/121/121
f 123/123/123 124/124/124 122/122/122
f 125/125/125 124/124/124 123/123/123
f 125/125/125 126/126/126 124/124/124
f 127/127/127 126/126/126 125/125/125
f 127/127/127 128/128/128 126/126/126
f 129/129/129 128/128/128 127/127/127
f 129/129/129 130/130/130 128/128/128
