g Md_CMN_HemiSphere_00
v 0.4924036 0 -0.08682365
v 0.48634127 0.078217186 -0.08575471
v 0.4698461 0 -0.1710096
v 0.46406153 0.078217186 -0.16890419
v 0.46830362 0.15450849 -0.082574196
v 0.4330126 0 -0.2499995
v 0.44685024 0.15450849 -0.16263978
v 0.4387348 0.22699526 -0.07736044
v 0.4276815 0.078217186 -0.24692158
v 0.3830222 0 -0.3213933
v 0.41863596 0.22699526 -0.15237066
v 0.39836287 0.29389262 -0.07024181
v 0.37830657 0.078217186 -0.31743643
v 0.32139385 0 -0.38302174
v 0.41181946 0.15450849 -0.23776367
v 0.3801135 0.29389262 -0.13834967
v 0.3481819 0.35355338 -0.06139359
v 0.31743696 0.078217186 -0.37830612
v 0.25000012 0 -0.43301222
v 0.36427572 0.15450849 -0.3056632
v 0.38581702 0.22699526 -0.2227512
v 0.33223137 0.35355338 -0.12092204
v 0.28942758 0.4045085 -0.051033657
v 0.2469222 0.078217186 -0.42768115
v 0.17101024 0 -0.46984586
v 0.35031456 0.29389262 -0.20225385
v 0.30566373 0.15450849 -0.3642753
v 0.34127527 0.22699526 -0.28636354
v 0.2761686 0.4045085 -0.100516915
v 0.22354656 0.44550326 -0.039417114
v 0.16890484 0.078217186 -0.46406132
v 0.08682433 0 -0.49240348
v 0.30618614 0.35355338 -0.17677635
v 0.30987146 0.29389262 -0.26001266
v 0.23776425 0.15450849 -0.4118191
v 0.28636402 0.22699526 -0.34127486
v 0.21330568 0.44550326 -0.07763673
v 0.15216108 0.47552824 -0.026829984
v 0.085755385 0.078217186 -0.4863412
v 2.9802322E-07 0 -0.49999967
v 0.25451842 0.4045085 -0.14694603
v 0.27083758 0.35355338 -0.22725938
v 0.26001307 0.29389262 -0.3098711
v 0.16264042 0.15450849 -0.44685
v 0.22275172 0.22699526 -0.38581675
v 0.14519045 0.47552824 -0.05284487
v 0.0770289 0.49384418 -0.013582211
v 0.19658361 0.44550326 -0.113497406
v 0.22513479 0.4045085 -0.18891025
v 0.22725977 0.35355338 -0.27083728
v 0.20225433 0.29389262 -0.35031426
v 0.15237126 0.22699526 -0.41863573
v 0.073500134 0.49384418 -0.026751796
v -0 0.5 0
v 0.13380824 0.47552824 -0.0772541
v 0.17388843 0.44550326 -0.14590952
v 0.18891056 0.4045085 -0.22513452
v 0.17677678 0.35355338 -0.3061859
v 0.0677381 0.49384418 -0.03910854
v -0 0.5 0
v 0.11836036 0.47552824 -0.099316
v 0.14590976 0.44550326 -0.17388824
v 0.059917875 0.49384418 -0.050276995
v -0 0.5 0
v 0.099316165 0.47552824 -0.11836023
v 0.14694639 0.4045085 -0.2545182
v 0.1383502 0.29389262 -0.38011327
v 0.050277073 0.49384418 -0.0599178
v -0 0.5 0
v 0.11349768 0.44550326 -0.19658343
v 0.120922506 0.35355338 -0.33223122
v 0.07725428 0.47552824 -0.13380815
v 0.1005173 0.4045085 -0.2761685
v 0.039108638 0.49384418 -0.06773804
v -0 0.5 0
v 0.07763703 0.44550326 -0.21330556
v 0.052845076 0.47552824 -0.14519037
v 0.026751898 0.49384418 -0.0735001
v -0 0.5 0
v 0.07024236 0.29389262 -0.3983628
v 0.061394077 0.35355338 -0.34818184
v 0.051034063 0.4045085 -0.28942752
v 0.039417423 0.44550326 -0.22354652
v 0.026830196 0.47552824 -0.15216106
v 0.07736105 0.22699526 -0.43873474
v 0.013582319 0.49384418 -0.077028885
v -0 0.5 0
v 0.08257485 0.15450849 -0.46830356
v 2.9435407E-07 0.078217186 -0.49384388
v -0.086823754 0 -0.49240363
v 2.8343695E-07 0.15450849 -0.47552794
v -0.08575482 0.078217186 -0.48634136
v -0.17100973 0 -0.46984613
v 2.6554065E-07 0.22699526 -0.445503
v -0.16890432 0.078217186 -0.4640616
v -0.24999966 0 -0.4330126
v -0.08257431 0.15450849 -0.4683037
v 2.4110585E-07 0.29389262 -0.40450823
v -0.24692175 0.078217186 -0.4276815
v -0.32139346 0 -0.38302216
v -0.16263992 0.15450849 -0.44685027
v -0.07736054 0.22699526 -0.43873486
v 2.1073424E-07 0.35355338 -0.35355315
v -0.31743658 0.078217186 -0.37830654
v -0.38302183 0 -0.32139376
v -0.0702419 0.29389262 -0.3983629
v -0.2377638 0.15450849 -0.41181946
v -0.1523708 0.22699526 -0.41863596
v 1.7517364E-07 0.4045085 -0.29389244
v -0.37830624 0.078217186 -0.3174369
v -0.43301234 0 -0.25000003
v -0.06139367 0.35355338 -0.34818193
v -0.13834979 0.29389262 -0.3801135
v -0.30566332 0.15450849 -0.36427572
v -0.22275132 0.22699526 -0.38581702
v 1.3529971E-07 0.44550326 -0.22699513
v -0.42768127 0.078217186 -0.2469221
v -0.46984595 0 -0.17101015
v -0.051033724 0.4045085 -0.2894276
v -0.12092213 0.35355338 -0.3322314
v -0.20225397 0.29389262 -0.35031456
v -0.36427543 0.15450849 -0.30566368
v -0.28636366 0.22699526 -0.34127524
v 9.209424E-08 0.47552824 -0.15450841
v -0.039417166 0.44550326 -0.2235466
v -0.100517 0.4045085 -0.27616864
v -0.17677644 0.35355338 -0.30618614
v -0.26001278 0.29389262 -0.30987144
v -0.34127498 0.22699526 -0.28636396
v 4.6621107E-08 0.49384418 -0.07821719
v -0 0.5 0
v -0.02683002 0.47552824 -0.15216109
v -0.0776368 0.44550326 -0.2133057
v -0.1469461 0.4045085 -0.25451842
v -0.22725947 0.35355338 -0.27083758
v -0.01358223 0.49384418 -0.07702891
v -0 0.5 0
v -0.052844916 0.47552824 -0.14519045
v -0.11349747 0.44550326 -0.19658361
v -0.026751818 0.49384418 -0.07350014
v -0 0.5 0
v -0.07725415 0.47552824 -0.13380824
v -0.18891032 0.4045085 -0.22513478
v -0.3098712 0.29389262 -0.26001304
v -0.039108567 0.49384418 -0.0677381
v -0 0.5 0
v -0.14590958 0.44550326 -0.17388843
v -0.27083734 0.35355338 -0.22725973
v -0.09931604 0.47552824 -0.11836036
v -0.2251346 0.4045085 -0.18891051
v -0.050277017 0.49384418 -0.059917867
v -0 0.5 0
v -0.1738883 0.44550326 -0.14590973
v -0.11836026 0.47552824 -0.099316135
v -0.05991782 0.49384418 -0.05027707
v -0 0.5 0
v -0.35031435 0.29389262 -0.20225427
v -0.30618593 0.35355338 -0.1767767
v -0.25451827 0.4045085 -0.14694633
v -0.19658351 0.44550326 -0.113497645
v -0.13380818 0.47552824 -0.07725426
v -0.38581684 0.22699526 -0.22275165
v -0.06773806 0.49384418 -0.039108623
v -0 0.5 0
v -0.41181925 0.15450849 -0.23776416
v -0.46406138 0.078217186 -0.16890474
v -0.4924036 0 -0.086824216
v -0.4468501 0.15450849 -0.16264032
v -0.48634127 0.078217186 -0.08575526
v -0.49999976 0 -1.6391277E-07
v -0.41863585 0.22699526 -0.15237117
v -0.49384394 0.078217186 -1.6189473E-07
v -0.49240366 0 0.08682389
v -0.46830362 0.15450849 -0.08257474
v -0.3801134 0.29389262 -0.13835011
v -0.4863414 0.078217186 0.08575495
v -0.4698462 0 0.17100987
v -0.47552803 0.15450849 -1.5589032E-07
v -0.4387348 0.22699526 -0.07736094
v -0.33223128 0.35355338 -0.12092244
v -0.46406162 0.078217186 0.16890445
v -0.4330126 0 0.2499998
v -0.39836287 0.29389262 -0.07024226
v -0.46830374 0.15450849 0.082574435
v -0.44550303 0.22699526 -1.4604736E-07
v -0.27616853 0.4045085 -0.10051724
v -0.42768154 0.078217186 0.2469219
v -0.3830222 0 0.3213936
v -0.3481819 0.35355338 -0.061393987
v -0.40450832 0.29389262 -1.3260822E-07
v -0.44685027 0.15450849 0.16264005
v -0.4387349 0.22699526 0.07736066
v -0.21330562 0.44550326 -0.07763699
v -0.37830657 0.078217186 0.31743672
v -0.32139376 0 0.38302198
v -0.28942758 0.4045085 -0.051033992
v -0.3535532 0.35355338 -1.1590383E-07
v -0.39836296 0.29389262 0.07024201
v -0.4118195 0.15450849 0.23776396
v -0.418636 0.22699526 0.1523709
v -0.1451904 0.47552824 -0.052845042
v -0.22354656 0.44550326 -0.03941737
v -0.29389247 0.4045085 -9.634551E-08
v -0.348182 0.35355338 0.06139376
v -0.3801135 0.29389262 0.13834989
v -0.38581705 0.22699526 0.22275144
v -0.07350011 0.49384418 -0.026751883
v -0 0.5 0
v -0.15216108 0.47552824 -0.026830157
v -0.22699516 0.44550326 -7.441484E-08
v -0.2894276 0.4045085 0.051033806
v -0.33223143 0.35355338 0.12092224
v -0.0770289 0.49384418 -0.013582299
v -0 0.5 0
v -0.15450843 0.47552824 -5.065183E-08
v -0.2235466 0.44550326 0.039417226
v -0.0782172 0.49384418 -2.5641606E-08
v -0 0.5 0
v -0.15216109 0.47552824 0.02683006
v -0.27616864 0.4045085 0.10051708
v -0.3503146 0.29389262 0.20225409
v -0.077028915 0.49384418 0.013582251
v -0 0.5 0
v -0.2133057 0.44550326 0.07763686
v -0.30618614 0.35355338 0.17677656
v -0.14519046 0.47552824 0.052844957
v -0.25451845 0.4045085 0.14694619
v -0.07350014 0.49384418 0.026751837
v -0 0.5 0
v -0.19658363 0.44550326 0.11349754
v -0.13380827 0.47552824 0.07725419
v -0.06773811 0.49384418 0.03910859
v -0 0.5 0
v -0.30987146 0.29389262 0.2600129
v -0.27083758 0.35355338 0.22725959
v -0.22513479 0.4045085 0.18891042
v -0.17388843 0.44550326 0.14590965
v -0.11836036 0.47552824 0.09931609
v -0.34127527 0.22699526 0.2863638
v -0.059917875 0.49384418 0.050277036
v -0 0.5 0
v -0.36427572 0.15450849 0.3056635
v -0.3174369 0.078217186 0.3783064
v -0.25 0 0.4330125
v -0.30566368 0.15450849 0.36427557
v -0.24692209 0.078217186 0.42768142
v -0.1710101 0 0.46984613
v -0.28636396 0.22699526 0.34127513
v -0.16890468 0.078217186 0.4640616
v -0.08682415 0 0.49240375
v -0.23776412 0.15450849 0.41181937
v -0.26001304 0.29389262 0.30987132
v -0.08575519 0.078217186 0.48634142
v -7.4505806E-08 0 0.49999988
v -0.16264026 0.15450849 0.44685027
v -0.22275163 0.22699526 0.385817
v -0.22725973 0.35355338 0.27083746
v -7.358852E-08 0.078217186 0.49384406
v 0.08682399 0 0.49240378
v -0.20225425 0.29389262 0.35031447
v -0.08257467 0.15450849 0.46830377
v -0.15237112 0.22699526 0.41863596
v -0.18891051 0.4045085 0.22513467
v 0.08575506 0.078217186 0.48634148
v 0.17100997 0 0.46984625
v -0.17677669 0.35355338 0.30618608
v -0.13835008 0.29389262 0.3801135
v -7.085924E-08 0.15450849 0.47552812
v -0.07736088 0.22699526 0.43873492
v -0.14590973 0.44550326 0.17388836
v 0.16890457 0.078217186 0.46406165
v 0.24999993 0 0.43301263
v -0.14694631 0.4045085 0.25451836
v -0.1209224 0.35355338 0.3322314
v -0.07024221 0.29389262 0.398363
v 0.08257453 0.15450849 0.46830383
v -6.638516E-08 0.22699526 0.44550315
v -0.099316135 0.47552824 0.1183603
v -0.11349763 0.44550326 0.19658357
v -0.10051722 0.4045085 0.27616864
v -0.061393943 0.35355338 0.34818202
v -6.027646E-08 0.29389262 0.40450838
v 0.07736075 0.22699526 0.43873495
v -0.05027707 0.49384418 0.05991785
v -0 0.5 0
v -0.07725425 0.47552824 0.13380823
v -0.077636965 0.44550326 0.2133057
v -0.051033955 0.4045085 0.28942767
v -5.268356E-08 0.35355338 0.3535533
v -0.03910862 0.49384418 0.067738086
v -0 0.5 0
v -0.052845027 0.47552824 0.14519045
v -0.03941734 0.44550326 0.22354664
v -0.026751876 0.49384418 0.07350014
v -0 0.5 0
v -0.026830139 0.47552824 0.15216114
v -4.379341E-08 0.4045085 0.29389256
v 0.07024209 0.29389262 0.39836302
v -0.01358229 0.49384418 0.07702892
v -0 0.5 0
v -3.382493E-08 0.44550326 0.2269952
v 0.06139384 0.35355338 0.34818205
v -2.302356E-08 0.47552824 0.15450847
v 0.051033862 0.4045085 0.28942767
v -1.1655277E-08 0.49384418 0.078217216
v -0 0.5 0
v 0.039417274 0.44550326 0.22354664
v 0.02683009 0.47552824 0.15216114
v 0.013582266 0.49384418 0.07702893
v -0 0.5 0
v 0.13835 0.29389262 0.3801136
v 0.12092231 0.35355338 0.33223143
v 0.10051715 0.4045085 0.2761687
v 0.07763691 0.44550326 0.21330574
v 0.05284499 0.47552824 0.14519048
v 0.15237102 0.22699526 0.41863608
v 0.026751855 0.49384418 0.07350014
v -0 0.5 0
v 0.16264017 0.15450849 0.44685036
v 0.24692202 0.078217186 0.42768157
v 0.32139373 0 0.3830222
v 0.23776405 0.15450849 0.41181952
v 0.31743684 0.078217186 0.37830657
v 0.3830221 0 0.32139376
v 0.22275157 0.22699526 0.3858171
v 0.3783065 0.078217186 0.3174369
v 0.4330126 0 0.25
v 0.30566362 0.15450849 0.36427572
v 0.20225419 0.29389262 0.35031462
v 0.42768154 0.078217186 0.24692209
v 0.46984625 0 0.17101008
v 0.3642757 0.15450849 0.30566368
v 0.2863639 0.22699526 0.34127527
v 0.17677663 0.35355338 0.3061862
v 0.46406168 0.078217186 0.16890466
v 0.49240386 0 0.08682409
v 0.26001298 0.29389262 0.30987146
v 0.4118195 0.15450849 0.23776412
v 0.34127522 0.22699526 0.28636396
v 0.14694627 0.4045085 0.25451845
v 0.48634154 0.078217186 0.08575515
v 0.5 0 0
v 0.22725967 0.35355338 0.27083758
v 0.3098714 0.29389262 0.26001304
v 0.4468504 0.15450849 0.16264026
v 0.38581705 0.22699526 0.22275163
v 0.113497585 0.44550326 0.19658364
v 0.49384418 0.078217186 0
v 0.4924036 0 -0.08682365
v 0.48634127 0.078217186 -0.08575471
v 0.18891048 0.4045085 0.22513479
v 0.27083755 0.35355338 0.22725973
v 0.3503146 0.29389262 0.20225425
v 0.4683039 0.15450849 0.08257462
v 0.47552824 0.15450849 0
v 0.46830362 0.15450849 -0.082574196
v 0.4186361 0.22699526 0.1523711
v 0.43873507 0.22699526 0.07736084
v 0.44550326 0.22699526 0
v 0.4387348 0.22699526 -0.07736044
v 0.38011363 0.29389262 0.13835005
v 0.30618614 0.35355338 0.17677669
v 0.3983631 0.29389262 0.070242174
v 0.4045085 0.29389262 0
v 0.39836287 0.29389262 -0.07024181
v 0.33223146 0.35355338 0.12092238
v 0.22513475 0.4045085 0.18891051
v 0.3481821 0.35355338 0.0613939
v 0.35355338 0.35355338 0
v 0.3481819 0.35355338 -0.06139359
v 0.25451845 0.4045085 0.14694631
v 0.14590971 0.44550326 0.17388843
v 0.2761687 0.4045085 0.10051719
v 0.28942773 0.4045085 0.05103392
v 0.29389262 0.4045085 0
v 0.28942758 0.4045085 -0.051033657
v 0.17388842 0.44550326 0.14590973
v 0.07725423 0.47552824 0.13380827
v 0.19658363 0.44550326 0.11349763
v 0.21330576 0.44550326 0.07763696
v 0.22354667 0.44550326 0.039417315
v 0.22699526 0.44550326 0
v 0.22354656 0.44550326 -0.039417114
v 0.09931613 0.47552824 0.11836036
v 0.039108608 0.49384418 0.06773811
v -0 0.5 0
v 0.11836035 0.47552824 0.099316135
v 0.050277054 0.49384418 0.059917875
v -0 0.5 0
v 0.1545085 0.47552824 0
v 0.15216108 0.47552824 -0.026829984
v 0.13380827 0.47552824 0.07725425
v 0.059917867 0.49384418 0.05027707
v -0 0.5 0
v 0.14519049 0.47552824 0.05284502
v 0.15216117 0.47552824 0.026830122
v 0.06773811 0.49384418 0.03910862
v -0 0.5 0
v 0.07350016 0.49384418 0.02675187
v -0 0.5 0
v 0.07702894 0.49384418 0.013582282
v -0 0.5 0
v 0.07821724 0.49384418 0
v -0 0.5 0
v 0.0770289 0.49384418 -0.013582211
v -0 0.5 0
vt 0 4.040927E-05
vt 0 0.1036509
vt 0.027777778 4.040927E-05
vt 0.027777791 0.1036509
vt 0 0.21115682
vt 0.055555556 4.040927E-05
vt 0.027777791 0.21115682
vt 0 0.31866276
vt 0.055555552 0.1036509
vt 0.083333336 4.040927E-05
vt 0.027777791 0.31866276
vt 0 0.4261687
vt 0.08333334 0.1036509
vt 0.11111111 4.040927E-05
vt 0.055555552 0.21115682
vt 0.027777791 0.4261687
vt 0 0.53367466
vt 0.111111104 0.1036509
vt 0.1388889 4.040927E-05
vt 0.08333334 0.21115682
vt 0.055555552 0.31866276
vt 0.027777791 0.53367466
vt 0 0.64118075
vt 0.1388889 0.1036509
vt 0.16666667 4.040927E-05
vt 0.055555552 0.4261687
vt 0.111111104 0.21115682
vt 0.08333334 0.31866276
vt 0.027777791 0.64118075
vt 0 0.74868655
vt 0.16666669 0.1036509
vt 0.19444445 4.040927E-05
vt 0.055555552 0.53367466
vt 0.08333334 0.4261687
vt 0.1388889 0.21115682
vt 0.111111104 0.31866276
vt 0.027777791 0.74868655
vt 0 0.8561926
vt 0.19444445 0.1036509
vt 0.22222222 4.040927E-05
vt 0.055555552 0.64118075
vt 0.08333334 0.53367466
vt 0.111111104 0.4261687
vt 0.16666669 0.21115682
vt 0.1388889 0.31866276
vt 0.027777791 0.8561926
vt 0 0.95000017
vt 0.055555552 0.74868655
vt 0.08333334 0.64118075
vt 0.111111104 0.53367466
vt 0.1388889 0.4261687
vt 0.16666669 0.31866276
vt 0.027777778 0.95000017
vt 0.013888889 0.99971354
vt 0.055555552 0.8561926
vt 0.08333334 0.74868655
vt 0.111111104 0.64118075
vt 0.1388889 0.53367466
vt 0.055555556 0.95000017
vt 0.041666668 0.99971354
vt 0.08333334 0.8561926
vt 0.111111104 0.74868655
vt 0.083333336 0.95000017
vt 0.06944445 0.99971354
vt 0.111111104 0.8561926
vt 0.1388889 0.64118075
vt 0.16666669 0.4261687
vt 0.11111111 0.95000017
vt 0.097222224 0.99971354
vt 0.1388889 0.74868655
vt 0.16666669 0.53367466
vt 0.1388889 0.8561926
vt 0.16666669 0.64118075
vt 0.1388889 0.95000017
vt 0.125 0.99971354
vt 0.16666669 0.74868655
vt 0.16666669 0.8561926
vt 0.16666667 0.95000017
vt 0.15277779 0.99971354
vt 0.19444445 0.4261687
vt 0.19444445 0.53367466
vt 0.19444445 0.64118075
vt 0.19444445 0.74868655
vt 0.19444445 0.8561926
vt 0.19444445 0.31866276
vt 0.19444445 0.95000017
vt 0.18055557 0.99971354
vt 0.19444445 0.21115682
vt 0.22222221 0.1036509
vt 0.25 4.040927E-05
vt 0.22222221 0.21115682
vt 0.25 0.1036509
vt 0.2777778 4.040927E-05
vt 0.22222221 0.31866276
vt 0.2777778 0.1036509
vt 0.30555558 4.040927E-05
vt 0.25 0.21115682
vt 0.22222221 0.4261687
vt 0.30555558 0.1036509
vt 0.33333337 4.040927E-05
vt 0.2777778 0.21115682
vt 0.25 0.31866276
vt 0.22222221 0.53367466
vt 0.33333337 0.1036509
vt 0.36111116 4.040927E-05
vt 0.25 0.4261687
vt 0.30555558 0.21115682
vt 0.2777778 0.31866276
vt 0.22222221 0.64118075
vt 0.36111116 0.1036509
vt 0.38888896 4.040927E-05
vt 0.25 0.53367466
vt 0.2777778 0.4261687
vt 0.33333337 0.21115682
vt 0.30555558 0.31866276
vt 0.22222221 0.74868655
vt 0.38888896 0.1036509
vt 0.41666675 4.040927E-05
vt 0.25 0.64118075
vt 0.2777778 0.53367466
vt 0.30555558 0.4261687
vt 0.36111116 0.21115682
vt 0.33333337 0.31866276
vt 0.22222221 0.8561926
vt 0.25 0.74868655
vt 0.2777778 0.64118075
vt 0.30555558 0.53367466
vt 0.33333337 0.4261687
vt 0.36111116 0.31866276
vt 0.22222222 0.95000017
vt 0.20833334 0.99971354
vt 0.25 0.8561926
vt 0.2777778 0.74868655
vt 0.30555558 0.64118075
vt 0.33333337 0.53367466
vt 0.25 0.95000017
vt 0.23611112 0.99971354
vt 0.2777778 0.8561926
vt 0.30555558 0.74868655
vt 0.2777778 0.95000017
vt 0.2638889 0.99971354
vt 0.30555558 0.8561926
vt 0.33333337 0.64118075
vt 0.36111116 0.4261687
vt 0.30555558 0.95000017
vt 0.2916667 0.99971354
vt 0.33333337 0.74868655
vt 0.36111116 0.53367466
vt 0.33333337 0.8561926
vt 0.36111116 0.64118075
vt 0.33333337 0.95000017
vt 0.31944445 0.99971354
vt 0.36111116 0.74868655
vt 0.36111116 0.8561926
vt 0.36111116 0.95000017
vt 0.34722224 0.99971354
vt 0.38888896 0.4261687
vt 0.38888896 0.53367466
vt 0.38888896 0.64118075
vt 0.38888896 0.74868655
vt 0.38888896 0.8561926
vt 0.38888896 0.31866276
vt 0.38888896 0.95000017
vt 0.375 0.99971354
vt 0.38888896 0.21115682
vt 0.41666675 0.1036509
vt 0.44444454 4.040927E-05
vt 0.41666675 0.21115682
vt 0.44444454 0.1036509
vt 0.47222233 4.040927E-05
vt 0.41666675 0.31866276
vt 0.47222233 0.1036509
vt 0.5000001 4.040927E-05
vt 0.44444454 0.21115682
vt 0.41666675 0.4261687
vt 0.5000001 0.1036509
vt 0.5277779 4.040927E-05
vt 0.47222233 0.21115682
vt 0.44444454 0.31866276
vt 0.41666675 0.53367466
vt 0.5277779 0.1036509
vt 0.5555557 4.040927E-05
vt 0.44444454 0.4261687
vt 0.5000001 0.21115682
vt 0.47222233 0.31866276
vt 0.41666675 0.64118075
vt 0.5555557 0.1036509
vt 0.5833335 4.040927E-05
vt 0.44444454 0.53367466
vt 0.47222233 0.4261687
vt 0.5277779 0.21115682
vt 0.5000001 0.31866276
vt 0.41666675 0.74868655
vt 0.5833335 0.1036509
vt 0.6111113 4.040927E-05
vt 0.44444454 0.64118075
vt 0.47222233 0.53367466
vt 0.5000001 0.4261687
vt 0.5555557 0.21115682
vt 0.5277779 0.31866276
vt 0.41666675 0.8561926
vt 0.44444454 0.74868655
vt 0.47222233 0.64118075
vt 0.5000001 0.53367466
vt 0.5277779 0.4261687
vt 0.5555557 0.31866276
vt 0.41666675 0.95000017
vt 0.4027778 0.99971354
vt 0.44444454 0.8561926
vt 0.47222233 0.74868655
vt 0.5000001 0.64118075
vt 0.5277779 0.53367466
vt 0.44444454 0.95000017
vt 0.43055555 0.99971354
vt 0.47222233 0.8561926
vt 0.5000001 0.74868655
vt 0.47222233 0.95000017
vt 0.45833334 0.99971354
vt 0.5000001 0.8561926
vt 0.5277779 0.64118075
vt 0.5555557 0.4261687
vt 0.5000001 0.95000017
vt 0.48611113 0.99971354
vt 0.5277779 0.74868655
vt 0.5555557 0.53367466
vt 0.5277779 0.8561926
vt 0.5555557 0.64118075
vt 0.5277779 0.95000017
vt 0.5138889 0.99971354
vt 0.5555557 0.74868655
vt 0.5555557 0.8561926
vt 0.5555557 0.95000017
vt 0.5416667 0.99971354
vt 0.5833335 0.4261687
vt 0.5833335 0.53367466
vt 0.5833335 0.64118075
vt 0.5833335 0.74868655
vt 0.5833335 0.8561926
vt 0.5833335 0.31866276
vt 0.5833335 0.95000017
vt 0.5694445 0.99971354
vt 0.5833335 0.21115682
vt 0.6111113 0.1036509
vt 0.6388891 4.040927E-05
vt 0.6111113 0.21115682
vt 0.6388891 0.1036509
vt 0.66666687 4.040927E-05
vt 0.6111113 0.31866276
vt 0.66666687 0.1036509
vt 0.69444466 4.040927E-05
vt 0.6388891 0.21115682
vt 0.6111113 0.4261687
vt 0.69444466 0.1036509
vt 0.72222245 4.040927E-05
vt 0.66666687 0.21115682
vt 0.6388891 0.31866276
vt 0.6111113 0.53367466
vt 0.72222245 0.1036509
vt 0.75000024 4.040927E-05
vt 0.6388891 0.4261687
vt 0.69444466 0.21115682
vt 0.66666687 0.31866276
vt 0.6111113 0.64118075
vt 0.75000024 0.1036509
vt 0.777778 4.040927E-05
vt 0.6388891 0.53367466
vt 0.66666687 0.4261687
vt 0.72222245 0.21115682
vt 0.69444466 0.31866276
vt 0.6111113 0.74868655
vt 0.777778 0.1036509
vt 0.8055558 4.040927E-05
vt 0.6388891 0.64118075
vt 0.66666687 0.53367466
vt 0.69444466 0.4261687
vt 0.75000024 0.21115682
vt 0.72222245 0.31866276
vt 0.6111113 0.8561926
vt 0.6388891 0.74868655
vt 0.66666687 0.64118075
vt 0.69444466 0.53367466
vt 0.72222245 0.4261687
vt 0.75000024 0.31866276
vt 0.6111113 0.95000017
vt 0.5972222 0.99971354
vt 0.6388891 0.8561926
vt 0.66666687 0.74868655
vt 0.69444466 0.64118075
vt 0.72222245 0.53367466
vt 0.6388891 0.95000017
vt 0.625 0.99971354
vt 0.66666687 0.8561926
vt 0.69444466 0.74868655
vt 0.66666687 0.95000017
vt 0.6527778 0.99971354
vt 0.69444466 0.8561926
vt 0.72222245 0.64118075
vt 0.75000024 0.4261687
vt 0.69444466 0.95000017
vt 0.6805556 0.99971354
vt 0.72222245 0.74868655
vt 0.75000024 0.53367466
vt 0.72222245 0.8561926
vt 0.75000024 0.64118075
vt 0.72222245 0.95000017
vt 0.7083334 0.99971354
vt 0.75000024 0.74868655
vt 0.75000024 0.8561926
vt 0.75000024 0.95000017
vt 0.7361111 0.99971354
vt 0.777778 0.4261687
vt 0.777778 0.53367466
vt 0.777778 0.64118075
vt 0.777778 0.74868655
vt 0.777778 0.8561926
vt 0.777778 0.31866276
vt 0.777778 0.95000017
vt 0.7638889 0.99971354
vt 0.777778 0.21115682
vt 0.8055558 0.1036509
vt 0.8333336 4.040927E-05
vt 0.8055558 0.21115682
vt 0.8333336 0.1036509
vt 0.8611114 4.040927E-05
vt 0.8055558 0.31866276
vt 0.8611114 0.1036509
vt 0.8888892 4.040927E-05
vt 0.8333336 0.21115682
vt 0.8055558 0.4261687
vt 0.8888892 0.1036509
vt 0.916667 4.040927E-05
vt 0.8611114 0.21115682
vt 0.8333336 0.31866276
vt 0.8055558 0.53367466
vt 0.916667 0.1036509
vt 0.9444448 4.040927E-05
vt 0.8333336 0.4261687
vt 0.8888892 0.21115682
vt 0.8611114 0.31866276
vt 0.8055558 0.64118075
vt 0.9444448 0.1036509
vt 0.97222257 4.040927E-05
vt 0.8333336 0.53367466
vt 0.8611114 0.4261687
vt 0.916667 0.21115682
vt 0.8888892 0.31866276
vt 0.8055558 0.74868655
vt 0.97222257 0.1036509
vt 0.99974716 4.040927E-05
vt 0.99974716 0.1036509
vt 0.8333336 0.64118075
vt 0.8611114 0.53367466
vt 0.8888892 0.4261687
vt 0.9444448 0.21115682
vt 0.97222257 0.21115682
vt 0.99974716 0.21115682
vt 0.916667 0.31866276
vt 0.9444448 0.31866276
vt 0.97222257 0.31866276
vt 0.99974716 0.31866276
vt 0.916667 0.4261687
vt 0.8888892 0.53367466
vt 0.9444448 0.4261687
vt 0.97222257 0.4261687
vt 0.99974716 0.4261687
vt 0.916667 0.53367466
vt 0.8611114 0.64118075
vt 0.9444448 0.53367466
vt 0.97222257 0.53367466
vt 0.99974716 0.53367466
vt 0.8888892 0.64118075
vt 0.8333336 0.74868655
vt 0.916667 0.64118075
vt 0.9444448 0.64118075
vt 0.97222257 0.64118075
vt 0.99974716 0.64118075
vt 0.8611114 0.74868655
vt 0.8055558 0.8561926
vt 0.8888892 0.74868655
vt 0.916667 0.74868655
vt 0.9444448 0.74868655
vt 0.97222257 0.74868655
vt 0.99974716 0.74868655
vt 0.8333336 0.8561926
vt 0.8055558 0.95000017
vt 0.7916667 0.99971354
vt 0.8611114 0.8561926
vt 0.8333336 0.95000017
vt 0.8194445 0.99971354
vt 0.97222257 0.8561926
vt 0.99974716 0.8561926
vt 0.8888892 0.8561926
vt 0.8611114 0.95000017
vt 0.8472222 0.99971354
vt 0.916667 0.8561926
vt 0.9444448 0.8561926
vt 0.8888892 0.95000017
vt 0.875 0.99971354
vt 0.916667 0.95000017
vt 0.9027778 0.99971354
vt 0.9444448 0.95000017
vt 0.9305556 0.99971354
vt 0.97222257 0.95000017
vt 0.9583334 0.99971354
vt 0.99974716 0.95000017
vt 0.9861111 0.99971354
vn 0.98172206 0.07845932 -0.17339534
vn 0.97276974 0.1552553 -0.17208989
vn 0.9366986 0.07845949 -0.34123278
vn 0.9281089 0.15525535 -0.3383928
vn 0.9371405 0.3067598 -0.16633129
vn 0.86321354 0.078458875 -0.49870503
vn 0.8940208 0.3067599 -0.32653502
vn 0.8787741 0.45085257 -0.15648642
vn 0.8552475 0.1552549 -0.49441642
vn 0.76350003 0.07845891 -0.641024
vn 0.8382506 0.45085275 -0.3067047
vn 0.79906666 0.5840472 -0.14276345
vn 0.7563998 0.15525526 -0.6354173
vn 0.64058816 0.078458935 -0.7638658
vn 0.82373637 0.30675974 -0.47681966
vn 0.76213694 0.5840473 -0.27934936
vn 0.6999231 0.7031122 -0.12546259
vn 0.63456935 0.15525503 -0.7571114
vn 0.4982123 0.078458846 -0.863498
vn 0.7284232 0.30675995 -0.6126157
vn 0.7722567 0.45085317 -0.44760588
vn 0.6675041 0.7031121 -0.24509531
vn 0.5837075 0.80515003 -0.10497063
vn 0.49345776 0.15525496 -0.85580105
vn 0.3406987 0.07845879 -0.93689305
vn 0.70205 0.5840472 -0.40744916
vn 0.61097723 0.30675983 -0.729798
vn 0.68279874 0.45085296 -0.5749065
vn 0.5566124 0.80515003 -0.2047343
vn 0.45318002 0.88766176 -0.081758335
vn 0.33735287 0.15525487 -0.92848754
vn 0.17283338 0.07845879 -0.9818211
vn 0.6148027 0.70311207 -0.3572829
vn 0.6206312 0.5840473 -0.52316874
vn 0.4749669 0.3067598 -0.8248059
vn 0.5725938 0.45085293 -0.6847394
vn 0.43209857 0.8876617 -0.15920901
vn 0.3114203 0.9485979 -0.056385916
vn 0.17099741 0.15525496 -0.9729624
vn -0.00028396933 0.07845892 -0.99691737
vn 0.5126045 0.80515003 -0.29827863
vn 0.5434209 0.70311207 -0.45861432
vn 0.520355 0.58404744 -0.6229922
vn 0.3245251 0.3067599 -0.8947524
vn 0.44499105 0.45085305 -0.77376646
vn 0.29689822 0.9485977 -0.109607235
vn 0.16168202 0.98640037 -0.029550005
vn 0.3978876 0.88766176 -0.2318232
vn 0.4530213 0.80515003 -0.3827599
vn 0.4555278 0.7031119 -0.54601103
vn 0.4042684 0.5840475 -0.7038861
vn 0.30386722 0.45085317 -0.8392831
vn 0.15409487 0.9864005 -0.057174217
vn -0 1 1.4197072E-07
vn 0.27335474 0.94859785 -0.1594971
vn 0.3515872 0.88766176 -0.29739374
vn 0.37967327 0.80515003 -0.4556112
vn 0.35379335 0.70311195 -0.6168175
vn 0.14182541 0.9864005 -0.083063774
vn -0 1 1.4197072E-07
vn 0.24150564 0.9485979 -0.20454106
vn 0.29460385 0.8876617 -0.3539283
vn 0.12524658 0.9864005 -0.10643038
vn -0 1 1.4197072E-07
vn 0.20231828 0.9485979 -0.24337052
vn 0.29478925 0.80515003 -0.51461893
vn 0.27589807 0.5840474 -0.76339304
vn 0.10486223 0.9864005 -0.12656273
vn -0 1 1.4197072E-07
vn 0.22866899 0.8876617 -0.39970878
vn 0.24130905 0.703112 -0.6688822
vn 0.1569837 0.9485979 -0.27480558
vn 0.2009481 0.8051502 -0.55799025
vn 0.081291705 0.98640037 -0.14284936
vn -0 1 1.4197072E-07
vn 0.15578647 0.88766176 -0.43334404
vn 0.10687937 0.9485979 -0.29789072
vn 0.055251226 0.98640037 -0.15479521
vn -0 1 1.4197072E-07
vn 0.13914509 0.58404744 -0.79970455
vn 0.12149291 0.703112 -0.7006232
vn 0.101001024 0.80515015 -0.5844075
vn 0.07817049 0.8876617 -0.45381284
vn 0.053527404 0.9485979 -0.31192446
vn 0.153511 0.450853 -0.8792985
vn 0.0275319 0.98640037 -0.16203785
vn -0 1 1.4197072E-07
vn 0.16422257 0.30675995 -0.93751234
vn -0.0005535535 0.15525511 -0.9878742
vn -0.1733927 0.078458756 -0.98172253
vn -0.0010692825 0.30675986 -0.95178634
vn -0.17208765 0.15525495 -0.9727701
vn -0.34123307 0.07845878 -0.9366986
vn -0.0015098441 0.45085305 -0.8925969
vn -0.338393 0.1552549 -0.9281089
vn -0.4987053 0.078459084 -0.86321336
vn -0.16632898 0.30675998 -0.9371408
vn -0.0018362071 0.58404726 -0.8117175
vn -0.49441648 0.15525508 -0.85524744
vn -0.6410246 0.078458734 -0.7634996
vn -0.32653522 0.3067601 -0.89402074
vn -0.15648478 0.4508532 -0.8787741
vn -0.0020144864 0.70311195 -0.7110763
vn -0.6354177 0.1552549 -0.7563995
vn -0.763866 0.078459054 -0.6405878
vn -0.14276169 0.58404726 -0.7990668
vn -0.47681984 0.30675998 -0.8237361
vn -0.30670476 0.45085317 -0.8382503
vn -0.0020146142 0.8051502 -0.59306747
vn -0.75711155 0.15525497 -0.6345691
vn -0.86349803 0.07845884 -0.49821204
vn -0.12546061 0.70311207 -0.69992363
vn -0.27934957 0.5840472 -0.76213694
vn -0.6126162 0.30676 -0.72842276
vn -0.44760618 0.45085293 -0.7722567
vn -0.0018208342 0.88766176 -0.46049243
vn -0.8558011 0.15525469 -0.49345753
vn -0.9368933 0.07845855 -0.34069833
vn -0.104969285 0.8051502 -0.5837076
vn -0.24509512 0.703112 -0.66750425
vn -0.40744963 0.58404726 -0.7020496
vn -0.72979826 0.30675992 -0.61097693
vn -0.5749067 0.45085305 -0.68279845
vn -0.0014510014 0.9485979 -0.3164806
vn -0.081756935 0.8876616 -0.4531806
vn -0.20473452 0.80515015 -0.5566122
vn -0.35728255 0.70311224 -0.61480266
vn -0.5231691 0.5840473 -0.62063104
vn -0.6847394 0.4508531 -0.57259357
vn -0.0010238622 0.9864005 -0.16435628
vn -0 1 1.4197072E-07
vn -0.056385178 0.94859785 -0.31142062
vn -0.15920904 0.8876617 -0.4320987
vn -0.29827896 0.8051502 -0.5126039
vn -0.45861432 0.703112 -0.54342103
vn -0.02954863 0.9864005 -0.16168201
vn -0 1 1.4197072E-07
vn -0.109606326 0.9485979 -0.296898
vn -0.2318233 0.88766176 -0.39788756
vn -0.057175558 0.9864005 -0.15409437
vn -0 1 1.4197072E-07
vn -0.15949701 0.94859815 -0.27335393
vn -0.38276017 0.8051504 -0.45302063
vn -0.6229924 0.5840473 -0.520355
vn -0.08306527 0.98640037 -0.14182569
vn -0 1 1.4197072E-07
vn -0.29739386 0.8876617 -0.35158712
vn -0.5460109 0.703112 -0.45552772
vn -0.20454143 0.948598 -0.24150468
vn -0.45561144 0.8051504 -0.3796726
vn -0.10643093 0.98640025 -0.1252476
vn -0 1 1.4197072E-07
vn -0.3539284 0.8876617 -0.2946038
vn -0.24337098 0.948598 -0.20231777
vn -0.1265628 0.98640025 -0.104863875
vn -0 1 1.4197072E-07
vn -0.7038863 0.5840474 -0.40426838
vn -0.61681724 0.70311224 -0.35379338
vn -0.5146192 0.80515015 -0.29478872
vn -0.39970875 0.8876617 -0.22866918
vn -0.27480575 0.9485979 -0.1569834
vn -0.77376646 0.4508531 -0.44499087
vn -0.1428492 0.98640037 -0.08129266
vn -0 1 1.4197072E-07
vn -0.8248061 0.30676004 -0.47496653
vn -0.9284876 0.1552548 -0.33735248
vn -0.98182124 0.07845958 -0.17283267
vn -0.8947526 0.30675966 -0.32452467
vn -0.9729624 0.15525526 -0.17099746
vn -0.99691737 0.07845903 0.00028466078
vn -0.8392831 0.45085302 -0.3038673
vn -0.9878742 0.15525529 0.00055361266
vn -0.9817224 0.07845904 0.17339304
vn -0.93751234 0.3067597 -0.16422254
vn -0.7633931 0.5840473 -0.27589783
vn -0.9727701 0.15525495 0.17208771
vn -0.9366985 0.07845915 0.34123325
vn -0.9517862 0.30676028 0.001069687
vn -0.8792985 0.45085305 -0.15351085
vn -0.668882 0.7031121 -0.24130921
vn -0.92810875 0.155255 0.3383931
vn -0.8632134 0.078458644 0.49870512
vn -0.7997047 0.5840472 -0.13914467
vn -0.93714094 0.30675977 0.16632937
vn -0.892597 0.4508529 0.0015098503
vn -0.5579904 0.80515003 -0.2009478
vn -0.8552473 0.15525524 0.49441662
vn -0.76349986 0.078459084 0.64102435
vn -0.700623 0.70311224 -0.121493
vn -0.8117176 0.58404726 0.0018365008
vn -0.89402074 0.30676013 0.3265352
vn -0.8787744 0.45085272 0.15648471
vn -0.43334424 0.8876617 -0.15578629
vn -0.75639933 0.15525514 0.6354178
vn -0.64058775 0.078458615 0.7638662
vn -0.5844075 0.80515003 -0.101000674
vn -0.71107596 0.7031123 0.0020145492
vn -0.79906684 0.58404726 0.14276187
vn -0.823736 0.30676058 0.4768196
vn -0.8382504 0.4508531 0.30670494
vn -0.29789075 0.9485979 -0.10687874
vn -0.4538127 0.88766176 -0.07817063
vn -0.59306765 0.80515003 0.0020151057
vn -0.69992334 0.70311224 0.12546083
vn -0.76213694 0.58404726 0.27934927
vn -0.7722566 0.45085323 0.447606
vn -0.15479518 0.9864005 -0.055250008
vn -0 1 1.4197072E-07
vn -0.31192443 0.94859785 -0.05352792
vn -0.46049237 0.88766176 0.0018211048
vn -0.58370775 0.80515003 0.10496952
vn -0.6675039 0.70311224 0.24509542
vn -0.16203776 0.98640037 -0.027531805
vn -0 1 1.4197072E-07
vn -0.3164806 0.9485979 0.0014504883
vn -0.45318013 0.88766176 0.08175741
vn -0.16435689 0.98640037 0.0010225002
vn -0 1 1.4197072E-07
vn -0.31142053 0.9485979 0.05638552
vn -0.55661225 0.80515015 0.2047341
vn -0.7020499 0.58404744 0.40744892
vn -0.16168217 0.9864005 0.029546538
vn -0 1 1.4197072E-07
vn -0.43209845 0.8876619 0.15920869
vn -0.6148022 0.70311254 0.3572829
vn -0.29689816 0.94859785 0.10960696
vn -0.5126044 0.80515015 0.29827848
vn -0.15409479 0.9864005 0.057174966
vn -0 1 1.4197072E-07
vn -0.3978875 0.8876619 0.23182309
vn -0.27335465 0.9485979 0.15949713
vn -0.14182526 0.98640037 0.08306529
vn -0 1 1.4197072E-07
vn -0.620631 0.5840474 0.523169
vn -0.54342073 0.70311207 0.45861456
vn -0.45302096 0.8051502 0.3827599
vn -0.35158697 0.8876619 0.29739374
vn -0.24150531 0.94859785 0.20454168
vn -0.6827983 0.45085302 0.57490695
vn -0.12524639 0.98640037 0.106431775
vn -0 1 1.4197072E-07
vn -0.72842276 0.30675992 0.61261624
vn -0.6345689 0.15525474 0.7571117
vn -0.4982122 0.07845883 0.86349803
vn -0.6109766 0.3067599 0.7297986
vn -0.4934576 0.15525511 0.85580105
vn -0.3406978 0.07845896 0.9368934
vn -0.5725933 0.45085323 0.68473953
vn -0.3373522 0.15525503 0.9284877
vn -0.17283247 0.07845918 0.98182136
vn -0.47496647 0.30676 0.8248061
vn -0.5203549 0.5840474 0.6229922
vn -0.17099722 0.15525508 0.9729624
vn 0.00028484035 0.07845903 0.99691737
vn -0.3245244 0.30676007 0.8947526
vn -0.4449911 0.4508531 0.7737664
vn -0.4555274 0.70311224 0.54601103
vn 0.0005538998 0.15525514 0.9878742
vn 0.17339353 0.07845913 0.9817224
vn -0.40426818 0.58404744 0.7038863
vn -0.16422212 0.3067602 0.93751234
vn -0.30386707 0.4508533 0.83928305
vn -0.3796728 0.8051504 0.45561126
vn 0.17208831 0.15525518 0.97277
vn 0.34123373 0.07845929 0.93669826
vn -0.35379305 0.70311236 0.6168172
vn -0.27589774 0.5840474 0.76339304
vn 0.0010699825 0.3067601 0.9517862
vn -0.1535108 0.45085317 0.8792985
vn -0.29460374 0.88766176 0.35392824
vn 0.33839312 0.15525508 0.92810875
vn 0.49870554 0.07845892 0.8632132
vn -0.294789 0.8051502 0.514619
vn -0.24130923 0.7031121 0.6688821
vn -0.13914451 0.5840474 0.7997046
vn 0.16632988 0.30676 0.9371407
vn 0.001509952 0.45085323 0.89259684
vn -0.20231807 0.94859785 0.24337116
vn -0.22866896 0.88766176 0.39970866
vn -0.20094778 0.8051503 0.5579902
vn -0.121492684 0.7031121 0.7006232
vn 0.0018366545 0.58404744 0.81171745
vn 0.15648487 0.45085314 0.8787741
vn -0.10486219 0.98640037 0.12656347
vn -0 1 1.4197072E-07
vn -0.15698376 0.948598 0.2748051
vn -0.1557863 0.88766176 0.43334422
vn -0.101000786 0.8051503 0.58440727
vn 0.0020150172 0.7031121 0.7110761
vn -0.08129171 0.98640037 0.14284937
vn -0 1 1.4197072E-07
vn -0.10687929 0.948598 0.2978902
vn -0.078170076 0.8876619 0.45381266
vn -0.055251237 0.9864005 0.15479499
vn -0 1 1.4197072E-07
vn -0.05352712 0.948598 0.3119242
vn 0.0020151243 0.8051503 0.5930674
vn 0.14276193 0.58404744 0.7990667
vn -0.02753188 0.9864005 0.16203721
vn -0 1 1.4197072E-07
vn 0.0018213799 0.887662 0.4604922
vn 0.12546149 0.70311224 0.6999232
vn 0.0014512072 0.9485979 0.31648037
vn 0.104969345 0.8051504 0.5837074
vn 0.0010239964 0.9864005 0.16435677
vn -0 1 1.4197072E-07
vn 0.08175711 0.8876619 0.45318002
vn 0.056385443 0.9485979 0.31142047
vn 0.029548699 0.98640037 0.16168223
vn -0 1 1.4197072E-07
vn 0.27934965 0.58404756 0.7621366
vn 0.24509552 0.7031123 0.6675038
vn 0.2047343 0.8051502 0.556612
vn 0.1592088 0.88766176 0.4320984
vn 0.10960642 0.9485979 0.29689786
vn 0.30670524 0.45085323 0.83825016
vn 0.057175554 0.98640037 0.1540954
vn -0 1 1.4197072E-07
vn 0.32653546 0.30675998 0.89402074
vn 0.49441662 0.15525502 0.85524744
vn 0.6410249 0.078458786 0.76349944
vn 0.47682002 0.30676013 0.823736
vn 0.63541794 0.15525503 0.7563993
vn 0.7638662 0.0784587 0.6405878
vn 0.44760624 0.45085314 0.77225655
vn 0.75711167 0.15525493 0.6345689
vn 0.86349803 0.07845898 0.49821204
vn 0.61261624 0.30676007 0.7284226
vn 0.40744948 0.5840476 0.7020495
vn 0.8558011 0.15525518 0.49345747
vn 0.9368933 0.07845854 0.34069833
vn 0.72979844 0.3067602 0.6109767
vn 0.57490706 0.45085326 0.6827981
vn 0.357283 0.7031123 0.61480236
vn 0.9284877 0.15525457 0.3373524
vn 0.98182136 0.07845858 0.17283224
vn 0.52316934 0.58404744 0.62063074
vn 0.8248059 0.30676025 0.4749665
vn 0.6847395 0.45085344 0.5725932
vn 0.29827884 0.8051504 0.51260394
vn 0.97296244 0.1552548 0.1709969
vn 0.99691737 0.07845881 -0.0002866417
vn 0.45861444 0.70311224 0.5434207
vn 0.6229924 0.5840474 0.5203549
vn 0.8947525 0.30676 0.32452473
vn 0.7737665 0.4508531 0.44499072
vn 0.23182334 0.88766176 0.3978876
vn 0.9878742 0.15525547 -0.0005557386
vn 0.98172206 0.07845932 -0.17339534
vn 0.97276974 0.1552553 -0.17208989
vn 0.38275996 0.8051503 0.45302078
vn 0.54601085 0.70311224 0.45552742
vn 0.7038863 0.5840474 0.40426838
vn 0.93751234 0.3067601 0.16422199
vn 0.9517862 0.3067603 -0.0010718293
vn 0.9371405 0.3067598 -0.16633129
vn 0.83928305 0.45085323 0.30386728
vn 0.8792986 0.45085317 0.15351062
vn 0.89259684 0.45085317 -0.0015118067
vn 0.8787741 0.45085257 -0.15648642
vn 0.7633931 0.5840474 0.27589768
vn 0.6168171 0.7031123 0.35379323
vn 0.7997045 0.5840477 0.13914418
vn 0.8117174 0.5840475 -0.0018382645
vn 0.79906666 0.5840472 -0.14276345
vn 0.66888195 0.7031123 0.24130905
vn 0.4556113 0.8051503 0.37967265
vn 0.7006227 0.70311254 0.121492594
vn 0.711076 0.7031122 -0.0020162002
vn 0.6999231 0.7031122 -0.12546259
vn 0.51461905 0.8051503 0.29478845
vn 0.297394 0.8876619 0.35158673
vn 0.55799025 0.8051504 0.20094727
vn 0.58440727 0.8051504 0.10100068
vn 0.5930676 0.8051502 -0.0020158794
vn 0.5837075 0.80515003 -0.10497063
vn 0.3539283 0.8876619 0.29460356
vn 0.15949707 0.94859815 0.27335387
vn 0.39970857 0.88766176 0.22866924
vn 0.4333441 0.88766176 0.15578638
vn 0.4538126 0.8876619 0.07816999
vn 0.46049228 0.8876619 -0.00182217
vn 0.45318002 0.88766176 -0.081758335
vn 0.20454143 0.948598 0.24150468
vn 0.083065234 0.98640025 0.14182608
vn -0 1 1.4197072E-07
vn 0.24337092 0.9485979 0.20231783
vn 0.106430985 0.98640037 0.12524663
vn -0 1 1.4197072E-07
vn 0.3164805 0.9485979 -0.0014508695
vn 0.3114203 0.9485979 -0.056385916
vn 0.27480564 0.9485979 0.1569834
vn 0.12656276 0.98640037 0.10486227
vn -0 1 1.4197072E-07
vn 0.29789066 0.9485979 0.10687961
vn 0.3119244 0.9485979 0.05352769
vn 0.14284918 0.98640037 0.08129181
vn -0 1 1.4197072E-07
vn 0.15479515 0.98640037 0.05525154
vn -0 1 1.4197072E-07
vn 0.16203763 0.98640037 0.027533423
vn -0 1 1.4197072E-07
vn 0.16435689 0.98640037 -0.0010254927
vn -0 1 1.4197072E-07
vn 0.16168202 0.98640037 -0.029550005
vn -0 1 1.4197072E-07
g Md_CMN_HemiSphere_00_0
f 3/3/3 2/2/2 1/1/1
f 3/3/3 4/4/4 2/2/2
f 4/4/4 5/5/5 2/2/2
f 6/6/6 4/4/4 3/3/3
f 4/4/4 7/7/7 5/5/5
f 7/7/7 8/8/8 5/5/5
f 6/6/6 9/9/9 4/4/4
f 9/9/9 7/7/7 4/4/4
f 10/10/10 9/9/9 6/6/6
f 7/7/7 11/11/11 8/8/8
f 11/11/11 12/12/12 8/8/8
f 10/10/10 13/13/13 9/9/9
f 14/14/14 13/13/13 10/10/10
f 9/9/9 15/15/15 7/7/7
f 15/15/15 11/11/11 7/7/7
f 13/13/13 15/15/15 9/9/9
f 11/11/11 16/16/16 12/12/12
f 16/16/16 17/17/17 12/12/12
f 14/14/14 18/18/18 13/13/13
f 19/19/19 18/18/18 14/14/14
f 13/13/13 20/20/20 15/15/15
f 18/18/18 20/20/20 13/13/13
f 15/15/15 21/21/21 11/11/11
f 21/21/21 16/16/16 11/11/11
f 20/20/20 21/21/21 15/15/15
f 16/16/16 22/22/22 17/17/17
f 22/22/22 23/23/23 17/17/17
f 19/19/19 24/24/24 18/18/18
f 25/25/25 24/24/24 19/19/19
f 21/21/21 26/26/26 16/16/16
f 26/26/26 22/22/22 16/16/16
f 18/18/18 27/27/27 20/20/20
f 24/24/24 27/27/27 18/18/18
f 20/20/20 28/28/28 21/21/21
f 28/28/28 26/26/26 21/21/21
f 27/27/27 28/28/28 20/20/20
f 22/22/22 29/29/29 23/23/23
f 29/29/29 30/30/30 23/23/23
f 25/25/25 31/31/31 24/24/24
f 32/32/32 31/31/31 25/25/25
f 26/26/26 33/33/33 22/22/22
f 33/33/33 29/29/29 22/22/22
f 28/28/28 34/34/34 26/26/26
f 34/34/34 33/33/33 26/26/26
f 24/24/24 35/35/35 27/27/27
f 31/31/31 35/35/35 24/24/24
f 27/27/27 36/36/36 28/28/28
f 36/36/36 34/34/34 28/28/28
f 35/35/35 36/36/36 27/27/27
f 29/29/29 37/37/37 30/30/30
f 37/37/37 38/38/38 30/30/30
f 32/32/32 39/39/39 31/31/31
f 40/40/40 39/39/39 32/32/32
f 33/33/33 41/41/41 29/29/29
f 41/41/41 37/37/37 29/29/29
f 34/34/34 42/42/42 33/33/33
f 42/42/42 41/41/41 33/33/33
f 36/36/36 43/43/43 34/34/34
f 43/43/43 42/42/42 34/34/34
f 31/31/31 44/44/44 35/35/35
f 39/39/39 44/44/44 31/31/31
f 35/35/35 45/45/45 36/36/36
f 45/45/45 43/43/43 36/36/36
f 44/44/44 45/45/45 35/35/35
f 37/37/37 46/46/46 38/38/38
f 46/46/46 47/47/47 38/38/38
f 41/41/41 48/48/48 37/37/37
f 48/48/48 46/46/46 37/37/37
f 42/42/42 49/49/49 41/41/41
f 49/49/49 48/48/48 41/41/41
f 43/43/43 50/50/50 42/42/42
f 50/50/50 49/49/49 42/42/42
f 45/45/45 51/51/51 43/43/43
f 51/51/51 50/50/50 43/43/43
f 44/44/44 52/52/52 45/45/45
f 52/52/52 51/51/51 45/45/45
f 46/46/46 53/53/53 47/47/47
f 53/53/53 54/54/54 47/47/47
f 48/48/48 55/55/55 46/46/46
f 55/55/55 53/53/53 46/46/46
f 49/49/49 56/56/56 48/48/48
f 56/56/56 55/55/55 48/48/48
f 50/50/50 57/57/57 49/49/49
f 57/57/57 56/56/56 49/49/49
f 51/51/51 58/58/58 50/50/50
f 58/58/58 57/57/57 50/50/50
f 55/55/55 59/59/59 53/53/53
f 59/59/59 60/60/60 53/53/53
f 56/56/56 61/61/61 55/55/55
f 61/61/61 59/59/59 55/55/55
f 57/57/57 62/62/62 56/56/56
f 62/62/62 61/61/61 56/56/56
f 61/61/61 63/63/63 59/59/59
f 63/63/63 64/64/64 59/59/59
f 65/65/65 63/63/63 61/61/61
f 62/62/62 65/65/65 61/61/61
f 66/66/66 62/62/62 57/57/57
f 58/58/58 66/66/66 57/57/57
f 67/67/67 58/58/58 51/51/51
f 52/52/52 67/67/67 51/51/51
f 65/65/65 68/68/68 63/63/63
f 68/68/68 69/69/69 63/63/63
f 70/70/70 65/65/65 62/62/62
f 66/66/66 70/70/70 62/62/62
f 71/71/71 66/66/66 58/58/58
f 67/67/67 71/71/71 58/58/58
f 72/72/72 68/68/68 65/65/65
f 70/70/70 72/72/72 65/65/65
f 73/73/73 70/70/70 66/66/66
f 71/71/71 73/73/73 66/66/66
f 72/72/72 74/74/74 68/68/68
f 74/74/74 75/75/75 68/68/68
f 76/76/76 72/72/72 70/70/70
f 73/73/73 76/76/76 70/70/70
f 77/77/77 74/74/74 72/72/72
f 76/76/76 77/77/77 72/72/72
f 77/77/77 78/78/78 74/74/74
f 78/78/78 79/79/79 74/74/74
f 80/80/80 71/71/71 67/67/67
f 81/81/81 73/73/73 71/71/71
f 80/80/80 81/81/81 71/71/71
f 82/82/82 76/76/76 73/73/73
f 81/81/81 82/82/82 73/73/73
f 83/83/83 77/77/77 76/76/76
f 82/82/82 83/83/83 76/76/76
f 84/84/84 78/78/78 77/77/77
f 83/83/83 84/84/84 77/77/77
f 85/85/85 80/80/80 67/67/67
f 85/85/85 67/67/67 52/52/52
f 84/84/84 86/86/86 78/78/78
f 86/86/86 87/87/87 78/78/78
f 88/88/88 85/85/85 52/52/52
f 88/88/88 52/52/52 44/44/44
f 39/39/39 88/88/88 44/44/44
f 89/89/89 88/88/88 39/39/39
f 40/40/40 89/89/89 39/39/39
f 90/90/90 89/89/89 40/40/40
f 91/91/91 85/85/85 88/88/88
f 89/89/89 91/91/91 88/88/88
f 90/90/90 92/92/92 89/89/89
f 92/92/92 91/91/91 89/89/89
f 93/93/93 92/92/92 90/90/90
f 91/91/91 94/94/94 85/85/85
f 94/94/94 80/80/80 85/85/85
f 93/93/93 95/95/95 92/92/92
f 96/96/96 95/95/95 93/93/93
f 92/92/92 97/97/97 91/91/91
f 97/97/97 94/94/94 91/91/91
f 95/95/95 97/97/97 92/92/92
f 94/94/94 98/98/98 80/80/80
f 98/98/98 81/81/81 80/80/80
f 96/96/96 99/99/99 95/95/95
f 100/100/100 99/99/99 96/96/96
f 95/95/95 101/101/101 97/97/97
f 99/99/99 101/101/101 95/95/95
f 97/97/97 102/102/102 94/94/94
f 102/102/102 98/98/98 94/94/94
f 101/101/101 102/102/102 97/97/97
f 98/98/98 103/103/103 81/81/81
f 103/103/103 82/82/82 81/81/81
f 100/100/100 104/104/104 99/99/99
f 105/105/105 104/104/104 100/100/100
f 102/102/102 106/106/106 98/98/98
f 106/106/106 103/103/103 98/98/98
f 99/99/99 107/107/107 101/101/101
f 104/104/104 107/107/107 99/99/99
f 101/101/101 108/108/108 102/102/102
f 108/108/108 106/106/106 102/102/102
f 107/107/107 108/108/108 101/101/101
f 103/103/103 109/109/109 82/82/82
f 109/109/109 83/83/83 82/82/82
f 105/105/105 110/110/110 104/104/104
f 111/111/111 110/110/110 105/105/105
f 106/106/106 112/112/112 103/103/103
f 112/112/112 109/109/109 103/103/103
f 108/108/108 113/113/113 106/106/106
f 113/113/113 112/112/112 106/106/106
f 104/104/104 114/114/114 107/107/107
f 110/110/110 114/114/114 104/104/104
f 107/107/107 115/115/115 108/108/108
f 115/115/115 113/113/113 108/108/108
f 114/114/114 115/115/115 107/107/107
f 109/109/109 116/116/116 83/83/83
f 116/116/116 84/84/84 83/83/83
f 111/111/111 117/117/117 110/110/110
f 118/118/118 117/117/117 111/111/111
f 112/112/112 119/119/119 109/109/109
f 119/119/119 116/116/116 109/109/109
f 113/113/113 120/120/120 112/112/112
f 120/120/120 119/119/119 112/112/112
f 115/115/115 121/121/121 113/113/113
f 121/121/121 120/120/120 113/113/113
f 110/110/110 122/122/122 114/114/114
f 117/117/117 122/122/122 110/110/110
f 114/114/114 123/123/123 115/115/115
f 123/123/123 121/121/121 115/115/115
f 122/122/122 123/123/123 114/114/114
f 116/116/116 124/124/124 84/84/84
f 124/124/124 86/86/86 84/84/84
f 119/119/119 125/125/125 116/116/116
f 125/125/125 124/124/124 116/116/116
f 120/120/120 126/126/126 119/119/119
f 126/126/126 125/125/125 119/119/119
f 121/121/121 127/127/127 120/120/120
f 127/127/127 126/126/126 120/120/120
f 123/123/123 128/128/128 121/121/121
f 128/128/128 127/127/127 121/121/121
f 122/122/122 129/129/129 123/123/123
f 129/129/129 128/128/128 123/123/123
f 124/124/124 130/130/130 86/86/86
f 130/130/130 131/131/131 86/86/86
f 125/125/125 132/132/132 124/124/124
f 132/132/132 130/130/130 124/124/124
f 126/126/126 133/133/133 125/125/125
f 133/133/133 132/132/132 125/125/125
f 127/127/127 134/134/134 126/126/126
f 134/134/134 133/133/133 126/126/126
f 128/128/128 135/135/135 127/127/127
f 135/135/135 134/134/134 127/127/127
f 132/132/132 136/136/136 130/130/130
f 136/136/136 137/137/137 130/130/130
f 133/133/133 138/138/138 132/132/132
f 138/138/138 136/136/136 132/132/132
f 134/134/134 139/139/139 133/133/133
f 139/139/139 138/138/138 133/133/133
f 138/138/138 140/140/140 136/136/136
f 140/140/140 141/141/141 136/136/136
f 142/142/142 140/140/140 138/138/138
f 139/139/139 142/142/142 138/138/138
f 143/143/143 139/139/139 134/134/134
f 135/135/135 143/143/143 134/134/134
f 144/144/144 135/135/135 128/128/128
f 129/129/129 144/144/144 128/128/128
f 142/142/142 145/145/145 140/140/140
f 145/145/145 146/146/146 140/140/140
f 147/147/147 142/142/142 139/139/139
f 143/143/143 147/147/147 139/139/139
f 148/148/148 143/143/143 135/135/135
f 144/144/144 148/148/148 135/135/135
f 149/149/149 145/145/145 142/142/142
f 147/147/147 149/149/149 142/142/142
f 150/150/150 147/147/147 143/143/143
f 148/148/148 150/150/150 143/143/143
f 149/149/149 151/151/151 145/145/145
f 151/151/151 152/152/152 145/145/145
f 153/153/153 149/149/149 147/147/147
f 150/150/150 153/153/153 147/147/147
f 154/154/154 151/151/151 149/149/149
f 153/153/153 154/154/154 149/149/149
f 154/154/154 155/155/155 151/151/151
f 155/155/155 156/156/156 151/151/151
f 157/157/157 148/148/148 144/144/144
f 158/158/158 150/150/150 148/148/148
f 157/157/157 158/158/158 148/148/148
f 159/159/159 153/153/153 150/150/150
f 158/158/158 159/159/159 150/150/150
f 160/160/160 154/154/154 153/153/153
f 159/159/159 160/160/160 153/153/153
f 161/161/161 155/155/155 154/154/154
f 160/160/160 161/161/161 154/154/154
f 162/162/162 157/157/157 144/144/144
f 162/162/162 144/144/144 129/129/129
f 161/161/161 163/163/163 155/155/155
f 163/163/163 164/164/164 155/155/155
f 165/165/165 162/162/162 129/129/129
f 165/165/165 129/129/129 122/122/122
f 117/117/117 165/165/165 122/122/122
f 166/166/166 165/165/165 117/117/117
f 118/118/118 166/166/166 117/117/117
f 167/167/167 166/166/166 118/118/118
f 168/168/168 162/162/162 165/165/165
f 166/166/166 168/168/168 165/165/165
f 167/167/167 169/169/169 166/166/166
f 169/169/169 168/168/168 166/166/166
f 170/170/170 169/169/169 167/167/167
f 168/168/168 171/171/171 162/162/162
f 171/171/171 157/157/157 162/162/162
f 170/170/170 172/172/172 169/169/169
f 173/173/173 172/172/172 170/170/170
f 169/169/169 174/174/174 168/168/168
f 174/174/174 171/171/171 168/168/168
f 172/172/172 174/174/174 169/169/169
f 171/171/171 175/175/175 157/157/157
f 175/175/175 158/158/158 157/157/157
f 173/173/173 176/176/176 172/172/172
f 177/177/177 176/176/176 173/173/173
f 172/172/172 178/178/178 174/174/174
f 176/176/176 178/178/178 172/172/172
f 174/174/174 179/179/179 171/171/171
f 179/179/179 175/175/175 171/171/171
f 178/178/178 179/179/179 174/174/174
f 175/175/175 180/180/180 158/158/158
f 180/180/180 159/159/159 158/158/158
f 177/177/177 181/181/181 176/176/176
f 182/182/182 181/181/181 177/177/177
f 179/179/179 183/183/183 175/175/175
f 183/183/183 180/180/180 175/175/175
f 176/176/176 184/184/184 178/178/178
f 181/181/181 184/184/184 176/176/176
f 178/178/178 185/185/185 179/179/179
f 185/185/185 183/183/183 179/179/179
f 184/184/184 185/185/185 178/178/178
f 180/180/180 186/186/186 159/159/159
f 186/186/186 160/160/160 159/159/159
f 182/182/182 187/187/187 181/181/181
f 188/188/188 187/187/187 182/182/182
f 183/183/183 189/189/189 180/180/180
f 189/189/189 186/186/186 180/180/180
f 185/185/185 190/190/190 183/183/183
f 190/190/190 189/189/189 183/183/183
f 181/181/181 191/191/191 184/184/184
f 187/187/187 191/191/191 181/181/181
f 184/184/184 192/192/192 185/185/185
f 192/192/192 190/190/190 185/185/185
f 191/191/191 192/192/192 184/184/184
f 186/186/186 193/193/193 160/160/160
f 193/193/193 161/161/161 160/160/160
f 188/188/188 194/194/194 187/187/187
f 195/195/195 194/194/194 188/188/188
f 189/189/189 196/196/196 186/186/186
f 196/196/196 193/193/193 186/186/186
f 190/190/190 197/197/197 189/189/189
f 197/197/197 196/196/196 189/189/189
f 192/192/192 198/198/198 190/190/190
f 198/198/198 197/197/197 190/190/190
f 187/187/187 199/199/199 191/191/191
f 194/194/194 199/199/199 187/187/187
f 191/191/191 200/200/200 192/192/192
f 200/200/200 198/198/198 192/192/192
f 199/199/199 200/200/200 191/191/191
f 193/193/193 201/201/201 161/161/161
f 201/201/201 163/163/163 161/161/161
f 196/196/196 202/202/202 193/193/193
f 202/202/202 201/201/201 193/193/193
f 197/197/197 203/203/203 196/196/196
f 203/203/203 202/202/202 196/196/196
f 198/198/198 204/204/204 197/197/197
f 204/204/204 203/203/203 197/197/197
f 200/200/200 205/205/205 198/198/198
f 205/205/205 204/204/204 198/198/198
f 199/199/199 206/206/206 200/200/200
f 206/206/206 205/205/205 200/200/200
f 201/201/201 207/207/207 163/163/163
f 207/207/207 208/208/208 163/163/163
f 202/202/202 209/209/209 201/201/201
f 209/209/209 207/207/207 201/201/201
f 203/203/203 210/210/210 202/202/202
f 210/210/210 209/209/209 202/202/202
f 204/204/204 211/211/211 203/203/203
f 211/211/211 210/210/210 203/203/203
f 205/205/205 212/212/212 204/204/204
f 212/212/212 211/211/211 204/204/204
f 209/209/209 213/213/213 207/207/207
f 213/213/213 214/214/214 207/207/207
f 210/210/210 215/215/215 209/209/209
f 215/215/215 213/213/213 209/209/209
f 211/211/211 216/216/216 210/210/210
f 216/216/216 215/215/215 210/210/210
f 215/215/215 217/217/217 213/213/213
f 217/217/217 218/218/218 213/213/213
f 219/219/219 217/217/217 215/215/215
f 216/216/216 219/219/219 215/215/215
f 220/220/220 216/216/216 211/211/211
f 212/212/212 220/220/220 211/211/211
f 221/221/221 212/212/212 205/205/205
f 206/206/206 221/221/221 205/205/205
f 219/219/219 222/222/222 217/217/217
f 222/222/222 223/223/223 217/217/217
f 224/224/224 219/219/219 216/216/216
f 220/220/220 224/224/224 216/216/216
f 225/225/225 220/220/220 212/212/212
f 221/221/221 225/225/225 212/212/212
f 226/226/226 222/222/222 219/219/219
f 224/224/224 226/226/226 219/219/219
f 227/227/227 224/224/224 220/220/220
f 225/225/225 227/227/227 220/220/220
f 226/226/226 228/228/228 222/222/222
f 228/228/228 229/229/229 222/222/222
f 230/230/230 226/226/226 224/224/224
f 227/227/227 230/230/230 224/224/224
f 231/231/231 228/228/228 226/226/226
f 230/230/230 231/231/231 226/226/226
f 231/231/231 232/232/232 228/228/228
f 232/232/232 233/233/233 228/228/228
f 234/234/234 225/225/225 221/221/221
f 235/235/235 227/227/227 225/225/225
f 234/234/234 235/235/235 225/225/225
f 236/236/236 230/230/230 227/227/227
f 235/235/235 236/236/236 227/227/227
f 237/237/237 231/231/231 230/230/230
f 236/236/236 237/237/237 230/230/230
f 238/238/238 232/232/232 231/231/231
f 237/237/237 238/238/238 231/231/231
f 239/239/239 234/234/234 221/221/221
f 239/239/239 221/221/221 206/206/206
f 238/238/238 240/240/240 232/232/232
f 240/240/240 241/241/241 232/232/232
f 242/242/242 239/239/239 206/206/206
f 242/242/242 206/206/206 199/199/199
f 194/194/194 242/242/242 199/199/199
f 243/243/243 242/242/242 194/194/194
f 195/195/195 243/243/243 194/194/194
f 244/244/244 243/243/243 195/195/195
f 245/245/245 239/239/239 242/242/242
f 243/243/243 245/245/245 242/242/242
f 244/244/244 246/246/246 243/243/243
f 246/246/246 245/245/245 243/243/243
f 247/247/247 246/246/246 244/244/244
f 245/245/245 248/248/248 239/239/239
f 248/248/248 234/234/234 239/239/239
f 247/247/247 249/249/249 246/246/246
f 250/250/250 249/249/249 247/247/247
f 246/246/246 251/251/251 245/245/245
f 251/251/251 248/248/248 245/245/245
f 249/249/249 251/251/251 246/246/246
f 248/248/248 252/252/252 234/234/234
f 252/252/252 235/235/235 234/234/234
f 250/250/250 253/253/253 249/249/249
f 254/254/254 253/253/253 250/250/250
f 249/249/249 255/255/255 251/251/251
f 253/253/253 255/255/255 249/249/249
f 251/251/251 256/256/256 248/248/248
f 256/256/256 252/252/252 248/248/248
f 255/255/255 256/256/256 251/251/251
f 252/252/252 257/257/257 235/235/235
f 257/257/257 236/236/236 235/235/235
f 254/254/254 258/258/258 253/253/253
f 259/259/259 258/258/258 254/254/254
f 256/256/256 260/260/260 252/252/252
f 260/260/260 257/257/257 252/252/252
f 253/253/253 261/261/261 255/255/255
f 258/258/258 261/261/261 253/253/253
f 255/255/255 262/262/262 256/256/256
f 262/262/262 260/260/260 256/256/256
f 261/261/261 262/262/262 255/255/255
f 257/257/257 263/263/263 236/236/236
f 263/263/263 237/237/237 236/236/236
f 259/259/259 264/264/264 258/258/258
f 265/265/265 264/264/264 259/259/259
f 260/260/260 266/266/266 257/257/257
f 266/266/266 263/263/263 257/257/257
f 262/262/262 267/267/267 260/260/260
f 267/267/267 266/266/266 260/260/260
f 258/258/258 268/268/268 261/261/261
f 264/264/264 268/268/268 258/258/258
f 261/261/261 269/269/269 262/262/262
f 269/269/269 267/267/267 262/262/262
f 268/268/268 269/269/269 261/261/261
f 263/263/263 270/270/270 237/237/237
f 270/270/270 238/238/238 237/237/237
f 265/265/265 271/271/271 264/264/264
f 272/272/272 271/271/271 265/265/265
f 266/266/266 273/273/273 263/263/263
f 273/273/273 270/270/270 263/263/263
f 267/267/267 274/274/274 266/266/266
f 274/274/274 273/273/273 266/266/266
f 269/269/269 275/275/275 267/267/267
f 275/275/275 274/274/274 267/267/267
f 264/264/264 276/276/276 268/268/268
f 271/271/271 276/276/276 264/264/264
f 268/268/268 277/277/277 269/269/269
f 277/277/277 275/275/275 269/269/269
f 276/276/276 277/277/277 268/268/268
f 270/270/270 278/278/278 238/238/238
f 278/278/278 240/240/240 238/238/238
f 273/273/273 279/279/279 270/270/270
f 279/279/279 278/278/278 270/270/270
f 274/274/274 280/280/280 273/273/273
f 280/280/280 279/279/279 273/273/273
f 275/275/275 281/281/281 274/274/274
f 281/281/281 280/280/280 274/274/274
f 277/277/277 282/282/282 275/275/275
f 282/282/282 281/281/281 275/275/275
f 276/276/276 283/283/283 277/277/277
f 283/283/283 282/282/282 277/277/277
f 278/278/278 284/284/284 240/240/240
f 284/284/284 285/285/285 240/240/240
f 279/279/279 286/286/286 278/278/278
f 286/286/286 284/284/284 278/278/278
f 280/280/280 287/287/287 279/279/279
f 287/287/287 286/286/286 279/279/279
f 281/281/281 288/288/288 280/280/280
f 288/288/288 287/287/287 280/280/280
f 282/282/282 289/289/289 281/281/281
f 289/289/289 288/288/288 281/281/281
f 286/286/286 290/290/290 284/284/284
f 290/290/290 291/291/291 284/284/284
f 287/287/287 292/292/292 286/286/286
f 292/292/292 290/290/290 286/286/286
f 288/288/288 293/293/293 287/287/287
f 293/293/293 292/292/292 287/287/287
f 292/292/292 294/294/294 290/290/290
f 294/294/294 295/295/295 290/290/290
f 296/296/296 294/294/294 292/292/292
f 293/293/293 296/296/296 292/292/292
f 297/297/297 293/293/293 288/288/288
f 289/289/289 297/297/297 288/288/288
f 298/298/298 289/289/289 282/282/282
f 283/283/283 298/298/298 282/282/282
f 296/296/296 299/299/299 294/294/294
f 299/299/299 300/300/300 294/294/294
f 301/301/301 296/296/296 293/293/293
f 297/297/297 301/301/301 293/293/293
f 302/302/302 297/297/297 289/289/289
f 298/298/298 302/302/302 289/289/289
f 303/303/303 299/299/299 296/296/296
f 301/301/301 303/303/303 296/296/296
f 304/304/304 301/301/301 297/297/297
f 302/302/302 304/304/304 297/297/297
f 303/303/303 305/305/305 299/299/299
f 305/305/305 306/306/306 299/299/299
f 307/307/307 303/303/303 301/301/301
f 304/304/304 307/307/307 301/301/301
f 308/308/308 305/305/305 303/303/303
f 307/307/307 308/308/308 303/303/303
f 308/308/308 309/309/309 305/305/305
f 309/309/309 310/310/310 305/305/305
f 311/311/311 302/302/302 298/298/298
f 312/312/312 304/304/304 302/302/302
f 311/311/311 312/312/312 302/302/302
f 313/313/313 307/307/307 304/304/304
f 312/312/312 313/313/313 304/304/304
f 314/314/314 308/308/308 307/307/307
f 313/313/313 314/314/314 307/307/307
f 315/315/315 309/309/309 308/308/308
f 314/314/314 315/315/315 308/308/308
f 316/316/316 311/311/311 298/298/298
f 316/316/316 298/298/298 283/283/283
f 315/315/315 317/317/317 309/309/309
f 317/317/317 318/318/318 309/309/309
f 319/319/319 316/316/316 283/283/283
f 319/319/319 283/283/283 276/276/276
f 271/271/271 319/319/319 276/276/276
f 320/320/320 319/319/319 271/271/271
f 272/272/272 320/320/320 271/271/271
f 321/321/321 320/320/320 272/272/272
f 322/322/322 316/316/316 319/319/319
f 320/320/320 322/322/322 319/319/319
f 321/321/321 323/323/323 320/320/320
f 323/323/323 322/322/322 320/320/320
f 324/324/324 323/323/323 321/321/321
f 322/322/322 325/325/325 316/316/316
f 325/325/325 311/311/311 316/316/316
f 324/324/324 326/326/326 323/323/323
f 327/327/327 326/326/326 324/324/324
f 323/323/323 328/328/328 322/322/322
f 328/328/328 325/325/325 322/322/322
f 326/326/326 328/328/328 323/323/323
f 325/325/325 329/329/329 311/311/311
f 329/329/329 312/312/312 311/311/311
f 327/327/327 330/330/330 326/326/326
f 331/331/331 330/330/330 327/327/327
f 326/326/326 332/332/332 328/328/328
f 330/330/330 332/332/332 326/326/326
f 328/328/328 333/333/333 325/325/325
f 333/333/333 329/329/329 325/325/325
f 332/332/332 333/333/333 328/328/328
f 329/329/329 334/334/334 312/312/312
f 334/334/334 313/313/313 312/312/312
f 331/331/331 335/335/335 330/330/330
f 336/336/336 335/335/335 331/331/331
f 333/333/333 337/337/337 329/329/329
f 337/337/337 334/334/334 329/329/329
f 330/330/330 338/338/338 332/332/332
f 335/335/335 338/338/338 330/330/330
f 332/332/332 339/339/339 333/333/333
f 339/339/339 337/337/337 333/333/333
f 338/338/338 339/339/339 332/332/332
f 334/334/334 340/340/340 313/313/313
f 340/340/340 314/314/314 313/313/313
f 336/336/336 341/341/341 335/335/335
f 342/342/342 341/341/341 336/336/336
f 337/337/337 343/343/343 334/334/334
f 343/343/343 340/340/340 334/334/334
f 339/339/339 344/344/344 337/337/337
f 344/344/344 343/343/343 337/337/337
f 335/335/335 345/345/345 338/338/338
f 341/341/341 345/345/345 335/335/335
f 338/338/338 346/346/346 339/339/339
f 346/346/346 344/344/344 339/339/339
f 345/345/345 346/346/346 338/338/338
f 340/340/340 347/347/347 314/314/314
f 347/347/347 315/315/315 314/314/314
f 342/342/342 348/348/348 341/341/341
f 349/349/349 348/348/348 342/342/342
f 349/349/349 350/350/350 348/348/348
f 343/343/343 351/351/351 340/340/340
f 351/351/351 347/347/347 340/340/340
f 344/344/344 352/352/352 343/343/343
f 352/352/352 351/351/351 343/343/343
f 346/346/346 353/353/353 344/344/344
f 353/353/353 352/352/352 344/344/344
f 341/341/341 354/354/354 345/345/345
f 348/348/348 354/354/354 341/341/341
f 350/350/350 355/355/355 348/348/348
f 348/348/348 355/355/355 354/354/354
f 350/350/350 356/356/356 355/355/355
f 345/345/345 357/357/357 346/346/346
f 354/354/354 357/357/357 345/345/345
f 357/357/357 353/353/353 346/346/346
f 355/355/355 358/358/358 354/354/354
f 354/354/354 358/358/358 357/357/357
f 356/356/356 359/359/359 355/355/355
f 355/355/355 359/359/359 358/358/358
f 356/356/356 360/360/360 359/359/359
f 357/357/357 361/361/361 353/353/353
f 358/358/358 361/361/361 357/357/357
f 353/353/353 362/362/362 352/352/352
f 361/361/361 362/362/362 353/353/353
f 359/359/359 363/363/363 358/358/358
f 358/358/358 363/363/363 361/361/361
f 360/360/360 364/364/364 359/359/359
f 359/359/359 364/364/364 363/363/363
f 360/360/360 365/365/365 364/364/364
f 363/363/363 366/366/366 361/361/361
f 361/361/361 366/366/366 362/362/362
f 362/362/362 367/367/367 352/352/352
f 352/352/352 367/367/367 351/351/351
f 364/364/364 368/368/368 363/363/363
f 363/363/363 368/368/368 366/366/366
f 365/365/365 369/369/369 364/364/364
f 364/364/364 369/369/369 368/368/368
f 365/365/365 370/370/370 369/369/369
f 366/366/366 371/371/371 362/362/362
f 362/362/362 371/371/371 367/367/367
f 367/367/367 372/372/372 351/351/351
f 351/351/351 372/372/372 347/347/347
f 368/368/368 373/373/373 366/366/366
f 366/366/366 373/373/373 371/371/371
f 369/369/369 374/374/374 368/368/368
f 368/368/368 374/374/374 373/373/373
f 370/370/370 375/375/375 369/369/369
f 369/369/369 375/375/375 374/374/374
f 370/370/370 376/376/376 375/375/375
f 371/371/371 377/377/377 367/367/367
f 367/367/367 377/377/377 372/372/372
f 372/372/372 378/378/378 347/347/347
f 347/347/347 378/378/378 315/315/315
f 378/378/378 317/317/317 315/315/315
f 373/373/373 379/379/379 371/371/371
f 371/371/371 379/379/379 377/377/377
f 374/374/374 380/380/380 373/373/373
f 373/373/373 380/380/380 379/379/379
f 375/375/375 381/381/381 374/374/374
f 374/374/374 381/381/381 380/380/380
f 376/376/376 382/382/382 375/375/375
f 375/375/375 382/382/382 381/381/381
f 376/376/376 383/383/383 382/382/382
f 372/372/372 384/384/384 378/378/378
f 377/377/377 384/384/384 372/372/372
f 378/378/378 385/385/385 317/317/317
f 384/384/384 385/385/385 378/378/378
f 385/385/385 386/386/386 317/317/317
f 379/379/379 387/387/387 377/377/377
f 377/377/377 387/387/387 384/384/384
f 384/384/384 388/388/388 385/385/385
f 387/387/387 388/388/388 384/384/384
f 388/388/388 389/389/389 385/385/385
f 383/383/383 390/390/390 382/382/382
f 383/383/383 391/391/391 390/390/390
f 379/379/379 392/392/392 387/387/387
f 380/380/380 392/392/392 379/379/379
f 387/387/387 393/393/393 388/388/388
f 392/392/392 393/393/393 387/387/387
f 393/393/393 394/394/394 388/388/388
f 380/380/380 395/395/395 392/392/392
f 381/381/381 395/395/395 380/380/380
f 382/382/382 396/396/396 381/381/381
f 382/382/382 390/390/390 396/396/396
f 381/381/381 396/396/396 395/395/395
f 392/392/392 397/397/397 393/393/393
f 395/395/395 397/397/397 392/392/392
f 397/397/397 398/398/398 393/393/393
f 395/395/395 399/399/399 397/397/397
f 396/396/396 399/399/399 395/395/395
f 399/399/399 400/400/400 397/397/397
f 396/396/396 401/401/401 399/399/399
f 390/390/390 401/401/401 396/396/396
f 401/401/401 402/402/402 399/399/399
f 390/390/390 403/403/403 401/401/401
f 403/403/403 404/404/404 401/401/401
f 391/391/391 403/403/403 390/390/390
f 391/391/391 405/405/405 403/403/403
f 405/405/405 406/406/406 403/403/403
