g Md_CMN_Circle_05
v 0.44999993 0 -3.8146972E-08
v 0.44783285 0 -0.04410759
v 0.4999999 0 -3.8146972E-08
v 0.49759215 0 -0.04900843
v 0.44135314 0 -0.087790504
v 0.49039245 0 -0.09754501
v 0.43062294 0 -0.13062795
v 0.47847 0 -0.14514217
v 0.41574562 0 -0.17220737
v 0.46193954 0 -0.19134153
v 0.44096047 0 -0.23569816
v 0.39686438 0 -0.21212834
v 0.4157347 0 -0.27778494
v 0.3741612 0 -0.2500064
v 0.3478546 0 -0.2854768
v 0.38650513 0 -0.3171965
v 0.318198 0 -0.3181979
v 0.3535533 0 -0.35355324
v 0.3171966 0 -0.38650504
v 0.28547695 0 -0.34785452
v 0.25000662 0 -0.37416118
v 0.27778512 0 -0.41573462
v 0.23569837 0 -0.44096047
v 0.21212853 0 -0.3968644
v 0.19134174 0 -0.46193957
v 0.17220756 0 -0.41574565
v 0.13062814 0 -0.430623
v 0.14514238 0 -0.47847
v 0.097545214 0 -0.49039254
v 0.087790675 0 -0.44135326
v 0.049008634 0 -0.49759227
v 0.04410777 0 -0.447833
v 7.018447E-08 0 -0.44999987
v 8.434057E-08 0 -0.49999988
v -0.049008474 0 -0.49759227
v -0.04410763 1.14440915E-07 -0.44783306
v -0.09754506 0 -0.49039257
v -0.087790556 0 -0.4413533
v -0.14514221 0 -0.47847012
v -0.130628 0 -0.4306231
v -0.19134161 0 -0.4619397
v -0.17220746 0 -0.41574576
v -0.21212843 0 -0.39686453
v -0.23569824 0 -0.44096062
v -0.2500065 0 -0.37416133
v -0.277785 0 -0.41573483
v -0.28547716 0 -0.3478548
v -0.31719655 0 -0.38650525
v -0.31819823 0 -0.31819814
v -0.3535533 0 -0.35355338
v -0.3478546 0 -0.285477
v -0.38650513 0 -0.31719667
v -0.4157347 0 -0.27778515
v -0.3741612 0 -0.25000665
v -0.39686447 0 -0.21212858
v -0.44096053 0 -0.23569843
v -0.41574568 0 -0.1722076
v -0.4619397 0 -0.19134177
v -0.47847006 0 -0.14514242
v -0.43062308 0 -0.13062818
v -0.49039254 0 -0.09754526
v -0.4413533 0 -0.08779074
v -0.4975923 0 -0.049008682
v -0.4478331 0 -0.044107817
v -0.44999993 0 -1.18613244E-07
v -0.4999999 0 -1.2755393E-07
v -0.4478331 0 0.04410759
v -0.4975923 0 0.04900843
v -0.4903926 0 0.09754502
v -0.44135338 0 0.08779052
v -0.43062317 0 0.13062796
v -0.47847015 0 0.14514218
v -0.4619397 0 0.19134156
v -0.41574576 0 0.17220742
v -0.39686453 0 0.21212839
v -0.44096062 0 0.23569822
v -0.37416136 0 0.25000647
v -0.41573486 0 0.27778497
v -0.34785467 0 0.28547683
v -0.38650528 0 0.31719652
v -0.35355338 0 0.35355327
v -0.31819806 0 0.31819794
v -0.285477 0 0.34785455
v -0.3171967 0 0.38650507
v -0.25000668 0 0.37416118
v -0.27778518 0 0.41573465
v -0.2121286 0 0.39686447
v -0.23569843 0 0.4409605
v -0.17220762 0 0.41574568
v -0.19134177 0 0.4619396
v -0.1451424 0 0.47847003
v -0.13062817 0 0.43062305
v -0.09754523 0 0.49039254
v -0.08779071 0 0.44135326
v -0.049008656 0 0.49759227
v -0.044107795 0 0.447833
v -8.739531E-08 0 0.44999993
v -9.074807E-08 0 0.49999988
v 0.049008474 0 0.49759227
v 0.044107616 0 0.447833
v 0.09754506 0 0.49039257
v 0.08779054 0 0.4413533
v 0.13062799 0 0.43062305
v 0.14514221 0 0.47847006
v 0.19134161 0 0.46193966
v 0.17220744 0 0.41574568
v 0.21212843 0 0.3968645
v 0.23569825 0 0.44096056
v 0.2500065 0 0.37416124
v 0.277785 0 0.41573477
v 0.31719655 0 0.38650516
v 0.2854769 0 0.34785464
v 0.3535533 0 0.35355335
v 0.31819794 0 0.318198
v 0.38650513 0 0.31719658
v 0.3478546 0 0.2854769
v 0.4157347 0 0.2777851
v 0.3741612 0 0.2500066
v 0.44096053 0 0.23569833
v 0.39686447 0 0.2121285
v 0.41574568 0 0.1722075
v 0.4619397 0 0.19134168
v 0.43062308 0 0.13062806
v 0.47847006 0 0.14514232
v 0.49039254 0 0.097545125
v 0.4413533 0 0.0877906
v 0.4975923 0 0.04900853
v 0.4478331 0 0.044107676
v 0.44999993 0 -3.8146972E-08
v 0.4999999 0 -3.8146972E-08
vt 5.9604645E-08 0.99925864
vt 0.015604973 0.99925864
vt 0 0.00016986695
vt 0.015604794 0.00016986695
vt 0.031309903 0.99925864
vt 0.031271815 0.00016986695
vt 0.04692918 0.99925864
vt 0.04692912 0.00016986695
vt 0.062557936 0.99925864
vt 0.06255776 0.00016986695
vt 0.07816672 0.00016986695
vt 0.07791075 0.99925864
vt 0.09376621 0.00016986695
vt 0.0935348 0.99925864
vt 0.10937065 0.99925864
vt 0.10937059 0.00016986695
vt 0.12498242 0.99925864
vt 0.12498236 0.00016986695
vt 0.14059508 0.00016986695
vt 0.14048582 0.99925864
vt 0.15621597 0.99925864
vt 0.1562159 0.00016986695
vt 0.17184472 0.00016986695
vt 0.17184478 0.9992586
vt 0.18747306 0.00016986695
vt 0.18747312 0.9992586
vt 0.20310032 0.9992586
vt 0.20310014 0.00016986695
vt 0.21873224 0.00016986695
vt 0.21875083 0.9992586
vt 0.2343635 0.00016986695
vt 0.23438555 0.9992586
vt 0.24999267 0.9992586
vt 0.24999261 0.00016986695
vt 0.26562697 0.00016986695
vt 0.26565257 0.9992586
vt 0.2812639 0.00016986695
vt 0.2812527 0.9992586
vt 0.29690057 0.00016986695
vt 0.29685247 0.9992586
vt 0.3125326 0.00016986695
vt 0.31247848 0.9992586
vt 0.3281641 0.9992586
vt 0.3281641 0.00016986695
vt 0.3437114 0.9992586
vt 0.3437963 0.00016986695
vt 0.35942554 0.9992586
vt 0.35942554 0.00016986695
vt 0.37505275 0.9992586
vt 0.37505266 0.00016986695
vt 0.3906765 0.9992586
vt 0.39067635 0.00016986695
vt 0.40630147 0.00016986695
vt 0.40624717 0.9992586
vt 0.42192608 0.9992586
vt 0.421926 0.00016986695
vt 0.43755245 0.9992586
vt 0.43755552 0.00016986695
vt 0.45318553 0.00016986695
vt 0.45319358 0.9992586
vt 0.46881828 0.00016986695
vt 0.46881467 0.9992586
vt 0.48444864 0.00016986695
vt 0.48445544 0.9992586
vt 0.50007993 0.9992586
vt 0.50007993 0.00016986695
vt 0.5157144 0.9992586
vt 0.5157144 0.00016986695
vt 0.53134584 0.00016986695
vt 0.53134584 0.9992586
vt 0.5470053 0.9992586
vt 0.54697704 0.00016986695
vt 0.56260777 0.00016986695
vt 0.5626467 0.9992586
vt 0.5782415 0.9992586
vt 0.5782415 0.00016986695
vt 0.5938757 0.9992586
vt 0.5938777 0.00016986695
vt 0.6095103 0.9992586
vt 0.6095103 0.00016986695
vt 0.6251427 0.00016986695
vt 0.62514246 0.9992586
vt 0.64077455 0.9992586
vt 0.64077455 0.00016986695
vt 0.656386 0.9992586
vt 0.6564096 0.00016986695
vt 0.6720427 0.9992586
vt 0.6720427 0.00016986695
vt 0.6876745 0.9992586
vt 0.6876745 0.00016986695
vt 0.7033055 0.00016986695
vt 0.7033055 0.9992586
vt 0.7189383 0.00016986695
vt 0.7188782 0.9992586
vt 0.7345679 0.00016986695
vt 0.7345149 0.9992586
vt 0.750196 0.9992586
vt 0.75019586 0.00016986695
vt 0.7658279 0.00016986695
vt 0.7657981 0.9992586
vt 0.78145754 0.00016986695
vt 0.7814418 0.9992586
vt 0.79708374 0.9992586
vt 0.79708374 0.00016986695
vt 0.8127066 0.00016986695
vt 0.8127067 0.9992586
vt 0.82832587 0.9992586
vt 0.82832575 0.00016986695
vt 0.8439387 0.9992585
vt 0.8439386 0.00016986695
vt 0.85954034 0.00016986695
vt 0.8597852 0.9992585
vt 0.8751321 0.00016986695
vt 0.875417 0.9992585
vt 0.89071345 0.00016986695
vt 0.89103246 0.9992585
vt 0.9062886 0.00016986695
vt 0.90628874 0.9992585
vt 0.921859 0.00016986695
vt 0.9222091 0.9992585
vt 0.9374349 0.9992585
vt 0.9374348 0.00016986695
vt 0.9530413 0.9992585
vt 0.9530412 0.00016986695
vt 0.96868813 0.00016986695
vt 0.96868825 0.9992585
vt 0.9843637 0.00016986695
vt 0.9843637 0.9992585
vt 0.99997956 0.9992585
vt 0.99997956 0.00016986695
vn -0 1 0
vn -0 1 0
vn -0 1 0
vn -0 1 0
vn -0 1 0
vn -0 1 0
vn -0 1 0
vn -0 1 0
vn -0 1 0
vn -0 1 0
vn -0 1 0
vn -0 1 0
vn -0 1 0
vn -0 1 0
vn -0 1 0
vn -0 1 0
vn -0 1 0
vn -0 1 0
vn -0 1 0
vn -0 1 0
vn -0 1 0
vn -0 1 0
vn -0 1 0
vn -0 1 0
vn -0 1 0
vn -0 1 0
vn -0 1 0
vn -0 1 0
vn -0 1 0
vn -0 1 0
vn -0 1 0
vn -0 1 0
vn 5.9243405E-07 1 -6.1006284E-07
vn -0 1 0
vn 3.5261127E-07 1 -1.7004597E-06
vn 4.852989E-07 1 -1.7183052E-06
vn -6.3336915E-07 1 -5.1748907E-07
vn -1.2383842E-06 1 2.4632945E-07
vn -0 1 0
vn -0 1 0
vn -0 1 0
vn -0 1 0
vn -0 1 0
vn -0 1 0
vn -0 1 0
vn -0 1 0
vn -0 1 0
vn -0 1 0
vn -0 1 0
vn -0 1 0
vn -0 1 0
vn -0 1 0
vn -0 1 0
vn -0 1 0
vn -0 1 0
vn -0 1 0
vn -0 1 0
vn -0 1 0
vn -0 1 0
vn -0 1 0
vn -0 1 0
vn -0 1 0
vn -0 1 0
vn -0 1 0
vn -0 1 0
vn -0 1 0
vn -0 1 0
vn -0 1 0
vn -0 1 0
vn -0 1 0
vn -0 1 0
vn -0 1 0
vn -0 1 0
vn -0 1 0
vn -0 1 0
vn -0 1 0
vn -0 1 0
vn -0 1 0
vn -0 1 0
vn -0 1 0
vn -0 1 0
vn -0 1 0
vn -0 1 0
vn -0 1 0
vn -0 1 0
vn -0 1 0
vn -0 1 0
vn -0 1 0
vn -0 1 0
vn -0 1 0
vn -0 1 0
vn -0 1 0
vn -0 1 0
vn -0 1 0
vn -0 1 0
vn -0 1 0
vn -0 1 0
vn -0 1 0
vn -0 1 0
vn -0 1 0
vn -0 1 0
vn -0 1 0
vn -0 1 0
vn -0 1 0
vn -0 1 0
vn -0 1 0
vn -0 1 0
vn -0 1 0
vn -0 1 0
vn -0 1 0
vn -0 1 0
vn -0 1 0
vn -0 1 0
vn -0 1 0
vn -0 1 0
vn -0 1 0
vn -0 1 0
vn -0 1 0
vn -0 1 0
vn -0 1 0
vn -0 1 0
vn -0 1 0
vn -0 1 0
vn -0 1 0
vn -0 1 0
vn -0 1 0
vn -0 1 0
vn -0 1 0
vn -0 1 0
vn -0 1 0
g Md_CMN_Circle_05_0
f 3/3/3 2/2/2 1/1/1
f 3/3/3 4/4/4 2/2/2
f 5/5/5 2/2/2 4/4/4
f 5/5/5 4/4/4 6/6/6
f 6/6/6 7/7/7 5/5/5
f 6/6/6 8/8/8 7/7/7
f 9/9/9 7/7/7 8/8/8
f 9/9/9 8/8/8 10/10/10
f 11/11/11 9/9/9 10/10/10
f 12/12/12 9/9/9 11/11/11
f 13/13/13 12/12/12 11/11/11
f 14/14/14 12/12/12 13/13/13
f 13/13/13 15/15/15 14/14/14
f 13/13/13 16/16/16 15/15/15
f 17/17/17 15/15/15 16/16/16
f 17/17/17 16/16/16 18/18/18
f 19/19/19 17/17/17 18/18/18
f 20/20/20 17/17/17 19/19/19
f 19/19/19 21/21/21 20/20/20
f 19/19/19 22/22/22 21/21/21
f 23/23/23 21/21/21 22/22/22
f 24/24/24 21/21/21 23/23/23
f 25/25/25 24/24/24 23/23/23
f 26/26/26 24/24/24 25/25/25
f 27/27/27 26/26/26 25/25/25
f 27/27/27 25/25/25 28/28/28
f 29/29/29 27/27/27 28/28/28
f 30/30/30 27/27/27 29/29/29
f 31/31/31 30/30/30 29/29/29
f 32/32/32 30/30/30 31/31/31
f 31/31/31 33/33/33 32/32/32
f 31/31/31 34/34/34 33/33/33
f 35/35/35 33/33/33 34/34/34
f 36/36/36 33/33/33 35/35/35
f 37/37/37 36/36/36 35/35/35
f 38/38/38 36/36/36 37/37/37
f 39/39/39 38/38/38 37/37/37
f 40/40/40 38/38/38 39/39/39
f 41/41/41 40/40/40 39/39/39
f 42/42/42 40/40/40 41/41/41
f 41/41/41 43/43/43 42/42/42
f 41/41/41 44/44/44 43/43/43
f 45/45/45 43/43/43 44/44/44
f 45/45/45 44/44/44 46/46/46
f 46/46/46 47/47/47 45/45/45
f 46/46/46 48/48/48 47/47/47
f 49/49/49 47/47/47 48/48/48
f 49/49/49 48/48/48 50/50/50
f 51/51/51 49/49/49 50/50/50
f 51/51/51 50/50/50 52/52/52
f 53/53/53 51/51/51 52/52/52
f 54/54/54 51/51/51 53/53/53
f 53/53/53 55/55/55 54/54/54
f 53/53/53 56/56/56 55/55/55
f 57/57/57 55/55/55 56/56/56
f 57/57/57 56/56/56 58/58/58
f 59/59/59 57/57/57 58/58/58
f 60/60/60 57/57/57 59/59/59
f 61/61/61 60/60/60 59/59/59
f 62/62/62 60/60/60 61/61/61
f 63/63/63 62/62/62 61/61/61
f 64/64/64 62/62/62 63/63/63
f 63/63/63 65/65/65 64/64/64
f 63/63/63 66/66/66 65/65/65
f 66/66/66 67/67/67 65/65/65
f 66/66/66 68/68/68 67/67/67
f 69/69/69 67/67/67 68/68/68
f 70/70/70 67/67/67 69/69/69
f 71/71/71 70/70/70 69/69/69
f 71/71/71 69/69/69 72/72/72
f 73/73/73 71/71/71 72/72/72
f 74/74/74 71/71/71 73/73/73
f 73/73/73 75/75/75 74/74/74
f 73/73/73 76/76/76 75/75/75
f 77/77/77 75/75/75 76/76/76
f 77/77/77 76/76/76 78/78/78
f 78/78/78 79/79/79 77/77/77
f 78/78/78 80/80/80 79/79/79
f 81/81/81 79/79/79 80/80/80
f 82/82/82 79/79/79 81/81/81
f 81/81/81 83/83/83 82/82/82
f 81/81/81 84/84/84 83/83/83
f 85/85/85 83/83/83 84/84/84
f 85/85/85 84/84/84 86/86/86
f 86/86/86 87/87/87 85/85/85
f 86/86/86 88/88/88 87/87/87
f 89/89/89 87/87/87 88/88/88
f 89/89/89 88/88/88 90/90/90
f 91/91/91 89/89/89 90/90/90
f 92/92/92 89/89/89 91/91/91
f 93/93/93 92/92/92 91/91/91
f 94/94/94 92/92/92 93/93/93
f 95/95/95 94/94/94 93/93/93
f 96/96/96 94/94/94 95/95/95
f 95/95/95 97/97/97 96/96/96
f 95/95/95 98/98/98 97/97/97
f 99/99/99 97/97/97 98/98/98
f 100/100/100 97/97/97 99/99/99
f 101/101/101 100/100/100 99/99/99
f 102/102/102 100/100/100 101/101/101
f 101/101/101 103/103/103 102/102/102
f 101/101/101 104/104/104 103/103/103
f 105/105/105 103/103/103 104/104/104
f 106/106/106 103/103/103 105/105/105
f 107/107/107 106/106/106 105/105/105
f 107/107/107 105/105/105 108/108/108
f 109/109/109 107/107/107 108/108/108
f 109/109/109 108/108/108 110/110/110
f 111/111/111 109/109/109 110/110/110
f 112/112/112 109/109/109 111/111/111
f 113/113/113 112/112/112 111/111/111
f 114/114/114 112/112/112 113/113/113
f 115/115/115 114/114/114 113/113/113
f 116/116/116 114/114/114 115/115/115
f 117/117/117 116/116/116 115/115/115
f 118/118/118 116/116/116 117/117/117
f 119/119/119 118/118/118 117/117/117
f 120/120/120 118/118/118 119/119/119
f 119/119/119 121/121/121 120/120/120
f 119/119/119 122/122/122 121/121/121
f 123/123/123 121/121/121 122/122/122
f 123/123/123 122/122/122 124/124/124
f 125/125/125 123/123/123 124/124/124
f 126/126/126 123/123/123 125/125/125
f 127/127/127 126/126/126 125/125/125
f 128/128/128 126/126/126 127/127/127
f 129/129/129 128/128/128 127/127/127
f 129/129/129 127/127/127 130/130/130
