g Md_CMN_CircleHalf_03
v 0.25 0 0
v 0.5 0 0
v 0.4975923 -7.984509E-09 0.049008563
v 0.24879615 -3.9922545E-09 0.024504282
v 0.4903926 -1.5892125E-08 0.09754516
v 0.2451963 -7.9460625E-09 0.04877258
v 0.23923507 -1.1823344E-08 0.07257117
v 0.47847015 -2.3646688E-08 0.14514235
v 0.46193972 -3.1173524E-08 0.1913417
v 0.23096986 -1.5586762E-08 0.09567085
v 0.44096062 -3.8400138E-08 0.23569837
v 0.22048031 -1.9200069E-08 0.117849186
v 0.41573477 -4.5256943E-08 0.27778512
v 0.20786738 -2.2628472E-08 0.13889256
v 0.3865052 -5.1677887E-08 0.31719664
v 0.1932526 -2.5838943E-08 0.15859832
v 0.35355335 -5.760116E-08 0.35355338
v 0.17677668 -2.880058E-08 0.17677669
v 0.3171966 -6.296969E-08 0.3865052
v 0.1585983 -3.1484845E-08 0.1932526
v 0.13889253 -3.3865895E-08 0.20786738
v 0.27778506 -6.77318E-08 0.41573483
v 0.23569831 -7.1841605E-08 0.44096062
v 0.117849156 -3.5920802E-08 0.22048031
v 0.19134167 -7.525953E-08 0.4619397
v 0.095670834 -3.7629768E-08 0.23096986
v 0.07257114 -3.897634E-08 0.23923506
v 0.14514227 -7.795268E-08 0.47847012
v 0.09754512 -7.9895095E-08 0.4903926
v 0.04877256 -3.9947547E-08 0.2451963
v 0.04900853 -8.106808E-08 0.4975923
v 0.024504265 -4.053404E-08 0.24879615
v -3.3527613E-08 -8.146033E-08 0.4999999
v -1.6763806E-08 -4.0730164E-08 0.24999996
v -0.049008597 -8.106808E-08 0.4975923
v -0.024504298 -4.053404E-08 0.24879615
v -0.09754518 -7.989509E-08 0.49039257
v -0.04877259 -3.9947544E-08 0.24519628
v -0.07257117 -3.8976335E-08 0.23923501
v -0.14514235 -7.795267E-08 0.47847003
v -0.09567087 -3.7629764E-08 0.23096985
v -0.1913417 -7.525952E-08 0.46193966
v -0.23569837 -7.184159E-08 0.44096053
v -0.117849186 -3.5920795E-08 0.22048026
v -0.27778512 -6.773178E-08 0.4157347
v -0.13889256 -3.386589E-08 0.20786735
v -0.31719664 -6.2969676E-08 0.38650513
v -0.15859832 -3.1484838E-08 0.19325256
v -0.35355335 -5.7601145E-08 0.3535533
v -0.17677668 -2.8800573E-08 0.17677665
v -0.3865052 -5.167788E-08 0.31719655
v -0.1932526 -2.5838936E-08 0.15859827
v -0.20786738 -2.2628459E-08 0.1388925
v -0.41573477 -4.5256918E-08 0.277785
v -0.22048026 -1.920006E-08 0.11784913
v -0.44096053 -3.840012E-08 0.23569825
v -0.46193966 -3.1173503E-08 0.19134161
v -0.23096985 -1.5586753E-08 0.09567081
v -0.23923501 -1.1823335E-08 0.07257111
v -0.47847003 -2.3646669E-08 0.14514221
v -0.49039257 -1.5892107E-08 0.09754506
v -0.24519628 -7.946054E-09 0.04877253
v -0.24879614 -3.992247E-09 0.024504237
v -0.49759227 -7.984493E-09 0.04900847
v -0.49999988 1.4566244E-14 -8.940697E-08
v -0.24999994 7.283122E-15 -4.4703484E-08
vt 1.000192 0.99960834
vt 1.000192 -9.32503E-05
vt 0.96307397 -9.32503E-05
vt 0.98190886 0.99960834
vt 0.9255349 -9.32503E-05
vt 0.95736355 0.99960834
vt 0.9309856 0.99960834
vt 0.8888425 -9.32503E-05
vt 0.8523207 -9.32503E-05
vt 0.9038664 0.99960834
vt 0.81654733 -9.32503E-05
vt 0.87576175 0.99960834
vt 0.7815753 -9.32503E-05
vt 0.84680176 0.99960834
vt 0.747411 -9.32503E-05
vt 0.81710774 0.99960834
vt 0.7140336 -9.32503E-05
vt 0.78677976 0.99960834
vt 0.681407 -9.307149E-05
vt 0.7558979 0.99960834
vt 0.7243769 0.99960834
vt 0.649721 -9.307149E-05
vt 0.6181681 -9.307149E-05
vt 0.69274473 0.99960834
vt 0.5871898 -9.307149E-05
vt 0.6607572 0.9996084
vt 0.62835 0.9996084
vt 0.55682844 -9.307149E-05
vt 0.52644384 -9.307149E-05
vt 0.5959742 0.9996084
vt 0.49639806 -9.307149E-05
vt 0.5634117 0.9996084
vt 0.4666416 -9.307149E-05
vt 0.5306748 0.9996084
vt 0.43714663 -9.307149E-05
vt 0.4977807 0.9996084
vt 0.4079117 -9.307149E-05
vt 0.4647301 0.9996084
vt 0.4315376 0.9996084
vt 0.3789195 -9.307149E-05
vt 0.39839464 0.9996084
vt 0.34979382 -9.307149E-05
vt 0.32053447 -9.307149E-05
vt 0.36532578 0.9996084
vt 0.29142892 -9.307149E-05
vt 0.3321971 0.9996084
vt 0.26245102 -9.307149E-05
vt 0.29899472 0.9996084
vt 0.23359922 -9.307149E-05
vt 0.26571772 0.9996084
vt 0.20489782 -9.307149E-05
vt 0.2323519 0.9996084
vt 0.19893324 0.9996084
vt 0.17628202 -9.307149E-05
vt 0.16564396 0.9996084
vt 0.14743891 -9.307149E-05
vt 0.11851132 -9.307149E-05
vt 0.13240421 0.9996084
vt 0.09911686 0.9996084
vt 0.089632064 -9.307149E-05
vt 0.060697287 -9.307149E-05
vt 0.06588557 0.9996084
vt 0.03262025 0.9996084
vt 0.031809628 -9.307149E-05
vt 0.0028396845 -9.307149E-05
vt -0.00062066317 0.9996084
vn -0 1 1.6292064E-07
vn -0 1 1.6292071E-07
vn -0 1 1.6292068E-07
vn -0 1 1.629206E-07
vn -0 1 1.6292064E-07
vn -0 1 1.6292068E-07
vn -0 1 1.6292064E-07
vn -0 1 1.6292077E-07
vn -0 1 1.6292073E-07
vn -0 1 1.6292051E-07
vn -0 1 1.629207E-07
vn -0 1 1.629206E-07
vn -0 1 1.6292068E-07
vn -0 1 1.6292046E-07
vn -0 1 1.6292068E-07
vn -0 1 1.6292063E-07
vn -0 1 1.629207E-07
vn -0 1 1.6292088E-07
vn -0 1 1.6292063E-07
vn -0 1 1.629208E-07
vn -0 1 1.6292086E-07
vn -0 1 1.6292073E-07
vn -0 1 1.6292073E-07
vn -0 1 1.6292071E-07
vn -0 1 1.629206E-07
vn -0 1 1.6292068E-07
vn -0 1 1.6292073E-07
vn -0 1 1.6292064E-07
vn -0 1 1.629207E-07
vn -0 1 1.6292071E-07
vn -0 1 1.6292071E-07
vn -0 1 1.6292073E-07
vn -0 1 1.6292071E-07
vn -0 1 1.6292068E-07
vn -0 1 1.6292074E-07
vn -0 1 1.6292067E-07
vn -0 1 1.6292071E-07
vn -0 1 1.6292063E-07
vn -0 1 1.6292071E-07
vn -0 1 1.6292068E-07
vn -0 1 1.6292078E-07
vn -0 1 1.629206E-07
vn -0 1 1.6292061E-07
vn -0 1 1.6292071E-07
vn -0 1 1.6292068E-07
vn -0 1 1.6292073E-07
vn -0 1 1.6292068E-07
vn -0 1 1.6292078E-07
vn -0 1 1.6292066E-07
vn -0 1 1.629207E-07
vn -0 1 1.6292064E-07
vn -0 1 1.6292071E-07
vn -0 1 1.6292064E-07
vn -0 1 1.6292064E-07
vn -0 1 1.6292066E-07
vn -0 1 1.6292078E-07
vn -0 1 1.6292071E-07
vn -0 1 1.6292068E-07
vn -0 1 1.6292073E-07
vn -0 1 1.6292068E-07
vn -0 1 1.6292068E-07
vn -0 1 1.629207E-07
vn -0 1 1.6292066E-07
vn -0 1 1.6292073E-07
vn -0 1 1.6292068E-07
vn -0 1 1.6292066E-07
g Md_CMN_CircleHalf_03_0
f 3/3/3 2/2/2 1/1/1
f 3/3/3 1/1/1 4/4/4
f 5/5/5 3/3/3 4/4/4
f 5/5/5 4/4/4 6/6/6
f 6/6/6 7/7/7 5/5/5
f 5/5/5 7/7/7 8/8/8
f 9/9/9 8/8/8 7/7/7
f 9/9/9 7/7/7 10/10/10
f 11/11/11 9/9/9 10/10/10
f 11/11/11 10/10/10 12/12/12
f 13/13/13 11/11/11 12/12/12
f 13/13/13 12/12/12 14/14/14
f 15/15/15 13/13/13 14/14/14
f 15/15/15 14/14/14 16/16/16
f 17/17/17 15/15/15 16/16/16
f 17/17/17 16/16/16 18/18/18
f 19/19/19 17/17/17 18/18/18
f 19/19/19 18/18/18 20/20/20
f 20/20/20 21/21/21 19/19/19
f 19/19/19 21/21/21 22/22/22
f 23/23/23 22/22/22 21/21/21
f 23/23/23 21/21/21 24/24/24
f 25/25/25 23/23/23 24/24/24
f 25/25/25 24/24/24 26/26/26
f 26/26/26 27/27/27 25/25/25
f 25/25/25 27/27/27 28/28/28
f 29/29/29 28/28/28 27/27/27
f 29/29/29 27/27/27 30/30/30
f 31/31/31 29/29/29 30/30/30
f 31/31/31 30/30/30 32/32/32
f 33/33/33 31/31/31 32/32/32
f 33/33/33 32/32/32 34/34/34
f 35/35/35 33/33/33 34/34/34
f 35/35/35 34/34/34 36/36/36
f 37/37/37 35/35/35 36/36/36
f 37/37/37 36/36/36 38/38/38
f 38/38/38 39/39/39 37/37/37
f 37/37/37 39/39/39 40/40/40
f 39/39/39 41/41/41 40/40/40
f 40/40/40 41/41/41 42/42/42
f 43/43/43 42/42/42 41/41/41
f 43/43/43 41/41/41 44/44/44
f 45/45/45 43/43/43 44/44/44
f 45/45/45 44/44/44 46/46/46
f 47/47/47 45/45/45 46/46/46
f 47/47/47 46/46/46 48/48/48
f 49/49/49 47/47/47 48/48/48
f 49/49/49 48/48/48 50/50/50
f 51/51/51 49/49/49 50/50/50
f 51/51/51 50/50/50 52/52/52
f 52/52/52 53/53/53 51/51/51
f 51/51/51 53/53/53 54/54/54
f 53/53/53 55/55/55 54/54/54
f 54/54/54 55/55/55 56/56/56
f 57/57/57 56/56/56 55/55/55
f 57/57/57 55/55/55 58/58/58
f 58/58/58 59/59/59 57/57/57
f 57/57/57 59/59/59 60/60/60
f 61/61/61 60/60/60 59/59/59
f 61/61/61 59/59/59 62/62/62
f 62/62/62 63/63/63 61/61/61
f 61/61/61 63/63/63 64/64/64
f 65/65/65 64/64/64 63/63/63
f 65/65/65 63/63/63 66/66/66
