g Md_UNQ_IMSLight_00
v -0.020758182 0.043016672 0
v -0.020176804 0.043039143 0
v -0.02075537 0.042932417 0
v -0.021392915 0.04278076 0
v -0.02139011 0.04297735 0
v -0.022516346 0.04282849 0
v -0.02246579 0.042508304 0
v -0.023788635 0.04262345 0
v -0.023738079 0.04210103 0
v -0.024937343 0.04237627 0
v -0.024808148 0.041671317 0
v -0.02590068 0.042120658 0
v -0.025743404 0.041258454 0
v -0.026990408 0.04176396 0
v -0.026622491 0.04080345 0
v -0.028004305 0.041370757 0
v -0.027616726 0.040165905 0
v -0.02904067 0.04088767 0
v -0.028419975 0.03960418 0
v -0.029841112 0.04044111 0
v -0.029279402 0.038871128 0
v -0.03067807 0.03992714 0
v -0.03018657 0.038006082 0
v -0.03150379 0.039303634 0
v -0.03077356 0.037343256 0
v -0.031498175 0.036447324 0
v -0.02139011 0.04297735 0
v -0.020758182 0.043016672 0
v -0.02075537 0.042932417 0
v -0.030264575 -0.033351626 -1.4578458E-09
v -0.030274238 -0.03282013 -1.4346134E-09
v -0.03016794 -0.033319414 -1.4564377E-09
v -0.030084193 -0.033699516 -1.4730527E-09
v -0.030235583 -0.033734944 -1.4746014E-09
v -0.029955348 -0.03427289 -1.4981156E-09
v -0.030180823 -0.034298655 -1.4992418E-09
v -0.030100297 -0.034965437 -1.5283877E-09
v -0.029784625 -0.034926783 -1.5266982E-09
v -0.030035874 -0.035580683 -1.5552811E-09
v -0.029623568 -0.035529144 -1.5530283E-09
v -0.029922567 -0.036255606 -1.5847829E-09
v -0.029433517 -0.03614762 -1.5800625E-09
v -0.029811243 -0.03683542 -1.6101274E-09
v -0.029240247 -0.036720984 -1.6051251E-09
v -0.029690644 -0.037475534 -1.6381076E-09
v -0.029001884 -0.037320126 -1.6313144E-09
v -0.029528296 -0.03811101 -1.665885E-09
v -0.028731303 -0.037974022 -1.6598971E-09
v -0.029338108 -0.038839247 -1.6977175E-09
v -0.028434958 -0.038592484 -1.6869312E-09
v -0.02911546 -0.039511833 -1.727117E-09
v -0.028148271 -0.03916263 -1.711853E-09
v -0.028864974 -0.040244702 -1.7591517E-09
v -0.02773918 -0.039855186 -1.7421256E-09
v -0.028591303 -0.040954392 -1.7901736E-09
v -0.027368747 -0.040441435 -1.7677514E-09
v -0.028303716 -0.041599136 -1.818356E-09
v -0.02699509 -0.040963262 -1.7905609E-09
v -0.027918719 -0.042318095 -1.8497825E-09
v -0.026560234 -0.041507643 -1.8143567E-09
v -0.027524447 -0.042999957 -1.8795878E-09
v -0.026125375 -0.042003706 -1.8360402E-09
v -0.027181199 -0.043500915 -1.9014854E-09
v -0.025680844 -0.042457875 -1.8558927E-09
v -0.026824031 -0.044001866 -1.9233826E-09
v -0.025220212 -0.0429024 -1.8753235E-09
v -0.024775691 -0.043317936 -1.8934874E-09
v -0.024298957 -0.04369804 -1.9101019E-09
v -0.023896307 -0.04400083 -1.9233375E-09
v -0.014080164 0.043040734 1.8813702E-09
v -0.014603923 0.04292434 1.8762825E-09
v -0.0147408545 0.043054424 1.8819686E-09
v -0.015442623 0.042718943 1.8673045E-09
v -0.015442623 0.04302019 1.8804724E-09
v -0.016226554 0.042968832 1.8782274E-09
v -0.016191814 0.042509522 1.8581502E-09
v -0.017291192 0.04284901 1.8729898E-09
v -0.017155588 0.04216634 1.8431495E-09
v -0.018595457 0.042619627 1.8629631E-09
v -0.018342044 0.041695412 1.8225642E-09
v -0.019803865 0.042342328 1.8508418E-09
v -0.019422635 0.041176982 1.7999029E-09
v -0.020991737 0.042006824 1.8361767E-09
v -0.020422913 0.040625714 1.7758064E-09
v -0.02200844 0.04165078 1.8206133E-09
v -0.021331925 0.04005254 1.7507521E-09
v -0.02303542 0.041202296 1.8010097E-09
v -0.022288386 0.03934429 1.7197933E-09
v -0.023983665 0.040726446 1.7802093E-09
v -0.023222953 0.03855939 1.6854843E-09
v -0.025041454 0.040093154 1.7525275E-09
v -0.024124669 0.03768321 1.6471855E-09
v -0.026088964 0.03938453 1.7215523E-09
v -0.02513225 0.036580727 1.5989944E-09
v -0.027050897 0.038610883 1.6877352E-09
v -0.028053913 0.037690017 1.6474829E-09
v -0.025829524 0.03569362 1.5602175E-09
v -0.028779645 0.036936887 1.6145625E-09
v -0.026537746 0.03467872 1.5158549E-09
v -0.02962861 0.035906482 1.5695221E-09
v -0.027213115 0.03358718 1.4681423E-09
v -0.030419383 0.034848694 1.5232848E-09
v -0.02768405 0.03273292 1.4308014E-09
v -0.030878102 0.034146927 1.4926095E-09
v -0.02816228 0.031798344 1.3899497E-09
v -0.031501137 0.033123374 1.4478686E-09
v -0.028728144 0.030568074 1.3361728E-09
v -0.029166216 0.029458275 1.287662E-09
v -0.02964446 0.028063722 1.2267043E-09
v -0.030089846 0.026607117 1.1630341E-09
v -0.030400157 0.025427965 1.1114917E-09
v -0.030746974 0.02399691 1.0489383E-09
v -0.031039035 0.022613311 9.884592E-10
v -0.03126173 0.021215107 9.273418E-10
v -0.031491734 0.0197439 8.630333E-10
v -0.030190727 -0.02506907 0
v -0.030271616 -0.02506098 0
v -0.030235216 -0.024405796 0
v -0.030251388 -0.025801102 0
v -0.030097708 -0.025857715 0
v -0.030182635 -0.026905209 0
v -0.029976377 -0.026864758 0
v -0.029802477 -0.027940558 0
v -0.030117925 -0.027952692 0
v -0.02999255 -0.029214527 0
v -0.029563861 -0.029153861 0
v -0.02983482 -0.030294362 0
v -0.029276714 -0.030233702 0
v -0.029677093 -0.03134185 0
v -0.028945075 -0.031317588 0
v -0.02943443 -0.032454047 0
v -0.028552774 -0.03236102 0
v -0.02915942 -0.03354603 0
v -0.028111938 -0.033327624 0
v -0.028819691 -0.03463801 0
v -0.027667062 -0.03419312 0
v -0.02839099 -0.03575021 0
v -0.027084677 -0.035151634 0
v -0.027901625 -0.036826007 0
v -0.026550824 -0.03593625 0
v -0.027456755 -0.037691507 0
v -0.02590373 -0.03676534 0
v -0.026995696 -0.0384478 0
v -0.025220232 -0.037521638 0
v -0.026401183 -0.039297115 0
v -0.02439114 -0.038338594 0
v -0.025810705 -0.040057454 0
v -0.023501383 -0.0390949 0
v -0.025147432 -0.0407733 0
v -0.024290044 -0.04159901 0
v -0.022356829 -0.039964437 0
v -0.023639578 -0.04216522 0
v -0.02298237 -0.04266402 0
v -0.021240592 -0.040684327 0
v -0.02229483 -0.043152712 0
v -0.020019194 -0.041375913 0
v -0.0215837 -0.043577373 0
v -0.02087931 -0.044002026 0
v -0.018858466 -0.0419947 0
v -0.017584499 -0.04256091 0
v -0.016003158 -0.043179702 0
v -0.014862654 -0.043576058 0
v -0.013544195 -0.044004753 0
v 0.015019662 0.043387625 0
v 0.013111597 0.044003524 0
v 0.020647222 0.04401558 0
v 0.016939804 0.04265097 0
v 0.019101474 0.04164864 0
v 0.021504669 0.04028401 0
v 0.022869274 0.042578496 0
v 0.024547886 0.041129332 0
v 0.023678407 0.038677853 0
v 0.025888361 0.039704323 0
v 0.025405325 0.036987156 0
v 0.026926931 0.03815855 0
v 0.028001726 0.036165956 0
v 0.026661268 0.035356846 0
v 0.028738383 0.03425789 0
v 0.027796434 0.033412546 0
v 0.029330127 0.0321566 0
v 0.028496858 0.03189092 0
v 0.029148983 0.029910397 0
v 0.029716562 0.029982856 0
v 0.029607885 0.028038561 0
v 0.029970169 0.028086863 0
v 0.030090928 0.026154649 0
v 0.029921867 0.026082192 0
v 0.030163385 0.023787681 0
v 0.023760581 0.044008326 0
v 0.026625916 0.044014186 0
v 0.024896234 0.04304739 0
v 0.0258397 0.042109746 0
v 0.026969522 0.04357739 0
v 0.027464556 0.04279699 0
v 0.026829755 0.04091004 0
v 0.028157596 0.041515745 0
v 0.027709156 0.039622962 0
v 0.028769104 0.040036466 0
v 0.028466262 0.03813788 0
v 0.029269956 0.03842326 0
v 0.028990414 0.036914874 0
v 0.02959027 0.037072115 0
v 0.029566977 0.03520266 0
v 0.029910587 0.035231777 0
v 0.029858174 0.033950526 0
v 0.030062007 0.033967998 0
v 0.030166838 0.032622684 0
vt 0.312212 0.95120144
vt 0.31825954 0.9514352
vt 0.3122413 0.950325
vt 0.30560952 0.9487475
vt 0.30563867 0.95079243
vt 0.29392353 0.94924396
vt 0.2944494 0.9459133
vt 0.28068918 0.9471112
vt 0.281215 0.941677
vt 0.26874027 0.94454
vt 0.27008417 0.93720704
vt 0.25871962 0.9418811
vt 0.26035556 0.9329124
vt 0.24738425 0.93817073
vt 0.2512113 0.9281795
vt 0.23683766 0.9340806
vt 0.24086925 0.9215478
vt 0.22605741 0.9290556
vt 0.23251382 0.91570467
vt 0.21773118 0.9244104
vt 0.22357404 0.9080794
vt 0.20902511 0.9190641
vt 0.21413767 0.8990811
vt 0.20043597 0.91257834
vt 0.20803177 0.89218646
vt 0.20049432 0.88286686
vt 0 0
vt 0 0
vt 0 0
vt 0.21332625 0.15681645
vt 0.21322575 0.16234502
vt 0.21433142 0.15715149
vt 0.21520263 0.15319768
vt 0.21362779 0.15282911
vt 0.21654281 0.1472334
vt 0.2141974 0.14696544
vt 0.21503502 0.14002955
vt 0.21831867 0.14043161
vt 0.21570522 0.13362971
vt 0.21999407 0.1341658
vt 0.21688381 0.12660918
vt 0.22197092 0.12773243
vt 0.21804178 0.12057793
vt 0.22398135 0.121768296
vt 0.21929634 0.11391944
vt 0.22646084 0.115536004
vt 0.22098505 0.10730922
vt 0.22927538 0.10873416
vt 0.22296336 0.09973401
vt 0.23235801 0.10230085
vt 0.22527933 0.092737764
vt 0.23534012 0.09637022
vt 0.22788489 0.08511451
vt 0.23959544 0.089166254
vt 0.23073173 0.077732235
vt 0.24344873 0.08306801
vt 0.2337232 0.07102561
vt 0.24733552 0.07764003
vt 0.23772794 0.063546985
vt 0.2518589 0.07197732
vt 0.24182913 0.05645427
vt 0.25638232 0.066817254
vt 0.24539965 0.051243216
vt 0.26100636 0.06209299
vt 0.2491149 0.04603231
vt 0.26579788 0.05746901
vt 0.2704218 0.05314657
vt 0.2753808 0.049192786
vt 0.27956915 0.046043128
vt 0.3816769 0.9514517
vt 0.37622878 0.950241
vt 0.37480444 0.95159405
vt 0.3675046 0.9481045
vt 0.3675046 0.9512381
vt 0.35935012 0.9507038
vt 0.3597115 0.9459261
vt 0.34827566 0.9494573
vt 0.34968632 0.9423564
vt 0.33470872 0.94707143
vt 0.33734474 0.9374577
vt 0.32213882 0.9441869
vt 0.3261044 0.9320649
vt 0.30978253 0.9406971
vt 0.31569946 0.9263307
vt 0.29920682 0.9369934
vt 0.30624393 0.92036843
vt 0.28852403 0.93232834
vt 0.2962948 0.9130012
vt 0.27866045 0.92737854
vt 0.28657335 0.9048367
vt 0.2676573 0.9207909
vt 0.27719373 0.8957227
vt 0.2567611 0.9134197
vt 0.2667128 0.88425463
vt 0.24675503 0.9053724
vt 0.23632163 0.89579344
vt 0.2594598 0.87502694
vt 0.22877252 0.88795936
vt 0.25209284 0.8644698
vt 0.21994159 0.877241
vt 0.2450676 0.8531156
vt 0.21171597 0.8662379
vt 0.24016899 0.8442296
vt 0.20694432 0.85893816
vt 0.23519441 0.83450806
vt 0.2004635 0.84829116
vt 0.22930825 0.8217108
vt 0.22475141 0.8101667
vt 0.21977672 0.7956605
vt 0.2151438 0.7805089
vt 0.21191594 0.76824325
vt 0.20830831 0.75335735
vt 0.20527032 0.73896515
vt 0.20295382 0.72442096
vt 0.20056131 0.7091175
vt 0.21409443 0.24297181
vt 0.21325302 0.243056
vt 0.21363169 0.2498712
vt 0.21346346 0.23535714
vt 0.21506199 0.2347683
vt 0.21417862 0.22387221
vt 0.21632415 0.224293
vt 0.21813297 0.21310246
vt 0.2148517 0.2129763
vt 0.21615586 0.19985062
vt 0.22061515 0.20048171
vt 0.21779653 0.18861818
vt 0.22360203 0.18924913
vt 0.2194373 0.17772216
vt 0.22705173 0.17797452
vt 0.22196144 0.16615304
vt 0.23113245 0.16712075
vt 0.22482216 0.15479422
vt 0.23571804 0.1570661
vt 0.22835594 0.14343548
vt 0.24034566 0.14806318
vt 0.23281533 0.13186634
vt 0.2464037 0.13809264
vt 0.23790571 0.1206758
vt 0.2519568 0.12993109
vt 0.2425333 0.11167285
vt 0.25868788 0.121306926
vt 0.24732926 0.10380587
vt 0.26579762 0.1134398
vt 0.25351334 0.0949713
vt 0.27442187 0.104941815
vt 0.25965554 0.08706224
vt 0.28367716 0.09707478
vt 0.2665549 0.07961595
vt 0.2754735 0.07102689
vt 0.29558286 0.0880298
vt 0.28223968 0.06513718
vt 0.2890759 0.059948683
vt 0.30719393 0.08054149
vt 0.29622775 0.05486524
vt 0.31989896 0.0733476
vt 0.30362493 0.05044794
vt 0.31095204 0.0460307
vt 0.33197284 0.06691095
vt 0.3452248 0.06102124
vt 0.3616739 0.054584533
vt 0.3735374 0.05046165
vt 0.38725206 0.04600236
vt 0.68437415 0.95506024
vt 0.6645264 0.96146667
vt 0.74291205 0.9615921
vt 0.70434743 0.9473974
vt 0.72683316 0.9369712
vt 0.75183123 0.92277634
vt 0.7660259 0.9466435
vt 0.78348696 0.9315693
vt 0.7744425 0.9060689
vt 0.7974306 0.9167463
vt 0.79240596 0.8884823
vt 0.8082338 0.9006672
vt 0.8194139 0.8799401
vt 0.80547035 0.8715237
vt 0.82707655 0.8600924
vt 0.8172784 0.85129905
vt 0.8332319 0.8382348
vt 0.82456416 0.8354711
vt 0.8313477 0.81486964
vt 0.83725154 0.8156234
vt 0.8361211 0.79539883
vt 0.83988965 0.79590124
vt 0.84114575 0.7758023
vt 0.83938724 0.77504855
vt 0.8418994 0.751181
vt 0.77529734 0.9615167
vt 0.8051026 0.96157765
vt 0.7871103 0.95152104
vt 0.79692435 0.94176763
vt 0.8086767 0.95703405
vt 0.8138262 0.9489164
vt 0.80722284 0.92928815
vt 0.82103515 0.93558884
vt 0.8163706 0.91589993
vt 0.8273961 0.9202013
vt 0.824246 0.90045214
vt 0.8326061 0.9034206
vt 0.8296982 0.8877304
vt 0.835938 0.88936603
vt 0.8356956 0.86992
vt 0.83926976 0.8702228
vt 0.8387246 0.85689515
vt 0.840845 0.8570768
vt 0.8419354 0.8430829
vn -0 0 1
vn -0 0 1
vn -0 0 1
vn -0 0 1
vn -0 0 1
vn -0 0 1
vn -0 0 1
vn -0 0 1
vn -0 0 1
vn -0 0 1
vn -0 0 1
vn -0 0 1
vn -0 0 1
vn -0 0 1
vn -0 0 1
vn -0 0 1
vn -0 0 1
vn -0 0 1
vn -0 0 1
vn -0 0 1
vn -0 0 1
vn -0 0 1
vn -0 0 1
vn -0 0 1
vn -0 0 1
vn -0 0 1
vn -0 0 1
vn -0 0 1
vn -0 0 1
vn -0 0 1
vn -0 0 1
vn -0 0 1
vn -0 0 1
vn -0 0 1
vn -0 0 1
vn -0 0 1
vn -0 0 1
vn -0 0 1
vn -0 0 1
vn -0 0 1
vn -0 0 1
vn -0 0 1
vn -0 0 1
vn -0 0 1
vn -0 0 1
vn -0 0 1
vn -0 0 1
vn -0 0 1
vn -0 0 1
vn -0 0 1
vn -0 0 1
vn -0 0 1
vn -0 0 1
vn -0 0 1
vn -0 0 1
vn -0 0 1
vn -0 0 1
vn -0 0 1
vn -0 0 1
vn -0 0 1
vn -0 0 1
vn -0 0 1
vn -0 0 1
vn -0 0 1
vn -0 0 1
vn -0 0 1
vn -0 0 1
vn -0 0 1
vn -0 0 1
vn -0 0 1
vn -0 0 1
vn -0 0 1
vn -0 0 1
vn -0 0 1
vn -0 0 1
vn -0 0 1
vn -0 0 1
vn -0 0 1
vn -0 0 1
vn -0 0 1
vn -0 0 1
vn -0 0 1
vn -0 0 1
vn -0 0 1
vn -0 0 1
vn -0 0 1
vn -0 0 1
vn -0 0 1
vn -0 0 1
vn -0 0 1
vn -0 0 1
vn -0 0 1
vn -0 0 1
vn -0 0 1
vn -0 0 1
vn -0 0 1
vn -0 0 1
vn -0 0 1
vn -0 0 1
vn -0 0 1
vn -0 0 1
vn -0 0 1
vn -0 0 1
vn -0 0 1
vn -0 0 1
vn -0 0 1
vn -0 0 1
vn -0 0 1
vn -0 0 1
vn -0 0 1
vn -0 0 1
vn -0 0 1
vn -0 0 1
vn -0 0 1
vn -0 0 1
vn -0 0 1
vn -0 0 1
vn -0 0 1
vn -0 0 1
vn -0 0 1
vn -0 0 1
vn -0 0 1
vn -0 0 1
vn -0 0 1
vn -0 0 1
vn -0 0 1
vn -0 0 1
vn -0 0 1
vn -0 0 1
vn -0 0 1
vn -0 0 1
vn -0 0 1
vn -0 0 1
vn -0 0 1
vn -0 0 1
vn -0 0 1
vn -0 0 1
vn -0 0 1
vn -0 0 1
vn -0 0 1
vn -0 0 1
vn -0 0 1
vn -0 0 1
vn -0 0 1
vn -0 0 1
vn -0 0 1
vn -0 0 1
vn -0 0 1
vn -0 0 1
vn -0 0 1
vn -0 0 1
vn -0 0 1
vn -0 0 1
vn -0 0 1
vn -0 0 1
vn -0 0 1
vn -0 0 1
vn -0 0 1
vn -0 0 1
vn -0 0 1
vn -0 0 1
vn -0 0 1
vn -0 0 1
vn -0 0 1
vn -0 0 1
vn -0 0 1
vn -0 0 1
vn -0 0 1
vn -0 0 1
vn -0 0 1
vn -0 0 1
vn -0 0 1
vn -0 0 1
vn -0 0 1
vn -0 0 1
vn -0 0 1
vn -0 0 1
vn -0 0 1
vn -0 0 1
vn -0 0 1
vn -0 0 1
vn -0 0 1
vn -0 0 1
vn -0 0 1
vn -0 0 1
vn -0 0 1
vn -0 0 1
vn -0 0 1
vn -0 0 1
vn -0 0 1
vn -0 0 1
vn -0 0 1
vn -0 0 1
vn -0 0 1
vn -0 0 1
vn -0 0 1
vn -0 0 1
vn -0 0 1
vn -0 0 1
vn -0 0 1
vn -0 0 1
vn -0 0 1
vn -0 0 1
vn -0 0 1
vn -0 0 1
vn -0 0 1
vn -0 0 1
g Md_UNQ_IMSLight_00_0
f 3/3/3 2/2/2 1/1/1
f 3/3/3 5/5/5 4/4/4
f 4/4/4 5/5/5 6/6/6
f 4/4/4 6/6/6 7/7/7
f 7/7/7 6/6/6 8/8/8
f 7/7/7 8/8/8 9/9/9
f 9/9/9 8/8/8 10/10/10
f 9/9/9 10/10/10 11/11/11
f 11/11/11 10/10/10 12/12/12
f 11/11/11 12/12/12 13/13/13
f 13/13/13 12/12/12 14/14/14
f 13/13/13 14/14/14 15/15/15
f 15/15/15 14/14/14 16/16/16
f 15/15/15 16/16/16 17/17/17
f 18/18/18 17/17/17 16/16/16
f 18/18/18 19/19/19 17/17/17
f 20/20/20 19/19/19 18/18/18
f 20/20/20 21/21/21 19/19/19
f 22/22/22 21/21/21 20/20/20
f 23/23/23 21/21/21 22/22/22
f 23/23/23 22/22/22 24/24/24
f 24/24/24 25/25/25 23/23/23
f 24/24/24 26/26/26 25/25/25
f 29/29/29 28/28/28 27/27/27
f 32/32/32 31/31/31 30/30/30
f 33/33/33 32/32/32 30/30/30
f 33/33/33 30/30/30 34/34/34
f 35/35/35 33/33/33 34/34/34
f 35/35/35 34/34/34 36/36/36
f 35/35/35 36/36/36 37/37/37
f 35/35/35 37/37/37 38/38/38
f 38/38/38 37/37/37 39/39/39
f 38/38/38 39/39/39 40/40/40
f 40/40/40 39/39/39 41/41/41
f 40/40/40 41/41/41 42/42/42
f 42/42/42 41/41/41 43/43/43
f 42/42/42 43/43/43 44/44/44
f 44/44/44 43/43/43 45/45/45
f 44/44/44 45/45/45 46/46/46
f 46/46/46 45/45/45 47/47/47
f 46/46/46 47/47/47 48/48/48
f 48/48/48 47/47/47 49/49/49
f 48/48/48 49/49/49 50/50/50
f 50/50/50 49/49/49 51/51/51
f 50/50/50 51/51/51 52/52/52
f 52/52/52 51/51/51 53/53/53
f 52/52/52 53/53/53 54/54/54
f 54/54/54 53/53/53 55/55/55
f 54/54/54 55/55/55 56/56/56
f 56/56/56 55/55/55 57/57/57
f 56/56/56 57/57/57 58/58/58
f 58/58/58 57/57/57 59/59/59
f 58/58/58 59/59/59 60/60/60
f 60/60/60 59/59/59 61/61/61
f 60/60/60 61/61/61 62/62/62
f 62/62/62 61/61/61 63/63/63
f 62/62/62 63/63/63 64/64/64
f 64/64/64 63/63/63 65/65/65
f 64/64/64 65/65/65 66/66/66
f 66/66/66 65/65/65 67/67/67
f 67/67/67 65/65/65 68/68/68
f 69/69/69 68/68/68 65/65/65
f 72/72/72 71/71/71 70/70/70
f 73/73/73 71/71/71 72/72/72
f 73/73/73 72/72/72 74/74/74
f 74/74/74 75/75/75 73/73/73
f 76/76/76 73/73/73 75/75/75
f 76/76/76 75/75/75 77/77/77
f 78/78/78 76/76/76 77/77/77
f 78/78/78 77/77/77 79/79/79
f 80/80/80 78/78/78 79/79/79
f 80/80/80 79/79/79 81/81/81
f 81/81/81 82/82/82 80/80/80
f 81/81/81 83/83/83 82/82/82
f 83/83/83 84/84/84 82/82/82
f 83/83/83 85/85/85 84/84/84
f 85/85/85 86/86/86 84/84/84
f 85/85/85 87/87/87 86/86/86
f 88/88/88 86/86/86 87/87/87
f 88/88/88 87/87/87 89/89/89
f 90/90/90 88/88/88 89/89/89
f 90/90/90 89/89/89 91/91/91
f 92/92/92 90/90/90 91/91/91
f 92/92/92 91/91/91 93/93/93
f 94/94/94 92/92/92 93/93/93
f 94/94/94 93/93/93 95/95/95
f 95/95/95 96/96/96 94/94/94
f 96/96/96 97/97/97 94/94/94
f 96/96/96 98/98/98 97/97/97
f 99/99/99 97/97/97 98/98/98
f 99/99/99 98/98/98 100/100/100
f 100/100/100 101/101/101 99/99/99
f 100/100/100 102/102/102 101/101/101
f 102/102/102 103/103/103 101/101/101
f 102/102/102 104/104/104 103/103/103
f 105/105/105 103/103/103 104/104/104
f 105/105/105 104/104/104 106/106/106
f 105/105/105 106/106/106 107/107/107
f 107/107/107 106/106/106 108/108/108
f 108/108/108 106/106/106 109/109/109
f 109/109/109 106/106/106 110/110/110
f 110/110/110 106/106/106 111/111/111
f 111/111/111 106/106/106 112/112/112
f 112/112/112 106/106/106 113/113/113
f 113/113/113 106/106/106 114/114/114
f 114/114/114 106/106/106 115/115/115
f 118/118/118 117/117/117 116/116/116
f 119/119/119 116/116/116 117/117/117
f 120/120/120 116/116/116 119/119/119
f 121/121/121 120/120/120 119/119/119
f 122/122/122 120/120/120 121/121/121
f 122/122/122 121/121/121 123/123/123
f 121/121/121 124/124/124 123/123/123
f 125/125/125 123/123/123 124/124/124
f 126/126/126 123/123/123 125/125/125
f 127/127/127 126/126/126 125/125/125
f 128/128/128 126/126/126 127/127/127
f 129/129/129 128/128/128 127/127/127
f 130/130/130 128/128/128 129/129/129
f 131/131/131 130/130/130 129/129/129
f 132/132/132 130/130/130 131/131/131
f 133/133/133 132/132/132 131/131/131
f 134/134/134 132/132/132 133/133/133
f 135/135/135 134/134/134 133/133/133
f 136/136/136 134/134/134 135/135/135
f 137/137/137 136/136/136 135/135/135
f 138/138/138 136/136/136 137/137/137
f 139/139/139 138/138/138 137/137/137
f 140/140/140 138/138/138 139/139/139
f 141/141/141 140/140/140 139/139/139
f 142/142/142 140/140/140 141/141/141
f 143/143/143 142/142/142 141/141/141
f 144/144/144 142/142/142 143/143/143
f 145/145/145 144/144/144 143/143/143
f 146/146/146 144/144/144 145/145/145
f 147/147/147 146/146/146 145/145/145
f 148/148/148 146/146/146 147/147/147
f 149/149/149 148/148/148 147/147/147
f 149/149/149 150/150/150 148/148/148
f 148/148/148 150/150/150 151/151/151
f 152/152/152 151/151/151 150/150/150
f 152/152/152 153/153/153 151/151/151
f 151/151/151 153/153/153 154/154/154
f 153/153/153 155/155/155 154/154/154
f 154/154/154 155/155/155 156/156/156
f 156/156/156 155/155/155 157/157/157
f 156/156/156 157/157/157 158/158/158
f 159/159/159 156/156/156 158/158/158
f 160/160/160 159/159/159 158/158/158
f 161/161/161 160/160/160 158/158/158
f 162/162/162 161/161/161 158/158/158
f 163/163/163 162/162/162 158/158/158
f 166/166/166 165/165/165 164/164/164
f 166/166/166 164/164/164 167/167/167
f 166/166/166 167/167/167 168/168/168
f 166/166/166 168/168/168 169/169/169
f 166/166/166 169/169/169 170/170/170
f 169/169/169 171/171/171 170/170/170
f 172/172/172 171/171/171 169/169/169
f 172/172/172 173/173/173 171/171/171
f 174/174/174 173/173/173 172/172/172
f 174/174/174 175/175/175 173/173/173
f 174/174/174 176/176/176 175/175/175
f 176/176/176 174/174/174 177/177/177
f 176/176/176 177/177/177 178/178/178
f 178/178/178 177/177/177 179/179/179
f 178/178/178 179/179/179 180/180/180
f 180/180/180 179/179/179 181/181/181
f 180/180/180 181/181/181 182/182/182
f 180/180/180 182/182/182 183/183/183
f 183/183/183 182/182/182 184/184/184
f 183/183/183 184/184/184 185/185/185
f 186/186/186 185/185/185 184/184/184
f 186/186/186 184/184/184 187/187/187
f 188/188/188 186/186/186 187/187/187
f 191/191/191 190/190/190 189/189/189
f 192/192/192 190/190/190 191/191/191
f 193/193/193 190/190/190 192/192/192
f 193/193/193 192/192/192 194/194/194
f 192/192/192 195/195/195 194/194/194
f 194/194/194 195/195/195 196/196/196
f 195/195/195 197/197/197 196/196/196
f 196/196/196 197/197/197 198/198/198
f 197/197/197 199/199/199 198/198/198
f 198/198/198 199/199/199 200/200/200
f 201/201/201 200/200/200 199/199/199
f 202/202/202 200/200/200 201/201/201
f 201/201/201 203/203/203 202/202/202
f 202/202/202 203/203/203 204/204/204
f 205/205/205 204/204/204 203/203/203
f 206/206/206 204/204/204 205/205/205
f 206/206/206 205/205/205 207/207/207
