g Md_UNQ_CylinderWind_00
v -1.2552686E-08 0.50571245 -8.5830685E-08
v -2.681412E-08 0.6258152 0.21360037
v 0.0986596 0.4959953 -7.6293944E-08
v 0.122090474 0.6137903 0.21360037
v 0.0986596 0.4959953 -7.6293944E-08
v 0.122090474 0.6137903 0.21360037
v 0.19352779 0.46721733 -7.6293944E-08
v 0.23948912 0.5781778 0.21360037
v 0.19352779 0.46721733 -7.6293944E-08
v 0.23948912 0.5781778 0.21360037
v 0.28095883 0.42048454 -6.67572E-08
v 0.34768432 0.5203463 0.21360038
v 0.28095883 0.42048454 -6.67572E-08
v 0.34768432 0.5203463 0.21360038
v 0.35759273 0.3575927 -5.7220458E-08
v 0.44251817 0.44251812 0.21360038
v 0.35759273 0.3575927 -5.7220458E-08
v 0.44251817 0.44251812 0.21360038
v 0.42048457 0.28095877 -4.7683713E-08
v 0.52034634 0.34768423 0.2136004
v 0.42048457 0.28095877 -4.7683713E-08
v 0.52034634 0.34768423 0.2136004
v 0.4672174 0.19352777 -3.33786E-08
v 0.5781778 0.2394891 0.21360043
v 0.4672174 0.19352777 -3.33786E-08
v 0.5781778 0.2394891 0.21360043
v 0.49599537 0.0986596 -1.66893E-08
v 0.61379033 0.12209049 0.21360044
v 0.49599537 0.0986596 -1.66893E-08
v 0.61379033 0.12209049 0.21360044
v 0.5057125 8.05378E-09 -1.2789769E-15
v 0.6258152 1.9073486E-08 0.21360046
v 0.5057125 8.05378E-09 -1.2789769E-15
v 0.6258152 1.9073486E-08 0.21360046
v 0.49599537 -0.09865959 1.66893E-08
v 0.61379033 -0.12209045 0.21360047
v 0.49599537 -0.09865959 1.66893E-08
v 0.61379033 -0.12209045 0.21360047
v 0.46721745 -0.19352776 3.33786E-08
v 0.57817787 -0.23948905 0.2136005
v 0.46721745 -0.19352776 3.33786E-08
v 0.57817787 -0.23948905 0.2136005
v 0.42048457 -0.28095883 4.7683713E-08
v 0.52034634 -0.34768432 0.2136005
v 0.42048457 -0.28095883 4.7683713E-08
v 0.52034634 -0.34768432 0.2136005
v 0.35759273 -0.35759276 5.7220458E-08
v 0.44251817 -0.44251823 0.21360053
v 0.35759273 -0.35759276 5.7220458E-08
v 0.44251817 -0.44251823 0.21360053
v 0.28095877 -0.4204846 6.67572E-08
v 0.34768423 -0.52034646 0.21360053
v 0.28095877 -0.4204846 6.67572E-08
v 0.34768423 -0.52034646 0.21360053
v 0.19352771 -0.46721753 7.6293944E-08
v 0.239489 -0.578178 0.21360056
v 0.19352771 -0.46721753 7.6293944E-08
v 0.239489 -0.578178 0.21360056
v 0.098659486 -0.49599546 7.6293944E-08
v 0.122090325 -0.61379045 0.21360056
v 0.098659486 -0.49599546 7.6293944E-08
v 0.122090325 -0.61379045 0.21360056
v -1.7733474E-07 -0.5057125 8.5830685E-08
v -2.3073062E-07 -0.6258152 0.21360058
v -1.7733474E-07 -0.5057125 8.5830685E-08
v -2.3073062E-07 -0.6258152 0.21360058
v -0.09865983 -0.49599537 7.6293944E-08
v -0.12209078 -0.6137904 0.21360058
v -0.09865983 -0.49599537 7.6293944E-08
v -0.12209078 -0.6137904 0.21360058
v -0.19352801 -0.4672174 7.6293944E-08
v -0.23948944 -0.5781778 0.21360056
v -0.19352801 -0.4672174 7.6293944E-08
v -0.23948944 -0.5781778 0.21360056
v -0.2809591 -0.42048448 6.67572E-08
v -0.34768462 -0.5203462 0.21360053
v -0.2809591 -0.42048448 6.67572E-08
v -0.34768462 -0.5203462 0.21360053
v -0.357593 -0.35759252 5.7220458E-08
v -0.44251853 -0.442518 0.21360053
v -0.357593 -0.35759252 5.7220458E-08
v -0.44251853 -0.442518 0.21360053
v -0.42048475 -0.28095856 4.7683713E-08
v -0.52034664 -0.34768397 0.21360052
v -0.42048475 -0.28095856 4.7683713E-08
v -0.52034664 -0.34768397 0.21360052
v -0.46721762 -0.19352745 3.33786E-08
v -0.5781781 -0.23948868 0.2136005
v -0.46721762 -0.19352745 3.33786E-08
v -0.5781781 -0.23948868 0.2136005
v -0.49599546 -0.09865921 1.66893E-08
v -0.6137905 -0.122089975 0.21360047
v -0.49599546 -0.09865921 1.66893E-08
v -0.6137905 -0.122089975 0.21360047
v -0.50571245 4.5818916E-07 -7.2759575E-14
v -0.6258152 5.769729E-07 0.21360046
v -0.50571245 4.5818916E-07 -7.2759575E-14
v -0.6258152 5.769729E-07 0.21360046
v -0.49599528 0.098660104 -1.66893E-08
v -0.6137903 0.12209112 0.21360044
v -0.49599528 0.098660104 -1.66893E-08
v -0.6137903 0.12209112 0.21360044
v -0.4672172 0.19352828 -3.33786E-08
v -0.57817763 0.23948973 0.21360043
v -0.4672172 0.19352828 -3.33786E-08
v -0.57817763 0.23948973 0.21360043
v -0.42048422 0.2809593 -4.7683713E-08
v -0.520346 0.34768492 0.2136004
v -0.42048422 0.2809593 -4.7683713E-08
v -0.520346 0.34768492 0.2136004
v -0.3575923 0.35759315 -5.7220458E-08
v -0.44251764 0.44251868 0.21360038
v -0.3575923 0.35759315 -5.7220458E-08
v -0.44251764 0.44251868 0.21360038
v -0.28095827 0.4204849 -6.67572E-08
v -0.34768364 0.52034676 0.21360038
v -0.28095827 0.4204849 -6.67572E-08
v -0.34768364 0.52034676 0.21360038
v -0.19352712 0.46721765 -7.6293944E-08
v -0.2394883 0.5781782 0.21360037
v -0.19352712 0.46721765 -7.6293944E-08
v -0.2394883 0.5781782 0.21360037
v -0.09865887 0.49599546 -7.6293944E-08
v -0.12208959 0.6137905 0.21360037
v -0.09865887 0.49599546 -7.6293944E-08
v -0.12208959 0.6137905 0.21360037
v -1.2552686E-08 0.50571245 -8.5830685E-08
v -2.681412E-08 0.6258152 0.21360037
vt 0.9129298 -0.0006376505
vt 1.0816699 0.9977467
vt 0.8817743 -0.0006376505
vt 1.0505145 0.9977467
vt 0.8817743 -0.0006376505
vt 1.0505145 0.9977467
vt 0.85061896 -0.0006376505
vt 1.0193591 0.9977467
vt 0.85061896 -0.0006376505
vt 1.0193591 0.9977467
vt 0.81946355 -0.0006376505
vt 0.98820364 0.9977467
vt 0.81946355 -0.0006376505
vt 0.98820364 0.9977467
vt 0.78830814 -0.0006376505
vt 0.9570483 0.9977467
vt 0.78830814 -0.0006376505
vt 0.9570483 0.9977467
vt 0.75715274 -0.0006376505
vt 0.9258929 0.9977467
vt 0.75715274 -0.0006376505
vt 0.9258929 0.9977467
vt 0.7259974 -0.0006376505
vt 0.89473754 0.9977467
vt 0.7259974 -0.0006376505
vt 0.89473754 0.9977467
vt 0.69484204 -0.0006376505
vt 0.86358213 0.9977467
vt 0.69484204 -0.0006376505
vt 0.86358213 0.9977467
vt 0.66368663 -0.0006376505
vt 0.8324268 0.9977467
vt 0.66368663 -0.0006376505
vt 0.8324268 0.9977467
vt 0.6325313 -0.0006376505
vt 0.8012714 0.9977467
vt 0.6325313 -0.0006376505
vt 0.8012714 0.9977467
vt 0.6013759 -0.0006376505
vt 0.770116 0.9977467
vt 0.6013759 -0.0006376505
vt 0.770116 0.9977467
vt 0.5702205 -0.0006376505
vt 0.73896056 0.9977467
vt 0.5702205 -0.0006376505
vt 0.73896056 0.9977467
vt 0.53906506 -0.0006376505
vt 0.70780516 0.9977467
vt 0.53906506 -0.0006376505
vt 0.70780516 0.9977467
vt 0.5079097 -0.0006376505
vt 0.6766498 0.9977467
vt 0.5079097 -0.0006376505
vt 0.6766498 0.9977467
vt 0.4767543 -0.0006376505
vt 0.6454944 0.9977467
vt 0.4767543 -0.0006376505
vt 0.6454944 0.9977467
vt 0.4455989 -0.0006376505
vt 0.61433905 0.9977467
vt 0.4455989 -0.0006376505
vt 0.61433905 0.9977467
vt 0.41444352 -0.0006376505
vt 0.5831837 0.9977467
vt 0.41444352 -0.0006376505
vt 0.5831837 0.9977467
vt 0.38328815 -0.0006376505
vt 0.5520283 0.9977467
vt 0.38328815 -0.0006376505
vt 0.5520283 0.9977467
vt 0.3521328 -0.0006376505
vt 0.5208729 0.9977467
vt 0.3521328 -0.0006376505
vt 0.5208729 0.9977467
vt 0.3209774 -0.0006376505
vt 0.48971754 0.9977467
vt 0.3209774 -0.0006376505
vt 0.48971754 0.9977467
vt 0.289822 -0.0006376505
vt 0.45856214 0.9977467
vt 0.289822 -0.0006376505
vt 0.45856214 0.9977467
vt 0.25866663 -0.0006376505
vt 0.42740673 0.9977467
vt 0.25866663 -0.0006376505
vt 0.42740673 0.9977467
vt 0.22751123 -0.0006376505
vt 0.39625132 0.9977467
vt 0.22751123 -0.0006376505
vt 0.39625132 0.9977467
vt 0.19635582 -0.0006376505
vt 0.3650959 0.9977467
vt 0.19635582 -0.0006376505
vt 0.3650959 0.9977467
vt 0.16520044 -0.0006376505
vt 0.33394054 0.9977467
vt 0.16520044 -0.0006376505
vt 0.33394054 0.9977467
vt 0.13404503 -0.0006376505
vt 0.30278516 0.9977467
vt 0.13404503 -0.0006376505
vt 0.30278516 0.9977467
vt 0.10288969 -0.0006376505
vt 0.2716298 0.9977467
vt 0.10288969 -0.0006376505
vt 0.2716298 0.9977467
vt 0.07173428 -0.0006376505
vt 0.24047443 0.9977467
vt 0.07173428 -0.0006376505
vt 0.24047443 0.9977467
vt 0.0405789 -0.0006376505
vt 0.20931903 0.9977467
vt 0.0405789 -0.0006376505
vt 0.20931903 0.9977467
vt 0.009423524 -0.0006376505
vt 0.17816365 0.9977467
vt 0.009423524 -0.0006376505
vt 0.17816365 0.9977467
vt -0.021731853 -0.0006376505
vt 0.14700824 0.9977467
vt -0.021731853 -0.0006376505
vt 0.14700824 0.9977467
vt -0.05288726 -0.0006376505
vt 0.11585286 0.9977467
vt -0.05288726 -0.0006376505
vt 0.11585286 0.9977467
vt -0.08404267 -0.0006376505
vt 0.084697455 0.9977467
vn -0.085536316 -0.86846375 0.48831764
vn -0.085536316 -0.86846375 0.48831764
vn -0.085536316 -0.86846375 0.48831764
vn -0.085536316 -0.86846375 0.48831764
vn -0.2533217 -0.83508915 0.4883178
vn -0.2533217 -0.83508915 0.4883178
vn -0.2533217 -0.83508915 0.4883178
vn -0.2533217 -0.83508915 0.4883178
vn -0.41137165 -0.76962274 0.4883176
vn -0.41137165 -0.76962274 0.4883176
vn -0.41137165 -0.76962274 0.4883176
vn -0.41137165 -0.76962274 0.4883176
vn -0.5536135 -0.6745798 0.48831785
vn -0.5536135 -0.6745798 0.48831785
vn -0.5536135 -0.6745798 0.48831785
vn -0.5536135 -0.6745798 0.48831785
vn -0.67457974 -0.55361366 0.48831767
vn -0.67457974 -0.55361366 0.48831767
vn -0.67457974 -0.55361366 0.48831767
vn -0.67457974 -0.55361366 0.48831767
vn -0.769623 -0.41137138 0.48831767
vn -0.769623 -0.41137138 0.48831767
vn -0.769623 -0.41137138 0.48831767
vn -0.769623 -0.41137138 0.48831767
vn -0.83508927 -0.25332165 0.4883175
vn -0.83508927 -0.25332165 0.4883175
vn -0.83508927 -0.25332165 0.4883175
vn -0.83508927 -0.25332165 0.4883175
vn -0.86846393 -0.08553647 0.48831746
vn -0.86846393 -0.08553647 0.48831746
vn -0.86846393 -0.08553647 0.48831746
vn -0.86846393 -0.08553647 0.48831746
vn -0.8684639 0.08553619 0.48831764
vn -0.8684639 0.08553619 0.48831764
vn -0.8684639 0.08553619 0.48831764
vn -0.8684639 0.08553619 0.48831764
vn -0.83508927 0.2533218 0.48831755
vn -0.83508927 0.2533218 0.48831755
vn -0.83508927 0.2533218 0.48831755
vn -0.83508927 0.2533218 0.48831755
vn -0.7696229 0.41137153 0.48831764
vn -0.7696229 0.41137153 0.48831764
vn -0.7696229 0.41137153 0.48831764
vn -0.7696229 0.41137153 0.48831764
vn -0.67457974 0.5536135 0.48831776
vn -0.67457974 0.5536135 0.48831776
vn -0.67457974 0.5536135 0.48831776
vn -0.67457974 0.5536135 0.48831776
vn -0.55361336 0.67458 0.4883176
vn -0.55361336 0.67458 0.4883176
vn -0.55361336 0.67458 0.4883176
vn -0.55361336 0.67458 0.4883176
vn -0.411372 0.7696226 0.4883177
vn -0.411372 0.7696226 0.4883177
vn -0.411372 0.7696226 0.4883177
vn -0.411372 0.7696226 0.4883177
vn -0.25332138 0.83508945 0.4883174
vn -0.25332138 0.83508945 0.4883174
vn -0.25332138 0.83508945 0.4883174
vn -0.25332138 0.83508945 0.4883174
vn -0.085535586 0.86846405 0.48831737
vn -0.085535586 0.86846405 0.48831737
vn -0.085535586 0.86846405 0.48831737
vn -0.085535586 0.86846405 0.48831737
vn 0.08553632 0.86846375 0.48831773
vn 0.08553632 0.86846375 0.48831773
vn 0.08553632 0.86846375 0.48831773
vn 0.08553632 0.86846375 0.48831773
vn 0.25332186 0.835089 0.48831782
vn 0.25332186 0.835089 0.48831782
vn 0.25332186 0.835089 0.48831782
vn 0.25332186 0.835089 0.48831782
vn 0.41137218 0.7696225 0.4883176
vn 0.41137218 0.7696225 0.4883176
vn 0.41137218 0.7696225 0.4883176
vn 0.41137218 0.7696225 0.4883176
vn 0.5536137 0.6745796 0.48831764
vn 0.5536137 0.6745796 0.48831764
vn 0.5536137 0.6745796 0.48831764
vn 0.5536137 0.6745796 0.48831764
vn 0.67458034 0.5536128 0.4883178
vn 0.67458034 0.5536128 0.4883178
vn 0.67458034 0.5536128 0.4883178
vn 0.67458034 0.5536128 0.4883178
vn 0.7696229 0.41137138 0.4883177
vn 0.7696229 0.41137138 0.4883177
vn 0.7696229 0.41137138 0.4883177
vn 0.7696229 0.41137138 0.4883177
vn 0.83508956 0.25332078 0.48831764
vn 0.83508956 0.25332078 0.48831764
vn 0.83508956 0.25332078 0.48831764
vn 0.83508956 0.25332078 0.48831764
vn 0.8684639 0.08553524 0.4883177
vn 0.8684639 0.08553524 0.4883177
vn 0.8684639 0.08553524 0.4883177
vn 0.8684639 0.08553524 0.4883177
vn 0.86846375 -0.08553642 0.48831764
vn 0.86846375 -0.08553642 0.48831764
vn 0.86846375 -0.08553642 0.48831764
vn 0.86846375 -0.08553642 0.48831764
vn 0.83508885 -0.2533228 0.48831767
vn 0.83508885 -0.2533228 0.48831767
vn 0.83508885 -0.2533228 0.48831767
vn 0.83508885 -0.2533228 0.48831767
vn 0.7696223 -0.41137248 0.48831773
vn 0.7696223 -0.41137248 0.48831773
vn 0.7696223 -0.41137248 0.48831773
vn 0.7696223 -0.41137248 0.48831773
vn 0.6745791 -0.5536143 0.48831776
vn 0.6745791 -0.5536143 0.48831776
vn 0.6745791 -0.5536143 0.48831776
vn 0.6745791 -0.5536143 0.48831776
vn 0.55361265 -0.6745807 0.48831743
vn 0.55361265 -0.6745807 0.48831743
vn 0.55361265 -0.6745807 0.48831743
vn 0.55361265 -0.6745807 0.48831743
vn 0.41137084 -0.76962316 0.4883176
vn 0.41137084 -0.76962316 0.4883176
vn 0.41137084 -0.76962316 0.4883176
vn 0.41137084 -0.76962316 0.4883176
vn 0.2533202 -0.83508956 0.48831794
vn 0.2533202 -0.83508956 0.48831794
vn 0.2533202 -0.83508956 0.48831794
vn 0.2533202 -0.83508956 0.48831794
vn 0.08553563 -0.8684639 0.48831764
vn 0.08553563 -0.8684639 0.48831764
vn 0.08553563 -0.8684639 0.48831764
vn 0.08553563 -0.8684639 0.48831764
g Md_UNQ_CylinderWind_00_0
f 3/3/3 2/2/2 1/1/1
f 3/3/3 4/4/4 2/2/2
f 7/7/7 6/6/6 5/5/5
f 7/7/7 8/8/8 6/6/6
f 11/11/11 10/10/10 9/9/9
f 11/11/11 12/12/12 10/10/10
f 15/15/15 14/14/14 13/13/13
f 15/15/15 16/16/16 14/14/14
f 19/19/19 18/18/18 17/17/17
f 19/19/19 20/20/20 18/18/18
f 23/23/23 22/22/22 21/21/21
f 23/23/23 24/24/24 22/22/22
f 27/27/27 26/26/26 25/25/25
f 27/27/27 28/28/28 26/26/26
f 31/31/31 30/30/30 29/29/29
f 31/31/31 32/32/32 30/30/30
f 35/35/35 34/34/34 33/33/33
f 35/35/35 36/36/36 34/34/34
f 39/39/39 38/38/38 37/37/37
f 39/39/39 40/40/40 38/38/38
f 43/43/43 42/42/42 41/41/41
f 43/43/43 44/44/44 42/42/42
f 47/47/47 46/46/46 45/45/45
f 47/47/47 48/48/48 46/46/46
f 51/51/51 50/50/50 49/49/49
f 51/51/51 52/52/52 50/50/50
f 55/55/55 54/54/54 53/53/53
f 55/55/55 56/56/56 54/54/54
f 59/59/59 58/58/58 57/57/57
f 59/59/59 60/60/60 58/58/58
f 63/63/63 62/62/62 61/61/61
f 63/63/63 64/64/64 62/62/62
f 67/67/67 66/66/66 65/65/65
f 67/67/67 68/68/68 66/66/66
f 71/71/71 70/70/70 69/69/69
f 71/71/71 72/72/72 70/70/70
f 75/75/75 74/74/74 73/73/73
f 75/75/75 76/76/76 74/74/74
f 79/79/79 78/78/78 77/77/77
f 79/79/79 80/80/80 78/78/78
f 83/83/83 82/82/82 81/81/81
f 83/83/83 84/84/84 82/82/82
f 87/87/87 86/86/86 85/85/85
f 87/87/87 88/88/88 86/86/86
f 91/91/91 90/90/90 89/89/89
f 91/91/91 92/92/92 90/90/90
f 95/95/95 94/94/94 93/93/93
f 95/95/95 96/96/96 94/94/94
f 99/99/99 98/98/98 97/97/97
f 99/99/99 100/100/100 98/98/98
f 103/103/103 102/102/102 101/101/101
f 103/103/103 104/104/104 102/102/102
f 107/107/107 106/106/106 105/105/105
f 107/107/107 108/108/108 106/106/106
f 111/111/111 110/110/110 109/109/109
f 111/111/111 112/112/112 110/110/110
f 115/115/115 114/114/114 113/113/113
f 115/115/115 116/116/116 114/114/114
f 119/119/119 118/118/118 117/117/117
f 119/119/119 120/120/120 118/118/118
f 123/123/123 122/122/122 121/121/121
f 123/123/123 124/124/124 122/122/122
f 127/127/127 126/126/126 125/125/125
f 127/127/127 128/128/128 126/126/126
