g Md_UNQ_SkillCutIn_00
v 1.9064856 9.4175334E-08 0.5783266
v 1.8495255 1.245737E-07 0.7660989
v 1.7522749 1.1801719E-07 0.7258165
v 1.8062402 8.940697E-08 0.5479174
v 1.6550244 1.11460686E-07 0.68553394
v 1.7059945 8.404255E-08 0.51750827
v 1.5577738 1.04904174E-07 0.6452515
v 1.605749 7.927417E-08 0.48709905
v 1.4605235 9.834766E-08 0.604969
v 1.5055037 7.4505806E-08 0.4566899
v 1.363273 9.179115E-08 0.56468654
v 1.4052582 6.943941E-08 0.42628074
v 1.7569647 5.6922435E-08 0.34948248
v 1.6537241 5.364418E-08 0.32894665
v 1.5504837 5.0365923E-08 0.30841082
v 1.4472433 4.6789644E-08 0.28787497
v 1.8602053 6.020069E-08 0.37001833
v 1.9064856 9.4175334E-08 0.5783266
v 1.9634459 6.3776966E-08 0.3905542
v 1.9826789 3.1888483E-08 0.19527736
v 1.8784273 3.0100345E-08 0.18500943
v 1.7741752 2.8461217E-08 0.17474149
v 1.6699233 2.682209E-08 0.16447355
v 1.3440026 4.351139E-08 0.2673391
v 1.3050125 6.437301E-08 0.39587158
v 1.5656716 2.5182961E-08 0.15420562
v 1.4614198 2.3394822E-08 0.14393768
v 1.7913858 7.844392E-14 4.799743E-07
v 1.6861227 7.3612225E-14 4.5174048E-07
v 1.5808593 6.906475E-14 4.2350672E-07
v 1.4755963 6.451728E-14 3.9527293E-07
v 1.8966488 8.299139E-14 5.08208E-07
v 1.9826789 3.1888483E-08 0.19527736
v 2.001912 8.753886E-14 5.364418E-07
v 1.9826789 -3.1888483E-08 -0.19527636
v 1.8784273 -3.0100345E-08 -0.18500848
v 1.7741752 -2.8461217E-08 -0.1747406
v 1.6699233 -2.682209E-08 -0.16447271
v 1.8602053 -6.020069E-08 -0.37001747
v 1.9634459 -6.3776966E-08 -0.39055327
v 1.9064857 -9.4175334E-08 -0.5783257
v 1.7569647 -5.6922435E-08 -0.34948164
v 1.8062403 -8.940697E-08 -0.54791653
v 1.6537241 -5.364418E-08 -0.32894588
v 1.5656716 -2.5182961E-08 -0.15420482
v 1.7522752 -1.1801719E-07 -0.72581565
v 1.8495257 -1.245737E-07 -0.76609814
v 1.7570275 -1.5318393E-07 -0.9391502
v 1.7059947 -8.404255E-08 -0.51750743
v 1.5504837 -5.0365923E-08 -0.30841005
v 1.6550246 -1.11460686E-07 -0.6855332
v 1.6646407 -1.4483928E-07 -0.8897684
v 1.605749 -7.927417E-08 -0.48709834
v 1.5577741 -1.04904174E-07 -0.64525074
v 1.5770062 -1.7166137E-07 -1.0537213
v 1.6645293 -1.8119812E-07 -1.1122024
v 1.5400478 -2.0623207E-07 -1.2638838
v 1.5722537 -1.3709068E-07 -0.8403867
v 1.489483 -1.6212464E-07 -0.9952402
v 1.45907 -1.9550323E-07 -1.1974273
v 1.3411337 -2.1815299E-07 -1.3411331
v 1.4155661 -2.3007392E-07 -1.4155653
v 1.2638844 -2.503395E-07 -1.5400472
v 1.5055037 -7.4505806E-08 -0.45668918
v 1.4605236 -9.834766E-08 -0.6049683
v 1.4798671 -1.2874602E-07 -0.791005
v 1.40196 -1.5258789E-07 -0.93675923
v 1.3780922 -1.847744E-07 -1.1309705
v 1.2667013 -2.0623207E-07 -1.2667007
v 1.1974277 -2.3722649E-07 -1.4590695
v 1.4472433 -4.6789644E-08 -0.28787425
v 1.0537218 -2.5749205E-07 -1.5770059
v 1.1122029 -2.7060509E-07 -1.664529
v 0.9391509 -2.8610228E-07 -1.7570271
v 1.4614198 -2.3394822E-08 -0.14393692
v 1.3440026 -4.351139E-08 -0.26733845
v 1.3571678 -2.1755694E-08 -0.13366903
v 1.4052582 -6.943941E-08 -0.42628008
v 1.363273 -9.179115E-08 -0.5646859
v 1.3874801 -1.2099743E-07 -0.7416232
v 1.3144367 -1.4305114E-07 -0.8782781
v 1.2971145 -1.7285346E-07 -1.0645139
v 1.1922691 -1.9431114E-07 -1.1922685
v 1.1309711 -2.2411346E-07 -1.3780917
v 0.9952407 -2.4318695E-07 -1.4894825
v 0.889769 -2.7179718E-07 -1.6646403
v 0.7258164 -2.849102E-07 -1.7522749
v 0.7660989 -3.015995E-07 -1.8495255
v 0.57832646 -3.1113623E-07 -1.9064857
v 1.2161366 -1.6272068E-07 -0.9980571
v 1.1178367 -1.8239021E-07 -1.1178362
v 1.0645144 -2.1100044E-07 -1.2971139
v 0.9367597 -2.2888183E-07 -1.4019595
v 0.84038734 -2.5629996E-07 -1.5722533
v 0.6855339 -2.69413E-07 -1.6550244
v 0.5479173 -2.9444695E-07 -1.8062402
v 1.2269136 -1.335144E-07 -0.8197971
v 0.37001818 -3.027916E-07 -1.8602053
v 0.390554 -3.1948088E-07 -1.9634459
v 0.195277 -3.2305718E-07 -1.9826789
v 1.2950932 -1.1265278E-07 -0.6922415
v 1.2660226 -8.523464E-08 -0.52440345
v 1.3050126 -6.437301E-08 -0.39587095
v 1.2407619 -4.0233136E-08 -0.24680264
v 0.34948233 -2.8610228E-07 -1.7569648
v 0.18500909 -3.0636787E-07 -1.878427
v 0.51750815 -2.7775764E-07 -1.7059945
v -0 -3.0875205E-07 -1.8966488
v -0 -3.2663345E-07 -2.001912
v -0.19527681 -3.2305718E-07 -1.9826789
v 0.64525145 -2.5391577E-07 -1.5577738
v 0.7910056 -2.4080276E-07 -1.4798667
v 0.8782786 -2.1457672E-07 -1.3144364
v 0.9980576 -1.9788742E-07 -1.2161363
v 1.0434043 -1.7046928E-07 -1.043404
v 1.135159 -1.5199184E-07 -0.9316006
v 1.1393905 -1.2397766E-07 -0.76131606
v 1.2027065 -1.04904174E-07 -0.6428597
v 1.0518674 -1.14440915E-07 -0.7028349
v 1.1103199 -9.6559525E-08 -0.59347796
v 1.0541813 -1.4066696E-07 -0.8651439
v 1.0541813 -1.4066696E-07 -0.8651439
v 0.97320354 -1.2993813E-07 -0.7986871
v 0.9689721 -1.579523E-07 -0.9689716
v 0.9316009 -1.847744E-07 -1.1351587
v 0.8945398 -1.4603138E-07 -0.8945393
v 0.9643443 -1.04904174E-07 -0.6443539
v 0.8201074 -1.335144E-07 -0.8201071
v 0.7986876 -1.5854835E-07 -0.97320324
v 0.8197975 -2.002716E-07 -1.2269132
v 0.86514425 -1.7166137E-07 -1.054181
v 0.8945398 -1.4603138E-07 -0.8945393
v 0.76131636 -1.8596648E-07 -1.1393902
v 0.7028353 -1.7166137E-07 -1.0518671
v 0.74162376 -2.2649765E-07 -1.38748
v 0.692242 -2.1100044E-07 -1.2950932
v 0.6049689 -2.3841858E-07 -1.4605235
v 0.6428602 -1.9550323E-07 -1.2027062
v 0.7028353 -1.7166137E-07 -1.0518671
v 0.5646865 -2.2172928E-07 -1.363273
v 0.48709896 -2.6106835E-07 -1.605749
v 0.524404 -2.0623207E-07 -1.2660226
v 0.45668977 -2.4557113E-07 -1.5055037
v 0.32894644 -2.69413E-07 -1.6537242
v 0.42628062 -2.2888183E-07 -1.4052582
v 0.30841064 -2.5272368E-07 -1.5504837
v 0.17474116 -2.8848646E-07 -1.7741752
v 0.28787482 -2.3603438E-07 -1.4472432
v 0.16447322 -2.7179718E-07 -1.6699233
v -0 -2.9206277E-07 -1.7913858
v 0.15420532 -2.5510786E-07 -1.5656716
v -0 -2.7418136E-07 -1.6861225
v -0.1850089 -3.0636787E-07 -1.878427
v -0.3700178 -3.027916E-07 -1.8602053
v -0.39055362 -3.1948088E-07 -1.9634459
v -0.34948203 -2.8610228E-07 -1.7569648
v -0.17474101 -2.8848646E-07 -1.7741752
v -0.32894617 -2.69413E-07 -1.6537242
v -0.16447309 -2.7179718E-07 -1.6699233
v -0.30841038 -2.5272368E-07 -1.5504837
v -0 -2.5749205E-07 -1.5808593
v -0.15420519 -2.5510786E-07 -1.5656716
v -0.28787455 -2.3603438E-07 -1.4472432
v -0 -2.4080276E-07 -1.4755961
v -0.14393727 -2.3841858E-07 -1.4614197
v -0.26733872 -2.1934508E-07 -1.3440025
v 0.14393741 -2.3841858E-07 -1.4614197
v -0.13366936 -2.2053717E-07 -1.3571678
v -0.24680291 -2.0265578E-07 -1.240762
v -0 -2.2292137E-07 -1.3703331
v -0 -2.0623207E-07 -1.26507
v -0.123401456 -2.0384788E-07 -1.252916
v -0.22626708 -1.847744E-07 -1.1375215
v 0.267339 -2.1934508E-07 -1.3440025
v 0.1336695 -2.2053717E-07 -1.3571678
v -0 -2.0623207E-07 -1.26507
v 0.123401575 -2.0384788E-07 -1.252916
v -0.11313354 -1.8715858E-07 -1.1486641
v -0.20573126 -1.680851E-07 -1.0342809
v -0 -1.8954276E-07 -1.1598067
v 0.39587146 -2.1219253E-07 -1.3050125
v 0.24680315 -2.0265578E-07 -1.240762
v 0.1336695 -2.2053717E-07 -1.3571678
v 0.36546233 -1.9669532E-07 -1.204767
v -0.10286563 -1.7046928E-07 -1.0444123
v -0.18519542 -1.513958E-07 -0.9310402
v -0 -1.7166137E-07 -1.0545436
v 0.2262673 -1.847744E-07 -1.1375215
v 0.11313365 -1.8715858E-07 -1.1486641
v -0.09259771 -1.5318393E-07 -0.94016033
v -0.16465959 -1.347065E-07 -0.82779974
v 0.20573147 -1.680851E-07 -1.0342809
v 0.33505315 -1.8000603E-07 -1.1045215
v -0 -1.5437602E-07 -0.94928044
v 0.10286573 -1.7046928E-07 -1.0444123
v 0.09259782 -1.5318393E-07 -0.94016033
v -0.082329795 -1.3589859E-07 -0.8359085
v -0.14412378 -1.1801719E-07 -0.7245591
v -0 -1.3768673E-07 -0.8440173
v -0.07206189 -1.1920929E-07 -0.7316566
v -0.12358795 -1.0132789E-07 -0.62131864
v -0 -1.2040138E-07 -0.7387541
v -0.061793976 -1.0192394E-07 -0.6274048
v -0.10305212 -8.463859E-08 -0.5180781
v 0.08232989 -1.3589859E-07 -0.8359085
v -0 -1.0311604E-07 -0.633491
v -0.05152606 -8.523464E-08 -0.52315295
v -0.0825163 -6.765127E-08 -0.41483748
v -0.04125815 -6.824732E-08 -0.4189011
v -0 -8.5830685E-08 -0.5282278
v 0.061794054 -1.0192394E-07 -0.6274048
v -0 -6.884336E-08 -0.42296466
v 0.07206197 -1.1920929E-07 -0.7316566
v 0.05152613 -8.523464E-08 -0.52315295
v -0 -5.185604E-08 -0.3177015
v -0.030990236 -5.1259992E-08 -0.31464922
v -0.06198047 -5.0663946E-08 -0.31159696
v -0.0825163 -6.765127E-08 -0.41483748
v 0.04125821 -6.824732E-08 -0.4189011
v -0 -5.185604E-08 -0.3177015
v 0.14412394 -1.1801719E-07 -0.7245591
v 0.12358811 -1.0132789E-07 -0.62131864
v 0.16465978 -1.347065E-07 -0.82779974
v 0.18519564 -1.513958E-07 -0.9310402
v 0.10305226 -8.463859E-08 -0.5180781
v 0.08251642 -6.765127E-08 -0.41483748
v 0.030990293 -5.1259992E-08 -0.31464922
v 0.061980586 -5.0663946E-08 -0.31159696
v -0 -3.4570693E-08 -0.21243832
v 0.24382567 -1.3113022E-07 -0.8037849
v 0.27423483 -1.4722347E-07 -0.9040305
v 0.2134165 -1.14440915E-07 -0.7035395
v 0.18300734 -9.834766E-08 -0.603294
v 0.15259817 -8.225441E-08 -0.5030485
v 0.24242656 -9.5367426E-08 -0.58526933
v 0.28270906 -1.11460686E-07 -0.68251973
v 0.304644 -1.6331673E-07 -1.004276
v 0.32299155 -1.2695789E-07 -0.77977026
v 0.12218901 -6.556511E-08 -0.4028029
v 0.36327404 -1.4305114E-07 -0.8770207
v 0.4035565 -1.5854835E-07 -0.9742711
v 0.39595127 -1.2040138E-07 -0.7407725
v 0.445333 -1.3589859E-07 -0.83315915
v 0.49471483 -1.5079975E-07 -0.925546
v 0.34656948 -1.0550022E-07 -0.6483856
v 0.443839 -1.7404555E-07 -1.0715216
v 0.5440966 -1.6570091E-07 -1.0179328
v 0.4841215 -1.9073485E-07 -1.1687721
v 0.59347844 -1.8119812E-07 -1.1103196
v 0.6443542 -1.5735625E-07 -0.9643439
v 0.58587307 -1.4305114E-07 -0.8768208
v 0.73223084 -1.4543534E-07 -0.8922255
v 0.527392 -1.2874602E-07 -0.78929776
v 0.66577405 -1.3232231E-07 -0.81124777
v 0.7456751 -1.2159347E-07 -0.7456748
v 0.46891093 -1.14440915E-07 -0.70177466
v 0.5993174 -1.1920929E-07 -0.73027015
v 0.41042987 -1.001358E-07 -0.61425155
v 0.89222586 -1.1920929E-07 -0.7322305
v 0.8112481 -1.0848045E-07 -0.6657738
v 0.67124283 -1.09076495E-07 -0.67124254
v 0.53286076 -1.0550022E-07 -0.6492924
v 0.59681046 -9.715557E-08 -0.5968102
v 0.7302704 -9.775162E-08 -0.5993172
v 0.35194877 -8.5830685E-08 -0.52672845
v 0.46640402 -9.23872E-08 -0.5683148
v 0.5223782 -8.523464E-08 -0.52237797
v 0.39994735 -7.927417E-08 -0.48733705
v 0.2971877 -9.059906E-08 -0.5559989
v 0.64929265 -8.702278E-08 -0.5328605
v 0.29346767 -7.152557E-08 -0.43920535
v 0.20214409 -7.9572196E-08 -0.48801884
v 0.24780588 -7.5399875E-08 -0.46361205
v 0.16186158 -6.3776966E-08 -0.39076835
v 0.23498657 -5.7220458E-08 -0.35168225
v 0.19842407 -6.0498714E-08 -0.37122527
v 0.12157911 -4.7683713E-08 -0.2935179
v 0.33349064 -6.616116E-08 -0.40635934
v 0.09177984 -4.917383E-08 -0.3025574
v 0.041444745 -3.3974647E-08 -0.2083564
v 0.020722372 -3.427267E-08 -0.21039735
v -0 -1.7434358E-08 -0.10717516
v 0.010454452 -1.7285346E-08 -0.10614549
v -0.020722326 -3.427267E-08 -0.21039735
v -0.04144465 -3.3974647E-08 -0.2083564
v -0.06198047 -5.0663946E-08 -0.31159696
v -0.020908827 -1.7136335E-08 -0.10511584
v -0.0104544135 -1.7285346E-08 -0.10614549
v -0.00037300587 -3.0500813E-10 -0.0018752813
v -0.00018650293 -3.085006E-10 -0.0018936396
v -0 -3.1199304E-10 -0.0019119978
v 0.00018653274 -3.085006E-10 -0.0018936396
v 0.00037306547 -3.0500813E-10 -0.0018752813
v 0.020908903 -1.7136335E-08 -0.10511584
v 0.03096152 -1.6614795E-08 -0.10206638
v 0.00055235624 -2.9685907E-10 -0.0018208623
v 0.000731647 -2.8754585E-10 -0.0017664433
v 0.061370686 -3.2931567E-08 -0.20231189
v 0.08129662 -3.2037494E-08 -0.1962674
v 0.041014135 -1.6167759E-08 -0.09901692
v 0.061370686 -3.2931567E-08 -0.20231189
v 0.09966051 -3.039837E-08 -0.1864517
v 0.05027872 -1.5348196E-08 -0.0940649
v 0.0008969307 -2.73576E-10 -0.0016781092
v 0.0010622144 -2.5844202E-10 -0.0015897751
v 0.1490423 -4.529953E-08 -0.27883852
v 0.09966051 -3.039837E-08 -0.1864517
v 0.059543304 -1.4528632E-08 -0.08911289
v 0.17650549 -4.2915342E-08 -0.26415914
v 0.118024394 -2.875924E-08 -0.17663601
v 0.06766382 -1.3411045E-08 -0.082448594
v 0.0012071133 -2.3981556E-10 -0.0014708936
v 0.0013520122 -2.2002496E-10 -0.0013520122
v 0.26703393 -5.3048133E-08 -0.3253817
v 0.2005772 -3.9786098E-08 -0.244404
v 0.13412052 -2.6673078E-08 -0.1634263
v 0.075784326 -1.23679635E-08 -0.075784296
v 0.15021664 -2.4437904E-08 -0.15021658
v 0.22464895 -3.6656857E-08 -0.22464885
v 0.29908127 -4.8577785E-08 -0.29908115
v 0.24440402 -3.2633544E-08 -0.20057715
v 0.08244859 -1.1026859E-08 -0.06766382
v 0.0014708638 -1.9674189E-10 -0.0012071431
v 0.0015897155 -1.7345883E-10 -0.001062274
v 0.089112855 -9.685754E-09 -0.05954333
v 0.1634263 -2.1904706E-08 -0.1341205
v 0.17663597 -1.9222497E-08 -0.118024394
v 0.37351355 -6.079674E-08 -0.3735134
v 0.44794586 -7.301569E-08 -0.4479457
v 0.40635952 -5.4240225E-08 -0.3334905
v 0.48733726 -6.526709E-08 -0.39994717
v 0.32538176 -4.351139E-08 -0.2670338
v 0.56831497 -7.599592E-08 -0.46640384
v 0.2641591 -2.875924E-08 -0.17650545
v 0.35168225 -3.8295983E-08 -0.23498651
v 0.43920538 -4.7683713E-08 -0.29346758
v 0.5267286 -5.7220458E-08 -0.35194865
v 0.6142517 -6.67572E-08 -0.41042972
v 0.70177484 -7.6293944E-08 -0.46891078
v 0.789298 -8.5830685E-08 -0.52739185
v 0.8768212 -9.5367426E-08 -0.5858729
v 0.27883852 -2.4288893E-08 -0.14904223
v 0.37122536 -3.2335517E-08 -0.198424
v 0.18645172 -1.6242266E-08 -0.09966049
v 0.46361217 -4.0382147E-08 -0.24780574
v 0.39076847 -2.6375055E-08 -0.16186148
v 0.089112855 -9.685754E-09 -0.05954333
v 0.09406492 -8.195639E-09 -0.05027874
v 0.555999 -4.8279762E-08 -0.2971875
v 0.4880189 -3.2931567E-08 -0.20214391
v 0.64838576 -5.632639E-08 -0.34656924
v 0.5852694 -3.9488075E-08 -0.24242635
v 0.7407726 -6.437301E-08 -0.39595103
v 0.6825198 -4.61936E-08 -0.28270882
v 0.603294 -2.9802322E-08 -0.18300708
v 0.8331594 -7.241964E-08 -0.44533274
v 0.5030485 -2.4884939E-08 -0.15259798
v 0.77977026 -5.275011E-08 -0.32299125
v 0.92554617 -8.046627E-08 -0.49471453
v 0.8770208 -5.9306622E-08 -0.36327368
v 1.017933 -8.881092E-08 -0.54409623
v 0.9742713 -6.5863134E-08 -0.40355617
v 1.0715218 -7.241964E-08 -0.44383857
v 1.1687722 -7.897615E-08 -0.484121
v 1.2027065 -1.04904174E-07 -0.6428597
v 1.0715218 -7.241964E-08 -0.44383857
v 1.204767 -5.9604645E-08 -0.3654618
v 1.1045215 -5.4538248E-08 -0.3350527
v 1.0042759 -4.9769877E-08 -0.30464363
v 1.1375214 -3.680587E-08 -0.22626686
v 1.252916 -2.0116568E-08 -0.123401165
v 1.148664 -1.8402934E-08 -0.113133274
v 1.0342808 -3.3527613E-08 -0.20573106
v 1.0444121 -1.6763806E-08 -0.10286539
v 1.0342808 -3.3527613E-08 -0.20573106
v 0.9040305 -4.4703484E-08 -0.27423447
v 0.93104017 -3.0100345E-08 -0.18519525
v 0.803785 -3.9786098E-08 -0.24382533
v 0.8277997 -2.682209E-08 -0.16465944
v 0.70353943 -3.4719704E-08 -0.21341623
v 0.72455907 -2.3543834E-08 -0.14412364
v 0.8359085 -1.3411045E-08 -0.08232961
v 0.6213186 -2.0116568E-08 -0.123587824
v 0.94016045 -1.5050173E-08 -0.0925975
v 0.73165673 -1.1771917E-08 -0.07206171
v 0.518078 -1.6763806E-08 -0.10305202
v 0.62740475 -1.0058284E-08 -0.06179383
v 0.633491 2.7569057E-14 1.6940268E-07
v 0.7387541 3.225864E-14 1.9763647E-07
v 0.5231529 -8.381903E-09 -0.05152594
v 0.41483745 -1.3411045E-08 -0.08251622
v 0.4028029 -1.9893049E-08 -0.12218885
v 0.29351795 -1.9818543E-08 -0.121579036
v 0.3025574 -1.4975667E-08 -0.091779724
v 0.19626747 -1.3262033E-08 -0.08129659
v 0.20231192 -9.983777E-09 -0.0613706
v 0.20835635 -6.7427752E-09 -0.041444615
v 0.105115786 -3.4086405E-09 -0.02090881
v 0.10206638 -5.0477684E-09 -0.03096148
v 0.3115969 -1.0095537E-08 -0.06198042
v 0.41890103 -6.7055224E-09 -0.041258052
v 0.31464916 -5.0477684E-09 -0.030990168
v 0.21039732 -3.3713876E-09 -0.02072228
v 0.42296463 1.8403056E-14 1.1293512E-07
v 0.31770146 1.3784529E-14 8.470134E-08
v 0.21243829 9.201528E-15 5.646756E-08
v 0.5282278 2.3021585E-14 1.411689E-07
v 0.10717511 4.600764E-15 2.823378E-08
v 0.10614545 -1.7043202E-09 -0.010454391
v 0.41890103 6.7055224E-09 0.041258264
v 0.5231529 8.381903E-09 0.051526204
v 0.31464916 5.0477684E-09 0.030990323
v 0.21039732 3.3713876E-09 0.020722384
v 0.62740475 1.0058284E-08 0.061794143
v 0.633491 2.7569057E-14 1.6940268E-07
v 0.3115969 1.0095537E-08 0.06198056
v 0.41483745 1.3411045E-08 0.08251641
v 0.20835635 6.7427752E-09 0.04144471
v 0.518078 1.6763806E-08 0.10305226
v 0.6213186 2.0116568E-08 0.12358811
v 0.50304836 2.4884939E-08 0.1525982
v 0.4028029 1.9893049E-08 0.12218903
v 0.3025574 1.4975667E-08 0.09177986
v 0.73165673 1.1771917E-08 0.07206208
v 0.105115786 3.4086405E-09 0.020908859
v 0.20231192 9.983777E-09 0.061370697
v 0.10614545 1.7043202E-09 0.010454443
v 0.0018752217 6.0827E-11 0.00037300587
v 0.00189358 3.04135E-11 0.00018650293
v 0.0019119382 0 0
v 0.00189358 -3.04135E-11 -0.00018650293
v 0.0018752217 -6.0827E-11 -0.00037300587
v 0.105115786 -3.4086405E-09 -0.02090881
v 0.10206638 5.0477684E-09 0.030961525
v 0.19626747 1.3262033E-08 0.08129668
v 0.09901698 6.6682695E-09 0.041014194
v 0.0017665029 1.193257E-10 0.0007317066
v 0.0018208623 9.022187E-11 0.00055235624
v 0.29351792 1.9818543E-08 0.12157917
v 0.39076838 2.6375055E-08 0.16186164
v 0.48801887 3.2931567E-08 0.20214415
v 0.60329396 2.9802322E-08 0.18300737
v 0.58526933 3.9488075E-08 0.24242662
v 0.105115786 -3.4086405E-09 -0.02090881
v 0.21039732 -3.3713876E-09 -0.02072228
v 0.0018752217 6.0827E-11 0.00037300587
v 0.10206638 5.0477684E-09 0.030961525
v 0.518078 1.6763806E-08 0.10305226
v 0.60329396 2.9802322E-08 0.18300737
v 0.60329396 2.9802322E-08 0.18300737
v 0.70353943 3.4719704E-08 0.21341653
v 0.72455907 2.3543834E-08 0.14412397
v 0.803785 3.9786098E-08 0.24382572
v 0.68251973 4.61936E-08 0.28270912
v 0.77977026 5.275011E-08 0.32299158
v 0.8359085 1.3411045E-08 0.082330026
v 0.90403044 4.4703484E-08 0.2742349
v 0.8770207 5.9306622E-08 0.36327407
v 0.8277997 2.682209E-08 0.16465983
v 1.0042759 4.9769877E-08 0.30464405
v 0.97427124 6.5863134E-08 0.4035566
v 0.93104017 3.0100345E-08 0.18519567
v 0.94016045 1.5050173E-08 0.09259797
v 0.8440173 3.6806112E-14 2.2587024E-07
v 1.1045215 5.4538248E-08 0.33505324
v 1.0715216 7.241964E-08 0.44383907
v 1.0342808 3.3527613E-08 0.20573154
v 0.94928044 4.1495693E-14 2.5410404E-07
v 1.0444121 1.6763806E-08 0.10286591
v 1.0545436 4.604317E-14 2.8233782E-07
v 1.148664 -1.8402934E-08 -0.113133274
v 1.204767 5.9604645E-08 0.36546242
v 1.168772 7.897615E-08 0.48412153
v 1.148664 1.8402934E-08 0.113133855
v 1.1598067 5.0590642E-14 3.1057158E-07
v 1.252916 -2.0116568E-08 -0.123401165
v 1.1375214 3.680587E-08 0.2262674
v 1.2407619 4.0233136E-08 0.24680324
v 1.2660226 8.523464E-08 0.524404
v 1.4052582 6.943941E-08 0.42628074
v 1.3571678 2.1755694E-08 0.13366972
v 1.252916 2.0116568E-08 0.12340179
v 1.1375214 3.680587E-08 0.2262674
v 1.26507 5.5138115E-14 3.388054E-07
v 1.3571678 2.1755694E-08 0.13366972
v 1.3703331 5.968559E-14 3.6703918E-07
v 1.4614198 -2.3394822E-08 -0.14393692
v 1.3703331 5.968559E-14 3.6703918E-07
v 0.70353943 3.4719704E-08 0.21341653
v 0.68251973 4.61936E-08 0.28270912
v 0.58526933 3.9488075E-08 0.24242662
v 0.2262673 -1.847744E-07 -1.1375215
v 0.36546233 -1.9669532E-07 -1.204767
v -0 -1.0311604E-07 -0.633491
v 0.07206197 -1.1920929E-07 -0.7316566
v 0.10286573 -1.7046928E-07 -1.0444123
v 0.18519564 -1.513958E-07 -0.9310402
v 0.39587146 -2.1219253E-07 -1.3050125
v 0.4841215 -1.9073485E-07 -1.1687721
v 0.18300734 -9.834766E-08 -0.603294
v 0.20214409 -7.9572196E-08 -0.48801884
v 0.020722372 -3.427267E-08 -0.21039735
v 0.020908903 -1.7136335E-08 -0.10511584
v 0.0015897155 -1.7345883E-10 -0.001062274
v 0.09406492 -8.195639E-09 -0.05027874
v 0.0016781092 -1.4610123E-10 -0.0008969903
v 0.0017665029 -1.193257E-10 -0.0007317066
v 0.09901699 -6.6682695E-09 -0.04101415
v 0.10206638 -5.0477684E-09 -0.03096148
v 0.0018208623 -9.022187E-11 -0.00055235624
v 0.19626747 -1.3262033E-08 -0.08129659
v 0.10206638 -5.0477684E-09 -0.03096148
v 0.0018752217 -6.0827E-11 -0.00037300587
v 0.09901699 -6.6682695E-09 -0.04101415
v 0.20231192 -9.983777E-09 -0.0613706
v 0.27883852 -2.4288893E-08 -0.14904223
v 0.19626747 -1.3262033E-08 -0.08129659
v 0.29351795 -1.9818543E-08 -0.121579036
v 0.37122536 -3.2335517E-08 -0.198424
v 0.1634263 -2.1904706E-08 -0.1341205
v 0.089112855 -9.685754E-09 -0.05954333
v 0.46640402 -9.23872E-08 -0.5683148
v 0.44794586 -7.301569E-08 -0.4479457
v 0.22464895 -3.6656857E-08 -0.22464885
v 0.32538176 -4.351139E-08 -0.2670338
v 0.89222586 -1.1920929E-07 -0.7322305
v 0.8768212 -9.5367426E-08 -0.5858729
v 0.5852694 -3.9488075E-08 -0.24242635
v 0.70353943 -3.4719704E-08 -0.21341623
v 0.8277997 -2.682209E-08 -0.16465944
v 0.94016045 -1.5050173E-08 -0.0925975
v 0.4028029 -1.9893049E-08 -0.12218885
v 0.3115969 -1.0095537E-08 -0.06198042
v 0.62740475 -1.0058284E-08 -0.06179383
v 0.5282278 2.3021585E-14 1.411689E-07
v 0.633491 2.7569057E-14 1.6940268E-07
v 0.73165673 1.1771917E-08 0.07206208
vt 0.9999999 0.047614098
vt 0.9999999 0.0023754835
vt 0.9473684 0.0023754835
vt 0.9473683 0.047614098
vt 0.89473665 0.0023757815
vt 0.89473665 0.047614243
vt 0.84210515 0.0023753643
vt 0.8421051 0.04761397
vt 0.78947353 0.002375424
vt 0.78947353 0.047614157
vt 0.73684204 0.0023755431
vt 0.736842 0.047614153
vt 0.89473665 0.09285271
vt 0.84210515 0.09285259
vt 0.78947353 0.09285289
vt 0.73684204 0.09285277
vt 0.94736826 0.09285271
vt 0.9999999 0.047614098
vt 0.9999999 0.09285271
vt 0.9999999 0.13809127
vt 0.94736826 0.13809119
vt 0.89473665 0.13809122
vt 0.8421052 0.13809122
vt 0.6842105 0.09285277
vt 0.68421054 0.047614157
vt 0.7894735 0.13809139
vt 0.73684204 0.13809142
vt 0.89473677 0.18332976
vt 0.8421052 0.18332982
vt 0.78947353 0.18332988
vt 0.736842 0.18333006
vt 0.94736844 0.1833297
vt 0.9999999 0.13809127
vt 0.99999994 0.18332982
vt 0.9999999 0.22856843
vt 0.9473684 0.22856838
vt 0.89473677 0.2285684
vt 0.84210515 0.22856842
vt 0.9473683 0.27380705
vt 0.99999994 0.27380705
vt 0.9999999 0.31904563
vt 0.8947367 0.27380705
vt 0.9473683 0.31904572
vt 0.8421052 0.27380705
vt 0.78947353 0.22856854
vt 0.9473683 0.3642844
vt 0.99999994 0.36428422
vt 0.9999999 0.4095228
vt 0.8947367 0.31904572
vt 0.7894736 0.27380723
vt 0.8947367 0.3642844
vt 0.9473683 0.4095229
vt 0.8421052 0.31904566
vt 0.8421052 0.36428422
vt 0.9473683 0.45476136
vt 0.99999994 0.4547614
vt 0.9999999 0.49999994
vt 0.89473677 0.40952292
vt 0.8947367 0.45476136
vt 0.9473684 0.5
vt 0.9473683 0.5452385
vt 0.99999994 0.5452385
vt 0.9999999 0.5904771
vt 0.7894736 0.31904572
vt 0.7894736 0.36428422
vt 0.84210515 0.40952277
vt 0.84210515 0.4547614
vt 0.89473665 0.49999988
vt 0.89473677 0.5452385
vt 0.9473682 0.59047705
vt 0.736842 0.27380705
vt 0.9473683 0.63571566
vt 0.99999994 0.63571566
vt 1 0.6809542
vt 0.7368419 0.22856852
vt 0.6842105 0.27380705
vt 0.6842105 0.22856855
vt 0.736842 0.31904563
vt 0.736842 0.36428422
vt 0.7894736 0.4095228
vt 0.7894736 0.4547614
vt 0.84210503 0.49999988
vt 0.84210515 0.5452385
vt 0.89473677 0.59047717
vt 0.8947367 0.63571566
vt 0.9473684 0.6809542
vt 0.9473684 0.7261928
vt 1 0.7261928
vt 1 0.7714313
vt 0.78947365 0.49999994
vt 0.7894736 0.5452385
vt 0.84210515 0.5904771
vt 0.84210515 0.63571566
vt 0.89473677 0.6809545
vt 0.89473665 0.7261932
vt 0.9473684 0.7714313
vt 0.73684204 0.4547615
vt 0.9473684 0.81666994
vt 0.99999994 0.81666994
vt 0.99999994 0.8619085
vt 0.73684204 0.40952286
vt 0.6842105 0.36428386
vt 0.68421054 0.31904548
vt 0.63157886 0.27380735
vt 0.8947367 0.81666994
vt 0.94736826 0.8619083
vt 0.89473665 0.77143157
vt 0.9473684 0.90714705
vt 0.99999994 0.90714705
vt 0.9999999 0.95238566
vt 0.8421052 0.726193
vt 0.84210527 0.68095434
vt 0.78947353 0.63571566
vt 0.78947353 0.5904771
vt 0.73684204 0.5452385
vt 0.73684204 0.5
vt 0.6842105 0.4547615
vt 0.6842105 0.40952265
vt 0.6315789 0.4547615
vt 0.6315789 0.40952265
vt 0.6842104 0.50000006
vt 0.6842104 0.50000006
vt 0.6315789 0.49999997
vt 0.6842105 0.5452387
vt 0.73684216 0.59047717
vt 0.6315789 0.5452384
vt 0.57894737 0.45476168
vt 0.57894737 0.5452385
vt 0.6315789 0.590477
vt 0.736842 0.63571566
vt 0.68421054 0.5904772
vt 0.6315789 0.5452384
vt 0.6842105 0.63571566
vt 0.6315789 0.63571566
vt 0.78947353 0.68095434
vt 0.73684204 0.68095434
vt 0.7894736 0.726193
vt 0.6842105 0.68095446
vt 0.6315789 0.63571566
vt 0.7368421 0.726193
vt 0.84210527 0.7714315
vt 0.6842105 0.7261932
vt 0.78947353 0.7714315
vt 0.8421052 0.81666994
vt 0.73684204 0.7714315
vt 0.78947353 0.81667
vt 0.89473665 0.86190844
vt 0.73684204 0.81667
vt 0.84210527 0.86190856
vt 0.89473677 0.90714705
vt 0.78947353 0.86190844
vt 0.84210527 0.90714717
vt 0.9473683 0.95238566
vt 0.94736826 0.99762434
vt 0.9999999 0.9976243
vt 0.89473665 0.9976244
vt 0.8947367 0.95238566
vt 0.84210515 0.9976245
vt 0.84210515 0.9523857
vt 0.78947365 0.9976244
vt 0.78947365 0.9071471
vt 0.78947365 0.9523858
vt 0.73684204 0.99762446
vt 0.736842 0.9071471
vt 0.73684204 0.9523858
vt 0.6842104 0.99762446
vt 0.73684204 0.86190856
vt 0.6842104 0.95238566
vt 0.63157886 0.99762464
vt 0.6842104 0.90714693
vt 0.6315789 0.9071471
vt 0.6315789 0.95238596
vt 0.5789473 0.9976245
vt 0.6842104 0.81667
vt 0.6842104 0.8619084
vt 0.6315789 0.9071471
vt 0.6315789 0.86190844
vt 0.5789473 0.9523858
vt 0.5263157 0.9976245
vt 0.57894737 0.9071471
vt 0.6842104 0.77143157
vt 0.6315789 0.8166698
vt 0.6842104 0.8619084
vt 0.6315788 0.7714313
vt 0.5263157 0.9523858
vt 0.47368413 0.99762475
vt 0.52631575 0.9071471
vt 0.57894737 0.8166702
vt 0.57894737 0.8619087
vt 0.47368407 0.95238584
vt 0.42105263 0.9976245
vt 0.52631575 0.81667
vt 0.5789474 0.77143174
vt 0.47368416 0.90714717
vt 0.5263157 0.86190844
vt 0.47368413 0.86190856
vt 0.42105258 0.9523858
vt 0.36842102 0.9976245
vt 0.42105258 0.9071471
vt 0.36842102 0.9523858
vt 0.31578946 0.9976244
vt 0.36842102 0.9071471
vt 0.31578946 0.95238566
vt 0.26315784 0.99762446
vt 0.42105258 0.86190856
vt 0.31578946 0.90714705
vt 0.26315787 0.95238566
vt 0.21052629 0.9976245
vt 0.21052629 0.9523858
vt 0.2631579 0.90714693
vt 0.3157895 0.86190856
vt 0.21052629 0.90714717
vt 0.36842102 0.86190856
vt 0.26315784 0.86190856
vt 0.1578947 0.90714717
vt 0.1578947 0.95238584
vt 0.1578947 0.9976245
vt 0.21052629 0.9976245
vt 0.21052626 0.86190856
vt 0.1578947 0.90714717
vt 0.36842102 0.81667
vt 0.31578946 0.81666994
vt 0.42105258 0.81667
vt 0.47368413 0.81667
vt 0.26315784 0.8166702
vt 0.21052623 0.81667
vt 0.15789469 0.86190856
vt 0.15789467 0.81667006
vt 0.105263144 0.90714717
vt 0.42105258 0.77143145
vt 0.47368413 0.77143145
vt 0.36842102 0.77143157
vt 0.3157894 0.7714313
vt 0.26315784 0.7714315
vt 0.3157894 0.72619283
vt 0.36842102 0.72619283
vt 0.5263157 0.77143145
vt 0.4210526 0.72619283
vt 0.21052623 0.77143157
vt 0.47368413 0.72619283
vt 0.52631575 0.726193
vt 0.42105258 0.68095416
vt 0.4736841 0.68095416
vt 0.5263157 0.6809542
vt 0.36842096 0.68095416
vt 0.57894737 0.7261932
vt 0.5789473 0.6809543
vt 0.63157886 0.726193
vt 0.63157886 0.68095434
vt 0.57894737 0.6357155
vt 0.52631575 0.63571566
vt 0.5789473 0.590477
vt 0.47368416 0.63571566
vt 0.5263156 0.5904771
vt 0.5263157 0.5452385
vt 0.4210526 0.63571566
vt 0.47368413 0.5904771
vt 0.36842102 0.63571566
vt 0.5789473 0.5000001
vt 0.5263157 0.5000001
vt 0.47368413 0.5452385
vt 0.42105258 0.5904771
vt 0.42105258 0.5452385
vt 0.4736841 0.5000001
vt 0.31578943 0.63571566
vt 0.36842108 0.5904771
vt 0.36842102 0.5452385
vt 0.31578946 0.59047717
vt 0.3157894 0.68095416
vt 0.42105258 0.4999999
vt 0.26315784 0.63571566
vt 0.26315784 0.72619283
vt 0.26315787 0.6809543
vt 0.21052623 0.7261932
vt 0.21052626 0.63571566
vt 0.21052624 0.68095446
vt 0.15789467 0.72619283
vt 0.2631578 0.5904771
vt 0.15789467 0.77143145
vt 0.105263114 0.81667006
vt 0.10526313 0.8619086
vt 0.052631557 0.9071473
vt 0.052631542 0.86190873
vt 0.10526313 0.9523858
vt 0.105263114 0.9976244
vt 0.1578947 0.9976245
vt 0.052631557 0.9976244
vt 0.05263155 0.9523858
vt -2.9802322E-08 0.99762434
vt -2.980232E-08 0.9523857
vt -2.9802322E-08 0.90714717
vt -4.4703484E-08 0.8619087
vt -5.9604645E-08 0.81667006
vt 0.052631527 0.8166702
vt 0.052631512 0.77143157
vt -5.9604645E-08 0.77143145
vt -5.9604645E-08 0.72619283
vt 0.1052631 0.77143145
vt 0.105263084 0.72619283
vt 0.052631497 0.726193
vt 0.1052631 0.77143145
vt 0.1052631 0.68095434
vt 0.052631512 0.6809542
vt -5.960465E-08 0.6809543
vt -5.9604645E-08 0.63571566
vt 0.15789469 0.68095416
vt 0.1052631 0.68095434
vt 0.052631527 0.6357155
vt 0.1578947 0.6357155
vt 0.105263114 0.6357159
vt 0.052631527 0.590477
vt -5.9604645E-08 0.5904771
vt -5.9604645E-08 0.5452385
vt 0.21052629 0.59047717
vt 0.1578947 0.59047705
vt 0.1052631 0.59047717
vt 0.052631527 0.5452385
vt 0.105263114 0.5452385
vt 0.15789467 0.5452385
vt 0.21052626 0.5452385
vt 0.15789467 0.5000001
vt 0.052631523 0.49999988
vt -5.9604645E-08 0.49999994
vt -5.9604645E-08 0.45476142
vt 0.052631527 0.45476142
vt 0.1052631 0.49999994
vt 0.105263114 0.45476153
vt 0.26315784 0.5452385
vt 0.31578943 0.5452385
vt 0.26315784 0.5000001
vt 0.31578946 0.5000001
vt 0.21052623 0.50000006
vt 0.36842102 0.5
vt 0.15789467 0.45476168
vt 0.21052623 0.45476168
vt 0.26315784 0.45476168
vt 0.31578943 0.45476168
vt 0.36842102 0.4547615
vt 0.4210526 0.4547614
vt 0.47368416 0.45476168
vt 0.52631575 0.45476168
vt 0.15789466 0.40952307
vt 0.21052623 0.40952313
vt 0.10526311 0.40952304
vt 0.26315787 0.40952313
vt 0.21052623 0.36428457
vt 0.052631527 0.45476142
vt 0.052631512 0.40952283
vt 0.3157894 0.40952313
vt 0.2631578 0.36428457
vt 0.36842102 0.40952292
vt 0.3157894 0.36428457
vt 0.4210526 0.40952283
vt 0.368421 0.3642844
vt 0.31578946 0.31904584
vt 0.47368413 0.4095228
vt 0.26315784 0.3190458
vt 0.4210526 0.36428422
vt 0.5263157 0.4095228
vt 0.4736842 0.36428398
vt 0.57894737 0.409523
vt 0.52631575 0.36428398
vt 0.57894737 0.36428422
vt 0.631579 0.36428386
vt 0.6842105 0.40952265
vt 0.57894737 0.36428422
vt 0.6315789 0.3190456
vt 0.57894737 0.31904578
vt 0.5263158 0.3190457
vt 0.57894737 0.27380735
vt 0.63157886 0.22856876
vt 0.57894737 0.22856878
vt 0.52631575 0.27380735
vt 0.52631575 0.2285688
vt 0.52631575 0.27380735
vt 0.47368422 0.3190456
vt 0.47368413 0.27380723
vt 0.42105258 0.31904572
vt 0.42105258 0.27380723
vt 0.36842096 0.3190458
vt 0.36842096 0.27380723
vt 0.42105258 0.22856854
vt 0.31578946 0.27380705
vt 0.47368413 0.22856864
vt 0.36842096 0.22856852
vt 0.26315784 0.27380705
vt 0.31578943 0.22856846
vt 0.3157894 0.18332988
vt 0.36842102 0.18332988
vt 0.26315784 0.2285685
vt 0.21052629 0.27380705
vt 0.21052626 0.3190458
vt 0.15789467 0.36428457
vt 0.15789467 0.3190459
vt 0.105263114 0.36428457
vt 0.1052631 0.31904578
vt 0.105263114 0.27380705
vt 0.052631557 0.27380705
vt 0.05263152 0.3190456
vt 0.15789467 0.27380723
vt 0.21052626 0.22856846
vt 0.15789467 0.22856858
vt 0.105263114 0.22856848
vt 0.21052623 0.18332988
vt 0.15789467 0.18332991
vt 0.105263114 0.18332991
vt 0.26315784 0.18332988
vt 0.052631497 0.18332991
vt 0.05263152 0.22856846
vt 0.2105262 0.13809125
vt 0.2631578 0.13809131
vt 0.15789466 0.13809136
vt 0.10526311 0.13809136
vt 0.3157894 0.13809113
vt 0.3157894 0.18332988
vt 0.15789461 0.0928528
vt 0.21052623 0.09285265
vt 0.105263114 0.0928528
vt 0.26315784 0.09285277
vt 0.31578946 0.09285241
vt 0.26315778 0.04761403
vt 0.21052624 0.04761404
vt 0.1578946 0.04761418
vt 0.36842102 0.13809115
vt 0.052631497 0.0928528
vt 0.10526308 0.047614127
vt 0.052631497 0.13809136
vt -5.9604645E-08 0.0928528
vt -5.9604645E-08 0.13809136
vt -5.9604645E-08 0.18332991
vt -5.9604645E-08 0.2285685
vt -5.9604645E-08 0.27380705
vt 0.052631557 0.27380705
vt 0.052631497 0.047614127
vt 0.105263054 0.0023754537
vt 0.052631497 0.0023754537
vt -5.9604645E-08 0.002375573
vt -5.9604645E-08 0.047614187
vt 0.15789461 0.002375573
vt 0.21052623 0.002375424
vt 0.26315784 0.0023753047
vt 0.3157894 0.04761398
vt 0.3157894 0.0023755431
vt 0.052631557 0.27380705
vt 0.105263114 0.22856848
vt -5.9604645E-08 0.0928528
vt 0.052631497 0.047614127
vt 0.26315784 0.09285277
vt 0.3157894 0.04761398
vt 0.3157894 0.04761398
vt 0.368421 0.04761392
vt 0.36842102 0.09285241
vt 0.42105258 0.04761392
vt 0.36842102 0.002375424
vt 0.42105258 0.002375424
vt 0.42105258 0.13809115
vt 0.47368413 0.04761398
vt 0.47368407 0.0023755431
vt 0.42105258 0.09285241
vt 0.5263157 0.047614217
vt 0.52631575 0.0023755431
vt 0.47368413 0.09285241
vt 0.47368413 0.13809124
vt 0.42105258 0.18332988
vt 0.57894737 0.047614098
vt 0.57894737 0.0023755431
vt 0.5263157 0.09285289
vt 0.47368416 0.18333006
vt 0.5263157 0.13809156
vt 0.52631575 0.18333024
vt 0.57894737 0.22856878
vt 0.6315788 0.047614098
vt 0.63157886 0.0023755431
vt 0.57894737 0.13809144
vt 0.57894737 0.18333024
vt 0.63157886 0.22856876
vt 0.57894737 0.09285265
vt 0.63157886 0.09285265
vt 0.6842105 0.0023755431
vt 0.736842 0.047614153
vt 0.6842104 0.13809142
vt 0.6315788 0.13809143
vt 0.57894737 0.09285265
vt 0.6315789 0.18333024
vt 0.6842104 0.13809142
vt 0.6842105 0.18333006
vt 0.7368419 0.22856852
vt 0.6842105 0.18333006
vt 0.368421 0.04761392
vt 0.36842102 0.002375424
vt 0.3157894 0.0023755431
vt 0.57894737 0.8166702
vt 0.6315788 0.7714313
vt 0.31578946 0.90714705
vt 0.36842102 0.86190856
vt 0.5263157 0.86190844
vt 0.47368413 0.81667
vt 0.6842104 0.77143157
vt 0.63157886 0.726193
vt 0.3157894 0.7714313
vt 0.26315784 0.72619283
vt 0.10526313 0.8619086
vt 0.052631527 0.8166702
vt -5.9604645E-08 0.45476142
vt 0.052631512 0.40952283
vt -5.9604645E-08 0.40952283
vt -5.9604645E-08 0.36428422
vt 0.052631497 0.36428422
vt 0.05263152 0.3190456
vt -5.9604645E-08 0.31904563
vt 0.105263114 0.36428457
vt 0.05263152 0.3190456
vt -5.9604645E-08 0.27380705
vt 0.052631497 0.36428422
vt 0.1052631 0.31904578
vt 0.15789466 0.40952307
vt 0.105263114 0.36428457
vt 0.15789467 0.36428457
vt 0.21052623 0.40952313
vt 0.1052631 0.49999994
vt 0.052631527 0.45476142
vt 0.36842108 0.5904771
vt 0.31578943 0.5452385
vt 0.15789467 0.5452385
vt 0.21052623 0.50000006
vt 0.5789473 0.5000001
vt 0.52631575 0.45476168
vt 0.3157894 0.36428457
vt 0.36842096 0.3190458
vt 0.42105258 0.27380723
vt 0.47368413 0.22856864
vt 0.21052626 0.3190458
vt 0.15789467 0.27380723
vt 0.31578943 0.22856846
vt 0.26315784 0.18332988
vt 0.3157894 0.18332988
vt 0.36842102 0.13809115
vn -0 1 -1.6292068E-07
vn -0 1 -1.6292068E-07
vn -0 1 -1.6292068E-07
vn -0 1 -1.6292068E-07
vn -0 1 -1.6292068E-07
vn -0 1 -1.6292068E-07
vn -0 1 -1.6292068E-07
vn -0 1 -1.6292068E-07
vn -0 1 -1.6292068E-07
vn -0 1 -1.6292068E-07
vn -0 1 -1.6292068E-07
vn -0 1 -1.6292068E-07
vn -0 1 -1.6292068E-07
vn -0 1 -1.6292068E-07
vn -0 1 -1.6292068E-07
vn -0 1 -1.6292068E-07
vn -0 1 -1.6292068E-07
vn -0 1 -1.6292068E-07
vn -0 1 -1.6292068E-07
vn -0 1 -1.6292068E-07
vn -0 1 -1.6292068E-07
vn -0 1 -1.6292068E-07
vn -0 1 -1.6292068E-07
vn -0 1 -1.6292068E-07
vn -0 1 -1.6292068E-07
vn -0 1 -1.6292068E-07
vn -0 1 -1.6292068E-07
vn -0 1 -1.6292068E-07
vn -0 1 -1.6292068E-07
vn -0 1 -1.6292068E-07
vn -0 1 -1.6292068E-07
vn -0 1 -1.6292068E-07
vn -0 1 -1.6292068E-07
vn -0 1 -1.6292068E-07
vn -0 1 -1.6292068E-07
vn -0 1 -1.6292068E-07
vn -0 1 -1.6292068E-07
vn -0 1 -1.6292068E-07
vn -0 1 -1.6292068E-07
vn -0 1 -1.6292068E-07
vn -0 1 -1.6292068E-07
vn -0 1 -1.6292068E-07
vn -0 1 -1.6292068E-07
vn -0 1 -1.6292068E-07
vn -0 1 -1.6292068E-07
vn -0 1 -1.6292068E-07
vn -0 1 -1.6292068E-07
vn -0 1 -1.6292068E-07
vn -0 1 -1.6292068E-07
vn -0 1 -1.6292068E-07
vn -0 1 -1.6292068E-07
vn -0 1 -1.6292068E-07
vn -0 1 -1.6292068E-07
vn -0 1 -1.6292068E-07
vn -0 1 -1.6292068E-07
vn -0 1 -1.6292068E-07
vn -0 1 -1.6292068E-07
vn -0 1 -1.6292068E-07
vn -0 1 -1.6292068E-07
vn -0 1 -1.6292068E-07
vn -0 1 -1.6292068E-07
vn -0 1 -1.6292068E-07
vn -0 1 -1.6292068E-07
vn -0 1 -1.6292068E-07
vn -0 1 -1.6292068E-07
vn -0 1 -1.6292068E-07
vn -0 1 -1.6292068E-07
vn -0 1 -1.6292068E-07
vn -0 1 -1.6292068E-07
vn -0 1 -1.6292068E-07
vn -0 1 -1.6292068E-07
vn -0 1 -1.6292068E-07
vn -0 1 -1.6292068E-07
vn -0 1 -1.6292068E-07
vn -0 1 -1.6292068E-07
vn -0 1 -1.6292068E-07
vn -0 1 -1.6292068E-07
vn -0 1 -1.6292068E-07
vn -0 1 -1.6292068E-07
vn -0 1 -1.6292068E-07
vn -0 1 -1.6292068E-07
vn -0 1 -1.6292068E-07
vn -0 1 -1.6292068E-07
vn -0 1 -1.6292068E-07
vn -0 1 -1.6292068E-07
vn -0 1 -1.6292068E-07
vn -0 1 -1.6292068E-07
vn -0 1 -1.6292068E-07
vn -0 1 -1.6292068E-07
vn -0 1 -1.6292068E-07
vn -0 1 -1.6292068E-07
vn -0 1 -1.6292068E-07
vn -0 1 -1.6292068E-07
vn -0 1 -1.6292068E-07
vn -0 1 -1.6292068E-07
vn -0 1 -1.6292068E-07
vn -0 1 -1.6292068E-07
vn -0 1 -1.6292068E-07
vn -0 1 -1.6292068E-07
vn -0 1 -1.6292068E-07
vn -0 1 -1.6292068E-07
vn -0 1 -1.6292068E-07
vn -0 1 -1.6292068E-07
vn -0 1 -1.6292068E-07
vn -0 1 -1.6292068E-07
vn -0 1 -1.6292068E-07
vn -0 1 -1.6292068E-07
vn -0 1 -1.6292068E-07
vn -0 1 -1.6292068E-07
vn -0 1 -1.6292068E-07
vn -0 1 -1.6292068E-07
vn -0 1 -1.6292068E-07
vn -0 1 -1.6292068E-07
vn -0 1 -1.6292068E-07
vn -0 1 -1.6292068E-07
vn -0 1 -1.6292068E-07
vn -0 1 -1.6292068E-07
vn -0 1 -1.6292068E-07
vn -0 1 -1.6292068E-07
vn -0 1 -1.6292068E-07
vn -0 1 -1.6292068E-07
vn -0 1 -1.6292068E-07
vn -0 1 -1.6292068E-07
vn -0 1 -1.6292068E-07
vn -0 1 -1.6292068E-07
vn -0 1 -1.6292068E-07
vn -0 1 -1.6292068E-07
vn -0 1 -1.6292068E-07
vn -0 1 -1.6292068E-07
vn -0 1 -1.6292068E-07
vn -0 1 -1.6292068E-07
vn -0 1 -1.6292068E-07
vn -0 1 -1.6292068E-07
vn -0 1 -1.6292068E-07
vn -0 1 -1.6292068E-07
vn -0 1 -1.6292068E-07
vn -0 1 -1.6292068E-07
vn -0 1 -1.6292068E-07
vn -0 1 -1.6292068E-07
vn -0 1 -1.6292068E-07
vn -0 1 -1.6292068E-07
vn -0 1 -1.6292068E-07
vn -0 1 -1.6292068E-07
vn -0 1 -1.6292068E-07
vn -0 1 -1.6292068E-07
vn -0 1 -1.6292068E-07
vn -0 1 -1.6292068E-07
vn -0 1 -1.6292068E-07
vn -0 1 -1.6292068E-07
vn -0 1 -1.6292068E-07
vn -0 1 -1.6292068E-07
vn -0 1 -1.6292068E-07
vn -0 1 -1.6292068E-07
vn -0 1 -1.6292068E-07
vn -0 1 -1.6292068E-07
vn -0 1 -1.6292068E-07
vn -0 1 -1.6292068E-07
vn -0 1 -1.6292068E-07
vn -0 1 -1.6292068E-07
vn -0 1 -1.6292068E-07
vn -0 1 -1.6292068E-07
vn -0 1 -1.6292068E-07
vn -0 1 -1.6292068E-07
vn -0 1 -1.6292068E-07
vn -0 1 -1.6292068E-07
vn -0 1 -1.6292068E-07
vn -0 1 -1.6292068E-07
vn -0 1 -1.6292068E-07
vn -0 1 -1.6292068E-07
vn -0 1 -1.6292068E-07
vn -0 1 -1.6292068E-07
vn -0 1 -1.6292068E-07
vn -0 1 -1.6292068E-07
vn -0 1 -1.6292068E-07
vn -0 1 -1.6292068E-07
vn -0 1 -1.6292068E-07
vn -0 1 -1.6292068E-07
vn -0 1 -1.6292068E-07
vn -0 1 -1.6292068E-07
vn -0 1 -1.6292068E-07
vn -0 1 -1.6292068E-07
vn -0 1 -1.6292068E-07
vn -0 1 -1.6292068E-07
vn -0 1 -1.6292068E-07
vn -0 1 -1.6292068E-07
vn -0 1 -1.6292068E-07
vn -0 1 -1.6292068E-07
vn -0 1 -1.6292068E-07
vn -0 1 -1.6292068E-07
vn -0 1 -1.6292068E-07
vn -0 1 -1.6292068E-07
vn -0 1 -1.6292068E-07
vn -0 1 -1.6292068E-07
vn -0 1 -1.6292068E-07
vn -0 1 -1.6292068E-07
vn -0 1 -1.6292068E-07
vn -0 1 -1.6292068E-07
vn -0 1 -1.6292068E-07
vn -0 1 -1.6292068E-07
vn -0 1 -1.6292068E-07
vn -0 1 -1.6292068E-07
vn -0 1 -1.6292068E-07
vn -0 1 -1.6292068E-07
vn -0 1 -1.6292068E-07
vn -0 1 -1.6292068E-07
vn -0 1 -1.6292068E-07
vn -0 1 -1.6292068E-07
vn -0 1 -1.6292068E-07
vn -0 1 -1.6292068E-07
vn -0 1 -1.6292068E-07
vn -0 1 -1.6292068E-07
vn -0 1 -1.6292068E-07
vn -0 1 -1.6292068E-07
vn -0 1 -1.6292068E-07
vn -0 1 -1.6292068E-07
vn -0 1 -1.6292068E-07
vn -0 1 -1.6292068E-07
vn -0 1 -1.6292068E-07
vn -0 1 -1.6292068E-07
vn -0 1 -1.6292068E-07
vn -0 1 -1.6292068E-07
vn -0 1 -1.6292068E-07
vn -0 1 -1.6292068E-07
vn -0 1 -1.6292068E-07
vn -0 1 -1.6292068E-07
vn -0 1 -1.6292068E-07
vn -0 1 -1.6292068E-07
vn -0 1 -1.6292068E-07
vn -0 1 -1.6292068E-07
vn -0 1 -1.6292068E-07
vn -0 1 -1.6292068E-07
vn -0 1 -1.6292068E-07
vn -0 1 -1.6292068E-07
vn -0 1 -1.6292068E-07
vn -0 1 -1.6292068E-07
vn -0 1 -1.6292068E-07
vn -0 1 -1.6292068E-07
vn -0 1 -1.6292068E-07
vn -0 1 -1.6292068E-07
vn -0 1 -1.6292068E-07
vn -0 1 -1.6292068E-07
vn -0 1 -1.6292068E-07
vn -0 1 -1.6292068E-07
vn -0 1 -1.6292068E-07
vn -0 1 -1.6292068E-07
vn -0 1 -1.6292068E-07
vn -0 1 -1.6292068E-07
vn -0 1 -1.6292068E-07
vn -0 1 -1.6292068E-07
vn -0 1 -1.6292068E-07
vn -0 1 -1.6292068E-07
vn -0 1 -1.6292068E-07
vn -0 1 -1.6292068E-07
vn -0 1 -1.6292068E-07
vn -0 1 -1.6292068E-07
vn -0 1 -1.6292068E-07
vn -0 1 -1.6292068E-07
vn -0 1 -1.6292068E-07
vn -0 1 -1.6292068E-07
vn -0 1 -1.6292068E-07
vn -0 1 -1.6292068E-07
vn -0 1 -1.6292068E-07
vn -0 1 -1.6292068E-07
vn -0 1 -1.6292068E-07
vn -0 1 -1.6292068E-07
vn -0 1 -1.6292068E-07
vn -0 1 -1.6292068E-07
vn -0 1 -1.6292068E-07
vn -0 1 -1.6292068E-07
vn -0 1 -1.6292068E-07
vn -0 1 -1.6292068E-07
vn -0 1 -1.6292068E-07
vn -0 1 -1.6292068E-07
vn -0 1 -1.6292068E-07
vn -0 1 -1.6292068E-07
vn -0 1 -1.6292068E-07
vn -0 1 -1.6292068E-07
vn -0 1 -1.6292068E-07
vn -0 1 -1.6292068E-07
vn -0 1 -1.6292068E-07
vn -0 1 -1.6292068E-07
vn -0 1 -1.6292068E-07
vn -0 1 -1.6292068E-07
vn -0 1 -1.6292068E-07
vn -0 1 -1.6292068E-07
vn -0 1 -1.6292068E-07
vn -0 1 -1.6292068E-07
vn -0 1 -1.6292068E-07
vn -0 1 -1.6292068E-07
vn -0 1 -1.6292068E-07
vn -0 1 -1.6292068E-07
vn -0 1 -1.6292068E-07
vn -0 1 -1.6292068E-07
vn -0 1 -1.6292068E-07
vn -0 1 -1.6292068E-07
vn -0 1 -1.6292068E-07
vn -0 1 -1.6292068E-07
vn -0 1 -1.6292068E-07
vn -0 1 -1.6292068E-07
vn -0 1 -1.6292068E-07
vn -0 1 -1.6292068E-07
vn -0 1 -1.6292068E-07
vn -0 1 -1.6292068E-07
vn -0 1 -1.6292068E-07
vn -0 1 -1.6292068E-07
vn -0 1 -1.6292068E-07
vn -0 1 -1.6292068E-07
vn -0 1 -1.6292068E-07
vn -0 1 -1.6292068E-07
vn -0 1 -1.6292068E-07
vn -0 1 -1.6292068E-07
vn -0 1 -1.6292068E-07
vn -0 1 -1.6292068E-07
vn -0 1 -1.6292068E-07
vn -0 1 -1.6292068E-07
vn -0 1 -1.6292068E-07
vn -0 1 -1.6292068E-07
vn -0 1 -1.6292068E-07
vn -0 1 -1.6292068E-07
vn -0 1 -1.6292068E-07
vn -0 1 -1.6292068E-07
vn -0 1 -1.6292068E-07
vn -0 1 -1.6292068E-07
vn -0 1 -1.6292068E-07
vn -0 1 -1.6292068E-07
vn -0 1 -1.6292068E-07
vn -0 1 -1.6292068E-07
vn -0 1 -1.6292068E-07
vn -0 1 -1.6292068E-07
vn -0 1 -1.6292068E-07
vn -0 1 -1.6292068E-07
vn -0 1 -1.6292068E-07
vn -0 1 -1.6292068E-07
vn -0 1 -1.6292068E-07
vn -0 1 -1.6292068E-07
vn -0 1 -1.6292068E-07
vn -0 1 -1.6292068E-07
vn -0 1 -1.6292068E-07
vn -0 1 -1.6292068E-07
vn -0 1 -1.6292068E-07
vn -0 1 -1.6292068E-07
vn -0 1 -1.6292068E-07
vn -0 1 -1.6292068E-07
vn -0 1 -1.6292068E-07
vn -0 1 -1.6292068E-07
vn -0 1 -1.6292068E-07
vn -0 1 -1.6292068E-07
vn -0 1 -1.6292068E-07
vn -0 1 -1.6292068E-07
vn -0 1 -1.6292068E-07
vn -0 1 -1.6292068E-07
vn -0 1 -1.6292068E-07
vn -0 1 -1.6292068E-07
vn -0 1 -1.6292068E-07
vn -0 1 -1.6292068E-07
vn -0 1 -1.6292068E-07
vn -0 1 -1.6292068E-07
vn -0 1 -1.6292068E-07
vn -0 1 -1.6292068E-07
vn -0 1 -1.6292068E-07
vn -0 1 -1.6292068E-07
vn -0 1 -1.6292068E-07
vn -0 1 -1.6292068E-07
vn -0 1 -1.6292068E-07
vn -0 1 -1.6292068E-07
vn -0 1 -1.6292068E-07
vn -0 1 -1.6292068E-07
vn -0 1 -1.6292068E-07
vn -0 1 -1.6292068E-07
vn -0 1 -1.6292068E-07
vn -0 1 -1.6292068E-07
vn -0 1 -1.6292068E-07
vn -0 1 -1.6292068E-07
vn -0 1 -1.6292068E-07
vn -0 1 -1.6292068E-07
vn -0 1 -1.6292068E-07
vn -0 1 -1.6292068E-07
vn -0 1 -1.6292068E-07
vn -0 1 -1.6292068E-07
vn -0 1 -1.6292068E-07
vn -0 1 -1.6292068E-07
vn -0 1 -1.6292068E-07
vn -0 1 -1.6292068E-07
vn -0 1 -1.6292068E-07
vn -0 1 -1.6292068E-07
vn -0 1 -1.6292068E-07
vn -0 1 -1.6292068E-07
vn -0 1 -1.6292068E-07
vn -0 1 -1.6292068E-07
vn -0 1 -1.6292068E-07
vn -0 1 -1.6292068E-07
vn -0 1 -1.6292068E-07
vn -0 1 -1.6292068E-07
vn -0 1 -1.6292068E-07
vn -0 1 -1.6292068E-07
vn -0 1 -1.6292068E-07
vn -0 1 -1.6292068E-07
vn -0 1 -1.6292068E-07
vn -0 1 -1.6292068E-07
vn -0 1 -1.6292068E-07
vn -0 1 -1.6292068E-07
vn -0 1 -1.6292068E-07
vn -0 1 -1.6292068E-07
vn -0 1 -1.6292068E-07
vn -0 1 -1.6292068E-07
vn -0 1 -1.6292068E-07
vn -0 1 -1.6292068E-07
vn -0 1 -1.6292068E-07
vn -0 1 -1.6292068E-07
vn -0 1 -1.6292068E-07
vn -0 1 -1.6292068E-07
vn -0 1 -1.6292068E-07
vn -0 1 -1.6292068E-07
vn -0 1 -1.6292068E-07
vn -0 1 -1.6292068E-07
vn -0 1 -1.6292068E-07
vn -0 1 -1.6292068E-07
vn -0 1 -1.6292068E-07
vn -0 1 -1.6292068E-07
vn -0 1 -1.6292068E-07
vn -0 1 -1.6292068E-07
vn -0 1 -1.6292068E-07
vn -0 1 -1.6292068E-07
vn -0 1 -1.6292068E-07
vn -0 1 -1.6292068E-07
vn -0 1 -1.6292068E-07
vn -0 1 -1.6292068E-07
vn -0 1 -1.6292068E-07
vn -0 1 -1.6292068E-07
vn -0 1 -1.6292068E-07
vn -0 1 -1.6292068E-07
vn -0 1 -1.6292068E-07
vn -0 1 -1.6292068E-07
vn -0 1 -1.6292068E-07
vn -0 1 -1.6292068E-07
vn -0 1 -1.6292068E-07
vn -0 1 -1.6292068E-07
vn -0 1 -1.6292068E-07
vn -0 1 -1.6292068E-07
vn -0 1 -1.6292068E-07
vn -0 1 -1.6292068E-07
vn -0 1 -1.6292068E-07
vn -0 1 -1.6292068E-07
vn -0 1 -1.6292068E-07
vn -0 1 -1.6292068E-07
vn -0 1 -1.6292068E-07
vn -0 1 -1.6292068E-07
vn -0 1 -1.6292068E-07
vn -0 1 -1.6292068E-07
vn -0 1 -1.6292068E-07
vn -0 1 -1.6292068E-07
vn -0 1 -1.6292068E-07
vn -0 1 -1.6292068E-07
vn -0 1 -1.6292068E-07
vn -0 1 -1.6292068E-07
vn -0 1 -1.6292068E-07
vn -0 1 -1.6292068E-07
vn -0 1 -1.6292068E-07
vn -0 1 -1.6292068E-07
vn -0 1 -1.6292068E-07
vn -0 1 -1.6292068E-07
vn -0 1 -1.6292068E-07
vn -0 1 -1.6292068E-07
vn -0 1 -1.6292068E-07
vn -0 1 -1.6292068E-07
vn -0 1 -1.6292068E-07
vn -0 1 -1.6292068E-07
vn -0 1 -1.6292068E-07
vn -0 1 -1.6292068E-07
vn -0 1 -1.6292068E-07
vn -0 1 -1.6292068E-07
vn -0 1 -1.6292068E-07
vn -0 1 -1.6292068E-07
vn -0 1 -1.6292068E-07
vn -0 1 -1.6292068E-07
vn -0 1 -1.6292068E-07
vn -0 1 -1.6292068E-07
vn -0 1 -1.6292068E-07
vn -0 1 -1.6292068E-07
vn -0 1 -1.6292068E-07
vn -0 1 -1.6292068E-07
vn -0 1 -1.6292068E-07
vn -0 1 -1.6292068E-07
vn -0 1 -1.6292068E-07
vn -0 1 -1.6292068E-07
vn -0 1 -1.6292068E-07
vn -0 1 -1.6292068E-07
vn -0 1 -1.6292068E-07
vn -0 1 -1.6292068E-07
vn -0 1 -1.6292068E-07
vn -0 1 -1.6292068E-07
vn -0 1 -1.6292068E-07
vn -0 1 -1.6292068E-07
vn -0 1 -1.6292068E-07
vn -0 1 -1.6292068E-07
vn -0 1 -1.6292068E-07
vn -0 1 -1.6292068E-07
vn -0 1 -1.6292068E-07
vn -0 1 -1.6292068E-07
vn -0 1 -1.6292068E-07
vn -0 1 -1.6292068E-07
vn -0 1 -1.6292068E-07
vn -0 1 -1.6292068E-07
vn -0 1 -1.6292068E-07
vn -0 1 -1.6292068E-07
vn -0 1 -1.6292068E-07
vn -0 1 -1.6292068E-07
vn -0 1 -1.6292068E-07
vn -0 1 -1.6292068E-07
vn -0 1 -1.6292068E-07
vn -0 1 -1.6292068E-07
vn -0 1 -1.6292068E-07
vn -0 1 -1.6292068E-07
vn -0 1 -1.6292068E-07
vn -0 1 -1.6292068E-07
vn -0 1 -1.6292068E-07
vn -0 1 -1.6292068E-07
vn -0 1 -1.6292068E-07
vn -0 1 -1.6292068E-07
vn -0 1 -1.6292068E-07
vn -0 1 -1.6292068E-07
vn -0 1 -1.6292068E-07
vn -0 1 -1.6292068E-07
vn -0 1 -1.6292068E-07
vn -0 1 -1.6292068E-07
vn -0 1 -1.6292068E-07
vn -0 1 -1.6292068E-07
vn -0 1 -1.6292068E-07
vn -0 1 -1.6292068E-07
vn -0 1 -1.6292068E-07
vn -0 1 -1.6292068E-07
vn -0 1 -1.6292068E-07
vn -0 1 -1.6292068E-07
vn -0 1 -1.6292068E-07
vn -0 1 -1.6292068E-07
vn -0 1 -1.6292068E-07
vn -0 1 -1.6292068E-07
g Md_UNQ_SkillCutIn_00_0
f 3/3/3 2/2/2 1/1/1
f 3/3/3 1/1/1 4/4/4
f 5/5/5 3/3/3 4/4/4
f 5/5/5 4/4/4 6/6/6
f 7/7/7 5/5/5 6/6/6
f 7/7/7 6/6/6 8/8/8
f 9/9/9 7/7/7 8/8/8
f 9/9/9 8/8/8 10/10/10
f 11/11/11 9/9/9 10/10/10
f 11/11/11 10/10/10 12/12/12
f 4/4/4 13/13/13 6/6/6
f 6/6/6 14/14/14 8/8/8
f 6/6/6 13/13/13 14/14/14
f 8/8/8 15/15/15 10/10/10
f 8/8/8 14/14/14 15/15/15
f 10/10/10 16/16/16 12/12/12
f 10/10/10 15/15/15 16/16/16
f 4/4/4 17/17/17 13/13/13
f 18/18/18 17/17/17 4/4/4
f 18/18/18 19/19/19 17/17/17
f 17/17/17 19/19/19 20/20/20
f 17/17/17 20/20/20 21/21/21
f 13/13/13 17/17/17 21/21/21
f 14/14/14 13/13/13 22/22/22
f 13/13/13 21/21/21 22/22/22
f 15/15/15 14/14/14 23/23/23
f 14/14/14 22/22/22 23/23/23
f 12/12/12 16/16/16 24/24/24
f 12/12/12 24/24/24 25/25/25
f 16/16/16 15/15/15 26/26/26
f 15/15/15 23/23/23 26/26/26
f 24/24/24 16/16/16 27/27/27
f 16/16/16 26/26/26 27/27/27
f 21/21/21 28/28/28 22/22/22
f 22/22/22 29/29/29 23/23/23
f 22/22/22 28/28/28 29/29/29
f 23/23/23 30/30/30 26/26/26
f 23/23/23 29/29/29 30/30/30
f 26/26/26 31/31/31 27/27/27
f 26/26/26 30/30/30 31/31/31
f 21/21/21 32/32/32 28/28/28
f 33/33/33 32/32/32 21/21/21
f 33/33/33 34/34/34 32/32/32
f 32/32/32 34/34/34 35/35/35
f 28/28/28 32/32/32 36/36/36
f 32/32/32 35/35/35 36/36/36
f 29/29/29 28/28/28 37/37/37
f 28/28/28 36/36/36 37/37/37
f 30/30/30 29/29/29 38/38/38
f 29/29/29 37/37/37 38/38/38
f 35/35/35 39/39/39 36/36/36
f 35/35/35 40/40/40 39/39/39
f 39/39/39 40/40/40 41/41/41
f 36/36/36 42/42/42 37/37/37
f 36/36/36 39/39/39 42/42/42
f 39/39/39 41/41/41 43/43/43
f 42/42/42 39/39/39 43/43/43
f 37/37/37 42/42/42 44/44/44
f 37/37/37 44/44/44 38/38/38
f 30/30/30 38/38/38 45/45/45
f 31/31/31 30/30/30 45/45/45
f 41/41/41 46/46/46 43/43/43
f 41/41/41 47/47/47 46/46/46
f 46/46/46 47/47/47 48/48/48
f 42/42/42 43/43/43 49/49/49
f 44/44/44 42/42/42 49/49/49
f 38/38/38 44/44/44 50/50/50
f 38/38/38 50/50/50 45/45/45
f 43/43/43 46/46/46 51/51/51
f 43/43/43 51/51/51 49/49/49
f 46/46/46 48/48/48 52/52/52
f 51/51/51 46/46/46 52/52/52
f 44/44/44 49/49/49 53/53/53
f 50/50/50 44/44/44 53/53/53
f 49/49/49 51/51/51 54/54/54
f 49/49/49 54/54/54 53/53/53
f 48/48/48 55/55/55 52/52/52
f 48/48/48 56/56/56 55/55/55
f 55/55/55 56/56/56 57/57/57
f 51/51/51 52/52/52 58/58/58
f 54/54/54 51/51/51 58/58/58
f 52/52/52 55/55/55 59/59/59
f 52/52/52 59/59/59 58/58/58
f 55/55/55 57/57/57 60/60/60
f 59/59/59 55/55/55 60/60/60
f 57/57/57 61/61/61 60/60/60
f 57/57/57 62/62/62 61/61/61
f 61/61/61 62/62/62 63/63/63
f 50/50/50 53/53/53 64/64/64
f 53/53/53 54/54/54 65/65/65
f 53/53/53 65/65/65 64/64/64
f 54/54/54 58/58/58 66/66/66
f 65/65/65 54/54/54 66/66/66
f 58/58/58 59/59/59 67/67/67
f 58/58/58 67/67/67 66/66/66
f 59/59/59 60/60/60 68/68/68
f 67/67/67 59/59/59 68/68/68
f 60/60/60 61/61/61 69/69/69
f 60/60/60 69/69/69 68/68/68
f 61/61/61 63/63/63 70/70/70
f 69/69/69 61/61/61 70/70/70
f 71/71/71 50/50/50 64/64/64
f 45/45/45 50/50/50 71/71/71
f 63/63/63 72/72/72 70/70/70
f 63/63/63 73/73/73 72/72/72
f 72/72/72 73/73/73 74/74/74
f 45/45/45 71/71/71 75/75/75
f 31/31/31 45/45/45 75/75/75
f 75/75/75 71/71/71 76/76/76
f 75/75/75 76/76/76 77/77/77
f 71/71/71 64/64/64 78/78/78
f 76/76/76 71/71/71 78/78/78
f 64/64/64 79/79/79 78/78/78
f 64/64/64 65/65/65 79/79/79
f 79/79/79 65/65/65 80/80/80
f 65/65/65 66/66/66 80/80/80
f 66/66/66 81/81/81 80/80/80
f 66/66/66 67/67/67 81/81/81
f 81/81/81 67/67/67 82/82/82
f 67/67/67 68/68/68 82/82/82
f 68/68/68 83/83/83 82/82/82
f 68/68/68 69/69/69 83/83/83
f 83/83/83 69/69/69 84/84/84
f 69/69/69 70/70/70 84/84/84
f 70/70/70 85/85/85 84/84/84
f 70/70/70 72/72/72 85/85/85
f 85/85/85 72/72/72 86/86/86
f 72/72/72 74/74/74 86/86/86
f 74/74/74 87/87/87 86/86/86
f 74/74/74 88/88/88 87/87/87
f 87/87/87 88/88/88 89/89/89
f 81/81/81 82/82/82 90/90/90
f 82/82/82 83/83/83 91/91/91
f 82/82/82 91/91/91 90/90/90
f 83/83/83 84/84/84 92/92/92
f 91/91/91 83/83/83 92/92/92
f 84/84/84 85/85/85 93/93/93
f 84/84/84 93/93/93 92/92/92
f 85/85/85 86/86/86 94/94/94
f 93/93/93 85/85/85 94/94/94
f 86/86/86 87/87/87 95/95/95
f 86/86/86 95/95/95 94/94/94
f 87/87/87 89/89/89 96/96/96
f 95/95/95 87/87/87 96/96/96
f 97/97/97 81/81/81 90/90/90
f 80/80/80 81/81/81 97/97/97
f 89/89/89 98/98/98 96/96/96
f 89/89/89 99/99/99 98/98/98
f 98/98/98 99/99/99 100/100/100
f 80/80/80 97/97/97 101/101/101
f 79/79/79 80/80/80 101/101/101
f 102/102/102 79/79/79 101/101/101
f 78/78/78 79/79/79 102/102/102
f 78/78/78 102/102/102 103/103/103
f 76/76/76 78/78/78 103/103/103
f 104/104/104 76/76/76 103/103/103
f 77/77/77 76/76/76 104/104/104
f 96/96/96 98/98/98 105/105/105
f 98/98/98 100/100/100 106/106/106
f 105/105/105 98/98/98 106/106/106
f 96/96/96 105/105/105 107/107/107
f 95/95/95 96/96/96 107/107/107
f 100/100/100 108/108/108 106/106/106
f 100/100/100 109/109/109 108/108/108
f 108/108/108 109/109/109 110/110/110
f 111/111/111 95/95/95 107/107/107
f 94/94/94 95/95/95 111/111/111
f 94/94/94 111/111/111 112/112/112
f 93/93/93 94/94/94 112/112/112
f 113/113/113 93/93/93 112/112/112
f 92/92/92 93/93/93 113/113/113
f 92/92/92 113/113/113 114/114/114
f 91/91/91 92/92/92 114/114/114
f 115/115/115 91/91/91 114/114/114
f 90/90/90 91/91/91 115/115/115
f 90/90/90 115/115/115 116/116/116
f 97/97/97 90/90/90 116/116/116
f 117/117/117 97/97/97 116/116/116
f 101/101/101 97/97/97 117/117/117
f 101/101/101 117/117/117 118/118/118
f 102/102/102 101/101/101 118/118/118
f 118/118/118 117/117/117 119/119/119
f 118/118/118 119/119/119 120/120/120
f 119/119/119 117/117/117 121/121/121
f 117/117/117 116/116/116 122/122/122
f 119/119/119 121/121/121 123/123/123
f 116/116/116 115/115/115 124/124/124
f 116/116/116 124/124/124 122/122/122
f 115/115/115 114/114/114 125/125/125
f 124/124/124 115/115/115 125/125/125
f 122/122/122 124/124/124 126/126/126
f 122/122/122 126/126/126 123/123/123
f 120/120/120 119/119/119 127/127/127
f 127/127/127 119/119/119 123/123/123
f 123/123/123 126/126/126 128/128/128
f 128/128/128 126/126/126 129/129/129
f 114/114/114 130/130/130 125/125/125
f 114/114/114 113/113/113 130/130/130
f 124/124/124 125/125/125 131/131/131
f 132/132/132 124/124/124 131/131/131
f 132/132/132 131/131/131 129/129/129
f 125/125/125 133/133/133 131/131/131
f 125/125/125 130/130/130 133/133/133
f 131/131/131 134/134/134 129/129/129
f 131/131/131 133/133/133 134/134/134
f 130/130/130 113/113/113 135/135/135
f 113/113/113 112/112/112 135/135/135
f 133/133/133 130/130/130 136/136/136
f 130/130/130 135/135/135 136/136/136
f 112/112/112 137/137/137 135/135/135
f 112/112/112 111/111/111 137/137/137
f 133/133/133 136/136/136 138/138/138
f 139/139/139 133/133/133 138/138/138
f 135/135/135 140/140/140 136/136/136
f 135/135/135 137/137/137 140/140/140
f 137/137/137 111/111/111 141/141/141
f 111/111/111 107/107/107 141/141/141
f 136/136/136 142/142/142 138/138/138
f 136/136/136 140/140/140 142/142/142
f 140/140/140 137/137/137 143/143/143
f 137/137/137 141/141/141 143/143/143
f 107/107/107 144/144/144 141/141/141
f 107/107/107 105/105/105 144/144/144
f 142/142/142 140/140/140 145/145/145
f 140/140/140 143/143/143 145/145/145
f 141/141/141 146/146/146 143/143/143
f 141/141/141 144/144/144 146/146/146
f 144/144/144 105/105/105 147/147/147
f 105/105/105 106/106/106 147/147/147
f 143/143/143 148/148/148 145/145/145
f 143/143/143 146/146/146 148/148/148
f 146/146/146 144/144/144 149/149/149
f 144/144/144 147/147/147 149/149/149
f 106/106/106 150/150/150 147/147/147
f 106/106/106 108/108/108 150/150/150
f 148/148/148 146/146/146 151/151/151
f 146/146/146 149/149/149 151/151/151
f 147/147/147 152/152/152 149/149/149
f 147/147/147 150/150/150 152/152/152
f 150/150/150 108/108/108 153/153/153
f 108/108/108 110/110/110 153/153/153
f 110/110/110 154/154/154 153/153/153
f 110/110/110 155/155/155 154/154/154
f 153/153/153 154/154/154 156/156/156
f 150/150/150 153/153/153 157/157/157
f 153/153/153 156/156/156 157/157/157
f 152/152/152 150/150/150 157/157/157
f 157/157/157 156/156/156 158/158/158
f 157/157/157 158/158/158 159/159/159
f 152/152/152 157/157/157 159/159/159
f 159/159/159 158/158/158 160/160/160
f 149/149/149 152/152/152 161/161/161
f 161/161/161 152/152/152 159/159/159
f 149/149/149 161/161/161 151/151/151
f 159/159/159 160/160/160 162/162/162
f 161/161/161 159/159/159 162/162/162
f 162/162/162 160/160/160 163/163/163
f 151/151/151 161/161/161 164/164/164
f 164/164/164 161/161/161 162/162/162
f 162/162/162 163/163/163 165/165/165
f 164/164/164 162/162/162 165/165/165
f 165/165/165 163/163/163 166/166/166
f 151/151/151 164/164/164 167/167/167
f 148/148/148 151/151/151 167/167/167
f 165/165/165 166/166/166 168/168/168
f 168/168/168 166/166/166 169/169/169
f 170/170/170 164/164/164 165/165/165
f 167/167/167 164/164/164 170/170/170
f 170/170/170 165/165/165 168/168/168
f 171/171/171 170/170/170 168/168/168
f 171/171/171 168/168/168 172/172/172
f 168/168/168 169/169/169 172/172/172
f 172/172/172 169/169/169 173/173/173
f 174/174/174 148/148/148 167/167/167
f 145/145/145 148/148/148 174/174/174
f 167/167/167 170/170/170 175/175/175
f 174/174/174 167/167/167 175/175/175
f 175/175/175 170/170/170 176/176/176
f 175/175/175 176/176/176 177/177/177
f 172/172/172 173/173/173 178/178/178
f 178/178/178 173/173/173 179/179/179
f 180/180/180 176/176/176 172/172/172
f 177/177/177 176/176/176 180/180/180
f 180/180/180 172/172/172 178/178/178
f 145/145/145 174/174/174 181/181/181
f 142/142/142 145/145/145 181/181/181
f 181/181/181 174/174/174 182/182/182
f 182/182/182 174/174/174 183/183/183
f 182/182/182 183/183/183 177/177/177
f 181/181/181 182/182/182 184/184/184
f 178/178/178 179/179/179 185/185/185
f 185/185/185 179/179/179 186/186/186
f 187/187/187 180/180/180 178/178/178
f 187/187/187 178/178/178 185/185/185
f 188/188/188 182/182/182 177/177/177
f 177/177/177 180/180/180 189/189/189
f 188/188/188 177/177/177 189/189/189
f 189/189/189 180/180/180 187/187/187
f 185/185/185 186/186/186 190/190/190
f 190/190/190 186/186/186 191/191/191
f 192/192/192 188/188/188 189/189/189
f 193/193/193 188/188/188 192/192/192
f 194/194/194 187/187/187 185/185/185
f 194/194/194 185/185/185 190/190/190
f 189/189/189 187/187/187 195/195/195
f 192/192/192 189/189/189 195/195/195
f 195/195/195 187/187/187 194/194/194
f 195/195/195 194/194/194 196/196/196
f 190/190/190 191/191/191 197/197/197
f 197/197/197 191/191/191 198/198/198
f 199/199/199 194/194/194 190/190/190
f 196/196/196 194/194/194 199/199/199
f 199/199/199 190/190/190 197/197/197
f 197/197/197 198/198/198 200/200/200
f 200/200/200 198/198/198 201/201/201
f 202/202/202 199/199/199 197/197/197
f 202/202/202 197/197/197 200/200/200
f 200/200/200 201/201/201 203/203/203
f 203/203/203 201/201/201 204/204/204
f 196/196/196 199/199/199 205/205/205
f 205/205/205 199/199/199 202/202/202
f 206/206/206 202/202/202 200/200/200
f 206/206/206 200/200/200 203/203/203
f 203/203/203 204/204/204 207/207/207
f 207/207/207 204/204/204 208/208/208
f 207/207/207 208/208/208 209/209/209
f 210/210/210 206/206/206 203/203/203
f 210/210/210 203/203/203 207/207/207
f 211/211/211 206/206/206 210/210/210
f 212/212/212 210/210/210 207/207/207
f 212/212/212 207/207/207 209/209/209
f 205/205/205 202/202/202 213/213/213
f 211/211/211 210/210/210 214/214/214
f 214/214/214 210/210/210 212/212/212
f 215/215/215 212/212/212 209/209/209
f 215/215/215 209/209/209 216/216/216
f 209/209/209 217/217/217 216/216/216
f 209/209/209 218/218/218 217/217/217
f 214/214/214 212/212/212 219/219/219
f 219/219/219 212/212/212 220/220/220
f 221/221/221 205/205/205 213/213/213
f 222/222/222 213/213/213 211/211/211
f 222/222/222 221/221/221 213/213/213
f 221/221/221 223/223/223 205/205/205
f 223/223/223 196/196/196 205/205/205
f 223/223/223 224/224/224 196/196/196
f 225/225/225 211/211/211 214/214/214
f 225/225/225 222/222/222 211/211/211
f 226/226/226 214/214/214 219/219/219
f 226/226/226 225/225/225 214/214/214
f 219/219/219 220/220/220 227/227/227
f 228/228/228 226/226/226 219/219/219
f 228/228/228 219/219/219 227/227/227
f 227/227/227 220/220/220 229/229/229
f 229/229/229 220/220/220 216/216/216
f 230/230/230 223/223/223 221/221/221
f 231/231/231 224/224/224 223/223/223
f 231/231/231 223/223/223 230/230/230
f 232/232/232 221/221/221 222/222/222
f 230/230/230 221/221/221 232/232/232
f 233/233/233 222/222/222 225/225/225
f 232/232/232 222/222/222 233/233/233
f 233/233/233 225/225/225 234/234/234
f 235/235/235 232/232/232 233/233/233
f 234/234/234 225/225/225 226/226/226
f 236/236/236 230/230/230 232/232/232
f 235/235/235 236/236/236 232/232/232
f 237/237/237 224/224/224 231/231/231
f 237/237/237 192/192/192 224/224/224
f 238/238/238 231/231/231 230/230/230
f 236/236/236 238/238/238 230/230/230
f 234/234/234 226/226/226 239/239/239
f 239/239/239 226/226/226 228/228/228
f 193/193/193 192/192/192 237/237/237
f 240/240/240 237/237/237 231/231/231
f 238/238/238 240/240/240 231/231/231
f 241/241/241 193/193/193 237/237/237
f 240/240/240 241/241/241 237/237/237
f 242/242/242 238/238/238 236/236/236
f 243/243/243 240/240/240 238/238/238
f 243/243/243 238/238/238 242/242/242
f 244/244/244 241/241/241 240/240/240
f 244/244/244 240/240/240 243/243/243
f 242/242/242 236/236/236 245/245/245
f 245/245/245 236/236/236 235/235/235
f 241/241/241 246/246/246 193/193/193
f 246/246/246 184/184/184 193/193/193
f 247/247/247 241/241/241 244/244/244
f 247/247/247 246/246/246 241/241/241
f 246/246/246 248/248/248 184/184/184
f 249/249/249 248/248/248 246/246/246
f 249/249/249 246/246/246 247/247/247
f 138/138/138 248/248/248 249/249/249
f 138/138/138 142/142/142 248/248/248
f 139/139/139 138/138/138 249/249/249
f 250/250/250 139/139/139 249/249/249
f 250/250/250 249/249/249 247/247/247
f 129/129/129 139/139/139 250/250/250
f 251/251/251 247/247/247 244/244/244
f 251/251/251 250/250/250 247/247/247
f 129/129/129 250/250/250 252/252/252
f 252/252/252 250/250/250 251/251/251
f 128/128/128 129/129/129 252/252/252
f 253/253/253 251/251/251 244/244/244
f 253/253/253 244/244/244 243/243/243
f 252/252/252 251/251/251 254/254/254
f 254/254/254 251/251/251 253/253/253
f 255/255/255 128/128/128 252/252/252
f 255/255/255 252/252/252 254/254/254
f 256/256/256 253/253/253 243/243/243
f 256/256/256 243/243/243 242/242/242
f 254/254/254 253/253/253 257/257/257
f 257/257/257 253/253/253 256/256/256
f 258/258/258 256/256/256 242/242/242
f 258/258/258 242/242/242 245/245/245
f 259/259/259 128/128/128 255/255/255
f 123/123/123 128/128/128 259/259/259
f 127/127/127 123/123/123 259/259/259
f 259/259/259 255/255/255 260/260/260
f 261/261/261 255/255/255 254/254/254
f 261/261/261 254/254/254 257/257/257
f 260/260/260 255/255/255 261/261/261
f 257/257/257 256/256/256 262/262/262
f 262/262/262 256/256/256 258/258/258
f 263/263/263 261/261/261 257/257/257
f 263/263/263 257/257/257 262/262/262
f 260/260/260 261/261/261 264/264/264
f 264/264/264 261/261/261 263/263/263
f 265/265/265 258/258/258 245/245/245
f 262/262/262 258/258/258 266/266/266
f 266/266/266 258/258/258 265/265/265
f 267/267/267 262/262/262 266/266/266
f 267/267/267 263/263/263 262/262/262
f 266/266/266 265/265/265 268/268/268
f 265/265/265 245/245/245 269/269/269
f 245/245/245 235/235/235 269/269/269
f 264/264/264 263/263/263 270/270/270
f 270/270/270 263/263/263 267/267/267
f 268/268/268 265/265/265 271/271/271
f 271/271/271 265/265/265 269/269/269
f 269/269/269 235/235/235 272/272/272
f 269/269/269 272/272/272 273/273/273
f 271/271/271 269/269/269 273/273/273
f 273/273/273 272/272/272 274/274/274
f 274/274/274 272/272/272 234/234/234
f 274/274/274 234/234/234 239/239/239
f 275/275/275 271/271/271 273/273/273
f 273/273/273 274/274/274 276/276/276
f 275/275/275 273/273/273 276/276/276
f 277/277/277 274/274/274 239/239/239
f 276/276/276 274/274/274 277/277/277
f 268/268/268 271/271/271 278/278/278
f 278/278/278 271/271/271 275/275/275
f 277/277/277 239/239/239 279/279/279
f 239/239/239 228/228/228 279/279/279
f 279/279/279 228/228/228 280/280/280
f 280/280/280 228/228/228 227/227/227
f 280/280/280 227/227/227 281/281/281
f 227/227/227 229/229/229 281/281/281
f 281/281/281 229/229/229 282/282/282
f 281/281/281 282/282/282 283/283/283
f 282/282/282 229/229/229 284/284/284
f 229/229/229 216/216/216 284/284/284
f 216/216/216 285/285/285 284/284/284
f 216/216/216 286/286/286 285/285/285
f 284/284/284 285/285/285 287/287/287
f 284/284/284 287/287/287 288/288/288
f 282/282/282 284/284/284 288/288/288
f 288/288/288 287/287/287 289/289/289
f 288/288/288 289/289/289 290/290/290
f 291/291/291 288/288/288 290/290/290
f 282/282/282 288/288/288 291/291/291
f 283/283/283 282/282/282 291/291/291
f 283/283/283 291/291/291 292/292/292
f 293/293/293 283/283/283 292/292/292
f 294/294/294 283/283/283 293/293/293
f 295/295/295 294/294/294 293/293/293
f 295/295/295 293/293/293 296/296/296
f 297/297/297 295/295/295 296/296/296
f 298/298/298 294/294/294 295/295/295
f 298/298/298 280/280/280 294/294/294
f 279/279/279 280/280/280 298/298/298
f 299/299/299 279/279/279 298/298/298
f 299/299/299 277/277/277 279/279/279
f 300/300/300 295/295/295 297/297/297
f 300/300/300 301/301/301 295/295/295
f 300/300/300 299/299/299 301/301/301
f 302/302/302 299/299/299 300/300/300
f 302/302/302 300/300/300 303/303/303
f 303/303/303 300/300/300 297/297/297
f 303/303/303 297/297/297 304/304/304
f 305/305/305 303/303/303 304/304/304
f 306/306/306 277/277/277 299/299/299
f 276/276/276 277/277/277 306/306/306
f 306/306/306 299/299/299 307/307/307
f 308/308/308 303/303/303 305/305/305
f 308/308/308 307/307/307 303/303/303
f 309/309/309 276/276/276 306/306/306
f 309/309/309 275/275/275 276/276/276
f 310/310/310 306/306/306 307/307/307
f 308/308/308 310/310/310 307/307/307
f 310/310/310 309/309/309 306/306/306
f 311/311/311 308/308/308 305/305/305
f 311/311/311 305/305/305 312/312/312
f 313/313/313 311/311/311 312/312/312
f 314/314/314 275/275/275 309/309/309
f 278/278/278 275/275/275 314/314/314
f 315/315/315 309/309/309 310/310/310
f 314/314/314 309/309/309 315/315/315
f 316/316/316 310/310/310 308/308/308
f 316/316/316 308/308/308 311/311/311
f 315/315/315 310/310/310 316/316/316
f 317/317/317 311/311/311 313/313/313
f 317/317/317 316/316/316 311/311/311
f 318/318/318 315/315/315 316/316/316
f 317/317/317 318/318/318 316/316/316
f 319/319/319 314/314/314 315/315/315
f 318/318/318 319/319/319 315/315/315
f 319/319/319 320/320/320 314/314/314
f 320/320/320 278/278/278 314/314/314
f 321/321/321 319/319/319 318/318/318
f 322/322/322 317/317/317 313/313/313
f 322/322/322 313/313/313 323/323/323
f 324/324/324 322/322/322 323/323/323
f 325/325/325 322/322/322 324/324/324
f 326/326/326 318/318/318 317/317/317
f 326/326/326 317/317/317 322/322/322
f 321/321/321 318/318/318 326/326/326
f 327/327/327 321/321/321 326/326/326
f 320/320/320 328/328/328 278/278/278
f 328/328/328 268/268/268 278/278/278
f 328/328/328 329/329/329 268/268/268
f 330/330/330 328/328/328 320/320/320
f 331/331/331 329/329/329 328/328/328
f 331/331/331 328/328/328 330/330/330
f 330/330/330 320/320/320 332/332/332
f 333/333/333 329/329/329 331/331/331
f 333/333/333 267/267/267 329/329/329
f 270/270/270 267/267/267 333/333/333
f 334/334/334 332/332/332 321/321/321
f 327/327/327 334/334/334 321/321/321
f 335/335/335 330/330/330 332/332/332
f 334/334/334 335/335/335 332/332/332
f 336/336/336 331/331/331 330/330/330
f 335/335/335 336/336/336 330/330/330
f 337/337/337 333/333/333 331/331/331
f 336/336/336 337/337/337 331/331/331
f 338/338/338 270/270/270 333/333/333
f 337/337/337 338/338/338 333/333/333
f 338/338/338 339/339/339 270/270/270
f 339/339/339 264/264/264 270/270/270
f 339/339/339 340/340/340 264/264/264
f 340/340/340 260/260/260 264/264/264
f 340/340/340 341/341/341 260/260/260
f 342/342/342 334/334/334 327/327/327
f 343/343/343 334/334/334 342/342/342
f 343/343/343 335/335/335 334/334/334
f 342/342/342 327/327/327 344/344/344
f 345/345/345 335/335/335 343/343/343
f 345/345/345 336/336/336 335/335/335
f 346/346/346 345/345/345 343/343/343
f 344/344/344 327/327/327 347/347/347
f 344/344/344 347/347/347 348/348/348
f 349/349/349 336/336/336 345/345/345
f 349/349/349 337/337/337 336/336/336
f 346/346/346 350/350/350 345/345/345
f 350/350/350 349/349/349 345/345/345
f 351/351/351 337/337/337 349/349/349
f 351/351/351 338/338/338 337/337/337
f 350/350/350 352/352/352 349/349/349
f 352/352/352 351/351/351 349/349/349
f 353/353/353 338/338/338 351/351/351
f 353/353/353 339/339/339 338/338/338
f 352/352/352 354/354/354 351/351/351
f 354/354/354 353/353/353 351/351/351
f 355/355/355 352/352/352 350/350/350
f 356/356/356 339/339/339 353/353/353
f 356/356/356 340/340/340 339/339/339
f 357/357/357 350/350/350 346/346/346
f 355/355/355 350/350/350 357/357/357
f 354/354/354 358/358/358 353/353/353
f 358/358/358 356/356/356 353/353/353
f 359/359/359 340/340/340 356/356/356
f 359/359/359 341/341/341 340/340/340
f 358/358/358 360/360/360 356/356/356
f 360/360/360 359/359/359 356/356/356
f 361/361/361 341/341/341 359/359/359
f 361/361/361 127/127/127 341/341/341
f 360/360/360 362/362/362 359/359/359
f 362/362/362 361/361/361 359/359/359
f 120/120/120 127/127/127 361/361/361
f 363/363/363 120/120/120 361/361/361
f 363/363/363 364/364/364 120/120/120
f 364/364/364 365/365/365 120/120/120
f 364/364/364 102/102/102 365/365/365
f 103/103/103 102/102/102 364/364/364
f 362/362/362 366/366/366 361/361/361
f 103/103/103 364/364/364 367/367/367
f 367/367/367 364/364/364 366/366/366
f 104/104/104 103/103/103 367/367/367
f 368/368/368 366/366/366 362/362/362
f 367/367/367 366/366/366 368/368/368
f 369/369/369 362/362/362 360/360/360
f 368/368/368 362/362/362 369/369/369
f 370/370/370 104/104/104 367/367/367
f 370/370/370 367/367/367 368/368/368
f 371/371/371 104/104/104 370/370/370
f 371/371/371 370/370/370 372/372/372
f 372/372/372 370/370/370 373/373/373
f 372/372/372 373/373/373 374/374/374
f 375/375/375 370/370/370 368/368/368
f 375/375/375 368/368/368 369/369/369
f 369/369/369 360/360/360 376/376/376
f 376/376/376 360/360/360 358/358/358
f 377/377/377 375/375/375 369/369/369
f 374/374/374 375/375/375 377/377/377
f 377/377/377 369/369/369 376/376/376
f 376/376/376 358/358/358 378/378/378
f 378/378/378 358/358/358 354/354/354
f 379/379/379 377/377/377 376/376/376
f 379/379/379 376/376/376 378/378/378
f 378/378/378 354/354/354 380/380/380
f 381/381/381 379/379/379 378/378/378
f 381/381/381 378/378/378 380/380/380
f 382/382/382 379/379/379 381/381/381
f 383/383/383 381/381/381 380/380/380
f 383/383/383 380/380/380 355/355/355
f 374/374/374 377/377/377 384/384/384
f 382/382/382 381/381/381 385/385/385
f 385/385/385 381/381/381 383/383/383
f 386/386/386 383/383/383 355/355/355
f 385/385/385 383/383/383 387/387/387
f 387/387/387 383/383/383 386/386/386
f 388/388/388 385/385/385 387/387/387
f 388/388/388 389/389/389 385/385/385
f 389/389/389 382/382/382 385/385/385
f 387/387/387 386/386/386 390/390/390
f 386/386/386 355/355/355 357/357/357
f 391/391/391 386/386/386 357/357/357
f 390/390/390 386/386/386 391/391/391
f 391/391/391 357/357/357 392/392/392
f 357/357/357 346/346/346 392/392/392
f 392/392/392 346/346/346 393/393/393
f 392/392/392 393/393/393 394/394/394
f 394/394/394 393/393/393 395/395/395
f 394/394/394 395/395/395 396/396/396
f 397/397/397 394/394/394 396/396/396
f 398/398/398 397/397/397 396/396/396
f 398/398/398 396/396/396 399/399/399
f 397/397/397 400/400/400 394/394/394
f 401/401/401 391/391/391 400/400/400
f 390/390/390 391/391/391 401/401/401
f 402/402/402 400/400/400 397/397/397
f 401/401/401 400/400/400 402/402/402
f 402/402/402 397/397/397 403/403/403
f 404/404/404 390/390/390 401/401/401
f 405/405/405 401/401/401 402/402/402
f 405/405/405 404/404/404 401/401/401
f 406/406/406 402/402/402 403/403/403
f 406/406/406 405/405/405 402/402/402
f 404/404/404 407/407/407 390/390/390
f 408/408/408 406/406/406 403/403/403
f 408/408/408 403/403/403 409/409/409
f 410/410/410 404/404/404 405/405/405
f 411/411/411 407/407/407 404/404/404
f 411/411/411 404/404/404 410/410/410
f 412/412/412 405/405/405 406/406/406
f 410/410/410 405/405/405 412/412/412
f 413/413/413 406/406/406 408/408/408
f 412/412/412 406/406/406 413/413/413
f 414/414/414 407/407/407 411/411/411
f 414/414/414 415/415/415 407/407/407
f 416/416/416 410/410/410 412/412/412
f 417/417/417 411/411/411 410/410/410
f 416/416/416 417/417/417 410/410/410
f 418/418/418 412/412/412 413/413/413
f 418/418/418 416/416/416 412/412/412
f 419/419/419 414/414/414 411/411/411
f 417/417/417 419/419/419 411/411/411
f 419/419/419 420/420/420 414/414/414
f 421/421/421 419/419/419 417/417/417
f 422/422/422 417/417/417 416/416/416
f 421/421/421 417/417/417 422/422/422
f 423/423/423 416/416/416 418/418/418
f 422/422/422 416/416/416 423/423/423
f 420/420/420 424/424/424 414/414/414
f 425/425/425 418/418/418 413/413/413
f 423/423/423 418/418/418 426/426/426
f 426/426/426 418/418/418 425/425/425
f 425/425/425 413/413/413 427/427/427
f 413/413/413 408/408/408 427/427/427
f 425/425/425 427/427/427 428/428/428
f 428/428/428 427/427/427 429/429/429
f 427/427/427 430/430/430 429/429/429
f 427/427/427 408/408/408 430/430/430
f 408/408/408 409/409/409 430/430/430
f 430/430/430 409/409/409 431/431/431
f 409/409/409 432/432/432 431/431/431
f 409/409/409 433/433/433 432/432/432
f 426/426/426 425/425/425 434/434/434
f 435/435/435 423/423/423 426/426/426
f 436/436/436 435/435/435 426/426/426
f 436/436/436 426/426/426 434/434/434
f 436/436/436 434/434/434 437/437/437
f 437/437/437 434/434/434 438/438/438
f 435/435/435 439/439/439 423/423/423
f 439/439/439 422/422/422 423/423/423
f 439/439/439 440/440/440 422/422/422
f 440/440/440 421/421/421 422/422/422
f 440/440/440 441/441/441 421/421/421
f 441/441/441 442/442/442 421/421/421
f 441/441/441 443/443/443 442/442/442
f 445/445/445 444/444/444 409/409/409
f 445/445/445 397/397/397 444/444/444
f 447/447/447 446/446/446 438/438/438
f 447/447/447 425/425/425 446/446/446
f 449/449/449 448/448/448 421/421/421
f 449/449/449 420/420/420 448/448/448
f 451/451/451 420/420/420 450/450/450
f 451/451/451 452/452/452 420/420/420
f 420/420/420 452/452/452 424/424/424
f 453/453/453 452/452/452 451/451/451
f 454/454/454 453/453/453 451/451/451
f 454/454/454 455/455/455 453/453/453
f 452/452/452 456/456/456 424/424/424
f 456/456/456 389/389/389 424/424/424
f 455/455/455 457/457/457 453/453/453
f 455/455/455 458/458/458 457/457/457
f 453/453/453 459/459/459 452/452/452
f 452/452/452 459/459/459 456/456/456
f 457/457/457 459/459/459 453/453/453
f 458/458/458 460/460/460 457/457/457
f 458/458/458 461/461/461 460/460/460
f 457/457/457 462/462/462 459/459/459
f 460/460/460 462/462/462 457/457/457
f 459/459/459 463/463/463 456/456/456
f 459/459/459 462/462/462 463/463/463
f 456/456/456 464/464/464 389/389/389
f 463/463/463 464/464/464 456/456/456
f 461/461/461 465/465/465 460/460/460
f 461/461/461 466/466/466 465/465/465
f 460/460/460 467/467/467 462/462/462
f 465/465/465 467/467/467 460/460/460
f 389/389/389 464/464/464 382/382/382
f 464/464/464 384/384/384 382/382/382
f 464/464/464 468/468/468 384/384/384
f 463/463/463 468/468/468 464/464/464
f 468/468/468 374/374/374 384/384/384
f 462/462/462 469/469/469 463/463/463
f 469/469/469 468/468/468 463/463/463
f 462/462/462 467/467/467 469/469/469
f 468/468/468 470/470/470 374/374/374
f 469/469/469 470/470/470 468/468/468
f 470/470/470 471/471/471 374/374/374
f 466/466/466 472/472/472 465/465/465
f 466/466/466 473/473/473 472/472/472
f 467/467/467 474/474/474 469/469/469
f 474/474/474 470/470/470 469/469/469
f 470/470/470 475/475/475 471/471/471
f 474/474/474 475/475/475 470/470/470
f 475/475/475 476/476/476 471/471/471
f 465/465/465 477/477/477 467/467/467
f 467/467/467 477/477/477 474/474/474
f 472/472/472 477/477/477 465/465/465
f 472/472/472 478/478/478 477/477/477
f 473/473/473 25/25/25 472/472/472
f 25/25/25 478/478/478 472/472/472
f 473/473/473 479/479/479 25/25/25
f 479/479/479 480/480/480 25/25/25
f 479/479/479 11/11/11 480/480/480
f 25/25/25 24/24/24 478/478/478
f 478/478/478 24/24/24 481/481/481
f 478/478/478 481/481/481 482/482/482
f 482/482/482 475/475/475 474/474/474
f 483/483/483 478/478/478 482/482/482
f 483/483/483 482/482/482 474/474/474
f 482/482/482 484/484/484 475/475/475
f 475/475/475 484/484/484 476/476/476
f 485/485/485 484/484/484 482/482/482
f 24/24/24 27/27/27 485/485/485
f 27/27/27 486/486/486 485/485/485
f 485/485/485 486/486/486 484/484/484
f 27/27/27 31/31/31 486/486/486
f 484/484/484 486/486/486 77/77/77
f 484/484/484 77/77/77 476/476/476
f 77/77/77 104/104/104 476/476/476
f 488/488/488 31/31/31 487/487/487
f 488/488/488 487/487/487 77/77/77
f 491/491/491 490/490/490 489/489/489
f 491/491/491 489/489/489 450/450/450
f 493/493/493 182/182/182 492/492/492
f 493/493/493 492/492/492 193/193/193
f 495/495/495 202/202/202 494/494/494
f 495/495/495 494/494/494 211/211/211
f 497/497/497 496/496/496 196/196/196
f 497/497/497 192/192/192 496/496/496
f 499/499/499 498/498/498 184/184/184
f 499/499/499 142/142/142 498/498/498
f 501/501/501 235/235/235 500/500/500
f 501/501/501 500/500/500 234/234/234
f 503/503/503 502/502/502 283/283/283
f 503/503/503 280/280/280 502/502/502
f 505/505/505 325/325/325 504/504/504
f 505/505/505 504/504/504 506/506/506
f 507/507/507 348/348/348 506/506/506
f 508/508/508 348/348/348 507/507/507
f 508/508/508 344/344/344 348/348/348
f 509/509/509 508/508/508 507/507/507
f 509/509/509 507/507/507 510/510/510
f 508/508/508 511/511/511 344/344/344
f 513/513/513 512/512/512 510/510/510
f 433/433/433 512/512/512 513/513/513
f 515/515/515 511/511/511 514/514/514
f 515/515/515 514/514/514 399/399/399
f 517/517/517 516/516/516 344/344/344
f 517/517/517 518/518/518 516/516/516
f 518/518/518 519/519/519 516/516/516
f 518/518/518 346/346/346 519/519/519
f 521/521/521 520/520/520 322/322/322
f 521/521/521 327/327/327 520/520/520
f 523/523/523 522/522/522 268/268/268
f 523/523/523 267/267/267 522/522/522
f 525/525/525 320/320/320 524/524/524
f 525/525/525 524/524/524 321/321/321
f 527/527/527 526/526/526 260/260/260
f 527/527/527 127/127/127 526/526/526
f 529/529/529 354/354/354 528/528/528
f 529/529/529 528/528/528 355/355/355
f 531/531/531 377/377/377 530/530/530
f 531/531/531 530/530/530 382/382/382
f 533/533/533 532/532/532 394/394/394
f 533/533/533 391/391/391 532/532/532
f 535/535/535 534/534/534 390/390/390
f 535/535/535 415/415/415 534/534/534
f 537/537/537 536/536/536 414/414/414
f 537/537/537 389/389/389 536/536/536
