g Md_UNQ_CuttingLine_03
v -3.5425 0.763727 0
v -3.5425 1.513727 0
v -3.4008 1.5033915 0
v -3.4008 0.75339156 0
v -3.5425 0.013726995 0
v -3.2591002 1.4864323 0
v -3.4008 0.00339155 0
v -3.2591002 0.7364324 0
v -3.1174 1.4689391 0
v -3.2591002 -0.01356764 0
v -3.1174 0.7189391 0
v -2.9757001 1.4474866 0
v -3.1174 -0.03106089 0
v -2.9757001 0.6974867 0
v -2.834 1.4213617 0
v -2.9757001 -0.052513316 0
v -2.834 0.67136174 0
v -2.6922998 1.3926237 0
v -2.834 -0.07863827 0
v -2.6922998 0.6426237 0
v -2.5506 1.3664987 -2.9802322E-08
v -2.6922998 -0.10737629 0
v -2.5506 0.61649877 0
v -2.4089 1.3351486 0
v -2.5506 -0.13350125 0
v -2.4089 0.58514863 0
v -2.2672 1.3048413 0
v -2.4089 -0.16485138 0
v -2.2672 0.55484134 0
v -2.1255002 1.2672756 0
v -2.2672 -0.19515868 0
v -2.1255002 0.51727563 0
v -1.9837999 1.2333128 0
v -2.1255002 -0.23272438 0
v -1.9837999 0.4833129 0
v -1.8420999 1.1915128 0
v -1.9837999 -0.2666871 0
v -1.8420999 0.44151288 0
v -1.7004001 1.1497128 0
v -1.8420999 -0.30848712 0
v -1.7004001 0.39971286 0
v -1.5587 1.1155236 0
v -1.7004001 -0.35028714 0
v -1.5587 0.36552364 0
v -1.4170002 1.0755365 0
v -1.5587 -0.38447636 0
v -1.4170002 0.32553655 0
v -1.2753 1.0449021 0
v -1.4170002 -0.42446345 0
v -1.2753 0.29490215 0
v -1.1336 1.0149124 0
v -1.2753 -0.45509785 0
v -1.1336 0.26491243 0
v -0.9919001 0.98992044 -2.9802322E-08
v -1.1336 -0.48508757 0
v -0.9919001 0.23992042 0
v -0.85020006 0.9578231 0
v -0.9919001 -0.51007956 0
v -0.85020006 0.20782308 0
v -0.70850015 0.9352334 0
v -0.85020006 -0.5421769 0
v -0.70850015 0.1852334 0
v -0.5668001 0.9081262 0
v -0.70850015 -0.5647666 0
v -0.5668001 0.15812616 0
v -0.42510003 0.88779575 0
v -0.5668001 -0.5918738 0
v -0.42510003 0.13779573 0
v -0.28340015 0.87198335 0
v -0.42510003 -0.61220425 0
v -0.28340015 0.12198286 0
v -0.14170007 0.8561705 -2.9802322E-08
v -0.28340015 -0.6280171 0
v -0.14170007 0.10617046 0
v -0 0.84487563 0
v -0.14170007 -0.6438295 0
v -0 0.09487562 0
v 0.14169987 0.83584005 -2.9802322E-08
v -0 -0.65512437 0
v 0.14169987 0.08584003 0
v 0.28339973 0.831322 0
v 0.14169987 -0.66415995 0
v 0.28339973 0.081322 0
v 0.42510003 0.8222864 0
v 0.28339973 -0.668678 0
v 0.42510003 0.07228641 0
v 0.5667999 0.8155096 -2.9802322E-08
v 0.42510003 -0.6777136 0
v 0.5667999 0.0655096 0
v 0.7084997 0.8087328 0
v 0.5667999 -0.6844904 0
v 0.7084997 0.058732793 0
v 0.85020006 0.79969674 -2.9802322E-08
v 0.7084997 -0.6912672 0
v 0.85020006 0.04969673 0
v 0.9918999 0.79066116 0
v 0.85020006 -0.70030326 0
v 0.9918999 0.04066114 0
v 1.1335998 0.7748483 0
v 0.9918999 -0.70933884 0
v 1.1335998 0.024848267 0
v 1.2753 0.7567771 0
v 1.1335998 -0.7251517 0
v 1.2753 0.006776617 0
v 1.4169998 0.74096423 0
v 1.2753 -0.74322337 0
v 1.4169998 -0.00903578 0
v 1.5586998 0.7296694 0
v 1.4169998 -0.75903577 0
v 1.5586998 -0.020330623 0
v 1.7004001 0.70933896 0
v 1.5586998 -0.7703306 0
v 1.7004001 -0.040661052 0
v 1.8420999 0.69578534 0
v 1.7004001 -0.79066104 0
v 1.8420999 -0.05421467 0
v 1.9837998 0.68495923 0
v 1.8420999 -0.80421466 0
v 1.9837998 -0.06504078 0
v 2.1254997 0.67205364 0
v 1.9837998 -0.81504077 0
v 2.1254997 -0.07794638 0
v 2.2672 0.6594375 0
v 2.1254997 -0.82794636 0
v 2.2672 -0.09056254 0
v 2.4088998 0.65415174 0
v 2.2672 -0.84056205 2.9802322E-08
v 2.4088998 -0.09584828 0
v 2.4088998 -0.84584826 0
v 2.5505996 0.64782506 0
v 2.5505996 -0.10217495 0
v 2.5505996 -0.85217494 0
v 2.6922998 -0.8503992 0
v 2.6922998 -0.10039921 0
v 2.6922998 0.6496008 0
v 2.8339996 -0.8458435 0
v 2.8339996 -0.09584351 0
v 2.8339996 0.6541565 0
v 2.9757 -0.8352739 0
v 2.9757 -0.08527394 0
v 2.9757 0.6647261 0
v 3.1174 -0.82164115 2.9802322E-08
v 3.1174 -0.07164116 0
v 3.1174 0.6783584 0
v 3.2591 -0.8003823 2.9802322E-08
v 3.2591 -0.05038233 0
v 3.2591 0.6996177 0
v 3.4007998 -0.7695553 0
v 3.4007998 -0.019555286 0
v 3.5425 -0.7500002 0
v 3.4007998 0.7304447 0
v 3.5425 -1.928324E-07 0
v 3.5425 0.7499998 0
vt 0 0.5
vt 0 1
vt 0.02 1
vt 0.02 0.5
vt 0 0
vt 0.04 1
vt 0.02 0
vt 0.04 0.5
vt 0.06 1
vt 0.04 0
vt 0.06 0.5
vt 0.08 1
vt 0.06 0
vt 0.08 0.5
vt 0.099999994 1
vt 0.08 0
vt 0.099999994 0.5
vt 0.12 1
vt 0.099999994 0
vt 0.12 0.5
vt 0.14 1
vt 0.12 0
vt 0.14 0.5
vt 0.16 1
vt 0.14 0
vt 0.16 0.5
vt 0.17999999 1
vt 0.16 0
vt 0.17999999 0.5
vt 0.19999999 1
vt 0.17999999 0
vt 0.19999999 0.5
vt 0.22 1
vt 0.19999999 0
vt 0.22 0.5
vt 0.24 1
vt 0.22 0
vt 0.24 0.5
vt 0.26 1
vt 0.24 0
vt 0.26 0.5
vt 0.28 1
vt 0.26 0
vt 0.28 0.5
vt 0.29999998 1
vt 0.28 0
vt 0.29999998 0.5
vt 0.32 1
vt 0.29999998 0
vt 0.32 0.5
vt 0.34 1
vt 0.32 0
vt 0.34 0.5
vt 0.35999998 1
vt 0.34 0
vt 0.35999998 0.5
vt 0.38 1
vt 0.35999998 0
vt 0.38 0.5
vt 0.39999998 1
vt 0.38 0
vt 0.39999998 0.5
vt 0.42 1
vt 0.39999998 0
vt 0.42 0.5
vt 0.44 1
vt 0.42 0
vt 0.44 0.5
vt 0.45999998 1
vt 0.44 0
vt 0.45999998 0.5
vt 0.48 1
vt 0.45999998 0
vt 0.48 0.5
vt 0.5 1
vt 0.48 0
vt 0.5 0.5
vt 0.52 1
vt 0.5 0
vt 0.52 0.5
vt 0.53999996 1
vt 0.52 0
vt 0.53999996 0.5
vt 0.56 1
vt 0.53999996 0
vt 0.56 0.5
vt 0.58 1
vt 0.56 0
vt 0.58 0.5
vt 0.59999996 1
vt 0.58 0
vt 0.59999996 0.5
vt 0.62 1
vt 0.59999996 0
vt 0.62 0.5
vt 0.64 1
vt 0.62 0
vt 0.64 0.5
vt 0.65999997 1
vt 0.64 0
vt 0.65999997 0.5
vt 0.68 1
vt 0.65999997 0
vt 0.68 0.5
vt 0.7 1
vt 0.68 0
vt 0.7 0.5
vt 0.71999997 1
vt 0.7 0
vt 0.71999997 0.5
vt 0.74 1
vt 0.71999997 0
vt 0.74 0.5
vt 0.76 1
vt 0.74 0
vt 0.76 0.5
vt 0.78 1
vt 0.76 0
vt 0.78 0.5
vt 0.79999995 1
vt 0.78 0
vt 0.79999995 0.5
vt 0.82 1
vt 0.79999995 0
vt 0.82 0.5
vt 0.84 1
vt 0.82 0
vt 0.84 0.5
vt 0.84 0
vt 0.85999995 1
vt 0.85999995 0.5
vt 0.85999995 0
vt 0.88 0
vt 0.88 0.5
vt 0.88 1
vt 0.9 0
vt 0.9 0.5
vt 0.9 1
vt 0.91999996 0
vt 0.91999996 0.5
vt 0.91999996 1
vt 0.94 0
vt 0.94 0.5
vt 0.94 1
vt 0.96 0
vt 0.96 0.5
vt 0.96 1
vt 0.97999996 0
vt 0.97999996 0.5
vt 1 0
vt 0.97999996 1
vt 1 0.5
vt 1 1
vn -0 0 1
vn -0 0 1
vn -0 0 1
vn -0 0 1
vn -0 0 1
vn -0 0 1
vn -0 0 1
vn -0 0 1
vn -0 0 1
vn -0 0 1
vn -0 0 1
vn -0 0 1
vn -0 0 1
vn -0 0 1
vn -0 0 1
vn -0 0 1
vn -0 0 1
vn -0 0 1
vn -0 0 1
vn -0 0 1
vn -0 0 1
vn -0 0 1
vn -0 0 1
vn -0 0 1
vn -0 0 1
vn -0 0 1
vn -0 0 1
vn -0 0 1
vn -0 0 1
vn -0 0 1
vn -0 0 1
vn -0 0 1
vn -0 0 1
vn -0 0 1
vn -0 0 1
vn -0 0 1
vn -0 0 1
vn -0 0 1
vn -0 0 1
vn -0 0 1
vn -0 0 1
vn -0 0 1
vn -0 0 1
vn -0 0 1
vn -0 0 1
vn -0 0 1
vn -0 0 1
vn -0 0 1
vn -0 0 1
vn -0 0 1
vn -0 0 1
vn -0 0 1
vn -0 0 1
vn -0 0 1
vn -0 0 1
vn -0 0 1
vn -0 0 1
vn -0 0 1
vn -0 0 1
vn -0 0 1
vn -0 0 1
vn -0 0 1
vn -0 0 1
vn -0 0 1
vn -0 0 1
vn -0 0 1
vn -0 0 1
vn -0 0 1
vn -0 0 1
vn -0 0 1
vn -0 0 1
vn -0 0 1
vn -0 0 1
vn -0 0 1
vn -0 0 1
vn -0 0 1
vn -0 0 1
vn -0 0 1
vn -0 0 1
vn -0 0 1
vn -0 0 1
vn -0 0 1
vn -0 0 1
vn -0 0 1
vn -0 0 1
vn -0 0 1
vn -0 0 1
vn -0 0 1
vn -0 0 1
vn -0 0 1
vn -0 0 1
vn -0 0 1
vn -0 0 1
vn -0 0 1
vn -0 0 1
vn -0 0 1
vn -0 0 1
vn -0 0 1
vn -0 0 1
vn -0 0 1
vn -0 0 1
vn -0 0 1
vn -0 0 1
vn -0 0 1
vn -0 0 1
vn -0 0 1
vn -0 0 1
vn -0 0 1
vn -0 0 1
vn -0 0 1
vn -0 0 1
vn -0 0 1
vn -0 0 1
vn -0 0 1
vn -0 0 1
vn -0 0 1
vn -0 0 1
vn -0 0 1
vn -0 0 1
vn -0 0 1
vn -0 0 1
vn -0 0 1
vn -0 0 1
vn -0 0 1
vn -0 0 1
vn -0 0 1
vn -0 0 1
vn -0 0 1
vn -0 0 1
vn -0 0 1
vn -0 0 1
vn -0 0 1
vn -0 0 1
vn -0 0 1
vn -0 0 1
vn -0 0 1
vn -0 0 1
vn -0 0 1
vn -0 0 1
vn -0 0 1
vn -0 0 1
vn -0 0 1
vn -0 0 1
vn -0 0 1
vn -0 0 1
vn -0 0 1
vn -0 0 1
vn -0 0 1
vn -0 0 1
vn -0 0 1
vn -0 0 1
vn -0 0 1
vn -0 0 1
g Md_UNQ_CuttingLine_03_0
f 3/3/3 2/2/2 1/1/1
f 3/3/3 1/1/1 4/4/4
f 4/4/4 1/1/1 5/5/5
f 6/6/6 3/3/3 4/4/4
f 4/4/4 5/5/5 7/7/7
f 6/6/6 4/4/4 8/8/8
f 8/8/8 4/4/4 7/7/7
f 9/9/9 6/6/6 8/8/8
f 8/8/8 7/7/7 10/10/10
f 9/9/9 8/8/8 11/11/11
f 11/11/11 8/8/8 10/10/10
f 12/12/12 9/9/9 11/11/11
f 11/11/11 10/10/10 13/13/13
f 12/12/12 11/11/11 14/14/14
f 14/14/14 11/11/11 13/13/13
f 15/15/15 12/12/12 14/14/14
f 14/14/14 13/13/13 16/16/16
f 15/15/15 14/14/14 17/17/17
f 17/17/17 14/14/14 16/16/16
f 18/18/18 15/15/15 17/17/17
f 17/17/17 16/16/16 19/19/19
f 18/18/18 17/17/17 20/20/20
f 20/20/20 17/17/17 19/19/19
f 21/21/21 18/18/18 20/20/20
f 20/20/20 19/19/19 22/22/22
f 21/21/21 20/20/20 23/23/23
f 23/23/23 20/20/20 22/22/22
f 24/24/24 21/21/21 23/23/23
f 23/23/23 22/22/22 25/25/25
f 24/24/24 23/23/23 26/26/26
f 26/26/26 23/23/23 25/25/25
f 27/27/27 24/24/24 26/26/26
f 26/26/26 25/25/25 28/28/28
f 27/27/27 26/26/26 29/29/29
f 29/29/29 26/26/26 28/28/28
f 30/30/30 27/27/27 29/29/29
f 29/29/29 28/28/28 31/31/31
f 30/30/30 29/29/29 32/32/32
f 32/32/32 29/29/29 31/31/31
f 33/33/33 30/30/30 32/32/32
f 32/32/32 31/31/31 34/34/34
f 33/33/33 32/32/32 35/35/35
f 35/35/35 32/32/32 34/34/34
f 36/36/36 33/33/33 35/35/35
f 35/35/35 34/34/34 37/37/37
f 36/36/36 35/35/35 38/38/38
f 38/38/38 35/35/35 37/37/37
f 39/39/39 36/36/36 38/38/38
f 38/38/38 37/37/37 40/40/40
f 39/39/39 38/38/38 41/41/41
f 41/41/41 38/38/38 40/40/40
f 42/42/42 39/39/39 41/41/41
f 41/41/41 40/40/40 43/43/43
f 42/42/42 41/41/41 44/44/44
f 44/44/44 41/41/41 43/43/43
f 45/45/45 42/42/42 44/44/44
f 44/44/44 43/43/43 46/46/46
f 45/45/45 44/44/44 47/47/47
f 47/47/47 44/44/44 46/46/46
f 48/48/48 45/45/45 47/47/47
f 47/47/47 46/46/46 49/49/49
f 48/48/48 47/47/47 50/50/50
f 50/50/50 47/47/47 49/49/49
f 51/51/51 48/48/48 50/50/50
f 50/50/50 49/49/49 52/52/52
f 51/51/51 50/50/50 53/53/53
f 53/53/53 50/50/50 52/52/52
f 54/54/54 51/51/51 53/53/53
f 53/53/53 52/52/52 55/55/55
f 54/54/54 53/53/53 56/56/56
f 56/56/56 53/53/53 55/55/55
f 57/57/57 54/54/54 56/56/56
f 56/56/56 55/55/55 58/58/58
f 57/57/57 56/56/56 59/59/59
f 59/59/59 56/56/56 58/58/58
f 60/60/60 57/57/57 59/59/59
f 59/59/59 58/58/58 61/61/61
f 60/60/60 59/59/59 62/62/62
f 62/62/62 59/59/59 61/61/61
f 63/63/63 60/60/60 62/62/62
f 62/62/62 61/61/61 64/64/64
f 63/63/63 62/62/62 65/65/65
f 65/65/65 62/62/62 64/64/64
f 66/66/66 63/63/63 65/65/65
f 65/65/65 64/64/64 67/67/67
f 66/66/66 65/65/65 68/68/68
f 68/68/68 65/65/65 67/67/67
f 69/69/69 66/66/66 68/68/68
f 68/68/68 67/67/67 70/70/70
f 69/69/69 68/68/68 71/71/71
f 71/71/71 68/68/68 70/70/70
f 72/72/72 69/69/69 71/71/71
f 71/71/71 70/70/70 73/73/73
f 72/72/72 71/71/71 74/74/74
f 74/74/74 71/71/71 73/73/73
f 75/75/75 72/72/72 74/74/74
f 74/74/74 73/73/73 76/76/76
f 75/75/75 74/74/74 77/77/77
f 77/77/77 74/74/74 76/76/76
f 78/78/78 75/75/75 77/77/77
f 77/77/77 76/76/76 79/79/79
f 78/78/78 77/77/77 80/80/80
f 80/80/80 77/77/77 79/79/79
f 81/81/81 78/78/78 80/80/80
f 80/80/80 79/79/79 82/82/82
f 81/81/81 80/80/80 83/83/83
f 83/83/83 80/80/80 82/82/82
f 84/84/84 81/81/81 83/83/83
f 83/83/83 82/82/82 85/85/85
f 84/84/84 83/83/83 86/86/86
f 86/86/86 83/83/83 85/85/85
f 87/87/87 84/84/84 86/86/86
f 86/86/86 85/85/85 88/88/88
f 87/87/87 86/86/86 89/89/89
f 89/89/89 86/86/86 88/88/88
f 90/90/90 87/87/87 89/89/89
f 89/89/89 88/88/88 91/91/91
f 90/90/90 89/89/89 92/92/92
f 92/92/92 89/89/89 91/91/91
f 93/93/93 90/90/90 92/92/92
f 92/92/92 91/91/91 94/94/94
f 93/93/93 92/92/92 95/95/95
f 95/95/95 92/92/92 94/94/94
f 96/96/96 93/93/93 95/95/95
f 95/95/95 94/94/94 97/97/97
f 96/96/96 95/95/95 98/98/98
f 98/98/98 95/95/95 97/97/97
f 99/99/99 96/96/96 98/98/98
f 98/98/98 97/97/97 100/100/100
f 99/99/99 98/98/98 101/101/101
f 101/101/101 98/98/98 100/100/100
f 102/102/102 99/99/99 101/101/101
f 101/101/101 100/100/100 103/103/103
f 102/102/102 101/101/101 104/104/104
f 104/104/104 101/101/101 103/103/103
f 105/105/105 102/102/102 104/104/104
f 104/104/104 103/103/103 106/106/106
f 105/105/105 104/104/104 107/107/107
f 107/107/107 104/104/104 106/106/106
f 108/108/108 105/105/105 107/107/107
f 107/107/107 106/106/106 109/109/109
f 108/108/108 107/107/107 110/110/110
f 110/110/110 107/107/107 109/109/109
f 111/111/111 108/108/108 110/110/110
f 110/110/110 109/109/109 112/112/112
f 111/111/111 110/110/110 113/113/113
f 113/113/113 110/110/110 112/112/112
f 114/114/114 111/111/111 113/113/113
f 113/113/113 112/112/112 115/115/115
f 114/114/114 113/113/113 116/116/116
f 116/116/116 113/113/113 115/115/115
f 117/117/117 114/114/114 116/116/116
f 116/116/116 115/115/115 118/118/118
f 117/117/117 116/116/116 119/119/119
f 119/119/119 116/116/116 118/118/118
f 120/120/120 117/117/117 119/119/119
f 119/119/119 118/118/118 121/121/121
f 120/120/120 119/119/119 122/122/122
f 122/122/122 119/119/119 121/121/121
f 123/123/123 120/120/120 122/122/122
f 122/122/122 121/121/121 124/124/124
f 123/123/123 122/122/122 125/125/125
f 125/125/125 122/122/122 124/124/124
f 126/126/126 123/123/123 125/125/125
f 125/125/125 124/124/124 127/127/127
f 126/126/126 125/125/125 128/128/128
f 128/128/128 125/125/125 127/127/127
f 128/128/128 127/127/127 129/129/129
f 130/130/130 126/126/126 128/128/128
f 131/131/131 128/128/128 129/129/129
f 130/130/130 128/128/128 131/131/131
f 131/131/131 129/129/129 132/132/132
f 133/133/133 131/131/131 132/132/132
f 134/134/134 130/130/130 131/131/131
f 133/133/133 134/134/134 131/131/131
f 134/134/134 135/135/135 130/130/130
f 136/136/136 134/134/134 133/133/133
f 137/137/137 135/135/135 134/134/134
f 136/136/136 137/137/137 134/134/134
f 137/137/137 138/138/138 135/135/135
f 139/139/139 137/137/137 136/136/136
f 140/140/140 138/138/138 137/137/137
f 139/139/139 140/140/140 137/137/137
f 140/140/140 141/141/141 138/138/138
f 142/142/142 140/140/140 139/139/139
f 143/143/143 141/141/141 140/140/140
f 142/142/142 143/143/143 140/140/140
f 143/143/143 144/144/144 141/141/141
f 145/145/145 143/143/143 142/142/142
f 146/146/146 144/144/144 143/143/143
f 145/145/145 146/146/146 143/143/143
f 146/146/146 147/147/147 144/144/144
f 148/148/148 146/146/146 145/145/145
f 149/149/149 147/147/147 146/146/146
f 148/148/148 149/149/149 146/146/146
f 150/150/150 149/149/149 148/148/148
f 149/149/149 151/151/151 147/147/147
f 150/150/150 152/152/152 149/149/149
f 152/152/152 151/151/151 149/149/149
f 152/152/152 153/153/153 151/151/151
