g Md_UNQ_Sand00
v 5.6249638 -0.16879827 -5.6082644
v 4.489601 -0.30896768 -6.25576
v 5.62494 -0.19688718 -6.2689853
v 5.6249185 -0.23873138 -4.5143886
v 4.1296754 -0.55962175 -5.0925946
v 3.6295743 -0.5704907 -5.912301
v 2.4213016 -0.8260678 -6.197381
v 0.53976464 -1.4375136 -6.125598
v 1.7224545 -1.2394903 -5.432958
v 3.8727298 -0.6435995 -4.6569257
v 4.4599695 -0.4720594 -3.8911662
v 5.624918 -0.24613193 -2.6895058
v 2.68975 -0.88379025 -4.5030637
v 1.2378104 -1.2666938 -5.0386353
v 0.4994832 -1.340257 -5.35994
v -0.518624 -1.4395263 -6.1242948
v 0.16939014 -0.78777874 -4.389184
v -1.0806903 -1.2717648 -6.1444397
v 1.0178216 -0.72300464 -3.7353876
v 2.1442716 -0.85449666 -4.1144695
v 2.769804 -0.55014676 -3.2264507
v 1.9601077 -0.59470344 -3.1746612
v 0.60054845 -0.55812144 -3.2893114
v -0.35541388 -0.8062791 -4.8700647
v -0.2764445 -0.5472626 -4.171061
v -0.55910814 -0.32673895 -3.4581158
v -1.7139018 -0.2512083 -5.082612
v -2.2188284 -0.8801451 -6.1907816
v -2.9473195 -0.68259764 -6.2123575
v -1.6678321 -0.027953386 -4.4106584
v -2.2410095 -0.03681369 -4.846296
v -3.39354 -0.22276409 -5.4474473
v -4.469033 -0.31969577 -6.254116
v -2.531117 0.14723685 -4.237867
v -4.1349583 -0.16577451 -5.37337
v -5.6237254 -0.18982187 -6.2695794
v -4.3435235 -0.055138987 -4.572558
v -2.0220118 0.15072212 -3.6582456
v -3.141159 0.24068461 -2.729399
v -4.9834576 -0.11977833 -4.221844
v -5.6250424 -0.2875175 -3.1886706
v -3.3228512 0.18639623 -3.6108449
v -3.6705992 0.18199873 -2.8157046
v -4.680943 -0.030414164 -1.5883971
v -5.624846 -0.24819729 -2.6901195
v -5.624954 0.06270471 -0.7772874
v -4.144732 0.014796489 -0.94205016
v -4.6919556 0.066140406 -0.09349704
v -2.18623 0.10293261 -2.5812612
v -3.4706836 -0.04183214 -0.64239734
v -2.125027 -0.37024432 0.34540087
v -4.8239045 0.1359379 0.5098576
v -5.624951 0.26848173 0.9581987
v -2.816784 0.14157388 -2.029577
v -1.8172592 -0.18783101 -1.0921476
v -1.6489034 -0.14794575 -1.8171802
v -0.52164704 -0.4493511 -2.033662
v -1.1917733 -0.2773684 -1.176232
v 0.15935622 -0.48405075 -2.9088185
v -1.0780691 -0.30529436 -0.37443352
v 0.5081791 -0.6056351 -1.3453686
v 1.6712887 -0.5323404 -2.4106011
v 1.2546581 -0.6269991 -1.271895
v 2.7800775 -0.46182844 -2.3198013
v -0.5269336 -0.33453783 -0.701972
v 4.3103905 -0.19790842 -2.4038095
v 4.759405 0.009030183 -0.48293108
v 4.8084836 -0.35169888 -3.3257532
v 5.624991 0.030021574 -1.0476731
v 5.6249766 0.25254205 0.87544143
v 2.500944 -0.49803013 -1.0933635
v 2.0834563 -0.52775365 -0.6416354
v 1.4401608 -0.5151732 -0.44905636
v 0.2905988 -0.28606886 -0.054037116
v 4.83967 0.2524796 0.9096081
v 5.625101 0.433701 3.108583
v 3.6367269 -0.0020533847 0.32395783
v 0.08622426 -0.23378456 0.49940264
v 2.2852883 -0.33040112 -0.009251158
v 1.007768 -0.10516995 0.7920787
v 1.7789782 0.0058253855 0.96739644
v -1.021008 -0.3737954 0.71143246
v -0.70332915 -0.29117015 1.4848924
v -1.6596882 -0.36075306 1.118958
v -2.5019746 -0.24304512 1.134476
v 2.5768387 0.70756364 2.2793152
v 1.6553408 0.18336175 1.534788
v 0.3378193 -0.025368929 2.036834
v 3.834207 0.29005504 1.0878768
v 4.3529873 0.4019074 1.6920997
v 3.7923503 0.7972723 2.7076802
v 3.1674292 0.8579931 2.6306164
v 4.8760242 0.9000915 4.2746124
v 5.6242404 1.2584019 6.1457653
v 3.275311 1.0067476 3.4068425
v 2.3717027 1.0551486 3.658149
v 1.7089032 0.90016097 3.56932
v 0.47342154 0.3871971 3.2488508
v 4.4878144 1.016665 4.723804
v 5.1248693 1.2181121 6.1502433
v 3.8900087 1.0370662 5.04412
v 2.6335711 1.1102922 4.325772
v 3.47836 1.0006016 5.4583793
v 3.6851225 0.93976164 6.1826096
v 2.2114935 1.0691658 4.7276697
v 3.0667953 0.92176914 5.697506
v 2.380363 0.60831475 6.222245
v 1.6491239 0.84585476 5.138014
v 1.1224257 0.18051913 6.2710166
v 1.6339773 0.9729484 4.4934554
v 0.2450802 0.3469737 4.6713285
v -0.65191656 0.13453797 4.2539854
v 0.35091358 -0.02718389 6.294281
v 0.115777336 0.37194014 3.8693383
v -0.93772537 0.18371673 3.4129753
v -0.47447348 0.13350582 2.8016055
v -1.5306017 0.07438423 2.6350513
v -2.3156645 0.15565334 3.4425304
v -2.4953542 0.09408202 2.5803063
v -3.3482115 0.18580057 2.338883
v -4.167631 0.34948748 2.5079682
v -4.659218 0.43943316 3.6395974
v -5.6247807 0.38636658 2.7556288
v -1.272136 0.10810174 3.9368079
v -2.3304954 0.10275263 4.533141
v -4.313911 0.49634817 4.4803348
v -5.625181 0.83812886 4.580041
v -1.1393459 -0.07659345 5.1237235
v -0.4593959 -0.083552375 5.660506
v -1.3555545 -0.06002858 5.494403
v -0.6809031 0.04691966 6.2852707
v -1.950164 0.12816273 5.635266
v -4.6379423 0.744307 5.0179863
v -3.556556 0.7594644 5.8612866
v -2.4949412 0.6272049 6.2207847
v -4.5836406 1.1498554 6.1584797
v -5.625045 1.2589692 6.145548
vt 0.95207345 -0.0001771008
vt 1.0018529 0.09869334
vt 1 -1.4465537E-06
vt 0.85198563 0.01656999
vt 0.9208282 0.13477522
vt 0.9723202 0.18229006
vt 0.99982667 0.2845044
vt 1.0013798 0.45138058
vt 0.935683 0.34470183
vt 0.86735374 0.15726279
vt 0.8043809 0.10421369
vt 0.7177956 -0.00028034492
vt 0.8618587 0.25948298
vt 0.9074659 0.39167476
vt 0.9361061 0.45630857
vt 1.0055331 0.5385649
vt 0.855399 0.48861766
vt 1.0023131 0.58116615
vt 0.8139198 0.4079826
vt 0.83441514 0.31083083
vt 0.75961953 0.24967791
vt 0.7616156 0.3250904
vt 0.7701745 0.44297174
vt 0.8945514 0.5339689
vt 0.8309437 0.52881634
vt 0.77623975 0.5522381
vt 0.9122514 0.6489938
vt 0.98949456 0.69520706
vt 0.99775547 0.7692361
vt 0.8477622 0.648679
vt 0.88799334 0.70140266
vt 0.9319495 0.8014671
vt 1.0025448 0.89017904
vt 0.83499825 0.7306263
vt 0.9290837 0.8700267
vt 1.0000033 0.9999981
vt 0.8507009 0.8804951
vt 0.78799057 0.67779964
vt 0.7146925 0.7806834
vt 0.8335287 0.9428303
vt 0.7639791 0.981433
vt 0.791937 0.7967296
vt 0.7263525 0.83790815
vt 0.6222581 0.9152262
vt 0.7153472 1.000717
vt 0.5651393 0.9988967
vt 0.57432294 0.8695905
vt 0.5131166 0.9069207
vt 0.70032275 0.69491476
vt 0.5585535 0.7993406
vt 0.48314244 0.69217205
vt 0.44297513 0.91040736
vt 0.40359652 1.0069122
vt 0.6570038 0.7491844
vt 0.57883275 0.65992033
vt 0.6522529 0.6370955
vt 0.66715837 0.54410946
vt 0.60476434 0.58881074
vt 0.72961295 0.48564327
vt 0.5293882 0.5992302
vt 0.6144371 0.46877015
vt 0.69540834 0.3558718
vt 0.6139822 0.38783753
vt 0.6858913 0.25437224
vt 0.54614234 0.5458308
vt 0.68554616 0.119019195
vt 0.5323221 0.08508992
vt 0.7599174 0.0671922
vt 0.58804154 0.0018182335
vt 0.42701173 0.0009229455
vt 0.59268034 0.27669132
vt 0.55557287 0.31409168
vt 0.5338583 0.37579754
vt 0.50373054 0.46812874
vt 0.4217988 0.07313799
vt 0.25637382 0.0017766068
vt 0.46540424 0.1754609
vt 0.45844954 0.49409246
vt 0.49497297 0.29555503
vt 0.4371169 0.41291475
vt 0.42030048 0.3368777
vt 0.44852075 0.5875349
vt 0.38333017 0.56185704
vt 0.41425973 0.64999855
vt 0.41153568 0.72770035
vt 0.31584072 0.2739472
vt 0.36597633 0.36021912
vt 0.33857143 0.4685505
vt 0.4045881 0.15803774
vt 0.354167 0.1145562
vt 0.27961305 0.15149763
vt 0.28399843 0.21565694
vt 0.14781229 0.073593065
vt -1.628674E-05 8.0435285E-08
vt 0.21205398 0.20502102
vt 0.2029724 0.2859766
vt 0.21012357 0.34649736
vt 0.2378392 0.44965833
vt 0.10853289 0.10166504
vt -0.005901838 0.05245905
vt 0.09053787 0.15215378
vt 0.14875606 0.25827414
vt 0.058970388 0.19315413
vt 0 0.17243183
vt 0.11221891 0.29937991
vt 0.03788973 0.23274894
vt -2.7272243E-05 0.29280746
vt 0.074526004 0.35604542
vt 0.0029438226 0.41010332
vt 0.13920003 0.35558826
vt 0.12092663 0.47452468
vt 0.15276565 0.52998185
vt -0.0015788006 0.471294
vt 0.19084823 0.48604998
vt 0.22626922 0.5750733
vt 0.28284475 0.539763
vt 0.2870201 0.6391168
vt 0.22452942 0.7037306
vt 0.29278475 0.7186623
vt 0.31584537 0.8019444
vt 0.29365352 0.86983204
vt 0.20934254 0.9060249
vt 0.27872425 0.9976944
vt 0.1800049 0.61414826
vt 0.14060354 0.7053971
vt 0.150563 0.8811388
vt 0.10979909 1.005654
vt 0.09445477 0.60262513
vt 0.04759585 0.5464901
vt 0.061892968 0.6259303
vt -0.004439999 0.56402457
vt 0.051049143 0.6744
vt 0.093746886 0.9104374
vt 0.029831238 0.8138442
vt 0 0.7217795
vt 0.0045572976 0.9066594
vt -5.0530394E-07 1
vn -0.13800813 0.990045 0.027650455
vn -0.20801698 0.9737673 0.09222818
vn -0.0986383 0.99422646 -0.042238675
vn -0.2081708 0.97746587 0.035005413
vn -0.25453252 0.9625235 0.09360325
vn -0.25611728 0.9540919 0.1552818
vn -0.27214095 0.8964446 0.34975165
vn -0.0784639 0.9954325 -0.054384544
vn -0.22397673 0.9744315 0.01782292
vn -0.23273559 0.97229517 -0.02182087
vn -0.15967485 0.98124343 -0.10800636
vn -0.044985525 0.99074966 -0.12802866
vn -0.17383538 0.9650061 -0.19632778
vn -0.057772394 0.96751213 -0.24613541
vn 0.09128163 0.9549017 -0.28254274
vn 0.20966677 0.9048327 -0.3705639
vn 0.27528125 0.88544726 -0.3744374
vn 0.3239877 0.80117977 -0.5031331
vn 0.072818704 0.94575804 -0.3166057
vn -0.07999123 0.95409596 -0.28862152
vn -0.11136319 0.9770602 -0.18152598
vn -0.017945284 0.98372513 -0.17878142
vn 0.12317453 0.9783159 -0.16651146
vn 0.41188705 0.78770036 -0.45812356
vn 0.32784125 0.9036236 -0.2756528
vn 0.27012315 0.96195686 -0.040895376
vn 0.28629845 0.8507774 -0.4406939
vn 0.2561745 0.78591925 -0.562766
vn 0.18189421 0.86076254 -0.47539696
vn 0.28368086 0.9348803 -0.21336341
vn 0.11749902 0.93053126 -0.34685102
vn 0.07666311 0.94174767 -0.32746622
vn 0.12656227 0.95960873 -0.25126287
vn 0.039338853 0.9841123 -0.17313369
vn 0.065036625 0.98629224 -0.1516504
vn -0.010223786 0.99512535 -0.09808731
vn -0.07059111 0.99196833 -0.10495582
vn 0.19715361 0.98006094 -0.024720497
vn 0.00079349463 0.9993455 0.036165044
vn -0.1766146 0.9842747 -0.003265554
vn -0.21211071 0.97720474 -0.008942222
vn -0.08325532 0.99253285 -0.08914545
vn -0.15595278 0.98775184 -0.0050051385
vn -0.09527994 0.99427456 -0.04837242
vn -0.11560704 0.98861104 -0.09634938
vn 0.033388134 0.9939837 -0.10431503
vn -3.05194E-05 0.9997545 0.022157086
vn 0.09619725 0.9938653 -0.05456874
vn 0.21430731 0.9721348 0.09500693
vn 0.102481626 0.98672897 0.12595046
vn 0.094668895 0.9950305 0.030854369
vn 0.12851366 0.98462033 -0.11835098
vn 0.07339859 0.99089617 -0.11285987
vn 0.10144418 0.98523533 0.13791402
vn 0.13819036 0.9830193 0.12073345
vn 0.2626463 0.96110344 0.0854226
vn 0.197519 0.9798737 0.02887098
vn 0.16916737 0.9855839 0.0025941236
vn 0.12234979 0.99201304 0.030671375
vn 0.016083525 0.9991013 0.039216943
vn 0.09244239 0.99351925 -0.066134915
vn -0.019776214 0.9997975 -0.0037232996
vn -0.012818075 0.9994436 -0.030793898
vn -0.13412966 0.98966014 -0.05081362
vn 0.092380956 0.9900663 -0.10599243
vn -0.09537253 0.98677766 -0.13104948
vn -0.120430276 0.98498905 -0.12366535
vn 0.017121358 0.9778707 -0.20850825
vn -0.067172505 0.99104613 -0.115392655
vn -0.021973372 0.9928302 -0.117496505
vn -0.15949276 0.9862244 -0.043855928
vn -0.105931856 0.98164743 -0.15857734
vn 0.016205516 0.97196466 -0.23456796
vn 0.045473225 0.982771 -0.1791462
vn -0.010498659 0.9860194 -0.16629997
vn 0.18726616 0.9606546 -0.20511992
vn -0.12167892 0.9497182 -0.2884953
vn -0.0906414 0.9941256 -0.0591458
vn -0.11023643 0.9438765 -0.31135994
vn -0.08994072 0.97005963 -0.22559951
vn -0.10480294 0.93065256 -0.35057405
vn -0.06555568 0.9978319 -0.0058292057
vn -0.06732605 0.98043936 -0.18494825
vn 0.05105878 0.98775697 -0.1474082
vn 0.16422392 0.9743567 -0.15381688
vn -0.14331773 0.9338541 -0.32768363
vn -0.22449826 0.92903095 -0.29411224
vn -0.17407934 0.95352995 -0.24592066
vn 0.0076297927 0.94905466 -0.3150189
vn 0.12323436 0.9697915 -0.21051772
vn 0.16916975 0.9571231 -0.23515302
vn 0.02380493 0.96330607 -0.26734766
vn 0.144388 0.96798867 -0.20530501
vn 0.009491457 0.9867758 -0.16181254
vn 0.078312546 0.9870249 -0.14017518
vn -0.10580979 0.983082 -0.14951319
vn -0.26453733 0.9438868 -0.19773158
vn -0.24278031 0.9440507 -0.22321752
vn -0.07458866 0.9611071 -0.2659128
vn -0.09280841 0.9933949 -0.0674776
vn -0.012482277 0.99907047 -0.041261707
vn -0.015167813 0.9998549 -0.00775176
vn -0.08496402 0.991247 0.10104737
vn -0.18296324 0.9700256 0.15992117
vn -0.13193637 0.98300683 0.1276331
vn -0.15088739 0.9609915 0.23179404
vn -0.22556856 0.91542804 0.3333324
vn -0.29612687 0.91340643 0.27928036
vn -0.31910715 0.8983281 0.30195546
vn -0.28547406 0.95707375 0.05014261
vn -0.35823178 0.9119681 0.19996035
vn -0.18964763 0.97070044 0.14756136
vn -0.17832471 0.9772 0.11524117
vn -0.27030432 0.96277416 -0.0011902303
vn -0.09222898 0.99550533 -0.021516025
vn -0.088109024 0.9659642 -0.24320774
vn 0.004791442 0.9794988 -0.20139314
vn 0.06479151 0.9977831 -0.015198384
vn 0.1008347 0.98139864 -0.16336809
vn 0.17243472 0.97124994 -0.16413343
vn 0.10223739 0.99026835 -0.09442462
vn 0.06274682 0.99589217 -0.065279886
vn 0.0531037 0.9933444 -0.10220936
vn -0.02758918 0.9927222 0.1172235
vn 0.13193426 0.9910176 0.021851707
vn 0.21992014 0.9532009 -0.20746838
vn 0.2060342 0.9408112 -0.26911712
vn 0.0046694037 0.9960783 0.08835244
vn -0.067844406 0.99752337 0.018555734
vn 0.14972505 0.97870606 -0.14041682
vn 0.12451846 0.9595552 -0.25248563
vn 0.2614266 0.90925545 -0.32389915
vn 0.2445826 0.9169863 -0.3151435
vn 0.2609992 0.88838 -0.37770417
vn 0.2731478 0.8184362 -0.50552183
vn 0.19880134 0.92823803 -0.31440765
vn 0.10382611 0.9604984 -0.2581919
g Md_UNQ_Sand00_0
f 3/3/3 2/2/2 1/1/1
f 2/2/2 4/4/4 1/1/1
f 2/2/2 5/5/5 4/4/4
f 2/2/2 6/6/6 5/5/5
f 2/2/2 7/7/7 6/6/6
f 7/7/7 8/8/8 6/6/6
f 6/6/6 9/9/9 5/5/5
f 6/6/6 8/8/8 9/9/9
f 4/4/4 5/5/5 10/10/10
f 5/5/5 9/9/9 10/10/10
f 10/10/10 11/11/11 4/4/4
f 4/4/4 11/11/11 12/12/12
f 9/9/9 13/13/13 10/10/10
f 13/13/13 11/11/11 10/10/10
f 9/9/9 8/8/8 14/14/14
f 14/14/14 13/13/13 9/9/9
f 15/15/15 14/14/14 8/8/8
f 8/8/8 16/16/16 15/15/15
f 16/16/16 17/17/17 15/15/15
f 16/16/16 18/18/18 17/17/17
f 14/14/14 15/15/15 19/19/19
f 15/15/15 17/17/17 19/19/19
f 14/14/14 20/20/20 13/13/13
f 19/19/19 20/20/20 14/14/14
f 20/20/20 21/21/21 13/13/13
f 21/21/21 11/11/11 13/13/13
f 20/20/20 19/19/19 22/22/22
f 22/22/22 21/21/21 20/20/20
f 19/19/19 17/17/17 23/23/23
f 19/19/19 23/23/23 22/22/22
f 18/18/18 24/24/24 17/17/17
f 24/24/24 25/25/25 17/17/17
f 17/17/17 25/25/25 23/23/23
f 25/25/25 26/26/26 23/23/23
f 18/18/18 27/27/27 24/24/24
f 24/24/24 27/27/27 25/25/25
f 28/28/28 27/27/27 18/18/18
f 28/28/28 29/29/29 27/27/27
f 27/27/27 30/30/30 25/25/25
f 25/25/25 30/30/30 26/26/26
f 29/29/29 31/31/31 27/27/27
f 27/27/27 31/31/31 30/30/30
f 29/29/29 32/32/32 31/31/31
f 29/29/29 33/33/33 32/32/32
f 31/31/31 34/34/34 30/30/30
f 32/32/32 34/34/34 31/31/31
f 32/32/32 33/33/33 35/35/35
f 33/33/33 36/36/36 35/35/35
f 35/35/35 37/37/37 32/32/32
f 35/35/35 36/36/36 37/37/37
f 37/37/37 34/34/34 32/32/32
f 30/30/30 38/38/38 26/26/26
f 30/30/30 34/34/34 38/38/38
f 39/39/39 38/38/38 34/34/34
f 36/36/36 40/40/40 37/37/37
f 36/36/36 41/41/41 40/40/40
f 37/37/37 42/42/42 34/34/34
f 34/34/34 42/42/42 39/39/39
f 37/37/37 40/40/40 43/43/43
f 37/37/37 43/43/43 42/42/42
f 40/40/40 41/41/41 43/43/43
f 42/42/42 43/43/43 39/39/39
f 43/43/43 41/41/41 44/44/44
f 45/45/45 44/44/44 41/41/41
f 45/45/45 46/46/46 44/44/44
f 43/43/43 44/44/44 47/47/47
f 43/43/43 47/47/47 39/39/39
f 44/44/44 46/46/46 48/48/48
f 44/44/44 48/48/48 47/47/47
f 49/49/49 26/26/26 38/38/38
f 39/39/39 49/49/49 38/38/38
f 39/39/39 47/47/47 50/50/50
f 47/47/47 48/48/48 50/50/50
f 48/48/48 51/51/51 50/50/50
f 46/46/46 52/52/52 48/48/48
f 48/48/48 52/52/52 51/51/51
f 46/46/46 53/53/53 52/52/52
f 39/39/39 50/50/50 54/54/54
f 39/39/39 54/54/54 49/49/49
f 54/54/54 50/50/50 55/55/55
f 54/54/54 55/55/55 49/49/49
f 50/50/50 51/51/51 55/55/55
f 49/49/49 56/56/56 26/26/26
f 49/49/49 55/55/55 56/56/56
f 56/56/56 57/57/57 26/26/26
f 55/55/55 58/58/58 56/56/56
f 56/56/56 58/58/58 57/57/57
f 26/26/26 57/57/57 59/59/59
f 26/26/26 59/59/59 23/23/23
f 55/55/55 51/51/51 60/60/60
f 55/55/55 60/60/60 58/58/58
f 58/58/58 61/61/61 57/57/57
f 57/57/57 61/61/61 59/59/59
f 59/59/59 62/62/62 23/23/23
f 23/23/23 62/62/62 22/22/22
f 62/62/62 59/59/59 63/63/63
f 61/61/61 63/63/63 59/59/59
f 22/22/22 62/62/62 64/64/64
f 64/64/64 62/62/62 63/63/63
f 21/21/21 22/22/22 64/64/64
f 58/58/58 60/60/60 65/65/65
f 61/61/61 58/58/58 65/65/65
f 21/21/21 64/64/64 66/66/66
f 66/66/66 64/64/64 67/67/67
f 21/21/21 66/66/66 11/11/11
f 11/11/11 66/66/66 68/68/68
f 11/11/11 68/68/68 12/12/12
f 68/68/68 66/66/66 12/12/12
f 12/12/12 66/66/66 69/69/69
f 66/66/66 67/67/67 69/69/69
f 69/69/69 67/67/67 70/70/70
f 64/64/64 63/63/63 71/71/71
f 64/64/64 71/71/71 67/67/67
f 63/63/63 72/72/72 71/71/71
f 72/72/72 67/67/67 71/71/71
f 63/63/63 61/61/61 73/73/73
f 63/63/63 73/73/73 72/72/72
f 61/61/61 65/65/65 74/74/74
f 61/61/61 74/74/74 73/73/73
f 67/67/67 75/75/75 70/70/70
f 75/75/75 76/76/76 70/70/70
f 72/72/72 77/77/77 67/67/67
f 77/77/77 75/75/75 67/67/67
f 65/65/65 78/78/78 74/74/74
f 65/65/65 60/60/60 78/78/78
f 73/73/73 79/79/79 72/72/72
f 79/79/79 77/77/77 72/72/72
f 73/73/73 74/74/74 80/80/80
f 74/74/74 78/78/78 80/80/80
f 73/73/73 81/81/81 79/79/79
f 81/81/81 77/77/77 79/79/79
f 80/80/80 81/81/81 73/73/73
f 60/60/60 82/82/82 78/78/78
f 60/60/60 51/51/51 82/82/82
f 78/78/78 82/82/82 83/83/83
f 78/78/78 83/83/83 80/80/80
f 51/51/51 84/84/84 82/82/82
f 82/82/82 84/84/84 83/83/83
f 51/51/51 85/85/85 84/84/84
f 51/51/51 52/52/52 85/85/85
f 81/81/81 86/86/86 77/77/77
f 80/80/80 87/87/87 81/81/81
f 87/87/87 86/86/86 81/81/81
f 83/83/83 88/88/88 80/80/80
f 88/88/88 87/87/87 80/80/80
f 77/77/77 86/86/86 89/89/89
f 77/77/77 89/89/89 75/75/75
f 75/75/75 89/89/89 90/90/90
f 75/75/75 90/90/90 76/76/76
f 89/89/89 91/91/91 90/90/90
f 90/90/90 91/91/91 76/76/76
f 89/89/89 86/86/86 92/92/92
f 89/89/89 92/92/92 91/91/91
f 76/76/76 91/91/91 93/93/93
f 76/76/76 93/93/93 94/94/94
f 92/92/92 95/95/95 91/91/91
f 91/91/91 95/95/95 93/93/93
f 86/86/86 96/96/96 92/92/92
f 92/92/92 96/96/96 95/95/95
f 87/87/87 97/97/97 86/86/86
f 97/97/97 96/96/96 86/86/86
f 88/88/88 98/98/98 87/87/87
f 98/98/98 97/97/97 87/87/87
f 93/93/93 99/99/99 94/94/94
f 99/99/99 100/100/100 94/94/94
f 101/101/101 99/99/99 93/93/93
f 101/101/101 93/93/93 95/95/95
f 101/101/101 100/100/100 99/99/99
f 102/102/102 101/101/101 95/95/95
f 96/96/96 102/102/102 95/95/95
f 101/101/101 103/103/103 100/100/100
f 102/102/102 103/103/103 101/101/101
f 103/103/103 104/104/104 100/100/100
f 102/102/102 96/96/96 105/105/105
f 105/105/105 103/103/103 102/102/102
f 103/103/103 106/106/106 104/104/104
f 105/105/105 106/106/106 103/103/103
f 106/106/106 107/107/107 104/104/104
f 106/106/106 108/108/108 107/107/107
f 105/105/105 108/108/108 106/106/106
f 108/108/108 109/109/109 107/107/107
f 96/96/96 110/110/110 105/105/105
f 105/105/105 110/110/110 108/108/108
f 97/97/97 110/110/110 96/96/96
f 108/108/108 111/111/111 109/109/109
f 110/110/110 111/111/111 108/108/108
f 111/111/111 112/112/112 109/109/109
f 109/109/109 112/112/112 113/113/113
f 97/97/97 114/114/114 110/110/110
f 114/114/114 111/111/111 110/110/110
f 114/114/114 112/112/112 111/111/111
f 98/98/98 114/114/114 97/97/97
f 115/115/115 114/114/114 98/98/98
f 114/114/114 115/115/115 112/112/112
f 115/115/115 98/98/98 116/116/116
f 116/116/116 98/98/98 88/88/88
f 83/83/83 116/116/116 88/88/88
f 83/83/83 117/117/117 116/116/116
f 117/117/117 115/115/115 116/116/116
f 117/117/117 118/118/118 115/115/115
f 83/83/83 84/84/84 117/117/117
f 84/84/84 119/119/119 117/117/117
f 119/119/119 118/118/118 117/117/117
f 84/84/84 85/85/85 119/119/119
f 85/85/85 120/120/120 119/119/119
f 120/120/120 118/118/118 119/119/119
f 52/52/52 120/120/120 85/85/85
f 52/52/52 121/121/121 120/120/120
f 121/121/121 118/118/118 120/120/120
f 52/52/52 53/53/53 121/121/121
f 53/53/53 122/122/122 121/121/121
f 121/121/121 122/122/122 118/118/118
f 53/53/53 123/123/123 122/122/122
f 118/118/118 124/124/124 115/115/115
f 115/115/115 124/124/124 112/112/112
f 122/122/122 125/125/125 118/118/118
f 118/118/118 125/125/125 124/124/124
f 122/122/122 123/123/123 126/126/126
f 126/126/126 125/125/125 122/122/122
f 123/123/123 127/127/127 126/126/126
f 124/124/124 128/128/128 112/112/112
f 125/125/125 128/128/128 124/124/124
f 112/112/112 128/128/128 129/129/129
f 112/112/112 129/129/129 113/113/113
f 125/125/125 130/130/130 128/128/128
f 130/130/130 129/129/129 128/128/128
f 130/130/130 113/113/113 129/129/129
f 126/126/126 130/130/130 125/125/125
f 113/113/113 130/130/130 131/131/131
f 130/130/130 126/126/126 132/132/132
f 130/130/130 132/132/132 131/131/131
f 126/126/126 127/127/127 133/133/133
f 126/126/126 133/133/133 132/132/132
f 132/132/132 134/134/134 131/131/131
f 133/133/133 134/134/134 132/132/132
f 131/131/131 134/134/134 135/135/135
f 134/134/134 136/136/136 135/135/135
f 134/134/134 133/133/133 136/136/136
f 133/133/133 127/127/127 136/136/136
f 127/127/127 137/137/137 136/136/136
