g Md_UNQ_LCardBase_02
v -0.29400325 0.43995202 0.020000078
v -0.29400325 0.43995202 -0.019999921
v -0.27999783 0.44 0.020000078
v -0.27999783 0.44 -0.019999921
v 0.2800022 0.44 0.020000078
v 0.2800022 0.44 -0.019999921
v 0.29400766 0.43995202 -0.019999921
v 0.29400766 0.43995202 0.020000078
v -0.29978418 0.43810335 -0.019999925
v -0.29400325 0.43995202 0.020000078
v -0.29978418 0.43810335 0.020000076
v -0.3053667 0.43488383 -0.019999925
v -0.3053667 0.43488383 0.020000076
v -0.30973282 0.43030092 -0.019999927
v -0.30973282 0.43030092 0.020000076
v -0.31297088 0.4254023 -0.019999927
v -0.31297088 0.4254023 0.020000076
v -0.3149978 0.41969383 -0.019999927
v -0.3149978 0.41969383 0.020000074
v -0.3149978 0.405 -0.019999929
v -0.3149978 0.405 0.02000007
v -0.3149978 -0.405 -0.02000007
v -0.3149978 -0.405 0.019999929
v -0.31506792 -0.41969383 0.019999927
v -0.31506792 -0.41969383 -0.020000074
v -0.31297088 -0.4254023 0.019999927
v -0.31297088 -0.4254023 -0.020000076
v -0.30973282 -0.43030092 0.019999927
v -0.30973282 -0.43030092 -0.020000076
v -0.3053667 -0.43488383 0.019999925
v -0.3053667 -0.43488383 -0.020000076
v -0.29978418 -0.43810335 0.019999925
v -0.29978418 -0.43810335 -0.020000076
v -0.29400325 -0.43995202 0.019999921
v -0.29400325 -0.43995202 -0.020000078
v -0.29400325 -0.43995202 0.019999921
v -0.27999783 -0.44 0.019999921
v -0.27999783 -0.44 -0.020000078
v 0.2800022 -0.44 -0.020000078
v 0.2800022 -0.44 0.019999921
v 0.29400766 -0.43995202 -0.020000078
v 0.29400766 -0.43995202 0.019999921
v 0.29978856 -0.43810335 -0.020000076
v 0.29400766 -0.43995202 0.019999921
v 0.29978856 -0.43810335 0.019999925
v 0.3053711 -0.43488383 -0.020000076
v 0.3053711 -0.43488383 0.019999925
v 0.30973724 -0.43030092 -0.020000076
v 0.30973724 -0.43030092 0.019999927
v 0.3129753 -0.4254023 -0.020000076
v 0.3129753 -0.4254023 0.019999927
v 0.3150022 -0.41969383 -0.020000074
v 0.3150022 -0.41969383 0.019999927
v 0.3150022 -0.405 -0.02000007
v 0.3150022 -0.405 0.019999929
v 0.3150022 0.405 0.02000007
v 0.3150022 0.405 -0.019999929
v 0.3150022 0.405 0.02000007
v 0.3150022 0.41969383 0.020000074
v 0.3150022 0.405 -0.019999929
v 0.3150022 0.41969383 -0.019999927
v 0.3129753 0.4254023 0.020000076
v 0.3129753 0.4254023 -0.019999927
v 0.30973724 0.43030092 0.020000076
v 0.30973724 0.43030092 -0.019999927
v 0.3053711 0.43488383 0.020000076
v 0.3053711 0.43488383 -0.019999925
v 0.29978856 0.43810335 0.020000076
v 0.29978856 0.43810335 -0.019999925
v 0.29400766 0.43995202 0.020000078
vt 3.3967152E-07 0.21272345
vt 1.001031 0.21272345
vt 3.481891E-07 0.20802024
vt 1.001031 0.20802028
vt 3.138919E-07 0.019971278
vt 1.0010309 0.01997124
vt 1.0010309 0.015268107
vt 2.9562318E-07 0.015268107
vt 1.001031 0.21476153
vt 3.3967152E-07 0.21272345
vt 3.4877849E-07 0.21476153
vt 1.001031 0.21692558
vt 3.4896766E-07 0.21692558
vt 1.001031 0.21905117
vt 3.491535E-07 0.21905117
vt 1.001031 0.22102305
vt 3.3146839E-07 0.22102305
vt 1.001031 0.22305727
vt 3.4950372E-07 0.22305726
vt 1.001031 0.22799157
vt 3.4100628E-07 0.22799157
vt 1.0010308 0.4999982
vt 9.915533E-08 0.49999818
vt 9.735448E-08 0.5049325
vt 1.0010308 0.5049325
vt 9.530084E-08 0.5069747
vt 1.0010308 0.5069747
vt 9.5473254E-08 0.5089466
vt 1.0010308 0.5089466
vt 9.34269E-08 0.51107216
vt 1.0010308 0.5110722
vt 9.138388E-08 0.5132362
vt 1.0010308 0.5132362
vt 8.932982E-08 0.51527435
vt 1.0010308 0.51527435
vt 8.932982E-08 0.51527435
vt 8.7508816E-08 0.5199775
vt 1.0010308 0.5199775
vt 1.0010307 0.7080265
vt 7.964438E-09 0.7080265
vt 1.0010307 0.7127297
vt 8.375617E-09 0.7127297
vt 1.0010307 0.7147678
vt 8.375617E-09 0.7127297
vt 8.553753E-09 0.71476775
vt 1.0010307 0.7169319
vt 8.742993E-09 0.7169319
vt 1.0010307 0.7190574
vt 0 0.7190574
vt 1.0010307 0.7210293
vt 1.7241432E-10 0.7210293
vt 1.0010307 0.72306347
vt 9.279037E-09 0.72306347
vt 1.0010307 0.7279977
vt 7.8162066E-10 0.7279978
vt 3.995687E-07 1
vt 1.001031 0.99999994
vt 2.942884E-07 0
vt 2.9471977E-07 0.004934282
vt 1.0010309 0
vt 1.0010309 0.004934282
vt 2.9489763E-07 0.006968468
vt 1.0010309 0.0069683963
vt 3.1292748E-07 0.008940366
vt 1.0010309 0.008940366
vt 3.1311333E-07 0.0110659115
vt 1.0010309 0.0110659115
vt 3.133025E-07 0.013229957
vt 1.0010309 0.013229957
vt 2.9562318E-07 0.015268107
vn -0.09542355 0.9954367 -4.395298E-06
vn -0.093923755 0.9954419 -0.016544394
vn -0 1 0
vn -0 1 0
vn -0 1 0
vn 0.0034245825 0.99999416 0
vn 0.09392375 0.9954419 -0.016544357
vn 0.09542352 0.9954367 -4.4161366E-06
vn -0.40673265 0.9134703 -0.0118565
vn -0.101038665 0.99364305 0.04964511
vn -0.40734473 0.9132745 -5.278846E-06
vn -0.6163301 0.7873247 -0.016027953
vn -0.6171193 0.7868696 -6.75816E-06
vn -0.77975166 0.62601686 -0.009504458
vn -0.78011876 0.6256314 -4.066825E-06
vn -0.8953535 0.4451686 -0.01292035
vn -0.8957287 0.44460097 -5.8774303E-06
vn -0.99463767 0.100144655 -0.025826944
vn -0.9951043 0.09882991 -1.1530435E-05
vn -1 0 0
vn -1 0 0
vn -1 0 0
vn -0.9999999 0.0005538143 0
vn -0.9951007 -0.09886763 -1.2015141E-05
vn -0.9945949 -0.100244366 -0.027057946
vn -0.8933718 -0.44931808 -5.6540366E-06
vn -0.8930125 -0.4498616 -0.012370564
vn -0.78011227 -0.6256395 -4.075945E-06
vn -0.7797452 -0.62602484 -0.009504422
vn -0.6171193 -0.7868696 -6.790203E-06
vn -0.6163301 -0.7873247 -0.016027827
vn -0.40734482 -0.9132745 -5.2307514E-06
vn -0.40673268 -0.9134703 -0.011856471
vn -0.10105973 -0.99363637 0.04973684
vn -0.09392374 -0.9954419 -0.016544377
vn -0.09542355 -0.9954367 -4.416137E-06
vn -0.00343124 -0.99999416 0
vn -0.0034245902 -0.99999416 0
vn 0.0034245828 -0.99999416 0
vn 0.0018498014 -0.9999982 0.00056053745
vn 0.093923755 -0.9954419 -0.016544372
vn 0.095423535 -0.9954367 -4.395298E-06
vn 0.40673402 -0.91346973 -0.0118565
vn 0.10104018 -0.9936429 0.049645096
vn 0.40734613 -0.91327393 -3.6826656E-05
vn 0.6163283 -0.7873262 -0.01602792
vn 0.61711746 -0.78687096 -6.7581605E-06
vn 0.7797453 -0.6260248 -0.009504451
vn 0.78011227 -0.6256395 -4.082354E-06
vn 0.89535356 -0.44516858 -0.012920351
vn 0.8957287 -0.44460088 -5.877431E-06
vn 0.9946371 -0.10014988 -0.025826935
vn 0.99510384 -0.09883548 -1.1456674E-05
vn 1 0 0
vn 1 0 0
vn 1 0 0
vn 1 0 0
vn 1 0 0
vn 0.9951043 0.0988299 -1.15110115E-05
vn 1 0 0
vn 0.99463767 0.10014465 -0.025826655
vn 0.8957287 0.44460097 -5.9052963E-06
vn 0.8953535 0.4451686 -0.012920302
vn 0.78011876 0.6256314 -4.086107E-06
vn 0.77975166 0.62601686 -0.009504426
vn 0.61711746 0.78687096 -6.7902024E-06
vn 0.61632836 0.78732616 -0.016027873
vn 0.40734613 0.91327393 -5.270018E-06
vn 0.40673402 0.91346973 -0.0118564945
vn 0.10106125 0.99363625 0.049737033
g Md_UNQ_LCardBase_02_0
f 3/3/3 2/2/2 1/1/1
f 3/3/3 4/4/4 2/2/2
f 5/5/5 4/4/4 3/3/3
f 5/5/5 6/6/6 4/4/4
f 7/7/7 6/6/6 5/5/5
f 7/7/7 5/5/5 8/8/8
f 10/10/10 2/2/2 9/9/9
f 10/10/10 9/9/9 11/11/11
f 11/11/11 9/9/9 12/12/12
f 11/11/11 12/12/12 13/13/13
f 13/13/13 12/12/12 14/14/14
f 13/13/13 14/14/14 15/15/15
f 15/15/15 14/14/14 16/16/16
f 15/15/15 16/16/16 17/17/17
f 17/17/17 16/16/16 18/18/18
f 17/17/17 18/18/18 19/19/19
f 19/19/19 18/18/18 20/20/20
f 19/19/19 20/20/20 21/21/21
f 22/22/22 21/21/21 20/20/20
f 21/21/21 22/22/22 23/23/23
f 22/22/22 24/24/24 23/23/23
f 22/22/22 25/25/25 24/24/24
f 25/25/25 26/26/26 24/24/24
f 25/25/25 27/27/27 26/26/26
f 27/27/27 28/28/28 26/26/26
f 27/27/27 29/29/29 28/28/28
f 29/29/29 30/30/30 28/28/28
f 29/29/29 31/31/31 30/30/30
f 31/31/31 32/32/32 30/30/30
f 31/31/31 33/33/33 32/32/32
f 33/33/33 34/34/34 32/32/32
f 33/33/33 35/35/35 34/34/34
f 35/35/35 37/37/37 36/36/36
f 35/35/35 38/38/38 37/37/37
f 39/39/39 37/37/37 38/38/38
f 39/39/39 40/40/40 37/37/37
f 40/40/40 39/39/39 41/41/41
f 40/40/40 41/41/41 42/42/42
f 44/44/44 41/41/41 43/43/43
f 44/44/44 43/43/43 45/45/45
f 45/45/45 43/43/43 46/46/46
f 45/45/45 46/46/46 47/47/47
f 47/47/47 46/46/46 48/48/48
f 47/47/47 48/48/48 49/49/49
f 49/49/49 48/48/48 50/50/50
f 49/49/49 50/50/50 51/51/51
f 51/51/51 50/50/50 52/52/52
f 51/51/51 52/52/52 53/53/53
f 53/53/53 52/52/52 54/54/54
f 53/53/53 54/54/54 55/55/55
f 54/54/54 56/56/56 55/55/55
f 56/56/56 54/54/54 57/57/57
f 60/60/60 59/59/59 58/58/58
f 60/60/60 61/61/61 59/59/59
f 61/61/61 62/62/62 59/59/59
f 61/61/61 63/63/63 62/62/62
f 63/63/63 64/64/64 62/62/62
f 63/63/63 65/65/65 64/64/64
f 65/65/65 66/66/66 64/64/64
f 65/65/65 67/67/67 66/66/66
f 67/67/67 68/68/68 66/66/66
f 67/67/67 69/69/69 68/68/68
f 69/69/69 70/70/70 68/68/68
f 69/69/69 7/7/7 70/70/70
