g Md_UNQ_Paralysis_01
v -1.9833697E-09 -2.5783011E-09 -0.058984708
v 0.011507344 -2.5287592E-09 -0.05785132
v 0.04175316 0.117 -0.20990734
v -3.6060497E-09 0.117 -0.21401967
v 0.011507344 -2.5287592E-09 -0.05785132
v 0.022572476 -2.3820397E-09 -0.054494757
v 0.081901796 0.117 -0.1977284
v 0.04175316 0.117 -0.20990734
v 0.022572476 -2.3820397E-09 -0.054494757
v 0.032770146 -2.1437787E-09 -0.049043983
v 0.11890297 0.117 -0.17795083
v 0.081901796 0.117 -0.1977284
v 0.032770146 -2.1437787E-09 -0.049043983
v 0.041708484 -1.823134E-09 -0.041708477
v 0.15133476 0.117 -0.15133476
v 0.11890297 0.117 -0.17795083
v 0.041708484 -1.823134E-09 -0.041708477
v 0.049043994 -1.4324272E-09 -0.03277014
v 0.17795083 0.117 -0.11890297
v 0.15133476 0.117 -0.15133476
v 0.049043994 -1.4324272E-09 -0.03277014
v 0.054494765 -9.866731E-10 -0.022572467
v 0.1977284 0.117000006 -0.081901796
v 0.17795083 0.117 -0.11890297
v 0.054494765 -9.866731E-10 -0.022572467
v 0.057851326 -5.030013E-10 -0.011507339
v 0.20990735 0.117000006 -0.041753173
v 0.1977284 0.117000006 -0.081901796
v 0.057851326 -5.030013E-10 -0.011507339
v 0.05898471 3.9836023E-16 7.84699E-09
v 0.2140197 0.117000006 -9.584198E-11
v 0.20990735 0.117000006 -0.041753173
v -0.05898471 3.9836023E-16 7.84699E-09
v -0.057851348 -5.030013E-10 -0.011507339
v -0.20990734 0.117000006 -0.041753173
v -0.21401966 0.117000006 -9.584198E-11
v -0.057851348 -5.030013E-10 -0.011507339
v -0.054494776 -9.866731E-10 -0.022572467
v -0.19772838 0.117000006 -0.081901796
v -0.20990734 0.117000006 -0.041753173
v -0.054494776 -9.866731E-10 -0.022572467
v -0.049044 -1.4324272E-09 -0.03277014
v -0.17795087 0.117 -0.11890297
v -0.19772838 0.117000006 -0.081901796
v -0.049044 -1.4324272E-09 -0.03277014
v -0.041708495 -1.823134E-09 -0.041708477
v -0.15133478 0.117 -0.15133476
v -0.17795087 0.117 -0.11890297
v -0.041708495 -1.823134E-09 -0.041708477
v -0.032770153 -2.1437787E-09 -0.049043983
v -0.11890297 0.117 -0.17795083
v -0.15133478 0.117 -0.15133476
v -0.032770153 -2.1437787E-09 -0.049043983
v -0.02257247 -2.3820397E-09 -0.054494757
v -0.081901796 0.117 -0.1977284
v -0.11890297 0.117 -0.17795083
v -0.02257247 -2.3820397E-09 -0.054494757
v -0.011507347 -2.5287592E-09 -0.05785132
v -0.041753173 0.117 -0.20990734
v -0.081901796 0.117 -0.1977284
v -0.011507347 -2.5287592E-09 -0.05785132
v -1.9833697E-09 -2.5783011E-09 -0.058984708
v -3.6060497E-09 0.117 -0.21401967
v -0.041753173 0.117 -0.20990734
vt 0.4996614 0.0010929108
vt 0.43744913 0.0010929108
vt 0.43744913 1
vt 0.4996614 1
vt 0.43744913 0.0010929108
vt 0.37523684 0.0010929108
vt 0.37523684 1
vt 0.43744913 1
vt 0.37523684 0.0010929108
vt 0.31302455 0.0010929108
vt 0.31302455 1
vt 0.37523684 1
vt 0.31302455 0.0010929108
vt 0.2508123 0.0010929108
vt 0.2508123 1
vt 0.31302455 1
vt 0.2508123 0.0010929108
vt 0.1886 0.0010929108
vt 0.1886 1
vt 0.2508123 1
vt 0.1886 0.0010929108
vt 0.12638772 0.0010929108
vt 0.12638772 1
vt 0.1886 1
vt 0.12638772 0.0010929108
vt 0.06417543 0.0010929108
vt 0.06417543 1
vt 0.12638772 1
vt 0.06417543 0.0010929108
vt 0.0019631386 0.0010929108
vt 0.0019631386 1
vt 0.06417543 1
vt 0.99706686 0.0010929108
vt 0.9348546 0.0010929108
vt 0.9348546 1
vt 0.99706686 1
vt 0.9348546 0.0010929108
vt 0.8726423 0.0010929108
vt 0.8726423 1
vt 0.9348546 1
vt 0.8726423 0.0010929108
vt 0.81043005 0.0010929108
vt 0.81043005 1
vt 0.8726423 1
vt 0.81043005 0.0010929108
vt 0.7482177 0.0010929108
vt 0.7482177 1
vt 0.81043005 1
vt 0.7482177 0.0010929108
vt 0.6860055 0.0010929108
vt 0.6860055 1
vt 0.7482177 1
vt 0.6860055 0.0010929108
vt 0.6237931 0.0010929108
vt 0.6237931 1
vt 0.6860055 1
vt 0.6237931 0.0010929108
vt 0.5615809 0.0010929108
vt 0.5615809 1
vt 0.6237931 1
vt 0.5618763 0.0010929108
vt 0.49966407 0.0010929108
vt 0.49966407 1
vt 0.5618763 1
vn 0.05922571 -0.79680663 -0.60132486
vn 0.05922571 -0.79680663 -0.60132486
vn 0.05922571 -0.79680663 -0.60132486
vn 0.05922571 -0.79680663 -0.60132486
vn 0.17539948 -0.79680663 -0.57821643
vn 0.17539948 -0.79680663 -0.57821643
vn 0.17539948 -0.79680663 -0.57821643
vn 0.17539948 -0.79680663 -0.57821643
vn 0.2848346 -0.79680663 -0.5328869
vn 0.2848346 -0.79680663 -0.5328869
vn 0.2848346 -0.79680663 -0.5328869
vn 0.2848346 -0.79680663 -0.5328869
vn 0.383322 -0.7968067 -0.46707964
vn 0.383322 -0.7968067 -0.46707964
vn 0.383322 -0.7968067 -0.46707964
vn 0.383322 -0.7968067 -0.46707964
vn 0.4670796 -0.7968066 -0.38332227
vn 0.4670796 -0.7968066 -0.38332227
vn 0.4670796 -0.7968066 -0.38332227
vn 0.4670796 -0.7968066 -0.38332227
vn 0.5328871 -0.7968067 -0.28483424
vn 0.5328871 -0.7968067 -0.28483424
vn 0.5328871 -0.7968067 -0.28483424
vn 0.5328871 -0.7968067 -0.28483424
vn 0.5782163 -0.79680663 -0.17539994
vn 0.5782163 -0.79680663 -0.17539994
vn 0.5782163 -0.79680663 -0.17539994
vn 0.5782163 -0.79680663 -0.17539994
vn 0.60132474 -0.7968067 -0.05922555
vn 0.60132474 -0.7968067 -0.05922555
vn 0.60132474 -0.7968067 -0.05922555
vn 0.60132474 -0.7968067 -0.05922555
vn -0.6013249 -0.7968066 -0.059225127
vn -0.6013249 -0.7968066 -0.059225127
vn -0.6013249 -0.7968066 -0.059225127
vn -0.6013249 -0.7968066 -0.059225127
vn -0.5782163 -0.7968066 -0.17539996
vn -0.5782163 -0.7968066 -0.17539996
vn -0.5782163 -0.7968066 -0.17539996
vn -0.5782163 -0.7968066 -0.17539996
vn -0.53288746 -0.79680645 -0.28483394
vn -0.53288746 -0.79680645 -0.28483394
vn -0.53288746 -0.79680645 -0.28483394
vn -0.53288746 -0.79680645 -0.28483394
vn -0.46707946 -0.79680663 -0.38332224
vn -0.46707946 -0.79680663 -0.38332224
vn -0.46707946 -0.79680663 -0.38332224
vn -0.46707946 -0.79680663 -0.38332224
vn -0.38332185 -0.7968069 -0.46707958
vn -0.38332185 -0.7968069 -0.46707958
vn -0.38332185 -0.7968069 -0.46707958
vn -0.38332185 -0.7968069 -0.46707958
vn -0.28483453 -0.79680663 -0.532887
vn -0.28483453 -0.79680663 -0.532887
vn -0.28483453 -0.79680663 -0.532887
vn -0.28483453 -0.79680663 -0.532887
vn -0.17539957 -0.7968067 -0.5782163
vn -0.17539957 -0.7968067 -0.5782163
vn -0.17539957 -0.7968067 -0.5782163
vn -0.17539957 -0.7968067 -0.5782163
vn -0.059225705 -0.7968067 -0.60132474
vn -0.059225705 -0.7968067 -0.60132474
vn -0.059225705 -0.7968067 -0.60132474
vn -0.059225705 -0.7968067 -0.60132474
g Md_UNQ_Paralysis_01_0
f 3/3/3 2/2/2 1/1/1
f 4/4/4 3/3/3 1/1/1
f 7/7/7 6/6/6 5/5/5
f 8/8/8 7/7/7 5/5/5
f 11/11/11 10/10/10 9/9/9
f 12/12/12 11/11/11 9/9/9
f 15/15/15 14/14/14 13/13/13
f 16/16/16 15/15/15 13/13/13
f 19/19/19 18/18/18 17/17/17
f 20/20/20 19/19/19 17/17/17
f 23/23/23 22/22/22 21/21/21
f 24/24/24 23/23/23 21/21/21
f 27/27/27 26/26/26 25/25/25
f 28/28/28 27/27/27 25/25/25
f 31/31/31 30/30/30 29/29/29
f 32/32/32 31/31/31 29/29/29
f 35/35/35 34/34/34 33/33/33
f 36/36/36 35/35/35 33/33/33
f 39/39/39 38/38/38 37/37/37
f 40/40/40 39/39/39 37/37/37
f 43/43/43 42/42/42 41/41/41
f 44/44/44 43/43/43 41/41/41
f 47/47/47 46/46/46 45/45/45
f 48/48/48 47/47/47 45/45/45
f 51/51/51 50/50/50 49/49/49
f 52/52/52 51/51/51 49/49/49
f 55/55/55 54/54/54 53/53/53
f 56/56/56 55/55/55 53/53/53
f 59/59/59 58/58/58 57/57/57
f 60/60/60 59/59/59 57/57/57
f 63/63/63 62/62/62 61/61/61
f 64/64/64 63/63/63 61/61/61
