g Md_UNQ_FlowerShower_00
v -0.5 -0.5 -0.08482888
v -0.5 -0.3 -0.04954008
v -0.3 -0.5 -0.08482888
v -0.3 -0.3 -0.032003887
v -0.3 -0.099999994 -0.024273576
v -0.5 -0.099999994 -0.062441584
v -0.099999994 -0.5 -0.073280334
v -0.5 0.100000024 -0.062441584
v -0.099999994 -0.3 -0.011372071
v 0.100000024 -0.5 -0.067491956
v 0.100000024 -0.3 -0.011372071
v -0.099999994 -0.099999994 -0.004312601
v 0.3 -0.3 -0.031780995
v 0.3 -0.5 -0.08285991
v 0.5 -0.3 -0.08042212
v 0.5 -0.5 -0.11571092
v 0.3 -0.099999994 -0.024273576
v 0.5 -0.099999994 -0.09332362
v 0.100000024 -0.099999994 -0.0007752143
v -0.099999994 0.100000024 -0.009109255
v -0.3 0.100000024 -0.024273576
v 0.3 0.100000024 -0.024273576
v 0.5 0.100000024 -0.09332362
v 0.100000024 0.100000024 0.00077153
v -0.3 0.3 -0.06052674
v -0.5 0.3 -0.09869474
v 0.3 0.3 -0.06052674
v 0.5 0.3 -0.12957679
v 0.100000024 0.3 -0.03780688
v -0.099999994 0.3 -0.041360527
v -0.3 0.5 -0.108304724
v -0.5 0.5 -0.14647272
v -0.099999994 0.5 -0.108304724
v 0.100000024 0.5 -0.108304724
v 0.3 0.5 -0.108304724
v 0.5 0.5 -0.17735475
vt 0 0
vt 0 0.2
vt 0.2 0
vt 0.2 0.2
vt 0.2 0.4
vt 0 0.4
vt 0.4 0
vt 0 0.6
vt 0.4 0.2
vt 0.6 0
vt 0.6 0.2
vt 0.4 0.4
vt 0.8 0.2
vt 0.8 0
vt 1 0.2
vt 1 0
vt 0.8 0.4
vt 1 0.4
vt 0.6 0.4
vt 0.4 0.6
vt 0.2 0.6
vt 0.8 0.6
vt 1 0.6
vt 0.6 0.6
vt 0.2 0.8
vt 0 0.8
vt 0.8 0.8
vt 1 0.8
vt 0.6 0.8
vt 0.4 0.8
vt 0.2 1
vt 0 1
vt 0.4 1
vt 0.6 1
vt 0.8 1
vt 1 1
vn -0 -0.17375995 0.98478806
vn -0.091303825 -0.10316829 0.99046445
vn -0.04910838 -0.23484586 0.97079134
vn -0.08842202 -0.1548945 0.98396605
vn -0.12872735 -0.00303476 0.9916754
vn -0.1873637 0.031544134 0.981784
vn -0.05235354 -0.28509235 0.95706916
vn -0.18670294 0.08960203 0.97832173
vn -0.053646464 -0.16580655 0.984698
vn 0.035954658 -0.27086586 0.96194535
vn 0.049862873 -0.1597494 0.9858974
vn -0.056396265 -0.007856243 0.99837756
vn 0.16455878 -0.14544897 0.97558445
vn 0.13661794 -0.2270149 0.96426123
vn 0.24115123 -0.097898945 0.965537
vn 0.15968086 -0.1715304 0.9721519
vn 0.21230164 -0.008961542 0.9771631
vn 0.3261982 0.03026871 0.9448167
vn 0.04581269 -0.026323596 0.99860317
vn -0.05736759 0.089124225 0.99436706
vn -0.13368577 0.086680844 0.9872257
vn 0.22542533 0.088874035 0.9701983
vn 0.3251132 0.086900085 0.941674
vn 0.036546797 0.09257761 0.9950346
vn -0.1272399 0.21543837 0.96819234
vn -0.18356375 0.20274527 0.96187246
vn 0.20522511 0.2146068 0.95489603
vn 0.32002673 0.19586384 0.92694134
vn 0.043724377 0.25710806 0.965393
vn -0.050383907 0.24436411 0.9683737
vn -0.09366445 0.23133047 0.96835595
vn -0.18249974 0.22844976 0.9562974
vn -0.022559276 0.29634672 0.95481396
vn 0.022633856 0.30388233 0.9524407
vn 0.16937822 0.22899465 0.9585783
vn 0.31833264 0.22026464 0.92203456
g Md_UNQ_FlowerShower_00_0
f 3/3/3 2/2/2 1/1/1
f 3/3/3 4/4/4 2/2/2
f 5/5/5 2/2/2 4/4/4
f 5/5/5 6/6/6 2/2/2
f 7/7/7 4/4/4 3/3/3
f 5/5/5 8/8/8 6/6/6
f 7/7/7 9/9/9 4/4/4
f 9/9/9 5/5/5 4/4/4
f 10/10/10 9/9/9 7/7/7
f 10/10/10 11/11/11 9/9/9
f 9/9/9 12/12/12 5/5/5
f 11/11/11 12/12/12 9/9/9
f 13/13/13 11/11/11 10/10/10
f 13/13/13 10/10/10 14/14/14
f 15/15/15 13/13/13 14/14/14
f 15/15/15 14/14/14 16/16/16
f 15/15/15 17/17/17 13/13/13
f 17/17/17 11/11/11 13/13/13
f 15/15/15 18/18/18 17/17/17
f 11/11/11 19/19/19 12/12/12
f 17/17/17 19/19/19 11/11/11
f 20/20/20 5/5/5 12/12/12
f 19/19/19 20/20/20 12/12/12
f 5/5/5 21/21/21 8/8/8
f 20/20/20 21/21/21 5/5/5
f 18/18/18 22/22/22 17/17/17
f 18/18/18 23/23/23 22/22/22
f 17/17/17 24/24/24 19/19/19
f 19/19/19 24/24/24 20/20/20
f 17/17/17 22/22/22 24/24/24
f 25/25/25 8/8/8 21/21/21
f 25/25/25 26/26/26 8/8/8
f 23/23/23 27/27/27 22/22/22
f 23/23/23 28/28/28 27/27/27
f 22/22/22 29/29/29 24/24/24
f 29/29/29 20/20/20 24/24/24
f 22/22/22 27/27/27 29/29/29
f 30/30/30 21/21/21 20/20/20
f 29/29/29 30/30/30 20/20/20
f 30/30/30 25/25/25 21/21/21
f 31/31/31 26/26/26 25/25/25
f 31/31/31 32/32/32 26/26/26
f 33/33/33 31/31/31 25/25/25
f 33/33/33 25/25/25 30/30/30
f 34/34/34 33/33/33 30/30/30
f 34/34/34 30/30/30 29/29/29
f 27/27/27 34/34/34 29/29/29
f 27/27/27 35/35/35 34/34/34
f 28/28/28 35/35/35 27/27/27
f 28/28/28 36/36/36 35/35/35
