g Md_UNQ_Skillinvalid_00
v -0.5955852 4.8805152E-05 0.06827467
v -0.73638684 0.08134072 -0.0005817169
v -0.5955852 0.16263263 0.06827467
v -0.5955852 4.8805152E-05 0.06827467
v -0.73638684 -0.08124311 -0.0005817169
v -0.73638684 0.08134072 -0.0005817169
v -0.5955852 4.8805152E-05 0.06827467
v -0.5955852 -0.16253501 0.06827467
v -0.73638684 -0.08124311 -0.0005817169
v -0.5955852 4.8805152E-05 0.06827467
v -0.45478344 -0.08124311 0.14046656
v -0.5955852 -0.16253501 0.06827467
v -0.5955852 4.8805152E-05 0.06827467
v -0.45478344 0.08134072 0.14046656
v -0.45478344 -0.08124311 0.14046656
v -0.5955852 4.8805152E-05 0.06827467
v -0.5955852 0.16263263 0.06827467
v -0.45478344 0.08134072 0.14046656
v -0.29772335 4.8805152E-05 0.19241628
v -0.43852508 0.08134072 0.1475923
v -0.29772335 0.16263263 0.19241628
v -0.29772335 4.8805152E-05 0.19241628
v -0.43852508 -0.08124311 0.1475923
v -0.43852508 0.08134072 0.1475923
v -0.29772335 4.8805152E-05 0.19241628
v -0.29772335 -0.16253501 0.19241628
v -0.43852508 -0.08124311 0.1475923
v -0.29772335 4.8805152E-05 0.19241628
v -0.15692163 -0.08124311 0.22047786
v -0.29772335 -0.16253501 0.19241628
v -0.29772335 4.8805152E-05 0.19241628
v -0.15692163 0.08134072 0.22047786
v -0.15692163 -0.08124311 0.22047786
v -0.29772335 4.8805152E-05 0.19241628
v -0.29772335 0.16263263 0.19241628
v -0.15692163 0.08134072 0.22047786
v 0.00013849617 4.8805152E-05 0.22074585
v -0.14066325 0.08134072 0.22074585
v 0.00013849617 0.16263263 0.22074585
v 0.00013849617 4.8805152E-05 0.22074585
v -0.14066325 -0.08124311 0.22074585
v -0.14066325 0.08134072 0.22074585
v 0.00013849617 4.8805152E-05 0.22074585
v 0.00013849617 -0.16253501 0.22074585
v -0.14066325 -0.08124311 0.22074585
v 0.00013849617 4.8805152E-05 0.22074585
v 0.14094025 -0.08124311 0.22074585
v 0.00013849617 -0.16253501 0.22074585
v 0.00013849617 4.8805152E-05 0.22074585
v 0.14094025 0.08134072 0.22074585
v 0.14094025 -0.08124311 0.22074585
v 0.00013849617 4.8805152E-05 0.22074585
v 0.00013849617 0.16263263 0.22074585
v 0.14094025 0.08134072 0.22074585
v 0.29800034 4.8805152E-05 0.19241628
v 0.15719862 0.08134072 0.22047786
v 0.29800034 0.16263263 0.19241628
v 0.29800034 4.8805152E-05 0.19241628
v 0.15719862 -0.08124311 0.22047786
v 0.15719862 0.08134072 0.22047786
v 0.29800034 4.8805152E-05 0.19241628
v 0.29800034 -0.16253501 0.19241628
v 0.15719862 -0.08124311 0.22047786
v 0.29800034 4.8805152E-05 0.19241628
v 0.43880212 -0.08124311 0.1475923
v 0.29800034 -0.16253501 0.19241628
v 0.29800034 4.8805152E-05 0.19241628
v 0.43880212 0.08134072 0.1475923
v 0.43880212 -0.08124311 0.1475923
v 0.29800034 4.8805152E-05 0.19241628
v 0.29800034 0.16263263 0.19241628
v 0.43880212 0.08134072 0.1475923
v 0.59586215 4.8805152E-05 0.06827467
v 0.45506042 0.08134072 0.14046656
v 0.59586215 0.16263263 0.06827467
v 0.59586215 4.8805152E-05 0.06827467
v 0.45506042 -0.08124311 0.14046656
v 0.45506042 0.08134072 0.14046656
v 0.59586215 4.8805152E-05 0.06827467
v 0.59586215 -0.16253501 0.06827467
v 0.45506042 -0.08124311 0.14046656
v 0.59586215 4.8805152E-05 0.06827467
v 0.73666394 -0.08124311 -0.0005816897
v 0.59586215 -0.16253501 0.06827467
v 0.59586215 4.8805152E-05 0.06827467
v 0.73666394 0.08134072 -0.0005816897
v 0.73666394 -0.08124311 -0.0005816897
v 0.59586215 4.8805152E-05 0.06827467
v 0.59586215 0.16263263 0.06827467
v 0.73666394 0.08134072 -0.0005816897
v -0.44650167 0.2577704 0.12258836
v -0.5873034 0.33906227 0.04051747
v -0.44650167 0.4203542 0.071136296
v -0.44650167 0.2577704 0.12258836
v -0.5873034 0.17647846 0.0710961
v -0.5873034 0.33906227 0.04051747
v -0.44650167 0.2577704 0.12258836
v -0.44650167 0.095186554 0.14398986
v -0.5873034 0.17647846 0.0710961
v -0.44650167 0.2577704 0.12258836
v -0.30569994 0.17647846 0.18821275
v -0.44650167 0.095186554 0.14398986
v -0.44650167 0.2577704 0.12258836
v -0.30569994 0.33906227 0.144041
v -0.30569994 0.17647846 0.18821275
v -0.44650167 0.2577704 0.12258836
v -0.44650167 0.4203542 0.071136296
v -0.30569994 0.33906227 0.144041
v -0.14863984 0.2577704 0.19249643
v -0.28944156 0.33906227 0.1477168
v -0.14863984 0.4203542 0.1477168
v -0.14863984 0.2577704 0.19249643
v -0.28944156 0.17647846 0.19249643
v -0.28944156 0.33906227 0.1477168
v -0.14863984 0.2577704 0.19249643
v -0.14863984 0.095186554 0.22049093
v -0.28944156 0.17647846 0.19249643
v -0.14863984 0.2577704 0.19249643
v -0.0078381235 0.17647846 0.22049093
v -0.14863984 0.095186554 0.22049093
v -0.14863984 0.2577704 0.19249643
v -0.0078381235 0.33906227 0.19249241
v -0.0078381235 0.17647846 0.22049093
v -0.14863984 0.2577704 0.19249643
v -0.14863984 0.4203542 0.1477168
v -0.0078381235 0.33906227 0.19249241
v 0.149222 0.2577704 0.19248812
v 0.008420259 0.33906227 0.19248812
v 0.149222 0.4203542 0.14765099
v 0.149222 0.2577704 0.19248812
v 0.008420259 0.17647846 0.22048593
v 0.008420259 0.33906227 0.19248812
v 0.149222 0.2577704 0.19248812
v 0.149222 0.095186554 0.22048593
v 0.008420259 0.17647846 0.22048593
v 0.149222 0.2577704 0.19248812
v 0.2900238 0.17647846 0.19241948
v 0.149222 0.095186554 0.22048593
v 0.149222 0.2577704 0.19248812
v 0.2900238 0.33906227 0.14765093
v 0.2900238 0.17647846 0.19241948
v 0.149222 0.2577704 0.19248812
v 0.149222 0.4203542 0.14765099
v 0.2900238 0.33906227 0.14765093
v 0.4470838 0.2577704 0.122463584
v 0.3062822 0.33906227 0.14396876
v 0.4470838 0.4203542 0.07103107
v 0.4470838 0.2577704 0.122463584
v 0.3062822 0.17647846 0.18812877
v 0.3062822 0.33906227 0.14396876
v 0.4470838 0.2577704 0.122463584
v 0.4470838 0.095186554 0.14385627
v 0.3062822 0.17647846 0.18812877
v 0.4470838 0.2577704 0.122463584
v 0.5878856 0.17647846 0.07094244
v 0.4470838 0.095186554 0.14385627
v 0.4470838 0.2577704 0.122463584
v 0.5878856 0.33906227 0.040380187
v 0.5878856 0.17647846 0.07094244
v 0.4470838 0.2577704 0.122463584
v 0.4470838 0.4203542 0.07103107
v 0.5878856 0.33906227 0.040380187
v -0.44650167 -0.25767457 0.12258803
v -0.5873034 -0.17638265 0.071095884
v -0.44650167 -0.09509074 0.14398989
v -0.44650167 -0.25767457 0.12258803
v -0.5873034 -0.3389665 0.040516987
v -0.5873034 -0.17638265 0.071095884
v -0.44650167 -0.25767457 0.12258803
v -0.44650167 -0.42025843 0.07113562
v -0.5873034 -0.3389665 0.040516987
v -0.44650167 -0.25767457 0.12258803
v -0.30569994 -0.3389665 0.14404032
v -0.44650167 -0.42025843 0.07113562
v -0.44650167 -0.25767457 0.12258803
v -0.30569994 -0.17638265 0.18821248
v -0.30569994 -0.3389665 0.14404032
v -0.44650167 -0.25767457 0.12258803
v -0.44650167 -0.09509074 0.14398989
v -0.30569994 -0.17638265 0.18821248
v -0.14863984 -0.25767457 0.1924962
v -0.28944156 -0.17638265 0.1924962
v -0.14863984 -0.09509074 0.2204909
v -0.14863984 -0.25767457 0.1924962
v -0.28944156 -0.3389665 0.14771613
v -0.28944156 -0.17638265 0.1924962
v -0.14863984 -0.25767457 0.1924962
v -0.14863984 -0.42025843 0.1477161
v -0.28944156 -0.3389665 0.14771613
v -0.14863984 -0.25767457 0.1924962
v -0.0078381235 -0.3389665 0.19249183
v -0.14863984 -0.42025843 0.1477161
v -0.14863984 -0.25767457 0.1924962
v -0.0078381235 -0.17638265 0.2204909
v -0.0078381235 -0.3389665 0.19249183
v -0.14863984 -0.25767457 0.1924962
v -0.14863984 -0.09509074 0.2204909
v -0.0078381235 -0.17638265 0.2204909
v 0.149222 -0.25767457 0.19248767
v 0.008420259 -0.17638265 0.22048585
v 0.149222 -0.09509074 0.22048585
v 0.149222 -0.25767457 0.19248767
v 0.008420259 -0.3389665 0.19248767
v 0.008420259 -0.17638265 0.22048585
v 0.149222 -0.25767457 0.19248767
v 0.149222 -0.42025843 0.14765026
v 0.008420259 -0.3389665 0.19248767
v 0.149222 -0.25767457 0.19248767
v 0.2900238 -0.3389665 0.14765026
v 0.149222 -0.42025843 0.14765026
v 0.149222 -0.25767457 0.19248767
v 0.2900238 -0.17638265 0.19241919
v 0.2900238 -0.3389665 0.14765026
v 0.149222 -0.25767457 0.19248767
v 0.149222 -0.09509074 0.22048585
v 0.2900238 -0.17638265 0.19241919
v 0.4470838 -0.25767457 0.122463144
v 0.3062822 -0.17638265 0.18812847
v 0.4470838 -0.09509074 0.14385617
v 0.4470838 -0.25767457 0.122463144
v 0.3062822 -0.3389665 0.1439681
v 0.3062822 -0.17638265 0.18812847
v 0.4470838 -0.25767457 0.122463144
v 0.4470838 -0.42025843 0.07103034
v 0.3062822 -0.3389665 0.1439681
v 0.4470838 -0.25767457 0.122463144
v 0.5878856 -0.3389665 0.040379725
v 0.4470838 -0.42025843 0.07103034
v 0.4470838 -0.25767457 0.122463144
v 0.5878856 -0.17638265 0.07094222
v 0.5878856 -0.3389665 0.040379725
v 0.4470838 -0.25767457 0.122463144
v 0.4470838 -0.09509074 0.14385617
v 0.5878856 -0.17638265 0.07094222
v -0.2974665 -0.51536995 0.06856284
v -0.43826824 -0.43407807 0.06855843
v -0.2974665 -0.35278612 0.14071746
v -0.2974665 -0.51536995 0.06856284
v -0.43826824 -0.59666187 -0.00029834424
v -0.43826824 -0.43407807 0.06855843
v -0.2974665 -0.51536995 0.06856284
v -0.2974665 -0.6779538 -0.00029837145
v -0.43826824 -0.59666187 -0.00029834424
v -0.2974665 -0.51536995 0.06856284
v -0.1566648 -0.59666187 0.06856284
v -0.2974665 -0.6779538 -0.00029837145
v -0.2974665 -0.51536995 0.06856284
v -0.1566648 -0.43407807 0.14071746
v -0.1566648 -0.59666187 0.06856284
v -0.2974665 -0.51536995 0.06856284
v -0.2974665 -0.35278612 0.14071746
v -0.1566648 -0.43407807 0.14071746
v 0.000395345 -0.51536995 0.122703396
v -0.1404064 -0.43407807 0.1441621
v 0.000395345 -0.35278612 0.18828996
v 0.000395345 -0.51536995 0.122703396
v -0.1404064 -0.59666187 0.07127628
v -0.1404064 -0.43407807 0.1441621
v 0.000395345 -0.51536995 0.122703396
v 0.000395345 -0.6779538 0.040644042
v -0.1404064 -0.59666187 0.07127628
v 0.000395345 -0.51536995 0.122703396
v 0.14119703 -0.59666187 0.071194746
v 0.000395345 -0.6779538 0.040644042
v 0.000395345 -0.51536995 0.122703396
v 0.14119703 -0.43407807 0.14405845
v 0.14119703 -0.59666187 0.071194746
v 0.000395345 -0.51536995 0.122703396
v 0.000395345 -0.35278612 0.18828996
v 0.14119703 -0.43407807 0.14405845
v 0.2982572 -0.51536995 0.068472624
v 0.1574554 -0.43407807 0.14060315
v 0.2982572 -0.35278612 0.14060315
v 0.2982572 -0.51536995 0.068472624
v 0.1574554 -0.59666187 0.068472736
v 0.1574554 -0.43407807 0.14060315
v 0.2982572 -0.51536995 0.068472624
v 0.2982572 -0.6779538 -0.00042764941
v 0.1574554 -0.59666187 0.068472736
v 0.2982572 -0.51536995 0.068472624
v 0.439059 -0.59666187 -0.00042764941
v 0.2982572 -0.6779538 -0.00042764941
v 0.2982572 -0.51536995 0.068472624
v 0.439059 -0.43407807 0.06838756
v 0.439059 -0.59666187 -0.00042764941
v 0.2982572 -0.51536995 0.068472624
v 0.2982572 -0.35278612 0.14060315
v 0.439059 -0.43407807 0.06838756
v -0.2974665 0.5154115 0.06859001
v -0.43826824 0.5967034 -0.00027390828
v -0.2974665 0.67799526 -0.00027390828
v -0.2974665 0.5154115 0.06859001
v -0.43826824 0.43411955 0.068580486
v -0.43826824 0.5967034 -0.00027390828
v -0.2974665 0.5154115 0.06859001
v -0.2974665 0.35282767 0.14073908
v -0.43826824 0.43411955 0.068580486
v -0.2974665 0.5154115 0.06859001
v -0.1566648 0.43411955 0.14073905
v -0.2974665 0.35282767 0.14073908
v -0.2974665 0.5154115 0.06859001
v -0.1566648 0.5967034 0.06858998
v -0.1566648 0.43411955 0.14073905
v -0.2974665 0.5154115 0.06859001
v -0.2974665 0.67799526 -0.00027390828
v -0.1566648 0.5967034 0.06858998
v 0.000395345 0.5154115 0.12272992
v -0.1404064 0.5967034 0.07130377
v 0.000395345 0.67799526 0.040673174
v 0.000395345 0.5154115 0.12272992
v -0.1404064 0.43411955 0.1441839
v -0.1404064 0.5967034 0.07130377
v 0.000395345 0.5154115 0.12272992
v 0.000395345 0.35282767 0.1883077
v -0.1404064 0.43411955 0.1441839
v 0.000395345 0.5154115 0.12272992
v 0.14119703 0.43411955 0.1440803
v 0.000395345 0.35282767 0.1883077
v 0.000395345 0.5154115 0.12272992
v 0.14119703 0.5967034 0.07122221
v 0.14119703 0.43411955 0.1440803
v 0.000395345 0.5154115 0.12272992
v 0.000395345 0.67799526 0.040673174
v 0.14119703 0.5967034 0.07122221
v 0.2982572 0.5154115 0.06849988
v 0.1574554 0.5967034 0.06849988
v 0.2982572 0.67799526 -0.00040326788
v 0.2982572 0.5154115 0.06849988
v 0.1574554 0.43411955 0.14062472
v 0.1574554 0.5967034 0.06849988
v 0.2982572 0.5154115 0.06849988
v 0.2982572 0.35282767 0.14062472
v 0.1574554 0.43411955 0.14062472
v 0.2982572 0.5154115 0.06849988
v 0.439059 0.43411955 0.06840959
v 0.2982572 0.35282767 0.14062472
v 0.2982572 0.5154115 0.06849988
v 0.439059 0.5967034 -0.00040322708
v 0.439059 0.43411955 0.06840959
v 0.2982572 0.5154115 0.06849988
v 0.2982572 0.67799526 -0.00040326788
v 0.439059 0.5967034 -0.00040322708
vt 0.5000001 0.9999999
vt 0.99996424 -1.4901161E-08
vt 3.6090612E-05 -1.4901161E-08
vt 0.5000001 0.9999999
vt 0.99996424 -1.4901161E-08
vt 3.6090612E-05 -1.4901161E-08
vt 0.5000001 0.9999999
vt 0.99996424 -1.4901161E-08
vt 3.6090612E-05 -1.4901161E-08
vt 0.5000001 0.9999999
vt 0.99996424 -1.4901161E-08
vt 3.6090612E-05 -1.4901161E-08
vt 0.5000001 0.9999999
vt 0.99996424 -1.4901161E-08
vt 3.6090612E-05 -1.4901161E-08
vt 0.5000001 0.9999999
vt 0.99996424 -1.4901161E-08
vt 3.6090612E-05 -1.4901161E-08
vt 0.5000001 0.9999999
vt 0.99996424 -1.4901161E-08
vt 3.6090612E-05 -1.4901161E-08
vt 0.5000001 0.9999999
vt 0.99996424 -1.4901161E-08
vt 3.6090612E-05 -1.4901161E-08
vt 0.5000001 0.9999999
vt 0.99996424 -1.4901161E-08
vt 3.6090612E-05 -1.4901161E-08
vt 0.5000001 0.9999999
vt 0.99996424 -1.4901161E-08
vt 3.6090612E-05 -1.4901161E-08
vt 0.5000001 0.9999999
vt 0.99996424 -1.4901161E-08
vt 3.6090612E-05 -1.4901161E-08
vt 0.5000001 0.9999999
vt 0.99996424 -1.4901161E-08
vt 3.6090612E-05 -1.4901161E-08
vt 0.5000001 0.9999999
vt 0.99996424 -1.4901161E-08
vt 3.6090612E-05 -1.4901161E-08
vt 0.5000001 0.9999999
vt 0.99996424 -1.4901161E-08
vt 3.6090612E-05 -1.4901161E-08
vt 0.5000001 0.9999999
vt 0.99996424 -1.4901161E-08
vt 3.6090612E-05 -1.4901161E-08
vt 0.5000001 0.9999999
vt 0.99996424 -1.4901161E-08
vt 3.6090612E-05 -1.4901161E-08
vt 0.5000001 0.9999999
vt 0.99996424 -1.4901161E-08
vt 3.6090612E-05 -1.4901161E-08
vt 0.5000001 0.9999999
vt 0.99996424 -1.4901161E-08
vt 3.6090612E-05 -1.4901161E-08
vt 0.5000001 0.9999999
vt 0.99996424 -1.4901161E-08
vt 3.6090612E-05 -1.4901161E-08
vt 0.5000001 0.9999999
vt 0.99996424 -1.4901161E-08
vt 3.6090612E-05 -1.4901161E-08
vt 0.5000001 0.9999999
vt 0.99996424 -1.4901161E-08
vt 3.6090612E-05 -1.4901161E-08
vt 0.5000001 0.9999999
vt 0.99996424 -1.4901161E-08
vt 3.6090612E-05 -1.4901161E-08
vt 0.5000001 0.9999999
vt 0.99996424 -1.4901161E-08
vt 3.6090612E-05 -1.4901161E-08
vt 0.5000001 0.9999999
vt 0.99996424 -1.4901161E-08
vt 3.6090612E-05 -1.4901161E-08
vt 0.5000001 0.9999999
vt 0.99996424 -1.4901161E-08
vt 3.6090612E-05 -1.4901161E-08
vt 0.5000001 0.9999999
vt 0.99996424 -1.4901161E-08
vt 3.6090612E-05 -1.4901161E-08
vt 0.5000001 0.9999999
vt 0.99996424 -1.4901161E-08
vt 3.6090612E-05 -1.4901161E-08
vt 0.5000001 0.9999999
vt 0.99996424 -1.4901161E-08
vt 3.6090612E-05 -1.4901161E-08
vt 0.5000001 0.9999999
vt 0.99996424 -1.4901161E-08
vt 3.6090612E-05 -1.4901161E-08
vt 0.5000001 0.9999999
vt 0.99996424 -1.4901161E-08
vt 3.6090612E-05 -1.4901161E-08
vt 0.5000001 0.9999999
vt 0.99996424 -1.4901161E-08
vt 3.6090612E-05 -1.4901161E-08
vt 0.5000001 0.9999999
vt 0.99996424 -1.4901161E-08
vt 3.6090612E-05 -1.4901161E-08
vt 0.5000001 0.9999999
vt 0.99996424 -1.4901161E-08
vt 3.6090612E-05 -1.4901161E-08
vt 0.5000001 0.9999999
vt 0.99996424 -1.4901161E-08
vt 3.6090612E-05 -1.4901161E-08
vt 0.5000001 0.9999999
vt 0.99996424 -1.4901161E-08
vt 3.6090612E-05 -1.4901161E-08
vt 0.5000001 0.9999999
vt 0.99996424 -1.4901161E-08
vt 3.6090612E-05 -1.4901161E-08
vt 0.5000001 0.9999999
vt 0.99996424 -1.4901161E-08
vt 3.6090612E-05 -1.4901161E-08
vt 0.5000001 0.9999999
vt 0.99996424 -1.4901161E-08
vt 3.6090612E-05 -1.4901161E-08
vt 0.5000001 0.9999999
vt 0.99996424 -1.4901161E-08
vt 3.6090612E-05 -1.4901161E-08
vt 0.5000001 0.9999999
vt 0.99996424 -1.4901161E-08
vt 3.6090612E-05 -1.4901161E-08
vt 0.5000001 0.9999999
vt 0.99996424 -1.4901161E-08
vt 3.6090612E-05 -1.4901161E-08
vt 0.5000001 0.9999999
vt 0.99996424 -1.4901161E-08
vt 3.6090612E-05 -1.4901161E-08
vt 0.5000001 0.9999999
vt 0.99996424 -1.4901161E-08
vt 3.6090612E-05 -1.4901161E-08
vt 0.5000001 0.9999999
vt 0.99996424 -1.4901161E-08
vt 3.6090612E-05 -1.4901161E-08
vt 0.5000001 0.9999999
vt 0.99996424 -1.4901161E-08
vt 3.6090612E-05 -1.4901161E-08
vt 0.5000001 0.9999999
vt 0.99996424 -1.4901161E-08
vt 3.6090612E-05 -1.4901161E-08
vt 0.5000001 0.9999999
vt 0.99996424 -1.4901161E-08
vt 3.6090612E-05 -1.4901161E-08
vt 0.5000001 0.9999999
vt 0.99996424 -1.4901161E-08
vt 3.6090612E-05 -1.4901161E-08
vt 0.5000001 0.9999999
vt 0.99996424 -1.4901161E-08
vt 3.6090612E-05 -1.4901161E-08
vt 0.5000001 0.9999999
vt 0.99996424 -1.4901161E-08
vt 3.6090612E-05 -1.4901161E-08
vt 0.5000001 0.9999999
vt 0.99996424 -1.4901161E-08
vt 3.6090612E-05 -1.4901161E-08
vt 0.5000001 0.9999999
vt 0.99996424 -1.4901161E-08
vt 3.6090612E-05 -1.4901161E-08
vt 0.5000001 0.9999999
vt 0.99996424 -1.4901161E-08
vt 3.6090612E-05 -1.4901161E-08
vt 0.5000001 0.9999999
vt 0.99996424 -1.4901161E-08
vt 3.6090612E-05 -1.4901161E-08
vt 0.5000001 0.9999999
vt 0.99996424 -1.4901161E-08
vt 3.6090612E-05 -1.4901161E-08
vt 0.5000001 0.9999999
vt 0.99996424 -1.4901161E-08
vt 3.6090612E-05 -1.4901161E-08
vt 0.5000001 0.9999999
vt 0.99996424 -1.4901161E-08
vt 3.6090612E-05 -1.4901161E-08
vt 0.5000001 0.9999999
vt 0.99996424 -1.4901161E-08
vt 3.6090612E-05 -1.4901161E-08
vt 0.5000001 0.9999999
vt 0.99996424 -1.4901161E-08
vt 3.6090612E-05 -1.4901161E-08
vt 0.5000001 0.9999999
vt 0.99996424 -1.4901161E-08
vt 3.6090612E-05 -1.4901161E-08
vt 0.5000001 0.9999999
vt 0.99996424 -1.4901161E-08
vt 3.6090612E-05 -1.4901161E-08
vt 0.5000001 0.9999999
vt 0.99996424 -1.4901161E-08
vt 3.6090612E-05 -1.4901161E-08
vt 0.5000001 0.9999999
vt 0.99996424 -1.4901161E-08
vt 3.6090612E-05 -1.4901161E-08
vt 0.5000001 0.9999999
vt 0.99996424 -1.4901161E-08
vt 3.6090612E-05 -1.4901161E-08
vt 0.5000001 0.9999999
vt 0.99996424 -1.4901161E-08
vt 3.6090612E-05 -1.4901161E-08
vt 0.5000001 0.9999999
vt 0.99996424 -1.4901161E-08
vt 3.6090612E-05 -1.4901161E-08
vt 0.5000001 0.9999999
vt 0.99996424 -1.4901161E-08
vt 3.6090612E-05 -1.4901161E-08
vt 0.5000001 0.9999999
vt 0.99996424 -1.4901161E-08
vt 3.6090612E-05 -1.4901161E-08
vt 0.5000001 0.9999999
vt 0.99996424 -1.4901161E-08
vt 3.6090612E-05 -1.4901161E-08
vt 0.5000001 0.9999999
vt 0.99996424 -1.4901161E-08
vt 3.6090612E-05 -1.4901161E-08
vt 0.5000001 0.9999999
vt 0.99996424 -1.4901161E-08
vt 3.6090612E-05 -1.4901161E-08
vt 0.5000001 0.9999999
vt 0.99996424 -1.4901161E-08
vt 3.6090612E-05 -1.4901161E-08
vt 0.5000001 0.9999999
vt 0.99996424 -1.4901161E-08
vt 3.6090612E-05 -1.4901161E-08
vt 0.5000001 0.9999999
vt 0.99996424 -1.4901161E-08
vt 3.6090612E-05 -1.4901161E-08
vt 0.5000001 0.9999999
vt 0.99996424 -1.4901161E-08
vt 3.6090612E-05 -1.4901161E-08
vt 0.5000001 0.9999999
vt 0.99996424 -1.4901161E-08
vt 3.6090612E-05 -1.4901161E-08
vt 0.5000001 0.9999999
vt 0.99996424 -1.4901161E-08
vt 3.6090612E-05 -1.4901161E-08
vt 0.5000001 0.9999999
vt 0.99996424 -1.4901161E-08
vt 3.6090612E-05 -1.4901161E-08
vt 0.5000001 0.9999999
vt 0.99996424 -1.4901161E-08
vt 3.6090612E-05 -1.4901161E-08
vt 0.5000001 0.9999999
vt 0.99996424 -1.4901161E-08
vt 3.6090612E-05 -1.4901161E-08
vt 0.5000001 0.9999999
vt 0.99996424 -1.4901161E-08
vt 3.6090612E-05 -1.4901161E-08
vt 0.5000001 0.9999999
vt 0.99996424 -1.4901161E-08
vt 3.6090612E-05 -1.4901161E-08
vt 0.5000001 0.9999999
vt 0.99996424 -1.4901161E-08
vt 3.6090612E-05 -1.4901161E-08
vt 0.5000001 0.9999999
vt 0.99996424 -1.4901161E-08
vt 3.6090612E-05 -1.4901161E-08
vt 0.5000001 0.9999999
vt 0.99996424 -1.4901161E-08
vt 3.6090612E-05 -1.4901161E-08
vt 0.5000001 0.9999999
vt 0.99996424 -1.4901161E-08
vt 3.6090612E-05 -1.4901161E-08
vt 0.5000001 0.9999999
vt 0.99996424 -1.4901161E-08
vt 3.6090612E-05 -1.4901161E-08
vt 0.5000001 0.9999999
vt 0.99996424 -1.4901161E-08
vt 3.6090612E-05 -1.4901161E-08
vt 0.5000001 0.9999999
vt 0.99996424 -1.4901161E-08
vt 3.6090612E-05 -1.4901161E-08
vt 0.5000001 0.9999999
vt 0.99996424 -1.4901161E-08
vt 3.6090612E-05 -1.4901161E-08
vt 0.5000001 0.9999999
vt 0.99996424 -1.4901161E-08
vt 3.6090612E-05 -1.4901161E-08
vt 0.5000001 0.9999999
vt 0.99996424 -1.4901161E-08
vt 3.6090612E-05 -1.4901161E-08
vt 0.5000001 0.9999999
vt 0.99996424 -1.4901161E-08
vt 3.6090612E-05 -1.4901161E-08
vt 0.5000001 0.9999999
vt 0.99996424 -1.4901161E-08
vt 3.6090612E-05 -1.4901161E-08
vt 0.5000001 0.9999999
vt 0.99996424 -1.4901161E-08
vt 3.6090612E-05 -1.4901161E-08
vt 0.5000001 0.9999999
vt 0.99996424 -1.4901161E-08
vt 3.6090612E-05 -1.4901161E-08
vt 0.5000001 0.9999999
vt 0.99996424 -1.4901161E-08
vt 3.6090612E-05 -1.4901161E-08
vt 0.5000001 0.9999999
vt 0.99996424 -1.4901161E-08
vt 3.6090612E-05 -1.4901161E-08
vt 0.5000001 0.9999999
vt 0.99996424 -1.4901161E-08
vt 3.6090612E-05 -1.4901161E-08
vt 0.5000001 0.9999999
vt 0.99996424 -1.4901161E-08
vt 3.6090612E-05 -1.4901161E-08
vt 0.5000001 0.9999999
vt 0.99996424 -1.4901161E-08
vt 3.6090612E-05 -1.4901161E-08
vt 0.5000001 0.9999999
vt 0.99996424 -1.4901161E-08
vt 3.6090612E-05 -1.4901161E-08
vt 0.5000001 0.9999999
vt 0.99996424 -1.4901161E-08
vt 3.6090612E-05 -1.4901161E-08
vt 0.5000001 0.9999999
vt 0.99996424 -1.4901161E-08
vt 3.6090612E-05 -1.4901161E-08
vt 0.5000001 0.9999999
vt 0.99996424 -1.4901161E-08
vt 3.6090612E-05 -1.4901161E-08
vt 0.5000001 0.9999999
vt 0.99996424 -1.4901161E-08
vt 3.6090612E-05 -1.4901161E-08
vt 0.5000001 0.9999999
vt 0.99996424 -1.4901161E-08
vt 3.6090612E-05 -1.4901161E-08
vt 0.5000001 0.9999999
vt 0.99996424 -1.4901161E-08
vt 3.6090612E-05 -1.4901161E-08
vt 0.5000001 0.9999999
vt 0.99996424 -1.4901161E-08
vt 3.6090612E-05 -1.4901161E-08
vt 0.5000001 0.9999999
vt 0.99996424 -1.4901161E-08
vt 3.6090612E-05 -1.4901161E-08
vt 0.5000001 0.9999999
vt 0.99996424 -1.4901161E-08
vt 3.6090612E-05 -1.4901161E-08
vt 0.5000001 0.9999999
vt 0.99996424 -1.4901161E-08
vt 3.6090612E-05 -1.4901161E-08
vt 0.5000001 0.9999999
vt 0.99996424 -1.4901161E-08
vt 3.6090612E-05 -1.4901161E-08
vt 0.5000001 0.9999999
vt 0.99996424 -1.4901161E-08
vt 3.6090612E-05 -1.4901161E-08
vn -0.43931323 0 0.898334
vn -0.43931323 0 0.898334
vn -0.43931323 0 0.898334
vn -0.43931323 0 0.898334
vn -0.43931323 0 0.898334
vn -0.43931323 0 0.898334
vn -0.43931326 0 0.8983339
vn -0.43931326 0 0.8983339
vn -0.43931326 0 0.8983339
vn -0.45624587 0 0.8898538
vn -0.45624587 0 0.8898538
vn -0.45624587 0 0.8898538
vn -0.4562458 0 0.8898538
vn -0.4562458 0 0.8898538
vn -0.4562458 0 0.8898538
vn -0.45624587 0 0.8898538
vn -0.45624587 0 0.8898538
vn -0.45624587 0 0.8898538
vn -0.30334783 0 0.95287997
vn -0.30334783 0 0.95287997
vn -0.30334783 0 0.95287997
vn -0.3033473 0 0.95288
vn -0.3033473 0 0.95288
vn -0.3033473 0 0.95288
vn -0.30334783 0 0.95287997
vn -0.30334783 0 0.95287997
vn -0.30334783 0 0.95287997
vn -0.19545452 0 0.9807128
vn -0.19545452 0 0.9807128
vn -0.19545452 0 0.9807128
vn -0.1954549 0 0.98071265
vn -0.1954549 0 0.98071265
vn -0.1954549 0 0.98071265
vn -0.19545443 0 0.9807128
vn -0.19545443 0 0.9807128
vn -0.19545443 0 0.9807128
vn -0 0 1
vn -0 0 1
vn -0 0 1
vn -0 0 1
vn -0 0 1
vn -0 0 1
vn -1.333106E-07 0 1
vn -1.333106E-07 0 1
vn -1.333106E-07 0 1
vn 1.3331058E-07 0 1
vn 1.3331058E-07 0 1
vn 1.3331058E-07 0 1
vn -0 0 1
vn -0 0 1
vn -0 0 1
vn -0 0 1
vn -0 0 1
vn -0 0 1
vn 0.19545442 0 0.9807128
vn 0.19545442 0 0.9807128
vn 0.19545442 0 0.9807128
vn 0.1954549 0 0.98071265
vn 0.1954549 0 0.98071265
vn 0.1954549 0 0.98071265
vn 0.19545454 0 0.9807128
vn 0.19545454 0 0.9807128
vn 0.19545454 0 0.9807128
vn 0.30334765 0 0.95287997
vn 0.30334765 0 0.95287997
vn 0.30334765 0 0.95287997
vn 0.30334717 0 0.95288
vn 0.30334717 0 0.95288
vn 0.30334717 0 0.95288
vn 0.3033477 0 0.95287997
vn 0.3033477 0 0.95287997
vn 0.3033477 0 0.95287997
vn 0.456246 0 0.8898537
vn 0.456246 0 0.8898537
vn 0.456246 0 0.8898537
vn 0.45624593 0 0.8898538
vn 0.45624593 0 0.8898538
vn 0.45624593 0 0.8898538
vn 0.45624596 0 0.8898537
vn 0.45624596 0 0.8898537
vn 0.45624596 0 0.8898537
vn 0.43931267 0 0.8983342
vn 0.43931267 0 0.8983342
vn 0.43931267 0 0.8983342
vn 0.4393127 0 0.8983342
vn 0.4393127 0 0.8983342
vn 0.4393127 0 0.8983342
vn 0.4393127 0 0.8983342
vn 0.4393127 0 0.8983342
vn 0.4393127 0 0.8983342
vn -0.3564604 0.28189713 0.8907693
vn -0.3564604 0.28189713 0.8907693
vn -0.3564604 0.28189713 0.8907693
vn -0.42248043 0.16753234 0.8907543
vn -0.42248043 0.16753234 0.8907543
vn -0.42248043 0.16753234 0.8907543
vn -0.40114817 0.1195468 0.9081788
vn -0.40114817 0.1195468 0.9081788
vn -0.40114817 0.1195468 0.9081788
vn -0.36070612 0.121722125 0.9247025
vn -0.36070612 0.121722125 0.9247025
vn -0.36070612 0.121722125 0.9247025
vn -0.28594226 0.25123504 0.92472583
vn -0.28594226 0.25123504 0.92472583
vn -0.28594226 0.25123504 0.92472583
vn -0.3043061 0.2874078 0.9081821
vn -0.3043061 0.2874078 0.9081821
vn -0.3043061 0.2874078 0.9081821
vn -0.15153761 0.26247072 0.95296663
vn -0.15153761 0.26247072 0.95296663
vn -0.15153761 0.26247072 0.95296663
vn -0.15153754 0.26247075 0.95296663
vn -0.15153754 0.26247075 0.95296663
vn -0.15153754 0.26247075 0.95296663
vn -0.097502716 0.16887942 0.9808022
vn -0.097502716 0.16887942 0.9808022
vn -0.097502716 0.16887942 0.9808022
vn -0.09750247 0.16887946 0.9808022
vn -0.09750247 0.16887946 0.9808022
vn -0.09750247 0.16887946 0.9808022
vn -0.0974882 0.16890325 0.98079956
vn -0.0974882 0.16890325 0.98079956
vn -0.0974882 0.16890325 0.98079956
vn -0.15151073 0.26247174 0.9529706
vn -0.15151073 0.26247174 0.9529706
vn -0.15151073 0.26247174 0.9529706
vn 0.15171395 0.26277664 0.9528543
vn 0.15171395 0.26277664 0.9528543
vn 0.15171395 0.26277664 0.9528543
vn 0.0975139 0.1688987 0.9807977
vn 0.0975139 0.1688987 0.9807977
vn 0.0975139 0.1688987 0.9807977
vn 0.09751365 0.16889872 0.9807978
vn 0.09751365 0.16889872 0.9807978
vn 0.09751365 0.16889872 0.9807978
vn 0.09798705 0.16889085 0.980752
vn 0.09798705 0.16889085 0.980752
vn 0.09798705 0.16889085 0.980752
vn 0.15195733 0.26239327 0.95292115
vn 0.15195733 0.26239327 0.95292115
vn 0.15195733 0.26239327 0.95292115
vn 0.15171476 0.2627767 0.95285416
vn 0.15171476 0.2627767 0.95285416
vn 0.15171476 0.2627767 0.95285416
vn 0.30456594 0.28728342 0.9081343
vn 0.30456594 0.28728342 0.9081343
vn 0.30456594 0.28728342 0.9081343
vn 0.2862288 0.25115055 0.9246602
vn 0.2862288 0.25115055 0.9246602
vn 0.2862288 0.25115055 0.9246602
vn 0.36096662 0.1216595 0.9246091
vn 0.36096662 0.1216595 0.9246091
vn 0.36096662 0.1216595 0.9246091
vn 0.401283 0.11949098 0.9081266
vn 0.401283 0.11949098 0.9081266
vn 0.401283 0.11949098 0.9081266
vn 0.42259413 0.16743608 0.8907184
vn 0.42259413 0.16743608 0.8907184
vn 0.42259413 0.16743608 0.8907184
vn 0.3565942 0.2817842 0.89075154
vn 0.3565942 0.2817842 0.89075154
vn 0.3565942 0.2817842 0.89075154
vn -0.40114853 -0.11954867 0.9081783
vn -0.40114853 -0.11954867 0.9081783
vn -0.40114853 -0.11954867 0.9081783
vn -0.4224804 -0.16753379 0.8907541
vn -0.4224804 -0.16753379 0.8907541
vn -0.4224804 -0.16753379 0.8907541
vn -0.3564604 -0.28189883 0.89076877
vn -0.3564604 -0.28189883 0.89076877
vn -0.3564604 -0.28189883 0.89076877
vn -0.30430472 -0.28740954 0.90818185
vn -0.30430472 -0.28740954 0.90818185
vn -0.30430472 -0.28740954 0.90818185
vn -0.28594145 -0.25123736 0.92472553
vn -0.28594145 -0.25123736 0.92472553
vn -0.28594145 -0.25123736 0.92472553
vn -0.36070505 -0.12172409 0.9247027
vn -0.36070505 -0.12172409 0.9247027
vn -0.36070505 -0.12172409 0.9247027
vn -0.09750346 -0.16888063 0.9808019
vn -0.09750346 -0.16888063 0.9808019
vn -0.09750346 -0.16888063 0.9808019
vn -0.15153895 -0.26247314 0.9529658
vn -0.15153895 -0.26247314 0.9529658
vn -0.15153895 -0.26247314 0.9529658
vn -0.15153904 -0.26247317 0.9529658
vn -0.15153904 -0.26247317 0.9529658
vn -0.15153904 -0.26247317 0.9529658
vn -0.15150978 -0.26247442 0.9529701
vn -0.15150978 -0.26247442 0.9529701
vn -0.15150978 -0.26247442 0.9529701
vn -0.09748788 -0.16890648 0.98079896
vn -0.09748788 -0.16890648 0.98079896
vn -0.09748788 -0.16890648 0.98079896
vn -0.097503096 -0.16888066 0.980802
vn -0.097503096 -0.16888066 0.980802
vn -0.097503096 -0.16888066 0.980802
vn 0.09751464 -0.1689008 0.9807974
vn 0.09751464 -0.1689008 0.9807974
vn 0.09751464 -0.1689008 0.9807974
vn 0.09751488 -0.16890079 0.9807973
vn 0.09751488 -0.16890079 0.9807973
vn 0.09751488 -0.16890079 0.9807973
vn 0.15171504 -0.26277825 0.9528536
vn 0.15171504 -0.26277825 0.9528536
vn 0.15171504 -0.26277825 0.9528536
vn 0.15171498 -0.26277816 0.95285374
vn 0.15171498 -0.26277816 0.95285374
vn 0.15171498 -0.26277816 0.95285374
vn 0.1519577 -0.26239523 0.95292056
vn 0.1519577 -0.26239523 0.95292056
vn 0.1519577 -0.26239523 0.95292056
vn 0.09798765 -0.16889295 0.9807515
vn 0.09798765 -0.16889295 0.9807515
vn 0.09798765 -0.16889295 0.9807515
vn 0.3609664 -0.12166135 0.92460907
vn 0.3609664 -0.12166135 0.92460907
vn 0.3609664 -0.12166135 0.92460907
vn 0.28622854 -0.25115237 0.9246598
vn 0.28622854 -0.25115237 0.9246598
vn 0.28622854 -0.25115237 0.9246598
vn 0.30456558 -0.28728482 0.90813386
vn 0.30456558 -0.28728482 0.90813386
vn 0.30456558 -0.28728482 0.90813386
vn 0.3565935 -0.28178596 0.89075124
vn 0.3565935 -0.28178596 0.89075124
vn 0.3565935 -0.28178596 0.89075124
vn 0.42259353 -0.16743715 0.8907185
vn 0.42259353 -0.16743715 0.8907185
vn 0.42259353 -0.16743715 0.8907185
vn 0.40128255 -0.119492635 0.9081266
vn 0.40128255 -0.119492635 0.9081266
vn 0.40128255 -0.119492635 0.9081266
vn -0.22805604 -0.39495635 0.8899438
vn -0.22805604 -0.39495635 0.8899438
vn -0.22805604 -0.39495635 0.8899438
vn -0.21968433 -0.38045597 0.89832735
vn -0.21968433 -0.38045597 0.89832735
vn -0.21968433 -0.38045597 0.89832735
vn -0.21966884 -0.3804778 0.89832187
vn -0.21966884 -0.3804778 0.89832187
vn -0.21966884 -0.3804778 0.89832187
vn -0.21966903 -0.380478 0.8983218
vn -0.21966903 -0.380478 0.8983218
vn -0.21966903 -0.380478 0.8983218
vn -0.22802994 -0.3949592 0.8899492
vn -0.22802994 -0.3949592 0.8899492
vn -0.22802994 -0.3949592 0.8899492
vn -0.22802964 -0.3949588 0.8899495
vn -0.22802964 -0.3949588 0.8899495
vn -0.22802964 -0.3949588 0.8899495
vn -0.07444753 -0.3730702 0.9248115
vn -0.07444753 -0.3730702 0.9248115
vn -0.07444753 -0.3730702 0.9248115
vn -0.096654326 -0.40715677 0.90822977
vn -0.096654326 -0.40715677 0.90822977
vn -0.096654326 -0.40715677 0.90822977
vn -0.065780856 -0.44960582 0.89080155
vn -0.065780856 -0.44960582 0.89080155
vn -0.065780856 -0.44960582 0.89080155
vn 0.06629447 -0.4495905 0.8907712
vn 0.06629447 -0.4495905 0.8907712
vn 0.06629447 -0.4495905 0.8907712
vn 0.09725102 -0.40703014 0.90822285
vn 0.09725102 -0.40703014 0.90822285
vn 0.09725102 -0.40703014 0.90822285
vn 0.075124405 -0.3730511 0.9247644
vn 0.075124405 -0.3730511 0.9247644
vn 0.075124405 -0.3730511 0.9247644
vn 0.22796926 -0.39485458 0.8900112
vn 0.22796926 -0.39485458 0.8900112
vn 0.22796926 -0.39485458 0.8900112
vn 0.22796963 -0.39485422 0.89001125
vn 0.22796963 -0.39485422 0.89001125
vn 0.22796963 -0.39485422 0.89001125
vn 0.21977 -0.38065204 0.8982233
vn 0.21977 -0.38065204 0.8982233
vn 0.21977 -0.38065204 0.8982233
vn 0.21976946 -0.3806521 0.8982235
vn 0.21976946 -0.3806521 0.8982235
vn 0.21976946 -0.3806521 0.8982235
vn 0.22006713 -0.38022742 0.89833045
vn 0.22006713 -0.38022742 0.89833045
vn 0.22006713 -0.38022742 0.89833045
vn 0.2284788 -0.39480594 0.889902
vn 0.2284788 -0.39480594 0.889902
vn 0.2284788 -0.39480594 0.889902
vn -0.21967572 0.38048974 0.89831513
vn -0.21967572 0.38048974 0.89831513
vn -0.21967572 0.38048974 0.89831513
vn -0.21970917 0.3804424 0.898327
vn -0.21970917 0.3804424 0.898327
vn -0.21970917 0.3804424 0.898327
vn -0.22807293 0.39492953 0.8899513
vn -0.22807293 0.39492953 0.8899513
vn -0.22807293 0.39492953 0.8899513
vn -0.22801563 0.39493504 0.88996357
vn -0.22801563 0.39493504 0.88996357
vn -0.22801563 0.39493504 0.88996357
vn -0.22801568 0.394935 0.88996357
vn -0.22801568 0.394935 0.88996357
vn -0.22801568 0.394935 0.88996357
vn -0.21967591 0.3804899 0.8983151
vn -0.21967591 0.3804899 0.8983151
vn -0.21967591 0.3804899 0.8983151
vn -0.06578312 0.44959417 0.89080733
vn -0.06578312 0.44959417 0.89080733
vn -0.06578312 0.44959417 0.89080733
vn -0.096667506 0.4071296 0.9082405
vn -0.096667506 0.4071296 0.9082405
vn -0.096667506 0.4071296 0.9082405
vn -0.07445128 0.3730273 0.9248285
vn -0.07445128 0.3730273 0.9248285
vn -0.07445128 0.3730273 0.9248285
vn 0.07512793 0.37300825 0.9247814
vn 0.07512793 0.37300825 0.9247814
vn 0.07512793 0.37300825 0.9247814
vn 0.097264215 0.40700322 0.90823346
vn 0.097264215 0.40700322 0.90823346
vn 0.097264215 0.40700322 0.90823346
vn 0.066296875 0.4495789 0.890777
vn 0.066296875 0.4495789 0.890777
vn 0.066296875 0.4495789 0.890777
vn 0.21977694 0.38066483 0.8982163
vn 0.21977694 0.38066483 0.8982163
vn 0.21977694 0.38066483 0.8982163
vn 0.2279551 0.3948298 0.8900258
vn 0.2279551 0.3948298 0.8900258
vn 0.2279551 0.3948298 0.8900258
vn 0.22795495 0.39482996 0.89002573
vn 0.22795495 0.39482996 0.89002573
vn 0.22795495 0.39482996 0.89002573
vn 0.22849612 0.3947786 0.88990974
vn 0.22849612 0.3947786 0.88990974
vn 0.22849612 0.3947786 0.88990974
vn 0.22009246 0.38021374 0.8983301
vn 0.22009246 0.38021374 0.8983301
vn 0.22009246 0.38021374 0.8983301
vn 0.21977639 0.3806649 0.8982163
vn 0.21977639 0.3806649 0.8982163
vn 0.21977639 0.3806649 0.8982163
g Md_UNQ_Skillinvalid_00_0
f 3/3/3 2/2/2 1/1/1
f 6/6/6 5/5/5 4/4/4
f 9/9/9 8/8/8 7/7/7
f 12/12/12 11/11/11 10/10/10
f 15/15/15 14/14/14 13/13/13
f 18/18/18 17/17/17 16/16/16
f 21/21/21 20/20/20 19/19/19
f 24/24/24 23/23/23 22/22/22
f 27/27/27 26/26/26 25/25/25
f 30/30/30 29/29/29 28/28/28
f 33/33/33 32/32/32 31/31/31
f 36/36/36 35/35/35 34/34/34
f 39/39/39 38/38/38 37/37/37
f 42/42/42 41/41/41 40/40/40
f 45/45/45 44/44/44 43/43/43
f 48/48/48 47/47/47 46/46/46
f 51/51/51 50/50/50 49/49/49
f 54/54/54 53/53/53 52/52/52
f 57/57/57 56/56/56 55/55/55
f 60/60/60 59/59/59 58/58/58
f 63/63/63 62/62/62 61/61/61
f 66/66/66 65/65/65 64/64/64
f 69/69/69 68/68/68 67/67/67
f 72/72/72 71/71/71 70/70/70
f 75/75/75 74/74/74 73/73/73
f 78/78/78 77/77/77 76/76/76
f 81/81/81 80/80/80 79/79/79
f 84/84/84 83/83/83 82/82/82
f 87/87/87 86/86/86 85/85/85
f 90/90/90 89/89/89 88/88/88
f 93/93/93 92/92/92 91/91/91
f 96/96/96 95/95/95 94/94/94
f 99/99/99 98/98/98 97/97/97
f 102/102/102 101/101/101 100/100/100
f 105/105/105 104/104/104 103/103/103
f 108/108/108 107/107/107 106/106/106
f 111/111/111 110/110/110 109/109/109
f 114/114/114 113/113/113 112/112/112
f 117/117/117 116/116/116 115/115/115
f 120/120/120 119/119/119 118/118/118
f 123/123/123 122/122/122 121/121/121
f 126/126/126 125/125/125 124/124/124
f 129/129/129 128/128/128 127/127/127
f 132/132/132 131/131/131 130/130/130
f 135/135/135 134/134/134 133/133/133
f 138/138/138 137/137/137 136/136/136
f 141/141/141 140/140/140 139/139/139
f 144/144/144 143/143/143 142/142/142
f 147/147/147 146/146/146 145/145/145
f 150/150/150 149/149/149 148/148/148
f 153/153/153 152/152/152 151/151/151
f 156/156/156 155/155/155 154/154/154
f 159/159/159 158/158/158 157/157/157
f 162/162/162 161/161/161 160/160/160
f 165/165/165 164/164/164 163/163/163
f 168/168/168 167/167/167 166/166/166
f 171/171/171 170/170/170 169/169/169
f 174/174/174 173/173/173 172/172/172
f 177/177/177 176/176/176 175/175/175
f 180/180/180 179/179/179 178/178/178
f 183/183/183 182/182/182 181/181/181
f 186/186/186 185/185/185 184/184/184
f 189/189/189 188/188/188 187/187/187
f 192/192/192 191/191/191 190/190/190
f 195/195/195 194/194/194 193/193/193
f 198/198/198 197/197/197 196/196/196
f 201/201/201 200/200/200 199/199/199
f 204/204/204 203/203/203 202/202/202
f 207/207/207 206/206/206 205/205/205
f 210/210/210 209/209/209 208/208/208
f 213/213/213 212/212/212 211/211/211
f 216/216/216 215/215/215 214/214/214
f 219/219/219 218/218/218 217/217/217
f 222/222/222 221/221/221 220/220/220
f 225/225/225 224/224/224 223/223/223
f 228/228/228 227/227/227 226/226/226
f 231/231/231 230/230/230 229/229/229
f 234/234/234 233/233/233 232/232/232
f 237/237/237 236/236/236 235/235/235
f 240/240/240 239/239/239 238/238/238
f 243/243/243 242/242/242 241/241/241
f 246/246/246 245/245/245 244/244/244
f 249/249/249 248/248/248 247/247/247
f 252/252/252 251/251/251 250/250/250
f 255/255/255 254/254/254 253/253/253
f 258/258/258 257/257/257 256/256/256
f 261/261/261 260/260/260 259/259/259
f 264/264/264 263/263/263 262/262/262
f 267/267/267 266/266/266 265/265/265
f 270/270/270 269/269/269 268/268/268
f 273/273/273 272/272/272 271/271/271
f 276/276/276 275/275/275 274/274/274
f 279/279/279 278/278/278 277/277/277
f 282/282/282 281/281/281 280/280/280
f 285/285/285 284/284/284 283/283/283
f 288/288/288 287/287/287 286/286/286
f 291/291/291 290/290/290 289/289/289
f 294/294/294 293/293/293 292/292/292
f 297/297/297 296/296/296 295/295/295
f 300/300/300 299/299/299 298/298/298
f 303/303/303 302/302/302 301/301/301
f 306/306/306 305/305/305 304/304/304
f 309/309/309 308/308/308 307/307/307
f 312/312/312 311/311/311 310/310/310
f 315/315/315 314/314/314 313/313/313
f 318/318/318 317/317/317 316/316/316
f 321/321/321 320/320/320 319/319/319
f 324/324/324 323/323/323 322/322/322
f 327/327/327 326/326/326 325/325/325
f 330/330/330 329/329/329 328/328/328
f 333/333/333 332/332/332 331/331/331
f 336/336/336 335/335/335 334/334/334
f 339/339/339 338/338/338 337/337/337
f 342/342/342 341/341/341 340/340/340
