g Md_UNQ_LeafCylinder_00
v -0 -0.0626503 0.5058826
v -0.04958514 -0.0626503 0.5034467
v -0 0 0.51218855
v -0.05020321 0 0.50972223
v -0 -0.12375793 0.4871202
v -0.047746103 -0.12375793 0.4847746
v -0 -0.0626503 0.5058826
v -0.04958514 -0.0626503 0.5034467
v 3.0528785E-08 -0.18181823 0.45636332
v -0.044731352 -0.18181823 0.45416582
v -0 -0.12375793 0.4871202
v -0.047746103 -0.12375793 0.4847746
v -6.105757E-08 0.12375795 0.48712024
v -0.047746163 0.12375793 0.48477462
v 9.158636E-08 0.18181823 0.45636332
v -0.044731326 0.18181823 0.45416582
v -0 0.0626503 0.5058827
v -0.04958511 0.0626503 0.5034467
v -6.105757E-08 0.12375795 0.48712024
v -0.047746163 0.12375793 0.48477462
v -0 0 0.51218855
v -0.05020321 0 0.50972223
v -0 0.0626503 0.5058827
v -0.04958511 0.0626503 0.5034467
v -0.047746163 0.12375793 0.48477462
v -0.09503243 0.12375795 0.47776034
v -0.044731326 0.18181823 0.45416582
v -0.08903192 0.18181823 0.4475945
v -0.04958511 0.0626503 0.5034467
v -0.09869272 0.0626503 0.4961623
v -0.047746163 0.12375793 0.48477462
v -0.09503243 0.12375795 0.47776034
v -0.05020321 0 0.50972223
v -0.09992293 0 0.502347
v -0.04958511 0.0626503 0.5034467
v -0.09869272 0.0626503 0.4961623
v -0.04958514 -0.0626503 0.5034467
v -0.09869273 -0.0626503 0.4961623
v -0.05020321 0 0.50972223
v -0.09992293 0 0.502347
v -0.047746103 -0.12375793 0.4847746
v -0.09503236 -0.12375793 0.47776031
v -0.04958514 -0.0626503 0.5034467
v -0.09869273 -0.0626503 0.4961623
v -0.044731352 -0.18181823 0.45416582
v -0.08903195 -0.18181823 0.44759443
v -0.047746103 -0.12375793 0.4847746
v -0.09503236 -0.12375793 0.47776031
v -0.09869273 -0.0626503 0.4961623
v -0.14684987 -0.0626503 0.48409954
v -0.09992293 0 0.502347
v -0.14868034 -4.7683715E-09 0.4901339
v -0.09503236 -0.12375793 0.47776031
v -0.1414034 -0.12375793 0.466145
v -0.09869273 -0.0626503 0.4961623
v -0.14684987 -0.0626503 0.48409954
v -0.08903195 -0.18181823 0.44759443
v -0.13247512 -0.18181823 0.43671247
v -0.09503236 -0.12375793 0.47776031
v -0.1414034 -0.12375793 0.466145
v -0.09503243 0.12375795 0.47776034
v -0.14140348 0.12375795 0.466145
v -0.08903192 0.18181823 0.4475945
v -0.13247511 0.18181823 0.43671253
v -0.09869272 0.0626503 0.4961623
v -0.14684986 0.0626503 0.4840996
v -0.09503243 0.12375795 0.47776034
v -0.14140348 0.12375795 0.466145
v -0.09992293 0 0.502347
v -0.14868034 -4.7683715E-09 0.4901339
v -0.09869272 0.0626503 0.4961623
v -0.14684986 0.0626503 0.4840996
v -0.14140348 0.12375795 0.466145
v -0.18641274 0.12375794 0.4500404
v -0.13247511 0.18181823 0.43671253
v -0.17464246 0.18181822 0.42162478
v -0.14684986 0.0626503 0.4840996
v -0.19359276 0.06265029 0.46737468
v -0.14140348 0.12375795 0.466145
v -0.18641274 0.12375794 0.4500404
v -0.14868034 -4.7683715E-09 0.4901339
v -0.19600591 -4.7683715E-09 0.4732006
v -0.14684986 0.0626503 0.4840996
v -0.19359276 0.06265029 0.46737468
v -0.14684987 -0.0626503 0.48409954
v -0.19359276 -0.06265031 0.46737468
v -0.14868034 -4.7683715E-09 0.4901339
v -0.19600591 -4.7683715E-09 0.4732006
v -0.1414034 -0.12375793 0.466145
v -0.18641265 -0.12375793 0.45004043
v -0.14684987 -0.0626503 0.48409954
v -0.19359276 -0.06265031 0.46737468
v -0.13247512 -0.18181823 0.43671247
v -0.17464249 -0.18181823 0.42162475
v -0.1414034 -0.12375793 0.466145
v -0.18641265 -0.12375793 0.45004043
v -0.19600591 -4.7683715E-09 0.4732006
v -0.24144378 -9.536743E-09 0.45171002
v -0.19359276 0.06265029 0.46737468
v -0.23847124 0.062650286 0.44614872
v -0.19359276 -0.06265031 0.46737468
v -0.23847124 -0.06265031 0.44614866
v -0.19600591 -4.7683715E-09 0.4732006
v -0.24144378 -9.536743E-09 0.45171002
v -0.18641265 -0.12375793 0.45004043
v -0.22962666 -0.12375794 0.4296017
v -0.19359276 -0.06265031 0.46737468
v -0.23847124 -0.06265031 0.44614866
v -0.17464249 -0.18181823 0.42162475
v -0.21512794 -0.18181825 0.40247658
v -0.18641265 -0.12375793 0.45004043
v -0.22962666 -0.12375794 0.4296017
v -0.18641274 0.12375794 0.4500404
v -0.22962674 0.12375793 0.42960167
v -0.17464246 0.18181822 0.42162478
v -0.21512792 0.18181823 0.40247658
v -0.19359276 0.06265029 0.46737468
v -0.23847124 0.062650286 0.44614872
v -0.18641274 0.12375794 0.4500404
v -0.22962674 0.12375793 0.42960167
v -0.22962674 0.12375793 0.42960167
v -0.27062932 0.12375793 0.40502566
v -0.21512792 0.18181823 0.40247658
v -0.2535416 0.18181823 0.37945232
v -0.23847124 0.062650286 0.44614872
v -0.28105313 0.06265028 0.4206261
v -0.22962674 0.12375793 0.42960167
v -0.27062932 0.12375793 0.40502566
v -0.24144378 -9.536743E-09 0.45171002
v -0.28455645 -1.4305114E-08 0.42586926
v -0.23847124 0.062650286 0.44614872
v -0.28105313 0.06265028 0.4206261
v -0.23847124 -0.06265031 0.44614866
v -0.28105307 -0.062650315 0.42062604
v -0.24144378 -9.536743E-09 0.45171002
v -0.28455645 -1.4305114E-08 0.42586926
v -0.22962666 -0.12375794 0.4296017
v -0.27062923 -0.12375795 0.40502566
v -0.23847124 -0.06265031 0.44614866
v -0.28105307 -0.062650315 0.42062604
v -0.21512794 -0.18181825 0.40247658
v -0.2535416 -0.18181825 0.37945232
v -0.22962666 -0.12375794 0.4296017
v -0.27062923 -0.12375795 0.40502566
v -0.28455645 -1.4305114E-08 0.42586926
v -0.3249287 -1.9073486E-08 0.3959272
v -0.28105313 0.06265028 0.4206261
v -0.32092834 0.06265028 0.39105266
v -0.28105307 -0.062650315 0.42062604
v -0.3209283 -0.062650315 0.39105263
v -0.28455645 -1.4305114E-08 0.42586926
v -0.3249287 -1.9073486E-08 0.3959272
v -0.27062923 -0.12375795 0.40502566
v -0.3090255 -0.12375795 0.3765491
v -0.28105307 -0.062650315 0.42062604
v -0.3209283 -0.062650315 0.39105263
v -0.2535416 -0.18181825 0.37945232
v -0.28951353 -0.18181825 0.3527737
v -0.27062923 -0.12375795 0.40502566
v -0.3090255 -0.12375795 0.3765491
v -0.27062932 0.12375793 0.40502566
v -0.3090256 0.12375793 0.37654907
v -0.2535416 0.18181823 0.37945232
v -0.28951353 0.18181822 0.35277373
v -0.28105313 0.06265028 0.4206261
v -0.32092834 0.06265028 0.39105266
v -0.27062932 0.12375793 0.40502566
v -0.3090256 0.12375793 0.37654907
v -0.28951353 -0.18181825 0.3527737
v -0.32269728 -0.18181825 0.32269767
v -0.3090255 -0.12375795 0.3765491
v -0.3444457 -0.12375795 0.3444461
v -0.3090256 0.12375793 0.37654907
v -0.34444577 0.12375791 0.34444606
v -0.28951353 0.18181822 0.35277373
v -0.32269728 0.18181822 0.32269776
v -0.32092834 0.06265028 0.39105266
v -0.35771278 0.06265027 0.3577132
v -0.3090256 0.12375793 0.37654907
v -0.34444577 0.12375791 0.34444606
v -0.3249287 -1.9073486E-08 0.3959272
v -0.36217165 -2.3841856E-08 0.36217213
v -0.32092834 0.06265028 0.39105266
v -0.35771278 0.06265027 0.3577132
v -0.3209283 -0.062650315 0.39105263
v -0.35771278 -0.06265032 0.35771316
v -0.3249287 -1.9073486E-08 0.3959272
v -0.36217165 -2.3841856E-08 0.36217213
v -0.3090255 -0.12375795 0.3765491
v -0.3444457 -0.12375795 0.3444461
v -0.3209283 -0.062650315 0.39105263
v -0.35771278 -0.06265032 0.35771316
v -0.35771278 0.06265027 0.3577132
v -0.39105228 0.06265026 0.32092872
v -0.34444577 0.12375791 0.34444606
v -0.37654877 0.12375791 0.30902582
v -0.36217165 -2.3841856E-08 0.36217213
v -0.39592677 -2.8610229E-08 0.32492915
v -0.35771278 0.06265027 0.3577132
v -0.39105228 0.06265026 0.32092872
v -0.35771278 -0.06265032 0.35771316
v -0.39105228 -0.06265032 0.3209287
v -0.36217165 -2.3841856E-08 0.36217213
v -0.39592677 -2.8610229E-08 0.32492915
v -0.3444457 -0.12375795 0.3444461
v -0.3765487 -0.12375796 0.3090259
v -0.35771278 -0.06265032 0.35771316
v -0.39105228 -0.06265032 0.3209287
v -0.32269728 -0.18181825 0.32269767
v -0.35277328 -0.18181828 0.28951392
v -0.3444457 -0.12375795 0.3444461
v -0.3765487 -0.12375796 0.3090259
v -0.34444577 0.12375791 0.34444606
v -0.37654877 0.12375791 0.30902582
v -0.32269728 0.18181822 0.32269776
v -0.35277328 0.1818182 0.289514
v -0.3765487 -0.12375796 0.3090259
v -0.40502527 -0.12375797 0.27062964
v -0.39105228 -0.06265032 0.3209287
v -0.42062572 -0.06265034 0.28105345
v -0.35277328 -0.18181828 0.28951392
v -0.37945187 -0.18181828 0.253542
v -0.3765487 -0.12375796 0.3090259
v -0.40502527 -0.12375797 0.27062964
v -0.37654877 0.12375791 0.30902582
v -0.40502536 0.12375791 0.27062958
v -0.35277328 0.1818182 0.289514
v -0.37945187 0.1818182 0.2535421
v -0.39105228 0.06265026 0.32092872
v -0.42062575 0.06265026 0.2810535
v -0.37654877 0.12375791 0.30902582
v -0.40502536 0.12375791 0.27062958
v -0.39592677 -2.8610229E-08 0.32492915
v -0.4258689 -3.8146972E-08 0.28455687
v -0.39105228 0.06265026 0.32092872
v -0.42062575 0.06265026 0.2810535
v -0.39105228 -0.06265032 0.3209287
v -0.42062572 -0.06265034 0.28105345
v -0.39592677 -2.8610229E-08 0.32492915
v -0.4258689 -3.8146972E-08 0.28455687
v -0.40502536 0.12375791 0.27062958
v -0.42960134 0.12375789 0.22962697
v -0.37945187 0.1818182 0.2535421
v -0.40247616 0.1818182 0.21512839
v -0.42062575 0.06265026 0.2810535
v -0.44614837 0.062650256 0.2384716
v -0.40502536 0.12375791 0.27062958
v -0.42960134 0.12375789 0.22962697
v -0.4258689 -3.8146972E-08 0.28455687
v -0.45170963 -4.2915342E-08 0.2414442
v -0.42062575 0.06265026 0.2810535
v -0.44614837 0.062650256 0.2384716
v -0.42062572 -0.06265034 0.28105345
v -0.44614834 -0.062650345 0.2384716
v -0.4258689 -3.8146972E-08 0.28455687
v -0.45170963 -4.2915342E-08 0.2414442
v -0.40502527 -0.12375797 0.27062964
v -0.4296013 -0.12375797 0.22962707
v -0.42062572 -0.06265034 0.28105345
v -0.44614834 -0.062650345 0.2384716
v -0.37945187 -0.18181828 0.253542
v -0.40247616 -0.18181828 0.21512835
v -0.40502527 -0.12375797 0.27062964
v -0.4296013 -0.12375797 0.22962707
v -0.44614834 -0.062650345 0.2384716
v -0.4673743 -0.06265035 0.1935931
v -0.45170963 -4.2915342E-08 0.2414442
v -0.47320017 -5.00679E-08 0.19600627
v -0.4296013 -0.12375797 0.22962707
v -0.45004 -0.12375799 0.18641308
v -0.44614834 -0.062650345 0.2384716
v -0.4673743 -0.06265035 0.1935931
v -0.40247616 -0.18181828 0.21512835
v -0.42162433 -0.18181829 0.17464288
v -0.4296013 -0.12375797 0.22962707
v -0.45004 -0.12375799 0.18641308
v -0.42960134 0.12375789 0.22962697
v -0.45004004 0.12375789 0.18641296
v -0.40247616 0.1818182 0.21512839
v -0.42162433 0.1818182 0.17464294
v -0.44614837 0.062650256 0.2384716
v -0.46737432 0.06265024 0.19359311
v -0.42960134 0.12375789 0.22962697
v -0.45004004 0.12375789 0.18641296
v -0.45170963 -4.2915342E-08 0.2414442
v -0.47320017 -5.00679E-08 0.19600627
v -0.44614837 0.062650256 0.2384716
v -0.46737432 0.06265024 0.19359311
v -0.45004004 0.12375789 0.18641296
v -0.46614462 0.123757884 0.14140368
v -0.42162433 0.1818182 0.17464294
v -0.43671206 0.18181817 0.13247557
v -0.46737432 0.06265024 0.19359311
v -0.48409918 0.06265024 0.14685021
v -0.45004004 0.12375789 0.18641296
v -0.46614462 0.123757884 0.14140368
v -0.47320017 -5.00679E-08 0.19600627
v -0.49013355 -5.7220458E-08 0.14868075
v -0.46737432 0.06265024 0.19359311
v -0.48409918 0.06265024 0.14685021
v -0.4673743 -0.06265035 0.1935931
v -0.48409912 -0.06265035 0.14685021
v -0.47320017 -5.00679E-08 0.19600627
v -0.49013355 -5.7220458E-08 0.14868075
v -0.45004 -0.12375799 0.18641308
v -0.46614456 -0.12375799 0.14140376
v -0.4673743 -0.06265035 0.1935931
v -0.48409912 -0.06265035 0.14685021
v -0.42162433 -0.18181829 0.17464288
v -0.43671203 -0.18181829 0.13247551
v -0.45004 -0.12375799 0.18641308
v -0.46614456 -0.12375799 0.14140376
v -0.48409912 -0.06265035 0.14685021
v -0.49616188 -0.06265037 0.09869308
v -0.49013355 -5.7220458E-08 0.14868075
v -0.50234663 -6.556511E-08 0.099923305
v -0.46614456 -0.12375799 0.14140376
v -0.4777599 -0.12375799 0.09503272
v -0.48409912 -0.06265035 0.14685021
v -0.49616188 -0.06265037 0.09869308
v -0.43671203 -0.18181829 0.13247551
v -0.447594 -0.18181829 0.089032345
v -0.46614456 -0.12375799 0.14140376
v -0.4777599 -0.12375799 0.09503272
v -0.46614462 0.123757884 0.14140368
v -0.47775996 0.12375788 0.09503261
v -0.43671206 0.18181817 0.13247557
v -0.44759402 0.18181817 0.0890324
v -0.48409918 0.06265024 0.14685021
v -0.4961619 0.06265023 0.098693065
v -0.46614462 0.123757884 0.14140368
v -0.47775996 0.12375788 0.09503261
v -0.49013355 -5.7220458E-08 0.14868075
v -0.50234663 -6.556511E-08 0.099923305
v -0.48409918 0.06265024 0.14685021
v -0.4961619 0.06265023 0.098693065
v -0.47775996 0.12375788 0.09503261
v -0.4847742 0.12375788 0.04774634
v -0.44759402 0.18181817 0.0890324
v -0.4541654 0.18181816 0.044731796
v -0.4961619 0.06265023 0.098693065
v -0.5034463 0.06265022 0.049585465
v -0.47775996 0.12375788 0.09503261
v -0.4847742 0.12375788 0.04774634
v -0.50234663 -6.556511E-08 0.099923305
v -0.5097219 -7.390976E-08 0.05020358
v -0.4961619 0.06265023 0.098693065
v -0.5034463 0.06265022 0.049585465
v -0.49616188 -0.06265037 0.09869308
v -0.5034463 -0.062650375 0.049585484
v -0.50234663 -6.556511E-08 0.099923305
v -0.5097219 -7.390976E-08 0.05020358
v -0.4777599 -0.12375799 0.09503272
v -0.48477408 -0.123757996 0.04774646
v -0.49616188 -0.06265037 0.09869308
v -0.5034463 -0.062650375 0.049585484
v -0.447594 -0.18181829 0.089032345
v -0.45416534 -0.1818183 0.04473175
v -0.4777599 -0.12375799 0.09503272
v -0.48477408 -0.123757996 0.04774646
v -0.5097219 -7.390976E-08 0.05020358
v -0.51218814 -8.235348E-08 3.530607E-07
v -0.5034463 0.06265022 0.049585465
v -0.50588226 0.06265022 3.236532E-07
v -0.5034463 -0.062650375 0.049585484
v -0.50588226 -0.062650375 3.480911E-07
v -0.5097219 -7.390976E-08 0.05020358
v -0.51218814 -8.235348E-08 3.530607E-07
v -0.48477408 -0.123757996 0.04774646
v -0.48711973 -0.12375801 3.7670134E-07
v -0.5034463 -0.062650375 0.049585484
v -0.50588226 -0.062650375 3.480911E-07
v -0.45416534 -0.1818183 0.04473175
v -0.45636287 -0.1818183 3.671646E-07
v -0.48477408 -0.123757996 0.04774646
v -0.48711973 -0.12375801 3.7670134E-07
v -0.4847742 0.12375788 0.04774634
v -0.48711982 0.12375786 2.4557113E-07
v -0.4541654 0.18181816 0.044731796
v -0.45636293 0.18181816 4.0769575E-07
v -0.5034463 0.06265022 0.049585465
v -0.50588226 0.06265022 3.236532E-07
v -0.4847742 0.12375788 0.04774634
v -0.48711982 0.12375786 2.4557113E-07
v -0.45636287 -0.1818183 3.671646E-07
v -0.45416534 -0.1818183 -0.044731013
v -0.48711973 -0.12375801 3.7670134E-07
v -0.48477408 -0.12375802 -0.04774571
v -0.48711982 0.12375786 2.4557113E-07
v -0.4847742 0.123757854 -0.047745846
v -0.45636293 0.18181816 4.0769575E-07
v -0.4541654 0.18181816 -0.044730976
v -0.50588226 0.06265022 3.236532E-07
v -0.5034463 0.0626502 -0.049584806
v -0.48711982 0.12375786 2.4557113E-07
v -0.4847742 0.123757854 -0.047745846
v -0.51218814 -8.235348E-08 3.530607E-07
v -0.5097218 -9.059906E-08 -0.05020286
v -0.50588226 0.06265022 3.236532E-07
v -0.5034463 0.0626502 -0.049584806
v -0.50588226 -0.062650375 3.480911E-07
v -0.5034463 -0.06265039 -0.04958478
v -0.51218814 -8.235348E-08 3.530607E-07
v -0.5097218 -9.059906E-08 -0.05020286
v -0.48711973 -0.12375801 3.7670134E-07
v -0.48477408 -0.12375802 -0.04774571
v -0.50588226 -0.062650375 3.480911E-07
v -0.5034463 -0.06265039 -0.04958478
v -0.5034463 0.0626502 -0.049584806
v -0.4961619 0.062650196 -0.0986924
v -0.4847742 0.123757854 -0.047745846
v -0.47775996 0.12375785 -0.09503212
v -0.5097218 -9.059906E-08 -0.05020286
v -0.5023466 -9.894371E-08 -0.09992259
v -0.5034463 0.0626502 -0.049584806
v -0.4961619 0.062650196 -0.0986924
v -0.5034463 -0.06265039 -0.04958478
v -0.49616188 -0.0626504 -0.09869238
v -0.5097218 -9.059906E-08 -0.05020286
v -0.5023466 -9.894371E-08 -0.09992259
v -0.48477408 -0.12375802 -0.04774571
v -0.47775984 -0.123758025 -0.09503196
v -0.5034463 -0.06265039 -0.04958478
v -0.49616188 -0.0626504 -0.09869238
v -0.45416534 -0.1818183 -0.044731013
v -0.44759396 -0.18181832 -0.089031614
v -0.48477408 -0.12375802 -0.04774571
v -0.47775984 -0.123758025 -0.09503196
v -0.4847742 0.123757854 -0.047745846
v -0.47775996 0.12375785 -0.09503212
v -0.4541654 0.18181816 -0.044730976
v -0.44759402 0.18181814 -0.08903158
v -0.44759396 -0.18181832 -0.089031614
v -0.436712 -0.18181832 -0.13247478
v -0.47775984 -0.123758025 -0.09503196
v -0.4661445 -0.12375804 -0.14140302
v -0.47775996 0.12375785 -0.09503212
v -0.46614462 0.12375784 -0.14140318
v -0.44759402 0.18181814 -0.08903158
v -0.43671206 0.18181814 -0.13247477
v -0.4961619 0.062650196 -0.0986924
v -0.48409924 0.062650196 -0.14684954
v -0.47775996 0.12375785 -0.09503212
v -0.46614462 0.12375784 -0.14140318
v -0.5023466 -9.894371E-08 -0.09992259
v -0.49013346 -1.0728836E-07 -0.14868
v -0.4961619 0.062650196 -0.0986924
v -0.48409924 0.062650196 -0.14684954
v -0.49616188 -0.0626504 -0.09869238
v -0.48409915 -0.062650405 -0.14684953
v -0.5023466 -9.894371E-08 -0.09992259
v -0.49013346 -1.0728836E-07 -0.14868
v -0.47775984 -0.123758025 -0.09503196
v -0.4661445 -0.12375804 -0.14140302
v -0.49616188 -0.0626504 -0.09869238
v -0.48409915 -0.062650405 -0.14684953
v -0.48409924 0.062650196 -0.14684954
v -0.46737432 0.06265018 -0.19359247
v -0.46614462 0.12375784 -0.14140318
v -0.45004 0.123757824 -0.18641244
v -0.49013346 -1.0728836E-07 -0.14868
v -0.47320014 -1.14440915E-07 -0.19600557
v -0.48409924 0.062650196 -0.14684954
v -0.46737432 0.06265018 -0.19359247
v -0.48409915 -0.062650405 -0.14684953
v -0.4673743 -0.06265041 -0.19359243
v -0.49013346 -1.0728836E-07 -0.14868
v -0.47320014 -1.14440915E-07 -0.19600557
v -0.4661445 -0.12375804 -0.14140302
v -0.45003992 -0.12375805 -0.18641227
v -0.48409915 -0.062650405 -0.14684953
v -0.4673743 -0.06265041 -0.19359243
v -0.436712 -0.18181832 -0.13247478
v -0.4216243 -0.18181832 -0.17464215
v -0.4661445 -0.12375804 -0.14140302
v -0.45003992 -0.12375805 -0.18641227
v -0.46614462 0.12375784 -0.14140318
v -0.45004 0.123757824 -0.18641244
v -0.43671206 0.18181814 -0.13247477
v -0.42162436 0.18181811 -0.17464215
v -0.45003992 -0.12375805 -0.18641227
v -0.42960125 -0.12375805 -0.22962628
v -0.4673743 -0.06265041 -0.19359243
v -0.44614828 -0.06265042 -0.23847091
v -0.4216243 -0.18181832 -0.17464215
v -0.40247616 -0.18181835 -0.2151276
v -0.45003992 -0.12375805 -0.18641227
v -0.42960125 -0.12375805 -0.22962628
v -0.45004 0.123757824 -0.18641244
v -0.4296013 0.12375782 -0.22962646
v -0.42162436 0.18181811 -0.17464215
v -0.4024762 0.18181811 -0.21512762
v -0.46737432 0.06265018 -0.19359247
v -0.44614834 0.062650174 -0.23847096
v -0.45004 0.123757824 -0.18641244
v -0.4296013 0.12375782 -0.22962646
v -0.47320014 -1.14440915E-07 -0.19600557
v -0.4517096 -1.2159347E-07 -0.24144346
v -0.46737432 0.06265018 -0.19359247
v -0.44614834 0.062650174 -0.23847096
v -0.4673743 -0.06265041 -0.19359243
v -0.44614828 -0.06265042 -0.23847091
v -0.47320014 -1.14440915E-07 -0.19600557
v -0.4517096 -1.2159347E-07 -0.24144346
v -0.4296013 0.12375782 -0.22962646
v -0.40502527 0.12375782 -0.27062902
v -0.4024762 0.18181811 -0.21512762
v -0.37945193 0.18181811 -0.25354126
v -0.44614834 0.062650174 -0.23847096
v -0.42062572 0.06265017 -0.28105283
v -0.4296013 0.12375782 -0.22962646
v -0.40502527 0.12375782 -0.27062902
v -0.4517096 -1.2159347E-07 -0.24144346
v -0.42586884 -1.2874602E-07 -0.28455612
v -0.44614834 0.062650174 -0.23847096
v -0.42062572 0.06265017 -0.28105283
v -0.44614828 -0.06265042 -0.23847091
v -0.4206257 -0.06265043 -0.2810528
v -0.4517096 -1.2159347E-07 -0.24144346
v -0.42586884 -1.2874602E-07 -0.28455612
v -0.42960125 -0.12375805 -0.22962628
v -0.40502524 -0.12375805 -0.27062887
v -0.44614828 -0.06265042 -0.23847091
v -0.4206257 -0.06265043 -0.2810528
v -0.40247616 -0.18181835 -0.2151276
v -0.37945187 -0.18181835 -0.25354126
v -0.42960125 -0.12375805 -0.22962628
v -0.40502524 -0.12375805 -0.27062887
v -0.40502524 -0.12375805 -0.27062887
v -0.37654862 -0.123758055 -0.30902514
v -0.4206257 -0.06265043 -0.2810528
v -0.39105225 -0.062650435 -0.320928
v -0.37945187 -0.18181835 -0.25354126
v -0.35277328 -0.18181837 -0.28951317
v -0.40502524 -0.12375805 -0.27062887
v -0.37654862 -0.123758055 -0.30902514
v -0.40502527 0.12375782 -0.27062902
v -0.3765487 0.12375782 -0.3090253
v -0.37945193 0.18181811 -0.25354126
v -0.35277334 0.18181811 -0.28951317
v -0.42062572 0.06265017 -0.28105283
v -0.39105228 0.06265017 -0.32092804
v -0.40502527 0.12375782 -0.27062902
v -0.3765487 0.12375782 -0.3090253
v -0.42586884 -1.2874602E-07 -0.28455612
v -0.39592677 -1.335144E-07 -0.3249283
v -0.42062572 0.06265017 -0.28105283
v -0.39105228 0.06265017 -0.32092804
v -0.4206257 -0.06265043 -0.2810528
v -0.39105225 -0.062650435 -0.320928
v -0.42586884 -1.2874602E-07 -0.28455612
v -0.39592677 -1.335144E-07 -0.3249283
v -0.3765487 0.12375782 -0.3090253
v -0.3444457 0.1237578 -0.34444544
v -0.35277334 0.18181811 -0.28951317
v -0.32269734 0.1818181 -0.32269698
v -0.39105228 0.06265017 -0.32092804
v -0.3577128 0.06265015 -0.35771248
v -0.3765487 0.12375782 -0.3090253
v -0.3444457 0.1237578 -0.34444544
v -0.39592677 -1.335144E-07 -0.3249283
v -0.3621717 -1.4305114E-07 -0.3621713
v -0.39105228 0.06265017 -0.32092804
v -0.3577128 0.06265015 -0.35771248
v -0.39105225 -0.062650435 -0.320928
v -0.35771278 -0.06265044 -0.35771242
v -0.39592677 -1.335144E-07 -0.3249283
v -0.3621717 -1.4305114E-07 -0.3621713
v -0.37654862 -0.123758055 -0.30902514
v -0.34444562 -0.12375806 -0.34444535
v -0.39105225 -0.062650435 -0.320928
v -0.35771278 -0.06265044 -0.35771242
v -0.35277328 -0.18181837 -0.28951317
v -0.32269728 -0.18181837 -0.3226969
v -0.37654862 -0.123758055 -0.30902514
v -0.34444562 -0.12375806 -0.34444535
v -0.35771278 -0.06265044 -0.35771242
v -0.3209283 -0.06265044 -0.3910519
v -0.3621717 -1.4305114E-07 -0.3621713
v -0.32492873 -1.4781952E-07 -0.39592636
v -0.34444562 -0.12375806 -0.34444535
v -0.30902547 -0.12375808 -0.3765483
v -0.35771278 -0.06265044 -0.35771242
v -0.3209283 -0.06265044 -0.3910519
v -0.32269728 -0.18181837 -0.3226969
v -0.2895135 -0.18181838 -0.35277286
v -0.34444562 -0.12375806 -0.34444535
v -0.30902547 -0.12375808 -0.3765483
v -0.3444457 0.1237578 -0.34444544
v -0.3090255 0.1237578 -0.3765484
v -0.32269734 0.1818181 -0.32269698
v -0.2895136 0.1818181 -0.35277292
v -0.3577128 0.06265015 -0.35771248
v -0.32092836 0.06265015 -0.391052
v -0.3444457 0.1237578 -0.34444544
v -0.3090255 0.1237578 -0.3765484
v -0.3621717 -1.4305114E-07 -0.3621713
v -0.32492873 -1.4781952E-07 -0.39592636
v -0.3577128 0.06265015 -0.35771248
v -0.32092836 0.06265015 -0.391052
v -0.3090255 0.1237578 -0.3765484
v -0.27062923 0.1237578 -0.40502506
v -0.2895136 0.1818181 -0.35277292
v -0.25354168 0.1818181 -0.3794515
v -0.32092836 0.06265015 -0.391052
v -0.28105316 0.062650144 -0.42062548
v -0.3090255 0.1237578 -0.3765484
v -0.27062923 0.1237578 -0.40502506
v -0.32492873 -1.4781952E-07 -0.39592636
v -0.28455648 -1.5258789E-07 -0.42586845
v -0.32092836 0.06265015 -0.391052
v -0.28105316 0.062650144 -0.42062548
v -0.3209283 -0.06265044 -0.3910519
v -0.28105307 -0.06265045 -0.42062533
v -0.32492873 -1.4781952E-07 -0.39592636
v -0.28455648 -1.5258789E-07 -0.42586845
v -0.30902547 -0.12375808 -0.3765483
v -0.2706292 -0.123758085 -0.4050249
v -0.3209283 -0.06265044 -0.3910519
v -0.28105307 -0.06265045 -0.42062533
v -0.2895135 -0.18181838 -0.35277286
v -0.2535416 -0.18181838 -0.37945142
v -0.30902547 -0.12375808 -0.3765483
v -0.2706292 -0.123758085 -0.4050249
v -0.28455648 -1.5258789E-07 -0.42586845
v -0.2414438 -1.5735625E-07 -0.45170915
v -0.28105316 0.062650144 -0.42062548
v -0.23847125 0.06265014 -0.44614807
v -0.28105307 -0.06265045 -0.42062533
v -0.23847121 -0.06265046 -0.44614795
v -0.28455648 -1.5258789E-07 -0.42586845
v -0.2414438 -1.5735625E-07 -0.45170915
v -0.2706292 -0.123758085 -0.4050249
v -0.2296266 -0.12375808 -0.42960092
v -0.28105307 -0.06265045 -0.42062533
v -0.23847121 -0.06265046 -0.44614795
v -0.2535416 -0.18181838 -0.37945142
v -0.2151279 -0.18181838 -0.40247568
v -0.2706292 -0.123758085 -0.4050249
v -0.2296266 -0.12375808 -0.42960092
v -0.27062923 0.1237578 -0.40502506
v -0.22962661 0.1237578 -0.42960104
v -0.25354168 0.1818181 -0.3794515
v -0.215128 0.18181808 -0.4024758
v -0.28105316 0.062650144 -0.42062548
v -0.23847125 0.06265014 -0.44614807
v -0.27062923 0.1237578 -0.40502506
v -0.22962661 0.1237578 -0.42960104
v -0.22962661 0.1237578 -0.42960104
v -0.18641257 0.12375779 -0.45003974
v -0.215128 0.18181808 -0.4024758
v -0.17464253 0.1818181 -0.42162403
v -0.23847125 0.06265014 -0.44614807
v -0.19359276 0.06265014 -0.46737394
v -0.22962661 0.1237578 -0.42960104
v -0.18641257 0.12375779 -0.45003974
v -0.2414438 -1.5735625E-07 -0.45170915
v -0.19600591 -1.5735625E-07 -0.4731997
v -0.23847125 0.06265014 -0.44614807
v -0.19359276 0.06265014 -0.46737394
v -0.23847121 -0.06265046 -0.44614795
v -0.1935927 -0.06265046 -0.46737388
v -0.2414438 -1.5735625E-07 -0.45170915
v -0.19600591 -1.5735625E-07 -0.4731997
v -0.2296266 -0.12375808 -0.42960092
v -0.18641257 -0.123758085 -0.4500396
v -0.23847121 -0.06265046 -0.44614795
v -0.1935927 -0.06265046 -0.46737388
v -0.2151279 -0.18181838 -0.40247568
v -0.17464243 -0.18181838 -0.42162392
v -0.2296266 -0.12375808 -0.42960092
v -0.18641257 -0.123758085 -0.4500396
v -0.19600591 -1.5735625E-07 -0.4731997
v -0.14868034 -1.6212464E-07 -0.49013305
v -0.19359276 0.06265014 -0.46737394
v -0.14684986 0.06265014 -0.48409885
v -0.1935927 -0.06265046 -0.46737388
v -0.1468498 -0.062650464 -0.48409873
v -0.19600591 -1.5735625E-07 -0.4731997
v -0.14868034 -1.6212464E-07 -0.49013305
v -0.18641257 -0.123758085 -0.4500396
v -0.1414033 -0.123758085 -0.46614417
v -0.1935927 -0.06265046 -0.46737388
v -0.1468498 -0.062650464 -0.48409873
v -0.17464243 -0.18181838 -0.42162392
v -0.13247506 -0.18181838 -0.4367116
v -0.18641257 -0.123758085 -0.4500396
v -0.1414033 -0.123758085 -0.46614417
v -0.18641257 0.12375779 -0.45003974
v -0.14140332 0.12375778 -0.46614432
v -0.17464253 0.1818181 -0.42162403
v -0.13247517 0.18181808 -0.43671167
v -0.19359276 0.06265014 -0.46737394
v -0.14684986 0.06265014 -0.48409885
v -0.18641257 0.12375779 -0.45003974
v -0.14140332 0.12375778 -0.46614432
v -0.13247506 -0.18181838 -0.4367116
v -0.0890319 -0.18181838 -0.44759357
v -0.1414033 -0.123758085 -0.46614417
v -0.09503223 -0.123758085 -0.4777595
v -0.14140332 0.12375778 -0.46614432
v -0.09503225 0.12375778 -0.47775963
v -0.13247517 0.18181808 -0.43671167
v -0.08903198 0.18181808 -0.44759363
v -0.14684986 0.06265014 -0.48409885
v -0.09869269 0.06265014 -0.49616152
v -0.14140332 0.12375778 -0.46614432
v -0.09503225 0.12375778 -0.47775963
v -0.14868034 -1.6212464E-07 -0.49013305
v -0.09992293 -1.6212464E-07 -0.50234616
v -0.14684986 0.06265014 -0.48409885
v -0.09869269 0.06265014 -0.49616152
v -0.1468498 -0.062650464 -0.48409873
v -0.09869266 -0.06265046 -0.49616146
v -0.14868034 -1.6212464E-07 -0.49013305
v -0.09992293 -1.6212464E-07 -0.50234616
v -0.1414033 -0.123758085 -0.46614417
v -0.09503223 -0.123758085 -0.4777595
v -0.1468498 -0.062650464 -0.48409873
v -0.09869266 -0.06265046 -0.49616146
v -0.09869269 0.06265014 -0.49616152
v -0.049585078 0.06265013 -0.503446
v -0.09503225 0.12375778 -0.47775963
v -0.04774596 0.12375778 -0.48477384
v -0.09992293 -1.6212464E-07 -0.50234616
v -0.05020321 -1.66893E-07 -0.50972134
v -0.09869269 0.06265014 -0.49616152
v -0.049585078 0.06265013 -0.503446
v -0.09869266 -0.06265046 -0.49616146
v -0.04958507 -0.06265046 -0.50344586
v -0.09992293 -1.6212464E-07 -0.50234616
v -0.05020321 -1.66893E-07 -0.50972134
v -0.09503223 -0.123758085 -0.4777595
v -0.04774596 -0.1237581 -0.4847737
v -0.09869266 -0.06265046 -0.49616146
v -0.04958507 -0.06265046 -0.50344586
v -0.0890319 -0.18181838 -0.44759357
v -0.044731293 -0.18181838 -0.45416492
v -0.09503223 -0.123758085 -0.4777595
v -0.04774596 -0.1237581 -0.4847737
v -0.09503225 0.12375778 -0.47775963
v -0.04774596 0.12375778 -0.48477384
v -0.08903198 0.18181808 -0.44759363
v -0.044731386 0.18181808 -0.45416504
v -0.044731293 -0.18181838 -0.45416492
v -0 -0.18181838 -0.45636275
v -0.04774596 -0.1237581 -0.4847737
v -0 -0.123758085 -0.48711967
v -0.04774596 0.12375778 -0.48477384
v -0 0.12375778 -0.48711973
v -0.044731386 0.18181808 -0.45416504
v -0 0.18181808 -0.4563629
v -0.049585078 0.06265013 -0.503446
v -0 0.06265013 -0.50588214
v -0.04774596 0.12375778 -0.48477384
v -0 0.12375778 -0.48711973
v -0.05020321 -1.66893E-07 -0.50972134
v -0 -1.66893E-07 -0.51218796
v -0.049585078 0.06265013 -0.503446
v -0 0.06265013 -0.50588214
v -0.04958507 -0.06265046 -0.50344586
v -0 -0.062650464 -0.5058821
v -0.05020321 -1.66893E-07 -0.50972134
v -0 -1.66893E-07 -0.51218796
v -0.04774596 -0.1237581 -0.4847737
v -0 -0.123758085 -0.48711967
v -0.04958507 -0.06265046 -0.50344586
v -0 -0.062650464 -0.5058821
vt 0.66512185 0.99992234
vt 0.6651217 0.9686695
vt 0.49932408 0.99992234
vt 0.499324 0.9686695
vt 0.8309197 0.99992234
vt 0.8309197 0.9686695
vt 0.66512185 0.99992234
vt 0.6651217 0.9686695
vt 0.9967173 0.99992234
vt 0.9967174 0.9686695
vt 0.8309197 0.99992234
vt 0.8309197 0.9686695
vt 0.16772825 0.99992234
vt 0.16772825 0.9686695
vt 0.0019304752 0.9999226
vt 0.0019304752 0.9686697
vt 0.33352602 0.99992234
vt 0.33352602 0.9686695
vt 0.16772825 0.99992234
vt 0.16772825 0.9686695
vt 0.49932408 0.99992234
vt 0.499324 0.9686695
vt 0.33352602 0.99992234
vt 0.33352602 0.9686695
vt 0.16772825 0.9686695
vt 0.16772825 0.93741655
vt 0.0019304752 0.9686697
vt 0.0019304752 0.9374168
vt 0.33352602 0.9686695
vt 0.33352602 0.9374168
vt 0.16772825 0.9686695
vt 0.16772825 0.93741655
vt 0.499324 0.9686695
vt 0.499324 0.93741655
vt 0.33352602 0.9686695
vt 0.33352602 0.9374168
vt 0.6651217 0.9686695
vt 0.6651217 0.93741655
vt 0.499324 0.9686695
vt 0.499324 0.93741655
vt 0.8309197 0.9686695
vt 0.8309197 0.93741655
vt 0.6651217 0.9686695
vt 0.6651217 0.93741655
vt 0.9967174 0.9686695
vt 0.9967174 0.9374168
vt 0.8309197 0.9686695
vt 0.8309197 0.93741655
vt 0.6651217 0.93741655
vt 0.6651217 0.9061637
vt 0.499324 0.93741655
vt 0.499324 0.90616393
vt 0.8309197 0.93741655
vt 0.8309197 0.90616393
vt 0.6651217 0.93741655
vt 0.6651217 0.9061637
vt 0.9967174 0.9374168
vt 0.9967174 0.90616393
vt 0.8309197 0.93741655
vt 0.8309197 0.90616393
vt 0.16772825 0.93741655
vt 0.16772825 0.9061637
vt 0.0019304752 0.9374168
vt 0.0019304752 0.90616393
vt 0.33352602 0.9374168
vt 0.33352602 0.90616393
vt 0.16772825 0.93741655
vt 0.16772825 0.9061637
vt 0.499324 0.93741655
vt 0.499324 0.90616393
vt 0.33352602 0.9374168
vt 0.33352602 0.90616393
vt 0.16772825 0.9061637
vt 0.16772825 0.87491083
vt 0.0019304752 0.90616393
vt 0.0019304752 0.87491107
vt 0.33352602 0.90616393
vt 0.33352602 0.87491107
vt 0.16772825 0.9061637
vt 0.16772825 0.87491083
vt 0.499324 0.90616393
vt 0.499324 0.87491107
vt 0.33352602 0.90616393
vt 0.33352602 0.87491107
vt 0.6651217 0.9061637
vt 0.6651217 0.87491107
vt 0.499324 0.90616393
vt 0.499324 0.87491107
vt 0.8309197 0.90616393
vt 0.8309197 0.87491107
vt 0.6651217 0.9061637
vt 0.6651217 0.87491107
vt 0.9967174 0.90616393
vt 0.9967174 0.87491107
vt 0.8309197 0.90616393
vt 0.8309197 0.87491107
vt 0.499324 0.87491107
vt 0.499324 0.8436582
vt 0.33352602 0.87491107
vt 0.33352602 0.8436582
vt 0.6651217 0.87491107
vt 0.6651217 0.8436582
vt 0.499324 0.87491107
vt 0.499324 0.8436582
vt 0.8309197 0.87491107
vt 0.8309197 0.8436582
vt 0.6651217 0.87491107
vt 0.6651217 0.8436582
vt 0.9967174 0.87491107
vt 0.9967174 0.8436582
vt 0.8309197 0.87491107
vt 0.8309197 0.8436582
vt 0.16772825 0.87491083
vt 0.16772825 0.8436582
vt 0.0019304752 0.87491107
vt 0.0019302666 0.8436582
vt 0.33352602 0.87491107
vt 0.33352602 0.8436582
vt 0.16772825 0.87491083
vt 0.16772825 0.8436582
vt 0.16772825 0.8436582
vt 0.16772825 0.81240535
vt 0.0019302666 0.8436582
vt 0.0019302666 0.81240535
vt 0.33352602 0.8436582
vt 0.33352602 0.81240535
vt 0.16772825 0.8436582
vt 0.16772825 0.81240535
vt 0.499324 0.8436582
vt 0.499324 0.81240535
vt 0.33352602 0.8436582
vt 0.33352602 0.81240535
vt 0.6651217 0.8436582
vt 0.6651217 0.81240535
vt 0.499324 0.8436582
vt 0.499324 0.81240535
vt 0.8309197 0.8436582
vt 0.8309197 0.81240535
vt 0.6651217 0.8436582
vt 0.6651217 0.81240535
vt 0.9967174 0.8436582
vt 0.9967174 0.81240535
vt 0.8309197 0.8436582
vt 0.8309197 0.81240535
vt 0.499324 0.81240535
vt 0.499324 0.7811525
vt 0.33352602 0.81240535
vt 0.33352602 0.7811525
vt 0.6651217 0.81240535
vt 0.6651217 0.7811525
vt 0.499324 0.81240535
vt 0.499324 0.7811525
vt 0.8309197 0.81240535
vt 0.8309197 0.7811525
vt 0.6651217 0.81240535
vt 0.6651217 0.7811525
vt 0.9967174 0.81240535
vt 0.9967176 0.7811525
vt 0.8309197 0.81240535
vt 0.8309197 0.7811525
vt 0.16772825 0.81240535
vt 0.16772807 0.7811525
vt 0.0019302666 0.81240535
vt 0.0019302666 0.7811525
vt 0.33352602 0.81240535
vt 0.33352602 0.7811525
vt 0.16772825 0.81240535
vt 0.16772807 0.7811525
vt 0.9967176 0.7811525
vt 0.9967176 0.7498996
vt 0.8309197 0.7811525
vt 0.8309197 0.7498996
vt 0.16772807 0.7811525
vt 0.16772807 0.7498996
vt 0.0019302666 0.7811525
vt 0.0019302666 0.7498996
vt 0.33352602 0.7811525
vt 0.33352602 0.7498996
vt 0.16772807 0.7811525
vt 0.16772807 0.7498996
vt 0.499324 0.7811525
vt 0.499324 0.7498996
vt 0.33352602 0.7811525
vt 0.33352602 0.7498996
vt 0.6651217 0.7811525
vt 0.6651217 0.7498996
vt 0.499324 0.7811525
vt 0.499324 0.7498996
vt 0.8309197 0.7811525
vt 0.8309197 0.7498996
vt 0.6651217 0.7811525
vt 0.6651217 0.7498996
vt 0.33352602 0.7498996
vt 0.33352602 0.71864676
vt 0.16772807 0.7498996
vt 0.16772807 0.71864676
vt 0.499324 0.7498996
vt 0.499324 0.71864676
vt 0.33352602 0.7498996
vt 0.33352602 0.71864676
vt 0.6651217 0.7498996
vt 0.6651217 0.71864676
vt 0.499324 0.7498996
vt 0.499324 0.71864676
vt 0.8309197 0.7498996
vt 0.8309197 0.71864676
vt 0.6651217 0.7498996
vt 0.6651217 0.71864676
vt 0.9967176 0.7498996
vt 0.9967176 0.71864676
vt 0.8309197 0.7498996
vt 0.8309197 0.71864676
vt 0.16772807 0.7498996
vt 0.16772807 0.71864676
vt 0.0019302666 0.7498996
vt 0.0019300878 0.71864676
vt 0.8309197 0.71864676
vt 0.8309197 0.68739384
vt 0.6651217 0.71864676
vt 0.6651217 0.68739384
vt 0.9967176 0.71864676
vt 0.9967176 0.68739384
vt 0.8309197 0.71864676
vt 0.8309197 0.68739384
vt 0.16772807 0.71864676
vt 0.16772807 0.68739384
vt 0.0019300878 0.71864676
vt 0.0019300878 0.68739384
vt 0.33352602 0.71864676
vt 0.33352602 0.68739384
vt 0.16772807 0.71864676
vt 0.16772807 0.68739384
vt 0.499324 0.71864676
vt 0.499324 0.68739384
vt 0.33352602 0.71864676
vt 0.33352602 0.68739384
vt 0.6651217 0.71864676
vt 0.6651217 0.68739384
vt 0.499324 0.71864676
vt 0.499324 0.68739384
vt 0.16772807 0.68739384
vt 0.16772807 0.656141
vt 0.0019300878 0.68739384
vt 0.0019300878 0.656141
vt 0.33352602 0.68739384
vt 0.33352602 0.656141
vt 0.16772807 0.68739384
vt 0.16772807 0.656141
vt 0.499324 0.68739384
vt 0.499324 0.656141
vt 0.33352602 0.68739384
vt 0.33352602 0.656141
vt 0.6651217 0.68739384
vt 0.6651217 0.656141
vt 0.499324 0.68739384
vt 0.499324 0.656141
vt 0.8309197 0.68739384
vt 0.8309197 0.656141
vt 0.6651217 0.68739384
vt 0.6651217 0.656141
vt 0.9967176 0.68739384
vt 0.9967176 0.656141
vt 0.8309197 0.68739384
vt 0.8309197 0.656141
vt 0.6651217 0.656141
vt 0.6651217 0.6248881
vt 0.499324 0.656141
vt 0.499324 0.6248881
vt 0.8309197 0.656141
vt 0.8309197 0.6248881
vt 0.6651217 0.656141
vt 0.6651217 0.6248881
vt 0.9967176 0.656141
vt 0.9967176 0.6248881
vt 0.8309197 0.656141
vt 0.8309197 0.6248881
vt 0.16772807 0.656141
vt 0.16772807 0.6248881
vt 0.0019300878 0.656141
vt 0.0019300878 0.6248881
vt 0.33352602 0.656141
vt 0.33352602 0.6248881
vt 0.16772807 0.656141
vt 0.16772807 0.6248881
vt 0.499324 0.656141
vt 0.499324 0.6248881
vt 0.33352602 0.656141
vt 0.33352602 0.6248881
vt 0.16772807 0.6248881
vt 0.16772807 0.59363526
vt 0.0019300878 0.6248881
vt 0.0019300878 0.59363526
vt 0.33352602 0.6248881
vt 0.33352602 0.59363526
vt 0.16772807 0.6248881
vt 0.16772807 0.59363526
vt 0.499324 0.6248881
vt 0.499324 0.59363526
vt 0.33352602 0.6248881
vt 0.33352602 0.59363526
vt 0.6651217 0.6248881
vt 0.6651217 0.59363526
vt 0.499324 0.6248881
vt 0.499324 0.59363526
vt 0.8309197 0.6248881
vt 0.8309197 0.59363526
vt 0.6651217 0.6248881
vt 0.6651217 0.59363526
vt 0.9967176 0.6248881
vt 0.9967176 0.59363526
vt 0.8309197 0.6248881
vt 0.8309197 0.59363526
vt 0.6651217 0.59363526
vt 0.6651217 0.5623824
vt 0.499324 0.59363526
vt 0.499324 0.5623824
vt 0.8309197 0.59363526
vt 0.83092 0.5623824
vt 0.6651217 0.59363526
vt 0.6651217 0.5623824
vt 0.9967176 0.59363526
vt 0.9967176 0.5623824
vt 0.8309197 0.59363526
vt 0.83092 0.5623824
vt 0.16772807 0.59363526
vt 0.16772807 0.5623824
vt 0.0019300878 0.59363526
vt 0.0019300878 0.5623824
vt 0.33352602 0.59363526
vt 0.33352602 0.5623824
vt 0.16772807 0.59363526
vt 0.16772807 0.5623824
vt 0.499324 0.59363526
vt 0.499324 0.5623824
vt 0.33352602 0.59363526
vt 0.33352602 0.5623824
vt 0.16772807 0.5623824
vt 0.16772807 0.53112954
vt 0.0019300878 0.5623824
vt 0.0019300878 0.53112954
vt 0.33352602 0.5623824
vt 0.33352602 0.53112954
vt 0.16772807 0.5623824
vt 0.16772807 0.53112954
vt 0.499324 0.5623824
vt 0.499324 0.53112954
vt 0.33352602 0.5623824
vt 0.33352602 0.53112954
vt 0.6651217 0.5623824
vt 0.66512215 0.53112954
vt 0.499324 0.5623824
vt 0.499324 0.53112954
vt 0.83092 0.5623824
vt 0.83092004 0.53112954
vt 0.6651217 0.5623824
vt 0.66512215 0.53112954
vt 0.9967176 0.5623824
vt 0.996718 0.53112954
vt 0.83092 0.5623824
vt 0.83092004 0.53112954
vt 0.499324 0.53112954
vt 0.499324 0.5001237
vt 0.33352602 0.53112954
vt 0.33352602 0.5001237
vt 0.66512215 0.53112954
vt 0.66512215 0.5001237
vt 0.499324 0.53112954
vt 0.499324 0.5001237
vt 0.83092004 0.53112954
vt 0.83092004 0.5001237
vt 0.66512215 0.53112954
vt 0.66512215 0.5001237
vt 0.996718 0.53112954
vt 0.996718 0.5001237
vt 0.83092004 0.53112954
vt 0.83092004 0.5001237
vt 0.16772807 0.53112954
vt 0.16772807 0.5001237
vt 0.0019300878 0.53112954
vt 0.0019300878 0.5001237
vt 0.33352602 0.53112954
vt 0.33352602 0.5001237
vt 0.16772807 0.53112954
vt 0.16772807 0.5001237
vt 0.996718 0.5001237
vt 0.996718 0.46887085
vt 0.83092004 0.5001237
vt 0.83092004 0.46887085
vt 0.16772807 0.5001237
vt 0.16772807 0.46887073
vt 0.0019300878 0.5001237
vt 0.0019300878 0.46887085
vt 0.33352602 0.5001237
vt 0.33352602 0.46887085
vt 0.16772807 0.5001237
vt 0.16772807 0.46887073
vt 0.499324 0.5001237
vt 0.499324 0.46887085
vt 0.33352602 0.5001237
vt 0.33352602 0.46887085
vt 0.66512215 0.5001237
vt 0.66512215 0.46887085
vt 0.499324 0.5001237
vt 0.499324 0.46887085
vt 0.83092004 0.5001237
vt 0.83092004 0.46887085
vt 0.66512215 0.5001237
vt 0.66512215 0.46887085
vt 0.33352602 0.46887085
vt 0.33352602 0.437618
vt 0.16772807 0.46887073
vt 0.16772807 0.43761787
vt 0.499324 0.46887085
vt 0.499324 0.437618
vt 0.33352602 0.46887085
vt 0.33352602 0.437618
vt 0.66512215 0.46887085
vt 0.66512215 0.437618
vt 0.499324 0.46887085
vt 0.499324 0.437618
vt 0.83092004 0.46887085
vt 0.83092004 0.437618
vt 0.66512215 0.46887085
vt 0.66512215 0.437618
vt 0.996718 0.46887085
vt 0.996718 0.437618
vt 0.83092004 0.46887085
vt 0.83092004 0.437618
vt 0.16772807 0.46887073
vt 0.16772807 0.43761787
vt 0.0019300878 0.46887085
vt 0.0019300878 0.437618
vt 0.996718 0.437618
vt 0.996718 0.4063651
vt 0.83092004 0.437618
vt 0.83092016 0.4063651
vt 0.16772807 0.43761787
vt 0.16772807 0.40636498
vt 0.0019300878 0.437618
vt 0.0019297004 0.4063651
vt 0.33352602 0.437618
vt 0.33352602 0.4063651
vt 0.16772807 0.43761787
vt 0.16772807 0.40636498
vt 0.499324 0.437618
vt 0.499324 0.4063651
vt 0.33352602 0.437618
vt 0.33352602 0.4063651
vt 0.66512215 0.437618
vt 0.66512215 0.4063651
vt 0.499324 0.437618
vt 0.499324 0.4063651
vt 0.83092004 0.437618
vt 0.83092016 0.4063651
vt 0.66512215 0.437618
vt 0.66512215 0.4063651
vt 0.33352602 0.4063651
vt 0.33352602 0.37511224
vt 0.16772807 0.40636498
vt 0.16772807 0.37511212
vt 0.499324 0.4063651
vt 0.499324 0.37511224
vt 0.33352602 0.4063651
vt 0.33352602 0.37511224
vt 0.66512215 0.4063651
vt 0.66512215 0.37511224
vt 0.499324 0.4063651
vt 0.499324 0.37511224
vt 0.83092016 0.4063651
vt 0.83092016 0.37511224
vt 0.66512215 0.4063651
vt 0.66512215 0.37511224
vt 0.996718 0.4063651
vt 0.996718 0.37511224
vt 0.83092016 0.4063651
vt 0.83092016 0.37511224
vt 0.16772807 0.40636498
vt 0.16772807 0.37511212
vt 0.0019297004 0.4063651
vt 0.0019297004 0.37511224
vt 0.83092016 0.37511224
vt 0.83092016 0.34385937
vt 0.66512215 0.37511224
vt 0.66512215 0.34385937
vt 0.996718 0.37511224
vt 0.996718 0.34385937
vt 0.83092016 0.37511224
vt 0.83092016 0.34385937
vt 0.16772807 0.37511212
vt 0.16772807 0.34385926
vt 0.0019297004 0.37511224
vt 0.0019297004 0.34385937
vt 0.33352602 0.37511224
vt 0.33352602 0.34385937
vt 0.16772807 0.37511212
vt 0.16772807 0.34385926
vt 0.499324 0.37511224
vt 0.499324 0.34385937
vt 0.33352602 0.37511224
vt 0.33352602 0.34385937
vt 0.66512215 0.37511224
vt 0.66512215 0.34385937
vt 0.499324 0.37511224
vt 0.499324 0.34385937
vt 0.16772807 0.34385926
vt 0.16772807 0.3126064
vt 0.0019297004 0.34385937
vt 0.0019297004 0.3126065
vt 0.33352602 0.34385937
vt 0.33352602 0.3126065
vt 0.16772807 0.34385926
vt 0.16772807 0.3126064
vt 0.499324 0.34385937
vt 0.499324 0.3126065
vt 0.33352602 0.34385937
vt 0.33352602 0.3126065
vt 0.66512215 0.34385937
vt 0.66512215 0.3126065
vt 0.499324 0.34385937
vt 0.499324 0.3126065
vt 0.83092016 0.34385937
vt 0.83092016 0.3126065
vt 0.66512215 0.34385937
vt 0.66512215 0.3126065
vt 0.996718 0.34385937
vt 0.996718 0.3126065
vt 0.83092016 0.34385937
vt 0.83092016 0.3126065
vt 0.83092016 0.3126065
vt 0.83092016 0.2813535
vt 0.66512215 0.3126065
vt 0.6651223 0.2813535
vt 0.996718 0.3126065
vt 0.9967182 0.2813535
vt 0.83092016 0.3126065
vt 0.83092016 0.2813535
vt 0.16772807 0.3126064
vt 0.16772807 0.2813535
vt 0.0019297004 0.3126065
vt 0.0019297004 0.28135362
vt 0.33352602 0.3126065
vt 0.33352602 0.2813535
vt 0.16772807 0.3126064
vt 0.16772807 0.2813535
vt 0.499324 0.3126065
vt 0.49932408 0.28135338
vt 0.33352602 0.3126065
vt 0.33352602 0.2813535
vt 0.66512215 0.3126065
vt 0.6651223 0.2813535
vt 0.499324 0.3126065
vt 0.49932408 0.28135338
vt 0.16772807 0.2813535
vt 0.16772807 0.25010064
vt 0.0019297004 0.28135362
vt 0.0019297004 0.25010076
vt 0.33352602 0.2813535
vt 0.33352602 0.25010064
vt 0.16772807 0.2813535
vt 0.16772807 0.25010064
vt 0.49932408 0.28135338
vt 0.499324 0.25010064
vt 0.33352602 0.2813535
vt 0.33352602 0.25010064
vt 0.6651223 0.2813535
vt 0.66512215 0.25010064
vt 0.49932408 0.28135338
vt 0.499324 0.25010064
vt 0.83092016 0.2813535
vt 0.83092016 0.25010064
vt 0.6651223 0.2813535
vt 0.66512215 0.25010064
vt 0.9967182 0.2813535
vt 0.9967182 0.25010064
vt 0.83092016 0.2813535
vt 0.83092016 0.25010064
vt 0.66512215 0.25010064
vt 0.66512215 0.21884778
vt 0.499324 0.25010064
vt 0.499324 0.21884778
vt 0.83092016 0.25010064
vt 0.83092016 0.21884778
vt 0.66512215 0.25010064
vt 0.66512215 0.21884778
vt 0.9967182 0.25010064
vt 0.9967182 0.21884778
vt 0.83092016 0.25010064
vt 0.83092016 0.21884778
vt 0.16772807 0.25010064
vt 0.16772807 0.21884778
vt 0.0019297004 0.25010076
vt 0.0019297004 0.2188479
vt 0.33352602 0.25010064
vt 0.33352602 0.21884778
vt 0.16772807 0.25010064
vt 0.16772807 0.21884778
vt 0.499324 0.25010064
vt 0.499324 0.21884778
vt 0.33352602 0.25010064
vt 0.33352602 0.21884778
vt 0.16772807 0.21884778
vt 0.16772807 0.18759489
vt 0.0019297004 0.2188479
vt 0.0019297004 0.18759501
vt 0.33352602 0.21884778
vt 0.33352602 0.18759489
vt 0.16772807 0.21884778
vt 0.16772807 0.18759489
vt 0.499324 0.21884778
vt 0.499324 0.18759489
vt 0.33352602 0.21884778
vt 0.33352602 0.18759489
vt 0.66512215 0.21884778
vt 0.66512215 0.18759489
vt 0.499324 0.21884778
vt 0.499324 0.18759489
vt 0.83092016 0.21884778
vt 0.83092016 0.18759489
vt 0.66512215 0.21884778
vt 0.66512215 0.18759489
vt 0.9967182 0.21884778
vt 0.9967182 0.18759489
vt 0.83092016 0.21884778
vt 0.83092016 0.18759489
vt 0.499324 0.18759489
vt 0.499324 0.15634203
vt 0.33352602 0.18759489
vt 0.33352602 0.15634203
vt 0.66512215 0.18759489
vt 0.66512215 0.15634203
vt 0.499324 0.18759489
vt 0.499324 0.15634203
vt 0.83092016 0.18759489
vt 0.83092016 0.15634203
vt 0.66512215 0.18759489
vt 0.66512215 0.15634203
vt 0.9967182 0.18759489
vt 0.9967182 0.15634203
vt 0.83092016 0.18759489
vt 0.83092016 0.15634203
vt 0.16772807 0.18759489
vt 0.16772807 0.15634203
vt 0.0019297004 0.18759501
vt 0.0019297004 0.15634203
vt 0.33352602 0.18759489
vt 0.33352602 0.15634203
vt 0.16772807 0.18759489
vt 0.16772807 0.15634203
vt 0.16772807 0.15634203
vt 0.16772807 0.12508917
vt 0.0019297004 0.15634203
vt 0.0019297004 0.12508893
vt 0.33352602 0.15634203
vt 0.33352602 0.12508917
vt 0.16772807 0.15634203
vt 0.16772807 0.12508917
vt 0.499324 0.15634203
vt 0.499324 0.12508917
vt 0.33352602 0.15634203
vt 0.33352602 0.12508917
vt 0.66512215 0.15634203
vt 0.66512215 0.12508917
vt 0.499324 0.15634203
vt 0.499324 0.12508917
vt 0.83092016 0.15634203
vt 0.83092016 0.12508917
vt 0.66512215 0.15634203
vt 0.66512215 0.12508917
vt 0.9967182 0.15634203
vt 0.9967182 0.12508893
vt 0.83092016 0.15634203
vt 0.83092016 0.12508917
vt 0.499324 0.12508917
vt 0.499324 0.09383631
vt 0.33352602 0.12508917
vt 0.33352584 0.09383631
vt 0.66512215 0.12508917
vt 0.66512215 0.09383619
vt 0.499324 0.12508917
vt 0.499324 0.09383631
vt 0.83092016 0.12508917
vt 0.83092016 0.09383631
vt 0.66512215 0.12508917
vt 0.66512215 0.09383619
vt 0.9967182 0.12508893
vt 0.9967182 0.09383607
vt 0.83092016 0.12508917
vt 0.83092016 0.09383631
vt 0.16772807 0.12508917
vt 0.16772807 0.09383631
vt 0.0019297004 0.12508893
vt 0.0019297004 0.09383607
vt 0.33352602 0.12508917
vt 0.33352584 0.09383631
vt 0.16772807 0.12508917
vt 0.16772807 0.09383631
vt 0.9967182 0.09383607
vt 0.9967182 0.06258321
vt 0.83092016 0.09383631
vt 0.83092016 0.06258345
vt 0.16772807 0.09383631
vt 0.16772765 0.06258345
vt 0.0019297004 0.09383607
vt 0.0019297004 0.06258321
vt 0.33352584 0.09383631
vt 0.33352584 0.06258345
vt 0.16772807 0.09383631
vt 0.16772765 0.06258345
vt 0.499324 0.09383631
vt 0.499324 0.06258345
vt 0.33352584 0.09383631
vt 0.33352584 0.06258345
vt 0.66512215 0.09383619
vt 0.66512215 0.06258345
vt 0.499324 0.09383631
vt 0.499324 0.06258345
vt 0.83092016 0.09383631
vt 0.83092016 0.06258345
vt 0.66512215 0.09383619
vt 0.66512215 0.06258345
vt 0.33352584 0.06258345
vt 0.33352584 0.031330556
vt 0.16772765 0.06258345
vt 0.16772765 0.031330556
vt 0.499324 0.06258345
vt 0.499324 0.031330556
vt 0.33352584 0.06258345
vt 0.33352584 0.031330556
vt 0.66512215 0.06258345
vt 0.66512215 0.031330556
vt 0.499324 0.06258345
vt 0.499324 0.031330556
vt 0.83092016 0.06258345
vt 0.83092016 0.031330436
vt 0.66512215 0.06258345
vt 0.66512215 0.031330556
vt 0.9967182 0.06258321
vt 0.9967182 0.031330317
vt 0.83092016 0.06258345
vt 0.83092016 0.031330436
vt 0.16772765 0.06258345
vt 0.16772765 0.031330556
vt 0.0019297004 0.06258321
vt 0.0019297004 0.031330317
vt 0.9967182 0.031330317
vt 0.996718 7.7575445E-05
vt 0.83092016 0.031330436
vt 0.8309199 7.7456236E-05
vt 0.16772765 0.031330556
vt 0.16772786 7.7575445E-05
vt 0.0019297004 0.031330317
vt 0.0019300878 7.7575445E-05
vt 0.33352584 0.031330556
vt 0.33352602 7.7456236E-05
vt 0.16772765 0.031330556
vt 0.16772786 7.7575445E-05
vt 0.499324 0.031330556
vt 0.4993242 7.7456236E-05
vt 0.33352584 0.031330556
vt 0.33352602 7.7456236E-05
vt 0.66512215 0.031330556
vt 0.66512203 7.7456236E-05
vt 0.499324 0.031330556
vt 0.4993242 7.7456236E-05
vt 0.83092016 0.031330436
vt 0.8309199 7.7456236E-05
vt 0.66512215 0.031330556
vt 0.66512203 7.7456236E-05
vn -0.04882119 -0.100027025 0.9937862
vn -0.04882119 -0.100027025 0.9937862
vn -0.04882119 -0.100027025 0.9937862
vn -0.04882119 -0.100027025 0.9937862
vn -0.046911057 -0.2931923 0.95490193
vn -0.046911057 -0.2931923 0.95490193
vn -0.046911057 -0.2931923 0.95490193
vn -0.046911057 -0.2931923 0.95490193
vn -0.04337105 -0.4676743 0.8828362
vn -0.04337105 -0.4676743 0.8828362
vn -0.04337105 -0.4676743 0.8828362
vn -0.04337105 -0.4676743 0.8828362
vn -0.043370947 0.46767405 0.8828363
vn -0.043370947 0.46767405 0.8828363
vn -0.043370947 0.46767405 0.8828363
vn -0.043370947 0.46767405 0.8828363
vn -0.04691138 0.29319212 0.95490193
vn -0.04691138 0.29319212 0.95490193
vn -0.04691138 0.29319212 0.95490193
vn -0.04691138 0.29319212 0.95490193
vn -0.048821535 0.10002713 0.9937862
vn -0.048821535 0.10002713 0.9937862
vn -0.048821535 0.10002713 0.9937862
vn -0.048821535 0.10002713 0.9937862
vn -0.1296952 0.46767393 0.8743342
vn -0.1296952 0.46767393 0.8743342
vn -0.1296952 0.46767393 0.8743342
vn -0.1296952 0.46767393 0.8743342
vn -0.14028238 0.29319194 0.9457058
vn -0.14028238 0.29319194 0.9457058
vn -0.14028238 0.29319194 0.9457058
vn -0.14028238 0.29319194 0.9457058
vn -0.14599456 0.100027196 0.98421544
vn -0.14599456 0.100027196 0.98421544
vn -0.14599456 0.100027196 0.98421544
vn -0.14599456 0.100027196 0.98421544
vn -0.14599457 -0.10002656 0.98421556
vn -0.14599457 -0.10002656 0.98421556
vn -0.14599457 -0.10002656 0.98421556
vn -0.14599457 -0.10002656 0.98421556
vn -0.1402824 -0.29319322 0.94570535
vn -0.1402824 -0.29319322 0.94570535
vn -0.1402824 -0.29319322 0.94570535
vn -0.1402824 -0.29319322 0.94570535
vn -0.12969534 -0.4676736 0.8743343
vn -0.12969534 -0.4676736 0.8743343
vn -0.12969534 -0.4676736 0.8743343
vn -0.12969534 -0.4676736 0.8743343
vn -0.24176176 -0.10002697 0.9651662
vn -0.24176176 -0.10002697 0.9651662
vn -0.24176176 -0.10002697 0.9651662
vn -0.24176176 -0.10002697 0.9651662
vn -0.23230213 -0.29319245 0.9274017
vn -0.23230213 -0.29319245 0.9274017
vn -0.23230213 -0.29319245 0.9274017
vn -0.23230213 -0.29319245 0.9274017
vn -0.21477045 -0.46767378 0.85741174
vn -0.21477045 -0.46767378 0.85741174
vn -0.21477045 -0.46767378 0.85741174
vn -0.21477045 -0.46767378 0.85741174
vn -0.21477054 0.46767417 0.8574115
vn -0.21477054 0.46767417 0.8574115
vn -0.21477054 0.46767417 0.8574115
vn -0.21477054 0.46767417 0.8574115
vn -0.23230182 0.29319224 0.9274018
vn -0.23230182 0.29319224 0.9274018
vn -0.23230182 0.29319224 0.9274018
vn -0.23230182 0.29319224 0.9274018
vn -0.24176125 0.10002621 0.96516645
vn -0.24176125 0.10002621 0.96516645
vn -0.24176125 0.10002621 0.96516645
vn -0.24176125 0.10002621 0.96516645
vn -0.29777783 0.46767423 0.8322315
vn -0.29777783 0.46767423 0.8322315
vn -0.29777783 0.46767423 0.8322315
vn -0.29777783 0.46767423 0.8322315
vn -0.32208535 0.29319236 0.9001663
vn -0.32208535 0.29319236 0.9001663
vn -0.32208535 0.29319236 0.9001663
vn -0.32208535 0.29319236 0.9001663
vn -0.33520037 0.10002704 0.93682194
vn -0.33520037 0.10002704 0.93682194
vn -0.33520037 0.10002704 0.93682194
vn -0.33520037 0.10002704 0.93682194
vn -0.33520016 -0.100026816 0.93682206
vn -0.33520016 -0.100026816 0.93682206
vn -0.33520016 -0.100026816 0.93682206
vn -0.33520016 -0.100026816 0.93682206
vn -0.32208478 -0.29319265 0.90016633
vn -0.32208478 -0.29319265 0.90016633
vn -0.32208478 -0.29319265 0.90016633
vn -0.32208478 -0.29319265 0.90016633
vn -0.29777744 -0.46767378 0.8322318
vn -0.29777744 -0.46767378 0.8322318
vn -0.29777744 -0.46767378 0.8322318
vn -0.29777744 -0.46767378 0.8322318
vn -0.4254114 0.10002638 0.8994553
vn -0.4254114 0.10002638 0.8994553
vn -0.4254114 0.10002638 0.8994553
vn -0.4254114 0.10002638 0.8994553
vn -0.42541176 -0.10002785 0.8994549
vn -0.42541176 -0.10002785 0.8994549
vn -0.42541176 -0.10002785 0.8994549
vn -0.42541176 -0.10002785 0.8994549
vn -0.4087663 -0.29319212 0.8642618
vn -0.4087663 -0.29319212 0.8642618
vn -0.4087663 -0.29319212 0.8642618
vn -0.4087663 -0.29319212 0.8642618
vn -0.37791643 -0.46767431 0.7990368
vn -0.37791643 -0.46767431 0.7990368
vn -0.37791643 -0.46767431 0.7990368
vn -0.37791643 -0.46767431 0.7990368
vn -0.37791666 0.46767312 0.7990374
vn -0.37791666 0.46767312 0.7990374
vn -0.37791666 0.46767312 0.7990374
vn -0.37791666 0.46767312 0.7990374
vn -0.40876564 0.2931929 0.86426187
vn -0.40876564 0.2931929 0.86426187
vn -0.40876564 0.2931929 0.86426187
vn -0.40876564 0.2931929 0.86426187
vn -0.45441622 0.46767408 0.758147
vn -0.45441622 0.46767408 0.758147
vn -0.45441622 0.46767408 0.758147
vn -0.45441622 0.46767408 0.758147
vn -0.49151006 0.29319242 0.8200342
vn -0.49151006 0.29319242 0.8200342
vn -0.49151006 0.29319242 0.8200342
vn -0.49151006 0.29319242 0.8200342
vn -0.51152444 0.100025505 0.853427
vn -0.51152444 0.100025505 0.853427
vn -0.51152444 0.100025505 0.853427
vn -0.51152444 0.100025505 0.853427
vn -0.5115244 -0.10002666 0.85342693
vn -0.5115244 -0.10002666 0.85342693
vn -0.5115244 -0.10002666 0.85342693
vn -0.5115244 -0.10002666 0.85342693
vn -0.4915102 -0.2931917 0.8200344
vn -0.4915102 -0.2931917 0.8200344
vn -0.4915102 -0.2931917 0.8200344
vn -0.4915102 -0.2931917 0.8200344
vn -0.45441636 -0.46767393 0.758147
vn -0.45441636 -0.46767393 0.758147
vn -0.45441636 -0.46767393 0.758147
vn -0.45441636 -0.46767393 0.758147
vn -0.5927115 0.10002612 0.79917943
vn -0.5927115 0.10002612 0.79917943
vn -0.5927115 0.10002612 0.79917943
vn -0.5927115 0.10002612 0.79917943
vn -0.5927116 -0.10002729 0.7991793
vn -0.5927116 -0.10002729 0.7991793
vn -0.5927116 -0.10002729 0.7991793
vn -0.5927116 -0.10002729 0.7991793
vn -0.5695199 -0.29319197 0.7679098
vn -0.5695199 -0.29319197 0.7679098
vn -0.5695199 -0.29319197 0.7679098
vn -0.5695199 -0.29319197 0.7679098
vn -0.5265389 -0.4676741 0.70995617
vn -0.5265389 -0.4676741 0.70995617
vn -0.5265389 -0.4676741 0.70995617
vn -0.5265389 -0.4676741 0.70995617
vn -0.52653897 0.46767357 0.7099564
vn -0.52653897 0.46767357 0.7099564
vn -0.52653897 0.46767357 0.7099564
vn -0.52653897 0.46767357 0.7099564
vn -0.56951976 0.29319292 0.7679096
vn -0.56951976 0.29319292 0.7679096
vn -0.56951976 0.29319292 0.7679096
vn -0.56951976 0.29319292 0.7679096
vn -0.5935916 -0.46767408 0.65492743
vn -0.5935916 -0.46767408 0.65492743
vn -0.5935916 -0.46767408 0.65492743
vn -0.5935916 -0.46767408 0.65492743
vn -0.593592 0.46767402 0.65492713
vn -0.593592 0.46767402 0.65492713
vn -0.593592 0.46767402 0.65492713
vn -0.593592 0.46767402 0.65492713
vn -0.6420465 0.29319277 0.70838845
vn -0.6420465 0.29319277 0.70838845
vn -0.6420465 0.29319277 0.70838845
vn -0.6420465 0.29319277 0.70838845
vn -0.668191 0.10002621 0.73723507
vn -0.668191 0.10002621 0.73723507
vn -0.668191 0.10002621 0.73723507
vn -0.668191 0.10002621 0.73723507
vn -0.6681906 -0.10002734 0.7372352
vn -0.6681906 -0.10002734 0.7372352
vn -0.6681906 -0.10002734 0.7372352
vn -0.6681906 -0.10002734 0.7372352
vn -0.64204645 -0.29319242 0.7083887
vn -0.64204645 -0.29319242 0.7083887
vn -0.64204645 -0.29319242 0.7083887
vn -0.64204645 -0.29319242 0.7083887
vn -0.7083883 0.29319337 0.64204633
vn -0.7083883 0.29319337 0.64204633
vn -0.7083883 0.29319337 0.64204633
vn -0.7083883 0.29319337 0.64204633
vn -0.7372348 0.10002542 0.66819143
vn -0.7372348 0.10002542 0.66819143
vn -0.7372348 0.10002542 0.66819143
vn -0.7372348 0.10002542 0.66819143
vn -0.73723507 -0.10002658 0.66819084
vn -0.73723507 -0.10002658 0.66819084
vn -0.73723507 -0.10002658 0.66819084
vn -0.73723507 -0.10002658 0.66819084
vn -0.7083883 -0.29319257 0.64204687
vn -0.7083883 -0.29319257 0.64204687
vn -0.7083883 -0.29319257 0.64204687
vn -0.7083883 -0.29319257 0.64204687
vn -0.6549273 -0.46767443 0.59359145
vn -0.6549273 -0.46767443 0.59359145
vn -0.6549273 -0.46767443 0.59359145
vn -0.6549273 -0.46767443 0.59359145
vn -0.65492743 0.46767405 0.59359163
vn -0.65492743 0.46767405 0.59359163
vn -0.65492743 0.46767405 0.59359163
vn -0.65492743 0.46767405 0.59359163
vn -0.76790947 -0.29319265 0.5695201
vn -0.76790947 -0.29319265 0.5695201
vn -0.76790947 -0.29319265 0.5695201
vn -0.76790947 -0.29319265 0.5695201
vn -0.7099558 -0.4676747 0.5265388
vn -0.7099558 -0.4676747 0.5265388
vn -0.7099558 -0.4676747 0.5265388
vn -0.7099558 -0.4676747 0.5265388
vn -0.7099562 0.46767405 0.52653885
vn -0.7099562 0.46767405 0.52653885
vn -0.7099562 0.46767405 0.52653885
vn -0.7099562 0.46767405 0.52653885
vn -0.76790917 0.29319286 0.5695204
vn -0.76790917 0.29319286 0.5695204
vn -0.76790917 0.29319286 0.5695204
vn -0.76790917 0.29319286 0.5695204
vn -0.79917926 0.10002625 0.5927118
vn -0.79917926 0.10002625 0.5927118
vn -0.79917926 0.10002625 0.5927118
vn -0.79917926 0.10002625 0.5927118
vn -0.79917884 -0.100026935 0.5927122
vn -0.79917884 -0.100026935 0.5927122
vn -0.79917884 -0.100026935 0.5927122
vn -0.79917884 -0.100026935 0.5927122
vn -0.75814694 0.46767402 0.45441622
vn -0.75814694 0.46767402 0.45441622
vn -0.75814694 0.46767402 0.45441622
vn -0.75814694 0.46767402 0.45441622
vn -0.8200344 0.29319316 0.49150935
vn -0.8200344 0.29319316 0.49150935
vn -0.8200344 0.29319316 0.49150935
vn -0.8200344 0.29319316 0.49150935
vn -0.85342664 0.10002611 0.5115249
vn -0.85342664 0.10002611 0.5115249
vn -0.85342664 0.10002611 0.5115249
vn -0.85342664 0.10002611 0.5115249
vn -0.8534271 -0.10002692 0.5115239
vn -0.8534271 -0.10002692 0.5115239
vn -0.8534271 -0.10002692 0.5115239
vn -0.8534271 -0.10002692 0.5115239
vn -0.82003397 -0.29319248 0.4915103
vn -0.82003397 -0.29319248 0.4915103
vn -0.82003397 -0.29319248 0.4915103
vn -0.82003397 -0.29319248 0.4915103
vn -0.7581467 -0.46767455 0.4544163
vn -0.7581467 -0.46767455 0.4544163
vn -0.7581467 -0.46767455 0.4544163
vn -0.7581467 -0.46767455 0.4544163
vn -0.8994554 -0.10002717 0.425411
vn -0.8994554 -0.10002717 0.425411
vn -0.8994554 -0.10002717 0.425411
vn -0.8994554 -0.10002717 0.425411
vn -0.8642622 -0.29319245 0.40876514
vn -0.8642622 -0.29319245 0.40876514
vn -0.8642622 -0.29319245 0.40876514
vn -0.8642622 -0.29319245 0.40876514
vn -0.7990368 -0.46767446 0.37791628
vn -0.7990368 -0.46767446 0.37791628
vn -0.7990368 -0.46767446 0.37791628
vn -0.7990368 -0.46767446 0.37791628
vn -0.79903704 0.46767443 0.377916
vn -0.79903704 0.46767443 0.377916
vn -0.79903704 0.46767443 0.377916
vn -0.79903704 0.46767443 0.377916
vn -0.8642618 0.29319334 0.4087655
vn -0.8642618 0.29319334 0.4087655
vn -0.8642618 0.29319334 0.4087655
vn -0.8642618 0.29319334 0.4087655
vn -0.8994558 0.1000262 0.42541027
vn -0.8994558 0.1000262 0.42541027
vn -0.8994558 0.1000262 0.42541027
vn -0.8994558 0.1000262 0.42541027
vn -0.83223164 0.46767443 0.2977768
vn -0.83223164 0.46767443 0.2977768
vn -0.83223164 0.46767443 0.2977768
vn -0.83223164 0.46767443 0.2977768
vn -0.9001666 0.29319304 0.32208383
vn -0.9001666 0.29319304 0.32208383
vn -0.9001666 0.29319304 0.32208383
vn -0.9001666 0.29319304 0.32208383
vn -0.9368221 0.10002639 0.3352002
vn -0.9368221 0.10002639 0.3352002
vn -0.9368221 0.10002639 0.3352002
vn -0.9368221 0.10002639 0.3352002
vn -0.9368217 -0.10002741 0.33520094
vn -0.9368217 -0.10002741 0.33520094
vn -0.9368217 -0.10002741 0.33520094
vn -0.9368217 -0.10002741 0.33520094
vn -0.90016663 -0.29319274 0.32208404
vn -0.90016663 -0.29319274 0.32208404
vn -0.90016663 -0.29319274 0.32208404
vn -0.90016663 -0.29319274 0.32208404
vn -0.83223176 -0.46767443 0.2977768
vn -0.83223176 -0.46767443 0.2977768
vn -0.83223176 -0.46767443 0.2977768
vn -0.83223176 -0.46767443 0.2977768
vn -0.96516633 -0.10002777 0.2417611
vn -0.96516633 -0.10002777 0.2417611
vn -0.96516633 -0.10002777 0.2417611
vn -0.96516633 -0.10002777 0.2417611
vn -0.9274016 -0.29319263 0.23230216
vn -0.9274016 -0.29319263 0.23230216
vn -0.9274016 -0.29319263 0.23230216
vn -0.9274016 -0.29319263 0.23230216
vn -0.8574115 -0.46767431 0.21477029
vn -0.8574115 -0.46767431 0.21477029
vn -0.8574115 -0.46767431 0.21477029
vn -0.8574115 -0.46767431 0.21477029
vn -0.8574113 0.46767426 0.2147708
vn -0.8574113 0.46767426 0.2147708
vn -0.8574113 0.46767426 0.2147708
vn -0.8574113 0.46767426 0.2147708
vn -0.9274017 0.2931928 0.23230188
vn -0.9274017 0.2931928 0.23230188
vn -0.9274017 0.2931928 0.23230188
vn -0.9274017 0.2931928 0.23230188
vn -0.9651662 0.10002681 0.24176176
vn -0.9651662 0.10002681 0.24176176
vn -0.9651662 0.10002681 0.24176176
vn -0.9651662 0.10002681 0.24176176
vn -0.87433404 0.4676742 0.12969492
vn -0.87433404 0.4676742 0.12969492
vn -0.87433404 0.4676742 0.12969492
vn -0.87433404 0.4676742 0.12969492
vn -0.9457056 0.29319277 0.14028202
vn -0.9457056 0.29319277 0.14028202
vn -0.9457056 0.29319277 0.14028202
vn -0.9457056 0.29319277 0.14028202
vn -0.9842157 0.10002675 0.145994
vn -0.9842157 0.10002675 0.145994
vn -0.9842157 0.10002675 0.145994
vn -0.9842157 0.10002675 0.145994
vn -0.98421544 -0.10002741 0.14599471
vn -0.98421544 -0.10002741 0.14599471
vn -0.98421544 -0.10002741 0.14599471
vn -0.98421544 -0.10002741 0.14599471
vn -0.9457055 -0.29319316 0.14028142
vn -0.9457055 -0.29319316 0.14028142
vn -0.9457055 -0.29319316 0.14028142
vn -0.9457055 -0.29319316 0.14028142
vn -0.8743342 -0.46767405 0.12969507
vn -0.8743342 -0.46767405 0.12969507
vn -0.8743342 -0.46767405 0.12969507
vn -0.8743342 -0.46767405 0.12969507
vn -0.99378633 0.10002637 0.048821367
vn -0.99378633 0.10002637 0.048821367
vn -0.99378633 0.10002637 0.048821367
vn -0.99378633 0.10002637 0.048821367
vn -0.9937862 -0.10002715 0.048821405
vn -0.9937862 -0.10002715 0.048821405
vn -0.9937862 -0.10002715 0.048821405
vn -0.9937862 -0.10002715 0.048821405
vn -0.95490146 -0.2931936 0.046911806
vn -0.95490146 -0.2931936 0.046911806
vn -0.95490146 -0.2931936 0.046911806
vn -0.95490146 -0.2931936 0.046911806
vn -0.88283646 -0.46767372 0.043371335
vn -0.88283646 -0.46767372 0.043371335
vn -0.88283646 -0.46767372 0.043371335
vn -0.88283646 -0.46767372 0.043371335
vn -0.8828363 0.46767414 0.043370407
vn -0.8828363 0.46767414 0.043370407
vn -0.8828363 0.46767414 0.043370407
vn -0.8828363 0.46767414 0.043370407
vn -0.9549017 0.29319283 0.046911698
vn -0.9549017 0.29319283 0.046911698
vn -0.9549017 0.29319283 0.046911698
vn -0.9549017 0.29319283 0.046911698
vn -0.8828364 -0.46767378 -0.04337119
vn -0.8828364 -0.46767378 -0.04337119
vn -0.8828364 -0.46767378 -0.04337119
vn -0.8828364 -0.46767378 -0.04337119
vn -0.8828361 0.46767437 -0.043370552
vn -0.8828361 0.46767437 -0.043370552
vn -0.8828361 0.46767437 -0.043370552
vn -0.8828361 0.46767437 -0.043370552
vn -0.9549017 0.2931927 -0.046911795
vn -0.9549017 0.2931927 -0.046911795
vn -0.9549017 0.2931927 -0.046911795
vn -0.9549017 0.2931927 -0.046911795
vn -0.99378633 0.100026086 -0.048821412
vn -0.99378633 0.100026086 -0.048821412
vn -0.99378633 0.100026086 -0.048821412
vn -0.99378633 0.100026086 -0.048821412
vn -0.9937862 -0.10002686 -0.048822124
vn -0.9937862 -0.10002686 -0.048822124
vn -0.9937862 -0.10002686 -0.048822124
vn -0.9937862 -0.10002686 -0.048822124
vn -0.95490146 -0.29319346 -0.0469117
vn -0.95490146 -0.29319346 -0.0469117
vn -0.95490146 -0.29319346 -0.0469117
vn -0.95490146 -0.29319346 -0.0469117
vn -0.9457056 0.2931925 -0.14028214
vn -0.9457056 0.2931925 -0.14028214
vn -0.9457056 0.2931925 -0.14028214
vn -0.9457056 0.2931925 -0.14028214
vn -0.9842157 0.10002574 -0.14599474
vn -0.9842157 0.10002574 -0.14599474
vn -0.9842157 0.10002574 -0.14599474
vn -0.9842157 0.10002574 -0.14599474
vn -0.98421556 -0.10002637 -0.14599471
vn -0.98421556 -0.10002637 -0.14599471
vn -0.98421556 -0.10002637 -0.14599471
vn -0.98421556 -0.10002637 -0.14599471
vn -0.94570524 -0.29319382 -0.1402813
vn -0.94570524 -0.29319382 -0.1402813
vn -0.94570524 -0.29319382 -0.1402813
vn -0.94570524 -0.29319382 -0.1402813
vn -0.87433404 -0.46767405 -0.12969568
vn -0.87433404 -0.46767405 -0.12969568
vn -0.87433404 -0.46767405 -0.12969568
vn -0.87433404 -0.46767405 -0.12969568
vn -0.8743339 0.46767455 -0.12969504
vn -0.8743339 0.46767455 -0.12969504
vn -0.8743339 0.46767455 -0.12969504
vn -0.8743339 0.46767455 -0.12969504
vn -0.85741156 -0.4676742 -0.21477017
vn -0.85741156 -0.4676742 -0.21477017
vn -0.85741156 -0.4676742 -0.21477017
vn -0.85741156 -0.4676742 -0.21477017
vn -0.85741115 0.46767464 -0.21477091
vn -0.85741115 0.46767464 -0.21477091
vn -0.85741115 0.46767464 -0.21477091
vn -0.85741115 0.46767464 -0.21477091
vn -0.9274016 0.29319277 -0.23230201
vn -0.9274016 0.29319277 -0.23230201
vn -0.9274016 0.29319277 -0.23230201
vn -0.9274016 0.29319277 -0.23230201
vn -0.96516657 0.10002519 -0.2417612
vn -0.96516657 0.10002519 -0.2417612
vn -0.96516657 0.10002519 -0.2417612
vn -0.96516657 0.10002519 -0.2417612
vn -0.96516657 -0.100026056 -0.2417611
vn -0.96516657 -0.100026056 -0.2417611
vn -0.96516657 -0.100026056 -0.2417611
vn -0.96516657 -0.100026056 -0.2417611
vn -0.92740107 -0.29319403 -0.2323026
vn -0.92740107 -0.29319403 -0.2323026
vn -0.92740107 -0.29319403 -0.2323026
vn -0.92740107 -0.29319403 -0.2323026
vn -0.900166 0.29319316 -0.3220853
vn -0.900166 0.29319316 -0.3220853
vn -0.900166 0.29319316 -0.3220853
vn -0.900166 0.29319316 -0.3220853
vn -0.9368221 0.10002529 -0.33520016
vn -0.9368221 0.10002529 -0.33520016
vn -0.9368221 0.10002529 -0.33520016
vn -0.9368221 0.10002529 -0.33520016
vn -0.9368221 -0.100026354 -0.33520016
vn -0.9368221 -0.100026354 -0.33520016
vn -0.9368221 -0.100026354 -0.33520016
vn -0.9368221 -0.100026354 -0.33520016
vn -0.90016586 -0.2931943 -0.3220845
vn -0.90016586 -0.2931943 -0.3220845
vn -0.90016586 -0.2931943 -0.3220845
vn -0.90016586 -0.2931943 -0.3220845
vn -0.8322318 -0.46767405 -0.2977769
vn -0.8322318 -0.46767405 -0.2977769
vn -0.8322318 -0.46767405 -0.2977769
vn -0.8322318 -0.46767405 -0.2977769
vn -0.8322315 0.46767467 -0.2977769
vn -0.8322315 0.46767467 -0.2977769
vn -0.8322315 0.46767467 -0.2977769
vn -0.8322315 0.46767467 -0.2977769
vn -0.86426187 -0.2931937 -0.40876505
vn -0.86426187 -0.2931937 -0.40876505
vn -0.86426187 -0.2931937 -0.40876505
vn -0.86426187 -0.2931937 -0.40876505
vn -0.79903716 -0.4676738 -0.37791625
vn -0.79903716 -0.4676738 -0.37791625
vn -0.79903716 -0.4676738 -0.37791625
vn -0.79903716 -0.4676738 -0.37791625
vn -0.79903686 0.46767443 -0.37791613
vn -0.79903686 0.46767443 -0.37791613
vn -0.79903686 0.46767443 -0.37791613
vn -0.79903686 0.46767443 -0.37791613
vn -0.86426216 0.29319283 -0.40876505
vn -0.86426216 0.29319283 -0.40876505
vn -0.86426216 0.29319283 -0.40876505
vn -0.86426216 0.29319283 -0.40876505
vn -0.8994553 0.10002535 -0.4254118
vn -0.8994553 0.10002535 -0.4254118
vn -0.8994553 0.10002535 -0.4254118
vn -0.8994553 0.10002535 -0.4254118
vn -0.8994554 -0.10002662 -0.42541108
vn -0.8994554 -0.10002662 -0.42541108
vn -0.8994554 -0.10002662 -0.42541108
vn -0.8994554 -0.10002662 -0.42541108
vn -0.7581467 0.46767443 -0.45441636
vn -0.7581467 0.46767443 -0.45441636
vn -0.7581467 0.46767443 -0.45441636
vn -0.7581467 0.46767443 -0.45441636
vn -0.82003415 0.29319254 -0.49151018
vn -0.82003415 0.29319254 -0.49151018
vn -0.82003415 0.29319254 -0.49151018
vn -0.82003415 0.29319254 -0.49151018
vn -0.85342693 0.100025326 -0.5115246
vn -0.85342693 0.100025326 -0.5115246
vn -0.85342693 0.100025326 -0.5115246
vn -0.85342693 0.100025326 -0.5115246
vn -0.8534266 -0.10002659 -0.51152503
vn -0.8534266 -0.10002659 -0.51152503
vn -0.8534266 -0.10002659 -0.51152503
vn -0.8534266 -0.10002659 -0.51152503
vn -0.8200342 -0.29319334 -0.4915096
vn -0.8200342 -0.29319334 -0.4915096
vn -0.8200342 -0.29319334 -0.4915096
vn -0.8200342 -0.29319334 -0.4915096
vn -0.7581473 -0.46767384 -0.45441595
vn -0.7581473 -0.46767384 -0.45441595
vn -0.7581473 -0.46767384 -0.45441595
vn -0.7581473 -0.46767384 -0.45441595
vn -0.767909 -0.2931932 -0.56952035
vn -0.767909 -0.2931932 -0.56952035
vn -0.767909 -0.2931932 -0.56952035
vn -0.767909 -0.2931932 -0.56952035
vn -0.7099558 -0.4676739 -0.52653944
vn -0.7099558 -0.4676739 -0.52653944
vn -0.7099558 -0.4676739 -0.52653944
vn -0.7099558 -0.4676739 -0.52653944
vn -0.70995605 0.4676741 -0.526539
vn -0.70995605 0.4676741 -0.526539
vn -0.70995605 0.4676741 -0.526539
vn -0.70995605 0.4676741 -0.526539
vn -0.76790947 0.2931927 -0.5695201
vn -0.76790947 0.2931927 -0.5695201
vn -0.76790947 0.2931927 -0.5695201
vn -0.76790947 0.2931927 -0.5695201
vn -0.79917955 0.10002513 -0.5927116
vn -0.79917955 0.10002513 -0.5927116
vn -0.79917955 0.10002513 -0.5927116
vn -0.79917955 0.10002513 -0.5927116
vn -0.79917943 -0.10002638 -0.5927115
vn -0.79917943 -0.10002638 -0.5927115
vn -0.79917943 -0.10002638 -0.5927115
vn -0.79917943 -0.10002638 -0.5927115
vn -0.6549271 0.46767473 -0.5935915
vn -0.6549271 0.46767473 -0.5935915
vn -0.6549271 0.46767473 -0.5935915
vn -0.6549271 0.46767473 -0.5935915
vn -0.70838886 0.2931925 -0.6420461
vn -0.70838886 0.2931925 -0.6420461
vn -0.70838886 0.2931925 -0.6420461
vn -0.70838886 0.2931925 -0.6420461
vn -0.7372356 0.10002479 -0.66819066
vn -0.7372356 0.10002479 -0.66819066
vn -0.7372356 0.10002479 -0.66819066
vn -0.7372356 0.10002479 -0.66819066
vn -0.7372351 -0.10002588 -0.6681909
vn -0.7372351 -0.10002588 -0.6681909
vn -0.7372351 -0.10002588 -0.6681909
vn -0.7372351 -0.10002588 -0.6681909
vn -0.70838845 -0.29319423 -0.6420458
vn -0.70838845 -0.29319423 -0.6420458
vn -0.70838845 -0.29319423 -0.6420458
vn -0.70838845 -0.29319423 -0.6420458
vn -0.6549277 -0.46767363 -0.5935917
vn -0.6549277 -0.46767363 -0.5935917
vn -0.6549277 -0.46767363 -0.5935917
vn -0.6549277 -0.46767363 -0.5935917
vn -0.668191 -0.10002607 -0.73723507
vn -0.668191 -0.10002607 -0.73723507
vn -0.668191 -0.10002607 -0.73723507
vn -0.668191 -0.10002607 -0.73723507
vn -0.6420464 -0.29319394 -0.7083881
vn -0.6420464 -0.29319394 -0.7083881
vn -0.6420464 -0.29319394 -0.7083881
vn -0.6420464 -0.29319394 -0.7083881
vn -0.5935911 -0.46767408 -0.654928
vn -0.5935911 -0.46767408 -0.654928
vn -0.5935911 -0.46767408 -0.654928
vn -0.5935911 -0.46767408 -0.654928
vn -0.59359056 0.4676753 -0.6549275
vn -0.59359056 0.4676753 -0.6549275
vn -0.59359056 0.4676753 -0.6549275
vn -0.59359056 0.4676753 -0.6549275
vn -0.64204603 0.2931928 -0.70838886
vn -0.64204603 0.2931928 -0.70838886
vn -0.64204603 0.2931928 -0.70838886
vn -0.64204603 0.2931928 -0.70838886
vn -0.668191 0.100024484 -0.73723537
vn -0.668191 0.100024484 -0.73723537
vn -0.668191 0.100024484 -0.73723537
vn -0.668191 0.100024484 -0.73723537
vn -0.52653897 0.46767503 -0.70995545
vn -0.52653897 0.46767503 -0.70995545
vn -0.52653897 0.46767503 -0.70995545
vn -0.52653897 0.46767503 -0.70995545
vn -0.56952035 0.293193 -0.76790917
vn -0.56952035 0.293193 -0.76790917
vn -0.56952035 0.293193 -0.76790917
vn -0.56952035 0.293193 -0.76790917
vn -0.5927114 0.10002404 -0.7991798
vn -0.5927114 0.10002404 -0.7991798
vn -0.5927114 0.10002404 -0.7991798
vn -0.5927114 0.10002404 -0.7991798
vn -0.5927115 -0.1000259 -0.79917943
vn -0.5927115 -0.1000259 -0.79917943
vn -0.5927115 -0.1000259 -0.79917943
vn -0.5927115 -0.1000259 -0.79917943
vn -0.56951964 -0.29319328 -0.7679096
vn -0.56951964 -0.29319328 -0.7679096
vn -0.56951964 -0.29319328 -0.7679096
vn -0.56951964 -0.29319328 -0.7679096
vn -0.52653885 -0.46767503 -0.7099556
vn -0.52653885 -0.46767503 -0.7099556
vn -0.52653885 -0.46767503 -0.7099556
vn -0.52653885 -0.46767503 -0.7099556
vn -0.51152444 0.10002428 -0.8534272
vn -0.51152444 0.10002428 -0.8534272
vn -0.51152444 0.10002428 -0.8534272
vn -0.51152444 0.10002428 -0.8534272
vn -0.5115242 -0.10002564 -0.8534271
vn -0.5115242 -0.10002564 -0.8534271
vn -0.5115242 -0.10002564 -0.8534271
vn -0.5115242 -0.10002564 -0.8534271
vn -0.4915098 -0.29319304 -0.82003415
vn -0.4915098 -0.29319304 -0.82003415
vn -0.4915098 -0.29319304 -0.82003415
vn -0.4915098 -0.29319304 -0.82003415
vn -0.4544159 -0.46767476 -0.7581468
vn -0.4544159 -0.46767476 -0.7581468
vn -0.4544159 -0.46767476 -0.7581468
vn -0.4544159 -0.46767476 -0.7581468
vn -0.45441568 0.46767506 -0.7581467
vn -0.45441568 0.46767506 -0.7581467
vn -0.45441568 0.46767506 -0.7581467
vn -0.45441568 0.46767506 -0.7581467
vn -0.49150938 0.29319277 -0.82003444
vn -0.49150938 0.29319277 -0.82003444
vn -0.49150938 0.29319277 -0.82003444
vn -0.49150938 0.29319277 -0.82003444
vn -0.37791613 0.4676745 -0.79903686
vn -0.37791613 0.4676745 -0.79903686
vn -0.37791613 0.4676745 -0.79903686
vn -0.37791613 0.4676745 -0.79903686
vn -0.4087649 0.29319268 -0.8642622
vn -0.4087649 0.29319268 -0.8642622
vn -0.4087649 0.29319268 -0.8642622
vn -0.4087649 0.29319268 -0.8642622
vn -0.42541057 0.10002343 -0.89945596
vn -0.42541057 0.10002343 -0.89945596
vn -0.42541057 0.10002343 -0.89945596
vn -0.42541057 0.10002343 -0.89945596
vn -0.4254109 -0.10002594 -0.8994556
vn -0.4254109 -0.10002594 -0.8994556
vn -0.4254109 -0.10002594 -0.8994556
vn -0.4254109 -0.10002594 -0.8994556
vn -0.40876508 -0.293193 -0.86426204
vn -0.40876508 -0.293193 -0.86426204
vn -0.40876508 -0.293193 -0.86426204
vn -0.40876508 -0.293193 -0.86426204
vn -0.377916 -0.46767452 -0.79903686
vn -0.377916 -0.46767452 -0.79903686
vn -0.377916 -0.46767452 -0.79903686
vn -0.377916 -0.46767452 -0.79903686
vn -0.33520046 0.10002415 -0.9368221
vn -0.33520046 0.10002415 -0.9368221
vn -0.33520046 0.10002415 -0.9368221
vn -0.33520046 0.10002415 -0.9368221
vn -0.33520004 -0.1000262 -0.9368221
vn -0.33520004 -0.1000262 -0.9368221
vn -0.33520004 -0.1000262 -0.9368221
vn -0.33520004 -0.1000262 -0.9368221
vn -0.32208446 -0.2931927 -0.90016645
vn -0.32208446 -0.2931927 -0.90016645
vn -0.32208446 -0.2931927 -0.90016645
vn -0.32208446 -0.2931927 -0.90016645
vn -0.29777738 -0.46767452 -0.8322315
vn -0.29777738 -0.46767452 -0.8322315
vn -0.29777738 -0.46767452 -0.8322315
vn -0.29777738 -0.46767452 -0.8322315
vn -0.2977769 0.46767494 -0.8322314
vn -0.2977769 0.46767494 -0.8322314
vn -0.2977769 0.46767494 -0.8322314
vn -0.2977769 0.46767494 -0.8322314
vn -0.3220846 0.2931926 -0.90016645
vn -0.3220846 0.2931926 -0.90016645
vn -0.3220846 0.2931926 -0.90016645
vn -0.3220846 0.2931926 -0.90016645
vn -0.21476991 -0.4676742 -0.8574117
vn -0.21476991 -0.4676742 -0.8574117
vn -0.21476991 -0.4676742 -0.8574117
vn -0.21476991 -0.4676742 -0.8574117
vn -0.2147701 0.46767515 -0.85741115
vn -0.2147701 0.46767515 -0.85741115
vn -0.2147701 0.46767515 -0.85741115
vn -0.2147701 0.46767515 -0.85741115
vn -0.23230124 0.29319215 -0.927402
vn -0.23230124 0.29319215 -0.927402
vn -0.23230124 0.29319215 -0.927402
vn -0.23230124 0.29319215 -0.927402
vn -0.24176113 0.10002504 -0.96516657
vn -0.24176113 0.10002504 -0.96516657
vn -0.24176113 0.10002504 -0.96516657
vn -0.24176113 0.10002504 -0.96516657
vn -0.24176145 -0.10002688 -0.96516633
vn -0.24176145 -0.10002688 -0.96516633
vn -0.24176145 -0.10002688 -0.96516633
vn -0.24176145 -0.10002688 -0.96516633
vn -0.23230155 -0.29319343 -0.9274015
vn -0.23230155 -0.29319343 -0.9274015
vn -0.23230155 -0.29319343 -0.9274015
vn -0.23230155 -0.29319343 -0.9274015
vn -0.14028199 0.29319257 -0.9457056
vn -0.14028199 0.29319257 -0.9457056
vn -0.14028199 0.29319257 -0.9457056
vn -0.14028199 0.29319257 -0.9457056
vn -0.14599428 0.100025214 -0.9842158
vn -0.14599428 0.100025214 -0.9842158
vn -0.14599428 0.100025214 -0.9842158
vn -0.14599428 0.100025214 -0.9842158
vn -0.14599428 -0.10002679 -0.98421556
vn -0.14599428 -0.10002679 -0.98421556
vn -0.14599428 -0.10002679 -0.98421556
vn -0.14599428 -0.10002679 -0.98421556
vn -0.14028151 -0.29319385 -0.94570524
vn -0.14028151 -0.29319385 -0.94570524
vn -0.14028151 -0.29319385 -0.94570524
vn -0.14028151 -0.29319385 -0.94570524
vn -0.1296947 -0.46767443 -0.8743339
vn -0.1296947 -0.46767443 -0.8743339
vn -0.1296947 -0.46767443 -0.8743339
vn -0.1296947 -0.46767443 -0.8743339
vn -0.12969513 0.46767452 -0.87433386
vn -0.12969513 0.46767452 -0.87433386
vn -0.12969513 0.46767452 -0.87433386
vn -0.12969513 0.46767452 -0.87433386
vn -0.043377217 -0.46767345 -0.8828363
vn -0.043377217 -0.46767345 -0.8828363
vn -0.043377217 -0.46767345 -0.8828363
vn -0.043377217 -0.46767345 -0.8828363
vn -0.04337696 0.46767405 -0.882836
vn -0.04337696 0.46767405 -0.882836
vn -0.04337696 0.46767405 -0.882836
vn -0.04337696 0.46767405 -0.882836
vn -0.0469161 0.29319206 -0.9549017
vn -0.0469161 0.29319206 -0.9549017
vn -0.0469161 0.29319206 -0.9549017
vn -0.0469161 0.29319206 -0.9549017
vn -0.048826862 0.100025624 -0.9937861
vn -0.048826862 0.100025624 -0.9937861
vn -0.048826862 0.100025624 -0.9937861
vn -0.048826862 0.100025624 -0.9937861
vn -0.048827197 -0.10002671 -0.993786
vn -0.048827197 -0.10002671 -0.993786
vn -0.048827197 -0.10002671 -0.993786
vn -0.048827197 -0.10002671 -0.993786
vn -0.046917092 -0.29319316 -0.9549014
vn -0.046917092 -0.29319316 -0.9549014
vn -0.046917092 -0.29319316 -0.9549014
vn -0.046917092 -0.29319316 -0.9549014
g Md_UNQ_LeafCylinder_00_0
f 3/3/3 2/2/2 1/1/1
f 3/3/3 4/4/4 2/2/2
f 7/7/7 6/6/6 5/5/5
f 7/7/7 8/8/8 6/6/6
f 11/11/11 10/10/10 9/9/9
f 11/11/11 12/12/12 10/10/10
f 15/15/15 14/14/14 13/13/13
f 15/15/15 16/16/16 14/14/14
f 19/19/19 18/18/18 17/17/17
f 19/19/19 20/20/20 18/18/18
f 23/23/23 22/22/22 21/21/21
f 23/23/23 24/24/24 22/22/22
f 27/27/27 26/26/26 25/25/25
f 27/27/27 28/28/28 26/26/26
f 31/31/31 30/30/30 29/29/29
f 31/31/31 32/32/32 30/30/30
f 35/35/35 34/34/34 33/33/33
f 35/35/35 36/36/36 34/34/34
f 39/39/39 38/38/38 37/37/37
f 39/39/39 40/40/40 38/38/38
f 43/43/43 42/42/42 41/41/41
f 43/43/43 44/44/44 42/42/42
f 47/47/47 46/46/46 45/45/45
f 47/47/47 48/48/48 46/46/46
f 51/51/51 50/50/50 49/49/49
f 51/51/51 52/52/52 50/50/50
f 55/55/55 54/54/54 53/53/53
f 55/55/55 56/56/56 54/54/54
f 59/59/59 58/58/58 57/57/57
f 59/59/59 60/60/60 58/58/58
f 63/63/63 62/62/62 61/61/61
f 63/63/63 64/64/64 62/62/62
f 67/67/67 66/66/66 65/65/65
f 67/67/67 68/68/68 66/66/66
f 71/71/71 70/70/70 69/69/69
f 71/71/71 72/72/72 70/70/70
f 75/75/75 74/74/74 73/73/73
f 75/75/75 76/76/76 74/74/74
f 79/79/79 78/78/78 77/77/77
f 79/79/79 80/80/80 78/78/78
f 83/83/83 82/82/82 81/81/81
f 83/83/83 84/84/84 82/82/82
f 87/87/87 86/86/86 85/85/85
f 87/87/87 88/88/88 86/86/86
f 91/91/91 90/90/90 89/89/89
f 91/91/91 92/92/92 90/90/90
f 95/95/95 94/94/94 93/93/93
f 95/95/95 96/96/96 94/94/94
f 99/99/99 98/98/98 97/97/97
f 99/99/99 100/100/100 98/98/98
f 103/103/103 102/102/102 101/101/101
f 103/103/103 104/104/104 102/102/102
f 107/107/107 106/106/106 105/105/105
f 107/107/107 108/108/108 106/106/106
f 111/111/111 110/110/110 109/109/109
f 111/111/111 112/112/112 110/110/110
f 115/115/115 114/114/114 113/113/113
f 115/115/115 116/116/116 114/114/114
f 119/119/119 118/118/118 117/117/117
f 119/119/119 120/120/120 118/118/118
f 123/123/123 122/122/122 121/121/121
f 123/123/123 124/124/124 122/122/122
f 127/127/127 126/126/126 125/125/125
f 127/127/127 128/128/128 126/126/126
f 131/131/131 130/130/130 129/129/129
f 131/131/131 132/132/132 130/130/130
f 135/135/135 134/134/134 133/133/133
f 135/135/135 136/136/136 134/134/134
f 139/139/139 138/138/138 137/137/137
f 139/139/139 140/140/140 138/138/138
f 143/143/143 142/142/142 141/141/141
f 143/143/143 144/144/144 142/142/142
f 147/147/147 146/146/146 145/145/145
f 147/147/147 148/148/148 146/146/146
f 151/151/151 150/150/150 149/149/149
f 151/151/151 152/152/152 150/150/150
f 155/155/155 154/154/154 153/153/153
f 155/155/155 156/156/156 154/154/154
f 159/159/159 158/158/158 157/157/157
f 159/159/159 160/160/160 158/158/158
f 163/163/163 162/162/162 161/161/161
f 163/163/163 164/164/164 162/162/162
f 167/167/167 166/166/166 165/165/165
f 167/167/167 168/168/168 166/166/166
f 171/171/171 170/170/170 169/169/169
f 171/171/171 172/172/172 170/170/170
f 175/175/175 174/174/174 173/173/173
f 175/175/175 176/176/176 174/174/174
f 179/179/179 178/178/178 177/177/177
f 179/179/179 180/180/180 178/178/178
f 183/183/183 182/182/182 181/181/181
f 183/183/183 184/184/184 182/182/182
f 187/187/187 186/186/186 185/185/185
f 187/187/187 188/188/188 186/186/186
f 191/191/191 190/190/190 189/189/189
f 191/191/191 192/192/192 190/190/190
f 195/195/195 194/194/194 193/193/193
f 195/195/195 196/196/196 194/194/194
f 199/199/199 198/198/198 197/197/197
f 199/199/199 200/200/200 198/198/198
f 203/203/203 202/202/202 201/201/201
f 203/203/203 204/204/204 202/202/202
f 207/207/207 206/206/206 205/205/205
f 207/207/207 208/208/208 206/206/206
f 211/211/211 210/210/210 209/209/209
f 211/211/211 212/212/212 210/210/210
f 215/215/215 214/214/214 213/213/213
f 215/215/215 216/216/216 214/214/214
f 219/219/219 218/218/218 217/217/217
f 219/219/219 220/220/220 218/218/218
f 223/223/223 222/222/222 221/221/221
f 223/223/223 224/224/224 222/222/222
f 227/227/227 226/226/226 225/225/225
f 227/227/227 228/228/228 226/226/226
f 231/231/231 230/230/230 229/229/229
f 231/231/231 232/232/232 230/230/230
f 235/235/235 234/234/234 233/233/233
f 235/235/235 236/236/236 234/234/234
f 239/239/239 238/238/238 237/237/237
f 239/239/239 240/240/240 238/238/238
f 243/243/243 242/242/242 241/241/241
f 243/243/243 244/244/244 242/242/242
f 247/247/247 246/246/246 245/245/245
f 247/247/247 248/248/248 246/246/246
f 251/251/251 250/250/250 249/249/249
f 251/251/251 252/252/252 250/250/250
f 255/255/255 254/254/254 253/253/253
f 255/255/255 256/256/256 254/254/254
f 259/259/259 258/258/258 257/257/257
f 259/259/259 260/260/260 258/258/258
f 263/263/263 262/262/262 261/261/261
f 263/263/263 264/264/264 262/262/262
f 267/267/267 266/266/266 265/265/265
f 267/267/267 268/268/268 266/266/266
f 271/271/271 270/270/270 269/269/269
f 271/271/271 272/272/272 270/270/270
f 275/275/275 274/274/274 273/273/273
f 275/275/275 276/276/276 274/274/274
f 279/279/279 278/278/278 277/277/277
f 279/279/279 280/280/280 278/278/278
f 283/283/283 282/282/282 281/281/281
f 283/283/283 284/284/284 282/282/282
f 287/287/287 286/286/286 285/285/285
f 287/287/287 288/288/288 286/286/286
f 291/291/291 290/290/290 289/289/289
f 291/291/291 292/292/292 290/290/290
f 295/295/295 294/294/294 293/293/293
f 295/295/295 296/296/296 294/294/294
f 299/299/299 298/298/298 297/297/297
f 299/299/299 300/300/300 298/298/298
f 303/303/303 302/302/302 301/301/301
f 303/303/303 304/304/304 302/302/302
f 307/307/307 306/306/306 305/305/305
f 307/307/307 308/308/308 306/306/306
f 311/311/311 310/310/310 309/309/309
f 311/311/311 312/312/312 310/310/310
f 315/315/315 314/314/314 313/313/313
f 315/315/315 316/316/316 314/314/314
f 319/319/319 318/318/318 317/317/317
f 319/319/319 320/320/320 318/318/318
f 323/323/323 322/322/322 321/321/321
f 323/323/323 324/324/324 322/322/322
f 327/327/327 326/326/326 325/325/325
f 327/327/327 328/328/328 326/326/326
f 331/331/331 330/330/330 329/329/329
f 331/331/331 332/332/332 330/330/330
f 335/335/335 334/334/334 333/333/333
f 335/335/335 336/336/336 334/334/334
f 339/339/339 338/338/338 337/337/337
f 339/339/339 340/340/340 338/338/338
f 343/343/343 342/342/342 341/341/341
f 343/343/343 344/344/344 342/342/342
f 347/347/347 346/346/346 345/345/345
f 347/347/347 348/348/348 346/346/346
f 351/351/351 350/350/350 349/349/349
f 351/351/351 352/352/352 350/350/350
f 355/355/355 354/354/354 353/353/353
f 355/355/355 356/356/356 354/354/354
f 359/359/359 358/358/358 357/357/357
f 359/359/359 360/360/360 358/358/358
f 363/363/363 362/362/362 361/361/361
f 363/363/363 364/364/364 362/362/362
f 367/367/367 366/366/366 365/365/365
f 367/367/367 368/368/368 366/366/366
f 371/371/371 370/370/370 369/369/369
f 371/371/371 372/372/372 370/370/370
f 375/375/375 374/374/374 373/373/373
f 375/375/375 376/376/376 374/374/374
f 379/379/379 378/378/378 377/377/377
f 379/379/379 380/380/380 378/378/378
f 383/383/383 382/382/382 381/381/381
f 383/383/383 384/384/384 382/382/382
f 387/387/387 386/386/386 385/385/385
f 387/387/387 388/388/388 386/386/386
f 391/391/391 390/390/390 389/389/389
f 391/391/391 392/392/392 390/390/390
f 395/395/395 394/394/394 393/393/393
f 395/395/395 396/396/396 394/394/394
f 399/399/399 398/398/398 397/397/397
f 399/399/399 400/400/400 398/398/398
f 403/403/403 402/402/402 401/401/401
f 403/403/403 404/404/404 402/402/402
f 407/407/407 406/406/406 405/405/405
f 407/407/407 408/408/408 406/406/406
f 411/411/411 410/410/410 409/409/409
f 411/411/411 412/412/412 410/410/410
f 415/415/415 414/414/414 413/413/413
f 415/415/415 416/416/416 414/414/414
f 419/419/419 418/418/418 417/417/417
f 419/419/419 420/420/420 418/418/418
f 423/423/423 422/422/422 421/421/421
f 423/423/423 424/424/424 422/422/422
f 427/427/427 426/426/426 425/425/425
f 427/427/427 428/428/428 426/426/426
f 431/431/431 430/430/430 429/429/429
f 431/431/431 432/432/432 430/430/430
f 435/435/435 434/434/434 433/433/433
f 435/435/435 436/436/436 434/434/434
f 439/439/439 438/438/438 437/437/437
f 439/439/439 440/440/440 438/438/438
f 443/443/443 442/442/442 441/441/441
f 443/443/443 444/444/444 442/442/442
f 447/447/447 446/446/446 445/445/445
f 447/447/447 448/448/448 446/446/446
f 451/451/451 450/450/450 449/449/449
f 451/451/451 452/452/452 450/450/450
f 455/455/455 454/454/454 453/453/453
f 455/455/455 456/456/456 454/454/454
f 459/459/459 458/458/458 457/457/457
f 459/459/459 460/460/460 458/458/458
f 463/463/463 462/462/462 461/461/461
f 463/463/463 464/464/464 462/462/462
f 467/467/467 466/466/466 465/465/465
f 467/467/467 468/468/468 466/466/466
f 471/471/471 470/470/470 469/469/469
f 471/471/471 472/472/472 470/470/470
f 475/475/475 474/474/474 473/473/473
f 475/475/475 476/476/476 474/474/474
f 479/479/479 478/478/478 477/477/477
f 479/479/479 480/480/480 478/478/478
f 483/483/483 482/482/482 481/481/481
f 483/483/483 484/484/484 482/482/482
f 487/487/487 486/486/486 485/485/485
f 487/487/487 488/488/488 486/486/486
f 491/491/491 490/490/490 489/489/489
f 491/491/491 492/492/492 490/490/490
f 495/495/495 494/494/494 493/493/493
f 495/495/495 496/496/496 494/494/494
f 499/499/499 498/498/498 497/497/497
f 499/499/499 500/500/500 498/498/498
f 503/503/503 502/502/502 501/501/501
f 503/503/503 504/504/504 502/502/502
f 507/507/507 506/506/506 505/505/505
f 507/507/507 508/508/508 506/506/506
f 511/511/511 510/510/510 509/509/509
f 511/511/511 512/512/512 510/510/510
f 515/515/515 514/514/514 513/513/513
f 515/515/515 516/516/516 514/514/514
f 519/519/519 518/518/518 517/517/517
f 519/519/519 520/520/520 518/518/518
f 523/523/523 522/522/522 521/521/521
f 523/523/523 524/524/524 522/522/522
f 527/527/527 526/526/526 525/525/525
f 527/527/527 528/528/528 526/526/526
f 531/531/531 530/530/530 529/529/529
f 531/531/531 532/532/532 530/530/530
f 535/535/535 534/534/534 533/533/533
f 535/535/535 536/536/536 534/534/534
f 539/539/539 538/538/538 537/537/537
f 539/539/539 540/540/540 538/538/538
f 543/543/543 542/542/542 541/541/541
f 543/543/543 544/544/544 542/542/542
f 547/547/547 546/546/546 545/545/545
f 547/547/547 548/548/548 546/546/546
f 551/551/551 550/550/550 549/549/549
f 551/551/551 552/552/552 550/550/550
f 555/555/555 554/554/554 553/553/553
f 555/555/555 556/556/556 554/554/554
f 559/559/559 558/558/558 557/557/557
f 559/559/559 560/560/560 558/558/558
f 563/563/563 562/562/562 561/561/561
f 563/563/563 564/564/564 562/562/562
f 567/567/567 566/566/566 565/565/565
f 567/567/567 568/568/568 566/566/566
f 571/571/571 570/570/570 569/569/569
f 571/571/571 572/572/572 570/570/570
f 575/575/575 574/574/574 573/573/573
f 575/575/575 576/576/576 574/574/574
f 579/579/579 578/578/578 577/577/577
f 579/579/579 580/580/580 578/578/578
f 583/583/583 582/582/582 581/581/581
f 583/583/583 584/584/584 582/582/582
f 587/587/587 586/586/586 585/585/585
f 587/587/587 588/588/588 586/586/586
f 591/591/591 590/590/590 589/589/589
f 591/591/591 592/592/592 590/590/590
f 595/595/595 594/594/594 593/593/593
f 595/595/595 596/596/596 594/594/594
f 599/599/599 598/598/598 597/597/597
f 599/599/599 600/600/600 598/598/598
f 603/603/603 602/602/602 601/601/601
f 603/603/603 604/604/604 602/602/602
f 607/607/607 606/606/606 605/605/605
f 607/607/607 608/608/608 606/606/606
f 611/611/611 610/610/610 609/609/609
f 611/611/611 612/612/612 610/610/610
f 615/615/615 614/614/614 613/613/613
f 615/615/615 616/616/616 614/614/614
f 619/619/619 618/618/618 617/617/617
f 619/619/619 620/620/620 618/618/618
f 623/623/623 622/622/622 621/621/621
f 623/623/623 624/624/624 622/622/622
f 627/627/627 626/626/626 625/625/625
f 627/627/627 628/628/628 626/626/626
f 631/631/631 630/630/630 629/629/629
f 631/631/631 632/632/632 630/630/630
f 635/635/635 634/634/634 633/633/633
f 635/635/635 636/636/636 634/634/634
f 639/639/639 638/638/638 637/637/637
f 639/639/639 640/640/640 638/638/638
f 643/643/643 642/642/642 641/641/641
f 643/643/643 644/644/644 642/642/642
f 647/647/647 646/646/646 645/645/645
f 647/647/647 648/648/648 646/646/646
f 651/651/651 650/650/650 649/649/649
f 651/651/651 652/652/652 650/650/650
f 655/655/655 654/654/654 653/653/653
f 655/655/655 656/656/656 654/654/654
f 659/659/659 658/658/658 657/657/657
f 659/659/659 660/660/660 658/658/658
f 663/663/663 662/662/662 661/661/661
f 663/663/663 664/664/664 662/662/662
f 667/667/667 666/666/666 665/665/665
f 667/667/667 668/668/668 666/666/666
f 671/671/671 670/670/670 669/669/669
f 671/671/671 672/672/672 670/670/670
f 675/675/675 674/674/674 673/673/673
f 675/675/675 676/676/676 674/674/674
f 679/679/679 678/678/678 677/677/677
f 679/679/679 680/680/680 678/678/678
f 683/683/683 682/682/682 681/681/681
f 683/683/683 684/684/684 682/682/682
f 687/687/687 686/686/686 685/685/685
f 687/687/687 688/688/688 686/686/686
f 691/691/691 690/690/690 689/689/689
f 691/691/691 692/692/692 690/690/690
f 695/695/695 694/694/694 693/693/693
f 695/695/695 696/696/696 694/694/694
f 699/699/699 698/698/698 697/697/697
f 699/699/699 700/700/700 698/698/698
f 703/703/703 702/702/702 701/701/701
f 703/703/703 704/704/704 702/702/702
f 707/707/707 706/706/706 705/705/705
f 707/707/707 708/708/708 706/706/706
f 711/711/711 710/710/710 709/709/709
f 711/711/711 712/712/712 710/710/710
f 715/715/715 714/714/714 713/713/713
f 715/715/715 716/716/716 714/714/714
f 719/719/719 718/718/718 717/717/717
f 719/719/719 720/720/720 718/718/718
f 723/723/723 722/722/722 721/721/721
f 723/723/723 724/724/724 722/722/722
f 727/727/727 726/726/726 725/725/725
f 727/727/727 728/728/728 726/726/726
f 731/731/731 730/730/730 729/729/729
f 731/731/731 732/732/732 730/730/730
f 735/735/735 734/734/734 733/733/733
f 735/735/735 736/736/736 734/734/734
f 739/739/739 738/738/738 737/737/737
f 739/739/739 740/740/740 738/738/738
f 743/743/743 742/742/742 741/741/741
f 743/743/743 744/744/744 742/742/742
f 747/747/747 746/746/746 745/745/745
f 747/747/747 748/748/748 746/746/746
f 751/751/751 750/750/750 749/749/749
f 751/751/751 752/752/752 750/750/750
f 755/755/755 754/754/754 753/753/753
f 755/755/755 756/756/756 754/754/754
f 759/759/759 758/758/758 757/757/757
f 759/759/759 760/760/760 758/758/758
f 763/763/763 762/762/762 761/761/761
f 763/763/763 764/764/764 762/762/762
f 767/767/767 766/766/766 765/765/765
f 767/767/767 768/768/768 766/766/766
