g Md_UNQ_CuttingLine_01
v -3.5425 -0.7500002 0
v -3.5425 -1.928324E-07 0
v -3.4008 -0.7484161 0
v -3.4008 0.0015838603 0
v -3.5425 0.7499998 0
v -3.4008 0.7515839 0
v -3.2591002 -0.74558276 0
v -3.2591002 0.0044172266 0
v -3.2591002 0.75441724 -2.9802322E-08
v -3.1174 0.7499998 0
v -3.1174 -1.928324E-07 0
v -3.1174 -0.7500002 0
v -2.9757001 0.740866 0
v -2.9757001 -0.009134009 0
v -2.9757001 -0.759134 0
v -2.834 0.73114854 0
v -2.834 -0.018851474 0
v -2.834 -0.76885146 2.9802322E-08
v -2.6922998 0.71922237 0
v -2.6922998 -0.030777648 0
v -2.6922998 -0.78077763 0
v -2.5506 0.7100223 0
v -2.5506 -0.039977744 0
v -2.5506 -0.7899777 0
v -2.4089 0.7067607 0
v -2.4089 -0.04323931 0
v -2.4089 -0.7932393 0
v -2.2672 0.7026437 0
v -2.2672 -0.047356322 0
v -2.2672 -0.7973563 0
v -2.1255002 -0.7946374 0
v -2.1255002 -0.044637397 0
v -2.1255002 0.7053626 0
v -1.9837999 -0.7926852 0
v -1.9837999 -0.042685226 0
v -1.9837999 0.7073148 0
v -1.8420999 -0.7896897 0
v -1.8420999 -0.039689735 0
v -1.8420999 0.7103103 0
v -1.7004001 -0.7871558 2.9802322E-08
v -1.7004001 -0.037155822 0
v -1.7004001 0.7128442 0
v -1.5587 -0.7777111 0
v -1.5587 -0.027711108 0
v -1.5587 0.7222889 0
v -1.4170002 -0.7684657 0
v -1.4170002 -0.018465713 0
v -1.4170002 0.7315343 0
v -1.2753 -0.7603137 0
v -1.2753 -0.010313704 0
v -1.2753 0.7396863 0
v -1.1336 -0.7500002 0
v -1.1336 -1.928324E-07 0
v -1.1336 0.7499998 0
v -0.9919001 -0.74253243 0
v -0.9919001 0.007467554 0
v -0.9919001 0.75746757 0
v -0.85020006 -0.7334215 0
v -0.85020006 0.01657848 0
v -0.85020006 0.7665785 0
v -0.70850015 -0.72434825 0
v -0.70850015 0.025651738 0
v -0.70850015 0.77565175 0
v -0.5668001 -0.71471757 0
v -0.5668001 0.035282418 0
v -0.5668001 0.78528243 0
v -0.42510003 -0.70361346 0
v -0.42510003 0.046386525 0
v -0.42510003 0.79638654 0
v -0.28340015 -0.690201 0
v -0.28340015 0.059799 0
v -0.28340015 0.809799 0
v -0.14170007 -0.6792361 0
v -0.14170007 0.070763394 0
v -0.14170007 0.8207639 0
v -0 -0.6659681 0
v -0 0.084031865 0
v -0 0.8340319 0
v 0.14169987 -0.6527001 0
v 0.14169987 0.09729986 0
v 0.14169987 0.8472999 0
v 0.28339973 -0.63943166 0
v 0.28339973 0.11056833 0
v 0.28339973 0.86056834 0
v 0.42510003 -0.62616366 0
v 0.42510003 0.12383632 0
v 0.42510003 0.87383634 0
v 0.5667999 -0.6106841 0
v 0.5667999 0.13931589 0
v 0.5667999 0.8893159 0
v 0.7084997 -0.59299344 0
v 0.7084997 0.15700655 0
v 0.7084997 0.90700656 0
v 0.85020006 -0.5753023 0
v 0.85020006 0.17469768 0
v 0.85020006 0.9246977 0
v 0.9918999 -0.55761164 0
v 0.9918999 0.19238834 0
v 0.9918999 0.94238836 0
v 1.1335998 -0.5377094 0
v 1.1335998 0.21229057 0
v 1.1335998 0.9622906 0
v 1.2753 -0.5222294 0
v 1.2753 0.22777061 0
v 1.2753 0.9777706 0
v 1.4169998 -0.5045387 0
v 1.4169998 0.24546127 0
v 1.4169998 0.9954613 0
v 1.5586998 -0.49127024 0
v 1.5586998 0.25872976 0
v 1.5586998 1.0087297 0
v 1.7004001 -0.47579068 0
v 1.7004001 0.27420932 0
v 1.7004001 1.0242093 0
v 1.8420999 -0.45810002 0
v 1.8420999 0.29189998 0
v 1.8420999 1.0418999 0
v 1.9837998 -0.44704312 0
v 1.9837998 0.30295688 0
v 1.9837998 1.0529568 0
v 2.1254997 -0.43377513 0
v 2.1254997 0.31622487 0
v 2.1254997 1.0662253 0
v 2.2672 -0.42271823 0
v 2.2672 0.32728177 0
v 2.2672 1.0772817 0
v 2.4088998 -0.40717667 0
v 2.4088998 0.34282333 0
v 2.4088998 1.0928233 -2.9802322E-08
v 2.5505996 -0.3935997 0
v 2.5505996 0.3564003 0
v 2.5505996 1.1064003 -2.9802322E-08
v 2.6922998 -0.37323397 0
v 2.6922998 0.37676603 0
v 2.6922998 1.126766 0
v 2.8339996 -0.35444754 0
v 2.8339996 0.39555246 0
v 2.8339996 1.1455524 0
v 2.9757 -0.33618754 0
v 2.9757 0.41381246 0
v 2.9757 1.1638124 0
v 3.1174 -0.31183118 0
v 3.1174 0.43816882 0
v 3.1174 1.1881688 0
v 3.2591 -0.28459758 0
v 3.2591 0.46540242 0
v 3.2591 1.2154024 0
v 3.4007998 -0.25454396 0
v 3.4007998 0.49545604 0
v 3.5425 -0.20796652 0
v 3.4007998 1.245456 0
v 3.5425 0.5420335 0
v 3.5425 1.2920334 0
vt 0 0
vt 0 0.5
vt 0.02 0
vt 0.02 0.5
vt 0 1
vt 0.02 1
vt 0.04 0
vt 0.04 0.5
vt 0.04 1
vt 0.06 1
vt 0.06 0.5
vt 0.06 0
vt 0.08 1
vt 0.08 0.5
vt 0.08 0
vt 0.099999994 1
vt 0.099999994 0.5
vt 0.099999994 0
vt 0.12 1
vt 0.12 0.5
vt 0.12 0
vt 0.14 1
vt 0.14 0.5
vt 0.14 0
vt 0.16 1
vt 0.16 0.5
vt 0.16 0
vt 0.17999999 1
vt 0.17999999 0.5
vt 0.17999999 0
vt 0.19999999 0
vt 0.19999999 0.5
vt 0.19999999 1
vt 0.22 0
vt 0.22 0.5
vt 0.22 1
vt 0.24 0
vt 0.24 0.5
vt 0.24 1
vt 0.26 0
vt 0.26 0.5
vt 0.26 1
vt 0.28 0
vt 0.28 0.5
vt 0.28 1
vt 0.29999998 0
vt 0.29999998 0.5
vt 0.29999998 1
vt 0.32 0
vt 0.32 0.5
vt 0.32 1
vt 0.34 0
vt 0.34 0.5
vt 0.34 1
vt 0.35999998 0
vt 0.35999998 0.5
vt 0.35999998 1
vt 0.38 0
vt 0.38 0.5
vt 0.38 1
vt 0.39999998 0
vt 0.39999998 0.5
vt 0.39999998 1
vt 0.42 0
vt 0.42 0.5
vt 0.42 1
vt 0.44 0
vt 0.44 0.5
vt 0.44 1
vt 0.45999998 0
vt 0.45999998 0.5
vt 0.45999998 1
vt 0.48 0
vt 0.48 0.5
vt 0.48 1
vt 0.5 0
vt 0.5 0.5
vt 0.5 1
vt 0.52 0
vt 0.52 0.5
vt 0.52 1
vt 0.53999996 0
vt 0.53999996 0.5
vt 0.53999996 1
vt 0.56 0
vt 0.56 0.5
vt 0.56 1
vt 0.58 0
vt 0.58 0.5
vt 0.58 1
vt 0.59999996 0
vt 0.59999996 0.5
vt 0.59999996 1
vt 0.62 0
vt 0.62 0.5
vt 0.62 1
vt 0.64 0
vt 0.64 0.5
vt 0.64 1
vt 0.65999997 0
vt 0.65999997 0.5
vt 0.65999997 1
vt 0.68 0
vt 0.68 0.5
vt 0.68 1
vt 0.7 0
vt 0.7 0.5
vt 0.7 1
vt 0.71999997 0
vt 0.71999997 0.5
vt 0.71999997 1
vt 0.74 0
vt 0.74 0.5
vt 0.74 1
vt 0.76 0
vt 0.76 0.5
vt 0.76 1
vt 0.78 0
vt 0.78 0.5
vt 0.78 1
vt 0.79999995 0
vt 0.79999995 0.5
vt 0.79999995 1
vt 0.82 0
vt 0.82 0.5
vt 0.82 1
vt 0.84 0
vt 0.84 0.5
vt 0.84 1
vt 0.85999995 0
vt 0.85999995 0.5
vt 0.85999995 1
vt 0.88 0
vt 0.88 0.5
vt 0.88 1
vt 0.9 0
vt 0.9 0.5
vt 0.9 1
vt 0.91999996 0
vt 0.91999996 0.5
vt 0.91999996 1
vt 0.94 0
vt 0.94 0.5
vt 0.94 1
vt 0.96 0
vt 0.96 0.5
vt 0.96 1
vt 0.97999996 0
vt 0.97999996 0.5
vt 1 0
vt 0.97999996 1
vt 1 0.5
vt 1 1
vn -0 0 1
vn -0 0 1
vn -0 0 1
vn -0 0 1
vn -0 0 1
vn -0 0 1
vn -0 0 1
vn -0 0 1
vn -0 0 1
vn -0 0 1
vn -0 0 1
vn -0 0 1
vn -0 0 1
vn -0 0 1
vn -0 0 1
vn -0 0 1
vn -0 0 1
vn -0 0 1
vn -0 0 1
vn -0 0 1
vn -0 0 1
vn -0 0 1
vn -0 0 1
vn -0 0 1
vn -0 0 1
vn -0 0 1
vn -0 0 1
vn -0 0 1
vn -0 0 1
vn -0 0 1
vn -0 0 1
vn -0 0 1
vn -0 0 1
vn -0 0 1
vn -0 0 1
vn -0 0 1
vn -0 0 1
vn -0 0 1
vn -0 0 1
vn -0 0 1
vn -0 0 1
vn -0 0 1
vn -0 0 1
vn -0 0 1
vn -0 0 1
vn -0 0 1
vn -0 0 1
vn -0 0 1
vn -0 0 1
vn -0 0 1
vn -0 0 1
vn -0 0 1
vn -0 0 1
vn -0 0 1
vn -0 0 1
vn -0 0 1
vn -0 0 1
vn -0 0 1
vn -0 0 1
vn -0 0 1
vn -0 0 1
vn -0 0 1
vn -0 0 1
vn -0 0 1
vn -0 0 1
vn -0 0 1
vn -0 0 1
vn -0 0 1
vn -0 0 1
vn -0 0 1
vn -0 0 1
vn -0 0 1
vn -0 0 1
vn -0 0 1
vn -0 0 1
vn -0 0 1
vn -0 0 1
vn -0 0 1
vn -0 0 1
vn -0 0 1
vn -0 0 1
vn -0 0 1
vn -0 0 1
vn -0 0 1
vn -0 0 1
vn -0 0 1
vn -0 0 1
vn -0 0 1
vn -0 0 1
vn -0 0 1
vn -0 0 1
vn -0 0 1
vn -0 0 1
vn -0 0 1
vn -0 0 1
vn -0 0 1
vn -0 0 1
vn -0 0 1
vn -0 0 1
vn -0 0 1
vn -0 0 1
vn -0 0 1
vn -0 0 1
vn -0 0 1
vn -0 0 1
vn -0 0 1
vn -0 0 1
vn -0 0 1
vn -0 0 1
vn -0 0 1
vn -0 0 1
vn -0 0 1
vn -0 0 1
vn -0 0 1
vn -0 0 1
vn -0 0 1
vn -0 0 1
vn -0 0 1
vn -0 0 1
vn -0 0 1
vn -0 0 1
vn -0 0 1
vn -0 0 1
vn -0 0 1
vn -0 0 1
vn -0 0 1
vn -0 0 1
vn -0 0 1
vn -0 0 1
vn -0 0 1
vn -0 0 1
vn -0 0 1
vn -0 0 1
vn -0 0 1
vn -0 0 1
vn -0 0 1
vn -0 0 1
vn -0 0 1
vn -0 0 1
vn -0 0 1
vn -0 0 1
vn -0 0 1
vn -0 0 1
vn -0 0 1
vn -0 0 1
vn -0 0 1
vn -0 0 1
vn -0 0 1
vn -0 0 1
vn -0 0 1
vn -0 0 1
vn -0 0 1
vn -0 0 1
g Md_UNQ_CuttingLine_01_0
f 3/3/3 2/2/2 1/1/1
f 3/3/3 4/4/4 2/2/2
f 4/4/4 5/5/5 2/2/2
f 4/4/4 6/6/6 5/5/5
f 7/7/7 4/4/4 3/3/3
f 8/8/8 6/6/6 4/4/4
f 7/7/7 8/8/8 4/4/4
f 8/8/8 9/9/9 6/6/6
f 10/10/10 9/9/9 8/8/8
f 11/11/11 8/8/8 7/7/7
f 10/10/10 8/8/8 11/11/11
f 11/11/11 7/7/7 12/12/12
f 13/13/13 10/10/10 11/11/11
f 14/14/14 11/11/11 12/12/12
f 13/13/13 11/11/11 14/14/14
f 14/14/14 12/12/12 15/15/15
f 16/16/16 13/13/13 14/14/14
f 17/17/17 14/14/14 15/15/15
f 16/16/16 14/14/14 17/17/17
f 17/17/17 15/15/15 18/18/18
f 19/19/19 16/16/16 17/17/17
f 20/20/20 17/17/17 18/18/18
f 19/19/19 17/17/17 20/20/20
f 20/20/20 18/18/18 21/21/21
f 22/22/22 19/19/19 20/20/20
f 23/23/23 20/20/20 21/21/21
f 22/22/22 20/20/20 23/23/23
f 23/23/23 21/21/21 24/24/24
f 25/25/25 22/22/22 23/23/23
f 26/26/26 23/23/23 24/24/24
f 25/25/25 23/23/23 26/26/26
f 26/26/26 24/24/24 27/27/27
f 28/28/28 25/25/25 26/26/26
f 29/29/29 26/26/26 27/27/27
f 28/28/28 26/26/26 29/29/29
f 29/29/29 27/27/27 30/30/30
f 31/31/31 29/29/29 30/30/30
f 32/32/32 28/28/28 29/29/29
f 31/31/31 32/32/32 29/29/29
f 32/32/32 33/33/33 28/28/28
f 34/34/34 32/32/32 31/31/31
f 35/35/35 33/33/33 32/32/32
f 34/34/34 35/35/35 32/32/32
f 35/35/35 36/36/36 33/33/33
f 37/37/37 35/35/35 34/34/34
f 38/38/38 36/36/36 35/35/35
f 37/37/37 38/38/38 35/35/35
f 38/38/38 39/39/39 36/36/36
f 40/40/40 38/38/38 37/37/37
f 41/41/41 39/39/39 38/38/38
f 40/40/40 41/41/41 38/38/38
f 41/41/41 42/42/42 39/39/39
f 43/43/43 41/41/41 40/40/40
f 44/44/44 42/42/42 41/41/41
f 43/43/43 44/44/44 41/41/41
f 44/44/44 45/45/45 42/42/42
f 46/46/46 44/44/44 43/43/43
f 47/47/47 45/45/45 44/44/44
f 46/46/46 47/47/47 44/44/44
f 47/47/47 48/48/48 45/45/45
f 49/49/49 47/47/47 46/46/46
f 50/50/50 48/48/48 47/47/47
f 49/49/49 50/50/50 47/47/47
f 50/50/50 51/51/51 48/48/48
f 52/52/52 50/50/50 49/49/49
f 53/53/53 51/51/51 50/50/50
f 52/52/52 53/53/53 50/50/50
f 53/53/53 54/54/54 51/51/51
f 55/55/55 53/53/53 52/52/52
f 56/56/56 54/54/54 53/53/53
f 55/55/55 56/56/56 53/53/53
f 56/56/56 57/57/57 54/54/54
f 58/58/58 56/56/56 55/55/55
f 59/59/59 57/57/57 56/56/56
f 58/58/58 59/59/59 56/56/56
f 59/59/59 60/60/60 57/57/57
f 61/61/61 59/59/59 58/58/58
f 62/62/62 60/60/60 59/59/59
f 61/61/61 62/62/62 59/59/59
f 62/62/62 63/63/63 60/60/60
f 64/64/64 62/62/62 61/61/61
f 65/65/65 63/63/63 62/62/62
f 64/64/64 65/65/65 62/62/62
f 65/65/65 66/66/66 63/63/63
f 67/67/67 65/65/65 64/64/64
f 68/68/68 66/66/66 65/65/65
f 67/67/67 68/68/68 65/65/65
f 68/68/68 69/69/69 66/66/66
f 70/70/70 68/68/68 67/67/67
f 71/71/71 69/69/69 68/68/68
f 70/70/70 71/71/71 68/68/68
f 71/71/71 72/72/72 69/69/69
f 73/73/73 71/71/71 70/70/70
f 74/74/74 72/72/72 71/71/71
f 73/73/73 74/74/74 71/71/71
f 74/74/74 75/75/75 72/72/72
f 76/76/76 74/74/74 73/73/73
f 77/77/77 75/75/75 74/74/74
f 76/76/76 77/77/77 74/74/74
f 77/77/77 78/78/78 75/75/75
f 79/79/79 77/77/77 76/76/76
f 80/80/80 78/78/78 77/77/77
f 79/79/79 80/80/80 77/77/77
f 80/80/80 81/81/81 78/78/78
f 82/82/82 80/80/80 79/79/79
f 83/83/83 81/81/81 80/80/80
f 82/82/82 83/83/83 80/80/80
f 83/83/83 84/84/84 81/81/81
f 85/85/85 83/83/83 82/82/82
f 86/86/86 84/84/84 83/83/83
f 85/85/85 86/86/86 83/83/83
f 86/86/86 87/87/87 84/84/84
f 88/88/88 86/86/86 85/85/85
f 89/89/89 87/87/87 86/86/86
f 88/88/88 89/89/89 86/86/86
f 89/89/89 90/90/90 87/87/87
f 91/91/91 89/89/89 88/88/88
f 92/92/92 90/90/90 89/89/89
f 91/91/91 92/92/92 89/89/89
f 92/92/92 93/93/93 90/90/90
f 94/94/94 92/92/92 91/91/91
f 95/95/95 93/93/93 92/92/92
f 94/94/94 95/95/95 92/92/92
f 95/95/95 96/96/96 93/93/93
f 97/97/97 95/95/95 94/94/94
f 98/98/98 96/96/96 95/95/95
f 97/97/97 98/98/98 95/95/95
f 98/98/98 99/99/99 96/96/96
f 100/100/100 98/98/98 97/97/97
f 101/101/101 99/99/99 98/98/98
f 100/100/100 101/101/101 98/98/98
f 101/101/101 102/102/102 99/99/99
f 103/103/103 101/101/101 100/100/100
f 104/104/104 102/102/102 101/101/101
f 103/103/103 104/104/104 101/101/101
f 104/104/104 105/105/105 102/102/102
f 106/106/106 104/104/104 103/103/103
f 107/107/107 105/105/105 104/104/104
f 106/106/106 107/107/107 104/104/104
f 107/107/107 108/108/108 105/105/105
f 109/109/109 107/107/107 106/106/106
f 110/110/110 108/108/108 107/107/107
f 109/109/109 110/110/110 107/107/107
f 110/110/110 111/111/111 108/108/108
f 112/112/112 110/110/110 109/109/109
f 113/113/113 111/111/111 110/110/110
f 112/112/112 113/113/113 110/110/110
f 113/113/113 114/114/114 111/111/111
f 115/115/115 113/113/113 112/112/112
f 116/116/116 114/114/114 113/113/113
f 115/115/115 116/116/116 113/113/113
f 116/116/116 117/117/117 114/114/114
f 118/118/118 116/116/116 115/115/115
f 119/119/119 117/117/117 116/116/116
f 118/118/118 119/119/119 116/116/116
f 119/119/119 120/120/120 117/117/117
f 121/121/121 119/119/119 118/118/118
f 122/122/122 120/120/120 119/119/119
f 121/121/121 122/122/122 119/119/119
f 122/122/122 123/123/123 120/120/120
f 124/124/124 122/122/122 121/121/121
f 125/125/125 123/123/123 122/122/122
f 124/124/124 125/125/125 122/122/122
f 125/125/125 126/126/126 123/123/123
f 127/127/127 125/125/125 124/124/124
f 128/128/128 126/126/126 125/125/125
f 127/127/127 128/128/128 125/125/125
f 128/128/128 129/129/129 126/126/126
f 130/130/130 128/128/128 127/127/127
f 131/131/131 129/129/129 128/128/128
f 130/130/130 131/131/131 128/128/128
f 131/131/131 132/132/132 129/129/129
f 133/133/133 131/131/131 130/130/130
f 134/134/134 132/132/132 131/131/131
f 133/133/133 134/134/134 131/131/131
f 134/134/134 135/135/135 132/132/132
f 136/136/136 134/134/134 133/133/133
f 137/137/137 135/135/135 134/134/134
f 136/136/136 137/137/137 134/134/134
f 137/137/137 138/138/138 135/135/135
f 139/139/139 137/137/137 136/136/136
f 140/140/140 138/138/138 137/137/137
f 139/139/139 140/140/140 137/137/137
f 140/140/140 141/141/141 138/138/138
f 142/142/142 140/140/140 139/139/139
f 143/143/143 141/141/141 140/140/140
f 142/142/142 143/143/143 140/140/140
f 143/143/143 144/144/144 141/141/141
f 145/145/145 143/143/143 142/142/142
f 146/146/146 144/144/144 143/143/143
f 145/145/145 146/146/146 143/143/143
f 146/146/146 147/147/147 144/144/144
f 148/148/148 146/146/146 145/145/145
f 149/149/149 147/147/147 146/146/146
f 148/148/148 149/149/149 146/146/146
f 150/150/150 149/149/149 148/148/148
f 149/149/149 151/151/151 147/147/147
f 150/150/150 152/152/152 149/149/149
f 152/152/152 151/151/151 149/149/149
f 152/152/152 153/153/153 151/151/151
