g Md_UNQ_Paralysis_02
v -0.10386325 0.03386842 5.5477494E-09
v -0.10186756 0.03386842 -0.020262713
v -0.20990734 0.117000006 -0.041753173
v -0.21401966 0.117000006 -9.584198E-11
v -0.10186756 0.03386842 -0.020262713
v -0.09595714 0.03386842 -0.039746746
v -0.19772838 0.117000006 -0.081901796
v -0.20990734 0.117000006 -0.041753173
v -0.09595714 0.03386842 -0.039746746
v -0.08635914 0.033868417 -0.057703324
v -0.17795087 0.117 -0.11890297
v -0.19772838 0.117000006 -0.081901796
v -0.08635914 0.033868417 -0.057703324
v -0.07344242 0.033868417 -0.0734424
v -0.15133478 0.117 -0.15133476
v -0.17795087 0.117 -0.11890297
v -0.07344242 0.033868417 -0.0734424
v -0.057703335 0.033868417 -0.08635912
v -0.11890297 0.117 -0.17795083
v -0.15133478 0.117 -0.15133476
v -0.057703335 0.033868417 -0.08635912
v -0.03974675 0.033868417 -0.09595712
v -0.081901796 0.117 -0.1977284
v -0.11890297 0.117 -0.17795083
v -0.03974675 0.033868417 -0.09595712
v -0.020262718 0.033868417 -0.10186754
v -0.041753173 0.117 -0.20990734
v -0.081901796 0.117 -0.1977284
v -0.020262718 0.033868417 -0.10186754
v -2.453093E-09 0.033868413 -0.10386325
v -3.6060497E-09 0.117 -0.21401967
v -0.041753173 0.117 -0.20990734
vt 0.9984929 0.0011877418
vt 0.8737525 0.0011878312
vt 0.8737525 1
vt 0.9984929 1
vt 0.8737525 0.0011878312
vt 0.7490119 0.001187712
vt 0.7490119 1
vt 0.8737525 1
vt 0.7490119 0.001187712
vt 0.62427145 0.0011877716
vt 0.62427145 1
vt 0.7490119 1
vt 0.62427145 0.0011877716
vt 0.4995308 0.0011877716
vt 0.4995308 1
vt 0.62427145 1
vt 0.4995308 0.0011877716
vt 0.37479025 0.001187712
vt 0.37479037 1
vt 0.4995308 1
vt 0.37479025 0.001187712
vt 0.25004962 0.0011877418
vt 0.25004974 1
vt 0.37479037 1
vt 0.25004962 0.0011877418
vt 0.1256055 0.0011878312
vt 0.12530935 1
vt 0.25004974 1
vt 0.1256055 0.0011878312
vt 0.0011584759 0.0011877716
vt 0.0011612177 1
vt 0.12590164 1
vn -0.60132486 -0.79680663 -0.059225082
vn -0.60132486 -0.79680663 -0.059225082
vn -0.60132486 -0.79680663 -0.059225082
vn -0.60132486 -0.79680663 -0.059225082
vn -0.5782163 -0.7968066 -0.17539981
vn -0.5782163 -0.7968066 -0.17539981
vn -0.5782163 -0.7968066 -0.17539981
vn -0.5782163 -0.7968066 -0.17539981
vn -0.5328874 -0.7968066 -0.28483394
vn -0.5328874 -0.7968066 -0.28483394
vn -0.5328874 -0.7968066 -0.28483394
vn -0.5328874 -0.7968066 -0.28483394
vn -0.46707943 -0.7968067 -0.38332224
vn -0.46707943 -0.7968067 -0.38332224
vn -0.46707943 -0.7968067 -0.38332224
vn -0.46707943 -0.7968067 -0.38332224
vn -0.3833221 -0.7968066 -0.46707964
vn -0.3833221 -0.7968066 -0.46707964
vn -0.3833221 -0.7968066 -0.46707964
vn -0.3833221 -0.7968066 -0.46707964
vn -0.28483427 -0.7968067 -0.53288704
vn -0.28483427 -0.7968067 -0.53288704
vn -0.28483427 -0.7968067 -0.53288704
vn -0.28483427 -0.7968067 -0.53288704
vn -0.17539982 -0.79680663 -0.5782163
vn -0.17539982 -0.79680663 -0.5782163
vn -0.17539982 -0.79680663 -0.5782163
vn -0.17539982 -0.79680663 -0.5782163
vn -0.059225615 -0.7968067 -0.60132474
vn -0.059225615 -0.7968067 -0.60132474
vn -0.059225615 -0.7968067 -0.60132474
vn -0.059225615 -0.7968067 -0.60132474
g Md_UNQ_Paralysis_02_0
f 3/3/3 2/2/2 1/1/1
f 4/4/4 3/3/3 1/1/1
f 7/7/7 6/6/6 5/5/5
f 8/8/8 7/7/7 5/5/5
f 11/11/11 10/10/10 9/9/9
f 12/12/12 11/11/11 9/9/9
f 15/15/15 14/14/14 13/13/13
f 16/16/16 15/15/15 13/13/13
f 19/19/19 18/18/18 17/17/17
f 20/20/20 19/19/19 17/17/17
f 23/23/23 22/22/22 21/21/21
f 24/24/24 23/23/23 21/21/21
f 27/27/27 26/26/26 25/25/25
f 28/28/28 27/27/27 25/25/25
f 31/31/31 30/30/30 29/29/29
f 32/32/32 31/31/31 29/29/29
