g Md_UNQ_LCardBase_01
v 0.315 -0.405 0.004999982
v 0.315 -0.405 -0.0050000176
v 0.315 -0.41969383 0.0049999817
v 0.315 0.405 0.0050000176
v 0.315 -0.41969383 -0.0050000185
v 0.315 0.405 -0.004999982
v 0.31297308 -0.4254023 0.0049999817
v 0.315 0.41969383 0.0050000185
v 0.31297308 -0.4254023 -0.005000019
v 0.315 0.41969383 -0.0049999817
v 0.30973503 -0.43030092 0.0049999817
v 0.31297308 0.4254023 0.005000019
v 0.30973503 -0.43030092 -0.005000019
v 0.31297308 0.4254023 -0.0049999817
v 0.3053689 -0.43488383 0.0049999813
v 0.30973503 0.43030092 0.005000019
v 0.3053689 -0.43488383 -0.005000019
v 0.30973503 0.43030092 -0.0049999817
v 0.29978636 -0.43810335 0.0049999813
v 0.3053689 0.43488383 0.005000019
v 0.29978636 -0.43810335 -0.005000019
v 0.3053689 0.43488383 -0.0049999813
v 0.29400545 -0.43995202 0.0049999803
v 0.29978636 0.43810335 0.005000019
v 0.29400545 -0.43995202 -0.0050000194
v 0.29978636 0.43810335 -0.0049999813
v 0.28 -0.44 0.0049999803
v 0.29400545 0.43995202 0.0050000194
v 0.28 -0.44 -0.0050000194
v 0.29400545 0.43995202 -0.0049999803
v -0.28 -0.44 0.0049999803
v -0.28 -0.44 -0.0050000194
v -0.29400545 -0.43995202 -0.0050000194
v -0.29400545 -0.43995202 0.0049999803
v -0.29978636 -0.43810335 -0.005000019
v -0.29978636 -0.43810335 0.0049999813
v -0.3053689 -0.43488383 -0.005000019
v -0.3053689 -0.43488383 0.0049999813
v -0.30973503 -0.43030092 -0.005000019
v -0.30973503 -0.43030092 0.0049999817
v -0.31297308 -0.4254023 -0.005000019
v -0.31297308 -0.4254023 0.0049999817
v -0.3150701 -0.41969383 -0.0050000185
v -0.3150701 -0.41969383 0.0049999817
v -0.315 -0.405 -0.0050000176
v -0.315 -0.405 0.004999982
v -0.315 0.405 0.0050000176
v -0.315 0.405 -0.004999982
v -0.315 0.41969383 0.0050000185
v -0.315 0.41969383 -0.0049999817
v -0.31297308 0.4254023 0.005000019
v -0.31297308 0.4254023 -0.0049999817
v -0.30973503 0.43030092 0.005000019
v -0.30973503 0.43030092 -0.0049999817
v -0.3053689 0.43488383 0.005000019
v -0.3053689 0.43488383 -0.0049999813
v -0.29978636 0.43810335 0.005000019
v -0.29978636 0.43810335 -0.0049999813
v -0.29400545 0.43995202 0.0050000194
v -0.29400545 0.43995202 -0.0049999803
v -0.28 0.44 0.0050000194
v -0.28 0.44 -0.0049999803
v 0.28 0.44 0.0050000194
v 0.28 0.44 -0.0049999803
v -0.30973503 -0.43030092 0.0049999817
v -0.28 -0.405 0.004999982
v -0.3053689 -0.43488383 0.0049999813
v -0.31297308 -0.4254023 0.0049999817
v -0.29978636 -0.43810335 0.0049999813
v -0.3150701 -0.41969383 0.0049999817
v -0.29400545 -0.43995202 0.0049999803
v -0.315 -0.405 0.004999982
v -0.28 -0.44 0.0049999803
v -0.28 0.405 0.0050000176
v -0.315 0.405 0.0050000176
v -0.315 0.41969383 0.0050000185
v -0.31297308 0.4254023 0.005000019
v 0.28 -0.405 0.004999982
v 0.28 -0.44 0.0049999803
v 0.29400545 -0.43995202 0.0049999803
v 0.29978636 -0.43810335 0.0049999813
v -0.30973503 0.43030092 0.005000019
v 0.3053689 -0.43488383 0.0049999813
v -0.3053689 0.43488383 0.005000019
v 0.30973503 -0.43030092 0.0049999817
v -0.29978636 0.43810335 0.005000019
v 0.31297308 -0.4254023 0.0049999817
v -0.29400545 0.43995202 0.0050000194
v -0.28 0.44 0.0050000194
v 0.28 0.44 0.0050000194
v 0.28 0.405 0.0050000176
v 0.29400545 0.43995202 0.0050000194
v 0.315 -0.41969383 0.0049999817
v 0.315 -0.405 0.004999982
v 0.315 0.405 0.0050000176
v 0.29978636 0.43810335 0.005000019
v 0.315 0.41969383 0.0050000185
v 0.3053689 0.43488383 0.005000019
v 0.31297308 0.4254023 0.005000019
v 0.30973503 0.43030092 0.005000019
v -0.30973503 -0.43030092 -0.005000019
v -0.3053689 -0.43488383 -0.005000019
v -0.28 -0.405 -0.0050000176
v -0.31297308 -0.4254023 -0.005000019
v -0.29978636 -0.43810335 -0.005000019
v -0.3150701 -0.41969383 -0.0050000185
v -0.29400545 -0.43995202 -0.0050000194
v -0.315 -0.405 -0.0050000176
v -0.28 -0.44 -0.0050000194
v -0.315 0.405 -0.004999982
v -0.28 0.405 -0.004999982
v -0.315 0.41969383 -0.0049999817
v -0.31297308 0.4254023 -0.0049999817
v 0.28 -0.405 -0.0050000176
v 0.28 -0.44 -0.0050000194
v 0.29400545 -0.43995202 -0.0050000194
v 0.29978636 -0.43810335 -0.005000019
v -0.30973503 0.43030092 -0.0049999817
v 0.3053689 -0.43488383 -0.005000019
v -0.3053689 0.43488383 -0.0049999813
v 0.30973503 -0.43030092 -0.005000019
v -0.29978636 0.43810335 -0.0049999813
v 0.31297308 -0.4254023 -0.005000019
v -0.29400545 0.43995202 -0.0049999803
v -0.28 0.44 -0.0049999803
v 0.28 0.44 -0.0049999803
v 0.28 0.405 -0.004999982
v 0.29400545 0.43995202 -0.0049999803
v 0.315 -0.41969383 -0.0050000185
v 0.315 -0.405 -0.0050000176
v 0.315 0.405 -0.004999982
v 0.29978636 0.43810335 -0.0049999813
v 0.315 0.41969383 -0.0049999817
v 0.3053689 0.43488383 -0.0049999813
v 0.31297308 0.4254023 -0.0049999817
v 0.30973503 0.43030092 -0.0049999817
vt 0.8579759 0.039767712
vt 0.8579759 0.039767712
vt 0.8579759 0.023070097
vt 0.8579759 0.96023226
vt 0.8579759 0.023070097
vt 0.8579759 0.96023226
vt 0.8556725 0.016583055
vt 0.8579759 0.97692996
vt 0.8556725 0.016583055
vt 0.8579759 0.97692996
vt 0.8519929 0.011016369
vt 0.8556725 0.9834169
vt 0.8519929 0.011016369
vt 0.8556725 0.9834169
vt 0.84703135 0.005808562
vt 0.8519929 0.9889837
vt 0.84703135 0.005808562
vt 0.8519929 0.9889837
vt 0.8406876 0.00214988
vt 0.84703135 0.9941914
vt 0.8406876 0.00214988
vt 0.84703135 0.9941914
vt 0.8341181 4.914403E-05
vt 0.8406876 0.9978502
vt 0.8341181 4.914403E-05
vt 0.8406876 0.9978502
vt 0.8182027 -5.364418E-06
vt 0.8341181 0.9999509
vt 0.8182027 -5.364418E-06
vt 0.8341181 0.9999509
vt 0.18183228 -5.364418E-06
vt 0.18183228 -5.364418E-06
vt 0.1659168 4.914403E-05
vt 0.1659168 4.914403E-05
vt 0.1593475 0.00214988
vt 0.1593475 0.00214988
vt 0.15300372 0.005808562
vt 0.15300372 0.005808562
vt 0.14804208 0.011016369
vt 0.14804208 0.011016369
vt 0.14436254 0.016583055
vt 0.14436254 0.016583055
vt 0.14197943 0.023070097
vt 0.14197943 0.023070097
vt 0.14205915 0.039767712
vt 0.14205915 0.039767712
vt 0.14205915 0.96023226
vt 0.14205915 0.96023226
vt 0.14205915 0.97692996
vt 0.14205915 0.97692996
vt 0.14436254 0.9834169
vt 0.14436254 0.9834169
vt 0.14804208 0.9889837
vt 0.14804208 0.9889837
vt 0.15300372 0.9941914
vt 0.15300372 0.9941914
vt 0.1593475 0.9978502
vt 0.1593475 0.9978502
vt 0.1659168 0.9999509
vt 0.1659168 0.9999509
vt 0.18183228 1.0000055
vt 0.18183228 1.0000055
vt 0.8182027 1.0000055
vt 0.8182027 1.0000055
vt 0.14804208 0.011016369
vt 0.18183228 0.039767712
vt 0.15300372 0.005808562
vt 0.14436254 0.016583055
vt 0.1593475 0.00214988
vt 0.14197943 0.023070097
vt 0.1659168 4.914403E-05
vt 0.14205915 0.039767712
vt 0.18183228 -5.364418E-06
vt 0.18183228 0.96023226
vt 0.14205915 0.96023226
vt 0.14205915 0.97692996
vt 0.14436254 0.9834169
vt 0.8182027 0.039767712
vt 0.8182027 -5.364418E-06
vt 0.8341181 4.914403E-05
vt 0.8406876 0.00214988
vt 0.14804208 0.9889837
vt 0.84703135 0.005808562
vt 0.15300372 0.9941914
vt 0.8519929 0.011016369
vt 0.1593475 0.9978502
vt 0.8556725 0.016583055
vt 0.1659168 0.9999509
vt 0.18183228 1.0000055
vt 0.8182027 1.0000055
vt 0.8182027 0.96023226
vt 0.8341181 0.9999509
vt 0.8579759 0.023070097
vt 0.8579759 0.039767712
vt 0.8579759 0.96023226
vt 0.8406876 0.9978502
vt 0.8579759 0.97692996
vt 0.84703135 0.9941914
vt 0.8556725 0.9834169
vt 0.8519929 0.9889837
vt 0.14804208 0.011016369
vt 0.15300372 0.005808562
vt 0.18183228 0.039767712
vt 0.14436254 0.016583055
vt 0.1593475 0.00214988
vt 0.14197943 0.023070097
vt 0.1659168 4.914403E-05
vt 0.14205915 0.039767712
vt 0.18183228 -5.364418E-06
vt 0.14205915 0.96023226
vt 0.18183228 0.96023226
vt 0.14205915 0.97692996
vt 0.14436254 0.9834169
vt 0.8182027 0.039767712
vt 0.8182027 -5.364418E-06
vt 0.8341181 4.914403E-05
vt 0.8406876 0.00214988
vt 0.14804208 0.9889837
vt 0.84703135 0.005808562
vt 0.15300372 0.9941914
vt 0.8519929 0.011016369
vt 0.1593475 0.9978502
vt 0.8556725 0.016583055
vt 0.1659168 0.9999509
vt 0.18183228 1.0000055
vt 0.8182027 1.0000055
vt 0.8182027 0.96023226
vt 0.8341181 0.9999509
vt 0.8579759 0.023070097
vt 0.8579759 0.039767712
vt 0.8579759 0.96023226
vt 0.8406876 0.9978502
vt 0.8579759 0.97692996
vt 0.84703135 0.9941914
vt 0.8556725 0.9834169
vt 0.8519929 0.9889837
vn 1 0 0
vn 1 0 0
vn 0.99510384 -0.09883548 -1.1456674E-05
vn 1 0 0
vn 0.99510384 -0.09883552 9.967171E-06
vn 1 0 0
vn 0.8957287 -0.44460088 -5.877431E-06
vn 0.9951043 0.0988299 -1.15110115E-05
vn 0.8957287 -0.444601 -2.3520463E-06
vn 0.9951043 0.09883012 9.968877E-06
vn 0.78011227 -0.6256395 -4.060549E-06
vn 0.8957287 0.44460097 -5.9052963E-06
vn 0.7801123 -0.6256395 1.1531997E-06
vn 0.89572865 0.44460106 -2.3320315E-06
vn 0.61711746 -0.78687096 -6.7581605E-06
vn 0.78011876 0.6256314 -4.086107E-06
vn 0.6171174 -0.78687114 -2.2491586E-06
vn 0.7801187 0.62563145 1.143664E-06
vn 0.40734613 -0.91327393 -3.6851023E-05
vn 0.61711746 0.78687096 -6.7902024E-06
vn 0.40734577 -0.913274 -8.381654E-06
vn 0.61711746 0.7868711 -2.220273E-06
vn 0.095423535 -0.9954367 -4.395298E-06
vn 0.40734613 0.91327393 -5.270018E-06
vn 0.095423505 -0.9954367 4.0870914E-06
vn 0.40734577 0.913274 -8.348376E-06
vn 0.0017534004 -0.99999845 1.0197983E-07
vn 0.09542352 0.9954367 -4.4161366E-06
vn 0.0029452012 -0.9999957 0
vn 0.09542349 0.9954367 4.1127205E-06
vn -0.002951853 -0.9999957 0
vn -0.0029452012 -0.9999957 0
vn -0.09542349 -0.9954367 4.1127205E-06
vn -0.095423535 -0.9954367 -4.416137E-06
vn -0.40734577 -0.913274 -8.344649E-06
vn -0.40734613 -0.91327393 -5.256928E-06
vn -0.61711746 -0.7868711 -2.220273E-06
vn -0.61711746 -0.78687096 -6.7902024E-06
vn -0.7801123 -0.6256395 1.1511147E-06
vn -0.78011227 -0.6256395 -4.086093E-06
vn -0.89337176 -0.44931826 -2.2388997E-06
vn -0.8933718 -0.44931808 -5.6540366E-06
vn -0.99510056 -0.098867685 -1.7434359E-06
vn -0.9951007 -0.09886763 -1.2015141E-05
vn -1 0 0
vn -0.9999999 0.0005538143 0
vn -1 0 0
vn -1 0 0
vn -0.9951043 0.09882991 -1.1475127E-05
vn -0.9951043 0.09883012 9.967179E-06
vn -0.8957287 0.44460097 -5.8774303E-06
vn -0.8957287 0.4446011 -2.3520463E-06
vn -0.78011876 0.6256314 -4.066825E-06
vn -0.7801187 0.62563145 1.1532017E-06
vn -0.61711746 0.78687096 -6.7581605E-06
vn -0.6171174 0.78687114 -2.2491586E-06
vn -0.40734613 0.91327393 -5.253574E-06
vn -0.4073458 0.913274 -8.381655E-06
vn -0.09542353 0.9954367 -4.3952978E-06
vn -0.09542349 0.9954367 4.0870914E-06
vn -0 1 0
vn -0 1 0
vn -0 1 0
vn 0.0029452012 0.9999957 0
vn -0 -1.17953014E-07 1
vn -0 0 1
vn -0 -1.17953014E-07 1
vn -0 0 1
vn 1.2769975E-07 0 1
vn -0 0 1
vn 1.2769975E-07 0 1
vn -0 0 1
vn -0 0 1
vn -0 0 1
vn -0 -1.1318198E-07 1
vn -0 0 1
vn -0 0 1
vn -0 0 1
vn -0 0 1
vn -1.2769975E-07 0 1
vn -1.2769975E-07 0 1
vn -0 0 1
vn -0 -1.17953014E-07 1
vn -0 0 1
vn -0 -1.17953014E-07 1
vn -0 0 1
vn -0 0 1
vn -0 0 1
vn -0 0 1
vn -0 0 1
vn -0 0 1
vn -0 0 1
vn -0 0 1
vn -0 0 1
vn -0 -1.1318198E-07 1
vn -0 0 1
vn -0 0 1
vn -0 0 1
vn -0 0 1
vn -0 0 1
vn -0 0 -1
vn -0 0 -1
vn -0 1.259847E-07 -1
vn -0 1.259847E-07 -1
vn -0 0 -1
vn -0 1.259847E-07 -1
vn -0 0 -1
vn -0 0 -1
vn -0 0 -1
vn -0 0 -1
vn -0 0 -1
vn -0 0 -1
vn -0 0 -1
vn -0 0 -1
vn -0 0 -1
vn -0 0 -1
vn -0 0 -1
vn -0 1.17953014E-07 -1
vn -0 0 -1
vn -0 1.17953014E-07 -1
vn -0 0 -1
vn -0 0 -1
vn -0 0 -1
vn 1.2769975E-07 0 -1
vn -0 0 -1
vn -0 0 -1
vn -0 0 -1
vn -1.2769975E-07 0 -1
vn -0 0 -1
vn -0 1.1318198E-07 -1
vn -0 0 -1
vn -1.2769975E-07 0 -1
vn -0 0 -1
vn -0 1.17953014E-07 -1
vn -0 0 -1
vn -0 0 -1
g Md_UNQ_LCardBase_01_0
f 3/3/3 2/2/2 1/1/1
f 2/2/2 4/4/4 1/1/1
f 3/3/3 5/5/5 2/2/2
f 4/4/4 2/2/2 6/6/6
f 7/7/7 5/5/5 3/3/3
f 6/6/6 8/8/8 4/4/4
f 7/7/7 9/9/9 5/5/5
f 6/6/6 10/10/10 8/8/8
f 11/11/11 9/9/9 7/7/7
f 10/10/10 12/12/12 8/8/8
f 11/11/11 13/13/13 9/9/9
f 10/10/10 14/14/14 12/12/12
f 15/15/15 13/13/13 11/11/11
f 14/14/14 16/16/16 12/12/12
f 15/15/15 17/17/17 13/13/13
f 14/14/14 18/18/18 16/16/16
f 19/19/19 17/17/17 15/15/15
f 18/18/18 20/20/20 16/16/16
f 19/19/19 21/21/21 17/17/17
f 18/18/18 22/22/22 20/20/20
f 23/23/23 21/21/21 19/19/19
f 22/22/22 24/24/24 20/20/20
f 23/23/23 25/25/25 21/21/21
f 22/22/22 26/26/26 24/24/24
f 27/27/27 25/25/25 23/23/23
f 26/26/26 28/28/28 24/24/24
f 27/27/27 29/29/29 25/25/25
f 26/26/26 30/30/30 28/28/28
f 29/29/29 27/27/27 31/31/31
f 29/29/29 31/31/31 32/32/32
f 33/33/33 32/32/32 31/31/31
f 33/33/33 31/31/31 34/34/34
f 35/35/35 33/33/33 34/34/34
f 35/35/35 34/34/34 36/36/36
f 37/37/37 35/35/35 36/36/36
f 37/37/37 36/36/36 38/38/38
f 39/39/39 37/37/37 38/38/38
f 39/39/39 38/38/38 40/40/40
f 41/41/41 39/39/39 40/40/40
f 41/41/41 40/40/40 42/42/42
f 43/43/43 41/41/41 42/42/42
f 43/43/43 42/42/42 44/44/44
f 45/45/45 43/43/43 44/44/44
f 45/45/45 44/44/44 46/46/46
f 47/47/47 45/45/45 46/46/46
f 45/45/45 47/47/47 48/48/48
f 49/49/49 48/48/48 47/47/47
f 49/49/49 50/50/50 48/48/48
f 51/51/51 50/50/50 49/49/49
f 51/51/51 52/52/52 50/50/50
f 53/53/53 52/52/52 51/51/51
f 53/53/53 54/54/54 52/52/52
f 55/55/55 54/54/54 53/53/53
f 55/55/55 56/56/56 54/54/54
f 57/57/57 56/56/56 55/55/55
f 57/57/57 58/58/58 56/56/56
f 59/59/59 58/58/58 57/57/57
f 59/59/59 60/60/60 58/58/58
f 61/61/61 60/60/60 59/59/59
f 61/61/61 62/62/62 60/60/60
f 63/63/63 62/62/62 61/61/61
f 63/63/63 64/64/64 62/62/62
f 30/30/30 64/64/64 63/63/63
f 30/30/30 63/63/63 28/28/28
f 67/67/67 66/66/66 65/65/65
f 68/68/68 65/65/65 66/66/66
f 69/69/69 66/66/66 67/67/67
f 66/66/66 70/70/70 68/68/68
f 71/71/71 66/66/66 69/69/69
f 72/72/72 70/70/70 66/66/66
f 71/71/71 73/73/73 66/66/66
f 74/74/74 72/72/72 66/66/66
f 74/74/74 75/75/75 72/72/72
f 75/75/75 74/74/74 76/76/76
f 76/76/76 74/74/74 77/77/77
f 66/66/66 73/73/73 78/78/78
f 78/78/78 73/73/73 79/79/79
f 78/78/78 79/79/79 80/80/80
f 78/78/78 80/80/80 81/81/81
f 82/82/82 77/77/77 74/74/74
f 78/78/78 81/81/81 83/83/83
f 74/74/74 84/84/84 82/82/82
f 78/78/78 83/83/83 85/85/85
f 74/74/74 86/86/86 84/84/84
f 85/85/85 87/87/87 78/78/78
f 74/74/74 88/88/88 86/86/86
f 74/74/74 89/89/89 88/88/88
f 74/74/74 90/90/90 89/89/89
f 74/74/74 91/91/91 90/90/90
f 92/92/92 90/90/90 91/91/91
f 93/93/93 78/78/78 87/87/87
f 94/94/94 78/78/78 93/93/93
f 95/95/95 78/78/78 94/94/94
f 95/95/95 91/91/91 78/78/78
f 92/92/92 91/91/91 96/96/96
f 95/95/95 97/97/97 91/91/91
f 96/96/96 91/91/91 98/98/98
f 91/91/91 97/97/97 99/99/99
f 98/98/98 91/91/91 100/100/100
f 99/99/99 100/100/100 91/91/91
f 103/103/103 102/102/102 101/101/101
f 101/101/101 104/104/104 103/103/103
f 105/105/105 102/102/102 103/103/103
f 106/106/106 103/103/103 104/104/104
f 103/103/103 107/107/107 105/105/105
f 108/108/108 103/103/103 106/106/106
f 103/103/103 109/109/109 107/107/107
f 110/110/110 103/103/103 108/108/108
f 111/111/111 103/103/103 110/110/110
f 110/110/110 112/112/112 111/111/111
f 111/111/111 112/112/112 113/113/113
f 109/109/109 103/103/103 114/114/114
f 109/109/109 114/114/114 115/115/115
f 116/116/116 115/115/115 114/114/114
f 116/116/116 114/114/114 117/117/117
f 113/113/113 118/118/118 111/111/111
f 119/119/119 117/117/117 114/114/114
f 120/120/120 111/111/111 118/118/118
f 119/119/119 114/114/114 121/121/121
f 120/120/120 122/122/122 111/111/111
f 123/123/123 121/121/121 114/114/114
f 124/124/124 111/111/111 122/122/122
f 124/124/124 125/125/125 111/111/111
f 126/126/126 111/111/111 125/125/125
f 126/126/126 127/127/127 111/111/111
f 127/127/127 126/126/126 128/128/128
f 114/114/114 129/129/129 123/123/123
f 130/130/130 129/129/129 114/114/114
f 114/114/114 131/131/131 130/130/130
f 114/114/114 127/127/127 131/131/131
f 127/127/127 128/128/128 132/132/132
f 131/131/131 127/127/127 133/133/133
f 132/132/132 134/134/134 127/127/127
f 133/133/133 127/127/127 135/135/135
f 127/127/127 134/134/134 136/136/136
f 136/136/136 135/135/135 127/127/127
