g Md_UNQ_CuttingLine_02
v -3.5425 -0.7500002 0
v -3.5425 -1.928324E-07 0
v -3.4008 -0.74657744 0
v -3.4008 0.0034225443 0
v -3.5425 0.7499998 0
v -3.2591002 -0.7433931 0
v -3.4008 0.75342256 0
v -3.2591002 0.006606863 0
v -3.1174 -0.7340166 0
v -3.2591002 0.7566069 0
v -3.1174 0.015983388 0
v -2.9757001 -0.72071904 0
v -3.1174 0.7659834 0
v -2.9757001 0.029280946 0
v -2.834 -0.7031509 0
v -2.9757001 0.77928096 0
v -2.834 0.046849057 0
v -2.6922998 -0.6856372 0
v -2.834 0.7968491 0
v -2.6922998 0.06436281 0
v -2.5506 -0.6700131 0
v -2.6922998 0.8143628 0
v -2.5506 0.079986855 0
v -2.5506 0.8299869 0
v -2.4089 -0.66499585 0
v -2.4089 0.085004136 0
v -2.4089 0.83500415 -2.9802322E-08
v -2.2672 0.82449657 0
v -2.2672 0.07449655 0
v -2.2672 -0.67550343 0
v -2.1255002 0.814205 0
v -2.1255002 0.064204976 0
v -2.1255002 -0.685795 0
v -1.9837999 0.80264074 0
v -1.9837999 0.05264072 0
v -1.9837999 -0.69735926 0
v -1.8420999 0.78715545 0
v -1.8420999 0.037155434 0
v -1.8420999 -0.71284455 0
v -1.7004001 0.77209026 0
v -1.7004001 0.022090241 0
v -1.7004001 -0.72790974 0
v -1.5587 0.7482589 0
v -1.5587 -0.0017411252 0
v -1.5587 -0.7517411 0
v -1.4170002 0.72425205 0
v -1.4170002 -0.02574797 0
v -1.4170002 -0.77574795 0
v -1.2753 0.7025898 0
v -1.2753 -0.047410205 0
v -1.2753 -0.7974102 2.9802322E-08
v -1.1336 0.6776374 0
v -1.1336 -0.07236262 0
v -1.1336 -0.8223626 0
v -0.9919001 0.6601704 0
v -0.9919001 -0.08982964 0
v -0.9919001 -0.8398296 2.9802322E-08
v -0.85020006 0.64519864 0
v -0.85020006 -0.10480137 0
v -0.85020006 -0.85480136 0
v -0.70850015 0.6302274 0
v -0.70850015 -0.11977263 0
v -0.70850015 -0.8697726 0
v -0.5668001 0.61276037 0
v -0.5668001 -0.13723965 0
v -0.5668001 -0.88723963 0
v -0.42510003 0.6052745 0
v -0.42510003 -0.14472552 0
v -0.42510003 -0.8947255 0
v -0.28340015 0.6002839 0
v -0.28340015 -0.1497161 0
v -0.28340015 -0.8997161 0
v -0.14170007 0.59529334 0
v -0.14170007 -0.15470667 0
v -0.14170007 -0.90470666 0
v -0 0.5878075 0
v -0 -0.16219254 0
v -0 -0.9121925 0
v 0.14169987 0.5853122 0
v 0.14169987 -0.16468783 0
v 0.14169987 -0.9146878 0
v 0.28339973 0.5778268 0
v 0.28339973 -0.17217322 0
v 0.28339973 -0.9221732 0
v 0.42510003 0.57034093 0
v 0.42510003 -0.17965908 0
v 0.42510003 -0.92965907 0
v 0.5667999 0.5528739 0
v 0.5667999 -0.1971261 0
v 0.5667999 -0.9471261 0
v 0.7084997 0.5341161 0
v 0.7084997 -0.21588393 0
v 0.7084997 -0.9658839 0
v 0.85020006 0.51466686 0
v 0.85020006 -0.23533316 0
v 0.85020006 -0.98533314 0
v 0.9918999 0.49460632 0
v 0.9918999 -0.25539368 0
v 0.9918999 -1.0053937 0
v 1.1335998 0.47454578 0
v 1.1335998 -0.27545422 0
v 1.1335998 -1.0254543 0
v 1.2753 0.45699292 0
v 1.2753 -0.29300708 0
v 1.2753 -1.0430067 2.9802322E-08
v 1.4169998 0.43442518 0
v 1.4169998 -0.31557482 0
v 1.4169998 -1.0655749 0
v 1.5586998 0.41436464 0
v 1.5586998 -0.33563536 0
v 1.5586998 -1.0856354 0
v 1.7004001 0.39681178 0
v 1.7004001 -0.35318822 0
v 1.7004001 -1.1031883 2.9802322E-08
v 1.8420999 0.37424403 0
v 1.8420999 -0.37575597 0
v 1.8420999 -1.125756 0
v 1.9837998 0.35669118 0
v 1.9837998 -0.39330882 0
v 1.9837998 -1.1433089 2.9802322E-08
v 2.1254997 0.33913833 0
v 2.1254997 -0.41086167 0
v 2.1254997 -1.1608617 0
v 2.2672 0.3240927 0
v 2.2672 -0.4259073 0
v 2.2672 -1.1759074 0
v 2.4088998 0.31406242 0
v 2.4088998 -0.43593758 0
v 2.4088998 -1.1859376 0
v 2.5505996 0.30653983 0
v 2.5505996 -0.44346017 0
v 2.5505996 -1.1934602 2.9802322E-08
v 2.6922998 -1.1934602 2.9802322E-08
v 2.6922998 -0.44346017 0
v 2.6922998 0.30653983 0
v 2.8339996 -1.1901238 0
v 2.8339996 -0.44012374 0
v 2.8339996 0.30987626 0
v 2.9757 -1.181721 0
v 2.9757 -0.4317209 0
v 2.9757 0.3182791 0
v 3.1174 -1.1691172 2.9802322E-08
v 3.1174 -0.41911715 0
v 3.1174 0.33088285 0
v 3.2591 -1.1544125 0
v 3.2591 -0.40441245 0
v 3.2591 0.34558755 0
v 3.4007998 -1.1502111 0
v 3.4007998 -0.40021104 0
v 3.4007998 0.34978896 0
v 3.5425 0.34832078 0
v 3.5425 -0.40167922 0
v 3.5425 -1.1516793 0
vt 0 0
vt 0 0.5
vt 0.02 0
vt 0.02 0.5
vt 0 1
vt 0.04 0
vt 0.02 1
vt 0.04 0.5
vt 0.06 0
vt 0.04 1
vt 0.06 0.5
vt 0.08 0
vt 0.06 1
vt 0.08 0.5
vt 0.099999994 0
vt 0.08 1
vt 0.099999994 0.5
vt 0.12 0
vt 0.099999994 1
vt 0.12 0.5
vt 0.14 0
vt 0.12 1
vt 0.14 0.5
vt 0.14 1
vt 0.16 0
vt 0.16 0.5
vt 0.16 1
vt 0.17999999 1
vt 0.17999999 0.5
vt 0.17999999 0
vt 0.19999999 1
vt 0.19999999 0.5
vt 0.19999999 0
vt 0.22 1
vt 0.22 0.5
vt 0.22 0
vt 0.24 1
vt 0.24 0.5
vt 0.24 0
vt 0.26 1
vt 0.26 0.5
vt 0.26 0
vt 0.28 1
vt 0.28 0.5
vt 0.28 0
vt 0.29999998 1
vt 0.29999998 0.5
vt 0.29999998 0
vt 0.32 1
vt 0.32 0.5
vt 0.32 0
vt 0.34 1
vt 0.34 0.5
vt 0.34 0
vt 0.35999998 1
vt 0.35999998 0.5
vt 0.35999998 0
vt 0.38 1
vt 0.38 0.5
vt 0.38 0
vt 0.39999998 1
vt 0.39999998 0.5
vt 0.39999998 0
vt 0.42 1
vt 0.42 0.5
vt 0.42 0
vt 0.44 1
vt 0.44 0.5
vt 0.44 0
vt 0.45999998 1
vt 0.45999998 0.5
vt 0.45999998 0
vt 0.48 1
vt 0.48 0.5
vt 0.48 0
vt 0.5 1
vt 0.5 0.5
vt 0.5 0
vt 0.52 1
vt 0.52 0.5
vt 0.52 0
vt 0.53999996 1
vt 0.53999996 0.5
vt 0.53999996 0
vt 0.56 1
vt 0.56 0.5
vt 0.56 0
vt 0.58 1
vt 0.58 0.5
vt 0.58 0
vt 0.59999996 1
vt 0.59999996 0.5
vt 0.59999996 0
vt 0.62 1
vt 0.62 0.5
vt 0.62 0
vt 0.64 1
vt 0.64 0.5
vt 0.64 0
vt 0.65999997 1
vt 0.65999997 0.5
vt 0.65999997 0
vt 0.68 1
vt 0.68 0.5
vt 0.68 0
vt 0.7 1
vt 0.7 0.5
vt 0.7 0
vt 0.71999997 1
vt 0.71999997 0.5
vt 0.71999997 0
vt 0.74 1
vt 0.74 0.5
vt 0.74 0
vt 0.76 1
vt 0.76 0.5
vt 0.76 0
vt 0.78 1
vt 0.78 0.5
vt 0.78 0
vt 0.79999995 1
vt 0.79999995 0.5
vt 0.79999995 0
vt 0.82 1
vt 0.82 0.5
vt 0.82 0
vt 0.84 1
vt 0.84 0.5
vt 0.84 0
vt 0.85999995 1
vt 0.85999995 0.5
vt 0.85999995 0
vt 0.88 0
vt 0.88 0.5
vt 0.88 1
vt 0.9 0
vt 0.9 0.5
vt 0.9 1
vt 0.91999996 0
vt 0.91999996 0.5
vt 0.91999996 1
vt 0.94 0
vt 0.94 0.5
vt 0.94 1
vt 0.96 0
vt 0.96 0.5
vt 0.96 1
vt 0.97999996 0
vt 0.97999996 0.5
vt 0.97999996 1
vt 1 1
vt 1 0.5
vt 1 0
vn -0 0 1
vn -0 0 1
vn -0 0 1
vn -0 0 1
vn -0 0 1
vn -0 0 1
vn -0 0 1
vn -0 0 1
vn -0 0 1
vn -0 0 1
vn -0 0 1
vn -0 0 1
vn -0 0 1
vn -0 0 1
vn -0 0 1
vn -0 0 1
vn -0 0 1
vn -0 0 1
vn -0 0 1
vn -0 0 1
vn -0 0 1
vn -0 0 1
vn -0 0 1
vn -0 0 1
vn -0 0 1
vn -0 0 1
vn -0 0 1
vn -0 0 1
vn -0 0 1
vn -0 0 1
vn -0 0 1
vn -0 0 1
vn -0 0 1
vn -0 0 1
vn -0 0 1
vn -0 0 1
vn -0 0 1
vn -0 0 1
vn -0 0 1
vn -0 0 1
vn -0 0 1
vn -0 0 1
vn -0 0 1
vn -0 0 1
vn -0 0 1
vn -0 0 1
vn -0 0 1
vn -0 0 1
vn -0 0 1
vn -0 0 1
vn -0 0 1
vn -0 0 1
vn -0 0 1
vn -0 0 1
vn -0 0 1
vn -0 0 1
vn -0 0 1
vn -0 0 1
vn -0 0 1
vn -0 0 1
vn -0 0 1
vn -0 0 1
vn -0 0 1
vn -0 0 1
vn -0 0 1
vn -0 0 1
vn -0 0 1
vn -0 0 1
vn -0 0 1
vn -0 0 1
vn -0 0 1
vn -0 0 1
vn -0 0 1
vn -0 0 1
vn -0 0 1
vn -0 0 1
vn -0 0 1
vn -0 0 1
vn -0 0 1
vn -0 0 1
vn -0 0 1
vn -0 0 1
vn -0 0 1
vn -0 0 1
vn -0 0 1
vn -0 0 1
vn -0 0 1
vn -0 0 1
vn -0 0 1
vn -0 0 1
vn -0 0 1
vn -0 0 1
vn -0 0 1
vn -0 0 1
vn -0 0 1
vn -0 0 1
vn -0 0 1
vn -0 0 1
vn -0 0 1
vn -0 0 1
vn -0 0 1
vn -0 0 1
vn -0 0 1
vn -0 0 1
vn -0 0 1
vn -0 0 1
vn -0 0 1
vn -0 0 1
vn -0 0 1
vn -0 0 1
vn -0 0 1
vn -0 0 1
vn -0 0 1
vn -0 0 1
vn -0 0 1
vn -0 0 1
vn -0 0 1
vn -0 0 1
vn -0 0 1
vn -0 0 1
vn -0 0 1
vn -0 0 1
vn -0 0 1
vn -0 0 1
vn -0 0 1
vn -0 0 1
vn -0 0 1
vn -0 0 1
vn -0 0 1
vn -0 0 1
vn -0 0 1
vn -0 0 1
vn -0 0 1
vn -0 0 1
vn -0 0 1
vn -0 0 1
vn -0 0 1
vn -0 0 1
vn -0 0 1
vn -0 0 1
vn -0 0 1
vn -0 0 1
vn -0 0 1
vn -0 0 1
vn -0 0 1
vn -0 0 1
vn -0 0 1
vn -0 0 1
vn -0 0 1
vn -0 0 1
vn -0 0 1
vn -0 0 1
vn -0 0 1
g Md_UNQ_CuttingLine_02_0
f 3/3/3 2/2/2 1/1/1
f 3/3/3 4/4/4 2/2/2
f 4/4/4 5/5/5 2/2/2
f 6/6/6 4/4/4 3/3/3
f 4/4/4 7/7/7 5/5/5
f 6/6/6 8/8/8 4/4/4
f 8/8/8 7/7/7 4/4/4
f 9/9/9 8/8/8 6/6/6
f 8/8/8 10/10/10 7/7/7
f 9/9/9 11/11/11 8/8/8
f 11/11/11 10/10/10 8/8/8
f 12/12/12 11/11/11 9/9/9
f 11/11/11 13/13/13 10/10/10
f 12/12/12 14/14/14 11/11/11
f 14/14/14 13/13/13 11/11/11
f 15/15/15 14/14/14 12/12/12
f 14/14/14 16/16/16 13/13/13
f 15/15/15 17/17/17 14/14/14
f 17/17/17 16/16/16 14/14/14
f 18/18/18 17/17/17 15/15/15
f 17/17/17 19/19/19 16/16/16
f 18/18/18 20/20/20 17/17/17
f 20/20/20 19/19/19 17/17/17
f 21/21/21 20/20/20 18/18/18
f 20/20/20 22/22/22 19/19/19
f 21/21/21 23/23/23 20/20/20
f 23/23/23 22/22/22 20/20/20
f 23/23/23 24/24/24 22/22/22
f 25/25/25 23/23/23 21/21/21
f 26/26/26 24/24/24 23/23/23
f 25/25/25 26/26/26 23/23/23
f 26/26/26 27/27/27 24/24/24
f 28/28/28 27/27/27 26/26/26
f 29/29/29 26/26/26 25/25/25
f 28/28/28 26/26/26 29/29/29
f 29/29/29 25/25/25 30/30/30
f 31/31/31 28/28/28 29/29/29
f 32/32/32 29/29/29 30/30/30
f 31/31/31 29/29/29 32/32/32
f 32/32/32 30/30/30 33/33/33
f 34/34/34 31/31/31 32/32/32
f 35/35/35 32/32/32 33/33/33
f 34/34/34 32/32/32 35/35/35
f 35/35/35 33/33/33 36/36/36
f 37/37/37 34/34/34 35/35/35
f 38/38/38 35/35/35 36/36/36
f 37/37/37 35/35/35 38/38/38
f 38/38/38 36/36/36 39/39/39
f 40/40/40 37/37/37 38/38/38
f 41/41/41 38/38/38 39/39/39
f 40/40/40 38/38/38 41/41/41
f 41/41/41 39/39/39 42/42/42
f 43/43/43 40/40/40 41/41/41
f 44/44/44 41/41/41 42/42/42
f 43/43/43 41/41/41 44/44/44
f 44/44/44 42/42/42 45/45/45
f 46/46/46 43/43/43 44/44/44
f 47/47/47 44/44/44 45/45/45
f 46/46/46 44/44/44 47/47/47
f 47/47/47 45/45/45 48/48/48
f 49/49/49 46/46/46 47/47/47
f 50/50/50 47/47/47 48/48/48
f 49/49/49 47/47/47 50/50/50
f 50/50/50 48/48/48 51/51/51
f 52/52/52 49/49/49 50/50/50
f 53/53/53 50/50/50 51/51/51
f 52/52/52 50/50/50 53/53/53
f 53/53/53 51/51/51 54/54/54
f 55/55/55 52/52/52 53/53/53
f 56/56/56 53/53/53 54/54/54
f 55/55/55 53/53/53 56/56/56
f 56/56/56 54/54/54 57/57/57
f 58/58/58 55/55/55 56/56/56
f 59/59/59 56/56/56 57/57/57
f 58/58/58 56/56/56 59/59/59
f 59/59/59 57/57/57 60/60/60
f 61/61/61 58/58/58 59/59/59
f 62/62/62 59/59/59 60/60/60
f 61/61/61 59/59/59 62/62/62
f 62/62/62 60/60/60 63/63/63
f 64/64/64 61/61/61 62/62/62
f 65/65/65 62/62/62 63/63/63
f 64/64/64 62/62/62 65/65/65
f 65/65/65 63/63/63 66/66/66
f 67/67/67 64/64/64 65/65/65
f 68/68/68 65/65/65 66/66/66
f 67/67/67 65/65/65 68/68/68
f 68/68/68 66/66/66 69/69/69
f 70/70/70 67/67/67 68/68/68
f 71/71/71 68/68/68 69/69/69
f 70/70/70 68/68/68 71/71/71
f 71/71/71 69/69/69 72/72/72
f 73/73/73 70/70/70 71/71/71
f 74/74/74 71/71/71 72/72/72
f 73/73/73 71/71/71 74/74/74
f 74/74/74 72/72/72 75/75/75
f 76/76/76 73/73/73 74/74/74
f 77/77/77 74/74/74 75/75/75
f 76/76/76 74/74/74 77/77/77
f 77/77/77 75/75/75 78/78/78
f 79/79/79 76/76/76 77/77/77
f 80/80/80 77/77/77 78/78/78
f 79/79/79 77/77/77 80/80/80
f 80/80/80 78/78/78 81/81/81
f 82/82/82 79/79/79 80/80/80
f 83/83/83 80/80/80 81/81/81
f 82/82/82 80/80/80 83/83/83
f 83/83/83 81/81/81 84/84/84
f 85/85/85 82/82/82 83/83/83
f 86/86/86 83/83/83 84/84/84
f 85/85/85 83/83/83 86/86/86
f 86/86/86 84/84/84 87/87/87
f 88/88/88 85/85/85 86/86/86
f 89/89/89 86/86/86 87/87/87
f 88/88/88 86/86/86 89/89/89
f 89/89/89 87/87/87 90/90/90
f 91/91/91 88/88/88 89/89/89
f 92/92/92 89/89/89 90/90/90
f 91/91/91 89/89/89 92/92/92
f 92/92/92 90/90/90 93/93/93
f 94/94/94 91/91/91 92/92/92
f 95/95/95 92/92/92 93/93/93
f 94/94/94 92/92/92 95/95/95
f 95/95/95 93/93/93 96/96/96
f 97/97/97 94/94/94 95/95/95
f 98/98/98 95/95/95 96/96/96
f 97/97/97 95/95/95 98/98/98
f 98/98/98 96/96/96 99/99/99
f 100/100/100 97/97/97 98/98/98
f 101/101/101 98/98/98 99/99/99
f 100/100/100 98/98/98 101/101/101
f 101/101/101 99/99/99 102/102/102
f 103/103/103 100/100/100 101/101/101
f 104/104/104 101/101/101 102/102/102
f 103/103/103 101/101/101 104/104/104
f 104/104/104 102/102/102 105/105/105
f 106/106/106 103/103/103 104/104/104
f 107/107/107 104/104/104 105/105/105
f 106/106/106 104/104/104 107/107/107
f 107/107/107 105/105/105 108/108/108
f 109/109/109 106/106/106 107/107/107
f 110/110/110 107/107/107 108/108/108
f 109/109/109 107/107/107 110/110/110
f 110/110/110 108/108/108 111/111/111
f 112/112/112 109/109/109 110/110/110
f 113/113/113 110/110/110 111/111/111
f 112/112/112 110/110/110 113/113/113
f 113/113/113 111/111/111 114/114/114
f 115/115/115 112/112/112 113/113/113
f 116/116/116 113/113/113 114/114/114
f 115/115/115 113/113/113 116/116/116
f 116/116/116 114/114/114 117/117/117
f 118/118/118 115/115/115 116/116/116
f 119/119/119 116/116/116 117/117/117
f 118/118/118 116/116/116 119/119/119
f 119/119/119 117/117/117 120/120/120
f 121/121/121 118/118/118 119/119/119
f 122/122/122 119/119/119 120/120/120
f 121/121/121 119/119/119 122/122/122
f 122/122/122 120/120/120 123/123/123
f 124/124/124 121/121/121 122/122/122
f 125/125/125 122/122/122 123/123/123
f 124/124/124 122/122/122 125/125/125
f 125/125/125 123/123/123 126/126/126
f 127/127/127 124/124/124 125/125/125
f 128/128/128 125/125/125 126/126/126
f 127/127/127 125/125/125 128/128/128
f 128/128/128 126/126/126 129/129/129
f 130/130/130 127/127/127 128/128/128
f 131/131/131 128/128/128 129/129/129
f 130/130/130 128/128/128 131/131/131
f 131/131/131 129/129/129 132/132/132
f 133/133/133 131/131/131 132/132/132
f 134/134/134 130/130/130 131/131/131
f 133/133/133 134/134/134 131/131/131
f 134/134/134 135/135/135 130/130/130
f 136/136/136 134/134/134 133/133/133
f 137/137/137 135/135/135 134/134/134
f 136/136/136 137/137/137 134/134/134
f 137/137/137 138/138/138 135/135/135
f 139/139/139 137/137/137 136/136/136
f 140/140/140 138/138/138 137/137/137
f 139/139/139 140/140/140 137/137/137
f 140/140/140 141/141/141 138/138/138
f 142/142/142 140/140/140 139/139/139
f 143/143/143 141/141/141 140/140/140
f 142/142/142 143/143/143 140/140/140
f 143/143/143 144/144/144 141/141/141
f 145/145/145 143/143/143 142/142/142
f 146/146/146 144/144/144 143/143/143
f 145/145/145 146/146/146 143/143/143
f 146/146/146 147/147/147 144/144/144
f 148/148/148 146/146/146 145/145/145
f 149/149/149 147/147/147 146/146/146
f 148/148/148 149/149/149 146/146/146
f 149/149/149 150/150/150 147/147/147
f 151/151/151 150/150/150 149/149/149
f 151/151/151 149/149/149 152/152/152
f 152/152/152 149/149/149 148/148/148
f 152/152/152 148/148/148 153/153/153
