g Md_UNQ_CardCylinder_00
v -0.3321598 -8.450031E-05 -0.49640158
v 0.3321598 -8.450031E-05 -0.49640158
v -0.3321598 0.6991956 -0.49640158
v 0.3321598 0.6991956 -0.49640158
v 0.3408999 0.6991956 -0.49405965
v 0.3408999 -8.450031E-05 -0.49405965
v -0.34964004 0.6991956 0.47892138
v -0.34729812 0.6991956 0.48766154
v -0.34729812 -8.450031E-05 0.48766154
v -0.34964004 -8.450031E-05 0.47892138
v -0.34964004 -8.450031E-05 -0.47892138
v -0.34964004 0.6991956 -0.47892138
v -0.34729812 0.6991956 -0.48766154
v -0.34729812 -8.450031E-05 -0.48766154
v -0.34729812 -8.450031E-05 0.48766154
v -0.34729812 0.6991956 0.48766154
v -0.3408999 -8.450031E-05 0.49405965
v -0.3408999 0.6991956 0.49405965
v -0.3408999 -8.450031E-05 0.49405965
v -0.3408999 0.6991956 0.49405965
v -0.3321598 -8.450031E-05 0.49640158
v -0.3321598 0.6991956 0.49640158
v 0.3321598 0.6991956 0.49640158
v 0.3321598 -8.450031E-05 0.49640158
v 0.3408999 -8.450031E-05 0.49405965
v 0.3408999 0.6991956 0.49405965
v 0.3408999 -8.450031E-05 0.49405965
v 0.3408999 0.6991956 0.49405965
v 0.34729812 -8.450031E-05 0.48766154
v 0.34729812 0.6991956 0.48766154
v 0.34729812 -8.450031E-05 0.48766154
v 0.34729812 0.6991956 0.48766154
v 0.34964004 -8.450031E-05 0.47892138
v 0.34964004 0.6991956 0.47892138
v 0.34964004 0.6991956 -0.47892138
v 0.34964004 -8.450031E-05 -0.47892138
v 0.34729812 -8.450031E-05 -0.48766154
v 0.34729812 0.6991956 -0.48766154
v -0.34729812 0.6991956 -0.48766154
v -0.34729812 -8.450031E-05 -0.48766154
v -0.3408999 0.6991956 -0.49405965
v -0.3408999 -8.450031E-05 -0.49405965
v -0.3408999 0.6991956 -0.49405965
v -0.3408999 -8.450031E-05 -0.49405965
v -0.3321598 0.6991956 -0.49640158
v -0.3321598 -8.450031E-05 -0.49640158
v 0.3408999 0.6991956 -0.49405965
v 0.3408999 -8.450031E-05 -0.49405965
v 0.34729812 0.6991956 -0.48766154
v 0.34729812 -8.450031E-05 -0.48766154
vt 1 0
vt 0.8122896 0
vt 1 1
vt 0.8122896 1
vt 0.8100182 1
vt 0.8100182 0
vt 0.30577928 1
vt 0.30765218 1
vt 0.30765218 0
vt 0.30577928 0
vt 0.0065103173 0
vt 0.0065103173 1
vt 0.00463742 1
vt 0.00463742 0
vt 0.30765218 0
vt 0.30765218 1
vt 0.3100182 0
vt 0.3100182 1
vt 0.3100182 0
vt 0.3100182 1
vt 0.3122896 0
vt 0.3122896 1
vt 0.5 1
vt 0.5 0
vt 0.5022714 0
vt 0.5022714 1
vt 0.5022714 0
vt 0.5022714 1
vt 0.5046374 0
vt 0.5046374 1
vt 0.5046374 0
vt 0.5046374 1
vt 0.5065103 0
vt 0.5065103 1
vt 0.8057793 1
vt 0.8057793 0
vt 0.8076522 0
vt 0.8076522 1
vt 0.00463742 1
vt 0.00463742 0
vt 0.002271384 1
vt 0.002271384 0
vt 0.002271384 1
vt 0.002271384 0
vt 0 1
vt 0 0
vt 0.8100182 1
vt 0.8100182 0
vt 0.8076522 1
vt 0.8076522 0
vn -0.0034794894 0 -0.9999939
vn 0.0034794894 0 -0.9999939
vn -0.0034794894 0 -0.9999939
vn 0.0034794894 0 -0.9999939
vn 0.2588202 0 -0.9659255
vn 0.2588202 0 -0.9659255
vn -0.99999714 0 0.0024228652
vn -0.96592593 0 0.2588184
vn -0.96592593 0 0.2588184
vn -0.99999714 0 0.0024228652
vn -0.99999714 0 -0.0024228652
vn -0.99999714 0 -0.0024228652
vn -0.96592593 0 -0.2588184
vn -0.96592593 0 -0.2588184
vn -0.70710397 0 0.7071095
vn -0.70710397 0 0.7071095
vn -0.70710397 0 0.7071095
vn -0.70710397 0 0.7071095
vn -0.2588202 0 0.9659255
vn -0.2588202 0 0.9659255
vn -0.0034794894 0 0.9999939
vn -0.0034794894 0 0.9999939
vn 0.0034794894 0 0.9999939
vn 0.0034794894 0 0.9999939
vn 0.2588202 0 0.9659255
vn 0.2588202 0 0.9659255
vn 0.70710397 0 0.7071095
vn 0.70710397 0 0.7071095
vn 0.70710397 0 0.7071095
vn 0.70710397 0 0.7071095
vn 0.96592593 0 0.2588184
vn 0.96592593 0 0.2588184
vn 0.99999714 0 0.0024228652
vn 0.99999714 0 0.0024228652
vn 0.99999714 0 -0.0024228652
vn 0.99999714 0 -0.0024228652
vn 0.96592593 0 -0.2588184
vn 0.96592593 0 -0.2588184
vn -0.70710397 0 -0.7071095
vn -0.70710397 0 -0.7071095
vn -0.70710397 0 -0.7071095
vn -0.70710397 0 -0.7071095
vn -0.2588202 0 -0.9659255
vn -0.2588202 0 -0.9659255
vn -0.0034794894 0 -0.9999939
vn -0.0034794894 0 -0.9999939
vn 0.70710397 0 -0.7071095
vn 0.70710397 0 -0.7071095
vn 0.70710397 0 -0.7071095
vn 0.70710397 0 -0.7071095
g Md_UNQ_CardCylinder_00_0
f 3/3/3 2/2/2 1/1/1
f 3/3/3 4/4/4 2/2/2
f 5/5/5 2/2/2 4/4/4
f 5/5/5 6/6/6 2/2/2
f 9/9/9 8/8/8 7/7/7
f 9/9/9 7/7/7 10/10/10
f 11/11/11 10/10/10 7/7/7
f 11/11/11 7/7/7 12/12/12
f 13/13/13 11/11/11 12/12/12
f 13/13/13 14/14/14 11/11/11
f 17/17/17 16/16/16 15/15/15
f 17/17/17 18/18/18 16/16/16
f 21/21/21 20/20/20 19/19/19
f 21/21/21 22/22/22 20/20/20
f 21/21/21 23/23/23 22/22/22
f 21/21/21 24/24/24 23/23/23
f 25/25/25 23/23/23 24/24/24
f 25/25/25 26/26/26 23/23/23
f 29/29/29 28/28/28 27/27/27
f 29/29/29 30/30/30 28/28/28
f 33/33/33 32/32/32 31/31/31
f 33/33/33 34/34/34 32/32/32
f 33/33/33 35/35/35 34/34/34
f 33/33/33 36/36/36 35/35/35
f 35/35/35 36/36/36 37/37/37
f 35/35/35 37/37/37 38/38/38
f 41/41/41 40/40/40 39/39/39
f 41/41/41 42/42/42 40/40/40
f 45/45/45 44/44/44 43/43/43
f 45/45/45 46/46/46 44/44/44
f 49/49/49 48/48/48 47/47/47
f 49/49/49 50/50/50 48/48/48
