g Md_UNQ_LCardBase_03
v -0.308255 -0.43236217 6.608025E-05
v -0.20733568 -0.3002529 6.608025E-05
v -0.2962908 -0.43953097 6.608025E-05
v -0.20733568 -0.3002529 6.608025E-05
v -0.28336048 -0.4398548 6.608025E-05
v 0.27890423 -0.44024944 6.608025E-05
v 0.20731317 -0.3002529 6.608025E-05
v -0.315 0.38963392 6.608025E-05
v -0.20733568 -0.3002529 6.608025E-05
v -0.315 -0.40669855 6.608025E-05
v -0.315 0.41786304 6.608025E-05
v -0.30887258 0.43279502 6.608025E-05
v -0.20733568 0.3008266 6.608025E-05
v -0.20733568 0.3008266 6.608025E-05
v -0.315 0.38963392 6.608025E-05
v -0.20733568 -0.3002529 6.608025E-05
v 0.20731317 0.3008266 6.608025E-05
v -0.20733568 0.3008266 6.608025E-05
v 0.2653033 0.43985683 6.608025E-05
v 0.2653033 0.43985683 6.608025E-05
v -0.20733568 0.3008266 6.608025E-05
v -0.26934335 0.43985683 6.608025E-05
v -0.31498155 -0.4192887 6.608025E-05
v -0.20733568 -0.3002529 6.608025E-05
v -0.308255 -0.43236217 6.608025E-05
v -0.315 -0.40669855 6.608025E-05
v 0.20731317 -0.3002529 6.608025E-05
v 0.29648867 -0.43923485 6.608025E-05
v 0.27890423 -0.44024944 6.608025E-05
v 0.30798942 -0.43205485 6.608025E-05
v 0.20731317 -0.3002529 6.608025E-05
v 0.31419823 -0.4225096 6.608025E-05
v 0.30798942 -0.43205485 6.608025E-05
v 0.315 -0.40254524 6.608025E-05
v 0.20731317 -0.3002529 6.608025E-05
v 0.315 0.3962237 6.608025E-05
v 0.315 -0.40254524 6.608025E-05
v 0.20731317 0.3008266 6.608025E-05
v -0.30887258 0.43279502 6.608025E-05
v -0.29330978 0.43985683 6.608025E-05
v -0.20733568 0.3008266 6.608025E-05
v -0.26934335 0.43985683 6.608025E-05
v 0.2653033 0.43985683 6.608025E-05
v 0.2954967 0.44013232 6.608022E-05
v 0.20731317 0.3008266 6.608025E-05
v 0.3081737 0.43199265 6.608025E-05
v 0.3081737 0.43199265 6.608025E-05
v 0.31475535 0.4195474 6.608025E-05
v 0.20731317 0.3008266 6.608025E-05
v 0.315 0.3962237 6.608025E-05
vt 0.999962 7.777335E-05
vt 6.0902385E-06 5.146583E-06
vt 0.999962 7.777335E-05
vt 6.0902385E-06 5.146583E-06
vt 0.999962 7.777335E-05
vt 0.9999981 1.0000014
vt -2.3260072E-06 0.99999243
vt 0.9999616 7.721456E-05
vt -2.3722678E-06 0.9999923
vt 0.99999833 1.0000012
vt 0.9999616 7.721456E-05
vt 0.9999616 7.721456E-05
vt 6.631337E-06 4.6473942E-06
vt 6.631337E-06 4.6473942E-06
vt 0.9999616 7.721456E-05
vt -2.3722678E-06 0.9999923
vt 6.1109604E-06 5.206188E-06
vt -2.3071625E-06 0.9999923
vt 0.999962 7.777335E-05
vt 0.999962 7.777335E-05
vt -2.3071625E-06 0.9999923
vt 0.9999981 1.0000014
vt 0.99999833 1.0000012
vt -2.3722678E-06 0.9999923
vt 0.99999833 1.0000012
vt 0.99999833 1.0000012
vt -2.3260072E-06 0.99999243
vt 0.9999981 1.0000014
vt 0.9999981 1.0000014
vt 0.9999981 1.0000014
vt 6.6037464E-06 4.6101413E-06
vt 0.9999616 7.721456E-05
vt 0.9999616 7.721456E-05
vt 0.9999616 7.721456E-05
vt 6.6037464E-06 4.6101413E-06
vt 0.99999833 1.0000012
vt 0.9999616 7.721456E-05
vt -2.3538305E-06 0.9999924
vt 0.9999981 1.0000014
vt 0.9999981 1.0000014
vt -2.3071625E-06 0.9999923
vt 0.9999981 1.0000014
vt 0.999962 7.777335E-05
vt 0.999962 7.777335E-05
vt 6.1109604E-06 5.206188E-06
vt 0.999962 7.777335E-05
vt 0.99999833 1.0000012
vt 0.99999833 1.0000012
vt -2.3538305E-06 0.9999924
vt 0.99999833 1.0000012
vn -0 0 1
vn -0 0 1
vn -0 0 1
vn -0 0 1
vn -0 0 1
vn -0 0 1
vn -0 0 1
vn -0 0 1
vn -0 0 1
vn -0 0 1
vn -0 0 1
vn -0 0 1
vn -0 0 1
vn -0 0 1
vn -0 0 1
vn -0 0 1
vn -0 0 1
vn -0 0 1
vn -0 0 1
vn -0 0 1
vn -0 0 1
vn -0 0 1
vn -0 0 1
vn -0 0 1
vn -0 0 1
vn -0 0 1
vn -0 0 1
vn -0 0 1
vn -0 0 1
vn -0 0 1
vn -0 0 1
vn -0 0 1
vn -0 0 1
vn -0 0 1
vn -0 0 1
vn -0 0 1
vn -0 0 1
vn -0 0 1
vn -0 0 1
vn -0 0 1
vn -0 0 1
vn -0 0 1
vn -0 0 1
vn -0 0 1
vn -0 0 1
vn -0 0 1
vn -0 0 1
vn -0 0 1
vn -0 0 1
vn -0 0 1
g Md_UNQ_LCardBase_03_0
f 3/3/3 2/2/2 1/1/1
f 3/3/3 5/5/5 4/4/4
f 5/5/5 6/6/6 4/4/4
f 4/4/4 6/6/6 7/7/7
f 10/10/10 9/9/9 8/8/8
f 13/13/13 12/12/12 11/11/11
f 15/15/15 14/14/14 11/11/11
f 16/16/16 14/14/14 15/15/15
f 19/19/19 18/18/18 17/17/17
f 22/22/22 21/21/21 20/20/20
f 25/25/25 24/24/24 23/23/23
f 23/23/23 24/24/24 26/26/26
f 29/29/29 28/28/28 27/27/27
f 28/28/28 30/30/30 27/27/27
f 33/33/33 32/32/32 31/31/31
f 32/32/32 34/34/34 31/31/31
f 37/37/37 36/36/36 35/35/35
f 35/35/35 36/36/36 38/38/38
f 41/41/41 40/40/40 39/39/39
f 41/41/41 42/42/42 40/40/40
f 45/45/45 44/44/44 43/43/43
f 45/45/45 46/46/46 44/44/44
f 49/49/49 48/48/48 47/47/47
f 49/49/49 50/50/50 48/48/48
