g Md_UNQ_HitMark_00
v -0.010563294 0 -0.037310198
v -0.043092173 0.1189953 -0.17548303
v 0.0002560798 0 -0.037637487
v -0.020505853 0.1189953 -0.1886881
v 0.011075454 0 -0.037964787
v 0.010810903 0.1189953 -0.26417014
v 0.036889404 0.1189953 -0.25933245
v 0.021894824 0 -0.03829209
v 0.0327142 0 -0.038619377
v 0.0693702 0.1189953 -0.26031503
v -0.114831634 0 0.061802205
v -0.2710243 0.1189953 0.065571085
v -0.25117317 0.1189953 -0.055516735
v -0.026617173 0 -0.0031115504
v -0.012641074 0 -0.014636543
v -0.24759059 0.1189953 -0.13980997
v -0.25587904 0.1189953 -0.26263258
v 0.01105115 0 -0.018256476
v 0.019152507 0 -0.08129937
v -0.13430335 0.1189953 -0.33546612
v 0.0043479768 0 0.04053908
v -0.115172744 0.1189953 0.2820224
v -0.15718092 0.1189953 0.2391064
v 0.005908271 0 0.021939399
v -0.19918908 0.1189953 0.19619043
v 0.0041478006 0 0.0041698897
v -0.016707059 0 0.0038344231
v -0.24119727 0.1189953 0.15327443
v -0.08156206 0 0.013461222
v -0.28320545 0.1189953 0.11035845
v 0.09062649 0 0.005548044
v 0.36810765 0.1189953 0.13754803
v 0.2663566 0.1189953 0.1974134
v 0.05101785 0 0.006943413
v 0.16460563 0.1189953 0.25727865
v 0.01375067 0 -0.0089953095
v -0.0012656181 0 0.040934935
v 0.06285463 0.1189953 0.31714392
v -0.029928848 0 0.05779897
v -0.038896237 0.1189953 0.37700915
v -0.0062045488 0 -0.04109507
v 0.1502361 0.1189953 -0.37700918
v 0.21612884 0.1189953 -0.30452707
v 0.020326767 0 -0.016486432
v 0.28202155 0.1189953 -0.23204497
v 0.027949555 0 -0.0010708006
v 0.049898453 0 0.023073036
v 0.34791428 0.1189953 -0.15956283
v 0.071847364 0 0.047216862
v 0.41380695 0.1189953 -0.0870807
vt 0 0
vt 0 1
vt 0.25 0
vt 0.25 1
vt 0.5 0
vt 0.5 1
vt 0.75 1
vt 0.75 0
vt 1 0
vt 1 1
vt 0 0
vt 0 1
vt 0.25 1
vt 0.25 0
vt 0.5 0
vt 0.5 1
vt 0.75 1
vt 0.75 0
vt 1 0
vt 1 1
vt 0 0
vt 0 1
vt 0.25 1
vt 0.25 0
vt 0.5 1
vt 0.5 0
vt 0.75 0
vt 0.75 1
vt 1 0
vt 1 1
vt 0 0
vt 0 1
vt 0.25 1
vt 0.25 0
vt 0.5 1
vt 0.5 0
vt 0.75 0
vt 0.75 1
vt 1 0
vt 1 1
vt 0 0
vt 0 1
vt 0.25 1
vt 0.25 0
vt 0.5 1
vt 0.5 0
vt 0.75 0
vt 0.75 1
vt 1 0
vt 1 1
vn 0.23913087 0.77093846 0.5903138
vn 0.23913087 0.77093846 0.5903138
vn 0.54931563 0.7037269 0.4505784
vn 0.5878439 0.6874281 0.42647648
vn 0.40572745 0.7999718 0.44207498
vn 0.23972718 0.85293543 0.46371534
vn -0.018990599 0.8815705 0.4716702
vn -0.0207868 0.8816261 0.47149065
vn 0.01436086 0.88001734 0.47472444
vn 0.014360861 0.88001734 0.4747244
vn 0.48274437 0.8296348 0.28047094
vn 0.48274434 0.82963485 0.28047094
vn 0.46605757 0.86142063 0.20185336
vn 0.45804343 0.87281144 0.16851272
vn 0.40791774 0.91125894 0.056658555
vn 0.4086273 0.91090244 0.05727456
vn 0.2909007 0.93803144 0.18834455
vn 0.30412483 0.9369564 0.17210685
vn 0.24929403 0.93874735 0.23791996
vn 0.24929403 0.93874735 0.23791996
vn 0.36618453 0.89885306 -0.2407743
vn 0.36618453 0.89885306 -0.24077433
vn 0.34836894 0.9063498 -0.2391009
vn 0.33680916 0.9110038 -0.2379739
vn 0.28186578 0.91450477 -0.29022866
vn 0.28550884 0.914637 -0.2862234
vn 0.22012083 0.89780384 -0.381438
vn 0.19438678 0.8718164 -0.44961083
vn 0.16340691 0.83554476 -0.5245599
vn 0.16340691 0.83554476 -0.5245599
vn -0.17319515 0.90015745 -0.39964962
vn -0.1731952 0.90015745 -0.39964962
vn -0.15134832 0.9073836 -0.3921079
vn -0.13285871 0.91306305 -0.38557035
vn -0.20282908 0.9198306 -0.3358155
vn -0.20855531 0.91974705 -0.3325207
vn -0.2521565 0.9164381 -0.3107385
vn -0.2346162 0.9164378 -0.3241865
vn -0.20414221 0.91538805 -0.34697354
vn -0.2041422 0.91538805 -0.3469736
vn -0.23760213 0.94466245 0.22618172
vn -0.23760219 0.94466245 0.22618172
vn -0.24400578 0.94428855 0.2208628
vn -0.2466434 0.9441151 0.21866342
vn -0.2477545 0.94428855 0.21664949
vn -0.24722421 0.94434667 0.21700111
vn -0.24229176 0.9448694 0.22026484
vn -0.24229176 0.9448694 0.22026484
vn -0.2422918 0.9448694 0.22026479
vn -0.24229182 0.9448694 0.22026482
g Md_UNQ_HitMark_00_0
f 3/3/3 2/2/2 1/1/1
f 3/3/3 4/4/4 2/2/2
f 5/5/5 4/4/4 3/3/3
f 5/5/5 6/6/6 4/4/4
f 7/7/7 6/6/6 5/5/5
f 7/7/7 5/5/5 8/8/8
f 9/9/9 7/7/7 8/8/8
f 9/9/9 10/10/10 7/7/7
f 13/13/13 12/12/12 11/11/11
f 13/13/13 11/11/11 14/14/14
f 15/15/15 13/13/13 14/14/14
f 15/15/15 16/16/16 13/13/13
f 17/17/17 16/16/16 15/15/15
f 17/17/17 15/15/15 18/18/18
f 19/19/19 17/17/17 18/18/18
f 19/19/19 20/20/20 17/17/17
f 23/23/23 22/22/22 21/21/21
f 23/23/23 21/21/21 24/24/24
f 25/25/25 23/23/23 24/24/24
f 25/25/25 24/24/24 26/26/26
f 27/27/27 25/25/25 26/26/26
f 27/27/27 28/28/28 25/25/25
f 29/29/29 28/28/28 27/27/27
f 29/29/29 30/30/30 28/28/28
f 33/33/33 32/32/32 31/31/31
f 33/33/33 31/31/31 34/34/34
f 35/35/35 33/33/33 34/34/34
f 35/35/35 34/34/34 36/36/36
f 37/37/37 35/35/35 36/36/36
f 37/37/37 38/38/38 35/35/35
f 39/39/39 38/38/38 37/37/37
f 39/39/39 40/40/40 38/38/38
f 43/43/43 42/42/42 41/41/41
f 43/43/43 41/41/41 44/44/44
f 45/45/45 43/43/43 44/44/44
f 45/45/45 44/44/44 46/46/46
f 47/47/47 45/45/45 46/46/46
f 47/47/47 48/48/48 45/45/45
f 49/49/49 48/48/48 47/47/47
f 49/49/49 50/50/50 48/48/48
