g Md_UNQ_RingOffset_00
v 0.009951843 -0.0010198322 -7.4505804E-11
v 0.0074223415 -0.0012689659 -7.4505804E-11
v 0.009807849 -4.9100665E-05 -7.4505804E-11
v 0.0073149465 -0.00054496934 -7.4505804E-11
v 0.0095694 0.00090284244 -7.4505804E-11
v 0.0071371053 0.00016501443 -7.4505804E-11
v 0.009238793 0.0018268297 -7.4505804E-11
v 0.0068905293 0.00085414766 -7.4505804E-11
v 0.00881921 0.0027139627 -7.4505804E-11
v 0.0065775947 0.0015157942 -7.4505804E-11
v 0.008314694 0.0035556976 -7.4505804E-11
v 0.006201314 0.0021435819 -7.4505804E-11
v 0.0077301036 0.004343929 -7.4505804E-11
v 0.0057653105 0.0027314648 -7.4505804E-11
v 0.0070710676 0.0050710635 -7.4505804E-11
v 0.005273785 0.003273781 -7.4505804E-11
v 0.0063439333 0.0057301 -7.4505804E-11
v 0.004731469 0.0037653074 -7.4505804E-11
v 0.0055557033 0.0063146916 -7.4505804E-11
v 0.004143587 0.004201311 -7.4505804E-11
v 0.0047139684 0.0068192086 -7.4505804E-11
v 0.0035157995 0.0045775925 -7.4505804E-11
v 0.003826836 0.0072387913 -7.4505804E-11
v 0.0028541528 0.004890528 -7.4505804E-11
v 0.0029028486 0.007569399 -7.4505804E-11
v 0.0021650195 0.0051371036 -7.4505804E-11
v 0.0019509054 0.0078078494 -7.4505804E-11
v 0.0014550358 0.005314946 -7.4505804E-11
v 0.0009801739 0.0079518445 -7.4505804E-11
v 0.00073103927 0.005422341 -7.4505804E-11
v 2.8312206E-09 0.007999997 -7.4505804E-11
v 2.4145963E-09 0.005458255 -7.4505804E-11
v -0.0009801683 0.0079518445 -7.4505804E-11
v -0.00073103444 0.0054223416 -7.4505804E-11
v -0.0019509 0.007807851 -7.4505804E-11
v -0.001455031 0.0053149466 -7.4505804E-11
v -0.0029028433 0.0075694015 -7.4505804E-11
v -0.0021650149 0.0051371055 -7.4505804E-11
v -0.003826831 0.0072387937 -7.4505804E-11
v -0.0028541484 0.00489053 -7.4505804E-11
v -0.0047139637 0.006819212 -7.4505804E-11
v -0.0035157953 0.0045775953 -7.4505804E-11
v -0.0055556986 0.0063146953 -7.4505804E-11
v -0.0041435827 0.0042013135 -7.4505804E-11
v -0.0063439296 0.0057301037 -7.4505804E-11
v -0.0047314656 0.00376531 -7.4505804E-11
v -0.007071065 0.0050710673 -7.4505804E-11
v -0.0052737817 0.0032737835 -7.4505804E-11
v -0.0077301012 0.004343933 -7.4505804E-11
v -0.005765308 0.002731468 -7.4505804E-11
v -0.008314692 0.0035557025 -7.4505804E-11
v -0.0062013124 0.0021435854 -7.4505804E-11
v -0.008819209 0.0027139676 -7.4505804E-11
v -0.0065775937 0.0015157979 -7.4505804E-11
v -0.009238793 0.0018268351 -7.4505804E-11
v -0.0068905293 0.00085415196 -7.4505804E-11
v -0.0095694 0.0009028478 -7.4505804E-11
v -0.007137104 0.00016501835 -7.4505804E-11
v -0.00980785 -4.909545E-05 -7.4505804E-11
v -0.007314946 -0.0005449653 -7.4505804E-11
v -0.009951845 -0.001019827 -7.4505804E-11
v -0.007422341 -0.001268962 -7.4505804E-11
v -0.009999997 -0.0019999982 -7.4505804E-11
v -0.007458255 -0.001999999 -7.4505804E-11
v -0.009951845 -0.0029801696 -7.4505804E-11
v -0.007422342 -0.002731036 -7.4505804E-11
v -0.009807851 -0.003950901 -7.4505804E-11
v -0.007314947 -0.0034550326 -7.4505804E-11
v -0.009569402 -0.0049028443 -7.4505804E-11
v -0.0071371053 -0.0041650166 -7.4505804E-11
v -0.0092387935 -0.005826832 -7.4505804E-11
v -0.0068905293 -0.00485415 -7.4505804E-11
v -0.008819211 -0.006713965 -7.4505804E-11
v -0.0065775947 -0.0055157966 -7.4505804E-11
v -0.008314695 -0.0075557 -7.4505804E-11
v -0.006201313 -0.006143585 -7.4505804E-11
v -0.0077301036 -0.00834393 -7.4505804E-11
v -0.00576531 -0.0067314664 -7.4505804E-11
v -0.007071067 -0.009071066 -7.4505804E-11
v -0.005273783 -0.007273783 -7.4505804E-11
v -0.006343933 -0.0097301025 -7.4505804E-11
v -0.004731468 -0.007765309 -7.4505804E-11
v -0.0055557024 -0.010314695 -7.4505804E-11
v -0.0041435855 -0.008201313 -7.4505804E-11
v -0.0047139674 -0.010819211 -7.4505804E-11
v -0.0035157981 -0.0085775945 -7.4505804E-11
v -0.0038268345 -0.011238794 -7.4505804E-11
v -0.0028541514 -0.00889053 -7.4505804E-11
v -0.0029028468 -0.011569402 -7.4505804E-11
v -0.0021650176 -0.009137106 -7.4505804E-11
v -0.0019509034 -0.0118078515 -7.4505804E-11
v -0.0014550338 -0.009314948 -7.4505804E-11
v -0.000980172 -0.011951846 -7.4505804E-11
v -0.0007310371 -0.009422343 -7.4505804E-11
v -6.705522E-10 -0.011999999 -7.4505804E-11
v -1.9711581E-10 -0.009458257 -7.4505804E-11
v 0.0009801706 -0.011951846 -7.4505804E-11
v 0.0007310368 -0.009422343 -7.4505804E-11
v 0.0019509023 -0.0118078515 -7.4505804E-11
v 0.0014550334 -0.009314948 -7.4505804E-11
v 0.0029028456 -0.011569402 -7.4505804E-11
v 0.0021650172 -0.009137107 -7.4505804E-11
v 0.0038268333 -0.011238794 -7.4505804E-11
v 0.0028541507 -0.00889053 -7.4505804E-11
v 0.004713966 -0.010819212 -7.4505804E-11
v 0.0035157977 -0.008577595 -7.4505804E-11
v 0.005555701 -0.010314696 -7.4505804E-11
v 0.004143585 -0.008201315 -7.4505804E-11
v 0.006343932 -0.009730104 -7.4505804E-11
v 0.004731468 -0.0077653104 -7.4505804E-11
v 0.007071067 -0.009071067 -7.4505804E-11
v 0.0052737845 -0.007273785 -7.4505804E-11
v 0.0077301036 -0.008343932 -7.4505804E-11
v 0.0057653105 -0.0067314683 -7.4505804E-11
v 0.008314695 -0.0075557022 -7.4505804E-11
v 0.0062013147 -0.006143586 -7.4505804E-11
v 0.008819212 -0.0067139673 -7.4505804E-11
v 0.006577596 -0.005515798 -7.4505804E-11
v 0.009238794 -0.005826834 -7.4505804E-11
v 0.0068905316 -0.004854152 -7.4505804E-11
v 0.009569403 -0.0049028466 -7.4505804E-11
v 0.0071371063 -0.004165018 -7.4505804E-11
v 0.009807852 -0.003950903 -7.4505804E-11
v 0.0073149484 -0.0034550342 -7.4505804E-11
v 0.009951847 -0.0029801715 -7.4505804E-11
v 0.0074223434 -0.002731037 -7.4505804E-11
v 0.01 -0.002 -7.4505804E-11
v 0.0074582575 -0.0020000003 -7.4505804E-11
v 0.009951843 -0.0010198322 -7.4505804E-11
v 0.0074223415 -0.0012689659 -7.4505804E-11
vt 0.99999994 1
vt 1 5.9604645E-08
vt 0.98437494 1
vt 0.984375 5.9604645E-08
vt 0.96874994 1
vt 0.96875 5.9604645E-08
vt 0.95312494 1
vt 0.953125 5.9604645E-08
vt 0.93749994 1
vt 0.9375 5.9604645E-08
vt 0.92187494 1
vt 0.921875 5.9604645E-08
vt 0.90624994 1
vt 0.90625 5.9604645E-08
vt 0.89062494 1
vt 0.890625 5.9604645E-08
vt 0.87499994 1
vt 0.875 5.9604645E-08
vt 0.85937494 1
vt 0.859375 5.9604645E-08
vt 0.84374994 1
vt 0.84375 5.9604645E-08
vt 0.82812494 1
vt 0.828125 0
vt 0.81249994 1
vt 0.8125 0
vt 0.79687494 1
vt 0.796875 0
vt 0.78124994 1
vt 0.78125 0
vt 0.76562494 1
vt 0.765625 0
vt 0.75 1
vt 0.75 0
vt 0.734375 1
vt 0.734375 0
vt 0.71875 1
vt 0.71875 0
vt 0.703125 1
vt 0.703125 0
vt 0.6875 1
vt 0.6875 0
vt 0.671875 1
vt 0.671875 0
vt 0.65625 1
vt 0.65625 0
vt 0.640625 1
vt 0.640625 0
vt 0.62499994 1
vt 0.625 0
vt 0.60937494 1
vt 0.609375 0
vt 0.59374994 1
vt 0.59375 0
vt 0.57812494 1
vt 0.578125 0
vt 0.56249994 1
vt 0.5625 0
vt 0.54687494 1
vt 0.546875 0
vt 0.53124994 1
vt 0.53125 0
vt 0.51562494 1
vt 0.515625 0
vt 0.49999997 1
vt 0.5 0
vt 0.48437497 1
vt 0.48437503 0
vt 0.46874997 1
vt 0.46875003 0
vt 0.45312497 1
vt 0.45312503 0
vt 0.43749997 1
vt 0.43750003 0
vt 0.42187497 1
vt 0.42187503 0
vt 0.40624997 1
vt 0.40625003 0
vt 0.39062497 1
vt 0.39062503 0
vt 0.375 1
vt 0.37500003 0
vt 0.359375 1
vt 0.359375 0
vt 0.34375 1
vt 0.34375 0
vt 0.328125 1
vt 0.328125 0
vt 0.3125 1
vt 0.3125 0
vt 0.296875 1
vt 0.296875 0
vt 0.28125 1
vt 0.28125 0
vt 0.265625 1
vt 0.265625 0
vt 0.25 1
vt 0.25 0
vt 0.234375 1
vt 0.234375 0
vt 0.21875 1
vt 0.21875 0
vt 0.203125 1
vt 0.203125 0
vt 0.1875 1
vt 0.1875 0
vt 0.171875 1
vt 0.171875 0
vt 0.15625 1
vt 0.15625 0
vt 0.140625 1
vt 0.140625 0
vt 0.125 1
vt 0.125 0
vt 0.109375 1
vt 0.109375 0
vt 0.09375 1
vt 0.09375 0
vt 0.078125 1
vt 0.078125 0
vt 0.0625 1
vt 0.0625 0
vt 0.046875 1
vt 0.046875 0
vt 0.03125 1
vt 0.03125 0
vt 0.015625 1
vt 0.015625 0
vt 0 1
vt 0 0
vn -0 0 1
vn -0 0 1
vn -0 0 1
vn -0 0 1
vn -0 0 1
vn -0 0 1
vn -0 0 1
vn -0 0 1
vn -0 0 1
vn -0 0 1
vn -0 0 1
vn -0 0 1
vn -0 0 1
vn -0 0 1
vn -0 0 1
vn -0 0 1
vn -0 0 1
vn -0 0 1
vn -0 0 1
vn -0 0 1
vn -0 0 1
vn -0 0 1
vn -0 0 1
vn -0 0 1
vn -0 0 1
vn -0 0 1
vn -0 0 1
vn -0 0 1
vn -0 0 1
vn -0 0 1
vn -0 0 1
vn -0 0 1
vn -0 0 1
vn -0 0 1
vn -0 0 1
vn -0 0 1
vn -0 0 1
vn -0 0 1
vn -0 0 1
vn -0 0 1
vn -0 0 1
vn -0 0 1
vn -0 0 1
vn -0 0 1
vn -0 0 1
vn -0 0 1
vn -0 0 1
vn -0 0 1
vn -0 0 1
vn -0 0 1
vn -0 0 1
vn -0 0 1
vn -0 0 1
vn -0 0 1
vn -0 0 1
vn -0 0 1
vn -0 0 1
vn -0 0 1
vn -0 0 1
vn -0 0 1
vn -0 0 1
vn -0 0 1
vn -0 0 1
vn -0 0 1
vn -0 0 1
vn -0 0 1
vn -0 0 1
vn -0 0 1
vn -0 0 1
vn -0 0 1
vn -0 0 1
vn -0 0 1
vn -0 0 1
vn -0 0 1
vn -0 0 1
vn -0 0 1
vn -0 0 1
vn -0 0 1
vn -0 0 1
vn -0 0 1
vn -0 0 1
vn -0 0 1
vn -0 0 1
vn -0 0 1
vn -0 0 1
vn -0 0 1
vn -0 0 1
vn -0 0 1
vn -0 0 1
vn -0 0 1
vn -0 0 1
vn -0 0 1
vn -0 0 1
vn -0 0 1
vn -0 0 1
vn -0 0 1
vn -0 0 1
vn -0 0 1
vn -0 0 1
vn -0 0 1
vn -0 0 1
vn -0 0 1
vn -0 0 1
vn -0 0 1
vn -0 0 1
vn -0 0 1
vn -0 0 1
vn -0 0 1
vn -0 0 1
vn -0 0 1
vn -0 0 1
vn -0 0 1
vn -0 0 1
vn -0 0 1
vn -0 0 1
vn -0 0 1
vn -0 0 1
vn -0 0 1
vn -0 0 1
vn -0 0 1
vn -0 0 1
vn -0 0 1
vn -0 0 1
vn -0 0 1
vn -0 0 1
vn -0 0 1
vn -0 0 1
vn -0 0 1
vn -0 0 1
vn -0 0 1
g Md_UNQ_RingOffset_00_0
f 3/3/3 2/2/2 1/1/1
f 3/3/3 4/4/4 2/2/2
f 5/5/5 4/4/4 3/3/3
f 5/5/5 6/6/6 4/4/4
f 7/7/7 6/6/6 5/5/5
f 7/7/7 8/8/8 6/6/6
f 9/9/9 8/8/8 7/7/7
f 9/9/9 10/10/10 8/8/8
f 11/11/11 10/10/10 9/9/9
f 11/11/11 12/12/12 10/10/10
f 13/13/13 12/12/12 11/11/11
f 13/13/13 14/14/14 12/12/12
f 15/15/15 14/14/14 13/13/13
f 15/15/15 16/16/16 14/14/14
f 17/17/17 16/16/16 15/15/15
f 17/17/17 18/18/18 16/16/16
f 19/19/19 18/18/18 17/17/17
f 19/19/19 20/20/20 18/18/18
f 21/21/21 20/20/20 19/19/19
f 21/21/21 22/22/22 20/20/20
f 23/23/23 22/22/22 21/21/21
f 23/23/23 24/24/24 22/22/22
f 25/25/25 24/24/24 23/23/23
f 25/25/25 26/26/26 24/24/24
f 27/27/27 26/26/26 25/25/25
f 27/27/27 28/28/28 26/26/26
f 29/29/29 28/28/28 27/27/27
f 29/29/29 30/30/30 28/28/28
f 31/31/31 30/30/30 29/29/29
f 31/31/31 32/32/32 30/30/30
f 33/33/33 32/32/32 31/31/31
f 33/33/33 34/34/34 32/32/32
f 35/35/35 34/34/34 33/33/33
f 35/35/35 36/36/36 34/34/34
f 37/37/37 36/36/36 35/35/35
f 37/37/37 38/38/38 36/36/36
f 39/39/39 38/38/38 37/37/37
f 39/39/39 40/40/40 38/38/38
f 41/41/41 40/40/40 39/39/39
f 41/41/41 42/42/42 40/40/40
f 43/43/43 42/42/42 41/41/41
f 43/43/43 44/44/44 42/42/42
f 45/45/45 44/44/44 43/43/43
f 45/45/45 46/46/46 44/44/44
f 47/47/47 46/46/46 45/45/45
f 47/47/47 48/48/48 46/46/46
f 49/49/49 48/48/48 47/47/47
f 49/49/49 50/50/50 48/48/48
f 51/51/51 50/50/50 49/49/49
f 51/51/51 52/52/52 50/50/50
f 53/53/53 52/52/52 51/51/51
f 53/53/53 54/54/54 52/52/52
f 55/55/55 54/54/54 53/53/53
f 55/55/55 56/56/56 54/54/54
f 57/57/57 56/56/56 55/55/55
f 57/57/57 58/58/58 56/56/56
f 59/59/59 58/58/58 57/57/57
f 59/59/59 60/60/60 58/58/58
f 61/61/61 60/60/60 59/59/59
f 61/61/61 62/62/62 60/60/60
f 63/63/63 62/62/62 61/61/61
f 63/63/63 64/64/64 62/62/62
f 65/65/65 64/64/64 63/63/63
f 65/65/65 66/66/66 64/64/64
f 67/67/67 66/66/66 65/65/65
f 67/67/67 68/68/68 66/66/66
f 69/69/69 68/68/68 67/67/67
f 69/69/69 70/70/70 68/68/68
f 71/71/71 70/70/70 69/69/69
f 71/71/71 72/72/72 70/70/70
f 73/73/73 72/72/72 71/71/71
f 73/73/73 74/74/74 72/72/72
f 75/75/75 74/74/74 73/73/73
f 75/75/75 76/76/76 74/74/74
f 77/77/77 76/76/76 75/75/75
f 77/77/77 78/78/78 76/76/76
f 79/79/79 78/78/78 77/77/77
f 79/79/79 80/80/80 78/78/78
f 81/81/81 80/80/80 79/79/79
f 81/81/81 82/82/82 80/80/80
f 83/83/83 82/82/82 81/81/81
f 83/83/83 84/84/84 82/82/82
f 85/85/85 84/84/84 83/83/83
f 85/85/85 86/86/86 84/84/84
f 87/87/87 86/86/86 85/85/85
f 87/87/87 88/88/88 86/86/86
f 89/89/89 88/88/88 87/87/87
f 89/89/89 90/90/90 88/88/88
f 91/91/91 90/90/90 89/89/89
f 91/91/91 92/92/92 90/90/90
f 93/93/93 92/92/92 91/91/91
f 93/93/93 94/94/94 92/92/92
f 95/95/95 94/94/94 93/93/93
f 95/95/95 96/96/96 94/94/94
f 97/97/97 96/96/96 95/95/95
f 97/97/97 98/98/98 96/96/96
f 99/99/99 98/98/98 97/97/97
f 99/99/99 100/100/100 98/98/98
f 101/101/101 100/100/100 99/99/99
f 101/101/101 102/102/102 100/100/100
f 103/103/103 102/102/102 101/101/101
f 103/103/103 104/104/104 102/102/102
f 105/105/105 104/104/104 103/103/103
f 105/105/105 106/106/106 104/104/104
f 107/107/107 106/106/106 105/105/105
f 107/107/107 108/108/108 106/106/106
f 109/109/109 108/108/108 107/107/107
f 109/109/109 110/110/110 108/108/108
f 111/111/111 110/110/110 109/109/109
f 111/111/111 112/112/112 110/110/110
f 113/113/113 112/112/112 111/111/111
f 113/113/113 114/114/114 112/112/112
f 115/115/115 114/114/114 113/113/113
f 115/115/115 116/116/116 114/114/114
f 117/117/117 116/116/116 115/115/115
f 117/117/117 118/118/118 116/116/116
f 119/119/119 118/118/118 117/117/117
f 119/119/119 120/120/120 118/118/118
f 121/121/121 120/120/120 119/119/119
f 121/121/121 122/122/122 120/120/120
f 123/123/123 122/122/122 121/121/121
f 123/123/123 124/124/124 122/122/122
f 125/125/125 124/124/124 123/123/123
f 125/125/125 126/126/126 124/124/124
f 127/127/127 126/126/126 125/125/125
f 127/127/127 128/128/128 126/126/126
f 129/129/129 128/128/128 127/127/127
f 129/129/129 130/130/130 128/128/128
