g Md_UNQ_CuttingLine_00
v -3.5425 -0.7500002 0
v -3.5425 -1.928324E-07 0
v -3.4008 -0.7500002 0
v -3.4008 -1.928324E-07 0
v -3.5425 0.7499998 0
v -3.2591 -0.7500002 0
v -3.4008 0.7499998 0
v -3.2591 -1.928324E-07 0
v -3.1174 -0.7500002 0
v -3.2591 0.7499998 0
v -3.1174 -1.928324E-07 0
v -2.9757001 -0.7500002 0
v -3.1174 0.7499998 0
v -2.9757001 -1.928324E-07 0
v -2.834 -0.7500002 0
v -2.9757001 0.7499998 0
v -2.834 -1.928324E-07 0
v -2.6923 -0.7500002 0
v -2.834 0.7499998 0
v -2.6923 -1.928324E-07 0
v -2.5506 -0.7500002 0
v -2.6923 0.7499998 0
v -2.5506 -1.928324E-07 0
v -2.4089 -0.7500002 0
v -2.5506 0.7499998 0
v -2.4089 -1.928324E-07 0
v -2.2672 -0.7500002 0
v -2.4089 0.7499998 0
v -2.2672 -1.928324E-07 0
v -2.1255002 -0.7500002 0
v -2.2672 0.7499998 0
v -2.1255002 -1.928324E-07 0
v -1.9838 -0.7500002 0
v -2.1255002 0.7499998 0
v -1.9838 -1.928324E-07 0
v -1.8420999 -0.7500002 0
v -1.9838 0.7499998 0
v -1.8420999 -1.928324E-07 0
v -1.7004001 -0.7500002 0
v -1.8420999 0.7499998 0
v -1.7004001 -1.928324E-07 0
v -1.5587 -0.7500002 0
v -1.7004001 0.7499998 0
v -1.5587 -1.928324E-07 0
v -1.4170002 -0.7500002 0
v -1.5587 0.7499998 0
v -1.4170002 -1.928324E-07 0
v -1.2753 -0.7500002 0
v -1.4170002 0.7499998 0
v -1.2753 -1.928324E-07 0
v -1.1336 -0.7500002 0
v -1.2753 0.7499998 0
v -1.1336 -1.928324E-07 0
v -0.9919001 -0.7500002 0
v -1.1336 0.7499998 0
v -0.9919001 -1.928324E-07 0
v -0.85020006 -0.7500002 0
v -0.9919001 0.7499998 0
v -0.85020006 -1.928324E-07 0
v -0.70850015 -0.7500002 0
v -0.85020006 0.7499998 0
v -0.70850015 -1.928324E-07 0
v -0.5668001 -0.7500002 0
v -0.70850015 0.7499998 0
v -0.5668001 -1.928324E-07 0
v -0.42510003 -0.7500002 0
v -0.5668001 0.7499998 0
v -0.42510003 -1.928324E-07 0
v -0.28340015 -0.7500002 0
v -0.42510003 0.7499998 0
v -0.28340015 -1.928324E-07 0
v -0.14170007 -0.7500002 0
v -0.28340015 0.7499998 0
v -0.14170007 -1.928324E-07 0
v -0 -0.7500002 0
v -0.14170007 0.7499998 0
v -0 -1.928324E-07 0
v 0.14169987 -0.7500002 0
v -0 0.7499998 0
v 0.14169987 -1.928324E-07 0
v 0.28339973 -0.7500002 0
v 0.14169987 0.7499998 0
v 0.28339973 -1.928324E-07 0
v 0.42510003 -0.7500002 0
v 0.28339973 0.7499998 0
v 0.42510003 -1.928324E-07 0
v 0.5667999 -0.7500002 0
v 0.42510003 0.7499998 0
v 0.5667999 -1.928324E-07 0
v 0.7084997 -0.7500002 0
v 0.5667999 0.7499998 0
v 0.7084997 -1.928324E-07 0
v 0.85020006 -0.7500002 0
v 0.7084997 0.7499998 0
v 0.85020006 -1.928324E-07 0
v 0.9918999 -0.7500002 0
v 0.85020006 0.7499998 0
v 0.9918999 -1.928324E-07 0
v 1.1335998 -0.7500002 0
v 0.9918999 0.7499998 0
v 1.1335998 -1.928324E-07 0
v 1.2753 -0.7500002 0
v 1.1335998 0.7499998 0
v 1.2753 -1.928324E-07 0
v 1.4169999 -0.7500002 0
v 1.2753 0.7499998 0
v 1.4169999 -1.928324E-07 0
v 1.5586998 -0.7500002 0
v 1.4169999 0.7499998 0
v 1.5586998 -1.928324E-07 0
v 1.7004001 -0.7500002 0
v 1.5586998 0.7499998 0
v 1.7004001 -1.928324E-07 0
v 1.8420999 -0.7500002 0
v 1.7004001 0.7499998 0
v 1.8420999 -1.928324E-07 0
v 1.9837998 -0.7500002 0
v 1.8420999 0.7499998 0
v 1.9837998 -1.928324E-07 0
v 2.1254997 -0.7500002 0
v 1.9837998 0.7499998 0
v 2.1254997 -1.928324E-07 0
v 2.2672 -0.7500002 0
v 2.1254997 0.7499998 0
v 2.2672 -1.928324E-07 0
v 2.4088998 -0.7500002 0
v 2.2672 0.7499998 0
v 2.4088998 -1.928324E-07 0
v 2.5505996 -0.7500002 0
v 2.4088998 0.7499998 0
v 2.5505996 -1.928324E-07 0
v 2.6923 -0.7500002 0
v 2.5505996 0.7499998 0
v 2.6923 -1.928324E-07 0
v 2.8339999 -0.7500002 0
v 2.6923 0.7499998 0
v 2.8339999 -1.928324E-07 0
v 2.9756997 -0.7500002 0
v 2.8339999 0.7499998 0
v 2.9756997 -1.928324E-07 0
v 3.1174 -0.7500002 0
v 2.9756997 0.7499998 0
v 3.1174 -1.928324E-07 0
v 3.2591 -0.7500002 0
v 3.1174 0.7499998 0
v 3.2591 -1.928324E-07 0
v 3.4007998 -0.7500002 0
v 3.2591 0.7499998 0
v 3.4007998 -1.928324E-07 0
v 3.5425 -0.7500002 0
v 3.4007998 0.7499998 0
v 3.5425 -1.928324E-07 0
v 3.5425 0.7499998 0
vt 0 0
vt 0 0.5
vt 0.02 0
vt 0.02 0.5
vt 0 1
vt 0.04 0
vt 0.02 1
vt 0.04 0.5
vt 0.06 0
vt 0.04 1
vt 0.06 0.5
vt 0.08 0
vt 0.06 1
vt 0.08 0.5
vt 0.099999994 0
vt 0.08 1
vt 0.099999994 0.5
vt 0.12 0
vt 0.099999994 1
vt 0.12 0.5
vt 0.14 0
vt 0.12 1
vt 0.14 0.5
vt 0.16 0
vt 0.14 1
vt 0.16 0.5
vt 0.17999999 0
vt 0.16 1
vt 0.17999999 0.5
vt 0.19999999 0
vt 0.17999999 1
vt 0.19999999 0.5
vt 0.22 0
vt 0.19999999 1
vt 0.22 0.5
vt 0.24 0
vt 0.22 1
vt 0.24 0.5
vt 0.26 0
vt 0.24 1
vt 0.26 0.5
vt 0.28 0
vt 0.26 1
vt 0.28 0.5
vt 0.29999998 0
vt 0.28 1
vt 0.29999998 0.5
vt 0.32 0
vt 0.29999998 1
vt 0.32 0.5
vt 0.34 0
vt 0.32 1
vt 0.34 0.5
vt 0.35999998 0
vt 0.34 1
vt 0.35999998 0.5
vt 0.38 0
vt 0.35999998 1
vt 0.38 0.5
vt 0.39999998 0
vt 0.38 1
vt 0.39999998 0.5
vt 0.42 0
vt 0.39999998 1
vt 0.42 0.5
vt 0.44 0
vt 0.42 1
vt 0.44 0.5
vt 0.45999998 0
vt 0.44 1
vt 0.45999998 0.5
vt 0.48 0
vt 0.45999998 1
vt 0.48 0.5
vt 0.5 0
vt 0.48 1
vt 0.5 0.5
vt 0.52 0
vt 0.5 1
vt 0.52 0.5
vt 0.53999996 0
vt 0.52 1
vt 0.53999996 0.5
vt 0.56 0
vt 0.53999996 1
vt 0.56 0.5
vt 0.58 0
vt 0.56 1
vt 0.58 0.5
vt 0.59999996 0
vt 0.58 1
vt 0.59999996 0.5
vt 0.62 0
vt 0.59999996 1
vt 0.62 0.5
vt 0.64 0
vt 0.62 1
vt 0.64 0.5
vt 0.65999997 0
vt 0.64 1
vt 0.65999997 0.5
vt 0.68 0
vt 0.65999997 1
vt 0.68 0.5
vt 0.7 0
vt 0.68 1
vt 0.7 0.5
vt 0.71999997 0
vt 0.7 1
vt 0.71999997 0.5
vt 0.74 0
vt 0.71999997 1
vt 0.74 0.5
vt 0.76 0
vt 0.74 1
vt 0.76 0.5
vt 0.78 0
vt 0.76 1
vt 0.78 0.5
vt 0.79999995 0
vt 0.78 1
vt 0.79999995 0.5
vt 0.82 0
vt 0.79999995 1
vt 0.82 0.5
vt 0.84 0
vt 0.82 1
vt 0.84 0.5
vt 0.85999995 0
vt 0.84 1
vt 0.85999995 0.5
vt 0.88 0
vt 0.85999995 1
vt 0.88 0.5
vt 0.9 0
vt 0.88 1
vt 0.9 0.5
vt 0.91999996 0
vt 0.9 1
vt 0.91999996 0.5
vt 0.94 0
vt 0.91999996 1
vt 0.94 0.5
vt 0.96 0
vt 0.94 1
vt 0.96 0.5
vt 0.97999996 0
vt 0.96 1
vt 0.97999996 0.5
vt 1 0
vt 0.97999996 1
vt 1 0.5
vt 1 1
vn -0 0 1
vn -0 0 1
vn -0 0 1
vn -0 0 1
vn -0 0 1
vn -0 0 1
vn -0 0 1
vn -0 0 1
vn -0 0 1
vn -0 0 1
vn -0 0 1
vn -0 0 1
vn -0 0 1
vn -0 0 1
vn -0 0 1
vn -0 0 1
vn -0 0 1
vn -0 0 1
vn -0 0 1
vn -0 0 1
vn -0 0 1
vn -0 0 1
vn -0 0 1
vn -0 0 1
vn -0 0 1
vn -0 0 1
vn -0 0 1
vn -0 0 1
vn -0 0 1
vn -0 0 1
vn -0 0 1
vn -0 0 1
vn -0 0 1
vn -0 0 1
vn -0 0 1
vn -0 0 1
vn -0 0 1
vn -0 0 1
vn -0 0 1
vn -0 0 1
vn -0 0 1
vn -0 0 1
vn -0 0 1
vn -0 0 1
vn -0 0 1
vn -0 0 1
vn -0 0 1
vn -0 0 1
vn -0 0 1
vn -0 0 1
vn -0 0 1
vn -0 0 1
vn -0 0 1
vn -0 0 1
vn -0 0 1
vn -0 0 1
vn -0 0 1
vn -0 0 1
vn -0 0 1
vn -0 0 1
vn -0 0 1
vn -0 0 1
vn -0 0 1
vn -0 0 1
vn -0 0 1
vn -0 0 1
vn -0 0 1
vn -0 0 1
vn -0 0 1
vn -0 0 1
vn -0 0 1
vn -0 0 1
vn -0 0 1
vn -0 0 1
vn -0 0 1
vn -0 0 1
vn -0 0 1
vn -0 0 1
vn -0 0 1
vn -0 0 1
vn -0 0 1
vn -0 0 1
vn -0 0 1
vn -0 0 1
vn -0 0 1
vn -0 0 1
vn -0 0 1
vn -0 0 1
vn -0 0 1
vn -0 0 1
vn -0 0 1
vn -0 0 1
vn -0 0 1
vn -0 0 1
vn -0 0 1
vn -0 0 1
vn -0 0 1
vn -0 0 1
vn -0 0 1
vn -0 0 1
vn -0 0 1
vn -0 0 1
vn -0 0 1
vn -0 0 1
vn -0 0 1
vn -0 0 1
vn -0 0 1
vn -0 0 1
vn -0 0 1
vn -0 0 1
vn -0 0 1
vn -0 0 1
vn -0 0 1
vn -0 0 1
vn -0 0 1
vn -0 0 1
vn -0 0 1
vn -0 0 1
vn -0 0 1
vn -0 0 1
vn -0 0 1
vn -0 0 1
vn -0 0 1
vn -0 0 1
vn -0 0 1
vn -0 0 1
vn -0 0 1
vn -0 0 1
vn -0 0 1
vn -0 0 1
vn -0 0 1
vn -0 0 1
vn -0 0 1
vn -0 0 1
vn -0 0 1
vn -0 0 1
vn -0 0 1
vn -0 0 1
vn -0 0 1
vn -0 0 1
vn -0 0 1
vn -0 0 1
vn -0 0 1
vn -0 0 1
vn -0 0 1
vn -0 0 1
vn -0 0 1
vn -0 0 1
vn -0 0 1
vn -0 0 1
vn -0 0 1
vn -0 0 1
vn -0 0 1
g Md_UNQ_CuttingLine_00_0
f 3/3/3 2/2/2 1/1/1
f 3/3/3 4/4/4 2/2/2
f 4/4/4 5/5/5 2/2/2
f 6/6/6 4/4/4 3/3/3
f 4/4/4 7/7/7 5/5/5
f 6/6/6 8/8/8 4/4/4
f 8/8/8 7/7/7 4/4/4
f 9/9/9 8/8/8 6/6/6
f 8/8/8 10/10/10 7/7/7
f 9/9/9 11/11/11 8/8/8
f 11/11/11 10/10/10 8/8/8
f 12/12/12 11/11/11 9/9/9
f 11/11/11 13/13/13 10/10/10
f 12/12/12 14/14/14 11/11/11
f 14/14/14 13/13/13 11/11/11
f 15/15/15 14/14/14 12/12/12
f 14/14/14 16/16/16 13/13/13
f 15/15/15 17/17/17 14/14/14
f 17/17/17 16/16/16 14/14/14
f 18/18/18 17/17/17 15/15/15
f 17/17/17 19/19/19 16/16/16
f 18/18/18 20/20/20 17/17/17
f 20/20/20 19/19/19 17/17/17
f 21/21/21 20/20/20 18/18/18
f 20/20/20 22/22/22 19/19/19
f 21/21/21 23/23/23 20/20/20
f 23/23/23 22/22/22 20/20/20
f 24/24/24 23/23/23 21/21/21
f 23/23/23 25/25/25 22/22/22
f 24/24/24 26/26/26 23/23/23
f 26/26/26 25/25/25 23/23/23
f 27/27/27 26/26/26 24/24/24
f 26/26/26 28/28/28 25/25/25
f 27/27/27 29/29/29 26/26/26
f 29/29/29 28/28/28 26/26/26
f 30/30/30 29/29/29 27/27/27
f 29/29/29 31/31/31 28/28/28
f 30/30/30 32/32/32 29/29/29
f 32/32/32 31/31/31 29/29/29
f 33/33/33 32/32/32 30/30/30
f 32/32/32 34/34/34 31/31/31
f 33/33/33 35/35/35 32/32/32
f 35/35/35 34/34/34 32/32/32
f 36/36/36 35/35/35 33/33/33
f 35/35/35 37/37/37 34/34/34
f 36/36/36 38/38/38 35/35/35
f 38/38/38 37/37/37 35/35/35
f 39/39/39 38/38/38 36/36/36
f 38/38/38 40/40/40 37/37/37
f 39/39/39 41/41/41 38/38/38
f 41/41/41 40/40/40 38/38/38
f 42/42/42 41/41/41 39/39/39
f 41/41/41 43/43/43 40/40/40
f 42/42/42 44/44/44 41/41/41
f 44/44/44 43/43/43 41/41/41
f 45/45/45 44/44/44 42/42/42
f 44/44/44 46/46/46 43/43/43
f 45/45/45 47/47/47 44/44/44
f 47/47/47 46/46/46 44/44/44
f 48/48/48 47/47/47 45/45/45
f 47/47/47 49/49/49 46/46/46
f 48/48/48 50/50/50 47/47/47
f 50/50/50 49/49/49 47/47/47
f 51/51/51 50/50/50 48/48/48
f 50/50/50 52/52/52 49/49/49
f 51/51/51 53/53/53 50/50/50
f 53/53/53 52/52/52 50/50/50
f 54/54/54 53/53/53 51/51/51
f 53/53/53 55/55/55 52/52/52
f 54/54/54 56/56/56 53/53/53
f 56/56/56 55/55/55 53/53/53
f 57/57/57 56/56/56 54/54/54
f 56/56/56 58/58/58 55/55/55
f 57/57/57 59/59/59 56/56/56
f 59/59/59 58/58/58 56/56/56
f 60/60/60 59/59/59 57/57/57
f 59/59/59 61/61/61 58/58/58
f 60/60/60 62/62/62 59/59/59
f 62/62/62 61/61/61 59/59/59
f 63/63/63 62/62/62 60/60/60
f 62/62/62 64/64/64 61/61/61
f 63/63/63 65/65/65 62/62/62
f 65/65/65 64/64/64 62/62/62
f 66/66/66 65/65/65 63/63/63
f 65/65/65 67/67/67 64/64/64
f 66/66/66 68/68/68 65/65/65
f 68/68/68 67/67/67 65/65/65
f 69/69/69 68/68/68 66/66/66
f 68/68/68 70/70/70 67/67/67
f 69/69/69 71/71/71 68/68/68
f 71/71/71 70/70/70 68/68/68
f 72/72/72 71/71/71 69/69/69
f 71/71/71 73/73/73 70/70/70
f 72/72/72 74/74/74 71/71/71
f 74/74/74 73/73/73 71/71/71
f 75/75/75 74/74/74 72/72/72
f 74/74/74 76/76/76 73/73/73
f 75/75/75 77/77/77 74/74/74
f 77/77/77 76/76/76 74/74/74
f 78/78/78 77/77/77 75/75/75
f 77/77/77 79/79/79 76/76/76
f 78/78/78 80/80/80 77/77/77
f 80/80/80 79/79/79 77/77/77
f 81/81/81 80/80/80 78/78/78
f 80/80/80 82/82/82 79/79/79
f 81/81/81 83/83/83 80/80/80
f 83/83/83 82/82/82 80/80/80
f 84/84/84 83/83/83 81/81/81
f 83/83/83 85/85/85 82/82/82
f 84/84/84 86/86/86 83/83/83
f 86/86/86 85/85/85 83/83/83
f 87/87/87 86/86/86 84/84/84
f 86/86/86 88/88/88 85/85/85
f 87/87/87 89/89/89 86/86/86
f 89/89/89 88/88/88 86/86/86
f 90/90/90 89/89/89 87/87/87
f 89/89/89 91/91/91 88/88/88
f 90/90/90 92/92/92 89/89/89
f 92/92/92 91/91/91 89/89/89
f 93/93/93 92/92/92 90/90/90
f 92/92/92 94/94/94 91/91/91
f 93/93/93 95/95/95 92/92/92
f 95/95/95 94/94/94 92/92/92
f 96/96/96 95/95/95 93/93/93
f 95/95/95 97/97/97 94/94/94
f 96/96/96 98/98/98 95/95/95
f 98/98/98 97/97/97 95/95/95
f 99/99/99 98/98/98 96/96/96
f 98/98/98 100/100/100 97/97/97
f 99/99/99 101/101/101 98/98/98
f 101/101/101 100/100/100 98/98/98
f 102/102/102 101/101/101 99/99/99
f 101/101/101 103/103/103 100/100/100
f 102/102/102 104/104/104 101/101/101
f 104/104/104 103/103/103 101/101/101
f 105/105/105 104/104/104 102/102/102
f 104/104/104 106/106/106 103/103/103
f 105/105/105 107/107/107 104/104/104
f 107/107/107 106/106/106 104/104/104
f 108/108/108 107/107/107 105/105/105
f 107/107/107 109/109/109 106/106/106
f 108/108/108 110/110/110 107/107/107
f 110/110/110 109/109/109 107/107/107
f 111/111/111 110/110/110 108/108/108
f 110/110/110 112/112/112 109/109/109
f 111/111/111 113/113/113 110/110/110
f 113/113/113 112/112/112 110/110/110
f 114/114/114 113/113/113 111/111/111
f 113/113/113 115/115/115 112/112/112
f 114/114/114 116/116/116 113/113/113
f 116/116/116 115/115/115 113/113/113
f 117/117/117 116/116/116 114/114/114
f 116/116/116 118/118/118 115/115/115
f 117/117/117 119/119/119 116/116/116
f 119/119/119 118/118/118 116/116/116
f 120/120/120 119/119/119 117/117/117
f 119/119/119 121/121/121 118/118/118
f 120/120/120 122/122/122 119/119/119
f 122/122/122 121/121/121 119/119/119
f 123/123/123 122/122/122 120/120/120
f 122/122/122 124/124/124 121/121/121
f 123/123/123 125/125/125 122/122/122
f 125/125/125 124/124/124 122/122/122
f 126/126/126 125/125/125 123/123/123
f 125/125/125 127/127/127 124/124/124
f 126/126/126 128/128/128 125/125/125
f 128/128/128 127/127/127 125/125/125
f 129/129/129 128/128/128 126/126/126
f 128/128/128 130/130/130 127/127/127
f 129/129/129 131/131/131 128/128/128
f 131/131/131 130/130/130 128/128/128
f 132/132/132 131/131/131 129/129/129
f 131/131/131 133/133/133 130/130/130
f 132/132/132 134/134/134 131/131/131
f 134/134/134 133/133/133 131/131/131
f 135/135/135 134/134/134 132/132/132
f 134/134/134 136/136/136 133/133/133
f 135/135/135 137/137/137 134/134/134
f 137/137/137 136/136/136 134/134/134
f 138/138/138 137/137/137 135/135/135
f 137/137/137 139/139/139 136/136/136
f 138/138/138 140/140/140 137/137/137
f 140/140/140 139/139/139 137/137/137
f 141/141/141 140/140/140 138/138/138
f 140/140/140 142/142/142 139/139/139
f 141/141/141 143/143/143 140/140/140
f 143/143/143 142/142/142 140/140/140
f 144/144/144 143/143/143 141/141/141
f 143/143/143 145/145/145 142/142/142
f 144/144/144 146/146/146 143/143/143
f 146/146/146 145/145/145 143/143/143
f 147/147/147 146/146/146 144/144/144
f 146/146/146 148/148/148 145/145/145
f 147/147/147 149/149/149 146/146/146
f 149/149/149 148/148/148 146/146/146
f 150/150/150 149/149/149 147/147/147
f 149/149/149 151/151/151 148/148/148
f 150/150/150 152/152/152 149/149/149
f 152/152/152 151/151/151 149/149/149
f 152/152/152 153/153/153 151/151/151
