g OutCircle
v -1.0886394 0.107221305 0
v -1.0097929 8.700546E-08 -9.159298E-09
v -1.0939069 9.563238E-08 0
v -1.0049304 0.09897671 -2.7343145E-07
v -1.0728878 0.21341063 0
v -0.9903899 0.1970008 -9.159298E-09
v -1.0468036 0.31754467 0
v -0.96631134 0.2931276 -9.159298E-09
v -1.0106382 0.41861963 0
v -0.9329269 0.3864306 -9.159298E-09
v -0.96473974 0.515664 0
v -0.89055777 0.47601292 -9.159298E-09
v -0.9095502 0.60774225 0
v -0.8396118 0.56101096 -2.7343145E-07
v -0.84560144 0.6939671 0
v -0.78058034 0.64060575 -2.7343145E-07
v -0.77350914 0.7735088 0
v -0.7140315 0.7140312 -9.159298E-09
v -0.69396716 0.8456015 0
v -0.6406057 0.7805805 -9.159298E-09
v -0.60774225 0.9095502 0
v -0.5610109 0.8396119 -9.159298E-09
v -0.5156646 0.96473956 0
v -0.47601345 0.89055765 -9.159298E-09
v -0.41862014 1.0106381 0
v -0.38643107 0.93292695 -9.159298E-09
v -0.31754416 1.0468036 0
v -0.29312718 0.9663115 -2.7343145E-07
v -0.21341065 1.0728878 0
v -0.1970008 0.99038994 -9.159298E-09
v -0.10722187 1.0886394 0
v -0.098977216 1.0049303 -9.159298E-09
v 9.78029E-08 1.0939069 0
v 1.0108753E-07 1.0097929 -9.159298E-09
v 0.107221514 1.0886394 0
v 0.098976925 1.0049303 -2.7343145E-07
v 0.21341035 1.0728879 0
v 0.19700055 0.99039006 -9.159298E-09
v 0.31754437 1.0468036 0
v 0.29312733 0.9663115 -9.159298E-09
v 0.41862023 1.010638 0
v 0.3864312 0.9329267 -2.7343145E-07
v 0.5156641 0.96473974 0
v 0.47601297 0.8905578 -9.159298E-09
v 0.607742 0.9095504 0
v 0.56101084 0.8396122 -9.159298E-09
v 0.6939672 0.8456014 0
v 0.6406059 0.78058034 -9.159298E-09
v 0.7735089 0.773509 0
v 0.71403134 0.71403146 -9.159298E-09
v 0.84560144 0.69396716 0
v 0.7805805 0.64060575 -2.7343145E-07
v 0.90955037 0.60774213 0
v 0.8396122 0.5610109 -9.159298E-09
v 0.96473974 0.5156641 0
v 0.8905579 0.47601297 -9.159298E-09
v 1.0106382 0.41861996 0
v 0.932927 0.3864309 -9.159298E-09
v 1.0468036 0.31754452 0
v 0.96631145 0.29312748 -9.159298E-09
v 1.0728878 0.21341074 0
v 0.99039 0.1970009 -9.159298E-09
v 1.0886394 0.10722166 0
v 1.0049305 0.098977044 -2.7343145E-07
v 1.0939069 0 0
v 1.009793 -1.2734317E-09 -9.159298E-09
v 1.0886394 -0.10722114 0
v 1.0049305 -0.09897657 -2.7343145E-07
v 1.0728878 -0.21341047 0
v 0.99039 -0.19700062 -2.7343145E-07
v 1.0468036 -0.31754452 0
v 0.96631145 -0.29312754 -9.159298E-09
v 1.010638 -0.41862047 0
v 0.9329268 -0.3864314 -9.159298E-09
v 0.96473986 -0.51566386 0
v 0.89055794 -0.4760128 -2.7343145E-07
v 0.90955037 -0.60774213 0
v 0.8396122 -0.5610109 -9.159298E-09
v 0.84560114 -0.69396734 0
v 0.7805802 -0.640606 -2.7343145E-07
v 0.77350926 -0.7735087 0
v 0.71403176 -0.7140311 -9.159298E-09
v 0.6939672 -0.8456014 0
v 0.6406059 -0.78058034 -9.159298E-09
v 0.607742 -0.9095504 0
v 0.56101084 -0.8396122 -9.159298E-09
v 0.5156637 -0.96474 0
v 0.4760126 -0.890558 -9.159298E-09
v 0.41862023 -1.010638 0
v 0.3864312 -0.9329267 -2.7343145E-07
v 0.31754437 -1.0468036 0
v 0.29312733 -0.9663115 -9.159298E-09
v 0.21341035 -1.0728879 0
v 0.19700055 -0.99039006 -9.159298E-09
v 0.107222036 -1.0886394 0
v 0.098977394 -1.0049303 -2.7343145E-07
v 9.78029E-08 -1.0939069 0
v 1.0108753E-07 -1.0097929 -9.159298E-09
v -0.10722187 -1.0886394 0
v -0.098977216 -1.0049303 -9.159298E-09
v -0.21341114 -1.0728877 0
v -0.19700126 -0.99038994 -9.159298E-09
v -0.31754416 -1.0468036 0
v -0.29312718 -0.9663115 -2.7343145E-07
v -0.41862014 -1.0106381 0
v -0.38643107 -0.93292695 -9.159298E-09
v -0.5156646 -0.96473956 0
v -0.47601345 -0.89055765 -9.159298E-09
v -0.6077418 -0.9095505 0
v -0.56101054 -0.83961225 -2.7343145E-07
v -0.69396716 -0.8456015 0
v -0.6406057 -0.7805805 -9.159298E-09
v -0.77350914 -0.7735088 0
v -0.7140315 -0.7140312 -9.159298E-09
v -0.84560144 -0.6939671 0
v -0.78058034 -0.64060575 -2.7343145E-07
v -0.9095502 -0.60774225 0
v -0.8396118 -0.56101096 -2.7343145E-07
v -0.96473974 -0.515664 0
v -0.89055777 -0.47601297 -9.159298E-09
v -1.0106382 -0.41861963 0
v -0.9329269 -0.38643065 -9.159298E-09
v -1.0468036 -0.31754467 0
v -0.96631134 -0.29312766 -9.159298E-09
v -1.0728878 -0.21341063 0
v -0.9903899 -0.19700077 -9.159298E-09
v -1.0886394 -0.107221305 0
v -1.0049304 -0.09897671 -2.7343145E-07
v -1.0939069 9.563238E-08 0
v -1.0097929 8.700546E-08 -9.159298E-09
vt 0.984375 2.9802322E-08
vt 1 1
vt 1 2.9802322E-08
vt 0.984375 1
vt 0.96875 0
vt 0.96875 1
vt 0.95312494 0
vt 0.95312494 1
vt 0.93750006 0
vt 0.9375 1
vt 0.921875 0
vt 0.921875 1
vt 0.90625 0
vt 0.90624994 0.99999994
vt 0.890625 0
vt 0.890625 0.99999994
vt 0.875 0
vt 0.875 1
vt 0.859375 0
vt 0.859375 1
vt 0.84375006 0
vt 0.84375 1
vt 0.82812506 0
vt 0.82812506 1
vt 0.8125 -5.9604645E-08
vt 0.8125 1
vt 0.796875 -5.9604645E-08
vt 0.79687494 0.9999999
vt 0.78125 -5.9604645E-08
vt 0.78125 1
vt 0.765625 -5.9604645E-08
vt 0.765625 1
vt 0.75 -5.9604645E-08
vt 0.74999994 1
vt 0.734375 -5.9604645E-08
vt 0.734375 0.9999999
vt 0.71875006 -5.9604645E-08
vt 0.71875 0.99999994
vt 0.703125 -5.9604645E-08
vt 0.703125 0.99999994
vt 0.68749994 -5.9604645E-08
vt 0.68749994 0.9999998
vt 0.671875 -5.9604645E-08
vt 0.671875 0.99999994
vt 0.65625 -5.9604645E-08
vt 0.65625 0.99999994
vt 0.640625 -5.9604645E-08
vt 0.640625 0.99999994
vt 0.625 -5.9604645E-08
vt 0.625 0.99999994
vt 0.609375 -5.9604645E-08
vt 0.609375 0.9999999
vt 0.59375 -5.9604645E-08
vt 0.59375 1
vt 0.578125 -5.9604645E-08
vt 0.578125 1
vt 0.5625 -5.9604645E-08
vt 0.5625 1
vt 0.546875 -5.9604645E-08
vt 0.546875 1
vt 0.53125 -5.9604645E-08
vt 0.53125 1
vt 0.515625 0
vt 0.515625 0.9999999
vt 0.5 0
vt 0.5 1
vt 0.48437506 0
vt 0.4843751 0.9999999
vt 0.46875 0
vt 0.46875003 0.99999994
vt 0.45312497 0
vt 0.453125 1
vt 0.4374999 0
vt 0.43749994 1
vt 0.42187503 0
vt 0.42187506 0.99999994
vt 0.40625 0
vt 0.40625003 1
vt 0.39062494 0
vt 0.39062497 0.99999994
vt 0.37500006 2.9802322E-08
vt 0.37500006 1
vt 0.359375 2.9802322E-08
vt 0.35937503 1
vt 0.34374997 2.9802322E-08
vt 0.34375 1
vt 0.3281249 2.9802322E-08
vt 0.32812494 1
vt 0.31250003 2.9802322E-08
vt 0.31250006 0.9999999
vt 0.296875 2.9802322E-08
vt 0.296875 1
vt 0.28124994 2.9802322E-08
vt 0.28124997 1
vt 0.26562506 2.9802322E-08
vt 0.26562506 1
vt 0.25 2.9802322E-08
vt 0.25000006 1
vt 0.23437497 5.9604645E-08
vt 0.23437497 1
vt 0.21874994 5.9604645E-08
vt 0.21874994 1
vt 0.20312503 5.9604645E-08
vt 0.20312503 1
vt 0.1875 5.9604645E-08
vt 0.1875 1
vt 0.17187494 5.9604645E-08
vt 0.17187494 1
vt 0.15625006 5.9604645E-08
vt 0.15625006 1
vt 0.14062503 5.9604645E-08
vt 0.14062503 1
vt 0.12499997 5.9604645E-08
vt 0.12499997 1
vt 0.109375 2.9802322E-08
vt 0.109375 1
vt 0.09375003 2.9802322E-08
vt 0.09375003 1
vt 0.078125 2.9802322E-08
vt 0.078125 1
vt 0.06249994 2.9802322E-08
vt 0.06249994 1
vt 0.04687506 2.9802322E-08
vt 0.04687506 1
vt 0.03125 2.9802322E-08
vt 0.03125 1
vt 0.01562497 2.9802322E-08
vt 0.01562497 1
vt 0 2.9802322E-08
vt 0 1
vn -0 0 1
vn -0 0 1
vn -0 0 1
vn -0 0 1
vn -0 0 1
vn -0 0 1
vn -0 0 1
vn -0 0 1
vn -0 0 1
vn -0 0 1
vn -0 0 1
vn -0 0 1
vn -0 0 1
vn -0 0 1
vn -0 0 1
vn -0 0 1
vn -0 0 1
vn -0 0 1
vn -0 0 1
vn -0 0 1
vn -0 0 1
vn -0 0 1
vn -0 0 1
vn -0 0 1
vn -0 0 1
vn -0 0 1
vn -0 0 1
vn -0 0 1
vn -0 0 1
vn -0 0 1
vn -0 0 1
vn -0 0 1
vn -0 0 1
vn -0 0 1
vn -0 0 1
vn -0 0 1
vn -0 0 1
vn -0 0 1
vn -0 0 1
vn -0 0 1
vn -0 0 1
vn -0 0 1
vn -0 0 1
vn -0 0 1
vn -0 0 1
vn -0 0 1
vn -0 0 1
vn -0 0 1
vn -0 0 1
vn -0 0 1
vn -0 0 1
vn -0 0 1
vn -0 0 1
vn -0 0 1
vn -0 0 1
vn -0 0 1
vn -0 0 1
vn -0 0 1
vn -0 0 1
vn -0 0 1
vn -0 0 1
vn -0 0 1
vn -0 0 1
vn -0 0 1
vn -0 0 1
vn -0 0 1
vn -0 0 1
vn -0 0 1
vn -0 0 1
vn -0 0 1
vn -0 0 1
vn -0 0 1
vn -0 0 1
vn -0 0 1
vn -0 0 1
vn -0 0 1
vn -0 0 1
vn -0 0 1
vn -0 0 1
vn -0 0 1
vn -0 0 1
vn -0 0 1
vn -0 0 1
vn -0 0 1
vn -0 0 1
vn -0 0 1
vn -0 0 1
vn -0 0 1
vn -0 0 1
vn -0 0 1
vn -0 0 1
vn -0 0 1
vn -0 0 1
vn -0 0 1
vn -0 0 1
vn -0 0 1
vn -0 0 1
vn -0 0 1
vn -0 0 1
vn -0 0 1
vn -0 0 1
vn -0 0 1
vn -0 0 1
vn -0 0 1
vn -0 0 1
vn -0 0 1
vn -0 0 1
vn -0 0 1
vn -0 0 1
vn -0 0 1
vn -0 0 1
vn -0 0 1
vn -0 0 1
vn -0 0 1
vn -0 0 1
vn -0 0 1
vn -0 0 1
vn -0 0 1
vn -0 0 1
vn -0 0 1
vn -0 0 1
vn -0 0 1
vn -0 0 1
vn -0 0 1
vn -0 0 1
vn -0 0 1
vn -0 0 1
vn -0 0 1
vn -0 0 1
vn -0 0 1
g OutCircle_0
f 3/3/3 2/2/2 1/1/1
f 2/2/2 4/4/4 1/1/1
f 1/1/1 4/4/4 5/5/5
f 4/4/4 6/6/6 5/5/5
f 5/5/5 6/6/6 7/7/7
f 6/6/6 8/8/8 7/7/7
f 7/7/7 8/8/8 9/9/9
f 8/8/8 10/10/10 9/9/9
f 9/9/9 10/10/10 11/11/11
f 10/10/10 12/12/12 11/11/11
f 11/11/11 12/12/12 13/13/13
f 12/12/12 14/14/14 13/13/13
f 13/13/13 14/14/14 15/15/15
f 14/14/14 16/16/16 15/15/15
f 15/15/15 16/16/16 17/17/17
f 16/16/16 18/18/18 17/17/17
f 17/17/17 18/18/18 19/19/19
f 18/18/18 20/20/20 19/19/19
f 19/19/19 20/20/20 21/21/21
f 20/20/20 22/22/22 21/21/21
f 21/21/21 22/22/22 23/23/23
f 22/22/22 24/24/24 23/23/23
f 23/23/23 24/24/24 25/25/25
f 24/24/24 26/26/26 25/25/25
f 25/25/25 26/26/26 27/27/27
f 26/26/26 28/28/28 27/27/27
f 27/27/27 28/28/28 29/29/29
f 28/28/28 30/30/30 29/29/29
f 29/29/29 30/30/30 31/31/31
f 30/30/30 32/32/32 31/31/31
f 31/31/31 32/32/32 33/33/33
f 32/32/32 34/34/34 33/33/33
f 33/33/33 34/34/34 35/35/35
f 34/34/34 36/36/36 35/35/35
f 35/35/35 36/36/36 37/37/37
f 36/36/36 38/38/38 37/37/37
f 37/37/37 38/38/38 39/39/39
f 38/38/38 40/40/40 39/39/39
f 39/39/39 40/40/40 41/41/41
f 40/40/40 42/42/42 41/41/41
f 41/41/41 42/42/42 43/43/43
f 42/42/42 44/44/44 43/43/43
f 43/43/43 44/44/44 45/45/45
f 44/44/44 46/46/46 45/45/45
f 45/45/45 46/46/46 47/47/47
f 46/46/46 48/48/48 47/47/47
f 47/47/47 48/48/48 49/49/49
f 48/48/48 50/50/50 49/49/49
f 49/49/49 50/50/50 51/51/51
f 50/50/50 52/52/52 51/51/51
f 51/51/51 52/52/52 53/53/53
f 52/52/52 54/54/54 53/53/53
f 53/53/53 54/54/54 55/55/55
f 54/54/54 56/56/56 55/55/55
f 55/55/55 56/56/56 57/57/57
f 56/56/56 58/58/58 57/57/57
f 57/57/57 58/58/58 59/59/59
f 58/58/58 60/60/60 59/59/59
f 59/59/59 60/60/60 61/61/61
f 60/60/60 62/62/62 61/61/61
f 61/61/61 62/62/62 63/63/63
f 62/62/62 64/64/64 63/63/63
f 63/63/63 64/64/64 65/65/65
f 64/64/64 66/66/66 65/65/65
f 65/65/65 66/66/66 67/67/67
f 66/66/66 68/68/68 67/67/67
f 67/67/67 68/68/68 69/69/69
f 68/68/68 70/70/70 69/69/69
f 69/69/69 70/70/70 71/71/71
f 70/70/70 72/72/72 71/71/71
f 71/71/71 72/72/72 73/73/73
f 72/72/72 74/74/74 73/73/73
f 73/73/73 74/74/74 75/75/75
f 74/74/74 76/76/76 75/75/75
f 75/75/75 76/76/76 77/77/77
f 76/76/76 78/78/78 77/77/77
f 77/77/77 78/78/78 79/79/79
f 78/78/78 80/80/80 79/79/79
f 79/79/79 80/80/80 81/81/81
f 80/80/80 82/82/82 81/81/81
f 81/81/81 82/82/82 83/83/83
f 82/82/82 84/84/84 83/83/83
f 83/83/83 84/84/84 85/85/85
f 84/84/84 86/86/86 85/85/85
f 85/85/85 86/86/86 87/87/87
f 86/86/86 88/88/88 87/87/87
f 87/87/87 88/88/88 89/89/89
f 88/88/88 90/90/90 89/89/89
f 89/89/89 90/90/90 91/91/91
f 90/90/90 92/92/92 91/91/91
f 91/91/91 92/92/92 93/93/93
f 92/92/92 94/94/94 93/93/93
f 93/93/93 94/94/94 95/95/95
f 94/94/94 96/96/96 95/95/95
f 95/95/95 96/96/96 97/97/97
f 96/96/96 98/98/98 97/97/97
f 97/97/97 98/98/98 99/99/99
f 98/98/98 100/100/100 99/99/99
f 99/99/99 100/100/100 101/101/101
f 100/100/100 102/102/102 101/101/101
f 101/101/101 102/102/102 103/103/103
f 102/102/102 104/104/104 103/103/103
f 103/103/103 104/104/104 105/105/105
f 104/104/104 106/106/106 105/105/105
f 105/105/105 106/106/106 107/107/107
f 106/106/106 108/108/108 107/107/107
f 107/107/107 108/108/108 109/109/109
f 108/108/108 110/110/110 109/109/109
f 109/109/109 110/110/110 111/111/111
f 110/110/110 112/112/112 111/111/111
f 111/111/111 112/112/112 113/113/113
f 112/112/112 114/114/114 113/113/113
f 113/113/113 114/114/114 115/115/115
f 114/114/114 116/116/116 115/115/115
f 115/115/115 116/116/116 117/117/117
f 116/116/116 118/118/118 117/117/117
f 117/117/117 118/118/118 119/119/119
f 118/118/118 120/120/120 119/119/119
f 119/119/119 120/120/120 121/121/121
f 120/120/120 122/122/122 121/121/121
f 121/121/121 122/122/122 123/123/123
f 122/122/122 124/124/124 123/123/123
f 123/123/123 124/124/124 125/125/125
f 124/124/124 126/126/126 125/125/125
f 125/125/125 126/126/126 127/127/127
f 126/126/126 128/128/128 127/127/127
f 127/127/127 128/128/128 129/129/129
f 128/128/128 130/130/130 129/129/129
