g OutCircleGlow
v -1.242585 0.12238357 0
v -0.8500392 6.814875E-08 -3.396109E-08
v -1.2485973 1.0915585E-07 0
v -0.84594595 0.08331815 -2.5642422E-07
v -1.2246058 0.24358924 0
v -0.8337058 0.1658344 -3.396109E-08
v -1.194833 0.36244896 0
v -0.81343657 0.24675351 -3.396109E-08
v -1.1535536 0.47781703 0
v -0.7853337 0.32529554 -3.396109E-08
v -1.1011645 0.58858454 0
v -0.7496676 0.40070555 -3.396109E-08
v -1.0381706 0.6936837 0
v -0.7067815 0.47225648 -2.5642422E-07
v -0.9651787 0.7921016 0
v -0.65708905 0.539259 -2.5642422E-07
v -0.88289183 0.8828914 0
v -0.60106856 0.6010683 -3.396109E-08
v -0.79210174 0.9651788 0
v -0.539259 0.65708923 -3.396109E-08
v -0.6936837 1.0381706 0
v -0.47225648 0.70678157 -3.396109E-08
v -0.5885852 1.1011643 0
v -0.40070602 0.74966747 -3.396109E-08
v -0.4778176 1.1535534 0
v -0.32529595 0.78533375 -3.396109E-08
v -0.3624484 1.194833 0
v -0.24675316 0.81343675 -2.5642422E-07
v -0.24358925 1.2246058 0
v -0.1658344 0.83370584 -3.396109E-08
v -0.12238422 1.242585 0
v -0.083318576 0.8459458 -3.396109E-08
v 1.116333E-07 1.2485973 0
v 8.5568715E-08 0.8500392 -3.396109E-08
v 0.12238381 1.242585 0
v 0.08331834 0.8459458 -2.5642422E-07
v 0.24358891 1.224606 0
v 0.16583419 0.83370596 -3.396109E-08
v 0.36244863 1.194833 0
v 0.24675328 0.81343675 -3.396109E-08
v 0.4778177 1.1535532 0
v 0.32529607 0.7853336 -2.5642422E-07
v 0.58858466 1.1011645 0
v 0.4007056 0.7496676 -3.396109E-08
v 0.6936834 1.0381708 0
v 0.47225642 0.7067818 -3.396109E-08
v 0.7921018 0.96517867 0
v 0.5392592 0.65708905 -3.396109E-08
v 0.88289154 0.88289165 0
v 0.60106844 0.6010685 -3.396109E-08
v 0.9651787 0.79210174 0
v 0.65708923 0.539259 -2.5642422E-07
v 1.0381707 0.6936835 0
v 0.7067818 0.47225645 -3.396109E-08
v 1.1011645 0.58858466 0
v 0.74966764 0.4007056 -3.396109E-08
v 1.1535536 0.47781742 0
v 0.7853338 0.32529578 -3.396109E-08
v 1.194833 0.36244878 0
v 0.81343675 0.24675341 -3.396109E-08
v 1.2246058 0.24358936 0
v 0.8337059 0.16583447 -3.396109E-08
v 1.242585 0.12238398 0
v 0.845946 0.083318435 -2.5642422E-07
v 1.2485973 0 0
v 0.8500393 -6.164027E-09 -3.396109E-08
v 1.242585 -0.122383386 0
v 0.845946 -0.08331804 -2.5642422E-07
v 1.2246058 -0.24358904 0
v 0.8337059 -0.16583425 -2.5642422E-07
v 1.194833 -0.36244878 0
v 0.81343675 -0.24675344 -3.396109E-08
v 1.1535532 -0.47781798 0
v 0.78533363 -0.32529622 -3.396109E-08
v 1.1011646 -0.58858436 0
v 0.7496677 -0.40070546 -2.5642422E-07
v 1.0381707 -0.6936835 0
v 0.7067818 -0.4722565 -3.396109E-08
v 0.9651784 -0.7921019 0
v 0.657089 -0.5392593 -2.5642422E-07
v 0.88289195 -0.88289136 0
v 0.6010688 -0.60106826 -3.396109E-08
v 0.7921018 -0.96517867 0
v 0.5392592 -0.65708905 -3.396109E-08
v 0.6936834 -1.0381708 0
v 0.47225642 -0.7067818 -3.396109E-08
v 0.5885842 -1.1011648 0
v 0.4007053 -0.74966776 -3.396109E-08
v 0.4778177 -1.1535532 0
v 0.32529607 -0.7853336 -2.5642422E-07
v 0.36244863 -1.194833 0
v 0.24675328 -0.81343675 -3.396109E-08
v 0.24358891 -1.224606 0
v 0.16583419 -0.83370596 -3.396109E-08
v 0.12238441 -1.242585 0
v 0.083318725 -0.8459458 -2.5642422E-07
v 1.116333E-07 -1.2485973 0
v 8.5568715E-08 -0.8500392 -3.396109E-08
v -0.12238422 -1.242585 0
v -0.083318576 -0.8459458 -3.396109E-08
v -0.2435898 -1.2246057 0
v -0.16583478 -0.83370584 -3.396109E-08
v -0.3624484 -1.194833 0
v -0.24675316 -0.81343675 -2.5642422E-07
v -0.4778176 -1.1535534 0
v -0.32529595 -0.78533375 -3.396109E-08
v -0.5885852 -1.1011643 0
v -0.40070602 -0.74966747 -3.396109E-08
v -0.6936831 -1.0381709 0
v -0.47225618 -0.70678186 -2.5642422E-07
v -0.79210174 -0.9651788 0
v -0.539259 -0.65708923 -3.396109E-08
v -0.88289183 -0.8828914 0
v -0.60106856 -0.6010683 -3.396109E-08
v -0.9651787 -0.7921016 0
v -0.65708905 -0.53925914 -2.5642422E-07
v -1.0381706 -0.6936837 0
v -0.7067815 -0.47225657 -2.5642422E-07
v -1.1011645 -0.58858454 0
v -0.7496676 -0.4007056 -3.396109E-08
v -1.1535536 -0.47781703 0
v -0.7853337 -0.32529563 -3.396109E-08
v -1.194833 -0.36244896 0
v -0.81343657 -0.24675354 -3.396109E-08
v -1.2246058 -0.24358924 0
v -0.8337058 -0.16583437 -3.396109E-08
v -1.242585 -0.12238357 0
v -0.84594595 -0.08331816 -2.5642422E-07
v -1.2485973 1.0915585E-07 0
v -0.8500392 6.814875E-08 -3.396109E-08
vt 0.984375 2.9802322E-08
vt 1 1
vt 1 2.9802322E-08
vt 0.984375 1
vt 0.96875 0
vt 0.96875 1
vt 0.95312494 0
vt 0.95312494 1
vt 0.93750006 0
vt 0.9375 1
vt 0.921875 0
vt 0.921875 1
vt 0.90625 0
vt 0.90624994 0.99999994
vt 0.890625 0
vt 0.890625 0.99999994
vt 0.875 0
vt 0.875 1
vt 0.859375 0
vt 0.859375 1
vt 0.84375006 0
vt 0.84375 1
vt 0.82812506 0
vt 0.82812506 1
vt 0.8125 -5.9604645E-08
vt 0.8125 1
vt 0.796875 -5.9604645E-08
vt 0.79687494 0.9999999
vt 0.78125 -5.9604645E-08
vt 0.78125 1
vt 0.765625 -5.9604645E-08
vt 0.765625 1
vt 0.75 -5.9604645E-08
vt 0.74999994 1
vt 0.734375 -5.9604645E-08
vt 0.734375 0.9999999
vt 0.71875006 -5.9604645E-08
vt 0.71875 0.99999994
vt 0.703125 -5.9604645E-08
vt 0.703125 0.99999994
vt 0.68749994 -5.9604645E-08
vt 0.68749994 0.9999998
vt 0.671875 -5.9604645E-08
vt 0.671875 0.99999994
vt 0.65625 -5.9604645E-08
vt 0.65625 0.99999994
vt 0.640625 -5.9604645E-08
vt 0.640625 0.99999994
vt 0.625 -5.9604645E-08
vt 0.625 0.99999994
vt 0.609375 -5.9604645E-08
vt 0.609375 0.9999999
vt 0.59375 -5.9604645E-08
vt 0.59375 1
vt 0.578125 -5.9604645E-08
vt 0.578125 1
vt 0.5625 -5.9604645E-08
vt 0.5625 1
vt 0.546875 -5.9604645E-08
vt 0.546875 1
vt 0.53125 -5.9604645E-08
vt 0.53125 1
vt 0.515625 0
vt 0.515625 0.9999999
vt 0.5 0
vt 0.5 1
vt 0.48437506 0
vt 0.4843751 0.9999999
vt 0.46875 0
vt 0.46875003 0.99999994
vt 0.45312497 0
vt 0.453125 1
vt 0.4374999 0
vt 0.43749994 1
vt 0.42187503 0
vt 0.42187506 0.99999994
vt 0.40625 0
vt 0.40625003 1
vt 0.39062494 0
vt 0.39062497 0.99999994
vt 0.37500006 2.9802322E-08
vt 0.37500006 1
vt 0.359375 2.9802322E-08
vt 0.35937503 1
vt 0.34374997 2.9802322E-08
vt 0.34375 1
vt 0.3281249 2.9802322E-08
vt 0.32812494 1
vt 0.31250003 2.9802322E-08
vt 0.31250006 0.9999999
vt 0.296875 2.9802322E-08
vt 0.296875 1
vt 0.28124994 2.9802322E-08
vt 0.28124997 1
vt 0.26562506 2.9802322E-08
vt 0.26562506 1
vt 0.25 2.9802322E-08
vt 0.25000006 1
vt 0.23437497 5.9604645E-08
vt 0.23437497 1
vt 0.21874994 5.9604645E-08
vt 0.21874994 1
vt 0.20312503 5.9604645E-08
vt 0.20312503 1
vt 0.1875 5.9604645E-08
vt 0.1875 1
vt 0.17187494 5.9604645E-08
vt 0.17187494 1
vt 0.15625006 5.9604645E-08
vt 0.15625006 1
vt 0.14062503 5.9604645E-08
vt 0.14062503 1
vt 0.12499997 5.9604645E-08
vt 0.12499997 1
vt 0.109375 2.9802322E-08
vt 0.109375 1
vt 0.09375003 2.9802322E-08
vt 0.09375003 1
vt 0.078125 2.9802322E-08
vt 0.078125 1
vt 0.06249994 2.9802322E-08
vt 0.06249994 1
vt 0.04687506 2.9802322E-08
vt 0.04687506 1
vt 0.03125 2.9802322E-08
vt 0.03125 1
vt 0.01562497 2.9802322E-08
vt 0.01562497 1
vt 0 2.9802322E-08
vt 0 1
vn -0 0 1
vn -0 0 1
vn -0 0 1
vn -0 0 1
vn -0 0 1
vn -0 0 1
vn -0 0 1
vn -0 0 1
vn -0 0 1
vn -0 0 1
vn -0 0 1
vn -0 0 1
vn -0 0 1
vn -0 0 1
vn -0 0 1
vn -0 0 1
vn -0 0 1
vn -0 0 1
vn -0 0 1
vn -0 0 1
vn -0 0 1
vn -0 0 1
vn -0 0 1
vn -0 0 1
vn -0 0 1
vn -0 0 1
vn -0 0 1
vn -0 0 1
vn -0 0 1
vn -0 0 1
vn -0 0 1
vn -0 0 1
vn -0 0 1
vn -0 0 1
vn -0 0 1
vn -0 0 1
vn -0 0 1
vn -0 0 1
vn -0 0 1
vn -0 0 1
vn -0 0 1
vn -0 0 1
vn -0 0 1
vn -0 0 1
vn -0 0 1
vn -0 0 1
vn -0 0 1
vn -0 0 1
vn -0 0 1
vn -0 0 1
vn -0 0 1
vn -0 0 1
vn -0 0 1
vn -0 0 1
vn -0 0 1
vn -0 0 1
vn -0 0 1
vn -0 0 1
vn -0 0 1
vn -0 0 1
vn -0 0 1
vn -0 0 1
vn -0 0 1
vn -0 0 1
vn -0 0 1
vn -0 0 1
vn -0 0 1
vn -0 0 1
vn -0 0 1
vn -0 0 1
vn -0 0 1
vn -0 0 1
vn -0 0 1
vn -0 0 1
vn -0 0 1
vn -0 0 1
vn -0 0 1
vn -0 0 1
vn -0 0 1
vn -0 0 1
vn -0 0 1
vn -0 0 1
vn -0 0 1
vn -0 0 1
vn -0 0 1
vn -0 0 1
vn -0 0 1
vn -0 0 1
vn -0 0 1
vn -0 0 1
vn -0 0 1
vn -0 0 1
vn -0 0 1
vn -0 0 1
vn -0 0 1
vn -0 0 1
vn -0 0 1
vn -0 0 1
vn -0 0 1
vn -0 0 1
vn -0 0 1
vn -0 0 1
vn -0 0 1
vn -0 0 1
vn -0 0 1
vn -0 0 1
vn -0 0 1
vn -0 0 1
vn -0 0 1
vn -0 0 1
vn -0 0 1
vn -0 0 1
vn -0 0 1
vn -0 0 1
vn -0 0 1
vn -0 0 1
vn -0 0 1
vn -0 0 1
vn -0 0 1
vn -0 0 1
vn -0 0 1
vn -0 0 1
vn -0 0 1
vn -0 0 1
vn -0 0 1
vn -0 0 1
vn -0 0 1
vn -0 0 1
vn -0 0 1
vn -0 0 1
g OutCircleGlow_0
f 3/3/3 2/2/2 1/1/1
f 2/2/2 4/4/4 1/1/1
f 1/1/1 4/4/4 5/5/5
f 4/4/4 6/6/6 5/5/5
f 5/5/5 6/6/6 7/7/7
f 6/6/6 8/8/8 7/7/7
f 7/7/7 8/8/8 9/9/9
f 8/8/8 10/10/10 9/9/9
f 9/9/9 10/10/10 11/11/11
f 10/10/10 12/12/12 11/11/11
f 11/11/11 12/12/12 13/13/13
f 12/12/12 14/14/14 13/13/13
f 13/13/13 14/14/14 15/15/15
f 14/14/14 16/16/16 15/15/15
f 15/15/15 16/16/16 17/17/17
f 16/16/16 18/18/18 17/17/17
f 17/17/17 18/18/18 19/19/19
f 18/18/18 20/20/20 19/19/19
f 19/19/19 20/20/20 21/21/21
f 20/20/20 22/22/22 21/21/21
f 21/21/21 22/22/22 23/23/23
f 22/22/22 24/24/24 23/23/23
f 23/23/23 24/24/24 25/25/25
f 24/24/24 26/26/26 25/25/25
f 25/25/25 26/26/26 27/27/27
f 26/26/26 28/28/28 27/27/27
f 27/27/27 28/28/28 29/29/29
f 28/28/28 30/30/30 29/29/29
f 29/29/29 30/30/30 31/31/31
f 30/30/30 32/32/32 31/31/31
f 31/31/31 32/32/32 33/33/33
f 32/32/32 34/34/34 33/33/33
f 33/33/33 34/34/34 35/35/35
f 34/34/34 36/36/36 35/35/35
f 35/35/35 36/36/36 37/37/37
f 36/36/36 38/38/38 37/37/37
f 37/37/37 38/38/38 39/39/39
f 38/38/38 40/40/40 39/39/39
f 39/39/39 40/40/40 41/41/41
f 40/40/40 42/42/42 41/41/41
f 41/41/41 42/42/42 43/43/43
f 42/42/42 44/44/44 43/43/43
f 43/43/43 44/44/44 45/45/45
f 44/44/44 46/46/46 45/45/45
f 45/45/45 46/46/46 47/47/47
f 46/46/46 48/48/48 47/47/47
f 47/47/47 48/48/48 49/49/49
f 48/48/48 50/50/50 49/49/49
f 49/49/49 50/50/50 51/51/51
f 50/50/50 52/52/52 51/51/51
f 51/51/51 52/52/52 53/53/53
f 52/52/52 54/54/54 53/53/53
f 53/53/53 54/54/54 55/55/55
f 54/54/54 56/56/56 55/55/55
f 55/55/55 56/56/56 57/57/57
f 56/56/56 58/58/58 57/57/57
f 57/57/57 58/58/58 59/59/59
f 58/58/58 60/60/60 59/59/59
f 59/59/59 60/60/60 61/61/61
f 60/60/60 62/62/62 61/61/61
f 61/61/61 62/62/62 63/63/63
f 62/62/62 64/64/64 63/63/63
f 63/63/63 64/64/64 65/65/65
f 64/64/64 66/66/66 65/65/65
f 65/65/65 66/66/66 67/67/67
f 66/66/66 68/68/68 67/67/67
f 67/67/67 68/68/68 69/69/69
f 68/68/68 70/70/70 69/69/69
f 69/69/69 70/70/70 71/71/71
f 70/70/70 72/72/72 71/71/71
f 71/71/71 72/72/72 73/73/73
f 72/72/72 74/74/74 73/73/73
f 73/73/73 74/74/74 75/75/75
f 74/74/74 76/76/76 75/75/75
f 75/75/75 76/76/76 77/77/77
f 76/76/76 78/78/78 77/77/77
f 77/77/77 78/78/78 79/79/79
f 78/78/78 80/80/80 79/79/79
f 79/79/79 80/80/80 81/81/81
f 80/80/80 82/82/82 81/81/81
f 81/81/81 82/82/82 83/83/83
f 82/82/82 84/84/84 83/83/83
f 83/83/83 84/84/84 85/85/85
f 84/84/84 86/86/86 85/85/85
f 85/85/85 86/86/86 87/87/87
f 86/86/86 88/88/88 87/87/87
f 87/87/87 88/88/88 89/89/89
f 88/88/88 90/90/90 89/89/89
f 89/89/89 90/90/90 91/91/91
f 90/90/90 92/92/92 91/91/91
f 91/91/91 92/92/92 93/93/93
f 92/92/92 94/94/94 93/93/93
f 93/93/93 94/94/94 95/95/95
f 94/94/94 96/96/96 95/95/95
f 95/95/95 96/96/96 97/97/97
f 96/96/96 98/98/98 97/97/97
f 97/97/97 98/98/98 99/99/99
f 98/98/98 100/100/100 99/99/99
f 99/99/99 100/100/100 101/101/101
f 100/100/100 102/102/102 101/101/101
f 101/101/101 102/102/102 103/103/103
f 102/102/102 104/104/104 103/103/103
f 103/103/103 104/104/104 105/105/105
f 104/104/104 106/106/106 105/105/105
f 105/105/105 106/106/106 107/107/107
f 106/106/106 108/108/108 107/107/107
f 107/107/107 108/108/108 109/109/109
f 108/108/108 110/110/110 109/109/109
f 109/109/109 110/110/110 111/111/111
f 110/110/110 112/112/112 111/111/111
f 111/111/111 112/112/112 113/113/113
f 112/112/112 114/114/114 113/113/113
f 113/113/113 114/114/114 115/115/115
f 114/114/114 116/116/116 115/115/115
f 115/115/115 116/116/116 117/117/117
f 116/116/116 118/118/118 117/117/117
f 117/117/117 118/118/118 119/119/119
f 118/118/118 120/120/120 119/119/119
f 119/119/119 120/120/120 121/121/121
f 120/120/120 122/122/122 121/121/121
f 121/121/121 122/122/122 123/123/123
f 122/122/122 124/124/124 123/123/123
f 123/123/123 124/124/124 125/125/125
f 124/124/124 126/126/126 125/125/125
f 125/125/125 126/126/126 127/127/127
f 126/126/126 128/128/128 127/127/127
f 127/127/127 128/128/128 129/129/129
f 128/128/128 130/130/130 129/129/129
