g polySurface2
v -0.068608455 0.022496916 -0.011075535
v -0.093442194 -0.0109835705 -0.0077661383
v -0.07861036 -0.04033822 -0.009102339
v 0.19957945 -0.025973892 -0.0058216653
v 0.15132762 -0.0077207233 -0.008026748
v 0.14640424 -0.040338244 -0.00799594
v 0.19996908 -0.040338244 -0.005821665
v -0.029421717 -0.04033822 -0.012613639
v 0.028349677 -0.04033822 -0.012753198
v 0.027654428 0.025873616 -0.0134450495
v -0.026681269 0.01946853 -0.012811691
v 0.073156394 0.121889584 -0.011064352
v 0.06306323 0.156325 -0.011034253
v 0.036346223 0.14445066 -0.013155407
v 0.09749864 0.113577664 -0.0087513
v 0.07876013 0.084048614 -0.011223237
v 0.095456906 -0.04033822 -0.0114846025
v 0.08642655 0.032278705 -0.011471043
v 0.17702405 0.038029786 -0.006461543
v 0.082350016 0.16805741 -0.010445542
v 0.09133452 0.15675154 -0.011661811
v -0.011744541 0.10289078 -0.011895143
v -0.017554475 0.1292352 -0.0126908785
v -0.028275847 0.11491559 -0.010805956
v 0.030705929 0.112390175 -0.013340674
v -0.02040998 0.07257699 -0.012458655
v 0.029175077 0.07713913 -0.013551655
v 0.013793088 0.16434096 -0.014358756
v 0.0961405 0.12460803 -0.009735167
v 0.09547156 0.12908205 -0.011068459
v 0.11936728 0.16606784 -0.0112153
v 0.11686607 0.15003271 -0.0126002375
v 0.13751346 0.13587892 -0.01373324
v 0.14327191 0.14892662 -0.0124532785
v 0.10389594 0.1546199 -0.012207378
v 0.10617932 0.16992417 -0.011078908
v 0.09373444 0.16936044 -0.010807681
v 0.115903735 0.118327394 -0.010265934
v 0.11149509 0.100515716 -0.00887142
v 0.14219473 0.07186579 -0.0072854795
v -0.092150696 0.03046983 -0.0059428825
v -0.059554365 0.06937595 -0.01067794
v -0.085765414 0.06900602 -0.0068378225
v 0.12561676 0.1088465 -0.009701102
v 0.13329388 0.11926468 -0.012508625
v 0.11615244 0.12409917 -0.011569227
v 0.19198349 0.0061943834 -0.005821665
v -0.05271073 0.12723301 -0.009374822
v -0.06738827 0.13730894 -0.009323994
v -0.076863535 0.11540224 -0.008329393
v 0.049882844 0.16913268 -0.011697299
v 0.07246281 0.17512609 -0.010563391
v 0.060436834 0.18358724 -0.0096729
v -0.078396365 0.17392503 -0.018510053
v -0.09469416 0.15447295 -0.015668377
v -0.06393182 0.14093146 -0.012504034
v -0.050475355 0.15602456 -0.015699442
v -0.02068591 0.19183674 -0.016513897
v -0.04540314 0.20920916 -0.01809538
v 0.05608319 0.18683644 -0.008236003
v 0.040797696 0.20406662 -0.009358575
v 0.031812664 0.18813512 -0.01273377
v -0.033118214 0.10882794 -0.008980898
v -0.11673476 0.1963617 -0.019393712
v -0.08207684 0.2347902 -0.020319102
v -0.12971546 0.17626265 -0.01716264
v 0.094334975 0.17394866 -0.010175125
v 0.08536305 0.18409508 -0.010255634
v 0.11827914 0.22339569 -0.012299302
v 0.11355386 0.23135038 -0.013839707
v 0.08811121 0.20513736 -0.012310709
v 0.0945489 0.19498275 -0.010771333
v 0.13227832 0.11406372 -0.010382472
v -0.10788522 0.004301778 -0.005942882
v -0.12120091 -0.026196977 -0.0059428825
v -0.12506334 -0.040338237 -0.0059428825
v -0.07993394 0.0888274 -0.0075829285
v -0.05279062 0.10704105 -0.009056418
v 0.0009395794 0.21582957 -0.014730014
v 0.013716841 0.23059328 -0.0108158365
v -0.016353669 0.25208423 -0.012611284
v -0.025883859 0.2371885 -0.016651591
v -0.054819077 0.27253085 -0.015007061
v -0.06157681 0.26167688 -0.018740358
v -0.081958555 0.2782882 -0.015475689
v -0.14158742 0.25678107 -0.017864391
v -0.12958716 0.2692078 -0.01722866
v -0.15254311 0.23366176 -0.017641539
v -0.1576926 0.2112068 -0.01684296
v -0.15183686 0.18702175 -0.016150175
v 0.12010647 0.17151594 -0.009129654
v 0.14129852 0.18291287 -0.009035952
v 0.10652249 0.17448977 -0.009679744
v 0.08283204 0.21494906 -0.011754191
v 0.1093028 0.23947397 -0.012855883
v -0.08144327 0.268553 -0.018052291
v -0.13593143 0.1676342 -0.014656978
v -0.105544426 0.2768948 -0.016541636
v -0.103639 0.14707974 -0.01309325
v -0.1210053 0.15613689 -0.013963061
v 0.14538006 0.1538413 -0.010438354
v 0.067843966 0.20390756 -0.009300142
v 0.10697069 0.24328318 -0.011129376
v 0.080320716 0.21933451 -0.010326903
v 0.14865133 0.09180998 -0.012506546
v 0.053623576 0.21373577 -0.008108359
v -0.10146508 0.07010183 -0.006188655
v -0.08881389 0.123701505 -0.0076130587
v -0.10823784 0.040289827 -0.005942882
v -0.14477581 -0.040338244 -0.0059428825
v 0.023407457 0.24010086 -0.009376373
v -0.16729453 0.16931443 -0.01407135
v -0.17772023 0.21510668 -0.017204715
v -0.14126073 0.28272322 -0.01699481
v -0.16103305 0.26426896 -0.017934205
v -0.0068086646 0.26646596 -0.011008321
v -0.045914005 0.28448072 -0.013078162
v -0.081900455 0.29806215 -0.014852273
v -0.11401881 0.29414722 -0.01615072
v 0.19346076 0.04339607 -0.007822028
v -0.14609392 0.15398315 -0.013282093
v -0.11533698 0.13684714 -0.011332181
v 0.21056405 0.011537979 -0.006162974
v 0.21939676 -0.040338244 -0.0058216653
v 0.07208297 0.23568189 -0.009294969
v 0.09054237 0.25762805 -0.010823818
v 0.21815681 0.33812428 -0.008513416
v 0.20123243 0.33546817 -0.007962981
v 0.21783388 0.3205833 -0.006507511
v 0.15146081 0.16795355 -0.009420554
v 0.22981158 0.19760127 -0.008168217
v 0.2337507 0.18081024 -0.008271269
v 0.28698826 0.20128624 -0.006942842
v 0.27361572 0.22130764 -0.0069326386
v 0.2490835 0.32656142 -0.00835643
v 0.18359365 0.19867197 -0.008611641
v 0.19577703 0.18006563 -0.008468514
v 0.42166576 0.22638305 -0.0063197017
v 0.3907455 0.23974939 -0.007473281
v 0.3387367 0.21208273 -0.0063197287
v 0.3334544 0.23184176 -0.006319729
v 0.2001525 0.14018524 -0.019680988
v 0.177595 0.14913389 -0.013519463
v 0.16811429 0.13715582 -0.013924035
v 0.19050704 0.12889479 -0.020579321
v 0.24536656 0.10030291 -0.030561984
v 0.23956712 0.124549285 -0.02919799
v 0.2239254 0.11396866 -0.029795958
v 0.22607279 0.09991724 -0.032099005
v 0.23515086 0.06708578 -0.03208909
v 0.22086146 0.080643974 -0.033758163
v 0.21312194 0.06752054 -0.03200822
v 0.2193233 0.050584078 -0.030910745
v 0.19634375 0.06140632 -0.029075658
v 0.19346076 0.04339607 -0.029042616
v 0.16462635 0.074549936 -0.018874375
v 0.16838722 0.084574044 -0.020814974
v 0.1500986 0.10284286 -0.014200874
v 0.13422625 0.27115104 -0.008599537
v 0.14457445 0.25660703 -0.008654508
v 0.18274312 0.29434147 -0.0064812386
v 0.18900697 0.2766263 -0.0065231263
v 0.22606102 0.30598894 -0.006320387
v 0.21771662 0.34434626 -0.00869935
v 0.25167453 0.36263368 -0.0074330876
v 0.21833539 0.35924327 -0.008315905
v 0.21992564 0.34758174 -0.008335124
v 0.25120452 0.3440574 -0.0073656575
v 0.27931178 0.35030413 -0.006783324
v 0.30630252 0.3717384 -0.006533065
v 0.3026794 0.3527668 -0.006634137
v 0.34441003 0.34869382 -0.0063197264
v 0.36562827 0.36609453 -0.006319718
v 0.3736528 0.34608802 -0.006319715
v 0.19968985 0.3573471 -0.008656312
v -0.30253097 0.21035211 -0.019532876
v -0.3009977 0.17125946 -0.01925158
v -0.28251025 0.1984534 -0.024021825
v -0.044010866 0.35912156 -0.01855209
v -0.042327743 0.37895352 -0.018489137
v -0.06277099 0.3663525 -0.018367302
v -0.17023817 0.3323993 -0.019914374
v -0.18220596 0.32926232 -0.018684326
v -0.16854955 0.31375 -0.02076244
v -0.1896255 0.34822538 -0.017357288
v -0.2052646 0.35688066 -0.016626352
v -0.2064745 0.3417273 -0.017516792
v -0.07900709 0.37630048 -0.018242622
v -0.07283543 0.37994286 -0.01841076
v -0.08576274 0.39676625 -0.018613555
v -0.10417604 0.35658354 -0.019108793
v -0.12235905 0.36823592 -0.018768826
v -0.07053705 0.31145582 -0.01916871
v -0.09361432 0.30764434 -0.019982575
v -0.07624518 0.27386853 -0.020089926
v -0.06245516 0.28695467 -0.018742515
v -0.027261853 0.24213675 -0.02008146
v -0.04211991 0.26591876 -0.01933669
v -0.055206966 0.2511091 -0.019199444
v -0.048111122 0.23972929 -0.019307194
v -0.2716298 0.23454447 -0.021395687
v -0.27138197 0.21563564 -0.025260402
v -0.24615924 0.22247727 -0.025338208
v -0.2885502 0.22437131 -0.021553595
v -0.26847517 0.27980933 -0.019996976
v -0.2571337 0.26454315 -0.020784833
v -0.25071478 0.27377483 -0.020218855
v -0.23764919 0.3013815 -0.01858507
v -0.25494465 0.29899976 -0.019824103
v -0.22880195 0.28473958 -0.02064532
v -0.2229266 0.28711966 -0.021338502
v -0.22172478 0.35517725 -0.0165145
v -0.21364431 0.34219283 -0.017411549
v -0.24163885 0.28167439 -0.020471442
v -0.1467332 0.34849218 -0.019187136
v -0.14477864 0.32048157 -0.019964863
v -0.13267443 0.3325096 -0.019814955
v -0.08392279 0.33073938 -0.018889448
v -0.055408746 0.39540625 -0.018743372
v -0.06678476 0.3790769 -0.018369835
v -0.25864375 0.2535248 -0.021381
v -0.2824776 0.26078025 -0.020347813
v -0.2239261 0.13789283 -0.017745316
v -0.21024409 0.15105315 -0.018344507
v -0.21525228 0.15610775 -0.019023607
v -0.03231642 0.20472586 -0.01886673
v -0.04649248 0.22651882 -0.019565279
v -0.2516341 0.2360925 -0.023511656
v -0.1883526 0.3015934 -0.020797579
v -0.19638465 0.3217799 -0.019049177
v -0.22120026 0.30965665 -0.019495815
v -0.2194897 0.3354387 -0.017762128
v -0.21675943 0.115545146 -0.017056266
v -0.052499957 0.20198758 -0.019328857
v -0.06587721 0.16951042 -0.018417185
v -0.04104049 0.1702368 -0.01787616
v -0.09804234 0.07333208 -0.016133957
v -0.082159005 0.053400982 -0.013271433
v -0.06445862 0.10637214 -0.015654584
v -0.08510696 0.11408656 -0.01685006
v -0.144795 0.024166133 -0.0125829
v -0.1184622 0.02856693 -0.0125829
v -0.121792436 0.048747234 -0.01541964
v -0.14669344 0.04688156 -0.015579506
v -0.16568653 0.04848776 -0.015947383
v -0.17415646 0.024421114 -0.01350299
v -0.1950588 0.12330764 -0.016992949
v -0.10820209 0.057217397 -0.015481763
v -0.1734342 0.058256634 -0.015690336
v -0.19297947 0.041392323 -0.01390784
v -0.18827842 0.10457846 -0.016482284
v -0.20486943 0.07846875 -0.016125917
v -0.18153411 0.085331224 -0.016060364
v -0.2256412 0.15641896 -0.020474358
v -0.24254143 0.15025656 -0.022706678
v -0.2306685 0.13961017 -0.018318424
v -0.24138053 0.16066968 -0.02272032
v -0.24909063 0.13368137 -0.020714222
v -0.25332546 0.16102473 -0.022821706
v -0.28366846 0.15171471 -0.01927187
v -0.27302876 0.16664104 -0.022130776
v -0.2809643 0.18067847 -0.023037005
v -0.20113562 0.33501667 -0.018082423
v -0.23365894 0.34507105 -0.017364873
v -0.06275385 0.3738228 -0.01835589
v -0.067047946 0.3591772 -0.018476125
v -0.06940221 0.26584423 -0.019648656
v 0.29553095 0.08494054 -0.028708799
v 0.29538485 0.110474505 -0.028119175
v 0.2775905 0.11211976 -0.029578036
v 0.12037331 0.0992071 -0.030464916
v 0.12399019 0.082589805 -0.030693917
v 0.13446294 0.10102506 -0.032641236
v 0.23669565 0.025037685 -0.026909042
v 0.21335518 0.013340077 -0.025811533
v 0.22689115 -0.0029144292 -0.023973389
v 0.24836372 0.008513986 -0.024956604
v 0.29514644 0.1521589 -0.027606774
v 0.27865592 0.14858168 -0.029126352
v 0.10365351 0.03161921 -0.024447054
v 0.12112627 0.037655782 -0.026500193
v 0.120926574 0.065341644 -0.028384572
v 0.24461965 0.20340255 -0.027167374
v 0.2209401 0.20449166 -0.02695026
v 0.2261107 0.19151978 -0.029067198
v 0.23649709 0.18807887 -0.028503869
v 0.1972174 -0.011387388 -0.02292722
v 0.18304019 0.0021216683 -0.024549259
v 0.15402235 0.12719099 -0.033910345
v 0.13889137 0.13211703 -0.032764837
v 0.13886426 0.11321347 -0.03303953
v 0.17339788 0.1419914 -0.033934202
v 0.1459741 0.14233004 -0.03287895
v 0.1784641 0.19553463 -0.028880456
v 0.15967856 0.17273736 -0.030313468
v 0.18092851 0.17661099 -0.030910438
v 0.11434523 0.0111638475 -0.02266574
v 0.13482961 0.018215423 -0.024297861
v 0.2752196 0.07124607 -0.029872138
v 0.27698496 0.032667357 -0.026556162
v 0.28368646 0.18107863 -0.027689395
v 0.26881158 0.1680687 -0.028671755
v 0.2037001 0.18652748 -0.029527605
v 0.18093438 0.12310386 -0.033836335
v 0.22192393 0.13105144 -0.032256365
v 0.20764045 0.13667709 -0.033262845
v 0.21096821 0.11451495 -0.03377478
v 0.18331006 0.089761406 -0.034115385
v 0.16899654 0.06886142 -0.031140408
v 0.18598561 0.058950372 -0.03039812
v 0.12503694 -0.009291506 -0.02227608
v 0.15902185 -0.022293644 -0.02233899
v 0.14853293 -0.0012249363 -0.023752611
v 0.14173178 0.056842595 -0.028330317
v 0.16014692 0.044934135 -0.028358271
v 0.15850101 0.07326276 -0.031180313
v 0.26460522 0.046512756 -0.028866986
v 0.24683085 0.032275412 -0.027492845
v 0.16744462 0.10756 -0.034147896
v 0.2315089 0.14602448 -0.031063741
v 0.17238215 0.15485694 -0.031413756
v 0.2143333 0.16064869 -0.030037139
v 0.20522304 0.14368425 -0.03212586
v 0.14984965 0.09712331 -0.032639313
v 0.19256121 0.078666836 -0.03351129
v 0.10240141 0.070972964 -0.028161386
v 0.1337369 0.07139733 -0.030128676
v 0.20337144 0.16551515 -0.030502317
v 0.16300507 0.13389492 -0.015981533
v 0.15303639 0.12523796 -0.016856479
v 0.1783412 0.11163689 -0.024177307
v 0.18759672 0.12395517 -0.023121728
v 0.15028378 0.11003691 -0.015935866
v 0.17066784 0.09077458 -0.022807796
v 0.21694969 0.11005437 -0.031940665
v 0.20107542 0.09941754 -0.033195067
v 0.19643152 0.07185825 -0.031593345
v 0.31539112 0.29940966 -0.0075986646
v 0.15645301 0.2389699 -0.009846467
v 0.1994028 0.256493 -0.0075068683
v 0.1943274 0.26458883 -0.009106589
v 0.23277281 0.2940372 -0.00837051
v 0.22844534 0.3014867 -0.007590372
v 0.1906104 0.27289823 -0.00814929
v 0.2763114 0.31541207 -0.008045268
v 0.2373348 0.28591356 -0.006965534
v 0.151061 0.24621718 -0.011434441
v 0.14677526 0.2525458 -0.010447882
v -0.15606157 0.17308225 -0.021649865
v -0.15055723 0.20029736 -0.0230984
v -0.16072841 0.19648992 -0.025099216
v -0.22326934 0.16307479 -0.023966052
v -0.24196883 0.16364823 -0.02421252
v -0.18585704 0.12769283 -0.018850425
v -0.19074948 0.15796325 -0.019773554
v -0.20573628 0.15265098 -0.02031525
v -0.19267227 0.12442642 -0.019119967
v -0.1962239 0.2955155 -0.022698546
v -0.20926793 0.26993242 -0.024796527
v -0.19770454 0.27828628 -0.026208704
v -0.08815481 0.27264574 -0.021454973
v -0.13742301 0.321236 -0.021557251
v -0.12822655 0.32943428 -0.021391815
v -0.11942088 0.32257435 -0.022506567
v -0.10489061 0.31757888 -0.022008171
v -0.09473504 0.34594727 -0.022055853
v -0.09979891 0.35222352 -0.020841187
v -0.24503839 0.21881787 -0.028201554
v -0.26996526 0.21127422 -0.027178949
v -0.21208976 0.24115098 -0.02696727
v -0.22095163 0.23597954 -0.027200187
v -0.2197026 0.23315202 -0.030001068
v -0.116275035 0.23780946 -0.027074818
v -0.12516733 0.25396812 -0.026411666
v -0.16794544 0.24431586 -0.0299413
v -0.16226645 0.22993934 -0.029863669
v -0.09622928 0.26163015 -0.023922484
v -0.086419895 0.24413927 -0.025092034
v -0.10160302 0.2712649 -0.020953676
v -0.1201409 0.302737 -0.021433888
v -0.13446544 0.2949988 -0.022731025
v -0.1199796 0.31492206 -0.022856195
v -0.110393964 0.3117584 -0.022254473
v -0.17921248 0.089484215 -0.017931959
v -0.09550698 0.1923791 -0.019807383
v -0.08873086 0.16571812 -0.019454012
v -0.079609565 0.19793114 -0.020320643
v -0.10674315 0.10732081 -0.018406684
v -0.09764453 0.11018089 -0.0197843
v -0.08165781 0.16704628 -0.020867584
v -0.16010089 0.13798563 -0.01823185
v -0.16265473 0.15761851 -0.01897407
v -0.1652119 0.05623814 -0.017907446
v -0.16504696 0.06204247 -0.017894981
v -0.109663546 0.07022675 -0.01872952
v -0.12401626 0.06730481 -0.017900733
v -0.1148593 0.063280016 -0.018494917
v -0.15298274 0.17393053 -0.019121885
v -0.119520955 0.15350305 -0.021331118
v -0.10851546 0.18952934 -0.021401506
v -0.071590595 0.19934787 -0.021459779
v -0.1708996 0.19268245 -0.024439929
v -0.193682 0.18156435 -0.024342015
v -0.19291835 0.1754186 -0.021329638
v -0.10244317 0.2129911 -0.021847216
v -0.15135764 0.19159661 -0.020103391
v -0.1008624 0.20829354 -0.020412827
v -0.079938106 0.22071421 -0.021190967
v -0.072279535 0.22048429 -0.021034202
v -0.20170298 0.31951243 -0.020714698
v -0.20482503 0.25361893 -0.026237631
v -0.21258879 0.25055248 -0.026310584
v -0.13073315 0.2645345 -0.024025371
v -0.15250383 0.26546094 -0.024989607
v -0.27487728 0.20067544 -0.027004221
v -0.21006809 0.16197377 -0.02067232
v -0.25041702 0.25355926 -0.024458854
v -0.24959843 0.26538643 -0.023576323
v -0.20694132 0.33580682 -0.01946239
v -0.09985875 0.31391275 -0.02136381
v -0.087678656 0.33623767 -0.021437407
v -0.07134095 0.37553266 -0.019724742
v -0.06688818 0.3703225 -0.020023054
v -0.081845485 0.2638896 -0.022234637
v -0.06907322 0.2483834 -0.02306704
v -0.16220458 0.09317257 -0.017094823
v -0.14276718 0.095341496 -0.020143665
v -0.17271356 0.06527027 -0.01781618
v -0.1569086 0.076974146 -0.017632188
v -0.12070038 0.060119193 -0.018245796
v -0.14789863 0.06336277 -0.018094262
v -0.14736181 0.055938154 -0.018210998
v -0.16616821 0.30598697 -0.024374425
v -0.16753048 0.31042793 -0.022605522
v -0.1876394 0.29951018 -0.02282181
v -0.1841345 0.2920363 -0.025819404
v -0.14072232 0.31077507 -0.024440616
v -0.105253376 0.30549112 -0.02202163
v -0.114835374 0.07506211 -0.01783367
v -0.18358283 0.24829142 -0.027257834
v -0.19751143 0.24477756 -0.026697058
v -0.19433588 0.24271496 -0.030117203
v -0.17519377 0.26710537 -0.027737577
v -0.16073516 0.28963736 -0.026650323
v -0.1927606 0.256875 -0.028433153
v -0.12873535 0.26074183 -0.025479808
v -0.16885848 0.24831763 -0.02838915
v -0.100165285 0.26885173 -0.022875197
v -0.14370193 0.3179051 -0.022285586
v -0.21737082 0.28886652 -0.022774354
v -0.21676882 0.3119779 -0.020830128
v -0.21566728 0.33549234 -0.019011725
v -0.23698445 0.2585722 -0.02587757
v -0.24408805 0.23932052 -0.025827726
v -0.23376167 0.24351847 -0.027439976
v -0.21448444 0.26679775 -0.024694294
v -0.07873261 0.23060854 -0.024228785
v -0.058383215 0.22373624 -0.021781018
v -0.061253995 0.23629355 -0.022500534
v -0.10615917 0.22076297 -0.025491118
v -0.15421222 0.20809352 -0.027067823
v -0.17846203 0.20065553 -0.028870767
v -0.20038405 0.19181727 -0.028942198
v -0.22920397 0.17588034 -0.027288556
v -0.2565426 0.16955677 -0.025818277
v -0.24854004 0.16494441 -0.024888022
v -0.25394738 0.16267413 -0.02340099
v -0.18907572 0.2392983 -0.031578373
v -0.18160771 0.22476383 -0.031155262
v -0.2167481 0.22646363 -0.031472765
v -0.21020833 0.21283917 -0.031167392
v -0.24281152 0.21154742 -0.029796606
v -0.23772636 0.19813676 -0.029333984
v -0.26724422 0.20289747 -0.028214741
v -0.26284608 0.18956634 -0.027549371
v -0.2719052 0.18512242 -0.026333585
v -0.23810302 0.22750054 -0.026772907
v -0.16965422 0.25180528 -0.026516879
v -0.23024069 0.2317351 -0.027149854
v -0.10619783 0.15805952 -0.018972127
v -0.13260154 0.09617934 -0.01817681
v -0.14413393 0.07901699 -0.01813583
v -0.06085546 0.20062943 -0.020788843
v -0.0711619 0.16906217 -0.02014951
v -0.24013717 0.2738062 -0.023557356
v -0.21845904 0.278279 -0.022853784
v -0.26478565 0.16809891 -0.024937693
v -0.23154119 0.2761327 -0.023419466
v -0.225726 0.2628892 -0.025929961
v -0.22234653 0.24741082 -0.027448056
v 0.20964943 0.018261539 -0.02848101
v 0.20192586 0.02851886 -0.0313089
v 0.17489342 0.01288424 -0.029221663
v 0.17912675 0.006864559 -0.026995448
v 0.22039714 0.04528423 -0.032284588
v 0.23141102 0.031602398 -0.03022771
v 0.25211492 0.09939577 -0.035256047
v 0.26873884 0.08165362 -0.033437148
v 0.2715077 0.11535102 -0.03229296
v 0.259638 0.13996422 -0.03434931
v 0.25834307 0.12006947 -0.03464186
v 0.24296105 0.068989575 -0.03700657
v 0.25697505 0.05441147 -0.033074852
v 0.17889363 0.11594756 -0.03788161
v 0.18024383 0.12068228 -0.03607024
v 0.22959743 0.10055033 -0.03759041
v 0.20773326 0.11033314 -0.037307035
v 0.2010163 0.10165011 -0.03957134
v 0.22217417 0.08604795 -0.039638218
v 0.23207569 0.12792033 -0.034001004
v 0.2399892 0.14357929 -0.033374455
v 0.16083495 0.00999385 -0.02864163
v 0.15554017 0.03691491 -0.030122424
v 0.14022425 0.050718494 -0.030410687
v 0.17089121 0.11008497 -0.035934813
v 0.22840488 0.050438505 -0.034280766
v 0.2079631 0.07242918 -0.03633482
v 0.20077501 0.06932719 -0.03325809
v 0.240182 0.0388284 -0.031155441
v 0.23900142 0.14931837 -0.033344515
v 0.22015047 0.16497867 -0.032800782
v 0.18789583 0.092840485 -0.036918573
v 0.19015852 0.05081361 -0.03195664
v 0.17503978 0.038456302 -0.030464528
v 0.12723942 0.03978635 -0.02968182
v 0.14070752 0.020090863 -0.028420692
v 0.13033697 0.06979012 -0.030983394
v 0.123838045 0.06651979 -0.030372752
v 0.2721585 0.1534792 -0.03146801
v 0.26590943 0.16405396 -0.031543646
v 0.23389141 0.18433122 -0.03155304
v 0.226895 0.1865549 -0.031769086
v 0.2078195 0.18431441 -0.0317077
v 0.20644514 0.16904335 -0.032568917
v 0.22208169 0.11051353 -0.034413718
v 0.16461992 0.03457674 -0.029879967
v 0.15499459 0.0043023927 -0.027231757
v 0.26073548 0.15689646 -0.033680286
v 0.22677425 0.17699282 -0.03381583
v 0.20860553 0.17684148 -0.033400107
v 0.1340081 0.043705665 -0.031035129
v 0.14605036 0.024721196 -0.02987651
v 0.12710835 0.06826387 -0.031072337
v 0.25224835 0.090328954 -0.036735985
vt 0.8256836 0.17248535
vt 0.8540039 0.13427734
vt 0.83691406 0.10083008
vt 0.52001953 0.117126465
vt 0.5751953 0.13793945
vt 0.5810547 0.10083008
vt 0.51953125 0.10076904
vt 0.7807617 0.10089111
vt 0.71533203 0.10076904
vt 0.7163086 0.17626953
vt 0.77783203 0.16894531
vt 0.6640625 0.28564453
vt 0.67578125 0.32495117
vt 0.7060547 0.3112793
vt 0.63671875 0.27612305
vt 0.65771484 0.24255371
vt 0.63964844 0.10089111
vt 0.64941406 0.18359375
vt 0.54589844 0.19006348
vt 0.6538086 0.33813477
vt 0.6435547 0.32543945
vt 0.7607422 0.26391602
vt 0.7675781 0.2939453
vt 0.77978516 0.2775879
vt 0.71240234 0.27490234
vt 0.7709961 0.22949219
vt 0.71435547 0.23461914
vt 0.7319336 0.33398438
vt 0.6381836 0.28881836
vt 0.6386719 0.2939453
vt 0.6118164 0.33569336
vt 0.6142578 0.31762695
vt 0.5908203 0.30151367
vt 0.58447266 0.31640625
vt 0.62939453 0.32299805
vt 0.62646484 0.3400879
vt 0.640625 0.3395996
vt 0.61572266 0.28149414
vt 0.62060547 0.26123047
vt 0.5854492 0.2286377
vt 0.85253906 0.18139648
vt 0.8154297 0.22583008
vt 0.84521484 0.2253418
vt 0.6044922 0.27075195
vt 0.5957031 0.28271484
vt 0.6152344 0.28808594
vt 0.5288086 0.15368652
vt 0.8076172 0.29174805
vt 0.82421875 0.30322266
vt 0.8354492 0.2783203
vt 0.69091797 0.33935547
vt 0.66503906 0.3461914
vt 0.67871094 0.35595703
vt 0.83691406 0.3449707
vt 0.85546875 0.3227539
vt 0.8203125 0.30737305
vt 0.8051758 0.32470703
vt 0.7709961 0.36547852
vt 0.7993164 0.3852539
vt 0.68359375 0.35961914
vt 0.7011719 0.37939453
vt 0.7114258 0.36108398
vt 0.78515625 0.27075195
vt 0.8803711 0.37060547
vt 0.8413086 0.41430664
vt 0.8955078 0.3479004
vt 0.6401367 0.3449707
vt 0.6503906 0.3564453
vt 0.61279297 0.4013672
vt 0.61816406 0.4104004
vt 0.64697266 0.3803711
vt 0.63964844 0.36889648
vt 0.5966797 0.27661133
vt 0.87060547 0.15161133
vt 0.8857422 0.11682129
vt 0.8901367 0.10076904
vt 0.8388672 0.2479248
vt 0.8076172 0.26879883
vt 0.74658203 0.39257812
vt 0.7319336 0.40966797
vt 0.7661133 0.43408203
vt 0.77734375 0.4169922
vt 0.8100586 0.4572754
vt 0.8178711 0.44482422
vt 0.8408203 0.4638672
vt 0.9091797 0.43945312
vt 0.8955078 0.45361328
vt 0.9213867 0.41308594
vt 0.9272461 0.38745117
vt 0.92041016 0.35986328
vt 0.61083984 0.34228516
vt 0.5864258 0.3552246
vt 0.62597656 0.34545898
vt 0.6533203 0.39160156
vt 0.6230469 0.41967773
vt 0.84033203 0.45263672
vt 0.90234375 0.33789062
vt 0.8676758 0.4621582
vt 0.86572266 0.31420898
vt 0.8857422 0.32470703
vt 0.58203125 0.32202148
vt 0.67041016 0.3791504
vt 0.62597656 0.42382812
vt 0.65625 0.39672852
vt 0.578125 0.2512207
vt 0.68652344 0.39038086
vt 0.86328125 0.2265625
vt 0.8486328 0.28759766
vt 0.87109375 0.19262695
vt 0.91259766 0.10070801
vt 0.7207031 0.42041016
vt 0.9379883 0.33984375
vt 0.94970703 0.3918457
vt 0.9086914 0.46875
vt 0.93115234 0.44799805
vt 0.7548828 0.45043945
vt 0.7993164 0.47094727
vt 0.8408203 0.48632812
vt 0.8774414 0.4819336
vt 0.52685547 0.19604492
vt 0.9140625 0.32226562
vt 0.87890625 0.30273438
vt 0.5078125 0.15979004
vt 0.4975586 0.10076904
vt 0.66552734 0.4152832
vt 0.64453125 0.44018555
vt 0.49951172 0.53125
vt 0.51904297 0.52783203
vt 0.5 0.51123047
vt 0.5751953 0.33813477
vt 0.4855957 0.3720703
vt 0.48120117 0.35302734
vt 0.42016602 0.3762207
vt 0.43554688 0.39892578
vt 0.4638672 0.5185547
vt 0.5385742 0.37304688
vt 0.52441406 0.35180664
vt 0.26586914 0.4050293
vt 0.30126953 0.42016602
vt 0.36108398 0.38867188
vt 0.36694336 0.4111328
vt 0.51953125 0.30664062
vt 0.54541016 0.31689453
vt 0.55615234 0.30297852
vt 0.5307617 0.29370117
vt 0.46801758 0.26098633
vt 0.47460938 0.28857422
vt 0.49243164 0.27661133
vt 0.48999023 0.26049805
vt 0.47973633 0.22314453
vt 0.4958496 0.23864746
vt 0.5048828 0.22363281
vt 0.49780273 0.2043457
vt 0.5239258 0.2166748
vt 0.52734375 0.19628906
vt 0.5600586 0.23168945
vt 0.55566406 0.24304199
vt 0.57666016 0.26391602
vt 0.59472656 0.4555664
vt 0.5830078 0.43896484
vt 0.5395508 0.4814453
vt 0.53222656 0.46142578
vt 0.49023438 0.49487305
vt 0.49975586 0.5385742
vt 0.46020508 0.5595703
vt 0.4987793 0.55566406
vt 0.4970703 0.54248047
vt 0.46118164 0.5385742
vt 0.42871094 0.54589844
vt 0.39697266 0.5708008
vt 0.40161133 0.5488281
vt 0.35327148 0.5444336
vt 0.32958984 0.56396484
vt 0.32080078 0.5415039
vt 0.52001953 0.55371094
vt 0.89453125 0.7319336
vt 0.8925781 0.6870117
vt 0.87109375 0.7182617
vt 0.59765625 0.9008789
vt 0.5957031 0.92333984
vt 0.6191406 0.9091797
vt 0.7426758 0.87158203
vt 0.75634766 0.86816406
vt 0.74072266 0.85009766
vt 0.76416016 0.8881836
vt 0.78222656 0.8984375
vt 0.7832031 0.8808594
vt 0.6376953 0.92041016
vt 0.6308594 0.9248047
vt 0.6455078 0.94384766
vt 0.6665039 0.89941406
vt 0.6875 0.91259766
vt 0.6279297 0.84765625
vt 0.6542969 0.8432617
vt 0.6347656 0.8046875
vt 0.61865234 0.81933594
vt 0.5786133 0.7680664
vt 0.59521484 0.79541016
vt 0.61035156 0.7783203
vt 0.6020508 0.765625
vt 0.8588867 0.75927734
vt 0.85839844 0.73779297
vt 0.82958984 0.74560547
vt 0.8779297 0.7475586
vt 0.85546875 0.81152344
vt 0.84228516 0.7939453
vt 0.83496094 0.8041992
vt 0.8198242 0.8359375
vt 0.83984375 0.8330078
vt 0.8095703 0.81689453
vt 0.8027344 0.8198242
vt 0.80078125 0.8964844
vt 0.7915039 0.88134766
vt 0.82421875 0.81347656
vt 0.71533203 0.8901367
vt 0.7133789 0.85791016
vt 0.69921875 0.87158203
vt 0.6435547 0.8696289
vt 0.61083984 0.9423828
vt 0.62353516 0.9238281
vt 0.84375 0.78125
vt 0.87109375 0.7895508
vt 0.8041992 0.6489258
vt 0.7885742 0.6640625
vt 0.7939453 0.6694336
vt 0.5839844 0.72509766
vt 0.60058594 0.7504883
vt 0.8359375 0.76123047
vt 0.7631836 0.8364258
vt 0.77197266 0.8598633
vt 0.80126953 0.8457031
vt 0.79833984 0.87402344
vt 0.79589844 0.6230469
vt 0.6074219 0.72216797
vt 0.6225586 0.6850586
vt 0.5942383 0.68603516
vt 0.65966797 0.57470703
vt 0.64160156 0.5522461
vt 0.62109375 0.61279297
vt 0.64453125 0.62158203
vt 0.7133789 0.5185547
vt 0.68310547 0.5234375
vt 0.6870117 0.546875
vt 0.71533203 0.5444336
vt 0.7373047 0.5463867
vt 0.7470703 0.51904297
vt 0.7709961 0.6323242
vt 0.6713867 0.5566406
vt 0.74609375 0.5576172
vt 0.7685547 0.5385742
vt 0.7631836 0.61083984
vt 0.78222656 0.5805664
vt 0.7553711 0.5888672
vt 0.80615234 0.6699219
vt 0.8256836 0.66308594
vt 0.8120117 0.6508789
vt 0.82421875 0.6748047
vt 0.8330078 0.64404297
vt 0.8378906 0.67529297
vt 0.8725586 0.6645508
vt 0.86035156 0.6816406
vt 0.8696289 0.6977539
vt 0.77734375 0.87353516
vt 0.8144531 0.8847656
vt 0.6191406 0.91748047
vt 0.62402344 0.9008789
vt 0.6269531 0.79541016
vt 0.14672852 0.7636719
vt 0.14660645 0.79296875
vt 0.16711426 0.7949219
vt 0.34765625 0.77978516
vt 0.34350586 0.7607422
vt 0.3317871 0.7817383
vt 0.21411133 0.6948242
vt 0.2409668 0.6816406
vt 0.22558594 0.66259766
vt 0.20092773 0.67578125
vt 0.14709473 0.8408203
vt 0.16589355 0.83691406
vt 0.36645508 0.7026367
vt 0.3466797 0.70947266
vt 0.34716797 0.74121094
vt 0.20507812 0.89990234
vt 0.2322998 0.9013672
vt 0.22631836 0.88623047
vt 0.21435547 0.8823242
vt 0.25952148 0.65283203
vt 0.27563477 0.66845703
vt 0.30908203 0.8125
vt 0.32641602 0.8178711
vt 0.32641602 0.7963867
vt 0.28686523 0.82910156
vt 0.31835938 0.82958984
vt 0.28100586 0.890625
vt 0.30249023 0.8647461
vt 0.27807617 0.8691406
vt 0.35424805 0.6791992
vt 0.3310547 0.6870117
vt 0.16992188 0.7480469
vt 0.16796875 0.7036133
vt 0.16027832 0.87402344
vt 0.1772461 0.859375
vt 0.25195312 0.8808594
vt 0.27807617 0.8076172
vt 0.2310791 0.81689453
vt 0.24743652 0.8232422
vt 0.24365234 0.79785156
vt 0.27563477 0.76904297
vt 0.2919922 0.7451172
vt 0.27246094 0.7338867
vt 0.34228516 0.6557617
vt 0.30322266 0.640625
vt 0.31518555 0.66503906
vt 0.3232422 0.7314453
vt 0.30200195 0.71777344
vt 0.30419922 0.75
vt 0.1821289 0.71972656
vt 0.20251465 0.703125
vt 0.29370117 0.7895508
vt 0.22021484 0.8339844
vt 0.2878418 0.8442383
vt 0.23986816 0.85058594
vt 0.25024414 0.83154297
vt 0.3137207 0.77783203
vt 0.26489258 0.75634766
vt 0.36791992 0.7475586
vt 0.3322754 0.7480469
vt 0.2524414 0.8564453
vt 0.5620117 0.2993164
vt 0.5732422 0.28955078
vt 0.5444336 0.27392578
vt 0.5336914 0.2878418
vt 0.5761719 0.2722168
vt 0.55322266 0.25024414
vt 0.5004883 0.2722168
vt 0.5185547 0.26000977
vt 0.5239258 0.2286377
vt 0.3876953 0.4880371
vt 0.56933594 0.4189453
vt 0.5205078 0.4387207
vt 0.5263672 0.44799805
vt 0.48242188 0.4814453
vt 0.4873047 0.48999023
vt 0.5307617 0.4572754
vt 0.4326172 0.5058594
vt 0.47729492 0.47216797
vt 0.5756836 0.4272461
vt 0.5805664 0.43432617
vt 0.7260742 0.68896484
vt 0.71972656 0.72021484
vt 0.7314453 0.7158203
vt 0.80322266 0.6777344
vt 0.82470703 0.67822266
vt 0.7602539 0.63720703
vt 0.7661133 0.671875
vt 0.7832031 0.66552734
vt 0.7680664 0.6333008
vt 0.77246094 0.82910156
vt 0.7871094 0.7998047
vt 0.7739258 0.8095703
vt 0.6484375 0.80322266
vt 0.70458984 0.8588867
vt 0.69433594 0.86816406
vt 0.68408203 0.86035156
vt 0.66748047 0.8544922
vt 0.6557617 0.88720703
vt 0.6616211 0.89404297
vt 0.828125 0.7416992
vt 0.8569336 0.73291016
vt 0.79052734 0.76708984
vt 0.80078125 0.76123047
vt 0.7993164 0.7578125
vt 0.68066406 0.7631836
vt 0.69091797 0.7817383
vt 0.7397461 0.7705078
vt 0.73339844 0.75439453
vt 0.65771484 0.79052734
vt 0.6464844 0.7705078
vt 0.6635742 0.8017578
vt 0.6850586 0.83740234
vt 0.70166016 0.8286133
vt 0.6850586 0.8515625
vt 0.6738281 0.84765625
vt 0.7529297 0.5932617
vt 0.6567383 0.7109375
vt 0.6489258 0.68066406
vt 0.6386719 0.71777344
vt 0.6694336 0.61376953
vt 0.6591797 0.6171875
vt 0.640625 0.6821289
vt 0.73095703 0.6489258
vt 0.7338867 0.6713867
vt 0.7368164 0.5551758
vt 0.7363281 0.5620117
vt 0.67285156 0.57128906
vt 0.6894531 0.5678711
vt 0.6791992 0.56347656
vt 0.72265625 0.6899414
vt 0.68408203 0.6669922
vt 0.6713867 0.7080078
vt 0.62939453 0.7192383
vt 0.74316406 0.71191406
vt 0.76953125 0.69873047
vt 0.7685547 0.69189453
vt 0.6645508 0.7348633
vt 0.7207031 0.7104492
vt 0.66308594 0.7294922
vt 0.6386719 0.74365234
vt 0.6298828 0.74316406
vt 0.7783203 0.8569336
vt 0.78222656 0.78125
vt 0.7910156 0.77783203
vt 0.6972656 0.7939453
vt 0.72216797 0.7949219
vt 0.8623047 0.7207031
vt 0.78808594 0.67626953
vt 0.83447266 0.78125
vt 0.8334961 0.7949219
vt 0.7841797 0.87402344
vt 0.6616211 0.85058594
vt 0.6479492 0.87597656
vt 0.62890625 0.9194336
vt 0.62402344 0.9135742
vt 0.6411133 0.79296875
vt 0.62646484 0.7753906
vt 0.73339844 0.59765625
vt 0.7109375 0.60009766
vt 0.7451172 0.5654297
vt 0.7270508 0.57910156
vt 0.6855469 0.5595703
vt 0.7167969 0.56347656
vt 0.7163086 0.5551758
vt 0.73779297 0.8413086
vt 0.7392578 0.8461914
vt 0.76220703 0.8334961
vt 0.7583008 0.8251953
vt 0.7084961 0.8466797
vt 0.66796875 0.8408203
vt 0.67871094 0.57666016
vt 0.7578125 0.7753906
vt 0.7739258 0.7709961
vt 0.77001953 0.7685547
vt 0.7480469 0.796875
vt 0.7314453 0.8222656
vt 0.7685547 0.78515625
vt 0.6948242 0.7890625
vt 0.74072266 0.7753906
vt 0.6621094 0.7988281
vt 0.71191406 0.85498047
vt 0.7963867 0.82177734
vt 0.79589844 0.84814453
vt 0.7939453 0.87353516
vt 0.81884766 0.7866211
vt 0.82714844 0.7651367
vt 0.8154297 0.76953125
vt 0.79345703 0.7963867
vt 0.6376953 0.7548828
vt 0.6142578 0.7470703
vt 0.6171875 0.76123047
vt 0.6689453 0.74365234
vt 0.7241211 0.7294922
vt 0.7519531 0.7207031
vt 0.77734375 0.7109375
vt 0.8100586 0.6923828
vt 0.8413086 0.6850586
vt 0.83251953 0.6796875
vt 0.8383789 0.6772461
vt 0.76416016 0.76464844
vt 0.7553711 0.74853516
vt 0.79589844 0.75
vt 0.7885742 0.7348633
vt 0.8256836 0.73339844
vt 0.8198242 0.71777344
vt 0.8540039 0.72314453
vt 0.8486328 0.7080078
vt 0.859375 0.703125
vt 0.8203125 0.75146484
vt 0.7416992 0.7792969
vt 0.81152344 0.75634766
vt 0.6689453 0.671875
vt 0.69921875 0.6010742
vt 0.71240234 0.58154297
vt 0.6171875 0.7207031
vt 0.62890625 0.6845703
vt 0.8227539 0.8041992
vt 0.79785156 0.8095703
vt 0.8510742 0.68359375
vt 0.8129883 0.8066406
vt 0.80615234 0.7915039
vt 0.8022461 0.7739258
vt 0.24523926 0.6870117
vt 0.2541504 0.69921875
vt 0.28515625 0.68115234
vt 0.28027344 0.6743164
vt 0.23291016 0.7182617
vt 0.22021484 0.7026367
vt 0.19641113 0.78027344
vt 0.17736816 0.7597656
vt 0.17419434 0.7988281
vt 0.18786621 0.82714844
vt 0.18933105 0.8041992
vt 0.20690918 0.74560547
vt 0.1907959 0.7285156
vt 0.28051758 0.7993164
vt 0.27905273 0.8046875
vt 0.22229004 0.7817383
vt 0.24743652 0.79296875
vt 0.25512695 0.78271484
vt 0.23083496 0.7651367
vt 0.21948242 0.8129883
vt 0.21032715 0.8310547
vt 0.30126953 0.6777344
vt 0.30737305 0.7084961
vt 0.32495117 0.7246094
vt 0.28979492 0.79248047
vt 0.22363281 0.7241211
vt 0.24707031 0.7495117
vt 0.2553711 0.74560547
vt 0.21020508 0.7109375
vt 0.21142578 0.8378906
vt 0.2331543 0.85546875
vt 0.27001953 0.7729492
vt 0.26757812 0.7246094
vt 0.2849121 0.7104492
vt 0.3395996 0.71191406
vt 0.3239746 0.6894531
vt 0.33618164 0.74609375
vt 0.34326172 0.7426758
vt 0.17346191 0.84228516
vt 0.18066406 0.8544922
vt 0.21740723 0.8779297
vt 0.2253418 0.8803711
vt 0.24719238 0.8779297
vt 0.2487793 0.86035156
vt 0.23095703 0.79296875
vt 0.296875 0.7060547
vt 0.30786133 0.6713867
vt 0.18652344 0.8461914
vt 0.22546387 0.8696289
vt 0.24633789 0.8691406
vt 0.33203125 0.7163086
vt 0.31811523 0.6948242
vt 0.33984375 0.7446289
vt 0.19628906 0.77001953
vn -0 0 -1
vn -0 0 -1
vn -0 0 -1
vn -0 0 -1
vn -0 0 -1
vn -0 0 -1
vn -0 0 -1
vn -0 0 -1
vn -0 0 -1
vn -0 0 -1
vn -0 0 -1
vn -0 0 -1
vn -0 0 -1
vn -0 0 -1
vn -0 0 -1
vn -0 0 -1
vn -0 0 -1
vn -0 0 -1
vn -0 0 -1
vn -0 0 -1
vn -0 0 -1
vn -0 0 -1
vn -0 0 -1
vn -0 0 -1
vn -0 0 -1
vn -0 0 -1
vn -0 0 -1
vn -0 0 -1
vn -0 0 -1
vn -0 0 -1
vn -0 0 -1
vn -0 0 -1
vn -0 0 -1
vn -0 0 -1
vn -0 0 -1
vn -0 0 -1
vn -0 0 -1
vn -0 0 -1
vn -0 0 -1
vn -0 0 -1
vn -0 0 -1
vn -0 0 -1
vn -0 0 -1
vn -0 0 -1
vn -0 0 -1
vn -0 0 -1
vn -0 0 -1
vn -0 0 -1
vn -0 0 -1
vn -0 0 -1
vn -0 0 -1
vn -0 0 -1
vn -0 0 -1
vn -0 0 -1
vn -0 0 -1
vn -0 0 -1
vn -0 0 -1
vn -0 0 -1
vn -0 0 -1
vn -0 0 -1
vn -0 0 -1
vn -0 0 -1
vn -0 0 -1
vn -0 0 -1
vn -0 0 -1
vn -0 0 -1
vn -0 0 -1
vn -0 0 -1
vn -0 0 -1
vn -0 0 -1
vn -0 0 -1
vn -0 0 -1
vn -0 0 -1
vn -0 0 -1
vn -0 0 -1
vn -0 0 -1
vn -0 0 -1
vn -0 0 -1
vn -0 0 -1
vn -0 0 -1
vn -0 0 -1
vn -0 0 -1
vn -0 0 -1
vn -0 0 -1
vn -0 0 -1
vn -0 0 -1
vn -0 0 -1
vn -0 0 -1
vn -0 0 -1
vn -0 0 -1
vn -0 0 -1
vn -0 0 -1
vn -0 0 -1
vn -0 0 -1
vn -0 0 -1
vn -0 0 -1
vn -0 0 -1
vn -0 0 -1
vn -0 0 -1
vn -0 0 -1
vn -0 0 -1
vn -0 0 -1
vn -0 0 -1
vn -0 0 -1
vn -0 0 -1
vn -0 0 -1
vn -0 0 -1
vn -0 0 -1
vn -0 0 -1
vn -0 0 -1
vn -0 0 -1
vn -0 0 -1
vn -0 0 -1
vn -0 0 -1
vn -0 0 -1
vn -0 0 -1
vn -0 0 -1
vn -0 0 -1
vn -0 0 -1
vn -0 0 -1
vn -0 0 -1
vn -0 0 -1
vn -0 0 -1
vn -0 0 -1
vn -0 0 -1
vn -0 0 -1
vn -0 0 -1
vn -0 0 -1
vn -0 0 -1
vn -0 0 -1
vn -0 0 -1
vn -0 0 -1
vn -0 0 -1
vn -0 0 -1
vn -0 0 -1
vn -0 0 -1
vn -0 0 -1
vn -0 0 -1
vn -0 0 -1
vn -0 0 -1
vn -0 0 -1
vn -0 0 -1
vn -0 0 -1
vn -0 0 -1
vn -0 0 -1
vn -0 0 -1
vn -0 0 -1
vn -0 0 -1
vn -0 0 -1
vn -0 0 -1
vn -0 0 -1
vn -0 0 -1
vn -0 0 -1
vn -0 0 -1
vn -0 0 -1
vn -0 0 -1
vn -0 0 -1
vn -0 0 -1
vn -0 0 -1
vn -0 0 -1
vn -0 0 -1
vn -0 0 -1
vn -0 0 -1
vn -0 0 -1
vn -0 0 -1
vn -0 0 -1
vn -0 0 -1
vn -0 0 -1
vn -0 0 -1
vn -0 0 -1
vn -0 0 -1
vn -0 0 -1
vn -0 0 -1
vn -0 0 -1
vn -0 0 -1
vn -0 0 -1
vn -0 0 -1
vn -0 0 -1
vn -0 0 -1
vn -0 0 -1
vn -0 0 -1
vn -0 0 -1
vn -0 0 -1
vn -0 0 -1
vn -0 0 -1
vn -0 0 -1
vn -0 0 -1
vn -0 0 -1
vn -0 0 -1
vn -0 0 -1
vn -0 0 -1
vn -0 0 -1
vn -0 0 -1
vn -0 0 -1
vn -0 0 -1
vn -0 0 -1
vn -0 0 -1
vn -0 0 -1
vn -0 0 -1
vn -0 0 -1
vn -0 0 -1
vn -0 0 -1
vn -0 0 -1
vn -0 0 -1
vn -0 0 -1
vn -0 0 -1
vn -0 0 -1
vn -0 0 -1
vn -0 0 -1
vn -0 0 -1
vn -0 0 -1
vn -0 0 -1
vn -0 0 -1
vn -0 0 -1
vn -0 0 -1
vn -0 0 -1
vn -0 0 -1
vn -0 0 -1
vn -0 0 -1
vn -0 0 -1
vn -0 0 -1
vn -0 0 -1
vn -0 0 -1
vn -0 0 -1
vn -0 0 -1
vn -0 0 -1
vn -0 0 -1
vn -0 0 -1
vn -0 0 -1
vn -0 0 -1
vn -0 0 -1
vn -0 0 -1
vn -0 0 -1
vn -0 0 -1
vn -0 0 -1
vn -0 0 -1
vn -0 0 -1
vn -0 0 -1
vn -0 0 -1
vn -0 0 -1
vn -0 0 -1
vn -0 0 -1
vn -0 0 -1
vn -0 0 -1
vn -0 0 -1
vn -0 0 -1
vn -0 0 -1
vn -0 0 -1
vn -0 0 -1
vn -0 0 -1
vn -0 0 -1
vn -0 0 -1
vn -0 0 -1
vn -0 0 -1
vn -0 0 -1
vn -0 0 -1
vn -0 0 -1
vn -0 0 -1
vn -0 0 -1
vn -0 0 -1
vn -0 0 -1
vn -0 0 -1
vn -0 0 -1
vn -0 0 -1
vn -0 0 -1
vn -0 0 -1
vn -0 0 -1
vn -0 0 -1
vn -0 0 -1
vn -0 0 -1
vn -0 0 -1
vn -0 0 -1
vn -0 0 -1
vn -0 0 -1
vn -0 0 -1
vn -0 0 -1
vn -0 0 -1
vn -0 0 -1
vn -0 0 -1
vn -0 0 -1
vn -0 0 -1
vn -0 0 -1
vn -0 0 -1
vn -0 0 -1
vn -0 0 -1
vn -0 0 -1
vn -0 0 -1
vn -0 0 -1
vn -0 0 -1
vn -0 0 -1
vn -0 0 -1
vn -0 0 -1
vn -0 0 -1
vn -0 0 -1
vn -0 0 -1
vn -0 0 -1
vn -0 0 -1
vn -0 0 -1
vn -0 0 -1
vn -0 0 -1
vn -0 0 -1
vn -0 0 -1
vn -0 0 -1
vn -0 0 -1
vn -0 0 -1
vn -0 0 -1
vn -0 0 -1
vn -0 0 -1
vn -0 0 -1
vn -0 0 -1
vn -0 0 -1
vn -0 0 -1
vn -0 0 -1
vn -0 0 -1
vn -0 0 -1
vn -0 0 -1
vn -0 0 -1
vn -0 0 -1
vn -0 0 -1
vn -0 0 -1
vn -0 0 -1
vn -0 0 -1
vn -0 0 -1
vn -0 0 -1
vn -0 0 -1
vn -0 0 -1
vn -0 0 -1
vn -0 0 -1
vn -0 0 -1
vn -0 0 -1
vn -0 0 -1
vn -0 0 -1
vn -0 0 -1
vn -0 0 -1
vn -0 0 -1
vn -0 0 -1
vn -0 0 -1
vn -0 0 -1
vn -0 0 -1
vn -0 0 -1
vn -0 0 -1
vn -0 0 -1
vn -0 0 -1
vn -0 0 -1
vn -0 0 -1
vn -0 0 -1
vn -0 0 -1
vn -0 0 -1
vn -0 0 -1
vn -0 0 -1
vn -0 0 -1
vn -0 0 -1
vn -0 0 -1
vn -0 0 -1
vn -0 0 -1
vn -0 0 -1
vn -0 0 -1
vn -0 0 -1
vn -0 0 -1
vn -0 0 -1
vn -0 0 -1
vn -0 0 -1
vn -0 0 -1
vn -0 0 -1
vn -0 0 -1
vn -0 0 -1
vn -0 0 -1
vn -0 0 -1
vn -0 0 -1
vn -0 0 -1
vn -0 0 -1
vn -0 0 -1
vn -0 0 -1
vn -0 0 -1
vn -0 0 -1
vn -0 0 -1
vn -0 0 -1
vn -0 0 -1
vn -0 0 -1
vn -0 0 -1
vn -0 0 -1
vn -0 0 -1
vn -0 0 -1
vn -0 0 -1
vn -0 0 -1
vn -0 0 -1
vn -0 0 -1
vn -0 0 -1
vn -0 0 -1
vn -0 0 -1
vn -0 0 -1
vn -0 0 -1
vn -0 0 -1
vn -0 0 -1
vn -0 0 -1
vn -0 0 -1
vn -0 0 -1
vn -0 0 -1
vn -0 0 -1
vn -0 0 -1
vn -0 0 -1
vn -0 0 -1
vn -0 0 -1
vn -0 0 -1
vn -0 0 -1
vn -0 0 -1
vn -0 0 -1
vn -0 0 -1
vn -0 0 -1
vn -0 0 -1
vn -0 0 -1
vn -0 0 -1
vn -0 0 -1
vn -0 0 -1
vn -0 0 -1
vn -0 0 -1
vn -0 0 -1
vn -0 0 -1
vn -0 0 -1
vn -0 0 -1
vn -0 0 -1
vn -0 0 -1
vn -0 0 -1
vn -0 0 -1
vn -0 0 -1
vn -0 0 -1
vn -0 0 -1
vn -0 0 -1
vn -0 0 -1
vn -0 0 -1
vn -0 0 -1
vn -0 0 -1
vn -0 0 -1
vn -0 0 -1
vn -0 0 -1
vn -0 0 -1
vn -0 0 -1
vn -0 0 -1
vn -0 0 -1
vn -0 0 -1
vn -0 0 -1
vn -0 0 -1
vn -0 0 -1
vn -0 0 -1
vn -0 0 -1
vn -0 0 -1
vn -0 0 -1
vn -0 0 -1
vn -0 0 -1
vn -0 0 -1
vn -0 0 -1
vn -0 0 -1
vn -0 0 -1
vn -0 0 -1
vn -0 0 -1
vn -0 0 -1
vn -0 0 -1
vn -0 0 -1
vn -0 0 -1
vn -0 0 -1
vn -0 0 -1
vn -0 0 -1
vn -0 0 -1
vn -0 0 -1
vn -0 0 -1
vn -0 0 -1
vn -0 0 -1
vn -0 0 -1
vn -0 0 -1
vn -0 0 -1
vn -0 0 -1
vn -0 0 -1
vn -0 0 -1
vn -0 0 -1
vn -0 0 -1
vn -0 0 -1
vn -0 0 -1
vn -0 0 -1
vn -0 0 -1
vn -0 0 -1
vn -0 0 -1
vn -0 0 -1
vn -0 0 -1
vn -0 0 -1
vn -0 0 -1
vn -0 0 -1
vn -0 0 -1
vn -0 0 -1
vn -0 0 -1
vn -0 0 -1
vn -0 0 -1
vn -0 0 -1
vn -0 0 -1
vn -0 0 -1
vn -0 0 -1
vn -0 0 -1
vn -0 0 -1
vn -0 0 -1
vn -0 0 -1
vn -0 0 -1
vn -0 0 -1
vn -0 0 -1
vn -0 0 -1
vn -0 0 -1
vn -0 0 -1
vn -0 0 -1
vn -0 0 -1
vn -0 0 -1
vn -0 0 -1
vn -0 0 -1
vn -0 0 -1
vn -0 0 -1
vn -0 0 -1
vn -0 0 -1
vn -0 0 -1
vn -0 0 -1
vn -0 0 -1
vn -0 0 -1
vn -0 0 -1
vn -0 0 -1
vn -0 0 -1
vn -0 0 -1
vn -0 0 -1
vn -0 0 -1
vn -0 0 -1
vn -0 0 -1
vn -0 0 -1
vn -0 0 -1
vn -0 0 -1
vn -0 0 -1
vn -0 0 -1
vn -0 0 -1
vn -0 0 -1
vn -0 0 -1
vn -0 0 -1
vn -0 0 -1
vn -0 0 -1
vn -0 0 -1
vn -0 0 -1
vn -0 0 -1
vn -0 0 -1
vn -0 0 -1
vn -0 0 -1
vn -0 0 -1
g polySurface2_0
f 3/3/3 2/2/2 1/1/1
f 6/6/6 5/5/5 4/4/4
f 7/7/7 6/6/6 4/4/4
f 10/10/10 9/9/9 8/8/8
f 11/11/11 10/10/10 8/8/8
f 14/14/14 13/13/13 12/12/12
f 16/16/16 12/12/12 15/15/15
f 18/18/18 5/5/5 17/17/17
f 18/18/18 19/19/19 5/5/5
f 21/21/21 13/13/13 20/20/20
f 24/24/24 23/23/23 22/22/22
f 26/26/26 22/22/22 25/25/25
f 27/27/27 26/26/26 25/25/25
f 28/28/28 14/14/14 23/23/23
f 30/30/30 29/29/29 12/12/12
f 33/33/33 32/32/32 31/31/31
f 34/34/34 33/33/33 31/31/31
f 36/36/36 35/35/35 21/21/21
f 37/37/37 36/36/36 21/21/21
f 30/30/30 21/21/21 35/35/35
f 37/37/37 21/21/21 20/20/20
f 39/39/39 15/15/15 38/38/38
f 16/16/16 39/39/39 40/40/40
f 10/10/10 11/11/11 26/26/26
f 27/27/27 10/10/10 26/26/26
f 42/42/42 1/1/1 41/41/41
f 43/43/43 42/42/42 41/41/41
f 44/44/44 39/39/39 38/38/38
f 32/32/32 33/33/33 45/45/45
f 46/46/46 32/32/32 45/45/45
f 32/32/32 35/35/35 36/36/36
f 31/31/31 32/32/32 36/36/36
f 21/21/21 12/12/12 13/13/13
f 25/25/25 22/22/22 14/14/14
f 4/4/4 5/5/5 47/47/47
f 50/50/50 49/49/49 48/48/48
f 52/52/52 13/13/13 51/51/51
f 53/53/53 52/52/52 51/51/51
f 56/56/56 55/55/55 54/54/54
f 57/57/57 56/56/56 54/54/54
f 58/58/58 57/57/57 54/54/54
f 59/59/59 58/58/58 54/54/54
f 62/62/62 61/61/61 60/60/60
f 51/51/51 62/62/62 60/60/60
f 63/63/63 22/22/22 26/26/26
f 59/59/59 54/54/54 64/64/64
f 65/65/65 59/59/59 64/64/64
f 55/55/55 66/66/66 64/64/64
f 54/54/54 55/55/55 64/64/64
f 68/68/68 67/67/67 20/20/20
f 71/71/71 70/70/70 69/69/69
f 72/72/72 71/71/71 69/69/69
f 47/47/47 5/5/5 19/19/19
f 39/39/39 44/44/44 40/40/40
f 44/44/44 38/38/38 73/73/73
f 74/74/74 41/41/41 2/2/2
f 74/74/74 2/2/2 75/75/75
f 2/2/2 3/3/3 76/76/76
f 75/75/75 2/2/2 76/76/76
f 50/50/50 78/78/78 77/77/77
f 42/42/42 43/43/43 77/77/77
f 81/81/81 80/80/80 79/79/79
f 82/82/82 81/81/81 79/79/79
f 82/82/82 84/84/84 83/83/83
f 81/81/81 82/82/82 83/83/83
f 83/83/83 84/84/84 85/85/85
f 87/87/87 65/65/65 86/86/86
f 88/88/88 86/86/86 65/65/65
f 90/90/90 89/89/89 64/64/64
f 88/88/88 64/64/64 89/89/89
f 88/88/88 65/65/65 64/64/64
f 5/5/5 6/6/6 17/17/17
f 16/16/16 15/15/15 39/39/39
f 18/18/18 40/40/40 19/19/19
f 16/16/16 40/40/40 18/18/18
f 71/71/71 72/72/72 68/68/68
f 29/29/29 38/38/38 15/15/15
f 29/29/29 15/15/15 12/12/12
f 25/25/25 14/14/14 12/12/12
f 27/27/27 25/25/25 12/12/12
f 16/16/16 27/27/27 12/12/12
f 16/16/16 18/18/18 10/10/10
f 27/27/27 16/16/16 10/10/10
f 18/18/18 17/17/17 9/9/9
f 10/10/10 18/18/18 9/9/9
f 69/69/69 92/92/92 91/91/91
f 72/72/72 93/93/93 67/67/67
f 53/53/53 94/94/94 71/71/71
f 52/52/52 53/53/53 71/71/71
f 72/72/72 67/67/67 68/68/68
f 93/93/93 69/69/69 91/91/91
f 93/93/93 72/72/72 69/69/69
f 94/94/94 95/95/95 70/70/70
f 71/71/71 94/94/94 70/70/70
f 63/63/63 26/26/26 42/42/42
f 26/26/26 11/11/11 1/1/1
f 42/42/42 26/26/26 1/1/1
f 8/8/8 1/1/1 11/11/11
f 8/8/8 3/3/3 1/1/1
f 78/78/78 48/48/48 63/63/63
f 78/78/78 63/63/63 42/42/42
f 78/78/78 42/42/42 77/77/77
f 50/50/50 48/48/48 78/78/78
f 80/80/80 61/61/61 62/62/62
f 79/79/79 80/80/80 62/62/62
f 28/28/28 23/23/23 57/57/57
f 58/58/58 28/28/28 57/57/57
f 57/57/57 23/23/23 24/24/24
f 56/56/56 57/57/57 24/24/24
f 51/51/51 13/13/13 14/14/14
f 14/14/14 28/28/28 62/62/62
f 51/51/51 14/14/14 62/62/62
f 62/62/62 28/28/28 58/58/58
f 79/79/79 62/62/62 58/58/58
f 79/79/79 58/58/58 59/59/59
f 82/82/82 79/79/79 59/59/59
f 59/59/59 65/65/65 84/84/84
f 82/82/82 59/59/59 84/84/84
f 96/96/96 65/65/65 87/87/87
f 14/14/14 22/22/22 23/23/23
f 52/52/52 71/71/71 68/68/68
f 52/52/52 20/20/20 13/13/13
f 20/20/20 52/52/52 68/68/68
f 66/66/66 97/97/97 90/90/90
f 96/96/96 98/98/98 85/85/85
f 84/84/84 96/96/96 85/85/85
f 96/96/96 84/84/84 65/65/65
f 96/96/96 87/87/87 98/98/98
f 24/24/24 22/22/22 63/63/63
f 24/24/24 63/63/63 48/48/48
f 49/49/49 99/99/99 55/55/55
f 56/56/56 49/49/49 55/55/55
f 55/55/55 99/99/99 100/100/100
f 66/66/66 90/90/90 64/64/64
f 55/55/55 100/100/100 66/66/66
f 100/100/100 97/97/97 66/66/66
f 49/49/49 56/56/56 48/48/48
f 56/56/56 24/24/24 48/48/48
f 2/2/2 41/41/41 1/1/1
f 37/37/37 20/20/20 67/67/67
f 67/67/67 93/93/93 36/36/36
f 37/37/37 67/67/67 36/36/36
f 31/31/31 36/36/36 93/93/93
f 91/91/91 31/31/31 93/93/93
f 31/31/31 91/91/91 101/101/101
f 34/34/34 31/31/31 101/101/101
f 46/46/46 45/45/45 73/73/73
f 38/38/38 46/46/46 73/73/73
f 46/46/46 38/38/38 29/29/29
f 53/53/53 60/60/60 102/102/102
f 104/104/104 103/103/103 95/95/95
f 94/94/94 104/104/104 95/95/95
f 53/53/53 51/51/51 60/60/60
f 102/102/102 104/104/104 94/94/94
f 53/53/53 102/102/102 94/94/94
f 30/30/30 46/46/46 29/29/29
f 35/35/35 32/32/32 46/46/46
f 30/30/30 35/35/35 46/46/46
f 21/21/21 30/30/30 12/12/12
g polySurface2_1
f 40/40/40 73/73/73 105/105/105
f 61/61/61 106/106/106 60/60/60
f 108/108/108 77/77/77 107/107/107
f 74/74/74 109/109/109 41/41/41
f 43/43/43 41/41/41 109/109/109
f 107/107/107 43/43/43 109/109/109
f 44/44/44 73/73/73 40/40/40
f 75/75/75 76/76/76 110/110/110
f 61/61/61 80/80/80 111/111/111
f 106/106/106 61/61/61 111/111/111
f 90/90/90 97/97/97 112/112/112
f 88/88/88 89/89/89 113/113/113
f 86/86/86 115/115/115 114/114/114
f 87/87/87 86/86/86 114/114/114
f 83/83/83 117/117/117 116/116/116
f 81/81/81 83/83/83 116/116/116
f 85/85/85 118/118/118 117/117/117
f 83/83/83 85/85/85 117/117/117
f 98/98/98 119/119/119 118/118/118
f 85/85/85 98/98/98 118/118/118
f 87/87/87 114/114/114 119/119/119
f 98/98/98 87/87/87 119/119/119
f 40/40/40 105/105/105 120/120/120
f 74/74/74 75/75/75 110/110/110
f 99/99/99 49/49/49 108/108/108
f 100/100/100 122/122/122 121/121/121
f 97/97/97 121/121/121 112/112/112
f 99/99/99 108/108/108 122/122/122
f 81/81/81 116/116/116 111/111/111
f 80/80/80 81/81/81 111/111/111
f 19/19/19 40/40/40 120/120/120
f 19/19/19 120/120/120 123/123/123
f 47/47/47 19/19/19 123/123/123
f 4/4/4 47/47/47 123/123/123
f 7/7/7 4/4/4 124/124/124
f 107/107/107 77/77/77 43/43/43
f 108/108/108 49/49/49 50/50/50
f 97/97/97 100/100/100 121/121/121
f 100/100/100 99/99/99 122/122/122
f 112/112/112 89/89/89 90/90/90
f 112/112/112 113/113/113 89/89/89
f 115/115/115 86/86/86 88/88/88
f 115/115/115 88/88/88 113/113/113
f 102/102/102 60/60/60 106/106/106
f 102/102/102 106/106/106 125/125/125
f 104/104/104 102/102/102 125/125/125
f 104/104/104 125/125/125 126/126/126
f 103/103/103 104/104/104 126/126/126
f 109/109/109 74/74/74 110/110/110
f 108/108/108 50/50/50 77/77/77
f 4/4/4 123/123/123 124/124/124
g polySurface2_2
f 129/129/129 128/128/128 127/127/127
f 92/92/92 130/130/130 91/91/91
f 133/133/133 132/132/132 131/131/131
f 134/134/134 133/133/133 131/131/131
f 129/129/129 127/127/127 135/135/135
f 132/132/132 137/137/137 136/136/136
f 131/131/131 132/132/132 136/136/136
f 137/137/137 130/130/130 92/92/92
f 136/136/136 137/137/137 92/92/92
f 140/140/140 139/139/139 138/138/138
f 134/134/134 141/141/141 140/140/140
f 133/133/133 134/134/134 140/140/140
f 101/101/101 91/91/91 130/130/130
f 144/144/144 143/143/143 142/142/142
f 145/145/145 144/144/144 142/142/142
f 148/148/148 147/147/147 146/146/146
f 130/130/130 143/143/143 144/144/144
f 101/101/101 130/130/130 144/144/144
f 145/145/145 142/142/142 147/147/147
f 148/148/148 145/145/145 147/147/147
f 149/149/149 148/148/148 146/146/146
f 149/149/149 146/146/146 150/150/150
f 151/151/151 149/149/149 150/150/150
f 152/152/152 151/151/151 150/150/150
f 153/153/153 152/152/152 150/150/150
f 153/153/153 155/155/155 154/154/154
f 152/152/152 153/153/153 154/154/154
f 154/154/154 155/155/155 156/156/156
f 157/157/157 154/154/154 156/156/156
f 156/156/156 105/105/105 158/158/158
f 157/157/157 156/156/156 158/158/158
f 158/158/158 105/105/105 73/73/73
f 103/103/103 126/126/126 159/159/159
f 160/160/160 103/103/103 159/159/159
f 160/160/160 159/159/159 161/161/161
f 162/162/162 160/160/160 161/161/161
f 162/162/162 161/161/161 129/129/129
f 163/163/163 162/162/162 129/129/129
f 163/163/163 129/129/129 135/135/135
f 164/164/164 127/127/127 128/128/128
f 167/167/167 166/166/166 165/165/165
f 168/168/168 167/167/167 165/165/165
f 169/169/169 168/168/168 165/165/165
f 171/171/171 169/169/169 170/170/170
f 172/172/172 171/171/171 170/170/170
f 174/174/174 172/172/172 173/173/173
f 169/169/169 165/165/165 170/170/170
f 172/172/172 170/170/170 173/173/173
f 167/167/167 175/175/175 166/166/166
f 167/167/167 164/164/164 175/175/175
f 164/164/164 128/128/128 175/175/175
f 140/140/140 141/141/141 139/139/139
f 178/178/178 177/177/177 176/176/176
f 181/181/181 180/180/180 179/179/179
f 184/184/184 183/183/183 182/182/182
f 187/187/187 186/186/186 185/185/185
f 190/190/190 189/189/189 188/188/188
f 188/188/188 191/191/191 190/190/190
f 191/191/191 192/192/192 190/190/190
f 195/195/195 194/194/194 193/193/193
f 196/196/196 195/195/195 193/193/193
f 199/199/199 198/198/198 197/197/197
f 200/200/200 199/199/199 197/197/197
f 203/203/203 202/202/202 201/201/201
f 202/202/202 176/176/176 204/204/204
f 207/207/207 206/206/206 205/205/205
f 210/210/210 209/209/209 208/208/208
f 211/211/211 210/210/210 208/208/208
f 213/213/213 212/212/212 186/186/186
f 187/187/187 213/213/213 186/186/186
f 214/214/214 205/205/205 209/209/209
f 216/216/216 182/182/182 215/215/215
f 217/217/217 216/216/216 215/215/215
f 218/218/218 193/193/193 194/194/194
f 217/217/217 215/215/215 192/192/192
f 191/191/191 217/217/217 192/192/192
f 220/220/220 189/189/189 219/219/219
f 222/222/222 221/221/221 201/201/201
f 225/225/225 224/224/224 223/223/223
f 227/227/227 197/197/197 226/226/226
f 228/228/228 203/203/203 201/201/201
f 230/230/230 184/184/184 229/229/229
f 231/231/231 211/211/211 208/208/208
f 232/232/232 231/231/231 208/208/208
f 184/184/184 182/182/182 216/216/216
f 230/230/230 183/183/183 184/184/184
f 202/202/202 204/204/204 201/201/201
f 233/233/233 223/223/223 224/224/224
f 234/234/234 227/227/227 226/226/226
f 235/235/235 234/234/234 226/226/226
f 236/236/236 235/235/235 226/226/226
f 239/239/239 238/238/238 237/237/237
f 235/235/235 236/236/236 239/239/239
f 240/240/240 235/235/235 239/239/239
f 243/243/243 242/242/242 241/241/241
f 244/244/244 243/243/243 241/241/241
f 245/245/245 244/244/244 241/241/241
f 245/245/245 241/241/241 246/246/246
f 247/247/247 233/233/233 224/224/224
f 238/238/238 248/248/248 237/237/237
f 239/239/239 237/237/237 240/240/240
f 242/242/242 243/243/243 248/248/248
f 238/238/238 242/242/242 248/248/248
f 249/249/249 245/245/245 246/246/246
f 250/250/250 249/249/249 246/246/246
f 252/252/252 233/233/233 251/251/251
f 249/249/249 250/250/250 252/252/252
f 253/253/253 249/249/249 252/252/252
f 253/253/253 252/252/252 251/251/251
f 254/254/254 225/225/225 223/223/223
f 257/257/257 256/256/256 255/255/255
f 259/259/259 255/255/255 258/258/258
f 261/261/261 259/259/259 260/260/260
f 262/262/262 261/261/261 177/177/177
f 255/255/255 256/256/256 258/258/258
f 256/256/256 254/254/254 223/223/223
f 261/261/261 260/260/260 177/177/177
f 259/259/259 258/258/258 260/260/260
f 178/178/178 262/262/262 177/177/177
f 207/207/207 205/205/205 214/214/214
f 210/210/210 214/214/214 209/209/209
f 222/222/222 206/206/206 221/221/221
f 222/222/222 205/205/205 206/206/206
f 263/263/263 185/185/185 183/183/183
f 263/263/263 187/187/187 185/185/185
f 232/232/232 264/264/264 212/212/212
f 213/213/213 232/232/232 212/212/212
f 220/220/220 219/219/219 180/180/180
f 265/265/265 220/220/220 180/180/180
f 181/181/181 265/265/265 180/180/180
f 219/219/219 189/189/189 190/190/190
f 181/181/181 179/179/179 193/193/193
f 193/193/193 266/266/266 181/181/181
f 193/193/193 218/218/218 266/266/266
f 267/267/267 198/198/198 199/199/199
f 267/267/267 196/196/196 198/198/198
f 195/195/195 196/196/196 267/267/267
f 200/200/200 197/197/197 227/227/227
f 233/233/233 247/247/247 251/251/251
f 230/230/230 263/263/263 183/183/183
f 232/232/232 208/208/208 264/264/264
f 202/202/202 178/178/178 176/176/176
f 221/221/221 228/228/228 201/201/201
f 257/257/257 254/254/254 256/256/256
f 270/270/270 269/269/269 268/268/268
f 273/273/273 272/272/272 271/271/271
f 276/276/276 275/275/275 274/274/274
f 277/277/277 276/276/276 274/274/274
f 270/270/270 279/279/279 278/278/278
f 269/269/269 270/270/270 278/278/278
f 282/282/282 281/281/281 280/280/280
f 285/285/285 284/284/284 283/283/283
f 286/286/286 285/285/285 283/283/283
f 275/275/275 276/276/276 287/287/287
f 288/288/288 275/275/275 287/287/287
f 291/291/291 290/290/290 289/289/289
f 289/289/289 293/293/293 292/292/292
f 296/296/296 295/295/295 294/294/294
f 298/298/298 297/297/297 280/280/280
f 281/281/281 298/298/298 280/280/280
f 300/300/300 299/299/299 268/268/268
f 301/301/301 278/278/278 279/279/279
f 302/302/302 301/301/301 279/279/279
f 302/302/302 286/286/286 283/283/283
f 301/301/301 302/302/302 283/283/283
f 303/303/303 294/294/294 284/284/284
f 304/304/304 289/289/289 292/292/292
f 289/289/289 290/290/290 293/293/293
f 307/307/307 306/306/306 305/305/305
f 310/310/310 309/309/309 308/308/308
f 313/313/313 312/312/312 311/311/311
f 287/287/287 312/312/312 288/288/288
f 316/316/316 315/315/315 314/314/314
f 312/312/312 313/313/313 288/288/288
f 318/318/318 317/317/317 300/300/300
f 309/309/309 319/319/319 308/308/308
f 320/320/320 305/305/305 306/306/306
f 321/321/321 295/295/295 296/296/296
f 322/322/322 320/320/320 306/306/306
f 323/323/323 322/322/322 306/306/306
f 300/300/300 317/317/317 299/299/299
f 299/299/299 270/270/270 268/268/268
f 304/304/304 292/292/292 306/306/306
f 289/289/289 319/319/319 324/324/324
f 291/291/291 289/289/289 324/324/324
f 309/309/309 324/324/324 319/319/319
f 304/304/304 306/306/306 307/307/307
f 309/309/309 310/310/310 315/315/315
f 325/325/325 310/310/310 308/308/308
f 316/316/316 309/309/309 315/315/315
f 272/272/272 282/282/282 326/326/326
f 327/327/327 316/316/316 314/314/314
f 272/272/272 326/326/326 271/271/271
f 273/273/273 327/327/327 272/272/272
f 303/303/303 296/296/296 294/294/294
f 328/328/328 322/322/322 323/323/323
f 273/273/273 316/316/316 327/327/327
f 282/282/282 280/280/280 326/326/326
f 303/303/303 284/284/284 285/285/285
f 313/313/313 311/311/311 297/297/297
f 298/298/298 313/313/313 297/297/297
f 277/277/277 274/274/274 318/318/318
f 277/277/277 318/318/318 300/300/300
f 328/328/328 323/323/323 321/321/321
f 328/328/328 321/321/321 296/296/296
g polySurface2_3
f 331/331/331 330/330/330 329/329/329
f 332/332/332 331/331/331 329/329/329
f 333/333/333 330/330/330 331/331/331
f 334/334/334 333/333/333 331/331/331
f 45/45/45 33/33/33 330/330/330
f 333/333/333 45/45/45 330/330/330
f 151/151/151 335/335/335 149/149/149
f 151/151/151 337/337/337 336/336/336
f 168/168/168 164/164/164 167/167/167
f 169/169/169 135/135/135 168/168/168
f 171/171/171 338/338/338 169/169/169
f 174/174/174 138/138/138 139/139/139
f 172/172/172 338/338/338 171/171/171
f 34/34/34 329/329/329 330/330/330
f 33/33/33 34/34/34 330/330/330
f 336/336/336 331/331/331 332/332/332
f 335/335/335 336/336/336 332/332/332
f 331/331/331 336/336/336 337/337/337
f 334/334/334 331/331/331 337/337/337
f 136/136/136 92/92/92 69/69/69
f 339/339/339 136/136/136 69/69/69
f 131/131/131 136/136/136 339/339/339
f 340/340/340 131/131/131 339/339/339
f 343/343/343 342/342/342 341/341/341
f 344/344/344 343/343/343 341/341/341
f 345/345/345 338/338/338 134/134/134
f 346/346/346 345/345/345 134/134/134
f 141/141/141 338/338/338 139/139/139
f 135/135/135 127/127/127 164/164/164
f 168/168/168 135/135/135 164/164/164
f 345/345/345 135/135/135 169/169/169
f 139/139/139 338/338/338 172/172/172
f 338/338/338 141/141/141 134/134/134
f 174/174/174 139/139/139 172/172/172
f 339/339/339 69/69/69 70/70/70
f 347/347/347 339/339/339 70/70/70
f 340/340/340 339/339/339 347/347/347
f 341/341/341 340/340/340 347/347/347
f 346/346/346 134/134/134 340/340/340
f 134/134/134 131/131/131 340/340/340
f 347/347/347 70/70/70 95/95/95
f 348/348/348 347/347/347 95/95/95
f 341/341/341 347/347/347 348/348/348
f 344/344/344 341/341/341 348/348/348
f 342/342/342 346/346/346 340/340/340
f 341/341/341 342/342/342 340/340/340
f 101/101/101 144/144/144 329/329/329
f 34/34/34 101/101/101 329/329/329
f 332/332/332 329/329/329 144/144/144
f 145/145/145 332/332/332 144/144/144
f 335/335/335 332/332/332 145/145/145
f 148/148/148 335/335/335 145/145/145
f 149/149/149 335/335/335 148/148/148
f 152/152/152 154/154/154 337/337/337
f 334/334/334 337/337/337 154/154/154
f 157/157/157 334/334/334 154/154/154
f 157/157/157 158/158/158 333/333/333
f 334/334/334 157/157/157 333/333/333
f 158/158/158 73/73/73 45/45/45
f 333/333/333 158/158/158 45/45/45
f 151/151/151 336/336/336 335/335/335
f 151/151/151 152/152/152 337/337/337
f 346/346/346 342/342/342 345/345/345
f 338/338/338 345/345/345 169/169/169
f 343/343/343 135/135/135 345/345/345
f 342/342/342 343/343/343 345/345/345
f 348/348/348 95/95/95 103/103/103
f 160/160/160 348/348/348 103/103/103
f 344/344/344 348/348/348 160/160/160
f 162/162/162 344/344/344 160/160/160
f 162/162/162 163/163/163 343/343/343
f 344/344/344 162/162/162 343/343/343
f 343/343/343 163/163/163 135/135/135
f 351/351/351 350/350/350 349/349/349
f 254/254/254 257/257/257 352/352/352
f 255/255/255 353/353/353 257/257/257
f 356/356/356 355/355/355 354/354/354
f 357/357/357 356/356/356 354/354/354
f 225/225/225 254/254/254 352/352/352
f 360/360/360 359/359/359 358/358/358
f 194/194/194 195/195/195 361/361/361
f 363/363/363 362/362/362 216/216/216
f 217/217/217 363/363/363 216/216/216
f 366/366/366 365/365/365 364/364/364
f 217/217/217 191/191/191 367/367/367
f 363/363/363 217/217/217 367/367/367
f 202/202/202 203/203/203 368/368/368
f 369/369/369 202/202/202 368/368/368
f 372/372/372 371/371/371 370/370/370
f 375/375/375 374/374/374 373/373/373
f 376/376/376 375/375/375 373/373/373
f 373/373/373 374/374/374 377/377/377
f 378/378/378 373/373/373 377/377/377
f 381/381/381 380/380/380 379/379/379
f 382/382/382 364/364/364 365/365/365
f 383/383/383 382/382/382 365/365/365
f 384/384/384 253/253/253 251/251/251
f 387/387/387 386/386/386 385/385/385
f 389/389/389 388/388/388 386/386/386
f 390/390/390 389/389/389 386/386/386
f 355/355/355 392/392/392 391/391/391
f 394/394/394 393/393/393 249/249/249
f 397/397/397 396/396/396 395/395/395
f 399/399/399 391/391/391 398/398/398
f 400/400/400 399/399/399 398/398/398
f 386/386/386 387/387/387 401/401/401
f 390/390/390 386/386/386 401/401/401
f 404/404/404 403/403/403 402/402/402
f 406/406/406 350/350/350 405/405/405
f 407/407/407 406/406/406 405/405/405
f 407/407/407 405/405/405 408/408/408
f 401/401/401 387/387/387 409/409/409
f 391/391/391 354/354/354 355/355/355
f 229/229/229 410/410/410 230/230/230
f 370/370/370 412/412/412 411/411/411
f 414/414/414 381/381/381 413/413/413
f 369/369/369 415/415/415 178/178/178
f 356/356/356 224/224/224 225/225/225
f 416/416/416 356/356/356 225/225/225
f 221/221/221 418/418/418 417/417/417
f 263/263/263 230/230/230 410/410/410
f 419/419/419 263/263/263 410/410/410
f 187/187/187 419/419/419 213/213/213
f 421/421/421 420/420/420 365/365/365
f 266/266/266 218/218/218 421/421/421
f 366/366/366 367/367/367 422/422/422
f 423/423/423 366/366/366 422/422/422
f 367/367/367 191/191/191 188/188/188
f 422/422/422 367/367/367 188/188/188
f 424/424/424 267/267/267 199/199/199
f 425/425/425 424/424/424 199/199/199
f 427/427/427 426/426/426 391/391/391
f 399/399/399 427/427/427 391/391/391
f 249/249/249 428/428/428 394/394/394
f 427/427/427 429/429/429 426/426/426
f 431/431/431 396/396/396 430/430/430
f 432/432/432 431/431/431 430/430/430
f 435/435/435 434/434/434 433/433/433
f 436/436/436 435/435/435 433/433/433
f 437/437/437 364/364/364 382/382/382
f 438/438/438 383/383/383 365/365/365
f 420/420/420 438/438/438 365/365/365
f 395/395/395 439/439/439 388/388/388
f 389/389/389 395/395/395 388/388/388
f 430/430/430 396/396/396 397/397/397
f 442/442/442 441/441/441 440/440/440
f 444/444/444 443/443/443 436/436/436
f 360/360/360 445/445/445 411/411/411
f 359/359/359 360/360/360 411/411/411
f 446/446/446 374/374/374 375/375/375
f 447/447/447 446/446/446 375/375/375
f 448/448/448 377/377/377 374/374/374
f 446/446/446 448/448/448 374/374/374
f 361/361/361 195/195/195 267/267/267
f 424/424/424 361/361/361 267/267/267
f 417/417/417 228/228/228 221/221/221
f 449/449/449 216/216/216 362/362/362
f 366/366/366 421/421/421 365/365/365
f 450/450/450 211/211/211 231/231/231
f 451/451/451 450/450/450 231/231/231
f 451/451/451 231/231/231 232/232/232
f 452/452/452 451/451/451 232/232/232
f 452/452/452 232/232/232 213/213/213
f 187/187/187 263/263/263 419/419/419
f 418/418/418 453/453/453 417/417/417
f 454/454/454 417/417/417 453/453/453
f 455/455/455 454/454/454 453/453/453
f 434/434/434 184/184/184 449/449/449
f 437/437/437 381/381/381 414/414/414
f 444/444/444 437/437/437 414/414/414
f 444/444/444 414/414/414 443/443/443
f 433/433/433 444/444/444 436/436/436
f 441/441/441 370/370/370 411/411/411
f 445/445/445 440/440/440 441/441/441
f 359/359/359 411/411/411 412/412/412
f 456/456/456 359/359/359 412/412/412
f 458/458/458 409/409/409 457/457/457
f 459/459/459 458/458/458 457/457/457
f 457/457/457 409/409/409 408/408/408
f 460/460/460 405/405/405 350/350/350
f 461/461/461 460/460/460 350/350/350
f 351/351/351 402/402/402 462/462/462
f 408/408/408 405/405/405 460/460/460
f 457/457/457 408/408/408 460/460/460
f 402/402/402 403/403/403 463/463/463
f 462/462/462 402/402/402 463/463/463
f 463/463/463 403/403/403 352/352/352
f 464/464/464 463/463/463 352/352/352
f 464/464/464 466/466/466 465/465/465
f 467/467/467 259/259/259 261/261/261
f 376/376/376 469/469/469 468/468/468
f 375/375/375 376/376/376 468/468/468
f 470/470/470 468/468/468 469/469/469
f 471/471/471 470/470/470 469/469/469
f 473/473/473 472/472/472 470/470/470
f 471/471/471 473/473/473 470/470/470
f 473/473/473 475/475/475 474/474/474
f 472/472/472 473/473/473 474/474/474
f 474/474/474 475/475/475 476/476/476
f 415/415/415 474/474/474 476/476/476
f 368/368/368 203/203/203 477/477/477
f 381/381/381 379/379/379 413/413/413
f 414/414/414 413/413/413 478/478/478
f 414/414/414 478/478/478 443/443/443
f 455/455/455 479/479/479 477/477/477
f 454/454/454 455/455/455 477/477/477
f 454/454/454 477/477/477 203/203/203
f 429/429/429 431/431/431 394/394/394
f 394/394/394 431/431/431 432/432/432
f 393/393/393 394/394/394 432/432/432
f 386/386/386 480/480/480 385/385/385
f 386/386/386 388/388/388 481/481/481
f 480/480/480 386/386/386 481/481/481
f 481/481/481 439/439/439 396/396/396
f 482/482/482 481/481/481 396/396/396
f 406/406/406 398/398/398 349/349/349
f 377/377/377 424/424/424 425/425/425
f 378/378/378 377/377/377 425/425/425
f 361/361/361 424/424/424 377/377/377
f 361/361/361 379/379/379 380/380/380
f 200/200/200 227/227/227 458/458/458
f 459/459/459 200/200/200 458/458/458
f 227/227/227 234/234/234 483/483/483
f 458/458/458 227/227/227 483/483/483
f 235/235/235 483/483/483 234/234/234
f 199/199/199 200/200/200 459/459/459
f 425/425/425 199/199/199 459/459/459
f 361/361/361 438/438/438 194/194/194
f 361/361/361 377/377/377 448/448/448
f 425/425/425 459/459/459 457/457/457
f 378/378/378 425/425/425 457/457/457
f 457/457/457 460/460/460 373/373/373
f 378/378/378 457/457/457 373/373/373
f 376/376/376 373/373/373 460/460/460
f 461/461/461 376/376/376 460/460/460
f 461/461/461 462/462/462 469/469/469
f 376/376/376 461/461/461 469/469/469
f 471/471/471 469/469/469 462/462/462
f 463/463/463 471/471/471 462/462/462
f 463/463/463 464/464/464 473/473/473
f 471/471/471 463/463/463 473/473/473
f 464/464/464 465/465/465 475/475/475
f 473/473/473 464/464/464 475/475/475
f 476/476/476 475/475/475 465/465/465
f 466/466/466 467/467/467 465/465/465
f 390/390/390 401/401/401 483/483/483
f 484/484/484 240/240/240 389/389/389
f 240/240/240 237/237/237 395/395/395
f 389/389/389 240/240/240 395/395/395
f 395/395/395 237/237/237 248/248/248
f 397/397/397 395/395/395 248/248/248
f 397/397/397 248/248/248 243/243/243
f 430/430/430 397/397/397 243/243/243
f 432/432/432 430/430/430 243/243/243
f 244/244/244 432/432/432 243/243/243
f 432/432/432 244/244/244 245/245/245
f 393/393/393 432/432/432 245/245/245
f 393/393/393 245/245/245 249/249/249
f 401/401/401 409/409/409 458/458/458
f 401/401/401 458/458/458 483/483/483
f 484/484/484 390/390/390 483/483/483
f 361/361/361 380/380/380 438/438/438
f 438/438/438 380/380/380 383/383/383
f 383/383/383 380/380/380 382/382/382
f 437/437/437 382/382/382 380/380/380
f 381/381/381 437/437/437 380/380/380
f 360/360/360 435/435/435 436/436/436
f 436/436/436 443/443/443 445/445/445
f 360/360/360 436/436/436 445/445/445
f 443/443/443 478/478/478 440/440/440
f 445/445/445 443/443/443 440/440/440
f 411/411/411 445/445/445 441/441/441
f 221/221/221 206/206/206 418/418/418
f 207/207/207 485/485/485 418/418/418
f 206/206/206 207/207/207 418/418/418
f 450/450/450 358/358/358 359/359/359
f 359/359/359 456/456/456 486/486/486
f 235/235/235 484/484/484 483/483/483
f 484/484/484 235/235/235 240/240/240
f 390/390/390 484/484/484 389/389/389
f 476/476/476 465/465/465 487/487/487
f 415/415/415 476/476/476 262/262/262
f 476/476/476 261/261/261 262/262/262
f 392/392/392 349/349/349 398/398/398
f 392/392/392 398/398/398 391/391/391
f 400/400/400 398/398/398 406/406/406
f 407/407/407 400/400/400 406/406/406
f 406/406/406 349/349/349 350/350/350
f 407/407/407 408/408/408 409/409/409
f 385/385/385 407/407/407 409/409/409
f 385/385/385 409/409/409 387/387/387
f 407/407/407 385/385/385 400/400/400
f 385/385/385 480/480/480 399/399/399
f 400/400/400 385/385/385 399/399/399
f 480/480/480 481/481/481 427/427/427
f 399/399/399 480/480/480 427/427/427
f 482/482/482 431/431/431 429/429/429
f 426/426/426 429/429/429 394/394/394
f 476/476/476 487/487/487 261/261/261
f 218/218/218 194/194/194 420/420/420
f 421/421/421 218/218/218 420/420/420
f 420/420/420 194/194/194 438/438/438
f 367/367/367 366/366/366 364/364/364
f 363/363/363 367/367/367 364/364/364
f 363/363/363 364/364/364 362/362/362
f 419/419/419 452/452/452 213/213/213
f 419/419/419 410/410/410 451/451/451
f 452/452/452 419/419/419 451/451/451
f 358/358/358 450/450/450 451/451/451
f 410/410/410 358/358/358 451/451/451
f 422/422/422 188/188/188 189/189/189
f 423/423/423 422/422/422 220/220/220
f 265/265/265 423/423/423 220/220/220
f 423/423/423 265/265/265 181/181/181
f 266/266/266 421/421/421 423/423/423
f 486/486/486 210/210/210 211/211/211
f 486/486/486 211/211/211 450/450/450
f 488/488/488 214/214/214 210/210/210
f 486/486/486 456/456/456 489/489/489
f 488/488/488 486/486/486 489/489/489
f 489/489/489 456/456/456 412/412/412
f 490/490/490 489/489/489 412/412/412
f 490/490/490 412/412/412 370/370/370
f 449/449/449 362/362/362 364/364/364
f 437/437/437 449/449/449 364/364/364
f 433/433/433 449/449/449 437/437/437
f 184/184/184 216/216/216 449/449/449
f 207/207/207 214/214/214 485/485/485
f 418/418/418 485/485/485 453/453/453
f 229/229/229 358/358/358 410/410/410
f 421/421/421 366/366/366 423/423/423
f 266/266/266 423/423/423 181/181/181
f 220/220/220 422/422/422 189/189/189
f 444/444/444 433/433/433 437/437/437
f 427/427/427 482/482/482 429/429/429
f 482/482/482 396/396/396 431/431/431
f 427/427/427 481/481/481 482/482/482
f 455/455/455 371/371/371 479/479/479
f 384/384/384 357/357/357 354/354/354
f 428/428/428 384/384/384 426/426/426
f 247/247/247 224/224/224 356/356/356
f 357/357/357 247/247/247 356/356/356
f 253/253/253 384/384/384 428/428/428
f 249/249/249 253/253/253 428/428/428
f 402/402/402 349/349/349 404/404/404
f 416/416/416 404/404/404 355/355/355
f 416/416/416 352/352/352 403/403/403
f 404/404/404 416/416/416 403/403/403
f 426/426/426 384/384/384 354/354/354
f 391/391/391 426/426/426 354/354/354
f 251/251/251 247/247/247 357/357/357
f 384/384/384 251/251/251 357/357/357
f 225/225/225 352/352/352 416/416/416
f 416/416/416 355/355/355 356/356/356
f 428/428/428 426/426/426 394/394/394
f 351/351/351 349/349/349 402/402/402
f 461/461/461 350/350/350 351/351/351
f 461/461/461 351/351/351 462/462/462
f 255/255/255 467/467/467 466/466/466
f 487/487/487 465/465/465 467/467/467
f 352/352/352 257/257/257 353/353/353
f 464/464/464 353/353/353 466/466/466
f 467/467/467 261/261/261 487/487/487
f 464/464/464 352/352/352 353/353/353
f 255/255/255 466/466/466 353/353/353
f 255/255/255 259/259/259 467/467/467
f 481/481/481 388/388/388 439/439/439
f 395/395/395 396/396/396 439/439/439
f 349/349/349 355/355/355 404/404/404
f 349/349/349 392/392/392 355/355/355
f 417/417/417 454/454/454 228/228/228
f 454/454/454 203/203/203 228/228/228
f 455/455/455 490/490/490 371/371/371
f 455/455/455 453/453/453 489/489/489
f 490/490/490 455/455/455 489/489/489
f 489/489/489 453/453/453 485/485/485
f 488/488/488 489/489/489 485/485/485
f 488/488/488 485/485/485 214/214/214
f 375/375/375 468/468/468 442/442/442
f 447/447/447 375/375/375 442/442/442
f 442/442/442 468/468/468 470/470/470
f 372/372/372 442/442/442 470/470/470
f 470/470/470 472/472/472 368/368/368
f 372/372/372 470/470/470 368/368/368
f 369/369/369 368/368/368 472/472/472
f 474/474/474 369/369/369 472/472/472
f 369/369/369 474/474/474 415/415/415
f 478/478/478 413/413/413 446/446/446
f 447/447/447 478/478/478 446/446/446
f 413/413/413 379/379/379 448/448/448
f 446/446/446 413/413/413 448/448/448
f 361/361/361 448/448/448 379/379/379
f 369/369/369 178/178/178 202/202/202
f 178/178/178 415/415/415 262/262/262
f 450/450/450 359/359/359 486/486/486
f 488/488/488 210/210/210 486/486/486
f 478/478/478 447/447/447 440/440/440
f 447/447/447 442/442/442 440/440/440
f 370/370/370 441/441/441 442/442/442
f 372/372/372 370/370/370 442/442/442
f 371/371/371 372/372/372 479/479/479
f 368/368/368 477/477/477 479/479/479
f 372/372/372 368/368/368 479/479/479
f 229/229/229 435/435/435 358/358/358
f 229/229/229 184/184/184 434/434/434
f 435/435/435 229/229/229 434/434/434
f 434/434/434 449/449/449 433/433/433
f 360/360/360 358/358/358 435/435/435
f 490/490/490 370/370/370 371/371/371
f 493/493/493 492/492/492 491/491/491
f 494/494/494 493/493/493 491/491/491
f 491/491/491 492/492/492 495/495/495
f 496/496/496 491/491/491 495/495/495
f 499/499/499 498/498/498 497/497/497
f 499/499/499 501/501/501 500/500/500
f 498/498/498 503/503/503 502/502/502
f 505/505/505 504/504/504 289/289/289
f 508/508/508 507/507/507 506/506/506
f 509/509/509 508/508/508 506/506/506
f 510/510/510 305/305/305 320/320/320
f 511/511/511 510/510/510 320/320/320
f 512/512/512 493/493/493 494/494/494
f 314/314/314 315/315/315 513/513/513
f 514/514/514 314/314/314 513/513/513
f 515/515/515 319/319/319 289/289/289
f 517/517/517 516/516/516 495/495/495
f 518/518/518 517/517/517 495/495/495
f 519/519/519 496/496/496 516/516/516
f 521/521/521 520/520/520 320/320/320
f 322/322/322 521/521/521 320/320/320
f 507/507/507 508/508/508 504/504/504
f 505/505/505 507/507/507 504/504/504
f 308/308/308 319/319/319 515/515/515
f 522/522/522 308/308/308 515/515/515
f 518/518/518 523/523/523 310/310/310
f 523/523/523 524/524/524 315/315/315
f 310/310/310 523/523/523 315/315/315
f 298/298/298 281/281/281 525/525/525
f 526/526/526 298/298/298 525/525/525
f 527/527/527 272/272/272 327/327/327
f 528/528/528 282/282/282 272/272/272
f 530/530/530 302/302/302 529/529/529
f 530/530/530 531/531/531 286/286/286
f 302/302/302 530/530/530 286/286/286
f 531/531/531 532/532/532 285/285/285
f 286/286/286 531/531/531 285/285/285
f 303/303/303 285/285/285 532/532/532
f 533/533/533 303/303/303 532/532/532
f 303/303/303 533/533/533 296/296/296
f 534/534/534 328/328/328 296/296/296
f 535/535/535 307/307/307 305/305/305
f 510/510/510 535/535/535 305/305/305
f 327/327/327 314/314/314 514/514/514
f 527/527/527 327/327/327 514/514/514
f 528/528/528 525/525/525 281/281/281
f 282/282/282 528/528/528 281/281/281
f 524/524/524 536/536/536 315/315/315
f 513/513/513 315/315/315 536/536/536
f 537/537/537 313/313/313 298/298/298
f 526/526/526 537/537/537 298/298/298
f 511/511/511 320/320/320 520/520/520
f 302/302/302 279/279/279 529/529/529
f 279/279/279 270/270/270 499/499/499
f 529/529/529 279/279/279 499/499/499
f 270/270/270 299/299/299 498/498/498
f 499/499/499 270/270/270 498/498/498
f 299/299/299 317/317/317 503/503/503
f 498/498/498 299/299/299 503/503/503
f 274/274/274 496/496/496 519/519/519
f 318/318/318 274/274/274 519/519/519
f 274/274/274 275/275/275 491/491/491
f 496/496/496 274/274/274 491/491/491
f 491/491/491 275/275/275 288/288/288
f 494/494/494 491/491/491 288/288/288
f 494/494/494 537/537/537 512/512/512
f 538/538/538 529/529/529 500/500/500
f 529/529/529 499/499/499 500/500/500
f 530/530/530 529/529/529 538/538/538
f 538/538/538 539/539/539 531/531/531
f 530/530/530 538/538/538 531/531/531
f 531/531/531 539/539/539 532/532/532
f 533/533/533 532/532/532 539/539/539
f 533/533/533 540/540/540 296/296/296
f 534/534/534 296/296/296 540/540/540
f 539/539/539 538/538/538 520/520/520
f 521/521/521 539/539/539 520/520/520
f 520/520/520 538/538/538 500/500/500
f 511/511/511 520/520/520 500/500/500
f 500/500/500 501/501/501 510/510/510
f 511/511/511 500/500/500 510/510/510
f 501/501/501 497/497/497 535/535/535
f 510/510/510 501/501/501 535/535/535
f 495/495/495 492/492/492 523/523/523
f 518/518/518 495/495/495 523/523/523
f 523/523/523 492/492/492 524/524/524
f 524/524/524 492/492/492 493/493/493
f 536/536/536 493/493/493 512/512/512
f 513/513/513 542/542/542 541/541/541
f 527/527/527 514/514/514 541/541/541
f 543/543/543 527/527/527 541/541/541
f 527/527/527 543/543/543 272/272/272
f 528/528/528 272/272/272 543/543/543
f 543/543/543 541/541/541 525/525/525
f 528/528/528 543/543/543 525/525/525
f 526/526/526 525/525/525 541/541/541
f 542/542/542 526/526/526 541/541/541
f 542/542/542 512/512/512 537/537/537
f 526/526/526 542/542/542 537/537/537
f 288/288/288 313/313/313 537/537/537
f 494/494/494 288/288/288 537/537/537
f 304/304/304 505/505/505 289/289/289
f 304/304/304 307/307/307 507/507/507
f 505/505/505 304/304/304 507/507/507
f 307/307/307 535/535/535 507/507/507
f 498/498/498 544/544/544 497/497/497
f 515/515/515 289/289/289 504/504/504
f 515/515/515 504/504/504 508/508/508
f 522/522/522 515/515/515 508/508/508
f 509/509/509 517/517/517 522/522/522
f 508/508/508 509/509/509 522/522/522
f 496/496/496 495/495/495 516/516/516
f 535/535/535 506/506/506 507/507/507
f 325/325/325 308/308/308 522/522/522
f 506/506/506 544/544/544 502/502/502
f 509/509/509 506/506/506 502/502/502
f 502/502/502 516/516/516 517/517/517
f 509/509/509 502/502/502 517/517/517
f 517/517/517 518/518/518 325/325/325
f 497/497/497 544/544/544 506/506/506
f 535/535/535 497/497/497 506/506/506
f 498/498/498 502/502/502 544/544/544
f 503/503/503 519/519/519 516/516/516
f 502/502/502 503/503/503 516/516/516
f 519/519/519 503/503/503 317/317/317
f 318/318/318 519/519/519 317/317/317
f 325/325/325 518/518/518 310/310/310
f 524/524/524 493/493/493 536/536/536
f 513/513/513 536/536/536 512/512/512
f 542/542/542 513/513/513 512/512/512
f 514/514/514 513/513/513 541/541/541
f 517/517/517 325/325/325 522/522/522
f 533/533/533 539/539/539 540/540/540
f 534/534/534 540/540/540 539/539/539
f 521/521/521 534/534/534 539/539/539
f 521/521/521 322/322/322 328/328/328
f 534/534/534 521/521/521 328/328/328
f 501/501/501 499/499/499 497/497/497
