g prism
v -0.05614693 0.46471545 0
v -0.24499421 0.3988618 0
v -0.1791406 0.21001449 0
v 0.0097067 0.27586815 0
v -0.014588189 0.4790124 0
v -0.20882455 0.43134436 0
v -0.16115656 0.23710802 0
v 0.033079803 0.28477603 0
v 0.35906848 0.26313624 0
v 0.20763163 0.39377654 0
v 0.07699134 0.24233972 0
v 0.22842817 0.11169942 0
v 0.41777283 0.20268755 0
v 0.29376942 0.35960522 0
v 0.13685174 0.23560181 0
v 0.26085517 0.07868414 0
v 0.2642524 -0.22206381 0
v 0.34304446 -0.038238313 0
v 0.15921895 0.040553737 0
v 0.08042691 -0.14327176 0
v 0.3237737 -0.38169962 0
v 0.44737107 -0.2244619 0
v 0.29013333 -0.10086455 0
v 0.166536 -0.25810227 0
v -0.009946031 -0.43280563 0
v 0.18565522 -0.39109048 0
v 0.14394009 -0.19548924 0
v -0.05166116 -0.23720436 0
v -0.08908937 -0.3780876 0
v 0.11082677 -0.3722964 0
v 0.10503552 -0.17238025 0
v -0.09488062 -0.1781715 0
v -0.39687592 -0.057006944 0
v -0.3199637 -0.24162684 0
v -0.13534378 -0.16471462 0
v -0.212256 0.019905293 0
v -0.33099133 0.11934105 0
v -0.3425574 -0.08032424 0
v -0.14289208 -0.0918903 0
v -0.13132602 0.107774995 0
v -0.30949256 0.18106456 0
v -0.35833523 -0.012879759 0
v -0.1643909 -0.061722424 0
v -0.11554823 0.13222189 0
v -0.24779657 0.24268936 0
v -0.3405993 0.06552376 0
v -0.16343372 -0.027278995 0
v -0.07063097 0.1498866 0
vt 0.33325195 0.25
vt 0 0.25
vt 0 0
vt 0.33325195 0
vt 0.6665039 0.25
vt 0.33325195 0.25
vt 0.33325195 0
vt 0.6665039 0
vt 1 0.25
vt 0.6665039 0.25
vt 0.6665039 0
vt 1 0
vt 0.33325195 0.5
vt 0 0.5
vt 0 0.25
vt 0.33325195 0.25
vt 0.6665039 0.5
vt 0.33325195 0.5
vt 0.33325195 0.25
vt 0.6665039 0.25
vt 1 0.5
vt 0.6665039 0.5
vt 0.6665039 0.25
vt 1 0.25
vt 0.33325195 0.75
vt 0 0.75
vt 0 0.5
vt 0.33325195 0.5
vt 0.6665039 0.75
vt 0.33325195 0.75
vt 0.33325195 0.5
vt 0.6665039 0.5
vt 1 0.75
vt 0.6665039 0.75
vt 0.6665039 0.5
vt 1 0.5
vt 0.33325195 1
vt 0 1
vt 0 0.75
vt 0.33325195 0.75
vt 0.6665039 1
vt 0.33325195 1
vt 0.33325195 0.75
vt 0.6665039 0.75
vt 1 1
vt 0.6665039 1
vt 0.6665039 0.75
vt 1 0.75
vn -0 0 -1
vn -0 0 -1
vn -0 0 -1
vn -0 0 -1
vn -0 0 -1
vn -0 0 -1
vn -0 0 -1
vn -0 0 -1
vn -0 0 -1
vn -0 0 -1
vn -0 0 -1
vn -0 0 -1
vn -0 0 -1
vn -0 0 -1
vn -0 0 -1
vn -0 0 -1
vn -0 0 -1
vn -0 0 -1
vn -0 0 -1
vn -0 0 -1
vn -0 0 -1
vn -0 0 -1
vn -0 0 -1
vn -0 0 -1
vn -0 0 -1
vn -0 0 -1
vn -0 0 -1
vn -0 0 -1
vn -0 0 -1
vn -0 0 -1
vn -0 0 -1
vn -0 0 -1
vn -0 0 -1
vn -0 0 -1
vn -0 0 -1
vn -0 0 -1
vn -0 0 -1
vn -0 0 -1
vn -0 0 -1
vn -0 0 -1
vn -0 0 -1
vn -0 0 -1
vn -0 0 -1
vn -0 0 -1
vn -0 0 -1
vn -0 0 -1
vn -0 0 -1
vn -0 0 -1
g prism_0
f 3/3/3 2/2/2 1/1/1
f 4/4/4 3/3/3 1/1/1
f 7/7/7 6/6/6 5/5/5
f 8/8/8 7/7/7 5/5/5
f 11/11/11 10/10/10 9/9/9
f 12/12/12 11/11/11 9/9/9
f 15/15/15 14/14/14 13/13/13
f 16/16/16 15/15/15 13/13/13
f 19/19/19 18/18/18 17/17/17
f 20/20/20 19/19/19 17/17/17
f 23/23/23 22/22/22 21/21/21
f 24/24/24 23/23/23 21/21/21
f 27/27/27 26/26/26 25/25/25
f 28/28/28 27/27/27 25/25/25
f 31/31/31 30/30/30 29/29/29
f 32/32/32 31/31/31 29/29/29
f 35/35/35 34/34/34 33/33/33
f 36/36/36 35/35/35 33/33/33
f 39/39/39 38/38/38 37/37/37
f 40/40/40 39/39/39 37/37/37
f 43/43/43 42/42/42 41/41/41
f 44/44/44 43/43/43 41/41/41
f 47/47/47 46/46/46 45/45/45
f 48/48/48 47/47/47 45/45/45
