g QuadCircleGlow
v 2.468652 -0.49104512 8.8157375E-09
v 1.8670233 -0.37137386 1.1754317E-08
v 1.894434 -0.1865847 1.1754317E-08
v 2.5048954 -0.24670961 8.8157375E-09
v 3.0702806 -0.61071634 5.8771583E-09
v 1.9036006 -6.57858E-08 1.1754317E-08
v 3.115357 -0.30683455 5.8771583E-09
v 3.6719096 -0.7303876 2.9385792E-09
v 2.517016 -4.933935E-08 8.8157375E-09
v 1.894434 0.18658555 1.1754317E-08
v 3.7258186 -0.3669595 2.9385792E-09
v 4.273538 -0.85005885 0
v 4.33628 -0.42708442 0
v 2.5048954 0.24671078 8.8157375E-09
v 1.8670233 0.37137407 1.1754317E-08
v 3.130431 -3.28929E-08 5.8771583E-09
v 3.7438462 -1.644645E-08 2.9385792E-09
v 4.3572617 0 0
v 2.468652 0.49104553 8.8157375E-09
v 1.821632 0.55258614 1.1754317E-08
v 3.115357 0.30683604 5.8771583E-09
v 3.7258186 0.36696127 2.9385792E-09
v 4.33628 0.4270865 0
v 2.408634 0.73065126 8.8157375E-09
v 1.7586975 0.7284763 1.1754317E-08
v 3.0702806 0.610717 5.8771583E-09
v 3.6719096 0.7303884 2.9385792E-09
v 4.273538 0.85005987 0
v 2.3254194 0.9632201 8.8157375E-09
v 1.6788259 0.89735085 1.1754317E-08
v 2.9956355 0.90871644 5.8771583E-09
v 3.5826373 1.0867816 2.9385792E-09
v 4.169639 1.2648467 0
v 2.2198098 1.1865128 8.8157375E-09
v 1.5827858 1.0575838 1.1754317E-08
v 2.8921416 1.1979638 5.8771583E-09
v 3.4588635 1.4327077 2.9385792E-09
v 4.025585 1.6674515 0
v 2.092822 1.3983791 8.8157375E-09
v 1.4715031 1.2076315 1.1754317E-08
v 2.7607937 1.4756747 5.8771583E-09
v 3.3017776 1.7648367 2.9385792E-09
v 3.8427618 2.0539987 0
v 1.9456795 1.5967779 8.8157375E-09
v 1.3460488 1.3460491 1.1754317E-08
v 2.6028583 1.7391745 5.8771583E-09
v 3.1128943 2.0799696 2.9385792E-09
v 3.6229308 2.420765 0
v 1.7797989 1.7797993 8.8157375E-09
v 1.2076312 1.471503 1.1754317E-08
v 2.4198558 1.9859245 5.8771583E-09
v 2.8940325 2.375071 2.9385792E-09
v 3.3682086 2.7642174 0
v 1.5967779 1.9456794 8.8157375E-09
v 1.0575835 1.5827861 1.1754317E-08
v 2.213549 2.2135494 5.8771583E-09
v 2.6472988 2.6472995 2.9385792E-09
v 3.081049 3.0810494 0
v 1.3983787 2.0928223 8.8157375E-09
v 0.8973509 1.6788262 1.1754317E-08
v 1.9859245 2.4198556 5.8771583E-09
v 2.375071 2.894032 2.9385792E-09
v 2.7642176 3.3682084 0
v 1.1865128 2.21981 8.8157375E-09
v 0.7284766 1.7586974 -8.838102E-07
v 1.739174 2.6028585 5.8771583E-09
v 2.0799692 3.112895 2.9385792E-09
v 2.4207644 3.622931 0
v 0.9632206 2.325419 -6.6285764E-07
v 0.5525859 1.8216323 1.1754317E-08
v 1.4756749 2.760794 5.8771583E-09
v 1.7648368 3.301778 2.9385792E-09
v 2.0539987 3.8427618 0
v 0.7306509 2.408634 8.8157375E-09
v 0.37137347 1.8670237 1.1754317E-08
v 1.1979645 2.8921409 -4.419051E-07
v 1.4327086 3.4588625 -2.2095254E-07
v 1.6674526 4.025584 0
v 0.4910447 2.4686522 8.8157375E-09
v 0.18658514 1.8944343 1.1754317E-08
v 0.908716 2.9956357 5.8771583E-09
v 1.086781 3.5826378 2.9385792E-09
v 1.2648461 4.1696396 0
v 0.24671033 2.5048957 8.8157375E-09
v 4.6015844E-09 1.9036008 1.1754317E-08
v 0.6107159 3.0702813 5.8771583E-09
v 0.7303872 3.67191 2.9385792E-09
v 0.85005844 4.2735386 0
v 1.0084358E-07 2.5170162 8.8157375E-09
v -0.18658611 1.8944343 1.1754317E-08
v 0.3068355 3.115357 5.8771583E-09
v 0.3669607 3.7258186 2.9385792E-09
v 0.42708588 4.33628 0
v -0.2467114 2.5048957 8.8157375E-09
v -0.37137428 1.8670237 1.1754317E-08
v -0.49104562 2.4686522 8.8157375E-09
v 1.9708558E-07 3.1304312 5.8771583E-09
v 2.9332756E-07 3.7438464 2.9385792E-09
v 3.8956955E-07 4.3572617 0
v -0.3068367 3.115357 5.8771583E-09
v -0.61071694 3.070281 5.8771583E-09
v -0.36696202 3.7258186 2.9385792E-09
v -0.42708728 4.33628 0
v -0.7303883 3.6719096 2.9385792E-09
v -0.85005957 4.273538 0
vt 0.0041923523 0.74999994
vt 0.004192382 0.99999994
vt 0.053899616 0.9999999
vt 0.053899594 0.7499999
vt 0.0041923225 0.49999997
vt 0.10360637 1
vt 0.05389957 0.49999994
vt 0.004192292 0.24999996
vt 0.10360637 0.75
vt 0.1533134 0.9999999
vt 0.053899556 0.25
vt 0.004192263 0
vt 0.053899527 0
vt 0.15331338 0.74999976
vt 0.20302045 1
vt 0.103606366 0.49999997
vt 0.10360639 0.25
vt 0.10360637 0
vt 0.20302044 0.75
vt 0.2527275 1
vt 0.1533134 0.49999994
vt 0.1533134 0.24999997
vt 0.1533134 0
vt 0.2527275 0.74999994
vt 0.30243456 1
vt 0.20302045 0.5
vt 0.20302044 0.24999999
vt 0.20302045 0
vt 0.30243456 0.75
vt 0.3521416 1
vt 0.2527275 0.5
vt 0.2527275 0.25
vt 0.2527275 0
vt 0.35214156 0.75
vt 0.4018486 1
vt 0.30243456 0.5
vt 0.30243456 0.25
vt 0.30243456 0
vt 0.4018486 0.75
vt 0.45155567 0.9999999
vt 0.35214156 0.49999994
vt 0.35214153 0.24999997
vt 0.3521416 0
vt 0.45155564 0.7499999
vt 0.5012627 0.99999994
vt 0.4018486 0.5
vt 0.4018486 0.25
vt 0.4018486 0
vt 0.50126266 0.7499999
vt 0.5509698 0.99999994
vt 0.45155567 0.49999994
vt 0.45155567 0.24999997
vt 0.45155567 0
vt 0.5509697 0.7499998
vt 0.60067683 0.99999994
vt 0.5012627 0.49999994
vt 0.5012627 0.24999997
vt 0.5012627 0
vt 0.6006767 0.7499999
vt 0.6503839 0.99999994
vt 0.5509698 0.49999994
vt 0.5509698 0.24999997
vt 0.5509698 0
vt 0.6503839 0.74999994
vt 0.7000907 0.9999998
vt 0.6006768 0.49999994
vt 0.6006768 0.24999999
vt 0.60067683 0
vt 0.70009065 0.7499998
vt 0.749798 0.99999994
vt 0.6503839 0.49999994
vt 0.65038383 0.24999997
vt 0.6503839 0
vt 0.749798 0.7499999
vt 0.799505 0.99999994
vt 0.70009065 0.49999985
vt 0.70009065 0.24999993
vt 0.7000907 0
vt 0.79950494 0.74999994
vt 0.84921205 0.9999999
vt 0.749798 0.49999994
vt 0.74979794 0.24999996
vt 0.749798 0
vt 0.849212 0.7499999
vt 0.89891887 1
vt 0.799505 0.4999999
vt 0.79950505 0.24999991
vt 0.7995052 0
vt 0.8989189 0.75
vt 0.94862616 1
vt 0.8492121 0.49999994
vt 0.84921205 0.24999999
vt 0.84921205 0
vt 0.94862616 0.75
vt 0.9983331 1
vt 0.9983331 0.75
vt 0.898919 0.5
vt 0.898919 0.25
vt 0.8989191 0
vt 0.94862616 0.5
vt 0.9983331 0.5
vt 0.94862604 0.24999997
vt 0.94862616 0
vt 0.9983331 0.25
vt 0.9983331 0
vn -0 0 1
vn -0 0 1
vn -0 0 1
vn -0 0 1
vn -0 0 1
vn -0 0 1
vn -0 0 1
vn -0 0 1
vn -0 0 1
vn -0 0 1
vn -0 0 1
vn -0 0 1
vn -0 0 1
vn -0 0 1
vn -0 0 1
vn -0 0 1
vn -0 0 1
vn -0 0 1
vn -0 0 1
vn -0 0 1
vn -0 0 1
vn -0 0 1
vn -0 0 1
vn -0 0 1
vn -0 0 1
vn -0 0 1
vn -0 0 1
vn -0 0 1
vn -0 0 1
vn -0 0 1
vn -0 0 1
vn -0 0 1
vn -0 0 1
vn -0 0 1
vn -0 0 1
vn -0 0 1
vn -0 0 1
vn -0 0 1
vn -0 0 1
vn -0 0 1
vn -0 0 1
vn -0 0 1
vn -0 0 1
vn -0 0 1
vn -0 0 1
vn -0 0 1
vn -0 0 1
vn -0 0 1
vn -0 0 1
vn -0 0 1
vn -0 0 1
vn -0 0 1
vn -0 0 1
vn -0 0 1
vn -0 0 1
vn -0 0 1
vn -0 0 1
vn -0 0 1
vn -0 0 1
vn -0 0 1
vn -0 0 1
vn -0 0 1
vn -0 0 1
vn -0 0 1
vn -0 0 1
vn -0 0 1
vn -0 0 1
vn -0 0 1
vn -0 0 1
vn -0 0 1
vn -0 0 1
vn -0 0 1
vn -0 0 1
vn -0 0 1
vn -0 0 1
vn -0 0 1
vn -0 0 1
vn -0 0 1
vn -0 0 1
vn -0 0 1
vn -0 0 1
vn -0 0 1
vn -0 0 1
vn -0 0 1
vn -0 0 1
vn -0 0 1
vn -0 0 1
vn -0 0 1
vn -0 0 1
vn -0 0 1
vn -0 0 1
vn -0 0 1
vn -0 0 1
vn -0 0 1
vn -0 0 1
vn -0 0 1
vn -0 0 1
vn -0 0 1
vn -0 0 1
vn -0 0 1
vn -0 0 1
vn -0 0 1
vn -0 0 1
vn -0 0 1
vn -0 0 1
g QuadCircleGlow_0
f 3/3/3 2/2/2 1/1/1
f 4/4/4 3/3/3 1/1/1
f 4/4/4 1/1/1 5/5/5
f 6/6/6 3/3/3 4/4/4
f 7/7/7 4/4/4 5/5/5
f 7/7/7 5/5/5 8/8/8
f 9/9/9 6/6/6 4/4/4
f 9/9/9 4/4/4 7/7/7
f 10/10/10 6/6/6 9/9/9
f 11/11/11 7/7/7 8/8/8
f 11/11/11 8/8/8 12/12/12
f 13/13/13 11/11/11 12/12/12
f 14/14/14 10/10/10 9/9/9
f 15/15/15 10/10/10 14/14/14
f 16/16/16 9/9/9 7/7/7
f 16/16/16 7/7/7 11/11/11
f 14/14/14 9/9/9 16/16/16
f 17/17/17 11/11/11 13/13/13
f 17/17/17 16/16/16 11/11/11
f 18/18/18 17/17/17 13/13/13
f 19/19/19 15/15/15 14/14/14
f 20/20/20 15/15/15 19/19/19
f 21/21/21 14/14/14 16/16/16
f 21/21/21 16/16/16 17/17/17
f 19/19/19 14/14/14 21/21/21
f 22/22/22 17/17/17 18/18/18
f 22/22/22 21/21/21 17/17/17
f 23/23/23 22/22/22 18/18/18
f 24/24/24 20/20/20 19/19/19
f 25/25/25 20/20/20 24/24/24
f 26/26/26 19/19/19 21/21/21
f 26/26/26 21/21/21 22/22/22
f 24/24/24 19/19/19 26/26/26
f 27/27/27 22/22/22 23/23/23
f 27/27/27 26/26/26 22/22/22
f 28/28/28 27/27/27 23/23/23
f 29/29/29 25/25/25 24/24/24
f 30/30/30 25/25/25 29/29/29
f 31/31/31 24/24/24 26/26/26
f 31/31/31 26/26/26 27/27/27
f 29/29/29 24/24/24 31/31/31
f 32/32/32 27/27/27 28/28/28
f 32/32/32 31/31/31 27/27/27
f 33/33/33 32/32/32 28/28/28
f 34/34/34 30/30/30 29/29/29
f 35/35/35 30/30/30 34/34/34
f 36/36/36 29/29/29 31/31/31
f 36/36/36 31/31/31 32/32/32
f 34/34/34 29/29/29 36/36/36
f 37/37/37 32/32/32 33/33/33
f 37/37/37 36/36/36 32/32/32
f 38/38/38 37/37/37 33/33/33
f 39/39/39 35/35/35 34/34/34
f 40/40/40 35/35/35 39/39/39
f 41/41/41 34/34/34 36/36/36
f 41/41/41 36/36/36 37/37/37
f 39/39/39 34/34/34 41/41/41
f 42/42/42 37/37/37 38/38/38
f 42/42/42 41/41/41 37/37/37
f 43/43/43 42/42/42 38/38/38
f 44/44/44 40/40/40 39/39/39
f 45/45/45 40/40/40 44/44/44
f 46/46/46 39/39/39 41/41/41
f 46/46/46 41/41/41 42/42/42
f 44/44/44 39/39/39 46/46/46
f 47/47/47 42/42/42 43/43/43
f 47/47/47 46/46/46 42/42/42
f 48/48/48 47/47/47 43/43/43
f 49/49/49 45/45/45 44/44/44
f 50/50/50 45/45/45 49/49/49
f 51/51/51 44/44/44 46/46/46
f 51/51/51 46/46/46 47/47/47
f 49/49/49 44/44/44 51/51/51
f 52/52/52 47/47/47 48/48/48
f 52/52/52 51/51/51 47/47/47
f 53/53/53 52/52/52 48/48/48
f 54/54/54 50/50/50 49/49/49
f 55/55/55 50/50/50 54/54/54
f 56/56/56 49/49/49 51/51/51
f 56/56/56 51/51/51 52/52/52
f 54/54/54 49/49/49 56/56/56
f 57/57/57 52/52/52 53/53/53
f 57/57/57 56/56/56 52/52/52
f 58/58/58 57/57/57 53/53/53
f 59/59/59 55/55/55 54/54/54
f 60/60/60 55/55/55 59/59/59
f 61/61/61 54/54/54 56/56/56
f 61/61/61 56/56/56 57/57/57
f 59/59/59 54/54/54 61/61/61
f 62/62/62 57/57/57 58/58/58
f 62/62/62 61/61/61 57/57/57
f 63/63/63 62/62/62 58/58/58
f 64/64/64 60/60/60 59/59/59
f 65/65/65 60/60/60 64/64/64
f 66/66/66 59/59/59 61/61/61
f 66/66/66 61/61/61 62/62/62
f 64/64/64 59/59/59 66/66/66
f 67/67/67 62/62/62 63/63/63
f 67/67/67 66/66/66 62/62/62
f 68/68/68 67/67/67 63/63/63
f 69/69/69 65/65/65 64/64/64
f 70/70/70 65/65/65 69/69/69
f 71/71/71 64/64/64 66/66/66
f 71/71/71 66/66/66 67/67/67
f 69/69/69 64/64/64 71/71/71
f 72/72/72 67/67/67 68/68/68
f 72/72/72 71/71/71 67/67/67
f 73/73/73 72/72/72 68/68/68
f 74/74/74 70/70/70 69/69/69
f 75/75/75 70/70/70 74/74/74
f 76/76/76 69/69/69 71/71/71
f 76/76/76 71/71/71 72/72/72
f 74/74/74 69/69/69 76/76/76
f 77/77/77 72/72/72 73/73/73
f 77/77/77 76/76/76 72/72/72
f 78/78/78 77/77/77 73/73/73
f 79/79/79 75/75/75 74/74/74
f 80/80/80 75/75/75 79/79/79
f 81/81/81 74/74/74 76/76/76
f 81/81/81 76/76/76 77/77/77
f 79/79/79 74/74/74 81/81/81
f 82/82/82 77/77/77 78/78/78
f 82/82/82 81/81/81 77/77/77
f 83/83/83 82/82/82 78/78/78
f 84/84/84 80/80/80 79/79/79
f 85/85/85 80/80/80 84/84/84
f 86/86/86 79/79/79 81/81/81
f 86/86/86 81/81/81 82/82/82
f 84/84/84 79/79/79 86/86/86
f 87/87/87 82/82/82 83/83/83
f 87/87/87 86/86/86 82/82/82
f 88/88/88 87/87/87 83/83/83
f 89/89/89 85/85/85 84/84/84
f 90/90/90 85/85/85 89/89/89
f 91/91/91 84/84/84 86/86/86
f 91/91/91 86/86/86 87/87/87
f 89/89/89 84/84/84 91/91/91
f 92/92/92 87/87/87 88/88/88
f 92/92/92 91/91/91 87/87/87
f 93/93/93 92/92/92 88/88/88
f 94/94/94 90/90/90 89/89/89
f 95/95/95 90/90/90 94/94/94
f 96/96/96 95/95/95 94/94/94
f 97/97/97 89/89/89 91/91/91
f 97/97/97 91/91/91 92/92/92
f 94/94/94 89/89/89 97/97/97
f 98/98/98 92/92/92 93/93/93
f 98/98/98 97/97/97 92/92/92
f 99/99/99 98/98/98 93/93/93
f 96/96/96 94/94/94 100/100/100
f 100/100/100 94/94/94 97/97/97
f 100/100/100 97/97/97 98/98/98
f 101/101/101 96/96/96 100/100/100
f 102/102/102 98/98/98 99/99/99
f 102/102/102 100/100/100 98/98/98
f 101/101/101 100/100/100 102/102/102
f 103/103/103 102/102/102 99/99/99
f 104/104/104 101/101/101 102/102/102
f 104/104/104 102/102/102 103/103/103
f 105/105/105 104/104/104 103/103/103
