g QuadCircle
v 2.8264556 -5.526072E-08 1.7675383E-08
v 2.5382733 -7.368096E-08 2.3567178E-08
v 2.5260508 0.24879438 2.3567178E-08
v 2.8128452 0.2770412 1.7675383E-08
v 3.1146376 -3.684048E-08 1.1783589E-08
v 2.489501 0.49519268 2.3567178E-08
v 3.09964 0.305288 1.1783589E-08
v 3.4028196 -1.842024E-08 5.8917946E-09
v 2.7721457 0.55141425 1.7675383E-08
v 2.428976 0.736822 2.3567178E-08
v 3.3864343 0.33353478 5.8917946E-09
v 3.691002 0 0
v 3.6732287 0.3617816 0
v 2.704749 0.8204769 1.7675383E-08
v 2.345059 0.971355 2.3567178E-08
v 3.0547905 0.60763586 1.1783589E-08
v 3.3374352 0.66385746 5.8917946E-09
v 3.6200802 0.720079 0
v 2.6113045 1.0816375 1.7675383E-08
v 2.2385573 1.1965336 2.3567178E-08
v 2.9805222 0.9041318 1.1783589E-08
v 3.2562952 0.98778677 5.8917946E-09
v 3.5320685 1.0714417 0
v 2.4927113 1.3323817 1.7675383E-08
v 2.110497 1.4101892 2.3567178E-08
v 2.8775501 1.19192 1.1783589E-08
v 3.1437957 1.3022025 5.8917946E-09
v 3.4100413 1.412485 0
v 2.3501117 1.5702946 1.7675383E-08
v 1.9621117 1.6102638 2.3567178E-08
v 2.7468653 1.4682299 1.1783589E-08
v 3.0010192 1.604078 5.8917946E-09
v 3.2551732 1.7399262 0
v 2.1848795 1.7930846 1.7675383E-08
v 1.7948302 1.7948307 2.3567178E-08
v 2.5897264 1.7304 1.1783589E-08
v 2.8293414 1.8905053 5.8917946E-09
v 3.0689561 2.0506108 0
v 1.9986057 1.9986062 1.7675383E-08
v 1.6102633 1.9621115 2.3567178E-08
v 2.4076474 1.9759053 1.1783589E-08
v 2.6304152 2.158726 5.8917946E-09
v 2.853183 2.3415468 0
v 1.7930843 2.1848793 1.7675383E-08
v 1.4101887 2.1104975 2.3567178E-08
v 2.2023811 2.2023816 1.1783589E-08
v 2.4061565 2.406157 5.8917946E-09
v 2.6099322 2.6099327 0
v 1.5702941 2.3501122 1.7675383E-08
v 1.1965336 2.2385576 2.3567178E-08
v 1.9759052 2.4076471 1.1783589E-08
v 2.1587262 2.630415 5.8917946E-09
v 2.341547 2.8531828 0
v 1.3323817 2.4927115 1.7675383E-08
v 0.9713557 2.3450587 -1.1705843E-06
v 1.7303995 2.589727 1.1783589E-08
v 1.8905048 2.8293417 5.8917946E-09
v 2.0506103 3.0689564 0
v 1.0816382 2.6113043 -8.779382E-07
v 0.7368217 2.4289765 2.3567178E-08
v 1.4682298 2.7468653 1.1783589E-08
v 1.6040779 3.0010192 5.8917946E-09
v 1.7399261 3.2551732 0
v 0.82047653 2.7047496 1.7675383E-08
v 0.49519184 2.4895015 2.3567178E-08
v 1.1919208 2.8775496 -5.852921E-07
v 1.3022034 3.143795 -2.9264606E-07
v 1.412486 3.4100406 0
v 0.5514133 2.7721462 1.7675383E-08
v 0.24879393 2.526051 2.3567178E-08
v 0.9041314 2.9805226 1.1783589E-08
v 0.9877863 3.2562957 5.8917946E-09
v 1.0714412 3.5320687 0
v 0.27704072 2.8128455 1.7675383E-08
v 1.19127755E-07 2.5382736 2.3567178E-08
v 1.7184614E-07 2.8264556 1.7675383E-08
v 0.6076348 3.054791 1.1783589E-08
v 0.66385627 3.3374357 5.8917946E-09
v 0.72007775 3.6200807 0
v 0.30528748 3.09964 1.1783589E-08
v 2.2456452E-07 3.1146379 1.1783589E-08
v 0.33353427 3.386434 5.8917946E-09
v 0.36178106 3.6732285 0
v 2.772829E-07 3.4028199 5.8917946E-09
v 3.3000128E-07 3.691002 0
vt 0.0013309717 0.75
vt 0.0013309717 1
vt 0.06356028 0.9999999
vt 0.06356027 0.7499998
vt 0.0013309717 0.5
vt 0.12578958 1
vt 0.06356028 0.49999994
vt 0.0013309717 0.25
vt 0.12578958 0.75
vt 0.18801889 1
vt 0.06356028 0.24999997
vt 0.0013309717 0
vt 0.06356028 0
vt 0.18801887 0.74999994
vt 0.2502482 1
vt 0.1257896 0.50000006
vt 0.12578957 0.24999997
vt 0.12578958 -2.9802322E-08
vt 0.2502482 0.75
vt 0.3124775 1
vt 0.18801889 0.49999997
vt 0.18801889 0.24999997
vt 0.18801889 -2.9802322E-08
vt 0.31247747 0.75
vt 0.3747068 1
vt 0.25024816 0.49999994
vt 0.25024816 0.24999994
vt 0.2502482 -2.9802322E-08
vt 0.37470683 0.75
vt 0.4369361 0.9999999
vt 0.31247747 0.49999994
vt 0.31247744 0.24999991
vt 0.3124775 -2.9802322E-08
vt 0.4369361 0.7499999
vt 0.49916542 0.99999994
vt 0.37470677 0.5
vt 0.37470683 0.24999997
vt 0.3747068 -2.9802322E-08
vt 0.49916542 0.74999994
vt 0.5613948 0.99999994
vt 0.4369361 0.49999994
vt 0.43693608 0.24999994
vt 0.4369361 -2.9802322E-08
vt 0.5613948 0.7499999
vt 0.62362415 0.99999994
vt 0.49916542 0.49999994
vt 0.49916536 0.24999994
vt 0.49916542 -2.9802322E-08
vt 0.623624 0.7499998
vt 0.6858535 0.99999994
vt 0.56139475 0.49999988
vt 0.56139475 0.24999991
vt 0.5613948 -2.9802322E-08
vt 0.6858534 0.74999994
vt 0.7480823 0.9999998
vt 0.6236241 0.49999988
vt 0.6236241 0.24999993
vt 0.62362415 -2.9802322E-08
vt 0.7480823 0.7499998
vt 0.81031203 0.99999994
vt 0.6858535 0.49999994
vt 0.6858534 0.24999994
vt 0.6858535 -2.9802322E-08
vt 0.8103119 0.7499999
vt 0.87254137 0.99999994
vt 0.7480822 0.49999988
vt 0.74808234 0.24999991
vt 0.7480823 -2.9802322E-08
vt 0.8725413 0.7499999
vt 0.9347707 0.9999999
vt 0.8103119 0.49999988
vt 0.810312 0.24999993
vt 0.81031203 -2.9802322E-08
vt 0.93477064 0.7499999
vt 0.9969995 1
vt 0.9969996 0.75
vt 0.8725414 0.5
vt 0.8725413 0.24999996
vt 0.87254137 -2.9802322E-08
vt 0.9347707 0.49999994
vt 0.99699974 0.5
vt 0.9347707 0.24999994
vt 0.9347707 -2.9802322E-08
vt 0.99699986 0.24999997
vt 0.997 -2.9802322E-08
vn -0 0 1
vn -0 0 1
vn -0 0 1
vn -0 0 1
vn -0 0 1
vn -0 0 1
vn -0 0 1
vn -0 0 1
vn -0 0 1
vn -0 0 1
vn -0 0 1
vn -0 0 1
vn -0 0 1
vn -0 0 1
vn -0 0 1
vn -0 0 1
vn -0 0 1
vn -0 0 1
vn -0 0 1
vn -0 0 1
vn -0 0 1
vn -0 0 1
vn -0 0 1
vn -0 0 1
vn -0 0 1
vn -0 0 1
vn -0 0 1
vn -0 0 1
vn -0 0 1
vn -0 0 1
vn -0 0 1
vn -0 0 1
vn -0 0 1
vn -0 0 1
vn -0 0 1
vn -0 0 1
vn -0 0 1
vn -0 0 1
vn -0 0 1
vn -0 0 1
vn -0 0 1
vn -0 0 1
vn -0 0 1
vn -0 0 1
vn -0 0 1
vn -0 0 1
vn -0 0 1
vn -0 0 1
vn -0 0 1
vn -0 0 1
vn -0 0 1
vn -0 0 1
vn -0 0 1
vn -0 0 1
vn -0 0 1
vn -0 0 1
vn -0 0 1
vn -0 0 1
vn -0 0 1
vn -0 0 1
vn -0 0 1
vn -0 0 1
vn -0 0 1
vn -0 0 1
vn -0 0 1
vn -0 0 1
vn -0 0 1
vn -0 0 1
vn -0 0 1
vn -0 0 1
vn -0 0 1
vn -0 0 1
vn -0 0 1
vn -0 0 1
vn -0 0 1
vn -0 0 1
vn -0 0 1
vn -0 0 1
vn -0 0 1
vn -0 0 1
vn -0 0 1
vn -0 0 1
vn -0 0 1
vn -0 0 1
vn -0 0 1
g QuadCircle_0
f 3/3/3 2/2/2 1/1/1
f 4/4/4 3/3/3 1/1/1
f 4/4/4 1/1/1 5/5/5
f 6/6/6 3/3/3 4/4/4
f 7/7/7 4/4/4 5/5/5
f 7/7/7 5/5/5 8/8/8
f 9/9/9 6/6/6 4/4/4
f 9/9/9 4/4/4 7/7/7
f 10/10/10 6/6/6 9/9/9
f 11/11/11 7/7/7 8/8/8
f 11/11/11 8/8/8 12/12/12
f 13/13/13 11/11/11 12/12/12
f 14/14/14 10/10/10 9/9/9
f 15/15/15 10/10/10 14/14/14
f 16/16/16 9/9/9 7/7/7
f 16/16/16 7/7/7 11/11/11
f 14/14/14 9/9/9 16/16/16
f 17/17/17 11/11/11 13/13/13
f 17/17/17 16/16/16 11/11/11
f 18/18/18 17/17/17 13/13/13
f 19/19/19 15/15/15 14/14/14
f 20/20/20 15/15/15 19/19/19
f 21/21/21 14/14/14 16/16/16
f 21/21/21 16/16/16 17/17/17
f 19/19/19 14/14/14 21/21/21
f 22/22/22 17/17/17 18/18/18
f 22/22/22 21/21/21 17/17/17
f 23/23/23 22/22/22 18/18/18
f 24/24/24 20/20/20 19/19/19
f 25/25/25 20/20/20 24/24/24
f 26/26/26 19/19/19 21/21/21
f 26/26/26 21/21/21 22/22/22
f 24/24/24 19/19/19 26/26/26
f 27/27/27 22/22/22 23/23/23
f 27/27/27 26/26/26 22/22/22
f 28/28/28 27/27/27 23/23/23
f 29/29/29 25/25/25 24/24/24
f 30/30/30 25/25/25 29/29/29
f 31/31/31 24/24/24 26/26/26
f 31/31/31 26/26/26 27/27/27
f 29/29/29 24/24/24 31/31/31
f 32/32/32 27/27/27 28/28/28
f 32/32/32 31/31/31 27/27/27
f 33/33/33 32/32/32 28/28/28
f 34/34/34 30/30/30 29/29/29
f 35/35/35 30/30/30 34/34/34
f 36/36/36 29/29/29 31/31/31
f 36/36/36 31/31/31 32/32/32
f 34/34/34 29/29/29 36/36/36
f 37/37/37 32/32/32 33/33/33
f 37/37/37 36/36/36 32/32/32
f 38/38/38 37/37/37 33/33/33
f 39/39/39 35/35/35 34/34/34
f 40/40/40 35/35/35 39/39/39
f 41/41/41 34/34/34 36/36/36
f 41/41/41 36/36/36 37/37/37
f 39/39/39 34/34/34 41/41/41
f 42/42/42 37/37/37 38/38/38
f 42/42/42 41/41/41 37/37/37
f 43/43/43 42/42/42 38/38/38
f 44/44/44 40/40/40 39/39/39
f 45/45/45 40/40/40 44/44/44
f 46/46/46 39/39/39 41/41/41
f 46/46/46 41/41/41 42/42/42
f 44/44/44 39/39/39 46/46/46
f 47/47/47 42/42/42 43/43/43
f 47/47/47 46/46/46 42/42/42
f 48/48/48 47/47/47 43/43/43
f 49/49/49 45/45/45 44/44/44
f 50/50/50 45/45/45 49/49/49
f 51/51/51 44/44/44 46/46/46
f 51/51/51 46/46/46 47/47/47
f 49/49/49 44/44/44 51/51/51
f 52/52/52 47/47/47 48/48/48
f 52/52/52 51/51/51 47/47/47
f 53/53/53 52/52/52 48/48/48
f 54/54/54 50/50/50 49/49/49
f 55/55/55 50/50/50 54/54/54
f 56/56/56 49/49/49 51/51/51
f 56/56/56 51/51/51 52/52/52
f 54/54/54 49/49/49 56/56/56
f 57/57/57 52/52/52 53/53/53
f 57/57/57 56/56/56 52/52/52
f 58/58/58 57/57/57 53/53/53
f 59/59/59 55/55/55 54/54/54
f 60/60/60 55/55/55 59/59/59
f 61/61/61 54/54/54 56/56/56
f 61/61/61 56/56/56 57/57/57
f 59/59/59 54/54/54 61/61/61
f 62/62/62 57/57/57 58/58/58
f 62/62/62 61/61/61 57/57/57
f 63/63/63 62/62/62 58/58/58
f 64/64/64 60/60/60 59/59/59
f 65/65/65 60/60/60 64/64/64
f 66/66/66 59/59/59 61/61/61
f 66/66/66 61/61/61 62/62/62
f 64/64/64 59/59/59 66/66/66
f 67/67/67 62/62/62 63/63/63
f 67/67/67 66/66/66 62/62/62
f 68/68/68 67/67/67 63/63/63
f 69/69/69 65/65/65 64/64/64
f 70/70/70 65/65/65 69/69/69
f 71/71/71 64/64/64 66/66/66
f 71/71/71 66/66/66 67/67/67
f 69/69/69 64/64/64 71/71/71
f 72/72/72 67/67/67 68/68/68
f 72/72/72 71/71/71 67/67/67
f 73/73/73 72/72/72 68/68/68
f 74/74/74 70/70/70 69/69/69
f 75/75/75 70/70/70 74/74/74
f 76/76/76 75/75/75 74/74/74
f 77/77/77 69/69/69 71/71/71
f 77/77/77 71/71/71 72/72/72
f 74/74/74 69/69/69 77/77/77
f 78/78/78 72/72/72 73/73/73
f 78/78/78 77/77/77 72/72/72
f 79/79/79 78/78/78 73/73/73
f 76/76/76 74/74/74 80/80/80
f 80/80/80 74/74/74 77/77/77
f 80/80/80 77/77/77 78/78/78
f 81/81/81 76/76/76 80/80/80
f 82/82/82 78/78/78 79/79/79
f 82/82/82 80/80/80 78/78/78
f 81/81/81 80/80/80 82/82/82
f 83/83/83 82/82/82 79/79/79
f 84/84/84 81/81/81 82/82/82
f 84/84/84 82/82/82 83/83/83
f 85/85/85 84/84/84 83/83/83
