g RulePanel1
v 0.11399569 -0.3988892 -0.0052
v 0.11399572 -0.33126432 -0.0052
v 0.11024505 -0.3279629 -0.0052
v 0.110775344 -0.40223178 -0.0052
v -0.28930002 -0.40223178 -0.0052
v -0.28774187 -0.40796867 -0.0052
v 0.113368 -0.40796867 -0.0052
v 0.11399572 -0.40223178 -0.0052
v 0.11399572 -0.40733844 -0.0052
v -0.28930002 -0.406561 -0.0052
v -0.28930002 -0.40252224 -0.0052
v -0.28930002 -0.3279629 -0.0052
v -0.28930002 -0.32846862 -0.0052
v -0.28930002 -0.322765 -0.0052
v 0.11348577 -0.32276496 -0.0052
v 0.11399572 -0.32327014 -0.0052
v 0.11399572 -0.3279629 -0.0052
v -0.28421554 -0.41378328 -0.0050000004
v 0.1231028 -0.41378328 -0.0050000004
v 0.1231028 -0.31929502 -0.0050000004
v -0.28930002 -0.31929502 -0.0050000004
v -0.28930002 -0.4086301 -0.0050000004
v 0.119082056 -0.40223178 -0.0052
v 0.11936785 -0.40194488 -0.0052
v 0.11936785 -0.3285919 -0.0052
v 0.11873289 -0.3279629 -0.0052
vt 0.3190918 0.046722412
vt 0.3190918 0.123535156
vt 0.32495117 0.12731934
vt 0.32421875 0.042907715
vt 0.9589844 0.042907715
vt 0.95654297 0.03640747
vt 0.32006836 0.03640747
vt 0.3190918 0.042907715
vt 0.3190918 0.037109375
vt 0.9589844 0.037994385
vt 0.9589844 0.04260254
vt 0.9589844 0.12731934
vt 0.9589844 0.12670898
vt 0.9589844 0.13317871
vt 0.31982422 0.13317871
vt 0.3190918 0.13269043
vt 0.3190918 0.12731934
vt 0.9511719 0.029785156
vt 0.30444336 0.029785156
vt 0.30444336 0.13720703
vt 0.9589844 0.13720703
vt 0.9589844 0.03564453
vt 0.31103516 0.042907715
vt 0.31054688 0.04324341
vt 0.31054688 0.12658691
vt 0.31152344 0.12731934
vn -0 0 -1
vn -0 0 -1
vn -0 0 -1
vn -0 0 -1
vn -0 0 -1
vn -0 0 -1
vn -0 0 -1
vn -0 0 -1
vn -0 0 -1
vn -0 0 -1
vn -0 0 -1
vn -0 0 -1
vn -0 0 -1
vn -0 0 -1
vn -0 0 -1
vn -0 0 -1
vn -0 0 -1
vn -0 0 -1
vn -0 0 -1
vn -0 0 -1
vn -0 0 -1
vn -0 0 -1
vn -0 0 -1
vn -0 0 -1
vn -0 0 -1
vn -0 0 -1
g RulePanel1_0
f 3/3/3 2/2/2 1/1/1
f 1/1/1 4/4/4 3/3/3
f 4/4/4 5/5/5 3/3/3
f 6/6/6 5/5/5 4/4/4
f 7/7/7 6/6/6 4/4/4
f 7/7/7 4/4/4 8/8/8
f 8/8/8 9/9/9 7/7/7
f 6/6/6 10/10/10 5/5/5
f 10/10/10 11/11/11 5/5/5
f 5/5/5 12/12/12 3/3/3
f 5/5/5 13/13/13 12/12/12
f 3/3/3 12/12/12 14/14/14
f 3/3/3 14/14/14 15/15/15
f 3/3/3 15/15/15 16/16/16
f 16/16/16 17/17/17 3/3/3
f 20/20/20 19/19/19 18/18/18
f 18/18/18 21/21/21 20/20/20
f 18/18/18 22/22/22 21/21/21
g RulePanel1_1
f 25/25/25 24/24/24 23/23/23
f 23/23/23 26/26/26 25/25/25
f 23/23/23 8/8/8 26/26/26
f 8/8/8 23/23/23 9/9/9
f 8/8/8 17/17/17 26/26/26
f 17/17/17 16/16/16 26/26/26
f 8/8/8 2/2/2 17/17/17
f 2/2/2 3/3/3 17/17/17
f 2/2/2 8/8/8 1/1/1
f 1/1/1 8/8/8 4/4/4
