g StandardUI
v 0.29189256 0.37184316 -0.00040000008
v 0.29856062 0.37787348 -0.00040000008
v 0.29181528 0.37790456 -0.00040000008
v 0.2138445 0.37184316 -0.00040000008
v 0.29856062 0.39792773 -0.00040000008
v 0.21385987 0.37826398 -0.00040000008
v 0.20730758 0.3782942 -0.00040000008
v 0.29156 0.39792776 -0.00040000008
v 0.2914754 0.40456364 -0.00040000008
v 0.21390696 0.39792776 -0.00040000008
v 0.20730758 0.39792773 -0.00040000008
v 0.21392286 0.40456364 -0.00040000008
v 0.015867746 -0.31352428 0.00040000008
v 0.009394184 -0.3198423 0.00039999932
v 0.015916977 -0.3198244 0.00040000008
v 0.009394185 -0.33744898 0.00039999932
v 0.2643211 -0.3191425 0.0003999997
v 0.26438537 -0.31352428 0.0003999997
v 0.27028275 -0.31912613 0.00040000008
v 0.27028275 -0.33881322 0.0003999997
v 0.016054971 -0.33748382 0.00039999932
v 0.016112274 -0.344817 0.00039999932
v 0.26409635 -0.33878085 0.0003999997
v 0.26402742 -0.344817 0.0003999997
v -0.2643404 -0.337777 0.00039999894
v -0.26430362 -0.34481707 0.00039999894
v -0.016930606 -0.34481704 0.00039999932
v -0.27091584 -0.33776984 0.00039999932
v -0.016712394 -0.3380469 0.00039999932
v -0.010227515 -0.338054 0.0003999997
v -0.26443198 -0.32024708 0.00039999932
v -0.27091584 -0.3202774 0.0003999997
v -0.2644671 -0.31352428 0.00039999932
v -0.01610129 -0.3190872 0.0003999997
v -0.010227504 -0.31905976 0.0003999997
v -0.015921986 -0.31352425 0.0003999997
vt 0.03668213 0.9223633
vt 0.02609253 0.9291992
vt 0.0368042 0.9291992
vt 0.16052246 0.9223633
vt 0.02609253 0.95214844
vt 0.16052246 0.9296875
vt 0.17089844 0.9296875
vt 0.037200928 0.95214844
vt 0.037353516 0.95996094
vt 0.16052246 0.95214844
vt 0.17089844 0.95214844
vt 0.16040039 0.95996094
vt 0.47485352 0.14367676
vt 0.48510742 0.13659668
vt 0.47485352 0.13659668
vt 0.48510742 0.11651611
vt 0.080444336 0.1373291
vt 0.080322266 0.14367676
vt 0.07098389 0.1373291
vt 0.07098389 0.114990234
vt 0.47460938 0.11651611
vt 0.47436523 0.1081543
vt 0.08081055 0.11505127
vt 0.08093262 0.1081543
vt 0.9194336 0.1161499
vt 0.9194336 0.1081543
vt 0.52685547 0.1081543
vt 0.9301758 0.1161499
vt 0.5263672 0.11584473
vt 0.5161133 0.11584473
vt 0.9199219 0.1361084
vt 0.9301758 0.1361084
vt 0.9199219 0.14367676
vt 0.5253906 0.13745117
vt 0.5161133 0.13745117
vt 0.5253906 0.14367676
vn -0 0 -1
vn -0 0 -1
vn -0 0 -1
vn -0 0 -1
vn -0 0 -1
vn -0 0 -1
vn -0 0 -1
vn -0 0 -1
vn -0 0 -1
vn -0 0 -1
vn -0 0 -1
vn -0 0 -1
vn -0 0 -1
vn -0 0 -1
vn -0 0 -1
vn -0 0 -1
vn -0 0 -1
vn -0 0 -1
vn -0 0 -1
vn -0 0 -1
vn -0 0 -1
vn -0 0 -1
vn -0 0 -1
vn -0 0 -1
vn -0 0 -1
vn -0 0 -1
vn -0 0 -1
vn -0 0 -1
vn -0 0 -1
vn -0 0 -1
vn -0 0 -1
vn -0 0 -1
vn -0 0 -1
vn -0 0 -1
vn -0 0 -1
vn -0 0 -1
g StandardUI_0
f 3/3/3 2/2/2 1/1/1
f 4/4/4 3/3/3 1/1/1
f 3/3/3 5/5/5 2/2/2
f 4/4/4 6/6/6 3/3/3
f 6/6/6 4/4/4 7/7/7
f 3/3/3 8/8/8 5/5/5
f 6/6/6 8/8/8 3/3/3
f 8/8/8 9/9/9 5/5/5
f 10/10/10 6/6/6 7/7/7
f 6/6/6 10/10/10 8/8/8
f 10/10/10 9/9/9 8/8/8
f 10/10/10 7/7/7 11/11/11
f 10/10/10 12/12/12 9/9/9
f 10/10/10 11/11/11 12/12/12
g StandardUI_1
f 15/15/15 14/14/14 13/13/13
f 15/15/15 16/16/16 14/14/14
f 17/17/17 15/15/15 13/13/13
f 17/17/17 13/13/13 18/18/18
f 19/19/19 17/17/17 18/18/18
f 20/20/20 17/17/17 19/19/19
f 15/15/15 21/21/21 16/16/16
f 17/17/17 21/21/21 15/15/15
f 21/21/21 22/22/22 16/16/16
f 20/20/20 23/23/23 17/17/17
f 17/17/17 23/23/23 21/21/21
f 23/23/23 22/22/22 21/21/21
f 23/23/23 20/20/20 24/24/24
f 23/23/23 24/24/24 22/22/22
f 27/27/27 26/26/26 25/25/25
f 25/25/25 26/26/26 28/28/28
f 27/27/27 25/25/25 29/29/29
f 30/30/30 27/27/27 29/29/29
f 31/31/31 25/25/25 28/28/28
f 29/29/29 25/25/25 31/31/31
f 31/31/31 28/28/28 32/32/32
f 31/31/31 32/32/32 33/33/33
f 30/30/30 29/29/29 34/34/34
f 29/29/29 31/31/31 34/34/34
f 34/34/34 31/31/31 33/33/33
f 30/30/30 34/34/34 35/35/35
f 34/34/34 33/33/33 36/36/36
f 35/35/35 34/34/34 36/36/36
