g Strata
v -0.3403465 -0.15647924 0
v -0.35493496 -0.15306643 0
v -0.3403465 -0.16647924 0
v -0.35493496 -0.16306643 0
v -0.3258346 -0.16020711 0
v -0.3403465 -0.15647924 0
v -0.3258346 -0.17020711 0
v -0.3403465 -0.16647924 0
v -0.3113873 -0.16417906 0
v -0.3113873 -0.17417906 0
v -0.29699203 -0.16833648 0
v -0.3113873 -0.16417906 0
v -0.29699203 -0.17833649 0
v -0.3113873 -0.17417906 0
v -0.28263766 -0.17263344 0
v -0.28263766 -0.18263344 0
v -0.26831517 -0.17703572 0
v -0.28263766 -0.17263344 0
v -0.26831517 -0.18703572 0
v -0.28263766 -0.18263344 0
v -0.25401643 -0.18151474 0
v -0.26831517 -0.17703572 0
v -0.25401643 -0.19151475 0
v -0.26831517 -0.18703572 0
v -0.23973504 -0.18604887 0
v -0.23973504 -0.19604887 0
v -0.22546493 -0.19061857 0
v -0.23973504 -0.18604887 0
v -0.22546493 -0.20061858 0
v -0.23973504 -0.19604887 0
v -0.21119528 -0.1951896 0
v -0.21119528 -0.20518959 0
v -0.19689833 -0.19967352 0
v -0.21119528 -0.1951896 0
v -0.19689833 -0.20967351 0
v -0.21119528 -0.20518959 0
v -0.18254296 -0.20396529 0
v -0.18254296 -0.21396528 0
v -0.1681023 -0.20795713 0
v -0.18254296 -0.20396529 0
v -0.1681023 -0.21795712 0
v -0.18254296 -0.21396528 0
v -0.15354231 -0.21147883 0
v -0.1681023 -0.20795713 0
v -0.15354231 -0.22147882 0
v -0.1681023 -0.21795712 0
v -0.13882701 -0.21424745 0
v -0.13882701 -0.22424744 0
v -0.1239506 -0.2158252 0
v -0.13882701 -0.21424745 0
v -0.1239506 -0.22582519 0
v -0.13882701 -0.22424744 0
v -0.10900722 -0.21572271 0
v -0.10900722 -0.2257227 0
v -0.094180815 -0.21380286 0
v -0.10900722 -0.21572271 0
v -0.094180815 -0.22380285 0
v -0.10900722 -0.2257227 0
v -0.0795728 -0.21052328 0
v -0.094180815 -0.21380286 0
v -0.0795728 -0.22052327 0
v -0.094180815 -0.22380285 0
v -0.07 -0.20791554 0
v -0.07 -0.21453774 0
v -0.07 -0.21791553 0
v 0.09116047 -0.15455292 0
v 0.07712315 -0.15979409 0
v 0.09116047 -0.16455291 0
v 0.07712315 -0.1697941 0
v 0.10522687 -0.14939058 0
v 0.09116047 -0.15455292 0
v 0.10522687 -0.15939058 0
v 0.09116047 -0.16455291 0
v 0.11933825 -0.14435302 0
v 0.10522687 -0.14939058 0
v 0.11933825 -0.15435301 0
v 0.10522687 -0.15939058 0
v 0.13350974 -0.13948779 0
v 0.13350974 -0.14948778 0
v 0.14775555 -0.13484542 0
v 0.13350974 -0.13948779 0
v 0.14775555 -0.14484543 0
v 0.13350974 -0.14948778 0
v 0.16208844 -0.13048081 0
v 0.16208844 -0.14048082 0
v 0.17651951 -0.12645446 0
v 0.16208844 -0.13048081 0
v 0.17651951 -0.13645445 0
v 0.16208844 -0.14048082 0
v 0.19105704 -0.122833826 0
v 0.17651951 -0.12645446 0
v 0.19105704 -0.13283382 0
v 0.17651951 -0.13645445 0
v 0.20570529 -0.11969497 0
v 0.20570529 -0.12969498 0
v 0.2204533 -0.11706245 0
v 0.20570529 -0.11969497 0
v 0.2204533 -0.12706245 0
v 0.20570529 -0.12969498 0
v 0.23526993 -0.11483898 0
v 0.23526993 -0.124838986 0
v 0.25013503 -0.11296908 0
v 0.23526993 -0.11483898 0
v 0.25013503 -0.12296908 0
v 0.23526993 -0.124838986 0
v 0.26503903 -0.111433625 0
v 0.26503903 -0.12143363 0
v 0.2799718 -0.11021262 0
v 0.26503903 -0.111433625 0
v 0.2799718 -0.120212615 0
v 0.26503903 -0.12143363 0
v 0.2949264 -0.10928955 0
v 0.2799718 -0.11021262 0
v 0.2949264 -0.119289555 0
v 0.2799718 -0.120212615 0
v 0.30989537 -0.108643316 0
v 0.30989537 -0.11864332 0
v 0.32487372 -0.108259775 0
v 0.30989537 -0.108643316 0
v 0.32487372 -0.11825978 0
v 0.30989537 -0.11864332 0
v 0.3398562 -0.108120084 0
v 0.3398562 -0.11812009 0
v 0.35483932 -0.10821042 0
v 0.3398562 -0.108120084 0
v 0.35483932 -0.11821043 0
v 0.3398562 -0.11812009 0
v 0.07 -0.16739391 0
v 0.07 -0.1624728 0
v 0.07 -0.1724728 0
v -0.0651172 -0.2065854 0
v -0.0651172 -0.2165854 0
v -0.050698537 -0.20250893 0
v -0.0651172 -0.2065854 0
v -0.050698537 -0.21250892 0
v -0.0651172 -0.2165854 0
v -0.036251094 -0.19853656 0
v -0.036251094 -0.20853655 0
v -0.021818418 -0.1945133 0
v -0.036251094 -0.19853656 0
v -0.021818418 -0.20451331 0
v -0.036251094 -0.20853655 0
v -0.0074785026 -0.19017342 0
v -0.0074785026 -0.20017341 0
v 0.0067603886 -0.1855106 0
v -0.0074785026 -0.19017342 0
v 0.0067603886 -0.19551061 0
v -0.0074785026 -0.20017341 0
v 0.020918049 -0.1806054 0
v 0.0067603886 -0.1855106 0
v 0.020918049 -0.19060539 0
v 0.0067603886 -0.19551061 0
v 0.035014115 -0.175525 0
v 0.035014115 -0.18552499 0
v 0.04906788 -0.17032833 0
v 0.035014115 -0.175525 0
v 0.04906788 -0.18032834 0
v 0.035014115 -0.18552499 0
v 0.06309815 -0.1650683 0
v 0.06309815 -0.1750683 0
v 0.06309815 -0.1650683 0
v 0.06309815 -0.1750683 0
v -0.19 -0.20654128 0
v -0.19 -0.20173588 0
v -0.19 -0.21173587 0
vt 0.9746836 0
vt 0.98734176 0
vt 0.9746836 0.25226784
vt 0.98734176 0.25226784
vt 0.94936705 0
vt 0.96202534 0
vt 0.94936705 0.25226784
vt 0.96202534 0.25226784
vt 0.93670887 0
vt 0.93670887 0.25226784
vt 0.9113924 0
vt 0.9240507 0
vt 0.9113924 0.25226784
vt 0.9240507 0.25226784
vt 0.89873415 0
vt 0.89873415 0.25226784
vt 0.87341774 0
vt 0.8860759 0
vt 0.87341774 0.25226784
vt 0.8860759 0.25226784
vt 0.84810126 0
vt 0.8607595 0
vt 0.84810126 0.25226784
vt 0.8607595 0.25226784
vt 0.835443 0
vt 0.835443 0.25226784
vt 0.81012654 0
vt 0.8227848 0
vt 0.81012654 0.25226784
vt 0.8227848 0.25226784
vt 0.7974683 0
vt 0.7974683 0.25226784
vt 0.7721519 0
vt 0.7848101 0
vt 0.7721519 0.25226784
vt 0.7848101 0.25226784
vt 0.7594937 0
vt 0.7594937 0.25226784
vt 0.73417723 0
vt 0.7468355 0
vt 0.73417723 0.25226784
vt 0.7468355 0.25226784
vt 0.70886075 0
vt 0.721519 0
vt 0.70886075 0.25226784
vt 0.721519 0.25226784
vt 0.6962025 0
vt 0.6962025 0.25226784
vt 0.67088604 0
vt 0.6835443 0
vt 0.67088604 0.25226784
vt 0.6835443 0.25226784
vt 0.6582278 0
vt 0.6582278 0.25226784
vt 0.6329114 0
vt 0.6455696 0
vt 0.6329114 0.25226784
vt 0.6455696 0.25226784
vt 0.6075949 0
vt 0.6202532 0
vt 0.6075949 0.25226784
vt 0.6202532 0.25226784
vt 0.59921235 0
vt 0.59921235 0.16705708
vt 0.59921235 0.25226784
vt 0.37974685 0
vt 0.39240503 0
vt 0.37974685 0.25226784
vt 0.39240503 0.25226784
vt 0.35443032 0
vt 0.36708856 0
vt 0.35443032 0.25226784
vt 0.36708856 0.25226784
vt 0.3291139 0
vt 0.34177214 0
vt 0.3291139 0.25226784
vt 0.34177214 0.25226784
vt 0.31645566 0
vt 0.31645566 0.25226784
vt 0.29113925 0
vt 0.30379742 0
vt 0.29113925 0.25226784
vt 0.30379742 0.25226784
vt 0.27848095 0
vt 0.27848095 0.25226784
vt 0.25316453 0
vt 0.26582277 0
vt 0.25316453 0.25226784
vt 0.26582277 0.25226784
vt 0.22784805 0
vt 0.24050635 0
vt 0.22784805 0.25226784
vt 0.24050635 0.25226784
vt 0.21518981 0
vt 0.21518981 0.25226784
vt 0.18987334 0
vt 0.20253164 0
vt 0.18987334 0.25226784
vt 0.20253164 0.25226784
vt 0.17721522 0
vt 0.17721522 0.25226784
vt 0.15189874 0
vt 0.16455692 0
vt 0.15189874 0.25226784
vt 0.16455692 0.25226784
vt 0.13924056 0
vt 0.13924056 0.25226784
vt 0.11392403 0
vt 0.1265822 0
vt 0.11392403 0.25226784
vt 0.1265822 0.25226784
vt 0.08860749 0
vt 0.10126579 0
vt 0.08860749 0.25226784
vt 0.10126579 0.25226784
vt 0.07594931 0
vt 0.07594931 0.25226784
vt 0.050632894 0
vt 0.06329107 0
vt 0.050632894 0.25226784
vt 0.06329107 0.25226784
vt 0.037974596 0
vt 0.037974596 0.25226784
vt 0.012658179 0
vt 0.025316417 0
vt 0.012658179 0.25226784
vt 0.025316417 0.25226784
vt 0.39883402 0.12414371
vt 0.39883402 0
vt 0.39883402 0.25226784
vt 0.59493667 0
vt 0.59493667 0.25226784
vt 0.56962025 0
vt 0.5822785 0
vt 0.56962025 0.25226784
vt 0.5822785 0.25226784
vt 0.556962 0
vt 0.556962 0.25226784
vt 0.53164554 0
vt 0.5443038 0
vt 0.53164554 0.25226784
vt 0.5443038 0.25226784
vt 0.51898736 0
vt 0.51898736 0.25226784
vt 0.49367088 0
vt 0.50632906 0
vt 0.49367088 0.25226784
vt 0.50632906 0.25226784
vt 0.4683544 0
vt 0.48101264 0
vt 0.4683544 0.25226784
vt 0.48101264 0.25226784
vt 0.45569617 0
vt 0.45569617 0.25226784
vt 0.43037975 0
vt 0.44303793 0
vt 0.43037975 0.25226784
vt 0.44303793 0.25226784
vt 0.4177215 0
vt 0.4177215 0.25226784
vt 0.40506327 0
vt 0.40506327 0.25226784
vt 0.7660691 0.1212248
vt 0.7660691 0
vt 0.7660691 0.25226784
vn -0 0 -1
vn -0 0 -1
vn -0 0 -1
vn -0 0 -1
vn -0 0 -1
vn -0 0 -1
vn -0 0 -1
vn -0 0 -1
vn -0 0 -1
vn -0 0 -1
vn -0 0 -1
vn -0 0 -1
vn -0 0 -1
vn -0 0 -1
vn -0 0 -1
vn -0 0 -1
vn -0 0 -1
vn -0 0 -1
vn -0 0 -1
vn -0 0 -1
vn -0 0 -1
vn -0 0 -1
vn -0 0 -1
vn -0 0 -1
vn -0 0 -1
vn -0 0 -1
vn -0 0 -1
vn -0 0 -1
vn -0 0 -1
vn -0 0 -1
vn -0 0 -1
vn -0 0 -1
vn -0 0 -1
vn -0 0 -1
vn -0 0 -1
vn -0 0 -1
vn -0 0 -1
vn -0 0 -1
vn -0 0 -1
vn -0 0 -1
vn -0 0 -1
vn -0 0 -1
vn -0 0 -1
vn -0 0 -1
vn -0 0 -1
vn -0 0 -1
vn -0 0 -1
vn -0 0 -1
vn -0 0 -1
vn -0 0 -1
vn -0 0 -1
vn -0 0 -1
vn -0 0 -1
vn -0 0 -1
vn -0 0 -1
vn -0 0 -1
vn -0 0 -1
vn -0 0 -1
vn -0 0 -1
vn -0 0 -1
vn -0 0 -1
vn -0 0 -1
vn -0 0 -1
vn -0 0 -1
vn -0 0 -1
vn -0 0 -1
vn -0 0 -1
vn -0 0 -1
vn -0 0 -1
vn -0 0 -1
vn -0 0 -1
vn -0 0 -1
vn -0 0 -1
vn -0 0 -1
vn -0 0 -1
vn -0 0 -1
vn -0 0 -1
vn -0 0 -1
vn -0 0 -1
vn -0 0 -1
vn -0 0 -1
vn -0 0 -1
vn -0 0 -1
vn -0 0 -1
vn -0 0 -1
vn -0 0 -1
vn -0 0 -1
vn -0 0 -1
vn -0 0 -1
vn -0 0 -1
vn -0 0 -1
vn -0 0 -1
vn -0 0 -1
vn -0 0 -1
vn -0 0 -1
vn -0 0 -1
vn -0 0 -1
vn -0 0 -1
vn -0 0 -1
vn -0 0 -1
vn -0 0 -1
vn -0 0 -1
vn -0 0 -1
vn -0 0 -1
vn -0 0 -1
vn -0 0 -1
vn -0 0 -1
vn -0 0 -1
vn -0 0 -1
vn -0 0 -1
vn -0 0 -1
vn -0 0 -1
vn -0 0 -1
vn -0 0 -1
vn -0 0 -1
vn -0 0 -1
vn -0 0 -1
vn -0 0 -1
vn -0 0 -1
vn -0 0 -1
vn -0 0 -1
vn -0 0 -1
vn -0 0 -1
vn -0 0 -1
vn -0 0 -1
vn -0 0 -1
vn -0 0 -1
vn -0 0 -1
vn -0 0 -1
vn -0 0 -1
vn -0 0 -1
vn -0 0 -1
vn -0 0 -1
vn -0 0 -1
vn -0 0 -1
vn -0 0 -1
vn -0 0 -1
vn -0 0 -1
vn -0 0 -1
vn -0 0 -1
vn -0 0 -1
vn -0 0 -1
vn -0 0 -1
vn -0 0 -1
vn -0 0 -1
vn -0 0 -1
vn -0 0 -1
vn -0 0 -1
vn -0 0 -1
vn -0 0 -1
vn -0 0 -1
vn -0 0 -1
vn -0 0 -1
vn -0 0 -1
vn -0 0 -1
vn -0 0 -1
vn -0 0 -1
vn -0 0 -1
vn -0 0 -1
vn -0 0 -1
vn -0 0 -1
vn -0 0 -1
vn -0 0 -1
vn -0 0 -1
vn -0 0 -1
g Strata_0
f 3/3/3 2/2/2 1/1/1
f 4/4/4 2/2/2 3/3/3
f 7/7/7 6/6/6 5/5/5
f 8/8/8 6/6/6 7/7/7
f 10/10/10 5/5/5 9/9/9
f 7/7/7 5/5/5 10/10/10
f 13/13/13 12/12/12 11/11/11
f 14/14/14 12/12/12 13/13/13
f 16/16/16 11/11/11 15/15/15
f 13/13/13 11/11/11 16/16/16
f 19/19/19 18/18/18 17/17/17
f 20/20/20 18/18/18 19/19/19
f 23/23/23 22/22/22 21/21/21
f 24/24/24 22/22/22 23/23/23
f 26/26/26 21/21/21 25/25/25
f 23/23/23 21/21/21 26/26/26
f 29/29/29 28/28/28 27/27/27
f 30/30/30 28/28/28 29/29/29
f 32/32/32 27/27/27 31/31/31
f 29/29/29 27/27/27 32/32/32
f 35/35/35 34/34/34 33/33/33
f 36/36/36 34/34/34 35/35/35
f 38/38/38 33/33/33 37/37/37
f 35/35/35 33/33/33 38/38/38
f 41/41/41 40/40/40 39/39/39
f 42/42/42 40/40/40 41/41/41
f 45/45/45 44/44/44 43/43/43
f 46/46/46 44/44/44 45/45/45
f 48/48/48 43/43/43 47/47/47
f 45/45/45 43/43/43 48/48/48
f 51/51/51 50/50/50 49/49/49
f 52/52/52 50/50/50 51/51/51
f 54/54/54 49/49/49 53/53/53
f 51/51/51 49/49/49 54/54/54
f 57/57/57 56/56/56 55/55/55
f 58/58/58 56/56/56 57/57/57
f 61/61/61 60/60/60 59/59/59
f 62/62/62 60/60/60 61/61/61
f 64/64/64 59/59/59 63/63/63
f 61/61/61 59/59/59 64/64/64
f 65/65/65 61/61/61 64/64/64
g Strata_1
f 68/68/68 67/67/67 66/66/66
f 69/69/69 67/67/67 68/68/68
f 72/72/72 71/71/71 70/70/70
f 73/73/73 71/71/71 72/72/72
f 76/76/76 75/75/75 74/74/74
f 77/77/77 75/75/75 76/76/76
f 79/79/79 74/74/74 78/78/78
f 76/76/76 74/74/74 79/79/79
f 82/82/82 81/81/81 80/80/80
f 83/83/83 81/81/81 82/82/82
f 85/85/85 80/80/80 84/84/84
f 82/82/82 80/80/80 85/85/85
f 88/88/88 87/87/87 86/86/86
f 89/89/89 87/87/87 88/88/88
f 92/92/92 91/91/91 90/90/90
f 93/93/93 91/91/91 92/92/92
f 95/95/95 90/90/90 94/94/94
f 92/92/92 90/90/90 95/95/95
f 98/98/98 97/97/97 96/96/96
f 99/99/99 97/97/97 98/98/98
f 101/101/101 96/96/96 100/100/100
f 98/98/98 96/96/96 101/101/101
f 104/104/104 103/103/103 102/102/102
f 105/105/105 103/103/103 104/104/104
f 107/107/107 102/102/102 106/106/106
f 104/104/104 102/102/102 107/107/107
f 110/110/110 109/109/109 108/108/108
f 111/111/111 109/109/109 110/110/110
f 114/114/114 113/113/113 112/112/112
f 115/115/115 113/113/113 114/114/114
f 117/117/117 112/112/112 116/116/116
f 114/114/114 112/112/112 117/117/117
f 120/120/120 119/119/119 118/118/118
f 121/121/121 119/119/119 120/120/120
f 123/123/123 118/118/118 122/122/122
f 120/120/120 118/118/118 123/123/123
f 126/126/126 125/125/125 124/124/124
f 127/127/127 125/125/125 126/126/126
f 67/67/67 69/69/69 128/128/128
f 129/129/129 67/67/67 128/128/128
f 128/128/128 69/69/69 130/130/130
g Strata_2
f 41/41/41 40/40/40 39/39/39
f 42/42/42 40/40/40 41/41/41
f 45/45/45 44/44/44 43/43/43
f 46/46/46 44/44/44 45/45/45
f 48/48/48 43/43/43 47/47/47
f 45/45/45 43/43/43 48/48/48
f 51/51/51 50/50/50 49/49/49
f 52/52/52 50/50/50 51/51/51
f 54/54/54 49/49/49 53/53/53
f 51/51/51 49/49/49 54/54/54
f 57/57/57 56/56/56 55/55/55
f 58/58/58 56/56/56 57/57/57
f 61/61/61 60/60/60 59/59/59
f 62/62/62 60/60/60 61/61/61
f 132/132/132 59/59/59 131/131/131
f 61/61/61 59/59/59 132/132/132
f 135/135/135 134/134/134 133/133/133
f 136/136/136 134/134/134 135/135/135
f 138/138/138 133/133/133 137/137/137
f 135/135/135 133/133/133 138/138/138
f 141/141/141 140/140/140 139/139/139
f 142/142/142 140/140/140 141/141/141
f 144/144/144 139/139/139 143/143/143
f 141/141/141 139/139/139 144/144/144
f 147/147/147 146/146/146 145/145/145
f 148/148/148 146/146/146 147/147/147
f 151/151/151 150/150/150 149/149/149
f 152/152/152 150/150/150 151/151/151
f 154/154/154 149/149/149 153/153/153
f 151/151/151 149/149/149 154/154/154
f 157/157/157 156/156/156 155/155/155
f 158/158/158 156/156/156 157/157/157
f 160/160/160 155/155/155 159/159/159
f 157/157/157 155/155/155 160/160/160
f 128/128/128 161/161/161 129/129/129
f 162/162/162 161/161/161 128/128/128
f 130/130/130 162/162/162 128/128/128
f 37/37/37 38/38/38 163/163/163
f 164/164/164 37/37/37 163/163/163
f 163/163/163 38/38/38 165/165/165
