g SubCircle
v -0.9987947 -0.04906784 1.7092617E-08
v -0.16646579 -0.008177973 1.7092617E-08
v -0.9999992 -2.0116568E-07 1.7092617E-08
v -0.16586399 -0.016336212 1.7092617E-08
v -0.9951838 -0.09801727 1.7092617E-08
v -0.16486259 -0.024455091 1.7092617E-08
v -0.98917556 -0.14673056 1.7092617E-08
v -0.16346407 -0.032515064 1.7092617E-08
v -0.98078436 -0.19509037 1.7092617E-08
v -0.16167173 -0.0404967 1.7092617E-08
v -0.97003037 -0.24298018 1.7092617E-08
v -0.1594899 -0.048380774 1.7092617E-08
v -0.95693946 -0.29028463 1.7092617E-08
v -0.15692386 -0.05614829 1.7092617E-08
v -0.94154316 -0.33688974 1.7092617E-08
v -0.15397978 -0.063780546 1.7092617E-08
v -0.9238786 -0.38268325 1.7092617E-08
v -0.15066473 -0.071259156 1.7092617E-08
v -0.9039884 -0.42755488 1.7092617E-08
v -0.14698672 -0.07856609 1.7092617E-08
v -0.8819203 -0.4713965 1.7092617E-08
v -0.14295462 -0.08568375 1.7092617E-08
v -0.85772765 -0.51410246 1.7092617E-08
v -0.13857812 -0.092594996 1.7092617E-08
v -0.83146864 -0.5555699 1.7092617E-08
v -0.13386777 -0.09928316 1.7092617E-08
v -0.80320656 -0.59569895 1.7092617E-08
v -0.12883492 -0.10573215 1.7092617E-08
v -0.7730095 -0.63439286 1.7092617E-08
v -0.1234917 -0.11192642 1.7092617E-08
v -0.74095017 -0.6715586 1.7092617E-08
v -0.11785098 -0.11785104 1.7092617E-08
v -0.7071059 -0.7071063 1.7092617E-08
v -0.11192633 -0.123491764 1.7092617E-08
v -0.67155796 -0.7409506 1.7092617E-08
v -0.105732046 -0.12883496 1.7092617E-08
v -0.6343923 -0.77300984 1.7092617E-08
v -0.09928308 -0.13386782 1.7092617E-08
v -0.5956984 -0.80320686 1.7092617E-08
v -0.09259491 -0.13857815 1.7092617E-08
v -0.5555694 -0.8314689 1.7092617E-08
v -0.08568366 -0.14295465 1.7092617E-08
v -0.5141019 -0.85772777 1.7092617E-08
v -0.078566 -0.14698674 1.7092617E-08
v -0.47139597 -0.8819204 1.7092617E-08
v -0.07125907 -0.15066473 1.7092617E-08
v -0.42755434 -0.9039884 1.7092617E-08
v -0.06378046 -0.15397975 1.7092617E-08
v -0.3826827 -0.92387855 1.7092617E-08
v -0.056148198 -0.15692385 1.7092617E-08
v -0.33688918 -0.94154304 1.7092617E-08
v -0.048380684 -0.15948987 1.7092617E-08
v -0.29028407 -0.9569393 1.7092617E-08
v -0.04049661 -0.16167171 1.7092617E-08
v -0.24297963 -0.9700301 1.7092617E-08
v -0.032514974 -0.16346401 1.7092617E-08
v -0.19508983 -0.98078406 1.7092617E-08
v -0.024455007 -0.16486256 1.7092617E-08
v -0.14673004 -0.9891753 1.7092617E-08
v -0.016336126 -0.16586392 1.7092617E-08
v -0.098016754 -0.9951835 1.7092617E-08
v -0.00817789 -0.1664657 1.7092617E-08
v -0.049067345 -0.99879414 1.7092617E-08
v 4.5945253E-08 -0.16666645 1.7092617E-08
v 2.7567148E-07 -0.9999987 1.7092617E-08
v 0.008177982 -0.1664657 1.7092617E-08
v 0.04906789 -0.99879414 1.7092617E-08
v 0.016336216 -0.16586389 1.7092617E-08
v 0.09801729 -0.9951834 1.7092617E-08
v 0.024455091 -0.1648625 1.7092617E-08
v 0.14673056 -0.989175 1.7092617E-08
v 0.032515056 -0.16346397 1.7092617E-08
v 0.19509035 -0.9807838 1.7092617E-08
v 0.040496692 -0.16167164 1.7092617E-08
v 0.24298014 -0.97002983 1.7092617E-08
v 0.04838076 -0.15948983 1.7092617E-08
v 0.29028457 -0.9569389 1.7092617E-08
v 0.05614828 -0.15692377 1.7092617E-08
v 0.33688968 -0.9415426 1.7092617E-08
v 0.06378054 -0.15397967 1.7092617E-08
v 0.38268322 -0.9238781 1.7092617E-08
v 0.07125914 -0.15066463 1.7092617E-08
v 0.42755482 -0.90398777 1.7092617E-08
v 0.07856606 -0.14698663 1.7092617E-08
v 0.4713964 -0.88191974 1.7092617E-08
v 0.085683726 -0.14295453 1.7092617E-08
v 0.51410234 -0.85772717 1.7092617E-08
v 0.09259497 -0.13857803 1.7092617E-08
v 0.55556977 -0.8314681 1.7092617E-08
v 0.09928312 -0.13386767 1.7092617E-08
v 0.5956987 -0.8032061 1.7092617E-08
v 0.105732106 -0.12883483 1.7092617E-08
v 0.6343926 -0.7730091 1.7092617E-08
v 0.11192637 -0.12349163 1.7092617E-08
v 0.6715582 -0.74094975 1.7092617E-08
v 0.117851004 -0.1178509 1.7092617E-08
v 0.707106 -0.7071054 1.7092617E-08
v 0.12349171 -0.111926265 1.7092617E-08
v 0.7409503 -0.67155755 1.7092617E-08
v 0.12883493 -0.105731994 1.7092617E-08
v 0.77300954 -0.63439196 1.7092617E-08
v 0.13386777 -0.09928301 1.7092617E-08
v 0.80320656 -0.59569806 1.7092617E-08
v 0.1385781 -0.09259485 1.7092617E-08
v 0.8314686 -0.55556905 1.7092617E-08
v 0.14295459 -0.085683614 1.7092617E-08
v 0.85772747 -0.5141016 1.7092617E-08
v 0.1469867 -0.078565955 1.7092617E-08
v 0.8819201 -0.4713957 1.7092617E-08
v 0.15066467 -0.07125902 1.7092617E-08
v 0.9039881 -0.42755407 1.7092617E-08
v 0.1539797 -0.06378042 1.7092617E-08
v 0.92387825 -0.38268247 1.7092617E-08
v 0.1569238 -0.056148164 1.7092617E-08
v 0.94154274 -0.336889 1.7092617E-08
v 0.15948983 -0.04838065 1.7092617E-08
v 0.9569389 -0.2902839 1.7092617E-08
v 0.16167164 -0.040496573 1.7092617E-08
v 0.9700297 -0.24297945 1.7092617E-08
v 0.16346395 -0.032514945 1.7092617E-08
v 0.98078376 -0.19508965 1.7092617E-08
v 0.1648625 -0.024454985 1.7092617E-08
v 0.98917496 -0.1467299 1.7092617E-08
v 0.16586386 -0.016336108 1.7092617E-08
v 0.99518317 -0.09801664 1.7092617E-08
v 0.16646564 -0.008177875 1.7092617E-08
v 0.99879384 -0.049067244 1.7092617E-08
v 0.16666666 4.2632563E-16 1.7092617E-08
v 1 4.2632563E-16 1.7092617E-08
v 0.16646591 0.008177946 1.7092617E-08
v 0.99879545 0.049067672 1.7092617E-08
v 0.16586412 0.016336191 1.7092617E-08
v 0.99518466 0.098017134 1.7092617E-08
v 0.16486277 0.024455082 1.7092617E-08
v 0.9891764 0.14673048 1.7092617E-08
v 0.1634642 0.032515056 1.7092617E-08
v 0.9807852 0.19509032 1.7092617E-08
v 0.16167188 0.0404967 1.7092617E-08
v 0.9700312 0.24298018 1.7092617E-08
v 0.15949003 0.04838078 1.7092617E-08
v 0.9569403 0.29028466 1.7092617E-08
v 0.15692401 0.05614831 1.7092617E-08
v 0.94154394 0.33688983 1.7092617E-08
v 0.15397991 0.063780576 1.7092617E-08
v 0.92387944 0.3826834 1.7092617E-08
v 0.15066487 0.071259186 1.7092617E-08
v 0.90398926 0.42755508 1.7092617E-08
v 0.14698687 0.07856612 1.7092617E-08
v 0.8819211 0.4713967 1.7092617E-08
v 0.14295475 0.085683785 1.7092617E-08
v 0.8577285 0.5141027 1.7092617E-08
v 0.13857825 0.09259502 1.7092617E-08
v 0.8314694 0.55557007 1.7092617E-08
v 0.1338679 0.099283196 1.7092617E-08
v 0.8032074 0.5956992 1.7092617E-08
v 0.12883505 0.1057322 1.7092617E-08
v 0.7730103 0.63439316 1.7092617E-08
v 0.12349183 0.11192649 1.7092617E-08
v 0.7409509 0.6715589 1.7092617E-08
v 0.1178511 0.11785112 1.7092617E-08
v 0.7071066 0.7071067 1.7092617E-08
v 0.11192645 0.123491846 1.7092617E-08
v 0.67155874 0.74095106 1.7092617E-08
v 0.10573217 0.12883507 1.7092617E-08
v 0.634393 0.7730104 1.7092617E-08
v 0.09928318 0.1338679 1.7092617E-08
v 0.5956991 0.8032074 1.7092617E-08
v 0.092595 0.13857825 1.7092617E-08
v 0.55557 0.8314694 1.7092617E-08
v 0.08568375 0.14295475 1.7092617E-08
v 0.51410246 0.8577285 1.7092617E-08
v 0.07856608 0.14698686 1.7092617E-08
v 0.47139648 0.88192105 1.7092617E-08
v 0.07125914 0.15066487 1.7092617E-08
v 0.42755485 0.90398914 1.7092617E-08
v 0.063780524 0.1539799 1.7092617E-08
v 0.3826832 0.9238793 1.7092617E-08
v 0.056148272 0.15692398 1.7092617E-08
v 0.33688965 0.94154376 1.7092617E-08
v 0.048380747 0.15949 1.7092617E-08
v 0.29028445 0.95694005 1.7092617E-08
v 0.040496662 0.16167185 1.7092617E-08
v 0.24297994 0.97003096 1.7092617E-08
v 0.03251502 0.16346416 1.7092617E-08
v 0.19509009 0.98078495 1.7092617E-08
v 0.024455046 0.1648627 1.7092617E-08
v 0.14673027 0.98917615 1.7092617E-08
v 0.01633616 0.16586408 1.7092617E-08
v 0.09801695 0.99518436 1.7092617E-08
v 0.0081779165 0.16646585 1.7092617E-08
v 0.049067497 0.9987951 1.7092617E-08
v -2.7318794E-08 0.16666658 1.7092617E-08
v -1.6391277E-07 0.9999996 1.7092617E-08
v -0.008177971 0.16646585 1.7092617E-08
v -0.04906782 0.998795 1.7092617E-08
v -0.016336212 0.16586407 1.7092617E-08
v -0.09801727 0.99518424 1.7092617E-08
v -0.024455097 0.16486266 1.7092617E-08
v -0.14673056 0.9891759 1.7092617E-08
v -0.032515068 0.16346413 1.7092617E-08
v -0.1950904 0.9807847 1.7092617E-08
v -0.040496707 0.16167179 1.7092617E-08
v -0.24298024 0.9700307 1.7092617E-08
v -0.048380785 0.15948997 1.7092617E-08
v -0.2902847 0.9569398 1.7092617E-08
v -0.05614831 0.15692392 1.7092617E-08
v -0.33688983 0.94154346 1.7092617E-08
v -0.06378057 0.15397984 1.7092617E-08
v -0.38268337 0.92387897 1.7092617E-08
v -0.07125917 0.15066478 1.7092617E-08
v -0.427555 0.9039887 1.7092617E-08
v -0.078566104 0.14698678 1.7092617E-08
v -0.47139663 0.8819207 1.7092617E-08
v -0.08568376 0.14295468 1.7092617E-08
v -0.5141026 0.85772794 1.7092617E-08
v -0.09259501 0.13857818 1.7092617E-08
v -0.55557007 0.83146894 1.7092617E-08
v -0.09928318 0.13386783 1.7092617E-08
v -0.5956991 0.8032069 1.7092617E-08
v -0.10573217 0.12883496 1.7092617E-08
v -0.634393 0.77300984 1.7092617E-08
v -0.11192645 0.12349175 1.7092617E-08
v -0.6715587 0.7409505 1.7092617E-08
v -0.11785107 0.117851034 1.7092617E-08
v -0.7071065 0.7071062 1.7092617E-08
v -0.1234918 0.11192639 1.7092617E-08
v -0.74095076 0.6715584 1.7092617E-08
v -0.12883502 0.105732106 1.7092617E-08
v -0.7730101 0.6343926 1.7092617E-08
v -0.13386786 0.09928312 1.7092617E-08
v -0.8032071 0.5956987 1.7092617E-08
v -0.1385782 0.09259496 1.7092617E-08
v -0.8314691 0.55556965 1.7092617E-08
v -0.1429547 0.0856837 1.7092617E-08
v -0.8577282 0.5141022 1.7092617E-08
v -0.14698681 0.078566045 1.7092617E-08
v -0.88192075 0.4713963 1.7092617E-08
v -0.1506648 0.07125911 1.7092617E-08
v -0.9039888 0.4275546 1.7092617E-08
v -0.15397984 0.063780494 1.7092617E-08
v -0.92387897 0.38268298 1.7092617E-08
v -0.15692392 0.05614824 1.7092617E-08
v -0.9415434 0.33688945 1.7092617E-08
v -0.15948996 0.048380718 1.7092617E-08
v -0.9569397 0.2902843 1.7092617E-08
v -0.16167177 0.04049664 1.7092617E-08
v -0.97003055 0.24297981 1.7092617E-08
v -0.1634641 0.032515 1.7092617E-08
v -0.9807846 0.19508998 1.7092617E-08
v -0.16486265 0.024455031 1.7092617E-08
v -0.98917586 0.14673018 1.7092617E-08
v -0.16586402 0.016336147 1.7092617E-08
v -0.99518406 0.09801688 1.7092617E-08
v -0.16646579 0.008177907 1.7092617E-08
v -0.9987947 0.049067438 1.7092617E-08
v -0.16666652 -3.3527613E-08 1.7092617E-08
v -0.9999992 -2.0116568E-07 1.7092617E-08
v -0.16646579 -0.008177973 1.7092617E-08
vt 0.9921875 -8.0842525E-05
vt 1 0.9999136
vt 1 -8.0842525E-05
vt 0.9921875 0.9999136
vt 0.984375 -8.0842525E-05
vt 0.984375 0.9999136
vt 0.9765625 -8.0842525E-05
vt 0.9765625 0.9999136
vt 0.96875 -8.0842525E-05
vt 0.96875 0.9999136
vt 0.9609375 -8.0842525E-05
vt 0.9609375 0.9999136
vt 0.953125 -8.0842525E-05
vt 0.953125 0.9999136
vt 0.9453125 -8.0842525E-05
vt 0.9453125 0.9999136
vt 0.9375 -8.0842525E-05
vt 0.9375 0.9999136
vt 0.9296875 -8.0842525E-05
vt 0.9296875 0.9999136
vt 0.921875 -8.0842525E-05
vt 0.921875 0.9999136
vt 0.9140625 -8.0842525E-05
vt 0.9140625 0.9999136
vt 0.90625 -8.0842525E-05
vt 0.90625 0.9999136
vt 0.8984375 -8.0842525E-05
vt 0.8984375 0.9999136
vt 0.890625 -8.0842525E-05
vt 0.890625 0.9999136
vt 0.8828125 -8.0842525E-05
vt 0.8828125 0.9999136
vt 0.875 -8.0842525E-05
vt 0.875 0.9999136
vt 0.8671875 -8.0842525E-05
vt 0.8671875 0.9999136
vt 0.859375 -8.0842525E-05
vt 0.859375 0.9999136
vt 0.8515625 -8.0842525E-05
vt 0.8515625 0.9999136
vt 0.84375 -8.0842525E-05
vt 0.84375 0.9999136
vt 0.8359375 -8.0842525E-05
vt 0.8359375 0.9999136
vt 0.828125 -8.0842525E-05
vt 0.828125 0.9999136
vt 0.8203125 -8.0842525E-05
vt 0.8203125 0.9999136
vt 0.8125 -8.0842525E-05
vt 0.8125 0.9999136
vt 0.8046875 -8.0842525E-05
vt 0.8046875 0.9999136
vt 0.796875 -8.0842525E-05
vt 0.796875 0.9999136
vt 0.7890625 -8.0842525E-05
vt 0.7890625 0.9999136
vt 0.78125 -8.0842525E-05
vt 0.78125 0.9999136
vt 0.7734375 -8.0842525E-05
vt 0.7734375 0.9999136
vt 0.765625 -8.0842525E-05
vt 0.765625 0.9999136
vt 0.7578125 -8.0842525E-05
vt 0.7578125 0.9999136
vt 0.75 -8.0842525E-05
vt 0.75 0.9999136
vt 0.7421875 -8.0842525E-05
vt 0.7421875 0.9999136
vt 0.734375 -8.0842525E-05
vt 0.734375 0.9999136
vt 0.7265625 -8.0842525E-05
vt 0.7265625 0.9999136
vt 0.71875 -8.0842525E-05
vt 0.71875 0.9999136
vt 0.7109375 -8.0842525E-05
vt 0.7109375 0.9999136
vt 0.703125 -8.0842525E-05
vt 0.703125 0.9999136
vt 0.6953125 -8.0842525E-05
vt 0.6953125 0.9999136
vt 0.6875 -8.0842525E-05
vt 0.6875 0.9999136
vt 0.6796875 -8.0842525E-05
vt 0.6796875 0.9999136
vt 0.671875 -8.0842525E-05
vt 0.671875 0.9999136
vt 0.6640625 -8.0842525E-05
vt 0.6640625 0.9999136
vt 0.65625 -8.0842525E-05
vt 0.65625 0.9999136
vt 0.6484375 -8.0842525E-05
vt 0.6484375 0.9999136
vt 0.640625 -8.0842525E-05
vt 0.640625 0.9999136
vt 0.6328125 -8.0842525E-05
vt 0.6328125 0.9999136
vt 0.625 -8.0842525E-05
vt 0.625 0.9999136
vt 0.6171875 -8.0842525E-05
vt 0.6171875 0.9999136
vt 0.609375 -8.0842525E-05
vt 0.609375 0.9999136
vt 0.6015625 -8.0842525E-05
vt 0.6015625 0.9999136
vt 0.59375 -8.0842525E-05
vt 0.59375 0.9999136
vt 0.5859375 -8.0842525E-05
vt 0.5859375 0.9999136
vt 0.578125 -8.0842525E-05
vt 0.578125 0.9999136
vt 0.5703125 -8.0842525E-05
vt 0.5703125 0.9999136
vt 0.5625 -8.0842525E-05
vt 0.5625 0.9999136
vt 0.5546875 -8.0842525E-05
vt 0.5546875 0.9999136
vt 0.546875 -8.0842525E-05
vt 0.546875 0.9999136
vt 0.5390625 -8.0842525E-05
vt 0.5390625 0.9999136
vt 0.53125 -8.0842525E-05
vt 0.53125 0.9999136
vt 0.5234375 -8.0842525E-05
vt 0.5234375 0.9999136
vt 0.515625 -8.0842525E-05
vt 0.515625 0.9999136
vt 0.5078125 -8.0842525E-05
vt 0.5078125 0.9999136
vt 0.5 -8.0842525E-05
vt 0.5 0.9999136
vt 0.4921875 -8.0842525E-05
vt 0.4921875 0.9999136
vt 0.484375 -8.0842525E-05
vt 0.484375 0.9999136
vt 0.4765625 -8.0842525E-05
vt 0.4765625 0.9999136
vt 0.46875 -8.0842525E-05
vt 0.46875 0.9999136
vt 0.4609375 -8.0842525E-05
vt 0.4609375 0.9999136
vt 0.453125 -8.0842525E-05
vt 0.453125 0.9999136
vt 0.4453125 -8.0842525E-05
vt 0.4453125 0.9999136
vt 0.4375 -8.0842525E-05
vt 0.4375 0.9999136
vt 0.4296875 -8.0842525E-05
vt 0.4296875 0.9999136
vt 0.421875 -8.0842525E-05
vt 0.421875 0.9999136
vt 0.4140625 -8.0842525E-05
vt 0.4140625 0.9999136
vt 0.40625 -8.0842525E-05
vt 0.40625 0.9999136
vt 0.3984375 -8.0842525E-05
vt 0.3984375 0.9999136
vt 0.390625 -8.0842525E-05
vt 0.390625 0.9999136
vt 0.3828125 -8.0842525E-05
vt 0.3828125 0.9999136
vt 0.375 -8.0842525E-05
vt 0.375 0.9999136
vt 0.3671875 -8.0842525E-05
vt 0.3671875 0.9999136
vt 0.359375 -8.0842525E-05
vt 0.359375 0.9999136
vt 0.3515625 -8.0842525E-05
vt 0.3515625 0.9999136
vt 0.34375 -8.0842525E-05
vt 0.34375 0.9999136
vt 0.3359375 -8.0842525E-05
vt 0.3359375 0.9999136
vt 0.328125 -8.0842525E-05
vt 0.328125 0.9999136
vt 0.3203125 -8.0842525E-05
vt 0.3203125 0.9999136
vt 0.3125 -8.0842525E-05
vt 0.3125 0.9999136
vt 0.3046875 -8.0842525E-05
vt 0.3046875 0.9999136
vt 0.296875 -8.0842525E-05
vt 0.296875 0.9999136
vt 0.2890625 -8.0842525E-05
vt 0.2890625 0.9999136
vt 0.28125 -8.0842525E-05
vt 0.28125 0.9999136
vt 0.2734375 -8.0842525E-05
vt 0.2734375 0.9999136
vt 0.265625 -8.0842525E-05
vt 0.265625 0.9999136
vt 0.2578125 -8.0842525E-05
vt 0.2578125 0.9999136
vt 0.25 -8.0842525E-05
vt 0.25 0.9999136
vt 0.2421875 -8.0842525E-05
vt 0.2421875 0.9999136
vt 0.234375 -8.0842525E-05
vt 0.234375 0.9999136
vt 0.2265625 -8.0842525E-05
vt 0.2265625 0.9999136
vt 0.21875 -8.0842525E-05
vt 0.21875 0.9999136
vt 0.2109375 -8.0842525E-05
vt 0.2109375 0.9999136
vt 0.203125 -8.0842525E-05
vt 0.203125 0.9999136
vt 0.1953125 -8.0842525E-05
vt 0.1953125 0.9999136
vt 0.1875 -8.0842525E-05
vt 0.1875 0.9999136
vt 0.1796875 -8.0842525E-05
vt 0.1796875 0.9999136
vt 0.171875 -8.0842525E-05
vt 0.171875 0.9999136
vt 0.1640625 -8.0842525E-05
vt 0.1640625 0.9999136
vt 0.15625 -8.0842525E-05
vt 0.15625 0.9999136
vt 0.1484375 -8.0842525E-05
vt 0.1484375 0.9999136
vt 0.140625 -8.0842525E-05
vt 0.140625 0.9999136
vt 0.1328125 -8.0842525E-05
vt 0.1328125 0.9999136
vt 0.125 -8.0842525E-05
vt 0.125 0.9999136
vt 0.1171875 -8.0842525E-05
vt 0.1171875 0.9999136
vt 0.109375 -8.0842525E-05
vt 0.109375 0.9999136
vt 0.1015625 -8.0842525E-05
vt 0.1015625 0.9999136
vt 0.09375 -8.0842525E-05
vt 0.09375 0.9999136
vt 0.0859375 -8.0842525E-05
vt 0.0859375 0.9999136
vt 0.078125 -8.0842525E-05
vt 0.078125 0.9999136
vt 0.0703125 -8.0842525E-05
vt 0.0703125 0.9999136
vt 0.0625 -8.0842525E-05
vt 0.0625 0.9999136
vt 0.0546875 -8.0842525E-05
vt 0.0546875 0.9999136
vt 0.046875 -8.0842525E-05
vt 0.046875 0.9999136
vt 0.0390625 -8.0842525E-05
vt 0.0390625 0.9999136
vt 0.03125 -8.0842525E-05
vt 0.03125 0.9999136
vt 0.0234375 -8.0842525E-05
vt 0.0234375 0.9999136
vt 0.015625 -8.0842525E-05
vt 0.015625 0.9999136
vt 0.0078125 -8.0842525E-05
vt 0.0078125 0.9999136
vt 0 -8.0842525E-05
vt 0 0.9999136
vn -0 0 -1
vn -0 0 -1
vn -0 0 -1
vn -0 0 -1
vn -0 0 -1
vn -0 0 -1
vn -0 0 -1
vn -0 0 -1
vn -0 0 -1
vn -0 0 -1
vn -0 0 -1
vn -0 0 -1
vn -0 0 -1
vn -0 0 -1
vn -0 0 -1
vn -0 0 -1
vn -0 0 -1
vn -0 0 -1
vn -0 0 -1
vn -0 0 -1
vn -0 0 -1
vn -0 0 -1
vn -0 0 -1
vn -0 0 -1
vn -0 0 -1
vn -0 0 -1
vn -0 0 -1
vn -0 0 -1
vn -0 0 -1
vn -0 0 -1
vn -0 0 -1
vn -0 0 -1
vn -0 0 -1
vn -0 0 -1
vn -0 0 -1
vn -0 0 -1
vn -0 0 -1
vn -0 0 -1
vn -0 0 -1
vn -0 0 -1
vn -0 0 -1
vn -0 0 -1
vn -0 0 -1
vn -0 0 -1
vn -0 0 -1
vn -0 0 -1
vn -0 0 -1
vn -0 0 -1
vn -0 0 -1
vn -0 0 -1
vn -0 0 -1
vn -0 0 -1
vn -0 0 -1
vn -0 0 -1
vn -0 0 -1
vn -0 0 -1
vn -0 0 -1
vn -0 0 -1
vn -0 0 -1
vn -0 0 -1
vn -0 0 -1
vn -0 0 -1
vn -0 0 -1
vn -0 0 -1
vn -0 0 -1
vn -0 0 -1
vn -0 0 -1
vn -0 0 -1
vn -0 0 -1
vn -0 0 -1
vn -0 0 -1
vn -0 0 -1
vn -0 0 -1
vn -0 0 -1
vn -0 0 -1
vn -0 0 -1
vn -0 0 -1
vn -0 0 -1
vn -0 0 -1
vn -0 0 -1
vn -0 0 -1
vn -0 0 -1
vn -0 0 -1
vn -0 0 -1
vn -0 0 -1
vn -0 0 -1
vn -0 0 -1
vn -0 0 -1
vn -0 0 -1
vn -0 0 -1
vn -0 0 -1
vn -0 0 -1
vn -0 0 -1
vn -0 0 -1
vn -0 0 -1
vn -0 0 -1
vn -0 0 -1
vn -0 0 -1
vn -0 0 -1
vn -0 0 -1
vn -0 0 -1
vn -0 0 -1
vn -0 0 -1
vn -0 0 -1
vn -0 0 -1
vn -0 0 -1
vn -0 0 -1
vn -0 0 -1
vn -0 0 -1
vn -0 0 -1
vn -0 0 -1
vn -0 0 -1
vn -0 0 -1
vn -0 0 -1
vn -0 0 -1
vn -0 0 -1
vn -0 0 -1
vn -0 0 -1
vn -0 0 -1
vn -0 0 -1
vn -0 0 -1
vn -0 0 -1
vn -0 0 -1
vn -0 0 -1
vn -0 0 -1
vn -0 0 -1
vn -0 0 -1
vn -0 0 -1
vn -0 0 -1
vn -0 0 -1
vn -0 0 -1
vn -0 0 -1
vn -0 0 -1
vn -0 0 -1
vn -0 0 -1
vn -0 0 -1
vn -0 0 -1
vn -0 0 -1
vn -0 0 -1
vn -0 0 -1
vn -0 0 -1
vn -0 0 -1
vn -0 0 -1
vn -0 0 -1
vn -0 0 -1
vn -0 0 -1
vn -0 0 -1
vn -0 0 -1
vn -0 0 -1
vn -0 0 -1
vn -0 0 -1
vn -0 0 -1
vn -0 0 -1
vn -0 0 -1
vn -0 0 -1
vn -0 0 -1
vn -0 0 -1
vn -0 0 -1
vn -0 0 -1
vn -0 0 -1
vn -0 0 -1
vn -0 0 -1
vn -0 0 -1
vn -0 0 -1
vn -0 0 -1
vn -0 0 -1
vn -0 0 -1
vn -0 0 -1
vn -0 0 -1
vn -0 0 -1
vn -0 0 -1
vn -0 0 -1
vn -0 0 -1
vn -0 0 -1
vn -0 0 -1
vn -0 0 -1
vn -0 0 -1
vn -0 0 -1
vn -0 0 -1
vn -0 0 -1
vn -0 0 -1
vn -0 0 -1
vn -0 0 -1
vn -0 0 -1
vn -0 0 -1
vn -0 0 -1
vn -0 0 -1
vn -0 0 -1
vn -0 0 -1
vn -0 0 -1
vn -0 0 -1
vn -0 0 -1
vn -0 0 -1
vn -0 0 -1
vn -0 0 -1
vn -0 0 -1
vn -0 0 -1
vn -0 0 -1
vn -0 0 -1
vn -0 0 -1
vn -0 0 -1
vn -0 0 -1
vn -0 0 -1
vn -0 0 -1
vn -0 0 -1
vn -0 0 -1
vn -0 0 -1
vn -0 0 -1
vn -0 0 -1
vn -0 0 -1
vn -0 0 -1
vn -0 0 -1
vn -0 0 -1
vn -0 0 -1
vn -0 0 -1
vn -0 0 -1
vn -0 0 -1
vn -0 0 -1
vn -0 0 -1
vn -0 0 -1
vn -0 0 -1
vn -0 0 -1
vn -0 0 -1
vn -0 0 -1
vn -0 0 -1
vn -0 0 -1
vn -0 0 -1
vn -0 0 -1
vn -0 0 -1
vn -0 0 -1
vn -0 0 -1
vn -0 0 -1
vn -0 0 -1
vn -0 0 -1
vn -0 0 -1
vn -0 0 -1
vn -0 0 -1
vn -0 0 -1
vn -0 0 -1
vn -0 0 -1
vn -0 0 -1
vn -0 0 -1
vn -0 0 -1
vn -0 0 -1
vn -0 0 -1
vn -0 0 -1
vn -0 0 -1
vn -0 0 -1
vn -0 0 -1
vn -0 0 -1
vn -0 0 -1
vn -0 0 -1
vn -0 0 -1
vn -0 0 -1
vn -0 0 -1
vn -0 0 -1
vn -0 0 -1
vn -0 0 -1
g SubCircle_0
f 3/3/3 2/2/2 1/1/1
f 1/1/1 2/2/2 4/4/4
f 1/1/1 4/4/4 5/5/5
f 5/5/5 4/4/4 6/6/6
f 5/5/5 6/6/6 7/7/7
f 7/7/7 6/6/6 8/8/8
f 7/7/7 8/8/8 9/9/9
f 9/9/9 8/8/8 10/10/10
f 9/9/9 10/10/10 11/11/11
f 11/11/11 10/10/10 12/12/12
f 11/11/11 12/12/12 13/13/13
f 13/13/13 12/12/12 14/14/14
f 13/13/13 14/14/14 15/15/15
f 15/15/15 14/14/14 16/16/16
f 15/15/15 16/16/16 17/17/17
f 17/17/17 16/16/16 18/18/18
f 17/17/17 18/18/18 19/19/19
f 19/19/19 18/18/18 20/20/20
f 19/19/19 20/20/20 21/21/21
f 21/21/21 20/20/20 22/22/22
f 21/21/21 22/22/22 23/23/23
f 23/23/23 22/22/22 24/24/24
f 23/23/23 24/24/24 25/25/25
f 25/25/25 24/24/24 26/26/26
f 25/25/25 26/26/26 27/27/27
f 27/27/27 26/26/26 28/28/28
f 27/27/27 28/28/28 29/29/29
f 29/29/29 28/28/28 30/30/30
f 29/29/29 30/30/30 31/31/31
f 31/31/31 30/30/30 32/32/32
f 31/31/31 32/32/32 33/33/33
f 33/33/33 32/32/32 34/34/34
f 33/33/33 34/34/34 35/35/35
f 35/35/35 34/34/34 36/36/36
f 35/35/35 36/36/36 37/37/37
f 37/37/37 36/36/36 38/38/38
f 37/37/37 38/38/38 39/39/39
f 39/39/39 38/38/38 40/40/40
f 39/39/39 40/40/40 41/41/41
f 41/41/41 40/40/40 42/42/42
f 41/41/41 42/42/42 43/43/43
f 43/43/43 42/42/42 44/44/44
f 43/43/43 44/44/44 45/45/45
f 45/45/45 44/44/44 46/46/46
f 45/45/45 46/46/46 47/47/47
f 47/47/47 46/46/46 48/48/48
f 47/47/47 48/48/48 49/49/49
f 49/49/49 48/48/48 50/50/50
f 49/49/49 50/50/50 51/51/51
f 51/51/51 50/50/50 52/52/52
f 51/51/51 52/52/52 53/53/53
f 53/53/53 52/52/52 54/54/54
f 53/53/53 54/54/54 55/55/55
f 55/55/55 54/54/54 56/56/56
f 55/55/55 56/56/56 57/57/57
f 57/57/57 56/56/56 58/58/58
f 57/57/57 58/58/58 59/59/59
f 59/59/59 58/58/58 60/60/60
f 59/59/59 60/60/60 61/61/61
f 61/61/61 60/60/60 62/62/62
f 61/61/61 62/62/62 63/63/63
f 63/63/63 62/62/62 64/64/64
f 63/63/63 64/64/64 65/65/65
f 65/65/65 64/64/64 66/66/66
f 65/65/65 66/66/66 67/67/67
f 67/67/67 66/66/66 68/68/68
f 67/67/67 68/68/68 69/69/69
f 69/69/69 68/68/68 70/70/70
f 69/69/69 70/70/70 71/71/71
f 71/71/71 70/70/70 72/72/72
f 71/71/71 72/72/72 73/73/73
f 73/73/73 72/72/72 74/74/74
f 73/73/73 74/74/74 75/75/75
f 75/75/75 74/74/74 76/76/76
f 75/75/75 76/76/76 77/77/77
f 77/77/77 76/76/76 78/78/78
f 77/77/77 78/78/78 79/79/79
f 79/79/79 78/78/78 80/80/80
f 79/79/79 80/80/80 81/81/81
f 81/81/81 80/80/80 82/82/82
f 81/81/81 82/82/82 83/83/83
f 83/83/83 82/82/82 84/84/84
f 83/83/83 84/84/84 85/85/85
f 85/85/85 84/84/84 86/86/86
f 85/85/85 86/86/86 87/87/87
f 87/87/87 86/86/86 88/88/88
f 87/87/87 88/88/88 89/89/89
f 89/89/89 88/88/88 90/90/90
f 89/89/89 90/90/90 91/91/91
f 91/91/91 90/90/90 92/92/92
f 91/91/91 92/92/92 93/93/93
f 93/93/93 92/92/92 94/94/94
f 93/93/93 94/94/94 95/95/95
f 95/95/95 94/94/94 96/96/96
f 95/95/95 96/96/96 97/97/97
f 97/97/97 96/96/96 98/98/98
f 97/97/97 98/98/98 99/99/99
f 99/99/99 98/98/98 100/100/100
f 99/99/99 100/100/100 101/101/101
f 101/101/101 100/100/100 102/102/102
f 101/101/101 102/102/102 103/103/103
f 103/103/103 102/102/102 104/104/104
f 103/103/103 104/104/104 105/105/105
f 105/105/105 104/104/104 106/106/106
f 105/105/105 106/106/106 107/107/107
f 107/107/107 106/106/106 108/108/108
f 107/107/107 108/108/108 109/109/109
f 109/109/109 108/108/108 110/110/110
f 109/109/109 110/110/110 111/111/111
f 111/111/111 110/110/110 112/112/112
f 111/111/111 112/112/112 113/113/113
f 113/113/113 112/112/112 114/114/114
f 113/113/113 114/114/114 115/115/115
f 115/115/115 114/114/114 116/116/116
f 115/115/115 116/116/116 117/117/117
f 117/117/117 116/116/116 118/118/118
f 117/117/117 118/118/118 119/119/119
f 119/119/119 118/118/118 120/120/120
f 119/119/119 120/120/120 121/121/121
f 121/121/121 120/120/120 122/122/122
f 121/121/121 122/122/122 123/123/123
f 123/123/123 122/122/122 124/124/124
f 123/123/123 124/124/124 125/125/125
f 125/125/125 124/124/124 126/126/126
f 125/125/125 126/126/126 127/127/127
f 127/127/127 126/126/126 128/128/128
f 127/127/127 128/128/128 129/129/129
f 129/129/129 128/128/128 130/130/130
f 129/129/129 130/130/130 131/131/131
f 131/131/131 130/130/130 132/132/132
f 131/131/131 132/132/132 133/133/133
f 133/133/133 132/132/132 134/134/134
f 133/133/133 134/134/134 135/135/135
f 135/135/135 134/134/134 136/136/136
f 135/135/135 136/136/136 137/137/137
f 137/137/137 136/136/136 138/138/138
f 137/137/137 138/138/138 139/139/139
f 139/139/139 138/138/138 140/140/140
f 139/139/139 140/140/140 141/141/141
f 141/141/141 140/140/140 142/142/142
f 141/141/141 142/142/142 143/143/143
f 143/143/143 142/142/142 144/144/144
f 143/143/143 144/144/144 145/145/145
f 145/145/145 144/144/144 146/146/146
f 145/145/145 146/146/146 147/147/147
f 147/147/147 146/146/146 148/148/148
f 147/147/147 148/148/148 149/149/149
f 149/149/149 148/148/148 150/150/150
f 149/149/149 150/150/150 151/151/151
f 151/151/151 150/150/150 152/152/152
f 151/151/151 152/152/152 153/153/153
f 153/153/153 152/152/152 154/154/154
f 153/153/153 154/154/154 155/155/155
f 155/155/155 154/154/154 156/156/156
f 155/155/155 156/156/156 157/157/157
f 157/157/157 156/156/156 158/158/158
f 157/157/157 158/158/158 159/159/159
f 159/159/159 158/158/158 160/160/160
f 159/159/159 160/160/160 161/161/161
f 161/161/161 160/160/160 162/162/162
f 161/161/161 162/162/162 163/163/163
f 163/163/163 162/162/162 164/164/164
f 163/163/163 164/164/164 165/165/165
f 165/165/165 164/164/164 166/166/166
f 165/165/165 166/166/166 167/167/167
f 167/167/167 166/166/166 168/168/168
f 167/167/167 168/168/168 169/169/169
f 169/169/169 168/168/168 170/170/170
f 169/169/169 170/170/170 171/171/171
f 171/171/171 170/170/170 172/172/172
f 171/171/171 172/172/172 173/173/173
f 173/173/173 172/172/172 174/174/174
f 173/173/173 174/174/174 175/175/175
f 175/175/175 174/174/174 176/176/176
f 175/175/175 176/176/176 177/177/177
f 177/177/177 176/176/176 178/178/178
f 177/177/177 178/178/178 179/179/179
f 179/179/179 178/178/178 180/180/180
f 179/179/179 180/180/180 181/181/181
f 181/181/181 180/180/180 182/182/182
f 181/181/181 182/182/182 183/183/183
f 183/183/183 182/182/182 184/184/184
f 183/183/183 184/184/184 185/185/185
f 185/185/185 184/184/184 186/186/186
f 185/185/185 186/186/186 187/187/187
f 187/187/187 186/186/186 188/188/188
f 187/187/187 188/188/188 189/189/189
f 189/189/189 188/188/188 190/190/190
f 189/189/189 190/190/190 191/191/191
f 191/191/191 190/190/190 192/192/192
f 191/191/191 192/192/192 193/193/193
f 193/193/193 192/192/192 194/194/194
f 193/193/193 194/194/194 195/195/195
f 195/195/195 194/194/194 196/196/196
f 195/195/195 196/196/196 197/197/197
f 197/197/197 196/196/196 198/198/198
f 197/197/197 198/198/198 199/199/199
f 199/199/199 198/198/198 200/200/200
f 199/199/199 200/200/200 201/201/201
f 201/201/201 200/200/200 202/202/202
f 201/201/201 202/202/202 203/203/203
f 203/203/203 202/202/202 204/204/204
f 203/203/203 204/204/204 205/205/205
f 205/205/205 204/204/204 206/206/206
f 205/205/205 206/206/206 207/207/207
f 207/207/207 206/206/206 208/208/208
f 207/207/207 208/208/208 209/209/209
f 209/209/209 208/208/208 210/210/210
f 209/209/209 210/210/210 211/211/211
f 211/211/211 210/210/210 212/212/212
f 211/211/211 212/212/212 213/213/213
f 213/213/213 212/212/212 214/214/214
f 213/213/213 214/214/214 215/215/215
f 215/215/215 214/214/214 216/216/216
f 215/215/215 216/216/216 217/217/217
f 217/217/217 216/216/216 218/218/218
f 217/217/217 218/218/218 219/219/219
f 219/219/219 218/218/218 220/220/220
f 219/219/219 220/220/220 221/221/221
f 221/221/221 220/220/220 222/222/222
f 221/221/221 222/222/222 223/223/223
f 223/223/223 222/222/222 224/224/224
f 223/223/223 224/224/224 225/225/225
f 225/225/225 224/224/224 226/226/226
f 225/225/225 226/226/226 227/227/227
f 227/227/227 226/226/226 228/228/228
f 227/227/227 228/228/228 229/229/229
f 229/229/229 228/228/228 230/230/230
f 229/229/229 230/230/230 231/231/231
f 231/231/231 230/230/230 232/232/232
f 231/231/231 232/232/232 233/233/233
f 233/233/233 232/232/232 234/234/234
f 233/233/233 234/234/234 235/235/235
f 235/235/235 234/234/234 236/236/236
f 235/235/235 236/236/236 237/237/237
f 237/237/237 236/236/236 238/238/238
f 237/237/237 238/238/238 239/239/239
f 239/239/239 238/238/238 240/240/240
f 239/239/239 240/240/240 241/241/241
f 241/241/241 240/240/240 242/242/242
f 241/241/241 242/242/242 243/243/243
f 243/243/243 242/242/242 244/244/244
f 243/243/243 244/244/244 245/245/245
f 245/245/245 244/244/244 246/246/246
f 245/245/245 246/246/246 247/247/247
f 247/247/247 246/246/246 248/248/248
f 247/247/247 248/248/248 249/249/249
f 249/249/249 248/248/248 250/250/250
f 249/249/249 250/250/250 251/251/251
f 251/251/251 250/250/250 252/252/252
f 251/251/251 252/252/252 253/253/253
f 253/253/253 252/252/252 254/254/254
f 253/253/253 254/254/254 255/255/255
f 255/255/255 254/254/254 256/256/256
f 255/255/255 256/256/256 257/257/257
f 257/257/257 256/256/256 258/258/258
